<svg xmlns="http://www.w3.org/2000/svg" width="200" height="128" viewBox="0 0 200 128"><path d="M17.63 1.61c-.35 1.28-.71 3.65-1 5.39l-1.09.06a9.47 9.47 0 0 0-.18-2c-.19-1.15-.65-1.59-2.85-1.59h-1.76L8 18c-.44 2.28-.25 2.59 2.52 2.78l-.22 1H1.09l.23-1c2.55-.19 2.78-.55 3.21-2.78L7.34 3.51H5.89c-2.29 0-2.82.35-3.42 1.17A11.42 11.42 0 0 0 1.1 7H0a50.69 50.69 0 0 0 1.31-5.39h.77c.32.65.61.64 1.42.64h11.8a1.67 1.67 0 0 0 1.5-.64z" fill="#fff"/><path d="M16.7 1.58a29.2 29.2 0 0 0 4.21-.81 5.21 5.21 0 0 1 1-.24c.31 0 .38.34.22 1-.74 3.56-1.68 7.93-2.45 11.47 1.94-2.66 4.86-4.89 6.9-4.89 1.11 0 2.21.54 1.28 4.5-.4 1.7-.95 4-1.37 5.73-.19.79-.16 1.12.08 1.12a4.14 4.14 0 0 0 1.95-1.38L29 19c-1.65 2.05-3.93 3.17-5 3.17s-1.35-.76-.81-3c.54-2.13 1.19-4.67 1.61-6.59.4-1.55.22-2-.32-2-1.1 0-2.9 1.32-4.45 3.94a8.61 8.61 0 0 0-1.12 2.82 97.26 97.26 0 0 0-.86 4.25 23.32 23.32 0 0 0-3.08.63l-.19-.25C16.06 16.15 17.31 10 18.44 4c.22-1.25.08-1.32-.94-1.43-.29 0-.83-.09-1-.09z" fill="#fff"/><path d="M32.35 22.15c-1.69 0-3.65-.94-3.65-4.54a10 10 0 0 1 3.5-7.72 8.38 8.38 0 0 1 4.55-1.76c2 0 3 1.18 3 2.56 0 3.11-4.51 4.38-7.62 5 0 .31-.06 1-.06 1.19 0 1.62.48 3.11 2.18 3.11a6.52 6.52 0 0 0 4.43-2.37l.47.89c-2.29 2.68-4.79 3.64-6.8 3.64zm-.1-7.58c3.55-.77 4.54-2.07 4.55-3.57 0-1-.55-1.48-1.33-1.48s-2.55.82-3.22 5.05zM61.93.4C69 .4 72.68 3.77 72.68 8.87c0 6.78-5.56 10.57-12.06 10.57a9 9 0 0 1-1.69-.21l-3.17-.73-1.39 7.5c-.65 3.48-.52 4 3.94 4.36L58 32H43.56l.44-1.62c3.59-.31 4.18-.67 4.93-4.57L52.59 6.7c.76-4 .58-4.36-3.55-4.69L49.43.4zm-5.8 16.31a10.1 10.1 0 0 0 3.22.54c4 0 7.45-3 7.45-8.82 0-4.25-2-6.14-5.19-6.14-2.11 0-2.88.43-3.31 2.94zM93.28 27.24c-2.53 3.33-5.89 5.3-7.72 5.3-1.52 0-2.26-1.31-1.39-5.82l.46-2.28a26.27 26.27 0 0 1-5.45 5.93 8 8 0 0 1-4.84 2.17c-1.92 0-3.45-2-3.45-5.93a17.8 17.8 0 0 1 5.36-12.74 15.31 15.31 0 0 1 9.8-4 44.87 44.87 0 0 1 6.39.85c-.93 3.53-2.57 11-3.34 15.49-.21 1.26-.14 1.89.25 1.89.55 0 1.63-.69 3.16-2.27zm-9.76-4a15 15 0 0 0 2.31-5c.45-1.94 1-4.16 1.16-5.42a8.45 8.45 0 0 0-3.31-.71c-4.91 0-7.26 7.82-7.2 13.37 0 1.94.53 2.92 1.32 2.92 1.2.03 3.1-1.4 5.72-5.13zM109.56 12.84a3.21 3.21 0 0 1-1.76 2.68c-.56.26-.88.19-1.46-.37-1.44-1.57-2.62-2.47-3.89-2.47a2.13 2.13 0 0 0-2.21 2.26c0 1.38 1.52 2.45 3.3 3.78 2.84 2.13 4.64 3.45 4.64 5.93 0 4.27-6.09 7.89-9.67 7.89-2.55 0-5.13-1.67-5.2-3.71a3.53 3.53 0 0 1 2.22-2.92c.4-.11.66.05 1.07.52 1.5 2 3.37 3.29 5 3.29a2.36 2.36 0 0 0 2.48-2.35c0-1.07-.47-2.05-2.88-3.88s-4.75-3.22-4.73-6.06c0-1.7.77-3.4 2.9-5.15a10.28 10.28 0 0 1 5.95-2.37c2.39 0 4.24 1.35 4.24 2.93zM125.1 12.84a3.23 3.23 0 0 1-1.76 2.68c-.56.26-.89.19-1.46-.37-1.44-1.57-2.62-2.47-3.9-2.47a2.14 2.14 0 0 0-2.21 2.26c0 1.38 1.52 2.45 3.3 3.78 2.85 2.13 4.65 3.45 4.65 5.93 0 4.27-6.09 7.89-9.68 7.89-2.55 0-5.13-1.67-5.19-3.71a3.52 3.52 0 0 1 2.21-2.92c.4-.11.66.05 1.08.52 1.49 2 3.36 3.29 5 3.29a2.36 2.36 0 0 0 2.48-2.35c0-1.07-.47-2.05-2.88-3.88S112 20.27 112 17.43c0-1.7.77-3.4 2.9-5.15a10.23 10.23 0 0 1 5.94-2.37c2.4 0 4.26 1.35 4.26 2.93zM136.2 27.39c-2.84 3.53-6.15 5.15-7.95 5.15-1.48 0-2.24-1.39-1.41-5s2.07-8.17 2.87-11.66c.29-1.24.24-1.68-.15-1.68a7 7 0 0 0-2.85 1.81L126 14.6c2.91-2.92 6.31-4.69 8-4.69 1.5 0 1.77 1.55.77 5.74-.8 3.18-1.9 7.61-2.68 10.78-.34 1.24-.34 1.87 0 1.87s1.67-.68 3.28-2.35zm1-24.68a3.33 3.33 0 0 1-3.2 3.44 2.55 2.55 0 0 1-2.68-2.72 3.45 3.45 0 0 1 3.4-3.43 2.44 2.44 0 0 1 2.49 2.71zM158.33 17.7a15 15 0 0 1-7 12.9 12.51 12.51 0 0 1-6.33 1.94c-5.4 0-7.07-4.13-7.07-7.83A14.52 14.52 0 0 1 146.47 11a13.12 13.12 0 0 1 4.9-1.09c4.63 0 6.96 3.01 6.96 7.79zm-14.83 7c0 3.7 1.24 5.69 3.37 5.69 3.79 0 5.93-7.15 5.93-12.86 0-3.87-1.36-5.54-3.32-5.54-4.48.01-5.98 8.67-5.98 12.73zM183.39 27.3c-2.89 3.69-6.16 5.24-7.86 5.24s-2.33-1.1-1.41-5.46c.68-3.16 1.6-6.8 2.33-9.83.65-2.65.33-3.46-.54-3.46-1.41 0-4.58 2.62-7.15 6.82A14 14 0 0 0 167 25c-.48 2-1 4.45-1.47 6.51a30.54 30.54 0 0 0-4.84 1l-.37-.4c1.28-5.11 2.62-10.56 3.83-16.11.34-1.48.21-1.91-.18-1.91s-1.84 1-2.92 2l-.72-1.45c2.81-3.26 5.52-4.78 7.22-4.78s2.3 1.79 1.25 6.36l-.49 2c3.27-4.59 7.86-8.4 11.22-8.4 1.76 0 3.36 1 1.84 7.49-.63 2.64-1.53 6.38-2.13 9-.26 1.27-.26 1.83.11 1.83s1.72-.65 3.28-2.37zM200 12.84a3.21 3.21 0 0 1-1.76 2.68c-.56.26-.88.19-1.46-.37-1.44-1.57-2.62-2.47-3.89-2.47a2.15 2.15 0 0 0-2.22 2.26c0 1.38 1.52 2.45 3.3 3.78 2.85 2.13 4.65 3.45 4.65 5.93 0 4.27-6.09 7.89-9.67 7.89-2.55 0-5.13-1.67-5.2-3.71a3.54 3.54 0 0 1 2.25-2.92c.41-.11.66.05 1.08.52 1.5 2 3.37 3.29 5 3.29a2.36 2.36 0 0 0 2.48-2.35c0-1.07-.47-2.05-2.88-3.88s-4.75-3.22-4.73-6.06c0-1.7.77-3.4 2.9-5.15a10.25 10.25 0 0 1 5.94-2.37c2.35 0 4.21 1.35 4.21 2.93zM50.28 70.8c.49 3.65 2.21 7.9 7.38 7.9 3.49 0 5.45-2.24 5.45-5.49 0-2.66-1.42-4.51-4.11-6.47l-1.61-1.2c-2.65-2-5.56-4.47-5.56-8.6 0-5.29 4.05-9.26 10.6-9.26A26.22 26.22 0 0 1 70.28 49a63.14 63.14 0 0 0-1 7.32l-1.68.13c-.11-3.35-1-7-5.69-7-3.39 0-5.08 2.4-5.08 5.35 0 2.49 1.28 4 3.87 5.82l1.68 1.22c3.38 2.44 6.08 5 6.08 9 0 5.73-4.92 9.75-11.32 9.75a18.62 18.62 0 0 1-8.84-2.27c.11-1.18.24-4 .35-7.4zM84.26 60.43c-.82.1-3.32.26-4.72.29-2.24 10.67-2.42 11.38-2.82 13.69-.31 1.69 0 2.1.39 2.1.94 0 2.54-1.14 4.15-2.87L82 75c-1.78 2.5-5.6 5.46-8.28 5.46-2.08 0-3-1.56-1.8-7l2.75-12.81h-3.83l-.06-.43 1.47-1.84h2.91l1.08-5.1a35.42 35.42 0 0 0 5.13-3.11l.63.37c-.55 1.81-1.42 5.32-2 7.84h5.23zM89.68 80.5c-2.74 0-5.9-1.52-5.9-7.33 0-4.54 1.94-9.62 5.65-12.46a13.43 13.43 0 0 1 7.35-2.84c3.27 0 4.85 1.9 4.85 4.13 0 5-7.29 7.08-12.32 8 0 .48-.1 1.52-.1 1.91 0 2.62.78 5 3.54 5 2.31 0 4.8-1.39 7.15-3.84l.76 1.44C97 79 92.93 80.5 89.68 80.5zm-.17-12.24c5.74-1.23 7.33-3.34 7.35-5.8 0-1.61-.88-2.38-2.15-2.38s-4.11 1.35-5.2 8.18zM102.5 62.83c2.19-2.92 4.94-5 6.69-5s2.37 1.85 2.63 5.88c.38 5.48.4 9.21.5 11.38C115.1 71.83 119 67.05 119 64a5.75 5.75 0 0 0-.94-2.77 1.11 1.11 0 0 1-.09-1 4.24 4.24 0 0 1 3.41-2.32c1.32 0 2 1.18 2.1 3 0 1.6-.71 3.93-3 7.14a163 163 0 0 1-10.67 12.45H108c-.22-3.56-.5-10.18-1.07-15.59-.23-2.14-.43-2.85-1-2.85s-1.34.59-2.65 2.19zM130.16 80.5c-2.74 0-5.89-1.52-5.89-7.33 0-4.54 1.94-9.62 5.65-12.46a13.4 13.4 0 0 1 7.34-2.84c3.27 0 4.86 1.9 4.86 4.13 0 5-7.3 7.08-12.32 8-.05.48-.1 1.52-.1 1.91 0 2.62.78 5 3.53 5 2.31 0 4.81-1.39 7.16-3.84l.76 1.44c-3.71 4.49-7.74 5.99-10.99 5.99zM130 68.26c5.75-1.23 7.33-3.34 7.35-5.8 0-1.61-.88-2.38-2.15-2.38s-4.12 1.35-5.2 8.18zM47.48 93.8c6.24 0 9.86 2.5 9.86 6.78 0 4.57-4 7-8.21 7.85 3.91.84 7.5 3.23 7.5 7.38 0 6.13-5.87 9.55-13.77 9.55H29l.32-1.58c3.77-.31 4.27-.78 5-4.53l3.8-19.36c.73-3.81.28-4.17-3.64-4.48l.38-1.61zm-7.66 25.25c-.71 3.69.86 4.42 3.65 4.42 4.2 0 7.13-3.51 7.13-7.9s-3.11-6-7.19-6h-1.78zM44 107.57c5.46 0 7.73-3.1 7.73-6.91s-2.34-4.94-4.9-4.94c-2 0-2.46.14-2.93 2.7l-1.78 9.15zM58.7 108.14c2.58-3 5.37-4.84 7.35-4.84 1.71 0 2.07 2.26 1 6.91l-.26 1.15c2.5-4.37 5.6-8.06 7.82-8.06a2.54 2.54 0 0 1 2.52 2.47 5.55 5.55 0 0 1-2.27 3.84q-.75.48-1.17 0c-.69-.74-1.3-1.44-1.91-1.44-1.31 0-3.75 4.07-4.49 5.5-1.35 2.61-2.26 7.21-3.07 11.23a33.37 33.37 0 0 0-4.87 1l-.37-.4c1.2-4.75 2.71-11.25 3.39-14.76.59-2.88.45-3.28.08-3.28a7.48 7.48 0 0 0-3 2.07zM82 125.94c-2.74 0-5.89-1.52-5.89-7.33 0-4.55 1.94-9.62 5.65-12.47a13.45 13.45 0 0 1 7.34-2.84c3.27 0 4.86 1.91 4.86 4.14 0 5-7.3 7.07-12.32 8 0 .49-.1 1.52-.1 1.92 0 2.62.77 5 3.53 5 2.31 0 4.81-1.39 7.16-3.83L93 120c-3.7 4.4-7.72 5.94-11 5.94zm-.17-12.25c5.74-1.23 7.33-3.33 7.35-5.79 0-1.62-.88-2.38-2.15-2.38s-4.03 1.35-5.17 8.17zM118.44 120.7c-2.89 3.69-6.17 5.24-7.86 5.24s-2.34-1.1-1.41-5.46c.68-3.17 1.6-6.8 2.33-9.83.65-2.65.33-3.46-.54-3.46-1.41 0-4.58 2.62-7.16 6.82a14.2 14.2 0 0 0-1.71 4.39c-.49 2-1 4.45-1.47 6.5a31.64 31.64 0 0 0-4.84 1l-.37-.4c1.23-5.07 2.59-10.5 3.79-16.09.34-1.48.21-1.91-.18-1.91s-1.84 1-2.93 2l-.71-1.45c2.8-3.26 5.52-4.79 7.21-4.79s2.3 1.8 1.25 6.37l-.49 2c3.28-4.59 7.87-8.41 11.23-8.41 1.76 0 3.36 1 1.83 7.5-.63 2.64-1.52 6.38-2.12 9-.26 1.28-.26 1.83.11 1.83s1.72-.65 3.28-2.36zM143.17 120.66c-2.79 3.64-6 5.3-7.62 5.3s-2.51-1.36-1.5-6l.42-2.06c-2.69 3.81-7.22 8.06-10.57 8.06-2.24 0-3.82-2.08-3.82-6.2a17 17 0 0 1 5.55-12.76c2.31-2 6.54-3.7 9.06-3.7a7.17 7.17 0 0 1 2.66.41l1.41-6.83c.39-2.2 0-2.39-1.87-2.57-.45 0-1.28-.1-1.53-.1l.36-1.5a50.12 50.12 0 0 0 7-1.32 11.64 11.64 0 0 1 1.66-.37c.55 0 .61.5.37 1.52-2.07 9-4.58 20.51-5.85 27.31-.24 1.25-.14 1.85.23 1.85.55 0 1.76-.79 3.32-2.48zm-9.52-4.38a12.48 12.48 0 0 0 2.07-5l1-4.24a5.43 5.43 0 0 0-4.13-1.44c-4.76 0-6.92 7.53-6.92 13 0 2.18.6 3.27 1.63 3.27 1.77.06 4.32-2.53 6.35-5.59zM166.78 120.64c-2.54 3.33-5.89 5.3-7.73 5.3-1.51 0-2.25-1.31-1.38-5.82l.46-2.28a26.49 26.49 0 0 1-5.45 5.93 8 8 0 0 1-4.84 2.17c-1.92 0-3.45-2-3.45-5.93a17.83 17.83 0 0 1 5.35-12.74 15.31 15.31 0 0 1 9.81-4 43.33 43.33 0 0 1 6.39.86c-.94 3.53-2.57 11-3.34 15.48-.21 1.27-.14 1.9.24 1.9.56 0 1.64-.7 3.16-2.27zm-9.77-4a14.77 14.77 0 0 0 2.31-5c.46-1.94 1-4.16 1.17-5.42a8.45 8.45 0 0 0-3.31-.71c-4.91 0-7.27 7.82-7.2 13.37 0 1.94.53 2.92 1.31 2.92 1.22.03 3.11-1.41 5.71-5.13zM160.31 59.12c4.05-1.52 3.92 3.27 1.09 3.27a3.83 3.83 0 0 1-2.49-.87c-3.75 6.06-.7 13.56 7.76 13.56 12 0 14.13-13.73 6.46-13.73-9 0-4.84 8.81-3.14 5.67 1-1.79 3.36-.31 2.4 1.61-1.18 2.4-6.59 1-5.8-4.93.52-3.88 4.66-5.88 8.81-5.88 11.73 0 9.07-6.59 7.8-5.24-1.52 1.62-4.14.53-3.23-1.52s6.59-1.36 5.15 4.62c-.39 1.7-2.05 4.93-8 5.36 5.45 6.85-1.7 16.84-11.69 16.84-14.21 0-14.43-12.83-7.24-17-3.44-4-2.22-14.39 9.42-14.39 4.76 0 7.24 2.66 6.89 5.45s-4.71 2.79-4.23.3-.65-4.44-4-4.44c-5.4-.01-7.4 6.09-5.96 11.32zM29.87 60a9.59 9.59 0 0 1-4.44 8.25 8.06 8.06 0 0 1-4.08 1.24c-3.46 0-4.53-2.64-4.53-5a9.3 9.3 0 0 1 5.47-8.77 8.57 8.57 0 0 1 3.13-.72c2.93 0 4.45 2 4.45 5zm-9.48 4.5c0 2.36.79 3.63 2.15 3.63 2.43 0 3.8-4.56 3.8-8.22 0-2.47-.88-3.54-2.13-3.54-2.86 0-3.82 5.53-3.82 8.13z" fill="#fff"/><path d="M34.08 55.4a11.3 11.3 0 0 1 2.79-5.78 7.36 7.36 0 0 1 4.81-2.45c1.47 0 2.25.64 2.25 1.36a3.12 3.12 0 0 1-1.16 1.87c-.29.17-.51.22-.77-.06a3.45 3.45 0 0 0-2.18-1.44c-.88 0-1.54.68-2.46 6.5h3.39l-.65 1.28c-.51 0-2.29.17-2.94.17-.51 3-.87 5.36-1.64 9.29-1 5.23-2.58 7.19-4.57 8.94a5.88 5.88 0 0 1-3.5 1.76c-1.17 0-2.13-.69-2.09-1.48a2.88 2.88 0 0 1 1.08-2c.24-.18.45-.18.59 0a4.49 4.49 0 0 0 2.36 1.27c1.47 0 1.75-2.09 2.67-7.54.72-4.22 1.2-7 1.72-10.25h-2.5l-.09-.35.93-1.1z" fill="#fff"/></svg>