<svg xmlns="http://www.w3.org/2000/svg" width="200" height="82" viewBox="0 0 200 82"><path d="M83.56 39.45c0-3.87.07-7.75 0-11.62 0-1.64.48-2.24 2.17-2.22 6.25.07 12.49 0 18.73 0 7.94 0 13.69 4.38 15.62 12.08 2.13 8.52.49 16.09-6.37 22.07a1.73 1.73 0 0 0-.57 2.32c2.26 5.67 4.45 11.38 6.67 17.07.73 1.87.62 2.07-1.41 2.07h-10.91a2.34 2.34 0 0 1-2.6-1.92c-1.68-5.11-3.46-10.19-5.22-15.28a10.32 10.32 0 0 0-.6-1.51.75.75 0 0 0-.94-.36.71.71 0 0 0-.49.69v16.52c0 1.62-.46 2.29-2.16 2.24-3.27-.1-6.55-.1-9.82 0-1.74 0-2.36-.6-2.33-2.32.1-8 0-16 .22-23.95.17-5.31 0-10.63 0-15.95zm14.34 4.76v2.35c0 3.54 0 3.54 3.5 3.34 3.19-.18 5.38-2.25 5.47-5.16.13-3.88-1.38-5.77-5-6.2-.84-.09-1.69 0-2.54-.08-1 0-1.43.43-1.42 1.41 0 1.45-.01 2.89-.01 4.34zM.1 44.31V27.78c0-1.57.5-2.18 2.08-2.12 3.45.13 6.9-.07 10.36.18 1.63.11 2 .75 2 2.24q-.24 15.06-.37 30.12a11.49 11.49 0 0 0 2 7.22 6.5 6.5 0 0 0 6.72 2.64 6.06 6.06 0 0 0 4.88-4.37 15.34 15.34 0 0 0 .8-5.18V28.38C28.55 26 28.59 26 31 26h9.82c1.37 0 2 .46 2 1.89 0 10.77.12 21.54-.05 32.31-.08 5.07-1.2 10-4.39 14.17-3.67 4.8-8.51 7.48-14.66 7.37-3.32 0-6.66.41-9.91-.77C5.83 78 2 71.88.55 64.06c-1-5.38-.27-10.87-.44-16.31C.07 46.61.1 45.46.1 44.31zM44.9 53.7V28.47c0-2.78 0-2.79 2.88-2.8 5.09 0 10.18.12 15.27-.06 9.86-.36 16.2 6.18 18 14.49 1.37 6.39 1.4 12.81-2.07 18.68-3 5.11-7.43 8.2-13.57 8.35-1.46 0-2.92.08-4.37 0s-1.89.55-1.87 1.93c.06 3.44 0 6.89.05 10.34 0 1.7-.65 2.23-2.26 2.2-3.33-.07-6.66-.08-10 0-1.57 0-2.13-.54-2.1-2.12.08-4.3 0-8.59 0-12.89V53.7zm14.67-7.32v6.34c0 .67 0 1.4.92 1.49 2.25.23 4.35 0 5.88-2a11.34 11.34 0 0 0 2-4 7.4 7.4 0 0 0-7.22-9.45c-1.19.05-1.61.52-1.59 1.65.03 1.99.01 3.98.01 5.97zM171.09 53.37V27.96c0-1.75.57-2.33 2.3-2.31 8.18.05 16.37 0 24.55 0 1.33 0 2 .37 2 1.85-.07 3.27-.06 6.53 0 9.8 0 1.34-.55 1.82-1.85 1.81-3.7 0-7.4.07-11.09 0-1.53 0-2 .55-2 2 .08 5.32-.46 4.45 4.39 4.52h7.45c1.09 0 1.65.42 1.72 1.59.19 3.39.21 6.77.23 10.16 0 1.46-.56 2.06-2 2-3.21-.06-6.42 0-9.63 0-2.16 0-2.36.22-2.41 2.41v4.35c0 1.45.47 2.29 2.19 2.24 3.64-.12 7.28 0 10.91-.09 1.79-.06 2.33.62 2.27 2.32-.11 3-.06 5.93 0 8.9 0 1.22-.45 1.74-1.7 1.73h-25.64c-1.64 0-1.65-1-1.65-2.15V53.32zM153.67 81.58h-13.09c-1.53 0-2.19-.44-2.15-2.07.09-3.33 0-6.66 0-10a7.06 7.06 0 0 1 .76-3q6-13.23 11.92-26.48c.91-2 .85-2.1-1.35-2.11h-9.28c-1.44 0-2.1-.41-2.06-2 .09-2.91.06-5.81 0-8.72 0-1.23.47-1.74 1.72-1.74q13.46.06 26.91.06c1.14 0 1.66.46 1.66 1.62 0 3.14.16 6.3-.06 9.43-.19 2.57-1.83 4.71-2.86 7-3.51 7.91-7.13 15.77-10.78 23.61-.66 1.43-.51 1.89 1.15 1.85 3.4-.09 6.79 0 10.19 0 2.29 0 2.36.1 2.42 2.3s.21 4.59.24 6.89c0 3.25 0 3.25-3.16 3.25h-12.18z" fill="#fff"/><path d="M132.37 15l-3.08 1c-2.38.79-4.12-.55-4-3 .06-1.23.69-1.69 1.79-1.87 2.51-.4 5-.85 7.53-1.24 2.26-.35 4.64 2.21 4.2 4.49-.25 1.24-.49 2.49-.83 3.72a56.61 56.61 0 0 0-1.6 14.7c-.06 9.55.3 19.1.08 28.66-.14 5.91 0 11.85.11 17.78.05 1.72-.51 2.39-2.27 2.34-3.27-.08-6.55-.09-9.82 0-1.77.06-2.27-.58-2.26-2.3.06-17.07 0-34.14.13-51.2 0-3.3-.48-6.19-2.67-8.72a10.89 10.89 0 0 1-1.59-2.42 2.25 2.25 0 0 1 .27-2.7c.78-.7 1.74-.26 2.49.33 1.57 1.23 3.18 2.43 4.66 3.77a1.77 1.77 0 0 0 2.68.13c1.43-1.1 2.92-2.12 4.39-3.17zM131 6.27c.16 1.5-.89 2.38-1.95 3a1.29 1.29 0 0 1-1.93-1.19 23.58 23.58 0 0 1 .11-6.08c.15-.86.4-2.07 1.7-1.94a2 2 0 0 1 1.8 2.13c.07 1.32.19 2.7.27 4.08zM126 5.09c-.08.93-.25 2.19-.28 3.44s-.62 1.55-1.72 1.54-1.69-.36-1.73-1.55-.27-2.39-.27-3.59c-.09-1.83 1-3.38 2.21-3.33s1.85 1.11 1.79 3.49zM136.25 3.33c-.26 1.32-.52 2.74-.85 4.15-.22.95-1 1.07-1.85 1.08s-1.29-.65-1.34-1.41c-.09-1.38-.05-2.76-.08-4.15S132.76.71 134 .83a2.51 2.51 0 0 1 2.25 2.5zM121 7.16v1.22c-.09 1.54-1 2-2.43 1.31s-1.76-4.43-.5-5.46a2 2 0 0 1 2.32-.38c1 .42.78 1.23.71 2-.1.31-.1.61-.1 1.31z" fill="#fff"/></svg>