<?xml version="1.0" encoding="UTF-8"?><svg id="b" xmlns="http://www.w3.org/2000/svg" viewBox="0 0 270 99"><path d="M149.35,34.81h19.05l-1.83,8.59h-29L146.73.32h9.95l-7.33,34.49ZM179.65,43.4h-9.95L178.86.32h9.95l-9.16,43.08ZM224.96,43.4h-16.79l-5.06-20.86c-.61-2.58-.89-4-1.95-10.27l-.63-3.42h-.39c-1,5.94-1.84,10.46-2.52,13.69l-4.43,20.86h-9.75L192.59.32h16.66l4.74,19.96c1.05,4.46,1.12,4.78,2.23,10.79l.73,3.55h.39l.58-3.36c.77-4.84.89-5.43,1.87-10.01L224.23.32h9.88l-9.16,43.08ZM129.99.32h-14.92l-22.78,43.08h10.33l2.22-4.29h-.01l16.27-31.3,2.04,20.47h-5.29l-3.78,7.3h9.59l.79,7.81h10.2L129.99.32ZM265.34.32h-14.92l-22.78,43.08h10.33l2.22-4.29h-.01l16.27-31.3,2.04,20.47h-5.29l-3.78,7.3h9.59l.79,7.81h10.2L265.34.32ZM81.24,17.5l-5.5,25.9h9.95l5.5-25.9h-9.95ZM73.26.32l-1.83,8.59h33.78l1.83-8.59h-33.78ZM17.88,34.87c-4.59,0-6.4-.58-7-2.32-.61-1.68-.48-3.23,1.1-10.66.4-1.87.74-3.42,1.03-4.71H2.73c-.06.28-.12.55-.19.84C1.27,24.02.32,29.71.05,32.48c-.29,3.16.68,6.2,2.46,7.88,2.63,2.52,4.84,3.04,13.05,3.04.66,0,1.3,0,1.92,0h0s17.4,0,17.4,0l1.83-8.61-17.41.06c-.45.01-.91.02-1.41.02ZM26.77,0c-9.9.02-13.32.82-17.3,4-1.66,1.32-2.92,2.82-3.97,4.88,0,0,16.38-.3,18.36-.3.38,0,.74,0,1.08.01h0s14.17,0,14.17,0l1.83-8.61h-14.17ZM66.77.32h-14.92l-22.78,43.08h10.33l2.22-4.29h-.01L57.88,7.81l2.04,20.47h-5.29l-3.78,7.3h9.59l.79,7.81h10.2L66.77.32Z" fill="#fff" stroke-width="0"/><path d="M171.05,54.73h-14.92l-22.78,43.08h10.33l2.22-4.29h-.01l16.27-31.3,2.04,20.47h-5.29l-3.78,7.3h9.59l.79,7.81h10.2l-4.66-43.08ZM75.21,63.07l1.77-8.34h-9.95l-1.77,8.34h9.95ZM94.42,54.73l-3.6,16.92h-9.24s-18.14,0-18.14,0l-5.56,26.15h9.95l3.75-17.63h17.44l-3.75,17.63h9.95l9.16-43.08h-9.95ZM186.32,71.91l-5.5,25.9h9.95l5.5-25.9h-9.95ZM178.35,54.73l-1.83,8.59h33.78l1.83-8.59h-33.78ZM110.59,54.73l-1.74,8.21h30.35s1.74-8.21,1.74-8.21h-30.35ZM134.48,79.4l1.5-7.04h-29.13s-5.41,25.45-5.41,25.45h30.61l1.74-8.2h-20.67l2.17-10.2h19.18Z" fill="#fff" stroke-width="0"/></svg>