<svg xmlns="http://www.w3.org/2000/svg" viewBox="0 0 240 94"><path d="M10.62.36h6.84l.59 28.16L36.83.36h6.99L33.34 36.55h-6.12l4.87-19.34-20.04 34.28 1.33-34.08-6.87 19.44H0L10.62.36zm53.22 5.83l-2.27 27.42h-5.28v-5.75H48.4l-3.01 5.28-5.08-.07L53.02 10.8V6.19h10.83zm-5.22 4.01l-7.38 12.54h6.28l1.1-12.54zm13.03-4.01l2.27 14.41-10.84 13.01h5.42l9.1-11.88 2.13 11.88h5.6l-2.62-14.07L93.69 6.19h-5.67l-9 11.86-2.27-11.86s-4.98-.12-5.1 0zm16.52 27.42h4.98l9.03-27.42h-5.47l-8.53 27.42zm9.01-.23h4.99l5.61-17.66 2.34 12.02h1.56l9.81-11.79-5.23 17.66h4.46l8.87-27.42h-5.58l-11.1 14.58-2.23-14.64h-5.19l-8.31 27.24zm48.94 0h4.99l5.61-17.66 2.34 12.02h1.56l9.81-11.79-5.23 17.66h4.46l8.87-27.42h-5.58l-11.1 14.58-2.23-14.64h-5.19l-8.31 27.24zm-.33-26.94l-6.93 21.82h-7.31l6.11-21.82h-4.62l-7.59 24.07c-.54 1.71.37 3.1 2.03 3.1h11.82c1.66 0 3.44-1.39 3.98-3.1l7.59-24.07h-5.07zM24.46 38.83L7.03 71.14V39.6H2.18l-.86 36.29h9.98L27.26 42.9h38.62l2.39-3.05h3.28l-2.39 3.05h2.33l2.39-3.05h3.05l-2.39 3.05h3.3l2.39-3.05h2.4l-2.39 3.05h28.69l-8.69 32.99h4.43l8.72-32.57h22.69l3.93-4.48H24.46zm-3.42 34.7h13.41l1.51-5.27h-8.81l1.77-6.11h5.05l2.26-5h-5.75l1.68-6.24h8.72l1.68-5.09H29.32l-8.28 27.71zm16.78 0H51.1l1.37-5.31h-8.94l6.77-22.4h-4.29l-8.19 27.71zM98.71 46l.59 1.73-7.38 25.73h4.14L103.98 46H98.7zm37.69.07l.96 2.1-6.35 25.23H144l1.42-5.1h-9.13l1.79-6.12h4.67l2.32-4.82h-5.5l1.7-6.29h8.68l.91-3.46-.63-1.53h-13.84zm17.93 0l.34 2.1-6.64 25.23h12.99l1.42-5.1h-9.13l1.79-6.12h4.67l2.32-4.82h-5.5l1.7-6.29h8.68l1.31-4.99h-13.94zm-77.19 3.32l-5.49 20.49c-.53 1.97-2.56 3.57-4.53 3.57H58.9c-1.97 0-3.15-1.6-2.62-3.57l5.49-20.49c.53-1.97 2.56-3.57 4.53-3.57h8.22c1.97 0 3.15 1.6 2.62 3.57zm-4.83 1.43h-5.87l-4.79 17.26h5.67l4.99-17.26zM91.42 62.5l-1.98 7.38c-.53 1.97-2.56 3.57-4.53 3.57h-7.17c-1.97 0-3.15-1.6-2.62-3.57l5.49-20.49c.53-1.97 2.56-3.57 4.53-3.57h7.17c1.97 0 3.15 1.6 2.62 3.57l-1.33 4.98-4.27 1.43 1.44-4.98h-5.48L80.5 68.08h5.29l1.23-4.25 4.41-1.33zm42.01-13.11l-3.84 12.89c-.37 1.4-1.5 2.6-2.82 3.19v7.93h-4.53v-7.49l-5.32.1-2.33 7.42h-3.67l7.14-24.05-.91-3.55 13.67-.02c1.97 0 3.15 1.6 2.62 3.57zm-4.84 1.43h-5.87l-2.29 9.79h5.67l2.48-9.79zM13.23 84.89c-2.04-1.91-4.1-2.59-5.2-2.59h-4.8s1.67.67 3.53 1.49c1.86.82 4.97 4.18 4.97 4.18s-3.11 3.36-4.97 4.18c-1.86.82-3.53 1.49-3.53 1.49h4.8c1.09 0 3.16-.67 5.2-2.59 2.04-1.91 3.21-3.08 3.21-3.08s-1.17-1.17-3.21-3.08zm10.83 0c-2.04-1.91-4.1-2.59-5.2-2.59h-4.8s1.67.67 3.53 1.49c1.86.82 4.97 4.18 4.97 4.18s-3.11 3.36-4.97 4.18c-1.86.82-3.53 1.49-3.53 1.49h4.8c1.09 0 3.16-.67 5.2-2.59 2.04-1.91 3.21-3.08 3.21-3.08s-1.17-1.17-3.21-3.08zm10.55 0c-2.04-1.91-4.1-2.59-5.2-2.59h-4.8s1.67.67 3.53 1.49c1.86.82 4.97 4.18 4.97 4.18s-3.11 3.36-4.97 4.18c-1.86.82-3.53 1.49-3.53 1.49h4.8c1.09 0 3.16-.67 5.2-2.59 2.04-1.91 3.21-3.08 3.21-3.08s-1.17-1.17-3.21-3.08zm10.63 0c-2.04-1.91-4.1-2.59-5.2-2.59h-4.8s1.67.67 3.53 1.49c1.86.82 4.97 4.18 4.97 4.18s-3.11 3.36-4.97 4.18c-1.86.82-3.53 1.49-3.53 1.49h4.8c1.09 0 3.16-.67 5.2-2.59 2.04-1.91 3.21-3.08 3.21-3.08s-1.17-1.17-3.21-3.08zm11.47 0c-2.04-1.91-4.1-2.59-5.2-2.59h-4.8s1.67.67 3.53 1.49c1.86.82 4.97 4.18 4.97 4.18s-3.11 3.36-4.97 4.18c-1.86.82-3.53 1.49-3.53 1.49h4.8c1.09 0 3.16-.67 5.2-2.59 2.04-1.91 3.21-3.08 3.21-3.08s-1.17-1.17-3.21-3.08zm10.83 0c-2.04-1.91-4.1-2.59-5.2-2.59h-4.8s1.67.67 3.53 1.49c1.86.82 4.97 4.18 4.97 4.18s-3.11 3.36-4.97 4.18c-1.86.82-3.53 1.49-3.53 1.49h4.8c1.09 0 3.16-.67 5.2-2.59 2.04-1.91 3.21-3.08 3.21-3.08s-1.17-1.17-3.21-3.08zm10.55 0c-2.04-1.91-4.1-2.59-5.2-2.59h-4.8s1.67.67 3.53 1.49c1.86.82 4.97 4.18 4.97 4.18s-3.11 3.36-4.97 4.18c-1.86.82-3.53 1.49-3.53 1.49h4.8c1.09 0 3.16-.67 5.2-2.59 2.04-1.91 3.21-3.08 3.21-3.08s-1.17-1.17-3.21-3.08zm10.63 0c-2.04-1.91-4.1-2.59-5.2-2.59h-4.8s1.67.67 3.53 1.49c1.86.82 4.97 4.18 4.97 4.18s-3.11 3.36-4.97 4.18c-1.86.82-3.53 1.49-3.53 1.49h4.8c1.09 0 3.16-.67 5.2-2.59 2.04-1.91 3.21-3.08 3.21-3.08s-1.17-1.17-3.21-3.08zm10.88 0c-2.04-1.91-4.1-2.59-5.2-2.59h-4.8s1.67.67 3.53 1.49c1.86.82 4.97 4.18 4.97 4.18s-3.11 3.36-4.97 4.18c-1.86.82-3.53 1.49-3.53 1.49h4.8c1.09 0 3.16-.67 5.2-2.59 2.04-1.91 3.21-3.08 3.21-3.08s-1.17-1.17-3.21-3.08zm10.83 0c-2.04-1.91-4.1-2.59-5.2-2.59h-4.8s1.67.67 3.53 1.49c1.86.82 4.97 4.18 4.97 4.18s-3.11 3.36-4.97 4.18c-1.86.82-3.53 1.49-3.53 1.49h4.8c1.09 0 3.16-.67 5.2-2.59 2.04-1.91 3.21-3.08 3.21-3.08s-1.17-1.17-3.21-3.08zm10.56 0c-2.04-1.91-4.1-2.59-5.2-2.59h-4.8s1.67.67 3.53 1.49c1.86.82 4.97 4.18 4.97 4.18s-3.11 3.36-4.97 4.18c-1.86.82-3.53 1.49-3.53 1.49h4.8c1.09 0 3.16-.67 5.2-2.59 2.04-1.91 3.21-3.08 3.21-3.08s-1.17-1.17-3.21-3.08zm10.62 0c-2.04-1.91-4.1-2.59-5.2-2.59h-4.8s1.67.67 3.53 1.49c1.86.82 4.97 4.18 4.97 4.18s-3.11 3.36-4.97 4.18c-1.86.82-3.53 1.49-3.53 1.49h4.8c1.09 0 3.16-.67 5.2-2.59 2.04-1.91 3.21-3.08 3.21-3.08s-1.17-1.17-3.21-3.08zm9.4 0c-2.04-1.91-4.1-2.59-5.2-2.59h-4.8s1.67.67 3.53 1.49c1.86.82 4.97 4.18 4.97 4.18s-3.11 3.36-4.97 4.18c-1.86.82-3.53 1.49-3.53 1.49h4.8c1.09 0 3.16-.67 5.2-2.59 2.04-1.91 3.21-3.08 3.21-3.08s-1.17-1.17-3.21-3.08zm10.62 0c-2.04-1.91-4.1-2.59-5.2-2.59h-4.8s1.67.67 3.53 1.49c1.86.82 4.97 4.18 4.97 4.18s-3.11 3.36-4.97 4.18c-1.86.82-3.53 1.49-3.53 1.49h4.8c1.09 0 3.16-.67 5.2-2.59 2.04-1.91 3.21-3.08 3.21-3.08s-1.17-1.17-3.21-3.08zm11.58 0c-2.04-1.91-4.1-2.59-5.2-2.59h-4.8s1.67.67 3.53 1.49c1.86.82 4.97 4.18 4.97 4.18s-3.11 3.36-4.97 4.18c-1.86.82-3.53 1.49-3.53 1.49h4.8c1.09 0 3.16-.67 5.2-2.59 2.04-1.91 3.21-3.08 3.21-3.08s-1.17-1.17-3.21-3.08zM240 5.3l-11.05 9.57-18.93 69.19c-1.42 5.29-6.85 9.57-12.14 9.57h-33.84s1.67-.67 3.53-1.49c1.86-.82 4.97-4.18 4.97-4.18s-3.11-3.36-4.97-4.18c-1.86-.82-3.53-1.49-3.53-1.49h30.39c2.34 0 4.74-1.89 5.36-4.23l7.17-25.72-16.86.11c-5.29 0-8.42-4.29-7.01-9.57l7.51-28.02c1.42-5.29 6.85-9.57 12.14-9.57h37.27zm-23.7 12.01h-14.28l-6.6 24.08h14.28l6.6-24.08z" fill="#fff"/></svg>