<svg xmlns="http://www.w3.org/2000/svg" width="250" height="96" viewBox="0 0 250 96"><path d="M31.74,37.24c0,4.89.09,10.43,3.68,10.62,3.15.17,4.73,0,5.1-.69a1,1,0,0,0-.19-1.08,4.35,4.35,0,0,0-3-1.45A130,130,0,0,1,38,26.33c1.15-8.27,2.74-18.4,3.45-19.75A6.32,6.32,0,0,1,43.71,4.9c1.26-.71,2.45-1.39,2.21-2.22s-1.43-1.2-2.52-1.43c-1.53-.31-3.63-.29-4.52.81-1.47,1.81-4.31,13.21-5,16.65l-.06.31c-.69,3.51-.81,4.14-2.88,4.3-2.54.18-18.76.62-19.74,0-.59-.37-.85-6-.77-16.76V5.19c0-1.41-.14-3.41-1.39-4.46A4.14,4.14,0,0,0,5.59.11C1.2.87.64,1.58.59,2,.51,2.83,2.11,3.44,3.52,4c.47.19.92.36,1.2.5.69.66.12,15.94-.23,25.07-.11,3-.21,5.65-.25,7.28-.16,6.73-.48,6.94-1.83,7.84l-.09.06c-.24.16-.51.32-.77.47-.83.49-1.6.95-1.55,1.5s.58.79,1.69,1.16A10.9,10.9,0,0,0,5,48.39a6.87,6.87,0,0,0,3.62-.91,4.29,4.29,0,0,0,2-3.2,109.11,109.11,0,0,0,.53-11.34c0-1.06,0-1.89,0-2.38.08-2,2.09-3.1,5.81-3.1h2a92.1,92.1,0,0,1,9.58.25c2.34.31,2.57.7,3,5.25C31.71,34.24,31.73,35.69,31.74,37.24Z" fill="#fff"/><path d="M74.61,22.49a11.12,11.12,0,0,0-2.94-8,8.62,8.62,0,0,0-6.34-2.58c-5.79,0-10.44,3.73-13.09,10.52-2.72,7-1.92,18.05,0,21.07a11.43,11.43,0,0,0,7.88,4.64,9.59,9.59,0,0,0,1.07.06,11.14,11.14,0,0,0,7.94-3.69c5.11-5.12,5.28-13.14,5.43-20.21C74.58,23.69,74.6,23.09,74.61,22.49ZM57.29,40.87c-2.3-2.4-1.77-8.09-.92-12.44,1.4-7.13,5.12-10.23,8.32-10.23h.38a4.15,4.15,0,0,1,3,1.7c1.57,2,2.22,5.56,1.66,9.09-1.26,7.87-4.17,12.22-8.64,12.9A4.13,4.13,0,0,1,57.29,40.87Z" fill="#fff"/><path d="M87.32,15.42c.13.37.64,2.18.71,8,0,5.15,1,13.54,1.54,18.05.17,1.51.3,2.61.33,3,.06.85-.83,1.44-1.63,2s-1.5,1-1.11,1.65,1.39.86,2.49.86c.7,0,1.46-.08,2.14-.15l.46,0c2.56-.24,5.28-.61,6.08-1.62a.78.78,0,0,0,.19-.85c-.36-.75-2.23-.81-2.8-.81-1.2,0-1.25-.65-1.38-2.39,0-.33-.06-.69-.1-1.1l-.06-.61c-1.2-11.32-1-18.46.72-21.21a7.44,7.44,0,0,1,8.44-3.72c1,.2,1.09,1.12,1.15,2.09.05.75.1,1.45.63,1.76a2.88,2.88,0,0,0,2.62-.21,2.83,2.83,0,0,0,1.49-2.49,4.63,4.63,0,0,0-1.39-3.29c-1.06-1.09-3.18-2.4-7.28-2.45a14.48,14.48,0,0,0-7.3,1.65c-.84.42-1.26.6-1.58.37s-.33-.3-.34-.41.09-.24.22-.4a2,2,0,0,0,.52-1.07c0-.15,0-.36-.39-.51-1.36-.61-6.47.06-8.21,2-.41.46-.54.86-.38,1.18C83.58,15.68,86.64,15.47,87.32,15.42Z" fill="#fff"/><path d="M116,44.91c1.94.27,3.33-1.45,3.68-1.94.82.71,5.88,4.88,12.5,4.88a15.93,15.93,0,0,0,2.45-.19,9.89,9.89,0,0,0,7.13-5.86,9.69,9.69,0,0,0-.35-9.14c-2.22-3.56-6.1-3.67-9.84-3.78-2.39-.07-4.64-.13-6.42-1a3.84,3.84,0,0,1-2.32-3.15c-.18-2.34,1.71-5.05,3.59-6.41,2.73-2,8.17-.76,10,.09a10.87,10.87,0,0,1,1.68,1.14c1.05.82,2,1.6,2.8,1.34.38-.13.65-.5.82-1.13A5.76,5.76,0,0,0,140.55,15a3.11,3.11,0,0,0-2.12-1.42.9.9,0,0,0-.8.37,2.39,2.39,0,0,0-.1,1.78c-.82-.48-3.38-1.55-9.23-1-5,.45-7.78,2.72-9.23,4.53a10.29,10.29,0,0,0-2.26,7.57c.62,4.8,6.77,6.06,9.94,6.06.66,0,1.33,0,2-.06,2.79-.12,5.42-.24,7.07,1.87a5.65,5.65,0,0,1,.83,5.33c-.48,1.24-1.69,2.81-4.69,3.31-5.47.91-11.9-3-12.44-3.38C118.76,38,118,37,117.27,37h0c-.92,0-1.51,1.43-1.78,2.27l0,.16c-.47,1.46-1.18,3.68-.48,4.78A1.44,1.44,0,0,0,116,44.91Z" fill="#fff"/><path d="M156.67,5a2.3,2.3,0,0,0,1.21.31,4.13,4.13,0,0,0,1.8-.45A3.16,3.16,0,0,0,161,1.66c-.13-.55-.61-1.48-2.34-1.48h0s-3,.25-3,2.32A2.69,2.69,0,0,0,156.67,5Z" fill="#fff"/><path d="M163.43,45.17a1.64,1.64,0,0,1-1.18-.52,1.21,1.21,0,0,1-.26-.84c0-.22.07-22.51,0-27.14,0-2.32-.41-3.67-1.16-4.24a2.86,2.86,0,0,0-2.52-.13c-1.72.44-5.45,3.1-5.89,4.73a.88.88,0,0,0,.19.92c1.14,1.14,3.28.37,3.91.11.3,7.1.89,25.07.24,26.13a3.7,3.7,0,0,1-1.55,1.13c-.64.32-1.19.6-1.31,1.07a1,1,0,0,0,.26.85c.73,1,2.94,1.45,5.11,1.45a10.22,10.22,0,0,0,3.45-.52c1.6-.6,2.08-1.49,2-2.07S164.16,45.23,163.43,45.17Z" fill="#fff"/><path d="M226.78,12c.08.23.35.39.85.53a2.67,2.67,0,0,0,.78.11,2.53,2.53,0,0,0,1.55-.53c1.09-.83,1.71-2.51,1.71-4.61,0-3.59-4-3.63-4-3.63a.12.12,0,0,0-.1.05,1,1,0,0,0-.07,1.45,4.29,4.29,0,0,1,.78,2.58,4.68,4.68,0,0,1-1.07,2.95C226.9,11.31,226.67,11.64,226.78,12Z" fill="#fff"/><path d="M215.54,47.72a3,3,0,0,0-.82-2.28,2.92,2.92,0,0,1-.77-2.33c0-1.54.26-7.85.51-14,.22-5.27.43-10.25.43-11.31,0-1.26.67-1.35,1.53-1.47a2.4,2.4,0,0,0,1.52-.59,1.14,1.14,0,0,0,.38-1.12c-.17-.51-.89-.88-2.14-1.1-1.57-.28-7.55-.36-8.67.77a.61.61,0,0,0-.19.54c.26,1.34,1.68,1.37,2.15,1.34V36.52c0,1.66,0,3.37-.31,3.48,0,0-.18,0-.57-.52-1-1.34-13.35-15.65-19.3-22.53L186.4,13.6c-1.41-1.66-4.22-1.28-6.21-.85-1.84.41-4.44,3.51-4.72,4.92-.09.45.06.65.2.75.86.59,2.77-.38,3.39-.73,0,2.37.37,22.53.28,24.1s-.9,1.93-2.52,2.69l-.21.1a1.44,1.44,0,0,0-1,1.35,2.51,2.51,0,0,0,1.66,1.92c1.14.43,7.21,1.47,8.13-.66.55-1.29-.4-2-1.23-2.54-.53-.38-1-.73-1.14-1.2-.32-1.34-.32-15.24,0-17.92,0-.22.06-.48.08-.75.22-2,.54-5.08,2-5.58.84-.29,2,.33,3.44,1.82,5.22,5.42,16.88,22.25,16.93,23.21a3.23,3.23,0,0,1-.71,1.34c-.52.75-1.1,1.6-.94,2.31a1.23,1.23,0,0,0,.66.79,13,13,0,0,0,5,.71c2.22,0,4.51-.28,5.5-.87A1,1,0,0,0,215.54,47.72Z" fill="#fff"/><path d="M63.18,91.88c-.72-.17-1.46-.35-1.63-1.08-.13-.56-.68-3.41-1.37-7-1.28-6.65-3-15.77-3.79-19-.87-3.66-3.08-7.29-5.64-7.29h-.14C41.65,58,38.84,68,37,74.72A97.88,97.88,0,0,0,34.6,88.26c-.2,1.55-.34,2.67-.45,3.06s-.88.68-1.58.83-1.14.24-1.36.6a.7.7,0,0,0-.05.59c.35,1.27,2.21,1.25,3.86,1.22.42,0,.8,0,1.31,0,2.17,0,5.79.06,6.08-1.38s-2.43-2.44-2.94-2.6c-1-4.83,2.57-10.78,2.9-11.31,5.42-2,8.83-1.54,12.15,1.71,3.14,3.07,2.61,9.92,2.52,10.85-.52.06-2.69.37-3.32,1.4a1.23,1.23,0,0,0-.07,1.17c.43,1.09,1.42,1.36,2.67,1.36.57,0,1.19-.05,1.83-.11s1.43-.12,2.15-.12c4,0,4.32-1.94,4.32-2.53C64.62,92.24,63.89,92.06,63.18,91.88ZM54,68.53c-.6,4-2.62,6.09-6,6.09a4.83,4.83,0,0,1-3.87-1.89,7.73,7.73,0,0,1-1-6.69,5.5,5.5,0,0,1,3.49-4.19,6.44,6.44,0,0,1,2.14-.37c.27,0,.44,0,.45,0a4.55,4.55,0,0,1,3.49,1.6A6.77,6.77,0,0,1,54,68.53Z" fill="#fff"/><path d="M87,64.82A62.08,62.08,0,0,0,80.46,66a2.11,2.11,0,0,0,.05-1.6.76.76,0,0,0-.7-.33l-.61,0c-1.64,0-5-.17-7.14,1.6-.49.41-.67.76-.55,1.06.37.9,3.56.77,4.34.72.09,1.74,1.05,19.69,1.05,21.09s-.22,1.42-1.14,1.93l-.22.12-.44.23c-.7.36-1.42.74-1.46,1.28,0,.32.18.65.65,1a10,10,0,0,0,5,1.1A6.13,6.13,0,0,0,83.37,93c.83-.81,1.16-1.44,1-1.94s-.62-.7-1.44-.82l-.08,0c-1.2-.17-1.74-.26-1.85-1.9l0-.19c-.64-9.1.53-13.6,1.61-15.77,1.23-2.46,3-3.88,4.83-3.9a3.13,3.13,0,0,1,2.86,1.67,2.71,2.71,0,0,0,2.86,1.69c1.1-.25,1.82-1.38,1.9-3a2.77,2.77,0,0,0-.87-2.22C92.55,65,89,64.66,87,64.82Z" fill="#fff"/><path d="M112.17,64.51c-3,0-5.76,1.47-8.21,4.26-4.36,5-6.22,12.49-5.84,15.81.33,2.88,1.91,7,5.25,8.93a8,8,0,0,0,4.13,1.12,11.34,11.34,0,0,0,4.23-.9,14.64,14.64,0,0,0,8.24-9,24.33,24.33,0,0,0,.94-12C119.65,65.4,115.77,64.46,112.17,64.51ZM102.9,84.19c-.26-3.16.37-9.31,3.16-12.35a5.72,5.72,0,0,1,4.32-1.93h0a3,3,0,0,1,2.37,1c1.09,1.21,1.54,3.37,1.25,5.92l0,.47c-.42,3.8-.9,8.1-4.52,10.2-1.72,1-3.27,1.2-4.46.58S103.06,86.11,102.9,84.19Z" fill="#fff"/><path d="M156.45,64.13c-1.44.09-3.23.45-3.91,1.23-1.15,1.34-1.48,5.29-1.89,10.28l-.07.74c-.43,5.18-1,12.27-7.72,12.64a4.27,4.27,0,0,1-3.45-1.28c-3-3.16-2.24-11.4-2-14.11,0-.42.08-.84.12-1.24.4-3.89.69-6.7-1.81-7.87-2.11-1-6.32.46-7.85,1.88-.58.54-.79,1.06-.62,1.51a1.79,1.79,0,0,0,1,1.1c1.12.44,2.71-.36,3.86-.94a7.43,7.43,0,0,1,1-.45c.19-.06.27,0,.32,0,.58.51,0,3.82-.43,6-.72,3.93-.75,14.3,1.9,16.64l.7.63c1.93,1.75,4,3.67,7.08,3.67a8.85,8.85,0,0,0,3.12-.62,9.14,9.14,0,0,0,5.24-4.85c.4-.77.67-1.27,1.09-1.27.93,0,.94,1.56.95,3.21,0,.48,0,1,0,1.43.12,1.94,2.53,1.84,4.66,1.76l.8,0c1.51,0,2.26-.73,2.32-1.35a.84.84,0,0,0-.75-.89c-1.36-.29-3.67-1.3-3.67-3.27,0-1-.08-4.31-.17-7.8-.1-4.16-.2-8.47-.2-10,0-2.78,1-3,2.78-3,1.07,0,2.36-.44,2.66-1.25.12-.33.12-.86-.6-1.52C160,64.25,158,64,156.45,64.13Z" fill="#fff"/><path d="M207.11,64.39l-.37,0c-2.84-.31-6.21-.52-7.11.62a1.24,1.24,0,0,0-.32,1.15,1.73,1.73,0,0,0,1,1c-.07,1.12-.7,11.51-1.05,13.94-.21,1.48-.49,2.23-.9,2.36s-.78-.16-1.41-.82c-.26-.27-.79-.9-1.53-1.77C191.94,76.67,183.74,67,179,65.57c-3.16-1-7.31-.92-8.75.86a1.28,1.28,0,0,0-.19,1.5,1.93,1.93,0,0,0,1.16,1,3.19,3.19,0,0,0,2.05-.26c0,1.92.24,16.5.24,19,0,2.09-.32,2.26-1.67,3l-1.11.62c-1.1.66-1.62,1.56-1.39,2.42A1.64,1.64,0,0,0,171,94.81l3.83,0c1,0,2,0,2.55,0a2.25,2.25,0,0,0,2.07-1.36c.06-.31,0-.89-1-1.39-1.74-.87-1.73-1.48-1.72-3.5V88c0-1.27.31-4.26.63-7.43.3-2.92.61-5.94.67-7.6.06-1.5.48-2.46,1.2-2.72s1.75.23,2.78,1.38c2,2.24,15.07,18.12,16.08,19.35a3.4,3.4,0,0,0-.51,2.7c.17.5,1,.91,2.11,1.08,1.62.24,3.64,0,4.37-1,1-1.36.08-2.27-.53-2.87-.15-.16-.3-.31-.4-.44-.28-.39.11-2.21.49-4,.24-1.13.49-2.29.65-3.37.43-2.94.93-10.75,1-12.33.09-2.25.81-3.54,2.19-4,1.1-.33,1.17-.93,1.14-1.17A1.57,1.57,0,0,0,207.11,64.39Z" fill="#fff"/><path d="M249.65,54.52c-1.25-1.16-5.7-.87-8.43-.21-1.08.26-1.67.67-1.78,1.24-.17.9,1,1.83,1.31,2.05,0,.68-.19,6.16-.19,8.47,0,4.12-.33,10.53-1.27,11.32a.22.22,0,0,1-.18.06c-.39-.07-.71-.5-1.15-1.08-1-1.34-2.68-3.57-7.52-4.31C223.3,71,215.88,76.61,214,82.36c-1.16,3.57-1.24,5.93-.29,7.67s2.73,2.79,5.76,3.58c6.28,1.64,11.55.42,15.66-3.62,2.53-2.5,2.72-3.6,2.81-4.13,0-.25,0-.26.27-.29a.32.32,0,0,1,.22.08c.79.64,1.77,4.26,2,7.59a2.37,2.37,0,0,0,1.1,2,3.61,3.61,0,0,0,1.85.42,13,13,0,0,0,4.48-1.08c.76-.33,1.15-.79,1.07-1.25s-.75-.89-1.79-1l-.84-.07c-1.44-.09-2.1-.13-2.2-1.54a21,21,0,0,1,.06-2.79c.08-1.33.19-3.16.19-6,0-5.19,1-22.94,1.42-24.35.14-.53.91-.62,1.73-.71,1-.12,2.23-.26,2.42-1.4A1,1,0,0,0,249.65,54.52Zm-29.47,27.1c1.81-2.09,5.3-4.22,8.06-4.22h.08c3.28,0,7.06,1.46,7.23,3.41.21,2.23-.47,6.24-7.26,8-3.3.86-5.79.77-7.39-.27a5.07,5.07,0,0,1-2.1-3.65A4.39,4.39,0,0,1,220.18,81.62Z" fill="#fff"/></svg>