<svg xmlns="http://www.w3.org/2000/svg" width="200" height="133" viewBox="0 0 200 133"><path d="M46.38.79l-1-.79V3.88l1-1.53,8.11-.22.3,25.63-2.23,1,7.54-.15-1.71-1L58.42,2S69,1.85,69.89,3.16A8.27,8.27,0,0,1,71,4.94V.35s-.84.84-1.39.84Z" fill="#fff" stroke="#fff" stroke-linecap="round" stroke-linejoin="round" stroke-width="0.58"/><polygon points="62.56 7.77 63.61 8.79 63.35 19.3 62.56 20.06 68 20.28 66.68 18.96 66.98 13.52 75.29 13.74 75.29 22.66 74.2 23.57 80.32 23.57 79.15 22.55 79.34 7.47 80.32 6.6 74.42 6.3 75.72 7.7 75.67 12.54 66.94 12.38 67.05 9.02 68.75 7.89 62.56 7.77" fill="#fff" stroke="#fff" stroke-linecap="round" stroke-linejoin="round" stroke-width="0.58"/><polygon points="83.11 4.82 84 5.64 83.85 18.34 82.65 19.69 95.37 19.87 97.16 20.78 97.16 17.11 95.17 18.93 86.78 18.78 86.99 11.69 92.91 12.01 94.29 13.21 94.35 9.43 92.82 10.86 87.07 10.63 87.19 5.5 93.26 5.44 94.73 6.3 94.64 3.94 93.2 4.76 83.11 4.82" fill="#fff" stroke="#fff" stroke-linecap="round" stroke-linejoin="round" stroke-width="0.58"/><path d="M39.08,21.79S39,43,37.77,42.86,36.78,29.52,25.4,26,9,28.41,7.38,31.13,3.13,41.59,15.62,46.18s18.62,8.16,22,11.47,8,10.79,4.42,19S24,93.6,3.55,82.89c0,0-2.21,7.31-3.4,7.14S5,63.94,5.85,63.94s-.09,6.29-.09,6.29,4.33,11.32,18.53,12.32c10.88.77,14.53-6,14.53-7.48,0-4.5-3.57-9.77-11-13.68S3.47,51.11,2,43.71,2,31.56,9.16,25.86,30,23,36.53,28.07Z" fill="#fff" stroke="#fff" stroke-linecap="round" stroke-linejoin="round" stroke-width="0.58"/><path d="M70.44,34.11c1.15-.32,0,11-.85,11S68,36.32,57.69,36.74s-11.56,10-11.56,13.09,3.2,12.32,12,11.56,11.33-4.59,12.35-4.84.67.85,0,1.36a19.23,19.23,0,0,1-16.07,5.35C44.77,61.9,40,55.38,40.35,48.78S50.55,30,68.74,37.25Z" fill="#fff" stroke="#fff" stroke-linecap="round" stroke-linejoin="round" stroke-width="0.58"/><path d="M103.78,73.4c-.11-1-3.59-1.16-3.59-1.16-3.81-5.55-14-46.51-14-46.51L67.8,72a8.44,8.44,0,0,0-4.4,1.74l13.89.83c.69-1.59-4.4-2.8-4.4-2.8a96.28,96.28,0,0,1,3.34-12.61H89.1L93,72.24,88.86,74.1s5.55.34,10,.46S103.9,74.44,103.78,73.4ZM76.92,57.09c3-8.91,6.38-17.24,6.38-17.24l5.17,17.24Z" fill="#fff" stroke="#fff" stroke-linecap="round" stroke-linejoin="round" stroke-width="0.58"/><path d="M98.12,34.1h20.06c6.48,0,11,3.91,10.93,8.11s-4.69,8-11.17,8.77c0,0,18.37,22.12,21.25,23.6S145,78,145,78l-11.89.84,1.32-1.8L109.68,50.45s13.66-.08,13.66-6.68-7.76-9.61-14.25-8.05L108,62l5.21,2.65-13.81-.24,3.37-2.17-.24-26.06S97.88,36,98.12,34.1Z" fill="#fff" stroke="#fff" stroke-linecap="round" stroke-linejoin="round" stroke-width="0.58"/><path d="M121.54,28l4.26,1.32L139.17,47l-.54,14.36L133.69,63l15.13-.55-4.6-1.31.32-15.62,14.8-20.34,2.85-1.56-10-.74s.77,1.64,3.94,2L143.23,44.86l-9.54-15,2.52-1.65Z" fill="#fff" stroke="#fff" stroke-linecap="round" stroke-linejoin="round" stroke-width="0.58"/><path d="M104.79,80.92c-9.33,0-16.89,9.11-16.89,16,0,8.81,7.56,15.95,16.89,15.95s16.89-7.14,16.89-15.95S114.12,80.92,104.79,80.92Zm10.95,16.21c-.51,8.37-3.36,13.39-11,13.39-6.68,0-11-6-11-13.39,0-5.75,3.45-13.4,11-13.4C110.83,83.73,116.38,86.48,115.74,97.13Z" fill="#fff" stroke="#fff" stroke-linecap="round" stroke-linejoin="round" stroke-width="0.58"/><path d="M144.42,84.91c-11.7,0-21.19,8.85-21.19,20s9.49,20,21.19,20a21,21,0,0,0,20.75-20C165.71,94,154.82,84.91,144.42,84.91Zm-.79,37.15c-7.75,0-13.77-7.54-13.77-17,0-7.36,4.33-17.17,13.77-17.17,7.6,0,14.29,4.66,14.39,16.35C158.11,115.33,150.59,122.06,143.63,122.06Z" fill="#fff" stroke="#fff" stroke-linecap="round" stroke-linejoin="round" stroke-width="0.58"/><path d="M162.19,83.26h22.47c5.23,0,9.89,3.75,10.11,8.52s-3.29,9.09-10.68,10l10.12,14.88,5.79,2.5-11.93.68.91-2.27-13.07-16.7s14.43,1,13.86-7.05-7.15-10.59-14.31-8.61l-.68,27.61,5.34,3.73-14,.11,4.54-2.84-2.5-27.72S160.07,85.53,162.19,83.26Z" fill="#fff" stroke="#fff" stroke-linecap="round" stroke-linejoin="round" stroke-width="0.58"/><path d="M62.05,81.49c-16.18,0-17.34,1.37-17.34,1.37a7,7,0,0,0,4.86,1.8l1.91,42.84-9,3.38s10.36,0,15.33.43,22.11,2.75,27.29-17.56S78.24,81.49,62.05,81.49Zm13.86,38.39c-4.65,13.22-17.45,7.94-17.45,7.94V85.08C80.46,79.27,80.56,106.66,75.91,119.88Z" fill="#fff" stroke="#fff" stroke-linecap="round" stroke-linejoin="round" stroke-width="0.58"/></svg>