<?xml version="1.0" encoding="UTF-8"?><svg id="logos" xmlns="http://www.w3.org/2000/svg" width="270" height="64" viewBox="0 0 270 64"><path d="M100.91,6.92h-2.94l-1.03,5.64h2.78c.11,0,.21,0,.32,0,.86,0,1.47-.06,1.75-1.27,.32-1.35,.42-1.68,.6-2.57,.23-1.14-.19-1.8-1.47-1.8Z" fill="#fff"/><path d="M207.52,47.78h0l.74-1.27,1,1.27h23.99l.89-1.83,4.34-8.96h0l-5.08-15.7v-.05h.99l9.38,26.54h11.26l6.37-10.99h0l-6.03-15.75h2.54l6.3-12.26L258.17,0h-41.95l-3.35,10.06h0l4.29,13.33L202.98,0h-10.7l-.63,1.11L190.97,0h-11.21v0l-1.87,9.56-.96,11.32-.15,1.8v-.02L173.6,0h-10.6l-1.51,11.38L154.16,0h-7.62v0l-.4,9.46v.14l.06,8.34-.24,.03L128.36,0h-.96l-14.29,14.71s-.56-8.89-.61-10.65c-.05-1.77-.2-4.06-3.28-4.06H51.32l-7.93,9.7L40.24,0h-10.63L2.59,37.01l6,10.77h11.45l4.77-6.98h4.19l3.29,6.98h9.15l.62-.97,.49,.97h13.51l6.62-9.34,2.7,9.22h11.52l5.76-29.38h2.7l-3.84,18.63,2.52,10.86h11.1l1.89-13.14,6.14,13.14h11.53l-.48-9.03-.1-1.9-4.74-8.6,1.4-1.03h.03l-.02,2.81h0l16.95,17.59,17.43-17.46v-.06l.96-11.85,.54,29.26h9.05l1.41-10.65h0v-3.55l3.15,4.56,6.84,9.91h16.02l1.81-6.17h8.71l3.02,6.17h10.85ZM113.39,14.98L127.57,.39h.63l17.48,17.85,.07,.07-.02,.27-17.84,18.17-17.82-18.41,2.72-2.72h0l.61-.63Zm-51.49,8.5l-2.3-2.37,2.13-2.63h5.08l-3.08,12.03-1.82-7.03Zm-16.94,4.35l-1.6,2.01,.18-3.38,1.42,1.36ZM29.81,.39h10.02l.16,.49-2.41,36.11h-9.96l1.15-6.28h-8.87l5.47-8.23h4.72l1.73-11.4L15.01,36.98H3.09L29.81,.39ZM109.05,28.43l4.67,8.48h-11.55l-6.46-14.84-2.37,14.84h-11.43l3.61-17.56,2.49-11.27h-7.81l-5.8,28.76h-11.81l1.09-4.18,.05,.18,.37-1.46,3.32-13,.12-.48h-.03l2.53-9.75h-11.28l-5.5,7.09,5.57,5.96,.97,.95,1.58,1.62,.09,.34-9.16,12.73h-13.53l9.94-12.78-8.81-9.52,3.37-3.95,.04-.21,.28-.34L51.5,.39h57.72c2.58,0,2.84,1.67,2.89,3.68,0,.14,.01,.32,.02,.54v.06c-.31,1.77-1.53,8.9-1.99,11.08-.46,2.18-2.24,2.72-3.69,2.72-1.45,0-2.32,0-2.32,0l4.75,9.67,.16,.3Zm77.82-5.77l.09-6.64,2.7,5.12h-2.6l-.2,1.52ZM192.53,.39h10.24l14.07,23.21,1.71,2.82h0l2.43,3.07h4.72L216.43,.63l.08-.24h41.46l5.78,8.42v.02h-13.64l4.68,11.82,.2,.53,5.96,15.57-.13,.23h-11.6l-9.36-27.99h-10.9l9.09,27.95h0v.04l-24.44-.13L192.52,.42v-.03Zm-35.77,36.44v.03l-9.08,.15-.96-31.68,.21-4.94h7.04l7.21,11.2,.57,.89h0l3.46,4.68-2-15.65,.15-1.12h9.93l3.13,22.35,.48,3.41h0l.51,2.2,2.08-24.8,.62-3.16h10.67l.64,1.05,.19,.31,20.03,35.26h-11.61l-3.04-6.4h-9.68l-.02-6.37,.33-2.5h2.91l2.03,.02-6.07-11.02-1.01,26.28h-17.05l-11.93-17.21,.27,12.28v4.75Z" fill="#fff"/><path d="M12.86,50.55H0v13.29H12.86c2.93,0,5.3-2.37,5.3-5.3v-2.68c0-2.93-2.37-5.3-5.3-5.3Zm4.53,7.99c0,2.5-2.03,4.53-4.53,4.53H.77v-11.74H12.86c2.5,0,4.53,2.03,4.53,4.53v2.68Z" fill="#fff"/><path d="M9.88,55.43h-3.06v3.61h3.06c.81,0,1.48-.66,1.48-1.48v-.66c0-.81-.66-1.48-1.48-1.48Zm.7,2.14c0,.39-.32,.7-.7,.7h-2.29v-2.06h2.29c.39,0,.7,.32,.7,.7v.66Z" fill="#fff"/><path d="M132.75,55.43h-3.06v3.61h3.06c.81,0,1.48-.66,1.48-1.48v-.66c0-.81-.66-1.48-1.48-1.48Zm.7,2.14c0,.39-.32,.7-.7,.7h-2.29v-2.06h2.29c.39,0,.7,.32,.7,.7v.66Z" fill="#fff"/><path d="M135.74,50.55h-12.86v13.29h12.86c2.93,0,5.3-2.37,5.3-5.3v-2.68c0-2.93-2.37-5.3-5.3-5.3Zm4.53,7.99c0,2.5-2.03,4.53-4.53,4.53h-12.09v-11.74h12.09c2.5,0,4.53,2.03,4.53,4.53v2.68Z" fill="#fff"/><path d="M34.48,50.55h-14.25c-.39,0-.7,.32-.7,.7v11.88c0,.39,.32,.7,.7,.7h14.25c.39,0,.7-.32,.7-.7v-11.88c0-.39-.32-.7-.7-.7Zm-.07,12.51h-14.1v-11.74h14.1v11.74Z" fill="#fff"/><path d="M29.45,59.04v-3.76h-4.18v3.76h4.18Zm-3.41-2.99h2.63v2.21h-2.63v-2.21Z" fill="#fff"/><path d="M44.02,50.55h-7.66v13.29h14.39v-3.74h-6.73v-9.55Zm5.96,10.32v2.19h-12.85v-11.74h6.11v9.55h6.73Z" fill="#fff"/><path d="M61.73,52.44h-2.96v3.28h2.96c.91,0,1.64-.74,1.64-1.64s-.74-1.64-1.64-1.64Zm0,2.51h-2.18v-1.74h2.18c.48,0,.87,.39,.87,.87s-.39,.87-.87,.87Z" fill="#fff"/><path d="M67.41,50.55h-15.4v13.29h7.21v-5.8c0-.4,.32-.72,.72-.72h7.47c.6,0,1.09-.49,1.09-1.09v-4.59c0-.6-.49-1.09-1.09-1.09Zm.31,5.67c0,.17-.14,.31-.31,.31h-7.47c-.82,0-1.49,.67-1.49,1.49v5.03h-5.66v-11.74h14.63c.17,0,.31,.14,.31,.31v4.59Z" fill="#fff"/><path d="M80.17,56.26h-1.56v-5.72h-9.07v13.29h9.07v-5.3h1.56v5.3h8.3v-13.29h-8.3v5.72Zm.77-4.94h6.75v11.74h-6.75v-5.3h-3.1v5.3h-7.52v-11.74h7.52v5.72h3.1v-5.72Z" fill="#fff"/><path d="M89.83,63.83h4.7v-13.29h-4.7v13.29Zm.77-12.51h3.15v11.74h-3.15v-11.74Z" fill="#fff"/><path d="M229.42,63.83h4.7v-13.29h-4.7v13.29Zm.77-12.51h3.15v11.74h-3.15v-11.74Z" fill="#fff"/><path d="M107.82,54.58l-4.61-4.03h-7.54v13.29h7.54v-3.1l4.61,3.1h6.79v-13.29h-6.79v4.03Zm.77-3.26h5.25v11.74h-5.78l-4.41-2.97-1.21-.81v3.78h-5.99v-11.74h6.48l4.39,3.84,1.28,1.12v-4.96Z" fill="#fff"/><path d="M142.12,53.07v8.23c0,1.39,1.14,2.53,2.53,2.53h14.41v-3.95h-10.77v-1.27h10.77v-2.92h-10.77v-1.27h10.77v-3.88h-14.41c-1.39,0-2.53,1.14-2.53,2.53Zm16.16,.58h-10.77v2.81h10.77v1.37h-10.77v2.81h10.77v2.41h-13.63c-.97,0-1.75-.79-1.75-1.75v-8.23c0-.97,.79-1.75,1.75-1.75h13.63v2.33Z" fill="#fff"/><path d="M176.56,53.07v8.23c0,1.39,1.14,2.53,2.53,2.53h14.41v-3.95h-10.77v-1.27h10.77v-2.92h-10.77v-1.27h10.77v-3.88h-14.41c-1.39,0-2.53,1.14-2.53,2.53Zm16.16,.58h-10.77v2.81h10.77v1.37h-10.77v2.81h10.77v2.41h-13.63c-.97,0-1.75-.79-1.75-1.75v-8.23c0-.97,.79-1.75,1.75-1.75h13.63v2.33Z" fill="#fff"/><path d="M270,54.43v-3.88h-14.41c-1.39,0-2.53,1.14-2.53,2.53v8.23c0,1.39,1.14,2.53,2.53,2.53h14.41v-3.95h-10.77v-1.27h10.77v-2.92h-10.77v-1.27h10.77Zm-.77,2.04v1.37h-10.77v2.81h10.77v2.41h-13.63c-.97,0-1.75-.79-1.75-1.75v-8.23c0-.97,.79-1.75,1.75-1.75h13.63v2.33h-10.77v2.81h10.77Z" fill="#fff"/><path d="M210.69,50.55h-13.17c-1.39,0-2.53,1.14-2.53,2.53v8.23c0,1.39,1.14,2.53,2.53,2.53h12.73c.93,0,1.68-.75,1.68-1.68v-2.28h-10.77v-5.45h10.77v-2.64c0-.68-.55-1.24-1.24-1.24Zm.46,3.11h-10.77v7h10.77v1.5c0,.5-.41,.9-.9,.9h-12.73c-.97,0-1.75-.79-1.75-1.75v-8.23c0-.97,.79-1.75,1.75-1.75h13.17c.26,0,.46,.21,.46,.46v1.87Z" fill="#fff"/><path d="M160.25,54.32h4.81v9.52h5.69v-9.52h4.81v-3.77h-15.31v3.77Zm.77-3h13.76v2.22h-4.81v9.52h-4.14v-9.52h-4.81v-2.22Z" fill="#fff"/><path d="M213.01,54.32h4.81v9.52h5.69v-9.52h4.81v-3.77h-15.31v3.77Zm.77-3h13.76v2.22h-4.81v9.52h-4.14v-9.52h-4.81v-2.22Z" fill="#fff"/><path d="M244.69,50.55l-2.97,2.89v-2.89h-6.13v13.29h5.26l12.52-13.29h-8.67Zm-4.18,12.51h-4.15v-11.74h4.58v3.95l1.31-1.28,2.75-2.67h6.57l-11.06,11.74Z" fill="#fff"/><path d="M124.39,19.54l-1.81,5.97c-.02,.06,0,.12,.05,.16,.05,.04,.12,.04,.17,0l5.02-3.54,5.23,3.54s.05,.02,.08,.02c.03,0,.06,0,.09-.03,.05-.04,.07-.1,.05-.16l-1.88-5.94,4.86-3.79s.07-.1,.05-.16c-.02-.06-.08-.1-.14-.1h-5.87l-2.26-5.87c-.02-.06-.08-.09-.14-.09-.07-.01-.11,.04-.14,.09l-2.19,5.87h-6.11c-.06,0-.12,.04-.14,.1-.02,.06,0,.12,.05,.16l5,3.75Z" fill="#fff"/></svg>