<svg xmlns="http://www.w3.org/2000/svg" width="200" height="115" viewBox="0 0 200 115"><path d="M24.64 23.07l-.42 4.3a7.33 7.33 0 0 1-2.91.57c-2.53 0-4-1.36-4-4.3V12h-1.4V7.7h1.4V1.77L22 0v7.7h2.42V12H22v10.16c0 .91.34 1.36.94 1.36a3.3 3.3 0 0 0 1.7-.45zM37.7 27.53h-4.8V12.76c0-.79-.22-1.21-.75-1.21A1.82 1.82 0 0 0 31 12v15.53h-4.85V1.81L31 0v8.68a4.09 4.09 0 0 1 3.13-1.39c2.23 0 3.59 1 3.59 4.3zM50.91 19H44c0 4.15.42 4.95 1.21 4.95s.87-.57 1.32-3l4.27 1.1c-.91 3.43-2.15 5.85-5.78 5.85-3.89 0-5.7-3.59-5.7-10.19 0-6.76 1.55-10.46 5.93-10.46 3.89 0 5.66 3.43 5.66 10.27zm-4.6-3.44c-.08-3.51-.38-4.53-1.14-4.53s-1.05.76-1.17 4.53zM18.93 64.88L18 74.22a16 16 0 0 1-6.31 1.23c-5.49 0-8.69-3-8.69-9.34V40.86H0v-9.34h3V18.65l10.28-3.85v16.72h5.24v9.34h-5.24v22c0 2 .74 3 2.05 3a7.06 7.06 0 0 0 3.6-.98zM41.55 31.19l-1 11a6.12 6.12 0 0 0-4.18-1.47 4.71 4.71 0 0 0-3.69 1.47v32.36H22.21v-43H32.7v2.13a6.71 6.71 0 0 1 5.33-3 8.29 8.29 0 0 1 3.52.51zM69.25 74.55H58.84v-2.13a9.07 9.07 0 0 1-6.88 3c-4.84 0-7.79-2.29-7.79-9.34V31.52h10.41v32.05c0 1.72.49 2.62 1.64 2.62a4.42 4.42 0 0 0 2.62-.9V31.52h10.41zM113.1 74.55h-10.49v-32c0-1.72-.41-2.62-1.56-2.62a4.79 4.79 0 0 0-2.54.9v33.72H88.1v-32c0-1.72-.41-2.62-1.56-2.62a4.57 4.57 0 0 0-2.54.9v33.72H73.51v-43H84v2.13a8.76 8.76 0 0 1 6.8-3c3.53 0 5.25.82 7 3.28a10.12 10.12 0 0 1 7.54-3.28c4.84 0 7.79 2.29 7.79 9.26zM141.53 74.55h-10.9v-2a7.4 7.4 0 0 1-6.06 3c-5.82 0-8.36-4.43-8.36-14.18s3-14.42 9.83-14.42a8.6 8.6 0 0 1 4.59 1.05v-4.68c0-2.37-.57-3.36-2.62-3.36-2.21 0-4.51 1.15-7.54 3.36l-3.28-7.87c3.28-2.62 8.11-4.83 12.62-4.83 7.71 0 11.72 3 11.72 11.47zm-10.9-8V55.37a3.14 3.14 0 0 0-2.13-.57c-1.47 0-2.13 1.31-2.13 6.31 0 4.59.49 6.06 2.21 6.06a2.58 2.58 0 0 0 2.05-.65zM170.71 74.55H160.3v-32c0-1.72-.49-2.62-1.64-2.62a4 4 0 0 0-2.54.9v33.72h-10.49v-43h10.49v2.13a8.87 8.87 0 0 1 6.8-3c4.84 0 7.79 2.29 7.79 9.34zM133.31 103.88c0 5.38-3.5 8.16-8.44 8.16s-6.76-2.94-7.87-7.49l5.93-2.11c.72 3 1.33 4 2.22 4 1.06 0 1.56-.61 1.56-1.89 0-2.33-.67-3.38-3.56-5.27-4.66-3-5.88-5.83-5.88-9.6 0-4.83 2.78-8 7.88-8 4.55 0 6.44 2.39 7.77 6.77l-5.83 2.11c-.66-2.27-1.16-3.33-2-3.33s-1.39.56-1.39 1.56c0 2.11.89 2.94 3.89 4.94 4.72 3.16 5.72 6.1 5.72 10.15z" fill="#fff"/><path d="M152.62 111.43h-7.05v-21.7c0-1.17-.33-1.78-1.11-1.78a2.77 2.77 0 0 0-1.72.61v22.87h-7.1V73.64l7.1-2.66v12.76a6 6 0 0 1 4.61-2.06c3.27 0 5.27 1.56 5.27 6.33zM172.54 96.78c0 9.93-2.34 15.26-8.88 15.26-6.11 0-8.66-5.16-8.66-15 0-9.6 2-15.32 8.88-15.32 6.27-.04 8.66 5.28 8.66 15.06zm-7.11.16c0-7.43-.33-9-1.66-9s-1.61 1.83-1.61 8.88c0 7.21.17 9 1.66 9s1.61-1.82 1.61-8.88zM200 82.29l-3.83 29.14H189l-.55-4.05c-.78-5.55-1.28-10.6-1.61-15.26-.39 4.66-.89 9.76-1.67 15.26l-.55 4.05h-7.1l-3.82-29.14h6.49l.33 3.89c.34 3.61.89 11.43 1 15.15.22-3.72 1.11-11.54 1.56-15l.5-4.06h6.6l.5 4.06c.44 3.44 1.33 11.26 1.55 15 .17-3.72.72-11.66 1-15.15l.33-3.89z" fill="#fff"/></svg>