<svg xmlns="http://www.w3.org/2000/svg" viewBox="0 0 300 37"><path d="M4.44 14.69v13.36H1.68V14.69H0v-2.53h1.68V6.42h2.76v5.74H7.2v2.53H4.44zM9.8.14h2.76V14c.5-.65 1.91-2.22 4.56-2.22 1.88 0 3.6.77 4.56 2.18.8 1.19.92 2.49.92 4.25v9.84h-2.76v-9.76c0-.96-.08-2.07-.73-2.91-.54-.69-1.38-1.15-2.6-1.15-.96 0-1.99.27-2.8 1.23-1.07 1.26-1.15 3.14-1.15 4.29v8.31H9.8V.14zM41.51 23.99c-.46.88-1.15 1.84-1.95 2.57-1.46 1.3-3.25 1.95-5.28 1.95-3.83 0-7.85-2.41-7.85-8.31 0-4.75 2.91-8.42 7.7-8.42 3.1 0 5.05 1.53 6.01 2.91.99 1.42 1.57 3.87 1.49 5.97H29.26c.04 3.29 2.3 5.4 5.05 5.4 1.3 0 2.34-.38 3.25-1.15a6.4 6.4 0 0 0 1.65-2.18l2.3 1.26zm-2.72-5.62c-.46-2.49-2.34-4.14-4.67-4.14s-4.25 1.76-4.67 4.14h9.34zM57.51.14v27.91h-2.76V.14h2.76zM61.72 20.17c0-4.82 3.56-8.38 8.42-8.38s8.42 3.56 8.42 8.38-3.6 8.35-8.42 8.35-8.42-3.52-8.42-8.35zm2.84 0c0 3.91 2.76 5.9 5.59 5.9s5.59-2.03 5.59-5.9-2.68-5.93-5.59-5.93-5.59 2.07-5.59 5.93zM82.78 12.16h2.76V14c.5-.65 1.91-2.22 4.56-2.22 1.88 0 3.6.77 4.56 2.18.8 1.19.92 2.49.92 4.25v9.84h-2.76v-9.76c0-.96-.08-2.07-.73-2.91-.54-.69-1.38-1.15-2.6-1.15-.96 0-1.99.27-2.8 1.23-1.07 1.26-1.15 3.14-1.15 4.29v8.31h-2.76V12.17zM112.95 12.16h2.76v15.51c0 1.72 0 4.17-1.53 6.24-1.19 1.61-3.37 2.95-6.36 2.95-2.72 0-4.59-1.07-5.67-2.14-1.07-1.07-2.07-2.8-2.07-5.13h2.72c0 1.34.54 2.53 1.23 3.29 1.15 1.26 2.6 1.53 3.83 1.53 1.95 0 3.29-.69 4.21-2.22.8-1.3.88-2.72.88-4.06v-2.3c-.92 1.19-2.64 2.68-5.44 2.68-2.34 0-4.21-.92-5.44-2.14-1.07-1.07-2.3-3.06-2.3-6.28s1.15-5.02 2.3-6.16c1.34-1.3 3.29-2.14 5.44-2.14 2.34 0 4.17 1 5.44 2.64v-2.26zm-8.73 3.56c-1.34 1.38-1.61 3.06-1.61 4.36 0 1.38.27 3.25 1.8 4.67.88.8 1.95 1.3 3.41 1.3s2.6-.46 3.48-1.34c1.07-1.03 1.8-2.72 1.8-4.59s-.69-3.52-1.68-4.48c-.88-.88-2.18-1.42-3.6-1.42-1.68 0-2.83.73-3.6 1.49zM135.01 23.99c-.46.88-1.15 1.84-1.95 2.57-1.46 1.3-3.25 1.95-5.28 1.95-3.83 0-7.85-2.41-7.85-8.31 0-4.75 2.91-8.42 7.7-8.42 3.1 0 5.05 1.53 6.01 2.91.99 1.42 1.57 3.87 1.49 5.97h-12.37c.04 3.29 2.3 5.4 5.05 5.4 1.3 0 2.34-.38 3.25-1.15a6.4 6.4 0 0 0 1.65-2.18l2.3 1.26zm-2.72-5.62c-.46-2.49-2.34-4.14-4.67-4.14s-4.25 1.76-4.67 4.14h9.34zM145.88 15.84c-.38-.92-1.19-1.61-2.22-1.61s-1.91.57-1.91 1.8c0 1.15.77 1.49 2.56 2.26 2.3.96 3.37 1.68 3.98 2.45.69.84.84 1.68.84 2.57 0 3.33-2.41 5.21-5.48 5.21-.65 0-4.21-.08-5.55-4.06l2.37-1c.31.84 1.23 2.6 3.22 2.6 1.8 0 2.6-1.34 2.6-2.53 0-1.49-1.07-1.99-2.57-2.64-1.91-.84-3.14-1.45-3.87-2.34-.61-.77-.73-1.53-.73-2.34 0-2.8 1.95-4.44 4.63-4.44.84 0 3.1.15 4.36 2.87l-2.26 1.19zM155.65 14.69v13.36h-2.76V14.69h-1.68v-2.53h1.68V6.42h2.76v5.74h2.76v2.53h-2.76zM170.7 12.16l4.71 10.8 4.98-12.02 4.94 12.02 4.75-10.8h3.06l-7.89 17-4.9-11.87-4.9 11.87-7.81-17h3.06zM210.13 23.99c-.46.88-1.15 1.84-1.95 2.57-1.46 1.3-3.25 1.95-5.28 1.95-3.83 0-7.85-2.41-7.85-8.31 0-4.75 2.91-8.42 7.7-8.42 3.1 0 5.05 1.53 6.01 2.91 1 1.42 1.57 3.87 1.49 5.97h-12.37c.04 3.29 2.3 5.4 5.05 5.4 1.3 0 2.34-.38 3.25-1.15a6.4 6.4 0 0 0 1.65-2.18l2.3 1.26zm-2.72-5.62c-.46-2.49-2.34-4.14-4.67-4.14s-4.25 1.76-4.67 4.14h9.34zM228.55 23.99c-.46.88-1.15 1.84-1.95 2.57-1.46 1.3-3.25 1.95-5.28 1.95-3.83 0-7.85-2.41-7.85-8.31 0-4.75 2.91-8.42 7.7-8.42 3.1 0 5.05 1.53 6.01 2.91 1 1.42 1.57 3.87 1.49 5.97H216.3c.04 3.29 2.3 5.4 5.05 5.4 1.3 0 2.34-.38 3.25-1.15a6.4 6.4 0 0 0 1.65-2.18l2.3 1.26zm-2.72-5.62c-.46-2.49-2.34-4.14-4.67-4.14s-4.25 1.76-4.67 4.14h9.34zM235.64.14v17.92l5.82-5.9h3.6l-6.82 6.82 8.04 9.07h-3.6l-6.36-7.24-.69.69v6.55h-2.76V.14h2.76zM262.74 23.99c-.46.88-1.15 1.84-1.95 2.57-1.46 1.3-3.25 1.95-5.28 1.95-3.83 0-7.85-2.41-7.85-8.31 0-4.75 2.91-8.42 7.7-8.42 3.1 0 5.05 1.53 6.01 2.91.99 1.42 1.57 3.87 1.49 5.97h-12.37c.04 3.29 2.3 5.4 5.05 5.4 1.3 0 2.34-.38 3.25-1.15a6.4 6.4 0 0 0 1.65-2.18l2.3 1.26zm-2.71-5.62c-.46-2.49-2.34-4.14-4.67-4.14s-4.25 1.76-4.67 4.14h9.34zM267.07 12.16h2.76V14c.5-.65 1.91-2.22 4.56-2.22 1.88 0 3.6.77 4.56 2.18.8 1.19.92 2.49.92 4.25v9.84h-2.76v-9.76c0-.96-.08-2.07-.73-2.91-.54-.69-1.38-1.15-2.6-1.15-.96 0-1.99.27-2.8 1.23-1.07 1.26-1.15 3.14-1.15 4.29v8.31h-2.76V12.17zM297.24.14H300v27.91h-2.76v-2.22c-.92 1.19-2.64 2.68-5.44 2.68-4.02 0-7.73-2.83-7.73-8.42s3.68-8.31 7.73-8.31c3.06 0 4.71 1.68 5.44 2.64V.14zm-10.33 19.95c0 3.41 1.91 5.97 5.21 5.97s5.28-2.79 5.28-5.93c0-4.1-2.83-5.9-5.28-5.9-2.72 0-5.21 1.99-5.21 5.86z" fill="#fff"/></svg>