<svg xmlns="http://www.w3.org/2000/svg" viewBox="0 0 300 105"><path d="M197.92 78.47c2.06 0 8.93-.5 8.76-7.23-.17-6.73-7.52-7.23-9.72-7.23-.39 0-.61.02-.61.02l.99 14.43s.21.02.57.02zm-.3-10.58c.74.15 1.53.37 2.27.71 2.3 1.04 3.45 2.76 3.51 5.26.02.92-.11 1.73-.38 2.45-1.63.93-3.61 1.13-4.75 1.16l-.66-9.58zM154.01 13.67c-3.55 0-6.42 3.98-6.42 8.89s2.88 8.89 6.42 8.89 6.42-3.98 6.42-8.89-2.88-8.89-6.42-8.89zm-5.43 8.88c0-1.76.4-3.38 1.07-4.69.64-.39 1.34-.61 2.07-.61 2.99 0 5.43 3.54 5.43 7.89 0 1.77-.41 3.39-1.08 4.7-.64.38-1.33.6-2.06.6-2.99 0-5.43-3.54-5.43-7.89zM150.16 63.87c-.49 0-1.02.05-1.58.14l1 9.46c7.76-.06 7.71-9.6.58-9.6zm-.17 3.99c1.49.63 2.19 1.94 2.19 3.24 0 .31-.03.59-.09.86a6.4 6.4 0 0 1-1.62.46l-.48-4.56zM123.61 16.55c-.58 0-1.21.06-1.9.19l1 9.45c7.57-.53 8.02-9.65.9-9.64zm-.51 3.87c1.22.41 2.24 1.3 2.3 2.9.01.4-.05.8-.17 1.2-.48.24-1.02.44-1.64.56l-.49-4.66zM50.08 30.98c-1.08 0-2.18.23-2.8.65l.79 8.5c3.39-.05 7.51-5.71 4.86-8.34-.55-.55-1.69-.81-2.84-.81zm-1.53 3.64c.7.09 1.2.28 1.39.47.87.86.52 2.16.24 2.87-.06.16-.14.32-.22.47-.33.22-.67.4-1 .53l-.4-4.33zM298.86 31.43c-2.03-4.49-5.85-5.74-9.55-6.94-1.09-.36-2.21-.72-3.28-1.17l-.12-.05c-.78-.33-1.37-.59-1.8-.85 1.98.11 4.01 1.08 5.97 2.02.2.09.39.19.59.28.13.06.28.1.43.1.14 0 .27-.03.4-.08.26-.12.46-.34.55-.62l.65-2.11c.08.04.17.08.25.12.13.06.28.1.43.1.14 0 .27-.03.4-.08.26-.12.46-.34.55-.62l2-6.46c.14-.45-.06-.94-.47-1.17-3.5-1.92-8.43-3.16-12.56-3.16-4.09 0-7.22 1.15-9.05 3.32-.34.41-.64.85-.89 1.32-.52.38-.99.79-1.4 1.27-1.65 1.95-2.19 4.64-1.62 7.97.55 3.22 3.53 5.91 5.91 7.23.76.42 1.98.81 3.39 1.26 2.05.66 5 1.6 6.11 2.7h-.05c-2.51 0-5.82-1.49-7.22-2.83a.993.993 0 0 0-.69-.28h-.04c-.27.01-.52.13-.7.34-.46.52-.94.99-1.35 1.4-.7.69-1.34 1.32-1.71 2.02l-.57.57c-1.13 1.11-2.1 2.07-2.03 3.4.05 1.04.74 2.05 2.24 3.27 2.97 2.42 7.41 3.86 11.88 3.86 5.02 0 9.16-1.76 11.06-4.71.1-.15.19-.31.28-.48.81-.61 1.49-1.31 2-2.11 1.08-1.68 1.97-4.57.04-8.84zm-11.1 12.55c-4.01 0-8.27-1.21-11.25-3.64-3.65-2.97-1.27-3.76 1.27-6.64 1.52 1.45 5.09 3.11 7.91 3.11 1.36 0 2.55-.38 3.25-1.36 2.93-4.09-7.32-5.61-9.93-7.06-2.37-1.32-4.94-3.79-5.41-6.53-1.29-7.56 3.76-10.13 9.7-10.13 4.24 0 8.93 1.31 12.08 3.04l-2 6.46c-2.35-1.11-4.83-2.4-7.35-2.4-1.11 0-2.24.25-3.37.88-1.16 2.85.66 3.55 2.99 4.53 4.64 1.95 9.87 2.24 12.3 7.6 3.66 8.09-2.85 12.14-10.19 12.14z" fill="#fff"/><path d="M227.84 52.09l-10.95-1.5h-.13c-.24 0-.48.09-.66.25-.22.19-.34.47-.33.77l.04 1.74-1.19-.16h-.13c-.24 0-.48.09-.66.25-.22.19-.34.47-.33.77l.21 8.75c-.71-1.34-1.58-2.59-2.62-3.73-4.01-4.41-10.27-6.94-17.19-6.94h-.19c-.72 0-2.65.16-4.4.43-2.43.38-3.99.83-4.31 1.89-.04.13-.05.27-.03.41l.09.68c-1.29.33-2.11.77-2.33 1.5-.04.13-.05.27-.03.41l2.5 19.73-8.31 1.89-1.91-26.22a.98.98 0 0 0-.36-.69.985.985 0 0 0-.64-.23h-.11l-8.95 1a1.001 1.001 0 0 0-.87 1.13l.17 1.29-1.58.18a1.001 1.001 0 0 0-.87 1.13l.2 1.52c-2.92-2.78-7.29-4.45-12.18-4.45-3.02 0-6.03.62-8.96 1.84-.39.16-.64.56-.61.98l.06.97c-.58.19-1.16.4-1.73.64-.39.16-.64.56-.61.98l.32 4.94c-.44-.83-.93-1.63-1.46-2.38-2.91-4.09-6.81-6.34-10.98-6.34-5.11 0-9.04 2.01-11.64 5.82-.56.48-1.07 1.03-1.56 1.62l.15-.69a.998.998 0 0 0-.74-1.18c-.92-.23-1.87-.53-2.88-.86-1.74-.56-3.54-1.14-5.29-1.33-.02 0-.04-.02-.06-.03-.16-.07-.42-.19-.75-.19-.51 0-.95.27-1.31.8-.08.12-.13.25-.16.39l-.25 1.51c-.15-.06-.34-.12-.57-.12-.51 0-.95.27-1.31.8-.08.12-.13.25-.16.39l-1.49 9.21-.03-.15c-.44-2.08-.9-4.23-1.5-6.24a.993.993 0 0 0-.95-.71c-.06 0-.13 0-.19.02l-5.37 1.03a.99.99 0 0 0-.79.81l-.27 1.55-1.22.23c-.37.07-.67.35-.77.71l-1.33-7.54a1.01 1.01 0 0 0-.98-.83.96.96 0 0 0-.33.06l-9.95 3.49c-.48.17-.76.67-.64 1.17l.18.78-1.83.64c-.48.17-.76.67-.64 1.17l8.46 35.83c.05.2.15.38.31.51.21.19.49.29.82.29 1.1 0 7.32-2.13 8.09-3.25.27-.39.49-.91.69-1.54.79-.38 1.38-.76 1.59-1.05.53-.77.9-2.04 1.21-3.71.39 1.9.8 3.83 1.3 5.72.1.38.42.67.81.73l6.88 1.05c.05 0 .1.01.15.01.46 0 .87-.32.97-.78l.42-1.93.74.11c.05 0 .1.01.15.01.46 0 .87-.32.97-.78l3.57-16.45c.49 4.35 1.94 8.38 4.21 11.57 2.91 4.09 6.81 6.34 10.98 6.34s7.96-2.19 10.85-6.17c.86-.8 1.67-1.72 2.41-2.76 1.18-1.66 2.14-3.55 2.86-5.6l.71 11.05c.03.53.47.93.99.93h.06l8.46-.5a.991.991 0 0 0 .93-1.1l-.16-1.39 1.51-.09a.991.991 0 0 0 .93-1.1l-.5-4.25 2.78 6.16c.16.36.52.59.91.59.07 0 .14 0 .22-.02l7.96-1.78c.3-.07.56-.27.69-.55.13-.28.12-.61-.02-.88l-.37-.71 1.74-.39.48 3.56c.04.27.18.51.4.67.17.13.38.19.59.19.06 0 .12 0 .17-.02l17.71-3.14c.51-.09.86-.55.82-1.07l-.11-1.25.37-.06.28 2.25c.06.48.46.85.94.87.48.02.97.04 1.46.04 5.51 0 11.1-1.48 15.32-4.05 2.35-1.43 4.24-3.16 5.66-5.13 2.07-1.94 3.56-4.21 4.42-6.75l1.97.41c-.48.49-.89 1.07-1.2 1.73-1.74 1.05-2.94 3.16-2.94 5.59 0 3.48 2.44 6.3 5.45 6.3 2.06 0 3.86-1.34 4.78-3.3 1.75-1.05 2.95-3.16 2.95-5.6 0-2.19-.97-4.13-2.45-5.26l.15-1.13.84.17c.07.01.14.02.2.02.2 0 .41-.06.58-.18.23-.16.37-.41.41-.68l2.99-22.89c.07-.54-.31-1.04-.85-1.12zm-34.14 1.17h.18c9.19 0 17.05 4.55 19.87 12.27l.28 11.51c0 .13.03.26.08.37-2.81 8.9-13.29 12.97-22.27 12.97-.47 0-.94-.01-1.41-.03l-4.5-35.47c.31-1.04 6.46-1.6 7.76-1.61zm-19.74-.19l2 27.37 10.94-2.49 1.02 11.66-17.71 3.14-5.2-38.68 8.95-1zm-10.01 20.17l1.93 14.34-5.15-9.74c1.42-1.61 2.47-3.15 3.22-4.6zm-60.17 25.6l-6.88-1.05c-1.19-4.5-1.87-9.15-3.04-13.65-.18-.7.32-1.27-.47-1.27-.14 0-.31.02-.53.05-.72 3.25-.94 12.81-2.53 15.14-.44.65-6.19 2.81-7.27 2.81-.08 0-.13-.01-.15-.03l-8.46-35.83 9.95-3.49 3.24 18.42 2.31-13.37 5.37-1.03c1.26 4.17 1.84 8.9 3.17 13.01.16.49.13 1.39.73 1.39h.11l3.22-19.93c.18-.27.34-.36.48-.36.21 0 .41.19.66.21 2.64.28 5.51 1.53 8.08 2.17l-7.98 36.81zm22.01-1.92c-7.94 0-14.38-9.05-14.38-20.22s3.75-20.22 14.38-20.22c5.44 0 10.18 4.25 12.62 10.52l1.03 16.05c-1.9 8.05-7.29 13.86-13.65 13.86zm17.82-2.54l-2.42-37.76c2.9-1.21 5.83-1.77 8.57-1.77 12.15 0 20.93 10.78 9.76 22.84l6.97 13.19-7.96 1.78-5.76-12.74-2.24.81 1.53 13.13-8.46.5zm81.37-11.23c0 2.93-1.99 5.31-4.45 5.31s-4.45-2.38-4.45-5.31c0-1.88.83-3.53 2.07-4.48l4.09.85c.07.01.14.02.2.02.2 0 .41-.06.58-.18.13-.09.23-.21.3-.35 1.01.97 1.67 2.46 1.67 4.14zm-.27-7.19l-7.41-1.54-.55-22.84 10.95 1.5-2.99 22.89zM72.54 54.96c1.56-.96 2.66-2.86 3.05-4.75.62-3.01-.51-5.61-2.87-6.64-.74-.32-1.47-.48-2.18-.48-1.89 0-3.53 1.18-4.46 3.18-1.07.61-1.94 1.66-2.49 3.07-.03.08-.06.17-.09.26l-4.67-7.24c3.37-3.87 5.59-7.27 4.62-13.55-.77-4.96-6.9-7.61-11.03-7.61h-.11c-2.02.02-11.38 2.52-12.91 4.01-.39.38-.63.96-.75 1.7-.71.32-1.25.62-1.53.89-1.35 1.31-.89 4.87-.14 9.39.16.99.31 1.85.35 2.37.1 1.22.19 2.46.27 3.7L34.85 28c-.05-.3-.24-.55-.5-.7-.15-.08-.31-.12-.48-.12-.13 0-.26.02-.38.07l-9.16 3.77c-.29.12-.5.36-.58.66l-.37 1.38-1.33.55c-.29.12-.5.36-.58.66l-2.05 7.72-3.84-8.23a.986.986 0 0 0-.9-.57c-.09 0-.17.01-.26.04L5.1 35.77c-.41.11-.7.47-.73.89l-.09 1.3-1.46.4c-.41.11-.7.47-.73.89L0 69.53c-.02.29.09.58.3.79.19.18.43.28.69.28h.11l8.96-1c.51-.06.9-.5.88-1.02l-.04-1.41 1.44-.16c.51-.06.9-.5.88-1.02l-.13-4.59 2.17 4.67c.16.35.52.58.9.58h.02l4.16-.09c.46-.01.85-.33.95-.77l.41-1.8.92-.02c.46-.01.85-.33.95-.77l1.83-7.98 1.47 9.08c.08.49.5.84.98.84.05 0 .1 0 .16-.01l9.45-1.5a1.005 1.005 0 0 0 .83-1.16l-.21-1.17 1.09-.17c.06.39.12.78.2 1.16.05.26.2.49.41.64.17.11.36.18.56.18.06 0 .12 0 .18-.02l7.91-1.47c.52-.1.87-.58.81-1.1l-.14-1.19 1.62-.3c.52-.1.87-.58.81-1.1l-.37-3.12 2.22 4.74c.17.36.52.57.9.57.1 0 .2-.01.3-.04l7.92-2.46c.48-.15.77-.63.69-1.12l-.16-.92.64-.2c.25.52.59.99 1.01 1.38 1.07.98 2.2 1.47 3.37 1.47 1.98 0 3.56-1.43 4.49-3.24zm-2-10.87c.55 0 1.14.12 1.78.4 4.56 1.97 2.05 10.13-2 10.13-.85 0-1.76-.36-2.7-1.21-2.64-2.41-1.18-9.32 2.91-9.32zM30.15 61.53l-2.98-18.41-4.55 19.84-4.16.09-6.71-14.46.49 17.41-8.96 1 2.08-30.27 9.32-2.54 6.01 12.9 4.02-15.14 9.16-3.77 4.28 23.77c.2 2.72.46 5.46.87 8.16l-8.87 1.41zm26.41-5.01L51.59 45.9l-2.46.28 1.41 11.85-7.91 1.47c-1.36-7.43-1.41-15.07-2.04-22.6-.19-2.26-1.95-9.56-.51-10.97 1.25-1.22 10.27-3.71 12.23-3.73h.1c3.92 0 9.38 2.47 10.05 6.76.93 6.02-1.13 9.08-4.88 13.31l5.58 8.64c-.2 1.16-.18 2.39.14 3.51l-6.74 2.09zM272.75 9.13a.996.996 0 0 0-.75-.34c-.07 0-.14 0-.2.02s-.02 0-.07 0c-.51 0-1.58-.31-2.52-.59-1.23-.36-2.4-.7-3.26-.7-.91 0-1.34.4-1.54.74-.07.11-.11.23-.13.36l-.24 1.52c-.13-.01-.26-.02-.37-.02-.39 0-.69.08-.92.19l-.24-2.09a.995.995 0 0 0-.94-.88l-22.36-1.03h-.05a.97.97 0 0 0-.73.32c-.2.21-.29.51-.26.8l.19 1.54h-.3l-.39-4.24a.998.998 0 0 0-.99-.9h-.05l-19.41 1c-.28.01-.53.14-.71.36-.18.21-.26.49-.22.76l.18 1.39-1.49.08c-.06-.13-.15-.26-.26-.35l-6.49-5.48c-.18-.15-.41-.23-.64-.23-.05 0-.11 0-.16.01-.29.05-.54.22-.69.46l-1.3 2.13s-.09-.01-.13-.01c-.05 0-.11 0-.16.01-.29.05-.54.22-.69.46l-4.08 6.68V3.81c0-.27-.12-.53-.31-.72a.984.984 0 0 0-.69-.27h-.05l-9.94.51a.994.994 0 0 0-.94 1.1l.15 1.41-.91.05-.26-2.2c-.06-.48-.45-.85-.93-.88-.37-.02-.74-.03-1.11-.03-5.14 0-9.4 2.13-12.34 6.15l-.15.21c-.77.7-1.49 1.49-2.14 2.38-.82 1.12-1.51 2.39-2.08 3.74-.72-3.12-1.96-5.99-3.67-8.39C162.1 2.78 158.2.53 154.03.53c-5.11 0-9.04 2.01-11.64 5.83-2.1 1.84-3.68 4.45-4.68 7.77-.05-.12-.1-.24-.16-.36-1.89-3.86-5.35-6.39-9.5-6.93-.46-.06-1.12-.09-1.95-.09-2.02 0-9.98.34-11.97 2.01-.47.39-.72 1.05-.84 1.86-.49.17-.91.36-1.23.57a.993.993 0 0 0-.53-.36c-1.51-.4-3.01-.6-4.46-.6-5.05 0-9.51 2.47-12.61 6.75-2.45 2.29-4.37 5.44-5.53 9.27-1.26 4.17-1.4 8.67-.4 12.66 1.11 4.43 3.54 8 7.03 10.32 2.52 1.67 5.32 2.52 8.32 2.52 3.29 0 6.63-1.04 9.67-3.01.04-.03.08-.06.11-.09.1.47.24.94.45 1.41.16.36.52.59.91.59h.13l7.86-1.01c.54-.07.93-.56.86-1.1l-.15-1.29 1.57-.2c.54-.07.93-.56.86-1.1l-.54-4.59 2.87 6.55c.16.37.52.6.91.6.07 0 .15 0 .22-.02l7.98-1.79a.994.994 0 0 0 .66-1.43l-.37-.72 1.99-.45a.994.994 0 0 0 .66-1.43l-6.65-12.81c.4-.43.74-.83.96-1.2.02-.03.03-.06.05-.09.15-.15.3-.3.42-.43.42-.43.83-.84 1.18-1.23.4 4.64 1.88 8.94 4.28 12.31 2.91 4.09 6.81 6.34 10.98 6.34s7.96-2.19 10.85-6.17c.86-.8 1.67-1.72 2.41-2.76 1.07-1.51 1.96-3.21 2.66-5.03.69 2.73 1.79 5.25 3.24 7.34 3.01 4.33 7.22 6.62 12.19 6.62 1.55 0 3.17-.23 4.83-.68.46-.13.77-.56.73-1.04l-.09-1.19c.45-.08.9-.18 1.35-.3l.21 1.98c.03.28.18.53.4.7.17.13.38.19.59.19.07 0 .13 0 .2-.02l7.25-1.46c.47-.09.8-.5.8-.98v-1.31l1.48-.3c.47-.09.8-.5.8-.98V35.9l8.12 9.95c.18.22.46.36.75.36h.02a1 1 0 0 0 .74-.33l6.42-7.15s.08-.1.11-.15l.72 5.72a.986.986 0 0 0 .99.87c.06 0 .12 0 .18-.02l17.91-3.24c.53-.1.89-.6.81-1.13l-.18-1.16 1.65-.3c.53-.1.89-.6.81-1.13l-1.08-7.11c-.07-.44-.42-.78-.86-.84-.58-.07-1.16-.1-1.79-.1-1.73 0-3.43.26-5.08.52-1.03.16-2.1.32-3.14.42-.1 0-.2.02-.3.03l-.02-.45c1.85-.06 3.73-.14 5.42-.39h.43c.43 0 .7-.19.85-.36.37-.4.34-.88.3-1.45-.01-.15-.04-.4-.07-.7.26-.03.51-.06.76-.1h.43c.43 0 .7-.19.85-.36.37-.4.34-.88.3-1.45-.03-.48-.2-1.84-.39-3.08-.42-2.65-.64-2.92-1-3.17a.988.988 0 0 0-.57-.18h-.02l-.88.02c.73-.2 1.4-.51 1.54-1.2.02-.1.02-.19.02-.29l-.08-.91c.1-.02.21-.04.3-.06.05-.01.1-.02.14-.03l.18 1.47c.06.47.43.83.9.87l5.56.51 2.05 23.92c.04.47.4.84.87.9l8.39 1.06h.12c.25 0 .49-.09.67-.26.22-.2.33-.48.32-.77l-.07-1.72 1.23.16h.12c.25 0 .49-.09.67-.26.22-.2.33-.48.32-.77l-.84-21.49 2.96.23h.08c.08 0 .15-.01.23-.03l-.21 1.37a.992.992 0 0 0 .98 1.15h.02l4.89-.08c.41 0 .78-.27.92-.66l.7-1.92h.67c.41-.02.78-.28.92-.67l3.57-9.86c.12-.34.05-.72-.18-.99zm-58.6.66l2.74 21.68-8.87-9.65 6.13-12.03zm-33.04 11.34c1.31-.85 2.92-1.3 4.5-1.31.28 0 .55-.13.74-.34.19-.21.27-.49.24-.77l-.16-1.34c.27-.05.53-.08.8-.11l1.02 9.61c-1.22.43-2.34.65-3.33.65-3.14 0-4.27-2.09-4.28-4.04 0-.87.17-1.65.48-2.35zm-68.6 12.89a.984.984 0 0 0-.75-.36c-.19 0-.37.05-.53.16-1.81 1.15-3.59 1.76-5.14 1.76-3.21 0-4.38-2.64-4.79-4.86-.4-2.14-.26-4 .39-5.48 1.13-.69 2.56-1.06 4.23-1.06.45 0 .93.03 1.42.08h.11c.48 0 .9-.34.98-.83l.32-1.84c.29.01.58.03.88.06h.11c.48 0 .9-.34.98-.83l.36-2.07c.26 4.81.82 9.7 1.36 14.45l.09.8zm-5.47-22.79c1.33 0 2.74.18 4.21.57l-1.53 8.88c-.53-.06-1.03-.09-1.52-.09-5.88 0-9.05 4.09-7.89 10.31.74 3.98 3 5.67 5.77 5.67 1.77 0 3.74-.69 5.68-1.92l3.51 10.65c-2.81 1.83-5.98 2.85-9.13 2.85-2.67 0-5.34-.74-7.77-2.36-13.17-8.75-7.26-34.58 8.67-34.58zm25.7 18.61l6.89 13.27-7.98 1.79-5.01-11.44c-.12-.53-.66-.73-1.24-.73-.79 0-1.67.36-1.74.75l1.48 12.56-7.86 1.01c-.95-2.12-.36-4.45-.55-6.67-.73-8.56-2.15-17.32-2.48-25.89-.05-1.23-.34-4.29.48-4.98 1.41-1.18 7.79-1.77 11.33-1.77.76 0 1.4.03 1.82.08 8.25 1.08 12.53 10.62 8.36 17.73-.71 1.2-3.59 3.42-3.51 4.28zm21.27 12.12c-7.94 0-14.38-9.05-14.38-20.22s3.75-20.22 14.38-20.22c7.94 0 14.38 9.05 14.38 20.22s-6.44 20.22-14.38 20.22zm31.34 0c-19.49 0-21.22-38.19 0-38.19.34 0 .69.01 1.05.03l.26 2.23a.994.994 0 0 0-.53.99l.98 9.25c-9.11.7-9.96 12.25-2.21 12.25 1 0 2.15-.19 3.44-.63l1.43 13.47c-1.57.42-3.04.61-4.43.61zm15.27-1.79l-7.25 1.46-3.96-37.31 9.94-.51v11.94l8.21-13.43 6.49 5.48-7.23 14.18 12.39 13.49-6.42 7.15-12.2-14.93.04 12.47zm34.3-23.92h-9.21l.57 4.41 9.42-.21c.33.23.91 4.64.97 5.51.04.64.03.74-.16.74-.08 0-.18-.02-.32-.02-.08 0-.16 0-.26.02-2.7.4-5.98.37-8.72.5l.23 4.5c.23.35.47.43.73.43.19 0 .4-.04.63-.06 2.7-.24 5.41-.93 8.13-.93.56 0 1.11.03 1.67.1l1.08 7.11-17.91 3.24-4.52-35.78 19.41-1 .38 4.09h-.18a.97.97 0 0 0-.73.32c-.2.21-.29.51-.26.8l.72 5.97c-.69.17-1.51.27-1.68.27zm13.75 24.81l-2.12-24.75-6.39-.58-1.02-8.43 22.36 1.03.4 3.44-.84 5.37-4.99-.38 1 25.38-8.39-1.06zm19.76-21.41l-4.89.08 1.72-10.96c.11-.18.35-.25.68-.25 1.41 0 4.45 1.3 5.78 1.3.1 0 .19 0 .28-.02l-3.57 9.86z" fill="#fff"/><path d="M125.79 68.63c-3.55 0-6.42 3.98-6.42 8.89s2.88 8.89 6.42 8.89 6.42-3.98 6.42-8.89-2.88-8.89-6.42-8.89zm-5.43 8.88c0-1.76.4-3.38 1.07-4.69.64-.39 1.34-.61 2.07-.61 2.99 0 5.43 3.54 5.43 7.89 0 1.77-.41 3.39-1.08 4.7-.64.38-1.33.6-2.06.6-2.99 0-5.43-3.54-5.43-7.89z" fill="#fff"/></svg>