<svg xmlns="http://www.w3.org/2000/svg" viewBox="0 0 170 184"><path d="M6.78 2.07v14.06H4.31V2.07H.54V-.26h9.99v2.32H6.77zM15.21 6.15h7.06V-.26h2.47v16.38h-2.47V8.47h-7.06v7.65h-2.47V-.26h2.47v6.41zM37.71 2.07h-6.57v3.94h6.38v2.32h-6.38v5.47h6.57v2.32h-9.04V-.26h9.04v2.32zM60.43 169.27l-2 1.19c-.37-.65-.73-1.07-1.07-1.27-.35-.23-.81-.34-1.37-.34-.69 0-1.26.19-1.71.58-.45.38-.68.86-.68 1.44 0 .8.59 1.44 1.78 1.93l1.63.67c1.33.54 2.3 1.19 2.92 1.97.62.77.92 1.72.92 2.85 0 1.51-.5 2.75-1.51 3.73-1.01.99-2.27 1.49-3.77 1.49-1.42 0-2.6-.42-3.52-1.26-.91-.84-1.48-2.03-1.71-3.55l2.5-.55c.11.96.31 1.63.59 1.99.51.71 1.25 1.06 2.23 1.06.77 0 1.41-.26 1.92-.77.51-.52.76-1.17.76-1.96 0-.32-.04-.61-.13-.88s-.23-.51-.41-.73c-.19-.22-.43-.43-.73-.63-.3-.19-.65-.38-1.06-.56l-1.58-.66c-2.24-.95-3.36-2.33-3.36-4.16 0-1.23.47-2.26 1.41-3.09.94-.83 2.11-1.25 3.51-1.25 1.89 0 3.36.92 4.42 2.76zM66.31 173.23h7.06v-6.41h2.47v16.38h-2.47v-7.65h-7.06v7.65h-2.47v-16.38h2.47v6.41zM78.95 174.94c0-2.31.85-4.29 2.54-5.94 1.68-1.65 3.71-2.48 6.07-2.48s4.33.83 6 2.5c1.68 1.67 2.51 3.67 2.51 6.01s-.84 4.35-2.52 5.99c-1.69 1.65-3.73 2.47-6.12 2.47-2.11 0-4.01-.73-5.7-2.2-1.85-1.62-2.78-3.74-2.78-6.36zm2.49.03c0 1.81.61 3.3 1.82 4.47s2.61 1.75 4.19 1.75c1.72 0 3.17-.59 4.35-1.78 1.18-1.2 1.77-2.67 1.77-4.39s-.58-3.21-1.75-4.39c-1.16-1.19-2.6-1.78-4.31-1.78s-3.14.59-4.32 1.78c-1.17 1.17-1.76 2.62-1.76 4.35zM99.29 166.83l4.26 10.95 4.46-11.74 4.26 11.74 4.53-10.95h2.68l-7.32 17.42-4.21-11.6-4.39 11.62-6.96-17.43h2.68zM125.8 173.29h43.69v2.11H125.8zM.32 173.29h43.69v2.11H.32zM44.34 6.15h125.4v2.11H44.34zM18.15 87.23H0l15.03-57.74H3.12v-4.83h18.15L6.25 82.4h11.9v4.83zM109.92 87.23H91.77l15.03-57.74H94.9v-4.83h18.15L98.02 82.4h11.9v4.83zM136.39 87.23h-18.15l15.03-57.74h-11.9v-4.83h18.15L124.49 82.4h11.9v4.83zM58.35 96.23H.34v4.83h26.59v57.01h4.83v-57.01h26.59v-4.83zM66.12 95.98h4.83v62.09h-4.83zM111.47 158.08l-27.19-44.41v44.4h-4.83V96.54l32.02 52.29 32.17-52.6v61.84h-4.83v-44.69l-27.34 44.7zM150.98 158v-4.83c3.6 0 6.18-.97 7.65-2.87 2.83-3.66 1.24-9.93 1.17-10.2-.09-.34-.27-1-.52-1.92-3.11-11.34-6.68-24.97-6.68-29.7 0-3.42 1.53-6.63 4.32-9.05 2.57-2.23 5.94-3.51 9.25-3.51H170v4.83h-3.83c-4.13 0-8.74 3.31-8.74 7.73 0 3.1 2.19 12.67 6.51 28.42.26.95.45 1.63.54 1.98.38 1.47 2.09 9.06-2.02 14.37-2.43 3.15-6.29 4.75-11.47 4.75zM81.61 87.23h5.42L55.26 24.71 22.74 87.23h5.44l7.1-13.64h39.4l6.93 13.64zM37.79 68.76l17.42-33.49 17.02 33.49H37.79zM169.74 24.66h-5.48l-6.45 12.02-6.38-12.02h-5.46l9.47 17.85v44.72h4.83V42.31l9.47-17.65z" fill="#fff"/></svg>