<?xml version="1.0" encoding="UTF-8"?><svg id="b" xmlns="http://www.w3.org/2000/svg" viewBox="0 0 250 110"><path d="M75.8,45.7c-9.41,17.54-20.97,33.73-34.2,48.56,1.12.16,2.23.16,3.35.16,2.87,0,5.74-.16,8.61-.48l-1.75,1.83,1.36.48-1.83,1.83,3.43.8-3.67,1.75.96,1.51,4.62,1.12-2.07,2.39c-4.7,1.36-9.65,1.75-14.51,1.75-5.42,0-11.08-.48-16.42-1.44l.4-3.35-3.19.72.56-2.07-1.99-.24c3.19-3.51,6.22-7.34,9.25-11,5.42-6.62,10.68-13.31,15.87-20.09,3.99-5.18,7.65-10.6,11.24-16.03-.96-.08-1.91-.08-2.87-.08-3.91,0-7.81.4-11.64.96l3.03-3.03-3.19-.72.4-1.67-1.75-1.67,5.58-1.36-2.79-1.36-.72-2.31c8.21-1.2,16.66-1.75,24.96-1.75,1.67,0,3.27,0,4.94.08l-1.36,2.15,3.19.16-.64,2.15,2.87.24Z" fill="#fff"/><path d="M105.85,87.08c-1.75,3.35-6.78,11.4-9.57,13.71-4.46,3.67-9.81,6.62-15.71,6.62-2.95,0-5.9-.72-8.61-1.91-5.66-2.55-7.26-8.45-7.26-14.19,0-1.99.16-3.99.56-5.98,2.63-13.47,7.81-27.03,17.22-37.31,2.95-3.27,7.26-5.42,11.48-6.3l-.56,1.83,3.27.96-1.75,2.31c2.07-.08,4.31,0,6.3.4l-.64-2.07h3.11l-2.39-2.31,2.63-1.28c7.73,1.51,10.29,6.7,10.29,14.11,0,8.53-4.46,23.76-8.37,31.41ZM97.64,55.43c-.4-.16-1.28-.32-1.67-.32-3.83,0-6.7,4.31-8.21,7.34-2.23,4.39-7.42,15.71-8.13,20.25-.24,1.59-.4,3.19-.4,4.78,0,2.55.72,5.58,3.91,5.58,2.79,0,5.5-3.91,6.94-5.98,3.43-4.94,7.1-16.03,9.09-22.01.48-1.51.88-2.95.88-4.54,0-1.67-.72-4.31-2.39-5.1Z" fill="#fff"/><path d="M158.71,62.28c-3.51,9.97-8.21,13.87-17.7,17.86,1.59,9.25,4.15,18.66,7.81,27.35l-1.67,2.23-3.43-4.23-1.36,2.63-1.91-2.63-.8,2.47-4.15-5.58-.32,3.27-2.39-.8c-2.23-6.22-5.1-13.95-6.54-20.49-3.03,7.34-5.82,14.83-8.13,22.4l-1.75.96-.64-4.23-1.83,1.51-.88-3.35-1.99,1.59-.64-3.27-3.27,5.02-1.28-2.15c4.38-15.39,10.36-31.73,16.9-46.4l2.39-1.59-2.79-1.04,2.39-2.55-.96-1.36,5.42-1.59-2.71-1.91,1.99-1.67-1.67-1.91c4.86-1.28,9.97-2.07,14.99-2.07,3.11,0,6.38.32,9.41,1.04,6.06,1.51,8.93,7.02,8.93,12.92,0,2.55-.56,5.1-1.44,7.57ZM141.49,53.91c-.72,0-1.51.08-2.23.24-2.55,4.23-4.62,9.41-6.46,13.95,5.1,0,8.61-2.39,10.92-6.86.72-1.36,1.44-2.95,1.44-4.46,0-2.23-1.75-2.87-3.67-2.87Z" fill="#fff"/><path d="M203.68,62.28c-3.51,9.97-8.21,13.87-17.7,17.86,1.59,9.25,4.15,18.66,7.81,27.35l-1.67,2.23-3.43-4.23-1.36,2.63-1.91-2.63-.8,2.47-4.15-5.58-.32,3.27-2.39-.8c-2.23-6.22-5.1-13.95-6.54-20.49-3.03,7.34-5.82,14.83-8.13,22.4l-1.75.96-.64-4.23-1.83,1.51-.88-3.35-1.99,1.59-.64-3.27-3.27,5.02-1.28-2.15c4.38-15.39,10.37-31.73,16.9-46.4l2.39-1.59-2.79-1.04,2.39-2.55-.96-1.36,5.42-1.59-2.71-1.91,1.99-1.67-1.67-1.91c4.86-1.28,9.97-2.07,14.99-2.07,3.11,0,6.38.32,9.41,1.04,6.06,1.51,8.93,7.02,8.93,12.92,0,2.55-.56,5.1-1.44,7.57ZM186.46,53.91c-.72,0-1.51.08-2.23.24-2.55,4.23-4.62,9.41-6.46,13.95,5.1,0,8.61-2.39,10.92-6.86.72-1.36,1.44-2.95,1.44-4.46,0-2.23-1.75-2.87-3.67-2.87Z" fill="#fff"/><path d="M241.63,87.08c-1.75,3.35-6.78,11.4-9.57,13.71-4.46,3.67-9.81,6.62-15.71,6.62-2.95,0-5.9-.72-8.61-1.91-5.66-2.55-7.26-8.45-7.26-14.19,0-1.99.16-3.99.56-5.98,2.63-13.47,7.81-27.03,17.22-37.31,2.95-3.27,7.26-5.42,11.48-6.3l-.56,1.83,3.27.96-1.75,2.31c2.07-.08,4.31,0,6.3.4l-.64-2.07h3.11l-2.39-2.31,2.63-1.28c7.73,1.51,10.29,6.7,10.29,14.11,0,8.53-4.46,23.76-8.37,31.41ZM233.42,55.43c-.4-.16-1.28-.32-1.67-.32-3.83,0-6.7,4.31-8.21,7.34-2.23,4.39-7.42,15.71-8.13,20.25-.24,1.59-.4,3.19-.4,4.78,0,2.55.72,5.58,3.91,5.58,2.79,0,5.5-3.91,6.94-5.98,3.43-4.94,7.1-16.03,9.09-22.01.48-1.51.88-2.95.88-4.54,0-1.67-.72-4.31-2.39-5.1Z" fill="#fff"/><path d="M22.43,2.6l-1.73.98.71,1.02-1.26,1.02.51,1.3-4.53.31c-1.69,3.42-3.11,7-4.45,10.59-1.93,5.04-3.66,10.19-5.12,15.39l-1.22.31-.16-1.65-.87.75-.16-1.73-.71,1.14-1.42,1.02v-2.56l-1.5,1.61-.55-1.06c1.42-4.21,2.91-8.42,4.49-12.59,1.34-3.54,2.72-7.12,4.33-10.55l-4.37.16-.2-1.14,2.28-1.18-2.09-.83.43-.83,3.03-.71-1.89-.91-.08-1.02c5-.51,10.07-.87,15.11-.98l.71.98-.87.63,1.53.51Z" fill="#fff"/><path d="M44.86,1.38c-2.16,4.29-3.9,9.21-5.51,13.73-2.05,5.78-4.01,11.69-5.39,17.67l-.59-.94-.87.63-.16-1.53-1.18,1.26-.43-.71-.87.71-.24-1.89-1.57,1.81-.87-.47c.47-2.01,1.02-4.01,1.65-5.94.63-1.89,1.34-3.7,1.93-5.59-1.81.16-3.62.51-5.43.83-1.42,3.74-2.79,7.52-3.82,11.37l-.75.47-.31-1.81-1.06,1.46-.71-.91-1.14,1.06-.2-2.12-1.46,2.36-.43-.87-1.3.67c1.5-5.86,3.58-11.69,5.75-17.35,1.65-4.37,3.46-9.13,5.82-13.18l.63,1.26,2.64-2.72.04,3.46,1.57-1.97.47,1.22,1.93-1.69.16.39c-2.28,3.97-3.86,8.34-5.43,12.63,1.69-.31,3.34-.71,5.08-.87,1.34-3.82,2.79-7.67,4.53-11.37l.43.91,1.22-1.14.12,1.3,2.09-2.79.35,2.05.94-1.06.59.87,1.73-1.5.04.31Z" fill="#fff"/><path d="M61.9,3.74l-1.57.59.67,1.02-.51,1.14c-1.93,0-3.97.2-5.82.79-.79,1.97-1.85,3.86-2.72,5.78l3.66.24.87.67-1.02.83,1.97.79-2.52.71,1.22.83-.94.51,1.14.83-.87.98-6.53.43c-1.02,2.36-2.05,4.72-2.87,7.16.43.08.91.08,1.34.08,1.57,0,3.19-.08,4.76-.24l-.63.75.47.51-1.06.71,1.93.2c-.16.63-1.26,1.57-1.77,1.93l2.28.39-1.02,1.18c-2.36.67-4.88.91-7.32.91-1.97,0-3.97-.12-5.94-.39.12-.51.28-1.02.47-1.5-.55-.24-1.18-.39-1.77-.43,1.61-5.9,3.9-11.73,6.37-17.31,1.02-2.32,2.09-4.72,3.46-6.85l1.22-.67-1.57-.31.2-.83-.87-.83,2.75-.67-1.38-.67-.35-1.14c3.9-.79,7.95-.98,11.92-.98h1.3l-.51.98.59.43-.75.75,1.73.71Z" fill="#fff"/><path d="M95.85,10.59c-1.81,5.12-4.17,7-9.01,9.09-2.05.87-4.92,1.26-7.12,1.18-1.85,3.97-3.31,8.19-4.53,12.4l-.87.51-.35-2.16-1.18,1.42-.24-2.56-.87.87-.35-1.69-1.85,2.4-.55-.75c1.53-5.19,3.34-10.39,5.35-15.43,1.1-2.75,2.24-5.51,3.5-8.22l1.22-.83-1.38-.51,1.22-1.34-.51-.63,2.75-.83-1.38-1.02,1.02-.83-.87-.98c3.11-.2,6.22-.67,9.33-.67.94,0,1.89.04,2.83.2,3.15.47,4.57,3.58,4.57,6.49,0,1.34-.32,2.64-.75,3.9ZM87.08,6.34c-.39,0-.75.04-1.1.12-1.3,2.12-2.36,4.84-3.31,7.12,3.07,0,4.13-.75,5.55-3.46.35-.67.75-1.5.75-2.28,0-1.14-.91-1.5-1.89-1.5Z" fill="#fff"/><path d="M113.91,23.18c-.87,1.65-3.35,5.63-4.72,6.77-2.2,1.81-4.84,3.27-7.75,3.27-1.46,0-2.91-.35-4.25-.94-2.79-1.26-3.58-4.17-3.58-7,0-.98.08-1.97.28-2.95,1.3-6.65,3.86-13.34,8.5-18.42,1.46-1.61,3.58-2.68,5.67-3.11l-.28.91,1.61.47-.87,1.14c1.02-.04,2.12,0,3.11.2l-.31-1.02h1.53l-1.18-1.14,1.3-.63c3.82.75,5.08,3.31,5.08,6.97,0,4.21-2.2,11.73-4.13,15.5ZM109.86,7.56c-.2-.08-.63-.16-.83-.16-1.89,0-3.31,2.12-4.05,3.62-1.1,2.16-3.66,7.75-4.01,10-.12.79-.2,1.57-.2,2.36,0,1.26.35,2.75,1.93,2.75,1.38,0,2.72-1.93,3.42-2.95,1.69-2.44,3.5-7.91,4.49-10.86.24-.75.43-1.46.43-2.24,0-.83-.35-2.12-1.18-2.52Z" fill="#fff"/><path d="M145.16,3.03c-5.16,3.94-10,8.42-14.6,13.03,2.12,5,3.86,10.23,5.43,15.43l-1.3.04-1.02-1.14.04,2.01-.55.94-1.14-1.18-.32.91-1.1-1.14-.59,1.53-5.12-12.71c-.55,1.1-.98,2.28-1.38,3.42-.98,2.83-1.81,5.71-2.56,8.62l-.79-.04-.87.67-.35-1.5-.67.71-.35-1.69-1.57,2.36-.43-1.26-1.34.79c1.14-5.63,3.03-11.14,5-16.53,2.01-5.47,4.25-10.98,6.93-16.17l1.1-.08-.24,2.4,1.26-1.1.35.67.75-.79.51,1.26,1.61-2.01.32,1.18.91-.39c-1.34,2.48-2.36,5-3.46,7.56,2.79-2.75,5.67-5.39,8.58-7.99l1.1-.08-.47,1.22,2.87-1.5-.83,2.01,1.3-.51-.08.98c.9-.35,1.89-.71,2.87-.91l.2.98Z" fill="#fff"/><path d="M160.74,3.74l-1.57.59.67,1.02-.51,1.14c-1.93,0-3.97.2-5.82.79-.79,1.97-1.85,3.86-2.72,5.78l3.66.24.87.67-1.02.83,1.97.79-2.52.71,1.22.83-.94.51,1.14.83-.87.98-6.53.43c-1.02,2.36-2.05,4.72-2.87,7.16.43.08.91.08,1.34.08,1.57,0,3.19-.08,4.76-.24l-.63.75.47.51-1.06.71,1.93.2c-.16.63-1.26,1.57-1.77,1.93l2.28.39-1.02,1.18c-2.36.67-4.88.91-7.32.91-1.97,0-3.97-.12-5.94-.39.12-.51.28-1.02.47-1.5-.55-.24-1.18-.39-1.77-.43,1.61-5.9,3.9-11.73,6.37-17.31,1.02-2.32,2.09-4.72,3.46-6.85l1.22-.67-1.57-.31.2-.83-.87-.83,2.75-.67-1.38-.67-.35-1.14c3.9-.79,7.95-.98,11.92-.98h1.3l-.51.98.59.43-.75.75,1.73.71Z" fill="#fff"/><path d="M190.13,23.18c-.87,1.65-3.35,5.63-4.72,6.77-2.2,1.81-4.84,3.27-7.75,3.27-1.46,0-2.91-.35-4.25-.94-2.79-1.26-3.58-4.17-3.58-7,0-.98.08-1.97.28-2.95,1.3-6.65,3.86-13.34,8.5-18.42,1.46-1.61,3.58-2.68,5.67-3.11l-.28.91,1.61.47-.87,1.14c1.02-.04,2.12,0,3.11.2l-.31-1.02h1.53l-1.18-1.14,1.3-.63c3.82.75,5.08,3.31,5.08,6.97,0,4.21-2.2,11.73-4.13,15.5ZM186.07,7.56c-.2-.08-.63-.16-.83-.16-1.89,0-3.31,2.12-4.05,3.62-1.1,2.16-3.66,7.75-4.01,10-.12.79-.2,1.57-.2,2.36,0,1.26.35,2.75,1.93,2.75,1.38,0,2.72-1.93,3.42-2.95,1.69-2.44,3.5-7.91,4.49-10.86.24-.75.43-1.46.43-2.24,0-.83-.35-2.12-1.18-2.52Z" fill="#fff"/><path d="M214.68,3.97l-1.14.71.59.91-.51,1.14c-2.24,0-4.56.28-6.73.79-.83,2.01-1.73,3.97-2.64,5.98l3.66.24.87.67-.75.63,1.65.71-2.44.98,1.22.83-.91.51,1.06.79-.87,1.02-6.49.43c-1.89,4.33-3.31,7.83-4.13,12.55l-1.18.83-.16-1.65-.83.75-.2-1.5-1.65,1.53.04-2.79-1.53,2.48-.94-1.57c1.18-5.35,3.34-10.98,5.51-16.02,1.14-2.64,2.28-5.35,3.78-7.83l1.22-.67-1.57-.31.2-.83-.87-.83,2.75-.67-1.38-.67-.39-1.1c3.86-.79,7.91-.94,11.84-.94.75,0,1.46,0,2.2.04l-.51.98.59.35-1.14.83,1.77.71Z" fill="#fff"/></svg>