<svg xmlns="http://www.w3.org/2000/svg" width="340" height="48" viewBox="0 0 340 48"><path d="M339.72 25.69c.82-2.9-.42-5.69-.6-8.57.12-4 .13-7.93.18-11.89a1.62 1.62 0 0 0-.4-1.39c-4-2.54-4.15 3.64-3.76 6.17.34 4-.06 8.06-.15 12.08-.08 3.37-1.31 6.69-.26 10.1.45 1.47-1.57 2.27-1.94.49-.82-3.21-3.07-6.08-3.77-9.26l-.49-.78a.41.41 0 0 0-.33-.44l-.27-.35a.79.79 0 0 0-.6-.79 18.21 18.21 0 0 0-2.62-4c-.63-2.16-2.27-4-2.79-6.26a1.16 1.16 0 0 0-.66-.83l-.35-.71a4.13 4.13 0 0 1-1.12-.64 4.13 4.13 0 0 0 1.12.64 6.25 6.25 0 0 0-2.09-2.47h-.07a.81.81 0 0 1-.64-.21c-1.75-1.55-3 .9-2.68 2.51a132.85 132.85 0 0 1-.38 16.91c-.09 5-1.22 10.2-.19 15.11.47.63 1.26.24 1.88.43 1.89.9 1.07-1.29 1.26-2.35.5-5.39 1.06-10.78 1.77-16.16.72-3.3 4.08 3.47 4.87 4.3 1.89 3.47 4.75 6.45 6.15 10.14.17 1.44 3.75 5.92 5 4.1.36-.49.71-1.13 1.35-1.1 2.46.16 2-1.78 2.26-3.42.77-3.78.03-7.59.32-11.36zM105.18 21.65c.59-2.13-1.78-20.06-5.41-16.39-2.25 4.63 2.2 10.23 1.28 14.85-.06 4 .28 8.69-4.16 9.81-2.49.77-1.65-2.78-2.67-4.05-1.54-2.19-.79-4.93-1.47-7.35-.9-3.69-1.15-7.5-2.92-10.95-.39-.88-2.2-2.74-2.41-.8-.64 5.22.21 26.56 6.93 27 4.3 1.55 8.66-1.3 10.31-5.27 1.34-2.16.34-4.5.52-6.85zM58.79 5.49C55.85 3.58 55 7 55.4 9.21a42.78 42.78 0 0 1 .67 14.88c-.2 4.38-6 9.85-8.36 3.69-2.75-3-.88-7.37-2.92-10.69a48.87 48.87 0 0 1-.46-7.27c.34-2.72-4.44-7.08-4.11-2s-.56 9.81-.41 14.73c.28 1-.77 1.3-.77.1-1-4.46-2.64-8.82-2.91-13.4-.22-2.7-2.25-6.65-5.39-5.89-1.42 1.7.44 4.29.49 6.29-.12 1.85 2.31 8.93-.1 9.09-9.17 2.81-4.3.58-7.65-5a14.48 14.48 0 0 0-1.16-3.55 4.91 4.91 0 0 0-1-3.78 1 1 0 0 0-1-1.24c-7.24-4.26-.56 12.66-.08 15.41-.13 1.73-1.55-1.28-2-1.6-1.45-1.7-3-3.28-5.53-3C9.92 15 7 15.5 4.14 15.12c-.46-.1-.73-.31-.6-.83.59-1.82-.24-4.51 1.65-5.64a.4.4 0 0 0 .6-.27.47.47 0 0 0 .57-.38l1-.71C9 4.82 10.93 5.82 13.17 6.7c.3.13.65.25.93 0 .59-.7-.21-1.44-.56-2-2.87-4.7-8.25-1.5-11.65.7C-.66 6.8.38 13.43 0 16.21c.58 6.14 8.12.94 11.52 3.93 2.47 1.69 7.05 5.16 5.05 8.41-.85.27-1.14 1-1.41 1.7-1.57 2.56-6.16 4.83-8.93 2.82-1.09-1.11-2.9-.3-3.84-1.78a1 1 0 0 0-1.8.53c-.64 8.7 11.13 6.6 16.05 3.94 1.21-.11 1.37-1.11 1.82-1.94a.37.37 0 0 0 .31-.44c.05-.1.1-.21.14-.31 1.31-.72 1.46-5.61 2.53-6.55 1.11 2 1 11.76 4.55 9.72 3.36-.9 2-4.61 1.56-7.09a10.1 10.1 0 0 0-1-3.24c-.22-.35-.42-.72-.19-1.11s.75-.42 1.18-.34a9.08 9.08 0 0 0 4.14-.38c1.77-.49 2.15-.23 2.29 1.6.33 1.6 1.11 7.66 3.51 6.4a1.64 1.64 0 0 1 1.25 0c3 .79.83-5.5 1.37-6.63 1.64 3.52 2.61 7.61 5.93 10.14 5.22 2.58 11.59-1.08 13.49-6.33s3.42-19.53-.73-23.77zm-14.87 6.82c0 1.28-.1 2.55 0 3.82-.11-1.77.06-3.54 0-5.32.02.5 0 1 0 1.5zM80.73 5.43c-1.77-1.06-4.41.46-6.45.42v-.13c-2.53.75-10.53-.54-10.61 2.85-.21 2.18 2.17 2.31 3.76 2.22 1.12 0 1.43.25 1.55 1.35.73 6.68 2 13.28 2.42 20a2.36 2.36 0 0 0 2.19 2.44c4.31 2.49 1.73-10.34 1.57-12.34-.5-3.52-.53-7.09-1.29-10.58-1.34-3.83 11.37 1.18 6.86-6.23zM258.33 22.09c-4.21-5.69-12.21-6-18-9.36a2 2 0 0 1-.15-3.53c1.2-1.17 3.14-.93 4.25-2.11 1.22-1.78 2.9-1.61 4.65-1.12a19.61 19.61 0 0 1 3.28 1.15c.85 1.09 1.83 1.47 2.51 1a2.13 2.13 0 0 0-.19-3.12c-5.3-2.49-15.7-3.08-19 2.67a.37.37 0 0 0-.32.42l.15-.05-.15.05a3.8 3.8 0 0 0-.54 5.23l.1.21c1.18 5.29 15.1 5.51 18 12.08C254 27 255.5 28.26 256 30.14c.1.27.12.6.45.73 0 .13.06.26.08.39-.22.26-.19.47.13.62v-.09c-.06.15 0 .32 0 .48a.58.58 0 0 1 .14.12.58.58 0 0 0-.14-.12c-.21.28-.13.48.19.6l.08.22a4.5 4.5 0 0 0-.37 1.24c.05 3.5-4.36 4.81-7.2 4.26a1.37 1.37 0 0 1-1.15-.86c-.92-1.72-3.36-2-3.6-4.3-.84-3.32-.8-4.75-4.62-3.44a1.79 1.79 0 0 0-1.73 1.76c-.2 4.61 3.15 8.31 6.83 10.68 3.6 4 3.27 2.42 8 2 6.9-.18 10.13-8.78 8.66-14.71a31.5 31.5 0 0 0-3.42-7.63zM135 7.16c-2.08-4.53-6.91-4.57-11-5.9a19.21 19.21 0 0 0-15.66.92c-2.56 2 .65 13.57.58 17.18.49 5.55.62 11.11 2.23 16.46.25 2.46 2.42 1.71 4.16 1.55 2.13.09 1.58-2.3 1.21-3.66.1-2.14-2.87-11.49-.79-11.75a36.48 36.48 0 0 1 7-1.49c6.58-.69 14.27-5.92 12.27-13.31zm-21.21 9.07a5 5 0 0 1-.61-2.42 4.59 4.59 0 0 0 .45 2.08c.47-1.35-.22-2.7 0-4.06a6.49 6.49 0 0 0-.39-3.62c-.57-2.64 6.94-.7 8.4-.38 2 .36 2.75 2.41 4 3.84.87 1.28 1.49-.28 1.21-1.18-.46-1.07.81-1.15 1.07-.22 1.3 4.49-11.09 5.49-14.18 5.96zM279.84 5.3c-6.19-.51-12.62-2-18.62.33-2.15.65-.92 3.36.84 3.31 1.54.22 6.59.3 6.39 2.31.42 5.68.86 11.35 1.12 17 .58 5.95-.13 11.63 1.66 17.48 1.41-2.07 5-.81 5.27-3.52.06-10.39-1.87-20.68-2.17-31.07-.37-2.14 3.59-.2 5-.94 2.46-.37 2.88-1.08 2.2-3.51a1.75 1.75 0 0 0-1.69-1.39zM305.28 41.25c-17-4.5-12.22 3.25-13.51-11-.12-.47.18-1-.13-1.41-.23-.65.31-1.34-.26-1.87-.41-4.23 1.68-1.85 4.05-2.45h.6c.71.71 1.44-.11 2.27 0 1 .29 2.66.29 3-.89.26-1 .88-2 0-3.06-.05-.75-.07-1.76-1-1.77-1.78-.09-3.55-.51-5.33-.12a12.67 12.67 0 0 0-4.2-.41l-.39-.49c.54-2.69 1.16-5.51.75-8.26-.14-.45.1-.78.61-.83 4.16-1 9.89.86 12.84-2.9.77-.92.25-3-1.16-2.78-5.28.6-10.63.08-15.86 1.16C285 4.52 285.54 7 285.69 9a1.46 1.46 0 0 1-.79 1.48c-1.82 1.09 1.35 1.92.84 3.64-.22 8 .41 16 .35 24a2 2 0 0 1-.48 1.76c-1.34 1.38-.39 4.26 1.63 4.21 1.23-.07 2 1.12 3.29 1a42.3 42.3 0 0 1 10.06 1.59c3.15 1.46 7.75-2.86 4.69-5.43zM227.44 18.93c.16-3.8-.8-7.54-.87-11.34a2.52 2.52 0 0 0-1.79-2.39c-5.22-2.32-3.58 4.27-3.39 7.17-.12 4.08.62 8.09.71 12.16.7 3.69-1.36 17.62 3.49 17.63 8.5-.61.85-17.6 1.85-23.23zM209.83 36.12c-15.16-1.19-12.48 2.43-12.52-8.75-1.21-8-.68-16.42-3.88-24-.44-1.28-1.83-.58-2.8-1-3.26-.17-1 5.09-1.37 7.05a81.66 81.66 0 0 0 .51 9.77c.44 5.68.77 11.36 1.06 17 .14.94.65 1.83.31 2.84-.11.29.15.6.43.72 5.67 2.22 12.22 1.1 18.22 1.52 2.88-.03 3.05-5.14.04-5.15zM148.79 27.86a13.19 13.19 0 0 0-2.56-3.73 1 1 0 0 0-.8-1.09c-.79-1.68-4.25-7.71-5.94-4.3 0 4.33-2.16 8.33-2.86 12.55.1 2.15 3.13.3 3-1.05a2.75 2.75 0 0 1 2.79-2.47c2.8-.88 3.09 2.44 4.86 3.81a1.75 1.75 0 0 0 2.29.07c1.35-1.1-.34-2.65-.78-3.79zm-5.88-3.61a1 1 0 0 0 0-.29 1 1 0 0 1 0 .29zm-1.42-.6c.17-.44.52-.26.77 0 .41.49.18 1 0 1.51l-.53.16c-.82-.4-.48-1.09-.24-1.67zM162.19 23.27c-1.27-6.9-4.56-7.71-3.43.34.52 2.4-5.15-2.85-6.16-3-3.8-2.11-1.33 7.86-.86 9.36a1.77 1.77 0 0 0 1.95 1.06c1.75-.62.61-3.24.59-4.63-.61-1.18.36-1.47 1-.53 1.72 1.11 4.89 5.41 6.88 4s-.09-4.47.03-6.6zM176.08 19.13c-2.37-2.18-8.78-4-9.84.19 0 2.09.14 10.2 2.46 10.52 3.33.06 7.16-1 8.38-4.42.32-1.97.76-4.51-1-6.29zm-4.38 6.24c-.55.35-.94.16-1-.42 0-1.38-1.07-3.41-.24-4.5a2.56 2.56 0 0 1 1.24 4.92z" fill="#fff"/></svg>