<?xml version="1.0" encoding="UTF-8"?><svg id="b" xmlns="http://www.w3.org/2000/svg" viewBox="0 0 250 141"><path d="M20.15,2.4h10.95c14.99,0,23.54,10.86,23.54,32.48v2.31c0,21.62-8.55,32.48-23.54,32.48h-10.95V2.4ZM32.35,58.9c5.57,0,10.38-4.9,10.38-21.71v-2.31c0-16.81-4.8-21.71-10.38-21.71h-.48v45.74h.48Z" fill="#fff"/><path d="M58.52,37.76v-3.46c0-22.2,7.21-32.86,17.87-32.86s17.87,10.67,17.87,32.86v3.46c0,22.2-7.21,32.86-17.87,32.86s-17.87-10.67-17.87-32.86ZM82.34,37.76v-3.46c0-17.29-2.4-22.1-5.96-22.1s-5.96,4.8-5.96,22.1v3.46c0,17.29,2.4,22.1,5.96,22.1s5.96-4.8,5.96-22.1Z" fill="#fff"/><path d="M98.55,2.4h10.95l11.82,34.01V2.4h11.43v67.26h-10.38l-12.39-35.65v35.65h-11.43V2.4Z" fill="#fff"/><polygon points="136.35 -.05 136.35 24.12 149.05 -.05 136.35 -.05" fill="#fff"/><path d="M158.37,13.54h-8.26V2.4h28.25v11.15h-8.26v56.11h-11.72V13.54Z" fill="#fff"/><path d="M0,107.62v-2.31c0-21.71,9.22-32.96,22.48-32.96,3.55,0,6.53.77,8.94,1.92v12.2c-2.88-1.73-5.48-2.88-8.55-2.88-6.73,0-10.95,6.73-10.95,21.23v3.27c0,17.58,5.19,21.62,9.99,21.62.38,0,.48,0,1.06-.1v-17.2h-5.76v-10.47h16.43v35.74c-4.23,1.83-7.69,2.88-12.2,2.88-11.72,0-21.43-9.51-21.43-32.96Z" fill="#fff"/><path d="M38.54,108.19v-3.46c0-22.2,7.21-32.86,17.87-32.86s17.87,10.67,17.87,32.86v3.46c0,22.2-7.21,32.86-17.87,32.86s-17.87-10.67-17.87-32.86ZM62.37,108.19v-3.46c0-17.29-2.4-22.1-5.96-22.1s-5.96,4.8-5.96,22.1v3.46c0,17.29,2.4,22.1,5.96,22.1s5.96-4.8,5.96-22.1Z" fill="#fff"/><path d="M96.4,83.98h-8.26v-11.15h28.25v11.15h-8.26v56.11h-11.72v-56.11Z" fill="#fff"/><path d="M120.08,72.83h11.72v27.86h10.18v-27.86h11.72v67.26h-11.72v-28.25h-10.18v28.25h-11.72v-67.26Z" fill="#fff"/><path d="M157,72.83h25.75v11.15h-14.03v16.72h12.39v11.15h-12.39v17.1h14.32v11.15h-26.04v-67.26Z" fill="#fff"/><path d="M186.49,72.83h12.11c12.01,0,20.75,6.34,20.75,21.43v.86c0,8.74-3.46,14.32-7.88,17.68l9.03,27.29h-12.49l-7.59-23.44h-2.21v23.44h-11.72v-67.26ZM198.79,106.08c5.09,0,8.84-2.98,8.84-10.86v-.77c0-8.46-4.04-10.67-9.13-10.67h-.29v22.29h.58Z" fill="#fff"/><path d="M223.96,72.83h25.75v11.15h-14.03v16.72h12.39v11.15h-12.39v17.1h14.32v11.15h-26.04v-67.26Z" fill="#fff"/></svg>