<?xml version="1.0" encoding="UTF-8"?><svg id="logos" xmlns="http://www.w3.org/2000/svg" width="280" height="134" viewBox="0 0 280 134"><path d="M30.82,79.69l-1.02,.38,.14-4.04s-.02-.09-.05-.11c-.04-.03-.08-.03-.12-.02-.35,.12-8.39,2.94-11.67,5.54,.24-1.22,1.09-5.32,2.6-9.97,1.86-5.73,4.95-13.94,5.65-15.18,.68-1.21,1.75-1.71,1.76-1.71,.05-.02,.08-.07,.08-.13l-.1-2.63c0-.07-.05-.12-.12-.13l-2.24-.31,1.65-1.47s.05-.08,.04-.13c-.01-.05-.05-.09-.09-.1l-1.61-.48,1.75-1.25s.06-.07,.06-.12l-.15-2.58s-.02-.07-.05-.1-.07-.03-.11-.03c-.1,.02-9.67,1.59-15.62,3.59-.06,.02-.1,.08-.09,.14l.14,1.52c-1.03,.42-9.28,3.79-10.58,4.51-.91,.51-1.13,1.43-1.04,2.07,.06,.41,.24,.7,.47,.75,.34,.08,1.2,.59,1.38,1,.05,.12,.03,.18,0,.21-.09,.16-.33,.41-.57,.67-.62,.66-1.2,1.29-.93,1.65,.17,.22,.5,.38,.82,.52,.26,.12,.58,.27,.62,.39,.02,.09-.12,.48-.24,.83-.3,.84-.74,2.12-.57,3.14,0,.04,.03,.08,.07,.1,.04,.02,.08,.02,.12,0l12.52-6.19-6.33,27.85s0,.08,.03,.11c.03,.03,.06,.05,.11,.05h2.8c-.06,.57-.09,1.22,.06,1.37,.03,.03,.09,.1,.17,.19,.31,.35,.89,1,1.46,1.44,.66,.52,.75,1.57,.56,2.34-.22,.86,.5,1.75,.53,1.78,.02,.03,.06,.05,.1,.05h0s.07-.01,.1-.04c.06-.06,5.69-5.83,9.72-8.52,4.03-2.68,7.86-3.96,7.9-3.97,.06-.02,.09-.07,.09-.13v-2.78s-.02-.09-.06-.11c-.04-.03-.08-.03-.12-.02Zm-15.27,5.48s0,.06-.02,.09v.02s-.03,.05-.06,.08l-.02,.02s-.04,.03-.06,.05c-.02,.01-.05,.02-.07,.03h-.03s-.03,.02-.04,.02c-.15,.03-.27,.03-.34,0l-.07-.05s-.06-.07-.07-.1v-.09s0-.06,.01-.11c0-.03,.02-.05,.05-.08,.02-.02,.04-.04,.09-.06,.02-.01,.05-.02,.08-.02h.06s.05,0,.07-.02c.02-.02,.05-.03,.05-.03h.09s.09,0,.12,.01l.07,.06s.04,.05,.06,.09c.01,.03,.02,.06,.02,.1Zm-1.92,2.4l-.03,.05c-.13,.19-.26,.39-.43,.54-.13,.12-.41,.31-.75,.26-.05,0-.09-.01-.12-.03l-.07-.06s-.06-.1-.08-.2c-.04-.27,.11-.56,.36-.73,.14-.09,.32-.14,.51-.14,.03,0,.07,0,.1,0,.04,0,.07,0,.1-.03,.03-.03,.07-.05,.11-.06,.06-.02,.13,0,.21,.03,.05,.03,.1,.09,.12,.16,.02,.07,0,.16-.02,.2Zm7.56-26.31c0-.15,.12-.26,.28-.27h0c.07,0,.14,.04,.19,.1,0,0,.02,.02,.02,.02,.04,.03,.07,.08,.11,.16l.05,.12c.1,.25,.21,.51,.26,.77,.06,.39,.02,.76-.12,1.11-.05,.12-.11,.18-.19,.2-.09,.03-.2,0-.26-.07-.42-.43-.38-1.06-.35-1.68,0-.16,.02-.32,.02-.47h0Zm.57-9.22c-.08,0-.15-.01-.24-.03-.07-.01-.15-.11-.17-.18-.03-.09,0-.18,.08-.27h0c.25-.29,.63-.35,1.07-.4,.03,0,.05,0,.07-.02l.08-.05s.08-.03,.11-.03c.02,0,.03,0,.05,0,.08,.02,.16,.07,.2,.14,.03,.05,.04,.14,.02,.2-.02,.06-.06,.11-.13,.17l-.07,.05c-.16,.11-.31,.22-.47,.29-.11,.05-.23,.1-.35,.12-.08,.01-.15,.02-.23,.02Z" fill="#fff"/><path d="M68.19,43.53c-.62,.49-2.57,.15-3.27-.03-.05-.01-.09,0-.13,.03-.03,.03-.05,.08-.04,.12,.09,.4,.09,.66,.02,.77-.04,.07-.13,.09-.29,.12-.19,.04-.42,.09-.63,.29-.38,.36-.29,.92-.22,1.37,.04,.24,.08,.48,.02,.59-.06,.1-.44,.03-.72-.03-.39-.08-.83-.17-1.14-.03-.43,.2-.51,.79-.56,1.18-.02,.12-.04,.28-.04,.3-.08,.02-.37-.11-.55-.18-.24-.1-.45-.2-.6-.2-.19,0-.36,.16-.54,.34-.17,.16-.36,.35-.52,.36-.05-.09,.1-.54,.17-.73,.08-.24,.13-.39,.13-.49,0-.18-.18-.32-.39-.48-.21-.17-.45-.35-.51-.58,.08-.14,1.03-.16,2.03-.03,.02,0,.04,0,.05,0,.12-.03,1.15-.34,1.23-.92v-.09c.27-1.66,.27-2.47,.04-2.7-.08-.08-.27-.23-.51-.41-1.07-.82-1.58-1.31-1.52-1.45,.2-.25,1.27,.36,1.78,.65,.09,.05,.17,.1,.25,.14,.71,.39,1.98,.32,2.04,.32,.04,0,.07-.02,.1-.05,.02-.03,.03-.07,.03-.1-.12-.82-.79-1.65-1.82-2.27-1.16-.7-4.49-2.1-10.47-.03-7.79,2.7-15.21,11.75-17.66,21.53-2.89,11.56,2.54,19.35,2.6,19.43,1.36,1.9,3.16,2.25,3.63,2.32,.18,1.07,1.11,2.13,2.58,2.91,1.4,.75,3.35,1.28,5.66,1.28,2.42,0,5.23-.58,8.22-2.08,8.5-4.25,15.65-15.48,16.28-25.56,.6-9.64-4.51-15.52-4.57-15.58-.05-.05-.13-.06-.18-.02Zm-6.06,5.67s.09-.09,.15-.11c.04-.01,.07-.05,.09-.09,.03-.11,.15-.19,.25-.19h0c.19,0,.36,.04,.54,.13,.14,.07,.27,.18,.39,.34,.19,.25,.25,.61,.18,.98-.02,.08-.09,.14-.15,.17-.08,.03-.16,.03-.25-.02-.22-.11-.4-.28-.59-.45-.09-.09-.19-.17-.29-.25-.08-.06-.15-.1-.22-.14-.06-.03-.09-.09-.11-.13-.02-.08-.02-.17,.02-.24Zm-18.19,33.26h0Zm-.31-2.1c-.09,.09-.23,.08-.33,.03-.1-.05-.2-.09-.31-.14-.15-.06-.29-.13-.42-.2-.02-.01-.04-.02-.07-.02h-.04s-.03,0-.05,0c-.03,0-.05,0-.06,0l-.09-.04c-.07-.04-.11-.12-.12-.16-.02-.05,0-.14,.03-.2,.03-.05,.1-.11,.14-.12,.02,0,.04-.01,.06-.02,.03-.02,.06-.04,.09-.04,.06-.02,.14,0,.19,.02,.02,.01,.04,.02,.07,.02,.14,0,.27,.02,.38,.05,.26,.08,.46,.26,.58,.48,.06,.12,.05,.24-.04,.34Zm-.56,2.43s.06-.12,.15-.14c.04,0,.08-.04,.1-.08,.03-.07,.07-.13,.12-.15,.15-.09,.29,0,.39,.13l.02,.03,.05,.07s.07,.05,.1,.05c.51,.12,1.01,.34,1.41,.64,.53,.39,.79,.79,.77,1.19,0,.09-.05,.17-.12,.23-.06,.05-.15,.06-.23,.04-.59-.15-1.12-.48-1.66-1.03-.02-.02-.04-.03-.07-.04-.1-.02-.18-.05-.25-.07-.34-.13-.6-.33-.78-.62-.04-.06-.04-.16,0-.24Zm9.07-5.47c-2.72,.52-4.89-.13-6.47-1.93-3-3.43-2.97-10.14-1.79-13.66,2.09-6.23,6.09-10.12,10.7-10.41,.18-.01,.35-.02,.53-.02,1.96,0,3.78,.7,5.27,2.04,1.91,1.71,3.13,4.35,3.26,7.07,.23,4.76-2.27,15.15-11.51,16.91Z" fill="#fff"/><path d="M114.51,47.86c-2.77-4.84-7.02-19.58-7.06-19.73-.01-.04-.04-.07-.07-.08-.03-.02-.07-.02-.11,0l-1.76,.65-1.09-2.95c-.02-.06-.07-.09-.14-.09-1.66,.11-4.15,3.32-4.25,3.45-.03,.04-.04,.1,0,.15,.32,.55,1.16,2.1,1.11,2.73,0,.03,0,.04,0,.04-.19,.09-1.21-.68-2.19-1.64-.04-.04-.11-.05-.16-.02l-1.73,1.03s-.07,.08-.06,.13l.2,1.63c-.62,.02-2.91,.17-3.16,1.34-.25,1.14,.34,17.47,.46,20.72-1.22-2.07-6.16-10.51-6.63-12.14-.52-1.83,.32-5.29,.32-5.33,.02-.07-.02-.13-.08-.16l-1.73-.65c-.06-.02-.12,0-.16,.05-.85,1.2-3.23,4.33-4.11,4.37-.48,.02-.9-.14-1.27-.29-.49-.19-.95-.37-1.39-.06-.46,.32-.18,1.37,.1,2.38,.13,.46,.31,1.16,.25,1.27-.31,0-1.22-1.67-1.87-3.21-.02-.05-.07-.08-.12-.08h-1.73s-.07,.01-.1,.04c-.03,.03-.04,.06-.04,.1,0,.09,.18,8.87,2.16,18.38,1.98,9.51,5.91,18.61,5.95,18.7,.02,.04,.05,.07,.09,.08,.22,.06,.43,.09,.64,.09,1.99,0,3.02-2.73,3.03-2.76,.01-.04,0-.08-.01-.12-.58-.96-1.34-2.61-.9-2.95,.1-.07,.19-.09,.29-.07,.41,.1,.83,.87,.96,1.15,.02,.05,.07,.08,.12,.08h2.91s.08-.02,.1-.05,.04-.07,.03-.11l-1.35-10.21,8.58,7.95s.1,.05,.15,.02l1.62-.76c.06-.03,.09-.1,.07-.16-.21-.63-.67-2.41-.33-3.08,.07-.14,.16-.17,.22-.18,.42-.06,1.19,.67,1.45,.96,.04,.04,.1,.06,.16,.03s.08-.08,.07-.14c-.86-5.13,.58-14.83,.91-16.91,1.84,3.29,11.13,15.6,11.54,16.15,.04,.05,.11,.07,.17,.04l3.18-1.78s.06-.05,.07-.09c0-.04,0-.08-.02-.11l-1.59-2.31,1.01-.63s.06-.06,.06-.1l.13-1.06,1.92,1.48s.07,.03,.11,.02c.04,0,.07-.04,.09-.07l1.78-3.62s.02-.09,0-.13c-.04-.06-4.03-6.53-6.8-11.39Zm-18.16,16.86h0l.11,.08s.03-.04,.04-.06c.02-.07,.06-.12,.11-.15,.17-.09,.43-.18,.71-.1,.44,.13,.68,.56,.78,.8,.18,.42,.26,.8,.23,1.14,0,.1-.05,.17-.11,.22-.06,.05-.15,.07-.25,.05-.35-.06-.66-.29-.95-.69-.06-.09-.12-.17-.17-.26-.04-.06-.08-.12-.12-.19-.02-.03-.05-.07-.08-.12h0l-.02-.03c-.06-.08-.13-.15-.2-.21-.05-.05-.07-.11-.07-.16,0-.08,.03-.17,.08-.22l-.09-.1Zm-13.27-17.32c-.07,.06-.19,.1-.3,.03-.69-.44-1.05-1.18-1.24-1.73-.05-.14,.06-.28,.19-.32,.01,0,.03-.01,.04-.02,.04-.03,.09-.05,.15-.05,.08,0,.16,.03,.21,.08,.43,.37,.77,.94,1.04,1.74,.04,.11-.02,.21-.1,.27Z" fill="#fff"/><path d="M145.41,41.49c.98-1.01,6.18-6.89,3.37-15.18-2.05-6.06-9.39-7.98-18.69-4.91-9.03,2.98-16.76,12.21-16.84,12.31-.02,.03-.04,.07-.03,.11l.34,2.07c.01,.07,.07,.12,.14,.11,1.3-.07,3.2,.02,3.32,.42,.14,.43-.92,1.45-1.62,1.99-.06,.04-.07,.13-.03,.18l1.2,1.66c.04,.05,.11,.07,.17,.04,1.39-.71,2.71-1.19,2.88-1.07,.03,.16-.49,.86-.87,1.37-.84,1.13-1.64,2.2-1.13,2.59,.68,.51,3.29-1.69,4.13-2.42l6.02,20.55-1.39,2.08s-.03,.09,0,.14c.02,.04,.07,.07,.12,.07h2.21l-2.48,3.83s-.03,.1,0,.14,.07,.07,.13,.07l4.03-.31,.59,1.11s.06,.07,.1,.07h.01s.08-.02,.1-.05l.92-1.08c.61-.18,8.01-2.37,12.74-5.59,5.03-3.42,6.8-9.59,6.78-13.84-.01-3.92-5.12-6.05-6.23-6.46Zm-9.26,16.1l-.87-4.73c.7-.34,5.24-2.45,6.78-1.68,.25,.13,.4,.32,.46,.6,.6,3.11-5.34,5.43-6.36,5.81Zm-2.67-14l-1.69-10.99c.58-.32,4.19-2.17,6.33-1.24,.75,.33,1.24,.97,1.46,1.92,.98,4.13-4.98,9.37-6.1,10.32Zm-12.98-6.82c-.03-.08-.03-.16,.01-.24,.16-.28,.41-.51,.79-.74,.1-.06,.2-.12,.3-.17,.15-.08,.29-.16,.43-.25,.02-.01,.03-.03,.04-.05,.05-.09,.14-.14,.24-.14,.02,0,.04,0,.07,0,.13,.03,.2,.17,.19,.31,0,.03,0,.07,0,.09,0,.03-.02,.05-.04,.08,0,.01-.02,.02-.02,.04-.14,.41-.32,.73-.56,.96-.35,.34-.83,.45-1.26,.29-.1-.04-.15-.08-.18-.16Zm-1.93-2.5c-.3,.14-.58,.18-.9,.12-.09-.02-.19-.15-.19-.24,.06-.58,.47-1.01,.8-1.27,.48-.37,.96-.59,1.44-.63h.02s.07,.01,.11,.03c.05,.03,.11,.03,.16,0l.05-.04s.07-.06,.11-.08c.06-.04,.12-.04,.16-.03,.08,.02,.16,.07,.2,.14,.08,.13,0,.29-.11,.37-.02,.01-.04,.03-.07,.05l-.03,.02s-.01,.01-.02,.02c-.05,.04-.1,.09-.15,.14-.1,.1-.2,.2-.29,.3h0l-.15,.17c-.15,.16-.3,.32-.45,.47-.18,.17-.42,.38-.69,.5Z" fill="#fff"/><path d="M164.01,18.34c-.01-.06-.06-.1-.12-.11-.29-.02-1.11-.17-1.18-.54-.06-.37-.43-.72-.85-.81-.33-.07-.62,.03-.79,.29-.35,.52-.5,.6-1.61,1.06-1.07,.45-.37,3.85-.13,4.84-.81-.42-1.77-2.86-2.1-3.83-.01-.04-.04-.07-.08-.08-.04-.01-.08-.01-.12,.01l-4.91,2.97c-.05,.03-.08,.09-.06,.15,.01,.05,1.14,4.63,3.15,12.43,2.02,7.8,8.81,26.81,8.88,27,.01,.03,.04,.06,.07,.08,.02,0,.04,.01,.05,.01s.04,0,.05-.01l2.81-1.21c.07-.03,.1-.11,.07-.18,0-.01-.56-1.31-1.11-2.7-.42-1.07,.56-1.83,.93-2.06,.26,.57,1.25,2.64,2.36,2.81,.24,.04,.45,.07,.63,.11,.78,.14,1.17,.21,1.44-.16,.29-.38-.85-4.44-1.36-6.21,.32-1.84-4.95-28.45-6.03-33.87Zm2.81,33.58v-.04s-.03-.05-.04-.08c-.02-.07,0-.13,.01-.17,.04-.07,.11-.13,.18-.16,.02,0,.04-.01,.07-.01,.1,0,.17,.07,.19,.09,0,0,.01,.01,.02,.02,.07,.05,.12,.14,.12,.22h.13l-.14,.03s0,.05,.01,.07v.03l.11,.23c.07,.16,.14,.33,.2,.5,.15,.41,.19,.77,.12,1.11,0,.05-.04,.09-.09,.13-.07,.05-.17,.06-.25,.05-.52-.1-.65-.66-.68-.99-.02-.23,0-.45,.01-.69,0-.1,.01-.2,.02-.3,0-.02,0-.04,0-.05Zm-7.03-22.4c-.04,.07-.12,.11-.16,.12-.03,0-.06,.01-.11,0-.03,0-.06-.01-.09-.03-.06-.03-.1-.09-.13-.17-.03-.09-.06-.18-.1-.27-.03-.08-.07-.17-.1-.25-.02-.06,0-.13,.03-.21,.04-.07,.12-.11,.16-.12,.02,0,.03,0,.05,0,.02,0,.04,0,.06,0,.03,0,.06,.01,.09,.03,.06,.03,.1,.09,.13,.17,.03,.09,.07,.18,.1,.27,.03,.08,.07,.17,.09,.25,.02,.06,0,.13-.03,.21Zm-3.56-5.29c0-.1,0-.21,.01-.31,0-.09,.05-.16,.09-.19,.04-.04,.05-.13,.02-.18-.03-.08-.09-.26,.09-.38,.03-.02,.08-.03,.13-.03,.03,0,.06,0,.09,.01,.07,.02,.12,.06,.14,.11l.08,.17c.27,.6,.55,1.21,.49,1.85h0c-.01,.14-.1,.28-.26,.28h0c-.25,0-.46-.07-.61-.2-.11-.1-.19-.25-.23-.41-.05-.23-.04-.46-.03-.71Z" fill="#fff"/><path d="M199.15,42.89c-.35-.98-.82-1.13-1.2-1.25-.26-.08-.44-.14-.57-.43-.17-.39-.05-1.06,.07-1.65,.12-.62,.22-1.16,0-1.44-.13-.16-.31-.39-5.88,3.32-2.32,1.55-4.64,3.15-5.26,3.59l-2.51-10.65,11.02-5.52c.06-.03,.09-.1,.07-.17l-.97-2.48,1.18-.5s.08-.07,.08-.12v-3.25s-.02-.09-.06-.11c-.04-.03-.08-.03-.13-.01l-2.86,1.16-.59-.93c-.04-.06-.12-.08-.18-.04-2.96,1.74-7.86,4.44-8.42,4.25-.52-.17-.51-1.98-.38-3.13l12.55-6.83s.07-.07,.07-.12v-2.97c0-.07-.06-.13-.13-.13h-2.1l1.91-2s.05-.1,.03-.15c-.02-.05-.07-.08-.12-.08h-2.13l1.84-1.52s.05-.07,.05-.11l-.09-2.5s-.02-.08-.06-.1c-.03-.02-.08-.03-.12-.02-.54,.15-13.13,3.7-14.35,6.41-.11,.24-.13,.48-.06,.7-1.64,.78-11.65,5.66-11.65,7.58,0,1.16,.54,1.85,.98,2.42,.32,.41,.6,.77,.6,1.2,0,.5-.52,.82-.97,1.1-.35,.22-.65,.41-.69,.67-.02,.12,.02,.24,.12,.36,.19,.22,.43,.45,.67,.68,.41,.39,.88,.84,.88,1.09,0,.12-.09,.31-.19,.53-.25,.54-.58,1.28-.17,2.04,.03,.06,.12,.09,.18,.05l3.2-1.69,1.16,3c-.49,.31-2.67,1.72-2.85,2.69-.04,.19,0,.36,.11,.5,.35,.45,.37,1.09,.39,1.6,.02,.49,.03,.96,.43,.96h.9c-.18,.44-.5,1.52,.19,2.45,.77,1.02,2.26,.36,2.73,.11l3.99,10.7c-.32,.22-1.27,.9-1.27,1.44s.75,1.09,1.48,1.62c.11,.08,.23,.17,.33,.25,.34,.26,.31,1.21,.29,1.98-.03,.83-.05,1.49,.29,1.65,.03,.02,.07,.02,.11,.02,.48,0,1.57-1.05,4.06-3.53,1.14-1.14,2.43-2.42,3.67-3.57,1.25-1.15,3.03-2.44,4.75-3.7,3.2-2.33,5.96-4.34,5.57-5.44Zm-18.38,11.06c-.07-.07-.1-.18-.07-.25,.17-.51,.52-.94,.93-1.16,.03-.01,.06-.05,.07-.08l.07-.14c.03-.06,.09-.09,.13-.11,.03,0,.06-.01,.09-.01,.05,0,.1,.01,.15,.03,.13,.07,.15,.25,.09,.37l-.06,.12c-.11,.23-.23,.46-.37,.66-.08,.12-.19,.26-.31,.36-.14,.12-.29,.21-.47,.28-.08,.03-.19-.01-.25-.07Zm7.98-39.46c0-.62,.59-1.17,1.25-1.18,.04,0,.11,.02,.16,.06,.01,.01,.03,.02,.05,.02,.03,0,.05,.01,.06,.02,.05,.03,.1,.09,.12,.16,.02,.07,0,.15-.02,.2-.31,.46-.76,.8-1.28,.98-.07,.02-.15,0-.21-.04-.07-.05-.12-.14-.12-.22Zm-.18,11.24h0c.14-.53,.64-.81,1.13-1.07,.08-.04,.15-.08,.23-.12,.02-.01,.04-.02,.07-.03,.02,0,.03-.01,.05-.02,.04-.03,.09-.05,.16-.05,.04,0,.09,.01,.14,.04,.05,.03,.1,.09,.12,.16,.02,.06,0,.16-.03,.21-.41,.58-.88,1.23-1.6,1.24h0c-.08,0-.15-.04-.2-.1-.05-.07-.07-.16-.05-.24Zm-4.74,24.66s0,.06-.02,.09v.02s-.03,.05-.06,.08c-.04,.04-.11,.07-.2,.08h-.03s-.02,.01-.03,.02c-.02,.01-.04,.02-.07,.04-.04,.04-.09,.08-.13,.12-.05,.05-.11,.08-.2,.08-.07,0-.15-.05-.19-.08-.02-.02-.04-.04-.06-.09-.01-.03-.02-.06-.02-.1,0-.03,0-.06,.03-.11,0-.03,.02-.05,.05-.08,.07-.07,.16-.16,.27-.23,.05-.03,.11-.06,.18-.08,.06-.02,.12-.03,.2-.03h0c.08,0,.15,.04,.19,.08,.06,.06,.07,.14,.07,.19Z" fill="#fff"/><path d="M212.86,37.08c3.08,.56,5.74,1.05,6.69,2.22,2.18,2.69-5.51,10.27-5.58,10.34-.04,.03-.05,.09-.03,.13,.01,.05,.05,.08,.1,.09l1.64,.34s.08,0,.11-.02c1.5-1.14,3.17-2.31,3.66-2.5-.18,.33-1,1.23-1.76,1.96-.04,.04-.05,.1-.03,.15,.02,.05,.07,.08,.12,.08h3.12l.63,1.79s.06,.08,.1,.09h.02s.08-.02,.1-.05c.07-.09,7.35-8.96,7.61-15.36,.29-7.05-3.99-8.15-5.4-8.51-.38-.1-.93-.19-1.57-.29-2.86-.45-7.65-1.22-8.18-4.63-.65-4.17,9.7-13.33,9.81-13.42,.04-.04,.06-.09,.04-.15l-.8-2.24s-.05-.08-.1-.09c-.05,0-.09,0-.13,.04-.78,.86-1.78,1.76-2.01,1.74-.1-.16,.27-1.24,.82-2.37,.02-.04,.02-.08,0-.12s-.05-.06-.09-.07l-2.11-.53v-1.75c0-.06-.04-.11-.09-.13-.05-.02-.11,0-.15,.04-.59,.73-1.69,1.86-2.13,1.81-.04,0-.08-.02-.12-.1-.26-.57,1.36-2.34,2.45-3.33,.03-.03,.05-.07,.04-.11,0-.04-.03-.08-.06-.1L216.58,.02c-.05-.03-.12-.03-.16,.01-.1,.09-10.44,9.39-13.63,14.91-4.33,7.49-4.78,13.41-1.33,17.58,2.41,2.91,7.19,3.78,11.41,4.55Zm3.4-27.26c.07-.75,.49-1.52,1.25-2.28,.05-.05,.12-.08,.18-.08,.07,0,.15,.03,.2,.08,.03,.03,.05,.07,.06,.12,0,.02,0,.03,.02,.04,.03,.05,.05,.11,.06,.16,.04,.45-.2,.92-.41,1.24-.3,.46-.62,.78-.95,.93-.11,.05-.2,.05-.28,0-.08-.05-.14-.15-.13-.22Zm5.55,35.27h.03v.03l-.03-.03h0Zm.09,.08s.03-.01,.04-.02h0l.02-.02h0c.15-.2,.3-.37,.49-.52,0,0,.02-.01,.03-.02l.03-.03c.06-.04,.13-.04,.2-.02,.04,0,.07,.03,.11,.07l.03,.03,.02,.02s.03,.07,.03,.13c0,.39-.16,.82-.42,1.17-.17,.22-.33,.38-.52,.51-.18,.12-.39,.19-.64,.21-.09,0-.15-.05-.18-.09-.06-.07-.09-.18-.06-.25,.09-.29,.27-.52,.43-.72,.06-.07,.12-.13,.17-.2l.1-.11s.09-.1,.13-.15h-.01Z" fill="#fff"/><path d="M193.15,99.41s-.14-.77-.27-1.58c-.1-.62,.52-.91,.74-.99,.07,.34,.35,1.56,.93,1.79,.12,.05,.23,.09,.33,.13,.4,.17,.6,.25,.79,.09,.2-.17,.08-2.48,.01-3.49,.39-.95,.75-15.83,.82-18.85,0-.03-.02-.06-.05-.07-.15-.05-.58-.22-.57-.43s-.14-.43-.36-.53c-.17-.08-.33-.06-.46,.06-.25,.24-.34,.26-.99,.38-.63,.11-.66,2.02-.65,2.58-.38-.32-.61-1.74-.66-2.3,0-.02-.01-.04-.03-.05-.02-.01-.04-.01-.06,0l-2.99,1s-.05,.04-.05,.07c0,.03,.05,2.62,.2,7.03,.15,4.42,1.51,15.41,1.52,15.52,0,.02,.01,.04,.03,.05,.01,0,.03,.01,.04,.01h.01l1.65-.31s.07-.05,.06-.09Zm-1.36-20.31s.04-.08,.09-.11c.02-.02,.06-.02,.09-.02,.02,0,.04,0,.06,0,.04,0,.09,.05,.11,.09,.02,.04,.03,.09,.02,.17,0,.08,0,.16,0,.25,.01,.09,.03,.15,.05,.21,.01,.04,0,.1-.02,.15-.03,.05-.09,.08-.12,.09-.04,.01-.1,0-.15-.02-.05-.03-.08-.08-.09-.12h0c-.07-.22-.09-.46-.04-.69Zm.69,16.43c-.01,.06-.06,.1-.09,.11-.02,.01-.04,.02-.08,.02-.02,0-.05,0-.07,0-.05-.01-.09-.04-.12-.09-.03-.04-.05-.09-.07-.15-.01-.03-.02-.06-.02-.09-.01-.08-.02-.16-.02-.26,0-.05,.02-.1,.06-.14,.04-.04,.1-.05,.14-.06h0s.1,.02,.13,.06c.03,.03,.06,.09,.06,.14s0,.09,0,.15c0,.03,.01,.07,.03,.1v.02s.02,.03,.03,.04c.02,.04,.03,.09,.02,.15Zm1.18,.26v-.54c0-.05,.02-.1,.06-.14,.04-.04,.1-.05,.14-.06h0s.1,.02,.13,.06c.03,.03,.06,.09,.06,.14v.54c0,.05-.02,.1-.06,.14-.04,.04-.1,.05-.14,.06-.04,0-.1-.02-.13-.06-.03-.03-.06-.09-.06-.14Z" fill="#fff"/><path d="M279.75,75.97l-1.1-.22,1.11-.6s.03-.03,.04-.05l.21-1.31s0-.04-.02-.06c-.01-.02-.04-.03-.06-.02-.29,.02-7.18,.58-8.09,1.86-.08,.12-.12,.24-.1,.36-.93,.24-6.61,1.75-6.81,2.74-.12,.6,.09,1.02,.26,1.35,.12,.25,.23,.46,.19,.68-.05,.26-.35,.37-.62,.47-.2,.08-.38,.14-.43,.28-.02,.06-.01,.13,.03,.2,.08,.13,.18,.28,.28,.42,.17,.25,.37,.52,.34,.65-.01,.06-.08,.15-.15,.25-.18,.26-.43,.61-.3,1.04,.01,.04,.05,.06,.09,.05l1.83-.55,.29,1.67c-.29,.11-1.56,.62-1.75,1.11-.04,.1-.04,.19,0,.27,.13,.27,.08,.6,.04,.87-.04,.26-.08,.5,.12,.54l.47,.09c-.14,.21-.41,.74-.15,1.29,.29,.61,1.13,.42,1.4,.34l.98,5.95c-.19,.08-.75,.34-.8,.62-.06,.28,.28,.64,.6,.99,.05,.06,.1,.11,.15,.16,.15,.17,.04,.66-.05,1.05-.1,.43-.18,.77-.02,.89,.02,.02,.06,.03,.1,.03,.28,0,.96-.44,2.42-1.42,.71-.47,1.51-1.01,2.27-1.47,.76-.47,1.82-.96,2.84-1.43,1.9-.88,3.53-1.64,3.44-2.25-.08-.54-.31-.67-.49-.77-.12-.07-.21-.12-.25-.28-.05-.22,.08-.56,.2-.85,.13-.31,.23-.58,.15-.74-.05-.1-.12-.23-3.39,1.12-1.36,.56-2.73,1.16-3.09,1.32l-.22-5.77,6.27-1.74s.06-.05,.05-.08l-.25-1.38,.66-.14s.05-.03,.05-.06l.33-1.68s0-.05-.02-.06-.04-.02-.06-.02l-1.6,.31-.21-.54s-.05-.05-.09-.04c-1.71,.6-4.52,1.5-4.8,1.35-.25-.14-.06-1.08,.12-1.66l7.2-2.26s.04-.03,.05-.05l.3-1.54s-.02-.08-.06-.08l-1.09-.21,1.2-.84s.03-.05,.03-.07c0-.03-.03-.05-.06-.05Zm-3.64,6.86s-.02,.09-.05,.13c-.04,.04-.09,.07-.15,.07-.07,0-.13,0-.2,.01-.15,.02-.29,.06-.43,.12-.04,.02-.1,0-.15-.02-.05-.03-.08-.09-.09-.12-.01-.04,0-.11,.02-.15,.02-.04,.06-.07,.13-.09,.23-.09,.47-.14,.72-.14h0c.11,0,.19,.09,.2,.2Zm-5.41,12.57s-.02,.09-.05,.13c-.04,.04-.09,.07-.15,.07-.09,0-.18,0-.29,.02-.16,.02-.3,.06-.42,.11-.04,.02-.11,0-.15-.02-.05-.03-.08-.09-.09-.12-.01-.04,0-.11,.02-.15,.02-.04,.06-.07,.13-.09,.23-.09,.5-.14,.81-.14h0c.11,0,.19,.09,.2,.2Z" fill="#fff"/><path d="M249.05,111.05c-.36,.22-1.37-.1-1.72-.24-.02,0-.05,0-.07,0-.02,.01-.03,.04-.03,.06,.02,.22,0,.35-.04,.41-.03,.03-.08,.04-.16,.04-.1,0-.23,.02-.35,.11-.23,.16-.22,.47-.21,.71,0,.13,0,.26-.03,.31-.04,.05-.23-.02-.38-.07-.2-.07-.43-.15-.6-.09-.24,.08-.32,.38-.38,.58-.02,.06-.04,.15-.04,.16-.05,0-.19-.08-.28-.13-.12-.07-.23-.13-.3-.15-.1-.01-.2,.06-.31,.14-.1,.07-.22,.16-.3,.15-.02-.05,.09-.28,.14-.37,.06-.12,.1-.2,.11-.25,.01-.1-.07-.18-.17-.28-.1-.1-.21-.22-.23-.34,.06-.07,.56-.01,1.07,.12,0,0,.02,0,.03,0,.06,0,.63-.1,.72-.4v-.04c.26-.86,.32-1.29,.22-1.43-.04-.05-.13-.14-.24-.25-.51-.51-.75-.8-.7-.87,.12-.12,.64,.28,.9,.47l.12,.09c.35,.26,1.03,.31,1.05,.31,.02,0,.04,0,.05-.02,.01-.01,.02-.03,.02-.05,0-.44-.3-.93-.8-1.33-.56-.45-2.23-1.42-5.53-.75-4.3,.88-8.86,5.15-10.84,10.15-2.33,5.91,0,10.4,.02,10.45,.58,1.1,1.52,1.41,1.76,1.48,.02,.58,.44,1.2,1.16,1.72,.89,.64,2.28,1.14,4.02,1.14,1.02,0,2.15-.17,3.38-.6,4.79-1.65,9.35-7.09,10.39-12.37,.99-5.05-1.3-8.52-1.33-8.55-.02-.03-.06-.04-.1-.02Zm-3.58,8.6c-.21,2.53-2.26,7.85-7.26,8.14-1.47,.09-2.58-.41-3.28-1.47-1.35-2.02-.86-5.57,0-7.34,1.47-3.01,3.72-4.77,6.06-4.77,.11,0,.21,0,.32,.01,1.15,.08,2.17,.59,2.93,1.47,.89,1.03,1.35,2.52,1.23,3.97Zm-12.91,10.04s.05-.04,.05-.07c0-.06,.02-.12,.05-.15,.18-.14,.33-.24,.53-.26,.01,0,.03,0,.04,0,.1,0,.21,.04,.3,.12,.07,.07,.13,.17,.18,.31,.06,.2,.08,.42,.1,.63v.1c.01,.06-.04,.13-.09,.16-.06,.03-.12,.03-.21,0-.32-.14-.65-.3-.98-.49-.1-.06-.12-.18-.07-.27,.02-.05,.07-.07,.1-.08Zm.15-1.15c-.03,.05-.09,.08-.12,.09-.02,0-.05,0-.08,0-.02,0-.04,0-.07-.02-.02-.01-.04-.03-.06-.05,0,0,0-.02-.02-.04,0,0-.02-.02-.02-.03h-.02s-.04-.04-.07-.05h-.02s-.04-.02-.06-.03c-.03,0-.06-.03-.08-.04l-.04-.05s-.03-.09-.02-.15c0-.02,.02-.04,.04-.07,.01-.02,.03-.03,.05-.05,.02-.01,.04-.02,.08-.02,.02,0,.05,0,.08,0,.03,.01,.06,.02,.11,.04,.04,.02,.09,.04,.13,.06,.03,.02,.06,.04,.08,.06,0,0,.02,.02,.03,.02,.02,.03,.04,.05,.06,.08,.02,.03,.03,.06,.04,.1,.01,.04,0,.1-.02,.15Zm13.61-14.58h-.01c-.04-.05-.05-.12-.06-.15,0-.04,.02-.1,.06-.14,.03-.03,.1-.06,.13-.06,.13,.02,.23,.04,.32,.1,.06,.05,.1,.08,.14,.14,.03,.04,.05,.09,.06,.13,.05,.16,.03,.35-.07,.6h0s-.05,.05-.1,.07c-.02,.01-.05,.01-.06,.02h-.06c-.09-.05-.16-.08-.21-.14-.06-.07-.1-.14-.11-.21-.02-.09-.02-.19,0-.3,0-.03,0-.05-.03-.07Z" fill="#fff"/><path d="M206.58,110.48s-.05,0-.07,0c-.51,.36-1.13,.71-1.25,.67-.03-.1,.29-.62,.7-1.14,.01-.02,.02-.04,.01-.06,0-.02-.02-.04-.04-.05l-1.04-.52,.2-.91s0-.06-.03-.08-.06-.01-.08,0c-.4,.31-1.11,.77-1.32,.69-.02,0-.04-.02-.05-.07-.07-.33,.98-1.06,1.67-1.45,.02-.01,.03-.03,.04-.05,0-.02,0-.04-.02-.06l-1.34-1.4s-.06-.03-.09-.01c-.07,.04-6.54,3.68-8.85,6.18-3.14,3.4-4.06,6.43-2.75,9.01,.91,1.8,3.31,2.81,5.42,3.71,1.54,.65,2.87,1.22,3.23,1.94,.82,1.66-4.07,4.71-4.12,4.74-.02,.01-.04,.04-.03,.07s.02,.05,.04,.06l.82,.37s.04,0,.06,0c.91-.42,1.93-.83,2.2-.88-.13,.15-.66,.52-1.15,.82-.02,.02-.04,.04-.03,.07s.03,.05,.06,.06l1.63,.37,.12,1.01s.02,.05,.04,.06c0,0,.02,0,.03,0,.02,0,.03,0,.04-.01,.05-.04,4.88-3.81,5.77-7.12,.98-3.64-1.13-4.72-1.82-5.07-.19-.1-.47-.21-.79-.33-1.44-.57-3.85-1.53-3.72-3.37,.15-2.25,6.62-5.81,6.69-5.85,.03-.01,.04-.04,.04-.07l-.16-1.26s-.02-.05-.04-.06Zm-4.15,.16h0c.03-.08,.06-.15,.11-.21,.06-.08,.1-.13,.15-.18,.1-.09,.21-.17,.32-.23,.04-.02,.07-.03,.11-.03,.02,0,.03,0,.05,0,.06,.01,.1,.06,.12,.09,.02,.03,.03,.1,.02,.14,0,.03,0,.06,.03,.07h.02s.06,.1,.06,.15-.02,.1-.06,.14c-.08,.08-.18,.18-.31,.23-.04,.02-.07,.03-.11,.04-.04,.01-.09,.02-.13,.02-.08,0-.16,0-.23-.02-.04,0-.08-.04-.11-.09-.02-.04-.03-.11-.02-.14Zm-1.25,19.41s0-.02,0-.02c-.01-.09,.05-.19,.14-.22h.04c.08-.03,.16-.05,.23-.05h0c.11,0,.22,.04,.31,.11,.05,.04,.07,.06,.09,.1,.02,.04,.02,.08,0,.13h0c-.02,.14-.08,.29-.17,.44-.08,.14-.19,.27-.32,.4-.05,.05-.12,.07-.19,.05-.06-.02-.12-.07-.14-.13-.05-.27-.05-.54,0-.81Z" fill="#fff"/><path d="M204.84,76.6s-.06-.04-.09-.03l-1.35,.56s-.04,.04-.04,.06c-.02,.5-.14,1.25-.33,1.28-.27,.04-.81-.06-.99-.1l-.05-1.46s-.02-.05-.04-.06c-.03-.01-.06,0-.08,.01l-.98,.93-1.8,.51s-.05,.04-.05,.07c0,.05,.36,5.21,.77,10.3,.83,10.37,1.08,10.39,1.21,10.41,.04,0,.08,0,.12,0,.55,0,1.56-.33,1.6-.35,.02,0,.03-.02,.04-.04l.76-1.66,.35,1.48s.04,.06,.08,.06l1.07-.11s.06-.03,.06-.07v-8.33l7.64,7.14s.07,.03,.09,0l1.35-1.13s.03-.03,.03-.06v-1.4l1.3,.73s.05,.01,.08,0l.84-.62s.03-.04,.03-.07c-.01-.1-1.41-10.25-1.41-11.97,0-1.01,.15-2.37,.28-3.46,.09-.8,.17-1.5,.17-1.88,0-.84-.9-1-1.14-1.02l-.27-1.19s-.04-.06-.07-.06h-.67s-.07,.03-.07,.07c-.01,.43-.11,1.6-.43,1.86-.05,.04-.1,.05-.16,.04-.46-.08-.48-1.15-.45-1.56,0-.02,0-.04-.02-.05s-.03-.02-.05-.02h-1.46s-.07,.03-.07,.07v1.08c-.24,.13-1.44,.83-1.18,2.14,.06,.31,.14,.67,.22,1.05,.28,1.32,.62,2.97,.62,3.66s-.07,2.02-.1,2.57l-5.34-9.41Zm-1.62,17.09v.4c0,.05-.02,.1-.06,.14-.04,.04-.11,.05-.14,.06-.05,0-.1-.02-.14-.06-.04-.03-.06-.09-.06-.14v-.4c0-.05,.02-.1,.06-.14,.04-.04,.11-.05,.14-.06h0s.1,.02,.13,.06c.04,.04,.06,.09,.06,.14Zm-1.33,3.62v-.4c0-.05,.02-.1,.06-.14,.04-.04,.11-.05,.14-.06h0s.1,.02,.13,.06,.06,.09,.06,.14v.4c0,.05-.02,.1-.06,.14-.04,.04-.11,.05-.14,.06-.05,0-.1-.02-.14-.06-.04-.03-.06-.09-.06-.14Zm9.85-18.28c-.04,.06-.1,.09-.17,.1-.01,0-.03,0-.04,.01-.04,.02-.07,.04-.11,.04-.04,0-.09-.02-.13-.05-.04-.04-.07-.09-.07-.15,0-.42,0-.81,.1-1.17,.01-.05,.05-.09,.1-.12,.03-.02,.06-.02,.09-.02,.02,0,.03,0,.05,0,.17,.06,.29,.18,.35,.35,.11,.32,0,.75-.18,1.01Z" fill="#fff"/><path d="M225.33,111.98c.09-.8,.17-1.5,.17-1.88,0-.84-.9-1-1.14-1.02l-.27-1.19s-.04-.06-.07-.06h-.68s-.07,.03-.07,.07c-.01,.43-.11,1.6-.43,1.86-.05,.04-.1,.05-.16,.04-.46-.08-.48-1.15-.45-1.56,0-.02,0-.04-.02-.05s-.03-.02-.05-.02h-1.46s-.07,.03-.07,.07v1.08c-.24,.13-1.44,.83-1.18,2.14,.06,.31,.14,.67,.22,1.05,.28,1.32,.63,2.97,.63,3.67s-.07,2.02-.1,2.57l-5.34-9.41s-.06-.04-.09-.03l-1.35,.56s-.04,.04-.04,.06c-.02,.5-.14,1.25-.33,1.28-.27,.04-.81-.06-.99-.1l-.05-1.46s-.02-.05-.04-.06-.06,0-.08,.01l-.98,.93-1.8,.51s-.05,.04-.05,.07c0,.05,.36,5.21,.77,10.3,.83,10.37,1.08,10.39,1.21,10.41,.04,0,.08,0,.12,0,.56,0,1.56-.33,1.6-.35,.02,0,.03-.02,.04-.04l.76-1.66,.35,1.48s.04,.06,.08,.06l1.07-.11s.06-.03,.06-.07v-8.33l7.64,7.14s.07,.03,.09,0l1.35-1.13s.03-.03,.03-.06v-1.4l1.3,.73s.05,.01,.08,0l.84-.62s.03-.04,.03-.07c-.01-.1-1.41-10.25-1.41-11.97,0-1.01,.15-2.37,.28-3.46Zm-3.65-.35h0c-.02,.06-.05,.1-.11,.12-.06,.03-.13,.02-.19,0-.16-.09-.26-.26-.28-.51,0-.1,0-.21,0-.32,0-.06,0-.13,0-.19,0-.09,.06-.16,.15-.18,.01,0,.03-.01,.03-.02,.03-.04,.06-.06,.1-.07,.02,0,.03,0,.05,0,.03,0,.06,0,.09,.02,.05,.03,.09,.07,.1,.12,.11,.4,.13,.74,.04,1.04Zm-10.09,18.01c0-.2,.04-.49,.2-.72,.05-.07,.11-.1,.17-.1s.14,.04,.17,.09c.09,.18,.13,.35,.13,.53s-.04,.35-.13,.53c-.02,.05-.06,.07-.1,.08-.06,.02-.12,.01-.17-.01-.06-.03-.11-.08-.13-.14,0,0,0-.01,0-.02v-.02s-.02-.03-.04-.04c-.06-.04-.1-.1-.1-.17Zm1.44-3.33c0,.21-.04,.42-.14,.62-.02,.05-.09,.09-.16,.09-.06,0-.12-.01-.15-.05-.08-.1-.12-.18-.15-.28-.02-.08-.04-.16-.04-.27,0-.17,.02-.34,.04-.51v-.04c0-.06,.02-.13,.06-.17,.03-.03,.09-.06,.14-.06s.09,.02,.14,.06c.2,.17,.24,.46,.25,.61Z" fill="#fff"/><path d="M229.06,78.86s0,.04,0,.06l.64,.9c-.2,.17-.87,.76-.84,1.2,0,.14,.09,.25,.22,.33,.37,.22,.76,.48,.8,.76,.02,.14-.05,.27-.19,.42-.53,.53-.09,1.93-.07,1.99,0,.02,.02,.04,.04,.04,.02,0,.04,0,.06,0l3.73-1.7c.01,.55,.07,3.11,.17,6.42,.11,3.73,1.34,9.41,1.35,9.46,0,.03,.04,.06,.07,.06h.28c.29,0,.59-1.11,.72-1.7,.27,.19,1.1,.77,1.44,.96,.41,.24,1.36,.02,1.4,0,.03,0,.05-.04,.06-.07l.11-17.27,5.02-1.78s.05-.04,.05-.07v-1.07s-.02-.06-.05-.07l-1.6-.52,1.84-1.16s.03-.04,.03-.06v-.84s0-.04-.02-.05l-1.52-1.39s-.05-.02-.07-.01l-13.61,5.1s-.04,.02-.04,.05Zm11.54-2.11s-.01,.07-.04,.11c0,0,0,.02-.01,.03,0,.04-.03,.07-.04,.09-.17,.14-.31,.22-.46,.27-.16,.06-.34,.06-.49,.01-.07-.02-.12-.07-.14-.14-.02-.07,0-.13,.06-.2,.19-.23,.53-.36,.94-.37h0c.11,0,.19,.09,.2,.2Zm-3.49,17.88c-.03,.07-.06,.11-.12,.13-.06,.02-.12,.02-.18-.01-.16-.08-.28-.25-.31-.46-.04-.22-.02-.44,0-.62,0-.03,.04-.08,.09-.11,.03-.02,.06-.02,.09-.02,.02,0,.04,0,.06,0,.04,0,.09,.05,.11,.09,.02,.03,.03,.07,.02,.12,0,.02,0,.04,.02,.06,0,0,.02,.01,.02,.01,.22,.23,.29,.54,.18,.81Z" fill="#fff"/><path d="M252.3,98.51l.73-.79s.02-.03,.02-.05l-.61-7.43c.38-.14,2.74-.99,3.57-.94l.22,6.52s.03,.06,.06,.07c.05,0,1.19,.2,1.75-.24,.19-.15,.29-.36,.3-.61,.04-.84,.45-1.26,.62-1.4l.53,1.87s.03,.06,.08,.05l1.24-.11s.06-.03,.06-.07l.56-8.41,.76-.65s.02-.03,.03-.05c.01-.13,.11-1.27,0-1.51-.02-.09,.47-.44,1.04-.71,.02-.01,.04-.04,.04-.06v-1.27s-.03-.07-.07-.07h-1.5l.67-8.19s-.01-.05-.03-.07c-.04-.02-.97-.59-1.2-.66-.12-.04-.3,.06-.6,.24-.31,.18-.69,.41-.92,.36-.44-.11-1.89-.6-1.91-.6-.02,0-.05,0-.07,.01-.02,.02-.03,.04-.02,.07,.1,.47,.3,1.75,.06,2.05-.03,.03-.06,.05-.1,.05-.42,0-.99-.99-1.17-1.37,0-.02-.03-.04-.05-.04l-.96-.17s-.04,0-.06,.02-.03,.03-.03,.06l.17,9.54-3.17,.94v-8.85s-.03-.07-.07-.07h-1.01s-.06,.02-.07,.06l-.16,.78-1.85-.16s-.04,0-.05,.02-.02,.03-.02,.05v1.23l-3.31,.17s-.04,.01-.05,.03c-.01,.02-.02,.04-.02,.05l2.53,20.31s.03,.06,.06,.06c.03,0,.06-.02,.07-.05,.16-.49,.47-1.19,.66-1.19,.12,0,.29,.36,.41,.62,.15,.33,.28,.62,.46,.62,.02,0,.04,0,.06-.01,.28-.11,.87-1.29,1.03-1.62l.53,.05,.66,1.54s.03,.04,.05,.04c.02,0,.05,0,.06-.02Zm6.72-21.14c0,.06-.04,.11-.06,.14-.06,.06-.21,.07-.28,0-.13-.13-.28-.28-.39-.45-.02-.04-.03-.09-.02-.15,.01-.06,.06-.1,.09-.12,.02-.01,.04-.02,.08-.02,0,0,.02,0,.03,0,.01,0,.03,0,.04,0,.05,.01,.09,.04,.12,.09l.03,.04c.09,.12,.2,.23,.3,.32,.04,.04,.06,.08,.06,.14Zm-1.05,1.33s.03-.01,.04-.02c.04-.05,.09-.07,.15-.08h0s.09,.02,.12,.05c.04,.04,.07,.09,.07,.15v.14s0,.02,0,.03c.03,.07,.05,.14,.06,.22,.02,.17-.03,.35-.07,.47h0c-.02,.05-.05,.09-.09,.12,0,0-.02,.01-.02,.02-.02,.03-.04,.05-.07,.07-.04,.03-.1,.03-.15,.02-.05-.01-.09-.05-.11-.08-.11-.22-.26-.64-.05-1.01,.03-.06,.08-.08,.12-.09Zm-7.95,14.84c0,.18-.06,.38-.15,.58v.02s-.05,.1-.1,.12c-.03,.02-.06,.03-.11,.03-.03,0-.06,0-.11-.03h-.03s-.03-.02-.05-.02c-.08-.02-.14-.1-.14-.19,0-.24,0-.53,.05-.82,0-.02,.01-.04,.03-.06,0,0,.01-.02,.01-.03,.01-.04,.04-.09,.09-.11,.03-.02,.07-.03,.1-.03,.02,0,.03,0,.05,0,.12,.04,.22,.11,.28,.22,.05,.09,.08,.2,.07,.32Z" fill="#fff"/><path d="M278.69,108.1c-.13-.26-.04-1.15,0-1.48,0-.02,0-.04-.02-.06s-.03-.02-.05-.02h-5.01s-.06,.02-.07,.05l-.32,1.35h-1.07s-.05,.02-.06,.04c0,.02-.9,1.89-.9,3.74,0,1.64-1.03,4.86-1.25,5.53-.86-1.22-2.64-8.07-2.66-8.14,0-.03-.03-.05-.06-.05l-2.25-.45s-.06,0-.08,.03l-4.85,8.54-1.15-7.06s-.03-.06-.06-.06c-.02,0-.53-.05-1.28,.29-.7,.32-.67,1.26-.66,1.76,0,.06,0,.11,0,.16,0,.19-.12,.29-.25,.31-.13,.02-.32-.05-.4-.33-.17-.58-1.17-1.14-1.21-1.17-.01,0-.03-.01-.04,0l-2.7,.28s-.04,.01-.05,.03c-.01,.02-.02,.04-.01,.06,.01,.06,1.14,5.78,2.42,8.57,1.28,2.78,3.96,10.93,3.99,11.01,0,0,0,.02,.02,.03,.02,.02,.44,.47,.82,.47h.04c.13-.01,.24-.08,.32-.2,.18-.27,.13-.63,.08-.92-.03-.18-.05-.36,0-.42,0,0,.02-.03,.08-.03,.32,0,.59,.69,.66,.96,0,.03,.03,.05,.06,.05,.03,0,.05,0,.07-.03,.02-.02,1.57-2.23,2.43-2.45,.87-.22,1.6-.11,1.6-.11,.02,0,.05,0,.06-.02,.02-.02,.02-.04,.02-.06,0-.03-.45-2.67-.46-5.05-.01-2.23,.86-4.77,1.31-5.19,.05-.05,.08-.06,.1-.05,.38,.02,.56,.78,1,4.24,.45,3.52,2.24,7.02,2.26,7.06,.02,.03,.06,.05,.09,.03l.96-.39s.03-.02,.04-.04c0-.02,0-.04,0-.06-.31-.72-.7-1.8-.57-1.98,.26,0,1.1,.95,1.57,1.55,.02,.02,.05,.03,.08,.02l4.5-1.24s.05-.03,.05-.07c0-.05,.28-5.17,.56-9.22,.28-4.04,3.06-8.47,3.08-8.52,.02-.02,.01-.06,0-.08,0,0-.62-.9-.78-1.23Zm-3.22-.06c-.01-.12,0-.24,0-.36,0-.07,0-.15,0-.22,0-.09,.06-.14,.1-.16,.01,0,.02-.01,.02-.03,.02-.03,.04-.06,.07-.07,.03-.02,.06-.02,.09-.02,.02,0,.04,0,.06,0,.05,.01,.09,.05,.11,.08,.25,.51,.28,.94,.09,1.28-.02,.04-.07,.08-.13,.09-.05,.01-.1,0-.13-.02-.1-.07-.17-.15-.21-.24-.04-.1-.07-.2-.08-.34Zm.41,2.37c0-.05,.02-.1,.06-.14,.04-.04,.11-.05,.14-.06h0s.1,.02,.13,.06c.04,.04,.06,.09,.06,.14v.54c0,.05-.02,.1-.06,.14-.04,.04-.11,.05-.14,.06h0s-.1-.02-.13-.06c-.04-.03-.06-.09-.06-.14v-.54Zm-6.23,15.08c-.02,.07-.09,.13-.16,.14-.08,.01-.15-.02-.2-.1-.17-.26-.28-.56-.33-.88-.01-.07,0-.12,.02-.16,.03-.05,.09-.08,.13-.09h.02s.04-.01,.05-.03c.01-.02,.03-.03,.05-.04,.09-.06,.21,0,.27,.08,.2,.31,.26,.71,.15,1.09Zm-11.46-11.3s0,.06,0,.1c0,.06-.01,.13-.01,.19,0,.08-.05,.15-.12,.18-.07,.03-.15,.02-.22-.05-.13-.11-.24-.25-.33-.38-.01-.02-.04-.03-.06-.03,0,0-.02,0-.02,0-.05,.02-.09,.02-.13,.01-.04,0-.09-.05-.11-.09-.02-.04-.03-.09-.02-.16,.03-.18,.12-.35,.24-.46,.07-.07,.16-.12,.23-.13,.11-.02,.21-.01,.33,.04,.08,.04,.14,.09,.17,.16,.04,.08,.05,.15,.06,.24,.02,.12,0,.25,0,.37Z" fill="#fff"/></svg>