<?xml version="1.0" encoding="UTF-8"?><svg id="b" xmlns="http://www.w3.org/2000/svg" viewBox="0 0 250 135"><path d="M29.37,0H0v12.8h9.03v40.11H0v10.97h32l13.03-10.51V12.8L29.37,0ZM27.2,43.43l-3.54,2.86v-21.83l3.54,1.83v17.14Z" fill="#fff" stroke-width="0"/><polygon points="48.69 2.86 74.97 2.86 74.97 17.03 68.11 17.03 68.11 13.03 61.83 13.03 61.83 20.34 65.71 20.34 65.71 30.63 61.83 30.63 61.83 33.37 68.23 33.37 68.23 30.17 74.97 30.17 74.97 44.23 48.69 44.23 48.69 2.86" fill="#fff" stroke-width="0"/><polygon points="134.84 2.86 161.12 2.86 161.12 16.52 154.26 16.52 154.26 12.66 147.98 12.66 147.98 19.71 151.86 19.71 151.86 29.63 147.98 29.63 147.98 32.27 154.38 32.27 154.38 29.19 161.12 29.19 161.12 42.74 134.84 42.74 134.84 2.86" fill="#fff" stroke-width="0"/><polygon points="95.38 14.9 95.38 20.88 101.44 20.88 103.05 20.25 103.05 8.2 96.51 2.86 84.71 2.86 78.33 8.68 78.33 22.08 90.69 32.61 90.69 35.08 85.28 35.08 85.28 29.66 78.01 29.66 78.01 38.35 82.37 42.74 96.83 42.74 103.54 37 103.54 30.78 90.77 19.13 90.77 14.9 95.38 14.9" fill="#fff" stroke-width="0"/><polygon points="81.51 86.19 81.51 96.63 92.09 96.63 94.91 95.51 94.91 74.49 83.49 65.16 62.9 65.16 51.76 75.33 51.76 98.72 73.33 117.09 73.33 121.41 63.89 121.41 63.89 111.94 51.19 111.94 51.19 127.12 58.81 134.78 84.05 134.78 95.76 124.75 95.76 113.89 73.48 93.56 73.48 86.19 81.51 86.19" fill="#fff" stroke-width="0"/><polygon points="123.94 14.9 123.94 20.88 130 20.88 131.61 20.25 131.61 8.2 125.07 2.86 113.27 2.86 106.89 8.68 106.89 22.08 119.25 32.61 119.25 35.08 113.84 35.08 113.84 29.66 106.57 29.66 106.57 38.35 110.93 42.74 125.39 42.74 132.1 37 132.1 30.78 119.33 19.13 119.33 14.9 123.94 14.9" fill="#fff" stroke-width="0"/><path d="M191.76,36.12l-9.03-10.77,8.32-4.82v-12.15l-5.84-5.43h-21.69v8.01h3.28v24.98h-3.72l.05,7.11h13.99l-.05-10.99,8.37,10.99h11.86l-.05-6.94h-5.49ZM179.19,17.95l-2.04,1.46v-7.58l2.04,1.29v4.82Z" fill="#fff" stroke-width="0"/><polygon points="194.33 2.96 237.89 2.96 237.89 19.87 229.03 19.87 229.03 14.6 221.6 14.6 221.6 36.82 225.58 36.82 225.58 44.18 204.42 44.18 204.46 36.47 209.91 36.47 209.91 14.6 202.92 14.6 202.92 20.36 194.33 20.36 194.33 2.96" fill="#fff" stroke-width="0"/><rect x="51.19" y="50.14" width="175.3" height="5.7" fill="#fff" stroke-width="0"/><rect x="103.68" y="110.4" width="146.32" height="5.7" fill="#fff" stroke-width="0"/><polygon points="100.21 65.16 142.2 65.16 142.2 81.46 133.66 81.46 133.66 76.38 126.5 76.38 126.5 97.8 130.34 97.8 130.34 104.89 109.94 104.89 109.98 97.46 115.23 97.46 115.23 76.38 108.49 76.38 108.49 81.93 100.21 81.93 100.21 65.16" fill="#fff" stroke-width="0"/><path d="M200.46,97.53l-8.81-10.51,8.12-4.71v-11.85l-5.7-5.3h-21.17v7.82h3.2v24.38h-3.63l.05,6.94h13.65l-.05-10.73,8.17,10.73h11.58l-.05-6.77h-5.36ZM188.19,79.79l-1.99,1.43v-7.4l1.99,1.26v4.71Z" fill="#fff" stroke-width="0"/><path d="M164.65,64.7h-13.58l-6.41,7.26v24.14l6.41,7.64h14.05l6.12-7.45v-23.29l-6.6-8.3ZM160.69,93.18h-4.9v-17.07h4.9v17.07Z" fill="#fff" stroke-width="0"/><polygon points="211.85 72.97 207.87 72.97 207.87 63.89 221.11 63.89 227.69 74.45 233.4 63.89 248.03 63.89 248.03 73.15 243.62 73.15 243.62 96.86 248.03 96.86 248.03 103.44 232.28 103.44 232.28 85.41 227.8 93.23 222.41 85.18 222.41 103.44 207.87 103.44 207.87 96.78 211.68 96.78 211.85 72.97" fill="#fff" stroke-width="0"/></svg>