<svg xmlns="http://www.w3.org/2000/svg" viewBox="0 0 160 161"><path d="M87.09 20.42c.32.05.2-.44.18-.65-.06-.78-.34-1.66-.38-2.44-.22-4.17-.32-10.37 0-14.49.09-1.21.46-2.12 1.81-2.33 1-.15 4.23-.14 5.27-.02.85.1 1.53.57 1.83 1.37l.06 35.85c-1.34 2.99-7.87 2.58-8.44-.99l-5.13-18.38c-.17 0-.11.81-.09 1.03.38 5.37.85 12.34.38 17.67-.07.76-.23 1.47-.88 1.94-1.19.85-5.66.82-6.98.25-1.13-.48-1.23-1.45-1.38-2.57V3.41c.15-1.62.84-2.72 2.55-2.91 1.31-.14 4.19-.16 5.25.59s1.53 3.23 1.91 4.48c1.48 4.9 2.65 9.92 4.05 14.84zM17.3 51.47c.19-1.3 1.07-2.39 2.38-2.67 1.44-.3 7.1-.3 8.48.06s1.96 1.52 2.15 2.9l.03 48.53c-.23 1.67-.47 2.57-2.13 3.18-1.89.7-7.98.74-9.66-.43-.92-.64-1.15-1.67-1.25-2.74-.54-6.09.42-12.95.01-19.12l-.25-.55c-1.29-.02-3.86-.78-4.21.87l-.05 19.86c-.13.94-.68 1.55-1.5 1.95-1.77.87-8.23.89-9.93-.13-.91-.52-1.37-1.56-1.37-2.6L.14 50.8c.42-1.28 1.37-1.91 2.69-2.09s7.4-.19 8.43.3c.54.26.99.84 1.32 1.33l.32 19.06.33.53c1.3.43 2.78.34 4.08-.02V51.47zM12.5 2.29C12.69 1.22 13.64.62 14.67.5s4.21-.14 5.23.05c1.5.27 1.76 1.56 1.84 2.86.73 10.8-.57 22.4 0 33.28-.08 1.05-.14 1.92-1.13 2.45-1.3.69-5.7.69-6.99 0-.85-.46-1.04-1.15-1.13-2.07-.38-4.31.3-9.17 0-13.54l-.18-.39c-.82-.04-2.82-.5-3.02.58v13.91c-.11.85-.43 1.3-1.19 1.63-1.23.53-5.6.55-6.77-.08-.91-.49-1.02-1.17-1.09-2.11-.78-11.14.61-23.17 0-34.4 0-1.49.99-2.04 2.35-2.16 1.1-.1 3.86-.14 4.89.02.82.13 1.79.89 1.81 1.77l.08 12.89.23.37c.92.31 1.97.24 2.89-.01V2.29zM141.67.55c2.35-.37 11.01-.24 13.15.51 2.95 1.04 4.75 4.01 4.99 7.05.61 7.71-.45 16.24-.03 24.04-.54 3.44-2.68 5.97-6.05 6.93-2.45.7-8.74.81-11.33.49-1.38-.17-2.92-.95-3.23-2.41l-.08-33.74c.09-1.53 1.08-2.63 2.59-2.87zm6.45 7.19v24.62c1.02.73 2.55.2 2.62-1.14-.46-7.13.67-15.14.03-22.17-.04-.4-.18-1.17-.52-1.41-.46-.32-1.93-.62-2.13.11zM50.87.55c1.07-.18 4.5-.18 5.56 0 1.56.26 1.74 1.29 1.84 2.67.68 9.22-.53 19.27-.01 28.58.23 1.93 2.67 1.49 2.64-.38l.13-29.57c.15-.58.83-1.12 1.38-1.26.8-.21 4.84-.21 5.74-.08.6.09 1.53.7 1.72 1.29l.06 30.15c-.7 6.93-8.18 9.2-14.14 7.58-4.76-1.29-6.47-4.76-6.75-9.43-.54-9.06.31-18.78.14-27.88.29-.97.65-1.51 1.71-1.68zM70.97 48.75c1.4-.24 6.23-.26 7.63-.05.94.15 2.27 1.06 2.49 2.03l.05 40.82c.17 4.7 4.15 3.78 4.01-.53l.11-40.5c.46-.9 1.19-1.6 2.21-1.78 1.44-.26 5.87-.23 7.39-.06s2.61.78 2.94 2.37c-.3 12.96.81 26.54.13 39.44-.35 6.75-2.63 11.42-9.53 13.31-9.49 2.6-19.29-1.34-20.02-11.99-.9-13.08.69-27.17.01-40.35.06-1.53 1.13-2.48 2.59-2.72zM47.31 47.97c8.46-.78 16.06 2.88 16.81 12 .84 10.31-.63 21.69.01 32.12-.43 15.48-26.25 16.91-29.15 2.26-.08-10.85-1.2-23.07-.4-33.86.58-7.8 5.03-11.8 12.73-12.52zm1.58 9.79c-1.43.29-1.32 2.15-1.54 3.26.53 9.81-.67 20.28 0 30.01.12 1.8.28 4.21 2.69 3.45 1.09-.34 1.16-1.42 1.31-2.4-.67-10.19.9-21.53.01-31.59-.13-1.52-.63-3.11-2.47-2.73zM37.32 33.62c-.31-.31-3.55-.35-3.91-.14-.64.38-.39 3.91-.9 4.93-.73 1.47-4.35 1.31-5.79 1.19-2.31-.2-2.9-1.25-2.7-3.46.97-10.66 3.6-21.58 4.55-32.3.31-1.59.96-3 2.73-3.29 1.3-.22 6.9-.22 8.16.04 1.78.37 2.44 1.82 2.77 3.44.89 10.46 3.88 21.36 4.73 31.73.14 1.74.11 3.43-2 3.78-1.12.19-5.07.17-6.02-.29-1.77-.86-.9-4.07-1.61-5.63zm-.52-7.19L35.39 8.39l-1.41 18.04h2.83zM117.79 58.31c-1.26-1.18-3.2-.19-3.4 1.65-.58 5.3 7.14 11.89 10.37 15.94 4.62 5.78 8.14 11.13 6.27 18.98-3 12.54-26.02 13.09-29.06.58-.46-1.92-.63-7.26-.33-9.2.46-2.9 6.67-2.49 8.89-2.27 5.34.54 3.09 4.82 3.66 8.56.44 2.88 3.89 2.75 4.4 0 .45-2.47-.29-4.27-1.58-6.26-6.09-9.35-19.64-17.66-14.13-30.91 4.55-10.93 26.92-10.71 28.02 4.05.16 2.09.52 6.39-1.68 7.37-1.72.77-8.03.79-9.6-.37-2.03-1.49-.06-6.46-1.83-8.12zM128.34 23.05v8.74l.28.28h5.84c.2 0 1.49.41 1.7.56.89.65.8 4.27.61 5.32-.22 1.23-1.37 1.55-2.49 1.65-2.87.26-8.63.26-11.5-.01-1.73-.16-3.32-1.02-3.5-2.9l.14-34.08c.28-1.06 1.35-1.94 2.43-2.09 3.98-.54 9.18.3 13.28.06 2.11.21 1.77 5.69.94 6.6-.16.18-1.07.65-1.23.65h-6.22l-.28.28v7.14l.28.28h5.46c.49 0 1.44.7 1.56 1.26.16.73.14 3.66.04 4.47-.32 2.78-5.52 1.02-7.35 1.78zM147.92 80.53v12.34l.4.4h8.25c.28 0 2.1.57 2.4.79 1.26.91 1.13 6.03.86 7.51-.31 1.73-1.94 2.19-3.52 2.33-4.06.37-12.18.36-16.23-.02-2.44-.23-4.68-1.45-4.94-4.1l.2-48.13c.39-1.49 1.91-2.74 3.43-2.94 5.61-.76 12.96.43 18.75.09 2.98.3 2.5 8.04 1.32 9.32-.23.25-1.52.92-1.74.92h-8.78l-.4.4v10.08l.4.4h7.71c.69 0 2.03.99 2.2 1.78.23 1.03.2 5.16.06 6.32-.45 3.92-7.8 1.43-10.38 2.52zM102.91 7.83h-2.73c-.74 0-1.84-.79-1.97-1.61-.11-.69-.12-3.63.03-4.27.22-.97 1.25-1.37 2.12-1.46 4.65-.44 9.98.34 14.7 0 .85.12 1.69.62 1.89 1.49.24 1.01.25 4.28-.4 5.08-1.16 1.41-4.16.07-4.41 1.42l-.02 29.3c-.39 1.41-1.58 1.71-2.9 1.8-1.57.12-5.64.35-6.09-1.64l-.03-29.1-.2-1.02zM133.46 134.3c.14.06.63-.05.78-.14.29-.18.39-.88.84-.96.79.39.78 1.52.68 2.28-.02.18-.23 1.14-.28 1.23-.1.16-.33.17-.46.29-.22.2-.25.67-.62.8-.21.07-.77.14-1 .14-.15 0-.29-.13-.44-.13-.39 0-.85.22-1.22.06-.36-.53-1.04-.9-1.43-1.33s-.89-2.22-1.08-2.89c-.25-.87-.21-1.97-.97-2.67-.66-.61-2.12-.58-2.9-.28-1.16.44-.43 2.98-.34 3.89.06.6-.05.48.14 1.14s.2.98.84 1.41 1.7-.01 1.97.38c.08.11 0 .73-.09.84-.23.31-1.03.13-1.4.2-.42.09-.7.41-1.18.48-.41.06-.76-.08-1.14-.05-.61.05-3.15.57-3.46.4-.46-.48-.56-1.21.08-1.57.42-.24.87-.09 1.16-.57.52-.88-.06-2-.05-2.92 0-.27.21-.51.18-.75-.04-.4-.53-1.03-.63-1.56-.14-.75.13-1.46-.13-2.22-.08-.22-.34-.44-.37-.69-.03-.22.17-.6.16-.95-.02-.76-.38-1.46-.52-2.18-.07-.37-.02-.99-.09-1.21-.01-.05-.58-.78-.63-.8s-.61.14-.98.05c-.14-.03-.92-.42-.98-.5-.54-.63 1.14-1.2 1.57-1.26.51-.08.94.1 1.55 0 .46-.08.96-.37 1.38-.41.39-.04.65.21 1.06.17.33-.03.59-.2.89-.25 3.16-.51 7.65-.72 8.24 3.38.16 1.13.08 1.69-.62 2.58-.51.64-.99.77-1.52 1.3-.2.2-.45.12-.4.52.05.38.76.83 1.04 1.27.58.95 1.13 1.95 1.71 2.89.03.04.61.61.65.63zm-9.61-10.46c-.03.06-.18.12-.23.23-.28.63 0 1.18.04 1.83.02.31-.12.67-.07.94.04.26.25.38.29.58.05.24-.09.47.03.79.03.08.54.72.6.77.29.21 2.25.26 2.67.18.77-.15 1.99-.95 2.04-1.81.02-.45-.02-1.56-.06-2.02-.11-1.22-.77-2.21-1.99-2.53-.74-.19-.81.05-1.4.07-.29.01-.65-.2-.86-.17-.23.03-.51.31-.84.26-.23.23-.13.68-.21.88zM87.07 133.2c-.13.17-.14 1.22-.12 1.49.09 1.34.52 2.46.58 3.94.02.56.49 1.99.94 2.32.36.27 1.11.38 1.53.61 1.23.67 1.21 2.22-.31 2.47-.99.16-2.09.14-3.07.27-1.23.16-2.29.76-3.42-.16-2.11-1.72 2.23-1.97 2.45-3.13.34-1.8-.34-3.02-.53-4.72s.19-3.87-.28-5.51c-.11-.37-.45-.8-.75-1.04-.36-.28-2.54-.75-1.26-1.38.5-.24 2.51-.7 3.01-.59.07.02 1.07.4 1.12.43.19.12.26.41.4.54 2.29 2.04 4.44 4.21 6.71 6.19.4.35 1.19 1.54 1.79.63.34-.52-.04-.91-.06-1.32-.03-.69 0-1.43-.13-2.16-.2-1.06-.59-2.92-1.45-3.59-.54-.42-1.68-.4-1.5-1.3.15-.77.87-.5 1.48-.61.93-.17 2.72-.73 3.6-.59 1.09.17 1.13.91.41 1.6-.21.21-.54.33-.74.53-.66.67-.52 2.77-.41 3.66.29 2.38.74 4.85 1.14 7.24.17.99.86 1.86.63 2.9-.39 1.76-2.49-.26-3.06-.86-1.82-1.9-3.95-3.6-5.63-5.47-.59-.65-1.21-1.73-1.89-2.29-.25-.2-.93-.44-1.17-.12zM113 125.39c-1.35-.93-3.4-.61-4.81.04-.25.12-.5.47-.72.63-.52.41-.82.2-.85 1.17-.03 1.02.29 1.5.43 2.3.08.43-.04.88.11 1.41.06.23.35.86.5 1.01s1.05.23 1.28.21c.27-.03.91-.64 1.04-.89.21-.41.23-1.12.43-1.52.02-.03.43-.58.46-.6.66-.59 1.07.97 1.17 1.42.2.86-.04 1.52.03 2.05.03.24.32.52.37.78.07.37.17 1.02.21 1.41.12 1.09-.44 1.93-1.32.91-.33-.38-.87-1.59-1.3-1.87-.16-.1-1.19-.29-1.37-.22-.38.14-.8.89-.82 1.28s.24 1.95.35 2.37c.08.31.39 1.2.52 1.48.4.87 1.77.52 2.51.74 1.56-.59 3.35-1.04 4-2.77.25-.66.24-1.22.6-1.9.25-.47.71-1.29 1.16-.49.51.9.71 2.51.76 3.54.05.88.04 1.43-.78 1.93-.68.42-1.83.43-2.63.56-.3.05-.56.21-.89.24-.67.06-.77.1-1.41.2-.32.05-.62-.05-.93.01-.61.13-1.38.61-2.16.74-.58.09-.99-.12-1.35-.07-.6.07-1.34.49-2.1.46-.24-.01-.42-.23-.66-.21-.3.03-.31.31-.56.39-.69.24-1.69-.43-1.34-1.19s2.16-.84 2.2-2.41c.03-1.27-.48-3.17-.63-4.52-.07-.63-.02-1.46-.08-2.04-.03-.33-.27-.53-.32-.78-.06-.32-.05-1.02-.13-1.51-.17-1.22-.07-2.3-1.31-2.94-.49-.25-1.14-.17-1.37-.34-.42-.31.14-.78.5-.88.42-.13 1.22-.27 1.69-.36 1.65-.32 3.2-.38 4.86-.58.68-.08 1.16-.28 1.72-.36.35-.05.73.11 1.14.05.73-.11 1.41-.43 2.07-.62.51-.15 1.67-.29 1.94.31.1.23.06.51.15.76.12.29.48.82.54 1.09.08.33-.1.76-.05 1.13.04.32.46 1.08.12 1.25-.99.36-.93-.91-1.45-1.52-.25-.3-1.2-1.03-1.53-1.26zM54 139.66c.03-.35.32-.5.44-.7.25-.42.62-1.49 1.06-1.65.29-.16.61.59.66.79.25.95.11 1.67.17 2.54s.18 1.75.25 2.62l-.19.28c-.76-.1-.92-.82-1.38-1.37-.67-.8-1.17-1.17-2.27-1.06-.97.09-1.07.44-1.06 1.36.01 1.25.34 3.14.83 4.24.1.23.25.76.38.91.04.05 1.15.53 1.24.54.76.11 2.53-.15 3.26-.42.07-.03 1.08-.64 1.21-.72 1.67-1.11 1.51-2.41 2.1-4.01.64-1.72 1.23.01 1.38.93.06.37.16 1.06.19 1.41.02.29.06 1.63.03 1.84-.16 1.06-1.75 1.29-2.6 1.37-.62.06-.78.11-1.31.19-.78.12-1.89-.01-2.67.17-.41.1-.61.38-.87.43-.99.21-2.38.14-3.38.21-.41.03-1.28.08-1.64.13-.26.04-.44.27-.76.28-.07 0-.87-.16-.9-.19-.46-.52.78-1.12 1.01-1.43.1-.14.39-.83.38-.98 0-.19-.14-.34-.16-.49-.09-.92-.11-1.46-.27-2.43-.36-2.24-.67-4.5-.97-6.76-.1-.75.07-1.8-.51-2.44-.09-.1-1.07-.58-1.29-.68-.28-.13-1.12-.12-.74-.84.28-.52 1.1-.4 1.54-.47 2.92-.44 5.8-.68 8.72-1.15.87-.14 1.73-.5 2.71-.49 1.29.01 1.18 1.18 1.38 2.01.23.94.65 2.23.67 3.2.02.89-.86.17-1.16-.15-1.26-1.36-1.3-2.58-3.54-3.1-.72-.17-2.63-.15-3.36.02-.53.12-1.11.79-1.55 1.1-.05.08-.25 1.72-.24 1.9.05.67.48 1.81.63 2.5.05.23-.07.53.06.79.19.37 2.13 0 2.51-.22zM79.29 143.64c.39.31 2.09.2 1.77 1.43-.3.11-.67.25-.98.31-.56.12-1.44.3-2 .38-.16.02-.36-.13-.52-.07s-.25.33-.68.39c-.52.08-.84-.25-.96-.25-.2 0-1.2.69-1.39-.11-.18-.74 1.48-.87 1.51-1.54.04-.94-.89-3.06-1.89-3.25-.79-.15-1.72.18-2.52.23-.36.02-.62-.13-1.03-.06-1.69.29-2.26 1.39-1.89 3 .3 1.3 1.02 1.06 1.73 1.78.94.97-1.44.91-1.9.99-.57.09-1.2.24-1.8.34-.53.09-2.44 1.24-2.4-.07.03-.85.6-.75 1.05-1.02.57-.35.65-.98.88-1.28.07-.09.26-.13.35-.23.31-.36.2-.89.34-1.37.21-.75.83-1.35.81-2.19 0-.18-.16-.45-.14-.55.04-.15.36-.27.47-.55.19-.5.14-1.33.26-1.87.22-.98.4-2.15.62-3.05.1-.39.39-.66.47-1.09.18-.88.25-1.94.44-2.82s.8-2.25 1.77-1.28c1.14 1.15.73 2.04 1.45 3.24.34.57.96.91 1.26 1.44.42.73.4 1.49.96 2.33.14.2.46.38.55.59.14.33.08.65.3 1.04s.63.49.84.81c.53.79 1.18 2.42 1.66 3.32.08.15.56.99.62 1.04zm-6.24-4.34l-.14-1.64c-.48-.4-1.39-2.92-1.82-2.99-.59-.1-.63.91-.78 1.29-.12.3-.39.55-.45.83-.12.53-.24 2.37-.04 2.82.36.78 2.61-.2 3.22-.3zM146.38 118.88c.64 1.71.63 3.55.82 5.35-.81.49-1.61-.39-2.04-1.01-.14-.21-.14-.45-.26-.62s-.43-.24-.6-.4c-.35-.31-.48-.83-.83-1.12-.14-.11-1.69-.71-1.91-.76-.16-.03-.65-.06-.79-.02-.19.05-.27.26-.42.32-.37.16-.77.21-1.11.43-.22.14-.84.87-.93 1.11-.41 1.17 1.1 3.4 2.42 3.47.91.05 2.1.23 3.01.44.48.11.93.55 1.35.62.26.04.41-.1.66-.05.34.07.83.56 1.16.75.29.17.91.32 1.08.48 1.05.96 1.78 3.39 1.47 4.77-.08.33-.73 1.73-.94 1.91-.2.17-.52.25-.68.4-.12.11-.14.31-.22.38-.13.1-.33.08-.48.18-.16.1-.24.43-.51.5-.39.1-2.14.25-2.57.23-1.11-.06-2.8-1.1-3.79-.83-.57.16-.62.67-.99 1.04l-1.18-.41c-.35-.6-.1-1.28-.13-1.89s-.81-3.03-.31-3.29c.68-.35 1.45.77 1.82 1.27.25.33.45.91.68 1.14.2.2.73.34 1.07.62.27.22.45.54.72.73.23.16 1.87.56 2.19.57 1.84.07 3.74-1.7 3.58-3.57-.03-.35-.22-.71-.43-.99-.09-.12-1.04-1.02-1.11-1.05-2.27-1.02-5.64-.97-7.89-2.32-.84-.5-1.32-1.12-1.66-2.03-.42-1.1-.17-.97-.07-1.94.05-.45-.15-.99.02-1.34.05-.11 1.49-1.55 1.69-1.71.59-.49 1.6-.8 2.39-.84.98-.06 1.67.22 2.57.32.2.02.35-.12.5-.09s.34.35.51.35c.55 0 1.85-1.31 2.17-1.09zM24.98 136.72c.39-.4.29-.75 1.03-.62.53.1.84.47.98.98s.45 2.76.4 3.28c-.03.36-.24 1.34-.66 1.39-1.05.11-1.61-1.63-2.24-2.2-3.23-2.95-7.1-.49-6.9 3.67.11 2.39.3 4.33 1.06 6.63.59 1.77 2.42 2.82 4.27 2.73 1.1-.06.88-.34 1.48-.59.26-.11.52-.05.8-.22.67-.4 1.57-2.43 1.6-3.21.02-.49-.25-1.74.35-1.99.32-.14 1.03.27 1.12.57.02.07 0 1.37-.01 1.52-.04.39-.28 1.1-.44 1.47-1.81 4.16-7.46 4.49-10.59 1.63-2.26-2.07-3.07-5.11-2.95-8.13.05-1.32.18-1.17.67-2.2.19-.41.28-1.23.45-1.51.09-.16.57-.55.74-.75.12-.14.2-.45.28-.51.17-.14.47-.07.69-.2.24-.15.61-.74 1.13-1.04 1.18-.67 1.38-.54 2.6-.57.42-.01.87-.26 1.18-.26.98.02 2.12.98 2.95.14zM34.61 136.43c-.46.64-.06 1.04-.02 1.56.04.47-.02 1.22.04 1.74.25 2 .99 4 1.08 6.03.03.7-.11.78.02 1.64.15.91.13 1.84.97 2.44.57.4.55.16 1.01.12.14-.01.25.11.35.11 2.68-.02 4.93-1.34 5.58-4.07.19-.79-.22-1.41.74-1.88s.61 1.41.64 1.84c.05.56.09 1.06.13 1.62.1 1.35.72 2.35-.94 2.9-.56.18-1.56.23-2.16.28-1.13.09-2.97.65-3.92.63-.15 0-.31-.22-.56-.19-.19.02-.38.23-.59.28-.64.14-1.81.09-2.53.19-.46.07-.9.21-1.52.28-.39.05-1.54.36-1.75.05-.13-.18-.18-.58-.07-.77.12-.21 1.65-1.09 1.87-1.39.64-.88-.18-2.77-.23-3.77-.12-2.48-.45-4.87-1.03-7.29-.17-.71.22-.88-.52-1.59-.77-.75-1.74-.47-2.12-.78-.4-.33.25-.96.54-1.03.16-.04.47.09.72.08.56-.03 1.04-.34 1.27-.37.15-.02.36.13.55.1.17-.03.3-.21.48-.26.67-.17 1.05 0 1.64-.04.4-.02 1.7-.4 1.9 0 .21 1.02-1.12.88-1.59 1.53zM31.33 131.27c4.07-.03 7.86-1.88 11.94-1.91.29 0 .47.16.54.37l14.7-2.14c-.2-.11-.29-.33-.28-.56-.2.05-.41.07-.61 0-.28-.09-.5-.29-.57-.54-.06 0-.12.03-.17.02-.48-.01-.78-.31-.94-.69-.07.03-.15.05-.23.06-.95.12-1.91.12-2.87.24a.49.49 0 0 1-.27-.06l-30.34 4.42s.01.02.01.03c.09.33-.11.61-.41.73-1.59.64-3.2.18-4.85.34-1.39.14-2.54 1.11-3.77 1.72.18.43.6.73 1.07.73.06 0 .11 0 .17-.01l16.37-2.39c.08-.2.25-.35.52-.36zM145.9 113.26c-1.62.09-3.21.45-4.84.45-.33 0-.51-.22-.55-.47l-13.08 1.91c-.11.14-.28.24-.46.23-.7-.05-1.23.07-1.92.23-.66.15-1.34.3-2.02.25-.06 0-.12-.02-.17-.04l-50.17 7.31c.07.09.11.2.13.29.04.24-.08.46-.28.59-.25.16-.61.25-.89.24h-.01v.02s0 .02-.02.06c-.03.08-.06.15-.1.22-.27.53-.85.66-1.39.45-.24-.09-.46-.22-.7-.34-.03-.01-.03-.02-.05-.02h-.01c-.04-.01-.08-.03-.13-.03-.13-.02-.27-.03-.4-.03-.64-.02-1.29.05-1.93.05-.38 0-.57-.29-.57-.59l-8.17 1.19c.15.15.25.34.24.55.22-.01.45.01.64.12.27.15.36.38.38.63h.07c.23 0 .47-.02.7 0 .25.01.5.06.74.14.07-.25.29-.49.56-.45.51.07 1.02-.07 1.53.05.32.08.79.36 1.09.25.04-.02 0 0 .07-.04.04-.02.08-.04.11-.06.08-.04.15-.09.23-.12.22-.11.46-.18.71-.17.22 0 .41.07.61.15.17.07.35.14.48.14.03 0 .05.01.08.01l24.17-3.52c0-.3.19-.6.57-.6 1.23 0 2.48.02 3.72-.03l4.8-.7c1.19-.36 2.34-.83 3.55-1.13 1.21-.29 2.44-.41 3.68-.41.3 0 .48.18.54.41l23-3.35c-.02-.27.16-.53.42-.62 1.06-.35 2.16-.38 3.26-.38.25 0 .46.16.54.38l10.36-1.51c.65-.09 1.1-.7 1-1.34-.02-.14-.07-.26-.14-.38zM140.31 142.82c.06-.14.18-.25.36-.3 1-.3 2.02-.47 3.04-.61.83-.11 1.7-.16 2.48-.48 1.09-.45 2.17-1.2 3.35-1.26-.14-.59-.69-.99-1.31-.9l-23.68 3.45c-.03.2-.15.39-.41.46-2.92.73-5.84 1.56-8.87 1.57-.38 0-.57-.3-.57-.6l-27.22 3.97c-.09.11-.22.19-.39.21-6.04.71-11.78 3.07-17.91 3.1-.37 0-.56-.28-.57-.56l-45.79 6.67c-.07.09-.16.16-.29.2-1.89.5-3.95.85-5.59 1.97-.08.05-.16.07-.25.08.14.51.59.87 1.12.87.06 0 .11 0 .17-.01l16.24-2.37c-.01-.31.17-.62.57-.62 3.13-.02 6.18-.94 9.31-.96.13 0 .22.04.31.09l46.52-6.78a.638.638 0 0 1-.14-.36c-.01-.32.28-.59.59-.59h2.15c.3 0 .51.22.57.49l4.74-.69c-.09-.34.09-.76.54-.76.76 0 1.52.11 2.28.08.1 0 .2 0 .31-.02.05 0 .09 0 .14-.01h.06c.18-.04.36-.08.53-.13.02 0 .04-.01.05-.02.04-.02.07-.03.11-.05.07-.04.14-.08.21-.13h.02l.02-.02.09-.09c.02-.02.04-.04.05-.06 0 0 .05-.07.06-.08.18-.27.52-.38.81-.21.23.14.34.45.25.71l35.95-5.24z" fill="#fff"/></svg>