<svg xmlns="http://www.w3.org/2000/svg" width="210" height="90" viewBox="0 0 210 90"><g fill="#fff"><path d="M32.89 24.41c.25 0 .52 0 .8-.02.28-.01.55-.03.83-.05.46-.05.95-.08 1.47-.09.52-.01.99-.02 1.4-.02h5.99c1.27 0 2.42-.14 3.46-.42 1.04-.28 1.92-.69 2.65-1.23a5.66 5.66 0 0 0 1.7-2.03c.4-.81.61-1.74.61-2.8 0-.78-.17-1.5-.5-2.15a5 5 0 0 0-1.4-1.68c-.6-.47-1.31-.85-2.13-1.14-.82-.29-1.71-.48-2.68-.57v-.1c1.34-.37 2.45-.95 3.32-1.75.88-.8 1.32-1.86 1.32-3.2 0-.72-.12-1.4-.36-2.06-.24-.66-.65-1.24-1.23-1.75s-1.35-.91-2.32-1.19c-.97-.29-2.19-.43-3.67-.43h-4.78c-.55 0-1.26-.02-2.13-.05-.87-.03-1.64-.07-2.34-.12-.02.07-.03.15-.03.24-.02.05-.03.1-.03.16v.16c0 .19.02.34.07.47.05.13.16.21.35.26.88.14 1.47.31 1.77.5.3.2.45.53.45.99v17.33c0 .46-.17.8-.5 1-.33.21-.91.37-1.71.48-.12.02-.21.08-.29.16-.08.08-.12.25-.12.5v.16c0 .06.01.12.03.19l.03.24zm6.93-20.95h.55c.83 0 1.55.1 2.15.29.6.2 1.08.47 1.45.81.37.35.64.76.81 1.23.17.47.26.98.26 1.51s-.08 1.09-.23 1.59c-.15.51-.4.96-.76 1.37-.36.4-.84.72-1.44.95-.6.23-1.35.35-2.25.35h-.55v-8.1zm0 9.83h1.87c.72 0 1.4.1 2.04.31.65.21 1.21.51 1.7.92.48.4.87.92 1.16 1.54.29.62.43 1.35.43 2.18 0 1.52-.39 2.63-1.18 3.31-.79.68-1.97 1.02-3.57 1.02-.65 0-1.22-.07-1.71-.23-.5-.15-.74-.49-.74-1.02v-8.03zM69 23.16c-.12 0-.24.01-.36.03-.13.02-.28.03-.47.03-.44 0-.76-.21-.97-.62-.09-.18-.16-.46-.19-.83s-.05-.96-.05-1.76v-6.08c0-.99-.14-1.8-.42-2.43-.28-.63-.66-1.14-1.16-1.52-.5-.38-1.09-.64-1.78-.79-.69-.15-1.47-.22-2.32-.22-.72 0-1.46.13-2.23.38s-1.48.59-2.13 1.02c-.65.43-1.18.92-1.61 1.47-.43.55-.64 1.12-.64 1.7 0 .3.02.5.07.61.05.1.14.16.28.16.23 0 .49-.02.78-.07.29-.05.57-.1.85-.17.51-.14.93-.27 1.26-.4.33-.13.54-.32.61-.57.25-.9.52-1.56.81-1.97.29-.42.77-.62 1.44-.62.83 0 1.42.32 1.77.95.35.63.52 1.54.52 2.72 0 .53-.03.86-.1.99s-.23.22-.48.29c-.19.05-.44.11-.76.19s-.63.16-.93.22c-.69.16-1.43.36-2.22.61s-1.51.57-2.16.97c-.66.4-1.21.91-1.64 1.51-.44.6-.66 1.33-.66 2.18 0 .76.17 1.37.52 1.83.35.46.77.82 1.26 1.07.5.25 1.04.42 1.63.5.59.08 1.13.12 1.61.12 1.04 0 1.94-.19 2.72-.57.77-.38 1.39-1.03 1.85-1.96.09.67.42 1.26.97 1.77s1.35.76 2.39.76c.46 0 .92-.05 1.37-.16.45-.1.82-.26 1.13-.47 0-.58-.17-.87-.52-.87zm-5.95-3.88c0 1.15-.25 2.05-.76 2.7-.51.65-1.2.97-2.08.97-.55 0-.98-.18-1.26-.54-.29-.36-.43-.99-.43-1.89 0-.6.1-1.11.29-1.54.2-.43.46-.78.8-1.07.33-.29.73-.52 1.19-.69.46-.17.96-.31 1.49-.4l.76-.14v2.6zM70.98 1.73c.85.09 1.4.31 1.63.66.23.35.35.87.35 1.56v16.72c0 1.13-.07 2.35-.21 3.67.23.12.44.17.62.17.09 0 .2-.05.33-.14a12 12 0 0 0 .45-.33c.17-.13.37-.25.59-.38.22-.13.47-.21.74-.26.95.46 1.85.78 2.72.97.87.18 1.68.28 2.44.28.83 0 1.7-.19 2.6-.55.9-.37 1.73-.91 2.49-1.63.76-.72 1.39-1.58 1.89-2.6s.74-2.17.74-3.46c0-1.18-.16-2.23-.48-3.15-.32-.92-.77-1.7-1.35-2.34a5.824 5.824 0 0 0-2.03-1.45c-.77-.33-1.61-.5-2.51-.5-1.32 0-2.35.27-3.12.8-.76.53-1.43 1.22-2.01 2.08V3.98c0-.74.03-1.39.1-1.96.07-.57.1-1.07.1-1.51 0-.35-.18-.52-.55-.52-.18 0-.54.06-1.07.17-.53.12-1.09.21-1.66.28-.25.02-.53.05-.83.07-.3.02-.6.04-.9.05l-.85.03c-.27.01-.47.02-.61.02-.05.09-.07.19-.07.29v.26c0 .3.15.48.45.55zm5.89 13.67c0-.53.1-1.06.29-1.59.2-.53.45-1.01.76-1.44.31-.43.67-.77 1.07-1.04s.81-.4 1.23-.4c.65 0 1.21.17 1.7.5.48.33.88.78 1.18 1.35.3.57.52 1.23.67 2.01.15.77.23 1.6.23 2.48 0 1.85-.29 3.28-.88 4.31-.59 1.03-1.47 1.54-2.65 1.54-.69 0-1.35-.12-1.96-.36-.61-.24-1.16-.64-1.64-1.19v-6.16zM103.69 11.37c.12-.2.24-.36.38-.48.14-.13.31-.22.5-.28.2-.06.46-.12.78-.19.3-.07.45-.23.45-.48 0-.05 0-.14-.02-.28s-.04-.27-.09-.38c-.81.07-1.7.1-2.67.1-1.09 0-2.09-.03-3.01-.1-.02.12-.05.22-.07.33-.02.1-.03.19-.03.26 0 .18.03.31.1.36.07.06.18.11.35.16.74.19 1.11.51 1.11.97 0 .23-.05.51-.16.85-.1.33-.27.79-.5 1.37-.23.58-.54 1.32-.92 2.22s-.85 2.03-1.4 3.39l-2.39-5.44c-.39-.88-.65-1.5-.76-1.87-.12-.37-.17-.61-.17-.73 0-.18.07-.34.23-.47.15-.13.5-.23 1.06-.29.3-.05.45-.22.45-.52 0-.14-.03-.33-.1-.59-.6.05-1.2.08-1.8.09-.6.01-1.32.02-2.15.02-.9 0-1.66 0-2.28-.02-.62-.01-1.21-.04-1.77-.09-.07.25-.1.45-.1.59 0 .32.15.52.45.59.3.07.54.13.73.19.18.06.35.14.48.26.14.12.26.27.38.47.12.2.25.47.42.81L96.47 24l-1.56 3.74c-.23.53-.5.92-.81 1.16-.31.24-.77.36-1.37.36-.3 0-.53-.02-.69-.07-.16-.05-.35-.07-.55-.07-.37 0-.69.28-.97.85s-.42 1.24-.42 2.03c0 .14.05.26.14.38.09.12.24.17.45.17 1.11 0 2.14-.25 3.1-.76s1.7-1.37 2.23-2.6l7.27-17c.16-.35.3-.62.42-.81zM22.04 22.86c-1.59.1-3.28.19-5.06.26-1.79.07-3.38.11-4.77.11s-3.07-.04-4.88-.11-3.51-.16-5.1-.26c-.1.25-.15.52-.15.82v.67c0 .7.25 1.12.74 1.27 1.04.15 1.87.31 2.49.48.62.17 1.08.39 1.38.63.3.25.5.53.6.86.1.32.15.73.15 1.23v39.69c0 1.74-.11 3.34-.34 4.8-.22 1.46-.61 2.85-1.15 4.17-.55 1.31-1.27 2.59-2.16 3.84-.89 1.24-2.04 2.53-3.43 3.87-.25.25-.37.57-.37.97 0 .3.14.6.41.89.27.3.61.62 1.01.97 3.03-2.09 5.55-4.01 7.56-5.77 2.01-1.76 3.59-3.64 4.73-5.62 1.14-1.99 1.95-4.21 2.42-6.67s.71-5.42.71-8.9V28.82c0-.5.04-.91.11-1.23.07-.32.27-.61.6-.86.32-.25.79-.46 1.41-.63.62-.17 1.45-.34 2.49-.48.5-.15.74-.57.74-1.27 0-.15-.01-.37-.04-.67-.03-.3-.06-.57-.11-.82zM62.48 68.43c-.85-.1-1.52-.24-2.01-.41-.5-.17-.87-.41-1.12-.71-.25-.3-.41-.66-.48-1.08-.07-.42-.11-.93-.11-1.53V39.9c0-.74-.35-1.12-1.04-1.12-.4 0-1.13.11-2.2.34a49.8 49.8 0 0 1-3.24.56c-.5.1-1.06.17-1.68.22-.62.05-1.24.09-1.86.11-.62.03-1.19.05-1.71.07-.52.03-.96.04-1.3.04-.05.25-.09.5-.11.74-.03.25-.04.45-.04.6 0 .4.11.65.34.74.22.1.48.2.78.3.84.1 1.5.24 1.97.41.47.17.83.41 1.08.71.25.3.41.66.48 1.08.07.42.11.93.11 1.53v11.39c0 3.03-.79 5.29-2.38 6.78-1.59 1.49-3.5 2.23-5.73 2.23-1.59 0-2.74-.56-3.46-1.68-.72-1.12-1.08-3.11-1.08-5.99V39.9c0-.35-.06-.62-.19-.82-.12-.2-.41-.3-.86-.3-.4 0-1.12.11-2.16.34-1.04.22-2.13.41-3.28.56-.5.1-1.06.17-1.68.22-.62.05-1.23.09-1.82.11-.6.03-1.17.05-1.71.07-.55.03-.97.04-1.27.04-.1.25-.15.5-.15.74v.6c0 .55.35.89 1.04 1.04 1.69.2 2.72.57 3.09 1.12.37.55.56 1.42.56 2.61v16.31c0 3.33.87 5.82 2.61 7.48 1.74 1.66 4.12 2.49 7.15 2.49 2.09 0 4.1-.63 6.03-1.9 1.94-1.27 3.7-2.94 5.29-5.03v5.36c0 .4.06.68.19.86.12.17.41.26.86.26.4 0 1.13-.11 2.2-.34a49.8 49.8 0 0 1 3.24-.56c.94-.15 2.1-.26 3.46-.34 1.37-.07 2.37-.11 3.02-.11.1-.15.15-.35.15-.6v-.74c0-.6-.32-.92-.97-.97zM89.81 55.1c-.89-.79-1.99-1.48-3.28-2.05-1.29-.57-2.78-1.1-4.47-1.6-1.44-.45-2.58-.86-3.43-1.23-.84-.37-1.5-.76-1.97-1.15-.47-.4-.78-.82-.93-1.27s-.22-.94-.22-1.49c0-1.14.45-2.13 1.34-2.98.89-.84 2.18-1.27 3.87-1.27 1.89 0 3.45.47 4.69 1.41 1.24.94 2.03 2.43 2.38 4.47.1.5.5.77 1.19.82l1.86.07c0-.5-.01-1.1-.04-1.82s-.06-1.46-.11-2.23-.1-1.49-.15-2.16c-.05-.67-.1-1.2-.15-1.6-1.09-.55-2.54-1.05-4.36-1.53a22.31 22.31 0 0 0-5.62-.71c-3.38 0-6.12.94-8.23 2.83-2.11 1.89-3.17 4.39-3.17 7.52 0 2.38.73 4.43 2.2 6.14 1.46 1.71 4.01 3.09 7.63 4.13 2.68.79 4.51 1.61 5.47 2.46.97.84 1.45 1.86 1.45 3.05 0 1.29-.55 2.33-1.64 3.13-1.09.79-2.51 1.19-4.24 1.19-2.53 0-4.52-.56-5.96-1.68-1.44-1.12-2.26-2.72-2.46-4.8-.05-.4-.27-.68-.67-.86-.4-.17-.87-.26-1.41-.26h-.97c0 1.44.04 2.89.11 4.36.07 1.46.16 2.84.26 4.13 1.69.89 3.56 1.51 5.62 1.86 2.06.35 3.88.52 5.47.52 2.23 0 4.14-.27 5.73-.82 1.59-.55 2.9-1.3 3.95-2.27s1.8-2.1 2.27-3.39.71-2.66.71-4.1c0-1.54-.24-2.87-.71-3.98a7.838 7.838 0 0 0-2.05-2.87zM118.18 66.35c-.35 0-.77.15-1.27.45-.74.5-1.49.88-2.23 1.15-.74.27-1.39.41-1.94.41-.5 0-.93-.06-1.3-.19-.37-.12-.67-.41-.89-.86-.22-.45-.39-1.1-.48-1.97-.1-.87-.15-2.05-.15-3.54V43.41h7.15c.6 0 1.01-.22 1.23-.67.22-.45.34-1.46.34-3.05h-8.71v-7.74h-1.56c-.65 0-1.3.35-1.97 1.04-.67.7-1.28 1.61-1.82 2.76-.7 1.54-1.61 2.69-2.76 3.46a6.508 6.508 0 0 1-3.72 1.15c-.5 0-.79.15-.89.45-.1.3-.15.55-.15.74v1.86h4.47v20.48c0 1.74.22 3.17.67 4.28s1.04 2 1.79 2.64c.74.65 1.58 1.09 2.49 1.34.92.25 1.87.37 2.87.37 1.74 0 3.39-.3 4.95-.89 1.56-.6 3.39-1.84 5.47-3.72-.55-1.04-1.07-1.56-1.56-1.56zM140 69.63c-1.49-.3-2.56-.62-3.2-.97-.65-.35-.97-.89-.97-1.64V45.8c0-1.59.07-2.83.22-3.72.15-.89.22-1.61.22-2.16 0-.74-.4-1.12-1.19-1.12-.4 0-1.17.12-2.31.37-1.14.25-2.33.45-3.57.6-.55.05-1.14.1-1.79.15-.65.05-1.29.09-1.94.11-.65.03-1.25.05-1.82.07-.57.03-1.01.04-1.3.04-.1.2-.15.41-.15.63v.56c0 .7.32 1.09.97 1.19 1.84.15 3 .62 3.5 1.41.5.79.74 1.94.74 3.43v19.66c0 .74-.3 1.29-.89 1.64-.6.35-1.69.67-3.28.97-.2.05-.39.14-.56.26-.17.12-.26.36-.26.71 0 .45.05.92.15 1.41 1.29-.1 2.63-.19 4.02-.26 1.39-.07 3.05-.11 4.99-.11a105.049 105.049 0 0 1 9.08.37c.1-.2.15-.42.15-.67v-.74c0-.55-.27-.87-.82-.97zM131.51 33.36c1.59 0 2.88-.51 3.87-1.53.99-1.02 1.49-2.32 1.49-3.91s-.5-2.89-1.49-3.91-2.28-1.53-3.87-1.53-2.82.51-3.84 1.53-1.53 2.32-1.53 3.91.51 2.89 1.53 3.91 2.3 1.53 3.84 1.53zM173.51 65.16c-.4 0-.85.15-1.34.45-1.39.89-2.67 1.48-3.84 1.75a15.7 15.7 0 0 1-3.54.41c-3.28 0-5.82-1.14-7.63-3.43-1.81-2.28-2.72-5.91-2.72-10.87 0-3.47.52-6.24 1.56-8.3 1.04-2.06 2.61-3.09 4.69-3.09.84 0 1.54.15 2.09.45.55.3.98.7 1.3 1.19.32.5.61 1.06.86 1.68.25.62.5 1.25.74 1.9.1.3.29.58.56.86.27.27.63.41 1.08.41.25 0 .78-.01 1.6-.04.82-.02 1.68-.1 2.57-.22.89-.12 1.7-.31 2.42-.56.72-.25 1.08-.57 1.08-.97 0-.74-.25-1.58-.74-2.49-.5-.92-1.28-1.79-2.35-2.61-1.07-.82-2.45-1.5-4.13-2.05-1.69-.55-3.72-.82-6.11-.82-1.89 0-3.82.42-5.81 1.27-1.99.84-3.77 2.05-5.36 3.61-1.59 1.56-2.89 3.43-3.91 5.59-1.02 2.16-1.53 4.56-1.53 7.19s.42 5.1 1.27 7.11c.84 2.01 2 3.69 3.46 5.03 1.46 1.34 3.18 2.33 5.14 2.98 1.96.64 4.03.97 6.22.97 3.28 0 6.04-.52 8.3-1.56 2.26-1.04 4.21-2.31 5.85-3.8-.3-.69-.57-1.2-.82-1.53-.25-.32-.57-.48-.97-.48zM209 64.6c-.32-.22-.61-.34-.85-.34-.35 0-.74.17-1.19.52-1.14.99-2.45 1.74-3.93 2.23-1.48.5-2.99.74-4.53.74-3.46 0-6.06-1.03-7.79-3.09-1.73-2.06-2.6-5.03-2.6-8.9l21.3-.89c.35 0 .52-.17.52-.52 0-4.81-1.23-8.61-3.69-11.39-2.46-2.78-6.09-4.17-10.91-4.17-1.79 0-3.65.41-5.59 1.23-1.94.82-3.72 2-5.36 3.54-1.64 1.54-2.99 3.41-4.06 5.62-1.07 2.21-1.6 4.68-1.6 7.41s.46 5.16 1.38 7.15c.92 1.99 2.12 3.64 3.61 4.95 1.49 1.32 3.16 2.28 5.03 2.9 1.86.62 3.76.93 5.7.93 3.43 0 6.39-.53 8.9-1.6 2.51-1.07 4.73-2.74 6.67-5.03-.35-.64-.68-1.08-1-1.3zm-19.38-20.03c1.16-1.66 2.7-2.49 4.63-2.49 1.09 0 2.02.29 2.81.86.79.57 1.44 1.29 1.96 2.16.52.87.9 1.82 1.15 2.87s.37 2.04.37 2.98c0 .6-.37.92-1.11.97l-11.55.52c0-3.57.58-6.19 1.74-7.86z"/></g><path fill="none" stroke="#fff" stroke-miterlimit="10" stroke-width=".96" d="M145.06 26.64H210M24.57 81.17H210"/></svg>