<svg xmlns="http://www.w3.org/2000/svg" width="350" height="44" viewBox="0 0 350 44"><path d="M19.3,21.09s4.78-3.25,4.59-10.8-7.84-8.79-13-8.88A107.49,107.49,0,0,0,0,1.88L5.45,42.2l6-1.05-.57-16.24,1.34-.1,8.69,16.06,7-2.87ZM10,17.27V8.38S16,7.71,16,12,10,17.27,10,17.27Z" fill="#fff"/><path d="M35,.07,42.52,1.4s-9.84,30-2.58,32.4S48.63,5.32,48.63,5.32l7.55-.19S57.8,43.54,39.36,42.2,35,.07,35,.07Z" fill="#fff"/><polygon points="63.53 3.7 70.41 28.16 82.55 1.4 85.89 42.2 77.77 43.54 77.58 24.53 70.8 42.2 64.97 28.45 63.53 40.96 55.51 40.48 63.53 3.7" fill="#fff"/><path d="M273.17.06l7.55,1.33s-9.84,30-2.58,32.4,8.69-28.47,8.69-28.47l7.55-.19S296,43.54,277.57,42.2,273.17.06,273.17.06Z" fill="#fff"/><polygon points="301.74 3.69 308.62 28.15 320.75 1.39 324.1 42.2 315.97 43.53 315.78 24.52 309 42.2 303.17 28.44 301.74 40.96 293.71 40.48 301.74 3.69" fill="#fff"/><path d="M110.16,26.82c-.86-9.74-7.55-10.22-7.55-10.22s4.72-8-.38-13.19c-4.2-4.3-14.52.86-14.52.86l4.58,38S111.44,41.32,110.16,26.82ZM93.34,8.09S98.5,5.42,99,8.67c.67,4.68-3.8,6.59-3.8,6.59Zm4.49,25.23-1.64-9.65s6.8-3.15,7.57,1.53S97.83,33.32,97.83,33.32Z" fill="#fff"/><polygon points="117.61 3.79 112.26 40.67 133.57 38.67 135.19 30.36 121.34 31.89 126.5 2.36 117.61 3.79" fill="#fff"/><polygon points="138.92 2.36 138.92 41.73 155.06 41.73 155.06 34.37 145.22 34.18 145.41 25.2 154.11 24.72 154.2 19.37 145.7 19.18 145.7 9.81 156.4 9.72 156.4 1.7 138.92 2.36" fill="#fff"/><path d="M159.69.25l2.86,41.48s19.61-2.13,19.22-23.68S159.69.25,159.69.25Zm9.22,32.34L166.45,6.75s8.31,1.16,9.22,11A16.34,16.34,0,0,1,168.91,32.59Z" fill="#fff"/><polygon points="181.78 2.98 191.77 21.97 190.34 39.09 198.65 39.86 199.17 21.97 210.08 2.98 201.64 2.98 195.93 14.28 189.56 2.98 181.78 2.98" fill="#fff"/><polygon points="208.91 14.93 208.91 24.02 231.9 24.02 233.2 16.1 208.91 14.93" fill="#fff"/><polygon points="236.32 2.98 240.99 41.42 248.01 38.56 246.32 22.96 255.15 22.96 255.15 40.51 261.77 41.42 264.24 1.29 255.28 1.29 255.15 15.84 244.63 15.84 243.72 2.98 236.32 2.98" fill="#fff"/><path d="M330.33,1.39l-3.26,40.84h6.15l1.38-15.37s14.24-1.69,15.32-10.42C351.43,4.26,330.33,1.39,330.33,1.39Zm12.18,12.54c-1,4.62-6.28,3.77-6.28,3.77l1.26-7.54S343.14,11,342.51,13.93Z" fill="#fff"/></svg>