<svg xmlns="http://www.w3.org/2000/svg" width="250" height="60" viewBox="0 0 250 60"><path d="M0,22.91a4.27,4.27,0,0,0,2.84-1c.41-.51.62-1.71.62-3.59V3.86a3.58,3.58,0,0,0-.61-2.51A4.65,4.65,0,0,0,.09.66V0h7l8.18,17.75L23.28,0h7.08V.66a4.19,4.19,0,0,0-2.56.72,3.73,3.73,0,0,0-.58,2.48V19.69a3.69,3.69,0,0,0,.58,2.5,4.65,4.65,0,0,0,2.56.72v.66h-10v-.66a4.42,4.42,0,0,0,2.69-.77,4.94,4.94,0,0,0,.53-2.86v-16L14.48,23.57H14L5,4.12v14.2c0,1.95.28,3.22.85,3.81a4.37,4.37,0,0,0,2.49.78v.66H0Z" fill="#fff"/><path d="M31.68,23.57v-.51a2.23,2.23,0,0,0,1.6-.8,21.73,21.73,0,0,0,1.81-3.71l5.74-13.5h.54l6.86,15.59a6.61,6.61,0,0,0,1.09,1.92,2.63,2.63,0,0,0,1.38.5v.51h-7v-.51a6.22,6.22,0,0,0,1.56-.26c.23-.1.35-.35.35-.76a3.42,3.42,0,0,0-.14-.7,7.58,7.58,0,0,0-.37-1.07L44,17.62H36.75c-.72,1.8-1.15,2.9-1.28,3.3a3,3,0,0,0-.21.94,1,1,0,0,0,.56,1,4.27,4.27,0,0,0,1.32.24v.51Zm11.85-7.06L40.38,8.93l-3.17,7.58Z" fill="#fff"/><path d="M51.46,23.06a3.15,3.15,0,0,0,2-.61,3.9,3.9,0,0,0,.39-2.18V8.35a2.86,2.86,0,0,0-.44-1.9,3.18,3.18,0,0,0-1.92-.57V5.37h7.61A11.33,11.33,0,0,1,63,6a4.2,4.2,0,0,1,3,4.2,3.84,3.84,0,0,1-1.34,3.15,7.25,7.25,0,0,1-3.64,1.45l5.67,7a3.87,3.87,0,0,0,1.05.94,3.49,3.49,0,0,0,1.35.37v.51H64.7l-6.88-8.48-1.21.07v5.42a2.71,2.71,0,0,0,.47,1.94,3.87,3.87,0,0,0,2,.54v.51H51.46Zm9.4-9.54a3.34,3.34,0,0,0,2.19-3.38,3.23,3.23,0,0,0-2-3.25,6.79,6.79,0,0,0-2.78-.47,3.56,3.56,0,0,0-1.43.16c-.18.12-.27.38-.27.79v6.77A13.87,13.87,0,0,0,60.86,13.52Z" fill="#fff"/><path d="M68.4,5.37H84L84.1,10h-.66a5.51,5.51,0,0,0-1.23-2.86c-.49-.45-1.54-.67-3.13-.67H77.55V20.59c0,1.06.16,1.72.49,2a4.65,4.65,0,0,0,2.18.5v.51h-8v-.51a3.83,3.83,0,0,0,2.17-.57,3.6,3.6,0,0,0,.43-2.22V6.51H73.26a5.24,5.24,0,0,0-3.11.66A4.83,4.83,0,0,0,68.91,10h-.67Z" fill="#fff"/><path d="M85.11,23.06a4.69,4.69,0,0,0,2.18-.5c.33-.25.49-.91.49-2V8.35a2.68,2.68,0,0,0-.49-1.95,3.9,3.9,0,0,0-2.18-.52V5.37h8.14v.51a3.88,3.88,0,0,0-2.18.52,2.68,2.68,0,0,0-.49,1.95V20.59c0,1.06.16,1.72.49,2a4.65,4.65,0,0,0,2.18.5v.51H85.11Z" fill="#fff"/><path d="M94.14,23.06a3.35,3.35,0,0,0,2.19-.77,5.07,5.07,0,0,0,.48-2.77V7.4L96.43,7a3.18,3.18,0,0,0-1-.88,4.19,4.19,0,0,0-1.27-.19V5.37h4.69l10.62,13.16V9.39c0-1.5-.22-2.48-.67-2.94a3.45,3.45,0,0,0-2-.57V5.37h6.46v.51a3.24,3.24,0,0,0-2.1.76,4.84,4.84,0,0,0-.52,2.77V23.89h-.47L98,8.81V19.52a4.5,4.5,0,0,0,.66,2.94,3.38,3.38,0,0,0,1.92.6v.51H94.14Z" fill="#fff"/><path d="M121,22.91a5.21,5.21,0,0,0,2.55-.7c.39-.33.59-1.16.59-2.5V3.86a3.73,3.73,0,0,0-.58-2.48A4.19,4.19,0,0,0,121,.66V0H131V.66a5,5,0,0,0-2.64.64,3,3,0,0,0-.67,2.32V20.74a1.89,1.89,0,0,0,.2.93,1.17,1.17,0,0,0,.88.42,7.49,7.49,0,0,0,.85.07l1.66,0q4.75,0,6.43-.78c1.11-.52,2.19-1.86,3.24-4h.9l-1.74,6.17H121Z" fill="#fff"/><path d="M150.34,5.37v.51a3.76,3.76,0,0,0-2.06.53,2.75,2.75,0,0,0-.47,1.94v8.8a7.7,7.7,0,0,0,.6,3.37q1.09,2.2,4.17,2.21c2.25,0,3.76-.76,4.53-2.26a8.94,8.94,0,0,0,.65-3.9V9.41c0-1.49-.18-2.43-.54-2.81a3.26,3.26,0,0,0-2-.72V5.37h6.36v.51a3.13,3.13,0,0,0-2.08.77A4.93,4.93,0,0,0,159,9.41v7.16a9.41,9.41,0,0,1-.88,4.45Q156.49,24,152,24c-3,0-5-1-6.08-2.9A8.42,8.42,0,0,1,145,17V8.35a2.74,2.74,0,0,0-.46-1.93,3.73,3.73,0,0,0-2-.54V5.37Z" fill="#fff"/><path d="M162.57,5.37h15.55l.15,4.67h-.66a5.51,5.51,0,0,0-1.23-2.86c-.49-.45-1.54-.67-3.13-.67h-1.54V20.59c0,1.06.17,1.72.5,2a4.65,4.65,0,0,0,2.18.5v.51h-8v-.51a3.83,3.83,0,0,0,2.17-.57,3.6,3.6,0,0,0,.43-2.22V6.51h-1.54a5.24,5.24,0,0,0-3.11.66A4.83,4.83,0,0,0,163.08,10h-.68Z" fill="#fff"/><path d="M179.28,23.06a3.6,3.6,0,0,0,2-.59,3.67,3.67,0,0,0,.41-2.2V8.35a2.84,2.84,0,0,0-.45-1.92,3.29,3.29,0,0,0-2-.55V5.37h7.63v.51a3.32,3.32,0,0,0-2,.55,2.84,2.84,0,0,0-.45,1.92v5.36h8.36V8.35a2.84,2.84,0,0,0-.45-1.92,3.24,3.24,0,0,0-2-.55V5.37h7.63v.51a3.29,3.29,0,0,0-2,.55,2.84,2.84,0,0,0-.45,1.92V20.59a2.77,2.77,0,0,0,.45,1.92,3.61,3.61,0,0,0,2,.55v.51h-7.63v-.51a3.5,3.5,0,0,0,2-.59,3.77,3.77,0,0,0,.4-2.2V14.92h-8.36v5.67a2.77,2.77,0,0,0,.45,1.92,3.47,3.47,0,0,0,2,.55v.51h-7.63Z" fill="#fff"/><path d="M199,23.06a4.13,4.13,0,0,0,2-.54c.3-.25.45-.9.45-1.93V8.35A2.88,2.88,0,0,0,201,6.44a3.29,3.29,0,0,0-2-.56V5.37h14.62l.09,3.93H213A3.93,3.93,0,0,0,212,7a5.84,5.84,0,0,0-3.12-.53h-3.75c-.4,0-.65.06-.74.19a1.26,1.26,0,0,0-.15.73v6.14h4.25a3.22,3.22,0,0,0,2.24-.52,4.36,4.36,0,0,0,.78-2.11h.65V17.2h-.65a4.51,4.51,0,0,0-.79-2.11,3.21,3.21,0,0,0-2.23-.52h-4.25v6.81c0,.55.18.87.52,1a17.27,17.27,0,0,0,3.1.15,10.56,10.56,0,0,0,4.13-.61,5.63,5.63,0,0,0,2.4-3h.76l-1.25,4.65H199Z" fill="#fff"/><path d="M215.82,23.06a3.15,3.15,0,0,0,2-.61,3.9,3.9,0,0,0,.39-2.18V8.35a2.87,2.87,0,0,0-.43-1.9,3.24,3.24,0,0,0-1.93-.57V5.37h7.62a11.3,11.3,0,0,1,4,.6,4.2,4.2,0,0,1,3,4.2,3.84,3.84,0,0,1-1.34,3.15,7.25,7.25,0,0,1-3.63,1.45l5.67,7a3.85,3.85,0,0,0,1,.94,3.49,3.49,0,0,0,1.35.37v.51h-4.43l-6.89-8.48-1.2.07v5.42c0,1,.15,1.67.46,1.94a3.87,3.87,0,0,0,2,.54v.51h-7.64Zm9.4-9.54a3.34,3.34,0,0,0,2.19-3.38,3.23,3.23,0,0,0-2-3.25,6.79,6.79,0,0,0-2.78-.47,3.56,3.56,0,0,0-1.43.16c-.18.12-.26.38-.26.79v6.77A13.79,13.79,0,0,0,225.22,13.52Z" fill="#fff"/><path d="M108.55,58.21c1.45-.12,2.35-.37,2.7-.78a4.94,4.94,0,0,0,.52-2.86V39.11a3.67,3.67,0,0,0-.58-2.5,4.6,4.6,0,0,0-2.64-.7v-.66H118.7v.66a4.52,4.52,0,0,0-2.7.69,3.62,3.62,0,0,0-.61,2.51v7.3c2.19-1.87,4-3.46,5.38-4.78q3.75-3.56,3.75-4.56a.92.92,0,0,0-.64-.94,5.62,5.62,0,0,0-1.8-.22v-.66h9.33v.66a7.76,7.76,0,0,0-2.69.66A13,13,0,0,0,126,38.71L119,45.16l8.48,9.16a31.14,31.14,0,0,0,3.16,3.09,5.19,5.19,0,0,0,2.45.8v.61H122.24v-.61a7.39,7.39,0,0,0,2-.24.7.7,0,0,0,.52-.72,2.14,2.14,0,0,0-.34-.91,7.92,7.92,0,0,0-1.07-1.41l-6.86-7.41-1.1,1V55c0,1.32.2,2.16.6,2.51a4.93,4.93,0,0,0,2.62.71v.61H108.55Z" fill="#fff"/><path d="M134.08,58.31a4.65,4.65,0,0,0,2.18-.5c.33-.26.5-.91.5-2V43.6a2.7,2.7,0,0,0-.5-2,3.89,3.89,0,0,0-2.18-.51v-.51h8.14v.51a3.85,3.85,0,0,0-2.17.51,2.7,2.7,0,0,0-.5,2V55.84c0,1.06.17,1.71.5,2a4.6,4.6,0,0,0,2.17.5v.51h-8.14Z" fill="#fff"/><path d="M143.11,58.31a3.35,3.35,0,0,0,2.19-.77,5.11,5.11,0,0,0,.48-2.78V42.64l-.37-.44a3.16,3.16,0,0,0-1-.88,3.85,3.85,0,0,0-1.27-.19v-.51h4.69l10.63,13.16V44.64c0-1.51-.23-2.49-.68-2.94a3.35,3.35,0,0,0-2-.57v-.51h6.46v.51a3.18,3.18,0,0,0-2.09.76,4.71,4.71,0,0,0-.53,2.77V59.14h-.47L147,44.05V54.76q0,2.27.66,2.94a3.35,3.35,0,0,0,1.92.61v.51h-6.46Z" fill="#fff"/><path d="M174.93,40.74a13.74,13.74,0,0,0,1.77.44,1.22,1.22,0,0,0,.84-.23,1.63,1.63,0,0,0,.42-.66h.61l.21,5.79h-.63a10.43,10.43,0,0,0-1.74-3,5.57,5.57,0,0,0-4.24-1.72,6.38,6.38,0,0,0-4.65,2c-1.34,1.34-2,3.54-2,6.62a8.34,8.34,0,0,0,2,5.93,6.51,6.51,0,0,0,5,2.14,9,9,0,0,0,1.17-.09,7.35,7.35,0,0,0,1.27-.3,3.7,3.7,0,0,0,1.22-.55.91.91,0,0,0,.25-.7V52.06q0-1.59-.45-2a3.54,3.54,0,0,0-2-.49v-.51h7v.51a2.6,2.6,0,0,0-1.36.34A2.16,2.16,0,0,0,179,51.7v5.41c0,.33-.79.75-2.37,1.29a14.08,14.08,0,0,1-4.56.81,10.17,10.17,0,0,1-6.8-2.35,8.68,8.68,0,0,1-3.05-7,9.57,9.57,0,0,1,2.43-6.58,9,9,0,0,1,7.1-3A11.19,11.19,0,0,1,174.93,40.74Z" fill="#fff"/><path d="M190,58.16a5.23,5.23,0,0,0,2.54-.7c.4-.33.59-1.17.59-2.5V39.11a3.75,3.75,0,0,0-.57-2.51,4.4,4.4,0,0,0-2.56-.69v-.66h9.6a19,19,0,0,1,8.22,1.6q6,2.86,6.05,10.26a12,12,0,0,1-1.09,5.06,10.37,10.37,0,0,1-3.28,4.06,11.36,11.36,0,0,1-2.88,1.58,19.61,19.61,0,0,1-6.72,1H190Zm7.18-.94a3.7,3.7,0,0,0,1.76.28,12.85,12.85,0,0,0,6.87-1.66q4.14-2.54,4.15-8.69,0-5.48-3.41-8.25a11.93,11.93,0,0,0-7.75-2.37,3.31,3.31,0,0,0-1.62.27c-.29.17-.43.55-.43,1.14V56.07A1.28,1.28,0,0,0,197.17,57.22Z" fill="#fff"/><path d="M213.77,58.82v-.51a2.23,2.23,0,0,0,1.59-.8,21.47,21.47,0,0,0,1.82-3.71l5.73-13.51h.55l6.86,15.6a6.68,6.68,0,0,0,1.09,1.92,2.64,2.64,0,0,0,1.38.5v.51h-7v-.51a6.32,6.32,0,0,0,1.56-.26c.23-.1.35-.36.35-.76a3.48,3.48,0,0,0-.14-.71,8,8,0,0,0-.37-1.07l-1.11-2.64h-7.25c-.71,1.8-1.14,2.9-1.28,3.29a3,3,0,0,0-.21,1,1,1,0,0,0,.57,1,5,5,0,0,0,1.31.24v.51Zm11.85-7.07-3.15-7.57-3.17,7.57Z" fill="#fff"/><path d="M239,40.62v.51a4.34,4.34,0,0,0-1.45.14.73.73,0,0,0-.48.76,1.32,1.32,0,0,0,.08.43,2.55,2.55,0,0,0,.36.69l4,5.94,4-6a2.42,2.42,0,0,0,.31-.64,1.6,1.6,0,0,0,.08-.38.77.77,0,0,0-.63-.78,4.67,4.67,0,0,0-1.29-.13v-.51h6v.51a2.79,2.79,0,0,0-1.49.49,10,10,0,0,0-2.29,2.65l-4.07,6.21v5.35c0,1.06.18,1.73.52,2a4.81,4.81,0,0,0,2.32.49v.51h-8.4v-.51a4,4,0,0,0,2.32-.56,3.54,3.54,0,0,0,.45-2.24V50.73l-3.6-5.28a33.37,33.37,0,0,0-2.62-3.5,2.64,2.64,0,0,0-1.83-.82v-.51Z" fill="#fff"/></svg>