<svg xmlns="http://www.w3.org/2000/svg" width="250" height="45" viewBox="0 0 250 45"><path d="M0 .7h39.69v8.26h-7.9c-2.01 0-2.98.06-2.98 2.8v31.73H11.06V10.83c0-1.66-.81-1.87-1.95-1.87H0V.7zm42.37 42.79h17.91V.7H42.37v42.79zm22.39 0h14.96V26.13c0-1.69 1.27-1.52 1.86-.17s8.36 17.53 8.36 17.53h14.79V.7H89.94v16.39L80.31.7H64.76v42.79zm44.78 0h18.08V27.65c0-1.1.34-2.2 1.86-2.2h8.7v-8.03h-10.56v-6.17c0-.93-.17-2.11 1.35-2.11h10.65V.7h-30.08v42.79zm33.63 0h17.74V.7h-17.74v42.79zm22.22 0h14.87V26.48c0-1.34 1.14-1.57 1.88.01s7.93 16.99 7.93 16.99h15.12V.7H190.4v16.81L181.03.7H165.4v42.79zm46.29-39.33c-3.91 3.57-3.06 11.56-1.19 14.36s17.5 8.07 20.39 9.35 2.46 4.08 2.46 7.05-3.74 2.97-5.61 2.12-1.53-8.75-1.53-8.75h-16.31s-1.15 8.75 4.33 12.49c4.3 2.94 13.08 3.4 15.89 3.4s15.12-.17 18.01-4.59 2.06-11.5 0-14.79c-2.67-4.29-18.02-9.08-19.38-9.68s-2.46-2.8-2.46-5.44 1.78-3.1 3.23-3.1 2.72.98 2.72 2.34v4.25h14.87V7.31c0-5.86-10.28-7.31-17.59-7.31-5.59 0-13.93.59-17.84 4.16z" fill="#fff"/></svg>