<svg xmlns="http://www.w3.org/2000/svg" width="220" height="168" viewBox="0 0 220 168"><g id="logos"><path d="M65.13,11.87,62.85,25.46s10.87-11,15-6.79-1.64,10.17-5.22,12c-.59.3-.59,1.31-.59,1.31a41,41,0,0,1,8-1.8c3.48-.27,9.25-.49,9.25-.49s-6.8-7.23-4.84-12.77S95,16.55,95,16.55s-3.1-8.48-.81-15.44c0,0-3.75-.49-9.41,5.11S74,14.48,70.3,14.81C65.46,15.24,65.13,11.87,65.13,11.87Z" fill="#fff"/><path d="M97.58,2a22.7,22.7,0,0,1,.64,15,37.18,37.18,0,0,1-6.66,12.29L104.1,29S100.2,26.4,101,22.4,104.84,18,107.26,19s2.81,5.43-.45,8.79c0,0,4.54.2,6.12-.64a18.91,18.91,0,0,1,4.39-1.34s-4.49-3-4.69-9.91S115.55,5.57,117,4,123.1.24,123.1.24s-2.17-.54-3.26,0S113.77,3.15,109,2.86c0,0,2.47,5.08.5,8.39s-5.53,4.29-7,1.53-.1-8,1.92-10.42Z" fill="#fff"/><path d="M129.32,15.69s-2.57,7.12-5.83,7.15c-4.59.05-5.87-5.57-5.87-5.57l14.16-3.7S130,4.14,124.28,4s-9.08,6.52-9.08,11.11,3.46,12.48,9.33,12.78,12.48-3.61,14-9C138.49,18.9,132.52,19.59,129.32,15.69ZM122.6,7.45c3-.2,3.46,3.11,3.46,3.11l-8.34,2.36S119.59,7.64,122.6,7.45Z" fill="#fff"/><path d="M11,42.77s-2.69,7.41-2.59,9.54c0,0-6.49-4.08-5.66-13.81S13,26.36,17.58,30.25s5.84,9,5.56,13.81S22,56.21,22,56.21s5.47-12.7,5.1-17.89h4.26s.28,15.38,3,16.68c0,0-2.5-12.6-.47-23.63s3.53-12.89,3.53-12.89,1.85,11.12,9.73,11.59c0,0-8.44-.19-10.2,10.19S37.6,57,39,58.52s3.52,3.71,3.52,3.71H32.32s1.3-8-2.87-8.71-4.36,4.63-3.9,5.65,1.86,4,1.86,4-7.7-.19-10.48,1.57a37,37,0,0,0,3.15-15.66c0-9.55-2.41-15.91-5.74-17.08S4.23,34.52,11,42.77Z" fill="#fff"/><path d="M46.69,33.4c-3.53.56-7.7,3.25-8.25,12.54s3.43,13.42,9.64,12.68S55,44.9,55,41,52.81,32.44,46.69,33.4Zm0,22.16c-.82-.1-4.57-3.34-5.31-7.23S42.61,38,45.2,38c2.25,0,1.73,5.35,1.55,6.78.67-4.42,5-10.36,5.59-2.61C53,50.07,47.52,55.65,46.71,55.56Z" fill="#fff"/><path d="M77.46,48.88s.09,5.47-2.32,5.56-3-9.63-2.78-13.81-.56-7.87-4.45-9.36c-2.83-1.08-6.2,4.37-7.83,7.41a78,78,0,0,1-.6-8.33l-5.1.64c1.85,1.86,3.15,12.89,3.15,18.54s.28,11.22-3.24,13.81-9.74-1.94-9.74-1.94l-.83,9.17c5.28,2.13,14.46-.93,17.52-4.45S63,54.91,61.24,46c-.32-1.59-.57-3.1-.78-4.52,1-1.88,2.56-4,4.21-4,3,0,3.61,6.4,3.24,14.28s2,14.18,7,14.27,6.4-6.4,6.4-6.4Z" fill="#fff"/><path d="M88.49,32.66c-5.47-1.76-14.18,0-14.18,0A66.94,66.94,0,0,1,80.05,48a88.75,88.75,0,0,1,1.86,15.85s13.71-.1,16.77-14.09S90.29,33.24,88.49,32.66ZM83.76,61.3V50.81a85.29,85.29,0,0,0-1.67-13.33c7.23,0,12.33,5.19,12.33,12.61S83.76,61.3,83.76,61.3Z" fill="#fff"/><path d="M97.76,33.68s5.65,8.4,4.07,17.13S95.35,63.16,91.08,64.73c0,0,9.92,1.67,14.83-4.26,0,0,.09,4.29,5.1,4.26,4.29,0,5.65-1.39,5.65-1.39s-7-2.22-7-5.74A22.49,22.49,0,0,1,112,46.75c2.87-5.93,6.77-7.88,6.77-7.88s-2.32,8,5.46,9.55,10.85-8.9,7.88-12.7-8.64-6.67-14.42-3-8.93,11.12-8.93,11.12,2-11.88-.56-12.85C108.23,31,102.67,35.54,97.76,33.68Z" fill="#fff"/><path d="M158,40.63a3,3,0,0,0,2.23,3.06c2.5.93,2.68,5,2.13,7s-4.45,8.16-2.5,11.78,6.48,2.59,7.78,1.29,4.64-3.86,4.64-3.86-1,4.42-2.23,5.72l10.1-.62s-3.8-8.28-3.33-15a116.51,116.51,0,0,1,1.85-13.44s-3.15,3.43-6.21,2.87c0,0,2,8.16-.09,13s-5.93,7.78-7.32,1.2,3.33-13.81,3.33-13.81S162.54,42,158,40.63Z" fill="#fff"/><path d="M187.94,42.49,198.51,46s3.24-6.4-1.58-11.4-12-3.54-14.09-1.12-4.08,5.38-2.69,8.72,10.48,7.69,11.59,10.66,1,7.88-3.34,6.39-5.09-6.95-4.07-8.8l-8.53,4.63s1.48,8.62,9.17,10.48,10.94-.28,12.33-4.54-.46-9.46-3.89-11.41-11-6.21-10.1-9.54,4.54-5.1,6.95-4S192.3,40.82,187.94,42.49Z" fill="#fff"/><path d="M44.3,75.88a6.64,6.64,0,0,0,1.48,4.89c1.94,2.63,4.5,5.51,4.5,5.51s-4.43,6.2-11.57,3.88S30.64,81.39,31,77s4.27-11.72,11.1-10.78S55.48,71,55.86,73.78s-.46,9.47-1.31,11.41-1,4.34,1.41,4.11,2.85-2.79,2.23-5a10.08,10.08,0,0,0-1.08-2.87s3.39.62,5.38-.47c0,0-2.59,3.49-1.74,5.67s3.42,4.19,4.5.15-2-18.86-2-18.86,8.38,2.33,13.58-.15c0,0-10,10.16-9.55,18.08s7,14.82,7,14.82-9.21-1.71-13.63.86c0,0,5.12-9.63-.94-10s-6.28,5.13-5.43,6.37S56.72,101,56.72,101l-13.89.47a22.66,22.66,0,0,0,8.69-13.82c2.09-9.62-.86-14.63-5.74-16.39s-9.63.72-9.16,5.84S43.6,81.31,44.3,75.88Z" fill="#fff"/><path d="M95.68,81.15c-.39-6.05-5.13-11-11-10.55-13.89,1.09-16.6,16.61-13,23.28s8.53,7.45,14.59,4S96.06,87.21,95.68,81.15Zm-6.83,9.08a8.25,8.25,0,0,1-14.54-.85C72,84,75.5,77.74,79,77.43s3.57,5.9,3.57,5.9,3-5.44,5.7-5.91S92.8,84,88.85,90.23Z" fill="#fff"/><path d="M94.42,72.85l6.84-2.28-.85,11.36s4.5-13,12.11-12.42,5.89,8.69,4.65,10.94-3,4-5.9,3.34-3.88-5.9-1.16-8.77c0,0-5.2-.23-5.9,7.22s3.32,15,3.32,15-3.4,2-8.33-3.26c0,0-2,5.12-6.71,4.73,0,0,4.66-6,4.89-12.57S96.5,74.09,94.42,72.85Z" fill="#fff"/><path d="M112.17,66.09s5.7,7.85,5.7,16.3-.08,15.8-2.56,16.32-4.58-4-4.58-4-.31,5.2,3,7.45,5.51-3.47,5.51-3.47a18.35,18.35,0,0,0,15.36,6c10-.77,12.42-4.84,12.42-4.84l-6-8.74s-1.7,3.65-7.45,4.82-10-1.4-11.09-6.76,6.36-21.49,6.36-21.49-4,3.12-7.22,2.84S112.17,66.09,112.17,66.09Z" fill="#fff"/><path d="M159.78,69.82c-5.2-3.72-14.44-4.35-17.77-3.73s-4.82,1.48-7.76.63c0,0,7.21,5.66,9.39,10.86s2.4,8.15,2.25,8.62c0,0-8.86-6.68-17-3.57,0,0,4.35,4.73,2.17,10.71,0,0,5.51-2.64,7.76-2.41s9.32,3.42,14.21,5.43,15.36,2.56,17.15-6S165,73.55,159.78,69.82Zm0,18.55c-5.36,2.64-11.1-.7-11.1-.7s.85-6.44,0-10.24-4.6-7.45-4.6-7.45c9.3.39,12.55,2.36,16.19,5.16S165.13,85.73,159.78,88.37Z" fill="#fff"/><path d="M95.7,103.73a7.88,7.88,0,0,0-5.51-3.32c-4.87-.56-8,3.28-7.84,5.46s3.61,6,6.53,6.4a7.33,7.33,0,0,0,6.57-2.37C97,108.32,96.84,105.47,95.7,103.73Zm-5.71,7c-1.42,0-2.73-2.33-3-3.71s-.08-3.41,1.38-3.49,2.14,1.55,2.14,1.55c.63-.84,1.86-2.22,3.24,0S91.42,110.69,90,110.73Z" fill="#fff"/><path d="M97.23,101.12s1.82,3.56,1.58,6.41a22.1,22.1,0,0,1-2.24,6.68l7.66.4s-4.6-4.27-3.52-5c1.78-1.18,5.9,2.73,5.9,2.73l.15-6s-3.36,2.09-5.38,1.1-2.65-4.87.72-5,7.55,2.77,7.55,2.77V98.55S106.62,101.76,97.23,101.12Z" fill="#fff"/><path d="M3.9,145.92s-2.33-3.82-.35-5,5.3,2.34,6.15,4.46c0,0-2.12-2-2.68-.57S8.5,148,10.55,149.1s6.44,4.53,7.65,3.82-1.35-6.51-6.44-7.57l3-5.38s3.89,7.25,6.37,6.52-3.54-10.06-4.6-10.62-2.69-1.49-3,0l-1.84-2.48s2.19-3.39,5.23,0c0,0,1.7-4.57,5.8-1.51,0,0-5.87-.47-3.25,3.71S37,150.87,37,150.87L30.58,157s-2.34-8.06-5.87-7.5-2.62,5-1.07,6.87a12.37,12.37,0,0,0,4.53,2.9L22,165.94a15,15,0,0,0-5-9c-4.46-3.75-9.48-7.85-10.68-7.85s-1.84,2.69-.07,5.17c0,0-7.07-3.27-6.16-6.73C.79,144.85,3.9,145.92,3.9,145.92Z" fill="#fff"/><path d="M47.07,142.45s-.07-9.13-2.2-11.63-6.3-4.22-10.19-.68A8.11,8.11,0,0,0,32,136.59c-3.92-5.19-6.48-14.66-6.48-14.66l-3.89,3.18a70.65,70.65,0,0,0,5.52,12.67c3.47,6,10.33,11.39,10.33,11.39l2.9-3.25s-3.34-3.23-7.06-7.7c0-2.52.38-7.68,4.3-7.09,5.17.78,4.32,12.52,4.32,12.52Z" fill="#fff"/><path d="M43.1,116c1.91-1.37,4.39-1.91,5.1-.42s-1,5.38-3.12,6.86-5.79,1-5.09-2.19A6.77,6.77,0,0,1,43.1,116Z" fill="#fff"/><path d="M43.46,124.69s6.44-2.69,8-4A5.25,5.25,0,0,0,50.6,126c1.21,3.12,3.19,6.09,4.74,6.87l-5.94,4.74s1.42-4-.35-7.36A16.38,16.38,0,0,0,43.46,124.69Z" fill="#fff"/><path d="M50.32,116.64s4.64-3.2,5-3.92c0,0,1.88,9.48,4.92,9.53s2.17-4.89,2.07-6.44-2.17-3.76-2.17-3.76l5-3.3s.88,11.39,2.11,15.36,2.53,7.37,3.46,8.14l-4.28,4.44s.46-6.4-.41-8.87-2.68-3.92-2.58-1A36.65,36.65,0,0,0,64.8,134L60.52,134a11.31,11.31,0,0,0,.31-6.34c-.93-2.93-2.63-2.16-2.63.83s2.32,8.66,2.32,8.66l-6,2.52s2.32-2.57,2.32-5.15-.72-9.74-2.06-12.11A40,40,0,0,0,50.32,116.64Z" fill="#fff"/><path d="M76.91,117.25l4.85-.25s0-5.06-4.07-6.7-8.3.1-9.44,4.69,3.87,6.59,6.76,7.32,6.34,2.52,6.34,4.89a2.06,2.06,0,0,1-3.72,1.44,6.51,6.51,0,0,1-1.28-3.14l-7,3.61s2.21,6,8.45,5.46,7.68-6,6.44-8.55-6.28-4.49-9.07-5.78-6.35-4.73-2.11-6.75C78.3,111,76.91,117.25,76.91,117.25Z" fill="#fff"/><path d="M90.18,113.52c1.71-.57,3.54.09,3.87,1.09s-1.83,3.21-4.35,3.73-4.58-.39-3.86-2.06S88.48,114.08,90.18,113.52Z" fill="#fff"/><path d="M86.66,121s4.76.82,7.43-1.09a7.3,7.3,0,0,1-1.4,4.26c-1.45,1.72.61,7.5.61,7.5s-5.42-.26-7.61.46c0,0,3-4.38,2.72-6.6A13.87,13.87,0,0,0,86.66,121Z" fill="#fff"/><path d="M106.76,119.47l-3.92,5.36s.21-3.71-1.6-3.76-4.12,3-4.12,6,2.11,2.88,3.25,2.63a8.14,8.14,0,0,0,2.37-1.14l2.37,5.1s-6.32,1.41-9.13-4.38a8.51,8.51,0,0,1,2.94-11C100.57,117.36,105.52,118.59,106.76,119.47Z" fill="#fff"/><path d="M118.15,119c-2.22-5.78-9.23,1.08-11.39,3.14s-2.89,6.34-.36,8.51,5.36.15,6.49-1.14a34.93,34.93,0,0,0,2.73-4s-.62,5-2,6.65l3.82-1.34S120.36,124.78,118.15,119Zm-5.26,4.69c-.82,1.29-4.84,5.56-5,2.57s5.51-7.06,5.88-6.08A4.49,4.49,0,0,1,112.89,123.7Z" fill="#fff"/><path d="M114.69,109.83s4.8,1.44,5.06,5.57,1.08,11,0,13.55-4.39,6-6.6,6.29c0,0,2.16,1.95,6.54-1.45a11,11,0,0,0,14.59,1.5s-2.94-4.69-2.21-7.11a4.7,4.7,0,0,1-4.33,2.94c-3.46.21-5.47-2.52-5.42-6.67s-.51-11.53-.31-12.4,2.94-1.55,4.64.56c0,0-1.29-5.6-3.19-5.48s-3.35,2.86-3.35,2.86S116.24,106.48,114.69,109.83Z" fill="#fff"/><path d="M145.43,124s-2.75,3.28-2,5.82c0,0-6.35.52-6.14-7.49s6.19-11.87,9.68-10.86,6.19,4.45,5.93,9.1a92.09,92.09,0,0,1-2,11.94,9.05,9.05,0,0,0,2.75-6l1.8.52s-3.07,5.4-1.11,7.09,6.92-10.68,6.55-15.07l12.27,3S162,124.54,159,132.15s-2.8,10.57-2.8,10.57l-7-1.85s4.17-3.68,1.69-5.34c-3.54-2.38-5.24,3.81-5.24,3.81l-7.14-1.91s7.35-2.74,9.26-7.4,3.33-11.58-.79-13-6.33,2.08-6,4.92C141.41,126,145.43,124,145.43,124Z" fill="#fff"/><path d="M167.48,126.59c2.44-1,4.08.43,4.34,1.38s-1.16,2.75-4.76,2.75-3.76-.85-3-1.9A11.6,11.6,0,0,1,167.48,126.59Z" fill="#fff"/><path d="M164.1,132.89s3.28,2.43,6.56.79a11.43,11.43,0,0,1-2.44,2.86c-1.58,1.32-4.23,5.29-4.12,7.67,0,0-3.76-2.23-5.82-1.86,0,0,4.44-1.69,5.13-3.8S162.72,133.15,164.1,132.89Z" fill="#fff"/><path d="M173.46,125.11s2.48-.74,2.48,1.43-2.58,9.79-4.09,12-5.36,6.13-8.14,6.34c0,0,.95,2.7,6.12,0,0,0-.39,5.45,5.06,4.87s4-6.51,4-6.51-1.53,2.86-4.17,2.38-2.44-2.43-1.49-4.33,3.12-10.42,3.65-11,3.07-1.75,3.23-.64a28,28,0,0,1,0,3.76s3.38-4.34,1.75-6.14-4.92,1.19-4.92,1.19,1.37-4.63-.59-5.26S173.46,125.11,173.46,125.11Z" fill="#fff"/><path d="M185.62,133.63s1.43-.64,1.75,0-2.38,6.87-2.91,7.46-7.67,7-7.67,7,1.22.9,3.49-.58c0,0,1.06,5.55,5.4,7.72s6,2.33,6,2.33l.32-8s-5.87,1.74-7-1.22,2.16-9,3.22-10.26,4.07-2.54,5.29-1.22c0,0,.32-3.65-1.22-3.75a4.71,4.71,0,0,0-3,1.32s.46-3.91-.74-4.18C186.36,129.77,185.62,133.63,185.62,133.63Z" fill="#fff"/><path d="M200.91,137.38l5.87,3.07s-8.94.74-8.89,5.08,6,7.56,8.89,7.3,5.08-1.64,5.08-4.61a27.63,27.63,0,0,0-1-6.45l9.15,6.08s-4.13,9.89-9.57,10.42a31.91,31.91,0,0,1-9.47-.42s-3.07,2.86-2.54,9.94l-6.56-9.25s5.35,1.85,7.25-3.76c0,0-7.15-4.34-6.19-8.78C194.35,139.39,200.91,137.38,200.91,137.38Z" fill="#fff"/><path d="M149.57,33.78c-5.75-1.58-12.33,3.61-15.3,9.26s-1.76,17.52,7.42,16.78,12.88-9.73,13.53-15S153.78,34.93,149.57,33.78ZM143.7,41c.84-1.45,1.81-2.47,2.15-2.27s0,1.54-.89,3-1.8,2.47-2.15,2.27S142.86,42.5,143.7,41ZM141,54.2c-3.57-1-2.23-8.17-2.23-8.17s.3,11.8,8.25,4C147.05,50,145.65,55.43,141,54.2Zm5.64-10.59c-.61,1.06-1.31,1.8-1.57,1.66s.05-1.12.66-2.19,1.31-1.8,1.56-1.66S147.28,42.55,146.67,43.61Z" fill="#fff"/></g></svg>