<svg xmlns="http://www.w3.org/2000/svg" viewBox="0 0 300 75"><g fill="#fff" stroke-width="0"><path d="M161.53 64.97c-.49.07-.81.2-1.1.14-.76-.14-1.56-.25-2.26-.57-.76-.35-.71-1.02-.25-1.65.93-1.28 3.9-2.44 5.42-2.02.5.14 1.03.46 1.35.86 1.38 1.74 2.02 4.34-.37 5.99-2.66 1.83-5.58 2.88-8.77 3.15-2.34.19-4.16-1.17-6.04-2.27a.356.356 0 0 1-.14-.16c-.85-2.58-2.95-4.78-2.4-7.78.21-1.14.35-2.32.75-3.39 1.67-4.43 3.68-8.72 6.08-12.81.6-1.03.5-1.23-.7-1.3-2.04-.12-4.09-.26-6.13-.3a3.79 3.79 0 0 0-1.86.48c-3.03 1.75-6.04 3.56-9.04 5.37-3.68 2.22-7.28 4.61-11.05 6.67-3.65 1.99-7.48 3.66-11.23 5.45-2.83 1.36-5.61 2.87-8.52 4.01-6.12 2.39-12.27 4.69-18.5 6.79-2.46.83-5.14 1.14-7.74 1.43-2.82.32-5.68.31-8.52.49-2.15.14-3.55-1.34-5.2-2.27a.603.603 0 0 1-.25-.35c-.45-1.95-.98-3.88-1.26-5.85-.09-.6.45-1.33.81-1.94 1.45-2.48 2.85-5 4.47-7.36.78-1.13 1.92-2.09 3.07-2.87 1.41-.95 3.22-1.4 4.47-2.5 1.63-1.44 3.41-1.4 5.22-1.16 1.29.17 2.67.58 3.75 1.27 1.58 1.01 1.69 2.62.58 4.18-1.39 1.95-3.46 2.89-5.64 3.56-1.07.33-2.05-.87-1.57-1.9.44-.95 1.11-1.78 1.62-2.7.22-.41.27-.91.4-1.37-.47-.04-.98-.21-1.4-.1-2.61.71-4.95 1.95-7.06 3.63-2.03 1.61-3.47 3.72-4.34 6.08-.75 2.03.13 5.24 3.58 6.01 2.04.46 4.21.6 6.31.52 1.98-.08 3.97-.54 5.91-1.01 4.04-.99 8.09-1.98 12.06-3.21 4.71-1.46 9.34-3.16 13.73-5.46 3.13-1.65 6.3-3.24 9.39-4.96 1.85-1.02 3.55-2.3 5.39-3.35 2.06-1.18 4.22-2.17 6.27-3.35 1.9-1.09 3.72-2.31 5.57-3.48.07-.05.09-.18.22-.45-.47-.06-.87-.17-1.26-.16-2.67.03-5.34.15-8 .12-4.42-.05-8.84-.27-13.26-.25-3.94.02-7.88.29-11.82.39-9.5.23-19 .4-28.5.65-3.98.11-8 .83-11.92.46-5.6-.53-11.15 0-16.72.03-7.35.06-14.66-.6-22-.69-.8 0-2-.03-2.02-1.05-.02-1.03 1.17-.79 1.86-.79 4.09-.02 8.19-.17 12.26.1 8.79.6 17.57 1.14 26.38 1.03 9.32-.12 18.64-.27 27.95-.52 6.6-.17 13.2-.54 19.81-.8 3.87-.15 7.73-.26 11.6-.43 1.85-.08 3.7-.32 5.55-.4 1.38-.06 2.77.02 4.16.05 2.21.05 4.43.46 6.53-.72.66-.37 1.6-.52 2.34-.38 2.11.39 3.69-.61 5.24-1.73 2.89-2.1 5.82-4.16 8.61-6.4 3.67-2.94 7.3-5.94 10.81-9.08 2.58-2.31 4.88-4.92 7.37-7.33 1.1-1.06 2.38-1.92 3.51-2.96 1.34-1.23 2.6-2.56 3.91-3.82 1.99-1.92 4.41-1.86 6.88-1.38.62.12.84.59.46 1.17-1.21 1.82-2.35 3.69-3.68 5.42-3.04 3.96-6.31 7.74-9.23 11.78-2.77 3.83-5.21 7.9-7.8 11.87-.1.15-.21.3-.27.47-.12.33-.2.66-.29 1 .38.05.76.19 1.12.14 2.75-.38 5.49-.89 8.26-.31 1.24.26 2.45.7 3.61 1.19.79.33.63.94.11 1.49-1.51 1.61-3.37 2.4-5.58 2.34-2.92-.07-5.84-.16-8.77-.25-1.66-.06-1.86 0-2.47 1.53-.37.92-.56 1.92-.83 2.88-.02.07-.02.15-.04.22-.35 1.4-.25 2.04.23 3.29.45 1.17.74 2.41.08 3.59-.83 1.49-3.32 1.53-4.64.13-1.33-1.42-1.39-2.76-.36-4.42 1.27-2.03 2.47-4.11 3.65-6.2.16-.28.01-.73 0-1.1-.32.26-.7.48-.94.8-.25.34-.27.85-.54 1.18-2.63 3.25-4.09 7.13-5.87 10.82-1.35 2.81-1.71 5.86-1.12 8.98.39 2.07 1.59 3.08 3.68 2.85 1.66-.18 3.31-.52 4.93-.94.9-.23 1.67-.81 1.95-2.03zm-10.14-25.55c.03.11.05.21.08.32 1.43 0 2.87.06 4.29-.03.47-.03 1.06-.34 1.36-.72 2.06-2.55 4.06-5.15 6.07-7.74.09-.12.11-.3.17-.45l-.16-.13c-3.94 2.92-7.88 5.84-11.81 8.77zm19.1-12.09l-.33-.24c-2.19 2.64-4.58 5.13-5.98 8.37l6.3-8.13z"/><path d="M300 42.21c-.34.28-.64.63-1.02.82-7.33 3.55-14.79 6.84-22.53 9.41-5.06 1.68-10.19 3.13-15.3 4.63-1.11.33-2.29.46-3.45.61-2.72.35-5.43.72-8.16.96-1.64.15-3.17-.36-4.56-1.26-.27-.18-.57-.32-.87-.45-1.87-.77-2.58-2.27-1.87-4.16.32-.85.69-1.73 1.26-2.41 2.12-2.57 4.45-4.92 7.39-6.6 1.46-.83 2.91-1.67 4.34-2.55.53-.33.96-.8 1.44-1.2-.05-.11-.11-.22-.16-.32-.25.03-.51 0-.74.09-1.75.62-3.46 1.35-5.24 1.88-2.24.67-4.44.71-6.51-.72-.33-.23-1.14.05-1.64.28-1.35.62-2.59 1.56-3.99 1.97-1.33.38-2.8.31-4.21.32-.77 0-1.04.19-1.2.99-.2 1.01-.56 2.07-1.15 2.89-1.66 2.32-3.6 4.32-6.32 5.54-3.11 1.39-6.27 2.17-9.65 1.83-1.07-.11-2.15-.42-3.16-.81-1.19-.46-1.85-1.48-2.26-2.67-.23-.68-.51-1.34-.91-2.34-1.54 1.34-3 2.42-4.24 3.71-2.59 2.67-5.88 3.48-9.37 3.52-1.25.02-2.63-.69-3.72-1.42-.55-.37-.79-1.53-.77-2.32.04-1.71 1.04-3.06 2.13-4.32 1.71-1.99 3.39-4 5.08-6.01.08-.1.1-.24 0-.59-1.55.77-3.1 1.54-4.66 2.3-4.64 2.27-8.32 5.73-11.9 9.33-.52.52-1.25.86-1.94 1.14-.28.11-.86-.06-1.04-.3-.16-.22-.09-.79.09-1.06 1.17-1.76 2.48-3.43 3.58-5.24.8-1.31 1.33-2.78 1.98-4.18l-.27-.24c-.36.17-.78.28-1.09.52-3.71 2.95-7.4 5.93-11.11 8.88-1.17.93-2.35 1.85-3.59 2.68-.4.27-1.01.23-1.53.33-.06-.59-.33-1.27-.12-1.75.39-.91.9-1.9 1.64-2.51 3.12-2.57 6.33-5.04 9.53-7.5 1.76-1.35 3.59-2.62 5.39-3.93 1.58-1.16 3.41-1.68 5.32-1.83 1.43-.12 2.13.61 2.28 2.06.04.41.12.82.19 1.33.31-.12.48-.16.63-.25 2.47-1.54 4.91-3.14 7.43-4.61 2.21-1.28 4.46-.81 6.58.34.83.45 1.08 1.93.38 2.86-1.01 1.33-2.17 2.54-3.36 3.71-2.16 2.12-4.41 4.13-6.56 6.26-.74.73-1.33 1.64-1.86 2.54-.62 1.06-.23 1.88.99 1.82 1.43-.07 2.91-.35 4.25-.85 3.05-1.14 5.5-3.28 8.08-5.18.52-.38 1.12-.8 1.38-1.35 1.64-3.5 4.44-5.69 7.9-7.18 3.2-1.38 6.48-2.32 10-1.79 1.79.27 3.63.55 4.65 2.4.13.24.63.43.94.41 1.18-.11 2.45-.1 3.52-.53 2.66-1.07 5.03-2.63 6.86-4.9.23-.28.47-.6.78-.76.36-.2.86-.43 1.18-.31.29.11.54.64.61 1.02.28 1.6 1.51 3.11 3.18 3.11 2.94 0 5.91-.16 8.82-.58 1.95-.29 3.82-1.14 5.72-1.78.65-.22.96.02.91.62-.04.44-.17 1-.47 1.28-.85.79-1.81 1.46-2.74 2.17-2.89 2.21-5.85 4.34-8.63 6.67-1.11.94-1.91 2.29-2.69 3.55-.42.69-.63 1.56-.73 2.38-.26 2.05.27 2.68 2.3 2.83.9.07 1.83.08 2.71-.06 2.47-.39 4.93-.87 7.39-1.32 6.2-1.14 12.2-2.99 18.1-5.18 4.04-1.5 8.04-3.12 12.12-4.47 2.38-.79 4.9-1.14 7.13-2.39.26-.15.65-.07.98-.09.05.1.09.21.14.31zm-85.53 7.34c-.03 1.57.81 2.41 2.27 2.01 2.8-.76 5.58-1.64 8.28-2.7 1.25-.49 2.31-1.48 3.42-2.3.61-.44.79-1.09.32-1.73-.75-1.02-1.52-2.03-2.39-2.93-.34-.36-.98-.61-1.47-.59-.63.02-1.33.23-1.86.57-2.25 1.47-4.5 2.94-6.63 4.57-1.01.77-2 1.76-1.94 3.09zM281.22 26.58c.23.15.75.35.74.53-.02.31-.28.72-.57.89-1.3.77-2.62 1.51-3.97 2.18-.74.37-1.53.67-2.33.86-.28.07-.78-.19-.96-.45-.11-.15.13-.72.36-.89.64-.46 1.34-.87 2.06-1.2 1.25-.58 2.53-1.1 3.8-1.63.23-.1.48-.16.86-.28zM270.41 36.34c-.48-.47-1.01-.76-1.15-1.18-.12-.37.05-1.06.35-1.3.61-.49 1.35-.92 2.11-1.07.48-.1 1.28.19 1.56.58.23.31.09 1.26-.22 1.52-.72.59-1.65.93-2.64 1.46zM121.46.18l2.37-.08c1.97-.07 3.3-.1 3.99-.1 2.14 0 3.8.22 5 .67 1.2.45 2.09 1.06 2.67 1.83.58.77.88 1.65.88 2.66 0 .73-.16 1.39-.48 1.99-.32.6-.76 1.1-1.31 1.5s-1.2.7-1.93.91c-.73.21-1.43.34-2.09.39s-1.58.08-2.78.08h-6.38v-.34h.59c.62 0 1.04-.05 1.28-.16s.39-.27.46-.5.1-.75.1-1.58V2.66c0-.79-.03-1.3-.1-1.53a.723.723 0 0 0-.42-.48c-.22-.09-.69-.13-1.42-.13h-.42V.18zm4.43.21v6.63c0 .98.03 1.61.08 1.9.05.28.21.48.48.6.27.11.83.17 1.68.17 1.25 0 2.28-.12 3.09-.35.81-.24 1.48-.7 2.02-1.4s.81-1.58.81-2.66c0-.84-.16-1.59-.47-2.25-.31-.66-.77-1.19-1.35-1.61-.59-.41-1.24-.69-1.95-.84-.71-.15-1.63-.22-2.75-.22-.54 0-1.08.01-1.63.04zM149.88 6.94h.51l-.31 3.09h-11.92v-.34h.3c.71 0 1.18-.07 1.38-.2s.34-.3.4-.5.08-.72.08-1.55V2.58c0-.76-.03-1.25-.09-1.49a.7.7 0 0 0-.41-.5c-.22-.1-.67-.14-1.36-.14V.1h10.28l.34 2.47h-.5c-.23-.69-.5-1.18-.83-1.47-.33-.29-.72-.47-1.17-.55-.45-.08-1.18-.11-2.19-.11h-2V4.6h1.53c.7 0 1.19-.04 1.47-.12.28-.08.46-.21.55-.38.09-.17.13-.5.13-.98h.5v3.4h-.5c0-.55-.07-.92-.2-1.11-.13-.19-.33-.31-.59-.37-.26-.06-.69-.08-1.31-.08h-1.58v2.35c0 1.18.11 1.87.33 2.07.22.21.81.31 1.77.31h1.07c.76 0 1.38-.07 1.87-.2s.95-.41 1.4-.83.79-.99 1.05-1.72zM164 7.1l-.11 2.92h-12.23v-.34h.42c.62 0 1.04-.05 1.28-.16s.39-.27.46-.5.1-.75.1-1.58V2.58c0-.79-.03-1.3-.1-1.53a.723.723 0 0 0-.42-.48c-.22-.09-.69-.13-1.42-.13h-.32V.1h6.91v.34h-.64c-.71 0-1.17.04-1.39.12-.22.08-.37.23-.44.45s-.11.74-.11 1.57v5.19c0 .72.03 1.17.08 1.35.06.18.21.32.46.42s.79.15 1.62.15h1.09c.88 0 1.54-.05 1.97-.16s.83-.34 1.22-.7c.39-.36.74-.93 1.06-1.72h.5zM15.79 33.49l8.57-19.47h7.22v.8h-.87c-1.16 0-1.91.1-2.27.29s-.6.55-.72 1.07-.18 1.76-.18 3.71v11.54c0 1.85.05 3.06.14 3.64.09.57.33 1 .7 1.28.38.28 1.1.42 2.16.42h1.04v.8H20.34v-.8h.83c.99 0 1.69-.13 2.07-.38.39-.25.64-.65.75-1.19.11-.54.16-1.79.16-3.76V16.47l-9.32 21.1h-.82L4.63 16.45v13.78c0 1.89.06 3.17.17 3.85.12.68.47 1.28 1.08 1.8.6.51 1.45.81 2.53.88v.8H0v-.8c1.01-.06 1.82-.33 2.46-.82.63-.49 1.01-1.1 1.15-1.81.14-.72.21-2.05.21-3.99V19.9c0-1.87-.05-3.08-.16-3.63-.11-.54-.34-.92-.69-1.13-.35-.21-1.13-.31-2.32-.31H.01v-.8h7.17L15.8 33.5zM51.03 14.02h7.86v.8c-1.04.07-1.82.3-2.33.7-.51.4-.83.85-.95 1.34-.12.5-.17 1.46-.17 2.9v7.83c0 2-.08 3.49-.23 4.46-.16.97-.61 1.93-1.35 2.86-.75.94-1.8 1.68-3.15 2.24-1.35.56-2.92.83-4.69.83-2.09 0-3.87-.36-5.32-1.07-1.45-.71-2.49-1.63-3.11-2.76-.62-1.13-.93-2.64-.93-4.54l.02-2.41v-7.32c0-1.87-.06-3.08-.16-3.63-.11-.54-.34-.92-.69-1.13-.35-.21-1.13-.31-2.32-.31h-.54v-.8h10.74v.8h-.47c-1.16 0-1.91.1-2.27.29s-.6.55-.72 1.07-.18 1.76-.18 3.71v7.41c0 2.57.12 4.39.36 5.47s.9 2.02 2 2.82c1.1.8 2.56 1.21 4.39 1.21 1.43 0 2.74-.27 3.91-.81s2.05-1.21 2.62-2.01c.57-.8.92-1.63 1.05-2.48s.19-2.19.19-4.02v-8.02c0-1.33-.08-2.26-.23-2.79-.15-.53-.47-.95-.97-1.27s-1.28-.5-2.36-.57v-.8zM81.54 38.09L64.9 16.04v16.33c0 1.35.07 2.24.2 2.67.13.43.51.82 1.14 1.18.62.36 1.56.54 2.81.54v.8h-8.78v-.8c1.12-.08 1.98-.29 2.57-.62s.94-.69 1.05-1.07c.11-.38.16-1.28.16-2.71V19.88c0-1.8-.08-3.01-.25-3.63-.17-.61-.43-1.01-.8-1.18-.36-.17-1.18-.26-2.44-.26v-.8h6.94l13.93 18.41V18.35c0-1.04-.11-1.77-.32-2.19-.21-.42-.65-.75-1.31-.99s-1.45-.36-2.38-.36v-.8h8.54v.8c-.99.08-1.78.27-2.35.57-.57.3-.94.66-1.09 1.08-.16.42-.23 1.14-.23 2.14v19.47h-.75zM87.14 14.22l3.87-.19c3.23-.16 5.4-.24 6.52-.24 3.49 0 6.22.53 8.17 1.6 1.95 1.06 3.41 2.51 4.36 4.33.95 1.82 1.43 3.92 1.43 6.31 0 1.72-.26 3.3-.78 4.73-.52 1.43-1.24 2.61-2.14 3.56-.91.94-1.96 1.66-3.16 2.15-1.2.49-2.33.8-3.41.92s-2.59.18-4.55.18H87.02v-.8h.97c1.01 0 1.7-.13 2.09-.38.39-.25.64-.65.75-1.19.11-.54.16-1.79.16-3.76V20.09c0-1.87-.06-3.09-.16-3.64-.11-.55-.34-.93-.69-1.13-.35-.2-1.13-.3-2.32-.3h-.69v-.8zm7.26.48v15.72c0 2.33.04 3.82.13 4.49.09.67.35 1.14.78 1.41.43.27 1.35.41 2.75.41 2.05 0 3.73-.28 5.05-.84s2.42-1.67 3.31-3.31c.89-1.65 1.33-3.75 1.33-6.31 0-1.99-.26-3.77-.77-5.33s-1.25-2.83-2.21-3.81-2.02-1.64-3.19-2c-1.17-.35-2.67-.53-4.49-.53-.88 0-1.77.03-2.67.09zM115.15 25.63c0-3.63 1.21-6.55 3.64-8.75s5.46-3.3 9.09-3.3 6.73 1.09 9.19 3.26c2.46 2.17 3.69 5.14 3.69 8.9s-1.18 6.59-3.53 8.85c-2.35 2.26-5.45 3.38-9.29 3.38s-6.8-1.13-9.2-3.38-3.59-5.25-3.59-8.97zm3.97.12c0 3.78.75 6.62 2.26 8.52 1.51 1.9 3.77 2.85 6.79 2.85 2.65 0 4.74-.95 6.28-2.85 1.54-1.9 2.31-4.73 2.31-8.49s-.76-6.46-2.27-8.41c-1.52-1.95-3.71-2.92-6.59-2.92s-5.01.95-6.52 2.85c-1.51 1.9-2.26 4.72-2.26 8.44z"/></g></svg>