<svg xmlns="http://www.w3.org/2000/svg" viewBox="0 0 280 77"><path d="M10.78 12.5h1.19v1.3c0 .81.66 1.46 1.46 1.46h4.11v14.99c0 .81.66 1.46 1.46 1.46h1.19v1.3c0 .81.66 1.46 1.46 1.46h10.56c.81 0 1.46-.66 1.46-1.46V15.27h6.75v14.99c0 .81.66 1.46 1.46 1.46h1.19v1.3c0 .81.66 1.46 1.46 1.46h10.56c.81 0 1.46-.66 1.46-1.46v-7.68h.92v4.92c0 .81.66 1.46 1.46 1.46h1.19v1.3c0 .81.66 1.46 1.46 1.46h10.56c.81 0 1.46-.66 1.46-1.46v-1.3h1.15l-.32.68c-.21.45-.18.98.09 1.41s.73.68 1.23.68h8.66c.57 0 1.09-.34 1.33-.86l.94-2.06h8.89c.2.1.41.15.64.15h.45l.87 1.91c.24.52.76.86 1.33.86h12.02c.5 0 .97-.26 1.23-.68s.3-.95.09-1.41L99.3 4.78c-.24-.51-.76-.84-1.33-.84h-.43l-.9-1.92c-.24-.51-.76-.84-1.33-.84h-9.32c-.57 0-1.09.33-1.33.84L73.57 25.75V5.41c0-.81-.66-1.46-1.46-1.46h-1.19v-1.3c0-.81-.66-1.46-1.46-1.46H58.9c-.81 0-1.46.66-1.46 1.46v7.29h-.92V5.42c0-.81-.66-1.46-1.46-1.46h-1.19v-1.3c0-.81-.66-1.46-1.46-1.46H41.85c-.81 0-1.46.66-1.46 1.46v1.3h-1.18v-1.3c0-.81-.66-1.46-1.46-1.46H10.78c-.81 0-1.46.66-1.46 1.46v8.4c0 .81.66 1.46 1.46 1.46zm75.25-9.86h9.32L97.9 8.1l10.36 22.16H96.24l-1.33-2.92h-11.8l-1.33 2.92h-8.17v-1.05L86.02 2.64zm-33.58 0v8.75h6.5V2.64h10.56v27.62H58.95v-9.15h-6.5v9.15H41.89V13.85 5.41 2.64h10.56zm-41.67 0h27v8.39h-8.22v19.22H19V11.04h-8.22v-8.4z" fill="#fff"/><path fill="#fff" d="M86.65 19.83h4.69l-2.35-5.08-2.34 5.08zM104.84 12.5h1.19v1.3c0 .81.66 1.46 1.46 1.46h4.11v14.99c0 .81.66 1.46 1.46 1.46h1.19v1.3c0 .81.66 1.46 1.46 1.46h10.56c.81 0 1.46-.66 1.46-1.46V15.27h6.76c.81 0 1.46-.66 1.46-1.46V9.32c.57 1.13 1.46 1.85 2.19 2.44.2.16.37.3.51.43.19.37.42.69.67.98v.09c0 .55-.48 1.06-1.01 1.06-.81 0-1.46.66-1.46 1.46s.66 1.46 1.46 1.46c1.2 0 2.37-.21 3.46-.61-.19.27-.49.45-.81.45-.81 0-1.46.66-1.46 1.46s.66 1.46 1.46 1.46c2.72 0 5.26-1.07 7.17-3.01 1.15-1.18 1.99-2.6 2.47-4.16.41 2.13 1.54 3.96 3.4 5.51-.38.05-.73.24-.97.55l-3.89 4.95c-.44.56-.41 1.37.07 1.89.76.83 1.55 1.58 2.35 2.26.06.18.16.36.3.51 4.25 4.63 9.13 6.88 14.91 6.88 4.13 0 7.69-1.11 10.32-3.21 2.35-1.88 3.78-4.47 3.92-7.1.17-3.35-1.19-6.12-4.14-8.38-.11-.16-.22-.33-.35-.49.25-.11.47-.29.63-.53l3.49-5.35c.42-.65.27-1.51-.35-1.97-.62-.47-1.32-.95-2.08-1.43.06-.5-.14-1.01-.57-1.34-3.22-2.41-8.29-5.29-14.18-5.29-6.89 0-11.21 3.62-12.57 7.74a6.59 6.59 0 0 0-3.16-4.14c-1.08-2.14-3.29-3.61-5.84-3.61-2.84 0-5.25 1.85-6.14 4.41-.25-.45-.72-.76-1.27-.76h-1.19v-1.3c0-.81-.66-1.46-1.46-1.46h-27c-.81 0-1.46.66-1.46 1.46v8.4c0 .81.66 1.46 1.46 1.46zm58.63-10.74c3.43 0 6.65 1.05 9.46 2.54.68.36 1.33.74 1.96 1.14.04.03.09.06.13.08.25.16.5.33.74.49.07.04.13.09.2.13.28.2.55.39.82.59l-3.49 5.35c-3.18-1.99-6.1-2.87-7.73-2.87-.66 0-1.28.27-1.28.75 0 .27.04.47.24.69.34.35 1.11.71 2.85 1.35 3.54 1.28 5.84 2.72 7.3 4.24 1.87 1.95 2.35 4.01 2.25 5.97-.22 4.2-4.51 8.93-12.77 8.93h-.02c-.34 0-.67-.01-1-.03-.11 0-.22-.02-.34-.02-.22-.02-.44-.03-.65-.05-.13-.01-.26-.03-.39-.05-.19-.02-.38-.05-.57-.08a4.75 4.75 0 0 1-.4-.07c-.18-.03-.35-.07-.53-.11l-.4-.09c-.17-.04-.34-.09-.51-.13-.13-.04-.26-.07-.39-.11-.22-.07-.43-.14-.65-.21-.22-.07-.43-.15-.64-.24-.11-.04-.22-.08-.33-.13-.17-.07-.34-.15-.5-.22-.1-.04-.19-.09-.29-.13-.17-.08-.34-.17-.51-.26-.08-.04-.16-.08-.23-.12l-.54-.3-.15-.09c-1.12-.66-2.16-1.44-3.13-2.32-.58-.52-1.14-1.07-1.67-1.65l3.89-4.95c1.83 1.54 3.79 2.63 5.39 3.26.02 0 .05.02.07.03.1.04.2.08.3.11.05.02.09.03.14.05.09.03.17.06.26.09.06.02.12.04.18.05.08.03.17.05.25.07.11.03.21.06.31.08l.14.03c.07.02.15.03.22.04.04 0 .09.01.13.02l.21.03c.03 0 .07 0 .1.01.09 0 .19.01.27.01 1.19 0 2.03-.49 2.03-1.19 0-.43-.2-.74-.81-1.09-.63-.36-1.7-.78-3.44-1.43-.33-.13-.65-.26-.96-.39l-.15-.06c-.29-.13-.56-.25-.83-.38l-.18-.09c-.26-.13-.5-.26-.74-.39-.06-.03-.11-.06-.17-.1-.22-.12-.43-.25-.63-.38-.05-.03-.11-.07-.16-.1-.18-.12-.36-.24-.53-.36-.06-.05-.13-.09-.19-.14-.17-.13-.33-.26-.49-.39-.07-.06-.14-.11-.2-.17l-.42-.39-.19-.19-.27-.3c-.08-.1-.17-.19-.24-.29l-.22-.28-.16-.22c-.92-1.34-1.32-2.82-1.32-4.44 0-4.68 4.33-9.15 11.58-9.15zm-21.57 0c1.32 0 2.52.52 3.43 1.35.13.12.25.24.36.37.11.13.22.26.32.39l.01.01c.09.13.18.26.26.4 0 .01.02.02.02.04.08.13.14.26.21.4.01.02.02.04.03.07.06.13.11.26.15.39.01.03.03.06.04.1.04.13.07.25.11.38l.03.12c.03.13.05.26.06.39 0 .04.01.08.02.13.02.18.03.35.03.53 0 .21 0 .43-.02.64 0 .05 0 .1-.01.15-.02.21-.04.42-.07.62v.03c-.03.2-.07.39-.11.58 0 .04-.02.09-.03.13-.05.2-.1.39-.16.59 0 .01 0 .03-.01.04-.06.18-.12.36-.19.54-.01.03-.03.07-.04.1-.07.19-.15.37-.24.56 0 .01-.01.02-.02.04-.08.17-.17.35-.27.51a.21.21 0 0 1-.04.06c-.1.18-.21.35-.32.52 0 0-.01.02-.02.02-.11.17-.23.33-.36.49 0 0-.01.02-.02.02-.13.17-.27.33-.41.48-.86.95-1.93 1.69-3.12 2.18-.99.4-2.07.62-3.21.62 1.05 0 1.98-.72 2.33-1.7.03-.08.05-.16.07-.24v-.03c.02-.07.03-.15.04-.23v-.05c.01-.09.02-.18.02-.27 0-.1 0-.19-.02-.28 0-.03 0-.05-.01-.08 0-.06-.02-.12-.03-.18 0-.03-.01-.06-.02-.08-.02-.06-.03-.12-.06-.18 0-.02-.01-.04-.02-.07-.03-.08-.06-.15-.1-.22 0-.02-.02-.03-.03-.05a.864.864 0 0 0-.1-.16c-.02-.03-.03-.05-.05-.08l-.09-.12c-.02-.03-.04-.05-.06-.08-.03-.04-.07-.08-.1-.12-.02-.02-.04-.05-.06-.07-.05-.06-.11-.11-.16-.16-.03-.03-.07-.07-.11-.1l-.07-.07c-.04-.04-.09-.08-.13-.12a.138.138 0 0 0-.04-.03c-.47-.4-1.01-.79-1.47-1.26-.67-.68-1.19-1.54-1.19-2.9 0-2.78 2.25-5.08 5.04-5.08zm-37.06.88h27v8.4h-8.22v19.22h-10.56V11.04h-8.22v-8.4zM194.51 31.72h1.19v1.3c0 .81.66 1.46 1.46 1.46h8.4c.81 0 1.46-.66 1.46-1.46v-6.61l1.38 2.08c.27.41.73.65 1.22.65h5.3v1.12c0 .81.66 1.46 1.46 1.46h1.19v1.3c0 .81.66 1.46 1.46 1.46h10.56c.81 0 1.46-.66 1.46-1.46V5.71l10.76 14.39v10.16c0 .81.66 1.46 1.46 1.46h1.19v1.3c0 .81.66 1.46 1.46 1.46h10.56c.81 0 1.46-.66 1.46-1.46V22.86l12.43-16.58a1.46 1.46 0 0 0-1.17-2.34h-1.8l.32-.42a1.46 1.46 0 0 0-1.17-2.34h-10.39c-.46 0-.89.21-1.17.58l-4.15 5.49-2.04-2.72c-.24-.32-.61-.52-1-.57l-1.65-2.2c-.28-.37-.71-.59-1.17-.59h-14.41c-.55 0-1.06.31-1.31.81s-.2 1.09.14 1.53l.33.44c-.05 0-.1-.02-.16-.02h-1.19v-1.3c0-.81-.66-1.46-1.46-1.46h-10.34c-.48 0-.94.24-1.21.64l-4.28 6.31-2.4-3.54c-.27-.4-.72-.64-1.21-.64l-1.44-2.12c-.27-.4-.73-.64-1.21-.64h-10.34c-.81 0-1.46.66-1.46 1.46v27.62c0 .81.66 1.46 1.46 1.46zm50.5-29.08l.98 1.3.32.43 4.27 5.69 5.61-7.42h10.39l-.98 1.3-11.75 15.67v10.65h-10.56v-8.99-1.66l-8.28-11.07-4.41-5.9h14.41zm-50.5 0h10.34l.88 1.3 4.99 7.36 5.88-8.66h10.34v27.62h-10.56V18.81l-4.07 6.1h-5.35l-4.07-6.1v11.45h-8.4V2.64zM227.31 62.35c.76.84 1.74 1.33 2.81 1.33.12 0 .23 0 .34-.02.07 0 .13-.02.2-.03 2.17-.36 3.87-2.81 3.87-5.83 0-1.57-.46-3-1.21-4.06 0-.01-.02-.03-.03-.04-.07-.1-.14-.19-.22-.28-.03-.03-.05-.07-.08-.1-.07-.08-.14-.15-.21-.22l-.12-.12c-.07-.06-.13-.12-.2-.18l-.15-.12c-.06-.05-.13-.1-.19-.14l-.18-.12c-.06-.04-.12-.08-.19-.11-.07-.04-.14-.07-.21-.1-.06-.03-.12-.06-.18-.08-.08-.03-.16-.06-.23-.08-.06-.02-.11-.04-.17-.05-.09-.02-.18-.04-.28-.06-.05 0-.09-.02-.14-.03-.14-.02-.29-.03-.43-.03-2.43 0-4.42 2.65-4.42 5.92 0 1.84.63 3.47 1.61 4.54zm2.8-.13h-.08c-.14-.51-.22-1.06-.22-1.64 0-2.42 1.35-4.46 2.96-4.46h.08c.15.52.23 1.09.23 1.69 0 2.39-1.35 4.41-2.96 4.41z"/><path d="M278.54 45.28h-1.19v-1.3c0-.81-.66-1.46-1.46-1.46h-8.4c-.81 0-1.46.66-1.46 1.46v6.74l-4.77-4.98-.01-.01-2.64-2.75c-.28-.29-.66-.45-1.06-.45h-7.78c-.81 0-1.46.66-1.46 1.46v10.18a16.289 16.289 0 0 0-4.47-5.81c-3.08-4.07-8.08-6.72-13.72-6.72-7.63 0-14.09 4.84-16.2 11.48v-6.37c0-.81-.66-1.46-1.46-1.46h-1.19v-1.3c0-.81-.66-1.46-1.46-1.46h-10.56c-.81 0-1.46.66-1.46 1.46v5.72l-.01-.01c-.62-.47-1.32-.95-2.08-1.43.06-.5-.14-1.01-.57-1.34-3.22-2.41-8.29-5.29-14.18-5.29-8.47 0-13.04 5.47-13.04 10.61 0 2.98 1.18 5.44 3.58 7.43-.38.05-.73.24-.97.55l-3.09 3.93V46.75c0-.81-.66-1.46-1.46-1.46h-1.19v-1.3c0-.81-.66-1.46-1.46-1.46h-10.56c-.81 0-1.46.66-1.46 1.46v1.3h-1.36l.32-.68c.21-.45.18-.98-.09-1.41s-.73-.68-1.23-.68h-8.66c-.57 0-1.09.33-1.33.85l-4.54 9.79-3.28-7.02c-.24-.51-.76-.84-1.33-.84h-.43l-.9-1.92c-.24-.51-.76-.84-1.33-.84h-12.46c-.5 0-.97.26-1.23.68s-.3.95-.09 1.41l.44.95c-.24-.16-.52-.26-.83-.26h-1.19v-1.3c0-.81-.66-1.46-1.46-1.46H87.61c-.81 0-1.46.66-1.46 1.46v20.54a1.32 1.32 0 0 0-.39-.06h-1.19v-1.3c0-.81-.66-1.46-1.46-1.46h-8.04V46.79c0-.81-.66-1.46-1.46-1.46h-1.19v-1.3c0-.81-.66-1.46-1.46-1.46H60.4c-.81 0-1.46.66-1.46 1.46v1.4c-.16-.06-.34-.1-.52-.1h-1.19v-1.3c0-.81-.66-1.46-1.46-1.46H33.05c-.81 0-1.46.66-1.46 1.46v1.37c-.14-.04-.28-.07-.43-.07h-1.19v-1.3c0-.81-.66-1.46-1.46-1.46H1.46c-.81 0-1.46.66-1.46 1.46v8.4c0 .81.66 1.46 1.46 1.46h1.19v1.3c0 .81.66 1.46 1.46 1.46h4.11v14.99c0 .81.66 1.46 1.46 1.46h1.19v1.3c0 .81.66 1.46 1.46 1.46h10.56c.81 0 1.46-.66 1.46-1.46V56.64h6.76c.15 0 .29-.03.43-.07v15.07c0 .81.66 1.46 1.46 1.46h1.19v1.3c0 .81.66 1.46 1.46 1.46h22.72c.81 0 1.46-.66 1.46-1.46V73c.16.06.34.1.52.1h1.19v1.3c0 .81.66 1.46 1.46 1.46h22.72c.81 0 1.46-.66 1.46-1.46v-1.36c.13.04.26.06.39.06h1.19v1.3c0 .81.66 1.46 1.46 1.46h22.72c.81 0 1.46-.66 1.46-1.46v-8.44c0-.81-.66-1.46-1.46-1.46h-1.19v-1.3c0-.49-.25-.93-.62-1.19v-4.97c0-.14-.02-.27-.05-.39h1.86c.81 0 1.46-.66 1.46-1.46v-8.25l11.83 25.33c.24.51.76.84 1.33.84h.43l.9 1.92c.24.51.76.84 1.33.84h8.44c.57 0 1.09-.33 1.33-.84l11.29-24.16v20.78c0 .81.66 1.46 1.46 1.46h1.19v1.3c0 .81.66 1.46 1.46 1.46h10.56c.81 0 1.46-.66 1.46-1.46v-6.54c.53.54 1.07 1.04 1.63 1.5.06.18.16.36.3.51 4.25 4.63 9.13 6.88 14.91 6.88 4.13 0 7.69-1.11 10.32-3.21 1.45-1.16 2.55-2.6 3.21-4.14v2.24c0 .81.66 1.46 1.46 1.46h1.19v1.3c0 .81.66 1.46 1.46 1.46h10.56c.81 0 1.46-.66 1.46-1.46V62.54c.94 2.94 2.73 5.52 5.11 7.49 3.08 4.07 8.09 6.73 13.74 6.73 6.95 0 12.94-4.01 15.54-9.74v4.62c0 .81.66 1.46 1.46 1.46h1.19v1.3c0 .81.66 1.46 1.46 1.46h8.4c.81 0 1.46-.66 1.46-1.46v-6.76l4.77 5s.05.04.07.06l2.58 2.7c.28.29.66.45 1.06.45h7.78c.81 0 1.46-.66 1.46-1.46V46.77c0-.81-.66-1.46-1.46-1.46zM9.68 71.59V52.37H1.46v-8.4h27v8.39h-8.22v19.22H9.68zm23.33 0V43.97h22.72v8.39H43.58v1.86h8.88v7.07h-8.88v1.86h12.15v8.44H33.01zm24.18-7.14v-1.3c0-.49-.25-.93-.62-1.19v-4.97c0-.14-.02-.27-.05-.39h1.86c.18 0 .36-.04.52-.1v8.06c-.16-.06-.34-.1-.52-.1h-1.19zm3.17 7.14V43.97h10.56v19.18h12.15v8.44H60.35zm27.22 0V43.97h22.71v8.4H98.14v1.86h8.88v7.07h-8.88v1.86h12.15v8.44H87.58zm39.54-27.62l.61 1.3 5.98 12.79 6.54-14.1h8.66l-.61 1.3L136 71.58h-8.44l-12.9-27.62h12.46zm25.62 27.62V47.68l.15-.32c.21-.45.18-.98-.09-1.41a.555.555 0 0 0-.06-.08v-1.9h10.56v27.62h-10.56zm15.02-5.52l3.89-4.95c.65.55 1.32 1.04 1.98 1.47 1.2.79 2.38 1.38 3.41 1.79.02 0 .04.02.07.03.1.04.2.08.3.11.05.02.09.03.14.05.09.03.18.06.26.09.06.02.11.03.17.05.09.03.18.05.27.08.1.03.2.05.29.08.05.01.1.02.14.03.07.02.14.03.21.04.04 0 .09.02.13.02l.21.03c.03 0 .07 0 .1.01.09 0 .18.01.27.01 1.19 0 2.03-.49 2.03-1.19 0-.11-.01-.21-.04-.31-.21-.68-1.22-1.09-4.2-2.21-.33-.13-.65-.26-.96-.39l-.15-.06c-.29-.13-.56-.25-.83-.38l-.18-.09c-.26-.13-.51-.26-.74-.39-.06-.03-.11-.06-.16-.09-.22-.12-.43-.25-.63-.38-.05-.03-.1-.07-.16-.1-.18-.12-.36-.24-.53-.37-.06-.04-.12-.09-.18-.13-.17-.13-.33-.26-.49-.39l-.2-.17c-.15-.13-.29-.26-.42-.39a3.32 3.32 0 0 1-.18-.19c-.1-.1-.19-.2-.28-.3-.08-.09-.16-.19-.23-.28-.08-.1-.15-.19-.22-.29l-.16-.22c-.92-1.34-1.32-2.83-1.32-4.44 0-4.68 4.33-9.15 11.58-9.15 3.43 0 6.65 1.05 9.46 2.54.68.36 1.33.74 1.96 1.14.04.03.08.05.13.08.25.16.5.33.74.5l.19.13c.28.2.55.39.82.59l-3.49 5.35c-3.18-1.99-6.1-2.87-7.73-2.87-.66 0-1.28.27-1.28.75 0 .27.04.47.24.69.34.35 1.11.71 2.85 1.35 3.54 1.28 5.84 2.72 7.3 4.24 1.87 1.95 2.35 4.01 2.25 5.97-.22 4.2-4.51 8.93-12.77 8.93h-.02c-.34 0-.67-.01-1-.03-.11 0-.23-.02-.34-.02-.22-.02-.44-.03-.65-.05-.13-.01-.26-.03-.39-.05-.19-.02-.38-.05-.57-.08a4.75 4.75 0 0 1-.4-.07c-.18-.03-.35-.07-.53-.11l-.4-.09c-.17-.04-.34-.09-.51-.13-.13-.04-.26-.07-.39-.11a7.75 7.75 0 0 1-.63-.21l-.66-.24c-.11-.04-.22-.08-.33-.13-.17-.07-.34-.15-.5-.22-.09-.04-.19-.09-.28-.13-.17-.08-.35-.17-.52-.26-.08-.04-.16-.08-.23-.12l-.54-.3-.15-.09c-1.12-.67-2.16-1.45-3.13-2.32-.58-.52-1.14-1.07-1.67-1.65zm26.58-8.05c-.11-.16-.22-.33-.35-.49.25-.11.47-.29.63-.53l3.16-4.83v10.07c-.67-1.57-1.81-2.97-3.44-4.22zm4.9 13.57V43.97h10.56v27.62h-10.56zm15.41-13.79c0-8.13 6.94-14.72 15.47-14.72 2.95 0 5.7.79 8.05 2.15.25.15.5.3.75.47.06.04.11.08.17.11.2.13.39.27.58.41.05.04.11.08.16.12.47.36.91.74 1.33 1.15l.14.14c.16.16.32.33.48.5.05.05.1.11.15.16.18.2.35.4.51.6.02.02.03.04.05.06a11.516 11.516 0 0 1 .62.85c.13.19.25.38.37.57.04.07.08.14.13.21.12.2.23.4.34.61.03.05.05.1.08.15.13.26.26.52.37.78l.06.15a12.57 12.57 0 0 1 .35.9c.07.21.14.41.2.62.02.07.04.14.06.22.08.28.15.56.21.85 0 .04.01.08.02.12.05.25.09.5.13.75.01.09.02.18.04.27.03.21.05.43.07.64 0 .09.02.17.02.26.02.3.03.6.03.9 0 8.13-6.94 14.67-15.47 14.67-.34 0-.67-.01-1-.03-.09 0-.18-.01-.27-.02-.27-.02-.54-.05-.8-.08-.06 0-.13-.01-.19-.02-.32-.04-.64-.1-.96-.16-.06-.01-.13-.03-.19-.04-.26-.06-.52-.12-.78-.19l-.22-.06c-.63-.18-1.23-.39-1.82-.64-.06-.02-.12-.05-.18-.08-.28-.12-.55-.24-.81-.38-.02 0-.03-.02-.05-.02-.3-.15-.59-.31-.87-.48-.03-.02-.05-.03-.08-.05-.26-.16-.52-.32-.77-.49-.03-.02-.05-.03-.08-.05-.55-.38-1.07-.79-1.56-1.23l-.04-.04c-1.25-1.13-2.3-2.46-3.1-3.94-1.08-2-1.69-4.27-1.69-6.68zm35.12 13.79V43.97h7.78l9.58 10.01.36.38V43.97h8.4v27.62h-7.78l-9.94-10.43v10.43h-8.4z" fill="#fff"/></svg>