<?xml version="1.0" encoding="UTF-8"?><svg id="a" xmlns="http://www.w3.org/2000/svg" viewBox="0 0 220 149"><path d="M85.41,146.66c-1.06.38-2.36.17-3.29,1.03-.48-.11-1.16-.11-1.61.15-3.58.13-7.25-.55-10.74-1.41-.28-.39-.69-.63-1.29-.46-.59-.52-1.17-.91-2-.97-1.33-1.11-3.07-1.51-4.17-2.93-2.62-1.42-4.41-4.18-6.17-6.52-.81-.79-2.35-3.53-2.92-4.53-.17-.29-.84.29-1.02.63-1.01.21-2.2.79-3.23,1.16-.61-.25-1.17.04-1.49.49-.81-.06-1.86.17-2.65.41,0,0-7.37.77-7.37.77-2.42-.29-5.32-.5-7.75-.72-1.06-.9-2.74-.9-4-1.5-1.65-1.02-2.04-.37-4.93-2.24-.77-.65-2.11-1.13-2.87-1.71,0,0-1.54-1.27-1.54-1.27-.44-.14-.88-.39-1.07-.74-.69-.32-1.24-.68-1.61-1.4l-1.04-.56c-.06-.62-.91-.83-1.2-1.19-2.51-3.19-5.73-6.29-7.23-10.1-.44-.27-.84-.46-.72-1.09l-.82-.83c-.41-1.61-1.65-3.82-2.04-5.45-1.96-8.46.98-17.32,5.32-24.53,1.1-2.41,3.54-4.65,5.08-6.77.45-1.42,1.62-.97,1.83-2.26.89.24.87-.53,1.11-.94,0,0,.69.12.69.12l.86-1.35c.57.3.51.07.71-.33,1.25-.96,3.12-2.38,4.65-2.8.17-.49-.13-.64.56-.48,1.64-1.19,3.99-1.29,5.66-2.42,2.81-.06,5.5-1.46,8.41-1.14,2.94.65,4.14-3.36,6.1-4.92.13-.65.41-.72.88-1.11,1.82-1.6,4.05-3.77,6.09-5.15,0,0,2.28-1.25,2.28-1.25.7.01,1.27-.31,1.69-.72l2.29-.74,2.99-.39c1.56-.73,6.28-.79,7.54.29l1.59-.03c.58,1.19,2.12.86,3.13,1.48,0,0,2.01.97,2.01.97l1.66,1.18.84.22c.24.65.67,1.08,1.35,1.26l.67.9,1.17.64.61-.87c-.06-.74-.02-1.5.57-2.04-.11-.81.01-1.45.79-1.92l.06-1.31c.71-.88,1.2-1.93,1.35-3.05.99-1.74,2.04-4.08,2.66-5.99,0,0,.55-.99.55-.99,1.15-.9,1.07-2.56,2.28-3.41-.08-.9.4-1.66,1.15-2.16.38-1.47,1.81-2.82,2.63-4.07.27-1.21,1.47-1.25,2.01-2.8,2.64-3.26,5.66-6.53,8.91-9.14,1.36-1.6,3.31-3.32,5.19-4.26,6.64-5.1,14.61-8.73,22.69-10.57l.96.09,1.52-.67c.84-.36,2.84.29,4.25-.46,1-.46,2.09-.12,3.11-.12l3.54-.02c1.21-.53,2.12.48,2.54-.51.77.03,2.06-.21,2.45.71l2.75.26.33-.54s1.06-.11,1.83.57c.49.43,1.77.14,2.37.39,3.65,1.33,8.23,1.42,11.59,3.73,3.62.79,5.11,2.35,8.88,4.17.43.3.73,1.2,1.34,1.27,1.28.12,1.9,1.15,2.79,1.9.5.19,1.24.51,1.52.81.94,1.3,2.47,2.11,3.58,3.21.8.9,1.97,2.1,2.96,2.8,1.08,1.03,1.97,3.07,3.36,3.66,2.49,3.52,5.4,7.23,7.25,11.05,0,0,.96,1.04.96,1.04,1.02,3.17,3.28,6.32,3.84,9.67.65.59.88,1.82,1.04,2.68.03.67.76.45.53,1.63.42,1.87,1.45,4.44,1.64,6.35.18.86,0,2.19.49,2.97l-.15,1.12c.48.31.19.99.26,1.33l.59,2.86c.29,1.4-.44,2.7.05,3.65.1,1.05-.48,2.7.11,3.63-.17.67-.31,1.53.02,2.11.54,1.13-.09,2.89-.08,4.11.13,2.32-.63,1.69-.88,3.14,0,0-.1,2.19-.1,2.19.49.46.58.87-.14,1.1.34.66,1.07,1.56,1.67,2.08,0,0,1.67,1.14,1.67,1.14.7.16,1.19.58,1.49,1.13.58.24,1.02.64,1.35,1.15,0,0,1.16.7,1.16.7.93,1.18,2.28,3.08,3.24,4.2,1.85,2.92,3.32,6.42,2.93,9.97.74,2.78-1.22,6.13-1.55,8.94-.47.58-.8,1.35-1,2.06-.26.27-.92.8-1.07,1.18-.52,1.34-1.19,2.41-2.39,3.25-1.4,2.77-4.62,3.94-7.03,5.67,0,0-5.08,1.8-5.08,1.8-.43.13-1.17-.54-1.64.21-3.81-1.86-6.26.78-7.85,4.06-.39.8-1.63,1.59-2.4,3.25-.54.21-.95.83-1.54.86-6.15,5.9-14.66,8.62-22.83,9.91-6.86.7-13.88.12-20.54-1.96-1.63-.7-4.11-2.32-5.86-2.52-.38-1.17-1.47-.75-1.93-1.63l-1.42-.84c-.18.08-.34.11-.11-.23-1.02-.7-2.73-2.39-3.65-3.22-.29-.27-.69.94-1.34.58l-.93.96-.23-.15-1.67.78-.54.75c-.79-.28-1.5.1-1.95.71-.85-.1-1.68.33-2.42.85-1.01-.22-1.85.07-2.64.66-2.65-.15-4.67,1.15-7.29.76,0,0-1.71-.16-1.71-.16-1.12.64-3.29-.15-4.45-.33-1.39-.16-4.5-.66-5.84-.96,0,0-1.56-.79-1.56-.79l-1.87-.18c-.32.35-.73.99-1.32.86-.32.28-.86.89-1.22,1.06-.42.22-.94.27-.8.91-.53.11-1.03.45-1.4.85-1.05.15-1.75,1.37-2.82,1.76-1.28.83-3.07,1.38-4.53,1.88ZM83.1,143.17c5.27-1.41,9.98-4.91,13.61-8.85.47.13.85.06,1.23-.11.48.18,1.41.62,1.84.9.21.53.75.74,1.43.61-.01.48.02.56.53.63,0,0,1.55.37,1.55.37.8.75,7.82,1.12,8.92,1.28.7-.45,2.15-.37,2.95-.5.37-.71,1.64-.23,2.21-.15,0,0,2.56-.84,2.56-.84.78.21,1.02.09,1.56-.45,0,0,1.1-.3,1.1-.3l1.02.08c.63-.98,1.5-.51,2.27-1.31l1.56-.64c.4-.06.58.09.53-.5,2.04-.33,2.41-2.86,4.36-3.37l1.14.62c.98,3.1,4.16,4.46,6.33,6.56,0,0,1,.48,1,.48,1.42,1.17,3.75,1.45,5,2.8l1.61.05c.51,1.37,10.47,1.93,12.39,2.17,1.02-.59,2.48.16,3.58-.13,0,0,2.6-.37,2.6-.37l.35-.39c2.01-.44,4.39-.45,6.24-1.51.23.09.91.2,1.03-.03.36-.63,1.37-.54,1.87-.81.81-.43,2-.99,2.83-.95.11,0,.35-.44.3-.54-.04-.08.34,0,.42-.04,3.5-1.89,7.32-4.37,9.45-7.82.72-.71,1.98-2.42,2.54-3.27,1.19-1.69,2.05-1.57,2.72-2.8,0,0,.33-.03.33-.03,3.41-.46,8.16.21,11.38-1.79.06-.31.05-.28.02-.11l.31.09c2.03-1.35,4.62-3.3,5.97-5.26.05-.26-.04-.64.37-.64.78-1.49,1.86-1.53,1.61-3.13,3.16-4.88,2.35-11.88-.54-16.48-.82-.54-1.27-1.63-2.19-2.05-.13-.08.02-.55.03-.61l-1.19-.29c-.66-2.23-4.1-3.35-5.91-4.7,0,0-1.39-.76-1.39-.76-1.15-1.32-.17-4.02.55-5.43-.02-.91,1.04-7.45.46-8.15.02-5.17.03-10.77-1.22-15.79.04-.6.23-.96-.43-1.28-.63-4.67-2.5-9.33-3.88-13.79-1.22-1.38-1.56-3.26-2.7-4.67-.02-.73-.27-1.31-.77-1.72-.06-.59-.3-1.17-.75-1.59l-1.98-3.49c-.61-.21-.89-.69-.93-1.33-1.72-1.92-3.78-4.46-5.34-6.53-1.71-1.69-4.28-3.75-6.09-5.55-1.56-.5-2.4-2.15-3.7-2.87-2.31-1.12-5.06-3.35-7.47-4.23-.47-1.01-1.31-.27-1.93-.99-.74-.25-2.14-.85-2.92-1.16-1.28-.52-1.82-1.51-3.38-1.33-.88-1-1.93.12-2.71-.96-3.71-.63-7.5-2.01-11.43-1.9-3.28.06-7.35-.07-10.48.58l-.85-.02c-.58,1.39-2.12-.67-4.22,1.4-4.35.31-8.98,2.57-13.07,4.16-.45.78-3.71,2.25-4.49,2.67,0,0-1.49.84-1.49.84-1.48.84-1.66,1.58-2.2,1.31l-2.31,2.29c-.74-.18-2.46,1.53-3.02,1.86,0,0-1.32,1.21-1.32,1.21-.25.23-.51.88-.86,1.06-1.29,1.38-3.44,3.44-4.6,4.94-.64.3-.92.87-.97,1.52-6.6,7.52-10.65,16.49-13.41,26.08-.71.27-1.3,1.83-1.34,2.74-.05.26.12.73-.32.7-.43,1.14-1.33,3.45-1.79,4.58l-1.3-.44c-1.22-2.84-3.92-4.93-6.1-7.02-.74-.18-1.62-.42-1.79-1.29-2.98-.39-1.78-1.38-3.29-1.49-3.05-.63-6.14-.86-9.26-.88-.27-.07-.63.17-.77.48-3.03.12-5.58,2.2-8.18,3.31-.16.43-.57.77-1.11.91-.15.48-.57.86-1.1,1.05-1.32,1.85-3.6,3.46-4.43,5.61-2.03.61-1.67,4.3-4.16,3.55-4.39-.6-9.48.24-13.55,2.07-.26.46-.61,1.01-1.34.88l-1.08.76-.65-.04-.92.94c-.38-.17-.84.11-.87.47-.05.53-.57.46-.79.63l-2.64,2.11c-.2.52-.2,1.02-.96.81l-.73,1.55-.61.1c-2.16,2.44-4.43,5.52-5.57,8.58-.54.39-.89.93-.87,1.6l-.91,2.34c-1.13,1.02-1.27,3.54-1.61,4.94-.69,1.62-.65,4.01-.68,5.77,0,0,.09,2.24.09,2.24l.4,1.39c-.06.65-.21.65.45.96.15.69.45,1.7.47,2.43.59.05.94.78.91,1.42.85,1.11,1.42,2.67,2.29,3.84.56.9,1.03,2.07,2.05,2.61.07.62.46,1.18,1.08,1.31,2.99,3.92,7.09,7.89,11.74,9.69,1.1.47,1.32,1.22,2.61,1.28,1.32.49,2.65,1.42,4.11,1.3.78,1.28,5.47.8,7.07,1.21,5.72.12,12.25-1.74,17.06-4.82,1.79.32,1.86.59,2.12,2.36.51.3.73.74.47,1.3l.9.89c1.25,3.62,4.57,6.7,7.3,9.29,0,0,1.32.76,1.32.76.91.06,1.73,1.37,2.73,1.61,1.34.23,2.16,1,3.53,1.22,3.23.62,7.24,1.31,10.39.13Z" fill="#fff"/><path d="M150.12,73.8c-1.38-.44-2.51-1.73-3.9-2.25-.83-.85-1.72-2.02-2.37-3.04-.43-1.07-1.85-2.59-1.41-3.8-1.86-.56-2.5,2.02-3.48,3.06,0,0-1.23,1.02-1.23,1.02l-1.31.89c-.48.05-.72.12-1.09.39-2.04.92-4.77.13-6.85-.41-.61-1.28-2.6-1.12-2.7-2.8-1.27-.87-1.25-2.47-1.98-3.66l.52-5.24c.76-.84,1.79-2.06.75-3.08l-.79,1.28c-.45-.03-1.42.13-1.86.24l-.4-1.04.2-2.04c.05-.51,1.06-1.07,1.23-1.55l.64-1.77c-.26-1.28-1.26-2.34-1.71-3.54-.66-.34-1.54-.25-1.95.41-2.46,1.44-2.39-2.55-.87-3.33.68-.47,1.5-.83,2.31-1.07.24-.08.66.78,1.47,1.19.7.14,1.02.65,1.39,1.14.52.65,1.48,2.02,1.91,2.73.63.22,1.93-1.39,2.44-1.68,1.03-.56.79-1.57.92-2.51.15-1.22.13-3.26.56-4.35.79-.45.42-.53-.08-.88.13-1.58.34-3.76.51-5.33.86-.51.23-1.11.04-1.75-.38-.37-1.34-.56-1.92-.64-.54-.81-2.34-.98-3.19-1.15-1.01-.23-2.25-.66-3.22-.05-.17.39.14,1.13.15,1.53-.04,1.19.09,2.82.09,4.01-.3,3.6-1.12,4.43-4.12,3.43,0,1.22-.36,1.98-1.6,2.04-.51.12-1.08.34-1.34-.32.11-.58.22-.48-.38-.64-.11-.03-.32.25-.34.36-.18.8-1.08,1.25-1.67,1.58-.21.06-.56.49-.46-.07-1.5-.07-2.1-2.13-.81-2.98l.73-2.34c.28-.13.74-.46.85-.74-.42-.21-.98-.36-1.32-.36-.93.88-2.66.81-2.96-.45,0,0,.18-1.78.18-1.78l1.47-.84c.09-.05.48.2.53.12.29-.46.52-.91,1.2-.82,0,0,1.78-.42,1.78-.42.19-.86.98-.55,1.31-.7.63-.4,1.22-.89,2.04-.79.23-.19,2.06-1.02,2.13-1.28-.27-.89-.88-1.52-1.9-1.29-1.17-1.4-1.49-1.88-.76-3.64,1.29-1.26,2.07-1.04,3.66-1.11,0,0,2.17-.47,2.17-.47.2-.04.63-.27.82-.22.23.06.69.22.82.1l.54-.47c.88-.22.97-1.04,1.88-1.03l.33-.62c1.6-.63,3.01-1.76,4.21-2.98,0,0,2.05-.9,2.05-.9.76.04,1.79-.72,2.27.21,1.23-.08,2.32.62,3.46.97,1.91.79,4.07,3.43,6.3,2.3l2.24.17c1.17.09,1.28-.72,2.16-.53.65-.25,1.32-.25,2.07-.07,1.27-.6,3.03-.14,3.85.95.62.51,1.75.6,2.29,1.11.5.47,1.01.44,1.61.72.71.33,3.13,1.49,3.82,1.75.31.78.26.75,1.1.85.78.28,1.71,1.16,2.49,1.28,1.75.96,4.17,2.32,6.04,3.05.95.63,2.2,1.11,2.92,2.02,0,0,1.18.53,1.18.53.63,1.16,2.12,1.43,3.07,2.25.66.4,1.83,1.41,2.69,1.39.49.79,1.24,1.2,2.25,1.3,1,.96,1.15,1.8.65,3.04-.55,1.46-4.12.26-5.37.34,0,0-2.39-.07-2.39-.07-1.04-.01-2.51.4-3.53.22-1.73-.14-3.28.46-4.92.79-2.39-.19-2.31,3.34-2.7,4.91-.44,1.3-1.04,3.08-1.34,4.42-.16,1.93-.67,3.88-1.58,5.62-.1.21.52.74.71.64l.93-.5c.79-.22,2.23-.79,3.01-1.27l1.95.15c.7.91,2.54,1.69,2.15,3.09l.55,2.49c-.58.53-.98.85-1.66,1.17l-1.14-.58c.1-.85-.78-1.13-.53-2.12l-.34-.85c-.85.15-1.74.43-2.64.35l-1.44,1.39c1.11,1.76,1.13,3.93.4,6.23-.68,2.07,3.28,1.96,3.23,4.45.24,2.54-.72,4.15-1.89,6.11-.62-.1-.9-.1-1.12.59-.12.31-.1.59-.55.44-1.2.96-3.14,2.3-4.24.59l.08-1.71,1.49-1.11c.63-.1,1.09-.44,1.18-1.08.59-.13.8-.72.67-1.33.6-.63.7-1.13.18-1.8-.4-.94-1.52-2.17-1.67-3.12,0,0,.05-2.06.05-2.06-.16-.71-.53-1.41.48-1.9l-1.17-2.49c-.35.37-.46.53-1.07.28-1.49.25-.4,2.97-.71,4.04-.13.93-.15,2.88-.52,3.7-1.25,3.27-3.74,4.82-6,5.16-1.56.3-3.36.99-4.88.25ZM134.53,19.92l1.54-.25,1.9.11c.17.04.54.18.43-.16-.65-.35-1.55-.16-1.86-1.27l-1.6-.26c-.31.61-.58.71-1.04.65l-1.25,1.24-1.28.28,2.41.41.77-.76ZM140.64,31.24c.98-.23,1.81.22,2.16,1.17,1.14-.06,2.15.36,2.9,1.15,1.64.2,2.15,1.99,3.86,1.91.41.75,1.12,1.2,2.07,1.2,1.19,1.19,2.23,2.33,4.02,2.5.93-.51,1.94-1.13,3.1-.81,1.39-.62,3.01-.81,4.44-.94.73.25,1.15-.12,1.87-.23l2.82-.42.3-.41c1.03-.19,2.79-.3,3.83-.31,0,0,1.19-.55,1.19-.55,1.61-.49,3.99.41,5.5-.06-.32-.33-.91-.66-.61-1.22-.69-.24-1.91-.2-2.15-1.07-2.71-1.5-6.03-3.72-8.89-4.9-.87-.37-1.6-1.33-2.63-1.17-.31-.75-1.42-1.01-2.05-1.36-1.51-.92-3.94-1.8-5.53-2.57-.65-.33-1.44-1.03-2.08-1.44,0,0-1.51-.22-1.51-.22-.62.04-2.59-.59-2.93.19l-1.11.1c1.54,1.64,2.8,1.96,4.88,2.15,1.54.43,3.27,1.26,4.42,2.4.5.68.91,1.79.47,2.64-.68,1.47-1.13.82-2.35,1.86l-1.23.23c-1.23.25-3.4-.79-4.56-1.16-.37-.5-.92-.59-1.32-.83-2.61-1.81.43-4.08-2.65-4.76-.99-.68-2.93-1.76-4.15-1.88-.92.2-1.85.41-2.81.4-.83-.31-1.41.21-2.18.14-.86.39-2.45.29-3.39.4-.69.14-2.08.46-2.77.63-1.84.39-3.53-.24-5.41.16-.55.21-2.11.48-2.7.57.77.4,1.33.9,2.34.74l1.49,1.12c2.2-.17,3.91,1.48,5.93,1.86.81.06,2.08-.1,2.63.67,1.07.98,3.04.3,4.81,2.11ZM163.42,50.38l.22-2.26c.06-.66-.07-1.21.5-1.62l.04-1.61c1.38-.95.78-2.88,1.33-4.21-.5-.77-1.84.09-2.7-.25-1.06,1.34-3.39.03-4.69,1.11,0,0-1.61.22-1.61.22-.62-.08-.71.01-1.03.51-1.45.34-2.14.82-2.92-.9-.65-.73-2.42-1.24-2.84-2.21l-1.93-.46c-.23-.88-1.08-1.21-1.99-1.19-1.2-1.41-2.14-1.09-3.31-1.98-.58-.44-1.23-.47-1.98-.52-1.29-1.17-2.6-1.42-4.2-2.07-1.05-1.1-2.3-.96-2.16.7-.09,1.01-.29,3.09-.39,4.09-.04.45.02.78.19,1.24-.1.92.02,2.29-.6,3.04-.18,3.58-.88,1.69,1.62,3.79l1.71.11c.55.93,2.25-.14,3.66,1.42.54.28,1.73.21,2.31.43,1.07.53,2.19.26,3.23.81,1.66.6,3.72,1.23,5.49,1.22.52.48,1.8.76,2.45.99.9.45,2.65.5,3.65.55l.58.5c2.27-.31,2.44.79,3.85.88.92-.28.49-1.7,1.55-2.32ZM150.73,54.18c2.13-.45,4.22-.19,5.87.57.09,1.2,1.4.83,2.44,2.3.51.27.98.26.72,1.11l1.61-.1c.52-.93.02-1.86-.38-2.65-.88-.55-2.27-.65-3.35-.59-.28-.17-.73-.6-.98-.84l-1.83-.2c-2.19.07-3.47-1.2-4.32-1.34-1.19-.18-3.72-.63-4.92-.85-.37-.07-.96-.56-1.25-.82-.9-.04-1.8-.25-2.68-.42-.98-.18-2.91-.44-3.69-1.14-2.52-.09-6.35-2.17-8.11.57-2.72,0-1.78,4.88-.97,2.61l2.9-1.41c.88.37,1.03.06,1.56-.54l1.13.28c.38.75,2.15.87,2.59,1.21l1.99,1.49c.14.39.28.66.64.98.37.49,1.12,2.63,1.43,3.22.46,1.29.91,2.58.64,4.05l.75-.04c.49-.72,1.33-2.66,1.85-3.28.34-.28.68-.83.88-1.15,1.29-.23,1.24-1.47,2.2-1.22l.88-.95c.91.41,1.6-.21,2.37-.84ZM136.51,66.14c.38-.72,1.13-.43,1.79-2.35.97-.42,1.38-3.72.41-4.29-.22-.69-.31-1.94-.73-2.47-.36-.35-.4-.54-.45-.95-2.08-2.57-3.13-2.02-6.13-1.98-.68.64-1.88,1.29-2.15,2.21-.5-.17-.36.21-.42.51-.03.34-.71.7-1.01,1.01-.72.88-.82,2.59-1.2,3.64-.19,1.74,2.02,5.79,4.3,6.13,0,0,1.95.14,1.95.14.86.24.95.12,1.53-.48.81.04,1.7-.34,2.11-1.13ZM155.47,70.76l1.5-.99c.32-.21.44-1.16,1.11-1.09.57-2.11,1.17-4.85.68-6.98l-.51-.38-.35-1.68c-.69-.1-.71-.38-.83-.96l-2.32-1.37c-.94-.06-2.17-.33-3.06-.07,0,0-1.11.31-1.11.31-1.48-.23-2.43,1.14-3.6,1.74-.96,1.27-2.51,4.66-1.66,6.24.43.72,1.37,1.88,1.46,2.7.78.38,1.58,1.11,2.06,1.99l2.01.66c.38.9,1,.74,1.74.41,0,0,1.53-.58,1.53-.58.31-.01,1.11.22,1.37.05Z" fill="#fff"/><path d="M41.23,114.47c-.88-.09-2.7-.27-3.56-.36l-.64,6.83c.45.86.32,1.84-.24,2.67-1.22.47-2.06,0-2.7-.99.25-.91-.55-1.07-.27-1.97-.46-2.32.01-5.96.08-8.36.07-4.66-1.44-5.63,3.41-8.57,1.02-1.57,3.25-.6,4.74-.63.71.07,1.28-.04,1.79.53.71-.06,1.33.27,1.39.95.77-.05.76.32.98.73l.74,1.37c-.09,1.03-.43,2.52-.06,3.48,0,0-.06,1.85-.06,1.85.66-.43.75-1.1.73-1.75l.62-.22c.08-.03.81-2.01.81-3.35,1.12-1.13,2.99-2.13,3.93-3.44l2.37-.9c.44.36,1.18.7,1.88.15l1.63.13c.67.18,2.57-.23,2.77.77l2.59,1.33c.95.2,2.07.71,2.26,1.83.58.25.64.87.37,1.37l-.11,2.09c.78.77.69,1.73,0,2.61.17.5.58,1.07.93,1.45-.52,2.4.68,3.75-.63,4.11-.2.67-.25,1.44-.21,2.28-1.39.89-2.71,2.83-4.66,2.5l-1.15.54-2.16-.17c-1.96-1.54-3.69-.61-4.44-1.38-1.28-.66-3.49-.86-4.06-2.41-.81.08-1.26-.55-1.33-1.31-1.32-2.03.23-3.53-.83-4.62l-1.28-1.33c-.64.57-2,1.48-2.73,1.93-.21.2-.88.08-1.2.05-.55.21-1.05.26-1.71.2ZM39.77,110.62c.76-.74,2.08-.74,3.09-.92,1.88-.55.83-3.15-.6-3.46-1.19-.42-2.27-.59-3.43-.26-.6,1.23-1.3,3-1.76,4.29.83.29,1.82.31,2.69.35ZM58.49,119.16c.54-.42,1.7-1.11,2.34-1.34.41-1.35.84-2.61,1.3-3.96.55-.62.49-.5.03-1.13l.2-1.32c-.51-.24-.2-.97-.33-1.24l-.78-1.58c-1.07-1.24-2.15-3.01-4.07-2.56-.97.16-2.42.5-2.98,1.42-1.82,2.5-3.04,5.64-2.17,8.73l2.03,1.17c.92.53.79.96,1.64,1.19l.33.66,1.43.59c.26-.34.68-.61,1.01-.64ZM63.93,117.05c.11.1.45.18.6.16.03,0,.6-1.38.13-2.09l-.7,1.22c-.47.41-.49.31-.03.7Z" fill="#fff"/><path d="M83.65,93.23c-1.61.34-3.44.21-5.05.32-1.35-.04-1.27,1.46-2.92,1.06l-.41-1.2-.53-.1c-.09-.02.14-.44.11-.53l-.53-1.76c-1.66-.3-.74-1.52-1.71-2.03.15-1.67.35-3.96.51-5.63.06-.92.48-2.7.07-3.55,0,0,.36-4.7.36-4.7.05-.63-.85-1.65-.36-2.47.55-.92,1.92-.99,2.81-.15,2.41-2.23,4.48-1.21,7-2.42,1.88,1.29,4.78.41,6.37,2.14,1.12.49,1.87.96,1.59,2.31,0,1.39-.22,2.91-1.24,3.94-.55.7-.83,1.8-1.9,1.93.07.55.73,1.22,1.34,1.56l.13.4c.05.14.66.11.78.2.67.52,2.15,3.04,2.14,3.28-.03.95-.2,2.92-.31,3.87-.05.54-.93,1.39-1.32,1.7-1.35-.12-2.86.84-4.11,1.21-.64.6-2.02.46-2.82.61ZM80.3,79.13c2.2.24,2.36-1.22,3.89-.68.42-.44.87-.78,1.45-.94.17-.48.64-.82,1.19-.81l-.21-.96-.54-.25c-.96-1.85-3.7-1.35-3.91-.32h-.39c-.47.31-1.1.34-1.61.11-1.89.59-2.65,2.76-2.86,4.6l1.76.05c.23-.28.86-.83,1.23-.79ZM82.44,89.27c1.05-.02,2.21-.8,3.2-.64,0,0,.34-.53.34-.53l1.21.21,1.15-1.03c.45-.4.31-2.21-1.42-2.75-1.27-1.26-2.77-1.5-4.13-.83-.7.25-1.49.81-2.04-.1-1.11.63-3,.15-3.17,1.03-.31,1.06,0,2.54.22,3.56.12.83.56,1.38,1.46,1.18,1.12-.17,1.92-.11,3.17-.09Z" fill="#fff"/><path d="M45.59,93.57c-1.22.24-2.32.38-3.54.33-1.2.66-1.93-.35-3.02.31-.7-.14-.76.15-1.14.62l-1.9-.27c-.59-.73-1.21-1.11-.83-2.21-1.7-1.43-1.83-3.77-1.52-5.8.27-2.01.18-4.34.28-6.37,0,0,.19-1.94.19-1.94-.03-.63.64-2.62-.22-2.93-.07-1.34-.04-2.95,1.64-3.05.34.48.6.78,1.03,1.17,1.43-1.34,2.01-1.41,3.93-1.51,0,0,2.61-1.28,2.61-1.28l1.74.31c1.17.21,1.89.99,2.43,1.04l1.74.14.28.67,2.03.97c.25.6.15,2.58.09,3.27-1.87,2.63-.62,2.45-3.91,4.41,2.74,1.13,4.33,2.94,5.28,5.71-.2.86-.61,2.8-.79,3.69-.35.27-.74.64-1.05,1.07-.65.22-1.6.55-2.28.59-.73.82-2.04.83-3.06,1.06ZM43.3,79.42c1.55-.09,3.22-1.75,4.42-2.6-.7-.43-1.38-1.37-2.21-1.66,0,0-.95-.16-.95-.16-.2-.03-.61-.34-.77-.24-1.35.98-3.73.33-4.85,1.87,0,.77-.33,1.56-.94,2.14l-.09,1.92,1.51.09c.86-.3,3.06-1.05,3.88-1.37ZM49.23,88.28l.23-1.29c-.56-.39-.78-.71-.9-1.37l-1.3-.6c.09-.45-.79-.7-1.02-.9,0,0-2.39-.13-2.39-.13-.93.17-2.31.07-3.24-.1l-.71.89c-1.2-.33-1.85-.43-2.26.92-.13.29-.45.78-.43,1.08.02.25.37.63.55.82.19.45.68,1.73.79,2.19.17.58,1.95-.02,3.1.14,2.72.44,4.81-1.38,7.57-1.66Z" fill="#fff"/><path d="M162.31,80.7c-.16.55-.3,1.45-.63,1.71-.68.53-2.37,1.85-2.98,2.41-.6.64-2.1,2.17-2.9,2.52-2,1.34-3.49,2.72-6.45,2.77l-.77-.88c.27-.42.11-.5-.14-.2-1.63.2-3.15,1.05-4.85.71-1.07.12-1.95,1.21-3.26.71-1.2-.14-2.94-.04-3.8-1.06-1.25-.36-2.46-.62-3.81-.59-1.3-1.55-4.89-1.43-5.64-3.55l-1.92-.83c-.55-1.06-1.41-.79-1.14-1.71-.53-.26-1.09-.28-.95-1.07-.5-.56-1.58-1.76-2.07-2.31.13-1.05-.92-.95-.81-1.75-.3-.83-1.2-2.35-.93-3.28-2.37-4.7.92-5.1-2.43-7.53-.28-1.15.07-2.36-.29-3.47,0,0,.26-1.76.26-1.76l.91-2.36c.72-1.46,3.63-3.1,4.86-1.92.14.52.28.96.61,1.5,0,.49-.85,1.09-1.39,1.32l-.85,1.06-1.01,1.95c-.09.17-.54.43-.48.6.2.82.58,1.53,1.06,2.25.54,1.01,1.19,1.68-.11,2.46.51.54.69,1.2.6,1.76.22.08.59.58.48.82-.32.67.28,1.24.37,1.82s-.23,1.53.66,1.87l.78,1.68c.4.42.63.79.8,1.35.58.14.94.71,1,1.33.64.61,1.14,1.27,1.61,2.04,1.01.92,2.04,1.94,3.22,2.63,1.15.54,1.48.15,1.91.89.24.17.83.51,1.11.61,1.2.19,3.09-.02,3.88,1.09l1.81.07c.12.48.38.67.75.71.74-.05,2.66.63,3.04-.36.73.33.86-.01,1.33-.48.89.1,2.94.01,3.84-.05l.86.9.02,1.05c1.2-.08,1.49-1.57,3.2-1.88.77-.4,1.46-1.35,2.07-2.06.53-.19,1.14-.41,1.21-1.07.78-.01,1.23-.51,1.4-1.21.67-.81,2.23-1.72,2.24-2.84l1.17-1.01c1.86-.77,5.03.43,2.54,2.61Z" fill="#fff"/><path d="M79.47,121c-.42-.69-.36-1.33.21-1.9-.3-1.45-.21-6.29-1.03-7.51-.07-1.04.62-2.88-.02-3.77.32-1.03-.1-2.08-.48-3.02l1.74-.67c1.26.77,2.19-.76,3.67-.28.55.92.28,2.05.58,3.01,1.13.97,2.08,2.24,3.05,3.32,1.39,1.68,3.54,4.58,3.43.3.04-.81-.9-2.33-.64-3.68l-.29-1.23c-.44-1.86.39-1.62.47-2.97l.76-.87c.19-.05,1.03.09,1.31.24l.81,1.44c2.24,1.04,1.23,3.3,1.6,5.14-.14,1.99-.05,4.2-.09,6.19.69,3.32,1.29,2.22.78,6.05-.07.82-1.74.47-2.33,1.63l-1.38-.15-1.21-1.01c-1.17-.08-1.67-.71-2.05-1.6l-1.32-1c-1.51-.03-1.94-2.37-3.25-2.72-.31-.06-1.09.26-.99.54l.73,2.14c-.03.45-.18,2.3-.19,2.71,0,.16-.55.13-.7.17l-1.16,1.41c-1.04.68-2.29-.69-2.01-1.91Z" fill="#fff"/><path d="M101.33,121.64l-1.16.8c-.48-.39-1.13-.61-1.73-.79-.3-.36-.71-.8-1.18-1.14l-.35-1.23c-.78-.61-.36-1.01.14-1.59,0,0,.26-1.55.26-1.55-.45-.13-.75-.59-.55-1.04s-.11-1.06-.09-1.4c0-.94.19-2.83.52-3.71-.34-1.81.38-4.82.61-6.63l1.33-.35.82.12.69-1.18c1.69-.56,2.42.29,3.23-.37,1.06.04,2.69-.02,3.35.89.39.34,1.1.61,1.11,1.25.57.19,1,.64,1.37,1.26.64,0,1.12.54,1.44.97,2.8,1.54,2.51,5.3.89,7.69-.21,2.24-2.9,4.15-4.38,5.63-.86.88-2.14.88-3.24,1.13-.79.24-2.34.87-3.08,1.24ZM106.11,115.59c1.01-.99,4.17-3.41,2.88-4.93.55-1.18-1.41-2.72-2.4-2.84-.55-.86-2-.44-2.79-.02-.4-.6-1.35-.65-1.9-.22l-.45-.05c-.07,0-1.21,2.08-.23,3.99-.39,1-.46,2.32-.51,3.45l.89,1.71c4.33.15,2.87-1.62,4.51-1.09Z" fill="#fff"/><path d="M135.47,119.19c-.12,1.21-2.22,2.03-3.24,1.57-1.42-1.09-1.89-2.7-.78-4.12,0,0,.68-1.13.68-1.13l1.41-.95,1.3-2.24c3.02-2.3-.58-2.85-2.1-5.87-1.28-2.02-2.62-1.48-3.62-4.03.37-1.28,1.4-1.14,2.94-.94.63.08.88.44,1.26.91l1.24.8c.05.48.32.56.61.86.76.64,2.33,2.77,3.31,2.99l1.1-.94c-.06-.65.41-1.21.98-1.55l1.27-1.9c.15-.9.43-1.57,1.21-2.04.6-.36,1.18-1.35,2.01-1.37.51,0,.86-.02,1.33-.34l1.29.18c1.08,2.48-.68,3.84-1.95,5.47-.23.86-.56,1.49-1.43,1.83-.29,1.45-3.37,2.92-2.6,4.52,0,0,1.1,1.71,1.1,1.71.4.24.75.56.82.95.46.28.79.63.84,1.24,1.28,1.59,2.94,3.44,4.1,5.13-.56,1.27-1.05,2.32-2.77,1.79-.87-.41-1.51-2.3-2.26-3.04-.74-.11-1.07-.42-1.2-1.26l-.74-.41c-.14-.53-.35-.84-.77-1-.55-1.2-1.54-1.81-2.76-1.28.13.99-.28,1.3-1.1,1.64l-1.36,1.24-.13,1.58Z" fill="#fff"/><path d="M190.36,117.13c-.51-.49-2.04-1.24-2.69-1.54-.72-.52-1.84-1-2.38-1.7-.19-.28-.49-.46-.79-.45-.71.02-.15,1.39-.37,3.95-.26,1.43.26,3.48-1.53,4.12-1.76-.31-1.44-2.01-1.52-3.3-.71-2.19.21-4.62-.18-6.79,0,0,.11-1.9.11-1.9.03-.59.04-.86-.19-1.36-.43-.96-.19-2.07-.11-3.09-.11-1.02,1.04-2.36,2-2.03.49.36.94.79,1.48.78,1.02-.03,1.8-2.55,4.24-2.8.54-1.45,2.25.33,3.04.58.85.46.64,1.25-.17,1.54-.1.47.07.25.42.33.47.13,2.14-.03,2.23.69-.28,1.68.1,4.06-1.04,5.45-.69.82-1.16,1.74-2.11,2.33l.6,1.53c1.21,0,2.15,1.1,3.12,1.75.82.62,1.62,2.13,2.7,2.26.15.3.72.73.7,1.05-.67,2.27-3.29,2.53-4.68.69-1.3-.12-2.38-.95-2.83-2.09ZM190.79,107.87l-.57-1.14c-.02-.25-.03-.59-.17-.72-.46-.35-1.82-.31-2.37-.39,0,0-1.21.32-1.21.32-.27.39-.46,1.29-.53,1.81l-.57.4c1.31,2.57,3.85,2.23,5.41-.27Z" fill="#fff"/><path d="M99.64,84.46l-.78-1.06-.62-1.67c-.51-1.56-1.59-3.13-2.49-4.47-.27-.56-.96-1.66-1.31-2.17-.8-.98-1.91-2.07-1.55-3.5,0,0,.95-1.26.95-1.26,1.59.01,2.7,1.37,3.57,2.49.77-.87,1.39.32,1.95.7,1.35.9-.73,3.5,1.48,4.63.19.54.44.92.72,1.3-.15.86.45,1.49.44,1.49.93-.18,1.7-.58,1.69-1.61,1.04-1.51,2.21-3.34,2.13-5.24.36-.48.46-.75.55-1.46l1.69-.92c.31-.17.56-.84.72-1.16.39-1.03,2.91-.41,3.55-.06l-.08,1.97-1.17,1.4-.13,1.14c-.28.34-.4.69-.52,1.14-.22.23-.69.69-.82,1-.41,1.04-1.16,2.53-1.63,3.54,0,0-1.52,2.62-1.52,2.62-.51.92.06,1.97-.82,2.99-1.02,1.46-2.24,1.03-3.03,2.95-1.04,1.18-1.16,2.94-2.13,4.19-1.26.31-2.16,1.33-3-.28-.53-2.51,1.61-4.22,2.05-6.65.86-.56.81-1.31.13-2.02Z" fill="#fff"/><path d="M177.04,117.02c1.19-.1,1.68,1,2.09,1.85-.72.53-1.81.99-2.71,1.09-1.2-.32-3.34-.13-4.54.07-1.33.16-2.71.47-3.83,1.26-1.07.72-1.39-.34-2.86-.25-1.53-1.78-1.1-2.95-1.01-5.06.18-.11.49-.47.49-.69.07-.93-.01-2.52-.07-3.42.22-1.77-.21-2.43.15-3,.34-.8.37-1.64.02-2.32.23-.58.02-.9-.35-1.28-.99-1.26,1.31-2.71,1.94-3.62.47-.06.54-.21.63-.69.81-.24,1.87-.38,2.84-.2.71-.11,2.19-.11,2.91-.06,1.66.41,3.59-.73,4.99.47.51,1.1-.96,1.94-1.9,1.79-.89,1.1-1.47.46-2.85.81l-1.27.32c-.78-.05-1.42-.11-2.08.14-.96-.22-1.42.37-.75,1.21l-.13,1.26.94,1.25c.83.31,1.79-.09,2.59-.43l2.4.23c.99.09,1.78-.67,3.8.43-.17.84-.55,1.78-1.07,2.31-1.03-.06-1.79.09-2.28.85-1.98-.3-3.83.51-5.86.09-.4,1.69-1.04,4.1-.44,5.9.26.08.89-.14,1.19-.23,1.09-.04,2.94.51,3.91.01.57.11,1.07.04,1.56-.17l1.55.05Z" fill="#fff"/><path d="M62.21,86.38l-1.8.06c-1.04.19-2.41,2.54-2.35,3.55-1.04.53-.74,1.85-1.28,2.74-.52.25-1.58.8-2.09,1.09-.53,1.32-1.14-.52-.89-1.53,0,0,.39-2.88.39-2.88,1.61-.94.88-2.43,2.33-3.62-.09-1.02.34-1.82.86-2.59.13-.84.8-2.9,1.07-3.72.75-.55,1.13-1.31,1.21-2.21.3-.39,1.01-1.32,1.36-1.65-.24-1.46,1.05-3.94,2.48-4.45l.75,1.11c-.1,1.15,1.03,2.17,1.54,3.1.34.52.49,1.35.72,2.08l1.6,2.16c.85,2.54.91,2.88,2.96,4.09l-.12,1.88c-.33.29-.8.6-.89.9.25,1.43.78,2.95,1.38,4.33l-.14,2.21c-1.1.55-1.8-.5-1.96-1.52-.23-.78-.74-2.19-.74-3.01-.27-.67-.77-1.95-1.26-2.46-1.28.05-4.26-.73-5.13.34ZM65.31,82.1l.16-1.21c-.74-.3-.72-.71-.54-1.36-.46-.9-.87-1.88-1.86-2.15l-.67,2.71c-.63.6-1.18,1.83-.29,2.49.85-.32,2.28-.26,3.2-.48Z" fill="#fff"/><path d="M118.22,116.38c-.12,2.34,1.28,1.55,3.36,1.77.63.16.79.26,1.12-.45,1.57.19,3.56-.02,5.12.2.9.1.74.57.8,1.24.24.46.31.65-.22.98-1.22-.06-3.06.04-4.33-.03-.91.33-3.63.5-4.27,1.2-1.09.26-2.42.59-3.5.45-.22-.71-1.33-.11-1.66-1.86-.28-1.87.02-4.25.55-6.04-.36-1.97.02-4.39-.13-6.49,0,0-.4-3.2-.4-3.2l1.17-.81c.7-.22,1.2-.43,1.28-1.35,1.25-.13,4.01-.31,5.23-.07,1.52.46,4.85-.65,5.48.75.12.98-1.54,1.03-2.13,1.24-.75.19-1.39.36-2.16.05-1.47,1-4.15-.91-5.29.73.64.93.66,2.33.72,3.4,2.13,1.07,2.88.35,3.87.44,1,.09,3.09.28,4.09.37,1.07-.1,1.76.96.73,1.63,0,0-2.27,1.02-2.27,1.02-.35.34-.89.43-1.45.33-.59.22-1.29.2-1.91.12-.98.65-1.71-.17-2.67.19,0,.78-.24.51-.73.44-.1.93-.3,2.81-.4,3.74Z" fill="#fff"/><path d="M157.52,118.61c-.15.55-.57,2.25-.76,2.76-.03.09-1.7-.02-1.79-.27-.81-1.59-.2-2.19-.45-4.29-.25-1.46.41-2.21-.12-3.33l.53-5.99c.23-.97-.21-1.64-1.21-1.69,0,0-2.04-.08-2.04-.08-1.11.34-2.41.25-2.76-1.02-.95-1.65.61-2.41,2.17-2.49,1.42-.27,1.99-.88,2.82-.77.5-.71,1.33-.67,1.69.24l6.62.6c1.07-.07,1.51,1.1.57,1.6l-.05,1.31c-1.35.11-2.72.31-4.1.11-.99.11-1.45,1.65-.42,2.17l-.21,1.04c.33.63.58.86-.12,1.44-.27.28.18,1,.16,1.32-.03.96-.21,3-.32,3.96-.06.57-.03.81.17,1.39.17.49-.22,1.47-.36,2Z" fill="#fff"/><path d="M149.9,80.07c-.43.28-1.01.48-1.51.6-.51.53-1.01,1.05-1.93.7l-1.38.36c-.48.99-1.97.29-2.79.34-.41-.32-.87-.56-1.43-.48s-1.02-.28-1.46-.41c-.62-.18-1.29-.16-1.8-.5-1.46-.96-3.46-2.38-5.07-3.09l-.39-.68c-1.49-.48-2.76-3.09-2.2-4.29l.85-1.82c.87-.22,2.07-.35,1.89.97.76.25,1.03.76,1.2,1.46.51.57,1.56,1.75,2.05,2.33.71.03,1.33.39,1.66,1.06,3.29,1.64,6.17,2.56,9.37.55,1.31-.72,2.55-2.12,4.19-1.85,2.73,2.08,1.05,3.4-1.24,4.75Z" fill="#fff"/><path d="M73.84,120.12c-.2,1.28-1.25,2.12-2.54,2.08l-.9-1.41c.57-.68.02-1.3.05-1.81l.13-2c.04-.6.32-1.04-.43-1.32.23-2.45.57-5.41.6-7.89,0,0-.15-1.91-.15-1.91-.04-.47-.43-1.45.06-1.77.6-.39,1.13-.61,1.34-1.3l.74.19c.32.54.81.94,1.43,1.19l.49,1.24c-.26,1.42.24,3,.24,4.37.78.74-.02,1.69-.52,2.35,0,0-.21,1.73-.21,1.73.92,1.41.46,2.8-.02,4.24,0,0-.31,2.04-.31,2.04Z" fill="#fff"/><path d="M151.95,68.77l-2.06-.06c-.19-.68-.33-1.1-.7-1.67l-.06-1.8,1.43-1.45c2.06.15,3.45.62,2.87,3.02-.19.74-1.05,1.39-1.49,1.96Z" fill="#fff"/><path d="M132.44,65.52c-.32.05-1.14-.12-1.49-.18-1.32-1.46-.9-1.95-.48-3.46.31-1.13,2.6-.76,2.84-.56,1.24,1.2.8,3.94-.87,4.2Z" fill="#fff"/></svg>