<svg xmlns="http://www.w3.org/2000/svg" width="180" height="142" viewBox="0 0 180 142"><path d="M30.93,34.49c.38,4.21-.58,5.15-5.73,5.42-4.27.22-5.32-.83-5.6-5.09l-.55-8.57-6.49,1,.26,9.11c.11,4.22-.94,5.22-5.27,5.13s-5.39-1.15-5.67-5.41L.05,8.77C-.23,4.51.67,3.51,4.92,3L6.28,2.8c4.19-.54,5.3.51,5.41,4.73l.31,11,6.57-.5L17.92,7.47c-.27-4.16.67-5.31,4.81-5.85s5.35.31,5.72,4.4Z" fill="#fff"/><path d="M68.36,35.5c1.32,3.72.51,4.83-3.41,5l-1.68.1c-5.13.3-5.34-.71-6.35-4.73L55.8,31.49,46,31.84l-.56,3.1c-.71,4.07-.91,4.89-6.05,5.24l-1.47.1c-3.92.21-4.78-.86-3.77-4.67L41.91,7.08c1.07-4,2.24-5.09,9.36-5.6,4.17-.3,5.39.46,6.77,4.38ZM54,24.77l-3.77-12-2.89,12Z" fill="#fff"/><path d="M81.78,35.13c-.19,4.06-1.25,4.94-5.29,4.45l-1.62-.22c-4.05-.5-5-1.66-4.46-5.71l3.51-28.6c.46-3.85,1.78-5,5.62-5A37.58,37.58,0,0,1,87,.71c13.22,2.63,19.34,9.4,17.47,18.77-1.36,6.84-9.17,12.23-22.4,9.65Zm10.7-19.64c.64-3.2-1.61-4.94-4.55-5.52a12.66,12.66,0,0,0-4.83,0l-.55,10C87,20.05,91.78,19,92.48,15.49Z" fill="#fff"/><path d="M123.08,36.62c1,3.94.24,5.09-3.78,5.79l-1.61.25c-4,.7-5.23-.15-5.93-4.17L106.85,10.1c-.68-3.82.25-5.34,3.92-6.46a37.79,37.79,0,0,1,7.37-1.49c13.41-1.3,21.23,3.4,22.15,12.92.68,6.93-5.24,14.36-18.65,15.71Zm4.56-21.9c-.32-3.24-3-4.26-6-4a12.62,12.62,0,0,0-4.61,1.42L119.45,22C123.72,20.67,128,18.26,127.64,14.72Z" fill="#fff"/><path d="M164.22,36.92c-.53,4.09-1.65,5.11-5.76,4.79l-2.34-.17c-4.06-.32-5-1.27-4.44-5.3L153.39,23l-9-15.89c-1.93-3.41-1.35-4.61,2.5-5.35l4.43-.87c4.07-.76,5.35-.06,6.87,3.79l4.33,11.14,7.31-9.55c2.39-3.15,3.77-3.47,7.34-1.48,3.39,1.86,3.61,3.18,1.1,6.06L165.78,25.13Z" fill="#fff"/><path d="M50.7,81.57l-8.87.65c-2.61.2-3.3-.42-3.47-3L37.28,60.29c-.16-2.65.43-3.33,3.08-3.53l1.74-.13c2.61-.2,3.27.39,3.24,3l-.2,15.74L50.47,75c2.62-.2,3.31.39,3.38,3S53.36,81.37,50.7,81.57Z" fill="#fff"/><path d="M68.57,79.08c-.16,2.56-.81,3.11-3.33,2.85l-6.49-.65C56.4,81.05,55.84,80.39,56,78l0-.29c.16-2.19.72-2.68,3-2.55L59.51,63c-2.13,0-2.65-.49-2.72-2.58v-.3c-.06-2.29.46-2.88,2.72-3l8.08-.32c2.49-.1,3.11.49,3,3S70,63,67.33,63l-.88,12.7c1.89.1,2.32.59,2.19,2.46Z" fill="#fff"/><path d="M97.83,79.41c-.16,2.62-.85,3.21-3.46,3l-.33,0c-2.65-.26-3.28-.95-3.24-3.6l.13-15-5.89.2-.85,15.38c-.14,2.62-.82,3.21-3.44,3l-.33,0c-2.65-.26-3.24-.94-3.24-3.6l.07-14.37-2.52.07c-2.26.07-2.88-.46-3.11-2.81s.26-2.85,2.52-3l26.51-1.41c2.59-.13,3.27.49,3.27,3.14s-.62,3.27-3.24,3.34l-2,.07Z" fill="#fff"/><path d="M118.91,81.57l-8.87.65c-2.62.2-3.3-.42-3.47-3l-1.08-18.89c-.16-2.65.43-3.33,3.08-3.53l1.73-.13c2.62-.2,3.28.39,3.24,3l-.19,15.74,5.33-.42c2.62-.2,3.31.39,3.37,3S121.56,81.37,118.91,81.57Z" fill="#fff"/><path d="M141.17,78.36c.1,2.62-.46,3.28-3.08,3.24l-9.2-.16c-2.65,0-3.34-.66-3.53-3.31L124,60.72c-.2-2.65.36-3.34,3-3.67l9.4-1.11c2.22-.26,2.81.23,3,2.52s-.36,2.88-2.59,3.14l-6.21.72.32,3.34,4.45-.33c2.1-.16,2.66.3,2.85,2.43s-.26,2.62-2.32,2.81l-4.32.36.49,3.54,5.56-.56c2.62-.26,3.31.33,3.47,3Z" fill="#fff"/><path d="M32.58,134.32c-.71,4-1.77,4.82-5.73,3.91L12.93,135c-4-.92-4.85-2.09-4.28-6.18l3.7-26.88c.57-4.09,1.64-5,5.73-4.59l14.63,1.41c3.46.33,4.2,1.27,3.74,4.81s-1.5,4.26-5,3.92l-9.68-1-.6,5.18,6.86,1c3.24.44,3.93,1.32,3.53,4.61s-1.26,3.89-4.45,3.51l-6.68-.88-.42,5.53,8.63,1c4.06.46,4.91,1.58,4.3,5.61Z" fill="#fff"/><path d="M63.71,136.38,50,138.17c-4,.54-5.16-.37-5.65-4.41L41,104.56c-.48-4.1.37-5.22,4.46-5.76l2.68-.35c4-.54,5.11.32,5.29,4.38l1.08,24.44,8.24-1.13c4-.53,5.16.32,5.49,4.38C68.67,134.78,67.81,135.84,63.71,136.38Z" fill="#fff"/><path d="M89.82,133c-1.33,4-2.55,4.72-6.72,4.32h-.46c-4.17-.41-5.28-1.43-6.25-5.44l-6.56-27.36c-.92-3.92-.15-5.09,3.86-5.65l1.73-.2c4.07-.56,5.19.25,5.9,4.32l3.41,19.63L89,103.15c.87-4.07,2-5.14,6.15-4.58l1.17.15c4,.51,4.73,1.48,3.46,5.24Z" fill="#fff"/><path d="M132,133.78c.69,4,0,5.14-4.07,5.63l-14.2,1.64c-4.09.49-5.28-.33-6.12-4.37L102,110.14c-.85-4-.13-5.22,3.83-6.26L120,100.24c3.38-.86,4.38-.23,5.16,3.26s0,4.51-3.34,5.37l-9.43,2.39,1.19,5.07,6.79-1.42c3.19-.68,4.14-.09,4.88,3.15s.14,4.08-3,4.81l-6.58,1.44,1.48,5.35,8.46-2c4-1,5.16-.18,6,3.82Z" fill="#fff"/><path d="M135.18,132.62c-2.6-2-2.79-3.71-.55-6.09l.18-.24c2.69-2.89,3.53-3.06,7.11-1.11a17.7,17.7,0,0,0,6.58,2.15c3.9.39,6.85-1,7.13-3.78.65-6.37-20.74-3.59-19.5-15.83,1-9.41,10.32-10.91,18.92-10,1.61.17,3.22.43,4.73.74,3.55.72,4.35,1.87,3.89,5.46-.4,2.92-.95,3.78-2.87,3.59a63.2,63.2,0,0,0-6.61-1.34c-3-.31-5.7.19-5.92,2.41-.53,5.16,21.87,0,20.14,17-1,9.61-10.52,12.94-19.83,12A27.24,27.24,0,0,1,135.18,132.62Z" fill="#fff"/></svg>