<svg xmlns="http://www.w3.org/2000/svg" width="350" height="33" viewBox="0 0 350 33"><path d="M5.94 7.67l3.43-7h20.69l-3.43 7h-6.25L8.29 32.46H0L12.09 7.67zM40.23.62l-5.7 11.69h5.08L45.31.62h8.29L38.08 32.46h-8.3l6.4-13.11h-5.09L24.7 32.46h-8.29L31.93.62zM76.38.62l-3.3 6.78H62.51l-2.65 5.44h9.9l-3.18 6.51h-9.9l-3.08 6.33h11l-3.3 6.78H42L57.52.62zM104.38.62a9.05 9.05 0 0 1 3.73.63A3.46 3.46 0 0 1 110 3a4.53 4.53 0 0 1 .2 2.7 13.49 13.49 0 0 1-1.2 3.4 16.09 16.09 0 0 1-3.82 5.17 10.13 10.13 0 0 1-5.32 2.41v.08c1.9.18 2.93.88 3.08 2.1s-.3 2.9-1.34 5l-1.33 2.72-.63 1.29c-.22.45-.41.87-.57 1.27s-.3.77-.4 1.09a2.83 2.83 0 0 0-.15.76c0 .18.07.35.11.51a.79.79 0 0 0 .35.47l-.22.45h-8.88a5.13 5.13 0 0 1 .25-1.42 16.51 16.51 0 0 1 .61-1.7c.23-.56.46-1.1.7-1.63l.6-1.27 1-2.14A18.71 18.71 0 0 0 94 22a3.1 3.1 0 0 0 .22-1.41.89.89 0 0 0-.5-.71 2.68 2.68 0 0 0-1.17-.2h-2.16l-6.21 12.78h-8.3L91.41.62zm-9.6 13.47A5 5 0 0 0 97.93 13a7.64 7.64 0 0 0 2.18-2.74q1-2 .57-2.85c-.28-.57-1-.85-2.29-.85h-1.6l-3.66 7.49zM113.74 23.59c-.76 1.54-1 2.57-.85 3.09s.68.78 1.45.78a3.59 3.59 0 0 0 2.21-.78 8.57 8.57 0 0 0 2.18-3.09l11.2-23h8.29l-10.17 20.9a29.26 29.26 0 0 1-3.44 5.57 17.1 17.1 0 0 1-3.81 3.57 12.51 12.51 0 0 1-4.26 1.83 23.22 23.22 0 0 1-4.87.49 17.07 17.07 0 0 1-4.38-.49 3.82 3.82 0 0 1-2.5-1.83 5.63 5.63 0 0 1-.33-3.57 21.58 21.58 0 0 1 2-5.57L116.64.62h8.3zM151.06.62l-4.21 19.62h.08L156.5.62h7.76l-15.53 31.84h-9.09l4.06-19.66h-.09L134 32.46h-7.76L141.79.62zM177.46.62l-4.22 19.62h.09L182.9.62h7.75l-15.52 31.84H166l4.06-19.66H170l-9.59 19.66h-7.75L168.18.62zM202.56.62L187 32.46h-8.29L194.27.62zM215.44.62l-4.21 19.62h.08L220.88.62h7.76l-15.53 31.84H204l4.06-19.66H208l-9.6 19.66h-7.76L206.17.62zM246.88 15.16l-8.44 17.3h-5.62l1.18-2.81h-.09a8.85 8.85 0 0 1-2 1.69 9.22 9.22 0 0 1-2.14 1 11.85 11.85 0 0 1-2.19.46 18.11 18.11 0 0 1-2.18.14c-2.11 0-3.61-.35-4.49-1.05a3.6 3.6 0 0 1-1.23-3.14 16.22 16.22 0 0 1 1.34-5.17c.84-2.06 1.9-4.4 3.2-7a70.74 70.74 0 0 1 3.92-7.09 24.91 24.91 0 0 1 4.31-5.17 16.43 16.43 0 0 1 5.19-3.19A18 18 0 0 1 244.19 0a10.71 10.71 0 0 1 3.75.58 4.1 4.1 0 0 1 2.28 1.87 5.5 5.5 0 0 1 .47 3.32 15.7 15.7 0 0 1-1.64 4.93h-8a12.87 12.87 0 0 0 1.33-3.7c.15-.92-.26-1.38-1.24-1.38a3.63 3.63 0 0 0-1.87.49 6.18 6.18 0 0 0-1.74 1.74 29.76 29.76 0 0 0-2 3.36c-.75 1.42-1.64 3.19-2.68 5.33s-1.89 3.92-2.51 5.33a23.23 23.23 0 0 0-1.27 3.37 2.35 2.35 0 0 0 0 1.73 1.38 1.38 0 0 0 1.26.49 3.36 3.36 0 0 0 1.31-.26 4.37 4.37 0 0 0 1.36-1 13.35 13.35 0 0 0 1.55-2.05 32.71 32.71 0 0 0 1.85-3.36h-2.95l2.74-5.62zM280.49.62l-5.85 18.86h.09L287.27.62h11.86L283.6 32.46h-7.76l11.57-23.72h-.09l-16 23.72h-6l7.15-23.72h-.09l-11.52 23.72h-7.75L268.63.62zM318.39.62l-7.77 31.84h-8.83l1.87-5.58h-6.59l-3.57 5.58h-8.69L308 .62zM310 7.13l-8.86 13.51h4.64L310 7.13zM336.8.62l-4.21 19.62h.08L342.24.62H350l-15.53 31.84h-9.09l4.06-19.66h-.09l-9.59 19.66H312L327.53.62z" fill="#fff"/></svg>