<svg xmlns="http://www.w3.org/2000/svg" width="250" height="107" viewBox="0 0 250 107"><path d="M0,.55H7.08V13.29H20.14V.55h7.08V32.74H20.14V19.82H7.08V32.74H0Z" fill="#fff"/><path d="M31.68,16.74v-.09C31.68,7.5,38.9,0,48.83,0S65.89,7.4,65.89,16.55v.1c0,9.15-7.22,16.64-17.15,16.64S31.68,25.89,31.68,16.74Zm26.81,0v-.09c0-5.52-4.05-10.12-9.75-10.12s-9.66,4.51-9.66,10v.1a9.78,9.78,0,0,0,9.75,10.11C54.53,26.76,58.49,22.26,58.49,16.74Z" fill="#fff"/><path d="M70.35.55H78l8.47,13.61L94.91.55h7.63V32.74h-7v-21l-9,13.75h-.19l-9-13.62V32.74H70.35Z" fill="#fff"/><path d="M107,16.74v-.09C107,7.5,114.22,0,124.15,0s17.06,7.4,17.06,16.55v.1c0,9.15-7.22,16.64-17.15,16.64S107,25.89,107,16.74Zm26.81,0v-.09c0-5.52-4.05-10.12-9.75-10.12s-9.66,4.51-9.66,10v.1a9.78,9.78,0,0,0,9.75,10.11C129.85,26.76,133.81,22.26,133.81,16.74Z" fill="#fff"/><path d="M144.24,16.74v-.09A16.37,16.37,0,0,1,161,0c6.07,0,9.7,2,12.69,5l-4.51,5.19c-2.48-2.25-5-3.63-8.23-3.63-5.43,0-9.33,4.51-9.33,10v.1c0,5.51,3.81,10.11,9.33,10.11,3.68,0,5.93-1.47,8.46-3.77L174,27.54a16.43,16.43,0,0,1-13.2,5.75A16.25,16.25,0,0,1,144.24,16.74Z" fill="#fff"/><path d="M178.08.55h7.09V32.74h-7.09Z" fill="#fff"/><path d="M191.37.55h12.56c10.11,0,17.1,7,17.1,16v.1c0,9.06-7,16.09-17.1,16.09H191.37Zm12.56,25.8c5.79,0,9.7-3.91,9.7-9.61v-.09c0-5.71-3.91-9.71-9.7-9.71h-5.48V26.35Z" fill="#fff"/><path d="M225.49.55h24.28v6.3H232.53v6.53H247.7v6.3H232.53v6.76H250v6.3H225.49Z" fill="#fff"/><path d="M67.4,51.69h4.65V68.6H82.59v4.23H67.4Z" fill="#fff"/><path d="M85.1,51.69h4.65V72.83H85.1Z" fill="#fff"/><path d="M93.82,51.69h16.1v4.23H98.47v4.5h10.09v4.23H98.47v8.18H93.82Z" fill="#fff"/><path d="M112.42,51.69h16v4.14H117v4.29h10v4.13H117v4.44h11.48v4.14h-16.1Z" fill="#fff"/><path d="M138.36,62.32v-.06a11.24,11.24,0,0,1,22.47-.06v.06a11.24,11.24,0,0,1-22.47.06Zm17.61,0v-.06a6.42,6.42,0,0,0-6.41-6.64,6.32,6.32,0,0,0-6.34,6.58v.06a6.42,6.42,0,0,0,6.4,6.64A6.32,6.32,0,0,0,156,62.32Z" fill="#fff"/><path d="M163.76,51.69H168l9.91,13v-13h4.59V72.83h-4L168.35,59.39V72.83h-4.59Z" fill="#fff"/><path d="M4.26,102.54,7,99.25a9.67,9.67,0,0,0,6.31,2.56c1.9,0,3.05-.75,3.05-2v-.06c0-1.18-.73-1.78-4.26-2.69-4.26-1.08-7-2.26-7-6.46v-.06c0-3.83,3.08-6.37,7.39-6.37a12.28,12.28,0,0,1,7.86,2.69l-2.42,3.5a9.88,9.88,0,0,0-5.5-2.08c-1.78,0-2.71.81-2.71,1.84v.06c0,1.39.9,1.84,4.56,2.78,4.28,1.11,6.7,2.65,6.7,6.34v.06c0,4.2-3.2,6.55-7.76,6.55A13.48,13.48,0,0,1,4.26,102.54Z" fill="#fff"/><path d="M23.83,84.48H39.77v4.14H28.45v4.29h10V97h-10v4.44H39.92v4.14H23.83Z" fill="#fff"/><path d="M41.4,102.54l2.75-3.29a9.69,9.69,0,0,0,6.31,2.56c1.9,0,3-.75,3-2v-.06c0-1.18-.72-1.78-4.26-2.69-4.25-1.08-7-2.26-7-6.46v-.06c0-3.83,3.08-6.37,7.4-6.37a12.25,12.25,0,0,1,7.85,2.69l-2.42,3.5a9.88,9.88,0,0,0-5.49-2.08c-1.79,0-2.72.81-2.72,1.84v.06c0,1.39.9,1.84,4.56,2.78,4.29,1.11,6.7,2.65,6.7,6.34v.06c0,4.2-3.2,6.55-7.76,6.55A13.48,13.48,0,0,1,41.4,102.54Z" fill="#fff"/><path d="M67.76,84.33h4.29l9.06,21.29H76.25l-1.93-4.74H65.38l-1.93,4.74H58.7Zm4.9,12.44-2.81-6.85L67,96.77Z" fill="#fff"/><path d="M83.16,84.48h5l5.55,8.94,5.56-8.94h5v21.14H99.68V91.82l-6,9h-.12l-5.89-8.94v13.71H83.16Z" fill="#fff"/><path d="M108.17,84.48h15.94v4.14H112.79v4.29h10V97h-10v4.44h11.47v4.14H108.17Z" fill="#fff"/><path d="M133.59,102.54l2.75-3.29a9.67,9.67,0,0,0,6.31,2.56c1.9,0,3-.75,3-2v-.06c0-1.18-.73-1.78-4.26-2.69-4.26-1.08-7-2.26-7-6.46v-.06c0-3.83,3.08-6.37,7.39-6.37a12.28,12.28,0,0,1,7.86,2.69l-2.42,3.5a9.88,9.88,0,0,0-5.5-2.08c-1.78,0-2.71.81-2.71,1.84v.06c0,1.39.9,1.84,4.56,2.78,4.28,1.11,6.7,2.65,6.7,6.34v.06c0,4.2-3.2,6.55-7.76,6.55A13.48,13.48,0,0,1,133.59,102.54Z" fill="#fff"/><path d="M157.63,88.77H151.2V84.48h17.51v4.29h-6.43v16.85h-4.65Z" fill="#fff"/><path d="M171.06,84.48h9.67a8.44,8.44,0,0,1,6.16,2.15,6.64,6.64,0,0,1,1.81,4.83v.06a6.56,6.56,0,0,1-4.53,6.55l5.16,7.55H183.9l-4.53-6.76h-3.66v6.76h-4.65Zm9.36,10.27c2.27,0,3.57-1.21,3.57-3V91.7c0-2-1.39-3-3.66-3h-4.62v6.07Z" fill="#fff"/><path d="M191.69,84.48h15.94v4.14H196.31v4.29h10V97h-10v4.44h11.47v4.14H191.69Z" fill="#fff"/><path d="M210.71,84.48h15.95v4.14H215.33v4.29h10V97h-10v4.44h11.48v4.14h-16.1Z" fill="#fff"/><path d="M234.66,88.77h-6.43V84.48h17.51v4.29h-6.43v16.85h-4.65Z" fill="#fff"/></svg>