<svg xmlns="http://www.w3.org/2000/svg" width="302" height="112" viewBox="0 0 302 112"><path d="M261.81,67.08s1.27,8.68,7.67,8.68c2.16,0,4.91-1,8.38-3.64,0,0-10.74,12.19,4.21,15.8,0,0-14.73,2.2-4.17,16.16,0,0-4.13-3.82-8.36-3.82-3,0-6,1.88-7.65,8.28,0,0-1.31-8.16-7.61-8.16-2.15,0-4.88,1-8.34,3.49,0,0,11.69-15-8.22-15.28h-14l-1.05,6.58H30.43L33.67,82H224.72l-.85,5.36h13.64c6.66,0,16.51-3.83,8.65-15.1,0,0,3.88,3,7.89,3,3.09,0,6.25-1.81,7.76-8.23m.17-4-.9,3.84c-1.2,5.08-3.56,7.65-7,7.65-3.7,0-7.39-2.85-7.43-2.88l-4-3.09,2.88,4.12c2.7,3.87,3.44,7.06,2.18,9.47-1.6,3.06-6.28,4.43-10.21,4.43H224.76l.71-4.48.14-.87H33.08l-.14.57L29.7,95l-.23.94h193.8l.11-.64.94-6h13.4c5.71.09,9.22,1.4,10.41,3.89,1.94,4-2.74,10.11-2.78,10.17L242,107.7l4.39-3.22c3-2.22,5.67-3.34,7.89-3.34,5.58,0,6.81,7.22,6.86,7.52l.57,3.54.91-3.47c1.33-5.12,3.66-7.71,6.92-7.71,3.87,0,7.81,3.58,7.85,3.61l1.11-1c-3.23-4.27-4.33-7.77-3.26-10.4,1.5-3.68,6.89-4.54,6.95-4.55l3.8-.58-3.74-.9c-4-1-6.39-2.63-7.12-4.94-1.35-4.28,3.25-9.57,3.3-9.63l-1-1.1c-3,2.31-5.71,3.48-7.93,3.48-5.67,0-6.91-8-6.92-8L262,63.06Z" fill="#fff"/><path d="M2.36,49.68,1.5,47.53,10.16,13h13c3,0,6.06-.84,7.82.63,3.61,3,4.48,7.82,2.88,15.32l-1,4.78c-2.48,11.65-9.19,16-17.48,16Zm23.06-16,1-4.78c1.34-6.33.34-9.62-4.6-9.62H16.26L11.14,43.41h5.58C21.66,43.41,24.08,40.06,25.42,33.73Z" fill="none" stroke="#fff" stroke-linejoin="round" stroke-width="0.5"/><path d="M44.62,50.16a11.32,11.32,0,0,1-10.95-7.43c-1-2.62-.59-4.27.37-8.78l1.1-5.21c2.41-11.33,9.24-16.22,17.49-16.22,3.11,0,6.15-.73,7.86,1,3.17,3.15,4.28,8.17,2.78,15.25L62.16,34C59.78,45.16,52.92,50.16,44.62,50.16ZM41.48,34C40,41,41.65,43.89,46,43.89S53.23,41,54.72,34l1.1-5.21c1.5-7-.22-9.95-4.53-9.95s-7.21,2.93-8.7,10Z" fill="none" stroke="#fff" stroke-linejoin="round" stroke-width="0.5"/><path d="M90.74,30.6,90,34c-2.38,11.21-8.65,16.21-17,16.21-6.46,0-11.42-4-11.83-10.7-.11-1.85.73-3.1,1.24-5.51l1-4.68C66,17.41,72.83,12.52,81.07,12.52c3.36,0,5.19-1.25,7,.31,2.36,2,4.19,7.32,3.92,11.55H84.88L84,22.22a4,4,0,0,0-4.28-3.43c-4.31.07-7.21,2.93-8.71,10L69.93,34c-1.49,7,.17,9.94,4.48,9.94s6.45-2.61,7.81-7H76.06l-.86-2.16,2.19-4.11Z" fill="none" stroke="#fff" stroke-linejoin="round" stroke-width="0.5"/><path d="M113.17,24.38l-.86-2.16A4.41,4.41,0,0,0,108,18.79c-4.3,0-7.21,2.93-8.7,10L98.22,34c-1.45,6.8.17,9.94,4.48,9.94,3.72,0,5.93-1.86,7.51-5.58l6.21-2.16.86,2.16c-3,8.24-8.36,11.85-15.91,11.85-6.05,0-10.85-3.69-11.69-9.55-.31-2.13.46-3.68,1.1-6.66l1.11-5.21c2.4-11.33,9.24-16.22,17.48-16.22,2.73,0,4.9-1.1,6.67,0,2.94,1.83,4.56,6.84,4.26,11.86Z" fill="none" stroke="#fff" stroke-linejoin="round" stroke-width="0.5"/><path d="M129.34,50.16c-6.17,0-11.07-3.91-11.79-10-.25-2,.6-3.37,1.2-6.19l1.11-5.21c2.4-11.33,9.24-16.22,17.48-16.22,2.59,0,5-1,6.8,0,3.94,2.2,5.5,8.43,3.84,16.22L146.87,34C144.49,45.16,137.63,50.16,129.34,50.16ZM126.19,34c-1.49,7,.18,9.94,4.48,9.94S137.94,41,139.43,34l1.11-5.21c1.49-7-.23-9.95-4.53-9.95s-7.22,2.93-8.71,10Z" fill="none" stroke="#fff" stroke-linejoin="round" stroke-width="0.5"/><path d="M155.19,36.76l-2.75,12.92H145l-.86-2.15L152.8,13h13.13c3.16,0,5.82-1,7.75.08,3.23,1.83,4.51,6.74,3.47,11.67-1.65,7.76-7.77,12-16.27,12Zm6-6.27c5.15,0,7.72-1.81,8.55-5.74.75-3.51-1-5.42-6.18-5.42h-4.63l-2.37,11.16Z" fill="none" stroke="#fff" stroke-linejoin="round" stroke-width="0.5"/><path d="M204.79,13l-1.35,6.33h-8.52l-6.46,30.35H181l-.86-2.15,7.31-28.2h-9.85l-.86-2.16L179,13l25-2.16Z" fill="none" stroke="#fff" stroke-linejoin="round" stroke-width="0.5"/><path d="M230,13l-1.34,6.33H212.75L211,27.57l13-2.16.86,2.16-1.33,6.27H209.66l-2,9.57,14.56-2.16,1.3,2.16-1.34,6.27h-23.3L198,47.53,206.65,13l22-2.16Z" fill="none" stroke="#fff" stroke-linejoin="round" stroke-width="0.5"/><path d="M244.53,49.68l-.86-2.15L241,35.27h-5.95L232,49.68h-7.44l-.86-2.15L232.34,13h13.13c3.33,0,5.8-1.17,7.77,0,3,1.79,4.52,6.71,3.56,11.22a12.83,12.83,0,0,1-8.36,9.83l4.28,15.63ZM241.38,29c4.41,0,7.17-1,8-4.78s-1.51-4.89-5.93-4.89h-5L236.38,29Z" fill="none" stroke="#fff" stroke-linejoin="round" stroke-width="0.5"/><path d="M286.46,13.6c2.83,0,2.71,1.35,2.71,1.35l2.65,2.76h9.52c.87-4.66-1.83-10.08-5.75-13.3-2.33-1.92-3.13.24-5.92.24L286,4.26c-7.6,0-15.13,6.21-16.74,13.8l-5.9,27.77a53.36,53.36,0,0,0-.75,6.88s6.63,6.92,11.62,6.92h4.36c7.59,0,15.12-6.21,16.73-13.8l2.26-10.63c1.17-5.49-3.26-11.34-6.72-12.92-1.77-.81-1.61,1.4-3.8,1.4-5.27,0-7.67,1-7.67,1-1.39-.71-.92-2.86-.46-4.71S281.46,13.6,286.46,13.6Zm-3.37,18h0c3.46,0,5.69,2.52,5,5.61l-2,8.28c-.73,3.09-4.17,5.62-7.63,5.62h0c-3.46,0-5.69-2.53-5-5.62l2-8.28C276.19,34.08,279.63,31.56,283.09,31.56Z" fill="none" stroke="#fff" stroke-linejoin="round" stroke-width="0.5"/><path d="M1.5,47.53,9.3,10.84h13c8.3,0,13.19,4.26,10.7,16l-1,4.79c-2.47,11.64-9.18,16-17.47,16Zm23.06-16,1-4.79c1.34-6.32.34-9.62-4.6-9.62H15.4L10.28,41.25h5.58C20.8,41.25,23.22,37.9,24.56,31.58Z" fill="#fff"/><path d="M43.76,48c-8.24,0-13-5-10.59-16.22l1.11-5.21c2.41-11.32,9.24-16.22,17.48-16.22s13.05,4.9,10.65,16.22L61.3,31.79C58.91,43,52.06,48,43.76,48ZM40.62,31.79c-1.49,7,.17,9.94,4.48,9.94s7.26-2.92,8.76-9.94L55,26.58c1.49-7-.22-9.94-4.53-9.94s-7.21,2.92-8.7,9.94Z" fill="#fff"/><path d="M89.87,28.44l-.71,3.35C86.78,43,80.51,48,72.21,48s-13-5-10.59-16.22l1-4.68C65.14,15.26,72,10.36,80.21,10.36c7.71,0,11.41,4.36,10.93,11.86H84c.07-3.35-1.42-5.58-5.14-5.58-4.31,0-7.22,2.92-8.71,9.94l-1.1,5.21c-1.5,7,.17,9.94,4.48,9.94s6.45-2.6,7.81-7H75.2l1.33-6.27Z" fill="#fff"/><path d="M112.31,22.22c0-3.46-1.52-5.58-5.14-5.58-4.3,0-7.21,2.92-8.7,9.94l-1.11,5.21c-1.45,6.81.17,9.94,4.48,9.94,3.72,0,5.92-1.86,7.51-5.58h7.07c-3,8.24-8.36,11.86-15.91,11.86-8.24,0-13-5-10.59-16.22L91,26.58c2.41-11.32,9.25-16.22,17.49-16.22,7.28,0,11.41,3.83,10.93,11.86Z" fill="#fff"/><path d="M128.48,48c-8.24,0-13-5-10.59-16.22L119,26.58c2.4-11.32,9.24-16.22,17.48-16.22s13.05,4.9,10.64,16.22L146,31.79C143.63,43,136.77,48,128.48,48Zm-3.15-16.22c-1.49,7,.17,9.94,4.48,9.94s7.27-2.92,8.76-9.94l1.11-5.21c1.49-7-.23-9.94-4.54-9.94s-7.21,2.92-8.7,9.94Z" fill="#fff"/><path d="M154.33,34.61l-2.75,12.92h-7.44l7.8-36.69h13.13c8.45,0,12.89,3.88,11.22,11.75s-7.77,12-16.27,12Zm6-6.28c5.15,0,7.72-1.8,8.55-5.74.75-3.51-1-5.42-6.18-5.42H158l-2.37,11.16Z" fill="#fff"/><path d="M203.93,10.84l-1.35,6.33h-8.53L187.6,47.53h-7.44l6.45-30.36h-9.85l1.35-6.33Z" fill="#fff"/><path d="M228.65,10.84l-1.35,6.33H211.89l-1.76,8.24H224l-1.34,6.27H208.8l-2,9.57h15.42l-1.34,6.28H198l7.8-36.69Z" fill="#fff"/><path d="M243.67,47.53l-3.53-14.41h-5.95l-3.07,14.41h-7.44l7.8-36.69h13.13c8.45,0,12.91,3.78,11.33,11.22a12.83,12.83,0,0,1-8.36,9.84l4.28,15.63Zm-3.15-20.68c4.41,0,7.16-1,8-4.79s-1.51-4.89-5.93-4.89h-5l-2.06,9.68Z" fill="#fff"/><path d="M283.8,10.84c5,0,5.37,4.11,5.37,4.11h9.51c1.39-7.43-3.46-13.45-10.94-13.45h-4.36c-7.59,0-15.12,6.21-16.73,13.8l-5.9,27.77c-1.62,7.59,3.27,13.8,10.86,13.8H276c7.6,0,15.13-6.21,16.74-13.8L295,32.44c1.76-8.3-4.05-11.51-10.52-11.51-5.27,0-7.67.95-7.67.95-1.39-.71-.93-2.86-.46-4.71S278.81,10.84,283.8,10.84Zm-3.36,18h0c3.46,0,5.69,2.52,4.95,5.61l-2,8.29c-.74,3.08-4.17,5.61-7.63,5.61h0c-3.47,0-5.7-2.53-5-5.61l2-8.29C273.54,31.32,277,28.8,280.44,28.8Z" fill="#fff"/><path d="M1.5,47.53,9.3,10.84h13c8.3,0,13.19,4.26,10.7,16l-1,4.79c-2.47,11.64-9.18,16-17.47,16Zm23.06-16,1-4.79c1.34-6.32.34-9.62-4.6-9.62H15.4L10.28,41.25h5.58C20.8,41.25,23.22,37.9,24.56,31.58Z" fill="none" stroke="#fff" stroke-linejoin="round" stroke-width="0.5"/><path d="M22.32,10.84c8.3,0,13.19,4.26,10.7,16l-1,4.79c-2.47,11.64-9.18,16-17.47,16H1.5L9.3,10.84h13m-12,30.41h5.58c4.94,0,7.36-3.35,8.7-9.67l1-4.79c1.34-6.32.34-9.62-4.6-9.62H15.4L10.28,41.25m12-31.41H8.49l-.17.8L.52,47.32.27,48.53H14.53c9.74,0,16.12-5.79,18.45-16.74L34,27c1.27-6,.72-10.45-1.62-13.34-2.05-2.53-5.44-3.82-10.06-3.82Zm-6.11,8.33H21a4,4,0,0,1,3.33,1.16c1,1.2,1.07,3.58.29,7.25l-1,4.79c-1.34,6.31-3.58,8.88-7.72,8.88H11.51l4.7-22.08Z" fill="none" stroke="#fff" stroke-linejoin="round" stroke-width="0.5"/><path d="M43.76,48c-8.24,0-13-5-10.59-16.22l1.11-5.21c2.41-11.32,9.24-16.22,17.48-16.22s13.05,4.9,10.65,16.22L61.3,31.79C58.91,43,52.06,48,43.76,48ZM40.62,31.79c-1.49,7,.17,9.94,4.48,9.94s7.26-2.92,8.76-9.94L55,26.58c1.49-7-.22-9.94-4.53-9.94s-7.21,2.92-8.7,9.94Z" fill="none" stroke="#fff" stroke-linejoin="round" stroke-width="0.5"/><path d="M51.76,10.36c8.3,0,13.05,4.9,10.65,16.22L61.3,31.79C58.91,43,52.06,48,43.76,48s-13-5-10.59-16.22l1.11-5.21c2.41-11.32,9.24-16.22,17.48-16.22M45.1,41.73c4.3,0,7.26-2.92,8.76-9.94L55,26.58c1.49-7-.22-9.94-4.53-9.94s-7.21,2.92-8.7,9.94l-1.11,5.21c-1.49,7,.17,9.94,4.48,9.94M51.76,9.36c-9.57,0-16.12,6-18.46,17l-1.1,5.21C30.93,37.52,31.54,42.07,34,45.1,36.06,47.66,39.44,49,43.76,49c9.47,0,16.22-6.2,18.52-17l1.1-5.21c1.27-6,.68-10.51-1.76-13.52-2.1-2.59-5.41-3.91-9.86-3.91ZM45.1,40.73A3.76,3.76,0,0,1,42,39.58c-1-1.29-1.17-3.84-.37-7.58l1.1-5.21c1.75-8.2,5.25-9.15,7.73-9.15a3.8,3.8,0,0,1,3.16,1.17c1,1.3,1.19,3.84.39,7.56l-1.1,5.21c-1.75,8.2-5.28,9.15-7.78,9.15Z" fill="none" stroke="#fff" stroke-linejoin="round" stroke-width="0.5"/><path d="M89.87,28.44l-.71,3.35C86.78,43,80.51,48,72.21,48s-13-5-10.59-16.22l1-4.68C65.14,15.26,72,10.36,80.21,10.36c7.71,0,11.41,4.36,10.93,11.86H84c.07-3.35-1.42-5.58-5.14-5.58-4.31,0-7.22,2.92-8.71,9.94l-1.1,5.21c-1.5,7,.17,9.94,4.48,9.94s6.45-2.6,7.81-7H75.2l1.33-6.27Z" fill="none" stroke="#fff" stroke-linejoin="round" stroke-width="0.5"/><path d="M80.21,10.36c7.71,0,11.41,4.36,10.93,11.86H84c.07-3.35-1.42-5.58-5.14-5.58-4.31,0-7.21,2.92-8.71,9.94l-1.1,5.21c-1.5,7,.17,9.94,4.47,9.94s6.46-2.6,7.82-7H75.2l1.33-6.27H89.87l-.71,3.35C86.78,43,80.51,48,72.21,48s-13-5-10.59-16.22l1-4.68C65.14,15.26,72,10.36,80.21,10.36m0-1C70.64,9.36,64,15.59,61.64,26.9l-1,4.68c-1.26,6-.66,10.49,1.8,13.52C64.51,47.66,67.89,49,72.21,49c6.53,0,14.94-2.95,17.93-17l.71-3.35.26-1.21H75.72l-.17.79-1.33,6.28L74,35.71h6c-1.36,3.51-3.33,5-6.42,5a3.75,3.75,0,0,1-3.12-1.15c-1-1.29-1.17-3.84-.38-7.58l1.11-5.21c1.74-8.2,5.25-9.15,7.73-9.15a4.19,4.19,0,0,1,3.09,1,4.78,4.78,0,0,1,1,3.53l0,1h9.08l.06-.94c.26-4.13-.67-7.36-2.77-9.6s-5.15-3.32-9.16-3.32Z" fill="none" stroke="#fff" stroke-linejoin="round" stroke-width="0.5"/><path d="M112.31,22.22c0-3.46-1.52-5.58-5.14-5.58-4.3,0-7.21,2.92-8.7,9.94l-1.11,5.21c-1.45,6.81.17,9.94,4.48,9.94,3.72,0,5.92-1.86,7.51-5.58h7.07c-3,8.24-8.36,11.86-15.91,11.86-8.24,0-13-5-10.59-16.22L91,26.58c2.41-11.32,9.25-16.22,17.49-16.22,7.28,0,11.41,3.83,10.93,11.86Z" fill="none" stroke="#fff" stroke-linejoin="round" stroke-width="0.5"/><path d="M108.51,10.36c7.28,0,11.41,3.83,10.93,11.86h-7.13c0-3.45-1.52-5.58-5.14-5.58-4.3,0-7.21,2.92-8.7,9.94l-1.11,5.21c-1.45,6.81.17,9.94,4.48,9.94,3.72,0,5.92-1.86,7.51-5.58h7.07c-3,8.24-8.36,11.86-15.91,11.86-8.24,0-13-5-10.59-16.22L91,26.58c2.41-11.32,9.25-16.22,17.49-16.22m0-1c-9.58,0-16.13,6-18.46,17l-1.11,5.21c-1.26,5.94-.66,10.49,1.79,13.52C92.8,47.66,96.18,49,100.51,49c8.18,0,13.86-4.21,16.85-12.52l.49-1.34h-9.16l-.26.61c-1.51,3.53-3.42,5-6.59,5a3.7,3.7,0,0,1-3.07-1.16c-1.07-1.32-1.22-3.87-.43-7.57l1.11-5.21c1.74-8.2,5.24-9.15,7.72-9.15a4.15,4.15,0,0,1,3.07,1,4.84,4.84,0,0,1,1.07,3.55v1h9.08l.06-.94c.25-4.17-.68-7.41-2.77-9.63s-5.14-3.29-9.16-3.29Z" fill="none" stroke="#fff" stroke-linejoin="round" stroke-width="0.5"/><path d="M128.48,48c-8.24,0-13-5-10.59-16.22L119,26.58c2.4-11.32,9.24-16.22,17.48-16.22s13.05,4.9,10.64,16.22L146,31.79C143.63,43,136.77,48,128.48,48Zm-3.15-16.22c-1.49,7,.17,9.94,4.48,9.94s7.27-2.92,8.76-9.94l1.11-5.21c1.49-7-.23-9.94-4.54-9.94s-7.21,2.92-8.7,9.94Z" fill="none" stroke="#fff" stroke-linejoin="round" stroke-width="0.5"/><path d="M136.48,10.36c8.29,0,13.05,4.9,10.64,16.22L146,31.79C143.63,43,136.77,48,128.48,48s-13-5-10.59-16.22L119,26.58c2.4-11.32,9.24-16.22,17.48-16.22m-6.67,31.37c4.31,0,7.27-2.92,8.76-9.94l1.11-5.21c1.49-7-.23-9.94-4.54-9.94s-7.21,2.92-8.7,9.94l-1.11,5.21c-1.49,7,.17,9.94,4.48,9.94m6.67-32.37c-9.57,0-16.13,6-18.46,17l-1.11,5.21c-1.26,6-.66,10.49,1.79,13.52,2.07,2.56,5.45,3.91,9.78,3.91,9.47,0,16.21-6.2,18.51-17l1.11-5.21c1.27-6,.67-10.51-1.77-13.52-2.09-2.59-5.41-3.91-9.85-3.91Zm-6.67,31.37a3.76,3.76,0,0,1-3.13-1.15c-1-1.29-1.17-3.84-.37-7.58l1.11-5.21c1.74-8.2,5.24-9.15,7.72-9.15a3.79,3.79,0,0,1,3.16,1.17c1.06,1.3,1.19,3.84.4,7.56l-1.11,5.21c-1.74,8.2-5.27,9.15-7.78,9.15Z" fill="none" stroke="#fff" stroke-linejoin="round" stroke-width="0.5"/><path d="M154.33,34.61l-2.75,12.92h-7.44l7.8-36.69h13.13c8.45,0,12.89,3.88,11.22,11.75s-7.77,12-16.27,12Zm6-6.28c5.15,0,7.72-1.8,8.55-5.74.75-3.51-1-5.42-6.18-5.42H158l-2.37,11.16Z" fill="none" stroke="#fff" stroke-linejoin="round" stroke-width="0.5"/><path d="M165.07,10.84c8.45,0,12.89,3.88,11.22,11.75s-7.77,12-16.27,12h-5.69l-2.75,12.92h-7.44l7.8-36.69h13.13m-9.41,17.49h4.63c5.15,0,7.72-1.8,8.55-5.74.75-3.51-1-5.42-6.18-5.42H158l-2.37,11.16m9.41-18.49H151.13l-.17.8-7.8,36.68-.26,1.21h9.49l.17-.79,2.58-12.13H160c9.09,0,15.54-4.79,17.24-12.81.81-3.8.3-6.87-1.51-9.11-2.07-2.55-5.66-3.85-10.68-3.85Zm-6.23,8.33h3.82c2.48,0,4.11.46,4.84,1.36a3.26,3.26,0,0,1,.36,2.85c-.74,3.52-2.94,4.95-7.57,4.95H156.9l1.94-9.16Z" fill="none" stroke="#fff" stroke-linejoin="round" stroke-width="0.5"/><path d="M203.93,10.84l-1.35,6.33h-8.53L187.6,47.53h-7.44l6.45-30.36h-9.85l1.35-6.33Z" fill="none" stroke="#fff" stroke-linejoin="round" stroke-width="0.5"/><path d="M203.93,10.84l-1.35,6.33h-8.53L187.6,47.53h-7.44l6.45-30.36h-9.85l1.35-6.33h25.82m1.23-1H177.3l-.17.8L175.78,17l-.25,1.21h9.85l-6.2,29.15-.26,1.21h9.49l.17-.79,6.28-29.57h8.53l.17-.79,1.35-6.33.25-1.21Z" fill="none" stroke="#fff" stroke-linejoin="round" stroke-width="0.5"/><path d="M228.65,10.84l-1.35,6.33H211.89l-1.76,8.24H224l-1.34,6.27H208.8l-2,9.57h15.42l-1.34,6.28H198l7.8-36.69Z" fill="none" stroke="#fff" stroke-linejoin="round" stroke-width="0.5"/><path d="M228.65,10.84l-1.35,6.33H211.89l-1.76,8.24H224l-1.34,6.27H208.8l-2,9.57h15.42l-1.34,6.28H198l7.8-36.69h22.86m1.23-1H205l-.17.8L197,47.32l-.25,1.21h24.9l.17-.79,1.33-6.28.26-1.21H208l1.61-7.57h13.82l.17-.79,1.34-6.27.25-1.21H211.37l1.33-6.24h15.41l.17-.79,1.35-6.33.25-1.21Z" fill="none" stroke="#fff" stroke-linejoin="round" stroke-width="0.5"/><path d="M243.67,47.53l-3.53-14.41h-5.95l-3.07,14.41h-7.44l7.8-36.69h13.13c8.45,0,12.91,3.78,11.33,11.22a12.83,12.83,0,0,1-8.36,9.84l4.28,15.63Zm-3.15-20.68c4.41,0,7.16-1,8-4.79s-1.51-4.89-5.93-4.89h-5l-2.06,9.68Z" fill="none" stroke="#fff" stroke-linejoin="round" stroke-width="0.5"/><path d="M244.61,10.84c8.45,0,12.91,3.78,11.33,11.22a12.83,12.83,0,0,1-8.36,9.84l4.28,15.63h-8.19l-3.53-14.41h-5.95l-3.07,14.41h-7.44l7.8-36.69h13.13m-9.09,16h5c4.41,0,7.16-1,8-4.79s-1.51-4.89-5.93-4.89h-5l-2.06,9.68m9.09-17H230.67l-.17.8-7.8,36.68-.25,1.21h9.48l.17-.79L235,34.12h4.36l3.34,13.65.19.76h10.28l-.35-1.27-4-14.78a13.83,13.83,0,0,0,8.14-10.21c.75-3.54.25-6.42-1.48-8.57-2.08-2.56-5.72-3.86-10.83-3.86Zm-6.22,8.33h4.18c2.53,0,4.06.37,4.69,1.15a3,3,0,0,1,.26,2.53c-.63,2.95-2.46,4-7,4h-3.77l1.64-7.68Z" fill="none" stroke="#fff" stroke-linejoin="round" stroke-width="0.5"/><path d="M283.8,10.84c5,0,5.37,4.11,5.37,4.11h9.51c1.39-7.43-3.46-13.45-10.94-13.45h-4.36c-7.59,0-15.12,6.21-16.73,13.8l-5.9,27.77c-1.62,7.59,3.27,13.8,10.86,13.8H276c7.6,0,15.13-6.21,16.74-13.8L295,32.44c1.76-8.3-4.05-11.51-10.52-11.51-5.27,0-7.67.95-7.67.95-1.39-.71-.93-2.86-.46-4.71S278.81,10.84,283.8,10.84Zm-3.36,18h0c3.46,0,5.69,2.52,4.95,5.61l-2,8.29c-.74,3.08-4.17,5.61-7.63,5.61h0c-3.47,0-5.7-2.53-5-5.61l2-8.29C273.54,31.32,277,28.8,280.44,28.8Z" fill="none" stroke="#fff" stroke-linejoin="round" stroke-width="0.5"/><path d="M287.74,1.5c7.48,0,12.33,6,10.94,13.45h-9.51s-.37-4.11-5.37-4.11-7,4.48-7.48,6.33-.93,4,.46,4.71c0,0,2.4-.95,7.67-.95,6.47,0,12.28,3.21,10.52,11.51l-2.26,10.63c-1.61,7.59-9.14,13.8-16.74,13.8h-4.36c-7.59,0-12.48-6.21-10.86-13.8l5.9-27.77c1.61-7.59,9.14-13.8,16.73-13.8h4.36M275.79,48.31c3.46,0,6.89-2.53,7.63-5.62l2-8.28c.74-3.09-1.49-5.61-4.95-5.61s-6.9,2.52-7.64,5.61l-2,8.28c-.74,3.09,1.49,5.62,5,5.62M287.74.5h-4.36c-8.05,0-16,6.55-17.71,14.6l-5.9,27.76A12.49,12.49,0,0,0,262,53.55a12,12,0,0,0,9.57,4.32H276c8.06,0,16-6.55,17.72-14.59L296,32.65c.77-3.64.24-6.62-1.57-8.86-2-2.49-5.54-3.86-9.93-3.86a27.66,27.66,0,0,0-7.45.83c-.38-.69.06-2.44.29-3.35,0-.22,1.45-5.57,6.51-5.57,3.92,0,4.34,2.88,4.37,3.21l.1.89h11.24l.16-.82a12.43,12.43,0,0,0-2.44-10.42A12,12,0,0,0,287.74.5ZM275.79,47.31a4.28,4.28,0,0,1-3.42-1.45,3.36,3.36,0,0,1-.57-2.93l2-8.28c.62-2.63,3.67-4.85,6.66-4.85a4.25,4.25,0,0,1,3.41,1.45,3.36,3.36,0,0,1,.57,2.93l-2,8.28c-.63,2.63-3.68,4.85-6.66,4.85Z" fill="none" stroke="#fff" stroke-linejoin="round" stroke-width="0.5"/><path d="M241.28,56.85,237.88,74H17l2.14-17.14H241.28M243,54.71H18.14a1.12,1.12,0,0,0-1.05.88L14.64,75.25a.71.71,0,0,0,.71.88H238.76a1.13,1.13,0,0,0,1.05-.88l3.9-19.66a.71.71,0,0,0-.71-.88Z" fill="#fff"/><path d="M28.4,60.68l-2,9.38a1.89,1.89,0,0,0,0,.3.28.28,0,0,0,.09.2.68.68,0,0,0,.27.15,4,4,0,0,0,.53.12.22.22,0,0,1,.2.3l0,.16a.75.75,0,0,1-.07.18l-1.21-.06-1.14,0-1.16,0-1.21.06a.35.35,0,0,1,0-.18,1.57,1.57,0,0,1,0-.16.4.4,0,0,1,.08-.2.38.38,0,0,1,.27-.12,2.15,2.15,0,0,0,.88-.24.84.84,0,0,0,.28-.51l2-9.38H24.58a3.25,3.25,0,0,0-.87.1,2.25,2.25,0,0,0-.67.3,2.87,2.87,0,0,0-.57.54,8.54,8.54,0,0,0-.59.79.33.33,0,0,1-.3.16.67.67,0,0,1-.24,0l-.2-.08c.14-.29.27-.54.37-.76s.2-.44.29-.65.19-.52.26-.73a2.34,2.34,0,0,1,.19-.47.36.36,0,0,1,.31-.16c.14,0,.39,0,.77.06s.84,0,1.39,0h5.49c.54,0,1,0,1.39,0s.67-.06.81-.06a.25.25,0,0,1,.25.16,1.59,1.59,0,0,1,0,.47,5.25,5.25,0,0,0,0,.73c0,.21,0,.43,0,.65s0,.47.06.76l-.24.08a.85.85,0,0,1-.25,0,.23.23,0,0,1-.25-.16,6.21,6.21,0,0,0-.25-.79,1.63,1.63,0,0,0-.35-.54,1.42,1.42,0,0,0-.54-.3,2.71,2.71,0,0,0-.81-.1Z" fill="#fff"/><path d="M35.46,70.06a1.89,1.89,0,0,0,0,.3.26.26,0,0,0,.1.2.7.7,0,0,0,.3.15,5.15,5.15,0,0,0,.58.12c.11,0,.15.12.11.3l0,.16a1.71,1.71,0,0,1-.07.18l-1.21-.06-1.14,0-1.16,0-1.23.06a.54.54,0,0,1,0-.18l0-.16q.06-.28.24-.3c.26,0,.46-.08.62-.12a1,1,0,0,0,.36-.15.59.59,0,0,0,.19-.2,1.5,1.5,0,0,0,.1-.3l1.9-8.93a1.1,1.1,0,0,0,0-.3.3.3,0,0,0-.1-.2.65.65,0,0,0-.29-.15,3.59,3.59,0,0,0-.58-.12c-.11,0-.15-.14-.11-.3a1.57,1.57,0,0,0,0-.16.6.6,0,0,1,.08-.2l1.2.06,1.15,0,1.16,0,1.23-.06a1.48,1.48,0,0,1,0,.2,1.57,1.57,0,0,1,0,.16.35.35,0,0,1-.24.3,4.56,4.56,0,0,0-.62.12,1.18,1.18,0,0,0-.37.15.59.59,0,0,0-.19.2,2.82,2.82,0,0,0-.09.3Z" fill="#fff"/><path d="M41.91,69.87c-.06.24.07.41.37.49a6.33,6.33,0,0,0,1.56.13h.68a2.83,2.83,0,0,0,.8-.1,1.74,1.74,0,0,0,.65-.33,3,3,0,0,0,.58-.6,8.35,8.35,0,0,0,.59-.88.31.31,0,0,1,.3-.14.58.58,0,0,1,.2,0l.23.11c-.18.38-.35.79-.53,1.24s-.33.88-.48,1.31a.44.44,0,0,1-.17.27.63.63,0,0,1-.22,0l-.4,0-.55,0-.61,0-.54,0h-4l-1.19,0-1.22.06a.42.42,0,0,1,0-.19c0-.07,0-.13,0-.17s.12-.27.24-.28a4.46,4.46,0,0,0,1-.27.65.65,0,0,0,.4-.5l1.9-8.93a1.1,1.1,0,0,0,0-.3.33.33,0,0,0-.09-.2.7.7,0,0,0-.3-.15,3.67,3.67,0,0,0-.57-.12c-.12,0-.15-.14-.12-.3s0-.09,0-.16a.59.59,0,0,1,.07-.2l1.2.06,1.14,0h.57l.67,0,.7,0,.65,0c0,.06,0,.12,0,.2a1.37,1.37,0,0,0,0,.16.37.37,0,0,1-.25.3,3.05,3.05,0,0,0-1.08.28.72.72,0,0,0-.37.52Z" fill="#fff"/><path d="M52.07,69.87c0,.24.08.41.38.49a6.22,6.22,0,0,0,1.56.13h.68a2.75,2.75,0,0,0,.79-.1,1.67,1.67,0,0,0,.65-.33,2.78,2.78,0,0,0,.58-.6,7,7,0,0,0,.59-.88.34.34,0,0,1,.3-.14.53.53,0,0,1,.2,0l.23.11c-.18.38-.35.79-.52,1.24s-.33.88-.48,1.31a.44.44,0,0,1-.18.27.54.54,0,0,1-.21,0l-.4,0-.56,0-.61,0-.54,0H50.48l-1.19,0-1.21.06a.3.3,0,0,1,0-.19c0-.07,0-.13,0-.17s.11-.27.23-.28a4.32,4.32,0,0,0,1-.27.65.65,0,0,0,.4-.5l1.9-8.93a.84.84,0,0,0,0-.3.35.35,0,0,0-.1-.2.7.7,0,0,0-.3-.15,3.67,3.67,0,0,0-.57-.12c-.11,0-.15-.14-.11-.3s0-.09,0-.16a.6.6,0,0,1,.08-.2l1.2.06,1.13,0h.58l.67,0,.7,0,.64,0c0,.06,0,.12,0,.2a1.57,1.57,0,0,1,0,.16.38.38,0,0,1-.24.3,3.13,3.13,0,0,0-1.09.28.75.75,0,0,0-.37.52Z" fill="#fff"/><path d="M75.26,65.59a7.52,7.52,0,0,1-2.3,4,7.43,7.43,0,0,1-2.2,1.33,7.54,7.54,0,0,1-2.85.51H64.25l-1.08,0L62,71.47a.29.29,0,0,1,0-.16.5.5,0,0,0,0-.14.48.48,0,0,1,.12-.26.38.38,0,0,1,.17-.08,3.79,3.79,0,0,0,.88-.24.73.73,0,0,0,.43-.53l1.89-8.93a.43.43,0,0,0-.15-.51,2.29,2.29,0,0,0-.82-.26c-.09,0-.15-.06-.16-.12a.57.57,0,0,1,0-.22,1.06,1.06,0,0,0,0-.14.71.71,0,0,1,.08-.18c.24,0,.46,0,.66,0l.54,0,.49,0h4.14a6.35,6.35,0,0,1,2.57.46,4.26,4.26,0,0,1,1.66,1.25,4,4,0,0,1,.78,1.84A5.94,5.94,0,0,1,75.26,65.59Zm-2.54.33a7.68,7.68,0,0,0,.19-2.39,3.21,3.21,0,0,0-.59-1.63A2.75,2.75,0,0,0,71,61a6.4,6.4,0,0,0-2-.29h-1.1L65.9,69.85a.62.62,0,0,0,0,.3.28.28,0,0,0,.17.2,1.62,1.62,0,0,0,.42.1,5.17,5.17,0,0,0,.76,0,5.28,5.28,0,0,0,3.68-1.23A6,6,0,0,0,72.72,65.92Z" fill="#fff"/><path d="M81.44,60.68,80.52,65H83a.58.58,0,0,0,.52-.28,4,4,0,0,0,.4-.9.38.38,0,0,1,.15-.19.61.61,0,0,1,.24,0h.17a.3.3,0,0,1,.16,0c-.08.27-.17.59-.26,1s-.17.67-.22.92-.1.46-.15.76-.09.62-.14,1a.61.61,0,0,1-.17,0h-.18c-.21,0-.31-.08-.28-.25a2.82,2.82,0,0,0,0-.92.35.35,0,0,0-.38-.24H80.33l-.85,4c0,.24.07.41.36.49a6,6,0,0,0,1.54.13h.75a2.84,2.84,0,0,0,.93-.14,2.94,2.94,0,0,0,.74-.4,4,4,0,0,0,.63-.61c.19-.23.39-.49.59-.78a.31.31,0,0,1,.28-.12.58.58,0,0,1,.2,0l.23.11-.14.27a2,2,0,0,0-.13.25,2.86,2.86,0,0,0-.24.42c-.07.16-.13.28-.18.38l-.17.4-.18.43c-.06.13-.11.26-.17.36l-.1.22a.39.39,0,0,1-.32.14l-.41,0-.57,0-.63,0-.55,0h-4l-1.2,0-1.21.06a.3.3,0,0,1,0-.19c0-.07,0-.13,0-.17s.11-.27.24-.28a4.35,4.35,0,0,0,1-.27.65.65,0,0,0,.4-.5l1.9-8.93a.62.62,0,0,0,0-.3.32.32,0,0,0-.16-.19,1.56,1.56,0,0,0-.36-.15L78,60.36c-.11,0-.15-.14-.11-.32s0-.12,0-.17A.47.47,0,0,1,78,59.7c.5,0,1,.06,1.34.07l1,0H84c.53,0,1,0,1.39,0s.66-.06.81-.06a.25.25,0,0,1,.25.16,2.89,2.89,0,0,1,0,.53,6.74,6.74,0,0,0,0,.79,5.8,5.8,0,0,0,0,.59c0,.19,0,.42.07.7l-.22.07a.83.83,0,0,1-.22,0,.23.23,0,0,1-.25-.16,4.93,4.93,0,0,0-.25-.79,1.49,1.49,0,0,0-.35-.54,1.27,1.27,0,0,0-.54-.29,3.12,3.12,0,0,0-.81-.09Z" fill="#fff"/><path d="M93.82,67.46H90.07l-1.45,2.48a.76.76,0,0,0-.12.19l0,.16a.29.29,0,0,0,.12.32,1.72,1.72,0,0,0,.71.22c.16,0,.22.14.18.34a2.08,2.08,0,0,1-.1.3l-1-.06c-.36,0-.7,0-1,0l-.75,0c-.27,0-.56,0-.89.07a.43.43,0,0,1,0-.16,1.06,1.06,0,0,1,0-.14c0-.23.15-.35.31-.36a4,4,0,0,0,.84-.23,1.13,1.13,0,0,0,.47-.43l6.49-10.27a.59.59,0,0,1,.49-.31h.17l.19,0,2,10.59a.54.54,0,0,0,.33.41,2.25,2.25,0,0,0,.62.18c.17,0,.23.16.19.36a2,2,0,0,1-.11.32l-1.11-.06-1,0H95l-.74,0-.75,0-.62,0a.43.43,0,0,1,0-.16,1.06,1.06,0,0,1,0-.14.45.45,0,0,1,.11-.24.32.32,0,0,1,.16-.1,3.12,3.12,0,0,0,.73-.21.51.51,0,0,0,.3-.34,1.22,1.22,0,0,0,0-.27Zm-.15-.89-.67-4-2.4,4Z" fill="#fff"/><path d="M105.24,60.68l-2,9.38a2.08,2.08,0,0,0,0,.3.4.4,0,0,0,.09.2.66.66,0,0,0,.28.15,3.76,3.76,0,0,0,.52.12.23.23,0,0,1,.21.3l0,.16-.06.18L103,71.41l-1.14,0-1.16,0-1.22.06a.54.54,0,0,1,0-.18c0-.07,0-.12,0-.16a.53.53,0,0,1,.09-.2.38.38,0,0,1,.27-.12,2.2,2.2,0,0,0,.88-.24.83.83,0,0,0,.27-.51l2-9.38h-1.57a3.2,3.2,0,0,0-.87.1,2.15,2.15,0,0,0-.67.3,2.91,2.91,0,0,0-.58.54c-.18.22-.38.48-.59.79a.33.33,0,0,1-.3.16.75.75,0,0,1-.24,0l-.2-.08.38-.76a7.08,7.08,0,0,0,.28-.65c.11-.28.19-.52.26-.73a2.34,2.34,0,0,1,.19-.47.38.38,0,0,1,.32-.16c.13,0,.39,0,.77.06s.84,0,1.38,0h5.5c.53,0,1,0,1.39,0s.66-.06.8-.06a.25.25,0,0,1,.26.16,2,2,0,0,1,0,.47,5.25,5.25,0,0,0,0,.73c0,.21,0,.43,0,.65s0,.47.07.76l-.24.08a.85.85,0,0,1-.25,0,.24.24,0,0,1-.26-.16,4.93,4.93,0,0,0-.25-.79,1.49,1.49,0,0,0-.35-.54,1.29,1.29,0,0,0-.54-.3,2.71,2.71,0,0,0-.81-.1Z" fill="#fff"/><path d="M119.37,70.06a1.16,1.16,0,0,0,0,.3.26.26,0,0,0,.1.2.7.7,0,0,0,.3.15,5.41,5.41,0,0,0,.57.12q.18,0,.12.3l0,.16-.07.18-1.2-.06-1.13,0-1.18,0-1.23.06a.28.28,0,0,1,0-.18c0-.07,0-.12,0-.16s.12-.29.25-.3l.62-.12a1,1,0,0,0,.36-.15.71.71,0,0,0,.19-.2,1.07,1.07,0,0,0,.09-.3l.9-4.19H113.2l-.89,4.19a1.24,1.24,0,0,0,0,.3.35.35,0,0,0,.1.2.81.81,0,0,0,.31.15,5.41,5.41,0,0,0,.57.12c.12,0,.15.12.12.3l-.05.16a1.89,1.89,0,0,1-.06.18L112,71.41l-1.15,0-1.15,0-1.23.06a.38.38,0,0,1,0-.18,1.57,1.57,0,0,1,0-.16q.06-.28.24-.3l.63-.12a1.22,1.22,0,0,0,.36-.15.67.67,0,0,0,.18-.2,1.05,1.05,0,0,0,.1-.3l1.9-8.93a.84.84,0,0,0,0-.3.35.35,0,0,0-.1-.2.7.7,0,0,0-.3-.15,3.67,3.67,0,0,0-.57-.12c-.11,0-.15-.14-.11-.3a.61.61,0,0,1,0-.16.44.44,0,0,1,.08-.2l1.2.06,1.13,0,1.17,0,1.24-.06c0,.06,0,.12,0,.2a1.57,1.57,0,0,1,0,.16.38.38,0,0,1-.24.3,4.26,4.26,0,0,0-.62.12,1.25,1.25,0,0,0-.38.15.48.48,0,0,0-.18.2,1.07,1.07,0,0,0-.09.3l-.81,3.8h4.82l.8-3.8a.84.84,0,0,0,0-.3.35.35,0,0,0-.1-.2.7.7,0,0,0-.3-.15,3.67,3.67,0,0,0-.57-.12c-.11,0-.15-.14-.11-.3a1.57,1.57,0,0,0,0-.16.6.6,0,0,1,.08-.2l1.21.06,1.16,0,1.15,0,1.22-.06a1.48,1.48,0,0,1,0,.2,1.57,1.57,0,0,1,0,.16.35.35,0,0,1-.24.3,4.26,4.26,0,0,0-.62.12,1.18,1.18,0,0,0-.37.15.59.59,0,0,0-.19.2,2.82,2.82,0,0,0-.09.3Z" fill="#fff"/><path d="M138.83,65.59a7,7,0,0,1-.8,2.08,7.14,7.14,0,0,1-3.69,3.2,7.58,7.58,0,0,1-2.85.51h-3.66l-1.09,0-1.18.06a.43.43,0,0,1,0-.16,1.06,1.06,0,0,1,0-.14.48.48,0,0,1,.12-.26.38.38,0,0,1,.17-.08,3.79,3.79,0,0,0,.88-.24.69.69,0,0,0,.42-.53l1.9-8.93a.45.45,0,0,0-.15-.51,2.36,2.36,0,0,0-.83-.26q-.14,0-.15-.12a.57.57,0,0,1,0-.22,1.06,1.06,0,0,0,0-.14.48.48,0,0,1,.08-.18c.24,0,.46,0,.66,0l.53,0,.5,0h4.14a6.3,6.3,0,0,1,2.56.46,4.12,4.12,0,0,1,1.66,1.25,4,4,0,0,1,.79,1.84A6,6,0,0,1,138.83,65.59Zm-2.53.33a7.68,7.68,0,0,0,.19-2.39,3.21,3.21,0,0,0-.59-1.63,2.8,2.8,0,0,0-1.34-.93,6.45,6.45,0,0,0-2-.29h-1.11l-1.94,9.17a.81.81,0,0,0,0,.3.32.32,0,0,0,.18.2,1.43,1.43,0,0,0,.42.1,5.08,5.08,0,0,0,.76,0,5.3,5.3,0,0,0,3.68-1.23A6.08,6.08,0,0,0,136.3,65.92Z" fill="#fff"/><path d="M140.15,65.59a6.87,6.87,0,0,1,1-2.34,8.38,8.38,0,0,1,1.7-1.91A8.09,8.09,0,0,1,145,60.05a6.56,6.56,0,0,1,2.45-.48,5.54,5.54,0,0,1,2.29.45,4.27,4.27,0,0,1,1.66,1.25,4.59,4.59,0,0,1,.87,1.91,6,6,0,0,1-.05,2.41,7,7,0,0,1-1,2.34,8.17,8.17,0,0,1-1.7,1.91,8.07,8.07,0,0,1-2.2,1.28,6.57,6.57,0,0,1-2.46.48,5.57,5.57,0,0,1-2.29-.45A4.2,4.2,0,0,1,141,69.9a4.61,4.61,0,0,1-.87-1.9A6,6,0,0,1,140.15,65.59Zm5.22,5.08a3.18,3.18,0,0,0,1.42-.33,4.33,4.33,0,0,0,1.24-.9,5.8,5.8,0,0,0,1-1.34,6.17,6.17,0,0,0,.59-1.64,10.71,10.71,0,0,0,.26-2.36,5.31,5.31,0,0,0-.33-1.88,2.83,2.83,0,0,0-1-1.25,2.74,2.74,0,0,0-1.62-.45,3.11,3.11,0,0,0-1.27.28,4.17,4.17,0,0,0-1.21.8,5.29,5.29,0,0,0-1,1.27,5.93,5.93,0,0,0-.63,1.7,11.47,11.47,0,0,0-.26,2.44,5.56,5.56,0,0,0,.34,1.94,2.75,2.75,0,0,0,.93,1.26A2.46,2.46,0,0,0,145.37,70.67Z" fill="#fff"/><path d="M167.09,59.61l.16,0h.13a.23.23,0,0,1,.19.07.59.59,0,0,1,.08.24l1.29,7.7,3.52-6.29a1.35,1.35,0,0,0,.16-.38.29.29,0,0,0-.15-.36,2.32,2.32,0,0,0-.76-.19c-.14,0-.19-.13-.14-.34a.31.31,0,0,1,0-.08l0-.1,0-.14.85.06,1,0,1,0a6.78,6.78,0,0,0,.84-.07v.14a.43.43,0,0,0,0,.11.25.25,0,0,1,0,.09c-.05.22-.15.34-.31.36a2.85,2.85,0,0,0-.84.17,1.1,1.1,0,0,0-.49.49l-6,10.52-.13,0h-.12a.23.23,0,0,1-.18-.06.62.62,0,0,1-.1-.25l-1.26-7.74-4.54,8-.14,0h-.11a.27.27,0,0,1-.2-.06.54.54,0,0,1-.08-.25L159.13,61a.53.53,0,0,0-.23-.39,2.26,2.26,0,0,0-.86-.2c-.15,0-.2-.14-.15-.38a1,1,0,0,0,0-.15.52.52,0,0,1,.07-.15l.6,0,.68,0,.67,0h.58l1.29,0,1.26-.06a1.09,1.09,0,0,1,0,.18.46.46,0,0,1,0,.14c0,.21-.15.33-.3.34a2.53,2.53,0,0,0-.84.18.47.47,0,0,0-.31.34.57.57,0,0,0,0,.13,1,1,0,0,0,0,.15l1,6.44Z" fill="#fff"/><path d="M179.68,60.68l-.91,4.3h2.51a.6.6,0,0,0,.53-.28,4.49,4.49,0,0,0,.4-.9.3.3,0,0,1,.15-.19.55.55,0,0,1,.24,0h.17a.32.32,0,0,1,.16,0c-.08.27-.17.59-.26,1s-.17.67-.23.92-.09.46-.14.76-.1.62-.14,1a.6.6,0,0,1-.18,0h-.17c-.21,0-.31-.08-.29-.25a2.91,2.91,0,0,0,0-.92.36.36,0,0,0-.39-.24h-2.51l-.85,4c0,.24.07.41.36.49a6,6,0,0,0,1.54.13h.75a2.84,2.84,0,0,0,.93-.14,3.12,3.12,0,0,0,.74-.4,5.15,5.15,0,0,0,.63-.61c.19-.23.38-.49.59-.78a.29.29,0,0,1,.27-.12.63.63,0,0,1,.21,0l.22.11-.13.27a2,2,0,0,0-.14.25,4.16,4.16,0,0,0-.23.42,3.33,3.33,0,0,1-.19.38l-.16.4-.18.43-.17.36-.11.22a.37.37,0,0,1-.31.14l-.41,0-.57,0-.63,0-.55,0h-4.05l-1.19,0-1.22.06a.42.42,0,0,1,0-.19c0-.07,0-.13,0-.17s.12-.27.24-.28a4.46,4.46,0,0,0,1-.27.65.65,0,0,0,.4-.5l1.9-8.93a.62.62,0,0,0,0-.3.32.32,0,0,0-.16-.19,1.48,1.48,0,0,0-.37-.15l-.58-.13c-.11,0-.15-.14-.11-.32l0-.17a.77.77,0,0,1,.07-.17c.51,0,1,.06,1.35.07l1,0h3.65c.54,0,1,0,1.4,0s.66-.06.8-.06a.24.24,0,0,1,.25.16,2,2,0,0,1,0,.53,6.74,6.74,0,0,0,0,.79,5.8,5.8,0,0,0,0,.59c0,.19,0,.42.06.7l-.21.07a.83.83,0,0,1-.22,0,.23.23,0,0,1-.25-.16,6.21,6.21,0,0,0-.25-.79,1.63,1.63,0,0,0-.35-.54,1.31,1.31,0,0,0-.55-.29,3,3,0,0,0-.81-.09Z" fill="#fff"/><path d="M195.92,65.19a5.14,5.14,0,0,1,1.31.3,2.88,2.88,0,0,1,1,.59,2.1,2.1,0,0,1,.54.86,2.29,2.29,0,0,1,0,1.11,3.81,3.81,0,0,1-1.72,2.48,5.11,5.11,0,0,1-1.5.64,7.51,7.51,0,0,1-1.82.21h-3.81l-.77,0-.43,0h-.42v-.22l0-.08a.48.48,0,0,1,.12-.26.38.38,0,0,1,.17-.08,2.74,2.74,0,0,0,.93-.25.72.72,0,0,0,.37-.52l1.9-8.93a.47.47,0,0,0-.12-.51,2.23,2.23,0,0,0-.86-.26.17.17,0,0,1-.15-.13.69.69,0,0,1,0-.24l0-.09a.16.16,0,0,1,0-.08.61.61,0,0,1,.05-.12l1.19.06,1.09,0h2.46a6.2,6.2,0,0,1,1.84.22,2.5,2.5,0,0,1,1.07.62,1.74,1.74,0,0,1,.44.9,2.93,2.93,0,0,1,0,1.06,2.72,2.72,0,0,1-1,1.65,5.31,5.31,0,0,1-1.9.9Zm-3.71,4.69a.4.4,0,0,0,.27.53,2.7,2.7,0,0,0,.86.12,3.24,3.24,0,0,0,1.95-.53,2.71,2.71,0,0,0,1-1.7,2.41,2.41,0,0,0,0-1.13,1.65,1.65,0,0,0-.43-.79,1.82,1.82,0,0,0-.77-.47,3,3,0,0,0-1-.16h-1Zm1.35-5a3.86,3.86,0,0,0,1.2-.17,2.45,2.45,0,0,0,1.39-1.2,3.33,3.33,0,0,0,.29-.82,2.58,2.58,0,0,0,0-.78,1.31,1.31,0,0,0-.29-.63,1.45,1.45,0,0,0-.66-.42,3.28,3.28,0,0,0-1.07-.15h-.29l-.88,4.17Z" fill="#fff"/><path d="M206.12,67.46h-3.75l-1.45,2.48a.76.76,0,0,0-.12.19l-.05.16a.29.29,0,0,0,.12.32,1.72,1.72,0,0,0,.71.22c.16,0,.22.14.18.34a2.08,2.08,0,0,1-.1.3l-1-.06c-.36,0-.7,0-1,0l-.75,0c-.27,0-.56,0-.89.07a.43.43,0,0,1,0-.16,1.06,1.06,0,0,1,0-.14c.05-.23.15-.35.31-.36a4,4,0,0,0,.84-.23,1.19,1.19,0,0,0,.47-.43l6.48-10.27a.62.62,0,0,1,.5-.31h.17l.19,0,2,10.59a.54.54,0,0,0,.33.41,2.25,2.25,0,0,0,.62.18c.17,0,.23.16.19.36a2,2,0,0,1-.11.32l-1.11-.06-1,0h-.6l-.74,0-.75,0-.62,0a.43.43,0,0,1,0-.16,1.06,1.06,0,0,1,0-.14.45.45,0,0,1,.11-.24.32.32,0,0,1,.16-.1,3.12,3.12,0,0,0,.73-.21.51.51,0,0,0,.3-.34,1.22,1.22,0,0,0,0-.27Zm-.15-.89-.67-4-2.4,4Z" fill="#fff"/><path d="M216.44,66.21h-.77l-.79,3.73a.48.48,0,0,0,.23.58,3.59,3.59,0,0,0,1.12.27q.24,0,.18.36a2,2,0,0,1-.11.32L215,71.41q-.77,0-1.68,0c-.42,0-.84,0-1.24,0l-1.13.06a.43.43,0,0,1,0-.16,1.06,1.06,0,0,1,0-.14c0-.2.13-.32.27-.34a6.32,6.32,0,0,0,.63-.14,1.34,1.34,0,0,0,.39-.14.65.65,0,0,0,.21-.19,1,1,0,0,0,.11-.3l1.9-8.93a.47.47,0,0,0-.15-.52,2.26,2.26,0,0,0-.94-.25.25.25,0,0,1-.12-.11.5.5,0,0,1,0-.25s0-.1,0-.16a.46.46,0,0,1,.07-.14l1.14.06,1.16,0h2.69A5.43,5.43,0,0,1,220,60a3,3,0,0,1,1.13.66,2.15,2.15,0,0,1,.59,1,2.85,2.85,0,0,1,0,1.3,3.56,3.56,0,0,1-.95,1.72A4.61,4.61,0,0,1,219,65.89L220.9,70a1.26,1.26,0,0,0,.6.64,4.67,4.67,0,0,0,.72.27.2.2,0,0,1,.13.08.31.31,0,0,1,0,.22s0,.11,0,.17a.77.77,0,0,1-.07.17l-.55,0-.73,0-.76,0h-.64a.93.93,0,0,1-.68-.31,3,3,0,0,1-.55-.83Zm0-.89a4.62,4.62,0,0,0,1-.11,2.27,2.27,0,0,0,.84-.37,2.2,2.2,0,0,0,.64-.68,3.55,3.55,0,0,0,.4-1.09,2.36,2.36,0,0,0-.16-1.75c-.27-.43-.85-.64-1.76-.64h-.53l-1,4.64Z" fill="#fff"/><path d="M228,65.55l-1,4.51a2.08,2.08,0,0,0,0,.3.26.26,0,0,0,.07.2.53.53,0,0,0,.25.15,3.71,3.71,0,0,0,.5.12c.13,0,.17.11.14.27s0,.09,0,.17l-.07.2-1.15-.06-1.08,0-1.15,0-1.22.06a.3.3,0,0,1,0-.19c0-.07,0-.13,0-.17s.11-.27.23-.28l.63-.12a1.22,1.22,0,0,0,.36-.15.71.71,0,0,0,.19-.2,1.07,1.07,0,0,0,.09-.3l1.9-8.93a.84.84,0,0,0,0-.3.35.35,0,0,0-.1-.2.7.7,0,0,0-.3-.15,3.67,3.67,0,0,0-.57-.12c-.11,0-.15-.14-.11-.3s0-.09,0-.16a.6.6,0,0,1,.08-.2l1.2.06,1.13,0,1.17,0,1.24-.06a1.48,1.48,0,0,1,0,.2,1.57,1.57,0,0,1,0,.16.36.36,0,0,1-.24.3,4.26,4.26,0,0,0-.62.12,1.09,1.09,0,0,0-.37.15.45.45,0,0,0-.19.2,1.54,1.54,0,0,0-.09.3l-.88,4.12,4.7-3.87a1.27,1.27,0,0,0,.5-.61q.06-.3-.72-.39c-.13,0-.17-.13-.12-.38a1.3,1.3,0,0,0,0-.13.77.77,0,0,1,.07-.17l1,.06,1,0H235l.51,0,.51,0,.42,0a.48.48,0,0,1,0,.17,1.3,1.3,0,0,1,0,.13c0,.24-.14.37-.28.4a5,5,0,0,0-.85.24,2.67,2.67,0,0,0-.68.42l-4.36,3.51,3.1,5.35a1.58,1.58,0,0,0,.52.58,2.42,2.42,0,0,0,.75.26c.16,0,.22.13.18.32,0,0,0,.1,0,.19a.53.53,0,0,1-.09.2l-.59,0-.66,0-.65,0h-.54l-1.23,0-1.36.06a1.76,1.76,0,0,1,0-.19,1.49,1.49,0,0,0,0-.17c.05-.19.14-.28.28-.28a2.49,2.49,0,0,0,.63-.14.37.37,0,0,0,.22-.24.44.44,0,0,0,0-.2l-.12-.24Z" fill="#fff"/><path d="M35.87,84.36h1.2V92.6h-1.2Z" fill="#fff"/><path d="M41.39,84.36h1.14l3.61,5.86h0V84.36h1.21V92.6H46.23l-3.61-5.86h0V92.6H41.39Z" fill="#fff"/><path d="M48.92,88.48A15.09,15.09,0,0,1,49,86.56a2.35,2.35,0,0,1,.27-.79,2.85,2.85,0,0,1,2.5-1.48,2.74,2.74,0,0,1,1.58.47,2.69,2.69,0,0,1,.91,1,1.89,1.89,0,0,1,.28.79,26.23,26.23,0,0,1,0,3.83,1.88,1.88,0,0,1-.28.8,2.6,2.6,0,0,1-.91,1,2.82,2.82,0,0,1-1.58.48,2.78,2.78,0,0,1-1.57-.48,2.66,2.66,0,0,1-.93-1l-.16-.36a2.81,2.81,0,0,1-.11-.44A15.24,15.24,0,0,1,48.92,88.48Zm1.21,0a11.46,11.46,0,0,0,.08,1.65,1.34,1.34,0,0,0,.32.69,1.39,1.39,0,0,0,.5.42,1.41,1.41,0,0,0,.73.18,1.55,1.55,0,0,0,.76-.18,1.4,1.4,0,0,0,.48-.42,1.53,1.53,0,0,0,.32-.69,10.12,10.12,0,0,0,.08-1.65,10.35,10.35,0,0,0-.08-1.66,1.49,1.49,0,0,0-.32-.68,1.54,1.54,0,0,0-.48-.43,1.67,1.67,0,0,0-.76-.17,1.48,1.48,0,0,0-1.23.6,1.31,1.31,0,0,0-.32.68A11.73,11.73,0,0,0,50.13,88.48Z" fill="#fff"/><path d="M55.2,84.36h1.28l1.25,5.86h0l1.55-5.86h.88l1.54,5.86h0L63,84.36h1.27l-2,8.24h-1l-1.52-5.94h0L58.2,92.6h-1Z" fill="#fff"/><path d="M68.09,84.36H71a4.53,4.53,0,0,1,.91.09,2.4,2.4,0,0,1,.89.49,2,2,0,0,1,.61.79,2.66,2.66,0,0,1,.24,1.17A2.58,2.58,0,0,1,73,88.57a2.3,2.3,0,0,1-1.87.81H69.29V92.6h-1.2Zm1.2,3.85h1.8a1.24,1.24,0,0,0,1-.43,1.42,1.42,0,0,0,.33-.91,1.62,1.62,0,0,0-.14-.7,1,1,0,0,0-.38-.4,1.49,1.49,0,0,0-.87-.23H69.29Z" fill="#fff"/><path d="M74.83,84.36H78a2.4,2.4,0,0,1,1.62.54,2.22,2.22,0,0,1,.79,1.76,2.27,2.27,0,0,1-1.54,2.28l1.85,3.66H79.23l-1.65-3.52H76V92.6H74.83ZM76,88h1.83a1.27,1.27,0,0,0,1-.41,1.28,1.28,0,0,0,.33-.9,1.11,1.11,0,0,0-.4-.94,1.35,1.35,0,0,0-.89-.25H76Z" fill="#fff"/><path d="M81.5,88.48a13.36,13.36,0,0,1,.08-1.92,2.35,2.35,0,0,1,.27-.79,2.85,2.85,0,0,1,2.5-1.48,2.74,2.74,0,0,1,1.58.47,2.78,2.78,0,0,1,.91,1,1.89,1.89,0,0,1,.28.79,26.23,26.23,0,0,1,0,3.83,1.88,1.88,0,0,1-.28.8,2.68,2.68,0,0,1-.91,1,2.82,2.82,0,0,1-1.58.48,2.78,2.78,0,0,1-1.57-.48,2.66,2.66,0,0,1-.93-1l-.16-.36a2.81,2.81,0,0,1-.11-.44A13.46,13.46,0,0,1,81.5,88.48Zm1.21,0a10.12,10.12,0,0,0,.08,1.65,1.42,1.42,0,0,0,.31.69,1.51,1.51,0,0,0,.51.42,1.41,1.41,0,0,0,.73.18,1.49,1.49,0,0,0,.75-.18,1.35,1.35,0,0,0,.49-.42,1.53,1.53,0,0,0,.32-.69A10.12,10.12,0,0,0,86,88.48a10.35,10.35,0,0,0-.08-1.66,1.72,1.72,0,0,0-.81-1.11,1.6,1.6,0,0,0-.75-.17,1.51,1.51,0,0,0-.73.17,1.67,1.67,0,0,0-.51.43,1.38,1.38,0,0,0-.31.68A10.35,10.35,0,0,0,82.71,88.48Z" fill="#fff"/><path d="M88.71,84.36h1.14l3.61,5.86h0V84.36h1.21V92.6H93.55l-3.61-5.86h0V92.6H88.71Z" fill="#fff"/><path d="M96.24,88.48a13.36,13.36,0,0,1,.08-1.92,2.36,2.36,0,0,1,.26-.79,2.86,2.86,0,0,1,.93-1,2.89,2.89,0,0,1,3.16,0,2.78,2.78,0,0,1,.91,1,2,2,0,0,1,.28.79,18.25,18.25,0,0,1,.07,1.92,18.44,18.44,0,0,1-.07,1.91,2,2,0,0,1-.28.8,2.68,2.68,0,0,1-.91,1,2.87,2.87,0,0,1-4.09-1c0-.13-.11-.25-.15-.36a2,2,0,0,1-.11-.44A13.46,13.46,0,0,1,96.24,88.48Zm1.2,0a9.77,9.77,0,0,0,.09,1.65,1.42,1.42,0,0,0,.31.69,1.51,1.51,0,0,0,.51.42,1.41,1.41,0,0,0,.73.18,1.49,1.49,0,0,0,.75-.18,1.4,1.4,0,0,0,.48-.42,1.44,1.44,0,0,0,.33-.69,11.46,11.46,0,0,0,.08-1.65,11.73,11.73,0,0,0-.08-1.66,1.4,1.4,0,0,0-.33-.68,1.54,1.54,0,0,0-.48-.43,1.6,1.6,0,0,0-.75-.17,1.51,1.51,0,0,0-.73.17,1.67,1.67,0,0,0-.51.43,1.38,1.38,0,0,0-.31.68A10,10,0,0,0,97.44,88.48Z" fill="#fff"/><path d="M103.3,84.36h1.21v5.32A1.68,1.68,0,0,0,105,91a1.52,1.52,0,0,0,1.15.46A1.58,1.58,0,0,0,107.3,91a1.75,1.75,0,0,0,.46-1.28V84.36H109v5.45a2.86,2.86,0,0,1-4.84,2.06,2.7,2.7,0,0,1-.83-2.06Z" fill="#fff"/><path d="M110.62,84.36h1.14l3.61,5.86h0V84.36h1.21V92.6h-1.15l-3.6-5.86h0V92.6h-1.2Z" fill="#fff"/><path d="M123.8,90.3a3.11,3.11,0,0,1-1,1.76,2.89,2.89,0,0,1-3.37.13,2.83,2.83,0,0,1-.93-1c0-.13-.11-.25-.15-.36a1.57,1.57,0,0,1-.11-.44,20.42,20.42,0,0,1,0-3.83,2.22,2.22,0,0,1,.26-.79,2.94,2.94,0,0,1,.93-1,2.86,2.86,0,0,1,3.46.24,3.18,3.18,0,0,1,.92,1.73h-1.29a1.86,1.86,0,0,0-.53-.85,1.63,1.63,0,0,0-1.72-.17,1.67,1.67,0,0,0-.51.43,1.3,1.3,0,0,0-.31.68,10,10,0,0,0-.09,1.66,9.77,9.77,0,0,0,.09,1.65,1.34,1.34,0,0,0,.31.69,1.51,1.51,0,0,0,.51.42,1.41,1.41,0,0,0,.73.18,1.61,1.61,0,0,0,1.52-1.12Z" fill="#fff"/><path d="M124.73,84.36h5.1v1.18h-3.89v2.35h3.32V89h-3.32v2.42h3.89V92.6h-5.1Z" fill="#fff"/><path d="M135.1,89.21l-2.4-4.85H134L135.67,88l1.69-3.66h1.28l-2.4,4.85V92.6H135.1Z" fill="#fff"/><path d="M138.82,88.48a15.09,15.09,0,0,1,.08-1.92,2.35,2.35,0,0,1,.27-.79,2.85,2.85,0,0,1,2.5-1.48,2.74,2.74,0,0,1,1.58.47,2.69,2.69,0,0,1,.91,1,1.89,1.89,0,0,1,.28.79,26.23,26.23,0,0,1,0,3.83,1.88,1.88,0,0,1-.28.8,2.6,2.6,0,0,1-.91,1,2.82,2.82,0,0,1-1.58.48,2.78,2.78,0,0,1-1.57-.48,2.66,2.66,0,0,1-.93-1l-.16-.36a2.81,2.81,0,0,1-.11-.44A15.24,15.24,0,0,1,138.82,88.48Zm1.21,0a11.46,11.46,0,0,0,.08,1.65,1.43,1.43,0,0,0,.32.69,1.39,1.39,0,0,0,.5.42,1.45,1.45,0,0,0,.74.18,1.54,1.54,0,0,0,.75-.18,1.4,1.4,0,0,0,.48-.42,1.43,1.43,0,0,0,.32-.69,10.12,10.12,0,0,0,.08-1.65,10.35,10.35,0,0,0-.08-1.66,1.39,1.39,0,0,0-.32-.68,1.54,1.54,0,0,0-.48-.43,1.66,1.66,0,0,0-.75-.17,1.56,1.56,0,0,0-.74.17,1.52,1.52,0,0,0-.5.43,1.39,1.39,0,0,0-.32.68A11.73,11.73,0,0,0,140,88.48Z" fill="#fff"/><path d="M145.88,84.36h1.21v5.32a1.71,1.71,0,0,0,.47,1.28,1.69,1.69,0,0,0,2.32,0,1.71,1.71,0,0,0,.46-1.28V84.36h1.21v5.45a2.78,2.78,0,0,1-.81,2.06,2.94,2.94,0,0,1-4,0,2.74,2.74,0,0,1-.83-2.06Z" fill="#fff"/><path d="M155.86,84.36H157l2.28,5.37,2.25-5.37h1.14V92.6h-1.21V87.46h0l-1.67,4h-1l-1.67-4h0V92.6h-1.21Z" fill="#fff"/><path d="M168.6,90.76h-3L165,92.6h-1.28l2.9-8.24h1l2.9,8.24h-1.27Zm-.35-1.11-1.15-3.6h0l-1.16,3.6Z" fill="#fff"/><path d="M171.45,84.36h1.14l3.61,5.86h0V84.36h1.21V92.6h-1.14l-3.61-5.86h0V92.6h-1.21Z" fill="#fff"/><path d="M186.25,91.77a5,5,0,0,1-1.05.63,3,3,0,0,1-1.19.27,2.42,2.42,0,0,1-1.83-.77,2.47,2.47,0,0,1-.71-1.76A2.69,2.69,0,0,1,183,87.73a2.7,2.7,0,0,1-.47-.75,1.75,1.75,0,0,1-.21-.82,1.92,1.92,0,0,1,.49-1.31,1.8,1.8,0,0,1,2.61,0,2,2,0,0,1,.49,1.31A2,2,0,0,1,184.61,88l1.71,2.11a4.53,4.53,0,0,0,.69-1.37l1,.41a6.51,6.51,0,0,1-.44.93,4.49,4.49,0,0,1-.61.85l1.35,1.66H187Zm-2.6-3.26c-.79.48-1.18,1-1.18,1.61a1.45,1.45,0,0,0,.46,1.07,1.41,1.41,0,0,0,1,.44,2.5,2.5,0,0,0,1.62-.73Zm-.28-2.39a.93.93,0,0,0,.18.52,2.27,2.27,0,0,0,.41.54,2.23,2.23,0,0,0,.78-.49.86.86,0,0,0,.2-.57.84.84,0,0,0-.21-.57.82.82,0,0,0-.58-.22.78.78,0,0,0-.55.22A.81.81,0,0,0,183.37,86.12Z" fill="#fff"/><path d="M191.23,84.36h1.27l1.25,5.86h0l1.55-5.86h.88l1.54,5.86h0L199,84.36h1.28l-2,8.24h-1l-1.52-5.94h0l-1.53,5.94h-1Z" fill="#fff"/><path d="M201.18,88.48a15.09,15.09,0,0,1,.08-1.92,2.35,2.35,0,0,1,.27-.79,2.85,2.85,0,0,1,2.5-1.48,2.77,2.77,0,0,1,1.59.47,2.66,2.66,0,0,1,.9,1,1.89,1.89,0,0,1,.28.79,26.23,26.23,0,0,1,0,3.83,1.88,1.88,0,0,1-.28.8,2.57,2.57,0,0,1-.9,1,2.85,2.85,0,0,1-1.59.48,2.78,2.78,0,0,1-1.57-.48,2.66,2.66,0,0,1-.93-1l-.16-.36a2.81,2.81,0,0,1-.11-.44A15.24,15.24,0,0,1,201.18,88.48Zm1.21,0a9.77,9.77,0,0,0,.09,1.65,1.34,1.34,0,0,0,.31.69,1.48,1.48,0,0,0,.5.42,1.45,1.45,0,0,0,.74.18,1.49,1.49,0,0,0,.75-.18,1.4,1.4,0,0,0,.48-.42,1.34,1.34,0,0,0,.32-.69,9.77,9.77,0,0,0,.09-1.65,10,10,0,0,0-.09-1.66,1.31,1.31,0,0,0-.32-.68,1.54,1.54,0,0,0-.48-.43,1.6,1.6,0,0,0-.75-.17,1.56,1.56,0,0,0-.74.17,1.62,1.62,0,0,0-.5.43,1.3,1.3,0,0,0-.31.68A10,10,0,0,0,202.39,88.48Z" fill="#fff"/><path d="M208.12,88.48a15.09,15.09,0,0,1,.08-1.92,2.35,2.35,0,0,1,.27-.79,2.85,2.85,0,0,1,2.5-1.48,2.79,2.79,0,0,1,1.59.47,2.66,2.66,0,0,1,.9,1,1.89,1.89,0,0,1,.28.79,26.23,26.23,0,0,1,0,3.83,1.88,1.88,0,0,1-.28.8,2.57,2.57,0,0,1-.9,1,2.88,2.88,0,0,1-1.59.48,2.78,2.78,0,0,1-1.57-.48,2.66,2.66,0,0,1-.93-1l-.16-.36a2.81,2.81,0,0,1-.11-.44A15.24,15.24,0,0,1,208.12,88.48Zm1.21,0a9.77,9.77,0,0,0,.09,1.65,1.34,1.34,0,0,0,.31.69,1.48,1.48,0,0,0,.5.42,1.45,1.45,0,0,0,.74.18,1.49,1.49,0,0,0,.75-.18,1.4,1.4,0,0,0,.48-.42,1.34,1.34,0,0,0,.32-.69,9.77,9.77,0,0,0,.09-1.65,10,10,0,0,0-.09-1.66,1.31,1.31,0,0,0-.32-.68,1.54,1.54,0,0,0-.48-.43,1.6,1.6,0,0,0-.75-.17,1.56,1.56,0,0,0-.74.17,1.62,1.62,0,0,0-.5.43,1.3,1.3,0,0,0-.31.68A10,10,0,0,0,209.33,88.48Z" fill="#fff"/><path d="M215.33,84.36h5.1v1.18h-3.89V88h3.32v1.11h-3.32V92.6h-1.21Z" fill="#fff"/></svg>