<svg xmlns="http://www.w3.org/2000/svg" width="250" height="88" viewBox="0 0 250 88"><path d="M26.73 39.88l-.17.11c-1.55-.11-3.1-.28-4.65-.28-1.83 0-3.55.39-5.26.83l-1.33-.55c1-.22 1.99-.5 3.05-.66-.22-.83-.39-1.61-.55-2.44-1.72-1.83-6.98-12.13-7.42-14.62l-.17.17V22l-.44.39c.22 5.21.06 10.36.44 15.51h.33l-.33.33c1.11-.06 2.16-.17 3.21-.17.67 0 1.5.17 1.5 1 0 1-3.71 1.05-5.43 1.05h-.72c-.44 0-1.61.06-2.88.06-2.38 0-5.26-.17-5.26-1.27 0-1.22 2.77-1.33 3.6-1.33-.44-1.66-.55-3.27-.55-4.93 0-1.16.06-2.33.11-3.49l-.94-.39h.94c.17-3.71.61-7.42.61-11.13 0-3.43-.5-6.92-.55-10.41-.61-.11-1.33-.44-1.94-.44l-.66-1.39 2.16.06-.61-.28.11-.44c3.05.39 6.09.39 9.14.39v.44h.39c.28 0 .33 0 .33.17.44.11.78.44.78.89 0 1.16-3.27 1.33-4.15 1.33.06 3.93.17 7.92.33 11.91 2.38-2.77 7.81-8.59 8.86-11.74-.66-.06-2.83-.22-2.83-1.16 0-.06.06-.17.06-.22l-.39-.33c.11-.06.78-.11.83-.17V5.8c2.99-.17 5.98-.39 8.97-.39h.89v.5l-.55.06c.44.22.78.61 1.05 1.05-.83 0-1.66.11-2.49.39-2.49 3.38-5.37 9.31-8.64 11.74 2.94 5.48 4.76 11.52 7.81 16.95.5.89 2.33 2.16 3.21 2.71l-.11.17c.11.17.44.33.61.44l.22.22-.22.28h-.28zM4.18 38.16c-.5.06-1.88.11-2.16.66.66-.33 1.33-.5 1.99-.55l.17-.11zm1.66.55c-.78 0-1.5.06-2.16.39.61.11 1.22.17 1.83.17h.28l.06-.55zm-.55-.66l-.17.11h.72c.11-.89.17-1.77.17-2.71v-.28l-.33 2.38.17-.06v.5l-.55.06zm.78-31.52c0 .17.22.28.5.28l1.94-.28H6.07zm1.05 16.56c.06-.44.11-.83.11-1.27 0-1-.17-1.99-.44-2.94 0 1.22-.06 2.49-.06 3.77v.72l.39-.28zm.17-4.27l-.33-4.32-.17 4.32h.5zm-.28 5.82l-.17.06.17.78v-.83zm.17 5.43l.06.66h.22l-.28-.66zm0 8.75v.39l1.61-.22-1.61-.17zm.11-6.43c.06 1 .11 2.05.11 3.05.17-.83.28-1.66.39-2.49l-.5-.55zm1.5 3.32c-.11.66-.33 1.33-.55 1.99h-.89l-.06.5 1.11.11c.11-.17.28-.28.39-.44v-2.16zm-.94-8.2l-.39.11c.22.61.33 1.27.5 1.94l-.11-2.05zm.22-19.72l-.17.06.22 2.66-.06-2.71zm3.1 31.58c-.33.11-.72.17-1.05.22l1.5-.11-.44-.11zm1.38-32.83c-.33 0-1.44.39-1.77.44l.61.06 1.16-.5zm-.28 14.35c-.5.39-1 .72-1.5 1.11h.78l-.17-.44 1.05-.28-.17-.39zM13.54 39c-.06-.28-.44-.39-.72-.39-.5 0-1.05.06-1.55.11.72.11 1.44.22 2.1.39l.17-.11zm-1.61-16.12c.72 2.77 3.6 7.59 4.99 10.3-1.16-3.6-3.43-6.87-4.99-10.3zm1.94-5.26c1.72-1.88 3.27-3.88 4.65-6.04-1.66 2.05-3.21 4.04-4.65 6.04zm.11 1.88c.5 1.77 1.55 3.38 2.6 4.87-.78-1.61-1.55-3.27-2.38-4.87h-.22zm3.16-12.96l.39.66h.61l1.55-.61-2.55-.06zm2.55 30.58c-.72-2.16-1.27-4.27-2.27-6.32.89 1.88 1.33 3.71 1.72 5.76l.55.55zm.11 2.11h2.16c-.39-.11-.83-.11-1.22-.11-.17-.06-.33-.17-.39-.33-.28-.11-.55-.28-.83-.44l.28.89zm4.38-32.91h-1.66l.39.55 1.66-.39-.39-.17zm-1.44 30.86c.11.39.33.72.61.89.33.22.72.28 1.16.39-.55-.5-1.22-.83-1.77-1.27z" fill="#fff"/><path d="M45.84 36.73c.06-.5.17-.83.33-1.05.28-.33.72-.33 1.61-.33.61 0 .78.39.78.83 0 .22-.06.5-.11.72-.28 1.55-.72 2.33-2.44 2.44-.39.5-.83.72-1.44.72-.66 0-1.27 0-1.88-.28-1.55-.22-2.44-1.11-2.88-1.77-1.55 1.83-3.93 3.55-7.04 3.55h-.28c-3.38-.11-6.09-.55-6.09-4.65 0-1.83.72-3.55 1.83-5.04 2.33-3.1 6.31-5.54 9.2-7.26.39-.5 1.22-.72 1.77-.72-.28-2.66-.78-7.09-1.05-7.98-1.5.33-4.99 1.55-5.87 3.49H33c.89.39 2.27 1.27 2.27 2.49-.28 2.44-2.49 3.55-4.49 3.55s-3.49-1.11-3.49-3.21c0-2.44 1.22-4.32 2.94-5.71 2.16-1.77 5.21-2.66 7.81-2.66h2.55c.61 0 1.11.33 1.38.83 2.88 1.94 2.94 7.15 2.94 10.3 0 2.38-.22 4.15-.33 6.48 0 0 0 1.44-.11 1.94-.06.17-.06.33-.06.5 0 .89.5 1.94.83 2.38l.61.44zm-15.73 2.94c-.89-.44-1.55-1.27-1.88-2.16v.66c0 .33 0 .61.11.94.33.39.83.61 1.33.78l.44-.22zm-1-20.39c.66-.94 1.44-1.83 2.27-2.66-.94.72-1.72 1.61-2.27 2.66zm1.83 19.44c-1.05-.39-1.39-1.27-1.39-2.22 0-.28 0-.61.06-.89-.11.39-.22.78-.22 1.16 0 .72.28 1.44.83 1.88l.72.06zm-.44-13.96c-.28 0-.5 0-.78-.06.28.17.72.39 1.05.39s.94-.22 1.27-.39c-.5 0-1.05.06-1.55.06zm.17 7.87c.28-.44 2.66-3.43 2.88-3.88-.44.44-3.1 3.38-3.49 3.88h.61zm6.2 6.76c-1.16.83-3.32 1.33-4.82 1.33-.44 0-.83 0-1.11-.11-.22.17-.67.17-.67.17s1.72.28 2.55.28c1.66 0 3.16-.5 4.32-1.66h-.28zm-5.65-15.68l1.22.06c.28-.06.55-.22.78-.39-.28.06-.61.06-.89.06l-1.11.28zm.66-2.6c0 .33-.22 1.27-.28 1.61.33 0 1.05-.61 1.05-.83-.11-.22-.5-.55-.78-.78zm7.53 7.2c0-.94-.06-1.94-.11-2.88-1.5 1.11-4.1 3.05-5.76 5.15-.94 1.16-1.61 2.38-1.61 3.49 0 1.61 1.94 2.77 3.27 3.21 1.88-.44 3.49-2.71 3.71-3.21.33-1.88.5-3.82.5-5.76zm-5.82-11.97c.83-.28 1.44-.55 1.99-1.22-.72.28-1.61.72-1.99 1.22zm4.76-1.55c-.44.17-1.72.66-2.1.89.5-.11 1.77-.55 2.33-.55l-.22-.33zm3.16 10.69c-.11-1.16-.44-8.97-.55-9.14-.17-.39-.33-.5-.44-.5s-.17.17-.17.33.06.39.11.55l1.05 8.75zM40.79 37l-.28.39 1.11.33-.83-.72zm.83-3.66c0-.66.11-2.83.11-3.32l-.61 3.32h.5zm2.05-8.36l-.44-2.49-.28 8.86.06.17.67-6.54zm-.06 11.74c.11.83-.06 1.05.61 1.38.22-.17.44-.39.61-.61-.28-.39-.66-.78-1.22-.78z" fill="#fff"/><path d="M71.54 38.22l-.06.17c.11 0 .39-.11.55-.11.83 0 1.99.06 1.99 1 0 .83-1.44.94-2.49.94h-3.27c-2.38 0-5.65-.11-5.65-1 0-.83 2.49-.94 3.05-.94-1.44-1.38-1.88-3.32-2.83-5.04-1.39-2.6-3.16-4.43-3.77-7.48-.89 1-1.77 1.99-2.77 2.88l.5.78h-.67c-.06 1.44-.28 2.88-.28 4.32s0 2.94.33 4.38h1.33c.17 0 2.33.28 2.33.66 0 .06-.11.17-.28.28v.5h-.89v.55H48.41l.22-.33v-.22l-.55-.61c0-.83 2.05-1.05 2.66-1.05l.11.22c.28-1.16.33-2.33.33-3.49 0-2.1-.22-4.21-.22-6.31 0-2.55.61-5.1.61-7.64 0-1.94-.5-3.88-.5-5.82s.33-3.93.33-5.87c0-1.5-.44-2.88-.44-4.38v-.44c-.33.06-.66.06-.94.06h-.89c-.28 0-1.05-.11-1.05-.5 0-.83 1.22-1 2.38-1 .78 0 1.5.06 1.83.06l.28-.06c1.39-.89 1.61-1.05 3.27-1.05h.72c-.06.17-.11.33-.17.55-.11.61-.11 1.27-.11 1.94 0 1 .06 2.1.06 3.1v.78c-.06 4.1-.28 8.2-.55 12.3-.06 1.27-.22 2.49-.22 3.77v.72l.06.83c2.16-1.88 4.6-3.55 6.48-5.71.78-.94 1.44-1.99 2.38-2.77-.66-.06-4.1-.39-4.1-1.33v-.28c0-.39.06-.33.5-.78.78 0 1.66-.06 2.55-.06 2.66 0 5.54.17 7.2.39.83.61 1 .78 1 1 0 .11 0 .17-.06.33-.66.39-2.6.66-3.38.78l-.72.5c-.06 1-4.49 4.27-5.48 5.15 3.82 3.32 6.2 11.02 9.75 15.34h-.22zm-20.72 0c-.44.06-1.44.22-1.61.72l.17.22c.39-.39.83-.39 1.27-.39l.17-.55zm2.44-.11l-.89-.06.28-6.65-.28.28-.39 7.15 1.22-.06.06-.66zm-1-10.19v1.33c0 .17.06.33.06.61l.17-.17c.22-.28.17-.22.22-1.33v-.22c0-.66-.22-1.33-.33-1.99-.06.61-.11 1.22-.11 1.77zM53.7 19c0-.78-.11-1.61-.22-2.38-.28 1.11-.44 2.38-.44 3.55 0 .78.11 1.61.22 2.38.22-1.16.44-2.33.44-3.55zm.5-15.12c0 1.16.44 6.26.44 7.42 0-1.16.06-6.2.17-7.37l-.61-.06zm.28 20.72l-.28 2.38.39 2.66-.11-5.04zm.11 14.18c1.27 0 2.55.06 3.82.06-.39-.33-.89-.44-1.44-.44-.78 0-1.66.22-2.33.22l-.06.17zm5.37-13.96l-.61.66h.94l-.33-.66zm5.15-8.09c-.06-.5-.72-.61-1.22-.61-.33 0-.55.06-.55.06s-.11.06-.17.06c-.11 0-.22-.11-.22-.78-.39 0-.61-.06-.78-.06-.33 0-.33.11-.66.44.22.66 2.71.94 3.32 1.05l.28-.17zm-1 15.68l4.15 5.65.89.11-5.04-5.76zm4.93 7.48c-.78-.17-1.55-.33-2.33-.33-.83 0-1.61.11-2.38.11.66.22 1.44.28 2.1.28l2.6-.06zm-.06-24.26h-3.32l2.71.28.61-.28zm3.93 23.38c-1.66 0-3.21-.39-4.71-.39l-.22.06c.83.5 1.72.72 2.66.72.78 0 1.5-.11 2.22-.22l.06-.17zM69.7 16.24l-.72.44c.28-.06 1.22-.11 1.22-.44h-.5z" fill="#fff"/><path d="M78.91 39.66c-.28.28-.28.39-.55.39-.17 0-.33-.06-.72-.06v-.28c-1.38.06-2.77.06-4.1.22 0-.11-.06-.17-.22-.17-.22 0-.55.11-.89.11-.39 0-.72-.11-.72-.72-.06-.17-.11-.22-.11-.33s.06-.22.33-.5c.61-1.11 1.5-1.39 2.55-1.39.22 0 .5.06.72.06l.5-.78c-.17-1.77-.17-3.6-.17-5.43-.06-2.88-.72-5.65-.72-8.64 0-.83 0-3.55-1-3.55-.89 0-1.77-.55-1.77-1.5 2.1-1.05 4.43-2.1 6.43-3.38l1.05-.11h.22c.28 0 .5.06.72.33-.33 6.65-.67 13.29-.72 20 .55 1.16 1.05 2.38 1.55 3.6 1.27 0 2.94.06 3.6 1.33 0 0-.28.55-.61.66l-5.37.11zm-6.04-.55c0 .22.22.33.44.39.17 0 .39-.06.55-.11l-1-.28zm8.09-28.2c-.72.61-1.11 1.83-2.22 1.83h-1.11c-1 0-2.27-1.72-2.71-2.55-.78-.5-1.55-1.27-1.55-2.27 0-3.16 2.99-3.49 5.59-3.49h1.05c1.27 0 2.71.83 2.71 2.22 0 1.66-.17 2.16-1.27 3.6l-.5.66zm-6.43 26.42c-.28.06-.94.44-1.16.61.66-.22.94-.06 1.44-.5l-.28-.11zm-.39-20.5c1.77-.22 3.43-1.11 4.65-2.44-1.55.83-3.1 1.66-4.65 2.44zM76.58 5.7c-1.16 0-1.77.83-1.88 1.94.44-.94 1.33-1.55 2.22-1.88-.11-.06-.22-.06-.33-.06zm-.61 4.1c0-.39-.22-1.27-.33-1.55 0 .11-.06.28-.06.39 0 .17.06.33.11.44l.28.72zm.39 8.31c.11-.39.28-.72.44-1.11-.28.11-.72.17-.89.22.06 0 .17.11.17.83l.28.06zm.89 19.39c-.44.22-.83.11-1.11.44l1.27.11-.17-.55zm.66-32.68c-.44.11-.89.17-1.33.33l.89.06.44-.39zm-.78 16.45c-.06.78-.11 1.61-.11 2.44 0 .66.11 1.39.28 2.05-.06-1.5-.11-2.99-.17-4.49zm0-9.75c.33.33.67.66 1.11.83.44-.22.72-.66 1.05-1.11-.78.06-1.38.28-2.16.28zm1.11-1.88c-.11 0-.28-.06-.39-.11l-.44.61.83-.5zm-.61 21.55l-.06 3.99.17.78-.11-4.76zm1.33-23.27c-.17.17-.39.33-.55.55.06.22.22.39.44.5.11-.22.17-.44.17-.66l-.06-.39zm-.17 8.03v6.54c.11-2.22.11-4.49.22-6.7l-.22.17zm.83-10.97c-.22.11-.44.28-.66.44h1.66c-.28-.22-.67-.33-1-.44zm.55.83c-.22-.11-.61-.17-.83-.17.39.17.78.33 1.11.66 0-.28-.11-.39-.28-.5zm1.38 32.41l-1 .44c.28 0 .72-.06 1.22-.06.66 0 1.38.06 1.72.11-.39-.44-.28-.5-.89-.61l-1.05.11zM81.11 8.2c.11-.39.22-.78.22-1.16l-.39.78.17.39zM94.26 40.77c-6.26 0-9.25-6.54-9.25-12.91 0-.83.06-1.66.17-2.49.55-4.71 4.38-8.92 6.37-9.97h.22c.28-.39.44-.55.78-.55 1.33-.72 2.71-.78 4.21-.78.78 0 1.61.22 2.38.39 5.26 1.27 5.48 6.98 5.48 11.3 0 .28-.22.39-.5.39-.61.94-1.88 1.16-3.05 1.16-.44 0-.83 0-1.16-.06-2.88-.39-5.71-.78-8.59-.78-.28 0-.5.11-.78.11-.11 0-.17 0-.28-.06.22 1.33 0 2.83.33 4.15.94 3.43 3.38 7.42 7.2 7.42h.55l.61-.06c1.77-2.16 1.99-4.27 5.1-4.27.44 0 .72.33.72.78 0 3.21-5.32 6.2-8.2 6.2h-2.33zm-7.76-9.69c.33 1.55.83 3.05 1.61 4.43-.55-1.44-1.11-2.94-1.61-4.43zm2.44-4.99c0-.11-.17-.11-.39-.22-.06.94-.11 1.72-.11 2.55 0 2.83.55 5.65 2.77 7.53-1.83-3.05-2.05-6.37-2.27-9.86zm0-1.72c.06-.66.06-1.38.11-2.05-.17.66-.28 1.38-.39 2.05h.28zm1.38 13.24c1.16 1.88 2.83 2.66 5.04 2.66.61 0 1.27-.06 1.88-.17-2.55-.17-4.93-.78-6.92-2.49zm9.31-15.73v-1.16c0-1-.06-1.55-.55-2.94-1.05-.55-2.77-1.16-3.99-1.16-2.77 0-4.38 5.37-4.71 7.64.06.11 6.26.61 7.04.61.67 0 1.33 0 1.99-.17.11-.94.22-1.88.22-2.83zm-6.15 4.15s4.6.66 6.87.66c.72 0 1.5-.11 2.1-.5-2.99-.11-8.97-.17-8.97-.17zm2.27-9.86c-.39 0-.78.06-1.11.22 1.44 0 2.33 0 3.66.61-.72-.5-1.66-.83-2.55-.83zm2.77 22.38c-1.22-.06-2.71-.06-3.88-.61.89.5 1.5.78 2.38.78h.39l1.11-.17zm-2.71-23.32c-.33.06-.61.22-.89.39.33 0 .61-.06.94-.06.44 0 .94.06 1.38.11-.44-.22-.94-.33-1.44-.44zm1 23.99c.55.22 1.16.33 1.77.33.39 0 .94-.39 1.22-.66-1 .22-1.99.33-2.99.33zm5.48-14.62l-1.99.55 1.99-.17v-.39zm-1.44-4.82c.11.66.17 1.38.17 2.05 0 .78-.06 1.55-.17 2.33.33-.17.66-.39.89-.66-.06-1.27-.28-2.6-.89-3.71zM120.79 40.33c-2.11 0-2.44-4.21-2.44-7.37 0-1.27.06-2.44.06-2.99 0-3.38.17-8.36.55-12.96h-2.6c-.5 0-.94 0-1.44-.06 0-.55-.22-.5-.22-.89 0-1.11 1.11-1.11 1.94-1.11.55-2.1 3.77-2.99 4.27-6.76h1.83c.78 1.27 1 2.99 1 4.6 0 .5-.06 1.05-.06 1.5.22 0 .67-.06 1.22-.06 1 0 2.22.17 2.71 1.22.11.22.17.44.17.66 0 .28-.06.5-.11.5-.33.55-1 .72-1.66.72-.39 0-.83-.06-1.16-.17h-.61c-.22 0-.39.11-.39.72 0 3.32-.55 9.36-.61 12.8v.66c0 2.16.22 5.43.72 7.2.06.06.11.06.22.06.28 0 .78-.11.83-.28 0-.06.06-.17.06-.22 0-.39-.39-.61-.39-1.05 0-.61.06-1.72.83-1.94.33-.5.83-.89 1.44-.89s1.27.39 1.77 1.38c.22.44.28.72.28 1v.39c-.22 1.61-.55 2.66-2.27 2.94-.5.78-1.38 1.05-2.27 1.05-.78 0-1.5-.28-2.16-.66h-1.5zm-4.99-24.26c.28-.11.44-.22.55-.33a.71.71 0 0 0 .22-.5c-.39.11-.72.39-.78.83zm2.1-1.44c.78-.5 1.38-1.22 1.83-2.05-.61.66-1.27 1.33-1.83 2.05zm1.16 1.05h-.22c-.11 0-.22.06-.61.33h.83v-.33zm1.22 8.92l-.83 4.6.22 1.27.61-5.87zm1.27 15.12a6.35 6.35 0 0 1-1.38-1.83c.17.55.44 1.83 1.16 1.83h.22zm-.83-24.98c-.17.33-.22 1.05-.22 1.94 0 2.1.33 5.1.33 5.1l-.11-7.04zm1.5 2.94l-.55 9.31s.78-4.76.78-8.03c0-.39 0-.78.17-1.11l-.39-.17zm1.33-1.77l-.06.44c.11 0 1.39-.28 1.39-.28l-1.33-.17zm.11-1.05c.78.28 1.83.55 2.66.55-.66-.66-1.72-.72-2.6-.72l-.06.17zm.72 24.82l-.61.33 1 .33 1.38-1.16-1.77.5zm1.55-22.71c.17-.11 1-.44 1-.66 0-.06-.06-.11-.11-.11-.22.17-1 .55-1.27.66l.39.11zm1.61 20.55c-.11.55-.17 1.05-.39 1.55.55-.5.72-1.22.72-1.88l-.33.33z" fill="#fff"/><path d="M151.59 40.11c-2.16 0-4.32.28-6.48.28-.89 0-2.6-.28-2.6-.33-.66-.17-1.33.06-1.33-.94 0-.66 1.38-.94 1.88-1 1-1.33 1.27-3.38 1.27-5.43 0-1.61-.17-3.27-.17-4.54 0-1.66.17-3.32.17-4.99 0-2.6-.55-5.37-3.71-5.37-3.32 0-4.99 4.99-4.99 7.7 0 2.22.11 4.43.11 6.65 0 1.11-.06 2.22-.11 3.32.33.83.89 1.61 1.55 2.22 1.16 0 2.05.5 2.38 1.66l-.39.11-.06.17.66-.11-.11.5h-3.1c-1.5 0-2.94-.06-4.38-.06l.06-.22c-1.05-.06-3.32.06-4.15-.44.39-.39.28-.5 1-.94h-.78c3.27-1.22 3.38-4.88 3.38-7.87v-.83c0-3.38-.78-6.76-.78-10.14 0-3.82.83-7.59.83-11.41 0-.55 0-1.11-.06-1.66-.22-.28-.44-.55-.72-.78-.33-.17-3.05-1-3.05-1.33 0-.28.11-.66.39-.72 1.77-.39 4.32-.44 6.15-3.6h1.11l.22.28h.5c.06 3.71.33 7.53.33 11.36 0 1.61-.06 3.21-.17 4.82.61-.61 2.16-1.77 3.21-1.77 1.11-.66 1.66-.72 2.77-.72h.5c5.43 0 6.43 3.49 6.43 8.03v.39l-.06 6.7c0 1.61 0 7.2-.39 8.53l.17.28h1.22c1 0 1.88.28 1.88 1.44 0 .33-.39.5-.66.61l.06.17zM131.15 4.1c-.33.06-.66.06-1 .06s-.67 0-1-.06l-.11.17c.06 0 1.72 0 2.22.17l-.11-.33zm1.16 33.96h-.39c-.44 0-1.33.28-1.72.5l2.55-.17-.44-.33zm-.72-1c-.17.28-.39.55-.67.78.22-.06.44-.06.67-.06v-.72zm1.77-13.18c.22-.33.28-1.77.28-3.49 0-2.16-.11-4.82-.11-6.37 0-.72-.22-1.61-.28-2.38l.11 12.24zm.55-20.44c.44 2.77.72 5.59.83 8.36 0-2.83-.11-5.71-.66-8.48l-.17.11zM135.24 39h2.05c-.22-.17-.44-.22-.72-.33l-1.33.33zm9.47-21.33c-.72-.83-1.83-1.27-2.94-1.27-1 0-1.61.22-2.33.89h1.16c1.66 0 3.32.22 4.27 1.72-.06-.44-.06-.89-.17-1.33zm-1.44-2.55c-.39 0-.72.11-1.11.28h1.22c.61 0 1.27.06 1.83.44-.5-.5-1.22-.72-1.94-.72zm1.99 14.4l-.55 8.7h.28l.28-8.7zm4.21 8.7c.44.28 1 .39 1.5.61-.22-.39-.78-.66-1.22-.66l-.28.06zM161.56 40.77c-6.26 0-9.25-6.54-9.25-12.91 0-.83.06-1.66.17-2.49.55-4.71 4.38-8.92 6.37-9.97h.22c.28-.39.44-.55.78-.55 1.33-.72 2.71-.78 4.21-.78.78 0 1.61.22 2.38.39 5.26 1.27 5.48 6.98 5.48 11.3 0 .28-.22.39-.5.39-.61.94-1.88 1.16-3.05 1.16-.44 0-.83 0-1.16-.06-2.88-.39-5.71-.78-8.59-.78-.28 0-.5.11-.78.11-.11 0-.17 0-.28-.06.22 1.33 0 2.83.33 4.15.94 3.43 3.38 7.42 7.2 7.42h.55l.61-.06c1.77-2.16 1.99-4.27 5.1-4.27.44 0 .72.33.72.78 0 3.21-5.32 6.2-8.2 6.2h-2.33zm-7.76-9.69c.33 1.55.83 3.05 1.61 4.43-.55-1.44-1.11-2.94-1.61-4.43zm2.44-4.99c0-.11-.17-.11-.39-.22-.06.94-.11 1.72-.11 2.55 0 2.83.55 5.65 2.77 7.53-1.83-3.05-2.05-6.37-2.27-9.86zm0-1.72c.06-.66.06-1.38.11-2.05-.17.66-.28 1.38-.39 2.05h.28zm1.38 13.24c1.16 1.88 2.83 2.66 5.04 2.66.61 0 1.27-.06 1.88-.17-2.55-.17-4.93-.78-6.92-2.49zm9.31-15.73v-1.16c0-1-.06-1.55-.55-2.94-1.05-.55-2.77-1.16-3.99-1.16-2.77 0-4.38 5.37-4.71 7.64.06.11 6.26.61 7.04.61.67 0 1.33 0 1.99-.17.11-.94.22-1.88.22-2.83zm-6.15 4.15s4.6.66 6.87.66c.72 0 1.5-.11 2.1-.5-2.99-.11-8.97-.17-8.97-.17zm2.27-9.86c-.39 0-.78.06-1.11.22 1.44 0 2.33 0 3.66.61-.72-.5-1.66-.83-2.55-.83zm2.77 22.38c-1.22-.06-2.71-.06-3.88-.61.89.5 1.5.78 2.38.78h.39l1.11-.17zm-2.71-23.32c-.33.06-.61.22-.89.39.33 0 .61-.06.94-.06.44 0 .94.06 1.38.11-.44-.22-.94-.33-1.44-.44zm1 23.99c.55.22 1.16.33 1.77.33.39 0 .94-.39 1.22-.66-1 .22-1.99.33-2.99.33zm5.48-14.62l-1.99.55 1.99-.17v-.39zm-1.44-4.82c.11.66.17 1.38.17 2.05 0 .78-.06 1.55-.17 2.33.33-.17.66-.39.89-.66-.06-1.27-.28-2.6-.89-3.71zM23.6 77.5c0 1.44-.28 2.94-1.11 4.1v2.83c-3.16.22-5.98 2.05-9.2 2.05-2.22 0-3.66-.89-5.54-1.99-3.77-2.27-6.04-4.82-6.87-9.31-.78-1.05-.89-3.55-.89-4.87 0-5.54 1.11-13.18 5.93-16.67.39-.28 1-.5 1.5-.5l.17-.11h-.55c.89-1.16 1.83-1.5 3.27-1.5 1.99-.83 3.99-1.05 6.15-1.05.72 0 1.5.22 2.05.66 1.66 0 2.77.61 3.1 2.27.78 1 1 2.22 1 3.43s-.22 2.71-1.27 3.55l.33.5h-1.05c-.33.22-.78.33-1.22.33-1.44 0-3.6-1.22-3.6-2.88 0-1.27 1.27-1.99 2.33-2.22-.5-1.66-1.16-3.27-3.16-3.27-6.09 0-8.14 7.76-9.14 12.46.55 3.05 1.66 5.98 1.66 9.08 0 1.16 0 2.33.06 3.49h.78c.06.78.06.83.06.89 0 .55-.22 1.05-.22 1.55v.44c.67.5 1.44.83 2.16 1.16H8.72c1.05 1.11 3.16 1.94 4.65 1.94h1.61c2.71-1.44 4.65-4.27 5.32-7.26l.22-.06c.17-.61.17-1.22.17-1.77l1.22-.55.11.89h.61c.39.61.61 1.27.66 1.99h.33v.39zM2.22 70.85v.28c0 .83.17 1.72.39 2.49 0-.89.06-1.72.06-2.6-.11-.44-.28-.89-.39-1.33l-.06 1.16zm2.88 2.27c-.11-1.05-.28-2.16-.5-3.21 0 .66-.06 1.27-.06 1.94l.55 1.27zm-.55-.22c.06 1.44.39 2.94.89 4.27-.11-1.33-.17-2.6-.33-3.93l-.55-.33zm5.82 11.25c.17.22.39.33.61.39.28.06.55.06.83.06-.5-.11-1-.28-1.44-.44zm3.77-32.63c-.44 0-.89 0-1.33.11.44 0 .89-.06 1.33-.11zm-.44.72c-.17 0-.55.17-.72.22.5-.11 1.05-.11 1.55-.11a3.94 3.94 0 0 0-.83-.11zm-.72 32.85c.28.06.55.06.83.06.39 0 .72-.06 1.11-.17-.66 0-1.44.11-1.94.11zm.22.5c.33.11.66.17 1 .17.5 0 .94-.11 1.39-.22-.78.06-1.61.06-2.38.06zm2.38-34.62c-.22 0-.44.06-.67.06.5 0 1.05.06 1.55.11-.28-.11-.61-.17-.89-.17zm.11.89c1.16.22 2.16.89 3.05 1.61-.72-.94-1.88-1.5-3.05-1.61zm.44 32.46l-.44.22h.61c.39 0 .78-.17 1.11-.33l-1.27.11zm2.16-25.26h-.66c-.06-.28-.11-.61-.11-.89 0-.22.06-.44.06-.66-.22.22-.44.5-.44.78 0 .39.5.94.78 1.22l.39-.44zm.06 24.21c.28-.39.5-.83.72-1.27-.5.55-1.05 1.11-1.66 1.55l.94-.28zm1.05-23.54l-.33.39h-.5c.17.17.39.33.61.44l.44-.39-.22-.44zm-.66-1.55v.22l.17-.06-.17-.17zm2.44 24.76c-.5.28-.94.83-1.38 1.22.44-.11.89-.17 1.38-.17v-1.05zm-.83-24.32c0-.06.06-.17.06-.28s0-.17-.06-.28l-.06.28.06.28zm.83 21.99v-.66l-.28 1.11.28-.44zm.61-1.61c.11-.39.17-.83.17-1.27 0-.33 0-.66-.11-1-.11.78-.28 1.55-.44 2.33l.39-.06z" fill="#fff"/><path d="M42.82 82.54c.06-.5.17-.83.33-1.05.28-.33.72-.33 1.61-.33.61 0 .78.39.78.83 0 .22-.06.5-.11.72-.28 1.55-.72 2.33-2.44 2.44-.39.5-.83.72-1.44.72-.66 0-1.27 0-1.88-.28-1.55-.22-2.44-1.11-2.88-1.77-1.55 1.83-3.93 3.55-7.04 3.55h-.28c-3.38-.11-6.09-.55-6.09-4.65 0-1.83.72-3.55 1.83-5.04 2.33-3.1 6.31-5.54 9.2-7.26.39-.5 1.22-.72 1.77-.72-.28-2.66-.78-7.09-1.05-7.98-1.5.33-4.99 1.55-5.87 3.49h.72c.89.39 2.27 1.27 2.27 2.49-.28 2.44-2.49 3.55-4.49 3.55s-3.49-1.11-3.49-3.21c0-2.44 1.22-4.32 2.94-5.71 2.16-1.77 5.21-2.66 7.81-2.66h2.55c.61 0 1.11.33 1.38.83 2.88 1.94 2.94 7.15 2.94 10.3 0 2.38-.22 4.15-.33 6.48 0 0 0 1.44-.11 1.94-.06.17-.06.33-.06.5 0 .89.5 1.94.83 2.38l.61.44zm-15.73 2.94c-.89-.44-1.55-1.27-1.88-2.16v.66c0 .33 0 .61.11.94.33.39.83.61 1.33.78l.44-.22zm-1-20.39c.66-.94 1.44-1.83 2.27-2.66-.94.72-1.72 1.61-2.27 2.66zm1.83 19.44c-1.05-.39-1.39-1.27-1.39-2.22 0-.28 0-.61.06-.89-.11.39-.22.78-.22 1.16 0 .72.28 1.44.83 1.88l.72.06zm-.44-13.96c-.28 0-.5 0-.78-.06.28.17.72.39 1.05.39s.94-.22 1.27-.39c-.5 0-1.05.06-1.55.06zm.17 7.87c.28-.44 2.66-3.43 2.88-3.88-.44.44-3.1 3.38-3.49 3.88h.61zm6.2 6.76c-1.16.83-3.32 1.33-4.82 1.33-.44 0-.83 0-1.11-.11-.22.17-.67.17-.67.17s1.72.28 2.55.28c1.66 0 3.16-.5 4.32-1.66h-.28zM28.2 69.52l1.22.06c.28-.06.55-.22.78-.39-.28.06-.61.06-.89.06l-1.11.28zm.66-2.6c0 .33-.22 1.27-.28 1.61.33 0 1.05-.61 1.05-.83-.11-.22-.5-.55-.78-.78zm7.53 7.2c0-.94-.06-1.94-.11-2.88-1.5 1.11-4.1 3.05-5.76 5.15-.94 1.16-1.61 2.38-1.61 3.49 0 1.61 1.94 2.77 3.27 3.21 1.88-.44 3.49-2.71 3.71-3.21.33-1.88.5-3.82.5-5.76zm-5.82-11.97c.83-.28 1.44-.55 1.99-1.22-.72.28-1.61.72-1.99 1.22zm4.76-1.55c-.44.17-1.72.66-2.1.89.5-.11 1.77-.55 2.33-.55l-.22-.33zm3.16 10.69c-.11-1.16-.44-8.97-.55-9.14-.17-.39-.33-.5-.44-.5s-.17.17-.17.33.06.39.11.55l1.05 8.75zm-.72 11.52l-.28.39 1.11.33-.83-.72zm.83-3.66c0-.66.11-2.83.11-3.32l-.61 3.32h.5zm2.05-8.36l-.44-2.49-.28 8.86.06.17.67-6.54zm-.06 11.74c.11.83-.06 1.05.61 1.38.22-.17.44-.39.61-.61-.28-.39-.66-.78-1.22-.78z" fill="#fff"/><path d="M68.52 84.04l-.06.17c.11 0 .39-.11.55-.11.83 0 1.99.06 1.99 1 0 .83-1.44.94-2.49.94h-3.27c-2.38 0-5.65-.11-5.65-1 0-.83 2.49-.94 3.05-.94-1.44-1.38-1.88-3.32-2.83-5.04-1.39-2.6-3.16-4.43-3.77-7.48-.89 1-1.77 1.99-2.77 2.88l.5.78h-.67c-.06 1.44-.28 2.88-.28 4.32s0 2.94.33 4.38h1.33c.17 0 2.33.28 2.33.66 0 .06-.11.17-.28.28v.5h-.89v.55H45.39l.22-.33v-.22l-.55-.61c0-.83 2.05-1.05 2.66-1.05l.11.22c.28-1.16.33-2.33.33-3.49 0-2.1-.22-4.21-.22-6.31 0-2.55.61-5.1.61-7.64 0-1.94-.5-3.88-.5-5.82s.33-3.93.33-5.87c0-1.5-.44-2.88-.44-4.38v-.44c-.33.06-.66.06-.94.06h-.89c-.28 0-1.05-.11-1.05-.5 0-.83 1.22-1 2.38-1 .78 0 1.5.06 1.83.06l.28-.06c1.39-.89 1.61-1.05 3.27-1.05h.72c-.06.17-.11.33-.17.55-.11.61-.11 1.27-.11 1.94 0 1 .06 2.1.06 3.1v.78c-.06 4.1-.28 8.2-.55 12.3-.06 1.27-.22 2.49-.22 3.77v.72l.06.83c2.16-1.88 4.6-3.55 6.48-5.71.78-.94 1.44-1.99 2.38-2.77-.66-.06-4.1-.39-4.1-1.33v-.28c0-.39.06-.33.5-.78.78 0 1.66-.06 2.55-.06 2.66 0 5.54.17 7.2.39.83.61 1 .78 1 1 0 .11 0 .17-.06.33-.66.39-2.6.66-3.38.78l-.72.5c-.06 1-4.49 4.27-5.48 5.15 3.82 3.32 6.2 11.02 9.75 15.34h-.22zm-20.72 0c-.44.06-1.44.22-1.61.72l.17.22c.39-.39.83-.39 1.27-.39l.17-.55zm2.44-.11l-.89-.06.28-6.65-.28.28-.39 7.15 1.22-.06.06-.66zm-1-10.19v1.33c0 .17.06.33.06.61l.17-.17c.22-.28.17-.22.22-1.33v-.22c0-.66-.22-1.33-.33-1.99-.06.61-.11 1.22-.11 1.77zm1.44-8.92c0-.78-.11-1.61-.22-2.38-.28 1.11-.44 2.38-.44 3.55 0 .78.11 1.61.22 2.38.22-1.16.44-2.33.44-3.55zm.5-15.12c0 1.16.44 6.26.44 7.42 0-1.16.06-6.2.17-7.37l-.61-.06zm.28 20.72l-.28 2.38.39 2.66-.11-5.04zm.11 14.18c1.27 0 2.55.06 3.82.06-.39-.33-.89-.44-1.44-.44-.78 0-1.66.22-2.33.22l-.06.17zm5.37-13.96l-.61.66h.94l-.33-.66zm5.15-8.09c-.06-.5-.72-.61-1.22-.61-.33 0-.55.06-.55.06s-.11.06-.17.06c-.11 0-.22-.11-.22-.78-.39 0-.61-.06-.78-.06-.33 0-.33.11-.66.44.22.66 2.71.94 3.32 1.05l.28-.17zm-1 15.68l4.15 5.65.89.11-5.04-5.76zm4.93 7.48c-.78-.17-1.55-.33-2.33-.33-.83 0-1.61.11-2.38.11.66.22 1.44.28 2.1.28l2.6-.06zm-.06-24.26h-3.32l2.71.28.61-.28zm3.93 23.38c-1.66 0-3.21-.39-4.71-.39l-.22.06c.83.5 1.72.72 2.66.72.78 0 1.5-.11 2.22-.22l.06-.17zm-3.21-22.77l-.72.44c.28-.06 1.22-.11 1.22-.44h-.5z" fill="#fff"/><path d="M78.22 86.58c-6.26 0-9.25-6.54-9.25-12.91 0-.83.06-1.66.17-2.49.55-4.71 4.38-8.92 6.37-9.97h.22c.28-.39.44-.55.78-.55 1.33-.72 2.71-.78 4.21-.78.78 0 1.61.22 2.38.39 5.26 1.27 5.48 6.98 5.48 11.3 0 .28-.22.39-.5.39-.61.94-1.88 1.16-3.05 1.16-.44 0-.83 0-1.16-.06-2.88-.39-5.71-.78-8.59-.78-.28 0-.5.11-.78.11-.11 0-.17 0-.28-.06.22 1.33 0 2.83.33 4.15.94 3.43 3.38 7.42 7.2 7.42h.55l.61-.06c1.77-2.16 1.99-4.27 5.1-4.27.44 0 .72.33.72.78 0 3.21-5.32 6.2-8.2 6.2H78.2zm-7.76-9.69c.33 1.55.83 3.05 1.61 4.43-.55-1.44-1.11-2.94-1.61-4.43zm2.44-4.99c0-.11-.17-.11-.39-.22-.06.94-.11 1.72-.11 2.55 0 2.83.55 5.65 2.77 7.53-1.83-3.05-2.05-6.37-2.27-9.86zm0-1.72c.06-.66.06-1.38.11-2.05-.17.66-.28 1.38-.39 2.05h.28zm1.38 13.24c1.16 1.88 2.83 2.66 5.04 2.66.61 0 1.27-.06 1.88-.17-2.55-.17-4.93-.78-6.92-2.49zm9.31-15.73v-1.16c0-1-.06-1.55-.55-2.94-1.05-.55-2.77-1.16-3.99-1.16-2.77 0-4.38 5.37-4.71 7.64.06.11 6.26.61 7.04.61.67 0 1.33 0 1.99-.17.11-.94.22-1.88.22-2.83zm-6.15 4.15s4.6.66 6.87.66c.72 0 1.5-.11 2.1-.5-2.99-.11-8.97-.17-8.97-.17zm2.27-9.86c-.39 0-.78.06-1.11.22 1.44 0 2.33 0 3.66.61-.72-.5-1.66-.83-2.55-.83zm2.77 22.38c-1.22-.06-2.71-.06-3.88-.61.89.5 1.5.78 2.38.78h.39l1.11-.17zm-2.71-23.32c-.33.06-.61.22-.89.39.33 0 .61-.06.94-.06.44 0 .94.06 1.38.11-.44-.22-.94-.33-1.44-.44zm1 23.99c.55.22 1.16.33 1.77.33.39 0 .94-.39 1.22-.66-1 .22-1.99.33-2.99.33zm5.48-14.62l-1.99.55 1.99-.17v-.39zm-1.44-4.82c.11.66.17 1.38.17 2.05 0 .78-.06 1.55-.17 2.33.33-.17.66-.39.89-.66-.06-1.27-.28-2.6-.89-3.71zM135.28 85.53c-1.22 0-2.49-.17-3.71-.33-1.72.61-6.31.39-8.42.5-.06-.17-.06-.28-.06-.39 0-.66.5-1.11.5-1.11s3.27-.61 3.49-.61v-.78c0-.5-.06-.5-.33-.5v-6.87c0-4.6-.06-9.14-.5-13.74-3.21 7.64-7.2 15.07-9.31 23.1-.22.39-1.55.5-1.55.5-2.22-1.83-3.82-8.14-3.88-10.86-2.05-5.04-5.48-9.58-6.09-15.12v14.24c0 3.49.17 10.47.17 10.47s3.66.33 4.32.44c.28.17.39.33.39.5 0 .33-.33.61-.33.61-1.72 0-3.93-.17-5.93-.17-1.16 0-2.22.06-3.1.22-.33-.22-2.05.06-2.27-.44v-.33c0-1.16 1.66-1.33 3.05-1.33.55 0 1.05.06 1.38.06 0-1.27.17-2.49.33-3.71-.5-1.22-.61-3.27-.61-5.32 0-1.94.11-3.88.11-5.15 0-5.15-.28-10.3-.28-15.46-.72 0-2.83-.33-2.83-1.61 0-.89 1.22-.61 1.66-1.11 1.05 0 7.04.06 7.04.06s1.16 1.05 1.66 1.77c.44 1.22.94 2.49 1.27 3.77 1 3.6 2.94 6.92 4.04 10.47.55 1.77 1.5 5.26 1.5 5.26s7.48-17.62 7.92-19c1.44-.5.22-2.33 2.22-2.44 2.11-.11 5.15-.11 7.2-.22.83.06 1.27.39 1.27 1 .33.17.44.33.44.44 0 .17-.22.33-.72.55-.44 1.55-1.11 1.83-2.22 1.83-.33 0-.67-.06-1.11-.06-.83 1.99-.94 4.6-.94 6.7 0 4.6.28 19.06 2.71 21.72-.5 0-1.77.11-1.77.11s3.71.22 4.65 2.33h-1.39zm-32.3-1.33s-1.88.5-2.16.61h2.22l-.06-.61zm4.43-32.13l-1.66.06-.06.33 2.33.55-.61-.94zm-.06 1.88l-1.5-.39.22 1.33 1.5-.06-.22-.89zm-.61 2.27c-.06.66-.06.72-.06.78 0 2.22 3.05 9.25 4.04 11.41-.89-4.21-2.44-8.2-3.99-12.19zm6.59 10.86c0 .66.33 1.99.78 3.32.5 1.61 1.22 3.27 1.5 3.82-.22-1.27-1.83-6.87-2.27-7.15zm1.44 14.46l-1.11-2.77 1.05 3.71.06-.94zm1.27-4.76l-.89-.61.61 1.44.28-.83zm2.33-.5l-.94.94-1.11 4.04 2.05-4.99zm7.59-17.45l.11-1.72-3.6 9.75 3.49-8.03zm2.49-6.32l-.66.39.61 4.76.06-5.15zm.61 12.96l-.55-5.43.06 11.91.5-6.48zm.06 12.8h-.39l-.17 5.54h1.05l-.5-5.54zm-.06-5.1l-.28 4.27h.33l-.06-4.27zm1-20.99l-.72.89.11 5.59.61-6.48zm3.6-.17l-2.6 1.05 2.99-.61-.39-.44z" fill="#fff"/><path d="M146.91 86.47c-1.27 0-2.27-.22-3.38-.78-5.71-2.71-7.2-7.37-7.2-13.35 0-1.05.22-2.05.22-3.1 0-1.61 1.05-2.99 1.99-4.27 2.33-3.21 3.71-4.65 7.92-4.65 7.98 0 10.58 7.98 10.58 14.68 0 2.05-.17 3.27-1.61 4.99-1.05 4.38-4.1 6.48-8.53 6.48zm-8.42-14.51c0 .11-.06.44-.06.83 0 1.55.17 4.71.17 4.71s.66 1 1.05 1.44c-.55-2.27-.94-4.65-1.16-6.98zm1.38 9.42c.44.61.94 1.16 1.44 1.72-.28-.55-.61-1.11-.83-1.66l-.61-.06zm2.38-15.68c-.78 1.33-1.61 3.27-1.61 4.87 0 .94.11 1.94.22 2.94 0-2.83 0-5.26 1.38-7.81zm9.03 9.69c0-3.27-.78-8.75-2.6-11.47-.94 0-.44-.33-1.66-.5-.17 0-.28-.06-.39-.06-.72 0-.55.44-1.83.44-2.44 2.88-2.83 5.65-2.83 9.31 0 3.21.11 8.59 2.27 11.08 1.11.22 1.94.33 2.49.33 1.5 0 1.38-.61 1.94-.61 1.66-2.05 2.6-5.93 2.6-8.53zm-4.49-13.02l-1.99.5 2.44-.33-.44-.17zm5.48 6.98c-.39-1.66-.28-1.99-1.77-4.38 1.11 2.6 1.61 5.87 1.83 8.7l-.06-4.32zm1.66 3.27c0-1.88-.5-4.82-1.22-6.59.89 2.38 1.05 4.93 1.05 7.42 0 2.71-.5 5.59-1.55 8.09 1.27-2.71 1.72-5.93 1.72-8.92zM165.69 67.14c-.06 4.43-.22 8.59-.22 13.02 0 .61.06 1.27.06 1.94 0 .55-.06 1.11-.17 1.61 1 0 1.55.17 2.38.17.28 0 .55 0 .89-.06.11.33.22.44.22.55s-.11.11-.39.22c.28.78.33 1 .33 1.11s-.06.11-.17.33c-1.66-.11-3.38-.39-5.1-.39h-1.16c-.17 0-.22 0-.22.28h-.33c-1.16 0-2.71-.22-3.82-.22-.28 0-.67-.5-.67-.72 0-.06.06-.11.11-.11-.17-.17-.22-.44-.22-.66 0-.66.61-.83 1.33-.83.5 0 1.05.11 1.39.11.55-.66.66-.72.66-1 0-.17-.06-.44-.06-1.11 0-3.93.22-7.92.22-11.85 0-1.77-.06-3.66-1.27-5.04-.78-.44-2.16 0-2.16-1.22 0-.89 6.15-3.43 7.15-4.21 1.16 0 1.38.06 1.38.11s-.17.11-.17.17h.22c-.17.5-.17 1.38-.17 2.22v2.71c.39-.55.72-1.16 1.27-1.5 1.38-.89 2.44-2.77 4.99-2.77 6.04 0 7.09 4.93 7.09 9.97 0 3.77-.83 7.48-.83 11.25 0 .89.06 1.72.06 2.55.44-.11 1-.11 1.55-.11h1.05c.39.44.83.94.83 1.44 0 .17-.06.33-.17.55-.55 0-1.05.06-1.61.06-2.1 0-4.21-.17-6.31-.17-1.94 0-1.83.17-2.71.17-.33-.28-.44-.5-.44-.66 0-.33.5-.55 1.05-.94.28-.28.55-.55.89-.83.28-2.71.39-5.48.39-8.25 0-3.55-.17-7.09-.17-10.64-.22-.39-.55-.83-1-1-2.99.33-3.82 1.72-5.59 3.77h-.39zm-6.92 16.56c-.22.06-.44.28-.44.5 0 .28.17.61.55.61.22-.33.5-.72.83-1.05-.33 0-.66 0-.94-.06zm2.55-.78s-.17.78-.78 1.66h.83l-.06-1.66zm-.39-20.55l1.38-.33 1.38-1.16-2.77 1.5zm2.33 4.49l-.33 1.16.33 3.27v-4.43zm1.11 2.99l-.94 5.54.17 3.38.78-8.92zm.39 14.07l-.55.44 2.94-.17-2.38-.28zm5.37-20.99c-.39 0-1 .39-1.27.66.72-.33 1.55-.5 2.38-.5-.33-.11-.72-.17-1.11-.17zm1.72-1.27c-.28.06-.55.22-.83.33.72 0 1.44 0 2.16.17-.39-.22-.89-.39-1.33-.5zm4.88 22.93l-3.77.33 3.71-.06.06-.28zm-2.49-9.42l-.61 7.64.78.44-.17-8.09zm2.05.89c.17 0 .28-.11.28-.44 0-2.83-.55-9.58-.55-9.58s-.22 6.98-.22 9.97c.17 0 .39.06.5.06zm1.88 8.53l-.06.28h1.22l-1.16-.28zm2.49-.5l-1.16.11 1.61.39-.44-.5zM182.75 64.15c.11-2.16 1.22-3.71 3.27-4.43 1.38-1.11 1.99-1.16 3.71-1.16 3.38 0 9.31 1.61 9.31 5.87 0 2.77-1.5 3.77-3.99 3.77-1.27 0-1.77-1.16-1.77-2.27 0-.83.17-1.77.89-2.27-1.11-.89-1.94-2.11-3.49-2.11-1.11 0-4.32 1.39-4.32 2.66 0 5.04 12.96 4.71 12.96 16.73 0 .89-.55 1.77-1.5 1.94-1.05 2.16-5.04 3.38-7.48 3.38h-.44c-.55.22-1 .28-1.5.28-.78 0-1.55-.17-2.49-.17-1.88 0-3.38-2.99-3.38-4.71v-.28c-.06-.66-.28-1.11-.28-1.94 0-.33.06-.78.17-1.33.44-1.33 1.83-1.39 2.99-1.39h.28c1.39 0 2.49.44 2.49 2.05 0 2.55-.78 3.05-3.16 3.05 1.05 2.22 3.05 2.55 5.43 2.55 1.83 0 3.27-2.1 3.27-3.77 0-2.33-1.44-4.27-3.05-5.87-3.77-1.44-5.65-2.16-6.7-3.43-1.11-1.33-1.16-3.38-1.61-7.64l.39.5zM185.24 77c-.5 0-1.27.5-1.55.94.22-.17.55-.22.89-.22.33-.22.72-.22 1.16-.22h.83c-.33-.28-.89-.5-1.33-.5zm-.61 3.66c.06.22.11.5.22.72.44-.22.89-.55 1.22-.94-.55 0-.94.11-1.44.22zm.39-2.16l-.22.39h.55l-.33-.39zm-.11 5.37c.39.61.83 1.27 1.5 1.61.44-.06.89-.22 1.27-.39-1.05-.22-1.83-.94-2.77-1.22zm.06-13.41c.94 1.33 2.6 2.1 4.04 2.71-1.16-1.11-2.83-1.66-4.04-2.71zm.22-5.21c0 .39.22.72.55 1-.22-.28-.44-.66-.55-1zm3.49 3.99c-.33-.28-.72-.55-1.11-.83l.55.61.55.22zm4.04-9.86c0-.11-2.99-.61-3.32-.61-.44 0-1.05.33-1.39.55.39 0 1-.06 1.61-.06s1.16.06 1.5.17l.33-.17 1.27.11zm-2.33 25.59c.11 0 .22-.06.78-.39-.94 0-1.94 0-2.94-.11.61.28 1.22.5 1.88.5h.28zm-1.11-13.02c1.16.78 2.33 1.5 3.55 2.16-1.11-.83-2.33-1.55-3.55-2.16zm2.71-1.33c1.5 1.33 2.99 2.71 4.38 4.27-1.11-1.77-2.66-3.16-4.38-4.27zm1.5-11.25c-.17.17-1.05.39-1.27.55.33-.06.66-.06 1-.06 1 0 1.66.33 2.22 1.16.61.22 1.22.55 1.66 1.05-1.05-1.44-2.22-2.27-3.6-2.71zm2.05 3.77c-.17-.5-1.94-1.77-2.66-1.83 1.05.33 1.66 1.22 2.49 1.88l.17-.06zm.5 4.27c-.55 0-1.11-.33-1.55-.72.17.55.55 1.05 1.11 1.22.39-.11.72-.28 1-.55l-.55.06zm-.28 14.9c.11-.33.17-.66.17-.94 0-.78-.11-1.55-.39-2.27.17 1.05.22 2.11.22 3.21zm-.06-5.43c.55.61 1 1.33 1.22 2.16-.11-.83-.61-1.61-1.22-2.16zm.78-11.13c-.11-.22-.22-.44-.39-.66l-.33.66h.72z" fill="#fff"/><path d="M204.52 86.14c-2.11 0-2.44-4.21-2.44-7.37 0-1.27.06-2.44.06-2.99 0-3.38.17-8.36.55-12.96h-2.6c-.5 0-.94 0-1.44-.06 0-.55-.22-.5-.22-.89 0-1.11 1.11-1.11 1.94-1.11.55-2.1 3.77-2.99 4.27-6.76h1.83c.78 1.27 1 2.99 1 4.6 0 .5-.06 1.05-.06 1.5.22 0 .67-.06 1.22-.06 1 0 2.22.17 2.71 1.22.11.22.17.44.17.66 0 .28-.06.5-.11.5-.33.55-1 .72-1.66.72-.39 0-.83-.06-1.16-.17h-.61c-.22 0-.39.11-.39.72 0 3.32-.55 9.36-.61 12.8v.66c0 2.16.22 5.43.72 7.2.06.06.11.06.22.06.28 0 .78-.11.83-.28 0-.06.06-.17.06-.22 0-.39-.39-.61-.39-1.05 0-.61.06-1.72.83-1.94.33-.5.83-.89 1.44-.89s1.27.39 1.77 1.38c.22.44.28.72.28 1v.39c-.22 1.61-.55 2.66-2.27 2.94-.5.78-1.38 1.05-2.27 1.05-.78 0-1.5-.28-2.16-.66h-1.5zm-4.99-24.26c.28-.11.44-.22.55-.33a.71.71 0 0 0 .22-.5c-.39.11-.72.39-.78.83zm2.1-1.44c.78-.5 1.38-1.22 1.83-2.05-.61.66-1.27 1.33-1.83 2.05zm1.16 1.05h-.22c-.11 0-.22.06-.61.33h.83v-.33zm1.22 8.92l-.83 4.6.22 1.27.61-5.87zm1.27 15.12a6.35 6.35 0 0 1-1.38-1.83c.17.55.44 1.83 1.16 1.83h.22zm-.83-24.98c-.17.33-.22 1.05-.22 1.94 0 2.1.33 5.1.33 5.1l-.11-7.04zm1.5 2.94l-.55 9.31s.78-4.76.78-8.03c0-.39 0-.78.17-1.11l-.39-.17zm1.33-1.77l-.06.44c.11 0 1.39-.28 1.39-.28l-1.33-.17zm.11-1.05c.78.28 1.83.55 2.66.55-.66-.66-1.72-.72-2.6-.72l-.06.17zm.72 24.82l-.61.33 1 .33 1.38-1.16-1.77.5zm1.55-22.71c.17-.11 1-.44 1-.66 0-.06-.06-.11-.11-.11-.22.17-1 .55-1.27.66l.39.11zm1.61 20.55c-.11.55-.17 1.05-.39 1.55.55-.5.72-1.22.72-1.88l-.33.33zM222.14 86.58c-6.26 0-9.25-6.54-9.25-12.91 0-.83.06-1.66.17-2.49.55-4.71 4.38-8.92 6.37-9.97h.22c.28-.39.44-.55.78-.55 1.33-.72 2.71-.78 4.21-.78.78 0 1.61.22 2.38.39 5.26 1.27 5.48 6.98 5.48 11.3 0 .28-.22.39-.5.39-.61.94-1.88 1.16-3.05 1.16-.44 0-.83 0-1.16-.06-2.88-.39-5.71-.78-8.59-.78-.28 0-.5.11-.78.11-.11 0-.17 0-.28-.06.22 1.33 0 2.83.33 4.15.94 3.43 3.38 7.42 7.2 7.42h.55l.61-.06c1.77-2.16 1.99-4.27 5.1-4.27.44 0 .72.33.72.78 0 3.21-5.32 6.2-8.2 6.2h-2.33zm-7.76-9.69c.33 1.55.83 3.05 1.61 4.43-.55-1.44-1.11-2.94-1.61-4.43zm2.44-4.99c0-.11-.17-.11-.39-.22-.06.94-.11 1.72-.11 2.55 0 2.83.55 5.65 2.77 7.53-1.83-3.05-2.05-6.37-2.27-9.86zm0-1.72c.06-.66.06-1.38.11-2.05-.17.66-.28 1.38-.39 2.05h.28zm1.38 13.24c1.16 1.88 2.83 2.66 5.04 2.66.61 0 1.27-.06 1.88-.17-2.55-.17-4.93-.78-6.92-2.49zm9.31-15.73v-1.16c0-1-.06-1.55-.55-2.94-1.05-.55-2.77-1.16-3.99-1.16-2.77 0-4.38 5.37-4.71 7.64.06.11 6.26.61 7.04.61.67 0 1.33 0 1.99-.17.11-.94.22-1.88.22-2.83zm-6.15 4.15s4.6.66 6.87.66c.72 0 1.5-.11 2.1-.5-2.99-.11-8.97-.17-8.97-.17zm2.27-9.86c-.39 0-.78.06-1.11.22 1.44 0 2.33 0 3.66.61-.72-.5-1.66-.83-2.55-.83zm2.77 22.38c-1.22-.06-2.71-.06-3.88-.61.89.5 1.5.78 2.38.78h.39l1.11-.17zm-2.71-23.32c-.33.06-.61.22-.89.39.33 0 .61-.06.94-.06.44 0 .94.06 1.38.11-.44-.22-.94-.33-1.44-.44zm1 23.99c.55.22 1.16.33 1.77.33.39 0 .94-.39 1.22-.66-1 .22-1.99.33-2.99.33zm5.48-14.62l-1.99.55 1.99-.17v-.39zm-1.44-4.82c.11.66.17 1.38.17 2.05 0 .78-.06 1.55-.17 2.33.33-.17.66-.39.89-.66-.06-1.27-.28-2.6-.89-3.71z" fill="#fff"/><path d="M241.03 70.41c0 3.38-.28 7.04-.28 10.41 0 .94.22 1.5.39 2.38.83.17 3.43.72 4.1 1.22.17.33.72 1.39.72 1.72-.11.5-.5.61-.94.61-.22 0-.44-.06-.66-.06-1.66 0-3.21-.44-4.82-.61-2.1-.17-4.32-.11-6.48-.22 0-.5-.17-.39-.67-.55.39-.17.5-.22.5-.28s-.06-.06-.06-.17c0-1.05 1.38-1.33 2.22-1.44-.06-.22-.06-.55-.06-.89 0-1 .17-2.27.17-2.99 0-4.27.61-13.79.61-13.79s-.72.28-1.55.28c-.94 0-1.94-.39-1.94-1.99 0-1.16 2.16-1.5 3.49-1.5.33 0 .61 0 .78.06 1.5-.66 2.55-1.77 2.77-3.43l-.17-.28s.17 0 .17-.28c1.94 0 1.99.11 1.99.33 0 .11 0 .28.17.44.11.61.11 1.16.11 1.77s-.06 1.22-.11 1.77l.17.61c.55-1.22 1.61-2.38 2.99-2.44.44-.66 1.22-.78 1.94-.78 3.38 0 3.43 1.61 3.43 4.43v.61c0 .61-.11 1.27-.83 1.44-.55 1.05-1.16 1.16-2.05 1.16h-.72c-2.16 0-1.88-2.1-2.1-3.6-1.55.94-2.05 3.71-3.27 5.21v.83zm-7.53-5.87c.17.28.72.33 1.27.33h.94c-.44-.22-1.72-.17-2.22-.33zm1.61 19.28c-.28.11-.61.22-.83.44h.61c.22-.22.33-.22.33-.28l-.11-.17zm-.55 1.44l1.66.06s-.94-.5-1-.5l-.66.44zm1.66-8.92c-.22 1.44-.33 2.83-.33 4.27 0 .61.06 1.27.11 1.88.22-.66.61-1.83.61-2.66v-.28l-.39-3.21zm2.6-13.52l-.83.78.66 6.54.17-7.31zm.06 11.63s-.28 3.43-.28 6.04c0 1.61.11 2.94.44 2.94 0-2.99-.17-8.97-.17-8.97zm.83 9.31c-.44-.06-.72-.11-.89-.11-.11 0-.22 0-.22.22 0 .11 0 .22.06.5l1.11-.06-.06-.55zm.33-18.78l-.06 1.94c.22-.39.33-1.5.39-1.94h-.33zm4.76 21.05l-4.65-.33c.78.11 3.66.66 4.43.72l.22-.39zm-3.32-1.66c.44 0 .89.11 1.33.22-.5-.33-.72-.39-1.27-.5l-.06.28zm5.71-17.17c-.39 0-.89-.06-1.27-.28.28.44.61.72.94.72.28 0 .5-.17.78-.44h-.44zm.66-3.71c-.06.11-.11.28-.11.5 0 .5.17 1.22.22 1.55.28-.11.33-.39.33-.78l-.44-1.27z" fill="#fff"/></svg>