<svg xmlns="http://www.w3.org/2000/svg" width="150" height="155" viewBox="0 0 150 155"><path d="M149.56 41.55L75.66.11a.859.859 0 0 0-.85 0L29.88 25.22V3.26a.87.87 0 0 0-.87-.87H6.61a.87.87 0 0 0-.87.87V38.7l-5.3 2.97c-.27.15-.44.44-.44.76v10.42c0 .48.39.87.87.87h5.72v97.58c0 .48.39.87.87.87h76.26v.21c0 .48.39.87.87.87h30.9c.48 0 .87-.39.87-.87v-.33h26.92c.48 0 .87-.39.87-.87V53.71h5c.48 0 .87-.39.87-.87V42.3c0-.31-.17-.6-.44-.75zM8.32 53.71H142.4v48.35H8.32V53.71zm107.16 96.59a.87.87 0 0 0-.87.87v.33H85.44v-.21a.87.87 0 0 0-.87-.87H8.32v-46.63H142.4v46.52h-26.92zm32.79-98.33H1.73v-9.05l5.31-2.96c.27-.15.44-.44.44-.76V4.13h20.66V26.7c0 .31.16.59.43.75.26.16.59.16.86 0L75.24 1.86l73.03 40.95v9.17z" fill="#fff"/><path fill="#fff" d="M27.44 110.12l-3.54 11.75h-.09l-3.71-11.75h-5.38l6.4 18.02v12.82h5.3v-12.82l6.4-18.02h-5.38zM39.76 109.69c-5.55 0-7.47 3.54-7.47 7.9v15.89c0 4.36 1.91 7.9 7.47 7.9s7.47-3.54 7.47-7.9v-15.89c0-4.36-1.91-7.9-7.47-7.9zm2.17 23.66c0 2.31-.83 3.42-2.17 3.42s-2.17-1.11-2.17-3.42v-15.63c0-2.31.76-3.42 2.17-3.42s2.17 1.11 2.17 3.42v15.63zM58.41 133.4c0 2.26-.64 3.37-1.95 3.37s-1.95-1.11-1.95-3.37v-23.28h-5.3v23.06c0 5.3 2.21 8.2 7.25 8.2s7.25-2.9 7.25-8.2v-23.06h-5.3v23.28zM80.38 119.22c0-6.58-3.03-9.1-8.97-9.1h-5.48v30.84h5.3v-12.64l.79-.13 3.76 12.77h5.38l-4.48-13.97c1.79-.81 3.72-2.82 3.72-7.77zm-9.16 4.74v-9.48c2.81.02 3.86 1.1 3.86 4.74s-1.05 4.72-3.86 4.74zM86.46 117.34c0-1.92.72-3.03 2.43-3.03 1.2 0 1.96.77 2.17 3.42l5.04-.56c-.47-4.36-2.38-7.47-6.7-7.47-5.21 0-7.98 2.78-7.98 7.69 0 8.84 10.33 10.46 10.33 16.57 0 1.84-1.02 2.82-2.86 2.82-1.71 0-2.3-1.54-2.51-4.66l-5.04.73c.21 4.61 2.38 8.54 7.29 8.54s8.15-2.82 8.15-7.9c0-8.37-10.33-10.89-10.33-16.14zM103.75 127.29h4.28v-4.61h-4.28v-7.95h6.33v-4.61H98.45v30.84h12.23v-4.62h-6.93v-9.05zM117.56 110.12h-5.29v30.84h11.35v-4.62h-6.06v-26.22zM125.32 140.96h5.3v-13.67h4.27v-4.61h-4.27v-7.95h6.01v-4.61h-11.31v30.84zM75.79 37.73c.93 3.2 3.06 5.3 5.74 6.7 3.5 1.82 7.18 2.27 10.98 1.54 3.59-.69 6.68-2.42 9.02-5.55 2.3-3.07 3.1-6.62 2.38-10.5-.58-3.12-2.33-5.38-4.72-7.03-2.77-1.91-5.85-2.63-9.1-2.78-1.31.19-2.64.28-3.93.59-3.24.78-6.07 2.42-8.21 5.27-2.62 3.48-3.41 7.45-2.15 11.77zm8.43-6.76c1-2.19 2.76-3.22 4.9-3.46 1.23-.14 2.45 0 3.62.51 2.64 1.17 3.73 3.79 2.76 6.74-.78 2.35-2.39 3.63-4.55 4.13-.49.11-1 .12-1.51.18l-.03.09c-.86-.2-1.75-.29-2.57-.62-3.44-1.42-3.89-4.78-2.62-7.57zM57.12 28.42c2.66-1.51 5.32-1.24 7.89.33.76.46 1.43 1.12 2.18 1.71 1.77-1.6 3.58-3.23 5.46-4.92-.59-.6-1.1-1.19-1.67-1.7-2.09-1.83-4.49-2.84-7.11-3.32-3.3-.61-6.55-.39-9.65 1.04-4.58 2.11-7.71 5.59-8.31 11.29-.27 2.56.16 4.98 1.47 7.14 2.24 3.69 5.57 5.4 9.42 6.08 2.09.37 4.18.28 6.26-.11 2.57-.48 4.94-1.5 7.06-3.2.32-.25.47-.55.55-.96.44-2.35.9-4.69 1.35-7.04.19-.98.36-1.97.55-2.99H60.32c-.29 1.53-.58 3.07-.88 4.67H64c-.15.71-.28 1.36-.45 1.99-.04.14-.25.26-.41.31-1.96.61-3.92.65-5.83-.16-1.46-.61-2.59-1.66-2.97-3.42-.59-2.67.53-5.46 2.78-6.74zM64.75 60.42H51.57v35.59h27.71V84H64.75V60.42zM83.33 60.42h13.19v35.59H83.33zM17.18 60.42v35.59h13.18V85.29h12.56v-9.65H30.36v-4.72h16.43v-10.5H17.18zM121.8 60.42h-19.04v35.59h13.19v-9.06h5.85c7.3 0 13.27-5.97 13.27-13.27s-5.97-13.27-13.27-13.27zm-3.5 16.73h-2.35v-6.91h2.35c1.9 0 3.46 1.56 3.46 3.46s-1.56 3.46-3.46 3.46z"/></svg>