<svg xmlns="http://www.w3.org/2000/svg" width="250" height="87" viewBox="0 0 250 87"><path d="M32.26,81.66v-4.9a15.52,15.52,0,0,1,0-2.46A14.28,14.28,0,0,1,33.07,72,8.69,8.69,0,0,0,34,69.45c.1-4.89.07-9.78.07-14.67,0-.15-.06-.29-.39-.48-.14.51-.3,1-.42,1.52-2.06,8.54-4.14,17.06-6.16,25.61a1.54,1.54,0,0,1-1.55,1.37c-3.74.47-3.74.49-4.71-3.11Q17.91,69.05,15,58.41A2.93,2.93,0,0,0,14.28,57a9.2,9.2,0,0,0-.1,1c0,4.46,0,8.92,0,13.38a4,4,0,0,0,1.3,3.38,1.63,1.63,0,0,1,.38,1.15c0,2.38.05,4.76,0,7.14,0,.38-.41,1-.7,1.07-4.87.73-9.76,1.38-14.65,2-.07,0-.16,0-.37-.12A10.42,10.42,0,0,1,0,85c0-1.87,0-3.73,0-5.59a4.59,4.59,0,0,1,1-3.35,4.19,4.19,0,0,0,.76-2.54c.06-8.87,0-17.74,0-26.62a3.87,3.87,0,0,0-1.26-3A1.88,1.88,0,0,1,0,42.66c0-2.33,0-4.67,0-7,0-.8.23-1.15,1.06-1.26q9.07-1.22,18.13-2.52c1-.14,1.27.26,1.48,1.1q2.22,8.67,4.5,17.33c.12.48.27,1,.41,1.43l.34,0c.13-.42.3-.82.4-1.25C27.9,44.21,29.48,37.92,31,31.61A1.76,1.76,0,0,1,32.75,30c5.76-.72,11.5-1.53,17.23-2.38,1-.16,1.2.17,1.17,1.05,0,1.73,0,3.46,0,5.2,0,1.41.1,2.75-1,4a4.38,4.38,0,0,0-.7,2.68c0,8.7,0,17.4,0,26.1a4,4,0,0,0,1.31,3.26A1.63,1.63,0,0,1,51.11,71c0,2.42,0,4.84,0,7.27a.94.94,0,0,1-1,1.1L33,81.75A3.69,3.69,0,0,1,32.26,81.66Z" fill="#fff"/><path d="M126.66,41.73c.67.14,1,.24,1.29.27a7.39,7.39,0,0,1,6.4,4.8c2.72,6.47.51,15.67-4.72,19.5-3,2.23-6.59,3-10.21,3.49-8.1,1.14-16.2,2.24-24.3,3.36a8.61,8.61,0,0,1-1,0c0-.31-.11-.64-.12-1,0-1.73,0-3.46,0-5.2,0-1.44-.13-2.8,1.16-4A4.6,4.6,0,0,0,96,60c.06-8.49,0-17,0-25.46,0-1.45-.15-2.87-1.63-3.72-.23-.12-.36-.58-.37-.88,0-2.47,0-4.94,0-7.4,0-1.07.68-1,1.34-1.15,5.32-.73,10.63-1.5,15.95-2.18,4.33-.55,8.67-1.26,13-1.43,6.27-.23,10,3.41,10.27,9.7a24.67,24.67,0,0,1-.22,4.78,11.49,11.49,0,0,1-6.15,8.66ZM112,54.37h0c0,1.56-.05,3.12,0,4.67,0,.35.4.94.67,1,2.54.34,5.42-1.48,5.89-3.87a14.49,14.49,0,0,0,.18-4.36c-.28-2.48-1.57-3.43-4.07-3.33-.43,0-.86.09-1.29.1-1,0-1.47.46-1.42,1.54C112.07,51.51,112,52.94,112,54.37Zm0-20c0,1,0,2,0,3,0,1.87,0,1.92,1.89,1.58,2.06-.39,4-1,4.54-3.4,1-4.68-.78-6.81-5.39-6-.75.14-1,.45-1,1.18C112,31.91,112,33.11,112,34.32Z" fill="#fff"/><path d="M222.77,32.79v2.66c0,2.38,0,4.76,0,7.14a4.06,4.06,0,0,0,1.28,3.28,1.92,1.92,0,0,1,.46,1.26c0,2.34,0,4.67,0,7,0,.7-.15,1.11-1,1.22-4.8.63-9.6,1.32-14.4,2a2.28,2.28,0,0,1-.54-.06c0-.43-.09-.89-.09-1.34,0-1.69,0-3.38,0-5.07a5.26,5.26,0,0,1,1-3.73,5.34,5.34,0,0,0,.78-3.07c.05-8.53,0-17.06,0-25.59a4.17,4.17,0,0,0-1.36-3.5,1.89,1.89,0,0,1-.4-1.28c0-2.29,0-4.59,0-6.88,0-.89.33-1.21,1.17-1.32,5.14-.69,10.29-1.4,15.42-2.15,1-.14,1.15.5,1.42,1.15q3.85,9.5,7.73,19a3.21,3.21,0,0,0,.91,1.34,5.58,5.58,0,0,0,.13-.9q0-4.49,0-9A4.14,4.14,0,0,0,234,11.56a1.69,1.69,0,0,1-.41-1.14c0-2.38,0-4.76,0-7.14,0-.73.18-1.12,1-1.23Q242,1,249.53,0c.07,0,.16.05.37.12,0,.37.08.78.08,1.2,0,1.91,0,3.81,0,5.72a5.48,5.48,0,0,1-.9,3.1,8.24,8.24,0,0,0-.85,4q-.09,18.06,0,36.11c0,1.36-.32,2-1.75,2-1.2,0-9.15,1.27-10.15,1.41-3.68.52-3.68.57-5.14-2.78q-3.66-8.32-7.3-16.64c-.22-.5-.46-1-.69-1.49Z" fill="#fff"/><path d="M160.52,64.09V60.48c0-1.09,0-2.17,0-3.25a3.7,3.7,0,0,1,1.1-3.25c.55-.5.61-1.63.72-2.5s-.4-1.21-1.3-1.06c-1.71.28-3.44.43-5.13.76-.65.12-1.58.43-1.76.9-.39,1-.4,2.38.69,2.91,1.34.66,1.29,1.62,1.27,2.76,0,2,0,4,0,6,0,.69-.23,1-.93,1.13-5.32.71-10.63,1.45-15.95,2.17a6.31,6.31,0,0,1-.79,0c-.05-.57-.12-1.11-.13-1.64,0-1.3,0-2.6,0-3.9a10.59,10.59,0,0,1,1.07-5.05c1.09-2.18,1.41-4.78,1.87-7.23q3.09-16.78,6.07-33.59c.19-1.08.55-1.58,1.76-1.73q9.91-1.28,19.8-2.76c1.32-.2,1.78.16,2,1.47,2.39,11.78,4.85,23.55,7.3,35.32.34,1.62.71,3.23,2.28,4.21a1.26,1.26,0,0,1,.31.91c0,2.42,0,4.85,0,7.27,0,.36-.38,1-.65,1C173.67,62.27,167.21,63.16,160.52,64.09ZM158.11,26c-.28.15-.34.16-.34.19-.81,4.75-1.63,9.51-2.38,14.27,0,.19.55.69.83.68,1.12-.07,2.22-.3,3.34-.42.82-.08,1.13-.44,1-1.27-.3-1.53-.54-3.06-.81-4.59Z" fill="#fff"/><path d="M76.15,38.38c-.1-1.29-.15-2.45-.28-3.6s-.64-2.13-1.94-2.24a2.59,2.59,0,0,0-2.82,1.65,6.47,6.47,0,0,0-.47,2.26c0,4.93,0,9.86,0,14.8a5.05,5.05,0,0,0,.08,1c.22,1.11.58,2.13,1.92,2.3a2.48,2.48,0,0,0,2.89-1.86A28.91,28.91,0,0,0,76,47.46c0-1,.27-1.44,1.33-1.56C80.9,45.48,84.46,45,88,44.44c1-.15,1.3.1,1.28,1.11,0,3.16,0,6.32,0,9.48a2.61,2.61,0,0,1-.64,1.57A20.63,20.63,0,0,1,79.14,62c-5,1.51-10.11,2.49-15.34,1.36-4.35-.94-7-3.79-7.17-8.22-.21-6.35-.22-12.72,0-19.06a10.29,10.29,0,0,1,6.29-9.46,32.89,32.89,0,0,1,22.66-2c3.73,1,3.69,1.16,3.69,5,0,2,0,3.9,0,5.85,0,.77-.19,1.18-1,1.29C84.28,37.24,80.3,37.81,76.15,38.38Z" fill="#fff"/><path d="M203.26,6.61c0,2.86,0,5.75,0,8.63a.74.74,0,0,1-.22.46c-1.46,1.35-1.5,3.11-1.49,4.92q0,12.27,0,24.53A4.31,4.31,0,0,0,203,48.89a1.69,1.69,0,0,1,.33,1.18c0,2.33,0,4.67,0,7,0,.82-.28,1.15-1.08,1.25q-8.67,1.17-17.35,2.4c-.84.12-1.19-.12-1.18-1,0-2.34,0-4.68,0-7a5,5,0,0,1,.5-1.41c.42-1.15,1.19-2.29,1.2-3.44.1-8.74.06-17.48.06-26.22a4,4,0,0,0-1.25-3.15,2.13,2.13,0,0,1-.52-1.37c-.05-2.29,0-4.59,0-6.88,0-.65.08-1.15.93-1.27,6-.81,12.08-1.66,18.12-2.49A1.8,1.8,0,0,1,203.26,6.61Z" fill="#fff"/><path d="M88.41,64.72c0,2.93,0,5.68,0,8.44,0,.27-.58.72-.93.77-5.74.83-11.49,1.61-17.23,2.4l-11.7,1.6c-.29,0-.59,0-1.1.07V72.27c0-3.36,0-3.31,3.38-3.76,8.92-1.21,17.83-2.46,26.75-3.69Z" fill="#fff"/></svg>