<svg xmlns="http://www.w3.org/2000/svg" viewBox="0 0 262 140"><path d="M17.8 37.68L8.18 26.19c-1-1 252.82 0 252.82 0L195.31 73M39.52 63.63l-9.31-11.12M181.88 82.57l-79.25 56.48-6.66-7.96-46.08-55.06M30.21 52.51l9.31 11.12" fill="none" stroke="#fff" stroke-linejoin="round" stroke-width=".73"/><path d="M63.92 64.21s.01-.06.02-.09c.07-.47.16-1.01.26-1.59.15-.9.31-1.83.41-2.62v-.17l-.03-4.33c0-.06 0-.13-.01-.19-.57-3.81-2.22-6.98-4.7-9.07-.88-1.28-1.94-2.37-3.19-3.21-.68-.49-1.42-.9-2.18-1.27-.36-.32-.74-.61-1.14-.88-2.53-1.8-5.76-2.73-8.04-3.2-1.6-.44-6.16-.63-14.74-.63-2.75 0-5.48.02-7.89.04-1.85.01-3.45.02-4.69.02-.89 0-1.51 0-1.91-.02h-.04c-.21 0-.42.05-.61.15l-.81.41c-.33.17-.58.46-.68.82-.33 1.14.2 2.1.67 2.95.53.96.99 1.8.61 3.05v.03c-1.19 4.24-3.46 12.24-5.46 19.29-1.38 4.87-2.68 9.44-3.51 12.41 0 .02-.01.04-.02.06-.45 1.91-3.02 3.9-3.98 4.65-.11.08-.2.15-.27.21-.75.59-1.09 1.24-1 1.93.06.47.3.81.58 1.04.45.43 1.22.56 2.76.65-.02.15-.04.3-.02.45.06.47.3.81.58 1.04.34.32.85.48 1.73.57-.11.27-.16.54-.13.83.06.47.3.81.58 1.04.49.46 1.34.59 3.17.67 1.22.06 2.89.09 5.1.09s4.6-.03 6.68-.05c1.49-.02 2.78-.03 3.66-.03.79 0 .98.01 1.02.02.06 0 .11.01.16.01h1.54c3.18 0 6.61-.02 7.88-.18 4.23-.4 7.47-1.04 10.2-2 4.7-1.41 8.67-4.48 11.8-9.12 2.5-3.72 4.45-8.48 5.62-13.77zM2.85 82.08c.86-.68 4.12-3.02 4.73-5.6 2.07-7.35 6.97-24.59 8.96-31.7.92-3.03-1.71-4.54-1.28-6.01l.81-.41c.44.01 1.11.02 1.95.02 2.86 0 7.73-.06 12.58-.06 6.38 0 12.73.11 14.42.59 2.58.52 5.43 1.46 7.59 3 3.02 2.02 4.62 5.43 5.14 8.93l.03 4.33c-.15 1.23-.48 2.93-.66 4.16-2.04 9.16-6.93 19.04-16.53 21.91-3.1 1.1-6.66 1.63-9.93 1.94-1.27.16-5.26.17-7.72.17h-1.56c-.15-.02-.57-.03-1.19-.03-2.09 0-6.46.09-10.34.09s-7.15-.08-7.36-.42c0 0-.5-.23.36-.91z" fill="#fff"/><path d="M24.55 79.93c.69 0 1.44-.12 2.1-.13 11.42-1.11 12.94-15.65 15.51-24.59.22-2 .87-4.38.53-6.4-.33-2.69-.92-4.67-3.41-6.06-.94-.45-3.23-.81-3.23-.81-.69-.09-1.26-.15-1.75-.15-1.47 0-2.14.54-2.5 2.45-2.58 9.28-5.18 18.66-7.77 27.94-.52 1.91-1.17 4.2-1.67 6.12.25 1.35 1.15 1.63 2.19 1.63zM41.1 53.19c-.09.58-.19 1.18-.26 1.76-.4 1.39-.76 2.88-1.15 4.45-1.7 6.91-3.58 14.58-8.86 17.69 1.8-6.45 3.64-13.05 5.41-19.44.78-2.83 1.57-5.65 2.35-8.46l.03-.11c.26-1.36.47-1.36 1.18-1.36.4 0 .91.06 1.38.12.07.36.12.73.17 1.14v.06c.2 1.22-.04 2.71-.27 4.15zM96.32 52.33c.19-.73.57-2.26.69-3 .68-3.15-1.48-6.3-4.83-6.3h-.29l-3.44-.02h-.08c-1.28 0-1.5 1.52-1.69 2.52-.54 2.13-1.19 4.72-1.71 6.85-.21.82-.64 2.5-.84 3.32-.33 1.4-.56 2.32 1.06 2.93.52.01 1.03.02 1.53.02 4.66 0 8.03-.83 9.6-6.33zM92 56.4c.47-1.89 1.01-4.08 1.49-5.94 0-.03.01-.06.02-.09l.03-.14c.06-.32.19-1.06.36-1.28h1.82v.08c0 .02 0 .05-.01.07-.05.33-.21 1.1-.66 2.87-.67 2.33-1.63 3.67-3.02 4.42z" fill="#fff"/><path d="M131.23 76.09c-.81-1.63-2.23-2.79-4.04-3.27-1.2-1.5-3.06-2.4-5.25-2.4-.54 0-1.1.05-1.67.15-.03 0-.07.01-.1.02-4.68 1.2-6.37 5.27-5.96 8.54.01.09.04.18.06.27-.02-.02-.03-.05-.05-.08-.24-.28-.59-.44-.96-.45h-.25l-.54-.03c.06-.58.22-1.21.38-1.85.12-.48.24-.97.33-1.46.5-1.84 1.47-5.55-1.29-8.03-.29-.27-.58-.49-.88-.68-.29-.62-.7-1.22-1.3-1.76-.05-.04-.09-.08-.14-.12 5.38-1.25 9.43-5.57 9.94-10.75.23-2.29-.28-4.5-1.46-6.39-.59-.94-1.35-1.79-2.25-2.54-1.15-1.8-2.91-3.26-5.13-4.27-1.11-1-2.45-1.83-4-2.45-1.56-.77-4.74-1.41-6.28-1.51h-.09c-1.12 0-26.8-.03-28.01-.03h-.19c-.84 0-1.93.32-2.46 1.23-.38.64-.36 1.42.04 2.12l.53.91.36.62.09.15c.15.48.39 1.34.29 1.86v.04c-.23 1.08-5.08 18.32-5.37 19.23 0 .01 0 .03-.01.04 0 0-3.83 13.53-3.9 13.77 0 .02 0 .03-.01.05-.39 1.54-1.16 2.08-2.23 2.81-.77.53-1.65 1.14-2.34 2.17-.17.26-.25.57-.22.88.13 1.28 1.43 1.61 3.34 1.79-.02.12-.04.24-.03.36.1 1.04 1 1.45 2.35 1.66-.13.24-.2.5-.17.78.15 1.46 1.83 1.69 4.2 1.85 1.6.11 3.83.17 6.64.17 4.29 0 8.72-.13 10.61-.18.4-.01.67-.02.77-.02 1.39-.02 3.47-.05 3.75-1.6.25-1.01-.67-1.88-1.91-3.05-.14-.13-.31-.3-.38-.36l-.02-.02a3.48 3.48 0 0 0-.47-.71c-.58-1.16-.3-2.4.24-4.27.07-.26.15-.52.22-.78.2-.74.46-1.65.7-2.53.23-.8.45-1.6.63-2.27.18-.67.55-2 .77-2.78.13-.34.21-.69.29-1.04.06-.27.17-.74.28-.95h.42c.3 0 .69 0 1.11-.02h.37c-.16.93-.42 1.95-.69 2.99-.58 2.2-1.17 4.47-.95 6.63.27 2.64 1.76 4.58 4.42 5.78.22.11.44.21.67.3.32.34.7.66 1.11.95.72 1.43 1.96 2.54 3.72 3.33.83.42 1.69.68 2.54.78 1.15.26 2.31.39 3.46.39 1.05 0 2.06-.11 3.01-.33 3.2-.29 7.8-2.58 8.71-6.13.68.55 1.47.95 2.36 1.17.43.55.94 1.02 1.53 1.4 1.07 2.1 3.09 3.41 5.58 3.41 1 0 2.05-.21 3.13-.62.02 0 .05-.02.07-.03 4.15-1.84 5.37-5.85 4.74-8.78-.37-1.76-1.37-3.16-2.76-4.05zM88.31 63.13c-.28-.14-1.11-.18-2.04-.18s-2.02.04-2.67.04c-.21 0-.38 0-.48-.01-1.45.01-1.38 1.94-1.78 2.9-.2.72-.6 2.14-.79 2.86-.38 1.41-.95 3.39-1.33 4.81-.68 2.49-1.62 4.75.28 6.98.16.24 2.16 1.92 2.02 2.28-.04.49-1.43.53-2.45.55-.54 0-6.11.21-11.36.21-4.85 0-9.43-.17-9.49-.81 1.39-2.09 3.91-2.06 4.75-5.4l3.9-13.77c.32-1 5.35-18.88 5.42-19.42.16-.84-.12-1.86-.37-2.65l-1.04-1.8c-.49-.88.45-1.35 1.25-1.35h.14l28.05.03c1.41.1 4.48.72 5.82 1.4 10.77 4.23 7.36 17.57-2.98 19.41l-2.2.42c-.76.29-1.1 1.55-.53 2.17.95 1.03 3.22.37 5.07 2.13 1.99 1.79 1.5 4.47.88 6.75-.31 1.87-1.35 4.14-.32 5.94.67 1.46 2.45 1.43 3.85 1.48-.27 3.2-4.76 5.51-7.73 5.74-.9.22-1.85.32-2.8.32-1.09 0-2.19-.13-3.24-.38-.77-.08-1.51-.32-2.19-.67-9.92-4.43 4.37-17.51-5.62-19.95zm26.05 18.13c.07-.25.12-.5.15-.76.09.27.19.53.31.79-.16 0-.31-.02-.46-.03zm6.14-9.36c.5-.09.98-.13 1.43-.13 6.45 0 7.34 8.65 1.26 11.35-.97.37-1.86.53-2.66.53-6.23 0-7.21-9.91-.04-11.75zM213.35 44.23a6.295 6.295 0 0 0-1.9-1.91c-.09-.18-.17-.36-.28-.53a6.212 6.212 0 0 0-3.72-2.71c-1.23-1.55-3.04-2.39-5.19-2.39-2.52 0-5.29 1.21-7.08 3.1-1.72 1.49-3.56 3.07-5.43 4.69l-4.6 3.97c.46-.91 1.19-1.63 2.43-2.45.02-.01.03-.02.05-.04l.17-.12c1.1-.79 2.23-1.61 2.02-2.8-.06-.34-.39-1.45-1.98-1.45h-.36c.15-.3.22-.63.15-1-.06-.34-.39-1.45-1.98-1.45h-1.38c.06-.22.09-.45.04-.7-.06-.34-.39-1.45-1.98-1.45H162.87c-.93 0-2.11.34-2.64 1.3-.36.66-.31 1.44.13 2.15.06.1.12.21.18.31.38.65.96 1.63.95 2.22 0 .09 0 .19.03.28.09.44.06.81-.12 1.42 0 0-8.96 31.69-8.99 31.78 0 .03-.02.07-.02.1-.38 1.85-1.38 2.57-3.04 3.77-.13.1-.27.19-.41.29 0 0-.01 0-.02.01-.06.04-.12.08-.17.12-.46.32-1.31.92-1.36 2.15-.01.26.06.52.19.75.35.58.81.89 3.19 1.03-.02.12-.05.24-.06.37-.01.26.06.52.19.75.29.48.66.78 2.14.94-.08.22-.14.47-.15.75-.01.26.06.52.19.75.49.82 1.22 1.11 7.45 1.11 2.45 0 5.24-.05 7.7-.1 1.97-.04 3.67-.07 4.86-.07.97 0 1.27.02 1.35.03.1.02.2.03.3.03.89 0 1.82-.52 2.25-1.26.35-.59.36-1.29.03-1.87l-1.23-2.18c-.07-.14-.18-.62-.21-1.04.23-1.22.65-3.17.88-3.86 0-.02 0-.03.01-.05.21-.74.43-1.52.65-2.35.18-.67.37-1.34.56-2l.23.76.24.81c.03.09.06.2.11.32.08.25.15.49.22.73.93 3.03 1.98 6.4 5.56 7.24.41.53.9 1.01 1.48 1.39 1.07 1.93 2.73 3.4 5.82 3.4.23 0 .46 0 .7-.02.07 0 .15-.02.22-.03.05 0 .22-.02.65-.02.6 0 1.45.02 2.43.05 1.3.04 2.78.08 4.2.08 4.46 0 5.64-.43 6.25-1.22.26-.34.38-.75.34-1.17 0-.88-.74-1.69-1.9-2.85-.13-.13-.28-.29-.33-.34-.04-.05-.08-.09-.12-.14-.08-.08-.15-.17-.23-.25a6.5 6.5 0 0 0-.67-.85c-.87-1.31-1.42-2.99-1.96-4.63-.14-.44-.29-.89-.44-1.32-.85-2.47-1.75-5.14-2.43-7.18-.47-1.36-2.09-6.2-3.05-9.09l-.49-1.48c.05-.07.16-.19.36-.36.85-.69 1.98-1.63 2.57-2.13l3.32-2.72s.03 0 .04.01c1.39 1.56 2.74 2.6 5.11 2.93.39.06.78.1 1.16.1 2.58 0 4.94-1.49 6.32-3.98 1.5-2.72 1.49-6.04-.03-8.46zm-33.81 31.93l-2.13-7.14-.75-2.53c-.17-.56-.19-1.1-.67-1.43-.33-.25-.65-.35-.98-.35-1.25 0-2.41 1.56-3.32 2.32l-.29.99c-.58 1.88-1.17 4.17-1.71 6.05-.29.89-.77 3.26-.95 4.2.02.47.15 1.35.39 1.78l1.23 2.18c.29.52-.48 1.13-1.11 1.13-.16-.05-.76-.07-1.65-.07-2.72 0-8.21.17-12.56.17-3.38 0-6.08-.1-6.29-.46.03-.67.56-.92 1-1.25 1.94-1.41 3.46-2.33 3.98-4.88l8.99-31.78c.21-.74.28-1.34.14-2.05.01-1.09-.82-2.36-1.33-3.25-.61-.96.51-1.42 1.36-1.42h19.45c.27 0 .6.03.66.34.07.39-1.01 1.12-1.66 1.59-1.92 1.26-3.05 2.51-3.51 4.79-.49 1.89-2.69 9.47-2.86 10.1-.52 1.21.37 2.18 1.36 2.18.38 0 .77-.14 1.1-.46 5.78-5.05 12.87-11.13 18.67-16.15 1.51-1.62 3.91-2.73 6.15-2.73 1.76 0 3.41.68 4.46 2.32 2.56 4.08-.35 10.38-5.15 10.38-.31 0-.63-.03-.95-.08-1.97-.27-3.04-1.07-4.33-2.53-.24-.27-.67-.45-1.08-.45-.24 0-.47.06-.65.21l-3.47 2.84c-.64.54-1.92 1.59-2.56 2.12-.43.36-1.06.99-.83 1.68.61 1.83 3.01 9.04 3.6 10.72.78 2.33 1.63 4.88 2.44 7.2.89 2.53 1.64 5.66 3.64 7.57.24.32 2.03 1.91 1.93 2.42.21.8-2.35.98-5.24.98-2.47 0-5.19-.13-6.63-.13-.48 0-.83.02-.97.06-.21.01-.41.02-.6.02-4.38 0-5.16-3.53-6.31-7.22zM53.24 10.66c-.29-.21-.94-.18-1.37-.22-.27-.53.18-1.39.83-1.44 3.02-.26 4.38-2.92 3.6-3.73-.38-.4-2.05-.58-2.78.45-1.07 1.5-2.01 3.08-2.93 4.71-.77 1.36-2.6 4.5-2.31 5.12.31.68 1.97.49 3.17-.15 1.72-.92 3.26-3.67 1.8-4.73zM103.93 5.55c-1.57 1.32-2.69 2.99-3.53 4.86-.75 1.66-1.46 4.63-.15 5.28 1.02.51 2.15-.16 2.92-.82 1.86-1.61 3.02-3.73 3.82-6.06.37-1.1.49-2.37.09-3.48-.3-.84-1.78-.91-3.14.22zM125.01 7.19a31.86 31.86 0 0 0-3.27 3.39h2.15c.39 0 .89-.52 1.17-.78.76-.84 1.2-1.78 1.59-2.85l-.11-.35c-.08-.26-.94.06-1.52.59z" fill="#fff"/><path d="M38.07.95v21.32h159.57V.95H38.07zm9.06 15.86c-1.23 1.13-2.73.61-2.6.41l.22-.32 2.09-3.65 2.8-4.88c.65-1.14 1.29-2.25 1.57-3.53.04-.2.07-.49.14-.62s.39-.25.54-.26l2.21-.07 1.68.02c.81.01 1.93.09 2.49.76.89 1.08.36 2.57-.64 3.41-.87.73-1.9 1.03-2.97 1.43l-.3.11c-.06.02-.07.32-.01.35l.96.58c.86.52.85 1.84.49 2.73-1.36 3.34-5.23 4.34-8.67 3.52zm16.21 0l-5.84.03c-.72.37-1.57 1.03-2.56.54.41-.86.87-1.69 1.33-2.49l2.79-4.79a72.5 72.5 0 0 0 2.07-3.78c.3-.61.44-1.19.44-1.91.23-.18.68-.23 1.03-.25l1.72-.08 3.3-.07c.67-.02 1.35-.47 2.11-.03-.54 1.33-1.35 2.47-2.33 3.5-.19.2-.7.23-.91.14.17-.64.37-1.19.36-1.72-.02-.96-2.17-1.12-3-.11-.71.86-1.83 2.77-1.53 3.32.07.13.36.29.51.29l2.59-.02c.15 0 .55 0 .53.14-.29 2.12-3.9.27-5.1 1.78-.83 1.04-2.34 3.42-1.9 4.12.31.49 2.03.45 3.01.03 1.28-.44 2.33-1.18 2.97-2.38l.62-.12c.16-.03.26.5.18.67-.41.85-.95 1.79-1.47 2.66-.19.31-.55.54-.92.55zm5.07 0c-1.31.26-3.15.52-3.54-.22.59-.67 1.03-1.2 1.48-1.91 1.73-2.72 3.3-5.48 4.77-8.35.78-1.52.26-2.4 1.25-2.4h1.74c.17-.01.48.21.54.39-.32.42-.67.81-.97 1.29a95.744 95.744 0 0 0-5.01 8.96c-.35.72-.39 1.29-.27 2.25zm9.89-.28c-.94.37-2.71.49-3.24-.13.16-1.34.36-2.59.59-3.9l.32-1.77.42-2.06c.02-.09-.04-.3-.09-.35-.69-.85-4.22 6.61-4.92 8.08-.28.58-.6.89-1.27 1-.3.05-.72 0-.95-.35l1.38-2.33 2.47-4.08 1.68-2.98c.44-.77.88-1.54 1.1-2.43.05-.21-.08-.67.04-.83.13-.18.52-.5.76-.53 1.07-.12 2.68-.15 2.82.19.04.11.03.38 0 .53l-1.28 5.88a5.91 5.91 0 0 0-.06 2.26c.66-.34.86-.85 1.16-1.39l1.56-2.82c.78-1.41 1.36-2.87 2.2-4.26.43-.72 1.69-.74 2.38-.37-2.25 3.22-4.3 6.38-6.15 9.74-.51.94-.79 1.81-.92 2.9zM93.43 4.81c-.86 1.39-2.38 3.85-3.63 3.09.35-.72.69-1.43.56-2.21-.13-.76-1.63-.74-2.84.42-1.81 1.73-3.15 3.83-4.01 6.18-.45 1.23-.65 2.81.25 3.02 1.49.35 3.6-1.88 4.38-3.65.13-.3-.38-.66-.66-.67l-1.53-.09c.12-.79.8-1.27 1.58-1.27l3.29-.02c.17 0 .52.18.51.32 0 .15-.12.42-.21.57l-1.6 2.68-2.14 3.62c-.76-.01-.62-.92-.94-1.17-.2-.16-1.04.63-2.14 1.13-.83.37-1.94.51-2.74.02-.72-.45-.91-1.93-.71-2.95.51-2.61 2.56-5.71 4.44-7.64 1.59-1.64 4.16-2.84 6.26-1.93.87-.53 1.98-.45 2.07-.02.03.14-.09.4-.19.55zm11.63 10.48c-1.85 1.55-4.74 2.49-6.78 1.04-.89-.64-1.07-1.76-1-2.82.13-1.97.96-3.74 2.05-5.36l1.38-1.79.87-.84c1.61-1.54 5.14-2.69 7.08-1 .55.47.75 1.28.8 2.01.21 2.99-2.07 6.81-4.4 8.77zm10.18 1.7l-1.58.1c-.18.01-.52-.12-.64-.2-.14-.1-.27-.49-.2-.68l.77-2.15c.38-1.06.85-2 1.15-3.12.08-.3-.46-.77-.75-.77h-1.38l-2.55 4.78c-.85 1.59-1.34 2.79-3.53 2.51-.08-.21 0-.58.13-.79l2.17-3.57 1.8-2.83-1.4-.05c0-.87 1.05-1.31 2.11-1.31l.92-1.66c.43-.78.83-1.58.95-2.47l.08-.54c.02-.14.38-.27.53-.28l1.99-.04c.11 0 .43.21.41.32-.03.11-.14.28-.23.42l-1.35 2.06-1.33 2.23c.4.11.9 0 1.24-.27 1.56-1.25 2.81-2.75 4.15-4.22.95-.63 3.21-.86 3.27-.05-1.52 1.1-6.22 4.15-6.39 5.05-.13.66 1.44.58 1.04 1.77-.52 1.55-1.03 3-1.37 4.61l-.02 1.15zm9.04.7c-.74.12-1.88-.54-1.79-1.14.11-.67.51-1.32.82-1.93l1.12-2.19c-.21-.26-.64-.54-.94-.55l-2.75-.06c-1.42 1.63-2.35 3.44-3.31 5.35-.6.36-1.38.35-2.17.09.75-1.27 1.47-2.5 2.44-3.6l1.49-1.7-1.8.21c.12-1.05 1.07-1.71 2.11-1.55.53.08.93-.21 1.26-.58l1.43-1.61 2.52-2.47 1.2-.99c1.24-1.03 3.24-1.74 4.11-.55l-.97 1.98c-1.44 2.94-2.77 5.86-3.97 8.9l-.82 2.4zm17.11-13.3l-1.05.64c-2.39 1.78-4.56 3.64-6.71 5.64l-.82.88-2.03 3.45c-.39.66-.75 1.33-1.32 1.88-.4.38-2 .54-1.99.18v-.46l2.03-3.36c.46-.91.97-1.85.99-2.9l.09-3.99c.02-.78.05-1.56-.22-2.36.84-.52 2.04-.46 2.98.06l-.61 4c-.07.44-.21 1.13.08 1.46.25.28.71-.16.89-.34l1.41-1.42 1.35-1.44 1.12-1.23c.29-.32.63-.93 1.07-1.08.95-.32 2.84-.3 2.94.02.03.1-.09.31-.19.37zm12.64 11.99c-.43.56-3 .97-3.41.29l1.19-3.52.72-2.04c.03-.1-.02-.51-.12-.49l-.59.07-4.22 5.61c-.73.58-1.6.64-2.52.71-.31.02-.91.03-1.01-.37 1.14-3.59 2.32-7.07 3.24-10.72.16-.62.02-1.29.13-1.95 1.01-.49 2.65-.43 2.79.06.04.13-.01.38-.07.56l-.99 3.03-1.74 5.24c-.05.16 0 .44.1.55.1.12.61.1.72-.03 2.1-2.5 3.93-5.12 5.7-7.91.82-.33 1.7-.39 2.59-.27.14.35-.2.65-.32.95-.91 2.18-1.61 4.36-2.26 6.65-.04.16.05.49.15.6.09.11.5.11.61 0l1.67-1.95 1.21-1.63 4-5.96c.88-.64 2.7-.87 3.24-.1l-2.65 2.76c-2.57 2.68-4.86 5.51-7.11 8.46l-1.06 1.39zm6.62.59l-1.68.03c-.46 0-.93.08-1.3-.33.95-1.06 1.74-2.06 2.42-3.26l3.94-7.01c.35-.62.64-1.11.55-1.92-.03-.23.47-.54.73-.55l1.72-.02c.17 0 .58.34.48.46l-.69.92c-1.88 2.92-3.55 5.9-5.1 9.01-.93 1.86.07 2.64-1.07 2.66zm6.73-1.34c-.84 1.65-1.34 1.39-2.29 1.6-.27.06-.99 0-.89-.41.19-.77.7-1.41 1.14-2.06l5.35-9.02-.04-.37c-.03-.27-1.2.04-1.9.75l-1.28 1.29c-.37.38-.7.73-1.31.41l1.65-2.85c.27-.46.57-1.04 1.09-1.23.51-.19 1.09.28 1.55.28l4.48-.02 1.91-.35c.15.45.07.85-.16 1.24l-1.72 2.92c-.19.31-.73.49-.98.24l.22-2.09c.03-.24-.12-.62-.3-.69s-.73.04-.83.21l-3.66 6.16-2.04 4.01zm18.94-11.3l-.24.33-3.3 5.11c-1.25 1.93-2.35 3.88-3.21 6.02l-.37 1.49-1.45-.07c-1.43-.07-.3-1.67.43-3.07l1.28-2.44c.23-.44-.14-1.03-.64-1.04l-2.1-.04-.43.72-2.44 4.62c-.61 1.16-1.71 1.84-3.13 1.48l.85-1.68 2.36-3.75.86-1.33-1.51.03c.34-1.02 1.14-1.32 2.11-1.28.8-1.29 1.53-2.59 2.16-4.02.11-.26.07-.74.05-1.06.17-.21.66-.41 1-.41h1.56c.12 0 .44.22.41.33-.03.13-.16.32-.27.49l-1.74 2.76-1.11 1.85c.9.03 1.79.12 2.68-.05.69-.13 1.37-.85 1.71-1.44l1.89-3.37c1.17-.72 2.78-.41 2.59-.15z" fill="#fff"/></svg>