<svg xmlns="http://www.w3.org/2000/svg" width="250" height="80" viewBox="0 0 250 80"><path d="M0,0H21.16q0,7.29-.05,14.59l-8.45.49,0,14.29q3.94-.47,7.9-.89,0,6.94-.05,13.9c-2.63.42-5.26.87-7.88,1.33q0,8.3,0,16.58c3.08-.75,6.16-1.47,9.25-2.14q0,7.26,0,14.55Q10.84,75.7,0,79.48Z" fill="#fff"/><path d="M55.82,0Q52.41,32.58,49,66.36q-9.63,1.85-19.23,4.23Q26.3,36.19,22.76,0H36.14c1.47,19,2.5,34.88,3.1,47.82Q40.32,27.9,41.5,12.63,42,6.3,42.44,0Z" fill="#fff"/><path d="M58,0H79.12q0,6.18-.05,12.38l-8.48.2-.06,11.93c2.65-.14,5.29-.27,7.94-.38L78.41,35.9q-4,.27-7.94.57c0,4.61,0,9.23-.07,13.83,3.11-.33,6.23-.63,9.34-.91q0,6.18,0,12.36Q68.63,63,57.62,64.81,57.79,32.4,58,0Z" fill="#fff"/><path d="M83.61,0h9q9,0,12.16.85a8.54,8.54,0,0,1,5.17,4.32q2,3.47,2,11.07,0,6.95-1.43,9.36t-5.6,3c2.51.7,4.21,1.69,5.07,3A9.43,9.43,0,0,1,111.58,35a66.78,66.78,0,0,1,.3,8.79q0,7.85,0,15.69-5.94.19-11.87.54l.06-20q0-4.81-.6-5.95C99,33.38,98,33,96.2,33.1l-.09,27.18q-6.37.45-12.76,1.09Q83.49,30.68,83.61,0ZM96.27,10.31q0,6.71,0,13.41a4.94,4.94,0,0,0,3-.8c.57-.5.87-2.07.87-4.71,0-1.11,0-2.2,0-3.3,0-1.91-.27-3.15-.82-3.74A4.05,4.05,0,0,0,96.27,10.31Z" fill="#fff"/><path d="M143.9,0q-4.59,19-9.21,37.9,0,10.76,0,21.5-5.91-.13-11.84-.11,0-10.73,0-21.46Q118.41,18.93,114,0h11.65q2.75,17.36,3.1,23.37,1-9.48,3.52-23.37Z" fill="#fff"/><path d="M185.22,0q.17,31.86.34,63.73-5.56-.84-11.13-1.5-.1-21-.22-42Q172.1,41.13,170,61.72c-2.63-.29-5.28-.55-7.91-.79q-2.41-20.31-4.82-40.33.06,20,.13,39.94c-3.72-.29-7.45-.53-11.17-.72q-.08-29.91-.14-59.82h16.42q.75,5.51,1.56,13,.93,7.8,1.87,15.64,1.4-14.25,2.79-28.63Z" fill="#fff"/><path d="M212.25,0q3.8,34.38,7.56,70.49-6.45-1.59-12.93-2.95-.36-6.14-.74-12.26l-4.53-.74q-.36,5.91-.7,11.8-6.56-1.25-13.13-2.27Q190.84,32.53,193.91,0Zm-6.5,43.29q-1-11.57-2.08-28.37c-1.23,12.76-2,22-2.29,27.81Z" fill="#fff"/><path d="M250,0V79.48c-3.65-1.28-7.32-2.49-11-3.63q-3.3-18.25-6.63-35.55l.09,33.59Q227.23,72.38,222,71q-.13-35.52-.29-71h10.61q3.61,16.63,7.18,34.22L239.39,0Z" fill="#fff"/></svg>