<svg xmlns="http://www.w3.org/2000/svg" width="300" height="110" viewBox="0 0 300 110"><path d="M44 29.7V14.46l4.68 8.33a.44.44 0 0 0 .39.22h.48a.44.44 0 0 0 .39-.22l4.66-8.32V29.7a.45.45 0 0 0 .45.45h6.1a.45.45 0 0 0 .45-.45V.45a.45.45 0 0 0-.41-.45h-5.53a.45.45 0 0 0-.39.23l-5.85 10.28L43.59.23A.45.45 0 0 0 43.2 0h-5.53a.45.45 0 0 0-.45.45V29.7a.45.45 0 0 0 .45.45h5.92a.45.45 0 0 0 .41-.45zM66.3 30.15h6.1a.45.45 0 0 0 .45-.45v-11h.23a3.07 3.07 0 0 1 1.5.31 3.66 3.66 0 0 1 1.19 1.51 25.06 25.06 0 0 1 1.54 4.09l1.59 5.19a.45.45 0 0 0 .43.32h6.55a.46.46 0 0 0 .43-.59l-2-6.35a28.7 28.7 0 0 0-1.76-4.65 7.37 7.37 0 0 0-1.32-1.71 11.2 11.2 0 0 0 1.11-1.05 6.91 6.91 0 0 0 1.34-2.37 10.75 10.75 0 0 0 .63-3.91 13.05 13.05 0 0 0-.74-4.15 8.88 8.88 0 0 0-2.48-3.74A6.3 6.3 0 0 0 76.67 0H66.3a.45.45 0 0 0-.45.45V29.7a.45.45 0 0 0 .45.45zm6.55-17.49V6.51h.83a4.15 4.15 0 0 1 2.7.69 3.22 3.22 0 0 1 .76 2.49 3.13 3.13 0 0 1-.66 2.37c-.32.28-1.06.6-2.77.6zM92.94 29a6 6 0 0 0 1-3.47 6.46 6.46 0 0 0-.44-2.44 4.37 4.37 0 0 0-1.27-1.83 2.86 2.86 0 0 0-1.84-.71 3.12 3.12 0 0 0-2.6 1.5 6 6 0 0 0-1 3.48 6 6 0 0 0 1 3.47 3.12 3.12 0 0 0 2.6 1.52A3 3 0 0 0 92.94 29zM16.7 43.06a7.06 7.06 0 0 0-2.48-2.34 7.26 7.26 0 0 0-3.67-.9H.45a.45.45 0 0 0-.45.44v29.25a.45.45 0 0 0 .45.49h6.1a.45.45 0 0 0 .45-.49V59h3.55a7.36 7.36 0 0 0 3.67-.89 7.09 7.09 0 0 0 2.48-2.32 10.09 10.09 0 0 0 1.31-3 13.89 13.89 0 0 0 .4-3.28 14.4 14.4 0 0 0-.4-3.34 10.21 10.21 0 0 0-1.31-3.11zM7 46.33h.83a4.29 4.29 0 0 1 2.76.65 3.4 3.4 0 0 1 .7 2.53 4.6 4.6 0 0 1-.29 1.93 1.53 1.53 0 0 1-.93.79 7.49 7.49 0 0 1-2.19.25H7zM36.59 63.18h-8.7v-5.35h8a.45.45 0 0 0 .45-.45v-5.89a.45.45 0 0 0-.45-.45h-8v-4.46h8.45a.45.45 0 0 0 .45-.45v-5.87a.45.45 0 0 0-.45-.44h-15a.45.45 0 0 0-.45.44v29.25a.45.45 0 0 0 .45.45h15.25a.45.45 0 0 0 .45-.45v-5.88a.45.45 0 0 0-.45-.45zM54.4 40.13a.44.44 0 0 0-.43-.31h-6.74a.44.44 0 0 0-.43.31l-8.95 29.25a.47.47 0 0 0 .07.4.44.44 0 0 0 .36.18h6.25a.45.45 0 0 0 .43-.32L46.54 64h8.11l1.56 5.61a.44.44 0 0 0 .43.32h6.24a.42.42 0 0 0 .36-.18.44.44 0 0 0 .07-.4zM53 58.05h-4.77l2.4-8.56zM87.53 39.82h-6.09a.44.44 0 0 0-.44.44V55l-9.64-15a.44.44 0 0 0-.38-.2h-5.41a.45.45 0 0 0-.45.44v29.27a.45.45 0 0 0 .45.45h6a.45.45 0 0 0 .45-.45V54.75l9.66 15a.46.46 0 0 0 .38.2h5.43a.45.45 0 0 0 .45-.45V40.26a.45.45 0 0 0-.41-.44zM113.68 39.82h-6.1a.45.45 0 0 0-.45.44v13.91a16.19 16.19 0 0 1-.56 4.64 5.19 5.19 0 0 1-1.47 2.53 3.31 3.31 0 0 1-4.23 0 5.29 5.29 0 0 1-1.47-2.55 16.3 16.3 0 0 1-.55-4.65V40.26a.45.45 0 0 0-.45-.44h-6.09a.44.44 0 0 0-.44.44v16.15a17.22 17.22 0 0 0 1.68 8.13A10.54 10.54 0 0 0 97.8 69a11.24 11.24 0 0 0 5.2 1.34 11.11 11.11 0 0 0 3.84-.7 10.47 10.47 0 0 0 3.6-2.31 11.48 11.48 0 0 0 2.69-4.33 19.31 19.31 0 0 0 1-6.56V40.26a.44.44 0 0 0-.45-.44zM137.85 39.82h-20.91a.44.44 0 0 0-.44.44v7.12a.44.44 0 0 0 .44.44h7v21.69a.45.45 0 0 0 .45.45h6.08a.45.45 0 0 0 .45-.45V47.82h7a.45.45 0 0 0 .45-.44v-7.12a.45.45 0 0 0-.52-.44zM158.45 67.53a9.9 9.9 0 0 0 1.88-6.31 9.39 9.39 0 0 0-1.15-4.91 8.81 8.81 0 0 0-2.73-2.78 5.29 5.29 0 0 0 .85-.94 8 8 0 0 0 1.16-2.36 10.34 10.34 0 0 0 .46-3.11 8.75 8.75 0 0 0-.45-2.86 6.05 6.05 0 0 0-3.82-3.89 9.85 9.85 0 0 0-3.46-.55h-9.78a.45.45 0 0 0-.45.44v29.25a.45.45 0 0 0 .45.45h11.69a6.46 6.46 0 0 0 5.35-2.43zm-6.88-16.4a4.66 4.66 0 0 1-2.74.61H148v-6.11h.84a4.74 4.74 0 0 1 2.74.61 2.92 2.92 0 0 1 .78 2.44c-.04 1.26-.29 2.08-.79 2.45zm1.74 9.73c0 2.24-1.06 3.29-3.32 3.29h-2v-6.6h2c2.26 0 3.32 1.05 3.32 3.31zM183.89 63a19.3 19.3 0 0 0 1-6.56V40.26a.45.45 0 0 0-.45-.44h-6.1a.44.44 0 0 0-.44.44v13.91a16.19 16.19 0 0 1-.56 4.64 5.27 5.27 0 0 1-1.47 2.53 3.17 3.17 0 0 1-2.09.76 3.13 3.13 0 0 1-2.14-.77 5.29 5.29 0 0 1-1.47-2.55 16.31 16.31 0 0 1-.56-4.65V40.26a.44.44 0 0 0-.44-.44h-6.09a.45.45 0 0 0-.45.44v16.15a17.22 17.22 0 0 0 1.69 8.13 10.54 10.54 0 0 0 4.25 4.46 11.24 11.24 0 0 0 5.21 1.31 11 11 0 0 0 3.83-.7 10.41 10.41 0 0 0 3.61-2.31 11.46 11.46 0 0 0 2.67-4.3zM209.07 47.38v-7.12a.45.45 0 0 0-.45-.44h-20.91a.45.45 0 0 0-.45.44v7.12a.45.45 0 0 0 .45.44h7v21.69a.45.45 0 0 0 .45.45h6.09a.45.45 0 0 0 .45-.45V47.82h7a.45.45 0 0 0 .37-.44zM210.24 47.82h7v21.69a.45.45 0 0 0 .45.45h6.09a.45.45 0 0 0 .44-.45V47.82h7a.45.45 0 0 0 .45-.44v-7.12a.45.45 0 0 0-.45-.44h-20.98a.45.45 0 0 0-.45.44v7.12a.45.45 0 0 0 .45.44zM234.71 70H250a.45.45 0 0 0 .44-.45v-5.92a.45.45 0 0 0-.44-.45h-8.7v-5.35h8a.45.45 0 0 0 .45-.45v-5.89a.45.45 0 0 0-.45-.45h-8v-4.46h8.45a.45.45 0 0 0 .45-.45v-5.87a.45.45 0 0 0-.45-.44h-15a.45.45 0 0 0-.45.44v29.25a.45.45 0 0 0 .41.49zM272 63a29.67 29.67 0 0 0-1.77-4.66 7.84 7.84 0 0 0-1.31-1.71 12.27 12.27 0 0 0 1.11-1 7.37 7.37 0 0 0 1.34-2.37 11 11 0 0 0 .62-3.91 13.21 13.21 0 0 0-.73-4.15 8.87 8.87 0 0 0-2.44-3.78 6.27 6.27 0 0 0-4.41-1.59H254a.45.45 0 0 0-.45.44v29.24a.45.45 0 0 0 .45.49h6.1a.45.45 0 0 0 .45-.45v-11h.24a3 3 0 0 1 1.49.31 3.58 3.58 0 0 1 1.19 1.51 24.87 24.87 0 0 1 1.54 4.08l1.59 5.2a.46.46 0 0 0 .43.31h6.55a.44.44 0 0 0 .43-.58zm-11.42-16.7h.84a4.1 4.1 0 0 1 2.69.69 3.22 3.22 0 0 1 .77 2.49 3.14 3.14 0 0 1-.67 2.37 4.36 4.36 0 0 1-2.77.6h-.86zM280.45 40.56a3.12 3.12 0 0 0-2.45-1.15 2.85 2.85 0 0 0-1.87.72 4.69 4.69 0 0 0-1.25 1.81 6.35 6.35 0 0 0-.44 2.33c0 2.2.77 3.7 2.29 4.45v.15c0 2.71-.69 4.46-2.06 5.2a.46.46 0 0 0-.23.4v1.35a.44.44 0 0 0 .16.34.44.44 0 0 0 .29.11h.11a8.49 8.49 0 0 0 3.28-1.39 8.26 8.26 0 0 0 2.28-2.4 10.91 10.91 0 0 0 1.27-2.94 12.36 12.36 0 0 0 .4-3 12.7 12.7 0 0 0-.43-3.24 6.65 6.65 0 0 0-1.35-2.74zM299.16 56.69a9.9 9.9 0 0 0-2.3-3.06 34.39 34.39 0 0 0-3.78-2.89 8.49 8.49 0 0 1-1.73-1.45 1.84 1.84 0 0 1-.41-1.22 2 2 0 0 1 .41-1.28 1.58 1.58 0 0 1 1.3-.46 5.36 5.36 0 0 1 3 .93 16.24 16.24 0 0 1 2.69 2.24.47.47 0 0 0 .49.11.46.46 0 0 0 .28-.42v-6.86A.46.46 0 0 0 299 42a9.3 9.3 0 0 0-1.36-1 11.48 11.48 0 0 0-2.47-1.11 10.42 10.42 0 0 0-3.27-.5 7.1 7.1 0 0 0-6.9 4.49 11.35 11.35 0 0 0-.84 4.45 10.79 10.79 0 0 0 .84 4.42 9.62 9.62 0 0 0 2.15 3.13 18 18 0 0 0 3 2.27 9.93 9.93 0 0 1 2.19 1.6 2.23 2.23 0 0 1 .27 2.85c-.27.44-1 .54-1.64.54a5.55 5.55 0 0 1-2.94-.85 19.72 19.72 0 0 1-2.95-2.23.46.46 0 0 0-.48-.07.44.44 0 0 0-.26.41v7.17a.44.44 0 0 0 .21.38 15.66 15.66 0 0 0 3.23 1.61 13.14 13.14 0 0 0 2.52.66 12.85 12.85 0 0 0 1.59.12 8 8 0 0 0 4.22-1.13A7.56 7.56 0 0 0 299 66a11.17 11.17 0 0 0 1-5 9.93 9.93 0 0 0-.84-4.31zM174.35 78.94h-6.08a.45.45 0 0 0-.45.45v10.3h-8.28v-10.3a.45.45 0 0 0-.45-.45H153a.45.45 0 0 0-.45.45v29.25a.45.45 0 0 0 .45.45h6.1a.45.45 0 0 0 .45-.45v-11h8.28v11a.45.45 0 0 0 .45.45h6.08a.45.45 0 0 0 .45-.45V79.39a.45.45 0 0 0-.46-.45zM198.56 83.2a10.58 10.58 0 0 0-9-4.66 10.28 10.28 0 0 0-6.64 2.2 12.92 12.92 0 0 0-4 5.73 22.68 22.68 0 0 0 0 15 13 13 0 0 0 4 5.74 10.18 10.18 0 0 0 6.63 2.21 10.32 10.32 0 0 0 6.56-2.12 12.78 12.78 0 0 0 4-5.66 21.49 21.49 0 0 0 1.41-7.64 22.48 22.48 0 0 0-.75-5.87 15.74 15.74 0 0 0-2.21-4.93zm-12.46 5.62a4 4 0 0 1 3.49-1.82 4 4 0 0 1 2 .5 4.57 4.57 0 0 1 1.51 1.43 6.9 6.9 0 0 1 1 2.22 11.85 11.85 0 0 1 .33 2.9 11 11 0 0 1-.59 3.74 5.48 5.48 0 0 1-1.66 2.46 3.89 3.89 0 0 1-2.57.86 4 4 0 0 1-3.48-1.88 10.79 10.79 0 0 1 0-10.36zM225.93 78.94h-6.1a.46.46 0 0 0-.45.45V93.3a16.28 16.28 0 0 1-.55 4.64 5.27 5.27 0 0 1-1.47 2.53 3.17 3.17 0 0 1-2.09.76 3.13 3.13 0 0 1-2.14-.77 5.29 5.29 0 0 1-1.47-2.55 16.31 16.31 0 0 1-.56-4.65V79.39a.45.45 0 0 0-.44-.45h-6.09a.45.45 0 0 0-.45.45v16.15a17.15 17.15 0 0 0 1.69 8.12 10.43 10.43 0 0 0 4.25 4.49 11.13 11.13 0 0 0 5.21 1.32 11 11 0 0 0 3.83-.7 10.17 10.17 0 0 0 3.6-2.32 11.36 11.36 0 0 0 2.68-4.35 19.3 19.3 0 0 0 1-6.56V79.39a.45.45 0 0 0-.45-.45zM242.17 92.76a34.62 34.62 0 0 0-3.79-2.89 8.65 8.65 0 0 1-1.72-1.45 1.85 1.85 0 0 1-.42-1.22 1.93 1.93 0 0 1 .42-1.28 1.57 1.57 0 0 1 1.3-.47 5.4 5.4 0 0 1 3 .94 16.66 16.66 0 0 1 2.69 2.24.47.47 0 0 0 .49.11.46.46 0 0 0 .28-.42v-6.86a.43.43 0 0 0-.14-.32 9.08 9.08 0 0 0-1.35-1 11.71 11.71 0 0 0-2.46-1.14 10.42 10.42 0 0 0-3.27-.5 7.1 7.1 0 0 0-6.9 4.5 11.52 11.52 0 0 0-.83 4.44 11 11 0 0 0 .83 4.43 9.78 9.78 0 0 0 2.15 3.13 18.51 18.51 0 0 0 3 2.27 10.18 10.18 0 0 1 2.19 1.6 2.23 2.23 0 0 1 .27 2.85c-.28.44-1 .54-1.64.54a5.55 5.55 0 0 1-2.94-.85 19.72 19.72 0 0 1-3-2.23.44.44 0 0 0-.48-.07.45.45 0 0 0-.27.41v7.17a.44.44 0 0 0 .21.38 15.48 15.48 0 0 0 3.24 1.61 11.54 11.54 0 0 0 4.11.78 7.92 7.92 0 0 0 4.21-1.13 7.58 7.58 0 0 0 2.88-3.26 11.31 11.31 0 0 0 1-4.94 9.13 9.13 0 0 0-3.13-7.38zM264.25 102.31h-8.7V97h8a.45.45 0 0 0 .45-.45v-5.93a.45.45 0 0 0-.45-.45h-8v-4.46H264a.45.45 0 0 0 .45-.45v-5.87a.45.45 0 0 0-.45-.45h-15a.45.45 0 0 0-.45.45v29.25a.45.45 0 0 0 .45.45h15.25a.45.45 0 0 0 .45-.45v-5.88a.45.45 0 0 0-.45-.45z" fill="#fff"/></svg>