<svg xmlns="http://www.w3.org/2000/svg" viewBox="0 0 230 131"><path d="M229.54 36.16v4.4l-1.81 1.42 2.27 4.03-6.03.85-.78-1.34c-2.02 1.61-3.93 2.55-5.73 2.8s-3.34-.16-4.36-1.27c-1.02-1.11-1.53-2.56-1.53-4.33 0-1.42.3-2.57.9-3.46.6-.89 1.5-1.67 2.71-2.35-1.72-.99-2.58-2.54-2.58-4.65 0-1.81.61-3.36 1.84-4.64 1.22-1.28 2.91-2.07 5.06-2.37 1.93-.27 3.46.06 4.57.99 1.11.93 1.67 2.23 1.67 3.91 0 1.76-.68 3.42-2.03 4.97l2.3 3.83 3.55-2.78zm-8.58 6.72l-2.1-3.22c-.81.84-1.21 1.69-1.21 2.54 0 .61.13 1.05.38 1.32s.62.37 1.12.3c.52-.07 1.13-.39 1.82-.94zm-1.45-9.87c.73-1.06 1.1-2.03 1.1-2.9 0-.38-.11-.71-.32-.99-.21-.28-.52-.4-.9-.34-.35.05-.62.21-.81.47-.18.26-.27.64-.27 1.12 0 1.01.4 1.89 1.21 2.64zM32.98 82.15l-5.73 33.31-7.39 1.04 3.86-22.49-6.81 22.9-5.24.74.68-21.54-3.79 21.98-7.39 1.04L6.9 85.82l10.94-1.54c-.02 1.96-.09 4.27-.22 6.94l-.26 8.3 4.62-15.83 11-1.55zM40.52 97.27l-7.61 1.07.32-1.83c.36-2.11.88-3.77 1.55-4.99.67-1.21 1.8-2.36 3.38-3.44 1.58-1.08 3.52-1.78 5.81-2.1 2.74-.39 4.73-.18 5.95.62 1.22.8 1.85 1.9 1.88 3.31.03 1.41-.34 4.37-1.12 8.88l-2.36 13.7-7.89 1.11.42-2.43c-.66 1.05-1.43 1.87-2.3 2.46-.87.6-1.84.97-2.93 1.13-1.42.2-2.65-.03-3.69-.68s-1.33-2.35-.85-5.11l.39-2.24c.35-2.04.91-3.48 1.66-4.31.76-.83 2.46-1.91 5.12-3.25 2.85-1.44 4.4-2.36 4.65-2.76.25-.4.47-1.16.67-2.3.25-1.43.3-2.34.17-2.74-.13-.4-.44-.57-.92-.5-.55.08-.92.31-1.12.69-.2.38-.43 1.33-.69 2.86l-.49 2.86zm1.93 3.38c-1.47 1.16-2.36 2.08-2.68 2.77-.32.69-.59 1.65-.8 2.88-.24 1.41-.31 2.31-.2 2.7.11.39.43.54.97.47s.87-.28 1.08-.62c.21-.34.43-1.2.67-2.57l.97-5.62zM74.25 82.21l-3.62 21.03c-.49 2.84-.87 4.68-1.14 5.53-.27.85-.87 1.79-1.81 2.82-.94 1.03-2.14 1.89-3.61 2.58-1.47.68-3.25 1.17-5.36 1.47-2.58.36-4.58.21-5.99-.47-1.41-.68-1.92-2.33-1.52-4.96l7.87-1.11c-.21 1.21.12 1.75.97 1.63.62-.09 1.06-.33 1.32-.73.26-.4.5-1.19.7-2.37l.35-2.06c-.81.74-1.62 1.34-2.45 1.77-.83.44-1.66.72-2.5.84-1.46.21-2.61.07-3.45-.4-.84-.47-1.35-1.17-1.53-2.1-.18-.93-.11-2.3.2-4.11l1.71-9.92c.45-2.59 1.22-4.52 2.33-5.79 1.11-1.27 2.59-2.03 4.45-2.29 1.02-.14 1.91-.06 2.67.25s1.4.84 1.91 1.6l.94-2.14 7.55-1.06zm-9.38 8.39c.21-1.25.28-2.03.2-2.36-.08-.32-.36-.45-.85-.38s-.83.31-1.1.73c-.26.42-.49 1.2-.69 2.36l-1.58 9.18c-.21 1.22-.27 2-.19 2.35.08.34.36.48.83.42.54-.08.92-.34 1.16-.81.24-.46.49-1.47.75-3.02l1.46-8.46zM85.49 80.63l-4.7 27.3-8.35 1.17 4.7-27.3 8.35-1.17zm1.03-6.01l-.75 4.34-8.35 1.17.75-4.34 8.35-1.17zM97.79 73.04l-5.73 33.31-8.35 1.17 5.73-33.31 8.35-1.17zM109.05 71.46l-5.73 33.31-8.35 1.17 5.73-33.31 8.35-1.17zM119.28 75.88l-4.7 27.3-8.35 1.17 4.7-27.3 8.35-1.17zm1.04-6.01l-.75 4.34-8.35 1.17.75-4.34 8.35-1.17zM138.35 83.26l-7.65 1.08.54-3.15c.19-1.1.23-1.83.12-2.2-.11-.37-.39-.52-.86-.45s-.81.28-1.03.65c-.22.37-.43 1.14-.64 2.34l-2.22 12.88c-.17.97-.17 1.69-.02 2.14.16.45.47.65.94.58.55-.08.96-.38 1.25-.92.28-.53.54-1.51.79-2.92l.56-3.25 7.23-1.02c-.39 2.18-.75 3.83-1.07 4.94-.33 1.11-.97 2.29-1.92 3.54s-2.09 2.25-3.41 3.01c-1.32.75-2.87 1.26-4.67 1.51-2.29.32-4.03.18-5.23-.44s-1.95-1.61-2.26-2.98c-.31-1.37-.23-3.38.23-6.05l1.33-7.76c.4-2.32.93-4.1 1.58-5.34.66-1.24 1.81-2.43 3.46-3.57 1.64-1.13 3.53-1.85 5.66-2.15s3.84-.09 5.18.62c1.34.71 2.14 1.73 2.39 3.06s.16 3.28-.28 5.84zM161.11 70l-4.7 27.3-8.25 1.16.53-2.29c-.72 1-1.53 1.79-2.43 2.36-.9.58-1.89.94-2.96 1.09-1.22.17-2.19.09-2.92-.23-.73-.33-1.22-.83-1.48-1.5s-.36-1.4-.32-2.17c.04-.78.26-2.34.67-4.68l3.17-18.42 8.11-1.14-3.2 18.58c-.37 2.13-.52 3.38-.46 3.76.06.38.37.53.93.45.6-.08 1-.34 1.18-.77.18-.43.47-1.76.85-4l3.16-18.37 8.11-1.14zM183.5 60.99l-5.73 33.31-8.11 1.14.34-1.98c-.92.93-1.84 1.67-2.77 2.2-.93.53-1.86.87-2.8 1-1.26.18-2.29 0-3.1-.56-.81-.55-1.26-1.25-1.37-2.11-.11-.85.01-2.29.36-4.31l2.2-12.78c.36-2.1.75-3.61 1.16-4.52.41-.91 1.14-1.77 2.2-2.57 1.05-.8 2.23-1.29 3.52-1.47 1-.14 1.89-.08 2.67.17.77.25 1.44.7 1.99 1.35l1.33-7.74 8.11-1.14zm-10.33 14.02c.17-1 .2-1.66.1-1.98-.11-.32-.41-.44-.91-.37s-.83.27-1.05.6c-.22.33-.42 1.03-.61 2.1l-2.3 13.37c-.19 1.11-.24 1.83-.14 2.16.1.33.38.46.83.39.52-.07.9-.32 1.15-.73.24-.42.49-1.38.75-2.91l2.17-12.63zM204.87 57.99l-5.73 33.31-8.11 1.14.34-1.98c-.92.93-1.84 1.67-2.77 2.2-.93.53-1.86.87-2.8 1-1.26.18-2.29 0-3.1-.56-.81-.55-1.26-1.25-1.37-2.11-.11-.85.01-2.29.36-4.31l2.2-12.78c.36-2.1.75-3.61 1.16-4.52.41-.91 1.14-1.77 2.2-2.57 1.05-.8 2.23-1.29 3.52-1.47 1-.14 1.89-.08 2.67.17.77.25 1.44.7 1.99 1.35l1.33-7.74 8.11-1.14zm-10.33 14.02c.17-1 .2-1.66.1-1.98-.11-.32-.41-.44-.91-.37s-.83.27-1.05.6c-.22.33-.42 1.03-.61 2.1l-2.3 13.37c-.19 1.11-.24 1.83-.14 2.16.1.33.38.46.83.39.52-.07.9-.32 1.15-.73.24-.42.49-1.38.75-2.91l2.17-12.63z" fill="#fff"/><path d="M223.72 61.2s-7.99 32.7-8.44 33.88c-.44 1.17-1.02 2.17-1.72 2.99s-1.6 1.48-2.68 1.97-2.75.9-5 1.21L.09 130.18 0 125.94c1.26-.18 204.44-28.8 204.82-28.98.38-.18.62-.5.69-.95.04-.22.1-8.33.05-9.97l-.51-22.21 7.36-1.03-.51 18.06 4.47-18.62 7.34-1.03zM18.19 25.01l14.39-2.02c4.55-.64 7.93-.77 10.15-.38 2.22.39 3.86 1.57 4.93 3.54 1.06 1.98 1.18 5.38.35 10.22-.56 3.27-1.46 5.62-2.7 7.06-1.24 1.43-3.41 2.71-6.53 3.82 3.2.29 5.25 1.24 6.13 2.84.88 1.6 1.01 4.22.39 7.86l-.89 5.19c-.65 3.78-1.56 6.65-2.73 8.59-1.17 1.94-2.75 3.38-4.74 4.31-1.99.93-5.88 1.81-11.69 2.62L8.56 81.01l9.63-56zm9.14 28.72l-2.7 15.67c2.04-.35 3.4-.86 4.06-1.52.66-.65 1.18-2.11 1.57-4.37l.9-5.22c.41-2.4.41-3.82 0-4.25-.42-.44-1.69-.54-3.83-.31zm3.64-21.17l-2.14 12.45c.62-.11 1.1-.19 1.44-.24 1.42-.2 2.38-.68 2.89-1.44.51-.76 1.05-2.8 1.62-6.12.3-1.75.35-2.96.15-3.62-.2-.66-.54-1.04-1.02-1.16-.48-.11-1.46-.08-2.95.11zM83.72 47.8c-.97 5.63-1.79 9.63-2.45 12.01-.67 2.38-1.86 4.63-3.57 6.76-1.72 2.13-3.84 3.88-6.37 5.25-2.53 1.37-5.36 2.27-8.49 2.71s-5.55.3-7.75-.35-3.85-1.85-4.95-3.61c-1.1-1.76-1.59-3.77-1.47-6.04.12-2.27.68-6.28 1.67-12.05l1.65-9.58c.97-5.63 1.78-9.63 2.45-12.01.67-2.38 1.86-4.63 3.57-6.76 1.72-2.13 3.84-3.88 6.37-5.25 2.53-1.37 5.36-2.27 8.49-2.71 2.97-.42 5.55-.3 7.75.35 2.2.65 3.85 1.85 4.95 3.61 1.1 1.76 1.59 3.77 1.47 6.04-.12 2.27-.68 6.28-1.67 12.05l-1.65 9.58zM72.46 31.42c.45-2.61.59-4.25.43-4.94-.16-.69-.69-.97-1.58-.84-.75.11-1.38.48-1.88 1.13-.5.64-1 2.41-1.5 5.29l-4.5 26.15c-.56 3.25-.77 5.24-.64 5.96.13.72.68 1.02 1.64.88s1.69-.66 2.11-1.58c.43-.91.92-3.02 1.49-6.32l4.43-25.73zM126.39 9.8l-9.63 56-12.65 1.78-3.13-24.4-4.38 25.46-12.06 1.7 9.63-56 12.06-1.7 3.75 24.08 4.34-25.21 12.06-1.7zM161.18 25.03l-14.43 2.03.88-5.08c.55-3.2.76-5.19.62-5.96-.14-.77-.72-1.08-1.75-.94-.89.13-1.56.56-1.99 1.29-.44.74-.9 2.53-1.4 5.39l-4.62 26.87c-.43 2.51-.56 4.15-.37 4.9.18.75.75 1.06 1.71.92 1.05-.15 1.84-.7 2.37-1.65s1.02-2.73 1.47-5.34l1.14-6.64-2.91.41 1.46-8.51 16.9-2.37-5.17 30.06-9.07 1.27-.64-3.82c-1.28 1.87-2.74 3.34-4.39 4.41-1.65 1.08-3.49 1.76-5.52 2.04-2.42.34-4.59.07-6.5-.82-1.91-.89-3.26-2.13-4.06-3.73-.8-1.6-1.17-3.34-1.11-5.23.06-1.89.42-4.76 1.08-8.61l2.86-16.64c.92-5.35 1.87-9.27 2.86-11.78.99-2.5 3.01-4.95 6.06-7.35 3.05-2.4 6.73-3.9 11.02-4.5s7.58-.21 10.07 1.15c2.49 1.36 3.94 3.19 4.37 5.48.43 2.29.25 5.73-.54 10.32l-.42 2.42zM197.08 31.86c-.97 5.63-1.79 9.63-2.45 12.01-.67 2.38-1.86 4.63-3.57 6.76-1.72 2.13-3.84 3.88-6.37 5.25-2.53 1.37-5.36 2.27-8.49 2.71s-5.55.3-7.75-.35-3.85-1.85-4.95-3.61c-1.1-1.76-1.59-3.77-1.47-6.04.12-2.27.68-6.28 1.67-12.05l1.65-9.58c.97-5.63 1.78-9.63 2.45-12.01.67-2.38 1.86-4.63 3.57-6.76 1.72-2.13 3.84-3.88 6.37-5.25 2.53-1.37 5.36-2.27 8.49-2.71 2.97-.42 5.55-.3 7.75.35 2.2.65 3.85 1.85 4.95 3.61 1.1 1.76 1.59 3.77 1.47 6.04-.12 2.27-.68 6.28-1.67 12.05l-1.65 9.58zm-11.26-16.37c.45-2.61.59-4.25.43-4.94-.16-.69-.69-.97-1.58-.84-.75.11-1.38.48-1.88 1.13-.5.64-1 2.41-1.5 5.29l-4.5 26.15c-.56 3.25-.77 5.24-.64 5.96.13.72.68 1.02 1.64.88s1.69-.66 2.11-1.58c.43-.91.92-3.02 1.49-6.32l4.43-25.73z" fill="#fff"/></svg>