<svg xmlns="http://www.w3.org/2000/svg" width="250" height="88" viewBox="0 0 250 88"><path d="M64.49.91v10h7v28H84v-28h7v-10zm22.13 5.92h-8.14v27.48H77V6.83h-8.13V5.46h17.75zM131.54.91l-4.38 13.26L122.78.91h-8.31l-4.38 13.26L105.71.91H92.85l12.52 38h9.44l3.82-11.49 3.81 11.49h9.44l12.52-38zm-3.92 33.4h-1.43l-7.56-23.84-7.57 23.84h-1.42l-9.5-28.85h1.53l8.65 26.23 8.31-26.23 8.3 26.23 8.65-26.23h1.54zM171.57 10.67a13.16 13.16 0 0 0-4.15-2.82 13.24 13.24 0 0 0-10.19 0 13.16 13.16 0 0 0-4.15 2.82 13.33 13.33 0 0 0-2.82 4.15 12.71 12.71 0 0 0-1 5.09 12.76 12.76 0 0 0 1 5.1 13.33 13.33 0 0 0 2.82 4.15 13.5 13.5 0 0 0 4.15 2.84 13.24 13.24 0 0 0 10.19 0 13.5 13.5 0 0 0 4.15-2.82 13.33 13.33 0 0 0 2.82-4.18 12.76 12.76 0 0 0 1-5.1 12.71 12.71 0 0 0-1-5.09 13.33 13.33 0 0 0-2.82-4.14zM169.66 23a7.89 7.89 0 0 1-4.23 4.24 8 8 0 0 1-6.21 0 8 8 0 0 1-2.53-1.7A8.12 8.12 0 0 1 155 23a8.06 8.06 0 0 1 0-6.2 8 8 0 0 1 4.24-4.24 8.09 8.09 0 0 1 6.21 0 8.19 8.19 0 0 1 2.55 1.72 8 8 0 0 1 1.7 2.53 7.94 7.94 0 0 1 0 6.2z" fill="#fff"/><path d="M180.67 12.18a20 20 0 0 0-4.26-6.35 20.34 20.34 0 0 0-6.35-4.27 20 20 0 0 0-15.47 0 20.22 20.22 0 0 0-6.35 4.27 20 20 0 0 0-4.24 6.35 19.22 19.22 0 0 0-1.57 7.73 19.3 19.3 0 0 0 1.57 7.74 19.78 19.78 0 0 0 10.61 10.61 19.84 19.84 0 0 0 15.47 0 19.78 19.78 0 0 0 10.61-10.61 19.3 19.3 0 0 0 1.57-7.74 19.22 19.22 0 0 0-1.59-7.73zm-4.92 13.39a14.7 14.7 0 0 1-7.75 7.77 14.65 14.65 0 0 1-11.33 0 14.7 14.7 0 0 1-7.76-7.77 14.62 14.62 0 0 1 0-11.32 14.72 14.72 0 0 1 7.76-7.76 14.65 14.65 0 0 1 11.33 0 14.72 14.72 0 0 1 7.76 7.76 14.62 14.62 0 0 1 0 11.32zM19.2 64.57a6.35 6.35 0 0 0 0-8.47q-1.62-1.62-5.32-1.62H7.17V66.2h6.71q3.71 0 5.32-1.63zm-7.48-1.84v-5.24h1.37c1.89 0 2.84.87 2.84 2.62s-.95 2.62-2.84 2.62z" fill="#fff"/><path d="M28.65 70.52a12.35 12.35 0 0 0-1.57-2.73 9.71 9.71 0 0 0-2.27-2.05A7 7 0 0 0 26.23 64a12.33 12.33 0 0 0 1-2.13 9.4 9.4 0 0 0 .45-3.1 10 10 0 0 0-.94-4.47 8.86 8.86 0 0 0-2.61-3.18 11.77 11.77 0 0 0-4-1.94 19.77 19.77 0 0 0-5.21-.65H0v38h15.48a19 19 0 0 0 5.77-.83 12 12 0 0 0 4.38-2.39 10.39 10.39 0 0 0 2.76-3.78 12.18 12.18 0 0 0 1-5 10.29 10.29 0 0 0-.74-4.01zm-7.37 9.27Q18.9 82 13.88 82H5.69V53.11h8.19a9.66 9.66 0 0 1 6.2 1.82 6.52 6.52 0 0 1 2.28 5.41 6.33 6.33 0 0 1-.77 3.27 7 7 0 0 1-4.18 3.27 9 9 0 0 1 3.13 1.25 8.91 8.91 0 0 1 2.13 2.19 6.25 6.25 0 0 1 1 3.73 7.37 7.37 0 0 1-2.39 5.74z" fill="#fff"/><path d="M19.74 69.07a8.31 8.31 0 0 0-2.64-1.14 14.11 14.11 0 0 0-3.27-.37H7.17v13h6.66a10.8 10.8 0 0 0 6.06-1.53 5.6 5.6 0 0 0 2.3-5 6.37 6.37 0 0 0-.65-3 5.49 5.49 0 0 0-1.8-1.96zm-6.65 8.51h-1.37V71h1.37q4.32 0 4.32 3.3t-4.32 3.28zM51.86 56.75c-2-1.52-4.66-2.27-8.11-2.27h-4.66v17.46h4.66c3.45 0 6.16-.75 8.11-2.24a7.66 7.66 0 0 0 2.93-6.46 7.75 7.75 0 0 0-2.93-6.49zm-3.53 9.5a6.61 6.61 0 0 1-3.67 1H44V58.8h.62a6.61 6.61 0 0 1 3.67 1 3.53 3.53 0 0 1 1.55 3.2 3.53 3.53 0 0 1-1.51 3.25z" fill="#fff"/><path d="M56.84 74a12.35 12.35 0 0 0 2.56-2.5 14.86 14.86 0 0 0 1.76-3.3 13.07 13.07 0 0 0 .8-4.84A15 15 0 0 0 60.68 57a13 13 0 0 0-3.56-4.64 15.59 15.59 0 0 0-5.37-2.84 22.43 22.43 0 0 0-6.75-1H31.92v38H44v-9.63l5.69 9.62H64zm-1.59 8h-1.77l-5.4-9.11a20.08 20.08 0 0 1-4.33.46h-4.66V82h-1.48V53.11h6.14a18.12 18.12 0 0 1 5 .65 12 12 0 0 1 4 1.94 9.07 9.07 0 0 1 2.64 3.16 9.37 9.37 0 0 1 1 4.38 9 9 0 0 1-1.82 5.83 10.69 10.69 0 0 1-4.89 3.33zM93.11 58.32A13.16 13.16 0 0 0 89 55.5a13.24 13.24 0 0 0-10.19 0 13.16 13.16 0 0 0-4.15 2.82 13.33 13.33 0 0 0-2.82 4.15 13.21 13.21 0 0 0 0 10.18 13.29 13.29 0 0 0 7 7 13.12 13.12 0 0 0 10.19 0 13.29 13.29 0 0 0 7-7 13.21 13.21 0 0 0 0-10.18 13.33 13.33 0 0 0-2.92-4.15zM91.2 70.66a7.88 7.88 0 0 1-1.7 2.53A8 8 0 0 1 87 74.9a8 8 0 0 1-6.21 0 8 8 0 0 1-2.53-1.71 7.88 7.88 0 0 1-1.7-2.53 7.94 7.94 0 0 1 0-6.2 7.88 7.88 0 0 1 1.7-2.53 8.19 8.19 0 0 1 2.53-1.71 8.09 8.09 0 0 1 6.21 0 8.19 8.19 0 0 1 2.53 1.71 7.88 7.88 0 0 1 1.7 2.53 7.94 7.94 0 0 1 0 6.2z" fill="#fff"/><path d="M102.21 59.82A20.1 20.1 0 0 0 98 53.48a20.34 20.34 0 0 0-6.35-4.27 20 20 0 0 0-15.47 0 19.87 19.87 0 0 0-10.66 10.61 19.86 19.86 0 0 0 0 15.48 19.87 19.87 0 0 0 10.61 10.61 19.84 19.84 0 0 0 15.47 0 19.87 19.87 0 0 0 10.61-10.61 19.86 19.86 0 0 0 0-15.48zm-4.92 13.4A14.7 14.7 0 0 1 89.53 81a14.65 14.65 0 0 1-11.33 0 14.7 14.7 0 0 1-7.76-7.77 14.62 14.62 0 0 1 0-11.32 14.7 14.7 0 0 1 7.76-7.77 14.77 14.77 0 0 1 11.33 0 14.7 14.7 0 0 1 7.76 7.77 14.62 14.62 0 0 1 0 11.32zM103.21 48.56v10h7v28h12.51v-28h7v-10zm22.13 5.92h-8.13V82h-1.48V54.48h-8.14v-1.37h17.75zM150.6 48.56v12.91h-6.77V48.56h-12.12v38h12.12V72.45h6.77v14.06h12.18V48.56zM157.09 82h-1.48V67.56h-16.73V82h-1.48V53.11h1.48V66.2h16.73V53.11h1.48zM178.88 76.55v-4.38H189v-9.44h-10.12v-4.21h10.24v-10h-22.36v38h22.76v-10zm6.43 5.45h-12.86V53.11h12.86v1.37h-11.38v12.29h10.81v1.36h-10.81v12.46h11.38zM217.85 74a12.11 12.11 0 0 0 2.56-2.5 14.45 14.45 0 0 0 1.77-3.3 13.08 13.08 0 0 0 .79-4.84 14.8 14.8 0 0 0-1.28-6.36 12.94 12.94 0 0 0-3.55-4.64 15.63 15.63 0 0 0-5.38-2.84 22.36 22.36 0 0 0-6.74-1h-13.09v38h12.12v-9.63l5.69 9.62H225zm-1.59 8h-1.76l-5.41-9.11a19.92 19.92 0 0 1-4.32.46h-4.67V82h-1.48V53.11h6.15a18.12 18.12 0 0 1 4.95.65 12 12 0 0 1 3.95 1.94 9.21 9.21 0 0 1 2.65 3.16 9.49 9.49 0 0 1 1 4.38 8.94 8.94 0 0 1-1.83 5.83 10.64 10.64 0 0 1-4.89 3.33z" fill="#fff"/><path d="M212.88 56.75c-2-1.52-4.66-2.27-8.11-2.27h-4.67v17.46h4.67q5.17 0 8.11-2.24a7.66 7.66 0 0 0 2.93-6.46 7.75 7.75 0 0 0-2.93-6.49zm-3.53 9.5a6.63 6.63 0 0 1-3.67 1h-.63V58.8h.63a6.63 6.63 0 0 1 3.67 1 3.55 3.55 0 0 1 1.51 3.2 3.55 3.55 0 0 1-1.51 3.25zM249.23 71.15a15.75 15.75 0 0 0-1.88-3.47 17 17 0 0 0-2.44-2.74c-.89-.79-1.71-1.49-2.45-2.1s-1.36-1.14-1.88-1.59-.76-.84-.76-1.14a1 1 0 0 1 .34-.8 2 2 0 0 1 .79-.4 6 6 0 0 1 1-.14h.85a11.47 11.47 0 0 1 1.2.06l1 .11 1 .12V48.39l-2.45-.34-2.45-.26c-.91-.09-1.82-.14-2.73-.14a16.77 16.77 0 0 0-4.92.71 12 12 0 0 0-4 2.08 9.36 9.36 0 0 0-2.67 3.41 10.88 10.88 0 0 0-1 4.72 10.45 10.45 0 0 0 .8 4.24 13.65 13.65 0 0 0 2 3.33 18.47 18.47 0 0 0 2.61 2.62c.93.76 1.8 1.45 2.62 2.07a24.22 24.22 0 0 1 2 1.71 2.18 2.18 0 0 1 .8 1.51c0 1.29-.88 1.93-2.62 1.93a23.76 23.76 0 0 1-2.93-.17 20 20 0 0 1-2.59-.45 18.22 18.22 0 0 1-2.62-.63v11.38a26.65 26.65 0 0 0 3 .68c1 .19 2 .35 3.27.49a38.27 38.27 0 0 0 4 .2 18.51 18.51 0 0 0 6.2-.94 11.88 11.88 0 0 0 4.3-2.56 10 10 0 0 0 2.47-3.82 13.63 13.63 0 0 0 .8-4.69 11.66 11.66 0 0 0-.66-4.32zm-5.63 7.19a6.23 6.23 0 0 1-1.91 2.19 7.74 7.74 0 0 1-2.7 1.23 13.28 13.28 0 0 1-3.1.37 17.58 17.58 0 0 1-1.79-.13c-.59-.05-1.15-.12-1.68-.2s-1.18-.17-1.71-.28v-1.44c.53.11 1.08.21 1.65.28a20.08 20.08 0 0 0 3.53.29 8.21 8.21 0 0 0 5.11-1.42 4.94 4.94 0 0 0 1.85-4.16 5.42 5.42 0 0 0-.82-2.84 14.1 14.1 0 0 0-2.11-2.65c-.85-.85-1.76-1.7-2.73-2.53a37.45 37.45 0 0 1-2.73-2.59 15.19 15.19 0 0 1-2.11-2.73 5.75 5.75 0 0 1-.82-3 4.94 4.94 0 0 1 2-4.35 8.63 8.63 0 0 1 5.03-1.38h1c.32 0 .62 0 .88.09a6.55 6.55 0 0 0 .86.06v1.48a7.11 7.11 0 0 1-.92-.06q-.45-.06-.93-.09h-.94a6.45 6.45 0 0 0-4.21 1.11 3.87 3.87 0 0 0-1.3 3.15 4.85 4.85 0 0 0 .82 2.65 15.86 15.86 0 0 0 2.1 2.61c.85.85 1.76 1.7 2.73 2.53a35.75 35.75 0 0 1 2.73 2.62 14.81 14.81 0 0 1 2.11 2.84 6.45 6.45 0 0 1 .82 3.13 6.93 6.93 0 0 1-.71 3.22z" fill="#fff"/></svg>