<svg xmlns="http://www.w3.org/2000/svg" width="260" height="135" viewBox="0 0 260 135"><path d="M9.5,60.12l-.84.8c-1-1.47-.33-3.27-.78-4.92l-.72,3.88-.65-.08c.26-4.19.52-8.39.78-12.66.75-.51,1.18-1,.06-1.79-.32-.22-.16-1.15-.18-1.76,0-.12.26-.3.23-.36-.91-1.59,1-3.24-.12-4.87C6.8,37,7.12,35.16,7,33.67c0-.77-.43-1.65,1-1.91-2-1.55-1-3.67-1.63-5.39C6,25,7.6,25.75,8.46,25.62,5.64,23.49,5.33,20.07,5,16.83c-.15-.82.1-1.13.91-1.3,2.85-.78,5.93-1.08,8.63-2.29-4.16,0-8.32-.05-12.48.09C.19,13.46.91,10.39.49,9.18.31,7.33.32,7.33,2.19,6.91L.72,6.57C.29,4.42-.51,2.72.45.6,2.75.75,5,.89,7.3,1.08c.79.54.42,1.62.49,2.61,1.75-1.42,3.27-2.64,5.64-2.24,1.62.55,6-.91,5.37,1.92l.93-.54.88,1.49.28-2.59A6.43,6.43,0,0,1,22.63,5l.86-2.34L24.29,4a4.61,4.61,0,0,0,.45-.67c.45-1.58,2.75-1.86,3.08-.14.25.9-.29,2.27.34,2.93.36-1.66.82-5.49,3.2-3.59,2,2,4,4.07,5.94,6.18.25.27,0,1,0,1.66a12.35,12.35,0,0,1,5.09,3.55c1.62,1,1,2.91-.15,3.92-.3,2.58.34,3.81-2.35,4.89-1,2.3-3.29,3.45-4.83,5.26-2.21,2.26-2.58,3.29-6.06,2.38,5.59,3.23,11.54,5.14,16.75,9-.31-1.54.45-2.69-.18-4.07-1.05-2.11-2.05-4.86-1.42-7.22,2.29-6.45,6.12-12.36,7.82-19,.26-1.46,1-5.27,2.2-6,.81,0,.53.71.54,1.2A1.38,1.38,0,0,0,55,5.2L55.65,4l.2,0-.5,2.83.22.09L56.79,4l.41.07.16,3.16c1.36-1,3.11-3.84,4-1.17.83,2.44,1.33-.07,2.78,0a22.57,22.57,0,0,1,2.44.71l-1.46-5c1.73.44,3.23.76,4.67,1.26.61.44.6,1.83,1.15,2.51v-2c1.19.13,1.58,1.47,2.67.53,1.82-.56,4.19.71,6.07,1,.87.36,1.34,1.54,1.79,2.32.75,1.89,1.43,3.81,2,5.75.35.93-.34,2.54.63,3.18,1.85.66.73,2.85,2,4.1a9.51,9.51,0,0,1,.71,2.44,34.92,34.92,0,0,1,2.33,4.71c.71-1.35,1.42-2.58,2-3.87,0-1.56-1.76-2.94-.29-4.56A1.85,1.85,0,0,0,91,17.51c-.74-1.27-.07-2.5-.1-3.73.21-1.13-.26-5.46,1.41-5.14,1.08.08,2.27-.48,3.15.52,1.9-1.07,3.08.14,4.23,1.33,1-1.65,1.62-2.64,2.62-1.37,1.47-1.14,2.26-1,2.51.6l1.6-1.43.31.21c-1,5.66-1.68,11.63-3.7,17,.6,3.67-1.78,6.94-1.13,10.64A35.76,35.76,0,0,0,104,44.88c.32.81,3.06,2.62,3.91,2.54a2.35,2.35,0,0,0,.91-.39c7.09-3.73,4.68-5.76,9.31,1-1.52-11.74-2-23-3.39-34.65-.25-2.52-.37-2,1.73-2.71,1.33-.45,2.69-.79,4.12-1.21l.19,1.44c1.19-.4,1.14.54,1.36,1.3.32-1-.39-2.26,1-3l.6,1.42h.14c0-.85-.28-1.79.5-2.38.91.73.64,2,1.24,3,0-1.28-.3-2.62.64-3.68.95.86.81,2,1.41,3.08V7.57l.48,0a33.3,33.3,0,0,1-.37,3.75,2.67,2.67,0,0,0,.14,2.46,4.54,4.54,0,0,1,0,4.51,2.19,2.19,0,0,0,0,2.8c.58,1.37.06,3.46.28,5,.42,1.83.69,4.13-.29,5.8.16.25.62.64.65,1.05q.45,5.85.76,11.7c-.25,4.32,1,8.52,1.11,12.84.11.89-.18,1.28-1.05,1.49-1.68.41-3.33.94-5,1.39s-1.76.48-2.33-1.09c0,0-.16.07-.15.09.33,2.62-2.5,2-4.33,2.81v-7c-3.39,1.66-6.25,3.54-9.54,5.29a2.79,2.79,0,0,1-1.33.06c-.16,0-.37-.29-.48-.24-1.76.74-2.5-.93-3.6-1.6a1.93,1.93,0,0,0-2.32-.15c-1.45.86-4.25-.12-5-1.69A65.48,65.48,0,0,1,92.19,49c-.5-.71-.92-1.37-.42-2l-1.43-2.5h1.79a9.84,9.84,0,0,1-3.2-6.63l-.3-.09a34.7,34.7,0,0,1-3.08,5.52c-.41,1.09-.44,2.54-1.12,3.46-1.68.49-1,2-1.38,3-1.62,3.3-2.77,9.26-7.71,7.76.48,1.34-.57,1.66-1.42,2.12-3.07,1.66-6.16,3.3-9.23,5a1.3,1.3,0,0,1-1.64-.09c-1.22-1.14-2.82-1.76-3.5-3.39-3.67-.3-2.29-4-4.39-3.36-2.09-.49-3.92-2.79-5.73-4a2.33,2.33,0,0,1-.74-1.2c-.94-4-1.07-8.06-2.6-11.87l-1.44,3.82a13.45,13.45,0,0,1,.14,2.79c-.38,1.16.26,2.71-1.11,3.45-2,1-4.46,1.37-6.37,2.58-1.46,1.07-1.57.23-2.54-.72-.8,1.63-.27,2.07-2.29,2.93-4.11,1.94-7.95,4-12.06,6l-1.08-6.38H19c-.17,2-.28,3.9-.4,5.86,0,.54.07,1.25-.85,1.09-2.44.07-1.76-1.05-2-3-.25.81-.62,2.32-1.53,2.47a2,2,0,0,1-1.41-1.92C11.5,60.77,12.53,62.52,9.5,60.12ZM77.83,35.37c-1.42.46-1.76-.31-2.12-1.38-2.76-7.77-5.1-15.6-8.16-23.26C64.89,17,62.44,23.18,59.89,29.48c-.68,1.68-1.54,3.07-3.54,3.28-.05,0-.09.08-.23.25,1.39.05,4.14-1.55,4.26.58,0,1.81.64,3.67.47,5.46-1,2,.87,2.81.32,4.24-.79.69-.31,1.15.06,1.72.91,3.21,4.35,4.2,6.72,6.14.82.59,1.32.5,1.76-.38,1.53-3.09,3-6.21,4.63-9.26C75.43,39.46,75.25,36.68,77.83,35.37ZM18.71,25.55c3-1.91,5.35-4.86,8.08-7.17a.86.86,0,0,0,.05-.85c-1.94-2.17-3.57-4.84-7.19-4.26-.8.13-1.21.13-1.17,1.1C18.62,18.13,18.48,21.77,18.71,25.55Zm.68,23.8,9.4-5.08-9.4-5.05Z" fill="#fff"/><path d="M101.53,111.39c.2-4.78,1.53-9.51,1.67-14.25.2-3.39,1.25-6.65,1.45-9.94a5.44,5.44,0,0,0-.05-2.86c.15-2,.4-3.89.57-5.83.06-.7.38-.89,1-.87,1.52.18,3.26-.61,4.21,1l.48-.93.39,0,.42,3.94H112c.52-1.37-.38-4.4,1.9-4a2.73,2.73,0,0,0,.78-.16c-2.24-7-1.34-4.57,4.77-5.71,3.81.54,1.92-.66,5.08-.63,1.39-.09.23,1.3,3.37.45C129,76,129.15,80.43,130,84.83c1.08,2,.33,4.23,1.46,6.18.57,3.14,1.13,6.28,1.66,9.43a13.84,13.84,0,0,0,.84,5.62q2.39,12.38,4.75,24.75c.27,1.42.21,1.49-1.24,1.68-1.1.19-2,.62-3.07,0l-.55,1-1.3-3.36-.26,0c.72,5.86-1.35,2.7-4.57,4.35-2.16,1-2.16,1-2.59-1.33-.4-2.48-1-5.08-1.33-7.53,1-1,0-1.6-.3-2.42a18.45,18.45,0,0,1-.72-3.41c-.27-1.44-.26-1.44-1.64-1.18l-6.21,1.17c-1,.17-1.91.38-2.38-.94.78,3.69-.16,7.23-.47,10.8-.13,1.55-.42,1.74-2.33,1.73a1.92,1.92,0,0,1-1.87-1.81.43.43,0,0,0-.27-.34c0,.8,0,2.12-.79,2.47-2.78.19-5.64,1-8.37.68.35-2.68,1.15-5.44,1.4-8.06-.39-1.76,1.2-1.11,1.62-2.13-1.26.23-2.51.46-3.76.67-1.4.24-1.4.23-1.44-1.24.29-1.37-1-4,1.09-4.23a1.41,1.41,0,0,0,.58-.29c-2.68.74-1.38-1.53-2.1-2.63-.63,2.54-.37,4.7-1.49,7,1.29,2.38-.56,4.17-3,4.31-.24,0-.63-.55-.92-.83-.73,1.12-1.46-.53-2.4-.18l-.47,1.91-.27.06-.9-2.11c-.74,2-.24,2.33-2.51,3.09-1,.16-2.15,1.15-2.42-.68.08,1.27-.58,1.59-1.57,1.83-2,.5-4,1.19-6,1.77-1.73.69-3.58,0-5.13,1.26-.51.53-1.62.47-2.45.73s-1-.1-1-.75c-.13-3.24-1.28-6.54-.71-9.73-.91-1.09-.88-1.18.52-1.55L71.05,119v-.37c-7-.91-5.39-.51-5.35-8,.48-1.36-.54-4.25.24-4.7,1.46-.74-.55-1.5-.43-2.53a46.15,46.15,0,0,1,.26-11c-1-3-.55-6-.52-9-.27-3.23-.73-6.46-.8-9.71-.17-1.71,2.05-1.08,3.09-1.51,1.4-.3.87.89,1.11,1.94,2.28-2,4.67-5.23,7.48-2.13.43-2.13,1.15-2.64,3.37-2.9a4.45,4.45,0,0,1-.16,5.12c-.61.87-.88,1.68.09,2.55.6.82.45,4.94-.27,5.85-.18,6.06-.07,12.26-.32,18.36a8.07,8.07,0,0,1-2.25,3.73l2.11-.45v13.39c5-2.76,10.81-3.71,16.2-5.47A44.09,44.09,0,0,1,101.53,111.39Zm12.58-2.3c5.2-.52,4.81-2.56,6.91,2.91l.33-.11Q119,98.51,116.74,85.12l-.25,0C115.71,93.05,114.92,100.94,114.11,109.09Z" fill="#fff"/><path d="M141.88,75.63c1.29,4.63,3.92-3.53,5.17-.18a4.72,4.72,0,0,0,.81,1.82l.19-2.19.22,0,.34,2.91.28,0c.34-1.47-.29-3.31,1.2-4.21,1.36,1.23,1.28,8.16,1.82,10.47,1.09,7,1.28,14.41,2.83,21.26.75-3.81.52-7.92,1.66-11.59,1.29-5.52,1.44-11,2-16.62.2-2,1.53-2.6,3.27-1.49a1,1,0,0,0,.79,0,7,7,0,0,1,7.12.14c.68-1.26.68-1.26,1.7-.86a7.41,7.41,0,0,1,1.67-.61c2.93-.24,2.93-.22,3.1,2.67.65,9.37.93,19,1.83,28.34,1.47-10.66,3-21.77,4.54-32.87l.31-.08L184,74.41c.47-1.32.5-2.24,1.42-3.12,1.05.76.87,1.84,1.56,2.95.48-1,.2-3.11,1.77-2.82.71.08.84.51.84,1.1V76.8l1-4.72h.26c.21,1.1.43,2.19.7,3.56.31-1.5.57-2.75.82-4l.55.07v4.86l1.8-3.94.21,0v3.9l.32,0c.35-1.58.7-3.16,1-4.76.22.08.28.08.28.1.38,2.28,1.12,4.52-.28,6.82a12,12,0,0,0-1,3.76c-1.14,5.25-2.24,10.51-3.41,15.76-.6,1.33-2.5.87-3.69,1.08l-.11.3c3,3,3.88,1.57,1.69,5.46-1.28,2,.61,1.27.47,2.84-.69,6.17-1.88,12.24-2.47,18.37-.22.88-.5,1.3-1.42,1.33-2.3.18-4.59.58-6.69-.64-.51,1.63-2.2,1.14-3.53,1.25-.52-.89-.09-2.2-.13-3.37a35.62,35.62,0,0,0-5.28,1.12c-.88.25-1.14-.07-1.21-.9-.94-9.28-1.65-18.59-2.8-27.85h-.29c-1.24,7.89-2.06,15.93-3.58,23.7.17,1.41,1,9.75-1,9.46-2.77.2-5.34,1.23-8,1.88-.46.11-1-.18-1.5-.23a1.85,1.85,0,0,0-.64.19v-4.36c-2.18.25-4.1,1.84-6.29,1.77a3.21,3.21,0,0,1,1.1-1.33c-.57-.52-1.29-.91-1.59-1.5-.57-1.14.86-1,1.35-1.73-2,0-2-1.32-2-2.77-.24-2.26-1.62-2.79.86-4.4-2.71-.61-1.32-2-2-4-1.4-2-.2-2.46,1.36-3.65-.8-.67-2.35,0-2.51-1.36a13.91,13.91,0,0,1,.23-2.86l.37,0c-1.32-1.48-1.83-2.36-1-4.33-1.85.14-1.22-4.95-1.9-6.39a25.83,25.83,0,0,0-.76-3c-.16-.8.57-1.71-.31-2.49a36.88,36.88,0,0,0,1.06-4.37l-1.62,1.09c-1.14-2.68-1.33-6.06-2.1-9C136.08,76.32,140.68,76.13,141.88,75.63Z" fill="#fff"/><path d="M232.72,40.54c-1.35-.22-4.89,1.11-5.14-.69-.92-3.61-1.9-7.19-2.9-10.78-.37-1.34-.15-2,1.15-2.9-1.68-2-3.78-3.66-4.31-6.43-.48-2.52-2.23-4.69-2.22-7L216.69,7.4c-.12,1.76-1.91,2.57-.43,3.22,0,.68.08,1.74.07,2.49-.16,1.79-.18,1.75-2,1.87-2,.1-3.72.68-5.79.07-.44,1.3-5.65.82-7.21,1.2-.56,2,.53,4.33-.75,6.08,1,3.11,0,6.13,0,9.24.57,3.67,0,7.49,0,11.21a4.7,4.7,0,0,1-.4,1.28c.94,4.61.38,9.41.74,14.11,0,.58-.08.91-.7,1-4.22,1-5.45,2.09-7.51-2.54l-.34.08c0,1.18.46,2.81-.16,3.83-1.52,1-3.3,1.13-5,1.54l-.15-.43,2.49-1c-.6-1-2.35-.33-2.42-2-.05-1.28.5-2,1.95-2.64-2.82-.63-1.79-3.26,0-4.32-2.58-.47-1.23-2.28-1.39-3.53-.05-.37.83-.82.84-1.26s-.74-.9-.74-1.35c0-1.8-.15-3.67,1-5.22-1.22-1.14-1.22-1.14.72-1.95a1.59,1.59,0,0,1-.75-2.14c-1.13-.82-.58-2-.6-3-.08-4.34-.07-8.67-.15-13-.19-1.9,2-1.75,3.24-2.46l-.07-.3c-1.87-.18-4.83,1.63-5.64-.86-.06-.19-.26-.35-.62-.81-.2,1-.06,2-.84,2.44-2,.27-3.91.47-5.81.68-1.13-2.11-.62-4.13-.45-6.34,0-.81-.83-2-.52-2.36,1.07-1.19-.66-2-.57-4.93l.81.31c1.13-1.4,2.34-1.38,3.7.06,1.29-1.54,2-1.58,3-.19.81-1.08,3.39-1.47,4.7-.91.47.21,1.18-.14,1.92-.27l.88,1.28c.2-2.94,3.2-1.65,5-2.14s1.79.8,2.75,2.05A3.43,3.43,0,0,1,201,3.2,3.46,3.46,0,0,1,201.7,5c.91-.17,1.12-1.81,2.32-1,.76-1.45,2.28-1.54,4.23-.22.5-2.08,3.18-.86,4.91-1.17.7-.75,1.87-.52,3-.38,1.59.41-.28,2.37,1.73,3.2.84-1.69.91-1.71,1.91-.25-.56-2.65,1.48-1.06,2.29.17.62-1.6,1.31-2.95,3.18-3.09l1.48,2.07c.55-.58,1-1.05,1.48-1.55L229,4.2l.19,0c-.16-.79-.31-1.59-.49-2.51,1.19.26,2,.56,2.25,1.82,1,4.7,2.55,9.27,3,14.09,1.83,3.6,2.64,7.74,3.77,11.65a1.52,1.52,0,0,0,.63.87c1.84-6.52,2.28-13.64,5-19.8-.06-2.06.11-4.64,1.24-6.33.29-.07.67.24,1.14.44,1.17-.62,4.25-.4,5.32.52l1.3-.5c.13,1,.25,1.82.41,3L255,4.73l.61.8.82-.63,1.15,3.17c.63-1.09.85-2.62,2.27-3,.05.37.26.8.14,1.1-1.58,3.44-2.54,7.32-4.71,10.42-2,5.25-3.79,10.54-6.16,15.63-.32.72-1.44,1.35-1.36,1.9a4.7,4.7,0,0,1-.61,3c-.73,3.72-4.26,1.3-4.15,4.07,0,5.79-.1,11.58-.15,17.37.31,3.32-5,1.48-7.22,2.14L234.88,59c-.52,1-.93,1.76-1.45,2.73l-.49-1.27c-.63,2.67-1.74.51-2.77-.73-.27.73-.46,1.23-.64,1.74l-.2,0c.49-5.92,1.06-11.83,1.61-17.75.12-1.26-.16-2.8,2.1-2.74Z" fill="#fff"/><path d="M168.18,3.37c2.35-1.58,2.43-2.65,5.28-2.9.74.26.71,1.49,1.16,2.14L175,1.19h.13L175.27,4c.79-1.23.37-2.79,1.18-4l.36.06c-.66,7.92-1.61,15.87-2.45,23.78-.21,3.44-.42,6.58-3,9.31l2.13-.48c-.7.71-1,1.26-.14,1.76a.6.6,0,0,1,.17.5,36.71,36.71,0,0,0-.42,8.63q-.09,6-.21,11.95c.05,2.37-2.23,2.84-4.2,2.3.07.74-.57,1-1.44,1.27-2.35.57-4.55,1.35-6.91,1.87a11.51,11.51,0,0,1,.06-3c0-1.51,0-1.52-1.48-1.15-1.24.3-2.5.55-3.72.94-1,.35-1.36-.06-1.56-1-2.47-10.75-4-22-7.06-32.51.2,11.2.88,22.4,1.36,33.59.08,1.53-.89,2.31-1.39,3.62l-1.34-1.86-2.43,2-1.35-1.77c-1.47,2.46-1.63,2.48-3.08.39.05,1.72-3,3.08-3.22.89,0-4,.08-8,.11-11.94.28-1.58-.81-5.43.48-6.28s-.77-2.31-.6-3.47c-.09-1.5,0-3,0-4.52,0-.7-.17-1.49,1.09-1.63-1.58-1-1.29-2.68-.59-3.93.17-.4.54-.88.43-1.2-1.89-6.26-1.26-12.82-1.71-19.25-.09-1.57,1.23-1.51,2.19-1,.54.38.92.44,1.37.07,1-.77,1-.78,1.51.74,0-1,.19-1.31,1.16-1.19A16,16,0,0,0,144.3,7c1.18-.26.9,1,.93,1.8h1.36c.6-1.74,1.22-2.14,3.17-2.17a41.94,41.94,0,0,0,4.48-.29c1.18-.16,1.49.4,1.66,1.41,1.68,9.72,3.16,19.52,5.51,29.1h.32c0-5.71-.11-11.44.21-17.14.1-1.53.51-3,0-4.53-.17-.51.35-1.21.47-1.84,1-2.69-.65-1.77-.1-4.24,0-.38.3-.86.16-1.13-.92-1.8-.34-3.7-.42-5.54,0-.2.49-.55.79-.6,1.43-.23,2.87-.4,4.31-.53C168,1.62,167.85,2.33,168.18,3.37Z" fill="#fff"/></svg>