<svg xmlns="http://www.w3.org/2000/svg" width="300" height="88" viewBox="0 0 300 88"><path d="M39 39.42q-4.19 0-4.19-5.55a13.73 13.73 0 0 1 3.28-8.62c2.19-2.76 4.45-4.14 6.8-4.14q4.24 0 4.25 5.55a13.67 13.67 0 0 1-3.28 8.62C43.7 38 41.42 39.42 39 39.42zm2.26-2.09A4.16 4.16 0 0 0 44.87 35a11.22 11.22 0 0 0 1.45-6q0-5.82-3.62-5.82a4.16 4.16 0 0 0-3.56 2.4 11.21 11.21 0 0 0-1.45 5.93c0 3.89 1.2 5.82 3.6 5.82zM50.07 38.41l2.58-2.1a4.81 4.81 0 0 0 3.65 1.55c1.8 0 2.69-.87 2.69-2.59q0-1.44-2.46-4l-1.07-1.1c-1.56-1.63-2.34-2.94-2.34-3.95A4.46 4.46 0 0 1 55 22.58a7.23 7.23 0 0 1 4.61-1.47 10.68 10.68 0 0 1 3.26.56l-2.24 2.06a5.16 5.16 0 0 0-3.15-1.06c-1.35 0-2 .57-2 1.7 0 .8.75 2 2.26 3.56l1.15 1.23c1.72 1.78 2.57 3.22 2.57 4.32a5.23 5.23 0 0 1-2.25 4.14 8.1 8.1 0 0 1-5.2 1.8 8 8 0 0 1-3.94-1.01z" fill="#fff"/><path d="M103.29 40.6a14.14 14.14 0 0 1-1.29-3.46 59.08 59.08 0 0 1-1.63-13.57l-.13-3.68v-1.67c0-7.93-.25-14 .91-15.81 0 0-2.8-.31-5.75-.32-7.87 0-13.83 1.27-17.67 4Q70.86 11 70.85 18.91a18.36 18.36 0 0 0 1.32 6.63l5-4.84a12.64 12.64 0 0 1-1.54-6.12Q75.66 5 89.85 5c3.72 0 4.37.92 4.37.92A20.36 20.36 0 0 0 87 12q-2.66 3.66-5.6 11.7l-1 2.66c-2 5.54-3.27 8-6.12 11.58-2.43 3.05-9 11.64-16.71 2.74l-3 2.85s8.69 10 19.05-.52a47.72 47.72 0 0 0 8.72-11.51h13.33a68.19 68.19 0 0 0 3 15.28l7.88-3.43 1.51-.73c.83-.39 1.25-.85 1.25-1.38.04-.24-4.43 2.36-6.02-.64zM83.65 28l.74-1.82c.13-.35.57-1.66 1.34-3.94q4-11.83 10.32-15.67a41.16 41.16 0 0 0-.7 5.82l-.26 3.71c0 .75-.07 1.7-.07 2.88q0 3.45.45 9z" fill="#fff"/><path d="M118.49 38.28l-2.77 1.14.06-.52.15-1.38.13-1.3.94-8.37.13-1a14.49 14.49 0 0 0 .07-1.45c0-1.21-.36-1.81-1.1-1.81q-1.71 0-4 3.5a15.39 15.39 0 0 0-2.64 6.67l-.46 4.52-2.78 1.14.05-.52.15-1.38.15-1.3 1-8.65.12-1c.08-.77.13-1.39.13-1.86 0-.79-.2-1.19-.6-1.19-.93 0-1.94 1-3 3.17-.28-.24-.42-.44-.42-.62 0-.74.68-1.76 2-3s2.44-1.93 3.23-1.93c1.07 0 1.61.68 1.61 2.05a12.11 12.11 0 0 1-.1 1.39l-.14 1.51-.16 1.27-.24 1.29.52-.82q4.17-6.72 7.77-6.72c1.16 0 1.73.83 1.73 2.49 0 .29 0 .89-.15 1.81l-.18 1.71-.26 2.33a21.79 21.79 0 0 1 4.11-6q2.37-2.37 4.23-2.37c1.23 0 1.85.79 1.85 2.38a15.79 15.79 0 0 1-.22 2.44l-1 6.91a23.48 23.48 0 0 0-.33 3.32c0 .66.18 1 .55 1s1-.36 1.6-1.06a8.54 8.54 0 0 0 1.54-2.41c.34.23.51.43.51.62 0 .78-.69 1.83-2.08 3.15s-2.5 2-3.33 2c-1 0-1.58-.71-1.58-2.12a30.91 30.91 0 0 1 .41-4.16l.66-4.49c0-.16.07-.51.13-1.06 0-.22.07-.6.13-1.14a11.72 11.72 0 0 0 .09-1.23c0-1-.34-1.58-1-1.58-1.16 0-2.52 1.17-4.06 3.5a15.32 15.32 0 0 0-2.64 6.66zM146.82 31.54a24.21 24.21 0 0 1-4.63 5.67q-2.52 2.2-4.38 2.21-2.55 0-2.55-4.12a14.23 14.23 0 0 1 3.74-9.81 11.46 11.46 0 0 1 8.8-4.14 10 10 0 0 1 3.3.48c-.06.23-.1.36-.11.41l-.23 1c-.15.68-.23 1.08-.24 1.19l-1.19 8.22-.17 1.19a22 22 0 0 0-.24 2.37c0 .53.15.8.46.8q1.56 0 3.19-3.49c.34.2.5.4.5.6 0 .44-.53 1.31-1.6 2.63q-2.17 2.68-4 2.68c-.91 0-1.36-.61-1.36-1.83a12 12 0 0 1 .13-1.54l.19-1.49.24-1.64zm1.06-7.38a7 7 0 0 0-3.43-.95q-2.61 0-4.38 3.18a16 16 0 0 0-1.77 7.89c0 1.61.48 2.42 1.43 2.42q1.67 0 4-2.53a14.62 14.62 0 0 0 3.84-8zM159.87 38.28l-2.79 1.14.06-.52.15-1.38.14-1.3 1-8.65.11-1c.07-.77.11-1.39.11-1.86 0-.79-.2-1.19-.6-1.19-.93 0-1.93 1-3 3.17-.29-.24-.43-.44-.43-.62 0-.74.68-1.76 2-3s2.44-1.93 3.22-1.93c1.07 0 1.6.68 1.6 2.05 0 .34 0 .81-.09 1.39l-.15 1.51-.15 1.27-.15 1.32a24.55 24.55 0 0 1 4.81-5.41c1.75-1.42 3.23-2.13 4.46-2.13s1.81.83 1.81 2.51a20.11 20.11 0 0 1-.2 2.29l-1 6.94a23.26 23.26 0 0 0-.31 3.29c0 .65.18 1 .52 1q1.29 0 3.18-3.41c.3.19.45.38.45.58 0 .81-.7 1.86-2.08 3.17s-2.52 2-3.39 2-1.45-.7-1.45-2.09a31.79 31.79 0 0 1 .39-4.23l.66-4.5a25.92 25.92 0 0 0 .31-3.49q0-1.47-1-1.47-2.38 0-4.83 3.23a14 14 0 0 0-2.86 6.94zM182.63 23.75l-.9 8.24c-.16 1.47-.24 2.57-.24 3.28 0 1.4.47 2.1 1.43 2.1s2.09-.84 3.19-2.53a1 1 0 0 1 .28.63c0 .7-.61 1.53-1.84 2.5a5.44 5.44 0 0 1-3.15 1.45q-2.66 0-2.65-3.39c0-.83.11-2.18.32-4l.89-8.24h-3.91l2.17-2.16h2l.39-3.39 2.75-.91-.45 4.3h7.9l-2.19 2.16zM202.87 33a.91.91 0 0 1 .47.75 4.22 4.22 0 0 1-1.19 2q-3.19 3.69-6.3 3.69a3.85 3.85 0 0 1-3.13-1.51 5.9 5.9 0 0 1-1.23-3.86 14.47 14.47 0 0 1 3.21-8.59q3.23-4.35 6.37-4.35c1.51 0 2.27.81 2.27 2.44a7.55 7.55 0 0 1-2.66 5.34 14.4 14.4 0 0 1-6.47 3.64q.38 4.47 3.54 4.47c2.09-.02 3.79-1.35 5.12-4.02zm-8.58-2.76a2.87 2.87 0 0 0 1 .19 6.2 6.2 0 0 0 4-1.42 4.18 4.18 0 0 0 1.73-3.31 2 2 0 0 0-2.22-2.18 3.61 3.61 0 0 0-2.9 1.91 10.75 10.75 0 0 0-1.61 4.82zM129.13 68.52c.36.17.54.4.54.67 0 .9-.66 2-2 3.32s-2.46 2-3.36 2-1.55-.74-1.55-2.23a24 24 0 0 1 .17-2.78l.2-1.66 1.44-7.49a17.86 17.86 0 0 1 4.07-9.89 10.1 10.1 0 0 1 7.83-4 7.4 7.4 0 0 1 1.83.19l-2.64 2.7a6.37 6.37 0 0 0-2-.3 4.78 4.78 0 0 0-4.18 2c-.92 1.31-1.56 3.53-1.9 6.66L125.8 67.8a25.43 25.43 0 0 0-.21 2.58c0 1.12.19 1.68.58 1.68s1-.37 1.61-1.1a7.07 7.07 0 0 0 1.35-2.44zM143 66.6a23.93 23.93 0 0 1-4.62 5.67c-1.68 1.48-3.14 2.21-4.38 2.21q-2.55 0-2.55-4.12a14.18 14.18 0 0 1 3.72-9.8 11.43 11.43 0 0 1 8.8-4.15 10 10 0 0 1 3.3.48c-.07.23-.1.36-.12.41l-.22 1c-.15.68-.23 1.08-.24 1.19l-1.19 8.23-.17 1.19a21.92 21.92 0 0 0-.24 2.36c0 .53.15.8.46.8q1.56 0 3.19-3.48c.33.2.5.39.5.59 0 .44-.53 1.31-1.6 2.63q-2.17 2.69-4 2.68c-.91 0-1.36-.61-1.36-1.82a12 12 0 0 1 .13-1.55l.18-1.49.25-1.64zm1-7.38a7 7 0 0 0-3.43-.95q-2.61 0-4.38 3.19a16 16 0 0 0-1.77 7.88c0 1.62.47 2.42 1.43 2.42 1.11 0 2.44-.84 4-2.53a14.59 14.59 0 0 0 3.84-8zM156.48 73.35l-2.79 1.13.06-.52.15-1.38.14-1.3 1-8.65.11-1c.07-.77.11-1.39.11-1.87 0-.79-.2-1.19-.6-1.19q-1.39 0-3 3.17c-.29-.24-.43-.44-.43-.62 0-.74.68-1.76 2-3s2.44-1.93 3.22-1.93c1.07 0 1.6.68 1.6 2 0 .35 0 .81-.09 1.4l-.15 1.5-.15 1.27-.15 1.32a24.55 24.55 0 0 1 4.81-5.41c1.75-1.42 3.23-2.13 4.46-2.13s1.81.84 1.81 2.51a20.11 20.11 0 0 1-.2 2.29l-1 6.94a23.26 23.26 0 0 0-.31 3.29c0 .65.18 1 .52 1 .86 0 1.92-1.13 3.18-3.41.3.19.45.38.45.58 0 .81-.7 1.87-2.08 3.18s-2.52 2-3.39 2-1.45-.69-1.45-2.08a31.51 31.51 0 0 1 .39-4.23l.66-4.51a25.92 25.92 0 0 0 .31-3.49q0-1.47-1-1.47-2.39 0-4.83 3.23a14 14 0 0 0-2.84 6.9zM187.17 56.45a15.65 15.65 0 0 1 3-6.08 11.46 11.46 0 0 1 8.42-4.14 8.09 8.09 0 0 1 1.83.18l-2.65 2.7a6.65 6.65 0 0 0-2.06-.29 4.78 4.78 0 0 0-4.18 2c-.92 1.3-1.55 3.53-1.9 6.67l-1.07 10.28-.13 1.18a21.88 21.88 0 0 0-.17 2.25c0 .61.16.91.48.91q1.54 0 3.11-3.48c.33.2.5.39.5.59a6.24 6.24 0 0 1-1.51 2.63q-2.1 2.69-4 2.68c-1 0-1.43-.66-1.43-2 0-.49.07-1.45.22-2.89l.27-1.64.1-1.4a16.36 16.36 0 0 1-4.1 5.34q-2.84 2.53-4.68 2.54-2.62 0-2.62-4.12a14.55 14.55 0 0 1 3.63-9.66q3.63-4.29 8.19-4.29c.18 0 .42.01.75.04zm-.29 2.68a6.14 6.14 0 0 0-2.88-.86c-1.84 0-3.35 1-4.55 3.13a15.84 15.84 0 0 0-1.79 7.94c0 1.62.48 2.42 1.42 2.42q1.71 0 4-2.53a13.78 13.78 0 0 0 3.54-8zM206.14 68.07a.91.91 0 0 1 .47.75 4.22 4.22 0 0 1-1.19 2q-3.19 3.69-6.3 3.69A3.85 3.85 0 0 1 196 73a5.89 5.89 0 0 1-1.23-3.85 14.47 14.47 0 0 1 3.21-8.6q3.22-4.35 6.37-4.35c1.51 0 2.27.81 2.27 2.44A7.57 7.57 0 0 1 204 64a14.29 14.29 0 0 1-6.47 3.63q.38 4.47 3.54 4.47c2.04-.04 3.74-1.37 5.07-4.03zm-8.59-2.75a3.15 3.15 0 0 0 1 .18 6.2 6.2 0 0 0 4-1.41 4.19 4.19 0 0 0 1.74-3.32 2 2 0 0 0-2.22-2.18 3.61 3.61 0 0 0-2.9 1.91 10.87 10.87 0 0 0-1.62 4.82zM209 73.48l2.58-2.11a4.82 4.82 0 0 0 3.66 1.55c1.79 0 2.69-.87 2.69-2.59 0-1-.82-2.29-2.47-4l-1.06-1.1q-2.4-2.44-2.4-3.96a4.45 4.45 0 0 1 1.87-3.63 7.25 7.25 0 0 1 4.61-1.47 10.94 10.94 0 0 1 3.26.56l-2.23 2.07a5.15 5.15 0 0 0-3.15-1.07c-1.36 0-2 .57-2 1.7 0 .81.75 2 2.25 3.56l1.16 1.23q2.56 2.69 2.57 4.32a5.2 5.2 0 0 1-2.26 4.14 8.3 8.3 0 0 1-9.11.8zM229.54 58.81l-.91 8.24c-.16 1.48-.24 2.57-.24 3.28 0 1.4.48 2.1 1.43 2.1s2.09-.84 3.2-2.53a1.14 1.14 0 0 1 .28.63c0 .7-.62 1.53-1.84 2.5a5.46 5.46 0 0 1-3.16 1.45q-2.64 0-2.64-3.39a40.37 40.37 0 0 1 .31-4l.9-8.24H223l2.16-2.16h2l.39-3.39 2.74-.91-.45 4.3h7.9l-2.18 2.16zM246.49 68.58c.33.2.5.39.5.57 0 .45-.54 1.33-1.62 2.65-1.46 1.79-2.8 2.68-4.05 2.68-.9 0-1.36-.6-1.36-1.8 0-.51.19-2.07.56-4.69l.73-5.06.19-1.29.15-1a8.32 8.32 0 0 0 .09-1.1c0-.62-.17-.93-.52-.93q-1.44 0-3.12 3.19a.91.91 0 0 1-.35-.64c0-.75.7-1.77 2.1-3s2.51-1.92 3.34-1.92 1.4.64 1.4 1.93a15.09 15.09 0 0 1-.15 1.53l-.17 1.25c0 .1-.08.6-.2 1.5l-.77 5.33-.18 1.19a22.89 22.89 0 0 0-.25 2.36c0 .53.16.8.47.8q1.56-.07 3.21-3.55zm-3.73-14.81l1.56-3.86a9.08 9.08 0 0 0 3.43-2.37.91.91 0 0 1 .19.54c0 1.67-1.73 3.56-5.18 5.69zM254 73.35l-2.79 1.13.06-.52.15-1.38.15-1.3 1-8.65.11-1c.07-.77.11-1.39.11-1.87 0-.79-.2-1.19-.6-1.19q-1.4 0-3 3.17c-.29-.24-.43-.44-.43-.62 0-.74.68-1.76 2-3s2.44-1.93 3.22-1.93c1.07 0 1.6.68 1.6 2 0 .35 0 .81-.09 1.4l-.15 1.5-.15 1.27-.15 1.32a24.55 24.55 0 0 1 4.81-5.41c1.75-1.42 3.23-2.13 4.46-2.13s1.81.84 1.81 2.51a20.11 20.11 0 0 1-.2 2.29l-1 6.94a24.87 24.87 0 0 0-.31 3.29c0 .65.18 1 .52 1 .86 0 1.92-1.13 3.18-3.41.3.19.45.38.45.58 0 .81-.7 1.87-2.08 3.18s-2.52 2-3.39 2-1.45-.69-1.45-2.08a31.51 31.51 0 0 1 .39-4.23l.66-4.51a25.92 25.92 0 0 0 .31-3.49q0-1.47-1-1.47-2.39 0-4.83 3.23a14 14 0 0 0-2.86 6.94zM275.28 74.48q-4.18 0-4.19-5.55a13.73 13.73 0 0 1 3.28-8.62c2.19-2.76 4.45-4.14 6.8-4.14q4.24 0 4.25 5.55a13.78 13.78 0 0 1-3.28 8.63c-2.14 2.75-4.47 4.13-6.86 4.13zm2.26-2.08a4.18 4.18 0 0 0 3.58-2.4 11.22 11.22 0 0 0 1.45-5.94c0-3.88-1.21-5.81-3.62-5.81a4.17 4.17 0 0 0-3.57 2.39 11.33 11.33 0 0 0-1.44 5.93q0 5.83 3.6 5.83zM287.2 73.48l2.58-2.11a4.82 4.82 0 0 0 3.66 1.55c1.79 0 2.68-.87 2.68-2.59 0-1-.82-2.29-2.46-4l-1.07-1.1q-2.32-2.43-2.33-3.95a4.45 4.45 0 0 1 1.87-3.63 7.23 7.23 0 0 1 4.61-1.47 11 11 0 0 1 3.26.56l-2.24 2.07a5.1 5.1 0 0 0-3.14-1.07c-1.36 0-2 .57-2 1.7 0 .81.75 2 2.25 3.56l1.13 1.22q2.58 2.69 2.58 4.32a5.23 5.23 0 0 1-2.26 4.14 8.08 8.08 0 0 1-5.2 1.8 8 8 0 0 1-3.92-1zM36.31 41.68c-4.39-2.63-8.46-4.74-11.25-6.12 4.13-8.22 5.23-16.49 6.05-19.85 1-4.05 2.47-13.54 7.9-13.24s3 9.88 3 9.88l4.72-3.26C47.11 4.74 46.22 0 40.4 0S30.12 3.16 28.54 8.69s-7.22 25.09-7.22 25.09C5.71 30.72-.89 36.65.1 42.18s16.52 6.38 22-1.63q.39-.57.75-1.14C26.42 41 29.51 43.27 37 48.47c8.79 6.12 15 4.79 15 4.79L57.59 49a57.45 57.45 0 0 1-21.28-7.32zM6.38 43c-3.65-1.32-2.6-4.42 3-5.47a20.61 20.61 0 0 1 9.82.47c-2.75 4.36-9.2 6.34-12.82 5zM267.05 45.34c-12.36-.9-30.65-7.7-39-10.94-4.39-1.7-8.84-3.4-13-3.84a17.36 17.36 0 0 0-1.22-1.41l-1.16-1.22c-1.5-1.57-2.25-2.76-2.25-3.56 0-1.13.68-1.7 2-1.7a5.16 5.16 0 0 1 3.15 1.06l2.23-2.06a10.63 10.63 0 0 0-3.26-.56 7.25 7.25 0 0 0-4.61 1.47 4.48 4.48 0 0 0-1.93 3.63c0 1 .78 2.32 2.34 3.95l.43.45A13.76 13.76 0 0 0 209 31c-3 .88-5.18 2.1-3.23 5.37a5.65 5.65 0 0 0 8.11 1.4 5.84 5.84 0 0 0 2.44-4.28 2.49 2.49 0 0 0-.07-.53 74.26 74.26 0 0 1 10.36 3.63c10.71 4.58 29.32 10.3 43.92 11S289 39.23 289 39.23c-5.8 5.29-9.59 7.01-21.95 6.11zm-53.14-10.07c0 1.72-1.51 2.21-3.17 2.21s-4.58-1.95-4.14-3.56 2.21-2.29 5.61-1.81c1.13 1.31 1.7 2.36 1.7 3.16z" fill="#fff"/><path d="M101 43.78s-9.43 4.39-13.82 19.59 4.19 24.72 15.13 23.83a35.22 35.22 0 0 0 14.23-4.5l.48-1.6s-14.8 7.32-21.06-.24S92 53.29 101.94 47s16.34-3.5 17.64-1.55 1.47 5.78-3.41 5.29-13.91-6.67-19.68-8.62S85.36 40.65 82 43.21a13.75 13.75 0 0 0-2.5 18.37c5.25 8.23 16.82 5.82 17.48 9.6.7 4-10.9 2.28-19-.81S54.09 60 36.72 58c-20.57-2.35-26.83 8.06-26.83 8.06a29.78 29.78 0 0 1 16.91-5.7c11.31.08 21.68 1.79 38.33 8.06s23.07 8.21 29.33 7 5.41-5.45 2.68-7.13c-3.33-2.06-12-2-15.53-7.51S78.5 41.64 92.26 44.05s17.56 10.33 25 9.81c6.74-.48 7.05-7.86 3.74-10.57-2.93-2.37-8.82-4.72-20 .49z" fill="#fff"/></svg>