<?xml version="1.0" encoding="UTF-8"?><svg id="logos" xmlns="http://www.w3.org/2000/svg" width="320" height="76" viewBox="0 0 320 76"><path d="M119.6,8.37h-3.48l-1.22,6.69h3.3c.13,0,.25,0,.37,0,1.02,0,1.74-.08,2.07-1.51,.38-1.6,.5-2,.71-3.05,.28-1.36-.22-2.13-1.74-2.13Z" fill="#fff"/><path d="M245.95,56.8h0l.87-1.51,1.19,1.51h28.43l1.05-2.17,5.14-10.62h0l-6.02-18.61-.02-.05h1.19l11.12,31.45h13.34l7.54-13.03h0l-7.15-18.66h3.01l7.46-14.53L305.98,.18h-49.71l-3.97,11.93h0l5.08,15.8L240.57,.18h-12.69l-.74,1.32-.81-1.32h-13.28v0l-2.22,11.33-1.13,13.42-.18,2.14v-.02L205.75,.18h-12.57l-1.79,13.48L182.71,.18h-9.04v0l-.48,11.21v.16l.07,9.88-.28,.03L152.13,.18h-1.14l-16.93,17.43s-.66-10.53-.72-12.63c-.06-2.09-.24-4.81-3.89-4.81H60.82l-9.4,11.5L47.69,.18h-12.6L3.07,44.04l7.11,12.76h13.57l5.66-8.27h4.96l3.89,8.27h10.84l.74-1.15,.59,1.15h16.01l7.85-11.07,3.2,10.93h13.65l6.82-34.82h3.2l-4.55,22.08,2.98,12.88h13.16l2.25-15.58,7.28,15.58h13.67l-.56-10.71-.12-2.25-5.61-10.19,1.65-1.22h.03l-.02,3.33h0l20.09,20.84,20.66-20.69v-.07l1.14-14.04,.64,34.68h10.72l1.67-12.62h0v-4.21l3.73,5.41,8.1,11.75h18.98l2.14-7.31h10.32l3.57,7.31h12.86ZM134.39,17.93L151.19,.63h.75l20.71,21.16,.08,.09-.03,.31-21.15,21.53-21.12-21.82,3.23-3.23h0l.72-.74Zm-61.03,10.08l-2.73-2.8,2.52-3.12h6.02l-3.64,14.26-2.16-8.34Zm-20.07,5.15l-1.9,2.38,.22-4,1.68,1.62ZM35.33,.63h11.88l.19,.58-2.86,42.79h-11.8l1.36-7.44h-10.51l6.48-9.76h5.59l2.05-13.51-19.92,30.7H3.66L35.33,.63Zm93.92,33.24l5.54,10.05h-13.69l-7.66-17.59-2.81,17.59h-13.54l4.28-20.81,2.95-13.36h-9.25l-6.88,34.08h-13.99l1.29-4.96,.06,.21,.44-1.73,3.94-15.41,.15-.57h-.04l3-11.55h-13.37l-6.52,8.4,6.6,7.06,1.15,1.13,1.87,1.92,.11,.41-10.86,15.08h-16.04l11.78-15.15-10.44-11.28,3.99-4.68,.05-.24,.33-.41L61.04,.63h68.41c3.06,0,3.36,1.98,3.43,4.36,0,.16,.01,.38,.02,.64v.07c-.37,2.1-1.81,10.55-2.36,13.13-.55,2.58-2.66,3.22-4.38,3.22-1.72,0-2.75,0-2.75,0l5.63,11.46,.19,.35Zm92.23-6.84l.11-7.86,3.21,6.07h-3.08l-.24,1.8ZM228.18,.63h12.13l16.68,27.5,2.03,3.34h0l2.88,3.64h5.6L256.51,.92l.09-.28h49.14l6.86,9.98-.02,.03h-16.15l5.55,14.01,.24,.62,7.07,18.46-.16,.27h-13.74l-11.1-33.17h-12.92l10.77,33.13v.04l-28.97-.16L228.17,.67v-.03Zm-42.4,43.19v.04l-10.77,.18-1.14-37.55,.25-5.85h8.35l8.54,13.27,.68,1.05h0l4.1,5.55-2.37-18.55,.18-1.32h11.77l3.71,26.49,.57,4.04h0l.6,2.6,2.46-29.39,.73-3.75h12.65l.76,1.24,.23,.37,23.74,41.79h-13.76l-3.61-7.59h-11.48l-.03-7.55,.39-2.97h3.44l2.41,.02-7.19-13.06-1.2,31.15h-20.21l-14.14-20.39,.32,14.55v5.63Z" fill="#fff"/><path d="M15.25,60.08H0v15.75H15.25c3.47,0,6.28-2.81,6.28-6.28v-3.18c0-3.47-2.81-6.28-6.28-6.28Zm5.37,9.46c0,2.96-2.41,5.37-5.37,5.37H.92v-13.91H15.25c2.96,0,5.37,2.41,5.37,5.37v3.18Z" fill="#fff"/><path d="M11.7,65.87h-3.63v4.28h3.63c.97,0,1.75-.79,1.75-1.75v-.78c0-.97-.79-1.75-1.75-1.75Zm.83,2.53c0,.46-.38,.83-.83,.83h-2.71v-2.45h2.71c.46,0,.83,.37,.83,.83v.78Z" fill="#fff"/><path d="M157.33,65.87h-3.63v4.28h3.63c.97,0,1.75-.79,1.75-1.75v-.78c0-.97-.79-1.75-1.75-1.75Zm.83,2.53c0,.46-.38,.83-.83,.83h-2.71v-2.45h2.71c.46,0,.83,.37,.83,.83v.78Z" fill="#fff"/><path d="M160.88,60.08h-15.25v15.75h15.25c3.47,0,6.28-2.81,6.28-6.28v-3.18c0-3.47-2.81-6.28-6.28-6.28Zm5.37,9.46c0,2.96-2.41,5.37-5.37,5.37h-14.33v-13.91h14.33c2.96,0,5.37,2.41,5.37,5.37v3.18Z" fill="#fff"/><path d="M40.87,60.08H23.98c-.46,0-.83,.37-.83,.83v14.09c0,.46,.37,.83,.83,.83h16.89c.46,0,.83-.37,.83-.83v-14.09c0-.46-.37-.83-.83-.83Zm-.09,14.83H24.07v-13.91h16.71v13.91Z" fill="#fff"/><path d="M34.9,70.15v-4.46h-4.96v4.46h4.96Zm-4.04-3.54h3.12v2.62h-3.12v-2.62Z" fill="#fff"/><path d="M52.17,60.08h-9.08v15.75h17.06v-4.43h-7.98v-11.31Zm7.06,12.23v2.6h-15.22v-13.91h7.24v11.31h7.98Z" fill="#fff"/><path d="M73.17,62.32h-3.51v3.89h3.51c1.07,0,1.95-.87,1.95-1.95s-.87-1.95-1.95-1.95Zm0,2.97h-2.59v-2.06h2.59c.57,0,1.03,.46,1.03,1.03s-.46,1.03-1.03,1.03Z" fill="#fff"/><path d="M79.89,60.08h-18.25v15.75h8.55v-6.88c0-.47,.38-.85,.85-.85h8.85c.71,0,1.29-.58,1.29-1.29v-5.44c0-.71-.58-1.29-1.29-1.29Zm.37,6.73c0,.2-.17,.37-.37,.37h-8.85c-.98,0-1.77,.79-1.77,1.77v5.96h-6.71v-13.91h17.34c.2,0,.37,.17,.37,.37v5.44Z" fill="#fff"/><path d="M95.01,66.85h-1.84v-6.77h-10.75v15.75h10.75v-6.28h1.84v6.28h9.83v-15.75h-9.83v6.77Zm.92-5.86h8v13.91h-8v-6.28h-3.68v6.28h-8.91v-13.91h8.91v6.77h3.68v-6.77Z" fill="#fff"/><path d="M106.47,75.83h5.57v-15.75h-5.57v15.75Zm.92-14.83h3.73v13.91h-3.73v-13.91Z" fill="#fff"/><path d="M271.9,75.83h5.57v-15.75h-5.57v15.75Zm.92-14.83h3.73v13.91h-3.73v-13.91Z" fill="#fff"/><path d="M127.78,64.86l-5.46-4.78h-8.94v15.75h8.94v-3.67l5.46,3.67h8.05v-15.75h-8.05v4.78Zm.92-3.86h6.22v13.91h-6.86l-5.23-3.51-1.43-.96v4.48h-7.1v-13.91h7.68l5.2,4.55,1.52,1.33v-5.88Z" fill="#fff"/><path d="M168.44,63.07v9.76c0,1.65,1.35,2.99,2.99,2.99h17.07v-4.69h-12.76v-1.5h12.76v-3.46h-12.76v-1.5h12.76v-4.6h-17.07c-1.65,0-2.99,1.35-2.99,2.99Zm19.15,.69h-12.76v3.34h12.76v1.62h-12.76v3.34h12.76v2.85h-16.16c-1.15,0-2.08-.93-2.08-2.08v-9.76c0-1.15,.93-2.08,2.08-2.08h16.16v2.76Z" fill="#fff"/><path d="M209.26,63.07v9.76c0,1.65,1.35,2.99,2.99,2.99h17.07v-4.69h-12.76v-1.5h12.76v-3.46h-12.76v-1.5h12.76v-4.6h-17.07c-1.65,0-2.99,1.35-2.99,2.99Zm19.15,.69h-12.76v3.34h12.76v1.62h-12.76v3.34h12.76v2.85h-16.16c-1.15,0-2.08-.93-2.08-2.08v-9.76c0-1.15,.93-2.08,2.08-2.08h16.16v2.76Z" fill="#fff"/><path d="M320,64.68v-4.6h-17.07c-1.65,0-2.99,1.35-2.99,2.99v9.76c0,1.65,1.35,2.99,2.99,2.99h17.07v-4.69h-12.76v-1.5h12.76v-3.46h-12.76v-1.5h12.76Zm-.92,2.42v1.62h-12.76v3.34h12.76v2.85h-16.16c-1.15,0-2.08-.93-2.08-2.08v-9.76c0-1.15,.93-2.08,2.08-2.08h16.16v2.76h-12.76v3.34h12.76Z" fill="#fff"/><path d="M249.7,60.08h-15.61c-1.65,0-2.99,1.35-2.99,2.99v9.76c0,1.65,1.35,2.99,2.99,2.99h15.09c1.1,0,1.99-.89,1.99-1.99v-2.7h-12.76v-6.46h12.76v-3.13c0-.81-.66-1.47-1.47-1.47Zm.55,3.68h-12.76v8.3h12.76v1.78c0,.59-.48,1.07-1.07,1.07h-15.09c-1.15,0-2.08-.93-2.08-2.08v-9.76c0-1.15,.93-2.08,2.08-2.08h15.61c.3,0,.55,.25,.55,.55v2.21Z" fill="#fff"/><path d="M189.93,64.55h5.7v11.28h6.75v-11.28h5.7v-4.47h-18.14v4.47Zm.92-3.55h16.31v2.63h-5.7v11.28h-4.91v-11.28h-5.7v-2.63Z" fill="#fff"/><path d="M252.46,64.55h5.7v11.28h6.75v-11.28h5.7v-4.47h-18.14v4.47Zm.92-3.55h16.31v2.63h-5.7v11.28h-4.91v-11.28h-5.7v-2.63Z" fill="#fff"/><path d="M290.01,60.08l-3.52,3.42v-3.42h-7.26v15.75h6.23l14.83-15.75h-10.28Zm-4.95,14.83h-4.91v-13.91h5.43v4.68l1.56-1.51,3.25-3.16h7.78l-13.11,13.91Z" fill="#fff"/><path d="M147.42,23.33l-2.14,7.08c-.02,.07,0,.15,.06,.19,.06,.04,.14,.04,.2,0l5.95-4.2,6.2,4.2s.06,.03,.1,.03c.04,0,.07-.01,.1-.03,.06-.04,.08-.12,.06-.19l-2.22-7.04,5.76-4.49c.06-.05,.08-.12,.06-.19-.02-.07-.09-.12-.16-.12h-6.95l-2.68-6.96c-.03-.07-.09-.11-.16-.11-.08-.02-.14,.04-.16,.11l-2.59,6.96h-7.24c-.07,0-.14,.05-.16,.12-.02,.07,0,.15,.06,.19l5.93,4.45Z" fill="#fff"/></svg>