<svg xmlns="http://www.w3.org/2000/svg" width="240" height="144" viewBox="0 0 240 144"><path d="M90.92 2h3.93s-1 8.86-1 12.94-.58 7.52-.58 9.41a25.12 25.12 0 0 0 1.56 6.4c.33.81 1.23 8.68 1.23 8.68s2.79-15.08 4.67-21.15 4.59-16.39 4.59-16.39h9.1s-3.93 13-3.93 16.39-.25 10.17-1.64 12a11.81 11.81 0 0 0-1.64 5.17 72.31 72.31 0 0 1-.41 7.78c-.41 2.87-3.53 11.28-3.53 11.28L90.92 54s-.47-6.37-1.38-7.85-.65-12.39-.65-12.39l-6.5 20.78-9.45-.37S83.62 31.4 84.19 26.72a69.35 69.35 0 0 1 4.27-16.16A38.25 38.25 0 0 0 90.92 2zM237.65 124.93c-1.47-4.12-3.82-4.26-7.06-8.09s-7.94-6.32-10-9.84a13.29 13.29 0 0 0-5.15-5s-1.76-5-3.08-5.29c0 0 13.22-2.94 13.08-10.73s-3.27-14.06-11.44-17.2c-10.86-4.18-27.48-1.6-27.48-1.6s4.53 15.27 6 16.74 5.14 20.58 5.29 23.52 4.85 14.11 6.47 17.78.6 6.18.6 6.18l14.39-1.62s-6.61-14.41-6.17-16c0 0 7.2 4.26 8.38 6.61s.59 5.74 2.35 6 3.23 3.82 3.23 3.82l12.94-.88s-.88-.28-2.35-4.4zm-32.77-36l-3.83-13.13s8.88-1.8 10 3.61-6.17 9.51-6.17 9.51zM200 132.1s-7.06-22.16-8.54-25.25-2.63-12.64-5-19.74S180 67.18 180 67.18l-13.5-.58s.89 18.2.59 27.9a177 177 0 0 1-2.5 23.81c-.73 4 1.1 14.26 1.1 14.26l11.1 1s0-6.27-.14-11a72.12 72.12 0 0 1 .44-9.56l3.53.59v2.06c0 2.06 2.2 5.29 2.71 8.67a26.78 26.78 0 0 1-.07 7.06zm-24.42-27c-.75-.59.61-18 .61-18s4.41 11.51 4.41 14.59-4.25 3.98-5 3.4zM129.65 63.82v21.35l10.42.6v24.26c0 4.73-1.35 7.76-1.35 11s1.35 12.49 1.35 12.49l18.05-.61s1.33-2.3-.61-7.51-1.94-10.67-2.42-14-2.67-4.4-2.79-8.4a21.49 21.49 0 0 0-1-6.28l.24-9.6h13.7s1-7.28 0-9.22-2.1-11.29-2.1-11.29l-11.48-.78-1 2-.6-2.88zM122.43 66.6c-2.39-2.9-11-7-27.61-4.47 0 0-2.3 9.82-2.3 17.82s.19 20.13-1.6 25.59-3.13 9.34-3.13 14.19a91.69 91.69 0 0 0 1.09 11.66l15.37.71s1.67-3.4 0-5.58-2.28-3.52-1.91-6.43 1-18 1-18 17.88-7.51 20.35-16.49 1.14-16.1-1.26-19zM102.7 87.11c-.7-5.22 1.3-13.34 1.3-13.34s9-.37 9 5.33-10.3 8.01-10.3 8.01zM58 62.13a155.08 155.08 0 0 0-4.83 26.49c-1.73 16.33-2.35 38.77-2.35 38.77l32.47 4s-.71-5.17-.87-10.69a22.82 22.82 0 0 1 2.37-10.24l-2.37-1.61s.07 1.5-5.74-.11a45.5 45.5 0 0 0-12.13-1.84c-2.18 0-3.36-.11-3.36-.11l.6-10a14.23 14.23 0 0 0 6 1.63 38.58 38.58 0 0 0 7.56-1.15l.23-9-12.19-.92.81-7.7s9.77 0 14 .23 8.45.8 8.45.8 1.56-2 1.56-6.67a78.85 78.85 0 0 1 1.26-11.49s-16.44-1.91-22.54-1a35.45 35.45 0 0 1-8.93.61zM17.72 60.19S7.46 82.63 5 94s-5 27.8-5 27.8l17.72 2.2s-.83-20.15 1.36-21.64l11.88 25h16.78a18.14 18.14 0 0 0-3.32-7.27c-2.83-3.92-6.56-17.72-8.24-19.21s-3.92-9.7-3.92-9.7 18.06-8.76 18.45-14.73.58-17.07-32.99-16.26zm3.46 23.38c.12-3.36 4.21-13.81 4.21-13.81l10.42 6.91c-.38 5.22-14.63 6.9-14.63 6.9zM184.72 6.39l7.66.67a59.87 59.87 0 0 1 5.43 10c2.56 6 4.81 11.13 4.81 11.13s-.22-7.86-1.23-11.92-2.48-9.23-2.48-9.23l6.53 1.13a49 49 0 0 1 1.46 10c.11 4.95 0 16.66 0 16.66a37.76 37.76 0 0 1 5.74 9.57 144.78 144.78 0 0 1 5.63 16s-3.15-1.82-5.63-1.49-6.08 1.07-7.76-.53-5.63-22.21-5.63-22.21zM190.58 34.2C188 25.08 179.77 4.92 179.77 4.92c-3.38-1.92-10.92-1.35-10.92-1.35l.56 9.57a27.9 27.9 0 0 1 1.15 7.09c0 3.49 1.78 6.53 1.78 8a73.12 73.12 0 0 0 2.14 12.63c1.46 6 1.12 17 1.12 17l9.8 1.1-.23-9.9a9.9 9.9 0 0 1 2.93-.23c.79.23 3.38 9.6 3.38 9.6h6.3c.45-3.13-4.61-15.11-7.2-24.23zm-9.67 1.35c.13 0 1.15-.23.1-3.61-1.13-3.6-2.26-10.81-.68-12.72 0 0 4.5 3.49 4.5 5.63a53.43 53.43 0 0 0 1 7.09l1.8 3.16zM134.8 2.78s5-1 8.29.8c0 0 2.65 10.86 2.65 13.38s1.92 6.74 2.52 8.54-.36 3.48.48 5.53S151 35.47 151 37.4s-.48 2.4.72 2.28 2.16-16.1 2.16-16.1l2 .12s2.53 7.81 3 7.81 6.13 8.89 6.13 8.89-1.2-6.25-1.32-7.93-1.21-1.55-1.09-3.24.73-4.69.73-4.69l-6-20.32 5.28 1s5.89 26.57 7.1 34.14 3 19.11 3 19.11h-7.09l-.48-5L157.81 38l-1 20.52-8.9-.57s-2.4-10.49-3-12.29.6-3.13-.12-4.69-2.53-3-2.65-6.49-1-4.7-1.68-7.28.19-3.05-.5-7-5.16-17.42-5.16-17.42zM137.83 40.64a50.54 50.54 0 0 1-.64-6.9c0-3.07-1.66-5.5-2.17-7s-.77-2.95-.9-6.79-.89-4.21-1.79-6.77-.76-10.9-.76-10.9l-7.41-.39s-4 9.38-4 12.19-3.42 10.84-4.16 13.32-4.75 13-5.39 16.69-4.22 12.5-4.22 12.5H116l3.43-10.44c1.79-.5 8.69.75 8.69.75l1.53 9.1h12zm-18.42-2.73s-.46-2.87.45-4.53 2-2.49 2-4.76 4.53-12.31 4.53-12.31 1.36 7.4 1.21 8.76-1.42 5.82-.6 6.42 1.51 5.36 1.51 5.36zM71.66 1.4l6.3.47s-10.31 17.6-11.88 24.81-2.48 11.26 0 11.26 6.09-8.53 8.06-13.77S82.45 2 82.45 2h6.44S82.12 21.54 82 24s-4.26 9.4-5.9 14-4.53 14-11.55 14-8.46-5.57-7.09-11.58 2.14-11.48 3-16.07S69 2.93 71.66 1.4z" fill="#fff" stroke="#fff" stroke-linejoin="round" stroke-width=".58"/><path d="M66.07 6.09c-.29-2.42-2.6-5.32-5.13-5.84C54.68-1 47.56 3 47.56 3s-5.13 9.4-8.83 13.24-5 9.12-6.7 11.68-7.69 10.54-8 13.67-5 11.39-5 11.39l11.67 1.85s3-13.1 5.13-16.94 2.42-6 2.42-6.7 2.14-3.84 2.14-3.84 1.42 10.68.85 13 3.13 13.24 3.13 13.24l5.7-1.71 4.7.43s-.43-5.27-.71-6.41-1.71-.71-1.71-2.7.57-2.85-.72-7.55-4-12-4-12 9.11-4.27 12.24-7.12 6.48-8.02 6.2-10.44zm-8.69 1c-.71 1.85-2 4.41-3.13 4.41s-2.85-.14-3.56 1.29-4.27 2.13-4.27 2.13L54 5.38s4.09-.14 3.38 1.71z" fill="#fff" stroke="#fff" stroke-linejoin="round" stroke-width=".58"/><path fill="none" stroke="#fff" stroke-linejoin="round" stroke-width=".58" d="M240 129.34l-23.51 12.41-6.43-1.35M227.06 130.22l-17 10.18-.85-4.35"/><path fill="none" stroke="#fff" stroke-linejoin="round" stroke-width=".58" d="M219.27 129.78l-20.12 12.55-6.04-.58M204.88 131.4l-11.77 10.35-.82-4.89"/><path fill="none" stroke="#fff" stroke-linejoin="round" stroke-width=".58" d="M200.02 132.1l-18.59 11.45-10.87-1.22"/><path fill="none" stroke="#fff" stroke-linejoin="round" stroke-width=".58" d="M183.26 131.4l-12.7 10.93-.34-4.39M176.79 133.55l-13.14 8.78-11.49-.58"/><path fill="none" stroke="#fff" stroke-linejoin="round" stroke-width=".58" d="M165.69 132.57l-13.53 9.18-.41-3.67M186.52 67.18l-4.3 6.58M166.5 66.6l-2.85 3.54M154.47 109.35l.58-8.41M152.16 100.94h2.89l10.22-13.83M158.12 132.94l-10.44 8.42-15.87.39"/><path fill="none" stroke="#fff" stroke-linejoin="round" stroke-width=".58" d="M131.9 103.69l-.09 38.06 8.26-8.2M125.42 103.69h6.48l8.17-17.92M129.65 63.82l-3.67 17.26-.56 22.61 4.23-18.52"/><path d="M114.77 110.46s8.49-3.75 9.23-10.38 2-10.75 2-15.54A93.2 93.2 0 0 0 124.61 72M88.88 131.39l14.35 10.94 10.55-.58-9.53-9.65M113.78 141.75l.99-31.28-11.48-8.33M83.26 131.39l7.77 9.37M50.79 127.39l18.23 12.46 22.01.91v-7.66M84.76 110.46l3.81 2.87M89.47 62.52l4.19 5.58M49.04 68.1l5.85 7.88M52.43 96.34s-1.19 3.09-5.61 3.74M32.26 91.21l14.56 8.87 4.69 10.32M30.96 127.39l15.64 9.65 18.47 1.78-17.33-11.43M33.71 129.09l.11 4.16M0 121.8l25.39 13.11 8.43-1.66-16.1-9.21M204.88 58.43l-7.66 8.02M218.27 60.45l-8.88 6.99M184.72 6.39l-3.15 2.36M198.91 7.06l-3.84 4.43M192.8 41.22l6.45-5M197.78 58.43l-7.44 8.32M191.48 58.43l-10.93 10.35M185.4 58.96l-7.94 8.11M175.6 57.86l-5.04 8.74M168.85 3.57l-4.98 6.99M172.78 58.43l-4.45 8.17M148.02 57.86l-3.23 6.78M134.8 2.78l-2.73 9.32M153.91 23.58l-5.5 4.63M157.4 4.22l-4.93 9.02 3.48 10.46M103.29 54.54l.67 6.92M106.39 56.59l.45 4.97M127.69 73.03l-1.16-14.98-7.24-.19-1.45 5.87M129.65 55.97l-1.83 15.3M141.66 55.97l-2.97 8.34M75.33 97.24l9.27 8.34M61.76 96.76l7.66 7.94M75.56 88.27l9.7 9.94-.66 7.37-15.18-.88v2.54M92.48 90.19l-15.77-.74M86.65 80.68l5.86 7M90.92 54v10.31M82.39 54.54l4.26 7.68 4.27-7.38M72.94 54.17l3.71 7.39M114.44 1.87s.08 9.92.49 10.08a3 3 0 0 1 1.72 2.71 74.15 74.15 0 0 0 1.19 7.67M88.89 1.98l1.29 3.2M70.84 61.43l3.32-4.84M61.55 62.15s-3.5-6.92-3.67-8.23 0-2.8-.42-6.4M64.17 2.26s2.89 2.71 3 5.83" fill="none" stroke="#fff" stroke-linejoin="round" stroke-width=".58"/><path d="M59.58 62.09L56 53.51a16.51 16.51 0 0 0 0-5 34.67 34.67 0 0 0-1.69-6.12 13.44 13.44 0 0 0 .53-3.9 11.84 11.84 0 0 0-1.69-5.06 9.11 9.11 0 0 0 6.22-2.68M44.42 53.51l4.71 13.64 7.45.4M30.75 54.79l2.63 6.11M37.76 61.71l5.37-12.28M19.08 52.94l4.21 7.25M77.96 1.87l1.79 7.31M65.07 138.82v-1.67M94.85 2s1.47 4.62 2.21 6.11S99 10.31 99 12.2v4.92l1.8 1.14" fill="none" stroke="#fff" stroke-linejoin="round" stroke-width=".58"/></svg>