<svg xmlns="http://www.w3.org/2000/svg" width="300" height="82" viewBox="0 0 300 82"><path fill="#fff" d="M28.65 2.8L10.98 0 1.7 8.49v17.67l7.89 3.19 7.08-7.88 2.6 1.29v13.18L6.49 32.85 0 40.34l18.57 4.39 9.09-9.23V18.07l-7.89-4.39-7.39 7.69-2.3-.8V8.19l14.06 2.29 4.51-7.68zM44.73 20.07h2.79l3.2-5.39h-5.99V5.59l-7.49 3.1v5.99l-3.49 5.39h3.49v20.86l7.29 3.3 5.39-5.99-5.19-2V20.07zM214.51 56.21h2.8l3.19-5.39h-5.99v-9.09l-7.49 3.1v5.99l-3.49 5.39h3.49v20.86l7.29 3.3 5.39-5.99-5.19-2V56.21zM65.3 11.28l-9.79 8.79v19.87l12 4.29 10.29-6.49V15.28zm4.19 25L63.5 34V20.07l6 1.65zM253.79 47.59L244 56.38v19.87l12 4.29 10.28-6.49V51.59zm4.19 25l-6-2.29V56.38L258 58zM87.06 5.09v35.84l6.09 3.3 4.39-6.79-3.09-1.94V1.2l-7.39 3.89zM107.13 11.28l-6.19 7.29 9.58 1.5-8.38 11.58 8.38.6v7.99l-5.47-.5-4.61 7.88 9.58 1.2 9.29-8.09V24.91h-6.89l9.19-11.43-14.48-2.2zM83.42 53.24L79 56.15 84.14 61l-3.72 2.27V78.1l6.64 1.72 6.24-4.35V61.14zm5 20.75L85 73.64v-9.73l1.56-1.23 1.88 1.23zM104.24 74l7.46-9.42-6.35-4.92L99 63.17v15.16h5.65l2.87 1.49 4.18-4.28-3.77-1.54zm-.24-8.22l3 .75-3 3.56zM114.75 63.86l3.2-4.21 3.19 2.34 2.72-2.34 3.73 3.03-3.37 3.53-1.45-1.28v9.06l3.62 1.74-3.62 4.09-2.65-1.86h-2.48V65.97l-2.89-2.11zM130.37 44.79l5.18-7.84 10.86 3.02v4.26l6.87-8 11.7 4.28v31.42l3.62 1.2-4.83 7.24-7.11-3.38V47.45l-5.79-1.81-4.46 5.06v29.12h-8.81V47.2l-7.23-2.41zM196.33 71.53V50.85l-11.06-3.09-9.78 8.15v21.8l10.29 2.66L189.3 76l5.15 4.38 4.89-6.61zm-7.89 1.2l-5-1.22V56.09l5 .94zM224.1 55.5l4.85-6.36 6 3.18v19.46l3.12 1.85-5.54 6.74-5.31-3.04v-20.1l-3.12-1.73zM230.497 38.65l4.14 3.859-3.858 4.14-4.14-3.858zM273.17 55.63l2.7 1.73v23.01h6.95V56.38l1.83-.75 5.12 2.41v19.78l5.31 2.72 4.92-6.58-2.8-1.41V52.44l-9.94-4.85-3.47 4.56-5.7-3.96-4.92 7.44z"/></svg>