<svg xmlns="http://www.w3.org/2000/svg" width="200" height="110" viewBox="0 0 200 110"><g fill="#fff"><path d="M13.2 21.2l-.59-.46A124.87 124.87 0 0 1 19 9.48c.27-.42.68-1 1.24-1.76A17.65 17.65 0 0 0 21.41 6a2.54 2.54 0 0 0 .31-1.27 1.5 1.5 0 0 0 0-.2 1.72 1.72 0 0 0-.07-.21c0-.07-.05-.15-.09-.26L21 2.42a10.34 10.34 0 0 0-.41-1.1 1.77 1.77 0 0 0-.73-.65 5.27 5.27 0 0 0-1.79-.5A25.77 25.77 0 0 0 14.73 0a45.09 45.09 0 0 0-7.21.74 15.36 15.36 0 0 0-4.08 1.18 5.24 5.24 0 0 0-2.2 1.89A9.14 9.14 0 0 0 .18 6.9 10.33 10.33 0 0 0 0 8.25 1.32 1.32 0 0 0 .15 9a.91.91 0 0 0 .62.3 8.8 8.8 0 0 0 1.5.09H4.5q.93 0 .93-.18c0-.24-.71-.46-2.12-.65l-.54-.06a1 1 0 0 1-.3-.08.18.18 0 0 1-.09-.17c0-.23.77-.59 2.3-1.08a44.17 44.17 0 0 1 5.39-1.3 32.23 32.23 0 0 1 5.62-.56 27.65 27.65 0 0 1 3.8.23q-2.77 3.51-5 6.67c-1.47 2.11-2.7 4-3.67 5.66A34.36 34.36 0 0 0 8.65 22 7.8 7.8 0 0 0 8 24.72a1.58 1.58 0 0 0 .36 1.09 1.12 1.12 0 0 0 .87.4c.8 0 1.65-.79 2.56-2.38.11-.18.27-.45.47-.82l.53-.92a9.16 9.16 0 0 0 .41-.89zM18.94 17.85a10.52 10.52 0 0 0-.34 2.53c0 2.32.47 3.49 1.42 3.49a1 1 0 0 0 .72-.42c.26-.28.75-.88 1.47-1.81s1.49-1.83 2.27-2.71l.95-1.1a10.2 10.2 0 0 1 1.29-1.24 10.66 10.66 0 0 1 1.54-1 36.06 36.06 0 0 0-2.53 4.17 7.14 7.14 0 0 0-.88 3.11c0 1.12.47 1.67 1.41 1.67a3 3 0 0 0 1.47-.54 15.48 15.48 0 0 0 2-1.56c.74-.65 1.6-1.49 2.6-2.5v.24a5.57 5.57 0 0 0 1 3.43 3 3 0 0 0 2.56 1.26 6.14 6.14 0 0 0 3.65-1.32 22.54 22.54 0 0 0 3.85-3.79v-1.1c-.91.77-1.68 1.39-2.31 1.85a10.08 10.08 0 0 1-1.9 1.11 4.69 4.69 0 0 1-1.84.41 1.75 1.75 0 0 1-1.38-.6 2.44 2.44 0 0 1-.53-1.67v-.45a27.11 27.11 0 0 0 4.32-2.15 10 10 0 0 0 2.6-2.26 3.75 3.75 0 0 0 .86-2.27 1.41 1.41 0 0 0-.5-1.18A2.18 2.18 0 0 0 41.3 11a6.15 6.15 0 0 0-2.43.6 11.39 11.39 0 0 0-2.74 1.78 13.07 13.07 0 0 0-2.91 3.28 6.63 6.63 0 0 0-.74 2v-.05q-3 2.39-3.87 2.39c-.55 0-.82-.29-.82-.86a3.09 3.09 0 0 1 .42-1.38 13.25 13.25 0 0 1 1.19-1.86c.51-.68 1.21-1.55 2.08-2.59a.87.87 0 0 0 .18-.45 2 2 0 0 0-.47-1.06 1.32 1.32 0 0 0-1-.65 3.85 3.85 0 0 0-1.82.88 27.88 27.88 0 0 0-3 2.61c-1.19 1.15-2.59 2.63-4.22 4.43v-2.18c1-1.06 1.84-2.05 2.59-3S25.3 13 26.22 11.8s1.6-2.07 2.06-2.71 1.24-1.73 2.34-3.3 1.74-2.56 2.16-3.26A3.62 3.62 0 0 0 33.4 1c0-.17-.13-.33-.39-.46a2.72 2.72 0 0 0-1-.25c-.34 0-1 .48-2 1.51a49 49 0 0 0-3.75 4.58Q24 9.45 20.8 14.2a13 13 0 0 0-1.86 3.65zm17.4-1.72a8.07 8.07 0 0 1 1.36-1.58 8.66 8.66 0 0 1 1.49-1.09 2.58 2.58 0 0 1 1.06-.46c.25 0 .38.14.38.42a2.77 2.77 0 0 1-.55 1.26 7.89 7.89 0 0 1-1.72 1.81 10.18 10.18 0 0 1-2.8 1.58 5.17 5.17 0 0 1 .78-1.94zM52.46 9.7a4.83 4.83 0 0 0 1.92-.7c.86-.46 2-1.11 3.42-2s2.6-1.54 3.54-2a5.26 5.26 0 0 1 2-.74c.47 0 .71.26.71.78a5.77 5.77 0 0 1-.55 2 26.9 26.9 0 0 1-1.74 3.31q-1.2 2-2.75 4.24c-1 1.49-2.34 3.3-3.94 5.43a1.14 1.14 0 0 0-.21.6 6.09 6.09 0 0 0 .55 2.19c.37.9.76 1.35 1.19 1.35a1.15 1.15 0 0 0 .92-.56c.28-.38.76-1.11 1.42-2.2Q62 16.68 64.78 13a53.37 53.37 0 0 1 4.71-5.48c1.27-1.22 2.14-1.84 2.6-1.84.22 0 .33.19.33.56A3.61 3.61 0 0 1 72 7.79c-.27.57-.69 1.33-1.26 2.29-.82 1.38-1.56 2.56-2.24 3.52s-1.5 2.16-2.56 3.57a34.07 34.07 0 0 0-2 2.94 3.1 3.1 0 0 0-.47 1.52 6.54 6.54 0 0 0 .37 2.19c.25.69.55 1 .89 1a1.14 1.14 0 0 0 .69-.38 20.49 20.49 0 0 0 1.37-1.65l1.15-1.48q3.24-4.08 6-7t4.57-4.48a7.32 7.32 0 0 1 2.12-1.53.27.27 0 0 1 .2.09.28.28 0 0 1 .1.22 9.26 9.26 0 0 1-1.53 2q-2.04 2.31-3.4 4.2a18.42 18.42 0 0 0-2.1 3.68 9.39 9.39 0 0 0-.74 3.6 3.85 3.85 0 0 0 .84 2.58 2.75 2.75 0 0 0 2.19 1 3.65 3.65 0 0 0 1.36-.33 14 14 0 0 0 2-1.13A28 28 0 0 0 82 22.42c.74-.6 1.62-1.38 2.65-2.34a6.06 6.06 0 0 0 .44 1.76 6.72 6.72 0 0 0 1.06 1.79c.4.46.73.69 1 .69a3.54 3.54 0 0 0 2.13-1.24q1.29-1.24 3.94-4.19a13 13 0 0 0-1 4.16 2.55 2.55 0 0 0 .3 1.37 1.11 1.11 0 0 0 1 .46q1.86 0 6-4.5v1.07a6.1 6.1 0 0 0 .21 1.83c.15.41.39.62.71.62a.79.79 0 0 0 .53-.32c.19-.22.54-.66 1-1.32s1.06-1.37 1.68-2.14A25.8 25.8 0 0 0 105 22.7a5 5 0 0 0 1.29 1.46 2.65 2.65 0 0 0 1.61.52 3.88 3.88 0 0 0 2.3-1.22 36.09 36.09 0 0 0 3.18-3.34A7.82 7.82 0 0 0 114 23a2.35 2.35 0 0 0 2.22 1.56 4.67 4.67 0 0 0 2.59-1.15 17.76 17.76 0 0 0 3-3 6.91 6.91 0 0 0 .47 2.17c.32.81.68 1.22 1.07 1.22a1.11 1.11 0 0 0 .75-.37 16 16 0 0 0 1.18-1.46c.54-.72 1-1.37 1.52-2a20.13 20.13 0 0 1 1.72-1.86 11.42 11.42 0 0 1 2.6-2.09c-.57 1-1.07 1.81-1.51 2.57s-.76 1.34-1 1.74a7.7 7.7 0 0 0-.5 1.18 3.67 3.67 0 0 0-.18 1.14c0 1.31.5 2 1.49 2a4 4 0 0 0 2.25-1.12q1.32-1.08 3.71-3.43a6.81 6.81 0 0 0 .74 2.33c.52 1 1.09 1.48 1.71 1.48a3.86 3.86 0 0 0 1.92-.63 14.75 14.75 0 0 0 2.33-1.79c.85-.77 1.84-1.77 3-3-.53 1.31-1.41 3.2-2.62 5.67l-1.36 1.13c-.67.56-1.2 1-1.61 1.38s-.83.81-1.29 1.32a14.13 14.13 0 0 0-1.2 1.56 6.62 6.62 0 0 0-1.33 3.35c0 .44.18.67.54.67.68 0 1.72-.73 3.11-2.17a35 35 0 0 0 4.68-6.59l6-5v-1.14l-4.39 3.2c1.15-2.41 1.94-4.15 2.39-5.21a6.94 6.94 0 0 0 .66-2.42.9.9 0 0 0-.23-.66.81.81 0 0 0-.59-.23 2.15 2.15 0 0 0-1.42.79 28.64 28.64 0 0 0-2 2.29 21.52 21.52 0 0 1-1.94 2.17 28.68 28.68 0 0 1-2.41 2 2.61 2.61 0 0 1-1.46.58.72.72 0 0 1-.61-.29 1.17 1.17 0 0 1-.24-.78 3.86 3.86 0 0 1 .94-2.24 11.27 11.27 0 0 1 2.45-2.35 15.55 15.55 0 0 1 3.06-1.78q2.52-1.12 2.52-2.31c0-.57-.38-.85-1.16-.85a9.3 9.3 0 0 0-4.38 1.76 18.4 18.4 0 0 0-2.59 1.86 13.8 13.8 0 0 0-1.83 1.86 7.46 7.46 0 0 0-1 1.71 3.85 3.85 0 0 0-.28.92c-1.08.85-1.89 1.45-2.41 1.79a2.75 2.75 0 0 1-1.37.56c-.43 0-.64-.26-.64-.78q0-1.41 3.2-5c.52-.55.78-.95.78-1.22a4.85 4.85 0 0 0-.28-1.62c-.19-.53-.38-.79-.57-.79a3 3 0 0 0-1.6.67 24.27 24.27 0 0 0-3.08 2.38 28.7 28.7 0 0 0-2.34 2.37c-.66.75-1.2 1.37-1.62 1.83s-.7.7-.85.7-.34-.17-.34-.53q0-.95 2.87-4.12c.29-.31.48-.53.57-.63a2.65 2.65 0 0 0 .19-.3.82.82 0 0 0 .11-.38.67.67 0 0 0-.36-.62 1.91 1.91 0 0 0-.93-.2 2.59 2.59 0 0 0-1.75.9 18.19 18.19 0 0 0-2.16 2.83 10 10 0 0 0-.9 1.6 3.25 3.25 0 0 0-.18.73 20.39 20.39 0 0 1-2.36 1.76 3.68 3.68 0 0 1-1.88.63 1.83 1.83 0 0 1-1.27-.44 1.38 1.38 0 0 1-.49-1.09 2.11 2.11 0 0 1 .48-1.36 27.9 27.9 0 0 1 2.06-2.12 7.79 7.79 0 0 0 1.28-1.77 4.25 4.25 0 0 0 .72-1.81c0-.57-.37-.86-1.11-.86q-2.15 0-4.72 4c-.37.59-.61 1-.75 1.31a4.72 4.72 0 0 0-.34 1.06 6.17 6.17 0 0 0-.11.62c-.83.77-1.46 1.34-1.88 1.69a9.18 9.18 0 0 1-1.34 1 2.46 2.46 0 0 1-1.21.38 1.57 1.57 0 0 1-1.06-.37 6.84 6.84 0 0 1-1-1.19 27.39 27.39 0 0 0 4.69-3.48 4.61 4.61 0 0 0 1.52-3.3 3.51 3.51 0 0 0-.31-1.53 1 1 0 0 0-.87-.67q-1.38 0-3.89 2.15a87.76 87.76 0 0 0-6.6 6.53v-1.53q6.15-7.2 9.37-11.38T114 2.25q0-.78-.87-.78a3.21 3.21 0 0 0-1.77.81 19.59 19.59 0 0 0-2.5 2.4q-1.42 1.59-3.41 4.09-1.44 1.82-2.59 3.48a27.24 27.24 0 0 0-1.89 3.1 14.09 14.09 0 0 0-1.12 3c-.06.23-.11.45-.16.68-1.62 1.38-2.82 2.07-3.61 2.07s-1.24-.45-1.24-1.34a2.49 2.49 0 0 1 .36-1.38c.23-.38.64-1 1.23-1.76a3.76 3.76 0 0 0 .85-1.62 1.26 1.26 0 0 0-.11-.5 11.6 11.6 0 0 0-.31-.74l-.32-.76a6 6 0 0 0 .89-.37.54.54 0 0 0 .25-.49 1.65 1.65 0 0 0-.19-.61 2.42 2.42 0 0 0-.52-.74 1 1 0 0 0-.7-.32 10.5 10.5 0 0 0-4 1.22 22.06 22.06 0 0 0-5.36 3.72A16 16 0 0 0 85.39 17a3.36 3.36 0 0 0-.64 1.18 4.54 4.54 0 0 0-.12.6l-.34.25-1.15.82c-.49.34-1 .67-1.5 1-.36.24-.74.5-1.15.76a7.6 7.6 0 0 1-1.11.62 2.74 2.74 0 0 1-1.08.22 1.12 1.12 0 0 1-.93-.37 1.81 1.81 0 0 1-.3-1.16 9.82 9.82 0 0 1 .93-3.58 29.79 29.79 0 0 1 2.75-4.93A43.26 43.26 0 0 1 85 7.07c.9-1 1.49-1.61 1.77-2a1.52 1.52 0 0 0 .43-.9 3.87 3.87 0 0 0-.72-1.4c-.48-.73-.87-1.09-1.19-1.09a1.65 1.65 0 0 0-.79.32 7 7 0 0 0-1 .78l-1.63 1.37c-.67.59-1.34 1.14-2 1.64a21.58 21.58 0 0 0-1.81 1.64c-.73.71-1.84 1.85-3.33 3.4s-2.92 3.05-4.3 4.52q2.17-3.67 3.5-6c.89-1.55 1.56-2.82 2-3.81a6.23 6.23 0 0 0 .69-2A2.52 2.52 0 0 0 76.13 2 1.39 1.39 0 0 0 75 1.33a4.44 4.44 0 0 0-1.74.79 22.56 22.56 0 0 0-2.75 2 24.26 24.26 0 0 0-2.65 2.61c-.58.66-1.16 1.32-1.72 2s-1.13 1.32-1.7 2-1.17 1.46-1.79 2.27q1.18-2.5 2-4.17c.54-1.12 1-2.09 1.28-2.94a6.3 6.3 0 0 0 .48-2.18 5 5 0 0 0-.32-1.16A7.26 7.26 0 0 0 65.32 1a1.26 1.26 0 0 0-1-.68 12.06 12.06 0 0 0-3.64 1.05 41.59 41.59 0 0 0-6 3 1.64 1.64 0 0 1 .46-.84 13.05 13.05 0 0 1 1.1-1c.1-.1.15-.17.15-.22s0-.12-.15-.12a10.57 10.57 0 0 0-1.73 1.19 7.2 7.2 0 0 0-2 1.93 8.61 8.61 0 0 0-.53 1.93A12.83 12.83 0 0 0 51.86 9c0 .48.2.7.6.7zM108 15.49a5.15 5.15 0 0 1 2.37-1.32c.17 0 .26.09.26.29a3.15 3.15 0 0 1-.73 1.71 12.31 12.31 0 0 1-1.75 2 13.85 13.85 0 0 1-1.72 1.41 3.28 3.28 0 0 0-1.7-.67 19.4 19.4 0 0 1 3.27-3.42zm-19.14 1.57a38.91 38.91 0 0 1 6.73-3.67c-1.47 2.07-2.74 3.7-3.79 4.91a14.51 14.51 0 0 1-3.49 2.93 2.06 2.06 0 0 1-.71.26.6.6 0 0 1-.54-.38 1.89 1.89 0 0 1-.2-.95c0-1.06.67-2.1 2-3.1z"/><path d="M120.89 10.52a2.07 2.07 0 0 0 1.6-.95 2.87 2.87 0 0 0 .75-1.72 1.25 1.25 0 0 0-.37-1 1.28 1.28 0 0 0-.9-.33 2.07 2.07 0 0 0-1.58 1 3 3 0 0 0-.77 1.78 1.1 1.1 0 0 0 .41.87 1.32 1.32 0 0 0 .86.35zM162 23.68a2.9 2.9 0 0 0 1.85.68c1.2 0 2.59-.94 4.16-2.8a4.27 4.27 0 0 0 2.09-.29 9.37 9.37 0 0 0 1.73-1.27 4.39 4.39 0 0 0 .76 1.42q-1.18 2.91-1.75 4.74a12 12 0 0 0-.56 3.49 6.2 6.2 0 0 0 .6 2.88c.4.78.84 1.17 1.31 1.17a3.47 3.47 0 0 0 1.76-.81 11.45 11.45 0 0 0 2.29-2.32 13.27 13.27 0 0 0 1.74-2.8 9.26 9.26 0 0 0 .73-2.45 20.41 20.41 0 0 0 .16-2.81 7.86 7.86 0 0 0 1.55-1c.37-.33.92-.85 1.65-1.58v-1.29c-.44.32-.89.68-1.35 1.06s-.86.68-1.19.9a6.26 6.26 0 0 1-1.13.56 6.1 6.1 0 0 0-1-1.47c-.38-.41-.9-.9-1.55-1.47.19-.38.51-.94.95-1.69s1-1.78 1.81-3.07 1.44-2.48 2-3.54c.1-.17.35-.61.77-1.31a19.48 19.48 0 0 0 1-1.81 8.26 8.26 0 0 0 .62-1.5 6.88 6.88 0 0 0 .19-1.63 2.5 2.5 0 0 0-.24-1.18c-.16-.3-.34-.46-.54-.46a.88.88 0 0 0-.66.43c-.2.29-.54.84-1 1.66a75.36 75.36 0 0 0-4.44 9.08c-.65.78-1.17 1.4-1.55 1.87a18.93 18.93 0 0 0-1.21 1.69 4.51 4.51 0 0 0-1.34.89 1.83 1.83 0 0 0-.46 1.16l-.76.56a3 3 0 0 1-.53.33 1.37 1.37 0 0 1-.61.15h-.27l-.33-.32a11.64 11.64 0 0 0 1.08-2.53 7.86 7.86 0 0 0 .4-2.2 2.17 2.17 0 0 0-.25-1.23 1.57 1.57 0 0 0-.94-.48 1.37 1.37 0 0 0 .41-.83.81.81 0 0 0-.49-.74 2.9 2.9 0 0 0-1.34-.26 5.55 5.55 0 0 0-2.6.75 11 11 0 0 0-2.62 2 11.5 11.5 0 0 0-2 2.64 5.45 5.45 0 0 0-.77 2.58 6.38 6.38 0 0 0 .5 2.6 4.58 4.58 0 0 0 1.37 1.85zm12-1.14l.5.22a4.38 4.38 0 0 0 .64.23 3.32 3.32 0 0 0 .71.16 4 4 0 0 0 .82 0v.38a13.28 13.28 0 0 1-.53 4 7.17 7.17 0 0 1-1.27 2.47c-.48.55-.88.83-1.19.83s-.57-.26-.79-.78a4.66 4.66 0 0 1-.34-1.89 15.53 15.53 0 0 1 1.38-5.62zm-11.08-4.07a3.93 3.93 0 0 1 1-1.51 11.91 11.91 0 0 1 1.82-1.49q1.07-.74 2.58-1.65a18.31 18.31 0 0 0-1.4 2.74 6.17 6.17 0 0 0-.47 2.33 4.86 4.86 0 0 0 .3 1.63 5.71 5.71 0 0 1-2.61 1.35c-1.12 0-1.67-.4-1.67-1.2-.07-.11.08-.84.38-2.2zM186.46 20.2a1.66 1.66 0 0 0-1.22.66 5.77 5.77 0 0 0-1 1.51 3.45 3.45 0 0 0-.39 1.17.92.92 0 0 0 .21.65.71.71 0 0 0 .53.24 1.77 1.77 0 0 0 1.18-.59 5.27 5.27 0 0 0 1-1.4 3.07 3.07 0 0 0 .42-1.32c.06-.61-.19-.92-.73-.92zM192.79 20.2a1.66 1.66 0 0 0-1.22.66 5.8 5.8 0 0 0-1 1.51 3.45 3.45 0 0 0-.39 1.17.93.93 0 0 0 .22.65.69.69 0 0 0 .53.24 1.79 1.79 0 0 0 1.18-.59 5 5 0 0 0 1-1.4 3.07 3.07 0 0 0 .42-1.32c.04-.61-.22-.92-.74-.92zM199.22 20.2a1.69 1.69 0 0 0-1.23.66 6 6 0 0 0-1 1.51 3.45 3.45 0 0 0-.39 1.17.88.88 0 0 0 .22.65.68.68 0 0 0 .53.24 1.79 1.79 0 0 0 1.18-.59 5.24 5.24 0 0 0 1-1.4 3.07 3.07 0 0 0 .42-1.32c.05-.61-.21-.92-.73-.92zM29.05 40.34a3.43 3.43 0 0 1 1.51 2.72h.53v-3.74H19.9v3.74h.54a3.14 3.14 0 0 1 1.5-2.72 4.7 4.7 0 0 1 2.06-.42v9.77a1.9 1.9 0 0 1-.35 1.36 2.23 2.23 0 0 1-1.45.34v.47h6.62v-.47a2.23 2.23 0 0 1-1.49-.34 1.86 1.86 0 0 1-.33-1.36v-9.77a4.57 4.57 0 0 1 2.05.42zM40.65 51.17a2.62 2.62 0 0 1-1.13.22v.47h6.31v-.47a2.7 2.7 0 0 1-1.06-.2 1.13 1.13 0 0 1-.55-1.11v-9a1.11 1.11 0 0 1 .5-1.07 3 3 0 0 1 1.11-.23v-.47h-6.31v.47a3 3 0 0 1 1.15.23 1.11 1.11 0 0 1 .49 1.07V45h-4.42v-3.91a1.12 1.12 0 0 1 .53-1.09 2.83 2.83 0 0 1 1.13-.22v-.47h-6.28v.47a3.06 3.06 0 0 1 1.11.24 1.14 1.14 0 0 1 .46 1.06v9a1.14 1.14 0 0 1-.52 1.1 2.71 2.71 0 0 1-1.05.21v.47h6.28v-.47a2.83 2.83 0 0 1-1.09-.19 1.15 1.15 0 0 1-.57-1.12v-4.27h4.42v4.27a1.14 1.14 0 0 1-.51 1.09zM58.12 48h-.52a5.71 5.71 0 0 1-2 2.58 5.49 5.49 0 0 1-2.9.69 2.46 2.46 0 0 1-1.25-.21.94.94 0 0 1-.3-.81v-4.49a3 3 0 0 1 2.2.65 4.1 4.1 0 0 1 .81 2.23h.47v-6.27h-.47a4.46 4.46 0 0 1-.86 2.17 2.9 2.9 0 0 1-2.15.58v-4.3a.86.86 0 0 1 .23-.7 2 2 0 0 1 1.08-.18 5.19 5.19 0 0 1 3.09.67 4 4 0 0 1 1.2 2.45h.45v-3.74H46.52v.47a2.68 2.68 0 0 1 1.11.22 1.09 1.09 0 0 1 .54 1.08v9a1.13 1.13 0 0 1-.52 1.09 2.59 2.59 0 0 1-1.13.22v.47h10.85zM79 40.14a2.42 2.42 0 0 1 1.28-.35v-.47h-4.63L72 47.91h-.16l-3.65-8.59h-4.65v.47a2.91 2.91 0 0 1 1.28.31 1.12 1.12 0 0 1 .36 1v8.82a1.64 1.64 0 0 1-.31 1.1 1.86 1.86 0 0 1-1.38.38v.47h4.34v-.47a2 2 0 0 1-1.52-.48 2.12 2.12 0 0 1-.31-1.36v-8.39h.09l4.59 10.69h.5L75.69 41h.13v9c0 .56-.14.93-.42 1.09a2.58 2.58 0 0 1-1.24.28v.47h6.16v-.47A2 2 0 0 1 79 51a1.84 1.84 0 0 1-.35-1.34v-8.18c.04-.71.16-1.16.35-1.34zM88.9 51.23a4.35 4.35 0 0 1-1.19.16v.47h6v-.47a1.09 1.09 0 0 1-1-.46 12.71 12.71 0 0 1-1-2.12l-4.15-9.74H87l-4.08 10.15a8.22 8.22 0 0 1-.76 1.56 1.4 1.4 0 0 1-1.07.61v.47h3.78v-.47a3.57 3.57 0 0 1-1-.11c-.36-.12-.53-.32-.53-.58a3.68 3.68 0 0 1 .24-1c.08-.23.26-.71.53-1.44h4.16l.48 1.12q.15.38.24.63a2.36 2.36 0 0 1 .15.67c.05.32-.05.47-.24.55zm-4.46-3.75l1.67-4.29h.16l1.78 4.29zM103.25 51.31a6.56 6.56 0 0 1-1.15.08v.47h6.22v-.47a3.06 3.06 0 0 1-.55-.1.86.86 0 0 1-.36-.28l-5.66-7a36.88 36.88 0 0 1 3.59-3.39 4.51 4.51 0 0 1 2.38-.82v-.47h-5.37v.47a7.24 7.24 0 0 1 1.24.15.43.43 0 0 1 .32.46.77.77 0 0 1-.12.43 6.13 6.13 0 0 1-.54.59l-4 4v-4c0-.7.11-1.14.34-1.33a2.36 2.36 0 0 1 1.29-.36v-.47h-6.27v.47a2.83 2.83 0 0 1 1.12.23 1.11 1.11 0 0 1 .5 1.07v9a1.15 1.15 0 0 1-.54 1.11 2.74 2.74 0 0 1-1.08.2v.47h6.26v-.47a2.83 2.83 0 0 1-1.07-.21 1.13 1.13 0 0 1-.54-1.1v-3.59l.47-.47 3.37 4.21a4.32 4.32 0 0 1 .36.5.84.84 0 0 1 .1.31c0 .17-.11.27-.31.31zM114.17 40a3.22 3.22 0 0 1 1.2-.2v-.47h-6.49v.47a2.79 2.79 0 0 1 1.12.2 1.1 1.1 0 0 1 .54 1.09v9a1.16 1.16 0 0 1-.54 1.11 2.94 2.94 0 0 1-1.14.19v.47h6.49v-.47a2.5 2.5 0 0 1-1.3-.27 1.11 1.11 0 0 1-.44-1v-9a1.11 1.11 0 0 1 .56-1.12zM118.68 42.28l8.16 9.92h.52V41.27a1.45 1.45 0 0 1 .29-1.09 2.78 2.78 0 0 1 1.17-.39v-.47h-4v.47a2 2 0 0 1 1.37.48 2.09 2.09 0 0 1 .34 1.35v5.45h-.09l-6.38-7.75h-3.93v.47a1 1 0 0 1 .54.21c.14.11.49.49 1.06 1.12v8.79a1.66 1.66 0 0 1-.3 1.08 1.8 1.8 0 0 1-1.34.4v.47h4.21v-.47a1.77 1.77 0 0 1-1.52-.62 2.27 2.27 0 0 1-.24-1.21v-7.28zM141.62 48.71a2 2 0 0 1 .31-1.31 1.8 1.8 0 0 1 1.27-.4v-.47h-6.36V47a3.7 3.7 0 0 1 1.36.18 1.12 1.12 0 0 1 .52 1.11v2a1.3 1.3 0 0 1-.24.86 2 2 0 0 1-1.59.49 2.91 2.91 0 0 1-3-1.81 10.58 10.58 0 0 1-.76-4.14 9.51 9.51 0 0 1 .82-4.38 2.76 2.76 0 0 1 2.62-1.56 3.84 3.84 0 0 1 2.95 1.5 10.28 10.28 0 0 1 1.37 2.23h.47V39.1h-.51a1.66 1.66 0 0 1-.3.64.63.63 0 0 1-.48.2 5.92 5.92 0 0 1-1.43-.43 6.58 6.58 0 0 0-2.29-.43 6.22 6.22 0 0 0-4.72 2 6.54 6.54 0 0 0-1.78 4.67 6.35 6.35 0 0 0 1.72 4.56 6.48 6.48 0 0 0 4.93 2 11.37 11.37 0 0 0 3.09-.38 8.29 8.29 0 0 0 2-.76zM162.05 45.63a6.68 6.68 0 0 0-11.34-4.69 6.58 6.58 0 0 0-1.83 4.79 6.37 6.37 0 0 0 6.59 6.5 6.36 6.36 0 0 0 6.58-6.6zm-3.71 3.5c-.52 1.65-1.48 2.47-2.87 2.47s-2.36-.82-2.88-2.47a11.93 11.93 0 0 1-.42-3.5 12.17 12.17 0 0 1 .41-3.46c.52-1.67 1.48-2.51 2.89-2.51a2.68 2.68 0 0 1 2.4 1.51 9 9 0 0 1 .88 4.46 12.38 12.38 0 0 1-.41 3.5zM167.87 40.13a1.89 1.89 0 0 1 1-.19 4.82 4.82 0 0 1 3 .7 4.19 4.19 0 0 1 1.16 2.42h.45v-3.74H163v.47a2.9 2.9 0 0 1 1.14.23 1.12 1.12 0 0 1 .51 1.08v9a1.13 1.13 0 0 1-.52 1.09 2.59 2.59 0 0 1-1.13.22v.47h6.68v-.47a3.66 3.66 0 0 1-1.54-.22c-.33-.15-.5-.51-.5-1.09v-4.34a2.58 2.58 0 0 1 2.07.69 4.33 4.33 0 0 1 .77 2.19h.52v-6.27h-.47a4.85 4.85 0 0 1-.81 2.11 2.44 2.44 0 0 1-2 .64v-4.3a.85.85 0 0 1 .15-.69zM12.47 69.99h6.24v39.29h12.27V69.99h6.25v-9.72H12.47v9.72zM178.89 60.27h-13.68l-7.5 6.43v36.14l7.5 6.44h13.68l6.94-7.01V88.08h-12.27V99.2h-3.58V70.34h3.58v9.81h12.27V67.11h-.16l-6.78-6.84zM141.47 60.27h12.27v49.01h-12.27zM39.56 60.27h12.27v49.01H39.56zM78.72 60.27H53.96v9.72h6.25v39.29h12.27V69.99h6.24v-9.72zM125.49 78.36l-6.31-18.09h-11.24v44.79l-6-44.79H83.25l-6.55 49h12.78l.71-8.67h4.65l.71 8.67h25.17V92.9l5.62 16.38h11.42v-49h-12.27zM91 90.51L92.52 72 94 90.51z"/></g></svg>