<svg xmlns="http://www.w3.org/2000/svg" width="250" height="76" viewBox="0 0 250 76"><g fill="#fff"><path d="M32.52.17L6.3 18.13l26.21 17.96h101.3V.17H32.52zm22.31 15.3a6.689 6.689 0 0 1-2.17 2.49c-.92.64-2.02 1.12-3.29 1.42-1.27.31-2.64.46-4.11.46h-4.49v12.47H36.8V3.93h8.66c1.52 0 2.91.15 4.17.46 1.26.31 2.33.78 3.21 1.42.88.64 1.56 1.46 2.04 2.45.48.99.72 2.18.72 3.57s-.26 2.63-.78 3.65zm19.35 16.84l-7.22-12.63h-4.25v12.63h-3.97V3.93h9.1c1.36 0 2.66.14 3.89.42 1.23.28 2.31.73 3.23 1.34.92.62 1.65 1.42 2.19 2.43.53 1 .8 2.23.8 3.67 0 2.09-.64 3.77-1.92 5.05-1.28 1.28-2.94 2.1-4.97 2.45L79 32.32h-4.81zm34.74-8.2c-.76 1.83-1.81 3.41-3.15 4.73-1.34 1.32-2.93 2.35-4.77 3.09-1.84.73-3.85 1.1-6.01 1.1s-4.16-.37-5.99-1.1c-1.83-.73-3.42-1.76-4.75-3.09-1.34-1.32-2.38-2.9-3.13-4.73-.75-1.83-1.12-3.84-1.12-6.03s.37-4.24 1.12-6.07c.75-1.83 1.79-3.39 3.13-4.69 1.34-1.3 2.92-2.31 4.75-3.03 1.83-.72 3.83-1.08 5.99-1.08s4.17.36 6.01 1.08c1.84.72 3.43 1.73 4.77 3.03 1.34 1.3 2.39 2.86 3.15 4.69.76 1.83 1.14 3.86 1.14 6.07s-.38 4.2-1.14 6.03zm21.01 4.13c-.55 1.08-1.28 1.98-2.19 2.69-.91.71-1.96 1.24-3.15 1.58-1.19.35-2.41.52-3.67.52-1.79 0-3.52-.35-5.19-1.04-1.67-.69-3.05-1.72-4.15-3.09l3.09-2.61c.67.99 1.56 1.79 2.69 2.41 1.12.62 2.34.92 3.65.92.67 0 1.34-.09 2-.28.67-.19 1.28-.48 1.82-.88.55-.4 1-.9 1.34-1.5.35-.6.52-1.33.52-2.19s-.18-1.57-.54-2.15c-.36-.57-.85-1.06-1.46-1.46-.62-.4-1.33-.74-2.15-1.02-.82-.28-1.68-.57-2.59-.86-.91-.27-1.8-.59-2.69-.98-.88-.39-1.67-.88-2.37-1.48a6.6 6.6 0 0 1-1.68-2.23c-.43-.88-.64-1.98-.64-3.29 0-1.42.29-2.63.86-3.65a7.712 7.712 0 0 1 2.25-2.53c.92-.67 1.96-1.16 3.13-1.46 1.16-.31 2.33-.46 3.51-.46 1.66 0 3.21.29 4.65.88 1.44.59 2.61 1.38 3.49 2.37l-2.81 2.73c-.56-.78-1.32-1.41-2.29-1.9-.96-.49-2.04-.74-3.25-.74-.64 0-1.29.09-1.94.26-.66.17-1.25.45-1.78.84-.54.39-.97.87-1.3 1.44-.33.58-.5 1.26-.5 2.06s.15 1.42.46 1.94c.31.52.72.96 1.24 1.32.52.36 1.14.67 1.84.92.71.25 1.46.51 2.27.78.96.29 1.94.63 2.93 1 .99.37 1.88.87 2.69 1.48.8.62 1.46 1.38 1.96 2.31.51.92.76 2.09.76 3.51s-.27 2.75-.82 3.83z"/><path d="M73.41 13.93c.35-.57.52-1.29.52-2.15s-.17-1.57-.52-2.15a4.05 4.05 0 0 0-1.38-1.38c-.58-.35-1.25-.59-2.02-.74-.78-.15-1.59-.22-2.45-.22h-4.85v9.06h4.57c.94 0 1.8-.08 2.61-.24.8-.16 1.5-.42 2.11-.78.6-.36 1.08-.83 1.42-1.4zM102.84 10.06c-.94-1.04-2.07-1.86-3.39-2.47s-2.81-.9-4.47-.9-3.11.3-4.43.9c-1.32.6-2.45 1.42-3.37 2.47-.92 1.04-1.64 2.25-2.15 3.63s-.76 2.84-.76 4.39.25 3.06.76 4.45c.51 1.39 1.23 2.6 2.17 3.63.94 1.03 2.06 1.84 3.37 2.43 1.31.59 2.78.88 4.41.88s3.11-.29 4.45-.88c1.34-.59 2.47-1.4 3.41-2.43.94-1.03 1.66-2.24 2.17-3.63.51-1.39.76-2.87.76-4.45s-.25-3.01-.76-4.39-1.23-2.59-2.17-3.63zM49.73 8.28c-.58-.36-1.26-.61-2.07-.76-.8-.15-1.67-.22-2.61-.22h-4.29v9.18h4.21c.96 0 1.85-.09 2.67-.26.82-.17 1.52-.44 2.11-.8.59-.36 1.04-.84 1.36-1.42.32-.59.48-1.31.48-2.17s-.17-1.57-.5-2.15c-.33-.57-.79-1.04-1.36-1.4z"/></g><g fill="#fff"><path d="M53.78 50.09c-.94-1.04-2.07-1.86-3.39-2.47s-2.81-.9-4.47-.9-3.11.3-4.43.9c-1.32.6-2.45 1.42-3.37 2.47-.92 1.04-1.64 2.25-2.15 3.63s-.76 2.84-.76 4.39.25 3.06.76 4.45c.51 1.39 1.23 2.6 2.17 3.63.94 1.03 2.06 1.84 3.37 2.43 1.31.59 2.78.88 4.41.88s3.11-.29 4.45-.88c1.34-.59 2.47-1.4 3.41-2.43.94-1.03 1.66-2.24 2.17-3.63.51-1.39.76-2.87.76-4.45s-.25-3.01-.76-4.39-1.23-2.59-2.17-3.63z"/><path d="M223.79 40.08H0V76h223.79L250 58.04l-26.21-17.96zM25.83 71.64c-1.79.95-3.94 1.42-6.46 1.42-2.17 0-4.16-.37-5.99-1.1-1.83-.73-3.41-1.76-4.73-3.09-1.32-1.32-2.36-2.9-3.11-4.73-.75-1.83-1.12-3.84-1.12-6.03s.38-4.24 1.14-6.07c.76-1.83 1.82-3.39 3.17-4.69 1.35-1.3 2.95-2.31 4.79-3.03 1.84-.72 3.85-1.08 6.01-1.08a15.535 15.535 0 0 1 5.78 1.12c.91.37 1.74.84 2.49 1.38.75.55 1.39 1.18 1.92 1.9l-3.13 2.41c-.7-.96-1.68-1.76-2.95-2.39-1.27-.63-2.64-.94-4.11-.94-1.66 0-3.15.3-4.47.9-1.32.6-2.45 1.42-3.39 2.47-.94 1.04-1.66 2.25-2.17 3.63s-.76 2.84-.76 4.39.25 3.1.74 4.49c.49 1.39 1.2 2.6 2.13 3.63.92 1.03 2.04 1.84 3.37 2.43 1.32.59 2.8.88 4.43.88s3.06-.32 4.37-.96c1.31-.64 2.39-1.58 3.25-2.81l3.17 2.17c-1.12 1.52-2.58 2.76-4.37 3.71zm34.02-7.5c-.76 1.83-1.81 3.41-3.15 4.73-1.34 1.32-2.93 2.35-4.77 3.09-1.84.73-3.85 1.1-6.01 1.1s-4.16-.37-5.99-1.1c-1.83-.73-3.42-1.76-4.75-3.09-1.34-1.32-2.38-2.9-3.13-4.73-.75-1.83-1.12-3.84-1.12-6.03s.37-4.24 1.12-6.07c.75-1.83 1.79-3.39 3.13-4.69 1.34-1.3 2.92-2.31 4.75-3.03 1.83-.72 3.83-1.08 5.99-1.08s4.17.36 6.01 1.08c1.84.72 3.43 1.73 4.77 3.03 1.34 1.3 2.39 2.86 3.15 4.69.76 1.83 1.14 3.86 1.14 6.07s-.38 4.2-1.14 6.03zm29.21 8.2h-5.01l-15-23.18h-.08v23.18H65V43.95h5.17l14.84 22.69h.08V43.95h3.97v28.39zm29.55 0h-5.01l-15-23.18h-.08v23.18h-3.97V43.95h5.17l14.84 22.69h.08V43.95h3.97v28.39zm24.3 0H124.1V43.95h18.2v3.49h-14.23v8.5h13.39v3.41h-13.39v9.46h14.84v3.53zm20.53 0H146.8V43.95h3.97v24.86h12.67v3.53zm19.09 0h-16.64V43.95h3.97v24.86h12.67v3.53zm10.06 0h-4.01V60.07l-10.63-16.12h4.89l7.86 12.83 7.9-12.83h4.61l-10.63 16.12v12.27zm28.93-4.07c-.55 1.08-1.28 1.98-2.19 2.69-.91.71-1.96 1.24-3.15 1.58-1.19.35-2.41.52-3.67.52-1.79 0-3.52-.35-5.19-1.04-1.67-.69-3.05-1.72-4.15-3.09l3.09-2.61c.67.99 1.56 1.79 2.69 2.41 1.12.62 2.34.92 3.65.92.67 0 1.34-.09 2-.28.67-.19 1.28-.48 1.82-.88.55-.4 1-.9 1.34-1.5.35-.6.52-1.33.52-2.19s-.18-1.57-.54-2.15c-.36-.57-.85-1.06-1.46-1.46-.62-.4-1.33-.74-2.15-1.02-.82-.28-1.68-.57-2.59-.86-.91-.27-1.8-.59-2.69-.98-.88-.39-1.67-.88-2.37-1.48a6.6 6.6 0 0 1-1.68-2.23c-.43-.88-.64-1.98-.64-3.29 0-1.42.29-2.63.86-3.65a7.712 7.712 0 0 1 2.25-2.53c.92-.67 1.96-1.16 3.13-1.46 1.16-.31 2.33-.46 3.51-.46 1.66 0 3.21.29 4.65.88 1.44.59 2.61 1.38 3.49 2.37l-2.81 2.73c-.56-.78-1.32-1.41-2.29-1.9-.96-.49-2.04-.74-3.25-.74-.64 0-1.29.09-1.94.26-.66.17-1.25.45-1.78.84-.54.39-.97.87-1.3 1.44-.33.58-.5 1.26-.5 2.06s.15 1.42.46 1.94c.31.52.72.96 1.24 1.32.52.36 1.14.67 1.84.92.71.25 1.46.51 2.27.78.96.29 1.94.63 2.93 1 .99.37 1.88.87 2.69 1.48.8.62 1.46 1.38 1.96 2.31.51.92.76 2.09.76 3.51s-.27 2.75-.82 3.83z"/></g><path d="M163.31 25.62l6.5 6.7h-5.25l-3.53-3.73c-1.07 1.34-2.28 2.38-3.63 3.13s-3.01 1.12-4.99 1.12c-1.23 0-2.41-.17-3.53-.52-1.12-.35-2.11-.86-2.95-1.54a7.324 7.324 0 0 1-2-2.53c-.49-1-.74-2.16-.74-3.47 0-1.07.18-2.02.54-2.87.36-.84.84-1.6 1.43-2.27.59-.67 1.28-1.26 2.06-1.76.78-.51 1.57-.95 2.38-1.32-.92-.94-1.7-1.93-2.33-2.99-.64-1.06-.95-2.23-.95-3.51 0-1.15.21-2.15.62-3.01.41-.86.98-1.57 1.68-2.15.71-.57 1.52-1 2.43-1.28.91-.28 1.86-.42 2.85-.42s1.92.14 2.81.42c.88.28 1.66.7 2.33 1.26.67.56 1.2 1.26 1.6 2.09.4.83.6 1.79.6 2.89 0 .94-.17 1.78-.5 2.53a7.43 7.43 0 0 1-1.34 2.04c-.56.62-1.21 1.16-1.94 1.64-.74.48-1.5.91-2.31 1.28l5.65 5.81 3.57-6.01h4.41l-5.45 8.46zm-11.55-6.58c-1.39.59-2.5 1.32-3.33 2.21-.83.88-1.24 2.04-1.24 3.49a4.693 4.693 0 0 0 1.62 3.6c.49.43 1.06.76 1.7.98.64.23 1.3.34 1.96.34 1.36 0 2.51-.3 3.45-.9.94-.6 1.79-1.49 2.57-2.67l-6.74-7.06zm5.81-9.06c0-1.02-.34-1.87-1.02-2.57-.68-.69-1.55-1.04-2.61-1.04s-1.99.35-2.71 1.04c-.72.7-1.08 1.6-1.08 2.73 0 .45.09.91.26 1.36a8.544 8.544 0 0 0 1.56 2.56c.33.37.66.71.98 1 .58-.27 1.16-.56 1.71-.88a6.94 6.94 0 0 0 1.48-1.12c.43-.43.77-.9 1.04-1.4.27-.51.4-1.07.4-1.68z" fill="#fff"/></svg>