<svg xmlns="http://www.w3.org/2000/svg" viewBox="0 0 150 176"><path d="M4.79 28.2l13.84 4.84 2.17-19.89 18.4 30.89-4.06 3.39-10.53-15.57L26.09 43s-8.36-4.04-9.62-5.64l11.45 14.43-3.21 2.81S6.78 35.39 4.79 28.2zM51.38 2.58v5.33s-6.21.13-6.78 1.63l.4 8.89 4.09-1.32.22 5.5-4.23 1.01.44 7.35 4.45-2.68.57 4.31s-5.41 5.9-6.34 6.91-1.58-.09-2.02-4.09-4.27-27.2-1.19-30.85c0 0 4.23-2.73 10.39-1.98zM76.53 8.77c-.38-6.42-8.78-9.59-16.5-6.32l-1.15 34.12s2.83.61 4.12-.84v-6.49l9.85 6.34 2.57-3.74-10.44-6.49S76.89 15.19 76.51 8.78zM65.07 7.24s3.9-1.6 4.58 3.21c.69 4.81-6.03 8.47-6.03 8.47l1.45-11.68zM79.73 1.52h5.42l3.36 15.89L97.6 2.46l5.88 1.89S91.34 24.21 89.81 28.71c-1.53 4.51-4.12 4.12-4.58.08s-5.5-27.27-5.5-27.27zM114.49 2.97l7.03 1.68s-13.37 16.27-16.04 28.95l-5.35-.76s3.36-18.25 14.36-29.86zM111.28 37.26l3.06 2.21s9.24-12.14 12.3-12.75c0 0-.08 12.83 0 17.87s2.9 1.3 4.96-.46 18.41-16.73 18.41-16.73l-2.75-4.28s-13.82 8.63-16.61 12.53l3.63-22.68s-18.02 16.12-22.99 24.29zM7.21 140.02l3.25-5.34 10.65 4.23-.93 5.29-4.46-2.65-3.02 15.02-3.77-2.05 4.14-15.38-5.86.88zM24.18 138.86l-5.12 22.35 3.63.52 1.49-7.07 3.02.09-1.17 8.05 3.77.65 3.81-19.57-3.25-1.35-2.33 8.92-3.02-1.11 2.28-9.95-3.11-1.53zM43.93 151.15l.23-4.67-6.88.28s-3.49 9.25-3.9 13.9-.23 6.88 2.56 5.9 5.39-2.18 5.39-2.18l-.14-2.79-5.72.74.7-3.07 5.02-.51.33-3.76-3.95.56 1.39-5.53 4.97 1.14zM50.39 150.53h3.67l.51 11.06 3.12-.19-.28-10.04 3.53.33v20.4l-3.49 1.12-.18-8.28-2.7.14.09 8.37-3.81-.37-.46-22.54zM65.73 153.22l-3.49 19.57h3.81l.05-5.02 3.53-.42 2.51 5.72 3.53-1.07-9.95-18.78zm.28 11.99l.74-4.69 2.42 4.42-3.16.28zM85.94 158.52c-.6-3.9-6.18-5.58-9.02-4.04v19.33s3.67-.14 3.81-.74-.33-8.09-.33-8.09 6.14-2.56 5.53-6.46zm-6.22 3.46l-.23-4.67s3.39-.42 3.49 1.81c.09 2.23-3.25 2.86-3.25 2.86zM97.09 159.56c-.6-3.9-6.18-5.58-9.02-4.04v19.33s3.67-.14 3.81-.74-.33-8.09-.33-8.09 6.14-2.56 5.53-6.46zm-6.23 3.46l-.23-4.67s3.39-.42 3.49 1.81c.09 2.23-3.25 2.86-3.25 2.86zM96.54 153.69l6.41 5.72-2.56 12.83 3.86-.6s1.02-10.09 1.95-12 6.37-10.45 6.37-10.45l-2.56-1.12-5.67 8.83-5.48-4.32s-2.18.28-2.32 1.12zM126.98 146.57l.46-4s-5.81-2.7-8.04 4 2.37 11.76 4.02 13.85 6.34 2.51 7.51-2l-1.81-3.02s-1.86 4-4.88 1.02-3.39-11.71 2.74-9.85zM129.87 138.3l3.11 21.15 3.21-1.07-1.44-6.6 2.23-1.3 3.53 5.3 4.69-2.51-15.34-14.97zm3.81 10.58l-.88-4.35 3.21 3.16-2.32 1.19zM134.19 135.79l1.81 4.56 3.25-2.05 6.88 12.36 3.26-2.18-6.84-11.34 4.42-2.28-3.49-6.41-9.29 7.34z" fill="#fff"/><path d="M57.19 63.07s-11.5-2.88-15.33-6.31c-3.84-3.44-6.21-1.15-4.83 4.03s4.9 13 9.98 16.33c0 0-5.15 3.57-6.3 8.05" fill="none" stroke="#fff" stroke-linecap="round" stroke-linejoin="round" stroke-width=".98"/><path d="M45.59 87.58s-8.68-5.98-16.96 0c-8.28 5.98-12.5 14.38-7.52 26.23 4.99 11.85 25.69 31.52 59.63 28.87 33.94-2.65 50.16-26.11 51.19-38.54s-3.91-23.01-22.89-18.98" fill="none" stroke="#fff" stroke-linecap="round" stroke-linejoin="round" stroke-width=".98"/><path d="M114.9 84.29c-.23-3.17-6.21-10.29-6.21-10.29s6.21-6.21 6.21-14.61-1.27-8.97-5.06-6.1-9.66 7.02-12.42 7.36M74.75 60.55s3.71-.56 4.72.13M50.1 86.95s8.62-5.38 18.34.37M85.74 87.32s7.51-4.71 15.91-1.33M30.01 96.32s4.6-4.97 13.05-3.57M109.14 91.82s6.01-1.03 9.76 2.25" fill="none" stroke="#fff" stroke-linecap="round" stroke-linejoin="round" stroke-width=".98"/><path d="M113.55 91.81S108.86 105.7 96 106.27 77.42 98.2 77.42 98.2s-3.83 9.89-18.87 8.1c-19.15-2.28-20.74-13.63-20.74-13.63s-7.42 17.92 8.35 28.9c15.77 10.98 43.27 10.42 56.03 1.41s16.82-13.93 15.7-21.61-4.34-9.55-4.34-9.55z" fill="none" stroke="#fff" stroke-linecap="round" stroke-linejoin="round" stroke-width=".98"/><path d="M78.63 129.72c8.39-.35 16.3-2.32 21.96-5.7a.442.442 0 0 1-.06-.16l-3.59-17.61v-.05c-.31.03-.62.05-.93.07-10.67.47-16.43-5.4-18.08-7.41l.72 30.85zM45.24 102.2l.03-.06c-6.71-4.09-7.46-9.47-7.46-9.47s-5 12.1 1.96 22.5l5.48-12.97zM109.58 99.19l5.66 12.49c2.47-3.32 3.21-6.47 2.65-10.31-1.13-7.67-4.34-9.55-4.34-9.55s-1.22 3.6-4.1 7.2c.06.05.11.1.14.18zM114.45 112.33l-5.67-12.52c-2.48 2.84-6.03 5.52-10.88 6.27l3.55 17.39c.25-.16.5-.33.74-.5 5.85-4.13 9.87-7.4 12.4-10.48a.457.457 0 0 1-.14-.17zM77.65 129.75l-.71-30.62c-1.35 2.33-5.91 8.2-17.19 7.29 0 .03 0 .07-.02.1l-5.76 19.18s-.01.03-.02.04c7.25 2.94 15.66 4.22 23.7 4.01zM58.77 106.32c-.07 0-.15-.01-.22-.02-5.43-.65-9.45-2.02-12.43-3.67l-5.58 13.21c-.04.09-.1.15-.17.21 1.44 1.95 3.33 3.82 5.78 5.52 2.11 1.47 4.43 2.73 6.89 3.79l5.72-19.04z" fill="#fff"/><path d="M122.08 86.51s11.82-10.57 22.17-7.12M126.34 91.81s9.98-4.7 20.7 1.05M9.98 83.5s11.01.51 19.23 6.68M0 98.2s13.8-4.43 24.52-3.32M69.56 90.52c2.29.97 3.37-1.57 4.8-1.38s-.02 4.2 2.71 4.11 1.53-3.91 4.03-4.12.97 1.22 2.72 1.22 2.72-2.35.51-4.06-7.75-1.81-11.63-1.11-6.51 3.93-3.14 5.36z" fill="none" stroke="#fff" stroke-linecap="round" stroke-linejoin="round" stroke-width=".98"/><path d="M67.45 61.84c-.92-.18-1.94 1.06-2.27 2.76s.15 3.23 1.08 3.41c.92.18 1.94-1.06 2.27-2.76s-.15-3.23-1.08-3.41z" fill="#fff" stroke="#fff" stroke-linecap="round" stroke-linejoin="round" stroke-width=".98"/><path d="M65.39 54.6c-6.28 2.27-10.65 11.93-10.91 17.82-.26 5.89.73 12.65.73 12.65l11.44 1.44s7.89-7.41 8.11-19.05c.22-11.64-3.08-15.13-9.37-12.86zm5.3 16.18c-.94 4.88-3.85 8.43-6.5 7.92-2.65-.51-4.03-4.88-3.09-9.77s3.85-8.43 6.5-7.92c2.65.51 4.03 4.88 3.09 9.77zM87.63 61.84c-.92.18-1.41 1.71-1.08 3.41s1.35 2.94 2.27 2.76c.92-.18 1.41-1.71 1.08-3.41s-1.35-2.94-2.27-2.76z" fill="#fff" stroke="#fff" stroke-linecap="round" stroke-linejoin="round" stroke-width=".98"/><path d="M98.7 65.3c-1.63-5.79-4.38-11.8-11.35-12.17-6.98-.37-8.53 4.01-7.64 14.25s6.71 19.57 6.71 19.57l12.29-2.19c1.86-4.29 1.63-13.67 0-19.46zm-7.82 13.39c-2.65.51-5.56-3.03-6.5-7.92s.44-9.26 3.09-9.77c2.65-.51 5.56 3.03 6.5 7.92s-.44 9.26-3.09 9.77z" fill="#fff" stroke="#fff" stroke-linecap="round" stroke-linejoin="round" stroke-width=".98"/></svg>