<svg xmlns="http://www.w3.org/2000/svg" viewBox="0 0 192 159"><path fill="#fff" stroke="#fff" stroke-linejoin="round" stroke-width=".54" d="M32.64 102.45l10.71-32.83-12.23-30.75 9.09-3.96 8.29 20.26 7.26-24.02 9.07-2.8L53.14 67.3l11.57 28.16-10.18 2.32-6.51-16.21-6.16 19.21-9.39 2.18.17-.51z"/><path d="M154.34 126.41c-2.57-.27-5.18-.48-7.17-2.13-4.15-3.43-5.57-6.71-6.01-12.09l-.62-7.68c-.29-3.52-.43-6.91-.12-10.4s1.37-6.79 4.24-9.2 6.53-3.78 10.42-4.2c2.66-.29 5.38-.52 7.91.46 5.24 2.05 6.5 10.31 7.04 15.99.43 4.43.6 8.77.37 13.21-.09 1.8-.48 3.56-.92 5.29-.95 3.72-3.44 6.35-6.54 8.42-2.59 1.73-5.24 2.69-8.61 2.33zm7.07-15.08l-.02-5.72-.49-5.26-1.29-8.28c-.22-1.42-.94-3.65-2.37-4.26-2.92-1.24-6.13.68-7.25 3.57s-.99 5.98-.67 9.08l1.1 10.59c.28 2.72 1.12 5.51 3.11 7.48 1.15 1.14 3.73.96 4.86-.03 2.1-1.83 3.02-4.52 3.01-7.16zM84.76 124.16c.02 2.2.71 4.77 2.11 5.07 2.13.45 3.71-2.31 3.73-5.37l.12-12.55.08-15.61 5.93-1.25-.11 26.65c0 1.99.61 4.05 1.85 5.56 1.12 1.37 4.05 1.01 4.74-.65 1.1-2.68 1.22-5.6 1.17-8.46l-.18-8.92c-.11-5.28-.24-10.4-.03-15.75l5.72-1.29.26 12.52c.2 9.46 1.31 19.72-2.93 27.97-1.81 2.42-4.55 3.51-7.55 3.34-2.52-.14-4.99-1.06-6.16-3.59-1.44 3.13-4.36 5.01-7.95 4.95-2.68-.04-5.06-1.41-5.95-4.13-.71-2.17-.83-4.59-.83-7.01l.02-27.4 5.65-1.19.29 27.11zM137.56 121.19c-1.63 6.77-6.82 8.73-13.44 8.83s-9.2-5.5-10.32-11.44c-.94-5.03-.83-9.99-.9-15.13-.05-3.76.27-7.24 1.91-10.61 1.08-2.23 2.71-3.4 5-4.34 4.11-1.67 8.64-2.47 12.96-.69 5.67 2.34 5.5 18.03 5.49 24.83 0 2.92-.03 5.74-.7 8.54zm-8.57-1.33l.37-3.96.07-7.57c.04-3.75-.31-7.39-1.01-11.05-.24-1.29-.71-2.4-1.5-3.44-2.44-.43-4.69.75-5.57 3.07-1.2 3.19-1.03 6.44-.89 9.82.19 4.62.55 13.47 3.79 15.5 1.85 1.16 4.53-.23 4.73-2.38zM29.88 146.35c-3.25-.59-3.96-5.94-4.48-9.44.03-7.35-.76-15.3 1.48-22.18 1.19-3.65 4.13-6.58 7.82-5.68 2.7.65 3.14 5.41 3.15 8.77l.05 13.79c.01 3.31.32 6.4-.49 9.6-.86 3.39-3.78 5.83-7.53 5.15zm4.13-13.36v-13.02c.01-.96-.39-2.67-1.12-3.07-1.46-.81-3.05.52-3.28 1.88l-.47 2.81v13.58c0 1.61.84 3.87 2.29 3.79 1.77-.09 2.58-3.57 2.58-5.97zM66.2 120.14c-3.8-.89-5.43-3.59-5.43-7.44v-3.87l.16-6.84 5.05-1.02c-.31 4.33-.53 8.21.73 12.09.51 1.58 2.22 2.69 3.73 1.74.89-.56 1.56-2.08 1.59-3.2.12-4-.11-7.64-.47-11.78l4.36-1.01.28 3.57.03 5.13c.03 4.9-.76 10.64-5.32 12.11l-.15 13.47-.11 5.68-4.37.68-.07-19.29zM16.39 147.86c-.98.44-2.1.61-3.22.53v-35.86l3.19-.73v17.97l3.86-.72v-18.08l3.39-.61.23 15.22.08 21.21-3.7.74-.04-14.18-3.81.71v13.8zM63.73 134.26l.15 5.58L52 141.77v-37.78l4.33-1.05c.46.28.31 1.08.3 1.66l-.16 30.92 7.26-1.26zM49.82 136.72v5.45l-10.08 1.64-.02-37.07 4.11-.86v31.8l5.98-.96zM161.45 39.12c-2.06-2.01-4.6-3.14-7.16-4.27l-3.68-1.63c-1.05-.46-1.97-1.59-2.16-2.41-.52-2.22 1.16-4.77 4.14-4.94 1.77-.1 3.18.55 3.85 2.28.32.82.51 2.28.29 3.25.15-.02.34-.02.43-.02l6.83-3.03-.15-1.91c-.39-4.78-1.93-11.79-6.66-12.31-4.98-.55-9.47 2.03-12.1 6.23-2.24 3.57-3.39 7.5-3.99 11.74-.59 4.15.55 8.56 3.49 11.63 3.66 3.82 9.34 5.63 12.59 8.82 2.12 2.09 2.85 5.14 1.73 7.84-.8 1.93-2.68 2.6-4.68 2.5-3.33-.17-4.76-4.03-4.85-7.94l-8.24 2.58c.46 5.36 1.74 10.83 5.07 14.57 2.1 2.36 4.77 2.52 7.58 2.24 6.06-.58 10.6-4.39 12.02-10.45 1.83-7.82 1.57-19.01-4.32-24.78zm.94 22.86c-.86 3.26-3.22 5.49-6.49 6.08-6.69 1.21-11.75-3.15-12.37-9.77.84 1.2.95 2.56 1.44 3.74 1.81 4.33 6.23 6.39 10.76 5.53 4.96-.94 6.44-4.33 6.71-9.09.37-6.4-2.98-12.32-8.74-15.14-2.44-1.19-4.41-2.96-6.34-4.75-2.49-2.32-3.39-5.24-2.65-8.54.83-3.72 2.64-7.17 6.05-9.2 1.52-.9 3.97-1.3 5.59-.46 2.33 1.2 3.26 3.75 4.01 6.06.26.8.5 1.41.16 2.2l-1.72-4.8c-.44-1.23-1.72-2.71-3.01-3.13-5.56-1.84-11.57 5.97-10.65 13.01.45 3.42 5.05 7.25 8.27 8.86 4.24 2.12 7.68 5.62 8.89 10.34l.53 2.08.09 5.06-.51 1.94zM31.63 68.47l-12.41 3.32-.02-9.11 12.43-3.53-.04-8.72-19.27 5.74v46.8l19.28-4.56.02-9.38-12.38 3.01-.03-11.03 12.41-3.23.02-9.3zm-16.47 9.15l.13 1.98-.05 11.86v2.03l-.14 4.05 15.11-3.6.05.55-15.49 3.69-.02-19.65v-19.4l15.22-4.32c-.3.69-.94.82-1.61 1.03l-12.91 3.61c-.37.17-.37 1.35-.15 1.73V75l-.07 2.03 14.96-3.79.04.52-15.08 3.86zM136.05 51.45c-1.31-3.72-4.08-6.54-7.65-8.07l-5.16-2.21c-.91-.39-2.02-1.49-2.04-2.49-.04-1.66.59-3.09 1.51-4.4 1.03-1.47 3.62-1.84 4.65-.19 1.05 1.69 1.27 3.68 1.71 5.79l6.41-3.11c.25-3.23-.25-6.39-1.44-9.24-1.21-2.89-3.7-4.08-6.66-4.12-3.88-.05-7.36 1.44-9.37 4.91-1.26 2.18-2.34 4.62-2.75 7.18l-.53 3.25c-.34 2.12-.17 4.23-.01 6.43.05.73.51 1.93.77 2.7 1.38 3.99 6.51 6.7 10.38 8.85 1.92 1.06 3.72 2.59 4.63 4.54.82 1.75 1.42 3.73.45 5.48-1.03 1.85-3.27 3.06-5.48 3.09-2.16.03-3.62-4.35-4.17-7.44l-6.86 1.96.65 3.88c.4 2.39.7 4.85 1.68 6.98 1.16 2.52 3.24 3.99 5.97 3.94l3.29-.05c.85-.01 1.67-.27 2.49-.48 7.21-1.83 8.47-7.13 9.06-14.09.38-4.45-.03-8.87-1.52-13.1zm-2.52 17.53c-2.3 5.34-8.91 7.98-11.83 4.6-2.07-2.4-3.41-5.23-4.34-8.43h.56c.72 3.17 3.08 7.97 5.74 9.14 3.67 1.02 7.24-1.55 8.96-4.57 2.47-4.32 2.02-10.78-1.26-14.71-5.53-6.63-15.14-8.98-13.25-18.51.1-3.09 1.57-5.88 4.16-7.52 1.24-.78 2.58-.93 4.01-.94 1.53 0 2.67.39 3.61 1.67 1.66 2.25 2.51 4.98 2.55 7.94-.44-.51-.64-1.2-.73-1.96-.26-2.27-1.14-4.39-2.58-6.06-.74-.86-1.53-1.01-2.55-1.08-5.38-.34-8.22 4.46-8.23 9.31-.01 6.3 3.13 7.95 7.51 11.52l3.13 2.55c5.18 4.22 7.21 10.82 4.53 17.03zM98.63 73.19l-.04-12.13 12.22-3.11-.02-10.35-12.22 3.35.06-10.08 12.2-3.5-.06-9.59-11.18 3.24-6.94 2.09V84.5l18.17-4.32V70.17l-12.18 3.01zm-3.02 5.75V36.33l12.93-3.67.36-.09c.08-.02.35.28.28.32l-.63.33-12.66 3.58.06 19.61 13.3-3.31-.16.54-13.1 3.37-.06 1.63V76.6l.05 1.76 13.06-3.14.26.48-13.67 3.25zM83.46 66.65c-.52 3.68-1.08 7.08-3.61 9.14-3.1.87-4.2-4.15-4.71-7.76l-.84-5.88c-.37-2.61-.15-5.28-.04-7.93.08-1.86.56-3.74 1.5-5.2.87-1.35 2.27-1.66 3.64-.88 1.31.75 1.91 2.03 2.61 3.56l4.25-5.05c.35-.42-.04-1.71-.12-2.25-.41-2.51-1.42-4.76-3.13-6.65-2.5-2.77-7.29-1.42-9.69 1.44-1.88 2.24-2.7 4.97-3.36 7.79-.7 3-1.39 5.88-1.6 8.96l-.46 6.91.14 4.77c.66 6.23 2.7 13.51 6.44 18.42 1.16 1.52 2.78 1.76 4.59 1.75 1.56 0 3.01-.16 4.11-1.4 3.11-3.51 4.38-9.29 4.46-13.92l.09-5.23-4.27-.58zm-3.78 15.88c-5.55.79-7.91-6.5-8.64-11.97l-.44-3.31c-.5-3.75-.33-7.55-.05-11.31.27-3.67.7-7.19 2.28-10.45 1.32-2.72 4.15-4.59 7.16-3.84 2.56.64 4.46 3.27 4.45 5.79-1.1-1.78-1.4-3.73-3.18-4.7-2.7-1.47-6.05-.44-7.57 2.24-1.27 2.23-2.08 4.6-2.3 7.18l-.32 3.79c-.63 7.44.04 26.6 7.85 26.14 1.8-.11 3.43-.97 4.26-2.75.9-1.93 1.34-4.02 1.45-6.16l.15-2.81c.03-.57.1-1.04.49-1.35.09 5.28-.48 12.79-5.58 13.52z" fill="#fff"/><path fill="none" stroke="#fff" stroke-linejoin="round" stroke-width=".54" d="M179.88 1.71L191 6.36v125.69l-11.12-2.54V1.71zM42.67 43.46L1 56.14v100.27l178.88-26.9M53.17 40.27l-2.61.79M179.88 1.71L70.98 34.85M191 132.05L14.23 157.29 1 156.41M40.21 34.91l10.35 6.15.77 4.74"/><path fill="none" stroke="#fff" stroke-linejoin="round" stroke-width=".54" d="M64.83 28.35l6.15 6.5-11.46 34.03 11.46 28.21-10.21 2.42-6.24-1.73M64.71 95.46l6.27 1.63M32.47 102.96l5.5 1.17 9.27-2.07 3.93-12.65M41.86 100.78l5.38 1.28M53.14 67.3l6.38 1.58"/></svg>