<svg xmlns="http://www.w3.org/2000/svg" width="230" height="124" viewBox="0 0 230 124"><path d="M227.82,2.18V121.52H2.18V2.18H227.82M230,0H0V123.7H230V0Z" fill="#fff"/><path d="M60.66,15.33h11V41.61h-7.1V23.83c0-.51,0-1.23,0-2.15s0-1.63,0-2.13L57.67,41.61H50.26L43.4,19.55q0,.75,0,2.13c0,.92,0,1.64,0,2.15V41.61h-7.1V15.33H47.44L54.08,36Z" fill="#fff"/><path d="M100,20H82.44v5.58H98.53v4.57H82.44v6.75h18.33v4.73H75.68V15.33H100Z" fill="#fff"/><path d="M104.53,15.33h6.92V36.88H128v4.73H104.53Z" fill="#fff"/><path d="M39.88,49.05a11.1,11.1,0,0,1,5.65,3.34,10.67,10.67,0,0,1,2.36,4.24A16.33,16.33,0,0,1,48.52,61a14.65,14.65,0,0,1-2.66,8.88c-2.39,3.27-6.1,4.9-11.1,4.9H20.48V48.48H34.76A22.31,22.31,0,0,1,39.88,49.05Zm-12.68,4V70.2h6.39q4.9,0,6.84-3.83a11.16,11.16,0,0,0,1.06-5,10.25,10.25,0,0,0-1.59-6.16Q38.31,53,33.59,53.05Z" fill="#fff"/><path d="M78.12,72.43c-2.51,2-6.12,3.06-10.86,3.06s-8.35-1-10.85-3.06q-5-3.77-5-10.84,0-7.23,5-10.84,3.75-3.07,10.85-3.07c4.74,0,8.35,1,10.86,3.07q5,3.61,5,10.84T78.12,72.43Zm-4.33-4a9.22,9.22,0,0,0,2.42-6.84,9.25,9.25,0,0,0-2.42-6.84,8.83,8.83,0,0,0-6.53-2.42,9,9,0,0,0-6.56,2.41,9.2,9.2,0,0,0-2.45,6.85,9.16,9.16,0,0,0,2.45,6.84,9,9,0,0,0,6.56,2.41A8.83,8.83,0,0,0,73.79,68.43Z" fill="#fff"/><path d="M107.44,49.16a8.28,8.28,0,0,1,3.1,1.84,7.82,7.82,0,0,1,1.67,2.21,6,6,0,0,1,.61,2.76,6.56,6.56,0,0,1-1.19,3.68,6.49,6.49,0,0,1-3.93,2.56A6.11,6.11,0,0,1,111,64.29a7.21,7.21,0,0,1,1,4.11v1.76a10.85,10.85,0,0,0,.18,2.45,2.28,2.28,0,0,0,1.28,1.49v.66h-7.64q-.31-.87-.45-1.41a10.6,10.6,0,0,1-.29-2.26l0-2.44c0-1.68-.4-2.8-1.1-3.35s-2-.84-3.94-.84H93.14v10.3H86.38V48.48h15.84A17.82,17.82,0,0,1,107.44,49.16Zm-14.3,3.89v7.06h7.45a9.92,9.92,0,0,0,3.33-.43,2.89,2.89,0,0,0,2-3,3.16,3.16,0,0,0-1.9-3.21,8.42,8.42,0,0,0-3.2-.46Z" fill="#fff"/><path d="M127.83,48.48h7.83l11.71,26.28h-7.5l-2.18-5.4h-12.2l-2.24,5.4H116Zm-.46,16.35h8.48l-4.18-10.34Z" fill="#fff"/><path d="M169.6,49.05a11.1,11.1,0,0,1,5.65,3.34,10.67,10.67,0,0,1,2.36,4.24,16.33,16.33,0,0,1,.63,4.35,14.72,14.72,0,0,1-2.65,8.88q-3.6,4.9-11.11,4.9H150.2V48.48h14.28A22.31,22.31,0,0,1,169.6,49.05Zm-12.68,4V70.2h6.39q4.91,0,6.84-3.83a11.16,11.16,0,0,0,1.06-5,10.25,10.25,0,0,0-1.59-6.16Q168,53,163.31,53.05Z" fill="#fff"/><path d="M208.31,72.43q-3.75,3.06-10.85,3.06t-10.85-3.06q-5-3.77-5-10.84,0-7.23,5-10.84,3.75-3.07,10.85-3.07t10.85,3.07q5,3.61,5,10.84T208.31,72.43Zm-4.32-4q2.41-2.4,2.41-6.84A9.25,9.25,0,0,0,204,54.75a8.83,8.83,0,0,0-6.53-2.42,9,9,0,0,0-6.56,2.41,9.2,9.2,0,0,0-2.45,6.85,9.16,9.16,0,0,0,2.45,6.84,8.93,8.93,0,0,0,6.56,2.41A8.83,8.83,0,0,0,204,68.43Z" fill="#fff"/><path d="M53.93,98.9a4.75,4.75,0,0,0,1.27,2.69c1.14,1.08,3.11,1.62,5.89,1.62a15.54,15.54,0,0,0,4.06-.43c2-.54,3-1.56,3-3a2.21,2.21,0,0,0-1.45-2,19,19,0,0,0-4.6-1.23l-3.58-.62a26,26,0,0,1-7.26-2,6,6,0,0,1-3.35-5.69,7,7,0,0,1,3.27-5.86C53.33,80.74,56.53,80,60.76,80a17.57,17.57,0,0,1,9,2.2,7.41,7.41,0,0,1,3.93,6.4H67.08a3.81,3.81,0,0,0-2.67-3.37,11.24,11.24,0,0,0-4.13-.66,9.49,9.49,0,0,0-4.37.85,2.64,2.64,0,0,0-1.64,2.39,2.27,2.27,0,0,0,1.61,2.11A24.43,24.43,0,0,0,60.28,91l5.82,1.09A17,17,0,0,1,71.82,94a6,6,0,0,1,3,5.37,7.05,7.05,0,0,1-3.5,6q-3.51,2.37-9.92,2.38t-10.28-2.35a7.25,7.25,0,0,1-3.75-6.44Z" fill="#fff"/><path d="M78.5,107V80.73h6.87v10H98.25v-10h6.87V107H98.25V95.28H85.37V107Z" fill="#fff"/><path d="M136.73,104.67q-3.75,3.08-10.85,3.07c-4.74,0-8.35-1-10.86-3.07q-5-3.75-5-10.84T115,83c2.51-2,6.12-3.06,10.86-3.06s8.35,1,10.85,3.06q5,3.63,5,10.84T136.73,104.67Zm-4.33-4a9.25,9.25,0,0,0,2.42-6.85A9.24,9.24,0,0,0,132.4,87a8.81,8.81,0,0,0-6.52-2.42A8.93,8.93,0,0,0,119.32,87c-1.64,1.6-2.45,3.88-2.45,6.84s.81,5.25,2.45,6.85a8.93,8.93,0,0,0,6.56,2.41A8.8,8.8,0,0,0,132.4,100.68Z" fill="#fff"/><path d="M148.79,80.73l4.38,15,1,4.19.95-4.11,3.74-15.13h7.31l3.93,15,1,4.19,1-4,4.42-15.21h7L174.22,107H167.6l-4-15.37-1.17-5.08-1.17,5.08-4,15.37h-6.42l-9.39-26.28Z" fill="#fff"/><path d="M20.93,34.94H22.6v2.82h7.76v2H22.6v2.84H20.93Z" fill="#fff"/><path d="M30.36,33.8H20.93v-2h3.59V28.18H20.93v-2h9.43v2H26.15v3.66h4.21Z" fill="#fff"/><path d="M22.6,17.35v5h2V17.76h1.64v4.58h2.42V17.12h1.7v7.15H20.93V17.35Z" fill="#fff"/><polygon points="147.38 15.33 138.34 15.33 129 27.34 138.34 39.34 147.38 39.34 138.34 27.34 147.38 15.33" fill="#fff"/><polygon points="161.2 15.33 152.17 15.33 142.83 27.34 152.17 39.34 161.2 39.34 152.17 27.34 161.2 15.33" fill="#fff"/><polygon points="175.03 15.33 166 15.33 156.66 27.34 166 39.34 175.03 39.34 166 27.34 175.03 15.33" fill="#fff"/><polygon points="188.86 15.33 179.82 15.33 170.49 27.34 179.82 39.34 188.86 39.34 179.82 27.34 188.86 15.33" fill="#fff"/><polygon points="202.69 15.33 193.65 15.33 184.31 27.34 193.65 39.34 202.69 39.34 193.65 27.34 202.69 15.33" fill="#fff"/><path d="M37.49,79.58H21a2.16,2.16,0,0,0-2.16,2.16v23.11A2.16,2.16,0,0,0,21,107H37.49a2.16,2.16,0,0,0,2.16-2.16V81.74A2.16,2.16,0,0,0,37.49,79.58ZM29.32,104H21.15l8.17-10.85L21.15,82.32h8.17l8.44,10.85Z" fill="#fff"/></svg>