<svg xmlns="http://www.w3.org/2000/svg" viewBox="0 0 300 72"><path d="M41.45 37.4c-.64-5.97-10.38-8.18-10.38-8.18s5.69-1.35 4.83-8.96c-.85-7.61-13.3-8.18-18.91-7.75C11.38 12.94.15 14.93 0 18.42c-.14 3.48 3.7 2.84 4.62 4.98s2.99 29.22 5.19 30.43c2.2 1.21 18.13 2.77 24.67-2.06 6.54-4.83 7.61-8.39 6.97-14.36zM11.81 27.3c-.71-.71-.86-6.91-.36-7.32 1.56-1.28 13.44-2.42 14.79-.64 1.35 1.78.92 3.06-2.91 5.19-3.84 2.13-10.81 3.48-11.52 2.77zm11.37 20.76c-1.92-1.92-7.04-2.28-7.89-3.2s-1.93-10.26-.85-10.52c13.08-3.2 19.55-.07 19.62 5.9.07 5.85-8.96 9.74-10.88 7.82z" fill="#fff"/><path d="M70.07 50.45c-1.68-2.82-2.5-12.65-2.5-16.18s-4.51-2.55-4.51-2.55c-.38-2.39-6.73-8.2-14.17-2.82-7.44 5.38-7.87 19.11-1.79 23.46 6.08 4.34 11.94-1.57 13.36-2.88 1.41-1.3 1.9.16 2.01 2.01s9.28 1.79 7.6-1.03zm-14.55-7.06c-1.19 1.09-2.93 2.93-4.89 2.12-1.95-.81-.87-6.62 1.57-8.52 2.44-1.9 5.05-1.85 5.97-.81 1.56 1.74-1.47 6.14-2.66 7.22zM98.52 26.69c-4.36-.26-8.64 4.36-10.86 10.94-2.22 6.58-.26 17.01 8.29 16.29 8.55-.72 11.71-11.59 11.97-17.42.26-5.83-4.17-9.51-9.4-9.81zm1.94 16.77c-1.94 3.41-4.52 3.73-6.36 3.36-1.84-.37-2.78-4.68-.37-8.14 2.42-3.47 4.15-3.47 5.25-3.41 3.73.18 3.41 4.78 1.47 8.19zM118.27 31.44s-2.44-5.28-5.12-4.77-4.17 2.88-3.54 6.65 1.42 15.98 1.42 19.2 6.69 3.07 6.69-1.02.79-14.56 3.62-15.5 5.67-1.39 6.22 5.09.08 12.87 2.28 13.69 5.9.9 5.51-5.4-1.54-19.54-8.5-20.3c-5.04-.55-8.58 2.36-8.58 2.36zM152.11 28.92c-4.56-1.18-12.83-2.99-15.19 6.85s2.12 19.99 10.07 19.83c7.95-.16 10.23-7.16 9.92-8.42-.31-1.26-10.62 0-10.62 0v-2.44s10.07-7.05 11.65-8.24-1.26-6.39-5.82-7.57zm-2.28 6.3c-.08.63-3.31 2.91-5.43 2.12-1.29-.48 1.38-3.46 2.93-3.46s2.57.71 2.5 1.34z" fill="#fff"/><path d="M162.89 47.57c.24-1.95-2.12-2.12-2.05-9.6.08-7.48.08-9.52 2.99-9.52s3.23 5.12 3.23 7.24.24 2.91 1.97 3.07 7.87-7.16 9.76-8.42 4.96-1.18 4.17 3.54-13.85 17.86-18.02 23.85-9 16.89-14.09 13.38c-5.82-4.01 11.49-19.04 12.04-23.53zM86.01 18.88l.03.99c0-.33-.02-.66-.03-.99zM86.06 22.74c.01-.89.01-1.76 0-2.61.02.85.02 1.72 0 2.61zM84.21 28.96c-2.86 0-5.18-2.66-5.18-5.95s2.32-5.95 5.18-5.95c.6 0 1.18.12 1.71.34.03.39.05.78.07 1.18-.19-4.05-.81-7.49-2.13-9.7-3.13-5.27-5.9-5.54-5.9-5.54V.21l-.98.45-1.79-.45-1.34.45-.63 1.12s-1.51.67-1.56 1.56c-.05.89 1.38 2.77 1.38 2.77s-3.66 4.83-1.38 11.09c2.28 6.26 4.15 13.44 1.74 20.31-2.41 6.87-4.11 11.16-.89 15.01l-4.38 3.09 1.52 1.56s1.52 0 1.61.36.41 1.88.41 1.88h4.06v-4.83s7.6-2.76 8.94-14.25c.43-3.73.86-7.73 1.13-11.64-.5.18-1.03.29-1.59.29zM86.03 24.15l.03-1.21c0 .4-.02.8-.03 1.21zM86.02 24.31c-.03.94-.07 1.9-.13 2.87.05-.97.1-1.93.13-2.87zM85.8 28.67l.09-1.48-.09 1.48z" fill="#fff"/><path d="M81.21 23.01c0 2.28 1.65 4.13 3.69 4.13.35 0 .69-.06 1.01-.16.15-2.76.21-5.43.11-7.9-.35-.13-.73-.2-1.12-.2-2.04 0-3.69 1.85-3.69 4.13z" fill="#fff"/><path d="M77.97 3.34V.21l-.98.45L75.2.21l-1.34.45-.63 1.12s-1.51.67-1.56 1.56 1.38 2.77 1.38 2.77-3.66 4.83-1.38 11.09 4.15 13.44 1.74 20.31-4.11 11.16-.89 15.01l-4.38 3.09 1.52 1.56s1.52 0 1.61.36.41 1.88.41 1.88h4.06v-4.83s7.6-2.76 8.94-14.25 2.62-25.65-.8-31.43c-3.13-5.27-5.9-5.54-5.9-5.54z" fill="none" stroke="#fff" stroke-linejoin="round" stroke-width=".33"/><ellipse cx="206.63" cy="16.82" rx="1.87" ry="2.41" fill="#fff"/><ellipse cx="203.68" cy="65.99" rx="1.87" ry="2.41" fill="#fff"/><path d="M198.73 51.06c1.05 2.71 9.71-.27 11.51 0s1.33 1.6-.53 2.59-14.82 4.37-16.03-2.61c-.8-4.57 6.59-9.5 6.59-9.5s-4.79-.6-4.86-3.46 11.11-9.12 14.04-10.98 6.92-1.3 4.59 1.35-11.46 6.23-11.18 7.7c.47 2.46 10.31-3.06 11.04-1.2s-4.96 4.44-7.78 6.79-8.52 6.39-7.39 9.31z" fill="#fff"/><path fill="none" stroke="#fff" stroke-linecap="round" stroke-miterlimit="10" d="M174.98 48.24l6.01-.64M177.98 47.92v5.47"/><path fill="none" stroke="#fff" stroke-linecap="round" stroke-linejoin="round" d="M181.62 53.61v-4.43l2.22 2.22 2.48-2.49v4.89"/><path d="M234.18 30.93s.47-9.86.42-11.7-2.04-2.63-2.32-.25-1.53 12.27-1.21 16.64c0 0-1.21 2.26-.05 4.69 0 0 1.21 16.42 3.16 16.64s-.36-11.63.43-11.95 12.37 12.16 14.26 13.79 3.47-.58 1.63-2.9-8.53-10.16-16.42-15.53l.05-4.26s12.32-10.79 15.37-13.79 4.47-4.84 3.79-5.84-3.74.26-6.63 3.26-10.53 11.48-12.48 11.21zM259.45 24.88c-.89.13-1.11 2.63-.79 3.05s1.32.32 1.47-.21 1.37-2.05 1.32-2.42-.89-.58-2-.42zM259.55 56.82c-1.2-.66-3.34-4.4-1.67-11.02s1.91-9.13.65-9.3-3.19 1-3.56 5.77-1.97 15.37 2.6 16.29c3.89.78 3.89-.68 1.98-1.73zM279.35 56.16c-1.13-1.13-1.58-6.67-1.24-10.29 0 0 .79-12.95 2.6-17.2 1.81-4.24 3.56-8.94 2.6-9.45-.96-.51-2.49-.68-3.62 2.55-1.13 3.22-2.49 12.95-3.96 13.24s-7.58 1.36-9.45 11.37c-1.87 10.01.85 12.94 4.58 12.41 3.73-.53 5.03-2.79 5.03-2.79s1.41 3.21 3.28 2.79 3.34-1.72 3.17-2.57c-.17-.85-1.87 1.07-3-.06zm-3.56-4.47s-1.87 3.39-3.45 3.9c-1.58.51-3.51.85-3.79-1.41s-.45-8.48 2.38-12.05 4.86-2.77 4.86-2.77v12.33zM290.38 39.28c.11 2.24 2.43 3.7 4.92 4.94s4.75 4.3 4.69 7.07-3.85 6.9-7.64 6.39-4.75-2.21-2.38-2.04 7.35-1.24 7.01-4.69-9.9-6.45-10.01-10.86 3.79-6.96 6.28-7.18 2.38 2.26.57 2.88-3.51 2.3-3.45 3.49z" fill="#fff"/></svg>