<svg xmlns="http://www.w3.org/2000/svg" width="250" height="50" viewBox="0 0 250 50"><path d="M46.24,28.39c.88,0,1.75,0,2.62,0,.66,0,.93-.19.88-.87-.13-2.07-.29-4.13-.35-6.2-.18-5.85-.45-11.7-.4-17.55C49,1.45,49.38,1,51.76.44a8.18,8.18,0,0,1,5,.6A1.56,1.56,0,0,1,57.93,3a75.44,75.44,0,0,0-.45,15.61c.26,3.68.33,7.36.66,11,.42,4.66,1,9.3,1.53,13.94.13,1.16.3,2.29-.57,3.28A3.94,3.94,0,0,1,55,48.1a9.26,9.26,0,0,1-2.55-1,2,2,0,0,1-.89-1.31c-.5-4.21-.94-8.43-1.36-12.65-.07-.74-.31-1-1.06-1-1.69,0-3.38-.17-5.07-.23-.89,0-1,.07-.91,1,.25,3.88.46,7.76.8,11.63.26,2.83-.66,3.52-3.29,3.57a7.13,7.13,0,0,1-4.08-1.1,1.85,1.85,0,0,1-.9-1.51c-.35-4.94-.75-9.88-1.08-14.83-.26-3.75-.41-7.5-.66-11.25-.2-3-.48-6-.73-9-.22-2.68-.48-5.35-.66-8-.11-1.59-.06-1.69,1.52-2a8.68,8.68,0,0,1,5.7.48,1.63,1.63,0,0,1,1,1.42q.45,5.36.89,10.69.48,6,1,11.92c.07.87.11,1.74.11,2.6,0,.64.19.95.88.92.87-.05,1.74,0,2.61,0Z" fill="#fff"/><path d="M189.65,37.1c.19-6.72.36-12.06.49-17.4.06-2.55.12-5.11.07-7.67s-.23-5.25-.32-7.88c0-1.47.33-2.08,1.77-2.44a7.34,7.34,0,0,1,5.79.56,1.93,1.93,0,0,0,1.24.1,12.34,12.34,0,0,1,8.69,1.33A4.66,4.66,0,0,1,209.94,7c.49,3,1.05,6,1.36,9.08a38.39,38.39,0,0,1,.18,7.11c-.23,3-.74,6.07-3.44,8.12-.45.35-.19.65,0,1,1.19,1.84,2.48,3.64,3.54,5.56,1.32,2.41,2.46,4.93,3.67,7.4a3.12,3.12,0,0,1,.24.73c.48,1.88-.38,3-2.32,2.83a10.09,10.09,0,0,1-4.74-1.38,5.1,5.1,0,0,1-2.19-2.67,43.4,43.4,0,0,0-5.73-10.88,1.45,1.45,0,0,0-1.7-.47c-.17,0-.35.52-.36.8-.07,3.47-.1,6.95-.17,10.42,0,1-.12,2-.21,3.06a1.14,1.14,0,0,1-.88,1,9.67,9.67,0,0,1-6-.13,1.66,1.66,0,0,1-.9-1,13.12,13.12,0,0,1-.39-2.72C189.77,41.8,189.7,38.76,189.65,37.1Zm8.92-18.43h0c0,3.17,0,6.34,0,9.51,0,.26.19.7.38.76a2.29,2.29,0,0,0,3.23-1.64,22.63,22.63,0,0,0,1.17-7.24c-.1-2.95-.44-5.9-.62-8.86a5.15,5.15,0,0,0-1.92-3.53.91.91,0,0,0-1.37,0,3.15,3.15,0,0,0-.86,1.7C198.52,12.44,198.57,15.56,198.57,18.67Z" fill="#fff"/><path d="M123.41,33.82c-.2-4.92-.35-9.85-.62-14.78s-.63-9.69-1-14.53a3.59,3.59,0,0,0,0-.46c-.35-1.59-.31-1.66,1.25-2.18A20.32,20.32,0,0,1,131.78.5c3.58.42,7,1.45,9.38,4.44a7.86,7.86,0,0,1,1.46,5,22.75,22.75,0,0,1-.33,4.12A41.28,41.28,0,0,1,141,19.41a7.63,7.63,0,0,1-1.48,2.28c-.33.41-.43.66.07,1a10.62,10.62,0,0,1,3.52,3.78,11.12,11.12,0,0,1,1.11,3.08,19.1,19.1,0,0,1,.61,7.59A17.38,17.38,0,0,1,141.08,46a7.54,7.54,0,0,1-4.82,2.7,51.09,51.09,0,0,1-9.5-.07,9.48,9.48,0,0,1-1.88-.37c-.95-.24-1.23-.64-1.25-1.64l-.27-12.8Zm6.59-.21c-.06,0,.12,5.56.31,8.34A1.83,1.83,0,0,0,132,43.8a3.45,3.45,0,0,0,4.07-1.94,17.44,17.44,0,0,0,2-6.85,9.89,9.89,0,0,0-1.49-6.74c-1.46-2.15-3.07-3.89-6-3.48-.69.09-.93.34-.9,1C129.83,28.4,129.91,31,130,33.61Zm-.89-24.52a32.74,32.74,0,0,1,.32,4.52c0,1.53.06,3.07.18,4.6.18,2.29-.32,2.25,2.27,2a3.51,3.51,0,0,0,3.33-2.5,8.83,8.83,0,0,0,.46-2.48c.07-1.94.06-3.88,0-5.82a4.86,4.86,0,0,0-5.85-4.65c-.52.1-.74.32-.73.86C129.13,6.79,129.11,7.94,129.11,9.09Z" fill="#fff"/><path d="M25.09,21.31A14.66,14.66,0,0,1,23,26.62a10.14,10.14,0,0,1-6.61,5A26.89,26.89,0,0,1,12,32c-.7,0-.89.24-.83.9.26,3.24.55,6.47.71,9.71A10.15,10.15,0,0,1,11.49,46c-.68,2.25-2.76,3.06-5,2.13a4.4,4.4,0,0,1-2.94-4.23c-.21-4-.6-8.1-.9-12.15-.31-4.25-.56-8.51-.92-12.76-.21-2.51-.55-5-.85-7.52C.67,9.44.4,7.4.16,5.34A9.62,9.62,0,0,1,0,3.07C.21,1.47,1.17.62,3.06.36A26.18,26.18,0,0,1,6.13.23a1.23,1.23,0,0,1,1.32.84c.22.61.62.67,1.21.55a13.93,13.93,0,0,1,8.23.45A8.9,8.9,0,0,1,19,3.18,19.63,19.63,0,0,1,23.85,7.8a8.82,8.82,0,0,1,1.22,2.69C25.48,12.27,25.75,18.59,25.09,21.31Zm-6.66-2.68a45.25,45.25,0,0,0-.86-6.79C16.77,8.36,14.5,6,10.68,6.1,8.77,6.15,8.74,5.72,9,8q.59,6.57,1.2,13.13c.17,1.75.38,3.5.57,5.26,0,.41.14.77.64.79a5.5,5.5,0,0,0,4.55-1.62C17.68,23.66,19,21.47,18.43,18.63Z" fill="#fff"/><path d="M169,48.68c-3,0-6.1,0-9.14,0a4.27,4.27,0,0,1-1.55-.39,2,2,0,0,1-1.28-2c-.24-3.18-.63-6.35-.92-9.53-.21-2.32-.38-4.64-.53-7-.26-3.87-.57-7.75-.7-11.63-.17-5-.21-10-.28-15,0-1.18.46-1.67,1.81-2a7.65,7.65,0,0,1,2-.24q7.46.06,14.9.19a6.79,6.79,0,0,1,1.74.27,1.71,1.71,0,0,1,1.29,1.55,1.69,1.69,0,0,1-1.25,1.57,5.86,5.86,0,0,1-1.51.22c-3.1,0-6.2,0-9.3,0-1.06,0-1.09.09-1.06,1.15.11,3.34.17,6.69.25,10,.11,4.16.22,8.32.3,12.49,0,.75.28,1,1.05,1,3.1.05,6.19.14,9.29.31a4,4,0,0,1,1.94.8,1.19,1.19,0,0,1-.27,2.18,4.48,4.48,0,0,1-1.71.32c-3,0-6,0-9,0-1,0-1,.09-.94,1,.24,2.24.44,4.48.66,6.71.12,1.22.26,2.44.37,3.66a.82.82,0,0,0,.94.85c3.23,0,6.46,0,9.68.09a10.43,10.43,0,0,1,2.91.57,1.38,1.38,0,0,1,.78,1,1.47,1.47,0,0,1-.54,1.2,4.35,4.35,0,0,1-2,.63c-2.63.07-5.27,0-7.91,0Z" fill="#fff"/><path d="M237.65,22.14c-.11,4.26-.2,8.53-.32,12.8s-.3,8.43-.45,12.64A1.59,1.59,0,0,1,235.7,49a8.56,8.56,0,0,1-4.17.35,10.05,10.05,0,0,1-1.87-.4,1.48,1.48,0,0,1-1.1-1.57c.05-3,.13-5.93.17-8.89,0-2.2,0-4.4,0-6.6q.19-10.84.45-21.68c0-1.28.08-2.56.13-3.83,0-.6-.18-.91-.82-.92-2,0-4.1,0-6.15-.16a6.62,6.62,0,0,1-2.29-.5,2.08,2.08,0,0,1-.92-1.18c-.18-.55.17-1,.66-1.34a3.91,3.91,0,0,1,2.58-.8l21.12.42a16.87,16.87,0,0,1,5.1.48c.86.28,1.4.72,1.39,1.32a1.75,1.75,0,0,1-1.46,1.56,36.77,36.77,0,0,1-4,.4c-1.84.07-3.69,0-5.53,0-1.05,0-1.06,0-1.08,1.08l-.21,14.57v.77Z" fill="#fff"/><path d="M104.33,48.75c-2.94-.13-5.87-.3-8.81-.39a2.77,2.77,0,0,1-2.85-2.78c-.42-3.81-.89-7.61-1.38-11.4-.7-5.27-1.27-10.55-1.48-15.87-.13-3.32-.44-6.63-.62-9.94-.1-2-.11-3.93-.15-5.9A1.61,1.61,0,0,1,90.4.91a7.27,7.27,0,0,1,5.81.31A2,2,0,0,1,97.34,3c.32,6.31.58,12.61,1,18.91.38,5.11,1,10.21,1.56,15.32.21,2,.51,3.9.76,5.84.13,1,.3,1.15,1.32,1a37.17,37.17,0,0,1,11.24.39c1.11.22,1.67.74,1.73,1.56A1.79,1.79,0,0,1,113.53,48a16.24,16.24,0,0,1-3.43.66c-1.92.1-3.84,0-5.76,0Z" fill="#fff"/><path d="M77.41,5c.19,3.16.41,6.32.56,9.49.17,3.55.32,7.09.42,10.64.18,6.6.24,13.19.5,19.78A3.48,3.48,0,0,1,74,48.09a3.77,3.77,0,0,1-2.44-3.66c-.33-7.53-.58-15.07-.87-22.6q-.34-9-.71-17.93a2.94,2.94,0,0,1,2.28-3A6.44,6.44,0,0,1,75.9,1a2.1,2.1,0,0,1,1.56,2.12c0,.61,0,1.22,0,1.84Z" fill="#fff"/></svg>