<svg xmlns="http://www.w3.org/2000/svg" width="350" height="34" viewBox="0 0 350 34"><rect x="34.62" width="7.99" height="33.74" fill="#fff"/><path d="M28.94,12.73V4.14A4.16,4.16,0,0,0,24.79,0H0V33.74H24.79a4.16,4.16,0,0,0,4.15-4.14V21a4.17,4.17,0,0,0-4.15-4.15A4.16,4.16,0,0,0,28.94,12.73ZM21.5,14.54H10.66v4.74H21.5v8.47H7.92V6.43H21.5Z" fill="#fff"/><polygon points="75.99 0 47.02 0 47.02 6.43 57.52 6.43 57.52 33.74 65.5 33.74 65.5 6.43 75.99 6.43 75.99 0" fill="#fff"/><polygon points="287.16 0 258.19 0 258.19 6.43 268.68 6.43 268.68 33.74 276.67 33.74 276.67 6.43 287.16 6.43 287.16 0" fill="#fff"/><path d="M87.09,27.83V5.91h17.43V0H82.69a3.06,3.06,0,0,0-3,3.05V29.6a4.16,4.16,0,0,0,4.15,4.14h20.73V27.83Z" fill="#fff"/><path d="M213.48,27.6H199.83V0h-7.39V30.69a3.06,3.06,0,0,0,3.05,3.05h21.26a4.15,4.15,0,0,0,4.14-4.14V0h-7.41Z" fill="#fff"/><path d="M233.7,6.14h13.65v27.6h7.39V3.05a3.06,3.06,0,0,0-3.06-3h-25.4V33.74h7.42Z" fill="#fff"/><polygon points="129.35 0 129.35 15.58 116.47 15.58 116.47 0 108.48 0 108.48 33.74 116.47 33.74 116.47 19.1 129.35 19.1 129.35 33.74 137.34 33.74 137.34 0 129.35 0" fill="#fff"/><polygon points="179.09 0 179.09 15.58 166.22 15.58 166.22 0 158.23 0 158.23 33.74 166.22 33.74 166.22 19.1 179.09 19.1 179.09 33.74 187.08 33.74 187.08 0 179.09 0" fill="#fff"/><polygon points="299.03 17.77 314.01 17.77 314.01 14.25 299.03 14.25 299.03 6.43 313.74 6.43 316.02 0 291.04 0 291.04 33.74 313.74 33.74 316.02 27.32 299.03 27.32 299.03 17.77" fill="#fff"/><path d="M340.81,18.45h4.66a4.14,4.14,0,0,0,4.14-4.15V4.14A4.14,4.14,0,0,0,345.47,0H320.1V33.74h8V5.57h13.82v9.1h-10.8l11.18,19.07H350Z" fill="#fff"/></svg>