<svg xmlns="http://www.w3.org/2000/svg" width="350" height="71" viewBox="0 0 350 71"><path d="M95.92,57.49h6.23V54.4a6,6,0,0,0-.35-2.62c-.06-.06-.06-.16.1-.16h3c.18,0,.18.1.12.16a5.34,5.34,0,0,0-.41,2.62v7.31a5.06,5.06,0,0,0,.41,2.59c.06.09.06.19-.12.19h-3c-.16,0-.16-.1-.1-.19a5.8,5.8,0,0,0,.35-2.59V58.38H95.92v3.33a5.7,5.7,0,0,0,.36,2.59c.06.09.06.19-.1.19H93.11c-.16,0-.16-.1-.1-.19a5.43,5.43,0,0,0,.39-2.59V54.4A5.61,5.61,0,0,0,93,51.78c-.06-.06-.06-.16.1-.16h3.07c.16,0,.16.1.1.16a6,6,0,0,0-.36,2.62Z" fill="#fff"/><path d="M117.16,51.78c0-.08,0-.16.06-.16h1.89c.06,0,.1.08,0,.16a5.48,5.48,0,0,0-.47,2.64v5.76c0,2.56-1.4,4.61-5.05,4.61-4.41,0-5.36-2.43-5.36-4.5V54.4a5.44,5.44,0,0,0-.4-2.62c-.07-.06-.07-.16.12-.16h3c.16,0,.16.1.1.16a6.1,6.1,0,0,0-.34,2.62v5.91c0,1.88.91,3.2,3.26,3.2s3.58-1.13,3.58-3.43V54.42A5.74,5.74,0,0,0,117.16,51.78Z" fill="#fff"/><path d="M122.37,52.86c-.16-.18-.85-.91-1-1.06a.1.1,0,0,1,.06-.18h2.72a.49.49,0,0,1,.51.22l7.2,8.87V54.42a5.6,5.6,0,0,0-.47-2.64c0-.08,0-.16.06-.16h1.89c.06,0,.1.08,0,.16a5.52,5.52,0,0,0-.46,2.64V64.49a3.36,3.36,0,0,1-1.1,0l-8.4-10.31v7.53a5.62,5.62,0,0,0,.44,2.61c0,.09,0,.19-.06.19H122c-.06,0-.11-.08,0-.19a5.62,5.62,0,0,0,.44-2.61Z" fill="#fff"/><path d="M147,51.62c.22,0,.4,0,.4.35l0,1.7a.24.24,0,0,1-.26,0,4.76,4.76,0,0,0-2.66-1.22h-2v9.26c0,1.56.2,2.29.47,2.59.06.09.06.19-.1.19h-3.23c-.18,0-.18-.1-.12-.19.28-.32.48-1,.48-2.59V52.45h-2a4.79,4.79,0,0,0-2.66,1.22.26.26,0,0,1-.27,0l.06-1.7c0-.35.19-.35.41-.35Z" fill="#fff"/><path d="M152.16,61.71a5.21,5.21,0,0,0,.4,2.59c.06.09.06.19-.12.19h-3.08c-.16,0-.16-.1-.1-.19a5.61,5.61,0,0,0,.38-2.59V54.4a5.79,5.79,0,0,0-.38-2.62c-.06-.06-.06-.16.1-.16h3.08c.18,0,.18.1.12.16a5.5,5.5,0,0,0-.4,2.62Z" fill="#fff"/><path d="M156,52.86c-.16-.18-.85-.91-1-1.06a.1.1,0,0,1,.06-.18h2.72a.49.49,0,0,1,.51.22l7.2,8.87V54.42a5.6,5.6,0,0,0-.47-2.64c0-.08,0-.16.06-.16H167c.06,0,.1.08,0,.16a5.52,5.52,0,0,0-.46,2.64V64.49a3.36,3.36,0,0,1-1.1,0l-8.4-10.31v7.53a5.62,5.62,0,0,0,.44,2.61c.05.09,0,.19-.06.19h-1.86c-.06,0-.11-.08,0-.19a5.62,5.62,0,0,0,.44-2.61Z" fill="#fff"/><path d="M176.12,51.32a10.26,10.26,0,0,1,4.14.67c.37.18.45.24.35.69l-.27,1.21a.3.3,0,0,1-.36,0,4.66,4.66,0,0,0-3.72-1.66c-2.94,0-4.36,2.29-4.38,5.82s1.48,5.73,4.34,5.73a6.46,6.46,0,0,0,2.38-.39v-2c0-1.64-.21-2.33-.47-2.66-.06-.08-.06-.16.1-.16H181c.16,0,.16.08.1.16a6.08,6.08,0,0,0-.32,2.64v3c0,.11,0,.17-.2.13l-1.47-.25a9.93,9.93,0,0,1-3.28.51c-4,0-6.8-2.13-6.8-6.66S172,51.32,176.12,51.32Z" fill="#fff"/><path d="M194.1,61.48c0-1.6-1.44-2-3.17-2.59-2.19-.76-3.67-1.83-3.65-3.94,0-2.29,1.83-3.63,4.75-3.63a9,9,0,0,1,3.53.54c.36.15.4.25.36.69l-.14,1.14a.27.27,0,0,1-.34,0,4.13,4.13,0,0,0-3.39-1.48c-1.61,0-2.48.79-2.48,2.07,0,1.44,1.08,2,2.68,2.54,2.52.81,4.14,1.7,4.14,3.93,0,2.72-2.25,4-5.23,4a9.37,9.37,0,0,1-3.7-.57c-.36-.18-.36-.26-.34-.73l0-1.3c.08-.1.3-.06.38,0a4.45,4.45,0,0,0,3.62,1.67C193.12,63.86,194.1,62.9,194.1,61.48Z" fill="#fff"/><path d="M206.62,51.62c.3,0,.4,0,.4.35l0,1.52a.24.24,0,0,1-.3,0,4.13,4.13,0,0,0-2.64-1h-2.5v5.08h2.46A7.15,7.15,0,0,0,206,57.1a.12.12,0,0,1,.1,0v1.62a.09.09,0,0,1-.1.06,6,6,0,0,0-1.91-.44H201.6V63c0,.61,0,.65.57.65H204a5.13,5.13,0,0,0,3.27-1.46c.14-.12.38-.08.36,0l-.46,2a.4.4,0,0,1-.41.35h-8c-.16,0-.16-.1-.1-.19a5.43,5.43,0,0,0,.39-2.59V54.4a5.61,5.61,0,0,0-.39-2.62c-.06-.06-.06-.16.1-.16Z" fill="#fff"/><path d="M210.43,64.49h-2.09c-.12,0-.14-.1,0-.19a10.62,10.62,0,0,0,1.68-3l4.29-9.74h1.4l3.73,9.64a14.6,14.6,0,0,0,1.54,3.06c.06.08.08.23-.08.23h-3c-.21,0-.23-.06-.23-.23a9.22,9.22,0,0,0-.87-3.08L216.29,60h-4.5l-.53,1.26a5.64,5.64,0,0,0-.65,3C210.63,64.39,210.59,64.49,210.43,64.49Zm1.68-5.28H216l-1.83-4.87Z" fill="#fff"/><path d="M229,61.48c0-1.6-1.45-2-3.17-2.59-2.19-.76-3.67-1.83-3.65-3.94,0-2.29,1.82-3.63,4.75-3.63a9,9,0,0,1,3.53.54c.36.15.4.25.36.69l-.14,1.14a.27.27,0,0,1-.34,0A4.13,4.13,0,0,0,227,52.23c-1.61,0-2.48.79-2.48,2.07,0,1.44,1.08,2,2.68,2.54,2.52.81,4.14,1.7,4.14,3.93,0,2.72-2.25,4-5.24,4a9.35,9.35,0,0,1-3.69-.57c-.37-.18-.37-.26-.35-.73l0-1.3c.08-.1.3-.06.38,0a4.45,4.45,0,0,0,3.61,1.67C228.06,63.86,229,62.9,229,61.48Z" fill="#fff"/><path d="M233.15,58c0-4.1,2.8-6.71,6.82-6.71s6.84,2.61,6.84,6.71S244,64.79,240,64.79,233.15,62.17,233.15,58ZM244,58c0-3.26-1.14-5.82-4-5.82S236,54.77,236,58s1.15,5.85,3.95,5.85S244,61.32,244,58Z" fill="#fff"/><path d="M249.57,52.86l-1-1.06a.1.1,0,0,1,.07-.18h2.71c.29,0,.35,0,.51.22l7.21,8.87V54.42a5.74,5.74,0,0,0-.47-2.64c0-.08,0-.16.06-.16h1.89c.06,0,.1.08,0,.16a5.35,5.35,0,0,0-.47,2.64V64.49a3.3,3.3,0,0,1-1.09,0l-8.41-10.31v7.53a5.57,5.57,0,0,0,.45,2.61c0,.09,0,.19-.06.19h-1.87c-.06,0-.1-.08,0-.19a5.57,5.57,0,0,0,.45-2.61Z" fill="#fff"/><path d="M11.11,8.29a15.28,15.28,0,0,1,6.42,1.07c.6.3.74.4.57,1.13l-.43,1.78a.43.43,0,0,1-.54,0,7.14,7.14,0,0,0-6-2.74c-4.95,0-7.36,3.91-7.36,9.83S6.36,29,11.21,29a11.11,11.11,0,0,0,4.11-.67V24.85c0-2.75-.33-3.82-.73-4.32-.1-.13-.1-.27.16-.27h3.92c.27,0,.27.14.17.27-.4.54-.54,2.08-.54,4.32V29.7c0,.17,0,.27-.33.2l-2.08-.4a15.13,15.13,0,0,1-5.12.8C4.55,30.3,0,26.86,0,19.39,0,12.17,4.78,8.29,11.11,8.29Z" fill="#fff"/><path d="M21.85,19.33c0-6.59,4.25-11,10.6-11s10.68,4.45,10.68,11S38.88,30.4,32.45,30.4,21.85,26,21.85,19.33Zm17.5,0c0-5.32-2-9.77-6.9-9.77S25.63,14,25.63,19.33s2,9.77,6.82,9.77S39.35,24.65,39.35,19.33Z" fill="#fff"/><path d="M45.87,19.33c0-6.59,4.25-11,10.6-11s10.68,4.45,10.68,11S62.9,30.4,56.47,30.4,45.87,26,45.87,19.33Zm17.5,0c0-5.32-2-9.77-6.9-9.77S49.65,14,49.65,19.33s2,9.77,6.82,9.77S63.37,24.65,63.37,19.33Z" fill="#fff"/><path d="M71.09,29.67c.4-.54.64-2.08.64-4.32v-12c0-2.24-.24-3.82-.64-4.32-.1-.13-.1-.27.17-.27h8.06C86.65,8.75,90,13.44,90,18.83c0,6.08-3.42,11.1-10.68,11.1H71.26C71,29.93,71,29.8,71.09,29.67Zm4.65-1h3.35c5.22,0,7.13-4.42,7.13-9.84,0-4.52-1.91-8.93-7.13-8.93H75V27.76C75,28.43,75,28.7,75.74,28.7Z" fill="#fff"/><path d="M138.39,25.35c0,2.24.24,3.81.64,4.32.1.13.1.26-.17.26h-4.18c-.27,0-.27-.13-.17-.26.4-.54.64-2.08.64-4.32v-12c0-2.24-.24-3.82-.64-4.32-.1-.13-.1-.27.17-.27h4.18c.27,0,.27.14.17.27-.4.54-.64,2.08-.64,4.32Z" fill="#fff"/><path d="M144.35,29.93c-.27,0-.27-.13-.17-.26.4-.54.63-2.08.63-4.32v-12c0-2.24-.23-3.82-.63-4.32-.1-.13-.1-.27.17-.27h4.14c.27,0,.27.14.17.27-.4.54-.6,2.08-.6,4.32V27.59c0,1,.07,1.11,1,1.11h2.71A7.88,7.88,0,0,0,157,26.39c.24-.2.61-.14.54.06l-.77,2.91a.65.65,0,0,1-.7.57Z" fill="#fff"/><path d="M160.44,29.93c-.27,0-.27-.13-.17-.26.4-.54.64-2.08.64-4.32v-12c0-2.24-.24-3.82-.64-4.32-.1-.13-.1-.27.17-.27h4.15c.26,0,.26.14.16.27-.4.54-.6,2.08-.6,4.32V27.59c0,1,.07,1.11,1,1.11h2.71a7.88,7.88,0,0,0,5.25-2.31c.24-.2.61-.14.54.06l-.77,2.91a.65.65,0,0,1-.7.57Z" fill="#fff"/><path d="M187.17,18.49h10.71V13.34c0-2.24-.2-3.82-.61-4.32-.1-.13-.1-.27.17-.27h4.15c.27,0,.27.14.17.27-.44.54-.64,2.08-.64,4.32v12c0,2.24.2,3.81.64,4.32.1.13.1.26-.17.26h-4.15c-.27,0-.27-.13-.17-.26.41-.54.61-2.08.61-4.32V19.8H187.17v5.55c0,2.24.2,3.81.6,4.32.1.13.1.26-.16.26h-4.15c-.27,0-.27-.13-.17-.26.4-.54.63-2.08.63-4.32v-12c0-2.24-.23-3.82-.63-4.32-.1-.13-.1-.27.17-.27h4.15c.26,0,.26.14.16.27-.4.54-.6,2.08-.6,4.32Z" fill="#fff"/><path d="M221.2,9c-.07-.13,0-.27.1-.27h2.84c.1,0,.17.14.07.27a9.33,9.33,0,0,0-.74,4.35v9.57c0,4-2.14,7.46-7.83,7.46-7.12,0-8.36-4.11-8.36-7.29V13.34c0-2.24-.24-3.82-.64-4.32-.1-.13-.1-.27.17-.27H211c.27,0,.27.14.16.27-.4.54-.6,2.08-.6,4.32v9.9c0,3.11,1.54,5.29,5.46,5.29s6-1.88,6-5.66v-9.5A10.23,10.23,0,0,0,221.2,9Z" fill="#fff"/><path d="M229.79,10.73A19,19,0,0,0,228.22,9c-.07-.07-.07-.27.1-.27H232a.78.78,0,0,1,.81.37l12,15.13V13.37A10,10,0,0,0,244.11,9c-.06-.13,0-.27.1-.27h2.85c.1,0,.16.14.06.27a9.51,9.51,0,0,0-.73,4.35V29.93a2.3,2.3,0,0,1-1.17,0L231.33,12.5V25.32a10,10,0,0,0,.74,4.35c.06.13,0,.26-.1.26h-2.85c-.1,0-.16-.13-.06-.26a9.51,9.51,0,0,0,.73-4.35Zm1.54,1.77V25.32a10,10,0,0,0,.74,4.35c.06.13,0,.26-.1.26h-2.85c-.1,0-.16-.13-.06-.26a9.51,9.51,0,0,0,.73-4.35V10.73m-6.3,1.77V25.32a10.27,10.27,0,0,0,.73,4.35c.07.13,0,.26-.1.26h-2.84c-.1,0-.17-.13-.07-.26a9.33,9.33,0,0,0,.74-4.35V10.73m1.54,1.77V25.32a10.27,10.27,0,0,0,.73,4.35c.07.13,0,.26-.1.26h-2.84c-.1,0-.17-.13-.07-.26a9.33,9.33,0,0,0,.74-4.35V10.73" fill="#fff"/><path d="M268.74,8.75c.36,0,.66,0,.66.57l.07,2.51a.3.3,0,0,1-.37,0,7.36,7.36,0,0,0-4.21-1.9h-3.48V25.35c0,2.68.33,3.81.77,4.32.1.13.1.26-.17.26h-4.42c-.26,0-.26-.13-.16-.26.43-.54.77-1.64.77-4.32V9.93h-3.48a7.39,7.39,0,0,0-4.22,1.9.3.3,0,0,1-.37,0l.07-2.51c0-.57.3-.57.67-.57Z" fill="#fff"/><path d="M276.5,25.35c0,2.24.23,3.81.63,4.32.1.13.1.26-.17.26h-4.18c-.27,0-.27-.13-.16-.26.4-.54.63-2.08.63-4.32v-12c0-2.24-.23-3.82-.63-4.32-.11-.13-.11-.27.16-.27H277c.27,0,.27.14.17.27-.4.54-.63,2.08-.63,4.32Z" fill="#fff"/><path d="M283.09,10.73A17.66,17.66,0,0,0,281.51,9c-.06-.07-.06-.27.1-.27h3.72a.77.77,0,0,1,.8.37l12,15.13V13.37A10.23,10.23,0,0,0,297.41,9c-.07-.13,0-.27.1-.27h2.84c.1,0,.17.14.07.27a9.33,9.33,0,0,0-.74,4.35V29.93a2.3,2.3,0,0,1-1.17,0L284.63,12.5V25.32a10.1,10.1,0,0,0,.73,4.35c.07.13,0,.26-.1.26h-2.84c-.1,0-.17-.13-.07-.26a9.33,9.33,0,0,0,.74-4.35Z" fill="#fff"/><path d="M315,8.29a15.34,15.34,0,0,1,6.43,1.07c.6.3.73.4.57,1.13l-.44,1.78a.41.41,0,0,1-.53,0,7.14,7.14,0,0,0-6-2.74c-5,0-7.36,3.91-7.36,9.83S310.25,29,315.1,29a11.17,11.17,0,0,0,4.12-.67V24.85c0-2.75-.33-3.82-.74-4.32-.1-.13-.1-.27.17-.27h3.92c.26,0,.26.14.16.27-.4.54-.53,2.08-.53,4.32V29.7c0,.17,0,.27-.34.2l-2.07-.4a15.18,15.18,0,0,1-5.12.8c-6.22,0-10.77-3.44-10.77-10.91C303.9,12.17,308.68,8.29,315,8.29Z" fill="#fff"/><path d="M127.75,8c1.15-3.41,1.66-6.22,1.38-6.91,0-.18,0-.32.28-.32h3.45c.18,0,.23.14.09.32-.78.92-1.89,3.27-3.18,6.91L122,30.12h-1.57l-5.61-14.78-6,14.78h-1.47L99.58,8.26c-1.1-3.09-2.16-5.85-3.13-7.14-.13-.18,0-.32.19-.32h4.6c.32,0,.32,0,.32.32-.09,1.43.74,4,1.8,7.14l5.8,16.84L113.94,13l-1.79-4.69a43.41,43.41,0,0,0-3.08-7.14c-.19-.18-.1-.32.18-.32h4.19c.27,0,.32.09.32.32-.09,1.2.51,3.32,1.61,6.26l.41,1.15.37-1c1.2-3.23,1.66-5.76,1.43-6.45-.09-.18,0-.32.28-.32h3.22c.18,0,.27.14.09.32-.78.92-1.75,3-3.31,6.91l-1.16,2.9L122,25.1Z" fill="#fff"/><path d="M349.77,28.74c-.09.87-.23,1.19-1,1.19H331.91c-.23,0-.18-1.61,0-1.79A102.79,102.79,0,0,0,340.7,20c3.13-3.5,4.7-7,4.7-11.37s-2-7-5.52-7c-3.27,0-5,2-6.26,3.55-.14.14-.56,0-.56-.09a9.2,9.2,0,0,1,.28-3A12.48,12.48,0,0,1,340.2.2c5.8,0,9,2.9,9,8.15,0,5.48-2.76,9.25-7,13a82.09,82.09,0,0,1-7.14,5.57H350Z" fill="#fff"/><line y1="40.74" x2="350" y2="40.74" fill="none" stroke="#fff" stroke-miterlimit="10" stroke-width="0.47"/></svg>