<svg id="images" xmlns="http://www.w3.org/2000/svg" width="200" height="189" viewBox="0 0 200 189"><path d="M56.72,40.62c14.22,1.3,51.06,19.94,68.08,18.11a84.47,84.47,0,0,0,29.65-9s9-1.61,9.7,8.09-6.53,13.5-18.91,17.09S58.92,84.56,44.46,72.84,30.73,38.24,56.72,40.62Z" fill="none" stroke="#fff" stroke-linejoin="round" stroke-width="3.41"/><path d="M145.24,74.91c-11.6,3.36-77.25,8.89-97.37-.07h0l19,60.62s41.51,12.29,68.08-4l18.6-58.64s-2.38.7-6.88,1.64Z" fill="#fff"/><path d="M49.77,40.44S51.6,20.12,77.59,29.82C94.18,36,106,39.88,117.48,38.6s17.57-11.53,17.57-11.53,27.82,1.4,19.4,22.66" fill="none" stroke="#fff" stroke-linejoin="round" stroke-width="3.41"/><path d="M65,27.2S62,11,84.17,10.6s26.36-2.38,33-8.6c0,0,19.76,3.48,17.93,25.07" fill="none" stroke="#fff" stroke-linejoin="round" stroke-width="3.41"/><path d="M35.88,122.26l4.14.54A9.25,9.25,0,0,0,38.26,116c-2.43-3-6.15-5-8.62-3.94s-5.53,3.48-5.2,6.74,4.95,9.26,8.42,9.09l.3-3.65s-3.12-1.11-3.4-3.72c-.21-2,3.14-3.56,4.19-2.68A4.37,4.37,0,0,1,35.88,122.26Z" fill="#fff"/><path d="M19.57,137.52l7.29,1s1.18-6.77-3.09-12S13,117.73,8.61,119.57-.54,126.31.05,132s8.12,15.64,14.23,15.34l.53-6.42s-5.49-1.94-6-6.53c-.37-3.46,5.52-6.25,7.36-4.71S20.31,133.4,19.57,137.52Z" fill="#fff"/><polygon points="41.99 121.58 46.46 125.83 40.41 132.15 45.75 137.16 42.76 140.16 33.17 131.17 41.99 121.58" fill="#fff"/><path d="M55.78,133.35l-11.17,8.28L49.29,145,51,143.26l3.11,2-.93,2.29,5.23,3.27,2.83-14.06Zm-1,8.74-1.42-.84,2-1.74Z" fill="#fff"/><path d="M78.48,145.7l-2.85,2s-3.28-3.44-5.12-3.13,2.86,3.32,4.34,4.45,2.51,5.3-2.23,6.29c-6,1.25-11.37-5.38-11.37-5.38L64,148s4.17,4.45,5.88,3.51-3.26-2.38-5.25-5.39,1.09-6.52,6-5.11A17.5,17.5,0,0,1,78.48,145.7Z" fill="#fff"/><polygon points="79.5 144.72 85.67 145.54 85.04 150.58 87.97 150.84 88.67 146.13 94.88 147.1 92.81 159.87 86.76 159.09 87.5 154.41 84.3 153.94 83.64 158.43 77.66 157.57 79.5 144.72" fill="#fff"/><path d="M116.33,152.46l-.07-.81a6.46,6.46,0,0,0-7-5.83l-2.6.23a6.48,6.48,0,0,0-5.84,7l.08.81a6.47,6.47,0,0,0,7,5.84l2.61-.24A6.45,6.45,0,0,0,116.33,152.46Zm-7.57,3.4a1.52,1.52,0,0,1-1.59-1.42l-.2-3.58a1.51,1.51,0,1,1,3-.17l.2,3.58A1.51,1.51,0,0,1,108.76,155.86Z" fill="#fff"/><polygon points="116.52 145.09 120.34 157.62 126.18 155.69 124.69 150.88 128.36 149.79 127.57 147.36 124.05 148.65 123.41 146.72 130.44 144.72 129.15 140.87 116.52 145.09" fill="#fff"/><polygon points="146.29 131.07 150.62 126.6 154.3 130.1 156.25 127.9 152.88 124.53 157.36 120.12 166.39 129.38 162.16 133.78 158.84 130.4 156.56 132.69 159.77 135.9 155.53 140.19 146.29 131.07" fill="#fff"/><polygon points="158 119.23 168.79 126.71 176.51 115.92 173.04 113.72 168.95 119.42 167.67 118.49 170.33 114.84 168.87 113.72 166.18 117.26 165.09 116.47 168.95 110.88 165.8 108.91 158 119.23" fill="#fff"/><polygon points="149.19 144.4 144.56 137.07 148.29 134.74 145.82 131.27 133.79 138.92 135.91 142.49 139.45 140.27 144.06 147.72 149.19 144.4" fill="#fff"/><path d="M42.91,146.61,34,157.71a2.69,2.69,0,0,1-3.78.42l-.67-.53a2.7,2.7,0,0,1-.42-3.79L38,142.75,29.41,136l-8.72,10.91a10.21,10.21,0,0,0,2.52,14.15L29,165.11a10.18,10.18,0,0,0,14.14-2.52l7.11-10.19Z" fill="#fff"/><path d="M67.05,159.73c-3.31-1.3-5.84-2.37-7.11-2.93l-8.31-3.65L42.91,174.4l10,4.11,2.66-6.78a51.52,51.52,0,0,0,7.36,2.89c3.1.79,7.64-.43,9.08-4.61S71.87,161.63,67.05,159.73Zm-5,6.46c-.64,2.09-1.65,2.52-3,2s-1.83-.66-1.83-.66l1.83-4.38S62.65,164.1,62,166.19Z" fill="#fff"/><path d="M95,174.05l5.82-4.48s-4-5.62-10.68-6.28-13.83,1.47-15.6,5.84S72.82,180.37,77.3,184s16.8,5.28,20.91.75L94,179.85s-5.26,2.52-8.85-.38c-2.71-2.18-.53-8.32,1.86-8.53S92.57,170.62,95,174.05Z" fill="#fff"/><path d="M118.85,163.17l-11.2,1.59-5.14,24,9.21-1.2.46-4.41,6.21-1.07,1.86,4.07,10.68-1.73Zm-5.47,14.93.87-5.14,2.27,4.67Z" fill="#fff"/><polygon points="151.54 175.53 161.82 170.76 149.47 162.49 151.48 150.08 141.49 154.82 140.54 165.59 136.67 157.42 126.86 161.69 136.73 182.7 146.47 178.1 144.36 173.65 145.27 170.69 151.54 175.53" fill="#fff"/><polygon points="151.5 149.82 166.51 166.89 183.98 151.98 179.07 146.83 169.81 154.71 168.06 152.62 174.04 147.59 172.06 145.09 166.07 149.94 164.56 148.15 173.82 139.81 169.35 135.19 151.5 149.82" fill="#fff"/><path d="M186,115l2.24,5.77s-7.32,4.13-7.58,7.41,6.93-3.44,9.51-5.49,10.17-2,9.81,6.55c-.46,10.78-14.17,17.14-14.17,17.14l-2.1-5.53s9.44-5.21,8.58-8.54-5.5,4.55-11.52,6.65-10.7-4.7-6.13-12.59A31.06,31.06,0,0,1,186,115Z" fill="#fff"/></svg>