<svg xmlns="http://www.w3.org/2000/svg" width="400" height="27" viewBox="0 0 400 27"><path d="M2.72,2.72c-.36-1-.93-1.29-1.5-1.29h-1C.07,1.43,0,1.32,0,1.18V.25C0,.07.11,0,.29,0S1.64.11,4.86.11C7.43.11,8.93,0,9.29,0s.29.07.29.25v.89c0,.18-.07.29-.32.29H8.58a.86.86,0,0,0-.86,1.25L13,19.19l.07,0c.29-.75,5-13.91,5.12-15.26a3.44,3.44,0,0,0-.65-1.9,1.47,1.47,0,0,0-1.21-.64h-.75a.22.22,0,0,1-.25-.25V.29c0-.18.07-.29.28-.29s1.57.11,4.65.11S24.59,0,24.91,0s.25.11.25.32v.82c0,.18-.07.29-.25.29H23.66c-.72,0-1,.79-.79,1.39L28,19.33h.14c1.07-3.14,5.15-14.93,5.15-16.9,0-.5-.36-1-1.22-1h-1c-.22,0-.25-.11-.25-.29V.29c0-.18.07-.29.28-.29S32.74.11,35,.11C37,.11,38,0,38.31,0s.22.07.22.18v1c0,.18,0,.29-.25.29h-.76A1.77,1.77,0,0,0,36,2.61c-.35.78-7.65,20.8-8.36,22.59-.14.35-.43.92-.93.92s-.75-.35-.89-.78L19.3,6.54h-.14c-.33,1-6.65,18.51-6.79,18.91a1.06,1.06,0,0,1-.93.67.72.72,0,0,1-.72-.57Z" fill="#fff"/><path d="M53.09,16.9c0,.27,0,6.3,0,6.59,0,.84.42,1,1,1h1.1c.11,0,.21,0,.21.18v.66c0,.16-.1.21-.26.21-.31,0-1.36-.08-3.83-.08-2.63,0-3.78.08-4,.08s-.21,0-.21-.19v-.7c0-.11.05-.16.21-.16h1.05c.52,0,1.1-.05,1.2-.76.06-.37.11-6,.11-7.46V14.38c0-.63,0-5.35-.08-5.69-.08-.63-.34-.9-1.08-.9H47.21c-.16,0-.21,0-.21-.18V6.93c0-.13,0-.19.16-.19.31,0,1.68.08,4.25.08s3.36-.08,3.73-.08c.15,0,.21.11.21.24v.6a.19.19,0,0,1-.21.21h-1c-.58,0-1,.21-1,.71,0,.27,0,6,0,6.36Z" fill="#fff"/><path d="M67.21,13.54c0,4.47.21,8.14.26,9,.06,1.31.37,1.94,1.32,1.94h.68c.21,0,.21.1.21.23v.61c0,.16,0,.21-.21.21s-1.84-.08-2.84-.08c-.68,0-2.46.08-2.73.08-.1,0-.15,0-.15-.24V24.6a.16.16,0,0,1,.15-.16h.9c.68,0,1-.58,1.18-2.18,0-.47.18-4.15.18-8.35V10.58c0-1.58-.89-2.79-2-2.79h-.84a.16.16,0,0,1-.15-.18V6.9a.14.14,0,0,1,.15-.16c.14,0,.35,0,.82.06s1.18,0,2.34,0c.44,0,.84,0,1.15-.05s.58,0,.73,0A.79.79,0,0,1,69,7c.26.26,5.4,6.72,5.93,7.46.37.42,4.46,5.51,4.88,6h.11V17.74c0-2.31,0-3.62-.06-4.93,0-1-.15-3.57-.29-4a1.41,1.41,0,0,0-1.39-1h-.84c-.15,0-.15-.1-.15-.23V7c0-.15,0-.21.21-.21s1.15.08,2.94.08c1.57,0,2.2-.08,2.52-.08s.26.11.26.19v.6c0,.16,0,.26-.16.26h-.73c-.53,0-.79.42-.87,1.4-.13,1.78-.39,6.19-.39,8.87V25c0,.37,0,.73-.32.73a1.3,1.3,0,0,1-.89-.42c-.21-.26-1.63-1.89-3.26-3.83-1.83-2.26-3.88-4.72-4.2-5.14s-4.56-5.62-4.88-6h-.16Z" fill="#fff"/><path d="M97.69,7.93H97a14.78,14.78,0,0,0-3.83.36c-.84.37-1.84,2.1-2.33,3-.08.13-.16.23-.29.18L90,11.29a.22.22,0,0,1-.1-.27l1.26-4.83c.05-.36.21-.47.31-.47s.26.11.42.26a2.36,2.36,0,0,0,1.79.69c1.42,0,2.52.15,5.09.15h1.42c2.89,0,4-.1,5.2-.15A5,5,0,0,0,107.25,6c.21-.15.31-.26.47-.26s.21.11.26.42c0,.47.58,3.73.79,5,0,.16,0,.21-.11.23l-.52.19c-.11,0-.16-.05-.24-.21a10.31,10.31,0,0,0-2.07-2.94c-.74-.42-3.1-.47-4-.47h-.74v14c0,2,.26,2.52.89,2.52h1.53c.1,0,.15.1.15.23v.56c0,.15-.05.26-.26.26s-1.1-.08-3.94-.08c-2.67,0-3.78.08-4.15.08-.15,0-.2,0-.2-.24v-.6c0-.16.07-.21.18-.21h1.5a.78.78,0,0,0,.86-.71c.08-.68.08-8.72.08-9.24Z" fill="#fff"/><path d="M122.29,16.27c-.29,0-.37.11-.37.35v1.12c0,1,0,4,.1,5.81,0,.63.32.89.9.89h.94c.21,0,.26,0,.26.18v.61c0,.15-.05.26-.26.26-.47,0-1.36-.08-3.52-.08-2.57,0-3.36.08-3.88.08-.21,0-.26-.11-.26-.24v-.6c0-.16,0-.21.26-.21h1.36c.63,0,.74-.63.74-1.24,0-1.26,0-4.25,0-5.93V13.91c0-.79,0-4,0-4.44,0-1.31-.16-1.68-1-1.68h-1.15c-.21,0-.27-.1-.27-.23V7a.25.25,0,0,1,.27-.27c.47,0,1.31.08,3.88.08,2.36,0,3.31-.08,3.78-.08.21,0,.26.11.26.24v.55c0,.16,0,.26-.26.26h-.94c-.95,0-1,.42-1.08,1.45,0,.37-.13,3.83-.13,4.51V14.8c0,.27.08.37.31.37h8.67c.42,0,.52-.08.52-.37V14c0-.95-.1-4.62-.13-4.91,0-.84-.13-1.32-.71-1.32h-1.21c-.18,0-.2-.07-.2-.23V7c0-.13,0-.21.2-.21.48,0,1.63.08,3.73.08s3.05-.08,3.47-.08c.26,0,.31.11.31.24v.55c0,.16,0,.26-.31.26h-.95c-.78,0-.84.42-.84,1.34,0,.37-.05,3.94-.05,4.78v2.84c0,1.15.05,4.88.05,6.38,0,.94.27,1.31,1.05,1.31h1c.16,0,.21.08.21.18v.61c0,.15-.05.26-.26.26-.42,0-1.31-.08-3.57-.08-2.47,0-3.31.08-4,.08a.21.21,0,0,1-.21-.24v-.6c0-.13,0-.21.21-.21h1.41c.64,0,.66-.47.69-1.18.05-1.26.1-5.46.1-5.94v-.73c0-.24-.21-.32-.57-.32Z" fill="#fff"/><path d="M161.56,8.53a9.76,9.76,0,0,1,3.57,7.77,9.2,9.2,0,0,1-1.94,5.78,9.3,9.3,0,0,1-7.88,3.72,12.06,12.06,0,0,1-5.93-1.73,9.18,9.18,0,0,1-3.84-7.77A10.43,10.43,0,0,1,148,9.79a9,9,0,0,1,7.4-3.36A9.31,9.31,0,0,1,161.56,8.53Zm-10.08.52a9.4,9.4,0,0,0-2.37,6.36c0,6.82,4.21,9.24,6.41,9.24,5.3,0,6.14-5.88,6.14-8.09,0-5.72-3.88-9-6.4-9A4.52,4.52,0,0,0,151.48,9.05Z" fill="#fff"/><path d="M179.17,18.53c0,1.58.05,4.52.11,4.91s.26,1,.68,1h1.31c.16,0,.21.08.21.18v.63c0,.19-.08.24-.29.24s-.86-.08-3.59-.08c-2.58,0-3.21.08-3.47.08s-.21-.08-.21-.24v-.6c0-.13.05-.21.16-.21H175c.58,0,1-.16,1-.87C176,21,176,18.48,176,16V9.11c0-.9-.37-1.32-.84-1.32h-1c-.13,0-.19,0-.19-.15V6.93a.17.17,0,0,1,.19-.19c.18,0,1,.08,3.59.08,1.47,0,3.89-.08,4.68-.08a7.06,7.06,0,0,1,4.78,1.66,4,4,0,0,1,1.41,2.94c0,3.31-2,4.67-4.88,5.14v.11a3.34,3.34,0,0,1,1.57,1.21c.32.42,1.95,2.88,2.16,3.2s1.84,2.62,2.23,3a2.73,2.73,0,0,0,1.86.5c.16,0,.21.08.21.18v.56c0,.18-.05.26-.21.26s-.89-.08-2.57-.08c-.73,0-1.73.05-2.31.08a7.18,7.18,0,0,1-1.15-1.5c-.48-.73-1.5-2.62-1.74-3s-1-1.68-1.42-2.26c-.65-.92-1.26-1.63-2.36-1.63l-.84.05Zm.05-2.36a7.68,7.68,0,0,0,1,.1,4.59,4.59,0,0,0,4.94-4.51A4.11,4.11,0,0,0,184,8.82a5,5,0,0,0-3.46-1.13,1.89,1.89,0,0,0-.95.16.89.89,0,0,0-.31.76Z" fill="#fff"/><path d="M200.54,13.18c0-1.74,0-4.52,0-4.81s-.34-.58-.91-.58h-1.37c-.1,0-.16,0-.16-.18V7c0-.15.06-.21.16-.21.32,0,1.26.08,3.89.08.47,0,2-.08,2.88-.08,3.15,0,4.68.29,6.2,1.34a5,5,0,0,1,2,4c0,3.26-2.52,5.31-7,5.31a15.51,15.51,0,0,1-2.36-.11v1.16c0,1.26,0,4.83,0,5.17.08.58.35.84.82.84h1.47c.21,0,.21.1.21.18v.61c0,.15,0,.26-.21.26-.37,0-1.21-.08-4-.08-2.31,0-3.36.08-3.63.08s-.21-.11-.21-.19v-.65c0-.16,0-.21.16-.21h.84c.89,0,1.1-.11,1.18-.82,0-.26.08-4.35.08-7.4Zm3.31,3.15a7,7,0,0,0,1.89.21,4.44,4.44,0,0,0,3.15-1.79,4.92,4.92,0,0,0,.63-2.73,4.12,4.12,0,0,0-4.15-4.38,3.68,3.68,0,0,0-1.52.18Z" fill="#fff"/><path d="M226.61,17.8c0,1.41.08,4,.08,4.46,0,1.36.47,1.89,1.05,2a8.55,8.55,0,0,0,2,.21c.48,0,1.68-.06,2.21-.11a4.42,4.42,0,0,0,2.15-.89c.47-.42,1.94-2.15,2.44-2.78.11-.13.19-.16.29-.11l.42.26a.19.19,0,0,1,.05.27l-1.26,3.93a.54.54,0,0,1-.57.4c-.13,0-.71,0-2.34,0s-4.36,0-8.74,0c-1,0-1.68,0-2.23,0s-.9,0-1.13,0-.21,0-.21-.21v-.63c0-.16,0-.21.26-.21H222c1.21,0,1.32-.16,1.32-1.13V14.49c0-2.15-.06-5.41-.11-5.78-.1-.71-.37-.92-1.15-.92h-1c-.11,0-.16,0-.16-.18V6.93c0-.13,0-.19.16-.19.58,0,1.52.11,3.67.08h.74l8.35-.05c.42,0,.92,0,1,0a.19.19,0,0,1,.21.16c.1.34,1.1,3.91,1.2,4.18s0,.23-.07.28l-.48.21c-.08,0-.15,0-.23-.13a26,26,0,0,0-2.89-2.94,4.62,4.62,0,0,0-2-.68l-4-.1,0,7.58a29.22,29.22,0,0,0,3-.13,1.45,1.45,0,0,0,1.21-.94,4.2,4.2,0,0,0,.42-1.47.19.19,0,0,1,.21-.21l.68,0c.11,0,.19.05.16.21-.05.42-.05,2.15-.05,2.83,0,1.05.1,2.31.16,2.89,0,.13-.06.16-.21.19l-.58.1c-.11,0-.16,0-.21-.18a12.93,12.93,0,0,0-.42-1.32,1.62,1.62,0,0,0-1.31-.94,29.87,29.87,0,0,0-3-.16Z" fill="#fff"/><path d="M282.24,12.47c0-1.07,0-9.93-.07-10.08H282c-.29.5-4.79,10.94-5.22,11.87-.54,1.14-4.18,9.58-4.36,9.93s-.43.79-.79.79-.43-.21-.57-.64c-.14-.22-4.79-11.37-5-11.94-.65-1.64-3.93-9.65-4.36-10.08-.14.5-.18,9.51-.18,9.94s0,6.5.18,8.83c.14,1.64.57,3,1.71,3H265a.25.25,0,0,1,.28.25v.89c0,.14-.07.29-.36.29s-1.35-.11-4.07-.11c-3.07,0-4.29.11-4.65.11s-.28-.07-.28-.32v-.9c0-.07,0-.21.21-.21h1.65c1.21,0,1.61-1.29,1.78-2.54.33-2.5.54-11.29.54-11.94V3.5c0-1.28-.18-2.07-1.75-2.07H256.8a.25.25,0,0,1-.29-.25v-1c0-.07.07-.21.29-.21s1.28.11,5.07.11C263.59.11,264.59,0,265,0a.79.79,0,0,1,.85.61c1.29,3.36,6.29,15.22,7.37,18.15.32-.64,2.85-6.54,3.78-8.65.65-1.5,3.86-8.86,4-9.57.11-.36.54-.43,1.4-.43,5.21,0,6.43-.11,6.86-.11.14,0,.21.14.21.32v.75c0,.22-.07.36-.28.36h-1.58c-.93,0-1,.64-1,1.39s0,7.94,0,8.87v2.5c0,2.14.07,7.36.07,8,0,1.36.36,1.93,1,1.93h1.93c.22,0,.22.14.22.25v.82c0,.21,0,.36-.29.36s-2.14-.11-5.29-.11c-3.5,0-4.86.11-5.36.11-.21,0-.28-.15-.28-.32v-.83c0-.21.07-.28.28-.28h2.22c.64,0,.93-.22,1-1.25,0-.36.11-5.51.11-8.37Z" fill="#fff"/><path d="M304.94,18.19c-.21.6-1.49,4.36-1.62,5.07a2,2,0,0,0-.06.55c0,.34.42.63.95.63h1.1c.21,0,.26,0,.26.13v.66c0,.15-.05.26-.21.26-.36,0-1.47-.08-3.3-.08s-2.52.08-2.89.08c-.16,0-.16-.16-.16-.34v-.5c0-.16.05-.21.16-.21H300c.73,0,1.2-.37,1.68-1.18.26-.48,2.15-5.2,2.94-7.41L307.15,9c.05-.27.21-.74.05-.9a.58.58,0,0,1-.16-.31c0-.11.06-.21.27-.26a8.47,8.47,0,0,0,2.6-1.32c.15-.15.26-.26.39-.26s.26.32.31.47c.48,1.63,2.53,7.51,3,9.19.63,2.05,2.31,6.93,2.68,7.64A2,2,0,0,0,318,24.44h.84c.15,0,.21,0,.21.18v.55c0,.16-.06.32-.27.32-.47,0-1-.08-3.88-.08-2.21,0-3.1.08-3.68.08-.21,0-.26-.16-.26-.32v-.52c0-.16.05-.21.21-.21h.68c.74,0,.95-.26.79-1-.21-.95-1.26-4.31-1.58-5.28Zm5.83-1.05c-.26-.76-2-6.75-2.2-7.27-.11-.32-.16-.47-.27-.47s-.26.1-.34.34-2.46,6.8-2.65,7.4Z" fill="#fff"/><path d="M329.54,13.54c0,4.47.21,8.14.26,9,.06,1.31.37,1.94,1.32,1.94h.68c.21,0,.21.1.21.23v.61c0,.16,0,.21-.21.21s-1.84-.08-2.84-.08c-.68,0-2.46.08-2.73.08-.1,0-.15,0-.15-.24V24.6a.16.16,0,0,1,.15-.16h.9c.68,0,1.05-.58,1.18-2.18,0-.47.18-4.15.18-8.35V10.58c0-1.58-.89-2.79-2.05-2.79h-.84a.16.16,0,0,1-.15-.18V6.9a.14.14,0,0,1,.15-.16c.14,0,.34,0,.82.06s1.18,0,2.33,0c.45,0,.84,0,1.16-.05s.58,0,.73,0a.75.75,0,0,1,.63.24c.27.26,5.41,6.72,5.94,7.46.36.42,4.46,5.51,4.88,6h.11V17.74c0-2.31,0-3.62-.06-4.93-.05-1-.16-3.57-.29-4a1.41,1.41,0,0,0-1.39-1h-.84c-.16,0-.16-.1-.16-.23V7c0-.15,0-.21.21-.21s1.16.08,2.95.08c1.57,0,2.2-.08,2.52-.08s.26.11.26.19v.6c0,.16,0,.26-.16.26h-.73c-.53,0-.79.42-.87,1.4-.13,1.78-.4,6.19-.4,8.87V25c0,.37,0,.73-.31.73a1.3,1.3,0,0,1-.89-.42c-.21-.26-1.63-1.89-3.26-3.83-1.84-2.26-3.88-4.72-4.2-5.14s-4.57-5.62-4.88-6h-.16Z" fill="#fff"/><path d="M369.78,8.53a9.76,9.76,0,0,1,3.58,7.77,9.15,9.15,0,0,1-1.95,5.78,9.29,9.29,0,0,1-7.87,3.72,12.06,12.06,0,0,1-5.94-1.73,9.2,9.2,0,0,1-3.83-7.77,10.43,10.43,0,0,1,2.42-6.51,9,9,0,0,1,7.4-3.36A9.3,9.3,0,0,1,369.78,8.53Zm-10.08.52a9.39,9.39,0,0,0-2.36,6.36c0,6.82,4.2,9.24,6.41,9.24,5.3,0,6.14-5.88,6.14-8.09,0-5.72-3.89-9-6.41-9A4.53,4.53,0,0,0,359.7,9.05Z" fill="#fff"/><path d="M387.4,18.53c0,1.58.05,4.52.1,4.91s.27,1,.69,1h1.31c.16,0,.21.08.21.18v.63c0,.19-.08.24-.29.24s-.87-.08-3.6-.08c-2.57,0-3.2.08-3.46.08s-.21-.08-.21-.24v-.6c0-.13.05-.21.16-.21h.89c.58,0,1-.16,1-.87.05-2.62.05-5.09.05-7.56V9.11c0-.9-.37-1.32-.84-1.32h-1c-.13,0-.18,0-.18-.15V6.93c0-.13.05-.19.18-.19s1,.08,3.6.08c1.47,0,3.89-.08,4.67-.08a7,7,0,0,1,4.78,1.66,4,4,0,0,1,1.42,2.94c0,3.31-2,4.67-4.88,5.14v.11a3.39,3.39,0,0,1,1.57,1.21c.32.42,1.94,2.88,2.15,3.2a36.83,36.83,0,0,0,2.24,3,2.71,2.71,0,0,0,1.86.5c.16,0,.21.08.21.18v.56c0,.18-.05.26-.21.26s-.89-.08-2.57-.08c-.74,0-1.74.05-2.31.08a6.86,6.86,0,0,1-1.16-1.5c-.47-.73-1.49-2.62-1.73-3s-1-1.68-1.42-2.26c-.65-.92-1.26-1.63-2.36-1.63l-.84.05Zm.05-2.36a7.51,7.51,0,0,0,1,.1,4.58,4.58,0,0,0,4.93-4.51,4.1,4.1,0,0,0-1.15-2.94,5,5,0,0,0-3.47-1.13,1.85,1.85,0,0,0-.94.16.89.89,0,0,0-.32.76Z" fill="#fff"/></svg>