<svg xmlns="http://www.w3.org/2000/svg" width="270" height="149" viewBox="0 0 270 149"><path fill="#fff" d="M2.56 0L0 2.27v16.8l2.56 2.27 2.56-2.27V2.27L2.56 0zM29.68 11.11l-2.56 2.27v11.29l2.56 2.27 2.56-2.27V13.38l-2.56-2.27zM39.25 0l-2.56 2.27v9.38l2.56 2.27 2.55-2.27V2.27L39.25 0zM48.79 11.11l-2.56 2.27v11.29l2.56 2.27 2.56-2.27V13.38l-2.56-2.27zM29.68 28.45l-2.56 2.27V42l2.56 2.27L32.24 42V30.72l-2.56-2.27zM18.26 54.21l-2.56 2.27v12.76l2.56 2.27 2.56-2.27V56.48l-2.56-2.27zM18.26 73.25l-2.56 2.27v12.76l2.56 2.27 2.56-2.27V75.52l-2.56-2.27zM38.54 52.82l-2.27-2.56H21.24l-2.27 2.56 2.27 2.56h15.03l2.27-2.56zM88.36 64.8l-2.56 2.26v7.99l2.56 2.27 2.56-2.27v-7.99l-2.56-2.26zM104.28 63.59l-2.27-2.56H91.33l-2.27 2.56 2.27 2.56h10.68l2.27-2.56zM111.45 64.8l-2.56 2.26v7.99l2.56 2.27 2.56-2.27v-7.99l-2.56-2.26zM128.23 64.8l-2.56 2.26v7.99l2.56 2.27 2.55-2.27v-7.99l-2.55-2.26zM138.53 61.73L135.97 64v11.79l2.56 2.27 2.55-2.27V64l-2.55-2.27zM155.39 61.73L152.83 64v11.79l2.56 2.27 2.55-2.27V64l-2.55-2.27zM165.65 51.75l-2.56 2.27v9.25l2.56 2.26 2.56-2.26v-9.25l-2.56-2.27zM138.53 79.59l-2.56 2.27V92.9l2.56 2.27 2.55-2.27V81.86l-2.55-2.27zM155.39 79.59l-2.56 2.27V92.9l2.56 2.27 2.55-2.27V81.86l-2.55-2.27zM127.37 63.59l-2.28-2.56h-10.67l-2.27 2.56 2.27 2.56h10.67l2.28-2.56zM128.23 91.1l2.55-2.27v-7.98l-2.55-2.27-2.56 2.27v7.98l2.56 2.27zM111.45 91.1l2.56-2.27v-7.98l-2.56-2.27-2.56 2.27v7.98l2.56 2.27zM112.31 92.31l2.27 2.55h10.67l2.27-2.55-2.27-2.56h-10.67l-2.27 2.56zM151.83 116.61l-2.56 2.27v7.98l2.56 2.27 2.55-2.27v-7.98l-2.55-2.27zM168.6 116.61l-2.55 2.27v7.98l2.55 2.27 2.56-2.27v-7.98l-2.56-2.27zM167.74 115.4l-2.27-2.56H154.8l-2.27 2.56 2.27 2.56h10.67l2.27-2.56zM168.6 142.91l2.56-2.27v-7.98l-2.56-2.27-2.55 2.27v7.98l2.55 2.27zM151.83 142.91l2.55-2.27v-7.98l-2.55-2.27-2.56 2.27v7.98l2.56 2.27zM152.69 144.12l2.27 2.56h10.67l2.27-2.56-2.27-2.56h-10.67l-2.27 2.56zM178.5 113.47l-2.55 2.27v11.12l2.55 2.27 2.56-2.27v-11.12l-2.56-2.27zM195.28 113.47l-2.56 2.27v11.12l2.56 2.27 2.56-2.27v-11.12l-2.56-2.27zM195.28 142.91l2.56-2.27v-7.98l-2.56-2.27-2.56 2.27v7.98l2.56 2.27zM178.5 142.91l2.56-2.27v-7.98l-2.56-2.27-2.55 2.27v7.98l2.55 2.27zM179.37 144.12l2.26 2.56h10.68l2.27-2.56-2.27-2.56h-10.68l-2.26 2.56zM88.36 79.41l-2.56 2.27v6.88l2.56 2.27 2.56-2.27v-6.88l-2.56-2.27zM104.28 78.58l-2.27-2.56H91.33l-2.27 2.56 2.27 2.56h10.68l2.27-2.56zM104.28 91.94l-2.27-2.55H91.33l-2.27 2.55 2.27 2.56h10.68l2.27-2.56zM83.13 116.25l-2.56 2.27v7.98l2.56 2.27 2.56-2.27v-7.98l-2.56-2.27zM99.05 115.04l-2.27-2.55H86.11l-2.28 2.55 2.28 2.56h10.67l2.27-2.56zM83.13 130.87l-2.56 2.27v6.87l2.56 2.27 2.56-2.27v-6.87l-2.56-2.27zM99.05 143.4l-2.27-2.56H86.11l-2.28 2.56 2.28 2.56h10.67l2.27-2.56zM175.52 64.8l-2.56 2.26v7.99l2.56 2.27 2.55-2.27v-7.99l-2.55-2.26zM193.7 63.59l-2.27-2.56h-12.94l-2.27 2.56 2.27 2.56h12.94l2.27-2.56zM191.43 91.94l-2.27-2.55h-12.94l-2.27 2.55 2.27 2.56h12.94l2.27-2.56zM191.94 79.41l-2.56 2.27v6.88l2.56 2.27 2.56-2.27v-6.88l-2.56-2.27zM191.43 78.58l-2.27-2.56h-10.67l-2.27 2.56 2.27 2.56h10.67l2.27-2.56zM205.33 117.42l-2.56 2.27v7.98l2.56 2.27 2.56-2.27v-7.98l-2.56-2.27zM223.52 116.21l-2.27-2.55h-12.94l-2.28 2.55 2.28 2.56h12.94l2.27-2.56zM221.25 144.57l-2.27-2.56h-12.95l-2.27 2.56 2.27 2.55h12.95l2.27-2.55zM221.76 132.04l-2.56 2.27v6.87l2.56 2.27 2.55-2.27v-6.87l-2.55-2.27zM221.25 131.2l-2.27-2.56h-10.67l-2.28 2.56 2.28 2.56h10.67l2.27-2.56zM37.99 91.69l-2.27-2.56H21.24l-2.27 2.56 2.27 2.56h14.48l2.27-2.56zM60.35 123.97l-2.26-2.56H43.6l-2.26 2.56 2.26 2.56h14.49l2.26-2.56zM50.48 61.34l-2.56 2.27V74.9l2.56 2.27 2.55-2.27V63.61l-2.55-2.27zM78.3 64.69l-2.56 2.27v8.27l2.56 2.27 2.56-2.27v-8.27l-2.56-2.27zM78.3 78.67l-2.56 2.27v8.27l2.56 2.27 2.56-2.27v-8.27l-2.56-2.27zM50.48 78.67l-2.56 2.27v11.29l2.56 2.27 2.55-2.27V80.94l-2.55-2.27zM72.36 112.86l-2.56 2.27v11.28l2.56 2.27 2.56-2.27v-11.28l-2.56-2.27zM72.36 130.19l-2.56 2.27v11.29l2.56 2.27 2.56-2.27v-11.29l-2.56-2.27zM5.12 37.45V25l-2.56-2.27L0 25v16.8l.41.37 4.71-4.72zM5.47 38.59h14.19l2.27 2.56-2.27 2.56H1.12l-.37-.41 4.72-4.71zM51.35 38.02v-7.3l-2.56-2.27-2.56 2.27v11.66l.42.36 4.7-4.72zM51.7 39.17h10.59l2.27 2.56-2.27 2.55H47.35l-.37-.41 4.72-4.7zM36.29 76.38v11.9l2.56 2.27 2.55-2.27V72.03l-.41-.37-4.7 4.72zM35.93 75.23H33l-2.27-2.56L33 70.12h7.29l.36.41-4.72 4.7zM64.34 67.56v7.67l-2.56 2.27-2.56-2.27V63.2l.42-.36 4.7 4.72zM64.69 66.41h10.03l2.27-2.56-2.27-2.56H60.34l-.37.42 4.72 4.7zM64.34 88.24v-7.68l-2.56-2.27-2.56 2.27v12.03l.42.37 4.7-4.72zM64.69 89.39h10.03l2.27 2.55-2.27 2.56H60.34l-.37-.41 4.72-4.7zM61.78 105.32l-2.56 2.27v13.16l2.56 2.27 2.56-2.27v-13.16l-2.56-2.27zM141.1 123.97l-2.27-2.56h-14.48l-2.27 2.56 2.27 2.56h14.48l2.27-2.56zM142.52 102.32l-2.55 2.27v16.16l2.55 2.27 2.56-2.27v-16.16l-2.56-2.27zM121.4 102.32l-2.56 2.27v16.16l2.56 2.27 2.56-2.27v-16.16l-2.56-2.27zM142.52 125.36l-2.55 2.27v16.16l2.55 2.27 2.56-2.27v-16.16l-2.56-2.27zM121.4 125.36l-2.56 2.27v16.16l2.56 2.27 2.56-2.27v-16.16l-2.56-2.27zM43.46 108.18v12.57l-2.56 2.27-2.56-2.27v-16.92l.42-.37 4.7 4.72zM43.81 107.03h14.46l2.27-2.56-2.27-2.55H39.46l-.37.41 4.72 4.7zM61.78 142.53l-2.56-2.28v-13.16l2.56-2.27 2.56 2.27v13.16l-2.56 2.28zM43.46 139.66v-12.57l-2.56-2.27-2.56 2.27v16.93l.42.36 4.7-4.72zM43.81 140.81h14.46l2.27 2.56-2.27 2.55H39.46l-.37-.41 4.72-4.7zM141.71 64.08v3.68l7.41 8.51h3.14v-3.69l-7.18-8.5h-3.37zM97.32 133.61v6.64l2.56 2.28 2.56-2.28v-10.99l-.41-.37-4.71 4.72zM96.97 132.47h-2.94l-2.27-2.56 2.27-2.56h7.29l.37.41-4.72 4.71zM231.78 117.42l-2.56 2.27v7.98l2.56 2.27 2.56-2.27v-7.98l-2.56-2.27zM247.7 116.21l-2.27-2.55h-10.67l-2.27 2.55 2.27 2.56h10.67l2.27-2.56zM231.78 132.04l-2.56 2.27v6.87l2.56 2.27 2.56-2.27v-6.87l-2.56-2.27zM247.7 131.2l-2.27-2.56h-10.67l-2.27 2.56 2.27 2.56h10.67l2.27-2.56zM247.7 144.57l-2.27-2.56h-10.67l-2.27 2.56 2.27 2.55h10.67l2.27-2.55zM267.44 103.5l-2.56 2.27v16.18l2.56 2.28 2.56-2.28v-16.18l-2.56-2.27zM267.44 125.73l-2.56 2.27v11.29l2.56 2.27 2.56-2.27V128l-2.56-2.27zM267.44 142.54l-2.56 2.27v.23l2.56 2.28 2.56-2.28v-.23l-2.56-2.27z"/></svg>