<svg xmlns="http://www.w3.org/2000/svg" width="200" height="116" viewBox="0 0 200 116"><polygon points="157.89 3.68 167.14 2.49 173.84 44.23 181.01 0 187.89 4.33 180.24 50.45 200 87.56 190.62 90.94 172.95 56.38 177.16 85.61 170.46 86.67 157.89 3.68" fill="#fff"/><polygon points="155.51 16.53 147.76 19 150.46 62 139.3 31.57 135.07 32.28 134.25 58.01 122.26 13.95 116.74 17.12 136.83 91.85 140.93 91.35 141.88 54.01 154.46 88.09 159.04 86.91 155.51 16.53" fill="#fff"/><path d="M106.37,17l-7.32,1.26L97.36,89.08l7.74-.42.14-15.76,9.15-.71,7.88,24.49,9.15-1.55Zm-1.85,47.26,1.14-25.45,8.73,25Z" fill="#fff"/><path d="M63.15,30l8.16-.91s7,41.91,8,46.78,3.86,4.3,5.78,4,4.19-1,3.74-5.89-7.93-49-7.93-49l5.55-1s6.68,39.19,7.36,46.55,2,17-5.66,19.71-13.93-.79-15.86-8.61S63.15,30,63.15,30Z" fill="#fff"/><path d="M71.16,95.71c-1-1.29-2.85-3.86-2.85-3.86-1.51-25.13-7.63-52.13-9.68-56.57S53.22,26.76,44,29.06s-7.73,21-6.84,29.05S42.74,91.05,45,96.68s5,9.29,7.32,9.56,6.84.89,9.47-.44a10.64,10.64,0,0,0,3.94-3.47,15.1,15.1,0,0,0,1.77,2.31c1.34,1.51,3.29-1.69,4.53-3.55S72.13,97,71.16,95.71Zm-12-16.52c-1-1.13-1.92-.34-2.37.34s-2.67,3.52-1.6,6.15a90.72,90.72,0,0,0,5.16,9,8.29,8.29,0,0,1-2.29.9c-1.73.49-4.43-.49-6.56-6.72s-6-33.56-6.48-40.19c-.5-7,5-6.19,5-6.19,3.17.22,4.64.56,5.55,5s6.23,30.81,6.23,35C61.8,82.48,60.21,80.33,59.19,79.19Z" fill="#fff"/><path d="M23,56.12l10.39-1.75S30.71,40,29.49,32.68,20.71,21.53,14,22.06.24,28.17,0,38.71s2.6,27,6.8,33.37,7.1,4.51,14,6.19,8.85,7,9.77,14-2.9,10.62-5,10.77-6.19,0-7.56-3.59-2.29-11.15-2.29-11.15l-7.41.84s2.22,11.38,3.06,15.43,5.72,9.93,11.15,9.93,15.27-2,17.26-9.78S37.28,81.4,36.14,75.83,32.54,67.66,26,65.13s-13-2.29-15.11-8.7S8.8,43.52,8.57,40.54s2.82-5.42,5.65-5.19,5.5.94,6.49,7.11S23,56.12,23,56.12Z" fill="#fff"/><polygon points="65.25 11.65 64.5 9.13 55.38 11.33 56.11 13.74 59.01 13.08 61.5 24.25 65.03 23.12 62.15 12.36 65.25 11.65" fill="#fff"/><polygon points="76.24 19.85 78.77 19.37 75.68 5.43 72.58 6.23 74.12 11.93 70.59 12.7 69.24 7.36 65.89 7.95 69.16 21.35 72.58 20.55 71.29 15.46 74.84 14.62 76.24 19.85" fill="#fff"/><polygon points="78.23 6.12 81.71 18.93 90.29 17.03 89.54 13.95 84.26 15.35 83.86 13.15 87.67 12.02 86.97 9.61 82.73 10.68 81.93 7.52 86.75 6.45 85.95 3.71 78.23 6.12" fill="#fff"/></svg>