<svg xmlns="http://www.w3.org/2000/svg" viewBox="0 0 200 150"><path d="M88.02 80.13c-1.36-1.52-2.97-2.16-4.81-1.91s-3.23 1.29-4.16 3.13c-.93 1.84-1.16 4.53-.68 8.07.47 3.47 1.41 5.99 2.84 7.57S84.23 99.23 86 99c1.78-.24 3.14-1.3 4.08-3.18.94-1.88 1.17-4.6.69-8.17-.47-3.5-1.39-6.01-2.75-7.53zM25.17 138.52c-3.1 0-3.85-1.33-4.21-2.91l-4.09.47c.38 4.23 4.38 5.18 8.18 5.18 4.21 0 8.09-1.46 8.09-5.16 0-5.99-10.98-3.9-10.98-7.3 0-1.04.99-1.73 3.15-1.73 2.48 0 3.3.92 3.48 2.46l4.12-.36c-.32-3.87-3.77-4.77-7.53-4.77-4.26 0-7.71 1.73-7.71 4.91 0 6.17 11.01 3.81 11.01 7.21 0 1.51-1.64 2-3.5 2zM40.62 134.31h8.09V141h4.53v-16.31h-4.53v6.62h-8.09v-6.62h-4.49V141h4.49v-6.69zM66.32 141.27c6.86 0 10.16-3.38 10.16-8.67 0-4.53-2.83-8.2-9.7-8.2s-10.31 3.67-10.31 8.51 2.86 8.36 9.84 8.36zm.38-13.94c3.24 0 5.14 1.71 5.14 5.47 0 4.03-2.19 5.54-5.34 5.54-3.33 0-5.37-1.6-5.37-5.5s2.16-5.52 5.58-5.52zM88.17 141l3.38-11.24h.12L95.09 141h5.75l4.53-16.31h-4.53l-2.74 12.64h-.15l-3.88-12.64h-4.82l-3.77 12.57h-.12l-2.98-12.57h-4.7L82.24 141h5.93zM116.35 141.27c3.8 0 8.03-1.35 8.7-5.25l-4.06-.54c-.5 1.71-1.55 2.93-4.58 2.93-3.33 0-5.17-1.55-5.17-5.56s2.04-5.59 5.49-5.59c2.72 0 4 .95 4.26 3.27l4.12-.27c-.23-4.1-3.59-5.86-8.32-5.86-6.63 0-10.19 3.45-10.19 8.63s2.75 8.24 9.75 8.24zM132.47 137.03h7.04l1.75 3.96h4.94l-7.48-16.31h-5.61l-6.92 16.31h4.64l1.64-3.96zm3.36-9.07h.12l2.63 6.31h-5.34l2.6-6.31zM154.9 138.52c-3.1 0-3.86-1.33-4.21-2.91l-4.09.47c.38 4.23 4.38 5.18 8.18 5.18 4.21 0 8.09-1.46 8.09-5.16 0-5.99-10.98-3.9-10.98-7.3 0-1.04.99-1.73 3.15-1.73 2.48 0 3.3.92 3.48 2.46l4.12-.36c-.32-3.87-3.77-4.77-7.53-4.77-4.26 0-7.71 1.73-7.71 4.91 0 6.17 11.01 3.81 11.01 7.21 0 1.51-1.64 2-3.5 2zM179.78 138.07h-9.43v-3.81h8.38v-2.83h-8.38v-3.83h8.9v-2.91h-13.4V141h13.93v-2.93z" fill="#fff"/><path d="M199.26 115.22h-16.61l-7.06-53.62h2.04c3.59 0 6.53-2.94 6.53-6.53V30.44c0-3.59-2.94-6.53-6.53-6.53h-16.52a3.8 3.8 0 0 1-3.09 1.32c-.48-.02-.93-.11-1.35-.22-.68.87-1.76 1.36-3.06 1.3-1.39-.07-2.38-.85-2.31-2.14 0-.09.02-.17.03-.26h-1.38c-.89 1.02-2.1 2.05-3.88 1.96-1.23-.06-2.53-.69-3.46-1.96h-.75c-.85.87-1.97 1.65-3.52 1.57-1.1-.06-2.25-.56-3.15-1.57h-1.46c-.77.7-1.72 1.25-2.91 1.19-.95-.05-1.57-.53-1.97-1.19h-1.6c-.68.64-1.45 1-2.23.96-.89-.04-1.56-.42-2.02-.96h-6.27c-1.05.73-2.4 1.15-4.06 1.06-1.46-.07-2.56-.49-3.37-1.06H94.72c-.3.2-.62.39-.97.59-.94 4.86-2.88 8.42-6.05 8.26-1.81-.09-3.25-1.53-3.18-2.91.12-2.29 3.47-4.06 6.4-5.61l.06-.33H38.85c-.66 4.33-3.46 6.64-6.19 6.5-1.96-.1-3.43-1.57-3.35-3.29.06-1.28.63-2.29 1.72-3.22H17.54c-3.59 0-6.53 2.94-6.53 6.53v23.92l-3.25.43 7.95 60.43H.74c-.41 0-.74.33-.74.74v33.87c0 .41.33.74.74.74h198.52c.41 0 .74-.33.74-.74v-33.87c0-.41-.33-.74-.74-.74zm-145.32 4.01v.03l-20.63 2.58-1.95-13.87.99-.42c.28-.12 6.88-3.12 6.45-12.3-.44-9.3-9.15-12.99-9.52-13.15l-.77-.32-1.42-13.19 70.94-6.99h28.45l-95.93 9.46c-.1 0-.19.06-.26.14-.06.08-.09.18-.08.28l.88 8.19c.01.13.09.24.2.3 2.95 1.52 9.87 6.03 10.3 15.15.42 8.83-4.74 12.99-6.97 14.37-.13.08-.2.23-.18.38l1.19 8.49c.03.21.22.35.42.32l124.3-15.53c.2-.03.35-.21.33-.41l-.71-7.98a.363.363 0 0 0-.27-.33c-6.3-1.9-9.27-7.86-9.95-12.81-1.27-9.33 4.18-14.62 6.58-16.46.1-.08.16-.21.15-.34l-.28-3.22h2.8l.42 4.86-.75.45c-.31.19-7.47 4.71-6.16 14.33 1.29 9.46 8.61 10.68 8.92 10.73l1.09.17.11 1.09 1.09 12.32-77.5 9.68h-.47v.06l-31.62 3.95h-.22zm-21.33 3.08c.03.19.19.33.38.33h.05L54.21 120h140.94v25.81H4.85V120h27.44l.33 2.32zm1.23-60.94c0 .08-.02.15-.03.23-.24 1.56-1.59 2.76-3.22 2.76s-2.98-1.2-3.22-2.76l-.03-.23c0-.09-.01-.18-.01-.27a3.26 3.26 0 0 1 6.52 0c0 .09 0 .18-.01.27zm98.81 17.43l11.26-1.51.68 5.08-11.26 1.51 1.1 8.19 12.52-1.68.69 5.1-17.03 2.29-4.05-30.16 16.62-2.23.69 5.1-12.11 1.63.9 6.69zm-6.38 19.57l-4.51.61-4.05-30.16 4.51-.61 4.05 30.16zM94.69 71.9l4.9-.66 8.67 21.56 2.49-23.06 4.81-.65-3.98 31.24-4.82.65-12.07-29.09zm-.86 27.51c-1.54 2.76-3.92 4.36-7.14 4.79-3.24.44-5.97-.46-8.18-2.69-2.52-2.55-4.11-6.3-4.78-11.26-.48-3.59-.4-6.62.25-9.07s1.68-4.35 3.08-5.7c1.4-1.35 3.21-2.17 5.42-2.47 3.21-.43 6 .57 8.38 3 2.38 2.43 3.91 6.14 4.58 11.14.68 5.05.14 9.14-1.62 12.26zm-39.09 8.56l-4.21.57-4.05-30.16 6.76-.91 6.84 20.05 1.27-21.14 6.8-.91 4.05 30.16-4.21.57-3.19-23.77-1.27 24.37-4.35.58-7.63-23.17 3.19 23.77zm114.24-47.41c1.8.09 3.18 1.61 3.1 3.41a3.262 3.262 0 0 1-3.41 3.1 3.262 3.262 0 0 1-3.1-3.41c.09-1.8 1.61-3.18 3.41-3.1zm1.93 13.69c1.8.09 3.18 1.61 3.1 3.41a3.262 3.262 0 0 1-3.41 3.1 3.262 3.262 0 0 1-3.1-3.41c.09-1.8 1.61-3.18 3.41-3.1zM22.53 77.69a3.253 3.253 0 0 1-3.34 3.17 3.253 3.253 0 0 1-3.17-3.34c.05-1.8 1.54-3.22 3.34-3.17s3.22 1.54 3.17 3.34zm-.99 10.36c1.8.05 3.22 1.54 3.17 3.34-.05 1.8-1.54 3.22-3.34 3.17s-3.22-1.54-3.17-3.34c.05-1.8 1.54-3.22 3.34-3.17zm1.83 14.44c1.8.05 3.22 1.54 3.17 3.34A3.253 3.253 0 0 1 23.2 109a3.253 3.253 0 0 1-3.17-3.34c.05-1.8 1.54-3.22 3.34-3.17zm154.01 3.68a3.262 3.262 0 0 1-3.41 3.1 3.262 3.262 0 0 1-3.1-3.41c.09-1.8 1.61-3.18 3.41-3.1 1.8.09 3.18 1.61 3.1 3.41zm-4.66-10.91a3.262 3.262 0 0 1-3.1-3.41c.09-1.8 1.61-3.18 3.41-3.1 1.8.09 3.18 1.61 3.1 3.41a3.262 3.262 0 0 1-3.41 3.1zm-20.41-63.98h6.05l11.17 14.23V31.28h6.02v23.27h-6.02l-11.17-14.23v14.23h-6.05V31.28zm-10.92 0h6.05v23.27h-6.05V31.28zm-18.12 0h6.61l8.86 23.27h-6.45l-1.39-4.04h-8.64l-1.39 4.04h-6.45l8.86-23.27zM90.16 37.9c.59-1.51 1.42-2.8 2.5-3.87 1.08-1.07 2.38-1.9 3.9-2.5 1.52-.6 3.22-.9 5.09-.9 2.43 0 4.56.52 6.39 1.57s3.28 2.68 4.35 4.88l-5.74 2.38c-.54-1.28-1.23-2.19-2.08-2.75-.85-.56-1.83-.83-2.92-.83-.91 0-1.73.17-2.47.51-.74.34-1.37.82-1.9 1.45-.52.63-.94 1.38-1.23 2.27-.3.89-.45 1.87-.45 2.96 0 .99.13 1.9.39 2.75.26.84.64 1.57 1.16 2.19.51.62 1.15 1.1 1.91 1.44.76.34 1.65.51 2.65.51.6 0 1.17-.07 1.73-.2s1.05-.35 1.5-.65c.44-.3.81-.68 1.1-1.16.29-.47.48-1.05.59-1.73h-4.97v-4.69h12.01c0 1.23-.05 2.36-.15 3.36-.1 1.01-.31 1.94-.62 2.81-.43 1.21-1.02 2.29-1.76 3.23s-1.61 1.72-2.61 2.35c-1 .63-2.09 1.11-3.29 1.44-1.19.33-2.45.49-3.77.49-1.81 0-3.46-.3-4.95-.9-1.49-.6-2.77-1.44-3.84-2.52-1.07-1.08-1.9-2.38-2.5-3.89-.6-1.51-.89-3.18-.89-5.02s.29-3.47.88-4.99zm-21.4-6.62h9.41c1.3 0 2.43.19 3.4.57.97.38 1.76.9 2.39 1.56.63.66 1.1 1.42 1.42 2.28.32.86.48 1.79.48 2.78 0 1.77-.43 3.21-1.28 4.31-.85 1.1-2.11 1.85-3.78 2.24l7.32 9.54h-7.53l-5.77-8.95v8.95h-6.05V31.29zm-18.12 0h6.61l8.86 23.27h-6.45l-1.39-4.04h-8.64l-1.39 4.04h-6.45l8.86-23.27zm-27.66 0h9.01c2.14 0 3.77.51 4.88 1.54 1.11 1.03 1.67 2.51 1.67 4.44 0 1.17-.21 2.15-.63 2.92-.42.77-1.06 1.43-1.93 1.96.86.16 1.6.42 2.21.76.61.34 1.1.76 1.48 1.25.38.49.65 1.05.82 1.67.16.62.25 1.28.25 1.98 0 1.09-.19 2.06-.57 2.9-.38.84-.92 1.55-1.61 2.13-.69.58-1.53 1.01-2.52 1.3-.99.29-2.1.43-3.33.43h-9.72V31.29zm-9.03 32.09c.05-1.8 1.54-3.22 3.34-3.17s3.22 1.54 3.17 3.34c-.05 1.8-1.54 3.22-3.34 3.17s-3.22-1.54-3.17-3.34zm185.16 86.31H.89V116.1h30.85l.44 3.12H4.72c-.35 0-.63.28-.63.63v26.06c0 .35.28.63.63.63h190.56c.35 0 .63-.28.63-.63v-26.06c0-.35-.28-.63-.63-.63H60.31l25.47-3.18v.06h113.33v33.58z" fill="#fff"/><path fill="#fff" d="M126.57 38.16l-2.72 7.75h5.44l-2.72-7.75zM53.94 38.16l-2.72 7.75h5.44l-2.72-7.75zM78.7 40.94c.64-.49.96-1.2.96-2.13s-.32-1.64-.96-2.13c-.64-.49-1.55-.74-2.75-.74h-1.14v5.74h1.14c1.19 0 2.11-.25 2.75-.74zM34.62 47.39c0-.86-.33-1.49-.99-1.88-.66-.39-1.75-.59-3.27-.59h-1.33v4.94h1.33c1.52 0 2.61-.2 3.27-.59.66-.39.99-1.02.99-1.88zM32.98 38.16c0-1.5-.95-2.25-2.84-2.25h-1.11v4.51h1.11c1.89 0 2.84-.75 2.84-2.25zM31.54 27.03c-.04.88.51 1.3 1.29 1.34 1.22.06 2.78-1.5 3.34-4.45H34.4c-2.06 1.22-2.81 2.02-2.86 3.12zM147.1 23.92h-.6l.22.03c.13 0 .26 0 .38-.03zM153.12 24.33c-.01.24.22.44.49.45.33.02.67-.15.88-.62-.23-.11-.43-.19-.62-.24h-.52c-.13.08-.22.23-.23.41zM86.68 29.88c-.03.6.28.98.92 1.01 1 .05 2.02-1.74 2.79-4.34-2 1.2-3.66 2.27-3.71 3.32zM77.04 10.47c.82.04 1.88-.6 1.93-1.69.05-1.09-.79-1.67-1.67-1.72-1-.05-1.7.79-1.76 1.82-.04.82.56 1.54 1.49 1.59z"/><path d="M36.32 22.86c-.03.37-.09.72-.15 1.06h2.69c.06-.41.11-.84.13-1.29.02-.45.01-.82 0-1.18 1.7-.93 3.28-1.91 4.39-3.08.11-.09.23-.21.36-.37.65-.81 1.94-2.47 2.99-4.09.3.05.57.06.84.07.3.02.48.18.46.51-.04.72-.89 2.13-.96 3.4-.09 1.75 1.21 3.06 2.93 3.14 1.33.07 2.36-.63 3.19-1.45.38.97 1.21 1.73 2.52 1.8 1.24.06 2.47-.87 3.3-2.35.3 1.29.96 2.5 2.5 2.58 1.29.06 2.3-.59 3.1-1.37.04 1.18 1 1.85 1.86 1.9.48.02 2.13-1.38 3.03-2.54.53.81 1.52 1.59 2.85 1.66.83.04 1.47-.15 2.03-.51.5 1.17 1.38 1.78 2.44 1.83 1.38.07 2.51-.77 3.4-1.67.54 1.25 1.67 1.78 2.77 1.83 1.02.05 1.88-.36 2.61-.92.39.66 1.06 1.11 2.16 1.16 1.12.06 2.52-.78 3.6-1.79-.1.94-.2 1.85-.37 2.74h3.74c1.42-.93 2.45-1.88 3.62-3.29.35-.44.46-.76.47-.94.02-.42-.33-.71-.69-.73-.33-.02-.52.16-.88.59-.87 1.08-1.76 1.94-3.14 2.87.15-1.2.27-2.44.34-3.71.1-2.05.69-2.9.74-3.78.06-1.15-.75-1.97-1.62-2.02-.69-.04-1.23.48-1.29 1.48-.08 1.02-.25 2.59-.96 4.04-.64 1.3-2.09 2.44-2.72 2.4-.66-.03-.83-.34-.78-1.43.09-1.84 1.37-3.74 1.44-5.07.06-1.12-.72-1.88-1.54-1.92-.69-.03-1.01.19-1.36 1.08-.56 1.42-1.18 4.21-1.25 5.51-.02.38-.02.76 0 1.12-.46.4-.91.68-1.28.66-.88-.04-1.38-.8-1.33-1.85.16-3.08.44-5.09.75-6.47 2.52-.08 3.1-.24 3.12-.75.02-.48-.37-1.14-.79-1.16-.51-.03-.71.27-1.92.27.49-1.4.94-1.89.97-2.43.04-.69-1.03-1.81-1.66-1.84-.6-.03-.9.38-1.25 1.42-.21.62-.47 1.49-.7 2.54-.18-.04-.36-.05-.57-.06-.6-.03-1.24.66-1.27 1.09-.02.36.08.73 1.44.8-.33 1.83-.62 3.99-.75 6.44V19c-.7.78-1.52 1.53-2.11 1.5-.85-.04-1.32-.76-1.24-2.42.11-2.17.98-3.31 1.04-4.43.04-.75-.55-1.69-1.43-1.74-1.06-.05-2.05 2.77-2.2 5.82-.02.49-.01.94.03 1.36-.45.4-.85.57-1.34.55-.94-.05-1.63-.78-1.99-1.4.62-.88 2.23-3.43 2.29-4.52.05-1.03-.46-1.75-1.57-1.8-1.51-.08-2.19 2.67-2.39 5.93-.42.52-1.13 1.37-1.64 1.94-.17-1.4-.31-5.16-.25-6.4.08-1.51-.32-2.07-1.32-2.12-1.09-.05-1.63.58-1.69 1.61-.04.83.41 2.67.52 5.11-.71.88-1.66 1.76-2.31 1.73-.82-.04-.91-1.74-.82-3.46.09-1.69 1.34-2.66 1.39-3.59.03-.6-.46-1.17-1-1.2-.75-.04-1.27.63-1.6 1.16-.25-1.04-1.16-1.69-2.33-1.75-1.68-.08-4.54 2.49-4.95 6.68-.71.81-1.57 1.61-2.18 1.58-.51-.03-.95-.35-.92-1.05.07-1.36 1.15-2.94 1.23-4.57.04-.82-.92-1.59-1.85-1.64-.6-.03-.94.1-1.46.2.24-.53.41-1.01.43-1.4.08-1.57-.91-2.44-2.36-2.51-1.6-.08-2.78 1.16-2.85 2.49-.07 1.3.92 2.26 2.16 2.8-.82 1.35-1.92 2.72-2.44 3.36-.03.04-.06.07-.09.11-.88 1.06-2.25 2.04-3.81 2.9-.16-.98-.4-1.59-.35-2.59.05-.94 1.98-2.71 2.07-4.53.06-1.12-.73-1.79-1.81-1.85-1.24-.06-2.38 1.54-2.58 5.47-.05 1-2.07 2.04-3.91 1.95-2.02-.1-4.25-1.55-3.99-6.77.26-5.19 3.66-9.62 7.53-9.43 1.21.06 1.72.63 1.68 1.42-.06 1.21-1.58 1.34-1.65 2.67-.04.82.59 1.54 1.67 1.6 1.15.06 2.61-1.32 2.71-3.31.12-2.35-1.21-4.27-4.44-4.43-5.1-.26-10.29 4.72-10.63 11.51-.31 6.19 3.21 8.94 6.98 9.13 1.66.08 3.18-.66 4.27-1.3v1.66c-2.42 1.02-4.2 1.91-5.36 2.9h3.36c.54-.32 1.18-.67 1.92-1.06zm19.36-4.63c.18-3.62 1.71-5.78 2.74-5.73 1.15.06-.03 2.33-.07 3.14-.02.3.03.55.26.8-.48 1.07-1.71 3.33-2.22 3.31-.6-.03-.76-.61-.71-1.52zm-10.79-7.5c.02-.45.28-.74.7-.72.36.02.74.25.72.82-.02.3-.13.69-.3 1.07-.74-.25-1.14-.75-1.12-1.18zM119.8 17.71c.06-1.12.07-2.08.06-3.02h.03c.76.04 1.18.64 1.48.65.33.02 1.9-1.57 1.92-2.08.03-.63-.47-.9-1.07-.93-.69-.03-1.12.58-1.84.54l-.51-.03c.01-.88.03-1.75.08-2.69.03-.69.09-1.18.2-1.62 1.13-.25 2.2-1.07 2.26-2.25.05-.97-.7-1.76-1.66-1.81-1.81-.09-1.71 2.15-2.86 2.1-2.23-.11-3.25-1.56-5.82-1.69-3.14-.16-6.26 2.29-6.42 5.52-.15 2.9 2.15 4.8 4.32 4.91 1.33.07 2.08-.41 2.13-1.44.04-.88-.5-1.42-1.05-1.44-.63-.03-.96.44-1.53.41-.54-.03-1.72-.69-1.62-2.74.09-1.78 1.8-3.27 4.03-3.16 1.81.09 3.37 1.65 5.53 1.94-.4.77-.56 1.55-.6 2.33-.03.54-.05 1.09-.05 1.57-.58 0-1.12-.03-1.66-.05-.85-.04-1.44.99-1.46 1.32-.03.63.38.9 1.07.93.33.02 1.18-.03 2.09-.11.01.94.03 1.85-.02 2.75-.12 2.45-1.07 5.58-4.15 5.42-1.48-.07-2.01-.86-1.99-1.34.02-.48.27-.62.3-1.23.05-.97-.53-1.45-1.41-1.49-.85-.04-1.93.51-2 1.9-.05.93.48 2.16 1.72 3.04h7.44c1.98-1.37 2.93-3.86 3.05-6.2zM150.16 23.69c.09-.08.18-.19.29-.31.52-.67 1.55-1.86 2.55-3.17.88.65 1.59 1.38 1.69 2.45-.39-.11-.75-.22-1.05-.23-1.06-.05-2.1.44-2.3 1.5h2.01c.06-.04.14-.06.21-.05.1 0 .2.03.31.05h7.25s.07-.08.1-.12c.39-.43.46-.76.47-.94.02-.42-.33-.71-.69-.73-.3-.02-.52.16-.85.59-.74.87-1.26.97-2.07.92-.24-.01-.48-.02-.75-.1.07-.24.11-.48.13-.75.11-2.2-1.71-3.32-3.2-4.31.62-.97 1.06-1.85 1.09-2.46.07-1.39-1.07-2.26-2.33-2.33-1.66-.08-2.99 1.06-3.07 2.63-.07 1.42.79 2.28 1.81 3.03-.73.98-1.54 1.9-2.05 2.5-.08.08-.17.18-.26.31 0 0-.02.02-.02.03-.64.75-1.45 1.56-2.32 1.72h2.85l.2-.23zm2.87-8.33c.39.02.59.3.57.72-.02.39-.26.9-.59 1.45-.46-.45-.77-.92-.74-1.52.02-.45.34-.68.76-.66zM128.33 22.53c.11.49.28.97.53 1.39h4.88c.3-.27.58-.57.83-.86.19.32.4.61.63.86h6.66c.15-.16.3-.32.43-.47.1.17.2.32.31.47h3.89c-1.02-.18-2.08-1.25-2.48-2.29 1.73-2.46 4.27-7.2 4.42-10.31.11-2.17-1.02-3.11-2.11-3.16-2.08-.11-4.59 2.83-4.99 10.67-.06 1.16.06 2.17.29 3.04-.73.85-1.66 1.74-2.65 1.69-1.09-.05-2.27-1.2-2.7-2.32 1.73-2.46 4.27-7.2 4.42-10.31.11-2.17-1.02-3.11-2.11-3.16-2.08-.1-4.59 2.83-4.99 10.67-.06 1.17.06 2.18.3 3.04-.7.87-1.65 1.73-2.29 1.7-.82-.04-.91-1.74-.82-3.46.09-1.69 1.34-2.66 1.39-3.59.03-.6-.46-1.17-1-1.2-.75-.04-1.27.63-1.6 1.16-.25-1.04-1.16-1.69-2.33-1.75-1.75-.09-4.77 2.7-4.99 7.19-.04.86.2 1.74.75 2.39h4.25c.39-.37.76-.84 1.06-1.39zM146 10.11c.21.01.38.2.36.59-.15 2.99-1.64 6.73-2.72 8.94.23-3.32 1.24-9.59 2.36-9.54zm-7.73-.39c.21.01.38.2.36.59-.15 2.99-1.64 6.73-2.72 8.94.23-3.32 1.24-9.59 2.36-9.54zm-12.55 13.53c-.6-.03-.76-.61-.71-1.52.18-3.62 1.71-5.78 2.74-5.73 1.15.06-.03 2.33-.07 3.14-.02.3.03.55.26.8-.48 1.07-1.71 3.33-2.22 3.31z" fill="#fff"/></svg>