<svg xmlns="http://www.w3.org/2000/svg" width="260" height="116" viewBox="0 0 260 116"><path d="M19.38,64.39s55-30.63,114-30.63,108.86,26.4,108.86,26.4" fill="none" stroke="#fff" stroke-miterlimit="10" stroke-width="6.18"/><path d="M31.14,85.21c18.24-8.62,46.42-27.48,102.22-27.48S231,81.62,231,81.62" fill="none" stroke="#fff" stroke-miterlimit="10" stroke-width="6.18"/><path d="M5.5,39.54S63.71,5,136.47,5s119,29.83,119,29.83l-37.69,71.84S179.13,86,133.36,86s-87.93,25-87.93,25Z" fill="none" stroke="#fff" stroke-miterlimit="10" stroke-width="6.18"/><polygon points="211.3 74 201.6 97.39 214.12 102.36 216.28 98.63 208.94 95.48 211.64 90.17 217.85 92.91 219.84 89.09 212.96 86.37 215.04 81.72 222.66 85.21 224.82 81.13 211.72 74.92 211.3 74" fill="#fff"/><polygon points="204.5 76.99 206.91 72.7 197.84 69.42 198.53 67.29 191.82 67.78 183.78 91.75 189.91 93.74 193.43 82.93 200.61 85.86 202.51 81.47 194.87 78.53 196.42 73.77 204.5 76.99" fill="#fff"/><polygon points="175.9 63.39 171.01 87.6 177.56 89.09 182.7 65.3 175.9 63.39" fill="#fff"/><polygon points="156.99 60.41 153.84 84.7 167.85 87.6 168.52 83.7 160.14 82.21 163.54 61.32 156.99 60.41" fill="#fff"/><path d="M118.54,36.8a10.19,10.19,0,0,0,0,20.36A10,10,0,0,0,128.23,47,10,10,0,0,0,118.54,36.8Zm0,16c-2.07,0-3.75-2.69-3.75-6s1.68-6,3.75-6,3.75,2.69,3.75,6S120.61,52.78,118.54,52.78Z" fill="#fff"/><path d="M146.6,47.11a6.56,6.56,0,0,0,3.47-5.59c0-3.9-4.82-6.44-4.82-6.44l-12.43.51V56.48h5.93V49.07h2.54l4.63,8.09h6.33Zm-7.85-2.6V39.92s5.14-.27,5.14,2.29S138.75,44.51,138.75,44.51Z" fill="#fff"/><polygon points="127.43 6.64 127.43 32.55 130.41 32.55 130.41 19.98 136.16 31.63 137.79 31.56 144.32 20.91 144.32 32.55 149.29 32.55 150.07 7.78 146.17 7.78 138.75 20.62 131.62 6.99 127.43 6.64" fill="#fff"/><path d="M106.43,23a9.68,9.68,0,0,0,3.29-7.55c-.33-4.6-9.12-6.82-9.12-6.82L89.28,10.7l3.86,26.1,5-1.72-1.47-9,5.41-.67,7.06,8.37,5.17-1.07ZM96.25,21.28l-.82-6.07s7.64-1.48,7.56,2.38S96.25,21.28,96.25,21.28Z" fill="#fff"/><path d="M68.51,16s2.79,10.83,3.45,13,2.3,5.91,5.83,4.76,5-2.54,4.1-6.89-3.2-13.55-3.2-13.55l3.46-.82s2.45,10.59,3.19,13.87S85.67,37,78.69,39,68.18,36.8,67,32.45s-4.43-16-4.43-16Z" fill="#fff"/><polygon points="225.28 23.33 231.53 40.25 226.08 50.98 231.53 53.62 236.42 42.4 253.09 36.31 248.52 32.55 236.9 36.95 231.53 24.61 225.28 23.33" fill="#fff"/><polygon points="221.83 27.9 224.4 22.05 209.17 16.52 200.19 42.64 215.1 47.69 217.1 42.32 207.08 38.72 209.08 33.16 217.42 35.83 218.95 31.42 210.68 28.69 211.97 25.09 221.83 27.9" fill="#fff"/><path d="M169.6,10.06A12.55,12.55,0,0,0,153,16.44a12.31,12.31,0,1,0,22.3,10.41A12.55,12.55,0,0,0,169.6,10.06Zm-6,18.23c-2.4-.2-4.09-3.46-3.78-7.28s2.51-6.76,4.91-6.57,4.1,3.46,3.78,7.28S166,28.48,163.6,28.29Z" fill="#fff"/><path d="M51.72,22.29A12.56,12.56,0,0,0,39.41,35.08a12.31,12.31,0,1,0,24.61,0A12.56,12.56,0,0,0,51.72,22.29ZM54,41.35c-2.26.84-5.17-1.4-6.51-5s-.58-7.19,1.67-8,5.18,1.39,6.51,5S56.25,40.51,54,41.35Z" fill="#fff"/><polygon points="12.04 38.93 27.14 44.02 35.02 57.73 40.69 54.44 34.04 42.13 39.78 24.07 34.94 25.14 31.33 37.86 18.36 34.5 10.4 38.11 12.04 38.93" fill="#fff"/><path d="M131.92,73.86a9.65,9.65,0,0,0,4-7.21C136,62,127.44,59,127.44,59L116,60l1.43,26.35,5.15-1.25L121.92,76l5.45-.18,6.26,9,5.25-.59Zm-10-2.65-.26-6.12s7.74-.77,7.3,3.06S122,71.21,122,71.21Z" fill="#fff"/><path d="M95.28,63.75S97,74.81,97.4,77.08s1.7,6.11,5.32,5.32,5.24-2,4.78-6.45-1.83-13.79-1.83-13.79l3.53-.47s1.37,10.78,1.78,14.12-.73,10.49-7.88,11.83-10.23-3.26-11-7.71-2.8-16.37-2.8-16.37Z" fill="#fff"/><path d="M75.73,69a12.79,12.79,0,1,0,11.52,13.5A12.55,12.55,0,0,0,75.73,69ZM76.86,88.1c-2.31.71-5.08-1.7-6.2-5.37s-.16-7.21,2.15-7.91,5.08,1.7,6.2,5.37S79.16,87.4,76.86,88.1Z" fill="#fff"/><polygon points="35.73 86 50.83 91.09 58.71 104.8 64.38 101.52 57.73 89.21 63.47 71.15 58.63 72.22 55.02 84.94 42.05 81.57 34.09 85.18 35.73 86" fill="#fff"/><polygon points="176.59 35.06 183.01 12.08 186.39 12.08 192.48 28.64 197.21 13.88 201.72 15.46 194.17 40.25 189.15 38.22 183.13 24.02 179.86 36.8 176.59 35.06" fill="#fff"/></svg>