<svg xmlns="http://www.w3.org/2000/svg" viewBox="0 0 300 53"><path d="M48.67 22.31c-.54 1.24-1.16 1.93-1.88 2.08-.72.15-1.71-.06-2.98-.63a69.907 69.907 0 0 1-10.03-5.64 67.149 67.149 0 0 1-8.88-7.2c-.13-.1-.31-.18-.53-.23-.22-.05-.46.06-.73.33-2.41 2.51-5.22 4.86-8.43 7.05a70.454 70.454 0 0 1-10.38 5.84c-1.4.6-2.44.77-3.11.5-.67-.27-1.17-.94-1.5-2.01-.3-1.14-.28-1.98.05-2.53.33-.55 1.05-1.08 2.16-1.58 3.68-1.6 6.95-3.43 9.81-5.47 2.86-2.04 5.59-4.41 8.2-7.12.5-.5 1.11-.89 1.83-1.15.72-.27 1.43-.4 2.13-.4 1.34 0 2.44.43 3.31 1.3 1.2 1.27 2.57 2.53 4.11 3.79a77.59 77.59 0 0 0 4.79 3.59c1.65 1.14 3.31 2.17 4.97 3.08 1.66.92 3.2 1.68 4.64 2.28 1.1.5 1.89 1.03 2.36 1.58s.5 1.36.1 2.43v.1zM43.4 34.85c-1.6 2.51-3.37 4.69-5.29 6.55a31.95 31.95 0 0 1-6.39 4.79c-2.34 1.34-4.9 2.47-7.67 3.39-2.78.92-5.82 1.7-9.13 2.33h.05c-1.64.37-2.82.36-3.54-.02-.72-.38-1.15-1.25-1.28-2.58-.07-.97.23-1.71.9-2.23s1.64-.91 2.91-1.18c5.25-1.14 9.86-2.73 13.82-4.79 3.96-2.06 7.05-4.51 9.25-7.35.4-.6.28-.9-.35-.9H5.28c-1.17 0-1.94-.28-2.31-.83-.37-.55-.55-1.28-.55-2.18 0-.97.18-1.71.55-2.23.37-.52 1.14-.78 2.31-.78h22.07s-.07-.06-.1-.08a.29.29 0 0 1-.1-.13c-1.04-.97-2.17-1.92-3.41-2.86-1.24-.94-2.46-1.79-3.66-2.56-.87-.57-1.35-1.32-1.45-2.26-.1-.94.17-1.76.8-2.46.53-.53 1.14-.86 1.81-.98.67-.12 1.42.09 2.26.63 1.34.84 2.65 1.75 3.94 2.73 1.29.99 2.57 2.03 3.84 3.13.84.74 1.35 1.46 1.55 2.18.2.72-.02 1.46-.65 2.23-.07.07-.13.13-.18.2-.05.07-.11.13-.18.2h7.12c1.81 0 3.18.43 4.11 1.28s1.4 1.98 1.4 3.39c0 1.07-.35 2.17-1.05 3.31v.05zM93 44.63c0 1.81-.57 3.22-1.71 4.24-1.14 1.02-2.57 1.53-4.31 1.53H62.25c-1.74 0-3.17-.51-4.29-1.53s-1.68-2.43-1.68-4.24v-31.6c0-1.81.56-3.21 1.68-4.21 1.12-1 2.55-1.5 4.29-1.5h24.73c2.04 0 3.55.5 4.54 1.5.99 1 1.48 2.41 1.48 4.21v31.6zm-6.01-29.39c0-.74-.09-1.21-.28-1.43-.18-.22-.56-.33-1.13-.33H63.56c-.67 0-1.05.13-1.15.4-.1.27-.15.59-.15.95v10.23h24.73v-9.83zm0 16H62.26v11.19c0 .77.06 1.26.18 1.48.12.22.51.33 1.18.33h21.97c.77 0 1.2-.22 1.28-.65.08-.43.13-.92.13-1.45V31.26zM107.8 5.86c1.07 0 1.88.33 2.43 1 .55.67.69 1.67.43 3.01-1.27 6.15-1.98 12.41-2.13 18.78-.15 6.37.23 12.53 1.13 18.48.23 1.17.06 2.16-.53 2.98-.59.82-1.4 1.23-2.43 1.23-.87 0-1.6-.4-2.21-1.2-.23-.37-.46-1.13-.68-2.28-.22-1.15-.41-2.73-.58-4.74-.37-4.48-.53-8.91-.48-13.29.05-4.38.38-8.89.98-13.54.63-5.05 1.2-8.01 1.71-8.88.6-1.04 1.39-1.55 2.36-1.55zm23.37 14.74c-4.95.13-9.91-.02-14.9-.45-.97-.07-1.7-.28-2.18-.63-.48-.35-.73-1.11-.73-2.28 0-.97.29-1.65.88-2.03.58-.38 1.28-.56 2.08-.53 1.4.07 2.82.13 4.24.18 1.42.05 2.78.09 4.09.13 1.3.03 2.52.05 3.64.05s2.08-.02 2.88-.05V8.22c0-.97.21-1.68.63-2.13.42-.45 1.16-.68 2.23-.68 1.84 0 2.76.94 2.76 2.81v6.57c.74-.07 1.45-.1 2.16-.1s1.42-.03 2.16-.1c1.34-.07 2.39.08 3.16.43s1.15 1.13 1.15 2.33c0 .64-.18 1.17-.55 1.61-.37.43-.85.75-1.45.95-.97.3-3.18.5-6.62.6V34.4c1.27.87 2.5 1.81 3.69 2.81s2.32 2.04 3.39 3.11c.8.84 1.51 1.64 2.13 2.41.62.77.93 1.5.93 2.21 0 .77-.3 1.45-.9 2.03-.6.58-1.29.88-2.06.88-1 0-2.01-.64-3.01-1.91a29.612 29.612 0 0 0-4.61-4.76c-.6 3.24-1.94 5.63-4.01 7.15-2.07 1.52-4.68 2.28-7.82 2.28-1.54 0-3.07-.19-4.59-.58-1.52-.38-2.88-.97-4.09-1.76-1.2-.79-2.18-1.8-2.93-3.03-.75-1.24-1.13-2.71-1.13-4.41s.3-3.22.9-4.54c.6-1.32 1.44-2.44 2.51-3.36 1.07-.92 2.33-1.61 3.79-2.08 1.45-.47 3.02-.7 4.69-.7 2.37 0 4.88.49 7.52 1.45V20.62zm-1.95 22.98c1-.94 1.61-2.89 1.81-5.87-2.91-1.37-5.42-2.06-7.52-2.06-.8 0-1.58.09-2.33.28-.75.18-1.4.48-1.96.88-.55.4-1 .9-1.33 1.5-.33.6-.5 1.32-.5 2.16s.25 1.6.75 2.18 1.13 1.07 1.88 1.45c.75.38 1.55.66 2.41.83.85.17 1.63.25 2.33.25 1.81 0 3.29-.54 4.46-1.61zM158.16 6.81c0-1.07.28-1.84.83-2.31.55-.47 1.31-.7 2.28-.7s1.71.23 2.23.7.78 1.24.78 2.31v5.07h21.52V6.76c0-1.07.27-1.84.8-2.31s1.29-.7 2.26-.7c.87 0 1.6.26 2.18.78.58.52.88 1.26.88 2.23v5.12h4.71c1.07 0 1.82.27 2.26.8.43.54.65 1.29.65 2.26s-.22 1.71-.65 2.23c-.43.52-1.19.78-2.26.78h-4.71v27.03c0 2.07-.41 3.53-1.23 4.36-.82.84-2.23 1.25-4.24 1.25h-22.92c-1.84 0-3.19-.43-4.06-1.3-.87-.87-1.3-2.31-1.3-4.31V17.95h-4.77c-1.07 0-1.82-.26-2.26-.78-.43-.52-.65-1.26-.65-2.23s.22-1.72.65-2.26c.43-.53 1.19-.8 2.26-.8h4.77V6.81zm6.12 20.72h21.52v-9.58h-21.52v9.58zm20.61 16.9c.37 0 .61-.07.73-.2s.18-.4.18-.8v-9.78h-21.52v9.88c0 .37.04.61.13.73.08.12.33.18.73.18h19.76zM244.63 44.18c0 1.94-.37 3.34-1.1 4.21-.74.87-2.09 1.3-4.06 1.3h-28.49c-1.97 0-3.31-.43-4.01-1.3-.7-.87-1.05-2.27-1.05-4.21V12.93c0-1.94.35-3.33 1.05-4.16.7-.84 2.04-1.25 4.01-1.25h28.49c1.97 0 3.33.41 4.06 1.23.73.82 1.1 2.22 1.1 4.19v31.25zm-5.87-29.19c0-1-.45-1.5-1.35-1.5h-24.43c-.84 0-1.25.5-1.25 1.5v27.03c0 .67.09 1.1.28 1.3s.51.3.98.3h24.43c.5 0 .85-.13 1.05-.4s.3-.67.3-1.2V14.99zM260.28 32.59c0-2.94.99-5.96 2.98-9.05 1.99-3.09 4.86-6.09 8.6-9l-17.45 1.6c-1.07.1-1.94.03-2.61-.23-.67-.25-1.07-.96-1.2-2.13-.13-1.34.11-2.26.73-2.76s1.46-.79 2.53-.85l30.65-1.96c1.17-.07 2.05.17 2.63.7.58.54.88 1.29.88 2.26 0 1.07-.28 1.81-.83 2.23-.55.42-1.53.64-2.93.68-.47.03-.95.12-1.45.25s-1.07.35-1.71.65c-.7.37-1.5.83-2.38 1.38-.89.55-1.8 1.18-2.73 1.88-.94.7-1.88 1.47-2.83 2.31-.95.84-1.85 1.72-2.68 2.66-2.21 2.41-3.55 4.79-4.04 7.15-.48 2.36-.34 4.54.43 6.55.37.97.92 1.79 1.66 2.46.73.67 1.81 1.22 3.21 1.66 1.4.43 3.22.74 5.44.9 2.22.17 4.99.22 8.3.15 1.4-.03 2.36.14 2.86.53.5.38.75 1.11.75 2.18 0 .87-.25 1.61-.75 2.23-.5.62-1.37.93-2.61.93-4.35 0-8.12-.21-11.31-.63-3.19-.42-5.84-1.2-7.92-2.33-2.09-1.14-3.64-2.7-4.66-4.69-1.02-1.99-1.53-4.56-1.53-7.7zm27.53-28.34c.53-.4 1.12-.56 1.76-.48.63.08 1.25.53 1.86 1.33.07.1.16.23.28.38.12.15.24.33.38.53l.85 1.3c.3.43.6.89.9 1.35.3.47.55.89.75 1.25.37.67.5 1.35.4 2.03-.1.69-.53 1.23-1.3 1.63-.74.37-1.35.44-1.86.23-.5-.22-1.05-.86-1.66-1.93-.13-.23-.31-.53-.53-.88-.22-.35-.43-.71-.65-1.08-.22-.37-.44-.72-.68-1.05-.23-.33-.43-.6-.6-.8-.67-.87-.99-1.6-.95-2.18.03-.58.38-1.13 1.05-1.63zm5.02-2.96c.53-.4 1.11-.54 1.73-.43.62.12 1.23.58 1.83 1.38.17.2.38.49.65.88a82.814 82.814 0 0 1 1.75 2.63c.3.47.55.89.75 1.25.37.67.51 1.34.43 2.01-.08.67-.51 1.2-1.28 1.6-.74.37-1.34.44-1.81.23-.47-.22-1-.86-1.6-1.93-.13-.23-.31-.52-.53-.85-.22-.33-.44-.68-.68-1.03-.23-.35-.47-.69-.7-1.03-.23-.33-.45-.63-.65-.9-.67-.87-.99-1.6-.95-2.18.03-.58.38-1.13 1.05-1.63z" fill="#fff"/></svg>