<svg xmlns="http://www.w3.org/2000/svg" width="350" height="18" viewBox="0 0 350 18"><path d="M8.73,13.13c0,2.54,0,2.9,1.45,3l.78.07c.14.1.09.54-.05.61-1.38,0-2.2-.07-3.17-.07s-1.81,0-3.36.07a.42.42,0,0,1,0-.61l.87-.07c1.38-.12,1.5-.48,1.5-3V2.32c0-.75,0-.77-.73-.77H4.69c-1,0-2.37,0-3,.6A4.3,4.3,0,0,0,.63,3.82.48.48,0,0,1,0,3.65,25.43,25.43,0,0,0,.92.05C1,0,1.31,0,1.38.05c.14.77.94.75,2.05.75h9.8c1.3,0,1.52-.05,1.88-.68.13,0,.39,0,.44.07a14.12,14.12,0,0,0-.36,3.68.46.46,0,0,1-.63,0A3,3,0,0,0,14,2.15a4.8,4.8,0,0,0-2.8-.6H9.43c-.72,0-.7,0-.7.82Z" fill="#fff"/><path d="M22.08,9c-1.16,0-1.21,0-1.21.77v3.41c0,2.54.12,2.88,1.48,3l.7.07c.14.1.09.54-.05.61-1.31,0-2.13-.07-3.07-.07s-1.86,0-2.81.07a.49.49,0,0,1-.05-.61l.42-.07c1.35-.24,1.4-.48,1.4-3V4.42c0-2.54-.17-2.95-1.43-3l-.63,0c-.14-.1-.09-.53.05-.61,1.19,0,2,.08,3.05.08s1.76,0,2.8-.08c.15.08.2.51.05.61l-.46,0c-1.4.14-1.45.5-1.45,3V7.2c0,.75.05.78,1.21.78H29c1.16,0,1.21,0,1.21-.78V4.42c0-2.54-.05-2.9-1.48-3l-.46,0a.48.48,0,0,1,.05-.61c1.11.05,1.93.08,2.93.08S33,.77,34.1.72c.14.08.19.51,0,.61l-.51,0c-1.4.14-1.45.5-1.45,3v8.71c0,2.54.05,2.85,1.45,3l.58.07c.15.1.1.54,0,.61-1.16,0-2-.07-2.92-.07s-1.87,0-2.93.07c-.15-.07-.19-.46-.05-.61l.46-.07c1.48-.24,1.48-.48,1.48-3V9.72C30.21,9,30.16,9,29,9Z" fill="#fff"/><path d="M38.38,4.42c0-2.51-.05-2.87-1.47-3l-.39,0c-.15-.1-.1-.53,0-.61,1,.05,1.86.08,2.85.08H44A29.32,29.32,0,0,0,47.23.72a26.87,26.87,0,0,1,.39,3.22A.5.5,0,0,1,47,4c-.36-1.14-.58-2-1.83-2.3a11.72,11.72,0,0,0-2.35-.14H41.09c-.73,0-.73,0-.73,1V7.35c0,.68.08.68.8.68h1.41a8.66,8.66,0,0,0,2-.15c.29-.1.46-.24.58-.85l.19-1c.13-.14.54-.14.63,0,0,.58-.09,1.52-.09,2.44S46,10.3,46,10.83c-.09.17-.5.17-.63,0l-.21-.95A1,1,0,0,0,44.43,9a8.53,8.53,0,0,0-1.86-.12H41.16c-.72,0-.8,0-.8.66v3.41c0,1.28.08,2.1.46,2.51s.8.56,2.93.56a7,7,0,0,0,3.1-.37,6.07,6.07,0,0,0,1.71-2.34.45.45,0,0,1,.61.17,21.7,21.7,0,0,1-1.09,3.36c-2.18,0-4.33-.07-6.48-.07H39.42c-1,0-1.86,0-3.29.07a.49.49,0,0,1-.05-.61l.8-.07c1.38-.12,1.5-.48,1.5-3Z" fill="#fff"/><path d="M59.57,2.46a10.45,10.45,0,0,1,6.53-2A18.42,18.42,0,0,1,70.38,1a2,2,0,0,0,.67.1c0,.55.15,2.08.34,3.55a.51.51,0,0,1-.65.05c-.36-1.65-1.45-3.53-5-3.53-3.7,0-6.84,2.34-6.84,7.35s3.22,7.88,7.18,7.88a5.17,5.17,0,0,0,5.06-3.45.48.48,0,0,1,.62.09,8.82,8.82,0,0,1-1.16,3.32,3.87,3.87,0,0,0-.84.24,14.49,14.49,0,0,1-3.82.55,10.58,10.58,0,0,1-6-1.62,7.8,7.8,0,0,1-3.43-6.65A8,8,0,0,1,59.57,2.46Z" fill="#fff"/><path d="M82.13,11.15c-.17-.54-.26-.61-1-.61H77.49c-.61,0-.75.07-.92.58l-.85,2.54a9.34,9.34,0,0,0-.53,2c0,.29.12.43.7.48l.8.07a.39.39,0,0,1,0,.61c-.63,0-1.38,0-2.51-.07-.8,0-1.67,0-2.32.07a.47.47,0,0,1,0-.61l.8-.07A1.61,1.61,0,0,0,74,15c.43-1.12,1.11-2.69,2.12-5.4L78.6,3A3.47,3.47,0,0,0,79,1.33,2.78,2.78,0,0,0,80.27.41a.34.34,0,0,1,.36.22c.32,1.06.7,2.17,1.07,3.24L85,13.59c.7,2.08,1,2.44,2.06,2.56l.65.07a.48.48,0,0,1,0,.61c-1,0-1.84-.07-2.93-.07s-2.08,0-2.78.07a.41.41,0,0,1-.05-.61l.7-.07c.51,0,.85-.19.85-.43a5,5,0,0,0-.31-1.28ZM77.34,9c-.19.56-.17.58.51.58h3c.7,0,.75-.09.53-.75L80.05,4.88c-.19-.58-.41-1.23-.55-1.52h0a13.5,13.5,0,0,0-.58,1.43Z" fill="#fff"/><path d="M90.45,3.94c0-1.69-.12-2.2-1.13-2.35l-.54-.07c-.19-.12-.21-.51,0-.6,2-.12,4-.2,6.07-.2a15.16,15.16,0,0,1,5.32.73,7.25,7.25,0,0,1,4.91,7.13,7.94,7.94,0,0,1-4.24,7.21A11.61,11.61,0,0,1,95.46,17c-1.55,0-3.1-.19-3.94-.19-1,0-1.89,0-3,.07a.49.49,0,0,1,0-.61l.56-.07c1.4-.19,1.45-.48,1.45-3Zm2,8.63a4.5,4.5,0,0,0,.49,2.64c.53.75,1.45,1,3,1,4.69,0,6.8-3.07,6.8-7.57,0-2.66-1.28-7.16-7.62-7.16a5.41,5.41,0,0,0-2.39.34c-.2.15-.25.75-.25,1.84Z" fill="#fff"/><path d="M105.66,1.3a.4.4,0,0,1,.08-.58c.65.05,1.74.08,2.49.08s1.91,0,2.76-.08c.21.08.19.41,0,.58l-.55.05c-.51,0-.8.2-.8.41A19.31,19.31,0,0,0,110.94,5c1.35,3,2.78,6.05,4.18,9,.58-1.21,1.23-2.56,1.86-3.91a4.2,4.2,0,0,0,.39-1,2.06,2.06,0,0,0-.19-.62c-.85-1.94-1.75-3.87-2.66-5.81-.37-.75-.73-1.26-1.55-1.33l-.58-.05a.37.37,0,0,1,0-.58c.7.05,1.62.08,2.58.08,1.21,0,2.11,0,2.66-.08.17.08.2.39,0,.58l-.63.05c-.94.07-1,.24-.5,1.33s1.18,2.71,1.86,4.21c.46-.94.89-1.86,1.42-3.17.88-2.05.75-2.32,0-2.37l-.72-.05c-.17-.24-.13-.5,0-.58.66.05,1.38.08,2.28.08s1.76,0,2.32-.08c.17.08.19.39,0,.58l-.7.05c-1,.07-1.46,1.16-2,2.15s-1.52,3-1.88,3.85a2,2,0,0,0-.22.58,1.84,1.84,0,0,0,.17.58c.82,1.86,1.67,3.68,2.46,5.51.75-1.69,1.48-3.38,2.18-5.1.48-1.16,1.77-4.38,1.94-4.81a15,15,0,0,0,.72-2.2c0-.34-.29-.53-.8-.56L125,1.3c-.19-.21-.17-.48,0-.58.91.05,1.57.08,2.32.08.92,0,1.62,0,2.25-.08.19.08.21.39,0,.58l-.45.05c-1.21.12-1.43.85-2.88,4.21l-1.77,4.09c-1.06,2.46-2,4.83-3,7.42a.5.5,0,0,1-.29.07.77.77,0,0,1-.34-.07c-.77-2.15-2.18-5.17-2.93-6.87a74.46,74.46,0,0,0-3,6.87.5.5,0,0,1-.29.07.92.92,0,0,1-.36-.07c-.41-1-1.36-3.19-1.67-3.89-1.55-3.36-3-6.73-4.62-10.09-.46-1-.75-1.64-1.76-1.74Z" fill="#fff"/><path d="M137,11.15c-.17-.54-.26-.61-1-.61h-3.65c-.6,0-.75.07-.92.58l-.84,2.54a9,9,0,0,0-.54,2c0,.29.12.43.7.48l.8.07a.39.39,0,0,1,0,.61c-.62,0-1.37,0-2.51-.07-.8,0-1.67,0-2.32.07a.47.47,0,0,1,0-.61l.8-.07A1.61,1.61,0,0,0,128.86,15c.43-1.12,1.11-2.69,2.13-5.4L133.45,3a3.36,3.36,0,0,0,.41-1.71,2.73,2.73,0,0,0,1.26-.92.33.33,0,0,1,.36.22c.32,1.06.71,2.17,1.07,3.24l3.31,9.72c.7,2.08,1,2.44,2.06,2.56l.65.07a.48.48,0,0,1,0,.61c-1,0-1.84-.07-2.93-.07s-2.08,0-2.78.07a.42.42,0,0,1-.05-.61l.71-.07c.5,0,.84-.19.84-.43a5,5,0,0,0-.31-1.28ZM132.2,9c-.2.56-.17.58.5.58h3c.7,0,.75-.09.53-.75L134.9,4.88c-.19-.58-.41-1.23-.55-1.52h0c-.07.12-.31.7-.58,1.43Z" fill="#fff"/><path d="M145.3,4.42c0-2.54,0-2.92-1.57-3l-.6,0c-.15-.1-.1-.53.05-.61,1.35.05,2.17.08,3.14.08s1.76,0,3-.08c.15.08.2.51.05.61l-.58,0c-1.42.12-1.47.5-1.47,3v8.42c0,1.52.07,2.15.5,2.61.27.27.73.56,2.64.56,2.06,0,2.56-.1,2.95-.32A5.24,5.24,0,0,0,155,13.3c.14-.12.6,0,.6.14a19.92,19.92,0,0,1-1,3.39c-1.24,0-3.53-.07-6-.07h-2.22c-1,0-1.79,0-3.14.07a.46.46,0,0,1-.05-.61l.72-.07c1.41-.14,1.45-.48,1.45-3Z" fill="#fff"/><path d="M158.68,4.42c0-2.54-.05-2.92-1.57-3l-.61,0a.48.48,0,0,1,.05-.61c1.35.05,2.18.08,3.14.08s1.77,0,3-.08c.14.08.19.51.05.61l-.58,0c-1.43.12-1.48.5-1.48,3v8.42c0,1.52.07,2.15.51,2.61.26.27.72.56,2.63.56s2.57-.1,3-.32a5.16,5.16,0,0,0,1.59-2.39c.15-.12.61,0,.61.14a19.19,19.19,0,0,1-1,3.39c-1.23,0-3.53-.07-6-.07h-2.23c-1,0-1.79,0-3.14.07-.15-.07-.19-.46-.05-.61l.73-.07c1.4-.14,1.45-.48,1.45-3Z" fill="#fff"/><path d="M172.05,4.47c0-2.56-.05-3-1.47-3.09l-.61,0c-.14-.1-.09-.53.05-.61,1.21.05,2,.08,3,.08s1.79,0,3-.08c.14.08.19.51.05.61l-.61,0c-1.43.12-1.47.53-1.47,3.09v8.61c0,2.56,0,2.9,1.47,3.07l.61.07c.14.1.09.54-.05.61-1.21,0-2-.07-3-.07s-1.84,0-3,.07a.49.49,0,0,1-.05-.61l.61-.07c1.42-.17,1.47-.51,1.47-3.07Z" fill="#fff"/><path d="M180.23,3.94c0-1.69-.12-2.2-1.14-2.35l-.53-.07a.36.36,0,0,1,0-.6c2.06-.12,4-.2,6.07-.2a15.16,15.16,0,0,1,5.32.73,7.23,7.23,0,0,1,4.91,7.13,7.93,7.93,0,0,1-4.23,7.21A11.65,11.65,0,0,1,185.23,17c-1.54,0-3.09-.19-3.94-.19-1,0-1.89,0-3,.07a.46.46,0,0,1-.05-.61l.56-.07c1.4-.19,1.45-.48,1.45-3Zm2,8.63a4.51,4.51,0,0,0,.48,2.64c.54.75,1.45,1,3,1,4.69,0,6.79-3.07,6.79-7.57,0-2.66-1.28-7.16-7.61-7.16a5.51,5.51,0,0,0-2.4.34c-.19.15-.24.75-.24,1.84Z" fill="#fff"/><path d="M199.09,4.42c0-2.51-.05-2.87-1.47-3l-.39,0c-.15-.1-.1-.53.05-.61,1,.05,1.86.08,2.85.08h4.55a29.32,29.32,0,0,0,3.26-.08,26.87,26.87,0,0,1,.39,3.22.5.5,0,0,1-.61.05c-.36-1.14-.58-2-1.83-2.3a11.72,11.72,0,0,0-2.35-.14H201.8c-.73,0-.73,0-.73,1V7.35c0,.68.08.68.8.68h1.41a8.66,8.66,0,0,0,2.05-.15c.29-.1.46-.24.58-.85l.19-1c.13-.14.54-.14.63,0,0,.58-.09,1.52-.09,2.44s.09,1.79.09,2.32c-.09.17-.5.17-.63,0l-.21-.95a1,1,0,0,0-.75-.92,8.53,8.53,0,0,0-1.86-.12h-1.41c-.72,0-.8,0-.8.66v3.41c0,1.28.08,2.1.46,2.51s.8.56,2.93.56a7,7,0,0,0,3.1-.37,6.07,6.07,0,0,0,1.71-2.34.45.45,0,0,1,.61.17,21.7,21.7,0,0,1-1.09,3.36c-2.18,0-4.33-.07-6.48-.07h-2.18c-1,0-1.86,0-3.29.07a.49.49,0,0,1-.05-.61l.8-.07c1.38-.12,1.5-.48,1.5-3Z" fill="#fff"/><path d="M213.22,4.45c0-2.3-.08-2.71-1.07-2.83l-.77-.1a.4.4,0,0,1,0-.6c1.36-.12,3-.2,5.39-.2a8.49,8.49,0,0,1,4,.73,3.6,3.6,0,0,1,2,3.38,4.46,4.46,0,0,1-3,4c-.12.15,0,.39.12.58,1.93,3.12,3.21,5.06,4.86,6.44a2.93,2.93,0,0,0,1.67.67.2.2,0,0,1,0,.34,3.84,3.84,0,0,1-1.06.12c-2.06,0-3.29-.6-5-3-.63-.9-1.62-2.57-2.37-3.66a1.72,1.72,0,0,0-1.71-.77c-1.09,0-1.14,0-1.14.53v3.05c0,2.54.05,2.83,1.45,3l.51.07a.49.49,0,0,1,0,.61c-1.09,0-1.91-.07-2.88-.07s-1.89,0-3,.07c-.15-.07-.2-.44-.05-.61l.6-.07c1.41-.17,1.46-.48,1.46-3Zm2,3.46a1.92,1.92,0,0,0,.07.79c.07.08.44.12,1.67.12a4.06,4.06,0,0,0,2.49-.62,3.49,3.49,0,0,0,1.21-3,3.57,3.57,0,0,0-3.87-3.73c-1.5,0-1.57.1-1.57.78Z" fill="#fff"/><path d="M231.14,17.14a7.64,7.64,0,0,1-3.78-.89,11.23,11.23,0,0,1-.65-3.39c.12-.17.48-.21.58-.07.36,1.23,1.36,3.6,4.16,3.6a2.74,2.74,0,0,0,3-2.78,3.61,3.61,0,0,0-2-3.38l-2.3-1.5a5.16,5.16,0,0,1-2.61-4.16c0-2.3,1.79-4.16,4.93-4.16a9.26,9.26,0,0,1,2.25.31,3.23,3.23,0,0,0,.85.15,10.44,10.44,0,0,1,.44,2.95c-.1.14-.49.22-.61.07a3.17,3.17,0,0,0-3.29-2.73c-2.37,0-2.88,1.57-2.88,2.68a3.8,3.8,0,0,0,2.06,3L233.26,8c1.53.94,3,2.34,3,4.64C236.29,15.33,234.28,17.14,231.14,17.14Z" fill="#fff"/><path d="M244.7,9A8.36,8.36,0,0,1,253.31.41a8,8,0,0,1,8.4,8.29,8.26,8.26,0,0,1-8.4,8.44C247.94,17.14,244.7,13.3,244.7,9Zm14.59.5c0-4-1.77-8.29-6.39-8.29-2.51,0-5.78,1.72-5.78,7,0,3.58,1.74,8.22,6.51,8.22C256.53,16.39,259.29,14.22,259.29,9.45Z" fill="#fff"/><path d="M267.9,7.62c0,.65.07.65.8.65h1.64a8.88,8.88,0,0,0,2.06-.15c.26-.09.46-.21.6-.84l.22-1a.5.5,0,0,1,.63,0c0,.58-.1,1.55-.1,2.44s.1,1.79.1,2.35a.52.52,0,0,1-.63,0l-.24-.95a1.16,1.16,0,0,0-.78-.91,7.86,7.86,0,0,0-1.86-.13H268.7c-.73,0-.8,0-.8.66v3.36c0,2.54.05,2.9,1.47,3l.83.07c.14.1.09.54-.05.61-1.43,0-2.25-.07-3.22-.07s-1.89,0-3,.07a.46.46,0,0,1-.05-.61l.6-.07c1.41-.17,1.45-.48,1.45-3V4.42c0-2.54,0-2.87-1.45-3l-.38,0c-.15-.1-.1-.53,0-.61,1,.05,1.84.08,2.81.08h4.45a29.53,29.53,0,0,0,3.26-.08c0,1.12,0,2.28.08,3.2a.45.45,0,0,1-.58.07c-.2-1.09-.49-2-1.7-2.3a10.66,10.66,0,0,0-2.34-.14h-1.48c-.72,0-.72,0-.72,1Z" fill="#fff"/><path d="M285,4.42c0-2.51-.05-2.87-1.47-3l-.39,0a.48.48,0,0,1,.05-.61c1,.05,1.86.08,2.85.08h4.55a29.32,29.32,0,0,0,3.26-.08,26.87,26.87,0,0,1,.39,3.22.48.48,0,0,1-.6.05c-.37-1.14-.58-2-1.84-2.3a11.72,11.72,0,0,0-2.35-.14h-1.74c-.72,0-.72,0-.72,1V7.35c0,.68.07.68.79.68h1.41a8.66,8.66,0,0,0,2-.15c.29-.1.46-.24.58-.85l.2-1c.12-.14.53-.14.62,0,0,.58-.09,1.52-.09,2.44s.09,1.79.09,2.32c-.09.17-.5.17-.62,0l-.22-.95A1,1,0,0,0,291,9a8.53,8.53,0,0,0-1.86-.12h-1.41c-.72,0-.79,0-.79.66v3.41c0,1.28.07,2.1.45,2.51s.8.56,2.93.56a7,7,0,0,0,3.1-.37,6.07,6.07,0,0,0,1.71-2.34.45.45,0,0,1,.61.17,21.7,21.7,0,0,1-1.09,3.36c-2.18,0-4.33-.07-6.48-.07H286c-1,0-1.86,0-3.29.07a.49.49,0,0,1-.05-.61l.8-.07c1.38-.12,1.5-.48,1.5-3Z" fill="#fff"/><path d="M301.42,17.14a7.63,7.63,0,0,1-3.77-.89,11.2,11.2,0,0,1-.66-3.39c.12-.17.49-.21.58-.07.37,1.23,1.36,3.6,4.16,3.6a2.75,2.75,0,0,0,3-2.78,3.62,3.62,0,0,0-2-3.38l-2.3-1.5a5.19,5.19,0,0,1-2.61-4.16c0-2.3,1.79-4.16,4.94-4.16a9.33,9.33,0,0,1,2.25.31,3.11,3.11,0,0,0,.84.15,10.44,10.44,0,0,1,.44,2.95c-.1.14-.49.22-.61.07a3.16,3.16,0,0,0-3.29-2.73c-2.37,0-2.87,1.57-2.87,2.68a3.81,3.81,0,0,0,2.05,3L303.55,8c1.52.94,3,2.34,3,4.64C306.57,15.33,304.56,17.14,301.42,17.14Z" fill="#fff"/><path d="M313.24,17.14a7.63,7.63,0,0,1-3.77-.89,11.23,11.23,0,0,1-.65-3.39c.12-.17.48-.21.58-.07.36,1.23,1.35,3.6,4.16,3.6a2.74,2.74,0,0,0,3-2.78,3.63,3.63,0,0,0-2-3.38l-2.3-1.5a5.16,5.16,0,0,1-2.61-4.16c0-2.3,1.79-4.16,4.93-4.16a9.33,9.33,0,0,1,2.25.31,3.23,3.23,0,0,0,.85.15,10.48,10.48,0,0,1,.43,2.95c-.09.14-.48.22-.6.07a3.17,3.17,0,0,0-3.29-2.73c-2.37,0-2.88,1.57-2.88,2.68a3.8,3.8,0,0,0,2.06,3L315.37,8c1.53.94,3,2.34,3,4.64C318.4,15.33,316.39,17.14,313.24,17.14Z" fill="#fff"/><path d="M322.75,4.42c0-2.51-.05-2.87-1.48-3l-.38,0c-.15-.1-.1-.53.05-.61,1,.05,1.86.08,2.85.08h4.55A29.42,29.42,0,0,0,331.6.72,26.87,26.87,0,0,1,332,3.94a.5.5,0,0,1-.61.05c-.36-1.14-.58-2-1.83-2.3a11.78,11.78,0,0,0-2.35-.14h-1.74c-.73,0-.73,0-.73,1V7.35c0,.68.08.68.8.68h1.4A8.7,8.7,0,0,0,329,7.88c.29-.1.46-.24.58-.85l.19-1a.49.49,0,0,1,.63,0c0,.58-.1,1.52-.1,2.44s.1,1.79.1,2.32a.49.49,0,0,1-.63,0l-.21-.95A1,1,0,0,0,328.8,9a8.58,8.58,0,0,0-1.87-.12h-1.4c-.72,0-.8,0-.8.66v3.41c0,1.28.08,2.1.46,2.51s.8.56,2.93.56a6.94,6.94,0,0,0,3.09-.37,6,6,0,0,0,1.72-2.34.45.45,0,0,1,.61.17,21.7,21.7,0,0,1-1.09,3.36c-2.18,0-4.33-.07-6.48-.07h-2.18c-1,0-1.86,0-3.29.07a.49.49,0,0,1-.05-.61l.8-.07c1.38-.12,1.5-.48,1.5-3Z" fill="#fff"/><path d="M349.88,16.22a.43.43,0,0,1,0,.61c-1.11,0-2.06-.07-3.05-.07s-2.25,0-3.12.07a.51.51,0,0,1,0-.61l.7-.07c.55,0,.82-.14.82-.31s-.05-.39-.53-1.07c-1-1.47-2.4-3.48-3.46-4.86a58.89,58.89,0,0,0-3.41,5.15,2.06,2.06,0,0,0-.32.78c0,.14.22.26.71.31l.65.07a.45.45,0,0,1,0,.61c-.87,0-1.79-.07-2.61-.07s-1.71,0-2.49.07a.39.39,0,0,1-.07-.61l.6-.07A4.42,4.42,0,0,0,337.09,14c.29-.39,2-2.52,3.29-4.45a1,1,0,0,0,.22-.48,1.5,1.5,0,0,0-.29-.56l-3.63-5.2c-.8-1.14-1.26-1.62-2.1-1.81l-.78-.17a.52.52,0,0,1,.05-.61c1.14.05,1.94.08,2.81.08s2,0,2.73-.08c.17.08.19.44.05.61l-.68,0c-.44,0-.73.17-.73.31A3.67,3.67,0,0,0,338.76,3c.8,1.16,2.23,3.34,3.1,4.43.62-.78,2.8-4.21,3.24-4.94a2,2,0,0,0,.33-.8c0-.12-.36-.26-.79-.31L344,1.33c-.15-.17-.15-.51.05-.61.84.05,1.62.08,2.56.08s1.57,0,2.32-.08a.46.46,0,0,1,.05.61l-.58,0c-.73.07-1.6.79-2.59,2.05s-2,2.66-3.14,4.28a1.3,1.3,0,0,0-.24.46c0,.07,0,.24.31.63l4.09,5.76c.82,1.13,1.45,1.52,2.2,1.59Z" fill="#fff"/></svg>