<svg xmlns="http://www.w3.org/2000/svg" width="280" height="63" viewBox="0 0 280 63"><g fill="#fff"><path d="M21.65.53H0v7.9l6.75-1.9v30.75h8.15V6.53l6.75 1.9V.53zM26.5.53l1.85 5.1-7.69 31.65H29l1.5-6.7h8.26l1.5 6.7h8.64L40 .53zm4.91 23.62l3.11-15.63h.21l3 15.63zM71.75 19.84A7.85 7.85 0 0 0 73.43 18a10.11 10.11 0 0 0 1.22-2.75 13.18 13.18 0 0 0 .46-3.64q0-5.5-3-8.28T63.87.53H50.21l1.91 5.25v31.5h8V22.64h2.43l4.92 14.64h8.73l-6.26-16.41a6.35 6.35 0 0 0 1.81-1.03zm-6.11-4.18a4.65 4.65 0 0 1-3.09 1.11h-2.44V7.48h2.6a6.37 6.37 0 0 1 1.48.18 3.5 3.5 0 0 1 1.37.7 3.65 3.65 0 0 1 1 1.41 5.66 5.66 0 0 1 .44 2.28 4.49 4.49 0 0 1-1.36 3.61zM82.72.53L84.6 5.7l-7.67 31.58h8.31l1.5-6.7H95l1.51 6.7h8.67L96.29.53zm5 23.62l3.07-15.63H91l3 15.63zM126.14 23.21h-.16L117.52.53h-11.15l2.02 5.53v31.22h7.42l-.21-22.38h.16l8.51 22.38h8.88V.53h-7.17l.16 22.68zM177.17 23a22.06 22.06 0 0 1-.18 2.91 7.89 7.89 0 0 1-.65 2.31 4 4 0 0 1-1.25 1.53 3.88 3.88 0 0 1-4.05 0 4 4 0 0 1-1.24-1.53 7.6 7.6 0 0 1-.65-2.31A22.06 22.06 0 0 1 169 23V.53h-8.36v23.15a23.61 23.61 0 0 0 .65 5.71 12.58 12.58 0 0 0 2.1 4.61 10.32 10.32 0 0 0 3.81 3.11 12.94 12.94 0 0 0 5.71 1.14 13.27 13.27 0 0 0 5.76-1.14 10.62 10.62 0 0 0 3.9-3.11 13 13 0 0 0 2.2-4.62 22.17 22.17 0 0 0 .7-5.71V.53h-8.3zM189.57 19.84h9.97v6.18h-9.97zM212.67.53h-10.53l2.12 5.83v30.92h18.22V29.6h-9.81V.53zM228.6.53l2 5.4-7.6 31.35h8.31l1.5-6.7H241l1.5 6.7h8.67L242.31.53zm5.1 23.62l3.11-15.63h.19l3 15.63zM279.09 11.35a15.94 15.94 0 0 0-2.78-5.81 12.22 12.22 0 0 0-4.75-3.72 16.57 16.57 0 0 0-6.82-1.29h-12.35l2 5.56v31.19h10.33a16.4 16.4 0 0 0 6.82-1.3 12.15 12.15 0 0 0 4.75-3.69 15.78 15.78 0 0 0 2.78-5.76A28.7 28.7 0 0 0 280 19a29.53 29.53 0 0 0-.91-7.65zm-9.34 15.83a5.7 5.7 0 0 1-4.91 2.82h-2V7.79h2a5.72 5.72 0 0 1 4.91 2.83c1.26 1.89 1.89 4.68 1.89 8.39 0 3.56-.64 6.29-1.89 8.17zM136.37 8.43l6.75-1.9v30.75h8.14V6.53l6.75 1.9V.53h-21.64v7.9zM6.43 62.12H4.5V50H.05v-1.74h10.83V50H6.43zM14.67 48.26h1.94v5.8h7v-5.8h2v13.86h-2v-6.34h-7v6.34h-1.94zM32.84 60.4h7.24v1.72H30.9V48.26h8.89V50h-6.95v4.15h6.54v1.66h-6.54zM54.9 59.3l3.25-11h2.13l3.23 11 3-11h2.19l-4.07 13.82h-2L59.24 51l-3.4 11.12h-2l-4.09-13.86h2.09zM86.28 55.17a7.64 7.64 0 0 1-.56 2.95 7.09 7.09 0 0 1-1.54 2.31 7 7 0 0 1-2.33 1.51 8.36 8.36 0 0 1-5.86 0 6.82 6.82 0 0 1-3.85-3.82 8.21 8.21 0 0 1 0-5.91 6.67 6.67 0 0 1 1.53-2.29A6.83 6.83 0 0 1 76 48.44a8.36 8.36 0 0 1 5.86 0 6.77 6.77 0 0 1 2.33 1.48 6.7 6.7 0 0 1 1.54 2.29 7.65 7.65 0 0 1 .55 2.96zm-2.1 0a6.1 6.1 0 0 0-.37-2.17 5.46 5.46 0 0 0-1.06-1.77 5 5 0 0 0-1.65-1.21 5.6 5.6 0 0 0-4.35 0 5 5 0 0 0-1.64 1.21 5.61 5.61 0 0 0-1 1.77 6.1 6.1 0 0 0-.37 2.14 6.28 6.28 0 0 0 .37 2.18 5.46 5.46 0 0 0 1.06 1.77 5 5 0 0 0 1.64 1.18 5.18 5.18 0 0 0 2.16.43 5.29 5.29 0 0 0 2.17-.43 4.87 4.87 0 0 0 1.66-1.18 5.46 5.46 0 0 0 1.06-1.77 6.28 6.28 0 0 0 .32-2.15zM92.81 62.12h-1.93V48.26h4.44a8.38 8.38 0 0 1 1.9.21 4.72 4.72 0 0 1 1.57.65 3.23 3.23 0 0 1 1.07 1.19 3.76 3.76 0 0 1 .39 1.79 3.33 3.33 0 0 1-.94 2.47 4.37 4.37 0 0 1-2.43 1.19l3.88 6.36h-2.35L94.89 56h-2.08zm0-7.79H95a6.4 6.4 0 0 0 1.28-.12 2.88 2.88 0 0 0 1-.38 1.9 1.9 0 0 0 .7-.68 2 2 0 0 0-.68-2.77 2.93 2.93 0 0 0-1-.36 5.82 5.82 0 0 0-1.2-.11h-2.29zM106.79 60.4H113v1.72h-8.12V48.26h1.94zM116.81 48.26h4.76a9.46 9.46 0 0 1 2.66.39 7.36 7.36 0 0 1 2.41 1.24 6.37 6.37 0 0 1 1.74 2.11 7 7 0 0 1 .67 3.15 6.77 6.77 0 0 1-.67 3.09 6.57 6.57 0 0 1-1.74 2.15 7.43 7.43 0 0 1-2.41 1.27 8.84 8.84 0 0 1-2.66.42h-4.76zm1.94 12.16h2.43a7.57 7.57 0 0 0 2.32-.35 5.57 5.57 0 0 0 1.84-1 4.57 4.57 0 0 0 1.2-1.65 5.38 5.38 0 0 0 .43-2.21 5.54 5.54 0 0 0-.43-2.27 4.5 4.5 0 0 0-1.2-1.63 5.36 5.36 0 0 0-1.84-1 7.57 7.57 0 0 0-2.32-.34h-2.43zM142.45 62.12h-1.94V48.26h1.94zM166.51 60a6.27 6.27 0 0 1-2.13 1.81 6.73 6.73 0 0 1-3.16.69 7.94 7.94 0 0 1-2.92-.53 6.81 6.81 0 0 1-2.3-1.54 7 7 0 0 1-1.52-2.31 7.83 7.83 0 0 1-.55-2.95 7.65 7.65 0 0 1 .56-3 6.58 6.58 0 0 1 1.51-2.25 6.91 6.91 0 0 1 2.34-1.48 8 8 0 0 1 2.93-.53 7.78 7.78 0 0 1 1.43.14 7.19 7.19 0 0 1 1.39.41 6 6 0 0 1 1.22.67 4.55 4.55 0 0 1 .93.93l-1.52 1.18a3.86 3.86 0 0 0-1.44-1.17 4.56 4.56 0 0 0-2-.46 5.27 5.27 0 0 0-2.18.44 4.91 4.91 0 0 0-1.65 1.21 5.46 5.46 0 0 0-1.04 1.74 6.1 6.1 0 0 0-.37 2.14 6.55 6.55 0 0 0 .36 2.2 5.41 5.41 0 0 0 1 1.77 4.89 4.89 0 0 0 1.64 1.18 5.24 5.24 0 0 0 2.16.43 4.84 4.84 0 0 0 2.14-.47 4 4 0 0 0 1.66-1.34zM170.78 62.12h-2.16l6-13.86h1.76l6 13.86h-2.2l-1.41-3.4h-6.57zm2.07-5.12H178l-2.59-6.5zM188 60.4h6.19v1.72h-8.13V48.26H188zM200 60.4h6.19v1.72H198V48.26h2zM216.38 48.26h1.94v5.8h7v-5.8h2v13.86h-2v-6.34h-7v6.34h-1.94zM246.59 55.17a7.64 7.64 0 0 1-.56 2.95 7.09 7.09 0 0 1-1.54 2.31 7 7 0 0 1-2.33 1.51 8.36 8.36 0 0 1-5.86 0 6.82 6.82 0 0 1-3.85-3.82 8.36 8.36 0 0 1 0-5.91 6.67 6.67 0 0 1 1.55-2.29 6.83 6.83 0 0 1 2.32-1.48 8.36 8.36 0 0 1 5.86 0 6.77 6.77 0 0 1 2.33 1.48 6.7 6.7 0 0 1 1.49 2.29 7.65 7.65 0 0 1 .59 2.96zm-2.1 0a6.1 6.1 0 0 0-.37-2.14 5.46 5.46 0 0 0-1.06-1.77 4.91 4.91 0 0 0-1.65-1.21 5.6 5.6 0 0 0-4.35 0 5 5 0 0 0-1.64 1.21 5.61 5.61 0 0 0-1 1.77 6.1 6.1 0 0 0-.37 2.14 6.28 6.28 0 0 0 .37 2.18 5.46 5.46 0 0 0 1.06 1.77 5 5 0 0 0 1.64 1.18 5.18 5.18 0 0 0 2.16.43 5.29 5.29 0 0 0 2.17-.43 4.87 4.87 0 0 0 1.66-1.18 5.46 5.46 0 0 0 1.06-1.77 6.28 6.28 0 0 0 .32-2.18zM258.35 58.91l4.09-10.65h3v13.86h-1.94V50.53l-4.6 11.59h-1.23l-4.58-11.59v11.59h-1.88V48.26h3zM272.76 60.4H280v1.72h-9.18V48.26h8.89V50h-6.95v4.15h6.54v1.66h-6.54z"/></g></svg>