<svg xmlns="http://www.w3.org/2000/svg" width="330" height="50" viewBox="0 0 330 50"><g fill="#fff"><path d="M21.13.27q4.62 0 8 10.14l.36.3V11l-.36 1.77c.64 0 1.22 1.09 1.74 3.28A5.54 5.54 0 0 0 34 17l.34.3v.3q0 .6-1.71.6v.27l.67 2.41-.34-.3h-.33v.6h.33l.34-.3h.37c.26 1.79.61 2.68 1 2.68l-.36.3v.6h.36v-.6h.67l1.41 3.58-.33.3c.6 0 1.17.49 1.7 1.48l-.33.3v.3a6.12 6.12 0 0 1 2.07 4.49l-1.76 2.35h-.67q-4.78-1.2-4.85-2.07c2.07-.45 3.11-.85 3.11-1.21q0-1.14-6.23-13.12c-.35 0-.7-.41-1-1.21-1.41 0-2.11.3-2.11.91l-.35-.31h-.33l-1.41 1.21-.33-.3h-.34a14.16 14.16 0 0 0-4.85 1.77l-1-.3q-.57.81-4.52 2.41l-1.8 4.46.37.3h.33l-1 1.8.34.31v.3c-.69 2.7-1.39 4.38-2.08 5 0 .58-.22.87-.67.87l1 4.79-1.71.96c-1.85-.16-2.78-.86-2.78-2.11a41.15 41.15 0 0 1 1.74-9.51C2.31 31.27 0 30 0 27.72v-.6a84.15 84.15 0 0 1 10-5.39Q16.45.27 21.13.27zM6.23 28.59v.61H8l.33-1.78H8zm15.6-24.74l-4.15 5.36.33.3v.3l-.33.3h-.37l-.31-.3v.3l.33 1.21H17l.33.3v.57l-.67.6v-1.47h-.37l-1 3.28v.3h.37v-.6H16v.6c-.23 1.18-.57 1.77-1 1.77l-.34-.3.34 2.08V20l5.19-1.51.37.3h.33l4.86-1.47 1 .3.33-.3.33.3.37-.3V17q0-2.55-5.55-13.13zM45.54 0c.78 0 1.44 1.21 2 3.62a58.4 58.4 0 0 0-2.38 14.43q0 7.4 3.55 18.41l-.4.4h-1.2q-3.86 0-5.12-7.19a44.19 44.19 0 0 1-1.58-11.62Q41.76 0 43.16 0zM54.48 0c.78 0 1.44 1.21 2 3.62a58.4 58.4 0 0 0-2.38 14.43q0 7.4 3.55 18.41l-.4.4h-1.2q-3.86 0-5.12-7.19a44.19 44.19 0 0 1-1.58-11.62Q50.7 0 52.1 0zM100.35.57h3.41q11.71 3.21 11.72 7.26 2.74 0 4.55 15.47-3.48 10.48-9.47 10.48l-4.15 1.81-.37-.43v-.47c-2.41.6-3.81 1.2-4.19 1.81-1.25 0-1.87-.31-1.87-.91l-1.54.91-.37-.44h-1.14v1.34h-.77l-.37-.47-.37.47h-1.5v-.9h-.4l-1.14.9q-13.23-4.08-13.23-7.27a10.07 10.07 0 0 1-1.91-5.92v-.91a22.07 22.07 0 0 1 6.83-16.37Q90.37.57 100.35.57zm-1.91 3.18l-.37-.47h-.37l-3.78.91-.4-.44h-.37l-2.28 1.81-.37-.47h-.77L89 6h1.5l-3.41 2.3v2.28l-.37.44v.46l.74.91q-1.14 0-1.14.9h.77a5.06 5.06 0 0 1-2.28 3.18v-1.34a7.62 7.62 0 0 0-3 5.9q0 7.5 5.29 10a10.89 10.89 0 0 0 5.29 1.37h1.91q17.43 0 20.82-9.11l.37-4.55q0-8.94-9.07-14.1v-.45l-.37.46c-1.79-.2-2.68-.5-2.68-.9l-.37.44h-.37l-1.91-1.34zM135.44 18.85h.77c.35 0 .53.27.53.8q-1.37 8-7.33 16.11l-2.11 1.1h-.3q-6-6.22-6-13.66l.81-.26c1.34 0 2.3 1.9 2.88 5.72 1 2.28 1.83 3.46 2.34 3.55q2.31-1.17 7.1-12.29zM146.62 20.29H148a3.39 3.39 0 0 1 3.08 2v1.74q0 1.55-3.08 6.1c0 1.36-.35 2-1 2h-1l-2-1.74v-.3c0-.78 1-2.82 3.08-6.1v-.3q-5.82 4.13-5.82 7.87v.27a1.93 1.93 0 0 0 1.37 2H144q2.25 0 13.4-2.91h.67v.6a24 24 0 0 1-12.69 5.22h-2.42q-5.82-.6-5.82-4.95v-1.02q0-4.86 7.9-10.18z"/><path d="M166.31 19.59c2.29.44 3.44 1.54 3.44 3.28-.44 1-.9 1.52-1.37 1.61l-1.4-.31-5.53 12.39-2.41.3h-.7q-3.45-3.11-3.45-9.1v-1.31c0-2.39.34-3.58 1-3.58h1c1.32 0 2.12 2.5 2.42 7.5h.36q3.63-10.78 6.64-10.78zM199.52.27l.87.4.27-.4 1.67.4q16.35 1 16.34 4.35l.27 1.61-.57.77.3.4-2 .8q-5.62-3.18-14.37-3.18h-5.05q-.78 0-2 21v6.73l.3 2c-1 1.31-1.75 2-2.24 2A12.32 12.32 0 0 1 192 30.8v-3.95l1.11-20.22v-.8L180.13 7c-.93 0-1.59-1.06-2-3.18l.57-2.78 4.22.4 15.47-.8z"/><path d="M208.33.4c1.22 0 2.32 1.07 3.28 3.22v.9q-5.27 4.7-5.59 21v3.18l.67.94q6.66-8.64 8.53-8.64 5.46 0 10.85 15.57a10.86 10.86 0 0 0 6.23 4.55v.44l-2.3 2.27h-1.31q-4.76 0-11.15-16.44l-1.64-.94q-1.17 0-8.2 9.61l-1.67.47q-4.26-2.41-4.26-12.36 1.54-16.3 4.92-23.77z"/><path d="M235.38 20.29h1.37a3.38 3.38 0 0 1 3.08 2v1.74c0 1-1 3.06-3.08 6.1 0 1.36-.34 2-1 2h-1l-2.05-1.74v-.3c0-.78 1-2.82 3.08-6.1v-.3q-5.82 4.13-5.82 7.87v.27a1.94 1.94 0 0 0 1.37 2h1.37Q234.88 34 246 31h.67v.6A24 24 0 0 1 234 36.86h-2.4q-5.83-.6-5.83-4.95v-1.14q0-4.86 7.9-10.18zM296.45 1.94q2 0 3.22 3.89l-1.61.63q-2.28 0-2.28-.63l-8.67 1.94-1-.34-.67.64c0 .38-1.29 1-3.85 1.94v-.63H281l.3.33V10h-.63l-.34-.3a48 48 0 0 0-12.55 9l-1.95 3.85h.67c0-.62.22-.94.64-.94h.3c-.09 1.07-.4 1.61-.94 1.61v.3l.31.34-.31 1.6v.67q1 5.16 9 5.16h.34q14.49-1.77 14.49-9.68c.72-3.23 1.36-4.85 1.95-4.85h1.27l1.94 3.55a14.69 14.69 0 0 0-1.94 7.43l.33 10.31q-.74 7.77-2.27 7.77v.64l.33.33v.3a.86.86 0 0 0-1 1l-1.61.67c-.87-.44-1.3-1-1.3-1.64l1.97-11.6-.3-7.09-.34-.3H289a23.54 23.54 0 0 1-11.59 6.42h-.33l-1-.3-.3.3v.34l-1.31-.64-.3.3h-.34q-11.28-1.44-11.28-9.34 0-11.11 22.57-20.69a31.71 31.71 0 0 1 11.33-2.58zM301.07 1.34h1.21c1.83 0 2.74 1 2.74 2.85v1.2c-.27.8-1.06 1.21-2.37 1.21-.85 0-1.77-.94-2.75-2.82.27-1.63.66-2.44 1.17-2.44zm0 18.92h1.71c.53.15 1.09 1.1 1.67 2.84l-.34 5.66a11.68 11.68 0 0 0 2.05 6.09v.81l-1 1.2h-1q-4.05 0-4.05-8.1v-3.25q-.11-5.25.89-5.25zM317.75 19.59c2.29.44 3.44 1.54 3.44 3.28-.44 1-.9 1.52-1.37 1.61l-1.4-.31-5.53 12.39-2.41.3h-.7q-3.45-3.11-3.45-9.1v-1.31c0-2.39.34-3.58 1-3.58h1q2 0 2.41 7.5h.37q3.63-10.78 6.64-10.78zM326.85 0c.78 0 1.44 1.21 2 3.62a57.92 57.92 0 0 0-2.38 14.43q0 7.4 3.55 18.41l-.4.4h-1.17q-3.85 0-5.13-7.19a44.18 44.18 0 0 1-1.57-11.62q1.33-18 2.75-18z"/></g></svg>