<svg xmlns="http://www.w3.org/2000/svg" viewBox="0 0 190 142"><path d="M152.64 54.5c-.97.45-2.97-.08-3.58.05-.48.1-2.1 1.02-3 1.28-3.24.92-9.5 1.12-9.66 5.62-.1 2.81 2.06 4.23 4.59 4.58 1.72.24 2.77.07 4.3-.16.59-.09 6.92-1.01 9.27-1.54.51-.11 5.63-2.4 5.34-.46-.07.49-.59 1.12-.69 1.84-.27 1.9 1.09 9.03 1.98 10.8.32.63.42.66 1.01 1 4.31 2.49 12.5.83 15.98-2.65 1.37-1.37 1.26-2.24 1.1-4.11-.18-2.13-1.13-7.22-1.93-9.12-.49-1.17-1.63-2.05-1.89-2.89-.21-.68-.38-3.22.08-3.61.56-.46 1.75-.09 2.15-1.37.56-1.77-.89-3.17-.89-3.17s.65-1.3.75-2.01-.21-1.94-.21-1.94 1.33-.86 1.6-1.43c.44-.96-.07-2.83-.07-2.83s2.29-2.51 2.82-3.73c1.37-3.15-1.44-5.38-4.34-5.79.09-3.21-2.52-6.22-5.89-6.56-.38-1.62 1.99-6.63 3.73-6.97 2.48-.48 4.45 2.45 6.33 3.72 4.77 3.23 10.15 3.25 8.05-4.03-1.05-3.62-6.44-9.18-10.22-9.88s-7.24 2.33-8.5 5.6-1.11 7.13-1.82 10.62c-.65.07-.97-.43-1.62-.52-1.41-.19-3.78.53-3.78.53s-2.92-.53-5.22.56c-.85.41-1.73 1.64-2.56 1.46-.14-.03-1.22-2.06-1.56-2.51-5.82-7.66-15.27-14.27-20.09-1.52-1.41 3.74-2.6 12.98 3.97 11.5 3.19-.72 4.09-5.48 4.89-7.93 1.44-4.41 5.13-2.11 7.61.06 3.93 3.43 1.76 2.48-.25 4.78s-1.63 6.23 1.02 8.02c.71.48 2.45.77 2.52 1.53-.01.45-.57 1.43-.88 1.64-.63.43-1.73.11-2.15.74 2.42-.1 5.71.32 6.54 3.02.87-.91 1.14-1.6 2.34-2.31 2.89-1.72 7.17-2.28 9.18.97 1.09 1.76.47 5.86-.6 7.61-1.3 2.14-6.46 2.17-8.55 1.78" fill="none" stroke="#fff" stroke-linecap="round" stroke-linejoin="round" stroke-width=".75"/><path d="M168.94 45.37c-2.02-3.25-6.29-2.69-9.18-.97-1.2.71-1.47 1.4-2.34 2.31l.38 2.51s.45.1.48.11c2.71.68 2.88 3.95 1.45 5.2l.07.22c2.09.39 7.25.37 8.55-1.78 1.07-1.75 1.69-5.85.6-7.61zm-2.93 4.73c-.24 2.48-4.22.93-2.05-1.02.86-.19 2.16-.12 2.05 1.02z" fill="#fff"/><path d="M155.97 44.54l-5.09-.85c-1.14 0-4.04 1.32-4.67 4.76-.63 3.44 2.85 6.1 2.85 6.1l3.74-.28c-.54-1.26.28-2.9.74-3.66.49-.82 1.58-1.79 3.89-1.45v-2.45l-1.46-2.17zm-5.64 7c-1.21-.03-1.5-1.48-.81-2.17 1.54-1.55 3.67 2.23.81 2.17z" fill="#fff"/><path d="M143.6 66.09s.42 3.95 3.32 3.95 2.54-4.81 2.54-4.81.76 4.45 4.22 3.82 2.46-5.3 2.46-5.3" fill="#fff" stroke="#fff" stroke-linecap="round" stroke-linejoin="round" stroke-width=".75"/><path d="M153.53 50.61c.55-.92 1.83-2.02 4.75-1.28s2.89 4.47 1.09 5.45c0 0-4.04 2.07-6.08.19-1.39-1.28-.31-3.44.24-4.36z" fill="none" stroke="#fff" stroke-linecap="round" stroke-linejoin="round" stroke-width=".75"/><path d="M152.81 29.38s3.46 1.14 3.01-2M169.06 24.95l-.57 5.18M171.42 25.45s-.82 4.6-.82 5.83" fill="none" stroke="#fff" stroke-linecap="round" stroke-miterlimit="10" stroke-width=".75"/><path d="M165.58 30.24s3.31-1.62 3.9 1.41c0 0 2.31-1.69 3.82 2.13" fill="none" stroke="#fff" stroke-linecap="round" stroke-miterlimit="10" stroke-width=".75"/><path d="M149.05 54.55s-3.48-2.66-2.85-6.1 3.54-4.75 4.67-4.76M157.59 49.12c.13-1.97-.44-3.06-.44-3.06M153.8 41.03s3.06 3.55 5.59-.42c0 0 5.11.82 6.36-2.46 0 0 .95 3.67 4.33 3.61 0 0-.62 2.36 2.33 3.54 0 0-2.52 1.57-.2 4.69 0 0-.76 4.6 3.31 5.14M164.83 59.12s-3.15 2.97-7.34 4.21M163.74 58.76s1.7.11 2.45.81M159.68 64.45s11.63 4.61 16.24-4.88" fill="none" stroke="#fff" stroke-linecap="round" stroke-linejoin="round" stroke-width=".75"/><path d="M87.94 58.95c-1.79 1.64-4.46.39-5.66-1.35-.74-1.07-1.43-3.99-2.37-4.42-2.66-1.24-1.78 2.97-2.06 4.36-.51 2.49-2.61 3.71-5.04 3.5-6.06-.52-4.25-6.44-4.93-10.65-.51-3.15-3.49-8.15-.21-10.56 2.91-2.14 7.05-.74 9.87.91 1.58.92 4 3.41 5.3 3.99 3.11 1.38 1.41-4.03 1.43-5.45.03-3.01 2.75-4.87 4.17-1.66 1.5 3.39.93 9.01 1.09 12.73.04.86.5 1.96.51 2.78.01 1.12-1.32 5.1-2.1 5.81zM44.94 8.57c4.31-1.28 6.45 7.7 6.84 10.65.32 2.47.71 7.29-.37 9.37-2.64 5.13-7.12 6.53-12.56 4.55-5.93-2.16-8.95-12.45-8.38-18.19.3-3.04 1.99-5.61 5.43-4.49 2.99.97 3.07 7.04 4.48 9.09.92 1.35 2.9 1.49 3.74-.01 1.78-3.2-1.72-7.58-.22-10.02.17-.27.75-.88 1.04-.96zM97.5 26.04c-.79.64-5 .24-6.34.33-4.24.29-9.54 3.06-12.83-1-2.99-3.69.34-9.15 3.4-11.69 1.55-1.29 3.95-2.16 5.16-3.63 2.25-2.74 1.66-5.82-2.39-4.4-2.34.82-3.42 2.18-6.42 2.38-5.27.35-4.37-4.85-1.02-6.29C80.07.45 87.19-.11 90.27.88c1.72.56 4 1.86 4.26 3.78.63 4.62-2.12 6.14-3.26 10.02-2.27 7.71 3.92 1.82 6.4 4.68.98 1.13 1.02 5.71-.18 6.69zM11.78 53.06c3.5-.08 3.75 1.51 4.25 4.4.16.95.06 2.76.45 3.57.32.66 2.46 1 3.32 1.46 1.87 1.01 4.43 4.62 4.61 6.71.38 4.32-4.75 8.09-8.22 9.64-7.29 3.25-7.21-4.06-10.54-7.99-.49-.58-1.13-.82-1.5-1.27-1.63-1.96-5.11-6.37-3.89-8.94 1.4-2.97 8.15-7.52 11.53-7.59zm-4.05 6.27c-.77.17-1.47.97-1.4 1.77.26 1.73 4.63 2.87 4.73.03.06-1.69-2.04-2.1-3.33-1.8zm3.41 9.93c.93 1 3.76.84 4.15-.87.76-3.31-4.22-2.64-4.47-.68-.05.44 0 1.22.31 1.55zM58.53 39.98c2.02-.45 3.37 1.98 4.22 3.46 2.23 3.88 3.62 10.01 3.14 14.45-.54 4.92-5.33 3.74-7.8 1-.88-.98-2.31-4.76-4.17-2.41-1.48 1.87 1.01 3.35 1.16 4.92.31 3.25-3.26 3.63-5.68 3.4-6.19-.57-3.95-6.79-4.96-10.87-.41-1.65-1.48-3.01-1.66-4.87-.38-3.78 2.2-5.68 5.82-5.06 2.48.42 7.79 5.5 9.81 4.92 3.03-.87-4-8.05.11-8.96zM57.95 16.92c1.14-1.42 6-5.52 6.17-6.78.05-.38.07-.77-.1-1.13-4.23-1.7-7.48 4.32-11.69 2.13-1.99-1.04-.93-4.58.66-5.57 3.46-2.17 10.55-3.73 14.33-1.86 5.78 2.86-1.63 10.94-.51 14.33 1.05 3.17 6.31-2.36 8.01 1.55 1.35 3.11 0 7.45-3.57 8.24-2.52.55-4.8-.1-6.98.04-1.14.07-2.73 1.35-4.31 1.5-3.1.3-4.92-2.2-4.89-5.13s1.16-5.15 2.89-7.31zM131.21 95.76c1.94-.24 3.96 1.11 4.41 3.01.72 2.99-1.22 8.17-.4 9.94.88 1.88 2.3-1.28 3.69-1.19 1.69.11 1.38 2.75 3.16 1.88.89-.43 1.86-5.84 2.39-7.16 1.62-4.01 6.68-4.21 6.42.61-.14 2.52-4.49 8.27-5.76 11.1-.78 1.74-1.53 4.94-2.45 6.35-.69 1.05-1.93 1.3-3.06.84-1.65-.68-1.41-3.05-3.9-2.52-1.74.37-1.98 1.32-4.57.93-4.75-.72-2.23-6.35-2.68-9.64-.36-2.63-2.76-5.68-2.47-8.79.24-2.55 2.64-5.07 5.2-5.38zM37.66 47.76c4.63-.88 5.64 8.94 5.34 11.89-.81 8.1-8.45 14.57-15.96 8.92-3.57-2.68-7.95-14.92-3.38-17.95 2.78-1.84 5.12-.21 6.48 2.3.85 1.57 1.52 5.99 3.89 5.31 2.92-.84-1.11-9.56 3.64-10.46zM62.3 109.35c.92.79.83 2.72.82 3.82 0 .56-.71 2.61.38 2.67 2.46.13 2.84-3.69 3.52-5.3 1.75-4.11 7-1.47 4 3.25-1.35 2.12-4.13 3.05-2.23 6.03 2.03 3.19 6.63 1.36 6.16 6.68-.28 3.13-4.4 5.41-6.78 3.23-.46-.42-2.76-5.38-3.06-2.49-.21 2.02 1.31 4.36-1.26 6.01-2.76 1.77-5.36-.62-6.38-3.12-1.13-2.78-.23-5.24-1.01-8.04-1.01-3.66-4.67-5.82-2.49-10.27 1.15-2.35 6.33-4.18 8.33-2.46zM23.83 11.59c3.47-.59 5.96.86 5.86 4.57-.14 4.8-5.25 3.71-7.05 6.3-.49.7-.72 1.22-.32 2.08.97 2.06 4.47-1.27 5.73 1.31.52 1.08.55 2.37-.13 3.4-1.15 1.73-4.16 1.05-2.53 4.53.59 1.25 1.99 1.92 2.36 3.17 1.38 4.78-5.16 7.89-8.26 3.98-2.71-3.41-1.83-8.22-3.38-12.2-.93-2.39-3.06-4.7-3.84-6.72-1.53-3.98 4.99-6.22 7.43-7.76 1.39-.88 2.13-2.33 4.12-2.66zM123.67 36.23c5.44-.69 9.78.57 9.37 6.85-.19 2.93-1.97 4.16-4.9 3.62s-1.5-5.46-2.88-6.67-3.25 1.23-3.21 2.75c.11 3.56 5.53 5.89 6.93 9.11 1.49 3.43.3 8.07-2.9 10.11s-4.47.01-6.99-.97c-2.06-.8-5.15-.53-6.12-2.93-1.23-3.05-.25-7.06 3.41-7.56 2.14-.29 4.39 2.86 5.56.8 1.6-2.81-2.28-4.29-3.6-5.9-3.54-4.33.8-8.63 5.33-9.2zM103.54.79c1.35-.21 3.18.3 4.22 1.19 1.32 1.14 1.48 5.19 3.82 5.73 3.95.91 4.66-5.81 7.95-4.68 1.4.48.49 4.41-.17 5.52-1.41 2.36-3.58 2.16-4.83 3.47-1.51 1.58-2.96 5.48-2.61 7.66.17 1.05 1.24 2.17 1.43 3.34.76 4.62-8.42 6.34-10.05 3.01-1.26-2.58 1-7.27 1.28-10.13.09-.9.18-3.1-.08-3.88-.34-1.02-3.3-1.8-4.29-2.75-3.58-3.44-1.04-7.81 3.33-8.48zM100.5 34.74c1.31 1.32 1.75 5.49 3.5 5.68 3.98.43 5.62-6.45 8.91-4.88.95.45.86 2.85.73 3.75-.51 3.65-5.99 3.88-7.57 7.51-1.77 4.08 1.4 6.7.75 9.54-.11.47-1.42 2.38-1.83 2.7-1.86 1.47-6.41.51-8.05-1.01-2.75-2.54.15-5.1.57-7.72.36-2.29.15-3.83-1.32-5.6-2.3-2.77-6.24-3.15-3.35-7.37 1.5-2.19 5.17-5.12 7.67-2.6zM15.53 126.8c-1.75 2.12-7.49.59-7.96-2.33s1.92-3.72 2.97-6.05c.78-1.72.8-3.16-.11-4.85-1.55-2.89-4.48-3.31-3.82-7.61.45-2.9 4.38-6.16 7.37-4.98s1.97 7.12 3.88 7.93 3.06-2.17 4.67-2.38c2.19-.28 2.71 1.83 2.31 3.59-.46 2.02-5.71 2.28-7.37 4.19-2.33 2.69-.46 10.69-1.95 12.5zM38.9 115.89c3.43-.06 1.33 5.31 3.76 6.69 2.17-1.05 1.14-3.6 3.72-4.51 1.7-.6 2.69-.06 3.19 1.61 1.92 6.39-1.54 14.85-9.19 13.96-3.22-.38-5.54-2.84-6.08-5.99-.37-2.16.13-8.17 1.4-9.94.62-.87 2.1-1.79 3.18-1.81z" fill="#fff"/><path d="M25.09 112.61c3.07-.46 6.89 2.48 7.55 5.4 1.63 7.24-1.44 15.33-10.2 12.71-9.29-2.78-4.83-16.98 2.65-18.11zm1.75 4.76c-2.44.54-3.87 6.02-.27 6.14s4.01-6.97.27-6.14zM160.88 110.34c1.11 1.11-.3 5.19-.44 6.6-.18 1.8.41 6.35-.87 7.68-1.06 1.1-3.95.5-5.04-.52-.78-.73-1.07-2.41-2.36-1.72.13 3.98-6.85 2.86-6.83-.65.02-2.71 2.32-9.21 3.74-11.62 1.01-1.71 2.29-3.37 4.31-1.71 1.65 1.37-.04 5.37 1.44 5.86 2.35.77 1.54-4.21 4.73-4.26.36 0 1.08.09 1.32.33zM84.93 109.57c1.58-.43 3.59 2.93 4.04 4.17.65 1.81 2.12 8.37.8 9.74-2.27 2.35-4.82-1.78-5.86-1.59-1.12.21-.28 2.13-.47 3.05-.56 2.74-4.78 3.68-6.61 1.95-1.1-1.04-.93-5.65-1.45-7.34-.61-1.99-2.72-3.52-1.56-5.98 1.41-2.98 6.15-.98 8.15.4.77.53 1.47 1.89 2.61 1.58 1.47-.41-.1-2.51-.26-3.41-.13-.75-.29-2.29.62-2.54zM115.01 108.94c2.19 1.82 2.42-2.2 4.37-2.63 2.82-.62 2.93 2.56 2.53 4.54-.24 1.19-1.58 2.59-2.08 3.7-.57 1.26-.75 3.62-1.27 4.51-.34.58-1.4.75-2.01.54-1.34-.47-1.05-2.2-2.5-2.04-1.04.12-1.83 3.02-4.54 2.78-2.85-.26-2.53-5.48-3.16-7.66-.73-2.56-3.94-6.67.38-7.94s3.71 3.39 5.42 4.17c.98.44 1.18-.9 1.88-.9.62 0 .66.68.97.93zM97.26 105.83c1.54-.18 3.94.19 5.1 1.31 1.41 1.35 2.47 5.11 2.52 7.04.23 9.4-11.68 11.83-14.27 2.44-1.17-4.25 2.09-10.24 6.65-10.78zm.13 3.53c-2.09 1.7-2.74 7.2 1.3 6.44 2.03-.38 2.66-3.88 1.75-5.49-.52-.93-2.11-1.71-3.05-.95zM46.46 79.67c4.29-.72 1.18 8.68 5.25 8.99s1.3-7.48 4.35-8.42c2.51-.77 3.1.94 3.28 3.03.47 5.35-1.33 12.04-7.91 11.68-5.21-.29-8.23-5.64-7.94-10.44.1-1.71 1.04-4.52 2.96-4.85zM36.92 79.18c2.06-.11 4.23 1.14 3.46 3.48-.63 1.9-5.06.55-6.79 3.02-1.6 2.28-.16 4.87 2.51 5.02.77.04 2.04-.22 1.38-1.15-5.51-.22-2.65-3.97 1.37-3.64 6.12.5 3.92 9.74-2.52 9.57-11.68-.31-10.11-15.74.58-16.29zM175.96 110.07c.95-.19 2.71.83 3.97.96 2.38.24 8.46-1.46 7.93 2.65-.29 2.25-3.87 3.09-4.43 4.88-.84 2.72 2.49 8.01-1.11 8.94-5.91 1.53-4.15-3.66-4.53-7.04-.29-2.57-1.89-2.05-3.02-3.26-1.63-1.74-1.59-6.55 1.2-7.12zM88.65 81.89l-.38.62c.17.79 4.19-.14 5.09 1.95s-.82 2.48-2.51 2.89c-.49.12-2.55-.1-2.33.93s5.37-.89 5.51 2.54c.19 4.39-9.12 3.84-9.87 2.3-.35-.72-.52-2.48-.64-3.36-.3-2.22-.97-7.93-.37-9.85.34-1.1 1.95-1.64 3-1.78 1.19-.16 5.64-.2 6.71.03 1.15.25 1.83 1.9 1.2 2.85-.12.18-1.03.86-1.15.86h-4.27zM79.14 92.62c-1.69 1.83-9.78 2.44-10.23-1.56-.25-2.24-.22-7.29 0-9.56s1.54-2.62 3.69-2.85c6.75-.71 9.3 2.56 8.64 9.14-.13 1.32-1.2 3.87-2.09 4.83zm-5.96-8.97v5.4c0 .07.26.59.42.64 5.21.97 4.89-7.95-.42-6.04zM168.16 110.84c1.47-.34 3.13.21 3.78 1.64s1.46 6.25 1.76 8.04c.21 1.28.83 4.35.52 5.41-.61 2.06-2.9-.61-3.53-.89-1.51-.66-3.45 1.59-5.2 1.96-3.08.65-4.67-.31-4.27-3.51.25-2.02 3.81-9.22 5.05-11.03.38-.56 1.24-1.47 1.9-1.62zm.09 8.72c1.15.79 2.09-2.11 1.11-2.74-1.12-.35-1.55 2.44-1.11 2.74zM130.14 77.25c.4.02.73.11 1.1.27 6.03 2.55 3.69 15.78-5.32 12.61-3.48-1.22-4.95-3.93-4.14-7.54.86-3.86 4.68-5.54 8.36-5.33zm-2.72 4.19c-.97.22-2.06 1.36-2.18 2.36-.37 3.07 4.9 3.98 5.47 1.43s-.53-4.42-3.29-3.79zM116.1 77.21c.92.01 3.5.33 3.81 1.33.86 2.82-2.07 2.6-3.86 3.33-.44.63.14 6.86-.17 8.37-.36 1.78-2.54 2.38-3.58.93-1.18-1.63-.54-6.71-1.01-8.79-.52-1.06-3.64.11-4.1-1.94-.3-1.34.12-2.12 1.44-2.48 1.39-.38 5.97-.78 7.48-.77zM63.05 79.43c2.85-.85 3.36 2.64 3.59 4.6.25 2.12.48 5.98-.06 7.97-.61 2.22-2.89 2.65-4.01.62-.92-1.68-1.35-7.12-1.2-9.09.09-1.17.37-3.7 1.68-4.1zM122.14 25.44c1.17 1.07.48 4.01-.21 5.28-.73 1.34-4.34 5.13-6 4.07-.67-.43.56-1.14.71-1.82.51-2.24-.68-6.16 1.83-7.72.96-.6 2.83-.59 3.68.19zM63.05 70.39c4.84-1.11 4.85 7.18 0 5.42-3.19-1.15-2.38-4.87 0-5.42zM126.16 111.46c-1.87 1.5-4.03-1.66-1.83-1.95 1.6-.21 3.48.61 1.83 1.95zM52.75 123.4c2.16-.47 2.4 1.67.83 2.11-.97.27-2.22-.73-1.65-1.66.22-.23.52-.38.82-.44zM92.66 141.44l-.17-.73c1.37-.68 3.13-1.17 3.16-3.01-.17-.18-3.33 1.63-4.63-.52s1.74-5.45 3.95-4.96c1.77.39 2.11 3.31 2.19 4.86.16 3-1.39 4.82-4.5 4.37zm1.16-7.46c-1.18.25-2.49 2.57-.75 2.92s2.43-1.24 1.96-2.73c-.24-.35-.84-.27-1.22-.19zM104.63 132.25c1.59 1.29-1.07 4.74-1.38 6.39-.15.8.35 3.14-.9 2.8-2.54-.68 1.26-6.89.73-7.76-.43-.7-2.69-.76-3.28 0-.19.25-1 2.73-1.71 1.2-.57-1.23.83-2.74 1.97-2.95.78-.14 4.02-.13 4.57.31zM118.2 131.49c.59.83.35 3-.07 3.92-1.59 3.42-7.94.58-5.24-3.48 1.13-1.71 4.08-2.18 5.32-.44zm-1.74 4.13c.07-.07.92-1.56.96-1.68.58-1.78-1.55-3.02-3.04-1.77-2.28 1.91.83 4.67 2.08 3.46zM107.57 140.3c.18-.28.52-.11.64-.98.21-1.53-.11-3.33.02-4.89l-1.09-.04-.43-.59c.34-1.17 1.69-1.49 2.66-.89.93.92-.05 5.29.41 6.62.15.42 1.3.74 1.22 1.54-.09.43-3.13.99-3.66-.11-.13-.26.11-.48.24-.67zM86.35 134.43c-.67-1.77 2.08-2.41 2.64-1.26.51 1.05-.14 4.49.13 5.9.12.63 1.83 1.78 1.01 2.27-.51.31-3.01.59-3.26-.29-.12-.43.84-1.36.97-2.25.09-.66.15-4.02-.21-4.27l-1.28-.11z" fill="#fff"/><path d="M116.27 135.18l-.99.14c-1.41-1-.82-2.59.62-3.16 1.37-.01-.29 2.24.38 3.02z" fill="#fff"/></svg>