<svg xmlns="http://www.w3.org/2000/svg" width="250" height="140" viewBox="0 0 250 140"><path d="M105.43,14.58v15.7l7.73-.26-.59-7H119l-.66,7.3h7.41s-1.46-15.21.46-20.76h-8.86L119,19.17l-7.14.33,1.79-10h-6.07" fill="#fff"/><path d="M128,10.72s-3.39,12.47,1.53,20.19l18.08-2.82-.53-4-12.38,2.46-.36-3.46L141.63,22l-.18-3.65-7.68,1.25v-4.7l11.85-1.88-.35-6S131,8.9,128,10.72Z" fill="#fff"/><path d="M24.43,74.68s-1.4-10-7.2-9.67S9.49,81.71,13,88,17.93,96,21.45,95.6s4.22-5.45,4.22-5.45L19.86,90l-1.4-6.69,22.68-1.23S40.61,96,30.24,101.58s-21.45-.35-24.44-6S-4.57,71.34,4,59.38,25.84,48.31,31.82,55A33.12,33.12,0,0,1,39.2,69.76Z" fill="#fff"/><path d="M56.08,45.85l3,34.81A23,23,0,0,0,75.42,75l3.16,11.43s-8.43-.88-15.47,1.05-13.36,3-13.36,3,1.58-26.93-8.61-40.36Z" fill="#fff"/><path d="M87,45.85c5-1.24,7.74,4,5.1,8.14s-7.91,4.8-10.72,0S83.51,46.73,87,45.85ZM82.28,89.1l10.86.17c-3.38-6.33-2.07-26.72-2.07-26.72H82.28C87.9,70.28,82.28,89.1,82.28,89.1Z" fill="#fff"/><path d="M99,43.21l14.24-1.05s.67,18.46,4.64,24.26c0,0,7-6.68,6.26-24.26l13.12-1.6s-3,45,0,52.23H126.19s3.38-22,2.15-28.48L118.11,86.46l-9.46-21.1s0,24.09,2.81,27.43L99,93.84S104.08,64.13,99,43.21Z" fill="#fff"/><path d="M144,41.28h13.89s.17,18.1,2.81,21.27c0,0,8.79-9.49,8.26-19.69l13.71-.35s-4.39,14.76-4.39,21.8V85.4l-10.9-1.58s5.8-18.81,4.22-22.15L160.16,77.32,152.6,60.79s-2.28,13.89.18,21.1H140.65s5.27-15.14,5.09-24.54A83.65,83.65,0,0,0,144,41.28Z" fill="#fff"/><path d="M185.48,47.25s-.35,19.52-1.23,24.09-3,16-3,16l16.17,1.93,1.23-8.61-10.55-.35.53-5.45,6.16.17,1.75-6.77L190,68.14l3.25-10h8.09l2.81-10.9Z" fill="#fff"/><path d="M250,74.68A50.69,50.69,0,0,1,237.17,72a94.89,94.89,0,0,1-9.32-3.78s11.43-2,11.43-10.91-4.05-12.21-8.62-13.26S212.73,42,208.33,47.25c0,0,5.28,12,4.93,20a140.46,140.46,0,0,1-2.46,18.2h13l-3.69-12.83,20.75,10.37ZM218.71,61.85V51.51c4-2.78,11.07.14,10.46,5.17S218.71,61.85,218.71,61.85Z" fill="#fff"/><path d="M96.19,114.35s-2.15-14-13.91-13.08-12.73,14.21-12.73,17.28S72,140.18,85.37,139.86s12.92-16.47,12.92-16.47l-14.37,1.94,1.13,4.84,3.87-.32s.38,4-2.07,4.52-8.91-2.75-9.07-11,1.57-11.3,4.5-11.3,4.57,6.46,4.57,6.46Z" fill="#fff"/><path d="M113.79,102.24l-10.66,1.6c3.47,14.71-4.84,34.08-4.84,34.08l7.91-1.77-.65-7.59,4.85-.81.16,10.17c1.61-1.29,8.72-2.58,8.72-2.58C112.17,126.3,113.79,102.24,113.79,102.24Zm-7.43,21,2.42-9.2,1.94,9.2Z" fill="#fff"/><path d="M119.28,104.5l10.65-.66s3.72,17,8.08,19.39c0,0,.74-14.72-.77-19.39h9.16s-5,22.62-1,31.82h-9l-7.75-22.93,1.45,22.93h-7.91S124.6,112.25,119.28,104.5Z" fill="#fff"/><path d="M171.27,115s.63-13.56-9.61-14.37-13.81,7.92-14.45,12.11-2.91,19.86,5.81,22.93,13.08-2.91,14-5,1.61-7.43,1.61-7.43H157.86v3.71l3.8,1s.47,3.39-2.79,3.55-7.14-6-5-15,7.9-5.33,7.83-.16Z" fill="#fff"/><polygon points="149.71 3.85 157.15 4.86 161.66 0 163.38 6.61 169.26 9.52 162.83 13.49 162.38 20.83 157.05 15.32 150.17 16.7 154.03 10.41 149.71 3.85" fill="#fff"/><polygon points="73.38 3.25 71.08 10.41 64.11 12.57 70.17 16.24 69.89 24.13 76.41 19.9 83.38 21.47 80.56 13.69 84.3 9.52 77.69 9.52 73.38 3.25" fill="#fff"/><path d="M85.59,9.6l2.1,5.89,6.82-1.6-.93,14.9h8.09s-3-9.85-1.44-14.39l7.33.25V8Z" fill="#fff"/></svg>