<svg xmlns="http://www.w3.org/2000/svg" viewBox="0 0 220 106"><path d="M69.88 2.1H83v22.09L102.95 2.1h14.4L93.3 29.77l25.01 31.87h-16.3L83 36.67V66.4s-4.44-4.96-13.12-4.76V2.1zM121.3 13.71c0-1.92.68-3.55 2.04-4.91s2.99-2.04 4.91-2.04 3.55.68 4.91 2.04 2.04 2.99 2.04 4.91-.68 3.55-2.04 4.91c-1.36 1.36-2.99 2.04-4.91 2.04s-3.55-.68-4.91-2.04c-1.36-1.36-2.04-2.99-2.04-4.91zm1.38 12.75h11.13v36.16h-11.13V26.46zM182 65.51s-3.28-4.54-11.61-4.63v-2.69h-.17c-.5.73-1.16 1.47-1.98 2.23-.81.76-1.77 1.44-2.86 2.06-1.09.62-2.3 1.12-3.62 1.51-1.32.39-2.68.59-4.08.59-3.03 0-5.78-.52-8.24-1.56-2.47-1.04-4.58-2.49-6.35-4.37-1.77-1.88-3.13-4.11-4.08-6.69-.95-2.58-1.43-5.41-1.43-8.49 0-2.86.43-5.59 1.3-8.2.87-2.61 2.1-4.92 3.7-6.94 1.6-2.02 3.55-3.63 5.84-4.84 2.3-1.2 4.9-1.81 7.82-1.81 2.63 0 5.09.41 7.36 1.22 2.27.81 4.13 2.2 5.59 4.16h.17V0h12.61v65.51zm-11.6-22.37c0-3.08-.88-5.58-2.65-7.48-1.77-1.91-4.25-2.86-7.44-2.86s-5.68.95-7.44 2.86c-1.77 1.91-2.65 4.4-2.65 7.48s.88 5.58 2.65 7.48c1.77 1.91 4.25 2.86 7.44 2.86s5.68-.95 7.44-2.86c1.77-1.91 2.65-4.4 2.65-7.48zM48.94 85.39c0-2.72.49-5.18 1.48-7.39.98-2.2 2.33-4.09 4.05-5.66 1.71-1.57 3.73-2.78 6.05-3.62 2.32-.84 4.8-1.27 7.42-1.27s5.1.42 7.42 1.27c2.32.84 4.34 2.05 6.05 3.62 1.71 1.57 3.06 3.46 4.05 5.66.98 2.21 1.48 4.67 1.48 7.39s-.49 5.18-1.48 7.39-2.33 4.09-4.05 5.66c-1.71 1.57-3.73 2.78-6.05 3.62s-4.8 1.27-7.42 1.27-5.1-.42-7.42-1.27c-2.32-.84-4.34-2.05-6.05-3.62-1.71-1.57-3.06-3.46-4.05-5.66-.99-2.2-1.48-4.67-1.48-7.39zm10.56 0c0 2.58.74 4.67 2.22 6.26 1.48 1.6 3.55 2.39 6.23 2.39s4.75-.8 6.23-2.39c1.48-1.59 2.22-3.68 2.22-6.26s-.74-4.67-2.22-6.26c-1.48-1.59-3.55-2.39-6.23-2.39s-4.75.8-6.23 2.39c-1.48 1.6-2.22 3.68-2.22 6.26zM110.5 77.41c-1.55-1.92-3.59-2.89-6.12-2.89-.89 0-1.76.21-2.6.63s-1.27 1.15-1.27 2.18c0 .84.43 1.47 1.3 1.86.87.4 1.97.75 3.31 1.06 1.34.31 2.77.63 4.29.99 1.52.35 2.96.9 4.29 1.65a9.6 9.6 0 0 1 3.31 3.06c.87 1.29 1.3 3.01 1.3 5.17s-.48 4.02-1.44 5.45c-.96 1.43-2.19 2.58-3.69 3.45-1.5.87-3.19 1.48-5.07 1.83-1.88.35-3.73.53-5.56.53-2.39 0-4.81-.34-7.25-1.02-2.44-.68-4.5-1.89-6.19-3.62l6.4-7.11c.98 1.22 2.08 2.15 3.27 2.78 1.2.63 2.59.95 4.19.95 1.22 0 2.32-.18 3.31-.53.98-.35 1.48-1 1.48-1.93 0-.89-.43-1.56-1.3-2.01-.87-.45-1.97-.82-3.31-1.13-1.34-.3-2.77-.63-4.29-.99a17.75 17.75 0 0 1-4.29-1.58c-1.34-.7-2.44-1.7-3.31-2.99-.87-1.29-1.3-3.01-1.3-5.17 0-2.02.41-3.75 1.23-5.21.82-1.45 1.9-2.65 3.24-3.59 1.34-.94 2.87-1.63 4.61-2.08 1.73-.45 3.49-.67 5.28-.67 2.25 0 4.53.33 6.83.99 2.3.66 4.24 1.83 5.84 3.52l-6.47 6.4zM123.34 67.77h10.13v4.64h.14c.33-.66.8-1.31 1.41-1.97.61-.66 1.34-1.24 2.18-1.76.84-.52 1.81-.94 2.89-1.27 1.08-.33 2.25-.49 3.52-.49 2.39 0 4.51.49 6.37 1.48 1.85.99 3.25 2.53 4.19 4.64 1.22-2.2 2.7-3.78 4.43-4.71 1.73-.94 3.87-1.41 6.4-1.41 2.3 0 4.23.39 5.81 1.16 1.57.77 2.81 1.83 3.73 3.17.91 1.34 1.57 2.91 1.97 4.71.4 1.81.6 3.74.6 5.81v20.19h-10.55V82.05c0-1.59-.34-2.97-1.02-4.12-.68-1.15-1.89-1.72-3.62-1.72-1.22 0-2.24.2-3.06.6-.82.4-1.48.95-1.97 1.65s-.84 1.52-1.06 2.46c-.21.94-.32 1.92-.32 2.96v18.08h-10.55V83.88c0-.61-.02-1.36-.07-2.25-.05-.89-.21-1.73-.49-2.53-.28-.8-.74-1.48-1.37-2.04-.63-.56-1.56-.84-2.78-.84-1.36 0-2.46.25-3.31.74-.84.49-1.49 1.15-1.94 1.97-.45.82-.74 1.75-.88 2.78-.14 1.03-.21 2.11-.21 3.24v17.03h-10.55v-34.2zM182 84.44c0-2.72.49-5.18 1.48-7.39.98-2.2 2.33-4.09 4.05-5.66 1.71-1.57 3.73-2.78 6.05-3.62 2.32-.84 4.8-1.27 7.42-1.27s5.1.42 7.42 1.27c2.32.84 4.34 2.05 6.05 3.62 1.71 1.57 3.06 3.46 4.05 5.66.98 2.21 1.48 4.67 1.48 7.39s-.49 5.18-1.48 7.39-2.33 4.09-4.05 5.66c-1.71 1.57-3.73 2.78-6.05 3.62s-4.8 1.27-7.42 1.27-5.1-.42-7.42-1.27c-2.32-.84-4.34-2.05-6.05-3.62-1.71-1.57-3.06-3.46-4.05-5.66-.99-2.2-1.48-4.67-1.48-7.39zm10.56 0c0 2.58.74 4.67 2.22 6.26 1.48 1.6 3.55 2.39 6.23 2.39s4.75-.8 6.23-2.39c1.48-1.59 2.22-3.68 2.22-6.26s-.74-4.67-2.22-6.26c-1.48-1.59-3.55-2.39-6.23-2.39s-4.75.8-6.23 2.39c-1.48 1.6-2.22 3.68-2.22 6.26zM41.81 86.33a13.969 13.969 0 0 1-5 4.58c-2.03 1.1-4.36 1.65-7 1.65-2.31 0-4.46-.47-6.47-1.4-2-.93-3.75-2.24-5.23-3.91-1.48-1.67-2.65-3.65-3.5-5.93-.85-2.28-1.28-4.79-1.28-7.54s.42-5.19 1.28-7.49c.85-2.31 2.03-4.3 3.54-5.97 1.51-1.67 3.29-2.98 5.35-3.91 2.06-.93 4.3-1.4 6.71-1.4s4.54.41 6.38 1.24c1.6.71 2.97 1.7 4.14 2.95l6.24-11.43-.12-.09c-1.59-1.1-3.25-1.98-4.98-2.64-1.73-.66-3.49-1.14-5.27-1.44-1.78-.3-3.5-.45-5.15-.45-4.56 0-8.76.71-12.6 2.14-3.84 1.43-7.17 3.47-9.97 6.14-2.8 2.66-4.98 5.89-6.55 9.68C.77 64.9-.02 69.13-.02 73.79s.78 8.89 2.35 12.68c1.56 3.79 3.75 7.01 6.55 9.68 2.8 2.66 6.12 4.71 9.97 6.14 3.84 1.43 8.04 2.14 12.6 2.14 4.01 0 7.91-.82 11.69-2.47 1.89-.82 3.61-1.88 5.17-3.15l-6.52-12.46z" fill="#fff"/></svg>