<svg xmlns="http://www.w3.org/2000/svg" viewBox="0 0 350 43"><path d="M32.51 23.66c-.1-4.32-.15-9.1-.15-15.12h-.15c-1.23 4.94-2.88 10.39-4.22 14.76l-3.75 12.55h-7.77l-3.09-12.5c-1.03-4.27-2.16-9.67-3.09-14.81h-.1c-.21 5.3-.36 10.8-.51 15.12l-.51 12.91H0L1.95 1.9h13.89l2.31 8.74c.98 3.7 2.06 8.49 2.83 12.86h.21c1.13-4.37 2.42-9.52 3.5-12.96l2.73-8.64h13.53l1.59 34.67h-9.67l-.36-12.91zM56.92 28.13l-2.21 8.44H44.47L55.43 1.9H68.7l11.68 34.67h-10.8l-2.57-8.44H56.93zm8.59-7.09l-1.85-6.12c-.62-1.95-1.34-4.47-1.95-6.48h-.1c-.57 2.01-1.08 4.53-1.65 6.53l-1.65 6.07h7.2zM83.97 26.9c2.31 1.13 6.02 2.42 9.98 2.42 3.24 0 4.89-1.03 4.89-2.78 0-1.49-1.59-2.47-5.81-3.65-5.92-1.65-10.8-4.68-10.8-10.7s5.66-10.9 14.66-10.9c4.73 0 7.92.82 10.6 1.95l-2.21 7.61c-1.65-.67-4.58-1.8-8.54-1.8-2.88 0-4.53.93-4.53 2.42 0 1.85 2.21 2.47 6.74 3.91 6.74 2.16 9.93 5.4 9.93 10.65 0 5.81-4.58 11.16-15.64 11.16-4.58 0-9.05-1.23-11.26-2.37l2.01-7.92zM144.59 43c-5.71-1.59-9.82-3.09-15.43-5.35-.77-.31-1.75-.36-2.78-.46-7.82-.77-16.36-6.02-16.36-17.54 0-10.7 7.46-18.36 19.08-18.36s18.57 7.66 18.57 17.64c0 7.15-3.96 12.71-8.33 14.81v.21c2.37.67 5.09 1.13 7.82 1.59L144.59 43zm-7.26-23.71c0-5.97-3.29-10.49-8.49-10.49s-8.49 4.53-8.49 10.49 3.29 10.39 8.49 10.39 8.49-4.42 8.49-10.39zM160.62 1.9v18.83c0 5.45 2.01 8.95 6.43 8.95s6.43-3.24 6.43-8.95V1.9h9.72v18.57c0 11.32-6.02 16.72-16.56 16.72-9.93 0-15.74-5.04-15.74-16.97V1.9h9.72zM210.56 22.84h-14.09v5.92h15.74v7.82h-25.46V1.9h24.69v7.82h-14.97v5.3h14.09v7.82zM216.19 2.36c2.73-.41 7-.77 12.24-.77 5.81 0 9.67.82 12.34 2.73 2.21 1.59 3.6 4.12 3.6 7.61 0 4.63-3.75 7.56-6.17 8.33v.21c2.31.98 3.6 3.24 4.58 6.12 1.18 3.55 2.37 8.64 3.03 9.98h-9.88c-.57-1.03-1.49-3.45-2.67-7.92-1.08-4.17-2.47-4.99-5.71-4.99h-1.75v12.91h-9.62V2.36zm9.62 14.46h2.88c3.81 0 6.07-1.54 6.07-4.17s-1.95-3.96-5.25-3.96c-2.16 0-3.19.1-3.7.21v7.92zM260.62 28.13l-2.21 8.44h-10.24L259.13 1.9h13.27l11.68 34.67h-10.8l-2.57-8.44h-10.08zm8.59-7.09l-1.85-6.12c-.62-1.95-1.34-4.47-1.95-6.48h-.1c-.57 2.01-1.08 4.53-1.65 6.53l-1.65 6.07h7.2zM287.02 2.36c3.34-.51 7.72-.77 12.19-.77 7.3 0 11.78 1.08 15.59 3.5 4.06 2.57 6.89 6.79 6.89 13.12 0 7.2-2.98 11.57-6.38 14.15-4.27 3.24-10.7 4.63-18 4.63-5.14 0-8.38-.31-10.29-.62V2.36zm9.72 27.06c.57.1 1.54.1 2.26.1 7.1.1 12.29-3.24 12.29-10.8 0-6.89-4.89-9.77-11.16-9.77-1.8 0-2.88.15-3.39.26v20.21zM348.35 22.84h-14.09v5.92H350v7.82h-25.46V1.9h24.69v7.82h-14.97v5.3h14.09v7.82z" fill="#fff"/></svg>