<svg xmlns="http://www.w3.org/2000/svg" width="250" height="176" viewBox="0 0 250 176"><path d="M21.24,87.66a210.33,210.33,0,0,0,6.88-26.42c3.44-17.47,5.09-34.14,6.23-43.13s8.56-11.2,9.84-4.7a155.08,155.08,0,0,1,3.06,23.73c.89,14.54.89,21,1.79,21S56.56,33.82,59.49,25,68.8.28,72.63,0s5.1,1.66,5,6.12-4.84,25.89-5,39.8,1.54,23.87,1.91,25.25c.57,2.08.26,2.93-1,3.7s-4.84,1.91-5.61.25-3.7-16.45-2-34.43,5.06-20.95,4-21.19S61.28,33.05,58.6,46.45s-7.19,32.8-9.11,34.15c-1.6,1.12-4.15,1.68-5.3-2.27s-4.08-35.62-4.06-43c0-7.82-1.17-8.5-1.81-5.19s-3.06,34.44-5.48,46.17S29.78,88,27.35,89.17,17.81,93.15,21.24,87.66Z" fill="#fff"/><path d="M109.6,46a21.59,21.59,0,0,1-9.49,13.47c-8.53,5.12-9.58-2.38-9.58-2.38s10-.94,15-15.36-6.93-14-11.29-12.23-12.49,10-11.92,21,3.86,17.51,13.34,17.32S116.42,51.85,109.6,46ZM88.3,49.89c-1.43-2.59,2-14.71,9.4-14.64,3.7,0,3.13,6.74-.41,10.82S89.73,52.47,88.3,49.89Z" fill="#fff"/><path d="M14.29,159.29l1.24.87a249,249,0,0,0,12.82-32.49c4-13,6-20.91,11-20.28s3.11,8.46,1.49,17.3-4.23,33.05,1.12,33.05,10-10.61,12.2-23.47c2.61-15.43,2.74-36.22,3.61-39.58s4.6-6.1,5.85-5.1,3.22,8-.16,31.86-8.34,41.27-17.14,44.69c-7.53,2.92-12.58.37-13.57-7.35s1.78-24.38.87-24.64c-1.74-.5-11.29,31.29-15.65,36.77s-7,5.55-8.87.94-1.74-11.57.87-27.51,5-33.3,1.49-34.79S5.32,116,1.34,114.11,2.52,99.7,13.22,101.32s6.17,26.73,5,33S14.29,159.29,14.29,159.29Z" fill="#fff"/><path d="M145.17,130.35s-.8,1.07-4.08,4.81-5,4.05-6,3.08,1.42-20.74,1.69-27.21.09-10.1-6.47-10.1-10.9,10.46-12,10.46-.71-5-.71-6.91-3.19-.71-5,0-1.6,1.41-1.78,4.78.8,23.31-5.93,30.4-10.73,4-10.73,4,.86-12.1,1.68-16.57S98,114.42,95,113.39s-8.83.66-16.63,6.15-10.55,13.74-11.7,17.9.09,21.09,6.56,21.54,14.71-9.86,14.71-9.86c3.06,5.6,5,5.51,9.93,1.88,3.89-2.85,7.26-10.19,8.15-10.1s0,2.66-.09,5.58,3.72,3,6.2,2.64,2.4-7.51,3.9-16,5.23-16.75,9.39-19.67,5.14.26,4.35,8.77-4.52,20.47,1,22.12,15.51-13,15.51-13ZM83.4,144.53c-6.73,7.36-10.19,4.88-10.54-.44s8.86-24.64,16.66-22.78C92.93,122.13,90.14,137.18,83.4,144.53Z" fill="#fff"/><path d="M157.48,80.55V61.85s-.79-2.13-2-2.21S152.26,62.12,152,66s-1.06,16.57-1.06,16.57-9.31,2.48-11.52,3.1-2.93,2.84-2.31,5,1.51,2.66,5.14,1.95,8.15-2.13,8.15-2.13-1.41,28.89-1.15,37.05,1.69,9.92,7.18,8.15,10.1-10.28,10.1-10.28l-.62-2.75s-5.52,9.15-9,8.33c-4.34-1,.45-42.89.45-42.89s9.39-3.9,11.16-4.34,1.86-5.14,0-6.38Z" fill="#fff"/><path d="M194.61,106.25c-.88,0-5.14,11.5-10.39,13.16-7.57,2.4-8.66-4.21-8.66-4.21s7.45-2.13,13-11.52.8-15.07-2.84-15.77-10.28-.18-15.06,8.24-4.52,18.87,0,26.05,13.82,5.58,21.27-2.3S195.5,106.25,194.61,106.25Zm-22.42,2.66s0-11.08,6.38-14.18,6.74,2.83,4.7,6.2S177.51,111,172.19,108.91Z" fill="#fff"/><path d="M225.9,97.3c-1.6-.27-2.66,2-3.9,4.7a16.3,16.3,0,0,1-10.37,8.68c-6.12,1.77-5.94-4.17-5.94-4.17,7.27-2.65,13.65-9,14.45-16.83S217.48,79,212.87,78.07c0,0-6-1-11.43,9-6.37,11.7-.8,23.83.86,26s6.67,7.18,15.8.71S227.49,97.56,225.9,97.3Zm-23.4,2.21C200.82,90.65,210,84.09,213,85.42c1.85.82,2.92,5.41-.53,10.28S203,102.35,202.5,99.51Z" fill="#fff"/><path d="M241.58,93.86c3.36-.19,5.76,3.75,5.32,7.71s-2,7-5.32,7-5.58-4.25-4.78-8.42S239.72,94,241.58,93.86Z" fill="#fff"/><path d="M241.79,40.5s1.1,16.39,0,27-2.42,20.83-.83,21.27S244.15,90,244.68,87s5.32-40.15,5.32-44C250,39.48,249.63,37.3,241.79,40.5Z" fill="#fff"/></svg>