<?xml version="1.0" encoding="UTF-8"?><svg xmlns="http://www.w3.org/2000/svg" width="250" height="169" viewBox="0 0 250 169"><g id="a"/><g id="b"><g><g><path d="M46.51,85.58c-.58-.85-.65-1.94-1.07-2.88-.58-1.29-1.78-2.19-2.55-3.38-1.81-2.75-1.07-6.37-1.55-9.62-.59-3.97-3.04-7.46-3.69-11.42-.59-3.6,.34-7.3-.08-10.93-.23-1.95-.85-3.86-1.83-5.57-.73-1.27-1.69-2.47-2.98-3.16-1.3-.69-2.98-.78-4.19,.06-2.38,1.65-1.61,5.33-2.66,8.03-.34,.87-.88,1.64-1.24,2.5-1.13,2.67-.39,5.72,.28,8.54,2.18,9.28,3.4,18.78,3.61,28.31-5.08-4.77-8.07-11.69-8.06-18.66,0-2.09,.25-4.25-.5-6.2-.51-1.32-1.45-2.43-2.36-3.51-2.03-2.39-4.06-4.78-6.09-7.16l-.14-.21c-.9-1.72-1.86-3.48-3.42-4.63s-3.91-1.46-5.38-.2c-1.28,1.1-1.51,2.99-1.41,4.68,.1,1.69,.43,3.42-.07,5.03-.26,.84-.74,1.61-.97,2.46-.55,2,.31,4.07,1.01,6.02,3.61,10.05,3.28,21.14,6.47,31.33,.5,1.58,1.08,3.22,.82,4.86-.23,1.49-1.16,2.85-1.12,4.35,.04,1.97,1.98,3.66,3.94,3.5s3.6-2.05,3.54-4.01c-.04-1.22-.62-2.35-1.01-3.5-1.54-4.48-.31-9.46-1.26-14.1-.34-1.67-.96-3.28-1.52-4.89-2.76-8.02-3.96-16.57-3.51-25.04,.27-.37,.85-.09,1.2,.22,1.23,1.08,2.47,2.16,3.7,3.23,.8,.7,1.61,1.41,2.22,2.27,2.47,3.48,1.23,8.37,2.65,12.4,.83,2.35,2.53,4.28,3.63,6.52,1.9,3.9,1.93,8.65,4.51,12.14,.99,1.34,2.38,2.54,2.66,4.19,.21,1.28-.22,2.82,.71,3.72,1.17,1.13,3.26-.19,3.56-1.79,.3-1.6-.45-3.18-.85-4.75-.6-2.34-.44-4.79-.4-7.2,.21-11.08-1.96-22.06-2.97-33.1-.06-.64,.09-1.53,.73-1.54,.28,0,.52,.18,.74,.36,1.26,1.04,2.57,2.15,3.13,3.68,.79,2.14-.07,4.68,.94,6.73,.31,.63,.78,1.18,1.01,1.85,.5,1.46-.27,3.04-.22,4.59,.07,2.27,1.88,4.18,2.13,6.44,.11,1.01-.11,2.06,.14,3.04,.31,1.25,1.3,2.19,2.08,3.22,1.28,1.68,2.06,3.75,2.21,5.86,.04,.53,.04,1.08,.23,1.58,.17,.47,.5,.86,.81,1.24,1.79,2.17,3.59,4.35,5.38,6.52,.65-2.01,1.3-4.02,1.95-6.03,.29-.9,.58-1.87,.26-2.76-.51-1.42-2.31-1.93-3.15-3.18Z" fill="#fff"/><path d="M47.01,85.28c-.76-1.28-.83-2.76-1.75-3.98-1.15-1.53-2.39-2.67-2.81-4.62-.36-1.64-.28-3.33-.35-5s-.37-3.39-.92-5.04c-1.22-3.59-3.06-6.83-3.14-10.72s.69-7.5-.41-11.19c-.81-2.74-2.49-5.98-5.39-6.95-2.4-.81-4.78,.31-5.64,2.68-.45,1.24-.52,2.57-.71,3.86-.26,1.73-1.04,3.02-1.72,4.6-1.37,3.19-.29,6.72,.44,9.93,2.04,8.93,3.15,18.05,3.37,27.21l1-.41c-4.26-4.07-7.07-9.57-7.73-15.44-.32-2.87,.35-5.96-.53-8.74s-3.15-4.77-4.9-6.83c-1.07-1.26-2.14-2.51-3.2-3.77-.91-1.08-1.44-2.38-2.26-3.54-1.34-1.9-3.35-3.43-5.79-3.23-2.3,.19-3.61,2.06-3.88,4.21-.17,1.39,.06,2.76,.12,4.15,.08,1.78-.5,2.98-1.07,4.6-1.01,2.87,.61,5.79,1.45,8.49,.96,3.05,1.59,6.19,2.12,9.35,1.04,6.25,1.62,12.6,3.32,18.72,.42,1.5,1.04,2.99,1.25,4.54,.24,1.75-.54,3.06-.94,4.7-.52,2.14,.45,4.25,2.52,5.12s4.3-.13,5.36-2c1.36-2.39-.16-4.64-.75-6.99-.87-3.49-.32-7.14-.62-10.69s-1.72-6.63-2.71-9.94c-2.13-7.19-3-14.7-2.63-22.19l-.29,.5c.4-.31,3.07,2.38,3.45,2.71,1,.87,2.09,1.72,2.87,2.8,1.51,2.1,1.57,4.8,1.76,7.28,.17,2.24,.45,4.42,1.47,6.44,1.15,2.29,2.8,4.26,3.68,6.69,.81,2.24,1.22,4.6,2,6.85,.33,.97,.73,1.92,1.24,2.8,.66,1.14,1.59,2.05,2.36,3.12s.91,2.11,.94,3.39c.02,.89,.13,1.84,.81,2.49,1.18,1.13,2.96,.45,3.87-.68,1.42-1.78,.47-4.08-.07-6-.77-2.76-.5-5.62-.48-8.45,.04-5.87-.56-11.71-1.27-17.53-.36-2.92-.74-5.83-1.09-8.75-.17-1.46-.34-2.92-.48-4.38-.05-.5-.27-1.26-.15-1.75,.24-1.02,.84-.21,1.36,.25,.96,.85,1.87,1.8,2.23,3.07s.18,2.73,.29,4.08c.08,.99,.3,1.9,.79,2.78,.41,.73,.85,1.29,.9,2.19,.04,.79-.19,1.58-.29,2.36-.38,2.74,1.32,4.54,1.92,7.06,.32,1.37-.08,2.8,.39,4.15,.38,1.08,1.18,1.92,1.88,2.8,.98,1.25,1.69,2.68,2.05,4.23,.27,1.21,.09,2.61,.69,3.73,.7,1.28,1.88,2.4,2.8,3.51,1.11,1.34,2.21,2.68,3.32,4.03,.3,.36,.85,.12,.98-.26,.45-1.39,.9-2.78,1.35-4.17,.39-1.22,.97-2.5,1.01-3.79,.07-2.35-2.16-2.87-3.36-4.45-.45-.59-1.46,0-1.01,.59,1.18,1.55,3.59,2.17,3.11,4.5s-1.49,4.71-2.23,7.01l.98-.26c-.95-1.15-1.9-2.3-2.85-3.45s-2.39-2.46-3.09-3.85c-.56-1.1-.35-2.65-.68-3.86s-.85-2.36-1.55-3.4c-.65-.98-1.56-1.8-2.1-2.85-.67-1.31-.23-2.77-.49-4.16-.2-1.05-.69-2.02-1.13-2.98-.71-1.53-1.03-2.78-.77-4.47,.17-1.07,.39-2.14,.05-3.2-.17-.52-.48-.97-.76-1.43-.49-.83-.69-1.62-.75-2.57-.16-2.3,.08-4.38-1.43-6.31-.72-.91-2.81-3.52-4.17-2.45-.55,.43-.61,1.2-.59,1.85,.06,1.62,.32,3.26,.51,4.87,.69,6,1.58,11.97,2.08,17.99,.26,3.08,.42,6.17,.39,9.27-.02,2.7-.27,5.45,.35,8.11,.32,1.36,1.01,2.74,.94,4.16-.03,.72-.28,1.34-.84,1.81-.72,.6-1.77,.66-2.13-.38s0-2.18-.3-3.23c-.3-1.1-1.03-1.99-1.74-2.86-1.72-2.08-2.64-4.28-3.34-6.87-.62-2.29-1.15-4.62-2.25-6.73-1.25-2.39-3.06-4.45-3.71-7.12-.57-2.36-.45-4.83-.83-7.22s-1.29-4.19-2.98-5.79c-1-.95-2.07-1.83-3.11-2.74-.68-.6-1.64-1.82-2.65-1.85-.81-.03-1.01,.55-1.05,1.23-.08,1.49-.08,2.98-.05,4.47,.06,2.8,.31,5.59,.72,8.37,.44,2.95,1.07,5.87,1.9,8.74s2.09,5.57,2.6,8.47c.48,2.74,.23,5.54,.33,8.3,.04,1.23,.14,2.46,.39,3.66,.28,1.39,.93,2.64,1.28,4.01,.76,3-2.61,6.05-5.19,3.56-2.17-2.09,.25-4.83,.23-7.26,0-1.27-.4-2.49-.77-3.69-.45-1.46-.86-2.92-1.21-4.41-.66-2.83-1.12-5.7-1.55-8.57-.83-5.58-1.5-11.21-3.14-16.63-.9-2.96-2.63-5.89-1.3-8.97,.47-1.09,.81-2.12,.84-3.32,.04-1.39-.25-2.76-.21-4.15s.36-2.82,1.58-3.56,2.88-.43,4.05,.31c2.13,1.34,2.82,3.88,4.38,5.71,1.95,2.3,3.93,4.58,5.86,6.9,.96,1.15,1.79,2.34,2.11,3.83s.19,3.02,.17,4.53c-.06,4.89,1.24,9.73,3.75,13.94,1.23,2.06,2.74,3.93,4.47,5.59,.36,.34,1.01,.11,1-.41-.18-7.32-.92-14.62-2.24-21.82-.66-3.58-1.87-7.18-2.18-10.81-.16-1.82,.13-3.37,.98-4.99,.66-1.25,1.09-2.4,1.3-3.81,.39-2.62,.7-6.82,4.56-5.83,3.39,.87,5.04,5.48,5.41,8.56,.42,3.48-.43,6.98,0,10.46,.4,3.24,2.01,6.09,3.05,9.14,.62,1.82,.85,3.63,.91,5.54,.05,1.63,.04,3.29,.46,4.87s1.25,2.69,2.28,3.87c.63,.72,1.14,1.42,1.44,2.34,.27,.79,.43,1.56,.86,2.29,.38,.65,1.39,.06,1.01-.59Z" fill="#fff"/></g><g><path d="M41.98,98.44l-.15-.03c.22,1.41-.39,3,.37,4.21,.18,.29,.46,.55,.81,.59,.44,.05,.85-.31,.99-.73,.14-.42,.07-.88-.06-1.3-.33-1.09-1.03-2.07-1.96-2.73Z" fill="#fff"/><path d="M42.13,97.88l-.15-.03c-.47-.11-.78,.28-.72,.72,.12,.81-.05,1.64-.04,2.46s.21,1.84,.91,2.4c.38,.3,.86,.46,1.34,.32,.43-.13,.8-.46,1-.87,.42-.88,.09-1.91-.31-2.73-.43-.88-1.09-1.62-1.88-2.2-.26-.19-.65-.04-.8,.21-.17,.3-.05,.61,.21,.8,.5,.37,.93,.84,1.24,1.38,.3,.5,.63,1.19,.55,1.79-.03,.23-.13,.39-.3,.49-.06,.03-.1,.04-.22,0,.06,.02-.07-.05-.03-.02-.07-.06-.14-.12-.2-.2-.33-.45-.36-1.1-.34-1.67,.03-.83,.12-1.63,0-2.45l-.72,.72,.15,.03c.31,.07,.63-.09,.72-.41,.08-.29-.1-.65-.41-.72Z" fill="#fff"/></g><g><path d="M44.55,108.53l.18,.25c-.41,1.56-.2,3.28,.57,4.7,.15,.28,.33,.55,.6,.72,.27,.16,.65,.18,.88-.04,.13-.13,.19-.31,.23-.49,.22-.97-.07-2-.57-2.86-.5-.86-1.2-1.58-1.9-2.29Z" fill="#fff"/><path d="M44.05,108.82l.18,.25-.06-.45c-.25,1-.28,2.03-.11,3.05,.16,.93,.51,2.02,1.16,2.72,.35,.37,.86,.58,1.36,.49,.54-.1,.87-.54,.99-1.06,.24-1.02,0-2.08-.46-3.01-.52-1.04-1.35-1.88-2.15-2.7-.53-.54-1.35,.29-.83,.83,1.13,1.15,2.47,2.5,2.36,4.25-.01,.17,0,.59-.22,.53-.29-.07-.47-.52-.58-.76-.36-.73-.55-1.55-.58-2.37-.01-.45,.01-.9,.1-1.34,.05-.27,.16-.53,.01-.79-.05-.09-.12-.16-.18-.24-.19-.25-.51-.38-.8-.21-.25,.15-.4,.54-.21,.8Z" fill="#fff"/></g><g><path d="M31.28,103.56l-.18,.05c.21,.69,.08,1.44,.02,2.16s-.03,1.52,.44,2.07c.47,.55,1.51,.62,1.84-.02,.11-.22,.13-.49,.31-.66,.34-.33,.96,0,1.37-.24,.54-.31,.24-1.14-.19-1.59-.94-.99-2.24-1.62-3.6-1.76Z" fill="#fff"/><path d="M31.12,102.99l-.18,.05c-.3,.09-.5,.41-.41,.72,.17,.59,.07,1.23,.01,1.85-.06,.57-.07,1.17,.1,1.73s.5,1.05,1.02,1.31,1.09,.29,1.61,.05c.22-.1,.4-.27,.54-.46,.08-.12,.14-.24,.19-.38,.02-.06,.04-.12,.06-.18,0,0,.06-.14,.06-.14,.01,.01-.07,.08-.09,.06,0-.01,.2-.03,.06-.02,.12-.01,.23,0,.35,0,.31,.01,.64,0,.91-.17,.52-.31,.66-.92,.52-1.48s-.52-.99-.94-1.36c-1.03-.91-2.3-1.45-3.66-1.6-.31-.03-.58,.29-.58,.58,0,.34,.27,.55,.58,.58,.41,.04,.92,.18,1.35,.35,.39,.15,.85,.42,1.22,.69,.14,.1,.32,.26,.46,.4,.08,.07,.15,.15,.22,.23-.06-.08,.01,.02,.03,.04,.04,.06,.07,.11,.1,.17,0,0,.07,.16,.04,.08s.03,.1,.03,.09c.02,.05,.03,.1,.04,.16,0-.03,0-.1,0,0v.05c0,.07,0,.06,0-.01-.07,.08,.04-.02,.01,0l-.02,.04c.05-.05,.05-.06,0,0,.05-.03,.06-.04,.02-.02-.03,.02-.03,.02,.02,0-.01,0-.18,.04-.07,.02-.04,0-.08,0-.12,0-.1,0-.2,0-.3,0-.27,0-.55,.02-.79,.14-.26,.13-.42,.36-.53,.63-.05,.12-.08,.25-.13,.36,.01-.02,.01-.07-.01,.02-.04,.06-.03,.06,0,0-.02,.02-.04,.05-.07,.07,.02-.02,.1-.05,0,0-.02,.01-.16,.07-.03,.02-.05,.02-.26,.05-.13,.04-.08,0-.17,0-.25,0,.12,.01,.03,0,0,0-.07-.02-.13-.03-.2-.06,.1,.04,.02,0,0,0-.04-.03-.09-.05-.13-.08,.09,.06,0,0-.02-.02-.03-.03-.06-.06-.09-.09,.04,.05-.04-.05-.04-.07-.03-.05-.05-.09-.08-.14-.03-.06-.07-.16-.1-.28-.06-.25-.07-.42-.07-.7s.03-.57,.06-.85c.07-.65,.11-1.29-.08-1.92l-.41,.72,.18-.05c.3-.09,.49-.41,.41-.72s-.41-.5-.72-.41Z" fill="#fff"/></g><g><path d="M15.84,111.22c-.25-.15-.53-.31-.75-.51-.06,.91-.09,1.83,.2,2.69,.31,.95,1.11,1.82,2.11,1.91,.13,.01,.28,0,.38-.09,.1-.09,.11-.24,.1-.38-.02-1.44-.81-2.85-2.04-3.61Z" fill="#fff"/><path d="M16.13,110.72c-.21-.13-.44-.26-.63-.42-.39-.34-.96-.1-1,.41-.06,.95-.09,1.93,.22,2.84,.25,.76,.73,1.44,1.39,1.89s2.05,.82,2.31-.25c.1-.41,.01-.9-.07-1.31s-.23-.79-.41-1.16c-.4-.82-1.04-1.52-1.81-2.01-.64-.4-1.22,.61-.59,1.01,.94,.6,1.62,1.68,1.73,2.76,0,.06,.02,.41,.02,.41,0,0,.06-.09,.06-.09,.04-.03,.22-.05,.14-.08-.02,0-.08,0-.1,0,.06,0-.02,0-.04,0-.3-.05-.46-.13-.7-.31-.04-.03-.17-.15-.25-.23-.1-.1-.16-.18-.22-.27-.18-.26-.28-.47-.36-.74-.24-.79-.2-1.63-.15-2.45l-1,.41c.27,.23,.56,.42,.87,.6,.64,.4,1.23-.61,.59-1.01Z" fill="#fff"/></g><g><path d="M14.75,110.08c.01,.26,.15,.46,.34,.63,0-.1,.01-.2,.02-.3l-.36-.33Z" fill="#fff"/><path d="M14.17,110.08c.01,.23,.07,.44,.18,.64,.05,.09,.12,.18,.19,.26,.04,.05,.09,.1,.14,.14l.12,.09,.14,.06,.16,.02c.08,0,.16-.01,.23-.05,.05-.01,.09-.04,.13-.08,.04-.03,.08-.06,.1-.1,.04-.04,.06-.08,.08-.13,.04-.07,.05-.14,.05-.23v-.17l.02-.09s0-.02,0-.04v-.08c-.01-.08-.04-.15-.08-.22l-.09-.12s-.04-.03-.06-.05l-.24-.22-.07-.06c-.05-.06-.12-.1-.19-.12-.07-.04-.14-.05-.23-.05-.08,0-.16,.01-.23,.05-.07,.02-.14,.06-.19,.12-.1,.11-.18,.26-.17,.41l.02,.16c.03,.1,.08,.18,.15,.26l.36,.33-.17-.41c0,.1-.01,.2-.02,.3l1-.41c-.06-.05-.11-.11-.16-.17l.09,.12c-.05-.06-.09-.13-.12-.2l.06,.14c-.03-.06-.04-.13-.05-.19l.02,.16s0-.04,0-.06c0-.08-.01-.16-.05-.23-.02-.07-.06-.14-.12-.19-.05-.06-.12-.1-.19-.12-.07-.04-.14-.05-.23-.05l-.16,.02c-.1,.03-.18,.08-.26,.15-.1,.11-.18,.26-.17,.41Z" fill="#fff"/></g><g><path d="M11.81,117.9c-.2-1.44-.81-2.82-1.73-3.95l-.34,.02v4.81c-.02,.39,0,.83,.27,1.11,.41,.44,1.21,.24,1.55-.26,.34-.49,.34-1.15,.26-1.74Z" fill="#fff"/><path d="M12.37,117.75c-.14-.97-.46-1.9-.91-2.77-.22-.41-.47-.8-.75-1.17-.17-.23-.32-.44-.64-.44-.11,0-.22,.02-.33,.02-.32,.02-.58,.25-.58,.58v3.16c-.01,.51-.01,1.03-.01,1.54,0,.29,0,.58,.06,.86,.12,.63,.6,1.11,1.24,1.18s1.27-.25,1.62-.77c.4-.59,.43-1.35,.34-2.04-.04-.31-.24-.58-.58-.58-.28,0-.63,.27-.58,.58,.06,.43,.13,.98-.12,1.37-.14,.21-.48,.37-.63,.26-.26-.19-.16-.81-.16-1.13v-4.43l-.57,.58,.34-.02-.41-.17c.86,1.06,1.38,2.35,1.58,3.69,.05,.31,.44,.48,.72,.41,.33-.09,.45-.41,.41-.72Z" fill="#fff"/></g><g><path d="M11.7,123.37c.06,.08,.12,.16,.18,.24v-.07l-.18-.17Z" fill="#fff"/><path d="M11.2,123.66c.06,.08,.12,.16,.18,.24l.09,.12c.05,.06,.12,.1,.19,.12,.05,.03,.09,.04,.15,.04,.08,.02,.16,.01,.23-.01l.14-.06,.12-.09c.06-.05,.1-.12,.12-.19,.04-.07,.05-.14,.05-.23v-.05h0s0-.06-.01-.09c0-.08-.03-.15-.07-.22-.04-.06-.06-.09-.1-.12l-.04-.04-.11-.11-.03-.03c-.05-.06-.12-.1-.19-.12-.07-.04-.14-.05-.23-.05-.08,0-.16,.01-.23,.05-.07,.02-.14,.06-.19,.12l-.09,.12c-.05,.09-.08,.19-.08,.29l.02,.16c.03,.1,.08,.18,.15,.26l.16,.15,.02,.02-.17-.41v.07l1.09-.29c-.06-.08-.12-.16-.18-.24-.04-.07-.09-.12-.15-.16-.06-.05-.12-.09-.2-.1-.08-.02-.16-.03-.23-.01-.08,0-.15,.03-.22,.07l-.12,.09c-.07,.07-.12,.16-.15,.26l-.02,.16c0,.11,.03,.2,.08,.29Z" fill="#fff"/></g><g><path d="M11.88,123.61l-.22,5.05c-.03,.64,.1,1.48,.73,1.57,.44,.06,.82-.34,1.01-.74,.49-1,.4-2.21,0-3.25-.36-.95-.94-1.8-1.53-2.62Z" fill="#fff"/><path d="M11.3,123.61l-.19,4.29c-.03,.72-.12,1.48,.21,2.15s1.13,.97,1.81,.59c.72-.4,1.04-1.29,1.15-2.06,.28-1.98-.78-3.73-1.89-5.27-.18-.26-.51-.38-.8-.21-.25,.15-.4,.54-.21,.8,.82,1.14,1.71,2.4,1.78,3.86,.02,.56-.04,1.39-.5,1.79-.33,.29-.4-.3-.41-.57-.02-.46,.03-.93,.05-1.39l.11-2.39,.07-1.59c.03-.75-1.13-.75-1.17,0Z" fill="#fff"/></g><g><path d="M19.11,126.79s.03,.07,.04,.11c0-.09,0-.19-.01-.28l-.03,.17Z" fill="#fff"/><path d="M18.55,126.95s.03,.07,.04,.11c.02,.08,.05,.14,.1,.2,.04,.06,.1,.11,.16,.15l.14,.06c.08,.02,.16,.03,.23,.01,.05,0,.1-.01,.15-.04,.07-.02,.14-.06,.19-.12l.09-.12c.05-.09,.08-.19,.08-.29,0-.09,0-.19-.01-.28,0-.08-.01-.16-.05-.23-.02-.07-.06-.14-.12-.19l-.12-.09c-.07-.04-.14-.07-.22-.07-.05-.01-.1-.01-.16,0-.08,0-.15,.03-.22,.07l-.12,.09c-.07,.07-.12,.16-.15,.26l-.03,.17c-.02,.08-.03,.16-.01,.23,0,.08,.03,.15,.07,.22,.04,.07,.09,.12,.15,.16,.06,.05,.12,.09,.2,.1l.16,.02c.11,0,.2-.03,.29-.08l.12-.09c.07-.07,.12-.16,.15-.26l.03-.17-1.15-.16c0,.09,0,.19,.01,.28l1.15-.16s-.03-.07-.04-.11c-.02-.08-.05-.14-.1-.2-.04-.06-.1-.11-.16-.15-.07-.04-.14-.07-.22-.07-.08-.02-.16-.01-.23,.01l-.14,.06c-.09,.05-.16,.12-.21,.21l-.06,.14c-.03,.1-.03,.21,0,.31Z" fill="#fff"/></g><g><path d="M23.07,135.17c.17-.14,.18-.39,.17-.61-.11-1.3-1.06-2.34-1.83-3.39-.96-1.29-1.72-2.74-2.24-4.27,.06,1.09-.06,2.19-.08,3.28-.02,1.19,.1,2.42,.69,3.45,.59,1.03,1.75,1.81,2.93,1.66,.13-.02,.27-.05,.37-.13Z" fill="#fff"/><path d="M23.48,135.58c.55-.61,.34-1.51,.06-2.2-.31-.77-.81-1.42-1.3-2.07-1.07-1.39-1.93-2.9-2.51-4.56-.21-.59-1.18-.54-1.15,.16,.1,2.15-.44,4.4,.42,6.45,.35,.85,.93,1.59,1.73,2.06,.73,.44,1.87,.74,2.64,.25,.64-.4,.05-1.41-.59-1.01-.51,.32-1.4-.16-1.79-.49-.6-.5-.95-1.2-1.13-1.94-.43-1.74-.02-3.56-.11-5.33l-1.15,.16c.52,1.48,1.22,2.89,2.13,4.17,.43,.6,.91,1.16,1.3,1.78,.19,.29,.36,.6,.48,.93,.05,.13,.26,.69,.15,.82-.5,.56,.32,1.39,.83,.83Z" fill="#fff"/></g><g><path d="M25.36,145.97c.05-.26-.04-.52-.15-.76-.48-1.11-1.24-2.1-2.18-2.86l-.33,.17c-.2,.8-.35,1.65-.16,2.46,.2,.81,.83,1.56,1.65,1.66,.49,.06,1.07-.19,1.16-.67Z" fill="#fff"/><path d="M25.92,146.12c.12-.86-.41-1.73-.87-2.42s-.98-1.26-1.6-1.76c-.22-.17-.46-.22-.71-.09s-.5,.22-.6,.52c-.14,.42-.2,.9-.25,1.34-.08,.79,.04,1.64,.48,2.32,.41,.64,1.05,1.12,1.83,1.2s1.55-.35,1.73-1.1c.07-.31-.1-.63-.41-.72s-.65,.1-.72,.41c0,.03-.01,.05-.02,.08-.01,.04-.01,.03,0-.02l-.03,.04s.04-.05,.01-.02c-.02,.03-.09,.08-.02,.03-.04,.03-.09,.06-.14,.08,.1-.05-.2,.05-.16,.04,.07-.01-.08,0-.09,0,0,0-.18-.01-.07,0-.1-.01-.2-.04-.29-.08,.09,.03-.07-.04-.08-.04-.04-.02-.09-.05-.13-.08-.02-.01-.11-.08-.05-.03-.05-.04-.09-.08-.13-.12-.04-.04-.07-.07-.1-.11-.02-.02-.04-.05-.06-.07,.02,.03,.02,.03,0,0-.27-.37-.38-.71-.41-1.2-.03-.57,.09-1.12,.22-1.67l-.27,.35,.33-.17-.71-.09c.5,.41,.98,.89,1.34,1.41,.19,.27,.36,.56,.52,.85,.08,.15,.15,.3,.22,.45,.04,.1,.12,.25,.1,.34-.04,.31,.08,.63,.41,.72,.27,.08,.67-.09,.72-.41Z" fill="#fff"/></g><g><path d="M23.84,151.6l-.26-.16c-.17,.98-.26,2.03,.18,2.92s1.58,1.5,2.46,1.03c.2-.77-.09-1.6-.58-2.24-.49-.63-1.15-1.1-1.8-1.56Z" fill="#fff"/><path d="M24.13,151.09l-.26-.16c-.3-.18-.79-.02-.86,.35-.15,.88-.25,1.79-.03,2.66,.2,.78,.68,1.47,1.39,1.86,.35,.19,.73,.31,1.13,.32s1-.09,1.21-.45c.12-.21,.14-.51,.14-.74s-.02-.45-.06-.66c-.08-.42-.26-.83-.49-1.19-.54-.85-1.37-1.44-2.18-2.01-.26-.18-.65-.05-.8,.21-.17,.29-.05,.62,.21,.8,.59,.41,1.2,.84,1.63,1.41,.19,.25,.35,.56,.43,.84,.02,.08,.04,.17,.06,.25,0,.02,.02,.1,0,.03,0,.04,0,.08,.01,.13,.01,.23,0,.29-.04,.48l.27-.35c-.14,.07,.1-.02-.06,.03-.05,.01-.1,.03-.15,.04-.1,.03,.04,0-.02,0-.05,0-.1,0-.15,0-.04,0-.09,0-.13,0,.13,.01-.03,0-.05-.01-.05-.01-.1-.03-.15-.04-.01,0-.15-.05-.08-.03s-.07-.03-.08-.04c-.05-.02-.1-.05-.14-.08s-.09-.06-.14-.09c-.1-.07,.04,.04-.06-.04-.18-.16-.25-.23-.34-.38-.22-.35-.32-.8-.34-1.19-.03-.52,.03-1,.11-1.47l-.86,.35,.26,.16c.27,.16,.64,.06,.8-.21s.06-.63-.21-.8Z" fill="#fff"/></g><g><path d="M60.65,102.45l-.06-.77c-.18,1.01-.35,2.07-.05,3.05,.3,.98,1.23,1.85,2.25,1.72,.32-.04,.67-.22,.76-.53,.09-.31-.08-.64-.27-.9-.7-1.01-1.59-1.89-2.62-2.57Z" fill="#fff"/><path d="M61.24,102.45l-.06-.77c-.02-.29-.2-.54-.51-.57-.26-.03-.59,.13-.64,.42-.17,1-.34,2.01-.14,3.02,.17,.85,.67,1.63,1.4,2.11s1.81,.59,2.48-.03c.89-.82,.04-1.92-.54-2.63-.65-.8-1.43-1.48-2.28-2.05-.26-.17-.65-.05-.8,.21-.17,.29-.05,.62,.21,.8,.57,.38,1.1,.82,1.57,1.33,.22,.24,.44,.48,.63,.74,.14,.18,.45,.52,.42,.75,0-.05,.04-.03-.02,.01,.05-.04-.12,.07-.09,.05-.1,.05-.18,.05-.3,.05-.23,0-.45-.07-.68-.22-.46-.29-.75-.8-.87-1.34-.18-.81-.02-1.68,.12-2.48l-1.15-.16,.06,.77c.03,.31,.25,.58,.58,.58,.3,0,.61-.27,.58-.58Z" fill="#fff"/></g><g><path d="M80.67,98.99c.19-.46,.11-.98,.02-1.47-.29-1.59-.67-3.23-1.7-4.48v-.31c-.01,1.83-.02,3.66-.03,5.49,0,.52,.06,1.14,.52,1.36,.45,.22,1-.13,1.19-.6Z" fill="#fff"/><path d="M81.23,99.14c.21-.58,.12-1.19,.02-1.78-.1-.56-.21-1.12-.36-1.66-.3-1.12-.76-2.17-1.49-3.07l.17,.41v-.31c-.02-.75-1.17-.75-1.17,0,0,1.87-.07,3.75-.02,5.62,.02,.69,.19,1.46,.88,1.77,.74,.33,1.6-.13,1.92-.83,.13-.29,.08-.63-.21-.8-.25-.15-.67-.08-.8,.21-.12,.27-.42,.56-.56,.16-.07-.2-.07-.43-.07-.64,0-.38,0-.76,0-1.14,0-1.45,.01-2.9,.02-4.35h-1.17c0,.15-.01,.32,.03,.46,.07,.27,.37,.54,.51,.78,.29,.47,.5,.97,.67,1.49s.3,1.09,.41,1.65,.29,1.16,.09,1.72c-.25,.71,.88,1.01,1.13,.31Z" fill="#fff"/></g><g><path d="M82.23,110.53c.13-.67-.3-1.32-.72-1.87l-1.3-1.75-.42,.25c-.02,.89-.03,1.78-.05,2.67,0,.3,0,.6,.09,.88,.18,.51,.73,.87,1.27,.82,.54-.04,1.03-.48,1.13-1.01Z" fill="#fff"/><path d="M82.8,110.69c.17-1.07-.45-1.88-1.05-2.69l-1.03-1.38c-.19-.25-.5-.38-.8-.21-.14,.08-.28,.16-.42,.25-.43,.28-.3,.97-.31,1.43s-.02,.92-.02,1.38-.05,.93,.09,1.37c.24,.76,1,1.33,1.81,1.29s1.55-.64,1.72-1.44c.07-.31-.09-.63-.41-.72-.29-.08-.65,.1-.72,.41-.04,.2-.09,.28-.22,.41-.05,.05-.1,.08-.2,.13,.05-.02-.03,0-.04,.01,0,0-.18,.04-.1,.03-.3,.03-.59-.14-.71-.41-.07-.16-.07-.43-.07-.64,0-.3,.01-.61,.02-.91l.03-1.84-.29,.5,.42-.25-.8-.21,.96,1.29c.12,.15,.23,.31,.35,.46,.28,.38,.74,.92,.66,1.42-.05,.31,.08,.63,.41,.72,.28,.08,.67-.09,.72-.41Z" fill="#fff"/></g><g><path d="M100.8,91.54c-.61,.63-.6,1.66-1.13,2.35-.2,.26-.46,.46-.65,.71-.7,.94-.08,2.52,1.07,2.73,.4,.08,.89-.04,1.08-.4,.1-.2,.1-.43,.09-.66-.04-1.56-.07-3.12-.11-4.68l-.35-.06Z" fill="#fff"/><path d="M100.39,91.12c-.36,.39-.56,.87-.73,1.37-.14,.41-.25,.84-.56,1.17-.35,.38-.7,.7-.86,1.21-.14,.41-.13,.89-.02,1.3,.21,.81,.86,1.56,1.71,1.73,.51,.1,1.09,.02,1.48-.35,.46-.43,.43-1.03,.42-1.61-.03-1.45-.07-2.89-.1-4.34,0-.24-.18-.52-.43-.56l-.35-.06c-.31-.06-.63,.08-.72,.41-.08,.28,.1,.66,.41,.72l.35,.06-.43-.56,.07,3.14c.01,.51,.03,1.03,.04,1.54,0,.32,0,.5-.35,.5-.53,0-.85-.48-.98-.95-.06-.22-.05-.48,.05-.71,.02-.04,.13-.2,.2-.28,.16-.18,.34-.34,.5-.53,.3-.37,.47-.81,.62-1.26,.13-.38,.23-.8,.51-1.1,.51-.55-.31-1.38-.83-.83Z" fill="#fff"/></g><g><path d="M122.27,80.9c-.01,1.22-.02,2.45-.03,3.67,0,.41,.02,.88,.33,1.15,.33,.28,.87,.19,1.18-.11s.44-.75,.47-1.18c.09-1.22-.53-2.47-1.55-3.15l-.4-.39Z" fill="#fff"/><path d="M121.69,80.9c0,1.1-.02,2.19-.03,3.29,0,.48-.03,.98,.15,1.43,.2,.49,.63,.81,1.16,.85,1.09,.08,1.71-.94,1.82-1.89,.1-.87-.14-1.79-.6-2.53-.28-.45-.63-.82-1.05-1.14-.04-.03-.08-.06-.12-.08,.1,.07,.06,.05,.03,.02-.04-.05-.09-.09-.14-.13l-.23-.23c-.54-.53-1.36,.3-.83,.83,.12,.12,.23,.24,.36,.35,.21,.2,.44,.33,.64,.55,.42,.45,.7,1.07,.77,1.65,.04,.34,.03,.64-.07,.96-.03,.11-.09,.22-.15,.31-.08,.09-.17,.15-.27,.17-.06,.01-.06,.02-.09,.01,.05,.01-.17-.05-.08-.02-.03,0-.05-.06-.04-.03,0,.01,.02,.04-.01-.01-.05-.08-.04-.08-.07-.17-.07-.29-.03-.73-.03-1.07,0-1.03,.02-2.07,.03-3.1,0-.75-1.16-.75-1.17,0Z" fill="#fff"/></g><g><path d="M63.4,90.29v2.76c.01,.53,.01,1.06,.19,1.56,.18,.49,.57,.94,1.09,1.04,.83,.16,1.59-.68,1.65-1.53,.06-.85-.35-1.65-.78-2.38-.32-.55-.66-1.09-1.02-1.62,1.67-.59,2.67-2.57,3.33-4.31,.45-1.17,.89-2.37,1.02-3.62,.12-1.17-.04-2.35,.08-3.52,.15-1.57,.78-3.04,1.12-4.58,.63-2.86,.25-5.84-.13-8.74-.29-2.19-.59-4.42-1.54-6.41-.81-1.7-2.08-3.18-2.67-4.98-1.03-3.13,.15-6.79-1.34-9.73-.9-1.77-2.63-2.96-4.43-3.79-.55-.25-1.14-.5-1.51-.99-.51-.68-.43-1.61-.7-2.41-.72-2.14-3.59-2.64-5.79-2.13-2.69,.63-5.08,2.19-7.1,4.08-.89,.83-1.75,1.82-1.9,3.02-.15,1.21,.77,2.6,1.98,2.49v.4c-.83,3.4-1.59,6.85-1.6,10.35,0,3.5,.8,7.09,2.87,9.91,.73,.99,1.61,1.89,2.09,3.02,.9,2.1,.26,4.58,1.01,6.73,.98,2.86,4.18,4.61,4.86,7.55,.39,1.68-.04,3.72,1.19,4.93,.51,.5,1.2,.75,1.88,.98l4.13,1.42c.66,.23,1.34,.45,2.02,.48Zm-3.03-7.77c-1.42-.7-1.95-2.41-2.5-3.9-.77-2.12-1.85-4.12-3.19-5.93-.76-1.02-1.61-2.01-2.03-3.21-.63-1.81-.19-3.87-.86-5.67-.76-2.05-2.83-3.42-3.51-5.5-.48-1.45-.21-3.02,.06-4.52l2.21-12.23-.07-.24c1.64,1.9,4.92,1.28,6.79,2.94,1.45,1.29,1.56,3.46,1.76,5.39,.45,4.27,1.87,8.44,4.13,12.09,.73,1.18,1.55,2.33,1.92,3.66,1.43,5.07-4.1,9.93-3.36,15.15,.12,.81,.18,1.97-.63,2.13-.25,.05-.5-.03-.72-.14Z" fill="#fff"/><g><path d="M62.81,90.29c0,1.58-.57,6.61,2.47,5.9,.93-.22,1.56-1.15,1.63-2.07,.12-1.56-1.08-3.07-1.88-4.3l-.35,.86c2.44-1.01,3.46-3.72,4.23-6.05,.46-1.39,.61-2.74,.6-4.2-.01-1.91,.43-3.53,.93-5.35,.87-3.22,.53-6.47,.1-9.73s-1.05-5.91-2.72-8.64c-.8-1.3-1.54-2.58-1.8-4.1-.29-1.73-.1-3.5-.25-5.24-.22-2.68-1.33-4.79-3.55-6.33-1.17-.81-3.19-1.22-3.6-2.71-.3-1.09-.37-2.08-1.24-2.9-1.66-1.57-4.34-1.47-6.37-.85-2.85,.88-5.93,2.85-7.71,5.28-.75,1.03-1.2,2.29-.72,3.53,.4,1.02,1.26,1.7,2.37,1.71l-.58-.58c0,.93-.38,1.9-.58,2.8-.29,1.32-.54,2.65-.73,3.99-.3,2.22-.41,4.46-.13,6.68,.25,1.98,.77,3.92,1.69,5.7,1.04,2.02,3.04,3.59,3.48,5.88,.4,2.05,0,4.17,.89,6.12,.7,1.55,1.94,2.74,3,4.05,.6,.73,1.17,1.52,1.48,2.42,.34,1.01,.29,2.09,.42,3.14,.2,1.62,.92,2.75,2.45,3.39,1.02,.43,2.11,.74,3.15,1.1,1.28,.44,2.55,.97,3.9,1.09,.75,.07,.74-1.1,0-1.17-1.97-.18-4.09-1.2-5.94-1.85-.75-.27-1.56-.53-2-1.26-.51-.84-.45-1.95-.53-2.89-.13-1.58-.64-2.88-1.59-4.15s-2.23-2.43-3.03-3.86c-1.04-1.87-.69-3.99-1-6.02s-1.54-3.34-2.7-4.96c-1.23-1.73-1.97-3.75-2.36-5.83-.47-2.55-.36-5.18,.01-7.73,.2-1.34,.47-2.67,.77-3.99,.2-.87,.52-1.75,.51-2.65,0-.32-.27-.58-.58-.58-2.09-.02-1.31-2.67-.52-3.63,.83-1.01,1.92-1.88,2.99-2.63,1.92-1.34,4.35-2.55,6.76-2.33,1,.09,2.09,.43,2.7,1.28s.43,2.05,.98,2.98c.48,.81,1.35,1.11,2.15,1.51,1.12,.55,2.2,1.23,3.04,2.18,1.83,2.07,1.55,4.84,1.64,7.41,.08,2.43,.75,4.36,2.02,6.42,1.46,2.39,2.18,4.74,2.57,7.5s.83,5.67,.4,8.48c-.23,1.49-.79,2.89-1.1,4.36-.29,1.36-.18,2.7-.23,4.07-.06,1.64-.65,3.22-1.28,4.72-.56,1.3-1.31,2.74-2.68,3.31-.33,.14-.58,.51-.35,.86,.48,.73,3.03,4.8,.77,4.31-.72-.16-.69-.3-.78-.97-.05-.39-.03-.78-.03-1.17,0-.77,0-1.53,0-2.3s-1.17-.75-1.17,0Z" fill="#fff"/><path d="M60.66,82.02c-1.69-.96-2.04-3.21-2.76-4.86-.85-1.96-1.96-3.73-3.24-5.43-.65-.87-1.29-1.75-1.58-2.82-.33-1.24-.22-2.55-.4-3.81-.25-1.78-1.17-3.07-2.27-4.43-.61-.76-1.27-1.56-1.58-2.5-.45-1.37-.18-2.83,.06-4.21,.08-.42,.15-.85,.23-1.27l1.2-6.65,.6-3.33c.09-.52,.26-1.02,.1-1.53l-.98,.57c1.18,1.24,2.8,1.5,4.39,1.9,.96,.24,1.97,.54,2.66,1.3,.8,.87,1.03,2.12,1.18,3.25,.57,4.35,1.39,8.4,3.48,12.32,1.06,1.99,2.8,3.88,2.95,6.22,.12,1.83-.57,3.61-1.28,5.25s-1.55,3.3-2.01,5.06c-.21,.81-.36,1.66-.36,2.5,0,.49,.56,2.85-.55,2.44-.71-.26-1.01,.87-.31,1.13,1.15,.43,2.01-.18,2.14-1.38,.08-.73-.12-1.46-.12-2.19,0-.86,.17-1.7,.41-2.52,.91-3.09,2.92-5.88,3.21-9.15,.34-3.71-2.54-6.56-3.97-9.75-.92-2.05-1.58-4.21-1.99-6.42-.33-1.8-.29-3.72-.83-5.48-.46-1.52-1.41-2.66-2.9-3.26-1.74-.71-3.92-.61-5.3-2.04-.4-.42-1.15,.01-.98,.57,.06,.19,.07-.23,.03,.19-.04,.34-.12,.68-.18,1.01l-.57,3.15-1.23,6.83c-.47,2.62-.96,5.2,.66,7.54,1.34,1.94,2.79,3.28,3,5.77,.19,2.21,.33,3.97,1.67,5.83,1.51,2.11,2.93,4.15,3.88,6.59,.68,1.74,1.18,3.65,2.92,4.64,.65,.37,1.24-.64,.59-1.01Z" fill="#fff"/></g></g><g><path d="M71.12,38.16c.15,1.16,.86,2.16,1.37,3.21,2.97,6.09-.51,13.51,1.12,20.09,.7,2.82,2.31,5.35,3,8.16,.51,2.07,.5,4.23,.64,6.36,.23,3.5,.86,6.98,1.88,10.34,.17,.57,.37,1.16,.8,1.58,.43,.42,1.16,.58,1.63,.22,.23-.18,.36-.46,.46-.74,.81-2.34-.48-4.81-1.09-7.21-.56-2.23-.52-4.56-.65-6.86-.19-3.32-.73-6.6-1.28-9.88-.55-3.3-1.1-6.6-1.65-9.9,3.24,1.45,5.68,4.28,7.57,7.29,1.89,3.01,3.34,6.29,5.27,9.27,2.74,4.25,6.45,7.94,8.3,12.65,.18,.47,.38,.98,.83,1.22,.88,.46,1.81-.51,2.27-1.38,1.96-3.71,2.68-8.07,2.02-12.22-.51-3.18-1.79-6.18-2.51-9.32-1.2-5.29-.74-10.8-1.01-16.21-.29-5.73-1.41-11.41-3.33-16.81-.5-1.4-1.13-2.89-2.43-3.63-.26-.15-.56-.26-.85-.2-.4,.08-.67,.45-.87,.81-1.56,2.87-1.03,6.41-.09,9.54,.94,3.13,2.27,6.24,2.18,9.51-.06,2.07-.68,4.14-.33,6.18,.31,1.78,1.34,3.36,1.72,5.13,.31,1.41,.19,2.89,.41,4.32,.3,1.9,1.18,3.65,1.77,5.49,.59,1.83,.86,3.92-.04,5.62-.1,.19-.23,.39-.44,.47-.33,.12-.68-.12-.94-.35-3.47-3.08-5.19-7.6-7.31-11.71-3.53-6.84-8.49-12.98-10.95-20.27l.08,.29c-.45-1.37-.9-2.74-1.34-4.11-.42-1.29-.89-2.65-1.96-3.49-1.06-.84-2.91-.82-3.54,.38-.6,1.15,.21,2.5,.99,3.54-1.17,.07-1.85,1.47-1.7,2.63Z" fill="#fff"/><path d="M70.55,38.31c.23,1.24,.89,2.24,1.43,3.35,.7,1.47,1.03,3.07,1.13,4.69,.18,2.87-.28,5.74-.47,8.6s-.06,5.63,.91,8.32c1.1,3.04,2.58,5.77,2.89,9.05s.37,6.35,.97,9.5c.3,1.56,.66,3.13,1.15,4.64,.3,.94,.71,1.95,1.72,2.31,2.4,.86,2.7-2.56,2.49-4.08s-.78-2.84-1.17-4.27c-.47-1.73-.58-3.5-.66-5.29-.31-7.33-1.83-14.56-3.04-21.77l-.86,.66c6.2,2.9,8.61,9.66,11.9,15.17,1.61,2.71,3.62,5.13,5.47,7.68,.82,1.13,1.61,2.29,2.3,3.51,.46,.81,.85,1.65,1.21,2.5,.19,.46,.36,.96,.74,1.3,1.97,1.82,3.66-1.67,4.23-3.04,1.18-2.85,1.7-5.99,1.49-9.07-.22-3.26-1.38-6.3-2.26-9.42-.99-3.48-1.25-7.04-1.31-10.64s-.03-7.12-.42-10.67c-.37-3.36-1.01-6.7-1.94-9.95-.67-2.35-1.34-5.82-3.52-7.32-2.36-1.62-3.47,1.56-3.76,3.42-.46,2.88,.31,5.76,1.19,8.47,1.08,3.34,2.02,6.43,1.59,9.98-.19,1.62-.43,3.22-.06,4.83,.35,1.49,1.14,2.84,1.54,4.32s.26,3.16,.51,4.72,.93,3.11,1.48,4.65c.36,1.01,.7,2.05,.79,3.13,.06,.66,.16,2.48-.47,2.88-.82,.52-2.97-2.8-3.41-3.48-1.84-2.81-3.1-5.94-4.68-8.89-3.47-6.47-8.07-12.36-10.49-19.36-.24-.7-1.32-.42-1.13,.31l.08,.29,1.13-.31c-.61-1.88-1.12-3.84-1.91-5.65-.58-1.34-1.5-2.57-3-2.88-1.08-.22-2.31,.08-2.92,1.06-.9,1.43,.05,3.07,.91,4.25l.35-.86c-1.52,.25-2.22,1.77-2.13,3.19,.05,.75,1.22,.75,1.17,0-.06-.92,.24-1.89,1.27-2.06,.35-.06,.56-.57,.35-.86-.66-.9-1.99-2.91-.29-3.53,1.02-.38,2.03,.26,2.61,1.06,1.32,1.81,1.77,4.5,2.46,6.6,.23,.71,1.32,.42,1.13-.31l-.08-.29-1.13,.31c2.02,5.85,5.52,10.95,8.66,16.23,1.51,2.53,2.82,5.13,4.12,7.77,1.19,2.41,2.47,4.81,4.25,6.85,.58,.67,1.45,1.85,2.41,1.94,1.1,.1,1.56-1.2,1.76-2.06,.68-2.85-.72-5.52-1.61-8.14-.52-1.53-.62-2.99-.73-4.59s-.48-2.83-1.05-4.24c-.64-1.59-1.08-2.99-.97-4.74s.5-3.42,.38-5.16c-.2-3.11-1.45-5.98-2.29-8.95-.4-1.41-.71-2.85-.76-4.32-.02-.76,.01-1.51,.16-2.26,.12-.62,.42-2.22,1.01-2.52,2.18-1.09,4,6.96,4.31,8.16,.84,3.25,1.41,6.57,1.69,9.92,.55,6.61-.25,13.31,1.55,19.78,.9,3.23,2.15,6.38,2.31,9.76,.15,3.21-.5,6.5-1.96,9.38-.49,.97-1.38,2.26-2.23,.69-.35-.65-.58-1.38-.93-2.05-.74-1.43-1.63-2.77-2.57-4.08-1.97-2.74-4.12-5.33-5.82-8.25-3.26-5.59-5.84-12.27-12.08-15.19-.48-.23-.94,.14-.86,.66,.99,5.96,2.25,11.94,2.79,17.96,.25,2.73,.1,5.53,.69,8.23,.28,1.31,.79,2.56,1.12,3.86,.17,.64,.31,1.3,.31,1.97,0,.4,.04,.96-.18,1.31-.6,.97-1.27,.49-1.6-.24-.57-1.25-.83-2.74-1.13-4.08-.35-1.59-.62-3.19-.79-4.8-.3-2.8-.15-5.67-.83-8.42-.62-2.55-1.99-4.83-2.77-7.33s-.74-5.32-.53-8.01c.22-2.84,.64-5.71,.34-8.57-.13-1.23-.38-2.45-.84-3.61-.53-1.34-1.43-2.51-1.69-3.95-.14-.74-1.26-.43-1.13,.31Z" fill="#fff"/></g><g><path d="M125.02,26.06c-.03,.05-.07,.1-.1,.15-.01,.14-.03,.27-.06,.41l.16-.56Z" fill="#fff"/><path d="M124.52,25.77s-.03,.05-.05,.08l-.03,.04v.02h-.02c-.04,.08-.07,.15-.07,.23-.01,.09-.02,.18-.03,.27l.02-.16c0,.07-.02,.14-.04,.21-.02,.08-.03,.16-.01,.23,0,.08,.03,.15,.07,.22,.04,.07,.09,.12,.15,.16,.06,.05,.12,.09,.2,.1l.16,.02c.11,0,.2-.03,.29-.08l.12-.09c.07-.07,.12-.16,.15-.26l.14-.49,.02-.07c.02-.08,.03-.16,.01-.23,0-.08-.03-.15-.07-.22-.04-.07-.09-.12-.15-.16-.06-.05-.12-.09-.2-.1l-.16-.02c-.11,0-.2,.03-.29,.08l-.12,.09c-.07,.07-.12,.16-.15,.26l-.14,.49-.02,.07,1.13,.31c.04-.18,.06-.37,.08-.56l-.08,.29c.03-.05,.07-.1,.1-.15,.04-.07,.07-.14,.07-.22,.02-.08,.01-.16-.01-.23-.02-.08-.05-.14-.1-.2-.04-.06-.1-.11-.16-.15l-.14-.06c-.1-.03-.21-.03-.31,0l-.14,.06c-.09,.05-.16,.12-.21,.21Z" fill="#fff"/></g><g><path d="M106.13,36.89c1.73,3.02,1.19,6.94,2.89,9.98,1.66,2.97,5.05,4.45,8.19,5.77,3.14,1.33,6.5,2.94,7.96,6.02,1.62,3.42,.29,7.56-1.81,10.71-.3,.46-.63,.92-1.08,1.23-.61,.42-1.37,.55-2.11,.58-2.64,.1-5.3-.94-7.17-2.79-.83-.82-1.52-1.8-2.44-2.52-.92-.72-2.2-1.15-3.27-.67-.15,.07-.3,.16-.34,.32-.04,.14,.02,.29,.09,.42,1.8,3.78,4.88,6.95,8.61,8.86,1.19,.61,2.48,1.12,3.36,2.12,.39,.44,.72,.99,1.28,1.19,.52,.18,1.09,0,1.6-.18,2.17-.76,4.48-1.63,5.76-3.54,.99-1.48,1.52-3.66,3.28-3.96,.54-.09,1.12,.04,1.63-.15,.8-.29,1.16-1.21,1.39-2.03,1.38-5.06,1.31-10.5-.21-15.52-.34-1.13-.77-2.26-1.56-3.14-.84-.94-2.02-1.51-3.16-2.05-4.69-2.22-9.39-4.45-14.08-6.67-.84-.4-1.7-.81-2.3-1.51-.99-1.15-1.08-2.88-.57-4.31s1.54-2.62,2.6-3.7c.82-.84,1.71-1.66,2.79-2.11,1.08-.46,2.4-.5,3.37,.17,.28,.19,.54,.45,.87,.49,.53,.07,.97-.39,1.29-.82,.69-.92,1.34-1.87,1.94-2.85,.12-1.47-.85-2.92-2.1-3.75-3.09-2.07-7.27-1.18-10.66,.34-2.41,1.08-4.76,2.51-6.31,4.65-1.55,2.14-2.15,5.12-.94,7.47,.35,.69,.84,1.29,1.22,1.96Z" fill="#fff"/><path d="M105.63,37.18c1.65,3.05,1.18,6.74,2.8,9.81,1.4,2.67,4.14,4.23,6.8,5.43,2.81,1.27,5.95,2.3,8.11,4.61,2.77,2.96,2.21,7.13,.46,10.47-.43,.82-.92,1.82-1.62,2.44-.8,.71-2,.73-3.01,.65-1.88-.14-3.73-.86-5.18-2.07-1.24-1.03-2.09-2.49-3.46-3.37-.98-.63-2.58-1.1-3.65-.38-.99,.68-.27,1.71,.18,2.52,.79,1.41,1.76,2.74,2.86,3.92s2.26,2.15,3.56,3.01c1.46,.97,3.23,1.52,4.58,2.63,1.06,.87,1.59,2.14,3.18,1.87,1.39-.24,2.92-.95,4.15-1.63s2.28-1.6,3.01-2.82,1.25-3.15,2.93-3.3c1.36-.12,2.24-.31,2.85-1.65,.69-1.5,.91-3.31,1.11-4.93,.47-3.79,.18-7.7-.87-11.37-.41-1.43-.92-2.89-1.97-3.98-1.15-1.2-2.77-1.83-4.24-2.52-3.74-1.77-7.48-3.54-11.22-5.32-1.67-.79-4.05-1.48-4.54-3.49s.75-3.92,2.06-5.35,3.04-3.27,5.1-2.84c1.27,.26,2.01,1.56,3.29,.5,.49-.41,.86-1.02,1.22-1.53,.43-.62,1.2-1.45,1.38-2.2,.29-1.21-.6-2.68-1.39-3.51-2.16-2.25-5.59-2.41-8.45-1.78-5.52,1.23-12.9,5.59-11.89,12.23,.23,1.53,1.08,2.65,1.86,3.95,.39,.64,1.4,.06,1.01-.59-.9-1.48-1.81-2.72-1.78-4.55s.77-3.47,1.9-4.8c2.04-2.41,5.23-4,8.22-4.86s7.55-1.02,9.08,2.35c.51,1.13,.05,1.72-.58,2.64-.47,.7-1.03,1.99-2.09,1.73-.23-.06-.52-.35-.75-.46-.36-.17-.72-.25-1.11-.3-.62-.07-1.27,0-1.86,.19-2.47,.78-4.93,3.53-5.95,5.84-1.17,2.64-.35,5.31,2.21,6.66,3.24,1.71,6.64,3.16,9.95,4.73,1.61,.76,3.23,1.52,4.84,2.29s3,1.51,3.81,3.14c1.57,3.16,1.92,7.2,1.8,10.67-.06,1.8-.3,3.58-.72,5.33-.18,.75-.35,1.99-1.07,2.44-.63,.4-1.63,.1-2.35,.41-.96,.41-1.54,1.31-2.03,2.19-.8,1.44-1.45,2.68-2.9,3.58-1.09,.68-2.65,1.5-3.94,1.69s-1.46-.57-2.2-1.27c-.62-.59-1.37-1-2.12-1.39-2.81-1.43-5.31-3.14-7.29-5.64-.54-.68-1.02-1.4-1.46-2.15-.33-.57-1.08-1.51,.13-1.45,1.88,.09,2.98,2.03,4.18,3.21,1.99,1.95,4.79,3.08,7.58,2.96,3.1-.13,4.48-2.91,5.47-5.53,1.14-2.99,1.24-6.42-.7-9.1-1.79-2.49-4.69-3.83-7.43-5-2.89-1.24-6.21-2.56-7.88-5.41-1.82-3.09-1.27-6.97-2.98-10.14-.36-.66-1.37-.07-1.01,.59Z" fill="#fff"/></g><g><path d="M122.7,37.21c-.03,.22-.05,.45,.06,.64,.1,.16,.28,.25,.46,.3,.99,.25,1.94-.74,2.05-1.75,.12-1.01-.34-1.99-.78-2.91l-.93-1.93c.08,.65,.04,1.32-.07,1.96-.2,1.24-.62,2.44-.8,3.69Z" fill="#fff"/><path d="M122.11,37.21c-.07,.52,.08,1.05,.55,1.33,.39,.23,.89,.27,1.33,.17,.86-.2,1.51-.98,1.77-1.79,.47-1.52-.44-3.06-1.09-4.4l-.61-1.26c-.24-.51-1.15-.28-1.09,.29,.2,1.89-.57,3.66-.85,5.5-.05,.31,.08,.63,.41,.72,.28,.08,.67-.09,.72-.41,.29-1.94,1.1-3.81,.89-5.81l-1.09,.29c.38,.78,.77,1.56,1.14,2.36s.76,1.78,.36,2.6c-.15,.3-.39,.59-.7,.72-.15,.06-.32,.09-.47,.05,0,0-.14-.06-.11-.03-.05-.06,0-.27,.02-.34,.04-.31-.3-.58-.58-.58-.35,0-.54,.27-.58,.58Z" fill="#fff"/></g><g><path d="M122.67,29.7c.3,.62,.6,1.24,.9,1.86-.07-.6-.24-1.18-.55-1.7l-.34-.16Z" fill="#fff"/><path d="M122.16,29.99c.3,.62,.6,1.24,.9,1.86,.11,.22,.43,.34,.66,.27,.1-.03,.18-.08,.26-.15,.1-.09,.19-.28,.17-.41-.07-.58-.2-1.12-.45-1.65-.1-.22-.22-.48-.45-.58l-.29-.13c-.15-.07-.29-.1-.45-.06-.14,.04-.28,.14-.35,.27-.14,.26-.09,.66,.21,.8l.34,.16-.21-.21c.09,.15,.17,.31,.24,.47l-.06-.14c.15,.36,.25,.74,.3,1.13l-.02-.16s0,.07,.01,.1l1.09-.29c-.3-.62-.6-1.24-.9-1.86-.06-.13-.22-.23-.35-.27-.14-.04-.33-.02-.45,.06-.28,.18-.35,.5-.21,.8Z" fill="#fff"/></g><g><path d="M117.11,57.75c.11-.56-.09-1.12-.29-1.65-.43-1.18-.87-2.37-1.3-3.55l-.18-.67-.21,4.98c-.03,.72,.09,1.65,.79,1.82,.55,.13,1.09-.38,1.19-.94Z" fill="#fff"/><path d="M117.68,57.9c.1-.65-.03-1.24-.24-1.85s-.46-1.26-.69-1.89c-.3-.81-.6-1.61-.83-2.44-.18-.65-1.12-.5-1.15,.16l-.13,3.13-.07,1.65c-.03,.63-.02,1.31,.3,1.88,.31,.54,.91,.86,1.53,.72,.65-.14,1.14-.72,1.28-1.35,.17-.73-.95-1.04-1.13-.31-.05,.22-.27,.65-.55,.5-.23-.12-.26-.56-.28-.8-.02-.32,0-.65,.02-.97l.15-3.45,.04-.99-1.15,.16c.21,.75,.47,1.46,.74,2.19l.65,1.78c.18,.49,.46,1.06,.38,1.59-.05,.31,.08,.63,.41,.72,.28,.08,.67-.09,.72-.41Z" fill="#fff"/></g><g><path d="M143.67,82.35c.06,.07,.1,.14,.16,.21-.01-.12-.02-.24-.05-.36l-.11,.15Z" fill="#fff"/><path d="M143.26,82.76l.03,.03-.09-.12c.05,.06,.09,.12,.13,.18l.09,.12c.05,.06,.12,.1,.19,.12,.05,.03,.09,.04,.15,.04,.08,.02,.16,.01,.23-.01l.14-.06,.12-.09c.06-.05,.1-.12,.12-.19,.04-.07,.05-.14,.05-.23-.02-.17-.03-.34-.07-.52l-.06-.14-.09-.12-.12-.09c-.07-.04-.14-.07-.22-.07-.05-.01-.1-.01-.16,0-.05,0-.1,.01-.15,.04-.05,.01-.09,.04-.13,.08-.06,.04-.11,.1-.15,.16l-.11,.15c-.04,.07-.07,.14-.07,.22-.02,.08-.01,.16,.01,.23,.02,.08,.05,.14,.1,.2,.04,.06,.1,.11,.16,.15l.14,.06c.1,.03,.21,.03,.31,0l.14-.06c.09-.05,.16-.12,.21-.21l.11-.15-1.07-.14s.01,.07,.02,.1l-.02-.16c.01,.09,.02,.17,.03,.26l1.09-.29c-.08-.11-.16-.22-.25-.33-.05-.06-.12-.1-.19-.12-.07-.04-.14-.05-.23-.05-.08,0-.16,.01-.23,.05-.07,.02-.14,.06-.19,.12l-.09,.12c-.05,.09-.08,.19-.08,.29l.02,.16c.03,.1,.08,.18,.15,.26Z" fill="#fff"/></g><g><path d="M143.21,89.48c.17,.56,.66,1.06,1.25,1.06,.51,0,.96-.38,1.18-.84,.22-.46,.24-.98,.23-1.49-.07-2.03-.8-4.03-2.04-5.65,.21,1.72-.3,3.47-.61,5.19-.1,.57-.18,1.18,0,1.73Z" fill="#fff"/><path d="M142.65,89.64c.32,.93,1.21,1.71,2.25,1.42,1.13-.31,1.55-1.51,1.55-2.57,.02-2.22-.79-4.46-2.12-6.22-.16-.21-.39-.34-.66-.27-.23,.06-.46,.31-.43,.56,.13,1.2-.06,2.38-.29,3.55s-.61,2.37-.3,3.52c.2,.72,1.32,.42,1.13-.31-.15-.55-.05-1.1,.05-1.64s.23-1.13,.34-1.7c.21-1.13,.37-2.27,.25-3.42l-1.09,.29c.98,1.3,1.65,2.81,1.88,4.43,.1,.68,.25,1.66-.15,2.28s-1.05,.4-1.27-.24c-.24-.71-1.37-.4-1.13,.31Z" fill="#fff"/></g><g><path d="M155.22,34.28l-.29,.12c-.27,.58-.18,1.32,.24,1.81,.42,.49,1.13,.71,1.75,.53,.08-.63,.15-1.3-.13-1.87-.28-.57-1.05-.95-1.57-.59Z" fill="#fff"/><path d="M155.07,33.72l-.22,.09-.07,.03c-.14,.06-.27,.13-.35,.27-.04,.07-.07,.15-.1,.22-.15,.39-.16,.81-.09,1.22,.13,.81,.75,1.45,1.51,1.72,.42,.15,.9,.15,1.33,.04,.27-.07,.4-.3,.43-.56,.1-.86,.14-1.79-.44-2.51-.49-.61-1.45-.92-2.14-.46-.26,.17-.39,.52-.21,.8,.16,.25,.53,.39,.8,.21,.03-.02,.05-.03,.08-.05,.09-.06-.12,.04-.03,.01,.03,0,.06-.02,.09-.02,.11-.03-.14,0-.03,0,.03,0,.06,0,.09,0,.07,0,.1,.04-.03,0,.06,.02,.12,.03,.18,.05,.02,0,.03,.01,.05,.02,.04,.02,.02,0-.07-.03,.02,.02,.06,.03,.09,.04,.03,.02,.06,.03,.08,.05,.04,.02,.11,.09-.01-.01,.05,.04,.1,.09,.15,.13,.02,.02,.04,.05,.07,.07-.1-.1-.04-.06-.01-.01,.02,.03,.11,.15,.1,.18l-.03-.06s.02,.05,.03,.08c.01,.04,.03,.08,.04,.12,.02,.06,.07,.18,.05,.24v-.07s0,.06,0,.08c0,.04,0,.08,0,.13,.01,.34-.02,.68-.07,1.02l.43-.56s-.07,.02-.11,.03c-.02,0-.05,0-.07,.01h.08c-.06-.02-.15,0-.22,0-.04,0-.07,0-.11,0-.05,0-.13-.04,.01,0-.07-.02-.14-.03-.21-.05-.03-.01-.07-.02-.1-.03-.05-.02-.11-.07,0,0-.06-.04-.13-.06-.19-.1-.03-.02-.06-.04-.09-.06-.11-.07,.1,.09,0,0-.05-.05-.11-.1-.16-.15l-.02-.03s-.03-.04,.02,.03l-.06-.09s-.1-.2-.11-.2c.02,0,.05,.14,0,0-.01-.03-.02-.07-.03-.11s-.02-.07-.03-.11c0-.03,0-.09-.02-.11v.08s0-.05,0-.07c0-.04,0-.07,0-.11,0-.07,0-.14,.01-.2,0-.06-.03,.14,0,0,0-.04,.02-.07,.03-.11s.02-.07,.03-.11c.05-.14-.04,.09,0-.02l-.35,.27,.29-.12c.15-.06,.27-.13,.35-.27,.07-.13,.1-.31,.06-.45-.09-.27-.42-.53-.72-.41Z" fill="#fff"/></g><g><path d="M134.28,24.51c2.28,.02,4.56,.05,6.83,.07,.32,0,.67,.01,.93,.2,.38,.28,.44,.81,.46,1.29,.62,13.07,1.24,26.14,1.86,39.21,.1,2.02,.19,4.06-.09,6.06-.28,1.94-.91,3.82-1.81,5.56-.19,.36-.39,.75-.3,1.14,.17,.71,1.11,.85,1.85,.8,2.14-.16,4.26-.69,6.23-1.55,.5-.22,1-.47,1.33-.91,.53-.72,.42-1.7,.29-2.58l-1.37-9.29c-.17-1.19-.37-2.43-1.06-3.41-.27-.38-.61-.72-.79-1.15-.19-.44-.18-.94-.17-1.42l.11-5.89c.04-1.84,.07-3.71-.39-5.49-.23-.91-.59-1.79-.73-2.71-.25-1.7,.25-3.41,.4-5.12,.41-4.78-1.95-9.46-1.65-14.25,2.46-.56,4.97-1.16,7.34-2.03-.05,1.72-.09,3.44-.14,5.16-.02,.65,0,1.39,.5,1.81,.19,.16,.45,.25,.69,.2,.51-.11,.69-.75,.73-1.27,.17-2.11-.19-4.25-1.02-6.19,2.21-.88,4.26-2.03,6-3.65l-.3-.17c.19-.43-.11-.95-.52-1.18-.41-.23-.91-.23-1.38-.23l-11.55-.02c-1.52,0-3.05,0-4.54,.29-1.87,.38-3.62,1.21-5.34,2.04-2.29,1.1-4.58,2.21-6.87,3.31,1.02,1.25,2.85,1.37,4.46,1.39Z" fill="#fff"/><path d="M134.28,25.09c1.22,.01,2.44,.03,3.66,.04l1.71,.02c.26,0,.71-.05,.98,.01,.42-.12,.72,.04,.89,.46,.32,.16,.46,.4,.42,.7,.3,1.1,.12,2.58,.18,3.72l.19,3.97c.24,5.13,.49,10.26,.73,15.39s.49,10.26,.73,15.39c.12,2.43,.27,4.89-.2,7.29-.23,1.16-.59,2.29-1.05,3.37-.34,.79-1.14,1.82-.9,2.75,.37,1.43,2.22,1.27,3.33,1.14,2.03-.25,4.24-.76,6.05-1.76,2.16-1.2,1.49-3.61,1.2-5.63l-1-6.77c-.14-.94-.24-1.9-.51-2.81-.23-.74-.58-1.35-1.03-1.97-.82-1.13-.57-2.51-.54-3.84,.05-2.69,.29-5.47-.07-8.14-.17-1.27-.65-2.44-.91-3.68-.31-1.5,.02-3,.22-4.49,.69-5.18-1.78-10.03-1.54-15.19l-.43,.56c2.48-.57,4.95-1.17,7.34-2.03l-.74-.56c-.05,1.9-.31,3.93-.13,5.83,.09,.95,.69,2.12,1.84,1.92,1.22-.22,1.27-1.79,1.28-2.75,.02-1.88-.38-3.71-1.09-5.44l-.41,.72c2.3-.94,4.42-2.13,6.26-3.8,.28-.26,.2-.74-.12-.92l-.3-.17,.27,.66c.41-2.44-2.57-2.15-4.18-2.15h-7.13c-2.15-.02-4.37-.14-6.5,.15-2.27,.31-4.33,1.26-6.37,2.25-2.29,1.1-4.58,2.21-6.87,3.31-.35,.17-.35,.66-.12,.92,1.26,1.37,3.11,1.53,4.88,1.56,.75,.01,.75-1.16,0-1.17-1.45-.02-3-.07-4.05-1.21l-.12,.92c2-.97,4.01-1.93,6.01-2.9s3.91-1.97,6.05-2.4,4.2-.27,6.28-.27h6.28l2.6,.02c.56,0,2.25-.16,2.11,.67-.04,.26,.03,.52,.27,.66l.3,.17-.12-.92c-1.69,1.54-3.64,2.65-5.74,3.5-.26,.11-.54,.4-.41,.72,.4,.98,.72,1.99,.89,3.03,.09,.54,.14,1.09,.15,1.64s.22,1.31-.39,1.41c-.67,.1-.39-.76-.38-1.26,.01-.47,.03-.94,.04-1.41l.09-3.28c0-.36-.38-.69-.74-.56-2.4,.86-4.86,1.46-7.34,2.03-.26,.06-.42,.31-.43,.56-.2,4.41,1.66,8.56,1.7,12.95,.02,2.2-.77,4.38-.42,6.58,.17,1.08,.61,2.09,.83,3.16,.28,1.3,.29,2.64,.28,3.97-.02,2.33-.15,4.66-.13,6.99,0,.81,.15,1.46,.61,2.13,.64,.92,1.06,1.71,1.27,2.83,.34,1.78,.54,3.6,.81,5.4,.24,1.63,.5,3.26,.72,4.89,.1,.75,.22,1.65-.36,2.26-.34,.35-.92,.55-1.35,.72-1.11,.46-2.27,.8-3.45,1.04-.66,.13-2.63,.72-3.21,.15-.44-.44,.99-3.01,1.17-3.55,1.51-4.41,.86-9.19,.65-13.75-.23-4.88-.46-9.76-.7-14.64-.26-5.54-.53-11.09-.79-16.63-.06-1.28,0-2.65-.2-3.91-.11-.71-.41-1.31-1.14-1.55-.97-.31-2.24-.1-3.24-.11-1.46-.02-2.93-.03-4.39-.05-.75,0-.75,1.16,0,1.17Z" fill="#fff"/></g><g><path d="M185.57,12.88c-2.81-2.63-7.33-2.09-10.91-.68s-7.03,3.56-10.88,3.65l-.32-.13c-.92,.21-1.97,1.01-1.61,1.88,.21,.5,.78,.7,1.23,1,1.07,.71,1.54,2.1,1.43,3.38-.11,1.28-.72,2.46-1.43,3.54-.44,.67-.94,1.49-.6,2.22,.16,.35,.49,.59,.75,.87,1.09,1.17,1.03,2.97,.9,4.56-.47,5.68-.95,11.41-2.68,16.84-.7,2.18-1.6,4.44-1.12,6.67,.47,2.2,2.23,3.98,2.57,6.2,.26,1.63-.28,3.27-.69,4.87-.2,.78-.35,1.66,.06,2.36,.56,.95,1.9,1.09,2.96,.8,1.06-.28,2.05-.87,3.14-.99,1.27-.14,2.52,.37,3.75,.74,1.65,.5,3.43,.75,5.11,.34,1.68-.41,3.24-1.59,3.76-3.23,.26-.81,.19-1.82-.48-2.34-1.09-.84-2.56,.21-3.84,.69-2.03,.75-4.28-.04-6.3-.83-.29-.11-.59-.24-.78-.48-.4-.51-.12-1.24,.11-1.84,1.16-2.96,.95-6.43-.55-9.23-.93-1.73-2.36-3.75-1.35-5.44,.27-.44,.68-.78,1-1.19,.63-.79,.89-1.86,.71-2.86-.23-1.25-1.11-2.59-.45-3.68,.46-.75,1.55-.95,2.34-.58,.8,.38,1.31,1.2,1.51,2.06,.07,.31,.13,.65,.37,.86,.48,.41,1.24-.07,1.49-.65,.25-.58,.25-1.26,.61-1.78,.47-.69,1.39-.88,2.22-.91,.83-.02,1.7,.06,2.46-.29,.76-.35,1.3-1.34,.82-2.03-.41-.59-1.36-.65-1.71-1.29-.33-.59,.04-1.32,0-2-.08-1.41-1.84-2.07-3.25-1.96-1.41,.11-2.86,.61-4.19,.13-.24-.09-.48-.22-.63-.43-.21-.3-.21-.7-.19-1.06,.11-2.72,.23-5.44,.34-8.16,.02-.45,.04-.91,.21-1.33,.42-1.04,1.59-1.52,2.64-1.9,.51-.18,1.08-.37,1.6-.2,1.29,.42,1.1,2.4,2.06,3.37,1.14-.52,1.96-1.69,2.04-2.93,.03-.41,0-.87,.24-1.21,.26-.36,.75-.47,1.19-.5,.97-.07,1.95,.09,2.91,0s1.99-.49,2.45-1.34c.64-1.17-.03-2.65-1-3.56Z" fill="#fff"/><path d="M185.98,12.47c-5.11-4.53-11.83-.48-17.02,1.57-1.65,.65-3.42,1.22-5.19,1.18-.91-.02-1.9,.36-2.38,1.25-.6,1.13,.24,1.87,1.11,2.45,1.91,1.29,1.61,3.55,.63,5.36-.6,1.1-1.81,2.39-1.15,3.73,.37,.75,1.13,1.13,1.41,1.96s.26,1.75,.21,2.62c-.24,3.99-.64,8.03-1.39,11.96-.37,1.94-.85,3.84-1.46,5.72-.55,1.7-1.18,3.45-1.13,5.27,.05,1.59,.71,2.95,1.45,4.33,1.03,1.91,1.56,3.53,1.09,5.72-.3,1.37-1.08,3.03-.54,4.43,.44,1.15,1.63,1.62,2.8,1.58,1.69-.07,3.1-1.25,4.82-1.12s3.44,1.04,5.23,1.23c2.73,.29,5.9-.73,6.98-3.49,.4-1.01,.43-2.32-.4-3.13-.91-.89-2.16-.58-3.21-.14-.93,.39-1.78,.82-2.82,.85s-2.06-.25-3.04-.58-2.22-.68-1.78-1.95c.3-.86,.57-1.69,.7-2.59,.23-1.54,.15-3.12-.22-4.63-.41-1.63-1.28-2.96-2.01-4.45-.45-.92-.92-2.07-.36-3.04,.4-.7,1.07-1.16,1.43-1.9,.68-1.43,.3-2.69-.11-4.12-.16-.54-.38-1.36,.05-1.84,.41-.45,1.26-.38,1.72-.07,.82,.55,.77,1.45,1.17,2.24,.45,.9,1.51,.94,2.23,.31,.47-.41,.58-.94,.76-1.5,.21-.66,.41-1.17,1.12-1.4,.49-.16,1.04-.13,1.55-.14,1.24-.02,2.61-.21,3.21-1.46s-.13-1.83-1-2.49c-.63-.48-.8-.87-.72-1.66,.02-.24,.05-.48,.02-.72-.06-.53-.3-1-.68-1.38-.8-.79-2.03-1.07-3.12-1.01-.85,.05-1.69,.29-2.55,.32-.66,.03-1.55-.03-1.88-.73-.16-.34,.04-1.19,.05-1.57,.08-2,.17-4,.25-6,.05-1.12-.01-2.3,1.04-2.98,.71-.46,2.23-1.17,2.96-.64,.47,.34,.58,1.18,.77,1.69s.42,.93,.77,1.33c.17,.2,.49,.2,.71,.09,1.16-.6,2.02-1.65,2.27-2.94,.05-.24,0-.59,.08-.81,.37-.97,1.06-.82,1.8-.81,.89,.01,1.77,.1,2.64-.1,3.08-.7,3.1-3.82,1.17-5.79-.53-.54-1.35,.29-.83,.83,1.21,1.23,1.59,3.24-.47,3.8-1.35,.37-2.8-.17-4.14,.21-.75,.21-1.18,.71-1.31,1.48-.23,1.41-.42,2.42-1.81,3.14l.71,.09c-.73-.85-.68-2.11-1.44-2.95-.86-.94-2.05-.65-3.1-.25s-2.18,.95-2.67,2.05c-.63,1.42-.36,3.45-.43,4.98l-.12,2.88c-.03,.85-.22,1.82-.04,2.66,.26,1.2,1.49,1.52,2.59,1.55,1.56,.04,3.31-.82,4.79,0s.1,2.55,1.19,3.69c.47,.5,2.08,.75,1.22,1.88-.57,.75-2.11,.43-2.92,.51-1.12,.1-2.15,.55-2.6,1.64-.12,.3-.13,.84-.31,1.09-.84,1.19-.79,.28-.94-.18-.17-.51-.43-1.01-.8-1.41-.74-.81-1.9-1.19-2.95-.78s-1.47,1.36-1.38,2.4c.17,1.96,1.39,3.38-.13,5.2-.8,.96-1.39,1.76-1.22,3.08,.2,1.6,1.24,2.92,1.92,4.33,.74,1.53,1.08,3.24,1.02,4.93-.03,.92-.18,1.82-.45,2.7-.24,.79-.72,1.6-.57,2.45,.19,1.08,1.3,1.36,2.19,1.68,1.57,.57,3.28,1.06,4.97,.74,1.15-.22,4.4-2.37,4.55-.09,.12,1.85-1.89,3.24-3.46,3.63-3.48,.86-6.64-1.93-10.05-.79-1.31,.44-4.39,1.87-4.43-.69-.03-1.82,1.02-3.54,.95-5.41-.05-1.42-.63-2.66-1.28-3.89-.95-1.79-1.71-3.41-1.38-5.5,.29-1.83,1.04-3.57,1.54-5.35s.9-3.68,1.2-5.56c.58-3.57,.98-7.22,1.15-10.83,.07-1.59-.14-2.96-1.12-4.23s-.23-2.02,.39-3.11c.45-.78,.82-1.63,.98-2.52,.24-1.32,0-2.75-.89-3.79-.47-.55-2.13-1.15-1.28-2.15,.36-.42,1.29-.18,1.78-.23,3.79-.37,7.03-2.44,10.53-3.75,3.19-1.19,7.25-1.79,10.01,.66,.56,.5,1.39-.33,.83-.83Z" fill="#fff"/></g><g><path d="M171.77,74.2s.07,.07,.1,.1c0-.23-.01-.46-.04-.69l-.07,.59Z" fill="#fff"/><path d="M171.36,74.62s.07,.07,.1,.1l.12,.09,.14,.06,.16,.02c.08,0,.16-.01,.23-.05,.05-.01,.09-.04,.13-.08,.04-.03,.08-.06,.1-.1,.04-.04,.06-.08,.08-.13,.04-.07,.05-.14,.05-.23,0-.23-.01-.46-.04-.69,0-.08-.01-.16-.05-.23-.02-.07-.06-.14-.12-.19-.05-.06-.12-.1-.19-.12-.07-.04-.14-.05-.23-.05-.15,0-.31,.06-.41,.17l-.09,.12c-.05,.09-.08,.19-.08,.29l-.06,.52v.08c-.01,.08,0,.16,.04,.23,.02,.07,.06,.14,.12,.19,.05,.06,.12,.1,.19,.12,.07,.04,.14,.05,.23,.05,.15,0,.31-.06,.41-.17l.09-.12c.05-.09,.08-.19,.08-.29l.06-.52v-.08h-1.16c.02,.23,.03,.46,.04,.69l1-.41s-.07-.07-.1-.1c-.05-.06-.12-.1-.19-.12-.07-.04-.14-.05-.23-.05-.08,0-.16,.01-.23,.05-.07,.02-.14,.06-.19,.12-.1,.11-.18,.26-.17,.41s.05,.31,.17,.41Z" fill="#fff"/></g><g><path d="M170.49,80.77c.43,.75,1.57,.81,2.26,.29,.69-.52,.97-1.42,1.01-2.28,.09-1.68-.63-3.37-1.89-4.49,.02,1.32-.27,2.64-.86,3.83-.42,.84-.99,1.83-.52,2.65Z" fill="#fff"/><path d="M169.99,81.07c.5,.8,1.51,1.09,2.4,.82,1-.3,1.62-1.23,1.84-2.21,.48-2.09-.37-4.38-1.94-5.8-.37-.33-1-.11-1,.41,0,1.2-.23,2.4-.76,3.48s-1.15,2.15-.55,3.29c.35,.67,1.36,.08,1.01-.59-.21-.4-.04-.86,.13-1.25,.22-.53,.51-1.02,.72-1.55,.43-1.07,.62-2.23,.61-3.38l-1,.41c1.18,1.07,1.84,2.63,1.71,4.22-.05,.63-.29,1.37-.85,1.72-.39,.24-1.05,.25-1.32-.18-.4-.64-1.41-.05-1.01,.59Z" fill="#fff"/></g><g><path d="M190.4,74.14c.21,.54,.85,.96,1.38,.73,.7-.3,.64-1.32,.36-2.03-.34-.85-.83-1.65-1.43-2.34l-.39,.21c.22,.54,.13,1.15,.05,1.72-.09,.57-.17,1.18,.04,1.72Z" fill="#fff"/><path d="M189.89,74.44c.29,.69,1.06,1.18,1.81,1.06s1.14-.79,1.2-1.49-.19-1.32-.47-1.92c-.34-.73-.8-1.4-1.32-2.01-.17-.2-.49-.21-.71-.09l-.39,.21c-.21,.11-.36,.43-.27,.66,.19,.5,.1,1.03,.02,1.56-.09,.63-.16,1.27,.06,1.88,.11,.3,.4,.5,.72,.41,.28-.08,.52-.42,.41-.72-.19-.51-.09-1.03-.02-1.56,.09-.63,.16-1.27-.07-1.88l-.27,.66,.39-.21-.71-.09c.39,.45,.71,.94,.99,1.46,.12,.23,.23,.46,.32,.7,.04,.1,.07,.21,.1,.32,.01,.06,.02,.11,.03,.17,0,.03,0,.06,.01,.08,0-.05,0-.06,0-.02,0,.1,.01,.2,0,.3,0,.04-.02,.16,0,.06-.01,.05-.03,.1-.04,.15-.02,.13,.05-.06-.01,.04-.02,.04-.05,.08-.08,.12,.08-.1-.02,.01-.04,.02,.09-.08-.03,0-.05,.02,.09-.04-.06,.01-.08,.01,.1-.01-.05,0-.07-.01,.1,.01-.05-.02-.07-.03,.09,.03-.06-.04-.07-.04-.09-.04,0,.02-.08-.05-.04-.03-.07-.07-.11-.11-.03-.03-.03-.03,0,0-.02-.02-.03-.05-.05-.08-.04-.06-.07-.12-.1-.19-.12-.29-.55-.35-.8-.21-.3,.18-.33,.51-.21,.8Z" fill="#fff"/></g><g><path d="M192.08,85.48c.21-.54,.1-1.15-.04-1.72-.24-.94-.59-1.85-1.04-2.7l-.25-.2c-.35,1.14-.59,2.31-.72,3.49-.08,.72,0,1.65,.69,1.89,.55,.2,1.16-.23,1.37-.77Z" fill="#fff"/><path d="M192.64,85.64c.33-.97,0-2.06-.33-2.98-.17-.49-.37-.97-.59-1.44-.09-.19-.17-.43-.32-.57-.07-.07-.17-.13-.25-.19-.34-.27-.84-.2-.98,.26-.25,.83-.45,1.67-.59,2.53-.12,.74-.25,1.51-.1,2.26,.14,.69,.64,1.29,1.37,1.37,.83,.09,1.49-.52,1.79-1.24,.12-.29-.13-.64-.41-.72-.34-.09-.6,.12-.72,.41-.06,.16-.23,.3-.39,.37-.05,.02-.09,.03-.17,.02-.06,0-.11-.03-.13-.05-.09-.07-.15-.19-.19-.34-.06-.21-.07-.38-.06-.62,.01-.57,.12-1.15,.23-1.71,.13-.67,.3-1.33,.49-1.98l-.98,.26c.07,.06,.16,.11,.22,.17,.05,.05-.04-.13,.03,.08,.03,.09,.09,.18,.13,.27,.18,.38,.34,.76,.47,1.16,.25,.72,.59,1.6,.33,2.36-.1,.3,.12,.64,.41,.72,.32,.09,.62-.11,.72-.41Z" fill="#fff"/></g><g><path d="M190.77,92.29l-.22-.21c-.06,1.3-.12,2.6,.03,3.89,.09,.74,.42,1.65,1.17,1.69,.62,.04,1.1-.63,1.1-1.25,0-.62-.33-1.19-.64-1.72-.48-.8-.96-1.6-1.43-2.4Z" fill="#fff"/><path d="M191.18,91.88l-.22-.21c-.38-.35-.97-.09-1,.41-.05,1.06-.1,2.13-.03,3.19,.05,.85,.14,1.77,.73,2.45s1.66,.69,2.26,0c.69-.78,.57-1.8,.15-2.68-.25-.51-.57-.99-.86-1.48l-.94-1.57c-.39-.64-1.4-.06-1.01,.59,.56,.94,1.16,1.87,1.68,2.83,.19,.36,.41,.82,.28,1.21-.08,.25-.27,.47-.48,.45-.08,0-.13-.04-.22-.14-.07-.08-.15-.22-.21-.35-.15-.37-.18-.76-.21-1.16-.08-1.11-.03-2.23,.02-3.35l-1,.41,.22,.21c.55,.51,1.38-.31,.83-.83Z" fill="#fff"/></g><g><path d="M224.44,37.43c.24-.36,.25-.81,.26-1.24l.05-3.45-.33-.47c-.93,1.34-1.42,2.99-1.36,4.63,0,.29,.05,.62,.27,.81,.33,.28,.87,.09,1.11-.27Z" fill="#fff"/><path d="M224.94,37.73c.28-.45,.33-.98,.34-1.5,.01-.61,.02-1.21,.03-1.82v-.86c.02-.3,.09-.67,0-.96-.06-.22-.26-.43-.38-.61-.26-.37-.75-.38-1.01,0-.84,1.24-1.33,2.69-1.43,4.18-.05,.7-.09,1.6,.55,2.05s1.48,.11,1.9-.48c.18-.26,.04-.65-.21-.8-.29-.17-.61-.05-.8,.21-.01,.02-.08,.07-.11,.08s-.16,.02-.11,.04c-.07-.01-.02-.01-.03-.03-.03-.06-.04-.14-.04-.21-.05-.5,0-1.04,.09-1.53,.19-1.05,.59-2.04,1.19-2.92h-1.01l.33,.47-.08-.29-.04,2.42c0,.38,0,.77-.02,1.15,0,.29-.02,.57-.17,.82-.39,.64,.62,1.23,1.01,.59Z" fill="#fff"/></g><g><path d="M228.39,37.75c.13,.17,.3,.34,.52,.36,.43,.06,.73-.44,.8-.87,.3-1.68-.74-3.28-1.73-4.67h-.18c.25,1.76-.47,3.77,.59,5.18Z" fill="#fff"/><path d="M227.98,38.16c.56,.71,1.5,.69,2.01-.06,.44-.65,.41-1.56,.27-2.3-.15-.79-.51-1.55-.92-2.23-.2-.33-.41-.66-.64-.98-.12-.18-.24-.41-.43-.52-.16-.09-.31-.08-.48-.07-.42,.02-.61,.35-.56,.74,.24,1.77-.5,3.73,.65,5.31,.19,.25,.51,.38,.8,.21,.25-.15,.4-.54,.21-.8-.5-.68-.54-1.48-.52-2.29,.03-.92,.11-1.82-.01-2.74l-.56,.74h.18l-.5-.3c.62,.88,1.27,1.79,1.56,2.84,.13,.45,.2,.95,.1,1.42-.02,.12-.08,.39-.21,.43,.11-.04-.08-.15-.13-.22-.2-.25-.62-.21-.83,0-.24,.24-.2,.58,0,.83Z" fill="#fff"/></g><g><path d="M237.06,12.31c0,1.71,0,3.42-.01,5.13,0,.19,0,.38,.08,.56,.24,.56,1.12,.52,1.56,.09,.72-.72,.55-1.92,.24-2.89-.34-1.07-.78-2.1-1.33-3.08l-.54,.2Z" fill="#fff"/><path d="M236.47,12.31c0,1.21,0,2.43,0,3.64,0,.59-.05,1.19,0,1.78,.05,.48,.27,.91,.71,1.12,.86,.41,1.87-.06,2.29-.86s.33-1.82,.09-2.7c-.34-1.2-.86-2.37-1.46-3.47-.12-.21-.42-.35-.66-.27l-.54,.2c-.3,.11-.5,.4-.41,.72,.08,.28,.42,.52,.72,.41l.54-.2-.66-.27c.43,.78,.8,1.59,1.09,2.43,.24,.67,.51,1.43,.4,2.15-.04,.26-.14,.54-.35,.71-.14,.11-.37,.17-.52,.12-.03-.01-.06-.03-.07-.05-.05-.17-.02-.38-.02-.56v-4.89c.01-.75-1.15-.75-1.16,0Z" fill="#fff"/></g><g><path d="M231.89,71.29l-.24-.29c-.19,1.13-.38,2.26-.57,3.39-.15,.92-.17,2.11,.67,2.5,.68,.31,1.52-.21,1.79-.91,.27-.7,.13-1.49-.09-2.21-.29-.96-.74-1.94-1.58-2.48Z" fill="#fff"/><path d="M232.31,70.87l-.24-.29c-.26-.33-.91-.16-.98,.26-.2,1.2-.43,2.4-.6,3.61-.12,.87-.14,1.89,.5,2.58,.72,.78,1.92,.61,2.63-.1,.85-.86,.76-2.14,.45-3.22-.33-1.14-.86-2.25-1.88-2.93-.63-.42-1.21,.59-.59,1.01s.97,1.1,1.2,1.78,.55,1.65,.15,2.32c-.14,.23-.38,.44-.66,.49-.21,.03-.4-.08-.49-.19-.32-.43-.23-1.18-.14-1.71,.18-1.11,.37-2.22,.56-3.33l-.98,.26,.24,.29c.2,.25,.62,.21,.83,0,.24-.24,.2-.58,0-.83Z" fill="#fff"/></g><g><path d="M224.55,78h-.24l-.45,1.89c-.16,.68-.26,1.56,.33,1.94,.46,.3,1.13,.06,1.43-.4,.3-.46,.3-1.06,.15-1.59-.2-.72-.63-1.38-1.23-1.83Z" fill="#fff"/><path d="M224.55,77.41h-.24c-.25-.01-.5,.18-.56,.42l-.28,1.18c-.12,.49-.25,.98-.3,1.48-.04,.44,0,.92,.23,1.31,.26,.44,.72,.71,1.22,.73s1-.22,1.32-.58c.35-.4,.52-.93,.51-1.46,0-1.12-.62-2.24-1.49-2.92-.25-.19-.58-.24-.83,0-.2,.2-.25,.63,0,.83,.15,.12,.3,.25,.43,.39,.06,.07,.12,.14,.18,.21-.05-.07,.02,.04,.04,.05,.04,.06,.08,.12,.12,.18,.2,.33,.3,.58,.38,.99,.02,.12,0,.06,0,.03,0,.06,.01,.12,.01,.18,0,.08,0,.16,0,.25-.01,.19,.01-.05,0,.06-.01,.05-.02,.1-.04,.15-.01,.04-.02,.08-.04,.11,.04-.09-.04,.06-.05,.08,0,.01-.12,.15-.03,.06-.02,.03-.05,.05-.07,.07-.07,.07-.03,.03,0,0-.04,.03-.09,.06-.13,.08-.03,.02-.06,.03-.09,.05,.1-.04,.01,0,0,0-.04,0-.09,.02-.12,.03-.04,0-.03,0,.03,0-.03,0-.07,0-.1,0-.05,0-.08-.03,0,0-.03-.01-.07-.02-.1-.03,.12,.04-.02-.02-.04-.03-.04-.02-.05-.07,0,0-.02-.02-.05-.05-.07-.07,.09,.09,0,0-.02-.03-.02-.03-.03-.05-.04-.08,.06,.12,0,0,0-.04-.01-.04-.01-.08-.03-.12-.03-.07,0,.13,0-.02,0-.07,0-.14,0-.2,0-.09,0-.17,.01-.26,0-.12,0-.03,0,0,0-.06,.02-.12,.03-.18,.06-.34,.16-.68,.24-1.02l.27-1.15-.56,.43h.24c.31,.01,.6-.27,.58-.58s-.26-.58-.58-.58Z" fill="#fff"/></g><g><path d="M229.19,87.61l-.2-.13c-.54,1.48-.85,3.04-.89,4.61-.02,.63,.08,1.39,.65,1.67,.53,.26,1.21-.1,1.49-.63s.27-1.15,.25-1.75c-.06-1.37-.24-2.9-1.3-3.78Z" fill="#fff"/><path d="M229.49,87.11l-.2-.13c-.34-.22-.74,.02-.86,.35-.43,1.18-.7,2.4-.84,3.65-.1,.95-.26,2.26,.49,3.01,.81,.81,2.11,.39,2.64-.52s.39-2.18,.26-3.19c-.14-1.14-.48-2.3-1.38-3.07-.24-.21-.59-.24-.83,0-.21,.21-.24,.62,0,.83,.58,.49,.84,1.16,.98,1.89s.23,1.59,.14,2.34c-.04,.33-.14,.67-.42,.87-.18,.13-.42,.2-.58,.03-.2-.2-.21-.59-.22-.86,0-.46,.03-.93,.08-1.39,.12-1.12,.4-2.22,.79-3.28l-.86,.35,.2,.13c.63,.42,1.21-.6,.59-1.01Z" fill="#fff"/></g><g><path d="M205.65,46.57c-1.99-2.76-4.11-5.67-4.4-9.06-.02-.24-.03-.5,.06-.73,.23-.61,1.01-.8,1.66-.74s1.31,.28,1.94,.13c.99-.24,1.56-1.29,1.84-2.27,.28-.98,.43-2.06,1.1-2.83,.41-.48,.97-.79,1.48-1.16,2.77-2.01,3.8-5.71,3.77-9.14-.03-4.31-1.46-8.59-4.02-12.05-.37-.5-.77-1-1.3-1.33-1.02-.64-2.31-.6-3.51-.51-4.17,.3-8.34,.76-12.48,1.39l-.37,.39c-1.07,1.89-1.54,4.11-1.34,6.28,.09,.99,.32,1.98,.15,2.96-.2,1.17-.95,2.17-1.33,3.29-.87,2.56,.24,5.31,1.16,7.85,.35,.96,.68,1.98,.5,2.99-.14,.82-.61,1.55-1.06,2.25-1.33,2.11-2.61,4.42-2.55,6.91,.05,2.06,1,3.97,1.53,5.95,1.52,5.79-.65,11.94,.07,17.88,.09,.75,.24,1.52,.71,2.11,1.04,1.3,3.31,1.01,4.36-.28,1.05-1.3,1.08-3.18,.56-4.77-.41-1.26-1.13-2.44-1.3-3.76-.2-1.48,.3-2.96,.68-4.41,1.18-4.59,1.07-9.39,.96-14.12,3.14,2.08,4.32,6.03,6.33,9.22,1.89,2.99,4.69,5.59,5.37,9.06,.52,2.67-.31,5.55,.65,8.1,.12,.33,.31,.68,.64,.81,.27,.11,.57,.04,.84-.07,1.83-.78,2.21-3.38,3.94-4.38,.5-.29,1.1-.43,1.51-.83,1-.98,.3-2.66-.46-3.84-2.46-3.83-5.03-7.59-7.69-11.28Zm-5.72-16.57c-1.05,.35-2.15,.57-3.26,.66-.19,.02-.4,.02-.53-.12-.11-.12-.12-.3-.12-.46,0-5.22,0-10.44,0-15.66l.21-.37c1.32-.49,2.91-.14,3.91,.86,.28,.28,.53,.62,.87,.81,1.13,.64,2.69-.48,3.8,.18,.29,.17,.5,.44,.68,.72,1.31,2.06,.98,5.02-.77,6.73-.55,.54-1.24,.98-1.64,1.65-.69,1.15-.41,2.73-1.21,3.8-.47,.62-1.22,.95-1.95,1.19Z" fill="#fff"/><g><path d="M206.16,46.27c-1.69-2.34-3.53-4.79-4.15-7.67-.06-.3-.21-.85-.17-1.09,.2-1.1,.81-.91,1.44-.84,.55,.06,1.07,.19,1.63,.08,.89-.17,1.54-.8,1.96-1.59,.59-1.1,.54-2.48,1.25-3.5s2.1-1.59,2.94-2.57c1.44-1.69,2.19-3.85,2.48-6.02,.67-5.02-.87-10.4-3.83-14.48-.58-.8-1.2-1.56-2.12-1.96-1.2-.52-2.53-.4-3.8-.31-3.1,.23-6.2,.55-9.28,.97-.92,.12-2.44,.06-3.18,.62s-1.07,1.75-1.33,2.57c-.39,1.22-.57,2.52-.53,3.79,.06,1.72,.51,3.14-.24,4.8-.49,1.08-1.01,2.05-1.16,3.24-.16,1.29,.06,2.59,.41,3.83,.4,1.45,1.1,2.83,1.43,4.3,.42,1.86-.71,3.16-1.59,4.66-1.26,2.17-2.21,4.55-1.84,7.1,.21,1.46,.77,2.83,1.21,4.23,.47,1.52,.72,3.06,.77,4.65,.09,2.93-.34,5.84-.53,8.76-.09,1.42-.13,2.85-.02,4.27,.09,1.11,.18,2.38,.88,3.3,1.23,1.6,3.71,1.38,5.07,.06,1.93-1.88,1.29-4.77,.38-6.95-.83-2-.86-3.52-.32-5.6,.41-1.57,.75-3.13,.95-4.74,.43-3.45,.35-6.94,.27-10.41l-.88,.5c3.25,2.25,4.33,6.35,6.44,9.51,1.14,1.7,2.5,3.25,3.57,5,1.21,1.99,1.61,3.97,1.58,6.28-.02,1.79-.31,4.3,.8,5.86,.91,1.27,2.46,.44,3.29-.49,1.06-1.19,1.51-2.8,2.98-3.57,1.36-.71,2.27-1.5,1.9-3.18-.24-1.09-.88-2.03-1.48-2.96-.75-1.16-1.51-2.31-2.29-3.46-1.59-2.36-3.22-4.69-4.88-7-.44-.6-1.45-.02-1.01,.59,2.56,3.56,5.06,7.18,7.43,10.87,.47,.73,1.12,1.62,1.12,2.53,0,1.27-1.17,1.36-2,1.96-1.07,.77-1.57,2.01-2.33,3.04-.23,.31-.51,.71-.86,.88-.77,.38-1.05-.06-1.25-.75-.3-1.05-.29-2.16-.28-3.24,.02-1.82,.1-3.63-.48-5.38-1.11-3.3-3.77-5.74-5.5-8.7-1.83-3.13-3.07-6.66-6.16-8.81-.37-.25-.89,.08-.88,.5,.07,2.77,.13,5.54-.06,8.3-.1,1.44-.27,2.87-.56,4.29s-.73,2.66-.95,4.01c-.17,1.08-.12,2.12,.21,3.15,.41,1.26,1.1,2.42,1.29,3.75s-.06,2.88-1.24,3.67-2.83,.46-3.3-.98c-.78-2.42-.33-5.44-.12-7.93,.23-2.61,.53-5.23,.34-7.84-.18-2.48-1.09-4.65-1.7-7.02-.79-3.05,.33-5.67,1.91-8.24,.54-.87,1.15-1.74,1.35-2.76,.22-1.13-.13-2.25-.5-3.3-1-2.84-2.1-5.57-.75-8.49,.38-.82,.81-1.59,.94-2.5,.19-1.28-.19-2.54-.2-3.82-.01-1.37,.25-2.74,.77-4.01,.15-.37,.36-1.09,.76-1.32,.35-.2,1.52-.16,1.95-.22,2.9-.4,5.81-.71,8.72-.95,1.24-.1,2.68-.36,3.89,0,1.39,.41,2.19,1.84,2.9,3.01,2.46,4.08,3.69,9.41,2.42,14.09-.35,1.3-.93,2.57-1.8,3.61-.81,.96-1.98,1.46-2.81,2.38-.72,.81-.91,1.89-1.2,2.91-.23,.8-.49,1.56-1.3,1.9-.73,.32-1.37,0-2.14,0-2.58-.03-2.25,2.48-1.71,4.27,.8,2.65,2.46,4.93,4.06,7.14,.44,.6,1.45,.02,1.01-.59Z" fill="#fff"/><path d="M199.78,29.44c-.77,.24-1.55,.44-2.35,.56-.25,.03-.5,.06-.75,.08-.15,.04-.17-.07-.06-.32-.05-.42,0-.88,0-1.3v-12.4c0-.57-.14-1.22,.13-1.71l-.35,.27c1.12-.37,2.36-.19,3.25,.62,.7,.64,1.17,1.24,2.19,1.27,.82,.02,1.94-.54,2.7-.1,.86,.5,1.17,2.02,1.19,2.92,.03,1-.23,2.01-.77,2.85s-1.48,1.39-2.12,2.2c-.57,.74-.71,1.62-.88,2.52-.09,.48-.17,1-.44,1.42-.39,.61-1.08,.89-1.74,1.12-.71,.24-.4,1.37,.31,1.13,1.6-.55,2.61-1.42,2.95-3.12,.16-.78,.2-1.62,.68-2.29,.52-.72,1.34-1.19,1.89-1.89,.87-1.11,1.32-2.53,1.28-3.94-.03-1.3-.48-2.96-1.57-3.78-.58-.44-1.25-.49-1.95-.4-.79,.1-1.64,.43-2.32-.13-.61-.5-1-1.04-1.74-1.37s-1.55-.46-2.36-.36c-.56,.07-1.04,.15-1.33,.66-.4,.71-.18,1.81-.18,2.6v6.36c0,2.38-.13,4.8,0,7.18,.05,.85,.55,1.21,1.38,1.15,1.11-.09,2.2-.33,3.26-.66,.71-.23,.41-1.35-.31-1.13Z" fill="#fff"/></g></g><g><path d="M245.3,14.72c1.04,.16,2.08-.44,2.73-1.27,.64-.83,.95-1.87,1.19-2.9,.49-2.08,.75-4.21,.79-6.34l-.52-.13c-1.71,.31-3.54,.62-5.15-.03-1.38-.55-2.41-1.71-3.64-2.55-4-2.73-9.79-1.51-13.34,1.79s-5.22,8.17-5.97,12.95c-.47,3.01-.57,6.31,1.11,8.85,1.33,2,3.56,3.2,5.78,4.1,.99,.4,2.03,.78,2.81,1.51,.51,.48,.88,1.08,1.25,1.67,.73,1.19,1.47,2.38,2.2,3.57,.77,1.25,1.55,2.52,1.99,3.92,1.07,3.43-.02,7.12-1.11,10.54-.11,.34-.23,.7-.52,.91-.22,.16-.5,.2-.77,.23-3.05,.31-6.05-.8-8.93-1.86-1.77-.65-4.17-1.1-5.18,.49-.76,1.19-.16,2.76,.54,3.99,.33,.58,.68,1.23,.49,1.86-.19,.62-.88,1.25-.51,1.78,.18,.26,.53,.32,.85,.35,2.29,.22,4.65-.07,6.93-.01,.04,2.39-.77,4.72-1.77,6.89-.37,.81-.76,1.79-.26,2.52,.39,.57,1.21,.71,1.85,.46,.64-.25,1.11-.81,1.45-1.41,.76-1.38,.9-3.04,.67-4.6-.19-1.31-.61-2.58-1.07-3.83,1.12,.08,2.21,.27,3.26,.68,1.7,.66,3.71,1.81,5.12,.66,.48-.39,.76-.99,1.25-1.37,1.35-1.04,3.38,.1,4.99-.46,1.68-.59,2.18-2.69,2.33-4.47,.27-3.07,.26-6.17-.03-9.24-.2-2.19-.54-4.44,0-6.57,.44-1.74,1.43-3.3,1.92-5.02,.1-.36,.18-.74,.11-1.11-.08-.44-.36-.82-.63-1.18-1.53-2.03-3.34-4.23-5.87-4.55-1.27-.16-2.55,.2-3.8,.49-1.25,.29-2.59,.5-3.8,.06-1.21-.44-2.19-1.74-1.84-2.98,.12-.43,.39-.82,.45-1.27,.13-.93-.7-1.74-1.57-2.09-.87-.35-1.84-.4-2.71-.76-.32-.13-.63-.32-.81-.61-.57-.92,.45-1.98,1.35-2.58,2.07-1.37,4.17-2.75,6.55-3.46,2.37-.71,5.1-.64,7.15,.75,.87,.59,1.66,1.44,2.7,1.59Z" fill="#fff"/><path d="M245.3,15.31c4.98,.37,5.2-7.82,5.29-11.1,0-.25-.19-.5-.43-.56-1.65-.42-3.33,.46-5.06,.04-1.98-.48-3.27-2.33-5.04-3.24-2.9-1.47-6.37-1.26-9.31-.02-6.82,2.89-9.66,10.93-10.19,17.8-.28,3.6,.55,7.09,3.55,9.36,1.59,1.2,3.4,1.81,5.17,2.65,2.11,1,3.08,3.3,4.26,5.2s2.37,3.69,2.72,5.87c.38,2.42-.2,4.89-.88,7.2-.12,.42-.21,.91-.4,1.3-.37,.8-1.12,1.2-2.01,1.19-1.25,0-2.48-.24-3.68-.56-1.92-.52-3.74-1.46-5.69-1.81-1.38-.25-2.98-.19-3.92,1-1.2,1.51-.36,3.33,.36,4.83,.22,.45,.57,.8,.43,1.41-.06,.27-.29,.53-.41,.78-.12,.27-.25,.57-.23,.88,.05,.69,.61,1.04,1.22,1.17,2.32,.47,4.89,0,7.25,.03l-.58-.58c0,1.38-.25,2.71-.67,4.02-.38,1.18-1,2.27-1.39,3.45-.53,1.59,.24,3.32,2.13,3.09,1.75-.21,2.68-2.21,2.98-3.74,.46-2.37-.23-4.71-1.03-6.93l-.56,.74c1.68,.15,3.07,.68,4.62,1.28,1.17,.45,2.57,.86,3.75,.19,.62-.35,.9-.96,1.41-1.42,.68-.61,1.42-.55,2.26-.49,1.29,.1,2.58,.27,3.67-.58,1.98-1.54,1.9-4.72,1.99-6.96,.07-1.79,.05-3.57-.07-5.36-.12-1.9-.45-3.8-.4-5.71s.67-3.43,1.4-5.11c.49-1.14,1.24-2.55,.81-3.81-.36-1.03-1.36-2.04-2.08-2.85-.91-1.03-1.96-1.98-3.23-2.53-1.2-.52-2.45-.56-3.73-.35-1.79,.3-4.17,1.36-5.87,.2-1.01-.69-1.08-1.57-.7-2.63,.16-.44,.28-.82,.21-1.29-.18-1.2-1.3-1.94-2.36-2.28-.86-.27-2.36-.22-2.63-1.18-.3-1.08,1.29-1.78,2.08-2.29,1.66-1.07,3.39-2.11,5.31-2.68,1.76-.52,3.73-.63,5.46,.04,1.49,.57,2.5,1.94,4.08,2.3,.73,.17,1.04-.96,.31-1.13-1.39-.32-2.36-1.56-3.65-2.13s-2.8-.76-4.23-.64c-3.13,.27-5.85,1.89-8.42,3.58-.95,.62-2.19,1.41-2.33,2.66-.13,1.14,.79,1.78,1.76,2.1,1.66,.55,3.99,.54,3.16,2.94-.38,1.11-.12,2.23,.71,3.09,2.43,2.52,5.87,.25,8.71,.37,1.62,.07,2.94,1,4.04,2.13,.43,.44,.83,.92,1.22,1.41,.79,1,1.33,1.66,.92,2.98-.45,1.45-1.26,2.77-1.69,4.23-.51,1.7-.46,3.48-.31,5.24,.32,3.71,.59,7.41,.21,11.13-.15,1.49-.5,3.63-2.25,4-1.49,.31-3.05-.53-4.48,.24-.61,.33-.92,.92-1.4,1.39-.96,.95-2.22,.49-3.31,.07-1.65-.63-3.15-1.17-4.93-1.32-.36-.03-.69,.4-.56,.74,.56,1.53,1.09,3.1,1.14,4.75,.02,.81-.06,1.62-.32,2.39-.19,.57-1.04,2.44-1.98,2.08l-.77-1.26c.06-.23,.14-.45,.24-.67,.15-.38,.33-.74,.49-1.11,.26-.6,.5-1.21,.71-1.82,.49-1.48,.77-2.99,.78-4.54,0-.32-.27-.58-.58-.58-2.08-.04-4.17,.19-6.24,.06-.14,0-.77,.02-.85-.07-.12-.14,.07-.62,.12-.77,.11-.36,.29-.58,.33-.99,.06-.71-.28-1.32-.6-1.93-.44-.84-1-1.87-.77-2.86,.26-1.11,1.36-1.39,2.35-1.33,1.81,.1,3.54,1.03,5.24,1.57,1.86,.59,3.82,1.03,5.78,.92,1.72-.1,2.11-.94,2.59-2.47,1.09-3.54,1.98-7.39,.48-10.96-.76-1.79-1.89-3.42-2.91-5.08-.91-1.47-1.71-3.13-3.24-4.06s-3.34-1.38-4.89-2.34c-1.76-1.09-3.1-2.62-3.65-4.64-.95-3.46-.07-7.51,.97-10.85s2.92-6.89,5.93-9.01,7.59-3.07,11.01-1.05c1.67,.98,2.91,2.6,4.85,3.09,.97,.25,1.97,.24,2.95,.13,.71-.08,1.41-.34,2.1-.17l-.43-.56c-.05,2.01-.27,4-.72,5.97-.4,1.77-1.16,4.13-3.4,3.96-.75-.06-.75,1.11,0,1.17Z" fill="#fff"/></g><g><path d="M89.27,103.91c-.15,.09-.31,.19-.39,.35-.05,.11-.05,.24-.06,.36-.03,3.76,.32,7.53,1.04,11.22,.23,1.19,.68,2.58,1.85,2.92l-1.13-8.14c.85-.23,1.69-.51,2.51-.85,.46-.19,.99-.53,.92-1.02-.05-.36-.43-.6-.79-.61-.36-.01-.71,.14-1.03,.3-.41,.2-1,.36-1.23-.03-.07-.11-.08-.25-.1-.38-.07-.72-.15-1.44-.22-2.16-.02-.19-.04-.38,.04-.55,.08-.17,.24-.29,.4-.39,.95-.64,1.98-1.15,3.06-1.52,1.26-.43,2.77-.83,3.28-2.06l-.05-.2c-2.89-.2-5.59,1.31-8.1,2.77Z" fill="#fff"/><path d="M88.98,103.4c-.5,.33-.68,.63-.73,1.22-.08,.9,0,1.84,.05,2.74,.07,1.71,.22,3.41,.44,5.11,.19,1.47,.35,3.02,.79,4.44,.34,1.09,.92,2.01,2.03,2.42,.47,.17,.77-.32,.72-.72l-1.13-8.14-.41,.72c1.09-.3,4.08-.84,3.85-2.52-.09-.64-.68-1.06-1.29-1.11-.41-.04-.79,.1-1.16,.26-.14,.06-.34,.2-.49,.21-.33,0-.23-.26-.27-.61-.05-.47-.21-1.07-.16-1.54,.06-.58,.75-.84,1.21-1.09,.89-.48,1.83-.79,2.77-1.13,1.04-.37,3.08-1.24,2.72-2.67-.07-.26-.31-.42-.56-.43-3.08-.15-5.81,1.35-8.39,2.85-.65,.38-.06,1.39,.59,1.01,2.4-1.4,4.93-2.83,7.8-2.69l-.56-.43,.05,.2,.06-.45c-.67,1.4-2.58,1.61-3.88,2.16s-3.11,1.18-2.97,2.82c.09,1.01-.12,3.15,1.34,3.21,.28,.01,.56-.08,.82-.18s1.07-.56,1.01-.15c-.1,.59-2.3,1.02-2.81,1.16-.33,.09-.45,.4-.41,.72l1.13,8.14,.72-.72c-.92-.33-1.2-1.43-1.39-2.29-.29-1.3-.48-2.63-.64-3.96-.15-1.25-.27-2.5-.34-3.75-.04-.63-.06-1.25-.07-1.88,0-.4-.22-1.68,.14-1.92,.63-.41,.04-1.42-.59-1.01Z" fill="#fff"/></g><g><path d="M100.23,112.07c.13-1,.63-2.07,1.59-2.38,.34-.11,.71-.12,1.02-.29,.31-.17,.52-.61,.28-.88-.18-.2-.5-.18-.76-.11-1.04,.26-1.97,.99-2.47,1.94l-.36-.22c.08-.38-.07-.79-.37-1.03s-.74-.29-1.09-.13c.16,2.07,.64,4.12,1.42,6.05,.08,.19,.26,.41,.43,.31,.08-.05,.11-.15,.13-.25,.19-.99,.05-2.01,.18-3.01Z" fill="#fff"/><path d="M100.8,112.22c.1-.71,.36-1.59,1.07-1.92,.43-.2,.94-.16,1.35-.44s.68-.78,.57-1.26c-.25-1.17-1.65-.8-2.4-.44-.84,.4-1.55,1.09-2,1.9l.8-.21-.36-.22,.27,.66c.09-.58-.04-1.16-.49-1.56s-1.12-.54-1.69-.31c-.23,.09-.45,.29-.43,.56,.16,2,.58,3.97,1.3,5.85,.16,.41,.31,.89,.76,1.06,.51,.19,.94-.15,1.07-.64,.26-1.02,.08-2.13,.2-3.17,.04-.31-.29-.58-.58-.58-.35,0-.55,.27-.58,.58-.06,.5-.06,1.01-.06,1.51,0,.24,0,.48-.02,.72,0,.13-.02,.26-.03,.39,0,.04-.06,.27-.02,.22l.26-.15h0l.29,.08c-.12-.06-.18-.39-.22-.51-.09-.24-.17-.48-.25-.72-.17-.5-.31-1.01-.44-1.53-.25-1.02-.42-2.06-.5-3.11l-.43,.56c.32-.13,.81,0,.74,.44-.04,.26,.03,.51,.27,.66l.36,.22c.26,.16,.65,.06,.8-.21,.33-.61,.82-1.09,1.44-1.41,.14-.07,.28-.13,.44-.18,.11-.04,.31-.04,.41-.1,.11-.06,.02,.05-.02-.06-.07-.26,.03-.08-.07-.03-.12,.06-.22,.1-.35,.13-.72,.17-1.31,.38-1.78,.98-.44,.56-.7,1.24-.79,1.94-.04,.31,.08,.63,.41,.72,.27,.07,.67-.09,.72-.41Z" fill="#fff"/></g><g><path d="M110.14,107.72l-.02-.21c-.63,.08-1.26-.02-1.89-.02s-1.3,.13-1.76,.56c-.49,.47-.63,1.18-.75,1.85-.1,.62-.19,1.3,.12,1.85,.18,.32,.48,.55,.78,.77,.72,.53,1.54,1.08,2.43,.98,.79-.08,1.45-.67,1.82-1.37s.5-1.5,.58-2.29c.05-.5,.09-1.02-.12-1.47-.2-.46-.72-.81-1.2-.65Zm-.44,2.52c-.05,.42-.18,.82-.38,1.19-.1,.18-.22,.36-.41,.44-.31,.13-.66-.04-.94-.22-.28-.17-.57-.35-.7-.65-.14-.31-.07-.66,.03-.98,.08-.26,.18-.52,.37-.72,.19-.2,.48-.31,.74-.22l.39-.05c.28-.12,.62,.05,.78,.31,.16,.26,.17,.58,.13,.88Z" fill="#fff"/><g><path d="M110.72,107.72l-.02-.21c-.02-.29-.25-.62-.58-.58-.79,.08-1.58-.08-2.37,0s-1.5,.38-1.97,1.03c-.41,.56-.54,1.27-.65,1.94-.12,.75-.18,1.56,.26,2.23,.4,.62,1.14,1.1,1.78,1.46,.67,.38,1.41,.6,2.17,.46,1.48-.27,2.3-1.77,2.55-3.12,.15-.82,.34-1.8,.05-2.61s-1.09-1.39-1.96-1.16c-.73,.19-.42,1.32,.31,1.13,.38-.1,.58,.41,.61,.71,.06,.56-.05,1.18-.16,1.73-.18,.89-.63,1.98-1.63,2.19-.48,.1-.95-.09-1.36-.32-.45-.26-1-.59-1.33-1s-.24-.96-.16-1.42c.08-.49,.15-1.03,.42-1.46s.81-.59,1.31-.62c.71-.04,1.42,.09,2.13,.01l-.58-.58,.02,.21c.03,.31,.25,.58,.58,.58,.3,0,.61-.27,.58-.58Z" fill="#fff"/><path d="M109.11,110.24c.02-.13-.02,.08-.02,.12-.01,.07-.03,.15-.05,.22-.02,.06-.04,.13-.06,.19-.01,.03-.02,.06-.03,.09,0,.02-.07,.16-.02,.05-.06,.12-.11,.23-.18,.34,0,0-.09,.12-.03,.05,.05-.06-.01,0-.03,.02-.02,.02-.09,.06-.02,.02,.04-.03,.03-.03-.01,0,.06-.02,.08-.03,.03-.02-.08,.02,.1,0,.02,0-.02,0-.12,0-.04,0,.09,0-.05-.01-.06-.02-.03,0-.06-.02-.09-.03,.02,0,.1,.05,0,0-.03-.01-.06-.03-.09-.04-.07-.04-.14-.08-.21-.12-.05-.03-.1-.06-.15-.09-.03-.02-.06-.04-.09-.06-.02-.01-.09-.07-.03-.02s0,0-.02-.02c-.03-.02-.05-.05-.08-.07,0,0-.05-.06-.06-.06,.02,0,.07,.1,0,0-.02-.03-.08-.1,0,0-.01-.02-.02-.07-.03-.09v-.02s-.01-.03,0,.04c0-.01,0-.07,0-.09,0-.03,0-.06,0-.09,0-.11,0-.01,0,.01,0-.08,.03-.16,.05-.24,.03-.12,.06-.29,.13-.4,0,.01-.06,.11,0,.01,.01-.03,.03-.05,.04-.08s.03-.05,.05-.08c.07-.12-.08,.07,.02-.03l.06-.06c.09-.09-.01,.02-.02,.01,0,0,.06-.04,.07-.05,.1-.07-.02,0-.02,0,0,0,.15-.07,.05-.02-.07,.03,0,0,.03,0,.07-.01-.1-.03-.03,0,.06,.02,.17,.04,.22,.04,.12,0,.24-.03,.36-.05,.07,0,.15-.01,.21-.04,.09-.04-.02,0-.04,0,.02,0,.04,0,.06,0,.05,0,.03,0-.06-.01,0,0,.08,.02,.08,.02-.07-.03-.09-.04-.05-.02,.02,0,.04,.02,.05,.03,.06,.03,0,.03-.02-.02l.09,.08s-.07-.12-.02-.02l.02,.04c.03,.06,.03,.05,0-.02,.04,.04,.04,.15,.05,.2,.02,.09,0-.14,0,0,0,.04,0,.08,0,.11,0,.08,0,.17-.02,.25-.03,.3,.29,.6,.58,.58,.34-.02,.55-.26,.58-.58,.04-.41,0-.86-.23-1.21s-.66-.63-1.11-.6c-.07,0-.17,0-.23,.03h-.02c-.06,.02-.02,.02,.1,0-.03,0-.07,0-.1,.01-.08,.01-.18,0-.27,.04-.05,.02-.02-.07,.09,.01-.04-.02-.25-.04-.24-.04-.11,0-.22,0-.32,.02-.24,.05-.44,.17-.63,.32-.31,.26-.48,.67-.6,1.05s-.19,.84-.05,1.25,.45,.7,.81,.93,.76,.46,1.19,.45c1.1-.01,1.48-1.38,1.59-2.27,.04-.3-.3-.6-.58-.58-.35,.02-.54,.26-.58,.58Z" fill="#fff"/></g></g><g><path d="M121.23,110.86c.12-.92,.06-1.85-.17-2.75-.06-.25-.14-.53-.01-.75,.08-.15,.23-.24,.38-.33,.52-.31,1.05-.63,1.63-.78,.59-.15,1.25-.11,1.74,.24,.42,.3,.66,.78,.88,1.24l.93,1.92c.1,.21,.25,.46,.49,.48,.41,.04,.53-.54,.48-.94-.18-1.29-.61-2.55-1.26-3.69-.28-.5-.63-.99-1.13-1.25-.39-.2-.84-.26-1.28-.25-1.44,.04-2.84,.8-3.66,1.99-.16,.23-.43,.51-.67,.36-.07-.04-.11-.12-.15-.18-.6-.94-1.9-1.31-2.96-.96-1.06,.35-1.85,1.32-2.16,2.4l-.59-.75-.04-.5c-.3,1.93,.01,3.96,.88,5.71,.13,.26,.38,.56,.65,.44-.02-1.21-.04-2.42-.07-3.64,0-.29,0-.59,.11-.86,.2-.46,.69-.71,1.15-.92,.41-.19,.85-.38,1.3-.37,.95,.02,1.66,.88,2.08,1.73,.42,.85,.72,1.81,1.45,2.42Z" fill="#fff"/><path d="M121.81,110.86c.07-.67,.07-1.34-.02-2.01-.04-.29-.16-.61-.17-.9-.02-.42,.23-.51,.59-.71,.53-.3,1.15-.59,1.77-.47,.74,.14,1.01,.88,1.31,1.49,.37,.75,.83,2.56,1.95,2.43s.95-1.51,.8-2.28c-.43-2.14-1.53-5.08-4.13-5.01-1.09,.03-2.16,.42-3.02,1.08-.29,.22-1.02,.73-1.08,1.11-.02,.11,.15,.4,.08,.18-.02-.06-.1-.14-.14-.19-.19-.23-.41-.43-.65-.59-2.17-1.42-4.65,.24-5.34,2.44l.98-.26-.59-.75,.17,.41-.04-.5c-.04-.61-1.05-.85-1.15-.16-.2,1.45-.15,2.89,.23,4.31,.27,.99,.7,2.75,2.01,2.56,.25-.03,.43-.33,.43-.56-.02-1.13-.04-2.25-.06-3.38,0-.53-.04-.96,.45-1.28,.38-.25,.92-.5,1.37-.54,1-.07,1.54,1.03,1.89,1.8s.71,1.57,1.37,2.17c.56,.5,1.38-.32,.83-.83-.89-.81-1.1-2.06-1.79-3.02s-1.69-1.52-2.87-1.21c-.98,.26-2.18,.84-2.38,1.93-.12,.65-.03,1.35-.02,2l.04,2.34,.43-.56c.21-.03,0-.2-.09-.4-.12-.25-.22-.51-.3-.77-.15-.42-.26-.86-.34-1.3-.19-.98-.21-1.99-.07-2.97l-1.15-.16c.01,.19,0,.4,.05,.58,.1,.4,.5,.76,.75,1.09,.29,.37,.86,.12,.98-.26,.29-.92,.95-1.8,1.93-2.04,.45-.11,.95-.07,1.37,.12,.46,.2,.61,.56,.95,.88,.76,.71,1.39-.19,1.85-.72,.68-.79,1.69-1.32,2.73-1.4,1.34-.11,1.92,.75,2.45,1.85,.26,.54,.46,1.11,.62,1.7,.07,.28,.14,.56,.18,.84,.02,.11,.01,.26,.05,.37v.17h.2c.04-.08-.33-.66-.38-.76l-.41-.84c-.24-.5-.47-1.02-.82-1.46-.59-.73-1.49-.97-2.4-.83-.56,.09-1.09,.33-1.58,.61-.4,.23-.9,.46-1.11,.9-.24,.49-.03,1,.07,1.5,.14,.74,.15,1.48,.06,2.22s1.09,.74,1.17,0Z" fill="#fff"/></g><g><path d="M74.23,150.08c-.85-.41-1.78-.64-2.65-1,.48-1.02,.96-2.05,1.44-3.07,.29-.62,.58-1.25,.66-1.92,.1-.8-.11-1.62-.41-2.37-.59-1.48-1.55-2.85-2.86-3.76-1.31-.91-2.99-1.33-4.55-.99-.64,.14-1.24,.41-1.84,.67-1.89,.83-3.78,1.65-5.67,2.48l-.31,.21c2.63,7.97,.54,16.89,3.02,24.91,.07,.21,.14,.43,.31,.57,.15,.12,.34,.16,.52,.2,1.22,.24,2.45,.49,3.7,.55,2.54,.12,5.07-.56,7.41-1.56,.82-.35,1.63-.75,2.3-1.33,.89-.78,1.46-1.85,1.93-2.94,.6-1.4,1.07-2.89,1.04-4.41-.05-2.61-1.67-5.12-4.03-6.24Zm-10.31-1.52c-.1-.08-.15-.2-.2-.32-.71-1.71-1.17-3.52-1.37-5.37l.18-.57c1.06-.28,2.16-.49,3.26-.37,1.09,.12,2.18,.62,2.82,1.51,.31,.43,.51,.96,.43,1.48-.1,.66-.6,1.17-1.11,1.6-.98,.83-2.09,1.5-3.27,2-.24,.1-.53,.19-.74,.03Zm8.8,12.07c-.96,1.04-2.37,1.57-3.77,1.73-1.4,.16-2.82,0-4.22-.18v-6.87l.07-.14c.75-.37,1.6-.48,2.43-.57,1.17-.12,2.37-.21,3.52,.07,1.15,.27,2.25,.97,2.75,2.04,.59,1.28,.18,2.88-.78,3.92Z" fill="#fff"/><g><path d="M74.52,149.58c-.91-.4-1.87-.69-2.79-1.06l.35,.86c.94-2.01,2.57-4.33,2.1-6.65-.43-2.13-1.83-4.21-3.65-5.38s-4.08-1.34-6.14-.5c-1.18,.48-2.35,1.02-3.52,1.53-1.04,.45-2.21,.82-3.14,1.45-.21,.14-.35,.4-.27,.66,1.36,4.27,1.44,8.74,1.57,13.19,.06,2.1,.13,4.21,.37,6.31,.21,1.82,.36,4.16,1.22,5.8,.3,.56,.73,.71,1.33,.84,1.04,.22,2.1,.41,3.16,.49,2.08,.17,4.17-.19,6.14-.83,1.65-.54,3.5-1.2,4.74-2.47s1.95-3.01,2.43-4.64c1.11-3.78-.31-7.77-3.89-9.59-.67-.34-1.26,.67-.59,1.01,1.79,.91,3.13,2.51,3.58,4.48,.52,2.26-.33,4.84-1.5,6.78-1.23,2.04-3.52,2.87-5.71,3.51-2.36,.68-4.69,.76-7.11,.32-.54-.1-1.22-.08-1.58-.58-.28-.4-.35-1.26-.46-1.73-.26-1.11-.44-2.24-.57-3.37-.26-2.24-.32-4.5-.39-6.76-.12-4.4-.25-8.82-1.6-13.05l-.27,.66c1.37-.93,3.16-1.46,4.67-2.12,2.06-.9,3.91-1.79,6.13-.8,1.85,.82,3.19,2.62,3.78,4.53,.67,2.2-.93,4.41-1.83,6.34-.17,.37-.02,.71,.35,.86,.83,.33,1.7,.58,2.51,.94,.68,.3,1.28-.7,.59-1.01Z" fill="#fff"/><path d="M64.33,148.15c-.17-.17-.24-.53-.32-.75-.1-.27-.19-.54-.28-.82-.18-.57-.34-1.15-.47-1.73-.07-.3-.13-.6-.18-.91-.05-.27-.05-.56-.12-.82,.02-.12,0-.15-.05-.1l.02-.06c0-.05,.03-.11,.05-.16l.11-.35-.41,.41c1.11-.29,2.31-.54,3.45-.28,.91,.2,1.91,.74,2.25,1.67,.37,1.03-.72,1.79-1.43,2.31-.46,.33-.93,.63-1.43,.9-.24,.13-.48,.25-.73,.37-.12,.06-.25,.12-.38,.17-.06,.02-.13,.04-.19,.06-.05,0-.05,0,0,0-.64-.39-1.23,.62-.59,1.01,.74,.45,1.67-.15,2.33-.5,.75-.39,1.45-.87,2.12-1.39,.6-.48,1.2-1.03,1.45-1.78,.27-.8,.01-1.66-.48-2.32-.99-1.32-2.68-1.83-4.27-1.75-.43,.02-.86,.08-1.29,.16-.21,.04-.42,.08-.62,.13-.25,.06-.56,.09-.75,.27-.15,.15-.2,.4-.26,.6-.1,.3-.07,.56-.03,.87,.13,.99,.33,1.97,.6,2.93,.14,.47,.29,.94,.46,1.41,.16,.42,.29,.94,.62,1.26,.53,.53,1.36-.3,.83-.83Z" fill="#fff"/><path d="M72.31,160.22c-1.96,2.05-5.04,1.69-7.58,1.38l.58,.58v-6.53c.02-.2,0-.23-.07-.08,.06-.1,.05-.09,0,.04,.1-.04,.2-.08,.3-.11,.2-.06,.4-.11,.61-.16,.8-.17,1.64-.23,2.46-.26,1.44-.06,3.12,.16,4.07,1.38,.89,1.14,.54,2.74-.37,3.75-.5,.56,.32,1.39,.83,.83,.91-1.02,1.4-2.38,1.16-3.74s-1.32-2.4-2.56-2.92c-1.45-.61-3.05-.51-4.58-.35-.78,.08-1.56,.18-2.3,.48-.27,.11-.52,.22-.65,.5-.18,.38-.08,.91-.08,1.33v5.84c0,.34,.28,.55,.59,.58,2.88,.35,6.22,.57,8.41-1.72,.52-.54-.31-1.37-.83-.83Z" fill="#fff"/></g></g><g><path d="M95.03,157.7c-1.93-.09-3.85-.18-5.78-.26-.65-.03-1.34-.07-1.87-.45-.71-.5-.93-1.44-1.09-2.3l-.7-3.66c1.6-.23,3.17-.64,4.67-1.22,.27-.1,.54-.22,.74-.42,.46-.46,.41-1.21,.32-1.86-.03-.2-.06-.41-.2-.54-.14-.13-.34-.15-.52-.17-2.03-.21-4.07-.3-6.11-.29-.14-2.37-.29-4.75-.43-7.12,2.93-.17,6.03-.39,8.46-2.04,.41-.28,.81-.61,1.02-1.05,.22-.44,.22-1.02-.11-1.39h-.21c-3.79-.3-7.87-.55-11.11,1.43-.35,.21-.7,.46-.93,.8-.22,.33-.33,.72-.42,1.11-.88,3.76-.7,7.77,.51,11.43,.46,1.39,1.06,2.72,1.52,4.11,.62,1.88,.97,3.84,1.24,5.8,.11,.82,.25,1.72,.89,2.24,.32,.26,.72,.39,1.13,.48,3.01,.66,6.06-.63,8.87-1.9,.48-.22,.98-.45,1.31-.85,.33-.41,.44-1.05,.1-1.45-.3-.35-.82-.4-1.28-.42Z" fill="#fff"/><path d="M95.03,157.11c-1.12-.05-2.25-.1-3.37-.15-1.05-.05-2.41,.09-3.42-.23-1.17-.37-1.27-1.64-1.47-2.66s-.41-2.14-.61-3.2l-.41,.72c1.66-.25,3.41-.62,4.93-1.33,1.01-.47,1.34-1.31,1.26-2.4-.09-1.25-.63-1.56-1.81-1.68-1.87-.18-3.76-.25-5.64-.24l.58,.58c-.14-2.37-.29-4.75-.43-7.12l-.58,.58c2.44-.14,4.95-.31,7.23-1.29,1.34-.58,3.77-1.98,2.81-3.82-.35-.68-1.01-.55-1.69-.6-1.37-.1-2.75-.18-4.13-.12-2.33,.09-4.87,.53-6.81,1.93-1.82,1.32-1.8,4.57-1.84,6.6-.05,2.73,.44,5.44,1.37,8,1,2.72,1.9,5.31,2.34,8.18,.15,1.02,.18,2.18,.83,3.04s1.77,1.06,2.78,1.15c2.91,.27,6.09-.93,8.62-2.29,2.03-1.09,1.98-3.46-.53-3.64-.75-.05-.75,1.12,0,1.17,1.21,.09,.45,1.21-.24,1.55-.57,.28-1.16,.53-1.75,.77-.86,.36-1.74,.69-2.65,.93-1.12,.3-2.29,.47-3.45,.35-.68-.07-1.55-.2-1.96-.86-.22-.35-.27-.81-.34-1.22-.34-1.93-.57-3.84-1.15-5.72s-1.46-3.69-1.98-5.61-.77-3.99-.71-6.02c.03-1.06,.14-2.12,.34-3.16,.24-1.25,.59-2.1,1.79-2.73,3.35-1.76,6.92-1.04,10.5-1.06l-.5-.29c1.03,1.58-3.04,2.8-4.02,3.03-1.59,.38-3.22,.48-4.85,.57-.3,.02-.6,.25-.58,.58,.14,2.37,.29,4.75,.43,7.12,.02,.31,.25,.58,.58,.58,1.1,0,2.2,.02,3.29,.07,.86,.05,2.74-.17,3,.85,.43,1.69-4.24,2.27-5.35,2.44-.33,.05-.46,.44-.41,.72,.26,1.38,.48,2.78,.8,4.15,.2,.83,.53,1.66,1.26,2.16,.89,.61,2.11,.53,3.13,.57,1.61,.07,3.21,.15,4.82,.22,.75,.03,.75-1.13,0-1.17Z" fill="#fff"/></g><g><path d="M113.77,131.33c-1.2,.33-1.84,1.61-2.25,2.78-.64,1.85-1.07,3.78-1.28,5.73l-.22,.26c-.79,.07-1.64,.13-2.33-.26-.83-.46-1.23-1.41-1.67-2.26-.74-1.41-1.77-2.66-3-3.67-.38-.31-.82-.61-1.3-.58-.8,.04-1.28,.9-1.47,1.67-.35,1.44-.21,3,.41,4.36,.41,.91,1.02,1.71,1.63,2.51,1.52,2,3.07,4.02,5.07,5.54,.12,.09,.25,.19,.34,.32,.1,.15,.13,.34,.16,.52,.5,3.2,1.01,6.4,1.51,9.59,.16,1.04,.49,2.27,1.49,2.58,.91,.28,1.88-.45,2.22-1.33,.34-.89,.22-1.87,.12-2.82-.36-3.29-.52-6.6-.67-9.9-.02-.51-.04-1.03,.13-1.51,.16-.44,.48-.8,.77-1.17,1.89-2.47,2.43-5.67,2.9-8.74,.13-.86,.26-1.79-.14-2.56-.43-.84-1.48-1.3-2.39-1.05Z" fill="#fff"/><path d="M113.61,130.76c-2.65,.95-3.26,4.71-3.69,7.13-.06,.33-.06,1.54-.27,1.72,.09-.08-.83-.06-.85-.06-.77-.09-1.19-.37-1.61-.99-.83-1.22-1.36-2.55-2.35-3.68-.73-.84-1.9-2.19-3.14-2.13-1.01,.04-1.65,.93-1.95,1.81-1.06,3.15,.68,5.88,2.52,8.27,.88,1.15,1.78,2.29,2.79,3.32,.57,.58,1.35,1.06,1.86,1.67,.61,.72,.58,2.05,.72,2.98l.83,5.28c.21,1.33,.23,3.03,1.12,4.14,.62,.78,1.62,1.05,2.54,.64,1.17-.52,1.67-1.75,1.72-2.96,.08-1.84-.32-3.75-.45-5.59-.14-1.98-.27-3.97-.32-5.95-.05-1.85,1.5-3.17,2.2-4.82s1.08-3.46,1.38-5.24c.22-1.32,.67-2.96,0-4.22-.61-1.12-1.85-1.54-3.05-1.32-.74,.14-.43,1.26,.31,1.13,3.27-.6,1.38,5.74,.95,7.3-.34,1.24-.81,2.45-1.51,3.54-.62,.96-1.38,1.67-1.45,2.87-.09,1.39,.1,2.85,.18,4.24,.09,1.57,.19,3.14,.33,4.7,.11,1.28,.61,3.06,.08,4.29s-1.76,1.29-2.29,.12c-.24-.54-.29-1.18-.38-1.75-.48-3-.72-6.16-1.43-9.11-.23-.94-.91-1.27-1.61-1.9-1.04-.93-1.95-1.99-2.82-3.08-1.79-2.24-4.06-4.85-3.17-7.96,.24-.84,.68-1.44,1.62-.96,.57,.29,1.18,1.03,1.6,1.51,.88,1.01,1.39,2.16,2.08,3.29,.54,.88,1.27,1.52,2.32,1.68,.72,.11,1.85,.27,2.28-.48,.31-.54,.25-1.39,.36-1.99,.13-.74,.3-1.48,.49-2.21,.38-1.41,.82-3.55,2.38-4.11,.7-.25,.4-1.38-.31-1.13Z" fill="#fff"/></g><g><path d="M137.57,136.96c-.28-.84-.75-1.6-1.21-2.35-.77-1.25-1.53-2.51-2.3-3.76-.21-.35-.45-.72-.84-.87l-.07,.07c-1.91-.96-4.22-1.5-6.18-.63-.69,.31-1.3,.77-1.9,1.25-.81,.64-1.61,1.3-2.25,2.1-1.32,1.65-1.88,3.79-2.13,5.89-.31,2.59-.2,5.22-.09,7.82,.05,1.14,.1,2.29,.39,3.39,.29,1.1,.82,2.11,1.36,3.11,.33,.61,.67,1.22,1.15,1.71,.65,.66,1.52,1.05,2.39,1.36,1.9,.67,3.96,.96,5.94,.58,2.54-.49,4.91-2.25,5.69-4.72,.33-1.04,.37-2.14,.41-3.23,.1-2.91,.21-5.83,.08-8.74-.05-1.01-.12-2.03-.45-2.98Zm-3.22,6.99c-.11,1.72-.37,3.43-.78,5.1-.32,1.31-.83,2.73-2.03,3.32-1.1,.55-2.49,.19-3.43-.6-.94-.79-1.5-1.94-1.9-3.11-1.16-3.39-1.16-7.1-.57-10.64,.19-1.14,.45-2.32,1.13-3.26s1.88-1.59,3.01-1.3l.44-.02c.79,.3,1.35,1.01,1.72,1.77,.37,.76,.59,1.58,.93,2.35,.34,.79,.81,1.52,1.1,2.33,.46,1.28,.48,2.68,.39,4.04Z" fill="#fff"/><g><path d="M138.13,136.8c-.56-1.49-1.46-2.81-2.29-4.16-.64-1.04-1.21-2.54-2.32-3.16-.23-.13-.52-.09-.71,.09l-.07,.07,.71-.09c-1.98-.95-4.29-1.59-6.43-.77-1.82,.7-3.66,2.32-4.81,3.85-2.93,3.9-2.39,9.71-2.17,14.28,.12,2.34,.69,4.31,1.81,6.37s2.67,3.05,4.92,3.65c3.87,1.04,8.48,.21,10.69-3.45,1.35-2.25,1.09-5.19,1.16-7.71,.08-2.9,.36-6.15-.49-8.97-.22-.72-1.34-.41-1.13,.31,.6,1.98,.5,4.17,.49,6.23-.01,2.16-.02,4.36-.2,6.51-.34,4.13-3.8,6.55-7.82,6.35-1.93-.1-4.46-.65-5.78-2.18s-2.21-3.84-2.42-5.83c-.4-3.87-.62-8.35,.51-12.11,.7-2.34,2.23-3.96,4.17-5.37,2.16-1.58,4.57-1.26,6.88-.15,.24,.11,.51,.1,.71-.09l.07-.07-.71,.09c.97,.54,1.6,2.25,2.16,3.16,.69,1.12,1.45,2.23,1.91,3.46,.26,.7,1.39,.39,1.13-.31Z" fill="#fff"/><path d="M133.77,143.95c-.16,2.27-.61,9.79-4.65,7.8-1.66-.82-2.32-2.89-2.74-4.56-.47-1.86-.6-3.78-.52-5.69,.1-2.43,.43-8.5,4.32-7.42,.82,.23,1.3,1.49,1.57,2.18,.29,.74,.54,1.48,.89,2.2,.42,.85,.85,1.65,1.03,2.59s.15,1.94,.1,2.9c-.04,.75,1.13,.75,1.17,0,.11-1.84-.04-3.55-.85-5.22-.42-.87-.82-1.72-1.16-2.64-.26-.71-.55-1.4-1.01-2.01-1.9-2.46-5.21-.99-6.24,1.5-.67,1.61-.83,3.49-.95,5.21-.13,1.9-.05,3.81,.31,5.69,.54,2.83,2.11,7.2,5.79,6.7,1.64-.22,2.57-1.6,3.06-3.06,.66-1.97,.91-4.12,1.06-6.18,.05-.75-1.12-.75-1.17,0Z" fill="#fff"/></g></g><g><path d="M161.2,133.71c-.08-1.83-.16-3.69-.64-5.46-.18-.66-.44-1.34-.95-1.8s-1.35-.62-1.89-.2c-.32,.25-.49,.65-.6,1.04-.25,.87-.31,1.78-.33,2.68-.15,5.34,.73,10.67,.48,16-.03,.69-.24,1.57-.92,1.69l-.32-.38c-1.26-1.19-2.19-2.69-3.09-4.17-.77-1.27-1.54-2.55-2.08-3.93-.56-1.43-.85-2.94-1.43-4.36-1.03-2.54-2.97-4.7-5.38-6.01-.7-.38-1.57-.69-2.28-.33-.53,.27-.83,.85-.98,1.42-.55,2.09,.46,4.27,.39,6.43-.03,.73-.18,1.47-.08,2.19,.14,1.07,.8,1.98,1.24,2.97,1.75,3.99-.27,8.85,1.4,12.88,.14,.33,.31,.66,.61,.85,.55,.34,1.32,.04,1.69-.5,.37-.53,.45-1.21,.49-1.86,.25-3.61-.02-7.25-.68-10.8,1.86,1.11,2.96,3.14,4.59,4.57,.76,.67,1.65,1.2,2.36,1.93,1.19,1.21,1.9,2.93,3.39,3.74,1.53,.82,3.64,.3,4.6-1.14,.7-1.04,.79-2.36,.83-3.62,.07-2.7-.04-5.4-.15-8.1-.08-1.91-.16-3.82-.24-5.73Z" fill="#fff"/><path d="M161.79,133.71c-.1-2.25,.07-5.8-1.65-7.55-.6-.6-1.54-.93-2.36-.61-.99,.39-1.27,1.52-1.43,2.46-.5,2.99-.13,6.22,.06,9.23,.11,1.7,.22,3.39,.27,5.09,.02,.84,.49,4.4-.51,4.76l.57,.15c-1.64-1.97-3.08-3.91-4.34-6.16s-1.68-5.03-2.88-7.42c-1.06-2.1-6.73-8.82-9-4.73-1.19,2.13,0,4.73,.05,6.96,.03,1.21-.26,2.37,.14,3.55s1.18,2.26,1.49,3.53c.61,2.49,.15,5.1,.23,7.62,.05,1.49,.17,4.83,2.03,5.3,4.62,1.16,2.3-11.94,1.93-13.99l-.86,.66c1.49,.95,2.46,2.41,3.65,3.68,1.13,1.2,2.62,2,3.66,3.28,1.67,2.05,3.22,4.54,6.29,3.53s3.06-4.67,3.06-7.41c0-3.97-.25-7.95-.42-11.92-.03-.75-1.2-.75-1.17,0,.14,3.34,.32,6.68,.39,10.02,.06,2.64,.83,8.03-2.97,8.37-1.55,.14-2.55-.97-3.39-2.1-.76-1.02-1.48-1.95-2.5-2.74-1.18-.92-2.18-1.86-3.15-2.99-.87-1.02-1.74-1.97-2.87-2.7-.47-.3-.94,.19-.86,.66,.41,2.27,.68,4.57,.74,6.88,.03,1.1,.02,2.2-.05,3.3-.03,.48-.01,1.02-.18,1.48-.21,.57-.71,1.25-1.4,.53-.19-.2-.28-.68-.36-.95-1.15-3.68,.34-7.66-.84-11.36-.27-.83-.7-1.56-1.07-2.35-.54-1.16-.39-2.18-.35-3.41,.06-2.07-.98-4.24-.41-6.27,.79-2.82,4.52,.63,5.49,1.7,1.4,1.56,2.15,3.4,2.75,5.39,1.25,4.19,3.58,7.61,6.35,10.93,.12,.15,.39,.21,.57,.15,1.72-.61,1.4-2.98,1.4-4.43,0-2.75-.24-5.5-.4-8.24-.07-1.29-.13-2.59-.14-3.88,0-1.22-.25-3.12,.33-4.22l.16-.43,1.19-.26c.26,.07,.55,.58,.67,.82,.27,.52,.39,1.16,.5,1.73,.3,1.45,.35,2.94,.41,4.41,.03,.75,1.2,.75,1.17,0Z" fill="#fff"/></g><g><path d="M181.35,129.29c-.28-.86-.6-1.74-1.23-2.39-.46-.47-1.04-.78-1.62-1.09-1.57-.84-3.19-1.69-4.96-1.91-2.46-.3-4.89,.67-7.13,1.73-.29,.14-.63,.37-.58,.68l.31-.16c.14,7.63,1.69,15.15,3.23,22.62,.08,.38,.16,.77,.41,1.06,.26,.31,.67,.46,1.06,.55,2.17,.52,4.5-.21,6.28-1.55,1.78-1.34,3.08-3.22,4.13-5.19,.38-.72,.74-1.45,.95-2.24,.24-.89,.28-1.82,.33-2.74,.05-1.06,.1-2.13,.05-3.19-.1-2.11-.61-4.18-1.26-6.19Zm-2.96,12.17c-.81,1.82-2.39,3.38-4.34,3.8-1.31-2.4-1.81-5.15-2.26-7.84-.45-2.68-.88-5.36-1.29-8.05l-.02-.32c.92-.64,2.17-.42,3.24-.08,1.78,.56,3.58,1.45,4.54,3.05,.65,1.07,.85,2.34,.94,3.58,.14,1.99,0,4.05-.81,5.87Z" fill="#fff"/><g><path d="M181.91,129.13c-.54-1.63-1.25-2.77-2.77-3.64s-3.24-1.76-5.01-2.08-3.4-.05-5.03,.48c-1.14,.37-3.55,.92-3.84,2.27-.11,.51,.39,.89,.86,.66l.31-.16-.88-.5c.09,4.11,.56,8.19,1.23,12.24,.34,2.08,.74,4.16,1.15,6.23,.19,.96,.39,1.91,.58,2.87,.17,.84,.22,1.92,.77,2.63,.72,.94,2.23,1.04,3.31,1,1.55-.07,3.06-.61,4.35-1.45,2.64-1.72,4.88-4.91,5.78-7.92,.58-1.95,.56-4.26,.46-6.28-.11-2.17-.62-4.28-1.28-6.35-.23-.71-1.35-.41-1.13,.31,.67,2.11,1.19,4.27,1.25,6.49,.05,1.97,.1,4.24-.63,6.09-1.38,3.52-4.32,7.38-8.3,7.89-1.04,.13-2.52,.2-3.07-.91-.44-.88-.48-2.29-.67-3.24-.42-2.07-.83-4.14-1.19-6.22-.77-4.42-1.33-8.88-1.43-13.37-.01-.46-.48-.7-.88-.5l-.31,.16,.86,.66c.12-.54,1.57-.91,1.99-1.07,.55-.22,1.1-.41,1.67-.57,1.46-.41,2.94-.53,4.42-.14,1.32,.35,2.54,.99,3.73,1.63,1.38,.74,2.09,1.64,2.58,3.13,.24,.71,1.36,.41,1.13-.31Z" fill="#fff"/><path d="M177.89,141.16c-.79,1.7-2.13,3.08-3.99,3.53l.66,.27c-1.27-2.39-1.76-5.06-2.2-7.71-.24-1.44-.48-2.89-.71-4.33-.2-1.28-.51-2.59-.58-3.88l-.29,.5c1.21-.73,2.85-.08,4.04,.43s2.36,1.28,3.02,2.44c.71,1.24,.81,2.77,.83,4.17,.03,1.56-.16,3.13-.78,4.57-.29,.68,.71,1.28,1.01,.59,.72-1.69,.98-3.48,.94-5.3-.04-1.72-.24-3.59-1.26-5.04-.89-1.27-2.23-2.08-3.65-2.64-1.49-.6-3.26-1.12-4.73-.23-.17,.1-.3,.3-.29,.5,.06,1.29,.36,2.6,.57,3.88,.25,1.55,.5,3.09,.76,4.64,.46,2.75,1,5.5,2.32,7.98,.12,.23,.41,.33,.66,.27,2.13-.51,3.77-2.11,4.69-4.07,.32-.68-.69-1.27-1.01-.59Z" fill="#fff"/></g></g></g></g></svg>