<svg xmlns="http://www.w3.org/2000/svg" viewBox="0 0 250 82"><path d="M5.29.9h6.63v11.93h12.23V.9h6.63v30.14h-6.63v-12.1H11.92v12.1H5.29V.9zM45.95.69h6.11l12.92 30.35h-6.93l-2.76-6.76H42.55l-2.76 6.76h-6.76L45.95.69zm6.97 17.73l-4-9.77-4 9.77h8.01zM67.59.9h6.11l14.12 18.56V.9h6.54v30.14h-5.64L74.13 11.88v19.16h-6.54V.9zM99.7.9h11.75c9.47 0 16.02 6.5 16.02 14.98v.09c0 8.48-6.54 15.07-16.02 15.07H99.7V.9zm11.75 24.15c5.42 0 9.08-3.66 9.08-9v-.09c0-5.34-3.66-9.08-9.08-9.08h-5.12v18.17h5.12zM128.83 26.65l3.92-4.69c2.71 2.24 5.55 3.66 9 3.66 2.71 0 4.35-1.08 4.35-2.84v-.09c0-1.68-1.03-2.54-6.07-3.83-6.07-1.55-9.99-3.23-9.99-9.21v-.09c0-5.47 4.39-9.08 10.55-9.08 4.39 0 8.14 1.38 11.19 3.83l-3.44 4.99c-2.67-1.85-5.3-2.97-7.84-2.97s-3.87 1.16-3.87 2.63v.09c0 1.98 1.29 2.63 6.5 3.96 6.11 1.59 9.56 3.79 9.56 9.04v.09c0 5.98-4.56 9.34-11.06 9.34-4.56 0-9.17-1.59-12.79-4.82zM154.85 16.06v-.09c0-8.57 6.76-15.59 16.06-15.59s15.97 6.93 15.97 15.5v.09c0 8.57-6.76 15.59-16.06 15.59s-15.97-6.93-15.97-15.5zm25.1 0v-.09c0-5.17-3.79-9.47-9.13-9.47s-9.04 4.22-9.04 9.39v.09c0 5.17 3.79 9.47 9.13 9.47s9.04-4.22 9.04-9.39zM190.59.9h7.15l7.92 12.74L213.58.9h7.15v30.14h-6.59V11.36l-8.48 12.87h-.17l-8.4-12.74v19.55h-6.5V.9zM226.21.9h22.73v5.9H232.8v6.11h14.21v5.9H232.8v6.33h16.36v5.9h-22.95V.9zM0 74.97l6.02-6.7c2.48 2.73 4.9 4.34 7.94 4.34 3.6 0 5.83-2.17 5.83-7.2V37.42h9.81v28.43c0 5.15-1.49 9-4.1 11.61s-6.58 4.03-11.3 4.03c-6.77 0-11.23-2.98-14.21-6.52zM37.5 62.25V37.42h9.56V62c0 7.08 3.54 10.74 9.37 10.74s9.37-3.54 9.37-10.43V37.42h9.56v24.52c0 13.16-7.39 19.61-19.05 19.61S37.5 75.03 37.5 62.25zM79.88 74.54l5.65-6.77c3.91 3.23 8.01 5.28 12.97 5.28 3.91 0 6.27-1.55 6.27-4.1v-.12c0-2.42-1.49-3.66-8.75-5.52-8.75-2.23-14.4-4.66-14.4-13.28v-.12c0-7.88 6.33-13.1 15.21-13.1 6.33 0 11.73 1.99 16.14 5.52l-4.97 7.2c-3.85-2.67-7.63-4.28-11.3-4.28s-5.59 1.68-5.59 3.79v.12c0 2.86 1.86 3.79 9.37 5.71 8.81 2.3 13.78 5.46 13.78 13.03v.12c0 8.63-6.58 13.47-15.95 13.47-6.58 0-13.22-2.3-18.43-6.95zM129.9 46.24h-13.22v-8.81h36v8.81h-13.22v34.63h-9.56V46.24zM157 37.42h9.56v43.45H157V37.42zM172.44 59.27v-.12c0-12.35 9.31-22.47 22.66-22.47 8.19 0 13.1 2.73 17.13 6.7l-6.08 7.01c-3.35-3.04-6.77-4.9-11.11-4.9-7.32 0-12.6 6.08-12.6 13.53v.12c0 7.45 5.15 13.66 12.6 13.66 4.96 0 8.01-1.99 11.42-5.09l6.08 6.14c-4.47 4.78-9.43 7.76-17.81 7.76-12.79 0-22.28-9.87-22.28-22.34zM216.92 37.42h32.77v8.5h-23.28v8.81h20.48v8.5h-20.48v9.12H250v8.5h-33.08V37.4z" fill="#fff"/></svg>