<svg xmlns="http://www.w3.org/2000/svg" width="180" height="155" viewBox="0 0 180 155"><path d="M5,6.43H.57V.51h15V6.43h-4.4V36.25H5Z" fill="#fff"/><path d="M18.18.51h6.23V15.32h5.41V.51h6.23V36.25H29.82v-15H24.41v15H18.18Z" fill="#fff"/><path d="M39.73.51H53.41V6.43H46v8.89h6.59v5.92H46v9.09h7.61v5.92H39.73Z" fill="#fff"/><path d="M64.08,19V17.77C64.08,6.23,69,.26,76,.26a10.77,10.77,0,0,1,4.75,1V7.76a8.63,8.63,0,0,0-4.54-1.53c-3.57,0-5.82,3.57-5.82,11.28v1.74c0,9.34,2.76,11.48,5.31,11.48a2.58,2.58,0,0,0,.56-.05V21.54H73.22V16H82V35a15.33,15.33,0,0,1-6.49,1.53C69.23,36.5,64.08,31.45,64.08,19Z" fill="#fff"/><path d="M85.37.51H99.05V6.43H91.6v8.89h6.58v5.92H91.6v9.09h7.6v5.92H85.37Z" fill="#fff"/><path d="M101.09,19.3V17.46c0-11.79,3.83-17.46,9.5-17.46s9.5,5.67,9.5,17.46V19.3c0,11.79-3.83,17.46-9.5,17.46S101.09,31.09,101.09,19.3Zm12.67,0V17.46c0-9.19-1.28-11.74-3.17-11.74s-3.17,2.55-3.17,11.74V19.3c0,9.19,1.28,11.74,3.17,11.74S113.76,28.49,113.76,19.3Z" fill="#fff"/><path d="M123.15.51h6.43c6.38,0,11,3.37,11,11.39v.46c0,4.64-1.84,7.6-4.19,9.39l4.8,14.5h-6.63l-4-12.46h-1.17V36.25h-6.23Zm6.53,17.67c2.71,0,4.7-1.59,4.7-5.77V12c0-4.5-2.14-5.67-4.85-5.67h-.15V18.18Z" fill="#fff"/><path d="M142.86,19V17.77c0-11.54,4.9-17.51,11.94-17.51a10.77,10.77,0,0,1,4.75,1V7.76A8.63,8.63,0,0,0,155,6.23c-3.58,0-5.82,3.57-5.82,11.28v1.74c0,9.34,2.76,11.48,5.31,11.48a2.58,2.58,0,0,0,.56-.05V21.54H152V16h8.73V35a15.33,15.33,0,0,1-6.49,1.53C148,36.5,142.86,31.45,142.86,19Z" fill="#fff"/><path d="M164.15.51h13.68V6.43h-7.45v8.89H177v5.92h-6.58v9.09H178v5.92H164.15Z" fill="#fff"/><path d="M.68,98.25V89.62c2.92,1.7,5.23,2.65,7.47,2.65s4.42-1.16,4.42-4.08v-.13c0-2.18-.68-3.81-4.62-8.29C2.31,73.39,0,70.33,0,64.56v-.14C0,56.81,5,52,11.55,52a14.93,14.93,0,0,1,7.33,1.5v8.62c-2.58-1.49-4.14-2.17-6.31-2.17A4,4,0,0,0,8.29,64v.14c0,2.24.68,3.06,4.62,7.61,6.52,7.54,7.94,10.46,7.94,15.89v.14c0,7.47-5.23,12.43-11.75,12.43A19.08,19.08,0,0,1,.68,98.25Z" fill="#fff"/><path d="M23.91,52.33H32.2V99.88H23.91Z" fill="#fff"/><path d="M37.22,52.33h8.22l5.84,17.39,5.84-17.39h8.22V99.88H57.4V71.15l-6,18h-.14l-6-18V99.88h-8Z" fill="#fff"/><path d="M70.23,52.33h8.22l5.84,17.39,5.85-17.39h8.21V99.88H90.41V71.15l-6,18h-.13l-6-18V99.88h-8Z" fill="#fff"/><path d="M102.43,77.33V74.88c0-15.69,5.09-23.23,12.63-23.23s12.64,7.54,12.64,23.23v2.45c0,15.69-5.1,23.23-12.64,23.23S102.43,93,102.43,77.33Zm16.85,0V74.88c0-12.22-1.7-15.62-4.22-15.62s-4.21,3.4-4.21,15.62v2.45c0,12.22,1.7,15.62,4.21,15.62S119.28,89.55,119.28,77.33Z" fill="#fff"/><path d="M131.77,52.33h7.75l8.35,24v-24H156V99.88h-7.33l-8.76-25.2v25.2h-8.09Z" fill="#fff"/><path d="M159.83,98.25V89.62c2.92,1.7,5.23,2.65,7.47,2.65s4.41-1.16,4.41-4.08v-.13c0-2.18-.68-3.81-4.62-8.29-5.63-6.38-7.94-9.44-7.94-15.21v-.14c0-7.61,5-12.43,11.54-12.43a15,15,0,0,1,7.34,1.5v8.62c-2.58-1.49-4.14-2.17-6.32-2.17A4,4,0,0,0,167.43,64v.14c0,2.24.68,3.06,4.62,7.61C178.57,79.3,180,82.22,180,87.65v.14c0,7.47-5.23,12.43-11.75,12.43A19,19,0,0,1,159.83,98.25Z" fill="#fff"/><path d="M1.2,135.22v-1.29c0-13.19,4.88-18.39,11-18.39a8.91,8.91,0,0,1,4.28.86v6.75a6.91,6.91,0,0,0-3.64-1.23c-2.9,0-5,2.57-5,12v1.39c0,9.92,2.09,12,5.1,12a7.44,7.44,0,0,0,3.64-1.18v6.43a9,9,0,0,1-4.82,1.13C5.76,153.61,1.2,148.3,1.2,135.22Z" fill="#fff"/><path d="M17.88,135.54v-1.93c0-12.39,4-18.34,10-18.34s10,6,10,18.34v1.93c0,12.38-4,18.34-10,18.34S17.88,147.92,17.88,135.54Zm13.3,0v-1.93c0-9.65-1.34-12.33-3.33-12.33s-3.32,2.68-3.32,12.33v1.93c0,9.65,1.34,12.33,3.32,12.33S31.18,145.19,31.18,135.54Z" fill="#fff"/><path d="M41,115.81h6.54v31.31H54.5v6.22H41Z" fill="#fff"/><path d="M57.13,115.81h6.54v31.31h6.92v6.22H57.13Z" fill="#fff"/><path d="M73.21,115.81H87.58V122H79.75v9.33h6.92v6.22H79.75v9.54h8v6.22H73.21Z" fill="#fff"/><path d="M89.73,135.22v-1.29c0-13.19,4.88-18.39,11-18.39a9,9,0,0,1,4.29.86v6.75a6.92,6.92,0,0,0-3.65-1.23c-2.89,0-5,2.57-5,12v1.39c0,9.92,2.09,12,5.09,12a7.44,7.44,0,0,0,3.65-1.18v6.43a9.07,9.07,0,0,1-4.83,1.13C94.29,153.61,89.73,148.3,89.73,135.22Z" fill="#fff"/><path d="M111.87,122h-4.61v-6.22H123V122h-4.61v31.31h-6.54Z" fill="#fff"/><path d="M125.87,115.81h6.54v37.53h-6.54Z" fill="#fff"/><path d="M135.73,135.54v-1.93c0-12.39,4-18.34,10-18.34s10,6,10,18.34v1.93c0,12.38-4,18.34-10,18.34S135.73,147.92,135.73,135.54Zm13.3,0v-1.93c0-9.65-1.34-12.33-3.32-12.33s-3.33,2.68-3.33,12.33v1.93c0,9.65,1.34,12.33,3.33,12.33S149,145.19,149,135.54Z" fill="#fff"/><path d="M158.9,115.81H165l6.59,19v-19H178v37.53h-5.79l-6.91-19.89v19.89H158.9Z" fill="#fff"/></svg>