<svg xmlns="http://www.w3.org/2000/svg" viewBox="0 0 220 132"><path d="M9.21.65h7.56l7.74 40.84h-7.1l-1.34-8.09H9.61l-1.28 8.09H1.47L9.21.65zm5.82 26.36l-2.15-13.44-2.21 13.44h4.36zM67.53 7.52h-5V.77h17.1v6.75h-5v33.97h-7.1V7.52zM100.41.65h7.56l7.74 40.84h-7.1l-1.34-8.09h-6.46l-1.28 8.09h-6.86L100.41.65zm5.81 26.36l-2.15-13.44-2.21 13.44h4.36zM131.56.77h7.1v33.97h9.14v6.75h-16.24V.77zM164.61.77h7.1v17.04L177.47.77h8.03l-6.86 17.22 6.98 23.5h-7.91l-4.42-15.42-1.57 4.48v10.94h-7.1V.77zM215.76.78v2.55h-14.62V.78h14.62zM215.76 4.87v2.38l-7.39 2.57h7.39v2.49h-14.62v-2.26l7.75-2.69h-7.75V4.87h14.62zM213.34 19.02v-1.8h2.42v6.14h-2.42v-1.8h-12.2v-2.55h12.2zM215.76 25.54v2.55h-6.06v2.21h6.06v2.55h-14.62V30.3h6.14v-2.21h-6.14v-2.55h14.62zM215.76 35.07v5.6h-2.42v-3.05h-3.63v2.69h-2.42v-2.69h-3.72v3.11h-2.42v-5.66h14.62zM129.95 121.68h1.29l-.64-3.98-.65 3.98zM76.76 115.86h-.07v4.37h.02c.88-.05 1.55-.69 1.55-2.15v-.03c0-1.53-.58-2.18-1.5-2.18zM88.96 115.67c-.64 0-1.07.86-1.07 3.96v.62c0 3.1.43 3.96 1.07 3.96s1.07-.86 1.07-3.96v-.62c0-3.1-.43-3.96-1.07-3.96zM100.09 115.88h-.05v3.99h.1c.91 0 1.58-.53 1.58-1.94v-.14c0-1.51-.72-1.91-1.63-1.91zM159.72 115.67c-.64 0-1.07.86-1.07 3.96v.62c0 3.1.43 3.96 1.07 3.96s1.07-.86 1.07-3.96v-.62c0-3.1-.43-3.96-1.07-3.96z" fill="#fff"/><path d="M8.5 107.36v23.99h199.97v-23.99H8.5zm20.86 18.63h-2.2l-1-7.14-1 7.14h-2.2l-1.82-12.07h2.15l.88 7.38 1.05-7.38h1.94l1.03 7.38.89-7.38h2.1l-1.82 12.07zm9.41-.03h-2.1v-12.04h2.1v12.04zm10.71-10.05H48v10.04h-2.1v-10.04h-1.48v-2h5.06v2zm11.65 10.05h-2.1v-5.06h-1.82v5.06h-2.1v-12.04h2.1v4.99h1.82v-4.99h2.1v12.04zm19.23-7.95c0 2.72-1.51 4.01-3.65 4.16h-.02v3.78h-2.1v-12.04h1.87c2.29 0 3.89 1.24 3.89 4.06v.03zm11.8 2.24c0 3.97-1.29 5.88-3.2 5.88s-3.2-1.91-3.2-5.88v-.62c0-3.97 1.29-5.88 3.2-5.88s3.2 1.91 3.2 5.88v.62zm9.63 5.71l-1.36-4.2h-.4v4.2h-2.1v-12.04h2.17c2.15 0 3.71 1.14 3.71 3.84v.15c0 1.57-.62 2.56-1.41 3.16l1.62 4.88h-2.24zm12.26-10.05h-1.48v10.04h-2.1v-10.04h-1.48v-2h5.06v2zm7.76 10.05h-2.1v-12.04h2.1v12.04zm10.13 0l-.4-2.39h-1.91l-.38 2.39h-2.03l2.29-12.07h2.24l2.29 12.07h-2.1zm18.84-3.03c0 2.13-1.12 3.13-2.89 3.13-.53 0-.95-.09-1.32-.17v-2.08c.33.12.65.21 1 .21.67 0 1.08-.36 1.08-1.24v-8.86h2.13v9.01zm12.14-2.68c0 3.97-1.29 5.88-3.2 5.88s-3.2-1.91-3.2-5.88v-.62c0-3.97 1.29-5.88 3.2-5.88s3.2 1.91 3.2 5.88v.62zm11.9 5.71h-1.86l-2.22-6.38v6.38h-2.05v-12.04h1.96l2.12 6.09v-6.09h2.05v12.04zm10.65 0h-4.66v-12.04h4.61v2h-2.51v2.99h2.22v2h-2.22v3.06h2.56v2zm10.61-3.06c0 1.89-1.32 3.15-2.98 3.15-.83 0-1.53-.21-2.13-.5v-2.18c.74.43 1.32.67 1.89.67.6 0 1.12-.29 1.12-1.03v-.03c0-.55-.17-.96-1.17-2.1-1.43-1.62-2.01-2.39-2.01-3.85V117c0-1.93 1.26-3.15 2.92-3.15.84 0 1.34.12 1.86.38v2.18c-.65-.38-1.05-.55-1.6-.55-.58 0-1.08.38-1.08 1.03v.03c0 .57.17.77 1.17 1.93 1.65 1.91 2.01 2.65 2.01 4.02v.03zM29.85 61.94c-1.11-1.37-2.52-2.43-4.22-3.16-1.7-.74-3.47-1.11-5.28-1.11-2.22 0-4.23.4-6.03 1.19-1.8.79-3.34 1.87-4.61 3.24-1.28 1.37-2.27 2.98-2.97 4.83-.7 1.85-1.06 3.82-1.06 5.93 0 1.97.33 3.83 1 5.59.67 1.76 1.63 3.31 2.89 4.64 1.26 1.34 2.8 2.39 4.61 3.16 1.81.77 3.87 1.16 6.17 1.16s4.24-.44 5.95-1.32c1.7-.88 3.15-2.11 4.34-3.69l4.5 3.22c-.3.39-.82.94-1.56 1.66-.74.72-1.72 1.44-2.95 2.16-1.22.72-2.7 1.35-4.42 1.9-1.72.54-3.72.82-5.98.82-3.11 0-5.92-.56-8.42-1.69s-4.63-2.6-6.39-4.43c-1.76-1.83-3.1-3.89-4.03-6.2C.46 77.54 0 75.21 0 72.85c0-2.88.5-5.55 1.5-7.99 1-2.44 2.4-4.55 4.2-6.33 1.8-1.78 3.95-3.16 6.48-4.14 2.52-.98 5.3-1.48 8.34-1.48 2.59 0 5.14.47 7.64 1.42s4.55 2.41 6.14 4.38l-4.45 3.22zM41.58 53.87h5.34v32.6h18.06v4.75h-23.4V53.87zM88.49 92.16c-3 0-5.76-.5-8.28-1.5-2.52-1-4.68-2.38-6.48-4.14a18.88 18.88 0 0 1-4.22-6.22c-1.02-2.39-1.53-4.98-1.53-7.75s.51-5.36 1.53-7.75c1.02-2.39 2.43-4.47 4.22-6.22 1.8-1.76 3.95-3.14 6.48-4.14 2.52-1 5.28-1.5 8.28-1.5s5.76.5 8.28 1.5c2.52 1 4.68 2.38 6.48 4.14 1.8 1.76 3.2 3.83 4.22 6.22 1.02 2.39 1.53 4.98 1.53 7.75s-.51 5.36-1.53 7.75c-1.02 2.39-2.43 4.47-4.22 6.22-1.8 1.76-3.96 3.14-6.48 4.14-2.52 1-5.28 1.5-8.28 1.5zm0-4.74c2.26 0 4.3-.4 6.11-1.19 1.82-.79 3.37-1.85 4.67-3.19 1.3-1.34 2.3-2.91 3-4.72.7-1.81 1.06-3.74 1.06-5.78s-.35-3.96-1.06-5.78a14.04 14.04 0 0 0-3-4.72c-1.3-1.34-2.85-2.4-4.67-3.19-1.82-.79-3.85-1.19-6.11-1.19s-4.3.4-6.11 1.19c-1.82.79-3.37 1.86-4.67 3.19-1.3 1.34-2.3 2.91-3 4.72-.7 1.81-1.06 3.74-1.06 5.78s.35 3.97 1.06 5.78c.7 1.81 1.7 3.39 3 4.72 1.3 1.34 2.85 2.4 4.67 3.19 1.82.79 3.85 1.19 6.11 1.19zM121.28 53.87v22.89c0 1.16.17 2.37.5 3.61.33 1.25.89 2.4 1.67 3.46s1.8 1.92 3.06 2.58c1.26.67 2.82 1 4.67 1s3.41-.33 4.67-1c1.26-.67 2.28-1.53 3.06-2.58s1.33-2.21 1.67-3.46c.33-1.25.5-2.45.5-3.61V53.87h5.34v23.68c0 2.18-.39 4.16-1.17 5.93-.78 1.78-1.85 3.32-3.22 4.62-1.37 1.3-2.98 2.3-4.84 3.01-1.85.7-3.85 1.06-6 1.06s-4.15-.35-6-1.06c-1.85-.7-3.47-1.71-4.84-3.01a13.93 13.93 0 0 1-3.22-4.62c-.78-1.78-1.17-3.75-1.17-5.93V53.87h5.34zM154.91 53.87h13.73c2.78 0 5.22.3 7.31.9 2.09.6 3.91 1.4 5.45 2.4s2.82 2.15 3.84 3.46c1.02 1.3 1.82 2.64 2.42 4.01.59 1.37 1.02 2.74 1.28 4.11s.39 2.64.39 3.8c0 2.39-.46 4.7-1.39 6.94-.93 2.23-2.3 4.22-4.11 5.96-1.82 1.74-4.07 3.14-6.75 4.19-2.69 1.06-5.79 1.58-9.31 1.58h-12.84V53.87zm5.34 32.6h6.73c2.26 0 4.4-.29 6.42-.87 2.02-.58 3.79-1.45 5.31-2.61 1.52-1.16 2.72-2.61 3.61-4.35.89-1.74 1.33-3.77 1.33-6.09 0-1.2-.2-2.59-.61-4.19-.41-1.6-1.18-3.12-2.31-4.56-1.13-1.44-2.7-2.66-4.7-3.67-2-1-4.6-1.5-7.78-1.5h-8v27.85zM198.16 83.41c.96 1.37 2.2 2.38 3.7 3.03 1.5.65 3.05.98 4.64.98.89 0 1.8-.13 2.72-.4.93-.26 1.77-.66 2.53-1.19.76-.53 1.38-1.18 1.86-1.95.48-.77.72-1.67.72-2.69 0-1.44-.48-2.54-1.45-3.3-.96-.76-2.16-1.39-3.59-1.9-1.43-.51-2.98-1-4.67-1.48-1.69-.47-3.24-1.13-4.67-1.98-1.43-.84-2.62-1.98-3.59-3.4-.96-1.42-1.45-3.35-1.45-5.78 0-1.09.25-2.25.75-3.48s1.29-2.36 2.36-3.38c1.07-1.02 2.45-1.87 4.14-2.56 1.69-.69 3.71-1.03 6.09-1.03 2.15 0 4.21.28 6.17.84 1.96.56 3.69 1.71 5.17 3.43l-4.34 3.75c-.67-.98-1.61-1.78-2.83-2.37-1.22-.6-2.61-.9-4.17-.9s-2.71.18-3.7.55c-.98.37-1.77.84-2.36 1.42-.59.58-1.01 1.21-1.25 1.87-.24.67-.36 1.28-.36 1.85 0 1.58.48 2.8 1.45 3.64.96.84 2.16 1.53 3.59 2.06 1.43.53 2.98 1 4.67 1.42 1.69.42 3.24 1.01 4.67 1.77 1.43.76 2.62 1.78 3.59 3.06.96 1.28 1.45 3.05 1.45 5.3 0 1.79-.36 3.41-1.08 4.85-.72 1.44-1.7 2.66-2.92 3.64s-2.67 1.74-4.34 2.27-3.45.79-5.34.79c-2.52 0-4.91-.42-7.17-1.27-2.26-.84-4.06-2.14-5.39-3.9l4.39-3.59z" fill="#fff"/></svg>