<svg xmlns="http://www.w3.org/2000/svg" xmlns:xlink="http://www.w3.org/1999/xlink" width="300" height="87" viewBox="0 0 300 87"><defs><linearGradient id="a" x1="-2880.11" y1="15.77" x2="-2939.11" y2="15.77" gradientTransform="matrix(-1, 0, 0, 1, -2639.11, 0)" gradientUnits="userSpaceOnUse"><stop offset="0" stop-color="#fff"/><stop offset="1" stop-color="#fff" stop-opacity="0"/></linearGradient><linearGradient id="b" x1="-624.41" y1="15.77" x2="-683.4" y2="15.77" gradientTransform="translate(683.4)" xlink:href="#a"/><linearGradient id="c" x1="-225.68" y1="-1063.12" x2="-300.89" y2="-1063.12" gradientTransform="matrix(1, 0, 0, -1, 300.89, -983.83)" xlink:href="#a"/><linearGradient id="d" x1="-3248.95" y1="-1063.12" x2="-3321.62" y2="-1063.12" gradientTransform="translate(-3021.62 -983.83) rotate(180)" xlink:href="#a"/></defs><path d="M74.92.63v5H72.74a3.51,3.51,0,0,0-3.11,3.62c0,2.55,1.91,4.13,3.35,4.13h1.94v5H72.28c-2,0-8.4-.87-8.4-8.84,0-8.49,7-8.85,8.74-8.85Z" fill="#fff"/><path d="M154.19.63v5H152a3.51,3.51,0,0,0-3.11,3.62c0,2.55,1.91,4.13,3.35,4.13h1.94v5h-2.64c-2.05,0-8.4-.87-8.4-8.84,0-8.49,7-8.85,8.74-8.85Z" fill="#fff"/><path d="M84.76.24c-4.72,0-8.53,4.12-8.53,9.19s3.81,9.2,8.53,9.2,8.52-4.12,8.52-9.2S89.47.24,84.76.24Zm0,13.22a3.71,3.71,0,0,1-3.61-3.8,3.61,3.61,0,1,1,7.21,0A3.71,3.71,0,0,1,84.76,13.46Z" fill="#fff"/><path d="M110.68,6,109,18.38h5.79l.83-9.85,2.91,9.85h3.72l2.62-9.31,1.44,9.31h5.85L129,1.11h-5.92l-2.59,9.47-2.81-9.47h-17.6c-2,0-4.22.7-4.7,3.58s1.85,4.45,3.33,5.92,2.2,2,1.81,2.68a1.06,1.06,0,0,1-1,.43h-4.2v4.67h6.35a5.12,5.12,0,0,0,5-3.46c.78-2.67-1.67-5.15-2.93-6.18S101.15,7,101.52,6.35s.72-.46,2.65-.46S110.68,6,110.68,6Z" fill="#fff"/><circle cx="137.5" cy="2.72" r="2.72" fill="#fff"/><rect x="134.78" y="7.59" width="5.44" height="10.79" fill="#fff"/><polygon points="161.15 0.66 165.8 18.25 170.91 18.25 172.7 8.66 174.58 18.25 180.08 18.25 185.15 0.66 179.88 0.66 176.99 11.71 174.68 0.66 170.94 0.66 168.73 11.65 166.03 0.66 161.15 0.66" fill="#fff"/><path d="M196.14.66h-7L183,18.25h6.5l.58-2.14h4.77l.69,2.14h6.22Zm-5.75,11.27,2.07-7.13,2.15,7.13Z" fill="#fff"/><path d="M231.05,5.19c1.93,0,10.78.14,10.78.14l0-4.71H227c-2,0-4.22.7-4.7,3.58s1.86,4.45,3.33,5.92,2.2,2,1.81,2.68a1.06,1.06,0,0,1-1,.43h-9.22L216,11.08A4.89,4.89,0,0,0,219.53,6a5.06,5.06,0,0,0-5.28-5.3h-9.87l-.07,17.59h5.81V11.36l3.2,6.81h15.53a5,5,0,0,0,5-3.47c1-2.86-1.94-5.63-3.2-6.66S228,6.31,228.4,5.65,229.12,5.19,231.05,5.19ZM210,8.74V5s4.47-.76,4.49,1.87S210,8.74,210,8.74Z" fill="#fff"/><polygon points="241 18.08 300 18.08 241 13.46 241 18.08" fill="url(#a)"/><polygon points="59 18.08 0 18.08 59 13.46 59 18.08" fill="url(#b)"/><polygon points="75.22 76.98 0 76.98 75.22 81.61 75.22 76.98" fill="url(#c)"/><polygon points="227.33 76.98 300 76.98 227.33 81.61 227.33 76.98" fill="url(#d)"/><path d="M84.54,77h5.78v1.14H85.75v2.67H90V82H85.75v2.87h4.8V86h-6Z" fill="#fff"/><path d="M98.59,77h3.15a3.83,3.83,0,0,1,1.42.23,2.53,2.53,0,0,1,.88.6,2.16,2.16,0,0,1,.45.81,3.18,3.18,0,0,1,0,1.73,2.16,2.16,0,0,1-.45.81,2.39,2.39,0,0,1-.88.59,3.63,3.63,0,0,1-1.42.24H99.81V86H98.59Zm1.22,4h1.59a4.14,4.14,0,0,0,.7-.06,2,2,0,0,0,.62-.21,1.16,1.16,0,0,0,.44-.44,1.45,1.45,0,0,0,.16-.74,1.48,1.48,0,0,0-.16-.74,1.13,1.13,0,0,0-.44-.43,2,2,0,0,0-.62-.21,4.14,4.14,0,0,0-.7-.06H99.81Z" fill="#fff"/><path d="M112.42,77h1.21v9h-1.21Z" fill="#fff"/><path d="M122.52,84.08a2,2,0,0,0,.85.73,2.43,2.43,0,0,0,1,.23A2.27,2.27,0,0,0,125,85a1.86,1.86,0,0,0,.58-.29,1.54,1.54,0,0,0,.42-.46,1.26,1.26,0,0,0,.17-.65,1,1,0,0,0-.33-.79,2.78,2.78,0,0,0-.82-.45c-.32-.13-.68-.24-1.06-.36a4.07,4.07,0,0,1-1.06-.47,2.67,2.67,0,0,1-.82-.82,2.52,2.52,0,0,1-.33-1.38,2.37,2.37,0,0,1,.71-1.65,2.94,2.94,0,0,1,.94-.61,3.45,3.45,0,0,1,1.39-.25,5,5,0,0,1,1.4.2,2.43,2.43,0,0,1,1.18.83l-1,.89a1.67,1.67,0,0,0-.64-.56,2,2,0,0,0-1-.22A2.25,2.25,0,0,0,124,78a1.57,1.57,0,0,0-.54.34,1.24,1.24,0,0,0-.29.45,1.53,1.53,0,0,0-.08.45,1.12,1.12,0,0,0,.33.87,2.45,2.45,0,0,0,.82.49,8.27,8.27,0,0,0,1.06.34,4.53,4.53,0,0,1,1.06.43,2.39,2.39,0,0,1,.82.73,2.15,2.15,0,0,1,.33,1.27,2.79,2.79,0,0,1-.25,1.17,2.71,2.71,0,0,1-.66.87,2.79,2.79,0,0,1-1,.54,3.76,3.76,0,0,1-1.22.19,4.49,4.49,0,0,1-1.63-.3,2.61,2.61,0,0,1-1.22-.94Z" fill="#fff"/><path d="M139.73,86.18a4.86,4.86,0,0,1-1.89-.36,4.43,4.43,0,0,1-1.47-1,4.55,4.55,0,0,1-1-1.49,5,5,0,0,1-.35-1.86,4.93,4.93,0,0,1,.35-1.86,4.44,4.44,0,0,1,1-1.49,4.31,4.31,0,0,1,1.47-1,4.86,4.86,0,0,1,1.89-.36,4.81,4.81,0,0,1,1.88.36,4.26,4.26,0,0,1,1.48,1,4.44,4.44,0,0,1,1,1.49,4.93,4.93,0,0,1,.35,1.86,5,5,0,0,1-.35,1.86,4.55,4.55,0,0,1-1,1.49,4.37,4.37,0,0,1-1.48,1A4.81,4.81,0,0,1,139.73,86.18Zm0-1.14a3.29,3.29,0,0,0,1.39-.28,3.15,3.15,0,0,0,1.06-.77,3.4,3.4,0,0,0,.69-1.13,3.93,3.93,0,0,0,.24-1.38,4,4,0,0,0-.24-1.39,3.5,3.5,0,0,0-.69-1.13,3.45,3.45,0,0,0-3.84-.77,3.33,3.33,0,0,0-1.07.77,3.48,3.48,0,0,0-.68,1.13,4,4,0,0,0-.24,1.39,3.93,3.93,0,0,0,.24,1.38,3.38,3.38,0,0,0,.68,1.13,3.19,3.19,0,0,0,1.07.77A3.26,3.26,0,0,0,139.73,85Z" fill="#fff"/><path d="M152.26,77h3.13a5.88,5.88,0,0,1,1.66.21,4.59,4.59,0,0,1,1.24.58,3.63,3.63,0,0,1,.87.83,3.89,3.89,0,0,1,.55,1,4.67,4.67,0,0,1,.3,1,6.12,6.12,0,0,1,.08.91,4.52,4.52,0,0,1-.31,1.66,4.23,4.23,0,0,1-.94,1.43,4.58,4.58,0,0,1-1.54,1,5.52,5.52,0,0,1-2.11.38h-2.93Zm1.22,7.82H155a5,5,0,0,0,1.46-.21,3.58,3.58,0,0,0,1.21-.63,3,3,0,0,0,.82-1,3.37,3.37,0,0,0,.3-1.46,4.05,4.05,0,0,0-.14-1,2.88,2.88,0,0,0-.52-1.09,3.05,3.05,0,0,0-1.07-.88,3.76,3.76,0,0,0-1.77-.36h-1.82Z" fill="#fff"/><path d="M168.16,77H174v1.14h-4.57v2.67h4.25V82h-4.25v2.87h4.79V86h-6Z" fill="#fff"/><path d="M190.83,77h1.41l2.63,7.29h0L197.63,77H199l-3.53,9h-1.13Z" fill="#fff"/><path d="M206.35,77h1.22v9h-1.22Z" fill="#fff"/><path d="M216.2,77h1.21v9H216.2Z" fill="#fff"/><path d="M24.24,35.25h9.05L44.54,59.93H36l-1.62-3.62H23.12l-1.56,3.62H13Zm8.29,16-3.77-9.59L25,51.28Z" fill="#fff"/><path d="M59.57,35.25H67L79.07,47.66V35.25h8.65V59.93H80.34L68.22,47.52V59.93H59.57Z" fill="#fff"/><path d="M92.79,35.25h18.5v5.57h-9.85v3.8h9v5.57h-9v4.17h10v5.57H92.79Z" fill="#fff"/><path d="M113.1,35.25h8.1l2.86,11.07h.08l3.07-11.07h6.26l3.26,11.07h.07l2.68-11.07h8.11l-8.36,24.68h-5.18L130.43,47.7h-.07L127,59.93h-5.18Z" fill="#fff"/><path d="M161.92,51.86a12.19,12.19,0,0,0,6.73,2.46c1.6,0,2.47-.72,2.47-1.7,0-.83-.84-1.56-4.42-3.29-3.33-1.6-4.78-3.66-4.78-6.95,0-3.62,2.57-7.46,8.72-7.46a12.26,12.26,0,0,1,7.79,2.64v6.52c-2.43-2.21-4.27-3.22-6.16-3.22-1.44,0-2.39.65-2.39,1.7s.91,1.7,4.35,3.44c4,2,5.17,4.23,5.17,6.91,0,4.45-3.83,7.35-8.94,7.35a20.33,20.33,0,0,1-8.54-1.71Z" fill="#fff"/><path d="M189.54,41.44h-7.71V35.25H205.9v6.19h-7.71V59.93h-8.65Z" fill="#fff"/><path d="M215.67,35.25h9.05L236,59.93H227.4l-1.63-3.62H214.55L213,59.93h-8.57Zm8.29,16-3.76-9.59-3.73,9.59Z" fill="#fff"/><path d="M238.94,35.25h13.11c7.12,0,10.49,2.42,10.49,7.06a6,6,0,0,1-4,5.71c1.34.62,2.28,1.45,4.13,5.54l2.85,6.37H256.9l-2.65-5.86c-1.3-2.93-2.53-3.77-4.34-3.77h-2.32v9.63h-8.65ZM249.84,46c2.68,0,4.52-1.09,4.52-3.11,0-2.64-2.24-3.11-4.7-3.11h-2.07V46Z" fill="#fff"/><path d="M272.61,41.44H264.9V35.25H289v6.19h-7.71V59.93h-8.64Z" fill="#fff"/><path d="M24.24,35.25h9.05L44.54,59.93H36l-1.62-3.62H23.12l-1.56,3.62H13Zm8.29,16-3.77-9.59L25,51.28Z" fill="#fff"/><path d="M59.57,35.25H67L79.07,47.66V35.25h8.65V59.93H80.34L68.22,47.52V59.93H59.57Z" fill="#fff"/><path d="M92.79,35.25h18.5v5.57h-9.85v3.8h9v5.57h-9v4.17h10v5.57H92.79Z" fill="#fff"/><path d="M113.1,35.25h8.1l2.86,11.07h.08l3.07-11.07h6.26l3.26,11.07h.07l2.68-11.07h8.11l-8.36,24.68h-5.18L130.43,47.7h-.07L127,59.93h-5.18Z" fill="#fff"/><path d="M161.92,51.86a12.19,12.19,0,0,0,6.73,2.46c1.6,0,2.47-.72,2.47-1.7,0-.83-.84-1.56-4.42-3.29-3.33-1.6-4.78-3.66-4.78-6.95,0-3.62,2.57-7.46,8.72-7.46a12.26,12.26,0,0,1,7.79,2.64v6.52c-2.43-2.21-4.27-3.22-6.16-3.22-1.44,0-2.39.65-2.39,1.7s.91,1.7,4.35,3.44c4,2,5.17,4.23,5.17,6.91,0,4.45-3.83,7.35-8.94,7.35a20.33,20.33,0,0,1-8.54-1.71Z" fill="#fff"/><path d="M189.54,41.44h-7.71V35.25H205.9v6.19h-7.71V59.93h-8.65Z" fill="#fff"/><path d="M215.67,35.25h9.05L236,59.93H227.4l-1.63-3.62H214.55L213,59.93h-8.57Zm8.29,16-3.76-9.59-3.73,9.59Z" fill="#fff"/><path d="M238.94,35.25h13.11c7.12,0,10.49,2.42,10.49,7.06a6,6,0,0,1-4,5.71c1.34.62,2.28,1.45,4.13,5.54l2.85,6.37H256.9l-2.65-5.86c-1.3-2.93-2.53-3.77-4.34-3.77h-2.32v9.63h-8.65ZM249.84,46c2.68,0,4.52-1.09,4.52-3.11,0-2.64-2.24-3.11-4.7-3.11h-2.07V46Z" fill="#fff"/><path d="M272.61,41.44H264.9V35.25H289v6.19h-7.71V59.93h-8.64Z" fill="#fff"/></svg>