<svg xmlns="http://www.w3.org/2000/svg" viewBox="0 0 200 124"><g fill="#fff"><path d="M65.78.84l-1.01 3.5c-1.14-1.45-2.44-2.53-3.9-3.26C59.41.36 57.8-.01 56.03-.01c-3.24 0-5.65.97-7.23 2.9s-2.38 5.1-2.38 9.5v16.84c0 3.07.3 5.45.91 7.11.61 1.67 1.73 3.01 3.37 4.04 1.64 1.03 3.73 1.54 6.27 1.54 1.47 0 2.87-.28 4.21-.84 1.34-.56 2.61-1.39 3.83-2.49v3.5c0 2.01-.17 3.32-.52 3.95-.35.63-1.06.94-2.13.94-1.49 0-2.24-1.02-2.24-3.07h-13.7c.04 2.12.39 3.9 1.02 5.36.05-.33.15-.66.34-.93.02-.03.04-.05.06-.07.17.16.52.2.67.44.16.26.09.58.21.83.11.24.55.44.64.66.1.24.04.51.14.78.07.2.8 1.04.98 1.11.3.13.69.04 1.05.13.35.09 1.15.58 1.21.57.3 0 .34-.32.44-.37.48-.26 1.23-.23 1.54.26.5-.92 1.97-.7 2.66-.18.53.4.36.25.92.52.48.23.89.84 1.07 1.34.69-.08 1.4.31 2.05 0 .07-.26-.04-.55.04-.81.01-.04.5-.56.53-.57.32-.13.74.06 1.06-.05.21-.07.37-1.02 1.33-1.15 1.24-.17 1.36.73 1.22 1.74l.52.2c.05-.13.09-.31.2-.39.21-.16 2.65-.19 3.02-.12.32.06.27.36.41.4.36.09 1.51-.07 1.6-.47.03-.12-.25-.34-.27-.64-.02-.53.32-1.23.89-1.35.99-.22 1.14.74 1.3.77.15.02.43-.14.64-.15.26 0 .52.1.75.05.57-.44 1.09-.92 1.54-1.45 1.35-1.57 2.14-3.06 2.36-4.47.22-1.41.33-4.52.33-9.35V.84H65.75zM64.77 27.5c0 2.63-.14 4.32-.42 5.07-.28.75-.89 1.12-1.82 1.12-.82 0-1.35-.31-1.61-.93-.26-.62-.38-1.96-.38-4.04V13.14c0-1.96.17-3.27.51-3.93.34-.66.91-1 1.73-1s1.38.29 1.62.87c.24.58.37 1.93.37 4.05v14.36zm-9.6 23.14c-.58 1-1.59-.09-2.02-.13-.28-.03-.57.16-1 .07-.95-.2-.86-2 .03-2.27.66-.2 1.32.68 1.92.91.34.52 1.31.6 1.07 1.43zm2.28.32c-.42.12-1.07 0-1.19-.46-.02-.06.02-1.15.04-1.21.04-.1.44-.47.55-.5 1.28-.38 1.46 1.91.6 2.17zm4.35 1.08c-.29.19-1.04.22-1.26-.06-.76-.96 1.07-2.18 1.68-1.48.29.34-.08 1.33-.42 1.54zm7.7.26c-.2.02-.36.27-.51.24-.2-.03-1.13-.87-1.4-.97-.32-.12-1.21.31-1.41-.28-.56-1.68 1.15-.85 1.6-.97.16-.05.18-.31.3-.39.4-.25.91-.07 1.33.02l-.05 1.16c.13.22 1.16-.3 1.44.26.53 1.06-.79.85-1.3.92zM90.6 70.49v31.2c0 3.8-.1 6.04-.3 6.74-.2.7-.82 1.05-1.87 1.05-.98 0-1.58-.34-1.8-1.01-.22-.68-.33-2.82-.33-6.43V70.49H72.18v31.27c0 3.98.08 6.64.24 7.98.16 1.34.58 2.63 1.24 3.86.57 1.05 1.4 1.93 2.5 2.62-.06-.42-.11-.83-.14-1.25.09.05.18.09.31.11.02-.41.81-.29 1.21-.42.85-.28 1.27-1.05 2.37-.72.5.15.39.75.51 1.06.01.03.35.46.37.47.18.07.4-.26.71-.26.35 0 .47.27.71.35.4.13 1.32.27 1.67.49.1.06.36.61.62.75 1.01.58 2.59-.66 3.76-1.14.89-.7 1.67-1.59 2.34-2.66l-.03.49.21-.23.74-.07.18 3.08c.32.2.83.27 1.18.13.29-.12.25-.26.37-.36.09-.07.29-.02.33-.05.09-.1-.21-1.23.77-1.4.22-.04 1.16.18 1.37.27.51.23.56.85 1.45.62.14-.03.26-.76.7-.89.35-.1 1.18-.08 1.4.25.16.23-.08.5.52.38.64-.13.71-1.11 1.84-1.05.76.04 1.9 1.44 1.89 2.23.08.03.14.03.18.02.02.14.05.28.07.42h.94V70.47H90.59zm-10.07 43.12c-.27.17-.87-.02-1.16-.15-.38-.17-.4-.41-.61-.55-.51-.34-1.29-.31-1.22-1.25.05-.7 1.11-.98 1.42-.71.05.04.05.59.33.78.23.16.5.08.72.19.8.42 1.27.88.53 1.69zm1.89.98c-1.35.23-.86-1-.98-1.76-.06-.38-.39-.65-.39-1.05.02-.21.43-.64.62-.7.41-.12 1.15.34 1.22.7.08.41-.17.8-.13 1.16.04.42.72 1.47-.33 1.65zm2.69-.46c-.41-.46.13-1.13.62-1.22.34-.07 1.35.39 1.83.34 1.43 1.52-1.55 1.88-2.45.88zm7.18-3.65c-.27-.17-.42-1.1-.04-1.23 1.3-.31.88 1.74.04 1.23zm1.4 3.88c-1 .37-1.57-1.47-.79-1.7 1.22-.37 1.76 1.35.79 1.7zm6.28-.91c-.33 1.46-2.1.07-1.25-.79.39-.39 1.46-.18 1.25.79zm-.23-1.8c-.16.1-.9.1-1.11.06-.79-.15-.55-1.59.15-1.8 1.2-.36 1.53.88.96 1.74zm.68-4.08c-.05-.18-.08-.95 0-1.06 1.2-.57 1.16-.49 1.69.55.08.16.32.28.35.44.03.13-.17 1.34-.27 1.44-.12.12-.51.18-.69.17-.69-.04-.57-.62-.75-1.09-.07-.18-.29-.29-.33-.45zm2.63 6.09c-.75.5-1.09-.74-1.39-1-.19-.16-.51-.12-.75-.36-.73-.73.27-1.83 1.57-.79.58.47 1.5 1.52.57 2.14zM152.44 6.03c-.44-1.74-1.43-3.17-2.97-4.32C147.93.57 145.95 0 143.53 0c-1.93 0-3.64.43-5.12 1.28-1.48.85-2.73 2.13-3.76 3.83l.24-4.27h-14.36v46.37h2.27c-.1-.14-.18-.29-.25-.45.3-.08.88-.25.95-.28.52-.22 1.02-1.47 2.03-.33l.68-.78c.81-.05 1.58-.28 2.38 0-.28-.7.57-1.71 1.24-1.71.71 0 1.63 1.49 1.64 2.17 0 .4-.32.8.05 1.12.02.02.05.04.08.05-.04.07-.08.14-.12.2h3.16V15.86c0-3.49.13-5.64.38-6.45.26-.8.88-1.21 1.89-1.21s1.54.35 1.75 1.05c.21.7.31 2.64.31 5.84V47.2h3.94c-.21-.22-.38-.47-.45-.74.02-.34-.38-1.42.96-1.49.6-.03.38.18.67.38.53.38.84.33.7 1.2l1.23-.02c.08-.3.69-.77.72-.85.07-.22-.13-.6-.13-.89 0-1.05.65-1.81 1.75-1.48.45.14.59.96.76 1.33.13.29.55.45.38 1l1.44-.26c.12-.37-.29-.22-.37-.47-.42-1.24 1.5-1.51 1.43-.25-.03.63-.64.48-.68.67l.28.91c-.07.39-.26.71-.51.97h2.01v-32.5c0-4.05-.22-6.95-.66-8.68zM124.4 44.36c-.35.94-2.12-.15-2.2-.63-.1-.61.58-.76.63-1.06.04-.21-.18-.5-.08-.87.03-.1.49-.69.58-.73.26-.09.9-.03 1.09.17.35.36 0 1.04 0 1.45-.01.54.21 1.03-.02 1.66zm3.71-2.28c.01-.11.21-.66.27-.72.47-.47 1.33-.2 1.29.69-.06 1.17-1.64.74-1.56.03zm3.28-.21c-.56-.16-1.78.09-1.23-1.15.08-.19.98-1.28 1.15-1.33.96-.29.8.41 1.08.83.13.2.46.28.5.35.13.22.09 1.5-.32 1.65-.72.25-.86-.25-1.18-.34zm2.18 3.31c-1.34.67-1.46-1.39-1.01-1.86.08-.08.56-.28.68-.28.92-.01.82 1.69.33 2.14zm8.79-.87c-.65.19-1.25-.96-.66-1.52.92-.87 1.7.97.66 1.52zm.94-2.59c-.28 0-.54.55-1.15.37-.34-.1-.42-.55-.52-.6-.21-.12-.63.08-.82-.29-.06-1.06-.2-3.18 1.47-2.45.29.44-.17 1.3.09 1.67.26.38.68-.1.93-.14.81-.13 1.47 1.31.44 1.64-.16.05-.28-.19-.45-.2zm.52 2.34c-.36-.88 1.39-1.13 1.62-.76.53.85-.99 1.98-1.62.76zm6.93-1.95c-.24.22-1.01.17-1.21-.03-.2-.2-.24-.85-.04-1.09.26-.35.66-.42 1.06-.25.26.32.56 1.05.2 1.38zM141.69 75.68c-.44-1.74-1.43-3.17-2.97-4.32-1.54-1.14-3.52-1.71-5.94-1.71-1.93 0-3.64.43-5.12 1.28-1.48.85-2.73 2.13-3.76 3.83l.24-4.27h-14.36v46.37h2.63c-.24-.11-.48-.23-.71-.34 1.27-.14 1.83-.73 2.94-1.33.2-.11 1.16-.46 1.16-.54-.78-.58.32-1.32.37-1.58.02-.14-.11-.34-.1-.51 0-.21.17-.5.12-.64-.06-.19-.89-.2-.75-1.16.12-.82 1.43-.96 1.61.1.03.16-.14.44-.05.57.07.1.69.09.77.61.11.72-.31 1.34-1.05 1.37.43.71.21.99 0 1.69l.91.26c-.26-.72 1.42-1.49 1.89-1.44.87.09.91 1.4 1.2 1.58.19.12.6.14.88.27.26.12.53.44.69.48.16.04.37.06.59.08-.28.16-.55.34-.82.53h1.83V85.52c0-3.49.13-5.64.38-6.45.26-.8.88-1.21 1.89-1.21s1.54.35 1.75 1.05c.21.7.31 2.64.31 5.84v32.11h2.27c-.19-.11-.38-.22-.55-.36.29-.04.54-.08.63-.12.3-.12.73-.69.85-.74.52-.19 1.28-.04 1.76-.17.51-.13 1.21-.76 1.78-.77.31-2.92 2.22-2.77 3.34-.37.1.21.04.52.13.65.15.21.91.11 1.08.29.06.06.36.88.62.88h.24c.01.27-.06.51-.18.71h2.12v-32.5c0-4.05-.22-6.95-.66-8.68zm-27.13 38.25l-.9-.52c-.33.1-.22 1.05-.6 1.24-.32.16-1.16.08-1.29-.28-.21-.55.25-.84.4-1.26.2-.58.53-2.47 1.08-2.58.15-.03.73-.03.83.02.19.12.3 1.16.44 1.45.14.29.46.41.59.72.24.56.1 1.11-.56 1.2zm8.07-.44c-.08.43.42 1.4-.25 1.88-.51.05-1.07.04-1.35-.45-.3-.52.08-.68.11-1.07.05-.72-1.17-.56-1.28-1.29-.07-.47.74-1.3 1.05-1.69-.62-.08-1.03-.81-.52-1.3.54-.53 2.6.07 2.03 1.11l-.72.26c.09.61.49 1.23 1.17.92-.04.27.24.49.25.71.03.45-.44.74-.48.93zm9.9.25c-.63.23-2.08 1.21-2.23 0-.08-.65-.24-2.92.82-2.66.67.16.68.94.77 1 .33.23 1.92-.38 2.18.5.28.96-.96.94-1.54 1.15zm6.6-6.86c-.25.83-1.12.54-1.62.1-.35-1.33 2.02-1.46 1.62-.1zm-1.7 2.61c-.64-.1-.63-1.12-.11-1.28 1.23-.37 1.36 1.48.11 1.28zm3.72 5.17c-.25.06-1.07-.3-1.25-.46-.29-.26-.29-.87-.33-.91-.07-.06-.51.03-.77-.08-.68-.3-.74-2.13-.66-2.75.11-.84 1.5-1.38 1.91-.44.11.25-.09.5-.07.52.02.02.45-.03.59.26.13.25.12 1.29-.05 1.52-.17.22-.73.16-.67.57.59-.29.57.12.92.32.43.24.97.26 1.15.94.05.18-.64.48-.77.51zM115.21 9.78c-.45-1.61-1.3-3.17-2.53-4.68-1.23-1.51-2.99-2.74-5.26-3.69-2.27-.94-4.99-1.42-8.16-1.42-3.77 0-6.87.73-9.29 2.2-2.42 1.47-4.1 3.41-5.03 5.84-.93 2.42-1.4 5.79-1.4 10.1v11.88c0 3.94.26 6.89.77 8.86.51 1.97 1.37 3.65 2.57 5.03 1.2 1.39 2.88 2.42 5.05 3.11.42.13.87.25 1.33.36-.22-.34-.43-.71-.55-1.09h.11l.53-1.49-.9-.08c-.14-.8-.74-1.46-.51-2.31.73-.77 2.63.25 2.3 1.19-.06.18-.72.52-.76.87 1.58-.15 1.1.58 1.62 1.58.49.37 1.38-.25 2.17.58.29.3.27.72.74.82.33.06 1.22.1 1.45-.13.27-.29.03-.62.06-.92.1-.86 1.42-1.39 2.19-.94.23.14.27.42.46.58.78.66 1.21.12 1.93.29.33.07 1.48 1.4 1.77.54.22-.65-.28-.57-.35-.78-.53-1.54 1.56-2.13 2.21-1.29.1.13.09.35.16.43.04.05.74.19 1.12.25.08.15.16.31.23.47 1.3-.74 2.42-1.68 3.36-2.83 1.37-1.69 2.27-3.51 2.69-5.45.42-1.94.63-5 .63-9.17V17.13c0-3.28-.23-5.73-.68-7.34zM92.1 41.46c-.74-.12-.81-1.2-.11-1.41 1.45-.43 1.53 1.65.11 1.41zm3.94 2.45c-.52-.15-.55-1.13.14-1.26 1.05-.2 1.13 1.64-.14 1.26zm4.29.56c-.42.51-1.21.47-1.83.38-.55-.08-.64-.31-.6-.84.08-1.2 1.09-.45 1.54-.88.27-.26.25-1.19.98-.99.99.64.5 1.61-.1 2.34zm1.44-9.46c0 2-.13 3.31-.4 3.91-.27.61-.82.91-1.66.91s-1.36-.33-1.64-1c-.28-.66-.42-2.09-.42-4.28V13.63c0-2.38.14-3.87.42-4.49.28-.62.84-.93 1.68-.93s1.39.31 1.64.93c.26.62.38 2.11.38 4.49v21.38zm7.25 8.46c-.46-.33-.42-1.22.22-1.34 1.27-.24.94 2.18-.22 1.34zm2.83-1.79c-.38.28-.83.08-1.25 0-.21-.65-.47-2.31.66-2.04.88.21.89 1.36.59 2.03zM41.25 8.75c-.49-2.46-1.95-4.53-4.37-6.22C34.46.84 30.86 0 26.08 0c-3.98 0-7.22.75-9.71 2.24-2.49 1.49-4.15 3.21-4.98 5.15-.83 1.95-1.24 4.71-1.24 8.3v3.11h13.24v-4.86c0-2.59.12-4.19.35-4.8.23-.62.83-.93 1.78-.93.84 0 1.44.37 1.8 1.1.36.73.54 2.31.54 4.73 0 1.93-.16 3.21-.49 3.84-.33.63-2.81 1.85-7.44 3.67-4.33 1.68-7.05 3.14-8.14 4.4-1.1 1.26-1.64 3.62-1.64 7.09v3.81c0 4.68 1.03 7.72 3.09 9.1 1.63 1.1 3.39 1.76 5.28 1.99-.27-.16-.54-.32-.8-.48-.44-.27-.88-.53-1.22-.92-.22-.24-.4-.51-.59-.78.81 0 2.56-.25 2.8.02.11.12.02.45.29.49-.11-1.16.47-2.09 1.74-1.8 1.06.24.41 1.53.64 1.78.04.04.3.04.44.14.26.21.44.51.78.66.14-.52.38-.43.54-.56.2-.17.16-.36.53-.45.65-.15 1.28 0 1.83.35 1.09-.81 2.01-1.92 2.74-3.33v1.12c.24-.28.45-.58.62-.9.41-.33.75-.7.84.05.04.35.1.84.12 1.18.04.66-.29 2.15.48 2.26.05 0 .88-.27.95-.31.3-.15.44-.63.86-.71.95-.19 1.02.17 1.57.78.2-.24.77-.55.53-.91-.44-.67-.71-.09-.95-.02-.51.16-1.04-.24-1.19-.72.38-.4.68-1.82 1.23-1.87 1.05-.1.55 1.31.91 1.31.57-.67.86 0 1.2.11.33.1.71-.03 1.09.08.45.14.5.67.9.8.45.15.94-.05 1.41.16.41.17.84.95 1.17 1.05.14.04.28.06.43.08-.12.2-.23.41-.35.61h1.91V23.94c0-7.66-.24-12.72-.73-15.18zM17.24 45.51c-.87.12-.77-.85-.96-.99-.21-.15-.91.04-1.12-.32-.3-.51.28-1.29.34-1.81 1.31-.3 1.17.71 1.16 1.68 1.25-.43 1.72 1.28.58 1.44zm7.26-.98c-.08-.03-1.13-.74-1.17-.8-.3-.46 0-.88.14-1.34.07-.04 1.43-.05 1.61-.02 1.04.19.08 2.39-.58 2.16zm1.19.43c-.07-.47-.09-1.49.46-1.66 1.33-.41 1.24 2.59-.46 1.66zm2.18-10.26c0 2.33-.13 3.77-.4 4.32-.27.55-.84.82-1.73.82-.93 0-1.55-.35-1.87-1.05s-.47-2.25-.47-4.65c0-2.1.18-3.7.54-4.82.36-1.12 1.67-2.5 3.93-4.16v9.54zm13.58 9.73c-.69.15-1.31.98-1.97.78-1.03-.31.47-1.92.56-2.52 0-.33-1.06-.9-1.15-1.2-.26-.81.28-1.25 1.06-1.2.15.3 1 .88 1.07 1.03.26.51-.2.76-.17.96.02.12.23.31.28.51.09.31.43 1.46.32 1.65zM67.07 79.44c-.45-1.61-1.3-3.17-2.53-4.68-1.23-1.51-2.99-2.74-5.26-3.69-2.27-.94-4.99-1.42-8.16-1.42-3.77 0-6.87.73-9.29 2.2-2.42 1.47-4.1 3.41-5.03 5.84-.93 2.42-1.4 5.79-1.4 10.1v11.88c0 3.94.26 6.89.77 8.86.51 1.97 1.37 3.65 2.57 5.03 1.04 1.2 2.43 2.13 4.19 2.81-.03-.05-.06-.1-.1-.15-.31-.45-.67-.86-.96-1.32l-.21-.36c.05-.02.08-.06.08-.15-.02-.7.12-.92.13-1.44.01-.4-.36-1.13.46-1.24.82-.11 1 .48 1.18 1.17.12.45.06 1.21.31 1.61.17.28 1.05.68 1.19.83.23.25.28.88.25 1.22h1.44c-.39-1.38 2.34-1.26 2.66-.53.09.19-.14.77.65.51.38-.13.12-.75.23-.88.04-.05.26-.02.36-.09.81-.63 1.52-1.15 2.67-.81.36.1.55.68.64.73.16.09.62 0 .9.08.34.09.68.31.98.35.19.02 1.33-.73 1.7-.79.6-.1 1.43 0 2.02.12-.09-.32.15-.78.08-1.05-.04-.14-.84-1.26-.95-1.28-.35-.08-.96.35-1.41-.28-1.03-1.48 1.52-1.06 1.74-1.19.28-.18.16-1.51 1.55-.92 1.08.46-.12 1.37-.1 2.05 0 .15.12 1.07.15 1.16.07.21 1.33.43.62 1.44-.13.19-.39.13-.38.33h.08c-.06.08-.11.17-.15.27 1.44-.76 2.67-1.77 3.69-3.02 1.37-1.69 2.27-3.51 2.69-5.45.42-1.94.63-5 .63-9.17V86.76c0-3.28-.23-5.73-.68-7.34zm-25.24 31.85c-.6-.18-.92-1.84-.26-2.03 1.63-.49 2.01 2.55.26 2.03zm6.67 3.53c-1.12.71-1.46-.53-1.75-.61-.2-.06-.41.18-.79.02-.24-.1-1.35-1.5-1.35-1.8-.02-.84 1.03-1.14 1.53-.55.15.18.6.79.75 1.01.11.16.16.59.22.63.21.15 1.02-.25 1.43.47.18.31.15.52-.04.82zm2.5-1.36c-.27.42-.78.29-1.19.37-.13.03-.26.21-.44.23-1.02.12-1.23-1.54-.1-1.8.82-.19 2.44.08 1.72 1.2zm.57-3.97c-.82 0-1.36-.33-1.64-1-.28-.66-.42-2.09-.42-4.28V83.28c0-2.38.14-3.87.42-4.49.28-.62.84-.93 1.68-.93s1.39.31 1.64.93c.26.62.38 2.11.38 4.49v21.38c0 2-.13 3.31-.4 3.91-.27.61-.82.91-1.66.91zm3.46 4.94c-.58.64-2.19.22-1.88-.76.34-1.1 2.2-.3 1.88.76zm2.22.38c-.12.14-.63.19-.82.18-.84-.08-.59-1.01-.78-1.45-.1-.23-.48-.33-.64-.54-.46-.58-.86-1.34-.35-2.02.81-.3 1.6.06 1.68.95.02.25-.15.48-.09.73.08.33 1.66 1.39 1 2.15zM174.74.84l-2.26 31.31L167.84.84h-12.82l7.73 38.79c.58 2.87.87 4.48.87 4.86 0 .77-.32 1.26-.95 1.49-.63.22-2.04.33-4.24.33v7.41h4.39c-.06-.3-.08-.61-.08-.91.01 0 .03 0 .04-.01l.82-1.4c-1.95-.14-1.54-1.61-.17-2.32l.95.62c.06-.83.45-1.24 1.31-.98.64.31.28 2.91-.95 2.52-.28-.09-.55-.72-1.01-.17l1.08.58c.23.92.85.25 1.59.4.29.06 1.07.68 1.33.75.3.09.68 0 1 .03.17-.79.64-.61 1.11-.87 1.92-1.05 2.72-.8 4.78-.85.78-.02.91.22 1.24.86h.02c.03.23.05.46.06.69 1.58-.6 2.84-1.47 3.76-2.63 1-1.26 1.72-2.85 2.15-4.79.43-1.93.97-5.56 1.6-10.87L187.51.84h-12.77zm-14.52 50.73c-.03-.33.43-1.11.75-1.21 2.04-.61.51 3.32-.75 1.21zm6.66-5.09c.13-.82-.1-1.78 1.11-1.89 1.18-.12 1.39.2 1.23 1.36-.1.29-.58.22-.74.37-.35.35-.34 2.4-1.54 1.55-.65-.46-.12-1.01-.06-1.39zm3.61 3.42c-.08.08-.64.53-.7.54-.43.13-1.1-.1-1.48.09-.25.13-.48 1.27-1.48.97-.45-.23-.42-1.1-.15-1.42.18-.21.64-.2.7-.28.12-.17-.18-1.15.63-1.39.66-.2.94.27 1.27.24.42-.04.81-.95 1.51-.6.66.33.08 1.45-.31 1.85zm4.96.82c-.15-.01-1.67-.49-1.74-.56-.07-.08 0-.28-.11-.37-.19-.14-.49.12-.77-.12-.53-.45-1.17-2.13-.2-2.43.79-.24.78.53.99.85.42.65 1.68.74 2.22 1.18.07.06.56.83.56.88.05.33-.69.58-.96.56zM187.23 70.49l-2.26 31.31-4.64-31.31h-12.82l7.73 38.79c.58 2.87.87 4.48.87 4.86 0 .77-.32 1.26-.95 1.49-.63.22-2.04.33-4.24.33v7.41h5.42c-.15-.04-.3-.08-.44-.14-.3-.12-.57-.28-.84-.45-.16-.1-.32-.21-.48-.32.48-.37 1.37-.94 2.03.22.35-.3 1.12-.83 1.58-.9 1.11-.18 1.62-.02 2.62.11 1.18.15 1.12-.66 1.9-1.21.32-.22 1.54-.85 1.88-.88 1.04-.08 1.09 1.06 1.57 1.06.41.04.41-.63.54-.67.72-.2 1.73.27 1.96 1.02-.18.46-.41.9-.72 1.29l.1-.03c1.78-.59 3.17-1.52 4.18-2.78 1-1.26 1.72-2.85 2.15-4.79.43-1.93.97-5.56 1.6-10.87L200 70.48h-12.77zm-14.6 49c-.42-.21-.61-1.18-.04-1.35 1.74-.52 1.01 1.83.04 1.35zm7 1.11c-.88.85-1.11-.16-1.9-.14-.07 1.2-.78 2.27-1.51.67l-1.7.37c-.57-.21-.93-.77-.59-1.34.09-.15.41-.21.54-.41.13-.21.09-.53.25-.66.13-.11.44-.1.65-.27.37-.29.3-.85 1.11-.71.92.16.32 1.11.48 1.29.07.08.81.18.83.67.41-1.68 2.84-.44 1.84.53zm4.7-1.31c-1.7-.04-.4-2.11.15-2.19 1.07-.17 1.37 2.23-.15 2.19zm6.18-1.93c-.06.3-.34.43-.43.63-.12.29-.16.87-.39 1.05-.26.19-.59.06-.86.18-.42.19-.42.7-1.35.43-1.05-.31.15-1.63.24-1.92.09-.3 0-.68.12-.93.13-.27.62-.22.71-.47.07-.2-.05-.5.04-.67.14-.27 1.2-.43 1.49-.17.1.08.46 1.68.42 1.88zM19.04 103.3c0 2.4-.17 4.03-.51 4.89-.34.86-.98 1.29-1.94 1.29-.82 0-1.43-.41-1.85-1.24-.42-.83-.63-2.07-.63-3.72V82.65c0-2.03.14-3.33.42-3.91.28-.58.83-.87 1.64-.87s1.37.33 1.68 1c.3.66.45 1.93.45 3.79v5.35h13.31c0-4.36-.43-7.72-1.29-10.1-.86-2.38-2.6-4.34-5.21-5.91-2.61-1.56-5.75-2.34-9.43-2.34s-6.85.79-9.43 2.36c-2.59 1.57-4.27 3.36-5.07 5.36-.79 2-1.19 4.97-1.19 8.91v13.17c0 4.52.48 8.01 1.45 10.47.96 2.45 2.6 4.35 4.91 5.71v-.02c-.1-.39 0-.81.12-1.19.02-.05.03-.1.05-.15.05.01.1.02.16.03.14.01.89-.73 1.49-.31l.12 1.12c.2.03.12-.2.27-.32.1-.08.31-.04.36-.09.07-.07 0-.44.08-.64.11-.27.47-.56.46-.85-.02-.61-1.41-.62-1.02-1.93.14-.46 1.03-.47 1.35-.23.04.03.74.75.77.8.23.39.28 1.24.39 1.7.98.08 2.54 1.17.95 1.72-1.39.48-.58-.54-1.52-.8-.4.5-.86 1.06-.34 1.68 1-.64 2.44-.47 3.59-.52-.18-.67.31-.76.52-1.11.29-.47.59-1.47 1.24-1.52 1.91-.12.06 2.17.07 3.01 1.31-.59 2.93.8 3.79-.59-.21-.33-.4 0-.69-.08-.88-.25-.39-1.29-.49-1.42-2.44 1.28-1.68-2.76.13-2.02.1.04.81.62.85.71.19.41-.03.92.09 1.34.06.2.42.4.38.73 1.26-.16 1.1.82 1.35 1.72.01.02.05.03.09.05-.05.24-.1.48-.16.72 1.05-.24 2.02-.56 2.89-.97 2.12-.99 3.84-2.46 5.15-4.4 1.32-1.94 2.1-3.84 2.34-5.7.24-1.85.38-4.63.4-8.33H19v5.52zm-5.65 10.44c-.43-.21-.54-1.18-.04-1.35 1.44-.5 1.05 1.85.04 1.35zm10.79-3.31c1.42-.2 1.49.36 1.34 1.6-.1.85-.84 1.91-1.69 1.19-.45-.38.07-1.12.13-1.44.06-.36-.16-1.22.22-1.35zm-3.09 1.37c.54-.45 1.36-.57 1.54.27.04.19.15 1.99.13 2.16-.1.78-.79 1.04-1.34.42-.45-.52-.02-.82-.06-1.43-.03-.46-.42-.84-.28-1.42zM162.57 108.86c-.31-.35-.47-2.05-.47-5.1V78.95h3.81v-7.34h-3.81v-7.3h-14.15v7.3h-3.04v7.34h3.04v23.55c0 4.61.13 7.54.38 8.79.26 1.25.91 2.35 1.96 3.32.96.88 2.06 1.47 3.29 1.77a6.38 6.38 0 0 1-1.42-1.6c.65-.3 1.08-1.3 2.24-.56.25.16.49.54.7.6.16.05 1.42.13 1.64.12.77-.04 1.44-1.55.68-1.54-.41 0-.46.88-1.42.38-.92-.47-.78-1.57.15-1.91l2.78-.56-.07-.91c1-.84 2.4-.38 1.9 1.04 1.25-.11 1.25.64.56 1.44-.55.13-1.05-.38-.9-.92.05-.18.28-.35.34-.52-.2.02-1.3.29-1.37.39-.1.61-.65 1.56-.59 2.15.04.39.61.97 1.08.83 1.26-.38.47-2.36 2.31-1.67-.03.59.27 1.1-.02 1.66l-.75.16c-.07 1.19.84.47 1.38.4.21-.03 1.43-.15 1.54-.14.09 0 .07.27.33.34.51.14.92-.04 1.31.31-.22.33-.45.66-.7.98h1.24v-7.48c-2.31 0-3.62-.17-3.93-.52zm-10.49-.11c.52.43.24 1.22-.43 1.26-1.34.08-.55-2.07.43-1.26zm1.34 3.8c-.2 1.26-2.17.12-2.45-.42-.42-.81.33-1.48 1.2-1.19.16.05.18.29.25.33.62.33 1.16.28 1 1.27zm1.04-2.16c-1.91.52-1.45-2.2.08-1.16l-.08 1.16zm8.78 3.92c-.47-.94.03-.91.35-1.37.49-.71.31-1.31 1.45-1.08.44 1.59-.04 2.62-1.8 2.45z"/></g></svg>