<svg xmlns="http://www.w3.org/2000/svg" width="180" height="138" viewBox="0 0 180 138"><path d="M111.68,123.42l-5.08,1.11c-.24-6.6-.47-13.09-.69-19.57l-.28-.11-6.84,10.51-8.74-8.69c-.27,7-.52,13.57-.78,20.33l-4.83.37a11.44,11.44,0,0,1-.11-1.19c.26-8.38.55-16.76.75-25.14,0-1.48.54-1.83,2-2.12a4.25,4.25,0,0,1,4.53,1.48c2.12,2.39,4.45,4.58,6.85,7l2.17-3.31c1.4-2.17,2.83-4.32,4.17-6.51a2.75,2.75,0,0,1,2.15-1.44c4-.61,3.94-.64,4,3.26.22,7.49.48,15,.73,22.46C111.69,122.33,111.68,122.81,111.68,123.42Z" fill="#fff"/><path d="M153.88,6.54c-1.34,1.33-2.48,2.54-3.71,3.62a1.81,1.81,0,0,1-1.4.05,13.14,13.14,0,0,0-8.67.29,9.28,9.28,0,0,0-5.91,11.73c1.12,3.41,3.45,5.67,7.22,5.82A11.55,11.55,0,0,0,151,23.66a21.63,21.63,0,0,0,1.73-2.85l-.18-.51-5.28.74-5.59.79c.1-1.93.18-3.55.27-5.28.7-.1,1.23-.18,1.75-.24,4.32-.5,8.64-.95,13-1.5,1.15-.15,1.45.2,1.51,1.28C158.58,24,152.63,31,144.2,32.83s-14.48-4.72-15.29-11.23c-1-7.82,3.31-14,11.29-16.27C145,4,149.56,4.09,153.88,6.54Z" fill="#fff"/><path d="M39.71,63.52a49,49,0,0,1,7,.62c5.45,1.28,7.54,5.45,7.85,10.84.47,8.13-5.46,15.12-14,17-8.13,1.8-14-4.36-15.12-10.25C23.71,72.64,29.57,65.21,39.71,63.52Zm-.13,5.38c-6.87,1-10.8,6.34-9,12.35,1.59,5.41,6.84,7.45,12.55,4.86,5.37-2.43,7.76-7.9,5.75-13.12C47.58,69.69,44.3,68.24,39.58,68.9Z" fill="#fff"/><path d="M130.3,92.61a47.86,47.86,0,0,1,7,.61c5.44,1.27,7.54,5.43,7.86,10.83.48,8.12-5.45,15.12-13.95,17-8.14,1.82-14-4.35-15.13-10.22C114.31,101.74,120.16,94.31,130.3,92.61ZM130.23,98c-6.88.94-10.82,6.29-9.09,12.31,1.56,5.42,6.79,7.48,12.52,4.93,5.38-2.4,7.8-7.87,5.81-13.11C138.2,98.79,135,97.33,130.23,98Z" fill="#fff"/><path d="M33.33,20c1.58,0,3.2-.15,4.74,0,6.54.6,10,4.7,10.18,11.88C48.41,38.39,44.5,44.22,38.1,47c-5.32,2.3-10.22,2.36-14.25-1.16-4.22-3.69-6.05-8.54-4.51-14.71C20.64,25.87,25,22,31,20.57c.77-.19,1.55-.31,2.32-.46Zm-.15,5.19c-6.53.93-10.33,5.66-9.13,11.57C24.79,40.44,27,43,30.8,43.45s7.36-1,10.14-4.25,2.76-6.66,1.53-10S37.91,24.53,33.18,25.2Z" fill="#fff"/><path d="M43.5,105c1.58,0,3.18-.11,4.74,0,11.51.7,12.4,15,7,21.71-4.18,5.18-13,8.63-18.61,5.85a14.3,14.3,0,0,1-6.69-17.74c2.05-5.25,6.14-8,11.26-9.25.77-.2,1.55-.31,2.32-.46Zm-.12,5.09c-4.46.72-7.63,3-8.89,6.6a9.16,9.16,0,0,0,3.11,10.45c3,2.15,7.46,1.8,11.3-.9a9.85,9.85,0,0,0,4.29-10,6.67,6.67,0,0,0-6.36-6.17A33,33,0,0,0,43.38,110.09Z" fill="#fff"/><path d="M95.24,30.93l4.17,6.37c-1.57.85-3,1.68-4.5,2.38-.23.11-.8-.29-1-.6-1.25-1.89-2.49-3.79-3.62-5.76a1.81,1.81,0,0,0-2.3-1c-.85.21-1.72.26-2.82.42.22,2.09.34,4,.64,5.91.23,1.45-.15,2.16-1.74,2.33a28.4,28.4,0,0,0-3.35.82c-.25-2.42-.49-4.71-.71-7C79.45,29,79,23.16,78.33,17.35A2.12,2.12,0,0,1,80,14.73c3.84-1.51,7.65-2.85,11.61-2.4,7.46.85,10.2,7.26,7,14.27C97.87,28.09,96.49,29.34,95.24,30.93ZM83.65,18.53c.34,3,.65,5.87,1,8.71,0,.25.69.52,1,.47,2-.27,4-.59,6-1a3.36,3.36,0,0,0,1.66-.95c2.25-2.55,1.37-7.1-1.54-7.9C89.23,17.15,86.54,17.79,83.65,18.53Z" fill="#fff"/><path d="M127.49,35.09l-5.2.73c-.13-.9-.32-1.81-.37-2.74s-.36-1.32-1.41-1.13q-5.31,1-10.62,1.79A1.26,1.26,0,0,0,108.68,35c-.12.91-.31,1.83-.48,2.81l-5.36.75c.65-3.21,1.06-6.34,1.94-9.39,1.4-4.84,3-9.66,4.73-14.45a13.93,13.93,0,0,1,2.14-3.56c2.14-2.84,5-3.53,7.34-1.52a14.77,14.77,0,0,1,3.48,4.6c2.29,4.57,3.18,9.75,4.08,14.91C126.89,31.08,127.17,33,127.49,35.09ZM121.14,27c-.91-3.19-1.66-6.15-2.61-9a10.11,10.11,0,0,0-1.8-3.18c-1.1-1.36-2.2-1.15-2.9.65-1.12,2.86-2,5.78-2.92,8.69-.47,1.56-.7,3.16-1.08,4.94Z" fill="#fff"/><path d="M115.21,81.08l-4.88.69c-.19-9.24-.38-18.41-.57-27.75l5.13-1.15v12c3-.62,5.66-1.15,8.33-1.8.24-.06.54-.88.57-1.33.19-2.92.31-5.83.46-8.74,0-.43.09-.85.15-1.43l5.21-.34c-.56,9.42-1.12,18.69-1.69,28.2-1.52,0-3,.16-4.35.11-.23,0-.49-.68-.47-1.07.08-2.76.24-5.53.37-8.3,0-.57,0-1.14,0-2-2.64.53-5.18,1-7.71,1.59-.22,0-.52.87-.53,1.29C115.19,74.36,115.21,77.63,115.21,81.08Z" fill="#fff"/><path d="M52.62,17.43c1.54-.09,3-.23,4.5-.19.26,0,.53.81.54,1.28.07,4.67.05,9.35.16,14a15.77,15.77,0,0,0,.66,3.75c.45,1.61,1.15,3.08,3.17,3.11A6.14,6.14,0,0,0,67.23,36a14.48,14.48,0,0,0,1.34-4.87c.23-4.6.18-9.18.23-13.77,0-.53,0-1-.08-1.76,1.67-.23,3.25-.48,4.82-.64.21,0,.56.45.56.73,0,6.27.38,12.51-1.09,18.9-1.62,7-8.25,11.35-14.81,9.75a5.68,5.68,0,0,1-4.36-4.81,94.88,94.88,0,0,1-1.38-11.12c-.21-3.24,0-6.56,0-9.85C52.47,18.26,52.55,17.92,52.62,17.43Z" fill="#fff"/><path d="M150.41,75.83,133.7,78.18c0-.52,0-1,0-1.44.22-8.24.46-16.47.65-24.7,0-1.09.3-1.55,1.48-1.7,5.14-.66,10.27-1.42,15.52-2.15v5c-1.87.26-3.69.51-5.51.78s-3.5.47-5.24.79c-.37.07-1,.52-1,.75-.09,1.82-.05,3.64-.05,5.63l9.61-1.35v5l-10,1.41-.3,6.24,11.62-1.63Z" fill="#fff"/><path d="M179.05,22.51v5l-16.72,2.34c.24-9.09.49-18.2.74-27.45L180,0V4.89c-3.47.49-6.81,1-10.15,1.39C168.42,6.44,168,7,168,8.34s0,2.86,0,4.45l9.7-1.36v5l-10,1.4c-.12,1.95-.28,3.74-.28,5.51,0,.26.76.63,1.17.58,2.91-.34,5.82-.78,8.74-1.19Z" fill="#fff"/><path d="M64.42,125.15a60,60,0,0,0,6.39-1,10.61,10.61,0,0,0,3.87-2,3.53,3.53,0,0,0,1.1-2.58c-.06-.56-1.13-1.07-1.88-1.22a30.39,30.39,0,0,0-4-.3c-.57,0-1.14,0-1.71-.11-2.74-.26-5.29-.93-6.1-3.83-.91-3.19.14-6.21,2.59-8.92a13.52,13.52,0,0,1,7.64-4.2c2.2-.42,4.42-.44,6.82-.66-.22,2-.41,3.65-.57,5.11-2.53.36-4.88.56-7.21,1.07a7.59,7.59,0,0,0-3,1.66c-1.74,1.48-1.59,3.66.35,4.28a25.71,25.71,0,0,0,4.71.7c1.17.15,2.38.16,3.53.37,3.47.64,4.92,3.14,4,6.8a12.46,12.46,0,0,1-9.54,9,54.87,54.87,0,0,1-6.51.7c-.83.08-1.08-.29-1-1.09C64.15,127.65,64.28,126.34,64.42,125.15Z" fill="#fff"/><path d="M151.24,112.94a55.34,55.34,0,0,0,6.41-1,10.36,10.36,0,0,0,4-2.1c1.85-1.61,1.41-3.42-.79-3.7-1.92-.24-3.9-.23-5.83-.4-2.74-.25-5.28-.94-6.08-3.86-.83-3.08.07-6,2.43-8.69,3-3.34,6.76-4.53,10.76-4.85,1.24-.1,2.47,0,3.85,0-.21,1.82-.4,3.5-.57,4.91-2.54.36-4.9.58-7.24,1.07a7.46,7.46,0,0,0-2.92,1.58c-1.82,1.5-1.68,3.75.32,4.38a26.82,26.82,0,0,0,4.73.67c1.21.15,2.47.16,3.66.4,3.14.61,4.55,2.9,3.95,6.25A12.44,12.44,0,0,1,158,117.2a41.49,41.49,0,0,1-6.37.61c-.34,0-.91-.48-.9-.78C150.84,115.64,151.08,114.23,151.24,112.94Z" fill="#fff"/><path d="M63.89,65.77c.1,2.21.2,4.15.3,6.25l10-1.4.22,4.93L64.53,77V88.21l-5,.7c-.26-9.11-.51-18.16-.77-27.31l16.82-2.37v4.9Z" fill="#fff"/><path d="M17.14,23l-.77,5c-.49,0-.89,0-1.29-.05C9.31,27.29,5,31.41,5.22,37.28A11.2,11.2,0,0,0,7.66,44c2.27,2.86,5.14,3.13,8.63.87l1.05-.7L19,48.76c-4,2.56-7.88,3.56-11.74,1.7C2.39,48.09-2.52,39.75,1.45,31.15,4,25.58,9.2,22.49,15.68,22.8,16.1,22.82,16.52,22.88,17.14,23Z" fill="#fff"/><path d="M27.28,107.93l-.77,5c-1,0-1.86-.11-2.71-.09a8.4,8.4,0,0,0-8.38,8,11,11,0,0,0,2.74,8.54c2.18,2.46,4.82,2.62,8,.62.39-.24.76-.49,1.3-.84.58,1.54,1.12,3,1.66,4.41A11,11,0,0,1,17,135.2C12.6,132.77,8,125.1,11.26,117c2.42-6.07,7.77-9.51,14.6-9.18C26.28,107.81,26.69,107.87,27.28,107.93Z" fill="#fff"/><path d="M105.62,54.66v4.83l-6.55.92c.25,7.57.5,15,.76,22.48l-5.28.74C94.36,76.25,94.18,69,94,61.51l-6,.84V57.14Z" fill="#fff"/></svg>