<svg xmlns="http://www.w3.org/2000/svg" width="350" height="90" viewBox="0 0 350 90"><path d="M168.17 82.14a21.81 21.81 0 0 1-7.28-2.23c.32-.24 1.53-1 1.84-1.33 3.58-3.26 3.84-5.21 3.33-6.5a3.72 3.72 0 0 0-3.72-2.08 5.2 5.2 0 0 0-4.41 2.16c-.62 1-1.11 2.72.11 5.46a6.39 6.39 0 0 0 1.32 1.91c-4 2.1-5.58 2.47-13 1.14-2.42-.43-7.21-.86-9.53-1 .37-.34 2-1.56 2.39-1.92 5.55 1 10.32.71 12.19-.86a2.3 2.3 0 0 0 .9-2 2.7 2.7 0 0 0-1.79-2.25c-2.35-1-6.89-.35-10.42 2.48-.46.37-1.07.91-1.49 1.27-.84-.17-4.31-1.31-5.22-1.57 1.14-.66 2.24-1.33 3.31-2a64.94 64.94 0 0 1 11.67-5.73.74.74 0 0 0 .49-.82.75.75 0 0 0-.73-.62H80.32a.74.74 0 0 0 0 1.48h64a71 71 0 0 0-8.41 4.44c-1.44.89-2.95 1.79-4.52 2.67-6.57-1.89-12.33-3.42-19.2-1.2-4.26 1.39-6.73 3.71-6.28 5.91.51 2.56 4.33 3.13 7.74 2.88 9.62-.68 18.72-6.56 18.73-6.55 1.35.39 5 1.49 5.55 1.61-.49.44-1.48 1.37-1.92 1.78l-.9.87c-2.14 0-3.6.12-4.83.8-1.57.86-2.54 2.09-2.3 2.72s.48 1.23 1.57 1.23a5 5 0 0 0 1.71-.35c1.85-.69 3-1.92 4.86-3.6a56 56 0 0 1 8.85.87l1.34.25c4.55.85 9.19 1.59 13.81-1.12 2.6 1.79 6.47 2.32 8 2.46zM141 76.23c3-2.38 7.19-3.46 9.11-2.64.84.36 2.55 1.45.62 2.94-1.27 1-5.7 1.07-10.63.33.14-.09.82-.54.9-.63zm-27.47 4.29c-4 .33-6.6 0-6.92-1.89s2.06-3.35 5.85-4.58a22.08 22.08 0 0 1 6.65-1.21c3.47 0 7.68 1.09 11.28 2.1-4.76 2.52-10.93 5.06-16.83 5.58zm17.22 2c-1.22.46-1.84.17-1.89 0s.2-1.08 1.86-1.79a9 9 0 0 1 3.44-.48 11.74 11.74 0 0 1-3.38 2.28zM160 79.05a4.82 4.82 0 0 1-1.21-1.7c-.75-1.7-.76-3.67-.14-4.64a3.88 3.88 0 0 1 3.44-1.58 2.49 2.49 0 0 1 2.63 1.49c.23.57.4 2.2-2.83 5.13-.42.37-1.52 1.01-1.89 1.3z" fill="#fff"/><path d="M133.58 70.37H91.25a.43.43 0 0 1-.43-.43.44.44 0 0 1 .43-.44h42.33a.44.44 0 0 1 .44.44.44.44 0 0 1-.44.43zM169.08 82.77c1.54-.14 5.41-.67 8-2.46 4.62 2.71 9.26 2 13.81 1.12l1.35-.25a55.94 55.94 0 0 1 8.84-.87c1.84 1.68 3 2.91 4.86 3.6a5 5 0 0 0 1.72.35c1.08 0 1.32-.59 1.56-1.23s-.72-1.86-2.29-2.72c-1.24-.68-2.7-.77-4.83-.8l-.91-.87c-.44-.41-1.43-1.34-1.92-1.78.53-.12 4.2-1.22 5.56-1.61 0 0 9.11 5.87 18.73 6.55 3.4.25 7.22-.32 7.74-2.88.44-2.2-2-4.52-6.29-5.91-6.86-2.22-12.62-.69-19.2 1.2-1.57-.88-3.07-1.78-4.52-2.67a71 71 0 0 0-8.4-4.44h64a.74.74 0 1 0 0-1.48H189.1a.74.74 0 0 0-.72.62.73.73 0 0 0 .49.82 65.05 65.05 0 0 1 11.66 5.73c1.07.66 2.18 1.33 3.32 2-.92.26-4.39 1.4-5.23 1.57-.41-.36-1-.9-1.49-1.27-3.52-2.83-8.06-3.48-10.42-2.48a2.71 2.71 0 0 0-1.79 2.25 2.35 2.35 0 0 0 .9 2c1.88 1.57 6.64 1.87 12.19.86.41.36 2 1.58 2.39 1.92-2.32.14-7.1.57-9.52 1-7.42 1.33-9 1-13-1.14a6.25 6.25 0 0 0 1.33-1.91c1.21-2.74.73-4.48.1-5.46A5.18 5.18 0 0 0 174.9 70a3.69 3.69 0 0 0-3.71 2.09c-.52 1.29-.26 3.24 3.32 6.5.32.28 1.53 1.09 1.85 1.33a21.88 21.88 0 0 1-7.28 2.23zm28-5.91c-4.92.74-9.36.65-10.62-.33-1.94-1.49-.23-2.58.62-2.94 1.92-.82 6.14.26 9.1 2.64.14.09.82.54.93.63zm9.72-1.92c3.59-1 7.8-2.1 11.28-2.1a22.07 22.07 0 0 1 6.64 1.21c3.79 1.23 6.17 2.66 5.85 4.58s-3 2.22-6.91 1.89c-5.87-.52-12.04-3.06-16.83-5.58zm-3.78 5.37a9 9 0 0 1 3.44.48c1.66.71 1.89 1.71 1.86 1.79s-.66.41-1.88 0a11.64 11.64 0 0 1-3.39-2.27zm-27.67-2.56c-3.23-2.93-3-4.56-2.83-5.13a2.5 2.5 0 0 1 2.64-1.49 3.89 3.89 0 0 1 3.44 1.58c.62 1 .61 2.94-.14 4.64a5 5 0 0 1-1.21 1.7c-.38-.29-1.47-.93-1.87-1.3z" fill="#fff"/><path d="M203.67 70.37H246a.44.44 0 0 0 .44-.43.44.44 0 0 0-.44-.44h-42.33a.44.44 0 0 0-.44.44.44.44 0 0 0 .44.43zM182.51 65.37h-13.12V55.28h-1.56v10.09h-13.11v1.56h13.11v22.21h1.56V66.93h13.12v-1.56zM103.68 31.78a40.15 40.15 0 0 0-4.24.73c-1.66.47-2.13 1.49-1.86 3.18a2.55 2.55 0 0 1-.3 1.58c-.11.19-1 .21-1.2 0-.37-.37-.83-1.11-.69-1.47.44-1.09.92-2.44 1.81-3a13.27 13.27 0 0 1 4.42-1.59c1.68-.37 3.43-.46 5.23-.68-.3 2.12-.64 4.35-.92 6.58-.38 3-.65 6-1.11 9-.23 1.49.38 1.85 1.68 1.78h1.2c-.7.81-2.65.9-6.54.4.32-1.62.64-3.25 1-5.12-1.81 0-3.37-.06-4.93 0-.37 0-.74.58-1 1-1.39 1.87-2.69 3.81-4.15 5.62a4.68 4.68 0 0 1-3.89 1.88c-1 0-1.64-.48-1.59-1.53s.92-1 1.66-.87a3.85 3.85 0 0 0 4-1.63c1.78-2.44 3.52-4.92 5.29-7.37s3.63-5 5.43-7.45c.21-.21.34-.46.7-1.04zm-.33 2.51l-.26-.2c-1.74 2.53-3.49 5-5.48 7.95a30.29 30.29 0 0 0 3.66 0 1.64 1.64 0 0 0 1.1-1c.4-2.26.63-4.51.98-6.75zm145 .44A55.28 55.28 0 0 0 246 42.8c-.56 3.77 2 6.12 5.82 5.84a8.8 8.8 0 0 0 6.18-3.26 19.26 19.26 0 0 0 4.54-9.85 30.24 30.24 0 0 0 0-6.59c0-.39-1.09-1.08-1.58-1-.95.15-.87 1-.57 1.78 2.12 5.44.5 10.16-3 14.45A8.3 8.3 0 0 1 255 46.1c-3 1.66-5.66.29-5.72-3.12a18.91 18.91 0 0 1 1.07-5.77c.64-2.08 1.62-4.06 2.51-6.22-1.56.08-3 .13-4.33.22a15.08 15.08 0 0 0-1.77.25c-2.84.57-4.94 2.8-4.71 5.13a3.26 3.26 0 0 0 1 1.69c.14.15 1.1-.09 1.13-.23a3.13 3.13 0 0 0-.18-1.75 2 2 0 0 1 .41-2.68 7.06 7.06 0 0 1 5.07-1.5 26.68 26.68 0 0 0-1.16 2.61zM47.48 31.8a38.48 38.48 0 0 0-4.12.68c-1.72.47-2.21 1.53-1.9 3.3a2.15 2.15 0 0 1-.23 1.44 1.22 1.22 0 0 1-1.2.09 2.18 2.18 0 0 1-.8-1.44A3.89 3.89 0 0 1 42 32.15 35.14 35.14 0 0 1 47.17 31c1.11-.22 2.25-.33 3.56-.51-.21 1.46-.45 3-.65 4.51-.47 3.58-.94 7.17-1.36 10.75-.23 2-.16 2.08 1.9 2.12l.91.05c-.62.84-1.5.89-6.57.43.2-.86.43-1.7.6-2.55s.28-1.63.44-2.6c-1.72 0-3.26-.06-4.79.05-.37 0-.79.52-1.06.89-1.23 1.68-2.36 3.45-3.64 5.09a5.44 5.44 0 0 1-4.37 2.49c-1 0-1.7-.35-1.71-1.42 0-1.23.92-1.11 1.72-1a3.76 3.76 0 0 0 3.93-1.55q2.51-3.4 5-6.86c2.05-2.89 4.1-5.84 6.4-9.09zm-.25 2.4l-.3-.1c-1.73 2.53-3.47 5.06-5.44 7.92h3.93a1.08 1.08 0 0 0 .77-.68c.39-2.34.7-4.77 1.04-7.14zM175.19 47c.19-1 .3-2.06.58-3.06.52-1.91 1.21-3.77 1.68-5.69.42-1.7-.47-2.54-2.14-2a14.85 14.85 0 0 0-3.07 1.75 13.57 13.57 0 0 0-1.37 1.14 57.91 57.91 0 0 1 1.65-8.23 1.59 1.59 0 0 1 2.33-1.13 17.77 17.77 0 0 0 1.7.56c.86.2 1.68.06 1.87-.93s-.57-1.52-1.5-1.59A4.54 4.54 0 0 0 175 28c-3 1.12-5.32 3-6.17 6.15-.89 3.34-1.58 6.73-2.37 10.1-.31 1.32-.64 2.63-1 4 2.9.4 2.8.37 3.51-2.09a38.28 38.28 0 0 1 2.35-6.31c.43-.87 1.62-1.37 2.46-2l.61.42c-.32 1.2-.64 2.4-.94 3.6-.41 1.63-.87 3.25-1.16 4.9-.15.89 0 1.82 1.25 2 1.58.2 4.17-1.52 4.72-3.28l-2.54 1.83zm145.31.67h-3.25c.92-5 2-9.76 5.2-13.74 1.37-1.69 2.78-3.24 5.29-3.09.38 0 .81-.64 1.21-1-.47-.35-1-1-1.38-1A5 5 0 0 0 324.9 30c-1.78 1.91-3.36 4-5 6a12.83 12.83 0 0 0-1 1.78c-.5-1.63-.82-3.09-1.38-4.45-1.15-2.75-1.4-2.81-4.2-2-2.24.68-4.33 1.57-5.57 3.7a4.41 4.41 0 0 0-.32 4.52 2.88 2.88 0 0 0 1.35 1c.18.08.82-.34.8-.45a3.11 3.11 0 0 0-.57-1.54 2.33 2.33 0 0 1-.18-3.35 8.54 8.54 0 0 1 2.15-2c2-1.27 2.46-1.11 3.48 1s1.77 4.14 1.15 6.3c-.76 2.7-.26 6.05-3.56 7.78 2.87-.31 5.7.65 8.48 0zM7 32.81a4.54 4.54 0 0 0-.46 6.83c.87 1 1.84 2 2.69 3a3.68 3.68 0 0 1 .38 4.43 4.54 4.54 0 0 1-4.28 2.5c-1.86-.07-2.33-1.41-2.7-2.9-.18-.84-.79-1.45-1.6-1a2.12 2.12 0 0 0-1 1.67 3.14 3.14 0 0 0 1.46 2.05 11.16 11.16 0 0 0 4.7 1c3-.25 5.61-1.52 6.81-4.55 1.12-2.83-.67-4.68-2.41-6.52-.59-.6-1.15-1.15-1.59-1.77a3.33 3.33 0 0 1 0-4.13 3.57 3.57 0 0 1 3.77-1.52c1.74.56 1.66 2 1.66 3.41 0 .43.06.86.09 1.29h.47L16 31.55a8.74 8.74 0 0 0-9 1.26zm124.21-.76c-3.23 2-3.68 5.2-1.13 8a36.86 36.86 0 0 1 2.56 2.9 3.6 3.6 0 0 1 0 4.32 4.53 4.53 0 0 1-4.24 2.3c-1.75-.09-2.24-1.39-2.56-2.82-.19-.82-.66-1.39-1.59-1.15a1.38 1.38 0 0 0-1 1.95 5.25 5.25 0 0 0 2 2.21c3 1.61 7.67.49 9.94-2.2a4.73 4.73 0 0 0 .18-6.39c-.91-1.17-2-2.2-3-3.32a3.4 3.4 0 0 1 .76-5.36 4.81 4.81 0 0 1 3.07-.39c1.19.25 1.3 1.48 1.33 2.56v1.93l.54.05 1.12-5.21c-2.8-.72-5.47-.94-8.01.62zm212.84 14.61c-.16 1.88.77 2.69 2.49 1.9a19.35 19.35 0 0 0 3.35-2.42c.1-.08.06-.35.11-.7-1 .68-1.81 1.24-2.62 1.81l-.54-.32q1.29-5.15 2.59-10.32c-2.76-.32-2.76-.32-3.41 2-.36 1.29-.6 2.62-1.06 3.86a6.33 6.33 0 0 1-4.21 4.25c.15-1.11.19-1.92.37-2.71.46-2 1.06-4 1.43-6.06a2 2 0 0 0-.72-1.78c-1.37-.64-4.62 1.37-5 3.06l2.79-1.61c-.2 1.16-.28 1.84-.44 2.5-.49 2-1.09 4-1.48 6.05-.14.74-.07 1.93.39 2.27a2.81 2.81 0 0 0 2.35-.15 32 32 0 0 0 3.61-2.29c0 .2.02.43 0 .66zm-197 .63a1.33 1.33 0 0 0 1.45 1.5c1.5.07 4-1.68 4.57-3.33l-2.65 1.79-.52-.33q1.29-5.14 2.6-10.3c-2.8-.33-2.79-.33-3.43 2.08a22.65 22.65 0 0 1-1 3.56 14.63 14.63 0 0 1-2.07 3.32c-.4.48-1.23.61-1.87.9a14.68 14.68 0 0 1 0-2c.12-.77.4-1.52.58-2.29a47.1 47.1 0 0 0 1-4.63 1.68 1.68 0 0 0-.86-1.4c-1.44-.47-4.42 1.4-4.95 3.13l2.87-1.64c-.21 1.2-.31 1.92-.48 2.62-.49 2.06-1.1 4.11-1.5 6.19s.53 2.92 2.6 2a32 32 0 0 0 3.8-2.41c-.06.4-.09.82-.1 1.24zm127.34-1.68c.52-2 1.17-3.87 1.67-5.83.3-1.15 1.16-2.58-.11-3.43s-2.59.09-3.69.85c-.87.6-1.64 1.34-2.72 2.23a14.76 14.76 0 0 0 .42-2.35 1.2 1.2 0 0 0-.57-.94c-1.51-.47-4.8 1.45-5.46 3.27l2.59-1.64.36.24q-1.2 5.07-2.39 10.15c2.91.53 2.91.51 3.48-2a31.52 31.52 0 0 1 1.18-4.44 5.75 5.75 0 0 1 4.19-3.83 21.53 21.53 0 0 1-.36 2.22c-.54 2.11-1.17 4.19-1.66 6.31-.22.94-.12 1.94 1.11 2.24 1.49.37 4.35-1.47 4.86-3.25l-2.92 2.09a8.64 8.64 0 0 1 .06-1.89zM72.6 44.05a8.64 8.64 0 0 1 4.88-7.37c3.45-1.66 6.28.11 6.11 3.88a8.49 8.49 0 0 1-5.21 7.72c-3.19 1.49-5.85-.28-5.78-4.23zm8-2.52l-.25-.1a12 12 0 0 0-.29-2.5c-.21-.64-.71-1.51-1.23-1.62s-1.36.56-1.66 1.11a10.27 10.27 0 0 0-1 7.75c.14.54.73 1.33 1.13 1.34a2.06 2.06 0 0 0 1.6-1c.71-1.6 1.15-3.31 1.68-4.98zm219.38-1a9.09 9.09 0 0 1-5.3 7.79c-3.41 1.35-6.14-.66-5.69-4.27.41-3.25 1.77-6 4.92-7.43 3.46-1.62 6.09.13 6.09 3.95zm-3 .83l-.23-.11a11.69 11.69 0 0 0-.39-2.47 2.57 2.57 0 0 0-1.3-1.54c-.38-.11-1.23.59-1.53 1.12a10.56 10.56 0 0 0-1 7.61c.12.58.75 1.47 1.17 1.48a2.17 2.17 0 0 0 1.69-1.07c.66-1.58 1.07-3.3 1.61-4.98zM16.43 44.1c.35-2.86 1.55-5.8 4.87-7.4 3.54-1.7 6.31.07 6.13 4a8.47 8.47 0 0 1-5.15 7.61c-3.17 1.46-5.91-.31-5.85-4.21zm8-2.65l-.24-.11a11.86 11.86 0 0 0-.34-2.48c-.23-.63-.78-1.51-1.27-1.56s-1.34.62-1.64 1.18A10.32 10.32 0 0 0 20 46.1c.14.57.77 1.36 1.24 1.41a2 2 0 0 0 1.57-1c.7-1.67 1.13-3.38 1.65-5.06zm310.72-.36a8.67 8.67 0 0 1-5.06 7.13c-3.41 1.65-6.29-.32-5.92-4 .32-3.28 1.72-6 4.86-7.51 3.52-1.71 6.18.03 6.15 4.38zm-3 .25l-.29-.11a7.68 7.68 0 0 0-.22-2 11.38 11.38 0 0 0-1.31-2c-.62.5-1.47.88-1.8 1.53a10.19 10.19 0 0 0-.83 7.35c.15.57.74 1.37 1.22 1.44a2 2 0 0 0 1.58-1c.73-1.73 1.18-3.49 1.71-5.21zm-275.02 5.3q1.83-7.8 3.69-15.58c.33-1.35 1.26-1.66 2.53-1.28a3.46 3.46 0 0 0 1.58.33 5.78 5.78 0 0 0 1.58-1c-.44-.44-.83-1.17-1.33-1.24a4.74 4.74 0 0 0-2.46.34 9.78 9.78 0 0 0-5.93 7c-.41 1.58-.79 3.16-1.15 4.75-.52 2.27-1 4.53-1.49 6.81-.19.95-.07 1.8 1.18 2 1.74.24 5-1.73 5.64-3.44l-.19-.24-3.42 2.29c-.14-.47-.25-.63-.23-.74zm138.49-13.26c.16-.57 1.1-1 1.72-1.36a7.4 7.4 0 0 1 1.27-.48l-.13-.44c-2.66.33-5.38 0-8 .63l.05.56h2.19c-1.26 4.78-2.42 9.38-3.73 13.92-.17.59-1.11 1-1.74 1.39a6.48 6.48 0 0 1-1.31.51l.12.23h8.2v-.31l-2.41-.49c1.26-4.83 2.44-9.54 3.77-14.16zM221.52 48l-2.37-.49c1.25-4.82 2.4-9.46 3.71-14.07.18-.61 1.16-1 1.81-1.45a7.07 7.07 0 0 1 1.23-.51l-.15-.4c-2.67.31-5.4 0-8 .61v.58h2c-.07.53-.07.92-.16 1.29-1 3.89-2 7.75-3 11.64a2.89 2.89 0 0 1-2.53 2.52 4.26 4.26 0 0 0-.92.38l.1.28h8.18zm59.12-5.5c-.32 1.4-.71 2.79-.9 4.2-.12.93 0 2.07 1.36 2 2.62-.18 4.44-1.81 6.16-3.6a1 1 0 0 0-.93 0c-.55.33-1 .79-1.6 1.08a7.57 7.57 0 0 1-1.5.42 4.59 4.59 0 0 1-.21-1.53c.4-1.88 1-3.74 1.36-5.62.22-1 .67-1.54 1.81-1.43a4.16 4.16 0 0 0 1.45-.38l-.13-.5-2.42-.25c.28-1.3.55-2.51.83-3.76-2.05.15-3.58.6-3.65 2.85 0 .88-.63 1.09-1.45 1.07a4.06 4.06 0 0 0-1.31.41l.12.47 2.08.26c-.39 1.57-.71 2.95-1.07 4.34zm-52.88-.42c-.36 1.64-.76 3.27-1 4.93-.13 1 .24 1.83 1.5 1.67 2.53-.31 4.33-1.85 6-3.63a1.22 1.22 0 0 0-1 .11c-.56.33-1 .78-1.61 1.07a6.1 6.1 0 0 1-1.37.33 3.83 3.83 0 0 1-.24-1.38c.4-1.88 1-3.73 1.34-5.62.23-1.16.72-1.72 2-1.56.4 0 .86-.26 1.29-.41l-.14-.48-2.41-.23c.28-1.29.54-2.49.8-3.73-2.12 0-3.45.68-3.67 2.83 0 .38-.8.74-1.28 1a7.78 7.78 0 0 1-1.43.49l.15.45 2.06.25c-.38 1.46-.75 2.69-.99 3.94zm-21.27 4.2c.87-2-.18-3.51-1.45-4.93A8.57 8.57 0 0 1 203.9 40c-.53-.91-.77-2 .18-2.68s1.51.24 2.12.88a2.06 2.06 0 0 0 1.36.59c.28 0 .81-.6.77-.87-.07-.47-.42-1.22-.76-1.27a10.12 10.12 0 0 0-3.89-.25c-2.83.66-3.69 3.28-2 5.64.45.64 1.06 1.18 1.49 1.84a4.76 4.76 0 0 1 .79 1.86 1.71 1.71 0 0 1-1.67 2c-1.21.16-1.74-.45-1.75-1.62s-.59-1.57-1.63-1.35-1.23 1.18-.86 2a3.5 3.5 0 0 0 1.52 1.5 8.14 8.14 0 0 0 2.15.5c2.28-.05 4.11-.92 4.77-2.46zM118 46.23c.83-2-.26-3.41-1.46-4.8a8.94 8.94 0 0 1-1.29-1.61c-.46-.88-.61-1.9.35-2.54s1.44.28 2 .89a2.6 2.6 0 0 0 1.49.62c.22 0 .75-.57.7-.77a2.62 2.62 0 0 0-.79-1.42c-1.55-1-4.6-.44-5.9 1s-1.07 3 .36 4.85c.37.46.8.88 1.15 1.37a5.09 5.09 0 0 1 .77 1.41 1.87 1.87 0 0 1-1.42 2.5c-1.33.24-2-.32-2-1.69 0-1-.63-1.42-1.58-1.26a1.19 1.19 0 0 0-1 1.78 3.42 3.42 0 0 0 1.39 1.61 9.89 9.89 0 0 0 2.42.63c2.38-.1 4.16-1.01 4.81-2.57zm-47.77 0c.87-1.91-.22-3.31-1.37-4.68a6.18 6.18 0 0 1-1.45-2 2.61 2.61 0 0 1 .5-2.2c.79-.71 1.33.2 1.9.77a3.09 3.09 0 0 0 1.59.71c.17 0 .72-.63.65-.8a2.93 2.93 0 0 0-1-1.47 5.16 5.16 0 0 0-5.76 1.17c-1.17 1.39-1 3.08.53 5 .31.38.67.73 1 1.13a5.45 5.45 0 0 1 .8 1.4 1.87 1.87 0 0 1-1.44 2.6c-1.35.22-1.93-.4-1.92-1.74 0-1.15-.79-1.41-1.75-1.18s-1.21 1.33-.58 2.34c.84 1.37 2.25 1.48 3.71 1.52 1.9-.14 3.69-.62 4.59-2.61zm90.4.57c-1.95.67-3-.07-3-2.11a15.28 15.28 0 0 1 .53-3.8c.84-3.21 1.51-3.48 4.63-2.47.52.16 1.25-.34 1.88-.53-.39-.53-.78-1.53-1.15-1.52-1.44 0-3.12 0-4.27.7a9.51 9.51 0 0 0-4.75 8.85 2.71 2.71 0 0 0 2.83 2.83c2.42.15 4.28-1.09 6.05-2.5.13-.11.11-.41.21-.87a26.62 26.62 0 0 1-2.96 1.38zM86.88 4a41.34 41.34 0 0 0-4.18.75c-1.64.49-2.11 1.55-1.79 3.25a2.14 2.14 0 0 1-.21 1.46 1.21 1.21 0 0 1-1.2.1c-.39-.34-.89-1-.77-1.4.41-1.11.83-2.49 1.71-3.09A13.69 13.69 0 0 1 85 3.4a50.66 50.66 0 0 1 5.17-.7c-.48 3.48-1 7.08-1.46 10.69-.21 1.62-.23 3.27-.55 4.86s.3 1.89 1.62 1.81h1.23c-.56.87-2.91 1-6.61.44.22-.82.46-1.62.63-2.43s.25-1.64.41-2.67c-1.7 0-3.27-.06-4.84 0-.36 0-.75.57-1 1-1.29 1.76-2.48 3.59-3.84 5.3a5.11 5.11 0 0 1-4.2 2.22c-1 0-1.59-.39-1.55-1.51s.91-1 1.6-.88a3.94 3.94 0 0 0 4.05-1.63c1.13-1.51 2.29-3 3.37-4.54 2.52-3.64 5.05-7.31 7.85-11.36zm-6 10.25h4a1 1 0 0 0 .72-.71c.4-2.35.73-4.72 1.07-7.08l-.26-.14zM141.93 4a37.27 37.27 0 0 0-4.07.69C136.14 5.2 135.6 6.28 136 8c.19.82.27 1.55-.81 1.66s-1.46-.5-1.47-1.45A3.41 3.41 0 0 1 135.5 5a18.92 18.92 0 0 1 4.44-1.57c1.73-.39 3.51-.48 5.25-.7-.55 4.19-1.13 8.49-1.68 12.79-.12.88-.17 1.77-.26 2.66-.17 1.83-.15 1.85 1.78 1.9l1.06.05c-.67.84-1.25.87-6.63.44.21-.86.46-1.69.63-2.53s.25-1.64.39-2.63c-1.67 0-3.21-.06-4.73 0-.38 0-.8.51-1.07.88-1.3 1.76-2.48 3.6-3.83 5.31a5.22 5.22 0 0 1-4.17 2.29c-1 0-1.69-.32-1.7-1.41 0-1.25.89-1.12 1.69-1a3.84 3.84 0 0 0 3.94-1.48c.76-1 1.57-1.92 2.28-2.94 2.95-4.24 5.87-8.47 9.04-13.06zm-.17 2.44l-.29-.16-5.46 8a33.34 33.34 0 0 0 3.71 0 1.41 1.41 0 0 0 1-.91c.41-2.37.71-4.62 1.04-6.9zm122.7 4.73c.51-2.25 1-4.52 1.53-6.76.69-2.78 1-2.88 3.82-2.07a4 4 0 0 0 2.2-.25c.19-.06.32-1.15.15-1.27a6.9 6.9 0 0 0-2.09-.82 2.11 2.11 0 0 0-1.17.18c-3 1.14-5.29 3-6.19 6.15-.67 2.37-1.15 4.8-1.71 7.21s-1.08 4.57-1.62 6.87c2.88.46 2.88.46 3.45-2 .21-.92.41-1.83.63-2.75a7.71 7.71 0 0 1 2.85-4.72 8.64 8.64 0 0 1 1.6-.74l.4.34c-.34 1.21-.69 2.41-1 3.63-.41 1.63-.86 3.25-1.13 4.9-.16 1 .2 1.87 1.52 1.88a5.74 5.74 0 0 0 4.51-3.29l-2.67 1.82-.49-.25c.18-1 .29-2.06.56-3 .53-2 1.24-3.87 1.71-5.83.38-1.56-.44-2.34-2-1.91a9.72 9.72 0 0 0-2.64 1.31 16.94 16.94 0 0 0-1.9 1.6zm-143.71 7.08a40 40 0 0 1-3.46 2.24c-2.05 1.06-2.65.7-2.84-1.55a9.69 9.69 0 0 1-2.33 1.54 4.51 4.51 0 0 1-3.07.05 3.44 3.44 0 0 1-1-2.67c.15-4.18 4.24-8.69 8.33-9.53.4-.08.82-.75 1-1.23a9.82 9.82 0 0 1 4.19-5.77 10.89 10.89 0 0 1 3.68-1.19c.33-.06.82.72 1.24 1.12a7.65 7.65 0 0 1-1.41 1c-.31.13-.78-.06-1.17-.15-2-.42-2.34-.27-2.82 1.69q-1.61 6.55-3.16 13.12a21.34 21.34 0 0 0-.27 2.22l2.87-1.42zm-4.11-8.08l-.39-.53c-.92.29-2.15.31-2.72.93a9.75 9.75 0 0 0-2.45 7.24c0 1.15.93 1.59 1.88.89a5.83 5.83 0 0 0 2-2.42 63.22 63.22 0 0 0 1.68-6.11zm108.43-5.9c-3.25 2-3.71 5.19-1.17 8a32.92 32.92 0 0 1 2.64 3 3.59 3.59 0 0 1-.08 4.31 4.52 4.52 0 0 1-4.15 2.2c-1.75-.08-2.26-1.36-2.58-2.8-.2-.89-.8-1.58-1.68-1.08-.53.3-1.12 1.41-.94 1.83a5 5 0 0 0 2 2.22c2.73 1.52 7 .7 9.43-1.63a4.9 4.9 0 0 0 .55-7.17c-.87-1.08-1.9-2-2.82-3.07a3.58 3.58 0 0 1 1.64-5.87c2-.67 3.37.24 3.5 2.34v2.24l.53.06c.37-1.67.74-3.34 1.15-5.21-2.82-.7-5.49-.92-8.02.63zm-128.68 6L94 20.41c2.87.5 2.94.45 3.51-2.1.24-1.06.52-2.11.75-3.17a6.91 6.91 0 0 1 2.65-4.14 8.45 8.45 0 0 1 1.59-.8l.38.3c-.2.88-.39 1.77-.61 2.65-.49 2-1.06 3.9-1.45 5.88-.22 1.12.3 2 1.62 1.91 2-.17 3.27-1.48 4.52-2.8l-.22-.34-2.65 1.68-.35-.29a19.28 19.28 0 0 1 .34-2.28c.47-1.67 1.06-3.29 1.52-5 .3-1.11 1.06-2.49-.09-3.3s-2.58 0-3.69.77c-.91.62-1.71 1.39-2.83 2.32a17.67 17.67 0 0 0 .49-2.34 1.2 1.2 0 0 0-.51-1c-1.48-.56-5 1.52-5.43 3.25L96 10zm140.08.11c-.09.62-.13 1.26-.28 1.86-.41 1.68-.93 3.34-1.29 5-.25 1.2-1.14 2.87.21 3.49.9.41 2.48-.44 3.66-.94A11.88 11.88 0 0 0 241 18.1c0 1.36-.54 2.77 1.35 2.91 1.5.11 4-1.65 4.59-3.33l-2.66 1.79-.5-.32c.85-3.43 1.71-6.85 2.57-10.3-2.78-.34-2.78-.34-3.41 2.07a24.66 24.66 0 0 1-1 3.56 13.59 13.59 0 0 1-2 3.22 5.78 5.78 0 0 1-2 1 15.12 15.12 0 0 1 0-2.13c.09-.72.38-1.43.54-2.15a46.5 46.5 0 0 0 1-4.63 1.69 1.69 0 0 0-.85-1.4c-1.43-.48-4.4 1.39-5 3.18l2.41-1.47zm-70 8.13c-.17.58-1.13 1-1.76 1.37a8.09 8.09 0 0 1-1.29.52l.12.24h8.18v-.3l-2.38-.58c1.27-4.76 2.46-9.39 3.66-13.98a2 2 0 0 1 1.93-1.57 4.94 4.94 0 0 0 1.18-.43l-.11-.44c-2.67.31-5.42 0-8.05.67l.05.51h2.23c-1.23 4.81-2.44 9.41-3.76 13.96zm31.1-13c-.95 3.73-2 7.45-2.84 11.21-.43 1.83-1.09 3.28-3.25 3.42-.14 0-.26.22-.58.51h8.49v-.31l-2.39-.59c1.27-4.84 2.46-9.57 3.81-14.26.16-.54 1.16-.87 1.8-1.26a8.73 8.73 0 0 1 1.09-.47c-3.28-.6-7.38-.12-8.08.76h2a5.88 5.88 0 0 1-.05.94zm-18 2.49c-.22.95-.59 1.35-1.59 1.3-.41 0-.83.31-1.25.48l.17.42 2 .24c-.56 2.29-1.15 4.47-1.63 6.68a8.63 8.63 0 0 0-.21 2.77 1.67 1.67 0 0 0 1.14 1c1.72.25 5.42-2 6.11-3.79-.81.33-1.51.85-2.28 1.23a7.83 7.83 0 0 1-1.63.45 5.8 5.8 0 0 1-.16-1.69c.39-1.83.95-3.63 1.34-5.46a1.49 1.49 0 0 1 1.84-1.39 4.1 4.1 0 0 0 1.4-.43l-.17-.46-2.39-.23.85-3.67c-2.63.11-3.05.37-3.54 2.55zm-26.43 12.81c3.37-.66 4.52-3.63 2.44-6.35a15.25 15.25 0 0 1-1.44-1.7 6.21 6.21 0 0 1-.7-2.3 1.39 1.39 0 0 1 .83-1.05c.35-.11.9.19 1.27.44s.43.78.74.89a6.09 6.09 0 0 0 1.61.12 6.49 6.49 0 0 0 0-1.59c0-.25-.5-.46-.8-.6a5.24 5.24 0 0 0-5.74 1.33c-1.16 1.46-1 3 .65 4.95.34.42.75.8 1.05 1.25a4.3 4.3 0 0 1 .71 1.44 1.83 1.83 0 0 1-1.59 2.36c-1.31.19-1.81-.49-1.82-1.7 0-1-.61-1.44-1.57-1.27a1.19 1.19 0 0 0-1 1.79 3.78 3.78 0 0 0 1.52 1.67 6.61 6.61 0 0 0 2 .49c.85-.06 1.35-.08 1.84-.17zm58.48-2.27c1-2-.18-3.49-1.43-4.91a9.86 9.86 0 0 1-1.14-1.37c-.54-.9-.79-1.95.15-2.68s1.52.19 2.13.85a2 2 0 0 0 1.36.61c.28 0 .83-.58.79-.84-.06-.47-.4-1.22-.74-1.29A9.64 9.64 0 0 0 209 8.6c-3 .62-3.91 3.33-2.12 5.79.44.6 1 1.11 1.4 1.73a4.79 4.79 0 0 1 .82 2 1.72 1.72 0 0 1-1.83 1.88c-1.17.09-1.52-.55-1.65-1.62a1.88 1.88 0 0 0-1-1.33c-1.15-.36-1.91.71-1.49 1.95s1.72 1.89 4.24 1.9a4.43 4.43 0 0 0 4.25-2.36zm42.86.46c-1.95.65-3-.09-3-2.14a15 15 0 0 1 .5-3.65c.85-3.33 1.51-3.65 4.67-2.55.77.27 1.66.33 1.8-.6.06-.47-.72-1.52-1.09-1.51-1.45 0-3.12 0-4.27.71a9.52 9.52 0 0 0-4.73 8.86 2.68 2.68 0 0 0 2.64 2.81c2.48.21 4.38-1.05 6.19-2.51.13-.1.1-.41.19-.84a27.59 27.59 0 0 1-2.9 1.42zm17.76 6.16c1.21-1.24 2.51-2.42 3.59-3.77a4 4 0 0 0 .71-2.33 1.48 1.48 0 0 0-1.82-1.63 1.4 1.4 0 0 0-1.11 2.13c1 1.86.11 3-1.21 4a4.78 4.78 0 0 0-.73 1.1z" fill="#fff"/></svg>