<svg xmlns="http://www.w3.org/2000/svg" width="302" height="98" viewBox="0 0 302 98"><path fill="#fff" stroke="#fff" stroke-linejoin="round" stroke-width=".32" d="M12.93 10.48H1v4.3h3.82v13.83h4.29V14.78h3.82v-4.3zM22.54 10.48v6.31h-4.16v-6.31h-4.29v18.13h4.29v-7.52h4.16v7.52h4.29V10.48h-4.29zM38.69 14.78v-4.3H28.33v18.13h10.36v-4.29h-6.07v-2.63h6.07V17.4h-6.07v-2.62h6.07zM8.17 48.79L24 39.05l5.9 2.34-3.19 8.43s-7.77.18-10.2 5.24 1.4 7.68 4 4.4l5.71 2.06-2.52 8s-6.18 1.9-6.28 6 1.85 6.18 5 6.08 7-5.61 7-5.61l3.65 3.18-3.37 8.15L13 97.38s.75-18.11-1.13-29.68-3.7-18.91-3.7-18.91zM52 66.53a60.06 60.06 0 0 0 .8-12.17C52.37 40 47.4 28.44 41.71 28.62s-9.92 12-9.47 26.39 5.43 25.91 11.11 25.73c2.66-.08 5-2.71 6.7-7l4 3.1 4.8-1.78v-5.48zm-6.5-13.18c.4 1.8.9 4.11.9 4.11s-2.11-1.2-3.61-.9-2.9 2.4-2.9 2.4a24.1 24.1 0 0 0 0-4c-.2-1.7-2.6-3.1-2.6-3.1s2.35-1.66 3.1-2.27 1.5-4.84 1.5-4.84 1.5 3.71 2.9 3.61a26.5 26.5 0 0 1 3 0s-2.7 3.19-2.29 4.99zM80.52 13.06L96.87 8.8l5.87 3.37-3.56 7.38S88.7 18 87.81 23.9s6.57 2.67 6.57 2.67l4.8 3.91-2.84 7.29s-7.29.71-7.29 4.8 3.74 8.71 10.49 3.91l5 4.62-2.54 6.57-18.1 6.22s1.24-17.41.18-28.79a187.57 187.57 0 0 0-3.56-22.04zM121.4 7.91l4.62-6L141.84 1l3.55 7.82-3.19 5.27s-5.34-4.74-5.34 1.3 4.62 35.37 4.62 35.37l-4.62 5-5.86-3.91s2.2-27.86.18-35.41c-1.6-6-5-1.24-5-1.24zM167.08 14.07C166.9 5.24 163-1 146.28 1c0 0 1.25 16.7 1.25 26.66s-1.25 23.46-1.25 23.46 5.34-1.16 7.47.75V33.15l6.25 18.7s4.8-.4 7.11 1.38l-6.96-26.13a15.36 15.36 0 0 0 6.93-13.03zm-7.82 3.07a4.88 4.88 0 0 0-2.58-1.05 5.19 5.19 0 0 0-2.68 1.05 8.91 8.91 0 0 0 .3-3c-.24-.94-2.17-2.17-2.17-2.17a5.91 5.91 0 0 0 2.7-.59 8.17 8.17 0 0 0 1.52-2.7s1 2.47 2.05 2.64 2.41.3 2.41.3-2 1.7-1.94 2.64.39 2.88.39 2.88zM183.52 4.57L179.18.62 174.84 4l-6 49.75a6.22 6.22 0 0 1 6 .35s-.58-11 4.34-10.18 2.89 11.22 2.89 11.22c3-1.62 7.23 0 7.23 0zm-1.94 29.35c.12.94.36 2.87.36 2.87a4.93 4.93 0 0 0-2.59-1 5.19 5.19 0 0 0-2.64 1 8.91 8.91 0 0 0 .3-3c-.24-.94-2.17-2.17-2.17-2.17a6 6 0 0 0 2.7-.58 8.26 8.26 0 0 0 1.52-2.7s1 2.46 2.05 2.64 2.41.29 2.41.29-2.05 1.73-1.94 2.65zM226 12.23l-3.45-4-4.61 4c0 9.36-7.11 47.75-7.11 47.75a8 8 0 0 1 6.64 1.66s-.48-8.41 4.38-8.41c3.55 0 3.38 9 3.38 9 2.9-.48 7.28.59 7.28.59zm-1.49 31.11v2.77a4.58 4.58 0 0 0-2.3-1.33 4.88 4.88 0 0 0-2.63.66 8.55 8.55 0 0 0 .66-2.8c-.11-.91-1.78-2.33-1.78-2.33a5.63 5.63 0 0 0 2.63-.21 7.88 7.88 0 0 0 1.79-2.35s.62 2.46 1.6 2.76 2.24.58 2.24.58-2.17 1.35-2.18 2.25zM116.39 20.42s3.67-2.17 6.59-1.13c0 0-1.31-13.53-9.22-14.69-6.33-.92-9.52 16.67-6.21 22.32s8.94 10.25 8.94 13.54-1 3.95-1.95 4-2.29-1.23-2.29-5.27c0 0-3.52 4.8-7.73 4 0 0 1.5 13.37 9.23 14s10.08-9.72 9.8-15.92-5.46-13.73-8.47-17.4-4-10-1.6-11.07c3.1-1.23 2.91 7.62 2.91 7.62zM189.3 6.93s5.67 1.85 7.41.58c0 0 3.82 19.44 7.4 22.33 0 0 2.09-14.64-.46-21.15 0 0 6.71 2.06 8.33.9 0 0-2.55 26.15-2.55 33.32s-.34 16.43-.34 16.43-5-2.54-7.75-1.5c0 0 .11-14.46-5.33-22.1 0 0-3.24 4.32 1.16 20 0 0-4.63-.85-6.59 0a199.87 199.87 0 0 0-.1-27.37c-1.16-12.52-1.18-21.44-1.18-21.44zM259.06 35.52s2.66-2.84 4.28-5 2.16-.53 5.39.9 13.48 6.33 13.48 6.33l2.52 8.36-4.13 3.11s-3.6-4.5-5.94 0 0 34.33 0 34.33l-5.93 3.59-4-5.57s4.64-20.39 2.69-35.46c-1.07-8.36-4.49-5.38-4.49-5.38zM295.1 59.34a11 11 0 0 1 5.54 3.49s2.36-10-5-16.72-11.22 2.41-11.5 5.32.83 11.51 4.43 18.44 5.41 13.3 1.94 13.3-1.8-7.62-1.8-7.62-5.26-.28-6.51-3.19c0 0-2.86 14.36 5.26 20.37 7.54 5.55 11.8-2.73 12.22-10.82s-6.05-17.15-8.23-22.57-.62-8.27 1.57-7.91c3.32.57 2.08 7.91 2.08 7.91zM68.1 17.24c-.83.67-1.83 3.82-1.83 3.82S69 33 69.52 39.92 69.27 59 64.85 57.18s-3.17-33.77-3.17-33.77-2.5-2.59-4.08-2.34-9.09 3.17-9.09 3.17l2.59 5.59s2.41-2.09 4.08 1.83c1 2.43.75 12.93 2.25 25.68S69.27 72 74.44 63.6s.83-28.44.17-32-.67-7.84.25-9.51 3-1 3-2.52v-5.5s-8.92 2.5-9.76 3.17zm-9.52 13.35a.84.84 0 1 1 0 1.67.84.84 0 1 1 0-1.67zm-.84 8.73a.84.84 0 0 1 1.68 0 .84.84 0 0 1-1.68 0zm.54 8.19a.84.84 0 1 1 .84.84.84.84 0 0 1-.84-.84zm2.14 10.22a.84.84 0 1 1 .84-.84.84.84 0 0 1-.84.84zm3.08 5.34a.84.84 0 0 1 0-1.68.84.84 0 0 1 0 1.68zm7.12-36.68a.84.84 0 1 1-.84.84.85.85 0 0 1 .84-.84zm-.41 36.27a.84.84 0 1 1 .84-.84.84.84 0 0 1-.84.84zm.71-26.88a.84.84 0 1 1 .84.84.85.85 0 0 1-.84-.84zm1.38 18.39a.84.84 0 1 1 .84-.84.84.84 0 0 1-.84.84zm0-8.59a.84.84 0 1 1 0-1.68.84.84 0 1 1 0 1.68zM253.09 24.21c-1.79-.71-2.74-1.79-3.93-.23s-2.39 2.94-2.39 2.94 2.51 32.42-4.3 32.42c-5.47 0-1.47-37.15-1.47-37.15l-2.26-4.42s-2.75-.95-4.66-1.67-3.34-1.55-3 1.67A50.66 50.66 0 0 0 232 23a9.84 9.84 0 0 1 2.63 2.27c1 1.31.48 2.62-.6 19.57s.84 21.71 11.34 21.12 7.87-27.45 7.87-30.46 3.76-2.36 3.76-2.36l2-6.22s-4.12-1.99-5.91-2.71zm-15.93 10.48a.84.84 0 1 1-.68 1 .84.84 0 0 1 .68-1zm-.44 7.63a.84.84 0 1 1-.68 1 .85.85 0 0 1 .68-1zm-1.08 9.4a.84.84 0 1 1 1 .68.84.84 0 0 1-1-.68zm2.22 8.81a.84.84 0 1 1 .84-.84.85.85 0 0 1-.84.84zm.43-31.25a.84.84 0 1 1 .68-1 .84.84 0 0 1-.68 1zm5.35 34.39a.84.84 0 0 1 0-1.68.84.84 0 1 1 0 1.68zm4.73-4.33a.84.84 0 1 1 .83-.83.83.83 0 0 1-.83.83zm1.39-7.77a.84.84 0 1 1 .84-.84.83.83 0 0 1-.84.84zm.56-8a.84.84 0 1 1 .84-.83.83.83 0 0 1-.84.86zm.28-7.69a.84.84 0 1 1 .84-.84.85.85 0 0 1-.84.87z"/></svg>