<svg xmlns="http://www.w3.org/2000/svg" width="260" height="113" viewBox="0 0 260 113"><g id="logos"><g id="ObpRye.tif"><path d="M138.38,111.68q-51.64,0-103.31,0a22.83,22.83,0,0,1-3.88-.33,3.92,3.92,0,0,1-3.14-2.86,13.2,13.2,0,0,1-.46-3.92,18.83,18.83,0,0,1,.48-3.39,6,6,0,0,1,2.17-3.37,2,2,0,0,0,.68-1.13,10.85,10.85,0,0,1,4.36-7.39A13.75,13.75,0,0,1,41,86.42a9.32,9.32,0,0,1,4.46.37,8.65,8.65,0,0,1,5.75,5,7.64,7.64,0,0,1,.55,2.25c.08.84.43,1.07,1.24,1.07,5.18,0,10.35,0,15.53-.07q31.2-.12,62.39-.23,51.7-.11,103.41-.13c3.53,0,7.06,0,10.59.16a4.57,4.57,0,0,1,4.44,3.68,5.12,5.12,0,0,1,.26,1.27,20,20,0,0,1-1.12,7.93,6,6,0,0,1-6,3.93q-22.92,0-45.85,0H138.38Z" fill="#fff"/><path d="M226.8,9c0,1.11,0,2.23,0,3.34a1.16,1.16,0,0,1-1.13,1.32c-4.43.7-8.87,1.42-13.31,2.09a2.24,2.24,0,0,0-1.71,3c.09.2.57.33.85.3,1.78-.2,3.56-.45,5.34-.69,1.08-.14,2.15-.32,3.22-.42s1.6.41,1.49,1.54c-.16,1.69-.28,3.39-.44,5.09a2.15,2.15,0,0,1-2,2.26c-2.79.39-5.55.94-8.33,1.42a2,2,0,0,0-1.5,2.48c.08.19.62.32.91.28,3-.41,5.95-.87,8.92-1.3,1.53-.23,3.06-.48,4.6-.63s2,.14,1.84,1.86c-.36,4.28-.76,8.57-1.14,12.85l-1.29,14.8c-.06.62-.14,1.23-.23,1.84-.23,1.56-.57,1.91-2.17,2.16l-7.62,1.18L194.56,66.7c-.36.06-.73.09-1.1.12-1.35.12-1.83-.34-1.71-1.69.16-1.82.33-3.64.5-5.45q.76-8.43,1.52-16.84,1.14-12.48,2.28-25c.2-2.19.37-4.38.55-6.57.16-1.8.54-2.29,2.31-2.59,2.47-.42,5-.76,7.43-1.15l7.8-1.22c3.85-.6,7.71-1.2,11.57-1.77,1.17-.17,1.36,0,1.33,1.24s-.11,2.11-.16,3.16Z" fill="#fff"/><path d="M260,8.34c-.11,1.58-.1,3.17-.36,4.72a6.64,6.64,0,0,1-1.15,2.36c-.27.42-.34.66,0,1a2.83,2.83,0,0,1,.71,2.41q-.82,8.4-1.67,16.82l-1.47,14.69c-.19,1.85-.34,3.7-.57,5.54-.16,1.22-.66,1.65-1.87,1.82l-9.76,1.35c-1.83.25-2.25-.15-2.09-2,.35-3.79.72-7.58,1.07-11.37.5-5.3,1-10.61,1.49-15.91.18-1.88.41-3.75.63-5.63.11-1-.28-1.44-1.3-1.45-1.76,0-2.31.5-2.49,2.23-.6,6-1.24,12.06-1.84,18.1-.52,5.24-1,10.48-1.49,15.72a1.8,1.8,0,0,1-1.68,1.81c-3.33.5-6.68,1-10,1.4a1.28,1.28,0,0,1-1.46-1.22,7,7,0,0,1,0-1.21q.78-8.84,1.58-17.66c.57-6.23,1.18-12.45,1.74-18.68.44-4.94.84-9.87,1.27-14.81.08-.92.19-1.84.31-2.76a2,2,0,0,1,1.85-2c3.45-.58,6.91-1.12,10.36-1.67S248.68.89,252.11.36A26.66,26.66,0,0,1,255.06,0a4.44,4.44,0,0,1,4.8,4.06c.14,1.41,0,2.84,0,4.27Zm-17.73,5.23c.12.22.24.74.53.88a2.39,2.39,0,0,0,3-1.83c.21-2.13-.17-2.45-2.23-1.77a1.93,1.93,0,0,0-.95,1A7.37,7.37,0,0,0,242.27,13.57Z" fill="#fff"/><path d="M192.1,36.15c-.4,4.43-.82,9.05-1.24,13.68q-.6,6.7-1.19,13.41c-.08.83-.2,1.66-.3,2.49a1.7,1.7,0,0,1-1.63,1.61l-5.78.9-14.59,2.33c-2.23.36-4.46.74-6.69,1.08-1.66.25-2.11-.2-2-1.85q1.26-14,2.51-27.94,1.07-11.65,2.14-23.3c.07-.74.07-1.48.13-2.23.15-1.75.68-2.32,2.43-2.61,1-.17,2.09-.31,3.13-.46,2.48-.36,5-.72,7.45-1.06,1.07-.15,1.61.42,1.51,1.55-.42,4.72-.86,9.44-1.28,14.16-.22,2.43-.44,4.87-.65,7.3-.09,1,0,1.14,1,1l12-1.91c.37,0,.74-.13,1.1-.16C191.92,34,192.17,34.23,192.1,36.15Z" fill="#fff"/><path d="M94,80.68c.8-7.25,1.58-14.36,2.36-21.47.58-5.38,1.1-10.78,1.76-16.15a10.91,10.91,0,0,1,1.14-4c1.37-2.47,3.85-3.4,6.48-3.85q7.78-1.34,15.59-2.52a15.14,15.14,0,0,1,4.14-.13,3.52,3.52,0,0,1,3.18,3.91c-.15,2.66-.49,5.3-.77,8q-1,9.18-2,18.36c-.49,4.43-1,8.86-1.48,13.29-.21,1.78-.47,2-2.25,2.27q-4.63.72-9.28,1.36c-1.58.21-1.88-.12-1.7-1.72q1.22-10.93,2.45-21.87c.15-1.39.36-2.76.52-4.15.1-.92,0-1-1-.89-2.68.46-2.35,0-2.67,2.79Q109.22,64.83,108,75.77c-.13,1.1-.27,2.21-.41,3.31A1.76,1.76,0,0,1,106,80.72q-5.26,1-10.52,1.88C94.29,82.81,93.86,82.17,94,80.68Zm19.76-39.5-.67.07a2.32,2.32,0,0,0-1.83,2.93.84.84,0,0,0,.14.24c.37.36,3.24-.2,3.46-.68a1.63,1.63,0,0,0,.09-.45c0-.34.08-.67.1-1C115.11,41.23,115,41.09,113.75,41.18Z" fill="#fff"/><path d="M32.92,89.2c0-1.16-.08-2.08,0-3q.91-9.2,1.9-18.39c.12-1.21.48-1.66,1.7-1.85,3.09-.5,6.19-.91,9.29-1.37,1.37-.2,2.74-.45,4.12-.68a1.7,1.7,0,0,0,1.51-1.81c0-.72-.25-1-.91-.89-1.08.15-2.14.34-3.21.51-2,.33-4,.69-6,1a4.29,4.29,0,0,1-5.22-4.56A34.37,34.37,0,0,1,37,50.47a6.59,6.59,0,0,1,5.38-4.75c3-.64,6-1.07,9-1.56,3.69-.61,7.4-1.18,11.1-1.77,1.07-.17,2.14-.35,3.21-.48s1.41.26,1.39,1.17c0,1.48-.1,3-.26,4.45-.11,1.1-.51,1.39-1.92,1.62-2.66.44-5.32.85-8,1.27l-5.33.83c-1.24.19-1.68.62-1.85,1.83-.13.89.07,1.19,1,1.08,2-.21,3.92-.53,5.89-.79s4-.86,6.16-.33a3.77,3.77,0,0,1,3,4.32c-.64,5.72-1.24,11.45-1.87,17.17-.31,2.77-.57,5.55-1,8.3a6,6,0,0,1-3,4.35,16.94,16.94,0,0,1-6.59,2.07,1.51,1.51,0,0,1-1.69-.79,10.78,10.78,0,0,0-9.25-5.15c-2.68,0-4.67,1.43-6.49,3.18-.67.65-1.32,1.32-2,2C33.66,88.67,33.38,88.84,32.92,89.2Z" fill="#fff"/><path d="M126,75.73l1.72-15.79q1.19-11,2.36-22c.18-1.66.36-3.32.6-5a1.77,1.77,0,0,1,1.78-1.8l22.87-3.53a5.7,5.7,0,0,1,3.6.65,3.48,3.48,0,0,1,1.79,3.77c-.31,3-.65,6-1,9a29.53,29.53,0,0,1-.44,3.4,6.71,6.71,0,0,1-5.52,5.26c-3.47.79-7,1.37-10.49,2a1.2,1.2,0,0,0-1.19,1.22q-1.24,9.85-2.55,19.71c-.05.42-.14.85-.23,1.27-.34,1.71-.64,2-2.33,2.24l-9,1.43-.55.08c-1.09.11-1.49-.25-1.47-1.35C126,76.07,126,75.85,126,75.73ZM146.8,37.94c.07-.83-.2-1.08-1-1-.43.06-.85.14-1.28.19a1.16,1.16,0,0,0-1.17,1.1c-.12,1.08-.26,2.15-.39,3.23-.26,2.25-.26,2.21,2,1.84a1.55,1.55,0,0,0,1.47-1.51C146.56,40.53,146.67,39.23,146.8,37.94Z" fill="#fff"/><path d="M97,40.44c0,.65,0,1.3,0,2,0,1.24-.22,1.47-1.48,1.69-1.65.29-3.29.59-5,.81a1.51,1.51,0,0,0-1.45,1.58c-.7,6.55-1.44,13.1-2.18,19.66Q86,74.29,85.06,82.46a1.74,1.74,0,0,1-1.64,1.72Q78,85.1,72.6,86c-1,.17-1.43-.23-1.32-1.31Q72.65,71.94,74,59.25c.4-3.6.87-7.19,1.31-10.79.14-1.14,0-1.22-1.13-1-1.59.27-3.17.55-4.77.76-1.31.17-1.65-.16-1.6-1.45s.1-2.29.19-3.44c.12-1.42.58-1.9,2-2.13l24.67-4C97,36.84,97,36.89,97,39.14c0,.43,0,.87,0,1.3Z" fill="#fff"/><path d="M35.54,29c-1.13-.41-1.53-.28-2.09.64-.86,1.43-1.73,2.86-2.56,4.31a1.78,1.78,0,0,1-1.73,1c-3.07,0-6.14,0-9.21,0a4.63,4.63,0,0,1-1.1-.3,4.87,4.87,0,0,1,.37-1c2.68-4.45,5.4-8.88,8.07-13.33a1.58,1.58,0,0,1,1.51-.85c3.16,0,6.32,0,9.48,0,1.1,0,1.24.23.68,1.2s-1.19,1.95-1.78,2.93a8.32,8.32,0,0,0-.39.84c.94.34,1.59.24,2.07-.59.69-1.18,1.43-2.32,2.1-3.5a1.57,1.57,0,0,1,1.49-.9c3.1,0,6.19,0,9.29,0,.95,0,1.16.33.68,1.14q-4,6.8-8.07,13.55a1.78,1.78,0,0,1-1.26.75c-3.28.08-6.57.07-9.85.07-.69,0-.89-.35-.53-1q1.18-2,2.36-4C35.25,29.66,35.38,29.32,35.54,29Z" fill="#fff"/><path d="M64.74,25.07h4.9c.69,0,.91.33.56,1a16.73,16.73,0,0,1-1.46,2.37,2.15,2.15,0,0,1-1.39.7c-1.33.09-2.66,0-4,0s-1.78.3-2.16,1.86a10.22,10.22,0,0,0,1.07.11c1.55,0,3.1,0,4.65,0,1,0,1.18.22.75,1.14C66.34,35,66.34,35,63.36,35c-5,0-10,0-15,0a4,4,0,0,1-1-.27,4.66,4.66,0,0,1,.31-1.08c2.55-4.29,5.13-8.54,7.66-12.84a2.4,2.4,0,0,1,2.37-1.37c5,.06,10,0,15.07,0a5.79,5.79,0,0,1,.93,0c.44.07.7.32.43.78A30.63,30.63,0,0,1,72.44,23a1.5,1.5,0,0,1-1.07.38c-1.61,0-3.22,0-4.83,0C65.46,23.36,65,23.79,64.74,25.07Z" fill="#fff"/><path d="M14.88,19.19H25.57c1.25,0,1.42.27.77,1.36-2,3.33-.87,2.73-4.73,2.79-3.68.06-2.52-.58-4.54,2.56-1.66,2.57-3.21,5.22-4.74,7.87A2.29,2.29,0,0,1,10,35.09c-2.94-.08-5.88,0-8.83,0a4.8,4.8,0,0,1-1.2-.3,5.81,5.81,0,0,1,.38-1.18c1.82-3.05,3.68-6.09,5.51-9.14.53-.88.41-1.05-.61-1.06-1.21,0-2.42,0-3.63,0-.83,0-.92-.23-.55-1,1.61-3.16,1.61-3.16,5.14-3.16h8.64Z" fill="#fff"/></g></g></svg>