<svg xmlns="http://www.w3.org/2000/svg" width="190" height="140" viewBox="0 0 190 140"><path d="M47.24 73.91a6.17 6.17 0 0 0-2.74-.41 9.34 9.34 0 0 0-1.5.17c.09 2.65.21 4.86.33 7.45a4.14 4.14 0 0 0 2.88-1 6.83 6.83 0 0 0 1.85-4.3 2.08 2.08 0 0 0-.82-1.91zM116 77.82c-.41 0-1.17.53-1.53 1.5a6.49 6.49 0 0 0-.35 1.94c1.06-.2 2.15-.35 3.27-.56a6.84 6.84 0 0 0-.27-2 1.12 1.12 0 0 0-1.12-.88zM75.78 80.32c-1.15 0-1.65 1.35-1.65 2 0 1.68 1.18 4.09 2.62 4.09a2 2 0 0 0 2-2.06 7.5 7.5 0 0 0-.21-1.47c-.35-1.18-1.62-2.56-2.76-2.56z" fill="#fff"/><path d="M190 59.54C190 26.66 147.47 0 95 0S0 26.66 0 59.54s42.53 59.53 95 59.53c1.62 0 3.23 0 4.83-.07l-.49.07c23.36 0 8.34 19.4 11.37 19.4s12.61-2.23 24.57-25C167.6 104 190 83.4 190 59.54zM99.4 40.75a7.16 7.16 0 0 1 7.06 7.25 8.6 8.6 0 0 1-1.29 5.18 6.25 6.25 0 0 1-5.17 2.55A6.79 6.79 0 0 1 94.43 53a8 8 0 0 1-1.74-5.41 6.63 6.63 0 0 1 6.71-6.84zm-50.81-4.41v-.06c-1.23-.15-2-1.53-2-2.82a2.66 2.66 0 0 1 2.62-2.86c1.8-.17 3.24.68 3.47 3.89.18 2.23-2.09 6.53-4.47 8.44L46 40.75c.77-.56 2.65-3.75 2.59-4.41zM23.91 55.81l-.12-4.17c-.09-1.89-.12-3.42-.2-4.68v-.8c-.09-1.58-.68-8.59-.86-10.47A15.44 15.44 0 0 1 28 35.4c.21 1.44.06 2.88.21 4.5s.17 4.56.35 7.26c.12 1.89.32 6.62.47 8.54zM33.44 53v-6.42c-.94.08-1.91.14-2.32.17v-4.5c.76 0 1.91.09 2.23.06 0-.94 0-1.79.06-2.35.06-1.83.3-4.47.47-7.15a10.7 10.7 0 0 1 5.09.53l-.06 1.79-.08 1.18c0 1.09-.15 2-.24 3.88a10 10 0 0 0-.06 1.62c.91-.09 2.06-.15 3-.21l2.39-.14a5.36 5.36 0 0 1 .41 2.47 17.84 17.84 0 0 1-.18 2.12H38.71c0 1-.06 3-.06 5.5 0 1 .21 2 .88 2 .5-.06 2-2.27 2.12-2.56a5.48 5.48 0 0 1 3.82 2 8.37 8.37 0 0 1-7.62 5.62 4.58 4.58 0 0 1-1.08-.12C34.56 58 33.41 56.2 33.44 53zm17.8 28a9.67 9.67 0 0 1-4.32 3.38 8.92 8.92 0 0 1-3.45.68c.21 2.91.5 5.67.65 8.44a10.4 10.4 0 0 1-5.29.24c.11-2 .05-2.86.05-4 0-.64-.17-5.44-.5-15.24l-1.08.3-.3-4.13a40.85 40.85 0 0 1 8.06-1.47c3.77 0 6.24 1.12 7.39 3.35a5.55 5.55 0 0 1 .67 2.71A12 12 0 0 1 51.24 81zm2.59-31.16l5 .35a4.17 4.17 0 0 0-.06 2.36 1.15 1.15 0 0 0 1.21.85 2 2 0 0 0 1.82-2.12c0-1.44-1.41-1.91-2.79-2.41-2.53-.88-5.09-1.82-5.12-4.77-.06-3.91 3.71-5.2 6.77-5.2 2.82 0 5.29.26 5.47 5.65l-3.59.26c-.09-1.56-1-2.29-1.62-2.32A1.76 1.76 0 0 0 59 44.13c.09.59.76.8 1.91 1.18 2.59.88 5.88 2 5.88 6.18 0 3.38-2.79 5.74-6.64 5.74-5.56 0-6.44-3.03-6.32-7.36zm9.62 33.22l.09-2.18c0-.5-.15-1.09-.53-1-.74.18-1.09.38-2.27 1.71l-.7 1c0 1.15-.12 2.45-.06 3.77s0 1.59.23 5l-5.41-.09v-2.35c.18-3.41.29-5.18.21-9.21 0-1.59-.09-2.35-.24-4a29.34 29.34 0 0 1 4.91-.94c.06 1.26.18 2.76.18 2.76.68-.53 2.24-2.21 3.14-2.33a3.56 3.56 0 0 1 3.44 1.21 7 7 0 0 1 1.44 4.21l.12 1.91a36.43 36.43 0 0 1-4.55.56zm18.45 5.38A6.23 6.23 0 0 1 76.72 91a6.77 6.77 0 0 1-5.56-2.71 8 8 0 0 1-1.74-5.41 6.63 6.63 0 0 1 6.71-6.85 7.15 7.15 0 0 1 7.06 7.2 8.58 8.58 0 0 1-1.29 5.21zm-3.24-29.33l-.24-1.85c-.56-4.17-1.32-11.5-2.23-20.85l3.62-2.5c2.61 5.62 4.91 10.38 5.67 11.79v-4.14c0-2.48.06-5.68.15-8.15a7 7 0 0 1 2.27-.5 13.14 13.14 0 0 1 2.73.55c-.06 2.36-.11 5.42-.11 7.71 0 5.86.17 11.51.61 17.21l-2.82.71c-1.59-2.38-3.5-5.27-5.62-8.71.32 3.18.68 6 1 8.12a12.1 12.1 0 0 1-5.03.61zm21.62 26.33a9.2 9.2 0 0 1-2.41 5.3 7.2 7.2 0 0 1-5.3 1.41 11.45 11.45 0 0 1-3.2-1.3v2a15.13 15.13 0 0 1-3.18.24 7.22 7.22 0 0 1-1.68-.47c0-1.06.06-3.06.21-5.09l.38-3.74c0-.56.09-2 .15-4.47.06-4.56.24-6.65.38-10.38a12.82 12.82 0 0 1 .12-1.48c.06-.67.24-2 .35-2.64a11.67 11.67 0 0 1 5.18.23l-.21 1.71c-.14.76-.2 1.62-.29 2.53-.26 2.73-.38 4.94-.53 8.09a6.79 6.79 0 0 1 1.56 0A10.7 10.7 0 0 1 98.08 80a6.64 6.64 0 0 1 2.2 5.44zm6.89 6.88a12 12 0 0 1-5.15.27s.09-3 .12-4.56c.2-3.12.08-5.77.08-9.3 0-3.88.06-7.91-.11-11.71a6 6 0 0 0-.47-2.23 7.42 7.42 0 0 1 3.2-.62c.3 0 2.21.18 2.59.24-.44 5.44-.26 7.7-.38 11.79 0 1.68 0 7.42-.09 11-.03 2.01.15 4.09.21 5.12zm1-50.07c.76 0 1.91.09 2.23.06 0-.94 0-1.79.06-2.35.06-1.83.3-4.47.47-7.15a10.7 10.7 0 0 1 5.09.53l-.02 1.79-.09 1.18c0 1.09-.14 2-.23 3.88a10 10 0 0 0-.06 1.62c.91-.09 2.06-.15 3-.21l2.38-.14a5.26 5.26 0 0 1 .42 2.47 17.84 17.84 0 0 1-.18 2.12H115.8c0 1-.06 3-.06 5.5 0 1 .2 2 .88 2 .5-.06 2-2.27 2.12-2.56a5.48 5.48 0 0 1 3.82 2 8.37 8.37 0 0 1-7.62 5.62 4.58 4.58 0 0 1-1.08-.12c-2.24-.47-3.39-2.29-3.36-5.5v-6.41c-.94.08-1.91.14-2.32.17zM114.52 85c.74 1.85 2.24 2.65 4.59 2.65.32 0 1.59-.18 3.33-.41a13.68 13.68 0 0 1-2 5.61l-2.08-.38a13.72 13.72 0 0 1-4-1.2 8.51 8.51 0 0 1-4-3.42 11.57 11.57 0 0 1-1.41-5.67 10.14 10.14 0 0 1 .65-3.54c1.35-3.26 3.62-5 6.56-4.82 4.5.26 6.71 3.5 6.59 9.68zm27.19 7.71a42.32 42.32 0 0 1-.27-4.92c0-2.11-.15-5.67-.23-6.56a3.5 3.5 0 0 0-.45-1.2c-1.35-.27-2.26 2.91-2.32 4.59-.12 2.35-.18 4.53-.12 6.65L133 91l.26-1.91a44.59 44.59 0 0 0 .44-6.33c0-.94-.26-2.44-.7-2.62a3.3 3.3 0 0 0-3 2.06c-.12 4 .06 2.56.06 5.48 0 .82.08 2.55.08 2.55L124.7 90c.06-.09.35-3.44.53-5 .24-2 0-6.06-1.12-7.8a50.71 50.71 0 0 1 4.68-2.09 7.89 7.89 0 0 1 .91 2.39 6.09 6.09 0 0 1 3.3-2.15 3.82 3.82 0 0 1 2.56.47 5.18 5.18 0 0 1 2.06 2.06 4.67 4.67 0 0 1 3.38-2.35 4.44 4.44 0 0 1 4.18 1.73c1.14 1.56 1.06 3.91 1.12 6.12 0 2 .08 4.68.17 6.09 0 .68.24 1.74.38 2.77zm2.23-39.28h-2.38l-4.65-7.74c-.18 3.74-.15 6.54-.29 10-1.39.17-2.33.26-2.77.26a8.35 8.35 0 0 1-2.85-.62V53.6l1.41-18.15 3.09-2.24 6.53 11.59a65.6 65.6 0 0 1 5.44-11.44l4.27 1.44.17 1.59c.12.82.27 1.76.47 2.94l.33 2c.56 3.82 1.32 10.59 1.56 13.21l.08 1.74a8.41 8.41 0 0 1-2.91.61 8.7 8.7 0 0 1-2.7-.59v-1.81c0-.5-.15-1.09-.15-1.65a86.47 86.47 0 0 0-.74-10.35c-1.47 2.85-3.2 8.73-3.91 10.91zm6.77 40.48a2.42 2.42 0 0 1-2.53-2.59 2.56 2.56 0 0 1 2.62-2.58 2.51 2.51 0 0 1 2.5 2.47 2.61 2.61 0 0 1-2.59 2.67zM155.33 76c-.15.85-.39 2.47-.59 4.26l-.74 5.56a9.58 9.58 0 0 1-2.59 0 10.09 10.09 0 0 1-2.11-.44s.76-7.62.7-8.29.47-9 .47-9l5.5.56c-.11 1.35-.55 6.35-.64 7.35zM171 43.37c-1.3 2.77-3.33 7.24-6.92 16.18-.5 1.32-.56 1.35-1.2 3-.42 1.18-1.3 3.3-2 5.15-2.12-.15-3.59-.74-4.45-1.88.18-.36.5-1.15.62-1.42.56-1.29 1.38-3.56 1.94-5.17.86-2.15 1.42-3.56 2.3-5.68a14.06 14.06 0 0 1-4.06-4.62 16.82 16.82 0 0 1-1.88-7.41c1.41-.83 3.5-.47 5.11-.18A18.27 18.27 0 0 0 162 47a15 15 0 0 0 1.24 2.12c1.47-3.39 3-6.74 4.18-9.15a6.46 6.46 0 0 1 4.32 2l-.74 1.4z" fill="#fff"/><path d="M91.78 81.09a3 3 0 0 0-1.53.26 2.45 2.45 0 0 0 0 .47l-.09 2.47-.35 2.86a3.39 3.39 0 0 0 1.68.79 2.82 2.82 0 0 0 2.29-.82 2.58 2.58 0 0 0 .88-2 3.68 3.68 0 0 0-.7-2.39 3.88 3.88 0 0 0-2.18-1.64zM100 51.14a2 2 0 0 0 2-2.06 7.5 7.5 0 0 0-.21-1.47c-.32-1.21-1.59-2.59-2.73-2.59s-1.65 1.35-1.65 2c-.01 1.7 1.17 4.12 2.59 4.12z" fill="#fff"/></svg>