<svg xmlns="http://www.w3.org/2000/svg" viewBox="0 0 250 120"><path d="M54.2 8.14c-3.77 2.98-6.58 7.55-7.02 11.14-.35 2.98.61 5.53 3.77 5.7 3.33.18 6.84-2.81 9.3-5.44 1.93-2.11 3.69-5.26 3.86-7.11.09-.88 0-1.58-.44-2.28-.18-.35-.35-.44-.26-.61.09-.18.44 0 .7.26s1.05 1.32.97 3.33c-.18 2.37-1.67 5.18-3.6 7.37-2.28 2.46-6.76 5.44-10.7 5.18s-5.88-2.81-5.44-6.58c.44-3.51 3.42-8.07 8.07-11.58 4.21-3.16 9.39-5.35 13.95-5.35 5.26 0 10.18 2.19 9.91 8.07-.18 4.04-2.72 7.81-5.7 12.02-3.16 4.47-7.11 9.04-10.09 12.02v.09c2.81-1.93 5.7-4.12 10-7.28 3.69-2.63 8.07-5.88 10.88-8.07 1.05-2.98 2.28-6.14 3.86-8.69 2.11-3.33 4.39-5 6.23-5 1.58 0 2.72 1.4 2.02 3.51-1.14 3.6-5.62 6.67-7.98 8.95-1.32 5.44-2.98 12.81-5.79 16.58v.09c2.98-2.9 10.53-9.21 15.79-13.95 8.42-7.63 11.49-13.34 12.02-16.41.18-1.23.09-2.37-.53-2.98-.61-.53-1.23-.35-1.14-.61.09-.18.61-.26.88-.26 2.54 0 3.86 2.02 3.6 4.3-.35 3.6-4.21 9.13-13.95 17.11-6.93 5.7-13.78 11.41-19.48 16.85-.53.53-1.4 1.32-2.46 1.32-.88 0-.88-.79-.35-1.49 2.98-4.04 4.83-12.72 6.84-17.72v-.09c-1.67 1.4-7.02 5.44-11.32 8.6-3.69 2.63-11.49 8.34-14.74 10.44-.53.35-1.23.88-1.84.88-1.05 0-1.32-.7-.53-1.67 3.16-3.6 7.28-7.9 11.14-13.34 3.86-5.44 7.28-11.32 7.98-15.79.7-4.56-1.75-6.67-5.35-6.67-4.39 0-9.39 2.37-13.07 5.18zm39.22.79c.61-1.67 0-2.72-1.14-2.72-1.32 0-2.63 1.93-3.16 3.16-.97 2.02-1.84 4.91-2.37 6.84 1.67-1.58 5.53-4.39 6.67-7.28zM110.79 35.78c-.79.18-1.84.18-2.37-.18-2.28 1.75-6.41 4.3-10 4.3-2.72 0-4.39-1.32-4.3-3.86.18-2.11 1.14-3.95 2.46-5.44 1.49-1.67 3.42-3.25 5.44-4.3 2.37-1.23 5.09-2.11 6.93-2.19.61 0 1.32 0 1.32.35 0 .18-.26.18-.97.53-2.11.97-3.86 2.46-6.32 4.83-2.63 2.54-4.91 5.97-5.09 7.72-.09.88.26 1.49 1.23 1.49 1.93 0 5.44-2.37 8.16-5.35.09-.88.44-2.19 1.58-3.69.97-1.32 2.19-2.02 2.81-2.28.26-.61.26-1.58.26-2.02 0-.79-.35-1.23-.09-1.4.26-.18.88.18 1.23.53.79.7 1.23 1.75 1.05 3.07-.26 2.11-2.28 4.65-5 7.11.35.18 1.32.09 1.67 0 .79-.18 1.67-.53 2.98-1.49 1.14-.79 1.84-1.4 2.81-2.28.79-.7 1.23-1.14 1.49-.88.26.26-.26.79-1.14 1.58-.79.7-1.67 1.49-2.81 2.28-1.4.97-2.46 1.4-3.33 1.58z" fill="#fff"/><path d="M121.32 32.18c.97-1.32 2.54-3.33 3.51-4.56.61-.79.79-1.23.61-1.49-.26-.35-.79-.18-1.32.09-1.05.53-2.37 1.49-3.42 2.37-1.14.97-2.54 2.19-3.77 3.33-.88.79-1.23 1.05-1.49.79-.18-.26.26-.7 1.32-1.67 1.05-.97 2.98-2.81 4.56-4.04 2.37-1.84 4.12-2.9 5.97-2.9 1.67 0 2.19.97 2.19 1.93 0 1.05-.7 2.19-1.84 3.77-.7.97-1.93 2.54-2.63 3.51l.18.18c.97-.97 3.07-3.07 5.35-4.91 1.4-1.14 2.81-2.28 4.3-3.25 1.32-.88 2.02-1.14 2.54-1.23.44-.09 1.58-.09 2.02.09.26.09.35.44-.61 1.23-1.23 1.05-2.9 2.54-3.33 4.04-.7 2.37.35 3.42 1.67 3.42 1.05 0 2.02-.79 2.98-1.67.61-.53.88-.7 1.14-.53.18.18-.09.53-.88 1.32s-2.02 1.67-3.25 1.75c-1.67.09-2.98-.35-3.77-1.58-.61-.97-.61-2.81.18-4.65-1.32.97-3.07 2.28-3.77 2.9-2.54 2.19-5.44 4.91-8.86 8.25-.61.61-1.32.79-2.28.79-1.23 0-1.84-.18-1.14-1.4.61-1.14 2.46-4.04 3.86-5.88z" fill="#fff"/><path d="M144.39 28.32l-3.6 3.25c-.53.44-.79.53-.97.26-.09-.26.18-.53.44-.79.35-.35 3.69-3.25 6.41-5.53 2.28-2.9 6.58-8.25 10.35-12.55 2.98-3.51 6.58-7.37 10.44-10.88 1.05-.97 2.02-1.49 3.16-1.49.88 0 1.32.35 1.32.61-1.67 1.67-9.39 10.18-13.07 14.56-5.88 7.11-12.2 15.27-14.04 19.3-.26.61-.79 1.84-.18 2.37.61.44 1.93-.09 2.72-.53 1.14-.61 2.37-1.49 3.6-2.46 1.58-1.23 2.72-2.19 3.86-3.25.35-.35 1.05-.97 1.32-.7.18.18-.09.53-.61 1.05-1.05 1.05-3.25 2.98-5.35 4.56-1.75 1.32-5 3.51-7.9 3.51-1.75 0-2.81-.79-2.72-2.37.09-2.11 2.28-5.53 4.91-8.86l-.09-.09z" fill="#fff"/><path d="M170.37 24.11c1.67.26 2.28 1.67 1.93 2.98h.09c2.72-3.95 6.76-8.95 11.23-14.13 3.07-3.6 6.67-7.37 10.44-10.88.97-.97 2.02-1.49 3.25-1.49.88 0 1.23.26 1.32.61-2.37 2.28-6.76 7.11-10 10.88-2.9 3.33-5.88 6.93-10.97 13.42-2.72 3.51-6.49 8.69-7.28 10.09-.61 1.05-.61 1.75-.26 2.02.44.35 1.32 0 2.02-.35.88-.44 2.54-1.58 3.95-2.72a92.5 92.5 0 0 0 4.21-3.6c.53-.44.97-.88 1.23-.61.26.26-.18.7-1.14 1.58-1.14 1.05-3.25 2.9-4.91 4.21-1.75 1.4-4.65 3.51-7.55 3.51-1.67 0-2.46-.79-2.54-1.84-.09-.97.44-2.19 1.23-3.16l-.09-.09c-2.28 2.02-6.32 4.91-9.65 5.09-1.93.09-3.95-.7-3.6-3.51.18-1.32.88-2.72 2.46-4.56l-.09-.09-1.14 1.05c-.35.26-.61.44-.79.26-.18-.26.44-.97 1.4-1.84.26-.26 1.58-1.32 2.46-1.93.88-.61 2.28-1.58 4.04-2.46 3.07-1.58 6.32-2.81 8.77-2.46zm-8.43 6.41c-3.6 3.51-5.09 5.79-4.91 6.93.09.61.53.88 1.14.88 1.67 0 5-1.93 7.37-4.12 2.81-2.46 5.97-6.23 6.05-7.63.09-1.14-.61-1.58-1.58-1.58-1.75 0-4.91 2.37-8.07 5.53zM201.34 9.9c-2.19 2.54-5.62 4.83-6.93 5.7-.53.35-.88.61-1.05.44-.18-.26.18-.44.7-.97 1.05-1.05 2.19-2.37 2.9-3.77.44-.79-.09-1.32.18-1.93.35-.88 2.02-1.4 3.69-1.58.88-.09 1.23.18 1.23.61 0 .53-.26.97-.7 1.49zM196.6 30.69c-.35.18-.7.35-.88.09-.09-.26 0-.44.44-.7.88-.53 2.28-1.4 3.69-2.46 1.58-1.14 3.16-2.46 5.18-4.21.18-.35.79-1.05 1.4-1.49.97-.7 1.93-.97 2.54-.97 2.02 0 .7 1.14-.44 1.84-.79.53-1.67.88-2.11 1.32-.7.7-.61 1.4-.61 2.37.09 2.46.26 4.74-.79 7.19-.53 1.23-1.49 2.46-2.81 3.6-2.37 2.02-4.91 2.63-7.63 2.63-4.56 0-5.53-2.81-5.18-5.26.35-2.54 2.37-4.65 4.47-4.56 1.23.09 1.84.97 1.67 1.93-.18.88-.79 1.58-1.93 2.19-.79.44-1.93 1.4-2.02 2.63-.09 1.4.97 2.19 2.54 2.19 1.75 0 3.95-1.4 5.88-4.74 1.58-2.54 3.16-7.81 4.12-8.95v-.09c-.88.88-2.72 2.28-4.21 3.33-1.23.88-2.63 1.75-3.33 2.11zM15.23 74.37V58.96h-.35c-.74 0-1.31-.19-1.69-.58-.39-.39-.58-.95-.58-1.69 0-.8.21-1.38.62-1.75.41-.36 1.08-.55 2-.55h5.1c2.88 0 4.99.12 6.32.37 1.34.25 2.47.66 3.41 1.24 1.67.99 2.94 2.41 3.83 4.24s1.33 3.96 1.33 6.37c0 2.55-.51 4.78-1.52 6.68-1.01 1.91-2.45 3.35-4.31 4.33-.84.44-1.83.76-2.95.96-1.13.2-2.81.3-5.04.3h-6.18c-.95 0-1.62-.18-2.02-.53-.4-.35-.6-.94-.6-1.77 0-.73.19-1.28.58-1.66.39-.38.95-.57 1.69-.57h.35zm5.33-15.49v15.49h1.18c2.6 0 4.52-.64 5.76-1.91 1.24-1.27 1.86-3.23 1.86-5.88s-.63-4.54-1.89-5.82c-1.26-1.28-3.16-1.92-5.69-1.92-.33 0-.58 0-.75.01-.17 0-.33.02-.46.03zM55.25 58.76h-9.61v5.29h3.64v-.25c0-.78.17-1.37.52-1.76.34-.39.87-.58 1.57-.58.62 0 1.13.18 1.52.53.39.35.59.8.59 1.33 0 .03 0 .12.02.27.01.15.02.3.02.45v4.28c0 .92-.17 1.58-.5 1.98-.33.4-.87.6-1.61.6-.7 0-1.23-.19-1.59-.56s-.54-.92-.54-1.65v-.37h-3.64v6.18h9.61v-2.46c0-.92.18-1.58.53-1.98.35-.4.93-.6 1.72-.6s1.35.2 1.68.59c.34.39.51 1.06.51 1.99v5c0 .74-.14 1.24-.43 1.49s-.86.37-1.71.37H40.63c-.91 0-1.56-.18-1.95-.54-.39-.36-.59-.94-.59-1.76 0-.73.19-1.28.56-1.66.37-.38.92-.57 1.63-.57h.35V58.96h-.35c-.7 0-1.24-.2-1.62-.59-.38-.39-.57-.95-.57-1.68 0-.8.2-1.38.6-1.75.4-.36 1.05-.55 1.94-.55h16.92c.84 0 1.41.13 1.7.38.3.25.44.76.44 1.52v4.63c0 .94-.17 1.61-.52 2.01-.34.41-.9.61-1.67.61s-1.37-.21-1.72-.62c-.35-.41-.53-1.08-.53-2v-2.17zM85.11 74.37h.35c.74 0 1.31.19 1.69.57.38.38.58.93.58 1.66 0 .81-.2 1.4-.61 1.76-.41.36-1.08.54-2.01.54h-6.22c-.95 0-1.63-.18-2.02-.53-.4-.35-.6-.94-.6-1.77s.2-1.37.6-1.71c.4-.34 1.07-.52 2.02-.52h.72l-.85-2.42h-8.92l-.89 2.42h.72c.94 0 1.61.18 2.01.53.41.35.61.92.61 1.7s-.2 1.4-.61 1.76c-.41.36-1.08.54-2.01.54h-5.33c-.95 0-1.62-.18-2.02-.54-.4-.36-.6-.94-.6-1.76 0-.73.19-1.28.58-1.66.39-.38.95-.57 1.69-.57h.35l5.54-15.41h-1.65c-.94 0-1.61-.18-2.01-.54-.41-.36-.61-.94-.61-1.74s.2-1.4.61-1.76c.41-.36 1.08-.54 2.01-.54h7.75c1.23 0 2.09.66 2.58 1.98v.06l6.55 17.93zM74.29 58.96l-3 8.72h5.99l-3-8.72zM91.39 74.37V58.96h-.35c-.74 0-1.31-.19-1.69-.58-.39-.39-.58-.95-.58-1.69 0-.8.21-1.38.62-1.75.41-.36 1.08-.55 2-.55h5.1c2.88 0 4.99.12 6.32.37 1.34.25 2.47.66 3.41 1.24 1.67.99 2.94 2.41 3.83 4.24s1.33 3.96 1.33 6.37c0 2.55-.51 4.78-1.52 6.68-1.01 1.91-2.45 3.35-4.31 4.33-.84.44-1.83.76-2.95.96-1.13.2-2.81.3-5.04.3h-6.18c-.95 0-1.62-.18-2.02-.53-.4-.35-.6-.94-.6-1.77 0-.73.19-1.28.58-1.66.39-.38.95-.57 1.69-.57h.35zm5.33-15.49v15.49h1.18c2.6 0 4.52-.64 5.76-1.91 1.24-1.27 1.86-3.23 1.86-5.88s-.63-4.54-1.89-5.82c-1.26-1.28-3.16-1.92-5.69-1.92-.33 0-.58 0-.75.01-.17 0-.33.02-.46.03zM123.24 58.96v15.41h9.4v-3.68c0-.95.17-1.62.51-2.02.34-.4.9-.6 1.68-.6s1.36.2 1.71.61c.36.41.54 1.08.54 2.01v6.34c0 .74-.14 1.24-.43 1.49s-.87.37-1.74.37h-18.74c-.9 0-1.54-.18-1.92-.54-.39-.36-.58-.94-.58-1.76s.19-1.37.57-1.71c.38-.34 1.02-.52 1.93-.52h1.82V58.95h-1.82c-.9 0-1.54-.18-1.92-.54-.39-.36-.58-.94-.58-1.74s.2-1.38.61-1.75c.41-.36 1.05-.55 1.93-.55h8.8c.88 0 1.53.18 1.93.55.41.37.61.95.61 1.75s-.2 1.38-.6 1.74c-.4.36-1.05.54-1.94.54h-1.78zM153.53 58.96v15.41H157c.94 0 1.61.18 2.01.53.41.35.61.92.61 1.7s-.21 1.38-.62 1.75c-.41.37-1.08.55-2 .55h-12.27c-.94 0-1.61-.18-2.01-.54-.41-.36-.61-.94-.61-1.76s.2-1.37.6-1.71c.4-.34 1.07-.52 2.02-.52h3.47V58.96h-3.47c-.94 0-1.61-.18-2.01-.54-.41-.36-.61-.94-.61-1.74s.2-1.39.6-1.74c.4-.34 1.07-.52 2.02-.52H157c.98 0 1.66.17 2.05.52.39.34.58.92.58 1.74s-.2 1.38-.6 1.74c-.4.36-1.07.54-2.02.54h-3.47zM182.18 58.76h-9.61v5.29h3.64v-.25c0-.78.17-1.37.52-1.76.34-.39.87-.58 1.57-.58.62 0 1.13.18 1.52.53.39.35.59.8.59 1.33 0 .03 0 .12.02.27.01.15.02.3.02.45v4.28c0 .92-.17 1.58-.5 1.98-.33.4-.87.6-1.61.6-.7 0-1.23-.19-1.59-.56s-.54-.92-.54-1.65v-.37h-3.64v6.18h9.61v-2.46c0-.92.18-1.58.53-1.98.35-.4.93-.6 1.72-.6s1.35.2 1.68.59c.34.39.51 1.06.51 1.99v5c0 .74-.14 1.24-.43 1.49s-.86.37-1.71.37h-16.92c-.91 0-1.56-.18-1.95-.54-.39-.36-.59-.94-.59-1.76 0-.73.19-1.28.56-1.66.37-.38.92-.57 1.63-.57h.35V58.96h-.35c-.7 0-1.24-.2-1.62-.59-.38-.39-.57-.95-.57-1.68 0-.8.2-1.38.6-1.75.4-.36 1.05-.55 1.94-.55h16.92c.84 0 1.41.13 1.7.38.3.25.44.76.44 1.52v4.63c0 .94-.17 1.61-.52 2.01-.34.41-.9.61-1.67.61s-1.37-.21-1.72-.62c-.35-.41-.53-1.08-.53-2v-2.17zM206.8 54.87c.21-.44.44-.74.7-.91.26-.17.66-.25 1.2-.25.8 0 1.31.15 1.54.44.23.3.35.88.38 1.77l.08 3.97v.23c0 .81-.16 1.38-.49 1.7-.32.32-.87.49-1.64.49-.98 0-1.71-.52-2.19-1.57-.07-.15-.12-.28-.16-.37-.43-.85-1.01-1.5-1.74-1.93-.73-.43-1.59-.65-2.58-.65-1.24 0-2.24.29-3.01.86-.76.57-1.15 1.3-1.15 2.2 0 1.27 1.75 2.27 5.25 3 .59.12 1.06.22 1.4.29 2.64.58 4.56 1.46 5.74 2.64 1.18 1.18 1.78 2.8 1.78 4.85 0 2.53-.86 4.49-2.58 5.86-1.72 1.37-4.19 2.06-7.39 2.06-1.25 0-2.37-.08-3.36-.25-.98-.17-1.94-.42-2.86-.76-.22.36-.47.62-.76.77-.29.16-.69.24-1.2.24-.87 0-1.47-.17-1.82-.5-.34-.33-.52-.92-.54-1.76l-.08-4.85v-.23c0-.91.17-1.54.51-1.9.34-.36.93-.54 1.77-.54.89 0 1.65.65 2.25 1.94.14.32.25.56.33.72.54 1.06 1.28 1.85 2.24 2.38.96.52 2.13.78 3.52.78 1.27 0 2.25-.26 2.95-.78.7-.52 1.05-1.26 1.05-2.21 0-1.47-1.59-2.59-4.77-3.35-.95-.22-1.7-.41-2.25-.56-2.67-.7-4.52-1.58-5.56-2.63-1.03-1.05-1.55-2.5-1.55-4.33 0-2.35.88-4.28 2.65-5.77 1.77-1.49 4.06-2.24 6.87-2.24.94 0 1.86.1 2.76.29.9.19 1.8.48 2.7.87zM234 58.92h-4.32v15.41h3.47c.92 0 1.58.18 1.98.54.4.36.6.94.6 1.74s-.2 1.4-.6 1.76c-.4.36-1.06.54-1.98.54h-12.27c-.91 0-1.56-.18-1.96-.54-.4-.36-.6-.94-.6-1.76s.2-1.39.59-1.75c.39-.35 1.05-.53 1.97-.53h3.47V58.92h-4.32l-.12 4.19v.52c0 .66-.18 1.18-.55 1.55s-.87.56-1.52.56c-.77 0-1.34-.2-1.7-.59-.37-.39-.55-1.02-.55-1.87v-.17l.23-6.18c.04-1.23.21-1.96.51-2.21.3-.25.9-.37 1.81-.37h17.76c.91 0 1.51.12 1.81.37.3.25.47.98.53 2.21l.21 6.18v.17c0 .87-.17 1.49-.52 1.88-.34.39-.9.58-1.67.58s-1.28-.19-1.6-.57c-.32-.38-.5-1.06-.53-2.06l-.12-4.19zM17.17 98.97H7.56v5.29h3.64v-.25c0-.78.17-1.37.52-1.76.34-.39.87-.58 1.57-.58.62 0 1.13.18 1.52.53.39.35.59.8.59 1.33 0 .03 0 .12.02.27.01.15.02.3.02.45v4.28c0 .92-.17 1.58-.5 1.98-.33.4-.87.6-1.61.6-.7 0-1.23-.19-1.59-.56s-.54-.92-.54-1.65v-.37H7.56v6.18h9.61v-2.46c0-.92.18-1.58.53-1.98.35-.4.93-.6 1.72-.6s1.35.2 1.68.59c.34.39.51 1.06.51 1.99v5c0 .74-.14 1.24-.43 1.49s-.86.37-1.71.37H2.54c-.91 0-1.56-.18-1.95-.54-.39-.36-.59-.94-.59-1.76 0-.73.19-1.28.56-1.66.37-.38.92-.57 1.63-.57h.35V99.17h-.35c-.7 0-1.24-.2-1.62-.59-.38-.39-.57-.95-.57-1.68 0-.8.2-1.38.6-1.75.4-.36 1.05-.55 1.94-.55h16.92c.84 0 1.41.13 1.7.38.3.25.44.76.44 1.52v4.63c0 .94-.17 1.61-.52 2.01-.34.41-.9.61-1.67.61s-1.37-.21-1.72-.62c-.35-.41-.53-1.08-.53-2v-2.17zM34 99.18l2.81 3.95 2.71-3.95c-.67-.05-1.18-.28-1.53-.66-.34-.39-.52-.92-.52-1.61 0-.81.2-1.4.6-1.76.4-.36 1.06-.54 1.98-.54h4.63c.92 0 1.59.18 1.99.54.41.36.61.94.61 1.76 0 .76-.2 1.33-.59 1.7-.39.38-.98.57-1.77.57h-.6l-5.16 7.17 6.09 8.2h.52c.79 0 1.37.19 1.77.57.39.38.59.95.59 1.7 0 .81-.2 1.4-.61 1.76-.41.36-1.08.54-2.01.54h-5.54c-.94 0-1.61-.18-2.01-.54-.41-.36-.61-.94-.61-1.76 0-.74.18-1.3.54-1.66.36-.36.92-.57 1.67-.61l-3.18-4.61-3.26 4.61c.8.01 1.39.21 1.77.59.38.38.57.94.57 1.68 0 .81-.2 1.4-.61 1.76-.41.36-1.08.54-2.01.54h-4.81c-.94 0-1.6-.18-1.99-.54-.39-.36-.59-.94-.59-1.76 0-.76.2-1.33.59-1.7.39-.38.98-.57 1.77-.57h.52l5.66-7.75-5.49-7.62H28c-.8 0-1.39-.19-1.79-.57-.39-.38-.59-.95-.59-1.7 0-.81.2-1.4.61-1.76.41-.36 1.08-.54 2.01-.54h5.29c.94 0 1.61.18 2.01.54.41.36.61.94.61 1.76 0 .7-.18 1.25-.54 1.63-.36.39-.89.6-1.59.64zM67.94 98.97h-9.61v5.29h3.64v-.25c0-.78.17-1.37.52-1.76.34-.39.87-.58 1.57-.58.62 0 1.13.18 1.52.53.39.35.59.8.59 1.33 0 .03 0 .12.02.27.01.15.02.3.02.45v4.28c0 .92-.17 1.58-.5 1.98-.33.4-.87.6-1.61.6-.7 0-1.23-.19-1.59-.56s-.54-.92-.54-1.65v-.37h-3.64v6.18h9.61v-2.46c0-.92.18-1.58.53-1.98.35-.4.93-.6 1.72-.6s1.35.2 1.68.59c.34.39.51 1.06.51 1.99v5c0 .74-.14 1.24-.43 1.49s-.86.37-1.71.37H53.32c-.91 0-1.56-.18-1.95-.54-.39-.36-.59-.94-.59-1.76 0-.73.19-1.28.56-1.66.37-.38.92-.57 1.63-.57h.35V99.17h-.35c-.7 0-1.24-.2-1.62-.59-.38-.39-.57-.95-.57-1.68 0-.8.2-1.38.6-1.75.4-.36 1.05-.55 1.94-.55h16.92c.84 0 1.41.13 1.7.38.3.25.44.76.44 1.52v4.63c0 .94-.17 1.61-.52 2.01-.34.41-.9.61-1.67.61s-1.37-.21-1.72-.62c-.35-.41-.53-1.08-.53-2v-2.17zM93.88 95.3c.28-.5.56-.85.85-1.05.29-.21.65-.31 1.09-.31.67 0 1.15.18 1.44.54.28.36.42.97.42 1.84l.04 5.37c0 .95-.16 1.59-.46 1.92-.31.33-.87.5-1.68.5-.58 0-1.02-.14-1.33-.41s-.58-.79-.8-1.53c-.36-1.31-.93-2.26-1.71-2.83-.79-.57-1.87-.86-3.26-.86-2.12 0-3.75.72-4.87 2.15-1.13 1.43-1.69 3.51-1.69 6.23s.57 4.78 1.71 6.23c1.14 1.45 2.77 2.17 4.9 2.17 1.45 0 3.04-.48 4.78-1.45 1.74-.96 2.84-1.45 3.29-1.45.54 0 .99.23 1.35.68s.55 1.02.55 1.69c0 1.21-1.07 2.35-3.2 3.43-2.13 1.07-4.54 1.61-7.21 1.61-3.61 0-6.53-1.19-8.76-3.57-2.23-2.38-3.35-5.49-3.35-9.34s1.13-6.78 3.39-9.23c2.26-2.45 5.12-3.68 8.59-3.68.98 0 1.94.11 2.89.33.95.22 1.96.56 3.04 1.03zM108.53 99.18v10.8c0 1.91.33 3.27 1 4.08.67.81 1.78 1.21 3.34 1.21s2.67-.41 3.35-1.22c.67-.81 1.01-2.17 1.01-4.07v-10.8h-.33c-.73 0-1.28-.19-1.66-.58-.38-.39-.57-.95-.57-1.69 0-.81.2-1.4.59-1.76.39-.36 1.05-.54 1.97-.54h5.16c.94 0 1.6.18 1.99.54.39.36.59.94.59 1.76 0 .74-.19 1.31-.57 1.69-.38.39-.93.58-1.66.58h-.35v10.72c0 3.47-.75 5.98-2.24 7.53-1.49 1.55-3.9 2.32-7.22 2.32s-5.96-.76-7.47-2.28c-1.51-1.52-2.26-4.05-2.26-7.57V99.18h-.35c-.74 0-1.31-.19-1.69-.58-.39-.39-.58-.95-.58-1.69 0-.81.2-1.4.61-1.76.41-.36 1.08-.54 2.01-.54h5.33c.92 0 1.59.18 2 .54.41.36.62.94.62 1.76 0 .74-.2 1.31-.59 1.69-.39.39-.96.58-1.7.58h-.33zM145.15 99.14h-4.32v15.41h3.47c.92 0 1.58.18 1.98.54.4.36.6.94.6 1.74s-.2 1.4-.6 1.76c-.4.36-1.06.54-1.98.54h-12.27c-.91 0-1.56-.18-1.96-.54-.4-.36-.6-.94-.6-1.76s.2-1.39.59-1.75c.39-.35 1.05-.53 1.97-.53h3.47V99.14h-4.32l-.12 4.19v.52c0 .66-.18 1.18-.55 1.55s-.87.56-1.52.56c-.77 0-1.34-.2-1.7-.59-.37-.39-.55-1.02-.55-1.87v-.17l.23-6.18c.04-1.23.21-1.96.51-2.21.3-.25.9-.37 1.81-.37h17.76c.91 0 1.51.12 1.81.37.3.25.47.98.53 2.21l.21 6.18v.17c0 .87-.17 1.49-.52 1.88-.34.39-.9.58-1.67.58s-1.28-.19-1.6-.57c-.32-.38-.5-1.06-.53-2.06l-.12-4.19zM166.22 99.18v15.41h3.47c.94 0 1.61.18 2.01.53.41.35.61.92.61 1.7s-.21 1.38-.62 1.75c-.41.37-1.08.55-2 .55h-12.27c-.94 0-1.61-.18-2.01-.54-.41-.36-.61-.94-.61-1.76s.2-1.37.6-1.71c.4-.34 1.07-.52 2.02-.52h3.47V99.18h-3.47c-.94 0-1.61-.18-2.01-.54-.41-.36-.61-.94-.61-1.74s.2-1.39.6-1.74c.4-.34 1.07-.52 2.02-.52h12.27c.98 0 1.66.17 2.05.52.39.34.58.92.58 1.74s-.2 1.38-.6 1.74c-.4.36-1.07.54-2.02.54h-3.47zM188.94 93.93c3.39 0 6.18 1.21 8.37 3.64 2.19 2.42 3.28 5.52 3.28 9.27s-1.09 6.89-3.26 9.3c-2.18 2.41-4.97 3.61-8.39 3.61s-6.16-1.22-8.37-3.65c-2.2-2.43-3.3-5.52-3.3-9.26s1.09-6.87 3.27-9.28 4.98-3.63 8.4-3.63zm0 4.79c-1.78 0-3.17.72-4.18 2.15-1.01 1.43-1.52 3.42-1.52 5.97s.51 4.54 1.53 5.99c1.02 1.45 2.41 2.17 4.17 2.17s3.17-.72 4.19-2.16c1.02-1.44 1.53-3.44 1.53-6s-.51-4.54-1.52-5.97c-1.01-1.43-2.41-2.15-4.2-2.15zM219.12 110.56V99.18h-1.14c-.91 0-1.56-.18-1.95-.54-.39-.36-.59-.94-.59-1.74s.2-1.38.59-1.75c.39-.36 1.04-.55 1.95-.55h5.87c.89 0 1.54.18 1.94.55.4.37.6.95.6 1.75 0 .73-.19 1.29-.57 1.68-.38.39-.92.59-1.62.59h-.35v18.76c0 .65-.07 1.05-.21 1.22-.14.17-.45.25-.93.25h-2.07c-.66 0-1.13-.07-1.39-.21-.27-.14-.5-.38-.69-.72l-8.59-15.1v11.22h1.2c.89 0 1.54.17 1.92.52.39.34.58.92.58 1.71s-.2 1.4-.59 1.76c-.39.36-1.03.54-1.91.54h-5.93c-.9 0-1.54-.18-1.94-.54-.4-.36-.6-.94-.6-1.76 0-.73.19-1.28.56-1.66.37-.38.92-.57 1.65-.57h.33V99.18h-.33c-.7 0-1.25-.2-1.63-.59-.39-.39-.58-.95-.58-1.68 0-.8.2-1.38.61-1.75.41-.36 1.05-.55 1.93-.55h3.39c.81 0 1.36.11 1.65.32.29.21.61.64.97 1.29l7.87 14.34zM244.88 95.09c.21-.44.44-.74.7-.91.26-.17.66-.25 1.2-.25.8 0 1.31.15 1.54.44.23.3.35.88.38 1.77l.08 3.97v.23c0 .81-.16 1.38-.49 1.7-.32.32-.87.49-1.64.49-.98 0-1.71-.52-2.19-1.57-.07-.15-.12-.28-.16-.37-.43-.85-1.01-1.5-1.74-1.93-.73-.43-1.59-.65-2.58-.65-1.24 0-2.24.29-3.01.86-.76.57-1.15 1.3-1.15 2.2 0 1.27 1.75 2.27 5.25 3 .59.12 1.06.22 1.4.29 2.64.58 4.56 1.46 5.74 2.64 1.18 1.18 1.78 2.8 1.78 4.85 0 2.53-.86 4.49-2.58 5.86-1.72 1.37-4.19 2.06-7.39 2.06-1.25 0-2.37-.08-3.36-.25-.98-.17-1.94-.42-2.86-.76-.22.36-.47.62-.76.77-.29.16-.69.24-1.2.24-.87 0-1.47-.17-1.82-.5-.34-.33-.52-.92-.54-1.76l-.08-4.85v-.23c0-.91.17-1.54.51-1.9.34-.36.93-.54 1.77-.54.89 0 1.65.65 2.25 1.94.14.32.25.56.33.72.54 1.06 1.28 1.85 2.24 2.38.96.52 2.13.78 3.52.78 1.27 0 2.25-.26 2.95-.78.7-.52 1.05-1.26 1.05-2.21 0-1.47-1.59-2.59-4.77-3.35-.95-.22-1.7-.41-2.25-.56-2.67-.7-4.52-1.58-5.56-2.63-1.03-1.05-1.55-2.5-1.55-4.33 0-2.35.88-4.28 2.65-5.77 1.77-1.49 4.06-2.24 6.87-2.24.94 0 1.86.1 2.76.29.9.19 1.8.48 2.7.87z" fill="#fff"/></svg>