<svg id="images" xmlns="http://www.w3.org/2000/svg" width="250" height="88" viewBox="0 0 250 88"><path d="M90.77,13.34V47h10.78V22.11s4-.64,4,1.05c0,2.44-2.89,2-2.89,2v8.24s13.88,1.06,13.88-10.77c0-11.2-20.71-9.3-21.76-9.3Z" fill="#fff"/><polygon points="115.6 47.04 129.76 14.5 134.3 14.5 136.62 14.5 149.2 47.04 140 47.04 136.72 38.71 129.72 38.71 132.74 30.13 133.98 30.13 132.7 26.46 125.21 47.04 115.6 47.04" fill="#fff"/><polygon points="152.13 14.5 152.13 47.04 173.52 47.04 177.92 39.2 162.27 39.2 162.27 22.45 173.64 22.45 177.06 14.5 152.13 14.5" fill="#fff"/><polygon points="192.79 39.2 192.79 33.09 196.37 33.09 199.31 25.63 192.79 25.63 192.79 22.45 204.16 22.45 207.58 14.5 182.65 14.5 182.65 47.04 204.03 47.04 208.44 39.2 192.79 39.2" fill="#fff"/><polygon points="1.23 38.71 48.98 38.71 47.34 46.16 30.77 51.69 30.77 87.63 20.79 87.63 20.79 51.78 3.26 47.04 1.23 38.71" fill="#fff"/><polygon points="74.75 54.78 79.11 85.59 89.09 85.59 90.77 78.33 93.35 85.59 102.94 85.59 106.43 54.78 98.97 54.78 96.26 71.64 93.64 64.47 87.15 64.47 85.51 71.45 82.79 54.78 74.75 54.78" fill="#fff"/><polygon points="138.98 54.78 109.14 54.78 110.69 62.44 120.19 62.44 120.19 85.59 129.1 85.59 129.1 62.44 137.04 62.44 138.98 54.78" fill="#fff"/><polygon points="183.64 54.3 183.64 77.65 176.57 77.65 176.57 54.3 168.82 54.3 168.82 85.59 191.39 85.59 191.39 54.3 183.64 54.3" fill="#fff"/><polygon points="197.52 54.3 197.52 85.59 216.58 85.59 220.84 78.21 207.34 78.21 207.34 62 216.7 62 220.01 54.3 197.52 54.3" fill="#fff"/><path d="M142.27,85.59V54.3h12.89c3.58,0,9.86,2.62,9.86,7.75s-6,8.14-6,8.14l6,15.11h-8.5L150.8,66.89s5.76-1.44,5.62-3.48c-.2-2.81-6.49-2.23-6.49-2.23V85.59Z" fill="#fff"/><rect x="225.88" y="54.3" width="7.94" height="31.29" fill="#fff"/><polygon points="234.98 66.31 234.98 72.9 240.89 85.59 250 85.59 243.12 69.95 250 63.12 246.61 54.78 234.98 66.31" fill="#fff"/><path d="M45.5,54.78V85.59H71V54.78ZM61.36,75.4H55.11v-9h6.25Z" fill="#fff"/><path d="M19.07,55.92A77.53,77.53,0,0,1,9,56.29L2,63.16s2.79.33,4.91.66,3.77,1.14,2.29,3.1S0,77.23,0,77.23a97.31,97.31,0,0,0,19.07-.67Z" fill="#fff"/><path d="M81.32,35.34c-.81-11.45-23.56-13.9-28.79-14.89s-2.46-3.11,3.92-5.56,19.47-1.31,19.47-1.31V0C48.27.16,25,10.64,26.67,20s27.82,13.09,30.6,13.26,8.84,2-7.85,13.09l-.41.26a1.71,1.71,0,0,1-1.13,1.23l-2.16.72A60.54,60.54,0,0,1,32.5,53.59V74.06a104.61,104.61,0,0,0,11.27-3.5V54.78a1.73,1.73,0,0,1,1.73-1.72H71a1.72,1.72,0,0,1,1.6,1.11C79.35,48.13,81.81,42.15,81.32,35.34Z" fill="#fff"/></svg>