<svg xmlns="http://www.w3.org/2000/svg" width="200" height="90" viewBox="0 0 200 90"><path d="M174.3 25.1c-2.77 0-3.5 2-3.5 5.91v30.17c2.27-1.32 4.42-2.65 6.46-4V29.63c0-2.42-.36-4.53-2.96-4.53zM148.35 48.35V58c0 2.48.85 4.29 3 4.29 2.41 0 3.38-1.75 3.38-6.16V43h-1.27c-3.12 0-5.11 1.24-5.11 5.35zM83.1 48.35V58c0 2.48.85 4.29 3 4.29 2.41 0 3.38-1.75 3.38-6.16V43h-1.31c-3.08 0-5.07 1.24-5.07 5.35zM42.54 48.35V58c0 2.48.85 4.29 3 4.29 2.41 0 3.38-1.75 3.38-6.16V43h-1.31c-3.08 0-5.07 1.24-5.07 5.35z" fill="#fff"/><path d="M199.66 24.63c-2-9.4-12.72-16.12-28.86-19.63v18.35c.91-1.81 2.66-3.14 5.74-3.14 4.71 0 6.15 3.5 6.15 8V53.3c12.41-9.49 18.91-19.59 16.97-28.67zM24.86 1.06c6.82 0 8.21 4.77 8.21 9.48V18H27.7v-7.34c0-3-.55-4.95-2.9-4.95s-3 2.05-3 5c0 1.21.11 4.95.11 7.09 0 8.39 11.78 22.74 11.78 32.62v7c0 5.67-1.87 11-9 11s-8.89-4.61-8.89-9.92v-9.08h5.38v9.14c0 3.32 1.08 5.19 3.62 5.19s3.5-2.24 3.5-5.62c0-2 .12-2.72.12-7.56 0-8-12-24.56-12-32.9v-6.22c0-5.26 1.57-10.39 8.45-10.39m0-.71c-6.08 0-9.17 3.73-9.17 11.1V17.67c0 4.37 3.12 10.81 6.14 17 2.86 5.92 5.83 12 5.83 15.86 0 2.92-.05 4.31-.08 5.43 0 .71-.05 1.32-.05 2.13 0 4.32-1.4 4.9-2.78 4.9s-2.91-.46-2.91-4.47V48.7h-6.8v9.8c0 7 3.23 10.55 9.59 10.55s9.77-4 9.77-11.7v-7c0-5.31-3.22-11.71-6.33-17.9-2.81-5.59-5.46-10.87-5.46-14.72 0-1.23 0-3-.06-4.48v-2.61c0-3.72 1.07-4.23 2.24-4.23 1.38 0 2.18.69 2.18 4.23v8.06h6.8v-8.16c0-6.76-3-10.19-8.92-10.19zM75.52 20.69L69.1 67H63l-6.07-46.31h5.35s3.14 31.59 3.92 38h.06c.55-6.09 4.11-38 4.11-38h5.15m.82-.71h-6.61l-.07.63c0 .26-2.27 20.34-3.46 31.6C65 40.9 63 20.88 63 20.62l-.07-.62h-6.81l.1.81 6.07 46.29.09.62h7.34l.09-.62 6.41-46.31.12-.81zM133 20.21c3.62 0 6.28 2.11 6.28 7.91V67h-5.44V29.2c0-2.89-1-4.1-2.89-4.1-2.36 0-3.56 1.21-3.56 6.1V67H122V30.23c0-6.28 0-8.09-.06-9.54h5.13a19.5 19.5 0 0 1 .25 3 5.67 5.67 0 0 1 5.68-3.48m0-.71a6.62 6.62 0 0 0-5.09 2c0-.34-.08-.64-.12-.89l-.1-.6h-6.48v.74c.06 1.44.06 3.31.06 9.51v37.46h6.8V31.2c0-5 1.29-5.39 2.85-5.39 1.13 0 2.18.42 2.18 3.39v38.52h6.9v-39.6c0-3.22-.91-8.62-7-8.62zM111.35 20.21c3.62 0 6.28 2.11 6.28 7.91V67h-5.43V29.2c0-2.89-1-4.1-2.9-4.1-2.35 0-3.56 1.21-3.56 6.1V67h-5.37V30.23c0-6.28 0-8.09-.06-9.54h5.13a19.64 19.64 0 0 1 .24 3 5.68 5.68 0 0 1 5.67-3.44m0-.71a6.61 6.61 0 0 0-5.08 2c0-.34-.08-.64-.13-.89L106 20h-6.44v.74c.06 1.44.06 3.31.06 9.51v37.47h6.81V31.2c0-5 1.28-5.39 2.84-5.39 1.13 0 2.18.42 2.18 3.39v38.52h6.87v-39.6c0-3.22-.91-8.62-7-8.62zM152.27 20.21c5.74 0 7.67 3.32 7.67 8.15v32.25c0 2 0 4.83.12 5.91h-4.95a22.77 22.77 0 0 1-.36-2.35c-1 2-2.84 2.84-5.13 2.84-4.59 0-6.4-4.17-6.4-8.94v-9.66c0-7.37 4.83-9.6 10.38-9.6h1v-10c0-2.59-.37-4.1-2.48-4.1s-2.59 1.57-2.59 3.74v4.84h-5.31v-4.81c0-4.41 1.69-8.27 8.08-8.27m-1 42c2.41 0 3.38-1.75 3.38-6.16V43h-1.27c-3.08 0-5.07 1.27-5.07 5.38V58c0 2.48.85 4.29 3 4.29m1-42.74c-5.76 0-8.8 3.1-8.8 9V34h6.74v-5.58c0-2.79 1-3 1.88-3 1.24 0 1.76.47 1.76 3.39v9.29h-.25c-7.15 0-11.1 3.66-11.1 10.31v9.66c0 6 2.66 9.65 7.12 9.65a6.32 6.32 0 0 0 4.6-1.72c0 .14.05.27.08.41v.21l.1.59h6.35l-.09-.8c-.12-1-.12-3.92-.12-5.83V28.36c0-5.88-2.82-8.86-8.38-8.86zm-1 42c-1.49 0-2.24-1.2-2.24-3.57v-9.6c0-3.31 1.26-4.66 4.35-4.66h.55v12.36c0 5-1.31 5.44-2.66 5.44zM87 20.21c5.73 0 7.66 3.32 7.66 8.15v32.25c0 2 0 4.83.12 5.91h-5a22.77 22.77 0 0 1-.36-2.35c-1 2-2.84 2.84-5.13 2.84-4.59 0-6.4-4.17-6.4-8.94v-9.66c0-7.37 4.83-9.6 10.38-9.6h1v-10c0-2.59-.36-4.1-2.48-4.1s-2.59 1.57-2.59 3.74v4.84h-5.26v-4.81c0-4.41 1.69-8.27 8.09-8.27m-1 42c2.41 0 3.38-1.75 3.38-6.16V43h-1.24c-3.08 0-5.07 1.27-5.07 5.38V58c0 2.48.85 4.29 3 4.29M87 19.5c-5.76 0-8.81 3.1-8.81 9V34H85v-5.58c0-2.79 1-3 1.88-3 1.25 0 1.76.47 1.76 3.39v9.29h-.25c-7.15 0-11.09 3.66-11.09 10.31v9.66c0 6 2.66 9.65 7.11 9.65A6.35 6.35 0 0 0 89.05 66c0 .14 0 .27.07.41v.21l.11.59h6.34l-.09-.8c-.11-1-.11-3.92-.11-5.83V28.36c0-5.88-2.82-8.86-8.38-8.86zm-1 42c-1.49 0-2.24-1.2-2.24-3.57v-9.6c0-3.31 1.26-4.66 4.35-4.66h.55v12.41c0 5-1.31 5.44-2.66 5.44zM46.47 20.21c5.73 0 7.66 3.32 7.66 8.15v32.25c0 2 0 4.83.12 5.91h-5a22.77 22.77 0 0 1-.36-2.35c-1 2-2.84 2.84-5.13 2.84-4.59 0-6.4-4.17-6.4-8.94v-9.66c0-7.37 4.83-9.6 10.38-9.6h1v-10c0-2.59-.36-4.1-2.48-4.1s-2.59 1.57-2.59 3.74v4.84h-5.29v-4.81c0-4.41 1.69-8.27 8.09-8.27m-1 42c2.41 0 3.38-1.75 3.38-6.16V43h-1.24c-3.08 0-5.07 1.27-5.07 5.38V58c0 2.48.85 4.29 3 4.29m1-42.74c-5.76 0-8.81 3.1-8.81 9V34h6.67v-5.58c0-2.79 1-3 1.88-3 1.25 0 1.76.47 1.76 3.39v9.29h-.25c-7.15 0-11.09 3.66-11.09 10.31v9.66c0 6 2.66 9.65 7.11 9.65A6.35 6.35 0 0 0 48.49 66c0 .14 0 .27.07.42v.2l.11.59h6.34l-.09-.8c-.11-1-.11-3.92-.11-5.83V28.36c0-5.88-2.82-8.86-8.38-8.86zm-1 42c-1.49 0-2.24-1.2-2.24-3.57v-9.6c0-3.31 1.26-4.66 4.35-4.66h.56v12.36c0 5-1.32 5.44-2.67 5.44z" fill="#fff"/><path d="M170.8 1v22.35c.91-1.81 2.66-3.14 5.74-3.14 4.71 0 6.15 3.5 6.15 8V67h-5.43V29.63c0-2.42-.36-4.53-3-4.53-2.77 0-3.5 2-3.5 5.91V67h-5.37V1h5.37m.72-.71h-6.8v67.43h6.8V31c0-4.37 1-5.2 2.78-5.2s2.25 1 2.25 3.82v38.1h6.86V28.18c0-7.18-3.74-8.68-6.87-8.68a7.11 7.11 0 0 0-5 1.71V.29zM57.95 79.08h2.41l-1.18-2.69-1.23 2.69zM103.33 76.55c0-.81-.55-1.22-1.65-1.22h-.43v2.52h.38c1.13 0 1.7-.44 1.7-1.3z" fill="#fff"/><path d="M91.86 7.71a246.42 246.42 0 0 0-42.28 12.92c3.34 1 4.55 3.91 4.55 7.73v32.25c0 2 0 4.83.12 5.91h-5a22.77 22.77 0 0 1-.36-2.35c-1 2-2.84 2.84-5.13 2.84-4.59 0-6.4-4.17-6.4-8.94v-9.66c0-7.37 4.83-9.6 10.38-9.6h1v-10c0-2.59-.36-4.1-2.48-4.1s-2.59 1.57-2.59 3.74v4.84h-5.29v-4.81a12.74 12.74 0 0 1 .31-2.94c-4.17 2-8.07 4.16-11.67 6.34 3.2 6.36 6.71 13.09 6.71 18.49v7c0 5.67-1.87 11-9 11s-8.93-4.56-8.93-9.87v-9.08h5.38v9.14c0 3.32 1.08 5.19 3.62 5.19s3.5-2.24 3.5-5.62c0-2 .12-2.72.12-7.56 0-3.92-2.85-9.88-5.77-15.91C6.8 45.22-1.86 56.84.34 67.14 4.83 88.23 53.1 95.8 108.14 84.06c22-4.69 41.78-11.77 57.29-19.92V4C145.84.78 119.72 1.77 91.86 7.71zM47.71 82.63l-2-5.61-2.12 5.62-3.37-8.43h1.3l2.06 5.29 2.16-5.67 2.06 5.67 2.2-5.29h1.3zm14-.5l-.83-1.92h-3.43l-.88 1.92h-1.29l3.92-8.42 3.8 8.42zm10.46 0H68.6v-7.92h1.2V81h2.33zM69.1 67H63l-6.07-46.31h5.35s3.14 31.59 3.92 38h.06c.55-6.09 4.11-38 4.11-38h5.15zm13.09 15.13l-2.86-3.52-.24.24v3.28h-1.2v-7.92h1.2v3.16l3.08-3.16h1.6l-3.58 3.59 3.6 4.33zm11.67-6.8h-3.18v1.91h3.08v1.12h-3.08V81h3.18v1.12h-4.37v-7.91h4.37zm-4-8.81a22.77 22.77 0 0 1-.36-2.35c-1 2-2.84 2.84-5.13 2.84-4.59 0-6.4-4.17-6.4-8.94v-9.66c0-7.37 4.83-9.6 10.38-9.6h1v-10c0-2.59-.36-4.1-2.48-4.1s-2.59 1.57-2.59 3.74v4.84h-5.34v-4.81c0-4.41 1.69-8.27 8.09-8.27 5.73 0 7.66 3.32 7.66 8.15v32.25c0 2 0 4.83.12 5.91zm13.87 15.61l-2.26-3.24h-.22v3.24h-1.19v-7.92h1.4a3.5 3.5 0 0 1 2.26.59 2.15 2.15 0 0 1 .77 1.73A2.24 2.24 0 0 1 104 78a2.19 2.19 0 0 1-1.27.78l2.45 3.37zM117.63 67h-5.43V29.2c0-2.89-1-4.1-2.9-4.1-2.35 0-3.56 1.21-3.56 6.1V67h-5.37V30.23c0-6.28 0-8.09-.06-9.54h5.13a19.76 19.76 0 0 1 .24 3 5.68 5.68 0 0 1 5.67-3.44c3.62 0 6.28 2.11 6.28 7.91zm21.67 0h-5.44V29.2c0-2.89-1-4.1-2.89-4.1-2.36 0-3.56 1.21-3.56 6.1V67H122V30.23c0-6.28 0-8.09-.06-9.54h5.13a19.62 19.62 0 0 1 .25 3 5.67 5.67 0 0 1 5.68-3.48c3.62 0 6.28 2.11 6.28 7.91zm15.81-.49a22.77 22.77 0 0 1-.36-2.35c-1 2-2.84 2.84-5.13 2.84-4.59 0-6.4-4.17-6.4-8.94v-9.65c0-7.37 4.83-9.6 10.38-9.6h1v-10c0-2.59-.37-4.1-2.48-4.1s-2.59 1.57-2.59 3.74v4.84h-5.31v-4.81c0-4.41 1.69-8.27 8.08-8.27 5.74 0 7.67 3.32 7.67 8.15v32.25c0 2 0 4.83.12 5.91z" fill="#fff"/></svg>