<svg xmlns="http://www.w3.org/2000/svg" width="320" height="37" viewBox="0 0 320 37"><path d="M15.51.91c11.1,0,13.2,4.78,13.2,10.24,0,6.32-5.74,9.48-12.58,9.48H12.49V28h2.92v6.32H0V28H2.68V7.18H0V.91Zm-3,14.55h2.15c2.78,0,4.69-1.44,4.69-4,0-2.83-1.67-4.36-4.45-4.36H12.49Z" fill="#fff"/><path d="M30.15,17.47C30.15,7.13,37,0,47,0,58.67,0,64.13,7,64.13,17.8s-6,17.42-16.85,17.42C37.28,35.22,30.15,29.43,30.15,17.47Zm22,.33c0-5.79-1.58-10.43-5.26-10.43C44,7.32,42,11.53,42,17.47c0,6.27,2.25,10.24,5.31,10.24S52.16,23.74,52.16,17.8Z" fill="#fff"/><path d="M81.16.91V7.23H78.62V28H84.8V21.92h8V34.36H66V28h2.63V7.23H66V.91Z" fill="#fff"/><path d="M111.12.91V7.23h-3V28h3v6.36H95.23V28h3V7.23h-3V.91Z" fill="#fff"/><path d="M144.42,28.38a19.62,19.62,0,0,1-14.5,6.75C119.78,35.13,113,28.62,113,18c0-11,8.28-17.62,14.55-17.62,4.78,0,6.94,2.68,7.37,3.26l1.1-2.68h7.51V14.5H135c-.15-3.11-1.68-6-5.08-6s-5.69,4.26-5.69,9.48c0,4.73,2.44,9,7,9,4,0,7.17-4.21,7.6-4.69Z" fill="#fff"/><path d="M175.19.91V11.49h-8.28V7.23h-7.65v6.6h9.09V20.2h-9.09V28h7.65V23.55h8.28V34.36H146.34V28h3V7.23h-3V.91Z" fill="#fff"/><path d="M220.46,28.38A19.62,19.62,0,0,1,206,35.13c-10.14,0-16.89-6.51-16.89-17.18,0-11,8.28-17.62,14.55-17.62C208.4.33,210.56,3,211,3.59l1.1-2.68h7.51V14.5H211c-.15-3.11-1.68-6-5.08-6s-5.69,4.26-5.69,9.48c0,4.73,2.44,9,7,9,4,0,7.17-4.21,7.6-4.69Z" fill="#fff"/><path d="M221.9,17.47C221.9,7.13,228.79,0,238.7,0c11.72,0,17.18,7,17.18,17.8s-6,17.42-16.85,17.42C229,35.22,221.9,29.43,221.9,17.47Zm22,.33c0-5.79-1.58-10.43-5.26-10.43-2.92,0-4.93,4.16-4.93,10.1,0,6.27,2.25,10.24,5.31,10.24S243.91,23.74,243.91,17.8Z" fill="#fff"/><path d="M273.29.91c11.11,0,13.21,4.78,13.21,10.24,0,6.32-5.74,9.48-12.58,9.48h-3.64V28h2.92v6.32H257.79V28h2.68V7.18h-2.68V.91Zm-3,14.55h2.15c2.78,0,4.69-1.44,4.69-4,0-2.83-1.67-4.36-4.45-4.36h-2.39Z" fill="#fff"/><path d="M288.42,22.3h8.9c0,4,4,4.69,6,4.79,1.67,0,4.06-.39,4.06-2.4C307.41,21,289,22.54,289,10.34,289,3.25,295.74.05,300.43.05c4,0,8.08,1.29,10,4.88l.48-4h8.23v12h-8.66c0-3.54-2.78-5.55-6.13-5.55-1.39,0-3.3.86-3.3,2.54,0,4.93,18.95,3.78,18.95,15,0,7.47-7,10.15-12.68,10.15a12.88,12.88,0,0,1-10-4.4l-.53,3.68h-8.37Z" fill="#fff"/></svg>