<svg xmlns="http://www.w3.org/2000/svg" viewBox="0 0 222 123"><defs><clipPath id="a"><path fill="none" d="M-978-702H222v630H-978z"/></clipPath><radialGradient id="b" cx="-1690.39" cy="-211.63" fx="-1664.91" fy="-211.63" r="327.81" gradientTransform="matrix(-1 0 0 1 -1653.39 0)" gradientUnits="userSpaceOnUse"><stop offset=".01" stop-color="#edba25"/><stop offset="1" stop-color="#ea4627"/></radialGradient></defs><g clip-path="url(#a)"><path fill="#c92629" d="M563.58 25.71l-941.63-84.08 913.69 242.53 27.94-158.45"/><path fill="#c92629" d="M477.95 342.66L-378.13-58.41 397.51 482l80.44-139.34M289.08 611.21L-378.2-58.46l544.03 773.09 123.25-103.42M19.75 798.97l-398-857.51L-131.44 854l151.19-55.03"/><path d="M-298.92-51.88l90.06-181.3-81.25-204.57a29.694 29.694 0 0 1 4.74-29.92 29.697 29.697 0 0 1 22.86-10.75c1.88 0 3.78.18 5.66.55l211.62 41.08 149.31-136.38a29.699 29.699 0 0 1 29.88-6.09 29.708 29.708 0 0 1 19.49 23.46l32.03 206.4 176.79 112.72a29.712 29.712 0 0 1 13.69 26.66 29.664 29.664 0 0 1-16.51 25.01L175.56-94.25l-46.34 228.12a29.706 29.706 0 0 1-29.11 23.79c-8.73 0-17.16-3.85-22.88-10.77L-64.48-24.32-270.12-9.04a29.7 29.7 0 0 1-28.8-42.84z" fill="none" opacity=".4" stroke="#fff" stroke-miterlimit="10" stroke-width="5"/><path d="M100.12 130.98a3 3 0 0 1-2.31-1.09L-52.7-51.97l-219.39 16.3h-.22c-.99 0-1.93-.49-2.49-1.33-.6-.89-.68-2.04-.2-3.01l95.35-191.96-85.65-215.64c-.4-1.02-.22-2.18.48-3.02a3.033 3.033 0 0 1 2.88-1.04l224.8 43.64 159.22-145.43a3.011 3.011 0 0 1 3.02-.61c1.04.37 1.8 1.28 1.97 2.37l33.88 218.33 186.97 119.21c.91.58 1.44 1.61 1.38 2.69-.06 1.08-.7 2.05-1.67 2.53L152-112.38l-48.94 240.96a2.999 2.999 0 0 1-2.94 2.4z" fill="url(#b)"/><path d="M124.1-551.23l34.09 219.67L346.3-211.62l-196.95 97.21-49.24 242.4L-51.38-55.08l-220.94 16.41 95.95-193.16-86.15-216.89 226.28 43.92L124.1-551.25m.01-5.98c-1.47 0-2.92.54-4.05 1.57L-38.05-411.25l-223.32-43.35a5.992 5.992 0 0 0-5.76 2.06 5.995 5.995 0 0 0-.96 6.04l85.16 214.4-94.76 190.76a6.01 6.01 0 0 0 .39 6.02 5.987 5.987 0 0 0 4.98 2.65c.15 0 .3 0 .45-.02l217.84-16.17L95.5 131.81a5.99 5.99 0 0 0 6.08 1.99 5.996 5.996 0 0 0 4.42-4.63l48.65-239.51 194.31-95.91c1.94-.96 3.22-2.89 3.34-5.05s-.94-4.22-2.77-5.39L163.71-335.17l-33.67-216.99a5.998 5.998 0 0 0-5.93-5.08z" fill="#87d852"/></g><path d="M220.73 17.5a5.31 5.31 0 0 0-3.53-3.4l-5.2-1.53c-.39-.11-.79-.17-1.19-.17-1.3 0-2.5.59-3.3 1.61a4.17 4.17 0 0 0-.77 3.59c.24.95.79 3.42.89 5.84.05 1.31-.25 2.48-.51 3.23a3.958 3.958 0 0 0 3.75 5.26c1.29 0 2.43-.6 3.18-1.6l5.92-7.98c1.03-1.39 1.32-3.2.77-4.84z" fill="none" stroke="#fff" stroke-miterlimit="10" stroke-width=".7"/><path d="M203.67 16.66l-4.66-1.32c-.38-.11-.78-.16-1.17-.16-1.97 0-3.69 1.33-4.17 3.24l-1.63 6.41-1.82-9.78a4.486 4.486 0 0 0-3.57-3.6l-18.34-3.56c-.24-.05-.47-.07-.71-.07-.48 0-.94.09-1.38.26a4.312 4.312 0 0 0-2.5-1.14L143.9 4.86c-.15-.02-.3-.02-.44-.02-.96 0-1.9.33-2.65.93l-10.13 8.14.97-5.27c.21-1.13-.07-2.31-.76-3.23s-1.75-1.51-2.9-1.62l-10.09-.96a3.587 3.587 0 0 0-1.75.25 8.58 8.58 0 0 0-4.63-1.36c-.16 0-.33 0-.49.01L82.57 3.35a3.709 3.709 0 0 0-3.39 2.78 9.955 9.955 0 0 0-7.29-1.7l-17.1 2.66c-2.97.46-5.61 1.98-7.5 4.15a6.05 6.05 0 0 0-4.42-1.94c-.54 0-1.07.07-1.59.21l-30.52 8.33c-1.28.35-2.28 1.36-2.62 2.64s.03 2.65.97 3.59l.81.81-8.76 33.61c-.37 1.44-.07 2.94.84 4.12a4.717 4.717 0 0 0 3.77 1.85c.21 0 .42-.01.63-.04l14.87-1.97c2.23-.3 4.01-1.98 4.44-4.19l3.66-19.03 10.06-1.83c.37-.07.73-.15 1.08-.26l-2.67 13.71c-.47 2.4.16 4.86 1.71 6.74a8.122 8.122 0 0 0 6.28 2.97c.19 0 .39 0 .59-.02l6.66-.47c-.41.96-.44 2.06-.09 3.06l3.94 10.96c.04.12.1.25.15.36-1.08 0-2.15-.01-3.23-.02h-.02a4.414 4.414 0 0 0-3.88 2.31c-2.26-1.56-5.14-2.36-8.59-2.39-5.02-.03-10.04-.07-15.06-.11h-.03c-1.18 0-2.28.46-3.12 1.28-.83.82-1.31 1.97-1.31 3.14v29.49c0 2.08 1.47 3.9 3.49 4.33 3.02.64 6.09 1.26 9.12 1.83a4.4 4.4 0 0 0 3.64-.94c1.01-.84 1.6-2.08 1.6-3.4l.02-6.63h.04c.86.1 1.69.15 2.49.15 2.73 0 5.1-.57 7.05-1.7l-.06 11.17c-.01 2.2 1.63 4.1 3.81 4.4 8.28 1.16 16.71 2.08 25.05 2.72.12 0 .23.01.34.01 1.12 0 15.99.92 19.06 1.01h.13c1.16 0 10.17.16 11.35.16 8.36 0 16.82-.27 25.16-.8.53-.03 1.02-.16 1.48-.36.39.11.79.17 1.21.17.11 0 .21 0 .32-.01 3.1-.22 6.21-.48 9.23-.76 2.3-.21 4.02-2.12 4.01-4.43v-1.41c.37.79.75 1.57 1.12 2.34a4.448 4.448 0 0 0 4.52 2.47c3.41-.4 6.89-.86 10.34-1.36 1.19-.17 2.27-.83 2.96-1.8 1.48.49 3.16.74 5.04.74 1.52 0 3.21-.17 5.01-.49 3.34-.61 6.25-1.71 8.64-3.28 2.42-1.59 4.35-3.61 5.73-6.03 1.44-2.51 2.13-5.03 2.13-7.71 0-2.44-.62-4.66-1.85-6.6-.29-.46-.62-.9-.99-1.32a4.428 4.428 0 0 0 1.85-4.16c-.52-4.24-2.37-7.61-5.33-9.73-2.74-1.96-6.49-2.95-11.12-2.95h-.05c-3.82.02-6.82.61-9.19 1.8-1.82.92-3.34 2.12-4.53 3.58a11.251 11.251 0 0 0-4.87-3.58c-.37-.14-.77-.27-1.18-.38.55-.69.88-1.57.88-2.52v-2.05c0-1.12-.45-2.13-1.18-2.86v-1.98c.73-.74 1.18-1.75 1.18-2.86v-2.05c0-1.85-1.24-3.41-2.92-3.9.1-.05.2-.11.3-.16.59.39 1.28.63 2.01.68l5.71.35h.27c1.94 0 3.66-1.31 4.17-3.18l3.77-13.74 1.73 13.71c.26 2.1 1.99 3.72 4.11 3.84l15.09.89h.26c2.06 0 3.85-1.4 4.34-3.4l8.38-34.17a4.29 4.29 0 0 0-3.01-5.17z" fill="none" stroke="#fff" stroke-miterlimit="10" stroke-width=".7"/><path d="M72.44 8.11l-17.1 2.66a8.752 8.752 0 0 0-7.25 6.98L41.5 51.57c-.56 2.86 1.75 5.47 4.66 5.26l20.53-1.46a7.164 7.164 0 0 0 6.53-5.83l6.36-34.06c.8-4.26-2.86-8.03-7.14-7.36zm-5.6 13.98L63.73 41.3c-.28 1.7-1.68 3-3.4 3.13l-4.99.39a1.52 1.52 0 0 1-1.61-1.79l3.73-20.41a2.913 2.913 0 0 1 2.39-2.35l4.46-.72c1.48-.24 2.77 1.04 2.53 2.52zm96.49-11.44l-19.82-2.08a.557.557 0 0 0-.37.11L125.19 23.1l2.78-15.13a.399.399 0 0 0-.35-.47l-10.09-.96 3.02 3.02-8.92 43.54c-.07.34.19.66.54.66h5.82c.5 0 .94-.35 1.05-.84l3.83-16.74 6.77 16.9c.16.41.56.68 1.01.68h23.83c.43 0 .81-.31.9-.73l8.47-41.68a.574.574 0 0 0-.51-.69zm-19.5 41.36l-11.51-24.47a.679.679 0 0 1 .2-.83l20.62-16.07-9.31 41.37zm42.11-36.91c.31.06.56.31.61.62l4.7 25.28c.05.27.43.28.5.02l5.53-21.68c.08-.32.41-.5.72-.41l4.66 1.32c.3.09.48.39.41.7l-8.38 34.17c-.09.35-.41.58-.76.56l-15.09-.89a.682.682 0 0 1-.63-.59l-3.96-31.44c-.02-.18-.27-.2-.32-.02l-8.5 30.97c-.08.27-.33.46-.61.44l-5.71-.35c-.23-.01-.38-.24-.32-.46l11.04-38.99-2.21-2.79 18.34 3.56zm25 1.04l5.2 1.53c1.05.31 1.47 1.57.82 2.45l-5.92 7.97c-.16.22-.5.04-.41-.21.41-1.17.79-2.78.71-4.61-.11-2.67-.68-5.31-1-6.58-.09-.35.24-.66.59-.56zM111.22 5.45L82.76 7.07l2.27 2.48-8.92 43.17a.84.84 0 0 0 .84 1.01l14.97-.42c.37-.01.69-.27.77-.63l3.62-15.57 4.75 15.86c.14.47.58.8 1.07.8h8.7c.41 0 .71-.39.6-.79l-6.75-24.71 4.44-.51a6.508 6.508 0 0 0 5.7-5.62l1.47-11.2c.4-3.02-2.05-5.65-5.09-5.48zm-7.94 8.25l-2.11 9.95c-.25 1.18-1.43 2.15-2.61 2.15s-1.95-.97-1.7-2.15l2.11-9.95c.25-1.18 1.43-2.15 2.61-2.15s1.95.97 1.7 2.15zm-61.05-.59l-30.52 8.33 2.32 2.32-9.27 35.67c-.19.72.41 1.39 1.15 1.3l14.87-1.97c.64-.08 1.15-.57 1.27-1.2l4.14-21.54 12.57-2.29a6.039 6.039 0 0 0 4.92-5.27l1.44-12.88c.18-1.62-1.33-2.9-2.89-2.48zm-9.86 7.79l-1.95 9.13c-.25 1.18-1.43 2.15-2.61 2.15s-1.95-.97-1.7-2.15l1.95-9.13c.25-1.18 1.43-2.15 2.61-2.15s1.95.97 1.7 2.15zM56.9 61.24l3.03-.23c.2-.02.39.1.47.29l1.67 4.04c.15.37.68.39.85.02l1.97-4.09c.16-.34.64-.35.82-.03l2.31 4.04c.21.37.76.29.86-.12l1.06-4.34c.05-.21.24-.36.45-.36h2.85c.31 0 .54.3.45.6l-3.58 11.73c-.06.2-.24.33-.45.33h-1.02c-.16 0-.31-.08-.39-.22l-2.52-3.98a.464.464 0 0 0-.8.02l-2.17 3.94c-.08.15-.24.24-.41.24h-1.46c-.2 0-.37-.12-.44-.31l-3.94-10.96c-.1-.29.1-.6.4-.62zm21.05 11.71h-3.33a.47.47 0 0 1-.47-.47V60.92c0-.26.21-.47.47-.47h3.33c.26 0 .47.21.47.47v11.56c0 .26-.21.47-.47.47zm13.28-12.11v2.03c0 .21-.17.38-.38.38h-3.74v9.24c0 .26-.21.47-.47.47h-3.33a.47.47 0 0 1-.47-.47v-9.24H79.1a.38.38 0 0 1-.38-.38v-2.03c0-.21.17-.38.38-.38h11.73c.21 0 .38.17.38.38zm13.15.09v11.56c0 .26-.21.47-.47.47h-3.33a.47.47 0 0 1-.47-.47v-4.52h-4.3v4.52c0 .26-.21.47-.47.47h-3.33a.47.47 0 0 1-.47-.47V60.93c0-.26.21-.47.47-.47h3.33c.26 0 .47.21.47.47v4.02h4.3v-4.02c0-.26.21-.47.47-.47h3.33c.26 0 .47.21.47.47zm26.35 0v2.03c0 .21-.17.38-.38.38h-3.74v9.24c0 .26-.21.47-.47.47h-3.33a.47.47 0 0 1-.47-.47v-9.24h-3.74a.38.38 0 0 1-.38-.38v-2.03c0-.21.17-.38.38-.38h11.73c.21 0 .38.17.38.38zm12.82.09v11.56c0 .26-.21.47-.47.47h-3.33a.47.47 0 0 1-.47-.47v-4.52h-4.3v4.52c0 .26-.21.47-.47.47h-3.33a.47.47 0 0 1-.47-.47V61.02c0-.26.21-.47.47-.47h3.33c.26 0 .47.21.47.47v4.02h4.3v-4.02c0-.26.21-.47.47-.47h3.33c.26 0 .47.21.47.47zm5.09 2.26v2.05h5.59c.18 0 .33.15.33.33v2.27c0 .18-.15.33-.33.33h-5.59v2.05h6.76c.19 0 .34.15.34.34v2.05c0 .19-.15.34-.34.34H144.85a.47.47 0 0 1-.47-.47V61.01c0-.26.21-.47.47-.47h10.56c.19 0 .34.15.34.34v2.05c0 .19-.15.34-.34.34h-6.76zM41.33 78.08c-5.03-.03-10.05-.07-15.07-.11a.697.697 0 0 0-.7.7v29.5c0 .33.22.61.54.68 2.99.64 6.03 1.25 9.04 1.82.04 0 .09.01.13.01a.694.694 0 0 0 .69-.7l.03-10.81c1.39.17 2.78.33 4.17.49 3.86.44 6.79-.3 8.71-2.18 1.92-1.87 2.9-4.65 2.92-8.27.02-3.5-.86-6.26-2.59-8.19-1.74-1.93-4.39-2.92-7.88-2.95zm-5.3 7.73l1.85.08c1.48.06 2.47.38 2.95.95.51.61.75 1.32.75 2.18 0 .85-.28 1.5-.83 1.98-.55.48-1.64.66-3.16.54-.52-.04-1.05-.09-1.57-.13l.02-5.6zm71.39-7.3c.13.13.2.31.2.49v9.35c0 .19-.08.36-.21.49s-.31.2-.49.2c-2.86 0-5.71-.02-8.57-.04l-.05 27.69a.697.697 0 0 1-.7.7h-.02c-3.03-.09-6.11-.21-9.13-.36a.701.701 0 0 1-.66-.7l.08-27.44c-2.86-.04-5.72-.09-8.58-.15-.38 0-.69-.32-.68-.7v-.78s-.01.02-.02.03c-.13.13-.34.2-.5.2-4.83-.09-9.71-.21-14.52-.34l-.02 4.22c4.44.2 8.96.38 13.45.52.38.01.68.32.68.7l-.03 7.47c0 .19-.08.37-.22.5s-.32.2-.51.19c-4.45-.21-8.96-.48-13.4-.78l-.03 5.57c4.98.45 10.03.83 15.02 1.13.37.02.66.33.66.7l-.03 8.32c0 .19-.08.38-.23.51-.13.12-.3.19-.47.19h-.05a397.86 397.86 0 0 1-24.82-2.7.701.701 0 0 1-.6-.7l.17-34.15c0-.19.08-.36.21-.49s.31-.2.49-.2c8.1.04 16.2.08 24.31.1.19 0 .36.07.49.21.05.05.08.1.11.15.12-.21.34-.36.61-.36 9.37.03 18.64.04 27.57.04.19 0 .36.07.49.2zm27.09 29.16l.03 8.4a.7.7 0 0 1-.65.7c-8.26.52-16.65.79-24.92.79a.68.68 0 0 1-.69-.69V79.02a.68.68 0 0 1 .69-.69c8.1 0 16.21-.01 24.31-.03.38 0 .7.31.7.7l.03 7.93c0 .38-.31.69-.69.7-4.83.07-9.72.13-14.55.16v4.6c4.48-.04 8.99-.12 13.44-.23.2 0 .37.07.5.2s.21.31.21.5l.03 7.58c0 .38-.3.69-.67.7-4.46.16-8.99.27-13.48.34v6.04c4.99-.1 10.03-.27 15-.52.18 0 .38.06.52.19s.22.31.22.5zm27.4-4.58c-.24-.53-.68-1.23-1.35-2.16-.7-.96-1.21-1.55-1.59-1.85-.25-.2-.56-.39-.93-.57.68-.32 1.26-.67 1.74-1.05 1.29-1.01 2.31-2.3 3.04-3.81.73-1.52 1.1-3.3 1.08-5.29-.01-2.29-.51-4.27-1.49-5.88-1-1.64-2.33-2.78-3.95-3.4-1.57-.59-3.83-.89-6.68-.87-5.04.02-10.08.04-15.12.05a.65.65 0 0 0-.49.21c-.13.13-.2.31-.2.5l.14 36.91c0 .19.08.38.22.51.13.12.3.19.48.19h.05c3.07-.22 6.15-.47 9.16-.75.36-.03.63-.34.63-.7l-.07-14.02h.14c.66-.05 1.23.13 1.75.53.27.22.74.82 1.46 2.4 1.67 3.6 3.33 7.1 4.91 10.38.13.27.42.43.71.39 3.39-.4 6.84-.86 10.26-1.35.22-.03.41-.17.52-.36s.11-.43.01-.63c-1.44-2.98-2.93-6.14-4.43-9.37zm-8.5-13.5c0 .64-.15 1.2-.46 1.7-.28.46-.63.75-1.08.88-1.47.47-2.02.55-2.22.56-1.03.05-2.07.09-3.1.13l-.03-5.94c1.1-.02 2.2-.05 3.3-.08 1.81-.04 2.57.32 2.88.63.47.46.7 1.15.71 2.11zm38.73 8.97c0 2.01-.53 3.93-1.64 5.86-1.09 1.9-2.62 3.5-4.54 4.76-1.97 1.29-4.42 2.21-7.27 2.73-1.59.29-3.04.43-4.35.43-2.94 0-5.16-.73-6.61-2.19-2.04-2.04-3.22-4.9-3.5-8.49-.03-.36.22-.68.58-.74 2.78-.47 5.67-.98 8.6-1.51.19-.03.38.01.54.12.15.11.26.29.28.48.18 1.41.52 2.45 1.01 3.09.77.99 1.86 1.36 3.34 1.14 1.11-.16 1.98-.57 2.56-1.21.58-.63.86-1.26.85-1.92 0-.6-.24-1.09-.75-1.51-.37-.31-1.42-.77-4.28-1.16-4.07-.58-7.06-1.72-8.89-3.41-1.85-1.69-2.8-4-2.82-6.86 0-1.86.45-3.65 1.37-5.31.93-1.68 2.35-3.01 4.22-3.95 1.84-.93 4.3-1.39 7.52-1.4 3.85 0 6.88.75 8.99 2.26 2.13 1.52 3.41 3.93 3.8 7.15.05.38-.23.73-.61.78l-.69.09c-2.61.32-5.22.65-7.83.97a.691.691 0 0 1-.77-.58c-.2-1.22-.61-2.09-1.2-2.59s-1.44-.73-2.54-.7c-.87.03-1.52.24-1.92.63-.39.38-.58.82-.58 1.34 0 .32.14.59.43.84.17.16.73.52 2.69.85 4.21.73 6.96 1.42 8.67 2.18 1.84.82 3.19 1.9 4.04 3.23.85 1.33 1.27 2.88 1.27 4.61z" fill="#fff"/></svg>