<?xml version="1.0" encoding="UTF-8"?><svg id="logos" xmlns="http://www.w3.org/2000/svg" width="240" height="96" viewBox="0 0 240 96"><g><path d="M27.51,16.83c0-8.82,0-10.45-.12-12.31-.12-1.97-.58-2.9-2.5-3.31-.46-.12-1.45-.17-2.26-.17-.64,0-.99-.12-.99-.52s.41-.52,1.28-.52c3.08,0,6.73,.17,8.36,.17,2.38,0,5.75-.17,8.42-.17,7.26,0,9.58,2.21,10.91,3.48,1.28,1.28,2.79,3.6,2.79,7.6,0,7.14-6.04,13.18-14.28,13.18-.29,0-.93,0-1.22-.06-.29-.06-.7-.12-.7-.52,0-.46,.41-.64,1.63-.64,3.25,0,7.78-3.72,7.78-9.64,0-1.92,0-5.75-3.25-8.65-2.09-1.92-4.64-2.26-5.98-2.26-.87,0-1.74,.06-2.26,.23-.29,.12-.46,.46-.46,1.1V27.05c0,5.34,0,9.93,.29,12.42,.17,1.63,.52,2.9,2.26,3.13,.81,.12,2.09,.23,2.96,.23,.64,0,.93,.17,.93,.46,0,.41-.46,.58-1.1,.58-3.83,0-7.49-.17-9-.17-1.34,0-4.99,.17-7.31,.17-.75,0-1.16-.17-1.16-.58,0-.29,.23-.46,.93-.46,.87,0,1.57-.12,2.09-.23,1.16-.23,1.45-1.51,1.68-3.19,.29-2.44,.29-7.02,.29-12.36v-10.22Z" fill="#fff"/><path d="M63.44,20.84c0-7.55,0-8.65-.12-10.22-.12-1.74-.58-2.5-2.15-2.79-.64-.12-1.34-.17-1.97-.23-.58,0-.87-.17-.87-.52s.35-.52,1.1-.52c2.61,0,6.15,.17,7.14,.17,1.57,0,5.69-.17,7.43-.17,3.48,0,6.91,.35,9.52,2.03,1.63,1.04,3.77,3.54,3.77,6.91,0,3.72-1.74,7.02-6.79,10.8,4.3,5.34,7.89,9.93,10.91,13,2.79,2.96,4.7,3.19,5.63,3.42,.52,.06,.93,.06,1.34,.12,.46,0,.7,.23,.7,.46,0,.41-.35,.58-.99,.58h-4.88c-3.37,0-4.82-.35-6.27-1.1-2.03-1.1-3.95-3.37-6.62-7.02-2.09-2.9-4.24-5.98-4.99-6.85-.17-.23-.46-.29-.81-.29l-4.12-.12c-.23,0-.41,.12-.41,.41v1.04c0,4.47,0,7.89,.23,9.93,.12,1.45,.46,2.55,2.03,2.73,.7,.17,1.74,.17,2.44,.23,.46,0,.64,.23,.64,.46,0,.35-.35,.58-.99,.58-3.08,0-7.14-.17-7.89-.17-.87,0-4.41,.17-6.44,.17-.64,0-.99-.17-.99-.52,0-.23,.23-.52,.81-.52,.75-.06,1.39-.06,1.86-.17,.99-.23,1.34-1.28,1.45-2.79,.29-2.03,.29-5.75,.29-10.33v-8.71Zm6.56,3.77c0,.46,.12,.7,.46,.81,1.04,.41,2.55,.58,3.89,.58,1.86,0,2.67-.23,3.54-.87,1.45-1.04,2.84-3.19,2.84-7.14,0-7.02-4.82-8.88-7.72-8.88-1.22,0-2.15,.06-2.61,.23-.29,.12-.41,.29-.41,.7v14.57Z" fill="#fff"/><path d="M102.22,20.84c0-7.55,0-8.71-.12-10.33s-.64-2.44-1.74-2.67c-.52-.12-1.16-.17-1.8-.23-.52,0-.81-.17-.81-.58,0-.29,.35-.46,1.16-.46,2.03,0,5.51,.17,6.79,.17,1.16,0,4.59-.17,6.56-.17,.7,0,.99,.17,.99,.46,0,.41-.29,.58-.81,.58-.52,.06-.75,.06-1.34,.17-1.39,.23-1.8,1.1-1.92,2.79-.17,1.57-.17,2.73-.17,10.27v8.71c0,4.64,.06,8.42,.29,10.51,.12,1.33,.52,2.38,2.03,2.55,.75,.17,1.45,.17,2.21,.23,.64,0,.87,.29,.87,.52,0,.35-.41,.52-.99,.52-3.42,0-6.73-.17-7.95-.17-.99,0-4.47,.17-6.5,.17-.7,0-1.04-.17-1.04-.52,0-.23,.23-.52,.87-.52,.7-.06,1.1-.06,1.57-.17,.99-.23,1.45-1.1,1.57-2.5,.29-2.09,.29-5.8,.29-10.62v-8.71Z" fill="#fff"/><path d="M124.98,7.55c0-1.1,.17-1.8,.75-1.8,.52,0,.99,.58,1.86,1.45,.93,.81,7.72,7.84,16.02,15.61,3.77,3.6,10.27,10.22,11.2,11.03l-.46-21.48c-.06-2.96-.46-3.95-1.86-4.47-.75-.23-1.92-.23-2.61-.29-.64,0-.87-.29-.87-.58,0-.41,.58-.46,1.28-.46,2.55,0,5.17,.17,6.44,.17,.64,0,2.73-.17,5.17-.17,.64,0,1.1,.12,1.1,.52,0,.29-.23,.52-.87,.52-.52,.06-.93,.06-1.45,.17-1.51,.41-1.97,1.39-2.03,4.18-.23,7.43-.35,20.37-.52,30.71,0,1.34-.29,1.8-.75,1.8-.64,0-1.39-.64-2.5-1.63-3.25-2.96-9.46-8.94-14.28-13.58-5.11-4.76-10.8-10.8-12.19-12.25l.52,20.14c.12,3.77,.7,4.99,1.74,5.34,.87,.29,1.86,.29,2.73,.35,.52,0,.87,.17,.87,.46,0,.41-.46,.58-1.16,.58-3.02,0-5.05-.17-6.39-.17-.64,0-3.31,.17-5.8,.17-.64,0-1.1-.06-1.1-.52,0-.29,.29-.52,.81-.52,.64-.06,1.51-.06,2.21-.23,1.45-.41,1.68-1.68,1.74-5.98,.12-10.45,.41-22.58,.41-29.08Z" fill="#fff"/><path d="M175.07,39.18c-5.05-4.24-6.39-9.69-6.39-14.57,0-3.37,1.1-9.23,6.04-13.58,3.83-3.31,8.77-5.17,16.31-5.17,3.13,0,5.11,.17,7.43,.52,1.97,.29,3.48,.64,5.05,.81,.52,.06,.75,.29,.75,.58,0,.41-.12,1.1-.23,2.84-.06,1.63-.06,4.47-.17,5.51-.06,.75-.17,1.16-.64,1.16-.41,0-.64-.41-.64-1.1-.06-1.45-.52-3.19-1.92-4.59-1.68-1.8-5.57-3.08-10.27-3.08-4.24,0-7.08,.99-9.29,2.9-3.54,3.19-4.64,7.78-4.64,12.65,0,11.44,8.53,17.36,15.85,17.36,4.53,0,7.08-.46,9.06-2.67,.87-.93,1.45-2.32,1.68-3.37,.23-.87,.41-1.04,.81-1.04,.35,0,.52,.35,.52,.75,0,.64-.64,5.05-1.16,6.85-.23,.87-.46,1.1-1.34,1.45-2.03,.81-5.86,1.1-9.11,1.1-6.97,0-12.94-1.33-17.7-5.34Z" fill="#fff"/><path d="M215.42,20.84c0-7.55,0-8.88-.12-10.51s-.52-2.26-2.09-2.61c-.46-.12-1.28-.12-1.97-.17-.58,0-.87-.17-.87-.52s.35-.46,1.16-.46c2.44,0,4.76,.17,7.31,.17,1.57,0,12.19,0,13.12-.06,.99-.12,1.86-.23,2.32-.29,.29-.06,.58-.23,.81-.23,.29,0,.35,.23,.35,.46,0,.35-.35,1.04-.46,3.13-.06,.93-.12,1.92-.23,3.42,0,.29-.12,.81-.58,.81-.35,0-.46-.29-.52-.93,0-.23,0-.99-.29-1.63-.35-.93-.81-1.45-3.31-1.74-.99-.12-6.21-.23-7.37-.23-.23,0-.35,.17-.35,.52v12.02c0,.35,.06,.52,.35,.52,1.22,0,6.79,0,8.07-.06,1.45-.12,2.21-.29,2.67-.81,.35-.46,.58-.64,.81-.64s.35,.12,.35,.41c0,.35-.23,1.45-.41,3.83,0,.99-.17,3.08-.17,3.48s-.06,.93-.52,.93c-.35,0-.52-.52-.52-.81-.06-.46-.06-.75-.17-1.33-.29-1.1-.87-1.86-2.9-2.03-1.04-.12-5.92-.17-7.2-.17-.29,0-.35,.23-.35,.52v3.77c0,1.68-.06,5.75,0,7.26,.12,3.43,.87,4.18,6.21,4.18,1.34,0,3.48,0,4.76-.58,1.34-.64,1.92-1.63,2.32-3.72,.12-.52,.23-.81,.64-.81s.41,.46,.41,.99c0,1.28-.41,4.82-.7,5.8-.35,1.28-.81,1.28-2.73,1.28-5.05,0-9.4-.29-14.57-.29-2.09,0-4.18,.17-6.62,.17-.7,0-1.04-.17-1.04-.52,0-.23,.17-.52,.87-.52,.7-.06,1.34-.06,1.8-.17,1.04-.23,1.34-1.33,1.51-3.08,.23-2.03,.23-5.8,.23-10.04v-8.71Z" fill="#fff"/><path d="M42.63,89.18c-5.69-4.99-7.2-11.49-7.2-17.12,0-3.95,1.22-10.8,6.79-15.91,4.18-3.83,9.69-6.15,18.34-6.15,3.6,0,5.75,.23,8.42,.58,2.21,.29,4.24,.81,5.98,.99,.64,.06,.7,.35,.7,.7,0,.46-.17,1.16-.29,3.19-.12,1.92-.06,5.11-.17,6.27-.06,.87-.17,1.39-.7,1.39-.46,0-.58-.52-.58-1.34-.06-1.8-.81-3.83-2.26-5.34-1.92-2.03-6.44-3.6-11.78-3.6-5.05,0-8.36,1.28-10.91,3.6-4.24,3.89-5.34,9.4-5.34,15.03,0,13.82,10.51,20.66,18.29,20.66,5.17,0,8.3-.58,10.62-3.25,.99-1.1,1.74-2.79,1.97-3.83,.17-.93,.29-1.16,.75-1.16,.41,0,.52,.41,.52,.87,0,.7-.7,5.75-1.28,7.72-.29,.99-.52,1.28-1.51,1.68-2.32,.93-6.73,1.34-10.45,1.34-7.95,0-14.63-1.74-19.91-6.33Z" fill="#fff"/><path d="M112.12,72.92c.17,0,.35-.12,.35-.35v-1.04c0-7.49,0-8.76-.12-10.33-.12-1.63-.52-2.26-2.21-2.61-.41-.06-1.28-.12-1.92-.17-.64,0-.93-.23-.93-.58s.35-.46,1.04-.46c2.84,0,6.27,.17,7.55,.17,1.04,0,4.76-.17,6.85-.17,.7,0,.99,.12,.99,.46s-.23,.58-.87,.58c-.52,.06-.93,.06-1.51,.17-1.39,.17-1.8,.93-1.92,2.61-.12,1.57-.12,2.9-.12,10.45v8.71c0,4.59,0,8.3,.29,10.39,.12,1.45,.46,2.5,1.97,2.73,.7,.12,1.86,.12,2.55,.17,.58,0,.81,.29,.81,.52,0,.35-.41,.52-.99,.52-3.37,0-6.97-.17-8.3-.17-1.1,0-4.41,.17-6.56,.17-.75,0-1.04-.17-1.04-.52,0-.23,.17-.52,.81-.52,.7-.06,1.34-.06,1.8-.17,1.04-.23,1.34-1.28,1.51-2.79,.29-2.03,.29-5.69,.29-10.22v-4.24c0-.23-.17-.29-.35-.29h-18.81c-.17,0-.35,.06-.35,.29v4.41c0,4.59,0,8.01,.29,10.16,.12,1.39,.52,2.44,2.03,2.61,.75,.17,1.8,.17,2.5,.23,.58,0,.87,.29,.87,.52,0,.35-.41,.52-1.04,.52-3.25,0-6.97-.17-8.24-.17-1.04,0-4.64,.17-6.68,.17-.58,0-.99-.17-.99-.52,0-.23,.17-.52,.81-.52,.75-.06,1.34-.06,1.8-.17,1.04-.23,1.39-1.34,1.51-2.79,.29-2.03,.29-5.75,.29-10.33v-8.71c0-7.49,0-8.82-.12-10.39-.12-1.68-.52-2.32-2.26-2.67-.41-.12-1.16-.12-1.86-.17-.64,0-.87-.23-.87-.58s.41-.46,1.04-.46c2.79,0,6.15,.17,7.49,.17s4.76-.17,6.79-.17c.81,0,1.1,.17,1.1,.52s-.41,.52-.93,.52c-.46,.06-1.1,.12-1.51,.17-1.39,.17-1.8,.99-1.92,2.67-.12,1.57-.12,3.02-.12,10.27v1.04c0,.23,.17,.35,.35,.35h18.81Z" fill="#fff"/><path d="M139.87,82.44c-.23,0-.35,.12-.46,.41l-2.55,6.33c-.46,1.22-.75,2.44-.75,3.02,0,1.45,1.8,1.51,2.9,1.51,.7,0,.87,.23,.87,.46,0,.41-.41,.52-.93,.52-1.8,0-3.89-.17-5.69-.17-.58,0-3.48,.17-6.15,.17-.64,0-.93-.12-.93-.52,0-.29,.29-.52,.7-.52,3.66-.35,4.47-1.04,5.8-4.41l12.31-29.08c1.04-2.73,1.63-3.83,2.26-3.83,.46,0,.75,.52,1.34,1.8,.99,2.84,9.58,22.64,12.83,30.07,1.86,4.35,3.31,5.11,4.53,5.34,.52,.12,1.39,.12,1.92,.12,.64,0,.87,.23,.87,.52,0,.35-.23,.52-.99,.52-2.44,0-8.53,.12-12.19-.12-.52-.06-.87-.17-.87-.46,0-.23,.23-.35,.52-.46,.52-.17,.93-.35,.58-1.04l-3.95-9.81c-.06-.23-.23-.35-.46-.35h-11.49Zm10.39-2.9c.29,0,.29-.12,.23-.29l-4.53-11.84c-.17-.46-.35-.58-.58,0l-4.59,11.84c-.06,.17,0,.29,.23,.29h9.23Z" fill="#fff"/><path d="M169.41,76.06c0-8.71,5.8-19.39,21.07-19.39,12.77,0,20.55,7.84,20.55,18.46,0,11.32-7.95,20.2-21.01,20.2-14.57,0-20.61-10.51-20.61-19.27Zm34.07,.93c0-10.51-6.04-17.7-14.51-17.7-5.69,0-12.07,2.9-12.07,15.09,0,10.1,5.51,18.23,15.15,18.23,3.54,0,11.44-1.45,11.44-15.61Z" fill="#fff"/><path d="M219.1,94.05c-.81-.35-.99-.7-.99-1.68,0-2.96,.17-5.86,.23-6.73,.06-.81,.23-1.28,.64-1.28,.46,0,.52,.41,.58,.81,.06,.64,.06,1.51,.35,2.32,1.04,3.77,4.24,5.34,7.55,5.34,4.64,0,6.73-2.84,6.73-5.4,0-2.32-.7-4.53-4.99-7.66l-2.44-1.86c-5.75-4.35-7.6-7.66-7.6-11.73,0-5.46,4.7-9.52,11.96-9.52,2.32,0,3.72,.29,5.17,.52,.81,.12,1.51,.29,2.09,.35,.46,.06,.58,.29,.58,.64,0,.81-.23,2.21-.23,6.15,0,1.1-.17,1.51-.58,1.51-.35,0-.52-.35-.58-.99-.06-.64-.41-2.03-1.16-3.13-.87-1.34-2.5-2.61-5.8-2.61-3.83,0-6.04,2.09-6.04,4.93,0,2.15,1.04,4.06,5.22,6.91l1.63,1.1c6.5,4.41,8.59,7.84,8.59,12.54,0,3.02-1.28,6.44-4.99,8.76-2.61,1.57-5.57,1.97-8.24,1.97-3.13,0-5.46-.35-7.66-1.28Z" fill="#fff"/></g><g><path d="M0,63.37c0-3.25,2.17-7.23,7.86-7.23,4.76,0,7.67,2.92,7.67,6.89,0,4.22-2.97,7.54-7.84,7.54-5.44,0-7.69-3.92-7.69-7.19Zm12.71,.35c0-3.92-2.25-6.61-5.41-6.61-2.12,0-4.5,1.08-4.5,5.63,0,3.77,2.06,6.8,5.65,6.8,1.32,0,4.27-.54,4.27-5.83Z" fill="#fff"/><path d="M19.6,61.72c0-2.82,0-3.29-.04-3.88-.04-.63-.19-.93-.8-1.04-.15-.04-.45-.07-.74-.09-.17,0-.32-.02-.32-.15s.15-.17,.45-.17c.91,0,1.8,.06,2.75,.06,.67,0,4.74,0,5.15-.02,.37-.02,.63-.02,.82-.09,.11-.02,.19-.11,.3-.11,.06,0,.13,.09,.13,.17,0,.13-.09,.39-.15,.87-.02,.22-.07,1.23-.09,1.54-.02,.17-.07,.28-.19,.28s-.17-.09-.19-.3c0-.15,0-.43-.11-.69-.15-.28-.52-.52-1.26-.56-.67-.02-2.38-.04-2.97-.07-.11,0-.17,.07-.17,.24v4.5c0,.13,.02,.17,.13,.17,.54,.02,1.8,0,2.49-.02,1.1,0,1.39,0,1.65-.35,.11-.13,.15-.19,.26-.19,.06,0,.11,.07,.11,.17,0,.13-.09,.67-.15,1.23-.04,.39-.06,1.26-.06,1.41,0,.17,0,.35-.17,.35-.13,0-.17-.13-.17-.28,0-.11-.04-.32-.11-.52-.09-.33-.37-.65-1.02-.71-.5-.04-2.45-.07-2.82-.07-.09,0-.13,.07-.13,.19v1.45c0,1.75,0,3.05,.11,3.83,.04,.54,.17,.93,.76,1.02,.26,.04,.67,.04,.93,.07,.24,0,.35,.06,.35,.15,0,.13-.13,.19-.43,.19-1.17,0-2.21-.06-2.99-.06-.65,0-1.88,.06-2.56,.06-.26,0-.39-.04-.39-.19,0-.09,.07-.15,.28-.15,.28-.02,.52-.02,.71-.07,.39-.09,.5-.5,.56-1.06,.09-.84,.09-2.1,.09-3.88v-3.25Z" fill="#fff"/></g></svg>