<svg xmlns="http://www.w3.org/2000/svg" viewBox="0 0 300 77"><path d="M38.44 18.59l4.52 1.75c-.71 3.16-1.88 5.46-3.52 6.92-1.64 1.46-3.66 2.18-6.06 2.18-3.01 0-5.46-1.16-7.33-3.48-2.15-2.68-3.23-6.3-3.23-10.85 0-4.81 1.08-8.57 3.25-11.29C27.96 1.46 30.49.28 33.68.28c2.59 0 4.76.89 6.51 2.66 1.25 1.26 2.16 3.12 2.74 5.6l-4.62 1.35c-.3-1.53-.88-2.7-1.76-3.51-.88-.81-1.92-1.22-3.11-1.22-1.71 0-3.1.74-4.18 2.23-1.08 1.49-1.62 3.94-1.62 7.37s.53 6.08 1.58 7.58 2.42 2.25 4.1 2.25c1.23 0 2.3-.48 3.19-1.43.9-.96 1.55-2.47 1.94-4.55zM67.82 28.96h-5.06l-2.03-6.39h-9.26l-1.91 6.39H44.6L53.61.75h4.95l9.27 28.21zM59.23 17.8L56.04 7.33 52.91 17.8h6.33zM70.27 28.96V.75h7.5c2.8 0 4.62.13 5.48.4 1.37.44 2.5 1.37 3.4 2.79.89 1.42 1.34 3.26 1.34 5.5 0 2.04-.38 3.75-1.15 5.13-.77 1.38-1.73 2.35-2.89 2.91-1.15.56-3.14.84-5.96.84h-3.06v10.64h-4.66zm4.65-23.43v8.02h2.58c1.74 0 2.92-.12 3.54-.37.62-.24 1.13-.68 1.53-1.32.4-.64.6-1.42.6-2.34s-.21-1.73-.62-2.37c-.41-.64-.92-1.07-1.52-1.29-.6-.22-1.88-.33-3.84-.33h-2.28zM91.64.75h4.43v3.88c0 2.18-.26 3.8-.77 4.88-.63 1.31-1.68 2.29-3.16 2.94l-.87-2.25c.87-.36 1.5-.85 1.89-1.47.38-.62.59-1.48.62-2.58h-2.14V.75zM100.86 28.96V.75h4.54l9.47 18.84V.75h4.35v28.21h-4.69l-9.31-18.39v18.39h-4.35zM133.05 28.96V.75h6.98l4.21 19.26L148.41.75h7.02v28.21h-4.35V6.74l-4.61 22.22h-4.49L137.4 6.74v22.22h-4.35zM159.08 15.03c0-3.36.5-6.13 1.49-8.3s2.29-3.79 3.9-4.86c1.6-1.06 3.55-1.6 5.83-1.6 3.31 0 6.01 1.26 8.09 3.79 2.08 2.53 3.13 6.13 3.13 10.79s-1.1 8.41-3.31 11.06c-1.94 2.35-4.57 3.52-7.89 3.52s-5.99-1.16-7.93-3.48c-2.21-2.66-3.31-6.3-3.31-10.93zm4.81-.19c0 3.25.62 5.68 1.85 7.3s2.76 2.43 4.59 2.43 3.36-.8 4.57-2.41c1.21-1.61 1.81-4.08 1.81-7.42s-.59-5.69-1.76-7.25c-1.18-1.56-2.71-2.35-4.62-2.35s-3.45.79-4.64 2.37c-1.19 1.58-1.79 4.02-1.79 7.33zM185.23 28.96V.75h4.54l9.47 18.84V.75h4.35v28.21h-4.69l-9.31-18.39v18.39h-4.35zM213.71 28.96V5.53h-6.87V.75h18.37v4.77h-6.85v23.44h-4.66zM234.31 28.96V17.08L225.85.75h5.46l5.43 11.15L242.1.75h5.37l-8.5 16.37v11.84h-4.66zM249.61.75h4.43v3.88c0 2.18-.26 3.8-.77 4.88-.63 1.31-1.68 2.29-3.16 2.94l-.87-2.25c.87-.36 1.5-.85 1.89-1.47.38-.62.59-1.48.62-2.58h-2.14V.75zM257.59 19.76l4.56-.54c.51 3.6 2.19 5.41 5.04 5.41 1.41 0 2.52-.37 3.33-1.11.81-.74 1.21-1.65 1.21-2.74 0-.64-.14-1.19-.42-1.63-.28-.45-.71-.82-1.29-1.11-.58-.29-1.98-.77-4.19-1.45-1.99-.6-3.44-1.25-4.37-1.96-.92-.7-1.66-1.63-2.2-2.78a8.451 8.451 0 0 1-.82-3.7c0-1.54.35-2.92 1.05-4.15.7-1.23 1.66-2.16 2.9-2.79s2.75-.94 4.56-.94c2.72 0 4.84.74 6.37 2.21 1.53 1.48 2.33 3.59 2.42 6.33l-4.68.25c-.21-1.51-.65-2.57-1.33-3.17-.68-.6-1.65-.9-2.91-.9s-2.23.26-2.91.79c-.68.52-1.02 1.18-1.02 1.96s.31 1.41.93 1.94c.62.52 2.04 1.1 4.25 1.73 2.35.68 4.04 1.4 5.09 2.15s1.84 1.72 2.39 2.9c.55 1.19.83 2.63.83 4.32 0 2.45-.75 4.51-2.26 6.18-1.51 1.67-3.86 2.5-7.07 2.5-5.67 0-8.83-3.23-9.47-9.68zM0 48.04h9.26c2.53 0 4.31.23 5.34.69 1.03.46 1.89 1.28 2.6 2.44.71 1.17 1.06 2.49 1.06 3.96 0 1.36-.3 2.59-.91 3.68s-1.39 1.91-2.36 2.43c1.37.49 2.44 1.32 3.22 2.5.77 1.18 1.16 2.62 1.16 4.31 0 2.05-.49 3.79-1.48 5.2-.99 1.42-2.15 2.29-3.5 2.63-.94.23-3.11.35-6.52.35H0V48.02zm4.66 4.69v6.52h3.08c1.85 0 2.99-.03 3.42-.1.8-.13 1.42-.46 1.87-1.01.45-.54.67-1.29.67-2.22 0-.83-.18-1.51-.55-2.03-.37-.52-.81-.84-1.33-.97s-2.01-.19-4.47-.19H4.66zm0 11.22v7.52H9c1.9 0 3.12-.1 3.66-.3.54-.2.99-.59 1.36-1.17s.55-1.32.55-2.22-.2-1.68-.59-2.27c-.39-.59-.91-1-1.56-1.23-.65-.22-1.98-.34-3.98-.34H4.66zM22.38 62.32c0-3.36.5-6.13 1.49-8.3s2.29-3.79 3.9-4.86c1.6-1.06 3.55-1.6 5.83-1.6 3.31 0 6.01 1.26 8.09 3.79 2.08 2.53 3.13 6.13 3.13 10.79s-1.1 8.41-3.31 11.06c-1.94 2.35-4.57 3.52-7.89 3.52s-5.99-1.16-7.93-3.48c-2.21-2.66-3.31-6.3-3.31-10.93zm4.81-.2c0 3.25.62 5.68 1.85 7.3s2.76 2.43 4.59 2.43 3.36-.8 4.57-2.41c1.21-1.61 1.81-4.08 1.81-7.42s-.59-5.69-1.76-7.25c-1.18-1.56-2.71-2.35-4.62-2.35s-3.45.79-4.64 2.37c-1.19 1.58-1.79 4.02-1.79 7.33zM47.52 62.32c0-3.36.5-6.13 1.49-8.3s2.29-3.79 3.9-4.86c1.6-1.06 3.55-1.6 5.83-1.6 3.31 0 6.01 1.26 8.09 3.79 2.08 2.53 3.13 6.13 3.13 10.79s-1.1 8.41-3.31 11.06c-1.94 2.35-4.57 3.52-7.89 3.52s-5.99-1.16-7.93-3.48c-2.21-2.66-3.31-6.3-3.31-10.93zm4.81-.2c0 3.25.62 5.68 1.85 7.3s2.76 2.43 4.59 2.43 3.36-.8 4.57-2.41c1.21-1.61 1.81-4.08 1.81-7.42s-.59-5.69-1.76-7.25c-1.18-1.56-2.71-2.35-4.62-2.35s-3.45.79-4.64 2.37c-1.19 1.58-1.79 4.02-1.79 7.33zM73.67 76.25V48.04h4.66V60.6l9.46-12.56h6.29l-8.72 10.99 9.18 17.21H88.5l-6.38-13.26-3.79 4.73v8.52h-4.66zM120.74 65.88l4.52 1.75c-.71 3.16-1.88 5.46-3.52 6.92-1.64 1.46-3.66 2.18-6.06 2.18-3.01 0-5.46-1.16-7.33-3.48-2.15-2.68-3.23-6.3-3.23-10.85 0-4.81 1.08-8.57 3.25-11.29 1.89-2.36 4.42-3.54 7.61-3.54 2.59 0 4.76.89 6.51 2.66 1.25 1.26 2.16 3.12 2.74 5.6l-4.62 1.35c-.3-1.53-.88-2.7-1.76-3.51-.88-.81-1.92-1.22-3.11-1.22-1.71 0-3.1.74-4.18 2.23-1.08 1.49-1.62 3.94-1.62 7.37s.53 6.08 1.58 7.58 2.42 2.25 4.1 2.25c1.23 0 2.3-.48 3.19-1.43.9-.96 1.55-2.47 1.94-4.55zM150.12 76.25h-5.06l-2.03-6.39h-9.26l-1.91 6.39h-4.96l9.01-28.21h4.95l9.27 28.21zm-8.6-11.16l-3.19-10.47-3.13 10.47h6.33zM156.12 76.25l-8.28-28.21h5.06l5.86 20.88 5.67-20.88h4.96l-8.29 28.21h-4.98zM190.25 76.25h-5.06l-2.03-6.39h-9.26l-1.91 6.39h-4.96l9.01-28.21h4.95l9.27 28.21zm-8.59-11.16l-3.19-10.47-3.13 10.47h6.33zM192.83 76.25V48.27h4.66v23.2h11.62v4.77h-16.28zM227.25 65.88l4.52 1.75c-.71 3.16-1.88 5.46-3.52 6.92-1.64 1.46-3.66 2.18-6.06 2.18-3.01 0-5.46-1.16-7.33-3.48-2.15-2.68-3.23-6.3-3.23-10.85 0-4.81 1.08-8.57 3.25-11.29 1.89-2.36 4.42-3.54 7.61-3.54 2.59 0 4.76.89 6.51 2.66 1.25 1.26 2.16 3.12 2.74 5.6l-4.62 1.35c-.3-1.53-.88-2.7-1.76-3.51-.88-.81-1.92-1.22-3.11-1.22-1.71 0-3.1.74-4.18 2.23-1.08 1.49-1.62 3.94-1.62 7.37s.53 6.08 1.58 7.58 2.42 2.25 4.1 2.25c1.23 0 2.3-.48 3.19-1.43.9-.96 1.55-2.47 1.94-4.55zM256.63 76.25h-5.06l-2.03-6.39h-9.26l-1.91 6.39h-4.96l9.01-28.21h4.95l9.27 28.21zm-8.59-11.16l-3.19-10.47-3.13 10.47h6.33zM259.06 48.04h8.52c2.15 0 3.78.24 4.87.72s2.1 1.29 3.03 2.43c.92 1.14 1.65 2.62 2.17 4.44.53 1.82.79 4.09.79 6.79 0 2.44-.28 4.56-.83 6.36-.55 1.8-1.25 3.23-2.1 4.28a8.26 8.26 0 0 1-3.07 2.38c-1.2.53-2.74.8-4.62.8h-8.77V48.03zm4.65 4.77v18.66h3.5c1.5 0 2.59-.14 3.26-.42.67-.28 1.22-.71 1.65-1.28.43-.57.79-1.47 1.07-2.7.28-1.23.42-2.85.42-4.86s-.14-3.74-.43-4.94c-.29-1.2-.74-2.15-1.35-2.84-.61-.69-1.35-1.15-2.22-1.36-.65-.17-1.92-.25-3.79-.25h-2.12zM282.41 76.25V48.04h17.16v4.77h-12.51v6.25h11.62v4.75h-11.62v7.66h12.93v4.77H282.4z" fill="#fff"/></svg>