<svg xmlns="http://www.w3.org/2000/svg" viewBox="0 0 200 156"><path d="M57.77 9.04l5.08-.07C64 .79 56.72 0 56.72 0c3.72 3.38 1.05 9.04 1.05 9.04z" fill="#fff" stroke="#fff" stroke-linejoin="round" stroke-width=".39"/><path d="M49.59 58.43l-6.03-5.98V38.18h12.18V51.1l-4.23 3.38H66.4l-5.3-4.79V13.31l5.3-4.26H50.66l4.74 4.43v21.38H44.06V16.47l4.46-4.88H37.08l5.92-.03s-4.48-3.28-2.44-10c0 0-7.7 3.62-3.5 10.02h-5.29l6.58 5.88.09 36.65-6.67 4.32h17.82zM134.23 1.11l-5.56 2.41 3.64 8.17 1.92-10.58zM150.66 38.82c3.43 5.33.18 8.49-4.88 8.76S135.75 33.4 135.75 33.4v20.51l3.25-4.16s11.75 5.51 16.79-3.25c3.82-6.63-2.21-13.62-7.4-16.9-6.14-3.89-8.85-12.56-6.41-17.91 2.44-5.36 8.04-4.04 9.22-.7 1.17 3.34 5.69 16.8 5.69 16.8V2.86L154 8.1s-3.61-6.41-10.75-3.16c-9.93 4.52-8.22 17.71-5.69 22.05 2.53 4.34 9.67 6.51 13.1 11.84zM77.64 86.48c-6.14-3.89-8.85-12.56-6.41-17.91 2.44-5.36 8.04-4.04 9.22-.7 1.17 3.34 5.69 16.8 5.69 16.8V59.73l-2.89 5.24s-3.61-6.41-10.75-3.16c-9.93 4.52-8.22 17.71-5.69 22.05 2.53 4.34 9.67 6.51 13.1 11.84 3.43 5.33.18 8.49-4.88 8.76C69.97 104.73 65 90.28 65 90.28v20.51l3.25-4.16s11.75 5.51 16.79-3.25c3.82-6.63-2.21-13.62-7.4-16.9zM92.87 85.26l5.6-15.56 5.71-.62.73 40.57-6.02 3.33h16.7l-6.22-4.78.93-38.91 4.46-.11 4.47 16.08 2.38-20.74H92.87v20.74zM153.88 115.4l-.91-21.43-4.54 15.25-10.53 2.36L139.8 71l6-3.82h-17.35l4.27 4.82.73 38.31-5.45 5.09h25.88zM166.86 104.77l-7.08 4.09h26.6l-.45-16.25-5.18 13.71-8.99-.18-.27-15.71 4.36.09 3.27 6.17.54-16.25-3.72 6.17-4.99.1.18-20.89 8.63.09 4.72 9.17.36-12.62-25.42-.45 5.99 5.17 1.45 37.59zM47.49 71.45l-11.23.49 5.08 4.2-7.42 36.84-6.44 4.56h16.21l-5.08-5.66.98-10.45 12.01.39 1.17 6.83-6.44 3.91h17.48l-6.93-5.76-9.37-35.35zM40.75 98.2l3.42-16.99 5.47 16.99h-8.89zM7.75 95.67c-4.3-11.03 0-26.46 1.37-29.58 1.37-3.12 6.64-2.83 7.81-.2 1.17 2.64 4.78 11.91 4.78 11.91l.68-16.6-2.93 3.32s-1.46-5.37-7.42-4.29C5.23 61.46.52 73.22.13 78.29s-.29 17.67 5.75 25.78c6.05 8.1 12.7.98 12.7.98l3.91 4.1.49-16.5s-2.15 6.25-4.98 8.98-5.96 5.08-10.25-5.96zM96.69 52.56h14.64l-4.04-3.84 5.29-14.57 6.69 17.81-4.43 3.91 14.89.66-6.55-5.69-9.14-21.98 6.82-15.56 4.9-3.44h-11.72l2.25 2.98-4.04 11.78-6.09-14.57 3.78-3.37-12.78-.73 4.96 4.83 8.01 17.6-7.54 19.88-5.9 4.3zM80.31 54.77c7.32 0 13.25-11.62 13.25-25.96S87.63 2.85 80.31 2.85 67.06 14.47 67.06 28.81s5.93 25.96 13.25 25.96zm.24-48.2c3.5 0 6.34 9.74 6.34 21.75s-2.84 21.75-6.34 21.75-6.34-9.74-6.34-21.75 2.84-21.75 6.34-21.75z" fill="#fff" stroke="#fff" stroke-linejoin="round" stroke-width=".39"/><path d="M186.38 101.62v4.71s4.86-2.5 7.73.67c3.2 3.53-.34 9.08-5.63 9.67-5.71.63-19.26-.12-23.71-.37-4.46-.25-12.36-.4-17.57 6.37-5.21 6.78-6.81 14.35-6.64 21.74l-4.46-4.2 6.39 15.14 6.14-14.38-4.79 2.86s.84-12.02 5.38-17.57c4.54-5.55 11.01-5.36 15.89-5.28 4.88.08 16.23-.04 21.7-.04s13.2-3 13.2-10.49-3.94-11.77-13.62-8.83z" fill="#fff" stroke="#fff" stroke-linejoin="round" stroke-width=".39"/></svg>