<?xml version="1.0" encoding="UTF-8"?><svg id="logos" xmlns="http://www.w3.org/2000/svg" width="230" height="129" viewBox="0 0 230 129"><path d="M101.97,73.38c1.56-1.67,2.92-3.77,4.06-6.31,1.14-2.54,1.72-4.92,1.72-7.14,0-.94-.26-1.68-.78-2.22-.52-.54-1.19-.81-1.99-.81-1.62,0-3.43,1.13-5.45,3.38-3.7,4.11-6.78,10.28-9.24,18.53,2.96-.44,5.26-1.03,6.89-1.79,1.63-.76,3.23-1.97,4.8-3.63Z" fill="#fff"/><g><path d="M51.32,66.96c-1.78-.69-4.8-1.03-9.04-1.03l-8.73,30.44c1.68,.07,2.94,.1,3.79,.1,7.51,0,12.72-2.1,15.65-6.29,2.93-4.19,4.39-8.67,4.39-13.45,0-2.29-.56-4.32-1.69-6.08-1.13-1.77-2.58-3-4.37-3.69Z" fill="#fff"/><path d="M54,35.49l-2.78,.1-7.72,26.56c4.58-.07,8.19-.79,10.83-2.17,2.64-1.38,4.76-3.64,6.36-6.79,1.6-3.15,2.4-6.12,2.4-8.91,0-2.63-.83-4.76-2.47-6.41-1.65-1.65-3.85-2.44-6.61-2.37Z" fill="#fff"/><path d="M179.05,92.05c-2.07-.97-4.42-1.48-6.8-1.48-.58,0-1.16,.03-1.73,.09,.18-.69,.36-1.37,.54-2.06l5.54-18.47c1.08-3.6,1.61-6.73,1.61-9.56s-.62-5.48-1.8-7.81c-1.31,.57-2.71,.91-4.2,.91-3.19,0-6.32-1.6-9.33-4.75-1.54-1.61-2.62-3.11-3.27-4.51-2.56,.38-5.14,1.27-7.73,2.66-1.76-1.83-4.19-2.88-6.76-2.88h-3.08c-.54,0-1.08,.05-1.62,.14l-17.01,2.98c-.45,.08-.89,.19-1.32,.33-3.06-2.29-6.92-3.45-11.5-3.45-7.29,0-14.53,2.13-21.52,6.34-.66,.4-1.3,.81-1.93,1.23,.61-2.06,.91-4.15,.91-6.23,0-5.05-1.68-9.82-4.85-13.8-3.19-3.99-7.57-6.68-13.01-7.98-3.41-.83-8.22-1.22-15.13-1.22h-12.84c-.21-.01-.41-.02-.62-.02h0s-1.98,0-4.44,0c-2.27,0-4.95,0-6.84,0h-.1c-3.78,0-7.12,.54-10.22,1.66-5.28,1.91-9.22,4.76-12.02,8.72-2.76,3.89-3.91,8.51-3.34,13.37,.86,7.37,7.44,13.05,15.43,13.42l-7.67,26.45c-.39,1.35-.7,2.3-.94,2.95-.38,.02-.85,.03-1.42,.03-3.98,0-7.52,2.51-8.84,6.26l-.66,1.87c-1.01,2.87-.56,6.04,1.19,8.52,1.76,2.48,4.61,3.95,7.64,3.95h28.47c12.12,0,20.2-.95,25.42-2.99,2.84-1.11,5.42-2.56,7.72-4.33,.28,.4,.57,.79,.88,1.18,4.01,5.01,10.39,7.55,18.98,7.55,5.05,0,9.8-.98,14.19-2.92,1.5,.97,3.25,1.5,5.08,1.5h21.57c2.41,0,4.66-.92,6.34-2.48,1.39,12.56,11.08,21.26,23.84,21.26,.54,0,1.09-.02,1.63-.05,8.76-.53,14.53-5.63,18.12-9.42,3.11-3.3,4.99-7.38,5.58-12.14,.77-6.24-2.5-12.21-8.14-14.85ZM69.82,59.19c-2.95,1.63-7.46,3.14-13.56,4.52,6.33,1.78,10.72,4.07,13.18,6.87,2.46,2.79,3.69,6.04,3.69,9.74,0,3.47-1.21,6.89-3.63,10.27s-5.64,5.86-9.64,7.42c-4.01,1.56-11.34,2.35-22.01,2.35H9.37l.66-1.87c2.76,0,4.74-.25,5.93-.76,1.19-.5,2.15-1.29,2.88-2.35,.72-1.06,1.57-3.27,2.55-6.64l12.22-42.1c1.25-4.27,1.87-7.14,1.87-8.58,0-1.18-.38-2.48-2.59-2.48-1.74-.02-3.23-.04-3.87-.06-3-.09-5.92,.28-8.37,2.21-1.93,1.52-2.94,3.57-3.01,6.04,0,.33,.09,.7,.25,.99,.3,.58,.75,.6,1.21,.13,.47-.48,.9-1,1.43-1.4,.48-.37,1.04-.7,1.61-.86,2.51-.73,4.38,1.11,3.79,3.69-.54,2.39-2.67,4.05-5.14,4.02-3.51-.05-6.51-2.27-6.84-5.16-.29-2.48,.22-4.81,1.68-6.86,1.89-2.66,4.56-4.24,7.57-5.33,2.29-.83,4.68-1.11,7.11-1.11,3.95,0,11.31,0,11.31,0v.02h13.46c6.02,0,10.33,.32,12.92,.96,3.4,.81,6.03,2.38,7.9,4.72,1.87,2.34,2.8,4.99,2.8,7.95,0,2.42-.74,4.9-2.22,7.42-1.48,2.52-3.69,4.6-6.64,6.23Zm33.18,39.61c-3.67,1.99-7.72,2.98-12.17,2.98-5.62,0-9.51-1.35-11.66-4.04-2.15-2.69-3.23-5.81-3.23-9.34,0-5.52,1.61-11.04,4.82-16.56,3.21-5.52,7.59-9.95,13.13-13.28,5.54-3.33,11.1-5,16.68-5,2.83,0,4.96,.67,6.41,2.02,1.45,1.35,2.17,3.05,2.17,5.1,0,2.46-.71,4.85-2.12,7.17-1.95,3.16-4.41,5.71-7.37,7.65-2.96,1.94-6.28,3.41-9.95,4.42-2.46,.67-5.75,1.18-9.89,1.51-.3,2.19-.45,3.99-.45,5.4,0,2.52,.73,4.54,2.2,6.06,1.46,1.51,3.42,2.27,5.88,2.27s4.72-.57,7.09-1.72c2.37-1.14,5.12-3.15,8.25-6.01l1.51,1.36c-3.87,4.68-7.64,8.01-11.31,10Zm74.89,6.96c-.32,2.61-1.29,4.95-3.09,6.86-3.25,3.44-6.93,6.21-11.87,6.51-7.75,.47-14.9-4.12-15.65-13.42-.44-5.38,.27-12.86,2.02-19.5,.39-1.48,1.02-3.51,1.58-5.34l.68-2.32h0l3.25-11.09c.44-1.41,.66-2.46,.66-3.13,0-.37-.15-.7-.45-.98-.3-.29-.66-.43-1.06-.43-1.28,0-2.83,.88-4.64,2.63-4.64,4.44-9.14,11.06-13.48,19.84l-4.14,14.99h-21.57l.66-1.87c2.76,0,4.74-.25,5.93-.76,1.19-.5,2.15-1.29,2.88-2.35,.72-1.06,1.57-3.27,2.55-6.64l.03,.13,6.1-20.93c.91-3.2,1.36-5.47,1.36-6.82,0-.57-.14-1.05-.4-1.44-.27-.39-.71-.69-1.31-.91-.61-.22-1.75-.33-3.43-.33l.56-1.92,17.01-2.98h3.08l-6.26,21.66c4.21-6.33,7.35-10.65,9.44-12.97,3.06-3.37,5.71-5.65,7.93-6.87,2.22-1.21,4.31-1.82,6.26-1.82,1.75,0,3.25,.65,4.49,1.94,1.24,1.3,1.87,2.99,1.87,5.07,0,1.89-.4,4.17-1.21,6.87l-5.58,18.62c-.5,1.88-.99,3.77-1.48,5.66-.15,.67-.34,1.4-.56,2.16-.74,2.88-1.47,5.75-2.18,8.64-.54,2.2-.44,4.64-.19,6.93,.24,2.16,1.83,3.58,4.02,3.82,1.55,.17,3.21,.11,4.7-.3,1.7-.46,1.78-1.53,.45-2.6-2.6-2.1-3.16-3.85-.97-7.18,1.91-2.9,6.24-4.05,9.24-2.65,2.02,.95,3.09,2.98,2.81,5.21Z" fill="#fff"/></g><path d="M172.2,51.66c1.1,0,2.14-.24,3.15-.65-.48-.7-1.02-1.37-1.63-2-3.03-3.16-6.92-4.82-11.25-4.82-.24,0-.48,.02-.72,.03,.55,.98,1.39,2.08,2.57,3.32,2.85,2.98,5.47,4.12,7.87,4.12Z" fill="#fff"/><path d="M223.07,36.01c2.35-9.71-1.26-11.75-5.94-11.75-3.37,0-7.29,1.06-9.92,1.06-1.44,0-2.49-.32-2.84-1.31-2.21-6.25,19.01-14.8,2.65-21.97-3.27-1.43-5.74-2.04-7.61-2.04-10,0-2.84,17.39-8.75,19.18-.14,.04-.28,.06-.42,.06-3.67,0-5.28-15.07-12.32-15.07-2.14,0-4.79,1.4-8.14,5.04-14.8,16.05,11.22,16.52,10.6,22.03-.62,5.52-29.14,2.59-16.05,16.3,2.85,2.98,5.47,4.12,7.87,4.12,7.78,0,13.35-11.93,17.22-11.93,.43,0,.85,.15,1.24,.48,4.44,3.75-9.06,22.23,2.3,22.23,1.38,0,3.14-.27,5.34-.88,20.26-5.61-1.09-19.17,3.74-23.84,.46-.44,.97-.63,1.53-.63,3.5,0,8.83,7.49,13.36,7.49,2.4,0,4.59-2.11,6.15-8.57Z" fill="#fff"/><path d="M217.74,63.58c2.77-.54-.65-10.21,6.93-5.92,5.98,3.38-2.47,5.83-1.87,8.3,.51,2.1,9.4-2.35,6.69,5.32-2.71,7.68-6.09-1.77-8.12-.17s5.61,7.62-2.36,8.98c-7.97,1.35-.34-6.66-2.09-8.47s-5.89,7.53-10.36,1.77,6.33-3.52,6.78-5.61-9.49-3.28-3.19-8.85c6.29-5.56,5.57,5.03,7.6,4.63Z" fill="#fff"/></svg>