<svg xmlns="http://www.w3.org/2000/svg" width="250" height="58" viewBox="0 0 250 58"><path d="M35.03 30.16L9.78 21.18V10.24c2.29-.74 5.82-1.65 9.4-1.65s7.11.91 9.4 1.65v3.05c0 2.37 1.92 4.3 4.3 4.3s4.3-1.92 4.3-4.3V7.26c0-1.69-1-3.23-2.54-3.92C34.33 3.2 27.08 0 19.2 0S4.04 3.2 3.74 3.34A4.289 4.289 0 0 0 1.2 7.26v16.95a4.29 4.29 0 0 0 2.86 4.05l25.24 8.98v9.66c-2.29.74-5.82 1.65-9.4 1.65-3.89 0-8.43-1.05-11.3-1.85v-2.86c0-2.37-1.92-4.3-4.3-4.3S0 41.46 0 43.84v6.04c0 1.83 1.16 3.46 2.89 4.06.38.13 9.32 3.2 17.01 3.2s15.14-3.2 15.44-3.34a4.289 4.289 0 0 0 2.54-3.92V34.2a4.29 4.29 0 0 0-2.86-4.05zM247.14 28.98L221.9 20v-9.67c2.29-.74 5.83-1.66 9.4-1.66s7.11.91 9.4 1.65v3.05c0 2.37 1.92 4.3 4.3 4.3s4.3-1.92 4.3-4.3V7.35c0-1.69-1-3.23-2.54-3.92-.31-.14-7.56-3.34-15.44-3.34s-15.14 3.2-15.44 3.34a4.289 4.289 0 0 0-2.54 3.92v15.68a4.29 4.29 0 0 0 2.86 4.05l25.24 10.17v9.66c-2.29.74-5.82 1.65-9.4 1.65-3.89 0-8.43-1.05-11.31-1.85v-2.86c0-2.37-1.92-4.3-4.3-4.3s-4.3 1.92-4.3 4.3v6.04c0 1.83 1.16 3.46 2.89 4.06.38.13 9.32 3.2 17.01 3.2s15.14-3.2 15.44-3.34a4.289 4.289 0 0 0 2.54-3.92V34.21c0-1.82-1.14-4.62-2.86-5.23zM80.72 0H49.24c-2.37 0-4.3 1.92-4.3 4.3s1.92 4.3 4.3 4.3h12.08v44c0 2.37 1.92 4.3 4.3 4.3s4.3-1.92 4.3-4.3V8.59h10.81c2.37 0 4.3-1.92 4.3-4.3s-1.92-4.3-4.3-4.3zM161.45 0h-24.7a4.3 4.3 0 0 0-4.3 4.3v48.3c0 2.37 1.92 4.3 4.3 4.3s4.3-1.92 4.3-4.3V31.49h13.49c2.37 0 4.3-1.92 4.3-4.3s-1.92-4.3-4.3-4.3h-13.49V8.59h20.4c2.37 0 4.3-1.92 4.3-4.3s-1.92-4.3-4.3-4.3zM202.39 0h-24.7a4.3 4.3 0 0 0-4.3 4.3v48.3c0 2.37 1.92 4.3 4.3 4.3s4.3-1.92 4.3-4.3V31.49h13.49c2.37 0 4.3-1.92 4.3-4.3s-1.92-4.3-4.3-4.3h-13.49V8.59h20.4c2.37 0 4.3-1.92 4.3-4.3s-1.92-4.3-4.3-4.3zM120.38 8.59c2.37 0 4.3-1.92 4.3-4.3s-1.92-4.3-4.3-4.3H96.67c-2.37 0-4.3 1.92-4.3 4.3s1.92 4.3 4.3 4.3h7.56v39.96h-7.56c-2.37 0-4.3 1.92-4.3 4.3s1.92 4.3 4.3 4.3h23.71c2.37 0 4.3-1.92 4.3-4.3s-1.92-4.3-4.3-4.3h-7.56V8.59h7.56z" fill="#fff"/></svg>