<svg xmlns="http://www.w3.org/2000/svg" width="400" height="35" viewBox="0 0 400 35"><path d="M.89,9.7,0,4.72V.45H3.65V4.72l-.8,5Zm5.9,0-.87-5V.45H9.57V4.72l-.85,5Z" fill="#fff"/><path d="M14.15,26.58V.45H25.74a15.4,15.4,0,0,1,5.31.7A5.77,5.77,0,0,1,34,3.64a7.38,7.38,0,0,1,1.09,3.94,6.56,6.56,0,0,1-1.8,4.68,9.11,9.11,0,0,1-5.56,2.43A8.85,8.85,0,0,1,29.77,16a18,18,0,0,1,2.87,3.48l4.55,7.11H32.84l-3.46-5.44q-1.51-2.36-2.5-3.6a8.15,8.15,0,0,0-1.75-1.75,5.32,5.32,0,0,0-1.58-.69A10.54,10.54,0,0,0,21.62,15h-4V26.58ZM17.61,12h7.44a11,11,0,0,0,3.7-.49,4,4,0,0,0,2-1.57,4.26,4.26,0,0,0,.69-2.34,3.9,3.9,0,0,0-1.34-3,6.3,6.3,0,0,0-4.26-1.2H17.61Z" fill="#fff"/><path d="M53,20.48l3.31.41a8.08,8.08,0,0,1-2.9,4.51A8.75,8.75,0,0,1,48,27a8.65,8.65,0,0,1-6.59-2.56A10,10,0,0,1,39,17.27q0-4.77,2.46-7.41a8.33,8.33,0,0,1,6.38-2.64A8.09,8.09,0,0,1,54,9.8c1.61,1.73,2.41,4.15,2.41,7.28,0,.19,0,.47,0,.85H42.3a7.27,7.27,0,0,0,1.77,4.78,5.25,5.25,0,0,0,4,1.66,4.9,4.9,0,0,0,3-.93A6.17,6.17,0,0,0,53,20.48ZM42.48,15.3H53.05a6.37,6.37,0,0,0-1.21-3.59,4.93,4.93,0,0,0-4-1.85,5.07,5.07,0,0,0-3.72,1.48A5.82,5.82,0,0,0,42.48,15.3Z" fill="#fff"/><path d="M72.43,33.84V24.57a5.75,5.75,0,0,1-2.09,1.74,6.12,6.12,0,0,1-2.87.7,7.58,7.58,0,0,1-5.8-2.69,10.63,10.63,0,0,1-2.43-7.38,12.64,12.64,0,0,1,1-5.12A7.35,7.35,0,0,1,63.1,8.39a7.66,7.66,0,0,1,4.13-1.17,6.33,6.33,0,0,1,5.52,3V7.65h2.89V33.84ZM62.54,17.06a8.37,8.37,0,0,0,1.53,5.48,4.65,4.65,0,0,0,3.67,1.83,4.48,4.48,0,0,0,3.53-1.74,8,8,0,0,0,1.48-5.28,8.84,8.84,0,0,0-1.56-5.69,4.63,4.63,0,0,0-3.66-1.91A4.41,4.41,0,0,0,64,11.53Q62.54,13.3,62.54,17.06Z" fill="#fff"/><path d="M93.07,26.58V23.8a6.91,6.91,0,0,1-6,3.21,7.79,7.79,0,0,1-3.13-.64,5.17,5.17,0,0,1-2.16-1.62,6,6,0,0,1-1-2.38,16.48,16.48,0,0,1-.19-3V7.65h3.2v10.5a18.6,18.6,0,0,0,.2,3.38,3.33,3.33,0,0,0,1.28,2,4,4,0,0,0,2.43.72,5.24,5.24,0,0,0,2.71-.74,4.1,4.1,0,0,0,1.79-2,10.1,10.1,0,0,0,.53-3.7V7.65h3.2V26.58Z" fill="#fff"/><path d="M101,4.14V.45h3.21V4.14Zm0,22.44V7.65h3.21V26.58Z" fill="#fff"/><path d="M122,20.48l3.32.41a8,8,0,0,1-2.91,4.51A8.73,8.73,0,0,1,117,27a8.62,8.62,0,0,1-6.58-2.56Q108,21.89,108,17.27q0-4.77,2.46-7.41a8.33,8.33,0,0,1,6.39-2.64,8.1,8.1,0,0,1,6.2,2.58c1.6,1.73,2.41,4.15,2.41,7.28,0,.19,0,.47,0,.85H111.33a7.31,7.31,0,0,0,1.76,4.78,5.25,5.25,0,0,0,4,1.66,4.88,4.88,0,0,0,3-.93A6,6,0,0,0,122,20.48ZM111.51,15.3h10.57a6.45,6.45,0,0,0-1.21-3.59,5,5,0,0,0-4-1.85,5.11,5.11,0,0,0-3.72,1.48A5.82,5.82,0,0,0,111.51,15.3Z" fill="#fff"/><path d="M129.39,26.58V7.65h2.87V10.3a6.68,6.68,0,0,1,2.37-2.23A6.59,6.59,0,0,1,138,7.22a6.26,6.26,0,0,1,3.45.87,4.75,4.75,0,0,1,1.9,2.45,6.78,6.78,0,0,1,5.84-3.32,5.79,5.79,0,0,1,4.34,1.56,6.66,6.66,0,0,1,1.51,4.8v13h-3.19V14.65a8.76,8.76,0,0,0-.31-2.77,2.72,2.72,0,0,0-1.13-1.36,3.51,3.51,0,0,0-1.93-.52,4.48,4.48,0,0,0-3.32,1.33,5.83,5.83,0,0,0-1.32,4.25v11h-3.2V14.28a5.42,5.42,0,0,0-.79-3.21A3,3,0,0,0,137.28,10a4.71,4.71,0,0,0-2.5.71,4.07,4.07,0,0,0-1.67,2.09,11.9,11.9,0,0,0-.51,4v9.82Z" fill="#fff"/><path d="M170.71,26.58V10.14h-2.83V7.65h2.83v-2a8.68,8.68,0,0,1,.34-2.83,4.07,4.07,0,0,1,1.63-2A5.86,5.86,0,0,1,176,0a16.16,16.16,0,0,1,3,.32l-.48,2.8a10.75,10.75,0,0,0-1.89-.18,2.78,2.78,0,0,0-2.07.63,3.32,3.32,0,0,0-.61,2.33V7.65h3.69v2.49H173.9V26.58Z" fill="#fff"/><path d="M178.89,17.11q0-5.25,2.93-7.79a8.8,8.8,0,0,1,6-2.1,8.48,8.48,0,0,1,6.38,2.56,9.73,9.73,0,0,1,2.48,7.07,12.43,12.43,0,0,1-1.1,5.75,7.75,7.75,0,0,1-3.19,3.25A9.3,9.3,0,0,1,187.77,27a8.53,8.53,0,0,1-6.43-2.55Q178.9,21.91,178.89,17.11Zm3.3,0a8.06,8.06,0,0,0,1.59,5.45,5.28,5.28,0,0,0,8,0q1.58-1.82,1.58-5.54a7.83,7.83,0,0,0-1.59-5.32,5.29,5.29,0,0,0-8,0A8,8,0,0,0,182.19,17.11Z" fill="#fff"/><path d="M200.36,26.58V7.65h2.88v2.87a7.87,7.87,0,0,1,2-2.66,3.53,3.53,0,0,1,2.05-.64,6.21,6.21,0,0,1,3.3,1l-1.1,3a4.64,4.64,0,0,0-2.36-.69,3.07,3.07,0,0,0-1.89.63,3.5,3.5,0,0,0-1.19,1.75,12.45,12.45,0,0,0-.53,3.75v9.91Z" fill="#fff"/><path d="M235.05,24.24a11.83,11.83,0,0,1-3.43,2.14,9.84,9.84,0,0,1-3.54.63,6.88,6.88,0,0,1-4.8-1.53,5,5,0,0,1-1.67-3.89,5.28,5.28,0,0,1,2.29-4.39,7.86,7.86,0,0,1,2.31-1.05,21.53,21.53,0,0,1,2.85-.48,29.09,29.09,0,0,0,5.72-1.11c0-.44,0-.71,0-.83a3.59,3.59,0,0,0-.91-2.77,5.4,5.4,0,0,0-3.66-1.08,5.67,5.67,0,0,0-3.34.79,4.8,4.8,0,0,0-1.59,2.81l-3.14-.43a7.6,7.6,0,0,1,1.41-3.25,6.1,6.1,0,0,1,2.83-1.91,12.57,12.57,0,0,1,4.3-.67,11.41,11.41,0,0,1,3.94.57,5.2,5.2,0,0,1,2.23,1.44,5,5,0,0,1,1,2.18,17.74,17.74,0,0,1,.16,3v4.28a44.37,44.37,0,0,0,.21,5.66,7.26,7.26,0,0,0,.81,2.27h-3.35A6.75,6.75,0,0,1,235.05,24.24Zm-.27-7.16a23.62,23.62,0,0,1-5.24,1.21,12.06,12.06,0,0,0-2.8.64A2.81,2.81,0,0,0,225.47,20a2.85,2.85,0,0,0,.53,3.66,4.19,4.19,0,0,0,2.84.85,6.61,6.61,0,0,0,3.3-.81,5,5,0,0,0,2.12-2.22,7.63,7.63,0,0,0,.52-3.21Z" fill="#fff"/><path d="M259.54,26.58v-23h-8.61V.45h20.72V3.53H263v23Z" fill="#fff"/><path d="M285.84,26.58V23.8a6.94,6.94,0,0,1-6,3.21,7.79,7.79,0,0,1-3.13-.64,5.17,5.17,0,0,1-2.16-1.62,6,6,0,0,1-1-2.38,16.48,16.48,0,0,1-.19-3V7.65h3.21v10.5a18.9,18.9,0,0,0,.19,3.38,3.3,3.3,0,0,0,1.29,2,4,4,0,0,0,2.42.72,5.21,5.21,0,0,0,2.71-.74,4.1,4.1,0,0,0,1.79-2,10.1,10.1,0,0,0,.53-3.7V7.65h3.21V26.58Z" fill="#fff"/><path d="M306.69,20.48l3.32.41a8,8,0,0,1-2.91,4.51A8.73,8.73,0,0,1,301.68,27a8.64,8.64,0,0,1-6.58-2.56,10,10,0,0,1-2.44-7.18q0-4.77,2.46-7.41a8.33,8.33,0,0,1,6.39-2.64,8.09,8.09,0,0,1,6.2,2.58c1.6,1.73,2.41,4.15,2.41,7.28,0,.19,0,.47,0,.85H296a7.31,7.31,0,0,0,1.76,4.78,5.25,5.25,0,0,0,4,1.66,4.88,4.88,0,0,0,3-.93A6,6,0,0,0,306.69,20.48ZM296.16,15.3h10.57a6.45,6.45,0,0,0-1.21-3.59,5,5,0,0,0-4-1.85,5.11,5.11,0,0,0-3.72,1.48A5.86,5.86,0,0,0,296.16,15.3Z" fill="#fff"/><path d="M312.76,20.93l3.17-.5a4.4,4.4,0,0,0,1.49,2.92,5.16,5.16,0,0,0,3.41,1,5,5,0,0,0,3.28-.9,2.71,2.71,0,0,0,1.07-2.11,1.93,1.93,0,0,0-.94-1.71A13.79,13.79,0,0,0,321,18.56a30.9,30.9,0,0,1-4.9-1.54,4.86,4.86,0,0,1-2.19-6.69,5.13,5.13,0,0,1,1.58-1.79,6.7,6.7,0,0,1,2-.94,9.86,9.86,0,0,1,2.77-.38,10.87,10.87,0,0,1,3.91.64,5.3,5.3,0,0,1,2.49,1.74,7,7,0,0,1,1.11,2.93l-3.14.43a3.45,3.45,0,0,0-1.24-2.28,4.51,4.51,0,0,0-2.9-.82,5.22,5.22,0,0,0-3.15.73,2.14,2.14,0,0,0-.95,1.71,1.76,1.76,0,0,0,.39,1.12,2.87,2.87,0,0,0,1.23.86c.32.12,1.27.39,2.84.82a39.55,39.55,0,0,1,4.75,1.49,4.79,4.79,0,0,1,2.11,1.68,4.72,4.72,0,0,1,.77,2.75,5.35,5.35,0,0,1-.94,3,6,6,0,0,1-2.7,2.19,9.76,9.76,0,0,1-4,.78,8.87,8.87,0,0,1-5.63-1.54A7.07,7.07,0,0,1,312.76,20.93Z" fill="#fff"/><path d="M344.58,26.58V24.19a5.89,5.89,0,0,1-5.3,2.82,7.42,7.42,0,0,1-4.16-1.25,8.09,8.09,0,0,1-2.94-3.49,12,12,0,0,1-1.05-5.14,13.45,13.45,0,0,1,.95-5.14,7.44,7.44,0,0,1,2.83-3.54,7.59,7.59,0,0,1,4.23-1.23,6.29,6.29,0,0,1,5.22,2.6V.45h3.19V26.58Zm-10.15-9.45q0,3.64,1.54,5.44a4.6,4.6,0,0,0,3.61,1.8,4.53,4.53,0,0,0,3.58-1.72,8,8,0,0,0,1.47-5.25q0-3.88-1.5-5.71a4.61,4.61,0,0,0-3.69-1.81,4.44,4.44,0,0,0-3.57,1.74C334.91,12.79,334.43,14.62,334.43,17.13Z" fill="#fff"/><path d="M365,24.24a11.83,11.83,0,0,1-3.43,2.14A9.84,9.84,0,0,1,358,27a6.84,6.84,0,0,1-4.79-1.53,5,5,0,0,1-1.68-3.89,5.17,5.17,0,0,1,.63-2.54,5.4,5.4,0,0,1,1.66-1.85,7.86,7.86,0,0,1,2.31-1.05,21.53,21.53,0,0,1,2.85-.48,29.09,29.09,0,0,0,5.72-1.11c0-.44,0-.71,0-.83a3.55,3.55,0,0,0-.91-2.77,5.39,5.39,0,0,0-3.65-1.08,5.65,5.65,0,0,0-3.34.79,4.86,4.86,0,0,0-1.6,2.81l-3.14-.43a7.85,7.85,0,0,1,1.41-3.25,6.13,6.13,0,0,1,2.84-1.91,12.47,12.47,0,0,1,4.29-.67,11.37,11.37,0,0,1,3.94.57,5.14,5.14,0,0,1,2.23,1.44,4.94,4.94,0,0,1,1,2.18,17.74,17.74,0,0,1,.16,3v4.28a47.32,47.32,0,0,0,.2,5.66,7,7,0,0,0,.82,2.27h-3.36A7,7,0,0,1,365,24.24Zm-.27-7.16a23.62,23.62,0,0,1-5.24,1.21,12.06,12.06,0,0,0-2.8.64A2.84,2.84,0,0,0,355.38,20a2.69,2.69,0,0,0-.45,1.52,2.74,2.74,0,0,0,1,2.14,4.16,4.16,0,0,0,2.84.85,6.67,6.67,0,0,0,3.3-.81,5,5,0,0,0,2.12-2.22,7.82,7.82,0,0,0,.51-3.21Z" fill="#fff"/><path d="M372.76,33.87l-.36-3a7.16,7.16,0,0,0,1.84.28,3.63,3.63,0,0,0,1.71-.35,2.87,2.87,0,0,0,1.05-1,14.83,14.83,0,0,0,1-2.39c.06-.18.16-.44.29-.78l-7.19-19h3.46l3.94,11c.51,1.39,1,2.85,1.38,4.39a41.49,41.49,0,0,1,1.31-4.32l4.05-11h3.21l-7.2,19.25a37.53,37.53,0,0,1-1.8,4.3,6.41,6.41,0,0,1-2,2.32,4.6,4.6,0,0,1-2.64.74A6.46,6.46,0,0,1,372.76,33.87Z" fill="#fff"/><path d="M391.32,9.7l-.89-5V.45h3.65V4.72l-.8,5Zm5.9,0-.87-5V.45H400V4.72l-.86,5Z" fill="#fff"/></svg>