<svg xmlns="http://www.w3.org/2000/svg" width="250" height="104" viewBox="0 0 250 104"><g id="logos"><path d="M16.21.65c7.07,0,8.54,5.13,8.54,7.67C24.75,19.87,7.89,21.56,7.89,27c0,3.62,1.51,8.88,1.51,9.14,0,.51-1,.38-1.3.38H2.37C1.29,36.51,0,37.33,0,21.17,0-.13,2.24.65,3,.65Zm1.55,9c0-3-2.59-4-5.17-4-3.11,0-5.65.48-5.61,10.39,0,1,.09,2,1.34,2C10.56,18.11,17.76,12.8,17.76,9.7Z" fill="#fff"/><path d="M37.94,37.16c-8.71,0-12.12-6.25-12.12-13.71C25.82,12.37,32,0,40.09,0S54.36,12.37,54.36,23.45c0,7.46-3.4,13.71-12.11,13.71ZM47.38,22.5C47.38,13,43,7,40.09,7s-7.28,6-7.28,15.52c0,5.05,2.71,7,7.28,7S47.38,27.55,47.38,22.5Z" fill="#fff"/><path d="M73.81.65c7.07,0,8.53,5.13,8.53,7.67,0,11.55-16.85,13.24-16.85,18.67,0,3.62,1.5,8.88,1.5,9.14,0,.51-1,.38-1.29.38H60c-1.08,0-2.37.82-2.37-15.34,0-21.3,2.24-20.52,3-20.52Zm1.55,9c0-3-2.59-4-5.18-4-3.1,0-5.64.48-5.6,10.39,0,1,.09,2,1.34,2C68.16,18.11,75.36,12.8,75.36,9.7Z" fill="#fff"/><path d="M100.71.65c7.07,0,8.53,5.13,8.53,7.67,0,11.55-16.85,13.24-16.85,18.67,0,3.62,1.51,8.88,1.51,9.14,0,.51-1,.38-1.3.38H86.87c-1.08,0-2.37.82-2.37-15.34,0-21.3,2.24-20.52,3-20.52Zm1.55,9c0-3-2.59-4-5.17-4-3.11,0-5.65.48-5.61,10.39,0,1,.09,2,1.34,2C95.06,18.11,102.26,12.8,102.26,9.7Z" fill="#fff"/><path d="M134.25.65c1.72,0,2.07.6,2.07,2.28,0,13.58-11.38,16.38-11.38,30,0,.94.25,1.85.25,2.75s-1.33.82-2,.82h-5c-1.16,0-1.34-1.63-1.34-2.5,0-5.17,2.89-8.92,2.89-10.39s-9.83-8.27-9.83-19.7c0-3.23.61-3.27,2.55-3.27h3.45c.81,0,2.45-.09,2.45,1.12,0,.34-.39,2.63-.39,3.36,0,6.16,4.23,11.73,5.52,11.73s6.17-6.82,6.17-11.95a35.46,35.46,0,0,0-.39-3.53c0-.91,1.12-.73,1.72-.73Z" fill="#fff"/><path d="M138.08,19.57c0-9.35,5.26-19.57,15.74-19.57,3.75,0,9.53,1.59,9.53,6.25,0,2.5-1.73,3.92-4.44,3.92-1.77,0,.6-4-4.87-4-6.3,0-9,6.43-9,11.81,0,8.24,5.6,11.56,9.35,11.56,7,0,7.63-6.3,8-6.3.61,0,.95,3.45.95,3.88,0,6.38-4.91,10.09-10.95,10.09C142.65,37.16,138.08,28.28,138.08,19.57Z" fill="#fff"/><path d="M178,37.16c-8.71,0-12.12-6.25-12.12-13.71C165.89,12.37,172.1,0,180.16,0s14.27,12.37,14.27,23.45c0,7.46-3.41,13.71-12.11,13.71Zm9.44-14.66C187.45,13,183.05,7,180.16,7s-7.28,6-7.28,15.52c0,5.05,2.71,7,7.28,7S187.45,27.55,187.45,22.5Z" fill="#fff"/><path d="M196.59,19.57c0-9.35,5.26-19.57,15.73-19.57,3.75,0,9.53,1.59,9.53,6.25,0,2.5-1.73,3.92-4.44,3.92-1.77,0,.6-4-4.87-4-6.3,0-9,6.43-9,11.81,0,8.24,5.6,11.56,9.35,11.56,7,0,7.64-6.3,8-6.3.61,0,.95,3.45.95,3.88,0,6.38-4.91,10.09-10.95,10.09C201.16,37.16,196.59,28.28,196.59,19.57Z" fill="#fff"/><path d="M247.67.65c.43,0,1.38-.18,1.38.51,0,6.43-7.33,13.15-7.33,14S250,23,250,35.61c0,1.16-.91.9-1.85.9h-5.26c-1.08,0-.95-1.25-.95-1.72-.22-9.79-4-14.4-4.74-14.4-1,0-4.75,3.19-4.75,5.65,0,1.72,1.47,9.4,1.47,9.74,0,.52-.34.73-.82.73h-5.26c-1.08,0-2.37.82-2.37-15.34,0-21.3,2.24-20.52,3-20.52h4.35c.56,0,1.46-.13,1.46.69a44.62,44.62,0,0,0-2.11,12.41c0,.48-.13,2.72.74,2.72s7.32-7.42,9.39-14.66c.31-.95.26-1.12,1.25-1.16Z" fill="#fff"/><path d="M25.29,46c11,0,13.32,8,13.32,12,0,18-26.3,20.65-26.3,29.12,0,5.65,2.35,13.86,2.35,14.26,0,.81-1.54.61-2,.61H3.7C2,102,0,103.22,0,78,0,44.78,3.5,46,4.64,46Zm2.42,14.12c0-4.64-4-6.18-8.07-6.18-4.84,0-8.81.74-8.74,16.2,0,1.62.13,3.1,2.08,3.1C16.48,73.23,27.71,65,27.71,60.11Z" fill="#fff"/><path d="M68.4,102c-.6,0-2.55.2-2.55-.81,0-1.88,5.17-8.61,5.17-16.28,0-3-2.89-4.17-5.91-4.17-6.12,0-15.88,1.08-15.88,8.75,0,5.31,4.38,11,4.38,12,0,.4-.41.47-1.28.47H42.71c-3.43,0-4.37-6.06-4.37-14.8,0-28.79,20-42.17,22.93-42.17,2.22,0,19.57,9.62,19.57,40.83,0,18-2.89,16.14-4.91,16.14ZM50.71,72.09A1.17,1.17,0,0,0,52,73.36c1.21,0,7.74-1.75,13.65-1.75,2.36,0,3.43-.33,3.43-2.22,0-4.16-5-12.91-7.53-12.91C57.91,56.48,50.71,67.18,50.71,72.09Z" fill="#fff"/><path d="M89.25,102c-3.56.13-2.49-2.22-2.82-15.88,0-9,3.7-40.08,5.65-40.08h10.69c.47,0,1.28.13,1.28,1.35,0,1.47-7.8,15.93-7.8,34.5,0,9.28,4,11.5,7.73,11.5,6.19,0,10-5.72,11.64-5.72,1.28,0,3.9,13,3.9,13.32,0,1.34-2.09,1-2.89,1Z" fill="#fff"/><path d="M152.41,102c-.61,0-2.56.2-2.56-.81,0-1.88,5.18-8.61,5.18-16.28,0-3-2.89-4.17-5.92-4.17-6.12,0-15.87,1.08-15.87,8.75,0,5.31,4.37,11,4.37,12,0,.4-.4.47-1.28.47h-9.61c-3.43,0-4.38-6.06-4.38-14.8,0-28.79,20-42.17,22.94-42.17,2.22,0,19.57,9.62,19.57,40.83,0,18-2.89,16.14-4.91,16.14ZM134.72,72.09A1.17,1.17,0,0,0,136,73.36c1.21,0,7.73-1.75,13.65-1.75,2.35,0,3.43-.33,3.43-2.22,0-4.16-5-12.91-7.53-12.91C141.92,56.48,134.72,67.18,134.72,72.09Z" fill="#fff"/><path d="M168.75,75.52C168.75,60.92,177,45,193.3,45c5.85,0,14.87,2.49,14.87,9.75,0,3.9-2.69,6.12-6.93,6.12-2.76,0,.94-6.32-7.6-6.32-9.82,0-14,10-14,18.43,0,12.85,8.74,18,14.59,18,11,0,11.91-9.81,12.51-9.81.94,0,1.48,5.38,1.48,6,0,10-7.66,15.74-17.08,15.74C175.88,103,168.75,89.1,168.75,75.52Z" fill="#fff"/><path d="M216.64,102c-3.56.13-2.49-2.22-2.82-15.88,0-9,3.7-40.08,5.65-40.08H246c.81,0,3.23-.2,3.23,1.14,0,.54-4.3,10-5.18,10-1.14,0-3.16-3.16-9.75-3.16-4.64,0-9.55,2.75-9.55,9.21,0,1.41.27,3.83,2.15,3.83,2.16,0,6.93-3.16,12.58-3.16.81,0,3,.27,3,1.42,0,.06-3.77,11-4.58,11s-3.22-1.35-5.85-1.35c-3.43,0-8.4,2.49-8.4,9.15,0,5.38,2.82,9.28,8.47,9.28,6.66,0,10.76-4.44,12.37-4.44,1,0,5.52,11.37,5.52,12,0,1.28-1.68,1-2.49,1Z" fill="#fff"/></g></svg>