<svg xmlns="http://www.w3.org/2000/svg" viewBox="0 0 270 78"><path d="M167.89 9.12c-1.72 3.45-2.53 6.6-3.51 10.08l-2.26 8.03c-2.28 8.12.81 12.38-3.19 13.36-4.9 1.2-2.95-8.06-7.19-14.62-2.54 4.16-2.8 8.62-2.3 13.21.17 1.56-1.1 3.13-2.43 3.27-4.98.53-2.57-7.23-6.93-14.45-1.64-2.71-2.68-5.23-2.52-8.5.34-7.2-3.65-9.76-2.05-13.36.41-.93 2.3-1.67 3.16-1.41s1.81 1.82 1.73 2.75c-.26 3.05-.06 5.49.5 8.42 1.04 5.41 1.5 10.75 5.13 15.69 1.14-3.32 2.08-6.53 1.88-9.69l-.27-4.35c-.12-2.02 1.42-4.5 3.65-4.41 2.69.1 4.28 3.03 3.89 5.59-.57 3.77-.34 7.98 2.76 10.88 1.45-4.89 1.48-9.59 3.07-13.76s3.05-7.41 2.41-11.98c-.21-1.52 1.1-2.95 2.58-3.15 1.34-.17 2.81.89 3.03 2.61s-.25 3.96-1.16 5.78zM215.21 34.02c1.15 3.26-.66 6.77-2.88 6.97-2.6.24-5.94-6.87-6.45-10.79-.33-2.5-.38-4.75-1.18-6.99-1.92-5.39-.35-8.47-2.25-10.54-.71 3.82-.5 7.35-1.73 10.45-1.54 3.9-2.07 7.22-.72 11.42.76 2.38-.15 6.24-3.09 6.35-2.55.1-3.53-3.27-3.04-5.43l2.52-11.27 1.25-7.31c.47-2.77.8-5.31.19-8.1-.49-2.22.32-4.69 2.2-5.99s4.67-.36 5.55 1.96c4.06 10.66 1.2 12.55 2.38 16.09l2.46 7.37 2.16-7.48.26-4.23c.16-2.63.85-4.69.32-7.27-.39-1.89-.25-3.97 1.04-5.45.85-.98 2.89-1.25 3.93-.8.91.4 1.93 2.62 1.52 3.58l-1.87 4.33c-.61 4.07-.47 8.47-1.82 12.31s-2.16 6.77-.74 10.81zM67.04 38.45c1.15 3.26-.66 6.77-2.88 6.97-2.6.24-5.94-6.87-6.45-10.79-.33-2.5-.38-4.75-1.18-6.99-1.92-5.39-.35-8.47-2.25-10.54-.71 3.82-.5 7.35-1.73 10.45-1.54 3.9-2.07 7.22-.72 11.42.76 2.38-.15 6.24-3.09 6.35-2.55.1-3.53-3.27-3.04-5.43l2.52-11.27c1.02-4.56 2.25-11.68 1.43-15.41-.49-2.22.32-4.69 2.2-5.99s4.67-.36 5.55 1.96c4.06 10.66 1.2 12.55 2.38 16.09l2.46 7.37 2.16-7.48c-.21-4.5 1.49-7.02.58-11.5-.38-1.88-.25-3.97 1.04-5.45.86-.98 2.88-1.26 3.93-.8.92.4 1.93 2.62 1.52 3.58l-1.87 4.33c-.61 4.07-.47 8.47-1.82 12.31s-2.16 6.77-.74 10.81zM242.82 38.46c1.37 1.91.75 5.15-1.46 5.85-2.46.78-4.8-1.97-4.82-4.33-.03-3.83-1.3-6.34-3.06-9.72-1.2-2.29-3.87-5.86-6.96-4.2-2.77 3.07-2.4 8.07-1.29 11.88.74 2.54-.25 6.13-2.99 6.29s-3.67-3.44-3.14-5.8l2.46-10.9 1.34-7.67c1.22-7.01-1.24-10.12 1.09-12.93.92-1.11 2.85-1.44 3.9-1 1.4.6 2.08 2.79 1.43 4.27-1.72 3.93-3.15 9.78-1.81 11.27.49.55 2.65.68 3.27.2 1.8-1.4 3.15-3.66 4.44-5.63 3.32-5.07 1.47-8.18 3.84-9.55.64-.37 2.27.18 2.67.86 2.31 3.99.89 8.03-2.63 10.62-1.98 1.46-3.81 3.56-4.9 5.88l4.92 9.45 3.69 5.14zM96 35.98c1.37 1.91.75 5.15-1.46 5.85-2.46.78-4.8-1.97-4.82-4.33-.03-3.83-1.3-6.34-3.06-9.72-1.2-2.29-3.87-5.86-6.96-4.2-2.77 3.07-2.4 8.07-1.29 11.88.74 2.54-.25 6.13-2.99 6.29s-3.67-3.44-3.14-5.8l2.46-10.9c1.1-4.87 2.28-11.59 1.43-15.93-.3-1.52 0-3.45 1-4.66.92-1.11 2.85-1.44 3.9-1 1.4.6 2.08 2.79 1.43 4.27-1.72 3.93-3.15 9.78-1.81 11.27.49.55 2.66.68 3.25.22 1.84-1.44 3.16-3.67 4.46-5.65 3.33-5.07 1.47-8.18 3.84-9.55.64-.37 2.27.18 2.67.86 2.31 3.99.89 8.03-2.63 10.62-1.98 1.46-3.81 3.56-4.9 5.88 1.63 3.36 2.84 6.55 4.92 9.45l3.69 5.14zM187.71 4.48c.6-.89 2.68-1.26 3.46-.9.92.43 1.57 2.3 1.36 3.53l-2.12 12.1c-.93 5.29-2.43 10.35-2.72 15.71-.18 3.38-2.3 5.61-4.97 6.56-3.07 1.09-5.87.45-8.29-1.98l-4.2-4.2c-2.36-3.19-.41-7.23.52-10.44l1.41-4.87c.83-2.85 1.38-5.43 1.09-8.42-.46-4.77 1.01-8.76 3.9-8.27.74.12 1.94 1.71 1.78 2.51l-2.3 11.06c-.67 3.23-.88 6.6-1.98 9.61-1.41 3.86.19 6.76 2.98 9.5.67.66 1.86 1.74 2.65 1.77 2.42.09 3.64-3.46 3.17-7.75-.37-3.38.63-5.79 2.32-8.5 3.97-6.37-.71-13.08 1.95-17.01zM40.98 4.31c.58-.91 2.63-1.36 3.41-1.02 1.01.44 1.67 2.23 1.49 3.5l-1.72 12.16c-.75 5.32-2.1 10.43-2.21 15.79-.07 3.38-2.12 5.68-4.75 6.72-3.03 1.19-5.87.66-8.35-1.7-1.26-1.2-3.29-2.74-4.33-4.06-2.46-3.11-.64-7.22.18-10.45l1.25-4.92c.73-2.88 1.2-5.47.82-8.45-.61-4.76.72-8.79 3.63-8.4.74.1 2 1.64 1.86 2.45l-1.94 11.13c-.57 3.25-.66 6.62-1.66 9.67-1.29 3.9.41 6.75 3.29 9.39.7.64 1.91 1.67 2.7 1.68 2.42.01 3.53-3.58 2.91-7.84-.48-3.37.44-5.81 2.04-8.57 3.76-6.5-1.14-13.08 1.39-17.06zM9.06 19.29c2.04 1.93 5.21-1.77 8.2.27 1.18.81 1.78 2.42 1.41 4-.28 1.2-1.73 2.97-3.51 2.44-2.04-.61-5.4-2.19-7.18-.12C6.14 28.92 5.84 33.56 6.59 37c.39 1.78 1.09 3.72.13 5.2-1.13 1.72-3.52 1.64-4.88.83-3.63-2.17-.95-6.53.16-13.72.45-2.93.43-5.85.68-8.89.29-3.59 1.09-6.88.24-10.6-.18-.81.38-2.79.85-3.48.52-.76 2.19-1.36 3.32-1.35l7.62.04 7.21.11c.66.01 1.98.61 2.31 1.17s.15 2.14-.2 2.72c-3.52 5.91-13.83-3.8-14.89 2.78l-.72 4.51c-.13.83.07 2.44.65 2.99zM254.15 21.81l-2.87-5.88c-2.66-5.46-5.84-9.3-1.95-10.93.85-.36 3.08-.09 3.4.83l1.94 5.66c.84 2.46.98 4.88 2.44 7.17 4.51-3.12 3.76-8.1 5.75-12.2 1.15-2.36 3.81-2.43 5.65-1.32 1.93 1.17 1.9 3.86.32 5.73-2.82 3.35-4.77 6.96-6.91 10.79-2.6 4.65-5.58 9.04-7.57 14.03l-2.47 6.2c-.43 1.07-2.63 1.53-3.65 1.15-1.15-.42-2.15-2.1-1.78-3.55.46-1.79 1.55-3 2.81-4.36 3.14-3.41 5.36-8.17 4.87-13.31zM106.03 23.06l-2.87-5.88c-2.65-5.43-5.84-9.31-1.95-10.93 5.27-2.19 4.56 8.51 7.78 13.65 4.51-3.12 3.76-8.1 5.75-12.2 1.15-2.36 3.81-2.43 5.65-1.32 1.93 1.17 1.9 3.86.32 5.73-2.82 3.35-4.77 6.96-6.91 10.79-2.6 4.65-5.84 8.94-7.57 14.03-1.33 3.92-2.51 8.68-6.12 7.35-1.15-.42-2.15-2.1-1.78-3.55.46-1.79 1.55-3 2.81-4.36 3.14-3.41 5.36-8.17 4.87-13.31zM246.82 73.11c.62 1.78-.22 3.86-1.51 4.12-.38.08-1.29-.26-1.51-.61-3.33-5.11-2.16-7.14-3.08-9.62-1.15-3.09-.26-4.66-1.34-6.66l-1 6.29c-.93 2.4-1.26 4.42-.43 7.01.41 1.26-.14 3.36-1.68 3.56s-2.26-1.8-1.95-3.16l1.53-6.8.67-4.08c.2-1.21.45-2.58.28-3.75-.19-1.29-.37-2.48.24-3.61.39-.73 1.41-1.29 2.12-1.28.78.01 1.91.69 2.14 1.6l1.38 5.49c.13.53-.35 1.8-.48 2.38l1.87 5.82 1.25-4.81.34-3.25c.34-3.3-.79-5.03.7-6.41.51-.48 1.58-.59 2.17-.36s1.19 1.51.91 2.16l-1.14 2.74c-.28 2.36-.25 4.82-1.02 7s-1.25 3.91-.43 6.23zM33.73 72.97c.72 2.14-.35 4.18-1.58 4.29-1.59.14-3.55-3.99-3.81-6.23-.2-1.74-.31-3.2-.92-4.82-.85-2.25.08-3.95-1.16-5.84-.29 2.2-.21 4.42-.94 6.35-.85 2.24-1.28 4.15-.47 6.57.46 1.38.06 3.76-1.7 3.91-1.6.13-2.15-1.93-1.85-3.24l1.49-6.6.73-4.25c.27-1.61.39-3.03.12-4.64-.37-2.12.72-3.89 2.35-3.95.62-.02 1.9.61 2.11 1.25l1.17 3.67c.44 1.51.46 2.98-.12 4.47L31 69.78l1.31-4.66.14-2.51c.08-1.39.45-2.56.16-3.92-.23-1.05-.16-2.27.5-3.11.52-.67 1.5-.85 2.25-.65.64.17 1.37 1.4 1.05 2.18l-1.12 2.72c-.34 2.39-.26 4.94-1.08 7.18-.75 2.06-1.18 3.75-.44 5.97zM41.75 76.97c-2.05-.58-4.08 1.13-4.69-.47s.63-2.38.62-6.09c0-1.25 1.23-2.69 1.21-3.99l-.05-4.79c-.01-1.24.32-2.25-.19-3.41-.42-.95-.2-3.13 1.15-3.23l5.3-.39c2.07-.15 4.54.54 4.68 2.92.12 1.96-.73 3.94-1.15 5.91-.74 3.43 1.86 7.46-1.07 11.56-1.38 1.94-3.48 2.63-5.82 1.97zm1.87-3.12c2.08-.32 3.73-2.51 2.74-4.32s-1.33-3.54-.33-5.54c.89-1.78 1.31-4.04.16-5.87-.46-.74-1.79-.81-2.57-.52-2.29.86-1.13 2.35-1.97 6.18-.67 3.07-1.19 9.35.3 10.03.32.14 1.07.14 1.66.05zM134.87 74.9c-.26-5.2-3.08-7.93-4.74-6.84-2.16 1.42.45 5.39-.54 8.04-.2.52-1.17 1.15-1.66 1.18-.58.03-1.48-.73-1.67-1.41-.39-1.46.2-2.68.44-4.13l1.12-6.84c.24-1.44.03-2.45.64-3.84.69-1.57-1.04-5.16 1.05-5.98 1.72-.68 3.58-.45 5.44-.37 2.36.1 4.4 1.68 4.41 4.33 0 1.68-.39 3.6-.8 5.29-.76 3.13-4.6 2.67-2.92 5.43l3.13 5.17c.19.31.19 1.14.06 1.47-.14.37-1.05.71-1.47.71-1.58.02-2.43-.76-2.5-2.2zm-1.74-9.77c1.7-.14 2.15-.9 2.52-2.27.46-1.7.85-3.48-.71-4.92-.51-.47-1.76-.46-2.46-.11-.59.3-1.31 1.26-1.37 2.01l-.34 4.5c-.05.64 1.73.84 2.36.79zM85.43 72.83c.6 2.26.04 4.17-1.42 4.45-.44.08-1.4-.35-1.64-.8-1.25-2.33.73-4.92.57-8.46l-3.15-.61c-.52-.1-1.33-.12-1.69.04-1.28.54-.94 3.82-.4 6.31.29 1.33-.2 3.36-1.8 3.46s-2.13-1.93-1.84-3.25l1.5-6.89.71-3.97c.77-4.3-.73-6.32.83-8 .47-.51 1.54-.66 2.12-.45.53.19 1.23 1.29.99 1.93l-.98 2.7c-.56 1.55-.58 3.47-.54 5.1.99.98 3.42.9 4.18-.24 2.25-3.35.13-7.05 2.21-9.11.44-.44 1.59-.6 2.1-.37.67.3 1.06 1.39.89 2.2l-1.63 7.93-.84 2.92c-.5 1.72-.65 3.33-.18 5.1zM258.52 72.82c.5-2.4-2.91-.83-3.33-3.39-.15-.92.62-2.25 1.91-2.27l4.84-.07c.43 0 1.17.58 1.38.9 1.04 1.59-1.38 1.63-1.4 4.08-.02 1.64-.85 3.29-1.94 4.13-2.54 1.97-7.44 1.11-8.98-2.37-.89-2-.64-4.23.23-6.27 1.21-2.86-.73-4.82.86-6.77 1.1-1.36 1.58-2.7 2.32-4.32.82-1.78 3.83-2.33 5.48-1.6s2 2.2 2.88 3.47c.43.62 1.38 1.33 1.42 1.95.06 1-.33 1.92-1.05 2.62-.64.62-1.74.88-2.44.53-2.08-1.02.25-3.86-.86-5.55-.43-.66-2.19-.67-2.93-.3-2.7 1.34-2.48 5.4-3.17 8.38-.62 2.67-.88 5.22.89 7.58.42.57 1.51 1.03 2.11.91.89-.17 1.59-.79 1.77-1.67zM119.46 72.82c.5-2.4-2.91-.83-3.33-3.39-.15-.92.62-2.25 1.91-2.27l4.84-.07c.43 0 1.17.58 1.38.9 1.04 1.59-1.38 1.63-1.4 4.08-.02 1.64-.85 3.29-1.94 4.13-2.54 1.97-7.44 1.11-8.98-2.37-.89-2-.64-4.23.23-6.27 1.21-2.86-.73-4.82.86-6.77 1.1-1.36 1.58-2.7 2.32-4.32.82-1.78 3.83-2.33 5.48-1.6s2 2.2 2.88 3.47c.43.62 1.38 1.33 1.42 1.95.06 1-.33 1.92-1.05 2.62-.64.62-1.74.88-2.44.53-2.08-1.02.26-3.9-.86-5.54-.46-.67-2.15-.69-2.94-.31-2.68 1.31-2.48 5.41-3.17 8.38-.62 2.67-.88 5.22.89 7.58.42.57 1.52 1.03 2.12.91.89-.17 1.59-.79 1.77-1.67zM213.06 73.01c.75-2.52-2.85-.99-3.32-3.67-.14-.82.77-2.19 1.97-2.2l4.92-.04c.45 0 1.16.6 1.34.99.78 1.72-1.52 1.58-1.47 3.84.03 1.74-.79 3.32-1.9 4.23-2.44 2.01-7.28 1.14-8.9-2.06-1.01-1.99-.83-4.26.05-6.33 1.44-3.39-1.12-4.48 1.59-7.91l1.65-3.41c.87-1.79 3.81-2.33 5.53-1.52 1.54.72 1.96 2.23 2.84 3.46.44.61 1.34 1.35 1.39 1.97.07.92-.34 1.86-1 2.55-.61.64-1.76.91-2.42.57-2.12-1.06.12-3.88-.88-5.53-.42-.7-2.16-.71-2.92-.35-2.73 1.28-2.54 5.37-3.22 8.36-.62 2.72-.9 5.26.93 7.67.35.46 1.39.94 1.94.87.76-.1 1.66-.74 1.88-1.49zM163.92 76.45c-2.74 1.43-5.73.88-7.65-1.06-2.21-2.22-2.11-5.02-.92-7.9l1.1-4.29c-.59-2.7-.17-4.8 1.79-6.79 1.79-1.82 5.18-2.82 7.24-.7 2.6 2.67 2.42 6.83.94 10.05-.94 2.02-1.1 3.92-.44 5.95.61 1.91-.26 3.81-2.05 4.75zm-.02-9.91c.39-1.02.47-2.09.07-3.11-1.13-2.86.56-5.29-.71-5.97-.39-.21-1.27-.27-1.86-.26-1.89 1.18-2.56 3.17-1.91 5.26-.69 1.75-1.11 3.44-.74 5.39.04 2.06-2.17 3.48-1.03 5.4.71 1.2 3.4 1.87 4.45.91 1.18-1.08.33-3.94 1.75-7.62zM149.77 76.53c-2.72 1.34-5.61.74-7.48-1.12-2.18-2.18-2.18-4.93-1-7.78.52-1.26.9-3.41 1.13-4.73-.63-2.73-.02-4.62 1.85-6.51s5.36-2.77 7.38-.49c2.39 2.7 2.23 6.69.77 9.82-.95 2.04-1.11 3.97-.45 6.04.62 1.95-.35 3.86-2.2 4.77zm-.01-9.59c.45-1.18.7-2.28.22-3.49-1.16-2.9.54-5.32-.69-5.96-.4-.21-1.25-.31-1.82-.32-1.99 1.16-2.61 3.18-2.01 5.36-.65 1.64-1.03 3.24-.76 5.01.27 2.21-2.18 3.68-.97 5.75.68 1.16 3.29 1.73 4.27.99 1.39-1.05.47-3.93 1.77-7.34zM92.58 67.96l.03 3.92c0 .39.58 1.21.96 1.32 1.04.3 3.52.2 5.26-.65.5-.24 1.59-.13 2.01.18.44.32.7 1.53.46 2.03-1.35 2.89-5.2.41-9.99 2.19-.7.26-1.68.36-2.19.03-.59-.39-.96-1.62-.76-2.32l1.09-3.77c.45-1.55 1.05-2.66 1.24-4.33l.52-4.62.15-3.41c.05-1.19.22-2.17.95-2.89.86-.84 1.87-1.27 3.04-.96 3.13.82 5.13-.06 7.03.87 1.23.6 1.38 1.98.76 2.88-.71 1.04-1.81.92-2.93.19l-3.27-.53-1.44-.19c-.38-.05-1.05.76-1.12 1.15l-.73 3.94c-.05.29.23 1.01.44 1.1 1.2.49 3.69-1.37 5.04.78.44.7-.64 2.11-1.54 2.07l-3.41-.16c-.5-.02-1.61.51-1.6 1.18zM15.31 67.68c-1.01-.51-3.96-.25-4.68.55-.34.37-.52 1.37-.5 1.9l.19 4c.03.74-.17 1.77-.56 2.35-.34.5-1.59.94-2.2.72-1.87-.69-2.24-2.75-1.18-4.23.42-.59.87-1.5 1.02-2.2l2.02-8.97c.16-.73 1.08-1.75 1.21-2.58.27-1.67 1.52-3.87 2.47-4.55.33-.23 1.41-.1 1.76.18.71.55 1.32 1.87 1.23 2.89-.16 1.69.21 3 .73 4.53.4 1.15.74 2.32 1.41 3.34.74 1.12.97 2.33.78 3.69-.51 3.79 1.39 5.12.43 6.79-.33.57-1.14 1.13-1.97 1.13-.6 0-1.46-1.02-1.55-1.63-.56-3.91 1.64-6.76-.63-7.91zm-3.67-2.28c.32.4 1.45.33 1.92.18.45-.14 1.26-1.07 1-1.48-1.17-1.88-.94-3.23-.66-5.64l-1.76 2.88c-.81 1.11-1.49 2.85-.5 4.06zM228.51 67.71c-.76-.38-2.28-.25-3.09-.17-1.62.15-2.26 1.13-2.18 2.66l.2 3.82c.04.72-.12 1.75-.43 2.26-.39.64-1.53 1.14-2.36.92-.74-.2-1.51-1.16-1.66-1.76-.47-1.95 1.16-2.83 1.5-4.46l1.52-7.36c.25-1.19.73-2.05 1.21-3.15.88-2.01 1.14-4.42 3.16-5.88 1.59-.37 2.93 1.22 2.82 2.9-.25 2.32.99 6.37 2.16 8.16.72 1.11.95 2.32.77 3.64-.53 3.85 1.54 5.2.24 7.08-.31.45-1.24.9-1.95.83-.5-.05-1.28-1.05-1.36-1.55-.62-3.85 1.62-6.83-.56-7.94zm-.82-3.64c-.5-1.19-1.02-2.17-.95-2.9l.28-2.68-1.83 2.98c-.69 1.12-1.34 2.6-.51 3.81.33.49 1.49.5 2.08.28.44-.16 1.13-1.02.93-1.5zM65.31 68.88c-.56 4.82.6 6.77-1.07 8.01-.53.39-1.67.42-2.16.13s-.91-1.52-.7-2.05l1.08-2.76c.31-2.39.29-4.81 1.03-7.03.64-1.94 1.27-3.68.67-5.71-.34-1.14-1.31-1.82-2.58-1.46l-2.5.7c-1.26-.2-1.48-1.57-1.25-2.51s1.25-1.31 2.35-1.35l4.84-.17 3.13-.03c1.38-.01 2.49.24 3.87.06.86-.12 1.94.14 2.27.73.5.91.42 2.02-.07 2.59-1.71 1.96-4.01-1.13-5.91-.08-1.44.8-.52 4.54-1.97 7.13-.73 1.3-.86 2.33-1.03 3.8zM187.79 64.58l-1.62-3.23-2.29-5.04c-.22-.47.76-1.26 1.19-1.43s1.69-.06 1.86.41l1.15 3.21 1.28 4.34c2.8-1.3 2.35-4.62 3.61-7.14.68-1.37 2.23-1.4 3.32-.72 1.03.64 1.09 2.22.16 3.3-1.71 2-2.81 4.27-4.14 6.48-2.19 3.64-4.28 6.98-5.4 11.13-.14.52-1.06 1.22-1.55 1.36s-1.6-.29-1.84-.82c-.44-.98-.14-2.27.63-3.02 2.33-2.26 4.08-5.35 3.63-8.84zM181.2 59.7l-1.97 3.19-3.15 6.95c-2.23 4.93-.63 7.3-3.07 7.44-.65.04-1.81-.74-1.77-1.61.14-3.25-.28-6.09-1.58-9.14-.87-2.03.94-4.69-.36-8.8-.33-1.04-.06-2.42.81-2.96.34-.21 1.24-.23 1.57-.08 1.29.56.02 2.92.13 7 .08 3.25.23 6.26 1.45 9.56l2.1-5.33c.68-1.71 1.11-3.16 2.21-4.68 1.93-2.66.62-6.11 2.89-6.4.9-.12 1.74.49 1.8 1.61.05 1.02-.44 2.25-1.06 3.26z" fill="#fff"/></svg>