<svg xmlns="http://www.w3.org/2000/svg" width="320" height="32" viewBox="0 0 320 32"><path d="M2.12,3.11H0V.25H7.26V3.11H5.13V17.52h-3Z" fill="#fff"/><path d="M8.51.25h3V7.4h2.62V.25h3V17.52h-3V10.27H11.52v7.25h-3Z" fill="#fff"/><path d="M18.93.25h6.61V3.11h-3.6V7.4h3.18v2.87H21.94v4.39h3.68v2.86H18.93Z" fill="#fff"/><path d="M32.38.43H37c5.12,0,9.88,2.08,9.88,7.72v.21a7.1,7.1,0,0,1-4.37,6.85C45,16.34,47.24,18.12,47.24,22v.39c0,5.38-4.16,8.41-10.05,8.41H32.38Zm5.37,12.75c2.34,0,3.9-1.35,3.9-4V9.1c0-2.64-1.56-3.77-3.9-3.77h-.08v7.85Zm0,12.69c2.42,0,4.16-1.43,4.16-3.94v-.22c0-2.51-1.74-3.94-4.16-3.94h-.13v8.1Z" fill="#fff"/><path d="M49.45.43h5.46c5.42,0,9.36,2.86,9.36,9.67v.39c0,3.94-1.56,6.46-3.55,8l4.07,12.31H59.16L55.74,20.2h-1V30.77H49.45Zm5.55,15c2.3,0,4-1.34,4-4.9v-.35c0-3.81-1.82-4.81-4.12-4.81h-.13V15.43Z" fill="#fff"/><path d="M66.18,16.38V14.82C66.18,4.81,69.43,0,74.24,0S82.3,4.81,82.3,14.82v1.56c0,10-3.25,14.82-8.06,14.82S66.18,26.39,66.18,16.38Zm10.75,0V14.82c0-7.8-1.09-10-2.69-10s-2.69,2.17-2.69,10v1.56c0,7.8,1.09,10,2.69,10S76.93,24.18,76.93,16.38Z" fill="#fff"/><path d="M86.85,5.46H83.13v-5H95.87v5H92.14V30.77H86.85Z" fill="#fff"/><path d="M98.08.43h5.28V13H108V.43h5.28V30.77H108V18h-4.6V30.77H98.08Z" fill="#fff"/><path d="M116.36.43H128v5h-6.33V13h5.59v5h-5.59v7.71h6.46v5H116.36Z" fill="#fff"/><path d="M130.66.43h5.46c5.42,0,9.37,2.86,9.37,9.67v.39c0,3.94-1.56,6.46-3.56,8L146,30.77h-5.64L137,20.2h-1V30.77h-5.29Zm5.55,15c2.3,0,4-1.34,4-4.9v-.35c0-3.81-1.82-4.81-4.12-4.81H136V15.43Z" fill="#fff"/><path d="M147.26,29.73v-5.5A9.84,9.84,0,0,0,152,25.92c1.52,0,2.82-.74,2.82-2.6v-.09c0-1.39-.44-2.43-2.95-5.29-3.6-4.07-5.07-6-5.07-9.71V8.15c0-4.86,3.16-7.93,7.37-7.93a9.55,9.55,0,0,1,4.68,1v5.5a7.54,7.54,0,0,0-4-1.38,2.55,2.55,0,0,0-2.73,2.6V8c0,1.43.43,2,2.94,4.86,4.16,4.81,5.07,6.67,5.07,10.14v.09c0,4.76-3.33,7.93-7.49,7.93A12.13,12.13,0,0,1,147.26,29.73Z" fill="#fff"/><path d="M167,9.33V8.44c0-5.7,1.85-8.44,4.59-8.44s4.59,2.74,4.59,8.44v.89c0,5.7-1.85,8.44-4.59,8.44S167,15,167,9.33Zm6.12,0V8.44c0-4.44-.61-5.68-1.53-5.68S170,4,170,8.44v.89c0,4.44.62,5.68,1.53,5.68S173.08,13.77,173.08,9.33Z" fill="#fff"/><path d="M177.62.25h6.3V3.11h-3.28V7.45h2.86v2.87h-2.86v7.2h-3Z" fill="#fff"/><path d="M190.86.43h4.59c5.12,0,9.88,2.08,9.88,7.72v.21A7.1,7.1,0,0,1,201,15.21c2.55,1.13,4.76,2.91,4.76,6.76v.39c0,5.38-4.16,8.41-10.05,8.41h-4.81Zm5.37,12.75c2.34,0,3.9-1.35,3.9-4V9.1c0-2.64-1.56-3.77-3.9-3.77h-.08v7.85Zm.05,12.69c2.42,0,4.16-1.43,4.16-3.94v-.22c0-2.51-1.74-3.94-4.16-3.94h-.13v8.1Z" fill="#fff"/><path d="M207.93.43h11.62v5h-6.33V13h5.59v5h-5.59v7.71h6.46v5H207.93Z" fill="#fff"/><path d="M226.48.35h5.64l5.76,30.42h-5.29l-1-6h-4.82l-.95,6h-5.11ZM230.82,20l-1.61-10-1.65,10Z" fill="#fff"/><path d="M239.18,21.93V.43h5.24v22c0,2.73,1,3.81,2.3,3.81s2.3-1.08,2.3-3.81V.43h5.24v21.5c0,6.37-3.21,9.23-7.54,9.23S239.18,28.3,239.18,21.93Z" fill="#fff"/><path d="M255.78.43h5.37L264,20.2,266.87.43h5.2l-5.42,30.43h-5.46Z" fill="#fff"/><path d="M273.76.43h5.29V30.77h-5.29Z" fill="#fff"/><path d="M282.25.43h5.29V25.74h5.59v5H282.25Z" fill="#fff"/><path d="M295.25.43h5.29V25.74h5.59v5H295.25Z" fill="#fff"/><path d="M308.25.43h11.62v5h-6.33V13h5.59v5h-5.59v7.71H320v5H308.25Z" fill="#fff"/></svg>