<svg xmlns="http://www.w3.org/2000/svg" width="200" height="97" viewBox="0 0 200 97"><path d="M28.61 23.65a.36.36 0 0 0 .27.12h7.62a.36.36 0 0 0 .28-.12.35.35 0 0 0 .1-.28c-.1-2.44-.11-5.95-.12-7.68h6.23v.82c0 2.36-.06 5-.11 6.87a.38.38 0 0 0 .38.39h7.62a.39.39 0 0 0 .27-.11.43.43 0 0 0 .11-.28c-.09-3.12-.12-6.28-.12-11.28s0-8.35.12-11.29a.39.39 0 0 0-.11-.27.36.36 0 0 0-.27-.12h-7.63a.36.36 0 0 0-.25.12.35.35 0 0 0-.11.27c.05 1.8.08 4.57.11 7v.83c-1.92.06-4.31.06-6.23 0 0-1.8 0-5.48.12-7.83a.38.38 0 0 0-.38-.4h-7.63a.36.36 0 0 0-.27.12.39.39 0 0 0-.11.28c.12 3.09.12 6.52.12 11.28s0 8-.12 11.28a.39.39 0 0 0 .11.28zM65.5 24.19c8.07 0 12.16-4.2 12.16-12.49 0-7.87-4-11.7-12.13-11.7s-12 3.83-12 11.7C53.5 20 57.54 24.19 65.5 24.19zm0-6.84c-1.59 0-3.71-.58-3.71-5.55 0-4.69 2-5.29 3.71-5.29s3.69.6 3.69 5.29c.03 4.97-2.07 5.55-3.66 5.55zM80.05 23.66a.39.39 0 0 0 .27.11H87a.36.36 0 0 0 .27-.12.39.39 0 0 0 .11-.29c-.08-1-.09-3.3-.11-6.46v-2.23c0-1.1-.09-2.15-.15-3.18.37.89.75 1.72 1.16 2.49 2.41 3.86 4.77 7.68 5.67 9.57a.37.37 0 0 0 .34.22H102a.41.41 0 0 0 .28-.11.37.37 0 0 0 .1-.28c-.06-2.92-.06-6.26-.06-11.31s0-9.19.09-11.26a.34.34 0 0 0-.1-.27.36.36 0 0 0-.31-.12h-6.53a.4.4 0 0 0-.28.12.38.38 0 0 0-.1.29c.13 1.95.21 5.87.24 8.89 0 .72 0 1.51.07 2.36-.25-.6-.51-1.16-.77-1.67-.87-1.61-1.95-3.41-2.9-5.08-1.22-2.09-2.27-3.89-2.6-4.67a.37.37 0 0 0-.35-.24h-8.46a.36.36 0 0 0-.27.12.39.39 0 0 0-.11.27C80 3.79 80 7.27 80 12.1s0 8.37-.06 11.29a.39.39 0 0 0 .11.27zM105.64 23.66a.41.41 0 0 0 .28.11h7.68a.36.36 0 0 0 .27-.12.39.39 0 0 0 .11-.27c-.08-2.22-.12-4.8-.12-8.07a54.14 54.14 0 0 1 3.93 6.16l.68 1.16a2 2 0 0 0 2.08 1.14h7.74a.4.4 0 0 0 .34-.2.39.39 0 0 0 0-.39c-.18-.28-.42-.69-.72-1.2-.79-1.34-2-3.37-3.91-6.16a9.69 9.69 0 0 0-3.31-3.59c2.19-2.06 4.52-5.91 6.42-9L128.43 1a.39.39 0 0 0 0-.39.4.4 0 0 0-.34-.2h-8.49a.4.4 0 0 0-.35.22l-.1.23a61.14 61.14 0 0 1-3.42 6.53c-.58.91-1.23 1.85-1.89 2.75 0-3.43 0-6.66.12-9.33a.39.39 0 0 0-.11-.28.36.36 0 0 0-.27-.12h-7.68a.38.38 0 0 0-.28.12.34.34 0 0 0-.1.27c.08 3.09.12 6.25.12 11.29s0 8.1-.12 11.28a.37.37 0 0 0 .12.29zM129.56 23.66a.39.39 0 0 0 .27.11H148a.36.36 0 0 0 .28-.12.38.38 0 0 0 .1-.29c-.06-.74-.06-1.95-.06-2.83 0-1.05 0-2.36.06-3.07a.38.38 0 0 0-.1-.29.36.36 0 0 0-.28-.12l-10.31.06v-2.52c3.64 0 7.35 0 10 .09a.39.39 0 0 0 .27-.11.36.36 0 0 0 .12-.28V9.37a.39.39 0 0 0-.11-.28.35.35 0 0 0-.28-.11c-2.84.08-6.63.09-10 .09V6.66l10.31.06a.35.35 0 0 0 .28-.12.38.38 0 0 0 .1-.29c-.06-.65-.06-1.92-.06-2.86s0-2 .06-2.63a.38.38 0 0 0-.11-.28.36.36 0 0 0-.27-.12h-18.17a.39.39 0 0 0-.28.12.34.34 0 0 0-.1.27c.09 2.92.09 6.43.09 11.29s0 8.24-.09 11.28a.35.35 0 0 0 .11.28zM155.8 16.56c0 3.24-.06 5.85-.15 6.82a.41.41 0 0 0 .1.3.39.39 0 0 0 .28.12c1.16-.06 2.91-.06 4.32-.06s3.12 0 4.25.06a.36.36 0 0 0 .29-.11.37.37 0 0 0 .11-.28c0-.27-.08-2.75-.12-6.76C166.17 13.4 170 4.45 171.76 1a.4.4 0 0 0 0-.38.38.38 0 0 0-.32-.18h-7.29a.38.38 0 0 0-.37.29c-.21.84-.84 2.75-1.5 4.77-.25.77-.51 1.56-.75 2.31-.3 1-.56 1.9-.78 2.73-.23-.85-.49-1.81-.78-2.84-.74-2.49-1.69-5.61-2.11-7a.39.39 0 0 0-.37-.27h-8.19a.36.36 0 0 0-.32.19.35.35 0 0 0 .02.38c1.72 3.27 5.55 12.17 6.8 15.56zM21.7 60.3c4.25 0 7-.85 8.75-2.68 1.9-2 2.53-5.11 2.2-10.7a.38.38 0 0 0-.38-.36H21.14a.39.39 0 0 0-.28.11.36.36 0 0 0-.11.29v4.3a.38.38 0 0 0 .1.29.4.4 0 0 0 .29.12c1 0 2.42-.06 3.79-.06-.24 1.89-1 2.58-3 2.58-2.85 0-3.86-1.6-3.86-6.1 0-5 1.34-5.94 3.65-5.94 2.57 0 2.9 1.21 2.9 2.27v.72a.4.4 0 0 0 .12.28.38.38 0 0 0 .29.1c.89-.06 2.2-.06 3.59-.06s3 0 3.72.06a.37.37 0 0 0 .39-.35v-1.29c0-3.52-1.9-7.7-11-7.7-8.08 0-12 3.87-12 11.82.06 8.16 4.07 12.3 11.97 12.3zM58 59.89h7.83a.39.39 0 0 0 .38-.33c.1-.76.34-2 .74-4h6.49c.36 1.8.57 3.22.66 4a.38.38 0 0 0 .37.34h8.44a.4.4 0 0 0 .31-.16.38.38 0 0 0 .05-.34c-2-5.83-5.74-19.82-6.47-22.57a.4.4 0 0 0-.37-.28H64.37a.39.39 0 0 0-.37.29c-.72 3-4.06 15.66-6 21.69-.09-.34-.19-.73-.29-1.14-.21-.82-.45-1.74-.69-2.6-.65-2.63-1.65-3.81-4-4.37 3-.88 4.22-2.9 4.22-6.68 0-4.77-3-7.19-9.06-7.19H36a.39.39 0 0 0-.28.11.43.43 0 0 0-.11.28c.09 3.12.13 6.28.13 11.28 0 4.73-.06 7.83-.12 11.11v.18a.39.39 0 0 0 .11.27.38.38 0 0 0 .28.12h7.61a.39.39 0 0 0 .29-.13.38.38 0 0 0 .09-.29c-.15-1.49-.25-3.58-.32-6.76h2.72c1.52 0 1.88.33 2.61 4.16.49 2.24.73 3 2.2 3h6.72zm14.33-9.69h-4.19l1.17-5.06.19-.81c.28-1 .51-1.95.72-2.79.19.82.43 1.76.71 2.72.5 1.92 1 4.13 1.4 5.94zm-25.87-7.88c2.27 0 2.9.55 2.9 2.57 0 1.8-.75 2.57-2.51 2.57h-3.27v-5zM107 36.67a.39.39 0 0 0-.27-.11h-6.54a.39.39 0 0 0-.28.12.38.38 0 0 0-.1.29c.13 1.94.21 5.87.24 8.89 0 .72 0 1.51.07 2.36-.25-.6-.51-1.17-.77-1.67-.87-1.61-1.94-3.45-2.9-5.08-1.21-2.09-2.27-3.89-2.59-4.68a.38.38 0 0 0-.35-.23H85a.39.39 0 0 0-.27.11.43.43 0 0 0-.11.28c.06 3 .06 6.46.06 11.28s0 8.38-.06 11.29a.41.41 0 0 0 .11.28.39.39 0 0 0 .27.11h6.69a.42.42 0 0 0 .28-.12.38.38 0 0 0 .1-.29C92 58.47 92 56.2 92 53v-2.19c0-1.11-.09-2.15-.15-3.18.37.89.76 1.72 1.16 2.49 2.41 3.85 4.77 7.68 5.67 9.57a.4.4 0 0 0 .35.22h7.68a.36.36 0 0 0 .27-.12.39.39 0 0 0 .11-.27C107 56.6 107 53.26 107 48.2s0-9.2.1-11.2a.43.43 0 0 0-.1-.33zM110.36 59.79a.36.36 0 0 0 .27.12h10.51c8.6 0 11.65-3.21 11.65-12.28 0-8.17-3-11.07-11.5-11.07h-10.66a.39.39 0 0 0-.27.11.43.43 0 0 0-.11.28c.06 3 .09 6.61.09 11.31s0 7.94-.09 11.26a.39.39 0 0 0 .11.27zm10.39-17c2.69 0 3.87.48 3.87 5.1 0 4.87-1.26 5.4-3.93 5.4h-2.25v-5-5.42c.76-.05 1.56-.07 2.31-.07zM162.4 59.79a.39.39 0 0 0 .11-.28c-.13-3.38-.15-6.83-.15-11.31 0-5.2 0-8.46.12-11.25a.39.39 0 0 0-.11-.27.36.36 0 0 0-.27-.12h-8.65a.38.38 0 0 0-.36.26c-.66 2-1.89 5.55-3.19 9.28-.23.71-.48 1.56-.72 2.44-.27-1-.5-1.84-.7-2.49-1.43-3.79-2.59-7.33-3.22-9.23a.38.38 0 0 0-.36-.26h-9.43a.39.39 0 0 0-.27.11.43.43 0 0 0-.11.28c.07 3.06.09 6.53.09 11.25 0 5 0 8.2-.12 11.32a.39.39 0 0 0 .11.27.36.36 0 0 0 .27.12h6.3a.36.36 0 0 0 .27-.12.39.39 0 0 0 .11-.27c-.09-3.5-.15-6.25-.18-10 0-.8 0-1.59-.08-2.36.26.83.5 1.58.73 2.2l3.88 10.27a.39.39 0 0 0 .36.25H150a.39.39 0 0 0 .36-.25l3.8-10c.21-.63.45-1.39.69-2.2 0 .76-.05 1.52-.05 2.23 0 3.89-.09 6.47-.24 9.86a.39.39 0 0 0 .38.4h7.17a.36.36 0 0 0 .29-.13zM170.13 36.85c-.76 3.14-4.41 17-6.23 22.56a.35.35 0 0 0 .06.34.37.37 0 0 0 .3.16H172a.37.37 0 0 0 .38-.33c.1-.76.34-2 .75-4h6.48c.36 1.8.58 3.22.66 4a.38.38 0 0 0 .38.34h8.43a.38.38 0 0 0 .31-.16.38.38 0 0 0 0-.34c-2-5.83-5.73-19.82-6.47-22.57a.38.38 0 0 0-.36-.28H170.5a.38.38 0 0 0-.37.28zm8.33 13.35h-4.2c.41-1.73.82-3.49 1.19-5.1l.17-.77c.29-1 .52-1.95.72-2.79.2.82.43 1.76.72 2.72.5 1.92 1 4.13 1.4 5.94zM18.79 84.28l-.22-.07a3.82 3.82 0 0 0 .51-.18c2.08-.88 2.85-2.23 2.85-5s-.83-6.34-8.06-6.34H.38a.39.39 0 0 0-.28.12.39.39 0 0 0-.1.28c.15 3.06.15 6.5.15 11.27s0 8.12-.15 11.28a.38.38 0 0 0 .11.28.4.4 0 0 0 .27.12h13.79c5.56 0 8-2 8-6.41.03-2.97-.99-4.57-3.38-5.35zm-7.33-2.34H8.05v-3.91c1.25 0 2.4-.07 3.48-.07 2 0 2.36.59 2.36 1.75.02 1.6-.64 2.21-2.43 2.23zm.12 8.44H8.1v-3.87h3.47c2.18 0 2.57.65 2.57 1.94-.05 1.47-.61 1.93-2.56 1.93zM43.39 72.82a.36.36 0 0 0-.28-.12H25a.39.39 0 0 0-.27.11.43.43 0 0 0-.11.28c.09 2.92.09 6.42.09 11.28s0 8.25-.09 11.28a.39.39 0 0 0 .11.28.36.36 0 0 0 .27.12h18.11a.37.37 0 0 0 .28-.13.33.33 0 0 0 .1-.28c-.05-.74-.05-2-.05-2.84 0-1 0-2.36.05-3.07a.36.36 0 0 0-.1-.29.4.4 0 0 0-.28-.12c-3 0-7.18.06-10.31.06v-2.52c3.64 0 7.36 0 10 .09a.38.38 0 0 0 .38-.38v-4.93a.35.35 0 0 0-.11-.28.39.39 0 0 0-.28-.11c-2.84.09-6.62.09-10 .09v-2.4c2.9 0 6.66 0 10.31.06a.35.35 0 0 0 .28-.12.36.36 0 0 0 .1-.29c-.05-.65-.05-1.93-.05-2.86s0-2 .06-2.63a.39.39 0 0 0-.1-.28zM71.36 72.81a.39.39 0 0 0-.27-.11H53a.38.38 0 0 0-.38.39v6.72a.39.39 0 0 0 .11.28.36.36 0 0 0 .28.12h4.82c0 5.18 0 13.69-.12 15.52a.4.4 0 0 0 .11.3.41.41 0 0 0 .3.11c1.09-.14 2.73-.14 3.94-.14s2.9 0 3.94.09a.4.4 0 0 0 .3-.09.36.36 0 0 0 .11-.3c-.1-1.83-.12-10.34-.12-15.52 1.52 0 3.18 0 4.79.06a.36.36 0 0 0 .28-.12.39.39 0 0 0 .11-.28v-3.42-3.3a.38.38 0 0 0-.11-.31zM95.37 93.55c-.21-.82-.45-1.75-.69-2.61-.65-2.63-1.65-3.81-4-4.37 3-.88 4.21-2.9 4.21-6.69 0-4.76-3.05-7.18-9.05-7.18H73.56a.38.38 0 0 0-.38.39c.08 3.12.12 6.28.12 11.28 0 4.73-.06 7.83-.12 11.11v.18a.39.39 0 0 0 .11.27.36.36 0 0 0 .27.12h7.62a.37.37 0 0 0 .28-.13.4.4 0 0 0 .1-.29c-.15-1.49-.25-3.58-.32-6.76H84.02c1.52 0 1.88.33 2.61 4.16.49 2.23.74 3 2.21 3h6.71a.39.39 0 0 0 .37-.49c-.16-.48-.34-1.18-.55-1.99zm-11.3-15.09c2.28 0 2.9.55 2.9 2.57 0 1.8-.75 2.57-2.51 2.57h-3.27v-5c1.05-.12 2.31-.14 2.88-.14zM106.05 72.81a.39.39 0 0 0-.27-.11h-7.65a.39.39 0 0 0-.27.11.43.43 0 0 0-.11.28c.09 3.22.09 6.42.09 11.28s0 8-.09 11.29a.39.39 0 0 0 .11.27.36.36 0 0 0 .27.12h7.65a.36.36 0 0 0 .27-.12.35.35 0 0 0 .11-.27c-.06-3.28-.06-6.48-.06-11.32s0-8.07.06-11.25a.36.36 0 0 0-.11-.28zM121.35 72.7h-11.68a.39.39 0 0 0-.28.11.37.37 0 0 0-.1.28c.08 3 .12 6.23.12 11.28s0 8.17-.12 11.29a.34.34 0 0 0 .1.27.36.36 0 0 0 .28.12h7.65a.39.39 0 0 0 .38-.42c-.12-1.36-.18-3.06-.23-4.84h3.26c7 0 10.05-2.77 10.05-9.27-.01-6.17-2.78-8.82-9.43-8.82zm-4 12v-6h2.26c2.55 0 3.33.69 3.33 3s-.78 3-3.48 3h-2.09zM144.66 72.7H133a.39.39 0 0 0-.28.11.43.43 0 0 0-.11.28c.09 3 .12 6.23.12 11.28s0 8.17-.12 11.29a.39.39 0 0 0 .11.27.36.36 0 0 0 .28.12h7.64a.41.41 0 0 0 .29-.13.36.36 0 0 0 .09-.29c-.11-1.36-.17-3.06-.22-4.84h3.2c7 0 10.05-2.77 10.05-9.27.03-6.17-2.79-8.82-9.39-8.82zm-4 12v-6h2.27c2.55 0 3.33.69 3.33 3s-.78 3-3.48 3h-2.08zM164.24 72.81a.41.41 0 0 0-.28-.11h-7.65a.39.39 0 0 0-.27.11.43.43 0 0 0-.11.28c.09 3.22.09 6.42.09 11.28s0 8-.09 11.29a.39.39 0 0 0 .11.27.36.36 0 0 0 .27.12H164a.38.38 0 0 0 .28-.12.34.34 0 0 0 .1-.27c-.06-3.28-.06-6.48-.06-11.32s0-8.07.06-11.25a.35.35 0 0 0-.14-.28zM189.84 72.81a.41.41 0 0 0-.28-.11H183a.38.38 0 0 0-.38.4c.12 2 .21 5.87.24 8.89q0 1.08.06 2.37a22.5 22.5 0 0 0-.76-1.68c-.87-1.6-1.95-3.45-2.9-5.08-1.22-2.08-2.27-3.89-2.6-4.67a.38.38 0 0 0-.35-.23h-8.46a.39.39 0 0 0-.27.11.36.36 0 0 0-.11.28c.06 3 .06 6.46.06 11.28s0 8.38-.06 11.29a.39.39 0 0 0 .11.27.36.36 0 0 0 .27.12h6.68a.38.38 0 0 0 .38-.41c-.07-1-.08-3.31-.1-6.46v-2.23c0-1.11-.08-2.15-.14-3.18.37.89.75 1.71 1.16 2.49 2.41 3.85 4.76 7.68 5.67 9.57a.39.39 0 0 0 .34.22h7.68a.36.36 0 0 0 .27-.12.35.35 0 0 0 .11-.27c-.06-2.92-.06-6.26-.06-11.32s0-9.19.09-11.25a.37.37 0 0 0-.09-.28zM199.91 72.84a.35.35 0 0 0-.3-.14c-.9 0-2.52.06-3.57.06-1.24 0-2.4 0-3.17-.06a.37.37 0 0 0-.28.09.41.41 0 0 0-.13.27c-.12 2.36-.74 8.34-1.17 10.55a.41.41 0 0 0 .07.3.43.43 0 0 0 .28.15c1.18.1 3.21.36 4.69.54l.68.09h.05a.38.38 0 0 0 .37-.29c.2-.85.65-2.83 1.13-5 .53-2.37 1.11-4.92 1.43-6.29a.35.35 0 0 0-.08-.27z" fill="#fff"/></svg>