<?xml version="1.0" encoding="UTF-8"?><svg id="images" xmlns="http://www.w3.org/2000/svg" width="250" height="110" viewBox="0 0 250 110"><g><path d="M174.06,26.72c-3.21,.35-5.95,1.65-8.89,1.46l-.21-.43c.38-.3,.73-.71,1.16-.87,3.29-1.26,6.62-2.41,9.89-3.72,.98-.39,1.95-1.02,2.7-1.77,2.42-2.43,4.73-4.98,7.12-7.44,.52-.54,1.22-.91,2.01-1.23,.18,1.67-.82,2.83-1.59,4.07-.77,1.24-1.61,2.43-2.58,3.88,5.87-1.41,11.31-3.53,17.1-3.91l.24,.61c-.54,.34-1.04,.79-1.63,.99-5.17,1.79-10.33,3.6-15.55,5.25-2.12,.67-3.7,1.71-5.07,3.53-6.57,8.69-13.32,17.25-19.94,25.9-1.62,2.12-3,4.43-4.49,6.65l.2,.4c1.05-.17,2.15-.21,3.15-.54,6.96-2.29,13.93-4.54,20.82-7.01,5.98-2.14,11.85-4.58,17.79-6.83,1.23-.47,2.58-.61,3.84-1,.35-.11,.69-.51,.87-.86,2.24-4.26,5.37-7.77,9.19-10.66,.91-.69,1.99-1.17,3.02-1.68,.36-.18,.83-.14,1.38-.02-3.74,3.94-6.65,8.35-9.16,13.03l.27,.26c2.47-2.06,5.03-4.02,7.4-6.19,3.42-3.13,6.7-6.42,10.05-9.62,.5-.48,1.06-.91,1.65-1.27,.27-.17,.67-.12,1.01-.17,.03,.34,.18,.72,.08,1.01-.2,.61-.48,1.21-.82,1.76-7,11.2-13.76,22.58-22.29,32.73-5.54,6.59-11.98,12.17-19.98,15.66-2.02,.88-4.23,1.34-6.38,1.91-.57,.15-1.22,.02-1.84,.02l-.13-.39c.32-.26,.6-.63,.96-.76,9.56-3.51,16.74-10.1,23.12-17.75,4.79-5.75,9.07-11.85,12.91-18.27,.26-.43,.48-.88,.54-1.5-.87,.83-1.73,1.66-2.61,2.49-1.55,1.47-3.09,2.94-4.65,4.39-.44,.41-.91,.8-1.41,1.13-.89,.58-1.99,1.12-2.79,.24-.56-.61-.7-1.7-.8-2.6-.07-.64,.25-1.33,.4-2.01-4.4,2.21-8.72,4.44-13.08,6.57-9.27,4.51-18.72,8.6-28.6,11.55-2.07,.62-4.4,.76-6.56,.57-2.57-.23-3.63-1.98-2.69-4.36,.95-2.43,2.12-4.88,3.71-6.93,6.44-8.26,13.07-16.37,19.64-24.54,.43-.53,.88-1.03,1.53-1.79Z" fill="#fff"/><path d="M107.97,41.9c-6.6,.1-10.23,4.78-14,9.16-1.25,1.45-2.13,3.21-3.18,4.82l.3,.3c.38-.27,.77-.52,1.13-.82,4.35-3.62,8.68-7.26,13.04-10.86,.73-.6,1.57-1.76,2.6-.69,.92,.96-.3,1.65-.79,2.33-1.46,2.05-3,4.04-4.35,6.21,2.25-1.79,5.12-2.64,6.78-5.27,3.79-5.99,7.77-11.87,11.67-17.79,.22-.34,.42-.69,.76-1.24-4.41,.43-8.53,1.84-12.79,1.51l-.22-.54c.52-.32,1-.79,1.57-.95,3.52-1,7.03-2.08,10.6-2.83,2.32-.49,3.93-1.45,5.3-3.47,2.55-3.75,5.42-7.28,8.24-10.84,.45-.57,1.3-.84,1.97-1.24-.15,.72-.15,1.53-.49,2.15-1.71,3.18-3.51,6.31-5.29,9.46-.29,.52-.59,1.03-1.05,1.85,11.79-2.06,23.19-4.57,34.74-6.2l.18,.55c-.53,.22-1.04,.52-1.59,.66-7.33,1.85-14.65,3.72-21.99,5.51-4.19,1.02-8.41,1.91-12.61,2.92-.49,.12-1.06,.45-1.33,.86-5.25,7.97-10.47,15.97-15.69,23.96-.07,.11-.11,.25-.16,.37l.25,.31c2-1.64,4.28-3.03,5.92-4.96,3.07-3.62,6.32-6.89,10.69-8.91,.08-.04,.16-.09,.25-.13,2.06-.89,3.89-.8,4.76,.41,1.15,1.6,.32,3.11-.54,4.5-2.79,4.5-7.01,7.21-11.84,9.03-1.58,.59-2.25,1.6-2.67,3.34,.79-.2,1.49-.22,2.04-.53,2.42-1.36,4.87-2.69,7.17-4.24,2.34-1.58,4.53-3.39,6.78-5.09,.54-.41,1.09-.79,1.63-1.19l.31,.24c-.2,.41-.33,.89-.62,1.22-4.12,4.7-8.67,8.92-14.26,11.84-1.23,.64-2.72,1.02-4.11,1.05-2.13,.05-3.2-1.31-3.06-3.43,.06-.9,.22-1.8,.39-3.13-2.24,2.1-4.18,3.92-6.14,5.74-.54,.5-1.03,1.19-1.67,1.43-.65,.24-1.63,.28-2.17-.05-.46-.28-.82-1.32-.67-1.87,.36-1.36,1.05-2.63,1.78-4.36-.66,.5-1.05,.75-1.38,1.06-2.05,1.88-4.09,3.76-6.12,5.67-.87,.81-1.77,.93-2.77,.28-1-.65-.82-1.6-.55-2.5,.26-.87,.65-1.71,.77-2.75-.41,.39-.8,.78-1.22,1.16-1.59,1.42-3.16,2.86-4.79,4.24-.52,.44-1.16,.8-1.8,1-1.44,.45-2.66-.48-2.56-1.99,.06-.95,.24-1.97,.67-2.81,3.47-6.85,8.26-12.44,15.65-15.24,1.53-.58,3.35-.52,5.04-.55,.58,0,1.17,.61,1.76,.94l-.25,.39Zm22.17-.88c-3.71,2.32-6.21,5.56-9.12,8.87,3.65-.8,8.52-5.59,9.12-8.87Z" fill="#fff"/><path d="M9.6,81.12c.28-.64,.47-1.35,.85-1.92,4.25-6.42,8.47-12.84,12.8-19.2,2.35-3.45,4.88-6.77,7.33-10.15,.21-.29,.38-.61,.7-1.13-5.26,1.03-10.24,2.53-15.43,2.23l-.18-.53c.69-.33,1.36-.74,2.09-.98,5.21-1.67,10.45-3.25,15.64-5,1.06-.36,2.08-1.18,2.82-2.05,3.95-4.61,7.77-9.33,11.71-13.96,.92-1.08,2.09-1.97,3.2-2.88,.3-.25,.81-.25,1.22-.37,.04,.46,.27,1.03,.09,1.38-1.09,2.09-2.18,4.19-3.46,6.17-1.74,2.67-3.66,5.23-5.54,7.89,.15,.06,.28,.17,.36,.14,6.51-2.62,13.02-5.25,18.4-9.93,1.52-1.33,2.97-2.83,4.13-4.47,1.71-2.4,1.05-4.51-1.66-5.75-3.03-1.39-6.31-1.57-9.56-1.41-12.99,.66-25.41,3.8-37.24,9.11-5.32,2.39-10.39,5.34-15.57,8.03-.65,.34-1.3,.68-1.95,1.02L0,37.03c.36-.41,.66-.89,1.07-1.23,5.64-4.68,11.89-8.41,18.49-11.55,8.85-4.21,18.01-7.45,27.78-8.69,5.66-.72,11.3-.79,16.83,.96,.62,.2,1.22,.44,1.8,.73,4.23,2.15,5.28,5.31,3.16,9.54-1.31,2.62-3.26,4.72-5.49,6.58-6.89,5.76-14.74,9.75-23.21,12.64-.93,.32-1.89,.99-2.51,1.75-8.55,10.5-17.04,21.05-25.57,31.57-.65,.8-1.49,1.44-2.25,2.15l-.51-.38Z" fill="#fff"/><path d="M59.6,56.77c4.51-2.59,7.9-6.02,10.94-9.85,.89-1.12,1.96-2.1,3.04-3.05,.34-.3,.98-.27,1.48-.39-.02,.5,.13,1.11-.09,1.5-1.77,3.1-3.61,6.15-5.42,9.22-.18,.31-.35,.63-.39,1.14,.32-.19,.65-.37,.95-.58,1.78-1.25,3.57-2.5,5.32-3.79,.42-.31,.78-.77,1.04-1.24,.94-1.7,1.78-3.46,2.74-5.15,.39-.7,.99-1.28,1.5-1.91l.48,.1c.04,.62,.26,1.29,.1,1.86-.71,2.49-1.52,4.95-2.3,7.42-.18,.56-.37,1.12-.45,1.76,5.34-5.3,10.47-10.81,16.33-15.53l.56,.43c-.26,.52-.45,1.1-.81,1.54-4.93,6.02-9.88,12.03-14.85,18.02-.95,1.14-2.02,2.18-3.02,3.27-.87,.95-1.9,1.12-3.02,.55-1.1-.56-1.28-1.57-1-2.62,.36-1.38,.86-2.73,1.3-4.09,.15-.46,.33-.91,.5-1.37l-.3-.22c-1.97,1.81-3.97,3.59-5.92,5.42-1.01,.95-1.92,2.02-2.93,2.97-.6,.56-1.27,1.17-2.02,1.42-.61,.2-1.55,.12-2.04-.24-.41-.3-.62-1.24-.51-1.81,.22-1.15,.73-2.26,1.25-3.76-.63,.48-1.04,.73-1.36,1.05-1.68,1.67-3.33,3.36-5,5.03-.39,.39-.78,.82-1.26,1.08-1.53,.86-3.17-.15-3-1.88,.07-.75,.41-1.52,.78-2.19,1.45-2.58,2.98-5.13,4.45-7.7,.25-.44,.37-.94,.42-1.51-4.33,3.19-8.04,7.14-13,9.33-.07,.03-.22-.13-.82-.5,.68-.48,1.28-.82,1.77-1.27,3.07-2.82,6.13-5.66,9.17-8.51,1.24-1.16,1.93-2.48,1.72-4.31-.09-.82,.34-1.81,.81-2.54,.58-.89,1.62-1.14,2.6-.68,1.04,.49,1.63,1.58,1.13,2.55-1.09,2.13-.7,3.86,.52,5.79,.45,.71,.13,2.03-.11,3.01-.18,.76-.77,1.42-1.27,2.28Z" fill="#fff"/><path d="M232.76,44.89c3.2,.88,5.7,.11,7.45-2.61,1.28-2,.93-4.23,1.24-6.37l-.35-.19c-2.42,1.98-4.79,4.04-7.28,5.92-2.92,2.2-5.86,4.4-8.97,6.28-1.19,.72-2.93,.89-4.38,.78-1.75-.13-2.6-1.35-2.41-3.12,.16-1.45,.4-3,1.07-4.27,2.96-5.65,7.18-10.11,13.01-12.88,.89-.43,1.94-.7,2.93-.72,1.98-.05,3.19,1.48,2.53,3.33-.52,1.45-1.37,2.84-2.32,4.06-2.71,3.47-6.44,5.53-10.44,7.15-1.82,.74-2.09,1.04-2.62,3.36,1.03-.34,1.99-.5,2.8-.94,7.37-3.96,13.89-8.91,18.33-16.19,.87-1.43,1.89-2.64,3.57-3.11,1.06-.3,1.95,0,2.6,.85,.68,.89,.68,1.98-.1,2.68-2.87,2.59-3.16,6.17-3.87,9.59-.75,3.59-2.32,6.54-5.96,7.96-1.96,.76-3.9,.79-5.79-.17-.37-.19-.7-.48-1.04-.73l.03-.65Zm-7.39-4.91c4.07-1.7,7.15-4.4,8.76-8.57-3.69,2.06-6.2,5.35-8.76,8.57Z" fill="#fff"/><path d="M227.39,.6c-.7,.35-1.36,.8-2.1,1.02-6.27,1.86-12.52,3.77-18.83,5.48-7.2,1.96-14.43,3.83-21.69,5.55-3.15,.75-6.41,1.04-9.62,1.51-.73,.11-1.49,.15-2.22,.09-.45-.04-.87-.33-1.31-.5,.32-.36,.56-.87,.96-1.06,1.12-.54,2.28-1.04,3.48-1.4,12.71-3.85,25.72-6.48,38.7-9.18,3.18-.66,6.37-1.25,9.57-1.83,.94-.17,1.9-.19,2.86-.28l.21,.6Z" fill="#fff"/><path d="M77.13,38.56c-.23-.15-.98-.36-1.19-.82-.24-.53-.21-1.39,.07-1.91,.77-1.42,2.12-2.03,3.72-1.98,1.49,.05,2.12,1.18,1.42,2.52-.75,1.44-1.99,2.14-4.02,2.2Z" fill="#fff"/></g><g><path d="M30.96,89.82c-.02,.13-.09,.19-.2,.19-.18,0-.28-.31-.31-.92-.07-1.21-.33-2.04-.76-2.48-.43-.44-1.21-.66-2.32-.66h-1.12l-2.56,14.53c-.05,.4,.01,.65,.2,.76,.19,.11,.74,.21,1.64,.29,.17,.02,.25,.09,.23,.22-.03,.16-.17,.24-.42,.24-.05,0-.17,0-.35-.02-.24-.02-.44-.02-.59-.02l-2.45-.07-4.08,.12c-.22,0-.32-.06-.3-.19,.02-.1,.06-.15,.13-.17,.07-.02,.33-.03,.8-.05,.88-.03,1.39-.24,1.52-.62,.07-.21,.37-1.83,.91-4.87l1.79-10.14h-.62c-1.27,0-2.24,.23-2.91,.7-.66,.47-1.19,1.29-1.57,2.48-.23,.7-.44,1.05-.61,1.05-.14,0-.2-.1-.16-.29,.02-.13,.13-.57,.33-1.31,.4-1.56,.67-2.63,.8-3.2h2.1s.6,.01,1.65,.04c1.06,.02,2.4,.04,4.05,.04,.91,0,1.72,0,2.44-.02,.72-.01,1.37-.02,1.96-.02,.53,0,.93-.01,1.2-.04-.13,1.03-.25,2.35-.34,3.95-.02,.27-.03,.44-.04,.5Z" fill="#fff"/><path d="M41.44,101.84c-.02,.1-.1,.14-.24,.14,.02,0-.14,0-.48,0h-1.43c-1.37,0-2.21-.02-2.52-.07h-.38l-.59,.07c-.21,.02-.3-.04-.28-.18,.02-.1,.07-.15,.15-.15h.55c.35,.02,.56-.08,.65-.29,.05-.13,.21-.92,.47-2.39l.63-3.56c.26-1.48,.35-2.36,.25-2.63-.13-.41-.49-.62-1.08-.62-.62,0-1.14,.28-1.57,.84-.21,.27-.39,.86-.55,1.75l-.66,3.77c-.21,1.17-.32,1.81-.34,1.92l-.05,.29-.1,.58c-.06,.24,.25,.36,.92,.36,.14,0,.2,.05,.19,.14-.02,.11-.13,.17-.34,.17h-.19c-.12-.05-.31-.07-.56-.07h-1.05l-1.34,.02-1.42,.05h-.72c-.24,0-.35-.05-.33-.14,0-.05,.03-.08,.06-.1,.03-.02,.11-.02,.22-.02,.6,0,.97-.02,1.09-.07,.12-.05,.22-.23,.31-.55,.05-.19,.23-1.15,.53-2.87l1.55-8.77c.3-1.72,.44-2.71,.42-2.98-.02-.26-.34-.39-.95-.39-.46,0-.69-.05-.67-.14,.02-.1,.3-.16,.84-.19,1.23-.08,2.42-.29,3.56-.62,.22-.06,.37-.1,.47-.1,.13,0,.11,.45-.05,1.34l-.08,.48c-.06,.32-.13,.74-.22,1.27-.09,.51-.15,.86-.19,1.05l-.67,3.8c.58-.65,1.11-1.1,1.59-1.34,.48-.24,1.09-.36,1.84-.36,1.58,0,2.45,.64,2.63,1.91,.07,.41,.02,1.08-.14,2.01l-.98,5.57c-.07,.41-.05,.67,.07,.76,.12,.1,.45,.14,.99,.14,.16,0,.23,.06,.21,.17Z" fill="#fff"/><path d="M52.22,99c-.06,.35-.35,.81-.87,1.39-1.11,1.23-2.38,1.84-3.81,1.84-1.61,0-2.84-.51-3.7-1.53-.86-1.02-1.14-2.33-.86-3.92,.28-1.56,1.01-2.86,2.19-3.91,1.19-1.04,2.53-1.57,4.03-1.57,1.02,0,1.85,.22,2.49,.67,.71,.49,1.1,1.2,1.18,2.13,.01,.29,0,.63-.04,1.03-.37,.04-1.85,.07-4.44,.1-.4,0-.9,.02-1.51,.05-.15,.57-.26,1.06-.33,1.45-.33,1.86-.17,3.17,.47,3.95,.38,.46,.91,.69,1.58,.69,.56,0,1.13-.19,1.71-.57s1.07-.88,1.44-1.48c.18-.3,.31-.45,.39-.45,.06,0,.09,.05,.07,.14Zm-2.27-4.18c.23-1.22,.29-2.06,.18-2.54-.11-.47-.4-.71-.88-.71-.97,0-1.72,1.08-2.25,3.25h2.94Z" fill="#fff"/><path d="M73,101.91c-.02,.1-.1,.14-.24,.14-.11,0-.21,0-.31-.02-.55-.07-2.1-.1-4.67-.1h-1.84c-.5,.02-.73-.05-.71-.2,.02-.13,.24-.21,.64-.23,.35-.02,.67-.08,.96-.2,.28-.12,.44-.26,.47-.42,.03-.1,.1-.36,.19-.79l.21-1.19,.97-5.53h-5.69l-1.3,7.38c-.06,.41,.22,.66,.83,.74,.48,.06,.76,.11,.84,.13,.08,.02,.11,.08,.09,.16-.02,.1-.11,.14-.26,.14-.21,0-.75-.02-1.64-.05-.89-.03-1.26-.05-1.11-.05-.1,0-.59,.02-1.48,.05-.89,.03-1.73,.05-2.53,.05h-.24c-.29,0-.42-.07-.39-.22,.02-.13,.15-.19,.37-.19,.75,0,1.28-.1,1.6-.29,.14-.08,.28-.5,.41-1.26l2.32-13.17c.09-.51,0-.82-.25-.92-.26-.1-.7-.16-1.32-.16-.21,0-.31-.06-.28-.19,.01-.08,.11-.13,.29-.14-.06,0,.54,0,1.8,0h5.27c.22,0,.32,.08,.29,.24-.02,.11-.07,.18-.16,.2s-.36,.04-.82,.06c-.46,.02-.75,.12-.89,.3-.14,.18-.25,.51-.34,.99l-.99,5.64h.57c1.56,.06,3.27,.05,5.13-.05l.94-5.35c.19-1.09-.1-1.63-.89-1.63-.52,0-.77-.07-.75-.21,.02-.13,.14-.19,.34-.19h7.25c.16,0,.23,.05,.21,.14-.02,.11-.33,.19-.93,.24-.6,.05-.99,.17-1.17,.37-.18,.2-.34,.7-.48,1.49l-2.07,11.74c-.18,1.03-.16,1.66,.06,1.87s.65,.34,1.29,.37c.3,.02,.43,.11,.4,.29Z" fill="#fff"/><path d="M84.31,100.65c-.02,.13-.18,.31-.48,.53-.8,.63-1.7,.95-2.7,.95-.65,0-1.1-.14-1.35-.41-.25-.27-.35-.77-.33-1.48-.95,1.31-2.04,1.96-3.29,1.96-.69,0-1.2-.22-1.55-.65-.35-.43-.46-.99-.34-1.67,.35-2.01,2.28-3.19,5.79-3.56l.09-.5c.28-1.59,.4-2.57,.35-2.94v-.12c-.09-.8-.58-1.2-1.49-1.2-.53,0-.97,.15-1.35,.45-.37,.3-.58,.6-.63,.88-.03,.16,.15,.26,.52,.29,.56,.05,.79,.4,.67,1.05-.06,.35-.23,.64-.5,.87-.27,.23-.59,.35-.96,.35-.46,0-.82-.14-1.06-.42-.25-.28-.33-.63-.25-1.06,.12-.68,.57-1.31,1.36-1.86,.78-.56,1.73-.84,2.85-.84,1.66,0,2.76,.29,3.31,.88,.44,.49,.55,1.35,.33,2.58l-.72,4.09c-.14,.8-.21,1.26-.22,1.39-.04,.67,.13,1,.52,1,.27,0,.64-.19,1.11-.57,.09-.08,.16-.12,.21-.12,.08,0,.11,.04,.1,.12Zm-4.49-2.85l.21-1.17c-1.6,.3-2.53,1.18-2.78,2.63-.2,1.12,.09,1.67,.85,1.67,.43,0,.77-.24,1.04-.72,.26-.48,.49-1.28,.69-2.41Z" fill="#fff"/><path d="M90.45,101.76c-.02,.12-.33,.18-.94,.18-.14,0-.58-.02-1.32-.05-.38-.02-.75-.02-1.11-.02s-1,.02-1.96,.05l-.72,.02c-.35,.02-.52-.04-.49-.17,.02-.13,.21-.18,.58-.17,.56,.02,.89-.04,1-.17,.11-.13,.24-.6,.38-1.43l2.22-12.58c.1-.54,.1-.86,0-.97-.09-.1-.42-.16-.97-.16-.4,0-.59-.06-.57-.18,.02-.14,.24-.21,.66-.23,1.79-.06,3.29-.33,4.5-.81-.08,.48-.58,3.27-1.48,8.39l-1.05,5.95c-.19,1.08-.27,1.72-.25,1.9,.02,.18,.2,.27,.54,.25h.72c.21,0,.3,.06,.28,.18Z" fill="#fff"/><path d="M97.19,101.76c-.02,.12-.33,.18-.94,.18-.14,0-.58-.02-1.32-.05-.38-.02-.75-.02-1.11-.02s-1,.02-1.96,.05l-.72,.02c-.35,.02-.52-.04-.49-.17,.02-.13,.21-.18,.58-.17,.56,.02,.89-.04,1-.17,.11-.13,.24-.6,.38-1.43l2.22-12.58c.1-.54,.1-.86,0-.97-.09-.1-.42-.16-.97-.16-.4,0-.6-.06-.57-.18,.02-.14,.24-.21,.66-.23,1.79-.06,3.29-.33,4.5-.81-.08,.48-.58,3.27-1.48,8.39l-1.05,5.95c-.19,1.08-.27,1.72-.25,1.9,.02,.18,.2,.27,.54,.25h.72c.21,0,.3,.06,.28,.18Z" fill="#fff"/><path d="M121.8,92.03c-.02,.09-.53,.16-1.54,.2-.56,.03-.92,.1-1.07,.19-.15,.1-.31,.35-.46,.77-.8,2.18-1.84,3.87-3.12,5.07l.12,.26,.36,.82,.39,.79c.26,.53,.55,.88,.89,1.05,.34,.17,.98,.28,1.93,.32,.36,.01,.53,.1,.51,.25-.02,.11-.19,.16-.51,.16h-1.43c-.96,0-1.35,0-1.17,0h-3.23c-.16-.45-.32-.87-.47-1.24-1.43,1.05-3.13,1.58-5.11,1.58-1.75,0-3.1-.43-4.04-1.3-.94-.87-1.28-2-1.04-3.41,.21-1.16,.72-2.14,1.54-2.92,.82-.78,2.07-1.48,3.74-2.1-.49-.59-.82-1.04-1.01-1.34-.42-.68-.55-1.51-.38-2.46,.19-1.07,.74-1.94,1.65-2.61,.91-.67,2.01-1,3.28-1s2.2,.29,2.87,.88c.67,.58,.92,1.34,.76,2.27-.28,1.6-1.56,2.7-3.83,3.31,.57,.72,1.28,1.76,2.12,3.13,.84,1.37,1.43,2.43,1.76,3.18,1.4-1.35,2.28-3.02,2.63-5.01,.07-.4-.1-.6-.52-.6-1.26,.02-1.88-.06-1.85-.24,.02-.13,.3-.19,.82-.19h4.16c.85-.02,1.26,.05,1.23,.2Zm-9.05,8.23c-1.91-3.36-3.39-5.81-4.44-7.34-.9,.59-1.5,1.73-1.8,3.42-.24,1.37-.03,2.53,.63,3.48,.66,.95,1.6,1.42,2.81,1.42,1.05,0,1.99-.33,2.8-.98Zm-.1-11.76c.35-1.99,.03-2.99-.95-2.99s-1.53,.67-1.76,2.01c-.11,.62-.05,1.27,.18,1.96,.23,.69,.58,1.25,1.04,1.7,.77-.48,1.27-1.37,1.5-2.68Z" fill="#fff"/><path d="M141.04,93.67c-.42,2.39-1.52,4.41-3.3,6.06-1.78,1.65-3.75,2.47-5.92,2.47s-3.79-.84-5.01-2.51-1.62-3.69-1.2-6.05c.43-2.42,1.54-4.45,3.33-6.07,1.79-1.63,3.8-2.44,6.03-2.44s3.81,.82,4.97,2.45c1.16,1.63,1.53,3.66,1.1,6.08Zm-4.27,.37c.56-3.17,.6-5.5,.11-7.02-.32-.99-1.01-1.48-2.08-1.48s-2.07,.69-2.96,2.08c-.89,1.38-1.54,3.24-1.95,5.56-.59,3.37-.47,5.89,.39,7.57,.35,.7,.99,1.05,1.89,1.05,1.05,0,1.88-.5,2.49-1.5,.94-1.56,1.65-3.64,2.11-6.25Z" fill="#fff"/><path d="M151.66,100.65c-.02,.13-.18,.31-.48,.53-.8,.63-1.7,.95-2.7,.95-.65,0-1.1-.14-1.35-.41-.25-.27-.35-.77-.33-1.48-.95,1.31-2.04,1.96-3.29,1.96-.69,0-1.2-.22-1.55-.65-.35-.43-.46-.99-.34-1.67,.35-2.01,2.28-3.19,5.79-3.56l.09-.5c.28-1.59,.4-2.57,.35-2.94v-.12c-.09-.8-.58-1.2-1.49-1.2-.53,0-.97,.15-1.35,.45-.37,.3-.58,.6-.63,.88-.03,.16,.15,.26,.52,.29,.56,.05,.79,.4,.67,1.05-.06,.35-.23,.64-.5,.87-.27,.23-.59,.35-.96,.35-.46,0-.82-.14-1.06-.42-.25-.28-.33-.63-.25-1.06,.12-.68,.57-1.31,1.36-1.86,.78-.56,1.73-.84,2.85-.84,1.66,0,2.76,.29,3.31,.88,.44,.49,.55,1.35,.33,2.58l-.72,4.09c-.14,.8-.21,1.26-.22,1.39-.04,.67,.13,1,.52,1,.27,0,.64-.19,1.11-.57,.09-.08,.16-.12,.21-.12,.08,0,.11,.04,.1,.12Zm-4.49-2.85l.21-1.17c-1.6,.3-2.53,1.18-2.78,2.63-.2,1.12,.09,1.67,.85,1.67,.43,0,.77-.24,1.04-.72,.26-.48,.49-1.28,.69-2.41Z" fill="#fff"/><path d="M159.52,100.38c-.03,.18-.22,.41-.58,.69-.92,.75-2.07,1.12-3.45,1.12-1.27,0-2.05-.31-2.34-.93-.12-.24-.17-.46-.16-.67,.01-.21,.1-.74,.25-1.6l.2-1.15c.09-.3,.16-.62,.22-.96l.04-.5,.38-2.15,.3-1.72c.05-.29,.04-.45-.03-.5-.07-.05-.31-.07-.7-.07-.48,0-.71-.06-.68-.19,.02-.1,.12-.16,.3-.19,1.51-.05,2.94-.86,4.3-2.44,.18-.22,.31-.33,.39-.33,.1,0,.12,.11,.08,.33-.26,1.37-.33,2.12-.23,2.25,.1,.13,.48,.19,1.14,.19s1.14-.03,1.43-.1c.04-.02,.07-.02,.1-.02,.06,0,.09,.05,.07,.15-.04,.23-.16,.35-.37,.35-.65,.02-1.37,.02-2.16,.02h-.33l-.09,.5c-.75,4.25-1.16,6.74-1.22,7.47-.02,.92,.36,1.38,1.12,1.38,.34,0,.82-.24,1.44-.72,.3-.22,.48-.33,.54-.33,.05,0,.07,.04,.05,.12Z" fill="#fff"/><path d="M169.25,99c-.06,.35-.35,.81-.87,1.39-1.11,1.23-2.38,1.84-3.81,1.84-1.61,0-2.84-.51-3.7-1.53-.86-1.02-1.14-2.33-.86-3.92,.28-1.56,1.01-2.86,2.19-3.91,1.19-1.04,2.53-1.57,4.03-1.57,1.02,0,1.85,.22,2.49,.67,.71,.49,1.1,1.2,1.18,2.13,.01,.29,0,.63-.04,1.03-.37,.04-1.85,.07-4.44,.1-.4,0-.9,.02-1.51,.05-.15,.57-.26,1.06-.33,1.45-.33,1.86-.17,3.17,.47,3.95,.38,.46,.91,.69,1.58,.69,.56,0,1.13-.19,1.71-.57s1.07-.88,1.44-1.48c.18-.3,.31-.45,.39-.45,.06,0,.09,.05,.07,.14Zm-2.27-4.18c.23-1.22,.29-2.06,.18-2.54-.11-.47-.4-.71-.88-.71-.97,0-1.72,1.08-2.25,3.25h2.94Z" fill="#fff"/><path d="M177.78,98.61c-.19,1.07-.67,1.93-1.43,2.59-.77,.66-1.67,.99-2.7,.99-.51,0-1.09-.13-1.74-.38-.54-.21-.89-.31-1.06-.31-.3,0-.52,.12-.66,.35-.14,.23-.23,.35-.28,.35-.1,0-.13-.06-.11-.17,.02-.1,.06-.25,.12-.46,.09-.3,.2-.83,.34-1.59,0-.03,.02-.11,.04-.24s.05-.3,.09-.53l.07-.41c.03-.18,.09-.26,.17-.26,.09,0,.15,.12,.15,.36,0,.84,.27,1.55,.84,2.12,.57,.57,1.26,.85,2.09,.85,.52,0,.98-.16,1.36-.49s.62-.75,.71-1.28c.07-.41-.02-.76-.27-1.05-.19-.21-.74-.47-1.65-.79-1.13-.4-1.9-.88-2.34-1.45-.43-.57-.57-1.29-.42-2.16,.17-.94,.62-1.74,1.38-2.39,.75-.65,1.59-.98,2.52-.98,.35,0,.94,.11,1.76,.33,.12,.03,.21,.05,.28,.05,.35,0,.65-.22,.9-.65,.05-.08,.09-.12,.14-.12,.11,0,.15,.1,.12,.29l-.1,.45c-.03,.06-.05,.18-.08,.33-.12,.65-.19,1.32-.23,2.01l-.02,.12c-.02,.13-.08,.19-.18,.19-.08,0-.13-.07-.15-.22-.18-1.63-.97-2.44-2.39-2.44-.53,0-.99,.14-1.38,.43-.39,.29-.63,.65-.71,1.1-.07,.41,.01,.74,.26,.98,.24,.24,.75,.51,1.53,.81,1.36,.51,2.25,1.02,2.67,1.53,.42,.51,.55,1.22,.39,2.13Z" fill="#fff"/><path d="M193.23,97.2c-.26,1.45-.98,2.65-2.18,3.6-1.19,.95-2.59,1.42-4.18,1.42-.97,0-2.25-.33-3.84-.98-.12-.05-.23-.07-.32-.07-.27,0-.53,.29-.77,.86-.08,.18-.16,.26-.24,.26-.13,0-.17-.11-.13-.33,.04-.21,.14-.57,.31-1.1,.14-.43,.26-.93,.36-1.51,.08-.46,.14-.83,.17-1.1,.06-.54,.1-.86,.12-.96,.04-.25,.15-.38,.31-.38s.24,.34,.25,1.03c.02,1.18,.35,2.1,1.02,2.75,.72,.7,1.57,1.05,2.54,1.05,.86,0,1.63-.27,2.32-.81,.69-.54,1.1-1.2,1.23-1.98,.12-.67,.02-1.2-.29-1.6-.24-.29-1.06-.85-2.47-1.7-1.57-.92-2.59-1.85-3.05-2.77-.42-.84-.53-1.85-.33-3.01,.24-1.37,.93-2.51,2.06-3.41,1.13-.9,2.44-1.35,3.92-1.35,.8,0,1.62,.19,2.46,.57,.28,.13,.48,.19,.61,.19,.24,0,.43-.21,.59-.62,.06-.14,.14-.22,.25-.22,.16,0,.22,.1,.18,.31-.01,.08-.07,.3-.17,.67-.1,.37-.17,.67-.21,.91-.15,.83-.24,1.53-.27,2.1,0,.05,0,.11-.01,.19-.02,.14-.1,.22-.23,.22-.14,0-.24-.25-.3-.76-.05-.51-.22-1.02-.48-1.52-.27-.5-.57-.86-.9-1.09-.43-.29-.96-.43-1.6-.43-.89,0-1.64,.22-2.24,.65-.6,.43-.97,1.02-1.1,1.77-.12,.65,.03,1.23,.44,1.73,.41,.5,1.24,1.14,2.51,1.92,1.55,.96,2.56,1.72,3.01,2.29,.66,.84,.88,1.91,.65,3.2Z" fill="#fff"/><path d="M201.51,100.38c-.03,.18-.22,.41-.58,.69-.92,.75-2.07,1.12-3.45,1.12-1.27,0-2.05-.31-2.34-.93-.12-.24-.17-.46-.16-.67,.01-.21,.1-.74,.25-1.6l.2-1.15c.09-.3,.16-.62,.22-.96l.04-.5,.38-2.15,.3-1.72c.05-.29,.04-.45-.03-.5-.07-.05-.31-.07-.7-.07-.48,0-.71-.06-.68-.19,.02-.1,.12-.16,.3-.19,1.51-.05,2.94-.86,4.3-2.44,.18-.22,.31-.33,.39-.33,.1,0,.12,.11,.08,.33-.26,1.37-.33,2.12-.23,2.25,.1,.13,.48,.19,1.14,.19s1.14-.03,1.43-.1c.04-.02,.07-.02,.1-.02,.06,0,.09,.05,.07,.15-.04,.23-.16,.35-.37,.35-.65,.02-1.37,.02-2.16,.02h-.33l-.09,.5c-.75,4.25-1.16,6.74-1.22,7.47-.02,.92,.36,1.38,1.12,1.38,.34,0,.82-.24,1.44-.72,.3-.22,.48-.33,.54-.33,.05,0,.07,.04,.05,.12Z" fill="#fff"/><path d="M212.99,96.84c-.3,1.71-1.21,3.08-2.74,4.13-1.2,.83-2.43,1.24-3.68,1.24-1.5,0-2.7-.54-3.6-1.61-.9-1.08-1.22-2.35-.96-3.81,.27-1.53,1.04-2.83,2.33-3.91,1.28-1.08,2.69-1.61,4.24-1.61s2.66,.55,3.52,1.64c.87,1.09,1.17,2.4,.9,3.93Zm-3.61,.02c.35-1.98,.45-3.33,.31-4.06-.16-.81-.57-1.22-1.23-1.22-.62,0-1.18,.43-1.67,1.28s-.88,2.03-1.14,3.52c-.37,2.09-.42,3.57-.17,4.45,.21,.7,.61,1.05,1.22,1.05,.74,0,1.31-.45,1.71-1.34,.37-.84,.7-2.07,.98-3.68Z" fill="#fff"/><path d="M223.64,93.07c-.08,.46-.28,.84-.61,1.14-.32,.3-.7,.44-1.13,.44-.86,0-1.22-.4-1.08-1.2,.05-.27,.2-.54,.45-.81,.06-.06,.09-.12,.1-.17,.03-.14-.06-.22-.27-.22-.53,0-1.02,.42-1.45,1.26-.24,.48-.53,1.65-.85,3.5l-.31,1.74-.37,2.1c-.08,.43,.1,.66,.52,.69,.25,.02,.55,.02,.9,.02,.17,.02,.25,.07,.23,.17-.02,.13-.11,.19-.25,.19h-2.56c.06,0-.29,0-1.08,0h-2.63c-.18,0-.25-.05-.24-.16,.02-.1,.14-.16,.36-.16,.66-.02,1.06-.08,1.22-.2,.16-.12,.29-.47,.39-1.06l1.11-6.44c.1-.54,.09-.91-.03-1.12-.11-.21-.43-.33-.95-.38-.41-.03-.64-.05-.69-.07-.05-.01-.07-.07-.06-.16,.02-.09,.09-.13,.21-.13h.88c1.23,0,2.59-.25,4.1-.77,.02,.32,0,.69-.07,1.1l-.18,1c.44-.77,.87-1.32,1.28-1.63,.41-.32,.91-.47,1.48-.47,.54,0,.95,.17,1.24,.5,.28,.33,.38,.76,.29,1.27Z" fill="#fff"/><path d="M234.68,91.73c-.02,.11-.06,.18-.13,.2-.07,.02-.29,.04-.68,.04-.43,0-.69,.02-.78,.07l-.19,.26-.43,.84c-.19,.38-.62,1.16-1.27,2.32-.05,.1-.57,1.08-1.57,2.94-2.36,4.41-3.85,7.08-4.47,8.01-.78,1.15-1.61,1.72-2.5,1.72-.51,0-.89-.15-1.15-.45-.26-.3-.34-.7-.25-1.19,.14-.78,.64-1.17,1.5-1.17,.29,0,.5,.1,.64,.29,.07,.08,.16,.3,.29,.67,.08,.16,.22,.24,.41,.24,.32,0,.67-.27,1.06-.8,.39-.53,.97-1.54,1.74-3.02-.08-.25-.23-.82-.44-1.7-.27-1.21-.62-2.8-1.08-4.75-.11-.48-.35-1.52-.73-3.13-.12-.56-.26-.9-.4-1.01s-.5-.17-1.07-.19c-.19,0-.28-.06-.26-.17,.02-.11,.12-.17,.32-.17h5.86c.18,0,.25,.06,.23,.17-.03,.14-.28,.21-.75,.19-.47-.02-.73,.09-.77,.31-.03,.16,0,.41,.06,.74,.1,.45,.15,.71,.15,.79,.4,2.17,.75,3.82,1.04,4.95,2.15-3.78,3.27-5.93,3.36-6.45,.03-.18-.14-.26-.5-.26-.76,0-1.13-.07-1.11-.22,.03-.14,.13-.22,.32-.22,.16,0,.32,0,.47,.02,.3,.03,.71,.05,1.23,.05,.06,0,.3-.01,.71-.04,.41-.02,.68-.04,.81-.04h.14c.14,0,.21,.06,.19,.17Z" fill="#fff"/></g></svg>