<?xml version="1.0" encoding="UTF-8"?><svg id="logos" xmlns="http://www.w3.org/2000/svg" width="200" height="156" viewBox="0 0 200 156"><path d="m66.53,105.61l-9.69-35.83h0c-9.26,2.22-16.57-2.87-18.52-9.39-1.96-6.52-.78-11.87,4.31-16.05,5.09-4.17,15.74-4.78,15.74-4.78h0s9.13-2.95,12.15-3.84c3.02-.9,9.57-1.86,12.01,5.65,2.44,7.51-6.68,9.89-6.68,9.89,5.33.96,13.23,8.67,13.23,8.67l-4.97,1.82,21.91-6.16,2.43,8.55-15.66,4.74,3.56,10.81,9.19-2.52,2.92,9.78-8.72,2.52,3.43,12.3,16.89-5.04-11.6-41.79s4.53-1.23,9.76-2.6l-4.66-13.96-2.14,3.71-2.97.88-4.34-1.56,4.34,13.53-8.72,2.34-9.35,2.53-7.5-27.67,7.89-2.34,9.09,3.38c.29-3.3,2.62-8.78,6.08-11.01,4.28-2.77,3.53-5.29-1.01-5.13s-6.8,2.36-9.57,2.11c-2.77-.25-6.05,2.02-10.33,2.02s-6.55,2.85-6.55,2.85L2.15,26.2S-.63,61.97.13,69.28c.76,7.31,11.59,25.7,19.65,38.41,3.12,4.92,6.47,7.83,9.4,9.54l3.16-39.91,10.22-3.56,23.97,31.85Z" fill="#fff"/><path d="m106.74,35.74h0l2.73-.64,7.68-10.14c-.58-.6-1.06-.96-1.38-.96-2.11,0-5.54-1.84-8.57,3.96-3.02,5.79-.46,7.78-.46,7.78Z" fill="#fff"/><path d="m47.31,56.73c3.26,9,16.86,3.86,16.86,3.86l1.9,6.88h0l-6.25-22.62s-15.77,2.88-12.51,11.89Z" fill="#fff"/><path d="m79.15,109.02l12.14-3.7-11.99-42.22,1.88-.53c-5.76-5.79-10.22-6.18-10.22-6.18l2.76,8.73-6.26,2h0s11.69,41.89,11.69,41.89Z" fill="#fff"/><path d="m77.12,41.94c-1.03-3.6-10.6.71-10.6.71l1.99,5.84s9.99-1.69,8.61-6.55Z" fill="#fff"/><path d="m188.06,129.23c-6.55-5.29-13.95-21.55-13.95-21.55,1.42-1.4,4.12-26.31,6.14-37.38,2.02-11.07.76-15.64-.76-25.81-1.51-10.17,8.82-18.04,12.34-27.45,3.53-9.41,0-17.04,0-17.04,0,0-8.31,7.81-11.84,8.31s-8.82,13.1-15.62,14.61c-6.8,1.51-16.12,12.18-16.12,12.18l-10.88,3.69s-1.77.38-3.83.61l1.27,3.86,11.1-2.62,1.29,3.86-16.87,5.76-4.04-13.45c-2.38-2.79-5.29-7.08-7.51-9.91l7.34,23.27-4.12,1.17c6.63-1.72,16.85-.68,19.08,9.39,2.22,10.07-6.68,14.81-6.68,14.81l21.8,22.81-89.66,25.18-6.93-9.63-18.37,2.52-.15,2.87,16.24-1.65,2.52,3.78c2.52,3.78,4.53,6.8,12.06,8.82,7.52,2.02,17.92,3.27,20.08,3.78,2.15.5,16.24,13.6,19.51,13.6s9.57,1.01,10.11-3.53,4.25-8.82,13.82-17.38c9.57-8.57,24.94-4.53,24.94-4.53,5.79,7.05,21.92,24.94,27.21,29.73,5.29,4.79,10.08,6.55,12.09-1.76,2.02-8.31-5.04-15.62-11.59-20.91Zm-35.72-76.36l-8.3,2.06-6.67-6.44,32-8.94,2.67,7.84-10.07,2.87,12.15,43.65-10.22,2.22-11.56-43.26Z" fill="#fff"/><path d="m59.82,44.84s-15.77,2.88-12.51,11.89,16.86,3.86,16.86,3.86l1.93,6.97-9.26,2.22c-9.26,2.22-16.57-2.87-18.52-9.39s-.78-11.87,4.31-16.05,15.74-4.78,15.74-4.78l1.46,5.29Zm21.54,17.9c-5.84-5.97-10.4-6.36-10.4-6.36l2.76,8.73-7.62,2.43-7.74-28.01s9.13-2.95,12.15-3.84c3.02-.9,9.57-1.86,12.01,5.65,2.44,7.51-6.68,9.89-6.68,9.89,5.33.96,13.23,8.67,13.23,8.67l-7.71,2.83Zm-4.24-20.81c-1.03-3.6-10.6.71-10.6.71l1.99,5.84s9.99-1.69,8.61-6.55Zm13.25,17.87l9.35-2.53-8.96-27.47-7.89,2.34,7.5,27.67Zm35.75-9.64l-8.25-26.15-8.41,11.1-2.73.64-15.98-5.94,8.96,27.47,8.72-2.34-4.34-13.53,4.34,1.56,2.97-.88,2.14-3.71,4.68,14.03,7.89-2.24Zm-4.53-29.02l8.74,29.11,16.87-5.76-1.29-3.86-11.1,2.62-2.28-6.92,6.84-2.2-1.29-3.72-6.16,1.67-2.2-7.3,5.93-1.67-2.05-6.08-12.01,4.1Z" fill="none" stroke="#fff" stroke-linejoin="round" stroke-width="1.28"/><path d="m134.39,75.54s8.91-4.74,6.68-14.81-12.44-11.11-19.08-9.39c-6.63,1.72-13.56,3.6-13.56,3.6l11.6,41.79-16.89,5.04-3.43-12.3,8.72-2.52-2.92-9.78-9.19,2.52-3.56-10.81,15.66-4.74-2.43-8.55-26.71,7.51,11.99,42.22-12.14,3.7-11.69-41.89-10.62,2.65,9.69,35.84-23.97-31.85-10.22,3.56-4.59,58.07,12.59-2.52.89-16.44,18.37-2.52,6.93,9.63,89.66-25.18-21.8-22.81Zm-92.04,30.9l.94-12.53,8.46,10.96-9.4,1.57Zm81.98-36.14l-2.75-9.28s8.68-3.75,10.6,2.67c1.54,5.13-7.85,6.62-7.85,6.62Zm45.04-30.75l2.67,7.84-10.07,2.87,12.15,43.65-10.22,2.22-11.56-43.26-8.3,2.06-6.67-6.44,32-8.94Z" fill="none" stroke="#fff" stroke-linejoin="round" stroke-width="1.28"/><polygon points="43.3 93.91 42.36 106.44 51.37 104.93 43.3 93.91" fill="#fff"/><path d="m121.59,61.02l3.2,9.28s9.37-2.01,7.06-7.52c-2.32-5.51-10.26-1.76-10.26-1.76Z" fill="#fff"/></svg>