<svg xmlns="http://www.w3.org/2000/svg" width="350" height="40" viewBox="0 0 350 40"><path d="M4.12,12.32a4.74,4.74,0,0,0,1.8,3.26,2.12,2.12,0,0,1,.77,1.58,2,2,0,0,1-2,2,2.47,2.47,0,0,1-1.42-.47A8.11,8.11,0,0,1,0,12.32C0,7.51,3.86,4.81,8.8,4.81h7.42c9.31,0,13.86,6.52,13.86,12.83S25.75,30.08,17,30.08H8.41a1.88,1.88,0,0,1-2-2,1.94,1.94,0,0,1,2-2h1.76c1.07,0,1.07-.9,1.07-2.23v-12a2,2,0,0,1,2.06-2,1.9,1.9,0,0,1,2.06,2V23.82c0,1.28-.26,2.14-.86,2.27H17c4.55,0,8.62-2.92,8.62-8.45S21.15,8.8,15.66,8.8h-7C6.05,8.8,4.12,10,4.12,12.32Z" fill="#fff"/><path d="M37.8,7.94a2.49,2.49,0,0,1-2.57,2.53A2.45,2.45,0,0,1,32.7,7.94a2.54,2.54,0,0,1,2.53-2.58A2.58,2.58,0,0,1,37.8,7.94ZM33.08,26.09V15.32a2,2,0,0,1,4,0V26c0,.65.13.78.43.78a1.36,1.36,0,0,0,.73-.35,1.54,1.54,0,0,1,2.44,1.38,1.86,1.86,0,0,1-.77,1.5,4,4,0,0,1-3,1.07C34.58,30.38,33.08,29.18,33.08,26.09Z" fill="#fff"/><path d="M41.28,21.93a8.17,8.17,0,0,1,8.54-8.54c5,0,7.38,3,7.38,5.79,0,3-2.28,5.24-6.35,5.24a6.25,6.25,0,0,1-2.32-.48,1.8,1.8,0,0,1-1.16-1.71,1.88,1.88,0,0,1,1.89-1.93c.51,0,1.24.34,1.84.34a1.63,1.63,0,0,0,1.81-1.59c0-1.07-.86-1.89-3-1.89-2.66,0-4.29,2.15-4.29,4.77a4.71,4.71,0,0,0,4.89,4.8,7.41,7.41,0,0,0,4.21-1.2,2.37,2.37,0,0,1,1.24-.38,1.63,1.63,0,0,1,1.5.85,2.17,2.17,0,0,1-.94,2.88,10.89,10.89,0,0,1-6.35,1.63A8.56,8.56,0,0,1,41.28,21.93Z" fill="#fff"/><path d="M60.71,15.32a2,2,0,0,1,3.95,0v1.54c1.08-2.14,2.79-3.47,4.42-3.47a2.79,2.79,0,0,1,3,2.7,2,2,0,0,1-1.76,2.1c-1.07,0-1.16-.85-2.15-.85-2.27,0-3.56,4.2-3.56,6.39v4.76a1.85,1.85,0,0,1-2,1.93,1.88,1.88,0,0,1-2-1.93Z" fill="#fff"/><path d="M88.22,26c0,.65.13.78.43.78a1.36,1.36,0,0,0,.73-.35,1.54,1.54,0,0,1,2.44,1.38,1.86,1.86,0,0,1-.77,1.5,4,4,0,0,1-3,1.07c-1.76,0-3.09-.69-3.56-2.45a6,6,0,0,1-5,2.58c-3.82,0-6.1-3.18-6.1-7.38,0-5.45,3.26-9.74,8-9.74a3.82,3.82,0,0,1,2.87,1.11V1.93a1.86,1.86,0,0,1,2-1.93,1.88,1.88,0,0,1,2,1.93ZM77.58,23c0,2.23,1.07,3.61,2.62,3.61,2.53,0,4.07-3,4.07-5.67,0-2.4-1.2-3.73-2.74-3.73C79,17.25,77.58,20,77.58,23Z" fill="#fff"/><path d="M93.67,15.32a1.85,1.85,0,0,1,2-1.93,1.88,1.88,0,0,1,2,1.93v1.54c1.07-2.14,2.79-3.47,4.42-3.47a2.78,2.78,0,0,1,3,2.7,2,2,0,0,1-1.76,2.1c-1.07,0-1.16-.85-2.14-.85-2.28,0-3.56,4.2-3.56,6.39v4.76a2,2,0,0,1-4,0Z" fill="#fff"/><path d="M106.24,21.93a8.17,8.17,0,0,1,8.54-8.54c5,0,7.38,3,7.38,5.79,0,3-2.27,5.24-6.35,5.24a6.25,6.25,0,0,1-2.32-.48,1.8,1.8,0,0,1-1.16-1.71,1.88,1.88,0,0,1,1.89-1.93c.52,0,1.25.34,1.85.34a1.62,1.62,0,0,0,1.8-1.59c0-1.07-.86-1.89-3.05-1.89-2.66,0-4.29,2.15-4.29,4.77a4.71,4.71,0,0,0,4.89,4.8,7.41,7.41,0,0,0,4.21-1.2,2.43,2.43,0,0,1,1.24-.38,1.62,1.62,0,0,1,1.5.85,2.17,2.17,0,0,1-.94,2.88,10.89,10.89,0,0,1-6.35,1.63A8.56,8.56,0,0,1,106.24,21.93Z" fill="#fff"/><path d="M142.75,27.93a6,6,0,0,1-5,2.58c-3.81,0-6.09-3.18-6.09-7.38,0-5.45,3.26-9.74,8-9.74a3.72,3.72,0,0,1,3,1.2,1.84,1.84,0,0,1,1.88-1.2,1.8,1.8,0,0,1,2,1.89V26c0,.65.13.78.43.78a1.36,1.36,0,0,0,.73-.35,1.54,1.54,0,0,1,2.44,1.38,1.86,1.86,0,0,1-.77,1.5,4,4,0,0,1-3,1.07C144.56,30.38,143.23,29.69,142.75,27.93ZM135.85,23c0,2.23,1.07,3.61,2.61,3.61,2.45,0,4-2.83,4.08-5.45v-.56c-.13-2.19-1.29-3.39-2.75-3.39C137.22,17.25,135.85,20,135.85,23Z" fill="#fff"/><path d="M155.84,16.65A5.6,5.6,0,0,1,161,13.39c2.66,0,4.68,1.67,4.68,5.1V26c0,.65.13.78.43.78a1.36,1.36,0,0,0,.73-.35,1.54,1.54,0,0,1,2.44,1.38,1.86,1.86,0,0,1-.77,1.5,4,4,0,0,1-3,1.07c-2.28,0-3.78-1.2-3.78-4.29V19.44c0-1.76-.77-2.19-1.67-2.19-1.85,0-4.08,1.8-4.21,5.62v5.58a1.89,1.89,0,0,1-2,1.93,1.87,1.87,0,0,1-1.93-1.93V15.28a2,2,0,0,1,4,0Z" fill="#fff"/><path d="M184.85,26c0,.65.13.78.43.78a1.36,1.36,0,0,0,.73-.35,1.54,1.54,0,0,1,2.44,1.38,1.86,1.86,0,0,1-.77,1.5,4,4,0,0,1-3,1.07c-1.76,0-3.09-.69-3.57-2.45a6,6,0,0,1-5,2.58c-3.82,0-6.09-3.18-6.09-7.38,0-5.45,3.26-9.74,8-9.74a3.84,3.84,0,0,1,2.88,1.11V1.93a1.85,1.85,0,0,1,2-1.93,1.88,1.88,0,0,1,2,1.93Zm-10.64-3c0,2.23,1.07,3.61,2.61,3.61,2.54,0,4.08-3,4.08-5.67,0-2.4-1.2-3.73-2.75-3.73C175.58,17.25,174.21,20,174.21,23Z" fill="#fff"/><path d="M217,18.07l2.1,5.7,6.35-17.12a1.88,1.88,0,0,1,1.93-1.41,1.84,1.84,0,0,1,2,1.5l4.55,21.19a1.93,1.93,0,0,1-2,2.45,2,2,0,0,1-2-1.5l-3.13-14.72-5.45,14.25c-.56,1.5-1.16,2-2.14,2-1.33,0-1.76-.43-2.41-2l-3.43-8.54c-.73-1.76-1.41-3.31-2.06-4.59l-1.89,9.14c-.81,3.9-2.31,6-5.7,6-1.25,0-4.29-.77-4.29-3a2,2,0,0,1,3.47-1.33,1.11,1.11,0,0,0,.86.39c.73,0,1.29-.82,1.63-2.41l2.87-13.64a5.55,5.55,0,0,0-4.41-2,4,4,0,0,0-4.3,4.08c0,1.28.95,2.27,1.76,3.13a1.9,1.9,0,0,1,.65,1.5,2,2,0,0,1-2,2,2.07,2.07,0,0,1-1.2-.43,7.75,7.75,0,0,1-3.26-6.18c0-4.81,3.73-8,8.33-8C209,4.51,212.91,6.91,217,18.07Z" fill="#fff"/><path d="M246.94,27.93a6,6,0,0,1-5,2.58c-3.81,0-6.09-3.18-6.09-7.38,0-5.45,3.26-9.74,8-9.74a3.72,3.72,0,0,1,3,1.2,1.84,1.84,0,0,1,1.88-1.2,1.8,1.8,0,0,1,2,1.89V26c0,.65.13.78.43.78a1.36,1.36,0,0,0,.73-.35,1.54,1.54,0,0,1,2.44,1.38,1.86,1.86,0,0,1-.77,1.5,4,4,0,0,1-3,1.07C248.74,30.38,247.41,29.69,246.94,27.93ZM240,23c0,2.23,1.07,3.61,2.61,3.61,2.45,0,4-2.83,4.08-5.45v-.56c-.13-2.19-1.29-3.39-2.75-3.39C241.4,17.25,240,20,240,23Z" fill="#fff"/><path d="M256.07,15.32a2,2,0,0,1,3.95,0v1.54c1.07-2.14,2.79-3.47,4.42-3.47a2.79,2.79,0,0,1,3.05,2.7,2,2,0,0,1-1.76,2.1c-1.07,0-1.16-.85-2.15-.85-2.27,0-3.56,4.2-3.56,6.39v4.76a1.85,1.85,0,0,1-2,1.93,1.88,1.88,0,0,1-2-1.93Z" fill="#fff"/><path d="M274.82,30.51c-3.81,0-6.09-3.18-6.09-7.38,0-5.45,3.26-9.74,8-9.74a3.77,3.77,0,0,1,3,1.2,1.85,1.85,0,0,1,1.88-1.29,1.88,1.88,0,0,1,2,1.93V31.15c0,5.19-3.39,7.94-7.9,7.94a9.08,9.08,0,0,1-6.05-1.93,2.22,2.22,0,0,1-.86-1.67,1.86,1.86,0,0,1,1.81-1.85,2.09,2.09,0,0,1,1.16.39,5.73,5.73,0,0,0,4,1.33c2.1,0,3.86-1.63,3.86-4.34V28.23A6,6,0,0,1,274.82,30.51ZM272.94,23c0,2.23,1.07,3.61,2.61,3.61,2.54,0,4.08-3,4.08-5.67v-.34c-.13-2.19-1.29-3.39-2.75-3.39C274.31,17.25,272.94,20,272.94,23Z" fill="#fff"/><path d="M298,27.93a6,6,0,0,1-5,2.58c-3.82,0-6.09-3.18-6.09-7.38,0-5.45,3.26-9.74,8-9.74a3.7,3.7,0,0,1,3,1.2,1.87,1.87,0,0,1,1.89-1.2,1.8,1.8,0,0,1,2,1.89V26c0,.65.12.78.43.78a1.34,1.34,0,0,0,.72-.35,1.54,1.54,0,0,1,2.45,1.38,1.86,1.86,0,0,1-.77,1.5,4.08,4.08,0,0,1-3,1.07C299.75,30.38,298.42,29.69,298,27.93ZM291,23c0,2.23,1.08,3.61,2.62,3.61,2.45,0,4-2.83,4.08-5.45v-.56c-.13-2.19-1.29-3.39-2.75-3.39C292.42,17.25,291,20,291,23Z" fill="#fff"/><path d="M307.09,15.32a2,2,0,0,1,4,0v1.54c1.07-2.14,2.79-3.47,4.42-3.47a2.79,2.79,0,0,1,3.05,2.7,2,2,0,0,1-1.76,2.1c-1.08,0-1.16-.85-2.15-.85-2.27,0-3.56,4.2-3.56,6.39v4.76a1.85,1.85,0,0,1-2,1.93,1.88,1.88,0,0,1-2-1.93Z" fill="#fff"/><path d="M319.66,21.93a8.18,8.18,0,0,1,8.54-8.54c5,0,7.38,3,7.38,5.79,0,3-2.27,5.24-6.35,5.24a6.16,6.16,0,0,1-2.31-.48,1.79,1.79,0,0,1-1.16-1.71,1.88,1.88,0,0,1,1.88-1.93c.52,0,1.25.34,1.85.34a1.62,1.62,0,0,0,1.8-1.59c0-1.07-.86-1.89-3-1.89-2.66,0-4.3,2.15-4.3,4.77a4.71,4.71,0,0,0,4.9,4.8,7.35,7.35,0,0,0,4.2-1.2,2.43,2.43,0,0,1,1.25-.38,1.64,1.64,0,0,1,1.5.85,2.17,2.17,0,0,1-.95,2.88,10.89,10.89,0,0,1-6.35,1.63A8.56,8.56,0,0,1,319.66,21.93Z" fill="#fff"/><path d="M338.89,17.55A1.82,1.82,0,0,1,337,15.66a1.87,1.87,0,0,1,1.89-2H341V11.24a1.86,1.86,0,0,1,2-1.93,1.88,1.88,0,0,1,2,1.93v2.45H348a1.81,1.81,0,0,1,1.85,2A1.76,1.76,0,0,1,348,17.55h-3.09V25c0,1.2.22,1.67.78,1.67a1.33,1.33,0,0,0,.94-.39,2,2,0,0,1,1.54-.64A1.74,1.74,0,0,1,350,27.59a2.28,2.28,0,0,1-.47,1.29,5.35,5.35,0,0,1-4,1.63c-3.44,0-4.59-2.19-4.59-5V17.55Z" fill="#fff"/></svg>