<svg xmlns="http://www.w3.org/2000/svg" viewBox="0 0 250 102"><path d="M119.06 32.21H98.12c-5.17 0-9.37 4.19-9.37 9.37v11.9c0 5.17 4.19 9.37 9.37 9.37h20.94c5.17 0 9.37-4.19 9.37-9.37v-11.9c0-5.17-4.19-9.37-9.37-9.37zm-.04 19.3a3.72 3.72 0 0 1-3.72 3.72h-13.42a3.72 3.72 0 0 1-3.72-3.72v-7.96a3.72 3.72 0 0 1 3.72-3.72h13.42a3.72 3.72 0 0 1 3.72 3.72v7.96zM30.27 51.48v.02a3.72 3.72 0 0 1-3.72 3.72H13.13a3.72 3.72 0 0 1-3.72-3.72v-7.96a3.72 3.72 0 0 1 3.72-3.72h13.42a3.72 3.72 0 0 1 3.72 3.72v.02h9.41v-1.99c0-5.17-4.19-9.37-9.37-9.37H9.37C4.2 32.2 0 36.39 0 41.57v11.9c0 5.17 4.19 9.37 9.37 9.37h20.94c5.17 0 9.37-4.19 9.37-9.37v-1.99h-9.41zM82.62 43.45v-4.6c0-3.67-2.98-6.65-6.65-6.65H45.95v30.64h8.42v-8.53h16.42c1.11 0 2.01.9 2.01 2.01v6.52h8.97v-8.69a4.49 4.49 0 0 0-4.49-4.49h-.88a6.22 6.22 0 0 0 6.22-6.22zm-9.1.67a2.4 2.4 0 0 1-2.4 2.4H54.38v-7.27h16.74a2.4 2.4 0 0 1 2.4 2.4v2.46zM161.49 40.09h9.95v-1.74c0-4.25-3.45-7.7-7.7-7.7h-22c-4.25 0-7.7 3.45-7.7 7.7v3.1c0 4.25 3.45 7.7 7.7 7.7h17.05c1.5 0 2.71 1.22 2.71 2.71v.02c0 1.5-1.22 2.71-2.71 2.71h-12.68c-1.5 0-2.71-1.22-2.71-2.71v-.02-.15h-9.36v1.7c0 4.25 3.45 7.7 7.7 7.7h22c4.25 0 7.7-3.45 7.7-7.7v-3.1c0-4.25-3.45-7.7-7.7-7.7H146.1c-1.5 0-2.71-1.22-2.71-2.71v-.02c0-1.5 1.22-2.71 2.71-2.71h12.68c1.5 0 2.71 1.22 2.71 2.71v.21zM204.13 40.09h9.95v-1.74c0-4.25-3.45-7.7-7.7-7.7h-22c-4.25 0-7.7 3.45-7.7 7.7v3.1c0 4.25 3.45 7.7 7.7 7.7h17.05c1.5 0 2.71 1.22 2.71 2.71v.02c0 1.5-1.22 2.71-2.71 2.71h-12.68c-1.5 0-2.71-1.22-2.71-2.71v-.02-.15h-9.36v1.7c0 4.25 3.45 7.7 7.7 7.7h22c4.25 0 7.7-3.45 7.7-7.7v-3.1c0-4.25-3.45-7.7-7.7-7.7h-17.64c-1.5 0-2.71-1.22-2.71-2.71v-.02c0-1.5 1.22-2.71 2.71-2.71h12.68c1.5 0 2.71 1.22 2.71 2.71v.21zM128.43 70.75H92.01v7.05h14v23.59h8.42V77.8h14v-7.05zM239.46 101.39H250l-17.27-15.32 15.16-15.32h-10.54l-11.6 11.72h-4.87V70.75h-8.42v30.64h8.42V89.66h5.36l13.22 11.73zM185.8 92.96V70.75h-8.42v30.64h29.94v-8.43H185.8zM163.28 101.39h9.48l-16.65-30.64h-12.85l-16.65 30.64h9.48l3.01-5.54h21.17l3.01 5.54zm-20.35-12.6l6.75-12.42 6.75 12.42h-13.5zM33.15 12.2h-8.12c-1.57 0-2.84 1.27-2.84 2.84v1.14c0 1.57 1.27 2.84 2.84 2.84h6.29a1.005 1.005 0 0 1 0 2.01h-4.68c-.55 0-1-.45-1-1v-.06h-3.45v.63c0 1.57 1.27 2.84 2.84 2.84h8.12c1.57 0 2.84-1.27 2.84-2.84v-1.14c0-1.57-1.27-2.84-2.84-2.84h-6.51a1.005 1.005 0 0 1 0-2.01h4.68c.55 0 1 .45 1 1v.07h3.67v-.64c0-1.57-1.27-2.84-2.84-2.84zM44.64 11.72h3.05V3.17h5.07V.61h-13.2v2.56h5.08v8.55zM57.79 14.06h-2.9l-5.09 9.37h2.9l.92-1.69h6.48l.92 1.69h2.9l-5.09-9.37H57.8zm-3 5.52l2.06-3.8 2.06 3.8h-4.13zM91.72 16.97h3.06v-.54c0-1.31-1.06-2.37-2.37-2.37h-6.77c-1.31 0-2.37 1.06-2.37 2.37v.95c0 1.31 1.06 2.37 2.37 2.37h5.24c.46 0 .84.37.84.84s-.37.84-.84.84h-3.9c-.46 0-.84-.37-.84-.84v-.05h-2.88v.52c0 1.31 1.06 2.37 2.37 2.37h6.77c1.31 0 2.37-1.06 2.37-2.37v-.95c0-1.31-1.06-2.37-2.37-2.37h-5.43c-.46 0-.84-.37-.84-.84s.37-.84.84-.84h3.9c.46 0 .84.37.84.84v.06zM46.16 17.46h-5.88v-3.4H37.7v9.37h2.57v-3.4l5.89.01v3.39h2.58v-9.37h-2.58v3.4zM73.86 20.26l-2.03-6.2h-2.91l-2.09 5.9-1.94-5.9h-2.57l3.07 9.37H68.17l2.16-6.08 1.99 6.08h2.98l3.34-9.37h-2.58l-2.2 6.2zM79.39 14.17h.97v.18c0 .22-.17.39-.39.39h-.85v1.62h1.12c1.07 0 1.94-.87 1.94-1.94v-2.84h-2.79v2.59zM56.16 11.72h7.1V9.14h-7.1v-.82h7.1V5.75h-7.1v-.83h7.1V2.35h-9.67v9.37h2.57zM67.82 11.68h6.53c1.5 0 2.72-1.22 2.72-2.72V5.04c0-1.5-1.22-2.72-2.72-2.72h-7.81v.04h-1.29v9.37h2.57v-.04zm6.39-6.13v2.9c0 .48-.39.86-.86.86h-5.53V4.68h5.53c.48 0 .86.39.86.86z" fill="#fff"/></svg>