<svg xmlns="http://www.w3.org/2000/svg" width="300" height="38" viewBox="0 0 300 38"><path fill="#4d542b" stroke="#000" stroke-linejoin="round" stroke-width="4.47" d="M315.24-743.31l-1.27 280.62L-912.94 44.7l-98.91-239.19L315.24-743.31z"/><path d="M20.2.71c2.75 0 4.8.51 6.16 1.51a7.32 7.32 0 0 1 2.73 4 16 16 0 0 1 .38 5.81q-.33 3.3-1 6.87c-.42 2.38-.9 4.66-1.46 6.86a20.19 20.19 0 0 1-2.43 5.81 12 12 0 0 1-4.15 4 13.06 13.06 0 0 1-6.7 1.51H0L6.42.71zM12.58 30.3a5.82 5.82 0 0 0 2.26-.38 3.4 3.4 0 0 0 1.54-1.61 14.9 14.9 0 0 0 1.17-3.47c.35-1.49.74-3.47 1.17-5.91s.74-4.42.92-5.92a13.14 13.14 0 0 0 .05-3.47 2.09 2.09 0 0 0-1-1.61 4.86 4.86 0 0 0-2.13-.38h-1.85l-4 22.75zM40.15 27c-.31 1.76-.26 3 .14 3.54a2.17 2.17 0 0 0 1.94.89 3.07 3.07 0 0 0 2.24-.89 6.7 6.7 0 0 0 1.4-3.54L50.5.71H60l-4.22 23.88A23.86 23.86 0 0 1 53.84 31a12.5 12.5 0 0 1-3.1 4.08 10 10 0 0 1-4.22 2.09 23.9 23.9 0 0 1-5.4.56 21.51 21.51 0 0 1-5.18-.56 6.57 6.57 0 0 1-3.51-2.09A7.9 7.9 0 0 1 30.78 31a20.58 20.58 0 0 1 .31-6.38L35.3.71h9.48zM76.79 7.55A1.71 1.71 0 0 0 75 6.43a2.85 2.85 0 0 0-1.81.57 4.7 4.7 0 0 0-1.32 2 23.9 23.9 0 0 0-1.11 3.85q-.54 2.43-1.18 6.1c-.43 2.44-.76 4.48-1 6.09a21.61 21.61 0 0 0-.25 3.85 3.08 3.08 0 0 0 .62 2 2.1 2.1 0 0 0 1.61.56 2.57 2.57 0 0 0 1.5-.43 3.56 3.56 0 0 0 1.13-1.45 14.9 14.9 0 0 0 .91-2.73c.29-1.14.58-2.58.89-4.31h9.21l-.47 2.7a18.71 18.71 0 0 1-2.13 6.28 12.82 12.82 0 0 1-3.38 3.85A11.06 11.06 0 0 1 74 37.21a21.13 21.13 0 0 1-4.55.49 17.14 17.14 0 0 1-6.36-1 6.15 6.15 0 0 1-3.4-3.24 13.28 13.28 0 0 1-.93-5.87 60 60 0 0 1 1-8.69A57.59 57.59 0 0 1 62 10.1a18.4 18.4 0 0 1 3.2-5.87A11.19 11.19 0 0 1 69.78 1a18.29 18.29 0 0 1 6.35-1 14.66 14.66 0 0 1 5.31.82 7.14 7.14 0 0 1 3.24 2.32 7.32 7.32 0 0 1 1.4 3.62 16 16 0 0 1-.2 4.77l-.4 2.29h-9.19l.36-2a9.58 9.58 0 0 0 .14-4.27zM100.59.71l-2.46 14h.1l9.5-14h10.1l-12 15.92 6.68 20.51h-10.79l-3.32-12.7-2.53 3.06-1.7 9.64h-9.49L91.1.71zM131.78 18.52l-1.36 7.75H114.5l1.37-7.75zM134.93 8.77l1.42-8.06H160l-1.4 8.06h-7.14l-5 28.37H137l5-28.37zM183.74.71l-1.36 7.76h-12.09l-1.1 6.22h11.32l-1.31 7.45h-11.33l-1.27 7.24h12.55l-1.37 7.76h-22L162.16.71zM200.39 7.55a1.7 1.7 0 0 0-1.79-1.12 2.87 2.87 0 0 0-1.81.56 4.7 4.7 0 0 0-1.32 2 23.9 23.9 0 0 0-1.11 3.85c-.35 1.62-.75 3.65-1.18 6.1s-.75 4.48-1 6.09a21.61 21.61 0 0 0-.25 3.85 3.14 3.14 0 0 0 .62 2 2.12 2.12 0 0 0 1.61.56 2.63 2.63 0 0 0 1.54-.44 3.55 3.55 0 0 0 1.12-1.45 14.82 14.82 0 0 0 .92-2.73c.28-1.14.58-2.58.88-4.31h9.19l-.48 2.7a18.71 18.71 0 0 1-2.13 6.28 12.68 12.68 0 0 1-3.38 3.85 11 11 0 0 1-4.18 1.88 21.2 21.2 0 0 1-4.55.49 17.07 17.07 0 0 1-6.36-1 6.13 6.13 0 0 1-3.41-3.24 13.28 13.28 0 0 1-.93-5.87 61.61 61.61 0 0 1 1-8.69 56.54 56.54 0 0 1 2.19-8.83 18.4 18.4 0 0 1 3.2-5.87A11.22 11.22 0 0 1 193.39 1a18.27 18.27 0 0 1 6.34-1 14.68 14.68 0 0 1 5.32.82 7.14 7.14 0 0 1 3.24 2.32 7.51 7.51 0 0 1 1.4 3.62 16.39 16.39 0 0 1-.2 4.77l-.41 2.29h-9.18l.36-2a9.53 9.53 0 0 0 .13-4.27zM211.4 8.77l1.42-8.06h23.67l-1.42 8.06h-7.14l-5 28.37h-9.49l5-28.37zM247.76.71l-6.42 36.43h-9.49L238.27.71zM259 .71l-1 27.45h.11L266.79.71h10.1l-14.28 36.43h-12.24L249.09.71zM300 .71l-1.37 7.76h-12.09l-1.09 6.22h11.32l-1.31 7.45h-11.33l-1.28 7.24h12.55l-1.4 7.76h-22L278.42.71z" fill="#fff"/></svg>