<svg xmlns="http://www.w3.org/2000/svg" width="300" height="34" viewBox="0 0 300 34"><g id="logos"><polygon points="37.16 13.47 49.01 6.46 51.18 6.46 55.15 0.52 42.24 0.52 37.75 6.46 40.84 6.46 29.16 12.53 33.91 6.46 35.99 6.46 40.56 0.52 27.85 0.52 22.77 6.46 25.15 6.46 9.64 24.94 6.97 24.94 0 33.09 15.54 33.09 21.8 24.94 19.46 24.94 26.23 16.29 25.92 24.94 23.77 24.94 17.6 33.09 34.27 33.09 39.68 24.94 37.57 24.94 37.16 13.47" fill="#fff"/><polygon points="54.02 6.46 56.4 6.46 44.69 24.94 42.02 24.94 36.73 33.09 52.57 33.09 57.14 24.94 54.52 24.94 65.16 6.46 67.5 6.46 70.83 0.52 57.88 0.52 54.02 6.46" fill="#fff"/><polygon points="77.31 24.94 72.16 24.94 80.89 6.46 83.94 6.46 86.63 0.52 73 0.52 69.75 6.46 72.13 6.46 62.33 24.94 59.66 24.94 55.22 33.09 81.25 33.09 86.97 18.8 80.02 18.8 77.31 24.94" fill="#fff"/><polygon points="103.89 24.94 98.74 24.94 104.59 6.46 107.64 6.46 109.4 0.52 95.77 0.52 93.45 6.46 95.83 6.46 88.91 24.94 86.25 24.94 83.07 33.09 109.11 33.09 112.59 18.8 105.65 18.8 103.89 24.94" fill="#fff"/><polygon points="117.16 6.46 119.53 6.46 115.5 24.94 112.83 24.94 110.92 33.09 137.06 33.09 138.31 18.8 132.31 18.8 131.55 24.94 125.32 24.94 126.31 18.8 130.69 18.8 131.68 11.42 127.5 11.42 128.3 6.46 133.84 6.46 133.23 11.42 138.96 11.42 139.92 0.52 118.55 0.52 117.16 6.46" fill="#fff"/><path d="M167.2,21.58c-.36-4.13-1.49-5.36-5.61-6.09,3.81-1.54,5.15-3.66,4.83-7.28a8.3,8.3,0,0,0-2.65-5.63C162.05,1.08,160,.52,156.2.52H142.32l-.42,5.94h2.38l-1,18.48h-2.67L140,33.09h15.84l-.14-8.15h-2.62l0-6.39h1.58c2.48.1,3.42,1.43,3.39,4.83l.31,9.71h12.31l-.82-8.15h-2.34Zm-12.8-9.24h-1.35V6.46h1.29c2.38,0,3.5.91,3.56,2.86S156.82,12.34,154.4,12.34Z" fill="#fff"/><polygon points="195.52 6.46 197.85 6.46 200.71 16.07 188.63 0.52 178.73 0.52 179.79 6.46 182.17 6.46 185.74 24.94 183.07 24.94 184.53 33.09 196.64 33.09 194.63 24.94 191.97 24.94 189.34 13.52 203.31 33.09 211.64 33.09 202.86 6.46 205.24 6.46 203.19 0.52 193.85 0.52 195.52 6.46" fill="#fff"/><path d="M222.43,6.46h2.34l6.57,13.88c1.77,3.73,1.39,5.31-1.29,5.31s-4.48-1.58-6.08-5.31L218,6.46h2.34L217.7.52H205l2.13,5.94h2.38l5.18,13.88c1.91,5.09,4.28,8.5,7.63,10.69a17.13,17.13,0,0,0,9.79,2.84c3.79,0,6.17-.9,7.32-2.84,1.38-2.25.77-5.6-1.83-10.69l-7.1-13.88h2.38L229.77.52H219.71Z" fill="#fff"/><polygon points="250.6 6.46 252.94 6.46 259.27 16.07 241.56 0.52 231.66 0.52 234.87 6.46 237.25 6.46 247.52 24.94 244.85 24.94 249.25 33.09 261.37 33.09 256.41 24.94 253.74 24.94 246.98 13.52 268.03 33.09 276.37 33.09 257.94 6.46 260.32 6.46 256.12 0.52 246.77 0.52 250.6 6.46" fill="#fff"/><path d="M278.93,10.59l-3.41-.91c-2.25-.58-3.45-1.2-4.21-2.17s-.37-1.82,1.13-1.82c2.2,0,4.51,1.2,7.51,4h3.92L275.9.2h-4L273,1.6a12.44,12.44,0,0,0-6-1.6c-5.2,0-6.23,3.53-2.26,9a33.5,33.5,0,0,0,6,6.18,24.08,24.08,0,0,0,8.66,4.33l3.7,1.07a9.15,9.15,0,0,1,4.91,2.84c1.34,1.67,1,2.88-.8,2.88-2.93,0-6.25-2-10.16-6.18h-4.18l9.4,13h4.9l-1.73-2.3c3.84,2.18,6.7,3.08,9.7,3.08,6.5,0,6.34-5.43,0-12.81A31.59,31.59,0,0,0,278.93,10.59Z" fill="#fff"/></g></svg>