<svg xmlns="http://www.w3.org/2000/svg" width="250" height="35" viewBox="0 0 250 35"><path d="M19.85,3.19V30.24a4,4,0,0,0,.08.85,1.1,1.1,0,0,0,.38.59,2.67,2.67,0,0,0,.88.44,10.73,10.73,0,0,0,1.59.33.84.84,0,0,1,.78.88c0,.1,0,.25,0,.46a2.74,2.74,0,0,1-.08.51l-3.52-.18c-1.25,0-2.36-.07-3.32-.07s-2.1,0-3.32.07l-3.47.18a1.35,1.35,0,0,1-.13-.51c0-.21,0-.36,0-.46a1.15,1.15,0,0,1,.13-.59c.08-.16.31-.27.69-.34a5.14,5.14,0,0,0,2.39-.69,1.87,1.87,0,0,0,.49-1.47v-27H8.85a9.12,9.12,0,0,0-2.45.28,4.89,4.89,0,0,0-1.75.88A5.81,5.81,0,0,0,3.32,5.89,19.78,19.78,0,0,0,2.11,8.18a.77.77,0,0,1-.77.46,2.29,2.29,0,0,1-.72-.13A3.63,3.63,0,0,1,0,8.28c.24-.82.45-1.55.62-2.19A19.07,19.07,0,0,0,1,4.22c.14-.79.24-1.49.31-2.11A6.54,6.54,0,0,1,1.59.77.82.82,0,0,1,2.42.31c.37,0,1.12,0,2.23.15s2.46.16,4,.16H24.53c1.55,0,2.87-.05,4-.16S30.4.31,30.81.31a.87.87,0,0,1,.82.46,5.6,5.6,0,0,1,.23,1.34,15,15,0,0,0,.34,2.11c.1.61.23,1.24.38,1.87s.37,1.37.64,2.19c-.17.07-.38.15-.64.23a2.13,2.13,0,0,1-.69.13.88.88,0,0,1-.83-.46,21.55,21.55,0,0,0-1.2-2.29,6,6,0,0,0-1.34-1.54,4.89,4.89,0,0,0-1.75-.88,8.86,8.86,0,0,0-2.39-.28Z" fill="#fff"/><path d="M46,30.24a3.4,3.4,0,0,0,.08.85,1,1,0,0,0,.41.59,2.84,2.84,0,0,0,1,.44,13.79,13.79,0,0,0,1.73.33c.34.07.51.36.51.88,0,.1,0,.25,0,.46a3.94,3.94,0,0,1-.08.51l-3.52-.18c-1.26,0-2.36-.07-3.32-.07s-2.11,0-3.34.07l-3.5.18a1.08,1.08,0,0,1-.1-.51v-.46c0-.55.17-.84.51-.88A13.58,13.58,0,0,0,38,32.12a2.55,2.55,0,0,0,.95-.44,1.25,1.25,0,0,0,.42-.59,3.3,3.3,0,0,0,.1-.85V4.47a3.22,3.22,0,0,0-.1-.84A1.27,1.27,0,0,0,39,3,2.56,2.56,0,0,0,38,2.6a15.3,15.3,0,0,0-1.72-.34q-.51-.15-.51-.87V.93a1.48,1.48,0,0,1,.1-.57c1.09.07,2.26.13,3.5.18s2.34.08,3.34.08,2.06,0,3.32-.08S48.48.43,49.58.36c0,.17.06.36.08.57s0,.36,0,.46q0,.72-.51.87a15.55,15.55,0,0,0-1.73.34,2.85,2.85,0,0,0-1,.43,1,1,0,0,0-.41.6,3.32,3.32,0,0,0-.08.84Z" fill="#fff"/><path d="M72.1,3.19V30.24a4,4,0,0,0,.08.85,1.06,1.06,0,0,0,.39.59,2.51,2.51,0,0,0,.87.44,10.63,10.63,0,0,0,1.6.33.84.84,0,0,1,.77.88c0,.1,0,.25,0,.46a2.74,2.74,0,0,1-.08.51l-3.52-.18c-1.25,0-2.36-.07-3.32-.07s-2.1,0-3.31.07l-3.47.18a1.19,1.19,0,0,1-.13-.51c0-.21,0-.36,0-.46a1.15,1.15,0,0,1,.13-.59c.08-.16.32-.27.69-.34a5.24,5.24,0,0,0,2.4-.69,1.91,1.91,0,0,0,.48-1.47v-27H61.1a9,9,0,0,0-2.44.28,4.81,4.81,0,0,0-1.75.88,5.66,5.66,0,0,0-1.34,1.54,21.46,21.46,0,0,0-1.21,2.29.76.76,0,0,1-.77.46,2.29,2.29,0,0,1-.72-.13,3.63,3.63,0,0,1-.62-.23c.24-.82.45-1.55.62-2.19a19.07,19.07,0,0,0,.41-1.87c.14-.79.24-1.49.31-2.11A5.8,5.8,0,0,1,53.85.77a.8.8,0,0,1,.82-.46c.38,0,1.12,0,2.24.15s2.46.16,4,.16H76.78c1.55,0,2.88-.05,4-.16S82.65.31,83.06.31a.86.86,0,0,1,.82.46,5.14,5.14,0,0,1,.23,1.34,16.6,16.6,0,0,0,.34,2.11c.1.61.23,1.24.38,1.87s.37,1.37.65,2.19c-.18.07-.39.15-.65.23a2.08,2.08,0,0,1-.69.13.86.86,0,0,1-.82-.46,23.45,23.45,0,0,0-1.21-2.29,5.83,5.83,0,0,0-1.34-1.54A4.89,4.89,0,0,0,79,3.47a8.81,8.81,0,0,0-2.39-.28Z" fill="#fff"/><path d="M101.68,22.73H90.88L88.2,29.88a1.55,1.55,0,0,0-.2.57,2.61,2.61,0,0,0-.06.46,1.08,1.08,0,0,0,.54.93,6.19,6.19,0,0,0,2.19.61c.48.07.72.4.72,1a4.37,4.37,0,0,1-.1.87l-2.93-.18c-1,0-2-.07-3-.07-.68,0-1.4,0-2.16.05s-1.59.1-2.52.2a1,1,0,0,1-.1-.46v-.41c0-.65.22-1,.67-1a9.06,9.06,0,0,0,2.29-.67,2.53,2.53,0,0,0,1.1-1.23L97,.87A1.31,1.31,0,0,1,98.23,0l.52,0c.17,0,.35,0,.56.07l12.4,30.55a2.1,2.1,0,0,0,1.18,1.16,7.21,7.21,0,0,0,1.9.54.91.91,0,0,1,.77,1,4.6,4.6,0,0,1-.1.92l-3.24-.18c-1.06,0-2.06-.07-3-.07-.48,0-1.07,0-1.75,0l-2.11.08-2.13.08c-.71,0-1.3,0-1.78.07a1,1,0,0,1-.1-.46v-.41a1.09,1.09,0,0,1,.18-.69.76.76,0,0,1,.38-.29,7.65,7.65,0,0,0,2-.59,1.08,1.08,0,0,0,.65-1,2.35,2.35,0,0,0-.16-.77Zm-1-2.57L96.33,8.59,91.85,20.16Z" fill="#fff"/><path d="M144.78,22.84V4.58A1.71,1.71,0,0,0,144,3a7.81,7.81,0,0,0-2.72-.72.86.86,0,0,1-.67-1V.87a1.32,1.32,0,0,1,.1-.51q1.29.15,2.52.21c.83,0,1.78.05,2.88.05s2,0,2.83-.05,1.58-.11,2.37-.21a4.46,4.46,0,0,1,.07.51,3.89,3.89,0,0,1,0,.42c0,.58-.21.9-.62,1a5.6,5.6,0,0,0-2.31.72,1.75,1.75,0,0,0-.62,1.49V34.56a3.83,3.83,0,0,1-.69.08l-.65,0a2,2,0,0,1-.77-.18,2.52,2.52,0,0,1-.87-.74L124.61,8V30.24a4,4,0,0,0,.08.85,1,1,0,0,0,.41.57,3.55,3.55,0,0,0,1,.41c.43.12,1,.25,1.72.38a.89.89,0,0,1,.44.23,1.1,1.1,0,0,1,.18.75,4.37,4.37,0,0,1-.1.87l-2.42-.18c-.75,0-1.63-.07-2.62-.07s-2,0-2.86.07l-2.49.18a1,1,0,0,1-.1-.46v-.41a1.11,1.11,0,0,1,.18-.72.78.78,0,0,1,.43-.26,6.1,6.1,0,0,0,2.47-.77,1.69,1.69,0,0,0,.62-1.44v-26A1.52,1.52,0,0,0,121,3a5.77,5.77,0,0,0-2.44-.7c-.42-.1-.62-.43-.62-1V1.05a1,1,0,0,1,0-.28l0-.41,1.39.08c.45,0,.89,0,1.34.07.75,0,1.51.06,2.29.08l1.87,0a8.88,8.88,0,0,1,2,.13,1.77,1.77,0,0,1,.82.48Z" fill="#fff"/><path d="M165.55,30.24a4,4,0,0,0,.08.85,1.05,1.05,0,0,0,.41.59,2.91,2.91,0,0,0,1,.44,13.58,13.58,0,0,0,1.72.33c.34.07.52.36.52.88,0,.1,0,.25,0,.46a2.74,2.74,0,0,1-.08.51l-3.52-.18c-1.25,0-2.36-.07-3.32-.07s-2.11,0-3.34.07l-3.5.18a1.08,1.08,0,0,1-.1-.51v-.46c0-.55.17-.84.51-.88a13.79,13.79,0,0,0,1.73-.33,2.63,2.63,0,0,0,.95-.44,1.3,1.3,0,0,0,.41-.59,2.91,2.91,0,0,0,.1-.85V4.47a2.84,2.84,0,0,0-.1-.84,1.32,1.32,0,0,0-.41-.6,2.64,2.64,0,0,0-.95-.43,15.55,15.55,0,0,0-1.73-.34q-.51-.15-.51-.87V.93a1.48,1.48,0,0,1,.1-.57c1.1.07,2.27.13,3.5.18s2.35.08,3.34.08,2.07,0,3.32-.08,2.43-.11,3.52-.18a4.35,4.35,0,0,1,.08.57c0,.2,0,.36,0,.46,0,.48-.18.77-.52.87A15.3,15.3,0,0,0,167,2.6,2.92,2.92,0,0,0,166,3a1.07,1.07,0,0,0-.41.6,3.85,3.85,0,0,0-.08.84Z" fill="#fff"/><path d="M190.34,34.66a19.75,19.75,0,0,1-7.56-1.33,14.56,14.56,0,0,1-5.35-3.68,15.39,15.39,0,0,1-3.16-5.5,21.52,21.52,0,0,1-1.05-6.82,19.44,19.44,0,0,1,1-6.12,16.11,16.11,0,0,1,3.24-5.58,16.64,16.64,0,0,1,5.66-4.06A19.68,19.68,0,0,1,191.37,0a31.55,31.55,0,0,1,4.91.36,48,48,0,0,1,5,1.08c.06.93.2,2.11.41,3.55a32.53,32.53,0,0,0,.87,4.22l-.67.12a3,3,0,0,1-.61.08,1.62,1.62,0,0,1-.7-.13.72.72,0,0,1-.39-.54,13.11,13.11,0,0,0-1.28-2.85A6.26,6.26,0,0,0,197.16,4a6.7,6.7,0,0,0-2.34-1,14.55,14.55,0,0,0-3.14-.3,11.85,11.85,0,0,0-4.91,1,9.46,9.46,0,0,0-3.58,2.72A12.22,12.22,0,0,0,181,10.67a19.57,19.57,0,0,0-.75,5.63,20.8,20.8,0,0,0,.9,6.23,16.51,16.51,0,0,0,2.47,5,11.66,11.66,0,0,0,3.73,3.29A9.57,9.57,0,0,0,192,32a13.8,13.8,0,0,0,3.52-.39,7,7,0,0,0,2.52-1.18,7.23,7.23,0,0,0,1.8-2,17.6,17.6,0,0,0,1.37-2.88,1.06,1.06,0,0,1,.48-.59,1.49,1.49,0,0,1,.7-.18,2.84,2.84,0,0,1,.64.08,3.36,3.36,0,0,1,.64.18c-.2.58-.42,1.24-.64,2s-.45,1.49-.69,2.26-.46,1.54-.65,2.31-.35,1.52-.48,2.24a50.65,50.65,0,0,1-5.15.67C194.35,34.6,192.43,34.66,190.34,34.66Z" fill="#fff"/><path d="M228.3,30.24a4,4,0,0,0,.07.85,1.07,1.07,0,0,0,.42.59,2.84,2.84,0,0,0,1,.44,13.79,13.79,0,0,0,1.73.33c.34.07.51.36.51.88,0,.1,0,.25,0,.46a2.85,2.85,0,0,1-.07.51l-3.53-.18c-1.25,0-2.35-.07-3.31-.07s-2.11,0-3.35.07l-3.49.18a1.07,1.07,0,0,1-.11-.51v-.46c0-.55.17-.84.52-.88a13.58,13.58,0,0,0,1.72-.33,2.55,2.55,0,0,0,1-.44,1.22,1.22,0,0,0,.41-.59,2.88,2.88,0,0,0,.11-.85V4.47a2.8,2.8,0,0,0-.11-.84,1.25,1.25,0,0,0-.41-.6,2.56,2.56,0,0,0-1-.43,15.3,15.3,0,0,0-1.72-.34c-.35-.1-.52-.39-.52-.87V.93a1.48,1.48,0,0,1,.11-.57c1.09.07,2.26.13,3.49.18s2.35.08,3.35.08,2.06,0,3.31-.08S230.8.43,231.9.36a4.44,4.44,0,0,1,.07.57c0,.2,0,.36,0,.46q0,.72-.51.87a15.55,15.55,0,0,0-1.73.34,2.85,2.85,0,0,0-1,.43,1.09,1.09,0,0,0-.42.6,3.93,3.93,0,0,0-.07.84Z" fill="#fff"/><path d="M246.3,30.24a4,4,0,0,0,.07.85,1.07,1.07,0,0,0,.42.59,2.84,2.84,0,0,0,1,.44,13.79,13.79,0,0,0,1.73.33c.34.07.51.36.51.88,0,.1,0,.25,0,.46a2.85,2.85,0,0,1-.07.51l-3.53-.18c-1.25,0-2.35-.07-3.31-.07s-2.11,0-3.35.07l-3.49.18a1.07,1.07,0,0,1-.11-.51v-.46c0-.55.17-.84.52-.88a13.58,13.58,0,0,0,1.72-.33,2.55,2.55,0,0,0,1-.44,1.22,1.22,0,0,0,.41-.59,2.88,2.88,0,0,0,.11-.85V4.47a2.8,2.8,0,0,0-.11-.84,1.25,1.25,0,0,0-.41-.6,2.56,2.56,0,0,0-1-.43,15.3,15.3,0,0,0-1.72-.34c-.35-.1-.52-.39-.52-.87V.93a1.48,1.48,0,0,1,.11-.57c1.09.07,2.26.13,3.49.18s2.35.08,3.35.08,2.06,0,3.31-.08S248.8.43,249.9.36a4.44,4.44,0,0,1,.07.57c0,.2,0,.36,0,.46q0,.72-.51.87a15.55,15.55,0,0,0-1.73.34,2.85,2.85,0,0,0-1,.43,1.09,1.09,0,0,0-.42.6,3.93,3.93,0,0,0-.07.84Z" fill="#fff"/></svg>