<svg xmlns="http://www.w3.org/2000/svg" width="260" height="68" viewBox="0 0 260 68"><path d="M23.19,39.7l-.12-.12h0v0a2.24,2.24,0,0,1-.69-1.83q0-15.49,0-31a3.12,3.12,0,0,1,.38-1.63c1-1,2.38-2.63,3.42-3.76h-11c.92,1.21,1.85,2.41,2.62,3.53a2.58,2.58,0,0,1,.22.44,2.53,2.53,0,0,1,.12.36,2.25,2.25,0,0,1,.09.56c0,1.95,0,3.89,0,5.84v0h0c0,2,0,3.9,0,5.85,0,.07,0,.14,0,.2l0,.74H11.37c0-3.95.05-7.76,0-11.57a5.13,5.13,0,0,1,.45-2.47L12,4.61l.13-.21a.76.76,0,0,0,.08-.11A3.88,3.88,0,0,1,12.42,4a7.34,7.34,0,0,0,.51-.6q.32-.41.63-.84c.28-.39.56-.79.87-1.2H0c.75.8,1.43,1.55,2.1,2.27.34.37.68.72,1,1.07h0a1.27,1.27,0,0,1,.22.25L3.43,5a1.64,1.64,0,0,1,.14.22,2.87,2.87,0,0,1,.29,1.4c0,2.44,0,4.89,0,7.33,0,7.27,0,14.54.05,21.8a12.21,12.21,0,0,1-.1,1.87,6.07,6.07,0,0,1-.25,1.06c0,.1-.07.2-.11.3s-.12.26-.19.38a6.75,6.75,0,0,1-.74,1,4.19,4.19,0,0,1-.55.46A11.83,11.83,0,0,0,.34,42.42a1.25,1.25,0,0,0-.16.22c-.06.08-.11.18-.18.27H14.48l-.1-.12c-.9-1.16-1.72-2.16-2.45-3.24a3.16,3.16,0,0,1-.54-1.62c0-4.59,0-9.19,0-13.78v-1h6.9v1.12c0,1,0,2,0,2.93,0,2,0,3.92,0,5.87,0,1,0,1.95.06,2.93a7.06,7.06,0,0,1-.71,3.74c0,.07-.07.14-.11.2h0a4.4,4.4,0,0,1-.36.52,5.21,5.21,0,0,1-.45.5,6.81,6.81,0,0,0-.59.7c-.3.39-.59.82-.93,1.27H26.31C25.18,41.74,24.21,40.68,23.19,39.7Z" fill="#fff"/><path d="M176.9,38.3a1.9,1.9,0,0,1-.47.75l-.09.07-.07,0-.11.05-.08,0-.14,0h-.31c-1.82-.06-3.47-.16-5.45,0h-.45l-.71,0c0-.17,0-.31,0-.45V24.36a4.08,4.08,0,0,1,0-.91.47.47,0,0,1,.4-.31h2.14a2.84,2.84,0,0,1,1.56,1.71l0,.09a4.5,4.5,0,0,1,.16.44,39.58,39.58,0,0,0,1.87,4.15l.14-.06v-16h0l-.62,1.09c-.7,1.27-1.38,2.56-2.1,3.82-.14.24-.38.55-.58.56l-.57,0H169V6.15a2,2,0,0,1,.45-1.24c2.17,0,3.81-.1,5.9,0h0l.08,0,0,0s0,0,.06,0l0,0,0,0s0,0,0,0a1.72,1.72,0,0,1,.35.51c1.12,2.45,2.21,4.92,3.3,7.39.18.42.37.83.66,1.48h0V1.35h-6.67v0h-7v0h-7c1.15,1.21,2.13,2.31,3.17,3.33a2.33,2.33,0,0,1,.32.46l0,0a2.54,2.54,0,0,1,.34,1.39c0,9.13,0,18.26,0,27.38,0,1.63.37,3.49-.15,4.82a3.13,3.13,0,0,1-.22.45,1.74,1.74,0,0,0-.11.18l-.18.26-.14.17c-.07.08-.13.16-.21.24l-.15.16c-.08.08-.15.16-.23.23l-.16.16-.26.23-.18.16-.35.31-.25.23-.17.15L160,42h0l0,0c-.24.25-.47.51-.82.89h21.7V27.24a16.62,16.62,0,0,0-.53,2.47C179.21,32.57,178,35.42,176.9,38.3Z" fill="#fff"/><path d="M201.49,30.54a12.06,12.06,0,0,0-3.77-8.9A31.81,31.81,0,0,0,195,19.46c-1.65-1.22-3.4-2.26-5-3.62A9.28,9.28,0,0,1,187.57,6c.82-2.6,2.67-3.37,4.49-1.65a14.16,14.16,0,0,1,2.62,3.53c1.32,2.53,2.45,5.2,3.67,7.81.14.29.29.58.43.88h0l.14-.06V.4l-1.31,1.47-.12.14c-.44.48-.85,1-1.26,1.41L195.76,3A21.42,21.42,0,0,0,194,1.39a6.54,6.54,0,0,0-9.46,1.5A9,9,0,0,0,183.39,5a18.39,18.39,0,0,0-1.19,7.85s0,.06,0,.09c0,.42.07.83.13,1.24,0,.12,0,.24,0,.36a19.65,19.65,0,0,0,.4,2,2.81,2.81,0,0,0,.08.31,11.44,11.44,0,0,0,.58,1.65c.09.21.18.4.28.59a11.44,11.44,0,0,0,2.19,3l0,0a16,16,0,0,0,2.84,2.19c1.34.84,2.21,1.44,2.79,1.88l.7.56a10.45,10.45,0,0,1,3.56,9,.28.28,0,0,0,0,.09c0,.44-.07.88-.13,1.33l0,.2a4.5,4.5,0,0,1-.87,2.22,2.19,2.19,0,0,1-2.68.65,8.07,8.07,0,0,1-2.81-2.76c-.23-.29-.45-.6-.66-.91a34.91,34.91,0,0,1-4.44-9.86c-.09-.31-.19-.61-.29-.92l-.1,0,0,0h0V44h0l.07-.11.18-.25h0l.06-.09,2.61-3.76c.18.27.28.41.38.57,3.75,5.84,10.31,5,13.15-1.56A18.88,18.88,0,0,0,201.49,30.54Z" fill="#fff"/><path d="M93.87,27.24a3.5,3.5,0,0,0-.58,1.07c-1.07,2.92-2.25,5.78-3.17,8.76a3.14,3.14,0,0,1-1.35,2h0a2.33,2.33,0,0,1-1.06.23h-.06l-.41,0h0a42,42,0,0,0-4.63,0c0-.11,0-.2,0-.29,0-.27,0-.48,0-.69,0-5.35,0-10.69,0-16s0-10.69,0-16A2.2,2.2,0,0,1,83,5c.51-.54,2.58-2.56,3.47-3.65H72.9l.11.12c1.06,1.18,3.16,3.41,3.36,3.67h0a2.49,2.49,0,0,1,.33,1.37q0,15.65,0,31.29A2.49,2.49,0,0,1,76.46,39h0a1.37,1.37,0,0,1-.19.3h0a2.27,2.27,0,0,1-.26.28l-.06.06c-1.07,1-2.09,2.09-3.28,3.3H93.87V27.24Z" fill="#fff"/><path d="M67.63,39.6h0c-.07-.06-.12-.12-.18-.18l0-.07-.1-.14a.22.22,0,0,1-.05-.08L67.16,39a.42.42,0,0,0,0-.1s0-.09-.05-.13a2.94,2.94,0,0,1-.14-1c0-7.13.07-14.26,0-21.39,0-2.39,0-4.77-.07-7.16,0-.5,0-1,0-1.43a.66.66,0,0,0,0-.14c0-.24,0-.47.08-.7a7,7,0,0,1,.53-1.88,1.72,1.72,0,0,1,.26-.38c.91-1,2.1-2.14,3.09-3.37H57.31c1.14,1.22,2.1,2.29,3.1,3.3l.33.39a2.33,2.33,0,0,1,.42,1.47c0,10,0,20.08,0,30.12a6.35,6.35,0,0,1-.31,2.2h0a3.2,3.2,0,0,1-.37.71,3.74,3.74,0,0,1-.84.9l-.33.28c-.51.45-1,1-1.53,1.53l-.66.68H71C69.75,41.69,68.72,40.61,67.63,39.6Z" fill="#fff"/><path d="M255.28,28.91h3.88c.07-1.29.13-2.53.19-3.73.25-5.38.41-9.94.42-14.92h0c0-2.77,0-5.67-.13-8.92h-5.13c0,2.56-.15,5.08,0,7.56C254.72,16.88,255.28,28.91,255.28,28.91Z" fill="#fff"/><path d="M102.18,34.35h0c0-.05-.06-.1-.09-.14h-5v7.41h2.52c-.06,3.52-.86,6.31-3.51,8.23.07.11,1,1.35,1.07,1.46a12.15,12.15,0,0,0,4.34-5.64C102.66,42,102.15,38.14,102.18,34.35Z" fill="#fff"/><polygon points="260 34.51 260 34.51 260 34.51 257.07 34.51 257.07 34.51 254.53 34.51 254.53 42.91 257.07 42.91 257.07 42.91 260 42.91 260 42.91 260 42.91 260 34.51" fill="#fff"/><path d="M132.34,38a40.24,40.24,0,0,0,1.08-11.71h0l-2.53.06c-.07,2.94-.16,7-1.09,9.8-.81,2.4-2.11,3.8-4.31,3.85-1.72.11-3-1-4-3.49a22.22,22.22,0,0,1-1.36-6.5,99.7,99.7,0,0,1,0-16.21,24.75,24.75,0,0,1,1.64-8c1.06-2.42,2.84-3,4.62-1.33a14.9,14.9,0,0,1,2.72,3.79A37.49,37.49,0,0,1,132,17,10.07,10.07,0,0,0,132.4,18l.2-.07V1l-2.15,3.54c-.61-.64-1.17-1.27-1.74-1.86-.34-.35-.68-.69-1-1-2-1.72-4-2-6-1a8.05,8.05,0,0,0-1.56,1.13,16.11,16.11,0,0,0-3.48,4.73s-.05.09-.07.14a.25.25,0,0,1,0,.07,30.19,30.19,0,0,0-1.41,3.44,39,39,0,0,0-1.44,19.16l.24,1.39c.08.42.17.84.26,1.26,0,.26.11.53.17.79a22.8,22.8,0,0,0,1.64,4.8,16.93,16.93,0,0,0,2.71,4.06,7.78,7.78,0,0,0,11.08.49A9.38,9.38,0,0,0,132.34,38Z" fill="#fff"/><path d="M52.48,39.83l-.42-.42h0a2.09,2.09,0,0,1-.25-.32h0a2.82,2.82,0,0,1-.21-.38,2.18,2.18,0,0,1-.23-.63Q48.42,22.26,45.51,6.43a1.92,1.92,0,0,1,.12-1.32A.83.83,0,0,1,45.72,5l0,0,.16-.2c.77-.87,1.49-1.79,2.3-2.79l.46-.58H35c1,1.13,1.84,2.18,2.78,3.08h0a3.74,3.74,0,0,1,.27.31l.06.08c.06.08.11.17.16.25a2.63,2.63,0,0,1,.16,1.79c-1.74,9.61-3.49,19.21-5.12,28.85a9.56,9.56,0,0,1-1.51,4.14l-.22.29c-.1.12-.21.24-.32.35a1.85,1.85,0,0,1-.14.14c-.15.14-.31.29-.48.42h0A15.67,15.67,0,0,0,29,42.66l-.24.25H40L40,42.82c-.81-1-1.63-2.07-2.42-3.14l-.19-.27a.61.61,0,0,1-.07-.1,2.2,2.2,0,0,1-.23-.59,1.36,1.36,0,0,1,0-.48c.07-.55.14-1.1.22-1.65.21-1.44.45-2.87.65-4.31A1.77,1.77,0,0,1,38,31.9l.06-.14a.6.6,0,0,1,.23-.22H44c.23.12.33.37.39.79.26,1.83.52,3.66.88,5.47a1.85,1.85,0,0,1-.13,1.36h0c0,.08-.1.15-.15.23l0,0c-.06.07-.12.15-.2.23h0c-.52.52-1,1.06-1.56,1.63l-1.47,1.6-.06.06h13.7l0-.16v0C54.45,41.76,53.45,40.82,52.48,39.83Zm-12-24.4L41,12.3h0l.2,0c.82,5.09,1.65,10.18,2.49,15.35h-5C39.23,23.56,39.86,19.49,40.47,15.43Z" fill="#fff"/><path d="M155.3,39.83l-.42-.42h0a2.09,2.09,0,0,1-.25-.32h0a2.88,2.88,0,0,1-.22-.38,2.52,2.52,0,0,1-.23-.63q-2.94-15.82-5.85-31.65a1.92,1.92,0,0,1,.12-1.32.86.86,0,0,1,.1-.16l0,0,.16-.2c.77-.87,1.5-1.79,2.3-2.79l.46-.58H137.81c1,1.13,1.85,2.18,2.78,3.08h0a3.92,3.92,0,0,1,.28.31l0,.08a1.75,1.75,0,0,1,.16.25,2.58,2.58,0,0,1,.16,1.79c-1.74,9.61-3.49,19.21-5.11,28.85a9.7,9.7,0,0,1-1.52,4.14l-.22.29a3.49,3.49,0,0,1-.32.35,1.85,1.85,0,0,1-.14.14c-.15.14-.31.29-.48.42h0a15.67,15.67,0,0,0-1.64,1.63l-.23.25h11.26l-.06-.09c-.82-1-1.64-2.07-2.42-3.14l-.2-.27-.06-.1a1.93,1.93,0,0,1-.24-.59,1.36,1.36,0,0,1,0-.48c.07-.55.15-1.1.23-1.65.21-1.44.44-2.87.65-4.31a1.8,1.8,0,0,1,.08-.38.91.91,0,0,1,.07-.14.49.49,0,0,1,.23-.22h5.75c.23.12.33.37.39.79.26,1.83.53,3.66.89,5.47a1.9,1.9,0,0,1-.14,1.36h0a1.5,1.5,0,0,1-.15.23v0l-.21.23h0c-.52.52-1,1.06-1.56,1.63l-1.47,1.6-.06.06h13.7l0-.16v0C157.27,41.76,156.27,40.82,155.3,39.83Zm-12-24.4.48-3.13h0l.2,0c.83,5.09,1.65,10.18,2.49,15.35h-5C142.06,23.56,142.68,19.49,143.3,15.43Z" fill="#fff"/><path d="M223.2,39.83l-.42-.42h0a2.13,2.13,0,0,1-.26-.32h0c-.08-.12-.15-.25-.22-.38a2.49,2.49,0,0,1-.22-.63q-2.94-15.82-5.85-31.65a2,2,0,0,1,.11-1.32c0-.06.07-.11.1-.16l0,0a2.33,2.33,0,0,1,.16-.2c.76-.87,1.49-1.79,2.3-2.79l.46-.58H205.71c1,1.13,1.84,2.18,2.78,3.08h0a3.74,3.74,0,0,1,.27.31l.06.08c.06.08.11.17.16.25a2.69,2.69,0,0,1,.16,1.79c-1.74,9.61-3.49,19.21-5.12,28.85a9.56,9.56,0,0,1-1.51,4.14l-.23.29c-.1.12-.2.24-.31.35l-.14.14c-.16.14-.31.29-.48.42h0a15.67,15.67,0,0,0-1.64,1.63l-.24.25h11.27l-.07-.09c-.81-1-1.63-2.07-2.42-3.14l-.2-.27-.06-.1a2.2,2.2,0,0,1-.23-.59,1.67,1.67,0,0,1,0-.48c.07-.55.15-1.1.23-1.65.21-1.44.45-2.87.65-4.31a1.77,1.77,0,0,1,.09-.38l.06-.14a.54.54,0,0,1,.23-.22h5.76c.23.12.33.37.39.79.26,1.83.52,3.66.88,5.47a1.9,1.9,0,0,1-.13,1.36h0l-.15.23,0,0c-.06.07-.12.15-.2.23h0c-.52.52-1,1.06-1.56,1.63l-1.47,1.6-.07.06h13.7l0-.16v0C225.17,41.76,224.16,40.82,223.2,39.83Zm-12-24.4.48-3.13h0l.21,0c.82,5.09,1.65,10.18,2.48,15.35h-5.05C210,23.56,210.57,19.49,211.19,15.43Z" fill="#fff"/><path d="M251.36,42.92c-2.33-2.29-2.88-5.24-3.21-8.34-.19-1.8-.47-3.6-.81-5.38-.59-3-1.35-5.95-4-7.46a25,25,0,0,0,2.27-1.17c5-3.25,4.39-12.67.94-16.15A10.47,10.47,0,0,0,239,1.3h-.36c-1.46,0-2.92,0-4.39,0h-6.53a4.66,4.66,0,0,0-.64.1c1.16,1.28,2.22,2.41,3.24,3.61a1.25,1.25,0,0,1,.16.22.16.16,0,0,1,0,.06,1.34,1.34,0,0,1,.12.24v0a1.67,1.67,0,0,1,.13.61q0,16,0,32.06a1.83,1.83,0,0,1-.23.79l-.08.13a1.91,1.91,0,0,1-.15.21c-1,1-2,2-3,3a5.25,5.25,0,0,0-.43.57h13.63c-1.23-1.28-2.29-2.41-3.39-3.49a1.92,1.92,0,0,1-.26-.32h0a2,2,0,0,1-.31-1.18c0-4.21,0-8.41,0-12.62,0-.18,0-.61,0-1.09,0-.07,0-.14,0-.2a2.74,2.74,0,0,1,.13-.55h0c.2-.4.66-.4,1.71-.39,1.74,0,2.6.65,3.11,2.69a30.55,30.55,0,0,1,.78,4.67,93.67,93.67,0,0,0,1.43,11.49,1.68,1.68,0,0,0,.39.88h0a.89.89,0,0,0,.55.22H245c.77,0,1.54,0,2.32,0a1.85,1.85,0,0,0,.43,0l.89,0h2ZM236.65,19.28V4.68a29.16,29.16,0,0,1,3.86.55C242,5.63,242.72,7,243,8.69a19.69,19.69,0,0,1,0,7.26c-.39,2.11-1.44,3.2-3.21,3.32C238.81,19.34,237.76,19.28,236.65,19.28Z" fill="#fff"/><path d="M140.05,58.68h6.49a12.54,12.54,0,0,1-1,1,1.68,1.68,0,0,0-.58,1.46c0,1.17,0,1.17,1.3,1.17h1.92a6,6,0,0,0-.05-2.05c-.22-.57-.86-1-1.39-1.59h6.44c-.57.49-1.08.89-1.54,1.35a1.19,1.19,0,0,0-.35.76c0,1.62,0,3.23,0,4.85a1.08,1.08,0,0,0,.34.71c.48.46,1,.87,1.66,1.39H146.8A7.12,7.12,0,0,0,148.22,66a6.54,6.54,0,0,0,.05-2.18c-1,0-2,0-3,0-.1,0-.26.18-.26.28a10.81,10.81,0,0,0,0,1.8c0,.25.29.48.48.69s.61.69,1,1.11H140c.6-.49,1.14-.89,1.62-1.35a1.27,1.27,0,0,0,.39-.8c0-1.59,0-3.19,0-4.79a1.29,1.29,0,0,0-.36-.76C141.17,59.6,140.66,59.2,140.05,58.68Z" fill="#fff"/><path d="M198.42,67.77h-6.57a12.69,12.69,0,0,1,.88-1,1.88,1.88,0,0,0,.67-1.65c-.05-1.3,0-1.3-1.4-1.3h-1.5c-.32,0-.43.11-.43.4,0,.5,0,1,0,1.52a1.3,1.3,0,0,0,.3.64c.35.43.75.83,1.19,1.33h-6.52c.51-.42.93-.8,1.39-1.12a1.35,1.35,0,0,0,.64-1.29c0-1.5,0-3,0-4.51a1.2,1.2,0,0,0-.36-.77c-.44-.45-1-.84-1.55-1.35h6.45l-1.26,1.37a3.75,3.75,0,0,0-.22,2.11.56.56,0,0,0,.41.15h2.41c.35,0,.46-.13.45-.44s0-.79,0-1.18a1.38,1.38,0,0,0-.3-.69c-.36-.44-.77-.85-1.23-1.35h6.49c-.59.51-1.09.89-1.53,1.34a1.37,1.37,0,0,0-.39.81c0,1.59,0,3.19,0,4.79a1.31,1.31,0,0,0,.4.8C197.27,66.86,197.79,67.25,198.42,67.77Z" fill="#fff"/><path d="M210.93,67.8c-1.31,0-2.45,0-3.59,0-.13,0-.33-.23-.38-.39-.18-.63-.27-1.29-.46-1.92-.43-1.4-.94-1.68-2.6-1.45,0,.63,0,1.29,0,1.93,0,.14.16.29.29.4l1.68,1.39h-7c.59-.47,1.08-.9,1.61-1.29a1,1,0,0,0,.44-.86c0-1.57,0-3.15,0-4.73a1.41,1.41,0,0,0-.42-.85,18.49,18.49,0,0,0-1.48-1.3c.26,0,.4-.06.55-.06,2.17,0,4.34,0,6.51,0a7.31,7.31,0,0,1,2.22.45,2.87,2.87,0,0,1,1.2.89,1.9,1.9,0,0,1-.59,2.93,9.91,9.91,0,0,1-1.08.53,4.59,4.59,0,0,1,1.8,2.78,3.71,3.71,0,0,0,.79,1C210.49,67.37,210.65,67.52,210.93,67.8Zm-7-5.21c.63,0,1.19,0,1.75,0,.72,0,1-.43,1-1.26s-.29-1.27-1-1.33-1.19,0-1.82,0Z" fill="#fff"/><path d="M104.36,68.17c-3.09,0-5.48-2.09-5.48-4.74s2.68-5.08,5.44-5c2.92,0,5.47,2.35,5.46,4.93A5.06,5.06,0,0,1,104.36,68.17Zm2.08-4.81-.15,0a4.71,4.71,0,0,0-.71-2.75,1.39,1.39,0,0,0-2.5,0,5.1,5.1,0,0,0,0,5.29,1.42,1.42,0,0,0,2.65-.05A14.87,14.87,0,0,0,106.44,63.36Z" fill="#fff"/><path d="M61,58.68h7.59l-.86.85c-.86.82-.86.82-.37,1.88.56,1.23,1.15,2.44,1.67,3.68a3.65,3.65,0,0,0,1.38,1.73c.37.25.7.56,1.15.92H64.44l1.44-1.25c.24-.21.45-.37.28-.76a.7.7,0,0,0-.77-.46c-.7,0-1.41,0-2.11,0a.83.83,0,0,0-.53.31.51.51,0,0,0,0,.76c.46.41.87.87,1.38,1.39H58.48c.62-.5,1.16-.91,1.66-1.35a2.2,2.2,0,0,0,.55-.71c.71-1.62,1.37-3.25,2.09-4.86a.62.62,0,0,0-.24-.86C62.05,59.59,61.6,59.18,61,58.68Zm4.29,5.2-.92-2.14-.14,0-.84,2.12Z" fill="#fff"/><path d="M34.53,54.64c-.59.47-1.16,1-1.77,1.39a1.16,1.16,0,0,0-.38,1.7c1,2.09,2,4.22,2.91,6.36A4.8,4.8,0,0,0,37,66.18c.63.44,1.2,1,2,1.57H28.3l2.1-1.83c.38-.32.71-.58.46-1.19s-.68-.66-1.24-.65c-1,0-2,0-3,0a1,1,0,0,0-.75.49,1.19,1.19,0,0,0,.05,1c.58.71,1.28,1.34,2.07,2.13H19.48A26.63,26.63,0,0,0,21.59,66,6.44,6.44,0,0,0,23,64.26c1-2.24,1.94-4.54,2.93-6.8a.8.8,0,0,0-.27-1.14c-.74-.58-1.44-1.22-2.32-2h11ZM29.64,62,28.18,58.6,26.82,62Z" fill="#fff"/><path d="M219.22,63.82c.43.47.79.92,1.22,1.31a5.82,5.82,0,0,0,3.9,1.67,2.7,2.7,0,0,0,1.1-.22.74.74,0,0,0,0-1.41,8.56,8.56,0,0,0-1.62-.42c-.84-.17-1.71-.26-2.53-.49a2.88,2.88,0,0,1-2.22-4,2.6,2.6,0,0,1,1.83-1.66,6,6,0,0,1,4.17.26,1.44,1.44,0,0,0,1.55-.11,4.87,4.87,0,0,1,.6-.29v3.59c-.15-.13-.26-.21-.36-.31A6.91,6.91,0,0,0,224,60a7.94,7.94,0,0,0-2.13-.16.82.82,0,0,0-.18,1.63c.81.21,1.64.34,2.46.5a18.66,18.66,0,0,1,2,.42,2.67,2.67,0,0,1,2.15,3.1,3,3,0,0,1-2.8,2.68,7.53,7.53,0,0,1-4.22-.67,1.1,1.1,0,0,0-1.26,0,7,7,0,0,1-.8.44Z" fill="#fff"/><path d="M92.6,61.7a15.25,15.25,0,0,1-1.34-1.09A2.2,2.2,0,0,0,89.38,60c-.55,0-1.11,0-1.73,0,0,.74,0,1.42,0,2.09,0,.09.22.25.35.26A1.61,1.61,0,0,0,89.4,62c.27-.24.6-.42,1-.69v3.8c-.88-.43-1.35-1.64-2.69-1.14v2.54c.89,0,1.79,0,2.69,0,.15,0,.3-.16.44-.27l1.94-1.58v3.14H82.56c.64-.51,1.19-.92,1.7-1.39a1.1,1.1,0,0,0,.35-.7c0-1.64,0-3.27,0-4.91a1.13,1.13,0,0,0-.34-.71c-.46-.44-1-.84-1.56-1.35H92.6Z" fill="#fff"/><path d="M163.75,58.7v3a15.7,15.7,0,0,1-1.28-1.06,2.25,2.25,0,0,0-2-.69c-.53,0-1.07,0-1.67,0,0,.74,0,1.42,0,2.09,0,.09.22.25.35.26a1.63,1.63,0,0,0,1.39-.35,11,11,0,0,1,1-.69v3.89a10.47,10.47,0,0,1-1.06-.92,1.42,1.42,0,0,0-1.36-.39c-.12,0-.31.2-.31.3,0,.75,0,1.5,0,2.33.93,0,1.81,0,2.69,0a1.08,1.08,0,0,0,.5-.29l1.94-1.58v3.15H153.74c.6-.5,1.15-.89,1.63-1.35a1.35,1.35,0,0,0,.41-.8c0-1.6,0-3.2,0-4.79a1.33,1.33,0,0,0-.4-.81c-.43-.44-.93-.82-1.51-1.31Z" fill="#fff"/><path d="M119.54,61.74c-.68-.56-1.19-1-1.76-1.44a2.07,2.07,0,0,0-.91-.32c-.69,0-1.39,0-2.16,0,0,.79,0,1.52,0,2.25,0,.34.67.46,1.15.18s.92-.59,1.45-.94v3.82c-.85-.39-1.27-1.55-2.59-1.14,0,.59,0,1.21,0,1.84,0,.13.2.27.34.37L117,67.74h-7.34c.54-.43,1-.84,1.49-1.18a1.23,1.23,0,0,0,.57-1.15c0-1.44,0-2.89,0-4.33a1.32,1.32,0,0,0-.56-1.22c-.46-.32-.86-.72-1.37-1.16.29,0,.43-.05.58-.05,2.86,0,5.72,0,8.57,0,.47,0,.64.11.62.57C119.51,60,119.54,60.77,119.54,61.74Z" fill="#fff"/><path d="M184.16,61.64a6.86,6.86,0,0,1,.37,1.28,4.79,4.79,0,0,1-3.69,4.89,9.89,9.89,0,0,1-7-.46,6.17,6.17,0,0,1-4-5.68,6.53,6.53,0,0,1,3.69-6.14,7.52,7.52,0,0,1,8.4.2l.56.35L184,54.86v5.46c-.27-.49-.45-.82-.65-1.15a5.23,5.23,0,0,0-4.71-2.66,3.29,3.29,0,0,0-3.45,2.23,7.55,7.55,0,0,0,0,5,3,3,0,0,0,2.26,2,7.11,7.11,0,0,0,4.11-.19A3.09,3.09,0,0,0,183.65,63c.07-.42.11-.83.16-1.25Z" fill="#fff"/><path d="M139.19,59a18.74,18.74,0,0,1-1.73-1.75,2.58,2.58,0,0,0-3-.93,6.28,6.28,0,0,0-.07.67c0,2.53,0,5,0,7.57a1.81,1.81,0,0,0,.59,1.18c.7.67,1.5,1.24,2.43,2H127c.94-.76,1.74-1.4,2.51-2.06.23-.19.5-.48.5-.73,0-2.85,0-5.7,0-8.6-1.1-.17-2.06-.29-2.82.69a26.29,26.29,0,0,1-2,2v-4.7h14Z" fill="#fff"/><path d="M56.29,67.76H45.71c.95-.77,1.76-1.4,2.52-2.08a1.31,1.31,0,0,0,.5-.81c0-2.83,0-5.66,0-8.54-1.09-.17-2-.3-2.81.68a21.71,21.71,0,0,1-2,2V54.35H58V59a20.23,20.23,0,0,1-1.91-1.95c-.74-1-1.7-.91-2.84-.75v2.84c0,1.84,0,3.67,0,5.5a1.65,1.65,0,0,0,.52,1C54.49,66.37,55.31,67,56.29,67.76Z" fill="#fff"/><path d="M229,58.67h9.45v3.19a11.88,11.88,0,0,1-1.23-1.26,1.77,1.77,0,0,0-1.94-.58,4,4,0,0,0,0,.49c0,1.71,0,3.42,0,5.13a1.22,1.22,0,0,0,.37.75c.48.45,1,.84,1.65,1.35h-7.09c.54-.44,1-.85,1.49-1.2a1.23,1.23,0,0,0,.57-1.14c0-1.58,0-3.16,0-4.73V60c-.78-.13-1.44-.16-2,.52A14.9,14.9,0,0,1,229,61.83Z" fill="#fff"/><path d="M72.07,58.68h6.85c-.58.52-1.09.94-1.56,1.39a1,1,0,0,0-.33.55c0,1.88,0,3.76,0,5.64a2,2,0,0,0,.06.23c.74,0,1.5,0,2.26,0,.16,0,.34-.18.47-.31L82,64v3.77h-10c.59-.47,1-.87,1.55-1.23a1.11,1.11,0,0,0,.53-1c0-1.52,0-3,0-4.56a1.06,1.06,0,0,0-.45-1C73.08,59.59,72.65,59.18,72.07,58.68Z" fill="#fff"/><path d="M211.32,58.68h6.92c-.6.51-1.1.9-1.55,1.34a1.24,1.24,0,0,0-.37.76c0,1.63,0,3.27,0,4.9a1.05,1.05,0,0,0,.35.7c.49.46,1,.86,1.68,1.37H211.2c.63-.49,1.16-.88,1.63-1.32a1.26,1.26,0,0,0,.42-.79c0-1.61,0-3.23,0-4.85a1.19,1.19,0,0,0-.37-.76C212.44,59.59,211.93,59.2,211.32,58.68Z" fill="#fff"/><path d="M140.05,58.68h6.49a12.54,12.54,0,0,1-1,1,1.68,1.68,0,0,0-.58,1.46c0,1.17,0,1.17,1.3,1.17h1.92a6,6,0,0,0-.05-2.05c-.22-.57-.86-1-1.39-1.59h6.44c-.57.49-1.08.89-1.54,1.35a1.19,1.19,0,0,0-.35.76c0,1.62,0,3.23,0,4.85a1.08,1.08,0,0,0,.34.71c.48.46,1,.87,1.66,1.39H146.8A7.12,7.12,0,0,0,148.22,66a6.54,6.54,0,0,0,.05-2.18c-1,0-2,0-3,0-.1,0-.26.18-.26.28a10.81,10.81,0,0,0,0,1.8c0,.25.29.48.48.69s.61.69,1,1.11H140c.6-.49,1.14-.89,1.62-1.35a1.27,1.27,0,0,0,.39-.8c0-1.59,0-3.19,0-4.79a1.29,1.29,0,0,0-.36-.76C141.17,59.6,140.66,59.2,140.05,58.68Z" fill="#fff"/><path d="M198.42,67.77h-6.57a12.69,12.69,0,0,1,.88-1,1.88,1.88,0,0,0,.67-1.65c-.05-1.3,0-1.3-1.4-1.3h-1.5c-.32,0-.43.11-.43.4,0,.5,0,1,0,1.52a1.3,1.3,0,0,0,.3.64c.35.43.75.83,1.19,1.33h-6.52c.51-.42.93-.8,1.39-1.12a1.35,1.35,0,0,0,.64-1.29c0-1.5,0-3,0-4.51a1.2,1.2,0,0,0-.36-.77c-.44-.45-1-.84-1.55-1.35h6.45l-1.26,1.37a3.75,3.75,0,0,0-.22,2.11.56.56,0,0,0,.41.15h2.41c.35,0,.46-.13.45-.44s0-.79,0-1.18a1.38,1.38,0,0,0-.3-.69c-.36-.44-.77-.85-1.23-1.35h6.49c-.59.51-1.09.89-1.53,1.34a1.37,1.37,0,0,0-.39.81c0,1.59,0,3.19,0,4.79a1.31,1.31,0,0,0,.4.8C197.27,66.86,197.79,67.25,198.42,67.77Z" fill="#fff"/><path d="M210.93,67.8c-1.31,0-2.45,0-3.59,0-.13,0-.33-.23-.38-.39-.18-.63-.27-1.29-.46-1.92-.43-1.4-.94-1.68-2.6-1.45,0,.63,0,1.29,0,1.93,0,.14.16.29.29.4l1.68,1.39h-7c.59-.47,1.08-.9,1.61-1.29a1,1,0,0,0,.44-.86c0-1.57,0-3.15,0-4.73a1.41,1.41,0,0,0-.42-.85,18.49,18.49,0,0,0-1.48-1.3c.26,0,.4-.06.55-.06,2.17,0,4.34,0,6.51,0a7.31,7.31,0,0,1,2.22.45,2.87,2.87,0,0,1,1.2.89,1.9,1.9,0,0,1-.59,2.93,9.91,9.91,0,0,1-1.08.53,4.59,4.59,0,0,1,1.8,2.78,3.71,3.71,0,0,0,.79,1C210.49,67.37,210.65,67.52,210.93,67.8Zm-7-5.21c.63,0,1.19,0,1.75,0,.72,0,1-.43,1-1.26s-.29-1.27-1-1.33-1.19,0-1.82,0Z" fill="#fff"/><path d="M104.36,68.17c-3.09,0-5.48-2.09-5.48-4.74s2.68-5.08,5.44-5c2.92,0,5.47,2.35,5.46,4.93A5.06,5.06,0,0,1,104.36,68.17Zm2.08-4.81-.15,0a4.71,4.71,0,0,0-.71-2.75,1.39,1.39,0,0,0-2.5,0,5.1,5.1,0,0,0,0,5.29,1.42,1.42,0,0,0,2.65-.05A14.87,14.87,0,0,0,106.44,63.36Z" fill="#fff"/><path d="M61,58.68h7.59l-.86.85c-.86.82-.86.82-.37,1.88.56,1.23,1.15,2.44,1.67,3.68a3.65,3.65,0,0,0,1.38,1.73c.37.25.7.56,1.15.92H64.44l1.44-1.25c.24-.21.45-.37.28-.76a.7.7,0,0,0-.77-.46c-.7,0-1.41,0-2.11,0a.83.83,0,0,0-.53.31.51.51,0,0,0,0,.76c.46.41.87.87,1.38,1.39H58.48c.62-.5,1.16-.91,1.66-1.35a2.2,2.2,0,0,0,.55-.71c.71-1.62,1.37-3.25,2.09-4.86a.62.62,0,0,0-.24-.86C62.05,59.59,61.6,59.18,61,58.68Zm4.29,5.2-.92-2.14-.14,0-.84,2.12Z" fill="#fff"/><path d="M34.53,54.64c-.59.47-1.16,1-1.77,1.39a1.16,1.16,0,0,0-.38,1.7c1,2.09,2,4.22,2.91,6.36A4.8,4.8,0,0,0,37,66.18c.63.44,1.2,1,2,1.57H28.3l2.1-1.83c.38-.32.71-.58.46-1.19s-.68-.66-1.24-.65c-1,0-2,0-3,0a1,1,0,0,0-.75.49,1.19,1.19,0,0,0,.05,1c.58.71,1.28,1.34,2.07,2.13H19.48A26.63,26.63,0,0,0,21.59,66,6.44,6.44,0,0,0,23,64.26c1-2.24,1.94-4.54,2.93-6.8a.8.8,0,0,0-.27-1.14c-.74-.58-1.44-1.22-2.32-2h11ZM29.64,62,28.18,58.6,26.82,62Z" fill="#fff"/><path d="M219.22,63.82c.43.47.79.92,1.22,1.31a5.82,5.82,0,0,0,3.9,1.67,2.7,2.7,0,0,0,1.1-.22.74.74,0,0,0,0-1.41,8.56,8.56,0,0,0-1.62-.42c-.84-.17-1.71-.26-2.53-.49a2.88,2.88,0,0,1-2.22-4,2.6,2.6,0,0,1,1.83-1.66,6,6,0,0,1,4.17.26,1.44,1.44,0,0,0,1.55-.11,4.87,4.87,0,0,1,.6-.29v3.59c-.15-.13-.26-.21-.36-.31A6.91,6.91,0,0,0,224,60a7.94,7.94,0,0,0-2.13-.16.82.82,0,0,0-.18,1.63c.81.21,1.64.34,2.46.5a18.66,18.66,0,0,1,2,.42,2.67,2.67,0,0,1,2.15,3.1,3,3,0,0,1-2.8,2.68,7.53,7.53,0,0,1-4.22-.67,1.1,1.1,0,0,0-1.26,0,7,7,0,0,1-.8.44Z" fill="#fff"/><path d="M92.6,61.7a15.25,15.25,0,0,1-1.34-1.09A2.2,2.2,0,0,0,89.38,60c-.55,0-1.11,0-1.73,0,0,.74,0,1.42,0,2.09,0,.09.22.25.35.26A1.61,1.61,0,0,0,89.4,62c.27-.24.6-.42,1-.69v3.8c-.88-.43-1.35-1.64-2.69-1.14v2.54c.89,0,1.79,0,2.69,0,.15,0,.3-.16.44-.27l1.94-1.58v3.14H82.56c.64-.51,1.19-.92,1.7-1.39a1.1,1.1,0,0,0,.35-.7c0-1.64,0-3.27,0-4.91a1.13,1.13,0,0,0-.34-.71c-.46-.44-1-.84-1.56-1.35H92.6Z" fill="#fff"/><path d="M163.75,58.7v3a15.7,15.7,0,0,1-1.28-1.06,2.25,2.25,0,0,0-2-.69c-.53,0-1.07,0-1.67,0,0,.74,0,1.42,0,2.09,0,.09.22.25.35.26a1.63,1.63,0,0,0,1.39-.35,11,11,0,0,1,1-.69v3.89a10.47,10.47,0,0,1-1.06-.92,1.42,1.42,0,0,0-1.36-.39c-.12,0-.31.2-.31.3,0,.75,0,1.5,0,2.33.93,0,1.81,0,2.69,0a1.08,1.08,0,0,0,.5-.29l1.94-1.58v3.15H153.74c.6-.5,1.15-.89,1.63-1.35a1.35,1.35,0,0,0,.41-.8c0-1.6,0-3.2,0-4.79a1.33,1.33,0,0,0-.4-.81c-.43-.44-.93-.82-1.51-1.31Z" fill="#fff"/><path d="M119.54,61.74c-.68-.56-1.19-1-1.76-1.44a2.07,2.07,0,0,0-.91-.32c-.69,0-1.39,0-2.16,0,0,.79,0,1.52,0,2.25,0,.34.67.46,1.15.18s.92-.59,1.45-.94v3.82c-.85-.39-1.27-1.55-2.59-1.14,0,.59,0,1.21,0,1.84,0,.13.2.27.34.37L117,67.74h-7.34c.54-.43,1-.84,1.49-1.18a1.23,1.23,0,0,0,.57-1.15c0-1.44,0-2.89,0-4.33a1.32,1.32,0,0,0-.56-1.22c-.46-.32-.86-.72-1.37-1.16.29,0,.43-.05.58-.05,2.86,0,5.72,0,8.57,0,.47,0,.64.11.62.57C119.51,60,119.54,60.77,119.54,61.74Z" fill="#fff"/><path d="M184.16,61.64a6.86,6.86,0,0,1,.37,1.28,4.79,4.79,0,0,1-3.69,4.89,9.89,9.89,0,0,1-7-.46,6.17,6.17,0,0,1-4-5.68,6.53,6.53,0,0,1,3.69-6.14,7.52,7.52,0,0,1,8.4.2l.56.35L184,54.86v5.46c-.27-.49-.45-.82-.65-1.15a5.23,5.23,0,0,0-4.71-2.66,3.29,3.29,0,0,0-3.45,2.23,7.55,7.55,0,0,0,0,5,3,3,0,0,0,2.26,2,7.11,7.11,0,0,0,4.11-.19A3.09,3.09,0,0,0,183.65,63c.07-.42.11-.83.16-1.25Z" fill="#fff"/><path d="M139.19,59a18.74,18.74,0,0,1-1.73-1.75,2.58,2.58,0,0,0-3-.93,6.28,6.28,0,0,0-.07.67c0,2.53,0,5,0,7.57a1.81,1.81,0,0,0,.59,1.18c.7.67,1.5,1.24,2.43,2H127c.94-.76,1.74-1.4,2.51-2.06.23-.19.5-.48.5-.73,0-2.85,0-5.7,0-8.6-1.1-.17-2.06-.29-2.82.69a26.29,26.29,0,0,1-2,2v-4.7h14Z" fill="#fff"/><path d="M56.29,67.76H45.71c.95-.77,1.76-1.4,2.52-2.08a1.31,1.31,0,0,0,.5-.81c0-2.83,0-5.66,0-8.54-1.09-.17-2-.3-2.81.68a21.71,21.71,0,0,1-2,2V54.35H58V59a20.23,20.23,0,0,1-1.91-1.95c-.74-1-1.7-.91-2.84-.75v2.84c0,1.84,0,3.67,0,5.5a1.65,1.65,0,0,0,.52,1C54.49,66.37,55.31,67,56.29,67.76Z" fill="#fff"/><path d="M229,58.67h9.45v3.19a11.88,11.88,0,0,1-1.23-1.26,1.77,1.77,0,0,0-1.94-.58,4,4,0,0,0,0,.49c0,1.71,0,3.42,0,5.13a1.22,1.22,0,0,0,.37.75c.48.45,1,.84,1.65,1.35h-7.09c.54-.44,1-.85,1.49-1.2a1.23,1.23,0,0,0,.57-1.14c0-1.58,0-3.16,0-4.73V60c-.78-.13-1.44-.16-2,.52A14.9,14.9,0,0,1,229,61.83Z" fill="#fff"/><path d="M72.07,58.68h6.85c-.58.52-1.09.94-1.56,1.39a1,1,0,0,0-.33.55c0,1.88,0,3.76,0,5.64a2,2,0,0,0,.06.23c.74,0,1.5,0,2.26,0,.16,0,.34-.18.47-.31L82,64v3.77h-10c.59-.47,1-.87,1.55-1.23a1.11,1.11,0,0,0,.53-1c0-1.52,0-3,0-4.56a1.06,1.06,0,0,0-.45-1C73.08,59.59,72.65,59.18,72.07,58.68Z" fill="#fff"/><path d="M211.32,58.68h6.92c-.6.51-1.1.9-1.55,1.34a1.24,1.24,0,0,0-.37.76c0,1.63,0,3.27,0,4.9a1.05,1.05,0,0,0,.35.7c.49.46,1,.86,1.68,1.37H211.2c.63-.49,1.16-.88,1.63-1.32a1.26,1.26,0,0,0,.42-.79c0-1.61,0-3.23,0-4.85a1.19,1.19,0,0,0-.37-.76C212.44,59.59,211.93,59.2,211.32,58.68Z" fill="#fff"/></svg>