<svg xmlns="http://www.w3.org/2000/svg" width="300" height="60" viewBox="0 0 300 60"><path d="M53.92,47.66,44.83,60,34.06,49.26V32.46H19.93V50.79L7.33,60V12.37H0L7.33,2.44h12.6V30.93l14.13-9.39V8.17L46.67,0V47.66Z" fill="#fff"/><path d="M104.71,47.66,95.55,60l-10.7-10.7V32.46H70.72v19.4L58.12,60V13.9L76.76,0l20.7,10.69v37ZM84.85,21.54V12.37H70.72V30.93Z" fill="#fff"/><path d="M182.08,47.66,172.91,60l-10.69-10.7V12.37H148.93V50.79L136.33,60V12.37H123V50.79L110.44,60V12.37h-7.26L112.27,0,123,10.77,134,0l15,10.77L159.93,0l14.89,10.77V47.66Z" fill="#fff"/><path d="M219.81,47.66,207.89,60l-20-10.62v-37h-7.33l7.33-9.93h12.6V47.66Z" fill="#fff"/><path d="M257.38,47.66,243.94,60l-20.7-10.62v-37H216L225.08,0l10.76,10.77L242,2.44h15.43L250,12.37H235.84V29l7.49-5h14l-6.18,8.4H235.84v15.2Z" fill="#fff"/><path d="M300,2.44l-7.33,9.93H281.44V47.66h7.18L279.53,60l-10.69-10.7V20.32l9.39-8H255.09l7.33-9.93Z" fill="#fff"/></svg>