<svg xmlns="http://www.w3.org/2000/svg" width="320" height="48" viewBox="0 0 320 48"><path d="M151.32,4.24h-.91a5.07,5.07,0,0,0-.53-2.05,1.79,1.79,0,0,0-.88-.81,3.62,3.62,0,0,0-1.09-.16h-1.65v11a3.3,3.3,0,0,0,.12,1,1,1,0,0,0,.54.56,3,3,0,0,0,1.23.2v1h-6.52v-1a2.14,2.14,0,0,0,1.55-.4,2.11,2.11,0,0,0,.34-1.37V1.22h-1.38a5.13,5.13,0,0,0-1.35.15,1.7,1.7,0,0,0-.95.82,4.43,4.43,0,0,0-.46,2.05h-.91V0h12.85Z" fill="#fff"/><path d="M167.52,15h-6.4v-1a2.84,2.84,0,0,0,1.19-.2,1,1,0,0,0,.52-.58,3.76,3.76,0,0,0,.11-1V7.68h-6v4.49a2.12,2.12,0,0,0,.34,1.35q.33.42,1.53.42v1h-6.44v-1a2.82,2.82,0,0,0,1.18-.2,1,1,0,0,0,.53-.57,3.36,3.36,0,0,0,.12-1V2.78a3.25,3.25,0,0,0-.12-1,.94.94,0,0,0-.51-.57,2.63,2.63,0,0,0-1.2-.21V0h6.44V1a2,2,0,0,0-1.53.41,2.12,2.12,0,0,0-.34,1.36V6.46h6V2.78a3.72,3.72,0,0,0-.1-1,1,1,0,0,0-.5-.57A2.7,2.7,0,0,0,161.12,1V0h6.4V1a2.65,2.65,0,0,0-1.21.21,1,1,0,0,0-.51.57,3.65,3.65,0,0,0-.11,1v9.39a4.06,4.06,0,0,0,.1,1,1,1,0,0,0,.51.58,2.71,2.71,0,0,0,1.22.22Z" fill="#fff"/><path d="M180.17,10l-.1,4.92H168.48v-1a2.14,2.14,0,0,0,1.55-.4,2.11,2.11,0,0,0,.34-1.37V2.78a3.32,3.32,0,0,0-.11-1,.9.9,0,0,0-.51-.56A2.94,2.94,0,0,0,168.48,1V0h10.79l.18,3.88h-.89A5.5,5.5,0,0,0,177.88,2a1.62,1.62,0,0,0-.87-.68,6.48,6.48,0,0,0-1.46-.13h-2.43V6.51h1.32a2.92,2.92,0,0,0,1-.14.83.83,0,0,0,.47-.53,4.69,4.69,0,0,0,.18-1.21H177v5h-.88A4.43,4.43,0,0,0,176,8.38a.9.9,0,0,0-.49-.52,2.86,2.86,0,0,0-1-.13h-1.34v3.52c0,.58,0,1,0,1.29a1.47,1.47,0,0,0,.2.67,1,1,0,0,0,.55.4,3.73,3.73,0,0,0,1.08.12h1a4.05,4.05,0,0,0,1.26-.2,2.49,2.49,0,0,0,1.18-1,5.68,5.68,0,0,0,.8-2.51Z" fill="#fff"/><path d="M35.94,23a5.18,5.18,0,0,0-2,.45,2.36,2.36,0,0,0-1,1.2,28.29,28.29,0,0,0-1,3.05L26.86,47.6H24.3L17.91,29l-6,18.63H9.4L3.61,27.12a16.65,16.65,0,0,0-.95-2.71,2.37,2.37,0,0,0-1-1.16A4,4,0,0,0,0,23V21.22H10.81V23A6.06,6.06,0,0,0,9,23.19c-.39.14-.59.51-.59,1.12a8.58,8.58,0,0,0,.43,2.09l3.64,12.93,5.86-18.11h2.42L26.9,39.33,30,27.18a8.26,8.26,0,0,0,.33-2q0-1.4-.84-1.77A5.4,5.4,0,0,0,27.37,23V21.22h8.57Z" fill="#fff"/><path d="M60.67,38.6l-.2,8.52H38.22V45.36c1.53,0,2.52-.23,3-.68a3.39,3.39,0,0,0,.67-2.37V26a5.6,5.6,0,0,0-.22-1.73,1.72,1.72,0,0,0-1-1A6.14,6.14,0,0,0,38.22,23V21.22H58.94l.33,6.72H57.58a9.11,9.11,0,0,0-1.32-3.2,3.07,3.07,0,0,0-1.68-1.18,12.86,12.86,0,0,0-2.79-.22H47.11v9.15h2.55a5.94,5.94,0,0,0,2-.24,1.48,1.48,0,0,0,.9-.91,7.59,7.59,0,0,0,.35-2.1h1.77v8.62H52.94a6.62,6.62,0,0,0-.37-2.11,1.57,1.57,0,0,0-.93-.91,6.28,6.28,0,0,0-2-.23H47.11V40.7c0,1,0,1.77.08,2.24a2.53,2.53,0,0,0,.39,1.17,1.88,1.88,0,0,0,1.05.68,8,8,0,0,0,2.08.21h2a8.8,8.8,0,0,0,2.43-.33A4.78,4.78,0,0,0,57.39,43a9.14,9.14,0,0,0,1.55-4.35Z" fill="#fff"/><path d="M89.37,34.4a13.24,13.24,0,0,1-.92,5.07,11.56,11.56,0,0,1-2.37,3.77A10.31,10.31,0,0,1,83,45.52a20.47,20.47,0,0,1-8.56,1.6H63V45.36a7,7,0,0,0,2.4-.31,1.74,1.74,0,0,0,1.06-.95,5.21,5.21,0,0,0,.25-1.79V26A3.34,3.34,0,0,0,66,23.59c-.44-.46-1.45-.69-3-.69V21.1L68.35,21l2.25,0,2.29,0a33.47,33.47,0,0,1,5.22.35A16.66,16.66,0,0,1,82,22.37a10.62,10.62,0,0,1,3,1.91,12.28,12.28,0,0,1,2.33,2.81,13.82,13.82,0,0,1,1.47,3.43A14.59,14.59,0,0,1,89.37,34.4Zm-6-.12a14,14,0,0,0-1.48-6.75,7.88,7.88,0,0,0-6.37-4.35c-.83-.09-2-.13-3.57-.13V41.26a12.35,12.35,0,0,0,.15,2.28A1.55,1.55,0,0,0,73,44.63a5,5,0,0,0,2.23.37q4.47,0,6.32-3.25A14.73,14.73,0,0,0,83.4,34.28Z" fill="#fff"/><path d="M117.59,34.4a13.43,13.43,0,0,1-.92,5.07,11.75,11.75,0,0,1-2.38,3.77,10.4,10.4,0,0,1-3.11,2.28,20.52,20.52,0,0,1-8.57,1.6H91.21V45.36a7,7,0,0,0,2.39-.31,1.74,1.74,0,0,0,1.06-.95,5,5,0,0,0,.25-1.79V26a3.39,3.39,0,0,0-.66-2.37c-.45-.46-1.46-.69-3-.69V21.1L96.57,21l2.24,0,2.29,0a33.47,33.47,0,0,1,5.22.35,16.66,16.66,0,0,1,3.93,1.11,10.67,10.67,0,0,1,3,1.91,12.54,12.54,0,0,1,2.33,2.81,13.79,13.79,0,0,1,1.46,3.43A14.59,14.59,0,0,1,117.59,34.4Zm-6-.12a14,14,0,0,0-1.49-6.75,7.88,7.88,0,0,0-6.37-4.35c-.83-.09-2-.13-3.56-.13V41.26a13.57,13.57,0,0,0,.14,2.28,1.55,1.55,0,0,0,.87,1.09,5,5,0,0,0,2.23.37q4.47,0,6.33-3.25A14.83,14.83,0,0,0,111.62,34.28Z" fill="#fff"/><path d="M131.65,47.12H119V45.36a6.93,6.93,0,0,0,2.39-.31,1.69,1.69,0,0,0,1.06-.95,5,5,0,0,0,.25-1.79V26a3.34,3.34,0,0,0-.67-2.37c-.45-.45-1.46-.68-3-.68V21.22h12.67V23a6.69,6.69,0,0,0-2.39.32,1.77,1.77,0,0,0-1.06.95A4.88,4.88,0,0,0,128,26V42.31a5,5,0,0,0,.24,1.74,1.78,1.78,0,0,0,1,1,6.49,6.49,0,0,0,2.44.34Z" fill="#fff"/><path d="M162.45,23a6.35,6.35,0,0,0-2.56.37,1.68,1.68,0,0,0-1,1.1,10.92,10.92,0,0,0-.18,2.37V47.35h-1.69L140.72,27.22V41.49a10.24,10.24,0,0,0,.19,2.36,1.74,1.74,0,0,0,1,1.12,6.21,6.21,0,0,0,2.56.39v1.76h-9.28V45.36a5.43,5.43,0,0,0,2.4-.39,1.69,1.69,0,0,0,.93-1.12,11.88,11.88,0,0,0,.17-2.36V28.27c0-1.07,0-1.87-.08-2.41a4,4,0,0,0-.4-1.4,2.36,2.36,0,0,0-1-1,5.56,5.56,0,0,0-2-.5V21.22h7.27l14.23,17.42V26.82a9.67,9.67,0,0,0-.2-2.23,1.83,1.83,0,0,0-1-1.19,5.24,5.24,0,0,0-2.42-.42V21.22h9.32Z" fill="#fff"/><path d="M190,36.9a5.78,5.78,0,0,0-1.61.36,1.29,1.29,0,0,0-.74.82,5.71,5.71,0,0,0-.21,1.8V46a25.71,25.71,0,0,0-5.78.72c-1.5.35-2.62.58-3.37.72a15.73,15.73,0,0,1-2.65.2,12.07,12.07,0,0,1-7-2,12.4,12.4,0,0,1-4.34-5.06,14.9,14.9,0,0,1-1.44-6.36,13.85,13.85,0,0,1,1.71-6.83,12.8,12.8,0,0,1,4.64-4.85,12.16,12.16,0,0,1,6.41-1.77,11.44,11.44,0,0,1,7.72,3,8.24,8.24,0,0,0,.68-2.26h1.79l.18,8.49h-1.69a9.7,9.7,0,0,0-1.46-3.54A8.06,8.06,0,0,0,180.24,24a6.83,6.83,0,0,0-3.51-.94,7.64,7.64,0,0,0-2.74.51,6.66,6.66,0,0,0-2.52,1.76,9.12,9.12,0,0,0-1.88,3.41,17.32,17.32,0,0,0-.71,5.33,24,24,0,0,0,.56,5.21,9,9,0,0,0,2.24,4.3,6.27,6.27,0,0,0,4.79,1.8,7,7,0,0,0,3.69-.8,3.68,3.68,0,0,0,1.63-1.94,8.15,8.15,0,0,0,.38-2.56,6.86,6.86,0,0,0-.2-1.94,1.43,1.43,0,0,0-.9-.9,6.19,6.19,0,0,0-2.18-.29V35.14H190Z" fill="#fff"/><path d="M224.12,40.28a5.72,5.72,0,0,1-1.07,3.57,6.79,6.79,0,0,1-2.71,2.1,12.7,12.7,0,0,1-3.2.94,21.33,21.33,0,0,1-3,.23H201.59V45.36A6.11,6.11,0,0,0,204,45a1.72,1.72,0,0,0,1-1,5.08,5.08,0,0,0,.23-1.74V26a3.27,3.27,0,0,0-.68-2.39c-.45-.45-1.42-.67-2.91-.67V21.1l5.08-.11,4-.09c1,0,1.77,0,2.19,0h.68a20.37,20.37,0,0,1,4,.41,8.3,8.3,0,0,1,3.81,1.86,5.16,5.16,0,0,1,1.72,4.18,5,5,0,0,1-1.4,3.52,10.32,10.32,0,0,1-4.59,2.42,11.63,11.63,0,0,1,3.79,1.35,6.54,6.54,0,0,1,2.44,2.4A6.45,6.45,0,0,1,224.12,40.28Zm-6.34-12.8a4.39,4.39,0,0,0-.61-2.34,4.15,4.15,0,0,0-1.83-1.56,6.87,6.87,0,0,0-3-.57h-1.94V32.3H212a6.37,6.37,0,0,0,4.4-1.3A4.53,4.53,0,0,0,217.78,27.48ZM218.46,40a5.89,5.89,0,0,0-1.31-4.1,4.76,4.76,0,0,0-3.71-1.46h-3v6.74a11.35,11.35,0,0,0,.17,2.21,1.82,1.82,0,0,0,.83,1.22,3.92,3.92,0,0,0,2.1.43A5.32,5.32,0,0,0,217,43.8,4.63,4.63,0,0,0,218.46,40Z" fill="#fff"/><path d="M252.7,47.12H246a14.24,14.24,0,0,1-.91-1.22c-.36-.54-.76-1.16-1.19-1.88s-.78-1.32-1.07-1.79l-1.69-2.9a25.8,25.8,0,0,0-1.72-2.67,2.58,2.58,0,0,0-1.33-.91,10.67,10.67,0,0,0-2.53-.2h-.94v6.76a5.45,5.45,0,0,0,.22,1.72,1.7,1.7,0,0,0,1,1,6.44,6.44,0,0,0,2.39.34v1.76H225.75V45.36c1.52,0,2.5-.23,2.94-.68a3.45,3.45,0,0,0,.65-2.37V26a3.49,3.49,0,0,0-.63-2.36c-.43-.47-1.41-.7-3-.7V21.1l5.78-.19,1.52-.05c.57,0,1.1,0,1.6,0s1,0,1.89,0c1.24,0,2.4.11,3.49.22a17.66,17.66,0,0,1,2.56.44,8.76,8.76,0,0,1,2.62,1.21,6.54,6.54,0,0,1,2,2.21,6.36,6.36,0,0,1,.78,3.19,6.14,6.14,0,0,1-.54,2.52,5.81,5.81,0,0,1-1.75,2.18,9.05,9.05,0,0,1-3.18,1.51,8.27,8.27,0,0,1,2.28,2q.94,1.2,2.95,4.46a29.77,29.77,0,0,0,1.92,2.79,4.65,4.65,0,0,0,1.39,1.28,4.16,4.16,0,0,0,1.61.43Zm-10.35-19c0-2.06-.61-3.43-1.82-4.1a9.63,9.63,0,0,0-4.74-1h-1.16V33.43h1.16a10.53,10.53,0,0,0,4.67-.94Q242.35,31.56,242.35,28.11Z" fill="#fff"/><path d="M268.06,47.12H255.39V45.36a7,7,0,0,0,2.39-.31,1.74,1.74,0,0,0,1.06-.95,5,5,0,0,0,.25-1.79V26a3.34,3.34,0,0,0-.67-2.37c-.45-.45-1.46-.68-3-.68V21.22h12.67V23a6.65,6.65,0,0,0-2.39.32,1.74,1.74,0,0,0-1.06.95,4.88,4.88,0,0,0-.25,1.78V42.31a5,5,0,0,0,.24,1.74,1.78,1.78,0,0,0,1,1,6.45,6.45,0,0,0,2.44.34Z" fill="#fff"/><path d="M296.35,34.4a13.24,13.24,0,0,1-.92,5.07,11.56,11.56,0,0,1-2.37,3.77,10.31,10.31,0,0,1-3.12,2.28,20.47,20.47,0,0,1-8.56,1.6H270V45.36a7,7,0,0,0,2.4-.31,1.74,1.74,0,0,0,1.06-.95,5.21,5.21,0,0,0,.25-1.79V26a3.34,3.34,0,0,0-.67-2.37c-.44-.46-1.45-.69-3-.69V21.1l5.37-.11,2.24,0,2.29,0a33.47,33.47,0,0,1,5.22.35A16.66,16.66,0,0,1,289,22.37a10.48,10.48,0,0,1,3,1.91,12.28,12.28,0,0,1,2.33,2.81,13.82,13.82,0,0,1,1.47,3.43A14.59,14.59,0,0,1,296.35,34.4Zm-6-.12a14,14,0,0,0-1.49-6.75,7.88,7.88,0,0,0-6.37-4.35c-.83-.09-2-.13-3.57-.13V41.26a12.35,12.35,0,0,0,.15,2.28,1.55,1.55,0,0,0,.87,1.09,5,5,0,0,0,2.23.37q4.47,0,6.32-3.25A14.74,14.74,0,0,0,290.39,34.28Z" fill="#fff"/><path d="M320,38.6l-.2,8.52H297.49V45.36c1.54,0,2.53-.23,3-.68a3.39,3.39,0,0,0,.66-2.37V26a5.64,5.64,0,0,0-.21-1.73,1.72,1.72,0,0,0-1-1,6.2,6.2,0,0,0-2.43-.35V21.22h20.73l.33,6.72h-1.69a9.31,9.31,0,0,0-1.32-3.2,3.07,3.07,0,0,0-1.68-1.18,12.86,12.86,0,0,0-2.79-.22h-4.68v9.15h2.54a6,6,0,0,0,2-.24,1.48,1.48,0,0,0,.9-.91,7.59,7.59,0,0,0,.35-2.1h1.77v8.62h-1.7a6.35,6.35,0,0,0-.37-2.11,1.52,1.52,0,0,0-.93-.91,6.17,6.17,0,0,0-1.94-.23h-2.58V40.7c0,1,0,1.77.08,2.24a2.42,2.42,0,0,0,.39,1.17,1.88,1.88,0,0,0,1.05.68A7.91,7.91,0,0,0,310,45h2a8.68,8.68,0,0,0,2.42-.33A4.8,4.8,0,0,0,316.67,43a9.24,9.24,0,0,0,1.55-4.35Z" fill="#fff"/><line y1="8.54" x2="132.75" y2="8.54" fill="none" stroke="#fff" stroke-width="1.7"/><line x1="186.4" y1="8.54" x2="320" y2="8.54" fill="none" stroke="#fff" stroke-width="1.7"/></svg>