<svg xmlns="http://www.w3.org/2000/svg" width="220" height="134" viewBox="0 0 220 134"><path d="M4.82 12.24c-1.63 0-2-.52-3.34-1.19A19 19 0 0 1 0 8.08c0-1.26 1.26-1 2.08-1a22.92 22.92 0 0 0 4.45-.67l8.6-1.85C24.69 2.52 34.26 0 44.12 0c1.88 0 6.75.52 8.24 1.33l1 2.38.67.22.07.15-1.26.3a40.89 40.89 0 0 1-4.23.44c-3.41.37-6.89.67-10.3 1.11-3.93.52-7.87 1.26-11.72 2a1.53 1.53 0 0 1 .3 1c0 1.26-1.49 4.75-1.93 6.15L21.28 26.4c-.74 2.3-1.33 4.67-1.92 7-1.27 4.82-2.6 9.57-3.42 14.46-.52 3-.89 6.16-1.26 9.27a25 25 0 0 0-.22 3.34 31.26 31.26 0 0 0 1.78 9.79l-.07.15a7 7 0 0 0-1.12-.41 4.32 4.32 0 0 1-2.67-1.7C9.57 65 9.12 61 9.12 56.8c0-11.42 3.86-27.06 7.19-38.11.6-2 2.75-7.42 2.82-9-4 .84-10.38 2.55-14.31 2.55z" fill="#fff"/><path d="M27.14 49.69A10.63 10.63 0 0 1 24 52.8l-2.59-.89.14-.22a23.62 23.62 0 0 0 3.19-4.08 53.83 53.83 0 0 0 7.42-19.13c-2.82-1.93-6.75-4.08-6.75-8 0-2 1.78-4.45 3.93-4.45a4.14 4.14 0 0 1 1.86.44 7.16 7.16 0 0 1 4.22 5.94c.15 1.63.37 3.26.45 4.89a41.72 41.72 0 0 1 7.41 5 5.16 5.16 0 0 1 1.78 4c0 2.23-1.41 5.94-2.15 8.16-1.33 3.93-3.71 10.09-3.71 14.16a7.72 7.72 0 0 0 .52 2.9l2.08.52-.07.59.07.07.37-.44h.59a1.93 1.93 0 0 1 .23.89c0 1.41-2.23 1.85-3.34 1.85-4.82 0-6.75-5.19-6.75-9.27 0-5 3.12-13 4.9-17.8A17.87 17.87 0 0 0 39 33.3c0-1.78-2.08-2.52-3.42-3.12-.88 7.27-4.21 13.65-8.44 19.51zm-.37-30.78l.15.15a2.84 2.84 0 0 1 .29-.82zm.44 28.92l-.07.08h.07zm.52-3.83a1.74 1.74 0 0 0 .6-1.19zm1.41-25a1.32 1.32 0 0 0-.44.89.74.74 0 0 0 .07.38c.15-.4.23-.84.37-1.27zm3 5.57c0-1.41-.37-4.6-1.18-5.64a3.41 3.41 0 0 0-1.19 2.52 5 5 0 0 0 2.3 4.08c.04-.32.11-.69.11-.98zm1.71 8.23A90 90 0 0 1 30 43.38c1.56-1.7 3.85-8.6 4.15-11-.15.1-.15.25-.26.4zm-3.45 5.39a8.62 8.62 0 0 0 .82-2.19l-.15.07zm1-3.26a1.19 1.19 0 0 0-.22 1zm.15-.37a.29.29 0 0 0 .07-.22zm.15-.6a.42.42 0 0 1-.08.3.51.51 0 0 0 .15-.3zm.22-.89l.22-.29h-.07zm.37-.89l-.03-.18v.22zm1.93-.59h-.07v.3h.07zm.15-.81h-.08V31h.08zm4.3 9l-3.52 10.8-.82 3a26.92 26.92 0 0 0 1.56-4.37c1.26-3.93 2.67-7.79 3.78-11.79a6.58 6.58 0 0 0-.96 2.33zM36 55c0-.15-.07-.22-.07-.37a.62.62 0 0 0-.08.37zm4.75-16.31l-3.6 10.62c-.52 1.64-.74 3.42-1.11 5l.15-.15c.67-2.23 1.18-4.52 1.93-6.75 1-3 2.37-5.93 2.89-9.05zm-3 16.16a84.21 84.21 0 0 1 3.33-11A31.88 31.88 0 0 0 43 36.93h-.15c-1.78 5-3.41 10.09-5 15.13a15.78 15.78 0 0 0-.74 4.52 7.54 7.54 0 0 0 .08 1.34c.26-1.04.33-2.08.56-3.12zm-.15-3.48v-.08l-.08.08zm.74-2.67l.07-.08h-.07zm.15-.6l.07.08v-.08zm.07 7.12h-.07c0 .08 0 .08.07.15zm.08-7.56l.07.07v-.07zm.07 6.82h-.07v.15h.07zm.44-1.63h.08v-.22h-.08zm.23-.89h-.08v.22h.08zm.29-7.27l-.07.08h.07zm0 6.31c-.07 0-.07.07-.07.14h.07zm.08-14v.3a.49.49 0 0 0 .07-.3zm.07 13.5l-.07.07h.07zm.08-.52l.1.02a.28.28 0 0 0-.07-.22zm.29-.67h-.07v.22h.07zm.45-1.41h-.08c0 .08 0 .08.08.08zm.15-6.38l-.08.08h.08zm0 5.94c-.08 0-.08 0-.08.07zm.37-9.46H41v.23zm-.08 8.46l.08-.08h-.08zm.15-.45c.07 0 .07-.07.07-.15h-.07zm.15-.52h.07v-.15h-.07zm.89-2.37h-.08v.15h.08zm.07-.37h.08v-.08h-.08zm.15-.59l.08.07v-.03zm1-2.9v-.07l-.07.07zM69.41 44.64c-1.63 3.86-5.27 10.46-8.53 13-1.63-.59-2.82-.74-2.82-2.81A58.4 58.4 0 0 1 59.77 43l-2.52 2.6c-1.56 1.63-3.71 4.74-6.31 4.74-1.85 0-4.59-1.7-4.59-3.78 0-4.37 4.67-12.31 8.23-14.83a9.62 9.62 0 0 1 5.19-2.08A7.05 7.05 0 0 1 64.51 32a.91.91 0 0 1 .3.6 1 1 0 0 1-.15.44l-2.15-.59c-5.34 1.85-8 7.86-10.16 12.68l.15.15 1.19-.89L60.81 38c1.33-1.19 1.55-2.75 3.26-3.41l.07.74-.22.07c-.15.3 0 .23-.3.52l.23-.07.07-.37.22-.15a.52.52 0 0 1 .45-.3.63.63 0 0 1 .37.22l-.07.52.29-.14v-.08l.37.15c-.59 1.85-1.26 3.63-1.93 5.41l-.07.08c.07 0 .07 0 .07-.08s.23-.14.23-.29c.74-1.63 1.33-3.34 2.15-4.9.37.08.67.3.67.67a4.74 4.74 0 0 1-.38 1.41c-1 2.67-4.22 11.87-4.22 14.24a12.59 12.59 0 0 0 2.44-2.45h.15c-1 1.41-2.3 2.6-3 4.16h-.08v.07c.08 0 .08 0 .08-.07a54.54 54.54 0 0 0 3.7-4.45 16.09 16.09 0 0 1 1-1.34l.37-.37c-1.56 2.67-4 5.12-5.34 7.86L63.77 53l-.66 1.26.51-.37.08.3a4.33 4.33 0 0 1 .67-1.19h.07v-.08l-.07.08h-.15a2.27 2.27 0 0 1 .78-1.39v.3l.15-.3.22-.14.15-.3c.15-.59.74-1 1-1.63a9.25 9.25 0 0 1 .66-1.11h-.07l.15-.3h-.08l.45-.82.07.3a3.86 3.86 0 0 1 .45-1h-.08l.23-.15a3 3 0 0 0 .29-.67v.07a14.16 14.16 0 0 1 .82-1.22zm-20.62-2.37c0 .07-.07.15-.07.22h.07zm.45-.89c1-1.63 1.85-3.41 2.89-5 .22-.3.89-1.11.89-1.48l-.15.29A29.36 29.36 0 0 0 49 41.68a.53.53 0 0 0-.15.37l.15-.37c.09-.08.24-.15.24-.3zm.76 1.48l.22-.52c-.15.08-.15.37-.29.52zm.15 3.49a.42.42 0 0 0-.08.3h.08zm6.15-11.27c-1.93 1.18-4.74 6.45-5.48 8.6-.3.81-.45 1.7-.67 2.52a1.16 1.16 0 0 0 .29-.52 38 38 0 0 1 5.84-10.6zm-5.86 6.6c.75-1.41 1.64-2.67 2.45-4v-.15a21.56 21.56 0 0 0-2.47 4.15zm2.82-7l.22-.15h-.07zm.37 1.78h.15v-.08c-.09.11-.09.11-.17.11zM54 36h.08v-.08c-.08-.03-.08-.03-.08.08zm7.42 13.2h.07V49h-.09zm.3 7a.15.15 0 0 0-.15.15zm0-8.46l.07.15v-.22zm.59 7.72l-.52.66c.21-.28.5-.35.5-.72zm-.22-9h.07v-.37a.7.7 0 0 0-.09.33zm.07-.66l.15-.3h-.07zm.15-.38a2.79 2.79 0 0 0 .52-1.48 13.09 13.09 0 0 0-.54 1.44zm.15 10.24c-.08 0-.08.07-.15.07s.13-.04.13-.11zm.29-.52c0-.15.08-.3.08-.45l-.45.67zm0-17.65l.6-1.11a2.76 2.76 0 0 0-.62 1.07zM62.88 55l-.07.08.07-.08zM63 43.31a.26.26 0 0 0-.08.22zm.22 11.57c-.07 0-.07.07-.15.07h.15zm0-12.31c-.07.07-.07.22-.07.37l.07-.15zm.52 11.64h-.08l-.22.15h.08zm.22-16.91a.73.73 0 0 1 .08.22l.29-.59c-.26.07-.41.15-.41.37zm.37-.44a.64.64 0 0 0 .08-.37.61.61 0 0 0-.12.37zM65 52a.49.49 0 0 0-.07.3.46.46 0 0 0 .07-.3zM76.53 50.58l-.45 2.59C75.12 58.81 74 64.74 74 70.45c0 .67.29 1.19.29 1.85 0 .45-1.63.82-2 .82a13.82 13.82 0 0 1-2.15-.67c-1.78-.74-1.85-2.22-1.85-3.93 0-4.45.89-9 1.48-13.42l2.15-15.65a62.56 62.56 0 0 0 1-8.23c0-1.48-1-1.71-1-2.52 0-.59.6-.67 1-.67 1.78 0 4.15 2.15 4.82 3.71.52 1.19.3 2.45.74 3.63a1.44 1.44 0 0 0 .3-.44 30.83 30.83 0 0 1 3.41-4.82c1.56-1.71 5.79-4.82 8.08-4.82 2.45 0 5.27 2.37 5.27 4.89a6.77 6.77 0 0 1-.15 1.26C94 38 86.76 46.65 80.53 49.09a14 14 0 0 1-2.89.74c-.22 0-.37-.14-.59-.14-.52 0-.45.51-.52.89zm-6.16 10.23h-.07c0 .07 0 .07.07.15zm.15-.89l-.07.07h.07zm.15-.89h-.08v.44h.08zm0-1.11l.15.07c0-.15.07-.3.07-.44zm.59 6.52h.08v-.29h-.08zm.15-11h.07v-.3h-.07zm.3-2.15l.07-.08h-.07zm.14-1v.15c0-.08 0-.08.08-.15zm0 9.94h.08v-.3h-.08zm.23-2.45c0 .07 0 .07.07.15 0-.08 0-.08.08-.15zm3.11-10.68H75c-.29.74-1 6.3-1.18 7.64-.52 3.26-1.71 10.08-1.71 13.64 0 .52.08 1.12.08 1.63h.14c0-1.4.23-2.74.37-4.15.38-2.67.6-5.41 1-8.08l1-6.82c.15-1 .45-2.15.52-3.19zm-2.52 7.19v.08h.07zm.22-1h-.07v.22h.07zM75.34 46l-.07.07h.07zm.07-.3h.08v-.15h-.08zm.6-4.89a.28.28 0 0 1 .22.07v-.59zm.44-1.26c-.15.07-.22.14-.22.29v.37zm0 0l-.07-.3h-.08zm2.38 1.7a54.4 54.4 0 0 1 3.85-7.86c-.15.15-.29.22-.37.37a34.5 34.5 0 0 0-4.75 10.53 22.64 22.64 0 0 0 1.27-3.06zm-1 5.79c5.63-2.75 11-8.83 13.64-14.46a12.05 12.05 0 0 0 1.19-4.23 1.48 1.48 0 0 0-.52-1.19A12.52 12.52 0 0 0 86 30.78c-3.71 3.63-5.41 8.52-7.27 13.27-.37 1-.74 1.93-1 2.89zm.89-9.94a8.05 8.05 0 0 0 1-1.78zm2.44-2.74v.14c0-.07 0-.07.08-.14zm7.79 6.89l.08-.15-.23.23zm5.34-9l-.22.3c-.52 1-.89 2-1.41 3a56.76 56.76 0 0 1-3.12 5 22 22 0 0 0 4.16-6.6zm-4.79 5.42a3.69 3.69 0 0 0 .75-1.11 4.23 4.23 0 0 0-.75 1.11zm.75-1.18a2.78 2.78 0 0 0 .59-1zm.66-1a.38.38 0 0 0 .15-.3.4.4 0 0 0-.15.26zm1-1.86a14.63 14.63 0 0 0-.82 1.56zm.81-1.78c0-.07-.07-.07-.07-.14v.14zm1.71-.37v.15c0-.07.07-.07.07-.15z" fill="#fff"/><path d="M114.72 40.19C113.6 46.27 112 52.5 112 58.73a10 10 0 0 0 .37 2.9c0 .07.08.14.08.22s-.08.29-.08.44a3.32 3.32 0 0 1-.89.08 4.53 4.53 0 0 1-4.37-3.79c-.08-.89-.08-1.85-.08-2.74a38.22 38.22 0 0 1 .23-5.12c.81-6.67 1.55-12.68 3.48-19.13l-.15-.15-2.3 1.93a22.74 22.74 0 0 0-3.78 5 47.37 47.37 0 0 0-5.78 15 8.22 8.22 0 0 1-.3 1.26c-5.12-.52-5.56-3.86-5.56-8.23 0-7.79 1.78-15.5 3.49-23.06.66-3 1.33-6.16 2.29-9.13.89-2.81 2.08-5.63 3.19-8.38a7.89 7.89 0 0 1 1-2.07 1.87 1.87 0 0 0 1.19.44c.67 0 1.7.89 2.22 1.34a1.57 1.57 0 0 1 .67 1.33v.6c0 2.81-1.93 8.38-2.74 11.34-1 4-2.08 7.94-3 11.94-.38 1.56-1.64 5.86-1.64 7.19 0 .08.08.23.08.3a29.22 29.22 0 0 1 9.49-9.79 3 3 0 0 1 1.71-.59 6.8 6.8 0 0 1 3.85 1.7 3.08 3.08 0 0 1 1.41 2.82c-.03 2.55-.92 5.29-1.36 7.81zm-18.39-10h-.08v.15h.08zm.22-1l-.22.37.14.08c0-.2.08-.35.08-.5zm.07-.44h-.07v.37a.7.7 0 0 0 .07-.42zm.08-.75h.14c-.07-.07-.07-.22-.07-.37a.7.7 0 0 0-.07.37zm.14 16.17c0-.15-.07-.22-.07-.37a.7.7 0 0 0-.07.37zm.15-2a3.85 3.85 0 0 0-.15.89H97zm0-.08c.74-2.3 1.19-6.08 1.71-8.6 1.63-7.71 3.85-15.35 5.86-23l-.15.07c-1 3.34-2.15 6.6-3 9.94-1 3.93-1.93 7.86-2.75 11.79A93 93 0 0 0 97 42.12zm.23-16.24h.07v-.3a.49.49 0 0 0-.07.33zm.07-.37a.57.57 0 0 0 .15-.3l-.15-.07zm.22-1l.15.08c0-.37.07-.82.07-1.19l.15-.07c.3-1 .52-2 .74-3a15.62 15.62 0 0 0-.89 3.11zm.3 5v.3h.07v-.3zm.52-2.07c0 .15-.08.3-.08.44l-.14.52h.14l.23-.89zm4.82 10.68c-1.71 1.7-4.3 8.23-4.82 10.68-.08.22 0 .51-.08.74a1.46 1.46 0 0 0 .37-.67 63.15 63.15 0 0 1 2.67-7l1.86-3.56zm-4.67-11.24c0 .07 0 .07.07.14v-.14zm0 18.68h.07v-.07zm.14-19.28l.15.08a1 1 0 0 1-.07-.45.62.62 0 0 0-.08.37zm.23 15.58H99l.66-1.41zM99.22 24c.37-.44 1.63-5.93 1.78-6.89l.15-.45.07-.3a.49.49 0 0 0-.07.3 1 1 0 0 0-.15.45c-.67 2.25-1.34 4.54-1.78 6.89zm1 22l-.07-.08V46zm0-31.82c.08 0 .08 0 .15-.07V14zm.37-1.11h.08V13zm.22 31.15h-.07l.07.07zm.52-4.67c0-.08 0-.08.08-.15h-.08zm.08-23.66l.07-.22h-.07zm.07 9.49l-.07.08h.07zm.08-10.16h.07v-.15h-.07zm.14-.67h.08v-.07zm.6 7.79h-.08v.15c-.04-.09-.04-.09.04-.17zm.81-2.89H103v.07zm.3-1.19h-.07v.08zm.15 19.28c-.08.15-.22.3-.22.45.03-.17.18-.32.18-.47zm0-19.8c-.08 0-.08 0-.08.08h.08zm1-7.26a3.19 3.19 0 0 0 .44-1.43l-.15-.05a11.19 11.19 0 0 0-.29 1.46zm.52-2h.07a.45.45 0 0 0-.07-.29l.22-.3-.08-.07a.85.85 0 0 1-.14.37zm6.15 41.24h-.07V50l.07-.07zm.3-2.23h-.08c0 .08.08.08.08.15zm.37-2.37l-.15.52h.15zM114.2 34a91.92 91.92 0 0 0-2.15 10.09 25.56 25.56 0 0 0 1-3.93c.41-2.16.85-4.16 1.15-6.16zm.15-.59h-.15v.37zM124.28 34.34c1.78-2.3 4.6-6.6 7.86-6.6s7 3.93 7 7.11c0 6-4.74 13-9 16.91a7.92 7.92 0 0 1-4.23 2.45 11.61 11.61 0 0 1-1.55.15 8.19 8.19 0 0 1-8.09-8.46V45c0-3 3.12-11.27 6.68-11.27zm-2.67 1.11a2.87 2.87 0 0 0-1.18 1.33zm-.61 5.49v.14c.07 0 .07-.07.14-.14zm13.86-7a9.29 9.29 0 0 0 .23-1.48 2.22 2.22 0 0 0-.23-1c-2.44 0-7.56 6.15-7.56 8.53a2.26 2.26 0 0 0 1 1.78 1 1 0 0 1-.74.44c-2.08 0-3-1.63-4.16-3a23 23 0 0 0-2.15 8.53 11.41 11.41 0 0 0 .37 3.11C128.36 49 133.63 40.56 134.81 34zm-11.42 2.45a9.3 9.3 0 0 0-2 3.49 19.79 19.79 0 0 0 1.93-3.34zm-1.7.67a2 2 0 0 0 .66-1zm4.52-3.26a24.55 24.55 0 0 1 3.34-3.64h-.15A18.22 18.22 0 0 0 126 34zm5-2.08v-.07h-.07c-.08 0-.08.07-.15.07-1.56 1.11-3.93 3.63-4.3 5.56a55.36 55.36 0 0 1 4.51-5.54zm-2.82 1.11c-.29.3-1.26 1.26-1.26 1.56.37-.57.88-1.02 1.25-1.54zm2.23 16.09a2.67 2.67 0 0 0-.45.75c1.49-1.71 5.57-5.86 5.49-8.16a50.37 50.37 0 0 1-5.05 7.43zm1.33-5.24a15 15 0 0 0-1.63 2.3 7.52 7.52 0 0 0 1.63-2.3zm-1.33 3.56c0 .07 0 .07.07.07zm.89-.82c.52-.81 1.19-1.55 1.63-2.37l-1.7 2.3v.07zm1.71-2.59a.26.26 0 0 0-.08.22zm1.11 1.85h.07v-.07zM165.07 44.12l.22.15a1.81 1.81 0 0 1-.82.67v.15h.08V45c.3-.14.81 0 1-.22A14.68 14.68 0 0 1 164.1 47a4 4 0 0 0 1.12-1.12l.07.08v-.06h-.07l.29-.52a1.1 1.1 0 0 1 .37-.89l.3.23c-.52 1-1.11 2-1.71 3-1.63 2.67-4.22 7.57-7.78 7.57a3.88 3.88 0 0 1-4.16-4.29c0-1.56.15-3.19.15-4.75a41.87 41.87 0 0 1-5.63 6.9A2.67 2.67 0 0 1 145 54a5.64 5.64 0 0 1-3.26-1c-1.71-1.19-1.86-2.89-1.86-4.82 0-4.9 2.3-15 5.86-18.69a1.14 1.14 0 0 1 .74-.44 12.72 12.72 0 0 0 1.49.44v.67c.15-.3.66-.22.89-.3l-.23.82.67-.3.6.3a1.44 1.44 0 0 1 .14.52c0 .52-2 6-2.37 7a57.79 57.79 0 0 0-2.22 11.27 79.83 79.83 0 0 0 8.52-10.23c1.86-2.45 2.45-5.78 4.45-8.23A3.15 3.15 0 0 1 160 30c.6 0 1.34.6 2 .75l-.23.81.52-.52h.15a.41.41 0 0 0 .37.22l.23-.29a.8.8 0 0 0 .07.22c0 1.19-1 3-1.41 4.15-1.63 4.6-2.52 9.5-3.78 14.17 0 .07-.22.74-.22.81 0 .3 0 .74.44.74 1.48 0 5.12-4.67 6.08-5.93v.08l.22-.3-.07.07zm-21.73-7V37h-.08v.08zm.81 8.53a3.25 3.25 0 0 0-.07-.82 2.66 2.66 0 0 1-.07.74zm.15-1.26a64.73 64.73 0 0 1 4.23-12.83 1.81 1.81 0 0 0 .07-.89 42.73 42.73 0 0 0-4.45 14 .36.36 0 0 0 .15-.32zm1.49-13.06a8.33 8.33 0 0 0-1.49 2.9zm-.37 3.93V35a.26.26 0 0 0-.08.22zm.74-4.3l-.15-.07c-.22 0-.15.3-.22.44.14-.18.21-.33.37-.41zm1.11.45h-.07c-.3 0-.3.22-.3.44a1.64 1.64 0 0 0 .37-.48zm1 2.45h.08v-.08zm.82-2v.08h.07zm1.71 13l.07.08v-.08zm3.63-4.89c-.59.07-.74.59-.89 1zm.52 3.41c-.08 0-.08 0-.15.07l.07.15zm1.05 7.05c.45-1.49.74-3 1.19-4.45 1-3.64 2.15-7.2 3-10.83-1.57 2.08-3.87 12.31-4.19 15.28zm.15-6.6h-.08V44h.08zm.81-2.89h-.07v.22zm.37-1c-.07-.08-.07-.08-.14-.08v.3zm2.9-4.9v.15c0-.07 0-.07.07-.15zm.44-1.48v-.15c0 .08-.07.08-.07.15zm.08-.37c.66-.45.59-.22.89-1zm1.25-.49l.07-.07H162zm1.41 15.43v-.08l-.08.08z" fill="#fff"/><path d="M178.27 29.07a19.26 19.26 0 0 0-1.93-.37c-1.49 0-2.89 3-3.41 4.23a9 9 0 0 0-.6 3.7c1.71-1.41 3.27-3.48 5.71-3.48a8 8 0 0 1 3 1.19c-1.48 1.26-3.26 2.22-4.52 3.78-.89 1.11-1.71 2.22-2.52 3.41 2.15 4.23 4 7.71 4 12.61 0 4.44-4.37 8-8.67 8-2.75 0-6.16-1.63-6.16-4.82 0-4.74 3.71-11.79 5.86-16-1-2.3-2.3-4.75-2.3-7.35 0-3 2.6-8.75 6.16-8.75a7.7 7.7 0 0 1 5.78 3.41zm-13.8 26.7h.08v-.3h-.08zm.22-.74v-.3l-.14.3zm.67-2.67a36.3 36.3 0 0 0 1.78-4.68 11.16 11.16 0 0 0 1-2.07 43.25 43.25 0 0 0-2.9 7.19zm.3 3.41v-.08h-.08v.08zm.15-.82v-.52a1.18 1.18 0 0 0-.08.52zm.59 2.6c.74-4.45 2.6-8.61 4.38-12.68-.89.14-3.79 8.52-4.08 9.86-.23.89-.3 1.85-.45 2.74zm4.89-10.68c-1.11 2.44-3.56 8.38-3.56 10.9a3 3 0 0 0 .38 1.41c.22-.15.51-.15.74-.3a7.4 7.4 0 0 0 3.56-6.6 27.46 27.46 0 0 0-.89-5.49zm-2.89-1.93a.8.8 0 0 0-.29.67 2.31 2.31 0 0 1 .29-.67zm.67-14.54a6.54 6.54 0 0 0 1-1.85 6.57 6.57 0 0 0-1 1.85zm.74 18.25l-.07.07h.07zm.08-4.08v.07l.07-.07zm.44-13.65a2.71 2.71 0 0 0 .89-1.78zm2.74-1.7c-1.26.52-1.85 2.52-2.15 3.71.82-.82 1.49-2.67 2.15-3.71zm-.22 1.85l-.07-.07v.07zm0 25.22a1.29 1.29 0 0 0 .52-1.19 9.35 9.35 0 0 1-.52 1.19zM173 30.7l-.07.08h.07zm.52 24l-.15-.08V55zm.74 1.48a.66.66 0 0 0 .45-.74V55zm1 1.48a5.19 5.19 0 0 0 1.11-2.89c0-.22-.08-.37-.08-.59-.29.89-1.11 2.45-1 3.41h-.08zm1.4-1.11l.08-.07h-.08zm.23-.52h-.08c0 .08 0 .08.08.08zM186 45.31a6.79 6.79 0 0 0-.23 2.45c0 .74.23 3.56 1.26 3.56a3.53 3.53 0 0 0 3.27-2.38l.07-.07v.22c0 .67-.59 1.19-.81 1.78.81-.37 1-1.11 1.41-1.78a1.36 1.36 0 0 1 .14.37c0 .52-.44.82-.52 1.26l.52.08-.11.2.15.07V51h.22l-.07-.15h.07l.07-.29h.08l.15-.3v.3a1 1 0 0 0 .29-.75l.3-.37a4.07 4.07 0 0 1-4.21 3.56c-4.52 0-7.19-3.11-7.19-7.49a17.63 17.63 0 0 1 3.56-10 8 8 0 0 1 6.75-3.51 9.22 9.22 0 0 1 2 .3l-1.48-2.75.59-.14a6.84 6.84 0 0 1 5 6.67c-.03 5.37-6.41 9.23-11.28 9.23zm-2.38-5.78c-.07 0-.07 0-.07.07h.07zm.37-1.12l-.22.37.15.08zm.08-.14l-.08.07h.08zm1.18-2l.23-.07a.3.3 0 0 0-.23.07l-.37.6-.14.22v.07a6.39 6.39 0 0 0-.52.74c.37-.14.44-.44.52-.74l.14-.29.3-.23c-.02-.15.05-.23.05-.38zm-.25 5.56c-.07.07-.07.22-.07.37h.07zm2.75-5.12c-1 1-2.45 3.11-2.45 4.67.53-1.63 1.79-3.04 2.46-4.67zm-2.45 1.93zm.3-.67c.07-.08.07-.15.07-.3a.59.59 0 0 0-.06.33zm.29-.45h.11a.56.56 0 0 0 .14-.29c-.09.07-.14.29-.24.29zm.82 4.82c2.67-.29 6.6-4.67 6.6-7.34v-.29c-3.31.74-6 4.37-6.59 7.63zm1.11-5.71l.3-.14v-.08l-.08.08c-.14 0-.14.07-.21.14zm5 2.15a.49.49 0 0 0-.07.3l-.22.15.22-.07v-.08zm.52-.81l-.15.3v.07c.13-.15.2-.22.2-.34zm.22-.45a.15.15 0 0 0 .15-.14h-.15zm.3 3c.08-.07.15-.07.15-.15zm.15-1.71h.07l.08-.22zm.3 1.49a.3.3 0 0 0-.23.07.3.3 0 0 0 .28-.1zm0-.08a6.35 6.35 0 0 0 1.48-2.67 13.9 13.9 0 0 0-1.43 2.64zM107.66 75c-1.63 0-2-.52-3.34-1.19a18.53 18.53 0 0 1-1.48-3c0-1.26 1.26-1 2.08-1a23.47 23.47 0 0 0 4.44-.66l8.64-1.76c9.56-2.07 19.13-4.59 29-4.59 1.86 0 6.75.51 8.23 1.33l1 2.37.67.23.07.14-1.26.3a38.55 38.55 0 0 1-4.23.45c-3.41.37-6.9.66-10.31 1.11-3.93.52-7.86 1.26-11.71 2a1.5 1.5 0 0 1 .29 1c0 1.26-1.48 4.75-1.92 6.16l-3.71 11.31c-.74 2.29-1.33 4.67-1.93 7-1.26 4.82-2.59 9.56-3.41 14.46-.52 3-.89 6.15-1.26 9.27a24.83 24.83 0 0 0-.22 3.33 31.21 31.21 0 0 0 1.78 9.79l-.07.15a6.38 6.38 0 0 0-1.12-.37 4.33 4.33 0 0 1-2.67-1.71c-2.82-3.26-3.26-7.34-3.26-11.49 0-11.42 3.86-27.07 7.19-38.12.6-2 2.75-7.41 2.82-9-3.97.82-10.38 2.49-14.31 2.49z" fill="#fff"/><path d="M130 112.48a10.67 10.67 0 0 1-3.19 3.12l-2.59-.89.14-.23a23.72 23.72 0 0 0 3.19-4.08A53.75 53.75 0 0 0 135 91.27c-2.82-1.93-6.75-4.08-6.75-8 0-2 1.78-4.45 3.93-4.45a4 4 0 0 1 1.85.45 7.17 7.17 0 0 1 4.23 5.93c.15 1.63.37 3.26.45 4.9a41.66 41.66 0 0 1 7.41 5 5.2 5.2 0 0 1 1.78 4c0 2.22-1.41 5.93-2.15 8.16-1.33 3.93-3.71 10.08-3.71 14.16a7.7 7.7 0 0 0 .52 2.89l2.08.52-.08.59.08.08.36-.5h.59a2 2 0 0 1 .22.89c0 1.41-2.22 1.86-3.33 1.86-4.82 0-6.75-5.19-6.75-9.27 0-5 3.11-13 4.89-17.8a17.55 17.55 0 0 0 1.26-4.6c0-1.78-2.07-2.52-3.41-3.11-.93 7.27-4.26 13.65-8.47 19.51zm-.37-30.77l.15.14a2.51 2.51 0 0 1 .29-.81zm.44 28.92l-.07.07h.07zm.52-3.86a1.7 1.7 0 0 0 .6-1.19zm1.41-25a1.29 1.29 0 0 0-.44.89.7.7 0 0 0 .07.37c.13-.36.2-.81.37-1.25zm3 5.56c0-1.41-.37-4.6-1.18-5.63a3.35 3.35 0 0 0-1.19 2.52 5 5 0 0 0 2.3 4.08c.07-.3.07-.66.07-.96zm1.71 8.23a91.91 91.91 0 0 1-3.93 10.61c1.55-1.71 3.85-8.6 4.15-11-.13.11-.13.25-.2.4zm-3.47 5.44a8.77 8.77 0 0 0 .82-2.15l-.15.07zm1-3.27a1.18 1.18 0 0 0-.22 1zm.15-.37a.28.28 0 0 0 .07-.22zm.15-.59a.44.44 0 0 1-.08.3.57.57 0 0 0 .15-.3zm.22-.89l.22-.3h.02zm.37-.89l-.07-.15v.22zm1.93-.59H137v.29h.08zm.15-.82h-.08v.22h.08zm4.3 9L138 113.37l-.82 3a28.39 28.39 0 0 0 1.56-4.38c1.26-3.93 2.67-7.78 3.78-11.79a6.58 6.58 0 0 0-.97 2.34zm-2.67 15.21c0-.15-.08-.23-.08-.37a.68.68 0 0 0-.07.37zm4.74-16.32L140 112.11c-.52 1.63-.74 3.41-1.11 5l.11-.11c.66-2.22 1.18-4.52 1.92-6.74 1-3 2.38-5.94 2.9-9.05zm-3 16.17a86.47 86.47 0 0 1 3.34-11 31.64 31.64 0 0 0 1.93-6.89h-.15c-1.78 5-3.41 10.08-5 15.12a15.85 15.85 0 0 0-.74 4.53 8.47 8.47 0 0 0 .07 1.33c.26-1.06.33-2.09.55-3.13zm-.14-3.49V114l-.08.07zm.74-2.67l.07-.07h-.07zm.15-.59l.07.07v-.07zm.07 7.12h-.07c0 .07 0 .07.07.15zm.07-7.57l.08.08v-.08zm.08 6.83h-.08v.15h.08zm.44-1.63h.08v-.23H142zm.23-.89h-.08v.22h.08zm.29-7.27l-.07.07h.07zm0 6.3c-.07 0-.07.08-.07.15h.07zm.08-14v.22a.45.45 0 0 0 .07-.29zm.07 13.49l-.07.08h.07zm.07-.52l.15.08a.3.3 0 0 0-.07-.23zm.3-.66H143v.22zm.45-1.41h-.08c0 .07 0 .07.08.07zm.14-6.38l-.07.07h.07zm0 5.93c-.07 0-.07 0-.07.08zm.37-9.34h-.14v.22zm-.07 8.45l.07-.07h-.07zm.15-.44c.07 0 .07-.08.07-.15h-.07zm.15-.52h.07v-.15h-.07zm.89-2.38H145v.15h.08zm.07-.37h.08v-.07h-.08zm.15-.59l.07.07V105zm1-2.89V102l-.08.08zM167.06 100.91l.59-.59-.07.44.22-.44h-.15l.15-.22v.22l.15-.3h.05l.3-.52.15.08c-1.34 3.41-3.64 6.6-5.57 9.71-1.11 1.78-2.15 3.64-3.33 5.34a79.72 79.72 0 0 1-5.55 7.27 1.85 1.85 0 0 1-1.48.52c-2.15 0-3.71-1.19-3.71-3.41a46.81 46.81 0 0 1 2-12 47.8 47.8 0 0 0 1.78-9v-.3c0-.37-.23-.74-.23-1.11s.45-.44.67-.52c3.26.45 5.93 2.15 5.93 5.71 0 2.82-1 5.34-1.78 8l-1.63 5.49c0 .07-.07.07-.07.15a.8.8 0 0 1 .07.22c2.08-2.6 3.86-5.49 5.71-8.23 1.11-1.63 2.45-3.12 3.64-4.67a21.43 21.43 0 0 1 1.92-2.67l-.37.66.52-.59a61.86 61.86 0 0 0-3.63 6 11.25 11.25 0 0 0 1.41-1.86c.74-1.26 1.26-2.81 2.37-3.85zm-14.54 18.39c1.11-4.3 2.37-8.6 3.56-12.9a23.74 23.74 0 0 0-1.63 5 58.74 58.74 0 0 0-2.08 7.86zm5-34.26l.37.08v.52a1.43 1.43 0 0 0 .52-.38l.74.38-.15.51.89.15v.7l.37-.07a1.53 1.53 0 0 1 .75 1.26c0 1.78-.82 3.34-.82 5.12 0 1 .3 2 .3 3a1.23 1.23 0 0 1-.67.23c-.52 0-.89-.45-1.41-.37-1.78-1-3.34-4.38-3.34-6.46 0-1.11.82-5 2.23-5zm-1.56 31.37c3-4.37 5.94-8.75 9-13.12a23 23 0 0 0-3.27 3.93c-1.26 2.07-2.67 4.07-3.93 6.15a41.74 41.74 0 0 0-2.52 3.71 7.07 7.07 0 0 0 .69-.67zm.23-10.83v.42c.07-.08.07-.3.14-.45zm2.52 8.38c-.37.08-.52.45-.67.75zm.89-1.26c-.37.08-.67.23-.67.67v.15zm2.44-3.11a5.53 5.53 0 0 0 .6-1.19 9.93 9.93 0 0 1-.89 1.41zm1.63-2.15l.23-.22a.27.27 0 0 1-.23-.08 6.16 6.16 0 0 0 .52-1.11l-.89 1.26.37-.15zm1.41-2.6l.23-.37v-.29a4.38 4.38 0 0 0-.67 1.11l.3-.15.14-.3a.43.43 0 0 1 .08.3.48.48 0 0 0 .07-.3zm.08.3H165a.28.28 0 0 0-.07.22zm.15-.59v.14c.07-.07.07-.07.07-.14zm.59-1c0-.29.15-.52.15-.81l-.67 1.26.3-.15v.22l.15-.22h-.15zm0 0v.22l.15-.22a.45.45 0 0 1 .07-.29H166c0 .07-.08.22 0 .29zm1.26-2.45l-.07.3-.3.08a.94.94 0 0 0 .3-.6zm.15.23l-.15.07-.07.22zm.22-1.93l.15.07a2.47 2.47 0 0 1-.52 1 5.4 5.4 0 0 0 .34-1.04zm.3.67V100h.07zm.15-.37v.3h-.08zm0 .29v.01h.02z" fill="#fff"/><path d="M176.47 112.41l.6-.6a.94.94 0 0 0 .59.37c-.22.3-.3.67-.52 1-1.11 1.7-5.19 3.71-7.19 3.71-4.6 0-7.57-4.53-7.57-8.75 0-4.75 3.79-15 9.42-15 2.89 0 5.49 2.29 6.75 4.74a3.12 3.12 0 0 1 .37 1.41c0 1.26-.59 2.37-.59 3.63a11 11 0 0 0 .52 2.15 4.24 4.24 0 0 1-3.86-4.44 8.09 8.09 0 0 1 .74-3.19h-.52a2.6 2.6 0 0 0-1.63.44c-4.6 3.41-5.63 9.86-5.63 15.2a3.36 3.36 0 0 0 .14.82c2.52-.22 4.23-1.34 6.23-2.67a4.81 4.81 0 0 1 1-.52l1.34 1zM169 95.94c-.52 0-1.63 1.71-1.92 2.15a7.54 7.54 0 0 0 1.92-2.15zm2.82 1.26l-.67.23c-1.26.52-2.81 3.78-3.26 5h.11a3.31 3.31 0 0 1 .66-1.11 19.94 19.94 0 0 1 3.27-4.16zm-1.82-.14a1.78 1.78 0 0 0-1.26 1.26c.39-.45.84-.82 1.26-1.26zm6.45 1.18c-.08.08-.08.08-.08.15h.08zm.37 13.5h-.07c0-.07.07-.07.07-.15zM205.76 123.53c1.26 0 2.52-.37 3.79-.37a27.12 27.12 0 0 1 3.33.44c-1.33 2.16-5.11 3-7.49 3-7.12 0-14.46-4.82-18.24-10.68-.22-.29-.3-.44-.67-.52v1.41c0 1.63.3 3.19.3 4.82 0 .52-.07 1-.07 1.56a17 17 0 0 1-2-.15 3.43 3.43 0 0 1-1.11-.44c-2.52-1.71-3-4.23-3-7 0-5.93 1.56-11.79 2.9-17.5s2.91-11.8 4.5-17.66c.81-3 2.89-9.34 2.89-12.16 0-1-.22-2-.22-3 .29 0 .51-.07.81-.07a2.67 2.67 0 0 1 .82.37c2 1.11 3 3.86 3 6.08 0 4.45-1.41 8.68-2.44 13-1.49 6.23-3.27 12.46-4.31 18.76a29.14 29.14 0 0 1 11.2-10.61 2 2 0 0 1 1.12-.37c1.33 0 3.33 1.71 3.33 3.12 0 2.08-2.07 4.45-3.33 5.93-2.82 3.34-5.64 6.68-8.38 10 1.93 4.25 8.08 12.04 13.27 12.04zm-18.31-14.09h.07v-.07zm2.59-4.67a39.89 39.89 0 0 1 2.67-4l.08-.14c-2.08 1.85-4.08 6.22-5.27 8.45a15.58 15.58 0 0 0 2.48-4.31zm-1.85.52a44.12 44.12 0 0 1 2.52-4 17.83 17.83 0 0 0 1.11-1.48 1.84 1.84 0 0 0 .52-.52 38.29 38.29 0 0 1 5.79-5.12c-3.49 1.71-5.79 4.9-8.09 7.86a11.82 11.82 0 0 0-2 3.34zm-.08 3.63l.08.08v-.08zm.3-2.52l.07.15.15-.15zm.45 3.26l.44-.44 5.93-7c2.08-2.45 4.23-5 6.08-7.64l-.22-.15c-6 3.34-9.86 8.6-12.61 14.76zm.14-4.08h-.14v.23zm.08 1.56H189l.08.08zm0-1.85v.22l.15-.22zm.37-.52c-.08 0-.3.07-.3.22a.73.73 0 0 1 .08.22zm.07-.37a.7.7 0 0 0-.07.37.61.61 0 0 0 .15-.3zm.15 0l.22-.22a.26.26 0 0 1-.22-.08zm.22-.6v.38a.57.57 0 0 0 .15-.3zm.23-.29v.22l.14-.22zm.29-.3h-.07a.43.43 0 0 0-.08.3.53.53 0 0 0 .15-.3zm.08-.37v.22l.15-.22zm.37-.82l-.15.3a.27.27 0 0 1-.07.22v.3a.57.57 0 0 0 .14-.37c.23-.07.23-.22.37-.37l-.07-.08zm.37-.44v.42a.58.58 0 0 0 .15-.29.4.4 0 0 1 .29-.08.27.27 0 0 0-.22-.07zm.22 8l-.07-.08v.08zm.22.89a17.25 17.25 0 0 0 1.71-1.71l8.45-10.23a7.29 7.29 0 0 0 .74-1.56 16.48 16.48 0 0 1-1.33 1.93L192 110zm0-9.42v.52a.62.62 0 0 0 .08-.37.4.4 0 0 0 .29-.08.29.29 0 0 1-.22-.07zm.45-.52l-.08.08v.51l.15-.37a.3.3 0 0 1 .23-.07.3.3 0 0 0-.23-.07zm.3-.44v.59l.14-.45a.3.3 0 0 0 .23-.07.3.3 0 0 1-.23-.07zm.74-.6a.3.3 0 0 0-.23-.07v.37l.15-.22a.42.42 0 0 0 .3-.08zm1.41 5c-.08 0-.08 0-.08.08zm.59-.74a4 4 0 0 0 .74-.89 2.15 2.15 0 0 0-.74.87zm1.19-1.33v-.08h-.08l-.22.37zm.37-5.71l-.08-.08-.29.22zm0 5.19a1.53 1.53 0 0 0 .37-.52zm1-1.12h-.07l-.3.37zm2.82-3.56a17.24 17.24 0 0 0-2.3 2.9c.52-.52.82-1 1.33-1.56.11-.56.71-.84.93-1.36zm.52-.66a1.24 1.24 0 0 0-.37.52zm2-.37v.22a.29.29 0 0 0 .07-.22z" fill="#fff"/><path d="M217.18 91.87a16.45 16.45 0 0 0-1.93-.38c-1.48 0-2.89 3-3.41 4.23a9 9 0 0 0-.59 3.71c1.75-1.43 3.26-3.49 5.75-3.49a8.24 8.24 0 0 1 3 1.19c-1.48 1.26-3.26 2.22-4.52 3.78-.89 1.11-1.71 2.23-2.52 3.41 2.15 4.23 4 7.72 4 12.61 0 4.45-4.38 8-8.68 8-2.74 0-6.15-1.63-6.15-4.82 0-4.75 3.71-11.79 5.86-16-1-2.3-2.3-4.75-2.3-7.34 0-3 2.59-8.75 6.15-8.75a7.69 7.69 0 0 1 5.79 3.41zm-13.79 26.69h.07v-.29h-.07zm.22-.74v-.3l-.15.3zm.67-2.67a35.61 35.61 0 0 0 1.78-4.67 10.34 10.34 0 0 0 1-2.08 42.46 42.46 0 0 0-2.89 7.2zm.3 3.41v-.07h-.08v.07zm.14-.81v-.52a1.34 1.34 0 0 0-.07.52zm.6 2.59c.74-4.45 2.59-8.6 4.37-12.68-.89.15-3.78 8.53-4.08 9.86-.22.89-.29 1.86-.44 2.75zm4.89-10.68c-1.11 2.45-3.56 8.38-3.56 10.9A3.08 3.08 0 0 0 207 122c.23-.15.52-.15.74-.29a7.39 7.39 0 0 0 3.56-6.6 27.35 27.35 0 0 0-.89-5.49zm-2.89-1.93a.84.84 0 0 0-.3.67 3 3 0 0 1 .3-.67zM208 93.2a6.68 6.68 0 0 0 1-1.85 6.31 6.31 0 0 0-1 1.85zm.74 18.24l-.08.08h.08zm.07-4.08v.08l.08-.08zm.45-13.64a2.78 2.78 0 0 0 .89-1.78zM212 92c-1.26.52-1.85 2.52-2.15 3.71.81-.8 1.47-2.66 2.15-3.71zm-.22 1.86l-.08-.08v.08zm0 25.21a1.3 1.3 0 0 0 .52-1.19 8.26 8.26 0 0 1-.53 1.2zm.15-25.58l-.08.07h.08zm.52 24l-.15-.07v.37zm.74 1.49c.37-.15.44-.37.44-.74v-.45zm1 1.48a5.12 5.12 0 0 0 1.11-2.89c0-.22-.07-.37-.07-.6-.3.89-1.11 2.45-1 3.42h-.07zm1.41-1.11l.07-.08h-.07zm.22-.52h-.07c0 .07 0 .07.07.07z" fill="#fff"/></svg>