<svg xmlns="http://www.w3.org/2000/svg" width="200" height="140" viewBox="0 0 200 140"><g id="logos"><path d="M159.08,129.88c.08-3.38-.44-6.72-.53-10.09,0-1.16-.24-1.39-1.39-1.68-.9-.22-1.83-.21-2.74-.41-2.68-.57-6.69-2.62-7.87,1.14-2,6.67-2.16,3-10.59,1.86-.77-.18-3.88-.7-3.2-1.8.73-1.51,5.76-18.4,7.15-22.94,2-6.14,4.44-12.17,6.16-18.41.22-1,1.07-1.07,1.83-1.25a12.41,12.41,0,0,0,4.2-1.87,2.49,2.49,0,0,1,2.5-.1,76,76,0,0,0,8.75,3.25c1.27.39,2.44,1.07,3.74,1.38.89.21,1.14.87,1.28,1.65.25,4.77-.13,9.57.11,14.35,0,9.7-1.81,19.33-1.23,29.05-.21,1.78,1,11.29-1.24,10.92a18.29,18.29,0,0,1-6.13-1C158.5,133.85,159.26,130.88,159.08,129.88Zm-1.55-34.1c.08-1.88-.59-4.07-2.05-1.32-1.7,4.3-3.8,8.49-4.83,13a1.69,1.69,0,0,0,1.11,2.21c1.82.74,3.85,1.38,5.79.59.54-.23.85-.53.77-1.15-.22-1.59-.43-3.18-.61-4.78A32.85,32.85,0,0,1,157.53,95.78Z" fill="#fff"/><path d="M114.63,107c-.09,3,.73,12.6,5.49,9.33a11.73,11.73,0,0,0,3.56-5.93c.3-1.13.44-1.21,1.59-1.13s11.23,1.41,10.36,2.72a37,37,0,0,1-4.58,10.93c-3.1,5.14-9.48,6-14.94,5.08-12.68-4-10.8-27-8.79-37.41.55-2.56,1.31-5.06,2.06-7.57.92-3.42,2.14-6.85,4.92-9.2,2.28-2,5-4,8.15-4.18A13.4,13.4,0,0,1,135,77a19.61,19.61,0,0,1,2.06,4.77c.31,1.57,2,8.27-.8,8a47.21,47.21,0,0,1-9.93-.79c-1.84,0-.94-2.11-1.72-3.19C119,78.15,113.82,103.53,114.63,107Z" fill="#fff"/><path d="M34.22,84.9c.71.13,2.89-.38,2.57.5-.64,2-1.28,4-1.95,5.93C34,93.59,30,93.45,27.92,93.92c-1.84.26-3.62.74-5.42,1.13-5.76.83-3.88,2.36-3.76,6.9-.38,1.63,11.06,1.43,12.64,1.57,1.18.1,3.41-.21,3.45,1.44s.18,3.56.14,5.34c.29,2.66-8.69,4.32-10.85,5-1.64.44-5.35-.36-5.3,2.11,0,3.32,0,6.65.16,10-.12,1.79,1.12,7.85-.9,8.34-4,.92-7.95,1.59-11.93,2.37A1.1,1.1,0,0,1,4.66,137c-.31-2.9-.71-5.79-.82-8.7C3.26,118.7,1.49,109.19.92,99.58.71,96,.4,92.43,0,88.87c-.09-1,0-1.05.91-1.16,3-.31,5.89-.65,8.83-1C17.91,86.38,26.1,85.15,34.22,84.9Z" fill="#fff"/><path d="M189.85,76.82c7-.3,7.4,14.07,7.58,19.09,0,2,.75,4.58-1.75,5.38-6.29,2.33-2.86-.27-6.18-5.22-.88-1.51-3-2.55-4.42-1.13-5,3.82-3,10.36,2.57,12.86,3.66,2.5,8.9.68,10.92,5.48,2.22,4.93,1.25,10.71,1.05,16-.25,3.17-1.77,6.53-5,7.68-6,2.6-15.07,5.87-18.07-2.38-.85-2.14-1.49-4.34-2.19-6.52a.84.84,0,0,1,.41-1.1c1.91-1.09,4.19-1.23,6.28-1.82a2.49,2.49,0,0,1,3,1.2c.62.87,1.2,1.78,2.41,2a4.14,4.14,0,0,0,3.48-1.34c1.36-1.17,1.34-2.77,1-4.34-.45-1.75-1.81-3.82-3.82-3.92a18.27,18.27,0,0,1-7.55-1.62c-5.1-2.73-6.25-10.92-7.82-16.09-.63-3.35-1.28-6.76-.49-10.13.22-2.48.74-5,2.89-6.54C178.82,80.69,183.68,77,189.85,76.82Z" fill="#fff"/><path d="M71.86,127.59c0-7.14,1.78-14.06,2.39-21.14.6-4.94,1-9.9,1.44-14.85.3-2.82.37-5.65.52-8.48.25-1.16-.27-3.62,1.19-3.89a104.85,104.85,0,0,1,16.44-2.17c.37,0,.51.26.65.53a35.2,35.2,0,0,1,3.23,9.27c2.25,9.24,3.64,18.63,5.48,28,.56,2.51,1.22,5,1.81,7.5.21,1.31.66,3-.9,3.59A31,31,0,0,1,97.76,128c-2.2.41-5.82,2.56-6.44-.9-1.2-5.12-1.78-10.36-2.9-15.48,0-.38-.22-.54-.6-.46a60.18,60.18,0,0,1-6.41,1c-.73.07-1.16.65-1.32,1.6-.43,2.6-.67,5.23-.9,7.86-.14,1.71-.73,3.35-.85,5.06-.06,1.06,0,2.61-1.48,2.47-1.22,0-2.45-.05-3.67-.09S71.78,128.81,71.86,127.59Zm15.43-22.72c-.35-2.89-1.87-5.56-2.48-8.42-.17-.67-1.71-4.42-2.44-2.83-.79,2.59-.9,5.4-1.59,8-.21,2-1.84,6.47,1.56,6.31C84.14,107.68,87.4,107.27,87.29,104.87Z" fill="#fff"/><path d="M72.63,100.91c.17,8-4.94,11.8-10.56,16.38-.92,1-.35,3.85-.09,5.18.48,1.72.56,3.51.91,5.25.4,2,1.21,3.85,1.6,5.83.28,1.38.64,2.75,1,4.13a.81.81,0,0,1-1.25,1,9.49,9.49,0,0,0-3.69-1,10.44,10.44,0,0,1-6-3.06A10.1,10.1,0,0,1,52.62,130c-.89-3.61-2.15-7.09-3.23-10.64-.15-1.11-1.24-1.73-1.45-.29-.79,3.48-2.09,6.8-3.21,10.18-.3.92-.21,2.54-1.58,2.3-2.85-.24-5.31-1.89-8.09-2.49-.84-.25-.92-.43-.67-1.27,1.37-5.23,2.44-10.52,4.2-15.64,2.53-9.22,5.55-18.28,8.34-27.42a.84.84,0,0,1,.94-.72c3.7.23,7.26,1.55,10.7,2.87C64.66,89.5,72.87,93.1,72.63,100.91Zm-13.1,1.58A7.43,7.43,0,0,0,56,96c-1.24-.84-1.3,1.39-1.61,2.12-.91,3-1.84,5.89-2.75,8.83a1.08,1.08,0,0,0,.66,1.57C56.21,110.27,59.7,106.41,59.53,102.49Z" fill="#fff"/><path d="M98.39,41.49c2.41-2.47,5.48-4.86,9.13-4.77,2.82.14,2.33,3.63,2.55,5.64.34,2.29-.92,7.06,2,7.7,3.34.62,4.5-5.15,5.81-7.41,1-1.7,1.78-5.57,3.79-6.09,1-.21,1.91-.49,2.85-.74.55-.1,3.78-1.45,3.09,0-.38,1.36-7.51,15.09-3.15,13.07,4.38-3.27,8.1-7.61,9.17-13.1,1-3.53,1-7.21,1-10.85.06-3.19,1.26-6.19,2.28-9.18,1.63-4.13,3.42-8.59,7-11.45,2.94-2,8.65-1.26,9.4,2.66.6,5.88-2.72,12.08-5.09,17.32-2.44,4.56-4.58,9.27-6.72,14-.86,1.94-1.46,3.88-.86,6A3.07,3.07,0,0,0,146,46c3.71-3.26,3.28-10.5,7.31-12.57a26.52,26.52,0,0,1,4.3-1.82c.72-.15,4.13-1.58,3.82-.11-.4,1.19-.76,2.41-1.25,3.56-1.15,2.84-5.44,9-1,10.83,4.79.8,9.18-11,9.61-14.86A6,6,0,0,1,172,26.44c1.18-.68,2.27-1.57,3.76-1.46,2.9-.21-1.17,9.36-1.71,10.77-2.55,5.38-2.6,9.54,2.9,3.13a47.71,47.71,0,0,0,5-7.07c.2-.18.34-.26.6-.06,1.28,1,3.18,2.52,2.28,4.33A50.7,50.7,0,0,1,173.38,50.7a51.24,51.24,0,0,1-5.66,4.42,3.62,3.62,0,0,0-1.52,1.69c-3.31,6.57-6.87,13.57-13.33,17.59-5.33,3.82-17.17,3.86-17.44-4.35-.18-5.63,4.55-8.81,4.72-8.94a15.89,15.89,0,0,1,4.75-2.86c2.3-.77,4.45-1.92,6.77-2.61a5.91,5.91,0,0,0,3.08-2.3c1.15-1.56-1.38-2.12-2.28-2.91-2.65-2-3.46,2.25-7.82,3.63a9.1,9.1,0,0,1-7.87-.33c-1.34-.63-2.64-1.2-2.91-3-.18-1.21-1-1.3-1.84-.37a25.61,25.61,0,0,1-6.51,5.16c-3.25,1.91-6.53-.11-8.55-2.72-.55-.5-.93-.54-1.47-.09-6.32,5.77-10.42,2.12-11.29-5.3a.71.71,0,0,0-1.38-.31,9.16,9.16,0,0,1-2.18,2.9c-1.27,1.21-2.59,2.37-3.91,3.53-2.34,2.1-5.53,5-8.76,3A1.62,1.62,0,0,1,87.05,55a46.41,46.41,0,0,1,1.51-6.68c.78-4.16-5.35,2.35-6.11,3.19-2.21,2-8.26,11.32-11.24,7.12-.52-1.12-.92-1.28-2.09-.84-3.3,1.12-6.91,3.67-9.91.53-.57-.49-1.16-.49-1.55.09C54.18,63,49.37,64.44,45,60c-2.48-6.49,2-13,6.64-17.3a15.16,15.16,0,0,1,7.88-4c1.77-.37,3.81-.12,5.39-1.14,1.61-2.34,4.66-2.26,7.14-1.66,2,.52.89,3.59.11,4.8-2,3.23-4.79,6.28-5.21,10.25-.09,2.19,2.39,1.25,3.49.52a17.89,17.89,0,0,0,5.75-6.53c1.5-2.82,1.23-6.93,5-7.85,1.92-.43,3.76-1.2,5.71-1.47.59-.08.69.08.54.65-.27,1.37-1.61,2.25-1.73,3.64,0,.88.79.63,1.24.26a5,5,0,0,1,4.16-1.33C97.19,39.12,93.64,47.57,98.39,41.49ZM147.18,70.1c4.2-.31,7-4,9.64-6.83,2.75-3.24,3.37-7.38-2.23-5.36-4.21,1.52-8,4.6-9.7,8.82A2.29,2.29,0,0,0,147.18,70.1Zm.09-58.56c-.5-7.57-5.4,4.3-5.87,6.25a38.3,38.3,0,0,0-1.47,7c-.33.84,0,3.9,1.39,2.55A29,29,0,0,0,147.27,11.54ZM60,42.88c-3.52.09-7.55,5.43-7.45,8.8a2.12,2.12,0,0,0,2.57,2.21,6,6,0,0,0,3.42-2C60.09,50.18,64.84,42.76,60,42.88Z" fill="#fff"/><path d="M130.35,22.45a6.08,6.08,0,0,1-1.8,3.94c-1.34,1.51-3.11,3.45-5.33,3-2.48-.73-.66-5,.54-6.25C125.23,21.2,130.42,17.54,130.35,22.45Z" fill="#fff"/><path d="M57.54,33.19c-8.11-.28-17.21.76-21.38,8.53-5.64,9.84-6.48,21.55-7.32,32.63.12,5.39-1.19,7.89-6.86,8.8-4.62.28-2.9-5.38-2.46-8.17,1.45-7,2.9-14.27,6.16-20.74,1.74-3.39,3.12-7,4.82-10.37,2.79-5.45,4.73-11.3,7.73-16.65.47-.83,4.56-7.93,1.27-6.23-2.4,1.36-4.87,2.6-7.23,4-.33.3-.65,0-.49-.38.53-2.56,1.38-5,2-7.57.16-.93.91-1.63,1.09-2.58A2.89,2.89,0,0,1,36.1,13c3.63-2.74,8.15-3.59,12.16-5.62,2.37-.92,4.85-1.57,7.18-2.61a88.67,88.67,0,0,1,12-3c2.87-.46,5.74-.92,8.63-1.3,2.16-.2,4.43-.84,6.56-.23,1.42.31-.07,4.45-.49,5.32a24.23,24.23,0,0,0-1.52,2.9,1.13,1.13,0,0,1-.59.57c-4,2.17-8.7,1.57-13,2.52-3.11.48-6.22,1-9.29,1.66-2.1.37-4.24,1-5.4,3-1.4,1.76-2.78,3.53-4.16,5.31-1.19,1.54-1.88,3.4-2.91,5-.34,1,.13,1.64,1.17,1.21,4.63-1.51,9-3.81,14-4.18,1.6,0,3.41-.48,4.87.31,1.2.94.65,5.05.31,6.45C64.75,33.92,60,33.13,57.54,33.19Z" fill="#fff"/></g></svg>