<svg xmlns="http://www.w3.org/2000/svg" width="300" height="118" viewBox="0 0 300 118"><path d="M151.36,31.46c-3.5-2.56-8.25-2.52-12.78-1.94l.16,2.23-2.92.32-.25-2.35L120.15,31l.16,2.6L115.7,34l-.33-2.64-5.9.5-.17-1.24c-12,1.73-15.46,12-15.91,21.28-.62-1.12-2.1-4-3.63-6.19-3.59-4.74-8.86-9.4-15.87-8.37-1.53.37-2.35,1-3.84,1-4.37.17-7.54,3.22-9.77,6.72a29.66,29.66,0,0,0-1.61,21.07c2.15,6.81,5.36,13.2,11.13,18.1,4.33,3.63,10.19,5.57,15.84,3C95.78,83.37,96,70.17,96.32,67.08c.08-.25.24.08.33,0a25.82,25.82,0,0,0,8.12,10.14,13.27,13.27,0,0,0,13.28.95,12.84,12.84,0,0,0,4.12-3.38l-2.56-23.62,6.68,25.23,10.35-.91L139,68.36l-6.22.33-1.2-11.75,3.88-.29v-2.8l1.65-.17.12-3.63,4,25,5.48-.29.41-6.31,4.29,5.86,7.8-.21-5-11.38-1-.49a22.25,22.25,0,0,0,6-11.14C160.64,43.54,158,35.58,151.36,31.46ZM93.68,75.74C92.32,80.4,88.4,86,82.88,86.42c-7.67.49-13.45-6.85-16.29-12.78-3.75-8.54-4.83-20.5-.37-28.82,2.27-4,6.1-7,11-6.4,4.2.66,7.79,3.26,10.51,6.6a31.69,31.69,0,0,1,4.87,8.87,58.79,58.79,0,0,1,2,8.94A36.39,36.39,0,0,1,93.68,75.74Zm23.5-35.58,2.14,9L108,50.79l.28,2.35-2.18.29,1.48,7.22,2.68-.58,4,12a1.14,1.14,0,0,1-.49,0c-3.63-.95-5.4-4.54-6.6-7.59-2.18-7.13-2.39-15.67,2.23-21.65C111.74,40.24,117.18,40.16,117.18,40.16Zm3.5,34.42c-2.47,2.52-6.1,4.33-9.81,3.22-6-1.61-9.11-7.5-11.05-12.62-3.21-9.93-2.51-21.48,5.24-29.06,3.42-3,9-3.26,9-3.26l.78,6a17.29,17.29,0,0,0-3.09.74c-4.7,1.65-6.27,7-7.13,11.21-1,7.34.08,15.75,5.6,21,1.57,1.28,3.43,2.35,5.61,1.86l.45-.13L112.77,55.7l-2.56.5L109.47,52l8.45-1.11S120.77,73.31,120.68,74.58Zm9.24-21.72,1.61,17.23,5.52-.33c0,.12-1.6,4.33-1.6,4.33l-7.8.7L121.92,32.4l12.54-1.11.37,4-6.56.62,1.32,13.15,5.9-.41.12,3.63Zm.91-5.24L130,39.21l4.62-.46.33-2.14H135l1.69,10.6ZM150.25,63l2.72.57c0,.13,4.37,9.28,4.37,9.28l-4.45.17-4.29-9s-2.52,1.15-2.93,1.36l-.08,7.92-3.14.16L140.1,30.71a16,16,0,0,1,16.37,7.8C159.81,45.27,158.49,56.65,150.25,63Z" fill="#fff"/><path d="M146.29,38.71,146,58.83c6-1.27,8.62-13,4.91-18.22A6.29,6.29,0,0,0,146.29,38.71Zm1,18.39.25-13.23C152.47,45.39,149.75,55.45,147.28,57.1Z" fill="#fff"/><path d="M75.78,44.32c-2.47.25-3.91,2.89-4.53,4.87-2.06,8.9.33,18.88,4.62,26.34C77.47,78,80,81.43,83.58,81c3.54-1,4.57-5,5-8.17a40.29,40.29,0,0,0-4.83-22.51C82,47.58,79.58,44.11,75.78,44.32ZM83,78.3h0a2.14,2.14,0,0,1-1.86.53c-3.71-1.73-5.07-5.69-6.63-9-2.11-5.81-3.63-13.15-1.78-19.25a3.18,3.18,0,0,1,1.61-1.73c1.65-.21,2.89.9,3.88,2.06,4.16,6,6.18,13.19,6.43,21C84.57,74.21,84.57,76.56,83,78.3Z" fill="#fff"/><path d="M41.93,19.25a12.22,12.22,0,0,0-3.09-3.42c-3.26-2.56-9-3.13-12.86-1.48l1.93,56.56C45.64,57.76,48.12,30.51,41.93,19.25ZM39.79,50.88A39.52,39.52,0,0,1,29.4,67.25L28.28,24.82s5.69-1.44,9.61,2.51C42.84,33.56,42.1,43.7,39.79,50.88Z" fill="#fff"/><path d="M41.36,74.42C58.84,52.53,60.2,37.68,59.08,27.5c-1.69-15.13-12.24-38-50.79-22.1l.53,5.65L0,13.93,15.46,117.38l15.17-7.5-.49-21.19,4.66-2.27,16,14.35L65,95.24,48.94,74.38ZM52.08,98.54,34.55,78.25l-6.22,3.26.82,27.3-12,5.73L10.31,6.43C37.52-3.63,47,5.89,50.51,9.93c5.65,6.81,7.21,15.47,7,24.82-.74,11-8.21,28.87-20.66,41.44L48.24,76l14,18.43Z" fill="#fff"/><path d="M281,56l-1.11,2.47-2.64-1.11.95-2.64-8.58-3.17-.86,2.55-4.29-1.36-.62,3s-.08-5.69-4.54-8c-1.31-.62-11-3.83-11-3.83l-1,3.3L241.12,46a10.15,10.15,0,0,0-4.29-5.11c-3.67-1.57-8.7-2.64-12.57-3.55l-.54,3.13-5.15-1-1.86,33.07L215,35.33l-7.17-1.56L206.61,37l-3.79-1c-.33-4.57-1.94-24.49-30.84-22.3v4.2l-6.48.21,3.88,60.36,8.7.74.82-7.54,2.48-.42,4.94,8.33,10.4.66-1.9-4.86,4,.49,2.35-6,6.72.87,1,6.18s14.31,2.73,18.18,3.51c7.18,1.36,11.3-5.61,11.3-5.61s-1,9-1,9,15.67,7.79,21.07-2.1l-1.61,7.67,6.19,2.43,11.79-28,4.58,1.86-9.08,29.23,6.44,2.68,13.56-27.38,3.18,1.49,1.23-2.4,2.19,1,3.05-6.1ZM187.85,78l-5.48-13.24s-3.92,1.65-4.37,1.86l-1.28,10.76L171.44,77l2.1-61.77S186.2,15,192.72,19.5c7.5,5.19,9.89,14.8,7.95,23.5-1.4,8.33-8.33,16.7-16.08,20.49l5.4,2.85,4.38,12.2Zm6-6.27-2.47-6.52-3.22-2A32.09,32.09,0,0,0,198,53.8Zm16.24,4.12-.9-9.19-7.84-1.16-3.42,8.62L195,73.64l13.73-38.18,5.12,1,1.44,40.2Zm28.21-6.76c-.29,3.92-3,8.16-6.85,9.57-3.54,1.44-12.86-1.24-12.86-1.24l7.21-38.22s6,1.56,8.83,2.35a8.37,8.37,0,0,1,5.73,7.42h0c.2,3.71-3.71,8.53-7.71,9.69C232.63,58.63,238.85,63,238.28,69.06Zm-2.68-10a18.55,18.55,0,0,0,4.78-4l-1,9.53A16.72,16.72,0,0,0,235.6,59.08Zm17.68,24.86c-3.13,1.78-11.25-.16-13.52-1-.58-.2-.29-.86-.16-1.27L249,45.72s7,2.15,9.23,3.09c3.1,1.61,4.21,4.79,3.8,8a8.66,8.66,0,0,1-5,6.43,15.85,15.85,0,0,1-3.75.7.37.37,0,0,0-.05.41h0c3.43,1.94,6.27,5.11,6.11,9.24A11.6,11.6,0,0,1,253.28,83.94Zm9.78-24.4-2.31,11.21a15.07,15.07,0,0,0-4-5.57c-.17-.24.12-.41.29-.41C259.51,64,261.57,61.8,263.06,59.54Zm-.54,30.3-3.67-1.36,11.92-35.25,5.89,2.31Zm33.81-21.4-5.57-2.51L276.21,95.82,272.09,94l12.74-30.55-4.46-1.94,1.53-3.71L298,64.69Z" fill="#fff"/><path d="M227.19,61.27,224,73.55a14.93,14.93,0,0,0,2,.37,5.1,5.1,0,0,0,3.92-2.14h0C233.49,64.69,227.27,61.27,227.19,61.27Zm-1.28,11.29,1.73-6.76C229.45,66.09,228.59,72.69,225.91,72.56Z" fill="#fff"/><path d="M254.36,60.11a6.48,6.48,0,0,0,1.56-5.94,5.1,5.1,0,0,0-2.26-2.47l-2.93,9.57A3.76,3.76,0,0,0,254.36,60.11Z" fill="#fff"/><path d="M248.79,66.79l-3.88,12.37a5.57,5.57,0,0,0,5.41-.78h0a7.72,7.72,0,0,0,2.55-8.25C251.88,67.86,248.79,66.79,248.79,66.79ZM248.87,77a3.49,3.49,0,0,1-2.22,1.07l2.1-6.27a2.86,2.86,0,0,1,1.2,1.65A3.65,3.65,0,0,1,248.87,77Z" fill="#fff"/><path d="M201.62,63.53l7.46,1.12-1.11-17Zm2.23-1.27,1.89-4.54.75,4.91Z" fill="#fff"/><path d="M190.2,48.32c3.3-5.28,4.41-13.52.45-18.8-2.72-3.09-8.37-3.42-8.37-3.42l-3,31.33a.67.67,0,0,0,.33.13A20.28,20.28,0,0,0,190.2,48.32Zm-9.15,6.47h0l2.1-20.86a6.17,6.17,0,0,1,4.41,3.63C189.87,43.62,185.67,51.78,181.05,54.79Z" fill="#fff"/><path d="M233.29,53.19c1.11-1.61,1.44-6.27-1.78-7.39-.2.66-2.3,8.46-2.47,9.16A4.41,4.41,0,0,0,233.29,53.19Z" fill="#fff"/><path d="M75.42,10.76l-1.59-.18-2.22,0c-.09.77,0,2.27,0,3.44,0,.81.06,1.62.18,4.08l.07.87a5.84,5.84,0,0,1-3.13.33l-.07-1.15.19-4.31.13-3.29a14.61,14.61,0,0,0-2.19,0l-1.3.24a9.37,9.37,0,0,1-.1-1.54,9.15,9.15,0,0,1,.25-1.32l1,.13c1.06,0,1.89,0,3.76,0C71.74,8.05,74,7.9,74,7.9l1.47-.08A13.7,13.7,0,0,1,75.42,10.76Z" fill="#fff"/><path d="M83.6,20.43a6.65,6.65,0,0,1-1.35.24,8.76,8.76,0,0,1-1.49-.24v-1l0-3.44H79.18c0,1.11.06,2.36.08,3.36a8.43,8.43,0,0,1-1.49.24c-.23,0-.78-.06-1.33-.12L76.34,16H75.23V13.6h1.09L76.2,6.76a7.52,7.52,0,0,1,1.52-.23A6,6,0,0,1,79,6.72l.12,6.86h1.65c0-2.62.07-5.51.09-8.1a5,5,0,0,1,1.37-.29,8.31,8.31,0,0,1,1.47.24l-.09,8.15h1.59v2.34l-1.6,0C83.64,17.39,83.6,19.08,83.6,20.43Z" fill="#fff"/><path d="M87,19.7l-.12-5.25c-.35,0-1,.14-1,.14l0-2.43c.17,0,.84-.1,1-.11,0-1.49-.07-3.31-.08-4.67.31,0,1.55,0,1.89,0s2.37-.12,4.77-.27a2.86,2.86,0,0,1,.21,1.31,4.71,4.71,0,0,1-.14,1.07l-1.72.13c-.74.05-.9.08-2.12.13,0,.67,0,1.36,0,2,1-.14,2.61-.34,3.5-.52a6.3,6.3,0,0,1,.16,2.37c-2.2.4-2.45.47-3.61.6l0,1.88a34.49,34.49,0,0,1,3.87-.82,8.58,8.58,0,0,1,.15,2.5A40.65,40.65,0,0,0,87,19.7Z" fill="#fff"/><path d="M105.85,18.31c-1.06.94-2.78,1.47-5.23,1.56-.09-1.16-.3-3.65-.57-6.17,0,0,0-.08,0-.13a19,19,0,0,0-1.15-5.05l1.82-.8a5.56,5.56,0,0,1,2.19-.52,3,3,0,0,1,2.06.7,2.51,2.51,0,0,1,.78,1.79A4.22,4.22,0,0,1,105,12a3.81,3.81,0,0,1,1.53,1,3.39,3.39,0,0,1,1,2.27A4.06,4.06,0,0,1,105.85,18.31Zm-3.33-8.92a2.45,2.45,0,0,0-1,.22c.15.58.3,1.5.57,2.74a7.67,7.67,0,0,0,.92-.87,1.63,1.63,0,0,0,.26-1.27A1,1,0,0,0,102.52,9.39Zm1.17,4.79a2,2,0,0,0-1,.12c.07.67.22,1.94.35,2.78.13-.1.75-.47.87-.57a1.84,1.84,0,0,0,.52-1.27A1,1,0,0,0,103.69,14.18Z" fill="#fff"/><path d="M109,19.7l-.12-5.25c-.35,0-1,.14-1,.14l0-2.43c.17,0,.84-.1,1-.11,0-1.49-.07-3.31-.08-4.67.31,0,1.55,0,1.88,0s2.38-.12,4.78-.27a3,3,0,0,1,.2,1.31,5.05,5.05,0,0,1-.13,1.07l-1.72.13c-.74.05-.9.08-2.12.13,0,.67,0,1.36,0,2,1-.14,2.61-.34,3.5-.52a6.3,6.3,0,0,1,.16,2.37c-2.2.4-2.45.47-3.61.6l.05,1.88a34.76,34.76,0,0,1,3.86-.82,8.24,8.24,0,0,1,.15,2.5A40.84,40.84,0,0,0,109,19.7Z" fill="#fff"/><path d="M124.58,18.71h0A5,5,0,0,1,123,20.55a3.69,3.69,0,0,1-2.29.74,4.12,4.12,0,0,1-2.48-.79h0a4.5,4.5,0,0,1-1.37-3.21c0-.18,0-.8,0-1a4.47,4.47,0,0,1,2.81-.1l0,1a6.57,6.57,0,0,0,0,1.19c.11.37.7.42.81.43s.47-.18.84-.57a2.64,2.64,0,0,0,.58-.9,3.06,3.06,0,0,0,.2-1.18,2.36,2.36,0,0,0-.11-.77c-.24-.3-.69-.4-1.37-.52a4.27,4.27,0,0,1-2.83-1.27,2.88,2.88,0,0,1-.6-1.39c0-.32,0-.7,0-1.1v-.27a5.36,5.36,0,0,1,.9-3.42,3.51,3.51,0,0,1,3-1.06,4,4,0,0,1,2.69,1l0,0a3.21,3.21,0,0,1,.75,1.82v1.78l-2.79,0V9.25a.86.86,0,0,0,0-.28,1.21,1.21,0,0,0-.7-.2.92.92,0,0,0-.7.4,3.15,3.15,0,0,0-.27,1.54,3.72,3.72,0,0,0,.15,1,1,1,0,0,0,.91.69,5.62,5.62,0,0,1,3.4,1.37,3.71,3.71,0,0,1,.71,2.36A5.69,5.69,0,0,1,124.58,18.71Z" fill="#fff"/><path d="M135.26,10.76l-1.59-.18-2.22,0c-.08.77,0,2.27,0,3.44,0,.81.07,1.62.18,4.08l.07.87a5.78,5.78,0,0,1-3.12.33l-.07-1.15.18-4.31.14-3.29a14.6,14.6,0,0,0-2.19,0l-1.31.24a9.37,9.37,0,0,1-.1-1.54,10.81,10.81,0,0,1,.25-1.32l1.06.13c1.05,0,1.89,0,3.76,0,1.33,0,3.54-.13,3.54-.13l1.47-.08A13.08,13.08,0,0,1,135.26,10.76Z" fill="#fff"/><path d="M151.92,14.08h0a8.37,8.37,0,0,1-2.24,5,5.16,5.16,0,0,1-3.84,1.6,5.26,5.26,0,0,1-3-1c-1.82-1.39-2.43-4.15-2.43-6.14a6.34,6.34,0,0,1,4.38-6.45h0a4.79,4.79,0,0,1,1.72-.3,5.24,5.24,0,0,1,3.91,1.76A6.85,6.85,0,0,1,152,13,6.68,6.68,0,0,1,151.92,14.08Zm-3.71-3.84a1.6,1.6,0,0,0-2.14-.8l0,0a4.15,4.15,0,0,0-2.71,4.15c0,1.65.25,3.22,1.37,4.11a2.12,2.12,0,0,0,1.32.46,2.1,2.1,0,0,0,1.56-.88,7.09,7.09,0,0,0,1.22-3.34h0c0-.36.06-.71.06-1A4.59,4.59,0,0,0,148.21,10.24Z" fill="#fff"/><path d="M160.43,8.7,159,8.94c-1.33.26-2.42.47-3.34.63.12.79.22,1.49.4,2.59a15.57,15.57,0,0,0,1.91-.31c.2,0,1.07-.29,1.23-.32a3.82,3.82,0,0,1,.42,1.08,6.51,6.51,0,0,1,0,1.34l-1.41.28c-.45.09-1.07.21-1.75.29h0c.23,1.54.52,3.36.77,4.79a5.25,5.25,0,0,1-1.25.47,5.35,5.35,0,0,1-1.58,0l-.7-4.7-.85.17L152.32,13l1-.18-.7-4.93c1-.3,2-.6,2.79-.77.2-.05,1.49-.28,3.76-.67L160,6.3A8.3,8.3,0,0,1,160.43,8.7Z" fill="#fff"/></svg>