<svg xmlns="http://www.w3.org/2000/svg" width="400" height="63" viewBox="0 0 400 63"><g fill="#fff"><path d="M15.18.67h5l-7.85 23H7.79L0 .67h5.14l5 17.48zM26.7 4.64h-4.51V.53h4.51zm-4.51 2h4.51v17h-4.51zM29.26 10V6.83h2.38V2.08H36v4.75h2.77V10H36v9a2 2 0 0 0 .27 1.31 2.94 2.94 0 0 0 1.62.26h.88v3.32l-2.11.08c-2.1.07-3.54-.29-4.31-1.09a3.26 3.26 0 0 1-.75-2.36V10zM48.41 13.34a6.75 6.75 0 0 0 1.78-.34 1.34 1.34 0 0 0 1-1.27 1.49 1.49 0 0 0-.74-1.44 4.59 4.59 0 0 0-2.16-.4 2.83 2.83 0 0 0-2.26.78 3.27 3.27 0 0 0-.64 1.56h-4.33a6.5 6.5 0 0 1 1.25-3.67c1.19-1.56 3.21-2.3 6.09-2.3a10.85 10.85 0 0 1 5 1.11q2.18 1.11 2.18 4.19V21.37a2.35 2.35 0 0 0 .27 1.18 1.58 1.58 0 0 0 .65.52v.66h-4.82a4.68 4.68 0 0 1-.28-1c0-.3-.09-.65-.13-1a9.32 9.32 0 0 1-2.13 1.7 6.52 6.52 0 0 1-3.27.83A5.63 5.63 0 0 1 42 22.91a4.7 4.7 0 0 1-1.52-3.74A4.84 4.84 0 0 1 43 14.62a10.9 10.9 0 0 1 3.93-1.09zm2.72 2.08a5.31 5.31 0 0 1-.86.43 6.91 6.91 0 0 1-1.2.3l-1 .19A6.65 6.65 0 0 0 46 17a2 2 0 0 0-1 1.84 2 2 0 0 0 .65 1.65 2.45 2.45 0 0 0 1.56.5 4.68 4.68 0 0 0 2.69-.84 3.57 3.57 0 0 0 1.27-3.08zM64 23.7h-4.45V.67H64zM81.06 16.59a4.65 4.65 0 0 0 .88 2.41c.8.95 2.16 1.42 4.1 1.42a8.76 8.76 0 0 0 2.82-.42 2.68 2.68 0 0 0 2.06-2.67 2 2 0 0 0-1-1.76 10.74 10.74 0 0 0-3.2-1.08l-2.49-.55a15.68 15.68 0 0 1-5-1.76 5.61 5.61 0 0 1-2.33-5 6.6 6.6 0 0 1 2.28-5.14Q81.4 0 85.81 0a10.25 10.25 0 0 1 6.29 1.93 6.85 6.85 0 0 1 2.72 5.6H90.2a3.28 3.28 0 0 0-1.86-2.95A6.28 6.28 0 0 0 85.48 4a5.49 5.49 0 0 0-3 .75 2.38 2.38 0 0 0-1.18 2.09 2 2 0 0 0 1.12 1.84 13.61 13.61 0 0 0 3.06 1l4 .95a10.26 10.26 0 0 1 4 1.67 5.65 5.65 0 0 1 2.08 4.7 6.62 6.62 0 0 1-2.44 5.24 10.31 10.31 0 0 1-6.89 2.09 11.35 11.35 0 0 1-7.16-2.05 6.82 6.82 0 0 1-2.6-5.65zM112.77 21.61c-1.44 1.78-3.62 2.66-6.54 2.66s-5.11-.88-6.55-2.66a9.82 9.82 0 0 1-2.15-6.4 9.91 9.91 0 0 1 2.15-6.39q2.16-2.7 6.55-2.7t6.54 2.7a9.92 9.92 0 0 1 2.16 6.39 9.83 9.83 0 0 1-2.16 6.4zm-3.56-2.46a6.42 6.42 0 0 0 1.05-3.94 6.4 6.4 0 0 0-1.05-3.94 4 4 0 0 0-6 0 6.4 6.4 0 0 0-1 3.94 6.42 6.42 0 0 0 1 3.94 3.94 3.94 0 0 0 6 0zM128.3 12.78a4.07 4.07 0 0 0-.64-1.72 2.69 2.69 0 0 0-2.34-1 3.06 3.06 0 0 0-3.08 2.23 9.34 9.34 0 0 0-.44 3.15 8.59 8.59 0 0 0 .44 3 3 3 0 0 0 3 2.12 2.67 2.67 0 0 0 2.23-.84 4.25 4.25 0 0 0 .8-2.19h4.54a7.35 7.35 0 0 1-1.47 3.84 7.12 7.12 0 0 1-6.2 2.92c-2.75 0-4.76-.81-6.06-2.43a9.86 9.86 0 0 1-1.93-6.32 10 10 0 0 1 2.14-6.82 7.48 7.48 0 0 1 5.91-2.44 8.89 8.89 0 0 1 5.24 1.44q2 1.44 2.42 5.08zM140.48 4.64H136V.53h4.51zm-4.51 2h4.51v17H136zM151.54 13.34a6.75 6.75 0 0 0 1.78-.39 1.34 1.34 0 0 0 1-1.27 1.49 1.49 0 0 0-.74-1.44 4.59 4.59 0 0 0-2.16-.4 2.86 2.86 0 0 0-2.27.78 3.37 3.37 0 0 0-.63 1.56h-4.3a6.58 6.58 0 0 1 1.26-3.67q1.77-2.25 6.09-2.25a10.88 10.88 0 0 1 5 1.11q2.17 1.11 2.18 4.19V21.37a2.49 2.49 0 0 0 .26 1.18 1.68 1.68 0 0 0 .66.52v.66h-4.84a4.68 4.68 0 0 1-.28-1 9 9 0 0 1-.13-1 9.38 9.38 0 0 1-2.14 1.7 6.45 6.45 0 0 1-3.26.83 5.64 5.64 0 0 1-3.85-1.32 4.7 4.7 0 0 1-1.51-3.74 4.84 4.84 0 0 1 2.44-4.55 10.9 10.9 0 0 1 3.9-1.12zm2.72 2.08a5.75 5.75 0 0 1-.86.43 6.91 6.91 0 0 1-1.2.3l-1 .19a6.83 6.83 0 0 0-2.05.61 2 2 0 0 0-1 1.89 2 2 0 0 0 .64 1.65 2.49 2.49 0 0 0 1.56.5 4.66 4.66 0 0 0 2.69-.84 3.57 3.57 0 0 0 1.28-3.08zM167.13 23.7h-4.45V.67h4.45zM185.11 23.7h-4.78V.67h4.78zM192.7 18.26a3.07 3.07 0 0 0 .61 1.69 4.18 4.18 0 0 0 3.08.89 4.66 4.66 0 0 0 2.09-.39 1.25 1.25 0 0 0 .78-1.17 1.27 1.27 0 0 0-.62-1.14 25.81 25.81 0 0 0-4.64-1.35 9.76 9.76 0 0 1-4.11-1.79 3.91 3.91 0 0 1-1.19-3.07 5.3 5.3 0 0 1 1.86-4 7.44 7.44 0 0 1 5.22-1.69A9.56 9.56 0 0 1 201 7.46a5.45 5.45 0 0 1 2.31 4.4h-4.45a2.5 2.5 0 0 0-.49-1.36 3 3 0 0 0-2.5-.91 3.66 3.66 0 0 0-2.08.45 1.33 1.33 0 0 0-.62 1.07 1.16 1.16 0 0 0 .66 1.11 29.59 29.59 0 0 0 4.65 1.23 8.64 8.64 0 0 1 4 1.89 4.3 4.3 0 0 1 1.31 3.2 5.15 5.15 0 0 1-1.89 4.13c-1.25 1.07-3.2 1.6-5.83 1.6s-4.66-.56-5.94-1.69a5.53 5.53 0 0 1-1.91-4.32zM210.49 18.26a3 3 0 0 0 .62 1.69 4.14 4.14 0 0 0 3.07.89 4.74 4.74 0 0 0 2.1-.39 1.25 1.25 0 0 0 .77-1.17 1.27 1.27 0 0 0-.62-1.14 25.81 25.81 0 0 0-4.66-1.35 9.83 9.83 0 0 1-4.09-1.79 3.91 3.91 0 0 1-1.19-3.07 5.3 5.3 0 0 1 1.86-4 7.47 7.47 0 0 1 5.22-1.69 9.56 9.56 0 0 1 5.2 1.27 5.43 5.43 0 0 1 2.31 4.4h-4.45a2.58 2.58 0 0 0-.48-1.36 3 3 0 0 0-2.51-.91 3.66 3.66 0 0 0-2.08.45 1.32 1.32 0 0 0-.61 1.07 1.16 1.16 0 0 0 .65 1.11 29.59 29.59 0 0 0 4.65 1.23 8.59 8.59 0 0 1 4 1.89 4.3 4.3 0 0 1 1.31 3.2 5.17 5.17 0 0 1-1.88 4.13q-1.89 1.6-5.83 1.6t-5.94-1.69a5.51 5.51 0 0 1-1.91-4.37zM229.27 6.67v10.26a5.38 5.38 0 0 0 .34 2.19 2.38 2.38 0 0 0 2.38 1.3 3.11 3.11 0 0 0 3.11-1.85 6.67 6.67 0 0 0 .43-2.64V6.67h4.52v17h-4.33v-2.38c0 .05-.15.21-.31.47a3.26 3.26 0 0 1-.59.69 6.32 6.32 0 0 1-2 1.28 6.84 6.84 0 0 1-2.28.34q-3.78 0-5.08-2.72a10.39 10.39 0 0 1-.73-4.42V6.67zM255.47 7a7 7 0 0 1 2.94 2.52 8.45 8.45 0 0 1 1.36 3.52 21 21 0 0 1 .14 3.38h-12.4a4.12 4.12 0 0 0 1.78 3.6 4.59 4.59 0 0 0 2.46.64 3.49 3.49 0 0 0 3.39-2h4.54a5.57 5.57 0 0 1-1.68 3.13 8.24 8.24 0 0 1-6.4 2.48 9.25 9.25 0 0 1-6-2.09q-2.59-2.1-2.6-6.82 0-4.42 2.35-6.78a8.17 8.17 0 0 1 6.08-2.36 9.73 9.73 0 0 1 4.04.78zm-6.66 3.85a4.63 4.63 0 0 0-1.19 2.64h7.67a3.69 3.69 0 0 0-1.18-2.69 3.86 3.86 0 0 0-2.64-.92 3.52 3.52 0 0 0-2.66.98zM265.62 18.26a3 3 0 0 0 .61 1.69 4.16 4.16 0 0 0 3.08.89 4.72 4.72 0 0 0 2.09-.39 1.3 1.3 0 0 0 .15-2.31 25.81 25.81 0 0 0-4.66-1.35 9.77 9.77 0 0 1-4.08-1.79 3.88 3.88 0 0 1-1.19-3.07 5.32 5.32 0 0 1 1.85-4 7.47 7.47 0 0 1 5.22-1.69 9.6 9.6 0 0 1 5.21 1.27 5.45 5.45 0 0 1 2.31 4.4h-4.45a2.67 2.67 0 0 0-.49-1.36 3 3 0 0 0-2.51-.91 3.61 3.61 0 0 0-2.07.45 1.33 1.33 0 0 0-.62 1.07 1.16 1.16 0 0 0 .66 1.11 29.59 29.59 0 0 0 4.65 1.23 8.55 8.55 0 0 1 4 1.89 4.27 4.27 0 0 1 1.32 3.2 5.15 5.15 0 0 1-1.89 4.13q-1.89 1.6-5.83 1.6T263 22.58a5.51 5.51 0 0 1-1.92-4.32zM288.91 7.89a3.49 3.49 0 0 0 2.23-1.64 2.76 2.76 0 0 0 .28-1.39h-2.59V.75h4.59v3.3a5.44 5.44 0 0 1-1.18 3.71 5.63 5.63 0 0 1-3.33 1.77zM298 .67h5.05l9.14 16.06V.67h4.48v23h-4.81L302.5 7.36V23.7H298zM333.55 16.59a4.65 4.65 0 0 0 .88 2.36c.8.95 2.16 1.42 4.1 1.42a8.76 8.76 0 0 0 2.82-.38 2.68 2.68 0 0 0 2.06-2.67 2 2 0 0 0-1-1.76 10.74 10.74 0 0 0-3.2-1.08l-2.49-.55a15.68 15.68 0 0 1-5-1.76 5.61 5.61 0 0 1-2.33-5 6.6 6.6 0 0 1 2.28-5.14Q333.89 0 338.3 0a10.22 10.22 0 0 1 6.28 1.93 6.83 6.83 0 0 1 2.73 5.6h-4.62a3.3 3.3 0 0 0-1.86-2.95A6.3 6.3 0 0 0 338 4a5.45 5.45 0 0 0-3 .75 2.37 2.37 0 0 0-1.14 2.09 2 2 0 0 0 1.13 1.84 13.65 13.65 0 0 0 3 1l4.05.95a10.33 10.33 0 0 1 4 1.67 5.65 5.65 0 0 1 2.06 4.7 6.62 6.62 0 0 1-2.44 5.24 10.31 10.31 0 0 1-6.89 2.09 11.33 11.33 0 0 1-7.16-2.05 6.82 6.82 0 0 1-2.6-5.65zM349.31 10V6.83h2.38V2.08h4.4v4.75h2.77V10h-2.77v9a2 2 0 0 0 .27 1.31 2.89 2.89 0 0 0 1.62.26h.88v3.32l-2.11.08c-2.11.07-3.54-.29-4.31-1.09a3.26 3.26 0 0 1-.75-2.36V10zM366.15 6.67v10.26a5.38 5.38 0 0 0 .34 2.19 2.38 2.38 0 0 0 2.38 1.3 3.11 3.11 0 0 0 3.13-1.85 6.67 6.67 0 0 0 .43-2.64V6.67h4.52v17h-4.35v-2.38c0 .05-.14.21-.31.47a3.26 3.26 0 0 1-.59.69 6.32 6.32 0 0 1-2 1.28 6.84 6.84 0 0 1-2.28.34c-2.51 0-4.21-.91-5.08-2.72a10.39 10.39 0 0 1-.73-4.42V6.67zM388.3.46l.94.07v3.62c-.25 0-.67-.05-1.26-.07a1.46 1.46 0 0 0-1.22.4 1.42 1.42 0 0 0-.33.91v1.44h2.92V10h-2.92v13.7H382V10h-2.5V6.83h2.43v-1.1c0-1.82.31-3.07.92-3.76q1-1.53 4.67-1.53zM399 .46l.94.07v3.62c-.25 0-.67-.05-1.26-.07a1.46 1.46 0 0 0-1.22.4 1.42 1.42 0 0 0-.33.91v1.44H400V10h-2.92v13.7h-4.42V10h-2.5V6.83h2.44v-1.1c0-1.82.3-3.07.92-3.76q1-1.53 4.67-1.53zM122.88 45.06h4.51L130 57.32l2.65-12.26h4.64l-4.94 17h-4.57l-2.67-12.4-2.71 12.4h-4.62l-4.78-17h4.78l2.66 12.21zM144.31 43h-4.52v-4.08h4.52zm-4.52 2h4.52v17h-4.52zM146.87 48.39v-3.18h2.38v-4.74h4.4v4.74h2.76v3.18h-2.76v9a2 2 0 0 0 .27 1.31 2.89 2.89 0 0 0 1.62.26h.9v3.33l-2.1.08c-2.11.07-3.54-.29-4.31-1.09a3.26 3.26 0 0 1-.75-2.36V48.39zM171.51 45.15a5 5 0 0 1 2.11 1.68 4.45 4.45 0 0 1 .85 2 23.07 23.07 0 0 1 .16 3.29v10h-4.55v-10.4a4.58 4.58 0 0 0-.46-2.22 2.33 2.33 0 0 0-2.3-1.19 3.15 3.15 0 0 0-2.66 1.18 5.47 5.47 0 0 0-.9 3.37v9.22h-4.45V39.14h4.45v8.12a5.39 5.39 0 0 1 2.24-2.07 6.26 6.26 0 0 1 2.67-.58 7.31 7.31 0 0 1 2.84.54zM188.14 39.06h4.73v9.49l8.9-9.49H208l-9.45 9.47 9.93 13.55h-6.19l-7.09-10-2.32 2.35v7.7h-4.73zM228.19 43.14H216V48h11.18v4H216v6h12.74v4.13H211.3v-23h16.89zM232.5 39.06h4.81V58h11.5v4.13H232.5zM252 39.06h4.81V58h11.5v4.13H252zM281.78 39.06h5.46l-7.71 14.39v8.63h-4.81v-8.63l-8-14.39h5.67l4.78 10z"/></g></svg>