<svg xmlns="http://www.w3.org/2000/svg" width="300" height="90" viewBox="0 0 300 90"><path d="M4.93,62.68s.12-1.3-.76-1.3S2.57,63,1.51,63.8s-2.19,2.31-1,2.78,1.6,1,3.13,0,5-2.54,5.08-.65.12,8.8-.59,10a6.4,6.4,0,0,0-.94,3.84c0,1.77-.12,9.74.23,9.68A2.62,2.62,0,0,0,8.75,87.6a44.1,44.1,0,0,1,.67-5.85c.41-1.41,0-4.54,0-5.43s.3-4.84.53-6.85.47-6.08,1.07-7,7.67-5.14,9.92-5.67,2.24.65,1.94,3.24-1.53,11.11-1.77,13.7-.88,5.38-.06,5.26a5,5,0,0,0,3.25-3.6c.53-2.19,1.65-8.51,3.19-9.92s2.83-1,2.54,1.59a36.82,36.82,0,0,0-.47,4.72c0,1.54.38,6.8.51,7.8s-.43,3.66,0,3.54.61-3.9.79-4.6,1.35-1.07,1.35-1.72-.71-4.66,0-5.43,1.36.06,2.07.83,2.18,1.77,3.44,1.33,8.36-9.84,9-11.88-.06-2.64-.72-2.64-.33,1.65-1.43,3.14-5.66,7.92-8.14,7.48,1.54-4.57,3.47-6.66,5.22-6.38,5-9-2.7-1.32-4.79.66S36,62.31,35.25,64.07s-3.08,3.3-3.25,1.21.5-6.77-.71-6.88-4.9,6.71-6.44,6.77-.71-10.62.61-13.31.82-3.85-.5-2.48-1.81,2.7-3.79,4.35A81.83,81.83,0,0,1,9.29,61,30.3,30.3,0,0,1,4.93,62.68Z" fill="#fff"/><path d="M39.43,59s1.1-2,1.65-2-.17,1.54-.61,2-.22,1.82-1,1.71S39.43,59,39.43,59Z" fill="#fff"/><path d="M158.29,36.29c-2.81.39-9.69,1.26-10,0s7.92-10.53,6.93-12.46-3.14,1.32-4.13,3.08-3.41,6.88-5.11,6.55-.44-14.58-.83-18-2.75-.44-3,2.53-.38,6.55-.71,7a6.27,6.27,0,0,0-1.1,3.63,13.09,13.09,0,0,1-.06,2.7s-8.74,12.76-11.55,15.4-6.38,5.56-6.76.88,4.89-10.78,6-11.44,4.78.28,4.73-2.31-1.82-3.08-3.41-3.08-4.07,3.41-5.06,5.28-1.32,3.36-1.71,3.85-2.14,2.59-2.14,4.51-1.32,3.3-2.59,2.7-1.54-4.07-.77-7.26S121,27.6,120.28,26.55s-6.11-.27-10.62,6.06a26.75,26.75,0,0,0-5.13,13.62c-.23,2-.23,5.12-.23,5.12S95.06,63.2,90.58,55.94c0,0,5-11.68,6.28-17.49s1.74-9.82,2.32-12.32-.06-4.65-2-5.11-3.43.41-3.08,2.32a29.15,29.15,0,0,0-4.3,9.59c-1.4,5.69-2.33,11-2.33,14.12s.12,7.2.12,7.2-4.53,4.53-6.91,4.53.05-2.73,1.33-5.05,2.62-5.35,1.16-6.8-7,2.38-8.42,1.45,1-4.06,1.1-6.68-.11-3.08-1.45-2.9-5.29,2.21-7.49,4-4.87,3.09-6,3.06a12.33,12.33,0,0,0,0,2.64,37.52,37.52,0,0,1,.61,4.67c0,1.6,1,4.13.55,5.7s-2.75,4.53-2.26,5.58,2,2.42,1.49,3-4.62.69-4.9,1.74.94,1.56,1.54,2.38,1,2.09,2.31,1.76,8.53-6,12.93-8A18.82,18.82,0,0,1,83.37,64c.5.22.66,2.75.44,4.73s-.22,3.85.39,3.85,1-4.34,1-6.27,1.87-4.73,3.69-5.06,7.7,1.16,7.7,1.16.11,1.54.82,1.43,2.42-6.71,4.62-6.88,2.09,1.65,4.4,1.21,5.17-9.29,6.44-9.18.6,5.94,2.36,6,2.37-1.32,4.07-1.59,2.09.77,4.4.49,5.78-2.86,6.71-2.8.44,3.57,1.1,3.57,2.26-4.62,1.87-8.41c0,0,4.29-5.5,5.12-7.87s2.25-1.48,2.53.33.38,9.79,1.87,9.9,2.36-.55,2.31-3.35-.15-3.25,1.57-4.35,7.61-2.42,11-1.92S161.09,35.91,158.29,36.29ZM66.59,46.41c1.24-1.77,4.7-3.55,5.11-1.69s-4,11.1-5.93,10.46S65.19,48.38,66.59,46.41Zm7.2,13.48c-4.53,5-8.76,8.54-9,4.07S75.88,50.19,79,50.24C80.47,50.27,78.32,54.83,73.79,59.89Zm22-33.24c1.18-.33.35,6-1.28,11.51s-3,8.19-4.06,7.55S90.76,28.11,95.81,26.65Zm17,12.26c-.7,1.34-2.09,2.34-1.63,3.26a2.93,2.93,0,0,1-.75,3.19l-1.63,1.51a6,6,0,0,0-.38,2.91c.2,1.57-.55,3-.72,2.09s.23-3.83,0-4.88a7.81,7.81,0,0,1,.72-4.82c.84-1.34.09-2.09.79-4.19s3.48-7.26,5.63-6.56C116.55,32,113.48,37.58,112.78,38.91Z" fill="#fff"/><path d="M170.8,4.61c-1.11-.17-1.2.66-2.36.66s-3.78,1.22-3.78,2.33-2,4.18-1.62,5.05,1.62,3.43,6.45,2.21,4.93-4.53,4.59-5.75-1.22-.64-1.17-1.86,0-2.15-.87-2.21S171.56,4.72,170.8,4.61Z" fill="#fff"/><path d="M169.53,21.49c1.75,0,1,5.84.54,13.47s-3,26.42-10.49,26.55a10.07,10.07,0,0,1-10.49-8c-.46-2.39,1.06-4.65,3-1s2.79,6.24,7,5.84,7.77-12.45,7.84-16.15a20.41,20.41,0,0,0-.93-6.68c-.4-1.79,2-1.86,2-3.91S166.88,21.42,169.53,21.49Z" fill="#fff"/><path d="M240.64,34c-.64-1.47-.35-5.51-.08-7.84s-.07-3.45-1.07-3.25-1.79,6.77-1.79,6.77a32.43,32.43,0,0,0-5.24-2c-4.12-1.33-9-1.06-10.69-1.33s-2.39-.86-1.33-2.79,8-9.82,6.18-10.62-5.25,5-6.84,7.57-3.19,2.26-3.32.13-.53-12.54.47-14.27,2-4.44.93-5.24-3,.46-3.72,3.48-.07,7.27-.6,10.19-6.7,13-10.35,17.72-7,5.78-8.63,3.39,1.26-8,1.26-8a30.36,30.36,0,0,1,4.05-1.53c2.25-.66,4.58-4.31,4.58-6.5s-2.13-2.52-5.18-.6-4.25,5.71-5.91,9.56-3.45,4.91-5.57,4.45-.87-7.17-.53-11,1.79-3.78,3.12-7.1,0-4-1.73-4.31-2.17.56-4,1.46c-5.91,2.92-8.9,12.81-9.83,17.39s-1.46,11.88.73,12.74,4-2.72,4.52-4,1.13-1.06,1.72-1.2.4-1.26.4-2.32.8-.86.8.4-.6,1.72,0,2.19a7.55,7.55,0,0,1,1.92,4.62c0,1.9,1.6,1.29,2.19,1.75s1.13,2.92,1.6,2.92.13-2.65.06-4a3.17,3.17,0,0,1,3-2.86c1.46.06,2.46,2.78,3,2.86s.87-.87,1.07-2,3.38-1.59,6.23-3.92,5.51-7.1,7-10,2.46-3.52,3.32-3.12,1,6.11.72,10,.34,3.59.34,3.59.66,5.24,1.66,5.44.6-2.92.6-2.92c.53-.2.4-3.85.26-7.3s5.84-5.31,12.42-3.12,9.15,6.57,10.08,7.23a2.74,2.74,0,0,0,3.06-.33C242,35.89,241.29,35.43,240.64,34Zm-56-14.08c-.73,2.66-2.25,5.84-2.45,7.44s-1.86,7.43-3.79,8.43,0-1.33,0-1.33-1.13-1.86-.33-7.1,4.78-11.95,6.57-11.49A5.91,5.91,0,0,1,184.6,19.89Z" fill="#fff"/><path d="M237,14.05c1.58-1.64,4.34.4,4.69,1.13A2.67,2.67,0,0,1,239.38,19,2.86,2.86,0,0,1,237,14.05Z" fill="#fff"/><path d="M298.77.05c1.64.53,1.46.93.53,3a20.41,20.41,0,0,0-1.46,7.37c-.07,2.46-1.07,3.92-1.07,5.18a41.63,41.63,0,0,1,0,4.18c-.13,1.26-1.19,2.72-1.19,3.45s-.27,1.79-.93,1.79-.33-2.32,0-4.11-.4-3.78.07-4.31S296,12,296,9.47s-.79-5-.19-6.5S297.64-.32,298.77.05Z" fill="#fff"/><path d="M293.32,31.38c2-.4,2.06,1.46,2.06,2.72s.27,3.12-1,3.45-3.22.26-3.22-1.73,1.53-1.72,1.53-2.65A3.4,3.4,0,0,1,293.32,31.38Z" fill="#fff"/><path d="M288.74,26.73c-1.32.13-6,2.46-7.76,2.59s-1.4-4.05-1.2-6.9,2.06-8.17-2.19-7.17-13.21,7.23-15.46,11.41-.93,5.18.26,6.18-.53,3.71-3,3.18-.87-8.56-.47-14.73-.33-13-1.86-13.48-4.78,2.39-5.84,2.53-.79-3.79-2.85-3.06c-1.13.4-1.73,1.46-2.46,2.46s-.06,2.45.6,3.25-.13,2.66-.4,4.18.53,4.12,0,6a14,14,0,0,0-.6,5.45c.14,2.52-.79,4.11-1.12,5.7s.39,1.4.46,3.39.27,4,.73,4,.66-2.39.66-3.06,1.2-2.19,1.26-4a5.31,5.31,0,0,1,1.4-3.52c.46-.39.4-2.39.4-4.11s2-7.37,2.72-10.36,3.25-3.85,4.11-3.34.34,4.54.07,5.93.33,4,.33,5.51-1.06,4.71-1.66,7.17a31.82,31.82,0,0,0-.6,7.66,12.46,12.46,0,0,1,.47,4.89c-.27,2.85,1.06,3.78,1.53,3.78s.2-1.66.26-3.72,3.45-4,5.51-5.64,8.56-7.57,9.76-8.63,2.72-2.85,3.52.73-4.39,9.09-8,13.48-10.29,17.12-6.9,23.62,8,4.25,13.8-2.19,5.18-20.64,5-23.85a12.31,12.31,0,0,1,2.32-8.4c1.73-2.19,7.9-4.58,8.24-5S290.07,26.6,288.74,26.73Zm-18.12.73c-1.79,2.12-3.91,3.19-5.17,1.66s4.18-7.57,6.9-7.83C273.25,21.2,272.42,25.34,270.62,27.46Zm5.16,21.36c-.19,2.36-.85,12.42-4.37,17.33s-8.61,4.12-8.73-1.7,7.46-22.73,11.22-23.33C276.19,40.75,276,46.45,275.78,48.82Z" fill="#fff"/></svg>