<svg xmlns="http://www.w3.org/2000/svg" viewBox="0 0 300 55"><path d="M46.81 34.14c1.54-5.56 3.87-10.27 6.99-14.11 3.12-3.85 6.17-5.77 9.16-5.77 1.15 0 2.28.37 3.4 1.12l-3.15 4.32c-.82-.5-1.68-.75-2.59-.75-2.77 0-5.59 2.26-8.48 6.79s-4.65 9.45-5.28 14.77l-.06.59c-.28 2.32-.82 4.03-1.61 5.12-.8 1.09-2.4 2.31-4.8 3.67l8.68.39-3.27 3.24-15.22-.61 3.91-3.46 3.38.28c2.51-1.52 4.01-4.59 4.49-9.21l.06-.59c.11-1.1.17-2.17.17-3.21 0-4.04-.88-8.41-2.65-13.11-1.77-4.7-4.03-8.69-6.78-11.97-5.34-6.39-11.36-9.58-18.07-9.58-6.08 0-9.6 3.08-10.54 9.23L0 13.75c.8-4.09 2.85-7.4 6.15-9.94C9.46 1.27 13.37 0 17.89 0c7.24 0 13.65 3.29 19.23 9.87 5.58 6.58 8.81 14.67 9.69 24.27zM79.14 44.02c.46.32.7.69.7 1.12 0 .58-.6 1.56-1.79 2.96-3.18 3.68-6.32 5.52-9.43 5.52-1.9 0-3.46-.75-4.69-2.26-1.23-1.51-1.84-3.43-1.84-5.77 0-4.24 1.6-8.53 4.81-12.87 3.21-4.34 6.38-6.51 9.53-6.51 2.27 0 3.4 1.22 3.4 3.65 0 2.73-1.32 5.4-3.97 8.01-2.65 2.6-5.88 4.42-9.69 5.44.37 4.46 2.14 6.69 5.3 6.69s5.68-1.99 7.67-5.97zm-12.86-4.13c.54.19 1.03.28 1.48.28 2.31 0 4.32-.71 6.05-2.12 1.73-1.41 2.59-3.07 2.59-4.97 0-2.18-1.11-3.26-3.32-3.26-1.6 0-3.05.95-4.34 2.86s-2.12 4.31-2.47 7.21zM100.73 41.81c-2.1 3.46-4.41 6.29-6.92 8.49-2.52 2.2-4.7 3.31-6.56 3.31-2.54 0-3.82-2.05-3.82-6.16 0-5.65 1.85-10.55 5.56-14.69 3.71-4.14 8.1-6.21 13.18-6.21 1.93 0 3.58.24 4.94.72-.09.33-.15.54-.17.61l-.33 1.48c-.22 1.02-.34 1.62-.36 1.78l-1.79 12.31-.25 1.78c-.24 1.76-.36 2.94-.36 3.54 0 .8.23 1.2.69 1.2 1.56 0 3.15-1.74 4.78-5.22.5.3.75.6.75.89 0 .65-.8 1.96-2.4 3.93-2.18 2.68-4.19 4.02-6.05 4.02-1.36 0-2.04-.91-2.04-2.73 0-.56.07-1.33.2-2.32l.28-2.23.36-2.45.31-2.06zm1.59-11.05c-1.69-.95-3.4-1.42-5.14-1.42-2.61 0-4.79 1.59-6.56 4.76s-2.65 7.11-2.65 11.81c0 2.41.72 3.62 2.15 3.62 1.66 0 3.66-1.26 6-3.79 3.16-3.4 5.08-7.39 5.75-11.98l.45-3.01zM110.96 52.11l3.86-3.15c1.45 1.54 3.28 2.32 5.48 2.32 2.68 0 4.03-1.29 4.03-3.88 0-1.43-1.23-3.43-3.69-6l-1.6-1.65c-2.33-2.44-3.5-4.41-3.5-5.91 0-2.16.93-3.97 2.8-5.44 1.87-1.47 4.17-2.2 6.9-2.2 1.49 0 3.11.28 4.88.84l-3.35 3.1c-1.41-1.06-2.98-1.59-4.71-1.59-2.03 0-3.04.85-3.04 2.54 0 1.21 1.12 2.98 3.38 5.33l1.73 1.84c2.57 2.68 3.85 4.84 3.85 6.47 0 2.34-1.13 4.41-3.38 6.21-2.25 1.79-4.84 2.69-7.78 2.69-2.08 0-4.04-.5-5.86-1.51zM141.77 30.15l-1.35 12.33c-.24 2.21-.36 3.85-.36 4.91 0 2.1.71 3.15 2.14 3.15 1.54 0 3.13-1.26 4.78-3.79.28.35.42.67.42.95 0 1.04-.92 2.29-2.75 3.74-1.83 1.45-3.41 2.18-4.73 2.18-2.64 0-3.96-1.69-3.96-5.08 0-1.25.16-3.26.47-6.05l1.34-12.33h-5.86l3.25-3.24h2.97l.59-5.08 4.11-1.37-.68 6.44h11.83l-3.27 3.24h-8.94zM165.86 52.13l4.69-3.63c1.43.26 2.64.42 3.63.47 2.14-.82 3.64-2.24 4.52-4.25.87-2.02 1.31-5.08 1.31-9.19l.11-4.32c0-5.56 1.9-9.91 5.69-13.05 3.16-2.6 6.5-3.91 10.01-3.91 1.51 0 3.05.35 4.63 1.04l-4.12 4.07c-1.69-1.1-3.36-1.65-5.01-1.65-4.14 0-6.21 3.39-6.21 10.17l-.11 3.85c0 5.26-.5 9.11-1.51 11.55-1 2.44-2.93 4.46-5.77 6.06l5.77.47 2.56.2 3.09.2c.82.06 1.74.08 2.76.08 4.6 0 8.2-1.34 10.78-4.02.3.37.45.64.45.81 0 .61-.89 1.66-2.68 3.15-3.05 2.51-6.32 3.77-9.82 3.77-1.43 0-3.19-.08-5.27-.23l-8.28-.62c-4.31-.32-8.05-.66-11.21-1.02zM211.88 53.61c-4.18 0-6.28-2.77-6.28-8.31 0-4.46 1.64-8.76 4.91-12.9 3.27-4.14 6.67-6.21 10.18-6.21 4.24 0 6.36 2.77 6.36 8.31 0 4.48-1.64 8.79-4.91 12.92-3.27 4.13-6.69 6.19-10.26 6.19zm3.38-3.12c2.14 0 3.93-1.19 5.37-3.57s2.16-5.35 2.16-8.9c0-5.8-1.8-8.7-5.41-8.7-2.12 0-3.9 1.19-5.34 3.58s-2.16 5.35-2.16 8.88c0 5.8 1.79 8.7 5.38 8.7zM239.31 37.94c4.13-7.83 8.19-11.74 12.18-11.74 1.04 0 2.08.24 3.12.73l-3.93 4.3c-.6-.33-1.36-.5-2.29-.5-1.93 0-3.97 1.57-6.12 4.7s-3.41 6.39-3.78 9.78l-.75 6.81-4.15 1.39.08-.84.2-1.81.22-1.81 1.46-13.28.17-1.45c.13-1.1.2-1.99.2-2.68 0-1.13-.32-1.7-.95-1.7-1.49 0-2.97 1.59-4.44 4.77-.46-.35-.69-.72-.67-1.09.06-1.13 1.09-2.64 3.12-4.5s3.62-2.8 4.79-2.8c1.58 0 2.37 1.04 2.37 3.12 0 .5-.05 1.18-.14 2.04l-.2 1.95-.26 2.34-.26 2.29zM271.92 26.61l.27-2.4c.67-5.95 2.7-10.9 6.1-14.84 3.4-3.94 7.31-5.91 11.75-5.91 1.06 0 1.97.09 2.74.28l-3.96 4.04c-.87-.3-1.91-.45-3.1-.45-2.79 0-4.88.98-6.25 2.93-1.38 1.95-2.33 5.28-2.85 9.98l-2.57 23.24-.2 1.76c-.17 1.58-.25 2.7-.25 3.37 0 .91.24 1.37.72 1.37 1.54 0 3.09-1.74 4.65-5.22.5.3.75.6.75.89 0 .67-.75 1.98-2.26 3.93-2.1 2.68-4.07 4.02-5.92 4.02-1.43 0-2.15-.99-2.15-2.96 0-.73.11-2.17.33-4.32l.28-2.45.2-2.06c-1.26 2.79-3.31 5.45-6.14 7.99-2.83 2.54-5.17 3.81-7 3.81-2.62 0-3.93-2.05-3.93-6.16 0-5.37 1.81-10.2 5.44-14.48 3.62-4.28 7.71-6.42 12.26-6.42.22 0 .58.02 1.09.06zm-.44 4.02c-1.56-.85-3-1.28-4.3-1.28-2.76 0-5.03 1.56-6.81 4.68-1.79 3.12-2.68 7.08-2.68 11.89 0 2.41.71 3.62 2.12 3.62 1.71 0 3.72-1.26 6.03-3.79 2.99-3.25 4.76-7.24 5.3-11.98l.35-3.15zM280.84 52.11l3.86-3.15c1.45 1.54 3.28 2.32 5.48 2.32 2.68 0 4.03-1.29 4.03-3.88 0-1.43-1.23-3.43-3.69-6l-1.6-1.65c-2.33-2.44-3.5-4.41-3.5-5.91 0-2.16.93-3.97 2.8-5.44 1.87-1.47 4.17-2.2 6.9-2.2 1.49 0 3.11.28 4.88.84l-3.35 3.1c-1.41-1.06-2.98-1.59-4.71-1.59-2.03 0-3.04.85-3.04 2.54 0 1.21 1.12 2.98 3.38 5.33l1.73 1.84c2.57 2.68 3.85 4.84 3.85 6.47 0 2.34-1.13 4.41-3.38 6.21-2.25 1.79-4.84 2.69-7.78 2.69-2.08 0-4.04-.5-5.86-1.51z" fill="#fff"/></svg>