<?xml version="1.0" encoding="UTF-8"?><svg id="logos" xmlns="http://www.w3.org/2000/svg" width="200" height="132" viewBox="0 0 200 132"><g id="KFiHBo.tif"><g><path d="M7.53,22.67c0-4.04-.02-8.07,0-12.11,.01-1.9,.39-3.75,1.4-5.39,1.61-2.61,4.17-3.87,7.01-4.45,5.37-1.1,10.76-1.01,15.97,.82,7.64,2.68,13.52,7.54,17.12,14.86,2.49,5.06,3.05,10.55,2.44,16.09-.61,5.62-2.32,10.93-5.68,15.55-3.71,5.1-8.79,8.22-14.9,9.53-2.77,.59-5.62,.98-8.45,1.03-4,.08-7.78-1.08-11.26-3.09-1.7-.99-2.42-2.6-2.57-4.47-.24-2.93-.46-5.87-.57-8.81-.25-6.52-.42-13.04-.62-19.56h.08Zm32.45,5.89c.17-3.56-1.36-7.59-3.13-10.03-3.67-5.05-10.13-7.57-16.62-5.8-1.33,.36-1.56,.71-1.48,2.07,.03,.42,.04,.85,.05,1.27,.13,6.86,.25,13.71,.4,20.57,.05,2.27,.16,4.55,.32,6.81,.12,1.62,1.07,2.56,2.72,2.59,1.69,.03,3.39-.03,5.07-.23,3.9-.45,7.06-2.26,9.28-5.55,2.38-3.52,3.63-7.37,3.38-11.71Z" fill="#fff"/><path d="M132.01,18.94c0,1.24-.02,2.49,.01,3.73,0,.27,.11,.68,.3,.77,.19,.09,.62-.07,.78-.25,.93-1.07,2.03-2.07,2.68-3.3,1.52-2.86,2.83-5.83,4.2-8.77,1.33-2.88,2.86-5.63,5.19-7.84,1.32-1.25,2.85-2.14,4.74-2.27,3.02-.21,4.47,1.17,4.85,4.38,.35,2.97-.77,5.6-2.47,7.91-2.98,4.06-5.67,8.31-8.31,12.59-1.05,1.69-2.39,3.21-3.58,4.81-.98,1.32-.95,2.55,.24,3.65,1,.92,2.17,1.65,3.21,2.51,2.43,2.01,4.82,4.06,7.24,6.08,1.33,1.1,2.78,2.07,4.02,3.26,1.35,1.31,2.51,2.86,1.72,4.91-.78,2.02-2.38,3.21-4.44,3.85-2.42,.75-4.6-.03-6.75-1-3.95-1.78-6.98-4.65-9.51-8.11-.36-.49-.73-1.01-1.2-1.35-.42-.31-1.11-.65-1.49-.5-.4,.15-.79,.88-.8,1.36-.04,1.32-.01,2.68,.24,3.98,.43,2.17,.18,4.17-.99,6.03-.81,1.3-1.89,2.32-3.43,2.66-1.81,.4-3.68-.69-4.69-2.55-1.57-2.88-2.34-5.98-2.47-9.23-.1-2.45,.03-4.91-.07-7.37-.13-3.15-.39-6.3-.58-9.45-.28-4.57-.68-9.14-.78-13.72-.04-1.67,.38-3.47,1.06-5.01,.9-2.05,2.59-3.49,5.02-3.47,2.22,.02,3.83,1.22,4.87,3.13,.91,1.66,1.14,3.51,1.2,5.37,.04,1.06,0,2.12,0,3.19h0Z" fill="#fff"/><path d="M55.1,32.1c.2-6.28,.94-12.02,1.95-17.73,.2-1.13,.26-2.3,.56-3.4,.76-2.74,3.78-3.55,5.96-1.67,1.25,1.08,1.89,2.5,2,4.06,.2,2.72,.36,5.45,.25,8.17-.22,5.33-.73,10.65-.91,15.98-.07,2.11,.76,4.11,2.16,5.76,1.25,1.47,2.54,1.49,3.86,.08,1.84-1.97,2.71-4.43,3.35-6.97,.93-3.67,.61-7.32-.02-11.01-.56-3.28-1.1-6.58-1.31-9.89-.17-2.6,.53-5.1,2.37-7.16,2.72-3.03,7.72-1.17,8.31,1.98,.51,2.74,1.02,5.48,1.54,8.22,.86,4.51,1.34,9.07,1.31,13.66-.03,4.7-.65,9.32-2.49,13.7-1.64,3.9-3.96,7.32-7.6,9.64-5.44,3.46-11.08,2.62-15.31-2.08-2.78-3.1-4.18-6.85-4.99-10.86-.73-3.6-1.19-7.24-.98-10.46Z" fill="#fff"/><path d="M104.54,7.23c2.13-.03,4.24-.02,6.2,1.02,1.78,.94,2.73,2.67,2.46,4.66-.33,2.36-1.66,3.9-3.76,4.21-1.25,.19-2.52,.29-3.79,.34-3.33,.12-5.55,2.01-6.22,5.29-.78,3.87-.35,7.68,.55,11.45,.43,1.81,1.1,3.59,1.86,5.3,.95,2.16,2.78,3.17,5.11,3.09,1.33-.05,2.65-.41,3.97-.42,1.62-.01,3.3-.03,4.84,.37,2.09,.53,3.06,2.51,2.63,4.64-.71,3.54-3.66,6.55-7.41,7.14-6.21,.98-11.75-.66-16.33-5.01-2.46-2.34-3.87-5.39-4.93-8.6-1.43-4.37-2.08-8.87-2.06-13.43,.03-4.41,.85-8.72,3.06-12.6,2.66-4.68,6.8-7.09,12.16-7.43,.54-.03,1.09,0,1.64,0Z" fill="#fff"/><path d="M170.3,43.29c.44-4.94,.58-9.54-.22-14.13-.21-1.21-.67-2.27-1.72-2.98-1.9-1.29-3.82-2.56-5.74-3.82-2.17-1.43-3.96-3.19-4.97-5.64-.82-1.99-.67-3.87,.76-5.53,1.47-1.71,3.33-2.33,5.56-1.8,2.72,.65,4.8,2.39,6.9,4.07,1.04,.83,2.03,1.73,3.03,2.61,1.01,.87,1.68,.79,2.52-.24,1.89-2.32,3.73-4.69,5.73-6.92,1.23-1.37,2.82-2.3,4.79-2.24,2.31,.07,3.37,1.69,4.25,3.47,1.9,3.82,.28,7.5-2.84,10.17-1.5,1.28-2.96,2.6-4.44,3.89-2.36,2.05-2.36,4.66-1.87,7.44,.87,4.91,1.5,9.85,.24,14.79-.5,1.97-1.36,3.75-3.06,5.02-2.24,1.68-5.38,1.22-7-1.07-1.57-2.23-2.06-4.74-1.94-7.08Z" fill="#fff"/><path d="M52.27,118.93c-.05,.67-.1,1.35-.16,2.02-.23,2.52-.85,4.89-2.55,6.87-2.35,2.72-5.57,2.48-7.91,.51-2.01-1.69-2.66-4.07-2.77-6.52-.19-4.41-1-8.73-1.58-13.09-.23-1.71-.5-3.42-.79-5.12-.08-.47-.24-.95-.45-1.38-.16-.33-.45-.59-.68-.89-.28,.28-.71,.51-.82,.85-.45,1.32-.82,2.66-1.19,4-.55,2.03-1.15,4.07-2.46,5.73-2.34,2.97-6.62,2.42-9.15-.36-1.96-2.16-2.91-4.78-3.64-7.54-.42-1.58-.97-3.12-1.5-4.67-.08-.24-.39-.41-.59-.61-.2,.24-.55,.46-.58,.71-.17,1.47-.39,2.95-.37,4.43,.04,3.55,.31,7.1,.27,10.64-.04,3.72-.71,7.37-2.3,10.78-1,2.15-2.35,3.96-4.72,4.77-2.27,.78-5.19-.29-6.44-2.35-1.07-1.76-1.55-3.69-1.62-5.71-.13-4-.19-8.01-.25-12.02-.09-5.98,.18-11.95,.94-17.89,.41-3.2,1.11-6.33,2.49-9.28,1.04-2.23,2.34-4.28,4.36-5.73,2.71-1.94,5.58-1.68,8.45-.34,3.21,1.5,5.58,4.03,7.98,6.52,.67,.7,1.3,1.44,1.94,2.17,.6,.68,.9,.66,1.34-.15,1.32-2.46,2.93-4.67,5.17-6.38,2.17-1.66,4.6-2.38,7.33-2.06,1.96,.23,3.36,1.4,4.46,2.88,1.66,2.21,2.6,4.78,3.29,7.44,.83,3.17,1.67,6.33,2.5,9.5,.19,.73,.33,1.46,.72,2.29,.17-.27,.43-.51,.48-.8,.78-3.94,2.86-7.18,5.43-10.15,2.37-2.73,5.14-4.99,8.45-6.49,5.44-2.47,10.85-2.28,16.29,.12,5.34,2.36,9.31,6.1,11.67,11.43,2.75,6.22,3.57,12.68,2.07,19.38-.96,4.27-2.79,8.1-5.83,11.24-5.04,5.22-10.97,8.63-18.51,8.11-5.44-.37-10.09-2.62-13.96-6.47-1.73-1.73-3.19-3.64-4.18-5.9-.08-.19-.21-.35-.32-.53h-.31Zm22.83-25.68c-2.99,0-5,.93-6.63,2.63-2.93,3.04-4.18,6.78-4.43,10.88-.12,1.96,.39,3.87,1.42,5.57,1.3,2.15,3.13,3.63,5.61,4.33,3.03,.86,5.73,.48,8.08-1.75,1.48-1.4,2.33-3.15,3.01-5.02,1.44-3.96,1.58-7.89-.52-11.69-1.59-2.88-3.9-4.73-6.54-4.96Z" fill="#fff"/><path d="M151.9,114.1c-.18,2.56-.35,5.43-.59,8.3-.15,1.76-.78,3.39-1.96,4.71-2.77,3.09-6.86,2.67-9.39-.95-1.99-2.84-3.03-5.99-2.99-9.47,.03-2.7,.19-5.4,.13-8.1-.04-1.77-.37-3.53-.58-5.3-.01-.09-.05-.18-.09-.26-.28-.59-.49-1.51-1.25-1.32-.52,.13-1.07,.87-1.27,1.45-.51,1.42-.8,2.91-1.76,4.15-2.74,3.52-7.96,3.31-10.32-.47-.58-.92-1-1.93-1.5-2.9-.14-.27-.24-.58-.44-.78-.19-.19-.5-.34-.75-.33-.13,0-.32,.41-.33,.64-.05,.85-.05,1.7-.04,2.55,.05,4.5-.04,8.99-.71,13.44-.5,3.3-1.32,6.51-3.73,9.01-2.21,2.29-6.22,3.15-8.61,.05-.99-1.28-1.35-2.8-1.33-4.37,.04-3.58,.18-7.16,.31-10.74,.14-3.88,.27-7.76,.47-11.64,.19-3.94,.32-7.88,.73-11.8,.34-3.31,1.32-6.5,3.36-9.21,2.49-3.32,6.1-4.51,10.69-2.39,1.57,.73,2.89,1.77,3.87,3.21,.17,.25,.35,.5,.55,.72,.6,.65,1.06,.63,1.68-.01,1.41-1.46,2.75-3.01,4.27-4.34,2.34-2.05,5.09-3.17,8.23-2.31,3.46,.95,5.88,3.29,7.53,6.43,1.73,3.28,2.79,6.8,3.4,10.42,.76,4.51,1.32,9.05,1.86,13.59,.3,2.55,.39,5.12,.59,8.02Z" fill="#fff"/><path d="M177,77.93c4.28,.06,8.11,1.4,11.64,3.72,3.33,2.19,6,5.04,7.98,8.46,1.86,3.21,2.98,6.69,3.28,10.42,.45,5.54-.54,10.82-2.92,15.83-2.44,5.14-5.92,9.41-10.65,12.64-3.85,2.63-8.1,3.44-12.65,2.92-6.69-.75-11.96-4.13-16.27-9.1-2.44-2.81-3.85-6.16-4.77-9.8-.53-2.1-.72-4.2-.71-6.29,0-2.97,.4-5.93,1.35-8.78,1.62-4.88,4.15-9.23,7.8-12.88,3.19-3.19,6.91-5.53,11.33-6.56,1.49-.35,3.06-.4,4.59-.59Zm10.63,24.79c-.12-.86-.19-1.87-.41-2.84-.76-3.5-2.82-5.99-6.21-7.12-3.8-1.26-7.58-.95-11.04,1.16-3.99,2.42-5.97,6.11-5.8,10.74,.15,4.09,2.04,7.4,5.28,9.96,3.52,2.79,8.6,3.09,12.18,.41,4.02-3.01,5.61-7.3,6-12.31Z" fill="#fff"/></g></g></svg>