<?xml version="1.0" encoding="UTF-8"?><svg id="b" xmlns="http://www.w3.org/2000/svg" viewBox="0 0 250 177"><path d="M122.39,0c1.39,0,2.48.04,3.31.09.17.04.26.09.3.17.78,4.44,3.79,19.19,5.09,25.24.04.17.22.48.35.52l1.09.39c.17.04.26.26.26.48,0,.04-.04.09-.13.09-1.31-.04-2.52-.09-3.79-.09-1.61,0-2.96.04-4.48.09-.09,0-.09-.04-.09-.09,0-.13.04-.44.17-.48l1.65-.39c.26-.04.35-.3.26-.65-.44-1.57-1.57-5.7-2.09-7.75-1.35,0-5.14.17-6.18.3-.13,0-.26.13-.3.35-.26,1.96-.78,5.27-.96,6.83-.09.74.09.87.39.96l1.31.35c.17.04.26.26.26.48,0,.09-.04.09-.13.09-1.13-.04-2.09-.09-3.13-.09s-2,.04-2.92.09c-.09,0-.09-.04-.09-.09,0-.09.04-.44.17-.48l.74-.26c.39-.13.57-.17.74-.87,1.48-5.4,4.7-18.54,6.09-23.85.26-1.04.96-1.44,2.05-1.44h.04ZM120.91,3.61c-.13.44-.22.78-.26,1.09-.78,3.7-1.83,8.57-2.44,11.45,0,.13.09.26.17.3,1.09.13,4.7.39,5.75.39-.44-1.87-1.87-7.66-2.79-12.1-.09-.35-.13-.65-.3-1.13h-.13Z" fill="#fff" stroke-width="0"/><path d="M123.3,99.39c0,.13-.35.3-.48.3-.04,0-.09,0-.13-.09l-1.83-4.35c-.17-.44-.3-.57-.7-.65-.48-.13-2.57-.3-3.13-.3-.13,2.09-.3,9.31-.35,12.62-.04,2.26-.22,11.19-.22,12.06,0,.44.13.52.44.61l1.57.39c.09,0,.17.17.17.44,0,.09-.04.13-.09.13-.91-.04-2.74-.09-4.66-.09-1.74,0-3.35.04-4.09.09-.09,0-.09-.04-.09-.09,0-.13.04-.44.17-.48l1.57-.48c.3-.04.35-.13.35-.61.04-1.44-.13-10.84-.17-12.54-.04-1.83-.17-9.4-.26-12.06-.44,0-2.22.13-2.92.26-.39.09-.57.13-.74.52l-2.05,4.44c-.04.09-.09.09-.13.09-.13,0-.44-.09-.44-.22l.3-5.75c0-.22.04-.3.3-.3.7,0,3.05.26,8.49.26,4.66,0,7.96-.26,8.57-.26.3,0,.35.09.35.35l.17,5.7Z" fill="#fff" stroke-width="0"/><path d="M129.92,120.81c-4.31,0-6.92-4-6.92-9.14,0-5.88,2.7-11.36,8.7-11.36,4.79,0,7.4,3.92,7.4,9.01,0,5.57-2.44,11.49-9.14,11.49h-.04ZM131.22,119.98c2.61,0,2.66-5.01,2.66-9.84s-.83-9.01-2.74-9.01c-2.52,0-2.92,4.74-2.92,9.88,0,4.48,1,8.97,2.96,8.97h.04Z" fill="#fff" stroke-width="0"/><path d="M8.01,62.21c0-8.87,2.9-14.72,6.86-18.03,2.36-2.07,5.38-3.25,8.63-3.25,1.42,0,2.9.12,4.02.65.24.06.3.24.35.53l.83,7.51c.06.24-.59.53-.83.53-.06,0-.12-.06-.18-.12-1.01-2.19-2.01-4.43-3.02-6.62-.12-.35-.35-.71-.59-.95s-.65-.41-1.12-.41c-1.6,0-2.84,1.24-3.9,2.84-2.36,3.61-3.61,8.75-3.61,16.43,0,11.23,4.43,14.54,7.27,14.54,1.3,0,2.48-.18,3.13-.35.65-.18,2.31-.83,3.01-1.24.12-.06.3.3.3.71,0,.12-.06.24-.18.35-.83.59-2.48,1.54-4.26,2.31-.71.3-2.25.65-4.32.65-6.56,0-12.42-4.61-12.42-16.02v-.06Z" fill="#fff" stroke-width="0"/><path d="M43.78,41.4c.12,0,.12.06.12.12,0,.18-.06.71-.24.77l-1.3.35c-.47.12-.71.35-.71.65-.24,3.96-.47,12.89-.47,14.13,0,.53.18.71.59.77,1.83.18,5.44.3,8.39.3.12-1.95-.12-14.01-.12-14.72s-.12-1.01-.65-1.12l-1.48-.35c-.18-.06-.3-.35-.3-.77,0-.06,0-.12.12-.12h12c.12,0,.12.06.12.12,0,.24-.06.71-.24.77l-1.36.35c-.35.06-.53.24-.59.83-.18,2.07-.71,12.24-.77,15.96-.06,3.02-.35,15.19-.35,16.14,0,.53.12.83.41.95l2.07.71c.12.06.18.3.18.59,0,.06,0,.12-.12.12-.53,0-2.72-.12-5.2-.12-2.66,0-5.14.06-5.97.12-.18,0-.18-.06-.18-.12,0-.35.12-.53.3-.59l1.71-.71c.35-.12.47-.24.47-.71.12-1.48,0-14.9-.06-16.26-3.25.12-7.15.47-8.39.59-.53.06-.71.24-.71.65-.12,2.48-.24,13.66-.18,15.19,0,.35.18.59.59.71l1.54.53c.24.06.35.3.35.53,0,.12,0,.18-.12.18-.89-.06-3.07-.12-5.56-.12s-4.49.06-5.56.12c-.12,0-.12-.06-.12-.18,0-.24.06-.47.18-.53l1.83-.65c.41-.12.47-.24.47-.89,0-1.95-.12-13.36-.12-15.61s-.24-14.96-.3-16.38c0-.65-.18-.95-.59-1l-1.71-.41c-.18-.06-.24-.53-.24-.77,0-.06,0-.12.18-.12h12.06Z" fill="#fff" stroke-width="0"/><path d="M86.46,50.68c0,4.02-2.66,7.09-5.73,8.93,1.71,3.02,4.91,10.4,6.92,16.02.18.47.47.77.83.95l1.54.53c.3.12.35.47.35.71,0,.06,0,.12-.12.12-1-.06-2.84-.12-4.91-.12-1.89,0-3.72.06-5.44.12-.12,0-.18-.06-.18-.18,0-.3.06-.53.24-.59l1.71-.47c.41-.12.65-.35.35-.89-1.95-3.9-4.91-9.58-7.57-13.36-.12-.18-.24-.3-.41-.3-.18.06-1.06,0-1.36,0-.12,3.02-.3,11.59-.3,13.42,0,.65.18.83.59.95l1.95.65c.18.06.24.35.24.65,0,.06-.06.18-.18.12-1.12-.06-3.13-.12-5.5-.12-2.19,0-4.2.12-5.38.12-.18,0-.18-.06-.18-.18,0-.24.06-.53.3-.59l1.6-.53c.41-.12.53-.41.53-.77,0-2.48-.18-13.66-.18-16.67,0-2.42-.12-14.01-.24-15.25-.06-.65-.24-1.01-.65-1.06l-1.66-.3c-.24-.06-.35-.47-.35-.71,0-.06,0-.12.18-.12,2.54-.24,7.27-.53,11.23-.53,8.16,0,11.76,3.49,11.76,9.4v.06ZM73.63,61.14c2.01,0,5.73-2.72,5.73-9.75,0-5.14-2.36-9.28-5.02-9.28-.65,0-1.06.18-1.06.65-.24,4.61-.65,16.61-.65,17.68-.06.65.12.71.95.71h.06Z" fill="#fff" stroke-width="0"/><path d="M103.48,41.4c.12,0,.12.06.12.12,0,.24-.06.71-.3.77l-1.54.35c-.47.06-.65.53-.65.83-.3,3.78-.47,14.66-.47,17.38-.06,1.6-.3,14.13-.3,15.13,0,.35.24.53.65.65l1.66.53c.18.06.24.41.24.59,0,.12,0,.18-.12.18-.89,0-3.02-.12-5.44-.12s-4.73.06-5.91.12c-.12,0-.12-.06-.12-.12,0-.18.06-.59.24-.65l2.01-.59c.41-.12.47-.24.47-.65.06-2.19-.18-14.01-.24-16.26-.06-4.02-.24-15.08-.3-15.78-.06-.65-.18-1.12-.83-1.24l-1.48-.35c-.18-.06-.3-.24-.3-.71,0-.12,0-.18.12-.18h12.47Z" fill="#fff" stroke-width="0"/><path d="M125.59,67.41c0,5.85-4.55,10.88-13.6,10.88-1.24,0-3.25-.12-4.2-.47-.18-.06-.35-.18-.41-.47l-.89-7.27c-.06-.24.47-.53.77-.53.06,0,.12,0,.18.06.95,2.01,1.89,3.96,3.02,5.79.24.47.41.71.95,1.01.59.35,1.54.47,2.9.47,2.36,0,6.03-1.77,6.03-5.62s-2.72-6.27-7.09-9.34c-4.2-2.96-6.27-6.09-6.27-9.87,0-5.44,5.32-11.11,12.77-11.11,1.71,0,3.43.24,4.2.65.18.12.24.18.3.53l.53,7.15c0,.12-.41.47-.65.47-.06,0-.12,0-.18-.12-.89-1.95-1.83-3.96-2.84-5.91-.18-.3-.41-.53-.83-.83-.65-.35-1.3-.53-2.19-.53-3.25,0-5.26,2.84-5.26,5.91,0,3.31,1.65,5.08,5.79,8.45,3.78,3.13,6.98,6.38,6.98,10.64v.06Z" fill="#fff" stroke-width="0"/><path d="M152.84,49.2c0,.18-.47.41-.65.41-.06,0-.12,0-.18-.12l-2.48-5.91c-.24-.59-.41-.77-.95-.89-.65-.18-3.49-.41-4.26-.41-.18,2.84-.41,12.65-.47,17.14-.06,3.07-.3,15.19-.3,16.38,0,.59.18.71.59.83l2.13.53c.12,0,.24.24.24.59,0,.12-.06.18-.12.18-1.24-.06-3.72-.12-6.33-.12-2.36,0-4.55.06-5.56.12-.12,0-.12-.06-.12-.12,0-.18.06-.59.24-.65l2.13-.65c.41-.06.47-.18.47-.83.06-1.95-.18-14.72-.24-17.03-.06-2.48-.24-12.77-.35-16.38-.59,0-3.01.18-3.96.35-.53.12-.77.18-1,.71l-2.78,6.03c-.06.12-.12.12-.18.12-.18,0-.59-.12-.59-.3l.41-7.8c0-.3.06-.41.41-.41.95,0,4.14.35,11.53.35,6.33,0,10.82-.35,11.65-.35.41,0,.47.12.47.47l.24,7.74Z" fill="#fff" stroke-width="0"/><path d="M190.15,41.4c.12,0,.18.06.18.18,0,.24-.12.65-.3.71l-1.36.35c-.65.18-.77.77-.83,1.42-.06,1.83.06,13.24.06,15.49s0,12.95.06,16.14c0,.65.12.89.53,1.01l1.48.53c.12.06.18.53.18.65,0,.06-.06.06-.12.06-.77-.06-2.6-.12-4.85-.12-2.42,0-4.67.06-5.56.12-.18,0-.18-.06-.18-.18,0-.24.12-.53.3-.59l1.95-.47c.41-.12.53-.53.53-.95-.18-5.79-1.06-18.86-1.24-23.88,0-.65-.06-1.36,0-1.95h-.47c-.24.77-.41,1.42-.59,1.89-1.89,6.21-5.85,19.21-7.86,24.59-.3.77-.47.89-1.6.95-.47.06-.89.06-1.3.06-.18,0-.3-.12-.35-.3-2.07-5.79-6.27-17.74-7.98-23.65-.12-.47-.41-1.12-.53-1.71h-.3c0,.53-.12,1.36-.18,1.71-.41,4.67-1.71,19.39-1.95,22.41,0,.59.12.89.53.95l1.89.35c.12,0,.24.41.24.59,0,.12,0,.18-.18.18-1-.06-2.01-.12-3.31-.12-1,0-2.19.06-2.96.12-.12,0-.12-.06-.12-.12,0-.24.12-.65.3-.65l1.36-.3c.41-.06.53-.24.53-.89.06-3.02.35-14.13.47-16.38.12-2.19.47-14.25.47-16.02,0-.41-.18-.65-.83-.83l-1.42-.47c-.24-.06-.3-.47-.3-.71,0-.12.06-.18.18-.18h9.46c.24,0,.35.18.41.35,1,3.55,5.97,21.28,7.21,25.89.18.53.35,1.18.71,2.25h.35c.35-1.01.53-1.89.71-2.42,1.6-5.08,5.2-19.1,7.09-25.78.06-.18.12-.3.3-.3h9.16Z" fill="#fff" stroke-width="0"/><path d="M204.45,41.28c1.89,0,3.37.06,4.49.12.24.06.35.12.41.24,1.06,6.03,5.14,26.07,6.92,34.29.06.24.3.65.47.71l1.48.53c.24.06.35.35.35.65,0,.06-.06.12-.18.12-1.77-.06-3.43-.12-5.14-.12-2.19,0-4.02.06-6.09.12-.12,0-.12-.06-.12-.12,0-.18.06-.59.24-.65l2.25-.53c.35-.06.47-.41.35-.89-.59-2.13-2.13-7.74-2.84-10.52-1.83,0-6.98.24-8.39.41-.18,0-.35.18-.41.47-.35,2.66-1.06,7.15-1.3,9.28-.12,1.01.12,1.18.53,1.3l1.77.47c.24.06.35.35.35.65,0,.12-.06.12-.18.12-1.54-.06-2.84-.12-4.26-.12s-2.72.06-3.96.12c-.12,0-.12-.06-.12-.12,0-.12.06-.59.24-.65l1.01-.35c.53-.18.77-.24,1-1.18,2.01-7.33,6.38-25.18,8.28-32.4.35-1.42,1.3-1.95,2.78-1.95h.06ZM202.44,46.18c-.18.59-.3,1.06-.35,1.48-1.06,5.03-2.48,11.65-3.31,15.55,0,.18.12.35.24.41,1.48.18,6.39.53,7.8.53-.59-2.54-2.54-10.4-3.78-16.43-.12-.47-.18-.89-.41-1.54h-.18Z" fill="#fff" stroke-width="0"/><path d="M239.68,67.41c0,5.85-4.55,10.88-13.6,10.88-1.24,0-3.25-.12-4.2-.47-.18-.06-.35-.18-.41-.47l-.89-7.27c-.06-.24.47-.53.77-.53.06,0,.12,0,.18.06.95,2.01,1.89,3.96,3.02,5.79.24.47.41.71.95,1.01.59.35,1.54.47,2.9.47,2.36,0,6.03-1.77,6.03-5.62s-2.72-6.27-7.09-9.34c-4.2-2.96-6.27-6.09-6.27-9.87,0-5.44,5.32-11.11,12.77-11.11,1.71,0,3.43.24,4.2.65.18.12.24.18.3.53l.53,7.15c0,.12-.41.47-.65.47-.06,0-.12,0-.18-.12-.89-1.95-1.83-3.96-2.84-5.91-.18-.3-.41-.53-.83-.83-.65-.35-1.3-.53-2.19-.53-3.25,0-5.26,2.84-5.26,5.91,0,3.31,1.65,5.08,5.79,8.45,3.78,3.13,6.98,6.38,6.98,10.64v.06Z" fill="#fff" stroke-width="0"/><path d="M.3,140.37c-.18,0-.3-.35-.3-.59,0-.06,0-.18.12-.18,2.36-.35,7.04-.77,11.29-.77,8.99,0,14.96,5.56,14.96,16.67s-5.38,20.34-15.55,20.34c-1.24,0-3.72-.12-5.08-.12-1.54,0-3.78.06-4.85.12-.18,0-.18-.06-.18-.12,0-.3.12-.59.24-.65l1.83-.53c.41-.12.53-.3.59-.95.06-1.95-.12-14.84-.12-17.14s-.18-12.83-.24-14.78c0-.65-.12-.89-.71-1.01l-2.01-.3ZM10.76,174.78c3.55,0,8.39-3.84,8.39-18.86,0-10.17-4.02-16.02-7.33-16.02-.77,0-1,.3-1.06,1.18-.24,3.9-.95,32.1-.95,32.99,0,.65.24.71.89.71h.06Z" fill="#fff" stroke-width="0"/><path d="M41.97,139.31c.12,0,.12.06.12.12,0,.24-.06.71-.3.77l-1.54.35c-.47.06-.65.53-.65.83-.3,3.78-.47,14.66-.47,17.38-.06,1.6-.3,14.13-.3,15.13,0,.35.24.53.65.65l1.66.53c.18.06.24.41.24.59,0,.12,0,.18-.12.18-.89,0-3.02-.12-5.44-.12s-4.73.06-5.91.12c-.12,0-.12-.06-.12-.12,0-.18.06-.59.24-.65l2.01-.59c.41-.12.47-.24.47-.65.06-2.19-.18-14.01-.24-16.26-.06-4.02-.24-15.08-.3-15.78-.06-.65-.18-1.12-.83-1.24l-1.48-.35c-.18-.06-.3-.24-.3-.71,0-.12,0-.18.12-.18h12.47Z" fill="#fff" stroke-width="0"/><path d="M64.08,165.32c0,5.85-4.55,10.88-13.6,10.88-1.24,0-3.25-.12-4.2-.47-.18-.06-.35-.18-.41-.47l-.89-7.27c-.06-.24.47-.53.77-.53.06,0,.12,0,.18.06.95,2.01,1.89,3.96,3.02,5.79.24.47.41.71.95,1,.59.35,1.54.47,2.9.47,2.36,0,6.03-1.77,6.03-5.62s-2.72-6.27-7.09-9.34c-4.2-2.96-6.27-6.09-6.27-9.87,0-5.44,5.32-11.11,12.77-11.11,1.71,0,3.43.24,4.2.65.18.12.24.18.3.53l.53,7.15c0,.12-.41.47-.65.47-.06,0-.12,0-.18-.12-.89-1.95-1.83-3.96-2.84-5.91-.18-.3-.41-.53-.83-.83-.65-.35-1.3-.53-2.19-.53-3.25,0-5.26,2.84-5.26,5.91,0,3.31,1.65,5.08,5.79,8.45,3.78,3.13,6.98,6.38,6.98,10.64v.06Z" fill="#fff" stroke-width="0"/><path d="M102.8,139.31c.12,0,.18.06.18.18,0,.24-.12.65-.3.71l-1.36.35c-.65.18-.77.77-.83,1.42-.06,1.83.06,13.24.06,15.49s0,12.95.06,16.14c0,.65.12.89.53,1.01l1.48.53c.12.06.18.53.18.65,0,.06-.06.06-.12.06-.77-.06-2.6-.12-4.85-.12-2.42,0-4.67.06-5.56.12-.18,0-.18-.06-.18-.18,0-.24.12-.53.3-.59l1.95-.47c.41-.12.53-.53.53-.95-.18-5.79-1.06-18.86-1.24-23.88,0-.65-.06-1.36,0-1.95h-.47c-.24.77-.41,1.42-.59,1.89-1.89,6.21-5.85,19.21-7.86,24.59-.3.77-.47.89-1.6.95-.47.06-.89.06-1.3.06-.18,0-.3-.12-.35-.3-2.07-5.79-6.27-17.74-7.98-23.65-.12-.47-.41-1.12-.53-1.71h-.3c0,.53-.12,1.36-.18,1.71-.41,4.67-1.71,19.39-1.95,22.41,0,.59.12.89.53.95l1.89.35c.12,0,.24.41.24.59,0,.12,0,.18-.18.18-1-.06-2.01-.12-3.31-.12-1,0-2.19.06-2.96.12-.12,0-.12-.06-.12-.12,0-.24.12-.65.3-.65l1.36-.3c.41-.06.53-.24.53-.89.06-3.02.35-14.13.47-16.38.12-2.19.47-14.25.47-16.02,0-.41-.18-.65-.83-.83l-1.42-.47c-.24-.06-.3-.47-.3-.71,0-.12.06-.18.18-.18h9.46c.24,0,.35.18.41.35,1,3.55,5.97,21.28,7.21,25.89.18.53.35,1.18.71,2.25h.35c.35-1.01.53-1.89.71-2.42,1.6-5.08,5.2-19.1,7.09-25.78.06-.18.12-.3.3-.3h9.16Z" fill="#fff" stroke-width="0"/><path d="M127.57,175.67c-.06.18-.18.3-.47.3-.24,0-1.3-.06-3.55-.12-2.19-.06-5.5-.12-10.29-.12-2.19,0-4.38.06-6.15.12-.18,0-.18-.06-.18-.12,0-.24.06-.59.3-.65l1.89-.53c.41-.12.65-.3.65-.95.06-1.6,0-14.66-.06-16.91-.06-2.25-.12-12.89-.3-15.08-.06-.65-.18-.95-.65-1.06l-1.71-.41c-.18,0-.24-.35-.24-.65,0-.12,0-.18.12-.18h5.5c4.97,0,8.51-.06,10.88-.12,2.36,0,3.55-.06,3.78-.06.3,0,.35.24.35.53l.18,6.56c0,.18-.47.47-.65.47-.06,0-.12,0-.18-.12-.65-1.71-1.42-3.31-2.19-5.03-.24-.47-.59-.59-1.06-.71-.89-.18-5.08-.59-5.91-.53-.47.06-.53.24-.53.53-.3,4.14-.53,13.48-.53,15.08,2.07.12,7.57.35,9.16.35.12,0,.12.06.12.12,0,.41-.3.95-.41.95-2.25.24-5.79.41-8.22.59-.53.06-.71.18-.71.47-.06,1.71-.3,13.54-.3,15.25,0,.59.12.89.53.89,1.95,0,5.32-.24,7.33-.65.59-.12,1-.47,1.3-.95,1-1.42,1.95-2.96,2.78-4.37.06-.12.12-.12.18-.12.18,0,.59.35.53.59l-1.3,6.62Z" fill="#fff" stroke-width="0"/><path d="M167.42,139.31c.12,0,.18.06.18.18,0,.24-.12.65-.3.71l-1.36.35c-.65.18-.77.77-.83,1.42-.06,1.83.06,13.24.06,15.49s0,12.95.06,16.14c0,.65.12.89.53,1.01l1.48.53c.12.06.18.53.18.65,0,.06-.06.06-.12.06-.77-.06-2.6-.12-4.85-.12-2.42,0-4.67.06-5.56.12-.18,0-.18-.06-.18-.18,0-.24.12-.53.3-.59l1.95-.47c.41-.12.53-.53.53-.95-.18-5.79-1.06-18.86-1.24-23.88,0-.65-.06-1.36,0-1.95h-.47c-.24.77-.41,1.42-.59,1.89-1.89,6.21-5.85,19.21-7.86,24.59-.3.77-.47.89-1.6.95-.47.06-.89.06-1.3.06-.18,0-.3-.12-.35-.3-2.07-5.79-6.27-17.74-7.98-23.65-.12-.47-.41-1.12-.53-1.71h-.3c0,.53-.12,1.36-.18,1.71-.41,4.67-1.71,19.39-1.95,22.41,0,.59.12.89.53.95l1.89.35c.12,0,.24.41.24.59,0,.12,0,.18-.18.18-1-.06-2.01-.12-3.31-.12-1,0-2.19.06-2.96.12-.12,0-.12-.06-.12-.12,0-.24.12-.65.3-.65l1.36-.3c.41-.06.53-.24.53-.89.06-3.02.35-14.13.47-16.38.12-2.19.47-14.25.47-16.02,0-.41-.18-.65-.83-.83l-1.42-.47c-.24-.06-.3-.47-.3-.71,0-.12.06-.18.18-.18h9.46c.24,0,.35.18.41.35,1,3.55,5.97,21.28,7.21,25.89.18.53.35,1.18.71,2.25h.35c.35-1.01.53-1.89.71-2.42,1.6-5.08,5.2-19.1,7.09-25.78.06-.18.12-.3.3-.3h9.16Z" fill="#fff" stroke-width="0"/><path d="M186.8,156.16c.41.06.71.12.83.12,4.37.65,8.04,4.67,8.04,9.16,0,7.45-6.74,10.35-15.67,10.35-.71,0-2.48-.06-3.25-.06-1.42,0-3.02.12-4.97.12-.18,0-.18-.06-.18-.12,0-.24.06-.59.3-.65l1.83-.53c.41-.12.59-.3.59-.95.06-1.95,0-14.42,0-16.67,0-2.48,0-12.95-.06-15.25,0-.65-.18-.95-.83-.95l-1.83-.18c-.3,0-.41-.41-.41-.71,0-.06.06-.12.24-.12,2.96-.41,7.92-.71,10.82-.71,7.8,0,11.82,2.9,11.82,8.22,0,4.02-3.43,7.27-6.38,8.34-.24.06-.59.24-.89.35v.24ZM188.58,165.91c0-5.38-4.14-8.69-6.92-8.69-.35,0-.71,0-.95.12-.12,2.9-.35,14.9-.35,16.79,0,.35.35.53,1.06.53,2.25,0,7.15-1.6,7.15-8.69v-.06ZM182.37,140.08c-.59,0-.89.18-.89.65-.3,4.08-.77,13.6-.71,15.25.18.18.77.18,1.06.18,2.48,0,5.5-3.31,5.5-7.98,0-6.15-3.01-8.1-4.91-8.1h-.06Z" fill="#fff" stroke-width="0"/><path d="M219.61,175.67c-.06.18-.18.3-.47.3-.24,0-1.3-.06-3.55-.12-2.19-.06-5.5-.12-10.29-.12-2.19,0-4.38.06-6.15.12-.18,0-.18-.06-.18-.12,0-.24.06-.59.3-.65l1.89-.53c.41-.12.65-.3.65-.95.06-1.6,0-14.66-.06-16.91-.06-2.25-.12-12.89-.3-15.08-.06-.65-.18-.95-.65-1.06l-1.71-.41c-.18,0-.24-.35-.24-.65,0-.12,0-.18.12-.18h5.5c4.97,0,8.51-.06,10.88-.12,2.36,0,3.55-.06,3.78-.06.3,0,.35.24.35.53l.18,6.56c0,.18-.47.47-.65.47-.06,0-.12,0-.18-.12-.65-1.71-1.42-3.31-2.19-5.03-.24-.47-.59-.59-1.06-.71-.89-.18-5.08-.59-5.91-.53-.47.06-.53.24-.53.53-.3,4.14-.53,13.48-.53,15.08,2.07.12,7.57.35,9.16.35.12,0,.12.06.12.12,0,.41-.3.95-.41.95-2.25.24-5.79.41-8.22.59-.53.06-.71.18-.71.47-.06,1.71-.3,13.54-.3,15.25,0,.59.12.89.53.89,1.95,0,5.32-.24,7.33-.65.59-.12,1-.47,1.3-.95,1-1.42,1.95-2.96,2.78-4.37.06-.12.12-.12.18-.12.18,0,.59.35.53.59l-1.3,6.62Z" fill="#fff" stroke-width="0"/><path d="M246.1,148.59c0,4.02-2.66,7.09-5.73,8.93,1.71,3.02,4.91,10.4,6.92,16.02.18.47.47.77.83.95l1.54.53c.3.12.35.47.35.71,0,.06,0,.12-.12.12-1-.06-2.84-.12-4.91-.12-1.89,0-3.72.06-5.44.12-.12,0-.18-.06-.18-.18,0-.3.06-.53.24-.59l1.71-.47c.41-.12.65-.35.35-.89-1.95-3.9-4.91-9.58-7.57-13.36-.12-.18-.24-.3-.41-.3-.18.06-1.06,0-1.36,0-.12,3.02-.3,11.59-.3,13.42,0,.65.18.83.59.95l1.95.65c.18.06.24.35.24.65,0,.06-.06.18-.18.12-1.12-.06-3.13-.12-5.5-.12-2.19,0-4.2.12-5.38.12-.18,0-.18-.06-.18-.18,0-.24.06-.53.3-.59l1.6-.53c.41-.12.53-.41.53-.77,0-2.48-.18-13.66-.18-16.67,0-2.42-.12-14.01-.24-15.25-.06-.65-.24-1.01-.65-1.06l-1.66-.3c-.24-.06-.35-.47-.35-.71,0-.06,0-.12.18-.12,2.54-.24,7.27-.53,11.23-.53,8.16,0,11.76,3.49,11.76,9.4v.06ZM233.27,159.06c2.01,0,5.73-2.72,5.73-9.75,0-5.14-2.36-9.28-5.02-9.28-.65,0-1.06.18-1.06.65-.24,4.61-.65,16.61-.65,17.68-.06.65.12.71.95.71h.06Z" fill="#fff" stroke-width="0"/></svg>