<?xml version="1.0" encoding="UTF-8"?><svg id="logos" xmlns="http://www.w3.org/2000/svg" width="180" height="164" viewBox="0 0 180 164"><g><polygon points="24.85 95.26 33.73 86.38 33.73 69.43 19.94 69.43 19.94 83.79 14.34 83.79 14.34 46.9 19.94 46.9 19.94 58.37 33.73 58.37 33.73 44.31 24.85 35.42 9.3 35.42 .48 44.24 .48 86.45 9.3 95.26 24.85 95.26" fill="#fff"/><polygon points="123.17 95.26 132.05 86.38 132.05 69.43 118.25 69.43 118.25 83.79 112.66 83.79 112.66 46.9 118.25 46.9 118.25 58.37 132.05 58.37 132.05 44.31 123.17 35.42 107.61 35.42 98.8 44.24 98.8 86.45 107.61 95.26 123.17 95.26" fill="#fff"/><polygon points="72.88 95.26 72.88 35.42 58.92 35.42 58.92 59.87 53.09 59.87 53.09 35.42 39.14 35.42 39.14 95.26 53.09 95.26 53.09 70.93 58.92 70.93 58.92 95.26 72.88 95.26" fill="#fff"/><rect x="78.71" y="35.42" width="13.96" height="59.84" fill="#fff"/><polygon points="151.79 73.49 161.24 95.26 176.98 95.26 163.1 63.3 175.2 35.42 161.24 35.42 151.79 57.2 151.79 35.42 137.84 35.42 137.84 95.26 151.79 95.26 151.79 73.49" fill="#fff"/><polygon points="69.36 103.54 60.55 112.36 60.55 154.57 69.36 163.38 84.92 163.38 93.8 154.5 93.8 137.55 80 137.55 80 151.91 74.41 151.91 74.41 115.02 80 115.02 80 126.49 93.8 126.49 93.8 112.43 84.92 103.54 69.36 103.54" fill="#fff"/><polygon points="19.78 127.99 13.96 127.99 13.96 103.54 0 103.54 0 163.38 13.96 163.38 13.96 139.05 19.78 139.05 19.78 163.38 33.74 163.38 33.74 103.54 19.78 103.54 19.78 127.99" fill="#fff"/><rect x="39.57" y="103.54" width="13.96" height="59.84" fill="#fff"/><polygon points="137.84 103.54 123.88 103.54 114.43 125.32 114.43 103.54 100.47 103.54 100.47 163.38 114.43 163.38 114.43 141.61 123.88 163.38 139.61 163.38 125.74 131.42 137.84 103.54" fill="#fff"/><polygon points="151.1 103.54 141.88 112 141.88 130.13 152.01 139.04 161.73 139.04 161.73 152 155.55 152 155.55 144 141.88 144 141.88 154.74 151.1 163.38 166.19 163.38 175.2 154.43 175.2 135.59 164.97 126.68 155.66 126.68 155.66 114.43 161.83 114.43 161.83 122.12 175.2 122.12 175.2 111.49 166.09 103.54 151.1 103.54" fill="#fff"/></g><g><polygon points="4.08 0 .44 3.64 .44 21.05 4.08 24.69 10.5 24.69 14.16 21.03 14.16 14.03 8.47 14.03 8.47 19.96 6.16 19.96 6.16 4.73 8.47 4.73 8.47 9.47 14.16 9.47 14.16 3.66 10.5 0 4.08 0" fill="#fff"/><polygon points="45.09 0 41.45 3.64 41.45 21.05 45.09 24.69 51.51 24.69 55.17 21.03 55.17 14.03 49.48 14.03 49.48 19.96 47.17 19.96 47.17 4.73 49.48 4.73 49.48 9.47 55.17 9.47 55.17 3.66 51.51 0 45.09 0" fill="#fff"/><polygon points="24.56 10.09 22.15 10.09 22.15 0 16.39 0 16.39 24.69 22.15 24.69 22.15 14.65 24.56 14.65 24.56 24.69 30.32 24.69 30.32 0 24.56 0 24.56 10.09" fill="#fff"/><rect x="32.72" y="0" width="5.76" height="24.69" fill="#fff"/><polygon points="72.98 0 67.22 0 63.32 8.98 63.32 0 57.56 0 57.56 24.69 63.32 24.69 63.32 15.71 67.22 24.69 73.71 24.69 67.99 11.5 72.98 0" fill="#fff"/><polygon points="87.85 0 84.05 3.49 84.05 10.97 88.23 14.64 92.24 14.64 92.24 19.99 89.69 19.99 89.69 16.69 84.05 16.69 84.05 21.12 87.85 24.69 94.08 24.69 97.8 21 97.8 13.22 93.58 9.55 89.73 9.55 89.73 4.49 92.28 4.49 92.28 7.67 97.8 7.67 97.8 3.28 94.04 0 87.85 0" fill="#fff"/><polygon points="136.46 0 132.82 3.64 132.82 21.05 136.46 24.69 142.88 24.69 146.54 21.03 146.54 14.03 140.85 14.03 140.85 19.96 138.54 19.96 138.54 4.73 140.85 4.73 140.85 9.47 146.54 9.47 146.54 3.66 142.88 0 136.46 0" fill="#fff"/><rect x="124.09" y="0" width="5.76" height="24.69" fill="#fff"/><polygon points="164.35 0 158.59 0 154.69 8.98 154.69 0 148.93 0 148.93 24.69 154.69 24.69 154.69 15.71 158.59 24.69 165.08 24.69 159.35 11.5 164.35 0" fill="#fff"/><polygon points="180 7.67 180 3.28 176.24 0 170.05 0 166.25 3.49 166.25 10.97 170.43 14.64 174.44 14.64 174.44 19.99 171.89 19.99 171.89 16.69 166.25 16.69 166.25 21.12 170.05 24.69 176.28 24.69 180 21 180 13.22 175.78 9.55 171.93 9.55 171.93 4.49 174.48 4.49 174.48 7.67 180 7.67" fill="#fff"/><polygon points="76.03 4.43 78.82 4.43 76.79 6.86 78.3 8.3 81.68 4.54 81.68 .79 76.03 .79 76.03 4.43" fill="#fff"/><path d="M108.06,0V24.69h5.76V15.83h3.31l4.34-3.73V3.82l-4.34-3.82h-9.07Zm8.39,11.9h-2.63V4.54h2.63v7.35Z" fill="#fff"/></g></svg>