<svg xmlns="http://www.w3.org/2000/svg" viewBox="0 0 250 90"><path d="M19.26 73.51v9.79c0 1.06 3.07 3.94 4.47 3.72l-.28 2.53H6.07V35.46c0-.24-.57-2.08-.71-2.5-1-2.86-3.29-5.64-5.36-7.82l1.29-3.25c5.93-.23 11.61-1.57 17.17-3.58 3.03-1.1 5.9-2.76 8.99-3.55 10.33 2.56 19.5 9.58 25.53 18.21 1.75 2.5 5.26 8.53 5.22 11.51-.02 1.33-2.7 6.63-3.49 8.07-4.07 7.34-10.2 13.4-17.54 17.49-2.08 1.16-9.27 4.64-11.31 4.7s-4.59-1.22-6.61-1.23zm6.68-52.24c-3.71.63-6.06 4.26-6.36 7.78-.87 10.12.65 21.5.05 31.75 1.58 8.03 8.65 6.77 13.65 2.45 8.25-7.13 9.73-23.12 5.78-32.74-2.09-5.1-7.08-10.26-13.11-9.24zM78.55.82c-.96 1.42-1.8 2.94-2.5 4.5-.2.45-.82 2.5-1.07 2.57-2.84-.63-5.68-1.43-8.58-1.78-2.24-.27-3.12-.73-4.25 1.48-1.88 3.69-1.12 8.83 1.08 12.21 3.87 5.96 12.5 8.84 16.88 1.77l1.33.81c.14.18.06.31-.01.49-.42 1.06-2.87 3.8-3.8 4.61-6.46 5.62-17.56 3.79-20.71-4.52-2.04-5.39-1.37-12.87 2.64-17.21-2.63-.15-5.15-.49-7.01 1.77-.35-.23-1.35-.59-1.16-1.11.08-.23.94-1.4 1.16-1.66 1.83-2.19 4.38-3.48 7.15-4.06C65.72-.58 72.46.4 78.55.8zM90.8 0v11.85c1.08-.63 1.76-1.62 2.43-2.64 4.71.24 9.1 2.92 9.46 7.98.46 6.42-3.96 11.72-9.47 14.39l-.77-.96c1.88-1.12 3.69-3.27 4.46-5.35 1.67-4.54.17-11.95-6.11-9.96v14.82h-6.27V7.49c0-1.01-1.06-2.27-2.14-2.23l.15-.75L90.8-.01zM214.77 63.34c-.32-3.2-1.39-4.55-4.5-5.45.45-1.32 1.43-2.12 2.4-3.07s7.67-7.1 8.2-7.24c1.64-.45 6.15 2.87 5.81 5 .34.31 6.15-1.7 7.07-2.09 1.19-.51 4.84-2.9 5.38-2.99 1.28-.21 5.31 2.29 6.31 3.21 2.83 2.61 4.14 6.93 4.41 10.69.64 8.93-1.02 18.08-2.59 26.81h-15.77c1.86-5.36 4.46-10.55 5.95-16.05 2.08-7.66 2.58-13.78-7.41-13.17-1 .06-2.65.24-3.37.82v28.41h-11.91V63.34zM85.05 48.09h12.23v26.48c0 .5.98 2 1.44 2.42 1.06.99 2.77.79 2.29 2.25-.68 2.09-8.39 7.15-10.07 9.25-3.39-.34-5.57-3.43-5.57-6.69-.54-.55-7.48 2.89-8.58 3.48s-4.46 3.1-5.16 3.21c-.55.09-2.99-.79-3.63-1.07-7.72-3.47-8.6-12.01-8.04-19.57.49-6.62 4.29-13.1.96-19.74h12.71c4.28 5.94-.52 14.56-1.67 21.12-.45 2.53-1.09 5.64 1.61 7.19s9.21 1.44 11.49-.87V48.11zM208.68 80.41c.77.85 2.91 1.6 4.08 1.38-.45.67-.15 1.63-.49 2.24-.49.89-6.67 3.65-7.78 4.77l-9.27-6.26-10.1 7.44c-4.36-.49-8.48-3.9-9.01-8.38-1.54-12.86 9.89-13.65 18.91-17.82.26-2.44-.27-5.19-2.42-6.67-3.91 2.32-8.36 3.44-12.83 4.15-.5-.04-2.69-3.09-2.39-3.52 5.84-2.07 11.21-5.66 14.95-10.62 2.93 1.87 5.61 4.06 8.55 5.92 1.1.69 6.02 3.12 6.41 3.55.32.35.28.53.34.95.75 6.19-.79 14.06-.03 20.25.08.63.68 2.19 1.07 2.62zm-13.62-13.06c-4.32 2.64-7.64 4.37-7.09 10.13.35 3.76 4.97 3.73 7.09 1.27V67.36zM113.43 9.08c2.34 1.28 4.09 3.37 5.64 5.49l-8.54 8.7c1.6 1.65 3.91 2.41 6.18 2.25.62-.04 2.87-.86 3.04-.08-1.17 2.07-3.3 4.25-5.64 4.89-1.41.39-1.79.23-3.1-.3-4.47-1.82-6.83-5.93-6.45-10.7s5.43-7.86 8.86-10.26zm-4.55 5.59c-.32 1.77-.62 4.97.18 6.62.08.16.16.33.38.28.23-.05 3.27-3.16 3.4-3.37.29-.49-.02-1.23-.27-1.72-.67-1.29-2.28-1.87-3.68-1.81zM167.9 40.07v7.54l.48.48h8.53l-2.41 8.02h-6.6v20.7c0 .54.99 3.12 1.39 3.59.87 1.01 2.76 1.56 4.08 1.38.11 3.87-5.38 4.58-7.74 6.91-.35.24-.58.13-.93 0-2.5-.97-5.84-4.97-8.64-6.01-.48-6.54.4-13.52-.05-20.01-.22-3.13-.69-5.99-4.2-6.74 0-1.79 2.76-4.35 4.02-5.61 2.34-2.33 5.36-5.08 7.89-7.22 1.26-1.06 2.69-2.37 4.19-3.04zM104.53 61.73c-.31-1.85-2.31-3.52-4.18-3.7l.4-1.37 10.13-9.18c2.33.54 4.62 1.92 5.73 4.13 1.28-.97 1.89-2.19 3.4-3.03.93-.52 1.97-.84 3-1.1 1.63 2.47 3.59 4.52 6.63 5.1l-.3 1.14-7.1 5.76-.73-.15c-1.03-2.29-3.19-.95-4.74.15v28.73h-12.23V61.73zM153.81 81.8c-.47.76-.09 1.72-.64 2.4-.29.35-7.38 4.64-7.83 4.6l-9.16-6.59-.09-20.45c-.22-1.35-.93-2.63-2.11-3.35-.63-.38-2.14-.44-2.05-1.16.11-.86 2.89-3.8 3.7-4.67.65-.71 5.16-5.31 5.54-5.4 2.83.39 5.38 2.38 6.45 5 2.35 5.75-.35 19.04.8 25.84.44 2.59 2.87 4.01 5.39 3.77zM148.34 39.1l-11.91 4.82V33.01l11.91-4.82V39.1z" fill="#fff"/></svg>