<svg xmlns="http://www.w3.org/2000/svg" width="160" height="193" viewBox="0 0 160 193"><path d="M22.07,6.55h8.84c7.81,0,9.62,3.42,9.62,12.46,0,6-.78,9-3.87,10.07v.07c2.9.84,3.87,2.9,3.87,6.45V49H33V35.21c0-2.19-.71-2.84-2.32-2.84H29.56V49H22.07Zm8.52,20.79c1.94,0,2.45-.71,2.45-6.33,0-6.52-.32-7.49-2.32-7.49H29.56V27.34Z" fill="#fff"/><path d="M56.79,40.76,53.31,41l.18,8.6L46,50.25l1.8-42.76,10.42-.84,8.76,41.9L58,49.28ZM56,35.25l-2.9-20.68-.32,0,.39,20.89Z" fill="#fff"/><path d="M72.33,37.24V6.31h7.49V37.49c0,4.2.77,4.65,1.74,4.65s1.62-.45,1.62-4.65V6.31h6.26V37.24c0,9.74-3.23,12-8.52,12S72.33,47,72.33,37.24Z" fill="#fff"/><path d="M98.83,3.67h7.49v35.5h4.52v7h-12Z" fill="#fff"/><path d="M113.88,11c1.55-.22,2.33-1.11,2.33-3.27V7.54h-2V0h5.38V5.54c0,6.15-2.17,8.09-5.66,8.42Z" fill="#fff"/><path d="M126.48,33l6.57-.48c.58,7.85,1,9.12,2.47,9,1.29-.1,1.56-.89,1.23-5.27-.2-2.77-.54-3.84-1.25-4.7a15.39,15.39,0,0,0-3.14-2.29,16.7,16.7,0,0,1-4.12-3.13c-1.27-1.4-2.57-4.15-2.91-8.78C124.69,8.65,127.46,5,133,4.54c6.82-.5,8.48,2.61,9.42,15.49l-6.37.47c-.65-8.82-.91-9.77-2.07-9.69s-1.54,1.09-1.24,5.21c.25,3.41.67,4.74,1.37,5.46a18,18,0,0,0,3.48,2.4,13.94,13.94,0,0,1,4.13,3.32c1.3,1.78,2.12,4.18,2.39,7.91.66,9-1.62,12.23-7.93,12.69C129.1,48.32,127.31,44.18,126.48,33Z" fill="#fff"/><path d="M38.07,77.27l8.31.54-.49,30.56.25,0L50,78l7.15.47,0,30.59.26,0,3.52-30.37,7.34.48-7.45,42.08L52,120.74l.21-28.32-.25,0-3.7,28.1L40,120Z" fill="#fff"/><path d="M75.07,79.31h7.49v42.47H75.07Z" fill="#fff"/><path d="M92.82,79.31h7.49v35.5h4.52v7h-12Z" fill="#fff"/><path d="M111.69,78.36l7.7-.81c8.47-.91,11.09,2.91,12.89,19.85,2,18.43,0,21.49-7.88,22.33l-8.22.87Zm12.23,34.41c2.24-.24,2.34-1.16.91-14.57-1.35-12.72-1.88-14-4.12-13.78l-.84.09,3,28.37Z" fill="#fff"/><path d="M0,149.21,7.55,149l.52,20.91h.07l3.8-21,7.68-.2-4.75,19.37,6.46,23.08-8.26.21L9.63,175.31,8.35,181l.26,10.52-7.55.19Z" fill="#fff"/><path d="M24.44,148.82l7.49-.14.8,42.46-7.49.15Z" fill="#fff"/><path d="M36.91,148.89,47,148.33l5.91,29.74h.13l-2.62-29.92,6.57-.36,2.35,42.41-8.77.48L43.3,158h-.13l2.66,33-6.57.36Z" fill="#fff"/><path d="M63.74,166.81c0-18.21,2.78-22.21,9.23-22.21s8.2,3.75,8.2,14.2c0,1.81-.06,4.07-.13,5.23H74.85c0-1,.06-3,.06-4.77,0-6.4-.32-7.69-1.55-7.69-1.55,0-2.13,1.62-2.13,15.37,0,12.84.58,14.07,1.94,14.07s1.74-3,1.74-7.81v-1.42H73v-5h8.13v20.79H75.23c.13-1,.26-3.1.33-5.23h-.07c-.64,4.2-2.19,5.68-4.71,5.68C65.94,188,63.74,184.56,63.74,166.81Z" fill="#fff"/><path d="M86.6,146.31l7.73-.51c8.5-.56,11,3.36,12.08,20.36,1.21,18.49-.85,21.47-8.78,22l-8.24.55Zm10.83,34.87c2.26-.15,2.39-1.06,1.51-14.53-.84-12.75-1.32-14.08-3.57-13.93l-.84.06,1.87,28.47Z" fill="#fff"/><path d="M110.53,166.84c-.92-16.7,1.27-21.6,8-22s9.42,4.27,10.34,21c1,17.59-1.32,22-8,22.35S111.5,184.43,110.53,166.84Zm10.83-.6c-.72-13.15-1.25-14.48-2.47-14.41s-1.61,1.45-.88,14.59c.76,13.8,1.27,14.87,2.49,14.8S122.12,180,121.36,166.24Z" fill="#fff"/><path d="M134.19,140.4l10-.46,2.95,26.1h.19l.67-26.27,10-.46,2,42.43-7.48.35-.78-32.34h-.26l-1.8,32.46-4.45.2-4.77-32.15h-.2l2.14,32.28-6.26.29Z" fill="#fff"/></svg>