<svg xmlns="http://www.w3.org/2000/svg" width="200" height="126" viewBox="0 0 200 126"><path fill="#fff" d="M0 28.03l9.24-4.24 9.85 18.48-.99-11.24 4.11-1.74 10.36 9.36-7.36-22.22 10.86-5.81 3.22 5.79-3.97 2.14 5.74 31.7-5.37 3.5-10.98-11.48 1.62 14.72-5.8 2.62L7.29 32.25 2.62 34.4 0 28.03z"/><path fill="#fff" d="M52.72 11.03L37.24 21.17l7.17 29.06 19.75-6.71-3.05-8.41-12.2 4.97-1.83-6.63 6.86-2.82-1.91-5.72-6.33 2.21-.68-2.52 10.67-5.56-2.97-8.01zM55.14 5.86l.78 7.42h9.07l4.45 27.89 10-3.12-5.7-25.47 13.51-.16L85.61 0 55.14 5.86zM92.96 70.16l-4.32.61-4.85-20.71 4.09-.68-1.17-7.66-13.83 4.37 1.56 5.55 3.96-.67 6.27 20.37-5.39.77 1.8 5.94 13.13-2.03-1.25-5.86zM99.44 37.03c-6.58-1.39-11.8 5.31-11.8 5.31L97.8 75.15s13.28.31 13.44-10.78c.16-11.09-5.16-25.94-11.8-27.34zm1.02 28.83l-6.25-20.39c4.43-3.77 8.44 2.73 10.63 11.33 2.19 8.59-4.38 9.06-4.38 9.06z"/><path fill="#fff" d="M106.63 37.97l8.28 31.25 20.31-8.13-3.2-9.6-12.74 5.15-1.56-4.61 6.25-2.81-1.95-6.17-6.64 2.11-1.25-3.99 11.64-4.33-2.11-7.31-17.03 8.44zM66.87 58.52l6.57-3.41s-1.13-8.4-9.27-7.96-13.23 6.55-11.98 12.72c1.25 6.17 5.53 6.24 9.3 7.2s9 5.53 8.63 9.22-5.09 2.48-6.57.89-1.62-5.24-1.62-5.24l-6.78 2.73s1.25 8.71 8.4 9.96c7.16 1.25 13.43-4.29 14.17-9.49s-1.25-10.95-7.08-12.87-12.5-4.85-10.48-8.71c1.55-2.95 5.36-1.45 5.83.81s.89 4.13.89 4.13zM168.44 58.6l16.33 16.11 3.91 14.25 9.47-3.7-5.55-14.69 7.4-22.63-11.1-1.96-2.39 19.88-10.23-14.11-7.84 6.85zM183.13 81.78l-17.95-3.37s7.45-6.53 5.98-12.55c-1.46-6.02-6.96-9.22-13.71-6.39-8.27 3.47-12.19 10.66-12.19 10.66l12.51 36.24 8.71-4.03-7.83-17.08 21.33 8.71 3.16-12.19zm-27.42-5.33l-2.72-5.88s8.76-7.45 10.62-4.26c2.58 4.41-7.9 10.14-7.9 10.14z"/><path d="M150.44 87.45c-3.65-4.64-9.95-5.73-14.59-3.72-7.5 3.25-8.23 12.87-7.1 16.45 1.13 3.58 5.11 12.14 12.2 11.94 7.09-.2 12.61-5.84 13.08-9.49.46-3.65.07-10.55-3.58-15.19zm-4.88 17.25c-3.18 2.79-8.69.13-10.48-4.18-1.79-4.31-.2-10.02 2.59-11.21 4.07-1.74 7.5.46 9.29 4.64 1.79 4.18 1.79 7.96-1.4 10.75z" fill="#fff"/><path fill="#fff" d="M106.16 81.42l2.26 7.54 7.76-2.1 6.2 28.11 9.39-2.51-7.14-27.98 9.4-3.06-3.14-11.02-24.73 11.02z"/><path d="M101.76 94.14l7.01-2.19s-1.31-9.56-7.95-10.58-13.42 3.14-14.3 10.72 4.01 11.24 8.61 11.6 8.95 2.85 11.04 6.71 2.08 6.5-1.41 6.79c-4.45.36-4.67-8.54-4.67-8.54l-8.46 3.47s3.14 10.68 10.43 11.85 13.79-6.42 13.13-12.48c-.66-6.06-2.85-11.75-9.92-14.23-7.08-2.48-11.76-3.61-11.06-8.57.48-3.39 5.97-2.66 6.61.47s.94 4.96.94 4.96z" fill="#fff"/></svg>