<svg xmlns="http://www.w3.org/2000/svg" viewBox="0 0 250 112"><path d="M163.88 55.07c7.5-6.28 12.62-15.47 15.28-24.77-8.65 9.39-20.39 8.64-21.18-5.87-.06-1.57.03-4.87.41-6.38l.37-.44c-.41-.8 1.15-4.35 2.18-4.44.31-1.07 1.67-.41 2.46-.51.79 4.67-.91 18.92 6.92 17.19 5.53-1.93 7.76-8.34 10.6-12.97 1.15-1.79 1.66-4.39 3.77-5.32.22-.39.91-.7 1.2-.21.97.5 2.35.44 3.44.63-.74 8.86-3.15 17.72-6.11 26.07-2.5 6.71-6.44 12.99-11.29 18.28-4.92 4.78-11.38 11.7-18.9 9.76-.65-.04-1.27-.54-1.89-.73-.51-.6-1.61-1.26-2.24-1.72-.13-.32-.16-1.07-.53-1.21-.25.08-.67.18-.83.03.04-.59-.06-1-.44-1.5l-.06-1.61c.21-.46.26-.77.24-1.24-.02-.59 1.59-.76 2.09-.16.4-1.22 1.26.22 2.29-.89.84.78 2.18 1.75 2.97 2.58 3.26.34 6.81-2.64 9.23-4.58zM93.51 107.9c-.61-.25-1.22-.46-1.94-.56-2.48-4.14 1.2-13.42 1.39-18.25-3.46-.06-8.73.38-12.28.01-.61-.33-1.29-.29-1.95-.02-1.31 3.52-2.56 17.36-5.23 18.6-.05 1.07-.58 1.72-1.63 1.31-.71-.51-.84-.05-1.41-.58l-1.22-1.13c-1.91-.32-.25-2.08-.78-3.48 1.78-10.89 4.77-21.74 6.94-32.56.59-2.18.64-3.38 2.73-4.72.62.74 1.95.83 2.73 1.42 2.33 2.61-.41 11.8-.88 15.26 4.61.41 9.57-.8 14.23-.05 1.53-4.87 1.86-10.35 3.54-15.21l.88-1.01c.75-.39 2.71.01 3.47.41.01.42.25.59.64.7 1.21 5.47-.93 11.37-1.61 16.8-1.49 6.64-2.59 13.67-3.96 20.42l-1.26 2.52c-.65.08-1.25-.03-1.89-.33l-.5.46zM109.11 33.32l.39-.06.24-.37c.31-.13.93.04 1.35.06s1.09-.31 1.41-.18c.54.23.8.4 1.33-.12l-.13.29c-.04.09.36.24.43.14.88-1.19 2.64.22 3.36 1.13l-.62.87 1.27.16c-.07.28-.26.51-.66.63l-.08.98c-9.91 4.97-30.77 4.29-37.09-5.94-1.23-1.78-2.01-4.01-2.11-6.19l.72-.27c-1.7-.06.09-4.39.36-5.49 4.02-9.65 15-14.1 24.36-17.03 3.9-1.21 12.13-2.12 15.51.38.48 1.59.56.54 1.49.64 1.67 1 1.87 1.68 2 3.69.02.2-.43.38-.58.54-.14.15-.11.71-.45.74-1.04.09-.95.98-2.36.65-7.98-2.18-16.08.89-23.31 4.18-.32.52-.91.74-1.5.8-4 2.89-11.12 7.9-7.54 13.54.79.9 2.09 2 3.14 2.59.99.65 1.7.62 2.02 1.16 2.13.49 4.21 1.36 6.36 1.7 3.33.51 7.61.03 10.69.76zM20.92 34.12c-1.43 1-2.84 2.61-4.72 2.54l-.65-1.59c-.45-.16-.67-.58-1.02-.84-.05-.37.62-1.77.69-2.19l.52.16c-.21-.59-.03-.89.38-1.1.08-.87 1.17-1.67 1.67-2.32.93.31.73-.6 1.31-.92.81-.54-.22-1.32 1.11-1.69 5.72-6.84 13.17-12.2 19.4-18.6 2.16-2.06 4.27-4.38 6.42-6.46.18-.33.47-.53.86-.35.73.34 1.1-1.15 2.44-.54-.19 1.32 2.41 2.4 3.23 3.31l-.38.14c.49 1.6-.6 4.25-.87 5.87-1.13 6.66-1.18 13.64-.96 20.37l.06 2.08c-.07.91.84 3.1-.25 3.61l-.13 1.82c-.63.16-1.58-.26-2.21.05-.52.31-.98.29-1.55.1-.15-.04-.14-.79-.31-.68-.19.12-.61.39-.81.51-1.85-2.76-1.8-6.52-2.14-9.73-19.72.98-9.31-4.2-22.1 6.44zm14.62-12.79c2.31-.02 5.08-.03 7.37-.27.3-1.26.28-5.33.22-6.64-1.77 1.59-3.7 3.33-5.49 4.91-.62.65-1.63 1.2-2.1 1.99zM200.22 107.76c-4.05-2.01-8.66-3.12-12.56-5.36-.01-.53-.08-1.27-.7-1.06l-.28-.43c-.1.67-.41 2.04-.59 2.7-.41 2.74-1.01 7.08-4.23 7.73-.34-.78-.87-.6-1.54-.78-.02-.55-.36-.78-.89-.76l-.26-.7-1.21-.14c1.04-5.41 1.85-11.38 3.58-16.67.83-2.88 1.54-6.7 4.37-8.25.48-.08 1.22.04 1.45-.68l2.35-.29c.66-1 2.63-.31 3.58-1.15l4.42-.27 1.65.35c.63-.14 1.27-.3 1.77.21.63.04 2.25.31 2.89.42.26.48 1.23.53 1.68.86.26.62.76.33 1.68 1.57l.63.84.65 2.4c-.94 1.02-.51.86-.38 1.8-.47 1.87-1.8 3.67-3.28 4.87l-.98.9-.93.41c-.98 1.35-2.92 1.94-4.26 2.83 3.45 1.45 7.12 2.87 10.32 4.69.98.16 1.71.91 1.79 1.85.78.33 1.09 1.69 0 1.85l-.36.6c-.5-.09-.5.38-.71.57l-1.54 1.35c-1.41.97-6.45-1.67-8.12-2.26zm-11.07-10.61c3.44-1.4 20.72-8.05 8.62-9.6-2.44-.08-6.4.21-8.76.71.33.64-3.85 16.18-1.34 11.14.37-.18.86-.5 1.01-.73l-.63-.59 1.1-.93zM164.74 99.97c-5.12 4.83-16.52 12.77-22.5 5.8-.51-.32-.82-.76-.8-1.43-.93-.61-.67-2.31-.7-3.24.61-11.38 12.1-20.01 23.2-18.68.92.16 3.33.33 3.38 1.53l.76-.44c1.87.57 2.53 2.56 4.64 2.33.54 6.91-1.63 14.41-.94 21.28l-.41.45c.79.66-.33.41.35 1.53.18.26.09.86-.08 1.24-.58.1-1.8.33-2.39.44-.53.42-.99.72-1.68.77l-.56.4-.75-.87c-1.8-3.69-.89-7.95-.68-11.88l-.84.79zm-12.19 1.27c6.15-2.38 10.7-7.43 13.5-13.2-7.27-1.5-13.5.31-17.7 6.75-2.31 5.14-2.94 8.9 4.2 6.46zM132.86 102.72l.58.63c-.59.8.38 1.15-.28 1.86-.73 1.67-1.45.21-2.16 1.44-2.05 1.69-5.56 1.48-8.05 1.59-5.74.08-12.34-.7-16.12-5.53-3.48-4.34-2.41-10.62 1.49-14.33.65-.73 1.79-1.4 2.49-2.07 1.22-1.07 2.03-.58 2.51-1.35 1.05-.37 2.05-1.05 3.19-1.08.36-.5 1.25-.57 1.77-.68 5.39-1.54 20.36-1.24 19.07 7.08-1.98 5.28-9.49 5.18-14.12 6.87-3.45 1.07-7.26 1.94-10.87 2.28.81 1.19 2.41 1.63 3.69 2.23 3.3 1.11 8.79.8 12.24.95l1.79.14c.7-.11 2.09-.14 2.78-.01zm-13.97-10.05c3.47-1.08 7.13-2.37 10.64-3.31-.13-1.1-4.91-1.03-5.89-1.24-4.61.4-11.56 1.5-12.68 6.85 2.71-.28 5.34-1.48 7.92-2.3zM226.5 110.45l-1.47.47c-.58-.21-.38-.31-.84.08-.32 0-1.31.41-1.43-.07-.05-.7.82-.27.6-1.12-.19-.68-.54-2.07-.6-2.77-.13-8.93 1.87-17.92 3.08-26.67-1.7-.06-20.05-.05-16.38-3.57-1.68-1.91 3.73-2.13 4.81-2.12 1.47.2 5.54-.98 6.32.32.16.05.39-.21.44-.52l6.27-.11c.62-2.31.8-5.24 1.79-7.39.1-1.82 1.64-1.7 2.93-1.2 1.05.33 1.05-.04 1.41 1.1 1.23 1.69.46 4.73.38 6.67-.1.51-.34.77.44.76 3.5.22 7.65-.25 11.1.42l1.68.17 1.81.66c.35.13.63.64 1.14.54.02.5-.09 1.47-.24 1.94.79.4-.91-.12-.87 1.23l-.73.61c-5.01.73-10.47.37-15.49.69-1.11 5.99-2.17 12.49-2.75 18.57-.24 2.06-.66 4.91-.71 6.97-.36 2.32 0 3.63-2.72 4.35z" fill="#fff"/><path d="M145.61 36.87c-2.87-1.24-6-2.82-8.95-3.83l-2.43-.61-1.18-.67c-.64-.36-.4-.96-.6-.85-.4.03-.59 1.76-.71 2.01-1.02 2.37-.76 5.38-3.18 6.9-.88-.16-1.55-.06-1.51 1.11l-.48.03c-.14 0-.27-.33-.39-.44l-.6-.57c-.1.22-.23.64-.49.71-.44.12-.43-.76-.74-.71l-.56.09c1.03-5.1 2.24-11.05 3.59-16.18.57-2.09 1.14-5.06 1.63-7.18.27-1.66 2.45-1.65 3.12-3.01 1.86-.64 3.62-2.15 5.69-1.88.55-.29 1.13-.39 1.74-.24a2.41 2.41 0 0 1 1.57-.21c.49.64.97-.48 3.08-.07l.24.4c1.21-.33 3.55.29 3.9 1.64.07.21 1.04.06 1.08.19.69 1.64 1.8 3.88.58 5.63-.92 4.2-4.87 6.81-7.74 9.6 3.69 1.76 7.73 3.28 11.25 5.37.44.27 1.02.55 1.19 1.09.15 1.04.46.12 1.09 1.83l-.69.71c-.44 0-.66.26-.83.6-.53.1-.75.07-.72.75l-.82.65c-2.5-.47-4.8-1.77-7.12-2.84zm-8.9-11.4c2.2-1.16 4.43-2.68 6.02-4.62 4.51-5.44-.28-3.84-4.09-4.13-.87.27-4.75-.21-4.44 1.19.34 2.92-.51 6.17-1.08 9.03.23.54 2.88-1.33 3.59-1.48zM34.06 62.2c.5-2 2.2-4.23 2.27-6.3-2.96 1.3-4.18 4.79-6.66 6.48-.21-.13-.99-.46-1.15-.63-.18-.25 1.11-2.05 1.2-2.29.59-1.37 1.47-2.88 2.25-4.12.32.29.33.31.75.21.34 1.4 3.09-2 5.26-1.61l.6.64.04 2.41c1.55-.88 3.11-2.62 5.03-2.54-.79 1.3 1.91-.94.09 3.29-1.1 2.03-.39 3.96-3.35 3.95-.43-1.43.72-2.96 1.1-4.29-1.92.04-5.05 6.89-6.57 5.07l-.86-.26zM68.88 60.22c.29-1.04.86-3.13 1.15-4.17-1.99.13-3.39 2.63-4.71 3.94-1.02 1.31-2.93 4.11-4.26 1.54 1.35-2.8 2.66-5.91 4.65-8.35.65-1.33 1.91-2.92 2.92-4.01v.51c.2.32.48-.16.63-.28.13 2.28-2.08 4.04-2.56 6.22l2.3-1.33c2.17-1.14 3.95-.03 3.05 2.46L71.5 59c-.11.44-.43.83-.2 1.31l-.32.77-.83.56h-.8c-.18-.35-.42-1.05-.48-1.44zM80.07 60.2c1.33.15 4.15-1.01 5.09-.04-.35.25-.2.34-.14.66-2.25 1.25-5.02 1.62-7.62 1.38-8.51-.75-1.45-10 6.82-8.14.14.17.39.35.57.38-.1.22-.34.35 0 .5-.41.09-.36.55-.26.87-1.59 1.86-4.76 2.11-6.74 3.3-.2-.25-.57-.27-.92 0-.05-.41-.5-.55-.8-.73-.36.39-.15.7.17 1.03.93.99 2.59.77 3.81.79zm-2.42-2.35c.82-.54 2.41-1.28 3.21-1.82-1.03-.62-5.8 1.56-4.39 2.46.15-.15.98-.54 1.18-.64zM3.8 59.89c-.82 1.09-1.68 2.74-2.82 3.49-.55-.61-.62-.38-.98.19l.3-1.23c-.03-1.51 2.14-4.22 2.59-5.57l-1.67-.09c-.51-.17-.15-.69-.17-1.01.78-1.09 3.04-.38 3.8-1.87 1.32-2.12 2.93-5.06 5.6-5.41 1.01-.61 2.5-1.3 3.38-.18-.14.4-.34.73-.63 1.13.04.12-.02-.05-.02-.07l-.22-.09-.11.39c-1.61-.73-3.24.73-4.09 2l-1.24 1.77c-.19.27-.61.51-.33 1.02 1.16.08 2.76-.23 3.84.29-1.92 3.37-5.36.67-6.04 3.07-.21.64-.89 1.55-1.21 2.16zM12.34 62.22c-.82-.29-2.11-1.52-2.5-.04l-.65.57-.34-.48c-.15-.22-.43.12-.83.21-.2.05.21-.57.16-.58l-.35-.13c.55-.19.41-.17.55-.7 1.42-2.28 3.2-5.27 4.62-7.55 2.41.58 3.09-.86 5.39.36.35 2.85-3.82 4.17-5.19 5.92l1.31.57c.25.05.26-.09.35.22l.7.16.71.99c-.45.08-1.56 1.24-2.26 1.24l-1.67-.76zm1.41-4.77c2.41-1.71 3.7-2.8.5-2.43-.5.2-.43.97-.64 1.26-.34.48-.55.78-.79 1.48.41-.09.66-.14.93-.31zM26.46 60.5c-5.99 4.92-11.56 1.43-4.52-4.48l1.11-.38c1.54-1.72 4.74-1.54 5.97.46L29 57.28c-.47 1.2-1.54 2.44-2.54 3.23zm-2.77-.32c1.09-.64 3.93-2.33 2.17-3.59-1.73-2.79-7.84 6.25-2.17 3.59zM52.4 62.42c.23-1.21 1.47-2.96 2.09-4.1.21-.76.8-1.38 1.09-2.12-.76-.52-3.82.18-4.56-.63.33-.21.54-.17.39-.66 1.23-.81 3.15-.71 4.56-.81 1.33.01 1.75-1.88 2.35-2.73.37-.36.72-1.64 1.48-1.01l.47-.4c.32.58.13 1.51-.35 2.11-.07.8-.81 1.25-.3 1.74.97.08 2.36-.41 3.23.24-.41.67-.75 1.66-1.67 1.71-4.21.3-2.52-.21-4.42 2.55-.71 1.04-1.37 3.83-3.05 3.56l-.54.49c-.24-.68-.49-.13-.79.07z" fill="#fff"/></svg>