<svg xmlns="http://www.w3.org/2000/svg" width="300" height="53" viewBox="0 0 300 53"><path d="M0,0C5.6.25,11.24-.76,16.54,1.72c3.37,1.58,5.91,3.93,6.73,7.69A8.11,8.11,0,0,1,20.54,18a42.45,42.45,0,0,1-4.11,2.73c-.43.27-.9.47-1.54.8,1.06.41,1.94.74,2.82,1.1,6.18,2.54,10.05,8.07,10,14.3A15.08,15.08,0,0,1,17.39,50.82a26,26,0,0,1-6.82,1.41c-3.29.23-6.61.07-9.91.07A4.67,4.67,0,0,1,0,52.21ZM5.54,50.56c1.21,0,2.3.06,3.39,0,4.3-.27,8-1.74,10.43-5.51,2.79-4.38,2.81-9.1,1.06-13.84-1.53-4.12-4.23-7.2-8.67-8.39-1-.25-2-.31-2.94-.53-.28-.07-.49-.42-.73-.64a2.54,2.54,0,0,1,.67-.57,5.05,5.05,0,0,1,1.11-.19A9.19,9.19,0,0,0,17.51,8.63C16,3.89,12.22,1.3,6.86,1.17c-1,0-1.35.18-1.35,1.27q.06,23.48,0,47Z" fill="#fff"/><path d="M126.87,24l-1.58,1.38c-1.83,1.63-3.66,3.28-5.51,4.9a1.56,1.56,0,0,0-.58,1.31q0,9.86,0,19.71v1c-1.38,0-2.66,0-3.94,0-.15,0-.34-.26-.41-.44a1.88,1.88,0,0,1,0-.63V11.74h4.35V29.12A44.62,44.62,0,0,0,122.67,26c3.2-3.59,6.32-7.24,9.45-10.89.85-1,1.63-2.06,2.46-3.06a1.18,1.18,0,0,1,.71-.42c1.81,0,3.63,0,5.64,0L127.74,23.05l1.66.82c4.49,2.18,7.1,5.91,8.83,10.43a24.91,24.91,0,0,1,1.4,7.37,22.68,22.68,0,0,0,3.07,9.92c.11.18.19.37.35.67-.37,0-.64.05-.92.05-1.74,0-3.48,0-5.22,0-.62,0-.84-.19-.9-.79-.37-4-.78-7.91-1.16-11.87a26,26,0,0,0-2.47-9.79A15.87,15.87,0,0,0,126.87,24Z" fill="#fff"/><path d="M182.08,34c-.31-.67.12-.88.59-1.08a11.15,11.15,0,0,0,6.09-5.64c1.61-3.54,1.86-7.15-.13-10.62a7.83,7.83,0,0,0-7.73-4.1V52.27h-4.31V11.69c1.95,0,3.87-.12,5.78,0a30.46,30.46,0,0,1,5.27.93,10.25,10.25,0,0,1,4.68,2.84c2.9,3,3.23,7.23.91,11.06a14.48,14.48,0,0,1-5.14,4.73l-1.73,1c.39.28.69.53,1,.75a14.31,14.31,0,0,1,6,9.32c.3,1.49.57,3,.89,4.47a18.62,18.62,0,0,0,.73,2.78,26,26,0,0,0,1.33,2.63l-.81,0c-1.36,0-2.73-.06-4.09,0a1.29,1.29,0,0,1-1.42-1,19.74,19.74,0,0,1-1.26-7.13c-.13-2.13-.25-4.26-.48-6.38a7.48,7.48,0,0,0-2.54-4.61,1.07,1.07,0,0,0-.84-.17C184,33.35,183,33.68,182.08,34Z" fill="#fff"/><path d="M280.42,11.67c4.11.06,8.2-.42,12.07,1.33a10.06,10.06,0,0,1,5.44,5.08c1.3,3,.69,5.84-.92,8.56a14.06,14.06,0,0,1-5.1,4.65c-.52.33-1.05.64-1.63,1a2.89,2.89,0,0,0,.32.35c4.19,2.62,6.18,6.58,7,11.28a35.83,35.83,0,0,0,.8,4c.43,1.47,1.05,2.87,1.62,4.41h-1.07c-1.32,0-2.63,0-3.94,0a.92.92,0,0,1-1-.62,17.42,17.42,0,0,1-1.39-6.86c-.14-2.26-.25-4.53-.47-6.79a7.57,7.57,0,0,0-2.55-4.77,1,1,0,0,0-.84-.19c-.95.24-1.88.57-2.82.87-.32-.61,0-.84.5-1A11.18,11.18,0,0,0,292,28.3c2.17-3.8,2.63-7.75.44-11.66a7.74,7.74,0,0,0-7.71-4.09v39.7h-4.34Z" fill="#fff"/><path d="M212.46,12.12s9.67,26.27,14.31,40.19c-1.48,0-3.41,0-4.78,0-.18,0-.42-.37-.5-.6-1.49-4.43-6.36-17.92-6.36-17.92l-6.69.06s-4.11,11.66-5.7,17.5c-.22.79-.55,1.07-1.37,1-1.17-.08-3.74,0-3.74,0Zm-.79,12L209,32h5.49Z" fill="#fff"/><path d="M72.36,12.12S82,38.39,86.66,52.31c-1.48,0-3.41,0-4.78,0-.18,0-.42-.37-.5-.6C79.89,47.25,75,33.76,75,33.76l-6.69.06s-4.11,11.66-5.7,17.5c-.21.79-.54,1.07-1.37,1-1.17-.08-3.73,0-3.73,0Zm-.8,12L68.92,32H74.4Z" fill="#fff"/><path d="M259.65,11.7h16.24v3.42l-11.47-2.63V29.93l8.51-.89v2.9l-8.51-.88V51.43l12.24-2.75v3.56h-17Z" fill="#fff"/><path d="M159.7,24.6V52.31c-1.93,0-3.74,0-5.55,0-.16,0-.39-.27-.43-.45a3.52,3.52,0,0,1,0-.92V0h21.12V4.32L159.8.7V23.22l12.14-1.75v4.75Z" fill="#fff"/><path d="M111.54,47.16c0,1.48,0,2.73,0,4,0,.16-.33.37-.55.45C100.1,55.38,89.25,48.94,85.89,39a21.54,21.54,0,0,1,9.39-25.13,19.26,19.26,0,0,1,12.89-2.05c.84.13,1.69.29,2.54.39.44.05.58.25.58.67,0,1.31,0,2.62,0,3.93a2,2,0,0,1-.28.68,2.83,2.83,0,0,1-.72-.35c-.41-.37-.78-.8-1.17-1.2-3.72-4-8.41-3.42-11.89-1.19a14.36,14.36,0,0,0-5.81,7.56c-2.83,8-2.29,15.74,2.23,23a12.43,12.43,0,0,0,6.26,5.3c3.29,1.23,6.36.91,9-1.51.52-.46,1-1,1.53-1.41A5.34,5.34,0,0,1,111.54,47.16Z" fill="#fff"/><path d="M32,11.72h4.27V51.46l18.18-3v3.83H32Z" fill="#fff"/><path d="M229.13,44.83c.22.49.43,1,.66,1.45a9.07,9.07,0,0,0,7.2,5.13c3.11.44,5.61-1.73,6.14-5.1a13.11,13.11,0,0,0-1.79-8.78c-1.67-2.88-3.65-5.57-5.51-8.34-1.6-2.37-3.26-4.69-4.79-7.1a11.9,11.9,0,0,1-1.26-2.93,5.63,5.63,0,0,1,2.09-6.33,8.69,8.69,0,0,1,4.85-1.71,19.87,19.87,0,0,1,7,1.1.61.61,0,0,1,.37.43,30,30,0,0,1-.17,4.4c-.19-.18-.4-.34-.57-.53a30.72,30.72,0,0,0-2.07-2.33,6.91,6.91,0,0,0-6.78-1.65,2.38,2.38,0,0,0-1.8,3.39,20.43,20.43,0,0,0,2.14,3.92c2.88,4.24,5.9,8.38,8.76,12.64a16,16,0,0,1,2.77,9.84c-.38,7.77-7.51,12.56-14.83,9.84-.93-.34-2.1-.58-2.62-1.27s-.17-1.78-.18-2.71,0-2.17,0-3.25Z" fill="#fff"/><path d="M254.8,52.27h-4.23V11.74h4.23Z" fill="#fff"/></svg>