<svg xmlns="http://www.w3.org/2000/svg" width="200" height="169" viewBox="0 0 200 169"><path d="M36.35 89.43l1.34-1.07-.59-24.45-2.45 2 .14 6.09-2.35 1.88-.23-9.43 12.6-10.07.19 9.46-2.36 1.88-.15-6.15-2.49 2L40.64 86 42 84.9l.08 3.28-5.68 4.53zM54.15 75.6l1.28-.95-.28-11.25-5.1 3.82.27 11.25 1.24-.93.08 3.28L46.11 85 46 81.68l1.28-1-.6-24.45-1.27 1-.05-3.23 5.53-4.14.11 3.24-1.27.9.27 10 5.1-3.83-.24-9.92-1.27 1-.08-3.28L59 43.72l.12 3.28-1.27 1 .59 24.44 1.28-1 .08 3.27-5.57 4.17zM64.56 65c.06 2.39.86 3 2.73 1.75a5.67 5.67 0 0 0 2.56-5.32L69.33 40l-1.33.92-.08-3.27 5.54-3.75.08 3.28-1.32.89.51 21a12.06 12.06 0 0 1-5.48 11c-3.56 2.41-5.7 1.65-5.82-3.35l-.51-21-1.32.9-.08-3.28 5.72-3.87.08 3.28-1.28.86zM78 36.05c.17 2.15.36 5.23.41 7.18l.38 15.68 1.41-.76.08 3.28-5.62 3-.08-3.28 1.4-.75-.6-24.4-1.4.75-.08-3.28 5.81-3.12 4.53 14.11c.52 1.79 1.18 4.44 1.74 6.38-.17-2.15-.41-5.21-.45-7l-.32-13.15-1.36.73-.08-3.27 5.58-3 .08 3.27-1.43.76.67 27.72-3.7 2-5.3-16.44c-.93-3.04-1.16-4.46-1.67-6.41zM90.23 24.89l7.56-1.74c3.62-.83 7.28-.38 7.42 5.55l.41 16.56c.14 5.94-3.46 8.05-7.08 8.89L91 55.89l-.08-3.28 1.56-.36-.59-24.44-1.56.36zM95.54 27l.59 24.44 2.07-.48C101 50.3 102 49 102 46.2l-.41-16.74c-.07-2.79-1.17-3.61-3.93-3zM118.51 29.49l-.15-6-6.35.6.25 10.05 6.08-.57.08 3.06-6.09.57.27 11.33 6.36-.59-.18-7.31 3.48-.33.26 10.59-15.17 1.42-.08-3.31 1.59-.15-.6-24.45-1.58.15-.08-3.27 15.17-1.43.22 9.3zM123.15 19.78h8.06c3.72 0 7.19.87 7.34 6.85l.07 2.87c.09 3.63-1.34 5.22-3.31 5.92 2.05.72 3.51 2.36 3.6 6.08l.12 5.14c0 .71.2.89.91.89h.71l.08 3.28h-2.88c-1.82 0-2.5-.81-2.55-3l-.14-5.81c-.1-3.76-1.1-4.92-4.64-4.93h-1.6l.26 10.5h1.55l.08 3.28h-6.91l-.08-3.28h1.59l-.59-24.44h-1.59zm8 14c2.84 0 3.75-.82 3.68-3.66l-.08-3.32c-.07-2.79-1-3.68-3.86-3.69h-2.35l.26 10.67zM140.39 19.92l8 .74c3.71.34 7 1.48 7.14 7.46l.05 2.3c.09 3.59-1.07 5-3 5.56 2 .84 3.36 2.56 3.45 6.1l.08 3.33c.15 6-3.27 6.59-7 6.24l-8-.74-.08-3.27 1.58.14-.59-24.44-1.59-.15zm8 13.9c2.82.26 3.73-.54 3.66-3.33l-.05-2.57c-.07-2.79-1-3.76-3.84-4l-2.34-.21.24 9.91zm-2.26 3l.27 11.29 2.34.21c2.82.27 3.73-.58 3.66-3.41l-.09-3.86c-.07-2.79-1-3.76-3.84-4zM157.63 28.63c-.13-5.27 2.35-7.08 6.66-6.31s6.9 3.48 7 8.75l.44 16.93c.13 5.27-2.3 7.08-6.66 6.3s-6.9-3.47-7-8.74zM165 51c2.22.4 3.11-.68 3-3.16l-.44-17.89c-.06-2.48-1-3.88-3.23-4.28s-3.11.68-3.05 3.16l.44 17.89c.1 2.45 1.09 3.86 3.28 4.28zM173.47 55.34l-.08-3.27 1.54.41-.59-24.48-1.54-.42-.08-3.27 6.85 1.83.08 3.28L178 29l.59 24.45 6.16 1.65-.17-6.1 3.38.91.23 9.43z" fill="#fff"/><path d="M189.39 56.55l1.63.57-.59-24.45-3-1 .15 6.16-2.85-1-.23-9.44 15.24 5.27.23 9.43-2.85-1-.12-6.15-3-1 .59 24.44 1.68.58.08 3.28-6.87-2.37zM35.82 40.5l1.38-.93V16.11l-2.5 1.69v5.91l-2.39 1.62v-9l12.8-8.73v9l-2.39 1.62v-5.86l-2.53 1.72v23.46l1.4-.95v3.14l-5.77 3.92zM50.18 17.93V31.1l1.16-.78v2.8l-5 3.41v-2.8l1.2-.81V8.78l-1.2.81V6.78l3.87-2.62v10.11A9.89 9.89 0 0 1 53.77 9c2.14-1.45 3.76-1.19 3.76 3.4v13.72l1.2-.81v2.8l-5 3.41v-2.8l1.19-.81V14.35c0-2.59-.74-2.82-2.11-1.89a7.3 7.3 0 0 0-2.63 5.47zM63 15.11v4.42c0 2.21.67 2.9 2.36 1.76a5.44 5.44 0 0 0 2.35-5v-1.74l2.5-1.7v1.41c0 4.54-1.79 7.76-5 9.91s-4.9 1.34-4.9-3.17v-9.9c0-4.55 1.79-7.76 4.92-9.89s5-1.36 5 3.19v5.82zm0-2.72l4.71-3.2V5.71C67.69 3.5 67 2.8 65.34 4A5.42 5.42 0 0 0 63 8.9zM11.86 154l2.27-.62-.61-3.5-7.11 2-.61 3.83 2.32-.71v3.88L0 161.12v-3.88l2-.54 5.45-34.27 5.4-1.49 5.65 31.21 2-.54v3.87l-8.58 2.37zM7 147.88l5.91-1.63-1.36-8.05c-.55-3.2-1.1-7.29-1.55-12.29-.45 5.25-1.06 9.71-1.61 13.16zM21.57 118.12l8.18-4.12c3.93-2 7.86-2.43 7.86 4.58v19.58c0 7-3.93 10.51-7.86 12.48l-8.18 4.11v-3.87l1.68-.85v-28.88l-1.68.84zm5.66 1v28.9l2.24-1.13c3-1.51 4.17-3.35 4.17-6.65v-19.76c0-3.29-1.17-4-4.17-2.46zM56.21 101.38l-1.64 1.13-4.71 36-4.49 3.07L40.71 112 39 113.17v-3.88l7.21-4.94v3.87l-1.81 1.25 2.16 13.7c.43 2.79.86 6.21 1.25 10.5.39-4.82.78-8.81 1.21-12.19l2.16-16.66-1.81 1.24v-3.87l6.82-4.68zM67.93 98.93v-7.12L62 96.45v11.88l5.69-4.45v3.62L62 111.94v13.4l5.94-4.64v-8.63l3.26-2.55V122L57 133.11v-3.87l1.49-1.16v-28.9L57 100.34v-3.87l14.2-11.08v11zM77.65 86.32c.13 2.54.26 6.17.26 8.47v18.53l1.58-1v3.87l-6.32 4.1v-3.89l1.58-1V86.48l-1.58 1v-3.85l6.54-4.25 4.66 16.3c.52 2.07 1.18 5.15 1.75 7.39-.13-2.53-.31-6.13-.31-8.23V79.3l-1.53 1v-3.88l6.28-4.07v3.87l-1.58 1V110l-4.18 2.71-5.44-19c-.97-3.47-1.19-5.11-1.71-7.39zM97.14 102.37l1.92-.69v-28.9L95.56 74v7.28l-3.35 1.2V71.36l18-6.41V76.1l-3.36 1.2V70l-3.55 1.27v28.89l2-.7v3.87l-8.09 2.89zM118.16 93.19c0 2.82 1.1 4.08 3.76 3.82s3.75-1.72 3.75-4.54V67.24l-1.88.18v-3.88l7.87-.75v3.87l-1.88.18V91.7c0 5.92-2.91 8.77-8 9.26s-8-1.8-8-7.71V68.38l-1.87.18v-3.87l8.13-.78v3.87l-1.83.18zM133.46 63l9.52.39c4.39.18 8.47 1.35 8.47 8.41v3.41c0 4.29-1.72 6.1-4.08 6.84 2.41.94 4.08 3 4.08 7.34v6.08c0 .83.21 1 1.05 1.09h.84v3.87l-3.4-.14c-2.15-.09-2.93-1.06-2.93-3.68v-6.93c0-4.45-1.15-5.86-5.34-6l-1.88-.08V96l1.83.07v3.88l-8.16-.34v-3.89l1.88.08V66.9l-1.88-.08zm9.1 16.86c3.35.14 4.44-.86 4.44-4.21v-3.92c0-3.3-1.1-4.39-4.45-4.53l-2.77-.12V79.7zM168.66 76.41v-7.12l-7.5-.78V80.4l7.18.74v3.61l-7.18-.75v13.4l7.5.77v-8.62l4.11.42v12.51l-17.91-1.85v-3.87l1.87.19V68.06l-1.87-.2V64l17.91 1.85v11zM100 144.83l1.49-.52v-11.14l-6 2.09v11.14l1.45-.51v3.25l-6.46 2.26v-3.24l1.49-.52v-24.21l-1.49.52v-3.24l6.52-2.27v3.25l-1.45.51v9.8l6-2.1v-9.8l-1.49.53v-3.25l6.49-2.28v3.24l-1.49.53v24.2l1.49-.52v3.24l-6.55 2.29zM108.81 121.59c0-5.22 2.5-8 6.75-8.82s6.75.88 6.75 6.1v16.75c0 5.22-2.45 7.95-6.75 8.81s-6.75-.88-6.75-6.09zm6.75 19.55c2.19-.44 3.1-1.85 3.1-4.3v-17.72c0-2.45-.91-3.5-3.1-3.06s-3.09 1.85-3.09 4.31v17.71c0 2.46.94 3.5 3.09 3.06zM129.82 135.48c0 2.36.91 3.43 3.14 3.25s3.15-1.39 3.15-3.76v-21.13l-1.57.12v-3.24l6.59-.53v3.24l-1.57.13v20.83c0 5-2.45 7.3-6.73 7.64s-6.73-1.61-6.73-6.56v-20.83l-1.57.12v-3.24l6.81-.55v3.25l-1.52.12zM142.64 110.18l8 .25c3.68.12 7.1 1.07 7.1 7v2.85c0 3.59-1.44 5.12-3.42 5.76 2 .77 3.42 2.44 3.42 6.12v5.09c0 .7.18.88.88.9h.7v3.25l-2.85-.09c-1.8-.06-2.45-.87-2.45-3.06v-5.79c0-3.73-1-4.9-4.47-5h-1.58v10.34h1.53v3.24l-6.83-.22v-3.24l1.57.05v-24.16h-1.57zm7.62 14.06c2.81.09 3.73-.72 3.73-3.52v-3.29c0-2.77-.92-3.67-3.73-3.76l-2.32-.08v10.57z" fill="#fff"/></svg>