<svg xmlns="http://www.w3.org/2000/svg" viewBox="0 0 260 121"><path d="M28.35 11.4a8.787 8.787 0 0 0-3.19-2.43c-1.26-.56-2.72-.85-4.37-.85s-3.19.32-4.6.96c-1.41.64-2.63 1.53-3.67 2.68-1.03 1.15-1.84 2.51-2.43 4.09-.58 1.58-.87 3.29-.87 5.13s.29 3.6.87 5.16c.58 1.56 1.38 2.92 2.4 4.06 1.02 1.15 2.21 2.04 3.58 2.68 1.37.64 2.85.96 4.43.96 1.81 0 3.4-.38 4.79-1.13 1.39-.75 2.54-1.81 3.44-3.16l7.33 5.47c-1.69 2.37-3.84 4.12-6.43 5.25-2.6 1.13-5.27 1.69-8.01 1.69-3.12 0-6-.49-8.63-1.47-2.63-.98-4.91-2.38-6.83-4.2-1.92-1.82-3.41-4.03-4.49-6.63C.62 27.08.08 24.19.08 20.99s.54-6.09 1.61-8.69c1.07-2.6 2.57-4.8 4.49-6.63 1.92-1.82 4.19-3.22 6.83-4.2C15.64.49 18.52 0 21.64 0c1.13 0 2.3.1 3.53.31 1.22.21 2.43.54 3.61.99s2.32 1.05 3.41 1.81c1.09.75 2.07 1.67 2.93 2.76l-6.77 5.53zM74.55 25.56c0 2.37-.36 4.55-1.07 6.54-.71 1.99-1.78 3.72-3.19 5.19-1.41 1.47-3.17 2.61-5.28 3.44-2.11.83-4.53 1.24-7.28 1.24s-5.23-.41-7.33-1.24c-2.11-.83-3.86-1.97-5.28-3.44-1.41-1.47-2.47-3.2-3.19-5.19-.71-1.99-1.07-4.17-1.07-6.54V1.02h8.8v24.2c0 1.24.2 2.39.59 3.44.39 1.05.95 1.97 1.66 2.74.71.77 1.57 1.37 2.57 1.81 1 .43 2.08.65 3.24.65s2.24-.22 3.22-.65a7.52 7.52 0 0 0 2.54-1.81c.71-.77 1.27-1.68 1.66-2.74.39-1.05.59-2.2.59-3.44V1.02h8.8v24.54zM82.68 1.02h13.2c3.2 0 6.23.36 9.11 1.07 2.88.71 5.39 1.87 7.53 3.47 2.14 1.6 3.85 3.68 5.11 6.23 1.26 2.56 1.89 5.66 1.89 9.31 0 3.24-.61 6.08-1.83 8.55-1.22 2.46-2.87 4.53-4.94 6.21-2.07 1.67-4.46 2.94-7.17 3.81-2.71.87-5.55 1.3-8.52 1.3H82.67V1.02zm8.8 31.82h4.57c2.03 0 3.92-.21 5.67-.62 1.75-.41 3.26-1.1 4.54-2.06 1.28-.96 2.28-2.22 3.02-3.78.73-1.56 1.1-3.47 1.1-5.73 0-1.96-.37-3.66-1.1-5.11a10.15 10.15 0 0 0-2.96-3.58c-1.24-.94-2.7-1.64-4.37-2.12-1.67-.47-3.43-.71-5.28-.71h-5.19v23.7zM125.5 1.02h13.2c3.2 0 6.23.36 9.11 1.07 2.88.71 5.39 1.87 7.53 3.47 2.14 1.6 3.85 3.68 5.11 6.23 1.26 2.56 1.89 5.66 1.89 9.31 0 3.24-.61 6.08-1.83 8.55-1.22 2.46-2.87 4.53-4.94 6.21-2.07 1.67-4.46 2.94-7.17 3.81-2.71.87-5.55 1.3-8.52 1.3h-14.39V1.02zm8.8 31.82h4.57c2.03 0 3.92-.21 5.67-.62 1.75-.41 3.26-1.1 4.54-2.06 1.28-.96 2.28-2.22 3.02-3.78.73-1.56 1.1-3.47 1.1-5.73 0-1.96-.37-3.66-1.1-5.11a10.15 10.15 0 0 0-2.96-3.58c-1.24-.94-2.7-1.64-4.37-2.12-1.67-.47-3.43-.71-5.28-.71h-5.19v23.7zM168.66 1.02h8.8v31.82h16.3v8.12h-25.11V1.02zM198.96 1.02h27.14v8.12h-18.34v7.45h17.32v8.12h-17.32v8.12h19.35v8.12h-28.15V1.02zM253.91 10.78c-.72-.9-1.68-1.57-2.91-2-1.22-.43-2.38-.65-3.47-.65-.64 0-1.3.08-1.97.23-.68.15-1.32.39-1.92.71-.6.32-1.09.74-1.47 1.27-.38.53-.56 1.17-.56 1.92 0 1.2.45 2.13 1.35 2.76.9.64 2.04 1.18 3.41 1.64 1.37.45 2.85.9 4.43 1.35s3.06 1.09 4.43 1.92c1.37.83 2.51 1.94 3.41 3.33.9 1.39 1.35 3.25 1.35 5.59s-.41 4.16-1.24 5.81c-.83 1.66-1.95 3.03-3.36 4.12-1.41 1.09-3.05 1.9-4.91 2.43-1.86.53-3.83.79-5.9.79-2.6 0-5-.39-7.22-1.18-2.22-.79-4.29-2.07-6.21-3.84l6.26-6.88c.9 1.2 2.04 2.14 3.41 2.79 1.37.66 2.79.99 4.26.99.71 0 1.44-.08 2.17-.25.73-.17 1.39-.42 1.97-.76.58-.34 1.05-.77 1.41-1.3.36-.53.54-1.15.54-1.86 0-1.2-.46-2.15-1.38-2.85-.92-.7-2.08-1.29-3.47-1.78-1.39-.49-2.9-.98-4.51-1.47-1.62-.49-3.12-1.15-4.51-1.97-1.39-.83-2.55-1.92-3.47-3.27-.92-1.35-1.38-3.14-1.38-5.36s.42-4.02 1.27-5.64c.85-1.62 1.97-2.97 3.38-4.06 1.41-1.09 3.04-1.91 4.88-2.45 1.84-.54 3.74-.82 5.7-.82 2.26 0 4.44.32 6.54.96 2.11.64 4.01 1.71 5.7 3.22l-6.04 6.6zM10.98 64.85c-.35-.44-.81-.76-1.4-.97a5 5 0 0 0-1.68-.31c-.31 0-.63.04-.95.11-.33.07-.64.19-.93.34-.29.15-.53.36-.71.61-.18.25-.27.56-.27.93 0 .58.22 1.03.65 1.33.44.31.98.57 1.65.79.66.22 1.38.44 2.14.65s1.48.53 2.14.93c.66.4 1.21.94 1.65 1.61.44.67.65 1.57.65 2.7s-.2 2.01-.6 2.81c-.4.8-.94 1.46-1.62 1.99-.68.53-1.47.92-2.37 1.17-.9.25-1.85.38-2.85.38-1.25 0-2.42-.19-3.49-.57-1.07-.38-2.07-1-3-1.85l3.02-3.32c.44.58.99 1.03 1.65 1.35a4.677 4.677 0 0 0 3.11.36c.35-.08.67-.2.95-.37.28-.16.51-.37.68-.63.17-.25.26-.55.26-.9 0-.58-.22-1.04-.67-1.38-.45-.34-1-.62-1.68-.86-.67-.24-1.4-.47-2.18-.71-.78-.24-1.51-.55-2.18-.95a5.39 5.39 0 0 1-1.68-1.58C.82 67.86.6 66.99.6 65.92s.2-1.94.61-2.72c.41-.78.95-1.43 1.63-1.96.68-.53 1.47-.92 2.36-1.19.89-.26 1.81-.4 2.75-.4 1.09 0 2.14.15 3.16.46 1.02.31 1.93.83 2.75 1.55l-2.91 3.19zM23.43 60.14h3.51l8.39 19.29h-4.79l-1.66-4.09h-7.49l-1.61 4.09h-4.69l8.34-19.29zm1.63 5.61l-2.34 5.99h4.71l-2.37-5.99zM33.67 60.14h4.85l4.77 12.64h.05l4.85-12.64h4.55l-7.95 19.29h-3.41l-7.71-19.29zM54.92 60.14h13.1v3.92h-8.85v3.6h8.36v3.92h-8.36v3.92h9.34v3.92H54.92V60.13zM81.46 64.85c-.35-.44-.81-.76-1.4-.97a5 5 0 0 0-1.68-.31c-.31 0-.63.04-.95.11-.33.07-.64.19-.93.34-.29.15-.53.36-.71.61-.18.25-.27.56-.27.93 0 .58.22 1.03.65 1.33.44.31.98.57 1.65.79.66.22 1.38.44 2.14.65s1.48.53 2.14.93c.66.4 1.21.94 1.65 1.61.44.67.65 1.57.65 2.7s-.2 2.01-.6 2.81c-.4.8-.94 1.46-1.62 1.99-.68.53-1.47.92-2.37 1.17-.9.25-1.85.38-2.85.38-1.25 0-2.42-.19-3.49-.57-1.07-.38-2.07-1-3-1.85l3.02-3.32c.44.58.99 1.03 1.65 1.35a4.677 4.677 0 0 0 3.11.36c.35-.08.67-.2.95-.37.28-.16.51-.37.68-.63.17-.25.26-.55.26-.9 0-.58-.22-1.04-.67-1.38-.45-.34-1-.62-1.68-.86-.67-.24-1.4-.47-2.18-.71-.78-.24-1.51-.55-2.18-.95a5.39 5.39 0 0 1-1.68-1.58c-.45-.65-.67-1.52-.67-2.59s.2-1.94.61-2.72c.41-.78.95-1.43 1.63-1.96.68-.53 1.47-.92 2.36-1.19.89-.26 1.81-.4 2.75-.4 1.09 0 2.14.15 3.16.46 1.02.31 1.93.83 2.75 1.55l-2.91 3.19zM99.35 63.9h-5.5v-3.76h15.26v3.76h-5.5v15.53h-4.25V63.9zM111.26 60.14h4.25v7.19h8.25v-7.19h4.25v19.29h-4.25v-8.34h-8.25v8.34h-4.25V60.14zM132.1 60.14h13.1v3.92h-8.85v3.6h8.36v3.92h-8.36v3.92h9.34v3.92H132.1V60.13zM157.32 60.14h12.94v3.92h-8.69v3.92h8.04v3.92h-8.04v7.52h-4.25V60.13zM172.28 69.78c0-1.54.26-2.94.78-4.2.52-1.25 1.24-2.32 2.17-3.2.93-.88 2.02-1.56 3.3-2.03 1.27-.47 2.66-.71 4.17-.71s2.9.24 4.17.71 2.37 1.15 3.3 2.03c.93.88 1.65 1.95 2.17 3.2.52 1.25.78 2.65.78 4.2s-.26 2.94-.78 4.2c-.52 1.25-1.24 2.32-2.17 3.2-.93.88-2.03 1.56-3.3 2.03-1.27.47-2.66.71-4.17.71s-2.9-.24-4.17-.71a9.585 9.585 0 0 1-3.3-2.03c-.93-.88-1.65-1.95-2.17-3.2-.52-1.25-.78-2.65-.78-4.2zm4.41 0c0 .91.14 1.74.42 2.49.28.75.69 1.41 1.21 1.96.53.55 1.16.99 1.89 1.29.74.31 1.56.46 2.47.46s1.73-.15 2.47-.46c.74-.31 1.37-.74 1.89-1.29.53-.55.93-1.21 1.21-1.96.28-.75.42-1.58.42-2.49s-.14-1.72-.42-2.48c-.28-.76-.69-1.42-1.21-1.98-.53-.55-1.16-.99-1.89-1.29-.74-.31-1.56-.46-2.47-.46s-1.73.15-2.47.46a5.475 5.475 0 0 0-3.1 3.27c-.28.76-.42 1.59-.42 2.48zM195.98 60.14h7.46c.98 0 1.91.1 2.79.29.88.19 1.65.51 2.32.95.66.45 1.19 1.04 1.58 1.8.39.75.59 1.69.59 2.82 0 1.36-.35 2.52-1.06 3.47s-1.74 1.56-3.11 1.81l4.9 8.15h-5.09l-4.03-7.71h-2.1v7.71h-4.25V60.14zm4.25 7.98h2.51c.38 0 .79-.01 1.21-.04.43-.03.81-.11 1.16-.25.34-.14.63-.35.86-.64.23-.29.34-.7.34-1.23 0-.49-.1-.88-.3-1.17-.2-.29-.45-.51-.76-.67-.31-.15-.66-.26-1.06-.31s-.79-.08-1.17-.08h-2.78v4.39zM213.8 60.14h13.1v3.92h-8.85v3.6h8.36v3.92h-8.36v3.92h9.34v3.92H213.8V60.13zM240.33 64.85c-.35-.44-.81-.76-1.4-.97a5 5 0 0 0-1.68-.31c-.31 0-.63.04-.95.11-.33.07-.64.19-.93.34-.29.15-.53.36-.71.61-.18.25-.27.56-.27.93 0 .58.22 1.03.65 1.33.44.31.98.57 1.65.79.66.22 1.38.44 2.14.65s1.48.53 2.14.93c.66.4 1.21.94 1.65 1.61.44.67.65 1.57.65 2.7s-.2 2.01-.6 2.81c-.4.8-.94 1.46-1.62 1.99-.68.53-1.47.92-2.37 1.17-.9.25-1.85.38-2.85.38-1.25 0-2.42-.19-3.49-.57-1.07-.38-2.07-1-3-1.85l3.02-3.32c.44.58.99 1.03 1.65 1.35a4.677 4.677 0 0 0 3.11.36c.35-.08.67-.2.95-.37.28-.16.51-.37.68-.63.17-.25.26-.55.26-.9 0-.58-.22-1.04-.67-1.38-.45-.34-1-.62-1.68-.86-.67-.24-1.4-.47-2.18-.71-.78-.24-1.51-.55-2.18-.95a5.39 5.39 0 0 1-1.68-1.58c-.45-.65-.67-1.52-.67-2.59s.2-1.94.61-2.72c.41-.78.95-1.43 1.63-1.96.68-.53 1.47-.92 2.36-1.19.89-.26 1.81-.4 2.75-.4 1.09 0 2.14.15 3.16.46 1.02.31 1.93.83 2.75 1.55l-2.91 3.19zM250.17 63.9h-5.5v-3.76h15.26v3.76h-5.5v15.53h-4.25V63.9zM143.15 100.21v-4.25h-26.38v4.25h3v15.85h-3v4.25h26.38v-4.25h-3v-15.85h3zm-19.13 0h3.81v15.85h-3.81v-15.85zm11.88 15.86h-3.81v-15.85h3.81v15.85z" fill="#fff"/></svg>