<svg xmlns="http://www.w3.org/2000/svg" viewBox="0 0 200 127"><path d="M101.52 17.82c-.09.12.76.55.87.66.95.96.29 2.89.92 3.34 1.14.82.81-1.15 1.02-1.33.88-.28 1.2.96 1.18 1.63-.06 1.47-.81 2.49-2.32 2.63-1.34.12-2.41-.02-3.2-1.21-.97-1.47.12-3.43-1.34-4.66-.78 0 0 2.86.13 3.33.09.36.61 1.31.41 1.6-.42.31-.81-.21-1.34-.27-.62-.08-3.53.17-3.74-.12-.12-.41.32-.84.5-1.25.25-.6.6-1.45.74-2.06.52-2.35 0-5.31-.53-7.66-.13-.57-1.06-2.21-.85-2.51s1.21 0 1.6.02c2 .06 4.92-.58 6.67.4.62.35 2.23 1.92 2.32 2.61.3 2.16-.66 4.64-3.05 4.86zm-3.2-4.87c-.17.99.13 2.42 0 3.47 1.64.95 3.2-2.15 2.27-3.34-.55-.69-2.04-1.48-2.27-.13zM139.05 10.21c.26-.03 1.05-.27 1.37-.36.66-.18 1.72-1.08 1.88.03.24 1.71.33 3.69 1.68 5 .98.94.48-1.22.46-1.66-.02-.68.09-1.5 0-2.14s-.59-.91-.54-1.53c1.27.11 2.53.17 3.81.14.44-.01 1.22-.38 1.27.2.03.32-.84 1.78-1.01 2.33-1.07 3.43-1.24 9.7-3.86 12.41-1.42 1.46-5.71 1.77-6.98-.09-.3-.44-1.02-2.16-1.08-2.66-.16-1.21.85-3.05 2.19-3.1.51-.02 1.09-.03 1.6-.04 1.68 0 2.8 2.62 1.41 3.55-.63.42-2.47.35-2.75-.6-.22-.17.18-1.22-.13-1.21-.34.02-.39 1.72.37 2.16 1.39.81 3.34-.21 3.97-1.55 1.42-3.04-2.15-7.45-4.34-9.42-.26-.23-1.42-.98-1.47-1.06-.14-.22 0-.28.14-.4.64-.05 1.38.07 2 0zM51.41 10.18c-.1-.17-.01-.44-.03-.64.38-.08.77.13 1.12.12 2.56-.03 5.74-.63 8.07.89.81.53 1.51 2.8 1.59 3.74.63 6.73-3.57 9.9-10.05 9.12-.59-.07-1.26-.26-1.07-.94.43-1.5 1.8-2.63 1.94-4.46s.13-5.19-.75-6.86c-.22-.41-.74-.84-.82-.98zm4.84 2.84c-.13.11-.23.2-.3.37-.35.9-.24 6.17.13 7.13.51 1.31 1.77-.36 1.99-1.13.51-1.72-.32-5.23-1.83-6.36zM121.25 35.89c.13 1.15.81 2.29 1.07 3.4-.55.12-1.15-.15-1.65-.13s-2.92.89-3.15.66c-.1-.57.37-.9.56-1.37 1.16-2.9 1.69-8.1.21-10.93-.16-.3-.98-.9-.05-.89.97 0 1.94.39 3.09.26.65-.07 2.16-.95 2.21.2.02.43-.19.9-.14 1.47.13 1.66 1.24 3.19 1.83 4.7l.3.17c-.04-.95.05-1.92 0-2.87-.07-1.4-.43-2.37-.65-3.63-.16-.92.71-.44 1.24-.43.4.01 3.25-.14 3.28.07-.52 1.37-1.27 2.42-1.57 3.9-.71 3.49-.2 5.79-.03 9.16.03.49.11 1.17-.54.95-.24-.08-2.35-2.03-2.6-2.34l-3.07-4.8-.33.2c.06.73-.08 1.56 0 2.27zM66.05 33.82c-.32.63-.79 1.17-.81 1.94s.98 2.68.75 3c-.6.37-1.54-.03-2.11.02-.77.07-1.89.49-2.73.6-.23.03-.46.06-.7.04-.15-.72.42-.91.74-1.46 1.08-1.87 1.56-5.92 1.23-8.04-.09-.57-1.25-2.7-1.11-2.9s1.82.03 2.27 0c.98-.06 1.83-.44 2.73-.61 1.32-.25-.15 1.69-.34 2.07-.49 1.02-.68 1.57-.59 2.74.01.2-.1.39.2.33.93-1.27 1.94-3.28 1.94-4.87 0-.29-.26-.77-.01-.94 1.69.15 3.34.61 5.08.54.15.13.16.16.07.34-.19.37-1.4 1.04-1.8 1.4-.48.42-2.18 2.04-2.26 2.54-.27 1.71.33 1.94.91 3.21.73 1.61 1.22 3.48 2.75 4.58.63.45 2.01.63.36 1.43-2.88 1.4-5.52-1.38-6-4.06-.11-.6.19-1.75-.56-1.9zM106.98 19.42c.39-.38 1.81 1.56 2.2 1.86.99.77 2.04 1.32 2.92.13 1.67-2.27-1.85-3.4-3.22-4.36s-2.82-2.77-2.4-4.6c.19-.85 1.46-2.4 2.25-2.82 2.04-1.1 3.52-.18 5.64-.09.34.01.67-.36 1.01.1.1.14.05 3.07 0 3.45-.03.3-.09.65-.33.86-.28.02-2.81-2.5-3.64-2.64-.96-.16-1.85.98-1.29 1.97 1 1.77 5.89 2.05 6.2 5.14.33 3.31-1.96 5.51-5.14 5.81-1.32.12-2.6-.69-3.87 0l-.33-.2v-4.6zM134.02 25.59c1.06-.12 2.11.27 3.16.36.38.03 1.57-.11 1.74.13l-.06 4.09c-.19.12-.35.07-.54-.01-.63-.29-1.71-1.54-2.44-1.96-1.95-1.13-3.22.83-1.69 2.09 1.87 1.55 5.35 1.42 5.71 4.69.41 3.68-2.44 5.47-5.79 5.52-.68.01-1.39-.27-2-.27-.43 0-.86.25-1.31.12-.23-.07-.2-.26-.23-.44-.09-.8-.09-2.94 0-3.75.15-1.28.87.17 1.07.41.6.7 2.07 2.06 3.04 1.85 1.09-.24 1.58-1.14 1.34-2.22-.3-1.32-2.98-2.26-4.02-3.05-.98-.75-2.27-2.71-2.04-3.98.32-1.73 2.32-3.37 4.05-3.56zM91.48 12.72l-.3.12c-.4-.26-.8-.54-1.27-.68-.3-.09-1.71-.42-1.97-.44-.2-.01-.43.02-.57.17-.3.32-.71 2.94-.47 3.28.2.28 1.42-.06 1.7-.18 1.11-.46 1.52-1.5 1.45.78-.01.39-.14 1.91-.33 2.07l-.25.1c-.51-.3-2.33-.99-2.69-.38-.08.98.29 2.07.4 3.08.03.19.14.3.33.34.56.12 2.88-.76 3.46-1.09.39-.22.77-.83 1.09-.39l.06 3.95c-.29.41-3.22-.24-3.87-.28-1.12-.07-2.61-.05-3.74 0-.65.03-1.31.39-1.92.13-.17-.24.48-1.23.59-1.59.72-2.26.62-6.89.17-9.24-.17-.86-.76-1.68-.71-2.51.18-.25 3.88-.09 4.54-.13.99-.05 2.48-.16 3.46-.27.35-.04 1.14-.67 1.21.2.03.37-.2 2.79-.37 2.97zM115.65 25.82c-.06.51-.09 3.37-.47 3.47-.44 0-.59-.41-.99-.6-.56-.26-2.29-.63-2.85-.44-.49.17-.66 2.89-.62 3.45.66.08 1.23-.14 1.83-.38.29-.12 1.04-.85 1.31-.43l-.13 3.34c-.23.35-.8-.16-1.11-.24-.42-.11-1.77-.4-2.03-.1-.13.11-.13.25-.14.4-.01.21.38 2.25.48 2.47.11.26.31.53.59.61s2.17-.52 2.54-.68c.7-.29 1.15-.81 1.87-1l.11 4.11c-.18.09-.36.15-.56.14-1.61-.03-3.44-.46-5.08-.53-1.33-.05-2.5.1-3.81.27-.17-.17.67-2.45.76-2.9.47-2.23.27-5.94-.29-8.17-.19-.75-.66-1.53-.68-2.27.2-.27 5.07-.08 5.88-.13.46-.03 3.26-.54 3.4-.4zM82.04 9.28c.35.26-.61 1.46-.78 1.81-1.33 2.79-2.93 6.22-3.08 9.32-.02.48.17 2.73.07 2.87-.23.32-1.63-.26-2.14-.28-.81-.04-1.55.28-2.35.08-.24-.17-.09-1.24-.13-1.61-.24-2.44-1.56-7.39-2.77-9.5-.32-.56-1.21-.9-.81-1.62 1.32.08 2.57.22 3.88-.05.3-.06 1.01-.59 1.24-.24.31.48-.2 1.66-.2 2.21-.01 1.14.43 3.05.76 4.17.16.53.57 2.38.99 1.19.47-1.34 1.25-4.96 1.04-6.28-.09-.54-.63-.95-.53-1.54 1.68.12 3.18-.1 4.8-.53zM88.59 28.09c-.02.25-.12.48-.14.73-.14 1.59.28 7.07.87 8.47.33.79 1.2 1.32 1.26 2.18-.18.62-1.8-.23-2.2-.31-.64-.12-1.99-.18-2.66-.14-.38.02-1.73.51-1.77-.07-.01-.13 1.01-1.76 1.14-2.3.36-1.52.54-6.58.26-8.07-.22-1.17-1.45-.37-2.09.11-.39.29-1.32 1.72-1.54.71-.07-.3-.24-3.34-.19-3.5l.2-.2c.76-.12 1.5.21 2.24.25 1.61.09 4.01.12 5.61 0 .84-.06 1.66-.4 2.51-.39.17.05.19.17.22.32.16.88.15 2.59 0 3.47-.03.15-.07.25-.2.33l-3.1-1.57-.43-.02zM104.71 29.67c-.18.06-.35 0-.52-.06-.72-.3-1.79-1.12-2.54-1.33a1.7 1.7 0 0 0-.67-.06c.09.57-.13 1.11-.14 1.66-.02 2.6 0 6.01 1.37 8.25.21.35 1.14 1.19.89 1.55-.62.39-1.06-.13-1.55-.22-.58-.1-2.16-.41-2.65-.42-.71-.01-1.65.46-2.45.25.13-.76.64-1.35.87-2.13.81-2.73.34-5.78.46-8.6-.2-1.07-2.06.16-2.52.54-.33.27-1.18 1.56-1.18.13 0-1.11-.08-1.75-.15-2.82-.08-1.19 1.69-.37 2.45-.31 1.47.11 3.85.07 5.34 0 .93-.04 1.95-.44 2.9-.39.56.33.22.8.22 1.24s.1 2.57-.14 2.73zM124.32 9.88c.03-.1.21-.21.33-.2.78.04 1.67.34 2.4.4 1.25.11 3.17.23 4.4.14 1.13-.08 2.41-.69 3.47-.41.36.36.33 3.76-.28 3.87-.62-.38-2.77-1.71-3.39-1.4-.16.08-.23.24-.26.41-.15.78-.06 3.11 0 4 .06 1.11.36 3.29.78 4.29.25.59 1.57 2.06 1.61 2.53.02.21-.21.34-.38.38-.42.11-2.7-.67-3.4-.74-1.04-.11-1.85.34-2.87.27.02-.6.52-1.03.73-1.6.4-1.07.63-3.03.73-4.2.16-1.84.03-3.7-.27-5.53-1.3-.1-2.28 1.03-3.13 1.86-.06 0-.47-.53-.47-.6 0-.69-.14-3.01 0-3.47zM122.72 24.08c-.91-.07-1.49-.44-2.47-.41-.62.02-2.82.9-2.97.05-.02-.13.64-1.4.74-1.75.76-2.66.59-6.88-.11-9.56-.11-.44-.99-2.15-.44-2.33 1.45.2 2.9.15 4.35-.04.32-.04.57-.39.76-.02.13.51-.81 1.97-.99 2.59-.73 2.44-.27 6.87.37 9.37.1.38.95 1.92.76 2.1zM74.71 39.82c-.16-.78.45-1.43.63-2.1.7-2.55.56-6.95-.16-9.5-.12-.41-.87-1.91-.72-2.12.25-.35.89.09 1.13.11 1.44.13 2.84-.09 4.24-.38l.21.31c-.37.63-.89 1.54-1.12 2.22-.64 1.91-.35 6.8.1 8.83.19.87.71 1.74 1.03 2.56-.09.43-1.32-.14-1.68-.18-1.34-.16-2.34.37-3.65.25zM68.85 23.68c-1.01-.09-1.81-.35-2.87-.27-.55.04-2.44.65-2.57-.08-.03-.16.46-.97.55-1.28 1.04-3.37.97-7.47-.21-10.8-.14-.4-.86-1.27-.41-1.42s2.17.16 2.91.11c.37-.02 1.05-.11 1.41-.19.22-.05 1.21-.71 1.32-.14.03.13-1.02 1.99-1.16 2.43-.75 2.38-.76 7.44.21 9.73.26.62.89 1.17.83 1.91zM97.55 4.25c-.47.92.14 1.66.04 2.51-3.16.54-2.03-.41-1.63-2.3.08-.38.23-1.01.23-1.38 0-.99-.58-1.68-.68-2.6.51.15 2.02-.28 2.28.06.31.78-.65 1.63-.27 2.46.29.06 1.07-.05 1.17-.34.3-.53-.51-2.12-.12-2.39.26-.18 1.71.17 2.15.14.34.23-.15.8-.24 1.11-.23.84-.53 2.01-.4 2.87.07.49.81 1.93.58 2.24s-.89 0-1.21 0c-.29-.01-1.1.39-1.1-.3 0-.82 1.29-2.82-.8-2.06zM106.15.11c.26.18.05 1.23-.1 1.51l-1.78-.32c-.38.13-.48 1.18-.3 1.45.3.43.96-.31 1.28-.08.41 1.32.05 1.72-1.25 1.4-.37.09-.06 1.57.13 1.61.88.18 1.5-.55 2.3-.53.55 2.71-.39 1.84-2.05 1.72-.51-.04-2.11.19-2.34.07-.59-.29.08-1.11.14-1.6.09-.71.07-2.34 0-3.08s-.52-1.26-.35-1.94c.17-.24 1.85-.1 2.27-.13.54-.04 1.55-.46 2.04-.1zM92.72 4.01c.03.3.28 1.3.39 1.61.18.5.63.82.54 1.39-.45.05-.86-.21-1.28-.25-.4-.04-1.43.08-1.66-.07-.33-.22.18-1.02.27-1.35.36-1.42.36-2.63 0-4.05-.4-.34-1.46 1.08-1.71.31-.1-.31-.08-1.52.33-1.63 1.08.17 2.22.16 3.32.13.41-.01 1.51-.33 1.74-.01.07.46.3 1.79-.48 1.69-.22-.03-1.46-.82-1.46-.28 0 .79-.08 1.78 0 2.53zM24.63 125.38c-.07.25-.6.58-.9.63-.9.17-6.01-.11-6.4-.76-.36-.61.76-7.24.96-8.52.82-5.19 1.15-8.9.7-14.14-.1-1.21-.34-4.2.84-4.8 1.05-.53 4.29-.97 5.38-.66 1.6.47 2.44 6.39 2.8 7.95.55 2.37 1.27 4.66 1.48 7.1.48.09.64-.22.82-.58 1.01-1.98 2.12-8.17 2.48-10.57.15-.98-.32-3.03.79-3.57.4-.19 6.19.41 6.36.68.04 1.21.09 2.46.03 3.67-.24 5.58-.34 9.73.83 15.31.33 1.56 1.83 5.24 1.76 6.46-.09 1.55-3.99 2.56-5.31 2.67-2.4.2-1.6-2.27-2.59-3.75l-.82-5.7c-.08.97-.62 2.06-.75 2.96-.35 2.49.68 5.52-2.57 6.14-4.22.8-3.69-1.87-4.17-5.07l-1.22-4.28c-.26-.11-.51.6-.51.64v8.19zM12.59 79.93c1.11-3.49 2.06-7.08 2.75-10.69.18-.93.15-3.37.6-4.01.6-.86 1.65-.18 2.42-.15 1 .04 3.46-.23 4.11.24 1.17.84-.03 3.22-.14 4.5-.42 4.64.18 9.97 1.14 14.47.47 2.22 1.23 4.65 1.89 6.84.1.38-.09.59-.32.85-.62.71-5.6 2.07-6.3 1.65-.46-.28-1.32-3.91-1.47-4.68-.12-.61-.04-4.1-.96-3.9-.66.14-.57 3.56-.67 4.2-.09.55-.49 2.97-.61 3.23-.45.96-3.7.96-4.56.71-1.31-.38-1.48-4.99-1.84-6.36-.2-.78-.39-1.96-1.16-2.29-.37 1.44.05 8.01-.58 8.64-.2.2-.57.26-.85.3-2.39-.79-6.6 1.16-5.99-2.91.27-1.8 1-4.09 1.25-5.92.62-4.59.51-9.23.52-13.8 0-1.04-.23-5.07.37-5.54.87-.68 5.47-1.13 6.31-.37l4.08 14.99zM99.64 108.09c.45.06.24-.58.25-.89.1-2.54-.28-5.04-.28-7.43 0-3.04 2.62-1.51 4.76-1.67 2.5-.19 3.51-1.46 3.2 2.43-.53 6.61-1.32 12.13-1.03 18.96.06 1.42 1.01 4.72.29 5.84-.23.36-4.4 1.32-5.09 1.4-1.05.12-1.16-.34-1.53-1.16-1.1-2.42-2.06-6.54-3.02-9.28-.15-.42-.26-1.47-.88-1.29.27 2.07-.29 4.3-.28 6.28 0 1.19.8 4.11-.1 5-.69.68-2.28.03-3.08 0-1.48-.05-3.06.23-4.44-.3-.09-.15-.09-2.75-.04-3.17.37-3.34 1.31-6.77 1.3-10.22l-.14-13.71c.33-.56 2.9-.77 3.68-.93 1.09-.22 2-1.11 3.11-.22l3.33 10.37zM174.14 107.07c.78-1.6-.3-7.6.49-8.6.51-.64 3.52-.32 4.52-.35.76-.02 1.77-.54 2.42-.14 1.07.65-.17 4.56-.26 5.63-.47 5.95.14 11.56.27 17.4.03 1.48.32 4.79-1.47 5.2-.61.14-3.25.57-3.8.58-1.9.02-1.51-1.83-1.97-3.14-.96-2.75-1.94-5.76-3.19-8.34-.17-.35.16-.71-.58-.56.04 2.86-.06 5.73-.01 8.59.01.93.63 2.31-.11 3.19-.51.61-1.43.02-2.05 0-1.44-.05-5.71.64-5.69-1.36l1.47-9.51c-.13-4.63.33-9.22 0-13.84-.07-.93-.88-1.86-.28-2.77.43-.65 4.41-.85 5.29-1.44 2.66-.55 2.83 3.84 3.3 5.63l1.67 3.83zM107.58 74.8v-8.96c1.13-.7 2.02-.17 2.94-.23.85-.06 4.38-.81 4.7.14.12 2.48-.57 4.95-.73 7.39-.13 2.04.23 4.12-.27 6.13l.47 13.28c-.67 1.24-2.23.79-3.35 1.01-1.03.2-2.02 1.14-3.01.32l-3.78-11.07-.82-.58v11.14s-.39.45-.52.51c-.47.22-4.93-.02-5.76-.12-3.03-.35-.93-3.86-.66-5.79.86-6.05.65-13.26.54-19.45 0-.57-.37-1.25-.23-1.73.27-.99 2.96-1.12 3.82-1.32s1.89-1.08 2.81-.53c.25.15 1.64 4.12 1.87 4.79.54 1.6.52 3.98 1.97 5.07zM76.85 118.08c.18-3.66-.23-7.51 0-11.15.1-1.7.6-3.47.77-5.11.14-1.33-.6-4.2 1.17-4.48 1.47.57 5.47-.33 6.21.95.67 1.16-.13 3.93-.2 5.33-.07 1.27.06 2.56 0 3.84-.3 5.89-1.13 11.84.21 17.68.17 1.96-6.07 1.56-6.55 1.08-.26-.26-.16-.92-.47-.99-3.79 1.32-7.42 1.46-9.41-2.57-1.97-4-.71-13.89-.42-18.53.08-1.35-.28-4.62.04-5.59s2.16-.58 2.9-.69c1.4-.21 4.3-1.37 4.88.5.35 1.14-.52 4.11-.65 5.52-.28 2.92-.98 8.06-.78 10.76.11 1.42.62 3.36 2.31 3.45zM170.23 64.88c10.37-1.66 11.39 16.05 9.08 22.65-2.08 5.94-8.36 9.66-13.74 4.94-6.44-5.66-5.17-26.01 4.66-27.58zm.5 9.2c-1.62.55-1.45 6.11-1.45 7.51s-.37 2.01.24 3.6c1.35 3.48 3.17-.26 3.35-2.31.12-1.36.2-8.08-.77-8.73-.3-.2-1.03-.19-1.38-.08z" fill="#fff"/><path d="M53.23 97.14c3.61-.57 6.22.84 7.96 3.95 2.87 5.12 3.12 14.94.56 20.19-.85 1.74-2.97 4.33-4.86 4.87-15.96 4.57-15.15-27.18-3.66-29.01zm.76 9.2c-.7.21-1.35 2.23-1.44 2.92-.21 1.61-.21 7.66.52 8.91.26.45.57.71 1.12.7.48 0 .59-.08.87-.44.62-.79 1.23-3.76 1.32-4.83.12-1.5.28-8.07-2.39-7.27zM133.65 72.97c-1.32.81-3.17-2.38-5.7.58-2.17 2.54-2.49 9.39-.71 12.19.64 1.01 2.25 2.32 2.6.46.13-.71.1-3.82-.11-4.49-.37-1.19-1.95-.94-2.18-2.17-.12-.64-.1-4.39.3-4.68 1.37-.47 2.8.09 4.17.2 2.45.2 4.44-.88 4.74 2.43.29 3.14-.24 6.37-.28 9.48-.01 1.2.91 5.58-.41 6-.58.18-1.19-.26-1.88-.13-.93.18-1.66 1.18-2.74 1.38-4.3.78-7.87-.58-10.26-4.21-3.49-5.29-3.07-14.49.41-19.73 2.64-3.98 7.5-7.36 12.27-4.48 1.57.95.53 6.72-.23 7.18zM141.5 94.78c-1.26-.35-.2-3.26-.13-4.23.3-4.14.34-8.47.26-12.55-.08-3.87-.36-7.67-.76-11.51.67-1.9 2.45-1.24 3.93-1.44 1.14-.15 2.57-.9 3.74-.35.33.15.51.71.95.84 2 .6 3.09-.66 5.46 1.2 5.14 4.04 4.84 16.32-1.79 18.7-1.31.47-2.72.17-3.99.62-.42 2.56-.58 5.2-.15 7.78-.08.29-.96.94-1.12.94-1.37 0-5.43.27-6.4 0zm7.93-23.25c-.36.17-.56.46-.63.85-.14.74-.24 2.94-.27 3.82-.02.7-.12 2.52.05 3.04.21.65 1.07.58 1.47.01.96-1.33 1.51-7.89-.62-7.73zM134.78 97.91c.41-.41 6.13-.47 6.97-.31 1.87.35 1.71 5.44 1.95 7.02.81 5.34 1.72 10.77 2.86 16.09.23 1.09 1.52 4.19 1.09 5.06-.12.24-.62.57-.89.65-.49.15-4.77.46-5.21.32-1.1-.34.07-1.78-2.34-2.01-2.89-.27-1.88.25-2.95 1.68-.81 1.07-4.16.58-5.48.35-3.56-.62-1.37-3.35-.74-5.81 1.18-4.66 2.41-9.39 3.33-14.08.58-2.98.68-6 1.41-8.96zm3.65 16.85c-.33 0-.56 1.6-.61 1.95s-.31 2.62-.27 2.75c.16.58 1.63.58 1.92.18.45-.63-.23-1.62-.34-2.25-.16-.92.16-1.94-.7-2.62zM36.66 70.71c.24.86-.35 1.94-.26 2.67.22 1.83 4.81.76 5.9 1.29.91.45.91 3.43.71 4.3-.57 2.49-5.39.11-6.21 1.98-.25.56-.52 5.06-.39 5.76.05.29.13.48.38.64h5.89c.05 0 .72.65.77.78.32.7-.9 4.69-1.6 5.06-.95.49-3.88.75-5.07.82-1.67.1-7 .24-8.25-.45s-.18-2.05-.09-3.03c.62-6.55.97-13.07.53-19.69-.13-1.94-1.03-3.65.04-5.73l5.98-.56c3.01.82 7.4-1.3 7.05 3.47-.04.61-.83 2.69-1.42 2.69h-3.97zM127.8 98.36v4.74c0 .05-.25.5-.33.57-1.29.94-4.33-.61-4.74 1.28-.59 6.92-.77 13.87-.43 20.81-.52 1-6.08.97-7.17.76-.87-.16-.85-.67-.92-1.39-.41-4.11.29-8.97.52-13.08.15-2.71.26-5.43.27-8.15-.18-.76-3.36-.14-4.19-.66s-.43-5.54.25-5.68c5.51 1.11 11.22.05 16.74.79zM68.02 93.75c-1.09-.31-.39-1.95-.37-2.68.13-6.65-.21-13.32.26-19.94-1.26-1-3.22.22-4.36-1.07v-4.35c.22-.37.51-.35.88-.4 2.1-.25 4.8.08 6.91.28 1.95.47 7.56-.86 8.95.01.75.48.63 2.01.57 2.87-.04.55-.12 2.04-.39 2.38-1.05 1.33-4-1.17-4.72 1.17-.23.77-.39 2.99-.44 3.92-.25 4.85.39 10.12.02 14.87-.24 3.09-.77 2.33-3.47 2.94-1.04-.19-2.94.25-3.84 0zM200 70.84c-.4 1.41-4.37-.18-4.81 1.33l-.43 21.07c-.91.85-2.22.39-3.33.51-1.5.17-4.21 1.24-4.5-.89-.46-3.42.2-7.34.28-10.76s.06-6.99.21-10.48c-1.17-1.28-4.34.2-4.57-2.11-.03-.26-.03-1.99-.01-2.27.18-2.35 1.98-1.74 3.97-1.67 3.4.12 6.81.36 10.26.27.53-.02 2.93-.62 2.93.12v4.87zM60.6 88.12c1.25.26 1.01 2.92.91 3.98-.07.78-.15 1.51-1.02 1.8-1.75.57-6.1-.06-8.07-.15-1.2-.06-4.87.48-5.21-.68l.47-17.37-.48-10.19c.35-1.01 6.36-1.24 7.27-.7 1.28.76.28 3.87.36 5.27.32 5.4.68 10.64.53 16.13-.01.4-.53 1.91.12 1.91 1.34 0 4-.23 5.12 0zM154.38 97.67c1.49-.14 3.4-.48 3.84 1.39.46 1.96.48 5.7.58 7.87.19 4.51.22 9.11.26 13.57 0 1.28.15 4.21-.4 5.25s-7.38 2.3-7.8.13c-.46-6.96.59-14.64 0-21.51-.11-1.24-1.42-5.74.17-6.21.61-.18 2.61-.42 3.35-.49zM90.88 65.13l.8 3.43c.14 4.81.29 9.73.27 14.56 0 2.43.42 7.35-.04 9.43-.4 1.83-5.21 1.99-6.72 1.71-.64-.12-1.17-.74-1.17-1.39-.02-6.07.07-12.14 0-18.2 0-.52.25-.99.24-1.5-.04-1.49-1.58-6.36-.49-7.46.45-.46 6.54-1.17 7.12-.58z" fill="#fff"/><path fill="none" stroke="#fff" stroke-linecap="round" stroke-linejoin="round" stroke-width="3" d="M21.31 51.92h157.38"/></svg>