<?xml version="1.0" encoding="UTF-8"?><svg id="b" xmlns="http://www.w3.org/2000/svg" width="200" height="143" viewBox="0 0 200 143"><path d="m151.66,132.35c-.61-2.9-4.2.32-9.92,1.32-8.08,1.41-8.52-2.99-8.52-2.99,1.93-.88,11.77-5.45,13.35-6.59,1.58-1.14,2.28-7.82-1.23-9.57-3.51-1.76-13,.18-17.21,2.55-4.22,2.37-9.66,8.52-6.15,18.8,3.51,10.28,16.34,5.53,20.11,3.69s10.19-4.3,9.57-7.2Zm-17.21-13.44c1.23-.88,4.22.44,4.39,2.72.18,2.28-7.03,4.48-7.03,4.48-.79-2.9,1.41-6.32,2.63-7.2Z" fill="#fff" stroke-width="0"/><path d="m89.7,58.4c-.77,0-5.96,1.19-7.84,2.47,0,0-3.66,1.62-.77-14.4,0,0,2.47-.94,2.47-2.3s-1.19-1.62-3.58-1.96-10.14-1.62-11.84-.85c-1.7.77-12.01,5.49-12.86,6.02-.85.54-2.56.88-3.07,4.54s-2.98,10.39,0,13.46c2.98,3.07,4.69,4.69,7.75,3.15,3.07-1.53,10.05-4.77,10.05-4.77,0,0-.51,4.43.51,4.86s2.3,1.26,4.34.5c2.04-.76,15.16-6.77,15.5-7.9s.09-2.83-.68-2.83Zm-20.27.68s-3.15,1.87-4.94,2.13c-1.79.26-2.47-2.47-2.64-5.28s1.02-8.01,2.81-8.43c1.79-.43,5.88.51,5.88.51l-1.11,11.07Z" fill="#fff" stroke-width="0"/><path d="m89.78,38.19s7.57-2.77,8.77-2.77,1.57,1.39,1.57,1.39l-.65,8.31h5.64s.09,3.05-1.4,3.75-4.56.79-4.56.79c0,0-2.46,10,.97,10.88s6.93-2.9,10.71-1.67-5.97,5.88-8.43,7.11-5.44,3.49-7.9,3.45-7.55-6.35-6.49-12.41,1.14-7.46,1.14-7.46c0,0-6.6-.18-7.21-.26s-.97-1.14.7-2.55,2.37-1.76,2.37-1.76l4.49-.09.28-6.73Z" fill="#fff" stroke-width="0"/><path d="m133.44,27.16s-6.95-1.63-10.03,0-12.74,5.06-13.01,8.76-2.08,29.17-2.08,30.98-.18,2.71,1.99,2.17,8.13-1.17,8.31-3.88.72-14.9.72-14.9c0,0,7.5-4.06,7.23-.9s-3.04,16.53.81,19.06c5.24,3.43,19.51-7.21,19.51-7.21,1.72-1.28.81-4.08-1.81-2.91s-6.5,3.43-7.86,1.99-.09-14,0-16.44-1.99-2.89-4.15-2.26-13.19,4.15-13.19,4.15c0,0-.09-12.74,2.17-13.55s6.59,1.99,8.76-.18,4.38-4.54,2.62-4.88Z" fill="#fff" stroke-width="0"/><path d="m51.04,10.44c1.79-1.63,5.33-1.56,7.89-1.21s7.61,2.72,9.67.51,6.04-6.62,4.69-8.61-13.65-.92-15.64,0-15.43,7.44-19.05,9.55-6.75,6.09-7.25,11.14-.64,8.39-.64,8.39h-9.17s-2.94,1.96-5.46,3.77c-1.46,1.04-.42,1.93,1.88,1.93h12.12s-2.71,40.8-3.1,45.29-4.23,7.18-7.31,7.44-12.82-1.15-12.82-1.15c0,0-5.13,5.77-6.41,7.44s.38,2.82,2.95,2.82h11.15c3.59,0,7.95-2.95,10.77-5.13s13.59-11.28,15-12.57,3.37-6.85,3.97-10.51c.68-4.14,2.69-33.85,2.69-33.85h9.71s3.6-2.65,4.23-3.99-.38-1.63-1.51-1.63-12.02-.17-12.02-.17c0,0-.13-16.01,3.65-19.44Z" fill="#fff" stroke-width="0"/><path d="m175.41,59.94c-.61-2.9-4.2.32-9.92,1.32-8.08,1.41-8.52-2.99-8.52-2.99,1.93-.88,11.77-5.45,13.35-6.59,1.58-1.14,2.28-7.82-1.23-9.57-3.51-1.76-13,.18-17.21,2.55-4.22,2.37-9.66,8.52-6.15,18.8,3.51,10.28,16.34,5.53,20.11,3.69,3.78-1.84,10.19-4.3,9.57-7.2Zm-17.21-13.44c1.23-.88,4.22.44,4.39,2.72.18,2.28-7.03,4.48-7.03,4.48-.79-2.9,1.41-6.32,2.63-7.2Z" fill="#fff" stroke-width="0"/><path d="m187.62,44.57s-.35-2.15-.79-3.14-15.81,3.73-16.07,4.8-.61,2.65,2.11,2.65,4.74-.53,4.74-.53c0,0-1.41,17.48-1.67,19.85s10.8.79,11.07-3.07.26-15.72.26-15.72c0,0,5.27-.61,6.59,1.41s3.16-1.05,3.78-2.55,2.37-5.97,2.37-5.97c0,0-3.51-1.97-6.94-.86s-3.07,3.4-5.45,3.14Z" fill="#fff" stroke-width="0"/><path d="m163.5,119.48s-.42-3.18-.76-4.29-3.67-.69-5.4,0-9.69,2.91-10.52,3.88-1.8,3.39,1.8,2.77,4.29-.62,4.15,1.11-1.59,16.48-1.73,18.14,1.45,1.6,3.12,1.18,7.55-1.94,7.55-1.94l1.8-15.86s5.75-4.57,5.26-1.25-1.38,18.21,3.46,19.04,14.33-6.16,15.79-7.27,1.25-4.43-2.63-2.56-6.37,1.38-6.37-2.08.76-11.29,1.04-13.99-4.22-2.49-7.55-.83-7.27,3.95-9,3.95Z" fill="#fff" stroke-width="0"/><path d="m99.26,109.73s15.48-3.13,16.64-14.13c.75-7.08-4.28-11.81-12.04-12.04s-33.12.46-40.87.58c-7.76.12-8.57,1.16-10.42,2.55s-2.78,2.89-1.16,3.01c1.62.12,12.62.69,12.62.69l-3.36,46.2s-8.8-.23-10.65,1.74-1.16,3.93-1.16,3.93c0,0,45.51-.22,51.18,0s19.22-5.09,19.92-19.33c.69-14.24-20.69-13.2-20.69-13.2Zm-18.44-20.26s19.34-2.89,18.41,8.27c-1,12.06-20.03,11.18-20.03,11.18l1.62-19.45Zm21.07,34.51c-1.04,17.02-24.87,12.7-24.87,12.7l1.87-22.5s23.68-1.39,23,9.79Z" fill="#fff" stroke-width="0"/></svg>