<svg xmlns="http://www.w3.org/2000/svg" width="302" height="67" viewBox="0 0 302 67"><path d="M277,16.45c2.4-8.76,13.21-12.32,20.7-7.08a9.31,9.31,0,0,1,4.05,7.2,73.17,73.17,0,0,1-.1,13.24C301,35,297.92,36.54,293,34.93a23.45,23.45,0,0,0-4.4-1.11c-1.9-.23-2.29,1.2-2.34,2.7s.52,2.43,2.18,2.34c1-.06,1.94,0,2.89-.2,4.69-.76,7.59,1.19,7.8,5.89a57.18,57.18,0,0,1-.6,12c-1.07,6.39-5.54,9.57-12,9.22-.9-.05-1.8-.13-2.69-.25-4.33-.57-6.81-3.27-7-7.64,0-.89,0-1.8,0-2.7.16-4.13,1.88-5.38,5.94-4.47a21.4,21.4,0,0,0,4.49.63c1.84,0,2.75-1.19,2.61-3-.17-2.05-1.64-1.65-2.94-1.6l-.2,0c-6.49,1.85-9.25-1.15-10.27-7C275.8,36.2,274.18,24.13,277,16.45Z" fill="#fff"/><path d="M136.6,47.69a13.78,13.78,0,0,1,3.37,9c.11,5.1-2.46,8.53-7.46,9.5a49.32,49.32,0,0,1-8.25.58,5.05,5.05,0,0,1-5-3.43,17.37,17.37,0,0,1-1.48-5.78,98.74,98.74,0,0,0-3.07-23.21,25,25,0,0,1-.53-6.19c0-5.84,2.6-9.18,8.37-10.07a40,40,0,0,1,10.48,0c4.77.56,7.48,3.76,8.19,8.4C142.39,34.05,142.47,41.48,136.6,47.69Zm-9.9,6.92c.09.74.14,1.5.3,2.23.24,1.14.77,2.41,2.09,1.95a3.34,3.34,0,0,0,1.73-2.36,7.75,7.75,0,0,0-.6-3.79,2.6,2.6,0,0,0-2-1.22c-.47,0-1,1.07-1.35,1.75A5.33,5.33,0,0,0,126.7,54.61Zm-1-11.52c0,1.54,1.27,2.24,2.22,2.66s2.36-1.43,2.37-3.27c0-1.39-.36-2.54-2.05-2.49S125.66,41.56,125.66,43.09Z" fill="#fff"/><path d="M223.15,47.68a13.84,13.84,0,0,1,3.33,8.93c.09,5.27-2.43,8.63-7.57,9.61a48.87,48.87,0,0,1-8,.57,5,5,0,0,1-5.11-3.55,24.92,24.92,0,0,1-1.6-7.87c.12-6.67-1.19-13.07-2.61-19.5a38,38,0,0,1-.81-8c0-5.46,2.68-8.88,8.06-9.7a42,42,0,0,1,10.68-.07c4.68.5,7.47,3.57,8.21,8.13C229,33.83,229.05,41.32,223.15,47.68Zm-9.93,6.91a6.66,6.66,0,0,0,.4,2.41c.45.76.8,2.11,2,1.9s1.55-1.42,1.69-2.24a7.15,7.15,0,0,0-.41-3.63c-.28-.73-1-1.74-2-1.74C213.22,51.29,213.25,54.59,213.22,54.59Zm-1-11.23c0,1.42,1.29,2,2.2,2.39,1.13.43,2.51-1.69,2.42-3.49-.07-1.31-.55-2.35-2.1-2.27C212.8,40.08,212.21,41.94,212.21,43.36Z" fill="#fff"/><path d="M58.73,20.68c-.17,2.15-.17,4.11-.51,6-.52,2.86-2.08,4-5,3.91-1.18,0-2.34-.31-3.51-.32-1.33,0-2.58.38-2.75,1.95s.7,2.45,2.27,2.62c.62.07,1.23.19,1.85.26,2.68.27,3.3,1.06,3.28,3.72a2.51,2.51,0,0,1-2,2.72,19.91,19.91,0,0,0-3.13,1.07,2.19,2.19,0,0,0-1.22,3C48.55,47,49.72,47,51,46.7a15.39,15.39,0,0,0,1.55-.59c3.11-1.14,4.78-.28,5.33,3A20.61,20.61,0,0,1,58,54.5a5,5,0,0,1-3.51,4.27,19.73,19.73,0,0,1-11,.63A7,7,0,0,1,37.84,54a47.41,47.41,0,0,1-1.63-10.61,55.9,55.9,0,0,0-2.42-15.95,24.85,24.85,0,0,1-1.07-11.69c.92-5.33,3.17-8.23,8.48-9.07a37.85,37.85,0,0,1,10.47,0c3.8.48,5.83,3.25,6.38,7C58.4,16,58.52,18.46,58.73,20.68Z" fill="#fff"/><path d="M144.3,15.72c1-5.51,4.24-8.16,9.83-8.79,9.78-1.1,14.64,2.54,15.59,12.28.73,7.44.73,14.95-1.06,22.3a23.28,23.28,0,0,1-2.1,5.39c-2.39,4.45-6.27,6.23-11.22,5.89-4.7-.33-7.81-2.85-9.59-7.11C143.33,39.91,142.63,23.06,144.3,15.72Zm14,13.8a2.33,2.33,0,0,0-1.68-1.46,2.39,2.39,0,0,0-1.8,1.33,23.24,23.24,0,0,0-.48,14.28c.2.74,1.34,1.78,1.95,1.72a3.05,3.05,0,0,0,2.15-1.77C159,41.59,160.1,34.1,158.27,29.52Z" fill="#fff"/><path d="M88.68,34.33A14.36,14.36,0,0,0,88,29.69c-2-5.49-3.26-11-1.65-16.85A7.68,7.68,0,0,1,92,7a33.16,33.16,0,0,1,14.6-.43A6,6,0,0,1,111.84,12a27.48,27.48,0,0,1-.16,12.14c-.85,3.07-2.91,4.38-6.09,4-1-.1-1.92-.28-2.88-.37-1.33-.13-2.62,0-2.87,1.64s.91,2,2.15,2.23c1,.19,2.05.3,3.06.49a2.08,2.08,0,0,1,1.87,2.54,4.63,4.63,0,0,1-1.73,2.69c-.91.63-2.37.44-3.3,1a2.72,2.72,0,0,0-1.51,2.52c.09,1.35,1.64,1.13,2.5,1.19a12.83,12.83,0,0,0,3-.66c2.2-.38,3.42.28,3.83,2.43,1.34,7-1.38,9.39-6.89,9.87-1.1.09-2.21.16-3.31.14-7.38-.14-10.73-3.44-11-10.83,0-1.11,0-2.22,0-3.33C88.44,39.72,88.72,36.12,88.68,34.33Z" fill="#fff"/><path d="M173.26,20.46c1.73-8,7.39-9.59,13-9.31,7.46.37,10.83,3.49,12.09,10.92a52.18,52.18,0,0,1-1,22.85c-2.14,7.71-8.23,11.23-15.51,9.25-3.73-1-6-3.61-7.32-7.07a21.68,21.68,0,0,1-1.35-4.78C172.62,38.76,170.9,30.62,173.26,20.46ZM187.6,33.21a3,3,0,0,0-2-1.73c-.63,0-1.71,1-1.91,1.69a22.66,22.66,0,0,0-.15,12.49,2.45,2.45,0,0,0,2.15,2c1.23,0,1.86-1.24,2.07-2.11C188.27,43.61,188.88,36.73,187.6,33.21Z" fill="#fff"/><path d="M268.47,21.65A5.23,5.23,0,0,1,273,26.41a41.65,41.65,0,0,1,0,8.86c-.34,2.92-2.25,4.28-5.19,4.34-1.31,0-2.62-.11-3.93-.18s-2.62-.08-2.79,1.43,1.22,1.77,2.45,1.88a8.5,8.5,0,0,1,2.85.31c.8.39,1.79,1.31,1.84,2.05a3.14,3.14,0,0,1-1.51,2.33,12.26,12.26,0,0,1-3.4.8c-1.12.26-2.16.91-1.62,2.11a3.08,3.08,0,0,0,2.36,1.26,36.11,36.11,0,0,0,4.06-.66c1.72-.17,2.71.78,3.12,2.41,1,4-.61,7.11-4.67,7.74a44.6,44.6,0,0,1-9.87.21c-3.87-.28-6.06-2.72-6.71-6.52a9.13,9.13,0,0,1-.25-2.06c.41-5.8-2-11.09-2.95-16.63a26.74,26.74,0,0,1,.12-8.23c.49-3.35,2.83-5.37,6.09-6C257.79,20.64,266.18,21.23,268.47,21.65Z" fill="#fff"/><path d="M75.57,36.85c.21,3.88,1.66,4.58,5.36,3.41a13.76,13.76,0,0,1,2.62-.57,2.48,2.48,0,0,1,2.89,2.08,12.86,12.86,0,0,1-.61,8.35c-1,2.32-3.11,3.3-5.47,3.6a43.49,43.49,0,0,1-5.59.25c-6.15,0-9-2.47-9.47-8.58-.3-4.13-.14-8.3-.1-12.45A7,7,0,0,0,64,28.55a15.36,15.36,0,0,1-2.62-6.85,87.78,87.78,0,0,1-.07-14.32C61.72,2.15,64.74-.11,70,0a4.62,4.62,0,0,1,4.74,3.33A23.15,23.15,0,0,1,75.8,9.21C76,13.3,75.29,31.74,75.57,36.85Z" fill="#fff"/><path d="M13.05,26.77c-1.19.69-1.91,1.06-2.58,1.5C7.82,30,4.8,29.39,3.55,26.45A19.51,19.51,0,0,1,3,12.62c1.1-3.43,4.09-4.91,7.37-5.28A58.46,58.46,0,0,1,21.75,7c6.68.54,9.32,3.38,9.59,10.15a20.24,20.24,0,0,1-1.24,7.5C28.9,28,25.72,29,22.47,27.56c-1.9-.83-2.49-.52-2.2,1.55.48,3.35,1.27,6.66,1.8,10a23.06,23.06,0,0,1,.39,5.36c-.26,3.18-2,4.41-5.66,4.31-3.16-.08-4.63-1.35-4.71-4.56a77.25,77.25,0,0,1,.45-7.88c.17-2.21.47-4.41.65-6.62A25.48,25.48,0,0,0,13.05,26.77Z" fill="#fff"/><path d="M241.84,63.21c-.36,3.71-1.59,4.76-4.7,4.79-3.39,0-5.24-1.65-5.16-5,.13-4.91.43-9.82.68-14.74.16-3.15.44-6.19-1.25-9.24a14.94,14.94,0,0,1-1.36-6.64,93,93,0,0,1,.38-13.46c.71-5.87,4.48-8.44,9.81-7.33,2.9.61,4.39,2.08,4.59,5.08C245.79,21.48,243.07,50.46,241.84,63.21Z" fill="#fff"/></svg>