<svg xmlns="http://www.w3.org/2000/svg" viewBox="0 0 260 104"><path d="M234.28 63.42c-2.01-.55-4.21-1.16-6.02-2.25-1.62-.98-.96-3.5.32-4.42 1.38-.98 3.26-.66 4.16 1 0 0 .8 1.82.66 2.9l6.17-.39c.26-3.22-.95-6.15-3.53-8.27l23.96.06v-2.88l-17.93-.22-25.86-.27-.03-24.49-5.53-.77.06 9.96-5.69-.35-.05-10.16-4.55-.55-.12 6.27-.77-.1-.14 17.13.07 2.83-5.1-.1.02-20.86 5.42.44.09-5.7-16.48-2.11-.02 6.05 5.47.61-.03 21.44h-2.89l-6.63-28.58-5.41-.77-4.32 18.25-2.16 10.92h-.91l-.03-4.84-5.07-.19-5.04-.18v-7.17l9.08.55.04-5.97-9.14-.8.04-6.04 9.85 1.05.14-6.55-15.26-1.88.05 31.82-2.08.02-.02-32.07-4.95-.5.23 19.68-7.38-20.77-5.31-.66.16 12.07.15 22.06-1.6.02c-.26-.02-.39-.73-.41-1.02l-.26-5.44c-.17-3.47-.54-6.58-2.77-9.3 3.34-3.21 3.41-8.73 2.35-13.23-.71-2.35-1.99-5.38-4.67-5.94-3.92-.81-7.79-1.06-11.91-1.64l-.07 21.82v1.87l.05 12.61-1.82.1-.05-6.4-10.84-.39v-8.66l9.8.56v-6.99l-9.79-.89-.04-7.4 10.64 1.17v-7.65L94.97 8.94l-.08 3.48v5.05l.05 6.5-.16 23.24-6.98-.02c4.37-4.22 5.14-9.76 5.53-15.7.15-2.31.07-4.51-.06-6.84-.25-4.41-.89-8.73-3.12-12.57-1.16-2-3.04-4.04-5.37-4.44-3.36-.58-6.63-.87-10.03-1.27v40.54h-2.08l-.08-24.75-.05-7.37-.04-6.28.05-2.56-4.82-.62-.1 25.8-8.14-26.85-5.04-.63-.03 43.11-7.11-.03c1.33-1.66 2.21-3.27 2.95-5.21 1.05-2.76 1.28-4.76 1.28-7.27l.02-31.07-5.15-.56v26.96c.01 4.05-.18 9.88-3.6 10.03-1.32.06-2.79-.45-3.31-1.8-.58-1.51-.99-2.3-1.17-4.83s-.09-31.45-.09-31.45L32.88.92s-.17 27.51 0 29.81l.3 4.02c.36 4.27.95 8.06 4 11.74l-12.81-.12-8.66-.11-11.76-.16-3.96-.04V51l9.45.02 9.5.13 35.72.05.03 9.36 3.13-.09 4.58-.14v42.77l6.48-.81-.12-41.75 7.72-.48.03-8.86 2.1.06.03 41.25.07 8.56 6.25-.85V79l9.37-.73v20.72l6.45-.82-.06-46.88 3.9.03V97.7l19.6-2.46-.02-9.05-13.24 1.28.03-10.29 11.84-.85v-8.28l-7.29.27-4.55.26-.02-9 5.09-.15 7.86-.2.04-7.76 10.28.02.06 7.51 7.02.02c.23.44.04 1.27.04 1.86l.05 16.74.16 15.29 6.14-.73.06-5.64.04-27.73 7.02-.1.04-7.01 1.6.02v26.97c0 2.66.81 5.37 1.95 7.63 1.22 2.43 3.66 3.96 6.2 4.18 4.69.4 8.85-1.76 10.78-5.98 1.53-3.35 2-6.83 2-10.53V51.74l2.38.07-.24 36.1 5.52-.49.54-21.54 8.13 20.26 5.92-.64-.02-33.52 3.84.1c.11 1.53.03 32.79.03 32.79l17.67-2.14.15-6.37.21-.16.78 2.18c1.33 3.71 8.7 5.66 14.04 1.65 2.91-2.19 4.03-5.76 3.87-9.29-.17-3.68-2.46-6.34-5.97-7.29zm-175-16.66l.08-23.19 7.88 23.44-7.97-.25zm23.21-6.65l-2.55-.15-.04-24.94 4.05.74c1.92.35 3.06 2.62 3.48 4.53 1.19 5.32 1.59 14.3-1.29 18.55-.91 1.35-2.26 1.36-3.64 1.27zm11.97 28.82h-9.49l.02-17.71h9.49l-.02 17.71zm26.63-49.85c1.04.07 2.44.52 2.88 1.47 1.26 2.75.49 6.86-.4 7.59-.43.35-1.32.38-1.89.33l-3.77-.28-.02-9.34 3.2.22zm-3.18 28.46v-13l2.82.19c1.98.13 3.31.96 3.48 2.95l.54 6.34.22 3.57-7.06-.04zm18.95.25l.11-18.94 5.56 16.3.96 2.67-6.63-.03zM176.89 29l1.67 8.57-3.74-.22L176.9 29zm-5.97 22.73l.11 18.97.02 5.48c0 2.12-.34 4.27-2.39 5.71-.97.68-2.43.88-3.64.42-1-.38-2.52-2.15-2.34-7.21.03-.93-.04-23.42-.04-23.42l8.29.05zm1.59-3.64l1.11-5.23 6 .37 1.07 4.91-8.18-.05zm13.23 3.67l8.29.11.12 20.33-8.41-20.44zm25.34-12.65l-.04 9.47-6.04-.03-.02-9.9 6.09.47zm17.64 36.96c-1.81-.63-2.12-4.66-2.12-4.66l-5.59.33.27 4.16-.07.24-11.93 1.17-.02-7 10.65-.84-.04-6.07-10.61.5v-6.2l6.92-.1 4.8-.21.14-5.47 4.53.03c-3.1 1.75-3.9 4.55-4.08 5.92s-.3 5.23 1.93 7.82c1.96 1.89 4.16 2.75 6.54 3.38 2.2.37 4.38 1.46 4.34 3.5s-2.16 4.72-5.67 3.5z" fill="#fff"/></svg>