<svg xmlns="http://www.w3.org/2000/svg" width="350" height="83" viewBox="0 0 350 83"><path d="M9.78 20.64c.62-3.56 1.1-6.75 1.75-9.91a11.18 11.18 0 0 0 0-6.15 3.63 3.63 0 0 0-.78-1.33c-1-1-1-1-.71-2.73h7.7a2.17 2.17 0 0 1-.63 2.57 2.65 2.65 0 0 0-.62 2.09c.86 5.1 1.84 10.18 3.1 15.31.31-1.48.67-2.95.92-4.44.58-3.52 1.11-7 1.66-10.58a2.27 2.27 0 0 0-1.05-2.61 2.3 2.3 0 0 1-.56-1.79c0-.24.86-.59 1.35-.63a26.88 26.88 0 0 1 3.7 0c.46 0 1.22.3 1.28.57a2.11 2.11 0 0 1-.33 1.74 5.58 5.58 0 0 0-1.66 3.69q-2.49 14.1-5 28.2a2 2 0 0 1-.22.92c-.34.43-.83 1.08-1.2 1a1.7 1.7 0 0 1-1.13-1.14c-.92-4.66-1.75-9.33-2.61-14a34.08 34.08 0 0 0-1.3-5.32q-1.12 6.36-2.26 12.73c-.39 2.2-.8 4.41-1.17 6.62-.13.77-.41 1.45-1.29 1.15a1.89 1.89 0 0 1-1.09-1.19C5.7 25.74 3.92 16 2.1 6.34 1.84 5 1.94 3.44.32 2.63 0 2.48-.08 1.51.07 1 .17.72.89.46 1.34.44 3.06.37 4.77.38 6.49.43c.42 0 1.17.24 1.2.44a4.38 4.38 0 0 1-.26 1.78c-.22.76-.87 1.54-.76 2.22.8 5 1.74 9.88 2.65 14.81a5.56 5.56 0 0 0 .46.96zM287.8 20.29c.74-4.19 1.67-8.35 2.11-12.57.18-1.62.09-3.63-1.72-4.9-.45-.32-.36-1.41-.57-2.4h7.35c.29 0 .84.35.83.51 0 .6-.07 1.46-.44 1.73-1.18.8-1.12 1.8-.91 3 .85 4.56 1.67 9.13 2.51 13.7a1.84 1.84 0 0 0 .75 1.18c.81-5.15 1.66-10.3 2.38-15.47.08-.62-.58-1.34-.88-2s-.56-1.36-.84-2a7.18 7.18 0 0 1 1.68-.55 34.62 34.62 0 0 1 3.53 0c1.23 0 2 1.23 1.15 2-2.3 2-2 4.85-2.52 7.38-1.63 8.49-3 17-4.62 25.52a2.08 2.08 0 0 1-1.15 1.32c-1.06.31-1.17-.66-1.3-1.38q-1.67-9-3.31-17.94a1.32 1.32 0 0 0-.54-.9c-.34 1.83-.7 3.66-1 5.5-.79 4.47-1.53 8.94-2.38 13.39a2.08 2.08 0 0 1-1.14 1.33c-1.06.35-1.18-.59-1.31-1.32q-2.13-11.49-4.24-23c-.47-2.51-.87-5-1.42-7.54-.14-.66-.78-1.2-1.09-1.84a5.29 5.29 0 0 1-.66-2.04c0-.18.9-.57 1.39-.59 1.66-.07 3.33-.06 5 0 .42 0 1.16.24 1.19.45.07.58.07 1.45-.28 1.74a2.35 2.35 0 0 0-.7 2.59c.94 5 1.84 10.05 2.75 15.08zM287.65 66.88c.6-3.46 1.1-6.49 1.68-9.51.4-2.11.92-4.21.12-6.31-.25-.66-.78-1.21-1.07-1.86a6.79 6.79 0 0 1-.6-2.13 2.71 2.71 0 0 1 1.45-.49c2.08-.06 4.16 0 6.31 0a2.22 2.22 0 0 1-.57 2.66 2.87 2.87 0 0 0-.6 2.25c.84 5 1.79 10 2.8 15.44a10.91 10.91 0 0 0 .54-1.48q1.19-6.95 2.33-13.89a2.26 2.26 0 0 0-1-2.49 2.86 2.86 0 0 1-.68-1.89c0-.16.9-.54 1.4-.58 1.23-.08 2.47 0 3.7 0s2 1.31 1.09 2.12c-1.86 1.62-1.8 3.8-2.17 5.84-1.63 8.88-3.18 17.76-4.79 26.63a2.6 2.6 0 0 1-.59 1.51c-.71.6-1.66 0-1.87-1.16q-1.52-8.19-3-16.37a9.46 9.46 0 0 0-.86-2.81c-.65 3.62-1.3 7.23-1.94 10.86-.49 2.73-.95 5.46-1.44 8.19-.13.73-.18 1.48-1.3 1.44s-1.07-.81-1.2-1.53c-1.83-9.92-3.65-19.84-5.55-29.74-.19-.94-1-1.73-1.45-2.64a3.24 3.24 0 0 1-.35-1.76c.05-.27.81-.58 1.25-.6 1.72-.07 3.43 0 5.15 0 .42 0 1.16.26 1.18.46a4.63 4.63 0 0 1-.3 1.78c-.22.71-.86 1.44-.76 2.07.82 5 1.78 10 2.7 15a6.54 6.54 0 0 0 .39.99zM142.39 61.62h5.29V56.5v-5.44a6.58 6.58 0 0 0-.67-1.87c-.31-.77-.63-1.54-1.07-2.62h7.69c1 0 1.29 1.37.44 2.2a3.82 3.82 0 0 0-1 3.06c0 8.48 0 17 .05 25.46A10.41 10.41 0 0 0 154 80a4.59 4.59 0 0 1 .34 1.93c0 .24-1 .46-1.47.48-1.71.06-3.43.06-5.14 0-.47 0-1.28-.24-1.33-.49a2.17 2.17 0 0 1 .29-1.76 3.66 3.66 0 0 0 1-3.06V64.87c-1.57 0-3-.06-4.42 0-.31 0-.82.65-.83 1-.05 4.06-.06 8.12 0 12.17 0 .61.58 1.19.81 1.81a6.17 6.17 0 0 1 .47 2c0 .17-.95.45-1.48.47-1.71.06-3.43.06-5.14 0-.48 0-1.3-.19-1.36-.44a2.1 2.1 0 0 1 .26-1.75 3.82 3.82 0 0 0 1-3.13V51.85a3.63 3.63 0 0 0-1-3.06 2.24 2.24 0 0 1-.32-1.76c.05-.24.87-.46 1.34-.47q2.66-.09 5.31 0c.47 0 1.29.21 1.34.44a2.21 2.21 0 0 1-.28 1.77c-1 .92-1 2-1 3.22zM144 .41c-.18.92-.09 1.86-.5 2.24a3.79 3.79 0 0 0-1 3.21v9.56h5.28V4.34c0-.42-.41-.84-.61-1.26-.35-.75-.69-1.51-1.22-2.65h7.87c.94 0 1.31 1.3.47 2.07-1.11 1-1.11 2.22-1.11 3.51v25a3.55 3.55 0 0 0 1.06 3 2.13 2.13 0 0 1 .33 1.73c0 .25-.84.49-1.31.51-1.82.05-3.65.05-5.47 0-.43 0-1.18-.21-1.22-.42-.11-.57-.13-1.44.22-1.76 1.09-1 1.09-2.24 1.09-3.53V20.13c0-1.13-.37-1.52-1.48-1.45s-2.44 0-3.88 0V30.8c0 1.2 0 2.3 1.09 3.18.35.29.39 1.2.27 1.76-.06.25-.85.47-1.31.49q-2.65.08-5.31 0c-.47 0-1.29-.19-1.35-.43a2.14 2.14 0 0 1 .24-1.77c1.07-1 1.07-2.12 1.06-3.36v-25a3.63 3.63 0 0 0-1-3.05 2.19 2.19 0 0 1-.31-1.77c0-.24.84-.47 1.31-.48 2.07.01 4.26.04 6.79.04zM36.2 15.46h5.26V4.22c0-.37-.36-.74-.54-1.11L39.6.44c3 0 5.53-.16 8 .06 1.27.11 1 1.46.4 2-1.23 1.11-1.15 2.43-1.15 3.82v24.81c0 1 .7 1.89 1 2.84a3.6 3.6 0 0 1 .35 1.76c-.08.3-.91.55-1.42.57-1.77.07-3.54.06-5.31 0-.47 0-1.28-.24-1.33-.5a3.89 3.89 0 0 1 .35-1.8 11.65 11.65 0 0 0 1-2.87c.12-3.57.05-7.15.05-10.72 0-.52-.07-1-.1-1.62h-5.12c0 .55-.11 1.06-.12 1.57 0 3.68-.06 7.37 0 11a9.1 9.1 0 0 0 .9 2.41 4.08 4.08 0 0 1 .47 1.88c-.06.29-1 .56-1.56.58-1.71.08-3.43.06-5.14 0-.48 0-1.29-.22-1.34-.46a2.2 2.2 0 0 1 .29-1.76 3.88 3.88 0 0 0 1.05-3.21v-25a3.79 3.79 0 0 0-1.05-3.21 2.24 2.24 0 0 1-.27-1.68c0-.24.85-.46 1.32-.48q2.65-.08 5.31 0c.48 0 1.3.2 1.35.43.12.57.1 1.47-.26 1.77-1.11 1-1.08 2.11-1.08 3.35.02 3.09.01 6.18.01 9.48zM79.61 18.44c3.09 1.41 4 3.91 4.56 6.66.41 2 .83 4.08 1.42 6.07A28.91 28.91 0 0 0 87 33.93a4.23 4.23 0 0 1 .26 1.93c0 .19-.79.44-1.2.43-5.41-.12-4 1-5.39-4-.94-3.5-1.78-7-2.71-10.53-.28-1-.67-2-2.32-2.06v10.7c0 1.38-.17 2.76 1.12 3.83a1.79 1.79 0 0 1 .24 1.58c-.11.29-.87.46-1.34.48-1.77.05-3.54.05-5.3 0-.47 0-1.26-.23-1.32-.47-.12-.57-.1-1.48.26-1.77 1.15-.94 1.08-2.12 1.08-3.35V5.89c0-1.19 0-2.29-1-3.2A2.18 2.18 0 0 1 69 .93c0-.24.85-.5 1.3-.49 2.62 0 5.26 0 7.86.27 4.27.47 7 3 7.59 6.65.77 4.89-1 8.65-5 10.55zm-3.85-1.8c2 .13 3.35-.6 4-2.3A13.27 13.27 0 0 0 80 5.72c-.59-1.92-2.08-2.64-4.19-2.22zM185.8 64.62c3 1.35 3.92 3.7 4.44 6.38.43 2.19.94 4.38 1.56 6.53a21.76 21.76 0 0 0 1.3 2.47 3.93 3.93 0 0 1 .39 1.88c0 .23-.83.52-1.29.54-4.31.18-4.31.17-5.37-4.06-.84-3.37-1.66-6.73-2.56-10.08-.31-1.14-.61-2.42-2.49-2.54V76.61c0 1.34 0 2.63 1.14 3.67a1.81 1.81 0 0 1 .24 1.61c-.1.29-.85.52-1.31.53h-7.13c.44-1.1.77-1.88 1.07-2.68a6.69 6.69 0 0 0 .69-2c0-8.81.05-17.61 0-26.42 0-.8-.68-1.57-.95-2.39a5 5 0 0 1-.35-1.92c0-.19.88-.44 1.35-.43 2.62 0 5.26 0 7.86.28 4.34.48 6.93 2.94 7.55 6.85.75 4.65-1.06 8.4-4.95 10.29zm-3.9-15v13.13c2.17 0 3.31-.52 3.95-2.21a13.2 13.2 0 0 0 .26-8.64c-.6-1.9-1.99-2.63-4.21-2.32zM174.9.67c3.51 0 6.52-.22 9.49.06 4.33.4 7 3 7.62 6.8.73 4.74-1.12 8.5-5.1 10.38l-.87.43c.82.66 1.79 1.1 2.21 1.85a26.44 26.44 0 0 1 2.09 4.93c.59 1.88.82 3.87 1.39 5.75a32.39 32.39 0 0 0 1.52 3.07 3.19 3.19 0 0 1 .27 1.78c-.06.28-.82.57-1.26.56-5.44-.11-3.95 1-5.37-4.07-1-3.54-1.82-7.12-2.77-10.68a2.12 2.12 0 0 0-2.26-1.9v10.74c0 1.38-.14 2.75 1.13 3.82a1.84 1.84 0 0 1 .19 1.63c-.1.29-.85.49-1.31.5-2.19.05-4.37 0-7.12 0 .5-1.16.85-2 1.17-2.75a5.8 5.8 0 0 0 .6-1.91q.06-13.27 0-26.57a6.43 6.43 0 0 0-.69-2c-.29-.81-.6-1.58-.93-2.42zM182 3.4v13.24c2.39-.07 3.53-.8 4.11-2.78a14 14 0 0 0 .17-7.74C185.72 4 184.43 3.19 182 3.4zM210.23 46.64v6.91a1.12 1.12 0 0 1-.75.77 2.59 2.59 0 0 1-1.27-.4c-.13-.07-.17-.38-.2-.59-.64-4-2.74-4.27-6.14-3.82V62.2c2 .36 2.64 0 3.07-2 .2-.93.54-1.54 1.57-1.29.3.08.75.49.76.76.05 2.92 0 5.84 0 8.78-1.39.47-2.11.21-2.47-1.19-.5-2-1-2.26-3-2v14.36a19.73 19.73 0 0 0 3.86-.07 3.23 3.23 0 0 0 1.86-1.55c.6-1.05.8-2.32 1.35-3.4.25-.49 1-.73 1.48-1.08.32.45.88.9.9 1.36.09 2.44 0 4.89 0 7.53h-14.91c-.47 0-1.32-.26-1.34-.46a5 5 0 0 1 .34-1.93 9.46 9.46 0 0 0 .92-2.55q.11-13 0-26.1a8.43 8.43 0 0 0-.86-2.43c-.23-.67-.42-1.34-.73-2.32zM172.08.45v6.78c0 .33-.49.95-.71.93a4.09 4.09 0 0 1-1.44-.64c-.06 0-.06-.2-.08-.3-.55-3.66-2.41-4.4-6.28-3.81v11.25a5.12 5.12 0 0 0 .6 1.58 12.23 12.23 0 0 0 2.09-.91c.28-.19.33-.76.45-1.16.47-1.59.47-1.59 2.45-1.2v8.71a1.09 1.09 0 0 1-.71.79A2.12 2.12 0 0 1 167 22a2.86 2.86 0 0 1-.48-1.33c-.4-1.46-1.33-2-2.89-1.59v14.4a19.47 19.47 0 0 0 3.83-.07 3.21 3.21 0 0 0 1.88-1.51c.62-1.1.85-2.41 1.42-3.55a2 2 0 0 1 1.41-.86c.25 0 .83.74.84 1.15.08 2.49 0 5 0 7.67H158.22c-.51 0-1.34-.26-1.43-.56a2 2 0 0 1 .34-1.74 3.39 3.39 0 0 0 1-2.88c0-8.54 0-17.09-.05-25.63a9.91 9.91 0 0 0-.84-2.61c-.23-.71-.43-1.43-.73-2.42zM62.84 12.91v9.41c-1.41.54-2.2.11-2.47-1.3-.3-1.58-1.16-2.33-3-1.86v13.08c0 1 .28 1.3 1.28 1.33 3.71.12 4.39-.33 5.5-3.9a3.79 3.79 0 0 1 .47-1.34 2.4 2.4 0 0 1 1.38-.84c.26 0 .8.76.81 1.19.08 2.45 0 4.9 0 7.48-.49.05-.9.14-1.3.14H52c-.51 0-1.42-.3-1.45-.54a4.72 4.72 0 0 1 .43-1.9A9.35 9.35 0 0 0 52 31.29q.1-12.88 0-25.78a11.45 11.45 0 0 0-1-2.73 4.87 4.87 0 0 1-.23-1.95c0-.2.89-.39 1.38-.4C56.33.35 60.51.35 64.69.26c.94 0 1.22.3 1.2 1.19v5.44c0 .46-.58.89-.89 1.33a10.21 10.21 0 0 1-1.36-1.17c-.22-.26-.19-.71-.29-1.07a4.08 4.08 0 0 0-5.44-2.68 1.29 1.29 0 0 0-.56 1v10.89c0 1 .43 1.19 1.3 1.08a2.14 2.14 0 0 0 1.88-2.09c.18-1.56 1.03-1.66 2.31-1.27zM169.06 59.11v8.73a1.1 1.1 0 0 1-.71.78 2.21 2.21 0 0 1-1.39-.46c-.28-.23-.33-.76-.44-1.18-.38-1.52-1.3-2.13-3-1.72V79.4c4 1.08 5.38.33 6.69-3.49.34-1 .15-2.7 2-2.31 1.58.35.74 1.78.8 2.7.12 1.86 0 3.73 0 5.6a2 2 0 0 1-.13.42 10.39 10.39 0 0 1-1.18.13h-13.51c-.51 0-1.41-.31-1.43-.55a4.72 4.72 0 0 1 .43-1.9 8.52 8.52 0 0 0 .92-2.41q.1-13.12 0-26.26a8.34 8.34 0 0 0-.84-2.3 4.09 4.09 0 0 1-.45-1.89c.06-.28 1-.53 1.6-.54 4.13-.09 8.26-.1 12.38-.18.88 0 1.29.19 1.27 1.14 0 1.87 0 3.74-.06 5.61 0 .42-.6 1.16-.86 1.14-.48 0-.92-.56-1.37-.88v-.15c-1-3.63-2.25-4.39-6.2-3.69v12.52c1.82.55 2.6.09 3.13-1.8.41-1.59.41-1.59 2.35-1.2zM210.35.4c0 2.33.05 4.51 0 6.69a1.43 1.43 0 0 1-.94 1.06 1.71 1.71 0 0 1-1.22-.83 11.66 11.66 0 0 1-.55-1.82c-.77-1.92-3.7-3.11-5.4-2.16-.29.17-.43.8-.44 1.22v10.25c0 .47.28 1.32.46 1.33a3.42 3.42 0 0 0 1.93-.43 2.35 2.35 0 0 0 .79-1.51c.21-1.43.95-1.77 2.34-1.27v9.39c-1.3.52-2.12.23-2.41-1.24s-1.12-2.41-3-2v14.39a19.84 19.84 0 0 0 3.87-.07 3.21 3.21 0 0 0 1.86-1.53c.62-1.1.84-2.42 1.41-3.55a2 2 0 0 1 1.43-.83c.27 0 .82.74.83 1.16.08 2.49 0 5 0 7.66h-14.9c-.47 0-1.27-.25-1.32-.51a2.1 2.1 0 0 1 .3-1.74 3.66 3.66 0 0 0 1.1-3.19c0-8.43 0-16.86-.05-25.29a10.65 10.65 0 0 0-.9-2.75 4.72 4.72 0 0 1-.35-1.92c0-.23 1-.45 1.49-.46 4.23-.08 8.47-.12 12.7-.16.24-.02.5.05.97.11zM105.09 36.31H89.86c-.36 0-1-.3-1-.5 0-.59 0-1.46.31-1.76 1.07-.89 1.08-2 1.08-3.18v-25c0-1.19 0-2.29-1-3.22A2.19 2.19 0 0 1 88.94.9c0-.24.86-.46 1.33-.47C94.6.35 99 .31 103.29.26a5.78 5.78 0 0 1 .81.16v7a1.1 1.1 0 0 1-.74.77 3.13 3.13 0 0 1-1.36-.54c-.13-.07-.1-.39-.15-.6-.89-3.51-2.45-4.43-6.3-3.56v11.92c0 .28.39.8.54.78a3.66 3.66 0 0 0 1.91-.55 3.68 3.68 0 0 0 .81-1.85c.2-.85.7-1.3 1.46-1a1.74 1.74 0 0 1 .87 1.28c.09 2.34.09 4.7 0 7a1.77 1.77 0 0 1-.81 1.36c-.83.33-1.33-.22-1.61-1.06-.84-2.45-1-2.57-3.11-2.25v14.33a25.73 25.73 0 0 0 4-.06 2.78 2.78 0 0 0 1.64-1.33c.6-1.12.86-2.41 1.44-3.54.25-.49 1-.74 1.44-1.1.31.45.86.89.88 1.36.12 2.44.08 4.88.08 7.53zM258.86 46.11c.83 4 1.6 7.73 2.34 11.44 1.34 6.69 2.63 13.4 4 20.08a13 13 0 0 0 1.34 2.44 4.54 4.54 0 0 1 .48 1.85c0 .18-.83.5-1.28.51-2 .06-4 0-6 0-.42 0-1.16-.25-1.18-.46-.07-.57-.05-1.49.3-1.72 1.34-.89 1.13-2 .89-3.27-.71-3.68-.7-3.68-4.46-3.68-2.34 0-2.33 0-2.77 2.38a8.24 8.24 0 0 0-.37 2.2 9.82 9.82 0 0 0 .85 2 6.32 6.32 0 0 1 .51 2c0 .16-.94.45-1.46.49a21.5 21.5 0 0 1-3.21 0c-.47 0-1.28-.29-1.32-.53a3.82 3.82 0 0 1 .31-1.93 19.88 19.88 0 0 0 1.48-3c1.74-8.25 3.39-16.51 5-24.78a4 4 0 0 0 0-1.9c-.49-1.47.15-2.17 1.43-2.67 1.06-.35 1.93-.86 3.12-1.45zm-.4 24.1c-.74-3.71-1.45-7.31-2.16-10.9h-.41c-.72 3.58-1.43 7.16-2.17 10.85zM258.93 0c.57 2.77 1.11 5.31 1.62 7.85 1.55 7.75 3.05 15.5 4.68 23.23.22 1.05 1.09 2 1.57 3a3.54 3.54 0 0 1 .36 1.74c0 .2-.75.48-1.17.49-2 .05-4 .05-5.95 0-.47 0-1.31-.3-1.32-.49 0-.63 0-1.57.43-1.85 1.14-.8 1-1.74.79-2.83-.85-4-.85-3.89-4.85-4-1.53 0-2.3.34-2.36 1.95 0 .78-.48 1.57-.44 2.34a8.72 8.72 0 0 0 .7 2.25c.24.71.5 1.41.75 2.12a8.93 8.93 0 0 1-1.7.51 18.27 18.27 0 0 1-3 0c-.47 0-1.23-.25-1.31-.53-.15-.56-.14-1.53.2-1.79 1.31-1 1.42-2.34 1.69-3.68Q252 18.13 254.46 6c.06-.32.26-.69.17-.94-1.08-2.74.86-3.53 2.79-4.33.39-.2.77-.39 1.51-.73zm-2.56 13.07L256 13c-.74 3.66-1.49 7.33-2.24 11h4.72zM315.64 46.14c.46 2.14.88 4 1.27 6 1.71 8.52 3.39 17 5.16 25.56a13.37 13.37 0 0 0 1.32 2.42 4.58 4.58 0 0 1 .48 1.86c0 .17-.85.47-1.32.48-1.93.06-3.86 0-5.79 0-.47 0-1.31-.28-1.32-.47 0-.63 0-1.58.42-1.85 1.24-.83 1-1.84.78-3-.77-3.84-.76-3.76-4.64-3.88-1.64-.05-2.52.32-2.56 2.09 0 .79-.46 1.57-.43 2.35a8.5 8.5 0 0 0 .7 2.1c.25.7.49 1.41.74 2.11a8 8 0 0 1-1.69.52 15.5 15.5 0 0 1-2.89 0c-.52-.05-1.39-.27-1.45-.55a3.55 3.55 0 0 1 .31-1.93 19.42 19.42 0 0 0 1.41-2.95c1.72-8.14 3.34-16.3 5-24.46a3.37 3.37 0 0 0 .18-1.57c-.79-2.33.56-3.28 2.42-4 .53-.15 1.05-.43 1.9-.83zm-.39 24.08c-.75-3.8-1.46-7.47-2.18-11.13h-.31c-.75 3.67-1.49 7.34-2.26 11.12zM332 61.13c1-3.38 2-6.75 2.81-10.16.13-.52-.5-1.22-.75-1.85a5.46 5.46 0 0 1-.64-1.91c0-.23.94-.62 1.47-.66a33.53 33.53 0 0 1 4 0c.46 0 1.28.33 1.29.52 0 .63-.07 1.6-.47 1.83-1.44.82-1.81 2.14-2.22 3.54-1.12 3.84-2.18 7.7-3.44 11.49-.93 2.78-.68 5.59-.72 8.4v4.8a3.41 3.41 0 0 0 1.09 3 2.2 2.2 0 0 1 .35 1.75c0 .25-.84.51-1.3.53q-2.73.09-5.46 0c-.47 0-1.3-.27-1.32-.48a4.93 4.93 0 0 1 .33-1.91 10.2 10.2 0 0 0 1-2.52 86.9 86.9 0 0 0 0-10.08 38.1 38.1 0 0 0-1.63-6.81c-.79-2.82-1.6-5.65-2.56-8.42a36.29 36.29 0 0 0-1.88-3.37 12.25 12.25 0 0 1-.53-2.31h7.79c.3 0 .85.48.83.7a5.12 5.12 0 0 1-.57 1.66c-.25.56-.95 1.17-.84 1.6.92 3.54 2 7 3 10.57zM127.35 3.3c0 .49-.07 1-.07 1.53v26.25a12.61 12.61 0 0 0 .93 2.89 4.81 4.81 0 0 1 .25 1.94c0 .2-.9.37-1.39.38-1.71.05-3.43.07-5.14 0-.51 0-1.4-.32-1.43-.58a4.43 4.43 0 0 1 .46-1.86c.26-.71.85-1.4.86-2.1.06-9.18 0-18.36 0-27.53a8.8 8.8 0 0 0-.08-.91c-1.9-.28-2.53.11-3 1.82a6.63 6.63 0 0 1-.37 1.87c-.3.48-.94.74-1.43 1.1-.28-.44-.77-.85-.8-1.3-.09-1.75 0-3.52 0-5.28 0-1.17.47-1.45 1.55-1.41 3.37.16 6.75.27 10.12.33a35.91 35.91 0 0 0 4-.21c.93-.09 1.4.12 1.37 1.17-.06 1.87 0 3.74 0 5.6 0 .4-.57 1.13-.73 1.09a2.24 2.24 0 0 1-1.44-.84 10 10 0 0 1-.58-2.25c-.43-1.6-1.13-2-3.08-1.7zM121.79 49.39c-1.74-.38-2.63.31-3 1.78a10.11 10.11 0 0 1-.51 2.17 1.78 1.78 0 0 1-1.3.79c-.26 0-.82-.63-.83-1-.09-1.91 0-3.84 0-5.76 0-.94.47-1.16 1.31-1.15 4.86.06 9.73.06 14.6.16a1.44 1.44 0 0 1 1.05 1c.1 2 .08 4 0 5.92 0 .35-.5 1-.74 1a2 2 0 0 1-1.39-.67c-.29-.38-.24-1-.39-1.52-.19-.66-.27-1.5-.72-1.91a6 6 0 0 0-2.1-.8 5.21 5.21 0 0 0-.5 1.52v26.57a10.34 10.34 0 0 0 1 2.73 3.48 3.48 0 0 1 .34 1.76c-.09.3-.94.53-1.45.55-1.71.06-3.43.07-5.14 0-.53 0-1.44-.29-1.48-.54a4.17 4.17 0 0 1 .43-1.87c.29-.81.93-1.59.94-2.39.07-9.07 0-18.14 0-27.21-.04-.41-.09-.72-.12-1.13zM222.1 36v-9a1.22 1.22 0 0 1 .92-.79 1.52 1.52 0 0 1 1.22.66 24.83 24.83 0 0 1 .56 2.48 8.29 8.29 0 0 0 1.2 3.05 5.47 5.47 0 0 0 3 1.77c1.37.23 2.41-.78 3-2a7.44 7.44 0 0 0-.21-6.8 36.73 36.73 0 0 0-3.6-4.88c-1.34-1.66-2.91-3.15-4.15-4.87a11 11 0 0 1-1.3-11c1.52-3.94 5.22-5.39 8.4-3.81a3.91 3.91 0 0 0 2 0c1.14-.14 1.72.15 1.68 1.43-.07 2 0 4.06-.06 6.08 0 .46-.6.89-.91 1.33-.48-.37-1.19-.64-1.4-1.12-.59-1.36-.75-2.93-1.5-4.17A3.3 3.3 0 0 0 228.33 3a3.55 3.55 0 0 0-2.19 2 4.79 4.79 0 0 0 .66 5c1.53 2 3.2 4 4.87 5.95 2.34 2.74 4.55 5.55 5 9.31a11.87 11.87 0 0 1-1.93 8.54 6.78 6.78 0 0 1-7.43 2.92c-1.65-.38-3.31-.49-5.21-.72zM222 77.32c0-1.28-.08-2.56 0-3.83 0-.44.59-1.18.86-1.16a1.81 1.81 0 0 1 1.4.86 28.72 28.72 0 0 1 .64 3.12c.69 2.77 2.28 4.28 4.21 4.06s3.34-2.18 3.43-5a9.16 9.16 0 0 0-2.34-6.32c-1.72-2-3.58-4-5.31-6-3-3.52-4-7.5-2.47-11.94 1.4-4.08 4.51-5.52 8.61-4.18a5 5 0 0 0 2 0c1-.1 1.66.12 1.63 1.33v6.24c0 .44-.65 1.24-.81 1.2a2.36 2.36 0 0 1-1.5-1c-.51-1.21-.66-2.58-1.18-3.79s-1.52-2.28-3.13-1.92a2.72 2.72 0 0 0-2.17 3 7.82 7.82 0 0 0 .89 3.93 53.94 53.94 0 0 0 4.91 6.1c3.29 3.68 5.55 7.67 4.88 12.86-.54 4.19-3.14 7.44-6.72 8a8.32 8.32 0 0 1-2.38-.12c-1.38-.22-2.66-1-4.19-.38-.75.31-1.3-.18-1.27-1.11.01-1.27.01-2.61.01-3.95zM324.49 33.37c3.73.48 5.31-.63 5.94-4 .08-.42.05-.95.29-1.22a1.83 1.83 0 0 1 1.27-.58 1.22 1.22 0 0 1 .87.83c.07 2.55 0 5.1 0 7.87h-13.93c-.47 0-1.32-.26-1.34-.45A2.57 2.57 0 0 1 318 34a3.33 3.33 0 0 0 1.13-2.83c0-8.54 0-17.08-.05-25.62a11.07 11.07 0 0 0-.94-2.71 5 5 0 0 1-.31-1.93c0-.2.87-.43 1.35-.45q2.73-.08 5.46 0c.43 0 1.18.24 1.21.45.09.58.09 1.47-.27 1.75-1.11.86-1.13 2-1.13 3.15v25.94zM341.75 33.34c3.73.63 5.24-.41 5.95-4.32.29-1.53 1-1.68 2.3-1.28v8.46c-.44 0-.9.1-1.36.11h-12.39c-.5 0-1.39-.32-1.41-.55a4.7 4.7 0 0 1 .47-1.89c.3-.8 1-1.57 1-2.35q.1-13.14 0-26.27c0-.8-.63-1.59-.9-2.41a4.8 4.8 0 0 1-.33-1.92c0-.2.88-.44 1.35-.46 1.77 0 3.55-.06 5.31 0 .52 0 1.43.33 1.45.55a4.83 4.83 0 0 1-.5 1.87c-.3.75-.95 1.48-1 2.22-.07 9.13 0 18.26 0 27.39-.02.24.03.51.06.85zM311.35 36.31c-.86 0-1.72.06-2.57 0-.53 0-1.38-.22-1.47-.53a3.25 3.25 0 0 1 .28-1.77 11.2 11.2 0 0 0 .92-2.74q.11-12.88 0-25.79c0-.89-.67-1.77-1-2.68a3.36 3.36 0 0 1-.36-1.8c.08-.31.92-.57 1.43-.59 1.71-.07 3.43-.06 5.15 0 .47 0 1.28.2 1.35.46a3.68 3.68 0 0 1-.19 1.81 14.14 14.14 0 0 0-1 3.21q-.12 12.57 0 25.15c0 .95.68 1.89 1 2.86a5.22 5.22 0 0 1 .36 1.92c0 .19-.87.41-1.35.45-.83.09-1.69.04-2.55.04zM214 12.42L213 11c1-1.16 1.9-2.25 2.79-3.37.63-.8.5-1.36-.48-1.88a2.55 2.55 0 0 1-1.51-3.41 2.75 2.75 0 0 1 2.89-2.17 2.62 2.62 0 0 1 2.77 2.56 9.92 9.92 0 0 1-.54 4.19 11.84 11.84 0 0 1-4.92 5.5zM214 58.66l-1-1.57c1-1.21 1.94-2.29 2.81-3.42.54-.71.51-1.27-.43-1.78-1.67-.9-2.11-2.12-1.54-3.69a2.89 2.89 0 0 1 3.16-1.86 3 3 0 0 1 2.51 3.07c.22 4.2-2.38 6.75-5.51 9.25z" fill="#fff"/></svg>