<svg xmlns="http://www.w3.org/2000/svg" viewBox="0 0 300 52"><path d="M10.3 2.14H6.93l.46-2.1h9.14l-.46 2.11h-3.36L9.76 16.04H7.35L10.3 2.15zM18.26.04h2.41L19.3 6.52h4.39L25.06.04h2.41l-3.41 16h-2.41l1.57-7.41h-4.39l-1.57 7.41h-2.41l3.41-16zM36.17 8.66h-5.2l-1.1 5.27h6.11l-.78 2.11h-8.16l3.41-16h7.81l-.48 2.11h-5.43l-.91 4.41h5.2l-.46 2.11zM6.14 22.69h4.34L5.17 47.72h9.99l-1.22 3.79H0l6.14-28.82zM33.35 38.22h-9.37l-1.99 9.49h11l-1.4 3.79h-14.7l6.14-28.82H37.1l-.86 3.79h-9.79l-1.64 7.95h9.37l-.83 3.79zM51.48 51.51h-3.45c.04-.65.22-1.72.38-2.59-1.28 2.02-3.08 3.05-5.75 3.05-5.74 0-7.16-5.98-5.16-15.59 2.2-10.56 6.48-14.16 11.35-14.16 6.83 0 7.15 5.76 7.01 7.66h-4.3c0-.91.27-3.98-3.01-3.98-2.99 0-5.28 3.6-6.72 10.71-1.35 6.71-1.46 11.72 2.42 11.72 3.31 0 4.38-3.29 5.14-6.96l.4-1.91h-4.16l.83-3.79h8.39s-3.36 15.85-3.37 15.85zM62.26 43.52l-3.38 7.99h-4.39l12.57-28.82h5.86l.65 28.82h-4.25l-.06-7.99h-6.99zm6.9-3.74c-.06-6.15-.06-11.01.06-13.67h-.11c-.91 2.72-2.93 7.77-5.32 13.67h5.37zM82.37 22.69h4.34L81.4 47.72h9.99l-1.22 3.79H76.24l6.14-28.82zM107 22.69h6.54c6.28 0 8.76 4.08 7.53 9.79-1.13 5.23-4.95 7.24-9.84 7.24h-3.52l-2.49 11.79h-4.35l6.14-28.82zm1.5 13.39h3.04c2.94 0 4.82-1.31 5.41-4.36.6-3.1-.46-5.36-3.66-5.36h-2.73l-2.06 9.72zM127.68 38.67l-2.69 12.83h-4.34l6.14-28.82h7.34c6.08 0 8.16 3.89 7.08 8.68-.91 4.1-3.52 5.25-5.21 5.77 2.03.96 2.92 3.02 2.07 7.27-.67 3.41-1.05 5.39-1.13 7.1h-4.15c-.03-1.04.15-2.91 1.05-7.29.8-3.98.09-5.54-3.16-5.54h-3.01zm.78-3.58h2.7c3.01 0 5.02-.8 5.67-3.93.59-2.83-.48-4.88-3.66-4.88h-2.84l-1.86 8.81zM160.79 38.34c-1.92 8.92-5.48 13.62-10.99 13.62-7.18 0-8.28-6.89-6.28-16.1 1.73-7.97 5.24-13.65 10.92-13.65 6.82 0 8.51 6.05 6.34 16.13zm-12.96-1.92c-1.39 6.57-1.54 11.81 2.24 11.81 3.02 0 4.77-3.18 6.37-10.35 1.46-6.5 1.96-11.92-2.17-11.92-3.24 0-5.14 4.28-6.45 10.45zM178.5 51.51h-3.45c.04-.65.22-1.72.38-2.59-1.28 2.02-3.08 3.05-5.75 3.05-5.74 0-7.16-5.98-5.16-15.59 2.2-10.56 6.48-14.16 11.35-14.16 6.83 0 7.15 5.76 7.01 7.66h-4.3c0-.91.27-3.98-3.01-3.98-2.99 0-5.28 3.6-6.72 10.71-1.35 6.71-1.46 11.72 2.42 11.72 3.31 0 4.38-3.29 5.14-6.96l.4-1.91h-4.16l.83-3.79h8.39s-3.36 15.85-3.37 15.85zM190.25 38.67l-2.69 12.83h-4.34l6.14-28.82h7.34c6.08 0 8.16 3.89 7.08 8.68-.91 4.1-3.52 5.25-5.21 5.77 2.03.96 2.92 3.02 2.07 7.27-.67 3.41-1.05 5.39-1.13 7.1h-4.15c-.03-1.04.15-2.91 1.05-7.29.8-3.98.09-5.54-3.16-5.54h-3.01zm.79-3.58h2.7c3.01 0 5.02-.8 5.67-3.93.59-2.83-.48-4.88-3.66-4.88h-2.84l-1.86 8.81zM209.96 43.52l-3.38 7.99h-4.39l12.57-28.82h5.86l.65 28.82h-4.25l-.06-7.99h-6.99zm6.9-3.74c-.06-6.15-.06-11.01.06-13.67h-.11c-.91 2.72-2.93 7.77-5.32 13.67h5.37zM244.74 40.25c1.07-5.07 2.36-10.74 3.11-13.93h-.1c-2.05 5.18-7.14 16.86-10.88 25.18h-3.97c.08-7.15.08-20.2.31-25.25h-.14c-.54 3.36-1.72 9.5-2.77 14.46l-2.29 10.79H224l6.14-28.82h6.48c.28 7.8.31 17.84 0 21.5h.04c1.25-3.58 6.34-14.39 9.74-21.5h6.26l-6.14 28.82h-4.17l2.4-11.25zM272.64 40.25c1.07-5.07 2.36-10.74 3.11-13.93h-.1c-2.05 5.18-7.14 16.86-10.88 25.18h-3.97c.08-7.15.08-20.2.31-25.25h-.14c-.54 3.36-1.72 9.5-2.77 14.46l-2.29 10.79h-4.01l6.14-28.82h6.48c.28 7.8.31 17.84 0 21.5h.04c1.25-3.58 6.34-14.39 9.74-21.5h6.26l-6.14 28.82h-4.17l2.4-11.25zM296.25 38.22h-9.37l-1.99 9.49h11l-1.4 3.79h-14.7l6.14-28.82H300l-.86 3.79h-9.79l-1.64 7.95h9.37l-.83 3.79z" fill="#fff"/></svg>