<svg xmlns="http://www.w3.org/2000/svg" viewBox="0 0 210 137"><path d="M209.92 70.47c-.53-6.42-3.52-12.25-8.44-16.42-4.91-4.17-11.15-6.17-17.58-5.64-6.42.53-12.25 3.52-16.42 8.44-4.17 4.91-6.17 11.16-5.64 17.58.53 6.42 3.52 12.25 8.44 16.42 4.4 3.73 9.86 5.73 15.56 5.73.67 0 1.34-.03 2.02-.08 6.42-.53 12.25-3.52 16.42-8.44 4.17-4.91 6.17-11.16 5.64-17.58zM193 72.44c0 3.93-3.19 7.12-7.12 7.12s-7.12-3.19-7.12-7.12 3.19-7.12 7.12-7.12 7.12 3.19 7.12 7.12zM21.14 136.38h-5.65c-1.34 0-2.42-1.09-2.42-2.42v-30.05c0-1.34 1.09-2.42 2.42-2.42h5.65c1.34 0 2.42 1.09 2.42 2.42v8.38h-4.2v-5.94c0-.37-.3-.66-.66-.66h-.77c-.37 0-.66.3-.66.66v25.17c0 .37.3.67.67.67h.77c.37 0 .66-.3.66-.66v-9.56h4.2v12c0 1.34-1.09 2.42-2.42 2.42zM125.73 136.38h-8.08v-34.9h8.08c1.34 0 2.42 1.09 2.42 2.42v30.05c0 1.34-1.09 2.42-2.42 2.42zm-3.88-4.21h2.1v-25.83c0-.37-.3-.66-.66-.66h-1.44v26.49zM146.82 136.38h-5.65c-1.34 0-2.42-1.09-2.42-2.42v-30.05c0-1.34 1.09-2.42 2.42-2.42h5.65c1.34 0 2.42 1.09 2.42 2.42v30.05c0 1.34-1.09 2.42-2.42 2.42zm-3.21-4.21h.77c.37 0 .66-.3.66-.66v-25.17c0-.37-.3-.66-.66-.66h-.77c-.37 0-.66.3-.66.66v25.17c0 .37.3.66.66.66zM59.26 136.38h-5.65c-1.34 0-2.42-1.09-2.42-2.42v-33.02h4.2v30.58c0 .37.3.67.67.67h.75c.37 0 .67-.3.67-.67v-30.57h4.2v33.02c0 1.34-1.09 2.42-2.42 2.42zM39.07 125.1h-3.71c-1.1 0-1.99-.89-1.99-1.99v-19.9c0-1.1.89-1.99 1.99-1.99h3.71c1.1 0 1.99.89 1.99 1.99v19.9c0 1.1-.89 1.99-1.99 1.99zm-2.25-3.31h.79c.2 0 .36-.16.36-.36V104.9c0-.2-.16-.36-.36-.36h-.78c-.2 0-.36.16-.36.36v16.53c0 .2.16.36.36.36zM80.74 101.39v13.69l-2.53-13.69h-4.54v33.77h4.2v-14.01l2.54 14.01h4.54v-33.77h-4.21zM173.57 101.39l-.73 15.45-2.11-15.45h-4.36l-2.11 15.45-.73-15.45h-4.21l1.61 33.77h4.53l3.09-20.41 3.09 20.41h4.53l1.6-33.77h-4.2zM192.73 101.39v13.69l-2.54-13.69h-4.53v33.77h4.2v-14.01l2.54 14.01h4.53v-33.77h-4.2zM106.68 101.11h-9.64v2.98h2.72v31.07h4.2v-31.07h2.72v-2.98zM95.61 48.32H94.6l-2.91 12.41 5.06-12.38c-.38-.02-.76-.03-1.14-.03zM76.89 48.32l-.38 1.41c.28-.5.6-.97.93-1.41h-.55z" fill="#fff"/><path d="M114.6 57.6l-.72 3.53-6.44.72-2.05-2.63 3.05-7.18c-.66-.42-1.35-.8-2.05-1.16-1.22.78-2.65.85-4.03-.66l-2.61 12.71-6.44.72-2.05-2.63-.89 3.49-6.83.96-.78-1.59s-1.14 1.73-3.35 1.73c-.83 0-2.15-.66-3.16-2.29v32.91c0 .18.15.33.33.33H95.6c13.3 0 24.12-10.82 24.12-24.12 0-5.6-1.92-10.75-5.13-14.85zM95.61 79.56h-1.66V65.32h1.66c3.93 0 7.12 3.19 7.12 7.12s-3.19 7.12-7.12 7.12zM66.32 52.82l-.36-4.5h-.8l1.16 4.5zM156.07 62.9c.18 0 .33-.15.33-.33V53.9c-.17-.06-.33-.12-.5-.19l-1.73-3.69c-.28 2.09-.45 3.63-.45 3.63l-6.1 1.05-1.66-2.72s.77-1.66 1.64-3.66h-1.03c-.63 3.42-1.26 6.78-1.26 6.78l-6.54.99-1.44-2.32c-.33 1.21-2.03 5.99-8.23 5.52-2.69-.2-4.38-1.14-5.45-2.52v39.46c0 .18.15.33.33.33h32.09c.18 0 .33-.15.33-.33V82.32c0-.18-.15-.33-.33-.33h-15.41v-2.26h15.41c.18 0 .33-.15.33-.33V65.49c0-.18-.15-.33-.33-.33h-15.41V62.9h15.41zM154.4 48.32c-.07.52-.14 1.02-.2 1.5l1.39-1.5h-1.19z" fill="#fff"/><path fill="#fff" d="M54.78 5.48l8.92-.97 4.4 16.34 4.41-11.5 9.03-.97 2.79 8.92 4.51-15.9L98.19 0 89.6 32.99l-8.49 1.29-3.98-13.65-4.19 10.75 3.71-.32-8.98 33.42-8.38 1.29-4.18-13.6-5.6 15.43-9.24 1.82-7.42-32.34 9.57-1.29 4.4 17.19 3.66-12.14 9.45-1.61 2.53 9.78 3.06-12.58-4.19.54-6.55-31.49zM99.53 13.53l-4.72 19.02 12.39-1.3.89-4.11-7.67.66.88-3.36 7.88-.64.76-3.83-7.38.67.73-3.29 7.28-.57.95-4.05-11.99.8zM115.04 12.23l-4.83 18.31 4.45-.42 4.76-18.39-4.38.5zM127.64 10.81c-1.72.11-4.82.51-4.82.51l-5.2 18.3 4.44-.51 1.62-5.84s.97 0 2.34-.18l2.99 5.26 4.44-.6-3.18-5.67c2.49-.92 4.83-2.56 5.27-5.47.9-5.88-5.79-5.93-7.89-5.8zm2.88 5.69c-.35 2.23-2.48 2.32-3.68 2.4-.65.05-2.06.14-2.06.14l1.07-4.39s.96-.07 1.62-.07c.47 0 3.4-.26 3.05 1.92zM143.26 9.87c-1.7-.08-3.62.22-3.62.22l-3.46 17.38s3.25-.32 6.23-.64c2.98-.32 7.6-1.81 8.52-9.53.78-6.53-4.06-7.26-7.67-7.44zm2.51 8.57c-1.1 5.36-4.33 4.02-4.33 4.02l1.87-9.3s3.49.32 2.47 5.28zM162.04 20.02c0-1.39-1.12-2.51-2.51-2.51s-2.51 1.12-2.51 2.51c0 1.21.86 2.22 2 2.46 0 .46-.19 1.08-1.17 1.44 0 0 3.78.64 4.18-3.57v-.32z"/><path d="M88.08 40.46l-.55 2.18c-.5-1.05-1.51-2.54-3.18-2.54-2.59 0-8.12 2.47-9.32 10.98-1.2 8.51 2.65 11.46 4.39 11.4 1-.03 2.46-.86 3.52-1.56l-.39 1.56 5.17-.78 5.59-22.01-5.23.78zm-3.07 10.05s-1.2 5.77-2.47 5.65-1.98-2.04-1.5-5.08 2.47-5.32 3.55-5.32.96 2.16.42 4.75zM105.04 38.6c-1.55-.32-2.51.32-3.05 1.46-.29.61-.6.79-.99.62l.43-2.08-4.87.66-4.87 21.47 5.35-.72 2.61-12.71c2.62 2.86 5.42.04 6.66-2.57 1.51-3.19.28-5.81-1.26-6.13zM118.91 36.72c-1.55-.32-2.51.32-3.05 1.46-.29.61-.6.79-.99.62l.43-2.08-4.87.66-4.87 21.47 5.35-.72 2.61-12.71c2.62 2.86 5.42.04 6.66-2.57 1.51-3.19.28-5.81-1.26-6.13zM136.81 39.22c0-2.58-1.46-6.09-5.62-6.15s-8.37 5.56-9.13 11.54c-.76 5.97-.23 11.36 4.22 12.35 4.45 1 8.02-3.34 8.02-3.34l-1.52-5.39s-4.51 7.35-6.16-.94l9.91-1.54s.29-3.96.29-6.54zm-5.5 2.98l-3.04.29s.29-3.4 2.28-3.4c1.17 0 .76 3.1.76 3.1zM140.76 32.55l-3.48 20.83 5.38-.82s2.09-11.14 2.47-13.45 3.25-2.46 2.78.48-1.95 12.4-1.95 12.4l5.05-.76s2.27-10.19 2.72-13.73-.5-5.68-2.72-5.78c-3.63-.17-5.46 2.37-5.46 2.37l.4-1.93-5.2.41zM167.63 31.44l-.88 4.57s-3.49-1.87-5.01 0 2.36 3.29 3.78 4.79 2.5 4.4.74 7.39c-1.77 3-5.94 5.35-12.13 1.72l.64-4.82s4.13 1.73 5.4.55-.88-2.57-2.8-4.04-2.8-5.2-.64-7.9 6.38-4.13 10.9-2.26zM40.44 70.29c-.06.01-.12.02-.17.02-.4 0-.77-.28-.86-.69l-4.88-21.3h-3.1c-.15 0-.28.1-.32.24L24.79 70.9l-6.32-22.34a.333.333 0 0 0-.32-.24H.33c-.11 0-.21.05-.27.14s-.08.2-.05.3l14.85 46.49c.04.14.17.23.32.23H34.4c.14 0 .27-.09.32-.23l8.12-25.42-2.39.47zM59.8 66.59l-.38.06s-.09.01-.14.01c-.38 0-.73-.25-.85-.63l-1.72-5.6-3.09 8.52v27.28c0 .18.15.33.33.33h17.03c.18 0 .33-.15.33-.33V68.31l-8.17 1.26-3.35-2.99z" fill="#fff"/></svg>