<svg xmlns="http://www.w3.org/2000/svg" width="280" height="51" viewBox="0 0 280 51"><path d="M276 0h-7.34c-3.44 0-3.91.17-5.12 1.57-.48.56-1 1.25-1.47 1.88V0h-13.46v49.85H262V8.48h4.57v41.37H280V3.24c0-1.5-1.54-3.24-4-3.24zM42.74 0h-5.86c-3.44 0-3.9.17-5.11 1.57-.63.72-1.33 1.66-1.86 2.4v-.73c0-1.5-1.54-3.24-4.05-3.24H20c-3.44 0-3.9.17-5.11 1.57-.49.56-1 1.25-1.48 1.88V0H0v49.85h13.41V8.48h3.53v41.37H30.1V8.48h3.54v41.37h13.15V3.24c0-1.5-1.54-3.24-4.05-3.24zM77.79 9.07L75.42.86H56.18v48.99h19.35l2.26-8.14h-8.56V28.2h8.1v-8.66h-8.64V9.07h9.1zM148.91 9.07L146.54.86H127.3v48.99h19.36l2.25-8.14h-8.55V28.2h8.1v-8.66h-8.65V9.07h9.1zM171.42.86h-12.95v48.99h19.36l2.25-8.14h-8.55L171.42.86zM201.69.86h-12.94v48.99h19.35l2.25-8.14h-8.55L201.69.86zM114.09 0H86.56v49.85h27.53A3.88 3.88 0 0 0 118 46V3.87A3.88 3.88 0 0 0 114.09 0zM105 41.31h-5.78V8H105zM220.71.86h12.49v48.99h-12.49z" fill="#fff"/></svg>