<svg xmlns="http://www.w3.org/2000/svg" width="300" height="82" viewBox="0 0 300 82"><polygon points="28.65 2.8 10.98 0 1.7 8.49 1.7 26.16 9.59 29.35 16.67 21.47 19.27 22.76 19.27 35.94 6.49 32.85 0 40.34 18.57 44.73 27.66 35.5 27.66 18.07 19.77 13.68 12.38 21.37 10.08 20.57 10.08 8.19 24.14 10.48 28.65 2.8" fill="#fff"/><polygon points="44.73 20.07 47.52 20.07 50.72 14.68 44.73 14.68 44.73 5.59 37.24 8.69 37.24 14.68 33.75 20.07 37.24 20.07 37.24 40.93 44.53 44.23 49.92 38.24 44.73 36.24 44.73 20.07" fill="#fff"/><polygon points="214.51 56.21 217.31 56.21 220.5 50.82 214.51 50.82 214.51 41.73 207.02 44.83 207.02 50.82 203.53 56.21 207.02 56.21 207.02 77.07 214.31 80.37 219.7 74.38 214.51 72.38 214.51 56.21" fill="#fff"/><path d="M65.3,11.28l-9.79,8.79V39.94l12,4.29,10.29-6.49V15.28Zm4.19,25L63.5,34V20.07l6,1.65Z" fill="#fff"/><path d="M253.79,47.59,244,56.38V76.25l12,4.29,10.28-6.49V51.59Zm4.19,25-6-2.29V56.38L258,58Z" fill="#fff"/><polygon points="87.06 5.09 87.06 40.93 93.15 44.23 97.54 37.44 94.45 35.5 94.45 1.2 87.06 5.09" fill="#fff"/><polygon points="107.13 11.28 100.94 18.57 110.52 20.07 102.14 31.65 110.52 32.25 110.52 40.24 105.05 39.74 100.44 47.62 110.02 48.82 119.31 40.73 119.31 24.91 112.42 24.91 121.61 13.48 107.13 11.28" fill="#fff"/><path d="M83.42,53.24,79,56.15,84.14,61l-3.72,2.27V78.1l6.64,1.72,6.24-4.35V61.14Zm5,20.75L85,73.64V63.91l1.56-1.23,1.88,1.23Z" fill="#fff"/><path d="M104.24,74l7.46-9.42-6.35-4.92L99,63.17V78.33h5.65l2.87,1.49,4.18-4.28L107.93,74ZM104,65.78l3,.75-3,3.56Z" fill="#fff"/><polygon points="114.75 63.86 117.95 59.65 121.14 61.99 123.86 59.65 127.59 62.68 124.22 66.21 122.77 64.93 122.77 73.99 126.39 75.73 122.77 79.82 120.12 77.96 117.64 77.96 117.64 65.97 114.75 63.86" fill="#fff"/><polygon points="130.37 44.79 135.55 36.95 146.41 39.97 146.41 44.23 153.28 36.23 164.98 40.51 164.98 71.93 168.6 73.13 163.77 80.37 156.66 76.99 156.66 47.45 150.87 45.64 146.41 50.7 146.41 79.82 137.6 79.82 137.6 47.2 130.37 44.79" fill="#fff"/><path d="M196.33,71.53V50.85l-11.06-3.09-9.78,8.15v21.8l10.29,2.66L189.3,76l5.15,4.38,4.89-6.61Zm-7.89,1.2-5-1.22V56.09l5,.94Z" fill="#fff"/><polygon points="224.1 55.5 228.95 49.14 234.95 52.32 234.95 71.78 238.07 73.63 232.53 80.37 227.22 77.33 227.22 57.23 224.1 55.5" fill="#fff"/><rect x="227.81" y="39.82" width="5.66" height="5.66" transform="translate(90.98 -145.79) rotate(42.98)" fill="#fff"/><polygon points="273.17 55.63 275.87 57.36 275.87 80.37 282.82 80.37 282.82 56.38 284.65 55.63 289.77 58.04 289.77 77.82 295.08 80.54 300 73.96 297.2 72.55 297.2 52.44 287.26 47.59 283.79 52.15 278.09 48.19 273.17 55.63" fill="#fff"/></svg>