<svg xmlns="http://www.w3.org/2000/svg" viewBox="0 0 200 148"><path d="M73.69 71.76c-1.89-.39-2.57-2.32-2.55-4.02.06-4.97 4.39-8.94 8.68-11.46l-1.61.17c-1.74.18-3.2-.42-4.2-1.98l-1.57 1.32c-.67.56-1.97.97-2.87.96-2.47-.03-3.94-2.28-3.81-4.52.22-3.81 2.36-7.66 4.22-11.2-1.56.47-2.5 1.67-3.43 2.82-1.39 1.71-2.43 3.59-3.39 5.59l-3.17 6.63c-.14.29-.73.57-1.02.59-.84.05-1.1-1.18-1.78-.78-2.24 1.3-5.21 1.08-6.95-1.12-1.63.88-3.3 1.85-5.17 1.65-1.18-.13-2.32-.64-2.92-1.64-.18-.31-.42-.59-.67-.73-1.51 1.66-3.66 2.6-5.83 2.34-1.51-.18-2.63-1-3.28-2.47-2.02 1.36-4.16 2.58-6.57 2.48-3.36-.14-5.9-2.7-6.1-5.98-.27-4.49 2.3-10.43 6.76-11.94 1.62-.55 3.41-.39 4.75.56s1.81 3.12 1.36 4.84c-1.07 4.12-4.47 6.97-8.77 5.87-.12 1.16.05 2.15.49 3.08.57 1.18 1.91 1.72 3.18 1.11 3.8-1.82 5.79-6.15 6.93-10.17 1.49-5.24 3.78-11.37 7.97-14.91.61-.51 1.44-1.02 2.24-.74 1.64.58 2.06 3.41 1.42 5.72-1.39 5.05-4.65 10.35-8.97 13.46-.61 1.74-1.15 5.56-.37 6.13.17.13.67.04.88-.1 3.19-2.24 4.73-6.21 6.17-9.86s2.85-6.75 4.74-9.96c1.45-2.46 4.97-7.63 6.6-4.91 1.48 2.47.43 6.74-1.07 9.47-1.2 2.17-2.7 4.08-4.27 5.99-1 1.22-2.2 2.14-3.39 3.16-.5 1.29-.83 2.79-1.01 4.19l-.03 1.67c0 .23.26.68.47.74 1 .3 3.35-2.54 4.3-4.03 2.12-3.33 3.87-6.76 5.73-10.26.2-.38.67-.92 1.01-1.07.7-.31 1.46.01 1.84.47.46.55.66 1.3.36 2.02l-.83 1.95-2.59 5.26c-.86 1.74-2.29 4.95-.95 5.51 2 .84 3.97-4.78 4.94-7.1L62.34 40c.44-1.04 1.74-3.03 2.49-2.98.28.02.65.5.73.81l.66 2.57c1.97-2.06 5.15-3.76 6.97-1.69 1.56 1.78.03 4.79-1.03 7.02s-3.63 7.41-2.29 8.48c.7.55 2.95-2.03 3.26-3.06l.8-2.7c1.54-3.53 3.79-6.6 6.68-9.13 1.78-1.55 4.58-2.48 6.15-1.1.1.09.38.35.47.27l.39-.38c.29-.28.7-.59 1.09-.61 1.21-.07 1.89 2.03 1.28 4.3s-1.38 4.6-2.35 6.81l-2.06 4.72c.58-.23 1.04-.58 1.49-1.03l2.2-2.22 1.53-1.58c.17-.17.72-.25.93-.14.98.53-.58 3.48-1.82 4.99-1.57 1.91-3.61 3.24-5.91 4.23-1.63 4.29-3.82 10.06-7.04 13.17-.86.82-2.02 1.28-3.3 1.02zm-30.55-35.8l1.13-2.65c.04-.1.11-.41.01-.4l-.42.04A89.683 89.683 0 0 0 38.8 42c.69-.06 1.06-.77 1.41-1.3 1.05-1.57 2.19-3.02 2.93-4.75zm8.03 2.53c.93-1.41 2.62-4.77 2.44-5.42-.02-.08-.22-.13-.28-.08l-.24.21c-1.83 2.99-3.46 5.99-5.06 9.25.76-.18 1.09-.86 1.47-1.43l1.66-2.53zm-21.14 2.75c.1-.3-.2-1.17-.5-1.08-1.22.36-2.06 1.31-2.79 2.27-.96 1.27-2.66 4.09-2.13 4.64.88.91 4.35-2.57 5.42-5.84zm48.48 12.72c1.43-.96 2.28-2.36 3.11-3.72 1.45-2.39 3.75-6.29 3.4-8.76-.45-.11-1.06.15-1.4.49-2.58 2.63-5.95 7.46-6.12 11.04-.02.43.55 1.25 1.01.95zM74.42 68.2c1.67-2.11 2.79-4.4 3.73-6.88-.81.44-1.21 1.11-1.64 1.79-.96 1.53-2.14 3.07-2.09 5.09zm10.7 37.06c-1.21-2.5-3.32-7.92-5.43-7.92h-5.6l.1 3.65.1 10.54c.02 2.15.92 4.6 2.94 5.36.56.21 1.07.3 1.58.82l-11.82-.05-2.95-.08c-.12 0-.34-.35-.25-.4l.38-.23c1.86-1.1 3.27-2.58 4.06-4.65V82.63c0-1.61-1.01-2.86-2.16-3.75-.66-.51-1.42-.52-2.06-1.33h18.91c1.77.36 3.36.94 4.88 1.82 2.47 1.5 3.96 3.84 4.46 6.69.57 3.23-.57 6.54-3.18 8.55-1.27.98-2.63 1.54-4.31 2.1 3.46 2 5.85 5 7.32 8.61 2.02 4.93 4.12 9.92 8.83 12.93-1 .32-1.89.08-2.83-.12-4.58-.96-7.8-3.12-10.2-7.13l-2.76-5.72zm-4.06-9.73c4.85-1.82 5.64-8.15 3.82-12.58-.66-1.61-1.78-3.01-3.46-3.6-.89-.31-1.95-.09-2.91-.18-2.24-.22-4.23 1.19-4.5 3.52v3.58l.08 8.6c0 .29.38.67.65.67h6.32zm90.87 21.62c1.45.02 2.82.23 4.38-.04-3.21-1.59-5.64-4.17-6.61-7.39l-.06-11.83.02-12.68 26.06 33.4.22-5.7.17-16.64.1-13.79c.65-1.97 1.84-3.51 3.53-4.68l.25-.35c.04-.05-.15-.24-.19-.25h-9.62c-.56-.19-1.17-.27-1.63.16 1.81 1.02 3.12 2.26 4.36 3.79.5.66 1.07 1.45 1.31 2.31l-.04 22.66-21.89-28.74-3.83-.09c-1.87-.04-3.58-.09-5.53.18.36.67.81.92 1.25 1.35l3.56 3.48v6.03l-.06 17.55-.17 4.9c-.77 2.65-2.86 4.37-5.03 6.07l2.11.17 7.35.13zm-30.13-8.77l-.03-12.03h4.4c1.41.02 2.6 1.03 3.49 2.06 1.64 1.92 1.92 4.14 2.52 4.93.06.08.37-.04.54-.11l-.02-14.7c-.13-.2-.37-.45-.52-.51-.13-.05-.39.33-.42.48-.37 1.47-1.02 3-1.91 4.26a9.32 9.32 0 0 1-2.86 2.11l-5.21.04-.09-5.69-.08-6.3c-.04-3.26 3.96-4.34 7.22-3.8 2.34.39 4.55 1.42 6.14 3.19 1.7 1.88 2.58 4.07 3.64 6.53.36-1.48.09-2.87.02-4.27l-.14-2.78-.28-4.37-5.06.06-21.83.08c.01.21.27.56.46.64 1.51.59 2.5 1.72 2.97 3.29.18.59.47 1.45.47 2.11l.1 14.77.06 12.83c0 1.6-.73 3.02-1.89 3.99l-1.99 1.68s.35.2.48.21l1.62.14 13.16.11 11.32.08c.29-.42.35-.94.39-1.46l.37-5.33.15-3.85.11-.57c.02-.1-.15-.19-.44-.29-1.97 5.37-4.94 10.08-11.18 9.9-1.06-.03-2.1-.04-3.08-.35-1.48-.48-2.54-1.67-2.56-3.2l-.02-2.32-.03-1.54zm-93.46-4.51l-1.54-.16H36.58l-2.32 6.87c-.42 1.23 1.22 3.58 2.88 4.73l3.23 2.23-8.35-.05-5.75-.17c2.29-1.5 3.9-3.11 5.3-5.45l12.89-36.18 10.43 28.21 2.68 7.32c1.11 2.33 2.9 4.19 5.12 5.5l.32.5-5.15.1-10.22.03c.93-.78 1.86-1.1 2.57-1.79 1.21-1.17 1.23-2.86.71-4.36l-2.56-7.34zm-10.94-2.53l6.24-.02 3.76-.15-4.97-14.36-1.07 2.77-2.59 7.68-1.37 4.08zm93.18 3.19c-1.08 1.02-1.63 2.12-2.42 3.19-.96 1.3-1.93 2.48-3.07 3.63-2.61 2.65-5.74 4.99-9.58 4.14-1.48-.32-3.28-1.71-3.28-3.56V83.16c0-1.71 1.4-3.07 2.42-4.11.61-.62 1.34-.62 1.9-1.5l-15-.02c.1.43.45.62.85.8 2.02.87 3.35 2.73 3.38 4.97l.09 7.87.09 1.75-.04 19.14c0 2.64-1.78 4.21-4.2 5.25l6.81.17 16.56.12c.71 0 1.4.23 2.1.05.58-.15 1.04-.84 1.17-1.53l2.23-11.6zM17.86 51.39c.13-1.61-.92-2.84-2.12-3.73l-3.38-2.51c-2.31-1.72-3.54-3.97-1.98-6.53 1.96-3.22 4.84-5.72 8.21-7.44.33-.17.84-.22 1.2-.16.14.68.06 1.34-.19 1.95l-2.56 6.31c-.71 1.76-.95 3.71.4 5.29.23.27.93-.23 1.07-.58l3.86-9.35c.36-.88.76-1.88.71-2.83-.09-1.86-1.4-3.52-3.15-3.97-2.84-.74-6.05 1.28-8.08 3.3l-1.48 1.48c-2.11 2.11-4.46 5.64-4.72 8.65-.37 4.13 5.28 7.34 7.88 10.09.51.54.31 1.39-.31 1.76-1.97 1.16-6.32-1.84-8.43-3.47-1.42-1.09-2.83-2.23-4.17-1.06s-.17 3.01 1.53 4.35c3.65 2.86 8.55 5.35 12.83 2.81 1.6-.95 2.75-2.53 2.89-4.34zm110.8 26l-.59-2.51 2.1-1.82-2.51-.32c-.91-.12-.65-2.28-1.52-2.62l-.94 2.6-2.81.36 2 1.77-.47 2.27c-.02.08.21.47.26.4.03-.04.19-.21.24-.24l1.81-1.08 1.77 1.07c.06.04.47.09.65.11z" fill="#fff"/><path d="M28.87 81.8l2.71-.32c1.19.88 2.31 1.86 2.61 2.28.07 1.01.47 4.24.82 6.96l1.91-5.37c-.11-.97-.18-1.64-.19-1.83 0-.45 0-1.52-4.07-4.41-.26-.18-.58-.27-.89-.23l-2.52.29-12.37-14.78c16.05-.09 37.95-.17 39.72-.07.41.08.84-.05 1.14-.35.25-.25.38-.59.38-.94v-2.62c-.41-.07-.78-.18-1.1-.32-.48.15-.97.25-1.46.32v1.34H55c-1.18-.01-2.85-.02-4.86-.02-3.54 0-8.48 0-14.68.03-10.54.04-21.21.1-21.32.1-.5 0-.95.29-1.15.74-.21.45-.14.98.18 1.36l14.56 17.39c.28.33.7.5 1.13.45zM58.14 26.2V2.65H89.8v25.16c0 .38.17.74.46.98l1.59 1.34c.37.31.88.39 1.32.2 1.26-.53 3.72-1.16 4.93-.61.77.35 1.71 1.22 2.63 2.06 1.47 1.35 2.86 2.63 4.38 2.63.5 0 1.2-.06 2-.13 1.22-.11 4.43-.39 5.15.04l.08.13c1.15 1.78 2.01 2.27 4.82 1.69.52-.11 1.13-.26 1.77-.41 2.21-.54 5.92-1.44 7.42-.83.83.34 1.58.8 2.32 1.25 1.3.79 2.53 1.54 3.94 1.45.74-.05 1.49-.38 2.37-.76 1.64-.72 3.88-1.7 7.11-1.27 5.04.67 5.33.85 6.4 1.52.91.57 2.26 1.98 2.7 2.48.26.29.63.45 1.01.43 3.26-.14 5.17-.27 6.33-.39l.94 20.64c.01.28.11.54.29.75l5.3 6.46.12 6c.39-.01.8-.02 1.23-.02s.89 0 1.33.02l-.13-6.49c0-.29-.11-.56-.29-.79l-5.31-6.47-.99-21.63c-.02-.45-.28-.86-.68-1.08-.33-.17-.72-.19-1.06-.06-.63.13-3.71.33-6.59.47-.62-.66-1.81-1.85-2.84-2.49-1.55-.97-2.24-1.2-7.42-1.88-3.93-.52-6.66.67-8.47 1.46-.6.26-1.22.53-1.51.55-.6.04-1.49-.51-2.44-1.08-.78-.48-1.67-1.01-2.68-1.43-2.27-.93-6-.02-8.99.71-.62.15-1.21.3-1.69.39-1.19.25-1.52.19-1.61.15-.1-.04-.34-.42-.54-.73l-.13-.2c-1.02-1.56-3.74-1.45-7.48-1.13-.71.06-1.39.12-1.78.12-.52 0-1.85-1.22-2.64-1.96-1.06-.97-2.16-1.98-3.3-2.5-2.04-.93-4.87-.17-6.23.3l-.56-.47V1.37c0-.71-.57-1.28-1.28-1.28H56.87c-.71 0-1.28.57-1.28 1.28v22.87c1.01.35 1.89 1.02 2.56 1.96zM127.78 134.38l-1.59-1.24c0-.08.02-.2.06-.35.21-.76.05-1.37-.11-1.96-.16-.61-.38-1.44-.38-3.04 0-2.05.92-4.21 1.81-6.3-.31.05-.64.07-.97.07-.48 0-.91-.05-1.22-.09-.12-.01-.27-.03-.32-.03h-.25c-.85 2.03-1.61 4.13-1.61 6.35 0 1.93.28 2.99.47 3.7.11.41.14.54.11.62-.39 1.42.07 2.27.22 2.5.08.11.17.22.28.3l1.45 1.13.21 8.89c-.83-.3-1.62-.7-1.96-1.13-1.35-1.67-2.63-1.76-4.5-1.76h-.84c-2.38 0-5.85-1.01-9.28-2.7-1.07-.53-2.01-.95-2.84-1.32-2.1-.94-3.36-1.5-4.18-2.66-1.32-1.88-2.99-5.96-3.09-8.2-.09-2.27-.64-3.63-1.83-5.25l-.13-.03a21.8 21.8 0 0 1-4.4-1.39c.23.27.46.52.65.75.35.4.65.74.88 1.01 1.57 1.87 2.18 2.78 2.27 5.01.12 2.97 2.15 7.58 3.55 9.57 1.22 1.74 2.9 2.49 5.23 3.53.81.36 1.72.77 2.75 1.27 3.83 1.89 7.62 2.97 10.41 2.97h.47c1.99 0 2.23.02 2.87.81 1.37 1.7 4.65 2.41 5.02 2.48a1.24 1.24 0 0 0 1.08-.27c.3-.25.47-.62.46-1.01l-.27-11.24c0-.38-.19-.74-.49-.98z" fill="#fff"/></svg>