<svg xmlns="http://www.w3.org/2000/svg" viewBox="0 0 302 77"><path fill="#fff" d="M35.82 29.62h2.66v1.82h-2.66zM36.79 16.91h1.49v1.49h-1.49zM257.57 30.91l-.55-1.21h-9.17l2.11 5.31h17.25l1.82-5.31h-7.55l.34 1.21h-4.25z"/><path fill="#fff" d="M252.25 19.07l4.77 10.63h4.46l-2.77-10.02-6.46-.61zM253.77 49.5h11.53l1.38-5.08h-14.43l1.52 5.08zM221.49 33.72v5.29l21.16-4.64 1.43-9.09-22.59 8.44zM239.98 64.93l9.98-.78-12.06-15.87 1.18 9.48-10.93-1.04 1.42-9.26 16.41-1.67 1.01-9.69-28.23 6.12-1.37 6.48 7.88-.8-6.63 16.55 20.95-2.64.39 3.12z"/><path fill="#fff" d="M218.46 20.29l-19.5 18.54 11.63-4.64-3.9 31.57 10.1-2.79-1.07-30.83 10.35-4.13-7.61-7.72zM266.68 37.14s-6.41-.03-10.68-.03c-2.14 0-3.74 0-3.74.03l1.67 5.31h10.63l2.13-5.31z"/><path fill="#fff" d="M171.14 49.89l34.66-4.79-37.09-4.78 2.43 9.57zM281.51 62.75l12.7 4.04.68-20.89-5.2 12.76-3.46-1-1.71-7.72h4.86l2.36-16.43h-4.63l7.09-13.23-8.98 2.94-2.85 10.29h-3.3l-4.82-11.29-7.59-2.47 7.13 13.75h-4.78l2.24 16.43h2.55l-6.81 14.98 12.02-13.04 2.47 10.87zm-4.15-22.98h6.61l-1 3.82h-4.88l-.73-3.82zM127.47 45.56l-34.54-4.78c0 .35 3.97 12.25 3.97 12.25l30.57-7.47zM164.45 58.4l.51-29.53-37.49.71 5.83 33.26 31.15-4.43zm-9.89-19.92l-.54 12.78-11.12 1.07-1.84-13.14 13.49-.71z"/><path fill="#fff" d="M68.66 37.16l-.59-10.62-13.65-2.04 7.82 46.62 35.35-14.24-27.88 1.17-.59-12.02 20.89-3.5 4.43-14.58-25.78 9.21zM264.63 64.93l3.11-13.75h-15.48l2.28 13.75h10.09zm-2.96-8.18l-.73 3.38h-2.55l-.4-3.38h3.69z"/><path d="M50.24 36.92l2.65-.7-.79-4.67-.44-.4.33-.19-1.75-10.35 5.05.85.62-.62-6.04-1.35 3.11-5.35-6.19.27 1.61-5.98-5.9 1.86V4.1l-5.21 3.32-1.59-5.99-4.19 4.56L28.42.62l-2.86 5.49-4.37-4.38-1.35 6.04-5.35-3.11.27 6.19-5.98-1.61 1.86 5.9H4.45l3.32 5.21-5.99 1.59 4.56 4.19-5.37 3.09 5.49 2.86-4.38 4.37 6.04 1.35-3.11 5.35 6.19-.27-1.61 5.98 5.9-1.86v6.19l5.21-3.32 1.59 5.99 4.19-4.56 3.09 5.37 2.86-5.49 4.37 4.38 1.35-6.04 5.35 3.11-.27-6.19 5.98 1.61-1.86-5.9h6.19l-3.32-5.21zM29.4 16.79v-5.06h15.14v11.28h-8.06v-4.03l-2.35 4.56-5.09-1.94 2.38-4.81H29.4zm15.14 7.71v12.07H29.75V24.5h14.79zm.53 19.27H23.86l-5.89-5.24-.32 4.94-5.14-.89 1.48-15.31 4.69.35-.29 4.37c.3.43.65.76 1.34.05v-6.79h-6.76v-5.19h6.76v-1.63h-6.76v-5.19h6.76v-2.06h5.69v2.06h2.69v5.19h-2.69v1.63h2.69v5.19h-2.69v2.38h2.69v5.19h-2.69v3.19l1.78 1.76h17.87v5.99z" fill="#fff"/><path d="M295.57 30.2l-3.03-.05L301 14.53l-18.55 6.43-2.04 7.37-3.45-8.56-15.99-5.76 6.43 12.02-5.07.21-2.46-9.2-13.22-2.61 5.38 11.86-4.96.05.78-5.3-17.78 6.22-11.75-11.06-25.38 24.12-24.98-2.99.75-11.65-44.59.69 2.57 15.4-31.9-4.15 4.34-14.71-27.25 9.58-.79-8.39-20.83-3.49 9.43 55.77 68.94-27.78 2.19 17.77 36.68-5.49.37-12.49 2.51 5.96 35.43-6.06-2.88 22.26 12.75-4.13-.73 2.25 21.79-3.4.78 2.77 31.82-.05 8.03-9.35 1.43 6.58 18.86 6.27.89-31.09-4.81 4.03 1.83-14.22zM72.84 54.62l-.41-6.3 18.02-3.13 3.02 8.11-20.62 1.32zm170.25-5.12l5.3-.46 1.22 9.01-6.52-8.55z" fill="none" stroke="#fff" stroke-miterlimit="10" stroke-width=".45"/></svg>