<svg xmlns="http://www.w3.org/2000/svg" viewBox="0 0 400 33"><path d="M205.12 16.03l.53.12c.97-.55 4.19-10.75 4.98-12.59.21-.49.4-1.15.75-1.54 1.31-1.47 4.1-1.31 5.89-1.33.58 0 1.22-.42 1.73.08.43.42-.03 1.16-.21 1.62-1.05 2.65-2.99 5.54-4.21 8.23-2.93 6.44-5.01 13.4-8.16 19.82-.29.6-.64 1.58-1.27 1.84-1.56.64-3.81-.31-4.05-2.07-.39-2.88.13-5.97-.2-8.77-.05-.4-.13-.74-.46-1-1.7 2.86-2.74 6.48-4.38 9.33-1.36 2.36-4.56 3.16-6.77 1.46-.35-1.7.3-3.46.78-5.08 1.52-5.13 4.01-10.92 5.94-16 .54-1.42 2.5-5.26 2.52-6.44 0-.25-.19-.53-.18-.76.03-.75 2.45-1.78 3.13-1.96 2.06-.56 4.99-.24 4.91 2.52s-.84 6.07-1.1 8.97c-.1 1.16-.03 2.38-.17 3.54zM293.23 1.05c.28 2.46.15 4.94.17 7.42.01.98.22 2.02.2 3.11-.02 1.28-.42 2.96-.39 4.2 0 .31 0 .61.29.82.67-3.12 1.82-6.08 2.78-9.1.42-1.33 1.13-5 1.8-5.88.61-.79 3.21-1.01 4.2-.93 1.2.09 2.37.39 1.82 1.84-3.54 9.48-7.11 18.95-9.37 28.85-.79 1.15-2.71 1.3-3.6.22-.95-1.14-2.01-6.17-2.39-7.86-.11-.49-.36-2.92-.73-2.92-.33.22-.26.48-.28.81-.17 2.31-.32 4.62-.77 6.91-.63 3.2-.78 4.31-4.43 3.98-1.06-.1-3.47-.59-3.16-2.05 3.22-8.62 5.26-17.58 7.56-26.47.22-.85-.2-1.23.77-1.79.65-.38 5.21-1.48 5.53-1.15zM398.11 9.96c-.08.08-1.67 1.04-1.76 1.07-2.51.76-2.06-1.54-3.31-2.38-2.06-1.38-4.85.33-5.21 2.63-.51 3.24 3.91 3.95 5.86 5.5 5 3.97 2.5 10.1-1.93 13.25-3.91 2.78-12.18 3.36-14.41-1.83-1.38-3.2.49-7.65 4.04-8.19s1.52 3.16 3.8 4.19c2.92 1.32 6.1-.85 4.46-3.91-1.83-3.41-6.44-1.15-8.38-5.15C377.69 7.79 385.74.8 392.78.5c4.48-.19 8.4 1.07 6.92 6.38-.17.6-1.16 2.7-1.58 3.09zM18.08 24.1c-2.53.3-5.16 1.32-7.37 2.6-.64.37-1.8 1.06-2.3 1.54-1.22 1.18-1.71 3.11-3.57 3.74-1.33.45-5.42 1.08-4.77-1.3.27-.97 2.26-4.1 2.91-5.14 1.29-2.07 2.75-4.09 4.17-6.07C10.17 15.23 20.34 1.99 25.02.78c1.82-.47 3.35.7 3.3 2.56-.1 3.67-2.26 8.01-3.29 11.53.85.86 2.47-1.13 3.15.32.4.86-.31 4.25-.69 5.26-.12.32-.61 1.38-.83 1.55-.67.51-2.91.22-3.37 1.02-.29.52-.92 3.02-1.14 3.8-.35 1.27-.56 3.16-1 4.3-.98 2.55-5.57 2.14-5.81.2-.2-1.64 2.26-5.47 2.74-7.21zm-4.2-4.57c.79.16 1.31-.42 1.98-.67.92-.34 3.99-1.13 4.42-1.79.66-2.91 2.25-5.97 2.86-8.84.09-.42.54-2.29-.04-2.41-2.03 1.69-3.59 3.9-5.07 6.09-.52.77-4.64 7.19-4.16 7.63zM364.3.56c1.38-.16 4.51-.48 4.21 1.64-.2 1.4-2.45 4.51-3.68 5.11-2.15 1.06-4.94 1.09-7.25 1.52-.37.61-1.89 3.14-1.11 3.67 1.25.2 2.49.34 3.76.26.73-.05 3.39-.66 3.82-.53 1.2.37-.46 3.3-.98 3.92-2.07 2.51-4.22 2.48-7.31 2.18-.4.19-1.79 3.83-1.81 4.42-.14 4.23 4.99-.75 6.37-1.12 2.42-.65 2.12 2.35 1.71 3.9-.89 3.34-3.49 6.19-6.99 6.72-2.14.33-6.29.06-7.59-1.94-1.52-2.34.32-8.81 1.13-11.47.87-2.85 3.48-7.61 3.71-10.19.19-2.15-.82-1.27-2.3-1.73-.66-.94 2.35-5.48 3.39-5.79.65-.2 1.27.25 1.93.29 3.29.21 5.88-.5 9.01-.86zM261.03 20.83c-.32-.44-2.59.24-3.13.4-1 .3-2.23.69-2.98 1.41-2.33 2.26-2.84 8.81-6.42 9.31-6.96.97-1.24-8.23.26-10.9 3.22-5.75 7.99-13.51 12.37-18.35 1.68-1.86 3.31-2.91 5.9-2.06 3.43 1.12 2.09 5.09 1.45 7.77-.43 1.78-1.5 4.12-1.73 5.77-.06.44-.23 2.11.24 2.22l2.88-.52c.44.2.29.54.22.91s-1.81 4.02-2.02 4.2c-.83.72-2.49.16-3.18 1.03l-3.18 9.08c-.59 1.42-3.68 1.24-4.08-.04-.52-1.67.83-4.42 1.53-5.99.31-.69 2.19-3.77 1.84-4.25zm-5.1-2.95c.38.03.74 0 1.11-.08.7-.15 4.56-1.48 4.93-1.84.31-.3.97-1.42 1.24-1.87.57-.93 3.26-6.01 2.24-6.74-.19-.16-.37-.05-.56 0-1.29.33-6.55 6.59-7.57 7.98-.24.34-1.63 2.31-1.39 2.54zM155.01 14.4c.66.46 3.34-.81 3.64-.35.4 1.24-.54 5.6-1.53 6.21-.78.49-2.65.11-2.94.72l-1.23 7.73c-.52 1.93-.61 3.04-2.66 3.74-3.78 1.29-3.61-.66-2.87-3.61.55-2.22 1.65-4.48 2.25-6.72l-.25-.59c-2.37.96-5 1.33-7.23 2.64-1.28 2.02-2.22 4.37-3.5 6.37-.65 1.01-1.03 1.79-2.33 2.06-1.67.35-3.44-.58-3.03-2.48.55-2.54 3.99-8.38 5.43-10.85 3.11-5.31 8.08-13.58 12.86-17.32 1.89-1.48 4.23-2.89 5.12.35.48 1.73 0 4.47-.31 6.29-.33 1.97-.87 3.87-1.44 5.78zm-9.32 3.48l5.49-2.46.81-.65c.17-2.25 1.57-4.9 1.73-7.06.05-.6-.17-2.23-1.08-1.81-.49.22-3.33 4.6-3.77 5.38-1.18 2.07-2.22 4.44-3.18 6.61zM231.25 8.92c-1.72.14-3.48.31-5.21.18-.75-.05-3.14-.45-3.66-.91-.82-.72-.49-4.7 0-5.67.16-.31.81-.58 1.14-.68 1.35-.43 4.78.06 6.53-.06 4.87-.32 11.08-1.82 15.91-1.28 2.14.24 2.05 1.75 1.5 3.51-1.13 3.64-8.42 3.77-11.53 4.19l-.21.15c-.36 2.06-1.07 4.16-1.5 6.18-.73 3.49-2.01 14.94-4.16 17.06-1.36 1.34-6.08 1.5-6.32-.83-.17-1.63 2.3-8.08 3.03-9.96 1.54-3.95 3.72-7.68 4.47-11.9zM88.59 30.38c-.26-.31-1.03-.88-1.45-.77-.38.11-2.05 1.45-2.81 1.78-2.43 1.04-4.28.26-5.91-1.71-7.54-9.1 1.02-32.44 14.45-29.27 2.11.5 4.55 3.02 4.88 5.17.59 3.82-.34 8.02-1.65 11.62-1.17 3.2-3.03 5.91-4.68 8.86-.07.67 3.25 2.23 2.02 4.58-.67 1.27-2.13 1.81-3.48 1.4-.98-.3-.85-1.03-1.37-1.65zm2.74-24.14c-.71-.63-2.9-1.31-3.83-1.12-.8.17-2.65 1.77-3.23 2.43-3.63 4.11-6.87 15.49-3.88 20.33.97 1.57 3.66 1.5 5.04.58 1.17-.78-.16-1.52-.69-2.37-1.03-1.65-1.4-3 .99-3.38 1.61-.26 2.76 1.74 3.75 1.58.52-.08 1.25-1.7 1.47-2.21.49-1.16.9-2.67 1.22-3.91.87-3.39 2.17-9.3-.82-11.94zM117.3.73c.65-.09 4.13-.31 4.05.56s-3.79 4.71-4.59 5.84c-3.24 4.62-7.06 11.82-6.36 17.61.11.88.66 1.77 1.41 2.25 1.68 1.08 3.56.14 4.71-1.27 2.11-2.59 3.9-7.92 4.14-11.23.17-2.45-.33-5.56-.01-7.88.24-1.76 3.66-2.93 5.22-2.64.92.17.85 2.49.82 3.2-.29 8.15-3.45 19.92-11.21 24.08-2.12 1.14-5.55.83-7.04-1.25-4.05-5.65.6-19.13 3.78-24.69 1.28-2.24 2.32-4.22 5.1-4.59zM327.82 11.62c-.85-2.49-1.17-3.84-3.87-2.05-1.83 1.21-3.88 4.64-4.63 6.7-.85 2.31-2.04 6.98-.58 9.09 1.89 2.73 5.92.52 7.18-1.75.52-.94.18-1.99 1.63-2.22.63-.1 1.69.16 2.18.57.23.19 1.9 2.2 2.03 2.45.48 1.02.14 1.61-.36 2.48-2.41 4.23-8.62 6.74-13.27 5.3-8.28-2.56-3.36-15.83-.44-21.02 1.85-3.29 7-9.47 10.93-9.92 6.18-.71 6.89 5.63 2.82 9.04-.64.54-2.88 2.07-3.62 1.32zM59.53 9.05c-1.21 1.1-1.54-.81-3.29-.45-1.87.39-5.34 5.02-6.5 6.66-1.96 2.77-4.35 6.33-4.24 9.85.08 2.62 1.35 3.53 3.94 3.37 1.76-.11 4.15-1.61 5.56-2.66 1.51-1.12 2.52-3.19 4.49-1.72 1.82 1.36 1.31 2.5.24 4.08-2.68 3.99-7.98 4.93-12.44 3.92-15.18-3.44 1.15-27.43 9.64-30.68 4.46-1.71 6.11.5 4.33 4.7-.25.58-1.34 2.57-1.73 2.93zM181.3.93c1.17-.12 5.45-.1 5.13 1.82-.13.78-1.96 3.56-2.44 4.52-1.08 2.14-2.18 4.34-3.17 6.52-2.34 5.12-4.3 11.72-6.94 16.47-.31.55-1.48 1.95-2.09 1.86-1.55-.21-2.24-2.39-2.34-3.72-.39-5.17 2.81-14.62 4.86-19.48 1.53-3.64 2.49-7.52 7-8zM186.22 15.54c2.74-.64 3.62 3.41 1.02 3.94s-3.22-3.43-1.02-3.94zM219.13 15.54c2.74-.64 3.62 3.41 1.02 3.94s-3.22-3.43-1.02-3.94z" fill="#fff"/><path d="M239.72 19.1c-2.11-2.01 1.23-5.27 2.94-2.67 1.5 2.27-1.51 4.03-2.94 2.67zM337.89 19.1c-2.08-1.93 1.12-5.29 2.95-2.67 1.55 2.22-1.5 4.01-2.95 2.67zM305.82 19.1c-2.08-1.93 1.12-5.29 2.95-2.67 1.55 2.22-1.5 4.01-2.95 2.67zM275.08 15.55c2.51-.45 3.51 3.58.67 3.97-2.54.35-3.15-3.53-.67-3.97zM164.47 15.73c1.67-.38 3.29 1.14 2.56 2.75s-3.31 1.49-3.74-.18c-.26-.98.08-2.32 1.18-2.57zM68.49 15.72c3.56-1.05 3.86 4.9 0 3.76-1.37-.4-1.48-3.33 0-3.76zM34.31 15.72c3.56-1.05 3.86 4.9 0 3.76-1.37-.4-1.48-3.33 0-3.76zM103.58 16.3c2.1 2.35-2.38 4.84-3.31 2.12-.78-2.3 1.85-3.75 3.31-2.12zM133.1 16.3c2.1 2.35-2.38 4.84-3.31 2.12-.78-2.3 1.85-3.75 3.31-2.12zM371.35 16.12c1.88-1.98 4.73 1.33 2.77 2.87-2.23 1.76-4.24-1.32-2.77-2.87z" fill="#fff"/></svg>