<svg xmlns="http://www.w3.org/2000/svg" width="180" height="210" viewBox="0 0 180 210"><g id="logos"><path d="M106.29,0H73.71L57.43,28.21l16.28,28.2h32.58l16.28-28.2Zm-2.94,5.08L106.2,10H92.28V51.34H87.72V10H73.8l2.84-4.93ZM63.29,28.21l7.88-13.65h12v4.89h-9l-4.94,8.74,9.31,16.2V33.67H75.36V29h7.81V51.34H76.64Zm40.06,23.13H96.83V14.56h12l7.88,13.65Z" fill="#fff"/><polygon points="106.09 19.45 101.72 19.45 101.72 44.39 111.03 28.19 106.09 19.45" fill="#fff"/><path d="M50,117a30.76,30.76,0,0,1-7.27.82,21.15,21.15,0,0,1-7.51-1.3,17.27,17.27,0,0,1-5.91-3.65,16.66,16.66,0,0,1-3.86-5.64,20,20,0,0,1,0-14.71,16.54,16.54,0,0,1,3.91-5.64,17.57,17.57,0,0,1,5.86-3.58,20.72,20.72,0,0,1,7.25-1.24A22.2,22.2,0,0,1,50,83.3a15.49,15.49,0,0,1,5.61,3.29l-5.18,5.9a9,9,0,0,0-3.17-2.28,10.76,10.76,0,0,0-4.46-.89,9.91,9.91,0,0,0-4,.8,9.61,9.61,0,0,0-3.17,2.2,10.12,10.12,0,0,0-2.08,3.36,11.75,11.75,0,0,0-.75,4.25,13.5,13.5,0,0,0,.67,4.32,9.43,9.43,0,0,0,2,3.39,9,9,0,0,0,3.26,2.2,11.68,11.68,0,0,0,4.44.8,17.18,17.18,0,0,0,2.74-.22,10.13,10.13,0,0,0,2.4-.7v-6.19H41.86V96.91h14v18A26.1,26.1,0,0,1,50,117Z" fill="#fff"/><path d="M80.78,117l-7.37-13.49h-2.8V117h-8V83h13a22.94,22.94,0,0,1,4.78.5A12.48,12.48,0,0,1,84.5,85.2a8.89,8.89,0,0,1,3,3.16,10,10,0,0,1,1.1,4.9,9,9,0,0,1-1.87,5.81,10.2,10.2,0,0,1-5.19,3.36L90.38,117ZM80.45,93.4a3.37,3.37,0,0,0-.51-1.94,3.42,3.42,0,0,0-1.3-1.15,5.59,5.59,0,0,0-1.79-.55,12.66,12.66,0,0,0-1.9-.15H70.56v7.92h3.91a12.38,12.38,0,0,0,2.07-.17,6.5,6.5,0,0,0,1.93-.6,3.61,3.61,0,0,0,1.42-1.24A3.71,3.71,0,0,0,80.45,93.4Z" fill="#fff"/><path d="M117.46,117l-2.64-6.67H101.66L99.17,117H90.24L104.5,83h8l14.12,34Zm-9.12-24.91L104,103.72h8.54Z" fill="#fff"/><path d="M155.9,107.08a9.11,9.11,0,0,1-1.1,4.68,8.74,8.74,0,0,1-2.93,3,12.76,12.76,0,0,1-4.15,1.66,22.87,22.87,0,0,1-4.78.5H129.41V83h13.53a20.22,20.22,0,0,1,4,.41,11.8,11.8,0,0,1,3.74,1.39,7.45,7.45,0,0,1,3.79,6.93A7.09,7.09,0,0,1,153,96.4a8.59,8.59,0,0,1-4,2.67v.09a9.44,9.44,0,0,1,2.72.89,7.87,7.87,0,0,1,2.2,1.66,7.59,7.59,0,0,1,1.49,2.35A7.85,7.85,0,0,1,155.9,107.08Zm-9.31-14.25a2.72,2.72,0,0,0-1.32-2.52,7.7,7.7,0,0,0-3.91-.79h-4v7h4.41a6,6,0,0,0,3.58-.93A3.22,3.22,0,0,0,146.59,92.83Zm1.11,13.49a3,3,0,0,0-1.59-2.93,9.15,9.15,0,0,0-4.22-.82h-4.56v7.78h4.61a12.64,12.64,0,0,0,2-.17,6.13,6.13,0,0,0,1.87-.6,3.4,3.4,0,0,0,1.9-3.26Z" fill="#fff"/><path d="M31.73,191.08a16.67,16.67,0,0,1-1.66,7.71,15.55,15.55,0,0,1-4.37,5.33,18.17,18.17,0,0,1-6.12,3.07,25,25,0,0,1-6.91,1H0v-34H12.29a30.3,30.3,0,0,1,7.1.84,17.87,17.87,0,0,1,6.24,2.78A14.21,14.21,0,0,1,30.05,183,17.48,17.48,0,0,1,31.73,191.08Zm-8.55,0a10.78,10.78,0,0,0-.93-4.77,8.14,8.14,0,0,0-2.5-3,10,10,0,0,0-3.55-1.6,17.49,17.49,0,0,0-4.1-.48H8v19.87H11.9a17.42,17.42,0,0,0,4.25-.51,9.9,9.9,0,0,0,3.6-1.65,8.28,8.28,0,0,0,2.5-3.07A10.89,10.89,0,0,0,23.18,191.08Z" fill="#fff"/><path d="M72.58,191a18.89,18.89,0,0,1-1.4,7.36,16.66,16.66,0,0,1-3.86,5.72,17.38,17.38,0,0,1-5.88,3.67,21.76,21.76,0,0,1-14.76,0,17.39,17.39,0,0,1-5.86-3.67A16.8,16.8,0,0,1,37,198.4,18.89,18.89,0,0,1,35.57,191,18.69,18.69,0,0,1,37,183.67a16.08,16.08,0,0,1,3.86-5.59,17.29,17.29,0,0,1,5.86-3.56,22.58,22.58,0,0,1,14.76,0,17.29,17.29,0,0,1,5.88,3.56,16,16,0,0,1,3.86,5.59A18.69,18.69,0,0,1,72.58,191Zm-8.79,0a11.68,11.68,0,0,0-.72-4.13,9.79,9.79,0,0,0-2-3.29A9.26,9.26,0,0,0,58,181.46a9.69,9.69,0,0,0-4-.79,9.43,9.43,0,0,0-7,3,9.33,9.33,0,0,0-2,3.29,11.9,11.9,0,0,0-.7,4.13,12.1,12.1,0,0,0,.72,4.24,10.19,10.19,0,0,0,2,3.34,9,9,0,0,0,3,2.18,10.08,10.08,0,0,0,7.87,0,9.23,9.23,0,0,0,3.08-2.18,9.9,9.9,0,0,0,2-3.34A12.1,12.1,0,0,0,63.79,191Z" fill="#fff"/><path d="M105.77,201a12.18,12.18,0,0,1-3,4.32,13.76,13.76,0,0,1-4.64,2.81,18.71,18.71,0,0,1-12.07,0,13.3,13.3,0,0,1-4.56-2.81A12.14,12.14,0,0,1,78.67,201a15,15,0,0,1-1-5.59V174.19h8.16v20.49a9.46,9.46,0,0,0,.36,2.64,6.72,6.72,0,0,0,1.11,2.24,5.22,5.22,0,0,0,2,1.56,7.92,7.92,0,0,0,5.9,0,5.45,5.45,0,0,0,2-1.56,6.36,6.36,0,0,0,1.11-2.24,10.27,10.27,0,0,0,.33-2.64V174.19h8.21v21.17A14.61,14.61,0,0,1,105.77,201Z" fill="#fff"/><path d="M137.78,208.22a30.7,30.7,0,0,1-7.27.82,21.19,21.19,0,0,1-7.51-1.3,17.14,17.14,0,0,1-5.9-3.65,16.59,16.59,0,0,1-3.87-5.64,20,20,0,0,1,0-14.71,16.27,16.27,0,0,1,3.91-5.64,17.43,17.43,0,0,1,5.85-3.58,20.72,20.72,0,0,1,7.25-1.24,22.16,22.16,0,0,1,7.49,1.22,15.53,15.53,0,0,1,5.62,3.29l-5.19,5.9a8.86,8.86,0,0,0-3.17-2.28,10.76,10.76,0,0,0-4.46-.89,9.83,9.83,0,0,0-4,.8,9.41,9.41,0,0,0-3.17,2.2,10.15,10.15,0,0,0-2.09,3.36,11.75,11.75,0,0,0-.74,4.25,13.22,13.22,0,0,0,.67,4.32,9.33,9.33,0,0,0,2,3.39,9,9,0,0,0,3.26,2.2,11.68,11.68,0,0,0,4.44.8,17.09,17.09,0,0,0,2.74-.22,10.13,10.13,0,0,0,2.4-.7v-6.19H129.6v-6.62h14v18A26.19,26.19,0,0,1,137.78,208.22Z" fill="#fff"/><path d="M171.79,208.17V194H158.54v14.21h-8.2v-34h8.2v12.86h13.25V174.19H180v34Z" fill="#fff"/><path d="M62.3,139.7v17.11H57.1V139.7H51v-4.45H68.39v4.45Z" fill="#fff"/><path d="M84.38,156.81v-9H76v9H70.77V135.25H76v8.16h8.4v-8.16h5.21v21.56Z" fill="#fff"/><path d="M108.65,156.81,107,152.58H98.63l-1.58,4.23H91.39l9-21.56h5l9,21.56ZM102.87,141l-2.75,7.4h5.43Z" fill="#fff"/><path d="M123.63,139.7v17.11h-5.2V139.7h-6.09v-4.45h17.38v4.45Z" fill="#fff"/></g></svg>