<svg xmlns="http://www.w3.org/2000/svg" width="230" height="115" viewBox="0 0 230 115"><g fill="#fff"><path d="M.09 0s14.26.58 18 .51S27.61 0 27.61 0L28 6.81l-8.55.72.44 21s-7.46 1.67-8 1.09-.29-21.29-.29-21.29S2.48 7.6 1 8 .09 0 .09 0z"/><path d="M23.26 9.49s5.14-.8 6.59-.58l.36 5.5h3.48V9.34l6.37.22s.44 7.68 0 10.86a31.75 31.75 0 0 0 .2 7.39l-6.06-.29v-5.94l-3.41.42.15 5.79H25zM42.81 9.2l1.53 18.61H55v-6.08l-5.5.36-.15-1.81s2.54 0 2.9-.44.22-3.18.22-3.18a16.22 16.22 0 0 0-3.55-.15v-2l5.5-.79-.14-5.14zM14 34.48h10.47L28 46.17l4.75-11.69h10l9.68 44.23-11.06 1-5-23.96-4.61 14.75-6.87-1-4.31-13.12-5.27 22.23s-2.74.31-6.32 1-6.64 1.69-8.11 0zM78.19 62.6A131.38 131.38 0 0 0 69.87 51s6.63-2.3 7.13-6.2-.5-8.8-7.16-10.32c-5.37-1.23-15.59-.95-15.59-.95L55.54 78h9.17l-1.06-19.4a12.54 12.54 0 0 1 8 8.32c2.11 6.74 3.79 11.79 3.79 11.79s.53-.73 2.84 0a20.07 20.07 0 0 0 4.53.85s-1.25-11.48-4.62-16.96zm-9.64-20.12c-.37 2.32-6.69 1.06-6.69 1.06v-4.43c5.9-1.79 7.06 1.05 6.69 3.37zM88.27 72.92c2.11-.26 2.89 1.73 2.81 3.13a2.31 2.31 0 0 1-2.45 2.41 2.93 2.93 0 0 1-2.57-3 2.5 2.5 0 0 1 2.21-2.54zM106 35a57.86 57.86 0 0 0 7.62 0c2.77-.3 10.86-.38 10.86-.38l.38 10.55s-3 1.9-10.45.51l.14 3.49h7.62l-.17 7.36a11.87 11.87 0 0 1-5.15.68s.61 7.93-.47 11.09-.23 10.7-.23 10.7l-8.54.92zM150.61 64.06c-3.54-7.31-6.86-9.39-6.86-9.39a24.26 24.26 0 0 0 4.86-1.93c1.15-.84 6.93-4.15 2.77-11.7s-16.4-6.85-18.71-6.39a11 11 0 0 1-4.24 0l.85 44.58s3.46 0 5.16-.23a15.1 15.1 0 0 1 3.69.08l-.07-16.48a73 73 0 0 1 6.77 8.78 23.39 23.39 0 0 1 3.47 9.77l7.08-.69c.16-3.54-1.23-9.08-4.77-16.4zm-13.79-16.17v-6.31s6.94-1.46 6.93 3.16c0 3.54-6.93 3.15-6.93 3.15zM189.41 46.28l-6 1.62 2.23-5.9c-1.92-5.93-25.64-5.77-29.34 5.86S156 65 158.38 68.22s12 8.55 21 7.08 12.93-9 13.93-15.55-3.9-13.47-3.9-13.47zm-8.54 16.86c-2.47 2.38-4.08 4-6.39 4.31s-8.94-.69-11.32-6.16-1.23-10.09 1.92-12.09a18 18 0 0 1 6.86-2.39c6.08.08 9.54 3.93 10.08 6.63s1.31 7.31-1.15 9.7zM224.06 35.19v9.62s-12.16-.81-16.32 4.78a13.27 13.27 0 0 0-1.31 14.24c1.54 3.16 4.7 5 9.24 4.54s5.54-2.08 5.54-3.08-.15-3.46-.15-3.46l-9.39-.31.07-6.7s7.39.93 10.78.31a55.89 55.89 0 0 1 6.55-.77 25 25 0 0 1-.62 15.4A13.81 13.81 0 0 1 216.36 79c-2.15.15-10.47.31-15.4-6s-7.83-20.17-1.23-29.87c7.7-11.33 24.33-7.94 24.33-7.94zM150.05 88.42v5.93s-7.57-.55-8.93 1.23-1.3 3.2 1.23 3.07 10 1.09 11.25 4.09 1.77 6.88-1 9.48-8.79 2-11.72 1.5a41 41 0 0 1-7.78-2.94l.82-4.5s5 3.69 8.8 2.66 3.11-3.61 1.15-3.82-8.52.07-10.77-3.13-.68-8.56 2.12-10.37c4.4-2.86 14.83-3.2 14.83-3.2zM156.46 88.69l.55 23.94 7.43-.55v-8.25l2.86.2.62 9.48 7.36-.68-.75-24.14a9.63 9.63 0 0 1-2.93 1 23 23 0 0 1-4.09-.27l-.07 9.07-3.75.14-.48-10.16a12.19 12.19 0 0 0-6.75.22zM200.85 96.19c-.61-5.32-6.13-8.27-10.63-8.59-2.42-.18-11.73 1.77-12.76 9.82s2.73 11.52 4.51 12.75 9 4.91 13.92.41 5.58-9.07 4.96-14.39zm-6.68 8.12c-2.18 1.91-6.14 3.2-8.73 1s-1.5-9.07 1.37-10.91c3.08-2 7.43 1.36 8.38 3.27a5.49 5.49 0 0 1-1.02 6.64zM201.05 89.24l6.35 20.66a13 13 0 0 1 3.21.47 9 9 0 0 0 2.72.41l2.46-7.5s3.2 6.55 3.75 7l6.54.2 2.8-24.34h-6l-2.8 10.16-2.08-4.95-3.34.07-2.55 6.58-3.41-9s-6.98-1.13-7.65.24z"/></g></svg>