<svg xmlns="http://www.w3.org/2000/svg" width="250" height="121" viewBox="0 0 250 121"><path d="M121.07,18.53c0,.93,0,1.86,0,2.79s-.75,1.42-1.91,1.19a2.29,2.29,0,0,0-.64,0,5.38,5.38,0,0,1-1,.13c-.47,0-1.12,0-1.35-.27s-.09-.74,0-1.1a11.85,11.85,0,0,0,.86-2.16,26.22,26.22,0,0,1,1.4-5.51,6.89,6.89,0,0,0,.09-1.58,7.18,7.18,0,0,1,.25-1.85,3.67,3.67,0,0,0,0-2.8,6,6,0,0,1-.51-3.81,2.34,2.34,0,0,0-.23-1.16c-.27-.81,0-1.19,1-1.35l2.56-.37c.77-.11,1.38.35,1.18,1-.38,1.23-.38,2.52-1.2,3.67a2.66,2.66,0,0,0-.37,1.43c0,1.14,0,2.28.06,3.42,0,.6.23.79,1,.6a6.62,6.62,0,0,1,2.87-.08c1.06.15,1.23-.05,1.38-.89A14,14,0,0,0,127,5a26.47,26.47,0,0,0-.63-2.91C126,1,126.77.31,128.22.42a7.53,7.53,0,0,0,2-.11c1.19-.22,1.69.07,1.42,1a8.4,8.4,0,0,1-.83,1.93,7.35,7.35,0,0,0-1.1,3.86A11.82,11.82,0,0,1,129,11a15.93,15.93,0,0,0-.49,2.64,2.77,2.77,0,0,0,.47,1.93,1.63,1.63,0,0,1,.23,1.15,4.54,4.54,0,0,0,.26,2.47,3.94,3.94,0,0,1,.17,1.52c-.09.87-.88,1.2-1.92,1a2.82,2.82,0,0,0-1.22.09c-.64.18-1.39.48-1.85.05-.3-.29-.21-.94-.07-1.39.3-.91.78-1.79,1.12-2.7a5.06,5.06,0,0,0,.23-1.28c.09-.73.14-1.46.21-2.19a.9.9,0,0,1,.06-.22c.2-1,0-1.16-1.2-1-1,.16-2,.4-3,.61a.89.89,0,0,0-.81.89c-.07,1.33-.16,2.66-.24,4Z" fill="#fff"/><path d="M136.37,5.45c-.1,1.48-.22,3-.3,4.44,0,.68.19.84,1,.65s1.31-.46,2-.64c.4-.11,1.09-.25,1.22-.11a1.35,1.35,0,0,1,.28,1.1c-.08.46-.38.86,0,1.35.23.3-.37.73-.85.52-1-.44-1.95-.07-2.91-.06-.2,0-.58.23-.58.35.1,2-.81,4-.4,6.07.12.59.44.71,1.05.58,1-.22,1.9-.49,2.86-.7a7.87,7.87,0,0,1,1.6-.2c.72,0,1,.35.72.88a3.61,3.61,0,0,0-.7,2.12c0,.13-.36.39-.59.43a2.33,2.33,0,0,1-1.05-.05,4.52,4.52,0,0,0-3.22.2,3.21,3.21,0,0,1-2.46.17c-.71-.25-1.1-.62-1-1.27.14-1.27.3-2.54.37-3.81a7.35,7.35,0,0,0-.18-2,5.87,5.87,0,0,1,.08-3.22,3.87,3.87,0,0,0-.19-3.12,3.79,3.79,0,0,1-.21-1.84c0-1.42.14-2.84.2-4.26,0-.44,0-.88,0-1.31.07-.84.66-1.23,1.7-1.18,1.4.07,2.79.12,4.19.22a6.12,6.12,0,0,0,2.7-.34,2.83,2.83,0,0,1,.74-.21,1,1,0,0,1,.63.14.51.51,0,0,1,0,.51c-.18.39-.49.75-.63,1.15a2.93,2.93,0,0,0-.13,1.21c0,.37-.07.63-.52.66a4.08,4.08,0,0,1-1.31-.11c-.63-.16-1.21-.44-1.84-.61a4.32,4.32,0,0,0-1.25-.13c-.58,0-.91.26-.93.75s-.07,1.1-.11,1.65Z" fill="#fff"/><path d="M109.21,14c-.14,1.38-.33,2.75-.4,4.13a17,17,0,0,0,.16,2.66c.12,1.23-.44,1.66-2,1.56a5.33,5.33,0,0,0-1.17.17c-1,.19-1.48-.13-1.22-.94.59-1.82,1.24-3.62,1.79-5.45a16.07,16.07,0,0,0,.33-2.19,15.32,15.32,0,0,0,.21-5.8,18.82,18.82,0,0,1-.37-4.42c0-.68-.14-.78-1-.58a5.34,5.34,0,0,0-1.18.49,7.85,7.85,0,0,1-.89.57,2.72,2.72,0,0,1-1.25.2c-.17,0-.32-.5-.33-.78a8.39,8.39,0,0,1,0-1.94c.23-1.36,1.35-1.86,2.85-1.19s3.14.26,4.71.06l3.3-.39c.7-.07,1.4-.17,2.11-.2a2.26,2.26,0,0,1,1.09.19c.13.08,0,.5-.09.77s-.2.81-.3,1.21a5.6,5.6,0,0,1-.31,1.22,1.67,1.67,0,0,1-2,.83c-.59-.11-1.17-.29-1.76-.43-1.07-.26-1.36-.17-1.52.71-.33,1.82-.61,3.65-.82,5.49-.16,1.34-.19,2.69-.28,4Z" fill="#fff"/><path d="M187.75,42.56a7.71,7.71,0,0,0,.12,1.72c.76,2.89,1.61,5.79,2.35,8.68s1.36,5.82,2.12,8.74a6.21,6.21,0,0,0,1.17,2c.5.67.43,1.19-.7,1.39-.92.17-2,.16-3,.27a21.68,21.68,0,0,0-2.51.35c-1.13.27-2.65-.24-2.67-1-.07-2.42-.07-4.84,0-7.25a6.65,6.65,0,0,1,.53-2,8.67,8.67,0,0,0-.29-7,6.47,6.47,0,0,1-.25-2.43,5.19,5.19,0,0,0-.13-1.71c-.78-1.89-1.69-3.77-2.51-5.66-.52-1.18-1-2.36-1.46-3.55-.21-.56.09-.94.91-1.08a5.9,5.9,0,0,1,.83-.11,17.65,17.65,0,0,0,6.83-1.19,3.46,3.46,0,0,1,1.85.06c.84.28.7.75.46,1.15a.45.45,0,0,0,.07.48,6,6,0,0,1,1.36,4.72c-.09,2.09,1.45,4.11,2.69,6.14A17,17,0,0,1,197,47.6c.87,2.38,3.05,4.53,5.3,6.7,1.35,1.3,2.41,2.68,3.64,4,.27.3.62.58.94.87h.41a5.86,5.86,0,0,0-.08-1.32c-.76-2.67-1.55-5.34-2.42-8a6.3,6.3,0,0,0-1.05-1.45q-1.51-2.07-3-4.12a7.5,7.5,0,0,0-.95-1.29,6.36,6.36,0,0,1-2-3.82,10.36,10.36,0,0,0-.94-2c-.12-.24-.36-.51-.35-.73a3.76,3.76,0,0,0-.89-2.43c-.63-.84.47-1.53,1.93-1.17a7.62,7.62,0,0,0,4.18-.15,5.56,5.56,0,0,1,.87-.19c1.6-.24,2.7.28,2.75,1.38a11.27,11.27,0,0,1-.26,3.68c-.69,2.26.16,4.61,1.63,7a28.37,28.37,0,0,0,2.2,3.27A7.76,7.76,0,0,1,210.75,53c0,2.57,1.26,5.14,3,7.72a7.52,7.52,0,0,1,.87,1.65c.31.88-.8,1.48-2.41,1.26a18.94,18.94,0,0,0-6.06,0c-1.76.31-2.71-.11-3.26-1.19-2.09-4.07-5.35-7.25-8.55-10.42A19.21,19.21,0,0,1,190,46.12c-.49-1-1-2-1.47-3a4.51,4.51,0,0,0-.44-.59Z" fill="#fff"/><path d="M203.32,32.46c1.2,0,2,.52,2,1.44a11.27,11.27,0,0,1-.26,3.68c-.69,2.26.16,4.61,1.63,7a28.37,28.37,0,0,0,2.2,3.27A7.76,7.76,0,0,1,210.75,53c0,2.57,1.26,5.14,3,7.72a7.52,7.52,0,0,1,.87,1.65c.26.75-.51,1.3-1.75,1.3a5.07,5.07,0,0,1-.66,0,22,22,0,0,0-3.17-.24,15.38,15.38,0,0,0-2.89.24,6.73,6.73,0,0,1-1,.1,2.25,2.25,0,0,1-2.24-1.29c-2.09-4.07-5.35-7.25-8.55-10.42A19.21,19.21,0,0,1,190,46.12c-.49-1-1-2-1.47-3a4.51,4.51,0,0,0-.44-.59h-.38a7.71,7.71,0,0,0,.12,1.72c.76,2.89,1.61,5.79,2.35,8.68s1.36,5.82,2.12,8.74a6.21,6.21,0,0,0,1.17,2c.5.67.43,1.19-.7,1.39-.92.17-2,.16-3,.27a21.68,21.68,0,0,0-2.51.35,2.67,2.67,0,0,1-.64.08c-1,0-2-.47-2-1.13-.07-2.42-.07-4.84,0-7.25a6.65,6.65,0,0,1,.53-2,8.67,8.67,0,0,0-.29-7,6.47,6.47,0,0,1-.25-2.43,5.19,5.19,0,0,0-.13-1.71c-.78-1.89-1.69-3.77-2.51-5.66-.52-1.18-1-2.36-1.46-3.55-.21-.56.09-.94.91-1.08a5.44,5.44,0,0,1,.81-.11h.3a17.51,17.51,0,0,0,6.55-1.19,2.12,2.12,0,0,1,.72-.1,4,4,0,0,1,1.13.16c.84.28.7.75.46,1.15a.45.45,0,0,0,.07.48,6,6,0,0,1,1.36,4.72c-.09,2.09,1.45,4.11,2.69,6.14A17,17,0,0,1,197,47.6c.87,2.38,3.05,4.53,5.3,6.7,1.35,1.3,2.41,2.68,3.64,4,.27.3.62.58.94.87h.41a5.86,5.86,0,0,0-.08-1.32c-.76-2.67-1.55-5.34-2.42-8a6.3,6.3,0,0,0-1.05-1.45q-1.51-2.07-3-4.12a7.5,7.5,0,0,0-.95-1.29,6.36,6.36,0,0,1-2-3.82,10.36,10.36,0,0,0-.94-2c-.12-.24-.36-.51-.35-.73a3.76,3.76,0,0,0-.89-2.43c-.51-.68.13-1.27,1.17-1.27a3,3,0,0,1,.76.1,7.82,7.82,0,0,0,1.83.23,8.14,8.14,0,0,0,2.35-.38,5.56,5.56,0,0,1,.87-.19,4.56,4.56,0,0,1,.72-.06m-.11-.25a5.7,5.7,0,0,0-.8.06,7.36,7.36,0,0,0-.93.21,7.72,7.72,0,0,1-2.21.35,7.14,7.14,0,0,1-1.67-.21,4.11,4.11,0,0,0-.91-.11,1.88,1.88,0,0,0-1.47.53.8.8,0,0,0,.05,1.05,3.53,3.53,0,0,1,.84,2.3,1.21,1.21,0,0,0,.23.6,1.79,1.79,0,0,1,.13.22c.11.21.22.42.34.63a5.44,5.44,0,0,1,.59,1.33,6.57,6.57,0,0,0,2,3.95,4.23,4.23,0,0,1,.63.83l.28.41c.49.68,1,1.35,1.47,2s1,1.39,1.52,2.09c.12.16.26.32.39.48a3.17,3.17,0,0,1,.62.9c.89,2.74,1.68,5.46,2.4,8a2.73,2.73,0,0,1,.07.86v0c-.19-.17-.36-.33-.51-.49-.41-.45-.81-.91-1.2-1.36-.77-.89-1.56-1.81-2.47-2.69l-.11-.11c-2.23-2.16-4.29-4.2-5.14-6.5a6.72,6.72,0,0,0-.92-1.51c-.19-.26-.39-.54-.55-.81s-.44-.69-.65-1c-1.09-1.71-2.09-3.33-2-5a6.26,6.26,0,0,0-1.43-4.86.25.25,0,0,1,0-.26.87.87,0,0,0,.05-1,1.58,1.58,0,0,0-.79-.49,4.52,4.52,0,0,0-1.32-.19,2.51,2.51,0,0,0-.88.13,17,17,0,0,1-6.38,1.16h-.3a3.55,3.55,0,0,0-.7.08l-.19,0c-1,.16-1.39.65-1.13,1.34.47,1.22,1,2.42,1.45,3.55.3.69.62,1.4.93,2.08.53,1.17,1.08,2.38,1.57,3.58a2.55,2.55,0,0,1,.12,1.07,3.74,3.74,0,0,0,0,.58c0,.24,0,.49,0,.73a3.6,3.6,0,0,0,.25,1.76,8.55,8.55,0,0,1,.27,6.84l-.14.38a5.08,5.08,0,0,0-.41,1.63c0,2.65,0,5,0,7.25a1.26,1.26,0,0,0,.77,1,3.93,3.93,0,0,0,1.78.42,3.47,3.47,0,0,0,.81-.09,18.06,18.06,0,0,1,2.21-.32l.22,0,1.13-.08a16.22,16.22,0,0,0,1.87-.19c.88-.15,1.75-.57.91-1.68a6.47,6.47,0,0,1-1.14-1.94c-.42-1.59-.79-3.21-1.16-4.78-.31-1.3-.63-2.64-1-4-.39-1.5-.81-3-1.22-4.5s-.79-2.79-1.16-4.18a4.59,4.59,0,0,1-.1-1.11h0c.44.86.87,1.75,1.29,2.6l.17.36a19.32,19.32,0,0,0,4.34,6c3.16,3.15,6.42,6.3,8.46,10.34A2.77,2.77,0,0,0,205.21,64a7,7,0,0,0,1.15-.11,15.69,15.69,0,0,1,2.77-.23,21.06,21.06,0,0,1,3.06.23A5.22,5.22,0,0,0,213,64c1.49,0,2.4-.67,2.09-1.55a7.45,7.45,0,0,0-.9-1.69c-2.06-3.07-2.95-5.43-3-7.63a8,8,0,0,0-1.89-5.27,25.74,25.74,0,0,1-2.06-3l-.13-.2c-1.74-2.84-2.21-5-1.62-6.89a10.82,10.82,0,0,0,.26-3.6V34a1.59,1.59,0,0,0-.8-1.32,3.2,3.2,0,0,0-1.73-.43Z" fill="#fff"/><path d="M141.81,42.58c-.1,1-.26,1.93-.28,2.9,0,1.19.09,2.37.11,3.56.08,4.32.12,8.64.19,13a3.38,3.38,0,0,0,.61,1.6c.51.83.19,1.36-1.32,1.58-.88.13-1.85.09-2.76.18a19,19,0,0,0-2.45.34c-1.21.29-2.53-.19-2.43-1a26.15,26.15,0,0,1,.91-5,37.19,37.19,0,0,1,2.42-5.38,8.4,8.4,0,0,0,.83-5.45,9.82,9.82,0,0,1,.36-2.92,4.42,4.42,0,0,0,.19-1.38c-.34-1.95-.77-3.89-1.13-5.83-.22-1.18-.4-2.36-.58-3.55-.1-.62.38-1,1.27-1.11a8.18,8.18,0,0,1,1.11-.11,16.79,16.79,0,0,0,6.5-1.12,3.78,3.78,0,0,1,1-.24c1.07-.07,1.74.51,1.42,1.18-.13.27-.29.6-.15.85A3.91,3.91,0,0,1,148,38c-.87,2.53.05,5,1.06,7.53.51,1.28.84,2.57,1.34,3.85a12,12,0,0,0,1.21,2.33c1.46,2.2,3,4.39,4.63,6.58.21.3.47.59.71.88h.44a6.63,6.63,0,0,0,.24-1.39c-.12-2.66-.24-5.33-.49-8,0-.53-.59-1.06-.86-1.6-.63-1.29-1.22-2.59-1.83-3.88a5.81,5.81,0,0,0-.72-1.37,5.28,5.28,0,0,1-1-3.66,10.87,10.87,0,0,0-.44-2.11c-.07-.3-.14-.6-.18-.9a16.44,16.44,0,0,0-.3-2.09c-.28-1,.74-1.7,2.25-1.33a7.5,7.5,0,0,0,4.09-.13,7,7,0,0,1,.69-.15c1.94-.37,3,.2,2.72,1.52a17.78,17.78,0,0,1-1.39,4.13,6.49,6.49,0,0,0-.13,5.34,40.2,40.2,0,0,0,1.8,4.42,6.64,6.64,0,0,1,.55,4.75,12.68,12.68,0,0,0,1.13,8.13,4.82,4.82,0,0,1,.44,1.56c.06.83-1.2,1.44-2.65,1.23a19.31,19.31,0,0,0-6.21,0c-1.75.29-2.6-.13-2.89-1.16a26.1,26.1,0,0,0-5.84-10.2,16.11,16.11,0,0,1-3.33-7.3c-.2-.81-.44-1.62-.66-2.42Z" fill="#fff"/><path d="M159.91,32.47c1.26,0,1.92.57,1.67,1.63a17.78,17.78,0,0,1-1.39,4.13,6.49,6.49,0,0,0-.13,5.34,40.2,40.2,0,0,0,1.8,4.42,6.64,6.64,0,0,1,.55,4.75,12.68,12.68,0,0,0,1.13,8.13,4.82,4.82,0,0,1,.44,1.56c.05.72-.88,1.27-2.07,1.27-.19,0-.38,0-.58,0a20.89,20.89,0,0,0-3.21-.25,17.86,17.86,0,0,0-3,.25,6.26,6.26,0,0,1-1,.09,1.7,1.7,0,0,1-1.9-1.25,26.1,26.1,0,0,0-5.84-10.2,16.11,16.11,0,0,1-3.33-7.3c-.2-.81-.44-1.62-.66-2.42h-.59c-.1,1-.26,1.93-.28,2.9,0,1.19.09,2.37.11,3.56.08,4.32.12,8.64.19,13a3.38,3.38,0,0,0,.61,1.6c.51.83.19,1.36-1.32,1.58-.88.13-1.85.09-2.76.18a19,19,0,0,0-2.45.34,2.94,2.94,0,0,1-.71.09c-1,0-1.8-.45-1.72-1.12a26.15,26.15,0,0,1,.91-5,37.19,37.19,0,0,1,2.42-5.38,8.4,8.4,0,0,0,.83-5.45,9.82,9.82,0,0,1,.36-2.92,4.42,4.42,0,0,0,.19-1.38c-.34-1.95-.77-3.89-1.13-5.83-.22-1.18-.4-2.36-.58-3.55-.1-.62.38-1,1.27-1.11a7.62,7.62,0,0,1,1.06-.11h.34a16.74,16.74,0,0,0,6.21-1.12,3.78,3.78,0,0,1,1-.24h.19c1,0,1.53.55,1.23,1.18-.13.27-.29.6-.15.85A3.91,3.91,0,0,1,148,38c-.87,2.53.05,5,1.06,7.53.51,1.28.84,2.57,1.34,3.85a12,12,0,0,0,1.21,2.33c1.46,2.2,3,4.39,4.63,6.58.21.3.47.59.71.88h.44a6.63,6.63,0,0,0,.24-1.39c-.12-2.66-.24-5.33-.49-8,0-.53-.59-1.06-.86-1.6-.63-1.29-1.22-2.59-1.83-3.88a5.81,5.81,0,0,0-.72-1.37,5.28,5.28,0,0,1-1-3.66,10.87,10.87,0,0,0-.44-2.11c-.07-.3-.14-.6-.18-.9a16.44,16.44,0,0,0-.3-2.09c-.23-.81.41-1.43,1.46-1.43a3.29,3.29,0,0,1,.79.1,7,7,0,0,0,1.76.23,8.65,8.65,0,0,0,2.33-.36,7,7,0,0,1,.69-.15,5.14,5.14,0,0,1,1-.11m0-.25a7,7,0,0,0-1.15.11c-.23.05-.48.1-.73.17a7.86,7.86,0,0,1-2.18.33,6.47,6.47,0,0,1-1.62-.2,3.83,3.83,0,0,0-.93-.12,2.26,2.26,0,0,0-1.4.42,1.18,1.18,0,0,0-.4,1.28,7.74,7.74,0,0,1,.21,1.35c0,.24.05.48.08.72s.09.52.15.77l0,.15c.05.22.11.45.18.67a5.54,5.54,0,0,1,.26,1.4v0a5.35,5.35,0,0,0,1,3.76,4.45,4.45,0,0,1,.54,1c0,.11.09.22.14.33.27.56.52,1.12.78,1.68.34.73.69,1.47,1.05,2.21a4.39,4.39,0,0,0,.38.61,2.36,2.36,0,0,1,.46.93c.23,2.65.35,5.35.46,8v0a3.78,3.78,0,0,1-.13.92l0,0-.4-.5-1.07-1.48c-1.21-1.67-2.43-3.4-3.57-5.11a11.82,11.82,0,0,1-1.19-2.29c-.24-.59-.44-1.21-.63-1.8s-.45-1.37-.72-2c-1-2.41-1.93-4.9-1.07-7.41a4.15,4.15,0,0,0-.38-3.58c-.09-.15,0-.45.15-.67a.87.87,0,0,0-.24-1.1,2.11,2.11,0,0,0-1.38-.44h-.23a4.32,4.32,0,0,0-1.17.27,16.1,16.1,0,0,1-6,1.09h-.34a6.78,6.78,0,0,0-1,.1l-.12,0c-1.11.16-1.67.65-1.56,1.37,0,.27.07.41.11.68.14.94.29,1.91.47,2.87.14.75.29,1.52.44,2.26.23,1.17.48,2.38.68,3.57a2,2,0,0,1-.1.85c0,.16-.07.32-.1.48s-.11.59-.17.88a5.47,5.47,0,0,0-.19,2.09,8.28,8.28,0,0,1-.83,5.35A38.2,38.2,0,0,0,134,59.62a23.13,23.13,0,0,0-.85,4.45c0,.23,0,.34-.07.57a1,1,0,0,0,.59,1,3.21,3.21,0,0,0,1.58.38,4.24,4.24,0,0,0,.88-.1,16.57,16.57,0,0,1,2.36-.33c.36,0,.74,0,1.13-.06a13.57,13.57,0,0,0,1.68-.13,2.75,2.75,0,0,0,1.64-.64c.3-.32.28-.73,0-1.25a3.27,3.27,0,0,1-.59-1.52c-.06-2.93-.09-5.9-.14-8.78,0-1.39,0-2.79-.07-4.18,0-.47,0-.95-.06-1.41,0-.7-.07-1.43-.06-2.14a19.27,19.27,0,0,1,.17-2c0-.11,0-.23,0-.35l.06.22c.16.54.32,1.1.45,1.66A16.35,16.35,0,0,0,146,52.41a26.57,26.57,0,0,1,5.79,10.11c.26,1,1.06,1.48,2.37,1.48a6.52,6.52,0,0,0,1.11-.1,17.13,17.13,0,0,1,2.88-.24,21.56,21.56,0,0,1,3.1.24A5.34,5.34,0,0,0,162,64c1.45,0,2.54-.66,2.48-1.5a5.18,5.18,0,0,0-.46-1.62c-1.38-3.13-1.7-5.68-1.14-8a6.82,6.82,0,0,0-.58-4.86,33.37,33.37,0,0,1-1.58-3.81c-.09-.24-.13-.36-.22-.59a6.28,6.28,0,0,1,.12-5.2,18.6,18.6,0,0,0,1.4-4.17,1.37,1.37,0,0,0-.49-1.52,2.64,2.64,0,0,0-1.62-.43Z" fill="#fff"/><path d="M16.57,43.93a13.1,13.1,0,0,0,2.25-7.83,7.69,7.69,0,0,1,.43-2.7c.26-.87.86-1.13,2.1-1a13.41,13.41,0,0,1,1.86.2,19.23,19.23,0,0,0,7.72-.13c3.5-.72,9.76-.3,10.25,4.39a73.71,73.71,0,0,1-2.56,14.65,4.28,4.28,0,0,1-1.13,1.61A68.67,68.67,0,0,1,26.22,61.4a11.68,11.68,0,0,1-4,1.36c-2.2.41-4.39,1-6.59,1.52-1.9.46-3.75.9-5.4.42a2.79,2.79,0,0,0-1.29,0,6.25,6.25,0,0,1-4.18-.4,6,6,0,0,0-2.52-.13c-1.67.23-2.08.22-1.57-.66A26.39,26.39,0,0,1,3.9,58.72c2.74-3,5.62-5.87,8.35-8.89C14,47.89,15.38,45.92,16.9,44Zm16,6.26a13.63,13.63,0,0,0,.65-2.13c.32-2.54.73-5.08.9-7.59A16.71,16.71,0,0,0,33.66,36c-.23-1.13-1.86-1.33-3.61-.37a13.94,13.94,0,0,0-3.4,2.58c-1.53,1.65-2.77,3.34-4.1,5a9.24,9.24,0,0,0-.62,1.15,12.77,12.77,0,0,1-2.12,3.27A125.91,125.91,0,0,0,11.3,58.77c-.47.6-.18,1,.8,1,1.68.15,3.35.33,5.1.36a7.56,7.56,0,0,0,2.73-.5C24.52,57.65,30.29,55.11,32.52,50.19Z" fill="#fff"/><path d="M33.74,32.14c4,0,7.52,1.75,7.44,4.67a73.71,73.71,0,0,1-2.56,14.65,4.28,4.28,0,0,1-1.13,1.61A68.52,68.52,0,0,1,26.22,61.4a11.68,11.68,0,0,1-4,1.36c-2.2.41-4.39,1-6.59,1.52a16.64,16.64,0,0,1-3.82.63,5.58,5.58,0,0,1-1.58-.21,2.38,2.38,0,0,0-.64-.08,2.76,2.76,0,0,0-.65.07,7.51,7.51,0,0,1-1.59.19,6.57,6.57,0,0,1-2.59-.59,4.28,4.28,0,0,0-1.46-.2,9,9,0,0,0-1.06.07A9.87,9.87,0,0,1,1,64.29c-.58,0-.65-.2-.31-.79A26.39,26.39,0,0,1,3.9,58.72c2.74-3,5.62-5.87,8.35-8.89C14,47.89,15.38,45.92,16.9,44l-.33,0a13.1,13.1,0,0,0,2.25-7.83,7.69,7.69,0,0,1,.43-2.7c.23-.77.73-1.06,1.71-1.06h.39a13.41,13.41,0,0,1,1.86.2,16.68,16.68,0,0,0,3.37.33,21.76,21.76,0,0,0,4.35-.46,14.24,14.24,0,0,1,2.81-.28m-16.46,28a7.26,7.26,0,0,0,2.65-.5c4.67-2,10.36-4.56,12.59-9.48a13.63,13.63,0,0,0,.65-2.13c.32-2.54.73-5.08.9-7.59A16.71,16.71,0,0,0,33.66,36c-.13-.64-.71-1-1.51-1a4.44,4.44,0,0,0-2.1.61,13.94,13.94,0,0,0-3.4,2.58c-1.53,1.65-2.77,3.34-4.1,5a9.24,9.24,0,0,0-.62,1.15,12.77,12.77,0,0,1-2.12,3.27A125.91,125.91,0,0,0,11.3,58.77c-.47.6-.18,1,.8,1,1.68.15,3.35.33,5.1.36h.08M33.87,31.89a14.59,14.59,0,0,0-2.94.3,21.76,21.76,0,0,1-4.21.44,16.49,16.49,0,0,1-3.27-.32,16,16,0,0,0-1.87-.21H21.1a3,3,0,0,0-1.42.3,1.7,1.7,0,0,0-.83,1,8.07,8.07,0,0,0-.44,2.76,13.08,13.08,0,0,1-2.24,7.73l-.15.23.3,0-1.2,1.57c-1,1.33-2.06,2.71-3.25,4s-2.52,2.72-3.8,4C6.55,55.41,5,57.05,3.49,58.68A26,26,0,0,0,.4,63.2l-.17.3c-.21.36-.6,1,.61,1a9.93,9.93,0,0,0,1.38-.14,7.34,7.34,0,0,1,.95-.06,3.59,3.59,0,0,1,1.25.17,7.25,7.25,0,0,0,2.81.62A8.27,8.27,0,0,0,9,64.92a2,2,0,0,1,.45,0,1.92,1.92,0,0,1,.47,0,6.09,6.09,0,0,0,1.76.24,17.32,17.32,0,0,0,4-.66l.7-.17c1.93-.48,3.9-1,5.85-1.33a12.15,12.15,0,0,0,4.25-1.46,69.28,69.28,0,0,0,11.33-8.38,4.67,4.67,0,0,0,1.2-1.72,74.75,74.75,0,0,0,2.53-14.7c.09-3.18-3.79-4.85-7.71-4.85Zm-16.46,28h-.07c-1.36,0-2.69-.14-4-.26l-1-.1c-.77-.06-1-.3-.58-.76,1-1.28,1.88-2.6,2.72-3.88a37.8,37.8,0,0,1,5.72-7.2,7.72,7.72,0,0,0,1.62-2.34c.17-.33.35-.67.55-1s.17-.34.25-.5a2.8,2.8,0,0,1,.35-.63l.88-1.13c1-1.28,2-2.6,3.19-3.86a13.19,13.19,0,0,1,3.26-2.49A3.8,3.8,0,0,1,32,35.26a1.11,1.11,0,0,1,1.24.84,16.55,16.55,0,0,1,.4,4.44c-.15,2.11-.47,4.29-.76,6.4-.06.39-.11.78-.16,1.17a7.09,7.09,0,0,1-.41,1.42c-.08.23-.16.46-.23.69C29.9,55,24.28,57.54,19.7,59.5a6.45,6.45,0,0,1-2.29.42Z" fill="#fff"/><path d="M237.9,53.58c-2.94.21-5.62,1-9.21,0,.35-.82.69-1.61,1-2.39s1-1,2.39-.88c1,.08,2,.23,3,.24,1.6,0,3.12-.1,4.71-.1a45.89,45.89,0,0,1,6.07.16,4,4,0,0,1,2.83,2.08c1,1.34,0,1.84-2.37,1.47-.43-.07-.86-.12-1.69-.23,1.3,2.63,2.53,5.17,3.78,7.71.32.66.82,1.33,1.11,2a.5.5,0,0,1-.41.6c-1,.2-2.08.33-3.16.45-1.37.16-1.8,0-2.13-.84-.07-.18-.15-.36-.31-.73a21.86,21.86,0,0,1-2.15.93c-1.2.36-2.48.67-3.79,1a4.3,4.3,0,0,1-1.33,0c-2.54-.35-5.08-.74-7.6-1.06A8.27,8.27,0,0,1,225,62.57c-2.58-1.67-3.63-3.55-5-5.39-.69-.92-1.45-1.83-2.18-2.74-.49-.62-1-1.24-1.5-1.86a28.47,28.47,0,0,0-1.82-2.25,3.53,3.53,0,0,1-1.27-3,2.81,2.81,0,0,0-.41-2c-1.85-2.77-1.65-5.29-1.28-7.79a5.42,5.42,0,0,0,.16-1.07c-.13-2,1.74-3.08,3.91-4a4.53,4.53,0,0,1,.59-.2,29.87,29.87,0,0,1,8.48,1.06q3,1.36,6.07,2.79a23.92,23.92,0,0,1,2.12,1.16c1.49.9,1.65,1.37.72,2A9.06,9.06,0,0,0,232,40.43a10.44,10.44,0,0,0-.83,1.59.8.8,0,0,1-.6.47,2.34,2.34,0,0,1-1.21-.36,4.66,4.66,0,0,1-1.1-1.62c-.39-1.41-2.05-2.31-4-3.11a9.08,9.08,0,0,0-5.74-.65,1.45,1.45,0,0,0-.92.75c-1,1.84-1.53,3.77-.48,6a11.3,11.3,0,0,1,.59,2.05,4.51,4.51,0,0,0,2.33,3.09,2.94,2.94,0,0,1,.79.87c1.88,2.44,3.82,4.87,5.69,7.32.79,1,1.37,2.07,2.11,3.1a3,3,0,0,0,1.06,1c4.4,2.13,6.16,2.28,8.77.55a7.91,7.91,0,0,0,2-2.12c.86-1.17.6-2.47-.93-3.91A23.26,23.26,0,0,1,237.9,53.58Z" fill="#fff"/><path d="M216.92,32.27a32.54,32.54,0,0,1,7.72,1.11q3,1.36,6.07,2.79a23.92,23.92,0,0,1,2.12,1.16c1.49.9,1.65,1.37.72,2A9.06,9.06,0,0,0,232,40.43a10.44,10.44,0,0,0-.83,1.59.8.8,0,0,1-.6.47h0a2.46,2.46,0,0,1-1.18-.36,4.66,4.66,0,0,1-1.1-1.62c-.39-1.41-2.05-2.31-4-3.11a10.6,10.6,0,0,0-4-.88,6.77,6.77,0,0,0-1.75.23,1.45,1.45,0,0,0-.92.75c-1,1.84-1.53,3.77-.48,6a11.3,11.3,0,0,1,.59,2.05,4.51,4.51,0,0,0,2.33,3.09,2.94,2.94,0,0,1,.79.87c1.88,2.44,3.82,4.87,5.69,7.32.79,1,1.37,2.07,2.11,3.1a3,3,0,0,0,1.06,1c2.4,1.16,4,1.73,5.41,1.73a5.87,5.87,0,0,0,3.36-1.18,7.91,7.91,0,0,0,2-2.12c.86-1.17.6-2.47-.93-3.91a23.26,23.26,0,0,1-1.66-1.9c-1.84.13-3.57.5-5.5.5a13,13,0,0,1-3.71-.52c.35-.82.69-1.61,1-2.39.24-.59.85-.9,1.9-.9l.49,0c1,.08,2,.23,3,.24h.26c1.49,0,2.92-.1,4.41-.1h.1l2.66,0a25.35,25.35,0,0,1,3.35.18,4,4,0,0,1,2.83,2.08c.79,1,.37,1.59-1,1.59a8.82,8.82,0,0,1-1.34-.12c-.43-.07-.86-.12-1.69-.23,1.3,2.63,2.53,5.17,3.78,7.71.32.66.82,1.33,1.11,2a.5.5,0,0,1-.41.6c-1,.2-2.08.33-3.16.45a5.45,5.45,0,0,1-.76,0,1.22,1.22,0,0,1-1.37-.89c-.07-.18-.15-.36-.31-.73a21.86,21.86,0,0,1-2.15.93c-1.2.36-2.48.67-3.79,1a1.85,1.85,0,0,1-.43,0c-.29,0-.61,0-.9-.07-2.54-.35-5.08-.74-7.6-1.06A8.27,8.27,0,0,1,225,62.57c-2.58-1.67-3.63-3.55-5-5.39-.69-.92-1.45-1.83-2.18-2.74-.49-.62-1-1.24-1.5-1.86a28.47,28.47,0,0,0-1.82-2.25,3.53,3.53,0,0,1-1.27-3,2.81,2.81,0,0,0-.41-2c-1.85-2.77-1.65-5.29-1.28-7.79a5.42,5.42,0,0,0,.16-1.07c-.13-2,1.74-3.08,3.91-4a2.66,2.66,0,0,1,1.35-.25m-.13-.25a3.76,3.76,0,0,0-.87.07,5.84,5.84,0,0,0-.64.2c-2,.82-4.17,1.89-4,4.13a2.13,2.13,0,0,1-.08.66c0,.13-.06.25-.08.38-.36,2.41-.63,5,1.31,7.91a2.68,2.68,0,0,1,.36,1.89,3.72,3.72,0,0,0,1.34,3.15,15.48,15.48,0,0,1,1.24,1.51l.55.71.54.66,1,1.19.53.67c.55.68,1.12,1.38,1.64,2.07.25.33.49.68.73,1a15.52,15.52,0,0,0,4.37,4.47,9.11,9.11,0,0,0,4,1.42c1.53.2,3.09.42,4.61.64l3,.42a8.41,8.41,0,0,0,1,.08,3.21,3.21,0,0,0,.58-.05c1.55-.35,2.77-.66,3.83-1a10.28,10.28,0,0,0,1.45-.6l.14-.06.1.22a1.6,1.6,0,0,0,.85,1,2.63,2.63,0,0,0,1.12.21,7,7,0,0,0,.83-.06c1.08-.12,2.2-.25,3.22-.47a.65.65,0,0,0,.59-.8,11.25,11.25,0,0,0-.62-1.12,9.68,9.68,0,0,1-.5-.87c-.92-1.85-1.8-3.66-2.74-5.57-.3-.61-.6-1.23-.91-1.85l.22,0,.92.13a9.25,9.25,0,0,0,1.47.13,2.17,2.17,0,0,0,1.54-.41c.31-.32.22-.81-.26-1.45l-.18-.25a4.24,4.24,0,0,0-3.12-2.06,27.72,27.72,0,0,0-3.44-.18h-2.76c-.75,0-1.5,0-2.22,0s-1.45.05-2.18.05h-.25c-.61,0-1.25-.07-1.93-.13l-1-.1-.55,0q-1.77,0-2.19,1-.33.83-.69,1.65c-.13.3-.2.45-.32.74l-.1.22.43.12a13.72,13.72,0,0,0,3.95.56,27.25,27.25,0,0,0,3.48-.28c.55-.07,1.12-.14,1.69-.19.12.14.23.29.35.42a11.28,11.28,0,0,0,1.13,1.27c1.39,1.31,1.7,2.56.87,3.69a8,8,0,0,1-2,2.08A5.49,5.49,0,0,1,235,62.44c-1.15,0-2.58-.46-5-1.65a2.64,2.64,0,0,1-.88-.84c-.31-.44-.6-.89-.88-1.32-.38-.59-.78-1.2-1.24-1.79-1.46-1.9-3-3.82-4.43-5.68l-1.29-1.64c-.05-.07-.09-.14-.14-.2a2.47,2.47,0,0,0-.77-.78,4.18,4.18,0,0,1-2.17-2.91c0-.16-.08-.32-.11-.49a8.07,8.07,0,0,0-.5-1.59,6.32,6.32,0,0,1,.47-5.91,1.33,1.33,0,0,1,.78-.66,6.74,6.74,0,0,1,1.63-.2,9.81,9.81,0,0,1,3.72.82c1.7.69,3.35,1.52,3.72,2.87A5,5,0,0,0,229,42.18a3,3,0,0,0,1.68.56h.06a1,1,0,0,0,.84-.58,5.86,5.86,0,0,0,.3-.62,3.56,3.56,0,0,1,.51-.94,4.22,4.22,0,0,1,.94-.68c.19-.11.39-.23.57-.36,1.05-.75.82-1.37-.85-2.37a22.08,22.08,0,0,0-2.19-1.2c-2-.94-4.07-1.88-6.07-2.79-1.3-.59-6.07-1.18-8-1.18Z" fill="#fff"/><path d="M85.37,62.14a19.74,19.74,0,0,1,1.22-2.3,21,21,0,0,0,4.11-12.1c0-1.85.08-3.72,1.4-5.57a3,3,0,0,0,.08-3.31c-1-1.87-.34-3.76.61-5.67.74-1.48,2.5-2.19,4.75-1.94.75.09,1.46.3,2.19.45.89.18,1.76.41,2.66.56a7.17,7.17,0,0,1,5.48,3.46c1.08,1.73,1.18,3.47,1.6,5.25.72,3.12-.4,5.82-3.57,8.38A11.48,11.48,0,0,1,99,51.63c-1.06,0-2.13.13-3.19.14-.9,0-1.54.27-1.67.76-.54,2.13-1.52,4.27-.28,6.35a12.56,12.56,0,0,1,.77,2.44,7.35,7.35,0,0,0,.74,1.74c.3.48.06.66-.78.74-2.35.23-4.7.51-7.06.68A2.23,2.23,0,0,1,86,64,6.66,6.66,0,0,1,85.37,62.14Zm14.76-14.41a6.15,6.15,0,0,0,1.71-.25c1.77-.85,3.21-1.83,2.86-3.33a4,4,0,0,1,0-1.73c.48-2.15-1.07-4-1.64-6-.23-.77-1.1-.86-2.85-.53-1.07.21-1.9.5-1.88,1.39a6.73,6.73,0,0,1-.44,2c-.71,2.38-1.46,4.77-2.23,7.15-.2.61.15.93,1.16,1S98.86,47.63,100.13,47.73Z" fill="#fff"/><path d="M96.66,31.2c.28,0,.57,0,.88.05.75.09,1.46.3,2.19.45.89.18,1.76.41,2.66.56a7.17,7.17,0,0,1,5.48,3.46c1.08,1.73,1.18,3.47,1.6,5.25.72,3.12-.4,5.82-3.57,8.38A11.48,11.48,0,0,1,99,51.63c-1.06,0-2.13.13-3.19.14-.9,0-1.54.27-1.67.76-.54,2.13-1.52,4.27-.28,6.35a12.56,12.56,0,0,1,.77,2.44,7.35,7.35,0,0,0,.74,1.74c.3.48.06.66-.78.74-2.35.23-4.7.51-7.06.68H87.4A2.15,2.15,0,0,1,86,64a6.66,6.66,0,0,1-.63-1.87,19.74,19.74,0,0,1,1.22-2.3,21,21,0,0,0,4.11-12.1c0-1.85.08-3.72,1.4-5.57a3,3,0,0,0,.08-3.31c-1-1.87-.34-3.76.61-5.67a4.06,4.06,0,0,1,3.87-2m3.47,16.53a6.15,6.15,0,0,0,1.71-.25c1.77-.85,3.21-1.83,2.86-3.33a4,4,0,0,1,0-1.73c.48-2.15-1.07-4-1.64-6-.15-.5-.56-.71-1.31-.71a8.37,8.37,0,0,0-1.54.18c-1.07.21-1.9.5-1.88,1.39a6.73,6.73,0,0,1-.44,2c-.71,2.38-1.46,4.77-2.23,7.15-.2.61.15.93,1.16,1s2,.15,3.32.25M96.7,31h0a4.49,4.49,0,0,0-4.27,2.19C91.5,35,90.74,37,91.8,39a2.78,2.78,0,0,1-.06,3.12,9.08,9.08,0,0,0-1.45,5.6v.07a20.77,20.77,0,0,1-4.1,12,10,10,0,0,0-.85,1.54c-.13.25-.25.52-.4.79l0,.06,0,.06c0,.15.08.32.12.49a4.63,4.63,0,0,0,.52,1.42,2.59,2.59,0,0,0,1.79.61h.16c1.64-.12,3.28-.29,4.87-.46l2.22-.22a2.15,2.15,0,0,0,1.16-.36c.26-.24.13-.51,0-.73a6.17,6.17,0,0,1-.65-1.47L95,61.25c-.09-.28-.16-.57-.23-.86a5.33,5.33,0,0,0-.56-1.61c-1-1.7-.5-3.41,0-5.23.1-.33.2-.67.28-1S95,52,95.76,52s1.39-.05,2.06-.08c.39,0,.77,0,1.16-.06a12,12,0,0,0,7.25-2.39c3.26-2.63,4.37-5.44,3.63-8.57-.09-.4-.17-.8-.25-1.2a11.29,11.29,0,0,0-1.38-4.11,7.56,7.56,0,0,0-5.72-3.6c-.59-.1-1.18-.23-1.75-.36l-.89-.19-.64-.15a13,13,0,0,0-1.6-.3A7.38,7.38,0,0,0,96.7,31Zm3.44,16.53-1.07-.09c-.79-.07-1.48-.12-2.18-.16a1.51,1.51,0,0,1-.76-.19c-.13-.11-.15-.29-.08-.53.74-2.28,1.5-4.72,2.22-7.14a2.29,2.29,0,0,0,.08-.28,5.71,5.71,0,0,0,.36-1.81c0-.68.52-.91,1.58-1.12a8.43,8.43,0,0,1,1.42-.17c.58,0,.84.15,1,.53a14.18,14.18,0,0,0,.75,1.86c.61,1.34,1.2,2.6.89,4a4.2,4.2,0,0,0,0,1.8c.3,1.32-.84,2.19-2.7,3.09a3.71,3.71,0,0,1-1,.16,2.9,2.9,0,0,0-.43,0Z" fill="#fff"/><path d="M119.61,39.81c-.24,2.22-.52,4.45-.73,6.68-.1,1,.32,1.22,1.9.94,1.29-.23,2.48-.67,3.75-.93a5.42,5.42,0,0,1,2.31-.16,1.62,1.62,0,0,1,.55,1.6c-.17.67-.78,1.27,0,2,.11.1-.47.67-.87.73a13.52,13.52,0,0,1-1.84-.15c-1.74,0-3.49.05-5.22.15a.83.83,0,0,0-.56.6c-.34,2.8-.74,5.6-.93,8.4-.08,1.19.44,1.34,2.51,1,1.86-.29,3.67-.68,5.52-1a20.74,20.74,0,0,1,3-.27c1.53,0,2.1.48,1.62,1.3-.18.31-.51.6-.65.91a6,6,0,0,0-.6,1.75c-.09.86-.37,1.1-1.92,1.06a24.93,24.93,0,0,1-2.74-.28,9.5,9.5,0,0,0-4.28.19,25.15,25.15,0,0,1-2.75.62c-3.14.59-5.85-.48-5.57-2.29s.81-3.46,1.06-5.19a6.42,6.42,0,0,0-.19-2.79,6.52,6.52,0,0,1,.49-5,4.18,4.18,0,0,0-.16-4.21,3.31,3.31,0,0,1-.27-2.66,20.31,20.31,0,0,0,.76-6.85,7.58,7.58,0,0,1,.06-1.16c.18-1.39,1.28-2,3.38-1.85,2.82.14,5.66.29,8.51.32a18.24,18.24,0,0,0,3.25-.49c.48-.08.92-.28,1.4-.32a2,2,0,0,1,1.12.22.63.63,0,0,1,.06.74,17.77,17.77,0,0,0-1.06,1.66,3.21,3.21,0,0,0-.15,1.76c.11.56-.15.9-.94.95a9.82,9.82,0,0,1-2.37-.16c-1.14-.24-2.19-.65-3.32-.89a10.32,10.32,0,0,0-2.24-.19c-1,0-1.6.35-1.69,1s-.16,1.49-.25,2.23Z" fill="#fff"/><path d="M130.52,32.47a1.93,1.93,0,0,1,1,.22.63.63,0,0,1,.06.74,17.77,17.77,0,0,0-1.06,1.66,3.21,3.21,0,0,0-.15,1.76c.11.56-.15.9-.94.95h-.55a9,9,0,0,1-1.82-.17c-1.14-.24-2.19-.65-3.32-.89a10.32,10.32,0,0,0-2.24-.19c-1,0-1.6.35-1.69,1s-.16,1.49-.25,2.23h.08c-.24,2.22-.52,4.45-.73,6.68-.07.73.14,1,.89,1a6.26,6.26,0,0,0,1-.11c1.29-.23,2.48-.67,3.75-.93a10.92,10.92,0,0,1,1.86-.25.8.8,0,0,1,.45.09,1.62,1.62,0,0,1,.55,1.6c-.17.67-.78,1.27,0,2,.11.1-.47.67-.87.73l-.26,0c-.49,0-1-.17-1.56-.17h0c-1.74,0-3.49.05-5.22.15a.83.83,0,0,0-.56.6c-.34,2.8-.74,5.6-.93,8.4,0,.84.19,1.16,1.08,1.16a10.24,10.24,0,0,0,1.43-.14c1.86-.29,3.67-.68,5.52-1a20.74,20.74,0,0,1,3-.27H129c1.49,0,2,.49,1.57,1.3-.18.31-.51.6-.65.91a6,6,0,0,0-.6,1.75c-.08.79-.33,1.06-1.57,1.06h-.35a24.93,24.93,0,0,1-2.74-.28,12.07,12.07,0,0,0-1.87-.15,8,8,0,0,0-2.41.34,25.15,25.15,0,0,1-2.75.62,9.2,9.2,0,0,1-1.7.16c-2.36,0-4.09-1-3.87-2.45.27-1.73.81-3.46,1.06-5.19a6.42,6.42,0,0,0-.19-2.79,6.52,6.52,0,0,1,.49-5,4.18,4.18,0,0,0-.16-4.21,3.31,3.31,0,0,1-.27-2.66,20.31,20.31,0,0,0,.76-6.85,7.58,7.58,0,0,1,.06-1.16c.17-1.28,1.12-1.87,2.91-1.87l.47,0c2.82.14,5.66.29,8.51.32h0a19.5,19.5,0,0,0,3.2-.49c.48-.08.92-.28,1.4-.32h.15m0-.25h-.2a5.16,5.16,0,0,0-.92.19,3.79,3.79,0,0,1-.53.14l-.91.17a10.79,10.79,0,0,1-2.19.31h0c-2.62,0-5.28-.16-7.86-.29l-.61,0-.5,0c-2,0-3.12.71-3.31,2.11a7.33,7.33,0,0,0-.06,1.18,20.11,20.11,0,0,1-.77,6.8,3.51,3.51,0,0,0,.28,2.8,4,4,0,0,1,.15,4,6.64,6.64,0,0,0-.51,5.11,6.17,6.17,0,0,1,.18,2.73c-.13.87-.33,1.76-.53,2.61s-.41,1.71-.54,2.57a1.94,1.94,0,0,0,1.07,2,6.27,6.27,0,0,0,3.23.76,9.82,9.82,0,0,0,1.85-.18,27.36,27.36,0,0,0,2.82-.64,7.45,7.45,0,0,1,2.2-.31,11.51,11.51,0,0,1,1.76.14,24.84,24.84,0,0,0,2.83.29h.37c1.59,0,1.93-.43,2-1.29a5.25,5.25,0,0,1,.52-1.55l.06-.15a2.54,2.54,0,0,1,.33-.47,3.32,3.32,0,0,0,.32-.42.83.83,0,0,0-.14-1.2,2.92,2.92,0,0,0-1.85-.44H129a20.69,20.69,0,0,0-3.07.28c-.9.14-1.8.31-2.68.48s-1.88.35-2.83.5a9.49,9.49,0,0,1-1.31.13.88.88,0,0,1-.44-.07c-.26-.15-.22-.67-.21-.84.15-2.32.45-4.67.73-7,.06-.48.12-1,.17-1.43a.84.84,0,0,1,.26-.38c1.6-.08,3.27-.13,5.12-.14h0a4.82,4.82,0,0,1,.71.08,6.11,6.11,0,0,0,.86.09,2.13,2.13,0,0,0,.37,0,1.88,1.88,0,0,0,1.13-.76.25.25,0,0,0,0-.35c-.49-.43-.32-.8-.12-1.28a3,3,0,0,0,.18-.5,1.8,1.8,0,0,0-.64-1.79,1.3,1.3,0,0,0-.77-.19,11.83,11.83,0,0,0-2,.26c-.61.12-1.19.29-1.76.44a18.2,18.2,0,0,1-2,.48,5.53,5.53,0,0,1-.89.11.62.62,0,0,1-.34-.06c-.14-.09-.19-.34-.15-.73.15-1.58.33-3.19.5-4.75.07-.64.15-1.29.21-1.93l0-.25H120c0-.14,0-.28,0-.42.06-.52.11-1,.17-1.55s.49-.78,1.29-.78a10.42,10.42,0,0,1,2.13.18c.53.11,1.06.27,1.58.42s1.14.34,1.74.47a10,10,0,0,0,2,.18h.58a1.83,1.83,0,0,0,1-.31.87.87,0,0,0,.27-.92,3,3,0,0,1,.14-1.66,4.19,4.19,0,0,1,.57-.92,5.63,5.63,0,0,0,.48-.72.8.8,0,0,0-.13-1,2.34,2.34,0,0,0-1.26-.31Z" fill="#fff"/><path d="M52.74,40.39c-.94,2.07-1.91,4.13-2.83,6.2-.39.87-.12,1.09,1.34.86s2.91-.69,4.37-1c.8-.15,2.1-.35,2.35-.13s.26,1,0,1.52c-.38.69-1.23,1.29-.76,2,.29.45-1.08,1-1.92.72-1.7-.64-3.73-.08-5.6-.08a2.23,2.23,0,0,0-1.3.55c-1.41,2.88-2.84,5.76-4,8.64-.46,1.08,0,1.21,2.07.91s3.92-.69,5.88-1a25.74,25.74,0,0,1,3.48-.27c1.1,0,1.57.44,1,1.07-1,1.09-2.4,2.1-2.61,3.32,0,.18-1,.57-1.51.58a19.57,19.57,0,0,1-3.1-.24,10.28,10.28,0,0,0-4.49.19c-.9.25-1.87.42-2.82.59-3.45.63-5.72-.44-4.81-2.31.46-.94,1-1.87,1.6-2.8,1.13-1.84,2.16-3.67,2.15-5.51,0-1.59,1-3.18,2.29-4.75a5,5,0,0,0,1.29-4,7.22,7.22,0,0,1,.88-3.25c.89-2.06,1.94-4.12,2.9-6.18.24-.53.38-1.05.67-1.57.64-1.18,1.83-1.72,3.6-1.65,2.38.1,4.78.16,7.14.31a14.66,14.66,0,0,0,5.19-.51,5.68,5.68,0,0,1,1.26-.27,1.78,1.78,0,0,1,1.06.19c.16.15,0,.52-.17.75-.52.59-1.24,1.14-1.71,1.74a3.25,3.25,0,0,0-.75,1.6c0,.74-.65,1.07-1.67,1.1a7,7,0,0,1-1.92-.22c-1-.26-2-.66-3-.89a10.72,10.72,0,0,0-2.31-.18,1.92,1.92,0,0,0-1.84.94l-1.38,2.88Z" fill="#fff"/><path d="M66.52,32.47a1.57,1.57,0,0,1,.91.2c.16.15,0,.52-.17.75-.52.59-1.24,1.14-1.71,1.74a3.25,3.25,0,0,0-.75,1.6c0,.74-.65,1.07-1.67,1.1h-.2a7.23,7.23,0,0,1-1.72-.22c-1-.26-2-.66-3-.89a9.39,9.39,0,0,0-2.1-.18h-.21a1.92,1.92,0,0,0-1.84.94l-1.38,2.88h.05c-.94,2.07-1.91,4.13-2.83,6.2-.3.66-.21.94.48.94a6.51,6.51,0,0,0,.86-.08c1.47-.23,2.91-.69,4.37-1a11.86,11.86,0,0,1,1.84-.23.89.89,0,0,1,.51.1c.38.33.26,1,0,1.52-.38.69-1.23,1.29-.76,2,.23.36-.6.81-1.37.81a1.63,1.63,0,0,1-.55-.09,5.61,5.61,0,0,0-2-.31c-1.18,0-2.44.23-3.62.23h0a2.23,2.23,0,0,0-1.3.55c-1.41,2.88-2.84,5.76-4,8.64-.32.76-.18,1,.65,1a10.26,10.26,0,0,0,1.42-.14c2-.28,3.92-.69,5.88-1a25,25,0,0,1,3.43-.27h.05c1.1,0,1.57.44,1,1.07-1,1.09-2.4,2.1-2.61,3.32,0,.18-1,.57-1.51.58H52.4a20.59,20.59,0,0,1-2.88-.24A12.1,12.1,0,0,0,47.61,64a9.62,9.62,0,0,0-2.58.35c-.9.25-1.87.42-2.82.59a9.82,9.82,0,0,1-1.87.18c-2.36,0-3.67-1-2.94-2.49.46-.94,1-1.87,1.6-2.8,1.13-1.84,2.16-3.67,2.15-5.51,0-1.59,1-3.18,2.29-4.75a5,5,0,0,0,1.29-4,7.22,7.22,0,0,1,.88-3.25c.89-2.06,1.94-4.12,2.9-6.18.24-.53.38-1.05.67-1.57A3.38,3.38,0,0,1,52.48,33h.3c2.38.1,4.78.16,7.14.31.4,0,.79,0,1.19,0a14,14,0,0,0,4-.55,5.68,5.68,0,0,1,1.26-.27h.15m.08-.25h-.18a6.08,6.08,0,0,0-1.36.28h0a13.11,13.11,0,0,1-3.82.53c-.36,0-.75,0-1.14,0-1.81-.11-3.67-.18-5.47-.25L52.9,32.7h-.32a4,4,0,0,0-3.78,1.89,8.26,8.26,0,0,0-.41.93c-.08.22-.16.44-.26.65l-1,2.06c-.65,1.35-1.33,2.75-1.93,4.13l-.07.16a6.65,6.65,0,0,0-.82,3.16,4.84,4.84,0,0,1-1.26,3.83c-1.6,1.91-2.36,3.46-2.35,4.87,0,1.78-1,3.51-2.13,5.42-.53.87-1.14,1.85-1.62,2.82a1.51,1.51,0,0,0,.4,2,4.82,4.82,0,0,0,2.88.73,11.33,11.33,0,0,0,2-.2l.25,0c.88-.16,1.79-.33,2.65-.57a8.82,8.82,0,0,1,2.35-.32,12.23,12.23,0,0,1,1.81.15,20.56,20.56,0,0,0,3,.25h.23a4.34,4.34,0,0,0,1.62-.46c.26-.14.4-.26.42-.39a5.16,5.16,0,0,1,1.8-2.48c.24-.23.5-.48.73-.73s.42-.73.19-1a2,2,0,0,0-1.46-.42H55.8a24.3,24.3,0,0,0-3.54.28c-1,.14-2,.32-3,.49s-1.92.34-2.88.48a9.67,9.67,0,0,1-1.3.13c-.27,0-.35,0-.38-.07s-.1-.33.06-.73c1.15-2.77,2.53-5.58,3.86-8.31l.15-.32a2.06,2.06,0,0,1,.8-.31c.63,0,1.27-.06,1.88-.12s1.19-.11,1.75-.11a4.89,4.89,0,0,1,1.78.28,2.13,2.13,0,0,0,.74.12,2.79,2.79,0,0,0,1.61-.49c.3-.23.39-.48.26-.7-.3-.46,0-.85.36-1.31a5.72,5.72,0,0,0,.39-.57,1.42,1.42,0,0,0,0-1.72,1.22,1.22,0,0,0-.78-.18,12.16,12.16,0,0,0-2,.24c-.67.13-1.35.29-2,.45s-1.55.38-2.33.51a5,5,0,0,1-.75.07c-.21,0-.25,0-.26,0s-.1-.21.09-.64c.65-1.47,1.34-3,2-4.41l.81-1.78.11-.25h0c.11-.24.17-.37.29-.61l1-2a1.37,1.37,0,0,1,1.37-.69H56A9,9,0,0,1,58,37a15.36,15.36,0,0,1,1.6.47c.44.14.9.29,1.39.42a7.89,7.89,0,0,0,1.85.24h.22a3.06,3.06,0,0,0,1.52-.38,1.27,1.27,0,0,0,.61-1,3,3,0,0,1,.7-1.49,7.94,7.94,0,0,1,.91-.94,9.69,9.69,0,0,0,.78-.79c.23-.26.44-.74.18-1a1.93,1.93,0,0,0-1.17-.29Z" fill="#fff"/><path d="M75,40.07c-.75,2.12-1.52,4.24-2.24,6.36-.36,1.06,0,1.3,1.84,1,1.44-.26,2.82-.69,4.23-1,1.91-.46,2.58-.18,2.31,1-.08.37-.45.74-.6,1.12a4.27,4.27,0,0,0-.24,1c0,.28.14.69-.08.8a3.16,3.16,0,0,1-1.61.31c-1.71-.71-3.74-.09-5.6-.09a2.28,2.28,0,0,0-1.28.62c-.3.35-.28.77-.43,1.15-.36.93-.8,1.86-1.11,2.79-.53,1.62-1,3.24-1.48,4.86-.22.73.49.92,1.6.75,2.13-.33,4.23-.72,6.34-1A21.87,21.87,0,0,1,80,59.41c1.37,0,1.82.5,1.18,1.22-.91,1-2.14,2-2.14,3.15,0,.18-.89.56-1.39.61a7.89,7.89,0,0,1-2.29-.11,12.93,12.93,0,0,0-6.31.27,10,10,0,0,1-5.31.32c-1.62-.43-2.08-.82-1.65-1.89.73-1.82,1.65-3.62,2.32-5.44a8.32,8.32,0,0,0,.5-2.95,7.61,7.61,0,0,1,1.55-4.68c1.08-1.5,1.53-2.94,1-4.44a4.6,4.6,0,0,1,.38-2.75c.66-2,1.47-4.07,2.19-6.1.23-.66.31-1.33.58-2,.48-1.18,1.67-1.75,3.4-1.69,2.39.09,4.8.16,7.18.31a14.57,14.57,0,0,0,5.24-.52,7.17,7.17,0,0,1,1.36-.29c1-.08,1.35.33.87.92A16.56,16.56,0,0,0,87.24,35a5.41,5.41,0,0,0-.7,1.91c-.07.49-.27.88-1.06.92A9.82,9.82,0,0,1,83,37.63c-1.09-.23-2-.66-3.11-.89a11.68,11.68,0,0,0-2.47-.15,1.58,1.58,0,0,0-1.59.92c-.3.85-.61,1.7-.92,2.56Z" fill="#fff"/><path d="M88,32.44c.79,0,1.07.39.63.93A16.56,16.56,0,0,0,87.24,35a5.41,5.41,0,0,0-.7,1.91c-.07.49-.27.88-1.06.92h-.64A8.71,8.71,0,0,1,83,37.63c-1.09-.23-2-.66-3.11-.89A10.09,10.09,0,0,0,78,36.58h-.53a1.58,1.58,0,0,0-1.59.92c-.3.85-.61,1.7-.92,2.56H75c-.75,2.12-1.52,4.24-2.24,6.36-.26.77-.12,1.11.67,1.11a6.83,6.83,0,0,0,1.17-.14c1.44-.26,2.82-.69,4.23-1a6.08,6.08,0,0,1,1.39-.21c.84,0,1.11.39.92,1.23-.08.37-.45.74-.6,1.12a4.27,4.27,0,0,0-.24,1c0,.28.14.69-.08.8a3.94,3.94,0,0,1-1.38.34.71.71,0,0,1-.23,0,5,5,0,0,0-2-.34c-1.2,0-2.46.25-3.64.25a2.28,2.28,0,0,0-1.28.62c-.3.35-.28.77-.43,1.15-.36.93-.8,1.86-1.11,2.79-.53,1.62-1,3.24-1.48,4.86-.18.56.21.8.92.8a5.89,5.89,0,0,0,.68-.05c2.13-.33,4.23-.72,6.34-1A21.87,21.87,0,0,1,80,59.41h0c1.37,0,1.82.5,1.18,1.22-.91,1-2.14,2-2.14,3.15,0,.18-.89.56-1.39.61-.24,0-.49,0-.75,0a8.38,8.38,0,0,1-1.54-.15,12.75,12.75,0,0,0-2.6-.27,13.65,13.65,0,0,0-3.71.54,12.73,12.73,0,0,1-3.44.55,7.37,7.37,0,0,1-1.87-.23c-1.62-.43-2.08-.82-1.65-1.89.73-1.82,1.65-3.62,2.32-5.44a8.32,8.32,0,0,0,.5-2.95,7.61,7.61,0,0,1,1.55-4.68c1.08-1.5,1.53-2.94,1-4.44a4.6,4.6,0,0,1,.38-2.75c.66-2,1.47-4.07,2.19-6.1.23-.66.31-1.33.58-2C71,33.52,72.13,33,73.73,33H74c2.39.09,4.8.16,7.18.31.4,0,.8,0,1.2,0a14,14,0,0,0,4-.56,7.17,7.17,0,0,1,1.36-.29H88m0-.25h-.29a7.81,7.81,0,0,0-1.47.31,13.51,13.51,0,0,1-3.87.54c-.38,0-.77,0-1.17,0-2-.13-4-.2-5.88-.26l-1.3,0H73.8c-1.81,0-3.08.68-3.6,1.92a8.51,8.51,0,0,0-.34,1.13c-.07.28-.15.58-.25.86l-.82,2.26c-.47,1.26-1,2.56-1.38,3.84l-.06.21A4.21,4.21,0,0,0,67,45.56c.48,1.33.19,2.7-1,4.29a7.81,7.81,0,0,0-1.59,4.78,8.27,8.27,0,0,1-.5,2.9c-.37,1-.83,2-1.28,3-.36.79-.72,1.6-1,2.4-.51,1.26.22,1.71,1.84,2.14a8,8,0,0,0,2.05.25,13.21,13.21,0,0,0,3.67-.58,12.65,12.65,0,0,1,3.49-.51,12.32,12.32,0,0,1,2.46.26,9.15,9.15,0,0,0,1.69.16c.28,0,.56,0,.83,0,.61-.07,1.81-.5,1.81-.89,0-.87.72-1.61,1.48-2.39.2-.21.41-.42.6-.64.38-.43.44-.83.16-1.12A2.32,2.32,0,0,0,80,59.16a23.35,23.35,0,0,0-3.42.29c-1.14.17-2.3.37-3.42.56-1,.16-1.94.33-2.92.47a3,3,0,0,1-.56.05.86.86,0,0,1-.46-.09c-.12-.08-.15-.24-.09-.46l.33-1.11c.36-1.22.74-2.49,1.15-3.74.19-.59.44-1.19.69-1.77.13-.33.28-.67.41-1,0-.15.08-.29.12-.43a1.34,1.34,0,0,1,.26-.65,1.84,1.84,0,0,1,.85-.46,17,17,0,0,0,1.88-.13c.61-.06,1.19-.12,1.75-.12a4.59,4.59,0,0,1,1.76.3,1.13,1.13,0,0,0,.44.07,4.82,4.82,0,0,0,1.68-.4c.34-.17.31-.44.27-.71a1,1,0,0,1,0-.29v-.06a4.34,4.34,0,0,1,.22-.93,3.65,3.65,0,0,1,.26-.45,2,2,0,0,0,.35-.7c.14-.61,0-1-.29-1.24a1.71,1.71,0,0,0-1-.24,6.57,6.57,0,0,0-1.56.23l-1.49.38c-.88.24-1.79.48-2.69.64a5.76,5.76,0,0,1-1,.13c-.24,0-.31,0-.35-.07s-.13-.36,0-.78c.51-1.5,1-3,1.57-4.5l.66-1.86.09-.25h-.09c.08-.21.12-.31.19-.52l.63-1.79a1.14,1.14,0,0,1,1.16-.68h.52a8.36,8.36,0,0,1,1.82.15,11.74,11.74,0,0,1,1.51.43c.51.16,1,.33,1.61.45a9.23,9.23,0,0,0,1.93.17h.66c1.32-.06,1.44-.87,1.48-1.18A5.05,5.05,0,0,1,87.6,35a4.9,4.9,0,0,1,.78-.92,8.48,8.48,0,0,0,.58-.63c.29-.36.34-.69.14-.93a1.36,1.36,0,0,0-1-.35Z" fill="#fff"/><path d="M172.59,54.6c-.47-1-.94-2.07-1.4-3.1a7.23,7.23,0,0,1-.72-1.73c-.4-3.63-2.5-7.11-4.44-10.63a12.73,12.73,0,0,1-1.29-4.75c-.14-1.1.63-1.44,2.3-1.45.87,0,1.78.09,2.64.06s1.4-.2,2.12-.26,1.71-.08,2.57-.12c.18.56.59,1.15.52,1.66A19.65,19.65,0,0,1,174,37.7a6,6,0,0,0,.18,3.81c.62,2,.93,3.91,1.4,5.87a3.3,3.3,0,0,0,.55,1.56c1.81,2.15,1.83,4.28,1.85,6.45a13.33,13.33,0,0,0,1.09,4c.48,1.37,1.15,2.73,1.69,4.1.3.77-.75.93-1.72.93a14.17,14.17,0,0,0-4.7.46c-1.08.37-2.8-.38-2.88-1.3a4.76,4.76,0,0,1,.42-3.12C173.1,58.6,172.78,56.63,172.59,54.6Z" fill="#fff"/><path d="M174.37,32.62c.18.56.59,1.15.52,1.66A19.65,19.65,0,0,1,174,37.7a6,6,0,0,0,.18,3.81c.62,2,.93,3.91,1.4,5.87a3.3,3.3,0,0,0,.55,1.56c1.81,2.15,1.83,4.28,1.85,6.45a13.33,13.33,0,0,0,1.09,4c.48,1.37,1.15,2.73,1.69,4.1.3.76-.72.93-1.68.93h-.91a11.78,11.78,0,0,0-3.83.46,1.85,1.85,0,0,1-.63.1c-1,0-2.18-.65-2.25-1.4a4.76,4.76,0,0,1,.42-3.12c1.25-1.88.93-3.85.74-5.88-.47-1-.94-2.07-1.4-3.1a7.23,7.23,0,0,1-.72-1.73c-.4-3.63-2.5-7.11-4.44-10.63a12.73,12.73,0,0,1-1.29-4.75c-.14-1.1.63-1.44,2.3-1.45h.08c.72,0,1.47.06,2.2.06h.36c.73,0,1.4-.2,2.12-.26s1.71-.08,2.57-.12m.29-.26h-.39l-.77,0c-.6,0-1.21,0-1.81.09-.34,0-.66.08-1,.13s-.75.11-1.12.13h-.34l-1.08,0c-.37,0-.75,0-1.12,0H167c-1.4,0-2.81.22-2.63,1.7a12.83,12.83,0,0,0,1.31,4.81c.09.18.14.26.24.44,1.81,3.28,3.78,6.68,4.15,10.13a3.93,3.93,0,0,0,.48,1.25c.09.17.18.35.25.52l1,2.2c.15.35.23.53.39.88,0,.15,0,.3,0,.44.18,1.87.36,3.63-.77,5.31a5,5,0,0,0-.45,3.2v0a1.76,1.76,0,0,0,1,1.24,3.87,3.87,0,0,0,1.72.43,2.57,2.57,0,0,0,.85-.13,11,11,0,0,1,3.61-.43h.91a3.25,3.25,0,0,0,1.83-.37.64.64,0,0,0,.23-.83c-.23-.57-.48-1.15-.73-1.71-.34-.78-.69-1.59-1-2.39-.09-.25-.18-.5-.28-.75a10.24,10.24,0,0,1-.81-3.21v-.15c0-2.09-.09-4.26-1.92-6.42a2.49,2.49,0,0,1-.43-1.13c0-.12,0-.23-.07-.35-.16-.65-.3-1.32-.44-2-.27-1.28-.56-2.6-1-3.9a5.69,5.69,0,0,1-.2-3.71,18.94,18.94,0,0,0,.92-3.46,2.28,2.28,0,0,0-.32-1.22,5.49,5.49,0,0,1-.21-.51l-.08-.25Z" fill="#fff"/><path d="M187.75,42.56a7.71,7.71,0,0,0,.12,1.72c.76,2.89,1.61,5.79,2.35,8.68s1.36,5.82,2.12,8.74a6.21,6.21,0,0,0,1.17,2c.5.67.43,1.19-.7,1.39-.92.17-2,.16-3,.27a21.68,21.68,0,0,0-2.51.35c-1.13.27-2.65-.24-2.67-1-.07-2.42-.07-4.84,0-7.25a6.65,6.65,0,0,1,.53-2,8.67,8.67,0,0,0-.29-7,6.47,6.47,0,0,1-.25-2.43,5.19,5.19,0,0,0-.13-1.71c-.78-1.89-1.69-3.77-2.51-5.66-.52-1.18-1-2.36-1.46-3.55-.21-.56.09-.94.91-1.08a5.9,5.9,0,0,1,.83-.11,17.65,17.65,0,0,0,6.83-1.19,3.46,3.46,0,0,1,1.85.06c.84.28.7.75.46,1.15a.45.45,0,0,0,.07.48,6,6,0,0,1,1.36,4.72c-.09,2.09,1.45,4.11,2.69,6.14A17,17,0,0,1,197,47.6c.87,2.38,3.05,4.53,5.3,6.7,1.35,1.3,2.41,2.68,3.64,4,.27.3.62.58.94.87h.41a5.86,5.86,0,0,0-.08-1.32c-.76-2.67-1.55-5.34-2.42-8a6.3,6.3,0,0,0-1.05-1.45q-1.51-2.07-3-4.12a7.5,7.5,0,0,0-.95-1.29,6.36,6.36,0,0,1-2-3.82,10.36,10.36,0,0,0-.94-2c-.12-.24-.36-.51-.35-.73a3.76,3.76,0,0,0-.89-2.43c-.63-.84.47-1.53,1.93-1.17a7.62,7.62,0,0,0,4.18-.15,5.56,5.56,0,0,1,.87-.19c1.6-.24,2.7.28,2.75,1.38a11.27,11.27,0,0,1-.26,3.68c-.69,2.26.16,4.61,1.63,7a28.37,28.37,0,0,0,2.2,3.27A7.76,7.76,0,0,1,210.75,53c0,2.57,1.26,5.14,3,7.72a7.52,7.52,0,0,1,.87,1.65c.31.88-.8,1.48-2.41,1.26a18.94,18.94,0,0,0-6.06,0c-1.76.31-2.71-.11-3.26-1.19-2.09-4.07-5.35-7.25-8.55-10.42A19.21,19.21,0,0,1,190,46.12c-.49-1-1-2-1.47-3a4.51,4.51,0,0,0-.44-.59Z" fill="#fff"/><path d="M141.81,42.58c-.1,1-.26,1.93-.28,2.9,0,1.19.09,2.37.11,3.56.08,4.32.12,8.64.19,13a3.38,3.38,0,0,0,.61,1.6c.51.83.19,1.36-1.32,1.58-.88.13-1.85.09-2.76.18a19,19,0,0,0-2.45.34c-1.21.29-2.53-.19-2.43-1a26.15,26.15,0,0,1,.91-5,37.19,37.19,0,0,1,2.42-5.38,8.4,8.4,0,0,0,.83-5.45,9.82,9.82,0,0,1,.36-2.92,4.42,4.42,0,0,0,.19-1.38c-.34-1.95-.77-3.89-1.13-5.83-.22-1.18-.4-2.36-.58-3.55-.1-.62.38-1,1.27-1.11a8.18,8.18,0,0,1,1.11-.11,16.79,16.79,0,0,0,6.5-1.12,3.78,3.78,0,0,1,1-.24c1.07-.07,1.74.51,1.42,1.18-.13.27-.29.6-.15.85A3.91,3.91,0,0,1,148,38c-.87,2.53.05,5,1.06,7.53.51,1.28.84,2.57,1.34,3.85a12,12,0,0,0,1.21,2.33c1.46,2.2,3,4.39,4.63,6.58.21.3.47.59.71.88h.44a6.63,6.63,0,0,0,.24-1.39c-.12-2.66-.24-5.33-.49-8,0-.53-.59-1.06-.86-1.6-.63-1.29-1.22-2.59-1.83-3.88a5.81,5.81,0,0,0-.72-1.37,5.28,5.28,0,0,1-1-3.66,10.87,10.87,0,0,0-.44-2.11c-.07-.3-.14-.6-.18-.9a16.44,16.44,0,0,0-.3-2.09c-.28-1,.74-1.7,2.25-1.33a7.5,7.5,0,0,0,4.09-.13,7,7,0,0,1,.69-.15c1.94-.37,3,.2,2.72,1.52a17.78,17.78,0,0,1-1.39,4.13,6.49,6.49,0,0,0-.13,5.34,40.2,40.2,0,0,0,1.8,4.42,6.64,6.64,0,0,1,.55,4.75,12.68,12.68,0,0,0,1.13,8.13,4.82,4.82,0,0,1,.44,1.56c.06.83-1.2,1.44-2.65,1.23a19.31,19.31,0,0,0-6.21,0c-1.75.29-2.6-.13-2.89-1.16a26.1,26.1,0,0,0-5.84-10.2,16.11,16.11,0,0,1-3.33-7.3c-.2-.81-.44-1.62-.66-2.42Z" fill="#fff"/><path d="M16.57,43.93a13.1,13.1,0,0,0,2.25-7.83,7.69,7.69,0,0,1,.43-2.7c.26-.87.86-1.13,2.1-1a13.41,13.41,0,0,1,1.86.2,19.23,19.23,0,0,0,7.72-.13c3.5-.72,9.76-.3,10.25,4.39a73.71,73.71,0,0,1-2.56,14.65,4.28,4.28,0,0,1-1.13,1.61A68.67,68.67,0,0,1,26.22,61.4a11.68,11.68,0,0,1-4,1.36c-2.2.41-4.39,1-6.59,1.52-1.9.46-3.75.9-5.4.42a2.79,2.79,0,0,0-1.29,0,6.25,6.25,0,0,1-4.18-.4,6,6,0,0,0-2.52-.13c-1.67.23-2.08.22-1.57-.66A26.39,26.39,0,0,1,3.9,58.72c2.74-3,5.62-5.87,8.35-8.89C14,47.89,15.38,45.92,16.9,44Zm16,6.26a13.63,13.63,0,0,0,.65-2.13c.32-2.54.73-5.08.9-7.59A16.71,16.71,0,0,0,33.66,36c-.23-1.13-1.86-1.33-3.61-.37a13.94,13.94,0,0,0-3.4,2.58c-1.53,1.65-2.77,3.34-4.1,5a9.24,9.24,0,0,0-.62,1.15,12.77,12.77,0,0,1-2.12,3.27A125.91,125.91,0,0,0,11.3,58.77c-.47.6-.18,1,.8,1,1.68.15,3.35.33,5.1.36a7.56,7.56,0,0,0,2.73-.5C24.52,57.65,30.29,55.11,32.52,50.19Z" fill="#fff"/><path d="M237.9,53.58c-2.94.21-5.62,1-9.21,0,.35-.82.69-1.61,1-2.39s1-1,2.39-.88c1,.08,2,.23,3,.24,1.6,0,3.12-.1,4.71-.1a45.89,45.89,0,0,1,6.07.16,4,4,0,0,1,2.83,2.08c1,1.34,0,1.84-2.37,1.47-.43-.07-.86-.12-1.69-.23,1.3,2.63,2.53,5.17,3.78,7.71.32.66.82,1.33,1.11,2a.5.5,0,0,1-.41.6c-1,.2-2.08.33-3.16.45-1.37.16-1.8,0-2.13-.84-.07-.18-.15-.36-.31-.73a21.86,21.86,0,0,1-2.15.93c-1.2.36-2.48.67-3.79,1a4.3,4.3,0,0,1-1.33,0c-2.54-.35-5.08-.74-7.6-1.06A8.27,8.27,0,0,1,225,62.57c-2.58-1.67-3.63-3.55-5-5.39-.69-.92-1.45-1.83-2.18-2.74-.49-.62-1-1.24-1.5-1.86a28.47,28.47,0,0,0-1.82-2.25,3.53,3.53,0,0,1-1.27-3,2.81,2.81,0,0,0-.41-2c-1.85-2.77-1.65-5.29-1.28-7.79a5.42,5.42,0,0,0,.16-1.07c-.13-2,1.74-3.08,3.91-4a4.53,4.53,0,0,1,.59-.2,29.87,29.87,0,0,1,8.48,1.06q3,1.36,6.07,2.79a23.92,23.92,0,0,1,2.12,1.16c1.49.9,1.65,1.37.72,2A9.06,9.06,0,0,0,232,40.43a10.44,10.44,0,0,0-.83,1.59.8.8,0,0,1-.6.47,2.34,2.34,0,0,1-1.21-.36,4.66,4.66,0,0,1-1.1-1.62c-.39-1.41-2.05-2.31-4-3.11a9.08,9.08,0,0,0-5.74-.65,1.45,1.45,0,0,0-.92.75c-1,1.84-1.53,3.77-.48,6a11.3,11.3,0,0,1,.59,2.05,4.51,4.51,0,0,0,2.33,3.09,2.94,2.94,0,0,1,.79.87c1.88,2.44,3.82,4.87,5.69,7.32.79,1,1.37,2.07,2.11,3.1a3,3,0,0,0,1.06,1c4.4,2.13,6.16,2.28,8.77.55a7.91,7.91,0,0,0,2-2.12c.86-1.17.6-2.47-.93-3.91A23.26,23.26,0,0,1,237.9,53.58Z" fill="#fff"/><path d="M85.37,62.14a19.74,19.74,0,0,1,1.22-2.3,21,21,0,0,0,4.11-12.1c0-1.85.08-3.72,1.4-5.57a3,3,0,0,0,.08-3.31c-1-1.87-.34-3.76.61-5.67.74-1.48,2.5-2.19,4.75-1.94.75.09,1.46.3,2.19.45.89.18,1.76.41,2.66.56a7.17,7.17,0,0,1,5.48,3.46c1.08,1.73,1.18,3.47,1.6,5.25.72,3.12-.4,5.82-3.57,8.38A11.48,11.48,0,0,1,99,51.63c-1.06,0-2.13.13-3.19.14-.9,0-1.54.27-1.67.76-.54,2.13-1.52,4.27-.28,6.35a12.56,12.56,0,0,1,.77,2.44,7.35,7.35,0,0,0,.74,1.74c.3.48.06.66-.78.74-2.35.23-4.7.51-7.06.68A2.23,2.23,0,0,1,86,64,6.66,6.66,0,0,1,85.37,62.14Zm14.76-14.41a6.15,6.15,0,0,0,1.71-.25c1.77-.85,3.21-1.83,2.86-3.33a4,4,0,0,1,0-1.73c.48-2.15-1.07-4-1.64-6-.23-.77-1.1-.86-2.85-.53-1.07.21-1.9.5-1.88,1.39a6.73,6.73,0,0,1-.44,2c-.71,2.38-1.46,4.77-2.23,7.15-.2.61.15.93,1.16,1S98.86,47.63,100.13,47.73Z" fill="#fff"/><path d="M119.61,39.81c-.24,2.22-.52,4.45-.73,6.68-.1,1,.32,1.22,1.9.94,1.29-.23,2.48-.67,3.75-.93a5.42,5.42,0,0,1,2.31-.16,1.62,1.62,0,0,1,.55,1.6c-.17.67-.78,1.27,0,2,.11.1-.47.67-.87.73a13.52,13.52,0,0,1-1.84-.15c-1.74,0-3.49.05-5.22.15a.83.83,0,0,0-.56.6c-.34,2.8-.74,5.6-.93,8.4-.08,1.19.44,1.34,2.51,1,1.86-.29,3.67-.68,5.52-1a20.74,20.74,0,0,1,3-.27c1.53,0,2.1.48,1.62,1.3-.18.31-.51.6-.65.91a6,6,0,0,0-.6,1.75c-.09.86-.37,1.1-1.92,1.06a24.93,24.93,0,0,1-2.74-.28,9.5,9.5,0,0,0-4.28.19,25.15,25.15,0,0,1-2.75.62c-3.14.59-5.85-.48-5.57-2.29s.81-3.46,1.06-5.19a6.42,6.42,0,0,0-.19-2.79,6.52,6.52,0,0,1,.49-5,4.18,4.18,0,0,0-.16-4.21,3.31,3.31,0,0,1-.27-2.66,20.31,20.31,0,0,0,.76-6.85,7.58,7.58,0,0,1,.06-1.16c.18-1.39,1.28-2,3.38-1.85,2.82.14,5.66.29,8.51.32a18.24,18.24,0,0,0,3.25-.49c.48-.08.92-.28,1.4-.32a2,2,0,0,1,1.12.22.63.63,0,0,1,.06.74,17.77,17.77,0,0,0-1.06,1.66,3.21,3.21,0,0,0-.15,1.76c.11.56-.15.9-.94.95a9.82,9.82,0,0,1-2.37-.16c-1.14-.24-2.19-.65-3.32-.89a10.32,10.32,0,0,0-2.24-.19c-1,0-1.6.35-1.69,1s-.16,1.49-.25,2.23Z" fill="#fff"/><path d="M52.74,40.39c-.94,2.07-1.91,4.13-2.83,6.2-.39.87-.12,1.09,1.34.86s2.91-.69,4.37-1c.8-.15,2.1-.35,2.35-.13s.26,1,0,1.52c-.38.69-1.23,1.29-.76,2,.29.45-1.08,1-1.92.72-1.7-.64-3.73-.08-5.6-.08a2.23,2.23,0,0,0-1.3.55c-1.41,2.88-2.84,5.76-4,8.64-.46,1.08,0,1.21,2.07.91s3.92-.69,5.88-1a25.74,25.74,0,0,1,3.48-.27c1.1,0,1.57.44,1,1.07-1,1.09-2.4,2.1-2.61,3.32,0,.18-1,.57-1.51.58a19.57,19.57,0,0,1-3.1-.24,10.28,10.28,0,0,0-4.49.19c-.9.25-1.87.42-2.82.59-3.45.63-5.72-.44-4.81-2.31.46-.94,1-1.87,1.6-2.8,1.13-1.84,2.16-3.67,2.15-5.51,0-1.59,1-3.18,2.29-4.75a5,5,0,0,0,1.29-4,7.22,7.22,0,0,1,.88-3.25c.89-2.06,1.94-4.12,2.9-6.18.24-.53.38-1.05.67-1.57.64-1.18,1.83-1.72,3.6-1.65,2.38.1,4.78.16,7.14.31a14.66,14.66,0,0,0,5.19-.51,5.68,5.68,0,0,1,1.26-.27,1.78,1.78,0,0,1,1.06.19c.16.15,0,.52-.17.75-.52.59-1.24,1.14-1.71,1.74a3.25,3.25,0,0,0-.75,1.6c0,.74-.65,1.07-1.67,1.1a7,7,0,0,1-1.92-.22c-1-.26-2-.66-3-.89a10.72,10.72,0,0,0-2.31-.18,1.92,1.92,0,0,0-1.84.94l-1.38,2.88Z" fill="#fff"/><path d="M75,40.07c-.75,2.12-1.52,4.24-2.24,6.36-.36,1.06,0,1.3,1.84,1,1.44-.26,2.82-.69,4.23-1,1.91-.46,2.58-.18,2.31,1-.08.37-.45.74-.6,1.12a4.27,4.27,0,0,0-.24,1c0,.28.14.69-.08.8a3.16,3.16,0,0,1-1.61.31c-1.71-.71-3.74-.09-5.6-.09a2.28,2.28,0,0,0-1.28.62c-.3.35-.28.77-.43,1.15-.36.93-.8,1.86-1.11,2.79-.53,1.62-1,3.24-1.48,4.86-.22.73.49.92,1.6.75,2.13-.33,4.23-.72,6.34-1A21.87,21.87,0,0,1,80,59.41c1.37,0,1.82.5,1.18,1.22-.91,1-2.14,2-2.14,3.15,0,.18-.89.56-1.39.61a7.89,7.89,0,0,1-2.29-.11,12.93,12.93,0,0,0-6.31.27,10,10,0,0,1-5.31.32c-1.62-.43-2.08-.82-1.65-1.89.73-1.82,1.65-3.62,2.32-5.44a8.32,8.32,0,0,0,.5-2.95,7.61,7.61,0,0,1,1.55-4.68c1.08-1.5,1.53-2.94,1-4.44a4.6,4.6,0,0,1,.38-2.75c.66-2,1.47-4.07,2.19-6.1.23-.66.31-1.33.58-2,.48-1.18,1.67-1.75,3.4-1.69,2.39.09,4.8.16,7.18.31a14.57,14.57,0,0,0,5.24-.52,7.17,7.17,0,0,1,1.36-.29c1-.08,1.35.33.87.92A16.56,16.56,0,0,0,87.24,35a5.41,5.41,0,0,0-.7,1.91c-.07.49-.27.88-1.06.92A9.82,9.82,0,0,1,83,37.63c-1.09-.23-2-.66-3.11-.89a11.68,11.68,0,0,0-2.47-.15,1.58,1.58,0,0,0-1.59.92c-.3.85-.61,1.7-.92,2.56Z" fill="#fff"/><path d="M172.59,54.6c-.47-1-.94-2.07-1.4-3.1a7.23,7.23,0,0,1-.72-1.73c-.4-3.63-2.5-7.11-4.44-10.63a12.73,12.73,0,0,1-1.29-4.75c-.14-1.1.63-1.44,2.3-1.45.87,0,1.78.09,2.64.06s1.4-.2,2.12-.26,1.71-.08,2.57-.12c.18.56.59,1.15.52,1.66A19.65,19.65,0,0,1,174,37.7a6,6,0,0,0,.18,3.81c.62,2,.93,3.91,1.4,5.87a3.3,3.3,0,0,0,.55,1.56c1.81,2.15,1.83,4.28,1.85,6.45a13.33,13.33,0,0,0,1.09,4c.48,1.37,1.15,2.73,1.69,4.1.3.77-.75.93-1.72.93a14.17,14.17,0,0,0-4.7.46c-1.08.37-2.8-.38-2.88-1.3a4.76,4.76,0,0,1,.42-3.12C173.1,58.6,172.78,56.63,172.59,54.6Z" fill="#fff"/><path d="M88.32,106.91c2.91,2.36,5.11,3.35,7.47,3.35,2.79,0,4.77-1.54,4.77-4s-1.26-4-6.86-3.89V95.93c5,0,7-1.2,7-4.06,0-2.25-2.09-3.89-5.32-3.89A10.82,10.82,0,0,0,89,90V82.54a23.3,23.3,0,0,1,9.61-2c7.9,0,13.45,4.12,13.45,10.59,0,3.46-1.65,6.1-4.94,8a9.12,9.12,0,0,1,5.48,8.72c0,5.27-3.84,11.09-12.62,11.09a25.64,25.64,0,0,1-11.69-3.07Z" fill="#fff"/><path d="M115.68,81h18.94c10.48,0,20.14,5.43,20.14,18.77,0,11.19-7.24,18.66-20,18.66h-19.1Zm16.69,28.54c6,0,9.27-3,9.27-9.77,0-6.15-3.35-9.88-9.27-9.88H128.8v19.65Z" fill="#fff"/></svg>