<svg xmlns="http://www.w3.org/2000/svg" width="250" height="113" viewBox="0 0 250 113"><path d="M51.29,38.75c.13,3.07.52,6.14.91,9.21-4.11.53-8.17,1-12.22,1.38.72-8.37,1.18-16.73,1.18-25.16A160.44,160.44,0,0,0,39.92,3.27c4.9-.53,9.73-1.18,14.64-1.83a22.34,22.34,0,0,1,2.94-.2c8.69,0,12.41,6.34,12.41,14.31C69.91,27.64,63.05,36.07,51.29,38.75ZM55,7.91c-2.42,0-3.14,1.3-3.53,3.46a77.68,77.68,0,0,0-.52,11.7c0,2.94.06,5.88.26,8.82C57.69,30.39,59,23.13,59,17.45,59,14.64,59.06,7.91,55,7.91Z" fill="#fff"/><path d="M87.1,48.49c-9.35,0-14.31-8-14.31-16.8,0-9.86,6.53-19.86,16.79-19.86,6.66,0,10.52,4.83,10.52,11.5a21.66,21.66,0,0,1-.2,2.94,140.22,140.22,0,0,0-17.38,1.24,33.7,33.7,0,0,0-.32,3.59c0,3.34.39,11,4.9,11,3.79,0,3.92-5,3.92-7.32a24.31,24.31,0,0,0-.46-4.25l7.84-.65a15.8,15.8,0,0,1,1.77,6.66C100.17,43,94.28,48.49,87.1,48.49Zm.91-31c-2.42,0-4,2.42-4.7,5.62a67.14,67.14,0,0,0,8.1-1.37C91,19.41,89.78,17.51,88,17.51Z" fill="#fff"/><path d="M116.37,47.38c-6.93,0-9.28-5.43-9.28-11.51,0-4.24,1.11-10.12,1.11-14.44,0-.85-4.38-.39-5-.39,0-.85.07-1.63.07-2.48a14.36,14.36,0,0,0-.33-2.88c.59,0,1.18.07,1.76.07,7.65,0,8.56-6.08,9-12.35l5.56-1.11c-.4,4.18-.59,8.36-1.25,12.54h.59a46.52,46.52,0,0,0,8.63-.91,34.33,34.33,0,0,0-.85,6.86c-3.14.07-6.28.26-9.35.59a101.38,101.38,0,0,0-1,14.05c0,1.63.13,5.42,2.48,5.42S121,38.49,121,36.79a32.61,32.61,0,0,0-1.11-7l6.93-1.31a20.4,20.4,0,0,1,2.09,8C128.92,43.78,123.1,47.38,116.37,47.38Z" fill="#fff"/><path d="M146,48.49c-9.35,0-14.31-8-14.31-16.8,0-9.86,6.53-19.86,16.79-19.86,6.66,0,10.52,4.83,10.52,11.5a21.66,21.66,0,0,1-.2,2.94,140.22,140.22,0,0,0-17.38,1.24,33.7,33.7,0,0,0-.32,3.59c0,3.34.39,11,4.9,11,3.79,0,3.92-5,3.92-7.32a24.31,24.31,0,0,0-.46-4.25l7.84-.65a15.8,15.8,0,0,1,1.77,6.66C159.11,43,153.22,48.49,146,48.49Zm.91-31c-2.42,0-4,2.42-4.7,5.62a67.14,67.14,0,0,0,8.1-1.37C149.89,19.41,148.72,17.51,147,17.51Z" fill="#fff"/><path d="M189.82,45.42c0,10.71-4.19,15.61-15.29,15.61-4,0-8.63-1.24-8.63-5.36a8.87,8.87,0,0,1,1.89-4.9l7.39-.32a10.6,10.6,0,0,0-.65,3.2c0,1.24.45,2.29,2.09,2.29,3.72,0,4.18-7.19,4.31-9.81,0,0-2,1.77-6.4,1.77-9,0-10.79-7.52-10.79-14.51,0-7.45,2-15.22,4-22.61l9.15-.06c-1.76,9-3.66,15.22-3.66,26.72,0,1.9.53,4.58,3.34,4.58,4.7,0,4.11-6.73,4.11-9.87,0-6.47-.32-13.27-.85-19.87a77.59,77.59,0,0,0,11-1.17C190,22.54,189.82,34,189.82,45.42Z" fill="#fff"/><path d="M202.49,17.58,196,16.66c3.4-5.49,5.82-10.26,6.86-16.66,3.86.26,7.06.46,10.92.59A71.89,71.89,0,0,1,202.49,17.58Z" fill="#fff"/><path d="M229.87,28h-7.06S225,24.05,225,21.24c0-1.83-.85-2.88-2.68-2.88-2.49,0-4.25,3.47-4.25,5.69,0,12.28,14.83,5.16,14.83,15.22,0,7.39-7.9,9.87-15.62,9.87-4.7,0-8.23-2.48-8.23-6.08a5.54,5.54,0,0,1,1-3.2l7.71-.85a6.71,6.71,0,0,0-.33,2,2.29,2.29,0,0,0,2.55,2.48c2.29,0,4.57-1,4.57-2.87,0-5.16-16.14-1.18-16.14-15.68,0-8.76,7.58-12.94,15.42-12.94,5.1,0,9,2.48,9,7.91C232.88,24.05,229.87,28,229.87,28Z" fill="#fff"/><path d="M22.41,69.55c-2.35-.2-4.64-.39-7-.39-.91,0-1.89.06-2.81.06A94.31,94.31,0,0,0,12,79.74c0,3.53.19,7.06.52,10.59,3.07-.07,6.08-.26,9.15-.52-.39,2.48-.65,5-.85,7.51-1.37,0-2.74-.06-4.12-.06-2.15,0-5.22.19-5.22,3.07s1.37,6.07,2.22,8.82a88.3,88.3,0,0,0-12.61.72,219.32,219.32,0,0,0,1.5-24.44c0-8-1.31-15.88-2.55-23.72a175.11,175.11,0,0,0,24.05-1.64A36.55,36.55,0,0,0,22.41,69.55Z" fill="#fff"/><path d="M50.18,110.91a12.5,12.5,0,0,1-3.33-4.44,11.73,11.73,0,0,1-8,2.74c-8.88,0-11.56-7.58-11.56-15.16,0-8,2-14.83,4.05-22.48,2.94.14,6.21.14,9.21,0-2.22,9-3.79,14.84-3.79,25.69,0,2.28.33,5.62,3.27,5.62,4.77,0,4.25-6.54,4.25-9.87,0-6.54-.33-12.09-.85-18.69a65.5,65.5,0,0,0,10.65-1c-.59,6.8-1,12.61-1,19.41,0,6.2,1,11.63,4.64,15.68C55.22,109.21,52.67,110,50.18,110.91Z" fill="#fff"/><path d="M85,111.44c-2.94-.14-5.88-.07-8.82,0,2-8.83,3.92-17.26,3.92-26.47,0-2.42-.2-5.75-3.4-5.75-4.83,0-4.57,6.47-4.57,9.8,0,6.6.32,13.14.78,19.67A77.58,77.58,0,0,0,62,109.8c.59-6.79.91-13.52.91-20.32A55.72,55.72,0,0,0,60.83,73.4a69.24,69.24,0,0,0,8.24-1.3l.26,3.59a13.4,13.4,0,0,1,8.23-2.87c9.35,0,11.89,7.64,11.89,15.22C89.45,96,87.17,103.86,85,111.44Z" fill="#fff"/><path d="M119,111.5h-8.76c2-9.41,3.6-18.23,3.6-27.9,0-2-.53-4.71-3.07-4.71-4.91,0-4.64,6.54-4.64,9.94,0,6.6.32,13.2.78,19.8a75.08,75.08,0,0,0-10.72,1.17,184.12,184.12,0,0,0,1.38-23.2,189.71,189.71,0,0,0-1.38-25A62.82,62.82,0,0,0,107,59c-.33,5-.52,11-.72,16,.85-1.3,3.07-2.55,5.88-2.55,9.15,0,11.31,7.19,11.31,15C123.5,95.62,121.15,103.66,119,111.5Z" fill="#fff"/><path d="M140.68,109.15c-9.21,0-12.41-6.86-12.41-15.29,0-9.48,5.09-21.5,15.81-21.5,9.21,0,13.13,10.58,13.13,18.69C157.21,102,151.86,109.15,140.68,109.15ZM143,79c-4.31,0-4.9,12.88-4.64,16.47.27,2.88.2,7.91,4.06,7.91,4.77,0,4.9-5.62,4.9-9.22C147.35,91.05,147.28,79,143,79Z" fill="#fff"/><path d="M185.05,110.91a12.5,12.5,0,0,1-3.33-4.44,11.73,11.73,0,0,1-8,2.74c-8.89,0-11.57-7.58-11.57-15.16,0-8,2-14.83,4-22.48,3,.14,6.21.14,9.22,0-2.22,9-3.79,14.84-3.79,25.69,0,2.28.33,5.62,3.27,5.62,4.77,0,4.24-6.54,4.24-9.87,0-6.54-.32-12.09-.85-18.69a65.52,65.52,0,0,0,10.66-1c-.59,6.8-1,12.61-1,19.41,0,6.2,1,11.63,4.64,15.68C190.08,109.21,187.53,110,185.05,110.91Z" fill="#fff"/><path d="M216.41,88.83h-7s2.22-3.92,2.22-6.73c0-1.83-.85-2.88-2.68-2.88-2.48,0-4.25,3.46-4.25,5.69,0,12.28,14.84,5.16,14.84,15.22,0,7.38-7.91,9.87-15.62,9.87-4.71,0-8.24-2.49-8.24-6.08a5.54,5.54,0,0,1,1.05-3.2l7.71-.85a6.71,6.71,0,0,0-.33,2,2.29,2.29,0,0,0,2.55,2.48c2.29,0,4.58-1,4.58-2.87,0-5.16-16.14-1.18-16.14-15.69,0-8.75,7.58-12.93,15.42-12.93,5.09,0,8.95,2.48,8.95,7.9C219.42,84.91,216.41,88.83,216.41,88.83Z" fill="#fff"/><path d="M236.93,109.34c-9.34,0-14.31-8-14.31-16.79,0-9.87,6.53-19.86,16.79-19.86,6.67,0,10.52,4.83,10.52,11.5a21.68,21.68,0,0,1-.19,2.94,140.08,140.08,0,0,0-17.38,1.24A33.49,33.49,0,0,0,232,92c0,3.34.39,11.05,4.9,11.05,3.79,0,3.92-5,3.92-7.32a23.3,23.3,0,0,0-.46-4.25l7.85-.65A15.79,15.79,0,0,1,250,97.45C250,103.86,244.12,109.34,236.93,109.34Zm.92-31c-2.42,0-4,2.42-4.71,5.62a68.81,68.81,0,0,0,8.1-1.37C240.79,80.27,239.61,78.37,237.85,78.37Z" fill="#fff"/></svg>