<svg xmlns="http://www.w3.org/2000/svg" width="200" height="88" viewBox="0 0 200 88"><g fill="#fff"><path d="M28.22 14.37a13.07 13.07 0 0 0-13-13H0v39.32h6.73V27.42h5.81l7.85 13.27h7.83l-8.37-14.14a13.08 13.08 0 0 0 8.37-12.18zM6.73 7.31h8.44a7.06 7.06 0 0 1 0 14.12H6.73zM63 40.69h6.74L51.55.16H50L31.52 40.69h6.73l3.92-8.8h16.95zm-18.56-14l6.17-13.87 6.18 13.87zM121.28 0L98.19 55.07 75.11 0H59.13l36.58 87.28h4.97L137.26 0h-15.98zM90.1 87.23h-7.48L65.85 49.12h7.48L90.1 87.23zM72.88 81.56H57.81L43.55 49.12h-7.49l16.77 38.11h22.55l-2.5-5.67zM124.11 49.12l-16.77 38.11h21.12l2.5-5.67h-13.64l4.86-11.06h11.09l2.5-5.67h-11.09l4.41-10.04h13.31l2.49-5.67h-20.78zM143.25 1.48l-16.6 39.21h21.11l2.5-5.68h-13.73l4.88-11.51h11.01l2.5-5.68h-11.11l4.52-10.67h13.22l2.49-5.67h-20.79zM194.14 1.48L183 27.77 172.01.59h-1.55l-16.98 40.1h5.86l11.04-26.08 11 27.23h1.46L200 1.48h-5.86zM146.17 76.25l11.93-27.13h-6.36l-11.93 27.13h6.36zM137.98 80.4l-3 6.83h6.36l3-6.83h-6.36z"/></g></svg>