<svg xmlns="http://www.w3.org/2000/svg" width="250" height="67" viewBox="0 0 250 67"><path d="M0 1h20.22v8.1H7.29V28h12.26v8.11H7.29v30.06H0zM31.52 1v65.17h-7.28V1zM44.49 66.17L35 1h7.87l3.2 27.65c1 8.92 2.36 19 2.85 26.13h.14c.46-6.84 1.89-16.94 2.85-25.9L55 1h7.79l-9.33 65.17zM85.31 35.64h-12v22.49h13.75l-.94 8H66V1h20v8.1H73.27v18.5h12zM105.28 9.09h-8.75V1h24.79v8.1h-8.76v57.07h-7.28zM148.12 17.74V49.2c0 12-4.21 17.89-13 17.89s-12.25-6.22-12.25-17.76V17.7c0-11.88 4.8-17.63 12.72-17.63 8.2 0 12.53 6.08 12.53 17.67zM130.34 17v33.26c0 6.22 1.88 8.92 5.16 8.92 3.51 0 5.2-2.56 5.2-9.13V17c0-5.91-1.6-9-5.22-9-3.4 0-5.14 2.86-5.14 9zM158.25 66.17L150.76 1h7.75c1.43 14.81 3.55 38.87 4 50.32h.14c1-12.4 3.91-35.55 5.56-50.32h7.21c1.71 15.09 4.56 36.66 5.48 49.92h.19c.63-12.06 2.77-34.67 4.2-49.92h7.39l-8.11 65.18H177c-1.63-14.88-4.27-35.8-5.35-48.11h-.14c-1.2 12.87-3.95 33.62-5.69 48.11zM196.57 66.17V1h8.52c2.49 10.4 9.42 43.42 10.13 47.66h.1c-.35-8.34-.4-17.51-.4-28.18V1h6.77v65.17h-8.21c-2.21-9.66-9.68-45.46-10.42-49.23H203c.39 7.87.43 17.37.43 29.11v20.12zM233.1 47.33v3.93c0 5.39 1.45 8.33 4.89 8.33s4.67-3.57 4.67-9c0-7.27-1.32-9.78-7.1-15.22s-8.88-8.94-8.88-18.57c0-8.47 2.12-16.8 11.39-16.8s11 7.71 11 15.29v3.29h-7.23v-3c0-4.91-.74-8-3.91-8s-4 3.29-4 8c0 5.21.85 7.49 5.71 11.82 7.88 7.05 10.33 11.09 10.33 22 0 9.21-2.48 17.8-12.21 17.8-9.51 0-12-7.35-12-15.94v-3.93z" fill="#fff"/></svg>