<svg xmlns="http://www.w3.org/2000/svg" width="220" height="109" viewBox="0 0 220 109"><path d="M65 24h.12L76 6.21l9.3-.66-11.59 19.06L86.59 48l-9.66.68-8.76-16.82-3.17 5v12.69l-8.58.6V7.57L65 7zM88.86 5.3l8.59-.6v42.58l-8.59.61zM120.91 10.67c-.73-1.36-2.07-2-4-1.84a4.36 4.36 0 0 0-2.66 1.05 6.37 6.37 0 0 0-1.64 2.92 25.38 25.38 0 0 0-.83 5.13c-.16 2.09-.24 4.66-.24 7.68a73.43 73.43 0 0 0 .33 7.79 16.94 16.94 0 0 0 1 4.55 3.86 3.86 0 0 0 1.72 2.05 4.84 4.84 0 0 0 2.42.4 5.77 5.77 0 0 0 2.11-.54 3.91 3.91 0 0 0 1.7-1.66 10.74 10.74 0 0 0 1.18-3.33 30.25 30.25 0 0 0 .42-5.61l8.58-.6a39.92 39.92 0 0 1-.53 6.6 15.93 15.93 0 0 1-2 5.56 11.06 11.06 0 0 1-4.12 3.93 16.15 16.15 0 0 1-6.88 1.79 15.61 15.61 0 0 1-7.7-1 9.44 9.44 0 0 1-4.38-4.16 18.6 18.6 0 0 1-2-6.85 80.55 80.55 0 0 1-.45-8.91 82.76 82.76 0 0 1 .45-8.95 20.76 20.76 0 0 1 2-7.14 12.17 12.17 0 0 1 4.38-4.87 16.26 16.26 0 0 1 7.7-2.18 14.35 14.35 0 0 1 7.24 1 9.19 9.19 0 0 1 4 3.51 12.42 12.42 0 0 1 1.64 4.83 40.06 40.06 0 0 1 .33 5l-8.59.6q-.09-4.71-1.18-6.75zM144.44 18.47h.12L155.41.65l9.31-.65-11.57 19.06L166 42.49l-9.66.67-8.74-16.86-3.16 5.06V44l-8.59.6V2l8.59-.6zM15 64.19a12.08 12.08 0 0 1 5.52.72 9 9 0 0 1 3.6 2.64 10.42 10.42 0 0 1 2 4 18 18 0 0 1 .6 4.64 15.68 15.68 0 0 1-1 5.79A11.31 11.31 0 0 1 23 86.12a12.39 12.39 0 0 1-4.26 2.62 19.12 19.12 0 0 1-5.55 1.17l-4.59.32v17l-8.59.6V65.25zm-2.6 19.45a6.07 6.07 0 0 0 4.15-1.84 6.93 6.93 0 0 0 1.58-4.94 7.18 7.18 0 0 0-1.37-4.8q-1.38-1.56-4.59-1.34L8.59 71v12.91zM39 92.22a19 19 0 0 0 .21 2.94 6.27 6.27 0 0 0 .79 2.27 3.65 3.65 0 0 0 1.55 1.44 4.71 4.71 0 0 0 2.47.39 5.14 5.14 0 0 0 2.51-.74A4.67 4.67 0 0 0 48 96.86a7 7 0 0 0 .77-2.38 19.35 19.35 0 0 0 .21-3V61.82l8.59-.6v29.7a17.86 17.86 0 0 1-1.13 6.78 11.8 11.8 0 0 1-3 4.42 11.17 11.17 0 0 1-4.36 2.39 23.6 23.6 0 0 1-5.07.89 25.07 25.07 0 0 1-5.07-.12 9.57 9.57 0 0 1-4.35-1.63 9 9 0 0 1-3-3.93 17.47 17.47 0 0 1-1.14-6.9v-29.7l8.59-.6zM83.31 88.58h.12V59.41l7.87-.55v42.58l-9.78.69L71 73h-.12v29.82l-7.87.55V60.84l9.9-.69zM114.35 64.85q-1.09-2-4-1.83a4.25 4.25 0 0 0-2.66 1A6.32 6.32 0 0 0 106 67a25.27 25.27 0 0 0-.83 5.12q-.24 3.15-.24 7.68a73.3 73.3 0 0 0 .33 7.79 16.85 16.85 0 0 0 1 4.55 3.85 3.85 0 0 0 1.74 2.08 4.84 4.84 0 0 0 2.42.4 6 6 0 0 0 2.11-.54 3.88 3.88 0 0 0 1.7-1.67 10.74 10.74 0 0 0 1.14-3.36 30.33 30.33 0 0 0 .41-5.6l8.59-.6a39.89 39.89 0 0 1-.53 6.59 16 16 0 0 1-2 5.57 11.06 11.06 0 0 1-4.12 3.93 16.45 16.45 0 0 1-6.89 1.79 15.59 15.59 0 0 1-7.69-1 9.41 9.41 0 0 1-4.38-4.17 18.6 18.6 0 0 1-2-6.84 80.55 80.55 0 0 1-.45-8.91 82.62 82.62 0 0 1 .45-9 20.7 20.7 0 0 1 2-7.14 12.1 12.1 0 0 1 4.38-4.87 16.14 16.14 0 0 1 7.69-2.18 14.27 14.27 0 0 1 7.25 1 9.19 9.19 0 0 1 4 3.51 12.42 12.42 0 0 1 1.64 4.87 41.7 41.7 0 0 1 .32 5l-8.58.6q0-4.71-1.11-6.75zM137.88 55.6v16.28l10-.7V54.9l8.59-.6v42.58l-8.59.6v-18.9l-10 .7v18.91l-8.59.6V56.2zM186.25 59.26L171 60.32v10l14.31-1v7l-14.31 1v11.51l15.8-1.11v7l-24.39 1.71V53.89l23.8-1.67zM207 50.77q5.37-.37 8.35 2.13t3 8.05a13.52 13.52 0 0 1-1.73 7.13 8.74 8.74 0 0 1-5.37 3.86v.12a7.25 7.25 0 0 1 4.71 1.76c1 1 1.61 2.69 1.85 5.06q.12 1.19.18 2.58t.12 3.12c.08 2.27.2 4 .36 5.17a3 3 0 0 0 1.53 2.33v.36l-9.3.65a4.24 4.24 0 0 1-.84-2 22.22 22.22 0 0 1-.24-2.39l-.24-8.16a6.31 6.31 0 0 0-1.25-3.85c-.75-.9-2-1.29-3.81-1.16l-4.6.32v18l-8.58.6V51.88zm-3.7 18.87a7.51 7.51 0 0 0 4.77-1.8c1.12-1 1.67-2.73 1.67-5q0-5.89-6-5.48l-4.06.28v12.25z" fill="#fff"/></svg>