<svg xmlns="http://www.w3.org/2000/svg" viewBox="0 0 200 158"><path d="M102.66 148.96c3.42 0 7.18.44 9.81 2.8l1.31 1.05c-.96.61-2.1.7-3.15.7-.96 0-1.84-.09-2.8-.09-2.8 0-5.61.35-8.41.88-2.98.53-5.78 1.49-8.67 2.45-.26.09-.61.18-.88.18-.53 0-.96-.09-1.49-.18l-.26-.44-.88.26v-.53h-.61l.09-.61-.53.18-.88-.79.26-.7-.61.26c-.18-.35-.7-.96-.7-1.4s.53-.88.79-1.14c2.28-2.19 4.55-4.38 6.66-6.74 4.82-5.26 17.87-19.71 17.87-26.63 0-.44-.09-.79-.18-1.23-.35-.09-.79-.18-1.14-.18-.7 0-1.4.18-2.1.35-3.59.88-8.5 2.89-10.69 6.04-.44.61-.7 1.4-1.05 2.1-1.66-.61-3.68-1.66-3.68-3.68 0-4.91 8.67-8.58 12.79-9.11.79-.09 1.66-.18 2.45-.18 2.19 0 3.77.88 5.34 2.36 1.66 1.66 3.68 3.77 3.68 6.31 0 5.87-4.82 12.96-8.5 17.34-2.98 3.59-5.96 7.18-9.2 10.6 1.75 0 3.59-.26 5.34-.26zm-9.11-3.15l.44-.88c-.18.18-.53.44-.53.7l.09.18zm.61-27.33l-.35.35.44-.35h-.09zm-.09 31.18c2.19-1.49 10.6-11.82 12.79-14.54 1.49-1.93 2.8-3.94 3.68-6.22-4.55 7.62-10.86 13.93-16.47 20.76zm.09-26.89c.79-1.14 1.93-2.1 2.89-3.15-1.05.53-2.89 1.84-2.89 3.15zm.09-2.36c.17-.09.26-.26.35-.44l-.35.44zm.96-1.06h-.09l-.18.18.26-.18zM105.46 131c-3.24 4.38-6.74 8.5-10.16 12.7 1.31-1.31 10.16-11.56 10.16-12.61V131zm-6.83 11.39c.35-.35.79-.53.79-1.14l-.79 1.14zm2.8.7l-.09.09q.09 0 .17-.09h-.09zm2.8-7.62l-2.45 3.07c.88-.88 4.29-4.99 4.64-5.96-.79.88-1.4 1.93-2.19 2.89zm2.19-5.6h-.09q0 .09-.09.18l.17-.18zM91.03 36.56c-.32-1.27-.02-2.67-.35-3.53-.04-.11-.39.09-.41.2-.11.8-.29 2.45-.31 3.24-.4 3.9-.17 10.57-.52 14.47.05.93-.1 2.66-1.43 1.94-.57 0-1.06-.11-1.47-.47-2.43-.17-5.5-1.29-7.89-1.81l-.99.09c-.67-.86-.85-1.82-.95-2.87-.36-2.64-.93-6.44-1.3-9.08-.19-1.35-1.08-7.43-1.19-8.66-.33-1.76-1.06-6.03-1.04-7.79-.05-2.73-1.57-6.48-1.61-9.21 1.78-1.22 4.49-2.89 6.45-3.84.15 4.52 1.54 9.16 2.23 13.64.44 2.33.99 5.54 1.57 7.84.15.65.03 1.23.61 1.79.9-.92.96-2.56 1.13-3.72l.65-2.81c1.15-3.66 2.13-8.58 3.15-12.2.38-.42 1.29-.93 1.41-1.5 0-.87-.15-3.14-.2-4.02l.2-.79c3.78-.52 2.48-1.17 2.69 3.69.12 1.2 1.86.09 2.44-.03l1.21-.36c.34 2.9.39 6.47.65 9.42.31 2.52.57 5.59.81 8.12.1.91.37 3.32.44 4.22l.27 2.68c.02.2.3.45.53.48.78-2.08 1.07-4.47 1.45-6.64.88-5.14 1.79-10.31 1.73-15.54 1.18.09 2.17.77 3.34.93 1.28.26 3.66.72 3.53 1.76-.08 1.1-.52 3.34-.81 4.42-.47 2.39-1.16 6.23-1.35 8.66-.51 2.31-.67 5.23-.81 7.62-.76.36-2.51 6.18-2.92 6.94-.79 2.53-2.29 5.65-2.36 8.35-.05 1.15-1.16.9-1.98 1-1.01.02-3.56.09-4.53-.17.13-1.96-.2-3.99-.5-5.91-.36-3.42-.89-7.17-1.57-10.53zM120.05 53.99c-.83.39-1.77 1.26-2.74 1.26-.48-3.08-1.04-7.18-1.58-10.23-.28-1.8-.56-4.17-.92-5.96-.93-4.19-2.52-9.03-3.27-13.27-.56-2.7-.81-6.06-1.09-8.79-.1-.93-.67-4.13-.84-5.09-.35-1.39-1.05-2.7-1.14-4.16.46-.62 3.08-1.29 3.76-1.59.61-.36 2.03-.86 2.72-1.06.32.22.51.78.66 1.15.04.1.4.14.51.12 2.16-.41 4.36-.99 6.58-1.11 1.32-.08.31-2.36 1.51-4.14.9.55 1.84.07 2.75-.06.17.81-.41 2.9-.56 3.71.3.44.78.54 1.21.79l1.7 1c1.17.69 3.56 2.51 2.88 3.43-.36.49-.44.92-.22 1.49.64 1.41.35 3.44.28 4.95-.24 1.92-1.15 3.77-2.01 5.47l-1.74 1.84c-.55.51-2.21 1.42-1.78 2.37.94.29 3 1.13 3.93 1.5 2.1.91 4.34 1.47 6.18 2.92 1.1 1.51 1.39 3.39 1.81 5.15.4 1.53.96 3.87 1.27 5.41.25 1.17.42 2.35.05 3.51l-1.28 1.31c-2.72 1.99-6.42 4.76-9.31 6.51-.99.64-1.9 1.22-2.67 2.09-.35.39-.99.18-1.36-.04l-1.83-1.13c-.73-.78-1.52-.53-2.18.15l-1.26.5zm-1.24-34.52c.25-.21.73-.07.96-.14l1.95-.54c1.05-.34 2.69-.54 3.66-1.04 1.53-.75 2.23-2.44 1.68-4.07-.32-.64-1.77-1.05-2.33-1.45l-.12-1.31c-1.43.05-1.94 1.42-2.32.62-1.2-.65-3.73.65-5 .84-1.54.42-.61 2.11-.35 3.35.19.91.67 3.2.88 4.08.38 2.79.68 1.18.99-.35zm8.94 26.8c.88-.03.73-1.24 1.11-1.15.37.11 1.48.29 1.87.35.38-.78-.25-1.24.76-1.6l1.37-.49c-.32-1.49-1.74-6.12-2.18-7.66l-1.07-4.3c-.17-1.39-.95-1.49-2.09-.91l-4.46 1.94c-.79.5-2.75.97-2.36 2.3.67 2.86 1.44 7.13 2.27 9.92.25.93.27 1.78 1.33 1.74l3.45-.13zM183.75 41.34c.49 3.7.51 8.07.69 11.81-.02.25.34 1.77.07 1.93-.58.03-1.15.11-1.67-.22l-3.32.08c-.65-.04-2.24.42-2.49-.47.02-1.77-.52-6.77-.72-8.59-.02-.21-.19-.57-.32-.69-.95.02-2.93.11-3.86.21-.76-.38-.47-2.06-.54-2.72.22-.19.6-.09.88-.01 1.11.21 2.5-.22 3.64-.2.51-.65.07-3.1.11-3.88-.09-1.4-.28-4.18-.39-5.57-.29-4.29-.65-9.54-.76-13.81-.48-2.2-.22-6.41-.29-8.69-.05-1.3 4.46-.92 5.34-.7.68-.21 1.36-.18 2.02.1l2.58-.63 2.48-.26c2.09-.11 5.06-1.15 7.15-1 .61.46 1.77 2.22 2.2 2.86 1.03 1.5 1.11 2.93 1.56 3.58.4.57.63 1.08.63 1.8.12 2.64-.2 6.13-.61 8.72-.32 1.86-.9 4.63-1.06 6.52-1.26.91-4.29 2.74-5.66 3.56-1.85.61 2.3 5.29 2.87 6.32.59.89 1.52 1.64 2.22 2.44 1.16 1.35 2.28 3.04 2.88 4.73.86.97.9 1.73-.48 2.19l-2.62.85c-.97.43-2.86 1.79-3.95 1.81l-.15-.67c-.77-1.12-.88-2.51-1.7-3.62-1.88-3.1-3.46-6.58-4.81-9.96-.51-1.1-.91-.69-1.73-1.06-.16-.08-.43.31-.42.55l.2 2.67zm7.37-14.36c1.13-.22 1.39-2.05 1.05-3.08-.55-1.45.18-3.13-.84-4.44-1.1-.78-.77-3.06-1.99-3.83-2.34.15-4.58 1.28-6.15 3.01.21 1.09-.29 4.82.78 5.56l.89 1.62c.3.54.9 2.28 1.45 2.61 1.68.27 3.65-.14 4.79-1.45zM98.97 100.19c.06 1 .19 1.87.07 2.86-2.72-.15-4.63-.38-7.31.75-.37-2.23-.69-5.03-.71-7.3-.59-9.6-1.31-21.08-2.93-30.5l.55-.48c.85-.08 2.9-.42 3.7-.6.85-.17 1.76.14 2.57-.11 1.24-.68 1.71-.68 2.27.78.8 1.37 2.44 4.1 3.28 5.45 1 1.63 2.99 5.1 3.93 6.79.72 1.65 2.5 5.61 3.34 7.16.04.09.3.27.34.2.57-1.93.2-4.06.2-6.1.14-1.95-.19-4.04-.6-5.94h-1.51c-.37-2.51-.24-6.55-.2-9.1.81-.38 1.74-.46 2.65-.28.55-.21 1.05-.12 1.39.36l-.11 1.34c.72 0 2.36-.15 3.09-.22.76-.07 1.56-.38 2.31-.24.9 1.61.14 3.87-.02 5.6-.15.75-.42 3.45-.49 4.26-.29 2.16-.74 8.99-1.06 11.18.03 2.65-.19 6.6-.41 9.23-.05.63 1.07 1.34 1.58 2.58.31 1.06 2.36 4.09 0 4.09-2.41.16-5.45.66-7.72 1.47-.3.1-.33-.02-.45-.27-.32-1-8.01-17.83-8.21-15.28-.05 3.78.2 8.55.44 12.31zM71.83 106.56l-7.75.12c-.84.04-.76-1.72-.99-2.24-.42-1.92-.73-4.02-.81-6-1.26-.29-2.73.34-4 .23-.78-1.16-1.49-2.27.5-2.43l2.5-.57c.19-.04.42-.38.4-.59-.2-1.92-.78-5.82-1.25-7.68.06-2.01-.2-4.45-.56-6.41.27-3.62.98-8.44 1.69-12.02.71-.6 1.66-.67 2.55-.88.63-.15 2.14-.5 2.79-.64.39-.09 8.31-1.74 8.42-1.89 2.31-.09 4.49-.5 6.75-1.09l.66.68c.2 1.18.55 3.74.47 4.92.02 1.19.42 4.03.61 5.23.19.95.22 2.04.4 3.01.02 1.28.19 1.88 1.5 2.19l.72 1.17c.37 2.68-.32 5.56-.52 8.23-.18.89-.59 2.91-.79 3.78-.03.6-.7 2.72-.35 3.27.2.26.71.32 1.03.32.29.02.12 2.7.17 2.89h-2.05c-.69 1.18-.41 4.81-2.01 4.96l-2.18.33c-2.45 1-5.31.84-7.91 1.1zm3.69-7.82c1.02-2.39 1.42-4.98 1.94-7.53l.28-1.42c.12-2.04 1.21-5.4-.21-7.18-.54-1.16-1.97-4.15-2.53-5.34-.72-1.23-1.41-4.29-3.22-4.24-.43.06-.5.36-.72.73-.88 1.54-1.66 3.06-2.22 4.75l-.46.57c-.21 7.37-1.46 10.76 4.15 16.63 1.13 1.19 2 2.46 2.61 4.03.35-.25.41-.54.38-.99zM152.45 36.13l-.48.21c-.12.2-.22 3.33-.29 3.66-.42 3.03-.19 8.15-.59 11.18l-.36.68c-2.44.23-4.93.62-7.29-.32h-.6c.08-1.64-.08-4.63.29-6.23.29-.95-.05-1.99.57-2.86.03-1.05.13-3.58.25-4.6-1.27-.31-1.09-2.96-1.4-3.9.08-.81-.98-2.25.13-2.55.91-.06 1.5.28 1.94-.1.28-2.26.21-5.64.46-7.92.23-2.37.81-5.8 1.13-8.19.55-3.13.04-2.22-1.9-.83-.55.34-1.02.73-1.65.22l-.93-2.01c-.21-.44-.03-.77.44-.95 1.39-.74 2.65-1.61 3.88-2.6 1.36-1.06 3.02-1.76 4.49-2.67l.93.23c1.72 2.49 1.35 1.26.06 2.9.45.19.74.1 1.17.06 1.46-.08 3.08-.34 4.51-.56 1.07-.03 2.06-.74 2.16.9.9 6.66 3.24 13.18 4 19.87.7 4.11 1.53 8.6 2.41 12.68.56 3.39 2.51 6.71 2.07 10.27-2.68.85-5.91 2.27-8.5 3.12-.66-1.84-1.02-5.15-1.55-7.04-.57-3.17-1.57-7.05-1.92-10.23-.06-1.08-.02-2.05-.38-3.14-.89-.23-2.29.46-3.1.74zm2.59-6.69c.05-2.63-.58-5.11-.81-7.66l-.04-3.54c-.11-.92-.4-1.97-.39-2.92l.15-1.22c.01-.11-.4-.18-.48-.1-.33.16-.39 2.51-.46 2.82l-.53 4.89c-.01 2.54-.93 5.86-.25 8.36 1.01-.09 1.85-.25 2.8-.63zM32.82 40.69l-3.06-5.06c-1.64-3.29-1.51-.2-1.25 2.24.08 1.39.25 4.24.33 5.61.28 2.03.73 5.94.91 8.03l.13 3c-.04.43-.22.4-.58.35-1.45-.1-2.63.55-4.72.49-.82-.02-1.46.49-1.44-.13.05-3.05.2-6.2.07-9.24-.13-4.05-.07-10.27-.17-14.39-.11-1.15-2.5-.63-3.22-.81l-.97-.13c-.13-4.92-.19-2.58 3.84-3.36.43-2.11-.2-4.2-.19-6.3 0-3.34-.53-6.74-.43-10.08.7 0 1.49.2 1.97-.49.33-.32.8-.12 1.19.06.45.16 1.15-.08 1.62-.15.35-.07-.3-2.69-.16-4.02l2.37-.26c.59-.06.43.75.39 1.07-.12.97-.11 2.86.1 3.03 1.51.42 6.77-.57 8.97-.16 1.65 1.38 3.66 3.2 5.46 4.36.26 1.7.33 4.12.23 5.83-.14 1.81-.62 4.38-1.12 6.14-.07.29-.32.57-.58.72-1.9 1.15-5.02 3.05-7.18 3.58-.36.62.65 2.01.85 2.59l1.64 3.4c.75 1.73 1.84 4.12 2.7 5.8l1.31 3.03c.57 1.59 3.55 4.49 2.89 6.11-.47-.09-1.06-.02-1.3.5-.91.02-1.72.55-2.51.9l-3.3.92c-.39-3.19-1.31-6.66-2.67-9.51-.47-.83-1.61-2.84-2.09-3.65zm-3.31-16.05l2.32.07c.71.02 1.53.31 2.14-.23.71-.74 2.16-1.54 2.24-2.66.21-2.3.89-4.93-.74-6.9-1.36-.65-2.65-1.35-4.24-1.01.11.78.64 1.21.68 1.74-1.04-.26-2.07.03-2.81.87-.19.46.73 1.12.27 1.92-1.31 2.46-.07 1.74 1.18 2.18.42.33-.02.84-.25 1.08-1.14 1.2-1.92 2.9-.79 2.93zM57.6 56.17c-.83 1.11.09 3.89-1.22 3.87l-2.76.05c-.4 0-.7-.16-.63-.61l.12-1.13c.06-1.67 2.22-2.71.55-4.31-1.06-1.21-3.7-4.05-4.59-5.32-.5-.79-.96-.88-.68-1.85 0-6.73-.44-13.6-.87-20.33l-.04-6.87c.13-2.47 1.11-4.8 2.02-7.09.79-.91 1.62-3.47 3.22-3.2 2.18-.34 4.69-.28 6.87-.47l2.44-.2c.4-.2.88-.29 1.31-.15.4.13.8.12 1.25.07.2.37.34 1.07.62 1.36 1.16.99 3.02.53 3.87 1.89-.32 4.95-.24 11.56-.26 16.57.13.85.35 2.68.44 3.55.04.93-.28 1.78-.11 2.75.03 5.57-1.05 11.97-1.31 17.53-1.89.38-3.91 1.28-5.81 1.59-.71.14-2.63.52-3.25.87-.6.17-.87.98-1.18 1.44zM54.67 45.2c1.18.45 2.84 1.2 4.12 1.19l3.65.41c.31.03.43-.58.45-.81.2-7.12.14-18.27.15-25.51-.02-1.23-.19-3.77-.37-4.99-.56-.35-1.92.04-2.55.04-1.43.3-4.86.92-6.2 1.36-.14.04-.53.15-.55.31l-.18 1.76c-.39 6.76.02 14.47.21 21.26.24 1.09.21 4.43 1.26 4.99zM43.14 104.75c-2.41.43-8.1.42-10.58.35-.34 0-.77-.2-1.02-.41.05-3.36.06-7.56-.26-10.91.63 0 1.16.15 1.72.35l3.52.37c.59.09 2.15.45 2.75.35 1.15-2.62.29-6.57.53-9.32.22-2.54.26-7.14.26-9.72-.63-.46-1.28-.65-2.03-.7-1.9-.16-5.5-.33-7.35-.64 1.79-1.79.74-5.15 1.04-7.34.9-.08 2.77-.19 3.68-.23.08-1.25-.23-2.44-.59-3.66l2.67-.7c.3.11.46.53.39.82-.18.91-.19 3.39.96 3.56 1.87.12 4.43.29 6.27.43 2.43.35 4.93-.1 7.38.26 1.31.09 3.97.27 5.29.37.23.02.39.22.38.46l-.08 2.64c-.2 2.41.45 4.72.16 7.13-1.1.39-2.14.03-3.04-.6-.54-.36-1.22-.31-1.83-.44-.87-.15-2.69-.64-3.56-.51-.03 2.96-.66 6.4-.51 9.33.28 3.18.43 10.49.45 13.74 0 .76.43 3.84.08 4.55-2.25.3-4.41.02-6.69.48zM134.34 106.65c-2.67 0-5.1-1.48-5.17-.56l-.14 1.71c-.76.02-3 .11-3.8.14-1.5-.14-3.64-.49-5.13-.75-.22-.72.68-1.66 1-2.22-.04-.38.02-3 .06-3.47.07-.6.33-2.23.43-2.84l.06-3.1c.28-2.02.44-5.03.4-7.07-.86-.09-1.17-.56-1.16-1.32l-.07-2.34-.18-1.94c1.12-.2.49-1.34.97-2.64l1.37-.66.14-3.84c.03-.9.41-1.8.28-2.73 0-2.1.17-4.66.3-6.77 2.72-.19 5.94.41 8.51-.57 1.15-.09 1.84.23 3.03.25 1.16-.2 3.61-.61 4.76-.82l.78.47c.76 2.44-.08 5.49-.29 7.99-2.26-.75-4.82-.17-7.09.23-.52.09-.89.19-.92.83-.06 1.38-.2 4.28-.25 5.64 1.2.21 5.68.2 6.97.21.76-.1 1.95-.38 2.67.11-.3 2.24-.85 6.07-1.35 8.25-1.8.04-6.65.05-8.38-.04-.22 0-.79.06-.82.28l-.3 2.67-.56 4.23c-.02.56-.27 1.61.54 1.75l2.76.59 1.36.22 2.5.96c.38.26 2.45.61 2.12 1.33-.87 1.98-2.34 3.7-3.06 5.81h-2.34zM12.83 37.6c.82-.09 1.35-.59 2.04-.92.28-.13 4.12-1.98 4.24-2.06.26 1.27-.18 2.39-.25 3.64-.05.91-.22 4.54-.34 5.37-.26 1.75-.86 4.18-1.04 5.91-.01 1.06-.14 2.16-.45 3.17l-1.39.73c-.12.06-.12.45-.06.57l.84 1.6c.52.89 1.98 2.47 2.02 3.53-1.09.37-1.38 1.43-2.48 1.43-.85-.55-2.19-3.62-2.75-4.47-.55-1.01-1.56.52-2.72.99-1.93.6-3.81.57-5.81.48C3 53.5 2.57 48.94 2.4 44.55c0-.19-.49-.14-.61-.04-.35-.31-.67-.6-1.12-.82-.13-1.13-.41-2.65-.6-3.76C-.1 34.5.05 27.9.47 22.5c.19-2.07.73-4.91.63-7.01.51-.92 2.62-2.61 1.62-3.77-.4-1.14-2.67-2.4-1.84-3.54l.34-.96.58-.85c.29-.42 1.35-.57 1.63-.07.49 1.74.25 1.61 1.5 3.16 1.54-.77 3.43-.88 5-1.33.31-.1.99-.13 1.3-.07.62.57 1.38.37 1.58 1.02.13.41.31.67.58.98 2.96 3.2 3.43 6.89 3.55 11.16-1.3-.3-2.56.31-3.85.43-1.04 0-2.08.47-3.04.49-.14-1.4.19-5.34-.2-6.71-.68.11-.91.14-1.5-.21-1.22 4.35-.27 9.23-.83 13.65l-.98.05c-.22 2.25.63 4.39.83 6.64.23 1.55.63 4.87.7 6.41-1 .05-.93 1.09-.76 1.82.25 2.05.56 4.14 1.47 6.01.7-.28 1.32-.74 1.83-1.34 1.03-.69 1.12-1.14 1.27-2.28.4-2.83.48-5.74.92-8.56zM146.23 108.14c-.36 0-.89.37-1.16-.02-.18-.63-.28-2.27-.3-2.94-.03-2.03-.35-5.36-.3-7.35 1.09-.83 3.73-.4 5.01-.53 2.25-.38 4.96-.03 7.15-.72.08-1.09-.85-2.25-1.25-3.2-.67-1.31-1.24-2.62-1.62-4.03-.19-.71-.61-1.04-1.37-1.06l-1.3-.56-.5-.65-3.64-.97c-1.97-3.12-2.99-6.78-4.9-9.95.2-.68.6-2.82.85-3.44.68-1.8 1.55-3.72 2.84-5.12 1.81-1.59 5.98-1.62 8.23-2.15 3.08-.41 4.89-.57 7.37 1.57.27.47.74.44 1.18.32.06-.01.07.26.03.33-.53 1.22-1.6 2.65-1.6 4.04-1.78.1-2.98-1.37-4.65-1.57-2.24 1.15-4.08 3.42-5.58 5.39-.28.42-.18.88.27 1.15l2.03 1.42c1.13.69 2.97 1.68 4.18 2.2 2.29 1.14 2.25 1.41 1.15 3.57l.82.57c.61 1.37 2.85 4.66 3.61 6.05 1.04 2.22 4.02 5.46 3.16 7.96-1.82 1.81-4.72 7.94-5.55 8.46-2.46.31-5.17 1.11-7.63 1.2l-6.54.04z" fill="#fff"/></svg>