<svg xmlns="http://www.w3.org/2000/svg" width="180" height="108" viewBox="0 0 180 108"><path d="M22.12 1.85v28S17.91 6.43 9.67 6.8 18 40.63 21.59 50.58c4.21 11.54 5.49 35-14.11 26L2 80.05V52.4s5.84 25.09 13.16 20.69S10.22 47.64 6.37 39-10.47-8.77 17.54 4.23zM28.53 29.32V1.62h30.95v27.7l-7.69-22.7h-4.21v80A30.81 30.81 0 0 1 39 107.7V6.8h-4zM90.66 79.08l-5.31-5.31-9.51-72.15h-5.41l-9.25 72.52-4.4 4.94h13.55l-4-4.94 1.83-12.82h9l1.28 12.82-4 4.94zM69.42 55.82l3.19-24.72L76 55.82zM122.81 52.71c0-12.63-7.88-14.28-7.88-14.28s7.88-4.21 7.88-17.95-9.34-18.86-16.49-18.86h-14.1l4.58 4.94.47 66.66-6 5.86h17.94c15.91 0 13.6-12.63 13.6-26.37zm-9.16 11.72c0 11.72-8.24 9-8.24 9V43.46s8.24-2.65 8.24 7.24zm0-34.61c0 6.41-8.24 7.24-8.24 7.24V7.3s8.24-2.2 8.24 6.22zM155.069 15.081l.034-.569.429.026-.034.569zM145.667 3.164l.034-.57.26.016-.035.57zM176.46 4.21l.04-.56-.24-.36h-.17l-.28.32.39.59.26.01zM158.736 14.514l.034-.57.26.016-.035.57zM142.119 37.921l.02-.34.43.027-.021.339zM171.18 2.99l.03-.57h-.17l-.47.54-.02.33.16.24.47-.54zM161.6 11.38l.27-.21-.4-.59-.25-.01-.19.21.4.6h.17zM164.053 9.256l.034-.569.17.01-.034.57zM171.07 1.848l.034-.57.429.026-.034.57zM147.326 80.682l.033-.568.17.01-.034.569zM160.4 35.72l.034-.569.17.01-.034.57zM178.888 65.104l.035-.569.598.036-.034.57zM179.53.54l.44.02L180 0l-.47.54z" fill="#fff"/><path d="M179.12 60.79l-.32-.35.45-1.68.09-1.47-.53-1.4c-.35-5.58-.88-8.34-1.66-8.38v-.23l.28-.32v-.23h-.86v-.34l.19-.21-.8-1.19a15.14 15.14 0 0 0-4.07-5.58c-.77-.16-1.18-.52-1.16-.86-.69 0-1-.4-1-1.19l-1.12-.07c-1.18-.41-1.76-.9-1.73-1.35l-1.05.27v-.11l-.24-.24-.62.19h-.26l-.16-.23a12 12 0 0 0-5 1l-.15-.35c-1.49.25-2.3.77-2.34 1.56A8.32 8.32 0 0 0 152.3 41l.12-1.9.66-.87a8 8 0 0 1 2.24-5.65l-.19-1.15 1.24-2.08.08-1.36.89-.29v-.22l-.24-.36v-.56c.77 0 1.61-.93 2.42-3a5.58 5.58 0 0 0 1.74-3.07q3.31-3.37 3.35-3.89l.28-.32a2.72 2.72 0 0 1 .7-1.66l1-1.65c1.51-.81 2.34-1.56 2.38-2.24h.43l.24.35.22-.89v-.23l-.16-.35a1.83 1.83 0 0 0 1.41-1.84h.17l.25.24.46-.54v-.23A3.11 3.11 0 0 0 170.88 5c-1.38 0-2.1.44-2.13 1l-.84-.39-.47.54v.34h.43v.11h-.61c0 .34-.85 1.32-2.58 2.69a4.58 4.58 0 0 0-2.39 2.47 17 17 0 0 0-4.28 5h-.25l-.16-.35h-.26l.38.93v.23q-4.94 4.47-5 5.83l-.07 1.24c-.43 0-1.18 1-2.09 3.06v.22l.15.35h-.17l-2.9 3.69.16.23c-.09 1.47-.82 3.59-2.3 6.56v.23h.43c-.15 1-.43 1.45-.78 1.43-.05.79-.24 1.23-.5 1.21l-.06.91h.69v.57L144 44.39v.56l.24.36h-.26l-.1.22.29.93v.34l-.38.54v.91l-.62 1.67v.22h.52l-.17 1.46v1.23l-.11.33v1.14l-.39.77v.34h.34c.09 2.85.26 4.33.61 4.35l-.2.33c-.1 1.7.47 3.77 1.78 6.46q-.18 2.9 5.63 9.88l.71-.3a7 7 0 0 0 2.21 2.06 13.87 13.87 0 0 1 5 2.23h.43l3.42-.93.38.94c1.67-.47 2.49-1.1 2.53-1.9l.4.59 1.79-1c.95 0 1.48-.14 1.51-.59l1.84-1.94h.17l.24.36h.17l.06-.91h.26l.15.35.46-.54.09-1.47h.43l.24.36.1-.34v-.22l-.07-.35c.26 0 .72-.41 1.2-1.17l1.44-2.41-.11-1.15v-.34l.59.38h.25c.43-1.34.82-2 1.16-2l-.13-.69zM146 44.28h-.43v-.34h.43zm3.79 27.58h-.86v-.34l.87.06zm20.42-3.2v-.57l.39.6zm1.06-6.66l.15.35h-.17l.33 1.72-2 4.53v.34l.16.24-2.87 3.12-.24-.35-3.29 3-.58-.38L160 75l-.81-.84H159l-.27.21v.34l.25.24-1.52-.66-.88.29v-.57l-.18.22h-.43v-.22h.43v-.34L156 73h-.34l-.19.33-1.6-2.14-.71.3c-.8-1.07-1.37-1.67-1.72-1.69l.42-1.11-.59-.26-1.16-2.34v-.34l.27-.21.06-.91c0-.34-.23-.47-.67-.49l.48-.77.07-1.13-.4-.59h-.17l.23-.9c.05-.79-.11-1.14-.54-1.16l.59-2.58h-.26l.31-.88v-.23l-.24-.36h.26l-.1-1.71.31-.78-.2-1 .74-.87-.35-1.38c0-.56.23-.89.49-.88l-.21-.81s1.53-3.73 2.42-3.24 4.18-3.06 4.18-3.06h.17l.07.35h.86l.72-.53 2.58.16.57-.76 1.26.64h.25l.19-.22.83.5h.26l.19-.22V42c1 .06 1.93.91 2.79 2.44v-.57c.52 0 1.64 1.58 3.28 4.51l-.26 1.46h.6l.18 1.37c-.07 1 .08 1.48.34 1.5l-.37 1.79v.57h.43l-.12 2 .24.24-.28.33.39.81c-.72.09-1.14 1.2-1.28 3.55z" fill="#fff"/><path fill="#fff" d="M159.67 65.19l.46-.42-.43-.03-.03.45zM159.16 70.84l-.03.45.61.04-.41-.48-.17-.01zM168.81 68.58l-.03.34.4.59.17.01.02-.34-.39-.59-.17-.01zM160.11 43.42l-.03.57.69.04-.4-.59-.26-.02z"/></svg>