<svg xmlns="http://www.w3.org/2000/svg" width="260" height="78" viewBox="0 0 260 78"><path d="M7.37,17.23,20.21,28.85V54.08l-5.76,6.49H5.27L0,55V41H7.32V54.62H13V32.07L.24,20.63V5.56L5.42,0h9.47l5.32,5.37v9.27h-7V6.93H7.42ZM24.84,46h6.79V14l6.05,17.76,6.1-18.4V46h6.74V.59h-8.3L37.73,17.72,33.09.59H24.84Zm76.25,0h6.73V.59h-6.73Zm-28-40.92V40.77L68,46H59.51l-4.37-4.92v-36L59.65.59h8.68Zm-6.55,1h-5V39.82h5ZM204.93.59V39.82h-5V.59h-6.46V41.11L197.87,46h8.53l5.08-5.26V.59ZM96.11.59H89.73V10.93l-5.18,5.53V.59H77.81V46h6.74V26.47l5.39,6.21V46h6.17V29.11l-7.68-7.9,7.68-7.57Zm29.14,0V13.51L117.65.59H112.2V46h6.74V16.6l6.31,8.84V46H132V.59Zm104.33,0V13.51L222,.59h-5.45V46h6.73V16.6l6.31,8.84V46h6.74V.59Zm23.68,0V13.51L245.67.59h-5.45V57.82H247V16.6l6.31,8.84V57.82H260V.59ZM136.46,41.47,141.07,46h10.16l4.53-4.41V20h-9.65v5h3.32V39.5h-6.72V6.29h6.64v4.57h6.41V5.16L151.46.59H140.52l-4.06,4.57Zm33.12,0L174.19,46h10.16l4.53-4.41V20h-9.65v5h3.32V39.5h-6.72V6.29h6.64v4.57h6.41V5.16L184.58.59H173.64l-4.06,4.57Z" fill="#fff"/><path d="M101.78,56H25.69V52.06h76.09Zm133.77-3.92h-76.1V56h76.1ZM146.64,56V73.16h7.27v3.92h-46.7V73.16h7V56h-7V52.06h46.7V56Zm-11.15,0H125.37V73.16h10.12Z" fill="#fff"/></svg>