<svg xmlns="http://www.w3.org/2000/svg" width="222" height="95" viewBox="0 0 222 95"><polyline points="132.01 16.25 221 16.25 221 94.05 1 94.05 1 24.01 1 16.25" fill="none" stroke="#fff" stroke-miterlimit="10" stroke-width="0.68"/><path d="M183.44,34.15V54.7h7.63V34.15h12.06V87.9H191.07v-23h-7.63v23H171.38V34.15Z" fill="#fff"/><path d="M92.75,34.15,102.87,87.9h-13l-1-9.6h-9l-1.12,9.6H66.23L76.55,34.15Zm-5.1,34.74-3.1-25.4-2.87,25.4Z" fill="#fff"/><path d="M129.78,44.49h-8.25V87.9H109.44V44.49h-8.1V34.15h28.44Z" fill="#fff"/><path d="M45.76,34.05,49.63,72.6,54.1,34.05H66.42L57.05,87.9H43.34L39.67,54.75,35.35,87.9H21.47L12.62,34.05H25.11l4.48,38.38,4.05-38.38Z" fill="#fff"/><path d="M45.76,34.05,49.63,72.6,54.1,34.05H66.42L57.05,87.9H43.34L39.67,54.75,35.35,87.9H21.47L12.62,34.05H25.11l4.48,38.38,4.05-38.38Z" fill="#fff"/><path d="M59.06,7.5h-.85V14h1.16c1.32,0,2.77-.51,2.77-3S61.6,7.5,59.06,7.5Z" fill="#fff" stroke="#fff" stroke-miterlimit="10" stroke-width="0.68"/><path d="M79.33,7.76H77.46V26h1.87a1.74,1.74,0,0,0,1.73-1.73V9.49A1.74,1.74,0,0,0,79.33,7.76Z" fill="#fff" stroke="#fff" stroke-miterlimit="10" stroke-width="0.68"/><polygon points="39.33 20.72 42.4 20.72 40.8 7.67 39.33 20.72" fill="#fff" stroke="#fff" stroke-miterlimit="10" stroke-width="0.68"/><path d="M122.57,7.46a1.78,1.78,0,0,0-1.78,1.78V24.29a1.78,1.78,0,0,0,3.55,0v-15A1.78,1.78,0,0,0,122.57,7.46Z" fill="#fff" stroke="#fff" stroke-miterlimit="10" stroke-width="0.68"/><path d="M1,1V32.26H133.4V1ZM29.81,30.49h-6.2V18.67H19.7V30.49H13.5V2.88h6.2V13.43h3.91V2.88h6.2Zm13.72,0L43,25.56H38.38l-.58,4.93H31.39l5.3-27.61H45l5.19,27.61Zm25.82,0H62.79a3,3,0,0,1-.54-1.34,12.89,12.89,0,0,1-.15-1.56L62,22.29c-.06-1.08.19-3.63-2.64-3.66h-1.1V30.49H51.92V2.88H61a7.54,7.54,0,0,1,5.34,1.76c1.28,1.17,1.91,3,1.91,5.35a8.52,8.52,0,0,1-1.1,4.55A5.3,5.3,0,0,1,64.5,16.1a7.63,7.63,0,0,1,2.67,1.6c.87,1,.62,2.35.77,3.89,0,.52.09,1.08.11,1.68s0,1.29.08,2c.05,1.47.13,2.6.23,3.37a2.14,2.14,0,0,0,1,1.58Zm18.27-6.22a6.24,6.24,0,0,1-6.23,6.22H71.1V2.88H81.39A6.24,6.24,0,0,1,87.62,9.1Zm25-16.08h-4.24v22.3h-6.21V8.19H98.05V2.88h14.61Zm18,15.49a7.2,7.2,0,0,1-7.18,7.18h-2a7.2,7.2,0,0,1-7.18-7.18V9.78a7.21,7.21,0,0,1,7.18-7.19h2a7.21,7.21,0,0,1,7.18,7.19Z" fill="#fff" stroke="#fff" stroke-miterlimit="10" stroke-width="0.68"/><path d="M153.26,66.35v9.88a3.38,3.38,0,1,1-6.76,0V45.9a3.38,3.38,0,0,1,6.76,0v7.74h12.11V46.93a13.73,13.73,0,0,0-13.69-13.69h-3.85a13.72,13.72,0,0,0-13.68,13.69V75.06a13.72,13.72,0,0,0,13.68,13.69h3.85a13.73,13.73,0,0,0,13.69-13.69V66.35Z" fill="#fff"/></svg>