<svg xmlns="http://www.w3.org/2000/svg" viewBox="0 0 270 114"><g fill="#fff"><path d="M63.16 28.28c-.07.16-.94 1.7-1.11 1.92-1.26 1.63-3.73 3.07-5.66 3.73-.21.07-1.71.48-1.87.49-1.34.13-1.68-.84-2.04-1.89-1.12-3.28-1.87-6.73-2.84-10.06-.22-.75-1.05-1.78.3-2.43 3.94-1.89 12.15-1.88 13.24 3.57.16.79.27 3.99-.01 4.67zm-7.22-.86c-.72.09-3.02.6-3.21 1.31-.11.43 1.05 4.08 1.66 4.21.47.1 3.59-1.18 4.19-1.51.85-.47 3.58-2.53 2.7-3.6-.55-.67-4.4-.53-5.34-.41zM99.69 15.75c2.98 2.6 2.94 4.84 3.64 8.58l-.59 4.79-.39-.2c-.1 1.73-2.14 3.87-3.73 4.39-3.87 1.27-8.41-2.26-9.33-5.9-.51-2 .08-7.89 1.04-9.81 1.65-3.3 6.66-4.19 9.35-1.85zm-.3 8.14c-2.18.1-3.72 1.3-4.6 3.24-.69 1.52-1.52 4.54.83 4.91 3.07.48 5.14-1.19 5.9-4.05.64-2.4 1.03-4.25-2.13-4.1zM137.1 29.6c2.49 2.12 3.72 6.47 1.76 9.32-1.84 2.68-6.91 4.04-9.99 4.29-1.26.1-2.6.06-3.72-.58l.04-15.23c.33-1.19 1.44-1.12 2.5-.99 3.17.4 6.9 1.05 9.42 3.19zm-8.32 12.04c3.04.12 6.79-.82 8.69-3.34.84-1.11.99-1.59-.43-2.28-1.24-.6-6.96-1.52-7.95-.82-.3.21-.28.33-.32.66-.2 1.75.1 3.97.01 5.78zM135.75 11.2c.78.62 2.15 2.95 2.23 3.93.12 1.41-1.05 3.19-2.04 4.15-2.16 2.09-6.89 3-9.82 2.62-.61-.08-1.04-.43-1.08-1.08.29-2.96-.35-6.52 0-9.41.16-1.32 2.79-1.3 3.81-1.47.3-.05.52-.33.8-.37 1.58-.21 4.83.61 6.09 1.62zm-.96 6.63c-.54-.42-5.1-.31-5.87 0-1 .41-.56 2.55.35 2.69 1.25.19 4.61-1.17 5.56-2.07l.19-.18c-.13-.11-.14-.37-.23-.45z"/></g><path d="M261.03 33.96c1.42-.93 3.32-2.45 4.69-3.53.8-.63 4.36-3.37 4.28-4.25-.12-1.45-4.88-5.25-6.19-6.12-7.49-4.94-16.18-3.82-23.37 1.14-.38.26-2.01 1.81-2.29 1.53.29-2.64.99-5.23 1.66-7.8.08-.94-.65-1.11-1.36-1.4-2.9-1.18-6.15-1.69-9.18-2.47-.3.04-.56.16-.81.33-1 .67-3.82 3.66-4.49 4.71-1.46 2.31-.72 6.01-1.58 8.59-.43-.32-.57-.73-.75-1.21-.94-2.61-1.8-5.85-2.59-8.56-.62-2.13-.97-4.39-1.75-6.46-.45-.47-1.04.02-1.55-.02-2.8-.19-6.31-1.42-9.24-1.72-2.39-.25-1.78.39-3.21 1.64-1.1.97-3.67 2.59-3.9 4.12-.08.51.05 1.05-.01 1.55-1.29 9.63-2.55 19.27-3.74 28.92-.11.89-.26 2.05-.42 2.91-.03.18-.08.59-.34.54-.68-3.39-1.28-6.85-1.74-10.29-.59-4.4-.74-8.87-1.64-13.22-.17-.81-.67-3.3-1.03-3.86-.42-.64-1.38-.43-1.47-1.09.65-2.52 2.06-5.11 2.51-7.67.83-4.71-1.16-9.52-6.36-10.17-8.18-1.01-10.13 9.16-9.44 15.3.28 2.49 2.8 4.19 4.9 5.12.03.42 0 .84-.09 1.25-.36 1.65-1.9 4.43-2 5.98-.13 1.92 1.03 5.56 1.12 7.79.02.57.13 1.96-.28 2.28-3.86.67-7.84.96-11.76 1.35-.84.08-3.29.88-3.72 0-.25-.5-.12-4.84-.1-5.78.16-8.63 1.1-17.33.98-25.99-.02-1.21.21-3.24 0-4.3-.12-.62-.93-1.13-1.51-1.23-1.44-.25-4.14-.41-5.63-.44-1.74-.03-3.62.13-5.29.38-.52.33-.64 1.62-.68 2.25-.35 4.95-.42 10.62-.59 15.64-.16 4.72-.08 9.47-.19 14.18-.95.16-.79-.8-1.04-1.4-.3-.72-1.67-2.98-1.7-3.4-.03-.54 2.03-4.41 2.3-5.7 1.09-5.23-1.55-11.57-4.85-15.59-5.43-6.6-17.83-7.18-25.72-6.36-.87.09-4.58.7-5.01 1.25-.48 1.29-.04 2.84.02 4.13.24 5.29.94 10.54 1.18 15.83.01.28.05 2.26-.11 2.26-2.58-6.08-3.26-13.05-8.61-17.59-9.16-7.76-21.54-5.99-26.78 5.1-5.07 10.76-2.46 23.84 1.83 34.39l-8.19-5.42c-.13-.49 1.65-3.93 1.94-4.83 2.68-8.37-.92-21.59-9.46-25.37-7.71-3.41-20.56-1.04-28.11 2.29-1.03.45-3.38 1.39-3.33 2.71l2.73 9.7c-.49.47-2.61-2.34-3.03-2.74-.73-.7-1.69-1.37-2.45-2.05-.43-.38-.82-1.1-1.22-1.32-1.39-.74-7.83-.84-9.64-.74-10.94.6-17.75 4.26-20.58 15.22-4 15.49 3.65 29.07 17.03 36.64 12.16 6.88 21.38 6.19 30.95-4.14.36-.38 1.4-2.01 1.75-2.08.78-.14 1.03 1 1.39 1.47.42.55 1.72 2.38 2.1 2.69.64.52 3.73-.34 4.69-.58 1.26-.31 6.4-1.67 7.19-2.2.35-.24.73-.69.73-1.12l-3.77-14.41.13-.67c.3-.41.97-.51 1.45-.52l.39.21L79.17 68.5c.34 0 1.07-.55 1.37-.78 2.65-2.08 5.17-4.74 7.81-6.86 1.21-1.35 0-3-.28-4.48.97-.09 1.58.8 2.36 1.25 8.19 4.76 20.05 3.22 24.22-6.07.72-1.61.88-3.63 1.98-4.96.29 2.15.23 4.33.64 6.5.24 1.24.87 3.8 1.44 5.57l7.01.19c.06-.03 5.69-1.56 7.46-1.67 4.54-.3 8.88 1.09 10.03 2.05 3.35-1.81 5.73-4.57 7.28-8.13.4-.08.46.19.6.47.53 1.15.97 5.7 1.55 6.27l.38.21c2.63.3 5.3.27 7.93.48 4.23.34 8.47.87 12.71.98.82.02 5.92.08 6.17-.21-.97-2.33.51-4.92.76-7.35.12-1.21-.07-2.48.03-3.69.02-.23.07-1.35.48-1.27l2.64 11.44c.27.18 2.34.11 2.85.1.81-.03 2.14-.11 2.92-.21.61-.07 1.9-.25 2.39-.53.88-.49 1.17-2.73 2.21-3.19.05 1.07-1.02 5.15-.4 5.77.35.34 4.44 1.4 5.24 1.6 1.97.5 4.01.93 6.02 1.24.45.02.61-.24.87-.51.49-.49 4.81-6.4 4.94-6.8.42-1.29.21-3.69.37-5.1.02-.22.39-2.16.76-1.88 1.02 4.76 2.14 9.49 3.28 14.22.23.98-.07 2.12.93 2.79 2.58.7 5.47 1.9 8.13 1.67.95-.21 1.35-1.55 2.4-1.24.39.12 1.53 1.53 2 1.92 6.98 5.64 18.22 9.64 26.49 4.58 6.05-3.7 12.86-13.48 12.55-20.72-.31-7.23-6.24-11.05-11.54-14.84.15-.34.21-.59.5-.87.9-.87 3.23-1.73 4.37-2.48zM43.82 57.19c-1.04 1.36-2.03 2.79-3.19 4.06-1.46 1.61-3.73 3.68-5.61 4.76-1.59.91-3.95 1.4-5.77 1.66-6.8.98-15.77-1.27-20.52-6.62-4.35-4.89-7.06-11.24-7.53-17.7-.27-3.71 1.39-11.11 3.18-14.41 2.38-4.41 6.2-6.84 11.05-7.93 3.18-.71 10.21-1.08 13.46-.64.49.07.94.37 1.37.59l-1.08 10.17c-.93.14-1.82-.47-2.66-.57-4.19-.53-9.3 1.15-11.57 4.83-.8 1.3-.74 1.9-1.04 3.23-.03.15-.35.12-.38.27-1.01 4.47 1.51 11.18 5.31 13.82 4.86 3.38 9.99 1.74 13.85-2.14l2.46-3.01 8.68 9.22v.41zm1.21-3.27c-2.28-1.86-4.39-4.35-6.65-6.26-.67-.57-2.45-2.17-3.22-2.06-.59.09-2.35 2.69-2.94 3.33-.81.89-3.16 3.27-4.33 3.31-1.36.05-3.33-2.39-3.9-3.5-3.1-6.02 2.97-9.2 8.09-9.73.91-.1 3.95.16 4.36-.33.24-.29 1.19-6.15 1.33-7.08.05-.31.13-4.44 1-3.79l7.44 26.78c-.15.16-1-.54-1.18-.68zm39.12-3.54c-.36.3-.71.6-1.07.9-2.51 2.1-5.26 4.05-8.04 5.93-.44.3-.86 1.12-1.71 1.07l-5.79-7.53c-.7-1.51-1.95-2.86-2.93-4.26-.98-1.4-1.84-2.92-2.8-4.34-.41-.34-1.46-.28-2.01-.26-.92.04-3.74.53-4.09 1.38-.27.65.31 2.41.5 3.21.7 3.01 1.91 6.41 2.49 9.44.08.4.07.81.03 1.22l-9.04 2.56c-.21-.05-.87-1.84-.99-2.19-2.24-6.53-4.16-13.19-5.92-19.9-1.46-5.58-3.19-11.11-4.8-16.71-.46-1.61-1.17-3.18-1.33-4.87.1-.32 1.57-1 1.96-1.18 7.9-3.66 23.39-6.45 30.62-.64 5.64 4.54 7.49 15.23 2.5 20.83-.28.32-2.37 2.15-2.63 2.26-.45.2-1.87-.1-1.73.95.12.9 2.3 1.8 3 2.28 3.7 2.56 7.7 5.07 11.21 7.63.57.42 2.02 1.24 2.39 1.67.16.19.28.26.19.56zm28.78-20.31c-.39 4.73-1.61 9.71-4.25 13.73-1.47 2.24-4.27 4.55-6.71 5.62-2.01.88-5.44 1.08-7.72.87-16.05-1.46-18.18-28.12-11.43-39.31 5.21-8.64 16.39-9.05 23.57-2.64 1.55 1.38 2.91 2.99 3.86 4.84.85 1.65 1.31 3.2 1.69 4.93.83 3.78 1.33 7.75.98 11.97zm35.23 7.62c-.06.51-.32 1.71-.43 2.32-.78 4.16-2.9 8.72-6.84 10.77-4.39 2.28-13.82 3.33-19.08 2.66-.37-.05-.19-.37-.56-.42-.45-.06-2.53.12-2.65 0-.89-3.63-.51-7.34-.59-11.05-.21-9.81-.78-19.66-1.57-29.52-.18-2.27-.49-4.81-.59-7.04-.03-.84-.22-1.87.77-2.16.46-.14.88-.01 1.27-.1 6.39-1.34 16.9-.8 22.74 2.23 1.14.59 2.62 1.81 3.36 3 2.12 3.42 3.1 10.39-.46 13.16-1.37 1.06-4.03.59-1.66 2.84 2.39 2.27 4.09 3.35 5.19 6.74.38 1.18 1.21 5.48 1.09 6.56zm31.09 12.61h-27c-.12-2.06-.22-4.1-.2-6.17.08-8.19.23-16.46.6-24.63.17-3.78-.39-13.22.57-16.06.06-.19 0-.46.01-.66 3.46.07 6.95-.25 10.36.4-.42 3.26-.07 6.59-.18 9.87-.24 6.74-.95 13.39-.99 20.12 0 1.13-.17 6.56.11 7.15.44.91 2.64.49 3.51.38 3.81-.49 7.77-.72 11.57-1.35.52-.09 1.12.03 1.65 0V50.3zm2.25-48.5c.95-.45 3.44-.93 4.35-.52.05.02.04.26.2.31.62.19.9.04 1.6.52 2.76 1.88 3.73 5.97 1.74 8.75-1.29 1.81-4.33 3.16-6.48 2.82-5.95-.95-6.74-9.37-1.42-11.88zm10.56 48.49c-.82.13-2.38.17-3.31.21-.58.03-1.17 0-1.74-.03-.72-.25-.44-2.88-.53-3.58-1.06-7.87-2.19-16.47-3.71-24.25-.15-.75-.8-1.46-.55-2.33l.3-.29 6.74-.14.15.24 4.34 29.78c-.69-.26-1.22.31-1.67.38zm35.61 9.02c-1.61-.27-3.31-.37-4.86-.61-.13-.02-1.48-.46-1.62-.53-.91-.42-1.63-3.09-1.94-4.12-1.85-6.1-3.16-12.31-4.85-18.42-.11-.39-.52-1.82-.82-1.92-2.35-.14-1.44 2.1-1.65 3.59-.04.29-.34.51-.37.8-.55 4.3-.99 8.65-1.55 12.92-.17 1.32-.18 2.66-.43 3.97-.78.29-1.43-.26-2.04-.36-1.83-.28-3.52-.62-5.29-.97-.71-.14-2.72-.11-2.98-.93l6.22-44.84c1.32.24 2.67.37 3.99.61.37.07.66.37 1.07.45 1.39.29 3.35.22 4.78.55.17.04 1.23.72 1.26.79.18.32.52 2.34.7 2.92 2.15 6.99 4.45 14.51 6.74 21.62.11.34-.01.74.09 1.09.2.68 1.25 1.01 1.83.54.5-1.82.43-3.71.69-5.56.77-5.48 1.48-10.9 2.48-16.29.12-.64.02-1.34.26-1.99 1.11-.36 1.79.32 2.66.52.93.21 1.68.26 2.61.52 1.19.33 2.31.88 3.5 1.1l-8.21 44.96c-.91.29-1.63-.27-2.27-.38zm5.59-6.76c-.21.16-.24.44-.49.1-.19-.34-.12-1.05-.07-1.45.11-.99.45-2.63.65-3.65.06-.3.35-1.69.6-1.75l3.11 3.63c.21.28.66.42.5 1.06-.74.02-1.85.04-2.53.31-.67.26-1.16 1.27-1.77 1.75zm27.68-10.07c5.78 4.98 6.71 10.51 3.49 17.35-1.11 2.35-3.6 4.79-6.13 6.2-1.17.65-4.46 1.27-5.95 1.48-.51.07-4.61-.3-5.06-.44-3.07-.95-8.08-3.33-10.63-5.31-.75-.58-1.49-1.54-2.22-2.18 2.27-2.11 4.02-4.72 5.69-7.31h.42c.67.31 1.28.95 1.89 1.26 1.84.94 4.51 1.74 6.56 1.66 1.35-.06 3.06-.99 3.64-2.24.1-.21.74-1.85.76-1.98.14-.72-.28-1.83-.64-2.48-1.66-3.06-6.5-3.96-9.2-6.05-7.23-5.57-5.69-18.72 2.57-22.59 1.79-.84 5.18-1.73 7.19-2 2.47-.33 5.65 1.08 7.83 2.23.63.33 1.51.79 2.18 1.24.78.52 4.54 3.71 4.84 4.35.21.44.14.69-.09 1.08-.12.21-2.07 1.88-2.44 2.17-.11.08-.32.06-.42.14-1.49 1.17-3.02 2.27-4.53 3.42-.72.2-2.3-1.4-3.01-1.81-2.03-1.17-7.87-2.72-7.6 1.13.28 4.07 7.86 8.12 10.84 10.69z" fill="#fff"/><path d="M148.73 75.75c-1.44 4.95-12.02 20.6-12.02 20.6l6.65-2.05c1.12-1.55 6.55-9.22 6.92-12.84.4-3.85-.19-11.33-.93-14.53-.16-.71-.62-1.38-1.24-1.99 1.47 3.59 1.56 7.59.63 10.82zM158.94 100.58c-.11-.01-.21-.03-.31-.04l.23.61-36.72 8.46s-.02-.37 0-1.08l-.48.79c-.14.23-.1.52.09.71l3.96 3.8c.11.1.25.16.39.16.04 0 .09 0 .13-.01l32.76-7.67c.26-.06.44-.29.44-.55v-4.59a.57.57 0 0 0-.49-.56zM126.62 81.46c.03-.08 3.28-7.71 7.5-7.76 2.05-.02 3.46.4 4.38.86.72-2.86.38-5.66-2.63-6.95-6.87-2.95-12.13 8.11-12.13 8.11l-9.2-1.41s.06-.35.22-.94l-.59.52c-.19.17-.25.44-.14.67l2.85 6.15c.09.18.26.31.46.33l8.71.78c.24.02.48-.12.57-.35z" fill="#fff"/><path d="M122.14 110.17c-.12 0-.24-.04-.34-.12a.554.554 0 0 1-.22-.43c0-.14-.15-3.57.96-10.34 1.13-6.87 8.88-15.14 10.98-16.87 1.2-.99 5.27-6.97 4.68-11.05-.22-1.53-1.05-2.59-2.55-3.24-2.59-1.12-5.28-.18-7.98 2.79-2.1 2.31-3.4 5.02-3.42 5.04-.11.23-.35.35-.6.32l-9.2-1.41a.586.586 0 0 1-.38-.23.592.592 0 0 1-.1-.43c.06-.35 1.65-8.73 8.12-14.07 5.22-4.3 17.67-5.54 22.78-.86 5.03 4.6 5.83 11.67 4.39 16.62-1.21 4.18-8.61 15.51-11.21 19.43l16.64-5.12c.29-.09.59.06.7.34l3.99 10.38c.06.15.05.32-.03.47-.08.15-.21.25-.37.29l-36.72 8.46s-.08.01-.13.01zm11.39-43.62c.86 0 1.72.18 2.57.55 1.86.8 2.95 2.19 3.22 4.12.65 4.55-3.57 10.83-5.08 12.09-1.94 1.6-9.51 9.72-10.58 16.18-.81 4.94-.94 8.11-.96 9.41l35.4-8.16-3.57-9.27-17.66 5.43a.566.566 0 0 1-.62-.2.571.571 0 0 1-.01-.66c.11-.16 10.55-15.63 11.95-20.44 1.34-4.62.6-11.19-4.07-15.47-4.3-3.93-16.04-3.44-21.29.9-5.2 4.29-7.12 10.86-7.6 12.82l8.19 1.25c.44-.85 1.64-2.99 3.39-4.92 2.18-2.41 4.47-3.63 6.72-3.63z" fill="#fff"/></svg>