<svg xmlns="http://www.w3.org/2000/svg" viewBox="0 0 220 77"><path d="M0 11.9v16.3h3.9s-1.36-8.77 5.93-8.77h.84v38.92H5.41v18.2h14.18v-18.2h-5.26V19.43h.84c7.28 0 5.93 8.77 5.93 8.77H25V.44H0V11.9zM27.7 11.9v7.64l5.54-.04v38l-5.54-.04v19.1h24.99V48.8h-3.9s1.36 8.77-5.93 8.77l-5.97-.04V40.27h8.35v-3.66h-8.35V19.48l5.97-.04c7.28 0 5.93 8.77 5.93 8.77h3.9V.44H27.7V11.9zM75.12 19.09h4.95L72.42 34.7l-7.65-15.61H70V.44H57.8v18.65h3.31l9.48 19.34-9.55 19.48H57.8v18.65H70V57.91h-5.29l7.71-15.74 7.71 15.74h-5.01v18.65h12.2V57.91H83.8l-9.55-19.48 9.48-19.34h3.59V.44h-12.2v18.65zM160.38 11.9v7.64l5.54-.04v38l-5.54-.04v19.1h24.99V48.8h-3.9s1.36 8.77-5.93 8.77l-5.97-.04V40.27h8.35v-3.66h-8.35V19.48l5.97-.04c7.28 0 5.93 8.77 5.93 8.77h3.9V.44h-24.99V11.9zM216.42 19.09H220V.44h-12.2v18.65h4.95l-7.64 15.61-7.65-15.61h5.23V.44h-12.2v18.65h3.3l9.48 19.34-9.54 19.48h-3.24v18.65h12.2V57.91h-5.3l7.72-15.74 7.71 15.74h-5.02v18.65H220V57.91h-3.52l-9.54-19.48 9.48-19.34zM145.19.44h-.02L134.88 66.9 124.59.44h-10.74v18.65h4.27v38.82h-4.27v18.65h12.2V57.91h-4.26V19.09h2.02l9.14 57.47H136.81l9.14-57.47h2.02v38.82h-4.26v18.65h12.2V57.91h-4.27V19.09h4.27V.44h-10.72z" fill="#fff"/></svg>