<svg xmlns="http://www.w3.org/2000/svg" viewBox="0 0 220 106"><path d="M37.84 34.04c-1.33-5.64-4.01-13.83-11.45-11.91-12.28 3.17-7.25 23.24-4.55 31.74 2.09 6.59 8.38 20.6 14.59 23.85s11.18-3.41 11.87-9.14c.16-1.34.15-6.08-.43-7.17-.41-.77-2.9.04-3.69.24-1.32.33-9.3 3.11-9.88 2.73l-6.37-17.54c-.24-.63 1.34-.24 1.56-.24 7.31.07 14.07.05 21.39.37 1.02.05 5.64-.19 6.11.08.21.12.32.53.36.76.34 2.09.33 4.24.6 6.34s.63 4.4.92 6.58c.18 1.4.97 4.83.74 6-.07.38-1.48 1.82-1.68 1.6l-.77-7.57c-.78-3.82-.98-7.84-2.12-11.57-3.01-.51-6.14-.27-9.22-.35-.44-.01-.85-.2-1.3-.2-1.41-.02-11.1-.11-11.52.4-.09 1.07.42 2.2.77 3.22s3.11 8.28 3.52 8.48c.5.26 1.49-.07 2.07-.19 2.56-.52 6.12-1.91 8.56-2.14.3-.03.59-.07.89 0 .25.09.6 1.58.66 1.96 1.07 6.02 1 17.39-5.99 19.85-8.59 3.02-13.36-3.15-17.25-9.74-5.71-9.66-11.18-26.67-10.51-37.88.36-5.99 3.56-11.08 9.54-12.78s9.86.75 12.83 5.62c.34.56.37 1.45 1.17 1.61l20.54-7.98-.17-.55C53.5 12.9 46.85 7.26 38.65 4.99 25.52 1.41 11.18 7.53 5.54 20.04.15 32 7.43 54.33 12.73 65.79S29.77 94.6 44.82 89.1c2.14-.78 3.89-2.07 5.21-3.94l.47-.1c3.41 5.02 7.44 9.54 11.27 14.24.39.54 1.1.52 1.01-.24l-1.85-12.42c1.2-.07 1.86 1 2.04 2.08.69 3.98.85 8.13 1.36 12.14.18 1.41.47 2.84.73 4.24-.2.22-1.76-1.45-1.97-1.68-1.26-1.35-2.34-2.92-3.56-4.32-2.8-3.21-5.76-6.29-8.28-9.73-1.6.99-2.91 2.2-4.72 2.94-8.07 3.31-17.1.26-23.22-5.39C14.98 79.23 6.04 61.93 3.16 51-.36 37.74-2.93 22.1 6.79 10.79 21.5-6.32 47.74-1.59 61.2 14.54c1.27 1.52 3.96 5.07 4.64 6.81.07.17.23.31.06.51L37.84 34.04zM200.49 8.92c-1.01 1.72-1.84 3.58-2.85 5.3-9.11 15.63-19.53 30.5-28.82 46-.37.62-1.25 1.84-1.08 2.5.22.89 1.72 3.71 2.23 4.73.66 1.32 2.3 3.62 2.68 4.83.23.74-.31 1.8-.11 2.63-.39-.22-.59-.77-.81-1.15-1.68-2.92-3.62-6.35-5.07-9.37-.33-.68-.8-1.23-.6-2.04.14-.59 1.67-3 2.1-3.72 3.88-6.5 7.84-12.92 11.67-19.46 4.44-7.6 9-15.13 13.08-22.93l-.49-.29a71.99 71.99 0 0 1-5.66 2.03c-3.83 1.2-8.4 2.2-12.07 3.69-2.02.82-1.85 2.12-2.71 3.86-4.03 8.19-8.48 16.16-12.67 24.27-.27.12-.63-.72-.75-.93-2.27-3.95-3.93-8.22-5.87-12.32-1.58-3.33-3.15-6.67-4.91-9.9-.28-.17-.7-.11-1.02-.08-2.53.29-7.72 1.57-10.2 2.37-.51.16-1.19.33-.9 1 3.72 6.3 6.94 12.9 10.58 19.24 2.32 4.03 5.04 7.82 7.15 11.97-.32.78-.68 1.56-1.04 2.32-3.01 6.27-6.6 13-9.95 19.12-.2.36-.38.75-.59 1.1-.09.16.05.31-.32.24l-.81-1.18 7.92-14.58c.51-1.83 2.34-4.09 2.84-5.78.08-.28.14-.54.08-.84l-12.35-20.48-8.18-14.32-.1-.73 15.85-3.19c.32 0 .75-.08 1.03.09.22.14 1.26 2.23 1.47 2.65 2.58 5.15 4.71 10.57 7.4 15.66.59 1.11 1.58 3.17 2.3 4.08.17.22.31.45.64.39 1.8-4.1 4.38-7.86 6.45-11.83 1.69-3.23 3.11-6.61 4.77-9.85.53-1.03 2.38-4.91 3.03-5.41.56-.44 2.67-1.12 3.48-1.4 2.38-.84 4.87-1.47 7.25-2.31 5.34-1.89 10.59-4.01 15.92-5.93z" fill="#fff"/><path d="M96.48 83.61c.67.62 1.41 1.14 2.09 1.74.12.11.36-.01.24.43-1.37.35-2.81.6-4.17.99-1.64.47-5.18 1.95-6.64 2s-3.75-3.76-4.33-3.9c-.37-.1-3.32 1.76-4.06 2.07-8.19 3.51-17.84 2.23-22.18-6.21-5.1-9.92 5.45-17.28 14.46-17.63 2.61-.1 6.35 1.49 8.59 2.78.75.03.84-1.9.87-2.5.09-1.54-.11-6.04-1.62-6.82-1.75-.9-4.55.55-5.8 1.85-.51.53-1.47 2.35-1.78 2.54-.14.09-.26.12-.43.06L60.6 55.03c-.15-.28.85-1.63 1.08-1.94 4.31-5.85 12.87-10.01 20.04-7.53 12.69 4.39 10.24 19.93 10.88 30.56.21 3.49 1.41 5.18 3.87 7.48zm-3.14 1.02c.38-.62-1.14-2.14-1.55-2.8-3.48-5.64-1.25-11.06-1.22-17.14.06-10.59-6.96-20.2-18.45-16.17-1.46.51-6.96 3.32-7.24 4.78-.07.34-.02.58.24.82 1.32.5 4.25 2.87 5.47 2.98.23.02.62-.07.78-.23 1.38-2.63 4.31-4.72 7.36-3.79 5.76 1.76 5.81 10.83 3.46 15.27l-2.8-1.49c-8.28-4.83-26.71 2.22-19.98 13.59 4.29 7.25 14.44 7.41 21.39 4.31.61-.27 2.56-1.55 2.92-1.6.75-.1 2.41 1.54 3.24 2 .98.53 1.31.78 2.51.59l3.86-1.11zM119.45 62.16l-6.43-11.49.04-.6c1.31-.72 2.66-1.45 4.08-1.93 6.29-2.11 19.43-2.83 22.91 4.2 2.01 4.04.96 12.88.16 17.36-.55 3.08-2.33 8.34-1.54 11.2.83 3.04 3.39 4.34 4.98 6.66.18.26.23.09 0 .38-.39.5-4.03 1.84-4.84 2.1-1.38.44-3.81 1.16-5.2.99-1.8-.21-3.21-3.82-4.29-3.76-.53.03-3.28 1.86-4.17 2.23-6.94 2.91-16.79 1.1-19.67-6.55-4.72-12.54 10.41-20.76 21.16-15.9.42.19 2.18 1.26 2.31 1.27.68.06 1.4-3.23 1.51-3.88.82-4.77-.35-9.05-6.08-6.64-2.11.89-3.3 2.88-4.94 4.34zm-10.26 23.18c4.24 4.04 11.45 4.42 16.67 2.26.76-.32 3.58-2.18 3.82-2.2.66-.06 2.53 2.51 3.97 2.77.83.15 4.98-.07 5.41-.7.62-.91-.88-1.86-1.31-2.46-2.89-4.06-.08-11.79.46-16.58.85-7.54 1.4-19.18-8.9-19.6-3.51-.14-8.82.92-11.97 2.5-1.41.7-1.22.95-.62 2.2.33.68 2.89 5.33 3.22 5.42 1.46-.48 2.25-1.92 3.57-2.76 2.01-1.28 4-1.74 6.29-.92 1.01.36 1.78.91 2.25 1.88 1.44 2.98.1 9.24-1.07 12.31-.09.24-.61 1.5-.76 1.52-1.69-.9-3.25-1.98-5.14-2.54-6.15-1.84-14.23.32-17.54 6.09-2.06 3.59-1.32 7.97 1.66 10.81zM220 44.35c-.82 3.26-1.64 6.57-2.69 9.78-1.76 5.38-4.34 10.93-6.87 16.01-2.9 5.82-6 11.74-11.47 15.54-6.69 4.64-23.96 5.45-25.49-5.06-.87-5.98.78-14.08 2.19-19.91.59-2.45.83-5.15 2.16-7.3l13.84-2.67c-.88 2.55-1.92 5.08-2.75 7.65-1.31 4.03-3.39 10.63-3.44 14.76-.02 1.46.95 5.42 2.86 5.29 2.41-.16 4.92-3.46 6.11-5.34 4.72-7.39 6.42-16.79 9.33-24.99.21-.25 3.01-.95 3.6-1.08.4-.09.83 0 1.23-.09 3.8-.86 7.57-1.82 11.39-2.58zM188.44 54.9l-.75-.19c-2.42.71-5.57.56-7.91 1.29-.75.23-.87.36-1.14 1.11-2.08 5.57-4.98 17.85-3.39 23.44 2.32 8.16 14.15 7.74 20.44 5.03 8.32-3.58 15.42-18.84 18.4-26.98.8-2.18 2.45-6.21 2.71-8.35.05-.4.08-.83-.07-1.22-.16-.22-.5-.19-.75-.18-2.03.09-7.27 1.19-9.3 1.78s-1.64 1.63-2.24 3.2c-2.46 6.46-6.47 20.03-11.36 24.46-2.75 2.49-7.25 3.66-8.44-.93-1.34-5.13.99-13.2 2.55-18.27.38-1.25.89-2.45 1.39-3.66l-.13-.53z" fill="#fff"/><path d="M111 15.29c-.04.9.05 1.82 0 2.73-.71 14.73-1.98 29.49-2.64 44.23-.08 1.81.18 3.86 0 5.63-.15 1.52-1.39 2.38-2.34 3.47l1.95-51.43c-.15-.44-.78-.34-1.15-.26-3.55.7-7.31 2.22-10.88 3.01-.23.07-.41.22-.48.46-.21.7-.09 4.25-.04 5.22.29 6.4.92 12.86 1.14 19.29.08 11.85.98 23.68.65 35.53l-1.5-1.31c-.5-3.13-.37-6.31-.46-9.47-.47-16.1-.78-32.42-2.07-48.55-.15-1.87-1.27-3.14.94-3.94 4-1.44 8.99-2.27 13.17-3.53.57-.17 3.38-1.39 3.72-1.07zM178.92 88.41c2.18.12 2.98 2.21 3.66 3.94-.19.44-5.35 2.94-6.22 3.34-.61.29-3.41 1.69-3.82 1.44-.3-.19-2.75-4.25-3.16-4.92-2.86-4.72-5.52-9.61-8.3-14.39-.35-.6-.84-2.46-1.77-2.37l-12.29 19.61h-.75l-6.38-4.32 2.87-1.37c1.06.34 3.81 2.74 4.81 2.12l11.92-19.4c.26-.06 1 1.33 1.18 1.63 2.87 4.84 5.34 9.97 8.29 14.78.38.62 2.56 4.02 2.9 4.23.66.41 1.88-.17 2.6-.43 1.62-.6 3.03-1.67 4.65-2.29.58-.54-.38-1.42-.19-1.6zM97.68 90.57c.16.57 1.29.73 1.81.82.74.13 4.56.59 4.96.32.76-2.21.45-4.58.74-6.85.45-.1.3.08.42.24.63.93 1.44 1.66 1.47 2.85.01.62-.2 1.12-.21 1.68-.02.8.27 3.64-.37 3.95l-10.23-.28-.39-.18-.24-5.52c.23-.46 2.04-1.02 2.04-.4v3.37zM73.44 70.65c1.78-.19 5.48.64 7.11 1.41.61.29 1.1.51 1.19 1.24.13.97.12 3.91 0 4.89-.03.23 0 .37-.19.56-.17.17-2.42.95-2.86 1.08-2.18.67-4.47 1.12-6.76.84-7.21-.9-5.2-9.31 1.5-10.02zm-.38 1.49c-1.46.25-3.26 1.77-3.47 3.28-.48 3.4 3.66 4.24 6.25 3.99.85-.08 4.39-.98 4.79-1.59s.37-3.87-.48-4.43c-1.5-1-5.34-1.56-7.09-1.26zM119.77 73.46c2.32-.36 5.82 0 7.98.93.58.25.99.48 1.08 1.17.13 1 .1 4.65-.38 5.45-.7 1.17-4.37 2.08-5.72 2.16-3.63.22-8.35-1.29-7.8-5.73.22-1.75 3.18-3.72 4.83-3.98zm.57 1.13c-2.9.42-5.02 3.75-2.38 5.84 2.05 1.62 6.16 1.49 8.46.42 2.07-.96.91-2.38 1.45-4.17-.09-1.7-6.2-2.29-7.53-2.09z" fill="#fff"/></svg>