<svg xmlns="http://www.w3.org/2000/svg" width="260" height="106" viewBox="0 0 260 106"><path d="M.16 3.36h12.57a14.22 14.22 0 0 1 2.75.3 7.32 7.32 0 0 1 2.81 1.22 7 7 0 0 1 2.18 2.61 9.88 9.88 0 0 1 .86 4.44 8 8 0 0 1-2.4 6.21c-1.6 1.45-3.88 2.18-6.86 2.18H2V34H.16zM2 18.69h10.36a8.12 8.12 0 0 0 3.37-.62 6.1 6.1 0 0 0 2.21-1.6 6.35 6.35 0 0 0 1.2-2.19 8 8 0 0 0 .37-2.4 10.33 10.33 0 0 0-.24-2 6.35 6.35 0 0 0-1-2.27 5.9 5.9 0 0 0-2.09-1.84A7.29 7.29 0 0 0 12.61 5H2zM24.6 3.36h1.82V34H24.6zM31.63 3.36h2.28l18.65 28.06h.09V3.36h1.82V34h-2.15L33.54 5.67h-.09V34h-1.82zM58.91 3.36h19.85V5h-18v12.24h17v1.63h-17v13.45H79V34H58.91zM93.16 3.36h2L106.81 34h-2l-3.72-9.81H87L83.23 34h-2zm7.4 19.15L94.23 5.2h-.08l-6.58 17.31zM108.53 3.36h12.57a14.14 14.14 0 0 1 2.75.3 7.37 7.37 0 0 1 2.82 1.22 7 7 0 0 1 2.17 2.61 9.74 9.74 0 0 1 .87 4.44 8 8 0 0 1-2.4 6.21q-2.4 2.17-6.87 2.18h-10.09V34h-1.82zm1.82 15.33h10.38a8.08 8.08 0 0 0 3.37-.62 6.14 6.14 0 0 0 2.22-1.6 6.35 6.35 0 0 0 1.2-2.19 8.33 8.33 0 0 0 .37-2.4 10.43 10.43 0 0 0-.25-2 6.5 6.5 0 0 0-1-2.27 6.08 6.08 0 0 0-2.09-1.84A7.35 7.35 0 0 0 121 5h-10.65zM132.2 3.36h12.58a14.3 14.3 0 0 1 2.75.3 7.39 7.39 0 0 1 2.81 1.22 7 7 0 0 1 2.17 2.61 9.74 9.74 0 0 1 .87 4.44 8 8 0 0 1-2.4 6.21q-2.4 2.17-6.86 2.18H134V34h-1.8zm1.8 15.33h10.39a8.15 8.15 0 0 0 3.37-.62 6.1 6.1 0 0 0 2.21-1.6 6.35 6.35 0 0 0 1.2-2.19 8 8 0 0 0 .37-2.4 9.71 9.71 0 0 0-.25-2 6.15 6.15 0 0 0-1-2.27 6 6 0 0 0-2.09-1.84 7.35 7.35 0 0 0-3.55-.77H134zM156.26 3.36h1.82v29h16.75V34h-18.57zM176.94 3.36h19.86V5h-18v12.24h17v1.63h-17v13.45H197V34h-20.06zM8.28 54.43h14.85v-6.02H8.28v-4.07h16.17v-6.38H0v27.73h24.8V59.3H8.28v-4.87zM55.34 37.98h-8.81l-5.44 7.79-5.26-7.79h-9.22l9.83 13.22-10.59 14.47h8.96l6.02-8.51 5.9 8.51h9.41L45.56 51.24l9.78-13.26zM80.47 40.77a10.18 10.18 0 0 0-3.55-2.05 15.36 15.36 0 0 0-5.15-.72H57.19v27.69h8.28V56.3h6.3a15.36 15.36 0 0 0 5.15-.76 10.09 10.09 0 0 0 3.55-2 7.72 7.72 0 0 0 2-3 9.41 9.41 0 0 0 0-6.77 7.85 7.85 0 0 0-2-3zm-5.39 6.36a3 3 0 0 1-.37 1.6 2.59 2.59 0 0 1-1 .92 4.87 4.87 0 0 1-1.63.49 14.75 14.75 0 0 1-2.13.14h-4.48V44h4.46a16.33 16.33 0 0 1 2.13.14 4.87 4.87 0 0 1 1.63.49 2.59 2.59 0 0 1 1 .92 3 3 0 0 1 .39 1.58zM112.22 63.36a9.12 9.12 0 0 1-.32-1.54c-.07-.57-.12-1.14-.14-1.67s-.06-1.06-.09-1.5a15.41 15.41 0 0 0-.34-2.09 6.72 6.72 0 0 0-.85-2 6 6 0 0 0-1.48-1.69 5.5 5.5 0 0 0-.57-.36 6.83 6.83 0 0 0 2.4-2.12 7.79 7.79 0 0 0 1.23-4.39 7.25 7.25 0 0 0-.7-3.14 7.43 7.43 0 0 0-2-2.55 9.65 9.65 0 0 0-3.08-1.7 12.06 12.06 0 0 0-4-.61H85v27.69h8.28V55.46h6a5 5 0 0 1 3.15.77 4.16 4.16 0 0 1 1.2 2.54c.16 1 .29 2.12.37 3.24a9.83 9.83 0 0 0 .76 3.23l.2.45h8.92l-1.1-1.27a3 3 0 0 1-.56-1.06zm-8.44-16.52a2.6 2.6 0 0 1-.86 2.24 5 5 0 0 1-3 .73h-6.61V44h6.61a5.11 5.11 0 0 1 3 .71 2.49 2.49 0 0 1 .86 2.13zM123.9 54.43h14.84v-6.02H123.9v-4.07h16.17v-6.38h-24.45v27.73h24.79V59.3H123.9v-4.87zM164.73 50.6a13.36 13.36 0 0 0-3.21-1.3c-1-.26-1.85-.45-2.41-.54l-4.65-1a16.79 16.79 0 0 1-2.67-.77 2.28 2.28 0 0 1-1-.61 1.37 1.37 0 0 1-.2-.8 1.44 1.44 0 0 1 .27-.92 2.71 2.71 0 0 1 .85-.71 4.1 4.1 0 0 1 1.25-.43 10.58 10.58 0 0 1 3.65 0 5.27 5.27 0 0 1 1.64.54 2.66 2.66 0 0 1 1 1 3.35 3.35 0 0 1 .46 1.58l.05.72h8v-.78a7.9 7.9 0 0 0-1.13-4.28 8.91 8.91 0 0 0-3-2.87 13.33 13.33 0 0 0-4.17-1.58 21.29 21.29 0 0 0-9.06 0 13.4 13.4 0 0 0-3.92 1.56 9.29 9.29 0 0 0-2.87 2.7 6.86 6.86 0 0 0-1.09 3.89 6.37 6.37 0 0 0 .91 3.47 7.51 7.51 0 0 0 2.31 2.35 12.66 12.66 0 0 0 3.1 1.46c1.11.36 2.26.67 3.41.92s2.23.51 3.33.74a22.9 22.9 0 0 1 2.82.74 5.9 5.9 0 0 1 1.83 1 1.37 1.37 0 0 1 .52 1.13 1.57 1.57 0 0 1-.39 1.11 3.36 3.36 0 0 1-1.23.82 6.54 6.54 0 0 1-1.74.44 12.09 12.09 0 0 1-4.24-.13 6.22 6.22 0 0 1-1.93-.75 3.59 3.59 0 0 1-1.22-1.24 3.42 3.42 0 0 1-.45-1.83v-.78h-8.05v.76a8.33 8.33 0 0 0 1.14 4.6 9.49 9.49 0 0 0 3.14 3.19 14.19 14.19 0 0 0 4.44 1.77 23.74 23.74 0 0 0 5.08.55 22.71 22.71 0 0 0 5.71-.65 13.39 13.39 0 0 0 4.23-1.85 8.37 8.37 0 0 0 2.67-2.94 7.81 7.81 0 0 0 .9-3.7 6.5 6.5 0 0 0-1.25-4.08 9.35 9.35 0 0 0-2.83-2.5zM195.79 53.06A9.35 9.35 0 0 0 193 50.6a13.36 13.36 0 0 0-3.21-1.3c-1-.26-1.85-.45-2.41-.54l-4.65-1A16.79 16.79 0 0 1 180 47a2.28 2.28 0 0 1-1-.61 1.37 1.37 0 0 1-.2-.8 1.44 1.44 0 0 1 .27-.92 2.71 2.71 0 0 1 .85-.71 4.1 4.1 0 0 1 1.25-.43 10.58 10.58 0 0 1 3.65 0 5.27 5.27 0 0 1 1.64.54 2.66 2.66 0 0 1 1 1 3.35 3.35 0 0 1 .54 1.53l.05.72h8v-.78a8 8 0 0 0-1.12-4.28 8.91 8.91 0 0 0-3-2.87 13.33 13.33 0 0 0-4.17-1.58 21.29 21.29 0 0 0-9.06 0 13.4 13.4 0 0 0-3.92 1.56 9.29 9.29 0 0 0-2.87 2.7 6.87 6.87 0 0 0-1.17 3.93 6.37 6.37 0 0 0 .92 3.47 7.51 7.51 0 0 0 2.34 2.38 12.66 12.66 0 0 0 3.1 1.46c1.11.36 2.26.67 3.4.92s2.24.51 3.34.74a23.38 23.38 0 0 1 2.82.74 5.9 5.9 0 0 1 1.83 1 1.4 1.4 0 0 1 .51 1.09 1.57 1.57 0 0 1-.39 1.11 3.36 3.36 0 0 1-1.23.82 6.54 6.54 0 0 1-1.74.44 12.09 12.09 0 0 1-4.24-.13 6.22 6.22 0 0 1-1.93-.75 3.59 3.59 0 0 1-1.22-1.23 3.42 3.42 0 0 1-.45-1.83v-.78h-8.05v.76a8.42 8.42 0 0 0 1.15 4.6A9.55 9.55 0 0 0 174 64a14.25 14.25 0 0 0 4.45 1.77 23.6 23.6 0 0 0 5.08.55 22.83 22.83 0 0 0 5.71-.65 13.39 13.39 0 0 0 4.23-1.85 8.37 8.37 0 0 0 2.67-2.94 7.81 7.81 0 0 0 .9-3.7 6.5 6.5 0 0 0-1.25-4.12zM227.13 52.63l22.51-16.56a49.25 49.25 0 0 0 3.87-3.31A20.64 20.64 0 0 0 256.6 29a17.2 17.2 0 0 0 2-4.47 19.24 19.24 0 0 0 .73-5.51 18 18 0 0 0-1.83-8.32 16.68 16.68 0 0 0-5.08-5.95 23.14 23.14 0 0 0-7.64-3.58A35.23 35.23 0 0 0 235.4 0a39.89 39.89 0 0 0-10.1 1.21 24.9 24.9 0 0 0-8.12 3.62 18.85 18.85 0 0 0-5.55 6 19.43 19.43 0 0 0-2.4 8.55l15.7 1a8.73 8.73 0 0 1 2.77-5.73 9.6 9.6 0 0 1 6.86-2.33 11.13 11.13 0 0 1 6.44 1.87 5.78 5.78 0 0 1 2.72 5 6.81 6.81 0 0 1-2.2 5 50.31 50.31 0 0 1-4.4 3.84l-28.84 22.18v14.23H260V52.63zM24.53 74.46h12.8A9 9 0 0 1 43 76.14a6.11 6.11 0 0 1 2.14 5.09 6.25 6.25 0 0 1-1 3.53A6.35 6.35 0 0 1 41.39 87v.07a5.74 5.74 0 0 1 3.69 2.39 8.82 8.82 0 0 1 .7 7.64 5.88 5.88 0 0 1-1.73 2.41 8.71 8.71 0 0 1-3 1.61 14.58 14.58 0 0 1-4.39.59H24.53zm4.61 11.43h7.53a4 4 0 0 0 2.77-1 3.54 3.54 0 0 0 1.1-2.81 3.65 3.65 0 0 0-1-2.91 4.38 4.38 0 0 0-2.88-.84h-7.52zm0 12h8.16a4.44 4.44 0 0 0 3.26-1.13 4.21 4.21 0 0 0 1.16-3.19 4 4 0 0 0-1.16-3.11 4.56 4.56 0 0 0-3.26-1.09h-8.16zM50.51 74.46h4.61v23.16h13.4v4.13h-18zM82.91 73.81a11.74 11.74 0 0 1 9.26 4.25 14 14 0 0 1 2.49 4.54 18 18 0 0 1 0 11.05 14 14 0 0 1-2.49 4.55 11.66 11.66 0 0 1-4 3.07 13 13 0 0 1-10.59 0 11.75 11.75 0 0 1-4-3.07 14 14 0 0 1-2.49-4.55 18.18 18.18 0 0 1 0-11.05 14 14 0 0 1 2.49-4.54 11.74 11.74 0 0 1 9.27-4.25zm0 3.9a7.14 7.14 0 0 0-3.64.88 7.28 7.28 0 0 0-2.49 2.35 10.85 10.85 0 0 0-1.42 3.35 16.09 16.09 0 0 0 0 7.64 10.8 10.8 0 0 0 1.42 3.34 7.31 7.31 0 0 0 12.25 0 10.8 10.8 0 0 0 1.42-3.34 16.09 16.09 0 0 0 0-7.64A10.85 10.85 0 0 0 89 80.94a7.28 7.28 0 0 0-2.49-2.35 7.12 7.12 0 0 0-3.6-.88zM111 73.81a12 12 0 0 1 5.3 1.15 11.83 11.83 0 0 1 4 3.1 13.61 13.61 0 0 1 2.49 4.54 18 18 0 0 1 0 11.05 13.65 13.65 0 0 1-2.49 4.55 11.62 11.62 0 0 1-4 3.07 13 13 0 0 1-10.59 0 11.56 11.56 0 0 1-4-3.07 14 14 0 0 1-2.49-4.55 18 18 0 0 1 0-11.05 14 14 0 0 1 2.49-4.54 11.77 11.77 0 0 1 4-3.1 11.92 11.92 0 0 1 5.29-1.15zm0 3.9a7 7 0 0 0-6.12 3.23 10.87 10.87 0 0 0-1.43 3.35 16.09 16.09 0 0 0 0 7.64 10.81 10.81 0 0 0 1.43 3.34 7 7 0 0 0 2.49 2.35 7.31 7.31 0 0 0 9.76-2.35 10.8 10.8 0 0 0 1.42-3.34 16.09 16.09 0 0 0 0-7.64 10.85 10.85 0 0 0-1.42-3.35 7.28 7.28 0 0 0-2.49-2.35 7.19 7.19 0 0 0-3.64-.88zM127.78 74.46h10.92a12 12 0 0 1 5.24 1.07 9.86 9.86 0 0 1 3.62 2.93 12.62 12.62 0 0 1 2.08 4.33 21.11 21.11 0 0 1 0 10.63 12.67 12.67 0 0 1-2.08 4.34 9.83 9.83 0 0 1-3.62 2.92 12 12 0 0 1-5.24 1.07h-10.92zm4.61 23.39h4.54a11.33 11.33 0 0 0 4.41-.74A6.51 6.51 0 0 0 144 95a7.57 7.57 0 0 0 1.36-3 21.24 21.24 0 0 0 0-7.68 7.55 7.55 0 0 0-1.33-3.1 6.41 6.41 0 0 0-2.69-2.06 11.13 11.13 0 0 0-4.41-.75h-4.54zM164.68 74.46h12.58q4.35 0 6.53 2a6.92 6.92 0 0 1 2.21 5.38 8.15 8.15 0 0 1-.55 3.23 6.94 6.94 0 0 1-1.3 2.06 5.07 5.07 0 0 1-1.45 1.13c-.48.23-.83.38-1 .46v.07a4.79 4.79 0 0 1 1.27.39 3.78 3.78 0 0 1 1.27 1 5.54 5.54 0 0 1 1 1.74 7.91 7.91 0 0 1 .39 2.68 24.41 24.41 0 0 0 .35 4.37 5.76 5.76 0 0 0 1.09 2.81H182a4.65 4.65 0 0 1-.61-2c-.06-.71-.09-1.4-.09-2.06a20.05 20.05 0 0 0-.22-3.23 5.85 5.85 0 0 0-.81-2.26 3.54 3.54 0 0 0-1.61-1.32 6.86 6.86 0 0 0-2.6-.42h-6.79v11.24h-4.61zm4.61 12.42h7.57a4.66 4.66 0 0 0 3.35-1.09 4.26 4.26 0 0 0 1.15-3.26 5.27 5.27 0 0 0-.37-2.12 3.06 3.06 0 0 0-1-1.28 3.72 3.72 0 0 0-1.47-.62 9.74 9.74 0 0 0-1.72-.15h-7.49zM190.66 74.46h19v4.13h-14.39v7.15h13.28v3.9h-13.28v8h14.61v4.13h-19.22zM213.9 74.46h10.93a12 12 0 0 1 5.24 1.07 9.82 9.82 0 0 1 3.61 2.93 12.64 12.64 0 0 1 2.09 4.33 21.11 21.11 0 0 1 0 10.63 12.69 12.69 0 0 1-2.09 4.34 9.8 9.8 0 0 1-3.61 2.92 12 12 0 0 1-5.24 1.07H213.9zm4.62 23.39h4.53a11.26 11.26 0 0 0 4.41-.74 6.47 6.47 0 0 0 2.7-2.07 7.71 7.71 0 0 0 1.33-3.04 21.24 21.24 0 0 0 0-7.68 7.69 7.69 0 0 0-1.33-3.1 6.38 6.38 0 0 0-2.7-2.06 11.07 11.07 0 0 0-4.41-.75h-4.53z" fill="#fff"/></svg>