<svg xmlns="http://www.w3.org/2000/svg" width="230" height="124" viewBox="0 0 230 124"><path d="M227.82 2.18v119.34H2.18V2.18h225.64M230 0H0v123.7h230V0z" fill="#fff"/><path d="M60.66 15.33h11v26.28h-7.1V23.83v-2.15-2.13l-6.89 22.06h-7.41L43.4 19.55V41.61h-7.1V15.33h11.14L54.08 36zM100 20H82.44v5.58h16.09v4.57H82.44v6.75h18.33v4.73H75.68v-26.3H100zM104.53 15.33h6.92v21.55H128v4.73h-23.47zM39.88 49.05a11.1 11.1 0 0 1 5.65 3.34 10.67 10.67 0 0 1 2.36 4.24 16.33 16.33 0 0 1 .63 4.37 14.65 14.65 0 0 1-2.66 8.88c-2.39 3.27-6.1 4.9-11.1 4.9H20.48v-26.3h14.28a22.31 22.31 0 0 1 5.12.57zm-12.68 4V70.2h6.39q4.9 0 6.84-3.83a11.16 11.16 0 0 0 1.06-5 10.25 10.25 0 0 0-1.59-6.16q-1.59-2.21-6.31-2.16zM78.12 72.43c-2.51 2-6.12 3.06-10.86 3.06s-8.35-1-10.85-3.06q-5-3.77-5-10.84 0-7.23 5-10.84 3.75-3.07 10.85-3.07c4.74 0 8.35 1 10.86 3.07q5 3.61 5 10.84t-5 10.84zm-4.33-4a9.22 9.22 0 0 0 2.42-6.84 9.25 9.25 0 0 0-2.42-6.84 8.83 8.83 0 0 0-6.53-2.42 9 9 0 0 0-6.56 2.41 9.2 9.2 0 0 0-2.45 6.85 9.16 9.16 0 0 0 2.45 6.84 9 9 0 0 0 6.56 2.41 8.83 8.83 0 0 0 6.53-2.41zM107.44 49.16a8.28 8.28 0 0 1 3.1 1.84 7.82 7.82 0 0 1 1.67 2.21 6 6 0 0 1 .61 2.76 6.56 6.56 0 0 1-1.19 3.68 6.49 6.49 0 0 1-3.93 2.56 6.11 6.11 0 0 1 3.3 2.08 7.21 7.21 0 0 1 1 4.11v1.76a10.85 10.85 0 0 0 .18 2.45 2.28 2.28 0 0 0 1.28 1.49v.66h-7.64q-.31-.87-.45-1.41a10.6 10.6 0 0 1-.29-2.26v-2.44c0-1.68-.4-2.8-1.1-3.35s-2-.84-3.94-.84h-6.9v10.3h-6.76V48.48h15.84a17.82 17.82 0 0 1 5.22.68zm-14.3 3.89v7.06h7.45a9.92 9.92 0 0 0 3.33-.43 2.89 2.89 0 0 0 2-3 3.16 3.16 0 0 0-1.9-3.21 8.42 8.42 0 0 0-3.2-.46zM127.83 48.48h7.83l11.71 26.28h-7.5l-2.18-5.4h-12.2l-2.24 5.4H116zm-.46 16.35h8.48l-4.18-10.34zM169.6 49.05a11.1 11.1 0 0 1 5.65 3.34 10.67 10.67 0 0 1 2.36 4.24 16.33 16.33 0 0 1 .63 4.35 14.72 14.72 0 0 1-2.65 8.88q-3.6 4.9-11.11 4.9H150.2V48.48h14.28a22.31 22.31 0 0 1 5.12.57zm-12.68 4V70.2h6.39q4.91 0 6.84-3.83a11.16 11.16 0 0 0 1.06-5 10.25 10.25 0 0 0-1.59-6.16Q168 53 163.31 53.05zM208.31 72.43q-3.75 3.06-10.85 3.06t-10.85-3.06q-5-3.77-5-10.84 0-7.23 5-10.84 3.75-3.07 10.85-3.07t10.85 3.07q5 3.61 5 10.84t-5 10.84zm-4.32-4q2.41-2.4 2.41-6.84a9.25 9.25 0 0 0-2.4-6.84 8.83 8.83 0 0 0-6.53-2.42 9 9 0 0 0-6.56 2.41 9.2 9.2 0 0 0-2.45 6.85 9.16 9.16 0 0 0 2.45 6.84 8.93 8.93 0 0 0 6.56 2.41 8.83 8.83 0 0 0 6.53-2.41zM53.93 98.9a4.75 4.75 0 0 0 1.27 2.69c1.14 1.08 3.11 1.62 5.89 1.62a15.54 15.54 0 0 0 4.06-.43c2-.54 3-1.56 3-3a2.21 2.21 0 0 0-1.45-2 19 19 0 0 0-4.6-1.23l-3.58-.62a26 26 0 0 1-7.26-2 6 6 0 0 1-3.35-5.69 7 7 0 0 1 3.27-5.86c2.15-1.64 5.35-2.38 9.58-2.38a17.57 17.57 0 0 1 9 2.2 7.41 7.41 0 0 1 3.93 6.4h-6.61a3.81 3.81 0 0 0-2.67-3.37 11.24 11.24 0 0 0-4.13-.66 9.49 9.49 0 0 0-4.37.85 2.64 2.64 0 0 0-1.64 2.39 2.27 2.27 0 0 0 1.61 2.11 24.43 24.43 0 0 0 4.4 1.08l5.82 1.09A17 17 0 0 1 71.82 94a6 6 0 0 1 3 5.37 7.05 7.05 0 0 1-3.5 6q-3.51 2.37-9.92 2.38t-10.28-2.35a7.25 7.25 0 0 1-3.75-6.44zM78.5 107V80.73h6.87v10h12.88v-10h6.87V107h-6.87V95.28H85.37V107zM136.73 104.67q-3.75 3.08-10.85 3.07c-4.74 0-8.35-1-10.86-3.07q-5-3.75-5-10.84T115 83c2.51-2 6.12-3.06 10.86-3.06s8.35 1 10.85 3.06q5 3.63 5 10.84t-4.98 10.83zm-4.33-4a9.25 9.25 0 0 0 2.42-6.85A9.24 9.24 0 0 0 132.4 87a8.81 8.81 0 0 0-6.52-2.42 8.93 8.93 0 0 0-6.56 2.42c-1.64 1.6-2.45 3.88-2.45 6.84s.81 5.25 2.45 6.85a8.93 8.93 0 0 0 6.56 2.41 8.8 8.8 0 0 0 6.52-2.42zM148.79 80.73l4.38 15 1 4.19.95-4.11 3.74-15.13h7.31l3.93 15 1 4.19 1-4 4.42-15.21h7l-9.3 26.34h-6.62l-4-15.37-1.17-5.08-1.17 5.08-4 15.37h-6.42l-9.39-26.28zM20.93 34.94h1.67v2.82h7.76v2H22.6v2.84h-1.67zM30.36 33.8h-9.43v-2h3.59v-3.62h-3.59v-2h9.43v2h-4.21v3.66h4.21zM22.6 17.35v5h2v-4.59h1.64v4.58h2.42v-5.22h1.7v7.15h-9.43v-6.92zM147.38 15.33h-9.04L129 27.34l9.34 12h9.04l-9.04-12 9.04-12.01z" fill="#fff"/><path fill="#fff" d="M161.2 15.33h-9.03l-9.34 12.01 9.34 12h9.03l-9.03-12 9.03-12.01z"/><path fill="#fff" d="M175.03 15.33H166l-9.34 12.01 9.34 12h9.03l-9.03-12 9.03-12.01z"/><path fill="#fff" d="M188.86 15.33h-9.04l-9.33 12.01 9.33 12h9.04l-9.04-12 9.04-12.01z"/><path fill="#fff" d="M202.69 15.33h-9.04l-9.34 12.01 9.34 12h9.04l-9.04-12 9.04-12.01zM37.49 79.58H21a2.16 2.16 0 0 0-2.16 2.16v23.11A2.16 2.16 0 0 0 21 107h16.49a2.16 2.16 0 0 0 2.16-2.16v-23.1a2.16 2.16 0 0 0-2.16-2.16zM29.32 104h-8.17l8.17-10.85-8.17-10.83h8.17l8.44 10.85z"/></svg>