<svg xmlns="http://www.w3.org/2000/svg" width="302" height="91" viewBox="0 0 302 91"><path d="M247.56 9.26c-5.83 1.84-16.43 5.14-20 4.86a1.46 1.46 0 0 1-1-.4c-.49-.58-.32-2.08-.21-3.17 0-.38.08-.73.1-1.05s.06-.77.11-1.21c.22-2.31.51-5.2-.93-6.77a3.13 3.13 0 0 0-2.41-1c-1.55 0-3.85 1.1-8 9.64l-.11.24.26-7.4-2.8.76s-.39 13.52-.91 14.78c-3.72 1.36-7.4 2.31-8.65 2.26-.36-1.7-.14-7.8.31-12.92l.17-2-1.91.49c-.06 0-5.77 1.47-10 2.33-4.48.92-4.69 5.53-4.88 9.59 0 .5-.05 1-.08 1.52a10.33 10.33 0 0 0 .56 4.68l-3.48.92c-2.69.72-11.59 3.3-12.71 1.89-2.41-3-1.79-7.51-1.4-10.29l6.88-1.63a4.18 4.18 0 0 1 .72-.12v4.09l2.81-.93v-3.5a2.35 2.35 0 0 0-.87-1.93 3.9 3.9 0 0 0-3.29-.35c-1.27.29-7.81 1.85-7.81 1.85l-.89.22-.17.89c-.17 1-1.63 9.47 1.23 13.58l.16.2c-3.35.84-6.8 1.67-10 2.38l.28-15.88-2.8-.05-.3 16.53a57.21 57.21 0 0 1-9.44 1.45 3.52 3.52 0 0 1-1.12-.13c-1.2-.43-1.37-5.23-.41-10.32l3.47-.87V19.6l-13.39 3.34c0-1.48.06-2.79.08-3.65l-2.84 1.36c-.07 3.18-.19 8.58-.24 11.18-.07 4.08-.32 5.81-2.48 6.38l-1 .27c-5.74 1.55-12.76 3.22-13.69 3.45s-1.52-1.15-1.61-1.82c-.17-1.29 1.16-2.91 2-3.71.3 0 .6 0 .93-.07 1.26-.16 4.41-.77 6.23-1.14v-2.86c-1.62.33-5.28 1.06-6.58 1.22a2.46 2.46 0 0 1-1.76-.2 1.59 1.59 0 0 1-.42-1.1c0-.55-.17-2 3.63-2.69l9.32-1.74v-2.85l-9.8 1.84c-5.5 1-6.07 4-5.92 5.68a4.21 4.21 0 0 0 1.42 3 6.89 6.89 0 0 0-1.78 5 4.51 4.51 0 0 0 1 2.21c-1.54.31-6.92 1.89-8.48 1-1-.57-.93-3.1-.81-5.06.16-2.58.32-5-1-6.45a3.19 3.19 0 0 0-2.4-1c-1.57 0-3.62 1.13-6.95 9.36-.07-4.95-.93-7.12-2.82-7.35-1.68-.2-3.55 1.25-7.22 9-.14.29-.28.59-.41.89l.38-7.55-2.81.08-.32 3.68-7.43 1.47c.35-6.83.73-14.4.82-17.34s-.1-6.22-2.24-6.8-3.62 2.17-4.17 3.2-1.82 4.17-4.18 9.81l-2.54 6.13c-.45 1.07-.88 2.15-1.31 3.21-.66 1.66-1.32 3.29-2 4.87l-2.62.51 1.81 1.27a27.4 27.4 0 0 1-6.9 9.55c-3.74 3.15-13.47 5-17.49 5.49V64c1.33-.16 14.32-1.83 19.6-6.27a29.72 29.72 0 0 0 7.5-10.15L70 56.61l.17-2.94c0-.1.23-4.27.51-9.53l7.44-1.47-.52 10.42h2.05l.86-2C83 44.71 86.44 37.7 88.1 36.21c.64 1.71.63 7.54 0 13.78a6 6 0 0 0-.09.68l2.75-.57c2.82-8.29 6.15-15.73 7.59-16.11.27 0 .33.07.35.09.51.53.36 2.83.26 4.36-.19 3-.3 6.29 2.15 7.74s10.25-.8 17.36-2.58c6.12-1.54 11.44-2.91 11.44-2.91 4.42-1.18 4.5-5.12 4.57-8.81 0-1.44.07-3.73.12-6l7-1.75c-.65 4.07-1.16 10.93 2.44 12.22a6 6 0 0 0 1.93.24c5.57 0 19.53-3.4 38.46-8.45 2.54-.68 4.37-1.17 5-1.29 3.88-.85 8-6.81 10.69-11.63-.1 3.55.06 6.55.76 7.47.47.62 1.74 2.27 12.43-1.75l.6-.23.22-.6s1.61-4.33 3.66-8.59c3.8-7.93 5.48-8.19 5.49-8.19.24 0 .3.07.33.1.6.66.34 3.23.21 4.62 0 .47-.09.92-.12 1.31s0 .59-.08.92c-.18 1.59-.41 3.77.83 5.26a4.09 4.09 0 0 0 3 1.4c4.12.33 14.85-3.05 20.19-4.71zM67.07 50.54l-6.32-4.45 6.63-1.3c-.12 2.21-.23 4.21-.31 5.75zm1.35-27.21c-.09 3-.49 11.07-.86 18.09l-8.44 1.66q.59-1.42 1.17-2.88t1.29-3.2l2.55-6.13c1.94-4.69 3.62-8.74 4-9.52.08-.15.16-.28.23-.4a21.19 21.19 0 0 1 .06 2.38zm121.45.28c-.18-.25-.61-1.12-.46-3.65 0-.52.06-1 .08-1.55.21-4.51.52-6.53 2.64-7 2.54-.52 5.57-1.24 7.66-1.75-2.55 5.23-6.69 12.04-9.92 13.95z" fill="#fff" stroke="#fff" stroke-linejoin="round" stroke-width=".47"/><path d="M157.23 14.45a2.92 2.92 0 1 0-2.92-2.92 2.92 2.92 0 0 0 2.92 2.92zM301.5 49.36L135.33 87.48l-.02 2.88L301.5 52.24v-2.88zM236.62 57v2.79L264 53.15v-2.89l-19 4.58c1.53-5.31-1.82-7.88-3.74-9.35a9.5 9.5 0 0 1-1.15-1 3 3 0 0 1-.73-3.29 26.08 26.08 0 0 0 1.36-3.11L238.16 37c-.06.14-6.06 13.8-7.38 16.84l-.13.3c-1.08 2.5-1.93 4.47-3.12 4.86-.71.24-5.38 1.41-5.38 1.41l-2.7 3.54c.31-.07 7.48-1.79 9-2.29 2.38-.79 3.45-3.27 4.81-6.4l.13-.3c.64-1.5 2.43-5.57 4.08-9.34a5.07 5.07 0 0 0 .53.74 11.41 11.41 0 0 0 1.57 1.37c2.11 1.61 4.69 5 2.15 7.63-.59.57-3.25 1.21-5.1 1.64zM216 52.85a9.54 9.54 0 0 1-6 10.27l-1.73.46a6.13 6.13 0 0 1-2.75-4.77c-.51-3.78 0-6.29 4-7.19 6.26-1.41 12-2.66 15.41-3.41v-2.87c-3.35.73-9.38 2-16 3.54-7.34 1.64-6.46 8.16-6.17 10.3a9.76 9.76 0 0 0 2.2 5.25c-3.54.9-7.77 1.93-9.46 2.24-1.35.25-2.58.9-2.64-1.12-.05-1.61.3-12.84.3-12.84l-2.83.86s0 .26-.06 1.14c-2.79 5.51-7.15 13.63-8.66 15.18-.7.71-2 .84-2-.92.06-2.5.43-12.88.43-12.88l-2.82.34c0 .41-.41 10-.41 12.54 0 2.11.85 3.72 2.28 4.31a3.12 3.12 0 0 0 1.16.22 4.68 4.68 0 0 0 3.31-1.65c1.41-1.45 4.23-6.48 6.44-10.64 0 2-.05 3.65 0 4.53a4.48 4.48 0 0 0 1.39 3.31 3.52 3.52 0 0 0 2.23.66 13.41 13.41 0 0 0 2.33-.28c2.87-.53 12.37-3 14.75-3.61 4-1.1 9-6.36 8-13.37z" fill="#fff" stroke="#fff" stroke-linejoin="round" stroke-width=".47"/><path d="M247.36 19v-2.87L147.3 40.26c-4-1.92-10.77-4.3-13.87-.82a4.11 4.11 0 0 0-1 3.82 3.74 3.74 0 0 0 .17.54L1.5 75.18v2.88l132.72-31.77a26.35 26.35 0 0 0 6.53 4.65 63.71 63.71 0 0 0 6.94 3.24l1-2.61a48 48 0 0 1-11.22-6.06l9.53-2.29c.24.12.49.24.73.38 1.9 1 4.94 2.62 8.16 4.63-1.58 7.92-3.63 18.17-4.17 20.51-1.62 7.11-4.29 8.29-5.41 9.09-.87.62-7.93 2.13-11.1 2.79v2.85c4.51-1 23.23-5 27.77-6.5a14.41 14.41 0 0 0 8.39-6.86 12.45 12.45 0 0 0 .54-9.7c-1.63-5-6.86-9.55-12.9-13.5.62-3.08 1.12-5.63 1.38-6.92zm-112 24.13a3 3 0 0 1-.21-.54 1.32 1.32 0 0 1 .39-1.29c1-1.15 3.7-1.07 7.11.07zm15.74-.91l6.28-1.52c-.24 1.18-.55 2.77-.92 4.6-1.79-1.07-3.61-2.1-5.38-3.07zm18.13 19.05a9.63 9.63 0 0 1-.36 7.56 11.64 11.64 0 0 1-6.76 5.46c-1.81.58-6.09 1.62-10.79 2.71a22.88 22.88 0 0 0 3.13-7.65c.52-2.28 2.42-11.73 4-19.48 4.77 3.29 9.43 7.31 10.76 11.41z" fill="#fff" stroke="#fff" stroke-linejoin="round" stroke-width=".47"/></svg>