<svg xmlns="http://www.w3.org/2000/svg" viewBox="0 0 280 91"><path d="M21.46 51.13V14.25c0-4.91-1.49-10.01-5.66-10.88C11.63 2.5 0 .06 0 .06v90.55l6.97-1.34V64.76s4.67.05 4.67 5.84v10.45c0 3.54 1.74 7.15 5.11 6.82 3.29-.32 4.71-.48 4.71-.48v-7.34s-3.05 0-3.05-3.67-.03-11.56-.03-14.23c0-3.93-2.59-4.92-2.59-4.92s5.66-1.24 5.66-6.09zm-9.7-3.76c0 5.94-4.92 5.27-4.92 5.27V34.41c2.76 0 4.92 2.46 4.92 5.22v7.73zM25.16 5.44v30.81l5.06.27v42.71l-5.06.38v7.13l15.6-1.55v-6.58l-4.81.23v-41.2l4.81.21V8.23l-15.6-2.79zM57.18 10.42c-3.66-.7-12.98-1.78-12.98-1.78v75.64s8.37-.51 12.13-.8c3.76-.28 6.86-4.04 6.86-10.15V20.11c0-6.02-2.39-8.99-6.02-9.69zm-1.59 61.94c0 5.06-5.81 5.48-5.81 5.48V39.08s5.81.08 5.81 6.26v27.03zM78.95 13.71c-3.4-.65-12.04-1.65-12.04-1.65v70.09s7.76-.4 11.25-.66 6.37-3.75 6.37-9.42V22.7c0-5.58-2.21-8.34-5.58-8.98zm-1.48 57.46c0 4.7-5.39 5.08-5.39 5.08V40.29s5.39.08 5.39 5.8v25.07zM87.66 14.16l6.71.46V69.3c0 6.16 2.28 6.04 3.81 6.04h5.14v5.46h-9.74c-2.37 0-5.63-1.8-5.63-6.2s-.29-60.43-.29-60.43zM122.52 15.83v26.46h-8.92v13.84h8.41v5.44h-8.41v13.54h8.92v5.18h-12.51c-2.38 0-4.25-1.92-4.25-5.07V21.24c0-4.17 2.46-5.87 6.21-5.79s10.54.38 10.54.38zM174.86 15.17v26.72h-8.92v13.84h8.41v5.44h-8.41v13.81h8.92v5.18h-12.51c-2.38 0-4.25-1.92-4.25-5.07V20.85c0-4.17 2.35-5.66 6.1-5.63s10.66-.05 10.66-.05zM131.06 16.24v63.92h5.56V42.93s3.56.62 3.56 6.01v31.22h5.87V42.75s3.86.97 3.86 6.03v31.38h4.43V25.13c0-7-3.46-8.82-8.13-8.82v7.13s-1.13-7.2-6.76-7.2h-8.4zM206.07 11.92l-23.99 2.26v27.38l7.53-.51v40.2l7.04.03V40.57l9.42-.64V11.92zM226.97 84.75l-.16-76.03-5.62.66v45.35h-4.12V10.02l-7.71 1.02v72.08l7.71.78v-21h4.12v21.37l5.78.48zM246.71 5.13v30.82l-5.06.26v42.71l5.06.39v7.13l-15.6-1.55V78.3l4.8.23v-41.2l-4.8.21V7.92l15.6-2.79zM268.27 1.11v33.07s-4.78.41-6.72.74-3.15 1.54-3.22 5.1 0 4.9 0 7.38-.54 4.96 3.62 6.04 6.78 2.35 6.78 7.04v23.01c0 2.68-2.18 4.7-5.21 4.7s-12.5-.6-12.5-.6v-7.72s5.84.13 8.93.33 3.2-1.05 3.2-5.07-.1-8.77-.1-10.92-3.38-2.12-6.73-3.66-5.3-2.42-5.3-8.05V12.52c0-6.71 4.7-9.26 7.98-9.93s9.27-1.48 9.27-1.48zM272.35.95v79.21l7.41 1.12V.14l-7.41.81z" fill="#fff"/><circle cx="276.05" cy="86.99" r="3.95" fill="#fff"/></svg>