<svg xmlns="http://www.w3.org/2000/svg" viewBox="0 0 280 89"><path d="M105.23 1.13c2.86-.41 8.65-.31 11.39.48 5.35 1.53 6.12 5.47 6.44 10.49.36 5.57.25 18.22-5.98 20.75-4.03 1.64-11.88 2.09-16.03.78-.36-.11-2.94-2.3-3.29-2.74-2.52-3.15-2.73-7.37-2.88-11.2-.17-4.33.15-8.93 1.93-13.02.96-2.21 5.98-5.19 8.4-5.54zm9.4 24.95c2.46-2.91 2.41-9.89 2.01-13.6-.57-5.3-4.19-5.97-8.87-5.44-4.4.49-5.5 4.65-5.8 8.5-.12 1.55-.02 4.64.05 6.24.31 6.45 9.05 8.51 12.61 4.3zm-15.72-1.01V11.36c0-.21.93-1.31 0-1.31-1.12 3.76-1.17 7.86-1.1 11.79l1.09 3.23zM188.26 47.19c2.68-2.65 11.6-3.34 14.71-1.59 2.82 1.59 2.05 6.45-1.06 6.35-2.73-.08-10.25-3.71-8.89 3.18.57 2.88 9.88 2.63 11.81 8.52 2.36 7.21-.81 13.49-8.61 14.19-4.74.43-14.67-.78-9.24-7.32 1.45-.71 3.27.57 4.81.84 3.42.62 7.55.18 6.33-4.42-1.01-3.8-9.57-3.06-11.59-7.99-1.41-3.43-1.03-9.06 1.72-11.78zm7.41 27.67c-1.47-.44-3.34-.15-4.7-.4-.96-.17-1.45-1.18-2.47-1.11 1.04 1.58 3.34 1.81 5.07 1.89.45.02 2.09.27 2.09-.39zM85.56 57.93c3.21-1.17 6.83-1.88 8.85 1.52 1.05.25 2.09-4.05 6.61-3.21 2.94.55 4.27 2.38 4.52 5.26s-.14 7.87-.4 10.9c-.18 2.09-.32 5.63-3.17 5.45-4.09-.26-1.86-7.42-1.73-9.95.19-3.64.68-9.98-4.16-4.89-2.04 2.14-.71 3.11-.78 5.23-.02.57-.34 1.2-.36 1.9-.04 1.47.44 6.27-.51 7-.31.24-3.7.78-4.17.72-2.88-.36-.69-7.19-.57-9.2.05-.75.08-6.61-.59-6.59-3.07 1.05-4.14 4.76-4.35 7.69-.12 1.73.68 6.01.2 6.97s-3.18.92-4.14.74c-2.39-.45-.98-3.83-.94-5.42.12-4.95-.26-9.93.15-14.87.75-2.32 5.41-2 5.52.75zM279.72 56.13l.28 2.21c-1.14 2.4-4.75 18.14-5.89 18.95-.88.63-3.53.6-4.34-.18-.33-.32-2.75-6.11-3.1-7.05-.38-1-.78-2.02-.85-3.1-2 1.54-3.43 8.7-4.91 9.94-1.04.87-3.78.96-4.73-.14-.61-.71-2.71-8.58-3.06-10.1-.53-2.31-1.5-6.31-1.62-8.54-.03-.57-.15-1.53.36-1.89 1.18-.21 4.16-.61 4.74.59l2.83 12.39c.76-.34 1.03-1.54 1.3-2.27 1.3-3.52 2.28-7.21 3.27-10.83 5.3-1.18 4.7 3.93 5.71 7.54.53 1.87 1.32 3.67 1.78 5.55.6-.07.58-.56.71-.98 1.27-3.87 2.04-7.97 3.02-11.92.61-1 3.39 0 4.5-.2zM3.82 49.07c3.16-3.72 9.74-4.5 14.31-3.43 2.1.49 2.92 2.52 2.29 4.47-1.28 3.99-5.31 1.43-8.23 1.87-1.95.29-4.17 2.53-4.57 4.46-.49 2.34-.56 10.38.58 12.24 1.39 2.27 4.27 3.26 6.83 2.64 2.01-.48 3.09-3.39 5.03-.18.88 1.45 1.5 3.61-.02 4.8-3.55 2.78-11.86 2.32-15.41-.33-6.4-4.77-5.69-20.8-.81-26.54zM132.48 26.19c.7.14.74-.18 1.04-.65.76-1.2 1.95-5.02 2.45-6.57 1.19-3.72.32-7.98 5.86-6.22l2.9 12.32c2.11-4.13 3.57-8.63 4.76-13.1l4.43.39c.34.62.43 1.2.36 1.91-.52 5.35-4.33 12.37-5.01 17.96-5.18 5.85-8.29-4.69-9.25-8.65-.88-.19-.6.12-.84.48-1.17 1.79-3.31 8.87-4.16 9.56-1.05.86-4.51.43-5.41-.62-1.08-1.26-.68-3.86-1-5.39-.8-3.83-2.68-8.78-2.89-12.55-.05-.83-.01-1.58.41-2.32l3.47-.74c1.77.35 1.57 6.94 1.79 8.71s.59 3.7 1.09 5.49zm16.21.75c.72-3.18 2.46-6.05 2.64-9.39l-2.45 6.01c-.07.83-1.19 2.82-.19 3.38zM63.66 74.48v12.96c0 1.23-5.86 1.62-6.03-.38l.56-30.99c.45-.59 2.91-.47 3.7-.29.98.22 1.62 1.31 2.02 1.38.33.06 1.47-.96 2.58-1.1 4.41-.55 8.8 1.45 9.27 6.19.23 2.35-.05 8.11-1.21 10.1-2.12 3.65-7.37 2.96-10.88 2.12zm0-4.51c1.74.08 3.36.9 5.05-.04 2.32-1.29 2.31-7.99-.51-8.82-1.27-.37-4.54.43-4.54 1.91v6.95zm-2.64 13.52c.03-4.69-.02-9.4-.01-14.1 0-.8.4-1.53.39-2.24 0-1.53-.61-3.77-.57-5.45-1 0-.39 13.47-.58 14.86l.77 6.93zm7.92-10.52c3.53-.03 4.63-2.39 4.14-5.63l-1.12 3.58-3.02 2.05zM159.03 44.86l.06 15.72 8.26-7.72c1.4-.35 2.73 3.22 2.53 3.97-.7 2.56-5.47 3.42-5.53 5.42-.07 2.34 3.34 7.88 4.76 9.95 1.02 1.49 2.54 1.44 1.89 3.81-.44 1.59-5.28 1.71-6.43.34L160 65.82l-1.3.65c-.26 1.28.32 2.52.39 3.69.03.54-.34 1.12-.29 1.79.12 1.59 1.77 3.59-.36 4.7-1.51.79-4.65 2.13-5.22-.28l.19-30.94c.12-.57 5.15-1.31 5.63-.57zm-2.97 10.84l.38-7.51-.77 3.55.39 3.96zM49.79 33.61c-1.53.82-3.34.51-4.92.1l-.45-.7c.38-6.95.09-13.95.16-20.92 0-.9.42-1.72.42-2.61.01-1.71-1.38-7.73.35-8.63 1.17-.61 4.68-.65 4.9 1.14l-.76 11.61.74.39c2.07-1.73 5.21-2.22 7.76-1.34 5.07 1.76 3.46 11.13 3.19 15.23s1.25 7.11-4.75 5.48c-1.39-1.06.04-8.7-.2-11.07-.27-2.66-1.48-6.93-4.85-4.17-2.97 2.44-.66 14.57-1.61 15.48zm-2.93-4.79c.84-.22.73-1.01.77-1.67.14-1.82-.32-4.39-.4-6.41-.02-.46.28-1.39-.38-1.31v9.39zM29.72 57.58c3.88-1.52 8.01-3.14 10.87 1s1.17 8.58.8 13.07c-.09 1.15.37 5.18-.34 5.68-8.03-.11-4.87-2.42-4.56-7.54.12-1.91.07-8.59-2.46-8.83l-3.96 1.76c-.6 4.11-.1 7.52.42 11.56.12.97.91 1.17.32 2.21-1.16 2.04-4.67 1.64-6.21.25l.76-31.58.27-.66c3.47-.16 5.2-2.62 4.83 2.37-.1 1.35-.66 2.71-.76 4.12-.15 2.14.14 4.43.02 6.59zm-2.64-8.83c-.45 3.91.33 8.59 0 12.58l.77-6.18-.02-7.72c-.4-.14-.73 1.16-.75 1.31zm0 14.46v11.27c1.15.35.8-1.32.77-2.08-.04-1.07-.38-1.98-.41-2.97-.05-1.63.08-3.27.02-4.9-.02-.46.29-1.39-.38-1.31zM216.36 44.11c-.29 4.47-1.07 8.91-.7 13.47 4.78-2.22 9.85-2.9 11.79 3.09 1.45 4.47-.1 7.51-.34 11.81-.06 1.07.93 4.52-.39 4.96-.68.23-3.62-.48-4.39-.78-1.99-.79-.37-3.03-.26-4.23.47-4.83.94-16.01-6.38-9.34.24 2.1-.19 4.19-.04 6.32.1 1.52 1.39 6.42.95 7.32-.82 1.7-5.65 1.45-6.17-.26l.74-31.43c.22-.66 4.78-1.59 5.18-.94zm-3.72 17.22l.76-1.3.36-12.59c-.64 0-.72 1.25-.75 1.69-.32 4.01.15 8.19-.37 12.21zm.75 10.71c-.16-2.8.11-5.65 0-8.45h-.37c.14.47-.38 1.09-.38 1.31v5.63c0 .83.79 2.72.38 3.94 1.65.26.4-1.92.38-2.44zM221.99 32.07c-2.56-2.36-2.91-7.31-2.77-10.57.22-4.96 1.59-10.01 7.7-9.17 1.36.19 2.33 1.32 3.58.67l-.1-11.51c.41-1.01 3.76-1.51 4.79-1.16 1.99.67.31 7.07.29 8.8-.05 5.04.54 10.66.35 15.75-.05 1.26-.58 5.03-1.06 6.08-1.62 3.56-10.03 3.63-12.78 1.1zm11.18-6.63c.03-5.61 1.2-11.93.77-17.48-.08-1-.19-3.03-1.14-3.55.3 1.21-.38 2.51-.38 3.57.01 5.12.65 9.21.36 14.63-.03.61-.28 2.58.39 2.83zm-7.91-10.89c-3.11-.14-3.66 2.71-3.39 5.25l1.11-3.21 2.28-2.05zm4.05 14.93c1.17-1.07 1.54-9.62 1.22-11.35-.37-1.96-3.25-1.54-4.5-.75-2.93 1.86-2.58 10.78.16 12.6.76.5 2.53.04 3.13-.5zM136.83 59.08c4.77-4.79 11.19-3.23 11.7 3.93.15 2.05-.44 3.76-.42 5.65.02 1.78 1.25 7.78-.19 8.79-1.03.72-4.75.29-5.26-.72-.76-4.34.67-8.64-.21-12.94-.92-4.52-5.23-.22-5.61 1.87-.53 2.85 1.14 9.53.18 11.44-.76 1.52-5.2 1.23-6.43 0l.26-20.04c2.14-1.85 6.55-1.8 5.98 2zm-3.02 13.15v-9.39c-.24-.03-.75.5-.75.56v6.39c0 .41.76 1.63.38 2.44h.37zM41.15 1.46c.22.14.75 3.4.7 3.85-.36 3.08-7.05.63-7.45 1.98-1.68 8.59.05 17.32-.41 25.99-2.13.51-6.74 1.19-6.74-2.01-.33-3.04 1.45-22.8.37-23.84-1.21-.3-2.44.43-3.56.38-3.37-.13-5.35-5.97-1.91-6.43 4.15-.55 8.7.36 12.82.41 2.17.03 4.07-.5 6.19-.34zm-10.13 28.3c.46-2.89 0-8.08 0-11.27 0-.76.26-1.84 0-2.82h-.37c.14.47-.38 1.09-.38 1.31v13.71c.33.15.7-.62.75-.94zM204.14 15.68c2.79-3.57 9.72-4.23 10.84 1.03.81 3.8.19 7.72.47 11.55.17 2.35 2.56 6.58-2.28 5.68-2.12-.4-3.78-1.57-3.79-3.8-.03-3.59 1.49-8.08-.58-11.48-1.94-.41-4.91 2.72-5.28 4.52-.22 1.09.44 5.15.63 6.56.14 1.03 1.41 2.36.26 3.5-.71.71-5.93.87-6.51-.28V13.79l.82-1.51 4.79.45.56.56.06 2.39zm-3.78 2.44v5.82l.77-5.05-.02-3.21-.75 2.44zM237.05 56.16c3.55-.72 9.25.35 11.12 3.78s1.79 10.58.7 14.37c-.74 2.54-2.14 3.34-4.72 3.56-4.74.42-12.35-.33-13.03-6.21-.57-4.98-.28-14.25 5.93-15.5zm-1.03 4.43c-.75-.15-.91.34-1.21.86-1.33 2.29-1.66 9.49-.24 11.66.3.46.99 1.44 1.45.81-2.19-3.62-1.04-9.43 0-13.33zm3.28.82c-1.61.49-2.5 7.95-2.07 9.43.37 1.24 3.67 3.12 4.94 2.83.76-.18 1.91-2.08 2.06-2.84s.4-5.01.3-5.76c-.35-2.58-2.58-4.47-5.23-3.66zM194.65 33.27c-1.64.63-3.24 1.91-5 .77-.63-.41-.69-1.46-1.47-1.42-3.37 2.46-9.87 1.57-10.45-3.23-.19-1.56.05-6.15.8-7.48 1.22-2.16 5.79-1.44 7.7-1.73 1.03-.16.58-1.11.37-1.89-1.29-4.81-7.73 1.93-8.42-2.51-.65-4.16 8.73-4.15 11.33-3.02.59.26 1.78 1.44 2.17 1.97 2.49 3.43.77 7.09 1.14 10.89.15 1.56 2.25 6.98 1.82 7.65zm-4.47-7.45v-6.95c0-.08-.35-1.46-.75-1.31l-.02 2.08.77 6.18zm-3.01-1.88c-1.01.11-2.24-.17-3.2.01-2.35.45-2.72 6.97 1.25 5.75 2.85-.87 1.78-3.46 1.95-5.76zM71 23.94c.13 2.39 1.56 4.13 3.99 4.49 2.23.33 4.55-1.69 4.99 1.44.69 4.97-8.48 4.89-11.6 2.88-4.47-2.87-3.18-6.95-3-11.25.04-.98-.44-1.85-.42-2.64.02-1.38 1.75-4.92 3.13-5.52 2.98-1.3 7.47-1.89 10.27.09 2.58 1.82 3.07 7.75.55 9.57-.25.18-1.93.95-2.06.95H71zm4.77-7c-2.71-2.63-4.59.91-4.01 3.62 2.51.76 6.64-1.08 4.01-3.62zm-7.79 10v-6.95c0-.47.96-2.93.75-3.19-.45-.02-1.13 1.45-1.13 1.69v8.45h.38zM115.62 56.54c.82.79-.2 3.12-.28 4.23-.17 2.27-.5 5.72-.38 7.88.08 1.47.51 4.9 2.21 5.27.47.1 2.68-.73 2.96-1.03 2.33-2.51.23-12.23.53-15.63 1.31-.49 4.16-2.15 5.03-.42 1.22 2.42.56 5.43.56 8.08 0 .89.42 1.7.41 2.6-.01 1.34-.66 5.1-1.23 6.31-2.45 5.18-14.57 5.66-15.66-.37-.54-2.97-1-8.96-.84-11.92.04-.77.71-4.08 1.1-4.55 1.01-.64 4.71-1.28 5.6-.44zm-2.93 17.94c-1.05-4.03-.33-7.76-.38-11.83l-.75-3.57c-.5 2.62-.51 5.4-.38 8.07.07 1.46.26 3.74.46 5.17.06.44.48 2.05 1.04 2.15zm11.69-14.27c-1.13-.3-.79.92-.77 1.71.03 1.18.43 2.22.43 3.36 0 1.63-.73 3.34-.41 5.07.35.02.75-1.95.75-2.06v-8.08zM162.94 33.25c-.21.17-4.99 1.14-5.23.3-.65-.83-.35-10.83-.36-12.82-.02-4.55-.29-9.33-.22-13.94.02-1.26.08-5.59.83-6.11 2.06-1.42 4.39-.56 4.69 2.03.86 7.38-.92 16.04-.4 23.69.09 1.35 1.41 6.25.68 6.85zM46.78 77.02l-.11-19.97c8.29-3.07 5.54 2.67 5.29 7.45-.22 4-.02 8.06.73 11.97-1.57 1.69-3.95 1.64-5.91.54zm2.17-11.18v-5.63c-.49-.1-.63.73-.68 1.05-.13.97-.34 4.17.68 4.59zM52.26 53.35c-.72.72-4.72.2-5.23-.43-.72-.91-.52-4.39.57-5.14.89-.61 4.12-.73 4.94.02.98.89.55 4.72-.29 5.55z" fill="#fff"/></svg>