<svg xmlns="http://www.w3.org/2000/svg" width="260" height="113" viewBox="0 0 260 113"><circle cx="24.75" cy="20.39" r="0.79" fill="#fff"/><circle cx="6.21" cy="20.39" r="0.79" fill="#fff"/><circle cx="35.41" cy="20.39" r="0.79" fill="#fff"/><circle cx="79.96" cy="17.05" r="0.79" fill="#fff"/><circle cx="92.18" cy="16.57" r="0.79" fill="#fff"/><circle cx="92.18" cy="23.94" r="0.79" fill="#fff"/><circle cx="105.68" cy="23.94" r="0.79" fill="#fff"/><circle cx="58.62" cy="20.39" r="0.79" fill="#fff"/><circle cx="58.62" cy="20.39" r="0.79" fill="#fff"/><circle cx="36.2" cy="6.37" r="0.79" fill="#fff"/><circle cx="6.21" cy="2.39" r="0.79" fill="#fff"/><circle cx="47.12" cy="6.37" r="0.79" fill="#fff"/><circle cx="60.82" cy="6.37" r="0.79" fill="#fff"/><circle cx="81.07" cy="6.37" r="0.79" fill="#fff"/><ellipse cx="23.96" cy="9.48" rx="1.59" ry="1.59" fill="#fff"/><ellipse cx="23.96" cy="5.54" rx="1.59" ry="1.59" fill="#fff"/><ellipse cx="23.96" cy="13.42" rx="1.59" ry="1.59" fill="#fff"/><ellipse cx="23.96" cy="17.37" rx="1.59" ry="1.59" fill="#fff"/><ellipse cx="35.41" cy="9.48" rx="1.59" ry="1.59" fill="#fff"/><ellipse cx="35.41" cy="13.42" rx="1.59" ry="1.59" fill="#fff"/><ellipse cx="35.41" cy="17.37" rx="1.59" ry="1.59" fill="#fff"/><ellipse cx="39.2" cy="9.48" rx="1.59" ry="1.59" fill="#fff"/><ellipse cx="39.2" cy="5.54" rx="1.59" ry="1.59" fill="#fff"/><ellipse cx="50.17" cy="5.54" rx="1.59" ry="1.59" fill="#fff"/><ellipse cx="53.95" cy="5.54" rx="1.59" ry="1.59" fill="#fff"/><ellipse cx="39.2" cy="13.42" rx="1.59" ry="1.59" fill="#fff"/><ellipse cx="39.2" cy="17.37" rx="1.59" ry="1.59" fill="#fff"/><ellipse cx="57.82" cy="9.48" rx="1.59" ry="1.59" fill="#fff"/><ellipse cx="57.82" cy="5.54" rx="1.59" ry="1.59" fill="#fff"/><ellipse cx="57.82" cy="13.42" rx="1.59" ry="1.59" fill="#fff"/><ellipse cx="57.82" cy="17.37" rx="1.59" ry="1.59" fill="#fff"/><ellipse cx="39.2" cy="21.19" rx="1.59" ry="1.59" fill="#fff"/><ellipse cx="5.41" cy="9.48" rx="1.59" ry="1.59" fill="#fff"/><ellipse cx="1.59" cy="9.48" rx="1.59" ry="1.59" fill="#fff"/><ellipse cx="5.41" cy="13.42" rx="1.59" ry="1.59" fill="#fff"/><ellipse cx="5.41" cy="17.37" rx="1.59" ry="1.59" fill="#fff"/><ellipse cx="9.2" cy="9.48" rx="1.59" ry="1.59" fill="#fff"/><ellipse cx="12.9" cy="9.48" rx="1.59" ry="1.59" fill="#fff"/><ellipse cx="12.9" cy="1.59" rx="1.59" ry="1.59" fill="#fff"/><ellipse cx="16.69" cy="1.59" rx="1.59" ry="1.59" fill="#fff"/><ellipse cx="9.2" cy="5.54" rx="1.59" ry="1.59" fill="#fff"/><ellipse cx="5.41" cy="5.54" rx="1.59" ry="1.59" fill="#fff"/><ellipse cx="9.2" cy="1.59" rx="1.59" ry="1.59" fill="#fff"/><ellipse cx="9.2" cy="13.42" rx="1.59" ry="1.59" fill="#fff"/><ellipse cx="9.2" cy="17.37" rx="1.59" ry="1.59" fill="#fff"/><ellipse cx="9.2" cy="21.19" rx="1.59" ry="1.59" fill="#fff"/><ellipse cx="68.9" cy="9.48" rx="1.59" ry="1.59" fill="#fff"/><ellipse cx="68.9" cy="5.54" rx="1.59" ry="1.59" fill="#fff"/><ellipse cx="68.9" cy="1.59" rx="1.59" ry="1.59" fill="#fff"/><ellipse cx="68.9" cy="13.42" rx="1.59" ry="1.59" fill="#fff"/><ellipse cx="68.9" cy="17.37" rx="1.59" ry="1.59" fill="#fff"/><ellipse cx="68.9" cy="21.19" rx="1.59" ry="1.59" fill="#fff"/><ellipse cx="106.47" cy="9.48" rx="1.59" ry="1.59" fill="#fff"/><ellipse cx="106.47" cy="5.54" rx="1.59" ry="1.59" fill="#fff"/><ellipse cx="106.47" cy="13.42" rx="1.59" ry="1.59" fill="#fff"/><ellipse cx="106.47" cy="17.37" rx="1.59" ry="1.59" fill="#fff"/><ellipse cx="136.45" cy="9.48" rx="1.59" ry="1.59" fill="#fff"/><ellipse cx="136.45" cy="13.42" rx="1.59" ry="1.59" fill="#fff"/><ellipse cx="136.45" cy="17.37" rx="1.59" ry="1.59" fill="#fff"/><ellipse cx="106.47" cy="21.19" rx="1.59" ry="1.59" fill="#fff"/><ellipse cx="173.83" cy="5.6" rx="1.59" ry="1.59" fill="#fff"/><ellipse cx="170.04" cy="5.6" rx="1.59" ry="1.59" fill="#fff"/><ellipse cx="173.83" cy="1.65" rx="1.59" ry="1.59" fill="#fff"/><ellipse cx="173.83" cy="9.54" rx="1.59" ry="1.59" fill="#fff"/><ellipse cx="173.83" cy="13.48" rx="1.59" ry="1.59" fill="#fff"/><ellipse cx="173.83" cy="17.31" rx="1.59" ry="1.59" fill="#fff"/><ellipse cx="177.63" cy="5.6" rx="1.59" ry="1.59" fill="#fff"/><ellipse cx="181.35" cy="5.6" rx="1.59" ry="1.59" fill="#fff"/><ellipse cx="177.63" cy="1.65" rx="1.59" ry="1.59" fill="#fff"/><ellipse cx="177.63" cy="9.54" rx="1.59" ry="1.59" fill="#fff"/><ellipse cx="177.63" cy="13.48" rx="1.59" ry="1.59" fill="#fff"/><ellipse cx="177.63" cy="17.31" rx="1.59" ry="1.59" fill="#fff"/><ellipse cx="177.63" cy="21.19" rx="1.59" ry="1.59" fill="#fff"/><ellipse cx="46.33" cy="9.48" rx="1.59" ry="1.59" fill="#fff"/><ellipse cx="46.33" cy="13.42" rx="1.59" ry="1.59" fill="#fff"/><ellipse cx="46.33" cy="17.37" rx="1.59" ry="1.59" fill="#fff"/><ellipse cx="46.33" cy="21.19" rx="1.59" ry="1.59" fill="#fff"/><ellipse cx="61.61" cy="9.48" rx="1.59" ry="1.59" fill="#fff"/><ellipse cx="80.28" cy="9.48" rx="1.59" ry="1.59" fill="#fff"/><ellipse cx="80.28" cy="20.39" rx="1.59" ry="1.59" fill="#fff"/><ellipse cx="80.28" cy="13.42" rx="1.59" ry="1.59" fill="#fff"/><ellipse cx="84.06" cy="9.48" rx="1.59" ry="1.59" fill="#fff"/><ellipse cx="84.06" cy="20.91" rx="1.59" ry="1.59" fill="#fff"/><ellipse cx="84.06" cy="5.54" rx="1.59" ry="1.59" fill="#fff"/><ellipse cx="61.61" cy="13.42" rx="1.59" ry="1.59" fill="#fff"/><circle cx="94.66" cy="6.37" r="0.79" fill="#fff"/><circle cx="114.38" cy="6.37" r="0.79" fill="#fff"/><circle cx="137.25" cy="6.37" r="0.79" fill="#fff"/><circle cx="150.81" cy="6.37" r="0.79" fill="#fff"/><circle cx="150.81" cy="12.63" r="0.79" fill="#fff"/><circle cx="150.81" cy="20.12" r="0.79" fill="#fff"/><circle cx="159.41" cy="20.12" r="0.79" fill="#fff"/><circle cx="174.34" cy="20.12" r="0.79" fill="#fff"/><circle cx="161.96" cy="10" r="0.79" fill="#fff"/><circle cx="137.25" cy="20.12" r="0.79" fill="#fff"/><circle cx="128.38" cy="21.71" r="0.79" fill="#fff"/><ellipse cx="91.66" cy="9.48" rx="1.59" ry="1.59" fill="#fff"/><ellipse cx="91.66" cy="5.54" rx="1.59" ry="1.59" fill="#fff"/><ellipse cx="91.66" cy="13.42" rx="1.59" ry="1.59" fill="#fff"/><ellipse cx="95.45" cy="9.48" rx="1.59" ry="1.59" fill="#fff"/><ellipse cx="95.45" cy="13.42" rx="1.59" ry="1.59" fill="#fff"/><ellipse cx="61.61" cy="17.37" rx="1.59" ry="1.59" fill="#fff"/><ellipse cx="72.81" cy="17.37" rx="1.59" ry="1.59" fill="#fff"/><ellipse cx="76.6" cy="13.42" rx="1.59" ry="1.59" fill="#fff"/><ellipse cx="76.6" cy="17.37" rx="1.59" ry="1.59" fill="#fff"/><ellipse cx="95.39" cy="24.74" rx="1.59" ry="1.59" fill="#fff"/><ellipse cx="99.3" cy="24.74" rx="1.59" ry="1.59" fill="#fff"/><ellipse cx="103.09" cy="24.74" rx="1.59" ry="1.59" fill="#fff"/><ellipse cx="102.91" cy="18.8" rx="1.59" ry="1.59" fill="#fff"/><ellipse cx="95.45" cy="17.37" rx="1.59" ry="1.59" fill="#fff"/><ellipse cx="99.24" cy="17.37" rx="1.59" ry="1.59" fill="#fff"/><ellipse cx="117.84" cy="5.54" rx="1.59" ry="1.59" fill="#fff"/><ellipse cx="121.63" cy="5.54" rx="1.59" ry="1.59" fill="#fff"/><ellipse cx="125.43" cy="5.54" rx="1.59" ry="1.59" fill="#fff"/><ellipse cx="129.22" cy="5.54" rx="1.59" ry="1.59" fill="#fff"/><ellipse cx="140.26" cy="5.54" rx="1.59" ry="1.59" fill="#fff"/><ellipse cx="144.06" cy="5.54" rx="1.59" ry="1.59" fill="#fff"/><ellipse cx="147.85" cy="5.54" rx="1.59" ry="1.59" fill="#fff"/><ellipse cx="140.26" cy="21.19" rx="1.59" ry="1.59" fill="#fff"/><ellipse cx="144.06" cy="21.19" rx="1.59" ry="1.59" fill="#fff"/><ellipse cx="147.85" cy="21.19" rx="1.59" ry="1.59" fill="#fff"/><ellipse cx="125.43" cy="9.48" rx="1.59" ry="1.59" fill="#fff"/><ellipse cx="129.22" cy="9.48" rx="1.59" ry="1.59" fill="#fff"/><ellipse cx="121.63" cy="13.42" rx="1.59" ry="1.59" fill="#fff"/><ellipse cx="125.41" cy="13.42" rx="1.59" ry="1.59" fill="#fff"/><ellipse cx="117.84" cy="17.05" rx="1.59" ry="1.59" fill="#fff"/><ellipse cx="140.3" cy="17.05" rx="1.59" ry="1.59" fill="#fff"/><ellipse cx="158.91" cy="9.48" rx="1.59" ry="1.59" fill="#fff"/><ellipse cx="158.91" cy="1.79" rx="1.59" ry="1.59" fill="#fff"/><ellipse cx="158.91" cy="13.42" rx="1.59" ry="1.59" fill="#fff"/><ellipse cx="158.91" cy="17.37" rx="1.59" ry="1.59" fill="#fff"/><ellipse cx="162.76" cy="17.37" rx="1.59" ry="1.59" fill="#fff"/><ellipse cx="162.76" cy="13.42" rx="1.59" ry="1.59" fill="#fff"/><ellipse cx="162.76" cy="21.19" rx="1.59" ry="1.59" fill="#fff"/><ellipse cx="250.37" cy="5.6" rx="1.59" ry="1.59" fill="#fff"/><ellipse cx="246.57" cy="5.6" rx="1.59" ry="1.59" fill="#fff"/><ellipse cx="250.37" cy="1.65" rx="1.59" ry="1.59" fill="#fff"/><ellipse cx="250.37" cy="9.54" rx="1.59" ry="1.59" fill="#fff"/><ellipse cx="250.37" cy="13.48" rx="1.59" ry="1.59" fill="#fff"/><ellipse cx="250.37" cy="17.31" rx="1.59" ry="1.59" fill="#fff"/><ellipse cx="254.16" cy="5.6" rx="1.59" ry="1.59" fill="#fff"/><ellipse cx="257.88" cy="5.6" rx="1.59" ry="1.59" fill="#fff"/><ellipse cx="254.16" cy="1.65" rx="1.59" ry="1.59" fill="#fff"/><ellipse cx="254.16" cy="9.54" rx="1.59" ry="1.59" fill="#fff"/><ellipse cx="254.16" cy="13.48" rx="1.59" ry="1.59" fill="#fff"/><ellipse cx="254.16" cy="17.31" rx="1.59" ry="1.59" fill="#fff"/><ellipse cx="254.16" cy="21.19" rx="1.59" ry="1.59" fill="#fff"/><circle cx="235.95" cy="20.12" r="0.79" fill="#fff"/><circle cx="250.87" cy="20.12" r="0.79" fill="#fff"/><circle cx="238.5" cy="10" r="0.79" fill="#fff"/><ellipse cx="235.44" cy="9.48" rx="1.59" ry="1.59" fill="#fff"/><ellipse cx="235.44" cy="1.79" rx="1.59" ry="1.59" fill="#fff"/><ellipse cx="235.44" cy="13.42" rx="1.59" ry="1.59" fill="#fff"/><ellipse cx="235.44" cy="17.37" rx="1.59" ry="1.59" fill="#fff"/><ellipse cx="239.29" cy="17.37" rx="1.59" ry="1.59" fill="#fff"/><ellipse cx="239.29" cy="13.42" rx="1.59" ry="1.59" fill="#fff"/><ellipse cx="239.29" cy="21.19" rx="1.59" ry="1.59" fill="#fff"/><ellipse cx="144.06" cy="15.02" rx="1.59" ry="1.59" fill="#fff"/><ellipse cx="147.66" cy="13.42" rx="1.59" ry="1.59" fill="#fff"/><ellipse cx="147.66" cy="9.48" rx="1.59" ry="1.59" fill="#fff"/><ellipse cx="151.6" cy="9.48" rx="1.59" ry="1.59" fill="#fff"/><ellipse cx="121.63" cy="17.05" rx="1.59" ry="1.59" fill="#fff"/><ellipse cx="114.05" cy="20.91" rx="1.59" ry="1.59" fill="#fff"/><ellipse cx="117.84" cy="20.91" rx="1.59" ry="1.59" fill="#fff"/><ellipse cx="121.63" cy="20.91" rx="1.59" ry="1.59" fill="#fff"/><ellipse cx="125.41" cy="20.91" rx="1.59" ry="1.59" fill="#fff"/><ellipse cx="61.61" cy="21.19" rx="1.59" ry="1.59" fill="#fff"/><circle cx="225.29" cy="20.39" r="0.79" fill="#fff"/><circle cx="225.29" cy="20.39" r="0.79" fill="#fff"/><circle cx="227.49" cy="6.37" r="0.79" fill="#fff"/><ellipse cx="216.84" cy="5.54" rx="1.59" ry="1.59" fill="#fff"/><ellipse cx="213.19" cy="5.54" rx="1.59" ry="1.59" fill="#fff"/><ellipse cx="220.62" cy="5.54" rx="1.59" ry="1.59" fill="#fff"/><ellipse cx="224.49" cy="9.48" rx="1.59" ry="1.59" fill="#fff"/><ellipse cx="224.49" cy="5.54" rx="1.59" ry="1.59" fill="#fff"/><ellipse cx="224.49" cy="13.42" rx="1.59" ry="1.59" fill="#fff"/><ellipse cx="224.49" cy="17.37" rx="1.59" ry="1.59" fill="#fff"/><ellipse cx="216.84" cy="9.48" rx="1.59" ry="1.59" fill="#fff"/><ellipse cx="216.84" cy="13.42" rx="1.59" ry="1.59" fill="#fff"/><ellipse cx="216.84" cy="17.37" rx="1.59" ry="1.59" fill="#fff"/><ellipse cx="216.84" cy="21.19" rx="1.59" ry="1.59" fill="#fff"/><circle cx="210" cy="6.37" r="0.79" fill="#fff"/><ellipse cx="209.21" cy="9.48" rx="1.59" ry="1.59" fill="#fff"/><ellipse cx="209.21" cy="13.42" rx="1.59" ry="1.59" fill="#fff"/><ellipse cx="209.21" cy="17.37" rx="1.59" ry="1.59" fill="#fff"/><ellipse cx="209.21" cy="21.19" rx="1.59" ry="1.59" fill="#fff"/><ellipse cx="228.28" cy="9.48" rx="1.59" ry="1.59" fill="#fff"/><ellipse cx="228.28" cy="13.42" rx="1.59" ry="1.59" fill="#fff"/><ellipse cx="228.28" cy="17.37" rx="1.59" ry="1.59" fill="#fff"/><ellipse cx="228.28" cy="21.19" rx="1.59" ry="1.59" fill="#fff"/><ellipse cx="31.82" cy="21.19" rx="1.59" ry="1.59" fill="#fff"/><ellipse cx="27.89" cy="21.19" rx="1.59" ry="1.59" fill="#fff"/><path d="M256.53,34H4A3.49,3.49,0,0,0,.55,37.49v71.43A3.49,3.49,0,0,0,4,112.41H256.53a3.49,3.49,0,0,0,3.47-3.49V37.49A3.49,3.49,0,0,0,256.53,34ZM233.38,59.64a1.7,1.7,0,1,1-1.69,1.7A1.7,1.7,0,0,1,233.38,59.64Zm-6.75,13.3a3.39,3.39,0,1,1-3.37,3.39A3.38,3.38,0,0,1,226.63,72.94Zm-3.37-5a3.38,3.38,0,1,1,3.37,3.39A3.38,3.38,0,0,1,223.26,67.94Zm-37.54-8.3a1.7,1.7,0,1,1-1.68,1.7A1.7,1.7,0,0,1,185.72,59.64Zm-113,0A1.7,1.7,0,1,1,71,61.34,1.7,1.7,0,0,1,72.69,59.64Zm-18.32-.08a1.69,1.69,0,1,1-1.69,1.69A1.68,1.68,0,0,1,54.37,59.56ZM25.17,92.84a1.7,1.7,0,1,1,1.69-1.7A1.7,1.7,0,0,1,25.17,92.84ZM23.48,88.1a3.39,3.39,0,1,1,3.38-3.39A3.38,3.38,0,0,1,23.48,88.1Zm0-8.39a3.39,3.39,0,1,1,3.38-3.38A3.37,3.37,0,0,1,23.48,79.71Zm0-8.38a3.39,3.39,0,1,1,3.38-3.39A3.38,3.38,0,0,1,23.48,71.33Zm0-8.39a3.39,3.39,0,1,1,3.38-3.38A3.37,3.37,0,0,1,23.48,62.94Zm0-8.38a3.39,3.39,0,1,1,3.38-3.39A3.38,3.38,0,0,1,23.48,54.56ZM31,96.22a3.39,3.39,0,1,1,3.38-3.38A3.37,3.37,0,0,1,31,96.22Zm.48-29.89a3.39,3.39,0,1,1,3.37-3.39A3.38,3.38,0,0,1,31.47,66.33Zm7.87,29.89a3.39,3.39,0,1,1,3.37-3.38A3.37,3.37,0,0,1,39.34,96.22Zm0-33.28a3.39,3.39,0,1,1,3.37-3.38A3.37,3.37,0,0,1,39.34,62.94Zm8.35,33.28a3.39,3.39,0,1,1,3.37-3.38A3.37,3.37,0,0,1,47.69,96.22Zm0-8.12a3.39,3.39,0,1,1,3.37-3.39A3.38,3.38,0,0,1,47.69,88.1Zm0-8.39a3.39,3.39,0,1,1,3.37-3.38A3.37,3.37,0,0,1,47.69,79.71Zm0-8.38a3.39,3.39,0,1,1,3.37-3.39A3.38,3.38,0,0,1,47.69,71.33Zm0-8.39a3.39,3.39,0,1,1,3.37-3.38A3.37,3.37,0,0,1,47.69,62.94Zm6.68,29.9a1.7,1.7,0,1,1,1.68-1.7A1.7,1.7,0,0,1,54.37,92.84Zm1.54-4.74a3.39,3.39,0,1,1,3.37-3.39A3.38,3.38,0,0,1,55.91,88.1Zm0-8.39a3.39,3.39,0,1,1,3.37-3.38A3.37,3.37,0,0,1,55.91,79.71Zm0-8.38a3.39,3.39,0,1,1,3.37-3.39A3.38,3.38,0,0,1,55.91,71.33ZM71,96.22a3.39,3.39,0,1,1,3.37-3.38A3.37,3.37,0,0,1,71,96.22Zm0-8.12a3.39,3.39,0,1,1,3.37-3.39A3.38,3.38,0,0,1,71,88.1Zm0-8.39a3.39,3.39,0,1,1,3.37-3.38A3.37,3.37,0,0,1,71,79.71Zm0-8.38a3.39,3.39,0,1,1,3.37-3.39A3.38,3.38,0,0,1,71,71.33Zm6.53,21.51a1.7,1.7,0,1,1,1.69-1.7A1.69,1.69,0,0,1,77.57,92.84Zm1.69-4.74a3.39,3.39,0,1,1,3.37-3.39A3.38,3.38,0,0,1,79.26,88.1Zm0-8.39a3.39,3.39,0,1,1,3.37-3.38A3.37,3.37,0,0,1,79.26,79.71Zm0-8.38a3.39,3.39,0,1,1,3.37-3.39A3.38,3.38,0,0,1,79.26,71.33Zm0-8.39a3.39,3.39,0,1,1,3.37-3.38A3.37,3.37,0,0,1,79.26,62.94Zm7.78,0a3.39,3.39,0,1,1,3.38-3.38A3.37,3.37,0,0,1,87,62.94Zm6.62,0a1.69,1.69,0,1,1,1.68-1.69A1.69,1.69,0,0,1,93.66,62.94ZM109,92.84a1.7,1.7,0,1,1,1.69-1.7A1.69,1.69,0,0,1,109,92.84Zm-1.68-4.74a3.39,3.39,0,1,1,3.37-3.39A3.38,3.38,0,0,1,107.35,88.1Zm0-8.39a3.39,3.39,0,1,1,3.37-3.38A3.37,3.37,0,0,1,107.35,79.71Zm0-8.38a3.39,3.39,0,1,1,3.37-3.39A3.38,3.38,0,0,1,107.35,71.33Zm0-8.39a3.39,3.39,0,1,1,3.37-3.38A3.37,3.37,0,0,1,107.35,62.94Zm8.36,33.28a3.39,3.39,0,1,1,3.37-3.38A3.38,3.38,0,0,1,115.71,96.22Zm8.35,0a3.39,3.39,0,1,1,3.37-3.38A3.38,3.38,0,0,1,124.06,96.22Zm7.64-3.38a1.7,1.7,0,1,1,1.68-1.7A1.7,1.7,0,0,1,131.7,92.84Zm0-4.74a3.39,3.39,0,1,1,3.37-3.39A3.38,3.38,0,0,1,131.7,88.1Zm0-8.39a3.39,3.39,0,1,1,3.37-3.38A3.37,3.37,0,0,1,131.7,79.71Zm0-8.38a3.39,3.39,0,1,1,3.37-3.39A3.38,3.38,0,0,1,131.7,71.33Zm1.68-8.3a1.7,1.7,0,1,1,1.69-1.69A1.69,1.69,0,0,1,133.38,63Zm6.37,33.19a3.39,3.39,0,1,1,3.37-3.38A3.37,3.37,0,0,1,139.75,96.22Zm0-8.12a3.39,3.39,0,1,1,3.37-3.39A3.38,3.38,0,0,1,139.75,88.1Zm0-8.39a3.39,3.39,0,1,1,3.37-3.38A3.37,3.37,0,0,1,139.75,79.71Zm0-8.38a3.39,3.39,0,1,1,3.37-3.39A3.38,3.38,0,0,1,139.75,71.33Zm0-8.39a3.39,3.39,0,1,1,3.37-3.38A3.37,3.37,0,0,1,139.75,62.94Zm15.16,33.28a3.39,3.39,0,1,1,3.37-3.38A3.37,3.37,0,0,1,154.91,96.22Zm0-8.12a3.39,3.39,0,1,1,3.37-3.39A3.38,3.38,0,0,1,154.91,88.1Zm0-8.39a3.39,3.39,0,1,1,3.37-3.38A3.37,3.37,0,0,1,154.91,79.71Zm0-8.38a3.39,3.39,0,1,1,3.37-3.39A3.38,3.38,0,0,1,154.91,71.33ZM156.6,63a1.7,1.7,0,1,1,1.68-1.69A1.69,1.69,0,0,1,156.6,63Zm6.47-.09a3.39,3.39,0,1,1,3.38-3.38A3.37,3.37,0,0,1,163.07,62.94Zm8.06,0a3.39,3.39,0,1,1,3.37-3.38A3.37,3.37,0,0,1,171.13,62.94ZM181,92.84a1.7,1.7,0,1,1,1.69-1.7A1.69,1.69,0,0,1,181,92.84Zm-1.68-4.74a3.39,3.39,0,1,1,3.37-3.39A3.38,3.38,0,0,1,179.36,88.1Zm0-8.39a3.39,3.39,0,1,1,3.37-3.38A3.38,3.38,0,0,1,179.36,79.71Zm0-8.38a3.39,3.39,0,1,1,3.37-3.39A3.38,3.38,0,0,1,179.36,71.33Zm0-8.39a3.39,3.39,0,1,1,3.37-3.38A3.38,3.38,0,0,1,179.36,62.94Zm8,33.28a3.39,3.39,0,1,1,3.37-3.38A3.37,3.37,0,0,1,187.41,96.22Zm0-8.12a3.39,3.39,0,1,1,3.37-3.39A3.38,3.38,0,0,1,187.41,88.1Zm0-8.39a3.39,3.39,0,1,1,3.37-3.38A3.37,3.37,0,0,1,187.41,79.71Zm0-8.38a3.39,3.39,0,1,1,3.37-3.39A3.38,3.38,0,0,1,187.41,71.33Zm16.84,21.51a1.7,1.7,0,1,1,1.69-1.7A1.69,1.69,0,0,1,204.25,92.84Zm-1.68-4.74a3.39,3.39,0,1,1,3.37-3.39A3.38,3.38,0,0,1,202.57,88.1Zm0-8.39a3.39,3.39,0,1,1,3.37-3.38A3.37,3.37,0,0,1,202.57,79.71Zm0-8.38a3.39,3.39,0,1,1,3.37-3.39A3.38,3.38,0,0,1,202.57,71.33Zm1.68-8.3a1.7,1.7,0,1,1,1.69-1.69A1.69,1.69,0,0,1,204.25,63Zm6.48,33.15a3.39,3.39,0,1,1,3.37-3.39A3.38,3.38,0,0,1,210.73,96.18Zm0-33.24a3.39,3.39,0,1,1,3.37-3.38A3.37,3.37,0,0,1,210.73,62.94Zm8.06,33.24a3.39,3.39,0,1,1,3.37-3.39A3.38,3.38,0,0,1,218.79,96.18Zm0-33.24a3.39,3.39,0,1,1,3.37-3.38A3.38,3.38,0,0,1,218.79,62.94Zm7.84,18.38a3.39,3.39,0,1,1-3.37,3.39A3.38,3.38,0,0,1,226.63,81.32ZM227,96.18a3.39,3.39,0,1,1,3.37-3.39A3.38,3.38,0,0,1,227,96.18Zm0-33.24a3.39,3.39,0,1,1,3.37-3.38A3.37,3.37,0,0,1,227,62.94Zm6.37,29.9a1.7,1.7,0,1,1,1.69-1.7A1.7,1.7,0,0,1,233.38,92.84Zm1.31-4.74a3.39,3.39,0,1,1,3.37-3.39A3.38,3.38,0,0,1,234.69,88.1Zm0-8.39a3.39,3.39,0,1,1,3.37-3.38A3.38,3.38,0,0,1,234.69,79.71Zm0-8.38a3.39,3.39,0,1,1,3.37-3.39A3.38,3.38,0,0,1,234.69,71.33Z" fill="#fff"/></svg>