<svg xmlns="http://www.w3.org/2000/svg" viewBox="0 0 260 95"><path fill="#fff" d="M100.98 19.16H85.72v8.78h3.29v4.11l-1.37 1.35h-6.26l-1.43-1.41V11.12l1.37-1.35h6.32l1.37 1.35v5.4h11.97V7.01L93.97.07H74.99l-6.94 6.88v29.22l6.94 6.87h18.98l7.01-7V19.16zM106.84 36.17l6.94 6.87h19.1l6.89-6.87V9.77h2.66V.07h-17.17v9.7h2.6v22.28l-1.36 1.35h-6.39l-1.36-1.35V9.77h2.6V.07h-17.11v9.7h2.6v26.4zM163.26 23.64v9.76h-2.54v9.64h17.05V33.4h-2.6v-9.76l14.01-13.87h3.54V.07h-20.03v9.7h.5l-3.91 3.81-3.91-3.81h.38V.07h-20.59v9.7h4.09l14.01 13.87zM0 61.66h2.6v23.63H0v9.64h19.53v-9.64h-5.02v-7h1.74v1.66h9.79V66.94h-9.79v1.65h-1.74v-6.93h7.63v1.72h9.73V51.96H0v9.7zM68.27 75.47l-2.85-2.82 2.85-2.76V58.84l-6.94-6.88H34.48v9.7h2.6v23.63h-2.6v9.64h17.11v-9.64h-2.6v-7.8H55l1.36 1.29v16.15h14.51v-9.64h-2.6v-9.82zm-19.28-7.61v-6.2h5.95l1.43 1.41v3.44l-1.43 1.35h-5.95zM74.35 61.66h2.6v23.63h-2.6v9.64h17.11v-9.64h-2.6V61.66h2.6v-9.7H74.35v9.7zM94.27 61.66h2.61v23.63h-2.61v9.64h31.87V83.51h-9.73v1.78h-7.63v-7h1.74v1.66h9.8V66.94h-9.8v1.65h-1.74v-6.93h7.63v1.72h9.73V51.96H94.27v9.7zM152.81 61.66h2.6v10l-11.97-19.7h-14.07v9.7h2.6v23.63h-2.6v9.64h17.11v-9.64h-2.6v-9.57l11.72 19.21h14.32v-9.64h-2.6V61.66h2.6v-9.7h-17.11v9.7zM172.57 51.96v9.7h2.6v23.63h-2.6v9.64h26.85l6.95-6.88V58.83l-6.95-6.88h-26.85zm14.51 33.33V61.66h6.01l1.36 1.35v20.87l-1.43 1.41h-5.95zM217.65 51.96l-6.95 6.87v12.71l6.95 6.88h12.71l1.36 1.29v4.23l-1.42 1.35h-6.2l-1.49-1.41v-4.05H210.7v8.22l6.95 6.88h19.1l6.94-6.88V75.59l-6.94-6.87h-12.78l-1.36-1.35v-4.36l1.3-1.35h6.45l1.36 1.35v4.29h11.97v-8.47l-6.94-6.87h-19.1zM248.03 51.96H260v30.08h-11.97zM248.03 85.23H260v9.7h-11.97z"/></svg>