<svg xmlns="http://www.w3.org/2000/svg" width="250" height="100" viewBox="0 0 250 100"><path d="M26.74 51.31a14.43 14.43 0 0 0 2.34.36 16.13 16.13 0 0 1 11.22 4.44 13.23 13.23 0 0 1 3.84 6.41 24.12 24.12 0 0 1 1 6.22 18.78 18.78 0 0 1-1.23 5c-.3 1-.82 1.92-1.17 2.9-.8 2.23-2.48 3.79-4.13 5.35a33.46 33.46 0 0 1-4.28 3.62c-2.45 1.63-4.76 3.74-7.79 4.16a5 5 0 0 0-3.8 2.54c-.31.47-1.35.46-2.06.65a12 12 0 0 1-1.55.36c-.32 0-.77.07-1-.11a.94.94 0 0 1 0-.91c.4-.66 1-1.23 1.35-1.89a2.47 2.47 0 0 0 .49-1.51c-.88-4.23-.37-8.47-.13-12.7a65.92 65.92 0 0 1 2.36-14.14 21.28 21.28 0 0 0 .67-3 2.2 2.2 0 0 0-.34-1.33c-1.22-2-.52-3.64 1.71-4.44a10.62 10.62 0 0 0 2.5-1.98zm1.77 8.89c-.18 2.94-.25 5.81-.54 8.65-.36 3.51-.92 7-1.38 10.49a16.79 16.79 0 0 0-.17 5.59 7.82 7.82 0 0 0 1.11-.57c2.49-2 5-4.09 7.44-6.2a10 10 0 0 0 3.89-7.83A12.67 12.67 0 0 0 36.94 63c-2-3-5.03-3-8.43-2.8zM65.7 72.86a6.54 6.54 0 0 1 1.63-.59c1.7-.13 2.62 1.21 2.44 3.07-.34 3.46-2.17 6.4-3.19 9.62-.87 2.74-2 5.47-1.48 8.47a3 3 0 0 0 2.44 2.8 8.45 8.45 0 0 1-2.27 1.28 3.16 3.16 0 0 1-2.18-.51 6.13 6.13 0 0 1-2.31-3.84 17.88 17.88 0 0 1-.24-7.67 3.55 3.55 0 0 0 0-.65c0-.07-.07-.14-.17-.3a41.25 41.25 0 0 0-2.94 3.15 12.73 12.73 0 0 1-6.28 4.53A4.77 4.77 0 0 1 45 87.38a10.84 10.84 0 0 1 3.51-7.27 50.69 50.69 0 0 1 13-8.82 8.3 8.3 0 0 1 1.62-.53c1.87-.48 2.75.24 2.57 2.1zM64.86 74a4.37 4.37 0 0 0-1.09.21A88.68 88.68 0 0 0 56.14 79a12.89 12.89 0 0 0-4.74 5.65 6.7 6.7 0 0 0-.13 1.69 4.47 4.47 0 0 0 1.43-.58c3.18-2.8 6.34-5.62 9.45-8.5A37.19 37.19 0 0 0 64.86 74zM82.54 71.28a38.86 38.86 0 0 1 5.39-1.94c2.28-.48 6.26 1.44 6.18 4.73a22.24 22.24 0 0 1-1.35 6 22.09 22.09 0 0 0-1.13 9 29.08 29.08 0 0 0 1.62 5.22c.08.27.22.72.12.8a1.76 1.76 0 0 1-.9.21c-3.17.2-4.16-2.06-5.07-4.43a16.07 16.07 0 0 1-.59-9.21 37.08 37.08 0 0 0 .55-5.07A1.51 1.51 0 0 0 86 74.75c-.92-.1-1.8-.11-2.26 1-2 5-4 9.94-6.08 14.9-.66 1.71-1.55 2.35-2.83 1.91-.76-.27-1.31-1.07-2-1.56-.94-.65-.71-1.4-.45-2.3 1.54-5.29 3-10.6 4.53-15.88.73-2.48 1.22-2.78 3.79-2.59.69.05 1.35.77 1.84 1.05zM220.14 75.27c1.78-2 3.56-4.12 5.41-6.16.88-1 1.84-1.87 2.79-2.78s2.52-1.26 3.1-.77a3.56 3.56 0 0 1 .15 3.6c-1.14 1.49-2.38 2.9-3.6 4.33-1.76 2.07-3.52 4.14-5.31 6.18a2.39 2.39 0 0 0-.37 3c1.74 3.33 3.41 6.69 5.08 10.06.55 1.09 1.06 2.2 1.5 3.33.06.15-.38.72-.56.71a5.06 5.06 0 0 1-3.52-1.84c-2.16-2.65-4.23-5.36-6.34-8-.27-.34-.51-.69-.94-1.27-1.53 2-2.89 4-4.39 5.85-1.36 1.68-2.85 3.25-4.34 4.82-.24.25-.77.24-1.17.34-.12-.45-.45-1-.32-1.33a15.49 15.49 0 0 1 1.51-3.6c2-3.17 4.22-6.24 6.28-9.39a2.08 2.08 0 0 0 .12-1.54c-.79-2.63-1.79-5.21-2.48-7.87a21.33 21.33 0 0 1-.52-4.8c0-1.25.81-1.89 2-2.27s1.87.3 2.31 1.27c1.2 2.65 2.39 5.37 3.61 8.13zM108.26 81.56a16.23 16.23 0 0 1-3.17.45c-3.44-.21-4.85-2.64-3.12-5.63s3.79-5.32 7.08-6.54a3.25 3.25 0 0 1 3.63.54 8.89 8.89 0 0 1 2.32-1.06c1.15-.15 1.81.9 1.52 2.27-1.22 5.66-2.44 11.32-3.72 17-.47 2-1.09 4.07-1.72 6.08a6.76 6.76 0 0 1-10.23 3.58 10.16 10.16 0 0 1-4.54-11.33c.08-.3.11-.6.25-1.34a19.19 19.19 0 0 1 1.23 1.59 20.31 20.31 0 0 0 1.34 2.38 33.43 33.43 0 0 0 3.87 4.11 8.62 8.62 0 0 0 3 1.18c.65.2.93-.19 1-.84.31-3 .66-6 1-9 .07-1.15.16-2.32.26-3.44zm-2-2.86c2.25-.21 4.46-2.86 5-5.87-2.42.72-4.92 3.62-5 5.87zM194.2 87.42a11.32 11.32 0 0 0 1-1.53q3-6.92 6-13.85a3.26 3.26 0 0 1 4.45-1.45 1.86 1.86 0 0 1 .62 1.45 31.7 31.7 0 0 1-.87 5.67c-1.32 4.61-2.57 9.19-1.32 14-1.65.92-2.12.76-2.55-.92-.3-1.16-.5-2.34-.71-3.3-1.28 1.41-2.55 3-4 4.37-2.36 2.18-5.08 1.93-6.53-.7a10.27 10.27 0 0 1-1.29-4.6c-.08-5.21 1.58-10.06 3.58-14.8.58-1.38 1.76-2.16 2.54-1.84s1 1.67.75 3.09c-.76 4.29-1.46 8.59-2.15 12.9a5.37 5.37 0 0 0 .12 1.37zM185.72 89.47a23.43 23.43 0 0 1-15.09 4.25c-2.91-.18-5.62-1.15-7-4.2-1.62-3.58-1.08-6.52 2-9.57a35.15 35.15 0 0 1 14-8.77c2.76-.89 4.31.34 3.58 3.13a9.79 9.79 0 0 1-2.23 4 30.79 30.79 0 0 1-8.77 6.76c-1 .52-2.19.84-3.27 1.29-.35.15-.89.42-.91.67a1.45 1.45 0 0 0 .51 1.19 17.57 17.57 0 0 0 3.54 1.32 29.55 29.55 0 0 0 12.9 0c.25-.03.5-.04.74-.07zm-16.89-7.63c2.54.58 9.38-3.78 10.79-7.38-4.51 1.31-8.16 3.54-10.79 7.38zM141.41 89.43a17.65 17.65 0 0 1-7.41 3.44c-1.46.26-2.91.58-4.37.84a13.11 13.11 0 0 1-7.05-.86c-2.1-.8-3.24-2.73-3.8-4.9a16.73 16.73 0 0 1-.33-2.46c-.24-2.45 1.46-4 2.9-5.49a32.47 32.47 0 0 1 14-8.76c1-.29 2.72-.36 3 .13a5.15 5.15 0 0 1 .38 3.54c-.7 2.93-3.14 4.68-5.29 6.47-2.7 2.26-5.55 4.4-9.18 5.07-.78.15-.9 1.2-.16 1.73a6.48 6.48 0 0 0 2 1 29.2 29.2 0 0 0 13.78.55zm-16.67-7.54a15.26 15.26 0 0 0 10.52-7.18 16.09 16.09 0 0 0-10.52 7.18zM153.07 73.66a7.89 7.89 0 0 1 5.49-1c2.05.36 3.87 1.1 4.81 3.17.52 1.13-.47 1.59-1 2.18-.18.19-.95 0-1.38-.21-2.64-1.15-5.7-1.41-8.3 1.65-2.08 2.44-2.75 5.44-3.4 8.43a40.59 40.59 0 0 0-.76 4.65c-.15 1.53-1.46 1.67-2.43 2.22-.14.08-.44 0-.61-.13a6.32 6.32 0 0 1-1.54-4c1.18-4.7 2.3-9.42 3.61-14.08a26.35 26.35 0 0 1 2.17-4.75 1.67 1.67 0 0 1 2.06-1 1.83 1.83 0 0 1 1.21 1.99 5.71 5.71 0 0 0 .07.88zM32.43 41.28c-.07-1.17-.16-2.16-.19-3.15-.08-2.25 1.53-3.68 2.86-5.06a32.89 32.89 0 0 1 14.16-8.87c1-.3 2.67-.36 3.16.21s.6 2.27.36 3.34A7.11 7.11 0 0 1 51.07 31c-3.24 3.36-6.76 6.36-11.18 8.12-.45.18-1 .24-1.39.43s-.91.4-.94.66a1.47 1.47 0 0 0 .44 1.2 12.91 12.91 0 0 0 3.19 1.28 30.23 30.23 0 0 0 12.67.19c4.23-.89 8.45-1.8 12.68-2.65 1.36-.28 2.74-.42 4.12-.62l.18-.49c-1.22-1.18-2.37-2.46-3.67-3.54a8.19 8.19 0 0 1-3.17-5c-.51-2.95.85-5.07 3.18-6.48a56.62 56.62 0 0 1 7.25-3.56 2.78 2.78 0 0 1 3.21.57c1.19 1.37.44 3-1.37 3.54-2.8.79-4.8 2.78-6.67 4.84-.61.68-.32 1.55.38 2.25 1.29 1.28 2.56 2.58 3.74 4a14.55 14.55 0 0 1 1.6 2.59c1.42 2.68-.49 4.59-2.48 4.91-4.51.73-9.07 1.19-13.61 1.63a17.32 17.32 0 0 1-3.92-.3c-.31 0-.57-.47-.94-.78a53.52 53.52 0 0 1-5.16 2c-3.87 1.09-7.71 1.94-11.81.61a6.64 6.64 0 0 1-3.65-2.56 1.63 1.63 0 0 0-2.4-.54 31.76 31.76 0 0 1-13.05 3.4 80.25 80.25 0 0 1-10.63.06C1.93 46.34 0 42.68 0 37.48c0-7.18 1.92-14.09 4-20.91C5.42 11.79 7.1 7.08 8.82 2.4a7.2 7.2 0 0 1 2-2.37c.14-.13.9.15 1.15.44a14.56 14.56 0 0 1 2.11 2.86c2.2 4.48 1.36 9-.16 13.44-1.33 3.87-3.12 7.58-4.7 11.36 0 0 0 .09-.05.12-2 2.66-2.77 5.8-3.41 9-.45 2.21.3 3.2 2.52 3.26 1.24 0 2.49-.13 3.73-.12 1.39 0 2.78.17 4.18.17a19.72 19.72 0 0 0 4.62-.21c2.72-.63 5.28.31 7.92.42 1.17.03 2.27.3 3.7.51zm6-6.32c2.72.4 9.33-3.84 10.78-7.28-3.21.07-8.82 3.8-10.78 7.32zM113.56 41.8a6.56 6.56 0 0 1 1.72 0c.52.15 1.29.56 1.32.91a2.17 2.17 0 0 1-.71 1.69 4.81 4.81 0 0 1-2 .58 18.7 18.7 0 0 1-11.35-.83A12.3 12.3 0 0 1 95.1 30.8a25 25 0 0 1 5.06-11 81.36 81.36 0 0 1 12.24-13 67.63 67.63 0 0 1 7.09-5.06c.56-.35 1.72.21 2.58.44a15.28 15.28 0 0 1 1.8.71 3 3 0 0 1 .5.18c1 .61 2.34 4.31 1.78 5.28s-1.25 1.87-2.06 2a7.57 7.57 0 0 0-4.15 2.9c-1.86 2.14-3.86 4.16-5.59 6.4a121.39 121.39 0 0 0-7.58 10.53 16.74 16.74 0 0 0-1.8 6.15c-.36 2.3.64 3.73 2.87 4.45 1.84.58 3.78.86 5.67 1.27zM128.57 47.79c-3.68 0-6.67-1.66-7.37-4.32-.8-3.09-1.51-6.17.22-9.37 2.52-4.66 5.53-8.81 9.92-11.86a2.06 2.06 0 0 1 .94-.48c1.77-.07 3.54-.12 5.31 0a1.75 1.75 0 0 1 1.21 1 81.82 81.82 0 0 1 3 9.28 13.24 13.24 0 0 1-.34 5.4c-.7 3.37-3 5.61-5.62 7.73-2.25 1.83-4.84 2.18-7.27 2.62zm7.71-17.29a6.73 6.73 0 0 0 0-1.19c-.1-.58-.3-1.13-.45-1.7a9.56 9.56 0 0 0-1.63.71c-3.05 2.13-4.46 5.44-6 8.61a8.18 8.18 0 0 0-.66 2.68c-.11.91.45 1.29 1.34 1.15a7.42 7.42 0 0 0 4.58-2.45 11.43 11.43 0 0 0 2.82-7.81zM226.08 48.06c-1 .6-3.08.59-3.7 0a9.69 9.69 0 0 1-2.16-2.66 16.88 16.88 0 0 1-1.22-10c.37-1.91.48-3.86.66-5.8a1.54 1.54 0 0 0-1.43-1.89c-.93-.09-1.78 0-2.24 1.12-2 5.05-4.08 10.07-6.14 15.1-.91 2.2-2.2 2.47-4 1-1.16-.92-1.77-1.73-1.24-3.41 1.67-5.32 3.05-10.72 4.65-16.06.67-2.22 2-2.93 4.18-2.37.58.15 1 .88 1.33 1.16a55.11 55.11 0 0 1 5.49-2 5.19 5.19 0 0 1 6.24 4.61 13.94 13.94 0 0 1-.51 3.78c-.55 2.27-1.46 4.48-1.83 6.78a14.42 14.42 0 0 0 1.92 10.64zM158.41 40.41a18 18 0 0 1-5 5.32c-2.42 1.76-5 .22-6.11-2a11.2 11.2 0 0 1-.6-7.54c.85-3.78 2.13-7.47 3.27-11.18a3.07 3.07 0 0 1 .93-1.41c.47-.37 1.23-.83 1.65-.68s.79 1 .92 1.56a4.48 4.48 0 0 1-.16 1.69c-.69 4.27-1.41 8.54-2.08 12.81a6.15 6.15 0 0 0 .09 1.41l.4.17a18.31 18.31 0 0 0 1.2-2c2-4.51 3.9-9 5.83-13.54a3.27 3.27 0 0 1 4.48-1.53 2 2 0 0 1 .68 1.56 34.33 34.33 0 0 1-.91 5.74c-1.24 4.46-2.5 8.88-1.45 13.57a1.09 1.09 0 0 1-.56.89c-.61.25-1.36.42-1.63-.5s-.55-2.13-.79-3.21a10.67 10.67 0 0 1-.16-1.13zM163.92 44.41c-.16-1 .57-1.46 1.24-1.66 2.67-.78 5.35-1.54 8.07-2.16 1.72-.39 3.51-.49 5.27-.74.43-.06.85-.21 1.73-.43-1.37-1.38-2.53-2.54-3.68-3.71a13.76 13.76 0 0 1-2.28-2.37c-2.18-3.58-1.51-7 2.1-9.28a49.67 49.67 0 0 1 7.25-3.55 2.76 2.76 0 0 1 3.2.6c1.16 1.37.38 3-1.42 3.53-2.78.81-4.79 2.77-6.65 4.86-.58.65-.33 1.48.33 2.14 1.27 1.3 2.56 2.58 3.74 4a14.76 14.76 0 0 1 1.56 2.45c1.65 2.88-.5 4.89-2.66 5.21-4.17.61-8.36 1.14-12.55 1.51a32.49 32.49 0 0 1-5.25-.4zM226.54 44.37c-.17-1 .58-1.42 1.25-1.62 2.63-.78 5.27-1.54 7.94-2.14 1.73-.39 3.52-.5 5.28-.75.47-.07.93-.21 1.87-.43a51.55 51.55 0 0 0-3.88-3.77 7.76 7.76 0 0 1-3.32-6 5.41 5.41 0 0 1 1.54-4.09 21 21 0 0 1 9-5 2.85 2.85 0 0 1 3.2.61c1.17 1.4.41 3-1.41 3.53-2.79.81-4.79 2.78-6.66 4.85-.58.65-.34 1.48.32 2.15 1.31 1.32 2.62 2.65 3.83 4.06a15.55 15.55 0 0 1 1.6 2.59c1.42 2.63-.53 4.59-2.51 4.9-4.47.71-9 1.2-13.49 1.61a25.05 25.05 0 0 1-4.56-.5zM197.29 42.93l4.5-.49a6 6 0 0 1-2.52 3.56c-.69.4-1.38.81-2.05 1.23a4.81 4.81 0 0 1-7.31-3.23 12.68 12.68 0 0 1 1.43-9.48c1.1-2 2.51-3.74 3.76-5.62a2.33 2.33 0 0 1 2.77-1.06 2.73 2.73 0 0 1 1.94 2.47 7.12 7.12 0 0 1-.42 2.82c-1 2.8-2.06 5.57-2.15 8.59-.01.34.02.64.05 1.21zM200.67 20c.1 2.43-1.06 2.79-2.55 3-1.13.14-2.33-1.59-2.28-3.09a2.17 2.17 0 0 1 2.48-2.14c1.8 0 2.38.56 2.35 2.23z" fill="#fff"/></svg>