<svg xmlns="http://www.w3.org/2000/svg" width="250" height="130" viewBox="0 0 250 130"><path d="M138.54 49.61a15.56 15.56 0 0 1-9.24-2.91c-4.05-3-6.37-7.75-6.51-13.5a27.33 27.33 0 0 1 5.51-16.58c.54-.74 1.12-1.45 1.72-2.13a27.53 27.53 0 0 0-8.87 7.91c-7.28 10-7 22.63.72 28.23a14.18 14.18 0 0 0 8.45 2.65 21.29 21.29 0 0 0 12-4.06 19.08 19.08 0 0 1-3.78.39zM139.59 33.65h.19c1.38 0 3.83-1.32 5.93-4.21a12 12 0 0 0 2.26-5c.19-1.24 0-2.21-.53-2.59a1.32 1.32 0 0 0-.81-.22c-1.38 0-3.82 1.31-5.93 4.2l-.25.38c1.19 1.44.83 4.44-.86 7.44zM46.93 120.32a16.43 16.43 0 0 0-3.63-4.11 10.24 10.24 0 0 0 .3-2.43V92.23a4.06 4.06 0 0 0 0-8v-3.05a4.91 4.91 0 0 0-4.89-4.9H9a9 9 0 0 0-9 9v38.85h33.28c9.8 0 12.77-.5 13.59-1.72h201.56v7.21H250v-9.28zm-25.87-38v13.3a3.82 3.82 0 0 0-3.2 3.2H4.61a17.09 17.09 0 0 1 16.45-16.5zm.63 34.17A17.09 17.09 0 0 1 4.61 100h13.25a3.82 3.82 0 1 0 4.36-4.36V82.32a17.09 17.09 0 0 1-.53 34.17zM75.08 15.56h11.46L93.73 0H52.18L44.4 15.41l12.19.15-15.86 31.71h18.65l15.7-31.71z" fill="#fff"/><path fill="#fff" d="M107.87 77.39h11.45l7.19-15.56H84.97l-7.78 15.42 12.18.14-15.85 31.71h18.64l15.71-31.71zM194.74 7.63h-13.95l-18.5 39.64h28.19l4.26-11.45h-12.48l12.48-28.19zM126.51 108.49l17.58-39.34h-14.1l-17.91 39.34h14.43zM167.87 109.1l16-21.16-8.95 21.16h13.94l16.3-39.95h-21.88l-12.47 16.32V69.15h-17.03l-18.04 39.95h13.92l9.69-21.6-.29 21.6h8.81zM240.55 69.15h-25.53l-17.86 39.95h27.88l4.22-11.66H216l1.97-4.72h12.07l2.56-7.06h-11.79l2.16-5.6h13.55l4.03-10.91zM88.55 45.63A14.18 14.18 0 0 0 97 48.28c6.51 0 13.69-3.82 18.64-10.61 7.28-10 7-22.63-.72-28.22a14.11 14.11 0 0 0-8.45-2.65c-6.51 0-13.69 3.82-18.64 10.6-7.28 9.99-6.96 22.6.72 28.23zM98.09 25c2.14-2.94 4.93-4.75 7-4.75a2.64 2.64 0 0 1 1.6.48c2 1.44 1.33 5.69-1.44 9.49-2.15 2.94-4.94 4.75-7 4.75a2.63 2.63 0 0 1-1.59-.48c-1.99-1.42-1.34-5.67 1.43-9.49zM156.47 9.45A14.17 14.17 0 0 0 148 6.8c-6.51 0-13.69 3.82-18.63 10.6-7.29 10-7 22.63.71 28.23a14.18 14.18 0 0 0 8.45 2.65c6.51 0 13.69-3.82 18.64-10.61 7.29-9.99 6.97-22.67-.7-28.22zm-9.68 20.79c-2.15 2.94-4.94 4.75-7 4.75a2.63 2.63 0 0 1-1.59-.48c-2-1.44-1.33-5.69 1.44-9.49 2.14-2.94 4.93-4.75 7-4.75a2.64 2.64 0 0 1 1.6.48c1.96 1.44 1.32 5.69-1.45 9.49zM38.58 48.61l.96-1.93 14.9-29.81-10.06-.12-2.13-.03.96-1.91L48.17 5h-4.21l-7.78 15.42 12.19.14-15.86 31.71h18.65l1.81-3.66H38.58zM75.91 16.89l-1.82 3.67h4.22l1.7-3.67h-4.1z"/><path fill="#fff" d="M108.7 78.72l-1.82 3.67h4.22l1.69-3.67h-4.09zM71.36 110.44l.96-1.93L87.23 78.7l-10.06-.12-2.14-.03.97-1.91 4.95-9.81h-4.2l-7.79 15.42 12.19.14-15.86 31.71h18.65l1.82-3.66h-14.4zM160.2 48.61l.88-1.9 15.91-34.08h-4.42l-18.5 39.64h28.19l1.36-3.66H160.2zM110.01 109.83l.86-1.89 15.38-33.79h-4.48l-17.91 39.35h14.43l1.64-3.67h-9.92zM133.67 110.44l.85-1.88 15.54-34.41h-4.5l-18.04 39.95h13.92l1.65-3.66h-9.42zM172.14 81.53l5.64-7.38h-2.72l-2.92 3.82v3.56zM172.91 110.44l.78-1.86 4.77-11.28-9.53 12.61-.4.53h-.28l-1.55 3.66h13.94l1.5-3.66h-9.23zM157.71 110.44l.02-1.36.21-15.16-7.04 15.68-.06 4.5h8.81l2.77-3.66h-4.71zM218 96.1h4.41l.74-2.04h-4.29L218 96.1zM222.76 84.32h5.81l1.09-2.93h-5.77l-1.13 2.93zM195.1 110.44l.84-1.88 15.39-34.41h-4.53l-17.87 39.95h27.88l1.33-3.66H195.1zM98.05 33.65h.19c1.38 0 3.82-1.32 5.93-4.21a12.17 12.17 0 0 0 2.26-5c.19-1.24 0-2.21-.53-2.59a1.34 1.34 0 0 0-.81-.22c-1.38 0-3.82 1.31-5.93 4.2l-.26.38c1.2 1.44.84 4.44-.85 7.44zM97 49.61a15.56 15.56 0 0 1-9.24-2.91c-4.05-3-6.37-7.75-6.51-13.5a27.33 27.33 0 0 1 5.51-16.58c.54-.74 1.12-1.45 1.71-2.13a27.6 27.6 0 0 0-8.86 7.91c-7.28 10-7 22.63.71 28.23a14.23 14.23 0 0 0 8.46 2.65 21.29 21.29 0 0 0 12-4.06 19.08 19.08 0 0 1-3.78.39z"/></svg>