<?xml version="1.0" encoding="UTF-8"?><svg id="logos" xmlns="http://www.w3.org/2000/svg" width="300" height="50" viewBox="0 0 300 50"><g><path d="M139.91,6.82V2.33h-3.85v13.99h2.43v2.33h-7.62v-2.33h2.38V2.33h-3.82V6.82h-2.3V0h15.1V6.82h-2.3Z" fill="#fff"/><path d="M152.65,5.3c2.42,0,3.63,1.31,3.63,3.92v7.15h2.2v2.28h-4.76V10.13c0-.93-.13-1.59-.4-1.97-.27-.38-.68-.57-1.24-.57-.95,0-2.18,.56-3.7,1.67v7.1h2.25v2.28h-7.14v-2.28h2.33V2.25h-2.33V0h4.89V7.16c1.53-1.25,2.96-1.87,4.28-1.87Z" fill="#fff"/><path d="M173.64,12.79h-10.9c.16,1.25,.64,2.23,1.45,2.95,.81,.72,1.8,1.08,2.97,1.08,.86,0,1.65-.18,2.39-.53,.73-.35,1.35-.9,1.84-1.63l2.25,1.01c-.71,1.11-1.64,1.94-2.79,2.51-1.15,.56-2.4,.85-3.76,.85s-2.65-.29-3.74-.88-1.94-1.4-2.54-2.45c-.61-1.05-.91-2.23-.91-3.54s.3-2.48,.9-3.53c.6-1.05,1.42-1.87,2.46-2.46,1.04-.59,2.19-.88,3.44-.88,1.37,0,2.56,.3,3.58,.91s1.82,1.47,2.41,2.6c.59,1.13,.9,2.46,.95,3.99Zm-6.89-5.37c-.97,0-1.81,.32-2.54,.97-.73,.65-1.19,1.5-1.4,2.57h8.14c-.24-1.06-.75-1.92-1.52-2.57-.78-.65-1.67-.97-2.69-.97Z" fill="#fff"/></g><g><path d="M12.74,32.88l5.15,14.35h2.12v2.37h-7.5v-2.37h2.49l-1.48-4.32H6.61l-1.48,4.32h2.41v2.37H0v-2.37H2.3l5.12-14.35h-2.28v-2.3H15.02v2.3h-2.28Zm-2.6,0h-.09l-2.69,7.8h5.4l-2.63-7.8Z" fill="#fff"/><path d="M39.56,39.81c0,3.26-.98,5.7-2.95,7.34-1.96,1.64-4.89,2.45-8.77,2.45h-7.11v-2.37h2.55v-14.27h-2.55v-2.37h7.23c3.9,0,6.8,.74,8.72,2.21,1.91,1.47,2.87,3.81,2.87,7.02Zm-3.13,.13c0-1.62-.28-2.93-.85-3.95s-1.47-1.78-2.7-2.28c-1.23-.5-2.86-.75-4.88-.75h-1.83v14.27h1.8c2.93,0,5.07-.59,6.42-1.76,1.35-1.17,2.03-3.02,2.03-5.53Z" fill="#fff"/><path d="M45.42,32.96l4.86,12.92,4.71-12.92h-2.2v-2.37h7.26v2.37h-2.27l-6.29,16.85h-2.64l-6.39-16.85h-2.35v-2.37h7.5v2.37h-2.2Z" fill="#fff"/><path d="M74.5,36.14v-3.18h-8.14v5.67h7.08v2.37h-7.08v6.24h8.14v-3.47h2.35v5.84h-15.81v-2.37h2.45v-14.27h-2.45v-2.37h15.81v5.55h-2.35Z" fill="#fff"/><path d="M93.2,32.96h-2.71v-2.37h7.8v2.37h-2.79v16.85h-2.95l-9.13-16.26v13.68h2.73v2.37h-7.79v-2.37h2.71v-14.27h-2.71v-2.37h6.49l8.36,14.78v-12.41Z" fill="#fff"/><path d="M112.76,37.54v-4.58h-3.93v14.27h2.47v2.37h-7.77v-2.37h2.42v-14.27h-3.9v4.58h-2.35v-6.95h15.4v6.95h-2.35Z" fill="#fff"/><path d="M121.76,32.96v9.69c0,1.71,.33,2.96,.98,3.75,.65,.79,1.61,1.19,2.87,1.19s2.25-.39,2.92-1.17c.67-.78,1-2.03,1-3.74v-9.72h-2.22v-2.37h7.45v2.37h-2.37v9.98c0,2.27-.57,4-1.72,5.19-1.15,1.19-2.83,1.79-5.05,1.79s-3.92-.59-5.04-1.77c-1.12-1.18-1.69-2.97-1.69-5.37v-9.82h-2.35v-2.37h7.47v2.37h-2.25Z" fill="#fff"/><path d="M150.42,35.57c0,1.22-.35,2.24-1.03,3.07-.69,.83-1.65,1.4-2.89,1.71l3.36,6.88h2.32v2.37h-4.27l-4.2-8.86h-2.66v6.49h2.42v2.37h-7.88v-2.37h2.57v-14.27h-2.57v-2.37h7.9c2.45,0,4.22,.4,5.3,1.2s1.63,2.06,1.63,3.79Zm-2.97-.05c0-.88-.28-1.53-.83-1.94s-1.43-.62-2.64-.62h-2.94v5.4h2.76c1.24,0,2.15-.21,2.75-.64,.6-.43,.9-1.16,.9-2.2Z" fill="#fff"/><path d="M166.35,36.14v-3.18h-8.14v5.67h7.08v2.37h-7.08v6.24h8.14v-3.47h2.35v5.84h-15.81v-2.37h2.45v-14.27h-2.45v-2.37h15.81v5.55h-2.35Z" fill="#fff"/><path d="M180.36,31.77v-1.3h2.32v5.77h-2.32v-1.31c-.98-1.48-2.33-2.22-4.04-2.22-1.04,0-1.84,.21-2.4,.63-.56,.42-.83,1.03-.83,1.82s.26,1.33,.79,1.73c.53,.4,1.33,.73,2.42,1.01l2.23,.59c1.42,.38,2.51,.88,3.28,1.5,.76,.62,1.26,1.28,1.49,1.98,.23,.7,.35,1.48,.35,2.34,0,1.73-.54,3.09-1.62,4.1-1.08,1.01-2.52,1.51-4.33,1.51s-3.29-.63-4.71-1.89v1.58h-2.37v-6.93h2.37v1.68c1.14,2.09,2.62,3.13,4.44,3.13,1.07,0,1.9-.28,2.49-.83,.59-.55,.88-1.33,.88-2.33,0-1.36-.96-2.31-2.88-2.84l-2.37-.67c-1.71-.49-2.97-1.15-3.79-1.98-.82-.83-1.22-1.93-1.22-3.29,0-1.67,.49-2.97,1.48-3.89,.99-.92,2.35-1.38,4.1-1.38,1.51,0,2.93,.5,4.24,1.5Z" fill="#fff"/><path d="M206.45,42.99c0,1.29-.31,2.47-.92,3.53-.61,1.07-1.45,1.91-2.51,2.54-1.06,.62-2.23,.93-3.52,.93s-2.53-.31-3.6-.93c-1.07-.62-1.9-1.47-2.49-2.54-.59-1.07-.89-2.25-.89-3.53s.3-2.55,.89-3.61c.59-1.06,1.42-1.89,2.48-2.49,1.06-.6,2.26-.9,3.61-.9s2.49,.32,3.55,.95c1.06,.64,1.89,1.49,2.5,2.56,.61,1.07,.91,2.23,.91,3.5Zm-6.95,4.47c.77,0,1.49-.2,2.13-.61,.65-.4,1.15-.95,1.51-1.63,.36-.68,.54-1.43,.54-2.23s-.18-1.53-.54-2.21c-.36-.68-.87-1.23-1.51-1.65-.65-.42-1.37-.62-2.16-.62s-1.49,.2-2.13,.61c-.65,.41-1.16,.96-1.53,1.65-.37,.69-.56,1.43-.56,2.22s.19,1.53,.56,2.22,.88,1.24,1.54,1.64c.66,.4,1.37,.61,2.15,.61Z" fill="#fff"/><path d="M217.08,33.25l-2.32,.35c-.08-.86-.4-1.29-.98-1.29-.41,0-.69,.15-.83,.44s-.21,.82-.21,1.58v2.01h2.27v2.34h-2.27v8.61h2.5v2.32h-7.06v-2.32h1.94v-8.61h-1.94v-2.34h1.94v-2.06c0-1.21,.3-2.2,.89-2.95s1.47-1.14,2.63-1.14c.96,0,1.73,.25,2.32,.76s.96,1.27,1.12,2.29Z" fill="#fff"/><path d="M243.57,40.04c0,1.94-.43,3.66-1.28,5.16-.85,1.51-2.03,2.67-3.54,3.49s-3.22,1.23-5.14,1.23-3.58-.43-5.05-1.28c-1.47-.85-2.62-2.04-3.44-3.55-.82-1.51-1.23-3.21-1.23-5.11s.42-3.55,1.26-5.02c.84-1.47,1.99-2.62,3.46-3.45,1.47-.83,3.15-1.24,5.02-1.24s3.68,.43,5.19,1.28c1.51,.85,2.67,2.02,3.5,3.5,.83,1.48,1.24,3.14,1.24,4.99Zm-9.84,7.35c1.3,0,2.47-.34,3.5-1.02,1.03-.68,1.82-1.59,2.38-2.71,.56-1.13,.84-2.33,.84-3.61s-.3-2.51-.89-3.63c-.59-1.11-1.41-1.99-2.45-2.64-1.04-.64-2.22-.97-3.53-.97s-2.43,.31-3.42,.94c-.99,.63-1.76,1.49-2.3,2.59-.54,1.1-.81,2.33-.81,3.67,0,1.43,.27,2.71,.81,3.82,.54,1.12,1.32,1.99,2.34,2.61,1.02,.62,2.2,.93,3.55,.93Z" fill="#fff"/><path d="M258.77,37.54v-4.58h-3.93v14.27h2.47v2.37h-7.77v-2.37h2.42v-14.27h-3.9v4.58h-2.35v-6.95h15.4v6.95h-2.35Z" fill="#fff"/><path d="M275.86,37.54v-4.58h-3.93v14.27h2.47v2.37h-7.77v-2.37h2.42v-14.27h-3.9v4.58h-2.35v-6.95h15.4v6.95h-2.35Z" fill="#fff"/><path d="M300,40.04c0,1.94-.43,3.66-1.28,5.16-.85,1.51-2.03,2.67-3.54,3.49s-3.22,1.23-5.14,1.23-3.58-.43-5.05-1.28c-1.47-.85-2.62-2.04-3.44-3.55-.82-1.51-1.23-3.21-1.23-5.11s.42-3.55,1.26-5.02c.84-1.47,1.99-2.62,3.46-3.45,1.47-.83,3.15-1.24,5.02-1.24s3.68,.43,5.19,1.28c1.51,.85,2.67,2.02,3.5,3.5,.83,1.48,1.24,3.14,1.24,4.99Zm-9.84,7.35c1.3,0,2.47-.34,3.5-1.02,1.03-.68,1.82-1.59,2.38-2.71,.56-1.13,.84-2.33,.84-3.61s-.3-2.51-.89-3.63c-.59-1.11-1.41-1.99-2.45-2.64-1.04-.64-2.22-.97-3.53-.97s-2.43,.31-3.42,.94c-.99,.63-1.76,1.49-2.3,2.59-.54,1.1-.81,2.33-.81,3.67,0,1.43,.27,2.71,.81,3.82,.54,1.12,1.32,1.99,2.34,2.61,1.02,.62,2.2,.93,3.55,.93Z" fill="#fff"/></g></svg>