<svg xmlns="http://www.w3.org/2000/svg" width="260" height="41" viewBox="0 0 260 41"><polygon points="0 0 8.01 0 34.53 35.55 34.53 40.77 0 40.77 0 30.26 18.74 30.26 0 5.44 0 0" fill="#fff"/><polygon points="11.52 0 19.1 10.23 34.53 10.23 34.53 0 11.52 0" fill="#fff"/><polygon points="37.12 0 67.74 0 67.74 5.11 64.09 10.23 56.58 10.23 56.58 40.77 48.54 40.77 48.54 10.23 37.12 10.23 37.12 0" fill="#fff"/><polygon points="144.45 0 175.06 0 175.06 5.11 171.41 10.23 163.91 10.23 163.91 40.77 155.86 40.77 155.86 10.23 144.45 10.23 144.45 0" fill="#fff"/><polygon points="59.3 35.33 59.3 40.77 67.09 40.77 86.05 15.66 86.05 25.25 82.04 25.25 74.6 35.19 86.05 35.19 86.05 40.77 93.7 40.77 93.7 0 85.9 0 59.3 35.33" fill="#fff"/><polygon points="96.56 0 104.57 10.09 104.57 40.77 96.56 40.77 96.56 0" fill="#fff"/><polygon points="100.57 0 108.22 10.3 119.02 10.3 115.66 15.09 108.01 15.09 108.01 25.54 111.51 25.54 123.31 40.77 131.22 40.77 131.22 35.12 121.6 22.55 131.22 10.3 131.22 0 100.57 0" fill="#fff"/><polygon points="177.64 0 185.65 10.09 185.65 40.77 177.64 40.77 177.64 0" fill="#fff"/><polygon points="181.65 0 189.3 10.3 200.1 10.3 196.74 15.09 189.09 15.09 189.09 25.54 192.59 25.54 204.39 40.77 212.3 40.77 212.3 35.12 202.68 22.55 212.3 10.3 212.3 0 181.65 0" fill="#fff"/><rect x="214.83" width="8.02" height="40.77" fill="#fff"/><polygon points="225.61 0 252.52 0 244.85 10.22 233.48 10.22 233.48 40.77 225.61 40.77 225.61 0" fill="#fff"/><polygon points="255.92 0 260 0 260 10.03 248.54 25.47 237.07 25.47 237.07 15.08 244.56 15.08 255.92 0" fill="#fff"/></svg>