<?xml version="1.0" encoding="UTF-8"?>
<svg id="logos" xmlns="http://www.w3.org/2000/svg" viewBox="0 0 250 123">
  <g id="rxXnZh.tif">
    <g>
      <path d="M169.96,12.83c.36-1.25.71-2.51,1.09-3.75.84-2.68,1.66-5.36,2.59-8.01.14-.4.79-.84,1.24-.89,1.41-.16,2.84-.14,4.26-.18.64-.02.87.37.66,1.13-.46,1.7-.94,3.4-1.41,5.1-2.36,8.41-4.73,16.83-7.07,25.25-.23.81-.56,1.14-1.43,1.1-1.36-.06-2.72.05-4.08,0-.22,0-.55-.37-.64-.63-.93-2.76-1.83-5.53-2.71-8.31-.61-1.9-1.18-3.82-1.94-5.77-.15.43-.33.85-.45,1.28-1.18,4.25-2.35,8.5-3.51,12.75-.14.52-.39.77-.95.76-1.48-.03-2.96-.05-4.44-.02-.62.01-.92-.23-1.09-.8-.89-3.08-1.82-6.15-2.7-9.24-2.05-7.17-4.08-14.35-6.12-21.52-.26-.92-.14-1.08.85-1.06,2.8.03,5.6.09,8.39.11,1.73.01,1.77-.03,2.3,1.67.67,2.14,1.26,4.31,1.88,6.46.39,1.35.76,2.71,1.15,4.06.04.14.12.28.28.65.64-2.27,1.2-4.33,1.8-6.37.53-1.82,1.1-3.63,1.65-5.44.22-.71.62-1.08,1.47-1.04,1.18.06,2.37-.02,3.55-.1.61-.04.95.16,1.14.74.78,2.39,1.58,4.77,2.37,7.16.54,1.65,1.08,3.29,1.63,4.94.08,0,.16-.01.24-.02Z" fill="#fff" stroke-width="0"/>
      <path d="M101.14,20.32c0,1.7-.02,3.4,0,5.1.03,2.04.1,4.08.13,6.12.01.67-.35,1.07-1.04,1.07-3.28.01-6.56,0-9.85,0-.89,0-.79-.67-.8-1.19-.02-1.26.03-2.51.02-3.77-.09-6.99-.2-13.98-.28-20.97-.02-1.74,0-3.49,0-5.23,0-1.04.4-1.42,1.46-1.4,2.94.04,5.89.09,8.83.09,2.42,0,4.84-.19,7.25-.09,3.61.15,6.38,1.66,7.95,5.15,1.4,3.1,1.52,6.09-.01,9.12-.57,1.14-1.36,2.13-2.48,2.79-.65.38-.83.87-.55,1.61,1.59,4.23,3.15,8.47,4.73,12.71.39,1.03.3,1.22-.8,1.23-3.15.04-6.29.05-9.44.07-.63,0-.97-.23-1.17-.92-.81-2.74-1.73-5.45-2.59-8.18-.27-.84-.48-1.7-.74-2.54-.09-.29-.26-.55-.4-.82-.07.02-.13.05-.2.07ZM100.96,5.91v7.85c1.59.51,3.5-1.64,3.78-3.67.26-1.88-1.42-3.78-3.78-4.19Z" fill="#fff" stroke-width="0"/>
      <path d="M5.79,32.63c-1.52-.03-2.77-.07-4.02-.08-2.12-.02-2,.04-1.36-1.92,2.52-7.75,5.02-15.51,7.49-23.28.13-.42.1-.95-.03-1.38-.47-1.53-1.03-3.04-1.55-4.56-.3-.88-.07-1.21.83-1.22,3.31-.02,6.62-.03,9.92-.07.91-.01,1.1.63,1.31,1.26.51,1.58.95,3.17,1.47,4.75,1.42,4.29,2.89,8.56,4.29,12.86,1.38,4.24,2.69,8.5,4.05,12.75.19.58.08.83-.59.83-3.15-.02-6.29-.03-9.44,0-.73,0-1.19-.26-1.43-.91-.28-.75-.59-1.5-.75-2.28-.23-1.1-.98-1.57-2.15-1.49-1.87.13-3.75.13-5.62.14-.58,0-.82.17-1,.74-.43,1.37-.97,2.7-1.4,3.87ZM8.78,23.15h4.5c-.86-2.31-1.64-4.41-2.42-6.52l-.24.05c-.62,2.17-1.24,4.34-1.85,6.47Z" fill="#fff" stroke-width="0"/>
      <path d="M63.88,32.75c-.57-.06-1.04-.14-1.51-.16-1.1-.04-2.21-.03-3.31-.06-.87-.02-.99-.2-.72-1.02,1.77-5.44,3.55-10.88,5.31-16.32.86-2.65,1.7-5.3,2.52-7.95.11-.35.1-.79-.02-1.15-.5-1.58-1.07-3.14-1.6-4.71-.3-.88-.07-1.18.87-1.18,3.28-.02,6.56-.03,9.85-.07.81-.01,1.08.47,1.27,1.09.55,1.73,1.05,3.48,1.62,5.2,1.43,4.32,2.91,8.62,4.32,12.94,1.34,4.11,2.59,8.26,3.92,12.38.22.7.02.84-.63.84-3.09-.02-6.18-.03-9.27,0-.83.01-1.34-.29-1.6-1.04-.28-.81-.54-1.62-.78-2.44-.22-.76-.77-1.27-1.54-1.26-2.14.05-4.29.12-6.43.23-.22.01-.53.3-.62.53-.4.99-.72,2.01-1.1,3.02-.16.42-.38.81-.55,1.15ZM67,23.13h4.5c-.85-2.29-1.63-4.37-2.4-6.45-.09.02-.18.04-.27.06-.61,2.14-1.23,4.28-1.83,6.39Z" fill="#fff" stroke-width="0"/>
      <path d="M195.18,12.4c1.45,0,2.73.02,4.01,0,1.27-.03,1.34,0,1.36,1.22.02,1.15-.02,2.31.03,3.46.02.54-.16.82-.7.84-1.1.04-2.2.07-3.3.1-.37,0-.74,0-1.2,0,0,1.68,0,3.28,0,4.88,0,1.24.05,2.47,0,3.71-.03.68.25.82.85.79,1.64-.07,3.28-.08,4.91-.16.78-.04,1.04.25,1.04,1.02,0,1.23.07,2.47.14,3.7.03.55-.14.75-.73.75-3.85-.02-7.7,0-11.54.01-1.88,0-3.75-.01-5.63,0-.62,0-.83-.21-.84-.85-.08-7.33-.21-14.66-.29-21.99-.03-2.87,0-5.74-.02-8.61,0-.73.25-.99.98-1,3.97-.04,7.94-.13,11.91-.18,1.66-.02,3.33,0,5,0,.51,0,.72.15.73.69.01,1.17.08,2.34.13,3.51.03.85-.45,1.3-1.32,1.3-1.66,0-3.32.02-4.99.07-.18,0-.5.27-.5.42-.03,2.08-.02,4.17-.02,6.31Z" fill="#fff" stroke-width="0"/>
      <path d="M132.21,12.45c.91,0,1.7,0,2.5,0,.72,0,1.45-.05,2.17-.05.43,0,.7.18.69.68-.01,1.37-.01,2.74.02,4.11.01.49-.19.7-.64.72-.94.04-1.88.08-2.81.1-.54.01-1.07,0-1.68,0-.02.23-.06.44-.06.64,0,2.66.03,5.32,0,7.98,0,.61.19.8.79.77,1.69-.08,3.38-.09,5.07-.16.65-.03.91.2.92.88,0,1.26.08,2.52.15,3.78.03.56-.09.81-.74.81-3.87-.02-7.75,0-11.63.01-1.82,0-3.65-.01-5.47,0-.62,0-.9-.15-.91-.86-.07-6.98-.19-13.96-.28-20.94-.04-3.21,0-6.43-.04-9.65,0-.74.27-.99.99-.99,3.97-.04,7.94-.13,11.9-.18,1.66-.02,3.33,0,5,0,.5,0,.74.14.74.68.01,1.18.08,2.35.11,3.53.02.89-.42,1.29-1.32,1.29-1.64,0-3.27.02-4.9.07-.2,0-.56.24-.57.37-.04,2.11-.03,4.22-.03,6.41Z" fill="#fff" stroke-width="0"/>
      <path d="M51.43,5.81v6.43c1.54,0,2.97,0,4.39,0,.97,0,1.18.22,1.19,1.18,0,1.13-.01,2.26,0,3.38.01.55-.22.79-.76.79-1.18,0-2.36.03-3.54.03-.97,0-1.08.12-1.07,1.08.01,1.34,0,2.68.01,4.02.05,2.98.09,5.97.17,8.95.02.66-.19.9-.86.89-3.19-.03-6.38-.03-9.57,0-.63,0-.88-.25-.9-.83-.05-1.84-.13-3.68-.15-5.52-.05-5.02-.06-10.04-.1-15.05-.02-3.21-.07-6.43-.1-9.64,0-1.06.21-1.32,1.23-1.33,5.49-.03,10.97-.06,16.46-.04,1.88,0,1.88.07,1.88,1.97,0,.83,0,1.66,0,2.5,0,.99-.15,1.16-1.18,1.17-1.32.02-6.08,0-7.11,0Z" fill="#fff" stroke-width="0"/>
      <path d="M206.36,5.44c0-1.3-.1-2.6-.13-3.91-.03-1.29.2-1.53,1.47-1.51,1.55.02,3.1.09,4.65.1,1.67.01,3.34-.04,5.01-.02.21,0,.52.27.59.48.12.4.14.84.14,1.27.04,7.83.08,15.66.12,23.49,0,1.91,0,1.9,1.9,1.88,1.64-.02,3.28,0,4.92-.02.77-.02,1.08.33,1.08,1.06,0,1.1,0,2.2,0,3.3,0,.91-.21,1.12-1.13,1.11-1.21-.01-2.41-.07-3.62-.06-4.08.02-8.17.05-12.25.08-.56,0-1.12,0-1.66.08-.67.1-.92-.11-.92-.81.02-2.73,0-5.47-.01-8.2,0-1.93-.13-14.15-.15-18.33Z" fill="#fff" stroke-width="0"/>
      <path d="M242.05,26.54c0,.66.18.79.83.77,2.04-.08,4.09-.06,6.13-.09.61-.01.93.34.95.87.05,1.31.05,2.63,0,3.95-.02.69-.66.63-1.1.64-1.15.03-2.31-.05-3.46-.05-4.19.02-8.39.04-12.58.08-.58,0-1.17.14-1.74.09-.28-.03-.75-.36-.76-.57-.05-1.52.02-3.03.01-4.55-.01-3.9-.2-24.4-.23-26.48-.01-.9.22-1.16,1.13-1.16,1.6,0,3.21.06,4.81.08,1.62.02,3.25.11,4.87,0,.84-.06.92.4.96.92.06.85.18,19.12.16,25.5Z" fill="#fff" stroke-width="0"/>
    </g>
  </g>
  <g id="_7CIM6s.tif" data-name="7CIM6s.tif">
    <g>
      <path d="M40.37,62.58c-.22.67-.41,1.15-.55,1.65-1.16,4.2-2.32,8.4-3.47,12.6-.13.48-.38.72-.91.71-1.51-.03-3.01-.05-4.52-.02-.59.01-.87-.22-1.03-.76-.9-3.11-1.84-6.2-2.74-9.31-2.05-7.14-4.07-14.29-6.11-21.44-.28-.98-.17-1.11.88-1.1,3.15.01,6.29.01,9.44.07.27,0,.68.35.78.62.53,1.51,1,3.05,1.47,4.58.41,1.33.83,2.65,1.2,3.99.32,1.14.6,2.3,1.09,3.47.33-1.08.66-2.15.98-3.24.76-2.62,1.48-5.25,2.28-7.86.46-1.51.52-1.5,2.08-1.53,1-.02,2-.01,2.98-.12.77-.09,1.14.24,1.36.9.76,2.34,1.52,4.67,2.29,7.01.54,1.64,1.09,3.28,1.63,4.92h.24c.45-1.57.86-3.16,1.35-4.72.75-2.4,1.52-4.79,2.37-7.15.13-.37.74-.75,1.15-.79,1.44-.14,2.89-.14,4.34-.18.59-.01.84.42.64,1.16-.32,1.19-.67,2.37-1,3.55-2.51,8.95-5.03,17.91-7.52,26.87-.2.7-.49,1.02-1.27.99-1.39-.05-2.78.04-4.17,0-.24,0-.59-.32-.68-.57-.73-2.1-1.43-4.2-2.1-6.32-.78-2.47-1.52-4.96-2.27-7.44-.04-.12-.1-.23-.24-.54Z" fill="#fff" stroke-width="0"/>
      <path d="M124.35,56.95c0-1.28,0-2.61,0-3.94-.02-2.35-.06-4.71-.08-7.06,0-.61.34-.94.96-.94,2.71,0,5.43,0,8.14-.01.29,0,.59.02.88,0,.96-.05,1.15.11,1.16,1.06.06,5.53.1,11.06.18,16.59.07,4.62.17,9.23.29,13.85.02.79-.2,1.08-1.04,1.08-2.69,0-5.39.07-8.08.12-.22,0-.43,0-.65,0-1.33-.08-1.43-.21-1.46-1.52-.06-2.65-.15-5.3-.2-7.95-.03-1.77-.02-3.54,0-5.31,0-.6-.17-.71-.79-.69-1.5.05-3-.03-4.5-.13-.74-.05-.9.22-.88.91.13,4.37.22,8.75.32,13.12.03,1.19-.03,1.29-1.22,1.3-2.62.02-5.25-.02-7.87-.03-.56,0-1.13-.07-1.69,0-.77.11-.93-.27-.93-.92-.02-3.08-.03-6.17-.08-9.25-.07-3.78-.21-7.57-.27-11.35-.05-3.31-.03-6.63-.06-9.94,0-.69.3-.97.97-.96,2.21.04,4.41.06,6.62.08.97,0,1.94.04,2.9-.01.69-.04.92.27.93.88.01.62.04,1.23.05,1.85.06,2.71.12,5.42.16,8.13.01.68.19,1.08,1,1.05,1.68-.05,3.36-.02,5.23-.02Z" fill="#fff" stroke-width="0"/>
      <path d="M155.7,77.91c-9.48.02-17.15-7.38-17.13-17.03.02-9.15,7.28-16.73,17.09-16.71,9.99.03,17.08,8.31,16.82,17.48-.29,9.9-8.57,16.34-16.78,16.26ZM160.3,61.61c-.14-3.21-.56-6.33-1.8-9.28-.34-.82-1.02-1.57-1.7-2.16-.81-.7-1.71-.57-2.44.22-.5.54-.97,1.16-1.3,1.82-1.51,2.93-1.52,6.14-1.58,9.31-.03,1.54.23,3.09.43,4.63.24,1.93.8,3.78,2.02,5.34,1.38,1.77,3.27,1.63,4.34-.34.51-.93,1.02-1.93,1.2-2.96.39-2.18.58-4.39.84-6.59Z" fill="#fff" stroke-width="0"/>
      <path d="M195.52,61.85c0-1.79,0-3.58,0-5.36.01-1.84.07-3.68.07-5.52,0-1.44-.09-2.87-.1-4.31,0-1.27.38-1.64,1.62-1.64,1.27,0,2.53.03,3.79-.01.78-.02,1.07.33,1.05,1.06-.01.62,0,1.24,0,1.85.05,3.22.11,6.45.14,9.67.02,2.56-.06,5.12.03,7.68.26,7.47-5.59,11.69-10.4,12.54-3.39.6-6.78.37-9.86-1.12-3.45-1.67-5.77-4.48-6.24-8.4-.32-2.68-.36-5.4-.43-8.1-.11-4.7-.13-9.4-.22-14.09-.01-.75.22-.97.96-.98,3.03,0,6.05-.07,9.08-.11.98-.01,1.31.45,1.24,1.41-.07.82.01,1.65.02,2.48.07,5.5.14,11,.21,16.5.01.83.05,1.66.13,2.49.21,2.19,1.87,3.82,3.9,4.05,1.18.13,2.25.25,3.25-.62,1.18-1.01,1.59-2.31,1.7-3.77.07-.96.13-1.93.15-2.89.03-.94,0-1.88,0-2.82-.04,0-.07,0-.11,0Z" fill="#fff" stroke-width="0"/>
      <path d="M222.85,50.61c0,2.37-.01,4.65,0,6.93.02,3.27.05,6.54.09,9.8.04,3.11.08,6.22.16,9.33.02.65-.23.77-.79.76-2.8-.02-5.6-.01-8.4,0-.56,0-1.12-.01-1.68.06-.79.1-1.01-.35-1.02-.98-.01-.88.05-1.76.04-2.64-.01-1.58-.06-3.16-.07-4.74-.01-2.44,0-4.87,0-7.31-.01-3.62-.03-7.24-.06-10.87,0-.08-.04-.15-.09-.34-1.26,0-2.54,0-3.82,0-.35,0-.7-.03-1.05,0-.59.06-.88-.25-.9-.78-.03-1.41-.04-2.83-.02-4.24,0-.56.43-.57.87-.57,4.04,0,8.08.02,12.11,0,3.21-.02,6.43-.09,9.64-.13,1.02-.01,1.14.13,1.15,1.17.01,1.1.04,2.2.06,3.3.02,1.08-.25,1.28-1.34,1.25-1.62-.04-3.24-.01-4.89-.01Z" fill="#fff" stroke-width="0"/>
      <path d="M96.85,77.35c-.33.03-.65.07-.96.07-2.74,0-5.49,0-8.23,0-.59,0-1.17,0-1.75.05-.67.07-.88-.29-.88-.84-.01-.99.03-1.98.02-2.97-.02-1.58-.09-3.16-.1-4.74,0-1.11.07-2.23.07-3.34.01-2.47,0-4.95,0-7.42,0-2.48,0-4.96,0-7.56-1.7,0-3.19,0-4.69,0-1.18,0-1.31-.13-1.32-1.34,0-1.04,0-2.09,0-3.14,0-1.05.05-1.09,1.08-1.09,4.52-.01,9.04-.01,13.56-.04,2.68-.02,5.36-.07,8.04-.1.98-.01,1.07.11,1.1,1.12.03,1.13.07,2.25.13,3.37.05.93-.35,1.25-1.41,1.23-1.59-.04-3.19-.01-4.93-.01.1,8.91.19,17.76.29,26.75Z" fill="#fff" stroke-width="0"/>
      <path d="M74.8,74.6c0,.61-.03,1.23.02,1.84.05.72-.22,1.02-.97,1-1.72-.04-3.44-.03-5.16,0-1.28.02-2.55.07-3.83.13-1.08.04-1.3-.13-1.31-1.2-.02-3-.28-26.31-.31-30.6,0-.64.32-.77.85-.77,2.1,0,4.2,0,6.29,0,.99,0,1.98-.04,2.97,0,.97.04,1.12.24,1.12,1.24,0,2.44.28,23.69.33,28.37Z" fill="#fff" stroke-width="0"/>
    </g>
  </g>
  <g id="_6UDCPA.tif" data-name="6UDCPA.tif">
    <g>
      <path d="M151.3,109.91c0,.6-.01,1.2,0,1.8.07,3.09.15,6.17.22,9.26.02.86-.34,1.24-1.19,1.24-3.2,0-6.4,0-9.6.01-.6,0-.84-.25-.85-.8-.02-.64-.05-1.28-.06-1.92-.09-7.56-.17-15.12-.25-22.68-.02-1.9,0-3.8,0-5.71,0-1.13.43-1.49,1.55-1.47,2.94.05,5.88.09,8.83.08,2.09,0,4.19-.11,6.28-.11,5.34-.01,7.96,2.32,9.35,6.51,1.24,3.71.56,7.01-2.13,9.88-.13.14-.27.27-.42.37-1.61,1.08-1.37.94-.81,2.51,1.46,4.08,3.01,8.12,4.54,12.18.35.93.25,1.12-.75,1.14-3.17.04-6.34.06-9.51.1-.69,0-1-.29-1.21-.99-.75-2.54-1.61-5.04-2.41-7.56-.32-1.02-.58-2.06-.89-3.08-.09-.29-.26-.55-.39-.83-.1.02-.2.04-.3.07ZM151.19,95.48v7.88c1.64.22,3.37-1.32,3.71-3.2.41-2.28-1.05-4.14-3.71-4.68Z" fill="#fff" stroke-width="0"/>
      <path d="M114.24,122.35c-.65-.07-1.1-.15-1.54-.17-1.1-.04-2.21-.04-3.31-.06-.96-.02-1.06-.18-.77-1.1,2.59-8.01,5.19-16.02,7.75-24.05.14-.44.1-1-.03-1.45-.46-1.53-1.01-3.04-1.52-4.56-.29-.88-.07-1.18.86-1.18,3.28-.02,6.56-.02,9.84-.07,1-.02,1.18.72,1.39,1.39.64,1.95,1.2,3.93,1.84,5.88,1.3,3.96,2.66,7.91,3.95,11.88,1.34,4.14,2.61,8.31,3.94,12.45.22.68.02.84-.63.84-3.12-.02-6.23-.03-9.35,0-.77,0-1.24-.29-1.48-.96-.3-.83-.56-1.67-.81-2.51-.23-.78-.76-1.27-1.56-1.25-2.14.04-4.29.11-6.43.22-.22.01-.53.3-.62.53-.54,1.39-1.04,2.8-1.53,4.17ZM119.37,106.28c-.09,0-.18.02-.28.02-.61,2.18-1.23,4.35-1.81,6.4h4.47c-.85-2.29-1.62-4.36-2.39-6.42Z" fill="#fff" stroke-width="0"/>
      <path d="M99.86,107.65v9.26c.94,0,1.66,0,2.37,0,1.29-.02,2.58-.07,3.86-.04.2,0,.54.37.56.58.11,1.42.15,2.84.22,4.26.02.45-.2.58-.64.58-3.58,0-7.15,0-10.73.01-2.12,0-4.24-.02-6.35.01-.76.01-1.02-.21-1.03-1-.08-7.41-.22-14.82-.32-22.22-.04-2.75,0-5.5-.03-8.25,0-.69.28-.95.97-.96,4.88-.05,9.76-.12,14.64-.19.78,0,1.56.02,2.34,0,.49-.01.75.14.76.68,0,1.21.05,2.41.06,3.62,0,.87-.4,1.19-1.31,1.19-1.63,0-3.27.04-4.9.06-.39,0-.62.1-.61.61.06,1.77.1,3.54.07,5.3-.01.76.24.98.97.93,1.15-.08,2.31-.07,3.46-.12.63-.02.9.17.86.89-.06,1.23,0,2.47.07,3.7.04.66-.23.95-.85.97-1.29.03-2.58.05-3.87.07-.16,0-.31.02-.56.03Z" fill="#fff" stroke-width="0"/>
      <path d="M184.91,96.93c-1.24-.54-2.28-1.06-3.37-1.43-.67-.23-1.42-.11-1.9.52-.5.66-.39,1.43.05,2.03.65.88,1.38,1.7,2.16,2.47,1.55,1.52,3.23,2.92,4.73,4.5,2.89,3.05,4.02,6.66,3,10.79-.21.84-.73,1.65-1.27,2.35-.57.73-1.31,1.35-2.03,1.95-3.52,2.98-9.2,3.74-13.24,1.42-1.88-1.08-3.48-2.36-4.88-3.97-.35-.4-.38-.7-.04-1.09.68-.79,1.34-1.6,2.01-2.41.32-.38.68-.4,1.06-.13.74.53,1.49,1.05,2.19,1.63.99.81,2.11,1.27,3.36,1.4.94.09,1.88-.03,2.42-.92.6-.99.65-2.11.03-3.06-.82-1.25-1.77-2.43-2.77-3.54-1.47-1.64-3.08-3.15-4.54-4.79-1.99-2.22-3.29-4.74-3.12-7.84.22-4.15,3.15-7.56,6.91-7.87,3.13-.26,6.02.54,8.58,2.37.78.56,1.51,1.2,2.26,1.81.39.32.48.7.2,1.13-.64.96-1.28,1.91-1.81,2.69Z" fill="#fff" stroke-width="0"/>
      <path d="M65.95,95.33c-1.7,0-3.28-.03-4.87.01-.66.02-.98-.23-.99-.85-.03-1.36-.03-2.72-.03-4.08,0-.58.37-.66.87-.66,4.06.01,8.12.03,12.18,0,3.21-.02,6.42-.09,9.64-.13.93-.01,1.08.15,1.09,1.06.02,1.13.03,2.25.04,3.38.01,1.13-.24,1.31-1.39,1.28-1.59-.05-3.19-.01-4.89-.01,0,.36,0,.65,0,.93.04,2.5.26,23.16.31,25.33.01.67-.43.56-.82.57-2.77,0-5.54,0-8.31,0-.61,0-1.23,0-1.84.06-.67.07-.87-.31-.87-.85-.01-.96.03-1.93.02-2.89-.03-1.63-.15-21.14-.15-23.14Z" fill="#fff" stroke-width="0"/>
    </g>
  </g>
</svg>