<svg xmlns="http://www.w3.org/2000/svg" width="202" height="103" viewBox="0 0 202 103"><path d="M120.15 35.33a1.43 1.43 0 0 0-.51-1.14 3 3 0 0 0-1.81-.42h-2.49V37h2.5a2.76 2.76 0 0 0 1.79-.45 1.52 1.52 0 0 0 .52-1.22zM119.07 30.34a1.43 1.43 0 0 0 .45-1.14 1.35 1.35 0 0 0-.45-1.08 2.4 2.4 0 0 0-1.56-.39h-2.17v3h2.13a2.41 2.41 0 0 0 1.6-.39zM102.68 35.33a1.43 1.43 0 0 0-.51-1.14 3 3 0 0 0-1.81-.42h-2.49V37h2.5a2.76 2.76 0 0 0 1.79-.45 1.52 1.52 0 0 0 .52-1.22zM101.6 30.34a1.43 1.43 0 0 0 .45-1.14 1.35 1.35 0 0 0-.45-1.08 2.42 2.42 0 0 0-1.57-.39h-2.16v3H100a2.41 2.41 0 0 0 1.6-.39zM80.18 70.72a2.06 2.06 0 0 0 .64-1.64 1.94 1.94 0 0 0-.64-1.55 3.47 3.47 0 0 0-2.24-.53h-3.1v4.31h3a3.5 3.5 0 0 0 2.34-.59zM80.53 34.34h3.49l-1.76-5.71-1.73 5.71zM81 76.22a4.2 4.2 0 0 0-2.59-.61h-3.57v4.61h3.58a4 4 0 0 0 2.58-.64 2.16 2.16 0 0 0 .74-1.73 2 2 0 0 0-.74-1.63zM153.47 35.26a7.63 7.63 0 0 0 .37-2.76A5.34 5.34 0 0 0 153 29a3.49 3.49 0 0 0-2.73-.93h-1.23v8.68h1.21a5.07 5.07 0 0 0 2.19-.34 2.34 2.34 0 0 0 1.03-1.15z" fill="#fff"/><path d="M106 4.94a203.76 203.76 0 0 0-22-1.22c-43.6 0-77.75 14.82-80.14 36.71C1.08 65.89 42.31 91.28 96 97.15a203.69 203.69 0 0 0 22 1.21c43.62 0 77.77-14.81 80.16-36.7C200.92 36.2 159.69 10.8 106 4.94zm21.83 19.56H141v3.4h-8.25v2.53h7.65v3.24h-7.65v3.13h8.48v3.6h-13.4zm-15.07 25.65v-3.91h3.47v11.19h-3.47V52.9H109v4.53h-3.46V46.24H109v3.91zM55.44 37.7a9 9 0 0 1-4 3.34 16.3 16.3 0 0 1-6.53 1.14q-6.93 0-9.59-2.66a10.53 10.53 0 0 1-3-6.77l8-.5a6.08 6.08 0 0 0 1.06 3 4.43 4.43 0 0 0 3.62 1.6 4.1 4.1 0 0 0 2.77-.85 2.42 2.42 0 0 0 0-3.84 10.79 10.79 0 0 0-4.29-1.57c-3.68-.83-6.3-1.92-7.87-3.29a6.63 6.63 0 0 1-2.37-5.24 7.11 7.11 0 0 1 1.22-3.95 8 8 0 0 1 3.64-2.92 17 17 0 0 1 6.67-1.07q5.2 0 7.93 1.94a8.36 8.36 0 0 1 3.3 6.16l-7.9.46A4.19 4.19 0 0 0 46.77 20a4.21 4.21 0 0 0-2.77-.82 3.36 3.36 0 0 0-2.2.62 1.9 1.9 0 0 0-.74 1.51 1.52 1.52 0 0 0 .61 1.17 7 7 0 0 0 2.81 1 35.1 35.1 0 0 1 7.87 2.39 8.23 8.23 0 0 1 3.46 3 7.63 7.63 0 0 1 1.08 4 8.59 8.59 0 0 1-1.45 4.83zm2.8-9.27V24.5h14.93v3.93h-5v12h-4.92v-12zm15.27 17.81v11.19H70V46.24zm14.43 35.58a6 6 0 0 1-2.25 2.23 7.24 7.24 0 0 1-2.66.74 31.26 31.26 0 0 1-3.15.32H67.75V62.36H80.9A7.2 7.2 0 0 1 86 64a5.3 5.3 0 0 1 1.76 4 5.11 5.11 0 0 1-1.26 3.46A5.6 5.6 0 0 1 84 73a6.31 6.31 0 0 1 3.61 2 5.58 5.58 0 0 1 1.16 3.61 6.18 6.18 0 0 1-.83 3.21zM76 57.43V46.24h3.23l4.21 6.19v-6.19h3.26v11.19h-3.25l-4.19-6.15v6.15zm9.82-17L85 37.78h-5.54l-.78 2.62h-5l6-15.9H85l6 15.9zm7.08-15.9h9.2a5 5 0 0 1 3.53 1.14 3.69 3.69 0 0 1 1.23 2.82 3.59 3.59 0 0 1-.88 2.42 3.87 3.87 0 0 1-1.72 1.06 4.48 4.48 0 0 1 2.53 1.42 3.94 3.94 0 0 1 .8 2.52 4.28 4.28 0 0 1-2.14 3.79 5.28 5.28 0 0 1-1.87.52 22.07 22.07 0 0 1-2.2.21h-8.47zm.52 21.74h10.51V49h-3.52v8.43H97V49h-3.57zm23.38 29.67a11.36 11.36 0 0 1-.63 3.81 8.16 8.16 0 0 1-2 3.13 7.84 7.84 0 0 1-2.81 1.88 14.13 14.13 0 0 1-4.92.76 29.81 29.81 0 0 1-3.62-.23 9.36 9.36 0 0 1-3.28-.92 8.36 8.36 0 0 1-2.42-2 7.35 7.35 0 0 1-1.49-2.62 13.4 13.4 0 0 1-.63-3.84V62.36h7v13.88a3.94 3.94 0 0 0 1 2.9 3.83 3.83 0 0 0 2.86 1 3.89 3.89 0 0 0 2.85-1 3.94 3.94 0 0 0 1-2.92V62.36h7zm-6.42-35.54V24.5h9.2a5 5 0 0 1 3.53 1.14 3.69 3.69 0 0 1 1.23 2.82 3.54 3.54 0 0 1-.88 2.42 3.89 3.89 0 0 1-1.71 1.06 4.48 4.48 0 0 1 2.52 1.42 3.89 3.89 0 0 1 .81 2.52 4.31 4.31 0 0 1-2.15 3.79 5.22 5.22 0 0 1-1.87.52 22.07 22.07 0 0 1-2.2.21zm8.14 5.84h9.27v2.39H122v1.78h5.38v2.28H122v2.2h6v2.54h-9.44zM142.89 68h-7.17v17.11h-7V68h-7.16v-5.64h21.36zm1.25-43.48h7.3a8.77 8.77 0 0 1 3.49.59 5.7 5.7 0 0 1 2.19 1.68 6.93 6.93 0 0 1 1.26 2.55 11.87 11.87 0 0 1 .39 3.08 10.58 10.58 0 0 1-.58 4 6.6 6.6 0 0 1-1.61 2.36 5.28 5.28 0 0 1-2.21 1.22 11.4 11.4 0 0 1-2.93.43h-7.3zM167.8 68h-7.17v17.11h-7V68h-7.17v-5.64h21.34z" fill="#fff"/><path d="M84 1a208.13 208.13 0 0 1 22.3 1.23c26.34 2.88 50.62 10.48 68.35 21.4C193 34.93 202.32 48.54 200.85 62c-.65 6-3.39 11.53-8.13 16.55-4.42 4.68-10.51 8.79-18.08 12.2-14.86 6.7-35 10.39-56.66 10.39a205.64 205.64 0 0 1-22.31-1.24C69.33 97 45.05 89.38 27.32 78.46 9 67.16-.32 53.55 1.15 40.13c.65-6 3.39-11.52 8.13-16.54 4.42-4.69 10.51-8.79 18.08-12.21C42.22 4.69 62.34 1 84 1m0-1.17c-21.85 0-42.14 3.73-57.15 10.49C19.17 13.8 13 18 8.43 22.79 3.51 28 .67 33.79 0 40c-1.53 13.9 8 27.9 26.71 39.45C44.58 90.46 69 98.12 95.54 101a205.63 205.63 0 0 0 22.46 1.25c21.84 0 42.13-3.72 57.14-10.48 7.71-3.48 13.92-7.67 18.45-12.47 4.92-5.21 7.76-11 8.44-17.22 1.52-13.89-8-27.9-26.72-39.44C157.42 11.63 133 4 106.46 1.07A208.12 208.12 0 0 0 84-.17z" fill="#fff"/></svg>