<svg xmlns="http://www.w3.org/2000/svg" width="350" height="47" viewBox="0 0 350 47"><path d="M287.44,28.1c-2.78,2.39-5.08,5.67-9,6.17-2.42.34-3.67-.87-3.12-3.21.09-.38.31-.76-.06-1.24-4.79,3.29-14.62,8.25-17.88.68-.15-.9-.57-1-1.29-.46-7.81,7.44-16,6.24-8.11-5.18.28-.46.87-1,.3-1.54-1.37-.89-2.81.87-3.59,1.86-3.32,3.55-12.77,14.58-17,7.68-1-2.8-5.83,2.22-8.07,2.31-6.44,2.12-16.29-.83-16.49-8.59-.87-5.8,3.31-7.8-4.9-7.77-9.88-.31-10.14-11.51-.89-13.5a41.71,41.71,0,0,1,16.84-.38,5.13,5.13,0,0,0,4.28-1A19,19,0,0,1,225.41.73c2.58-.58,5.55-.17,7,3.43.31,4-3.43,7.53-6.51,9.69-4.36,4.14-5.2,8.67-12.2,10.19-.39.11-1,.39-1.19-.18s.33-.82.79-1c2.19-1.22,7.59-3.57,7.76-6.21-.45-.79-1.32-.19-1.93.06a33.93,33.93,0,0,1-8.24,2.43c-3.76,1.61-3.23,9.07-.85,12.27,5.55,5.81,14-.35,19.07-3.93,3.56-2.15,3.25-9,7.83-9.12,2.62.29-4,10.3-4.56,12.15-2.12,6.22,10-5.34,11-6.43a3.58,3.58,0,0,0,1.09-2.76c-.34-2.35,3.47-5.36,4.69-2.3.42.9,1.13.71,1.84.59,1.12-.11,6.27-2.75,5,.18a63.69,63.69,0,0,0-6.5,9.54c-2.64,8.58,11.89-7.66,13.3-8.72,3-2.15,7.34-5.37,10.95-2.66a2.75,2.75,0,0,1-.7,4.74c-6.39,1.7-1.34-2.26-2.74-3.07-4.76-2.21-17.19,20.55,1.26,9.87A50.9,50.9,0,0,0,282.3,18.4c.84-1.39,5-2,3.57.47-2,3.47-3.52,7.15-5.3,10.73-.23.36-.39.9.06,1.23,2.27,0,6-5.1,7.87-6.76,2.67-2,4.16-6.93,7.91-6.6,2.72-.12-4.11,9.8-4.41,11.49-.85,1.19.3,2.42,1.34,1.26,4.85-3.27,8.15-8.15,12.17-12.3,1-.9,4.79-.82,3.2,1.32C307.5,22,303.13,28.18,304,30.78c3.9-.59,9.77-7.38,12.58-10.37,1.68-1.63-2-.91-1.73-2.41.14-.65.61-1.13,1.24-1,3.68.54,3.46-4.27,5.59-6.17.81-1.27,4.38-1.58,3.46.58-.07,1.87-4,4.9-1.07,5.79,1,.24.63,1.92-.25,1.77-1.87-.34-2.18,1-2.78,2.24-.36,1.41-7.06,11.75-1.79,8.73,3.94-3.07,7.89-6.31,10.77-10.45,1.74-2.63,7.71-4.28,10.1-3.38,6.22,1.71-2.89,7.59-2.27,3.34.05-1-.35-1.3-1.27-1.15-4.95.78-.23,4,1.24,5.9,1.61,2.11-.77,5.76,2.64,3.43a39,39,0,0,0,7.87-7.3c.38-.45.74-1.44,1.52-.87,2,4.3-13.3,13.54-17.44,13.57-9.22,2.18-7.55-4.77-10-2.52-2.13,3-11.52,5.68-10.17-.45.29-.63.53-2.15-.64-1.48-4.4,3-11.83,9.93-12.33.15-1.9,0-4,3.35-6.16,4-2.33,1.52-6.53,1.55-5.82-2.26A3.79,3.79,0,0,0,287.44,28.1ZM208,6.07c-4.8.35-14.76.53-13.47,7.54.91,3.82,6,2.94,9,3.92a1.81,1.81,0,0,0,2.21-1.06c1.53-3.23,4.2-5.53,6.65-8C214.56,6,209.44,6.09,208,6.07Zm13.78,5.76c-.39-1.62-2-2.78-3.27-3.71s-2.06,1.27-2.79,2.08c-.83,1.81-4.22,4.46-4,6.12C212.53,17.33,222.38,13.62,221.78,11.83ZM334.67,28.46c.12-1.58-3.73-5.7-5.09-5.07-.76.93-4.37,3.43-2.18,4.23,1,.07,2,0,2.4.44.22.27.19.73-.25,1.5C328.33,32.82,335,30.7,334.67,28.46ZM226.76,2.91c-1.49,0-7.65,1.76-5.83,3.93,1.63.55,2.65,3.73,4.3,3.17C227,8.59,230.87,3.68,226.76,2.91Z" fill="#fff"/><path d="M124.28,15c2.56-3.46,18.12-20.14,17.89-8-.92,3.91-3.84,7.07-4.55,10.9,5.43-4.27,10.84-15.21,18.87-14.7,4,2.1.06,7.66-1.57,10.31-2.84,4.1-14.37,25.06-1.07,15.45,6.66-3.74,7.17-13.31,12.24-12.12,1.73,1.34-6.84,11-5.09,13.05,5.87-.56,11.38-12.54,16.63-13.86,4.52-1.16-6.49,13.53-5.29,14.63,4.22-1.75,7.92-6,11.18-9.38.33-.3.64-1,1.18-.48.47,2-6.18,7.12-7.74,8.88-2.12,2.26-5.42,3.24-7.09,5.87-2.66,4.3-5.83,9.28-11,10.75-2.93.08-.55-5.16.63-6.37A27.11,27.11,0,0,1,166,34c1-2.08,2.48-4,2.78-6.33-3.19,1.46-9.86,8.84-11.95,2.76-.43-2.3-4.24,2.14-5.59,2.35-3,2.12-8.16,1-8.05-3.25.74-8.65,7.4-15,10.88-22.57.8-3.85-6.48,3.27-7.16,4.14a109.2,109.2,0,0,0-15.87,21,4.65,4.65,0,0,1-4.8,1.86c-3.76-1.35,13.84-24.58,11.94-28.41-4.88.65-13.6,12.81-16.75,17.13-3.22,3.51-4.15,11.27-9.94,11-1-.24-.78-1-.55-1.64,2.92-8.69,9.85-15.85,11.39-24.95.25-7.25-11.21-4.6-13.44,0-1.22,2-.86,5.59,2,5.77,1.44.57,4.25-1.48,4.82.25-.1,3.12-9.7,2.12-9.7-1.2-2.36-9.13,10.55-13.55,17.42-9.58C128,5.36,124.68,10.78,124.28,15Zm37.45,27.53c.59.1,5.44-5.06,3-4.63C163.74,38.56,160.26,41.59,161.73,42.55Z" fill="#fff"/><path d="M21.13,11.91c4.77-1.31,12.35,4.23,14.35,2C41.07,9.15,45.92,1.93,53.57.53c1.29-.1,1.7.46,1.08,1.61C52.19,7.5,43.15,18.24,44.1,23.58c1.25,2.47,2.76,11.84-2.07,10.28-6.6-3.54-1.11-10.08-3.1-12.95-1-.55-2-2.68-3.15-2C34.53,20.18,29,24.21,34,23.63a1,1,0,0,1,.26,2.05c-2.41.7-5-.62-7,1.43a47.19,47.19,0,0,1-10.34,5.94c-4.89,1.88-11.39,3-15.52-1-1.94-2-2.36-5.83,1.86-7.22,2.14-.91,10.26-.61,10.42,2.08-1.28,1.57-9.45-2.84-10.54,1.82.42,7.79,17.77,1.83,19.72-2.65-.15-.65-.72-.72-1.26-.83a26.62,26.62,0,0,1-7.6-2.6C6.34,17.8,14.49,10.4,21.13,11.91Zm0,2.2c-3.35-.55-9.42,1.67-6.49,5.82,2.44,2.77,6.64,2.93,10,3.63,3,.08,4.57-3.77,6.75-5.48C33.72,14.83,23.15,14,21.11,14.11ZM48,5.71c-4.21,2.05-6.42,6.32-9.38,9.7-1.76,1.38-.49,2.26.88,3.18s1.58,1,2.31-.63C43.45,13.57,46.26,10.09,48,5.71ZM41.56,28.44c-.23,1,.57,2.13,1,.71,0-.78.79-2.45-.2-2.61C41.52,26.44,41.82,27.83,41.56,28.44Z" fill="#fff"/><path d="M84.72,2.4c-.55,7.76-5,14.85-10.62,20C72,24.1,69.94,32.51,75,30.54a25.4,25.4,0,0,0,7.45-6.31c1-1.64,6.59-7,3.62-1.58C82.52,28.21,68,41.05,67.94,26.84c-.06-2.6-7.46,6.65-11.36,6.45C40.36,35.87,66-6.16,67.83,1.82c.55,4.53-1.67,8.93-3.53,12.92-2.48,5.07-10,8.77-8.23,15.16,1.3,3.17,12.69-7.09,13.34-9.15C69.64,18.06,84-7.89,84.72,2.4Zm-10,16.41C77.17,17.18,81,8.35,80.3,6,78.12,7,74.05,16.35,74.71,18.81Zm-15.85-2,.56.3a23.15,23.15,0,0,0,3.86-8.16C61,11.12,60.2,14.08,58.86,16.77Z" fill="#fff"/><path d="M312.79,10.92a2.36,2.36,0,0,1-4.68.46C308.71,8.63,312.09,8.08,312.79,10.92Z" fill="#fff"/><path d="M241.57,10.92a2.36,2.36,0,0,1-4.69.46C237.49,8.63,240.86,8.08,241.57,10.92Z" fill="#fff"/></svg>