<svg xmlns="http://www.w3.org/2000/svg" width="250" height="186" viewBox="0 0 250 186"><path d="M70.81 81.49c2.49-1.19 7.67-5.15 8.11-10.12.38-4.41-1.37-2.55-2.45-.82 0 0-2.92 5.85-8.15 5.92s-10.25-5.23-8.48-13S68.1 51 73 52.08c4 .9 4.08 4 4 5.15a13.29 13.29 0 0 0-5.64 4.12c-3.13 4.42-2.94 8.9-1 9.75s3.56-1.77 6-4.66 8.22-2.57 8.22-2.57a24.33 24.33 0 0 1-5 13.61l.25 1.35 14-4.47-.07-1.78A12.84 12.84 0 0 1 92 70.12c-.43-1 .12-4.41.18-6s2.15-1.84 3.37-2.27 1.54-.8 1.78.25 1.6 4.72 1.35 5.52-2.08 5-2.08 5l.24.73 12-3.91 13.56-4.24-.2-1.18s-4.75-1.23-5.14-4.23c-.27-2-2-17.57-2-17.57s3 3.45 4.49 5.07 2.93 2.09 3.48.72 1.73-5.66 1.73-5.66 2.21 15 1.69 17-3.12 4.1-3.12 4.1l.26 1.37 14.84-4.75s14-4.36 15.49-4.95.78-1.76 0-1.76-4.16.13-5.27-3.25a68.44 68.44 0 0 1-1.32-6.76c4.34-1.37 8.72-4.23 10.56-7.24 2-3.19 1.18-8.66.46-12.69a7.12 7.12 0 0 0-8.27-5.54c-3.12.85-16.14 5-16.14 5A2.48 2.48 0 0 0 134 24c.13.51 2.34.57 2.8 2.27.26 1 1.31 8.58 2.16 15.43a21.36 21.36 0 0 0-4.96 6.1c-1.06-8.27-2.57-20.44-2.75-22.35-.26-2.87-.65-3.06-.65-3.06a11.26 11.26 0 0 1-4.68 4.49l-4.69 15.3L110 29.55c-.9 1.95-4 4-4 4s.94 6.65 1.91 13.77a21.74 21.74 0 0 1-7.75 5.73c-1.46-3.76-2.91-7.63-4-10.53-2.58-7.18-3.13-6.63-3.13-6.63-1.54 2.76-5.65 3.11-5.65 3.11l-2.14 16.46a14.65 14.65 0 0 0-4.63.56c.22-2.37 1.67-17.71 1.87-20.26.21-2.76-1.19-1.55-2.59 0s-1.41 2.75-5.84 3.94S62.18 41.53 56.13 50s-6.48 21.34-1.51 28 13.71 4.68 16.19 3.49zM149.39 24a9.64 9.64 0 0 1 1.3 8.58 7.24 7.24 0 0 1-4.32 4.52c-.75-5-1.45-10.07-1.79-12.56 1.55-.65 4.18-1.49 4.81-.54zm-9.81 23.19c.27 2.47.47 4.43.5 5.33a10.83 10.83 0 0 1-1.9 5.91c-1.38-.91-3-2.13-3.18-2.88l-.06-.39a15.25 15.25 0 0 1 4.64-8.01zm-30.89 5.71c.73 5.48 1.32 10.24 1.32 11.21a5.89 5.89 0 0 1-1.79 3.9 6.28 6.28 0 0 1-2.92-2.55c-.59-1.09-1.81-4-3.22-7.54a34.21 34.21 0 0 0 6.61-5.02zm-15.62-1.11l.64-.64 1.18 3.75-1.82.61zM156.75 69.4c0-.25-.11-.91-1.95-.85a3 3 0 0 0-2.5 1.11s-.3 13.2-.39 15.34-1.28 2.23-2.34 2.34-2.34 0-2.34-2.23V73.62c0-1.28-1-1.23-2.17-.84s-2.23.61-2.23 1.9-.34 12.81-.84 14-2.67 2.34-3 1.68 1.34-5.13 1.23-9.31-1-5-3.73-5.52-5.85 2.79-5.85 2.79c0-1.5-.84-1.45-2.34-1.33s-2.23.72-2.29 2.11-.16 11.48-.28 13.43-.72 2.89-1.94 3.23-2.85 0-2.79-1.62 0-10.8 0-12.25-1.63-1.07-2.9-.67a2.45 2.45 0 0 0-1.78 2.56c-.11 1.62-.61 8 0 12.09s3 6.46 7.74 4.9a8.81 8.81 0 0 0 6.19-7.8c.28-2.39.55-9.75.55-9.75s1.73-1.5 3-2.5 2-.28 1.61 2.17-3.79 10 0 12.7 9.7-3.6 9.7-3.6a6 6 0 0 0 4.73.87 8.49 8.49 0 0 0 6.57-7c.45-3.62.73-11 .73-11 2.11-2.5 4.57-3.45 4.68-2.06s-1 4.74-1.34 6.86-1.17 6.57 2.28 7.85 8.47-4 8.47-4c1.23 1.61 3.85 1.22 3.85 1.22-.45.39-.78 2.79-.78 2.79a11.63 11.63 0 0 0-5 1.45c-2.11 1.34-3.95 4-4 5.79s-.5 5.68 5.35 6.85 11.81-4.17 13.87-7.07 2.84-5.24 1.34-8.3-6.46-1.73-6.46-1.73c-.34-1 1.11-2.67 2.56-4.79s1.39-7.3 1.33-10.36-.61-4.74-4-6.35-6.3 1.28-6.3 1.28-.39-3.79-3-4-3.57 2.29-3.23 4.35 2.17 2.34 2.78 1.89.84.84.84.84c-1.84 2.34-2 7.8-1.73 9.25a11.08 11.08 0 0 1 0 3.23c-.11 1.67-2.79 2.67-3.23 2.17s1.39-7.46 1.39-10-.83-4.29-3.68-4.84-6.35 3-6.35 3zm24.6 20.43c.35 1.17-2.06 3.43-4.94 5.27s-6.17 1.25-6.51.22 1-2.34 2.67-2.4 4.16-.06 5-1.31 3.43-2.95 3.78-1.78zm-7.47-19c1.44-2.56 3.08-3.52 4.59-1.88 0 0-.27 5.9-.48 8.09s-2.12 2.27-3.56 1.72-1.99-5.33-.55-7.9zM29.94 68c2.37-.06 8.88-7.37 10.65-10.81s1.78-9.73-3.82-12.42-9.46 2.9-9.46 2.9c-9.63-6.4-13.5 2.53-12.91 8.35S27.58 68 29.94 68zM181.41 24c2.37-.05 8.87-7.37 10.65-10.81s1.77-9.73-3.82-12.42-9.46 2.9-9.46 2.9c-9.63-6.39-13.5 2.53-12.91 8.35S179 24 181.41 24zM211.23 37.54c2 0 7.64-6.35 9.17-9.31s1.53-8.39-3.29-10.7S209 20 209 20c-8.29-5.51-11.63 2.18-11.12 7.19s11.31 10.39 13.35 10.35zM175.73 38.14c-6.29-4.18-8.82 1.65-8.44 5.45s8.61 7.86 10.16 7.83 5.79-4.81 7-7.06 1.16-6.36-2.49-8.12-6.23 1.9-6.23 1.9zM237.21 106.85c-3.66-1.76-6.2 1.9-6.2 1.9-6.3-4.19-8.83 1.66-8.45 5.47s8.63 7.87 10.18 7.84 5.81-4.82 7-7.08 1.13-6.37-2.53-8.13zM206.25 146c-3.66-1.76-6.19 1.9-6.19 1.9-6.3-4.19-8.84 1.65-8.45 5.46s8.62 7.88 10.17 7.84 5.81-4.82 7-7.07 1.14-6.33-2.53-8.13zM174.52 139.35c-8.06-3.87-13.64 4.19-13.64 4.19-13.86-9.22-19.44 3.64-18.59 12s19 17.33 22.39 17.26 12.78-10.6 15.32-15.55 2.57-14.02-5.48-17.9zM118.69 163c-5.48-2.63-9.28 2.85-9.28 2.85-9.43-6.27-13.23 2.48-12.65 8.18s12.92 11.8 15.24 11.74 8.69-7.22 10.43-10.59 1.74-9.54-3.74-12.18zM43.64 163.28c-3.76-1.81-6.36 1.95-6.36 1.95-6.47-4.3-9.08 1.7-8.68 5.61s8.86 8.09 10.45 8.06 6-5 7.16-7.27 1.19-6.54-2.57-8.35zM36.08 117.71c8.09-7.62 34.21-13.53 34.21-13.53-1.4-2.33-1.24-7.46-1.24-7.46s-4 2.27-18.79 5.84c-9.39 2.28-14.44-4.66-17.6-8.8-2.36-3.09-7-13.84-11.28-15.7s-18.11.15-16.71 15.55 20.84 16.48 20.84 16.48S8.4 116.47 3.27 127.2s-4.51 21.61 3.89 23.94 13.84-5 15.7-10.42 5.14-15.39 13.22-23.01zM226.85 54.26l7.07-2.26 1.08 9.16 15-16.65-18-8.75 1 9.49-6 1.75c-1-2.45-3.37-4.2-6.84-5.16-7-2-9.92 5.76-9.92 5.76s-6.53-7.29-13.14-1.87c-4.45 3.66-3.82 8.13-2.08 11.49L184.3 60.5s2.87 3.2 2.54 6.48l13.36-4c4.47 2.9 10.88 4.65 13 7.91 3.47-7 8.9-6.61 12.63-14.24a21.58 21.58 0 0 0 1.02-2.39zM200.29 83.69c-.61-3.89 2.43-4.34 4-3.38s2.43 5.33 3.69 5.33c.52 0 4.21-10.66 4.21-10.66-.82-1.74-7.79-2.77-12.51.61a15.31 15.31 0 0 0-6 16.43c1.64 7.19 10.56 10.64 13.65 14.35s1 6.75-3 8.37-7.08-2.23-7.9-3.57-2.77-3.69-3.08-1.61-2 10.33-2 10.33c9.64 6.46 18.36.71 23-6.46s1.54-14-2.15-18.56-11.29-7.28-11.91-11.18zM118.11 78.86a3.34 3.34 0 1 0-2.64-3.76 3.24 3.24 0 0 0 2.64 3.76z" fill="#fff"/><path d="M144.4 70.82a3.34 3.34 0 1 0-2.63-3.77 3.25 3.25 0 0 0 2.63 3.77zM191.37 106.37c-.1-1.54-.35-3.68-.52-5s-.11-2.9-.9-2.73-19.8 6.19-19.8 6.19c-1.49.47-2.22.56-2 4.53s1.36 5.17 1.36 5.17c2-.29 3.69-5.85 4.77-7.09s1.36-.06 1.76 2.38a61.06 61.06 0 0 1 .45 9.81 19.39 19.39 0 0 1-1.59 4.66 12.91 12.91 0 0 1-6-5.85c-2.27-4.37-6-4.31-6-4.31 1.37-1.36 2.1-4.25 1.14-7.66s-5.33-4.42-8.74-3.4-15.2 4.93-15.2 4.93l.22 1.42c.74 0 2.78 1.08 2.95 2.55s.57 5.68.57 5.68c-1.64-.63-5.67 1.81-5.67 1.81l-4.48-11-10.39 3-1.19 8.74c-1.64-1-6.58-.8-10.21 1s-7.94 9-7.94 9-.8-6.92-.8-7.88-.11-4.14 4-5.51 8.29 1.88 8.29 1.88l1-.91c-.57-.74-.74-6.36-.74-6.36L96.9 117.1a42.46 42.46 0 0 0 .91-8.68A18.16 18.16 0 0 0 109 102a17.17 17.17 0 0 0 4.31-11c0-1.47.45-13.27-12.6-14.86a25.09 25.09 0 0 0-25.08 12.14c-3.8 6.24-3.52 12.2.34 16.34s9.25 3.29 10.89 2.21.63-2-2-3.69-5.33-5.73-3.69-11.68 9.42-8.72 9.42-8.72c-.68.65-.91 4.86-1 8.15s.34 18.32.23 25.47a29.79 29.79 0 0 1-3.64 13.11s-.62-4.88-.85-7.15-.9-6.3.29-8.17a6.23 6.23 0 0 0 .73-4.14l-13.21 4.52a4.31 4.31 0 0 0 1.3 2.17 7.35 7.35 0 0 1 2.33 5c.28 2.73 1.76 13.45 1.76 13.45-4.77 1.13-12.71-1.82-12.71-1.82s-.74-6.69-.91-8.34a9.77 9.77 0 0 1 1-5.44 5 5 0 0 0 .63-3.12l-13.11 4v1.37a12.62 12.62 0 0 1 3 3.91 18.18 18.18 0 0 1 .68 5.67c-10.09-1.75-15.88 2.5-18 4.71s-7.72 9.14-5.39 12.71 5.28 1.59 7.15-.4 5.27-6.63 8.51-7.66 9.25.34 9.25.34 1.87 15 1.93 17.93A14.87 14.87 0 0 1 59 165a4.76 4.76 0 0 0 0 2.33l13.27-4.15s0-.51-.11-1.24-2.38-2.5-3.46-6.41-1.48-12.83-1.48-12.83c8.06.91 12.09-.62 12.09-.62s2.1 8.51.62 13.84-1.08 5.16-1.08 5.16l13.45-4.31v-1.25a13.83 13.83 0 0 1-3.8-6.52c-.74-3.69-1.42-11.8-1.42-11.8 3.8-2.78 7.66-11 7.66-11s1.53 11.12 1.81 14.13a14.68 14.68 0 0 1-.79 7.55c-1 2.21-.62 3.12-.62 3.12l34.95-11s.29-1.19-.22-1.66-1.65-1.68-1.59-2.7.34-3.75.34-3.75c3.8 1.31 6.81-1.64 6.81-1.64a7.09 7.09 0 0 1 .73 2.66c.17 1.7-2.1 4.82-2.1 4.82l.29 1.08s24.17-7.83 25-8.11.91-1.48.28-1.59a17.4 17.4 0 0 1-4.37-.61c-2.6-.72-2.38-7.67-2.38-7.67a8.77 8.77 0 0 0 4.37-1.82c3.29.74 5.67 5.51 6.52 7.15s1.37 2.72 3.18 2.21 21.39-6.86 21.39-6.86c0-2-1.42-3-2.55-4.31s-1.71-9.36-1.88-10.79.06-2.54.86-2.6 3.34 2.72 4.82 3.69 1.89.41 1.78-1.13zM97.15 80.86s7.52-1.28 9.41 4.85-1.94 15-6.29 16.1c-5.63 1.39-3.12-20.95-3.12-20.95zm22.11 56.49c-.46 0-1-3.91-1-3.91-.8-.28-1-.57-2 1.59a49.37 49.37 0 0 1-5.1 8c-1.36 1.44-5 2.86-5.34-2.19a13.44 13.44 0 0 1 6.46-12.08c3.68-2 7.33-1.19 8.35 1.59s-.92 7-1.37 7zm10.09-13.73l.4-7 1-.46 2.67 7.43s-2.82 1.41-4.07.03zm16 5.51a14 14 0 0 1-1.36 3.46s-1.62-1-3.25-6.3c0 0 2.23-2.72 3.65-2.67 0 0 1.25 3.98.96 5.51zm6.81-12.94l-1.08-7.26s5.68-3.52 6 1.19-4.92 6.07-4.92 6.07z" fill="#fff"/></svg>