<svg xmlns="http://www.w3.org/2000/svg" width="180" height="135" viewBox="0 0 180 135"><path d="M27.94,1V48.34H15.79V28.45H12.15V48.34H0V1H12.15V17.93h3.64V1Z" fill="#fff"/><path d="M60.58,28.72q0,7.13-.33,10.1a11.57,11.57,0,0,1-2.08,5.43A11.34,11.34,0,0,1,53.45,48a16.94,16.94,0,0,1-6.93,1.31,17.38,17.38,0,0,1-6.74-1.24A11.07,11.07,0,0,1,35,44.36,11.28,11.28,0,0,1,32.81,39a102,102,0,0,1-.34-10.23v-8.1q0-7.14.33-10.11a11.33,11.33,0,0,1,2.08-5.42A11.07,11.07,0,0,1,39.6,1.32,16.92,16.92,0,0,1,46.52,0a17.38,17.38,0,0,1,6.74,1.24A11.16,11.16,0,0,1,58.07,5a11.3,11.3,0,0,1,2.16,5.41,101.28,101.28,0,0,1,.35,10.24ZM48.43,13.16a15,15,0,0,0-.36-4.23A1.44,1.44,0,0,0,46.58,8a1.66,1.66,0,0,0-1.46.75c-.33.5-.5,2-.5,4.4V35.27A22.2,22.2,0,0,0,45,40.36a1.45,1.45,0,0,0,1.54,1,1.5,1.5,0,0,0,1.59-1.11,23.64,23.64,0,0,0,.35-5.29Z" fill="#fff"/><path d="M93.48,21.61H81.33V13.38a15,15,0,0,0-.39-4.48A1.67,1.67,0,0,0,79.22,8a1.79,1.79,0,0,0-1.9,1.08,16.66,16.66,0,0,0-.41,4.68v22a15.41,15.41,0,0,0,.41,4.5,2.06,2.06,0,0,0,3.59,0,17.45,17.45,0,0,0,.42-5v-6H93.48v1.85q0,7.35-1,10.42A10.58,10.58,0,0,1,87.92,47a15.38,15.38,0,0,1-8.64,2.31,17.75,17.75,0,0,1-8.8-1.95A9.51,9.51,0,0,1,65.89,42a36,36,0,0,1-1.13-10.43V17.69A62.16,62.16,0,0,1,65.11,10a10.85,10.85,0,0,1,2.06-4.93,11.58,11.58,0,0,1,4.76-3.73,17,17,0,0,1,7-1.36,17,17,0,0,1,8.86,2.1,10,10,0,0,1,4.59,5.25q1.09,3.14,1.1,9.76Z" fill="#fff"/><path d="M126.8,1l-7,21.38,7.63,26H114.91L110,28.05V48.34H97.84V1H110v18.4L115.4,1Z" fill="#fff"/><path d="M129.55,1h20.26v9.48H141.7v9h7.59v9H141.7V38.87h8.92v9.47H129.55Z" fill="#fff"/><path d="M180,1,171.14,31.2V48.34H159.88V31.2L151.34,1H162.5q2.63,13.88,2.95,18.66,1-7.57,3.39-18.66Z" fill="#fff"/><path d="M45.56,55.19v77.22H25.75V100H19.82v32.43H0V55.19H19.82V82.81h5.93V55.19Z" fill="#fff"/><path d="M73.34,55.19v77.22H53.52V55.19Z" fill="#fff"/><path d="M126.76,83.62H107v-7q0-6.63-.57-8.3a2.94,2.94,0,0,0-5.18-.24q-.66,1.43-.66,7.35v37.06q0,5.19.66,6.84a2.57,2.57,0,0,0,2.64,1.65,2.91,2.91,0,0,0,2.94-1.86q.78-1.86.78-7.25V102.7h-4V91h23.2v41.44H114.31l-1.83-5.53a14,14,0,0,1-5.11,5.37,14.31,14.31,0,0,1-7.28,1.79,18.7,18.7,0,0,1-9.35-2.46,18,18,0,0,1-6.62-6.08,19.44,19.44,0,0,1-2.83-7.61,94,94,0,0,1-.56-12V83q0-11.07,1.17-16.07t6.76-9.19q5.58-4.17,14.43-4.17,8.7,0,14.45,3.63T125,65.81q1.74,5,1.74,14.47Z" fill="#fff"/><path d="M180,55.19v77.22H160.18V100h-5.93v32.43H134.44V55.19h19.81V82.81h5.93V55.19Z" fill="#fff"/></svg>