<?xml version="1.0" encoding="UTF-8"?><svg id="logos" xmlns="http://www.w3.org/2000/svg" width="100" height="125" viewBox="0 0 100 125"><g><path d="M30.58,3.56c-.19-.62-.39-1.16-.69-1.61-.4-.66-.7-.81-1.83-.81h-2.1c-.62,0-.69,.06-.69,.68V6.55h2.5c1.44,0,1.56-.26,1.87-1.71h.65v4.38h-.67c-.26-1.44-.44-1.78-1.85-1.78h-2.5v3.62c0,1.82,.19,1.91,2.07,2.07v.61h-5.91v-.61c1.66-.13,1.84-.27,1.84-2.07V2.97c0-1.81-.2-1.91-1.84-2.07V.29h6.65c1.85,0,2.61-.02,2.96-.04,.02,.67,.11,2.18,.21,3.22l-.67,.09Z" fill="#fff"/><path d="M45.38,13.91c-.24,0-.48-.02-.74-.04-1.71-.11-2.51-.53-3.37-1.74-.78-1.07-1.5-2.37-2.17-3.46-.4-.64-.67-.77-1.65-.77h-.67v3.21c0,1.75,.22,1.86,1.86,2.03v.61h-5.67v-.61c1.69-.18,1.84-.28,1.84-2.03V2.91c0-1.74-.22-1.83-1.84-2.01V.29h5.41c1.57,0,2.59,.19,3.39,.72,.85,.54,1.4,1.47,1.4,2.74,0,1.79-1.15,2.88-2.66,3.52,.36,.64,1.24,2.02,1.86,2.95,.76,1.11,1.16,1.63,1.62,2.14,.54,.59,.98,.81,1.47,.95l-.09,.6Zm-7.69-6.74c1.04,0,1.73-.16,2.23-.59,.79-.6,1.11-1.42,1.11-2.52,0-2.21-1.43-3.02-2.95-3.02-.59,0-.93,.08-1.07,.21-.18,.14-.24,.36-.24,.87V7.17h.92Z" fill="#fff"/><path d="M53.14,0c3.59,0,6.75,2.73,6.75,6.84,0,4.45-3.05,7.22-6.88,7.22s-6.92-3.02-6.92-6.94c0-3.68,2.61-7.13,7.04-7.13Zm-.4,.79c-2.28,0-4.29,1.97-4.29,5.8s1.98,6.66,4.9,6.66c2.41,0,4.23-1.87,4.23-5.83,0-4.3-2.18-6.63-4.83-6.63Z" fill="#fff"/><path d="M73.27,13.75v-.61c1.68-.17,1.75-.29,1.73-2.45V2.31c-1.65,3.75-4.18,9.31-5.05,11.44h-.56c-.82-2.15-3-7.52-4.56-11.24-.34,7.11-.35,8.69-.35,9.14,.02,1.15,.52,1.34,1.95,1.49v.61h-4.95v-.61c1.2-.12,1.7-.37,1.87-1.51,.12-.86,.15-1.68,.68-9.11,.08-1.06-.12-1.45-1.93-1.62V.29h3.76l4.47,10.25L75.06,.29h3.76V.9c-1.76,.2-1.98,.38-1.94,1.87l.1,7.92c.07,2.15,.14,2.25,1.93,2.45v.61h-5.65Z" fill="#fff"/></g><g><path d="M43.18,22.37c-.15-.53-.36-1.06-.53-1.33-.25-.4-.4-.51-1.26-.51h-1.45v7.48c0,1.22,.13,1.38,1.58,1.47v.46h-4.61v-.46c1.42-.1,1.54-.24,1.54-1.47v-7.48h-1.32c-.85,0-1.1,.1-1.37,.55-.19,.31-.33,.71-.53,1.29h-.49c.1-.98,.19-1.99,.24-2.84h.38c.23,.37,.4,.36,.84,.36h6.14c.43,0,.57-.07,.81-.36h.39c0,.71,.06,1.87,.14,2.79l-.49,.05Z" fill="#fff"/><path d="M55.72,20.36c-1.27,.12-1.39,.2-1.39,1.5v6.15c0,1.3,.14,1.35,1.39,1.48v.46h-4.26v-.46c1.27-.15,1.39-.19,1.39-1.48v-3.06h-5.09v3.06c0,1.28,.13,1.34,1.37,1.48v.46h-4.24v-.46c1.23-.14,1.38-.19,1.38-1.48v-6.15c0-1.3-.14-1.38-1.38-1.5v-.46h4.24v.46c-1.23,.11-1.37,.22-1.37,1.5v2.41h5.09v-2.41c0-1.28-.17-1.39-1.39-1.5v-.46h4.26v.46Z" fill="#fff"/><path d="M65.35,27.46c-.09,.4-.51,2.03-.66,2.49h-7.61v-.46c1.43-.11,1.54-.24,1.54-1.52v-6.07c0-1.37-.17-1.45-1.31-1.55v-.46h4.79c1.48,0,2.08-.02,2.27-.03,.02,.37,.08,1.55,.14,2.39l-.49,.08c-.14-.53-.31-.91-.5-1.22-.25-.47-.58-.58-1.48-.58h-1.39c-.5,0-.54,.04-.54,.51v3.38h1.68c1.11,0,1.2-.23,1.39-1.29h.5v3.23h-.5c-.21-1.12-.33-1.28-1.41-1.28h-1.66v3c0,1.08,.28,1.21,1.09,1.23h1.38c.93,0,1.1-.13,1.44-.54,.31-.35,.63-.97,.85-1.45l.48,.13Z" fill="#fff"/></g><g><path d="M36.05,54.91c3.52,0,6.62,2.67,6.62,6.71,0,4.36-2.99,7.08-6.74,7.08s-6.79-2.96-6.79-6.8c0-3.6,2.56-6.99,6.91-6.99Zm-.39,.78c-2.24,0-4.21,1.93-4.21,5.69s1.94,6.52,4.8,6.52c2.36,0,4.15-1.83,4.15-5.72,0-4.22-2.13-6.5-4.74-6.5Z" fill="#fff"/><path d="M58.48,55.8c-1.28,.09-1.73,.42-1.78,1.32-.03,.49-.07,1.32-.07,3.1v2.28c0,2.01-.25,3.63-1.43,4.86-.95,.99-2.34,1.32-3.75,1.32-1.21,0-2.48-.25-3.38-.96-1.21-.93-1.8-2.3-1.8-4.65v-5.17c0-1.83-.17-1.96-1.78-2.1v-.6h5.51v.6c-1.61,.11-1.77,.27-1.77,2.1v5.13c0,2.84,1.35,4.44,3.74,4.44,2.8,0,3.74-1.79,3.74-5.1v-2.15c0-1.78-.06-2.55-.1-3.11-.06-.92-.55-1.24-2.04-1.32v-.6h4.9v.6Z" fill="#fff"/><path d="M71.76,68.55c-.24,0-.47-.02-.73-.04-1.68-.11-2.46-.52-3.31-1.71-.76-1.05-1.47-2.32-2.12-3.39-.39-.63-.65-.75-1.62-.75h-.66v3.14c0,1.71,.22,1.82,1.83,1.99v.6h-5.56v-.6c1.66-.18,1.81-.27,1.81-1.99v-8.04c0-1.7-.22-1.79-1.81-1.97v-.6h5.3c1.54,0,2.54,.19,3.33,.7,.83,.53,1.38,1.44,1.38,2.68,0,1.76-1.13,2.83-2.6,3.46,.35,.63,1.21,1.98,1.82,2.9,.74,1.08,1.14,1.6,1.59,2.09,.53,.58,.96,.79,1.45,.93l-.09,.59Zm-7.53-6.6c1.02,0,1.69-.16,2.19-.58,.77-.59,1.09-1.39,1.09-2.48,0-2.17-1.4-2.96-2.89-2.96-.58,0-.91,.08-1.05,.2-.18,.14-.23,.35-.23,.85v4.95h.9Z" fill="#fff"/></g><g><path d="M32.58,89.54c-.18,.81-1.02,4.06-1.32,4.97h-15.2v-.91c2.86-.23,3.07-.48,3.07-3.03v-12.13c0-2.73-.35-2.89-2.62-3.1v-.92h9.56c2.97,0,4.15-.03,4.53-.06,.03,.73,.16,3.09,.28,4.78l-.98,.15c-.28-1.05-.63-1.81-1-2.44-.51-.95-1.16-1.16-2.96-1.16h-2.77c-1,0-1.07,.09-1.07,1.01v6.76h3.36c2.21,0,2.39-.46,2.78-2.58h1v6.46h-1c-.42-2.24-.67-2.56-2.81-2.56h-3.33v6c0,2.16,.57,2.43,2.18,2.46h2.75c1.86,0,2.19-.27,2.87-1.08,.62-.69,1.26-1.94,1.71-2.89l.97,.25Z" fill="#fff"/><path d="M51.6,75.35c-2.13,.24-2.56,.6-3.78,2.56-1.34,2.19-2.45,4.25-3.96,7.06-.35,.67-.44,1.04-.44,1.79v3.81c0,2.59,.27,2.76,3.09,3.04v.92h-9.03v-.92c2.75-.36,2.96-.43,2.96-3.04v-3.91c0-.63-.12-.91-.57-1.73-1.05-1.98-2.12-3.94-3.82-6.91-1.19-2.08-1.53-2.46-3.58-2.67v-.92h7.86v.92c-2.2,.3-2.08,.71-1.53,1.76,1.25,2.31,2.68,5.04,3.95,7.34,1.08-2.01,2.79-5.3,3.66-7.04,.69-1.49,.57-1.81-1.83-2.07v-.92h7.02v.92Z" fill="#fff"/><path d="M69.29,89.54c-.18,.81-1.02,4.06-1.32,4.97h-15.2v-.91c2.86-.23,3.07-.48,3.07-3.03v-12.13c0-2.73-.35-2.89-2.62-3.1v-.92h9.56c2.97,0,4.15-.03,4.53-.06,.03,.73,.16,3.09,.28,4.78l-.98,.15c-.28-1.05-.63-1.81-1-2.44-.51-.95-1.16-1.16-2.96-1.16h-2.77c-1,0-1.07,.09-1.07,1.01v6.76h3.36c2.21,0,2.39-.46,2.78-2.58h1v6.46h-1c-.42-2.24-.67-2.56-2.81-2.56h-3.33v6c0,2.16,.57,2.43,2.18,2.46h2.75c1.86,0,2.19-.27,2.87-1.08,.62-.69,1.26-1.94,1.71-2.89l.97,.25Z" fill="#fff"/><path d="M82.34,79.2c-.54-2.03-1.41-4.08-4.3-4.08-2.3,0-3.19,1.67-3.19,3.3,0,2.05,1.32,3.12,3.91,4.46,3.64,1.87,5.33,3.32,5.33,6.28,0,3.32-2.85,5.82-6.91,5.82-1.88,0-3.51-.53-4.81-1.01-.24-.84-.63-3.14-.85-4.77l1-.25c.62,2.05,2.04,4.86,5.22,4.86,2.16,0,3.48-1.48,3.48-3.48,0-2.27-1.24-3.25-3.94-4.71-3.24-1.76-5.11-3.25-5.11-6.18s2.33-5.43,6.51-5.43c1.8,0,3.49,.46,4.14,.58,.12,1.12,.26,2.42,.51,4.42l-1,.2Z" fill="#fff"/></g><g><path d="M12.59,49.67v-.65c1.79-.18,1.86-.31,1.84-2.61v-8.95c-1.76,4-4.46,9.94-5.39,12.21h-.6c-.87-2.3-3.2-8.02-4.87-12-.36,7.59-.38,9.27-.38,9.76,.02,1.23,.55,1.43,2.09,1.59v.65H0v-.65c1.28-.13,1.82-.39,1.99-1.61,.12-.92,.16-1.8,.72-9.72,.08-1.13-.12-1.55-2.06-1.73v-.65H4.67l4.77,10.94,5.07-10.94h4.01v.65c-1.88,.21-2.11,.41-2.07,1.99l.1,8.45c.08,2.3,.15,2.4,2.06,2.61v.65h-6.03Z" fill="#fff"/><path d="M27.86,34.99c3.84,0,7.21,2.91,7.21,7.3,0,4.74-3.25,7.71-7.34,7.71s-7.39-3.23-7.39-7.4c0-3.92,2.79-7.61,7.52-7.61Zm-.42,.85c-2.44,0-4.58,2.1-4.58,6.19s2.12,7.1,5.23,7.1c2.57,0,4.51-2,4.51-6.22,0-4.59-2.32-7.07-5.16-7.07Z" fill="#fff"/><path d="M49.34,49.67v-.65c1.79-.18,1.86-.31,1.84-2.61v-8.95c-1.76,4-4.46,9.94-5.39,12.21h-.6c-.87-2.3-3.21-8.02-4.87-12-.36,7.59-.38,9.27-.38,9.76,.02,1.23,.56,1.43,2.09,1.59v.65h-5.28v-.65c1.28-.13,1.82-.39,1.99-1.61,.12-.92,.16-1.8,.72-9.72,.08-1.13-.12-1.55-2.06-1.73v-.65h4.01l4.77,10.94,5.07-10.94h4.01v.65c-1.88,.21-2.11,.41-2.07,1.99l.1,8.45c.08,2.3,.15,2.4,2.06,2.61v.65h-6.03Z" fill="#fff"/><path d="M68.89,46.11c-.13,.58-.73,2.9-.95,3.56h-10.87v-.65c2.05-.16,2.2-.35,2.2-2.17v-8.68c0-1.95-.25-2.07-1.88-2.22v-.65h6.84c2.12,0,2.97-.02,3.24-.04,.02,.52,.11,2.21,.2,3.42l-.7,.11c-.2-.75-.45-1.3-.71-1.75-.36-.68-.83-.83-2.12-.83h-1.98c-.71,0-.77,.06-.77,.72v4.84h2.4c1.58,0,1.71-.33,1.99-1.85h.72v4.62h-.72c-.3-1.6-.48-1.83-2.01-1.83h-2.38v4.29c0,1.54,.41,1.74,1.56,1.76h1.97c1.33,0,1.57-.19,2.06-.77,.44-.5,.9-1.39,1.22-2.07l.69,.18Z" fill="#fff"/><path d="M85.68,35.96c-1.4,.16-1.86,.39-1.92,1.4-.03,.74-.08,1.63-.08,3.66v8.85h-.91l-9.42-11.47v5.43c0,1.98,.06,2.95,.11,3.59,.05,1.1,.59,1.46,2.19,1.59v.65h-5.39v-.65c1.35-.11,1.88-.44,1.98-1.52,.07-.72,.11-1.68,.11-3.68v-5.56c0-.64-.04-1.02-.45-1.52-.42-.55-.89-.67-1.95-.78v-.65h3.49l9.2,10.88v-5.16c0-2.03-.04-2.94-.11-3.63-.07-.99-.55-1.32-2.33-1.43v-.65h5.46v.65Z" fill="#fff"/><path d="M99.31,38.84c-.21-.76-.51-1.51-.75-1.89-.36-.57-.57-.73-1.81-.73h-2.07v10.7c0,1.75,.18,1.97,2.26,2.11v.65h-6.59v-.65c2.02-.14,2.2-.34,2.2-2.11v-10.7h-1.89c-1.22,0-1.57,.14-1.96,.78-.27,.44-.47,1.02-.76,1.85h-.69c.14-1.4,.27-2.85,.34-4.05h.54c.33,.53,.58,.52,1.21,.52h8.77c.62,0,.82-.1,1.16-.52h.55c0,1.02,.09,2.67,.2,3.98l-.69,.07Z" fill="#fff"/></g><g><path d="M33.23,124.1v-1.05c2.86-.28,2.98-.5,2.95-4.18l.02-14.32c-2.84,6.41-7.17,15.92-8.65,19.55h-.96c-1.4-3.68-5.13-12.84-7.8-19.21-.58,12.16-.61,14.84-.61,15.63,.04,1.97,.89,2.29,3.34,2.54v1.05H13.08v-1.05c2.05-.21,2.91-.62,3.19-2.57,.2-1.47,.25-2.88,1.16-15.57,.14-1.81-.2-2.48-3.3-2.76v-1.05h6.43l7.64,17.52,8.11-17.52h6.42v1.05c-3.01,.34-3.38,.65-3.31,3.19l.17,13.53c.12,3.68,.24,3.85,3.3,4.18v1.05h-9.66Z" fill="#fff"/><path d="M64.53,118.4c-.21,.93-1.17,4.65-1.52,5.7h-17.41v-1.04c3.28-.26,3.52-.55,3.52-3.47v-13.9c0-3.12-.4-3.31-3.01-3.55v-1.05h10.95c3.4,0,4.75-.04,5.19-.07,.04,.84,.18,3.54,.32,5.47l-1.12,.18c-.32-1.2-.72-2.07-1.14-2.8-.58-1.09-1.33-1.33-3.4-1.33h-3.17c-1.14,0-1.22,.1-1.22,1.16v7.74h3.85c2.53,0,2.74-.53,3.19-2.96h1.15v7.4h-1.15c-.48-2.56-.76-2.93-3.22-2.93h-3.81v6.87c0,2.47,.65,2.78,2.5,2.81h3.15c2.13,0,2.51-.31,3.29-1.23,.71-.79,1.45-2.22,1.96-3.31l1.11,.29Z" fill="#fff"/><path d="M85.63,106.76c-.33-1.22-.82-2.42-1.2-3.03-.58-.92-.92-1.17-2.89-1.17h-3.31v17.13c0,2.8,.3,3.16,3.62,3.37v1.05h-10.56v-1.05c3.24-.22,3.53-.55,3.53-3.37v-17.13h-3.03c-1.95,0-2.52,.23-3.13,1.25-.44,.7-.76,1.63-1.22,2.96h-1.11c.22-2.24,.44-4.56,.54-6.49h.86c.53,.84,.93,.83,1.93,.83h14.04c.98,0,1.31-.15,1.85-.83h.88c0,1.63,.15,4.28,.32,6.38l-1.11,.11Z" fill="#fff"/></g></svg>