<svg xmlns="http://www.w3.org/2000/svg" width="300" height="31" viewBox="0 0 300 31"><path d="M1.86,21.73C1,21.79.52,20.49.22,19.85c-.07-.14-.14-.28-.22-.42v4.34H0c.51-.12,1-.07,1.55-.14,1.07-.14,1.6-1.14,2.42-1.69V16.8a1.48,1.48,0,0,1-.63.66,9.4,9.4,0,0,1-.31,2c-.21.65-.93,1-.79,1.76A.44.44,0,0,1,1.86,21.73Z" fill="#fff"/><path d="M25.24,14.72h0c0-.62,0-1.21-.11-1.78a1.12,1.12,0,0,0-.51,0,.44.44,0,0,1-.49-.63,6.32,6.32,0,0,0,.58-1.55,12,12,0,0,0-.83-2.25,12.86,12.86,0,0,0-3.6-4.45l-.2-.15-.09,0a2.78,2.78,0,0,1-1.52-1v0a14.42,14.42,0,0,0-3.15-1.34A19.93,19.93,0,0,0,11.94.86a3.78,3.78,0,0,0-.33.83.44.44,0,0,1-.53.29,3.85,3.85,0,0,1-1.14-.44A3.07,3.07,0,0,0,8.8,1.07c-.67,0-1.12.63-1.75.69S5.66,1,5,.76l-.12,0H0V9.15a2.65,2.65,0,0,1,.87.52.42.42,0,0,1,.11.42,2.64,2.64,0,0,1-1,1.28v4.85a1.09,1.09,0,0,1,.94-.28.86.86,0,0,1,.34.18c.14-.59.25-1.21.83-1.49s1.29-.26,1.53.29l.36,0V12.43a1.67,1.67,0,0,1-.57-.23.78.78,0,0,1-.37-.69,1.38,1.38,0,0,1,.26-.64c.12-.18.26-.35.39-.53l.19-.27L4,9.91V4.2H9a16.42,16.42,0,0,1,2.85.25l0,0a5.46,5.46,0,0,1,3.15.47.43.43,0,0,1,.29.52l0,.09a10.83,10.83,0,0,1,2.19,1.38,4.5,4.5,0,0,1,1.36-.11h.06l-.09-.55a.43.43,0,0,1,.65-.37,4,4,0,0,1,1.7,2.44,1.68,1.68,0,0,1,.47,1.52,2.87,2.87,0,0,1-.9,1.15l-.31.31A12.2,12.2,0,0,1,21,15a11.13,11.13,0,0,1-.89,4.57,9.46,9.46,0,0,1-.87,1.56.43.43,0,0,1,.22.49c-.28.82-.85,1.7-1.81,1.71a.42.42,0,0,1-.32-.14,10.66,10.66,0,0,1-1.3.89,1.8,1.8,0,0,1-.32.67,1.53,1.53,0,0,1-.71.48,3.77,3.77,0,0,1-1.67.09.53.53,0,0,1-.19-.06,15.45,15.45,0,0,1-4.1.53H6.49c.06.1.13.2.2.3s.19.28.29.41a1.79,1.79,0,0,1,.43.73.43.43,0,0,1-.79.33,3.65,3.65,0,0,0-.32-.54c-.14-.13-.29-.25-.44-.37a2.16,2.16,0,0,1-.47-.53,1.33,1.33,0,0,1-.13-.33H4V24.26c-.32.6-.63,1.21-1,1.81a.43.43,0,0,1-.67.09,2.34,2.34,0,0,0-.52-.42l-.11,0,0,.05a1.4,1.4,0,0,0-.1.35,9.63,9.63,0,0,0,0,1.61.42.42,0,0,1-.54.41,3.33,3.33,0,0,1-1-.55l-.07,0v1.81H1.75a1.38,1.38,0,0,1,1-.47,1.62,1.62,0,0,1,1.24.47h.82a.38.38,0,0,1-.06-.22v-.46A.44.44,0,0,1,5,28.24a2.45,2.45,0,0,1,1.46.18,2.19,2.19,0,0,0,1.2.27,5.54,5.54,0,0,0,1.38-.63,6.14,6.14,0,0,1,1.4-.43,4.41,4.41,0,0,1,2.25-.12,2.9,2.9,0,0,1,1.49,1.27c.37-.1.75-.19,1.12-.31a16.24,16.24,0,0,0,2.5-1,.36.36,0,0,1,0-.59l.5-.43a5.42,5.42,0,0,1,.83-1.12,6.46,6.46,0,0,1,.92-.53c.32-.19.59-.42.9-.6a6,6,0,0,1,1.58-.61,13.8,13.8,0,0,0,1.37-2.15c.11-.23.2-.47.3-.7a1.24,1.24,0,0,1,.06-1.52,1.92,1.92,0,0,0,.54-1c0-.43-.28-.8-.39-1.2a1.56,1.56,0,0,1,.1-1.25C24.7,15.39,25,15.11,25.24,14.72ZM14.81,3.63a.43.43,0,0,1,0-.85A.43.43,0,0,1,14.81,3.63ZM2.79,27.8a.43.43,0,0,1,0-.86A.43.43,0,0,1,2.79,27.8Zm18.68-9.92a.43.43,0,0,1,0-.86A.43.43,0,0,1,21.47,17.88Zm2.1-7.24a.43.43,0,0,1,0-.86A.43.43,0,0,1,23.57,10.64Z" fill="#fff"/><path d="M39.11,25.78V16.24h10.5V12.81H39.11V4.24H50.46V.73h-8.4c-.16.16-.31.33-.47.5a2.63,2.63,0,0,1-1.18.88,1,1,0,0,1-.48,0l-.15.08a.48.48,0,0,1-.35,0,5.9,5.9,0,0,1-.5.73.42.42,0,0,1-.6,0,.43.43,0,0,1,0-.6A5.94,5.94,0,0,0,39.18.73H35.11V2.41a.44.44,0,0,1,.25-.2c.19-.07.43-.21.64-.15a.43.43,0,0,1,.31.41.48.48,0,0,1-.25.4l-.08,0L36,3a1.34,1.34,0,0,1-.07,1.09,2.39,2.39,0,0,1-.71.67.31.31,0,0,1-.12,0v9a.44.44,0,0,1,.3,0,.42.42,0,0,1,.25.5c0,.24-.1.47-.16.7a2.55,2.55,0,0,0,.46-.25c.47-.3.89.44.43.74a2.64,2.64,0,0,1-.47.25,1,1,0,0,1,0,.16,3.32,3.32,0,0,1-.86,2.37V29.34H46.37v-.8a.44.44,0,0,1,.65-.37,7.73,7.73,0,0,0,1.08.62l.09,0,.14.06.28.08a2,2,0,0,0,.26.06h.27a.41.41,0,0,1,.39.29h1.54V25.78ZM36.18,10.87a.43.43,0,0,1,0-.85A.43.43,0,0,1,36.18,10.87Zm2.24,3.06a3,3,0,0,1-.35.57h0L38,14.6a.43.43,0,0,1-.56,0,.42.42,0,0,1-.11-.55l.05-.09a.43.43,0,0,1-.11-.28s0-.06,0-.09a1.36,1.36,0,0,1,0-.53.84.84,0,0,1,.48-.56.46.46,0,0,1,.44,0,.42.42,0,0,1,.21.37c0,.18,0,.36,0,.54A.48.48,0,0,1,38.42,13.93Z" fill="#fff"/><path d="M76.52,4.24V.73H68.75a10.5,10.5,0,0,1-1.56.4,3.79,3.79,0,0,1-2.35-.4H62.7a1.76,1.76,0,0,1-.13.5,1.33,1.33,0,0,1-.91.71V22a1.2,1.2,0,0,1,.38.18,1.08,1.08,0,0,1,.35.45l.36-.08a3.85,3.85,0,0,0,1-.53,4.62,4.62,0,0,1,2-.84V16.57h10V13.13h-10V4.24ZM63.38,2.93a.43.43,0,0,1,0-.85A.43.43,0,0,1,63.38,2.93Z" fill="#fff"/><path d="M65,22.35a.43.43,0,0,1,0-.11,8.79,8.79,0,0,0-.87.53,3.78,3.78,0,0,1-1.57.67,2.62,2.62,0,0,1-.83,1.5v4.4h4v-6A2.43,2.43,0,0,1,65,22.35Z" fill="#fff"/><path d="M106,21.63a1.54,1.54,0,0,1-.55-.29,1.58,1.58,0,0,1-.46-.76,4.91,4.91,0,0,1-.09-1.53L99.43,6.41a2,2,0,0,1-1.21-.57.4.4,0,0,1-.11-.41,5.11,5.11,0,0,0,.13-.53c0-.17,0-.25.06-.45s0-.42,0-.64L97,.73H93.35L91.93,4a3.65,3.65,0,0,1,.19.94c0,.88-.77,1.47-1.44,1.94L86.24,17.14v0c0,.06,0,.11,0,.17s0,0,0,.09a1.19,1.19,0,0,0,.09.15l0,0,0,0a2,2,0,0,0,.21.2l0,0,.13.09a4.59,4.59,0,0,0,.49.26,3.53,3.53,0,0,1,1,.57c.89.86-.16,2-.78,2.69a.43.43,0,0,1-.73-.31,1.52,1.52,0,0,0-.1-.47.18.18,0,0,0-.08-.09h-.06a.52.52,0,0,0-.22.1,1.88,1.88,0,0,0-.8,1.16c-.09.4-.58.37-.79.1a2.4,2.4,0,0,1-.31-.62l-3.46,8h3.34A3.14,3.14,0,0,1,86,27.78l2.23-5.47h13.58l2.91,7h4.52ZM98.87,7.91a.43.43,0,0,1,0,.86A.43.43,0,0,1,98.87,7.91Zm-3-4.66a.43.43,0,0,1,0,.85A.43.43,0,0,1,95.83,3.25Zm3.8,16.88a.43.43,0,0,1-.52.3A13.79,13.79,0,0,1,96.9,20a4,4,0,0,1-1.57-1.17H89.67l.57-1.42a.43.43,0,0,1-.32-.39A4.85,4.85,0,0,1,91,13.69c.51-.7,1.11-1.35,1.56-2.09l2.5-6.23,5.33,13.42h-.7A3,3,0,0,1,99.63,20.13Z" fill="#fff"/><path d="M143.05.73l-8.45,22h-.08L126,.73h-6.22V29.34h3.88V13.7a1.81,1.81,0,0,1-.79-.32.43.43,0,0,1-.09-.67l.09-.08,0,0a1.28,1.28,0,0,0,.11-.2h0a.76.76,0,0,0,0-.11l.06-.24a.5.5,0,0,1,0-.12h0a1.94,1.94,0,0,0,0-.24c0-.15,0-.3.05-.45a2.25,2.25,0,0,1,.26-1,2.2,2.2,0,0,1,.2-.23V5.41h.08l9.46,23.93h2.54l9.5-23.93h.08V29.34h4V.73ZM122.69,9.47a.43.43,0,0,1,0-.85A.43.43,0,0,1,122.69,9.47Z" fill="#fff"/><path d="M185.06,21.68a4.18,4.18,0,0,1-1.41-1.87,7.07,7.07,0,0,1-.68-3L176.06.73h-3.64L160,29.34h4.44l2.87-7h13.58l2.91,7h4.52Zm-16.31-2.89,5.37-13.42,5.34,13.42Zm16.86,8.66a.43.43,0,0,1,0-.86A.43.43,0,0,1,185.61,27.45Z" fill="#fff"/><path d="M209.86,2.93a1.24,1.24,0,0,1,.58-1.43,3.89,3.89,0,0,1-.58-.77H195a.53.53,0,0,1-.15.08h-.07a11.52,11.52,0,0,1-1.8.69.51.51,0,0,1-.28,0V4.24h7v25.1h4V4.24h1a.46.46,0,0,1-.14-.45.43.43,0,0,1,.52-.3,3.13,3.13,0,0,1,1.48.7l0,0h4.14V3.77A1.31,1.31,0,0,1,209.86,2.93Zm-3,.47a.43.43,0,0,1,0-.86A.43.43,0,0,1,206.86,3.4Z" fill="#fff"/><path d="M223.49,19.67a.39.39,0,0,1,.19-.24V.73h-4v2.2A2.15,2.15,0,0,1,220.27,4a3.19,3.19,0,0,1,0,.69,2.14,2.14,0,0,1-.45,1.45.08.08,0,0,1,0,0h0l-.06.09-.09.06v23h4V22.18a1.66,1.66,0,0,1-.54-.74,1.22,1.22,0,0,1,.24-1.11A3.5,3.5,0,0,1,223.49,19.67Zm-.76-1.56a.43.43,0,0,1,0-.86A.43.43,0,0,1,222.73,18.11Z" fill="#fff"/><path d="M263.4,8.87a14.75,14.75,0,0,0-2-3.39,2.8,2.8,0,0,1-.85-.64A3.56,3.56,0,0,1,260,4a14.51,14.51,0,0,0-4.61-2.88,17.36,17.36,0,0,0-12.11,0,15.81,15.81,0,0,0-2,1,2.7,2.7,0,0,1-.09,1.14.43.43,0,0,1-.39.31h-.07l-.17,0-.16.05,0,0s-.07.06,0,0a.44.44,0,0,1-.65-.08.18.18,0,0,1-.07.05,2.74,2.74,0,0,1-1.09.46.73.73,0,0,0-.09.08,13.79,13.79,0,0,0-3.16,4.73A16.11,16.11,0,0,0,234.24,15a16,16,0,0,0,1.13,6.08,15,15,0,0,0,1.15,2.22l.69,0a.43.43,0,0,1,.43.42c0,.38.08.78.05,1.17a10.4,10.4,0,0,0,.84.92c.19.19.4.36.6.54a.36.36,0,0,1,.18-.12,2.71,2.71,0,0,1,.8-.07,1.78,1.78,0,0,1,1.19.52,1.51,1.51,0,0,1,.29,1.36l0,0a14.69,14.69,0,0,0,1.74.84,17.07,17.07,0,0,0,12.11,0,14.3,14.3,0,0,0,4.81-3.11,14.48,14.48,0,0,0,3.17-4.77A15.79,15.79,0,0,0,264.55,15,15.92,15.92,0,0,0,263.4,8.87Zm-20.12-7a.43.43,0,0,1,0,.86A.43.43,0,0,1,243.28,1.84Zm16.46,16.74a2.7,2.7,0,0,1-.16,1.49,1.7,1.7,0,0,1-.54.65c-.06,0-.12.05-.17.08a10.27,10.27,0,0,1-1.58,2.31,5.16,5.16,0,0,1-.17,1.46.43.43,0,0,1-.3.3,3.27,3.27,0,0,1-.88.11,1.47,1.47,0,0,1-.62-.21,10,10,0,0,1-1.48.81,11.06,11.06,0,0,1-4.48.89,10.78,10.78,0,0,1-4.45-.89,10,10,0,0,1-3.39-2.45,10.9,10.9,0,0,1-2.19-3.65,13,13,0,0,1-.76-4.49,12.67,12.67,0,0,1,.76-4.42,11.57,11.57,0,0,1,2.17-3.66,10.08,10.08,0,0,1,3.39-2.49,10.75,10.75,0,0,1,4.47-.9c.46,0,.92,0,1.36.07a1.14,1.14,0,0,1-.51-.53l-.86.11a.43.43,0,0,1-.41-.32.44.44,0,0,1,.2-.48,5.34,5.34,0,0,1,1.15-.63.43.43,0,0,1,.52.3.29.29,0,0,1,0,.13h.3a2,2,0,0,1,1.64.94.44.44,0,0,1-.26.63,3.12,3.12,0,0,1-.44.09,9.73,9.73,0,0,1,1.8.59,10.4,10.4,0,0,1,3.42,2.49,11.23,11.23,0,0,1,2.18,3.66,12.68,12.68,0,0,1,.77,4.42A13.19,13.19,0,0,1,259.74,18.58Z" fill="#fff"/><path d="M296,.73V4.07h.05l.09,0h0a.43.43,0,0,1,.53.41,2.69,2.69,0,0,1-.14.93,2.47,2.47,0,0,1-.57.89h0v6.61c.07.15.15.3.21.45,0-.15,0-.31,0-.47a.44.44,0,0,1,.43-.43.43.43,0,0,1,.43.43,5,5,0,0,1-.29,2.55.43.43,0,0,1-.77-.08V23.6h-.08L281,.73h-5.21V4.28a.39.39,0,0,1,.15.26.42.42,0,0,1,.47.3,2.65,2.65,0,0,1,0,1.12,1.14,1.14,0,0,1-.28.49,1.27,1.27,0,0,1-.37.25v5.19c.35,1.08,1,2.18.23,3.21a.6.6,0,0,1-.23.17V29.34h4V28h-.05l-.48-.14a1.45,1.45,0,0,1-.53-.32.44.44,0,0,1,.19-.72,6.08,6.08,0,0,1,.87-.15V6h.08l8.68,13.42a.48.48,0,0,1,.29,0,1.34,1.34,0,0,1,.5.23,1,1,0,0,1,.33.47,1.36,1.36,0,0,1-.06,1l5.37,8.3H300V.73ZM276.2,9.24a.43.43,0,0,1,0-.86A.43.43,0,0,1,276.2,9.24Zm.47-2.34a.43.43,0,0,1,0-.85A.43.43,0,0,1,276.67,6.9Zm19.79,21.87a.45.45,0,0,1-.35.31.54.54,0,0,1-.28,0,.57.57,0,0,1-.15-.16,1.37,1.37,0,0,0-.13-.2c-.08-.1-.18-.2-.27-.3a.36.36,0,0,1-.11-.23.31.31,0,0,1-.07-.09.4.4,0,0,1-.05-.32.47.47,0,0,1,.2-.26l.2-.12a1,1,0,0,1,.48-.17.42.42,0,0,1,.41.31A2,2,0,0,1,296.46,28.77Zm.76-21.67a.43.43,0,0,1,0,.85A.43.43,0,0,1,297.22,7.1Zm.46,10.43a.43.43,0,0,1,0-.86A.43.43,0,0,1,297.68,17.53Zm0-2.57a.43.43,0,0,1,0-.86A.43.43,0,0,1,297.68,15Z" fill="#fff"/><path d="M299.16,11.94v0h0l0,.12h0l-.07.09-.06.05-.06,0-.11.05h0l-.12,0h-.11l-.15,0-.22-.1a.33.33,0,0,1-.16-.15l0-.1a.45.45,0,0,1,0-.23l0-.1a.43.43,0,0,1,.11-.12.44.44,0,0,1,.15-.08h.09v0l.07-.09a.45.45,0,0,1,.19-.11l.11,0a.33.33,0,0,1,.17,0,.42.42,0,0,1,.14.09.25.25,0,0,1,.08.14.29.29,0,0,1,0,.16s0,.07,0,.11A.83.83,0,0,1,299.16,11.94Z" fill="#fff"/></svg>