<svg xmlns="http://www.w3.org/2000/svg" width="330" height="76" viewBox="0 0 330 76"><path d="M42.84,15.1a91.49,91.49,0,0,1-14.51,3.21C29.17,16,45.43-3.81,35.87.65l-12,18.14A89.11,89.11,0,0,1,11.35,19c1.34-3.19,9.53-9.14,6.75-12.11-4.09-.29-7.62,9-10.8,11.8a43,43,0,0,1-5.16-.84c-2.15-.51-3.07,2.8-.91,3.31,1.21.29,2.46.5,3.7.67-1.09,2.6-6.74,5.88-4.11,8.61,3.81.42,5.41-5.93,8.07-8.19a87.15,87.15,0,0,0,12.62.17l-5.76,8.72c-1.22,1.85,1.75,3.57,3,1.73l7.14-10.81C28.35,21.93,52.3,18.65,42.84,15.1Z" fill="#fff"/><path d="M72.82,23.51c-1.49-.86-2.42.64-3.07,1.75l.11-.13C66.27,30,59.77,27,56,23.9c2-2.74,5.07-5.33,5.94-8.57-1.12-2.87-5.82-1.7-8.29-1.58-10.93.06-11.74,24,0,12.67,5.19,4.58,14.05,7.32,18.85.87C73.41,26.27,74.36,24.44,72.82,23.51ZM50,25.13a6.87,6.87,0,0,1-1.36.91,7.52,7.52,0,0,1,8.51-9.13A50.52,50.52,0,0,1,50,25.13Z" fill="#fff"/><path d="M81.71,27c0,.09.08.15,0,0Z" fill="#fff"/><path d="M96.65,13.71c5.65,4.65,2,11.94-3.63,13a3.22,3.22,0,0,1-.61-.24c-1.57-1.79-1.7-4.41-1.81-6.68-.38-2.75-3.73-1.79-3.7.67-.92,2.5-2,5.93-4.83,6.75h-.2l-.1-.05c-.06-.09-.07-.17-.13-.27l.07.13c-.77-3.59.47-7,1.36-10.43.66-2.12-2.66-3-3.32-.92-3.81,8.49-.94,22.64,8.44,10.38,2.76,8.16,12.71,2,14.42-3.74,1.4-4.1-.68-8.16-3.52-11C97.53,9.7,95.1,12.13,96.65,13.71ZM81.81,27.23h0Zm0,0h0l.09.06Zm9.73-2s0,.05,0,0Zm1.75,1.45c.18,0,.09,0,0,0Z" fill="#fff"/><path d="M131.35,12.05l-14,2.89c1-2.13,3.45-7.44,4.4-9.51s-2-3.74-3-1.73L107.51,28.09c-.92,2,2,3.74,3,1.73q2.08-4.49,4.16-9l7,10.66c1.21,1.84,4.19.12,3-1.74L117.2,18.48C119.42,17.66,140.56,15.42,131.35,12.05Z" fill="#fff"/><path d="M152,21.37h-.16C151.74,21.36,151.7,21.38,152,21.37Z" fill="#fff"/><polygon points="146.59 27.18 146.59 27.18 146.59 27.17 146.59 27.18" fill="#fff"/><path d="M147,25.49c-.05.12-.1.32,0,0Z" fill="#fff"/><path d="M154.72,28.11l.09,0s-.05-.06-.24-.09Z" fill="#fff"/><path d="M154.27,27.68a.45.45,0,0,0-.1-.19C154.19,27.55,154.24,27.61,154.27,27.68Z" fill="#fff"/><path d="M157.34,27.63c.16-.08.3-.19,0,0Z" fill="#fff"/><path d="M161.33,25.29a20.76,20.76,0,0,1-4,2.37l.05,0a4.88,4.88,0,0,1-2.53.5c-.06,0-.2-.08-.27-.1h0a.81.81,0,0,1-.3-.36s-.09-.2-.13-.24l0,0a4.42,4.42,0,0,1-.22-.94c8.3-9.25-5.95-11.91-9.54-3.61-3.75,5.54,1.57,10.26,6.75,6.2C153.27,36.27,170.41,25.46,161.33,25.29Zm-11.92-3.2Zm-2.88,5,0,0h0Zm.11.24s0,0,0-.05,0,0,0,0S146.68,27.41,146.64,27.32Zm2.93-1.23s.36-.26.13-.1a4.74,4.74,0,0,1-3.11,1.19h0s0,0,0,0l0,0a3.62,3.62,0,0,1,.4-1.75l0,.07c.94-2,2.58-4.51,5.12-4.12H152a6.94,6.94,0,0,1,.92.26A10.88,10.88,0,0,1,149.57,26.09Z" fill="#fff"/><path d="M177.13,27.82c.06.11.11.14,0-.11A.54.54,0,0,0,177.13,27.82Z" fill="#fff"/><path d="M172.21,24.39Z" fill="#fff"/><path d="M176.91,27v.06c0-.14,0-.21,0-.22A.86.86,0,0,0,176.91,27Z" fill="#fff"/><path d="M177.68,28.22h0c.13,0,.23,0,.09,0-.38.08-.59-.22-.72-.54a.13.13,0,0,1,0,.07,5.28,5.28,0,0,1-.16-.66v.09c0-.08,0-.31,0-.31a11.39,11.39,0,0,1,.08-2.27c.76-2.56-1-5.77-4-4.59,1.49-2.24-2.13-4.22-3.05-1.62l-3.3,8.89c-.63,1.16-.88,2.94.73,3.38,3.42.24,2.17-5.19,5-6.33l-.12.1a10,10,0,0,1,1.45-.94C171.36,36,184.65,30.86,177.68,28.22Zm-4.05-5.42,0,0a.46.46,0,0,1-.05-.1Z" fill="#fff"/><path d="M192.65,22.31l-.05-.09.06.13Z" fill="#fff"/><path d="M198.93,28.25a9.37,9.37,0,0,1-.92.19c.23,0-.62.09-.16,0-1.2.1-2.64.23-3.61-.63,0,.07-.16-.22-.22-.25s0,0,.06.06a2.2,2.2,0,0,1-.35-.9,74.59,74.59,0,0,0,7.14-11.56,1.76,1.76,0,0,0-.61-2.35c-3.3-1-3.75,4.63-5.62,6.46-4.81-4.68-13.62.75-12.5,7.19a5.09,5.09,0,0,0,9.09,3.08c1.64,2.76,9.7,4,9.82-.12A1.76,1.76,0,0,0,198.93,28.25ZM191,21Zm-3.8,7.17h0C186.94,28.26,187,28.18,187.2,28.18Zm1.14-.63c-.66.59-1.6.93-2.25.13-2.55-4.07,3.37-8.52,6.18-6a3.08,3.08,0,0,1,.33.55s.06.12.08.16h0l0,0,0,0A25.79,25.79,0,0,1,188.34,27.55Z" fill="#fff"/><path d="M240.17,9.87C210.1,12,211.59,48.7,237.8,33.37c1.58-1.55-.85-4-2.44-2.43-4,4-14.74,4.29-14.18-3.51-1.68-8.55,23.39-19.73,21.51-10.91C245.92,24.42,249.45,8.82,240.17,9.87Z" fill="#fff"/><path d="M265.54,30.33a24.86,24.86,0,0,1-2.77,2.56c2.57-5.4,4.76-14-4.54-12A99,99,0,0,1,264,11.38c1.26-1.82-1.72-3.55-3-1.74-4.73,7.38-9.93,15.29-10.91,24.19-.17,2.21,3.27,2.2,3.44,0a26.53,26.53,0,0,1,2.64-8.91c11.71-3.85.83,5.95,3.3,10.91C262.29,41,273.64,28.08,265.54,30.33Zm-3,3.86s0,0,0,0Zm-.79-10Zm.8,10.09Zm0-.64h0C262.57,34.13,262.52,33.88,262.56,33.68Z" fill="#fff"/><path d="M279.06,22c-3.93-.86-4.26,7.18-6.23,9.71-.5,1.1-1.39,2.85.08,3.64,3.92.86,4.26-7.18,6.22-9.71C279.63,24.51,280.52,22.76,279.06,22Z" fill="#fff"/><path d="M287.91,13.45c-2.67-2.4-6.39,2.41-9.21,3.2a1.72,1.72,0,0,0,1.73,3C281.86,18.24,289.44,16.28,287.91,13.45Z" fill="#fff"/><path d="M299.88,29.45A43.3,43.3,0,0,1,291,32.29c-.56,0-.6-.21-.69-.32a12.82,12.82,0,0,1,2.08-6.83c.32-.36.77-1.05,1.24-1.24.21-.36,3.19-1.43,4.56-.76a1.72,1.72,0,0,0,.92-3.32c-7.76-2.58-15,8.31-11.17,14.74C290.34,38.86,309.5,30.34,299.88,29.45Zm-9.49,2.76h0s0,0,0,0Z" fill="#fff"/><path d="M330,16.46c-2-3.55-11.75,3.7-15.33,4.23q2.31-5,4.64-10.07c.92-2-2-3.75-3-1.74q-5.41,11.75-10.82,23.47c-.92,2,2,3.75,3,1.74L312,26.58l3.78,8.31c6.91,3.87-.2-8.32-1-10.53C318.28,22,329.34,20.43,330,16.46Z" fill="#fff"/><path d="M154.79,41.07a1.11,1.11,0,0,1,0-.29c0-.31.2-.47.59-.47h3.08a.73.73,0,0,1,.75.55L161,46.4l2.23-4.52a.31.31,0,0,1,.3-.18h2c.23,0,.35.1.35.29a.33.33,0,0,1,0,.17L161.36,53a.79.79,0,0,1-.77.54H159a.72.72,0,0,1-.74-.57Z" fill="#fff"/><path d="M172.89,50.17a.57.57,0,0,0,.65-.65v-.41a.58.58,0,0,0-.65-.66h-1.24a2.87,2.87,0,0,1-2.11-.85l-.63-.63a2.59,2.59,0,0,1-.78-1.94V43.42a2.61,2.61,0,0,1,.73-2,2.79,2.79,0,0,1,2-.7h5.62a.58.58,0,0,1,.65.66v2.05a.57.57,0,0,1-.65.65h-3.67a.58.58,0,0,0-.66.66V45a.58.58,0,0,0,.66.66h1a3,3,0,0,1,1.87.55l.39.29a2.17,2.17,0,0,1,.75,1.82v2.61a2.23,2.23,0,0,1-.91,1.9,3.45,3.45,0,0,1-2.14.69h-5.37a.29.29,0,0,1-.33-.33V50.51a.3.3,0,0,1,.33-.34Z" fill="#fff"/><path d="M85.62,70a.58.58,0,0,0,.65-.66V69a.57.57,0,0,0-.65-.65H84.38a2.87,2.87,0,0,1-2.11-.86l-.64-.62a2.64,2.64,0,0,1-.77-1.94V63.29a2.62,2.62,0,0,1,.73-2,2.83,2.83,0,0,1,2-.69h5.61a.58.58,0,0,1,.66.65v2.05a.58.58,0,0,1-.66.66H85.55a.58.58,0,0,0-.65.65v.25a.58.58,0,0,0,.65.65h1a3,3,0,0,1,1.87.55l.39.3a2.15,2.15,0,0,1,.75,1.81V70.8a2.24,2.24,0,0,1-.91,1.9,3.44,3.44,0,0,1-2.14.68H81.19a.29.29,0,0,1-.33-.33V70.37a.29.29,0,0,1,.33-.33Z" fill="#fff"/><path d="M100.33,71.19l0,1.65a.51.51,0,0,1-.57.58H93.58a.8.8,0,0,1-.9-.9L92.62,61.3a.71.71,0,0,1,.81-.81l6.15,0a.64.64,0,0,1,.73.73h0v2.56a.65.65,0,0,1-.74.73H95.89c-.21,0-.32.11-.32.34v1a.31.31,0,0,0,.29.34l3.53.42a.29.29,0,0,1,.29.31h0v1.15a.52.52,0,0,1-.58.57l-3.07,0a.51.51,0,0,0-.57.58v1a.29.29,0,0,0,.33.33l4,0a.51.51,0,0,1,.58.57Z" fill="#fff"/><path d="M114.22,75a.29.29,0,0,1,0,.09.29.29,0,0,1-.33.32h-2.63a.73.73,0,0,1-.73-.46l-1.3-3.14-2.88-.44L105.7,73a.57.57,0,0,1-.55.41h-2.36a.29.29,0,0,1-.32-.32.32.32,0,0,1,0-.13l4.58-12a.74.74,0,0,1,.69-.5l1.81-.18h.14a.71.71,0,0,1,.76.58Zm-5.35-5.86-.61-2.62a.34.34,0,0,0-.37-.27.26.26,0,0,0-.26.2l-.67,2.4a.46.46,0,0,0,0,.19c0,.16.1.26.29.29l1.31.22h0a.29.29,0,0,0,.32-.32A.36.36,0,0,0,108.87,69.17Z" fill="#fff"/><path d="M119.11,73a.89.89,0,0,1-.7.39h-.85a.56.56,0,0,1-.6-.53l-2.1-12a1.37,1.37,0,0,1,0-.19c0-.34.21-.51.62-.51h2.1a.51.51,0,0,1,.55.47l1.09,5.78,2.14-4.16a.81.81,0,0,1,.74-.52h.39a.75.75,0,0,1,.71.5l1.42,3.08,2-5.52a.32.32,0,0,1,.32-.21h2c.22,0,.34.09.34.28,0,0,0,.06,0,.1L127,72.89a.56.56,0,0,1-.6.53h-1.13a.84.84,0,0,1-.77-.45l-2.24-3.77Z" fill="#fff"/><path d="M139.43,71.19l0,1.65a.51.51,0,0,1-.57.58h-6.16a.8.8,0,0,1-.9-.9l-.06-11.22a.71.71,0,0,1,.81-.81l6.15,0a.64.64,0,0,1,.73.73h0v2.56a.65.65,0,0,1-.74.73H135c-.21,0-.32.11-.32.34v1a.31.31,0,0,0,.29.34l3.53.42c.2,0,.29.13.29.31h0v1.15a.52.52,0,0,1-.58.57l-3.07,0a.51.51,0,0,0-.57.58v1a.29.29,0,0,0,.33.33l4,0a.5.5,0,0,1,.57.57Z" fill="#fff"/><path d="M149.8,71.19l0,1.65a.51.51,0,0,1-.57.58h-6.16a.8.8,0,0,1-.9-.9l-.06-11.22a.71.71,0,0,1,.81-.81l6.15,0a.64.64,0,0,1,.73.73h0l0,2.56a.65.65,0,0,1-.73.73h-3.67c-.22,0-.32.11-.32.34v1a.3.3,0,0,0,.29.34l3.53.42a.29.29,0,0,1,.29.31h0l0,1.15a.5.5,0,0,1-.57.57l-3.07,0a.51.51,0,0,0-.57.58v1a.29.29,0,0,0,.33.33l4,0a.51.51,0,0,1,.58.57Z" fill="#fff"/><path d="M161.66,69.5a2.88,2.88,0,0,1-.89,2.14l-.89.89a3,3,0,0,1-2.14.89h-4.55a.65.65,0,0,1-.73-.74V61.12a.61.61,0,0,1,.64-.68l4.69-.34H158a2.59,2.59,0,0,1,1.92.81l.82.83a2.94,2.94,0,0,1,.9,2.12Zm-3.79.35V64.74a.73.73,0,0,0-.56-.75l-1.08-.34h-.11a.29.29,0,0,0-.32.33h0l.13,6.41c0,.22.1.34.29.34h.11l1-.19A.6.6,0,0,0,157.87,69.85Z" fill="#fff"/><path d="M178.07,69.86l-1.36,3.3a.66.66,0,0,1-.66.44h-.13a.6.6,0,0,1-.63-.49l-1-3.75-.51,3.73a.29.29,0,0,1-.32.29h-1.65c-.22,0-.33-.1-.33-.32v0l.38-11.6a.58.58,0,0,1,.65-.64h2.05a.73.73,0,0,1,.74.56l1.23,3.75,1.36-3.72a.74.74,0,0,1,.76-.53h2.12c.43,0,.65.2.65.61v0L181,73.62a.29.29,0,0,1-.33.31h-1.42a.3.3,0,0,1-.33-.26Z" fill="#fff"/><path d="M194.77,69.33a4.61,4.61,0,0,1-.65,2.33l-.35.59a2.07,2.07,0,0,1-1.9,1.07h-4.49a2.89,2.89,0,0,1-2.09-.93l-.08-.08a3.06,3.06,0,0,1-.85-2.2l-.1-6.84v0a2.53,2.53,0,0,1,1-2l.05,0a3.31,3.31,0,0,1,2.23-.78h3.79a2.9,2.9,0,0,1,2.15.89l.43.44a3,3,0,0,1,.89,2.15Zm-3.52.16v-4.2a.59.59,0,0,0-.61-.67L189,64.47h-.1c-.37,0-.57.21-.59.62l-.23,4.32v.09c0,.48.23.73.69.73h.11l1.83-.15A.51.51,0,0,0,191.25,69.49Z" fill="#fff"/><path d="M200.88,68.3l-.48,4.58a.54.54,0,0,1-.6.54h-1.6a.51.51,0,0,1-.58-.57h0l.13-12a.52.52,0,0,1,.58-.57h1.84a.32.32,0,0,1,.27.13l3,3.77,1.27-5.69a.57.57,0,0,1,.61-.5h1.42c.37,0,.55.17.55.5a.28.28,0,0,1,0,.09L206,72.7a.53.53,0,0,1-.59.53h-1.48a.29.29,0,0,1-.28-.16Z" fill="#fff"/><path d="M214.39,70a.58.58,0,0,0,.65-.66V69a.58.58,0,0,0-.65-.65h-1.25a2.9,2.9,0,0,1-2.11-.86l-.63-.62a2.61,2.61,0,0,1-.78-1.94V63.29a2.63,2.63,0,0,1,.74-2,2.8,2.8,0,0,1,2-.69H218a.58.58,0,0,1,.66.65v2.05A.58.58,0,0,1,218,64h-3.67a.57.57,0,0,0-.65.65v.25a.57.57,0,0,0,.65.65h1a3,3,0,0,1,1.88.55l.39.3a2.15,2.15,0,0,1,.75,1.81V70.8a2.24,2.24,0,0,1-.91,1.9,3.47,3.47,0,0,1-2.15.68H210a.3.3,0,0,1-.34-.33V70.37A.3.3,0,0,1,210,70Z" fill="#fff"/><path d="M226.43,72.86a.53.53,0,0,1-.58.56h-1.59a.52.52,0,0,1-.58-.58l-.14-7.3a.29.29,0,0,0-.33-.33h-1.45a.58.58,0,0,1-.65-.66V61.21a.6.6,0,0,1,.64-.67l7.6-.35h0c.21,0,.31.11.31.34v4.38a.29.29,0,0,1-.32.33h0l-2.22,0h0c-.21,0-.31.11-.32.32Z" fill="#fff"/><path d="M240,71.19l0,1.65a.51.51,0,0,1-.57.58h-6.16a.8.8,0,0,1-.9-.9l-.06-11.22a.71.71,0,0,1,.81-.81l6.15,0a.64.64,0,0,1,.73.73h0v2.56a.65.65,0,0,1-.74.73h-3.67c-.21,0-.32.11-.32.34v1a.31.31,0,0,0,.29.34l3.53.42c.2,0,.29.13.29.31h0v1.15a.52.52,0,0,1-.58.57l-3.07,0a.51.51,0,0,0-.57.58v1a.29.29,0,0,0,.33.33l4,0a.5.5,0,0,1,.57.57Z" fill="#fff"/><path d="M252,73.09a.27.27,0,0,1,0,.12.35.35,0,0,1,0,.13.25.25,0,0,1-.22.09H249a.24.24,0,0,1-.2-.09l-3.08-4.54-.32,4a.46.46,0,0,1-.52.47h-1.76a.43.43,0,0,1-.49-.49V61c0-.43.19-.65.57-.67l5.13-.22h.16a2.93,2.93,0,0,1,2.06.76,2.59,2.59,0,0,1,.86,2v2.34a2.83,2.83,0,0,1-.89,2.14l-1,1Zm-3.46-8.43a.74.74,0,0,0-.65-.78l-1.6-.36h-.09q-.19,0-.21.24l-.15,2.73v0c0,.17.08.25.23.25a.22.22,0,0,0,.13,0L248,65.58A1.07,1.07,0,0,0,248.54,64.66Z" fill="#fff"/></svg>