<svg xmlns="http://www.w3.org/2000/svg" viewBox="0 0 190 138"><g fill="#fff"><path d="M110.74 125.54c-.93-4.91-.08-13.58-5.49-15.67-3.3-1.06-7.45-3.61-8.52 1.78l.01 13.48c-.64 1.22-2.54.29-2.39 2.08.07.85-.45 2.05-1.29 2.16-1.27-1.18-.65-2.88-.34-4.28l.14-3.33-2.4-.06c-.46-3.68-.57-11.32-.56-15.11-.37-3.64-1.76-6.34-.34-10.03l.32-3.5c.3-1.84-1.01-7 2.01-7.22 4.08-.5 8.45.63 12.46 1.38 1.16.6 2.17.91 3.46 1.02 2.35 1.13 4.1 3.35 5.47 5.51 1.63 3-1.17 5.31-4.26 5.93-.24.07-.47.99-.3 1.26 2.44 1.68 4.74 4.6 4.96 7.74l.83 1.2 1.08 3.14c.37 2.6.94 5.32 1.33 7.9-.02 1 .72 5.28.41 6.15-.71.55-1.86 1.29-2.33 2.23-.04.9-.05 1.34-.78 1.94-.81-1.8-1.94-4.28-3.48-5.68zm-8.27-24.91c2.13-.96 4.51-1.94 2.39-4.54-.98-3.41-4.11-2.88-6.7-1.69l-.53 2.36c-2.51 2.96 1.5 7.05 4.84 3.88zM57.03 113.11c-5.09.67-4.08 8.19-3.98 11.91l-2.34 3.1-.11 4.32c-.06.81-.67 1.51-1.53 1.1-.87-2.75.53-4.89-1.77-6.1-.68-1.32.07-5.24-.02-6.77-.48-6.24.91-12.57 3.65-18.19.66-1.16.86-2.78 1.77-3.86.48-1.43 1.51-4.35 2.1-5.73l1.03-2.88c.57-1.58.54-3.74 1.83-4.98 1.18-1.13 2.85.2 4.04.3 1.43.12 3.07-.36 4.28-.03 1.33.36 1.26 1.78 1.67 2.56 1.02 1.45.97 3.19 1.83 4.67l1.12 2.11.59 2.23c1.16 2.18 1.94 4.41 1.96 6.98-.32 2.37.76 20.66-.2 22.33-1.03 1.15-1.62 2.39-2 4.14-.9-.32-1.29-1.27-1.15-2.31-2.1-1.84-2.55-2.62-2.34-5.5.35-10.69-1.97-9.48-10.43-9.42zm4.73-7.24c1.59.03 1.96-1.06 1.64-2.45l-.13-4.4c.01-1.53-1.8-3.94-3.31-2.4-.17.28-.27.81-.32 1.39-.73 1.57-1.23 3.19-2.08 4.68-.62 1.13-1.22 4.36.92 4.31 1.21-.25.87-1.21 3.27-1.13zM22.89 105.37c-4.75.41-1.44 15.89-3.81 19.83l-2.54 1.02c-1.31.12-1.97 5.04-3.1 2.01-.07-5.07.38-25.94-1.03-30.49-.27-1.87-.04-3.66-1.9-4.82.19-1.01.58-1.82 1.37-2.62.42-2.74-1.11-5.34.81-5.34 2.99-.07 7.2 0 10.22.64 1.89.07 6.14.21 7.97.48 1.84.18 3.07 1.87 3.75 3.48 2.83 5.41 2.24 12.89-3.59 15.82-2.13 1.64-3.55.5-5.65 1.13-.32.1-1.01.7-1.28.51-.48-.35-.91-1.14-1.22-1.66zm3.74-7.52c1.83-1.41 1.94-3.07.61-4.99-1.14-1.75-4.14-1.46-5.71-.58-1.95 1.66-1.67 6.37.76 6.63l4.34-1.06zM81.49 12.25c-2.82-1.36-2.59 1.15-3.75 2.87l-.18 2.15c-.75.66-1.13 1.33-1.35 2.38-2.76 1.36-1.65 2.77-3.81 4.23-.98-3.54-3.55-6.37-4.74-9.87-.62-2.58-3.34-3.57-3.77-.26l-.47 2.52c-.55 3.84 0 8.29-.29 12.07-1.7.86-1.14 2.13-2.05 2.33-.77.17-.41-2.17-2.72-3.72-.02-2.14.21-9.11-.66-11-.69-4.05.44-8.8 1.71-12.58.85-.97 4.53-.58 5.71-.79 3.59.09 3.96 4.7 5.98 6.79 5.37 2.02 5.21-6.58 10.49-6.84 7.92-.1 7.12-.49 7.66 7.26.84 3.91.55 10.4.85 14.45.05 1.51 1.41 2.86.77 4.61-.18.49-1.02 1.06-1.55 1.53-1.01.89.35 3.48-1.28 4.74-1.36-.84-1.39-3.73-1.74-5.09-.11-.6-1.48-1.02-2.19-1.21-1.15-4.41.78-13.53-2.64-16.57zM158.76 17.67l-1.24 1.37c.12 2.32-.97 6.33 2.71 6.2 3.19 2.15 9.68.58 13.42 1.11 2.95.64 1.46 6.56 1.85 8.6 0 .29-.91.63-1.08.44-1.5-1.59-2.85-3.96-5.15-4.43h-13.55l-2.33.34c-.69.1-1.88.93-2.52.83-1.92-.4-1.44-2.73-1.46-4.1-.07-2.67.45-8.57.04-11.12-1.31-4.5-.78-9.44.19-13.92 1.27-1.35 3.08-1.26 4.77-1.04 2.7.35 5.16.13 7.83.05 4.2.22 14.97-1.65 16.53 1.41.58 2.29.21 5.49-1.82 6.49l-1.85-1.74c.07-4.19-5.93-1.95-8.23-1.9l-4.83.19-2.23 1.14c-.77 2.3-.55 5.32 1.88 5.15 1.79.43 5.45-.03 6.68 1.51 1.05 6.06-2.39 2.13-6.15 3.12l-1.62-.62c-.4.06-1.47.54-1.82.93zM121.99 25.7c-1.08 1.09-2.67 3.03-4.32 3.3-2.41 1.07-4.63 4.58-7.9 2.6-2.52-1.52-3.54.85-6.05 1.3-2.4-3.53 1-5.37-1.08-9.41-.19-1.5-1.38-6.55-1.52-7.95l.05-8.14c.42-1.73.01-4.73 2.01-5.49 2.28-.69 4.78-.48 7.15-.32l3.21.22 3.39 1.43c5.45 2.21 6.05 8.86-.41 10.14-1.89 1.29.86 2.53 1.82 3.15l2.72 2.56c.46.43.61 1.61 1.41 1.99-.05 1.02.46 3.86-.51 4.61zm-7.18-16.15c-.08-2.98-4.68-5.31-5.41-1.31l.68 4.38c.1.61 1.18 1.33 1.52.96 1.05-3 3.23-1.92 3.21-4.03zm-.87 13.61c1.53-1.16.07-3.08-1.81-4.55l-2.68.05c-1.45 3.51 1.05 7.4 4.49 4.5zM10.22 32.02c-3.21-.7-1.4 3.15-3.93 2.89-2.52-1.2-1.27 1.64-3.25.41.25-2.11-.75-12.24.93-13.82 1.12-1.18 5.49-5.49 6.19-6.88 1.17-1.89 3.57-4.25 3.51-6.64-1.08-.93-3.97.62-5.12.85-2.7 1.34-5.25-.27-6.66 3.13C-.93 12.83.28 6.01.14 4.52.33.61 2.2 2.77 6.84 1.37c3.02-.24 6.45-.11 9.31 1.14 2.51-.52 4.82-1.02 7.59-.69l.11 4.8c-2.2 1.29-3.04 3.44-4.06 5.59-1.1 2.3-3.45 3.54-5.22 5.22-1.61 1.98-3.6 3.7-3.78 6.52 3.66 1.03 9.53-.1 13.28-.37 2.54.17 1.61 6.27 1.93 8.05-5.76 4.79.8-3.27-11.83-.23-1.3.54-2.25 1.25-3.95.62zM172.51 137.54c.02-2.38.04-7.21.04-9.6l-.18-20.17c-.02-2.1-1.48-5.5-2.7-7.56-.72-1.35-2.49-4-3.4-5.25-1.18-1.71-2.04-5.62-.69-6.92l2.14.41 2.81-.13c2.25 3.26 1.32 8.14 4.25 11.25l3.03-.1 1.74-1.39c.83-2.06 2.43-6.25 3.19-8.33.65-2.9 2.79-2.94 5.29-2.68 2.55.4 2.19 3.91 1.22 5.53l-1.17 2.03-.71 2.15c-1.52 5.39-7.53 4.73-7.64 9.51-.23 3.48-.17 8.31.18 11.77l.09 10.67-2.17 2.33c-1.2 2.31 1.2 6.73-3.25 5.57-.51.51-1.05 1.35-2.09.91zM140.65 132.42c-1.15.23-1-1.4-1.63-2.28-.5-.44-1.72-.28-2.37-.44-.53-.18.43-5.67.37-6.15.03-1.72.37-5.1.69-6.78l-.06-15.1c-.56-3.44-1.07-6.51-5.54-5.32-1.71.78-4.35 1.13-4.99-1.06-.3-3.64-.31-7.5 4.44-6.09 1.55.09 4.62.46 6.13.83 2.87.94 14.68-3.5 15.98-1.36l1.1 2.69c.25 1.79.32 4.25-.2 4.59-.7.45-2.78-.25-3.52-.36-3.32 2.1-3.06-4.16-5.96-.1-.99 3.6.43 7.23-.2 9.98-.42 1.83-.89 3.45-.74 5.31.26 5.42 1.3 12.23.44 17.58l-1.6 1.49c-1.81.44-1.05 2.33-2.34 2.59zM39.8 71.43c-6.2-1.26-8.53 2.46-10.65.52.03-3.65.38-7.81-.43-11.4-.66-4.79-1.86-9.94.06-14.6.46-1.52 2.45-1.47 3.68-1.53 7.95-.65 14.32 2.05 15.99 10.22l.37 2.52c.31 1.06.56 2.22-.17 3.23-.32 3.13-1.39 5.87-3.49 8.24-1.75 1.97-1.48 3.17-5.35 2.81zm1.12-11.23c.55-.15 1.46-1.13 1.78-1.6l.03-5.01-1.93-2.1c-1.67-1.06-5.04-1.23-5.38 1.42-.23 1.58.18 3.27.3 4.9.1 1.31-.61 2.96.62 4.05.63.56 1.59-.11 1.96-.95l2.62-.71zM43.4 31.27c-2.72.52-5.21-.23-6.73-2.44l-2.78-.07c-.49-4.1.45-7.79-.81-11.7-1.14-4.42.48-12.94 5.52-14.49 2.93-2.74 8.7-.38 8.89 3.7 2.42 4.04 2.22 9.05 1.66 13.64-1.53 2.34.03 10.77-5.74 11.36zm-2.75-10.42c3.36 2.09 5.49-10.58.28-10.87-1.75.69-2.39 2.54-1.84 4.3-1.57 2.06.09 4.97 1.56 6.57zM76.61 67.01c-1.37.28-1.69 3.51-2.61 1.25.02-1.98-.37-6.41-.6-8.41l-.61-4.02c-1-3.84 1.49-7.22 1.81-11.07 1.21-1.58 4.36-.22 6.02-.18.68 1.33 1.68 3.83 2.64 4.94l2.09 2.42 1.74 1.91c.99 1.24 2.89.67 3.05-.82v-5.49c.15-2.52-.59-5.37 3.26-4.4 1.85.24.51 14.71.84 15.84l-.18 7.52c-.21 1.35-.75 4.78-.95 6.17-2.36.18-1.11-3.97-2.33-5.55-2.23-2.96-6-7.38-7.47-10.78l-1.85-3.63c-1.31-1.33-2.78.34-2.77 2.19l-.03 9.6c.04 1.46-.61 2.3-2.08 2.52zM159.31 61.09c-2.35-.96-3.8-1.21-5.12.72l.04 3.52c.02 1.44 1.14 2.93.53 4.37-.95 2.26-.56 3.24-1.4 3.88-2.07 1.25-2.72-.87-2.79-2.52-.05-5.13.25-12.47-.17-17.57-.59-1.61-1.09-3.11-1.29-4.75-.44-6.26 9.47-6.38 13.28-3.95 1.55.88 3.35 4.74 2.87 7.15-1.16.82-2.35-.19-3.87.99-1.99 2.4 2.6 3.41 2.87 5.69.82 2.36.78 5.33.91 7.78l.16 4.72c.02.63-1.95 3.49-2.99 2.71-.33-4.48-.26-9.51-3.04-12.73zm-.43-8.08c1.12-1.28.08-2.01-.68-2.99-1.22-1.42-3.22-1-3.98.68l.87 2.34c.3.8 2.81.97 3.79-.02zM108.42 62.52c-.34 1.73-.93 3.09-2.46 4.01l-.87 1.92c-.78.08-1.29-.61-1.3-1.27-.04-3.89.16-7.6-.08-11.49-.27-2.51-1.04-5.32-1.28-7.85-.74-4.48 4.08-4.9 6.23-1.81.81 1.25 5.24 7.12 6.22 8.44l1.52.73c1.66-1.24 1.78-3.86 1.65-5.76l.29-4.99c-.06-1.98 1.74-3.22 3.12-1.84.78 1.56 1.17 3.26 1.13 4.99-.1 3.51-.18 10.56-.18 14.06.16 2.91.34 6.71-2.64 8.34-.93.21-1.63-3.86-1.95-4.36-.46-1.42-2.01-2.22-2.83-3.41-.89-1.04-2.86-4.81-3.55-6.05l-1.4-3.06c-.2-.55-.35-1.04-1.08-.72-.54.68-.54 2.29-.32 3.25.57 2.43.26 4.42-.22 6.85zM137.09 64.17c2.81 1.02 6.51-.05 6.66.77.43 2 1.08 6.19-.34 6.81-.95.39-1.55-2.25-6-2.27-1.96 0-4 .22-5.76 1-.41.88-.47 1.55-1.71.91-.79-.69-.79-2.32-.91-3.41-.13-2.66-1.06-6.18-.56-8.77.28-1.15.57-2.31.38-3.54-.3-1.43-.65-9.7.83-10l4.64-.45c1.33-.13 2.9.65 4.22-.18 2.06-1.67 3.64.63 3.44 2.67-1.02 2.68-4.68-.95-7.98.45-.02 2-.76 5.21-.05 7.11l1.8 1.09 3.5.51c-.07.61.13 1.2-.76 1.2-4.14.01-6.7-1.13-4.35 5.03l2.95 1.06zM134.04 31.89c-.64-1.17-.77-2.87-1.51-3.89-.82-.88-1.29-1.87-1.39-3.07-.54-4.56-.5-10.09 0-14.65.22-2.63.2-5.98.87-8.51 1.35-1.33 4.97-2.5 5.4.13.22 1.93.15 6.89.11 8.89.17 1.09.09 3.36-.04 4.45l-.08 10.7c-.3 1.11-1.45 2.3-2.23 3.23l-.1 1.99c-.01.2-.43.45-1.02.72zM63.45 68.51c-1.11-.27-4.03.14-4.63-.98-.69-2.03-.68-3.97-.71-6.08-.1-5.14-.16-10.92.06-16.09 0-2.54 3.43-2.69 5.01-1.72 1.33 1.24.81 4.39.81 6.53-.03 1.56.11 6.04.18 7.66-.25 3.73 2.04 7.38-.72 10.69z"/></g></svg>