<?xml version="1.0" encoding="UTF-8"?><svg id="logos" xmlns="http://www.w3.org/2000/svg" width="150" height="192" viewBox="0 0 150 192"><path d="m75,191.14C33.64,191.14,0,157.49,0,116.14c0-10.74,2.22-21.11,6.6-30.81l7.8,3.52c-3.88,8.59-5.85,17.78-5.85,27.29,0,36.63,29.8,66.44,66.44,66.44s66.44-29.8,66.44-66.44-29.8-66.44-66.44-66.44c-15.48,0-30.55,5.44-42.43,15.31l-6.8-4.63L45.64,0h91.22v8.56H51.83l-13.95,42.41c11.24-6.4,24.05-9.83,37.12-9.83,41.36,0,75,33.64,75,75s-33.64,75-75,75Z" fill="#fff"/><g><polygon points="100.98 120.99 104.33 116.57 128.2 116.57 128.2 112.63 107.32 112.63 110.67 108.22 123.42 108.22 123.42 104.28 108.72 104.28 93.04 124.93 130.58 124.93 130.58 120.99 100.98 120.99" fill="#fff"/><path d="m44.91,98.77l-16,17.44c-1.01.11-3.12.08-4.37-.97-.8-.68-1.19-1.75-1.19-3.27h-3.94c0,3.39,1.42,5.29,2.6,6.29,1.07.9,2.31,1.39,3.49,1.66l-4.58,4.99h5.35l4.43-4.83h30.7l4.27,4.83h5.26l-23.09-26.11-2.93-.03Zm-10.59,17.37l12.02-13.1,11.58,13.1h-23.6Z" fill="#fff"/><polygon points="94.93 104.28 81.81 120.54 68.91 104.28 63.89 104.28 80.25 124.91 83.33 124.93 99.99 104.28 94.93 104.28" fill="#fff"/></g></svg>