<svg xmlns="http://www.w3.org/2000/svg" width="250" height="91" viewBox="0 0 250 91"><g id="logos"><path d="M27.16,11.05c.12-.18.26-.36.36-.54,1.8-3.24,3.57-6.42,5.27-9.54a1,1,0,0,1,1-.61c4.73,0,9.48,0,14.22,0,.53,0,.68.12.55.62-.41,1.67-.76,3.36-1.18,5.07a1.58,1.58,0,0,1-.53.76A3.39,3.39,0,0,0,45.55,8.6c-.17.54-.32,1.08-.45,1.63-1,4.16-2,8.43-3,12.81a9.87,9.87,0,0,0-.33,2.24,4.36,4.36,0,0,0,.49,1.36,1.48,1.48,0,0,1,.2.81c-.43,2-.93,4.08-1.38,6.16-.11.55-.34.66-.83.66q-7,0-14.06,0c-.54,0-.67-.15-.51-.71.58-2,1.12-4.05,1.66-6.05a1.45,1.45,0,0,1,.66-.94,3,3,0,0,0,1.29-1.81c.82-2.85,1.57-5.66,2.33-8.42,0,0,0-.06,0-.13C30.15,19.08,28.72,22,27.16,25s-3.34,6.09-5.08,9.26c-1.78,0-3.53,0-5.26,0-.16,0-.29-.32-.29-.54,0-2.32.09-4.61.18-6.88q.16-4.47.38-8.81c0-.6.14-1.21.21-1.81h-.17a3.38,3.38,0,0,0-.18.44c-.71,2.25-1.44,4.53-2.14,6.84a6.47,6.47,0,0,0-.37,1.83,4.37,4.37,0,0,0,.4,1.35c.06.19.21.39.15.59-.66,2.19-1.36,4.41-2.06,6.66,0,.08-.09.16-.16.3s-.41,0-.61,0c-3.86,0-7.72,0-11.59,0-.59,0-.68-.19-.47-.76.73-2,1.4-4,2.12-6a2.09,2.09,0,0,1,.68-.86,4.2,4.2,0,0,0,1.53-1.85c.3-.71.57-1.42.82-2.13,1.47-4.25,2.9-8.38,4.27-12.42a11.93,11.93,0,0,0,.6-2.31c.05-.4-.22-.75-.32-1.12s-.2-.48-.12-.72c.59-1.76,1.22-3.5,1.8-5.22.14-.42.35-.52.78-.52q7.46,0,14.91,0c.5,0,.52.22.49.57q-.33,4.62-.66,9.44c0,.22,0,.44,0,.66Z" fill="#fff"/><path d="M112.31,34.34l.11-5.45a9.91,9.91,0,0,0,0-1.09,1.2,1.2,0,0,1,.51-1.13,2.8,2.8,0,0,0,.87-2.17c.06-.67,0-1.34.06-2q.1-6.29.18-12.25a7.71,7.71,0,0,0-.13-1.93A5.14,5.14,0,0,0,113.19,7c-.12-.22-.32-.44-.32-.67,0-1.77.07-3.53.08-5.26,0-.41.14-.52.58-.52q6.41,0,12.82,0c.46,0,.6.13.6.55,0,1.72.09,3.46.12,5.21a.76.76,0,0,1-.16.58,2.24,2.24,0,0,0-.66,1.8c0,1.16,0,2.32.06,3.49,0,.35.14.48.52.48.94,0,1.89,0,2.84,0,.36,0,.52-.09.5-.46-.07-1.3-.07-2.59-.21-3.86a4.58,4.58,0,0,0-.66-1.33,2.25,2.25,0,0,1-.33-.68c-.08-1.78-.11-3.53-.19-5.27,0-.42.15-.51.57-.5l12.86,0c.48,0,.61.16.64.57.11,1.7.26,3.42.39,5.16,0,.19,0,.47-.14.57a3,3,0,0,0-.92,2.76c0,1.14.15,2.29.23,3.44q.36,4.86.73,9.92c.06.69.16,1.38.27,2.07a2.84,2.84,0,0,0,1.06,1.75,1.15,1.15,0,0,1,.4.69c.19,2.07.33,4.16.51,6.28,0,.44-.12.57-.54.57q-7.23,0-14.46,0c-.41,0-.54-.15-.55-.55-.05-2.16-.14-4.3-.18-6.4a.89.89,0,0,1,.25-.62,2.15,2.15,0,0,0,.7-1.75c-.06-1.68-.11-3.34-.15-5,0-.33-.12-.49-.49-.49-1,0-2,0-3,0-.32,0-.46.11-.45.43.05,1.7.08,3.42.14,5.16a2.27,2.27,0,0,0,.74,1.67.93.93,0,0,1,.25.58c.07,2.1.11,4.23.18,6.4,0,.39-.08.55-.51.55l-14.59,0C112.6,34.38,112.5,34.36,112.31,34.34Z" fill="#fff"/><path d="M161.09,19.86c.23,1.82.45,3.56.7,5.31a.63.63,0,0,0,.42.36,7.25,7.25,0,0,0,1.41-.13A1.71,1.71,0,0,0,165,23.54a13.29,13.29,0,0,0-.08-1.4c0-.34.06-.47.42-.47,3.59,0,7.17,0,10.75,0,.39,0,.53.15.59.52.67,3.82,1.35,7.73,2.07,11.73.11.65-.28.56-.67.56l-26.22,0c-1,0-1.9,0-2.84,0-.47,0-.62-.17-.65-.62-.17-2.1-.36-4.17-.52-6.22a.83.83,0,0,1,.22-.66,2.39,2.39,0,0,0,.79-2c0-.63,0-1.27-.1-1.89q-.62-6.9-1.21-13.42A3.09,3.09,0,0,0,146.28,7a.85.85,0,0,1-.23-.58c-.16-1.69-.3-3.35-.44-5-.06-.7-.06-.7.69-.7l25.92.07a2.43,2.43,0,0,0,.27,0c.32,0,.49.09.54.41.54,3.09,1.09,6.23,1.66,9.44.05.3,0,.42-.36.42l-10.51,0c-.3,0-.39-.12-.47-.39A2.84,2.84,0,0,0,160,8.36a.43.43,0,0,0-.31.34c.13,1.19.3,2.38.44,3.59.05.4.31.37.59.37,2.17,0,4.35,0,6.52,0,.51,0,.72.11.79.63q.41,2.93.91,5.92c.09.54-.08.67-.61.67-2.15,0-4.29,0-6.44,0Z" fill="#fff"/><path d="M229.88,11.12c-.07-.13-.12-.22-.16-.31a3.61,3.61,0,0,0-3.88-2.28c-.12,0-.26.2-.22.31.38,1.2.8,2.41,1.21,3.64.14.41.42.34.68.34l6.32,0c.82,0,.82,0,1.1.76l2,5.68c.27.75.27.75-.51.75l-6.35,0-.74,0c.61,1.79,1.19,3.54,1.81,5.3a.76.76,0,0,0,.46.33,8.38,8.38,0,0,0,1.78-.28c.72-.25.8-.95.64-1.73a11.6,11.6,0,0,0-.36-1.34c-.12-.36-.05-.51.35-.51l10.63,0a.67.67,0,0,1,.75.54q2.16,5.69,4.47,11.65c.18.46.1.61-.36.6q-14.52,0-29.05,0c-.49,0-.69-.17-.83-.65-.6-2.09-1.23-4.16-1.81-6.2a.73.73,0,0,1,.1-.66,2.06,2.06,0,0,0,.35-2c-.19-.78-.39-1.57-.63-2.35q-1.94-6.52-3.8-12.71a6.35,6.35,0,0,0-.57-1.5,4.55,4.55,0,0,0-1.08-1.16,1.61,1.61,0,0,1-.66-.87c-.49-1.71-1-3.39-1.5-5-.13-.44,0-.59.45-.59q13.06.06,26.09.07a.72.72,0,0,1,.81.55c1.13,3,2.31,6.05,3.51,9.16.12.31.23.56-.24.56l-10.53,0Z" fill="#fff"/><path d="M57.61,24.76a1.61,1.61,0,0,0,.54,2,.64.64,0,0,1,.29.52c-.39,2.23-.81,4.49-1.23,6.79,0,0,0,.07-.1.18s-.37,0-.57,0c-4.45,0-8.9,0-13.36,0-.56,0-.66-.17-.53-.71.49-2.06.92-4.1,1.39-6.11a1.29,1.29,0,0,1,.35-.71,6.19,6.19,0,0,0,1.72-2.52q4.7-11.27,9-21.56c.26-.62.55-1.24.79-1.87a.5.5,0,0,1,.56-.36c.11,0,.22,0,.33,0q8.22,0,16.44,0c.54,0,.75.11.78.64q.52,7.4,1.15,15.26.31,4,.71,8.21a3.23,3.23,0,0,0,1,2.31.69.69,0,0,1,.11.53c-.25,2.09-.53,4.21-.78,6.35,0,.41-.2.55-.61.55q-7.41,0-14.83,0c-.39,0-.46-.16-.4-.52.38-2.17.73-4.3,1.12-6.41a1.31,1.31,0,0,1,.43-.65,2.41,2.41,0,0,0,1-1.53c0-.15-.15-.4-.27-.41C61,24.75,59.32,24.76,57.61,24.76Zm5.3-16.49-.12,0L59.32,18.71H63C63,15.12,63,11.66,62.91,8.27Z" fill="#fff"/><path d="M80.47,16.7c.34-2.79.56-5.53,1-8.22.67-4.11,3.16-6.59,7.45-7.71a28.34,28.34,0,0,1,8-.75,22.75,22.75,0,0,1,8.27,1.38,44.74,44.74,0,0,1,4.18,2.17.77.77,0,0,1,.32.59c-.06,2.64-.15,5.32-.22,8.05,0,.35-.13.49-.52.48l-11.07,0c-.4,0-.48-.16-.46-.49.06-1,.15-2,.14-3S97,7.7,96,7.63c-1.53-.09-2.24.53-2.37,2.19-.36,4.35-.71,8.81-1.08,13.4,0,.26,0,.51,0,.77,0,1.5.76,2.18,2.27,2a1.57,1.57,0,0,0,1.52-1.22,9.44,9.44,0,0,0,.3-1.64c.12-1.27.2-2.54.27-3.79,0-.37.13-.56.57-.55l11.28,0c.42,0,.55.15.54.54-.12,3.53-.22,7.13-.35,10.82a1.06,1.06,0,0,1-.42.74,23.77,23.77,0,0,1-12,4,33,33,0,0,1-9.64-.57A15.73,15.73,0,0,1,83.27,33a7,7,0,0,1-3.83-7.24c.23-3.08.69-6.11,1-9.09Z" fill="#fff"/><path d="M212,16.44l-.59,0c-2.48,0-5,0-7.45,0-.5,0-.71-.11-.83-.62-.44-1.82-.92-3.63-1.4-5.41a5.55,5.55,0,0,0-.46-1.11,2.28,2.28,0,0,0-1.36-1.1c-.63-.2-.74-.12-.6.45,1.21,4.76,2.47,9.66,3.74,14.71a5.51,5.51,0,0,0,2.57,3.7,1.17,1.17,0,0,1,.4.63c.56,2.06,1.09,4.15,1.65,6.27.11.42,0,.58-.42.58q-7.66,0-15.33,0c-.4,0-.56-.14-.65-.54-.44-2.16-.91-4.29-1.33-6.39a.69.69,0,0,1,.16-.6,3.24,3.24,0,0,0,.83-3.37c-.71-3.27-1.4-6.47-2.09-9.61q-.58-2.73-1.17-5.4c-.12-.55-.24-.62-.78-.47a1.25,1.25,0,0,0-.94,1.24,4.75,4.75,0,0,0,.1,1.18q.53,2.6,1.11,5.25c.11.46,0,.61-.49.6-2.5,0-5,0-7.47,0-.48,0-.67-.14-.75-.61q-1.37-7.47-2.67-14.48c-.08-.42,0-.56.49-.55L207,.85c.45,0,.59.15.7.54q2,7,4.17,14.52C211.91,16.07,211.94,16.24,212,16.44Z" fill="#fff"/><path d="M18.68,49.63c3.4-2.83,5.12-6,5.46-9.44.39,0,.6,0,.81,0,2.91,0,5.83,0,8.75,0,.54,0,.7.12.56.65-.34,1.21-.59,2.43-.92,3.65a2,2,0,0,1-.53.77c-.63.64-1.3,1.25-1.94,1.89-1.21,1.22-2.42,2.46-3.67,3.69a.73.73,0,0,0-.26.84c.83,2.44,1.54,5,2.52,7.41a4.64,4.64,0,0,1,.09,3.27c-.27.92-.47,1.85-.68,2.78a.6.6,0,0,1-.68.56H17.85c-.4,0-.51-.14-.39-.55.32-1.11.68-2.22.88-3.31a8,8,0,0,0,.15-2.64c-.26-1.48-.72-2.88-1.09-4.29l-.3.05c-.32,1.47-.65,3-1,4.46a.36.36,0,0,0,.09.33c.55.48.28,1.18.08,1.88-.33,1.13-.64,2.28-1,3.43-.09.34-.19.63-.65.63l-11.22,0s-.07,0-.19-.09L4,63.2c.18-.59.37-1.19.54-1.78a2.78,2.78,0,0,1,1.08-1.69,3.34,3.34,0,0,0,.94-1.56c1.22-3.84,2.36-7.6,3.48-11.28.21-.71.33-1.41-.23-1.88-.09-.07-.08-.27,0-.41.44-1.47.89-2.92,1.36-4.42.25,0,.48,0,.7,0,3.24,0,6.47,0,9.71,0,.52,0,.72.11.55.65-.38,1.2-.68,2.42-1,3.65a1.14,1.14,0,0,1-.33.6,3.2,3.2,0,0,0-1.31,2C19.16,47.84,18.94,48.68,18.68,49.63Z" fill="#fff"/><path d="M232,50.89c-.42-1.35-.81-2.68-1.27-4a2.53,2.53,0,0,0-1.3-1.6.78.78,0,0,1-.3-.41c-.43-1.34-.84-2.67-1.26-4-.11-.33,0-.43.35-.43l8.32,0a.56.56,0,0,1,.62.45c.43,1.3.89,2.61,1.32,3.93a.61.61,0,0,1,0,.52c-.5.5-.37,1.2-.14,1.93.4,1.23.82,2.46,1.24,3.7,1.53,4.56,3.09,9.23,4.73,14,.22.65.08.82-.55.81q-3.89-.06-7.73,0a1.44,1.44,0,0,1-1.31-.72c-2.44-3.27-4.86-6.48-7.23-9.63-.09-.12-.2-.24-.4-.47a2.5,2.5,0,0,0,0,.41c.37,1.19.72,2.4,1.15,3.61a2.24,2.24,0,0,0,.74,1.1,1.7,1.7,0,0,1,.85,1.24c.38,1.28.76,2.58,1.17,3.87.14.44,0,.58-.41.58-2.83,0-5.65,0-8.47,0a.65.65,0,0,1-.73-.59c-.38-1.45-.8-2.9-1.17-4.33a1.35,1.35,0,0,1,.08-.62c.09-.47.21-.93.29-1.4a1.35,1.35,0,0,0-.08-.51c-1.06-3.81-2.09-7.55-3.13-11.21a2.51,2.51,0,0,0-.68-1.3,3.3,3.3,0,0,1-1.26-2.29c-.25-.88-.47-1.75-.73-2.62-.12-.39,0-.5.4-.5,2.85,0,5.69,0,8.52,0a1,1,0,0,1,.85.52l7,9.41.43.54Z" fill="#fff"/><path d="M155.16,52.54c-.18-1.85-.37-3.68-.55-5.49-.36-3.59,1-5.69,4.55-6.53a21.06,21.06,0,0,1,15.55,2.14,1.47,1.47,0,0,1,.87,1.2c.2,1.44.44,2.89.7,4.36.08.44,0,.64-.52.64-2.61,0-5.2,0-7.8,0-.48,0-.64-.15-.7-.59a5.7,5.7,0,0,0-.41-1.49,1.54,1.54,0,0,0-1.56-1,1.16,1.16,0,0,0-1.16,1.11,5,5,0,0,0,0,1c.39,3.06.78,6.19,1.2,9.36a7.35,7.35,0,0,0,.2,1,1.52,1.52,0,0,0,1.68,1.34c1,0,1.32-.31,1.4-1.28a3.32,3.32,0,0,0,0-.63c-.08-1.11-.08-1.1-1.24-1.26a.72.72,0,0,1-.45-.42c-.24-1.59-.42-3.17-.65-4.74-.07-.48.23-.46.57-.46h7.65c.55,0,1.11,0,1.67,0,.35,0,.51.11.56.46.59,3.71,1.22,7.5,1.81,11.37a.9.9,0,0,1-.32.73,10.26,10.26,0,0,1-5.15,2.35,26,26,0,0,1-10.72-.15c-2.22-.53-4.28-1.49-5.44-3.62a10,10,0,0,1-1.07-3.24c-.32-2.1-.46-4.19-.66-6.25Z" fill="#fff"/><path d="M140.83,65.7c-.3,0-.51,0-.73,0-3.13,0-6.26,0-9.39,0-.62,0-.83-.17-.83-.79,0-1.34-.07-2.68-.1-4,0-.21,0-.49.08-.62.91-1,.92-2.22,1.12-3.4q1.41-8.25,2.66-16c.07-.44.26-.6.76-.59q6.21,0,12.43,0a.77.77,0,0,1,.9.67c1.68,5.59,3.42,11.36,5.27,17.31a11,11,0,0,0,1.18,2,1.61,1.61,0,0,1,.23.59c.16,1.42.27,2.84.43,4.27,0,.46-.09.63-.56.62-3.51,0-7,0-10.52,0-.5,0-.68-.17-.7-.66-.06-1.39-.19-2.77-.24-4.14a2.3,2.3,0,0,1,.28-.85,5,5,0,0,0,.32-.6c.18-.61.06-.76-.62-.76h-2.69c-.67,0-.81.2-.54.82a.86.86,0,0,0,.31.42c.73.3.68.89.71,1.47C140.65,62.85,140.75,64.25,140.83,65.7Zm-1.19-11.45h2.8c-.66-2.66-1.31-5.23-1.94-7.77h-.13C140.13,49,139.89,51.57,139.64,54.25Z" fill="#fff"/><path d="M192,65.75l-.73,0c-3.12,0-6.24,0-9.36,0-.62,0-.84-.18-.92-.79-.19-1.35-.44-2.68-.65-4,0-.22-.1-.5,0-.62.79-1,.6-2.35.64-3.58.17-5,.3-9.81.44-14.51,0-.48,0-.95,0-1.43s.14-.48.53-.47l12.71,0a.67.67,0,0,1,.72.49c1.19,2.72,2.4,5.5,3.64,8.31,1.34,3,2.68,6.13,4.12,9.27a12.08,12.08,0,0,0,1.33,1.8,2.4,2.4,0,0,1,.38.64c.35,1.41.66,2.83,1,4.26.11.46,0,.62-.48.62-3.5,0-7,0-10.49,0-.49,0-.69-.16-.78-.65-.25-1.39-.57-2.77-.81-4.14a1.92,1.92,0,0,1,.17-.84c.06-.21.2-.39.24-.6.09-.61-.06-.76-.73-.76h-2.69c-.66,0-.77.21-.41.82a1,1,0,0,0,.37.42c.77.3.78.89.89,1.47C191.45,62.9,191.73,64.29,192,65.75Zm-3-19.27-.11,0c.11,2.56.23,5.16.34,7.82H192Z" fill="#fff"/><path d="M94.67,56.39h9.17c0,.73.07,1.45.16,2.15a1.39,1.39,0,0,0,1.27,1.4,1.58,1.58,0,0,0,1.82-.75,2.16,2.16,0,0,0-.42-2.59,9.11,9.11,0,0,0-2.41-1.11c-1.68-.53-3.43-.84-5.06-1.44C96,52.88,94.79,50.93,95,47.65A11.51,11.51,0,0,1,95.45,45c.89-2.87,3.13-4.33,6-4.85A22.23,22.23,0,0,1,115.87,42a.83.83,0,0,1,.56.86q0,2.25,0,4.53c0,.45-.13.64-.65.63q-3.7,0-7.43,0c-.48,0-.71-.11-.66-.61a2.5,2.5,0,0,0,0-.77,1.54,1.54,0,0,0-2.18-1.25,1.21,1.21,0,0,0-.91.94,1.3,1.3,0,0,0,.52,1.5,7.22,7.22,0,0,0,1.71.73c1.89.53,3.84.91,5.7,1.54a6.3,6.3,0,0,1,4.59,6,10.94,10.94,0,0,1-.7,5.24,7.23,7.23,0,0,1-5.41,4.25c-5.75,1.26-11.3.91-16.34-2a.84.84,0,0,1-.43-.61c.11-2.16.27-4.3.42-6.41A.76.76,0,0,1,94.67,56.39Z" fill="#fff"/><path d="M83.9,52c.25,0,.42,0,.58,0,2.38,0,4.76,0,7.13,0,.47,0,.64.12.61.59q-.48,6.11-.93,12.48c0,.5-.22.66-.71.65q-10.5,0-21,0c-.47,0-.66-.13-.58-.64.22-1.44.38-2.86.6-4.28a2,2,0,0,1,.37-.67c.27-.44.73-.87.79-1.3.61-4.24,1.14-8.38,1.64-12.43a1.23,1.23,0,0,0-.28-1,1.25,1.25,0,0,1-.32-1.21c.18-1.14.33-2.28.46-3.41,0-.42.18-.58.66-.58,3.39,0,6.78,0,10.17,0,.48,0,.59.15.53.57-.15,1.23-.23,2.46-.4,3.71,0,.24-.28.49-.44.73a6.83,6.83,0,0,0-.8,1.1,4.2,4.2,0,0,0-.28,1.31c-.38,3.52-.74,7.12-1.16,10.78-.07.65.17.77.75.71a2,2,0,0,0,2.1-2c.18-1.48.3-3,.45-4.41C83.85,52.51,83.87,52.29,83.9,52Z" fill="#fff"/><path d="M60.45,52h6.09c.56,0,1.12,0,1.68,0s.59.14.52.57c-.24,1.58-.45,3.18-.67,4.79-.35,2.49-.72,5-1,7.56-.07.59-.24.81-.89.81q-10.39,0-20.83,0c-.59,0-.74-.16-.6-.75.31-1.37.54-2.74.83-4.09a1.26,1.26,0,0,1,.37-.69A2.66,2.66,0,0,0,47,58.55c.23-1,.44-1.92.62-2.87.56-2.81,1.11-5.57,1.63-8.29.16-.86.35-1.75-.39-2.35a.29.29,0,0,1-.07-.26c.29-1.52.6-3,.9-4.55l11.33,0c-.26,1.52-.5,3-.77,4.5,0,.14-.24.27-.36.41a7.58,7.58,0,0,0-1,1.25,4.35,4.35,0,0,0-.37,1.37q-.89,5.17-1.8,10.55c-.13.8-.08.85.73.77a2.13,2.13,0,0,0,2.18-2c.27-1.48.49-3,.73-4.41C60.37,52.5,60.4,52.27,60.45,52Z" fill="#fff"/><path d="M42.3,65.62c-.3,0-.55,0-.79,0-3.42,0-6.84,0-10.27,0-.63,0-.84-.14-.66-.81.37-1.34.64-2.69,1-4a3.6,3.6,0,0,1,.54-.84A5.94,5.94,0,0,0,33,58.54c1-4.07,1.92-8.06,2.83-12a1.52,1.52,0,0,0-.32-1.44.75.75,0,0,1-.11-.63c.28-1.28.61-2.56.89-3.82a.56.56,0,0,1,.65-.53c3.37,0,6.75,0,10.12,0a2.53,2.53,0,0,1,.41.06c-.31,1.51-.62,3-.94,4.53a.56.56,0,0,1-.22.31,2.51,2.51,0,0,0-1.11,1.77q-1.17,5.61-2.38,11.46a1.8,1.8,0,0,0,.37,1.85.48.48,0,0,1,.1.39C43,62.21,42.65,63.88,42.3,65.62Z" fill="#fff"/><path d="M213.44,65.8c-1.71,0-3.43,0-5.14,0-.52,0-.78-.12-.9-.7-.29-1.39-.66-2.76-1-4.13a1.93,1.93,0,0,1,.09-.75c.09-.52.4-1,.28-1.54-.92-4-1.88-8-2.82-11.84a2.49,2.49,0,0,0-1-1.49,1.09,1.09,0,0,1-.37-.57c-.33-1.3-.61-2.59-.93-3.87-.1-.37,0-.5.41-.5,3.3,0,6.6,0,9.89,0a.57.57,0,0,1,.67.51c.32,1.28.69,2.56,1,3.86a.63.63,0,0,1,0,.53,1.69,1.69,0,0,0-.24,1.72q.9,3.48,1.86,7c.4,1.51.81,3,1.23,4.55a2.86,2.86,0,0,0,1.15,1.67,1.24,1.24,0,0,1,.38.63c.4,1.41.76,2.83,1.17,4.26.13.46,0,.62-.44.61C217,65.79,215.2,65.8,213.44,65.8Z" fill="#fff"/><polygon points="61.16 90.74 54.17 90.74 56.99 73.39 63.68 73.39 61.16 90.74" fill="#fff"/><polygon points="51.06 90.74 45.45 90.74 46.44 85.35 51.98 85.35 51.06 90.74" fill="#fff"/><polygon points="42.75 90.74 37.13 90.74 38.24 85.35 43.78 85.35 42.75 90.74" fill="#fff"/><polygon points="34.93 90.74 29.31 90.74 30.53 85.35 36.07 85.35 34.93 90.74" fill="#fff"/><polygon points="81.09 73.4 80.28 81.58 72.92 73.39 66.23 73.39 63.83 90.74 70.82 90.74 71.94 81.47 79.37 90.74 86.35 90.74 87.77 73.4 81.09 73.4" fill="#fff"/><path d="M115.87,81.89,103.56,78H111l0,1.36h7.09V76.48c0-1.69-1.08-3.06-2.41-3.06H99.37c-1.33,0-2.5,1.37-2.6,3.06l-.19,3.26v.13c-.07,1.15.76,1.94,2,2.35l12.4,4h-7.58l.06-1.42H96.29l-.15,2.71c-.11,1.8.94,3.29,2.33,3.29h17c1.39,0,2.53-1.49,2.53-3.29V84.26C118,83.09,117.17,82.3,115.87,81.89Z" fill="#fff"/><path d="M141.22,75.72a2.24,2.24,0,0,0-1.94-2.29h-19l.06,17.32h7l-.08-4.13H140.1c1,0,1.7-1,1.63-2.28Zm-14.06,6.4-.08-3.6h7.71l.15,3.6Z" fill="#fff"/><path d="M158.94,90.74h7.45l-9.9-17.3h-7.55L142.1,90.74h7.46l.66-2.2h7.66Zm-7.27-7,1.51-5,2.4,5Z" fill="#fff"/><path d="M183,83.13l.44,2.68h-8.33L174,78.07h8.17l.42,2.62h7.32l-.91-5a2.61,2.61,0,0,0-2.22-2.29H168.42c-1,0-1.67,1-1.52,2.29l1.58,12.55a2.6,2.6,0,0,0,2.19,2.46h19.19c1,0,1.68-1.1,1.43-2.46l-.94-5.15Z" fill="#fff"/><polygon points="213.52 85.38 199.81 85.38 199.56 84.2 210.99 84.2 209.77 79.59 198.61 79.59 198.39 78.5 211.84 78.5 210.63 73.47 197.35 73.46 197.35 73.46 190.72 73.46 193.98 90.74 214.81 90.74 213.52 85.38" fill="#fff"/></g></svg>