<?xml version="1.0" encoding="UTF-8"?><svg xmlns="http://www.w3.org/2000/svg" width="380" height="29" viewBox="0 0 380 29"><g id="a"/><g id="b"><g><g><path d="M10.17,.45h22.24l-1.47,5.31L11.65,21.9h15.36l-1.7,6.16H0l1.89-5.94L21.26,6.13H8.37L10.17,.45Z" fill="#fff"/><path d="M33.96,.45h21.06l-1.35,5.68h-13.32l-1.12,4.3h12.45l-1.34,5.61h-12.57l-1.44,5.53h14.07l-1.53,6.48H26.39L33.96,.45Z" fill="#fff"/><path d="M57.17,.45h14.71c2.45,0,4.21,.63,5.27,1.89,1.07,1.27,1.42,2.85,1.05,4.74-.31,1.6-1.05,2.97-2.23,4.13-.79,.77-1.84,1.38-3.16,1.83,1.77,.48,2.99,1.29,3.64,2.46,.66,1.17,.82,2.65,.47,4.43-.28,1.46-.85,2.79-1.72,3.97-.87,1.18-1.93,2.12-3.18,2.82-.78,.43-1.88,.75-3.31,.94-1.91,.26-3.17,.39-3.77,.39h-14.23L57.17,.45Zm5.62,10.52h3.48c1.25,0,2.16-.23,2.75-.68,.58-.45,.96-1.1,1.14-1.95,.16-.79,.05-1.4-.34-1.84-.39-.44-1.19-.66-2.39-.66h-3.5l-1.13,5.13Zm-2.4,10.93h4.16c1.4,0,2.45-.27,3.14-.8,.69-.53,1.12-1.25,1.3-2.14,.17-.83,.02-1.49-.44-1.99-.46-.5-1.4-.75-2.81-.75h-4.1l-1.25,5.69Z" fill="#fff"/><path d="M77.18,28.06L82.41,.45h13.1c2.43,0,4.25,.22,5.47,.65,1.22,.43,2.13,1.24,2.74,2.41,.61,1.18,.79,2.63,.54,4.34-.22,1.5-.72,2.81-1.5,3.91s-1.76,2-2.95,2.69c-.76,.44-1.76,.81-3,1.1,.91,.34,1.55,.68,1.94,1.02,.26,.23,.62,.72,1.07,1.47,.45,.75,.74,1.33,.87,1.74l2.73,8.27h-9.31l-2.94-8.72c-.36-1.11-.73-1.83-1.1-2.16-.51-.43-1.13-.65-1.87-.65h-.71l-2.02,11.52h-8.28Zm11.21-16.74h3.38c.37,0,1.09-.12,2.18-.37,.55-.11,1.03-.4,1.44-.86,.41-.46,.66-.98,.76-1.57,.14-.87-.01-1.54-.46-2.01-.45-.46-1.4-.7-2.85-.7h-3.48l-.97,5.51Z" fill="#fff"/><path d="M120.4,23.32h-9.28l-1.93,4.74h-8.41L114.46,.45h8.57l6.77,27.61h-8.63l-.78-4.74Zm-.96-6.1l-1.65-9.86-4.1,9.86h5.75Z" fill="#fff"/><path d="M129.35,18.63l7.76-.52c.05,1.34,.3,2.36,.75,3.07,.74,1.15,1.89,1.72,3.45,1.72,1.17,0,2.09-.29,2.76-.88,.68-.59,1.04-1.26,1.1-2.03,.06-.73-.19-1.38-.75-1.95-.55-.57-1.89-1.11-4.01-1.62-3.47-.85-5.88-1.97-7.25-3.36-1.37-1.39-1.95-3.14-1.73-5.26,.14-1.38,.66-2.69,1.54-3.91,.88-1.22,2.12-2.17,3.71-2.86,1.59-.69,3.7-1.03,6.35-1.03,3.25,0,5.68,.63,7.3,1.88,1.63,1.26,2.52,3.28,2.66,6.07l-7.54,.46c-.11-1.22-.45-2.1-1.05-2.65-.59-.55-1.45-.82-2.57-.82-.92,0-1.63,.2-2.13,.61-.5,.41-.78,.91-.83,1.49-.04,.43,.12,.82,.48,1.16,.34,.36,1.21,.69,2.59,1,3.43,.79,5.87,1.59,7.33,2.41,1.46,.82,2.5,1.83,3.11,3.05,.62,1.22,.88,2.6,.78,4.12-.11,1.8-.69,3.48-1.72,5.02-1.04,1.55-2.44,2.73-4.19,3.53-1.76,.81-3.93,1.21-6.51,1.21-4.54,0-7.59-.95-9.15-2.83-1.55-1.87-2.29-4.24-2.22-7.09Z" fill="#fff"/><path d="M168.98,8.57h4.98l-.11,3.54h-5.03l.16-3.54Zm-.23,5.19h5.05l-.45,14.3h-5.23l.63-14.3Z" fill="#fff"/><path d="M175.24,13.76h4.7l-.04,2.26c.72-.93,1.44-1.59,2.17-1.98,.72-.39,1.6-.59,2.63-.59,1.4,0,2.49,.44,3.28,1.31,.8,.88,1.2,2.24,1.21,4.1l.06,9.2h-5.25l.05-7.99c0-.89-.15-1.52-.45-1.89-.31-.37-.74-.55-1.3-.55-.62,0-1.12,.25-1.51,.74-.39,.5-.6,1.39-.62,2.69l-.11,6.99h-5.23l.4-14.3Z" fill="#fff"/><path d="M230.12,.45h10.34l5.56,16.49L248.4,.45h10.33l3.34,27.61h-6.75l-2.33-21.29-2.87,21.29h-6.11l-6.93-21.29,1.74,21.29h-6.75l-1.95-27.61Z" fill="#fff"/><path d="M261.24,.45h21.06l.92,5.68h-13.32l.6,4.3h12.45l.9,5.61h-12.57l.77,5.53h14.07l1.06,6.48h-22.48l-3.46-27.61Z" fill="#fff"/><path d="M289.12,28.06L284.53,.45h13.1c2.43,0,4.33,.22,5.7,.65,1.37,.43,2.57,1.24,3.6,2.41,1.03,1.18,1.73,2.63,2.08,4.34,.31,1.5,.27,2.81-.11,3.91s-1.05,2-1.99,2.69c-.6,.44-1.47,.81-2.61,1.1,1.03,.34,1.8,.68,2.3,1.02,.34,.23,.87,.72,1.59,1.47,.72,.75,1.22,1.33,1.49,1.74l5.67,8.27h-9.31l-6.04-8.72c-.76-1.11-1.38-1.83-1.87-2.16-.66-.43-1.36-.65-2.1-.65h-.71l2.08,11.52h-8.28Zm5.26-16.74h3.38c.37,0,1.05-.12,2.05-.37,.51-.11,.89-.4,1.13-.86,.25-.46,.31-.98,.2-1.57-.17-.87-.56-1.54-1.18-2.01-.61-.46-1.65-.7-3.09-.7h-3.48l.99,5.51Z" fill="#fff"/><path d="M309.89,.45h7.88l6.2,27.61h-8.26L309.89,.45Z" fill="#fff"/><path d="M342,16.44l7.7,2.29c.1,2.14-.17,3.94-.81,5.39-.65,1.46-1.64,2.56-2.99,3.31-1.35,.75-3.22,1.13-5.61,1.13-2.9,0-5.38-.46-7.44-1.37-2.05-.91-4-2.5-5.86-4.77-1.84-2.25-3.15-5.11-3.94-8.55-1.04-4.53-.69-7.96,1.01-10.33,1.69-2.35,4.57-3.53,8.66-3.53,3.2,0,5.89,.67,8.08,2.02,2.2,1.35,4.13,3.44,5.8,6.28l-6.61,1.65c-.46-.83-.88-1.43-1.24-1.81-.61-.64-1.28-1.13-2.01-1.47-.73-.34-1.49-.51-2.29-.51-1.8,0-2.99,.76-3.58,2.28-.45,1.13-.38,2.92,.21,5.38,.75,3.07,1.7,5.2,2.87,6.35,1.17,1.16,2.56,1.74,4.17,1.74s2.62-.47,3.18-1.41c.55-.94,.78-2.29,.68-4.05Z" fill="#fff"/><path d="M368.6,23.32h-9.28l.06,4.74h-8.41l2.11-27.61h8.57l18.36,27.61h-8.63l-2.77-4.74Zm-3.52-6.1l-5.79-9.86,.04,9.86h5.75Z" fill="#fff"/></g><path d="M220.64,.45h-8.57l-8.95,27.61h8.41l1.12-4.74h9.28l1.59,4.74h8.63L220.64,.45Zm-2.15,16.54l-1.78-.93-1.78,.93,.34-1.98-1.44-1.4,1.99-.29,.89-1.8,.89,1.8,1.99,.29-1.44,1.4,.34,1.98Z" fill="#fff"/></g></g></svg>