<svg xmlns="http://www.w3.org/2000/svg" width="350" height="108" viewBox="0 0 350 108"><path d="M97.65,10.36a.86.86,0,0,0-.12.38.31.31,0,0,0,.23.29,3.61,3.61,0,0,0,.68.16c.2,0,.3.11.3.25a1.52,1.52,0,0,1,0,.24l-.92-.07c-.28,0-.58,0-.88,0l-.69,0c-.24,0-.5,0-.79.08l0-.13a.52.52,0,0,1,0-.11c0-.15.1-.24.28-.27a1.41,1.41,0,0,0,1.11-.63l5.3-9.75a.28.28,0,0,1,.25-.16.2.2,0,0,1,.1,0l.08,0,1.77,9.81a.6.6,0,0,0,.3.45,1.72,1.72,0,0,0,.64.21.6.6,0,0,1,.28.1.22.22,0,0,1,.07.17,1.61,1.61,0,0,1,0,.25l-.89-.06q-.42,0-.87,0c-.65,0-1.29,0-1.93.1a.49.49,0,0,1,0-.24c0-.15.1-.24.31-.27a1.54,1.54,0,0,0,.46-.15.38.38,0,0,0,.25-.36v-.1a.76.76,0,0,0,0-.15l-.5-2.76H99.12ZM102.18,7l-.64-3.86L99.45,7Z" fill="#fff"/><path d="M111.65,6.59a3.37,3.37,0,0,0,.1-.75q0-.48-.36-.48a1,1,0,0,0-.58.27,7,7,0,0,0-.72.72c-.25.29-.5.62-.76,1a10.91,10.91,0,0,0-.67,1.11,6,6,0,0,0-.29.62,5.83,5.83,0,0,0-.25.7,5.94,5.94,0,0,0-.17.7,3.81,3.81,0,0,0-.06.64,2.14,2.14,0,0,0,0,.45,9.27,9.27,0,0,0-1.3.25c-.09-.06-.14-.12-.14-.2s0-.07,0-.14,0-.13,0-.17c.25-1.27.44-2.28.58-3s.25-1.31.33-1.69.13-.63.14-.75a1.88,1.88,0,0,0,0-.2c0-.14,0-.2-.13-.2a.49.49,0,0,0-.2.06L107,5.6l-.27.12a.53.53,0,0,1-.2.06.19.19,0,0,1-.14-.1.85.85,0,0,1-.09-.24c.2-.12.43-.25.7-.38l.76-.38a6.8,6.8,0,0,1,.67-.29,1.32,1.32,0,0,1,.38-.12.32.32,0,0,1,.2.06.21.21,0,0,1,.09.19s0,.06,0,.11l0,.17-.59,2.88h.06c.29-.49.58-.94.88-1.36a7.15,7.15,0,0,1,.9-1.08,3.82,3.82,0,0,1,.91-.71,1.93,1.93,0,0,1,.94-.26.94.94,0,0,1,.64.24,1,1,0,0,1,.27.77,3.64,3.64,0,0,1,0,.45c0,.16-.06.35-.1.56l-.26,1.32h0c.28-.47.58-.91.87-1.32a9,9,0,0,1,.9-1.06,4.31,4.31,0,0,1,.92-.7,1.93,1.93,0,0,1,.93-.26,1,1,0,0,1,.63.23,1,1,0,0,1,.26.76,4.15,4.15,0,0,1,0,.49c0,.17,0,.34-.08.51l-.84,4,0,.17a1.15,1.15,0,0,0,0,.14c0,.15.07.22.2.22a.53.53,0,0,0,.24-.06l.24-.13.23-.14a.51.51,0,0,1,.17,0c.11,0,.19.11.22.33a6.25,6.25,0,0,1-.6.4c-.21.13-.42.24-.61.34a5,5,0,0,1-.56.24,1.43,1.43,0,0,1-.43.09.84.84,0,0,1-.35-.07c-.11-.05-.17-.17-.17-.36,0,0,0-.09,0-.17a1.09,1.09,0,0,1,0-.17l1-4.42a4.36,4.36,0,0,0,.08-.75c0-.32-.12-.48-.35-.48a1,1,0,0,0-.57.27,7,7,0,0,0-.72.72c-.25.29-.51.62-.77,1a9.47,9.47,0,0,0-.68,1.11,4.22,4.22,0,0,0-.27.56c-.09.22-.17.45-.25.69a6,6,0,0,0-.18.73,4.48,4.48,0,0,0-.07.68,2.14,2.14,0,0,0,0,.45,12.38,12.38,0,0,0-1.3.25c-.09-.07-.14-.13-.14-.2s0-.07,0-.13,0-.13,0-.18Z" fill="#fff"/><path d="M120.06,8.23l0,.33c0,.11,0,.22,0,.34a4.54,4.54,0,0,0,.07.75,1.8,1.8,0,0,0,.23.64,1.27,1.27,0,0,0,.46.46,1.46,1.46,0,0,0,.73.17,2.93,2.93,0,0,0,.9-.15,4,4,0,0,0,.94-.49.54.54,0,0,1,.23-.12.18.18,0,0,1,.18.13,1.36,1.36,0,0,1,0,.2c-.17.16-.36.31-.56.47a5.11,5.11,0,0,1-.68.41,5.24,5.24,0,0,1-.78.3,3.49,3.49,0,0,1-.86.11,2.29,2.29,0,0,1-1.14-.25,1.93,1.93,0,0,1-.69-.67,2.5,2.5,0,0,1-.35-.88,5,5,0,0,1-.09-.93,5.84,5.84,0,0,1,.27-1.74,5.49,5.49,0,0,1,.77-1.53,4,4,0,0,1,1.21-1.1,3.19,3.19,0,0,1,1.59-.41,2.59,2.59,0,0,1,.68.09,1.88,1.88,0,0,1,.59.27,1.46,1.46,0,0,1,.41.48,1.47,1.47,0,0,1,.16.72,1.79,1.79,0,0,1-.32,1,2.52,2.52,0,0,1-.9.72,4.87,4.87,0,0,1-1.35.44A12.09,12.09,0,0,1,120.06,8.23Zm0-.5a4.24,4.24,0,0,0,2.23-.65A1.57,1.57,0,0,0,123,5.79a1,1,0,0,0-.22-.7.78.78,0,0,0-.6-.24,1.26,1.26,0,0,0-.74.24,2.34,2.34,0,0,0-.61.64,3.88,3.88,0,0,0-.46.91A5.59,5.59,0,0,0,120.11,7.73Z" fill="#fff"/><path d="M129.66,5.84a1.16,1.16,0,0,0-.61.23,4.3,4.3,0,0,0-.68.63,9.16,9.16,0,0,0-.66.92,9.65,9.65,0,0,0-.57,1.11,8.44,8.44,0,0,0-.4,1.2,4.94,4.94,0,0,0-.15,1.17,2.14,2.14,0,0,0,0,.45c-.22,0-.44.06-.67.1s-.45.09-.67.15-.15-.12-.15-.2a1.11,1.11,0,0,1,0-.23,2.18,2.18,0,0,1,.06-.22.84.84,0,0,0,.07-.19c0-.08,0-.19.07-.34l.72-3.75c.08-.43.13-.72.15-.88s0-.26,0-.33,0-.22-.15-.22a.76.76,0,0,0-.19,0l-.26.12-.27.12a.59.59,0,0,1-.19,0,.19.19,0,0,1-.14-.1.85.85,0,0,1-.09-.24c.2-.12.44-.25.71-.38l.77-.38a6.8,6.8,0,0,1,.67-.29,1.29,1.29,0,0,1,.37-.12.34.34,0,0,1,.2.06.23.23,0,0,1,.08.19.54.54,0,0,1,0,.11,1,1,0,0,1,0,.17l-.53,2.48h.06A10.61,10.61,0,0,1,129,5a2.16,2.16,0,0,1,1.45-.71.76.76,0,0,1,.27.05.57.57,0,0,1,.18.1c-.1.25-.19.52-.27.79s-.13.59-.18.93h-.26A.52.52,0,0,0,129.66,5.84Z" fill="#fff"/><path d="M132.67,10.23s0,.1,0,.17a.56.56,0,0,0,0,.16.18.18,0,0,0,.2.2.6.6,0,0,0,.24-.06l.25-.13.22-.14a.47.47,0,0,1,.16,0q.17,0,.24.33a5.35,5.35,0,0,1-.61.4c-.21.13-.42.24-.62.34a4.28,4.28,0,0,1-.56.24,1.43,1.43,0,0,1-.43.09.84.84,0,0,1-.35-.07c-.11-.05-.16-.17-.16-.36a1.31,1.31,0,0,1,0-.17.47.47,0,0,1,0-.17l.57-2.83c.15-.7.26-1.23.33-1.6s.12-.62.14-.74,0-.19,0-.21,0-.2-.15-.2a.58.58,0,0,0-.2.06l-.28.11-.27.12a.49.49,0,0,1-.19.06.16.16,0,0,1-.15-.1,1.35,1.35,0,0,1-.08-.24l.69-.37.77-.39c.25-.12.47-.22.66-.29a1.45,1.45,0,0,1,.39-.12.24.24,0,0,1,.28.28,1.13,1.13,0,0,1,0,.25Zm.84-7.73a.63.63,0,0,1-.49-.19.69.69,0,0,1-.19-.51,1.24,1.24,0,0,1,.31-.8.92.92,0,0,1,.74-.35.53.53,0,0,1,.47.21,1,1,0,0,1,.14.55,1.2,1.2,0,0,1-.28.75A.87.87,0,0,1,133.51,2.5Z" fill="#fff"/><path d="M138.81,4.9a1.64,1.64,0,0,0-1,.33,2.77,2.77,0,0,0-.73.88,5.09,5.09,0,0,0-.44,1.3A8,8,0,0,0,136.47,9a3.67,3.67,0,0,0,.08.75,1.72,1.72,0,0,0,.25.62,1.1,1.1,0,0,0,.48.42,1.54,1.54,0,0,0,.75.16,2.31,2.31,0,0,0,.93-.19,6.69,6.69,0,0,0,.87-.47l.09-.06.08,0a.16.16,0,0,1,.17.13,1.15,1.15,0,0,1,.06.21c-.16.14-.35.28-.56.43a4.65,4.65,0,0,1-.69.41,5.24,5.24,0,0,1-.78.3,3.56,3.56,0,0,1-.86.11,2.13,2.13,0,0,1-1.06-.23,2,2,0,0,1-.7-.6,2.25,2.25,0,0,1-.37-.85,4.35,4.35,0,0,1-.11-1,6,6,0,0,1,.27-1.79,5.6,5.6,0,0,1,.77-1.57,4.06,4.06,0,0,1,1.2-1.1,3.07,3.07,0,0,1,1.55-.41,4.59,4.59,0,0,1,2,.46,3.6,3.6,0,0,0-.15.7c0,.3-.08.56-.1.79h-.25a.31.31,0,0,1-.3-.25,1.46,1.46,0,0,0-.5-.83A1.39,1.39,0,0,0,138.81,4.9Z" fill="#fff"/><path d="M145.81,8.84h-.07a8.12,8.12,0,0,1-.84,1.37,5.43,5.43,0,0,1-.85.91,3.45,3.45,0,0,1-.83.51,2.23,2.23,0,0,1-.77.15,1.45,1.45,0,0,1-.47-.07,1,1,0,0,1-.4-.26,1.1,1.1,0,0,1-.27-.49,2.6,2.6,0,0,1-.1-.8,6.52,6.52,0,0,1,.45-2.5,6.32,6.32,0,0,1,1.14-1.84,5,5,0,0,1,1.46-1.15,3.23,3.23,0,0,1,1.47-.4c.35,0,.69,0,1,.05a8.63,8.63,0,0,1,1.1.18l-1.14,5.74a1.69,1.69,0,0,0,0,.3c0,.15.06.22.18.22a.53.53,0,0,0,.24-.06l.25-.13.23-.14a.49.49,0,0,1,.18,0c.1,0,.18.11.23.33-.2.14-.41.28-.62.4l-.62.34a4.38,4.38,0,0,1-.57.24,1.37,1.37,0,0,1-.43.09.72.72,0,0,1-.33-.07.33.33,0,0,1-.15-.32,1.37,1.37,0,0,1,0-.19,1.89,1.89,0,0,1,.05-.23Zm.59-3.76A3.83,3.83,0,0,0,146,5a3.91,3.91,0,0,0-.46,0,2.13,2.13,0,0,0-1.19.35,3,3,0,0,0-.91,1,4.93,4.93,0,0,0-.59,1.49,7.81,7.81,0,0,0-.21,1.87,1.79,1.79,0,0,0,.15.85.46.46,0,0,0,.42.25,1.24,1.24,0,0,0,.71-.29,4.29,4.29,0,0,0,.74-.78,9.8,9.8,0,0,0,.68-1.09,9.76,9.76,0,0,0,.57-1.23,9,9,0,0,0,.38-1.22A4.14,4.14,0,0,0,146.4,5.08Z" fill="#fff"/><path d="M154.63,6.59a3.37,3.37,0,0,0,.1-.75.42.42,0,0,0-.46-.48,1.14,1.14,0,0,0-.62.27,6.15,6.15,0,0,0-.76.72,10.17,10.17,0,0,0-.78,1,11.18,11.18,0,0,0-.69,1.11,6,6,0,0,0-.29.62c-.09.23-.18.46-.25.7a4.41,4.41,0,0,0-.16.7,3.81,3.81,0,0,0-.06.64,1.64,1.64,0,0,0,.05.45,9.4,9.4,0,0,0-1.31.25.23.23,0,0,1-.13-.2,1,1,0,0,1,0-.14,1.46,1.46,0,0,1,0-.17c.25-1.28.45-2.29.59-3s.25-1.3.33-1.68.11-.63.13-.75,0-.18,0-.2,0-.2-.13-.2a.58.58,0,0,0-.2.06l-.27.11-.27.12a.58.58,0,0,1-.2.06.16.16,0,0,1-.14-.1.85.85,0,0,1-.09-.24,7.17,7.17,0,0,1,.7-.38c.27-.14.53-.27.78-.38s.47-.22.66-.29a1.29,1.29,0,0,1,.37-.12.31.31,0,0,1,.19.06.21.21,0,0,1,.09.19s0,.07,0,.12a1.1,1.1,0,0,1,0,.16l-.59,2.88h.06a16,16,0,0,1,.9-1.36,7.88,7.88,0,0,1,.93-1.08,4,4,0,0,1,1-.71,2,2,0,0,1,1-.26,1.13,1.13,0,0,1,.74.23,1,1,0,0,1,.27.76,4.38,4.38,0,0,1,0,.47c0,.17,0,.35-.09.53l-.84,4a2.26,2.26,0,0,0-.05.31c0,.15.07.22.2.22a.6.6,0,0,0,.23-.06l.26-.13.22-.14a.45.45,0,0,1,.17,0c.11,0,.18.11.23.33-.2.14-.4.28-.61.4s-.41.24-.61.34a6,6,0,0,1-.57.24,1.43,1.43,0,0,1-.43.09.8.8,0,0,1-.34-.07.37.37,0,0,1-.16-.36s0-.08,0-.15,0-.14,0-.19Z" fill="#fff"/><path d="M161.91,10.36a.83.83,0,0,0-.11.38A.3.3,0,0,0,162,11a3.56,3.56,0,0,0,.69.16c.19,0,.29.11.29.25a1.52,1.52,0,0,1,0,.24l-.92-.07c-.28,0-.57,0-.88,0l-.69,0c-.24,0-.5,0-.79.08l0-.13a.52.52,0,0,1,0-.11c0-.15.1-.24.29-.27a1.41,1.41,0,0,0,1.1-.63l5.3-9.75a.29.29,0,0,1,.25-.16.2.2,0,0,1,.1,0l.08,0,1.77,9.81a.6.6,0,0,0,.3.45,1.72,1.72,0,0,0,.64.21.72.72,0,0,1,.29.1.25.25,0,0,1,.06.17,1.61,1.61,0,0,1,0,.25l-.89-.06q-.42,0-.87,0c-.65,0-1.29,0-1.93.1a.49.49,0,0,1,0-.24c0-.15.1-.24.31-.27a1.59,1.59,0,0,0,.47-.15.38.38,0,0,0,.24-.36v-.1a.76.76,0,0,0,0-.15l-.5-2.76h-3.18ZM166.45,7l-.65-3.86L163.71,7Z" fill="#fff"/><path d="M175.22,5.84a1.16,1.16,0,0,0-.61.23,4.3,4.3,0,0,0-.68.63,9.16,9.16,0,0,0-.66.92,9.65,9.65,0,0,0-.57,1.11,8.44,8.44,0,0,0-.4,1.2,4.91,4.91,0,0,0-.14,1.17,2.15,2.15,0,0,0,0,.45c-.22,0-.44.06-.67.1s-.45.09-.67.15-.14-.12-.14-.2a1,1,0,0,1,0-.23,2.18,2.18,0,0,1,.06-.22.84.84,0,0,0,.07-.19c0-.08,0-.19.07-.34l.73-3.75c.07-.43.12-.72.14-.88s0-.26.05-.33-.05-.22-.15-.22a.76.76,0,0,0-.19,0l-.26.12-.27.12a.59.59,0,0,1-.19,0,.19.19,0,0,1-.14-.1,1.34,1.34,0,0,1-.09-.24c.2-.12.44-.25.71-.38l.77-.38a6.8,6.8,0,0,1,.67-.29,1.29,1.29,0,0,1,.37-.12.34.34,0,0,1,.2.06.23.23,0,0,1,.08.19.54.54,0,0,1,0,.11,1,1,0,0,1,0,.17l-.53,2.48h.06A10.61,10.61,0,0,1,174.51,5,2.16,2.16,0,0,1,176,4.27a.76.76,0,0,1,.27.05.47.47,0,0,1,.18.1c-.1.25-.19.52-.27.79s-.13.59-.18.93h-.26A.52.52,0,0,0,175.22,5.84Z" fill="#fff"/><path d="M178.2,4.19a5.9,5.9,0,0,0,.13-1,2.38,2.38,0,0,0-.05-.45l.66-.1a4.62,4.62,0,0,0,.7-.15c.08.07.13.13.13.2s0,.07,0,.13a.74.74,0,0,1,0,.17l-.28,1.49h1.71a2.28,2.28,0,0,0-.1.36c0,.15-.06.28-.08.4a7.9,7.9,0,0,0-.85-.11l-.81-.06-.91,5.18a2.55,2.55,0,0,0,0,.35c0,.27.16.4.48.4a1.65,1.65,0,0,0,.46-.06,2,2,0,0,0,.37-.14l.25-.12a.42.42,0,0,1,.18-.06c.12,0,.19.1.21.31a4.08,4.08,0,0,1-1.11.63,3.09,3.09,0,0,1-1.14.23,1.39,1.39,0,0,1-.84-.19A.66.66,0,0,1,177,11a2,2,0,0,1,0-.35L178.05,5h-1.21A1.2,1.2,0,0,1,177,4.6a.26.26,0,0,1,.25-.13h1Z" fill="#fff"/><path d="M186,6.09a.31.31,0,0,1-.23-.09.49.49,0,0,1-.06-.17,1.34,1.34,0,0,0-.38-.77,1.13,1.13,0,0,0-.82-.28,1.62,1.62,0,0,0-.91.26.85.85,0,0,0-.38.74,1.07,1.07,0,0,0,.29.67,8.93,8.93,0,0,0,.69.68l.63.55a6.46,6.46,0,0,1,.59.57,2.71,2.71,0,0,1,.44.6,1.3,1.3,0,0,1,.18.65,1.92,1.92,0,0,1-.22.89,2.15,2.15,0,0,1-.59.72,2.73,2.73,0,0,1-.87.49,3.21,3.21,0,0,1-1.07.18,6,6,0,0,1-1.13-.1,4.31,4.31,0,0,1-1-.31c.09-.33.16-.64.21-.92s.08-.6.1-.95h.17c.26,0,.4.09.4.28a1.39,1.39,0,0,0,.32,1.08,1.29,1.29,0,0,0,1,.38,1.64,1.64,0,0,0,1.06-.34,1.08,1.08,0,0,0,.29-1.37,2.14,2.14,0,0,0-.32-.44c-.13-.13-.28-.27-.45-.41l-.51-.42a9.32,9.32,0,0,1-.9-.87,1.53,1.53,0,0,1-.41-1,1.68,1.68,0,0,1,.21-.83,2,2,0,0,1,.56-.65,2.72,2.72,0,0,1,.83-.43,3,3,0,0,1,1-.16,3.75,3.75,0,0,1,1.8.45,4.37,4.37,0,0,0-.14.63c0,.25-.07.5-.09.76Z" fill="#fff"/><path d="M196,7.58a2.25,2.25,0,0,1,.36-.82,2.67,2.67,0,0,1,.61-.6,2.59,2.59,0,0,1,.7-.36,2.17,2.17,0,0,1,.68-.12,3,3,0,0,1,.83.1c.24.06.47.14.7.22s.46.16.69.22a2.66,2.66,0,0,0,.77.1c.29,0,.47-.06.55-.19a.79.79,0,0,0,.12-.42,1,1,0,0,0,0-.32.72.72,0,0,1-.05-.28.25.25,0,0,1,.13-.24.54.54,0,0,1,.31-.09,1.09,1.09,0,0,1,.82.45,2.81,2.81,0,0,1-.86,1.45,2.12,2.12,0,0,1-1.36.45,4,4,0,0,1-.91-.08,2.94,2.94,0,0,1,.22.57,2.73,2.73,0,0,1,.09.72,3.1,3.1,0,0,1-.22,1.08,3,3,0,0,1-.78,1.11,4.44,4.44,0,0,1-1.51.89,7.08,7.08,0,0,1-2.45.36,7.19,7.19,0,0,1-1.44-.15,4.82,4.82,0,0,1-1.37-.53,3.14,3.14,0,0,1-1-1,2.76,2.76,0,0,1-.41-1.54,2.72,2.72,0,0,1,.75-1.93,3.76,3.76,0,0,1,2.21-1v0a2.92,2.92,0,0,1-1.28-.86,1.94,1.94,0,0,1-.44-1.24,2.2,2.2,0,0,1,.32-1.21,2.71,2.71,0,0,1,.84-.81A3.89,3.89,0,0,1,194.65,1a5.58,5.58,0,0,1,3,.15,4.91,4.91,0,0,1,1.28.66c.11.09.12.22,0,.4a1.27,1.27,0,0,1-.52.51.57.57,0,0,1-.76-.18,3.89,3.89,0,0,0-.93-.77,2.34,2.34,0,0,0-1.13-.28,2.45,2.45,0,0,0-.58.08,1.4,1.4,0,0,0-.58.3,1.62,1.62,0,0,0-.45.61,2.57,2.57,0,0,0-.17,1,2.88,2.88,0,0,0,.06.55,1.52,1.52,0,0,0,.29.6,2.08,2.08,0,0,0,.62.53,3,3,0,0,0,1.1.35L195.8,6l-.33,0h-.21a3.21,3.21,0,0,0-1.2.19,2.14,2.14,0,0,0-.79.5,1.66,1.66,0,0,0-.42.71,2.86,2.86,0,0,0-.12.82A3.13,3.13,0,0,0,193,9.48a2.62,2.62,0,0,0,.68.91,2.76,2.76,0,0,0,1,.55,4.47,4.47,0,0,0,1.29.18,4.93,4.93,0,0,0,1.47-.21,3.56,3.56,0,0,0,1.17-.58,2.66,2.66,0,0,0,.76-.88,2.4,2.4,0,0,0,.27-1.14,3.55,3.55,0,0,0-.06-.64,1.54,1.54,0,0,0-.27-.58,1.41,1.41,0,0,0-.55-.42,2.26,2.26,0,0,0-.94-.17.83.83,0,0,0-.54.16.74.74,0,0,0-.17.54.78.78,0,0,0,0,.24.38.38,0,0,1,0,.17.29.29,0,0,1-.14.28.69.69,0,0,1-.36.09,1,1,0,0,1-.4-.1A.81.81,0,0,1,196,7.58Z" fill="#fff"/><path d="M212,11.78a6.32,6.32,0,0,1-2.22-.34,3.92,3.92,0,0,1-1.5-1,3.67,3.67,0,0,1-.85-1.4,5.7,5.7,0,0,1-.26-1.73,7.47,7.47,0,0,1,.4-2.41,6.52,6.52,0,0,1,1.19-2.16,6.06,6.06,0,0,1,2-1.56,6.37,6.37,0,0,1,2.82-.59,9.18,9.18,0,0,1,1.6.13,10,10,0,0,1,1.48.37c0,.32-.05.63-.05.94s0,.44,0,.66,0,.44.06.66a.49.49,0,0,1-.3.09c-.21,0-.32-.09-.33-.25a2.05,2.05,0,0,0-.81-1.53,3.31,3.31,0,0,0-1.77-.43,4,4,0,0,0-2,.48A4.46,4.46,0,0,0,210,3a5.94,5.94,0,0,0-.92,1.89,8.24,8.24,0,0,0-.31,2.3A5.09,5.09,0,0,0,209,8.83a3.52,3.52,0,0,0,.68,1.22,2.86,2.86,0,0,0,1,.79,3.29,3.29,0,0,0,1.39.28,3,3,0,0,0,1.78-.46,3.7,3.7,0,0,0,1.14-1.49.4.4,0,0,1,.39-.27.54.54,0,0,1,.21,0,.35.35,0,0,1,.14.07,11.35,11.35,0,0,0-.44,1.12c-.12.39-.25.83-.39,1.31l-.77.13-.83.1c-.28,0-.54.06-.78.08Z" fill="#fff"/><path d="M218.87,9.47a4.47,4.47,0,0,0-.1.74.45.45,0,0,0,.16.38.66.66,0,0,0,.41.12,1.34,1.34,0,0,0,.76-.29,4.69,4.69,0,0,0,.78-.77,9.44,9.44,0,0,0,.75-1.09,11.16,11.16,0,0,0,.62-1.25,8.46,8.46,0,0,0,.42-1.26,4.35,4.35,0,0,0,.16-1.1,2.48,2.48,0,0,0-.05-.45,10.4,10.4,0,0,0,1.31-.25.26.26,0,0,1,.13.2s0,.07,0,.14,0,.13,0,.18L223,10.46c0,.2,0,.3.22.3a.49.49,0,0,0,.22-.06l.24-.12.23-.11a.38.38,0,0,1,.17-.06c.1,0,.17.1.2.3-.2.14-.41.28-.63.41s-.43.25-.63.35a3.42,3.42,0,0,1-.55.23,1.31,1.31,0,0,1-.41.08.67.67,0,0,1-.31-.07c-.1-.05-.15-.16-.15-.34a1.14,1.14,0,0,1,0-.15.46.46,0,0,1,0-.21l.48-2.29h-.07a7.56,7.56,0,0,1-1.77,2.34,2.85,2.85,0,0,1-1.77.72,1.25,1.25,0,0,1-.83-.26,1,1,0,0,1-.3-.8,2.77,2.77,0,0,1,0-.46c0-.18.05-.35.08-.51l.81-3.81a.89.89,0,0,1,0-.11.68.68,0,0,0,0-.12c0-.19,0-.28-.15-.28a.61.61,0,0,0-.22.06l-.29.11-.27.12a.49.49,0,0,1-.19.06.15.15,0,0,1-.13-.1,1.45,1.45,0,0,1-.09-.22l.67-.38.76-.39.67-.3a1.48,1.48,0,0,1,.4-.12c.22,0,.33.09.33.28a1,1,0,0,1,0,.17s0,.11,0,.16Z" fill="#fff"/><path d="M227.53,1.32a.45.45,0,0,0,0-.16c0-.06-.06-.08-.14-.08a.66.66,0,0,0-.17,0l-.27,0-.25,0-.17,0c-.14,0-.21-.12-.21-.35.49-.13,1-.27,1.37-.41s.84-.28,1.26-.45a.4.4,0,0,1,.16.16.28.28,0,0,1,0,.15.84.84,0,0,1,0,.27l-1.88,9.65s0,.12,0,.19a1,1,0,0,0,0,.14.18.18,0,0,0,.2.2.6.6,0,0,0,.24-.06l.25-.13.22-.14a.41.41,0,0,1,.16,0q.17,0,.24.33a5.35,5.35,0,0,1-.61.4c-.21.13-.42.24-.62.34a5,5,0,0,1-.56.24,1.43,1.43,0,0,1-.43.09.84.84,0,0,1-.35-.07c-.11-.05-.17-.17-.17-.36,0,0,0-.09,0-.17a1.09,1.09,0,0,1,0-.17l1.56-8a8.13,8.13,0,0,0,.15-.95C227.51,1.75,227.53,1.5,227.53,1.32Z" fill="#fff"/><path d="M231.24,4.19a5.9,5.9,0,0,0,.13-1,2.38,2.38,0,0,0-.05-.45l.66-.1a4.62,4.62,0,0,0,.7-.15c.08.07.13.13.13.2a.78.78,0,0,1,0,.13.74.74,0,0,1,0,.17l-.28,1.49h1.71a2.28,2.28,0,0,0-.1.36c0,.15-.06.28-.08.4a7.9,7.9,0,0,0-.85-.11l-.81-.06-.91,5.18a2.55,2.55,0,0,0,0,.35c0,.27.16.4.48.4a1.65,1.65,0,0,0,.46-.06,2,2,0,0,0,.37-.14l.26-.12a.35.35,0,0,1,.17-.06c.12,0,.19.1.21.31a4.08,4.08,0,0,1-1.11.63,3.09,3.09,0,0,1-1.14.23,1.39,1.39,0,0,1-.84-.19A.66.66,0,0,1,230,11a2,2,0,0,1,0-.35L231.09,5h-1.21A1.2,1.2,0,0,1,230,4.6a.26.26,0,0,1,.25-.13h.95Z" fill="#fff"/><path d="M236.38,9.47a4.47,4.47,0,0,0-.1.74.45.45,0,0,0,.16.38.66.66,0,0,0,.41.12,1.34,1.34,0,0,0,.76-.29,4.69,4.69,0,0,0,.78-.77,9.44,9.44,0,0,0,.75-1.09,11.16,11.16,0,0,0,.62-1.25,9.79,9.79,0,0,0,.42-1.26,4.35,4.35,0,0,0,.16-1.1,2.48,2.48,0,0,0-.05-.45,10.75,10.75,0,0,0,1.31-.25.26.26,0,0,1,.13.2s0,.07,0,.14l0,.18-1.13,5.69c0,.2,0,.3.22.3a.52.52,0,0,0,.22-.06l.24-.12.22-.11a.42.42,0,0,1,.18-.06c.1,0,.16.1.2.3-.2.14-.41.28-.63.41s-.43.25-.63.35a3.42,3.42,0,0,1-.55.23,1.31,1.31,0,0,1-.41.08.64.64,0,0,1-.31-.07c-.1-.05-.15-.16-.15-.34v-.15a.65.65,0,0,1,0-.21l.48-2.29h-.07a7.88,7.88,0,0,1-1.77,2.34,2.85,2.85,0,0,1-1.77.72,1.23,1.23,0,0,1-.83-.26,1,1,0,0,1-.3-.8,2.77,2.77,0,0,1,0-.46c0-.18.05-.35.08-.51l.81-3.81a.28.28,0,0,1,0-.11.68.68,0,0,0,0-.12c0-.19,0-.28-.15-.28a.61.61,0,0,0-.22.06l-.29.11-.27.12a.55.55,0,0,1-.19.06c-.06,0-.1,0-.14-.1a1.43,1.43,0,0,1-.08-.22l.67-.38.76-.39.67-.3a1.38,1.38,0,0,1,.4-.12c.22,0,.33.09.33.28a1,1,0,0,1,0,.17.94.94,0,0,0,0,.16Z" fill="#fff"/><path d="M247.62,5.84a1.11,1.11,0,0,0-.6.23,3.58,3.58,0,0,0-.68.63,7.82,7.82,0,0,0-.67.92,9.65,9.65,0,0,0-.57,1.11,8.4,8.4,0,0,0-.39,1.2,4.94,4.94,0,0,0-.15,1.17,1.64,1.64,0,0,0,.05.45c-.22,0-.45.06-.67.1s-.45.09-.67.15-.15-.12-.15-.2a1,1,0,0,1,0-.23,1,1,0,0,1,.07-.22c0-.05,0-.12.06-.19a1.65,1.65,0,0,0,.07-.34l.73-3.75c.07-.43.12-.72.15-.88s0-.26.05-.33-.05-.22-.15-.22a.59.59,0,0,0-.19,0l-.27.12-.26.12a.76.76,0,0,1-.19,0c-.06,0-.1,0-.14-.1a.85.85,0,0,1-.09-.24,7.17,7.17,0,0,1,.7-.38c.27-.14.53-.27.78-.38a6.72,6.72,0,0,1,.66-.29,1.4,1.4,0,0,1,.37-.12.34.34,0,0,1,.2.06.23.23,0,0,1,.08.19.54.54,0,0,1,0,.11,1,1,0,0,1,0,.17l-.53,2.48h.07A10,10,0,0,1,246.92,5a2.14,2.14,0,0,1,1.44-.71.87.87,0,0,1,.28.05.5.5,0,0,1,.17.1,6.64,6.64,0,0,0-.26.79,7.25,7.25,0,0,0-.19.93h-.26A.52.52,0,0,0,247.62,5.84Z" fill="#fff"/><path d="M250.25,8.23c0,.11,0,.22,0,.33s0,.22,0,.34a4.56,4.56,0,0,0,.06.75,2,2,0,0,0,.24.64,1.32,1.32,0,0,0,.45.46,1.47,1.47,0,0,0,.74.17,2.91,2.91,0,0,0,.89-.15,4,4,0,0,0,.94-.49.51.51,0,0,1,.24-.12.18.18,0,0,1,.17.13.68.68,0,0,1,0,.2,5.54,5.54,0,0,1-.56.47,5.11,5.11,0,0,1-.68.41,4.51,4.51,0,0,1-.78.3,3.43,3.43,0,0,1-.86.11,2.23,2.23,0,0,1-1.13-.25,2,2,0,0,1-.7-.67,2.48,2.48,0,0,1-.34-.88,4.33,4.33,0,0,1-.1-.93,5.86,5.86,0,0,1,.28-1.74,5.24,5.24,0,0,1,.77-1.53,3.93,3.93,0,0,1,1.2-1.1,3.19,3.19,0,0,1,1.59-.41,2.54,2.54,0,0,1,.68.09,1.88,1.88,0,0,1,.59.27,1.46,1.46,0,0,1,.41.48,1.47,1.47,0,0,1,.16.72,1.79,1.79,0,0,1-.32,1,2.52,2.52,0,0,1-.9.72A4.9,4.9,0,0,1,252,8,12.24,12.24,0,0,1,250.25,8.23Zm.05-.5a4.24,4.24,0,0,0,2.23-.65,1.55,1.55,0,0,0,.67-1.29,1,1,0,0,0-.23-.7.78.78,0,0,0-.6-.24,1.26,1.26,0,0,0-.74.24,2.5,2.5,0,0,0-.61.64,3.86,3.86,0,0,0-.45.91A5.61,5.61,0,0,0,250.3,7.73Z" fill="#fff"/><path d="M3.4,47.47a2.19,2.19,0,0,0-.07-.56,1,1,0,0,0-.27-.39,1.86,1.86,0,0,0-.63-.29c-.29-.07-.66-.15-1.14-.22C1.06,46,1,45.75,1,45.44v-.31A.87.87,0,0,1,1,44.76l2.33.12c.82,0,1.56,0,2.22,0s1.36,0,2.17,0l2.31-.12a3.33,3.33,0,0,1,0,.37c0,.14,0,.24,0,.31,0,.31-.11.51-.34.57-.47.07-.85.15-1.14.22a1.92,1.92,0,0,0-.64.29.7.7,0,0,0-.27.39,2.28,2.28,0,0,0-.05.56V62.18a21.47,21.47,0,0,1-.33,4.06,9.66,9.66,0,0,1-1.1,3,10.15,10.15,0,0,1-2.16,2.56A37.37,37.37,0,0,1,.65,74.47,4,4,0,0,1,.19,74,.58.58,0,0,1,0,73.62a.62.62,0,0,1,.17-.44,14,14,0,0,0,1.56-1.76,8.77,8.77,0,0,0,1-1.75,8.09,8.09,0,0,0,.52-1.9,13.61,13.61,0,0,0,.16-2.2Z" fill="#fff"/><path d="M11.27,59.73a7.75,7.75,0,0,1,.6-3.07A7.41,7.41,0,0,1,16,52.6,8.7,8.7,0,0,1,19.22,52a8.89,8.89,0,0,1,3.26.58A7.43,7.43,0,0,1,25,54.22a7.11,7.11,0,0,1,1.61,2.44,8.3,8.3,0,0,1,.56,3.07,7.8,7.8,0,0,1-.6,3.08,7.1,7.1,0,0,1-1.66,2.43,7.82,7.82,0,0,1-2.53,1.59,8.5,8.5,0,0,1-3.19.58,8.68,8.68,0,0,1-3.26-.58,7.38,7.38,0,0,1-2.5-1.59,6.93,6.93,0,0,1-1.59-2.43A8.15,8.15,0,0,1,11.27,59.73Zm4.28-.68a10.33,10.33,0,0,0,1,5,3.24,3.24,0,0,0,3,1.86,2.68,2.68,0,0,0,2.57-1.44,8.78,8.78,0,0,0,.76-4.06,10.3,10.3,0,0,0-1.05-5,3.26,3.26,0,0,0-3-1.9A2.65,2.65,0,0,0,16.32,55,8.87,8.87,0,0,0,15.55,59.05Z" fill="#fff"/><path d="M37.32,67.17l-1.83-.12c-.63,0-1.31,0-2,0-.88,0-1.62,0-2.22,0l-1.75.12a2.91,2.91,0,0,1-.07-.64.39.39,0,0,1,.12-.33,1.15,1.15,0,0,1,.25-.12,4.3,4.3,0,0,0,1.5-.42.84.84,0,0,0,.41-.76V47.1a3,3,0,0,0-.34-1.55,2,2,0,0,0-1.6-.62.49.49,0,0,1-.44-.55v-.25a.59.59,0,0,1,.07-.29l.59,0,.83,0,.89,0,.81-.07c.57-.07,1.11-.16,1.63-.27a6.53,6.53,0,0,1,1-.17c.37,0,.55.17.55.51a6,6,0,0,1-.11,1,11.54,11.54,0,0,0-.1,1.68v8.79a10,10,0,0,1,2.41-2.29A5,5,0,0,1,40.69,52,4.5,4.5,0,0,1,44,53.18a4.62,4.62,0,0,1,1.18,3.46v8.29a.77.77,0,0,0,.39.71,4.85,4.85,0,0,0,1.52.44,1.15,1.15,0,0,1,.25.12.39.39,0,0,1,.12.33,2.91,2.91,0,0,1-.07.64l-1.76-.12c-.59,0-1.33,0-2.21,0-.73,0-1.41,0-2,0l-1.83.12a.6.6,0,0,1-.07-.3v-.34a.41.41,0,0,1,.37-.45,2.9,2.9,0,0,0,1.21-.4.93.93,0,0,0,.29-.75V58.27a5.42,5.42,0,0,0-.5-2.76,1.73,1.73,0,0,0-1.58-.77,3.66,3.66,0,0,0-2.61,1,4.06,4.06,0,0,0-1.09,3.07v6.08a1,1,0,0,0,.27.75,2.85,2.85,0,0,0,1.23.4.41.41,0,0,1,.37.45v.34A.6.6,0,0,1,37.32,67.17Z" fill="#fff"/><path d="M64.93,64.93a.81.81,0,0,0,.41.73,4.3,4.3,0,0,0,1.49.42,1,1,0,0,1,.26.12.39.39,0,0,1,.12.33,3.49,3.49,0,0,1,0,.35,2.5,2.5,0,0,1,0,.29l-1.77-.12c-.58,0-1.32,0-2.2,0s-1.41,0-2,0l-1.83.12a1.85,1.85,0,0,1-.07-.64.41.41,0,0,1,.37-.45,3,3,0,0,0,1.19-.4.91.91,0,0,0,.31-.75V58.27a5.42,5.42,0,0,0-.5-2.76A1.74,1.74,0,0,0,59,54.74a3.66,3.66,0,0,0-2.61,1,4,4,0,0,0-1.09,3.07v6.08a.88.88,0,0,0,.31.75,3,3,0,0,0,1.19.4.41.41,0,0,1,.37.45,1.85,1.85,0,0,1-.07.64l-1.83-.12c-.64,0-1.32,0-2,0-.88,0-1.62,0-2.22,0l-1.75.12a1.35,1.35,0,0,1-.05-.29,1.89,1.89,0,0,1,0-.35.39.39,0,0,1,.12-.33,1.15,1.15,0,0,1,.25-.12,5,5,0,0,0,1.5-.44.79.79,0,0,0,.4-.74v-9a2.73,2.73,0,0,0-.37-1.56,2,2,0,0,0-1.56-.65.5.5,0,0,1-.44-.54v-.26a.55.55,0,0,1,.07-.28l.59,0,.83,0c.3,0,.59,0,.88,0l.82-.06a15.8,15.8,0,0,0,1.63-.28A6.53,6.53,0,0,1,55,52c.36,0,.55.17.55.51a6.28,6.28,0,0,1-.11,1,12.06,12.06,0,0,0-.1,1.7,10.27,10.27,0,0,1,2.41-2.31A4.91,4.91,0,0,1,60.48,52a4.48,4.48,0,0,1,3.26,1.16,4.58,4.58,0,0,1,1.19,3.46Z" fill="#fff"/><path d="M96.58,64.49a2.23,2.23,0,0,0,.06.56.64.64,0,0,0,.27.39,1.92,1.92,0,0,0,.64.29,9.68,9.68,0,0,0,1.14.22c.23,0,.34.24.34.58,0,.06,0,.17,0,.3a2.27,2.27,0,0,1-.05.34l-2.31-.12c-.81,0-1.54,0-2.17,0s-1.4,0-2.23,0l-2.32.12a.69.69,0,0,1-.07-.34v-.3c0-.37.11-.56.34-.58a9.68,9.68,0,0,0,1.14-.22,1.86,1.86,0,0,0,.63-.29.86.86,0,0,0,.27-.39,2.19,2.19,0,0,0,.07-.56v-8H83.14v8a2.28,2.28,0,0,0,0,.56.64.64,0,0,0,.27.39,2,2,0,0,0,.64.29,10.11,10.11,0,0,0,1.14.22c.23,0,.34.24.34.58a1.91,1.91,0,0,1,0,.3,1.44,1.44,0,0,1,0,.34l-2.34-.12c-.84,0-1.57,0-2.21,0s-1.36,0-2.17,0l-2.31.12a.69.69,0,0,1-.07-.34v-.3c0-.37.11-.56.34-.58a9.28,9.28,0,0,0,1.14-.22,1.86,1.86,0,0,0,.63-.29.86.86,0,0,0,.27-.39,2.19,2.19,0,0,0,.07-.56v-17a2.19,2.19,0,0,0-.07-.56,1,1,0,0,0-.27-.39,1.86,1.86,0,0,0-.63-.29c-.28-.07-.66-.15-1.14-.22-.23-.06-.34-.26-.34-.57v-.31a.87.87,0,0,1,.07-.37l2.31.12c.81,0,1.54,0,2.17,0s1.37,0,2.21,0l2.34-.12a2,2,0,0,1,0,.37,2,2,0,0,1,0,.31c0,.31-.11.51-.34.57-.47.07-.85.15-1.14.22a2,2,0,0,0-.64.29.7.7,0,0,0-.27.39,2.28,2.28,0,0,0,0,.56v7.24h9.17V47.47a2.19,2.19,0,0,0-.07-.56,1,1,0,0,0-.27-.39,1.86,1.86,0,0,0-.63-.29c-.29-.07-.66-.15-1.14-.22-.23-.06-.34-.26-.34-.57v-.31a.87.87,0,0,1,.07-.37l2.32.12c.83,0,1.57,0,2.23,0s1.36,0,2.17,0L99,44.76a3.33,3.33,0,0,1,.05.37c0,.14,0,.24,0,.31,0,.31-.11.51-.34.57-.48.07-.85.15-1.14.22a1.92,1.92,0,0,0-.64.29.7.7,0,0,0-.27.39,2.23,2.23,0,0,0-.06.56Z" fill="#fff"/><path d="M101.54,59.73a7.75,7.75,0,0,1,.6-3.07,7.34,7.34,0,0,1,1.64-2.44,7.43,7.43,0,0,1,2.52-1.62,8.66,8.66,0,0,1,3.19-.58,8.89,8.89,0,0,1,3.26.58,7.39,7.39,0,0,1,2.51,1.62,7.14,7.14,0,0,1,1.62,2.44,8.3,8.3,0,0,1,.56,3.07,7.8,7.8,0,0,1-.6,3.08,7.1,7.1,0,0,1-1.66,2.43,7.93,7.93,0,0,1-2.53,1.59,8.54,8.54,0,0,1-3.19.58,8.68,8.68,0,0,1-3.26-.58,7.38,7.38,0,0,1-2.5-1.59,7.1,7.1,0,0,1-1.6-2.43A8.35,8.35,0,0,1,101.54,59.73Zm4.28-.68a10.33,10.33,0,0,0,1,5,3.24,3.24,0,0,0,3,1.86,2.67,2.67,0,0,0,2.56-1.44,8.77,8.77,0,0,0,.77-4.06,10.18,10.18,0,0,0-1.06-5,3.24,3.24,0,0,0-2.95-1.9A2.65,2.65,0,0,0,106.59,55,8.87,8.87,0,0,0,105.82,59.05Z" fill="#fff"/><path d="M130.48,52.06a1.94,1.94,0,0,1,1.47.51,1.78,1.78,0,0,1,.5,1.29.88.88,0,0,1-.09.41,1.15,1.15,0,0,1-.37.37,5.75,5.75,0,0,1-.8.46l-1.32.63a3.08,3.08,0,0,0-1-.73,2.24,2.24,0,0,0-.9-.19,2.16,2.16,0,0,0-.79.14,1.5,1.5,0,0,0-.7.52,3.05,3.05,0,0,0-.49,1,5.87,5.87,0,0,0-.19,1.66v6.32a1.08,1.08,0,0,0,.54,1,7.08,7.08,0,0,0,2.14.59.42.42,0,0,1,.38.45,2.14,2.14,0,0,1-.07.64l-1.09,0-1.36-.05-1.41,0-1.24,0c-.86,0-1.59,0-2.2,0l-1.73.12a1.85,1.85,0,0,1-.07-.64.41.41,0,0,1,.37-.45,5.06,5.06,0,0,0,1.5-.44.79.79,0,0,0,.4-.74V55.76a2.35,2.35,0,0,0-.29-1.26c-.19-.31-.73-.53-1.61-.64a.48.48,0,0,1-.47-.51v-.27a.49.49,0,0,1,.06-.27l.58,0,.82,0c.29,0,.58,0,.88,0a5.51,5.51,0,0,0,.78-.1c.5-.07,1-.15,1.55-.25a6.28,6.28,0,0,1,1.07-.16c.31,0,.47.17.47.51v1.84a9.25,9.25,0,0,1,2.28-1.89A5,5,0,0,1,130.48,52.06Z" fill="#fff"/><path d="M147.63,66c.34,0,.51.28.51.85a3.53,3.53,0,0,1-1.11.46,6,6,0,0,1-1.34.15,3.32,3.32,0,0,1-2.34-.75,2.84,2.84,0,0,1-.95-1.73,4.06,4.06,0,0,1-1.82,1.92,6,6,0,0,1-2.67.56,11.44,11.44,0,0,1-1.57-.12,5,5,0,0,1-1.6-.49,3.5,3.5,0,0,1-1.24-1.06,2.91,2.91,0,0,1-.51-1.8,3.5,3.5,0,0,1,.65-2.13,5.44,5.44,0,0,1,1.61-1.48,8.67,8.67,0,0,1,2.12-.95c.77-.24,1.5-.44,2.17-.6l.92-.22.75-.19a.68.68,0,0,0,.47-.28,2.59,2.59,0,0,0,.11-1,5.68,5.68,0,0,0-.51-2.67,1.82,1.82,0,0,0-1.74-.93,1.57,1.57,0,0,0-1.4.61,6.56,6.56,0,0,0-.8,1.94.89.89,0,0,1-.6.56c-.33.12-.74.25-1.24.39l-.83.17a5.5,5.5,0,0,1-.76.06.26.26,0,0,1-.27-.15,1.56,1.56,0,0,1-.07-.59,2.72,2.72,0,0,1,.63-1.67,6.29,6.29,0,0,1,1.58-1.44,8.51,8.51,0,0,1,2.08-1,7,7,0,0,1,2.19-.38,11.31,11.31,0,0,1,2.28.22,4.44,4.44,0,0,1,1.75.78,3.81,3.81,0,0,1,1.14,1.49,6.08,6.08,0,0,1,.4,2.39v6c0,.79,0,1.36,0,1.72a2.53,2.53,0,0,0,.19.82,1,1,0,0,0,.95.61,2,2,0,0,0,.46,0A2.28,2.28,0,0,1,147.63,66Zm-5.84-6.35-.75.13a8,8,0,0,0-1.46.39,4,4,0,0,0-1.17.68,3.08,3.08,0,0,0-.78,1.06,3.48,3.48,0,0,0-.29,1.51,3.05,3.05,0,0,0,.42,1.85,1.5,1.5,0,0,0,1.24.52,2.44,2.44,0,0,0,2-.95,4.16,4.16,0,0,0,.75-2.65Z" fill="#fff"/><path d="M158.22,64.79a1.25,1.25,0,0,1,.58-.2c.23,0,.46.24.71.71A8.53,8.53,0,0,1,157,67a6.37,6.37,0,0,1-2.26.41,5.17,5.17,0,0,1-1.31-.17,2.87,2.87,0,0,1-1.14-.61,3.07,3.07,0,0,1-.81-1.21,5.38,5.38,0,0,1-.31-2V54.13h-2v-.85a1.28,1.28,0,0,1,.06-.34c.05-.13.18-.2.41-.2a3,3,0,0,0,1.7-.53,3.69,3.69,0,0,0,1.26-1.58,4.53,4.53,0,0,1,.83-1.25,1.27,1.27,0,0,1,.9-.48H155v3.53h4a3.88,3.88,0,0,1-.15,1.39.56.56,0,0,1-.56.31H155v8.39a13.6,13.6,0,0,0,.07,1.61,2.67,2.67,0,0,0,.22.9.68.68,0,0,0,.41.39,1.78,1.78,0,0,0,.59.09,2.69,2.69,0,0,0,.88-.19A4.53,4.53,0,0,0,158.22,64.79Z" fill="#fff"/><path d="M164.91,67c-.88,0-1.64,0-2.27,0l-1.84.12a3.63,3.63,0,0,1-.06-.64.39.39,0,0,1,.12-.33,1,1,0,0,1,.25-.12,5,5,0,0,0,1.49-.44.78.78,0,0,0,.41-.74v-9a2.91,2.91,0,0,0-.34-1.56c-.22-.36-.76-.58-1.59-.65a.48.48,0,0,1-.45-.54v-.26a.68.68,0,0,1,.07-.28l.6,0,.83,0c.29,0,.59,0,.88,0l.82-.06a16.27,16.27,0,0,0,1.63-.28,6.53,6.53,0,0,1,1-.17q.54,0,.54.51a6.07,6.07,0,0,1-.1,1,10.71,10.71,0,0,0-.1,1.7V64.9a.79.79,0,0,0,.44.74,5.46,5.46,0,0,0,1.46.44.41.41,0,0,1,.37.45v.34a.73.73,0,0,1-.06.3l-1.84-.12C166.57,67,165.8,67,164.91,67Zm-2.48-19.93a2.45,2.45,0,0,1,.7-1.79,2.59,2.59,0,0,1,3.52,0,2.68,2.68,0,0,1,0,3.57,2.46,2.46,0,0,1-4.22-1.78Z" fill="#fff"/><path d="M171.06,59.73a7.92,7.92,0,0,1,.59-3.07,7.52,7.52,0,0,1,1.65-2.44,7.39,7.39,0,0,1,2.51-1.62A8.75,8.75,0,0,1,179,52a8.92,8.92,0,0,1,3.26.58,7.39,7.39,0,0,1,2.51,1.62,7,7,0,0,1,1.61,2.44,8.1,8.1,0,0,1,.56,3.07,7.79,7.79,0,0,1-.59,3.08,7.24,7.24,0,0,1-1.66,2.43,7.93,7.93,0,0,1-2.53,1.59,8.55,8.55,0,0,1-3.2.58,8.72,8.72,0,0,1-3.26-.58,7.43,7.43,0,0,1-2.49-1.59,7,7,0,0,1-1.6-2.43A8.35,8.35,0,0,1,171.06,59.73Zm4.28-.68a10.21,10.21,0,0,0,1,5,3.24,3.24,0,0,0,3,1.86,2.67,2.67,0,0,0,2.56-1.44,8.78,8.78,0,0,0,.76-4.06,10.3,10.3,0,0,0-1-5,3.24,3.24,0,0,0-3-1.9A2.66,2.66,0,0,0,176.1,55,8.88,8.88,0,0,0,175.34,59.05Z" fill="#fff"/><path d="M217.62,45.57a1,1,0,0,1,.44-.47,3.8,3.8,0,0,1,1.5-.17l.79,0,1.14,0c.41,0,.82,0,1.22-.06l1.06-.06a1,1,0,0,1,.07.34v.27c0,.36-.13.58-.38.64a10.66,10.66,0,0,0-1.07.21,1.73,1.73,0,0,0-.59.25.67.67,0,0,0-.27.36,1.33,1.33,0,0,0-.07.47c0,.05,0,.48,0,1.29s.08,1.83.15,3,.14,2.5.21,3.9.13,2.74.2,4,.12,2.35.17,3.28.08,1.49.1,1.7a1.53,1.53,0,0,0,.09.56.8.8,0,0,0,.3.39,2.06,2.06,0,0,0,.63.29,8.91,8.91,0,0,0,1,.22c.25,0,.38.26.38.64a3.48,3.48,0,0,1-.07.58l-2.16-.12c-.64,0-1.37,0-2.19,0s-1.54,0-2.39,0l-2.13.12a3.36,3.36,0,0,1-.06-.58.81.81,0,0,1,.12-.51.29.29,0,0,1,.22-.13,4.75,4.75,0,0,0,1.8-.56,1.21,1.21,0,0,0,.4-1c0-.07,0-.43-.05-1.09s-.07-1.47-.1-2.45-.08-2-.14-3.15-.11-2.2-.16-3.2-.11-1.85-.14-2.58-.06-1.16-.09-1.32l-7,16.2a4.29,4.29,0,0,1-.29.46.38.38,0,0,1-.32.15h-.2a.41.41,0,0,1-.21,0l-7.88-18.88c0,.3,0,.89-.08,1.79s-.08,1.91-.14,3.07-.11,2.37-.17,3.65-.1,2.46-.15,3.55-.08,2-.12,2.73,0,1.14,0,1.21a1.6,1.6,0,0,0,.07.52.87.87,0,0,0,.27.4,1.83,1.83,0,0,0,.61.28c.27.08.65.17,1.12.26.25,0,.38.26.38.64,0,.07,0,.16,0,.26s0,.21,0,.32l-1.7-.12c-.52,0-1,0-1.56,0s-1,0-1.7,0l-1.83.12a.6.6,0,0,1-.07-.3v-.28a.81.81,0,0,1,.1-.49A.46.46,0,0,1,197,66a5.24,5.24,0,0,0,1.53-.54,1.17,1.17,0,0,0,.54-.92c0-.18,0-.73.07-1.65s.1-2,.17-3.26.14-2.59.21-4,.13-2.72.18-3.94.1-2.22.14-3,.05-1.24.05-1.29a1,1,0,0,0-.37-.83,4.86,4.86,0,0,0-1.63-.46c-.25,0-.38-.23-.38-.64V45.1a.8.8,0,0,1,.07-.34l1.22.06c.52,0,1,0,1.6.06l1.53,0,1,0a6.07,6.07,0,0,1,1,0,2.75,2.75,0,0,1,.54.12.49.49,0,0,1,.29.2c.05.09.11.18.15.27l6.32,15.25Z" fill="#fff"/><path d="M241.66,66c.34,0,.51.28.51.85a3.38,3.38,0,0,1-1.1.46,6,6,0,0,1-1.34.15,3.32,3.32,0,0,1-2.34-.75,2.81,2.81,0,0,1-1-1.73,4,4,0,0,1-1.81,1.92,6,6,0,0,1-2.67.56,11.69,11.69,0,0,1-1.58-.12,4.92,4.92,0,0,1-1.59-.49,3.5,3.5,0,0,1-1.24-1.06,2.91,2.91,0,0,1-.51-1.8,3.49,3.49,0,0,1,.64-2.13,5.48,5.48,0,0,1,1.62-1.48,8.67,8.67,0,0,1,2.12-.95c.77-.24,1.49-.44,2.17-.6l.92-.22.75-.19a.73.73,0,0,0,.47-.28,2.67,2.67,0,0,0,.1-1,5.68,5.68,0,0,0-.51-2.67,1.8,1.8,0,0,0-1.73-.93,1.6,1.6,0,0,0-1.41.61,6.84,6.84,0,0,0-.8,1.94.85.85,0,0,1-.59.56c-.33.12-.74.25-1.24.39l-.83.17a5.52,5.52,0,0,1-.77.06.27.27,0,0,1-.27-.15,1.81,1.81,0,0,1-.07-.59,2.72,2.72,0,0,1,.63-1.67,6.66,6.66,0,0,1,1.58-1.44,8.76,8.76,0,0,1,2.09-1,7,7,0,0,1,2.19-.38,11.31,11.31,0,0,1,2.28.22,4.44,4.44,0,0,1,1.75.78,3.79,3.79,0,0,1,1.13,1.49,5.89,5.89,0,0,1,.41,2.39v6c0,.79,0,1.36.05,1.72a2.53,2.53,0,0,0,.19.82,1,1,0,0,0,.95.61,2.07,2.07,0,0,0,.46,0Zm-5.84-6.35-.74.13a8,8,0,0,0-1.46.39,3.89,3.89,0,0,0-1.18.68,3.36,3.36,0,0,0-.78,1.06,3.63,3.63,0,0,0-.29,1.51,3,3,0,0,0,.43,1.85,1.5,1.5,0,0,0,1.24.52,2.44,2.44,0,0,0,2-.95,4.22,4.22,0,0,0,.74-2.65Z" fill="#fff"/><path d="M251.75,67.17l-2-.12c-.76,0-1.47,0-2.12,0s-1.45,0-2.16,0l-1.95.12a2.5,2.5,0,0,1-.05-.29,3.49,3.49,0,0,1,0-.35.39.39,0,0,1,.12-.33,1.15,1.15,0,0,1,.25-.12,5,5,0,0,0,1.5-.44.8.8,0,0,0,.41-.74V47.1a2.69,2.69,0,0,0-.38-1.55,2,2,0,0,0-1.56-.62.52.52,0,0,1-.44-.55v-.27a.45.45,0,0,1,.07-.27l.59,0,.83,0,.89,0,.81-.07c.57-.07,1.11-.16,1.63-.27a6.53,6.53,0,0,1,1-.17c.37,0,.55.17.55.51a7.06,7.06,0,0,1-.1,1,10.05,10.05,0,0,0-.11,1.68V64.9a.8.8,0,0,0,.41.74,5,5,0,0,0,1.5.44.42.42,0,0,1,.37.45A1.85,1.85,0,0,1,251.75,67.17Z" fill="#fff"/><path d="M259.77,64.9a.87.87,0,0,0,.25.69,3.66,3.66,0,0,0,1.24.49,1.23,1.23,0,0,1,.26.12.42.42,0,0,1,.11.33c0,.13,0,.25,0,.35a2.5,2.5,0,0,1-.05.29l-1.77-.12c-.57,0-1.22,0-2,0s-1.64,0-2.28,0l-1.83.12a2.5,2.5,0,0,1-.05-.29,3.49,3.49,0,0,1,0-.35.39.39,0,0,1,.12-.33,1.23,1.23,0,0,1,.26-.12,5.37,5.37,0,0,0,1.39-.42.81.81,0,0,0,.51-.76V47.1a2.69,2.69,0,0,0-.38-1.55,2,2,0,0,0-1.56-.62.52.52,0,0,1-.44-.55v-.27a.45.45,0,0,1,.07-.27l.59,0,.84,0,.88,0,.81-.07c.57-.07,1.11-.16,1.63-.27a6.44,6.44,0,0,1,1.06-.17q.54,0,.54.51a5.77,5.77,0,0,1-.1,1,10.26,10.26,0,0,0-.1,1.68V58.58l5-4.18A.54.54,0,0,0,265,54c0-.32-.39-.51-1.16-.58-.27,0-.41-.19-.41-.51a2.5,2.5,0,0,1,.07-.54c1.09.07,2.19.1,3.3.1h1.51c.48,0,1,0,1.58-.09,0,.11,0,.22.06.31a.74.74,0,0,1,0,.23.5.5,0,0,1-.48.55,5.18,5.18,0,0,0-1.39.29,2.85,2.85,0,0,0-.81.45l-4,3.47,5.16,7.1a3.13,3.13,0,0,0,1,1,3.65,3.65,0,0,0,1.17.37.42.42,0,0,1,.38.45c0,.06,0,.17,0,.3a.81.81,0,0,1-.09.34l-2.61,0-2.82,0-5.6-7.64h-.17Z" fill="#fff"/><path d="M272.23,59.73a7.92,7.92,0,0,1,.59-3.07,7.52,7.52,0,0,1,1.65-2.44A7.39,7.39,0,0,1,277,52.6a8.75,8.75,0,0,1,3.2-.58,8.92,8.92,0,0,1,3.26.58A7.39,7.39,0,0,1,286,54.22a7,7,0,0,1,1.61,2.44,8.1,8.1,0,0,1,.56,3.07,8,8,0,0,1-.59,3.08,7.13,7.13,0,0,1-1.67,2.43,7.72,7.72,0,0,1-2.53,1.59,8.46,8.46,0,0,1-3.19.58,8.72,8.72,0,0,1-3.26-.58,7.43,7.43,0,0,1-2.49-1.59,7,7,0,0,1-1.6-2.43A8.35,8.35,0,0,1,272.23,59.73Zm4.28-.68a10.33,10.33,0,0,0,1,5,3.26,3.26,0,0,0,3,1.86,2.67,2.67,0,0,0,2.56-1.44,8.78,8.78,0,0,0,.76-4.06,10.3,10.3,0,0,0-1-5,3.25,3.25,0,0,0-3-1.9A2.66,2.66,0,0,0,277.27,55,8.88,8.88,0,0,0,276.51,59.05Z" fill="#fff"/><path d="M298,62c.54-1.33,1-2.44,1.34-3.33s.62-1.6.81-2.17.33-1,.41-1.34a3.66,3.66,0,0,0,.12-.83c0-.46-.36-.77-1.09-.95a1,1,0,0,1-.34-.16.47.47,0,0,1-.1-.35.92.92,0,0,1,0-.26l.06-.32c.91.07,1.89.1,3,.1s1.82,0,2.61-.1a1.12,1.12,0,0,1,.09.37c0,.14,0,.23,0,.28,0,.24-.14.4-.44.47s-.57.13-.76.19a1.26,1.26,0,0,0-.51.27,1.66,1.66,0,0,0-.39.47,6.3,6.3,0,0,0-.37.8l-5,12.16a.84.84,0,0,1-.35.07h-.36a.61.61,0,0,1-.46-.27A5.53,5.53,0,0,1,295.7,66L291,55.18c-.15-.34-.29-.61-.4-.81a1.75,1.75,0,0,0-.38-.48,1.25,1.25,0,0,0-.47-.25,5,5,0,0,0-.72-.16c-.29,0-.44-.2-.44-.54a2.82,2.82,0,0,1,.1-.61c.57.05,1.13.07,1.67.09h4.28c.61,0,1.22,0,1.83-.09a2.25,2.25,0,0,1,.1.58.47.47,0,0,1-.44.51,1.85,1.85,0,0,0-1,.29.62.62,0,0,0-.19.45,3.69,3.69,0,0,0,.14.7,15.38,15.38,0,0,0,.71,1.85Z" fill="#fff"/><path d="M310.23,67c-.88,0-1.64,0-2.27,0l-1.84.12a3.68,3.68,0,0,1-.07-.64.39.39,0,0,1,.12-.33,1.23,1.23,0,0,1,.26-.12,5,5,0,0,0,1.49-.44.8.8,0,0,0,.41-.74v-9a2.91,2.91,0,0,0-.34-1.56,2,2,0,0,0-1.6-.65.48.48,0,0,1-.44-.54v-.26a.68.68,0,0,1,.07-.28l.6,0,.83,0c.29,0,.59,0,.88,0l.82-.06c.56-.07,1.1-.16,1.63-.28a6.53,6.53,0,0,1,1.05-.17q.54,0,.54.51a6.07,6.07,0,0,1-.1,1,10.71,10.71,0,0,0-.1,1.7V64.9a.77.77,0,0,0,.44.74,5.34,5.34,0,0,0,1.46.44.41.41,0,0,1,.37.45v.34a.73.73,0,0,1-.06.3l-1.84-.12C311.88,67,311.12,67,310.23,67Zm-2.48-19.93a2.41,2.41,0,0,1,.7-1.79,2.38,2.38,0,0,1,1.75-.69,2.36,2.36,0,0,1,1.76.69,2.68,2.68,0,0,1,0,3.57,2.36,2.36,0,0,1-1.76.7,2.39,2.39,0,0,1-2.45-2.48Z" fill="#fff"/><path d="M323.51,53.52a2.29,2.29,0,0,0-2.14,1.41,8.52,8.52,0,0,0-.71,3.78q0,3.4,1.24,5a4.18,4.18,0,0,0,3.48,1.57,7.3,7.3,0,0,0,1.61-.19,5.79,5.79,0,0,0,1.75-.8,1.18,1.18,0,0,1,.61-.2.52.52,0,0,1,.44.22,3.41,3.41,0,0,1,.38.69,10.62,10.62,0,0,1-2.67,1.74,9.95,9.95,0,0,1-6.62.27A6.28,6.28,0,0,1,317,63.32a8.28,8.28,0,0,1-.58-3.25,7.46,7.46,0,0,1,.7-3.27,8.52,8.52,0,0,1,1.78-2.55,8,8,0,0,1,2.44-1.65A6.86,6.86,0,0,1,324,52a9.09,9.09,0,0,1,2.79.38,6.34,6.34,0,0,1,1.88.93,3.78,3.78,0,0,1,1.07,1.19,2.41,2.41,0,0,1,.34,1.14c0,.18-.16.33-.49.44a5.74,5.74,0,0,1-1.1.25,10,10,0,0,1-1.18.11h-.73a.67.67,0,0,1-.49-.18,1.07,1.07,0,0,1-.25-.39l-.34-.87a5.38,5.38,0,0,0-.39-.76,1.67,1.67,0,0,0-.6-.55A2,2,0,0,0,323.51,53.52Z" fill="#fff"/><path d="M339.91,67.17l-1.83-.12c-.63,0-1.31,0-2,0-.88,0-1.62,0-2.22,0l-1.75.12a2.91,2.91,0,0,1-.07-.64.39.39,0,0,1,.12-.33,1.15,1.15,0,0,1,.25-.12,4.3,4.3,0,0,0,1.5-.42.84.84,0,0,0,.41-.76V47.1a3,3,0,0,0-.34-1.55,2,2,0,0,0-1.6-.62.49.49,0,0,1-.44-.55v-.25a.59.59,0,0,1,.07-.29l.59,0,.83,0,.89,0,.81-.07c.57-.07,1.11-.16,1.63-.27a6.53,6.53,0,0,1,1-.17c.37,0,.55.17.55.51a7.06,7.06,0,0,1-.1,1,10.05,10.05,0,0,0-.11,1.68v8.79a10,10,0,0,1,2.41-2.29,5,5,0,0,1,2.76-.87,4.5,4.5,0,0,1,3.26,1.16,4.62,4.62,0,0,1,1.18,3.46v8.29a.76.76,0,0,0,.4.71,4.76,4.76,0,0,0,1.51.44,1.15,1.15,0,0,1,.25.12.39.39,0,0,1,.12.33,2.91,2.91,0,0,1-.07.64l-1.76-.12c-.59,0-1.33,0-2.21,0-.73,0-1.41,0-2,0l-1.83.12a.6.6,0,0,1-.07-.3v-.34a.41.41,0,0,1,.37-.45,2.9,2.9,0,0,0,1.21-.4.93.93,0,0,0,.29-.75V58.27a5.42,5.42,0,0,0-.5-2.76,1.72,1.72,0,0,0-1.57-.77,3.66,3.66,0,0,0-2.62,1,4.06,4.06,0,0,0-1.09,3.07v6.08a.92.92,0,0,0,.28.75,2.75,2.75,0,0,0,1.22.4.41.41,0,0,1,.37.45v.34A.6.6,0,0,1,339.91,67.17Z" fill="#fff"/><path d="M158.45,19.65l-1.31,6.89a.34.34,0,0,0,.14.4,1.76,1.76,0,0,0,.71.19l.13.06a.19.19,0,0,1,.06.17.38.38,0,0,1,0,.1.5.5,0,0,1,0,.12c-.25,0-.53,0-.82-.06l-.84,0-.7,0q-.43,0-.78.06s0-.08,0-.12v-.09a.19.19,0,0,1,.18-.2,1.81,1.81,0,0,0,.58-.18.51.51,0,0,0,.26-.36L157.28,20a.31.31,0,0,0-.13-.37,1.29,1.29,0,0,0-.48-.16c-.15,0-.22-.08-.22-.2a.69.69,0,0,1,0-.22l.77.06h1.86a3.64,3.64,0,0,1,1.1.16,2.34,2.34,0,0,1,.8.42,1.83,1.83,0,0,1,.5.64,1.86,1.86,0,0,1,.16.79,2.56,2.56,0,0,1-.22,1.07,2.35,2.35,0,0,1-.63.87,3.43,3.43,0,0,1-1,.58,4.05,4.05,0,0,1-1.34.21h-.56a.8.8,0,0,1,.14-.38.34.34,0,0,1,.29-.12,2.27,2.27,0,0,0,1.54-.54,2.14,2.14,0,0,0,.55-1.64,1.92,1.92,0,0,0-.09-.59,1.26,1.26,0,0,0-.26-.5,1.37,1.37,0,0,0-.49-.35,1.67,1.67,0,0,0-.71-.13Z" fill="#fff"/><path d="M165.5,23.05a.84.84,0,0,0-.46.18,2.39,2.39,0,0,0-.53.49,4.47,4.47,0,0,0-.51.71,6.37,6.37,0,0,0-.45.86,5.93,5.93,0,0,0-.3.93,3.74,3.74,0,0,0-.12.91,1.39,1.39,0,0,0,0,.35,5,5,0,0,0-.52.07l-.52.12a.18.18,0,0,1-.11-.16.62.62,0,0,1,0-.18,1.56,1.56,0,0,1,.05-.16.6.6,0,0,0,0-.16,1.09,1.09,0,0,0,.05-.25l.57-2.91c.06-.34.1-.56.11-.68s0-.21,0-.26,0-.17-.11-.17a.56.56,0,0,0-.15,0l-.21.09-.2.09a.34.34,0,0,1-.15,0,.14.14,0,0,1-.11-.08.75.75,0,0,1-.07-.18l.55-.3.6-.29.51-.23a1.14,1.14,0,0,1,.29-.09.3.3,0,0,1,.16.05.17.17,0,0,1,.06.14.34.34,0,0,1,0,.09.51.51,0,0,1,0,.13l-.41,1.93h.06A8.12,8.12,0,0,1,165,22.38a1.67,1.67,0,0,1,1.12-.55.65.65,0,0,1,.21,0,.43.43,0,0,1,.14.08,5.46,5.46,0,0,0-.21.61,4.84,4.84,0,0,0-.14.72h-.2A.42.42,0,0,0,165.5,23.05Z" fill="#fff"/><path d="M167.54,24.9c0,.08,0,.17,0,.25v.27a2.78,2.78,0,0,0,0,.58,1.29,1.29,0,0,0,.18.5.91.91,0,0,0,.35.35,1.09,1.09,0,0,0,.57.14,2.18,2.18,0,0,0,.69-.12,3.06,3.06,0,0,0,.74-.38.36.36,0,0,1,.18-.09.13.13,0,0,1,.13.1.61.61,0,0,1,0,.16c-.13.11-.27.23-.43.35a3.55,3.55,0,0,1-.53.32,3.13,3.13,0,0,1-.6.24,2.52,2.52,0,0,1-.67.09,1.76,1.76,0,0,1-.88-.2,1.68,1.68,0,0,1-.54-.52,2,2,0,0,1-.27-.68,4.61,4.61,0,0,1-.07-.72,4.52,4.52,0,0,1,.21-1.35,4.29,4.29,0,0,1,.6-1.19,3.18,3.18,0,0,1,.94-.85,2.42,2.42,0,0,1,1.23-.32,2.25,2.25,0,0,1,.52.07,1.5,1.5,0,0,1,.46.21,1.08,1.08,0,0,1,.32.38,1.15,1.15,0,0,1,.12.55,1.3,1.3,0,0,1-.25.81,1.87,1.87,0,0,1-.69.57,4,4,0,0,1-1,.34A10.09,10.09,0,0,1,167.54,24.9Zm0-.39a3.32,3.32,0,0,0,1.73-.5,1.2,1.2,0,0,0,.52-1,.73.73,0,0,0-.18-.54.58.58,0,0,0-.47-.19,1,1,0,0,0-.57.19,2,2,0,0,0-.47.49,2.94,2.94,0,0,0-.35.71A4,4,0,0,0,167.58,24.51Z" fill="#fff"/><path d="M174.74,23.24c-.1,0-.16,0-.18-.07a.29.29,0,0,1-.05-.13,1,1,0,0,0-.3-.6.89.89,0,0,0-.63-.21,1.25,1.25,0,0,0-.7.2.64.64,0,0,0-.3.57.83.83,0,0,0,.23.52,6.61,6.61,0,0,0,.53.53c.15.14.32.28.49.42s.32.3.46.45a2.16,2.16,0,0,1,.34.47,1,1,0,0,1,.13.5,1.52,1.52,0,0,1-.16.69,1.89,1.89,0,0,1-.46.56,2.33,2.33,0,0,1-.68.37,2.27,2.27,0,0,1-.83.15,5.12,5.12,0,0,1-.87-.08,3,3,0,0,1-.79-.25c.07-.25.12-.49.16-.71a7.09,7.09,0,0,0,.08-.73h.13c.2,0,.31.07.31.21a1.08,1.08,0,0,0,.25.84,1,1,0,0,0,.76.29,1.28,1.28,0,0,0,.82-.26.83.83,0,0,0,.32-.69.81.81,0,0,0-.09-.37,2,2,0,0,0-.25-.34l-.35-.32-.4-.33a6.35,6.35,0,0,1-.7-.67,1.18,1.18,0,0,1-.31-.81,1.31,1.31,0,0,1,.16-.65,1.61,1.61,0,0,1,.44-.5,2.28,2.28,0,0,1,.64-.34,2.43,2.43,0,0,1,.77-.12,3,3,0,0,1,1.4.35,3.32,3.32,0,0,0-.11.49c0,.19-.05.39-.07.59Z" fill="#fff"/><path d="M176.71,24.9a2.11,2.11,0,0,1,0,.25v.27a3.68,3.68,0,0,0,.05.58,1.29,1.29,0,0,0,.18.5.91.91,0,0,0,.35.35,1.09,1.09,0,0,0,.57.14,2.24,2.24,0,0,0,.7-.12,3.2,3.2,0,0,0,.73-.38.36.36,0,0,1,.18-.09.13.13,0,0,1,.13.1.61.61,0,0,1,0,.16c-.13.11-.27.23-.43.35a3.55,3.55,0,0,1-.53.32,3.13,3.13,0,0,1-.6.24,2.52,2.52,0,0,1-.67.09,1.76,1.76,0,0,1-.88-.2,1.79,1.79,0,0,1-.54-.52,2,2,0,0,1-.27-.68,4.61,4.61,0,0,1-.07-.72,4.53,4.53,0,0,1,.81-2.54,3.18,3.18,0,0,1,.94-.85,2.45,2.45,0,0,1,1.23-.32,2.25,2.25,0,0,1,.52.07,1.5,1.5,0,0,1,.46.21,1.08,1.08,0,0,1,.32.38A1.15,1.15,0,0,1,180,23a1.3,1.3,0,0,1-.25.81,1.79,1.79,0,0,1-.69.57,3.92,3.92,0,0,1-1.05.34A10.09,10.09,0,0,1,176.71,24.9Zm0-.39a3.32,3.32,0,0,0,1.73-.5,1.2,1.2,0,0,0,.52-1,.73.73,0,0,0-.18-.54.58.58,0,0,0-.46-.19,1,1,0,0,0-.58.19,2,2,0,0,0-.47.49,2.94,2.94,0,0,0-.35.71A4,4,0,0,0,176.75,24.51Z" fill="#fff"/><path d="M184.86,23.63a2.81,2.81,0,0,0,.07-.58c0-.25-.11-.37-.35-.37a.88.88,0,0,0-.48.21,4.82,4.82,0,0,0-.59.55,8.63,8.63,0,0,0-.61.77,7,7,0,0,0-.53.85,4.49,4.49,0,0,0-.22.49,4.81,4.81,0,0,0-.2.53c0,.19-.1.37-.13.55a3,3,0,0,0,0,.5,1.39,1.39,0,0,0,0,.35,5.67,5.67,0,0,0-1,.19.2.2,0,0,1-.1-.16s0-.05,0-.1a.46.46,0,0,1,0-.14c.2-1,.35-1.77.46-2.35s.2-1,.25-1.3.09-.49.11-.58a1.36,1.36,0,0,0,0-.16c0-.1,0-.15-.1-.15a.5.5,0,0,0-.15.05l-.21.08-.22.09a.43.43,0,0,1-.15.05.14.14,0,0,1-.11-.08.75.75,0,0,1-.07-.18l.55-.3c.2-.11.41-.2.6-.29l.51-.23a1,1,0,0,1,.29-.09.25.25,0,0,1,.15.05.17.17,0,0,1,.07.14s0,.06,0,.1,0,.08,0,.12l-.46,2.23h0q.33-.55.69-1a7.83,7.83,0,0,1,.72-.84,3.54,3.54,0,0,1,.74-.55,1.62,1.62,0,0,1,.75-.2.85.85,0,0,1,.57.18.74.74,0,0,1,.21.59,2.43,2.43,0,0,1,0,.36c0,.14,0,.27-.07.41l-.65,3.08a1.12,1.12,0,0,0,0,.24c0,.11.05.17.16.17a.38.38,0,0,0,.17,0l.2-.11.18-.1a.24.24,0,0,1,.13,0c.08,0,.14.08.17.25l-.47.32-.47.26a2.93,2.93,0,0,1-.44.18,1.1,1.1,0,0,1-.33.08.6.6,0,0,1-.27-.06c-.08,0-.12-.13-.12-.28s0-.06,0-.12l0-.15Z" fill="#fff"/><path d="M188.41,21.77a3.92,3.92,0,0,0,.1-.78,1.45,1.45,0,0,0,0-.35l.52-.08a3.45,3.45,0,0,0,.54-.11.22.22,0,0,1,.1.15.46.46,0,0,1,0,.1.44.44,0,0,1,0,.13L189.39,22h1.32a2.55,2.55,0,0,0-.08.28,1.88,1.88,0,0,0-.06.31l-.66-.09-.63,0-.7,4a1.31,1.31,0,0,0,0,.27c0,.21.12.31.37.31a1,1,0,0,0,.35-.05,1.1,1.1,0,0,0,.29-.1l.2-.1a.34.34,0,0,1,.14-.05c.09,0,.15.09.16.25a3.48,3.48,0,0,1-.86.49,2.51,2.51,0,0,1-.88.18,1.11,1.11,0,0,1-.66-.15.56.56,0,0,1-.19-.45,1.24,1.24,0,0,1,0-.27l.81-4.38h-.94a1,1,0,0,1,.08-.32.21.21,0,0,1,.2-.1h.73Z" fill="#fff"/><path d="M194.44,23.24c-.1,0-.16,0-.18-.07a.29.29,0,0,1,0-.13,1,1,0,0,0-.3-.6.89.89,0,0,0-.63-.21,1.25,1.25,0,0,0-.7.2.64.64,0,0,0-.3.57.83.83,0,0,0,.23.52,6.61,6.61,0,0,0,.53.53c.15.14.32.28.49.42s.32.3.46.45a2.16,2.16,0,0,1,.34.47,1,1,0,0,1,.13.5,1.52,1.52,0,0,1-.16.69,1.89,1.89,0,0,1-.46.56,2.33,2.33,0,0,1-.68.37,2.25,2.25,0,0,1-.82.15,5.14,5.14,0,0,1-.88-.08,3,3,0,0,1-.79-.25c.07-.25.12-.49.16-.71a7.09,7.09,0,0,0,.08-.73H191c.21,0,.31.07.31.21a1.08,1.08,0,0,0,.25.84,1,1,0,0,0,.76.29,1.28,1.28,0,0,0,.82-.26.83.83,0,0,0,.32-.69.81.81,0,0,0-.09-.37,2,2,0,0,0-.25-.34l-.35-.32-.4-.33a6.35,6.35,0,0,1-.7-.67,1.18,1.18,0,0,1-.31-.81,1.31,1.31,0,0,1,.16-.65,1.61,1.61,0,0,1,.44-.5,2.28,2.28,0,0,1,.64-.34,2.43,2.43,0,0,1,.77-.12,3,3,0,0,1,1.4.35,3.32,3.32,0,0,0-.11.49c0,.19,0,.39-.07.59Z" fill="#fff"/><path d="M19.4,84.83a.56.56,0,0,1,.27.44.4.4,0,0,1-.19.32c-.82.55-1.22,1.11-1.22,1.69a.79.79,0,0,0,.13.45,2.39,2.39,0,0,0,.39.39.91.91,0,0,1,.27.24.63.63,0,0,1,.09.35.94.94,0,0,1-.31.63,2.11,2.11,0,0,1-.91.53A2.63,2.63,0,0,1,17,89,1.89,1.89,0,0,1,16.59,88a2.72,2.72,0,0,1,.65-1.59A5.55,5.55,0,0,1,19.4,84.83Zm3.37,0c.2.15.29.3.27.44a.38.38,0,0,1-.19.32c-.81.55-1.22,1.11-1.22,1.69a.8.8,0,0,0,.14.45,1.79,1.79,0,0,0,.39.39.87.87,0,0,1,.26.24.56.56,0,0,1,.1.35,1,1,0,0,1-.32.63,2.05,2.05,0,0,1-.91.53,2.72,2.72,0,0,1-1-.83A1.88,1.88,0,0,1,20,88a2.65,2.65,0,0,1,.65-1.59A5.43,5.43,0,0,1,22.77,84.83Z" fill="#fff"/><path d="M25.81,87.07a.57.57,0,0,0-.18-.62,2.74,2.74,0,0,0-.94-.27c-.17,0-.25-.12-.25-.32a1,1,0,0,1,0-.16.81.81,0,0,1,0-.2c.42,0,.84.08,1.24.1l1.16,0h2.91a9.44,9.44,0,0,1,2.68.36,5.94,5.94,0,0,1,2.11,1.08A4.77,4.77,0,0,1,36,88.87a6,6,0,0,1,.5,2.52,7.53,7.53,0,0,1-.69,3.24,7.72,7.72,0,0,1-1.86,2.51,8.74,8.74,0,0,1-2.79,1.62,10,10,0,0,1-3.46.58H24.48l-1.14,0c-.46,0-.89,0-1.27.1a3,3,0,0,1,0-.34.3.3,0,0,1,.26-.32,3.91,3.91,0,0,0,1-.3.81.81,0,0,0,.44-.6Zm8.54,4.55A6.72,6.72,0,0,0,34,89.24a4,4,0,0,0-1.08-1.62,4.36,4.36,0,0,0-1.74-.9,8.81,8.81,0,0,0-2.36-.29H27.73L25.55,97.84c0,.27,0,.45.1.55a.8.8,0,0,0,.56.15h1a9.35,9.35,0,0,0,2.71-.39,6.35,6.35,0,0,0,2.28-1.22,6,6,0,0,0,1.56-2.16A7.7,7.7,0,0,0,34.35,91.62Z" fill="#fff"/><path d="M43.44,95.84h-.09a11.85,11.85,0,0,1-1.07,1.75,7.27,7.27,0,0,1-1.09,1.16,4,4,0,0,1-1,.64,2.6,2.6,0,0,1-1,.2,2,2,0,0,1-.6-.09,1.28,1.28,0,0,1-.51-.33,1.57,1.57,0,0,1-.35-.63,3.63,3.63,0,0,1-.12-1,8.18,8.18,0,0,1,.58-3.19A7.91,7.91,0,0,1,39.6,92a6.52,6.52,0,0,1,1.87-1.47,4.22,4.22,0,0,1,1.86-.5c.45,0,.89,0,1.3.06a12.66,12.66,0,0,1,1.4.23l-1.45,7.32a1.82,1.82,0,0,0,0,.38c0,.18.07.28.23.28a.67.67,0,0,0,.3-.08,2.48,2.48,0,0,0,.32-.17l.3-.17a.46.46,0,0,1,.22-.07c.14,0,.24.14.29.42a9,9,0,0,1-.79.52c-.27.16-.54.3-.79.43a5.39,5.39,0,0,1-.72.31,2,2,0,0,1-.55.11,1,1,0,0,1-.42-.09.43.43,0,0,1-.19-.41c0-.07,0-.15,0-.25s0-.18.07-.28Zm.76-4.79-.56-.14a4,4,0,0,0-.58,0,2.76,2.76,0,0,0-1.52.44,3.79,3.79,0,0,0-1.16,1.25,6.85,6.85,0,0,0-.75,1.9,10.46,10.46,0,0,0-.26,2.38,2.26,2.26,0,0,0,.19,1.09.58.58,0,0,0,.53.32,1.45,1.45,0,0,0,.9-.38,4.72,4.72,0,0,0,.94-1,14.35,14.35,0,0,0,.88-1.38,12.28,12.28,0,0,0,.72-1.57A11.48,11.48,0,0,0,44,92.37,5.75,5.75,0,0,0,44.2,91.05Z" fill="#fff"/><path d="M54.68,93a4.92,4.92,0,0,0,.13-1,.53.53,0,0,0-.59-.61,1.44,1.44,0,0,0-.78.35,6.55,6.55,0,0,0-1,.9,15,15,0,0,0-1,1.26,11.66,11.66,0,0,0-.87,1.41c-.13.24-.25.51-.37.79a9.44,9.44,0,0,0-.32.89,7.32,7.32,0,0,0-.21.9,4.86,4.86,0,0,0-.07.82,2.62,2.62,0,0,0,.06.57,10.46,10.46,0,0,0-1.66.31.28.28,0,0,1-.17-.25.77.77,0,0,1,0-.18c0-.09,0-.16,0-.22.32-1.63.58-2.92.76-3.86s.32-1.66.41-2.14.15-.8.17-.95,0-.23,0-.26-.06-.26-.17-.26a.76.76,0,0,0-.25.08l-.35.15-.35.14a.69.69,0,0,1-.25.08.23.23,0,0,1-.18-.13,1.1,1.1,0,0,1-.12-.29c.26-.16.56-.32.9-.5s.68-.34,1-.49.6-.27.84-.36a1.69,1.69,0,0,1,.46-.15.44.44,0,0,1,.26.07.27.27,0,0,1,.1.24.92.92,0,0,1,0,.16,1.38,1.38,0,0,1,0,.2l-.76,3.67h.09c.36-.62.74-1.19,1.13-1.73a11.18,11.18,0,0,1,1.19-1.38A5.72,5.72,0,0,1,54,90.34,2.69,2.69,0,0,1,55.23,90a1.45,1.45,0,0,1,.94.29,1.22,1.22,0,0,1,.35,1,4.54,4.54,0,0,1-.05.59c0,.23-.06.45-.1.68l-1.08,5.06a2.53,2.53,0,0,0-.06.4c0,.18.08.28.25.28a.79.79,0,0,0,.3-.08A2,2,0,0,0,56.1,98l.29-.17a.4.4,0,0,1,.21-.07c.14,0,.24.14.29.42-.25.18-.51.36-.77.52s-.53.3-.78.43a6.79,6.79,0,0,1-.72.31,2,2,0,0,1-.55.11,1,1,0,0,1-.43-.09c-.14-.07-.2-.22-.2-.46a.92.92,0,0,1,0-.2c0-.09,0-.17,0-.24Z" fill="#fff"/><path d="M63.07,90.82a2.08,2.08,0,0,0-1.29.42,3.27,3.27,0,0,0-.93,1.13A6.1,6.1,0,0,0,60.29,94a9.91,9.91,0,0,0-.19,2,4.22,4.22,0,0,0,.1,1,2.21,2.21,0,0,0,.31.79,1.69,1.69,0,0,0,.61.54,2.13,2.13,0,0,0,1,.2,2.84,2.84,0,0,0,1.18-.25,6.74,6.74,0,0,0,1.12-.6l.11-.07.1,0a.2.2,0,0,1,.22.16,2.38,2.38,0,0,1,.08.26c-.21.18-.45.37-.72.56a7.41,7.41,0,0,1-.87.52,6.39,6.39,0,0,1-1,.38,4.34,4.34,0,0,1-1.09.14,2.87,2.87,0,0,1-1.35-.29,2.67,2.67,0,0,1-.89-.77,3.09,3.09,0,0,1-.47-1.08,5.59,5.59,0,0,1-.14-1.23,7.74,7.74,0,0,1,.35-2.28,6.84,6.84,0,0,1,1-2,5,5,0,0,1,1.53-1.41,3.82,3.82,0,0,1,2-.52,5.89,5.89,0,0,1,2.53.59,5.82,5.82,0,0,0-.19.88c-.06.38-.1.72-.13,1l-.31,0a.38.38,0,0,1-.38-.32,1.85,1.85,0,0,0-.64-1.06A1.77,1.77,0,0,0,63.07,90.82Z" fill="#fff"/><path d="M67.74,95.06c0,.14,0,.28,0,.42s0,.29,0,.44a4.94,4.94,0,0,0,.09,1,2.28,2.28,0,0,0,.29.82,1.61,1.61,0,0,0,.58.58,1.79,1.79,0,0,0,.94.23,3.6,3.6,0,0,0,1.14-.2,5,5,0,0,0,1.2-.63.73.73,0,0,1,.3-.14.21.21,0,0,1,.22.16,1.25,1.25,0,0,1,0,.26c-.21.19-.45.39-.72.59a5.65,5.65,0,0,1-.86.53,6.15,6.15,0,0,1-1,.38,4.42,4.42,0,0,1-1.1.14,2.9,2.9,0,0,1-1.44-.32,2.51,2.51,0,0,1-.89-.85,3.17,3.17,0,0,1-.44-1.13,6.06,6.06,0,0,1-.12-1.18,7.34,7.34,0,0,1,.35-2.21,6.67,6.67,0,0,1,1-2,5.14,5.14,0,0,1,1.54-1.4,4,4,0,0,1,2-.52,3.56,3.56,0,0,1,.86.11,2.59,2.59,0,0,1,.75.35,1.84,1.84,0,0,1,.53.61,2,2,0,0,1,.2.91,2.22,2.22,0,0,1-.41,1.34,3.32,3.32,0,0,1-1.14.93,7,7,0,0,1-1.72.56A15.54,15.54,0,0,1,67.74,95.06Zm.06-.63a5.61,5.61,0,0,0,2.85-.83A2,2,0,0,0,71.49,92a1.33,1.33,0,0,0-.28-.9,1,1,0,0,0-.77-.3,1.59,1.59,0,0,0-.94.3,3.35,3.35,0,0,0-.78.81A4.57,4.57,0,0,0,68.14,93,7.24,7.24,0,0,0,67.8,94.43Z" fill="#fff"/><path d="M83.28,90a3.37,3.37,0,0,1,1.36.26,2.39,2.39,0,0,1,.94.74,3.29,3.29,0,0,1,.54,1.13,5.66,5.66,0,0,1,.18,1.41,6.82,6.82,0,0,1-.49,2.66,6,6,0,0,1-1.23,1.89,5.08,5.08,0,0,1-3.49,1.48,3,3,0,0,1-1.26-.23,2,2,0,0,1-.83-.67,3.09,3.09,0,0,1-.46-1.09,7.07,7.07,0,0,1-.13-1.44,6.68,6.68,0,0,1,.47-2.54,6.93,6.93,0,0,1,1.2-1.94,5.68,5.68,0,0,1,1.59-1.23A3.5,3.5,0,0,1,83.28,90Zm-1.67,8.75a2,2,0,0,0,1.17-.38,3.19,3.19,0,0,0,.93-1,5.67,5.67,0,0,0,.6-1.6,9,9,0,0,0,.21-2,5.77,5.77,0,0,0-.31-2.11,1.13,1.13,0,0,0-1.12-.78,2,2,0,0,0-1.25.46,3.67,3.67,0,0,0-.91,1.21,6.34,6.34,0,0,0-.56,1.64,8.52,8.52,0,0,0-.19,1.79,5.21,5.21,0,0,0,.33,2.11A1.12,1.12,0,0,0,81.61,98.77Z" fill="#fff"/><path d="M89.44,91H87.79c.07-.48.22-.72.44-.72h1.31l.32-1.88a4.65,4.65,0,0,1,.59-1.65,5.31,5.31,0,0,1,1-1.29,4.77,4.77,0,0,1,1.3-.83,3.37,3.37,0,0,1,1.35-.3,1.89,1.89,0,0,1,1,.28,4.37,4.37,0,0,0-.27.68,6.68,6.68,0,0,0-.19.82l-.3.08a2.24,2.24,0,0,0-.55-.5,1.28,1.28,0,0,0-.69-.22,1,1,0,0,0-.53.14,1.19,1.19,0,0,0-.43.56,6.8,6.8,0,0,0-.41,1.2c-.14.52-.29,1.21-.43,2.07l-.12.84h2.23a3.9,3.9,0,0,0-.21,1c-.35,0-.71-.1-1.09-.13l-1.06-.06-1,6.12a19.77,19.77,0,0,1-.66,2.72,11.13,11.13,0,0,1-.86,2,7.35,7.35,0,0,1-1.07,1.46,5.77,5.77,0,0,1-1.27,1,4.84,4.84,0,0,1-.47.21,1.42,1.42,0,0,1-.52.08,2.34,2.34,0,0,1-.83-.14,5,5,0,0,0,.21-.83,8.49,8.49,0,0,0,.13-.92l.32-.13a2.15,2.15,0,0,0,.51.49,1.16,1.16,0,0,0,.63.18c.47,0,.86-.39,1.16-1.18a21.2,21.2,0,0,0,.84-3.5Z" fill="#fff"/><path d="M101.61,87.07a.57.57,0,0,0-.18-.62,2.74,2.74,0,0,0-.94-.27c-.17,0-.25-.12-.25-.32a1,1,0,0,1,0-.16.81.81,0,0,1,0-.2c.42,0,.83.08,1.24.1l1.16,0h2.91a9.44,9.44,0,0,1,2.68.36,5.94,5.94,0,0,1,2.11,1.08,4.77,4.77,0,0,1,1.38,1.8,6,6,0,0,1,.5,2.52,7.53,7.53,0,0,1-.69,3.24,7.75,7.75,0,0,1-1.87,2.51,8.59,8.59,0,0,1-2.78,1.62,10,10,0,0,1-3.46.58h-3.18l-1.14,0c-.47,0-.89,0-1.27.1a1.69,1.69,0,0,1,0-.34.31.31,0,0,1,.25-.32,3.87,3.87,0,0,0,1-.3.84.84,0,0,0,.44-.6Zm8.54,4.55a7,7,0,0,0-.37-2.38,4.05,4.05,0,0,0-1.08-1.62,4.36,4.36,0,0,0-1.74-.9,8.86,8.86,0,0,0-2.36-.29h-1.07l-2.18,11.41c0,.27,0,.45.1.55a.8.8,0,0,0,.56.15h1a9.4,9.4,0,0,0,2.71-.39A6.43,6.43,0,0,0,108,96.93a6,6,0,0,0,1.56-2.16A7.87,7.87,0,0,0,110.15,91.62Z" fill="#fff"/><path d="M115.29,95.06l0,.42c0,.14,0,.29,0,.44a4.94,4.94,0,0,0,.09,1,2.28,2.28,0,0,0,.29.82,1.61,1.61,0,0,0,.58.58,1.79,1.79,0,0,0,.94.23,3.6,3.6,0,0,0,1.14-.2,5,5,0,0,0,1.2-.63.73.73,0,0,1,.3-.14.21.21,0,0,1,.22.16,1.25,1.25,0,0,1,0,.26c-.21.19-.45.39-.72.59a5.65,5.65,0,0,1-.86.53,6.15,6.15,0,0,1-1,.38,4.42,4.42,0,0,1-1.1.14,2.9,2.9,0,0,1-1.44-.32,2.51,2.51,0,0,1-.89-.85,3,3,0,0,1-.44-1.13,6.06,6.06,0,0,1-.12-1.18,7.34,7.34,0,0,1,.35-2.21,6.67,6.67,0,0,1,1-2,5,5,0,0,1,1.54-1.4,4,4,0,0,1,2-.52,3.58,3.58,0,0,1,.87.11,2.59,2.59,0,0,1,.75.35,1.84,1.84,0,0,1,.53.61,2,2,0,0,1,.2.91,2.16,2.16,0,0,1-.42,1.34,3.19,3.19,0,0,1-1.13.93,7,7,0,0,1-1.72.56A15.52,15.52,0,0,1,115.29,95.06Zm.07-.63a5.53,5.53,0,0,0,2.84-.83,2,2,0,0,0,.85-1.64,1.28,1.28,0,0,0-.29-.9,1,1,0,0,0-.77-.3,1.64,1.64,0,0,0-.94.3,3.78,3.78,0,0,0-.78.81,5.32,5.32,0,0,0-.58,1.17A8,8,0,0,0,115.36,94.43Z" fill="#fff"/><path d="M127.13,92.34c-.16,0-.26,0-.3-.12a.53.53,0,0,1-.08-.22,1.67,1.67,0,0,0-.49-1,1.48,1.48,0,0,0-1-.35,2,2,0,0,0-1.16.33,1.06,1.06,0,0,0-.49.94,1.36,1.36,0,0,0,.37.85,9.12,9.12,0,0,0,.88.88l.8.69a8.85,8.85,0,0,1,.76.73,4.43,4.43,0,0,1,.56.77,1.77,1.77,0,0,1,.22.82,2.35,2.35,0,0,1-.28,1.14,2.87,2.87,0,0,1-.75.92,3.51,3.51,0,0,1-1.11.62,3.89,3.89,0,0,1-1.36.23,8.48,8.48,0,0,1-1.44-.12,6.23,6.23,0,0,1-1.31-.4,11.84,11.84,0,0,0,.27-1.17c.06-.36.11-.77.14-1.22h.21c.33,0,.5.12.5.36a1.79,1.79,0,0,0,.41,1.37,1.63,1.63,0,0,0,1.26.49,2,2,0,0,0,1.35-.44,1.37,1.37,0,0,0,.53-1.12,1.39,1.39,0,0,0-.16-.62,2.62,2.62,0,0,0-.41-.55,5.85,5.85,0,0,0-.57-.53l-.66-.54A11,11,0,0,1,122.64,94a2,2,0,0,1-.51-1.34,2.1,2.1,0,0,1,.26-1.05,2.72,2.72,0,0,1,.72-.83,3.28,3.28,0,0,1,1-.55,3.86,3.86,0,0,1,1.28-.2,4.87,4.87,0,0,1,2.3.57,5.1,5.1,0,0,0-.18.8c0,.32-.09.65-.12,1Z" fill="#fff"/><path d="M130.5,91.71c0-.15-.06-.22-.17-.22a.76.76,0,0,0-.25.08l-.36.15-.35.14a.6.6,0,0,1-.24.08.21.21,0,0,1-.19-.13,1.6,1.6,0,0,1-.11-.29c.26-.16.55-.32.89-.5l1-.49c.32-.14.6-.27.84-.36A1.8,1.8,0,0,1,132,90a.41.41,0,0,1,.25.07.34.34,0,0,1,.11.29,1.76,1.76,0,0,1,0,.31l-.64,3h.07a10,10,0,0,1,2.08-2.79,3.26,3.26,0,0,1,2.07-.86,1.75,1.75,0,0,1,.89.21,1.61,1.61,0,0,1,.57.56,2.24,2.24,0,0,1,.29.8,4.7,4.7,0,0,1,.09.92,7.35,7.35,0,0,1-.58,3,8,8,0,0,1-1.45,2.23,6.35,6.35,0,0,1-1.91,1.4,4.65,4.65,0,0,1-2,.48l-.63,0a4.2,4.2,0,0,1-.61-.09l-.32,1.68a11.13,11.13,0,0,0-.21,1.75c0,.22.08.32.23.32s.3,0,.55,0a3.63,3.63,0,0,1,.57,0,.19.19,0,0,1,.18.12,1.28,1.28,0,0,1,.07.28c-.64.18-1.23.36-1.76.53s-1.05.38-1.57.6a.67.67,0,0,1-.23-.2.38.38,0,0,1-.06-.22,1.52,1.52,0,0,1,0-.31L130.48,92a1.37,1.37,0,0,0,0-.19Zm.38,6.74a1.75,1.75,0,0,0,.61.2,3.46,3.46,0,0,0,.66.08,3,3,0,0,0,1.56-.43,3.82,3.82,0,0,0,1.19-1.21,6.43,6.43,0,0,0,.77-1.8,8.82,8.82,0,0,0,.27-2.24,2.3,2.3,0,0,0-.27-1.31.84.84,0,0,0-.7-.37,1.36,1.36,0,0,0-.86.38,5.24,5.24,0,0,0-.92,1,12.63,12.63,0,0,0-.87,1.38,15.75,15.75,0,0,0-.73,1.56,11.92,11.92,0,0,0-.52,1.52A4.87,4.87,0,0,0,130.88,98.45Z" fill="#fff"/><path d="M144.55,95.84h-.09a11.85,11.85,0,0,1-1.07,1.75,7.27,7.27,0,0,1-1.09,1.16,4,4,0,0,1-1.05.64,2.65,2.65,0,0,1-1,.2,2,2,0,0,1-.6-.09,1.25,1.25,0,0,1-.5-.33,1.46,1.46,0,0,1-.35-.63,3.59,3.59,0,0,1-.13-1,8.36,8.36,0,0,1,.58-3.19A8.14,8.14,0,0,1,140.71,92a6.48,6.48,0,0,1,1.86-1.47,4.26,4.26,0,0,1,1.87-.5c.45,0,.88,0,1.3.06a13.05,13.05,0,0,1,1.4.23l-1.45,7.32a1.89,1.89,0,0,0-.05.38c0,.18.08.28.24.28a.71.71,0,0,0,.3-.08,2.48,2.48,0,0,0,.32-.17l.29-.17a.49.49,0,0,1,.22-.07q.21,0,.3.42c-.25.18-.52.36-.79.52l-.79.43a6,6,0,0,1-.72.31,2,2,0,0,1-.55.11,1,1,0,0,1-.42-.09.41.41,0,0,1-.19-.41c0-.07,0-.15,0-.25l.06-.28Zm.76-4.79-.56-.14a4.13,4.13,0,0,0-.58,0,2.73,2.73,0,0,0-1.52.44,3.79,3.79,0,0,0-1.16,1.25,6.56,6.56,0,0,0-.75,1.9,9.92,9.92,0,0,0-.26,2.38,2.26,2.26,0,0,0,.19,1.09.58.58,0,0,0,.52.32,1.47,1.47,0,0,0,.91-.38,5,5,0,0,0,.94-1,12.63,12.63,0,0,0,.87-1.38,12.36,12.36,0,0,0,.73-1.57,13.11,13.11,0,0,0,.49-1.55A5.75,5.75,0,0,0,145.31,91.05Z" fill="#fff"/><path d="M150.87,97.61c0,.06,0,.13,0,.22s0,.16,0,.2.08.26.25.26a.75.75,0,0,0,.31-.08,3.37,3.37,0,0,0,.32-.17l.28-.17a.4.4,0,0,1,.21-.07q.21,0,.3.42a8.63,8.63,0,0,1-.77.52l-.79.43a6.79,6.79,0,0,1-.72.31,2,2,0,0,1-.55.11,1.12,1.12,0,0,1-.44-.09c-.14-.07-.21-.22-.21-.46a1.13,1.13,0,0,1,0-.22,1.49,1.49,0,0,1,0-.22c.31-1.5.55-2.7.74-3.59s.32-1.58.41-2.05l.18-.94a1.82,1.82,0,0,0,0-.27c0-.17-.06-.26-.19-.26a.69.69,0,0,0-.25.08l-.36.15-.35.14a.66.66,0,0,1-.24.08.21.21,0,0,1-.19-.13,1.6,1.6,0,0,1-.11-.29l.89-.48,1-.5c.32-.15.6-.28.84-.37A1.71,1.71,0,0,1,152,90a.32.32,0,0,1,.36.36,1.76,1.76,0,0,1,0,.31ZM152,87.76a.82.82,0,0,1-.63-.24.88.88,0,0,1-.24-.64,1.54,1.54,0,0,1,.39-1,1.21,1.21,0,0,1,.94-.45.67.67,0,0,1,.6.27,1.28,1.28,0,0,1,.18.7,1.47,1.47,0,0,1-.36,1A1.08,1.08,0,0,1,152,87.76Z" fill="#fff"/><path d="M159.84,92a1.4,1.4,0,0,0-.77.3,4.22,4.22,0,0,0-.87.8,9.28,9.28,0,0,0-.84,1.17,9.38,9.38,0,0,0-.73,1.41,10.56,10.56,0,0,0-.51,1.53,6.7,6.7,0,0,0-.19,1.5,2.62,2.62,0,0,0,.07.57l-.86.12-.85.19c-.13-.07-.19-.15-.19-.25a1.11,1.11,0,0,1,0-.29,1.86,1.86,0,0,1,.09-.28l.08-.25a3.6,3.6,0,0,0,.09-.42l.92-4.79c.1-.55.16-.92.19-1.12s.05-.34.07-.42-.07-.27-.19-.27a.79.79,0,0,0-.25.06l-.33.15-.34.14a.64.64,0,0,1-.24.07.23.23,0,0,1-.18-.13,1.1,1.1,0,0,1-.12-.29c.25-.16.55-.32.9-.5s.67-.34,1-.49.6-.27.84-.36a1.85,1.85,0,0,1,.48-.15.41.41,0,0,1,.25.07.28.28,0,0,1,.11.24s0,.08,0,.15a1.55,1.55,0,0,1,0,.21l-.67,3.17h.08a13.25,13.25,0,0,1,2.08-2.94,2.73,2.73,0,0,1,1.85-.9.93.93,0,0,1,.34.06.78.78,0,0,1,.23.13,10,10,0,0,0-.34,1,7.48,7.48,0,0,0-.23,1.18h-.34A.68.68,0,0,0,159.84,92Z" fill="#fff"/><path d="M171.67,95.84h-.09a11.85,11.85,0,0,1-1.07,1.75,7.27,7.27,0,0,1-1.09,1.16,4,4,0,0,1-1,.64,2.6,2.6,0,0,1-1,.2,2,2,0,0,1-.6-.09,1.28,1.28,0,0,1-.51-.33,1.57,1.57,0,0,1-.35-.63,3.59,3.59,0,0,1-.13-1,8.36,8.36,0,0,1,.58-3.19A8.14,8.14,0,0,1,167.83,92a6.52,6.52,0,0,1,1.87-1.47,4.22,4.22,0,0,1,1.86-.5c.45,0,.88,0,1.3.06a13.05,13.05,0,0,1,1.4.23l-1.45,7.32a1.89,1.89,0,0,0-.05.38c0,.18.08.28.24.28a.67.67,0,0,0,.3-.08,2.48,2.48,0,0,0,.32-.17l.29-.17a.53.53,0,0,1,.23-.07c.14,0,.23.14.29.42-.25.18-.52.36-.79.52s-.54.3-.79.43a5.39,5.39,0,0,1-.72.31,2,2,0,0,1-.55.11,1,1,0,0,1-.42-.09.43.43,0,0,1-.19-.41c0-.07,0-.15,0-.25s0-.18.07-.28Zm.76-4.79-.56-.14a4.13,4.13,0,0,0-.58,0,2.76,2.76,0,0,0-1.52.44,3.79,3.79,0,0,0-1.16,1.25,6.85,6.85,0,0,0-.75,1.9,10.46,10.46,0,0,0-.26,2.38,2.26,2.26,0,0,0,.19,1.09.58.58,0,0,0,.52.32,1.45,1.45,0,0,0,.91-.38,5,5,0,0,0,.94-1,14.35,14.35,0,0,0,.88-1.38,12.28,12.28,0,0,0,.72-1.57,11.48,11.48,0,0,0,.49-1.55A5.75,5.75,0,0,0,172.43,91.05Z" fill="#fff"/><path d="M182.91,93a4.92,4.92,0,0,0,.13-1,.53.53,0,0,0-.59-.61,1.43,1.43,0,0,0-.79.35,7.71,7.71,0,0,0-1,.9c-.33.38-.67.8-1,1.26a11.66,11.66,0,0,0-.87,1.41c-.13.24-.25.51-.37.79a9.44,9.44,0,0,0-.32.89,7.32,7.32,0,0,0-.21.9,4.86,4.86,0,0,0-.07.82,2.62,2.62,0,0,0,.06.57,10.79,10.79,0,0,0-1.67.31.29.29,0,0,1-.16-.25.77.77,0,0,1,0-.18,1.09,1.09,0,0,1,0-.22c.32-1.63.58-2.92.76-3.86s.32-1.66.41-2.14.15-.8.17-.95,0-.23,0-.26-.06-.26-.17-.26a.69.69,0,0,0-.25.08l-.35.15-.35.14a.69.69,0,0,1-.25.08.23.23,0,0,1-.18-.13,1.1,1.1,0,0,1-.12-.29c.26-.16.55-.32.9-.5s.68-.34,1-.49.6-.27.84-.36A1.69,1.69,0,0,1,179,90a.44.44,0,0,1,.26.07.27.27,0,0,1,.1.24.92.92,0,0,1,0,.16l0,.2-.76,3.67h.08c.37-.62.75-1.19,1.14-1.73A11.18,11.18,0,0,1,181,91.25a5.72,5.72,0,0,1,1.21-.91,2.69,2.69,0,0,1,1.24-.32,1.45,1.45,0,0,1,.94.29,1.22,1.22,0,0,1,.34,1,4.38,4.38,0,0,1,0,.59c0,.23-.06.45-.1.68l-1.08,5.06a2.53,2.53,0,0,0-.06.4c0,.18.08.28.25.28a.79.79,0,0,0,.3-.08,2,2,0,0,0,.32-.17l.29-.17a.4.4,0,0,1,.21-.07c.14,0,.24.14.29.42-.25.18-.51.36-.77.52s-.53.3-.78.43a6.11,6.11,0,0,1-.73.31,1.9,1.9,0,0,1-.54.11,1,1,0,0,1-.43-.09c-.14-.07-.21-.22-.21-.46a1.19,1.19,0,0,1,0-.2,1.5,1.5,0,0,1,0-.24Z" fill="#fff"/><path d="M193.67,88.42c0-.17.06-.36.09-.56s.06-.41.08-.61,0-.38.06-.55,0-.32,0-.44a.76.76,0,0,0,0-.21c0-.07-.08-.1-.18-.1l-.22,0-.34.06-.34.06-.22,0q-.27,0-.27-.45c.63-.17,1.21-.34,1.75-.51s1.06-.37,1.6-.58a.57.57,0,0,1,.21.19.32.32,0,0,1,0,.16,1.76,1.76,0,0,1,0,.38l-2.4,12.36c0,.07,0,.14,0,.2a1.37,1.37,0,0,0,0,.16.23.23,0,0,0,.26.26.71.71,0,0,0,.3-.08,2.48,2.48,0,0,0,.32-.17l.29-.17a.49.49,0,0,1,.22-.07c.14,0,.24.14.28.42a8.63,8.63,0,0,1-.77.52l-.79.43a6,6,0,0,1-.72.31,2,2,0,0,1-.55.11,1,1,0,0,1-.42-.09c-.13-.07-.19-.22-.19-.46a2.79,2.79,0,0,1,.06-.48l.64-2.72h-.09a9.69,9.69,0,0,1-2,2.87,3,3,0,0,1-2,.88,2.23,2.23,0,0,1-.63-.09,1.46,1.46,0,0,1-.56-.35,2.07,2.07,0,0,1-.41-.69,3.32,3.32,0,0,1-.16-1.1,8.85,8.85,0,0,1,.53-3.17,7.47,7.47,0,0,1,1.35-2.3,5.85,5.85,0,0,1,1.82-1.4A4.51,4.51,0,0,1,192.1,90a11.51,11.51,0,0,1,1.23.06Zm-.57,2.63a5.32,5.32,0,0,0-.62-.14,5.13,5.13,0,0,0-.65,0,2.5,2.5,0,0,0-1.48.46,3.77,3.77,0,0,0-1.1,1.23,6.59,6.59,0,0,0-.71,1.83,9.66,9.66,0,0,0-.25,2.26,2.6,2.6,0,0,0,.21,1.24.68.68,0,0,0,.63.36,1.27,1.27,0,0,0,.84-.38,5.16,5.16,0,0,0,.89-1,9.65,9.65,0,0,0,.84-1.39,14.73,14.73,0,0,0,.71-1.58,16.27,16.27,0,0,0,.5-1.55A5.74,5.74,0,0,0,193.1,91.05Z" fill="#fff"/><path d="M204.42,87.07a.54.54,0,0,0-.18-.62,2.67,2.67,0,0,0-.94-.27c-.17,0-.25-.12-.25-.32a1,1,0,0,1,0-.16c0-.06,0-.12,0-.2.42,0,.84.08,1.25.1l1.16,0h2.91a9.49,9.49,0,0,1,2.68.36,6,6,0,0,1,2.1,1.08,4.7,4.7,0,0,1,1.39,1.8,6,6,0,0,1,.49,2.52,7.49,7.49,0,0,1-2.55,5.75,8.8,8.8,0,0,1-2.78,1.62,10.05,10.05,0,0,1-3.46.58h-3.19l-1.14,0c-.46,0-.88,0-1.26.1a1.69,1.69,0,0,1,0-.34.3.3,0,0,1,.25-.32,3.91,3.91,0,0,0,1-.3.79.79,0,0,0,.44-.6ZM213,91.62a6.72,6.72,0,0,0-.37-2.38,3.93,3.93,0,0,0-1.07-1.62,4.36,4.36,0,0,0-1.74-.9,8.92,8.92,0,0,0-2.36-.29h-1.08l-2.17,11.41a.63.63,0,0,0,.09.55.82.82,0,0,0,.56.15h1a9.3,9.3,0,0,0,2.71-.39,6.27,6.27,0,0,0,2.28-1.22,5.78,5.78,0,0,0,1.56-2.16A7.7,7.7,0,0,0,213,91.62Z" fill="#fff"/><path d="M218.49,97.61a1.09,1.09,0,0,0,0,.22.87.87,0,0,0,0,.2c0,.17.08.26.25.26a.67.67,0,0,0,.3-.08,2,2,0,0,0,.32-.17l.29-.17a.4.4,0,0,1,.21-.07c.14,0,.24.14.29.42a7.39,7.39,0,0,1-.77.52c-.27.16-.54.3-.79.43a5.39,5.39,0,0,1-.72.31,1.9,1.9,0,0,1-.54.11,1.13,1.13,0,0,1-.45-.09c-.14-.07-.21-.22-.21-.46,0,0,0-.11,0-.22s0-.18,0-.22c.31-1.5.56-2.7.74-3.59s.32-1.58.41-2.05.16-.78.18-.94.05-.24.05-.27-.07-.26-.19-.26a.79.79,0,0,0-.26.08l-.36.15-.34.14a.69.69,0,0,1-.25.08.23.23,0,0,1-.19-.13,1.63,1.63,0,0,1-.1-.29c.25-.15.55-.3.88-.48l1-.5c.32-.15.6-.28.85-.37a1.68,1.68,0,0,1,.49-.15.32.32,0,0,1,.36.36,1.15,1.15,0,0,1,0,.31Zm1.07-9.85a.85.85,0,0,1-.63-.24.91.91,0,0,1-.23-.64,1.54,1.54,0,0,1,.39-1,1.2,1.2,0,0,1,.94-.45.67.67,0,0,1,.6.27,1.28,1.28,0,0,1,.18.7,1.47,1.47,0,0,1-.36,1A1.1,1.1,0,0,1,219.56,87.76Z" fill="#fff"/><path d="M227.26,92.34c-.15,0-.25,0-.29-.12a.54.54,0,0,1-.09-.22,1.66,1.66,0,0,0-.48-1,1.5,1.5,0,0,0-1-.35,2,2,0,0,0-1.16.33,1.07,1.07,0,0,0-.48.94,1.3,1.3,0,0,0,.37.85,9,9,0,0,0,.87.88l.8.69a6.65,6.65,0,0,1,.76.73,3.59,3.59,0,0,1,.56.77,1.66,1.66,0,0,1,.22.82,2.46,2.46,0,0,1-.27,1.14,2.87,2.87,0,0,1-.75.92,3.56,3.56,0,0,1-1.12.62,3.85,3.85,0,0,1-1.36.23,8.36,8.36,0,0,1-1.43-.12,6.23,6.23,0,0,1-1.31-.4q.16-.64.27-1.17c.06-.36.1-.77.13-1.22h.21q.51,0,.51.36a1.79,1.79,0,0,0,.41,1.37,1.61,1.61,0,0,0,1.26.49,2.09,2.09,0,0,0,1.35-.44,1.37,1.37,0,0,0,.52-1.12,1.27,1.27,0,0,0-.16-.62,2.32,2.32,0,0,0-.41-.55,5.85,5.85,0,0,0-.57-.53l-.65-.54A10.11,10.11,0,0,1,222.78,94a2,2,0,0,1-.52-1.34,2.11,2.11,0,0,1,.27-1.05,2.56,2.56,0,0,1,.71-.83,3.44,3.44,0,0,1,1.06-.55,3.8,3.8,0,0,1,1.27-.2,4.81,4.81,0,0,1,2.3.57,5.1,5.1,0,0,0-.18.8c0,.32-.08.65-.11,1Z" fill="#fff"/><path d="M231.1,97.61c0,.06,0,.13,0,.22a.87.87,0,0,0,0,.2c0,.17.08.26.25.26a.75.75,0,0,0,.31-.08,2.38,2.38,0,0,0,.31-.17l.29-.17a.4.4,0,0,1,.21-.07c.14,0,.24.14.29.42a7.39,7.39,0,0,1-.77.52c-.27.16-.53.3-.79.43a5.91,5.91,0,0,1-.71.31,2,2,0,0,1-.55.11,1.13,1.13,0,0,1-.45-.09c-.14-.07-.21-.22-.21-.46,0,0,0-.11,0-.22a1.23,1.23,0,0,1,0-.22c.31-1.5.55-2.7.73-3.59s.32-1.58.42-2.05l.18-.94c0-.15,0-.24,0-.27s-.07-.26-.19-.26a.79.79,0,0,0-.26.08l-.35.15-.35.14a.72.72,0,0,1-.24.08.21.21,0,0,1-.19-.13,1.1,1.1,0,0,1-.11-.29c.25-.15.55-.3.89-.48l1-.5a9.11,9.11,0,0,1,.84-.37,1.71,1.71,0,0,1,.5-.15c.24,0,.35.12.35.36a1.15,1.15,0,0,1,0,.31Zm1.08-9.85a.86.86,0,0,1-.64-.24.91.91,0,0,1-.23-.64,1.54,1.54,0,0,1,.39-1,1.2,1.2,0,0,1,.94-.45.67.67,0,0,1,.6.27,1.28,1.28,0,0,1,.18.7,1.47,1.47,0,0,1-.36,1A1.09,1.09,0,0,1,232.18,87.76Z" fill="#fff"/><path d="M236.77,86.26a.76.76,0,0,0,0-.21c0-.07-.08-.1-.18-.1l-.22,0L236,86l-.32.06-.21,0c-.19,0-.28-.15-.28-.45.63-.17,1.22-.34,1.75-.51s1.07-.37,1.61-.58a.51.51,0,0,1,.21.2.65.65,0,0,1,0,.2,1.86,1.86,0,0,1,0,.33l-2.41,12.3c0,.07,0,.15,0,.24s0,.15,0,.18.08.26.25.26a.75.75,0,0,0,.31-.08,2.38,2.38,0,0,0,.31-.17l.29-.17a.4.4,0,0,1,.21-.07c.14,0,.24.14.29.42a7.24,7.24,0,0,1-.76.52l-.8.43a5.91,5.91,0,0,1-.71.31,2,2,0,0,1-.55.11,1.08,1.08,0,0,1-.44-.09.46.46,0,0,1-.22-.46,1.49,1.49,0,0,1,0-.22.78.78,0,0,1,0-.22l2-10.18a10.62,10.62,0,0,0,.19-1.22C236.75,86.8,236.77,86.49,236.77,86.26Z" fill="#fff"/><path d="M242,86.26a.76.76,0,0,0,0-.21c0-.07-.08-.1-.18-.1l-.22,0-.34.06-.32.06-.21,0c-.19,0-.28-.15-.28-.45.63-.17,1.22-.34,1.75-.51s1.07-.37,1.61-.58a.51.51,0,0,1,.21.2.65.65,0,0,1,0,.2,1.86,1.86,0,0,1,0,.33l-2.41,12.3c0,.07,0,.15,0,.24s0,.15,0,.18.08.26.25.26a.75.75,0,0,0,.31-.08,2.38,2.38,0,0,0,.31-.17l.29-.17a.4.4,0,0,1,.21-.07q.21,0,.3.42a8.63,8.63,0,0,1-.77.52l-.8.43a5.91,5.91,0,0,1-.71.31,2,2,0,0,1-.55.11,1.08,1.08,0,0,1-.44-.09c-.14-.07-.21-.22-.21-.46a1.13,1.13,0,0,1,0-.22.78.78,0,0,1,0-.22l2-10.18a10.62,10.62,0,0,0,.19-1.22C242,86.8,242,86.49,242,86.26Z" fill="#fff"/><path d="M247,96.64a5.48,5.48,0,0,0-.13,1,.54.54,0,0,0,.21.48.81.81,0,0,0,.51.15,1.64,1.64,0,0,0,1-.37,5.09,5.09,0,0,0,1-1,10.89,10.89,0,0,0,1-1.39,11.76,11.76,0,0,0,.79-1.59,10.77,10.77,0,0,0,.54-1.6,6,6,0,0,0,.2-1.41,2.91,2.91,0,0,0-.06-.57,14.2,14.2,0,0,0,1.66-.31.28.28,0,0,1,.17.25.77.77,0,0,1,0,.18c0,.09,0,.16,0,.22l-1.43,7.26c-.05.25,0,.38.27.38a.67.67,0,0,0,.28-.08l.31-.15.29-.14a.49.49,0,0,1,.22-.08c.12,0,.21.13.25.38-.25.18-.52.36-.8.53s-.55.32-.8.44a5,5,0,0,1-.71.3,1.78,1.78,0,0,1-.52.1.93.93,0,0,1-.4-.09.46.46,0,0,1-.19-.43s0-.1,0-.19a1.27,1.27,0,0,1,.06-.28l.61-2.91h-.09a9.82,9.82,0,0,1-2.25,3,3.61,3.61,0,0,1-2.26.91,1.54,1.54,0,0,1-1.05-.33,1.29,1.29,0,0,1-.38-1,4.48,4.48,0,0,1,0-.59c0-.22.06-.44.1-.65l1-4.85a.5.5,0,0,1,0-.15c0-.07,0-.12,0-.15,0-.24,0-.36-.19-.36a.76.76,0,0,0-.28.08l-.37.15c-.13,0-.25.09-.35.14a.72.72,0,0,1-.24.08.19.19,0,0,1-.17-.13,1.28,1.28,0,0,1-.11-.27c.24-.14.52-.31.86-.49s.65-.35,1-.49.6-.28.85-.38a1.57,1.57,0,0,1,.51-.16q.42,0,.42.36a1.49,1.49,0,0,1,0,.21c0,.07,0,.14-.05.21Z" fill="#fff"/><path d="M261.11,92.34c-.15,0-.25,0-.29-.12a.54.54,0,0,1-.09-.22,1.66,1.66,0,0,0-.48-1,1.5,1.5,0,0,0-1-.35,2,2,0,0,0-1.16.33,1.07,1.07,0,0,0-.48.94,1.3,1.3,0,0,0,.37.85,9,9,0,0,0,.87.88l.8.69a6.65,6.65,0,0,1,.76.73,4,4,0,0,1,.56.77,1.66,1.66,0,0,1,.22.82,2.46,2.46,0,0,1-.27,1.14,2.87,2.87,0,0,1-.75.92,3.68,3.68,0,0,1-1.12.62,3.85,3.85,0,0,1-1.36.23,8.36,8.36,0,0,1-1.43-.12,6.05,6.05,0,0,1-1.31-.4c.11-.43.2-.82.26-1.17a10,10,0,0,0,.14-1.22h.21q.51,0,.51.36a1.79,1.79,0,0,0,.41,1.37,1.61,1.61,0,0,0,1.25.49,2,2,0,0,0,1.35-.44,1.35,1.35,0,0,0,.53-1.12,1.27,1.27,0,0,0-.16-.62,2.32,2.32,0,0,0-.41-.55,5.85,5.85,0,0,0-.57-.53l-.65-.54A10.11,10.11,0,0,1,256.63,94a2,2,0,0,1-.52-1.34,2.11,2.11,0,0,1,.27-1.05,2.56,2.56,0,0,1,.71-.83,3.44,3.44,0,0,1,1.06-.55,3.8,3.8,0,0,1,1.27-.2,4.81,4.81,0,0,1,2.3.57,5.1,5.1,0,0,0-.18.8c-.05.32-.08.65-.11,1Z" fill="#fff"/><path d="M265,97.61c0,.06,0,.13,0,.22a.87.87,0,0,0,0,.2c0,.17.08.26.25.26a.75.75,0,0,0,.31-.08,2.38,2.38,0,0,0,.31-.17l.29-.17a.4.4,0,0,1,.21-.07c.14,0,.24.14.29.42a7.39,7.39,0,0,1-.77.52c-.27.16-.53.3-.79.43a5.91,5.91,0,0,1-.71.31,2,2,0,0,1-.55.11,1.13,1.13,0,0,1-.45-.09c-.14-.07-.21-.22-.21-.46,0,0,0-.11,0-.22a1.23,1.23,0,0,1,.05-.22c.31-1.5.55-2.7.73-3.59s.32-1.58.42-2.05.15-.78.17-.94.05-.24.05-.27-.07-.26-.19-.26a.79.79,0,0,0-.26.08l-.35.15c-.13,0-.25.09-.35.14a.72.72,0,0,1-.24.08.21.21,0,0,1-.19-.13,1.1,1.1,0,0,1-.11-.29c.25-.15.55-.3.89-.48l1-.5a9.11,9.11,0,0,1,.84-.37A1.71,1.71,0,0,1,266,90a.32.32,0,0,1,.35.36,1.15,1.15,0,0,1,0,.31ZM266,87.76a.86.86,0,0,1-.64-.24.91.91,0,0,1-.23-.64,1.54,1.54,0,0,1,.39-1,1.2,1.2,0,0,1,.94-.45.67.67,0,0,1,.6.27,1.28,1.28,0,0,1,.18.7,1.47,1.47,0,0,1-.36,1A1.09,1.09,0,0,1,266,87.76Z" fill="#fff"/><path d="M272.8,90a3.37,3.37,0,0,1,1.36.26,2.36,2.36,0,0,1,.93.74,3.29,3.29,0,0,1,.54,1.13,5.23,5.23,0,0,1,.18,1.41,6.83,6.83,0,0,1-.48,2.66,6,6,0,0,1-1.24,1.89,5,5,0,0,1-3.49,1.48,2.94,2.94,0,0,1-1.25-.23,2.06,2.06,0,0,1-.84-.67,2.91,2.91,0,0,1-.45-1.09,7,7,0,0,1-.14-1.44,6.5,6.5,0,0,1,.48-2.54,6.71,6.71,0,0,1,1.2-1.94,5.64,5.64,0,0,1,1.58-1.23A3.57,3.57,0,0,1,272.8,90Zm-1.67,8.75a2,2,0,0,0,1.17-.38,3.19,3.19,0,0,0,.93-1,5.67,5.67,0,0,0,.6-1.6,9,9,0,0,0,.21-2,5.74,5.74,0,0,0-.32-2.11,1.12,1.12,0,0,0-1.11-.78,1.93,1.93,0,0,0-1.25.46,3.83,3.83,0,0,0-.92,1.21,6.73,6.73,0,0,0-.55,1.64,8.52,8.52,0,0,0-.19,1.79,5.24,5.24,0,0,0,.32,2.11A1.14,1.14,0,0,0,271.13,98.77Z" fill="#fff"/><path d="M284.12,93a4.25,4.25,0,0,0,.13-1,.53.53,0,0,0-.59-.61,1.44,1.44,0,0,0-.78.35,6.55,6.55,0,0,0-1,.9,15,15,0,0,0-1,1.26,11.66,11.66,0,0,0-.87,1.41c-.13.24-.25.51-.37.79s-.22.59-.32.89a7.32,7.32,0,0,0-.21.9,4.86,4.86,0,0,0-.07.82,2.62,2.62,0,0,0,.06.57,10.46,10.46,0,0,0-1.66.31.28.28,0,0,1-.17-.25.77.77,0,0,1,0-.18c0-.09,0-.16,0-.22.32-1.63.58-2.92.76-3.86s.32-1.66.41-2.14.15-.8.17-.95,0-.23,0-.26-.05-.26-.17-.26a.76.76,0,0,0-.25.08l-.35.15-.35.14a.69.69,0,0,1-.25.08.23.23,0,0,1-.18-.13.83.83,0,0,1-.11-.29c.25-.16.55-.32.89-.5s.68-.34,1-.49.6-.27.84-.36a1.62,1.62,0,0,1,.47-.15.43.43,0,0,1,.25.07.27.27,0,0,1,.1.24.92.92,0,0,1,0,.16.69.69,0,0,1,0,.2l-.76,3.67h.09c.36-.62.74-1.19,1.13-1.73a12.1,12.1,0,0,1,1.19-1.38,5.72,5.72,0,0,1,1.21-.91,2.69,2.69,0,0,1,1.24-.32,1.43,1.43,0,0,1,.94.29,1.22,1.22,0,0,1,.35,1,4.54,4.54,0,0,1,0,.59c0,.23-.06.45-.1.68l-1.08,5.06a2.53,2.53,0,0,0-.06.4c0,.18.08.28.25.28a.75.75,0,0,0,.3-.08,2,2,0,0,0,.32-.17l.29-.17a.4.4,0,0,1,.21-.07q.21,0,.3.42c-.26.18-.52.36-.78.52s-.52.3-.78.43a6.79,6.79,0,0,1-.72.31,2,2,0,0,1-.55.11,1,1,0,0,1-.43-.09c-.14-.07-.2-.22-.2-.46a.92.92,0,0,1,0-.2c0-.09,0-.17,0-.24Z" fill="#fff"/><path d="M294.65,93a4.8,4.8,0,0,0,.12-1c0-.41-.15-.61-.46-.61a1.29,1.29,0,0,0-.73.35,7.63,7.63,0,0,0-.92.9c-.32.38-.64.8-1,1.26a13,13,0,0,0-.86,1.41c-.13.24-.25.51-.37.79a9.44,9.44,0,0,0-.32.89,7.32,7.32,0,0,0-.21.9,4.86,4.86,0,0,0-.07.82,2.62,2.62,0,0,0,.06.57,10.79,10.79,0,0,0-1.67.31.29.29,0,0,1-.16-.25.77.77,0,0,1,0-.18c0-.09,0-.16,0-.22.31-1.62.55-2.9.74-3.85s.32-1.67.42-2.15.16-.8.18-.95,0-.23,0-.26-.06-.26-.17-.26a.69.69,0,0,0-.25.08l-.35.15-.35.14a.69.69,0,0,1-.25.08.23.23,0,0,1-.18-.13,1.1,1.1,0,0,1-.12-.29c.26-.16.55-.32.89-.5s.66-.34,1-.49.59-.27.84-.36a1.71,1.71,0,0,1,.5-.15.43.43,0,0,1,.25.07.27.27,0,0,1,.1.24,1,1,0,0,1,0,.15.76.76,0,0,1,0,.21l-.76,3.67h.09c.36-.62.73-1.19,1.11-1.73A11.05,11.05,0,0,1,293,91.25a5.5,5.5,0,0,1,1.16-.91,2.57,2.57,0,0,1,1.2-.32,1.2,1.2,0,0,1,.81.3,1.26,1.26,0,0,1,.35,1,3.86,3.86,0,0,1,0,.58c0,.21-.07.44-.13.71L296,94.28H296c.37-.61.74-1.17,1.12-1.69a10.65,10.65,0,0,1,1.15-1.35,5.24,5.24,0,0,1,1.17-.9,2.46,2.46,0,0,1,1.18-.32,1.21,1.21,0,0,1,.8.29,1.25,1.25,0,0,1,.33,1,4.64,4.64,0,0,1,0,.63c0,.21-.06.43-.1.64l-1.06,5.06a1.43,1.43,0,0,0,0,.22.82.82,0,0,0,0,.18c0,.18.09.28.25.28a.75.75,0,0,0,.31-.08l.31-.17.29-.17a.46.46,0,0,1,.22-.07q.21,0,.27.42a7.24,7.24,0,0,1-.76.52c-.27.16-.53.3-.78.43a5.91,5.91,0,0,1-.71.31,2,2,0,0,1-.55.11,1.08,1.08,0,0,1-.44-.09c-.14-.07-.21-.22-.21-.46a1.13,1.13,0,0,1,0-.22.78.78,0,0,1,0-.22L300,93a5,5,0,0,0,.11-1c0-.41-.15-.61-.45-.61a1.27,1.27,0,0,0-.72.35,7,7,0,0,0-.92.9c-.32.38-.65.8-1,1.26a13.17,13.17,0,0,0-.88,1.41,6.25,6.25,0,0,0-.33.72c-.12.28-.22.57-.32.88a5.9,5.9,0,0,0-.23.92,4.78,4.78,0,0,0-.09.88,2.12,2.12,0,0,0,.07.57,14.36,14.36,0,0,0-1.67.31.33.33,0,0,1-.17-.25s0-.08,0-.17a2.23,2.23,0,0,0,0-.23Z" fill="#fff"/><path d="M305.36,95.06c0,.14,0,.28,0,.42s0,.29,0,.44a5.89,5.89,0,0,0,.08,1,2.49,2.49,0,0,0,.3.82,1.54,1.54,0,0,0,.58.58,1.77,1.77,0,0,0,.94.23,3.59,3.59,0,0,0,1.13-.2,4.85,4.85,0,0,0,1.21-.63.77.77,0,0,1,.29-.14.21.21,0,0,1,.22.16.9.9,0,0,1,.06.26c-.22.19-.45.39-.72.59a6.3,6.3,0,0,1-.87.53,6.15,6.15,0,0,1-1,.38,4.34,4.34,0,0,1-1.09.14,2.94,2.94,0,0,1-1.45-.32,2.48,2.48,0,0,1-.88-.85,3.19,3.19,0,0,1-.45-1.13,6.91,6.91,0,0,1-.11-1.18,7.32,7.32,0,0,1,.34-2.21,6.69,6.69,0,0,1,1-2,5.1,5.1,0,0,1,1.53-1.4,4,4,0,0,1,2-.52,3.56,3.56,0,0,1,.86.11,2.47,2.47,0,0,1,.75.35,1.74,1.74,0,0,1,.53.61,2,2,0,0,1,.2.91,2.22,2.22,0,0,1-.41,1.34,3.15,3.15,0,0,1-1.14.93,6.81,6.81,0,0,1-1.72.56A15.37,15.37,0,0,1,305.36,95.06Zm.06-.63a5.54,5.54,0,0,0,2.85-.83,2,2,0,0,0,.84-1.64,1.28,1.28,0,0,0-.28-.9,1,1,0,0,0-.77-.3,1.62,1.62,0,0,0-.94.3,3.35,3.35,0,0,0-.78.81,4.91,4.91,0,0,0-.58,1.17A8.06,8.06,0,0,0,305.42,94.43Z" fill="#fff"/><path d="M318.75,93a4.25,4.25,0,0,0,.13-1,.53.53,0,0,0-.59-.61,1.44,1.44,0,0,0-.78.35,6.55,6.55,0,0,0-1,.9,15,15,0,0,0-1,1.26,10.61,10.61,0,0,0-.88,1.41c-.13.24-.25.51-.37.79s-.22.59-.32.89a7.32,7.32,0,0,0-.21.9,4.86,4.86,0,0,0-.07.82,2.62,2.62,0,0,0,.06.57,10.46,10.46,0,0,0-1.66.31.28.28,0,0,1-.17-.25s0-.09,0-.18,0-.16,0-.22c.32-1.63.58-2.92.76-3.86s.32-1.66.41-2.14.15-.8.17-.95,0-.23,0-.26-.05-.26-.17-.26a.76.76,0,0,0-.25.08l-.35.15-.35.14a.69.69,0,0,1-.25.08.23.23,0,0,1-.18-.13.83.83,0,0,1-.11-.29c.25-.16.55-.32.89-.5s.68-.34,1-.49.6-.27.84-.36a1.71,1.71,0,0,1,.47-.15.43.43,0,0,1,.25.07.27.27,0,0,1,.1.24.92.92,0,0,1,0,.16.69.69,0,0,1,0,.2l-.76,3.67h.09c.36-.62.74-1.19,1.13-1.73a12.1,12.1,0,0,1,1.19-1.38,5.72,5.72,0,0,1,1.21-.91A2.69,2.69,0,0,1,319.3,90a1.43,1.43,0,0,1,.94.29,1.22,1.22,0,0,1,.35,1,4.54,4.54,0,0,1,0,.59c0,.23-.06.45-.1.68l-1.08,5.06a2.53,2.53,0,0,0-.06.4c0,.18.08.28.25.28a.75.75,0,0,0,.3-.08,2.59,2.59,0,0,0,.33-.17l.28-.17a.4.4,0,0,1,.21-.07q.21,0,.3.42c-.26.18-.51.36-.78.52s-.52.3-.78.43a6.79,6.79,0,0,1-.72.31,2,2,0,0,1-.55.11,1,1,0,0,1-.43-.09c-.14-.07-.2-.22-.2-.46a.92.92,0,0,1,0-.2c0-.09,0-.17,0-.24Z" fill="#fff"/><path d="M324.59,89.91a6,6,0,0,0,.17-1.28,2.76,2.76,0,0,0-.06-.57l.84-.13a7.06,7.06,0,0,0,.89-.19.34.34,0,0,1,.17.25s0,.09,0,.17a.87.87,0,0,1,0,.21l-.35,1.9h2.17c0,.13-.09.28-.13.47s-.08.35-.1.5c-.35-.06-.71-.11-1.08-.14L326,91l-1.16,6.6a3.29,3.29,0,0,0-.07.44c0,.34.21.51.62.51a2.15,2.15,0,0,0,.58-.07,2.87,2.87,0,0,0,.47-.18l.33-.16a.46.46,0,0,1,.22-.07c.15,0,.24.13.27.4a5.83,5.83,0,0,1-1.42.8,4.2,4.2,0,0,1-1.45.29,1.82,1.82,0,0,1-1.07-.24.87.87,0,0,1-.32-.73,2.12,2.12,0,0,1,.05-.44L324.4,91h-1.54a1.73,1.73,0,0,1,.14-.53.35.35,0,0,1,.33-.17h1.2Z" fill="#fff"/><path d="M329.7,89.87c-.2-.15-.29-.3-.27-.44a.44.44,0,0,1,.2-.32c.79-.58,1.19-1.15,1.19-1.73a1,1,0,0,0-.51-.82.63.63,0,0,1-.34-.51.92.92,0,0,1,.32-.63,3.19,3.19,0,0,1,.89-.59,2.72,2.72,0,0,1,1,.81,1.8,1.8,0,0,1,.36,1.09,2.58,2.58,0,0,1-.65,1.57A6.14,6.14,0,0,1,329.7,89.87Zm3.37,0c-.2-.15-.28-.3-.26-.44a.44.44,0,0,1,.2-.32,2.31,2.31,0,0,0,1.18-1.73,1,1,0,0,0-.51-.82.64.64,0,0,1-.33-.51.9.9,0,0,1,.31-.63,3.19,3.19,0,0,1,.89-.59,2.64,2.64,0,0,1,1,.81,1.75,1.75,0,0,1,.37,1.09,2.64,2.64,0,0,1-.65,1.57A6.19,6.19,0,0,1,333.07,89.87Z" fill="#fff"/></svg>