<svg xmlns="http://www.w3.org/2000/svg" width="260" height="114" viewBox="0 0 260 114"><path d="M35.21 88.48L39 66.14c-7.15 15-13.58 32.49-15.57 39.52-.42 1.39-1 1.72-1.71 1.8-2 .24-7.57-2.27-7.86-4.66 9.18-25.92 21.07-57 21.55-60.7.31-2.3 2.79-3.27 4.61-3.49 3.88-.47 9.91 1.57 10.41 5.7a5.39 5.39 0 0 1-.24 2.2L45.88 72.1C50.4 65.18 64.46 36.66 65.26 35a2.25 2.25 0 0 1 1.9-1.57c5.7-.69 10.92 4.29 11.21 6.68.14 1.16-.05 1-1.11 4C66.84 72.15 64.07 82.55 61.59 100a2.22 2.22 0 0 1-1.88 2.49c-2.23.27-7.93-3.23-8.22-5.54-.07-1.33 4.86-21.46 8.82-38.53-6 12.71-14.52 33.61-15.8 36.19a1.81 1.81 0 0 1-1.46 1.1c-2.81.37-7.57-5-7.84-7.23zM132.52 75.41l3.83-22.33c-7.14 15-13.57 32.48-15.57 39.51-.42 1.4-1 1.72-1.71 1.8-2 .24-7.57-2.26-7.86-4.66 9.18-25.92 21.08-57 21.55-60.69.31-2.3 2.79-3.27 4.61-3.49 3.88-.47 9.91 1.56 10.41 5.69a5.42 5.42 0 0 1-.23 2.21L143.19 59c4.53-6.92 18.58-35.45 19.38-37.13a2.25 2.25 0 0 1 1.91-1.58c5.69-.69 10.91 4.29 11.2 6.69.14 1.16-.05 1-1.11 4-10.42 28.08-13.18 38.47-15.67 56a2.22 2.22 0 0 1-1.9 2.48c-2.23.27-7.93-3.23-8.21-5.55-.08-1.33 4.85-21.45 8.82-38.53-6 12.72-14.53 33.61-15.81 36.2a1.8 1.8 0 0 1-1.46 1.1c-2.79.32-7.55-5.04-7.82-7.27z" fill="#fff"/><path d="M118.93 51.34c-5.47-1.54-9.78 3.39-9.46 2.26 1-3.72-1.31-4.87-3.17-5.39a12.29 12.29 0 0 0-3.38-.53c-.54 2.15-3.65 11.55-6.43 19.92a3.28 3.28 0 0 0-.2.31c-4.12 7.84-8.25 12.21-12.69 13-3.09.56-4.61-.2-5.16-3.22a14.91 14.91 0 0 1 .24-5.83c2.06.84 5.23 1.65 6.9 1.34 3.93-.71 8.94-8.87 8.28-14.89-.57-3.18-6.44-6-8.76-5.93-.42.07-.77.05-1.19.12-7.45 1.35-17 14.57-14.88 26.2a10.67 10.67 0 0 0 1.53 4.14c1.86 2.68 9.12 4.57 12.64 3.93a18.15 18.15 0 0 0 8.53-4.48c-.36 2 .27 3.46 3.59 4.4a15 15 0 0 0 2.55.47h.11c1.63-2.34 9.39-28.08 12.82-28.82 4.86-1 .41 1.77 2.73 3.91s7.23-.83 8.46-5.17c.95-3.33-.63-5.08-3.06-5.74zm-33.36 8h.27a.69.69 0 0 1 .25.47c.29 1.59-1.48 7.1-3.23 7.41a5 5 0 0 1-2.5-.41c1.88-4.39 4.29-7.33 5.21-7.5zM240.74 0c1.12 6.45 1.12 6.45-3.23 9.6-3 2.14-2.47 5.4-1.72 8.17-1.09-.77-5.3-3.46-7.33-1.73s0 7.13-10.25 7c6.92 5 14.54 1.66 15.19 1.37 6-2.66 14.54 11.56-4.88 33.46-.23.25-.5.09-.59-.41-.65-3.6 3.67-13.63 6.51-18.47a4.13 4.13 0 0 0 .13-2.61c-.59-3.27-3.1-7.57-5.94-7s-11.85 12.85-16.23 18.74c1.17-3.58 4.16-9 4.08-9.47-.44-2.42-6.61-3.55-8-3.3-2.29.42-6.8 11.26-9.35 19.54-1.61 3.51-3.83 8-6.2 8.46-.59.1-1.21 0-1.34-.71-.47-2.6 2.85-11.49 5.35-16.79.48-1.12 2.24-4.81 2.08-5.65-.43-2.42-5.24-3.19-7.33-2.82-.76.14-1.38.51-3 3.4-1.35-1.74-3.52-4.2-5.53-3.84-7.87 1.43-17.47 17.16-16.19 25.66 1.09 6 6.63 10.38 10.4 9.7 2.68-.48 4.49-2.88 5.93-5 1.52 2.66 4.48 3.25 7.07 2.78 3-.55 5.64-2.68 7.83-5.36 1.52 1.2 4.6 2.74 6.71 2.36a2 2 0 0 0 1.56-1.08c3.47-7.11 8.49-13.72 13.61-19.83-1.31 4.21-2.87 7.56-2.63 11.63s4.1 11 9.38 7c25.81-19.66 16.7-42 16.52-44-.39-4.29 1.51-8.17 2-12.45.34-3.81-1.94-4.94-4.61-8.35zm-57.91 55.49c-.64 2.19-3.6 9.21-5.78 9.6-.25 0-.43 0-.52-.51-.22-1.17.32-4.9 2.51-10.48 1.58-4.17 4.41-9.53 6-9.82.5-.09.85.89 1.07 1.63a78.57 78.57 0 0 0-3.28 9.58z" fill="#fff"/><path d="M247 19.82s-1.26-6.74 2.61-8.08 4.85 2.06 3.14 3.41-4.25-1.08-5.75 4.67zM247.24 24.4s4.13-5.75 9.43-4.94 3.33 6.38.54 6-3.68-3.39-9.97-1.06zM217.41 26.67S215 21.19 211.3 21s-4.22 4.16-1.08 4.6 2.88-1.09 7.19 1.07zM218.76 31s-2-4.58-9.17-4.31-4.58 7.09-.45 6.2 2.61-3.89 9.62-1.89zM160.16 20.27a8.45 8.45 0 0 1 3.69-6.61c3.66-2.3 6.24.37 4.27 2.62s-3.74-1.39-7.96 3.99zM53.37 43.21s2.41-6.39.31-10.18-7.12-2.92-6.91 1 6.04 1.25 6.6 9.18zM56.24 42.5s5.78-4.2 4.19-7.63-4.55-1.23-3.94.77 1.9 2-.25 6.86zM13.43 98.88s-6.6 4.5-6.5 10.7 5.61 6.3 6.9 3.89c2.8-5.19-5.2-3.79-.4-14.59zM12 98.22s-5.9-2.6-9.79.6-2.21 8.78 1.3 6.8C8.13 103 2.24 100 12 98.22z" fill="#fff"/></svg>