<svg xmlns="http://www.w3.org/2000/svg" width="350" height="59" viewBox="0 0 350 59"><g fill="#fff"><path d="M163.22 8.29V3.05h-4.49v16.32h2.83v2.71h-8.89v-2.71h2.77V3.05h-4.46v5.24h-2.69V.33h17.61v7.95h-2.69zM178.09 6.51c2.82 0 4.23 1.53 4.23 4.58v8.34h2.57v2.66h-5.56v-9.93c0-1.09-.16-1.85-.47-2.3-.31-.44-.8-.66-1.45-.66-1.11 0-2.55.65-4.32 1.95v8.29h2.63v2.66h-8.33v-2.66h2.71V2.96h-2.71V.33h5.7v8.36c1.79-1.45 3.45-2.18 4.99-2.18zM202.57 15.26h-12.72c.18 1.45.75 2.6 1.69 3.44.94.84 2.1 1.26 3.46 1.26 1 0 1.93-.21 2.79-.62.86-.41 1.57-1.05 2.15-1.91l2.63 1.18c-.83 1.29-1.91 2.26-3.26 2.92-1.34.66-2.8.99-4.38.99s-3.09-.34-4.36-1.02-2.26-1.64-2.97-2.86c-.71-1.22-1.06-2.6-1.06-4.13s.35-2.89 1.05-4.11c.7-1.22 1.65-2.18 2.87-2.87 1.21-.69 2.55-1.03 4.01-1.03 1.6 0 2.99.35 4.18 1.06s2.12 1.72 2.81 3.03c.68 1.31 1.05 2.87 1.11 4.66zM194.53 9c-1.13 0-2.11.38-2.96 1.13-.85.76-1.39 1.75-1.63 3h9.5c-.28-1.24-.87-2.24-1.78-3-.9-.76-1.95-1.13-3.13-1.13z"/></g><g fill="#fff"><path d="M14.86 38.7l6.01 16.74h2.47v2.77h-8.75v-2.77h2.9l-1.72-5.04H7.72L6 55.44h2.81v2.77H0v-2.77h2.68L8.66 38.7H5.99v-2.68h11.53v2.68h-2.67zm-3.03 0h-.1l-3.14 9.1h6.3l-3.06-9.1zM46.15 46.78c0 3.8-1.15 6.65-3.44 8.56-2.29 1.91-5.7 2.86-10.23 2.86h-8.29v-2.77h2.97V38.78h-2.97v-2.77h8.44c4.54 0 7.93.86 10.17 2.58 2.23 1.72 3.35 4.45 3.35 8.19zm-3.65.15c0-1.88-.33-3.42-.99-4.61s-1.71-2.07-3.15-2.66c-1.44-.58-3.34-.88-5.69-.88h-2.14v16.65h2.11c3.42 0 5.91-.68 7.5-2.05 1.58-1.37 2.37-3.52 2.37-6.46zM53 38.79l5.67 15.08 5.49-15.08H61.6v-2.77h8.47v2.77h-2.65l-7.33 19.66h-3.08l-7.45-19.66h-2.74v-2.77h8.75v2.77h-2.56zM86.92 42.5v-3.71h-9.5v6.61h8.26v2.77h-8.26v7.27h9.5v-4.05h2.74v6.82H71.21v-2.77h2.86V38.79h-2.86v-2.77h18.45v6.48h-2.74zM108.73 38.79h-3.17v-2.77h9.1v2.77h-3.25v19.66h-3.45L97.31 39.48v15.96h3.18v2.77H91.4v-2.77h3.17V38.79H91.4v-2.77h7.57l9.75 17.24V38.79zM131.55 44.13v-5.35h-4.58v16.65h2.89v2.77h-9.07v-2.77h2.83V38.78h-4.55v5.35h-2.74v-8.11h17.96v8.11h-2.74zM142.05 38.79V50.1c0 1.99.38 3.45 1.14 4.37.76.92 1.88 1.38 3.35 1.38s2.63-.46 3.41-1.37c.78-.91 1.17-2.37 1.17-4.36V38.78h-2.59v-2.77h8.69v2.77h-2.77v11.65c0 2.65-.67 4.67-2.01 6.06-1.34 1.39-3.31 2.08-5.9 2.08s-4.57-.69-5.88-2.07c-1.31-1.38-1.97-3.47-1.97-6.27V38.77h-2.74V36h8.72v2.77h-2.62zM175.49 41.84c0 1.42-.4 2.62-1.21 3.59-.81.97-1.93 1.63-3.37 2l3.92 8.03h2.71v2.77h-4.98l-4.9-10.34h-3.11v7.57h2.83v2.77h-9.19v-2.77h3V38.81h-3v-2.77h9.22c2.86 0 4.92.47 6.18 1.4s1.9 2.41 1.9 4.42zm-3.46-.06c0-1.03-.32-1.79-.97-2.27s-1.67-.72-3.08-.72h-3.43v6.3h3.22c1.44 0 2.51-.25 3.21-.75.7-.5 1.05-1.35 1.05-2.56zM194.08 42.5v-3.71h-9.5v6.61h8.26v2.77h-8.26v7.27h9.5v-4.05h2.74v6.82h-18.45v-2.77h2.86V38.79h-2.86v-2.77h18.45v6.48h-2.74zM210.42 37.4v-1.52h2.71v6.73h-2.71v-1.53c-1.15-1.73-2.72-2.59-4.71-2.59-1.22 0-2.15.25-2.8.74-.65.49-.97 1.2-.97 2.12s.31 1.56.92 2.02c.61.46 1.55.85 2.82 1.18l2.61.69c1.66.44 2.93 1.03 3.82 1.75.89.73 1.47 1.5 1.74 2.31s.4 1.72.4 2.72c0 2.01-.63 3.61-1.88 4.79-1.26 1.18-2.94 1.77-5.05 1.77s-3.84-.74-5.49-2.21v1.84h-2.77v-8.08h2.77v1.96c1.33 2.43 3.05 3.65 5.18 3.65 1.25 0 2.21-.32 2.9-.96.69-.64 1.03-1.55 1.03-2.72 0-1.59-1.12-2.69-3.36-3.31l-2.77-.78c-1.99-.57-3.47-1.34-4.42-2.31-.95-.97-1.43-2.25-1.43-3.84 0-1.95.58-3.47 1.73-4.54 1.15-1.07 2.75-1.61 4.78-1.61 1.77 0 3.42.58 4.95 1.75zM240.86 50.49c0 1.5-.36 2.88-1.07 4.12a8 8 0 0 1-2.93 2.96c-1.24.73-2.61 1.09-4.11 1.09s-2.95-.36-4.2-1.09c-1.25-.73-2.22-1.71-2.91-2.96s-1.04-2.62-1.04-4.12.35-2.97 1.04-4.21a7.485 7.485 0 0 1 2.89-2.91c1.24-.7 2.64-1.05 4.21-1.05s2.9.37 4.14 1.11c1.24.74 2.21 1.74 2.92 2.98.71 1.25 1.06 2.61 1.06 4.08zm-8.11 5.21c.9 0 1.73-.24 2.49-.71.76-.47 1.34-1.1 1.77-1.9.42-.8.63-1.66.63-2.61s-.21-1.78-.63-2.58c-.42-.8-1.01-1.44-1.77-1.92-.76-.49-1.6-.73-2.52-.73s-1.73.24-2.49.71c-.76.48-1.35 1.12-1.78 1.92-.43.81-.65 1.67-.65 2.59s.22 1.79.65 2.59 1.03 1.44 1.8 1.91 1.6.71 2.5.71zM253.26 39.13l-2.71.41c-.09-1-.47-1.5-1.15-1.5-.48 0-.8.17-.96.52s-.24.96-.24 1.84v2.34h2.65v2.72h-2.65V55.5h2.92v2.71h-8.23V55.5h2.27V45.46h-2.27v-2.72h2.27v-2.4c0-1.41.35-2.56 1.04-3.45s1.72-1.33 3.07-1.33c1.12 0 2.02.3 2.7.89s1.12 1.48 1.3 2.67zM284.16 47.05c0 2.26-.5 4.27-1.49 6.02-1 1.76-2.37 3.11-4.13 4.07s-3.75 1.44-5.99 1.44-4.17-.5-5.89-1.49c-1.72-1-3.06-2.38-4.01-4.14-.96-1.76-1.44-3.75-1.44-5.96s.49-4.14 1.47-5.86a10.5 10.5 0 0 1 4.04-4.03c1.72-.97 3.67-1.45 5.86-1.45s4.29.5 6.05 1.49c1.76 1 3.12 2.36 4.09 4.09.97 1.73 1.45 3.67 1.45 5.82zm-11.49 8.57c1.52 0 2.88-.4 4.08-1.19 1.2-.8 2.12-1.85 2.78-3.17.65-1.32.98-2.72.98-4.21s-.35-2.93-1.04-4.23a7.937 7.937 0 0 0-2.86-3.08c-1.22-.75-2.59-1.13-4.12-1.13s-2.83.37-3.99 1.1c-1.16.73-2.05 1.74-2.69 3.03-.63 1.29-.95 2.71-.95 4.28 0 1.67.32 3.16.95 4.46.63 1.31 1.54 2.32 2.73 3.05s2.57 1.09 4.14 1.09zM301.89 44.13v-5.35h-4.58v16.65h2.89v2.77h-9.07v-2.77h2.83V38.78h-4.55v5.35h-2.74v-8.11h17.96v8.11h-2.74zM321.83 44.13v-5.35h-4.58v16.65h2.89v2.77h-9.07v-2.77h2.83V38.78h-4.55v5.35h-2.74v-8.11h17.96v8.11h-2.74zM350 47.05c0 2.26-.5 4.27-1.49 6.02-1 1.76-2.37 3.11-4.13 4.07s-3.75 1.44-5.99 1.44-4.17-.5-5.89-1.49c-1.72-1-3.06-2.38-4.01-4.14-.96-1.76-1.44-3.75-1.44-5.96s.49-4.14 1.47-5.86a10.5 10.5 0 0 1 4.04-4.03c1.72-.97 3.67-1.45 5.86-1.45s4.29.5 6.05 1.49c1.76 1 3.12 2.36 4.09 4.09.97 1.73 1.45 3.67 1.45 5.82zm-11.49 8.57c1.52 0 2.88-.4 4.08-1.19 1.2-.8 2.12-1.85 2.78-3.17.65-1.32.98-2.72.98-4.21s-.35-2.93-1.04-4.23a7.937 7.937 0 0 0-2.86-3.08c-1.22-.75-2.59-1.13-4.12-1.13s-2.83.37-3.99 1.1c-1.16.73-2.05 1.74-2.69 3.03-.63 1.29-.95 2.71-.95 4.28 0 1.67.32 3.16.95 4.46.63 1.31 1.54 2.32 2.73 3.05s2.57 1.09 4.14 1.09z"/></g></svg>