<svg xmlns="http://www.w3.org/2000/svg" viewBox="0 0 280 92"><path d="M263.27 12.23c1.43-.91 2.47-2.24 2.94-3.76.48-1.56.3-3.12-.51-4.41-.96-1.52-2.71-2.43-4.68-2.43-1.3 0-2.6.38-3.75 1.11-1.44.91-2.49 2.25-2.95 3.77-.02.06-.03.11-.04.17-1.43.91-2.47 2.24-2.94 3.76-.48 1.56-.3 3.12.51 4.41.2.32.45.62.77.91-2.39 6.12-7.62 20-8.38 26.24-.1.81.21 1.61.83 2.16l2.93 2.6c.46.41 1.05.63 1.65.63 1.14 0 2.1-.73 2.41-1.82.17-.62.37-1.33.59-2.11 1.13 0 2.09-.74 2.39-1.82 1.58-5.63 5.11-18.55 6.54-26.52.83-.84 1.41-1.84 1.7-2.89zm-8.84 29.24a1.87 1.87 0 0 1-1.81 1.37c-.43 0-.87-.15-1.24-.47l-2.93-2.6a1.85 1.85 0 0 1-.62-1.62c.76-6.26 6.05-20.25 8.5-26.5-.37-.3-.72-.64-.98-1.06-1.47-2.33-.47-5.61 2.25-7.32 1.09-.69 2.28-1.02 3.42-1.02 1.7 0 3.27.74 4.16 2.14 1.47 2.33.47 5.61-2.25 7.32-.5.32-1.03.53-1.56.7-.97 7.34-5.15 22.68-6.94 29.06zM279.97 14.38a2.44 2.44 0 0 0-.39-1.73l-1.6-2.42c-.46-.7-1.24-1.13-2.08-1.13-1.07 0-1.99.65-2.36 1.65l-.83 2.29c-.98.08-1.81.7-2.15 1.63l-8.75 24.23a2.5 2.5 0 0 0 .12 1.97c-1.3.97-2.26 2.28-2.72 3.75-1.45.99-2.51 2.39-3 3.98-.53 1.71-.33 3.43.56 4.84 1.05 1.67 2.98 2.67 5.15 2.67 1.43 0 2.86-.42 4.13-1.23 1.57-.99 2.71-2.45 3.24-4.1 1.45-.99 2.51-2.39 3-3.98.53-1.71.33-3.43-.56-4.84-.15-.23-.32-.46-.53-.69.17-.21.3-.45.4-.71 2.82-7.87 7.66-21.73 8.36-26.19zm-8.76 27.92c1.64 2.59.52 6.24-2.5 8.14-1.21.76-2.54 1.13-3.8 1.13-1.89 0-3.64-.82-4.62-2.38-1.64-2.59-.52-6.24 2.5-8.14a7.06 7.06 0 0 1 3.77-1.11c.24 0 .47.01.7.04l-1.76-3.25c-.25-.47-.3-1.03-.12-1.53l8.75-24.23a1.86 1.86 0 0 1 1.77-1.24c.59 0 1.18.27 1.56.84l1.6 2.42c.25.38.36.84.29 1.29-.71 4.5-5.8 19.02-8.33 26.07-.15.41-.4.71-.71.91.34.3.65.63.9 1.03zM54.26 24.6l-6.23-3.67c-.39-.23-.83-.35-1.27-.35-.71 0-1.4.31-1.88.85s-.69 1.23-.61 1.95l.14 1.22c-.21-.06-.43-.09-.64-.09-.55 0-1.09.19-1.52.52.22-1.37-.03-2.71-.74-3.84-1.02-1.62-2.89-2.59-4.99-2.59-1.39 0-2.77.41-4 1.19-1.53.97-2.65 2.4-3.15 4.02v.03c-1.44.96-2.5 2.34-2.97 3.9-.43 1.4-.35 2.81.2 4.03l-2.85-3.18c-.48-.53-1.12-.83-1.8-.83-.72 0-1.41.32-1.9.88-.5.58-.71 1.33-.6 2.12l.15 1.02c-.2-.06-.42-.09-.63-.09-.72 0-1.41.32-1.9.88-.5.58-.71 1.33-.6 2.12l.94 6.47c-.4-.78-1.18-1.32-2.1-1.37.67-2.55-.12-5.15-2.05-6.53-.91-.65-2.01-.99-3.17-.99-2.17 0-4.3 1.16-5.68 3.1a7.77 7.77 0 0 0-1.03 2.03c-.73.5-1.4 1.13-1.95 1.9C.38 40.78-.12 42.52.04 44.22c.16 1.73.97 3.2 2.28 4.14.88.62 1.93.96 3.06.98l8.06 40.57a2.479 2.479 0 0 0 2.46 2.01c.63 0 1.24-.24 1.7-.68l2.53-2.38c.51-.48.79-1.16.78-1.86l2.2-2.07c.24-.23.43-.51.57-.8l.46 3.16c.18 1.22 1.17 2.15 2.36 2.2l2.71.11h.1c.7 0 1.38-.31 1.85-.85.5-.57.73-1.34.63-2.11l-.13-.99.53.02h.1c.7 0 1.38-.31 1.85-.85.5-.57.73-1.34.63-2.11l-6.4-48.28c-.03-.23-.09-.44-.18-.65.57.44 1.23.77 1.97.97v.05c.35 11.61 1.88 39.41 8.55 46.82.46.51 1.13.81 1.84.81.21 0 .41-.02.61-.07l12.55-3.09a2.497 2.497 0 0 0 1.9-2.59l-.07-1.05 1.16-.28a2.497 2.497 0 0 0 1.9-2.59l-3.1-46.18a2.49 2.49 0 0 0-1.22-1.98zm-15.17 5.21v-.02c.92-.61 1.68-1.4 2.23-2.29l.5 4.26c-.23-.4-.56-.74-.98-.96l-1.77-.96s0-.02.01-.03zm-4.94 53c.16 1.19-.73 2.25-1.86 2.25h-.08l-2.71-.11c-.89-.04-1.63-.73-1.77-1.66l-2.37-16.25-4.5.15 2.38 15.66c.09.61-.12 1.22-.57 1.65l-2.53 2.38a1.881 1.881 0 0 1-3.13-1L8.85 44.79c-.14.01-.28.02-.41.02-1 0-1.97-.27-2.8-.87-2.41-1.72-2.74-5.38-.75-8.19 1.31-1.83 3.29-2.84 5.17-2.84 1 0 1.97.28 2.81.88 1.98 1.41 2.53 4.14 1.56 6.63h.76c.91.03 1.68.7 1.82 1.6l2.55 16.75 4.6.19-4.12-28.28c-.19-1.32.82-2.29 1.88-2.29.47 0 .95.19 1.34.62l3.98 4.43c.27.3.44.67.49 1.08l6.4 48.28zm22.39-8.06l-12.55 3.09a1.832 1.832 0 0 1-1.83-.54c-6.67-7.4-8.09-36.61-8.39-46.42 0-.18.01-.35.06-.52-1.39-.26-2.62-.99-3.37-2.18-1.58-2.5-.5-6.02 2.41-7.86a6.88 6.88 0 0 1 3.67-1.09c1.83 0 3.52.8 4.46 2.3 1.58 2.5.5 6.02-2.41 7.86-.28.17-.57.31-.85.44l2.82 1.53c.53.29.9.82.97 1.42l3.55 29.11c.12.97.94 1.65 1.86 1.65.18 0 .37-.03.56-.09l.59-.19c.86-.27 1.41-1.11 1.3-2.01L44.91 23.3c-.14-1.18.81-2.1 1.86-2.1.32 0 .64.08.95.26l6.23 3.67c.53.31.88.87.92 1.49l3.1 46.18c.06.91-.54 1.73-1.42 1.94zM139.92 6.73c-.45 0-.9.13-1.3.37L135 9.31c-.72.44-1.17 1.21-1.19 2.05l-.03.8-1.76 1.07c-.72.44-1.17 1.21-1.19 2.05l-.11 3.17-1.76-4.29a2.49 2.49 0 0 0-2.1-1.54l-.84-.07c1.34-1.94 1.52-4.35.37-6.18-.96-1.52-2.71-2.43-4.68-2.43-1.3 0-2.6.38-3.75 1.11-1.44.91-2.49 2.25-2.95 3.77-.02.06-.03.11-.04.17-1.43.91-2.47 2.24-2.94 3.76-.48 1.56-.3 3.12.51 4.41.55.86 1.34 1.53 2.32 1.95l-.09 38.7c0 .67.25 1.3.72 1.76.47.47 1.12.74 1.79.74.56 0 1.09-.19 1.54-.54l3.17-2.51c.59-.46.93-1.16.95-1.9v-.42l2.03-1.6c.59-.46.93-1.16.95-1.9l.25-11.5 5.57 14.63c.37.98 1.29 1.61 2.34 1.61.71 0 1.36-.29 1.84-.82l1.72-1.89c.39-.42.61-.97.64-1.54.23-.13.43-.29.61-.49l1.72-1.89c.4-.44.63-1.01.65-1.61l1.15-38.63a2.514 2.514 0 0 0-2.5-2.58zm.72 41.2c-.01.45-.19.88-.49 1.21l-1.72 1.89c-.38.42-.88.61-1.38.61-.74 0-1.46-.43-1.76-1.21l-8.41-22.1a.537.537 0 0 0-.52-.36c-.28 0-.56.2-.57.55l-.51 22.92c-.01.56-.27 1.08-.71 1.43l-3.17 2.51c-.36.28-.76.41-1.15.41-.97 0-1.88-.77-1.88-1.88l.09-39.13c-.99-.33-1.85-.95-2.41-1.85-1.47-2.33-.47-5.61 2.25-7.32 1.09-.69 2.28-1.02 3.42-1.02 1.7 0 3.27.74 4.16 2.14 1.23 1.95.71 4.56-1.08 6.36l2.03.18c.7.06 1.31.51 1.57 1.15l4.82 11.75c.07.16.21.24.35.24.19 0 .38-.13.39-.37l.49-14.64c.02-.63.36-1.21.9-1.54l3.62-2.21c.31-.19.65-.28.97-.28 1 0 1.91.81 1.88 1.93l-1.15 38.63zM169.15 22.34c-.1 0-.19.05-.22.17l-1.74 6.25c-.04.15.06.29.22.3l2 .08c.13 0 .24-.11.23-.24l-.26-6.33c0-.15-.12-.22-.24-.22zM86.11 11.78c-.56 0-1.09.26-1.46.7l-.02.02-.02.02-2.3 3.38c-.25.12-.47.28-.65.5l-.02.02-.02.02-5.52 8.13c-.2.26-.34.56-.39.88l-.79 3.02-3.39-4.54-.26-.35c1.16-2.01 1.2-4.31.09-6.08-1.02-1.62-2.89-2.59-4.99-2.59-1.39 0-2.77.41-4 1.19-1.53.97-2.65 2.4-3.15 4.02v.03c-1.44.96-2.49 2.34-2.97 3.9-.51 1.66-.32 3.33.55 4.7.66 1.05 1.67 1.81 2.92 2.23l2.01 43.31c.07 1.03.9 1.8 1.92 1.8.46 0 .91-.17 1.26-.48l4.94-3.67.02-.02.02-.02c.46-.41.69-1.03.62-1.64l-.04-.5 2.36-1.75.02-.02.02-.02c.46-.41.69-1.03.62-1.64l-1.35-15.87 1.24 1.21c.34.33.78.52 1.26.54l3.54.15h.08c.88 0 1.64-.59 1.86-1.44l.64-2.5.4.02h.08c.04 0 .08 0 .12-.01l.43 16.26c.02.68.4 1.3.99 1.63l3.47 1.92c.29.16.61.24.93.24 1.05 0 1.91-.86 1.92-1.91 0-.21.02-1.03.03-2.31l.1.06c.29.16.61.24.93.24 1.05 0 1.91-.86 1.92-1.91.03-1.65.76-40.66-4.22-49.8a1.995 1.995 0 0 0-1.74-1.06zm5.34 50.86c0 .75-.62 1.29-1.29 1.29-.21 0-.42-.05-.62-.16l-3.47-1.92c-.4-.22-.65-.64-.67-1.1l-.52-19.67c0-.28-.23-.44-.45-.44-.19 0-.37.11-.43.34l-1.5 5.87c-.15.57-.66.97-1.25.97h-.05l-3.54-.15c-.32-.01-.62-.14-.85-.36l-5.33-5.17a.4.4 0 0 0-.26-.11c-.21 0-.41.18-.38.42l2.03 23.95c.05.42-.1.83-.41 1.11l-4.96 3.68c-.26.23-.56.34-.86.34-.64 0-1.24-.47-1.3-1.2l-2.03-43.76c-1.23-.31-2.31-1-3-2.09-1.58-2.5-.5-6.02 2.41-7.86a6.88 6.88 0 0 1 3.67-1.09c1.83 0 3.52.8 4.46 2.3 1.1 1.74.89 3.97-.31 5.78 0 0-1.05 1.24-1.91 1.73l2.42-1.04 4.01 5.37c.27.36.65.52 1.03.52.6 0 1.19-.41 1.29-1.11l1.94-7.44c.03-.23.13-.45.28-.64l5.54-8.15c.26-.32.62-.47.98-.47.47 0 .93.26 1.19.74 4.96 9.1 4.15 49.5 4.15 49.5z" fill="#fff"/><path d="M222.21 2.96c-.52-.03-1.03-.05-1.52-.05-6.7 0-9.31 3.09-10.32 5.86-2.93 2.06-3.5 5.26-3.57 6.98-.07 1.78 3.23 6.64 6.56 11-.11 0-.23-.02-.34-.02-1.3 0-2.6.38-3.75 1.11-1.44.91-2.49 2.25-2.95 3.77-.02.06-.03.11-.04.17-1.43.91-2.47 2.24-2.94 3.76-.33 1.08-.34 2.17-.04 3.16-.24-.2-.52-.36-.83-.46-4.43-1.44-14.73-5.62-14.65-13.27.06-5.91 1.79-8.89 3.08-10.29.96.75 2.2 1.18 3.54 1.18s2.6-.38 3.75-1.11c1.54-.97 2.57-2.41 2.99-3.93 2.99-1.89 4.08-5.56 2.43-8.17-.96-1.52-2.71-2.43-4.68-2.43-1.3 0-2.6.38-3.75 1.11a7.16 7.16 0 0 0-2.15 2.09.868.868 0 0 0-.58.08c-2.17 1.11-7.81 4.38-11.05 9.9-1.88 1.98-3.57 4.43-4.54 7.36l.11-6.5c0-.23-.08-.45-.24-.62l-.99-1.05c.37-.54.67-1.13.86-1.75.02-.06.03-.11.04-.17 1.43-.91 2.47-2.24 2.94-3.76.48-1.56.3-3.12-.51-4.41-.96-1.52-2.71-2.43-4.68-2.43-1.3 0-2.6.38-3.75 1.11-1.52.96-2.55 2.4-2.97 3.92-2.75 1.73-3.91 5.03-2.73 7.6l-8.06 29.92 1.04-25.09c0-.19-.05-.39-.16-.54l-.13-.18-.21-.06-1.72-.47c1.24-.95 2.09-2.21 2.46-3.55 2.99-1.89 4.08-5.56 2.43-8.17-.96-1.52-2.71-2.43-4.68-2.43-1.3 0-2.6.38-3.75 1.11-1.54.97-2.57 2.41-2.99 3.94-1.43.91-2.48 2.24-2.94 3.76-.48 1.56-.3 3.12.51 4.41.2.31.44.6.75.9l-1.5 36.12c0 .24.08.47.24.64.16.17.4.27.63.27.15 0 .29-.04.42-.11l6.06-3.33c.27-.15.44-.43.45-.73l.08-1.85 2.26-1.24c.04.11.09.22.18.31l3.46 3.8c.17.18.4.29.65.29.38 0 .72-.24.83-.61l1.24-3.89.26.28c.17.18.4.29.65.29.38 0 .72-.24.83-.61l1.19-3.72-.35 8.43c-.02.48.36.89.84.91l6.61.27h.03c.47 0 .87-.39.87-.86l.06-3.15 2.02.08h.03c.47 0 .87-.39.87-.86l.26-14.99c.81 3.59 2.38 6.81 4.63 9.37 3.89 4.43 9.67 6.88 16.69 7.07h.07c.93 0 1.8-.55 2.22-1.4l.69-1.4c.18-.36.26-.75.25-1.14.86-.07 1.65-.59 2.04-1.38l.69-1.4c.2-.41.29-.87.25-1.32.99 1.23 2.56 1.96 4.31 1.98 2.29 2.41 5.85 5.19 10.1 5.19.33 0 .66-.02.98-.05 6.32-.64 9.89-2.68 11.23-6.47 2.15-1.51 3.3-3.67 3.55-6.6.46-5.29-4.7-11.34-8.46-15.55.37.2.78.32 1.22.32.1 0 .2 0 .3-.02l3.79-.45c.9-.11 1.65-.67 2-1.5.32-.76.25-1.6-.17-2.29l1.15-.14c.9-.11 1.65-.67 2-1.5.36-.84.24-1.77-.31-2.5-2.07-2.74-6.6-7.4-13.67-7.86zm-72.26 45.73s-.08.03-.12.03c-.13 0-.26-.11-.25-.26l1.51-36.41a4.65 4.65 0 0 1-.86-.96c-1.47-2.33-.47-5.61 2.25-7.32 1.09-.69 2.28-1.02 3.42-1.02 1.7 0 3.27.74 4.16 2.14 1.47 2.33.47 5.61-2.25 7.32-1.08.68-2.26 1-3.38 1-.56 0-1.1-.08-1.61-.23l1.17 3.48 3.26.89s.05.1.05.16l-1.15 27.64c0 .09-.05.17-.13.21l-6.06 3.33zm25.82-1.72c0 .14-.11.25-.25.25h-.01l-6.61-.27c-.14 0-.24-.12-.24-.26l.44-10.71c0-.14-.1-.25-.24-.26l-1.84-.08h-.01c-.11 0-.2.07-.24.17l-3.15 9.87c-.04.11-.14.17-.24.17a.25.25 0 0 1-.18-.08l-3.47-3.8c-.06-.06-.08-.15-.06-.23l8.89-33.02c-1.21-2.3-.2-5.37 2.39-7.01 1.09-.68 2.28-1.01 3.42-1.01 1.7 0 3.27.74 4.16 2.14 1.47 2.33.47 5.61-2.25 7.32-.89.56-1.86.87-2.81.96l2.8 2.95s.07.11.07.18l-.57 32.72zm19.74-45.13c1.09-.69 2.28-1.02 3.42-1.02 1.7 0 3.27.74 4.16 2.14 1.47 2.33.47 5.61-2.25 7.32-1.09.69-2.28 1.02-3.42 1.02-1.7 0-3.27-.74-4.16-2.14-1.47-2.33-.47-5.61 2.25-7.32zm7.87 39.59l-.69 1.4c-.31.63-.96 1.05-1.66 1.05h-.05c-14.55-.4-21.63-10.47-21.35-22.28.24-10.21 10.01-15.99 13.09-17.56.05-.02.09-.03.13-.03.21 0 .38.23.25.44-2.24 3.72-2.1 5.97-1.61 7.18.3.74.02 1.58-.58 2.12-1.5 1.36-3.67 4.48-3.73 11.2-.08 8.06 10.49 12.37 15.09 13.87 1.09.35 1.61 1.58 1.1 2.61zm15-8.53c.5.58.93 1.05 1.24 1.36.13.13.24.26.35.4-.6-.1-1.25-.27-1.96-.52.17-.41.3-.83.38-1.24zm6.4-15.28c-.52-.59-1.16-1.33-1.78-2.11.82.65 1.4 1.45 1.78 2.11zm9.34-3.43l-3.79.45c-.08 0-.15.01-.23.01-.68 0-1.32-.36-1.64-.97-.79-1.48-2.58-3.92-5.86-3.92h-.21c-4.88.15-1.49 4.46 2.49 8.9s9.32 10.5 8.86 15.71c-.45 5.21-3.77 7.81-11.24 8.57-.31.03-.62.05-.92.05-4.18 0-7.69-2.87-9.84-5.19h-.22c-1.7 0-3.27-.74-4.16-2.14-1.47-2.33-.47-5.61 2.25-7.32 1.09-.69 2.28-1.02 3.42-1.02 1.7 0 3.27.74 4.16 2.14.95 1.5.86 3.38-.04 5 1.58.64 2.88.91 3.92.91 3.68 0 4.06-3.38 1.98-5.5-2.8-2.85-12.75-15.28-12.63-18.05.11-2.64 1.42-8.32 10.28-8.32.47 0 .96.02 1.48.05 6.7.43 11.03 4.72 13.22 7.61.88 1.16.17 2.83-1.27 3zM112.06 23.92l-5.4-3.75s.03-.09.05-.13c.02-.06.03-.11.04-.17 1.43-.91 2.47-2.24 2.94-3.76.48-1.56.3-3.12-.51-4.41-.96-1.52-2.71-2.43-4.68-2.43-1.3 0-2.6.38-3.75 1.11-1.54.97-2.57 2.41-2.99 3.94-1.43.91-2.48 2.24-2.94 3.76-.48 1.56-.3 3.12.51 4.41.4.64.96 1.17 1.65 1.59l-3.27 34.46a.9.9 0 0 0 .23.68l4.21 4.55c.16.18.4.28.64.28.4 0 .74-.27.85-.65l1.07-4.01.42.46c.16.18.4.28.64.28.4 0 .74-.27.85-.65l.23-.86.97 5.21c.08.4.41.7.82.71l6.01.25h.03c.24 0 .47-.1.64-.27.16-.17.25-.41.24-.65l-.18-3.09 2.26.09h.03c.24 0 .47-.1.64-.27.16-.17.25-.41.24-.65l-2.1-35.34a.898.898 0 0 0-.37-.67zm1.6 36.3h-.01l-6.01-.25c-.12 0-.21-.09-.24-.2l-2.07-11.09a.254.254 0 0 0-.25-.2c-.1 0-.21.06-.24.19L102 59.31c-.03.12-.14.19-.24.19a.25.25 0 0 1-.18-.08l-4.21-4.55a.264.264 0 0 1-.07-.19l3.31-34.87c-.72-.36-1.34-.87-1.78-1.57-1.47-2.33-.47-5.61 2.25-7.32a6.495 6.495 0 0 1 3.42-1.02c1.7 0 3.27.74 4.16 2.14 1.47 2.33.47 5.61-2.25 7.32-.38.24-.78.43-1.18.58l6.48 4.5c.06.04.1.11.11.19l2.1 35.34c0 .14-.11.26-.25.26z" fill="#fff"/><path d="M104.94 32.17a.573.573 0 0 0-.58-.46.58.58 0 0 0-.59.5l-1.02 6.7c-.05.36.23.68.59.68h.03l2.53-.13a.59.59 0 0 0 .55-.72l-1.5-6.57z" fill="#fff"/></svg>