<svg xmlns="http://www.w3.org/2000/svg" viewBox="0 0 230 153"><path d="M37.41 6.02c-1.34 1.24-5.93 5.6-8.72 9.69.05.43.1.86.12 1.29.26 4.52-1.16 8.52-4.11 11.56-.58.6-1.19 1.15-1.81 1.66l5.51 4.71c.87-2.25 3.56-8.86 6.26-11.17.12-.1.28-.15.43-.13.16.02.3.1.39.23.14.19 3.26 4.64 5.23 11.51l8.15-8.97c-.85-2.19-6.02-15.04-11.45-20.38z" fill="#fff"/><path d="M65.28 23.13c-1.33-.22-4.54.21-6.68.61-.16.46-.08 1.29.06 1.96.49-.01 1.29-.03 1.89.02.48.03.89.32 1.13.78.38.73.3 1.81-.19 2.64-.47.78-1.68 1.31-2.9 1.26-.83-.03-2.36-.38-3.3-2.3-1.45-2.96-1.41-7.48 1.49-10.03 2.11-1.85 4.69-1.09 6.03-.27 3.15-2.65 3.58-7.62 3.64-8.58-.18-.26-.72-.92-1.79-1.58-1.28-.79-3.6-1.75-7.4-1.82h-.15c-6.53 0-11.26 7.85-12.12 9.4 2.88 5.47 4.88 10.74 5.02 11.11.07.2.03.42-.11.57l-3.06 3.36c2.74 3.98 7.05 4.98 9.42 5.21 3.73.37 6.85-.66 8-1.86 1.06-1.1 1.56-3.3 1.45-6.36-.06-1.82-.33-3.44-.45-4.13z" fill="#fff"/><path d="M84.3 27.25c-.06-1.82-.33-3.44-.45-4.13-1.33-.22-4.54.21-6.68.61-.16.46-.08 1.29.06 1.96.49-.01 1.29-.03 1.89.02.48.03.89.32 1.13.78.38.73.3 1.81-.19 2.64-.47.78-1.69 1.31-2.9 1.26-.83-.03-2.36-.38-3.3-2.3-1.45-2.96-1.41-7.48 1.49-10.03 2.11-1.85 4.69-1.09 6.03-.27 3.15-2.65 3.58-7.62 3.64-8.58-.18-.26-.72-.92-1.79-1.58-1.28-.79-3.6-1.75-7.4-1.82-2.8-.04-5.6 1.33-8.31 4.09-.18 1.88-.97 6.51-4.34 9.04-.2.15-.47.15-.67 0l-.06-.04c-.12.74-.23 1.96.03 3.15 1.39-.13 2.74-.16 3.46.09.18.06.32.22.36.41.06.27 1.1 5.29.18 9.02 2.3 2.45 5.78 3.9 9.61 3.97 2.88.06 5.6-.72 6.75-1.93 1.06-1.1 1.56-3.3 1.45-6.36zM27.69 17.06c-.23-3.99-2.27-9.68-5.58-12.37C19.84 2.85 13.32-1.2 1.42.66 1.08 2.22-.17 8.72.02 17.19c.2 8.49 1.25 15.65 1.52 17.4 2.38.24 14.71 1.05 22.34-6.81 3.45-3.55 3.97-7.79 3.8-10.72zM10.36 30.63s-.1.02-.15.02c-.12 0-.24-.04-.33-.11a.526.526 0 0 1-.22-.43l-.29-11c0-.17.07-.34.21-.45a.55.55 0 0 1 .48-.11c.04 0 1 .25 1.94 1.13.85.8 1.86 2.3 1.84 4.92-.04 5.05-3.34 5.99-3.48 6.03zM32.64 30.54c-.03 1.61.77 3.37 1.15 4.12l3.4-.87c.25-1.23-.18-3.18-.5-4.26l-4.05 1.01z" fill="#fff"/><path d="M91.46 25.42a.553.553 0 0 1-.52-.53c-.01-.2-.25-4.85-.25-6.85s.78-3.06 2.39-3.06c.9 0 4.62.16 6.08.22V7.16c-2.92-.69-11.06-.24-14.63 0 1.09.83 1.52 1.56 1.55 1.63.05.09.07.18.07.28 0 .27-.18 6.47-4.18 9.68v3.22c1.04-.06 1.98-.03 2.53.16.18.06.32.22.36.41.07.33 1.62 7.83-.79 11.29 2.14.81 9.98.56 15.65.07l-.53-8.95c-1.07.35-3.29.73-7.75.45zM202.89 5.54c-1.18.01-4.52.05-8.72 0-3.54-.04-6.89.45-8.66.77.2 1.13.74 4.48.8 8.44l2.56-.05c.15 0 .29.05.4.16.11.1.17.25.17.39l.18 17.58c2.11.71 6.94.23 9.22-.1l-.12-17.35c0-.28.2-.52.48-.56l3.69-.5c.89-3.74.26-7.53 0-8.78zM178.98 6.61c.13 1.81.32 6.78-1.23 8.51-.38.43-.86.66-1.39.67-.53.01-1.01-.2-1.4-.62-1.57-1.68-1.4-6.73-1.29-8.52l-10.26-.52v4.12c1.84 2.63 2.93 5.88 2.93 9.39 0 2.92-.76 5.66-2.07 8.01.64 1.01 3.24 4.72 7.23 5.64 2.56.59 5.25-.08 7.98-1.97 7.91-5.49 5.44-21.83 4.93-24.75l-5.45.05z" fill="#fff"/><path d="M225.37 20.14c-.5-6.1-.16-12.96-.04-15h-8.89l-.24 7.15c0 .18-.1.34-.25.44-3.25 2.2-3.85 1.92-4.08 1.82a.698.698 0 0 1-.4-.56c-.08-.65-.03-6.77 0-8.83l-7.44.33c.31 1.54.9 5.51-.15 9.46-.06.22-.24.38-.46.41l-1.18.16c-.05 7.25 1.47 14.58 1.87 16.38l8.33.19-.28-9.91c0-.22.11-.42.31-.51l2.76-1.4c.17-.09.38-.08.55.02.17.1.27.29.26.48-.04 3 .79 9.51 1.04 11.34h9.43c-.17-1.61-.65-6.2-1.12-11.98zM94.29 22.67l4.96-2.75c-.43-1.18-1.04-2.4-1.46-2.82l-4.88 2.34 1.38 3.23zM133.84 3.93l-2.56 3.01c-.12.14-.29.21-.47.19a.574.574 0 0 1-.43-.27l-1.6-2.75-9.28 11.99c.65 5.14-.82 7.95-1.54 8.97 2.11 2.08 2.81 5.29 2.84 5.43.04.21-.04.43-.21.56l-1.11.83 2.08 2.1 4.26-8.08c.09-.18.28-.29.48-.3.2 0 .39.1.49.27l3.64 6.14 5.03-5.81c.12-.14.29-.21.47-.19.18.02.34.12.43.27l4.22 7.14c2.81-1.77 6.47-6.73 7.26-7.82-3.02-10.49-11.95-19.68-14-21.68z" fill="#fff"/><path d="M116.83 25.56a.575.575 0 0 1-.2-.4c0-.16.05-.31.16-.42.02-.02 2.39-2.57 1.57-8.64-.33-2.44-1.85-4.74-4.3-6.48-3.63-2.57-8.6-3.55-13.79-2.73v8.88c0 .15-.06.3-.17.4-.11.11-.26.16-.41.15l-1.15-.05c.93.9 1.69 3 1.92 3.71.08.25-.02.53-.26.66l-1.87 1.04v2.38c.47-.1.83-.23 1.03-.39.16-.13.38-.16.57-.07s.32.27.33.48l.58 9.77h7.02v-2.89c0-.25.17-.47.41-.54.24-.07.5.04.63.25l3.2 5.35 7.51-5.63c-.25-.9-1.06-3.38-2.78-4.84zm-5.02-.33c-.12 1.79-2.23 2.26-3.53 2.26h-.09c-.3 0-.55-.25-.55-.56v-3.48c0-.26.18-.48.42-.54.2-.05 2-.46 3.05.43.36.3.76.87.69 1.89zM151.33 4.91c-4.1 0-7.94 1.89-10.59 5.19 3.16 4.12 6.61 9.6 8.24 15.47.04.16.02.33-.08.47-.14.2-2.46 3.49-5.01 6.05 2.22 1.49 4.78 2.28 7.44 2.28 7.67 0 13.91-6.61 13.91-14.73S159 4.91 151.33 4.91zm3.97 23.32c-1.95 0-3.54-1.59-3.54-3.54s1.59-3.54 3.54-3.54 3.54 1.59 3.54 3.54-1.59 3.54-3.54 3.54zM100.76 68.78c-.05-2.29-1.17-2.56-2.72-1.28-1.28 1.06-5.82 8.91-6.94 11.1s-4.96 9.93-4.64 10.94c.32 1.01 3.68-.05 4.22-1.01.53-.96 1.44-5.6 3.95-5.55 2.51.05.43 3.9.05 4.96-.37 1.07-.11 1.6 1.6 1.07s4.06-.64 4.16-3.31.37-14.62.32-16.92zm-3.14 10.94l-3.91.09 3.91-6.49v6.4zM109.09 71.29l-.91-3.15s1.81-.69 3.26-1.07 2.19.59 2.61 2.93 1.44 6.78 1.44 6.78 3.09-8.54 4.38-9.12 3.42-.11 3.42-.11-3.42 7.1-4.32 11.37-.94 7.82-1.67 8.68-4.58 1.99-5.44 1.42-1.04-9.76-1.04-9.76-2.98 6.56-3.5 7.99-.43 1.68-1.42 1.92-2.85.32-2.85.32 3.06-13.45 6.04-18.21zM139.7 68.99c-2.07-1.42-12.39-2.5-13.3-.95-.91 1.55 1.77 4.49 1.77 4.49S122 89.5 124.41 89.5c5.53 0 12.04-5.48 14.81-9.63 2.76-4.14 2.55-9.45.47-10.88zm-2.68 6.35c-.38 4.69-7.6 9.67-8.12 8.25-.52-1.42 3.45-11.22 3.45-11.22l-.82-1.64c3.37-.43 5.87-.17 5.48 4.62zM43.72 136.42c-.46-7.34-7.28-10.29-7.34-10.32a.405.405 0 0 1-.23-.25.375.375 0 0 1 .04-.34c.11-.2 2.73-4.85-2.21-8.89-4.95-4.05-14.14-1.19-18.85 3.97 0 2.03.05 22.54.85 26.07.11.24.94 1.89 2.97 3.4 3.67 2.73 8.38 2.96 11.7 2.66 5.18-.46 8.89-2.53 11.04-6.15 2.01-3.39 2.22-7.39 2.05-10.15zm-16.75-11.5v-3.94c0-.18.12-.34.29-.4.05-.02 1.3-.4 2.19.22.5.35.78.92.83 1.69.06.95-.19 1.69-.72 2.19-.62.58-1.46.67-1.91.67-.18 0-.29-.01-.31-.02a.422.422 0 0 1-.37-.42zm4.54 13.52c-.71.54-1.59.68-2.31.68s-1.34-.16-1.39-.17a.426.426 0 0 1-.31-.4v-9.02c0-.14.07-.27.18-.34.71-.49 1.54-.54 2.32-.12 1.64.86 2.74 3.41 2.74 6.35 0 1.38-.42 2.4-1.24 3.03zM96.2 123.11l-2.82 3.13a.41.41 0 0 1-.31.14c-.11 0-.23-.05-.31-.13l-2.29-2.4-7.31 8.83c.54 1.58.83 3.29.83 5.07 0 3.72-1.28 7.13-3.39 9.75 1.03 1.45 2.88 2.74 3.66 3.24l3.77-6.57c.07-.13.21-.21.35-.21.15 0 .28.07.36.19 1.51 2.29 3.44 4.86 4.02 5.16.62-.36 2.92-3.34 4.77-5.99.09-.12.23-.19.38-.18.15.01.28.11.34.24l3.57 7.73c2.63-1.91 6.64-7.05 7.41-8.05-1.5-4.68-11.18-17.52-13.04-19.95z" fill="#fff"/><path d="M50.48 124.12c-3.57 0-7 1.57-9.48 4.32 1.71 1.77 3.33 4.37 3.55 7.93.18 2.88-.02 8.12-3.16 12.07 2.46 2.52 5.67 3.91 9.09 3.91 7.26 0 13.17-6.33 13.17-14.12s-5.91-14.12-13.17-14.12zm3.93 21.99c-1.84 0-3.34-1.5-3.34-3.34s1.5-3.34 3.34-3.34 3.34 1.5 3.34 3.34-1.5 3.34-3.34 3.34z" fill="#fff"/><path d="M70 123.64c-3.54 0-6.94 1.55-9.41 4.26 2.41 2.69 3.9 6.33 3.9 10.34 0 3.77-1.31 7.21-3.47 9.84 2.45 2.46 5.62 3.8 8.99 3.8 7.26 0 13.17-6.33 13.17-14.12s-5.91-14.12-13.17-14.12zm3.93 22c-1.84 0-3.34-1.5-3.34-3.34s1.5-3.34 3.34-3.34 3.34 1.5 3.34 3.34-1.5 3.34-3.34 3.34zM150.51 135.03c-.46-7.34-7.28-10.29-7.34-10.32a.405.405 0 0 1-.23-.25.375.375 0 0 1 .04-.34c.11-.2 2.73-4.85-2.21-8.89-4.95-4.05-14.14-1.19-18.85 3.97 0 2.03.05 22.54.85 26.07.11.24.94 1.89 2.97 3.4 3.67 2.73 8.38 2.96 11.7 2.66 5.18-.46 8.89-2.53 11.04-6.15 2.01-3.39 2.22-7.39 2.05-10.15zm-16.75-11.5v-3.94c0-.18.12-.34.29-.4.05-.02 1.3-.4 2.19.22.5.35.78.92.83 1.69.06.95-.19 1.69-.73 2.19-.62.58-1.46.67-1.91.67-.18 0-.29-.01-.31-.02a.422.422 0 0 1-.37-.42zm4.54 13.52c-.71.54-1.59.68-2.31.68s-1.34-.16-1.39-.17a.426.426 0 0 1-.31-.4v-9.02c0-.14.07-.27.18-.34.71-.49 1.54-.54 2.32-.12 1.64.86 2.74 3.41 2.74 6.35 0 1.38-.42 2.4-1.24 3.03zM205.65 121.72l-2.82 3.13a.41.41 0 0 1-.31.14c-.11 0-.23-.05-.31-.13l-2.29-2.4-7.87 9.52c.43 1.39.66 2.86.66 4.39 0 3.48-1.19 6.68-3.19 9.22 1.11 1.51 3.32 3.13 4.19 3.74l3.76-6.55c.07-.13.21-.21.35-.21.15 0 .28.07.36.19 1.51 2.29 3.44 4.86 4.02 5.16.62-.36 2.92-3.34 4.77-5.99.09-.12.23-.19.38-.18.15.01.28.11.34.24l3.57 7.73c2.63-1.91 6.64-7.05 7.41-8.05-1.5-4.68-11.18-17.52-13.04-19.95z" fill="#fff"/><path d="M157.27 122.73c-3.57 0-7 1.57-9.48 4.32 1.71 1.77 3.33 4.37 3.55 7.93.18 2.88-.02 8.12-3.16 12.07 2.46 2.52 5.67 3.91 9.09 3.91 7.26 0 13.17-6.33 13.17-14.12s-5.91-14.12-13.17-14.12zm3.93 21.99c-1.84 0-3.34-1.5-3.34-3.34s1.5-3.34 3.34-3.34 3.34 1.5 3.34 3.34-1.5 3.34-3.34 3.34z" fill="#fff"/><path d="M177.79 122.25c-3.87 0-7.59 1.62-10.25 4.44 2.32 2.67 3.73 6.24 3.73 10.15 0 3.67-1.25 7.03-3.31 9.64 2.64 2.58 6.12 4.01 9.82 4.01 7.77 0 14.08-6.33 14.08-14.12s-6.32-14.12-14.08-14.12zm4.2 22c-1.95 0-3.54-1.5-3.54-3.34s1.59-3.34 3.54-3.34 3.54 1.5 3.54 3.34-1.59 3.34-3.54 3.34z" fill="#fff"/><path fill="none" stroke="#fff" stroke-linecap="round" stroke-linejoin="round" d="M163.1 69.96l4.28 1.93M167.38 74.46s-2.75.45-3.64 1.97M175.96 63.43s.65-1.79-2.05-5.12-6.9-4.14-8.36-9.18c0 0-1.63 6.82-.32 14.04 1.03 5.66 3.59 6.78 3.59 6.78"/><path d="M192.67 106.52c-.54-1.23-.08-4.61-.08-4.61 9.97-3.04 17.61-6.93 18.39-16.83s-7.06-9.64-7.06-9.64c0-2.64-1.78-4.17-1.78-4.17s3.17-3.04 3.67-8.46-2.66-10.58-4.39-13.29-1.56.04-4.77 4.18-3.46 9.26-3.46 9.26c-1.27-2.1-4.1-1.36-4.1-1.36s-1.73-3.97-5.41-3.63-6.17 5.46-6.17 5.46c-5.49-.04-5.58 4.55-5.58 4.55M169.92 56.99c.08.11 3.57 2.88 4.5 7.09M169.92 61.11s2.66 1.5 3.8 3.41M169.92 65.1s1.55.52 2.41 1.23M170.65 82.03s4.52-.19 5.64-2.58M187.86 78.77s1.17 1.61 3.21 2.44" fill="none" stroke="#fff" stroke-linecap="round" stroke-linejoin="round"/><rect x="176.03" y="84.27" width="5.66" height="3.89" rx="1.95" ry="1.95" fill="#fff" stroke="#fff" stroke-linecap="round" stroke-linejoin="round"/><path d="M172.99 67.69c-3.14 0-5.69 2.55-5.69 5.69s2.55 5.69 5.69 5.69 5.69-2.55 5.69-5.69-2.55-5.69-5.69-5.69zm-1.06 7.06c-.46 0-.84-.38-.84-.84s.38-.84.84-.84.84.38.84.84-.38.84-.84.84zM190.74 69.66c-2.35 0-4.26 1.91-4.26 4.26s1.91 4.26 4.26 4.26 4.26-1.91 4.26-4.26-1.91-4.26-4.26-4.26zm-.54 5.63c-.46 0-.84-.38-.84-.84s.38-.84.84-.84.84.38.84.84-.38.84-.84.84z" fill="#fff"/><path d="M204.11 105.53s-8.69-2.06-11.69-1.44M199.54 104.75s.54 2.63-1.52 2.55-5.19-.78-5.19-.78l-2.06 2.06M185.18 108.83s-1.89-1.56-1.52-2.76.85-1.93-.05-2.55-6.98.37-10.14-1.48-3.56-5.89-3.56-5.89M177.31 108.13s4.07-2.28 6.62-2.91M180.11 109.03s1.6-1.55 3.83-1.62M197.21 52.94s.39 1.71-.79 5.35c-1.73 5.33 2.17 9.2 2.17 9.2M200.57 60.53s-2.62 1.9-3.74 4.29M202.25 64.14s-2.98.32-4.2 2.73M200.71 45.34s-1.4 2.09-1.43 4.21M202.67 46.42s-1.55.89-1.66 2.53M189.38 55.93s-2.6.99-3.7 3.51M183.44 50.1l.34 9.14M178 56.37s2.82.66 3.81 3.43M203.71 88.16l1.51 1.1s-4.17 7.04-14.44 7.74c-11.37.78-11.71-4.04-11.71-4.04s-.52 2.96-7.13 3.19-11.19-1.04-12.01-6.4 4.6-11.87 8.31-13.85M149.98 84.27s7.4-.66 11.3 2.85M149.45 93.26s7.65-4.92 11.84-4.04M152.32 103.97s4.34-9.74 9.89-11.6" fill="none" stroke="#fff" stroke-linecap="round" stroke-linejoin="round"/><path fill="#fff" stroke="#fff" stroke-linecap="round" stroke-linejoin="round" d="M165.56 95.66l1.37 3.54 2.39-3.05M192.95 96.75l2.24 2.84 1.42-3.8"/><circle cx="200.79" cy="97.13" r=".31" fill="none" stroke="#fff" stroke-linecap="round" stroke-linejoin="round"/><ellipse cx="203.08" cy="95.03" rx=".57" ry=".31" fill="none" stroke="#fff" stroke-linecap="round" stroke-linejoin="round"/><circle cx="205.87" cy="93.04" r=".31" fill="none" stroke="#fff" stroke-linecap="round" stroke-linejoin="round"/><path d="M203.36 72.98s1.61-.43 3.79 1.47M210.58 71.19s-2.72-1.99-7.65 1.04M207.8 82.87s8.04-6.56 17.5-8.95M209.08 85.65s5.86-.39 10.01-2.35 4.66-4.11 8.56-.94M208.39 87.87s6.5.04 9.97 3.25 7.27 4.96 8.21 5.97 3.21 2.8 3.42 3.79" fill="none" stroke="#fff" stroke-linecap="round" stroke-linejoin="round"/><path d="M32.24 64.8c-3.59 0-6.5 2.92-6.5 6.5s2.92 6.5 6.5 6.5 6.5-2.92 6.5-6.5-2.92-6.5-6.5-6.5zM33 73c-.5 0-.91-.41-.91-.91s.41-.91.91-.91.91.41.91.91-.41.91-.91.91zM51.46 65.65c-2.07 0-3.75 2.24-3.75 5s1.68 5 3.75 5 3.75-2.24 3.75-5-1.68-5-3.75-5zm1 6.31c-.5 0-.91-.41-.91-.91s.41-.91.91-.91.91.41.91.91-.41.91-.91.91z" fill="#fff"/><circle cx="23.3" cy="44.88" r="1.48" fill="none" stroke="#fff" stroke-linecap="round" stroke-linejoin="round"/><circle cx="31.6" cy="42.04" r="1.16" fill="none" stroke="#fff" stroke-linecap="round" stroke-linejoin="round"/><circle cx="40.49" cy="44.16" r="1.26" fill="none" stroke="#fff" stroke-linecap="round" stroke-linejoin="round"/><path fill="none" stroke="#fff" stroke-linecap="round" stroke-linejoin="round" d="M29.36 50.32l1.08 1.79M30.84 53.82s5.17.22 6.2-.22"/><path d="M24.02 46.36s2.87 1.44 2.87 2.87.18 2.38.67 2.61v3.23s6.02 1.98 12.22 0c0 0 .31-1.57-.27-2.69s-.22-2.61.09-3.64.97-3.33.97-3.33" fill="none" stroke="#fff" stroke-linecap="round" stroke-linejoin="round"/><path d="M39.24 44.24s-2.69 2.57-3.18 3.92l-3.5-5.26M30.84 43.2s.4 2.85-.67 4.06l-5.39-1.84M31.9 80.37s4.59-.88 4.7-4.65M49.27 76.24s1.7 1.36 4.24.68M33.37 60.63s2.43-.85 4.53 1.13M19.62 65.61s-1.64 3.34 1.7 2.15M17.53 71.05s-1.54 3.56 1.69 1.97M18.19 75.9s-1.17 2.76 2.56 1.21M14.36 76.74s-2.38 3.18 1.13 3.29" fill="none" stroke="#fff" stroke-linecap="round" stroke-linejoin="round"/><path d="M27.57 54.52s-2.04 1.19-2.78 2.94-.97 2.15-3.46 3.39-11.09 10.24-10.81 24.67c.28 14.43.57 15.45.57 15.45l-6.34 6.05M15.77 89.94s.85 3.85 3.11 1.07M18.89 103.46s.57 3.73 3.22.51M13.34 96.1s-.28 5.66 3.17 1.19M7.23 110.19l2.72-3.45M10.74 112.23l1.53-1.64M39.78 55.08s2.72 1.76 3.68 3.85 3.99 2.01 5.24 3.44 2.18 3.58 2.18 3.58M54.48 73.32s1.64-.38 4.32 2.04 3.86 2.49 5.13 4.45 2.77 3.87 2.77 3.87" fill="none" stroke="#fff" stroke-linecap="round" stroke-linejoin="round"/><path fill="#fff" stroke="#fff" stroke-linecap="round" stroke-linejoin="round" d="M64.29 90.64l3.63 2.95v-4.51"/><path d="M23.5 86.27s3.36.5 4.07-2.09M27.25 84.91s13.39 6.35 24.59 5.47 13.49-4.51 14.17-5.6 1.82-1.86 3.18-.82 1.32 3.45-2.09 5.36c-3.41 1.91-12.08 4.95-20.21 4.27s-19.82-5.35-21.04-7.56c0 0 1.15 9.48 11.95 15.25s20.82.04 22.59-1.07 2.97 1.48 1.32 3.05-7.82 5.65-17.67 2.76c-9.85-2.89-13.2-6.06-16.48-12.16s-2.74-7.59-2.74-7.59" fill="none" stroke="#fff" stroke-linecap="round" stroke-linejoin="round"/><path fill="#fff" stroke="#fff" stroke-linecap="round" stroke-linejoin="round" d="M58.36 92.53l2.98 4.96 1.73-6.39M50.71 93.69l4.08 4.62L56.17 93M42.26 93l1.93 4.49 1.64-4.01M33.4 90.24l1.03 4.06 2.17-2.97"/><path d="M30.8 95.66s4.95-.76 6.15 5.15" fill="none" stroke="#fff" stroke-linecap="round" stroke-linejoin="round"/><path fill="#fff" stroke="#fff" stroke-linecap="round" stroke-linejoin="round" d="M37.95 101.36l1.96-2.39.87 3.63M46.05 103.74l1.69-3.69 2.1 3.67M55.52 102.49l1.82-5.33 2.46 3.41"/><path fill="none" stroke="#fff" stroke-linecap="round" stroke-linejoin="round" d="M60.92 103.92l3.37 5.68"/></svg>