<svg xmlns="http://www.w3.org/2000/svg" width="300" height="54" viewBox="0 0 300 54"><path d="M19.7,27.34H19a7.21,7.21,0,0,0,6.8-7.17V8.5A8.53,8.53,0,0,0,17.34,0H0V8.09c0,.19,0,.38,0,.56V18.71c0,.19,0,.37,0,.56V53.8H11.21V31.6h1.51a1.89,1.89,0,0,1,1.89,1.89V53.8H25.84v-8c0-.13,0-.27,0-.4V33.5A6.18,6.18,0,0,0,19.7,27.34ZM15,22a1.9,1.9,0,0,1-1.89,1.9h-1.9V7.6h1.9A1.9,1.9,0,0,1,15,9.5Z" fill="#fff"/><path d="M233,25.59a11.15,11.15,0,0,0,5.12-9.35V8.5A8.53,8.53,0,0,0,229.57,0H212.26V8.09c0,.19,0,.38,0,.56V18.71c0,.19,0,.37,0,.56V53.8h17.15a8.71,8.71,0,0,0,8.69-8.69V32.6A7.37,7.37,0,0,0,233,25.59Zm-6.11,18.53A1.91,1.91,0,0,1,225,46h-1.5V28.87H225a1.9,1.9,0,0,1,1.9,1.89Zm.39-25a1.9,1.9,0,0,1-1.9,1.89h-1.89V7.6h1.89a1.9,1.9,0,0,1,1.9,1.9Z" fill="#fff"/><polygon points="52.74 7.6 52.74 0 35.08 0 35.08 53.8 52.74 53.8 52.74 46.2 46.27 46.2 46.27 27.82 52.74 27.82 52.74 20.81 46.27 20.81 46.27 7.6 52.74 7.6" fill="#fff"/><polygon points="184.41 7.6 184.41 0 166.75 0 166.75 53.8 184.41 53.8 184.41 46.2 177.94 46.2 177.94 27.82 184.41 27.82 184.41 20.81 177.94 20.81 177.94 7.6 184.41 7.6" fill="#fff"/><path d="M75.85,34.45V44.9a1.78,1.78,0,0,1-1.78,1.78h0a1.78,1.78,0,0,1-1.78-1.78V31.82H61.75V46.48a7.34,7.34,0,0,0,7.32,7.32H79.34a7.34,7.34,0,0,0,7.32-7.32v-15a6.56,6.56,0,0,0-3.32-6.08c-1.91-1-6.46-3.36-8.78-4.61s-2.27-1.95-2.27-4.22V8.94a1.78,1.78,0,0,1,1.78-1.78h0a1.78,1.78,0,0,1,1.78,1.78v9.79H86.66V7.32A7.34,7.34,0,0,0,79.34,0H69.07a7.34,7.34,0,0,0-7.32,7.32V17.84c0,3.3-.34,5.84,3.62,7.75,4.12,2,6.52,3.1,8.23,3.87C75.61,30.35,75.85,30.47,75.85,34.45Z" fill="#fff"/><path d="M110.38,31.71V45.36a1.72,1.72,0,0,1-1.71,1.71h0A1.72,1.72,0,0,1,107,45.36v-36a1.72,1.72,0,0,1,1.71-1.71h0a1.72,1.72,0,0,1,1.71,1.71v9.42h10.94V7.66A7.69,7.69,0,0,0,113.66,0h-9.89a7.68,7.68,0,0,0-7.66,7.66V46.14a7.68,7.68,0,0,0,7.66,7.66h9.89a7.69,7.69,0,0,0,7.66-7.66V31.82Z" fill="#fff"/><path d="M145.15,0V45a1.81,1.81,0,0,1-1.81,1.81h0A1.82,1.82,0,0,1,141.52,45V0H130.64V46.8a7,7,0,0,0,7,7h11a7,7,0,0,0,7-7V0Z" fill="#fff"/><path d="M260.57,53.8H270.9L264.8,0H250.63l-6.22,53.8h9.32l1.05-11.52h4.92ZM255.4,35.44l2.06-22.64,1.72,22.64Z" fill="#fff"/><polygon points="273.14 0 281.59 32.82 281.59 53.8 292.66 53.8 292.66 32.82 300 0 289.55 0 287.19 20.04 283.58 0 273.14 0" fill="#fff"/></svg>