<svg xmlns="http://www.w3.org/2000/svg" width="250" height="126" viewBox="0 0 250 126"><path d="M56.74,44.62c-1.5.54-3.88,1.31-5.81,1.82-1.91-5-7-16.94-10.33-25.35.06,7.87-.3,23.62-.28,29.36a28.28,28.28,0,0,0-6.08.47C31.87,44.79,21.61,16.34,19.1,10.11a30,30,0,0,0,6.31-3.64c1.6,4.37,7.14,22.6,9.66,29.2,0-6.35.48-24.63.31-28a23,23,0,0,0,5.29-1c1.57,4.25,7.88,18.86,10.32,25-.21-7-.73-25.48-1.13-31.63a25.1,25.1,0,0,0,6.63.18C56.47,11.41,56.66,36.07,56.74,44.62Z" fill="#fff"/><path d="M77.73,53.79c-1.5-.32-4.64-.49-7-.67-4-.34-8.44-.75-11.34-1C59.75,49,60.54,41,61,34.31c.62-8.21.9-18,1-21.7,2.13-.07,6.06,0,7.45,0,2,.11,8.69.7,11.17.84a37.34,37.34,0,0,0-1.36,6.16c-2-.41-6.13-.87-8.24-1.1-.9-.17-2-.11-2.6-.2-.25,3.74-.28,6.47-.47,10.1,1.08.17,6.16.11,8.16.22-.09,1.69-.34,4-.45,6.15a74.48,74.48,0,0,1-8-1.12c-.37,3.5-.48,9.12-.63,13a15.56,15.56,0,0,0,2.71.27c.54.09,6.51.65,9.24.67C78.76,49.24,78.21,51.58,77.73,53.79Z" fill="#fff"/><path d="M103.55,50.21c-1.52-.19-4.66-.07-7,0-4.06,0-8.48,0-11.38.06.06-3.21.12-11.27,0-17.92-.12-8.23-.73-18-.92-21.7,2.1-.26,6-.59,7.42-.64,2-.08,6.93-.44,9.4-.53a37.35,37.35,0,0,0-.79,6.26c-2.07-.22-4.4,0-6.52,0-.91-.09-2,.07-2.6,0,.08,3.75.3,6.46.43,10.09a34.75,34.75,0,0,0,3.57-.13c.6-.08,4.28-.46,6.28-.54.06,1.7,0,4,.11,6.17-2,.08-4.18-.08-6-.14a31.41,31.41,0,0,1-3.76-.1c-.05,3.52.34,9.13.54,13a15.59,15.59,0,0,0,2.73,0c.55,0,6.54.06,9.26-.16C104.17,45.58,103.83,48,103.55,50.21Z" fill="#fff"/><path d="M129.77,60c-2.3-4.63-10.09-19.25-13-24.45-.43.88-1.19,2.14-1.57,2.89.36,5.38.79,11,1.18,15.09-2.35.21-4.5.6-7.27,1-.11-4.42-1-25.46-2-40.06,2.47-.17,4.14-.58,6.67-.93.21,3.2.59,9.9.94,16.07,3-5.72,6.58-13.29,8.37-17.41a40.78,40.78,0,0,0,6,3c-2,3.22-5,8.82-8.08,14.36,2.52,5.17,10.39,19.17,14.8,26.33C133.71,57.19,132.14,58.2,129.77,60Z" fill="#fff"/><path d="M156.54,48.24c-1.54,0-5.45.59-7.79.84-4,.42-8.44.82-11.33,1.15-.24-3.2-.94-11.23-1.7-17.84-.91-8.18-2.44-17.87-3-21.52,2.07-.46,6-1.16,7.33-1.34,2-.26,8.66-.91,11.12-1.24A37.14,37.14,0,0,0,151,14.6c-2.08,0-6.19.28-8.31.44-.91,0-2,.26-2.58.28.43,3.73.91,6.41,1.39,10a32.85,32.85,0,0,0,3.54-.47c.59-.14,4.22-.87,6.2-1.13.22,1.68.4,4,.69,6.13-2,.27-4.17.31-6,.43a32.26,32.26,0,0,1-3.75.26c.28,3.5,1.2,9.06,1.78,12.89a16.21,16.21,0,0,0,2.71-.24c.55,0,6.52-.57,9.2-1.05C155.88,42.15,156.19,45.8,156.54,48.24Z" fill="#fff"/><path d="M176.18,54.48c-1.07-3.48-9-26.51-11.34-31.28-.07,1.7.08,4.66.15,6.72.13,6.17,1.27,22.2,1.27,22.2a49.16,49.16,0,0,0-7-.69c.15-3.1-.18-18.43-.36-26.23-.15-6.77-.77-15.17-.93-18.25a35.73,35.73,0,0,0,5.85-.67c.37,2.11,7.24,16.85,10.45,22.87-.05-1.64-.15-10.89-.55-16.15-.13-2-.34-9.6-.69-11.22a39.69,39.69,0,0,0,6.68-1l.91,54C178.26,54.62,178.06,54.61,176.18,54.48Z" fill="#fff"/><path d="M192.55,51.77a25,25,0,0,1-6.89-1.09c.54-2.84.6-19.6.6-22.87,0-6.17-.18-13.67-.42-16.33a24.82,24.82,0,0,1,6.29-.67c9.92,0,16.64,4.78,16.64,17.79C208.77,43.12,200.6,51.77,192.55,51.77Zm.18-35.15c0,9.32-.12,22.08.13,29.22.24,0,.48.06.72.06,5.27,0,8.35-8.65,8.35-17.06C201.93,18.19,197.88,16.86,192.73,16.62Z" fill="#fff"/><path d="M11.68,84.91C11.43,83.5,9.59,76.26,9.57,76l-4.81.57c-.12,1.08-.6,4.66-.67,5.86A31.94,31.94,0,0,0,0,81.28c.27-1.6,2.13-13.13,2.81-21.18.1-1.28.32-3.15.28-3.8.91-.18,3.27-.49,4.11-.71.4,1.36,8,26.34,8.55,28C14.73,83.89,12.81,84.49,11.68,84.91ZM5.9,63c-.13,2-.71,8.71-.82,9.88.68-.17,2.6-.26,3.4-.43C8.07,71.05,6.45,64.85,5.9,63Z" fill="#fff"/><path d="M24.89,57.76c-.8,0-3.76-.33-4.6-.41.06,1.61.39,9.53.44,15,0,2.38.05,4.07-.09,6.61-1.53,0-3.11-.29-4.68-.3.24-2.34.42-6.3.53-10,.14-4.41,0-9.1,0-11.75-.3,0-1,.07-1.53.06-1,0-2.08,0-3.31-.06A14.16,14.16,0,0,0,12.36,53a20.29,20.29,0,0,0,2.57.29c3.84.25,9,.36,10.57.37A26.15,26.15,0,0,0,24.89,57.76Z" fill="#fff"/><path d="M45.73,89c.6,4.49,1.45,10.42,2.27,13.79a57.78,57.78,0,0,1-6.66,2.72c-.65-4.86-1.86-15.32-3.4-25.55-.81-5.14-2.14-11.92-2.87-13.77a25.5,25.5,0,0,1,5.82-1.63c8.12-1.39,15.32.4,16.59,10C58.18,79.79,53.15,87.42,45.73,89ZM42.86,70.17c.28,1.67.76,4.36,1.12,6.57.29,1.73.81,4.71,1,6.39a7.25,7.25,0,0,0,5.77-8C50.19,70.66,47.48,69.56,42.86,70.17Z" fill="#fff"/><path d="M74.89,117.19c-.24-2.24-2.19-9.24-2.5-11.54a9.16,9.16,0,0,1-.12-1.21l-7.62.36c-.3,1.7-1.45,7.27-1.69,9.14a51.35,51.35,0,0,0-6.3-2.3c.61-2.48,4.78-20.39,6.72-33,.3-2,.85-4.9.85-5.93,1.45-.18,5.2-.43,6.53-.67.48,2.18,10,40.82,10.67,43.54C79.8,115.92,76.71,116.64,74.89,117.19Zm-7-33.56c-.43,3.08-2.06,13.61-2.36,15.43,1.09-.18,4.11-.12,5.38-.31C70.46,96.46,68.58,86.53,67.92,83.63Z" fill="#fff"/><path d="M106,125.64c-2.16-5.37-12.4-26-14.24-29.53l-2,.38c.06.36.13,1.81.15,4.11.15,4.18.3,8.35.63,11.25-2.18.2-5.56.77-7.14.78.1-3.75.17-9.56.16-12.1,0-1.33,0-11.92,0-17.25,0-5,0-11.61,0-11.61a40.66,40.66,0,0,1,5.14-.22c9.8-.07,14.25,4.37,14.29,10,0,5.08-2.1,10.3-5.48,12.44,1.48,3.62,10.73,21,14.78,29.28C110.18,123.79,108,125,106,125.64ZM89.53,76.89c.08,3,.15,13.13.22,14.52.37-.07,1.51-.26,2.18-.44,3-.87,3.9-4.21,3.87-8.68S93.46,76.86,89.53,76.89Z" fill="#fff"/><path d="M125.48,71.19c-1.27-.08-5.89-.85-7.21-1,0,2.55-.18,15-.59,23.67-.16,3.75-.26,6.41-.69,10.38-2.41-.15-4.86-.72-7.34-.87.59-3.66,1.21-9.87,1.68-15.66.6-6.93.81-14.31,1.06-18.48a22.54,22.54,0,0,1-2.42,0c-1.51-.09-3.26-.25-5.19-.37a22.82,22.82,0,0,0,1.4-6.1,29,29,0,0,0,4,.67c6,.73,14.16,1.34,16.58,1.49A40.24,40.24,0,0,0,125.48,71.19Z" fill="#fff"/><path d="M135.79,98.3c-.33,2.58-1.35,14-2.06,18.16-2.15-.4-5-.82-7.48-1.13,1-3.79,2.22-11.68,3-17-1.31-5-5.27-17.08-6.92-21.86a34.36,34.36,0,0,0,7.5-1.37,152.6,152.6,0,0,0,3.49,15.69c2-4.14,10.2-20.2,11.63-24.77a41.48,41.48,0,0,0,6.72,3.29C148.38,75.11,137.65,94.76,135.79,98.3Z" fill="#fff"/><path d="M171.07,93.49c.35,4.52.87,10.49,1.49,13.9a59.08,59.08,0,0,1-6.8,2.34c-.37-4.88-1-15.4-2-25.7-.51-5.18-1.46-12-2.09-13.91a25.83,25.83,0,0,1,5.9-1.31c8.18-.93,15.27,1.26,16,10.91C184,85,178.57,92.31,171.07,93.49Zm-1.82-19c.19,1.69.52,4.39.75,6.62.2,1.74.55,4.75.68,6.44a7.24,7.24,0,0,0,6.2-7.7C176.54,75.41,173.9,74.16,169.25,74.51Z" fill="#fff"/><path d="M192.48,107.75a26.51,26.51,0,0,0-6.35-1.12c.5-6.33,2.05-30,2.58-40.82a46.88,46.88,0,0,0,7.17,1.42C195.4,71.56,193.36,92.71,192.48,107.75Z" fill="#fff"/><path d="M217.79,112.71c-1.52-.16-4.66,0-7,.08-4.05.1-8.47.16-11.38.26,0-3.21-.07-11.27-.31-17.92-.27-8.23-1-18-1.31-21.68,2.11-.3,6-.69,7.41-.77,2-.11,6.95-.23,9.43-.37a37.47,37.47,0,0,0-.69,6.28c-2.07-.19-4.42-.21-6.55-.21-.91-.07-2,.11-2.6.08.15,3.75.42,6.46.62,10.08a31.87,31.87,0,0,0,3.56-.19c.6-.09,4.27-.54,6.27-.65.09,1.7.09,4,.21,6.17-2,.11-4.18,0-6,0a35.1,35.1,0,0,1-3.76,0c0,3.51.5,9.12.77,13a15.57,15.57,0,0,0,2.73,0c.55,0,6.54-.06,9.25-.33C218.33,108.07,218,110.45,217.79,112.71Z" fill="#fff"/><path d="M243.93,120c-2.45-5.24-11.52-21.33-13.56-24.78l-2,.5a38,38,0,0,1,.38,4.09c.39,4.16.77,8.32,1.25,11.2-2.16.32-5.51,1.07-7.08,1.17-.11-3.75-.36-9.55-.52-12.09-.08-1.33-.62-11.9-1-17.22-.31-5-.66-11.59-.66-11.59a42.15,42.15,0,0,1,5.12-.51c9.78-.61,14.47,3.58,14.82,9.2.32,5.07-1.53,10.4-4.78,12.72,1.68,3.54,9.59,16.49,14.09,24.51C248.05,117.92,245.88,119.2,243.93,120ZM227.12,76.14c.24,3,.88,13.1,1,14.49.35-.09,1.49-.34,2.14-.56,3-1,3.67-4.42,3.39-8.89S231,75.89,227.12,76.14Z" fill="#fff"/></svg>