<svg xmlns="http://www.w3.org/2000/svg" width="300" height="48" viewBox="0 0 300 48"><path d="M170.28,26.19c.76-3.22,1.48-6.29,2.2-9.36.5-2.11,1-4.23,1.5-6.34a2.6,2.6,0,0,0-.73-3,1.35,1.35,0,0,1-.31-1.18,1.24,1.24,0,0,1,1-.59c2.15-.06,4.3-.08,6.44,0a1.68,1.68,0,0,1,1.17.77c.29.56,0,1.1-.61,1.42a1.53,1.53,0,0,0-.69,1.66c.2,3.54.39,7.09.63,10.63.4,5.71.85,11.41,1.27,17.12.1,1.34.23,2.68.26,4a4.81,4.81,0,0,0,2,4c1.46-.59,1.85-1.84,2.09-3.32,1.27-7.79,2.61-15.57,3.93-23.36q1-5.76,2-11.52c.3-1.67.62-1.91,2.3-1.94,3.15,0,3.27,0,3.88,3.05,1.49,7.45,2.92,14.92,4.38,22.39.77,3.95,1.51,7.91,2.36,11.85a5.93,5.93,0,0,0,1.21,2.21c.41.53.77,1.07.42,1.62a1.75,1.75,0,0,1-1.26.66c-2.31.06-4.62.08-6.92,0a2,2,0,0,1-1.41-.74c-.39-.58.13-1.09.53-1.58a5.1,5.1,0,0,0,.61-1.43,1.3,1.3,0,0,0,0-.48c-.14-2.93-.58-3.35-3.47-3.36h-.48c-2.55,0-2.78.23-3,2.73-.1,1.14-.21,2.21,1,2.94a1.41,1.41,0,0,1,.29,1.27,1.31,1.31,0,0,1-1,.64q-2.93.11-5.87,0a5.33,5.33,0,0,1-1.49-.49,5.82,5.82,0,0,1-1.53.5q-3.61.08-7.22,0a1.78,1.78,0,0,1-1.28-.69c-.33-.59,0-1.17.63-1.5a1.56,1.56,0,0,0,.87-1.58q-.63-9.59-1.28-19.15a2.21,2.21,0,0,0-.14-.31c-.61,2.82-1.19,5.52-1.76,8.22q-1.06,5.17-2.11,10.34c0,.18,0,.42-.14.55-.32.35-.66.84-1,.9s-.85-.45-1-.81a36,36,0,0,1-1-3.7c-1.16-5-2.28-10.1-3.42-15.15a1,1,0,0,0-.33-.58q-.21,3.36-.44,6.72l-.72,11.5c-.08,1.29-.13,2.55,1.16,3.43a1.32,1.32,0,0,1,.28,1.19,1.21,1.21,0,0,1-1,.6c-1.89.06-3.78.07-5.67,0a1.51,1.51,0,0,1-1.17-.75c-.11-.29.27-.93.61-1.19a2.81,2.81,0,0,0,1-2.27c.25-3.38.51-6.76.71-10.15.44-7.37.84-14.75,1.27-22.12.07-1.19.06-2.28-1-3.12a1.3,1.3,0,0,1-.24-1.19,1.23,1.23,0,0,1,1-.56q3.41-.06,6.83,0c.37,0,1,.3,1,.56a1.52,1.52,0,0,1-.4,1.25,2,2,0,0,0-.68,2.05q1.86,8.09,3.7,16.17A4.27,4.27,0,0,0,170.28,26.19Zm24.24-5.82h-.22c-.25,1.71-.49,3.43-.73,5.14-.39,2.72-.81,5.43-1.13,8.15a2.31,2.31,0,0,0,.41,1.56c.48.58,2.81.65,3.5.2.85-.55.32-1.4.37-2.11a2.22,2.22,0,0,0-.07-.57c-.57-3.4-1.13-6.8-1.71-10.2C194.82,21.82,194.66,21.1,194.52,20.37Zm68.62,11.27v6.57c0,1.69-.05,3.39,0,5.08a5.34,5.34,0,0,0,.68,1.57c.21.46.64,1,.52,1.37a1.54,1.54,0,0,1-1.2.82c-2.37.08-4.74.07-7.11,0-.4,0-1-.38-1.11-.67a1.71,1.71,0,0,1,.46-1.4,2.33,2.33,0,0,0,.87-2q0-16.17,0-32.33c0-1.34-.15-2.51-1.56-3.2a.84.84,0,0,1,.09-1.54,2.47,2.47,0,0,1,.91-.28,24.44,24.44,0,0,1,10.39.59c4.48,1.43,7.07,4.81,8.56,9.08a17.65,17.65,0,0,1,.68,8.89,7.54,7.54,0,0,1-3.62,5.4.94.94,0,0,0-.49,1.18c1,4,1.86,8.09,2.87,12.12A11.51,11.51,0,0,0,275.29,45a3,3,0,0,1,.48,1.52c0,.23-.81.53-1.25.54-2.06.06-4.11,0-6.16,0a1.19,1.19,0,0,1-.57,0c-.38-.22-.91-.44-1-.79a1.31,1.31,0,0,1,.5-1.09,1.69,1.69,0,0,0,.69-1.92c-.72-3.47-1.45-6.94-2.12-10.43-.17-.91-.51-1.37-1.49-1.2A7.63,7.63,0,0,1,263.14,31.64Zm0-12.87h0c0,2.3,0,4.61,0,6.91a9.7,9.7,0,0,0,.18,1.52,1.42,1.42,0,0,0,1.36,1.15,2.55,2.55,0,0,0,3-1.74,15.22,15.22,0,0,0,.92-4.36,23.07,23.07,0,0,0-1.68-10.8,5.85,5.85,0,0,0-1.68-2.14c-.87-.68-1.67-.26-1.86.84a12.1,12.1,0,0,0-.18,1.9C263.15,14.29,263.16,16.53,263.16,18.77Zm-47.1-1.51c0-2.4,0-4.8,0-7.2a2.49,2.49,0,0,1,1-2.34,1.42,1.42,0,0,0,.38-1.25,1.39,1.39,0,0,0-1-.73c-2.5-.06-5,0-7.5,0a1.24,1.24,0,0,0-1,.67,1.39,1.39,0,0,0,.34,1.25,2.64,2.64,0,0,1,1,2.43q0,16.32,0,32.63a2.43,2.43,0,0,1-1,2.34,1.09,1.09,0,0,0,.66,2q3.75.09,7.5,0a1.3,1.3,0,0,0,1-.69,1.39,1.39,0,0,0-.34-1.26c-1-.66-1-1.6-1-2.61,0-6.05,0-12.09,0-18.13a3,3,0,0,1,1.35-2.55c.11.37.23.66.29,1,1.35,6.58,2.68,13.15,4.05,19.72A2.22,2.22,0,0,1,220.9,45a1.45,1.45,0,0,0-.41,1.3,1.49,1.49,0,0,0,1.15.75q3.71.1,7.41,0a1.54,1.54,0,0,0,1.22-.66,1.61,1.61,0,0,0-.34-1.42,6.26,6.26,0,0,1-1.61-3.3c-1.72-7.64-3.35-15.3-5.25-22.9-.65-2.58-.53-4.69,1.2-6.8,1.26-1.53,1.94-3.53,3.9-4.49.29-.14.45-.84.4-1.23s-.62-.55-1-.56c-2,0-4,0-6,0a4,4,0,0,0-1.23.5,4,4,0,0,0,.63,1.27,1.47,1.47,0,0,1,.44,2c-1.08,1.92-2.16,3.84-3.29,5.74-.58,1-1.26,1.9-2,3.09C216.1,17.8,216.06,17.53,216.06,17.26ZM96,47.54c-1.24-.07-2.5-.06-3.74-.24a2.27,2.27,0,0,1-1.52-.87c-.18-.33.32-1,.54-1.54a5.71,5.71,0,0,0,.57-1.27A21.43,21.43,0,0,0,92,40.85q0-15.17,0-30.32a3,3,0,0,0-1.06-2.81c-.8-.58-.57-1.4.39-1.73a7.36,7.36,0,0,1,2-.36c7.76-.51,12.22,2,15.5,9.05a31.62,31.62,0,0,1,1.32,24.44,15.77,15.77,0,0,1-1.84,3.46,10.06,10.06,0,0,1-8.56,4.88c-1.24,0-2.5,0-3.75,0Zm8.7-18.27c-.11-2.21-.15-4.41-.36-6.61a35.83,35.83,0,0,0-2.09-10.19,7.64,7.64,0,0,0-1.4-2.26c-.67-.75-1.46-.46-1.67.51A7,7,0,0,0,99,12.24q0,14.76,0,29.54c0,.79.09,1.59,1,1.9a1.77,1.77,0,0,0,2.1-.79,12,12,0,0,0,1.5-3.07A40.26,40.26,0,0,0,104.66,29.27Zm-23.49-7c-.87-2.23-1.71-4.48-2.61-6.7-1.15-2.84-2.34-5.68-3.54-8.5-.27-.63-.51-1.39-1.4-1.4-1.89,0-3.79,0-5.67,0-.37,0-1,.37-1,.66a1.56,1.56,0,0,0,.4,1.33,2.53,2.53,0,0,1,1,2.36V42.72a2.42,2.42,0,0,1-1,2.35,1.34,1.34,0,0,0-.4,1.24,1.4,1.4,0,0,0,1.06.74c1.82.08,3.65.07,5.48,0,.37,0,1-.36,1-.64a1.53,1.53,0,0,0-.37-1.34,2.52,2.52,0,0,1-.95-2.35q0-10.66,0-21.31c0-.26,0-.51.1-1,.21.46.32.65.39.85,1.49,3.85,3,7.69,4.46,11.54,1.72,4.51,3.75,8.93,3.56,13.93,0,.64.38,1,1,1.08,2.69.5,3.38-.05,3.38-2.74q0-17.47,0-34.94A2.5,2.5,0,0,1,87,7.74a1.59,1.59,0,0,0,.4-1.34c-.06-.28-.64-.64-1-.66-1.67-.07-3.34-.08-5,0-.39,0-1,.39-1.09.68a1.73,1.73,0,0,0,.46,1.39,2.29,2.29,0,0,1,.87,2c0,4.13,0,8.25,0,12.38,0,.21,0,.42-.06.88C81.35,22.66,81.24,22.48,81.17,22.29ZM240.39,34.35c0-2.62-.06-5.24,0-7.86,0-1.18.51-1.44,1.73-1.33a4.61,4.61,0,0,1,3,1.79c.82.89,1.54,1.9,2.43,2.71a1.85,1.85,0,0,0,1.56.24c.33-.11.58-.76.66-1.21a2.36,2.36,0,0,0-.23-1.2c-.81-2.19-1.63-4.38-2.48-6.55a7.3,7.3,0,0,0-.87-1.69,1.41,1.41,0,0,0-2.56.11c-.26.41-.38.95-.73,1.22a2.28,2.28,0,0,1-1.5.53c-.36-.05-.77-.6-.93-1a4.55,4.55,0,0,1-.21-1.61c0-2.43,0-4.86,0-7.29a7.35,7.35,0,0,1,.12-1.14,1.16,1.16,0,0,1,1.19-1,3.73,3.73,0,0,1,3.11,1.24,26.35,26.35,0,0,1,2.09,2.5c.79,1,1.49,2.16,2.28,3.2a1.3,1.3,0,0,0,1.77.5,1.41,1.41,0,0,0,.75-1.71c-.76-2.93-1.52-5.87-2.36-8.79-.3-1-.91-1.17-2-.89a13.54,13.54,0,0,1-3.09.55c-3.07.07-6.15,0-9.23,0a8.77,8.77,0,0,0-1.92.1,1.42,1.42,0,0,0-1,.72,1.31,1.31,0,0,0,.34,1.18c1,.68,1.06,1.66,1.06,2.7q0,16.08,0,32.14a2.74,2.74,0,0,1-1.05,2.61,1.41,1.41,0,0,0-.34,1.26c.09.31.63.56,1,.69a3.6,3.6,0,0,0,1.14,0c3.66,0,7.32,0,11,0a8,8,0,0,1,2.51.5c1.37.49,2.16.16,2.54-1.25.58-2.19,1.15-4.39,1.68-6.59a11.25,11.25,0,0,0,.43-2.74,1.91,1.91,0,0,0-.81-1.43,1.78,1.78,0,0,0-1.47.44,9.16,9.16,0,0,0-1.28,1.66C247.86,39,247,40.29,246,41.48a4.39,4.39,0,0,1-3.57,1.59c-1.38,0-1.93-.51-2-1.91,0-2.27,0-4.54,0-6.81ZM129.56,47.09c-1.16,0-2.32.07-3.46,0a1.86,1.86,0,0,1-1.37-.76,1.74,1.74,0,0,1,.52-1.46,2.3,2.3,0,0,0,.59-2.21c-.53-3.6-.8-3.1-3.47-3.14-3.15,0-3.17,0-3.51,3.12a2.23,2.23,0,0,0,.92,2.42,1.61,1.61,0,0,1,.43,1.39c0,.29-.71.63-1.11.64-1.89.07-3.79.08-5.68,0a2.23,2.23,0,0,1-1.38-.52.92.92,0,0,1,.32-1.53,2.92,2.92,0,0,0,1.39-2.36q2.32-14,4.7-28,.64-3.82,1.35-7.65c.27-1.44.64-1.73,2.14-1.76,3.28-.08,3.39,0,4,3.1,1.45,7.24,2.85,14.48,4.27,21.73.82,4.2,1.61,8.41,2.5,12.59a5.45,5.45,0,0,0,1.14,2c.41.51.86,1,.47,1.6a2.07,2.07,0,0,1-1.41.71C131.81,47.16,130.68,47.09,129.56,47.09Zm-7.64-26.84h-.21c-.61,4.17-1.19,8.34-1.82,12.51-.37,2.45.19,3.08,2.69,2.88h.19c1.31-.12,1.55-.32,1.37-1.62-.36-2.65-.8-5.3-1.23-7.94C122.59,24.13,122.25,22.19,121.92,20.25ZM61.24,47.09a31.55,31.55,0,0,1-3.37,0,2,2,0,0,1-1.46-.77c-.15-.38.22-1.13.58-1.52a2.41,2.41,0,0,0,.54-2c-.19-3-.56-3.33-3.5-3.34-3.14,0-3.27.13-3.51,3.23A2.21,2.21,0,0,0,51.45,45a1.62,1.62,0,0,1,.42,1.4c-.06.29-.72.62-1.12.63-1.86.08-3.72.05-5.58.05a1.64,1.64,0,0,1-.84-.16c-.33-.2-.74-.5-.8-.81a1.2,1.2,0,0,1,.45-1,3.21,3.21,0,0,0,1.47-2.64q3-17.6,6-35.17c.3-1.73.63-2,2.44-2,3,0,3.13,0,3.73,3,1.32,6.55,2.59,13.11,3.87,19.66,1,4.89,1.88,9.79,2.91,14.67a11.69,11.69,0,0,0,1.18,2.23c.23.49.56,1.09.43,1.52s-.82.68-1.28.72c-1.15.1-2.31,0-3.46,0ZM53.6,20.32l-.21,0c-.06.31-.13.62-.17.93q-.86,5.93-1.69,11.85c-.3,2.08.25,2.68,2.36,2.6l.58,0c1.29-.12,1.53-.31,1.35-1.63-.32-2.44-.73-4.86-1.13-7.29C54.34,24.58,54,22.45,53.6,20.32ZM292,34.88c-.46,2-.81,3.95-1.42,5.86a2.73,2.73,0,0,1-2.93,1.91,3.36,3.36,0,0,1-2.89-2.12c-.89-1.86-1.63-3.8-2.47-5.69a11.23,11.23,0,0,0-1.19-2.25,1.32,1.32,0,0,0-2.39.34,5.12,5.12,0,0,0-.23,2.3c.29,2.19.69,4.37,1.07,6.55.24,1.4.49,2.81.8,4.2s1.25,2.06,2.29,1.52a4.31,4.31,0,0,1,3.6,0,9.12,9.12,0,0,0,10.33-3.27c3.43-4.73,4-10.08,3-15.64A17.58,17.58,0,0,0,292,16.8a39.32,39.32,0,0,1-4.53-3.6,7.09,7.09,0,0,1-1.28-7.76c.82-1.73,2.39-2,3.7-.61a6.84,6.84,0,0,1,1.15,1.66c.53,1.09.95,2.23,1.46,3.33a9.68,9.68,0,0,0,1.29,2.32,1.93,1.93,0,0,0,1.6.49c.42-.09.8-.71,1-1.17a2.24,2.24,0,0,0,.12-1.26c-.42-2.82-.81-5.65-1.36-8.45-.29-1.46-1-1.7-2.49-1.36a4.07,4.07,0,0,1-2,0c-4.09-1.14-7.32.1-9.5,3.75a14.05,14.05,0,0,0,2.07,16.71c1.22,1.21,2.52,2.34,3.8,3.48a12.78,12.78,0,0,1,4.52,10.44ZM13.2,36.57a19.21,19.21,0,0,1-1.07,4.22c-1.07,2.35-3.7,2.53-5.28.49a7.5,7.5,0,0,1-.95-1.55C5,37.67,4.21,35.57,3.3,33.51c-.37-.84-.89-1.77-2.07-1.44S0,33.38,0,34.33a4.06,4.06,0,0,0,.06.85c.22,1.49.42,3,.68,4.45C1.13,41.8,1.51,44,2,46.14c.33,1.44,1.25,1.87,2.58,1.22a3.36,3.36,0,0,1,2.79,0,9.45,9.45,0,0,0,11.88-4.79A21.14,21.14,0,0,0,20.9,27.25,17.74,17.74,0,0,0,13.5,16.7a38.27,38.27,0,0,1-4.36-3.46A7.21,7.21,0,0,1,7.77,5.58C8.64,3.63,10.36,3.35,11.7,5A14.9,14.9,0,0,1,13.3,7.8c.45.93.78,1.92,1.19,2.87a8.43,8.43,0,0,0,.67,1.21,1.46,1.46,0,0,0,1.91.75,2,2,0,0,0,1-1.52c-.37-3.25-.83-6.49-1.42-9.71-.2-1.12-1-1.29-2.19-1.06a5.28,5.28,0,0,1-2.27,0A7.58,7.58,0,0,0,3.3,3.51a14,14,0,0,0,1.31,17c1.28,1.33,2.7,2.55,4.09,3.78a12.72,12.72,0,0,1,4.52,10.53A8.13,8.13,0,0,1,13.2,36.57ZM32.4,15a26.17,26.17,0,0,1,1.1-4.65,1.85,1.85,0,0,1,1.67-1.51c.95-.07,1.45.59,1.85,1.29a13.78,13.78,0,0,1,.89,1.91c.56,1.53,1,3.09,1.64,4.6.48,1.2,1.22,1.62,2.1,1.38s1.15-.94,1-2.21-.29-2.35-.47-3.52c-.3-2-.55-4.05-1-6.05-.28-1.45-1.1-1.69-2.4-1.06A2.49,2.49,0,0,1,37,5.36a5.74,5.74,0,0,0-6.94,2,19.44,19.44,0,0,0-2.45,4A44.08,44.08,0,0,0,24.57,37.6a14.67,14.67,0,0,0,3.1,7.14,9,9,0,0,0,8.84,3c3.12-.49,5-2.55,6-5.43a16.77,16.77,0,0,0,.62-8.6,11.15,11.15,0,0,0-1-3A1.49,1.49,0,0,0,40.34,30a1.42,1.42,0,0,0-1.07,1.43c-.07,1.08-.07,2.17-.07,3.25a14.21,14.21,0,0,1-.93,6.39,2.58,2.58,0,0,1-2.36,1.7,2.5,2.5,0,0,1-2.51-1.6,11.15,11.15,0,0,1-1-3.27c-.38-4-.6-8-.85-11.55C31.84,22.22,32,18.61,32.4,15ZM140.11,5.73c-1.32,0-2.63,0-3.94,0a1.24,1.24,0,0,0-.93.65,1.34,1.34,0,0,0,.29,1.19c1.12.76,1.11,1.85,1.11,3q0,15.89,0,31.76c0,1.08,0,2.1-1.08,2.79a1.3,1.3,0,0,0-.34,1.18c.1.32.6.59,1,.74a3.32,3.32,0,0,0,1.14.06c3.5,0,7,0,10.49,0a17.15,17.15,0,0,1,3.39.51c1,.24,1.46.11,1.89-.89a5.06,5.06,0,0,0,.32-1c.63-2.84,1.26-5.68,1.84-8.53a3.5,3.5,0,0,0,0-1.7,2,2,0,0,0-1.08-1.17,1.79,1.79,0,0,0-1.41.48,8,8,0,0,0-1.1,1.67c-.9,1.47-1.74,3-2.72,4.4a4.44,4.44,0,0,1-3.25,2c-1.53.15-2-.19-2.16-1.7a11.69,11.69,0,0,1-.13-1.43q0-15,0-30a2.25,2.25,0,0,1,.85-1.92,1.74,1.74,0,0,0,.53-1.38c-.07-.32-.73-.69-1.16-.73-1.17-.1-2.37,0-3.55,0Z" fill="#fff"/></svg>