<svg xmlns="http://www.w3.org/2000/svg" viewBox="0 0 202 142"><path d="M22.44 109.6v-2.13h-8.37l-.11 1.32c2.83.19 5.65.51 8.47.81zM10.22 108.75l-.1-1.28H1.65v2.92c2.87-.44 5.67-1.38 8.56-1.64zM22.38 110.28c-1.91-.18-3.82-.4-5.73-.57-.91-.09-1.83-.16-2.74-.22l-1.62 20.14c-.03.79-.04 1.43-.24 2.22l-1.78-22.41c-2.92.25-5.73 1.2-8.62 1.64v29.53h5.77v-16.07c-.01-.73-.1-1.4.06-2l2.14 18.07h4.94l2.12-17.67.11 17.68h5.65v-30.33h-.06zM145.25 69.25l6.05-.03-5.05 33.15h-6l-2.09-15.07-2.15 15.07-6 .01-5.05-33.15 6.05.01 2.11 20.61 2.17-20.62h5.68l2.19 20.62 2.09-20.6zM36.22 102.37l-6.78.01V88.49h-2.36v13.89l-6.78-.01V69.23h6.78v14.44h2.36V69.23h6.78v33.14zM86.8 102.37h-5.95l-4.03-17.5-.03 17.51-5.75-.01V69.23h6.12L81 87.5l.05-18.27 5.75.01v33.13zM137.26 140.62h-6.42l-.41-1.18.02-10.6c-.02-.26-.24-.99-.49-1.08-.46-.16-1.32-.15-1.81-.09v12.95h-6.54v-33.14l8.23.05c3.94.02 6.78 3.38 7.12 7.19l-.02 5.32c0 1.88-1.05 3.5-2.22 4.98 1.31 1.22 2.22 2.9 2.22 4.82l.02 9.02.3 1.76zm-6.82-19.68v-6.77c0-.36-.3-1.15-.6-1.17l-1.69-.07v9.21l1.55-.04c.33 0 .75-.68.75-1.17zM113.78 133.59c-.74-1.2-1.4-2.44-1.96-3.74-.14-.32-.27-.65-.39-.97l-.02 6.01c-.32.32-1.02.53-1.35.51-.28-.02-.91-.39-.91-.71v-11.12c-.99-1.92-2.07-3.81-2.9-5.81-.77-1.87-1.39-3.81-2.26-5.64-.19-.4-.4-.8-.61-1.2-.49.99-.77 2.09-.77 3.21v20.21c.01 2.56 1.63 5.06 3.9 6.12 2.43 1.14 5.17.9 7.6.06 1.1-.63 2.01-1.48 2.67-2.49-1.02-1.47-2.06-2.93-3-4.45z" fill="#fff"/><path d="M111.82 127.5c.13.56.3 1.1.5 1.64.81 2.2 2.3 4.07 3.71 5.92.46.6.92 1.21 1.35 1.83.29-.68.48-1.4.56-2.17v-7.22h-6.13zM106.56 115.88c.3 1.22.77 2.39 1.51 3.4.34.47.71.91 1.09 1.35v-7.04c0-.48.92-.77 1.27-.71.37.07.78.33 1.01.71v7.42h6.53v-7.44c-.27-2.54-1.73-4.67-3.99-5.87-2.36-.77-4.98-.98-7.32.05-.38.16-.73.37-1.06.6.49 2.49.37 5.07.97 7.54zM10.2 96.66l.03-7.4h6.53l-.05 7.22c-.02 2.49-1.73 4.56-3.78 5.81-2.48.83-5.18 1.08-7.62-.06-2.27-1.06-3.89-3.56-3.89-6.12V75.9c-.01-2.72 1.56-5.31 4.03-6.39s4.96-.82 7.32-.05c2.26 1.2 3.72 3.33 3.98 5.87v7.44h-6.53v-7.42a1.49 1.49 0 0 0-1.01-.71c-.35-.06-1.26.24-1.26.71v21.11c0 .32.63.69.91.71.33.02 1.03-.19 1.34-.51zM67.99 110.55h.11c.05-.09.15-.15.28-.15.92.03 1.81-.3 2.74-.28.21 0 .42.02.62.05.36-.02.73-.01 1.08.05h.04c.54-.02 1.09 0 1.63 0h1.61c.51 0 1.07.07 1.57-.06l.43-.12c-.71-.98-1.68-1.8-2.77-2.39-2.23-.69-4.65-.9-6.85.07-1.29.57-2.39 1.57-3.12 2.79.87.07 1.76.11 2.62.06zM77.88 124.93l-5.77-5.01c-.69-.6-1.1-1.31-1.1-2.23l.02-3.76c0-.64.47-1.04 1.08-1 .41.03.88.48.88.99v5.18h6.45l-.05-5.3c0-1.08-.3-2.1-.79-3-.48.15-.97.25-1.46.33-1.38.22-2.78.23-4.15-.03-.4-.08-.8-.16-1.2-.22-.47.01-.93.06-1.4.11-.93.11-1.86.28-2.79.28-.86 0-1.71-.04-2.57-.1a6.22 6.22 0 0 0-.59 2.61v5.25c0 1.41.65 2.81 1.69 3.76l5.85 5.33c.6.55 1.04 1.27 1.03 2.11l-.06 4.48c0 .31-.73.63-1.03.63-.3 0-1.06-.3-1.11-.61l-.04-6.02h-6.36l.05 5.97c.02 2.74 2.02 5.03 4.45 6.14 2.12.5 4.25.69 6.4-.18 2.44-.98 4.26-3.44 4.26-5.99v-5.85c0-1.44-.57-2.9-1.67-3.86zM78.63 58.11c-.83-1.02-1.65-2.13-2.66-2.99l-.04 2.89c0 .31-.73.63-1.03.63-.3 0-1.06-.3-1.11-.61l-.04-6.02h-6.36l.05 5.97c.02 2.74 2.02 5.03 4.45 6.14 2.12.5 4.25.69 6.4-.18a7.113 7.113 0 0 0 3.29-2.76c-1.14-.85-2.06-1.98-2.95-3.07zM69.12 46.09l5.85 5.33c.6.55 1.04 1.27 1.03 2.11v.71c.59.41 1.2.8 1.82 1.18 1.57.96 3.19 1.87 4.73 2.89 0-.12.01-.23.01-.35v-5.85c0-1.44-.57-2.9-1.67-3.86l-5.77-5.01c-.69-.6-1.1-1.31-1.1-2.23l.02-3.76c0-.64.47-1.04 1.08-1 .41.03.88.48.88.99v5.18h6.45l-.05-5.3c-.02-2.66-1.74-4.91-4.04-6.15-2.23-.69-4.65-.9-6.85.07-2.35 1.04-4.06 3.52-4.06 6.06v5.25c0 1.41.65 2.81 1.69 3.76zM92.32 73.58c.34-.13.67-.27 1-.41-.02-.12.02-.25.16-.33.77-.45 1.59-.7 2.45-.84.81-.33 1.62-.6 2.49-.76 1.07-.2 2.16-.33 3.24-.45.46-.12.92-.24 1.39-.33-.47-.41-.99-.77-1.55-1.06-2.23-.69-4.65-.9-6.85.07-1.89.83-3.36 2.59-3.87 4.57.52-.11 1.03-.26 1.54-.44zM98.27 74.69c.41.03.88.48.88.99v5.18h6.45l-.05-5.3c-.01-1.64-.67-3.12-1.71-4.31-.64.08-1.29.15-1.93.23-.04 0-.07 0-.11.01-1.08.29-2.16.62-3.26.83-.78.15-1.57.24-2.36.35-.02 0-.04 0-.07.01-.39.17-.77.34-1.15.52-.94.44-1.89.89-2.87 1.22-.47.16-.95.28-1.44.36-.03.25-.05.5-.05.76v5.25c0 1.41.65 2.81 1.69 3.76l5.85 5.33c.32.29.59.63.77 1.01.67-.71 1.34-1.42 2-2.13.52-.56 1.06-1.12 1.53-1.73.26-.34.52-.69.77-1.05l-4.92-4.28c-.69-.6-1.1-1.31-1.1-2.23l.02-3.76c0-.64.47-1.04 1.08-1zM94.72 96.65c.56-.94 1.14-1.87 1.77-2.78.15-.21.3-.43.45-.64l-.02-2.78h-6.36l.05 5.97c.01 1.65.74 3.13 1.84 4.29.74-1.37 1.48-2.73 2.27-4.07zM103.74 88.75c-1.39 1.61-2.85 3.17-4.33 4.69-.09.1-.19.19-.28.29l-.04 2.72c0 .31-.73.63-1.03.63-.3 0-1.11-.3-1.11-.62v-.51c-.46.47-.89.96-1.27 1.5-.51.71-.94 1.49-1.22 2.32-.19.57-.27 1.16-.39 1.75-.03.15-.07.3-.12.45.35.23.72.43 1.1.6 2.12.5 4.25.69 6.4-.18 2.44-.98 4.26-3.44 4.26-5.99v-5.85c0-1.07-.31-2.15-.93-3.03-.34.41-.69.82-1.04 1.23zM59.24 124.93l-5.77-5.01c-.69-.6-1.1-1.31-1.1-2.23l.02-3.76c0-.64.47-1.04 1.08-1 .41.03.88.48.88.99v5.18h6.45l-.05-5.3c0-1.11-.31-2.14-.83-3.06-1.22-.08-2.43-.1-3.65 0 .06.1.1.22.11.35.01.19-.17.35-.35.35-.46 0-.93.02-1.39.04-1.79.11-3.55.43-5.31.74-.89.16-1.78.31-2.67.43-.26.04-.52.07-.78.1-.06.34-.09.69-.1 1.04v5.25c0 1.41.65 2.81 1.69 3.76l5.85 5.33c.6.55 1.04 1.27 1.03 2.11l-.06 4.48c0 .31-.73.63-1.03.63-.3 0-1.06-.3-1.11-.61l-.04-6.02h-6.36l.05 5.97c.02 2.74 2.02 5.03 4.45 6.14 2.12.5 4.25.69 6.4-.18 2.44-.98 4.26-3.44 4.26-5.99v-5.85c0-1.44-.57-2.9-1.67-3.86zM55.37 110.73s-.03-.03-.05-.04c-.23-.23-.04-.56.25-.59 1.29-.16 2.59-.15 3.89-.09-.71-.98-1.67-1.79-2.76-2.37-2.23-.69-4.65-.9-6.85.07-1.81.8-3.23 2.44-3.79 4.31 3.11-.38 6.17-1.17 9.31-1.28zM59.88 59.01l-3.19-.03-.51 4.96H49.4l5.5-33.13 6.74-.02 5.5 33.14h-6.78l-.49-4.92zm-.46-4.99l-1.16-12.66-1.11 12.67h2.27zM50.07 97.45l-3.19-.03-.51 4.96h-6.78l5.5-33.13 6.74-.02 5.5 33.14h-6.78l-.49-4.92zm-.47-4.99L48.44 79.8l-1.11 12.67h2.27zM95.05 112.46c-1.8.41-3.63.73-5.47.85-.94.07-1.9.08-2.84-.03-.07 0-.15-.02-.22-.03l-4.54 27.35h6.78l.51-4.95 3.19.03.49 4.93h6.78l-4.67-28.16zm-5.33 18.24l1.11-12.67 1.16 12.66h-2.27zM88.04 111.01c2.25-.02 4.51-.06 6.76-.04l-.58-3.5-6.74.02-.59 3.54c.38 0 .77 0 1.15-.01zM118.05 97.45l-3.19-.03-.51 4.96h-6.78l5.5-33.13 6.74-.02 5.5 33.14h-6.78l-.49-4.92zm-.46-4.99l-1.16-12.66-1.11 12.67h2.27zM35.03 110.27c1.24.2 2.44.54 3.65.88l-.61-3.68-6.74.02-.42 2.53c1.38 0 2.77.03 4.13.26zM33.81 110.81c-1-.08-2.01-.1-3.02-.11l-4.96 29.91h6.78l.51-4.95 3.19.03.49 4.93h6.78l-4.77-28.72c-1.64-.45-3.29-.96-5-1.09zm-.25 19.89l1.11-12.67 1.16 12.66h-2.27zM38.23 34.19c.32 1.38.63 2.78.75 4.19.11 1.31.02 2.64-.07 3.95-.02.27-.04.54-.05.81.31 1.5.85 2.95 1.68 4.26 1.01 1.59 2.39 2.89 3.75 4.16.34.32.69.65 1.03.98l-1.85-6.02 4.96-15.74-6.83.02-1.41 9.27-1.42-9.29h-1.39c.3 1.13.6 2.26.86 3.39z" fill="#fff"/><path d="M42.68 53.18c-.85-.63-1.68-1.3-2.43-2.05-.62-.63-1.22-1.33-1.6-2.13-.47-1.01-.55-2.2-.57-3.3-.02-.83.02-1.66.07-2.48-.05-.27-.1-.53-.14-.8-.11-.71-.15-1.43-.23-2.14-.16-1.5-.42-2.99-.71-4.47-.13-.65-.27-1.3-.35-1.96-.07-.54-.1-1.09-.13-1.63-.03-.47-.05-.95-.07-1.42h-4.57l4.87 15.72-5.55 17.42h6.77l2.05-9.38 1.97 9.39 6.76-.04-2.57-8.34c-1.21-.76-2.41-1.53-3.56-2.38zM28.79 50.06l-4.39.02v8.1l6.07.01-.01 5.75H17.62V30.79h12.84l.01 5.51H24.4v9h4.38l.01 4.76zM152.05 126.74l-4.38.02-.01 8.1 6.07.02v5.74h-12.85v-33.15h12.85v5.51h-6.07v9h4.38l.01 4.76zM12.01 63.92l-6.63.02V36.31L1 36.3v-5.51h15.36v5.51l-4.35.01v27.61zM61.07 94.76c.73-.67 1.36-1.45 1.99-2.21.63-.77 1.25-1.55 1.87-2.32l1.02-1.26V69.23h-6.54v27.15c.47-.61 1.09-1.1 1.65-1.62zM59.56 97.42s-.09.06-.14.07v4.88h6.54V90.2c-2.08 2.45-3.88 5.17-6.39 7.22zM99.3 15.45l-7.63 11.11c-.71 1.03-.51 1.71.21 2.21s1.43.43 2.13-.59l7.63-11.11 2.14 1.47-7.53 10.97c-1.58 2.31-3.64 2.83-5.86 1.3s-2.47-3.63-.89-5.94l7.53-10.97 2.26 1.55zM108.74 27.77l-7.16 10.43-2.04-1.4 9.89-14.41 2.84 1.95-3.59 10.22 5.92-8.62 2.02 1.38-9.89 14.41-2.33-1.6 4.34-12.37zM125.51 33.2c2.2 1.51 2.43 3.61.85 5.91l-.31.45-2.14-1.47.41-.6c.71-1.03.56-1.7-.16-2.2s-1.4-.39-2.11.64c-2.03 2.96 2.01 6.56-.82 10.67-1.58 2.31-3.64 2.83-5.86 1.31-2.22-1.53-2.47-3.63-.89-5.94l.61-.88 2.14 1.47-.71 1.03c-.71 1.03-.51 1.71.21 2.21s1.43.43 2.13-.59c2.03-2.96-2.01-6.56.82-10.67 1.58-2.31 3.62-2.85 5.82-1.33zM131.61 42.71c1.58-2.31 3.7-2.79 5.92-1.26 2.22 1.53 2.53 3.68.95 5.98l-5.14 7.49c-1.58 2.31-3.7 2.79-5.92 1.26-2.22-1.53-2.53-3.68-.95-5.98l5.14-7.49zm-2.98 9.19c-.71 1.03-.52 1.73.2 2.23s1.44.41 2.15-.61l5.34-7.78c.71-1.03.52-1.73-.2-2.23-.72-.49-1.44-.41-2.15.61l-5.34 7.78zM146.44 47.8l2.26 1.55-8.48 12.35 3.73 2.56-1.41 2.06-5.99-4.11 9.89-14.41zM152.2 69.05l9.8-10.57 2.08 1.43-12.11 12.88-3.38-2.32 7.67-15.93 2.28 1.57-6.34 12.94zM167.34 71.09l3.11 2.13-1.41 2.06-3.11-2.13-2.9 4.22 3.91 2.68-1.41 2.06-6.17-4.24 9.89-14.41 6.17 4.24-1.41 2.06-3.91-2.68-2.76 4.01zM180.93 71.49l3.58 2.46c2.26 1.55 2.51 3.57.93 5.88l-5 7.29c-1.58 2.31-3.56 2.8-5.82 1.24l-3.58-2.46 9.89-14.41zm.85 3.61l-7.07 10.29 1.28.88c.72.49 1.41.42 2.11-.61l5.14-7.49c.71-1.03.53-1.7-.19-2.19l-1.28-.88z" fill="#fff"/><rect x="70.43" y="31.97" width="133.66" height="41.15" rx="7.69" ry="7.69" transform="rotate(34.47 137.26 52.547)" fill="none" stroke="#fff" stroke-miterlimit="10" stroke-width="1.57"/></svg>