<svg xmlns="http://www.w3.org/2000/svg" viewBox="0 0 280 93"><g fill="#fff"><path d="M271.05 69.64l-9.37.28c-1.49.05-3.11.77-3.13 2.6-.03 2.55.53 5.29 1.33 7.66l14.25 1.2c1.46.12 3.16 1.45 3.7 2.42.58 1.06 0 4.26-1.24 4.81l-8.36 3.72c-1.4.63-2.68.54-4.07-.24-2.08-1.66-4.48-1.37-6.84-.33-1.91-1.34-3.87-1.65-5.95-.15-.83.44-3.41.43-4.01-.48-1.3-1.95-1.06-4.48-1.15-6.67l-.2-4.59c-1.68.01-2.9.57-3.61 1.78-1.21 2.05-2.78 2.17-4.95 2.49l-8.18 1.22c-1.63 1.37-3.07 2.2-5.55 1.87L220 79.75c-3.99-3.93-5.36-8.02-5.03-13.53.51-8.46 1.94-16.33 11.15-18.73l5.3-1.38c3.08-.8 7.88.5 7.82 2.78s-5.01 1.47-8.17 3.82c-1.97 1.47-4.24 4.64-4.32 7.06-.2 5.92 1.04 11.37 5.86 14.22 2.05 1.21 5.32-.17 7.35.41 1.9.54 3.41 1.26 5.59.7.89-4.12.87-8.16 1.05-12.37.17-4.16.63-8-.02-12.31 2.56-1.93 6.11-2.01 9.24-1.41 8 1.54 15.63-2.51 22.39 1.08.76.4 1.68 1.64 1.76 2.34.37 3.43-8.43 3.37-14.4 3.5l-6.4.14c-.56.01-2.03.12-2.28.58-.3.55-.58 1.63-.82 2.74s1.18 2.59 2.04 3.15c2.99 1.93 11.27-2.45 17.18 2.98.88 2.05-2.25 4.03-4.26 4.09zM38.65 45.41l-1.1 4.5c-.59 2.4-1.42 3.53-3.89 4.31l-3.86 3.73c-1.73 1.67-3.24 3.48-5.35 3.7-2.35.25-4.55-.56-6.42-1.87-4.17-2.93-6.27 4.15-9.85 2.47-3.58-1.68-.69-5.94-5.62-9.64C.03 50.71.13 48.27.22 45.5c.13-3.93-.85-8.3.49-12.07l1.42-4.02c1.58-4.46 5.25-10.5 8.79-11.41l12.75-3.3c4.02 1.42 9.13 2.85 10.52 5.99-.09 4.02-5.94 2.77-13.68 4.23-2.6.49-3.62 4.09-4.72 5.95-4.25 7.22-.04 15.27 2.65 15.87 2.32.52 5.3-2.62 4.89-4.78s-3.46-2.78-4.33-4.85c-.3-.71.74-2.42 1.44-2.86 2.85-1.78 6-1.18 9.08-.4 3.36.85 7.25 2.28 8.57 5.91.46 1.25.87 4.32.55 5.65zM192.14 67.11c-2.22 1.37 1.06 4.72-1.17 9.92-.62 1.43-1.7 3.37-2.9 3.7-1.83.5-3.76-.27-5.18-1.85-1.17-1.3-.94-4.03-.83-5.99l.33-5.89-.39-10.28c-.23-5.92-1.06-15.93 3.19-16.56s7.91 2.29 9.91 5.83c.45.8 2.71 1.63 2.9.87l1.12-4.34c.48-1.87.83-3.51 1.82-4.77 1.07-1.35 3.95-1.81 5.6-.97 1.11.57 2.35 3.13 2.45 4.41l.75 8.92c.29 3.44.27 6.47 1.06 9.89.94 4.09.89 14.52-1.61 17.74l-5.06 4.66c-.53.49-2.39.67-2.99.38-2.03-.97-.69-4.24-2.82-6.1-4.27-3.74-1.96-9.07-6.17-9.57zM132.69 67.49c-1.67-4.05-2.73-7.07-3.13-11.25l-1.14-4.15-2.72-10.59c-.85-3.32-1.52-6.33-2.94-9.55-.48-1.09-.44-2.32-.12-3.57.3-1.17 1.48-2.38 2.85-2.08 3.87.86 6.37 4.15 7.72 7.6l2.32 5.94c.78 2 1.44 3.49 2.91 5.66 1.58-3.39 2.04-5.9 2.5-9.1l.62-4.31 1.5-6.17c.8-3.3 4.72-4.01 7.44-2.93 1.31.52 2.86 1.09 3.21 1.98.44 1.13.08 3.4-.18 4.54l-1.38 5.95-1.08 6.22-1.33 7.55-2.73 11.2-3.04 9.87-1.57 3.39-2.14 4.14c-.55 1.07-3.29 1.81-3.73.82l-2.77-6.28-1.06-4.9zM64.32 58.02c-5.67-2.43-3.75-5.03-8.51-12.4-.28-.43-2.08-.53-2.33-.07-1.52 2.71 1.09 7.01-2.73 9.71-1.6 1.13-5.83 1.09-7.58.04-2.24-2.49-.86-5.94-.6-8.67l.92-9.73c.29-3.12-.44-7-1.19-10.13-.28-1.16-2.67-2.94-1.55-4.6.66-.97 2.59-2.78 3.76-2.97 8.07-1.35 10.01-1.58 17.85 2.31 3.13 1.55 5.88 3.6 6.65 7.2.33 1.52.19 5.01-.76 6.23l-3.81 4.86 3.62 4.64 4.34 6.26c1.58 2.28 1.03 4.31-.74 6.15-.96.99-2.23 2.07-3.38 2.38-1.42.38-2.82-.72-3.96-1.2zm-7.26-26.38c.42-.78.89-2.89.31-3.46l-2.09-2.06c-1.17-1.15-3.04-2.47-4.72-.92-.09 3.7.68 7.87 3.23 8.37 1.1.22 2.61-.72 3.27-1.93zM107.58 51.92l5.64.55c6.12.59 10.57.9 10.39 5.73-.12 3.19-3.27 3.35-5.36 6.08-1.05 1.38-3.68 3.85-5.47 2.28l-5.19-4.54-5.36.18-5.85.71c-2.66-2.24-2.2-5.53-2.32-8.7l-.19-5.2c-.11-2.88-.79-5.43-.65-8.34l.4-8.34c.04-.73-.43-2.39-.19-2.99.28-.7 1.66-1.75 2.46-1.84l10.77-1.29c1.93-.23 3.95.41 6 .78 2.49.45 6.61.47 7.75 3.27.77 1.89-2.48 3.22-4.16 2.93-4.84-.82-9.08-.88-14-.06.03 1.99.14 3.5.69 5.3.37 1.22 2.27 1.7 3.41 1.5 5.79-1 12.89 1.12 13.08 3.76.18 2.5-3.04 2.2-4.4 2.25l-9.09.34c-.96.04-1.48 2.52-1.15 3.41s1.74 2.15 2.81 2.25zM168.23 60.97c-.33-1.15-4.81-2.67-7.22-.86-1.05.79-.99 2.51-1.48 3.77l-3.28 8.34c-.31.79-1.26 2.01-1.97 2.09s-2.24-.29-3.23-.63c-.93-3.37-.85-6.92.02-10.36l1.39-5.49c2.02-8 3.1-15.86 7.63-22.9l3.18-2.77c10.74 1.02 12.77 14.17 14.49 24.26 1.43 8.38 2.99 18.98-4.77 21.73l-3.75-5.23c-2.42-3.38.38-7.03-1.01-11.95zm-5.11-6.87c.63.67 3.11-.01 3.61-.74 1.35-1.99.59-6.23-.94-7.42-.41-.32-2.15.03-2.27.54l-.52 2.29c-.35 1.52-1.23 3.89.13 5.33zM87.88 58.73l-5.31 1.31-2.88.96c-.74.25-2.24-1.48-2.33-2.38-.59-6-1.66-12.09-1.63-17.99l.05-11.34c0-1.11 1.08-2.77 1.92-3.22 1.11-.59 3.34-.3 4.25.55 1.4 1.31 2.33 2.59 2.83 4.35l1.6 5.66.94 4.7 1.43 8.77c.46 2.81.15 5.81-.86 8.61zM75.36 5.73c1.67 5.03 3.42 11.27.17 9.91-2.89-1.21-1.22-5.68-5.51-4.87l-.47 5.25c-.05.56-1.25 1.79-1.79 1.68s-1.96-1.11-2.03-1.76L64.37 4.46c-.08-.7.19-1.92.61-2.2s1.54-.54 1.99-.51l1.73 3.81c.17.37 1.56.63 1.89.35 1.42-1.18-.12-4.59 3.19-4.95l1.59 4.77zM85.95 10.36c-.71 1.71 3.77-.16 5.45 2.09.48.64-.55 2.59-1.34 2.77l-6.58.85c-.99.13-2.72-1.32-2.83-2.23l-1.04-8.53c-.14-1.17.07-2.73.47-4.05l7.23-.74c.45-.05 1.66.8 1.53 1.17l-.57 1.59-3.49 2.15 3.08 1.06c.86.29-1.07 1.89-1.89 3.86zM57.89 12.66c.05.67-.7 2.04-1.16 2.38-.54.4-2.23-.42-2.59-1.04L52.9 6.76c-.29-1.67-5.63 0-5.91-2.38s8.13-2.9 13.64-3.06c.71-.02 2.34 1.37 2.05 1.97S61.1 4.82 60.4 4.94l-2.09.35c-.52.09-.84 1.46-.81 1.99l.39 5.37z"/></g></svg>