<svg xmlns="http://www.w3.org/2000/svg" width="290" height="111" viewBox="0 0 290 111"><path d="M171.17 38.47a9.76 9.76 0 0 0-.17 2.13 7 7 0 0 0 .68 2.11c.52 1.1 1.11 2.18 1.72 3.23.4.67 1.11 1.14 1.08 2.07 0 .33.34.47.71.23a1 1 0 0 1 .7-.23c.26.07.45.35.67.54-.2.15-.4.43-.6.44-.77 0-.77.46-.48.95 1.17 2 2.37 4 3.56 5.94a6.79 6.79 0 0 0 .43.74 1 1 0 0 0 .54.32c.09 0 .28-.28.31-.45.17-1.24.25-2.48.47-3.7a12.44 12.44 0 0 1 .73-2.44c.08-.2.56-.33.85-.32.51 0 1-.05 1.06-.54a2.65 2.65 0 0 0-.11-1.56c-.23-.47-.54 0-.78.21s-.47.4-.71.6l-.23-.2c.1-.21.19-.43.3-.63a8.42 8.42 0 0 0 1.49-4 7.5 7.5 0 0 1 0-1.84 3.23 3.23 0 0 1 .89-1.39 2.26 2.26 0 0 0 .84-1.84 1.8 1.8 0 0 1 1.88-2.1c.67 0 1.33.22 2 .25a6.16 6.16 0 0 0 1.82-.1c1.19-.31 1.61-.2 2.33.79a1.9 1.9 0 0 0 .68.44c.31.17.66.28 1 .47.52.32.49.66.08 1.13-.85 1-.81 1.09.11 2 .75.75.79 1 .38 2a3.26 3.26 0 0 0-.23 1c-.06.6.06 1 .86.85a1.67 1.67 0 0 1 1.72 1.87c-.11.55-.6.6-1 .46-.88-.32-1.1.16-1.28.85-.25.93-.17 1.14.63 1.53.15.07.38.25.36.33s-.24.29-.33.45-.45.56-.44.84a12 12 0 0 0 .29 1.76 5.93 5.93 0 0 1 .06.84c0 .93 0 1.85-.07 2.78s-.17 1.63-.2 2.46a7 7 0 0 0 .06 1.89 31.5 31.5 0 0 0 1.09 3.37 6.15 6.15 0 0 0 .76 1.12 4.79 4.79 0 0 1 .6 1c.18.54.45.76 1 .51.78-.38 1.2-.09 1.49.67.16.43.47.81.65 1.24a.91.91 0 0 1-.75 1.37 2 2 0 0 0-1.7 1.3c-.28.69-.61 1.36-.85 2.06a4 4 0 0 1-5.39 2.23 7 7 0 0 1-2.82-2.39c-.23-.37-.71-.58-1.06-.88a9.43 9.43 0 0 1-1.6-1.48c-.62-.89-.4-1.56.57-2.32l.66-.53c-1.07-.64-1.12-.66-.62-1.8a3.69 3.69 0 0 0-.37-3.44c0 .2-.05.39-.06.58a4.87 4.87 0 0 1 0 1c-.08.42-.3.77-.81.39s-.57-.09-.87.21a12 12 0 0 0-2.62 4.18c-.16.38-.69.6-1 .93a3 3 0 0 0-.81 1.06 1.75 1.75 0 0 1-1.1 1.3 1.31 1.31 0 0 1-.8-.14 8.68 8.68 0 0 0-1.12-.52c-.4-.09-.6-.19-.54-.65a21.7 21.7 0 0 0 .18-2.55 2.48 2.48 0 0 0-.4-1.15c-1.24-2.18-2.5-4.36-3.79-6.52-.67-1.11-1.43-2.16-2.15-3.24h-.24c.06.9.13 1.81.18 2.71a12.87 12.87 0 0 1 0 2.32c-.13 1-.45 2-.66 3a1.7 1.7 0 0 0 0 .92 8.65 8.65 0 0 1 .28 3.12 4 4 0 0 1-.45 1.4c-.14.4-.3.8-.42 1.1.43.21 1 .31 1 .51a7.85 7.85 0 0 1 0 1.75c-.18 0-.42.06-.54 0s-.17-.9-.78-.57a1.49 1.49 0 0 0-.26 1.78 2.67 2.67 0 0 0 .36.31c.7.64.67 1 0 1.63a1.46 1.46 0 0 0-.42.86c-.09.9-.06 1.82-.14 2.73 0 .42-.22.83-.27 1.25 0 .25 0 .64.11.74 1.08.77 1 1.89 1 3a11.4 11.4 0 0 0 .79 4.75 4 4 0 0 1 .56 2.39c0 .36.29.77.71 1.3-.51.21-1 .41-1.53.63s-1.07.5-1.61.72-1 .33-1.51.5c-.78.27-1.54.6-2.33.82a5 5 0 0 1-1.4.08c-.25 0-.51-.2-.75-.17-1.05.15-1.43-.7-2-1.3-.09-.1 0-.45.12-.67.36-1 .75-2.08 1.11-3.12a.31.31 0 0 0 0-.3c-.69-.54-.23-1.13-.16-1.75a8.94 8.94 0 0 0 0-4c-.13-.38.1-.87 0-1.29-.12-.66.44-.57.72-.81a.81.81 0 0 0 .16-.67 13.86 13.86 0 0 1-.38-1.64 18.11 18.11 0 0 1 .39-5.58 6.47 6.47 0 0 0 0-2.32c0-.23-.34-.44-.54-.65s-.45-.31-.44-.43a1 1 0 0 1 .38-.67c.47-.23.62-.54.26-.9s-.2-.77 0-1.19a3.74 3.74 0 0 0 .42-1.37c0-2.1-.15-4.2-.2-6.3v-5.45c0-1.82.09-3.37.19-5.06a39.27 39.27 0 0 1 .43-4.48 13.14 13.14 0 0 0-.41-6 1.6 1.6 0 0 1 1.39-2.19c.69-.12 1.4-.09 2.09-.15a6.91 6.91 0 0 0 .91-.15 4.4 4.4 0 0 1 .82-.23c.83 0 1.67.13 2.09-.87.08-.02.37-.04.54-.11zm-3.12 45.07l.29-.08-.29-1.19-.29.07c-.16.45-.26.89.29 1.2zM166.14 89h-.29v1.29h.23zM17.66 97.56a5.27 5.27 0 0 1-4.37-2.44 4.87 4.87 0 0 1-.48-2.59c0-.7-.05-1.14-.71-1.45-.24-.12-.39-.43-.59-.65a3.06 3.06 0 0 0 .61-.51 1.8 1.8 0 0 0 .46-.94c-.1-1.37-.27-2.74-.46-4.1a1.24 1.24 0 0 1 .75-1.5c.85-.4.87-1 .24-1.69a1.76 1.76 0 0 1-.39-.89 7.39 7.39 0 0 1-.05-1.56 2.48 2.48 0 0 0-.67-2.12 1.6 1.6 0 0 1-.16-1.18c.1-.57.43-1.09.54-1.66a1.36 1.36 0 0 0-.31-.89 12.32 12.32 0 0 0-.88-.89 1.91 1.91 0 0 1-.4-2c.39-1.29.77-2.61-.31-3.91-.38-.45-.26-1.34-.32-2 0-.28.1-.56.09-.84-.09-2.15-.25-4.3-.28-6.45 0-1.86.09-3.72.08-5.58a1.58 1.58 0 0 0-.41-1.16A4.21 4.21 0 0 1 8.2 48.3a1.4 1.4 0 0 0-1.39-1.1c-1.48-.2-3.06.1-4.42-.73a17.26 17.26 0 0 1-2.25-1.64.88.88 0 0 1-.05-.83 18.4 18.4 0 0 1 2.23-2c.66-.5.71-.55.16-1.16a.76.76 0 0 1 0-.7c.29-.5.66-1 1-1.44a2 2 0 0 1 1.96-.7 2.9 2.9 0 0 1 2.42 1 1.16 1.16 0 0 0 .63.41 16.14 16.14 0 0 0 5.24.63c2-.18 4 0 6 0 .94 0 1.87-.1 2.8-.13a5.19 5.19 0 0 1 3.5.76 7.43 7.43 0 0 0 1.86.73l1.38.5c2.39.81 4.79 1.57 7.16 2.44a26.54 26.54 0 0 1 2.39 1.31c1 .5 2 .9 3 1.4 1.65.83 3.5 1.42 4.21 3.43.22.61.22 1.34.9 1.74.08 0 .07.29 0 .43-.07.93-.19 1.86-.23 2.79 0 .5-.2.77-.71.85-.23 0-.58.19-.63.36-.23.79-.9 1-1.53 1.17A9.6 9.6 0 0 0 39.7 61a.93.93 0 0 0-.23.48c0 1.38-1.1 1.7-2.09 1.92-2.48.55-5 1-7.49 1.45-1.56.28-3.16.35-4.7.69A38.16 38.16 0 0 0 21 66.82c-.19.06-.46.39-.42.49.27.69.08 1.59.86 2.06 1.88 1.14 2.08 2.19 1.32 4.38a4.63 4.63 0 0 0-.1 2.13c0 .29.52.6.87.74 1.25.53 1.29.65.48 1.74-.09.12 0 .43.09.6.24.43.59.8.8 1.24a1.45 1.45 0 0 1-.78 2.07l-.9.46a1.24 1.24 0 0 0-.76 1.64 2.24 2.24 0 0 1-.05 1.15 7.28 7.28 0 0 0 .28 4.06c.29 1.11.11 1.72-1 2a1.09 1.09 0 0 0-1 1.44c.07.38 0 .78.13 1.15a2.53 2.53 0 0 1-2.32 3.36c-.26.02-.5.01-.84.03zm1.78-51.93v.27a4 4 0 0 0 .48.19c1.53.45 1.81 1.13 1.12 2.55a14.3 14.3 0 0 0-.75 2.11c-.26.82-.39 1.69-.72 2.47-.7 1.71.1 3 1.07 4.25a2.19 2.19 0 0 1 .73 1.85 17.28 17.28 0 0 1-.35 1.74c-.26.9-.18 1 .74.84a1.47 1.47 0 0 0 .3-.08c2.45-1 5.12-1.14 7.47-2.61a9 9 0 0 0 4.22-4.83 2.37 2.37 0 0 0-.12-1.7 12.34 12.34 0 0 0-6-5.59 39.16 39.16 0 0 0-5.51-1.59 7.71 7.71 0 0 0-1.93-.14 2.47 2.47 0 0 0-.75.27zM124.81 76.06a.72.72 0 0 0-.2.09 71.43 71.43 0 0 1-7.18 4.31c-1.52.85-3 1.84-4.5 2.68s-2.83 1.44-4.28 2.07c-.93.39-1.49.12-2.11-.74a1.32 1.32 0 0 0-1.4-.64c-2 .39-4.08.8-6.12 1.21l-.22.07c-2.13.64-2.54.5-3.88-1.3a1.46 1.46 0 0 1 .08-1.93q2.12-2.8 4.25-5.58.57-.75 1.17-1.47a1.73 1.73 0 0 0 .39-1.67 1.5 1.5 0 0 1 .55-1.67c1.35-1.1 2.72-2.17 4.06-3.28 1.78-1.47 3.55-3 5.33-4.44a2.18 2.18 0 0 1 .63-.44c2.18-.8 3.64-2.56 5.37-4 .25-.21.28-.7.42-1.07a3.42 3.42 0 0 0-1.24-.16c-1.26.31-2.49.75-3.74 1.11-.54.15-1.12.2-1.67.32-2.15.48-4.27 1.06-6.43 1.43a26 26 0 0 0-5 1.81 3.47 3.47 0 0 1-.63.09 4.79 4.79 0 0 0 .38-1 1.06 1.06 0 0 0-.18-.77c-.13-.13-.49-.09-.72 0s-.51.27-.79.34-.54.07-.62 0c-.53-.74-1-.45-1.6-.06-.12.09-.26.16-.51.31a2.45 2.45 0 0 1 1.12-2.07A21 21 0 0 1 99 57.12a9.68 9.68 0 0 1 2.58-.51 11.4 11.4 0 0 0 5.14-2.29 1.21 1.21 0 0 1 .16-.16c2-1.13 4-2.4 6.42-2.26.47 0 .67.22.65.67-.06.79.4 1 1.07 1 1.22-.11 2.44-.25 3.66-.32a10.15 10.15 0 0 1 1.55.09c1.81.15 3.63.23 5.42.51a1.44 1.44 0 0 1 .68 2.55c-.67.62-1.43 1.13-2.1 1.75a3 3 0 0 0-.93 1.22 5.2 5.2 0 0 1-2 2.51c-3 2.46-6 4.89-9 7.34a1.47 1.47 0 0 0-.72 1.45c0 .26-.24.61-.46.85-1.39 1.44-2.82 2.85-4.17 4.32a4.69 4.69 0 0 0-.61 1.34 4.37 4.37 0 0 0 1.45 0 13.54 13.54 0 0 0 5.89-4 10 10 0 0 1 5.46-3.25 18.56 18.56 0 0 0 2.23-.9c.55-.23 1.1-.47 1.66-.67 1.63-.59 3.28-1.15 4.9-1.76a3.15 3.15 0 0 0 .9-.6c.66-.55 1.28-1.14 1.94-1.69.32-.27.56-.48.36-1a.89.89 0 0 1 .33-.74 9.91 9.91 0 0 1 4.93-1.71 15.7 15.7 0 0 1 3.42.17 3.39 3.39 0 0 1 1.49.77c.73.55 1.2.66 1.88.09a1.28 1.28 0 0 1 1.64-.17c1.35.82 2.69 1.64 4 2.49.19.13.28.43.4.65.43.85.87 1.7 1.29 2.56a1.23 1.23 0 0 1 .2.65 3.86 3.86 0 0 0 .64 2.21 5.49 5.49 0 0 1 0 5.5 2.51 2.51 0 0 0-.32.71c-.31 2.11-2 3.11-3.49 4.22-.6.44-1.06 1.14-1.71 1.41-1.38.56-2.85.93-4.28 1.37-.42.13-.86.2-1.27.35a2.94 2.94 0 0 1-2.83-.12.82.82 0 0 0-1.18.17 2.15 2.15 0 0 1-.81.56.83.83 0 0 1-1.11-1.05c.22-.95 0-1.31-1-1.15-2.84.46-4.61-.89-5.81-3.29a2.19 2.19 0 0 0-.41-.55c-.74-.78-1.49-1.52-2.32-2.35zm8.44-.26a5.51 5.51 0 0 0 .3.92 5.35 5.35 0 0 0 2.51 2.14 1.35 1.35 0 0 0 1.47-.07 3 3 0 0 1 2.53-.39 1.55 1.55 0 0 0 1.25-.35c1.26-1.44 2.44-3 3.64-4.45a1.17 1.17 0 0 0 .27-.56c.09-1.35.45-2.74-.53-4a10.45 10.45 0 0 1-.58-1.1 3.12 3.12 0 0 0-2-1.53c-1-.22-1.92-.59-2.89-.84a15.9 15.9 0 0 0-2.35-.43 2.81 2.81 0 0 0-1 .33 3.58 3.58 0 0 0 .56.85c.41.36.66.86.22 1.18a5.48 5.48 0 0 0-1.75 2 .38.38 0 0 1-.19.13 2.77 2.77 0 0 0-1.71 2.66c-.1.77.09 1.08.88 1.25a4.82 4.82 0 0 1 .68.16 1.51 1.51 0 0 1 .95 1.52c-.17.66-.6.86-1.49.7z" fill="#fff"/><path d="M86.72 71.62a3.43 3.43 0 0 0-.2.81 7.62 7.62 0 0 1-.88 3.2 2.27 2.27 0 0 0 0 1.32c.12.68.43 1.33.53 2a5.18 5.18 0 0 0 .76 2.3 2.89 2.89 0 0 1-.31 3 9.07 9.07 0 0 1-1.54 2 12.26 12.26 0 0 1-1.79 1.17 27.25 27.25 0 0 0-2.41 1.68 2.7 2.7 0 0 1-2.15.71l-2.83-.31c-.18.82-.61.66-1.21.65-1.71-.05-2.2-1.54-3.19-2.44a6.81 6.81 0 0 1-.65-.83l-.32.2c.11.39.21.78.33 1.16a16.94 16.94 0 0 0 1.2 3.45 26.64 26.64 0 0 1 1.41 2.83A5.57 5.57 0 0 1 73 100c-.81 1.37-1.39 2.88-2.1 4.32a4.2 4.2 0 0 1-.72 1.19 12.5 12.5 0 0 1-4.07 3.21c-1.16.46-2.24 1.11-3.37 1.65a4.73 4.73 0 0 1-3 .35 12.17 12.17 0 0 0-2.18-.08 7.62 7.62 0 0 1-5.18-2 28.05 28.05 0 0 0-4.08-2.41 7.8 7.8 0 0 0-1.32-.67c-.65-.23-.83-.62-.54-1.2.67-1.31 1.3-2.65 2.07-3.9s1.52-1.3 2.61-.45a26.6 26.6 0 0 0 6.28 3.26 5.2 5.2 0 0 0 5-.14 6 6 0 0 0 2.83-3.28 3.3 3.3 0 0 1 .32-.72 3.87 3.87 0 0 0 .45-2.91 13.79 13.79 0 0 1-.32-2.87 10.29 10.29 0 0 0-.8-4 9.71 9.71 0 0 1-.31-2.68c-.07-.58-.2-1.16-.28-1.74-.16-1.21-.3-2.42-.48-3.62-.1-.66-.25-1.31-.4-2-.27-1.21-.54-2.42-.85-3.62a13.58 13.58 0 0 0-.61-1.65 9.48 9.48 0 0 0-.83-1.83c-.83-1.17-1-2.76-2.25-3.65a.73.73 0 0 1-.28-.27c-.52-1.14-1-2.3-1.53-3.45-.08-.18-.16-.42-.31-.5-.62-.34-.6-.85-.5-1.42s.16-1 .22-1.54.16-1.35.82-1.45a3.11 3.11 0 0 1 1.63.49c.67.35 1.28.84 1.94 1.21a1 1 0 0 1 .35 1.41 2.4 2.4 0 0 0-.32 1.37 14 14 0 0 0 1 3.25c.84 1.69 1.84 3.31 2.8 4.94.1.18.44.43.54.38a2.12 2.12 0 0 0 .94-.71 2.15 2.15 0 0 0 .12-1.06 12.28 12.28 0 0 1 1-4.63c.12-.31.51-.75.75-.74a1.34 1.34 0 0 1 .91.67A3.17 3.17 0 0 0 70.28 68c.4.23.58.79.89 1.19s.42.64.69.7a2.13 2.13 0 0 1 1.77 1.86 11.27 11.27 0 0 0 1.66 3.82c.3.57.45 1.23.8 1.76a5.22 5.22 0 0 0 1.22 1.12 2.66 2.66 0 0 1 1.36 2.46 2.09 2.09 0 0 0 .19.47 2.7 2.7 0 0 0 .3-.73c-.06-1.6.29-3.39-.32-4.76a19.94 19.94 0 0 1-1.14-5.59 2 2 0 0 0-.49-1.1 2 2 0 0 1-.52-2.35c.25-.79.54-1.57.84-2.34.37-1 .87-1.06 1.64-.42a1.64 1.64 0 0 0 2.23.07c.63-.46 1.07 0 1.51.26A16.34 16.34 0 0 0 88.36 59a16.85 16.85 0 0 1 1.58-2.16 2.29 2.29 0 0 1 1.18-.69c.15 0 .4.58.66.83a13.27 13.27 0 0 0 1.62 1.38c.68.47.77.78.11 1.29s-1.34.86-2 1.32a3.15 3.15 0 0 0-.52.72 7.14 7.14 0 0 1-.93 1.17c-.5.43-1.17.69-1.3 1.47a.49.49 0 0 1-.28.34c-.9.19-1.79.37-2.7.52a7.46 7.46 0 0 0-1.87.29c-.3.14.59 1.65 1.22 2l.57.26c.38-1.55 1.52-1.13 2.56-1.07a2.21 2.21 0 0 0 1.14-.3c.83-.47 1.6-1 2.43-1.51a.79.79 0 0 1 1.17.72 11.22 11.22 0 0 1 0 4.58 2 2 0 0 0 .4 2c1 1.13.55 2.48.49 3.75a2.28 2.28 0 0 0 .52 1.8 1.6 1.6 0 0 1 .24 1.75c-.36 1-.68 2-1 2.92a3.11 3.11 0 0 1-.21.5c-.69 1.12-1.34 2.27-2.09 3.35a2.26 2.26 0 0 1-1.17.63c-.41.11-.7-.14-.74-.6s-.08-1.19-.16-1.78c-.23-1.56-.59-3.11-.7-4.67-.18-2.44-1.55-4.65-1.33-7.16a3.5 3.5 0 0 0-.28-1.1zM66.5 74.06c-.87.49-1 1-.34 1.72.14.14.17.38.28.55.25.36.51.7.76 1 .14-1.19.36-2.33-.7-3.27zM51 52.8c-.16-.78-.31-1.57-.49-2.34-.24-1-.48-2-.76-3a2.57 2.57 0 0 0-.45-.71c-.22-.32-.57-.6-.66-.95A1.67 1.67 0 0 0 47 44.49c-1.39-.15-2.79-.31-4.17-.54a3.14 3.14 0 0 1-1.23-.6 15 15 0 0 1-1.36-1.29 4.73 4.73 0 0 1-.37-.4 10.38 10.38 0 0 1-1-5.6c.22-.64.45-1.27.68-1.91a1.54 1.54 0 0 1 1.69-1.06c.8 0 1 .49 1.21 1.08.37 1 .71 2.07 1.17 3.06a3.08 3.08 0 0 0 1.06 1.18 4.92 4.92 0 0 0 3.72 1.08 2.48 2.48 0 0 1 .91.15A2.77 2.77 0 0 0 52.75 38c.23-.44.41-.9.62-1.35a2.68 2.68 0 0 1 .46-.89 4.51 4.51 0 0 0 1.22-4 3.14 3.14 0 0 1 .32-1.59 2 2 0 0 0 0-1.62A7 7 0 0 1 55 26a5.8 5.8 0 0 0-.72-3.29c-.65-1.3-1.33-2.59-2-3.87-.1-.19-.31-.44-.49-.45-.62-.06-.78-.49-1-1a19.79 19.79 0 0 0-1-2.37 1.22 1.22 0 0 0-.88-.58c-2.93.08-5.9-.1-8.68 1.15a2.72 2.72 0 0 1-1 .19.69.69 0 0 1-.48-.2c-.58-.68-.53-3.14.1-3.74a1.46 1.46 0 0 1 .71-.24c.68-.14 1.36-.29 2-.37s1.29-.06 1.94-.13c1.54-.18 3.1-.31 4.62-.61.84-.16.88-.48.45-1.24l-1-1.78A1.51 1.51 0 0 1 48 5.33c.59-.59 1.19-1.17 1.76-1.78A1.2 1.2 0 0 0 50 2.06a3 3 0 0 1-.19-1 .75.75 0 0 1 .78-.88c1-.06 2.07-.16 3.11-.12.34 0 .91.36 1 .63A2.18 2.18 0 0 0 56 2.35a1.14 1.14 0 0 1 .73 1.51 8.55 8.55 0 0 1-1 2.5 1.45 1.45 0 0 0 .12 1.26c.84 1.15.86 1 2.32.68a86.67 86.67 0 0 1 12.67-2.7 18.3 18.3 0 0 0 4.72-1.3 18 18 0 0 1 5.29-1.25c.23 0 .47.19.71.3a2.94 2.94 0 0 1-.51.49c-1 .54-1.9 1.07-2.87 1.55-.46.23-1 .33-1.46.53a38.71 38.71 0 0 1-7.5 2.38c-2 .45-4 .74-6 1.29s-3.95 1.29-5.89 2c-.84.32-.88.76-.28 1.41a5.83 5.83 0 0 1 1.47 3.86 3.21 3.21 0 0 0 1 2.37 8.4 8.4 0 0 1 2 4.31 24.17 24.17 0 0 1-.2 11.59c0 .22-.06.45-.12.83l2.23-.63a2.6 2.6 0 0 1 1-.15 12.7 12.7 0 0 1 5.37 1.62 11.67 11.67 0 0 1 2.34 2.83 2.35 2.35 0 0 1 .26.7h.21a3.48 3.48 0 0 0 .13-.89 8 8 0 0 1 .75-4.1 5.54 5.54 0 0 1 3.21-3c1.08-.44 2.18-.84 3.26-1.29a1.75 1.75 0 0 1 2 .28c.48.4 1 .81 1.46 1.17a1.8 1.8 0 0 0 1 .45c.79 0 1 .41 1.06 1 .08 1.24.1 2.49.23 3.73a13.17 13.17 0 0 0 .47 2.41c.17.55.33 1-.09 1.53a1.37 1.37 0 0 1-1.48.47 6.53 6.53 0 0 0-3.69.17 13.1 13.1 0 0 1-1.39.3 3.06 3.06 0 0 0 .4.61c.69.7 1.43 1.36 2.09 2.08a1.61 1.61 0 0 0 1.45.58c.8-.08 1.6-.11 2.4-.22 1.46-.2 2.06-1.34 2.64-2.5a4.08 4.08 0 0 1 .82-.9c.24.4.67.8.68 1.21a20.23 20.23 0 0 1-.17 3.73c-.06.38-.64.78-1.07 1a23.29 23.29 0 0 1-2.8 1.11 32.75 32.75 0 0 1-3.5 1.05c-1.27.29-4-1.1-4.63-2.26a1.41 1.41 0 0 0-.37-.49 11 11 0 0 1-3.71-3.5l-.2.06v1.68a3.8 3.8 0 0 1-.13 1.36 6.5 6.5 0 0 1-2.37 3 21.21 21.21 0 0 1-2.75 1.54 4.41 4.41 0 0 1-3.18.38 13.84 13.84 0 0 0-2.38-.08c-.81-.09-1.51-.3-1.72-1.27a3 3 0 0 0-.68-1c-.69-.86-1.4-1.7-2.09-2.57a1 1 0 0 1-.24-.55c-.07-.9-.06-1.8-.17-2.69a7.59 7.59 0 0 1 1.09-5 6.05 6.05 0 0 0 .37-.91c-.84.06-1.37.35-1.54 1-.58 2.3-2.17 3.77-4 5.09a1.74 1.74 0 0 0-.53 1.21c0 1.25.14 2.49.15 3.74a5.14 5.14 0 0 1-.33 1.25 3.59 3.59 0 0 1-.68-1c-.17-.6-.13-1.25-.27-1.85-.06-.24-.35-.43-.54-.65a2.28 2.28 0 0 0-.28.73v4.68a5 5 0 0 1-.08.66zm18.59-10a2 2 0 0 0-.83-1.54 4.57 4.57 0 0 1-.93-1.16 10 10 0 0 1-.61-1.42c-.19-.5-.41-.49-.8-.17a12.94 12.94 0 0 1-1.68 1.17c-.53.32-.9.59-.49 1.28a1.42 1.42 0 0 1 0 .91 13 13 0 0 1-.46 1.73 4.36 4.36 0 0 0 .21 3.86A4.08 4.08 0 0 0 68.16 50a.75.75 0 0 0 .54-.35 26.32 26.32 0 0 0 1-2.6 2.6 2.6 0 0 0-.12-1.05 3.45 3.45 0 0 1-.14-.6c.03-.88.1-1.72.16-2.57zm10-4.62v.08a3.48 3.48 0 0 0 .55 0c.49-.06 1-.15 1.49-.23-.18-.41-.34-.82-.52-1.23-.05-.11-.14-.22-.2-.33-.51-1-1.63-.88-2.46-1.28a.41.41 0 0 0-.33.15 19.34 19.34 0 0 0-1.38 2.13c-.3.58 0 .93.69.86s1.48-.06 2.2-.12z" fill="#fff"/><path d="M116.34 40.1c-.24.89-.42 1.53-.59 2.17-.27 1-.63 1.34-1.69 1.54a2 2 0 0 0-.9.54c-.53.52-1 .48-1.44-.07-.86-1-.92-1-.82-1.7 1.11.07 1.13 0 .95-1.18s-.37-2.61-.52-3.91c-.06-.46-.26-.61-.71-.75a12.53 12.53 0 0 1-2-1 11.16 11.16 0 0 0-.08 2.29 9.57 9.57 0 0 1 .07 4.09 5.51 5.51 0 0 1-.89 1.45c0 .09-.18.12-.23.21a27.72 27.72 0 0 0-1.61 2.58c-.52 1.06-.94 1.19-1.66.26a13.81 13.81 0 0 1-1.22-1.94c-.35-.68-.61-.78-1-.17a3.56 3.56 0 0 1-1.71 1.24c-.82.34-1.46 1.1-2.27 1.49-1.48.72-1.45 1.89-1.22 3.21a7.46 7.46 0 0 1 .14 1.7c0 .28-.28.54-.43.81a2.93 2.93 0 0 1-.62-.71 4.64 4.64 0 0 1-.15-1 8 8 0 0 0-.27-.78h-.27a3.37 3.37 0 0 0-.12.94c.17 1.42.38 2.83.56 4.25A5.25 5.25 0 0 1 95.7 57c0 .2-.27.51-.44.52s-.38-.26-.57-.42v-.15L94 51.56a6.72 6.72 0 0 0-.16-1c-.34-1.14-.47-1.15-1.45-.5a1.26 1.26 0 0 1-1 .06 3.54 3.54 0 0 1-1.18-1 .86.86 0 0 1 .08-.83c.35-.38.64-.63.07-1a.77.77 0 0 1-.13-.63c.2-1 .43-2.07.66-3.1.05-.2.07-.49.2-.57.79-.47.65-1.21.65-1.94a9.66 9.66 0 0 0-.49-3.44 6.35 6.35 0 0 1 0-2.46c0-.73.26-1.44.29-2.16a2.77 2.77 0 0 0-.28-1.49 4.26 4.26 0 0 1-.34-2.78 11.73 11.73 0 0 0-.1-2.37c-.1-.82-.33-1.62-.47-2.44-.22-1.27-.37-2.54-.61-3.81s-.54-2.42-.84-3.62a1.2 1.2 0 0 1 1.37-1.35 18.43 18.43 0 0 1 2.4.63.75.75 0 0 1 .38.6c0 1-.16 2-.17 3 0 1.41 0 2.82.13 4.22a7.55 7.55 0 0 0 .38 1.26 8 8 0 0 1 .16 1v.51c1 .44.66 1.57 1.21 2.27a2.2 2.2 0 0 1-.13 2.31 2 2 0 0 0 .22 2.38 3.13 3.13 0 0 1 .36 1.69 7.65 7.65 0 0 0 .64 3.32 7.84 7.84 0 0 1 .39 2.37c.11.82.31.89 1.08.54a26.35 26.35 0 0 1 3-1.21c.37-.11.86.15 1.29.26s.65.21 1 .32a3.55 3.55 0 0 0 .23-.92c0-.7-.13-1.4-.19-2.1a3.81 3.81 0 0 1 0-1.16 13.4 13.4 0 0 0 .18-3.16 4.52 4.52 0 0 0-.81-3c-.65-.78-.57-1.67-.94-2.45a.74.74 0 0 1 .4-1.1c.57-.24.56-.68.42-1.17a8.3 8.3 0 0 1-.36-1.27 1.63 1.63 0 0 1 1.46-2.08 1.09 1.09 0 0 1 1.29.59c.58.88 1.2 1.74 1.85 2.57.15.18.54.15.76.29s.84.46.94.79c.25.91.33 1.88.49 2.82a6 6 0 0 0 .22 1.13.73.73 0 0 0 1.06.48 2.52 2.52 0 0 1 2.17.22 16.83 16.83 0 0 0 2.17.85 3 3 0 0 1 1.83 3.34 2.83 2.83 0 0 0 .39 2.53c.11.14.33.19.5.28.1-.17.26-.33.27-.51.06-.57 0-1.14.08-1.71a2.12 2.12 0 0 1 .25-.61c.19.1.4.18.58.29s.12.2.2.24.45.17.67.26c0-.26.18-.55.1-.76-.34-.87-.83-1.69-1.1-2.58a6 6 0 0 1-.17-2.12c.08-1.31.53-2.56 0-3.92-.17-.45.32-1.24.66-1.79a12 12 0 0 1 1.37-1.67 4 4 0 0 1 .7-.6 4.32 4.32 0 0 0 .77-.52 7.07 7.07 0 0 1 3.61-1.89 2.19 2.19 0 0 1 1.49.12 3.51 3.51 0 0 0 2.27.25 4 4 0 0 1 4.22 2c.65 1.09 1.53 2 2.23 3.08a8.82 8.82 0 0 1 1.65 3.8 5.06 5.06 0 0 0 .33 1.67 2.66 2.66 0 0 1-.08 2.4c-.72 1.62-1.48 3.21-2.23 4.81a31.83 31.83 0 0 1-1.76 3.73 10.7 10.7 0 0 1-2.24 2.32 15.78 15.78 0 0 1-2.14 1.29 5 5 0 0 1-2.88.45 4.58 4.58 0 0 1-3.52-1.56 2.29 2.29 0 0 0-.76-.54A2.26 2.26 0 0 1 120 42.7c-.31-.83-.68-.92-1.56-.77a1.2 1.2 0 0 1-.85-.39 19.27 19.27 0 0 1-1.25-1.44zm13.45-6.92a5.59 5.59 0 0 1-.4-.51c-.5-1-1-2-1.47-3-.75-1.6-1.44-1.85-2.86-1a1.94 1.94 0 0 0-.94 2.62A1.92 1.92 0 0 1 124 33a3.05 3.05 0 0 0-.24 1.38c0 .91.11 1.81.21 2.71a3.77 3.77 0 0 0 .28 1.11c.44 1 .91 2 1.36 2.95.24.5.63.52 1 .09.16-.17.39-.38.59-.38a3.62 3.62 0 0 0 3.43-2.74q.36-1.3.78-2.61a9.49 9.49 0 0 0 0-5.23c0-.17-.29-.3-.44-.45a1.82 1.82 0 0 0-.34.46c-.27.93-.52 1.83-.84 2.89zm1.58-4.82c-.53-.38-.89-.65-1.28-.88 0 0-.4.4-.37.44a6.54 6.54 0 0 0 .91 1.06 9 9 0 0 0 .74-.62zm-40.61-9.64c-.35.68.14 1.81 1.42 2.79zM34.41 68.22a8.45 8.45 0 0 1 1-.83c2.35-1.44 5-.84 7 .43.76.48.77 1.77.12 2.74l-.53.79a3.56 3.56 0 0 0 2.35-1.18 3.55 3.55 0 0 1 2-1.32c.81-.18 1.58-.56 2.39-.7a10 10 0 0 1 2 0 4.24 4.24 0 0 0 .77.09 4 4 0 0 1 3 .42.54.54 0 0 0 .38 0c1.65-.44 2.69.59 3.46 1.7a30.65 30.65 0 0 1 2 4.1c.09.17.15.36.21.49.31-.1.69-.31.76-.24.32.34.81.79.77 1.16-.12 1.44-.42 2.86-.67 4.29 0 .13-.16.23-.26.36a2 2 0 0 0-2.74 0 3.28 3.28 0 0 1-2.66.79 8.79 8.79 0 0 0-5.54.55 2.49 2.49 0 0 1-2.78-.84c-.33-.49-.57-1-.92-1.54-.85-1.16.06-2.22 1.08-2.54a13.37 13.37 0 0 1 5.42-1c.25 0 .65-.09.73-.26s0-.54-.18-.77a8.76 8.76 0 0 1-.87-1.28c-.46-1.14-1.35-1.3-2.4-1.29a3.19 3.19 0 0 0-2.6.94 41.65 41.65 0 0 0-3 3 6.43 6.43 0 0 0-1 2.87 10.12 10.12 0 0 0 .16 3 2.1 2.1 0 0 0 .71 1.15 19.26 19.26 0 0 0 2.83 2 9.54 9.54 0 0 0 2.52.74c.17 0 .46-.24.6-.43.39-.55.78-1.12 1.54-1a3 3 0 0 1 1 .61c.17.13.36.45.46.42.8-.27 1.78-.1 2.36-1a1.72 1.72 0 0 1 2-.69 1.41 1.41 0 0 1 1.08 1.7c-.12.6 0 1 .64 1.11s.62.39.33.9a4.92 4.92 0 0 1-2.83 2.63.62.62 0 0 0-.41.41c-.13.81-.69 1.08-1.38 1.3A2 2 0 0 0 54 93.41c-.09.27-.47.63-.7.62-.94 0-1.88-.22-2.81-.36-.18 0-.33-.16-.51-.19a22.23 22.23 0 0 1-4.74-1.06c-1.17-.54-2-1.78-3-2.73-.12-.12 0-.44-.09-.6a4.71 4.71 0 0 0-.63-.72 5.47 5.47 0 0 1-.57.51c-.27.19-.64.54-.83.47a1.83 1.83 0 0 1-1-.82c-.18-.44.26-.64.69-.72a4.3 4.3 0 0 0 .75-.29c-.2-.19-.42-.37-.61-.58-.65-.72-1.88-.78-2.19-1.87a7.07 7.07 0 0 1-.3-1.64v-3.51a1.23 1.23 0 0 0-.32-.67 2.17 2.17 0 0 1 0-2.73 2.87 2.87 0 0 0 1.09-2.43c0-.15.08-.31.09-.46 0-.45.22-1.09 0-1.31-.42-.41-1.9 0-2.29.39a5.58 5.58 0 0 0-1.2 5.29 22.1 22.1 0 0 1 .54 2.24c.06.59-.22 1.21-.2 1.81 0 1.21.13 2.41.26 3.61a2.61 2.61 0 0 1-1.15 2 2.45 2.45 0 0 1-3.54-.53 5.74 5.74 0 0 0-1.12-1 1.71 1.71 0 0 1-.86-1.7c.08-.88.21-1.76.23-2.64s-.08-1.65-.12-2.48c-.1-1.78-.3-3.57-.27-5.36a7.94 7.94 0 0 0-.79-3.77 2 2 0 0 1 .33-2.61c.73-.73 1.39-1.53 2.11-2.27a1.71 1.71 0 0 1 2.58.58 11.35 11.35 0 0 0 .85 1.15c.25.38.47.77.73 1.19zm17.43 18.16c.81.41.95.35 1.07-.42zM172.51 28.56c.48 0 .68-.06.88 0 .4 0 .71.19.48.64s0 .83.44 1.14a1.61 1.61 0 0 1 .12 2.55.78.78 0 0 1-1.27 0 3 3 0 0 0-2.54-1 12.17 12.17 0 0 1-2.09.06 1.47 1.47 0 0 1-1-.68c-.66-1.71-1.86-3.18-2.14-5.07a2.65 2.65 0 0 0-3.58-1.95c-.09 0-.24.1-.25.17-.13.76-.8 1.27-.71 2.22a41.66 41.66 0 0 1 0 5.36 2 2 0 0 1-.37 1.17 3.77 3.77 0 0 0-.7 2.8c0 .76.12 1.52-.59 2.08a.46.46 0 0 0-.13.35 29.28 29.28 0 0 0 .23 3.64 2.62 2.62 0 0 1-.78 2.74 2.25 2.25 0 0 0-.71 3 1.28 1.28 0 0 1 0 .75.85.85 0 0 1-.45.46c-.1 0-.31-.2-.45-.34a4.69 4.69 0 0 1-.36-.56l-2.52 2.39c-.27-.37-.81-.8-.92-1.32s.3-1 .5-1.52c-.8-.31-.87-.85-.37-1.61.11-.16-.07-.69-.28-.85-1.53-1.19-1.3-2.75-1-4.34.06-.36.19-.71.23-1.07s.21-1-.62-.87c-.07 0-.32-.39-.26-.49a13.79 13.79 0 0 1 1-1.46c.1-.14.33-.22.39-.37a16.6 16.6 0 0 0 1.11-3.27c.23-1.65.17-3.34.25-5a4.94 4.94 0 0 1 .14-.75c-.36-.13-.95-.2-1-.38a4.94 4.94 0 0 1-.05-2 25.78 25.78 0 0 0 .9-7.15 11.12 11.12 0 0 1 .13-1.16c0-.85.05-1.7.06-2.55a3.59 3.59 0 0 1-.05-.46c.32-2.45.72-4.88 1-7.33.15-1.59.68-3.15.34-4.78a1.15 1.15 0 0 1 .72-1.46 1.1 1.1 0 0 1 1.54.46 1.07 1.07 0 0 0 1 .26c1.77-.6 3.06.26 3 2.11A3.35 3.35 0 0 0 163.16 6a5.55 5.55 0 0 1 1.87 4.4 15.83 15.83 0 0 0 .92 4.38 7.33 7.33 0 0 0 1.41 2.73c.42.48.79.5 1.47.36a7.62 7.62 0 0 1 3.36.05c1 .28 1 1.5 1.12 2.4.12.7-.46 1-1 1.3l-1.34.62c-.46.21-.63.47-.17.86a3.5 3.5 0 0 1 1.6 3 .72.72 0 0 0 .11.37 1.67 1.67 0 0 1 0 2.09zm-12.2-10.35h-.13v2.1c0 .7.38.75.88.38a6.38 6.38 0 0 0 1-.8 1 1 0 0 0 .26-.81 41 41 0 0 0-1.08-3.24c-.07-.19-.36-.31-.55-.46-.14.22-.39.43-.41.66 0 .72.03 1.45.03 2.17zM269.49 33.24c-1.3.76-.53 2-.37 3.11s.4 2 .58 3.07a.91.91 0 0 1-.53 1.14 1.43 1.43 0 0 0-.28 2.13 2.64 2.64 0 0 1 .68 2.31 4.53 4.53 0 0 0 .85 2.69 2 2 0 0 1 .17 1.2c-.11 1-.37 2 .39 3a3.58 3.58 0 0 1 .68 2.66c-.05.67-.06 1.35-.08 2a3 3 0 0 0 .58 2.21 2 2 0 0 1 .37 1.09c.2 2.17.71 4.31.46 6.52-.13 1.21.05 1.32 1.25 1.66a5.26 5.26 0 0 1 .89.44l1.36.62a8 8 0 0 1 0-.9.69.69 0 0 1 .9-.62 3.37 3.37 0 0 1 1 .59 2.28 2.28 0 0 1-.57.62 3.12 3.12 0 0 1-.93.19 3.19 3.19 0 0 0 2.71.65 1.71 1.71 0 0 0 .41-.71c.37-.89 1.28-1.21 1.85-.52a6.27 6.27 0 0 0 2.14 1.54 3.54 3.54 0 0 1 .91.61 2.25 2.25 0 0 0 2.68.26c.27-.11.52-.25.78-.36a1.08 1.08 0 0 1 1.44.41c.37.54 0 .94-.34 1.31a3.37 3.37 0 0 1-.57.39 9.75 9.75 0 0 1-6.63 1.5 2.44 2.44 0 0 0-2 .48 1.59 1.59 0 0 1-1.14.12c-1.74-.26-3.46-.62-5.21-.83-.91-.1-1 .1-1 1 0 .73-.13 1.45-.12 2.18a8.65 8.65 0 0 0 .23 1.83c.16.67.06 1.13-.65 1.34a1.11 1.11 0 0 0-.9 1.19c0 .67-.26 1.4-.92 1.46a3.07 3.07 0 0 1-1.71-.66 8.29 8.29 0 0 1-1.25-1.38 1.18 1.18 0 0 1-.23-1.49 1.81 1.81 0 0 0 .08-1.11c-.23-1.35-.52-2.69-.76-4a1.56 1.56 0 0 1 .08-.77c.2-.65-.05-1-.67-1.14a23.76 23.76 0 0 1-2.83-.85c-1.08-.44-1.12-1-.37-1.79a2.88 2.88 0 0 1 2.42-.83c1.32 0 1.45-.2 1.08-1.47a11.1 11.1 0 0 1-.31-1.83c-.15-1.42-.19-2.85-.42-4.26s-.61-2.66-1-4a1.19 1.19 0 0 0-.51-.67c-1.77-1-1.57-2.54-1.39-4.16a9.58 9.58 0 0 0-.06-2.14 1.36 1.36 0 0 0-1.06-1.21c-.75-.23-.86-.82-.26-1.34.32-.28.32-.49.07-.77a2.3 2.3 0 0 1-.36-.41c-.76-1.31-1.33-2.25.19-3.37.82-.61 1.36-1.37.79-2.47a1.56 1.56 0 0 1 0-.78 12.85 12.85 0 0 0-.64-5.36c-.27-.71.24-1.17.8-1.41a1 1 0 0 0 .72-1.39c-.19-.67-.26-1.38-.44-2.05a2.81 2.81 0 0 1 1.53-3.26c1.08-.47 1.94.16 2.74.7a2.46 2.46 0 0 1 1.26 2.2 6 6 0 0 0 .23 2.11 8.29 8.29 0 0 0 1.21 1.78zM208.32 70.2c-.83-.25-1.66-.55-2.51-.73a3.29 3.29 0 0 1-2.18-1.31c-.35-.48-1-.73-1.44-1.17-.77-.8-1.45-1.69-2.22-2.5A2.62 2.62 0 0 0 199 64c-.55-.21-1.15-.32-1.69-.56a1.23 1.23 0 0 1-.6-1.6.86.86 0 0 1 1.24-.58c.53.18.76-.07.73-.56a4.12 4.12 0 0 0-.24-.88c-.12-.47-.41-1-.31-1.4a3 3 0 0 0-.22-2.41c-.35-.6.18-1.07.68-1.48a3.66 3.66 0 0 0 .74-1c.6-1 1.14-2.09 1.78-3.08.37-.58.81-1.07.65-1.84a.9.9 0 0 1 .34-.72 5.41 5.41 0 0 1 2.47-1 26.44 26.44 0 0 0 3.89-1 9.57 9.57 0 0 1 5.43.32 12.9 12.9 0 0 1 1.26.32c.82.3 1.63.64 2.43 1a9.7 9.7 0 0 1 4.59 4.06 4 4 0 0 1 .36 1.61 8.47 8.47 0 0 1 0 2c-.13.89-.47 1.75-.64 2.64a2.62 2.62 0 0 0 .16 1c.06.25.27.5.22.72a15.86 15.86 0 0 1-.8 3.38 10.9 10.9 0 0 1-2.06 3.36 9.06 9.06 0 0 1-4.89 2.72 4.83 4.83 0 0 0-.92.38c-.52.22-1 .43-1.56.66a5.44 5.44 0 0 1-3.73 0zm6.08-4.49c.29-1.16.53-2.16.8-3.16.18-.65.22-1.39 1.1-1.63.22-.05.36-.41.53-.63.77-1 .35-2 .26-3.06a7.38 7.38 0 0 0-.66-2.11 1 1 0 0 1 .11-1.27.91.91 0 0 0 .16-.8c-.37-.68-.84-1.3-1.27-1.95a2.77 2.77 0 0 1-.45-.77c-.33-1.43-1.15-1.92-2.5-1.48-.37.12-.77.16-1.14.28-1.34.41-2.66.91-3.3 2.27a19.11 19.11 0 0 0-1.04 3.09 3.22 3.22 0 0 0 .22 2.54s0 .1.05.15c.66 1.35 1.33 2.69 1.95 4.06a1.33 1.33 0 0 1 0 1c-.4.82-.4.94.43 1.35a3 3 0 0 0 1 .4A3.38 3.38 0 0 1 213 65a5 5 0 0 0 1.4.71zM217.28 17.13c.29-1.55-.14-3.21.86-4.63.47-.67.71-.63 1.13.08a4.84 4.84 0 0 0 1 1.14c1.21 1.06 2.46 2.08 3.69 3.12 0 0 .1.06.11.1.49 1.52 2.11 2.58 1.85 4.38a7.55 7.55 0 0 1-.68 2.11c-.28.58-.38 1 .2 1.42a7 7 0 0 1 1 1 2.06 2.06 0 0 1 .18.64 5.08 5.08 0 0 0-1.31-.27c-.76.06-1.13.65-1.46 1.27a29.77 29.77 0 0 1-1.81 3.28 5.24 5.24 0 0 1-5.26 2.52 20 20 0 0 1-3.16-1.09c-2.26-.75-3.49-2.45-4.46-4.51a23.22 23.22 0 0 1-1.49-5.22 12.23 12.23 0 0 1-.42-2 30.31 30.31 0 0 1 .11-3.56c0-.72 0-.77-.66-.63a39.16 39.16 0 0 1-3.89.72c-.7.09-1.06.35-1.08 1.05a11.43 11.43 0 0 0 .87 4.69c.58 1.5 1.08 3 1.58 4.55.09.25-.06.57 0 .84 0 .48.12 1 .18 1.43a18.06 18.06 0 0 1 .28 2.18c0 .19-.38.51-.62.55s-.51-.21-.73-.38a8.62 8.62 0 0 1-.73-.75c-.1.45-.42 1-.27 1.33a4 4 0 0 1 .34 2.27c-.13.94-.3 1.88-.5 2.82a.69.69 0 0 1-.42.46.67.67 0 0 1-.53-.33c-.31-.72-.52-1.47-.81-2.19s-.75-1.58-1.06-2.39a8.1 8.1 0 0 1-.52-1.85c-.31-2.56-1.36-4.9-2-7.35-.44-1.55-.87-3.11-1.27-4.67a2.62 2.62 0 0 1 0-1.08c.11-.59-.2-.78-.69-.76-1 .06-2.07.17-3.11.27a1.21 1.21 0 0 0-.45.12c-1.12.52-2.23 1.08-3.37 1.57a4.14 4.14 0 0 1-4.06-.42c-.11-.06-.22-.14-.34-.2-.93-.47-1-.88-.15-1.57.18-.15.43-.27.52-.47.54-1.09 1.37-1.09 2.37-.75a9.48 9.48 0 0 0 4.93 0c.25 0 .52 0 .77-.08 1.33-.18 2.66-.35 4-.54.23 0 .44-.15.67-.17 2.92-.34 5.83-.64 8.74-1 1-.11 1.91-.29 2.85-.49a1.34 1.34 0 0 0 .72-.53 13.25 13.25 0 0 0 .75-1.27 3.36 3.36 0 0 1 2.65-2 3.16 3.16 0 0 0 .67-.18 2.17 2.17 0 0 1 2.69 1 4.6 4.6 0 0 1 .87 3.76c-.14.5-.3.86-1 .69-.19 0-.58.27-.7.51-.36.72-.56 1.52-1 2.21a10.91 10.91 0 0 0-1.23 5.57 14.47 14.47 0 0 0 1.48 6.17c.86 1.83 3.65 2.22 5.33.74a9.89 9.89 0 0 0 3.19-4.81 4.64 4.64 0 0 0-.27-3.83 7 7 0 0 1-.54-2.32c-.26-1.52-1.49-2.12-2.63-2.77-.52-.23-.87-.08-1.9.5zM259.65 44.37a1.68 1.68 0 0 1 0 .39c-.35 1.66-.71 3.32-1.06 5a5.16 5.16 0 0 0-.13.77 12 12 0 0 0 1.23 5.47 12.18 12.18 0 0 1 1 3.88 4.91 4.91 0 0 1-.94 2.4c-.31.54-.63 1.33-1.47 1.19a1.91 1.91 0 0 1-1.52-1.71 2.35 2.35 0 0 0-1.92-2.31 1.3 1.3 0 0 1-.93-1.23c0-.27-.23-.68-.43-.72s-.56.2-.75.4c-.66.73-1.3 1.47-1.91 2.24a1.48 1.48 0 0 0-.27.85 1 1 0 0 1-.72 1 9.63 9.63 0 0 0-2 .93 3.88 3.88 0 0 1-4.1.29 15.88 15.88 0 0 1-1.56-.87 15.49 15.49 0 0 1-1.54-.86 8 8 0 0 1-1.37-1.23 4.84 4.84 0 0 1-.66-1.23c-.24-.55-.52-.79-1.15-.51a.78.78 0 0 1-.66-.34c-.2-1-.34-2.09-.47-3.14-.06-.51.17-.8.7-1a1.21 1.21 0 0 0 .67-.73c.86-2.5 1.66-5 2.53-7.52a4 4 0 0 1 1-1.59c1.08-1 2.25-1.91 3.41-2.84a.79.79 0 0 1 1.35.25 1.17 1.17 0 0 0 1.25.61 6.69 6.69 0 0 1 3.75.34c.22.12.78-.15 1-.4a2.78 2.78 0 0 0 .89-2.37 1 1 0 0 1 1-1.08c.3 0 .61.49.89.79.1.1.1.3.19.42s.37.46.56.69a2.26 2.26 0 0 1 .5-.52c.23-.14.68-.32.77-.22a31.87 31.87 0 0 1 2.65 2.92 4 4 0 0 1 .37 1.57zm-10.81 12.34c-.29 0-.64 0-.82-.11a1.43 1.43 0 0 1-.51-.85.87.87 0 0 1 .5-.66 1 1 0 0 1 .8.21c.74.76 1.2.71 1.62-.32a1 1 0 0 1 1.19-.7.54.54 0 0 0 .73-.57c0-1.64-.08-3.27-.18-4.9a2.24 2.24 0 0 0-3.62-1.47 1.8 1.8 0 0 1-1.27.18 2.71 2.71 0 0 0-2.48 1c-.44.67-.84 1.38-1.3 2-1.24 1.74-1.05 3.69-.87 5.63a1 1 0 0 0 1.18 1 .9.9 0 0 1 .62.5c.34.88.78 1 1.61.58a5.87 5.87 0 0 1 1.28-.45c.68-.18 1.37-.19 1.52-1.07zM223.08 56.73c-.23-2.58-.5-5.15-.66-7.74a11.58 11.58 0 0 1 .14-3.93 6 6 0 0 0-.26-2.83c-.26-1-.16-1.42.76-2 .4-.26.65-.74 1-1.07a11.42 11.42 0 0 1 1.05-.78c.2.3.4.6.59.9s.41.89.72 1 .75-.26 1.12-.45c1.39-.74 2.78-1.5 4.18-2.24a.9.9 0 0 1 .54 0c1.18.25 2.42.29 3.58.52a4.14 4.14 0 0 1 3 2.32 14.47 14.47 0 0 0 1.26 2 1.57 1.57 0 0 1-.07 2.13 3 3 0 0 0-.39.9c-.16.49-.39.57-.79.22-.78-.68-1.14-.59-1.58.39-.3.69-.88.78-1.28.13a7.33 7.33 0 0 0-1.54-2 1.25 1.25 0 0 1-.25-.92.92.92 0 0 0-.77-1c-.43-.11-.86-.23-1.27-.38a1.68 1.68 0 0 0-1.8.38 1.08 1.08 0 0 0-.27 1.68c.33.44.19.77-.1 1.24-.83 1.31-2.08 2.53-1.29 4.35a3.21 3.21 0 0 1 .13 1.08c.14 2.69.27 5.38.41 8.07 0 .34.06.68.09 1a1.3 1.3 0 0 1-1.39 1.56 2.47 2.47 0 0 0-1.22.38c-1.9 1.24-3.12.13-3.47-1.7a30.36 30.36 0 0 1-.3-3.17z" fill="#fff"/><path d="M176.49 26.9c-.18-.88-.37-1.76-.54-2.64-.48-2.55-.94-5.11-1.45-7.66a1.54 1.54 0 0 0-.57-.93 2.11 2.11 0 0 1-.93-2.47 17.19 17.19 0 0 1 .75-1.7 1.34 1.34 0 0 1 2.2-.43 4.12 4.12 0 0 0 .92.56 1.81 1.81 0 0 1 1.24 1.8 7.37 7.37 0 0 0 .11.93c.07.62.28 1 1 .94.23 0 .67.42.73.71a7.79 7.79 0 0 1 .22 2.7c-.16.87-.34 1.46.48 2.18.45.41.41 1.41.53 2.15s.47.95 1.18.9c2.6-.19 5.2-.3 7.79-.51a14.24 14.24 0 0 0 2.29-.51 2.57 2.57 0 0 1 2.59 1.25c.33.77.08 1.24-.74 1.42a2.9 2.9 0 0 0-.91.23 2.38 2.38 0 0 0-1 .9 1.54 1.54 0 0 1-1.52 1 25.8 25.8 0 0 0-3 .43c-.22 0-.39.33-.59.51.25.15.47.4.73.44a14.89 14.89 0 0 0 1.64.07l.07.29c-.52.38-1 .75-1.57 1.14-1.13.87-2.25 1.75-3.39 2.61a2.56 2.56 0 0 1-2.43.46c-1.05-.36-2.07-.85-3.09-1.31a5 5 0 0 1-1.93-2.19c-.26-.41-.49-.81-1.1-.62-.12 0-.38 0-.41-.13a18 18 0 0 1-.84-2.47c-.07-.33.28-.53.65-.27l.6.41zM147.17 30a37 37 0 0 1-3.8-.36 9.59 9.59 0 0 1-2.27-1s0-.55.17-.62a10 10 0 0 1 1.6-.62c1.29-.4 2.57-.82 3.88-1.15a2.18 2.18 0 0 1 2.4 2 2.27 2.27 0 0 1-1.98 1.75zM35.79 74.74c.33-.54.63-1.1 1-1.61s.65-.16.66.19a2.12 2.12 0 0 1-.34 1.29c-.21.27-.72.32-1.1.46zM106.81 24.46c-.08.07-.24.34-.44.39-.41.1-.94-.71-.9-1.42a.67.67 0 0 1 .4-.5c.41-.08.94.71.94 1.53z" fill="#fff"/><path d="M175.56 24.82l-.53.73c-.2-.17-.4-.34-.58-.52a.3.3 0 0 1-.06-.22v-1.19s.29-.08.33 0c.28.38.54.75.84 1.2zM186.16 69.84c-.26-.42-.55-.71-.49-.81a6.37 6.37 0 0 1 .81-1c.21.22.65.54.61.63a8.05 8.05 0 0 1-.93 1.18zM127.63 19.74l-.61-.45a4.06 4.06 0 0 1 .88-.58c.14 0 .39.22.58.35zM120.29 51l2 .18v.34l-2-.1zM161.14 39l-.62.42a2.35 2.35 0 0 1-.38-.64c0-.09.35-.4.43-.36s.33.29.57.58zM135.85 76.48l.79.86c-.23.2-.48.59-.69.57a1.22 1.22 0 0 1-.74-.62c-.05-.1.34-.44.64-.81z" fill="#fff"/></svg>