<?xml version="1.0" encoding="UTF-8"?><svg id="logos" xmlns="http://www.w3.org/2000/svg" width="300" height="49" viewBox="0 0 300 49"><g id="enkqjl.tif"><g><path d="M131.26,21.45c.75-.97,1.38-1.51,1.65-2.19,.35-.89,.59-1.9,.58-2.86-.03-1.93-.45-3.86-.37-5.78,.06-1.52,.53-3.05,1.03-4.51,.25-.74,.82-1.55,1.47-1.93,2.63-1.55,5.52-1.51,6.75,2.06,1.19,3.48,.91,6.76-1.57,9.42,1.12,1.37,2.17,2.66,3.28,4.02,.87-.79,1.39-1.95,1.46-3.16,.12-1.88,.05-3.79-.09-5.67-.07-.97,.36-1.32,1.14-1.6,1.81-.66,3.67-1.24,5.4-2.09,1.29-.64,2.3-1.89,3.62-2.44,2.08-.87,4.33-.87,6.22,.53,1.31,.97,2.49,2.2,3.48,3.5,.83,1.09,1.95,1.63,3.1,1.93,1.51,.39,2.47,1.31,3.19,2.52,1.86,3.11,3.06,6.4,2.27,10.11-.15,.71-.34,1.48-.75,2.06-1.31,1.89-1.16,4.04-.67,5.97,.53,2.1,.02,3.89-.74,5.64-.7,1.61-1.85,3.02-2.8,4.52-.1,.15-.15,.33-.23,.51,.15,.1,.3,.23,.33,.2,1.49-1.07,3.54-1.22,4.58-3.11,.54-.98,1.68-1.65,2.63-2.35,.15-.11,.89,.25,1.09,.56,1.38,2.17,.83,4.35-.21,6.43-1.39,2.77-4.5,3.14-6.86,2.44-1.28-.38-2.46-1.09-3.72-1.54-.53-.19-1.22-.24-1.74-.07-1.98,.62-3.87,1.64-5.88,2-3.26,.59-6.4-.28-9.37-1.69-.2-.1-.44-.27-.51-.46-.42-1.15-1.46-1.56-2.43-2.01-1.02-.47-2.07-.86-3.12-1.26-1.28-.48-1.94-.2-2.36,1.16-.52,1.69-1.38,2.98-3.09,3.68-2.98,1.22-6.91-.54-7.73-3.66-.46-1.73-1.13-3.23-2.41-4.55-1.78-1.84-2.7-4.15-2.81-6.75-.04-.9-1.72-2.79-2.6-2.83-.38-.02-1.06,.28-1.1,.52-.2,1.08-.34,2.21-.28,3.3,.09,1.88,.35,3.76,.52,5.64,.17,1.89-.02,3.72-.86,5.45-.15,.31-.28,.69-.54,.87-.32,.23-.89,.52-1.11,.38-.31-.2-.48-.73-.55-1.15-.32-2.02-.3-4.14-.94-6.04-.55-1.64-1.77-3.08-3.38-4.05-.69-.42-1.3-.97-1.92-1.49-.68-.57-.57-1.22-.45-2.08,.2-1.41-.04-2.89-.14-4.34-.03-.46-.32-.89-.36-1.35-.1-1.08,.15-1.97,1.32-2.44,3.2-1.28,5.49-3.57,7.05-6.61,.09-.17,.17-.36,.31-.49,1.8-1.72,1.8-3.95,1.09-5.97-.43-1.22-1.83-2.09-2.8-3.12-.21-.23-.42-.46-.63-.7,.28-.16,.58-.48,.85-.45,2.04,.21,4.12,.31,6.11,.79,1.83,.44,2.71,2.2,2.35,4.07-.31,1.59-.07,2.98,1.11,4.19,1.53,1.56,1.81,3.66,2.33,5.65,.22,.82,.51,1.63,.83,2.66Zm30.92-3.54c.2-1.06,.19-2.03-1.15-2.24-1.03-.17-2.07-.36-3.1-.37-1.04-.01-2.09,.12-3.11,.32-.87,.16-1.27,.77-1.55,1.67-.79,2.56-1.65,5.13-4.26,6.55-.34,.19-.59,.71-.7,1.13-.25,1-.47,2.01-.56,3.03-.07,.77-.17,1.73,.2,2.32,.9,1.43,2.04,2.72,3.15,4.01,.29,.34,.81,.68,1.23,.68,1.93,.03,3.86-.14,5.79-.07,1.19,.04,1.9-.37,2.07-1.5,.38-2.6,2.12-4.26,3.94-5.87,.86-.76,.98-5.19,.14-5.98-.17-.16-.34-.35-.54-.44-1.4-.67-1.63-1.87-1.53-3.23Zm-18.54,3.16c-.11,.12-.17,.18-.2,.24-.05,.14-.13,.3-.12,.44,.2,1.98-.66,3.55-1.94,4.92-1.15,1.24-1.1,2.55-.63,4.07,.38,1.23,.56,2.54,.7,3.83,.1,.88-.09,1.8,.02,2.68,.05,.4,.46,.99,.8,1.06,.33,.07,.83-.37,1.14-.69,.22-.23,.33-.64,.33-.97-.01-1.74,0-3.49-.15-5.22-.12-1.37-.02-2.56,.86-3.73,1.59-2.15,1.23-4.82-.8-6.63Z" fill="#fff"/><path d="M30.63,8.24c-.37,1.32-.68,2.66-1.12,3.96-.34,.99,.19,1.64,.71,2.3,.1,.13,.57,.08,.8-.04,1.17-.56,1.77-1.47,2.22-2.76,1.1-3.13,3.07-5.65,6.21-7.08,.28-.13,.53-.31,.8-.47,.73-.44,1.32-.48,1.58,.53,.08,.29,.17,.66,.38,.83,2,1.55,1.53,3.7,.88,5.46-.51,1.37-1.85,2.54-3.05,3.52-1.13,.93-2.11,3.46-1.35,4.72,.14,.23,.83,.39,1.05,.24,1.49-.94,3.12-1.78,4.35-3.01,2.66-2.67,2.65-5.98,1.44-9.3-.35-.96-1.23-1.73-1.87-2.58-.28-.37-.64-.7-.84-1.11-.1-.19,0-.66,.15-.76,.63-.38,1.28-.79,1.98-.95,2.6-.58,4.8,.62,5.97,2.98,1.48,2.99,.47,5.61-1.08,8.13-.63,1.03-1,1.81-.7,3.17,.48,2.14,.46,4.42-1.1,6.34-.72,.89-.76,1.9-.29,2.97,.44,.99,.71,2.06,1.15,3.04,.13,.3,.62,.66,.9,.63,1.21-.13,2.41-.45,3.62-.6,1.15-.14,1.43-.66,1.28-1.79-.15-1.21-.01-2.47,.02-3.7,0-.27,.04-.59,.19-.78,1.51-2,.88-4.17,.49-6.3-.56-3.12-.14-6.13,.95-9.05,.67-1.77,2.26-2.52,4.01-2.48,1.91,.05,3.59,.89,4.36,2.78,.4,.98,.64,2.1,.65,3.16,.03,2.37-.05,4.76-1.5,6.84-.38,.54-.37,1.11,.15,1.69,1.96,2.19,2.28,4.67,1.06,7.33-.58,1.25-1.22,2.48-1.86,3.7-.47,.9-.67,1.75-.3,2.78,.87,2.4,.39,4.72-.6,6.99-1.79,4.09-5.7,4.86-9.37,5.8-3.13,.8-6.35,.73-9.32-.87-.38-.21-.9-.94-.8-1.17,1.1-2.38-.34-4.42-.85-6.53-.39-1.62-1.2-3.18-2.01-4.66-.43-.78-1.28-1.32-1.93-1.98-.23-.24-.63-.5-.63-.75,0-2.13,.04-4.25,.11-6.38,.02-.61,.15-1.22,.23-1.84-.77-.05-1.59-.29-2.31-.12-1.78,.43-1.7,.5-1.64,2.32,.03,.74-.12,1.58-.47,2.22-.39,.71-.28,1.15,.24,1.63,.26,.24,.52,.47,.8,.68,1.45,1.07,2.45,2.45,3.04,4.16,.23,.65,.61,1.26,.99,1.84,1.62,2.49,1.82,5.29,1.5,8.09-.15,1.33-.58,2.97-2.35,3.24-1.58,.24-3.16-.09-4.27-1.3-.45-.5-.58-1.42-.6-2.15-.05-1.94-1.66-4.45-3.51-5.07-1-.33-1.24-.92-1.46-1.92-.8-3.61-1.12-7.42-3.41-10.52-.86-1.17-2.06-2.12-3.21-3.03-1.2-.95-2.05-1.97-1.78-3.61,.08-.5-.07-1.05,.09-1.51,.13-.41,.47-.91,.83-1.05,1.55-.6,2.28-1.45,2.38-3.09,.09-1.54,0-3.04,.58-4.58,.52-1.41,.05-2.88-1.23-4-1.54-1.36-1.52-1.48,.39-2.3,1.11-.48,2.21-1,3.57-.67,3.41,.81,4.36,4.05,4.47,6.74,.01,.31,0,.62,0,.93l.24,.08Z" fill="#fff"/><path d="M91.36,10.56c-.08,2.65-.25,5.27-1.62,7.66-.18,.32-.18,.88-.03,1.22,1.39,3.05,1.14,6.27,.84,9.43-.21,2.21-.84,4.41-1.51,6.54-.45,1.41-1.35,2.68-1.95,4.05-.15,.35-.1,.99,.13,1.27,.82,1.01,.77,2.17-.27,3-2.67,2.14-6.39,2.24-9.25,.35-2.09-1.38-3.32-3.41-4.49-5.53-.19-.34-.52-.6-.79-.9-.32,.29-.75,.53-.94,.89-.73,1.4-1.26,2.91-2.1,4.23-.49,.77-1.35,1.4-2.19,1.79-.51,.24-1.43,.07-1.91-.27-.33-.23-.4-1.11-.29-1.64,.18-.9,.65-1.73,.89-2.63,.16-.58,.19-1.22,.16-1.82-.07-1.24-.29-2.48-.34-3.72-.07-1.95,.37-3.79,1.12-5.62,.76-1.85,1.29-3.81,1.21-5.87-.06-1.56-.12-3.12,0-4.67,.07-.98,.25-2.08,.76-2.89,1.82-2.9,1.33-5.69-.02-8.54-.29-.61-.34-1.33-.5-1.99,.82-.09,1.7-.41,2.44-.22,1.87,.48,2.97,2.06,3.74,3.63,1.63,3.3,3.03,6.72,4.47,10.12,.23,.54,.18,1.21,.22,1.82,.02,.31-.19,.7-.05,.91,.29,.45,.73,.81,1.1,1.2,.28-.38,.79-.74,.81-1.13,.05-.92-.09-1.86-.23-2.78-.61-4.11-.76-8.24,.26-12.29,.42-1.67,1.17-3.37,3.19-3.78,.49-.1,1.08-.04,1.55,.12,1.89,.65,3.45,1.88,4.63,3.4,.63,.81,.7,2.07,.95,3.14,.11,.48,.02,1.01,.02,1.52Z" fill="#fff"/><path d="M9.62,17.55c1.14,1.22,2.56,2.02,4.24,2.41,2.58,.6,4.97,1.59,6.73,3.68,1.49,1.77,2.38,3.85,3.16,6.03,.94,2.59,.94,5.23,.67,7.84-.17,1.68-1.02,3.32-1.68,4.93-.43,1.05-.86,2.22-1.64,2.97-3.24,3.14-7.02,4.07-11.33,2.36-1.69-.67-3.44-1.2-5.14-1.87-2.43-.96-4.23-2.42-4.53-5.32-.25-2.48-.18-4.81,1.31-6.93,.65-.92,2.78-1.66,3.77-1.18,.38,.18,.76,.57,.93,.96,.72,1.67,1.71,2.18,3.5,1.69,.37-.1,.75-.23,1.13-.27,1.35-.13,2.38-.56,2.67-2.1,.09-.48,.57-.92,.94-1.31,.64-.68,.65-1.34,.18-2.11-.55-.93-.98-1.93-1.58-2.83-.27-.41-.79-.84-1.24-.9-1.46-.18-2.94-.27-4.41-.24-2.88,.04-4.99-1.31-6.64-3.5-1.09-1.44-.8-4.87,.46-6.22,.57-.61,1.33-1.07,1.83-1.73,.39-.52,.75-1.27,.7-1.88-.24-2.53,2.47-4.89,4.6-5.69,.79-.29,1.45-1.11,2-1.83,1.11-1.46,2.68-2.43,4.32-2.55,3.87-.29,7.1,1.58,6.67,6.57-.18,2.16-1.73,2.86-3.29,3.63-.69,.34-1.46,.52-2.19,.78-.25,.09-.54,.18-.72,.37-.83,.84-1.55,1.81-2.46,2.54-.88,.7-1.96,1.14-2.97,1.71Z" fill="#fff"/><path d="M97.83,36.81c.14,.92,.25,1.84,.42,2.76,.76,4.1-2.26,6.49-6.05,5.83-.61-.11-1.23-.23-1.81-.45-.63-.24-.8-.56-.25-1.21,.86-1.02,1.66-2.12,2.28-3.3,.28-.53,.06-1.32,.06-2,0-.38-.05-.76,0-1.13,.16-1.23,.33-2.46,.55-3.69,.09-.52,.34-1.02,.49-1.53,.21-.75,.59-1.53,.53-2.27-.13-1.72-.22-3.41-.81-5.13-.47-1.36-.15-3.22,.39-4.63,.77-2.01,.68-3.81,.02-5.75-.26-.77-.46-1.71-.27-2.47,.45-1.73,.31-3.24-.61-4.8-.83-1.42-.59-2.16,.97-2.7,1.44-.5,3.04-.99,4.51-.85,2.42,.22,4.02,2.29,4.11,4.78,.07,1.78,0,3.57,0,5.35,0,.51-.03,1.02,.09,1.51,.03,.13,.73,.28,.8,.18,1.79-2.47,3.55-4.95,5.27-7.47,.39-.56,.49-1.34,.93-1.85,2.24-2.59,5.94-2.13,7.89,.71,.97,1.41,1.58,2.75,1.12,4.4-.2,.74-.65,1.42-1.03,2.1-.23,.4-.53,.77-.82,1.12-.34,.41-.64,.96-1.08,1.17-2.73,1.26-4.42,3.55-6.15,5.86-.71,.94-1.72,1.65-2.56,2.5-.41,.41-.75,.9-1.07,1.39-.12,.18-.09,.45-.15,.68-.53,1.86-.54,1.87,1.05,3.03,1.92,1.41,3.63,3.13,4.35,5.34,.66,2.02,1.41,3.93,2.37,5.83,.81,1.59,.25,3.44-.97,4.76-.49,.53-1.57,.76-2.37,.74-3.28-.07-6.81-2.1-7.73-6.08-.37-1.61-1.09-3.15-1.83-4.64-.26-.52-1.03-.78-1.57-1.15-.31,.55-.71,1.06-.91,1.65-.14,.42-.03,.92-.03,1.39l-.14,.02Z" fill="#fff"/><path d="M247.13,20.51c-.23-1.07-.39-2.04-.65-2.98-.85-3.11-2.06-6.02-4.82-7.97-.86-.61-.75-1.18-.25-1.96,1.24-1.91,2.75-3.29,5.19-3.48,1.05-.08,2.17-.46,3.09-1,1.81-1.07,3.51-.52,5.14,.2,2.17,.96,4.16,2.17,5.67,4.16,.96,1.26,1.38,2.66,1.94,4.06,.4,1,.8,2.02,1.34,2.96,1.22,2.1,1.14,4.14,.19,6.35-.72,1.67-2.13,2.36-3.53,3.15-1.03,.58-1.08,1.22-.08,1.85,.46,.29,.92,.67,1.42,.78,2.58,.55,3.33,2.66,3.84,4.75,.45,1.83,.59,3.78,.53,5.66-.03,1.08-.61,2.21-1.19,3.17-.65,1.09-1.44,2.16-2.41,2.96-1.26,1.05-2.54,2.18-4.41,2.1-1.2-.05-2.42,.02-3.59,.23-.73,.13-1.39,.65-2.11,.91-2.8,1-5.47,.3-8.05-.79-1.02-.43-1.96-1.06-2.87-1.69-.19-.13-.26-.89-.12-.99,2.13-1.49,2.82-3.85,3.68-6.08,.46-1.19,.66-2.48,1.09-3.69,.72-1.99,.83-3.97,.09-5.94-1.32-3.52,.76-5.36,3.7-6.38,1.1-.38,2.25-.63,3.29-1.11,.45-.21,.8-.83,.99-1.34,.3-.81,.34-1.72,.64-2.53,.52-1.37,.37-1.76-1.05-2.31-.58-.22-1.1-.58-1.66-.86-1.38-.68-2.14-.24-2.28,1.3-.08,.85-.11,1.71-.23,2.55-.24,1.61-1.08,2.86-2.54,3.96Zm5.44,20.15c1.23-.18,2.27-.18,3.21-.49,1.96-.63,2.58-2.64,1.33-4.31-.75-1-1.03-1.96-.59-3.13,.14-.36,.27-.78,.2-1.13-.06-.32-.39-.84-.6-.84-1.91,0-3.8-.65-5.74,.14-1.43,.58-1.86,1.24-1.01,2.58,.76,1.2,.79,2.4,.29,3.67-.14,.36-.28,.72-.44,1.08-.38,.87-.21,1.56,.73,1.85,.91,.27,1.86,.42,2.6,.58Z" fill="#fff"/><path d="M244.1,17.73c-.01,1.48-.34,2.77-1.31,3.93-.3,.35-.11,1.18-.01,1.77,.11,.62,.41,1.21,.57,1.83,.21,.81,.37,1.64,.52,2.46,.08,.45,.23,.95,.13,1.38-.33,1.39-.69,2.79-1.19,4.13-.18,.49-.72,.92-1.2,1.2-1.05,.61-1.54,1.43-1.53,2.67,.01,1.4,.14,2.9-.31,4.17-.5,1.4-1.36,2.88-2.48,3.81-1.54,1.27-3.53,1.87-5.6,2.02-2.12,.16-3.69-.97-5.31-2.06-.57-.38-1.19-.71-1.83-.96-2.16-.84-4.37-1.58-6.5-2.48-1.16-.5-1.07-1.41-.35-2.38,.58-.79,.98-1.88,1.04-2.86,.14-2.37,.1-4.76,0-7.13-.03-.87-.23-1.85-.68-2.57-.96-1.5-.33-2.83,.15-4.18,.84-2.35,1.78-4.67,.81-7.21-.16-.43-.3-.88-.53-1.28-.65-1.12-.34-2.23,.82-2.81,.28-.14,.56-.32,.85-.37,2.07-.4,3.43-1.65,4.36-3.49,1.34-2.65,6.83-4.04,9.56-1.03,.79,.87,1.35,1.97,1.87,3.04,.37,.75,.86,1.08,1.65,1.27,1.19,.29,2.46,.55,3.46,1.19,2.13,1.35,2.67,3.64,3.02,5.95Zm-5.97,7.26c-.47-.57-.75-1.1-1.19-1.41-1.57-1.12-2.23-2.57-2.08-4.52,.1-1.26-.5-1.57-1.78-1.4-1.62,.21-3.46,.84-4.83,.31-2.38-.92-3.43,.21-4.69,1.75-1.02,1.25-2,2.39-1.32,4.14,.08,.2,.05,.48-.02,.69-.37,1.13-.68,2.29-1.19,3.35-.59,1.23-.48,1.56,.76,2.07,1.07,.44,2.14,.96,3.07,1.64,1.3,.94,1.9,2.3,1.93,3.94,.03,1.46,.52,1.7,1.83,1.1,1.06-.49,2.11-1,3.2-1.43,2.09-.82,2.11-.8,2.16-2.92,.06-2.21,.73-4.08,2.67-5.4,.59-.4,.92-1.17,1.48-1.91Z" fill="#fff"/><path d="M214.61,11.7c-.38,1.54-.7,2.86-1.04,4.17-.22,.83-.15,1.35,.73,1.91,.6,.38,1.02,1.5,1.02,2.29,0,3.55-.21,7.09-1.45,10.47-.11,.29-.22,.6-.43,.82-.83,.88-.78,1.85-.49,2.94,.15,.56,.05,1.22-.08,1.81-.21,.93-.65,1.82-.79,2.75-.07,.45,.21,1.06,.53,1.44,2.15,2.51,1.46,5.29-1.52,6.58-1.83,.8-3.19,.05-4.6-.87-.36-.23-.67-.53-1.01-.79-1.31-1-1.59-2.29-.8-3.78,.79-1.48,.63-2.97,.2-4.53-.27-.98-.43-2.02-.4-3.03,.04-1.34-.16-1.6-1.48-1.48-.88,.08-1.79,.14-2.66,.04-2.15-.24-2.8,.08-3.73,2.03-.3,.63-.62,1.28-1.07,1.8-.85,.98-.76,2-.27,3.05,1.01,2.17,.8,4.26-.51,6.2-.36,.53-.99,1-1.59,1.24-2.95,1.17-5.56,.56-7.81-1.67-.72-.71-.84-3.46-.16-4.55,.37-.59,.78-1.17,1.25-1.69,.55-.62,.66-1.21,.16-1.89-.16-.22-.31-.45-.43-.7-.62-1.25-.08-2.41,1.29-2.44,1.7-.03,2.9-.95,4.16-1.85,1.25-.9,1.16-2.4,1.64-3.64,.68-1.75,1.08-3.65,2.84-4.81,.57-.38,.9-.43,1.54-.11,.58,.29,1.44,.43,2.03,.21,1.21-.44,2.34-.46,3.53-.07,.44,.14,.9,.34,1.35,.33,.59,0,1.59-.05,1.68-.33,.21-.63,.22-1.56-.12-2.1-1.13-1.81-1.06-3.69-.67-5.62,.18-.86,.2-1.46-.54-2.17-1.9-1.82-2.09-5.99-.46-8,.33-.41,.83-.71,1.3-.97,1.91-1.04,3.94-.91,5.9-.32,.66,.19,1.38,1,1.59,1.68,.59,1.87,.93,3.82,1.35,5.63Z" fill="#fff"/><path d="M296.48,22.35c-.09,.77-.16,1.54-.27,2.31-.15,1.08-.05,2.05,.6,3,2.06,3.01,2.78,6.47,3.09,10.03,.11,1.35,.15,2.72,0,4.06-.24,2.14-1.87,3.66-3.97,3.92-2.4,.3-4.39-.75-5.3-2.69-1.2-2.55-1.68-5.2-1.37-8.01,.03-.28-.3-.86-.49-.87-1.53-.07-3.06-.11-4.58,.02-.37,.03-.85,.66-1,1.11-.42,1.33-.75,2.7-1.01,4.08-.41,2.12-1.82,3.67-2.99,5.35-.19,.27-.79,.25-1.2,.36-.01-.39-.13-.82-.01-1.17,.44-1.34,.39-2.62,.07-4.01-.56-2.44-1.05-4.92-1.21-7.41-.08-1.23,.61-2.53,1.07-3.76,.5-1.36,.95-2.65-.27-3.88-.23-.23-.39-.63-.41-.95-.12-2.71-.97-5.41-.18-8.13,.14-.49,.54-.97,.94-1.29,1.79-1.46,2.82-3.32,3.37-5.56,.61-2.47,2.3-4.09,4.69-4.95,2.04-.73,3.5-.11,4.7,1.67,1.21,1.8,1.57,3.8,1.63,5.87,.05,1.42,.51,2.44,1.53,3.47,1.64,1.64,2.29,3.83,2.44,6.15,.03,.43,0,.86,0,1.29h.1Zm-9.92,4.5l.02,.2c1.2-.11,2.41-.15,3.59-.36,1.43-.26,1.65-1.04,.66-2.09-.4-.42-.91-.74-1.29-1.18-.49-.57-.85-1.25-1.35-1.81-.84-.95-1.72-1.86-2.64-2.72-.15-.14-.67-.04-.91,.12-2.35,1.54-3.65,3.86-4.55,6.43-.44,1.25,.29,2.17,1.61,2.02,1.62-.18,3.24-.4,4.85-.61Z" fill="#fff"/><path d="M174.83,2.95c1.05,.27,2.08,.59,3.14,.77,.59,.1,1.28,.12,1.83-.08,2.59-.97,5.18-1.7,7.93-.62,1.63,.64,2.99,1.52,3.42,3.42,.12,.51,.6,.97,1.01,1.36,.45,.42,1.02,.71,1.5,1.11,.81,.66,1.59,1.32,1.59,2.55,0,.34,.51,.7,.83,1.01,.08,.07,.49-.03,.49-.08,.04-.4,.12-.85,0-1.21-.37-1.1-.76-2.2-1.27-3.24-.21-.43-.73-.74-1.16-1.02-.71-.46-1.51-.79-2.19-1.29-.72-.54-.62-1.2,.21-1.52,2.16-.82,4.31-.7,6.29,.49,1.14,.68,1.71,3.34,1.15,4.85-.26,.69-.64,1.33-.98,1.98-.76,1.42-.98,2.84-.12,4.32,.73,1.26,.47,1.64-.89,1.95-.68,.15-1.34,.56-1.89,1.01-.72,.58-1.4,1.25-1.95,1.99-.37,.5-.66,1.18-.7,1.79-.15,2.59-1.83,4.33-3.39,6.08-.47,.53-1.48,.54-2.19,.88-2.4,1.16-4.71,1.42-7-.32-.94-.71-1.57-.42-1.64,.76-.11,1.93-1.12,3.46-2.02,5.04-.21,.37-.74,.56-1.12,.83-.28-.44-.71-.86-.81-1.34-.1-.5,.21-1.07,.19-1.6-.03-1.07,.1-2.25-.29-3.19-.55-1.31-.43-2.48,.2-3.57,1.73-2.98,1-6.05,.46-9.1-.2-1.15-.75-2.24-1.15-3.35-.87-2.44-2.24-4.4-4.88-5.22-1.19-.37-1.22-.75-.59-1.89,1.3-2.36,3.26-3.46,5.97-3.53Zm8.37,7.49c-1.25,.28-2.51,.51-3.74,.87-.28,.08-.61,.63-.59,.95,.08,1.36-.37,2.35-1.48,3.19-.9,.68-.72,1.8,.35,2.19,1.62,.59,2.6,1.72,3.37,3.17,.49,.93,1.53,1.23,2.37,.78,1.13-.59,2.29-1.14,3.37-1.8,.39-.24,.94-.98,.83-1.15-.96-1.63-.58-3.22-.08-4.85,.12-.38,.18-1.1,0-1.2-1.42-.79-2.52-2.29-4.42-2.16Z" fill="#fff"/><path d="M269.43,46.42c-.82-.27-2.3-.62-3.66-1.25-1.24-.57-1.3-1.62-.07-2.1,2.05-.81,2.84-2.51,3.77-4.22,.4-.75,.42-1.38,.11-2.2-.33-.88-.51-1.89-.45-2.82,.2-3.11-1.38-5.71-4.27-6.9-.33-.14-.71-.8-.64-1.12,.22-.98,.62-1.81,1.82-2.16,2.17-.63,2.93-2.11,2.28-4.2-.54-1.73-.92-3.5-1.47-5.23-.22-.69-.57-1.38-1.02-1.94-1.36-1.64-1.56-3.18-.41-5.08,.72-1.19,1.47-2.38,2.37-3.44,.44-.52,1.21-.87,1.9-1.03,1.92-.45,5,1.54,5.49,3.44,.37,1.45,.38,2.8-.07,4.33-.44,1.51-.97,2.9-1.67,4.29-.45,.9-.47,2,.4,2.92,.43,.45,.72,1.1,.89,1.72,.82,2.92,.55,5.75-.84,8.46-.43,.84-.22,1.52,.11,2.4,.58,1.53,.99,3.2,1.07,4.83,.12,2.32-.06,4.67-.21,6.99-.12,1.87-2.85,4.26-5.44,4.31Z" fill="#fff"/><path d="M24.51,45.32c.22-.37,.37-.82,.69-1.08,.24-.2,.68-.17,1.03-.25-.07,.38-.02,.88-.25,1.1-.31,.29-.83,.35-1.25,.52l-.21-.28Z" fill="#fff"/></g><path d="M27.85,35.32c.42,3.56-3.06,9.48-3.06,9.48l-.06,.81s3-.79,3.66-2.45c.29-.74,1.38-5.16,1.37-6.84-.02-2.11-1.24-1.41-1.9-.99Z" fill="#fff"/></g></svg>