<svg xmlns="http://www.w3.org/2000/svg" viewBox="0 0 310 54"><path d="M227.24.44v2.95h-22.47V.44h22.47zm-22.47 8.89v2.95h22.47V9.33h-22.47zm0 9.33v2.95h22.47v-2.95h-22.47zM106.64 3.09c-.23-.36-2.2-1.25-2.71-1.44C98.58-.39 88.99-.98 84.3 2.8c-1.95 1.57-2.64 4.24-1.03 6.33 3 3.89 13.3 3.37 17.92 4.69 3.45.99 4.76 3.41.77 4.98s-8.49 1.27-12.45.33c-1.81-.43-3.63-1.08-5.14-2.17l-1.57 2.8c1.27 1.01 2.83 1.56 4.38 1.99 5.17 1.45 12.86 1.85 17.59-1.04 2.48-1.52 3.88-4.17 2-6.84C103.94 9.86 93 10.39 88.4 8.89c-2.74-.89-4.36-3.07-1.02-4.64s8.55-1.38 12.08-.64c2 .42 3.99 1 5.62 2.29.06-.56 1.81-2.42 1.57-2.8zM155.6.43l-4.64.04-10.97 22.1h3.48c.18-.13 9.91-19.18 9.91-19.18l9.91 19.18h3.48L155.6.43zm26.09 22.01c5.15 1.2 11.99.22 15.44-4.08l-2.26-1.99c-4.45 5.21-15.91 4.66-19.09-1.62-2.91-5.75 2.41-11.08 8.01-11.64 3.97-.4 8.2.27 10.95 3.35l2.42-1.83c-2.84-3.67-7.98-4.88-12.45-4.6-15.45.96-17.62 19-3.02 22.4zM138.45 7.23c0 3.75-3.05 6.8-6.8 6.8h-14.93v8.54h-3.38V.44h18.32c3.75 0 6.8 3.05 6.8 6.8zm-3.37 0c0-1.89-1.53-3.42-3.42-3.42h-14.93v6.84h14.93c1.89 0 3.42-1.53 3.42-3.42zM0 29.62l7.34 22.07h4.03l6.32-15.36 6.32 15.36 3.8.03 7.66-22.12h-3.73l-5.45 17.5L19 29.61l-2.47.07L9.34 47.1l-5.7-17.48H0zm128.11 0l7.34 22.07h4.03l6.32-15.36 6.32 15.36 3.8.03 7.66-22.12h-3.73l-5.45 17.5-7.29-17.49-2.47.07-7.19 17.42-5.71-17.51h-3.64zm54.08 22.46c5.35-.37 11.27-4.19 11.92-9.87 1-8.75-6.93-13.63-14.89-13.07-17.74 1.24-16.33 24.26 2.97 22.94zm8.77-12.47c1.04 10.29-15.09 12.61-19.84 5.09-3.92-6.19 1.82-11.99 8.1-12.56 4.76-.43 11.21 2.12 11.75 7.46zm33.74-9.99l11.26 22.12 4.8-.19 10.91-21.93h-3.73l-9.67 19.1-9.94-19.1h-3.64zm-22.78 0v22.1h22.45c.43-.62.44-2.19 0-2.83h-18.9V29.62h-3.55zM88.53 43.13l5.62 8.59h-3.82l-5.86-8.52H72.68v8.54H69.3V29.61h18.32c3.75 0 6.8 3.05 6.8 6.8 0 3.44-2.57 6.28-5.89 6.73zm-.9-3.3c1.89 0 3.42-1.53 3.42-3.42s-1.53-3.42-3.42-3.42H72.7v6.84h14.93zm13.63-9.74v2.95h22.47v-2.95h-22.47zm0 8.89v2.95h22.47v-2.95h-22.47zm0 9.33v2.95h22.47v-2.95h-22.47zM40.51 30.09v2.95h22.47v-2.95H40.51zm0 8.89v2.95h22.47v-2.95H40.51zm0 9.33v2.95h22.47v-2.95H40.51zM257.9 30.09v2.95h22.47v-2.95H257.9zm0 8.89v2.95h22.47v-2.95H257.9zm0 9.33v2.95h22.47v-2.95H257.9zM309 32.68c-.23-.36-2.2-1.25-2.71-1.44-5.35-2.04-14.94-2.63-19.63 1.15-1.95 1.57-2.64 4.24-1.03 6.33 3 3.89 13.3 3.37 17.92 4.69 3.45.99 4.76 3.41.77 4.98s-8.49 1.27-12.45.33c-1.81-.43-3.63-1.08-5.14-2.17l-1.57 2.8c1.27 1.01 2.83 1.56 4.38 1.99 5.17 1.45 12.86 1.85 17.59-1.04 2.48-1.52 3.88-4.17 2-6.84-2.83-4.01-13.77-3.48-18.37-4.98-2.74-.89-4.36-3.07-1.02-4.64s8.55-1.38 12.08-.64c2 .42 3.99 1 5.62 2.29.06-.56 1.81-2.42 1.57-2.8z" fill="#fff"/></svg>