<svg xmlns="http://www.w3.org/2000/svg" width="350" height="44" viewBox="0 0 350 44"><path d="M153.9.62a6.34 6.34 0 0 0-1.78.22c-1-.06-1.94-.33-2.74.49l-.24-.33-.29.05c-.56 2.43-.39 4.94-.77 7.4a33.19 33.19 0 0 0-.61 5.55l-.19.28a15.09 15.09 0 0 1-.37 4.74h-.24a117.56 117.56 0 0 1-1-14.11l.06-.12c-.36-1.87.36-5.75-2.75-3.33-.18 5.94-1.18 11.79-1.25 17.75h-.32c-1.09-5.54-.71-11.31-1.58-16.79-.09.09-.21.19-.29.28.08-.09.2-.19.29-.28 0-.28-.08-.55-.12-.82l-.71-.09c-.86-1.18-1.52-1.36-2.48-.6-3.78-2.08-1.69 4.3-1.79 6 .34 2.78.62 5.68.9 8.47l.12.12-.1.07c.32 2.27.4 4.56.7 6.83l.11.12-.1.07c.77 6.2 1.13 12.46 1.79 18.66l1.09.51a.74.74 0 0 1 .69-1 .74.74 0 0 0-.69 1l.26.18c.72-.37 1.44.27 2.06-.35.73-.29 1.23.47 1.28-.79.46-5.17-.14-10.54 1.3-15.5 1.08 5.33.38 11 1.65 16.11 1 1 2.17.39 3.36.24.92-.07.94 0 1-.94.12-4.64 1.15-9.19 1.44-13.83.41-7.52 1.5-15.19 2.31-22.56a4.39 4.39 0 0 0 .14-.82l-.26-.39.26.39h.2c0-.57.15-1.16.14-1.71-.23-.4.34-1.11-.48-1.17zm-8.43 4.24c-.22 0-.3.18-.3.41 0-.27.08-.38.3-.41zM123.13 5.07c-.45-1.3-.2-2.73-.34-4.08-.1-.13-.19-.37-.3-.38-2-.67-3.28.68-5 0-1.28-.16-3.71-.82-4.06 1.07-.27-.85-1.37-1.82-1.73-.7-.12 4-.1 8 .12 12-.1 9.56-.78 19.24 0 28.74a5.62 5.62 0 0 0 .92 0l.09-.08.3.12c1-.5 2.35.25 3-.93l.83.29c-.18-3.6.13-7.29-.55-10.82-.57-1.22.35-1.42.55-2.44.38-1.34-.65-3.9 1.3-4.18a3.1 3.1 0 0 0 1-.53c3.13 1.75 1.55-.81 2.54-2.29-.28-4.61 1-3.9-3.34-4.89-1.57.63-.8-1.68-1-2.47.27-1.24-1-4.55.73-4.81 1-.07 2-.55 3.07-.13.32.12.81-.16 1.22-.23.88-.02.45-2.54.65-3.26zM280.93 4.28c-.26-1 .56-3.28-.57-3.69s-.85.61-1.48.91a.61.61 0 0 1-.48-.32c-.56-1.25-4.5-.43-5.89-.73s-1.77.84-2.44.48a1.39 1.39 0 0 0-1.48-.39c-.36 2.61-.09 5.29-.19 7.93 4 .24 3.43-.23 3.42 3.72-.38 3.14.14 6.48 0 9.71.22 6.37 0 12.73 0 19.1 0 .46 0 .91.73.72.28 0 .67.41 1 .48a2 2 0 0 1 1.28-.39l.34.21h1.06c.62-.47 1.49-.49 1.35-1.46 0-2.65.07-5.76 0-8.43-.3-7.45.23-14.91.1-22.36.59-3.43 4.32 2.51 3.25-5.49zm-11.82-3.22a1 1 0 0 1-.07.15 1 1 0 0 0 .07-.15zM257.25 4.41C257 3.29 257.59 2 257 1V.75c-.56-.41-1.25-.15-1.87-.28-.91-.37-1.5.43-2.28.46-1.44-.71-4.4-1.2-5.15.53-2.79-3.93-1.57 4.8-1.8 6.05 0 1-.16 3.06.15 3.59h-.18c.11 2 .07 5.06.1 6.45-.62 7.69.25 15.45-.42 23.16h.29a1.59 1.59 0 0 1-.07.2l1.38 1.07.13-.08a.38.38 0 0 1 0-.15.38.38 0 0 0 0 .15l.16.1c.68-.91 2 .2 2.89-.59.25-.15.7 0 1.14 0a52.8 52.8 0 0 0 0-6c-.09-2.53-.91-5.06 0-7.52.36-1.31-.58-3.48 1.14-4 2.55-.61 3.54 1.5 3.33-2.31.68-1.19-.1-2.54.11-3.88s-1.61-.83-2.52-1.25c-.53.81-1.63.3-1.88-.4-.12-2.1-.22-4.2-.28-6.3 0-1 .32-1.33 1.39-1.38 4.31-.79 3.93.8 4.49-3.96zM80.82.58a1.94 1.94 0 0 0-1.44.28c-.46-.49-1-.1-1.47-.17-.83-.19-.73.37-1.19.69l-.43-.6-.43.38A101.17 101.17 0 0 1 75 12l.14.11c-.07.2-.14.39-.2.59s.16.13.23.19-.17-.13-.23-.19c-.58 1.91-.44 4-.6 5.95h-.31a62.23 62.23 0 0 1-1-13.62c-.12-.18-.24-.35-.35-.53-.12-1 .48-4-1-3.84-1.06.09-1.33.37-1.36 1.38-.21 2-.21 4-.25 6l.07.06-.11.1c-.39 2.17-.42 4.4-.61 6.59.12.23.35.46.33.67 0-.21-.21-.44-.33-.67h-.16a42.36 42.36 0 0 1-.34 4.52h-.26c-.44-4.48-1.55-9.22-1-13.64-.19-1-.37-2-.56-2.94l.09-.16-.37-.34.37.34c-.13-.43.09-.82 0-1.23-1.53.43-.56-.06-1.4-.88L64.25.42c-.2.23-.18.39-.3.75-.75-1-1.37-.3-2.29-.34l-.08.78.11.1-.09.07.09 1.22.14.11-.09.08c1.33 12.38 2.9 25.41 3.82 38.1l1.21.63a.31.31 0 0 0 0-.1l-.34-.25.34.25c1-.3 2.9.16 3.29-1 .58-5.3 0-10.91 1.34-16h.24c.76 4.63.68 9.44 1.12 14.12h.09v.3a4.93 4.93 0 0 0 0 1.33l.67-.54.69 2c.83-.41 2.13 0 2.83-.48 1.24-3.25.89-7.26 1.48-10.73.87-8.71 1.11-17.59 3-26.13 0-1.44.06-2.87.2-4.31l-.44-.15c-.16.12-.28.37-.46.35zM60.26 36.79v-1.72c-.14-.24-.29-.48-.44-.72h-.06c-.74-.08-1.79.47-2.28-.2-.11-.08-.27-.06-.4-.1-3 3.15-1.45-8-1.72-9.32-.36-2.36 1.86-.91 3.31-1.52 1.27-1.27.55-3.68.76-5.35-.23-.5.07-1.61-.77-1.52.09.66.22 1.32.25 2 0-.67-.16-1.33-.25-2h-.78c-.25-.14-.49-.29-.73-.44-1.17.4-1.66.09-1.67-1.11.36-1.56-1.08-6.93 1.28-6.76 1-.28 3.34.71 3.44-.73a12.34 12.34 0 0 0-.07-3.49c0-1.12.31-2.21-.48-3.16C58.57.59 57.47.3 56.47 1c-.11.08-.39 0-.57-.09-1.36-.68-2.63-.24-4-.06-.84-.12-2.41-.73-2.43.62.06 6.28.09 12.5.16 18.77-.49 3.26.16 6.58.17 9.81 0-.29-.08-.58-.12-.88l-.15-.08c.21 4.25-.77 8.74.22 12.87h.11c-.13-1.44.06-2.9 0-4.35 0 1.3-.07 2.6-.1 3.9.29.11.58.19.87.31h.4a.1.1 0 0 0 .08.09l.05.17.17.09c2.53 0 5.1-.48 7.62-.21 1.79.34 1.27-1.87 1.43-2.91-.04-.79-.68-1.48-.12-2.26zM348.93 21.58c-1.23-1.41-1.77-3.17-3.07-4.55a3.12 3.12 0 0 0-3.36-.28c-1 .41-.9-1.47-1-2 .37-1.55-.84-7.28 1.28-7.27.71 0 1.07.34 1.21 1.17.27 3.88-1.57 4.36 3.1 4.66 1.23-.91.78-.08 2 .08l.42-.51c0-3.41.53-7.12-1.86-9.78v-.25c-2-.67-.86-2.11-2.26-2.37l-.16.28c-.19.06-.48.24-.55.18-1-1.16-3 .23-3.62-.7-1.25 0-2.53.13-2.68 1.65a7.56 7.56 0 0 0-1.28 2.19c-.73 1.23-2 2-1.76 3.67a58.25 58.25 0 0 1-.11 10.06l1.84 3.47c.56-.1.75.19 1 .65 3.46 8.82 7-3.77 5.78 10.58a1.21 1.21 0 0 1-1.93 1.1c-.2-.29-.07-.79-.08-1.2.38-5.48-1.16-4-5.71-4.38-1.21 1.06-.2 4.71-.47 6.37-.66 2.38 1.89 4 2.94 5.87.47.63.34 1.74 1.42 1.67h5.39c1 0 1.49-1.31 1.85-2.07.85-1.47 2.28-2.49 2.6-4.25v-10a4 4 0 0 0-.93-4.04zM19.49.55C17.86 1 16.65.17 15.14 1c-.58-.27-.67.12-.72.5-.57 3.39-.08 7.21-1.23 10.38-.28 1.91.29 4.17-.49 5.89-1-3.66-.69-7.83-1.13-11.66a37.7 37.7 0 0 0-.28-5c0-.88-.93-.66-1.57-.69-2-.62-.58 9.19-2 10.63a50.16 50.16 0 0 1-.19 8.84h-.28A91 91 0 0 1 5.93 6c.38-1.45 0-3-.22-4.46C4.84.24 3 .21 1.59.2.43.17-.07.6 0 1.69c.28 3.55.74 7.08 1.14 10.62.51 5.59 1 11.21 1.55 16.8C3 30.74 3 42.87 4.86 42c.89-.74 3.65.21 3.83-1 .56-5.34.13-10.9 1.36-16.1.84 2 .78 11.51 1.21 15.15 0 1.36.37 1.33 1.57 1.85.76-.13 1.42-.68 2.29-.34.49.19.82-.14.86-.64.56-6.57 1.55-13.06 1.9-19.66.93-5.5.73-11.17 2.15-16.58-.21-.81.85-4.51-.54-4.13zM32.13.66a3.6 3.6 0 0 0-3 .13.78.78 0 0 1-.58.11 7.7 7.7 0 0 0-3.74-.24c-3.55-1.43-2.9 1.79-3.12 4.06L22 5c.05-.22.11-.45.15-.68-.57 3.23-.29 6.52-.29 9.79h.15c0 4.93-.47 9.84.25 14.78a14.77 14.77 0 0 1-.26 3.66c-.06 2.66 0 5.32 0 8-.05 1 .86 1 1.61 1.32a49.08 49.08 0 0 1 7.77-.25c.86.18 1.2-.08 1.24-.92a34.81 34.81 0 0 0 0-4.79c.23-2.12-1.72-1.2-3.09-1.84-2.19.89-1.4-2.14-1.51-3.29.28-1.28-.75-7.37 1-7.16 1.09-.12 3.19.5 3-1.17.2-1.65-.27-3.25-.24-4.89.22-1.94-.7-.83-2-1.58-1.27.51-1.71.23-1.74-1.08.32-1.51-1.11-6.94 1-7 4 .25 3.51.69 3.74-3.15l-.26-.3v-.68h.34c.01-.96.04-2.54-.73-3.11zM229.26 17.81zM244.38 6.9c-.31-1.29-1.26-.67-1.32-2.22a1.71 1.71 0 0 0-1-1.54c-.72-.68-.29-2-1.1-2.67a65.87 65.87 0 0 0-6.6-.47c-1-.08-1 .89-1.39 1.42-.81.5-1 1.34-1.3 2.1-3.73 4-1.2 9.54-2.41 14.25.14.09.4.19.4.28-.22 3.95-.09 7.9-.11 11.86.26 2.21-.62 4.77.56 6.76 1 .42.83 1.41 1.3 2.18A2.24 2.24 0 0 1 233 41c.06.86.29 1 1.16.72 1.38 0 2.79.17 4.18.17 2.35.41 3.25-1.64 4.38-3.21.23-.51 0-1.2.67-1.53 1.57-2.3.93-4.88.91-7.4-.24-7.61.24-15.32.08-22.85zm-5.76 2.78a.92.92 0 0 0-.05-.82c-1.3 6.46-.74 13.11-.73 19.65-.25 2.06.55 4.54-.9 6.21-2.5-2-.54-16.1-1-20.18.43-2.09-1.48-7.74 2.6-6.1a3.89 3.89 0 0 0-.12-.49 4.31 4.31 0 0 1 .2 1.73zM97.8 8c-.14-2.91-1.44-.86-1.45-3.87C94.9 3.6 95.12 1.4 93.91.79c-.82.25-1.69-.83-2.44.1a25.83 25.83 0 0 1-2.71-.36c-2.4-.5-1 .88-2.9 2.58-.28.58-.17 1.38-1.07 1.6-.92 1-.77 2.53-1.29 3.76-.35 7 .33 14 .12 21-.14 2.2-.76 4.92.38 6.92.37.24 1 .27.8.94 0 1 1.21 1.46 1.63 2.26a10.56 10.56 0 0 0-1.37-1.49L85 38l.09.88c1.38.29.93 1.86 1.58 2.7.93-.08 1.89.42 2.79-.16a.42.42 0 0 1 .39 0c.65.46 1.37.22 2.07.25 2.56.35 2.91-1.93 4.34-3.47.11.32.17.51.24.7a20.83 20.83 0 0 0 1.22-9.41c-.17-7.07.11-14.49.08-21.49zm-8.39 1.3a1.46 1.46 0 0 1 2.19-1.13c.77 1.35-.28 3.25-.34 4.74.22.25.53.45.45.82 0 4.95.1 9.91.12 14.86-.24.87.56 6.44-1 5.4-.11.27-.21.54-.34.84-2.29-.57-.74-8.77-1.12-11-.13-4.83-.08-9.69.04-14.53zM110.39 39c-.82-1.4 1.25-4.71-1.34-4.62a5.48 5.48 0 0 1-2.21-.33h-.13l-.07.32-2.46.16c1.32-5 .29-9.89.26-14.9 0-4.67.59-9.33.39-14l.19-.54c-.67-.6.79-5.29-.73-4.13a.72.72 0 0 1-.64 0c-.94-.94-1.88.16-2.86-.11-.91-.43-1.44-.16-1.42.8 0 3.32.28 6.62.28 9.94l-.26-.3c-.09 6.07-.29 12.14-.27 18.21a79.75 79.75 0 0 1 .12 8.5c0 1.18-.58 2.55.39 3.51.56-.25.2-1.06 1-1l.1.25.27.83c1.68-.08 3.36.14 5 .07 1.18-.08 2.33-.46 3.52 0s.6-1.75.77-2.46zm-7.21 2.19zM308.44 37.07c.39-4.24-.83-1.67-3-3-.92.34-1.51 0-1.52-.95.3-1.35-.8-10.07.86-9.52 3.53.17 3 0 3.18-3.12-.39-2.44 1.27-4.83-2.43-4.71-2.66 1.61-1.22-5.74-1.55-7 .31-1.39 2.59-.36 3.66-.57 1.82.41.92-4.77 1.15-5.93 0-1.56 0-1.61-1.59-2-1-.52-2.07.27-3 .23a22.77 22.77 0 0 0-6-.17c-1.35 1.41 0 3.74-1 5.44.94 7.3-.11 15 .72 22.41.91 1 .25 2.57.34 3.81 0 .75 0 .75 0 0h-.48a50.45 50.45 0 0 0 .15 9.6c.71-.29 1.19.1 1.66.52 2.76 0 5.53 0 8.29-.18 1.51-.52.7-3.67.56-4.86zM296.35 30.09c0-9.92.14-19.94-.06-29.72l-.18.23a18.24 18.24 0 0 0-3.83-.26c-1.43-.49-1.85.24-1.8 1.53v14.71a.63.63 0 0 1-.69.7c-.41.52-.88.09-1.3 0-.13 0-.27-.44-.29-.68-.05-2.45-.18-4.91-.26-7.36.28-2.66.13-5.29.23-8 0-.78-.39-.9-1.1-.56-.2 0-.47.12-.6 0-1.29-.68-2.47-.07-3.7.32-.45.38-.33 1.17-.45 1.7-.4 10.48-.27 21.34 0 31.94-.21 2.29-.1 4.67-.23 7a5.82 5.82 0 0 0 1.75.15l.13.1c1.37-1.08 2.05.55 3.83-.42.44-3 0-6.3.07-9.37.21-2.35-.33-5 .53-7.19a1 1 0 0 1 .85-.27c2.3-.08 1.29 3 1.29 4.5l.28.44c-.21 3.73-.26 7.48-.1 11.21.19 1.2.67.45 1.5.86v.47c1-.33 4.29.09 4.18-1.12-.12-3.67-.04-7.29-.05-10.91zM319.93 18.22a15.75 15.75 0 0 0 1.45 3c.69-.06.86.44 1.09.9.79 1.11 1 3.37 2.79 3.24 4.44-.83 2.6.77 3 4.31l.26.14c-.15 1.29.17 2.68-.52 3.84h-.17c-3 1.25-1.19-3.1-1.67-4.51-.6-1.78-3.92-.5-5.47-.84-1.74-.24-.39 4.7-.74 5.9-.29 1.77 1.6 2.68 1.61 4.31 4.05 4.69.34 3 8.08 3.33 1.7-.14 1.91-2.46 3-3.51a7.54 7.54 0 0 0 1.57-4.72c0-2.81-.35-5.72.24-8.48.29-1.54-.75-2.86-1.3-4.13-.68-.14-.72-.69-.85-1.19a20.45 20.45 0 0 0-2.44-3.44l-2.38.08-1 1c-.74-1.38-1.62-10.38.66-10.1a1 1 0 0 1 1.24 1.09c.75 2.79-1.42 4.94.58 4.82a25.45 25.45 0 0 0 2.77-.12 1.29 1.29 0 0 1 1.39.15h.29l.38-.32a19.75 19.75 0 0 0 .2-4.61 4.51 4.51 0 0 0-.6-3.55c-.73-.84-1.06-2.07-1.95-2.75a.9.9 0 0 1-.66-.93c.15-1.82-6.16-.8-7.62-1-.64 1.45-1.58 2.8-2.27 4.21a4.74 4.74 0 0 0-1.35 3.49c.22 3.47.2 7 .41 10.43M202.78 37.78c.29-4-.15-4.15-4.12-3.45a1.13 1.13 0 0 1-.69-.81c.07-1.9-.25-4 .14-5.78v-3c-.16-1.17 0-1.3 1.24-1.17 1 .05 2.38.18 2.54-1.11s1-7.21-1.18-6.51c-1.15-.17-2.74.7-2.64-1.07s0-3.75 0-5.63c-.2-2.05 2.41-.9 3.66-1.08 1.59.33 1.3-3.51 1.08-4.42s.64-2.48-.57-3c-1.89-1-4.05.45-6.06-.25-4.57 0-4.39-.57-4.24 4-.51 7-.13 14.33-.14 21.45.05 5.36-.47 10.83.3 16.14 3.08.09 6.28-.5 9.44-.32 1.68.31 1-2.1 1.39-3.07a1.63 1.63 0 0 1-.15-.92zM190.34 4.09c-.16-.87.58-3.26-.56-3.45-.84 0-2-.26-2.7.2-.77 1-1.88-.65-3.27-.13-.19 0-.3.77-.34 1.2.09 3.39-1 6.65-1.11 10a.11.11 0 0 1 .08 0v.68c-.32 1 .2 3.64-.84 4.06-.16 1 .26 2.13-.42 2.91-.85-2.58-.58-5.57-1.25-8.26-.25-3.53-.1-7.36-1.17-10.67a2.7 2.7 0 0 0-1.91.18 5.08 5.08 0 0 0-3.38.1c-1.18.81-.64-.26-1.39-.19.2 6.67-.08 13.17 0 19.85.17.11.5.22.49.33-.23 1.45.11 3.27-.51 4.53-.32 5 .29 10.09-.32 15l.49.61.31-.31 1.09.93c1.91-.71 3.9.56 3.84-1.33-.09-7-.17-14 .2-20.92h.18c.31 4 1.41 8 1.32 12a61.92 61.92 0 0 0 .59 8.93c0 1.2.2 1 1.29 1.19 1.51-.49 1.1-2.56 1.46-3.79.64-6.74.66-13.51 2-20.15h.23c.81 7.77.09 15.64.16 23.43 0 1.24 1.2-.33 1.46 1l.23.13c.55-.24 2.28-1.52 2.7-1 .62.52 1.17.12 1.14-.59-.43-12.15.29-24.37-.09-36.47z" fill="#fff"/><path d="M182.57 13.09a.22.22 0 0 1-.09.07.22.22 0 0 0 .09-.07zM218.55 3.67c-.1-1.09.16-4.17-1.76-3-1.19.21-3.29-1.22-4 .29 0 4.32.08 13.12 0 13h-.29a5.68 5.68 0 0 1 .1 2.59h-.27a49.94 49.94 0 0 1-2-11.93c-1-.73-.13-5.22-2-4-.91.11-4.2-.68-4.29.42.07 1.29-.35 2.71.05 3.93-.06-.11-.12-.22-.17-.33l-.46.17c.79 2.5.55 5.25.58 7.85h.41c-.59 4.8-.24 9.59-.15 14.4s-.66 9.59-.06 14.3l1.5.23v.5c.84-.09 1.78.24 2.5-.48.5 0 1.34.75 1.32-.27.31-5.05-.15-10.22.31-15.21h.23a22.93 22.93 0 0 1 1 6.89.67.67 0 0 0 .5.08 34.27 34.27 0 0 1 1.67 8.35 7.26 7.26 0 0 0 3 .4c.54 0 1.06-.49 1.62-.06 0 0 .33-.26.36-.42.65-12.55.1-25.24.3-37.7zM47.78 24.46v-.48c-2.77-1.34-2.75-3.5-1-5.69 1.08-.56 1.42-.7 1.37-1.95.14-2.29-.36-4.67.29-6.89A19 19 0 0 0 45.91 3C44.78 2.72 45 1.55 44.44.78l-.31-.21c-3-.16-6-.13-9-.13-1 0-1.24.23-1.23 1.17.12 1.24-.17 2.64.39 3.77a2.2 2.2 0 0 0-.29-.55h-.17a30.28 30.28 0 0 1 0 7.55h.2c.11 5.43.06 10.88.09 16.32.1 4.38-.54 8.75.21 13.07l1.1.22.13-.08c0 .1.07.21.11.32 5.59-1.18 3.91 1.6 4.28-7v-9.27a1.13 1.13 0 0 1 1.21-1.16c1.75.29.69 2.93.87 4.16a.78.78 0 0 0 .44.43c.24 3.64-.33 7.28 0 10.87-.05.94-.05.94.78 1a.92.92 0 0 0 .6.19l.2.62a4.75 4.75 0 0 0 1.27-.21c1.11-.46 2.73 1.1 2.94-.93.08-4.25-.83-8.84.37-12.93-.91-1-.01-2.43-.85-3.54zM41.55 8c1.47.79.48 3 .62 4.33a14 14 0 0 1 .27 5.51l-1-.56c-2.7 2-1.37-6.34-1.68-7.6-.03-1.32.5-1.86 1.79-1.68zM170.33 7.89v-.42c-.1-.39-.06-1-.35-1.29-1.54-.23-.5-2.19-2-2.74-.64-.6-.41-2.1-1.18-2.71a3.6 3.6 0 0 0-2.73.17c-.91-.43-4.26-1-4.32.37-.06.51-.1.85-.7 1.09s-.7 1.41-1.09 1.87c-.86.45-.83 1.39-1.31 2-1.43 6.22-.25 12.75-.6 19.1.64 3.82-1.32 8.35 1 11.73a1.88 1.88 0 0 1 .6 1.54h.12l.2-.36-.2.36v.36A2.12 2.12 0 0 1 159 41.3l.15.23c2.42-.12 4.76.45 7.14 0 1.33-.6 1.61-2.39 2.55-3.42 2-2.38 1.57-5.42 1.49-8.29.23-7-.54-14.22.4-21.21a.17.17 0 0 1 0-.1 2.21 2.21 0 0 1-.4-.62zm-6.86 26.21c-2.65 2.11-.94-13.17-1.31-14.76-.21-3.35.07-6.72.15-10.08a1.19 1.19 0 0 1 1.74-.85c.69 1.13-.07 2.75 0 4h.38c.57.88.69 28.33-.96 21.69z" fill="#fff"/></svg>