<svg xmlns="http://www.w3.org/2000/svg" width="300" height="61" viewBox="0 0 300 61"><path d="M59.28.6a7.66,7.66,0,0,1,2.41.3A4.45,4.45,0,0,1,63.55,2,5.41,5.41,0,0,1,64.73,4.1a10.4,10.4,0,0,1,.41,3.12,8.93,8.93,0,0,1-.33,2.44,7.25,7.25,0,0,1-.93,2.07,6,6,0,0,1-1.43,1.5,4.4,4.4,0,0,1-1.82.78v.07a2.69,2.69,0,0,1,1.62,1.72,8.38,8.38,0,0,1,.42,2.74c0,.57,0,1.24-.07,2s-.07,1.58-.07,2.36c0,.56,0,1.1,0,1.61a6.59,6.59,0,0,0,.22,1.32H58.6c-.06-.3-.1-.59-.14-.86a5.73,5.73,0,0,1-.06-.84c0-.84,0-1.7.11-2.56s.11-1.72.11-2.57a4.54,4.54,0,0,0-.2-1.5,2.39,2.39,0,0,0-.58-.94,2,2,0,0,0-.89-.47A4.68,4.68,0,0,0,55.79,16H51.72L50.1,25.86H45.81L49.91.6ZM56.37,12a6.2,6.2,0,0,0,1.68-.23,4.07,4.07,0,0,0,1.41-.71,3.29,3.29,0,0,0,1-1.24A4,4,0,0,0,60.82,8a4.17,4.17,0,0,0-.26-1.64,2.1,2.1,0,0,0-.7-.94,2.46,2.46,0,0,0-1-.43,6.66,6.66,0,0,0-1.21-.1H53.54L52.38,12Z" fill="#fff"/><path d="M66.11,13.89a11.38,11.38,0,0,1,1.54-3.38A7.84,7.84,0,0,1,70.1,8.19a6.23,6.23,0,0,1,3.24-.86A6.85,6.85,0,0,1,76,7.81a5.1,5.1,0,0,1,2,1.44,6.65,6.65,0,0,1,1.26,2.36,10.57,10.57,0,0,1,.45,3.24A15.88,15.88,0,0,1,79.13,19a11.5,11.5,0,0,1-1.5,3.47,7.62,7.62,0,0,1-2.43,2.37,6.29,6.29,0,0,1-3.31.87,5.73,5.73,0,0,1-4.68-2,8.85,8.85,0,0,1-1.64-5.75A14.89,14.89,0,0,1,66.11,13.89Zm2.78,5.77a4.63,4.63,0,0,0,.58,1.44,2.84,2.84,0,0,0,1,1,2.73,2.73,0,0,0,1.46.37,3.17,3.17,0,0,0,2-.67A5.41,5.41,0,0,0,75.37,20a9.14,9.14,0,0,0,.87-2.37,11.87,11.87,0,0,0,.29-2.55,9,9,0,0,0-.17-1.76,4.49,4.49,0,0,0-.55-1.43,3,3,0,0,0-1-1,2.81,2.81,0,0,0-1.47-.37,3.33,3.33,0,0,0-2.08.68A5.3,5.3,0,0,0,69.82,13,9.25,9.25,0,0,0,69,15.38a12,12,0,0,0-.28,2.56A7.31,7.31,0,0,0,68.89,19.66Z" fill="#fff"/><path d="M86.05,7.75,83.62,22h6.87l-.56,3.25h-10l3-17.54Z" fill="#fff"/><path d="M98.15,7.75,95.72,22h6.87L102,25.29H92L95,7.75Z" fill="#fff"/><path d="M109.94,7.75l-3,17.54H103.8l3-17.54Z" fill="#fff"/><path d="M115.91,7.75l3.87,12.48h0l2-12.48h2.86l-3,17.54h-3.13L114.68,13h0l-2,12.31H109.7l3-17.54Z" fill="#fff"/><path d="M135.15,23.49a4.36,4.36,0,0,1-1.63,1.69,4.16,4.16,0,0,1-2,.5,5.69,5.69,0,0,1-4.67-2,8.8,8.8,0,0,1-1.65-5.75,14.89,14.89,0,0,1,.54-4.05,11.38,11.38,0,0,1,1.54-3.38,7.84,7.84,0,0,1,2.45-2.32A6.25,6.25,0,0,1,133,7.33a7.19,7.19,0,0,1,2.35.37,5.18,5.18,0,0,1,1.91,1.13,5.34,5.34,0,0,1,1.3,1.93,7.54,7.54,0,0,1,.47,2.79h-3.12a3.11,3.11,0,0,0-.82-2.3,3,3,0,0,0-2.07-.68,3.33,3.33,0,0,0-2.08.68A5.3,5.3,0,0,0,129.5,13a9.25,9.25,0,0,0-.84,2.39,12,12,0,0,0-.28,2.56,7.31,7.31,0,0,0,.19,1.72,4.63,4.63,0,0,0,.58,1.44,2.93,2.93,0,0,0,1,1,2.74,2.74,0,0,0,1.47.37,3.82,3.82,0,0,0,1.54-.28,3.5,3.5,0,0,0,1.11-.77,4,4,0,0,0,.78-1.19,8.43,8.43,0,0,0,.51-1.54h-3.29l.5-2.87h6l-1.64,9.48h-2v-1.8Z" fill="#fff"/><path d="M161.56,5.86A3.14,3.14,0,0,0,159,4.67a4.5,4.5,0,0,0-2.88,1,7.53,7.53,0,0,0-2,2.52A12.84,12.84,0,0,0,153,11.59a18.24,18.24,0,0,0-.39,3.69,11.57,11.57,0,0,0,.26,2.48,7.09,7.09,0,0,0,.8,2.07A4.2,4.2,0,0,0,155,21.26a3.64,3.64,0,0,0,2,.53,3.54,3.54,0,0,0,1.66-.4,4.73,4.73,0,0,0,1.39-1.1,6.7,6.7,0,0,0,1-1.61,7.08,7.08,0,0,0,.55-1.91H166a22.65,22.65,0,0,1-1.56,4.49,11,11,0,0,1-2,3,6.77,6.77,0,0,1-2.47,1.67,8.36,8.36,0,0,1-3,.51,7.77,7.77,0,0,1-6.45-2.87q-2.26-2.86-2.26-8.28A22.12,22.12,0,0,1,149,9.45a16.46,16.46,0,0,1,2.13-4.87,11,11,0,0,1,3.38-3.34A8.65,8.65,0,0,1,162.15.6a6.8,6.8,0,0,1,2.52,1.79,8.25,8.25,0,0,1,1.64,2.93,12.87,12.87,0,0,1,.55,4.06h-4.32A5.43,5.43,0,0,0,161.56,5.86Z" fill="#fff"/><path d="M167.68,13.89a11.55,11.55,0,0,1,1.48-3.38,7.53,7.53,0,0,1,2.35-2.32,5.76,5.76,0,0,1,3.1-.86,6.3,6.3,0,0,1,2.5.48A4.91,4.91,0,0,1,179,9.25a6.74,6.74,0,0,1,1.21,2.36,10.91,10.91,0,0,1,.43,3.24,16.79,16.79,0,0,1-.49,4.12,12.24,12.24,0,0,1-1.45,3.47,7.33,7.33,0,0,1-2.33,2.37,5.83,5.83,0,0,1-3.17.87,5.37,5.37,0,0,1-4.48-2,9.09,9.09,0,0,1-1.58-5.75A15.71,15.71,0,0,1,167.68,13.89Zm2.66,5.77a4.86,4.86,0,0,0,.56,1.44,2.74,2.74,0,0,0,.95,1,2.54,2.54,0,0,0,1.4.37,2.93,2.93,0,0,0,1.93-.67A5.42,5.42,0,0,0,176.56,20a9.47,9.47,0,0,0,.83-2.37,12.5,12.5,0,0,0,.27-2.55,9,9,0,0,0-.16-1.76,4.47,4.47,0,0,0-.52-1.43,3,3,0,0,0-.94-1,2.59,2.59,0,0,0-1.41-.37,3.14,3.14,0,0,0-2,.68A5.25,5.25,0,0,0,171.24,13a9.6,9.6,0,0,0-.81,2.39,12.66,12.66,0,0,0-.27,2.56A7.89,7.89,0,0,0,170.34,19.66Z" fill="#fff"/><path d="M192.69,21.28a7.53,7.53,0,0,1-1.23,2.42,5,5,0,0,1-1.87,1.48,6.56,6.56,0,0,1-2.69.5,7.3,7.3,0,0,1-2-.27,4.9,4.9,0,0,1-1.72-.87,4.42,4.42,0,0,1-1.22-1.6,5.74,5.74,0,0,1-.47-2.44,9.77,9.77,0,0,1,.1-1.32c.06-.43.13-.86.19-1.29l1.66-10.14h3l-1.66,10.14q0,.22-.09.51t-.09.6c0,.21-.06.41-.08.6a4.9,4.9,0,0,0,0,.5,3.08,3.08,0,0,0,.11.74,2,2,0,0,0,.39.78,2.45,2.45,0,0,0,.78.6,3,3,0,0,0,1.28.24,3.21,3.21,0,0,0,1.49-.3,2.65,2.65,0,0,0,.93-.86,4.66,4.66,0,0,0,.55-1.37c.13-.54.26-1.14.37-1.79l1.7-10.39h3l-1.66,10.19A22.32,22.32,0,0,1,192.69,21.28Z" fill="#fff"/><path d="M203.58,7.75a5,5,0,0,1,1.68.21,3,3,0,0,1,1.28.78,3.61,3.61,0,0,1,.82,1.44,6.8,6.8,0,0,1,.29,2.16,6.34,6.34,0,0,1-.23,1.7,4.81,4.81,0,0,1-.65,1.43,4.14,4.14,0,0,1-1,1,3,3,0,0,1-1.26.54v.05a1.88,1.88,0,0,1,1.13,1.19,5.93,5.93,0,0,1,.28,1.9c0,.4,0,.87,0,1.42s0,1.09,0,1.63,0,.76,0,1.12a3.93,3.93,0,0,0,.15.92h-2.92c0-.22-.07-.42-.1-.6a5.65,5.65,0,0,1,0-.58c0-.59,0-1.18.08-1.78s.08-1.19.08-1.78A3.07,3.07,0,0,0,203,19.5a1.63,1.63,0,0,0-.4-.65,1.38,1.38,0,0,0-.62-.33,3.32,3.32,0,0,0-.8-.09h-2.83l-1.12,6.86h-3l2.84-17.54Zm-2,7.93a4.08,4.08,0,0,0,1.17-.16,2.91,2.91,0,0,0,1-.49,2.45,2.45,0,0,0,.69-.86,2.86,2.86,0,0,0,.25-1.26,3,3,0,0,0-.18-1.14,1.53,1.53,0,0,0-.48-.66,1.87,1.87,0,0,0-.71-.29,4.61,4.61,0,0,0-.84-.07h-2.85l-.8,4.93Z" fill="#fff"/><path d="M218.4,7.75l2.27,17.54h-3l-.44-3.91h-5.1l-1.72,3.91h-3.15l8-17.54ZM217,18.51l-.67-7h0l-2.94,7Z" fill="#fff"/><path d="M231.77,23.49a4.38,4.38,0,0,1-1.64,1.69,4.1,4.1,0,0,1-1.95.5,5.73,5.73,0,0,1-4.68-2,8.8,8.8,0,0,1-1.64-5.75,15.29,15.29,0,0,1,.53-4.05,11.4,11.4,0,0,1,1.55-3.38,7.84,7.84,0,0,1,2.45-2.32,6.28,6.28,0,0,1,3.24-.86A7.25,7.25,0,0,1,232,7.7a5.18,5.18,0,0,1,1.91,1.13,5.34,5.34,0,0,1,1.3,1.93,7.33,7.33,0,0,1,.48,2.79h-3.13a3.15,3.15,0,0,0-.82-2.3,3,3,0,0,0-2.08-.68,3.35,3.35,0,0,0-2.08.68A5.3,5.3,0,0,0,226.11,13a9.25,9.25,0,0,0-.84,2.39,12,12,0,0,0-.28,2.56,7.31,7.31,0,0,0,.19,1.72,4.87,4.87,0,0,0,.57,1.44,3,3,0,0,0,1,1,2.77,2.77,0,0,0,1.47.37,3.78,3.78,0,0,0,1.54-.28,3.44,3.44,0,0,0,1.12-.77,4.38,4.38,0,0,0,.78-1.19,10.3,10.3,0,0,0,.51-1.54h-3.29l.49-2.87h6l-1.64,9.48h-2v-1.8Z" fill="#fff"/><path d="M250.21,7.75,249.67,11h-7.74l-.63,3.76h7.15l-.51,3h-7.16L240,22h7.86l-.56,3.25h-11l3-17.54Z" fill="#fff"/><path d="M252.78,21.5l-.63,3.79h-3l.61-3.79Zm-2.24-4.91.63-3.78h3l-.63,3.78Z" fill="#fff"/><path d="M0,37.14l.71-4h15.2l-.71,4H9.74L6.63,55h-4L5.71,37.14Z" fill="#fff"/><path d="M21.32,33.09,20,41H20a4.18,4.18,0,0,1,.58-.73,5,5,0,0,1,.92-.74,5.55,5.55,0,0,1,1.25-.56,5.05,5.05,0,0,1,1.61-.23c2.56,0,3.85,1.42,3.85,4.26a5.62,5.62,0,0,1-.05.62l-.12.78c0,.27-.08.52-.13.75s-.07.43-.09.57L26.21,55H22.59l1.61-9.28c0-.24.08-.57.14-1a7,7,0,0,0,.09-1,1.45,1.45,0,0,0-.55-1.16,1.8,1.8,0,0,0-1.19-.46,2.76,2.76,0,0,0-1.44.38,3.91,3.91,0,0,0-1.07,1,5.7,5.7,0,0,0-.74,1.41A10.22,10.22,0,0,0,19,46.54L17.52,55h-3.6L17.7,33.09Z" fill="#fff"/><path d="M33.51,48.38V49a3.38,3.38,0,0,0,.71,2.24,2.69,2.69,0,0,0,2.19.85,2.12,2.12,0,0,0,1-.2,2.92,2.92,0,0,0,.74-.5,3.51,3.51,0,0,0,.56-.7c.16-.27.31-.53.44-.77h3.63a12.31,12.31,0,0,1-1,2.36A6.56,6.56,0,0,1,40.31,54a5.2,5.2,0,0,1-1.9,1,8.28,8.28,0,0,1-2.51.34,6.42,6.42,0,0,1-2.41-.43,4.72,4.72,0,0,1-1.85-1.3,6.06,6.06,0,0,1-1.18-2.16,9.7,9.7,0,0,1-.42-3,13,13,0,0,1,.51-3.66A10.84,10.84,0,0,1,32,41.68a7.36,7.36,0,0,1,2.28-2.17,5.77,5.77,0,0,1,3-.81,7,7,0,0,1,2.52.43,4.93,4.93,0,0,1,1.93,1.3A5.93,5.93,0,0,1,43,42.6a9.27,9.27,0,0,1,.45,3,17,17,0,0,1-.2,2.48H33.53A1.42,1.42,0,0,0,33.51,48.38Zm6.36-4.25a3.43,3.43,0,0,0-.35-1.08,1.85,1.85,0,0,0-.74-.78,2.39,2.39,0,0,0-1.27-.3,3.19,3.19,0,0,0-1.35.28,3.26,3.26,0,0,0-1,.74,4.13,4.13,0,0,0-.73,1.07,9.44,9.44,0,0,0-.5,1.28H40A8.21,8.21,0,0,0,39.87,44.13Z" fill="#fff"/><path d="M61.65,53.74A6.13,6.13,0,0,1,57,55.47a8.08,8.08,0,0,1-2.15-.28,4.94,4.94,0,0,1-1.84-.9,4.44,4.44,0,0,1-1.27-1.64,5.66,5.66,0,0,1-.48-2.45,13.28,13.28,0,0,1,.1-1.7c.07-.54.15-1.1.24-1.67h3.78c-.09.47-.17.93-.25,1.38A6.93,6.93,0,0,0,55,49.4a1.85,1.85,0,0,0,.62,1.53,2.16,2.16,0,0,0,1.42.53,2.41,2.41,0,0,0,1.29-.31,2.38,2.38,0,0,0,.8-.81,4.06,4.06,0,0,0,.47-1.2c.1-.46.21-.93.32-1.42l2.63-14.61h4.2L63.89,48.76A10,10,0,0,1,61.65,53.74Z" fill="#fff"/><path d="M67.28,44.76a10.16,10.16,0,0,1,1.57-3.14,7.59,7.59,0,0,1,2.49-2.13,6.87,6.87,0,0,1,3.3-.78,7.69,7.69,0,0,1,2.59.42,5.44,5.44,0,0,1,2,1.24,5.56,5.56,0,0,1,1.31,2.08,8.57,8.57,0,0,1,.47,3,13.39,13.39,0,0,1-.55,3.91,9.72,9.72,0,0,1-1.58,3.17,7.48,7.48,0,0,1-2.51,2.11,7.24,7.24,0,0,1-3.37.77,6.27,6.27,0,0,1-4.59-1.7,6.92,6.92,0,0,1-1.71-5.1A13.21,13.21,0,0,1,67.28,44.76Zm3.41,5.16a3.5,3.5,0,0,0,.52,1.14,2.76,2.76,0,0,0,.85.78,2.31,2.31,0,0,0,1.17.29,2.68,2.68,0,0,0,1.82-.66,5.22,5.22,0,0,0,1.25-1.65A9,9,0,0,0,77,47.66a10.84,10.84,0,0,0,.24-2.18,4.61,4.61,0,0,0-.62-2.54A2.39,2.39,0,0,0,74.5,42a2.62,2.62,0,0,0-1.79.66,5,5,0,0,0-1.24,1.64,8.9,8.9,0,0,0-.72,2.13,10.5,10.5,0,0,0-.24,2.16A4.87,4.87,0,0,0,70.69,49.92Z" fill="#fff"/><path d="M86.13,48.39V49a3.26,3.26,0,0,0,.74,2.23,2.88,2.88,0,0,0,2.29.86,2.48,2.48,0,0,0,1-.2,2.87,2.87,0,0,0,.77-.51,3.33,3.33,0,0,0,.58-.7c.17-.26.33-.52.47-.77h3.77a11.48,11.48,0,0,1-1.06,2.36A6.55,6.55,0,0,1,93.23,54a5.66,5.66,0,0,1-2,1,9.41,9.41,0,0,1-2.62.34A7.2,7.2,0,0,1,86.11,55a5.11,5.11,0,0,1-1.93-1.3A6.16,6.16,0,0,1,83,51.49a9.41,9.41,0,0,1-.44-3A12.81,12.81,0,0,1,83,44.82a11,11,0,0,1,1.5-3.12,7.61,7.61,0,0,1,2.38-2.18,6.26,6.26,0,0,1,3.17-.81,7.78,7.78,0,0,1,2.62.43,5.29,5.29,0,0,1,2,1.3A6.06,6.06,0,0,1,96,42.62a9,9,0,0,1,.47,3,15.86,15.86,0,0,1-.21,2.48H86.15C86.14,48.22,86.13,48.31,86.13,48.39Zm6.63-4.24a3.26,3.26,0,0,0-.36-1.09,2,2,0,0,0-.77-.78A2.7,2.7,0,0,0,90.3,42a3.37,3.37,0,0,0-2.47,1,4.14,4.14,0,0,0-.76,1.07,9.15,9.15,0,0,0-.52,1.29h6.31A8.12,8.12,0,0,0,92.76,44.15Z" fill="#fff"/><path d="M109.24,49.66a2.81,2.81,0,0,0,.85,1.24,3.26,3.26,0,0,0,1.33.66,6.32,6.32,0,0,0,1.67.2,4.65,4.65,0,0,0,1.28-.18,3.88,3.88,0,0,0,1.16-.55,3,3,0,0,0,.85-1,2.83,2.83,0,0,0,.33-1.41,2,2,0,0,0-.42-1.3,4,4,0,0,0-1.11-.88,8.81,8.81,0,0,0-1.54-.64c-.58-.18-1.16-.38-1.74-.58a13.63,13.63,0,0,1-1.76-.74,5.89,5.89,0,0,1-1.53-1.1,5.21,5.21,0,0,1-1.09-1.65,6.28,6.28,0,0,1-.41-2.39,6.67,6.67,0,0,1,.67-3.13,6.13,6.13,0,0,1,1.72-2.1A7.15,7.15,0,0,1,111.91,33a9.78,9.78,0,0,1,2.73-.38,9.47,9.47,0,0,1,2.75.38,5.88,5.88,0,0,1,2.26,1.24,6,6,0,0,1,1.54,2.19,8.22,8.22,0,0,1,.57,3.23h-4a4,4,0,0,0-.22-1.55,2.62,2.62,0,0,0-.72-1,2.67,2.67,0,0,0-1.11-.57,5.31,5.31,0,0,0-1.35-.17,5.44,5.44,0,0,0-1.19.14,3.3,3.3,0,0,0-1.07.46,2.48,2.48,0,0,0-.77.84,2.56,2.56,0,0,0-.3,1.29,1.87,1.87,0,0,0,.52,1.33,4.23,4.23,0,0,0,1.25.89,7.74,7.74,0,0,0,1.5.55l1.25.32a15.68,15.68,0,0,1,2,.78,5.55,5.55,0,0,1,1.61,1.15,4.88,4.88,0,0,1,1,1.72,7.16,7.16,0,0,1,.37,2.48,7.26,7.26,0,0,1-.7,3.34,6.47,6.47,0,0,1-1.81,2.23,7,7,0,0,1-2.49,1.25,10.4,10.4,0,0,1-2.74.38c-2.65,0-4.64-.62-5.94-1.87S105,50.39,105,47.72h4A4.75,4.75,0,0,0,109.24,49.66Z" fill="#fff"/><path d="M133.2,55l-.48-11.12h-.05L128.41,55h-4l-1.52-15.84h3.86l.53,11.15h.06l4.23-11.15h3.82l.43,11.06h0l4.42-11.06h4L137.14,55Z" fill="#fff"/><path d="M146.21,41.45a5.1,5.1,0,0,1,1.49-1.6,5.81,5.81,0,0,1,2-.88,9.91,9.91,0,0,1,2.26-.26,12.2,12.2,0,0,1,2,.16,6,6,0,0,1,1.86.59,3.82,3.82,0,0,1,1.39,1.26,3.61,3.61,0,0,1,.52,2.16,14.88,14.88,0,0,1-.29,2.66l-1.22,6.38a6.27,6.27,0,0,0-.15,1c0,.42,0,.78,0,1.09a3.75,3.75,0,0,0,.13.92H152.3V53.42a4.66,4.66,0,0,1-1.89,1.48,5.84,5.84,0,0,1-2.32.48,5.31,5.31,0,0,1-2-.34,4.17,4.17,0,0,1-1.4-.9,3.62,3.62,0,0,1-.82-1.32,4.64,4.64,0,0,1-.27-1.58A5,5,0,0,1,145,47.57a6.51,6.51,0,0,1,3.87-1.72c.89-.12,1.66-.21,2.32-.28a7.75,7.75,0,0,0,1.63-.29,1.88,1.88,0,0,0,1-.58,1.72,1.72,0,0,0,.32-1.15,1.78,1.78,0,0,0-.24-1,1.84,1.84,0,0,0-.6-.58,2.31,2.31,0,0,0-.77-.29,4.3,4.3,0,0,0-.78-.08,3,3,0,0,0-1.81.57A2.5,2.5,0,0,0,149,44h-3.54A6.14,6.14,0,0,1,146.21,41.45ZM151.84,48c-.55.07-1.1.13-1.64.17a5.8,5.8,0,0,0-1,.2,2.7,2.7,0,0,0-.89.41,2,2,0,0,0-.63.75,2.69,2.69,0,0,0-.24,1.21,1.51,1.51,0,0,0,.63,1.33,2.4,2.4,0,0,0,1.45.45,3.13,3.13,0,0,0,1.47-.32,3.28,3.28,0,0,0,1-.83,4,4,0,0,0,.66-1.15,12.66,12.66,0,0,0,.39-1.29l.38-1.53A3.49,3.49,0,0,1,151.84,48Z" fill="#fff"/><path d="M165.25,39.14l-.43,2.21h.06a5.6,5.6,0,0,1,4.81-2.64q4,0,4,4.26a4.34,4.34,0,0,1-.06.63q0,.38-.12.78c0,.27-.09.52-.13.75s-.08.42-.09.57L171.6,55h-3.77l1.67-9.28c0-.25.09-.57.15-1a7.1,7.1,0,0,0,.09-.95,1.45,1.45,0,0,0-.57-1.17,2,2,0,0,0-1.24-.46,2.89,2.89,0,0,0-1.5.39,3.77,3.77,0,0,0-1.12,1,5.94,5.94,0,0,0-.77,1.41,9.32,9.32,0,0,0-.46,1.62L162.54,55h-3.75l2.84-15.84Z" fill="#fff"/><path d="M184.17,42.19a2,2,0,0,0-1.61-.57,3.52,3.52,0,0,0-1.66.35,1.26,1.26,0,0,0-.65,1.21,1.19,1.19,0,0,0,.38.89,3.92,3.92,0,0,0,1.35.71l1.88.7a9.39,9.39,0,0,1,1.43.65,4.53,4.53,0,0,1,1.14.9,3.79,3.79,0,0,1,.77,1.27,4.74,4.74,0,0,1,.28,1.72,5,5,0,0,1-.57,2.49,4.83,4.83,0,0,1-1.5,1.67,6,6,0,0,1-2.1.92,10.52,10.52,0,0,1-2.37.28,9.12,9.12,0,0,1-2.05-.25,5.42,5.42,0,0,1-1.87-.81,4.4,4.4,0,0,1-1.37-1.5,4.63,4.63,0,0,1-.53-2.34v-.65h3.48v.52a1.79,1.79,0,0,0,.24.95,2.06,2.06,0,0,0,.62.66,3.08,3.08,0,0,0,.88.4,3.67,3.67,0,0,0,1,.14,4,4,0,0,0,.85-.09,2.22,2.22,0,0,0,.77-.33,1.66,1.66,0,0,0,.78-1.48,1.54,1.54,0,0,0-.38-1.17,3.48,3.48,0,0,0-1-.58l-2.9-1.07a9.37,9.37,0,0,1-1.26-.58,3.19,3.19,0,0,1-.93-.77,3,3,0,0,1-.59-1.1,5.55,5.55,0,0,1-.2-1.59,4.51,4.51,0,0,1,.57-2.36,4.77,4.77,0,0,1,1.48-1.55,6.27,6.27,0,0,1,2-.86,9,9,0,0,1,2.06-.26,10.21,10.21,0,0,1,2.16.22,4.66,4.66,0,0,1,1.82.78,3.83,3.83,0,0,1,1.23,1.55,5.6,5.6,0,0,1,.43,2.51h-3.51A2.43,2.43,0,0,0,184.17,42.19Z" fill="#fff"/><path d="M189.94,44.76a10.16,10.16,0,0,1,1.57-3.14A7.49,7.49,0,0,1,194,39.49a6.87,6.87,0,0,1,3.3-.78,7.69,7.69,0,0,1,2.59.42,5.32,5.32,0,0,1,2,1.24,5.46,5.46,0,0,1,1.32,2.08,8.57,8.57,0,0,1,.47,3,13.73,13.73,0,0,1-.55,3.91,9.72,9.72,0,0,1-1.58,3.17,7.42,7.42,0,0,1-2.52,2.11,7.17,7.17,0,0,1-3.36.77,6.27,6.27,0,0,1-4.59-1.7,6.92,6.92,0,0,1-1.71-5.1A13.21,13.21,0,0,1,189.94,44.76Zm3.41,5.16a3.3,3.3,0,0,0,.52,1.14,2.76,2.76,0,0,0,.85.78,2.31,2.31,0,0,0,1.17.29,2.68,2.68,0,0,0,1.82-.66A5.37,5.37,0,0,0,199,49.82a9,9,0,0,0,.73-2.16,10.84,10.84,0,0,0,.24-2.18,4.53,4.53,0,0,0-.63-2.54,2.37,2.37,0,0,0-2.14-.95,2.62,2.62,0,0,0-1.79.66,5,5,0,0,0-1.24,1.64,8.9,8.9,0,0,0-.72,2.13,10.5,10.5,0,0,0-.24,2.16A4.87,4.87,0,0,0,193.35,49.92Z" fill="#fff"/><path d="M211.07,39.14l-.42,2.21h0a5.61,5.61,0,0,1,4.81-2.64q4,0,4,4.26a6,6,0,0,1-.05.63q-.06.38-.12.78c-.05.27-.09.52-.14.75s-.07.42-.09.57L217.43,55h-3.78l1.68-9.28c0-.25.08-.57.14-1a6,6,0,0,0,.1-.95A1.43,1.43,0,0,0,215,42.6a2,2,0,0,0-1.23-.46,2.84,2.84,0,0,0-1.5.39,3.65,3.65,0,0,0-1.12,1,5.61,5.61,0,0,0-.77,1.41,9.35,9.35,0,0,0-.47,1.62L208.36,55h-3.75l2.85-15.84Z" fill="#fff"/><path d="M232.88,49.48a2.92,2.92,0,0,0,.88,1.24,3.72,3.72,0,0,0,1.37.66,7.28,7.28,0,0,0,1.73.19,5,5,0,0,0,1.32-.18,4.17,4.17,0,0,0,1.19-.55,3.09,3.09,0,0,0,.88-1,2.83,2.83,0,0,0,.34-1.41,1.93,1.93,0,0,0-.44-1.3,3.66,3.66,0,0,0-1.14-.87,9.39,9.39,0,0,0-1.59-.65c-.59-.18-1.19-.37-1.8-.58a14.88,14.88,0,0,1-1.81-.73,6.2,6.2,0,0,1-1.57-1.11,5.14,5.14,0,0,1-1.13-1.65,6.05,6.05,0,0,1-.42-2.39,6.6,6.6,0,0,1,.68-3.12,6.11,6.11,0,0,1,1.79-2.1,7.52,7.52,0,0,1,2.48-1.2,10.69,10.69,0,0,1,2.81-.38,10.48,10.48,0,0,1,2.84.38A6.31,6.31,0,0,1,243.62,34a6,6,0,0,1,1.59,2.19,8,8,0,0,1,.59,3.23h-4.09a3.76,3.76,0,0,0-.23-1.54,2.6,2.6,0,0,0-.74-1,3.06,3.06,0,0,0-1.14-.57,6,6,0,0,0-2.62,0,3.66,3.66,0,0,0-1.11.46,2.48,2.48,0,0,0-.79.85,2.4,2.4,0,0,0-.31,1.28,1.82,1.82,0,0,0,.54,1.34,4.46,4.46,0,0,0,1.29.88,8,8,0,0,0,1.55.55l1.29.33a14.47,14.47,0,0,1,2.11.78,5.6,5.6,0,0,1,1.66,1.15,4.85,4.85,0,0,1,1.08,1.71,6.94,6.94,0,0,1,.39,2.48,7.13,7.13,0,0,1-.73,3.34,6.65,6.65,0,0,1-1.87,2.24,7.52,7.52,0,0,1-2.56,1.24,11.07,11.07,0,0,1-2.83.38q-4.11,0-6.13-1.87t-2-5.88h4.08A4.94,4.94,0,0,0,232.88,49.48Z" fill="#fff"/><path d="M256.1,39l-.6,2.91h-2.77l-1.45,7.88c0,.16-.07.31-.09.44s0,.23,0,.29a1.44,1.44,0,0,0,.12.66.91.91,0,0,0,.32.35.87.87,0,0,0,.42.14l.45,0a9.23,9.23,0,0,0,1.4-.1l-.66,3.34L252,55c-.41,0-.82,0-1.24,0a6.8,6.8,0,0,1-1.35-.14,3.5,3.5,0,0,1-1.21-.49,2.51,2.51,0,0,1-.85-1,3.23,3.23,0,0,1-.29-1.59,6.21,6.21,0,0,1,0-.69c0-.25.09-.52.14-.81l1.59-8.49h-2.55l.61-2.91h2.49l.88-4.8h3.89l-.87,4.8Z" fill="#fff"/><path d="M256.67,44.58a9.61,9.61,0,0,1,1.61-3.14,7.76,7.76,0,0,1,2.57-2.13,7.28,7.28,0,0,1,3.4-.78,8.13,8.13,0,0,1,2.67.41,5.42,5.42,0,0,1,3.46,3.32,8.33,8.33,0,0,1,.48,3,13.34,13.34,0,0,1-.56,3.91,9.7,9.7,0,0,1-1.63,3.17,7.69,7.69,0,0,1-2.6,2.11,7.61,7.61,0,0,1-3.47.77,6.56,6.56,0,0,1-4.73-1.7,6.75,6.75,0,0,1-1.77-5.1A12.45,12.45,0,0,1,256.67,44.58Zm3.51,5.16a3.46,3.46,0,0,0,.53,1.13,2.63,2.63,0,0,0,.88.78,2.38,2.38,0,0,0,1.21.29,2.79,2.79,0,0,0,1.87-.66A4.94,4.94,0,0,0,266,49.63a8.76,8.76,0,0,0,.76-2.16A10.82,10.82,0,0,0,267,45.3a4.48,4.48,0,0,0-.64-2.55,2.49,2.49,0,0,0-2.21-1,2.78,2.78,0,0,0-1.85.66A5.05,5.05,0,0,0,261,44.1a8.94,8.94,0,0,0-.75,2.13,10.65,10.65,0,0,0-.24,2.16A5,5,0,0,0,260.18,49.74Z" fill="#fff"/><path d="M278.76,39l-.57,2.85.05.06a5,5,0,0,1,2-2.49,5.32,5.32,0,0,1,2.89-.84,8.11,8.11,0,0,1,1.21.09l-.79,4.22-.83-.18a3.81,3.81,0,0,0-.82-.09A3.91,3.91,0,0,0,280,43a3.83,3.83,0,0,0-1.31,1.16,6.11,6.11,0,0,0-.85,1.67,14.64,14.64,0,0,0-.51,2l-1.32,7h-3.86L275.06,39Z" fill="#fff"/><path d="M290,58.67a4,4,0,0,1-1.15,1,4.11,4.11,0,0,1-1.44.51,11.75,11.75,0,0,1-1.91.14,7.05,7.05,0,0,1-1-.07l-1-.09.65-3.61a3.61,3.61,0,0,1,.79.09,3.46,3.46,0,0,0,.78.09,2.19,2.19,0,0,0,1.1-.23,2.27,2.27,0,0,0,.67-.55,3.52,3.52,0,0,0,.44-.69,3.85,3.85,0,0,1,.37-.64L285.68,39h4l1.23,11.34H291L295.89,39H300l-9,18A9.3,9.3,0,0,1,290,58.67Z" fill="#fff"/></svg>