<svg xmlns="http://www.w3.org/2000/svg" width="215" height="140" viewBox="0 0 215 140"><path d="M6.11 4.63S7.83-.6 3.36.06C-2.16.87.79 5.83.79 5.83s-2.14 3.94 1.5 4.88c0 0-1.25 4.77 2.63 5.52 0 0-2.38 3.45 1.13 5.46 0 0-3.63 3-.06 6.08 0 0-6.08 3.38-.13 7.39 0 0-4.57 4 0 6.27 0 0-4.76 3.45-1.12 6.4s5.76-1.19 5.57-2c0 0 4.83-1.13 2-6 0 0 4.09-3.58.89-7.59 0 0 4.08-2.07 1.22-4.83 0 0 5.29.63 4.22-5.83 0 0 6.84.25 4.39-6.52 0 0 6-1.8 3.51-6.22 0 0 3.26-1.86 2.38-4.75s-3.82-.56-3.82-.56S23.73.37 21.35 1.5s-1.82 5.39-1.82 5.39a3.11 3.11 0 0 0-2.44 4.45 3.7 3.7 0 0 0-3.2 4.66 4.36 4.36 0 0 0-3.14.25s2.2-4.39-1.81-6c0 .03 1.81-5.11-2.83-5.62zM43.54 38s3.24-4.64-1.41-5.95c0 0 4.21-3.51-.35-6.22 0 0 3.06-4.64-.75-6 0 0 2.51-4.2-.47-5.43 0 0 3.24-4.9-1.14-6.31 0 0-1.58-2.19-2.37-.7 0 0-2.6-2.6-5-.76-2.83 2.11-.9 7.25-.9 7.25s-6.75 1.48-3 8.58c0 0-6.05 1.84-2.37 8.06 0 0-8 2-4.46 7.62 0 0-3.59 6.31 1.84 6.74s4.73-6.3 4.73-6.3 5.08.87 4.46-5.17a2.59 2.59 0 0 0 3.77-.53s-.88 2.63 1.49 2.28c0 0-2.89 1.31-.44 3.33 0 0-3.15 5.52 1.93 4.12 0 0 4.47 4.81 4.47-.88-.03.02 3.43-3.31-.03-3.73zm-7.1-13.54a1.5 1.5 0 0 0-1.14 2.24 2.27 2.27 0 0 0-3.5-1.22 5.87 5.87 0 0 1 .79-4.21s2.17-.7 1.48-2.45l1.23-.35s.35 2.28 1.14 2.37c0-.02-2.01 2.22 0 3.6zM79.28 103.47c-.44 3.5-4.3 3.45-4.3 3.45a5.89 5.89 0 0 1 0 5.17c-1.4 2.45-4 .44-4 .44s-1.22 4.38-2.71 4.64-2.63-3.42-2.63-3.42-2.8 3.77-5 .44 2.45-5.25 2.45-5.25c-6.22-2.72 1.93-8.06 1.93-8.06-3.51-4.12 1.57-7.8 1.57-7.8-4.46-5 2.72-6.57 2.72-6.57a2.35 2.35 0 0 0-1.84-2.71 4.73 4.73 0 0 1-3.33 1.64c-2.1.07-2.19-2.78-2.19-2.78a7.47 7.47 0 0 1-4.12 2c-2.27.18-2.54-3.06-2.54-3.06-1 2.19-4.29 1-4.29 1a6.14 6.14 0 0 1-3.77 6.83c2.28 4-3 6.4-3 6.4 2.37 7.79-6.05 6.22-6.05 6.22 1.14 1.22.27 5.69-4.55 4.64S31.07 100 31.07 100c-2.91-3.59 1.34-5.17 1.34-5.17-3.85-4.9 1.84-6.48 1.84-6.48-2.1-5.25 3.24-6.57 3.24-6.57-2.89-7.09 2.89-7.27 2.89-7.27C38.1 69.69 42.92 69 42.92 69c-3.33-8 2.54-9 2.54-9-3.24-5.43 2.28-7.54 2.28-7.54C45 44.47 50.81 44 50.81 44a14.61 14.61 0 0 1-1.06-5.61c-.17-3.94 3.68-3.06 3.68-3.06s-1.22-4.3 1.49-6.14 3.51 1.14 3.51 1.14 8-.81 3.46 6.27c0 0 4.56 2.76-1.2 7.08 0 0 3.48 3.24-4.56 10.44 0 0 1.8 6.48-2.16 8.76a3.93 3.93 0 0 1-.6 6.11s6.24-2.75 7.68 2c0 0 3.24-3.84 5.64.37 0 0 2-4.09 7 .6 0 0-3.48-4 1.44-6.13 0 0-4.44-3.84 1.68-6.36 0 0-4.53-5.52 2.42-6.36 0 0-3.74-4.92 1.9-5.16 0 0-2.52-4.32 1.68-4.2 0 0-2.88-6.84 3.72-5.28 0 0 6.24-2.52 7.56 2.88s-3.84 7.44-3.84 7.44 3.36-.48 3 3.24a7.25 7.25 0 0 1-3.84 5.4s3.48 2.64-1.2 4.44a2.94 2.94 0 0 1 .72 3.6M209.3 62.78s-1.86-5.37-6.26-2.05-2.24 6.65-2.24 6.65-5.19 2-1.86 7.43c0 0-5.77 2.93-2.84 10.16a7.94 7.94 0 0 0-1.85 9.78s-7.14 3.32-3.82 10.46c0 0-5.37 5.28-.39 6.45 0 0-2 6.26 2.94 6.26s3.81-5.28 3.81-5.28 6.45 2.54 5.57-6.65c0 0 5.87-1 3.23-6.74 0 0 7.13-3.91 2.83-9.78 0 0 7.63-5 2.25-10.26 0 0 7.62-6.55 2.64-11.44 0 0 3.13-7.04-4.01-4.99zM189.66 124.86s3.77-3.06 5.52 0-2.76 5.58-2.76 5.58 4 3 1.53 6.24-3.7.59-3.7.59-2 2.66-4.29 1.3-.72-3-.72-3-3.18.45-3.31-2.15a2.59 2.59 0 0 1 2.53-2.73s-3.05-5.11.85-7.2 4.35 1.37 4.35 1.37zM181.93 85.94s6.24-5.59-.26-8.84c0 0 4.68-7.47-1.88-7.6 0 0 1.56-8.9-8.06-6.36 0 0 1.82-6.63-6.82-4.88 0 0-9.75-7.14-13.45 4.75 0 0-8.25-1.3-7.15 7a7.43 7.43 0 0 0-5.2 8.19L132 103.61c-.52 5.07 4.55 6.89 4.55 6.89-7.8 5.33 1.3 8 1.3 8a4.81 4.81 0 0 0 1.19 4.94c2.24 2.15 5.37-.66 5.37-.66s-2.47 4 2.15 5.66 6.49-3.05 6.49-3.05c5.66 6.63 7.34.39 7.34.39 6.63 2.53 5.92-3.9 5.92-3.9 8 1.17 6.17-6.82 6.17-6.82s8.58-.06 4.68-8.45c0 0 8.51-5.45 3.18-11.62.03.01 6.19-2.94 1.59-9.05zm-12.21-.5c0 5.11 2.66 4.92 2.66 4.92s-5.46 1.75-1.17 8c0 0-5.78-.33-4.68 7.54 0 0-7.14 1.16-2.79 8.57 0 0-4.68-4-8.45 1.63 0 0-3.31-5.27-7-.72 0 0 2.33-4.61-3.84-4.81 0 0 6.17-6.56 0-10.33 0 0 7.15-5.39 1.89-10.13 0 0 10.07-3.84 5.45-12.09 0 0 7.41-1.1 5.27-7.14 0 0 4.67 3.37 7.4-1 0 0 3.77 5.39 7.54 3.9 0 0-3.12 4.28 1.3 5.58-.01-.05-3.58.97-3.58 6.08z" fill="#fff"/><path d="M139 81.53c1.26-3.87-2.42-8.63-2.42-8.63 6-5-1.12-7.57-1.12-7.57 5.48-9.32-2.6-8.32-2.6-8.32 0-6.31-4.88-3.58-4.88-3.58-1.29-10.47-10.18-4.56-10.18-4.56-7-6.27-9.1 2.41-9.1 2.41-7.24-2.87-9.11 5.59-9.11 5.59-7.46-2.15-8.18 7.13-8.18 7.13-9.75 3.87-6.16 11.18-6.16 11.18-7 3-3.3 10.22-3.3 10.22-6 2.76-2.12 9.56-2.12 9.56-4.13 6.31.54 9.61.54 9.61-2.29 6 3.44 5.45 3.44 5.45-1.86 6.59 4 5 4 5 .57 8.74 6.44 4.73 6.44 4.73 7 8 11-.72 11-.72 9.58 6.17 10.64-3 10.64-3 6.31 2.44 7-1.73 7-1.73 6.74-1.58 4.45-7.89 4.45-7.89 9.32-3 4.6-10.46 4.6-10.46s4.29.43 5.58-4.59-2.13-6-2.13-6 2.33.04 3.61-3.83zm-10.8.11s-6.27.28-2.86 7.14c0 0-6.44-.14-2.87 7.94 0 0-6.93 1.35-4.91 9.7 0 0-4.84-4.18-5.38 2.15 0 0-3.64-3.23-4.58 2.83 0 0-2.56-5-6.33-.81 0 0 0-4.85-6.33-4.31 0 0 4.31-5.25-3.1-5.79 0 0 6.33-7.94-.67-10.1 0 0 7.68-4.31 4.71-11.44 0 0 6.6-2.83 1.89-6.87 0 0 6.87 1.34 5.12-5.66 0 0 5.79 1 5-4.85 0 0 4.17 5.53 7.41-.4 0 0 5 4.49 7.27-1.52 0 0-1.08 6.77 5 6.1 0 0-5.52 3.77.67 8.89-.05 0-5.57 2.15-.05 7z" fill="#fff"/></svg>