<svg xmlns="http://www.w3.org/2000/svg" width="252" height="95" viewBox="0 0 252 95"><polyline points="248.38 90.86 251.5 90.86 251.5 15.12 251.5 17.76 251.5 3.62 248.38 3.62 248.38 0.5 234.24 0.5 18.76 0.5 4.62 0.5 4.62 3.62 1.5 3.62 1.5 17.76 1.5 15.12 1.5 90.86 4.62 90.86 4.62 93.97 18.76 93.97 234.24 93.97 248.38 93.97 248.38 90.86" fill="none" stroke="#fff" stroke-miterlimit="10" stroke-width="1.07"/><rect x="239.88" y="3.62" width="8.5" height="8.5" transform="translate(252 -236.26) rotate(90)" fill="none" stroke="#fff" stroke-miterlimit="10" stroke-width="1.07"/><rect x="4.65" y="82.37" width="8.5" height="8.5" transform="translate(-77.72 95.52) rotate(-90)" fill="none" stroke="#fff" stroke-miterlimit="10" stroke-width="1.07"/><rect x="4.62" y="3.62" width="8.5" height="8.5" fill="none" stroke="#fff" stroke-miterlimit="10" stroke-width="1.07"/><rect x="239.88" y="82.35" width="8.5" height="8.5" transform="translate(488.27 173.21) rotate(180)" fill="none" stroke="#fff" stroke-miterlimit="10" stroke-width="1.07"/><path d="M34.4,20.94a.19.19,0,0,1,.17.08,1.29,1.29,0,0,1,.09.2l4.25,14H32.74l-2.22-7.27-3.81,5.88a1.94,1.94,0,0,0-.14.2.29.29,0,0,1-.22.14.15.15,0,0,1-.14-.07l-.1-.13-4.2-5.78L21,31.65c-.18.68-.32,1.25-.41,1.71s-.16.83-.23,1.11a1.9,1.9,0,0,1-.21.62.34.34,0,0,1-.32.19h-.18a.64.64,0,0,1-.2,0c-.07,0-.1-.07-.1-.17a2.12,2.12,0,0,1,.16-.64c.1-.29.25-.77.44-1.43l3.13-11.67c.07-.25.18-.38.34-.38a.36.36,0,0,1,.26.14l5.52,7.73,5-7.71Q34.27,20.94,34.4,20.94Z" fill="#fff"/><path d="M48,21.3a.6.6,0,0,1,.11-.14l.13-.11a.34.34,0,0,1,.17-.05.35.35,0,0,1,.3.16.41.41,0,0,1,.08.14l8,13.9H49.7l-1.08-1.89H41.79l-.52.93c-.1.19-.18.35-.24.49a1.65,1.65,0,0,1-.16.35.54.54,0,0,1-.17.21.41.41,0,0,1-.27.07.3.3,0,0,1-.24-.1.4.4,0,0,1-.08-.26.69.69,0,0,1,.08-.32l.55-1,1-1.71L43,29.84l1.39-2.36,1.35-2.3,1.15-2,.8-1.39A4,4,0,0,0,48,21.3ZM42.17,32.63h6.07l-3-5.34Z" fill="#fff"/><path d="M59,21.34h.16a.72.72,0,0,1,.24.09l12,6.69V22.66c0-.16,0-.34,0-.53s0-.33,0-.41c0-.27.13-.4.38-.4a.32.32,0,0,1,.36.36c0,.05,0,.19,0,.41s0,.41,0,.59V35c0,.16-.09.24-.26.24a.77.77,0,0,1-.4-.14l-12-6.83v5.34a5.15,5.15,0,0,0,0,.59,5.48,5.48,0,0,1,0,.64c0,.31-.14.46-.42.46a.42.42,0,0,1-.26-.08.26.26,0,0,1-.12-.24c0-.2,0-.46,0-.77s0-.6,0-.82V21.64C58.73,21.44,58.82,21.34,59,21.34Z" fill="#fff"/><path d="M95.31,30.19a5.13,5.13,0,0,0,.16-1.36h-5l-.63,0-.53,0a.3.3,0,0,1-.25-.1.33.33,0,0,1-.09-.22.29.29,0,0,1,.1-.23.51.51,0,0,1,.23-.12l.27,0H96a.24.24,0,0,1,.12,0c.06,0,.08.13.08.3v.38a6,6,0,0,1-.34,2,5.14,5.14,0,0,1-.27.67,3.73,3.73,0,0,1-.21.41,7.07,7.07,0,0,1-2.62,2.7,7.74,7.74,0,0,1-1.86.8,7.5,7.5,0,0,1-2.15.29,7.13,7.13,0,0,1-2.9-.59,8.09,8.09,0,0,1-2.39-1.58,7.32,7.32,0,0,1-1.64-2.35,7.23,7.23,0,0,1,0-5.79,7.68,7.68,0,0,1,4.06-3.95,7.45,7.45,0,0,1,8.1,1.46l0,0c.17.17.37.38.58.63a1,1,0,0,1,.34.65.43.43,0,0,1-.09.21.27.27,0,0,1-.25.13.42.42,0,0,1-.21-.06.29.29,0,0,1-.15-.14,5.93,5.93,0,0,0-2.26-2.07,6.67,6.67,0,0,0-3.16-.75,6.11,6.11,0,0,0-.86.06V35a1.84,1.84,0,0,0,.39,0h.39a6.61,6.61,0,0,0,6-3.39l.08-.14a.35.35,0,0,0,.07-.12l.07-.18,0-.08A4.74,4.74,0,0,0,95.31,30.19Z" fill="#fff"/><path d="M98.53,21.24h11.61c.12,0,.19,0,.23.1a.49.49,0,0,1,0,.2.36.36,0,0,1-.4.4l-.54,0c-.23,0-.42,0-.58,0h-4.2v3.21h5.84a.3.3,0,0,1,.32.34.34.34,0,0,1-.1.29.56.56,0,0,1-.32.07h-4.87l-.87,0v8.77h2.66c.43,0,.84,0,1.25,0l1.09,0c.32,0,.58,0,.8,0l.4,0c.29,0,.44.13.44.38s-.14.34-.42.34H98.53Z" fill="#fff"/><path d="M113.8,22q-.7.06-1,.06a.58.58,0,0,1-.32-.08c-.08-.05-.12-.17-.12-.34a.32.32,0,0,1,.12-.27.54.54,0,0,1,.28-.11h13.6a.76.76,0,0,1,.32.08.29.29,0,0,1,.16.3c0,.28-.13.42-.38.42L126,22l-.62,0-.77,0c-.28,0-.56,0-.84,0h-1.12V35.2h-6.17V21.92h-1.16C114.79,21.92,114.28,21.94,113.8,22Z" fill="#fff"/><path d="M129.23,22c-.48,0-.82.06-1,.06a.58.58,0,0,1-.32-.08c-.08-.05-.12-.17-.12-.34a.32.32,0,0,1,.12-.27.54.54,0,0,1,.28-.11h13.6a.72.72,0,0,1,.32.08.29.29,0,0,1,.16.3c0,.28-.12.42-.38.42l-.41,0-.62,0-.76,0c-.28,0-.56,0-.84,0h-1.12V35.2h-6.18V21.92h-1.15C130.22,21.92,129.7,21.94,129.23,22Z" fill="#fff"/><path d="M144.14,21.24h6.17v14h-6.17Z" fill="#fff"/><path d="M154.25,21.34h.16a.72.72,0,0,1,.24.09l12,6.69V22.66c0-.16,0-.34,0-.53a3.78,3.78,0,0,1,0-.41c0-.27.12-.4.38-.4a.32.32,0,0,1,.36.36c0,.05,0,.19,0,.41s0,.41,0,.59V35c0,.16-.09.24-.26.24a.77.77,0,0,1-.4-.14l-12-6.83v5.34a5.15,5.15,0,0,0,0,.59,5.48,5.48,0,0,1,0,.64c0,.31-.14.46-.42.46a.42.42,0,0,1-.26-.08.26.26,0,0,1-.12-.24c0-.2,0-.46,0-.77s0-.6,0-.82V21.64C154,21.44,154.08,21.34,154.25,21.34Z" fill="#fff"/><path d="M184,30.19a5.58,5.58,0,0,0,.16-1.36h-5l-.63,0-.53,0a.32.32,0,0,1-.25-.1.31.31,0,0,1,0-.45.57.57,0,0,1,.23-.12l.27,0h6.34a.31.31,0,0,1,.12,0c.05,0,.08.13.08.3v.38a6.15,6.15,0,0,1-.1,1.1,8.31,8.31,0,0,1-.24.9c-.1.27-.19.49-.27.67L184,32a7.78,7.78,0,0,1-1.12,1.51,7.08,7.08,0,0,1-1.51,1.19,7.57,7.57,0,0,1-1.86.8,7.48,7.48,0,0,1-2.14.29,7.06,7.06,0,0,1-2.9-.59,8,8,0,0,1-2.4-1.58,7.48,7.48,0,0,1-1.64-2.35,7,7,0,0,1-.6-2.89,7.15,7.15,0,0,1,.61-2.9,7.72,7.72,0,0,1,1.65-2.36,7.67,7.67,0,0,1,5.35-2.17,7.27,7.27,0,0,1,5.16,2l0,0c.17.17.37.38.59.63a1,1,0,0,1,.33.65.51.51,0,0,1-.08.21.29.29,0,0,1-.26.13.42.42,0,0,1-.21-.06.41.41,0,0,1-.15-.14,5.86,5.86,0,0,0-2.26-2.07,6.64,6.64,0,0,0-3.16-.75,6,6,0,0,0-.85.06V35a1.72,1.72,0,0,0,.39,0h.39a6.64,6.64,0,0,0,6-3.39l.08-.14a.63.63,0,0,0,.07-.12,1.34,1.34,0,0,1,.07-.18l0-.08A5.45,5.45,0,0,0,184,30.19Z" fill="#fff"/><path d="M206.71,21.56a.32.32,0,0,1,.12-.27.49.49,0,0,1,.3-.09.51.51,0,0,1,.28.07.25.25,0,0,1,.12.23c0,.08,0,.19,0,.34a4.4,4.4,0,0,1,0,.48l0,.53c0,.18,0,.35,0,.51v9.41c0,.18,0,.38,0,.6l0,.61a4.9,4.9,0,0,1,0,.5c0,.15,0,.26,0,.32a.87.87,0,0,1-.08.4.31.31,0,0,1-.32.18c-.26,0-.4-.16-.4-.5,0-.09,0-.23,0-.41s0-.37,0-.57,0-.42,0-.63,0-.4,0-.56V26.85H200V35.2h-6.17v-14H200v4.93h6.81V23.42c0-.12,0-.28,0-.47s0-.39,0-.57,0-.36,0-.51S206.71,21.61,206.71,21.56Z" fill="#fff"/><path d="M211.13,21.24h6.17v14h-6.17Z" fill="#fff"/><path d="M220.67,22c-.47,0-.82.06-1,.06a.61.61,0,0,1-.32-.08c-.08-.05-.12-.17-.12-.34a.32.32,0,0,1,.12-.27.54.54,0,0,1,.28-.11h13.61a.71.71,0,0,1,.31.08.29.29,0,0,1,.16.3c0,.28-.12.42-.37.42l-.41,0-.62,0-.77,0c-.28,0-.56,0-.84,0h-1.12V35.2h-6.17V21.92h-1.16C221.66,21.92,221.14,21.94,220.67,22Z" fill="#fff"/><path d="M47.46,56h6.86c.34,0,.75,0,1.21,0a12,12,0,0,1,1.41.21,8.18,8.18,0,0,1,1.4.46,4.29,4.29,0,0,1,1.24.81,3.71,3.71,0,0,1,.88,1.26,4.43,4.43,0,0,1,.33,1.79,3.67,3.67,0,0,1-.19,1.24,4.23,4.23,0,0,1-.48.95,3,3,0,0,1-.65.68,3.38,3.38,0,0,1-.68.44,5.07,5.07,0,0,1,.48.4,2.69,2.69,0,0,1,.48.57,2.88,2.88,0,0,1,.36.77,3.45,3.45,0,0,1,.14,1,2.73,2.73,0,0,1-.51,1.72,3.56,3.56,0,0,1-1.29,1,6.2,6.2,0,0,1-1.71.52,12.78,12.78,0,0,1-1.8.14h-.3l-.3,0-.78-.06h-6.1Zm6.18.68V69.24c.25.05.5.09.76.12a6.8,6.8,0,0,0,.8,0,9.09,9.09,0,0,0,1.54-.14,4.81,4.81,0,0,0,1.4-.47,2.92,2.92,0,0,0,1-.87,2.19,2.19,0,0,0,.4-1.36,2.67,2.67,0,0,0-.71-1.9,2.47,2.47,0,0,0-.51-.41l-.3-.15-.44.07-.42,0a4.24,4.24,0,0,1-.58,0A2.23,2.23,0,0,1,56,64a1.56,1.56,0,0,1-.51-.28.54.54,0,0,1-.21-.45.24.24,0,0,1,.05-.14.19.19,0,0,1,.17-.08.83.83,0,0,1,.25.08,3.41,3.41,0,0,0,.41.17,3.29,3.29,0,0,0,.55.16,2.67,2.67,0,0,0,.64.07l.57-.06a2.39,2.39,0,0,0,.94-.36,2.71,2.71,0,0,0,.88-.9,3.13,3.13,0,0,0,.39-1.69,3.23,3.23,0,0,0-.64-2.12,4,4,0,0,0-1.56-1.18,6.28,6.28,0,0,0-1.9-.5c-.66-.06-1.23-.1-1.69-.1Z" fill="#fff"/><path d="M76,55.93a.45.45,0,0,1,.36-.22.41.41,0,0,1,.28.11.37.37,0,0,1,.12.27.35.35,0,0,1-.08.26l-4.33,6c-1.48,2-2.93,4.07-4.36,6-.08.11-.18.27-.31.49s-.26.44-.41.66a4.63,4.63,0,0,1-.44.58.6.6,0,0,1-.42.25.4.4,0,0,1-.27-.11A.38.38,0,0,1,66,70a.37.37,0,0,1,0-.11.23.23,0,0,1,0-.11c.25-.35.48-.64.68-.87a9.09,9.09,0,0,0,.63-.79c.27-.36.53-.72.79-1.09s.53-.74.79-1.13l-7.85-9.71a.12.12,0,0,1,0-.1.16.16,0,0,1,.18-.18h7.17l3.92,5.24c.62-.88,1.26-1.75,1.9-2.62S75.47,56.78,76,55.93Z" fill="#fff"/><path d="M85.3,56H96.91a.24.24,0,0,1,.23.1.53.53,0,0,1,0,.2.35.35,0,0,1-.4.4c-.13,0-.31,0-.54,0l-.58,0H91.48v3.22h5.83c.21,0,.32.11.32.34a.34.34,0,0,1-.1.29.63.63,0,0,1-.32.07H92.35c-.33,0-.62,0-.87,0v9.39H85.3Z" fill="#fff"/><path d="M98.83,63a6.91,6.91,0,0,1,.61-2.89,7.48,7.48,0,0,1,1.65-2.37,7.9,7.9,0,0,1,2.41-1.59,7.63,7.63,0,0,1,2.94-.58,8.17,8.17,0,0,1,2.91.52,7.06,7.06,0,0,1,2.35,1.48,6.93,6.93,0,0,1,1.56,2.31,7.59,7.59,0,0,1,.57,3,8.08,8.08,0,0,1-.54,3,7.25,7.25,0,0,1-1.51,2.4,7.09,7.09,0,0,1-2.36,1.6,7.94,7.94,0,0,1-3.06.58,7.3,7.3,0,0,1-2.9-.59,8.12,8.12,0,0,1-2.39-1.59,7.32,7.32,0,0,1-1.64-2.35A7,7,0,0,1,98.83,63Zm7.61-6.75a6.11,6.11,0,0,0-.86.06V69.74a2.87,2.87,0,0,0,.39,0h.39a7.27,7.27,0,0,0,2.82-.53,6.21,6.21,0,0,0,2.14-1.46,6.67,6.67,0,0,0,1.35-2.18,7.44,7.44,0,0,0,.48-2.7,6.88,6.88,0,0,0-.52-2.73,6.05,6.05,0,0,0-1.42-2.09,6.44,6.44,0,0,0-2.14-1.33A7.39,7.39,0,0,0,106.44,56.29Z" fill="#fff"/><path d="M115.27,63a7.07,7.07,0,0,1,.61-2.89,7.64,7.64,0,0,1,1.65-2.37A7.82,7.82,0,0,1,120,56.19a7.62,7.62,0,0,1,2.93-.58,8.17,8.17,0,0,1,2.91.52,7.06,7.06,0,0,1,2.35,1.48,7,7,0,0,1,1.57,2.31,7.59,7.59,0,0,1,.57,3,8.08,8.08,0,0,1-.54,3,7.27,7.27,0,0,1-1.52,2.4,7,7,0,0,1-2.36,1.6,7.94,7.94,0,0,1-3.06.58,7.22,7.22,0,0,1-2.89-.59,8,8,0,0,1-2.4-1.59,7.48,7.48,0,0,1-1.64-2.35A7,7,0,0,1,115.27,63Zm7.61-6.75a6.11,6.11,0,0,0-.86.06V69.74a2.87,2.87,0,0,0,.39,0h.39a7.27,7.27,0,0,0,2.82-.53,6.21,6.21,0,0,0,2.14-1.46,6.69,6.69,0,0,0,1.36-2.18,7.44,7.44,0,0,0,.48-2.7,7.06,7.06,0,0,0-.52-2.73,6.21,6.21,0,0,0-1.43-2.09,6.44,6.44,0,0,0-2.14-1.33A7.35,7.35,0,0,0,122.88,56.29Z" fill="#fff"/><path d="M131.84,56.69q-.71.06-1,.06a.51.51,0,0,1-.32-.08c-.08-.05-.12-.16-.12-.34a.32.32,0,0,1,.12-.27.63.63,0,0,1,.28-.11h13.6a.76.76,0,0,1,.32.08.31.31,0,0,1,.16.3c0,.28-.13.42-.38.42l-.41,0-.62,0-.77,0-.84,0h-1.11V69.92h-6.18V56.63h-1.16C132.83,56.63,132.32,56.65,131.84,56.69Z" fill="#fff"/><path d="M146.76,56h6.85c.35,0,.75,0,1.21,0a12,12,0,0,1,1.41.21,8,8,0,0,1,1.41.46,4.42,4.42,0,0,1,1.24.81,3.83,3.83,0,0,1,.87,1.26,4.43,4.43,0,0,1,.33,1.79,3.67,3.67,0,0,1-.19,1.24,3.83,3.83,0,0,1-.47.95,3.25,3.25,0,0,1-.65.68,3.68,3.68,0,0,1-.68.44l.48.4a3.44,3.44,0,0,1,.48.57,3.66,3.66,0,0,1,.36.77,3.46,3.46,0,0,1,.13,1,2.72,2.72,0,0,1-.5,1.72,3.56,3.56,0,0,1-1.29,1,6.27,6.27,0,0,1-1.72.52,12.78,12.78,0,0,1-1.8.14h-.3l-.3,0-.78-.06h-6.09Zm6.17.68V69.24c.25.05.51.09.76.12a6.8,6.8,0,0,0,.8,0,9,9,0,0,0,1.54-.14,4.78,4.78,0,0,0,1.41-.47,3,3,0,0,0,1-.87,2.26,2.26,0,0,0,.4-1.36,2.84,2.84,0,0,0-.22-1.15,3,3,0,0,0-.49-.75,2.47,2.47,0,0,0-.51-.41l-.3-.15-.44.07-.42,0a4.27,4.27,0,0,1-.59,0,2.23,2.23,0,0,1-.63-.15,1.56,1.56,0,0,1-.51-.28.54.54,0,0,1-.21-.45.34.34,0,0,1,0-.14.19.19,0,0,1,.17-.08.76.76,0,0,1,.25.08,3.41,3.41,0,0,0,.41.17,3.29,3.29,0,0,0,.55.16,2.76,2.76,0,0,0,.65.07l.57-.06a2.45,2.45,0,0,0,.94-.36,2.81,2.81,0,0,0,.88-.9,3.13,3.13,0,0,0,.39-1.69,3.29,3.29,0,0,0-.64-2.12,4.2,4.2,0,0,0-1.56-1.18,6.42,6.42,0,0,0-1.91-.5c-.66-.06-1.22-.1-1.69-.1Z" fill="#fff"/><path d="M168.93,56l.12-.14.13-.11a.34.34,0,0,1,.17,0,.38.38,0,0,1,.3.16.53.53,0,0,1,.08.14l8,13.91h-7.06L169.61,68h-6.83l-.52.94a3.09,3.09,0,0,0-.24.49,1.92,1.92,0,0,1-.16.35.74.74,0,0,1-.17.21.48.48,0,0,1-.27.07.33.33,0,0,1-.24-.1.45.45,0,0,1-.08-.26.66.66,0,0,1,.08-.32l.55-1,1-1.71L164,64.55l1.39-2.35c.46-.8.91-1.56,1.35-2.3s.81-1.4,1.15-2,.6-1,.79-1.39A2.84,2.84,0,0,0,168.93,56Zm-5.77,11.33h6.07l-3-5.33Z" fill="#fff"/><path d="M179.64,56h6.18V69.28l.76,0,1.25,0c1.23,0,2.18,0,2.85-.07s1.08-.07,1.23-.07a2,2,0,0,1,.36,0c.15,0,.22.14.22.33s-.1.26-.31.3a8,8,0,0,1-1.23.06H179.64Z" fill="#fff"/><path d="M194.39,56h6.17V69.28l.76,0,1.26,0c1.22,0,2.17,0,2.85-.07s1.08-.07,1.22-.07a1.81,1.81,0,0,1,.36,0c.15,0,.22.14.22.33s-.1.26-.31.3a7.84,7.84,0,0,1-1.23.06h-11.3Z" fill="#fff"/></svg>