<svg xmlns="http://www.w3.org/2000/svg" viewBox="0 0 250 101"><path d="M0 51.31h6.21V1.83H0V0h39.92c7.25 0 12.27 1.67 16.18 5.5 5.26 5.02 8.45 12.91 8.45 20.64s-2.87 14.9-7.65 20.32c-4.14 4.62-8.84 6.69-15.14 6.69H0v-1.83zm32.27 0c5.18.08 6.85-1.75 6.69-7.57V9.4c0-6.61-.8-7.65-5.9-7.57h-3.98v49.48h3.19zM86.52 53.15v-1.83h6.06l-5.02-14.5H69.07c-.56 2.07-.72 3.19-.72 4.54 0 3.43 1.2 6.45 3.11 8.05 1.59 1.35 3.35 1.83 6.53 1.91v1.83H57.35v-1.83c2.55-.4 5.66-4.78 8.69-12.03L80.15 0h18.17l17.85 51.31h2.95v1.83H86.53zm-8.2-42.95l-8.61 24.78H87L78.31 10.2z" fill="#fff"/><path d="M180.8 44.22c-.64 3.19-1.2 4.7-2.15 6.22-1.83 2.55-4.86 3.82-9.4 3.82-7.25 0-11.63-2.15-13.86-6.69-1.43-2.87-1.59-4.78-1.75-16.33 0-4.22-1.11-5.18-6.13-5.18-.72 0-1.2 0-2.23.08v25.18h5.34v1.83H116.2v-1.83h6.21V1.83h-6.21V0h43.67c6.3 0 10.04.8 12.43 2.71 2.71 2.07 4.22 5.66 4.22 9.8 0 6.22-2.79 10.12-9.16 12.67 3.67 1.43 4.62 1.91 5.9 3.11 2.07 1.99 2.87 4.3 2.87 7.97q0 1.35-.32 6.22v1.51c0 2.23.32 2.95 1.35 2.95.88 0 1.43-.96 1.83-3.19l1.83.48zm-35.54-20c6.77.16 8.21-.8 8.45-5.66V7.33c-.08-4.46-1.27-5.58-5.82-5.5h-2.63v22.39z" fill="#fff"/><path d="M217.73 53.15v-1.83h5.42l-13.47-25.66v25.66h6.06v1.83H180.6v-1.83h6.21V1.83h-6.21V0h35.62v1.83h-6.53v21.28l13.94-10.6c3.19-2.47 4.06-3.67 4.06-5.5 0-2.47-1.51-4.22-4.06-4.86-1.12-.24-2.15-.32-4.38-.32V0h28.13v1.83h-.96c-3.9-.16-7.49 1.67-16.41 8.13l-2.95 2.55 20.32 38.8h2.63v1.83h-32.27zM31.23 72.39l6.05 15.82 7.65-22.84c.34-.97.4-1.26.4-1.54 0-1.03-.46-1.31-2.28-1.31h-1.94v-1.43h10.56v1.43h-1.08c-2.23.06-3.14.8-4.11 3.6L35.12 99.93h-1.54L26.9 82.51l-7.54 17.42H18.1L3.99 62.51H.11v-1.43H38.6v1.43h-3.14l-4.23 9.88zm-19.01-9.88l9.94 26.44 3.83-8.79-6.68-17.65h-7.08zm15.25 0l2.91 7.54 3.26-7.54h-6.17z" fill="#fff"/><path d="M55.86 62.51h-4.57v-1.43h17.13v1.43h-4.57v35.24h4.57v1.43H51.29v-1.43h4.57V62.51zM75.87 65.77v27.87c-.06 3.71.29 4.11 3.08 4.11h2.23v1.43H69.59v-1.43h1.49c2.8 0 3.14-.46 3.08-4.11V66.63c.06-3.65-.29-4.11-3.08-4.11h-1.49v-1.43h12.34l18.27 24.33V66.63c.06-3.71-.29-4.11-3.08-4.11h-1.49v-1.43h10.85v1.43h-1.49c-2.8 0-3.14.4-3.08 4.11v32.95h-1.31L75.87 65.77zM111.85 62.51h-4.57v-1.43h17.82c5.03 0 6.45.17 8.45.86 6.34 2.28 10.51 9.54 10.51 18.27 0 6.8-2.4 12.51-6.68 15.99-1.88 1.48-4.11 2.46-6.4 2.8-.97.11-2.57.17-5.88.17h-17.82v-1.43h4.57V62.5zm13.25 35.24c4 0 5.77-.8 7.2-3.14 1.71-2.91 2.23-6.28 2.23-14.51s-.51-11.54-2.23-14.45c-1.43-2.34-3.2-3.14-7.2-3.14h-5.25v35.24h5.25zM177.07 65.08c3.94 3.83 6.17 9.37 6.17 15.3 0 5.37-2.34 11.08-6.17 14.79-3.37 3.31-7.6 4.97-12.56 4.97s-9.14-1.66-12.51-4.97c-3.88-3.77-6.17-9.37-6.17-15.08s2.28-11.25 6.17-15.02c3.31-3.26 7.6-4.97 12.51-4.97s9.14 1.66 12.56 4.97zm-19.99.97c-1.2 2.46-1.71 6.8-1.71 14.05 0 8.11.63 12.39 2.11 14.91 1.54 2.51 3.71 3.6 7.08 3.6 3.65 0 5.94-1.37 7.42-4.4 1.2-2.4 1.71-6.8 1.71-13.82 0-8.39-.57-12.62-2.11-15.13-1.54-2.51-3.71-3.6-7.02-3.6-3.71 0-6.05 1.37-7.48 4.4z" fill="#fff"/><path d="M207.45 72.39l6.05 15.82 7.65-22.84c.34-.97.4-1.26.4-1.54 0-1.03-.46-1.31-2.28-1.31h-1.94v-1.43h10.56v1.43h-1.08c-2.23.06-3.14.8-4.11 3.6l-11.36 33.81h-1.54l-6.68-17.42-7.54 17.42h-1.26l-14.11-37.41h-3.88v-1.43h38.49v1.43h-3.14l-4.23 9.88zm-19.02-9.88l9.94 26.44 3.83-8.79-6.68-17.65h-7.08zm15.25 0l2.91 7.54 3.26-7.54h-6.17z" fill="#fff"/><path d="M246.74 71.36h-1.54c-.8-6.11-4.28-9.71-9.31-9.71-4.05 0-7.08 2.74-7.08 6.34 0 2 .97 3.71 2.63 4.63q1.37.74 6.45 2.23c5.82 1.71 7.42 2.4 8.97 4.05 2 2.17 3.14 5.14 3.14 8.45 0 7.31-5.37 12.79-12.56 12.79-3.31 0-6.23-1.03-9.59-3.37l-1.88 2.4h-1.49V88.55h1.54c1.43 6.22 5.65 10.05 11.08 10.05 4.45 0 8.05-3.26 8.05-7.31 0-2.17-.97-4.11-2.51-5.25-1.14-.8-1.43-.91-6.74-2.57q-6.51-2.11-7.88-3.2c-2.4-1.88-3.71-4.8-3.71-8.22 0-6.74 5.03-11.94 11.59-11.94 2.74 0 5.08.8 7.71 2.74l1.6-1.77h1.54v10.28z" fill="#fff"/></svg>