<svg xmlns="http://www.w3.org/2000/svg" viewBox="0 0 190 159"><path d="M69.51 52.8c-2.17 0-4.11.14-6.24.48-2.65-2.34-.74-2.14 1.23-3.31l4.29-2.19c.42-.21.85-.33.72-1.04-2.32.46-5.5 2.46-7.61 3.51-.67.35-1.02.25-1.69-.13-1.51-.82-3.16-2.01-4.83-2.44-3.97-.83-7.47-.84-11.37-.22-2.8.24.09-7.1 1.03-8.7.05-.72-.26-.62-.75-.4-1.75 2.84-2.8 6.42-2.35 9.8-3.01 1.02-6.57 2.27-9.63 2.89.07-.63.07-1.25-.42-1.45-.82.3-.23 1.89-.94 2.09-.87.24-2.95.82-3.8 1.03.08-1.9.61-3.53 1.71-5.02.26-.35.57-1.06.43-1.43-2.24-.22-3.28 5.34-3.32 7.14-.72.32-2.33.83-3.1 1.05-.09-2.92 2.38-5.08 3.89-7.39.3-.37 1.21-.64 1-1.34-1.78-1.06-6.14 6.7-5.96 8.42-.06.83-.35 1.3-1.14 1.6l-5.76 2.19c-2.05.96-4.48 2.15-6.53 3.08.23-2.11 5.39-6.75 6.84-8.62.36-.58-.08-1.06-.66-.65-1.32 1.38-3.96 4.23-5.25 5.64-1.4 1.27-1.81 3.09-2.79 4.65l-1.74.66c-.33-3.47.97-6.64 1.72-9.97-.97-3.58-3.61 9.86-2.97 10.99C-1.6 66.26 2.26 67.51.53 73.9c-.07.9-1.07 3.31-.19 4 1.1.91 3.36-1.54 4.9-.85.86.72.89 1.86 1.02 2.89.6 4.76 1.5 10.64 1.55 15.39-.13 9.89 1.78 20.87-.14 30.61-2 5.86 2.22 5.27-.64 10.53-.6 1.12-2.21 4.65-2.9 5.69-1.34 1.83.14 3.91.35 5.71-1.14.27-1.46 4.46-1.85 5.31-.48 2.45 0 5.83.85 3.91-.17-2.68.12-5.23 1.04-7.73.7-.11 1.7.06 2 .63-.06 2.2-.3 6.88.66 7.16.8.18.31-6.71.47-7.04.62-.38.95.09 1.22.55.83 2.99 1.93 6.77 4.87 8.28.11-.66-.12-.95-.48-1.43-2.12-2.6-2.77-5.63-3.88-8.6 1.57-.95 2.81-1.89 4.16-3.07 1.27.13 2.88 3.27 3.88 2.38.03-1.06-2.37-2.28-2.65-3.38.42-.29 1.16-1.1 1.65-1.19.53.08 2.34 1.24 2.86 1.47l.4-.54c-.41-.55-3.03-1.54-1.57-2.4.82-.79 4.35-3.48 5.32-4.23 2.27-1.85 5.87-4.73 7.83-6.93 1.14-1.14 1.69-.09 2.04-.61.18-.27-.31-.46-.35-.86-.1-.21 2.38-2.54 2.51-2.73.99-1.13 3.3-3.73 4.33-4.78 6.06-5.99 4.34-7.31 8.72-1.67 1.85.67-1.14-3.38-1.8-3.96-1.52-1.08-.25-2.11.12-3.38.22-.11.89-.17 1.15-.04l2.89 1.36 3.42 2.72c.18.15.81.27.78.06-.27-2.17-5.03-4.5-7.42-5.44 0-2.39 3.15-1.23 4.53-1.07.57-.02.78-.39.26-.83-.63-.52-3.53-.19-3.04-1.15 1.1-1.69 3.61-5.87 4.66-7.65l.85-.45c-.15-1.4 2.82-5.88 3.39-7.14l1.63-3.54c3.52-8.86 5.63-18.95 5.28-28.51-.08-8.02-5.02-6.71 4.58-7.56.45-.6.19-.64-.28-.93zM54.32 75c-3.51 11-7.97 22.78-14.46 32.36-1.37-.97-3.72-1.72-4.09-.93-.29.61 2.43.7 4.03 1.45-1.54 3.1-4.31 6.79-6.37 9.55-3.11 3.97-6.81 8.14-12.25 8.21-.39-2.28 1.95-3.09 1.63-4.36-1.41.65-1.53 3-3.02 3.37-1.62-2.4-1.64-3.39.99-5.46.15-.13.27-.63.15-.77-.49-.63-1.32.67-2.4 1-1.18-11.06.18-23.27 1.16-34.29.72-4.37 1.4-10.43 2.8-14.63 1.28-2.79 5.37-5.02 7.81-6.92l1.32-.7c.15.34.32.67.45.73 1.14-1 1.08-2.94 3.17-3.03.07.56.09.75.29 1.32.79-2.01 1.83-3.37 4-4.14 1.41-.62 3.26-1.55 4.77-1.83l.86 1.07c.17-.5.17-1.38.87-1.5 1.66-.19 3.36-.22 4.91.38 3.66 1.42 4.84 2.76 5.16 6.81.55 3.87-.96 8.56-1.79 12.31zM131.83 43.78c-1.37.16-4.07.74-5.37 1.2-.4-4.98-.09-10.68-1.69-15.43-1.71-6.02-5.01-11.37-11.62-12.52.11-.82 2.49-1.06 3.1-1.38l2.49-1c.46-.52.29-.64-.28-.78l-4.44 1.47c-.79.33-1.6 1.14-2.44 1.22l-3.46.34c-.08-.94.64-1.39 1.03-2.03 1.72-2.85 4.28-5.03 6.73-7.23 1.56-4.61-9.46 7.82-8.91 9.54-.79.44-1.5.61-2.45.7-.07-1.18.16-3.85.3-5.04l.32-2.55c.01-.11-.43-.33-.51-.26l-.33.33c-.64 2.69-.84 5.4-.5 8.14-9.74 6.03-16.53 15.76-22.13 25.54-3.65-2.69-2.7-9.79-4.15-7.22.05 5.97 4.46 7.49 3.23 9.45-.67 2.02-2.93-2-3.56-2.37l-1.69-2.23-1.28-1.93c-.58-.87-1.28.1 1.05 3.3 1.08 1.69 2.44 3.14 3.64 4.68l-2.03-.51c-.65-.05-.92.54-.35.93l1.75.57c.22.07.86-.05.95.15.1.2.13.71.03.92-1.35 2.72-2.23 6.36-3.07 9.28-2.1 8.08-1.64 17.02-.4 25.23 1.15 5.5 4.6 11.29 10.01 13.45-1.58 2.43-2.85 5.34-3.22 8.24-.03.14.19.5.3.59.61.21 1.12-3.45 1.3-3.71l1.59-3.49c.42-.61.57-1.47 1.56-1.02.18.09.24.6.17.85-.64 2.21-.91 4.41-.37 6.72.52-.05.67-.14.64-.73-.07-2.29.22-4.44.88-6.63l2.09.22.69 3.53c1.21-.37.17-1.62.39-3.32 9.06-.43 16.31-5.77 21.58-12.79 1.25-1.49 2.46.76 4.3.95.55-.05 4.19.91 2.8-.72-1.95-.02-3.71-.59-5.41-1.47-.34-.47.63-1.68.8-2.11.7-1.25 2.61-.05 3.7-1.22.48-1.79-2.94 1.2-2.28-1.1 1.02-2.2 3.24-7.47 4.19-9.76.8-2.94 2.85-10.55 3.39-13.46.29-.64.6-8.4 1.5-8.45h2.14c.63-.07.6-.82.03-.98l-2.31-.07-.08-1.92c.81.04 4.95-1.09 5.81-1.29.64-.32.5-.76-.15-.81zM115.55 55.5c-.3.89-.69 4.82-1.56 5.36l-.14-1.04c-.49-.86-2.58.66-3.16.81l-.47 1.19c-1.71.6-5.04 2.36-4.28 3.21.38.42.94-.08 1.26-.39.94-.94 2.19-1.36 3.46-1.7v.44c-.7.18-6.87 4.92-3.7 4.43l2.58-2.13c1.99-1.65 3.7-1.74 3.68-1.95-.03-.29-.07-.91-.11-1.2.32-.35.84-.04.63.52-1.65 5.93-4.14 12.53-7.89 17.43-2.98 3.77-8.62 7.04-12.97 3.35l-.15-1.44c-.78.08-1.42.4-1.59-.71-2.76-3.36-3.47-9.31-2.75-13.53 1.54-.22 2.46.64 3.25.31.5-.21-.46-1.51-3.14-1.19l.26-3.27c1.52-.23 2.33.91 2.66.51.61-1.54-1.97-1.39-2.35-1.61-.63-.26.9-5.54.87-6.01 1.93-7.67 5.6-15.33 11.25-20.94 8.38-8.12 15.45-.04 15.07 9.43-.08 2.42-.26 7.78-.71 10.13zM185.9 17.71c-.65.19-1.31.29-1.95.19-.19-1.69-1.85-2.99-1.17-4.62.03-.09-.39-.21-.51-.2-1.11.13-1.12-.82-2.49-1.93-2.05-2.1-4.88-3.19-7.8-2.69-.49.06-.86.29-1.28-.18 1.2-1.07 2.87-1.67 4.2-2.54 1.4-2.49-5.28 1.77-5.55 2.4-.64.66-1.21 1.43-2.33 1.15.7-2.05 1.75-4.21 3.26-5.77l2-2c.11-.11.18-.47.15-.61-.12-.52-1.61.26-2.59 1.41-2.07 2.3-3.5 5.15-4.45 7.98-2.46 1.3-5.12 2.3-7.25 4.14l-3.55 3.09c-3.11 2.45-7.24 7.05-9.49 10.3-1.18 1.19-2.2 3.31-3.07 4.73-1.62 3.02-3.93 7.88-4.9 11.17-1 2.91-2.57 7.04-3.44 10-1.53 6.25-.63 11.91 4.17 16.33.2.21.63.6.59.85-.21 1.28-5.96 4.97-3.94 5.92.8-.93 2.57-2.83 3.48-3.63.46-.46 1.47-2.27 2.11-1.07-.49 1.52-3.41 5.96-2.15 7.22.87.46.45-1.28 1.05-2.53l1.89-3.95c.35-.11.99.1 1.13.42-.44 3.33 1.13 4.08 1.07 2.86.08-.33-.3-2.05.09-2.22 2.46.92 5.02 1.44 7.57.36 1.09-.4 1.7.52 1.87.22l.37-.65c1.96-1.34 5.16-1.9 7.19-3.24.62-.26 3.53-2.36 4.25-2.08.22.3.59 3.66 1.35 3.23.42-.78-.47-2.56-.19-4.49l1.83-1.37c.16-.12.47.32.46.54-.21 5.07 3.67 7.97 1.6 3.62-.39-1.98-1.34-4.75.15-6.38 2.62-2.72 5.79-6.46 7.41-9.8.36-.75.7-1.7 1.49-2.07.13.29.81.77.94.52.89-1.66-.64-3.75.76-3.79.65 1.23.43 2.84 1.15 2.82.97-.03.04-3.27-.73-4.97 3.08-7.63 4.12-16.66 4.13-24.85l2.38.34 1.01.59c1.8.22-.26-1.85-1.18-1.77l-2.31-.41c-.18-.29-.27-.83-.18-1.15 1.08-.29 3.76-.78 4.88-.98 1.97-1-1.7-1.12-3.54-.47zm-12.7 23.93c-.28 1.06-.62 2.09-1.19 3.02-1.18-.72-5.75-.55-4.64 1.18 1.08.4 2.6-1.28 4.14.37-1.17.59-2.58-.12-2.53.89.11.74 1.32.47 1.82.48l-.66 2.01-1.78 2.92c-2.29 3.32-5.08 6.97-8.26 9.41-3.07 1.82-6.72 4.62-10.49 2.93-.28-.24-2.41-.59-2.24-1.22.19-.2 3.65-.51 4.02-.63.41-.1.79-.53.45-.93-.4-.31-1.09-.02-1.56.05l-3.45.45c-.4.04-.53-.06-.59-.46 1.78-.75 8.61-1.64 8.48-3.48-.59-1.03-8.97 3.28-9.72 2.51-1.11-.91-1.23-3.1-1.74-4.37-.76-2.58.68-5.36 1.49-7.77.82-1.75 2.61-5.33 3.51-7.06.35-.68 1.22-1.16 1.28-2.06l1.03-.5.15-1.08 1.57-2.02c1.89-2.37 4.12-4.77 6.6-6.5 1.4-1.27 4.69-3.27 6.39-4.12 2.72-1.13 7.35.22 7.77 3.32-1.18.4-3.28 2.03-1.41 1.86l2.22-1.06c1.72 3.77.31 8.06-.68 11.86zM74.92 18.6c1.29-3.86.3-3.99-3.95-3.38l-3.47.15-.53-2c.72-1.98 4.38-1.98 6.25-3 1.08-.39 1.52-3.08 1.06-3.64-.43-.73-6.03 1.15-6.64 1.16-.85.19-1.28-.3-1.33-1.16.85-1.21 3.3-1.09 4.61-1.81 2.73-.91 4.13-.6 4.25-4.05-.49-.84-1.41-.87-2.24-.69-1.53.33-5.56 1.17-6.94 1.81-4.76 1.54-3.8 2.29-3.7 6.79.17 1.59.36 10.66.33 11.98 2.6.17 6.05-.89 8.64-1.17 1.01-.22 2.92-.12 3.64-.99zM40.04 17.39c.44 2.74.92 5.75 1.15 8.53l.4 1.31c1.7.04 2.75-.91 2.51-2.65l-.46-5.42c-.23-1.52 2.16-1.47 3.09-1.81 8.93-2.14 5.75-2.41 7.52 5.61 2.05.16 4.26-.25 4.2-2.09l-.24-7.54c-.02-1.83-.24-5.57-.42-7.41-1.38-.37-2.52-.02-3.79.53-.37 1.65.45 3.07.22 4.71-2.1.49-4.09.94-6.06 1.75-1.58.48-4.59 2.38-4.87-.4-.11-1.02-.22-2.04-.71-2.93-.99-.32-2.41.03-3.13.79-.38 2.26.4 4.78.59 7.03zM21.7 20.94c1.74.17 3.4-.81 5.13-.8.67 2.5.45 4.78.8 7.37.18.76-.24 3.66 1 3.8 3.58-.53 2.44-4.71 2.3-7.29l-.21-3.38c-.04-.59-.38-1.41-.16-2.01.79-.52 2.58-1.63 3.38-2.1 2.38-.2 3.84-5.18.46-4.01-4.2 1.52-9.35 2.71-13.35 4.68.07 1 .06 2.85.66 3.74z" fill="#fff"/><path d="M1.99 62.99c.77-.17-.07-2.33.53-4.5l1.04-4.64c-.27-.49-.24-.77-.83-.24-.38 1.36-2.71 9.07-.75 9.38zM165.02 8.74c1.13-.04-.44-1.88-.53-2.33-.72-2.11 1.08-3.7.52-4.39-.7-.42-1.03.78-1.27 1.19-.94 1.67-.53 4.71 1.28 5.53zM44.89 46.69c1.17.02 1.82-3.19 2.74-4.04.31-.47.79-.97.49-1.65-1.56 1.63-3.65 3.78-3.23 5.69zM141.58 30.11c.42-.25 2.26-.48 1.86-1.32-.43-.45-1.29.16-1.71.34l-.49.33c-.12.08.17.71.33.65zM32.11 108.34c0 .18.3.46.52.53 2.62.85 3.92 2.96 3.84 1.41-1.02-.79-3.3-3.26-4.37-1.94z" fill="#fff"/></svg>