<svg xmlns="http://www.w3.org/2000/svg" width="200" height="116" viewBox="0 0 200 116"><path fill="#fff" d="M157.89 3.68l9.25-1.19 6.7 41.74L181.01 0l6.88 4.33-7.65 46.12L200 87.56l-9.38 3.38-17.67-34.56 4.21 29.23-6.7 1.06-12.57-82.99zM155.51 16.53L147.76 19l2.7 43-11.16-30.43-4.23.71-.82 25.73-11.99-44.06-5.52 3.17 20.09 74.73 4.1-.5.95-37.34 12.58 34.08 4.58-1.18-3.53-70.38zM106.37 17l-7.32 1.26-1.69 70.82 7.74-.42.14-15.76 9.15-.71 7.88 24.49 9.15-1.55zm-1.85 47.26l1.14-25.45 8.73 25zM63.15 30l8.16-.91s7 41.91 8 46.78 3.86 4.3 5.78 4 4.19-1 3.74-5.89-7.93-49-7.93-49l5.55-1s6.68 39.19 7.36 46.55 2 17-5.66 19.71-13.93-.79-15.86-8.61S63.15 30 63.15 30zM71.16 95.71c-1-1.29-2.85-3.86-2.85-3.86-1.51-25.13-7.63-52.13-9.68-56.57S53.22 26.76 44 29.06s-7.73 21-6.84 29.05S42.74 91.05 45 96.68s5 9.29 7.32 9.56 6.84.89 9.47-.44a10.64 10.64 0 0 0 3.94-3.47 15.1 15.1 0 0 0 1.77 2.31c1.34 1.51 3.29-1.69 4.53-3.55s.1-4.09-.87-5.38zm-12-16.52c-1-1.13-1.92-.34-2.37.34s-2.67 3.52-1.6 6.15a90.72 90.72 0 0 0 5.16 9 8.29 8.29 0 0 1-2.29.9c-1.73.49-4.43-.49-6.56-6.72s-6-33.56-6.48-40.19c-.5-7 5-6.19 5-6.19 3.17.22 4.64.56 5.55 5s6.23 30.81 6.23 35c0 0-1.59-2.15-2.61-3.29zM23 56.12l10.39-1.75S30.71 40 29.49 32.68 20.71 21.53 14 22.06.24 28.17 0 38.71s2.6 27 6.8 33.37 7.1 4.51 14 6.19 8.85 7 9.77 14-2.9 10.62-5 10.77-6.19 0-7.56-3.59-2.29-11.15-2.29-11.15l-7.41.84s2.22 11.38 3.06 15.43 5.72 9.93 11.15 9.93 15.27-2 17.26-9.78-2.5-23.32-3.64-28.89-3.6-8.17-10.14-10.7-13-2.29-15.11-8.7S8.8 43.52 8.57 40.54s2.82-5.42 5.65-5.19 5.5.94 6.49 7.11S23 56.12 23 56.12zM65.25 11.65l-.75-2.52-9.12 2.2.73 2.41 2.9-.66 2.49 11.17 3.53-1.13-2.88-10.76 3.1-.71zM76.24 19.85l2.53-.48-3.09-13.94-3.1.8 1.54 5.7-3.53.77-1.35-5.34-3.35.59 3.27 13.4 3.42-.8-1.29-5.09 3.55-.84 1.4 5.23zM78.23 6.12l3.48 12.81 8.58-1.9-.75-3.08-5.28 1.4-.4-2.2 3.81-1.13-.7-2.41-4.24 1.07-.8-3.16 4.82-1.07-.8-2.74-7.72 2.41z"/></svg>