<svg xmlns="http://www.w3.org/2000/svg" width="300" height="37" viewBox="0 0 300 37"><g fill="#fff"><path d="M26.18 27.48c-.36-5.52-4.51-7.48-4.51-9.3s4-1.67 3.2-9.09-10-9.38-18-7S-.94 14.54 1.46 16.8c1.35 1.26.37 8.72.44 12.21s1.38 6.4 8 6.69 16.64-2.7 16.28-8.22zm-14.58 1a3 3 0 0 1-3.23-2.78 3 3 0 0 1 3.23-2.78 3 3 0 0 1 3.24 2.78 3 3 0 0 1-3.24 2.75zm0-14.48a3.07 3.07 0 0 1-3.23-2.88 3.07 3.07 0 0 1 3.23-2.83 3.07 3.07 0 0 1 3.24 2.87A3.08 3.08 0 0 1 11.6 14zM121.77 27.42c-.36-5.53-4.5-7.49-4.5-9.31s4-1.67 3.2-9.08-10-9.38-18-7.06-7.78 12.51-5.38 14.76c1.35 1.27.36 8.73.43 12.22s1.38 6.39 8 6.68 16.62-2.69 16.25-8.21zm-14.57 1a3 3 0 0 1-3.2-2.82 3.27 3.27 0 0 1 6.47 0 3 3 0 0 1-3.27 2.78zm0-14.41a3.07 3.07 0 0 1-3.2-2.91 3.26 3.26 0 0 1 6.47 0 3.07 3.07 0 0 1-3.27 2.9zM57.84 12.31C57 4.1 50.78 1 43 1.37c-15.61.8-15 15.23-12.31 23.7a15.06 15.06 0 0 0 19.2 9.59c7.2-2.66 8.84-14.14 7.95-22.35zM43 25.92c-3.14 0-5.67-3.39-5.67-7.57s2.53-7.57 5.67-7.57 5.67 3.39 5.67 7.57-2.54 7.57-5.67 7.57zM91.81 13.77C90.93 6.45 87.14.18 78.68 0 60-.37 61.38 19.33 63.65 26.52s9.47 12.25 18.44 9.35 10.61-14.78 9.72-22.1zM75.9 25.51c-6.56.51-5.55-14.52 1.64-14 4.65.31 4.93 13.49-1.64 14zM126.4 5.33c3.21-2.3 3.15-5.4 13-4.5S150.16 4.34 149.89 7s-1.44 4.59-4.5 4.23-11.16-1.68-11.25 1.23 4 2.89 6.3 1.77 7.74-1.65 8.1 1.95-.27 7.11-3.6 6.21-9.36-.73-9.18 1.8 3.79 2.7 7 1.53 6.47-.27 6.65 2.16.63 6.49-1.53 7.12-9.09 1.71-14.13.63-7.47-2.79-7.83-6.49-1.87-22.14.48-23.81zM186.53 5c3.21-2.3 3.15-5.4 13.06-4.5S210.3 4 210 6.64s-1.44 4.6-4.5 4.24-11.16-1.68-11.25 1.23 4 2.88 6.3 1.77 7.74-1.65 8.1 1.95-.27 7.11-3.6 6.21-9.36-.73-9.18 1.79 3.79 2.71 7 1.54 6.48-.27 6.66 2.16.63 6.48-1.53 7.11-9.09 1.71-14.13.63-7.48-2.79-7.84-6.48-1.85-22.08.5-23.79zM179.2 26.16c-1.2-2.88-4.91 1.17-5.9-.81s5.31-8.83 5.85-14.77S176 .77 170.63.23s-11.31-.3-14.43 2.62c-4.15 3.88-3.34 25.29-1.9 29.52s5.32 4.68 7.93 2.25 0-8.28 1.53-8.91 3 1.62 4.34 5.94 5.83 3.78 9.16 3.15 3.15-5.8 1.94-8.64zm-11.75-9.37c-5.66 2.57-5.76-7.56-1.08-8s6.84 5.39 1.08 8zM213.83 1.46c3-2 7.85-1.63 8.29 2.08s-1.31 12.81-.66 15.45 1.53 6.35 3.82 5.26 10.79-4.25 13.08-.33 1.42 10 0 10.14-3.82 1.63-6.54 1.09a22.76 22.76 0 0 0-10-.33c-4.36.87-7.41 2-8.72-2.83s1.2-8 .54-13.84-3.08-14.51.19-16.69zM244.87 1.46c3-2 7.85-1.63 8.28 2.08s-1.3 12.81-.65 15.45 1.53 6.35 3.82 5.26 10.79-4.25 13.08-.33 1.41 10 0 10.14-3.82 1.63-6.54 1.09a22.76 22.76 0 0 0-10-.33c-4.36.87-7.41 2-8.72-2.83s1.2-8 .54-13.84-3.08-14.51.19-16.69zM295.69 19.91c-2.27-3.21-1.27-8.74-1.73-13.15S290.69 0 284.55.09c-11 .14-8 13.08-7.74 17.83s-1.87 5.26-3.4 10 1.47 6.61 3.93 7.61 5.81-1.4 6.31-4.47.9-5.14 3.1-5.21 2.67 6.48 5 8.48 5.74.6 7.68-2.87-1.43-8.35-3.74-11.55zm-8.81-5.34c-1 1-2.64.49-3.06-1.53-.14-.67-.54-1.54.73-2.34 2.8-1.77 3.34 2.87 2.33 3.87z"/></g></svg>