<svg xmlns="http://www.w3.org/2000/svg" width="220" height="132" viewBox="0 0 220 132"><g id="logos"><path d="M88.77,0a24.12,24.12,0,1,0,24.11,24.11A24.11,24.11,0,0,0,88.77,0Zm-.26,27.84a3.73,3.73,0,1,1,3.73-3.73A3.73,3.73,0,0,1,88.51,27.84Z" fill="#fff"/><path d="M50.37,25.37a3.73,3.73,0,1,1,0-2.5L65.29,8.26a24.12,24.12,0,1,0-.11,31.83Z" fill="#fff"/><polygon points="139.79 30.82 139.79 1.88 116.59 1.88 116.59 45.85 151.59 45.85 151.59 30.82 139.79 30.82" fill="#fff"/><polygon points="23.2 110.99 23.2 82.04 0 82.04 0 126.02 35.01 126.02 35.01 110.99 23.2 110.99" fill="#fff"/><polygon points="187.99 0.51 150.72 0.51 150.72 17.65 157.8 17.65 157.8 45.85 180.54 45.85 180.54 17.65 187.99 17.65 187.99 0.51" fill="#fff"/><path d="M64.51,80.51a3.65,3.65,0,0,1-7.28,0H39.4V108h.06a21.46,21.46,0,0,0,42.82,0h.06V80.51Z" fill="#fff"/><path d="M121.28,95.35l7.17-7.27a24.1,24.1,0,1,0,5.91,18.47h.13V95.35Zm-11.16,17.41a9.56,9.56,0,0,1,0-19.12,9.45,9.45,0,0,1,5.44,1.71h-8v15.34h8.48A9.47,9.47,0,0,1,110.12,112.76Z" fill="#fff"/><polygon points="171.95 97.17 171.95 81.83 137.36 81.83 137.36 126.16 171.95 126.16 171.95 110.81 159.89 110.81 159.89 109.6 162.81 109.6 162.81 98.39 159.89 98.39 159.89 97.17 171.95 97.17" fill="#fff"/><path d="M220,120.57,210.47,111a17.75,17.75,0,0,0,4.41-11.8c0-9.59-7.39-17.35-16.5-17.35H175.85v44.33h22.53v-5.37l10.71,10.75ZM198.38,96.69a2.49,2.49,0,0,1,0,5Z" fill="#fff"/></g></svg>