<svg xmlns="http://www.w3.org/2000/svg" width="220" height="61" viewBox="0 0 220 61"><polygon points="198.65 16.86 180.84 37.25 199.1 60.32 205.18 60.32 185.62 36.87 204.09 16.86 198.65 16.86" fill="#fff"/><path d="M40.58,43.81a12,12,0,0,0-5.86-6.39A10.65,10.65,0,0,0,39.52,28a9.6,9.6,0,0,0-4.79-8.86A14.71,14.71,0,0,0,30,17.39a25.82,25.82,0,0,0-5.09-.53H1.24V60.32H24.92a28.06,28.06,0,0,0,6-.65,15.8,15.8,0,0,0,5.23-2.12,11.13,11.13,0,0,0,3.7-3.89,11.85,11.85,0,0,0,1.39-6A10.25,10.25,0,0,0,40.58,43.81Zm-4.36,3.68A9.61,9.61,0,0,1,26.74,57H6.05V20.34H26.14A8.57,8.57,0,0,1,34.61,29v.75a8.67,8.67,0,0,1-5,7.9,9.64,9.64,0,0,1,6.62,9Z" fill="#fff"/><polygon points="51.68 16.86 51.68 55.41 71.94 55.41 74.19 51.17 56.58 51.17 56.58 16.86 51.68 16.86" fill="#fff"/><polygon points="50.47 56.63 50.47 16.86 46.16 16.86 46.16 60.32 69.35 60.32 71.3 56.63 50.47 56.63" fill="#fff"/><path d="M117.06,29.42a19.47,19.47,0,0,0-4.63-6.79,20.55,20.55,0,0,0-7-4.31,26.6,26.6,0,0,0-17.67,0,20.74,20.74,0,0,0-7,4.31,19.58,19.58,0,0,0-4.62,6.79,23,23,0,0,0-1.67,8.94,23.3,23.3,0,0,0,1.67,8.94,20.35,20.35,0,0,0,4.62,6.93,20.79,20.79,0,0,0,7,4.46,25.64,25.64,0,0,0,17.67,0,20.58,20.58,0,0,0,7-4.46,20.23,20.23,0,0,0,4.63-6.93,23.3,23.3,0,0,0,1.67-8.94A23,23,0,0,0,117.06,29.42ZM96.57,56.63a18,18,0,1,1,18-18.05A18.07,18.07,0,0,1,96.57,56.63Z" fill="#fff"/><path d="M96.57,21.75A16.83,16.83,0,1,0,113.4,38.58,16.85,16.85,0,0,0,96.57,21.75Zm10.78,21.76a12.07,12.07,0,0,1-2.42,4.05,11.08,11.08,0,0,1-3.68,2.65,12,12,0,0,1-9.42,0,10.76,10.76,0,0,1-3.65-2.65,12.34,12.34,0,0,1-2.39-4.05,15.69,15.69,0,0,1,0-10.16,11.23,11.23,0,0,1,10.78-7.57,11.47,11.47,0,0,1,4.74,1A10.88,10.88,0,0,1,105,29.36a12,12,0,0,1,2.39,4,14.41,14.41,0,0,1,.86,5A15,15,0,0,1,107.35,43.51Z" fill="#fff"/><path d="M140.69,55.94a14.89,14.89,0,0,1-14.87-14.87v-5a14.89,14.89,0,0,1,14.87-14.87h17.82l2.17-4.37H141.42a20.61,20.61,0,0,0-20.58,20.59v2.28a20.61,20.61,0,0,0,20.58,20.59h20.27V55.94Z" fill="#fff"/><path d="M141.42,27.36h14l2.44-4.92H140.69A13.68,13.68,0,0,0,127,36.1v5a13.68,13.68,0,0,0,13.66,13.66h21V49.82H141.42a10.1,10.1,0,0,1-10.09-10.09V37.45A10.1,10.1,0,0,1,141.42,27.36Z" fill="#fff"/><polygon points="213.12 60.32 208.68 60.32 208.68 12.58 44 12.58 44 8.14 213.12 8.14 213.12 60.32" fill="#fff"/><polygon points="220 60.32 215.56 60.32 215.56 5.68 44 5.68 44 1.24 220 1.24 220 60.32" fill="#fff"/><path d="M8,3.2V13.28H4.33V3.2H0V0H12.35V3.2Z" fill="#fff"/><path d="M23.71,13.28V8.22h-6v5.06H14V0h3.7V5.06h6V0h3.7V13.28Z" fill="#fff"/><path d="M30,13.28V0H41.64V3.16H33.53v2h7.74v3H33.53v1.94H42v3.2Z" fill="#fff"/><rect x="165.51" y="16.86" width="4.23" height="43.45" fill="#fff"/><polygon points="179.27 37.21 197.04 16.86 191.13 16.86 175.8 34.54 175.62 34.54 175.62 16.86 170.95 16.86 170.95 60.32 175.62 60.32 175.62 40.31 175.74 40.31 191.67 60.32 197.56 60.32 179.27 37.21" fill="#fff"/><path d="M26.74,38.39H12.39l3.23,3.51h8A11.53,11.53,0,0,1,28.92,43a3.84,3.84,0,0,1,2,3.74,4.7,4.7,0,0,1-.67,2.61,4.55,4.55,0,0,1-1.73,1.56,7.61,7.61,0,0,1-2.36.77,14.78,14.78,0,0,1-2.51.22H11.23V37.14l.06.06v0H26.14a7.36,7.36,0,0,0,7.26-7.44V29a7.36,7.36,0,0,0-7.26-7.44H7.26V55.76H26.74A8.37,8.37,0,0,0,35,47.49v-.83A8.38,8.38,0,0,0,26.74,38.39ZM11.23,25.21H22.92a9.72,9.72,0,0,1,4.94,1,3.5,3.5,0,0,1,1.66,3.23A4.1,4.1,0,0,1,27.92,33a7.43,7.43,0,0,1-4.52,1.2H11.23Z" fill="#fff"/></svg>