<svg xmlns="http://www.w3.org/2000/svg" width="280" height="50" viewBox="0 0 280 50"><path d="M65.69,12.42a10.35,10.35,0,0,0-9-3.4V30.58c.92-.15,1.74-.29,2.56-.41C66.38,29.15,71.32,18.59,65.69,12.42Zm-1.35,6.65c-.28,2.83-2.8,6.65-4.61,6.75V13.2C62.45,14,64.57,16.64,64.34,19.07Z" fill="#fff"/><path d="M160.61,6.46h-8c0,6,.06,11.89,0,17.81s-.26,11.87-.39,17.8l-.28.06a1.73,1.73,0,0,1-.21-.34c-1.25-3.93-2.47-7.87-3.75-11.8a2.44,2.44,0,0,1,.73-2.76,11.49,11.49,0,0,0,3.44-9.89c-.67-4.94-3.53-8.3-7.8-10.59a5.32,5.32,0,0,0-2.35-.6c-2.94-.06-5.88,0-8.83,0a3.69,3.69,0,0,1-1-.23c-.36-.1-.72-.38-1.06-.35a163.15,163.15,0,0,1-19.15.57c-3.19-.15-6.39-.19-9.58-.32-.81,0-1.09.23-1.07,1,0,1.52-.06,3-.09,4.57,0,.88,0,1.77,0,2.6h11.3c.46,10.28-.06,20.58-.37,30.9h9A238.48,238.48,0,0,1,120.66,14l11.05.47V45.24c2.37-.16,4.64-.39,6.92-.43,1.06,0,1.44-.51,1.36-1.33a23.88,23.88,0,0,0-.73-4,4.14,4.14,0,0,1,.3-3.74,1.52,1.52,0,0,1,1-.69c.29,0,.67.45.84.78q2.2,4.48,4.32,9c.32.68.63.92,1.41.62,1.45-.55,2.94-1,4.43-1.49a2.68,2.68,0,0,1,.42-.05l.22.73h8.78C159.8,31.88,160.27,19.22,160.61,6.46Zm-31.86,4H117.21V40.52a3.48,3.48,0,0,1,0,1,.67.67,0,0,1-.52.37.71.71,0,0,1-.51-.39,3.89,3.89,0,0,1,0-1L116.23,12V10.34H105.51c-.54,0-1.15,0-1-.9.29,0,.57-.07.84-.07h22.43C128.44,9.36,129.09,9.32,128.75,10.41Zm19.09,31.82a8.39,8.39,0,0,1-.49-.94c-1.34-3.56-2.69-7.12-4-10.69-.24-.65-.54-1-1.24-.83-1.94.57-3.89,1.14-5.8,1.81-.27.1-.45.8-.45,1.22,0,2.61,0,5.21.07,7.82a3.07,3.07,0,0,1,0,.86c0,.19-.32.47-.44.44a1,1,0,0,1-.55-.46,1.49,1.49,0,0,1,0-.64q0-15.63,0-31.28c0-.32,0-.64,0-.94,3.87-.95,9.62.82,11.53,3.87a11.55,11.55,0,0,1,.43,12.37,11.75,11.75,0,0,1-1.8,2.44,2.82,2.82,0,0,0-.87,2.75c.43,1.93.92,3.86,1.53,5.75s1.39,3.57,2.09,5.36c.12.31.19.64.29,1Zm9.23-16.62q0,7.44,0,14.87a3.1,3.1,0,0,1-.05,1,.75.75,0,0,1-.57.32.55.55,0,0,1-.43-.34,3.93,3.93,0,0,1,0-1q.09-14.87.19-29.74a2.08,2.08,0,0,1,0-.75.92.92,0,0,1,.52-.4c.07,0,.31.25.34.42a4.11,4.11,0,0,1,0,.86Q157.07,18.23,157.07,25.61Z" fill="#fff"/><path d="M17.76,23.85V38.07a10.48,10.48,0,0,1-4.62-3.62A16.74,16.74,0,0,1,11.4,18.11c2.19-5.4,5.75-8.31,12.51-7.73,1.51.13,3,.28,4.73.44V.29c-2.42,0-4.88-.08-7.34,0C16.76.49,12.4,1.39,8.87,4.49,7,6.16,5.24,8,3.5,9.86a5.5,5.5,0,0,0-1.07,1.85,34.61,34.61,0,0,0-1,22.46,15.73,15.73,0,0,0,1.85,4.58,28.85,28.85,0,0,0,4.1,4.47c2.55,2.4,5.45,4.33,9,4.73,3.3.38,6.65.42,10,.56a23,23,0,0,0,2.46-.18c-.16-8.23-.31-16.32-.46-24.48ZM8.88,38.15C3.22,29.9,3.55,17.62,9.71,9.73a14,14,0,0,1,7.46-5.2,46.3,46.3,0,0,1,7.11-.72c0,.93,0,.9-.74,1a38.55,38.55,0,0,0-5.5.59c-4.6,1.09-7.51,4.23-9.36,8.38-4,9-3.33,17.7,2.69,25.68C14,43,17.93,44.13,22.21,44.27c.82,0,.7-.54.7-1V27.16H24q.2,8.88.39,17.73C17.88,45.58,12.63,43.6,8.88,38.15Z" fill="#fff"/><path d="M92.92,10.18c-.8-.08-1.07.23-1.23,1-.92,4.17-1.92,8.32-2.82,12.49-.53,2.42-.92,4.87-1.42,7.59a91.92,91.92,0,0,0,12.58-.3C100,27.59,97,12.6,95.8,10.2,94.87,10.2,93.89,10.26,92.92,10.18ZM91.77,28.71c-.56-3,.4-8.06,2.6-12.69C95.2,20.1,96,24.18,96.9,28.48Z" fill="#fff"/><path d="M279.7,39.7c-2.67-4.73-5.26-9.49-7.86-14.26a4.46,4.46,0,0,1-.47-1.43,6.28,6.28,0,0,1,1.74-5.18c.8-.93,1.74-1.74,2.6-2.62a8.14,8.14,0,0,0,2.72-5.62,1.21,1.21,0,0,0-.81-1.33c-1.43-.62-2.81-1.36-4.22-2-.84-.39-1.71-.72-2.57-1.08L266,18.22l-.52-.1V6.34h-8.41c.11,3.09.23,6.29.34,9.5l-.13,0c-.08-.2-.18-.39-.24-.59A12.89,12.89,0,0,0,253.2,9.2c-2.26-2-4.7-3.59-8-3.09a30,30,0,0,1-4.24.07h-3.89V35.23l-.28,0c-.09-.37-.2-.75-.27-1.12-.67-3.34-1.37-6.67-2-10q-1.49-8.34-2.83-16.7c-.14-.85-.42-1.14-1.3-1.12-2.51.06-5,0-7.52,0h-3c-2.37,12.8-4.72,25.48-7.08,38.2,2.26,0,4.36-.05,6.45,0,1,0,1.45-.33,1.58-1.29q.48-3.28,1.06-6.54c0-.3.4-.78.6-.78,2.24,0,4.48.13,6.83.21.3,3,.58,5.81.86,8.67l.67,0c2.22.2,4.42-.21,6.69.22,2.11.4,4.4-.21,6.61-.29.75,0,1.16-.31,1.1-1-.12-1.39-.39-2.76-.56-4.14a11,11,0,0,1-.2-3.06c.09-.6.86-1.1,1.32-1.64a7.67,7.67,0,0,1,1.12,1.39c1.52,3.08,3,6.19,4.51,9.38l5.95-2,0,.27a5.94,5.94,0,0,0,1.31.54,12.68,12.68,0,0,0,1.95.1h5.12c0-.52,0-1,0-1.38-.14-3.11-.32-6.22-.4-9.33a7.54,7.54,0,0,1,.43-2.43c.22-.67.71-.68,1.1-.07a6.33,6.33,0,0,1,.36.79c1.76,4,3.51,7.94,5.29,11.89.15.32.65.79.83.73a16.13,16.13,0,0,0,6.11-3.19A1.45,1.45,0,0,0,279.7,39.7Zm-45.37,2.79c-.31-.47-.6-.71-.65-1-.46-2.78-.9-5.57-1.29-8.37-.1-.77-.29-1.13-1.18-1.11-3.81,0-7.63,0-11.44,0-.8,0-1,.29-1.16,1-.45,2.64-1,5.26-1.45,7.9-.12.71-.39.94-1.17.67.52-2.51,1-5,1.56-7.52,1.64-7.79,3.3-15.57,4.91-23.37.15-.74.4-1,1.18-1,1.27,0,2.54-.12,3.81-.18.51,0,.87.09,1,.72q3,15.84,6.05,31.66A3,3,0,0,1,234.33,42.49Zm18.87-.23a8.3,8.3,0,0,1-.54-1c-1.31-3.45-2.66-6.88-3.86-10.37-.36-1.06-.91-1.32-1.82-1.05-1.77.52-3.54,1.08-5.26,1.74-.3.11-.52.83-.53,1.27,0,2,0,4.05.06,6.08,0,1,0,1.94,0,2.94-.56.14-1,.3-1-.56q0-16.29,0-32.58a.82.82,0,0,1,.05-.17c4.36-.54,8.3.3,11.24,3.65a10.45,10.45,0,0,1,2.22,6.68,10.54,10.54,0,0,1-2.88,7.84,4.63,4.63,0,0,0-1.12,4.87c.67,2.32,1.57,4.57,2.38,6.85.45,1.23.93,2.45,1.39,3.68Zm4.3.83c-.88-2.47-1.74-4.68-2.46-6.93s-1.3-4.58-1.89-6.89a1.51,1.51,0,0,1,.15-1.18,18,18,0,0,0,4.2-6.52Zm5.39-13.21a4.67,4.67,0,0,0-.61,1.88c-.11,2.82-.1,5.64-.18,8.46,0,.32-.35.62-.54.93-.2-.3-.56-.6-.56-.91-.07-3.14-.08-6.29-.1-9.44,0-7-.11-14-.14-21,0-.44-.31-1.22.79-1q.27,10.25.53,20.52l.42.26,1.63-1.82.13,0C263.8,28.45,263.28,29.13,262.89,29.88ZM275.71,41c-.29-.29-.68-.53-.85-.88-2.34-4.85-4.64-9.72-7-14.59-.15-.32-.32-.64-.62-1.23L264.53,27c1.13-2,2.2-3.79,3.19-5.64s1.91-3.73,2.86-5.59,1.61-3.79,3-5.38a8.61,8.61,0,0,1-1.76,5.91c-1.21,1.74-2.37,3.53-3.4,5.38a3.83,3.83,0,0,0,.14,3.89c2.47,4.75,4.78,9.57,7.15,14.37.12.25.23.52.34.78Z" fill="#fff"/><path d="M178.63,39.76l-1-.43c-5.57-2.34-8.56-6.49-8.81-12.54-.19-4.75,1.06-9,4.8-12.17a55.36,55.36,0,0,1,4.71-3.19,28.15,28.15,0,0,0-2-2.58c-.85-.89-1.85-1.63-2.76-2.46-1.33-1.21-2-1.33-3.54-.45a4.84,4.84,0,0,0-1.63,1.24c-1.67,2.31-3.3,4.66-4.85,7.05a11.21,11.21,0,0,0-1.38,2.93,33.37,33.37,0,0,0-.82,14.2,19.2,19.2,0,0,0,9.29,14.24,1.7,1.7,0,0,0,2.1.06q3.08-2.31,6.06-4.72C179.34,40.55,179.28,40,178.63,39.76Zm-7.09,1.58A28.26,28.26,0,0,1,164.7,29c-1-4.31-.06-8.32,1.8-12.21a23.85,23.85,0,0,1,5.06-6.88c.25-.24.73-.24,1.1-.36-.12.38-.13.85-.37,1.11a26.47,26.47,0,0,0-6.07,9.18c-2.05,5.68-.91,10.93,2.39,15.79,1.32,1.93,2.88,3.71,4.36,5.59C172.54,41.59,172.11,42,171.54,41.34Z" fill="#fff"/><path d="M147.41,17.13C146,12,142.69,9,137.16,8.92c-.95,0-1.23.29-1.22,1.25,0,6.4,0,12.8,0,19.19,0,.36,0,.71,0,1.12,4.65-.17,8-2.16,9.91-5.83C147.15,22.29,148.1,19.65,147.41,17.13Zm-3.74,2c-.35,2.86-2.79,6.53-4.47,6.65,0-.24-.08-.49-.08-.73V13.21C141.94,14.1,144,16.73,143.67,19.16Z" fill="#fff"/><path d="M196.39,3.38c-1,0-1.3.16-1.29,1.2.09,9.38.12,18.76.17,28.13,0,.29,0,.57,0,1,3.68-.25,6.94-1.29,9.26-4.12a17.13,17.13,0,0,0,3.27-16.82C206,6.9,201.92,3.66,196.39,3.38Zm3,25.25V8.28c3.69,1.08,6.16,5.11,6.1,9.85C205.42,23.19,202.83,27.69,199.39,28.63Z" fill="#fff"/><path d="M31,6.31V44.82l20.19.53v-8H50.13c-3.45.06-6.9.09-10.34.18-.91,0-1.19-.32-1.18-1.19,0-1.34-.13-2.68-.17-4,0-1,0-2.07,0-3.22l7.24.39V21.8H38.61V13.72c.81,0,1.46,0,2.1,0,3,.11,6.1.25,9.14.33.48,0,1.34.43,1.37-.54.06-2.44,0-4.89,0-7.2ZM47.13,10.7H35.58V25.22c1.94,0,3.89,0,5.83,0,.59,0,1,.1.8,1H35.54V40.83l1.18.06c3.2,0,6.39.07,9.59.15.3,0,.59.3.88.46-.28.13-.56.37-.84.37-3.71,0-7.41,0-11.12,0-.21,0-.42,0-.66,0V9.68H35.8l10.46.11C46.8,9.79,47.35,9.74,47.13,10.7Z" fill="#fff"/><path d="M224.52,10.17c-.79,0-1.06.23-1.23,1-.92,4.17-1.92,8.32-2.82,12.49-.53,2.42-.92,4.88-1.36,7.29,1.59.6,10.8.44,12.81-.27-1.2-5.87-2.34-11.73-3.62-17.55C227.66,10.18,227.54,10.24,224.52,10.17Zm-1.2,18.55c-.73-4.59,1.37-8.54,2.25-12.71H226c.83,4.1,1.65,8.2,2.51,12.48Z" fill="#fff"/><path d="M252.71,17.05a9.82,9.82,0,0,0-3.64-5.9A10.23,10.23,0,0,0,241.34,9V30.51c5.64-.39,9.24-3,10.73-7.93A13,13,0,0,0,252.71,17.05Zm-3.72,2c-.22,2.65-2.58,6.36-4.54,6.83V13.15C247.54,14.47,249.18,16.62,249,19.09Z" fill="#fff"/><path d="M89.24,6.3c-.83,0-1.1.25-1.25,1Q85.35,22,82.65,36.63l-1.05,5.6c-1.16-11.89-.6-23.78-.37-35.77H72.84a293.68,293.68,0,0,1-.32,35.72c-1.45-4.07-2.67-8.19-3.93-12.29a2.27,2.27,0,0,1,.67-2.56A11.63,11.63,0,0,0,72.74,17C72,12.06,69,8.78,64.62,6.54A3.9,3.9,0,0,0,63,6.13c-3.12,0-6.25,0-9.37,0-.35,0-.7.05-1.17.08v39l2.36-.13c1.49-.1,3-.31,4.46-.28,1.11,0,1.48-.52,1.38-1.41a21.44,21.44,0,0,0-.72-3.9,4.09,4.09,0,0,1,.33-3.83,1.53,1.53,0,0,1,1-.64c.24,0,.6.42.75.73,1.41,2.9,2.85,5.78,4.16,8.73.48,1.08,1,1.24,2,.83,1.41-.56,2.88-1,4.41-1.49,0,1,.55.94,1.21.93,4.61-.09,9.22-.2,13.83-.21a1.37,1.37,0,0,0,1.61-1.4c.31-2.15.7-4.29,1-6.44.09-.64.33-.86,1-.82,1.48.09,3,.13,4.46.16,2,.05,2,0,2.25,2.11s.42,4.38.62,6.47h8.81c-3.15-12.78-5.49-25.48-7.49-38.31C96.28,6.32,92.76,6.35,89.24,6.3ZM68.52,42.24a6.73,6.73,0,0,1-.5-.91c-1.33-3.52-2.68-7-3.93-10.58-.34-.94-.84-1.2-1.68-.94-1.8.54-3.61,1.09-5.37,1.76-.3.11-.51.83-.51,1.27,0,2.75,0,5.5.07,8.25,0,.7-.13,1.07-1,.75V8.46c3.34-.07,6.44,0,9.28,2a9.9,9.9,0,0,1,4,6.57,10.61,10.61,0,0,1-2.6,9.6A5,5,0,0,0,65.18,32c.91,2.82,2,5.57,3,8.36.21.59.4,1.19.61,1.78Zm9.11-.56c-1,.36-1-.18-1-.89,0-4.78.06-9.56.09-14.34q0-7.92.11-15.85c0-.51-.15-1.18.84-1Zm25.23.38a4,4,0,0,0-.34.23,3.33,3.33,0,0,1-.45-.88c-.45-2.75-.91-5.5-1.27-8.26-.11-.86-.4-1.14-1.28-1.13-3.74,0-7.48,0-11.22,0-.88,0-1.18.28-1.32,1.13-.42,2.6-1,5.19-1.42,7.79-.12.7-.37,1-1.16.66.53-2.58,1-5.16,1.58-7.73,1.61-7.62,3.23-15.23,4.81-22.85.18-.91.48-1.37,1.5-1.34,1.2,0,2.39-.1,3.59-.16a.8.8,0,0,1,1,.75q3,15.8,6,31.58A1.65,1.65,0,0,1,102.86,42.06Z" fill="#fff"/><path d="M213.25,12.92c-.55-2.27-1.1-4.54-2.85-6.34C207.31,3.37,203.87.77,199.28.31,196.47,0,193.64,0,190.81,0c-2,0-1.67,0-1.6,1.65.35,8.72.9,17.43.65,26.16-.18,6.51-.24,13-.35,19.55,0,.63.06,1.27.1,2l9.87-.38c0-3,.09-6,0-8.91A2.11,2.11,0,0,1,201,37.6a23.77,23.77,0,0,0,5.19-2.46,18.25,18.25,0,0,0,5.25-6C214.4,24,214.62,18.52,213.25,12.92ZM209.16,23.5a12.85,12.85,0,0,1-8,9.45c-1.83.76-3.8,1.18-6,1.84V45.58l-1.11.06v-43c3.2.22,6.34.18,9.18,2,3.88,2.46,5.66,6.05,6.23,10.43A23.88,23.88,0,0,1,209.16,23.5Z" fill="#fff"/></svg>