<svg xmlns="http://www.w3.org/2000/svg" width="280" height="164" viewBox="0 0 280 164"><path d="M90.79,15.42v9.13L106.31,15s.31,15.35-2.76,17.72-6.07-3.78-6.07-3.78l-3.93,3.54s3.87,9.57,10,9.14c7.84-.56,8.5-36.07,7.56-36.94S101.12,11.25,90.79,15.42Z" fill="#fff"/><path d="M150.88,8.49s-9.53,12.28-10.4,12.13-.39-1,.87-3.78,4.88-12.76,1.5-15.91-10.63,2.2-11.58,8.66a14.92,14.92,0,0,0,2.13,10.55s-3,5.23-4.65,2.93-.24-16.71-2.21-18S120,11.56,120,11.56l-.08-9.37L114.73.93s.63,33.23.63,32.84,4.33,0,4.33,0S118.75,17.15,121.5,17s0,14.65,3.94,15.13,9.77-8.59,9.77-8.59,1,3.47,3.15,3.47S153,12.19,153,12.19Zm-13,6.14c-1.74,2.36-3.08-1.18-2.45-4.33s2.45-3.46,2.45-3.46C139.85,6.68,139.62,12.27,137.89,14.63Z" fill="#fff"/><polygon points="6.21 115.24 21.51 135.93 18.31 139.25 0 123.06 6.21 115.24" fill="#fff"/><polygon points="36.18 111.91 34.51 103.78 12.55 111.59 15.3 118.57 22.48 116.28 28.68 134.71 33.3 132.53 30.42 113.75 36.18 111.91" fill="#fff"/><path d="M50.71,97.32l-.64,5.57s-6.46-1.94-3.77,7.22c1,3.3,3.13,6.35,7.06,6.51,3.37.13,4.84-3.94,4.84-3.94l3.46,3.08s-4.67,13.7-17.67,4C33.76,112.18,38.67,93.67,50.71,97.32Z" fill="#fff"/><polygon points="53.34 95.52 59.16 90.02 66.91 101.22 71.2 98.79 67.23 87.52 74.66 84.77 80.1 110.5 76.19 111.98 73.31 105 69.02 106.6 72.74 113.52 70.18 115.76 53.34 95.52" fill="#fff"/><polygon points="80.1 80.73 89.51 86.81 89.51 75.74 99.25 79.71 91.5 105.32 88.23 104.94 88.68 92.51 77.67 89.89 80.1 80.73" fill="#fff"/><path d="M123.9,86,126,81.82l-5.44-2.5-1.28,3.84-6.73-4.54s2.69-7-.25-9.67-9.61-1-9.41,4.23,6,7.81,6,7.81-2.75,8.39-1,12.23,5.64,4.93,8.52,3.26,5.38-6.66,5.38-6.66l4.1,2.82L128.57,88Zm-13.71-8.19a9.3,9.3,0,0,1-3.2-2.05,2.21,2.21,0,0,1,2.31-3.59C111.6,72.79,110.19,77.79,110.19,77.79ZM113.78,91c-4.29-1.28-1.6-7.11-1.6-7.11L118,87.71S117.07,92,113.78,91Z" fill="#fff"/><path d="M139.14,56.4l1.4,5.57s-7.36-.32-6.4,4,9.29,2.69,12.55,9.8-3.52,13.83-12.39,11.39l-.93-6.91s7.3,1.92,7.08-2.43-11.88-4.1-13.86-11.34S134.4,54.8,139.14,56.4Z" fill="#fff"/><path d="M161.61,53.26l-2.88,4s-3.2-3.39-5.51,2,1,13.38,4.55,13.19a6.85,6.85,0,0,0,5.18-2.5l2.44,4s-2.95,6-9.73,4.74-13.19-13.44-8.52-22.61C152.52,45.52,160.65,51.53,161.61,53.26Z" fill="#fff"/><path d="M185.17,67,178.77,62s4.48-3,3.65-9.8S174.61,43,166.16,48L168,74.46h6.47l-.39-10,5.89,7.44Zm-11.91-7.15-.32-8.54s3.78-.42,4.1,2.69A5.36,5.36,0,0,1,173.26,59.88Z" fill="#fff"/><path d="M189.27,38l-4.61,2.25,4.1,28.55,6.59-.89-2.43-8.05,4-2.33,4.42,6.28,5.57-4.42Zm2.34,18.15-1.7-9.05,5.44,6.59Z" fill="#fff"/><polygon points="215.59 56.17 211.21 36.92 214.88 34.82 212.58 27.59 196.19 38.02 199.26 43.72 204.07 40.98 211.3 58.51 215.59 56.17" fill="#fff"/><path d="M230.38,26.31l-1.6,3.9s-4.87-2-5.25,3.78,2.05,10.37,5.89,10.37S234,41.55,234,41.55l2.37,3.84s-3.52,5.63-9,4.74-12.1-6.49-10.11-18.19C219.11,20.61,229.67,24.39,230.38,26.31Z" fill="#fff"/><polygon points="231.08 19.52 238.32 16.38 241.84 29.7 246 28.74 246 16.38 253.68 16.7 250.68 43.05 246.45 43.05 245.94 34.95 242.38 35.46 242.8 43.05 239.28 44.43 231.08 19.52" fill="#fff"/><polygon points="253.68 10.3 260.79 25.54 259.7 40.07 267.39 38.86 265.91 26.5 280 15.29 276.61 8.19 264.7 21.31 260.73 7.16 253.68 10.3" fill="#fff"/><circle cx="189.33" cy="99.41" r="4.43" fill="#fff"/><path d="M216.51,105.73c-2.57,5.49-7.71,16.7-12.38,10.33,0,0,8.17-12.55,6.66-17.57s-11.56-5.31-14.36,5.34c-1.55,5.91-1,11.52,1,15.31-1.46,2.08-3.54,4.49-5.44,4.68-3.38.35-.58-15.52-.58-15.52s-4.9,4.43-7.59,4.78-7.58-2-7.58-2c3.5,7,2,20.19,0,20.89s-4-7.47-4.09-12.25-2.1-5.37-3.15-2.8c-.67,1.63-3.59,3.44-5.64,4.56-.94-.72-3.24-1.88-7.43-.59-4.85,1.48-5.93,12.61-6,17.74-.76,1.12-4.11,5.82-5.48,4-1.55-2.1,2.72-19.73-1.36-25.1s-12,5.84-12,5.84c-5.13-7.82-11.09,1.28-11.09,1.28-5.48-10-11.67,7.82-11.67,7.82l2.92,3.39s1.87-6.42,5.25-6,.35,32.57.35,32.57h4.55s1.52-33.27,5.84-33.15,2.42,12.84,2.42,12.84l3.53-.47s2.1-17,5.1-16.57-2.06,24.74,1.91,28.6,7-2.46,8.52-6.89c.69-2,1.51-2.55,2.2-2.5,1.26,3.23,3.83,6.91,7.84,6.58,5.19-.42,12.1-14.2,7.07-25.55l3.08-.48s1.29,15.29,7.36,13.19,6.18-20.31,6.18-20.31l3.85-.93s-1.63,14,6.07,12.72c3.19-.53,6-4.18,7.73-7.11a6.82,6.82,0,0,0,4.53,1.51c6.89-.23,11-7,13.42-12.72s3.39-9,5.26-9.81C223.28,101.41,219.07,100.24,216.51,105.73Zm-54.63,32.68c-.82,5.37-4.55,8.53-6.19,3s.82-15.06,3.62-15.18C163.4,126.1,162.7,133,161.88,138.41Zm40.74-27.54c-1.52.23-4.32-3,.58-8.17C205.31,100.49,204.13,110.63,202.62,110.87Z" fill="#fff"/></svg>