<svg xmlns="http://www.w3.org/2000/svg" width="340" height="39" viewBox="0 0 340 39"><path d="M12.9,8,24.09,36.56h-7l-1.41-3.63H8.46L7,36.56H0l1.37-3.63H0L2.22,27H3.76L11.23,8ZM10.59,27H13.5l-1.41-3.85Z" fill="#fff"/><path d="M49.17.9a20,20,0,0,1,6.53.91,12.24,12.24,0,0,1,8.38,12,11.14,11.14,0,0,1-4.62,9.47L64.9,35l-8.38,2.18L49.17,21.93V36.4H40.58V.9Zm0,19.64c3.81-.74,6-3.08,6-6.44,0-3.19-2.07-5.53-5-5.53h-1Z" fill="#fff"/><path d="M75.13,8.7V26.37c0,3.13.73,4.34,2.6,4.34S80.25,29.5,80.25,26V8.7h6.58V26.87a12.06,12.06,0,0,1-1,5.72c-1.46,2.93-4.36,4.56-8,4.56-4,0-7.31-2-8.59-5.18a14.33,14.33,0,0,1-.64-4.89V8.7Z" fill="#fff"/><path d="M106.74,15.63a23.58,23.58,0,0,0-6.33-1.21c-1.28,0-2.13.71-2.13,1.8a2,2,0,0,0,1,1.63,33,33,0,0,0,3.5,1.88,22.1,22.1,0,0,1,5.47,3.46,7.66,7.66,0,0,1,2.26,5.48c0,5.09-4.22,8.73-10.16,8.73a29.58,29.58,0,0,1-9.78-2L92.21,29a29,29,0,0,0,8.37,2,2.36,2.36,0,0,0,2.52-2.3c0-1.46,0-1.46-5.59-4.26C92.64,22,91,19.89,91,16.34c0-4.89,3.92-8.27,9.6-8.27a25.5,25.5,0,0,1,8.5,1.59Z" fill="#fff"/><path d="M128.69,15.63a23.45,23.45,0,0,0-6.32-1.21c-1.28,0-2.14.71-2.14,1.8a2,2,0,0,0,1,1.63,32.62,32.62,0,0,0,3.51,1.88,22.2,22.2,0,0,1,5.46,3.46,7.67,7.67,0,0,1,2.27,5.48c0,5.09-4.23,8.73-10.17,8.73a29.63,29.63,0,0,1-9.78-2L114.17,29a28.81,28.81,0,0,0,8.37,2,2.37,2.37,0,0,0,2.52-2.3c0-1.46,0-1.46-5.6-4.26-4.87-2.47-6.53-4.56-6.53-8.11,0-4.89,3.93-8.27,9.61-8.27A25.55,25.55,0,0,1,131,9.66Z" fill="#fff"/><path d="M142.65,8.7V36.56h-6.79V8.7Z" fill="#fff"/><path d="M158.63,8l11.19,28.57h-7l-1.41-3.63h-7.21l-1.46,3.63h-7l1.37-3.63h-1.41L148,27h1.54L157,8Zm-2.31,19h2.91l-1.41-3.85Z" fill="#fff"/><path d="M174.26,7.78,188.7,22.07V8.7h6.7V37.36h-1.15L179.68,22.82V36.56h-6.53V7.78Z" fill="#fff"/><path d="M229.07,0l14.25,36.4H234.4l-1.79-4.63h-9.2l-1.85,4.63h-8.87l1.74-4.63h-1.79l2.83-7.55h2L227,0Zm-2.94,24.22h3.7L228,19.32Z" fill="#fff"/><path d="M259.92,8.7l1.19,6.05h-6.83v6h7.22v6h-7.22v9.86H247.4V26.7h-1.92v-6h1.92V8.7Z" fill="#fff"/><path d="M278.41,8.7l1.2,6.05h-6.84v6H280v6h-7.22v9.86H265.9V26.7H264v-6h1.93V8.7Z" fill="#fff"/><path d="M294.47,8l11.19,28.57h-7l-1.41-3.63H290l-1.45,3.63h-7L283,32.93h-1.41L283.79,27h1.54L292.8,8Zm-2.31,19h2.91l-1.41-3.85Z" fill="#fff"/><path d="M315.78,8.7V36.56H309V8.7Z" fill="#fff"/><path d="M327.66,8.7a15.53,15.53,0,0,1,5.12.71,9.61,9.61,0,0,1,6.58,9.44,8.77,8.77,0,0,1-3.63,7.44L340,35.44l-6.58,1.71L327.66,25.2V36.56h-6.75V8.7Zm0,15.41c3-.58,4.69-2.42,4.69-5.05s-1.62-4.35-3.92-4.35h-.77Z" fill="#fff"/></svg>