<?xml version="1.0" encoding="UTF-8"?><svg id="logos" xmlns="http://www.w3.org/2000/svg" width="150" height="135" viewBox="0 0 150 135"><g><path d="M71.85,70.21c-.38-1.64-1.31-2.78-2.78-3.44-.82-.36-1.74-.54-2.75-.54-1.93,0-3.52,.73-4.76,2.19-1.24,1.46-1.86,3.65-1.86,6.57s.67,5.03,2.02,6.26,2.88,1.84,4.59,1.84,3.06-.48,4.14-1.45,1.74-2.23,1.99-3.79h-5.55v-4.01h10v12.88h-3.32l-.5-3c-.97,1.13-1.83,1.93-2.61,2.4-1.32,.81-2.95,1.22-4.88,1.22-3.18,0-5.79-1.1-7.82-3.3-2.12-2.21-3.17-5.24-3.17-9.08s1.07-7,3.21-9.34c2.14-2.34,4.97-3.51,8.48-3.51,3.05,0,5.5,.77,7.35,2.32s2.91,3.48,3.18,5.79h-4.93Z" fill="#fff"/><path d="M100.13,84.59c-1.81,1.87-4.43,2.8-7.86,2.8s-6.05-.93-7.86-2.8c-2.43-2.29-3.65-5.59-3.65-9.9s1.22-7.7,3.65-9.9c1.81-1.87,4.43-2.8,7.86-2.8s6.05,.93,7.86,2.8c2.42,2.2,3.63,5.5,3.63,9.9s-1.21,7.61-3.63,9.9Zm-3.13-3.65c1.17-1.47,1.75-3.55,1.75-6.25s-.58-4.77-1.75-6.24-2.74-2.21-4.73-2.21-3.57,.73-4.75,2.2-1.77,3.55-1.77,6.25,.59,4.79,1.77,6.25,2.77,2.2,4.75,2.2,3.56-.73,4.73-2.2Z" fill="#fff"/><path d="M107.51,62.73h5.26l9.53,16.73v-16.73h4.67v24h-5.01l-9.77-17.03v17.03h-4.67v-24Z" fill="#fff"/><path d="M149.41,66.97h-12.7v5.1h11.66v4.17h-11.66v6.17h13.29v4.31h-18.19v-24h17.6v4.25Z" fill="#fff"/></g><path d="M19.04,74.1c.68-.98,1.79-1.95,3.34-2.9l.48-.29c-.66-.74-1.17-1.5-1.53-2.27-.36-.77-.54-1.58-.54-2.41,0-1.66,.56-2.96,1.69-3.89,1.13-.93,2.59-1.4,4.38-1.4,1.64,0,2.99,.48,4.06,1.43,1.07,.96,1.6,2.18,1.6,3.67,0,1.34-.32,2.43-.96,3.27-.64,.84-1.58,1.61-2.82,2.32l3.27,3.97c.38-.54,.66-1.12,.87-1.75,.2-.63,.31-1.29,.32-1.99h3.91c-.07,1.38-.41,2.78-1,4.2-.33,.8-.86,1.67-1.6,2.63l4.13,4.94h-5.33l-1.58-1.93c-.77,.71-1.49,1.24-2.15,1.58-1.19,.61-2.56,.92-4.11,.92-2.33,0-4.15-.68-5.47-2.04-1.31-1.36-1.97-2.87-1.97-4.53,0-1.37,.34-2.54,1.02-3.52Zm4.3,5.45c.62,.63,1.42,.94,2.4,.94,.73,0,1.43-.17,2.08-.5,.66-.33,1.19-.7,1.6-1.11l-4.26-5.19c-1.12,.73-1.85,1.38-2.21,1.93s-.54,1.17-.54,1.84c0,.75,.31,1.44,.94,2.07Zm1.94-12.2c.19,.3,.61,.83,1.25,1.59,.64-.43,1.1-.8,1.38-1.1,.53-.56,.8-1.16,.8-1.81,0-.47-.16-.9-.48-1.27s-.81-.56-1.46-.56c-.41,0-.79,.11-1.14,.33-.53,.32-.8,.83-.8,1.52,0,.41,.15,.85,.45,1.3Z" fill="#fff"/><g><path d="M80.77,56.1h-5.37V30.25h5.37v25.85Z" fill="#fff"/><path d="M83.45,40.72v-3.56h2.67v-5.33h4.95v5.33h3.1v3.56h-3.1v10.1c0,.78,.1,1.27,.3,1.46,.2,.19,.81,.29,1.82,.29,.15,0,.31,0,.48,0,.17,0,.34-.01,.5-.03v3.74l-2.37,.09c-2.36,.08-3.98-.33-4.84-1.23-.56-.57-.84-1.46-.84-2.65v-11.77h-2.67Z" fill="#fff"/></g><g><path d="M14.85,28.18c.29,.02,.68,.05,1.18,.09v4.55c-.31-.04-.84-.07-1.58-.09-.74-.02-1.25,.14-1.53,.49-.28,.35-.42,.73-.42,1.15v1.81h3.67v3.94h-3.67v39.83l-5.55-4.03V40.12H3.8v-3.94h3.06v-1.37c0-2.29,.39-3.87,1.16-4.73,.81-1.28,2.77-1.92,5.87-1.92,.35,0,.67,0,.96,.03Z" fill="#fff"/><path d="M25.09,57.37h-5.59V28.45h5.59v28.92Z" fill="#fff"/><path d="M36.29,33.43h-5.67v-5.16h5.67v5.16Zm-5.67,2.55h5.67v21.39h-5.67v-21.39Z" fill="#fff"/><path d="M59.7,38.28c1.74,1.84,2.62,4.55,2.62,8.12,0,3.77-.85,6.64-2.56,8.61-1.71,1.98-3.9,2.96-6.59,2.96-1.71,0-3.13-.43-4.27-1.28-.62-.47-1.22-1.16-1.82-2.06v20.2l-5.53-3.75V35.98h5.36v3.16c.61-.93,1.25-1.66,1.94-2.2,1.25-.95,2.74-1.43,4.46-1.43,2.51,0,4.64,.92,6.39,2.77Zm-4.29,4.02c-.76-1.27-1.99-1.9-3.7-1.9-2.05,0-3.46,.96-4.22,2.88-.4,1.02-.59,2.32-.59,3.89,0,2.49,.67,4.23,2,5.24,.79,.59,1.73,.88,2.82,.88,1.57,0,2.77-.6,3.6-1.81,.83-1.2,1.24-2.81,1.24-4.81,0-1.65-.38-3.11-1.14-4.38Z" fill="#fff"/></g><rect x="12.33" y="0" width="2.84" height="23.81" fill="#fff"/><rect x="128.97" y=".18" width="2.84" height="57.19" fill="#fff"/><rect x="71.36" y="-57.61" width="2.84" height="118.06" transform="translate(74.2 -71.36) rotate(90)" fill="#fff"/><rect x="95.44" y="1.42" width="13.06" height="22.39" fill="#fff"/><g><polygon points="1.69 76.86 0 79.14 33.46 104.82 35.15 102.54 1.69 76.86" fill="#fff"/><polygon points="47.12 112.35 47.1 115.77 72.26 134.16 73.95 131.88 47.12 112.35" fill="#fff"/><polygon points="127.28 88.07 128.97 90.35 72.46 134.16 70.77 131.88 127.28 88.07" fill="#fff"/><rect x="32.4" y="102.62" width="2.75" height="30.5" fill="#fff"/><rect x="32.9" y="130.84" width="17.06" height="2.27" fill="#fff"/><polygon points="47.1 133.12 47.1 114.5 49.96 116.2 49.96 133.12 47.1 133.12" fill="#fff"/></g></svg>