<svg xmlns="http://www.w3.org/2000/svg" width="300" height="81" viewBox="0 0 300 81"><path d="M15.85,29a14.14,14.14,0,0,1-4.51.64,10.28,10.28,0,0,1-4.77-1.08,10.16,10.16,0,0,1-3.55-3A14,14,0,0,1,.78,20.93a21.8,21.8,0,0,1-.78-6A22,22,0,0,1,.78,8.85,14.83,14.83,0,0,1,3,4.13a10.22,10.22,0,0,1,3.45-3A9.34,9.34,0,0,1,10.94,0a10.69,10.69,0,0,1,4.82,1,8.67,8.67,0,0,1,3,2.45L15.34,8.11a4.62,4.62,0,0,0-3.94-2,3.74,3.74,0,0,0-2.28.7,5.6,5.6,0,0,0-1.61,1.9,9.84,9.84,0,0,0-.94,2.79,18.46,18.46,0,0,0-.3,3.4,19.3,19.3,0,0,0,.28,3.39,9.9,9.9,0,0,0,.9,2.8A5.64,5.64,0,0,0,9,23a3.64,3.64,0,0,0,2.27.72,3.71,3.71,0,0,0,2.25-.6V17.85h-3V12.3h8.63V27.36A11.11,11.11,0,0,1,15.85,29Z" fill="#fff"/><path d="M41.63,23a10,10,0,0,1-1.69,3.56,8.07,8.07,0,0,1-3,2.39,10.12,10.12,0,0,1-4.43.88,9.84,9.84,0,0,1-4.39-.88,7.94,7.94,0,0,1-2.94-2.39A9.63,9.63,0,0,1,23.54,23a18.49,18.49,0,0,1-.5-4.39V.76h6.43V18a17.36,17.36,0,0,0,.14,2.24,6,6,0,0,0,.5,1.77,3.05,3.05,0,0,0,1,1.18,3,3,0,0,0,3.12,0,3.12,3.12,0,0,0,1-1.18,5.69,5.69,0,0,0,.5-1.77A15.74,15.74,0,0,0,35.78,18V.76h6.39V18.57A17,17,0,0,1,41.63,23Z" fill="#fff"/><path d="M66.21,29l.24-19.41h-.16L61.54,29H57L52.44,9.62h-.12L52.52,29H46.73V.76h8.06L59.35,19h.15L63.94.76h8.54V29Z" fill="#fff"/><path d="M95.29,21a8.8,8.8,0,0,1-.74,3.81,6.82,6.82,0,0,1-1.94,2.48,7.83,7.83,0,0,1-2.69,1.35,11.17,11.17,0,0,1-3,.42H77.52V.76H86a14.84,14.84,0,0,1,2.8.28A7.43,7.43,0,0,1,91.47,2.1a6.15,6.15,0,0,1,2,2.21A7.43,7.43,0,0,1,94.33,8a7,7,0,0,1-1,4,6.08,6.08,0,0,1-2.49,2.18v.08a5.1,5.1,0,0,1,1.59.72,6,6,0,0,1,1.44,1.33,6.87,6.87,0,0,1,1,2A8.23,8.23,0,0,1,95.29,21ZM88.7,9a2.74,2.74,0,0,0-.92-2.33A3.54,3.54,0,0,0,85.62,6H83.47v6.15h2.19a3.36,3.36,0,0,0,2.1-.72A2.86,2.86,0,0,0,88.7,9Zm.52,11.35a4,4,0,0,0-.3-1.63,3.05,3.05,0,0,0-.8-1.08A3.44,3.44,0,0,0,87,17.05a4,4,0,0,0-1.22-.2H83.47v6.91h2.39a3.53,3.53,0,0,0,2.38-.84A3.17,3.17,0,0,0,89.22,20.39Z" fill="#fff"/><path d="M99.24,29V.76H112.9V6.39h-7.55v5.55h7v5.27h-7v6.07h8V29Z" fill="#fff"/><path d="M117.13,29V.76h6.47V23.12h7.55V29Z" fill="#fff"/><path d="M157.51,8.55a9,9,0,0,1-.36,2.59,11.46,11.46,0,0,1-1,2.28,17.26,17.26,0,0,1-1.36,2.08c-.5.66-1,1.3-1.55,1.91L148,23.52h9.15V29H140.42V23.36L149,13.5A11.1,11.1,0,0,0,150.64,11a5.59,5.59,0,0,0,.6-2.41,3.82,3.82,0,0,0-.58-2.12,2,2,0,0,0-1.82-.88,2.37,2.37,0,0,0-1.92.94A5,5,0,0,0,146,9.31l-6-.56A9.54,9.54,0,0,1,143,2.3,8.93,8.93,0,0,1,149,.16a9.73,9.73,0,0,1,3.52.6,7.69,7.69,0,0,1,2.65,1.68,7.25,7.25,0,0,1,1.7,2.63A9.63,9.63,0,0,1,157.51,8.55Z" fill="#fff"/><path d="M184.7,29a14.14,14.14,0,0,1-4.51.64,10.28,10.28,0,0,1-4.77-1.08,10.16,10.16,0,0,1-3.55-3,14,14,0,0,1-2.24-4.65,21.8,21.8,0,0,1-.78-6,22,22,0,0,1,.78-6.05,14.83,14.83,0,0,1,2.22-4.72,10.13,10.13,0,0,1,3.45-3A9.34,9.34,0,0,1,179.79,0a10.62,10.62,0,0,1,4.81,1,8.62,8.62,0,0,1,3.06,2.45l-3.47,4.68a4.62,4.62,0,0,0-3.94-2,3.74,3.74,0,0,0-2.28.7,5.6,5.6,0,0,0-1.61,1.9,9.54,9.54,0,0,0-.94,2.79,18.46,18.46,0,0,0-.3,3.4,19.3,19.3,0,0,0,.28,3.39,9.9,9.9,0,0,0,.9,2.8A5.64,5.64,0,0,0,177.87,23a3.64,3.64,0,0,0,2.27.72,3.71,3.71,0,0,0,2.25-.6V17.85h-3V12.3H188V27.36A11.11,11.11,0,0,1,184.7,29Z" fill="#fff"/><path d="M210.48,23a10,10,0,0,1-1.69,3.56,8.07,8.07,0,0,1-3,2.39,10.12,10.12,0,0,1-4.43.88,9.92,9.92,0,0,1-4.4-.88A8,8,0,0,1,194,26.52,9.63,9.63,0,0,1,192.39,23a18.49,18.49,0,0,1-.5-4.39V.76h6.43V18a17.36,17.36,0,0,0,.14,2.24A6,6,0,0,0,199,22a3.05,3.05,0,0,0,1,1.18,3,3,0,0,0,3.12,0A3.12,3.12,0,0,0,204,22a5.69,5.69,0,0,0,.5-1.77,15.74,15.74,0,0,0,.14-2.24V.76H211V18.57A17,17,0,0,1,210.48,23Z" fill="#fff"/><path d="M235.06,29l.24-19.41h-.16L230.39,29h-4.51L221.29,9.62h-.12l.2,19.41h-5.79V.76h8.06L228.19,19h.16L232.79.76h8.54V29Z" fill="#fff"/><path d="M264.14,21a8.8,8.8,0,0,1-.74,3.81,6.82,6.82,0,0,1-1.94,2.48,7.83,7.83,0,0,1-2.69,1.35,11.17,11.17,0,0,1-3,.42h-9.38V.76h8.46a14.84,14.84,0,0,1,2.8.28,7.43,7.43,0,0,1,2.69,1.06,6.15,6.15,0,0,1,2,2.21A7.43,7.43,0,0,1,263.18,8a7,7,0,0,1-1,4,6,6,0,0,1-2.5,2.18v.08a5,5,0,0,1,1.6.72,6,6,0,0,1,1.44,1.33,6.87,6.87,0,0,1,1,2A8.23,8.23,0,0,1,264.14,21ZM257.55,9a2.74,2.74,0,0,0-.92-2.33A3.54,3.54,0,0,0,254.47,6h-2.15v6.15h2.19a3.38,3.38,0,0,0,2.1-.72A2.86,2.86,0,0,0,257.55,9Zm.52,11.35a4,4,0,0,0-.3-1.63,3.05,3.05,0,0,0-.8-1.08,3.44,3.44,0,0,0-1.12-.63,4,4,0,0,0-1.22-.2h-2.31v6.91h2.39a3.53,3.53,0,0,0,2.38-.84A3.17,3.17,0,0,0,258.07,20.39Z" fill="#fff"/><path d="M268.09,29V.76h13.66V6.39H274.2v5.55h6.95v5.27H274.2v6.07h8V29Z" fill="#fff"/><path d="M286,29V.76h6.47V23.12H300V29Z" fill="#fff"/><path d="M79.78,54.86s8.08-5,8.11-9.71c0-4-24.11.14-24.11,3.32s5.86,2.23,5.5-.15c0,0,13.73-3.67,13.32-.79s-5.89,3.87-3.66.49l-2.6.48-2.29,4.14a28.31,28.31,0,0,0-7.94,3.62c-3.53,2.47-1.5,2.73-.44,2.73h1.76L61.7,72.31s-8.82,2.56-11.82,3.79-4.14,2.91-.44,3.27,14.9-2.56,14.9-2.56,1.42,1.15,2,.79,1.41-2.82,1.41-2.82,19.38-6.54,22-12S87,55.3,79.78,54.86Zm7.32,5.81c-.79,3.44-15.79,8.11-16.32,7.41s5.47-10.14,5.47-10.14S87.89,57.23,87.1,60.67Z" fill="#fff"/><path d="M93.26,58.28s-4,10.81-5.08,13.46.81,2.81,2.54,2.59l4.86-.59s2.54-.87,2.81-2.81-1.46-1.14-2.48-.7-4.11,2-3.46,0a36.79,36.79,0,0,1,1.3-3.52l4.67-1.4V63S96.77,63,96,63s-.38-1.48,1.41-2.51,2.37-1.68,2.64-1.19a11.78,11.78,0,0,1,.54,1.19l3.89-1.41a14.16,14.16,0,0,0,0-3.83c-.32-1.14-1.08-1.3-3.51-.87S94.34,55.39,93.26,58.28Z" fill="#fff"/><path d="M125.42,63s-3.3-3.16-5.83-.29-2.06,7.83.86,8.26,3.08-1.19,4-1.08,1.35,2.65-.54,3.19-6.75,1.62-8.48-3.89,5.86-15.13,9-13.83C127,56.45,125.42,63,125.42,63Z" fill="#fff"/><path d="M133.29,62.72h3s2.22-9.35,3.13-9.35,4.33.59,4.33,1.4-2.22,7.95-2.22,7.95h2.43L142.64,67l-4,1.51s-.89,3.35-1.27,3.62-2.27.7-2.38-.27a14.73,14.73,0,0,1,.49-3.3s-3.78-.81-4.59.06-.65,4.27-2.11,4.16-2.41,0-2.12-1.57.93-4.77.93-4.77l-.93-1.27.61-2.87,1-.44s.71-5.61,2.71-6.32,2.81.26,2.81,2A48.88,48.88,0,0,1,133.29,62.72Z" fill="#fff"/><path d="M156.85,53.37l-6.59.27s-4.71-3.68-4.06-6.11a129.39,129.39,0,0,1,16.86-1.46c9.13-.16,17.89.6,17.89.6s.64,2.75-1.19,3.56-14,2.71-14,2.71,5,10.86,2.81,14.85-13.86,6.63-21.42,6.31c-7.06-.3-.19-11.22,2.13-11s3.94,4.76,9.51,4.81,8.37.6,7.13-2.32A27.76,27.76,0,0,0,156.85,53.37Z" fill="#fff"/><path d="M175.32,55l2.59,4.11s-5.62,6.16-3.51,8.81,8.1-12,8.1-12l3.73,2.54s-5.51,16.34-12,15.68S170.51,59.85,175.32,55Z" fill="#fff"/><path d="M193,61.15s3.52-4.59,2.71-5.73-5.68-.92-7.84,2.86,1.24,5.35,1.24,6.87-6.43,3.62-6.32,5.45,5.14,2.16,8.43-.75-2.16-7.74-.86-9.76S193,61.15,193,61.15Z" fill="#fff"/><path d="M196.88,57,198,62l2-.33a8.8,8.8,0,0,1-1.24,4.44c-1.41,2.64-3.13,4.86-.33,5.34s8.38-5.89,9-9.13c0,0,5.84-1.2,5.84-2.19s.37-5.23-1-5.27S196.88,57,196.88,57Z" fill="#fff"/><path d="M218.92,55.8S222,58.93,222,59.74s-7.94,12.65-8.7,12.7-3.78-2.54-3.08-4.48S218.92,55.8,218.92,55.8Z" fill="#fff"/><path d="M233.47,57,234,63.6s-6.16-.11-6.22,3.89,5.08,2.65,5.08,2.65l-.81,2.06s-10.81,1.07-10.86-6.06S233.47,57,233.47,57Z" fill="#fff"/><path d="M241.3,57.39s-5.94,12.26-6.7,14.23,1.62,3.44,5.46,2.84a15,15,0,0,0,5.67-1.83L247,69.22s-5.6.68-5.56,0,2.52-2.71,5.81-3.14c0,0,1.05-2.41.29-2.72s-3.67.4-3.62-.74,3.9-1.8,6.81-1.62c1.73.11,2.59-4.8,2-5S243.84,55.23,241.3,57.39Z" fill="#fff"/><path d="M114.57,64.29a7.61,7.61,0,0,1-1.43-.6s-1.56-5.52-2.37-5.81-3-.57-3.68.4-6,8-7.13,11.08-.59,3.46.38,3.46H104l.63-2,4.5-1,1,2.16,3.4,0V68.77s1.25-.54,1.25-.87S115.11,64.4,114.57,64.29Zm-7.64,2.15c-.59-.21,1.68-3.73,1.68-3.73l1.4,3.14S107.52,66.66,106.93,66.44Z" fill="#fff"/></svg>