<svg xmlns="http://www.w3.org/2000/svg" width="250" height="76" viewBox="0 0 250 76"><g fill="#fff"><path d="M19.53.17c2.85-.05 5.83.1 8.82.27.6.03 1.19.11 1.77.29 1.96.61 3 2.03 3.44 3.95.43 1.88.36 3.77.03 5.67-.56 3.28-1.42 6.48-2.79 9.52-1.57 3.46-3.75 6.45-6.68 8.89-2.78 2.31-5.95 3.54-9.6 3.65-3.81.12-7.62.01-11.43.09-.71.01-1.42.05-2.12.05-.94 0-1.12-.25-.85-1.13.87-2.83 1.75-5.66 2.61-8.5 1.33-4.38 2.65-8.76 3.98-13.14.88-2.92 1.77-5.84 2.65-8.76q.23-.75 1-.76c3.01-.03 6.02-.12 9.18-.08zm3.18 14.35c-.02-.26-.02-.53-.05-.79-.19-1.48-1.06-2.56-2.48-2.82-.86-.16-1.71-.17-2.58-.09-.86.08-.88.08-1.14.92l-2.19 7.17c-.34 1.1-.69 2.2-1.02 3.3-.1.32-.2.67.27.81 1.43.42 2.85.51 4.18-.28 3.11-1.85 4.68-4.65 5-8.21zM136.69 18.76c.45-.03.52-.4.66-.68l4.77-9.93c1.19-2.47 2.38-4.94 3.56-7.42.16-.33.33-.52.74-.52 3.1.02 6.2.02 9.3.03.15 0 .32-.04.46.16-.1.53-.43 1.01-.68 1.52-3.91 7.84-7.83 15.67-11.75 23.51-1.04 2.08-2.09 4.15-3.11 6.23-.2.4-.44.59-.91.59-4.54-.04-9.08-.05-13.62-.07-.17 0-.35-.02-.49-.02-.2-.2-.14-.4-.12-.59.37-4.54.74-9.09 1.1-13.63.37-4.59.72-9.18 1.09-13.76.09-1.15.19-2.29.28-3.44.05-.62.16-.72.78-.72 3.03.03 6.07.07 9.1.11.67 0 .69.02.62.68-.28 2.66-.57 5.32-.85 7.98-.34 3.15-.68 6.29-1.01 9.44-.02.17-.08.35.08.55zM243.48 9.92c.1.17.01.34-.04.5l-5.82 19.8c-.19.64-.39 1.27-.56 1.91-.08.31-.24.44-.56.43-1.97-.06-3.94-.1-5.91-.16-.06 0-.12-.04-.17-.06-.16-.2-.06-.4-.01-.58.63-2.58 1.27-5.15 1.9-7.73.06-.24.19-.49.03-.77-.37 0-.43.32-.55.52-1.62 2.74-3.25 5.48-4.85 8.23-.24.41-.5.55-.96.51-.66-.07-1.33-.07-1.99-.12-.64-.04-.66-.07-.63-.72.09-2.65.2-5.31.28-7.96.01-.34.08-.7-.06-1.07-.31.05-.35.28-.41.48-.95 2.92-1.89 5.85-2.84 8.77-.22.68-.23.69-.92.69-1.68-.01-3.37-.03-5.05-.05-.18 0-.36.02-.52-.08-.15-.22 0-.42.06-.62 1.34-4.63 2.68-9.26 4.03-13.89.74-2.55 1.52-5.08 2.26-7.64.14-.47.35-.63.83-.62 2.59.05 5.18.06 7.77.09.68 0 .72.05.67.72l-.48 7.22c0 .11-.02.22-.02.33 0 .15-.04.33.17.38.2.05.27-.1.35-.24.57-.97 1.14-1.94 1.72-2.92 1.01-1.71 2.03-3.43 3.03-5.15.18-.31.37-.5.78-.49 2.7.06 5.4.1 8.1.15.13 0 .27-.01.37.11zM60.28 23.99c-.35.72-.51 1.47-.74 2.2-.59 1.88-1.14 3.77-1.71 5.65-.21.69-.22.69-.98.69-1.71 0-3.41.01-5.12.02-1.12 0-1.16-.05-.85-1.11l5.16-17.22c.39-1.29.79-2.58 1.15-3.88.14-.48.39-.69.9-.69 1.93.02 3.85.02 5.78 0 .43 0 .62.14.71.58.46 2.41.95 4.82 1.43 7.22.04.21.05.45.29.57.27-.06.29-.31.36-.5.8-2.35 1.59-4.69 2.38-7.04.28-.84.3-.85 1.17-.85h4.58c.24 0 .49-.04.72.07.14.17.03.34-.01.5-1.04 3.66-2.08 7.32-3.13 10.98-.97 3.4-1.95 6.8-2.93 10.2-.06.21-.13.42-.19.64-.11.37-.36.54-.74.53-1.73-.03-3.45-.06-5.18-.08-.43 0-.61-.23-.71-.63-.63-2.44-1.28-4.88-1.92-7.32-.05-.21-.05-.45-.42-.54zM54.72 56.21c-2.65.05-5.26-.31-7.78-1.1-1.41-.45-2.69-1.14-3.36-2.58-.11-.24-.22-.5-.24-.75-.11-1.39-.16-2.78.44-4.09.89-1.96 1.98-3.79 3.49-5.35 1.63-1.68 3.48-3.07 5.65-3.99 1.88-.8 3.85-1.29 5.87-1.54 2.6-.31 5.21-.33 7.81 0 1.64.21 3.28.45 4.9.81.04 0 .09.02.13.03.77.21.86.38.52 1.13-.21.46-.44.91-.68 1.37-.56 1.1-1.14 2.2-1.69 3.3-.35.7-.65.88-1.41.67-1.1-.3-2.22-.48-3.34-.68-1.38-.25-2.7-.12-4.06.01-1.52.15-2.94.52-4.29 1.19-1.53.76-2.78 1.81-3.36 3.49-.5 1.43.02 2.67 1.48 3.09.21.06.43.12.65.16 1.36.23 1.89-.02 2.46-1.28.47-1.05 1.03-2.06 1.41-3.15.23-.66.57-.87 1.27-.82 2.3.18 4.6.08 6.91.11h.33c.58.04.71.25.47.77-.43.97-.88 1.93-1.3 2.91-.56 1.32-1.25 2.58-1.73 3.93-.23.66-.69 1.02-1.37 1.22-1.45.42-2.94.65-4.43.85-1.58.2-3.17.32-4.77.28zM200.91 33.28c-.57-.04-1.15-.05-1.72-.11-3.57-.37-5.34-3.32-5.71-5.85-.27-1.89.03-3.71.59-5.5 1.11-3.56 2.82-6.79 5.5-9.42 2.97-2.9 6.52-4.02 10.6-3.15 3.61.76 5.65 3.5 5.36 7.07-.41 5.14-2.22 9.73-5.92 13.44-2.35 2.35-5.27 3.47-8.7 3.53zm6.27-12.34c-.02-1.08-.26-1.9-1.08-2.4-.85-.51-1.72-.35-2.52.14-1.51.93-2.32 2.31-2.28 4.09.04 1.83 1.6 2.8 3.25 2.01 1.67-.79 2.46-2.21 2.63-3.84zM178.96 33.2c-.77.04-1.62-.1-2.47-.26-2.71-.52-4.6-3.12-4.91-5.63-.28-2.23.2-4.36.91-6.45 1.18-3.5 3-6.6 5.8-9.05 2.67-2.33 5.75-3.41 9.32-2.89 3.4.49 5.7 2.98 5.9 6.41.1 1.79-.25 3.52-.7 5.24-.88 3.35-2.36 6.38-4.82 8.87-2.48 2.52-5.37 3.73-9.02 3.75zm6.25-12.32c-.01-1.11-.25-1.97-1.14-2.47-.84-.48-1.69-.31-2.46.17-1.45.91-2.24 2.26-2.24 3.98 0 2.06 1.79 3.05 3.56 2 1.44-.86 2.13-2.19 2.28-3.68zM88.11 18.05c.27 0 .3-.21.36-.4.84-2.52 1.69-5.03 2.54-7.55.22-.67.23-.68.94-.65 1.7.05 3.41.12 5.11.18.11 0 .22.03.31.05.19.23.07.44.01.64-1.57 5.3-3.15 10.6-4.72 15.9-.57 1.91-1.14 3.81-1.67 5.73-.13.47-.36.63-.84.63-1.48 0-2.97.02-4.45.08-.51.02-.75-.18-.92-.64-.84-2.35-1.7-4.7-2.55-7.05-.08-.23-.12-.47-.35-.62-.26.02-.29.24-.36.42-.58 1.67-1.14 3.35-1.67 5.03-.22.69-.47 1.38-.68 2.08-.13.43-.33.6-.8.59-1.68-.03-3.37 0-5.05-.02-.73 0-.81-.1-.59-.83l2.34-7.82c1.36-4.56 2.73-9.11 4.06-13.68.14-.46.35-.58.79-.58 1.88.01 3.76 0 5.65 0 .73 0 .75 0 .89.75.47 2.39.92 4.78 1.39 7.17.04.2-.01.46.23.58zM167.52 32.45h-2.91c-1.48.01-2.97.02-4.45.07-.47.02-.67-.18-.79-.6-.49-1.59-1-3.16-1.51-4.74 0-.02 0-.04-.02-.06-.11-.22-.07-.6-.4-.63-.38-.03-.32.37-.39.59-.51 1.53-1.02 3.06-1.5 4.61-.14.47-.39.62-.86.62-1.9 0-3.81.03-5.72.04-.76 0-.84-.08-.62-.8.66-2.16 1.34-4.31 2.01-6.46 1.5-4.79 3-9.59 4.49-14.38.05-.15.11-.29.14-.44.09-.46.37-.57.81-.57 4.23 0 8.46-.08 12.69-.01 2.43.04 3.78 1.56 3.92 3.76.24 3.88-2.19 7.68-5.86 9.09-1.68.65-1.27.81-.97 1.97l1.92 7.32c.04.15.1.3-.01.62zm-5.9-17.09v-.02c-.31.02-.62.05-.93.05-.37 0-.55.17-.65.52-.33 1.26-.69 2.51-1.03 3.77-.18.67.02.94.74.99.82.06 1.63-.07 2.41-.33 1.24-.41 1.9-1.33 2.17-2.55.31-1.42-.39-2.32-1.85-2.44-.29-.02-.57 0-.86 0zM46.16 9.63h4.72c.67 0 .69.03.62.67l-1.77 16.43c-.18 1.65-.36 3.3-.56 4.95-.07.62-.11.65-.75.66l-5.71.09c-.65 0-.69-.03-.64-.67.04-.6 0-1.2.13-1.78.08-.36-.09-.48-.43-.48-1.51.01-3.01.02-4.52.02-.36 0-.5.22-.62.49-.26.59-.53 1.17-.77 1.76-.14.35-.34.52-.74.53-1.75.04-3.5.12-5.25.18-.73.02-.82-.11-.49-.74 2.3-4.46 4.62-8.92 6.92-13.38 1.39-2.69 2.79-5.38 4.16-8.09.24-.47.49-.68 1.06-.67 1.55.05 3.1.02 4.65.02v.03zm-2.7 6.75c-.27.08-.36.28-.46.48-.22.43-.45.86-.69 1.29-.83 1.54-1.67 3.07-2.49 4.62-.27.5-.2.61.37.63.86.03 1.73.05 2.59.07.62.01.69-.05.7-.67.03-1.86.06-3.72.08-5.58 0-.26.08-.53-.11-.83zM74.67 56.76h9.24c.16 0 .31-.01.46 0 .49.06.66.34.46.78-.4.89-.8 1.77-1.21 2.65-.28.58-.46 1.19-.79 1.75-.22.37-.5.55-.91.53-.95-.03-1.9.01-2.85-.07-.9-.07-1.82-.02-2.72-.03-1.55 0-3.1.01-4.65 0-.53 0-.95.11-1.22.61-.16.29-.4.53-.56.82-.32.57-.11 1.02.54 1.1.53.06 1.06.07 1.59.02 2.04-.18 4.07.09 6.11.03.48-.01.6.21.41.64-.58 1.32-1.18 2.62-1.75 3.94-.21.47-.52.64-1.03.64-2.59-.02-5.18.02-7.78-.02-.68 0-1.02.19-1.29.83-.45 1.07-1.06 2.08-1.55 3.14-.21.46-.52.6-.99.6h-5.84c-.57 0-1.14.13-1.72 0-.6-.13-.79-.43-.53-.99 1.46-3.05 2.93-6.09 4.37-9.15.51-1.09 1-2.2 1.52-3.28.63-1.29 1.18-2.62 1.88-3.87.3-.53.85-.67 1.42-.68H74.65zM99.12 32.19c.31-1 .63-2.04.96-3.09.25-.8.5-1.61.76-2.4.11-.33.09-.65.06-.98-.5-4.4-1-8.79-1.49-13.19-.08-.73-.14-1.45-.24-2.18-.06-.4.08-.58.49-.58 2.28 0 4.56.01 6.84.01.42 0 .57.18.56.61-.03 1.92-.04 3.85-.05 5.78 0 .24-.12.55.24.68.31-.12.37-.43.51-.67 1.12-2.01 2.23-4.02 3.32-6.05.23-.43.5-.59.99-.57 1.84.06 3.68.08 5.51.12.17 0 .35-.04.51.08.09.2-.05.33-.14.48-2.89 4.43-5.72 8.9-8.68 13.28-1.1 1.63-1.75 3.4-2.3 5.25-.32 1.06-.66 2.11-.97 3.17-.09.29-.23.46-.56.46h-6.05c-.09 0-.17-.03-.27-.18zM146.76 57.02h3.92c.89 0 .98.1.63.88-.64 1.45-1.33 2.89-1.98 4.33-.82 1.81-1.64 3.62-2.44 5.44-.18.41-.09.56.38.6.44.04.88.03 1.33.03h4.78c.87 0 1.01.16.66.91-.83 1.8-1.72 3.58-2.56 5.38-.2.44-.52.58-.94.59-1.22 0-2.44.02-3.65-.02-.8-.02-1.59-.08-2.39.02-.51.06-1.01-.06-1.52-.06H134.34c-.47-.03-.56-.16-.39-.58.14-.37.32-.73.49-1.09 1.02-2.2 2.08-4.39 3.07-6.61.76-1.69 1.6-3.34 2.38-5.02.65-1.4 1.3-2.8 1.97-4.2.2-.43.47-.59.92-.58 1.33.01 2.66 0 3.99 0zM180.23 72.14c-.39.2-.61.47-.73.81-.33.92-.9 1.71-1.33 2.58-.17.34-.47.5-.87.49-1.62-.01-3.23 0-4.85-.02-.57 0-.79-.33-.48-.81 1.06-1.67 1.69-3.54 2.67-5.25.28-.5.5-1.03.71-1.56.56-1.46 1.35-2.82 2-4.23.15-.32.47-.52.86-.52 1.79 0 3.59 0 5.38-.02.32 0 .47.16.6.42.37.76.6 1.57.87 2.36.08.23.14.47.26.68.23.44.53.44.76 0 .43-.82.88-1.63 1.22-2.49.32-.8.82-1.1 1.67-1.07 1.28.05 2.56 0 3.85-.1.89-.06 1.04.24.64 1.01-.78 1.53-1.53 3.08-2.31 4.61-1.01 2.01-2.03 4.02-3.04 6.03-.07.14-.13.28-.18.42-.12.31-.33.44-.66.43-1.39-.02-2.79-.04-4.19-.03-.78 0-1.18-.43-1.47-1.07-.38-.82-.79-1.61-1.19-2.42-.04-.08-.1-.14-.19-.26zM66.57 54.46c.03-.39.29-.63.49-.88 1.52-1.84 3.05-3.67 4.57-5.5 1.41-1.7 2.81-3.4 4.21-5.11.27-.33.59-.5 1.03-.5h8.17c.58 0 .68.15.6.73-.23 1.88-.69 3.73-.95 5.61-.22 1.59-.63 3.16-.76 4.77-.06.71-.22.83-.92.83-1.31 0-2.61 0-3.92-.01-.72 0-.81-.07-.86-.77-.03-.38-.19-.53-.56-.58-1.19-.15-2.39-.08-3.58-.11-.37 0-.6.21-.69.52-.3 1.03-1.06 1.22-2 1.2-1.35-.03-2.7 0-4.05 0-.26 0-.54.04-.78-.2zm12.69-8.27c-.66.43-1.07 1.1-1.52 1.71-.36.5-.88.88-1.12 1.47-.15.39-.07.56.33.58.57.03 1.15.02 1.72.02.38 0 .55-.2.54-.59-.02-.84.14-1.67.21-2.5.02-.24.06-.48-.18-.69zM91.09 62.89h3.79c.89 0 .96.14.84 1.02-.23 1.68-.56 3.35-.82 5.03-.26 1.68-.55 3.35-.81 5.03-.11.7-.22.81-.94.81h-3.79c-.7 0-.85-.09-.9-.76-.04-.48-.29-.63-.67-.64-1.19-.02-2.39-.08-3.58.06-.35.04-.51.26-.62.52-.25.66-.72.84-1.4.85-1.52.02-3.05.12-4.57.2-.22.01-.46.05-.58-.2-.11-.23.02-.41.17-.59 1.94-2.34 3.9-4.67 5.8-7.03.86-1.06 1.76-2.08 2.55-3.21.51-.73 1.18-1.23 2.22-1.12 1.1.11 2.21.02 3.32.02v.02zm-1.7 3.84c-.29.07-.44.26-.6.44-.51.55-.88 1.21-1.38 1.77-.2.23-.43.45-.6.71-.25.4-.13.64.32.66.55.02 1.11 0 1.66.01.35 0 .52-.14.55-.5.06-.86.14-1.71.22-2.57a.612.612 0 0 0-.18-.52zM167.24 63.66h4.05c.64 0 .76.14.65.75-.54 2.95-.91 5.93-1.49 8.88-.1.5-.13 1.01-.2 1.51-.08.54-.24.69-.78.69-1.4 0-2.79.01-4.19 0-.6 0-.67-.07-.65-.71.02-.37-.15-.49-.46-.49-1.26-.02-2.52-.02-3.79-.03-.47 0-.64.4-.8.71-.23.47-.58.63-1.06.64l-4.58.12c-.11 0-.22.01-.33 0-.49-.06-.62-.33-.32-.72.75-.95 1.52-1.89 2.29-2.83 1.24-1.5 2.48-2.99 3.72-4.49 1-1.21 1.98-2.43 2.97-3.64.3-.36.66-.49 1.16-.46 1.26.06 2.52.02 3.79.02v.04zm-1.63 3.91c-.38-.1-.53.12-.68.3-.69.84-1.37 1.68-2.03 2.53-.29.37-.2.56.26.58.62.03 1.24 0 1.86 0 .33 0 .5-.18.53-.48.11-.98.09-1.97.06-2.94zM103.42 70.57c-1.27.01-2.51-.12-3.72-.54-1.09-.39-1.62-1.45-1.24-2.56.37-1.08 1.04-1.93 1.94-2.62 1.48-1.13 3.2-1.69 4.98-2.06 2.96-.62 5.93-.52 8.89.06.62.12.71.32.52.93-.24.8-.82 1.41-1.17 2.15-.14.29-.44.25-.7.27-1.31.05-2.6-.21-3.9-.33-.94-.09-1.85 0-2.75.29-.35.11-.73.27-.69.69.04.39.41.58.77.64.7.12 1.4.19 2.1.29.68.09 1.35.2 2 .44 1.09.4 1.56 1.18 1.37 2.31-.27 1.59-1.25 2.65-2.63 3.37-2.34 1.22-4.87 1.56-7.46 1.46-1.74-.07-3.49-.24-5.19-.64-.21-.05-.44-.1-.63-.2-.23-.12-.26-.34-.15-.57.32-.65.66-1.3.98-1.96.23-.46.59-.36.97-.27 1.81.43 3.61.84 5.5.75.67-.03 1.24-.29 1.82-.56.29-.14.51-.41.44-.75-.07-.37-.38-.54-.74-.56-.44-.03-.89 0-1.33 0zM201.42 75.73c-3.14-.02-6.29-.13-9.43-.11-.74 0-.82-.16-.5-.81 1.44-2.96 2.87-5.92 4.3-8.89.29-.6.61-1.18.9-1.78.17-.35.45-.38.78-.38 1.53 0 3.06 0 4.58-.01 1.93 0 3.85 0 5.78-.01.71 0 1.41-.07 2.12-.06.58 0 .78.28.55.81-.32.73-.7 1.43-1.06 2.13-.13.26-.36.37-.64.42-.46.1-.93.08-1.39.04-1.77-.16-3.54-.04-5.31-.12-.56-.03-.88.21-1.07.69-.06.14-.11.29-.17.43-.28.71-.19.84.59.86 1.11.02 2.21.02 3.32.11.63.05.72.2.42.79-.19.37-.44.71-.59 1.11-.14.37-.46.43-.82.43-1.31 0-2.61-.01-3.92 0-.73 0-1.02.26-1.19.91-.1.41 0 .57.43.62.11.01.22.01.33.01 1.99.05 3.98.09 5.98.14.15 0 .31 0 .46.02.37.07.47.27.32.62-.05.12-.14.23-.2.34-1.05 1.99-.47 1.61-2.8 1.65-.6.01-1.2 0-1.79 0zM88.64 47.51c0-1.3 0-2.6-.38-3.87-.12-.42-.16-.92.09-1.36.39-.46 5.33.16 6.3.16.77 0 .89.11.92.86.03.82.06 1.63.1 2.45 0 .2 0 .4.1.57.12.08.23.03.3-.06.78-.99 1.77-1.79 2.49-2.83.22-.32.52-.5.94-.53 1.72-.11 3.45-.09 5.17-.09.08 0 .16.05.23.07.1.28-.11.39-.24.51-1.22 1.15-2.44 2.29-3.66 3.45-1.02.98-2.02 1.98-3.04 2.97-.41.4-.84.78-1.26 1.17-.64.6-1.13 1.29-1.36 2.15-.1.36-.22.72-.35 1.07-.11.32-.3.52-.68.52h-5.44c-.28 0-.55-.1-.5-.38.05-.34.18-1.04.29-1.24.41-.77-.02-5.41-.02-5.6zM123.6 62.84H129.78c.45.05.59.25.41.67-.51 1.15-1.04 2.29-1.58 3.43a.79.79 0 0 1-.75.46c-.82-.01-1.63.08-2.45.12-.49.03-.82.19-1.05.65-1.02 1.98-2.08 3.94-3.08 5.93-.24.47-.54.64-1.04.63-1.46-.04-2.92-.04-4.38-.07-.75-.02-.85-.2-.52-.88.86-1.79 1.72-3.58 2.58-5.38.05-.1.1-.2.14-.3.16-.49.06-.67-.45-.69-.69-.03-1.37 0-2.06-.02-.6-.01-.75-.27-.49-.79.5-1.01 1.03-2.01 1.48-3.04.25-.58.62-.77 1.23-.76 1.95.03 3.9.01 5.85.01zM120.03 49.22c.43-.52.69-1.11.92-1.7.32-.81.81-1.19 1.72-1.06.57.08 1.15 0 1.73.03.88.04 1.02.3.66 1.07-1.04 2.24-2.08 4.48-3.09 6.74-.26.59-.62.85-1.27.81-.82-.05-1.64-.04-2.46-.03-.42 0-.71-.14-.92-.52-.32-.6-.65-1.2-1.02-1.78-.31-.5-.51-.48-.78.04-.3.59-.58 1.19-.82 1.81-.14.36-.37.56-.73.57-1.02.01-2.04.03-3.06 0-.48-.02-.62-.36-.39-.88.33-.73.67-1.44 1.02-2.16.8-1.63 1.62-3.24 2.4-4.88.24-.51.61-.78 1.12-.79 1-.02 1.99.02 2.99.03.62 0 .98.28 1.11.9.09.41.25.8.39 1.2.08.22.13.47.47.61zM143.03 46.75c.46 0 .93-.02 1.39 0 .46.02.6.21.45.64-.15.46-.37.9-.52 1.36-.19.58-.05.76.56.82q1.41.12 2.16-1.12c.11-.19.29-.36.35-.56.32-.98 1.01-1.23 1.96-1.15.55.04 1.1-.08 1.65-.08.63 0 .79.26.52.84-.42.9-.86 1.79-1.29 2.69-.63 1.29-1.28 2.57-1.89 3.88-.28.61-.64.94-1.37.87-.7-.07-1.42 0-2.12-.02-.53-.01-.63-.18-.45-.67.15-.42.33-.82.47-1.24.13-.41.01-.59-.41-.61-.57-.03-1.15-.01-1.73 0-.37 0-.62.19-.76.54-.2.49-.4.98-.62 1.46-.16.36-.38.53-.75.52-.84-.01-1.68 0-2.52-.06-.7-.05-.88-.39-.56-1.02.96-1.92 1.98-3.81 2.87-5.75.72-1.55.71-1.29 2.2-1.31h.4v-.03zM159.11 46.66h3.92c.7 0 .81.17.56.8-.16.41-.27.84-.49 1.23-.24.41-.58.6-1.05.55-1.37-.15-2.75 0-4.11-.17-.28-.03-.6 0-.78.26-.18.27-.41.58-.26.92.13.3.48.27.76.27.64 0 1.28 0 1.92-.07.72-.09 1.04.07 1.08.46.05.61-.39 1.08-1.05 1.08-.97 0-1.95-.01-2.92-.02-.18 0-.36-.01-.53.03-.36.08-.62.3-.59.68.03.39.36.39.66.39h3.12c.22 0 .44-.01.66 0 .64.02.75.2.51.77 0 .02-.02.04-.03.06-.58 1.29-.58 1.28-2.04 1.29-2.17.02-4.33.05-6.5.08-.35 0-.71 0-1.06-.07-.65-.11-.77-.29-.47-.88.47-.93.97-1.84 1.45-2.76.71-1.35 1.42-2.69 2.1-4.06.29-.58.65-.87 1.34-.84 1.26.05 2.53.01 3.79.01zM134.91 46.55h3.72c.66 0 .82.22.61.81-.23.65-.49 1.28-.73 1.92-.14.37-.38.56-.8.56-.53 0-1.06.1-1.59.09-.42 0-.65.15-.82.53-.56 1.25-1.15 2.48-1.7 3.74-.15.35-.35.55-.73.56-.99.03-1.99.16-2.98.11-.66-.03-.81-.25-.51-.83.52-.98.9-2.02 1.47-2.97.03-.06.06-.12.08-.18.4-.94.34-1.04-.68-1.07-.18 0-.36 0-.53-.05-.29-.09-.45-.31-.34-.61.25-.69.52-1.36.79-2.04.18-.45.52-.6 1-.59 1.24.02 2.48 0 3.72 0zM111.81 46.7c.1.36-.05.62-.17.87-1.06 2.21-2.02 4.47-3.11 6.67-.21.43-.5.62-.91.63-.95.03-1.9.03-2.86 0-.44 0-.54-.18-.36-.61.27-.65.59-1.29.9-1.92l1.74-3.57c.28-.57.57-1.15.84-1.72.12-.26.32-.47.59-.49 1.12-.05 2.24-.08 3.34.14zM250 14.99c-.02 1.59-1.34 3.35-2.86 3.8-1.21.36-2.18-.26-2.36-1.51-.26-1.82 1.45-4.08 3.27-4.32 1.15-.15 1.96.7 1.95 2.03zM246.25 27.46c.01 1.62-1.29 3.41-2.84 3.88-1.28.39-2.33-.35-2.39-1.69-.08-1.6 1.17-3.46 2.68-4 1.44-.51 2.53.27 2.55 1.81z"/></g></svg>