<svg xmlns="http://www.w3.org/2000/svg" width="220" height="134" viewBox="0 0 220 134"><path d="M4.82,12.24c-1.63,0-2-.52-3.34-1.19A19,19,0,0,1,0,8.08c0-1.26,1.26-1,2.08-1a22.92,22.92,0,0,0,4.45-.67l8.6-1.85C24.69,2.52,34.26,0,44.12,0,46,0,50.87.52,52.36,1.33l1,2.38.67.22.07.15-1.26.3a40.89,40.89,0,0,1-4.23.44c-3.41.37-6.89.67-10.3,1.11-3.93.52-7.87,1.26-11.72,2a1.53,1.53,0,0,1,.3,1c0,1.26-1.49,4.75-1.93,6.15L21.28,26.4c-.74,2.3-1.33,4.67-1.92,7-1.27,4.82-2.6,9.57-3.42,14.46-.52,3-.89,6.16-1.26,9.27a25,25,0,0,0-.22,3.34,31.26,31.26,0,0,0,1.78,9.79l-.07.15A7,7,0,0,0,15.05,70a4.32,4.32,0,0,1-2.67-1.7C9.57,65,9.12,61,9.12,56.8c0-11.42,3.86-27.06,7.19-38.11.6-2,2.75-7.42,2.82-9C15.13,10.53,8.75,12.24,4.82,12.24Z" fill="#fff"/><path d="M27.14,49.69A10.63,10.63,0,0,1,24,52.8l-2.59-.89.14-.22a23.62,23.62,0,0,0,3.19-4.08,53.83,53.83,0,0,0,7.42-19.13c-2.82-1.93-6.75-4.08-6.75-8,0-2,1.78-4.45,3.93-4.45a4.14,4.14,0,0,1,1.86.44,7.16,7.16,0,0,1,4.22,5.94c.15,1.63.37,3.26.45,4.89a41.72,41.72,0,0,1,7.41,5,5.16,5.16,0,0,1,1.78,4c0,2.23-1.41,5.94-2.15,8.16-1.33,3.93-3.71,10.09-3.71,14.16a7.72,7.72,0,0,0,.52,2.9l2.08.52-.07.59.07.07.37-.44h.59a1.93,1.93,0,0,1,.23.89c0,1.41-2.23,1.85-3.34,1.85-4.82,0-6.75-5.19-6.75-9.27,0-5,3.12-13,4.9-17.8A17.87,17.87,0,0,0,39,33.3c0-1.78-2.08-2.52-3.42-3.12C34.7,37.45,31.37,43.83,27.14,49.69Zm-.37-30.78.15.15a2.84,2.84,0,0,1,.29-.82Zm.44,28.92-.07.08h.07ZM27.73,44a1.74,1.74,0,0,0,.6-1.19Zm1.41-25a1.32,1.32,0,0,0-.44.89.74.74,0,0,0,.07.38C28.92,19.87,29,19.43,29.14,19Zm3,5.57c0-1.41-.37-4.6-1.18-5.64a3.41,3.41,0,0,0-1.19,2.52,5,5,0,0,0,2.3,4.08C32.11,25.21,32.18,24.84,32.18,24.55Zm1.71,8.23A90,90,0,0,1,30,43.38c1.56-1.7,3.85-8.6,4.15-11C34,32.48,34,32.63,33.89,32.78ZM30.4,38.19A8.62,8.62,0,0,0,31.22,36l-.15.07Zm1-3.26a1.19,1.19,0,0,0-.22,1Zm.15-.37a.29.29,0,0,0,.07-.22Zm.15-.6a.42.42,0,0,1-.08.3.51.51,0,0,0,.15-.3Zm.22-.89.22-.29h-.07Zm.37-.89L32.26,32v.22Zm1.93-.59h-.07v.3h.07Zm.15-.81h-.08V31h.08Zm4.3,9L35.15,50.58l-.82,3a26.92,26.92,0,0,0,1.56-4.37c1.26-3.93,2.67-7.79,3.78-11.79A6.58,6.58,0,0,0,38.71,39.75ZM36,55c0-.15-.07-.22-.07-.37a.62.62,0,0,0-.08.37Zm4.75-16.31L37.15,49.31c-.52,1.64-.74,3.42-1.11,5l.15-.15c.67-2.23,1.18-4.52,1.93-6.75,1-3,2.37-5.93,2.89-9.05Zm-3,16.16a84.21,84.21,0,0,1,3.33-11A31.88,31.88,0,0,0,43,36.93h-.15c-1.78,5-3.41,10.09-5,15.13a15.78,15.78,0,0,0-.74,4.52,7.54,7.54,0,0,0,.08,1.34C37.45,56.88,37.52,55.84,37.75,54.8Zm-.15-3.48v-.08l-.08.08Zm.74-2.67.07-.08h-.07Zm.15-.6.07.08v-.08Zm.07,7.12h-.07c0,.08,0,.08.07.15Zm.08-7.56.07.07v-.07Zm.07,6.82h-.07v.15h.07Zm.44-1.63h.08v-.22h-.08Zm.23-.89H39.3v.22h.08Zm.29-7.27-.07.08h.07Zm0,6.31c-.07,0-.07.07-.07.14h.07Zm.08-14v.3a.49.49,0,0,0,.07-.3Zm.07,13.5-.07.07h.07Zm.08-.52L40,50a.28.28,0,0,0-.07-.22Zm.29-.67h-.07v.22h.07Zm.45-1.41h-.08c0,.08,0,.08.08.08Zm.15-6.38-.08.08h.08Zm0,5.94c-.08,0-.08,0-.08.07ZM41.16,38H41v.23Zm-.08,8.46.08-.08h-.08Zm.15-.45c.07,0,.07-.07.07-.15h-.07Zm.15-.52h.07v-.15h-.07Zm.89-2.37h-.08v.15h.08Zm.07-.37h.08v-.08h-.08Zm.15-.59.08.07V42.2Zm1-2.9v-.07l-.07.07Z" fill="#fff"/><path d="M69.41,44.64c-1.63,3.86-5.27,10.46-8.53,13-1.63-.59-2.82-.74-2.82-2.81A58.4,58.4,0,0,1,59.77,43l-2.52,2.6c-1.56,1.63-3.71,4.74-6.31,4.74-1.85,0-4.59-1.7-4.59-3.78,0-4.37,4.67-12.31,8.23-14.83a9.62,9.62,0,0,1,5.19-2.08A7.05,7.05,0,0,1,64.51,32a.91.91,0,0,1,.3.6,1,1,0,0,1-.15.44l-2.15-.59c-5.34,1.85-8,7.86-10.16,12.68l.15.15,1.19-.89L60.81,38c1.33-1.19,1.55-2.75,3.26-3.41l.07.74-.22.07c-.15.3,0,.23-.3.52l.23-.07.07-.37.22-.15a.52.52,0,0,1,.45-.3.63.63,0,0,1,.37.22l-.07.52.29-.14v-.08l.37.15c-.59,1.85-1.26,3.63-1.93,5.41l-.07.08c.07,0,.07,0,.07-.08s.23-.14.23-.29c.74-1.63,1.33-3.34,2.15-4.9.37.08.67.3.67.67A4.74,4.74,0,0,1,66.29,38c-1,2.67-4.22,11.87-4.22,14.24a12.59,12.59,0,0,0,2.44-2.45h.15c-1,1.41-2.3,2.6-3,4.16h-.08v.07c.08,0,.08,0,.08-.07a54.54,54.54,0,0,0,3.7-4.45,16.09,16.09,0,0,1,1-1.34l.37-.37c-1.56,2.67-4,5.12-5.34,7.86L63.77,53l-.66,1.26.51-.37.08.3A4.33,4.33,0,0,1,64.37,53h.07v-.08l-.07.08h-.15A2.27,2.27,0,0,1,65,51.61v.3l.15-.3.22-.14.15-.3c.15-.59.74-1,1-1.63a9.25,9.25,0,0,1,.66-1.11h-.07l.15-.3h-.08l.45-.82.07.3a3.86,3.86,0,0,1,.45-1h-.08l.23-.15a3,3,0,0,0,.29-.67v.07A14.16,14.16,0,0,1,69.41,44.64ZM48.79,42.27c0,.07-.07.15-.07.22h.07Zm.45-.89c1-1.63,1.85-3.41,2.89-5,.22-.3.89-1.11.89-1.48l-.15.29A29.36,29.36,0,0,0,49,41.68a.53.53,0,0,0-.15.37l.15-.37C49.09,41.6,49.24,41.53,49.24,41.38ZM50,42.86l.22-.52c-.15.08-.15.37-.29.52Zm.15,3.49a.42.42,0,0,0-.08.3h.08Zm6.15-11.27c-1.93,1.18-4.74,6.45-5.48,8.6-.3.81-.45,1.7-.67,2.52a1.16,1.16,0,0,0,.29-.52A38,38,0,0,1,56.28,35.08Zm-5.86,6.6c.75-1.41,1.64-2.67,2.45-4v-.15A21.56,21.56,0,0,0,50.42,41.68Zm2.82-7,.22-.15h-.07Zm.37,1.78h.15v-.08C53.69,36.49,53.69,36.49,53.61,36.49ZM54,36h.08v-.08C54,35.89,54,35.89,54,36Zm7.42,13.2h.07V49H61.4Zm.3,7a.15.15,0,0,0-.15.15Zm0-8.46.07.15v-.22Zm.59,7.72-.52.66C62,55.84,62.29,55.77,62.29,55.4Zm-.22-9h.07v-.37A.7.7,0,0,0,62.07,46.42Zm.07-.66.15-.3h-.07Zm.15-.38a2.79,2.79,0,0,0,.52-1.48A13.09,13.09,0,0,0,62.29,45.38Zm.15,10.24c-.08,0-.08.07-.15.07S62.44,55.69,62.44,55.62Zm.29-.52c0-.15.08-.3.08-.45l-.45.67Zm0-17.65.6-1.11A2.76,2.76,0,0,0,62.73,37.45ZM62.88,55l-.07.08C62.88,55,62.88,55,62.88,55ZM63,43.31a.26.26,0,0,0-.08.22Zm.22,11.57c-.07,0-.07.07-.15.07h.15Zm0-12.31c-.07.07-.07.22-.07.37l.07-.15Zm.52,11.64h-.08l-.22.15h.08Zm.22-16.91a.73.73,0,0,1,.08.22l.29-.59C64.07,37,63.92,37.08,63.92,37.3Zm.37-.44a.64.64,0,0,0,.08-.37A.61.61,0,0,0,64.29,36.86ZM65,52a.49.49,0,0,0-.07.3A.46.46,0,0,0,65,52Z" fill="#fff"/><path d="M76.53,50.58l-.45,2.59C75.12,58.81,74,64.74,74,70.45c0,.67.29,1.19.29,1.85,0,.45-1.63.82-2,.82a13.82,13.82,0,0,1-2.15-.67c-1.78-.74-1.85-2.22-1.85-3.93,0-4.45.89-9,1.48-13.42l2.15-15.65a62.56,62.56,0,0,0,1-8.23c0-1.48-1-1.71-1-2.52,0-.59.6-.67,1-.67,1.78,0,4.15,2.15,4.82,3.71.52,1.19.3,2.45.74,3.63a1.44,1.44,0,0,0,.3-.44,30.83,30.83,0,0,1,3.41-4.82c1.56-1.71,5.79-4.82,8.08-4.82,2.45,0,5.27,2.37,5.27,4.89a6.77,6.77,0,0,1-.15,1.26C94,38,86.76,46.65,80.53,49.09a14,14,0,0,1-2.89.74c-.22,0-.37-.14-.59-.14C76.53,49.69,76.6,50.2,76.53,50.58ZM70.37,60.81H70.3c0,.07,0,.07.07.15Zm.15-.89-.07.07h.07Zm.15-.89h-.08v.44h.08Zm0-1.11.15.07c0-.15.07-.3.07-.44Zm.59,6.52h.08v-.29h-.08Zm.15-11h.07v-.3h-.07Zm.3-2.15.07-.08h-.07Zm.14-1v.15c0-.08,0-.08.08-.15Zm0,9.94h.08v-.3h-.08Zm.23-2.45c0,.07,0,.07.07.15,0-.08,0-.08.08-.15Zm3.11-10.68H75c-.29.74-1,6.3-1.18,7.64-.52,3.26-1.71,10.08-1.71,13.64,0,.52.08,1.12.08,1.63h.14c0-1.4.23-2.74.37-4.15.38-2.67.6-5.41,1-8.08l1-6.82c.15-1,.45-2.15.52-3.19Zm-2.52,7.19v.08h.07Zm.22-1h-.07v.22h.07ZM75.34,46l-.07.07h.07Zm.07-.3h.08v-.15h-.08Zm.6-4.89a.28.28,0,0,1,.22.07v-.59Zm.44-1.26c-.15.07-.22.14-.22.29v.37Zm0,0-.07-.3H76.3Zm2.38,1.7a54.4,54.4,0,0,1,3.85-7.86c-.15.15-.29.22-.37.37a34.5,34.5,0,0,0-4.75,10.53A22.64,22.64,0,0,0,78.83,41.23Zm-1,5.79c5.63-2.75,11-8.83,13.64-14.46a12.05,12.05,0,0,0,1.19-4.23,1.48,1.48,0,0,0-.52-1.19A12.52,12.52,0,0,0,86,30.78c-3.71,3.63-5.41,8.52-7.27,13.27-.37,1-.74,1.93-1,2.89Zm.89-9.94a8.05,8.05,0,0,0,1-1.78Zm2.44-2.74v.14c0-.07,0-.07.08-.14Zm7.79,6.89.08-.15-.23.23Zm5.34-9-.22.3c-.52,1-.89,2-1.41,3a56.76,56.76,0,0,1-3.12,5,22,22,0,0,0,4.16-6.6ZM89.5,37.67a3.69,3.69,0,0,0,.75-1.11A4.23,4.23,0,0,0,89.5,37.67Zm.75-1.18a2.78,2.78,0,0,0,.59-1Zm.66-1a.38.38,0,0,0,.15-.3A.4.4,0,0,0,90.91,35.45Zm1-1.86a14.63,14.63,0,0,0-.82,1.56Zm.81-1.78c0-.07-.07-.07-.07-.14v.14Zm1.71-.37v.15c0-.07.07-.07.07-.15Z" fill="#fff"/><path d="M114.72,40.19C113.6,46.27,112,52.5,112,58.73a10,10,0,0,0,.37,2.9c0,.07.08.14.08.22s-.08.29-.08.44a3.32,3.32,0,0,1-.89.08,4.53,4.53,0,0,1-4.37-3.79c-.08-.89-.08-1.85-.08-2.74a38.22,38.22,0,0,1,.23-5.12c.81-6.67,1.55-12.68,3.48-19.13l-.15-.15-2.3,1.93a22.74,22.74,0,0,0-3.78,5,47.37,47.37,0,0,0-5.78,15,8.22,8.22,0,0,1-.3,1.26c-5.12-.52-5.56-3.86-5.56-8.23,0-7.79,1.78-15.5,3.49-23.06.66-3,1.33-6.16,2.29-9.13.89-2.81,2.08-5.63,3.19-8.38a7.89,7.89,0,0,1,1-2.07,1.87,1.87,0,0,0,1.19.44c.67,0,1.7.89,2.22,1.34a1.57,1.57,0,0,1,.67,1.33v.6c0,2.81-1.93,8.38-2.74,11.34-1,4-2.08,7.94-3,11.94-.38,1.56-1.64,5.86-1.64,7.19,0,.08.08.23.08.3a29.22,29.22,0,0,1,9.49-9.79,3,3,0,0,1,1.71-.59,6.8,6.8,0,0,1,3.85,1.7,3.08,3.08,0,0,1,1.41,2.82C116.05,34.93,115.16,37.67,114.72,40.19Zm-18.39-10h-.08v.15h.08Zm.22-1-.22.37.14.08C96.47,29.44,96.55,29.29,96.55,29.14Zm.07-.44h-.07v.37A.7.7,0,0,0,96.62,28.7ZM96.7,28h.14c-.07-.07-.07-.22-.07-.37A.7.7,0,0,0,96.7,28Zm.14,16.17c0-.15-.07-.22-.07-.37a.7.7,0,0,0-.07.37Zm.15-2a3.85,3.85,0,0,0-.15.89H97Zm0-.08c.74-2.3,1.19-6.08,1.71-8.6,1.63-7.71,3.85-15.35,5.86-23l-.15.07c-1,3.34-2.15,6.6-3,9.94-1,3.93-1.93,7.86-2.75,11.79A93,93,0,0,0,97,42.12Zm.23-16.24h.07v-.3A.49.49,0,0,0,97.22,25.88Zm.07-.37a.57.57,0,0,0,.15-.3l-.15-.07Zm.22-1,.15.08c0-.37.07-.82.07-1.19l.15-.07c.3-1,.52-2,.74-3a15.62,15.62,0,0,0-.89,3.11Zm.3,5v.3h.07v-.3Zm.52-2.07c0,.15-.08.3-.08.44l-.14.52h.14l.23-.89Zm4.82,10.68c-1.71,1.7-4.3,8.23-4.82,10.68-.08.22,0,.51-.08.74a1.46,1.46,0,0,0,.37-.67,63.15,63.15,0,0,1,2.67-7l1.86-3.56ZM98.48,26.85c0,.07,0,.07.07.14v-.14Zm0,18.68h.07v-.07Zm.14-19.28.15.08a1,1,0,0,1-.07-.45A.62.62,0,0,0,98.62,26.25Zm.23,15.58H99l.66-1.41ZM99.22,24c.37-.44,1.63-5.93,1.78-6.89l.15-.45.07-.3a.49.49,0,0,0-.07.3,1,1,0,0,0-.15.45C100.33,19.36,99.66,21.65,99.22,24Zm1,22-.07-.08V46Zm0-31.82c.08,0,.08,0,.15-.07V14Zm.37-1.11h.08V13Zm.22,31.15h-.07l.07.07Zm.52-4.67c0-.08,0-.08.08-.15h-.08Zm.08-23.66.07-.22h-.07Zm.07,9.49-.07.08h.07Zm.08-10.16h.07v-.15h-.07Zm.14-.67h.08v-.07Zm.6,7.79h-.08v.15C102.18,22.4,102.18,22.4,102.26,22.32Zm.81-2.89H103v.07Zm.3-1.19h-.07v.08Zm.15,19.28c-.08.15-.22.3-.22.45C103.37,37.82,103.52,37.67,103.52,37.52Zm0-19.8c-.08,0-.08,0-.08.08h.08Zm1-7.26A3.19,3.19,0,0,0,105,9.05L104.85,9A11.19,11.19,0,0,0,104.56,10.46Zm.52-2h.07a.45.45,0,0,0-.07-.29l.22-.3-.08-.07a.85.85,0,0,1-.14.37Zm6.15,41.24h-.07V50l.07-.07Zm.3-2.23h-.08c0,.08.08.08.08.15Zm.37-2.37-.15.52h.15ZM114.2,34a91.92,91.92,0,0,0-2.15,10.09,25.56,25.56,0,0,0,1-3.93C113.46,38,113.9,36,114.2,34Zm.15-.59h-.15v.37Z" fill="#fff"/><path d="M124.28,34.34c1.78-2.3,4.6-6.6,7.86-6.6s7,3.93,7,7.11c0,6-4.74,13-9,16.91a7.92,7.92,0,0,1-4.23,2.45,11.61,11.61,0,0,1-1.55.15,8.19,8.19,0,0,1-8.09-8.46V45c0-3,3.12-11.27,6.68-11.27Zm-2.67,1.11a2.87,2.87,0,0,0-1.18,1.33ZM121,40.94v.14c.07,0,.07-.07.14-.14Zm13.86-7a9.29,9.29,0,0,0,.23-1.48,2.22,2.22,0,0,0-.23-1c-2.44,0-7.56,6.15-7.56,8.53a2.26,2.26,0,0,0,1,1.78,1,1,0,0,1-.74.44c-2.08,0-3-1.63-4.16-3a23,23,0,0,0-2.15,8.53,11.41,11.41,0,0,0,.37,3.11C128.36,49,133.63,40.56,134.81,34Zm-11.42,2.45a9.3,9.3,0,0,0-2,3.49,19.79,19.79,0,0,0,1.93-3.34Zm-1.7.67a2,2,0,0,0,.66-1Zm4.52-3.26a24.55,24.55,0,0,1,3.34-3.64h-.15A18.22,18.22,0,0,0,126,34Zm5-2.08v-.07h-.07c-.08,0-.08.07-.15.07-1.56,1.11-3.93,3.63-4.3,5.56A55.36,55.36,0,0,1,131.25,31.74Zm-2.82,1.11c-.29.3-1.26,1.26-1.26,1.56C127.55,33.82,128.06,33.37,128.43,32.85Zm2.23,16.09a2.67,2.67,0,0,0-.45.75c1.49-1.71,5.57-5.86,5.49-8.16A50.37,50.37,0,0,1,130.66,48.94ZM132,43.68a15,15,0,0,0-1.63,2.3A7.52,7.52,0,0,0,132,43.68Zm-1.33,3.56c0,.07,0,.07.07.07Zm.89-.82c.52-.81,1.19-1.55,1.63-2.37l-1.7,2.3v.07Zm1.71-2.59a.26.26,0,0,0-.08.22Zm1.11,1.85h.07v-.07Z" fill="#fff"/><path d="M165.07,44.12l.22.15a1.81,1.81,0,0,1-.82.67v.15h.08V45c.3-.14.81,0,1-.22A14.68,14.68,0,0,1,164.1,47a4,4,0,0,0,1.12-1.12l.07.08V45.9h-.07l.29-.52a1.1,1.1,0,0,1,.37-.89l.3.23c-.52,1-1.11,2-1.71,3-1.63,2.67-4.22,7.57-7.78,7.57A3.88,3.88,0,0,1,152.53,51c0-1.56.15-3.19.15-4.75a41.87,41.87,0,0,1-5.63,6.9A2.67,2.67,0,0,1,145,54a5.64,5.64,0,0,1-3.26-1c-1.71-1.19-1.86-2.89-1.86-4.82,0-4.9,2.3-15,5.86-18.69a1.14,1.14,0,0,1,.74-.44,12.72,12.72,0,0,0,1.49.44v.67c.15-.3.66-.22.89-.3l-.23.82.67-.3.6.3a1.44,1.44,0,0,1,.14.52c0,.52-2,6-2.37,7a57.79,57.79,0,0,0-2.22,11.27,79.83,79.83,0,0,0,8.52-10.23c1.86-2.45,2.45-5.78,4.45-8.23A3.15,3.15,0,0,1,160,30c.6,0,1.34.6,2,.75l-.23.81.52-.52h.15a.41.41,0,0,0,.37.22l.23-.29a.8.8,0,0,0,.07.22c0,1.19-1,3-1.41,4.15-1.63,4.6-2.52,9.5-3.78,14.17,0,.07-.22.74-.22.81,0,.3,0,.74.44.74,1.48,0,5.12-4.67,6.08-5.93v.08l.22-.3-.07.07Zm-21.73-7V37h-.08v.08Zm.81,8.53a3.25,3.25,0,0,0-.07-.82,2.66,2.66,0,0,1-.07.74Zm.15-1.26a64.73,64.73,0,0,1,4.23-12.83,1.81,1.81,0,0,0,.07-.89,42.73,42.73,0,0,0-4.45,14A.36.36,0,0,0,144.3,44.35Zm1.49-13.06a8.33,8.33,0,0,0-1.49,2.9Zm-.37,3.93V35a.26.26,0,0,0-.08.22Zm.74-4.3-.15-.07c-.22,0-.15.3-.22.44C145.93,31.15,146,31,146.16,30.92Zm1.11.45h-.07c-.3,0-.3.22-.3.44A1.64,1.64,0,0,0,147.27,31.37Zm1,2.45h.08v-.08Zm.82-2v.08h.07Zm1.71,13,.07.08v-.08Zm3.63-4.89c-.59.07-.74.59-.89,1Zm.52,3.41c-.08,0-.08,0-.15.07l.07.15ZM156,50.43c.45-1.49.74-3,1.19-4.45,1-3.64,2.15-7.2,3-10.83C158.62,37.23,156.32,47.46,156,50.43Zm.15-6.6h-.08V44h.08Zm.81-2.89h-.07v.22Zm.37-1c-.07-.08-.07-.08-.14-.08v.3Zm2.9-4.9v.15c0-.07,0-.07.07-.15Zm.44-1.48v-.15c0,.08-.07.08-.07.15Zm.08-.37c.66-.45.59-.22.89-1ZM162,32.7l.07-.07H162Zm1.41,15.43v-.08l-.08.08Z" fill="#fff"/><path d="M178.27,29.07a19.26,19.26,0,0,0-1.93-.37c-1.49,0-2.89,3-3.41,4.23a9,9,0,0,0-.6,3.7c1.71-1.41,3.27-3.48,5.71-3.48a8,8,0,0,1,3,1.19c-1.48,1.26-3.26,2.22-4.52,3.78-.89,1.11-1.71,2.22-2.52,3.41,2.15,4.23,4,7.71,4,12.61,0,4.44-4.37,8-8.67,8-2.75,0-6.16-1.63-6.16-4.82,0-4.74,3.71-11.79,5.86-16-1-2.3-2.3-4.75-2.3-7.35,0-3,2.6-8.75,6.16-8.75a7.7,7.7,0,0,1,5.78,3.41Zm-13.8,26.7h.08v-.3h-.08Zm.22-.74v-.3l-.14.3Zm.67-2.67a36.3,36.3,0,0,0,1.78-4.68,11.16,11.16,0,0,0,1-2.07,43.25,43.25,0,0,0-2.9,7.19Zm.3,3.41v-.08h-.08v.08Zm.15-.82v-.52a1.18,1.18,0,0,0-.08.52Zm.59,2.6c.74-4.45,2.6-8.61,4.38-12.68-.89.14-3.79,8.52-4.08,9.86-.23.89-.3,1.85-.45,2.74Zm4.89-10.68c-1.11,2.44-3.56,8.38-3.56,10.9a3,3,0,0,0,.38,1.41c.22-.15.51-.15.74-.3a7.4,7.4,0,0,0,3.56-6.6,27.46,27.46,0,0,0-.89-5.49Zm-2.89-1.93a.8.8,0,0,0-.29.67A2.31,2.31,0,0,1,168.4,44.94Zm.67-14.54a6.54,6.54,0,0,0,1-1.85A6.57,6.57,0,0,0,169.07,30.4Zm.74,18.25-.07.07h.07Zm.08-4.08v.07l.07-.07Zm.44-13.65a2.71,2.71,0,0,0,.89-1.78Zm2.74-1.7c-1.26.52-1.85,2.52-2.15,3.71C171.74,32.11,172.41,30.26,173.07,29.22Zm-.22,1.85-.07-.07v.07Zm0,25.22a1.29,1.29,0,0,0,.52-1.19A9.35,9.35,0,0,1,172.85,56.29ZM173,30.7l-.07.08H173Zm.52,24-.15-.08V55Zm.74,1.48a.66.66,0,0,0,.45-.74V55Zm1,1.48a5.19,5.19,0,0,0,1.11-2.89c0-.22-.08-.37-.08-.59-.29.89-1.11,2.45-1,3.41h-.08Zm1.4-1.11.08-.07h-.08Zm.23-.52h-.08c0,.08,0,.08.08.08Z" fill="#fff"/><path d="M186,45.31a6.79,6.79,0,0,0-.23,2.45c0,.74.23,3.56,1.26,3.56a3.53,3.53,0,0,0,3.27-2.38l.07-.07v.22c0,.67-.59,1.19-.81,1.78.81-.37,1-1.11,1.41-1.78a1.36,1.36,0,0,1,.14.37c0,.52-.44.82-.52,1.26l.52.08L191,51l.15.07V51h.22l-.07-.15h.07l.07-.29h.08l.15-.3v.3a1,1,0,0,0,.29-.75l.3-.37A4.07,4.07,0,0,1,188.05,53c-4.52,0-7.19-3.11-7.19-7.49a17.63,17.63,0,0,1,3.56-10A8,8,0,0,1,191.17,32a9.22,9.22,0,0,1,2,.3l-1.48-2.75.59-.14a6.84,6.84,0,0,1,5,6.67C197.25,41.45,190.87,45.31,186,45.31Zm-2.38-5.78c-.07,0-.07,0-.07.07h.07Zm.37-1.12-.22.37.15.08Zm.08-.14-.08.07h.08Zm1.18-2,.23-.07a.3.3,0,0,0-.23.07l-.37.6-.14.22v.07a6.39,6.39,0,0,0-.52.74c.37-.14.44-.44.52-.74l.14-.29.3-.23C185.16,36.49,185.23,36.41,185.23,36.26ZM185,41.83c-.07.07-.07.22-.07.37H185Zm2.75-5.12c-1,1-2.45,3.11-2.45,4.67C185.83,39.75,187.09,38.34,187.76,36.71Zm-2.45,1.93v0Zm.3-.67c.07-.08.07-.15.07-.3A.59.59,0,0,0,185.61,38Zm.29-.45H186a.56.56,0,0,0,.14-.29C186.05,37.3,186,37.52,185.9,37.52Zm.82,4.82c2.67-.29,6.6-4.67,6.6-7.34v-.29C190,35.45,187.31,39.08,186.72,42.34Zm1.11-5.71.3-.14v-.08l-.08.08C187.9,36.49,187.9,36.56,187.83,36.63Zm5,2.15a.49.49,0,0,0-.07.3l-.22.15.22-.07v-.08Zm.52-.81-.15.3v.07C193.32,38.19,193.39,38.12,193.39,38Zm.22-.45a.15.15,0,0,0,.15-.14h-.15Zm.3,3c.08-.07.15-.07.15-.15Zm.15-1.71h.07l.08-.22Zm.3,1.49a.3.3,0,0,0-.23.07A.3.3,0,0,0,194.36,40.27Zm0-.08a6.35,6.35,0,0,0,1.48-2.67A13.9,13.9,0,0,0,194.36,40.19Z" fill="#fff"/><path d="M107.66,75c-1.63,0-2-.52-3.34-1.19a18.53,18.53,0,0,1-1.48-3c0-1.26,1.26-1,2.08-1a23.47,23.47,0,0,0,4.44-.66L118,67.39c9.56-2.07,19.13-4.59,29-4.59,1.86,0,6.75.51,8.23,1.33l1,2.37.67.23.07.14-1.26.3a38.55,38.55,0,0,1-4.23.45c-3.41.37-6.9.66-10.31,1.11-3.93.52-7.86,1.26-11.71,2a1.5,1.5,0,0,1,.29,1c0,1.26-1.48,4.75-1.92,6.16L124.12,89.2c-.74,2.29-1.33,4.67-1.93,7-1.26,4.82-2.59,9.56-3.41,14.46-.52,3-.89,6.15-1.26,9.27a24.83,24.83,0,0,0-.22,3.33,31.21,31.21,0,0,0,1.78,9.79l-.07.15a6.38,6.38,0,0,0-1.12-.37,4.33,4.33,0,0,1-2.67-1.71c-2.82-3.26-3.26-7.34-3.26-11.49,0-11.42,3.86-27.07,7.19-38.12.6-2,2.75-7.41,2.82-9C118,73.33,111.59,75,107.66,75Z" fill="#fff"/><path d="M130,112.48a10.67,10.67,0,0,1-3.19,3.12l-2.59-.89.14-.23a23.72,23.72,0,0,0,3.19-4.08A53.75,53.75,0,0,0,135,91.27c-2.82-1.93-6.75-4.08-6.75-8,0-2,1.78-4.45,3.93-4.45a4,4,0,0,1,1.85.45,7.17,7.17,0,0,1,4.23,5.93c.15,1.63.37,3.26.45,4.9a41.66,41.66,0,0,1,7.41,5,5.2,5.2,0,0,1,1.78,4c0,2.22-1.41,5.93-2.15,8.16-1.33,3.93-3.71,10.08-3.71,14.16a7.7,7.7,0,0,0,.52,2.89l2.08.52-.08.59.08.08L145,125h.59a2,2,0,0,1,.22.89c0,1.41-2.22,1.86-3.33,1.86-4.82,0-6.75-5.19-6.75-9.27,0-5,3.11-13,4.89-17.8a17.55,17.55,0,0,0,1.26-4.6c0-1.78-2.07-2.52-3.41-3.11C137.54,100.24,134.21,106.62,130,112.48Zm-.37-30.77.15.14a2.51,2.51,0,0,1,.29-.81Zm.44,28.92-.07.07h.07Zm.52-3.86a1.7,1.7,0,0,0,.6-1.19Zm1.41-25a1.29,1.29,0,0,0-.44.89.7.7,0,0,0,.07.37C131.76,82.67,131.83,82.22,132,81.78Zm3,5.56c0-1.41-.37-4.6-1.18-5.63a3.35,3.35,0,0,0-1.19,2.52,5,5,0,0,0,2.3,4.08C135,88,135,87.64,135,87.34Zm1.71,8.23a91.91,91.91,0,0,1-3.93,10.61c1.55-1.71,3.85-8.6,4.15-11C136.8,95.28,136.8,95.42,136.73,95.57ZM133.24,101a8.77,8.77,0,0,0,.82-2.15l-.15.07Zm1-3.27a1.18,1.18,0,0,0-.22,1Zm.15-.37a.28.28,0,0,0,.07-.22Zm.15-.59a.44.44,0,0,1-.08.3.57.57,0,0,0,.15-.3Zm.22-.89.22-.3H135Zm.37-.89-.07-.15v.22Zm1.93-.59H137v.29h.08Zm.15-.82h-.08v.22h.08Zm4.3,9L138,113.37l-.82,3a28.39,28.39,0,0,0,1.56-4.38c1.26-3.93,2.67-7.78,3.78-11.79A6.58,6.58,0,0,0,141.55,102.54Zm-2.67,15.21c0-.15-.08-.23-.08-.37a.68.68,0,0,0-.07.37Zm4.74-16.32L140,112.11c-.52,1.63-.74,3.41-1.11,5L139,117c.66-2.22,1.18-4.52,1.92-6.74,1-3,2.38-5.94,2.9-9.05Zm-3,16.17a86.47,86.47,0,0,1,3.34-11,31.64,31.64,0,0,0,1.93-6.89h-.15c-1.78,5-3.41,10.08-5,15.12a15.85,15.85,0,0,0-.74,4.53,8.47,8.47,0,0,0,.07,1.33C140.29,119.67,140.36,118.64,140.58,117.6Zm-.14-3.49V114l-.08.07Zm.74-2.67.07-.07h-.07Zm.15-.59.07.07v-.07Zm.07,7.12h-.07c0,.07,0,.07.07.15Zm.07-7.57.08.08v-.08Zm.08,6.83h-.08v.15h.08Zm.44-1.63h.08v-.23H142Zm.23-.89h-.08v.22h.08Zm.29-7.27-.07.07h.07Zm0,6.3c-.07,0-.07.08-.07.15h.07Zm.08-14V100a.45.45,0,0,0,.07-.29Zm.07,13.49-.07.08h.07Zm.07-.52.15.08a.3.3,0,0,0-.07-.23Zm.3-.66H143v.22H143Zm.45-1.41h-.08c0,.07,0,.07.08.07Zm.14-6.38-.07.07h.07Zm0,5.93c-.07,0-.07,0-.07.08Zm.37-9.34h-.14v.22Zm-.07,8.45.07-.07h-.07Zm.15-.44c.07,0,.07-.08.07-.15h-.07Zm.15-.52h.07v-.15h-.07Zm.89-2.38H145v.15h.08Zm.07-.37h.08v-.07h-.08Zm.15-.59.07.07V105Zm1-2.89V102l-.08.08Z" fill="#fff"/><path d="M167.06,100.91l.59-.59-.07.44.22-.44h-.15l.15-.22v.22l.15-.3H168l.3-.52.15.08c-1.34,3.41-3.64,6.6-5.57,9.71-1.11,1.78-2.15,3.64-3.33,5.34A79.72,79.72,0,0,1,154,121.9a1.85,1.85,0,0,1-1.48.52c-2.15,0-3.71-1.19-3.71-3.41a46.81,46.81,0,0,1,2-12,47.8,47.8,0,0,0,1.78-9v-.3c0-.37-.23-.74-.23-1.11s.45-.44.67-.52c3.26.45,5.93,2.15,5.93,5.71,0,2.82-1,5.34-1.78,8l-1.63,5.49c0,.07-.07.07-.07.15a.8.8,0,0,1,.07.22c2.08-2.6,3.86-5.49,5.71-8.23,1.11-1.63,2.45-3.12,3.64-4.67a21.43,21.43,0,0,1,1.92-2.67l-.37.66.52-.59a61.86,61.86,0,0,0-3.63,6,11.25,11.25,0,0,0,1.41-1.86c.74-1.26,1.26-2.81,2.37-3.85ZM152.52,119.3c1.11-4.3,2.37-8.6,3.56-12.9a23.74,23.74,0,0,0-1.63,5,58.74,58.74,0,0,0-2.08,7.86Zm5-34.26.37.08v.52a1.43,1.43,0,0,0,.52-.38l.74.38-.15.51.89.15V87l.37-.07a1.53,1.53,0,0,1,.75,1.26c0,1.78-.82,3.34-.82,5.12,0,1,.3,2,.3,3a1.23,1.23,0,0,1-.67.23c-.52,0-.89-.45-1.41-.37-1.78-1-3.34-4.38-3.34-6.46,0-1.11.82-5,2.23-5Zm-1.56,31.37c3-4.37,5.94-8.75,9-13.12a23,23,0,0,0-3.27,3.93c-1.26,2.07-2.67,4.07-3.93,6.15a41.74,41.74,0,0,0-2.52,3.71A7.07,7.07,0,0,0,155.93,116.41Zm.23-10.83V106c.07-.08.07-.3.14-.45Zm2.52,8.38c-.37.08-.52.45-.67.75Zm.89-1.26c-.37.08-.67.23-.67.67v.15Zm2.44-3.11a5.53,5.53,0,0,0,.6-1.19,9.93,9.93,0,0,1-.89,1.41Zm1.63-2.15.23-.22a.27.27,0,0,1-.23-.08,6.16,6.16,0,0,0,.52-1.11l-.89,1.26.37-.15Zm1.41-2.6.23-.37v-.29a4.38,4.38,0,0,0-.67,1.11l.3-.15.14-.3a.43.43,0,0,1,.08.3.48.48,0,0,0,.07-.3Zm.08.3H165a.28.28,0,0,0-.07.22Zm.15-.59v.14c.07-.07.07-.07.07-.14Zm.59-1c0-.29.15-.52.15-.81l-.67,1.26.3-.15v.22l.15-.22h-.15Zm0,0v.22l.15-.22a.45.45,0,0,1,.07-.29H166c0,.07-.08.22,0,.29Zm1.26-2.45-.07.3-.3.08a.94.94,0,0,0,.3-.6Zm.15.23-.15.07-.07.22Zm.22-1.93.15.07a2.47,2.47,0,0,1-.52,1A5.4,5.4,0,0,0,167.5,99.43Zm.3.67V100h.07V100Zm.15-.37V100h-.08Zm0,.29V100H168Z" fill="#fff"/><path d="M176.47,112.41l.6-.6a.94.94,0,0,0,.59.37c-.22.3-.3.67-.52,1-1.11,1.7-5.19,3.71-7.19,3.71-4.6,0-7.57-4.53-7.57-8.75,0-4.75,3.79-15,9.42-15,2.89,0,5.49,2.29,6.75,4.74a3.12,3.12,0,0,1,.37,1.41c0,1.26-.59,2.37-.59,3.63a11,11,0,0,0,.52,2.15,4.24,4.24,0,0,1-3.86-4.44,8.09,8.09,0,0,1,.74-3.19h-.52a2.6,2.6,0,0,0-1.63.44c-4.6,3.41-5.63,9.86-5.63,15.2a3.36,3.36,0,0,0,.14.82c2.52-.22,4.23-1.34,6.23-2.67a4.81,4.81,0,0,1,1-.52l1.34,1ZM169,95.94c-.52,0-1.63,1.71-1.92,2.15A7.54,7.54,0,0,0,169,95.94Zm2.82,1.26-.67.23c-1.26.52-2.81,3.78-3.26,5H168a3.31,3.31,0,0,1,.66-1.11,19.94,19.94,0,0,1,3.27-4.16ZM170,97.06a1.78,1.78,0,0,0-1.26,1.26C169.13,97.87,169.58,97.5,170,97.06Zm6.45,1.18c-.08.08-.08.08-.08.15h.08Zm.37,13.5h-.07c0-.07.07-.07.07-.15Z" fill="#fff"/><path d="M205.76,123.53c1.26,0,2.52-.37,3.79-.37a27.12,27.12,0,0,1,3.33.44c-1.33,2.16-5.11,3-7.49,3-7.12,0-14.46-4.82-18.24-10.68-.22-.29-.3-.44-.67-.52v1.41c0,1.63.3,3.19.3,4.82,0,.52-.07,1-.07,1.56a17,17,0,0,1-2-.15,3.43,3.43,0,0,1-1.11-.44c-2.52-1.71-3-4.23-3-7,0-5.93,1.56-11.79,2.9-17.5S186.41,86.3,188,80.44c.81-3,2.89-9.34,2.89-12.16,0-1-.22-2-.22-3,.29,0,.51-.07.81-.07a2.67,2.67,0,0,1,.82.37c2,1.11,3,3.86,3,6.08,0,4.45-1.41,8.68-2.44,13-1.49,6.23-3.27,12.46-4.31,18.76a29.14,29.14,0,0,1,11.2-10.61,2,2,0,0,1,1.12-.37c1.33,0,3.33,1.71,3.33,3.12,0,2.08-2.07,4.45-3.33,5.93-2.82,3.34-5.64,6.68-8.38,10C194.42,115.74,200.57,123.53,205.76,123.53Zm-18.31-14.09h.07v-.07Zm2.59-4.67a39.89,39.89,0,0,1,2.67-4l.08-.14c-2.08,1.85-4.08,6.22-5.27,8.45A15.58,15.58,0,0,0,190,104.77Zm-1.85.52a44.12,44.12,0,0,1,2.52-4,17.83,17.83,0,0,0,1.11-1.48,1.84,1.84,0,0,0,.52-.52,38.29,38.29,0,0,1,5.79-5.12c-3.49,1.71-5.79,4.9-8.09,7.86a11.82,11.82,0,0,0-2,3.34Zm-.08,3.63.08.08v-.08Zm.3-2.52.07.15.15-.15Zm.45,3.26.44-.44,5.93-7c2.08-2.45,4.23-5,6.08-7.64l-.22-.15c-6,3.34-9.86,8.6-12.61,14.76Zm.14-4.08h-.14v.23Zm.08,1.56H189l.08.08Zm0-1.85v.22l.15-.22Zm.37-.52c-.08,0-.3.07-.3.22a.73.73,0,0,1,.08.22Zm.07-.37a.7.7,0,0,0-.07.37.61.61,0,0,0,.15-.3Zm.15,0,.22-.22a.26.26,0,0,1-.22-.08Zm.22-.6v.38a.57.57,0,0,0,.15-.3Zm.23-.29v.22l.14-.22Zm.29-.3h-.07a.43.43,0,0,0-.08.3A.53.53,0,0,0,190.41,103.21Zm.08-.37v.22l.15-.22Zm.37-.82-.15.3a.27.27,0,0,1-.07.22v.3a.57.57,0,0,0,.14-.37c.23-.07.23-.22.37-.37l-.07-.08Zm.37-.44V102a.58.58,0,0,0,.15-.29.4.4,0,0,1,.29-.08.27.27,0,0,0-.22-.07Zm.22,8-.07-.08v.08Zm.22.89a17.25,17.25,0,0,0,1.71-1.71l8.45-10.23a7.29,7.29,0,0,0,.74-1.56,16.48,16.48,0,0,1-1.33,1.93L192,110Zm0-9.42v.52a.62.62,0,0,0,.08-.37.4.4,0,0,0,.29-.08.29.29,0,0,1-.22-.07Zm.45-.52-.08.08v.51l.15-.37a.3.3,0,0,1,.23-.07.3.3,0,0,0-.23-.07Zm.3-.44v.59l.14-.45a.3.3,0,0,0,.23-.07.3.3,0,0,1-.23-.07Zm.74-.6a.3.3,0,0,0-.23-.07v.37l.15-.22a.42.42,0,0,0,.3-.08Zm1.41,5c-.08,0-.08,0-.08.08Zm.59-.74a4,4,0,0,0,.74-.89A2.15,2.15,0,0,0,195.16,103.73Zm1.19-1.33v-.08h-.08l-.22.37Zm.37-5.71-.08-.08-.29.22Zm0,5.19a1.53,1.53,0,0,0,.37-.52Zm1-1.12h-.07l-.3.37Zm2.82-3.56a17.24,17.24,0,0,0-2.3,2.9c.52-.52.82-1,1.33-1.56C199.68,98,200.28,97.72,200.5,97.2Zm.52-.66a1.24,1.24,0,0,0-.37.52Zm2-.37v.22a.29.29,0,0,0,.07-.22Z" fill="#fff"/><path d="M217.18,91.87a16.45,16.45,0,0,0-1.93-.38c-1.48,0-2.89,3-3.41,4.23a9,9,0,0,0-.59,3.71C213,98,214.51,95.94,217,95.94a8.24,8.24,0,0,1,3,1.19c-1.48,1.26-3.26,2.22-4.52,3.78-.89,1.11-1.71,2.23-2.52,3.41,2.15,4.23,4,7.72,4,12.61,0,4.45-4.38,8-8.68,8-2.74,0-6.15-1.63-6.15-4.82,0-4.75,3.71-11.79,5.86-16-1-2.3-2.3-4.75-2.3-7.34,0-3,2.59-8.75,6.15-8.75a7.69,7.69,0,0,1,5.79,3.41Zm-13.79,26.69h.07v-.29h-.07Zm.22-.74v-.3l-.15.3Zm.67-2.67a35.61,35.61,0,0,0,1.78-4.67,10.34,10.34,0,0,0,1-2.08,42.46,42.46,0,0,0-2.89,7.2Zm.3,3.41v-.07h-.08v.07Zm.14-.81v-.52a1.34,1.34,0,0,0-.07.52Zm.6,2.59c.74-4.45,2.59-8.6,4.37-12.68-.89.15-3.78,8.53-4.08,9.86-.22.89-.29,1.86-.44,2.75Zm4.89-10.68c-1.11,2.45-3.56,8.38-3.56,10.9A3.08,3.08,0,0,0,207,122c.23-.15.52-.15.74-.29a7.39,7.39,0,0,0,3.56-6.6,27.35,27.35,0,0,0-.89-5.49Zm-2.89-1.93a.84.84,0,0,0-.3.67A3,3,0,0,1,207.32,107.73ZM208,93.2a6.68,6.68,0,0,0,1-1.85A6.31,6.31,0,0,0,208,93.2Zm.74,18.24-.08.08h.08Zm.07-4.08v.08l.08-.08Zm.45-13.64a2.78,2.78,0,0,0,.89-1.78ZM212,92c-1.26.52-1.85,2.52-2.15,3.71C210.66,94.91,211.32,93.05,212,92Zm-.22,1.86-.08-.08v.08Zm0,25.21a1.3,1.3,0,0,0,.52-1.19A8.26,8.26,0,0,1,211.77,119.08Zm.15-25.58-.08.07h.08Zm.52,24-.15-.07v.37Zm.74,1.49c.37-.15.44-.37.44-.74v-.45Zm1,1.48a5.12,5.12,0,0,0,1.11-2.89c0-.22-.07-.37-.07-.6-.3.89-1.11,2.45-1,3.42h-.07Zm1.41-1.11.07-.08h-.07Zm.22-.52h-.07c0,.07,0,.07.07.07Z" fill="#fff"/></svg>