<svg xmlns="http://www.w3.org/2000/svg" width="260" height="107" viewBox="0 0 260 107"><path d="M51.53 106a17.51 17.51 0 0 1-2.39-4.22 13.39 13.39 0 0 1-.25-9.39 18.53 18.53 0 0 1 2.64-4.84h1.22c-.77 1.33-1.27 2.28-1.52 2.85a15.84 15.84 0 0 0-1.31 6.38 17.47 17.47 0 0 0 2.83 9.22zM55 101.89V87.82h4.78a11.75 11.75 0 0 1 2.47.2 4.84 4.84 0 0 1 2 1 5.73 5.73 0 0 1 1.64 2.41 9.59 9.59 0 0 1 .54 3.34 9.78 9.78 0 0 1-.37 2.84 6.85 6.85 0 0 1-.94 2 5.15 5.15 0 0 1-1.28 1.39 5.07 5.07 0 0 1-1.65.7 9.41 9.41 0 0 1-2.23.24zm1.83-1.66h3a6.86 6.86 0 0 0 2.07-.23 3 3 0 0 0 1.25-.73 4.56 4.56 0 0 0 1-1.78 8.89 8.89 0 0 0 .36-2.71 6.57 6.57 0 0 0-.72-3.39 3.59 3.59 0 0 0-1.73-1.59 7.19 7.19 0 0 0-2.38-.29h-2.9zM69 101.89V87.82h10v1.66h-8.2v4.31h7.68v1.65h-7.65v4.79h8.52v1.66zM87.22 101.89V87.82H90l3.28 10c.31.93.53 1.63.67 2.09.15-.51.4-1.27.73-2.26L98 87.82h2.47v14.07H98.7V90.12l-4 11.77H93l-4-12v12zM103.47 101.89V87.82h10v1.66h-8.2v4.31H113v1.65h-7.68v4.79h8.52v1.66zM116.35 101.89V87.82h1.89l7.29 11.05V87.82h1.76v14.07h-1.88l-7.3-11v11zM133.91 101.89V89.48h-4.57v-1.66h11v1.66h-4.59v12.41zM139.26 101.89l5.33-14.07h2l5.69 14.07h-2.1l-1.62-4.26h-5.8l-1.53 4.26zm4-5.78H148l-1.45-3.89c-.45-1.19-.77-2.16-1-2.92a17.69 17.69 0 0 1-.75 2.69z" fill="#fff"/><path d="M152.2 101.89l5.33-14.07h2l5.68 14.07h-2.11l-1.62-4.26h-5.81l-1.52 4.26zm4-5.78h4.7l-1.45-3.89c-.44-1.19-.77-2.16-1-2.92a18.92 18.92 0 0 1-.75 2.69zM166.59 101.89V87.82h1.83v12.41h6.84v1.66zM177.76 101.89V87.82h1.84v14.07zM182.21 97.37l1.73-.15a4 4 0 0 0 .58 1.73 3 3 0 0 0 1.4 1.09 5.19 5.19 0 0 0 2.13.42 5 5 0 0 0 1.85-.31 2.68 2.68 0 0 0 1.2-.87 2.05 2.05 0 0 0 .39-1.21 1.79 1.79 0 0 0-.38-1.15 2.7 2.7 0 0 0-1.25-.83 22.43 22.43 0 0 0-2.47-.69 12.28 12.28 0 0 1-2.68-.88 3.75 3.75 0 0 1-1.48-1.31 3.19 3.19 0 0 1-.49-1.75 3.6 3.6 0 0 1 .6-2 3.72 3.72 0 0 1 1.74-1.41 6.55 6.55 0 0 1 2.55-.48 6.77 6.77 0 0 1 2.72.51 4 4 0 0 1 1.82 1.48 4.3 4.3 0 0 1 .68 2.22l-1.76.13a2.88 2.88 0 0 0-1-2 3.65 3.65 0 0 0-2.41-.69 3.83 3.83 0 0 0-2.43.62 1.88 1.88 0 0 0-.77 1.5 1.59 1.59 0 0 0 .54 1.24 7.37 7.37 0 0 0 2.77 1 18.75 18.75 0 0 1 3.08.89 4.32 4.32 0 0 1 1.79 1.44 3.55 3.55 0 0 1 .57 2 3.85 3.85 0 0 1-.63 2.11 4.15 4.15 0 0 1-1.82 1.55 6.3 6.3 0 0 1-2.68.55 7.74 7.74 0 0 1-3.16-.56 4.43 4.43 0 0 1-2-1.67 4.85 4.85 0 0 1-.73-2.52zM199.31 101.89V89.48h-4.58v-1.66h11v1.66h-4.6v12.41zM208.52 106h-1.22a17.47 17.47 0 0 0 2.83-9.22 15.42 15.42 0 0 0-.41-3.58 14.7 14.7 0 0 0-.9-2.77 32.23 32.23 0 0 0-1.52-2.88h1.22a18.19 18.19 0 0 1 2.63 4.84 13.39 13.39 0 0 1-.25 9.39 17.49 17.49 0 0 1-2.38 4.22zM77.21 2.55l2 6 1.87-5.91a4 4 0 0 0 .21-1 .49.49 0 0 0-.56-.54h-.31a1.45 1.45 0 0 1-.3 0c-.36 0-.55-.17-.55-.5s.18-.48.53-.48a6.55 6.55 0 0 1 .9.22 6.07 6.07 0 0 0 .9.08A8 8 0 0 0 83.1.3a2.48 2.48 0 0 1 .45 0 .45.45 0 0 1 .51.5q0 .48-.51.48h-.45a.44.44 0 0 0-.38.23 5.28 5.28 0 0 0-.41 1L80 9.23a.89.89 0 0 1-.88.69.9.9 0 0 1-.91-.69l-2.49-7.1a2.64 2.64 0 0 0-.3-.66.74.74 0 0 0-.61-.24h-.51c-.36 0-.55-.16-.55-.48s.19-.5.56-.5a2.9 2.9 0 0 1 .38 0 7.41 7.41 0 0 0 1.38.15 8.55 8.55 0 0 0 1-.09 9.34 9.34 0 0 1 1-.1c.35 0 .52.16.52.47a.46.46 0 0 1-.53.51h-.46c-.4 0-.61.13-.61.39a1.33 1.33 0 0 0 .07.43zM89.89 8.14l-.5-1.38a.58.58 0 0 0-.17-.29 1 1 0 0 0-.37 0h-2.48a.55.55 0 0 0-.39.1 1.59 1.59 0 0 0-.27.53l-.41 1.04a1.11 1.11 0 0 0 0 .3q0 .45.54.45h.78c.39 0 .58.17.58.5s-.21.47-.63.47h-.31l-.7-.09a4.71 4.71 0 0 0-.64 0 5.22 5.22 0 0 0-.68 0l-.59.07c-.26 0-.45.05-.57.05-.36 0-.54-.16-.54-.47s.17-.5.53-.5a.2.2 0 0 1 .16.06h.19a.64.64 0 0 0 .57-.3 3.54 3.54 0 0 0 .28-.66L86.81.79a.86.86 0 0 1 .88-.59.83.83 0 0 1 .85.59l2.5 7a2.81 2.81 0 0 0 .43.88.73.73 0 0 0 .56.21h.56c.35 0 .53.16.53.47s-.18.5-.53.5a4 4 0 0 1-.41 0 12.31 12.31 0 0 0-1.31-.11c-.34 0-.9 0-1.67.12h-.45c-.37 0-.56-.16-.56-.49s.21-.48.62-.48h.74c.3 0 .46-.13.46-.38a1.86 1.86 0 0 0-.12-.37zm-1-2.88l-1.26-3.9-1.28 3.9a.43.43 0 0 0 0 .1q0 .12.21.12h2.22c.11 0 .17 0 .17-.11a.36.36 0 0 0-.06-.11zM97.14.89l3.75 7.9V3.1 1.88c-.08-.49-.31-.74-.7-.74h-.67a.43.43 0 0 1-.31-.14.42.42 0 0 1-.13-.32q0-.51.63-.51h.18l.63.08a5.32 5.32 0 0 0 .78.06 8.34 8.34 0 0 0 1-.08l.49-.06h.19c.4 0 .6.17.6.49s-.19.48-.57.48h-.29a.67.67 0 0 0-.56.18 1.72 1.72 0 0 0-.15.8v6a3.1 3.1 0 0 1-.22 1.36.79.79 0 0 1-.75.4c-.46 0-.85-.33-1.16-1l-3.68-7.7v6.68c0 .71.24 1.06.71 1.06h.34a2.33 2.33 0 0 1 .33 0 .4.4 0 0 1 .45.45q0 .48-.63.48h-.18l-.57-.09a5.69 5.69 0 0 0-.89-.07 7.29 7.29 0 0 0-.94.07l-.68.09h-.21c-.4 0-.6-.17-.6-.5s.15-.43.45-.43h.37a1 1 0 0 0 .3 0c.47 0 .71-.36.71-1.06V2.2c0-.7-.24-1.06-.72-1.06h-.28a2.73 2.73 0 0 1-.39.05c-.29 0-.44-.16-.44-.47s.2-.5.6-.5h.22a10.36 10.36 0 0 0 1.07.07 6.13 6.13 0 0 0 .63 0h.63a.58.58 0 0 1 .57.3zM109.24 2.19c0-.71-.24-1.06-.71-1.06h-.29a2.31 2.31 0 0 1-.38 0c-.29 0-.43-.15-.43-.45s.21-.5.63-.5h.18l.74.1a6.28 6.28 0 0 0 .89 0 6.79 6.79 0 0 0 .78 0l.91-.1a6.34 6.34 0 0 1 .69 0 5.41 5.41 0 0 1 2.12.37 3.62 3.62 0 0 1 1.77 1.67 5.69 5.69 0 0 1 .65 2.76 5.75 5.75 0 0 1-.52 2.49 3.51 3.51 0 0 1-1.41 1.63 4.93 4.93 0 0 1-2.59.64h-.63l-1-.08h-1a4.91 4.91 0 0 0-.75 0l-.67.1H108c-.4 0-.6-.17-.6-.5a.48.48 0 0 1 .12-.33.42.42 0 0 1 .31-.13 2 2 0 0 1 .38 0 1 1 0 0 0 .29 0c.47 0 .71-.35.71-1.06zm1.17-.14V8a.73.73 0 0 0 .63.79 6.29 6.29 0 0 0 1.17.06 3 3 0 0 0 2.43-.92 4.43 4.43 0 0 0 .91-2.9 4.91 4.91 0 0 0-.55-2.39 2.56 2.56 0 0 0-1.52-1.26A5.3 5.3 0 0 0 112 1.2a3.81 3.81 0 0 0-1.34.13c-.17.08-.25.32-.25.72zM119.4 2.19q0-1-.72-1a1.07 1.07 0 0 0-.29 0 2 2 0 0 1-.37.05.4.4 0 0 1-.31-.14.44.44 0 0 1-.13-.33c0-.33.2-.5.59-.5h.2c1.4.09 2 .14 1.95.14h.14l3.35-.1h1.13c.48 0 .72.22.72.65v2.86c0 .36-.17.54-.5.54s-.49-.25-.49-.75v-.8c0-.79-.16-1.26-.49-1.4a6.64 6.64 0 0 0-1.87-.15 8.32 8.32 0 0 0-1.17 0 .77.77 0 0 0-.6.85v1.45c0 .38.08.6.25.65a1.21 1.21 0 0 0 .33 0h.56c.58 0 .87-.2.87-.61a2.73 2.73 0 0 0 0-.44 4.12 4.12 0 0 1 0-.48c0-.37.16-.56.49-.56s.5.2.5.61q0 .11-.09.87a10.44 10.44 0 0 0-.08 1.15c0 .19 0 .52.06 1 0 .08 0 .24.07.5a3.39 3.39 0 0 1 0 .49.45.45 0 0 1-.5.51c-.33 0-.49-.2-.49-.59V6.2a3 3 0 0 0 0-.45c0-.4-.27-.61-.8-.61h-.62c-.27 0-.44 0-.5.14a1.34 1.34 0 0 0-.09.61v2.14c0 .38.08.61.22.71a1.76 1.76 0 0 0 .73.09h1.89a1.91 1.91 0 0 0 1.13-.24 1.14 1.14 0 0 0 .31-.93v-.63-.63c0-.42.16-.63.49-.63s.53.21.53.65v2.73a.58.58 0 0 1-.65.66h-4.19c-.87 0-1.73 0-2.56.09h-.21c-.39 0-.59-.17-.59-.51a.39.39 0 0 1 .44-.45h.37a1.55 1.55 0 0 0 .29 0c.48 0 .72-.35.72-1.06zM134.18 4.52a4.59 4.59 0 0 1-1 .34 1.66 1.66 0 0 1 1.13.62 2.94 2.94 0 0 1 .28 1.52v.81q0 1 .63 1c.43 0 .65-.4.65-1.21v-1a1.75 1.75 0 0 1 .06-.56.42.42 0 0 1 .43-.24c.33 0 .5.2.5.59V7.7a1.38 1.38 0 0 0 0 .25 1.75 1.75 0 0 1-.45 1.28 1.67 1.67 0 0 1-1.26.46 1.47 1.47 0 0 1-1.65-1.68v-1.1a1.66 1.66 0 0 0-.35-1.25 2.47 2.47 0 0 0-1.47-.3h-1.29c-.3 0-.45.18-.45.55V7a11.28 11.28 0 0 0 0 1.18c.09.48.32.71.7.71a1.11 1.11 0 0 0 .29 0h.36c.3 0 .45.15.45.47s-.2.49-.6.49h-.21l-.75-.1a5.59 5.59 0 0 0-.77 0 7.49 7.49 0 0 0-1 .07l-.66.08h-.21q-.6 0-.6-.51c0-.3.14-.45.43-.45h.38a1.55 1.55 0 0 0 .29 0c.47 0 .71-.35.71-1.06V2.19c0-.71-.24-1.06-.71-1.06a1.77 1.77 0 0 0-.34 0h-.33a.42.42 0 0 1-.31-.13.47.47 0 0 1-.06-.25c0-.33.2-.5.61-.5h.2l.71.07a6.6 6.6 0 0 0 .69 0h1l.99-.04h1c2.05 0 3.07.79 3.07 2.37a1.9 1.9 0 0 1-1.09 1.87zm-3.86-.11h1.31a3.56 3.56 0 0 0 1.76-.34 1.46 1.46 0 0 0 .71-1.37c0-1.07-.73-1.61-2.18-1.61a4.58 4.58 0 0 0-1.58.18.71.71 0 0 0-.43.69V4a.39.39 0 0 0 .09.31.57.57 0 0 0 .32.1zM143.56 4.3H148V2.22c0-.71-.24-1.06-.71-1.06H146.62a.4.4 0 0 1-.45-.46q0-.51.6-.51a5.4 5.4 0 0 1 .71.1 5.61 5.61 0 0 0 .95.09 8.27 8.27 0 0 0 1.4-.12c.27 0 .44-.07.53-.07.41 0 .61.17.61.51s-.14.46-.43.46h-.67c-.48 0-.71.35-.71 1.06v5.64c0 .71.23 1.06.69 1.06a1.94 1.94 0 0 0 .35 0h.34c.29 0 .43.15.43.45s-.2.51-.61.51a3.38 3.38 0 0 1-.55-.09 5.82 5.82 0 0 0-1.06-.09 7.93 7.93 0 0 0-1.29.08l-.67.1c-.41 0-.62-.17-.62-.5a.4.4 0 0 1 .45-.46h.33a2.38 2.38 0 0 0 .34 0c.39 0 .62-.25.7-.77V5.26h-4.46v2.88c.07.52.31.78.7.78a1.85 1.85 0 0 0 .34 0h.34c.29 0 .43.15.43.45s-.2.51-.61.51a5.27 5.27 0 0 1-.6-.09 7.83 7.83 0 0 0-1.13-.18 8.26 8.26 0 0 0-1.26.11l-.33.06h-.18c-.43 0-.65-.17-.65-.5a.45.45 0 0 1 .14-.32.39.39 0 0 1 .31-.14h.38a1 1 0 0 0 .29 0c.47 0 .71-.35.71-1.06V2.19c0-.71-.24-1.06-.71-1.06a1.61 1.61 0 0 0-.31 0 1.81 1.81 0 0 1-.36.05.4.4 0 0 1-.31-.15.45.45 0 0 1-.14-.32c0-.33.22-.5.65-.5a3.84 3.84 0 0 1 .51.08 8 8 0 0 0 1.3.09 5.85 5.85 0 0 0 .87-.08 6.22 6.22 0 0 1 .86-.09c.41 0 .61.17.61.51a.44.44 0 0 1-.12.32.43.43 0 0 1-.31.14 3.29 3.29 0 0 1-.38 0h-.3c-.46 0-.69.36-.7 1.06zM155.8 10.05a3.54 3.54 0 0 1-2.93-1.36A5.73 5.73 0 0 1 151.79 5a5.68 5.68 0 0 1 1.08-3.68 3.67 3.67 0 0 1 3-1.34 3.58 3.58 0 0 1 2.91 1.3 5.35 5.35 0 0 1 1.08 3.52 6.1 6.1 0 0 1-1.09 3.82 3.56 3.56 0 0 1-2.97 1.43zm0-9a2.43 2.43 0 0 0-2.08 1A5.07 5.07 0 0 0 153 5a5.14 5.14 0 0 0 .74 3 2.39 2.39 0 0 0 2.07 1 2.36 2.36 0 0 0 2.05-1.09 5.14 5.14 0 0 0 .76-3 5.06 5.06 0 0 0-.71-2.91 2.4 2.4 0 0 0-2.08-1zM164.94 10.05A3.54 3.54 0 0 1 162 8.69 5.73 5.73 0 0 1 160.92 5 5.63 5.63 0 0 1 162 1.34 3.67 3.67 0 0 1 165 0a3.58 3.58 0 0 1 2.91 1.3A5.35 5.35 0 0 1 169 4.82a6.11 6.11 0 0 1-1.1 3.82 3.54 3.54 0 0 1-2.96 1.41zm0-9a2.4 2.4 0 0 0-2.08 1 5.07 5.07 0 0 0-.71 2.95 5.14 5.14 0 0 0 .74 3 2.52 2.52 0 0 0 4.12 0 5.14 5.14 0 0 0 .76-3 5.06 5.06 0 0 0-.72-3A2.41 2.41 0 0 0 165 1zM174.51 7.87c0 .71.24 1.06.71 1.06h.33a1.77 1.77 0 0 1 .34 0 .48.48 0 0 1 .45.45c0 .33-.21.5-.63.5h-.18l-.69-.1a5.8 5.8 0 0 0-.88-.06 6.41 6.41 0 0 0-.93.06l-.7.1h-.19c-.41 0-.62-.17-.62-.5a.4.4 0 0 1 .45-.45 1.68 1.68 0 0 1 .33 0h.34c.46 0 .7-.35.7-1.06V2.13a.9.9 0 0 0-1-1h-.43a.89.89 0 0 0-1 1 4.34 4.34 0 0 0 0 .48v.52a3.21 3.21 0 0 1 0 .36c0 .59-.19.89-.55.89s-.51-.22-.51-.65v-.64-.86-.74-.63c0-.4.17-.6.52-.6H177.3c.46 0 .69.2.69.58v.53c0 .26-.05.52-.08.81V3c0 .3.06.65.06.74 0 .39-.18.58-.55.58s-.42-.22-.42-.69v-.76-.76c0-.65-.37-1-1.1-1h-.4a1 1 0 0 0-.73.22 1.09 1.09 0 0 0-.26.73l-.05 1zM180.1 5.2a.83.83 0 0 1-.61-.26.85.85 0 0 1-.25-.63.88.88 0 0 1 .25-.63.83.83 0 0 1 .61-.26.85.85 0 0 1 .62.26.93.93 0 0 1 .25.63.89.89 0 0 1-.25.63.85.85 0 0 1-.62.26zm0 4.78a.83.83 0 0 1-.61-.26.88.88 0 0 1-.25-.63.85.85 0 0 1 .25-.63.83.83 0 0 1 .61-.26.85.85 0 0 1 .62.26.89.89 0 0 1 .25.63.93.93 0 0 1-.25.63.85.85 0 0 1-.62.28zM86.17 49.17a18.7 18.7 0 0 1-1.42-7.3 16.32 16.32 0 0 1 1.6-7.42 11.08 11.08 0 0 1 4.57-4.81 13.56 13.56 0 0 1 1.44-.64 20 20 0 0 0-1.77-6.54c-1.14-2.16 0-3.43 0-3.43s-12 2.67-14.34 3.55A45 45 0 0 1 66 24.34c-2.79.16-6 2.38-9.26 2.38A19.7 19.7 0 0 0 51 27.83l.17-4.12a11.89 11.89 0 0 1-7.61.22c-2.16-.63-6.47.25-8.76.89s-5.45-.89-5.45-.89l-.06 7a7.48 7.48 0 0 1 1.12 1.7A9 9 0 0 1 29.16 42l-.11 12.49 2.41-.64c.51-.12 1.27.26 2.67.26s3.17 1.39 6.09 1.55h1.52a11.44 11.44 0 0 1-1.9-.63 8.59 8.59 0 0 1-3.84-3.2 9.22 9.22 0 0 1-1.48-4.89l3.36-.3A7.45 7.45 0 0 0 39 50a6.13 6.13 0 0 0 2.71 2.12 10.06 10.06 0 0 0 4.12.81 9.71 9.71 0 0 0 3.59-.62A5.46 5.46 0 0 0 50 52l.29-7.14a8.61 8.61 0 0 0-1-.44 45.49 45.49 0 0 0-4.78-1.33 24.33 24.33 0 0 1-5.19-1.7 7.31 7.31 0 0 1-2.87-2.53 6.27 6.27 0 0 1-.94-3.39 6.94 6.94 0 0 1 1.15-3.85 7.2 7.2 0 0 1 3.37-2.73A12.85 12.85 0 0 1 45 28a13.29 13.29 0 0 1 5.27 1 7.65 7.65 0 0 1 3.51 2.87 8.28 8.28 0 0 1 1.32 4.29l-3.41.26a5.58 5.58 0 0 0-1.86-3.9 7.14 7.14 0 0 0-4.68-1.32 7.42 7.42 0 0 0-4.7 1.2A3.62 3.62 0 0 0 39 35.26a3.09 3.09 0 0 0 1 2.41q1 .94 5.36 1.94A47.62 47.62 0 0 1 50.43 41l.14-3.34a9.49 9.49 0 0 1 1.07 2.05 9.1 9.1 0 0 1 .16 1.88 7.9 7.9 0 0 1 3 2.53A6.82 6.82 0 0 1 55.89 48a7.47 7.47 0 0 1-1.23 4.09A7.6 7.6 0 0 1 52.9 54c.89 2.85 1.91 5.71 1.91 5.71a9.76 9.76 0 0 1 4.69-1.52c2.41 0 3.68-1.15 6.22-1.4s4.7-.13 7.68-.63 9.6-3.43 12.49-3.43a10.53 10.53 0 0 0 2.23-.34 12.23 12.23 0 0 1-1.95-3.22zm-14.3-5v11.51h-3.56V44.15L58 28.46h4.32l5.3 8.21c1 1.53 1.89 3.07 2.73 4.6.81-1.42 1.78-3 2.93-4.81l5.21-8h4.14z" fill="#fff"/><path d="M28.22 42.91q-2.29 1.71-7.1 1.71h-6.89v11.06h-3.55V28.46h10.13a24.5 24.5 0 0 1 4.09.26 8.77 8.77 0 0 1 2.52.8c-.6-5.4-1.28-10.52-1.28-10.52a8.47 8.47 0 0 1-5.59 1.78c-3.17-.26-7.48-2-10.27 0s-4.7 1.88-6.85 1.88H0S4.19 40.55 3.81 42s-1.53 2.23-.51 3.5 2.54 9.26 2.41 11 1.14 6.09 1.14 6.09 3.3-1.65 6.22-.89 5.83-2.16 8.5-2.28 6.47.25 8.37-.51c0 0 1.27-.26-.89-4.44-1.74-3.35-1.05-7.24-.83-11.56zM51.88 50.35a3.87 3.87 0 0 0 .58-2.06 3.54 3.54 0 0 0-.73-2.23c0 1.11-.08 2.12-.08 2.76a8.06 8.06 0 0 0 .23 1.53zM166.4 50.62a3.89 3.89 0 0 0 .76-2.33 3.54 3.54 0 0 0-.73-2.23 5.36 5.36 0 0 0-2.43-1.61 44.74 44.74 0 0 0-4.78-1.33 33.68 33.68 0 0 1-4.13-1.22 6.31 6.31 0 0 0-.06.81c0 1.39-.51 2.79-.76 5.07a14.07 14.07 0 0 1-.54 2.31 6.09 6.09 0 0 0 2.63 2 10.1 10.1 0 0 0 4.12.81 9.67 9.67 0 0 0 3.59-.62 4.84 4.84 0 0 0 2.33-1.66z" fill="#fff"/><path d="M24.42 31.91a15 15 0 0 0-3.31-.24h-6.88v9.73h7q3.45 0 4.89-1.3a4.62 4.62 0 0 0 1.45-3.65 5 5 0 0 0-.85-2.93 4 4 0 0 0-2.3-1.61zM152.41 53.77c-.27.68-.46 1.12-.46 1.12l2.5.13a8.58 8.58 0 0 1-2.04-1.25zM150.15 50.88a9.41 9.41 0 0 1-1-3.94l1-.09a18.44 18.44 0 0 0-.82-7.5c-1.27-3.62-2.92-5.78-2.92-8.7s-.12-8.37-.12-8.37-3.56-.89-6.22.76-3.3 3.96-6.22 2.96-4.31-.51-7.23 1-6.85-.71-7.23-2a11.49 11.49 0 0 0-1.65-3h-16.87s-1.78 3.35-7 2.3c0 0 .22 1.78.44 4a13.7 13.7 0 0 1 3.1-.34 10.88 10.88 0 0 1 6.78 2.08 10.72 10.72 0 0 1 3.81 5.89l-3.5.83a8.41 8.41 0 0 0-2.71-4.33 7.16 7.16 0 0 0-4.47-1.35 10.42 10.42 0 0 0-2.76.35 24.25 24.25 0 0 1 .05 5.19 24 24 0 0 0 .59 10c-.65-.85-1.3-1.73-1.73-2.36-1.15-1.65-2-7-1.27-10.78.06-.33.11-.66.14-1a1.37 1.37 0 0 1-.2.13 8 8 0 0 0-2.92 4 16.51 16.51 0 0 0-.84 5.23 16.7 16.7 0 0 0 1 6.06 7.74 7.74 0 0 0 2.42 3.4c1.43-.48 2.81-1 3.82-1.36 0 .91.07 1.93.07 3a8.58 8.58 0 0 0 1.35.11 7.59 7.59 0 0 0 5.06-1.75 9 9 0 0 0 2.9-5.16l3.55.91a12.12 12.12 0 0 1-4 6.77 11 11 0 0 1-7.1 2.33c-.58 0-1.13 0-1.67-.08-.09 5.25-.43 10.62-.43 10.62a45 45 0 0 1 7.36 0 19.82 19.82 0 0 0 9.29-.89c3.93-1.27 8.12 2.66 11.16 2.66s9.77-3 12.95-3 4.18 1.77 6.59 1.77a70.4 70.4 0 0 0 7.74-.88s1.91-5.21 1.4-7.62c-.42-2.15-1.45-4.55-1.69-7.85zm-16.08 4.8h-3.56V42.85h-14v12.83H113V28.46h3.56v11.18h14V28.46h3.56zm10.08 0h-3.56V28.46h3.56zM220.18 42.85h-14V54a11 11 0 0 1 3.25-1.53c2.79-.64 4.31 1.27 6 1.27.53 0 2.42-.07 4.75-.16z" fill="#fff"/><path d="M258.7 40.8c.76-4.18 1.76-10.78 1.07-15.47a67.6 67.6 0 0 1-.69-8.76 30.17 30.17 0 0 1-5.08 0 17.74 17.74 0 0 0-5.2 0c-1 .26-1.78-1.77-3.68-1.77s-3.8 1.39-5.58.76-6.22-2.92-6.22-2.92l.51 12.81s-12.18 2-17.13 1.91-7-1.65-10.72-1.91-12.12-.76-17.57-.63-5.58 1-12.31.38-17.25-1.52-17.25-1.52a31.57 31.57 0 0 0-.39 4.37c.4 0 .81-.05 1.23-.05a13.27 13.27 0 0 1 5.31 1 7.55 7.55 0 0 1 3.51 2.87 8.28 8.28 0 0 1 1.32 4.29l-3.4.26a5.66 5.66 0 0 0-1.86-3.9 7.19 7.19 0 0 0-4.69-1.32h-1.13a5.47 5.47 0 0 0 .15.58c.88 2.91.5 3.68-1.27 4.94a5 5 0 0 0-1.41 1.74 27.75 27.75 0 0 0 3.89 1.13 34.53 34.53 0 0 1 5.89 1.76 8.13 8.13 0 0 1 3.46 2.77 6.82 6.82 0 0 1 1.13 3.88 7.47 7.47 0 0 1-1.23 4.09 8.09 8.09 0 0 1-3.53 3 10 10 0 0 1-1.26.49c8.89.47 19.78 1 23.2 1.09 6.09.13 9.9-.12 12.31 0l2.41.13s.54-.47 1.36-1.11h-1.19V28.46h3.56v11.18h14V28.46h3.56v25l6-.24V28.46h19.42v3.21h-15.92V40h14.87v3.2h-14.87v9.27h16.5v3.21h-17.31l.47 7.58a8.81 8.81 0 0 1 4.32-1 8.57 8.57 0 0 0 4.44-.26c1.52-.5.25 2.41 5.71 1.27s9.64-1.65 11.79-1.39c0 0 1.27-.77 0-7.11s-1.26-9.77-.5-13.97zm-64.55 13a11 11 0 0 1-7.1 2.33 12.69 12.69 0 0 1-7.05-1.77 11.26 11.26 0 0 1-4.14-5.19 18.7 18.7 0 0 1-1.42-7.3 16.2 16.2 0 0 1 1.6-7.42 11.08 11.08 0 0 1 4.57-4.81A13.12 13.12 0 0 1 187.1 28a10.88 10.88 0 0 1 6.78 2.08 10.72 10.72 0 0 1 3.83 5.85l-3.5.83a8.41 8.41 0 0 0-2.71-4.33 7.2 7.2 0 0 0-4.5-1.35 8.63 8.63 0 0 0-5.18 1.5 7.93 7.93 0 0 0-2.92 4 16.51 16.51 0 0 0-.84 5.23 16.92 16.92 0 0 0 1 6.06 7.54 7.54 0 0 0 3.11 3.87 8.6 8.6 0 0 0 4.56 1.29 7.59 7.59 0 0 0 5.06-1.75 9 9 0 0 0 2.81-5.18l3.55.91a12.18 12.18 0 0 1-4 6.81z" fill="#fff"/></svg>