<?xml version="1.0" encoding="UTF-8"?><svg id="logos" xmlns="http://www.w3.org/2000/svg" width="250" height="43" viewBox="0 0 250 43"><path d="M15.76,20.21c-.08-.3-.36-.5-.66-.5-.06,0-.12,0-.18,.02l-7.88,2.13c2.48-3.71,8.06-12.64,7.05-16.48-.41-1.54-1.52-2.39-3.15-2.39C6.97,3,.53,8.06,.26,8.28c-.24,.19-.32,.51-.21,.79l.98,2.47c.08,.21,.27,.37,.5,.42,.04,0,.09,.01,.14,.01,.18,0,.36-.07,.49-.2,1.35-1.37,4.02-3.56,5.41-3.56,.31,0,.45,.12,.53,.22,.27,.33,.88,1.92-2.75,8.42-2.03,3.64-4.38,6.99-4.41,7.02-.12,.17-.15,.38-.1,.57l.8,2.92c.08,.3,.36,.5,.66,.5,.06,0,.12,0,.18-.02l13.67-3.68c.18-.05,.32-.16,.41-.32,.09-.16,.11-.34,.06-.52l-.86-3.09Z" fill="#fff"/><path d="M25.95,2.15h-.03c-.07,0-.13,.02-.19,.04l-4.33,1.34c-.26,.08-.45,.31-.48,.59l-1.97,21.2c-.02,.2,.05,.4,.19,.54,.13,.13,.3,.21,.49,.21,.02,0,.03,0,.05,0l3.36-.22c.32-.02,.59-.27,.63-.59L26.62,2.96s.01-.08,.01-.12c0-.38-.3-.68-.68-.68Z" fill="#fff"/><path d="M47.21,2.24c0-.38-.3-.68-.68-.68h-.03c-.06,0-.13,.02-.19,.04l-4.33,1.34c-.26,.08-.45,.31-.48,.59l-1.97,21.2c-.02,.2,.05,.4,.19,.54,.13,.13,.3,.21,.49,.21,.02,0,.03,0,.05,0l3.36-.22c.32-.02,.59-.27,.63-.59l2.96-22.28s.01-.08,.01-.12Z" fill="#fff"/><path d="M36.73,12.39c-.12-.1-.28-.16-.43-.16-.03,0-.05,0-.08,0l-8.1,.94c-.34,.04-.6,.32-.6,.66l-.05,2.73c0,.2,.08,.39,.23,.52,.13,.11,.29,.17,.45,.17,.03,0,.07,0,.1,0l8.33-1.22c.35-.05,.61-.37,.58-.72l-.18-2.45c-.01-.18-.1-.36-.25-.47Z" fill="#fff"/><path d="M62.71,4.14c-.21-1.85-1.49-2.88-3.6-2.88-4,0-10.24,3.59-10.51,3.74-.26,.15-.39,.45-.32,.75l.62,2.58c.05,.22,.22,.41,.43,.48,.07,.03,.15,.04,.23,.04,.15,0,.29-.05,.41-.14,1.01-.77,4-2.75,5.64-2.75,.47,0,.63,.17,.72,.31,.22,.37,.6,2.02-3.93,7.94-2.53,3.31-5.34,6.28-5.37,6.31-.14,.15-.21,.35-.18,.55l.37,3c.04,.34,.34,.6,.67,.6,.03,0,.05,0,.08,0l14.06-1.68c.18-.02,.34-.11,.46-.26,.11-.14,.16-.32,.14-.5l-.4-3.18c-.04-.34-.34-.6-.67-.6-.03,0-.05,0-.08,0l-8.12,.98c1.06-1.18,2.65-3.01,4.2-5.03,3.66-4.73,5.39-8.19,5.15-10.27Z" fill="#fff"/><path d="M93.97,5.55l.98-3.03c.03-.08,.04-.16,.04-.24,0-.38-.3-.68-.68-.68h-.02s-.04,0-.05,0l-21.04,1.9c-.28,.03-.51,.22-.59,.49l-.93,3.2c-.06,.22-.01,.45,.13,.62,.13,.16,.32,.25,.52,.25,.02,0,.04,0,.07,0l6.7-.65-6.87,15.46c-.1,.22-.07,.48,.07,.68,.13,.18,.33,.28,.55,.28,.02,0,.05,0,.07,0l5.03-.54c.25-.03,.47-.19,.56-.43l6.13-15.97,8.73-.85c.27-.03,.5-.21,.58-.47Z" fill="#fff"/><path d="M87.28,22.98c.12,.2,.34,.33,.57,.33l4.82,.09h.01c.27,0,.51-.16,.62-.4L102.71,2.16c.09-.2,.08-.42-.03-.61s-.29-.32-.5-.34l-3.4-.46s-.06,0-.09,0c-.25,0-.49,.14-.61,.37l-10.82,21.22c-.11,.21-.1,.46,.02,.66Z" fill="#fff"/><path d="M119.5,24.22c.31,0,.58-.21,.66-.5l5.73-21.17c.05-.18,.02-.37-.08-.53-.1-.16-.26-.27-.44-.31l-2.47-.51s-.09-.01-.14-.01c-.16,0-.31,.06-.44,.16l-9.24,7.74,.19-7.39c0-.34-.24-.64-.58-.69l-4.14-.61s-.07,0-.1,0c-.25,0-.48,.14-.6,.36l-10.8,20.35c-.11,.21-.11,.46,.01,.66,.12,.2,.34,.33,.57,.34l3.75,.07h.01c.26,0,.49-.14,.61-.37l6.37-12.48,1.22,6.5c.05,.24,.22,.44,.45,.52,.07,.03,.15,.04,.22,.04,.16,0,.32-.06,.45-.17l8.44-7.39-5.12,14.43c-.07,.21-.04,.44,.08,.62s.33,.29,.55,.29l4.82,.09h.01Z" fill="#fff"/><path d="M142.76,2.46l-10.57-.19h-.01c-.27,0-.52,.16-.63,.41l-8.8,20.65c-.09,.21-.07,.46,.06,.65,.13,.19,.34,.3,.56,.3h.02l12.18-.38c.33-.01,.6-.25,.65-.58l.53-3.47c.03-.2-.03-.41-.17-.56-.13-.14-.31-.23-.51-.23h-.03l-7.24,.33,1.46-3.1,4.95,.03h0c.29,0,.55-.18,.64-.46l.99-2.86c.07-.21,.04-.43-.09-.61s-.33-.29-.55-.29l-4.3-.08,2.63-5.56,7.34-.06c.29,0,.55-.19,.64-.47l.85-2.59c.07-.21,.03-.43-.09-.61s-.33-.28-.54-.29Z" fill="#fff"/><path d="M168.49,27l1.06-25.64c.01-.32-.2-.61-.51-.69l-2.46-.65c-.06-.02-.12-.02-.17-.02-.21,0-.42,.1-.55,.28l-14.54,20.07c-.11,.15-.15,.35-.12,.54s.15,.35,.32,.45l3.04,1.81c.11,.06,.23,.1,.35,.1,.06,0,.12,0,.17-.02,.18-.05,.33-.16,.42-.32l4.34-7.54,4.62,.08-1.3,11.87c-.02,.2,.05,.41,.19,.55,.13,.13,.3,.2,.48,.2,.02,0,.05,0,.07,0l3.96-.42c.34-.04,.59-.31,.61-.65Zm-2.53-20.6l-.48,5.02-2.62-.05,3.1-4.97Z" fill="#fff"/><path d="M172.33,22.9l4.28,.08h.01c.3,0,.56-.19,.65-.48l5.26-16.62,5.15,.09h.01c.32,0,.59-.22,.66-.53l.65-2.79c.05-.2,0-.41-.13-.57-.13-.16-.32-.26-.53-.26l-14.34-.26h-.01c-.28,0-.53,.17-.63,.43l-1.15,2.89c-.08,.21-.06,.45,.07,.63,.13,.19,.34,.3,.56,.3h5.16l-6.32,16.15c-.08,.21-.06,.44,.07,.63s.33,.3,.55,.3Z" fill="#fff"/><path d="M204.84,5.95c.29,0,.55-.19,.65-.47l.81-2.46c.07-.21,.03-.43-.09-.61-.13-.18-.33-.28-.54-.29l-14.18-.25h-.01c-.27,0-.52,.16-.63,.42l-1.14,2.73c-.09,.21-.06,.45,.06,.64,.13,.19,.34,.3,.57,.3h4.81l-6.34,15.75c-.08,.21-.06,.44,.06,.63,.12,.19,.33,.3,.56,.3l4.5,.08h.01c.3,0,.56-.19,.65-.48l5.15-16.3h5.11Z" fill="#fff"/><path d="M213.82,1.23l-2.53-.05h-.01c-.23,0-.44,.11-.56,.3l-13.26,19.6c-.11,.16-.14,.36-.1,.55,.05,.19,.17,.35,.35,.44l3.43,1.76c.1,.05,.21,.08,.31,.08,.24,0,.48-.13,.6-.36l3.81-7.24,4.41-.4-.51,11.35c0,.21,.08,.42,.25,.56,.12,.1,.28,.16,.43,.16,.05,0,.11,0,.16-.02l4.03-.97c.31-.08,.53-.36,.52-.68l-.66-24.41c0-.36-.3-.66-.67-.66Zm-2.59,6.9l-.18,3.87-2.05,.11,2.24-3.98Z" fill="#fff"/><path d="M231.26,16.45c-.12-.14-.29-.23-.47-.24l-2.63-.21s-.04,0-.05,0c-.28,0-.53,.17-.63,.43-.01,.03-1.38,3.36-3.8,3.36-.13,0-.25,0-.38-.03-.44-.06-.77-.29-1.02-.71-1.02-1.73-.3-5.94,.35-7.62,.7-1.8,2.98-5.73,5.2-5.73,.14,0,.29,.02,.43,.05,1.63,.41,1.89,3.04,1.89,3.07,.03,.35,.32,.61,.67,.62l3.08,.06h.01c.18,0,.36-.07,.49-.21,.13-.14,.2-.32,.19-.51,0-.07-.09-1.73-.74-3.5-.89-2.46-2.43-3.93-4.43-4.25-.28-.04-.57-.07-.87-.07-4.58,0-10.23,5.36-11.62,11.03-1,4.09-.68,7.78,.9,10.12,.97,1.45,2.42,2.35,4.18,2.61,.39,.06,.78,.09,1.16,.09,4.61,0,7.88-4.07,8.26-7.84,.02-.18-.04-.36-.15-.5Z" fill="#fff"/><path d="M249.96,6.3l.04-2.31c0-.37-.28-.67-.64-.69l-1.37-.08h-.04c-.18,0-.35,.07-.48,.19l-7.83,7.64,2.85-7.87c.03-.08,.05-.17,.05-.26,0-.37-.3-.68-.68-.68h-.03s-.05,0-.08,0l-3.62,.48c-.25,.03-.46,.2-.55,.44l-7.98,22.06c-.08,.21-.04,.45,.09,.63,.13,.17,.33,.28,.55,.28h.03l4.4-.2c.28-.01,.53-.2,.62-.46l2.13-6.33,5.91,10.19c.12,.21,.35,.34,.59,.34,.02,0,.04,0,.06,0l5.23-.46c.24-.02,.45-.16,.55-.38s.09-.47-.04-.67l-8.52-13.2,8.54-8.19c.13-.13,.21-.3,.21-.48Z" fill="#fff"/><path d="M77.88,29.78l-.5-.08-2.65,12.67,.81-.2c.29-.07,7.11-1.83,7.68-6.51,.47-3.85-3.29-5.53-5.34-5.88Zm4.3,5.75c-.38,3.09-4.33,4.77-6.08,5.37l2.09-9.97c1.25,.33,4.37,1.47,3.99,4.6Z" fill="#fff"/><path d="M88.16,29.79c-.28-.08-.57,.08-.65,.35l-2.55,8.67c-.08,.28,.08,.57,.36,.65,.05,.01,.1,.02,.15,.02,.23,0,.44-.15,.5-.38l2.55-8.67c.08-.28-.08-.57-.36-.65Z" fill="#fff"/><path d="M91.7,29.8l-.28,.09-1.42,5.32v.02l-.97,3.61c-.07,.28,.09,.57,.37,.64,.05,.01,.09,.02,.14,.02,.23,0,.44-.15,.51-.39l.88-3.3c.37-.07,1.01-.21,1.75-.42l3.82,4.83c.1,.13,.26,.2,.41,.2,.11,0,.23-.04,.32-.11,.23-.18,.27-.51,.09-.74l-3.57-4.52s.04-.01,.07-.02c2.3-.83,3.61-1.9,3.89-3.18,.23-1.05-.14-1.65-.48-1.97-1.42-1.3-5.11-.2-5.53-.08Zm4.99,1.82c-.27,1.23-2.18,2.11-3.92,2.65-.02,0-.05,.01-.07,.02-.52,.16-1.03,.29-1.46,.38l1.05-3.96c1.38-.39,3.54-.71,4.23-.07,.08,.07,.32,.29,.17,.97Z" fill="#fff"/><path d="M105.35,30.63h-3.96l-2.18,9.78h5.02c.29,0,.52-.23,.52-.52s-.23-.52-.52-.52h-3.71l.74-3.32h1.85c.29,0,.52-.23,.52-.52s-.23-.52-.52-.52h-1.62l.74-3.32h3.12c.29,0,.52-.23,.52-.52s-.23-.52-.52-.52Z" fill="#fff"/><path d="M113.62,38.51c-.25-.14-.57-.05-.71,.2,0,.01-.86,1.47-2.61,1.23-.71-.1-1.27-.43-1.66-1-.66-.96-.78-2.55-.32-4.46,.21-.87,.63-1.49,1.25-1.86,1.24-.72,2.91-.26,2.93-.25,.27,.08,.57-.08,.65-.36,.08-.28-.08-.57-.36-.65-.09-.02-2.11-.6-3.75,.35-.88,.51-1.47,1.36-1.75,2.52-.53,2.24-.37,4.07,.48,5.3,.55,.81,1.38,1.31,2.38,1.44,.19,.03,.37,.04,.54,.04,2.08,0,3.08-1.71,3.13-1.79,.14-.25,.05-.57-.2-.71Z" fill="#fff"/><path d="M122.6,31.68c.29,0,.52-.23,.52-.52s-.23-.52-.52-.52h-7.29c-.29,0-.52,.23-.52,.52s.23,.52,.52,.52h3.31l-2.08,8.7c-.07,.28,.11,.56,.39,.63,.04,0,.08,.01,.12,.01,.24,0,.45-.16,.51-.4l2.14-8.94h2.91Z" fill="#fff"/><path d="M140.48,30.3c-1.46-1.28-5.07-.14-5.48,0l-.25,.08-2.82,8.99c-.09,.28,.07,.57,.34,.66,.05,.02,.11,.02,.16,.02,.22,0,.43-.14,.5-.37l.98-3.12c.4-.07,1.11-.21,1.94-.44l3.6,4.69c.1,.13,.26,.2,.42,.2,.11,0,.22-.04,.32-.11,.23-.18,.27-.5,.1-.73l-3.37-4.39c1.82-.65,3.78-1.73,4.12-3.45,.21-1.1-.18-1.71-.54-2.03Zm-.49,1.83c-.27,1.38-2.24,2.32-4.06,2.87-.03,0-.05,.01-.08,.02-.57,.17-1.12,.31-1.6,.4l1.33-4.22c1.35-.4,3.49-.75,4.2-.12,.09,.08,.35,.31,.21,1.05Z" fill="#fff"/><path d="M126.52,31.71c-1.48-.05-2.7,.75-3.46,2.23-1.01,1.96-.93,4.62,.17,6.06,.54,.71,1.3,1.08,2.17,1.08,.23,0,.47-.03,.71-.08,2.77-.59,3.54-3.19,3.36-5.23-.18-1.98-1.25-4.01-2.95-4.07Zm-.63,8.27c-.77,.17-1.39-.04-1.83-.62-.85-1.11-.88-3.37-.07-4.94,.39-.77,1.13-1.67,2.41-1.67,.03,0,.06,0,.09,0,.92,.03,1.78,1.43,1.93,3.11,.15,1.69-.43,3.66-2.53,4.11Z" fill="#fff"/><path d="M145.42,27.57c-.27,.11-.39,.42-.27,.69,.01,.03,1.14,2.72-.68,4.47-.21,.2-.21,.53-.01,.74,.1,.11,.24,.16,.38,.16s.26-.05,.36-.15c2.33-2.25,.97-5.5,.91-5.64-.11-.27-.42-.39-.69-.27Z" fill="#fff"/><path d="M151.05,34.05c-1.57-.81-2.13-1.2-1.75-2.16,.22-.57,.54-.9,.98-1.01,1.09-.29,2.72,.79,3.26,1.23,.22,.18,.55,.15,.74-.07,.18-.22,.15-.55-.07-.74-.1-.08-2.36-1.91-4.19-1.43-.77,.2-1.34,.75-1.69,1.64-.75,1.93,.91,2.78,2.25,3.47,1.52,.78,2.96,1.52,2.77,3.48-.18,1.84-1.25,2.5-2.19,2.51h-.02c-1.25,0-2.64-1.04-2.88-3.03-.03-.29-.3-.49-.58-.46-.29,.03-.49,.3-.46,.58,.31,2.6,2.2,3.95,3.92,3.95h.04c1.33-.01,2.97-.93,3.22-3.46,.26-2.67-1.82-3.74-3.33-4.52Z" fill="#fff"/><path d="M170.49,31.45c-1.38,.17-2.66,1.19-3.43,2.72-.84,1.66-.88,3.55-.1,4.93,.63,1.12,1.46,1.75,2.46,1.88,.12,.01,.23,.02,.35,.02,1.85,0,3.49-1.72,3.57-1.79,.2-.21,.19-.54-.02-.74-.21-.2-.54-.19-.74,.02-.43,.46-1.82,1.6-3.03,1.45-.65-.08-1.21-.53-1.67-1.35-.61-1.08-.56-2.59,.12-3.94,.61-1.22,1.6-2.03,2.62-2.15,2.08-.26,2.39,1.31,2.42,1.49,.04,.28,.31,.48,.59,.44,.29-.04,.48-.31,.44-.59-.14-.96-1.07-2.69-3.59-2.38Z" fill="#fff"/><path d="M183.64,32.58h0c-.29,0-.52,.24-.52,.53,.01,1.41-.3,5.31-1.87,6.43-.49,.35-1.07,.4-1.77,.15-.82-.29-1.37-.78-1.68-1.52-.94-2.28,.82-5.96,.84-6,.13-.26,.02-.57-.24-.7-.26-.13-.57-.02-.7,.24-.08,.17-1.99,4.14-.87,6.85,.42,1.01,1.19,1.72,2.3,2.11,.41,.14,.8,.21,1.17,.21,.57,0,1.09-.17,1.56-.5,2.32-1.66,2.31-7.06,2.31-7.29,0-.29-.24-.52-.52-.52Z" fill="#fff"/><path d="M193.98,30.78h-8.27c-.29,0-.52,.23-.52,.52s.23,.52,.52,.52h3.8l-2.24,9.16c-.07,.28,.1,.56,.38,.63,.04,.01,.08,.02,.13,.02,.24,0,.45-.16,.51-.4l2.3-9.41h3.39c.29,0,.52-.23,.52-.52s-.23-.52-.52-.52Z" fill="#fff"/></svg>