<svg xmlns="http://www.w3.org/2000/svg" width="250" height="150" viewBox="0 0 250 150"><path fill="#fff" d="M25.93 18.18h7.48V5.83h5.15V0H20.79v5.83h5.14v12.35zM47.88 11.95h4.65v6.23h7.48V0h-7.48v5.99h-4.65V0H40.4v18.18h7.48v-6.23zM77.03 12.75h-6.66v-1.07h6.01V6.26h-6.01v-.84h6.57V0H62.89v18.18h14.14v-5.43zM92.37 49.08V30.9H84.9v5.99h-4.65V30.9h-7.48v18.18h7.48v-6.24h4.65v6.24h7.47zM104.35 49.29c6.78 0 9.81-4.67 9.81-9.3s-3-9.31-9.81-9.31-9.82 4.67-9.82 9.32c0 5.55 3.95 9.29 9.82 9.29zm0-12.07c2.13 0 2.36 1.93 2.36 2.77 0 1.73-.87 2.77-2.33 2.77S102 41.75 102 40s.85-2.78 2.32-2.78zM123.8 30.9h-7.48v18.18h13.95v-5.84h-6.47V30.9zM145.9 43.24h-6.47V30.9h-7.48v18.18h13.95v-5.84zM182.37 49.08l6.16-18.18h-7.27l-1.22 5.04-1.48-5.04h-5.47l-1.4 5.04-1.3-5.04h-13.64l-2.58 4.58-2.64-4.58h-9.02l7.19 10.25v7.93h7.48v-7.71l6.41-9.13 5.92 16.84h4.71l1.67-6.02 1.78 6.02h4.7zM198.06 49.29c6.78 0 9.82-4.67 9.82-9.3s-3-9.31-9.82-9.31-9.81 4.67-9.81 9.31c0 5.56 3.94 9.3 9.81 9.3zm0-12.07c2.13 0 2.36 1.93 2.36 2.77 0 1.73-.87 2.77-2.34 2.77s-2.33-1-2.33-2.77.82-2.77 2.25-2.77zM219.12 49.29c6.78 0 9.82-4.67 9.82-9.3s-3-9.31-9.82-9.31-9.81 4.67-9.81 9.31c0 5.56 3.94 9.3 9.81 9.3zm0-12.07c2.13 0 2.36 1.93 2.36 2.77 0 1.73-.87 2.77-2.34 2.77s-2.33-1-2.33-2.77.82-2.77 2.29-2.77zM250 40c0-4.4-2.55-9.11-9.72-9.11h-9.18v18.19h9.26c5.94 0 9.64-3.48 9.64-9.08zm-10.71-3.49c2.67 0 3.23 1.9 3.23 3.49 0 2.42-1 3.45-3.23 3.45h-.71v-6.93zM0 90.66h5.14V103h7.48V90.66h5.15v-5.84H0v5.84zM27.09 96.5h6.01v-5.42h-6.01v-.83h6.57v-5.43H19.61V103h14.15v-5.42h-6.67V96.5zM43.59 84.82h-7.48V103h13.95v-5.84h-6.47V84.82zM59.21 96.5h6.02v-5.42h-6.02v-.83h6.57v-5.43H51.74V103h14.14v-5.42h-6.67V96.5zM77.28 93.42l-3.1-8.6h-8.12L73.71 103h6.14l7.54-18.18h-7.15l-2.96 8.6zM88.45 84.82h7.48V103h-7.48zM107.78 92.09c-2.12-1.07-2.43-1.42-2.43-1.54s.44-.28.74-.28c1 0 2 .58 3.53 1.93l1.43 1.3v-6.71l-.34-.25A9 9 0 0 0 105 84.6c-4.61 0-6.67 2.93-6.67 5.83 0 2.53 1.13 4.19 3.67 5.41a8.65 8.65 0 0 1 2.46 1.43c0 .16-.34.28-.79.28a7.28 7.28 0 0 1-4-1.5l-1.33-.9v6.63l.5.23a14.53 14.53 0 0 0 6 1.21c4 0 6.82-2.37 6.82-5.76.04-2.33-1.21-4.04-3.88-5.37zM113.86 84.82h7.48V103h-7.48zM133.31 84.6c-6.78 0-9.81 4.68-9.81 9.31 0 5.57 3.94 9.31 9.81 9.31 6.78 0 9.81-4.68 9.81-9.31s-3.03-9.31-9.81-9.31zm0 12.08c-1.48 0-2.34-1-2.34-2.77s.85-2.77 2.32-2.77c2.13 0 2.36 1.94 2.36 2.77 0 1.74-.88 2.77-2.34 2.77zM158.3 91.87l-6.88-7.05h-6.14V103h7.48v-7.05l6.88 7.05h6.14V84.82h-7.48v7.05zM98.67 138.58c-2.12-1.07-2.43-1.42-2.43-1.53s.44-.28.74-.28c1 0 2 .57 3.53 1.92l1.43 1.3v-6.7l-.34-.26a9 9 0 0 0-5.71-1.93c-4.61 0-6.67 2.93-6.67 5.83 0 2.52 1.13 4.19 3.67 5.4a9 9 0 0 1 2.46 1.43c0 .16-.34.29-.79.29a7.28 7.28 0 0 1-4-1.5l-1.33-.9v6.63l.5.22a14.37 14.37 0 0 0 6 1.21c4 0 6.82-2.36 6.82-5.75.04-2.33-1.21-4.04-3.88-5.38zM116.87 137.31h-4.64v-5.99h-7.48v18.18h7.48v-6.24h4.64v6.24h7.48v-18.18h-7.48v5.99zM136.32 131.1c-6.77 0-9.81 4.67-9.81 9.31 0 5.56 3.94 9.3 9.81 9.3 6.78 0 9.82-4.67 9.82-9.3s-3.04-9.31-9.82-9.31zm0 12.08c-1.48 0-2.33-1-2.33-2.77s.84-2.77 2.31-2.77c2.13 0 2.36 1.93 2.36 2.77 0 1.73-.87 2.77-2.34 2.77zM163.99 131.32l-1.22 5.04-1.49-5.04h-5.46l-1.4 5.04-1.3-5.04h-7.28l6.4 18.18h4.71l1.67-6.02 1.78 6.02h4.7l6.15-18.18h-7.26zM182.34 143.61c-2.43 0-3.89-1.2-3.89-3.2s1.44-3.21 3.84-3.21a7.6 7.6 0 0 1 4.32 1.39l1.31.85v-6.94l-.51-.22a15 15 0 0 0-6-1.18c-7.14 0-10.39 4.79-10.39 9.23 0 5.7 4 9.38 10.1 9.38a13.61 13.61 0 0 0 6.55-1.55l.44-.25v-6.35l-1.27.71a8.45 8.45 0 0 1-4.5 1.34zM196.72 131.32l-8.29 18.18H196l1-2.42h6.37l1.09 2.42h7.6l-8.29-18.18zm4.82 10.7H199l1.25-3.21zM222.12 138.58c-2.12-1.07-2.43-1.42-2.43-1.53s.44-.28.74-.28c1 0 2 .57 3.53 1.92l1.43 1.3v-6.7l-.34-.26a9 9 0 0 0-5.71-1.93c-4.61 0-6.67 2.93-6.67 5.83 0 2.52 1.13 4.19 3.67 5.4a9 9 0 0 1 2.46 1.43c0 .16-.34.29-.79.29a7.28 7.28 0 0 1-4-1.5l-1.33-.9v6.63l.5.22a14.37 14.37 0 0 0 6.05 1.21c4 0 6.82-2.36 6.82-5.75-.05-2.33-1.26-4.04-3.93-5.38zM235.68 144.07V143h6.01v-5.43h-6.01v-.83h6.57v-5.42H228.2v18.18h14.14v-5.43h-6.66z"/></svg>