<svg xmlns="http://www.w3.org/2000/svg" viewBox="0 0 300 115"><path fill="#fff" d="M35.8 43.78l8.18 14.57-14.9 10.13-7.84-13.85-3.27 1.85 20.14 35.57 3.26-1.84-10.44-18.46 14.9-10.12 9.93 17.7 3.27-1.84-19.96-35.55-3.27 1.84zM34.86 101.23c-2.88 5.8-8.47 9.4-14.59 9.4-9.11 0-16.52-7.94-16.52-17.69 0-8.38 5.55-15.67 13.21-17.34.52-.11 1.06-.2 1.59-.26l-2.23-3.44-.16.03C6.8 73.97 0 82.8 0 92.94c0 11.82 9.09 21.44 20.27 21.44 7 0 13.42-3.78 17.12-9.98l-2.33-3.6c-.07.14-.13.29-.2.43zM44.112 35.851l3.475-1.41L63.082 72.64l-3.475 1.41zM79.89 20.73l-3.66.85 6.73 28.89-27.12-22.93 9.93 40.53 3.65-.89-7.19-29.32 26.96 22.78-9.3-39.91zM101.21 4.84c-7.89 0-14.31 6.42-14.31 14.31 0 1.04.11 2.05.32 3.02s.01.05.01.05c.08.38.18.75.29 1.12l7.04 27.02 3.63-.95-4.76-18.25c2.24 1.45 4.91 2.3 7.77 2.3 7.89 0 14.31-6.42 14.31-14.31S109.09 4.84 101.2 4.84zm0 24.86c-4.72 0-8.72-3.11-10.07-7.39l-.27-1.02c-.14-.69-.22-1.41-.22-2.14 0-5.82 4.74-10.56 10.56-10.56s10.56 4.74 10.56 10.56-4.74 10.56-10.56 10.56zM130.4 17.64c-7.96 0-14.43 7.07-14.43 15.75s6.47 15.75 14.43 15.75 14.43-7.07 14.43-15.75-6.47-15.75-14.43-15.75zm0 27.76c-5.89 0-10.68-5.38-10.68-12s4.79-12 10.68-12 10.68 5.38 10.68 12-4.79 12-10.68 12zM187.29 18.47c-7.3 0-13.23 6.47-13.23 14.43s5.94 14.43 13.23 14.43 13.23-6.47 13.23-14.43-5.94-14.43-13.23-14.43zm0 25.11c-5.23 0-9.48-4.79-9.48-10.68s4.25-10.68 9.48-10.68 9.48 4.79 9.48 10.68-4.25 10.68-9.48 10.68z"/><path fill="#fff" d="M176.16.21h-4.63l-16.72 23.1.78-23.18-3.75-.13-1.43 42.2 3.75.13.42-12.31 4.26-5.89 11.86 19.96h4.37l-13.83-23.27L176.16.21zM219.01 47.42l-.74-33.96-21.24 35.69 3.22 1.92 14.55-24.45.66 29.84 20.29-20.85-5.3 28.65 3.69.68 7.55-40.81-22.68 23.29zM266.58 70.22c0-9.52-6.95-17.27-15.5-17.27s-15.5 7.75-15.5 17.27 6.95 17.27 15.5 17.27 15.5-7.75 15.5-17.27zm-15.51 13.51c-6.48 0-11.75-6.06-11.75-13.52s5.27-13.52 11.75-13.52 11.75 6.06 11.75 13.52-5.27 13.52-11.75 13.52zM300 82.12l-2.89-2.4-17.53 21.16 1.69-37.4-26.1 32.3 2.92 2.36 18.92-23.41-1.68 37.16L300 82.12z"/></svg>