<svg xmlns="http://www.w3.org/2000/svg" width="250" height="132" viewBox="0 0 250 132"><g fill="#fff"><path d="M113.16 77.65c1.78.12 3.58.18 5.36.4a4.66 4.66 0 0 0 5.12-2.57c1.9-3.7 3.63-7.49 5.54-11.48l-3.77-.74c1.41-1 2.59-1.68 3.65-2.54a4.17 4.17 0 0 0 1.35-1.8c.78-2.43 1.48-4.88 2.08-7.36.4-1.68-.09-2-1.74-1.4-.59.23-1.16.51-1.74.77l-.3-.32c.25-.34.43-.81.77-1 2.49-1.46 5-2.9 7.52-4.27 1.14-.62 2-.12 1.91 1.17a14.75 14.75 0 0 1-.77 3.65c-1.22 3.55-2.54 7.06-3.91 10.82l9.4.81c1.85-4.66 3.62-9.19 5.48-13.68a2.87 2.87 0 0 1 1.52-1.34c1.37-.51 2.82-.83 4.59-1.32L148 62h3.48l.1.35a22.91 22.91 0 0 0-2.94 1.69 5.6 5.6 0 0 0-2 2.28 51.38 51.38 0 0 0-1.53 6.74c-.1.53.36 1.15.57 1.73a8.85 8.85 0 0 0 1.63-.81 10.28 10.28 0 0 0 1.28-1.43l.37.12c-.09.42 0 1-.28 1.24-1.86 1.93-3.69 3.91-5.71 5.67-1.33 1.15-2.57.72-2.86-1a13.45 13.45 0 0 1 .09-4.94c.65-3 1.62-6 2.48-9-2.92-.14-5.88-.31-8.84-.38-.31 0-.79.54-.93.93-.74 2-1.34 4-2.08 5.9a10.08 10.08 0 0 1-4.55 5.46c-2.52 1.39-5.06 2.76-7.64 4a2.21 2.21 0 0 1-1.76-.08c-1.34-.76-2.59-1.69-3.87-2.55zM32.66 6.6c.23-.36.38-.85.71-1 2.48-1.46 5-2.9 7.52-4.28 1.29-.71 2.15-.17 2 1.31a23.26 23.26 0 0 1-1.11 4.57c-1.08 3.16-2.29 6.27-3.55 9.71l9.4.83c1.81-4.56 3.59-9 5.31-13.42a2.39 2.39 0 0 1 1.92-1.73c1.39-.28 2.74-.75 4.39-1.21C56.75 7 54.42 12.35 52 17.9h3.43l.12.38A24.22 24.22 0 0 0 52.67 20a5.74 5.74 0 0 0-2.05 2.27 54.86 54.86 0 0 0-1.56 6.88c-.09.49.36 1.07.55 1.6a8 8 0 0 0 1.65-.77 8.7 8.7 0 0 1 1.63-1.34c-.07.42 0 1-.23 1.24-1.86 1.93-3.69 3.92-5.72 5.67-1.36 1.18-2.73.67-2.9-1.12a19.52 19.52 0 0 1 .37-5.9c.56-2.65 1.49-5.23 2.29-7.92-2.94-.14-5.9-.31-8.87-.38-.31 0-.78.53-.93.91-.8 2.08-1.48 4.2-2.27 6.28a9.45 9.45 0 0 1-4.25 5q-3.82 2.16-7.75 4.13a2.19 2.19 0 0 1-1.77-.07c-1.35-.76-2.61-1.69-3.9-2.56l.15-.33c1.77.12 3.56.17 5.33.39a4.73 4.73 0 0 0 5.23-2.63c1.89-3.69 3.59-7.48 5.48-11.45l-3.77-.69c1.49-1 2.67-1.8 3.81-2.63a2.45 2.45 0 0 0 1-1.09c.83-2.75 1.63-5.51 2.33-8.29.33-1.31-.08-1.62-1.4-1.21-.74.23-1.45.58-2.17.87zM172 107.28c-.49-2.66-.58-5.37 1.27-7.59 4.75-5.68 10.77-8.81 18.34-8.13 5.72.51 10.41 5.8 10.64 11.84.28 7.58-3.25 13.35-8.93 18a29.19 29.19 0 0 1-3.6 2.39 13.46 13.46 0 0 1-10.72 1.45c-1.74-.47-3.48-1-5.35-1.48-1.6 1.26-3.12 3-5.9 3.57.41-1.24.63-2.12 1-2.94a32.56 32.56 0 0 1 1.57-3.26c1.46-2.59 1.74-2.67 4.69-1.83l5-11.76c.94-2.23 1.94-4.42 2.79-6.68a7 7 0 0 1 2.83-3.65 25.88 25.88 0 0 0 2.28-1.78l-.09-.46c-2.07.23-4.18.29-6.21.71a7.87 7.87 0 0 0-6.14 5.1c-.86 2.23-2 4.38-3 6.56zm4.81 12.35a34.73 34.73 0 0 0 10.63 2 7.69 7.69 0 0 0 7.28-4.29 34.8 34.8 0 0 0 2.88-7.49c1.49-6.43-1.44-11.83-7.16-13.95-1-.36-1.38-.16-1.83.73-2.63 5.21-5.32 10.4-8 15.59zM85.35 126.67a28.2 28.2 0 0 1 1.13-3.9 124 124 0 0 0 7.52-19.9c.42-1.61.75-3.25 1-4.9a1.83 1.83 0 0 0-.43-1.46c-.2-.19-.94.06-1.37.25a12.92 12.92 0 0 0-1.53.95l-.3-.24a4.78 4.78 0 0 1 .92-1.18c2.27-1.47 4.55-2.9 6.87-4.29.42-.25 1.34-.42 1.45-.25a2.53 2.53 0 0 1 .44 1.76c-.59 2.52-1.29 5-2 7.52a22.65 22.65 0 0 0-.94 3.54c.41-.51.85-1 1.24-1.54a47.73 47.73 0 0 1 9.59-9.87 15.81 15.81 0 0 1 2.45-1.59c1.7-.89 2.82-.36 3.35 1.52a7.88 7.88 0 0 1-.55 5.3 20 20 0 0 1-5.71 7.11c-1.25 1.08-2.55 2.11-3.85 3.18 4.4 2.93 5.2 6.47 2.56 11a21.13 21.13 0 0 1-7 7.06 1.82 1.82 0 0 1-1.28.16 4.68 4.68 0 0 1-3.61-3.5 8 8 0 0 1 1.21-6.93 36.45 36.45 0 0 0 .3 3.64 5.46 5.46 0 0 0 3.17 4.15 1.7 1.7 0 0 0 2.44-.55 9.82 9.82 0 0 0 1.81-7.78 6 6 0 0 0-1.88-2.81 9.54 9.54 0 0 0-2.91-1.59c-3.16-1.24-3.63-1-4.89 2-1 2.45-2.1 4.86-3 7.35a7.88 7.88 0 0 1-3.23 4.2c-.84.54-1.61 1.2-2.42 1.8zm11.11-17.16a2.93 2.93 0 0 0 .44 0c2.14-.36 3.95-2.23 6.36-1.33.1 0 .32-.15.45-.28 2.75-2.69 4.85-5.74 5.15-9.71 0-.53-.15-1.48-.44-1.56a2.25 2.25 0 0 0-1.75.37c-4.37 3.34-7.39 7.75-10.21 12.51zM98.71 44.57L98.13 46c-2.49 6-5.13 11.87-7.4 17.9a31.21 31.21 0 0 0-1.42 7.61 3.23 3.23 0 0 0 1 2.65c1.06.68 2.07-.29 2.88-1.09.22-.22.43-.46.64-.7l.42.13a3.84 3.84 0 0 1-.37 1.27 19.25 19.25 0 0 1-6.5 5.39c-1.91 1-3.19.35-3.28-1.78a42.41 42.41 0 0 1 .44-6.64c.17-1.55.59-3.08.71-4.76-.36.43-.73.86-1.08 1.31-3.1 3.87-6.24 7.71-10.35 10.51A14.69 14.69 0 0 1 71 79.32c-.54.21-1.49.31-1.79 0a2.27 2.27 0 0 1-.37-1.88c.76-2.57 1.68-5.1 2.52-7.66 1.75-5.33 3.5-10.66 5.21-16a7.1 7.1 0 0 0 .32-2.2c0-1.42-.7-1.84-2-1.27-.55.24-1.06.54-1.59.81l-.3-.27a4.1 4.1 0 0 1 .8-1.13c2.27-1.54 4.57-3 6.89-4.51 1.46-.93 2.52-.39 2.43 1.33a14.8 14.8 0 0 1-.9 3.91c-2.27 6.48-4.61 12.93-6.91 19.4a5.78 5.78 0 0 0-.41 1.76 9.61 9.61 0 0 0 .34 1.81 6 6 0 0 0 1.89-.56 18.73 18.73 0 0 0 2.49-2.23c5.12-5.25 8.56-11.52 11.2-18.29a6.51 6.51 0 0 0 .53-1.43c.56-4.12 3.39-5.7 7.36-6.34zM169.61 70.61a15.12 15.12 0 0 0-1.61 2.21 26.92 26.92 0 0 0-1.61 3.94c-.13.38.14 1.21.4 1.3a1.75 1.75 0 0 0 1.5-.3 11.27 11.27 0 0 0 2.41-2.67c2.18-3.88 4.41-7.75 6.26-11.79a103.78 103.78 0 0 0 3.52-9.8 4.58 4.58 0 0 0 .23-1.51 2.3 2.3 0 0 0-3.1-2.34 8.54 8.54 0 0 0-1.9.86 8.63 8.63 0 0 1-2 1.05c.13-.39.14-1 .41-1.16 2.74-1.82 5.53-3.59 8.31-5.35.91-.57 1.4 0 1.67.77 1.27 3.59 2.71 7.12 3.7 10.78 1.27 4.7 2.17 9.49 3.23 14.24.1.44.21.88.4 1.67.51-.94.88-1.6 1.22-2.28 2.22-4.34 4.53-8.67 5.42-13.52a16.28 16.28 0 0 0 .23-4.82c-.27-2.28-2.19-2.87-4-1.39-.58.47-1.11 1-1.85 1.66 0-.38-.23-.89-.07-1.06 1.75-1.86 3.5-3.72 5.36-5.46.78-.73 2-1.31 2.92-.5a3.84 3.84 0 0 1 1 2.68 32.62 32.62 0 0 1-3.21 13c-3 6.43-6.33 12.7-9.54 19a5.34 5.34 0 0 1-.68.87c-1.93-8.88-3.84-17.65-5.75-26.41h-.53c-.17.45-.37.89-.53 1.35A94.8 94.8 0 0 1 170.52 79a32.15 32.15 0 0 1-3.79 4.61 2 2 0 0 1-3.66-1.61 11.78 11.78 0 0 1 1-4.7 51 51 0 0 1 4-6.15c.29-.41.91-.59 1.37-.87zM139.71 117.91a29.94 29.94 0 0 0-2.12 3 14.75 14.75 0 0 0-1.14 3.25 1.33 1.33 0 0 0 .4 1.19 1.59 1.59 0 0 0 1.38-.18 13.18 13.18 0 0 0 2.39-2.51 74.53 74.53 0 0 0 9.93-21.66 6.33 6.33 0 0 0 .23-1.79 2.26 2.26 0 0 0-3-2.25 8.94 8.94 0 0 0-1.9.84 8.31 8.31 0 0 1-2.05 1c.13-.38.14-.94.41-1.11 2.74-1.83 5.52-3.6 8.3-5.36.87-.55 1.32 0 1.7.73a67 67 0 0 1 4.59 14.28c1 4 1.78 8 2.67 12 .14 0 .27 0 .3-.08 2.85-5.42 5.9-10.77 6.66-17a10.73 10.73 0 0 0-.07-3.44c-.39-1.9-2-2.47-3.61-1.34a20.6 20.6 0 0 1-2.32 1.78c.05-.36 0-.85.18-1.08q2.42-2.61 4.92-5.11a4 4 0 0 1 1.19-.72c1.61-.72 3-.12 3 1.62a27 27 0 0 1-.66 6.46c-1.73 7.48-5.14 14.3-8.76 21-1 1.92-2.15 3.8-3.24 5.69-.18.3-.42.56-.92 1.22a160.71 160.71 0 0 0-6.09-26.7c-.74 2.08-1.47 4.17-2.23 6.24a85.54 85.54 0 0 1-10.16 19.76 18.07 18.07 0 0 1-3.19 3.46c-1.51 1.25-3 .67-3.16-1.28a10.74 10.74 0 0 1 .74-5 50.18 50.18 0 0 1 4.2-6.52c.26-.37.87-.51 1.31-.76zM218 57.15a13.86 13.86 0 0 0 1.52-1.93 13.57 13.57 0 0 0 1.66-3.75 2.65 2.65 0 0 0-3.49-3.16 12 12 0 0 0-4.33 2.11 26 26 0 0 0-9.55 18.1 7.41 7.41 0 0 0 1.33 5.15c1.68 2.32 4.21 2.47 5.84.16 2.21-3.13 4.2-6.41 6.52-10l-6-.55c2.12-1.13 3.36-3.09 6-2.56a55.72 55.72 0 0 0 6 .6c0 .16.06.33 0 .4-2.73 3.29-4.18 7.21-5.56 11.16-2.14 6.11-5.55 11.22-11.46 14.35-1.38.74-1.77.72-1.92-.83-.2-2.17-.05-4.38-.05-6.67-4.66-1.74-6.33-4.94-5.12-10.51 1.74-8 6.2-14.32 12.46-19.44a25.29 25.29 0 0 1 8.9-5.11 6 6 0 0 1 1.92-.25 3 3 0 0 1 3 4 10.75 10.75 0 0 1-1.67 3.33 64.89 64.89 0 0 1-4.27 5 4.53 4.53 0 0 1-1.46.72zM214.41 72a1.63 1.63 0 0 0-.31.27c-2.22 2.83-4.46 5.61-7.73 7.35a1.18 1.18 0 0 0-.5.76 4.64 4.64 0 0 0 1.65 4.62c4.48-3.24 4.6-8.68 6.89-13zM113.93 57.48a16.74 16.74 0 0 0 2-2.61 12.46 12.46 0 0 0 1.39-4c.18-1.83-1.37-3-3.22-2.69a9.94 9.94 0 0 0-5.33 2.82A26.6 26.6 0 0 0 100 68.66a7.38 7.38 0 0 0 1.35 5c1.65 2.31 4.24 2.48 5.84.17 2.08-3 3.94-6.18 5.88-9.29a2.84 2.84 0 0 0 .18-.74l-5.53-.5c2.24-1.36 3.74-3.2 6.48-2.51a37 37 0 0 0 5.56.56 45.79 45.79 0 0 0-2.84 4.65c-1.48 3.3-2.73 6.7-4.14 10a22.18 22.18 0 0 1-10.08 11.21c-1.45.79-1.92.69-2.06-1-.17-2.09 0-4.2 0-6.54.18.09 0 0-.13-.07a6.64 6.64 0 0 1-5.2-6.43 18.65 18.65 0 0 1 1.57-8.41 36.63 36.63 0 0 1 17-18.85 17.76 17.76 0 0 1 3.37-1.33 3.72 3.72 0 0 1 4.09 1c1.06 1.18.8 2.51.22 3.79-1.35 3-3.66 5.34-6 7.63-.26.32-.81.28-1.63.48zm-3.24 14.84l-.31-.3a5.87 5.87 0 0 1-.37.59c-2.12 2.72-4.32 5.33-7.44 7a1.12 1.12 0 0 0-.52.88 20.61 20.61 0 0 0 .8 3.58c.33.93 1.09.93 1.73.24a11.18 11.18 0 0 0 2.08-2.57c1.44-3.1 2.7-6.28 4.03-9.42z"/><path d="M23.11 23.63a28.72 28.72 0 0 1-9.29 10.23l-.47.29C9.44 36.62 8 36.4 5.05 32.84.41 27.33.41 21.22 5.5 16.12 8.36 13.25 11.8 11 15 8.4c.31-.25.66-.44 1.37-.92C12.47 6.65 9 5.75 5.49 5.24c-1.18-.17-2.52.64-3.78 1a8 8 0 0 0-1.11.57l-.6-.7a5 5 0 0 0 1.24-.55C3 4.13 4.72 2.61 6.53 1.23A2.35 2.35 0 0 1 8.29 1c3.28.85 6.55 1.77 9.82 2.7a7.21 7.21 0 0 0 5.78-.65A33 33 0 0 1 29 .92a4.38 4.38 0 0 1 1.66.15 5.06 5.06 0 0 1-.42 1.66 12.13 12.13 0 0 1-8.45 5.14 4.21 4.21 0 0 1-1.53.1c-1.86-.4-3.28.48-4.54 1.58a46.39 46.39 0 0 0-6.18 5.77 10.55 10.55 0 0 0-1.69 10.89 9.18 9.18 0 0 0 5.57 5.33 1.75 1.75 0 0 0 2.32-.54c1.43-1.94 3-3.77 4.27-5.82a2.74 2.74 0 0 1 3.1-1.55zM43.63 69.47a11.26 11.26 0 0 0-1.57 2.25 15.29 15.29 0 0 0-1.17 4.2c-.11 1.29 1.09 1.94 2.35 1.49a5.18 5.18 0 0 0 1.45-.81C48 74 50.28 70.46 52.9 67l-3-.34v-.29c1.36-.75 2.75-1.48 4.09-2.28a4 4 0 0 0 1.32-1.19c3.32-5.22 6.39-10.57 7.87-16.67a1.53 1.53 0 0 1 .84-.94c1.42-.56 2.88-1 4.63-1.61a92.56 92.56 0 0 0-3.42 20.63l3.17-.15.12.25c-.7.35-1.37.77-2.1 1a1.93 1.93 0 0 0-1.48 2.16c.08 1.48-.11 3 0 4.45s.77 1.65 1.92.76c.7-.54 1.38-1.09 2-1.58a2 2 0 0 1-.28.83c-1.75 2-3.49 4-5.37 5.82-.46.46-1.68.82-2.07.54A3 3 0 0 1 60 76.2c.05-2.31.36-4.62.56-6.93.06-.68.12-1.36.18-2.15-2.13 0-4.13-.05-6.12 0-.36 0-.75.56-1 .94-2.92 4-5.78 8-8.77 11.87A8.54 8.54 0 0 1 42 82.22c-2.28 1.18-4.47-.14-4.21-2.65a16.87 16.87 0 0 1 1.64-5.37 27.8 27.8 0 0 1 2.92-4.2 5.37 5.37 0 0 1 1-.8zm18.5-16l-.25-.07L56.31 64l4.7.37zM111.28 116.8a10.18 10.18 0 0 0-1.31 1.87 16.86 16.86 0 0 0-1.44 4.39c-.18 1.5 1.17 2.26 2.56 1.6a7.11 7.11 0 0 0 2.26-1.59c2.46-2.77 4.83-5.62 7.49-8.75l-3.27-.38-.09-.27c1.34-.75 2.71-1.45 4-2.26A4.7 4.7 0 0 0 123 110c3.29-5.19 6.33-10.5 7.79-16.55a1.39 1.39 0 0 1 .72-.88c1.46-.57 2.95-1 4.73-1.65a90.59 90.59 0 0 0-3.38 20.52H136l.12.26c-.88.43-1.8.8-2.64 1.3a1.78 1.78 0 0 0-.87 1.08c-.12 1.71-.14 3.43-.1 5.14a1.59 1.59 0 0 0 .63 1.24c.34.14 1-.17 1.33-.44.67-.48 1.26-1.08 2-1.75a3.81 3.81 0 0 1-.44 1.26c-1.62 1.84-3.23 3.71-5 5.42-.54.53-1.88 1-2.27.74a3.37 3.37 0 0 1-1.15-2.44c0-2.17.33-4.34.53-6.52.07-.73.14-1.45.23-2.32h-6.24c-.34 0-.7.64-1 1-2.92 4-5.77 8-8.77 11.85a8.32 8.32 0 0 1-3 2.26c-2.17 1-4.25-.29-4-2.67a15.85 15.85 0 0 1 1.64-5.15 29.31 29.31 0 0 1 3.09-4.45 4.09 4.09 0 0 1 1-.72zm17.4-5.11c.38-3.71.74-7.26 1.1-10.81l-.27-.06L124 111.3zM235.2 98.84c-3.29-.74-6.63-1.52-10-2.22a5.31 5.31 0 0 0-4.09 1 9.32 9.32 0 0 1-1.19.57l-.25-.39c.75-.64 1.5-1.29 2.27-1.93 1.17-1 2.43-1.89 3.51-3a2 2 0 0 1 2.25-.52c3.27.93 6.55 1.82 9.82 2.74a7.14 7.14 0 0 0 5.65-.63 35.49 35.49 0 0 1 5.12-2.15 4.7 4.7 0 0 1 1.7.07 5.11 5.11 0 0 1-.42 1.77 12.2 12.2 0 0 1-8.34 5.09 4.37 4.37 0 0 1-1.52.1c-2-.39-3.37.63-4.81 1.67-2.78 2-5.39 4.14-7 7.21-2.91 5.42-1.25 11.61 3.8 14.21 2.15 1.11 2.46 1.13 4-.73a35.54 35.54 0 0 0 3.71-5.19 2.61 2.61 0 0 1 2.92-1.53 1 1 0 0 1 0 .4 27.81 27.81 0 0 1-11.63 11.31 3.55 3.55 0 0 1-4.13-.44c-4.61-3.48-6.79-10-4.56-14.59a17.94 17.94 0 0 1 3.89-5.19c2.84-2.63 6.1-5 9.3-7.63z"/><path d="M20.4 74.6c-2.2 1.63-4.12 3.17-6.16 4.52a7.76 7.76 0 0 1-2.57.62 10.25 10.25 0 0 1 .81-2.51 15.65 15.65 0 0 1 6.44-5.59A3.09 3.09 0 0 0 20.23 70c1.17-3.12 2.24-6.28 3.34-9.43.17-.49.36-1 .48-1.46 2-8.15 8-12 15.4-14.4a3.9 3.9 0 0 1 .67-.18c1.37-.18 2.79-.35 3.69 1a2.84 2.84 0 0 1-.51 3.61c-2.2 2.49-4.56 4.86-6.9 7.24-.19.2-.65.13-1 .18l-.16-.35a18.78 18.78 0 0 0 1.38-1.29 17.14 17.14 0 0 0 1.86-2.24c1-1.62.82-3.24-.36-4.16a3.75 3.75 0 0 0-4.84.47 10 10 0 0 0-1.47 2.5c-2.1 5-4.12 10-6.26 15-.67 1.57-1.61 3-2.37 4.42l7.14 5.28c.41.31.8.63 1.23.91 1.87 1.25 2.58 1.19 4-.48A16.64 16.64 0 0 0 38 73.36c.64-1.3 1.59-1.65 3.16-1.7A23.07 23.07 0 0 1 39 74.58c-2.28 2.23-4.57 4.48-7 6.49-1.64 1.32-2.43 1.16-4.11-.2-1.45-1.17-2.78-2.47-4.2-3.68-1.16-.93-2.3-1.8-3.29-2.59zM75.93 23.47a1.81 1.81 0 0 1-.11.47 28.37 28.37 0 0 1-10.17 9.9 8.5 8.5 0 0 1-3.91.8 5.68 5.68 0 0 1-5.58-7.74c1.43-4.21 4.63-6.85 8.4-8.92.6-.33 1.23-.62 2-1l-1.16-.74c-2.56-1.56-3.16-3.44-1.81-6.13a8.36 8.36 0 0 1 1.83-2.61c2.73-2.3 5.5-4.57 8.4-6.65 1.84-1.33 3.91-1 5.8.14a2.6 2.6 0 0 1 1.13 3.61c-1 2.4-3.11 3.89-5 5.51-.17.14-.57 0-.87 0l-.37-.51a7.88 7.88 0 0 0 1.36-.87A2.28 2.28 0 0 0 75.68 5a5.76 5.76 0 0 0-2.55-1c-2.35-.29-4.48 1.58-5.29 4.44a4.11 4.11 0 0 0 2.52 5.23 12.2 12.2 0 0 0 2.65.84c.9.2 1.84.26 2.85.53-1.79 1-2.85 3-5.45 2.73-4-.49-8.8 3.09-9.72 6.94-.67 2.84 1 5 4.08 5.16 3.89.2 6.44-.42 8.27-4.84a2.28 2.28 0 0 1 2.89-1.56zM153.84 69.05c-.47 3.12-1.54 6 .42 9.17a27.25 27.25 0 0 0 4.32-8.48c1.55-5 3-10 4.61-15 .69-2.14 1.67-4.19 2.64-6.58a18.81 18.81 0 0 0-4.26.4c-.69.22-1.25 1.26-1.61 2.06-.61 1.35-1.22 2.57-2.94 2.7 1.16-6.33 8.1-9.92 15.87-8.24-4.14 3.79-5.19 9-6.55 14.09-1.79 6.63-4.12 13.05-9 18.16a43.82 43.82 0 0 1-5.18 4.18 1 1 0 0 1-1.65-.49 11.15 11.15 0 0 1-.49-4.17 24.32 24.32 0 0 1 1.78-5.68c.41-.85 1.36-1.43 2.04-2.12zM213.87 95.47a16.77 16.77 0 0 0-4.31.4c-.77.29-1.36 1.43-1.73 2.31a3.39 3.39 0 0 1-2.83 2.46c1.15-6.32 7.94-9.83 15.91-8.26-4.25 3.81-5.22 9.1-6.62 14.21-1.8 6.63-4.14 13-9 18.15a44.1 44.1 0 0 1-5 4c-.92.72-1.71.31-1.91-.64a12.56 12.56 0 0 1-.34-4.21 18.47 18.47 0 0 1 1.56-4.89 8 8 0 0 1 2.29-2.54c-.53 3-1.56 6 .35 9.07a27 27 0 0 0 4.29-8.35c1.72-5.44 3.34-10.91 5.09-16.33.55-1.71 1.38-3.33 2.25-5.38z"/></g></svg>