<?xml version="1.0" encoding="UTF-8"?><svg id="logos" xmlns="http://www.w3.org/2000/svg" width="300" height="90" viewBox="0 0 300 90"><path d="m24.2,68.67c0,1.04-.23,2.15-.68,3.31s-1.13,2.28-2.04,3.35c-.91,1.07-2.06,1.94-3.44,2.61-1.39.67-2.99,1.01-4.81,1.01s-3.59-.39-5.37-1.17c-1.78-.78-3.29-1.94-4.52-3.47-.53,1.22-.88,2.36-1.03,3.4H0v-11.52h2.3c.42,1.65.99,3.21,1.73,4.67.73,1.46,1.77,2.71,3.12,3.76,1.34,1.05,2.99,1.58,4.95,1.58,1.7,0,3.07-.46,4.1-1.39,1.03-.93,1.54-2.09,1.54-3.5,0-.79-.16-1.49-.48-2.08-.32-.6-.78-1.13-1.38-1.6-.6-.47-1.42-.98-2.47-1.51-1.04-.54-2.23-1.1-3.57-1.7-2.05-.96-3.74-1.93-5.06-2.9-1.32-.98-2.32-1.92-2.99-2.84s-1.14-1.79-1.4-2.62c-.26-.83-.39-1.66-.39-2.51,0-1.51.41-2.99,1.23-4.46.82-1.46,2.02-2.66,3.59-3.6,1.58-.93,3.4-1.4,5.47-1.4,1.59,0,3.1.35,4.53,1.05,1.44.7,2.68,1.67,3.73,2.89.3-.69.58-1.67.83-2.93h2.35v9.38h-2.35c-1.67-5.11-4.58-7.67-8.72-7.67-1.5,0-2.71.39-3.62,1.18-.91.79-1.37,1.8-1.37,3.04,0,.98.28,1.82.85,2.54.57.72,1.32,1.34,2.24,1.85.93.51,2.43,1.25,4.5,2.21,2.5,1.18,4.46,2.19,5.87,3.05,1.41.86,2.61,1.94,3.58,3.25.98,1.31,1.47,2.89,1.47,4.74Z" fill="#fff"/><path d="m43.33,73.17c-.9,1.87-1.95,3.21-3.16,4.02-1.2.81-2.61,1.22-4.23,1.22-1.97,0-3.42-.4-4.36-1.19-.94-.79-1.51-1.68-1.73-2.67-.22-.98-.33-2.09-.33-3.31v-11.69h-3.78v-2.28c1.59,0,2.96-.3,4.13-.89,1.17-.6,2.09-1.4,2.77-2.41.68-1.01,1.11-2.09,1.29-3.25h2.05v6.55h7.09v2.28h-7.09v11.84c0,1.44.1,2.48.29,3.11.19.64.66.96,1.42.96.8,0,1.46-.31,1.98-.93.52-.62,1.02-1.39,1.5-2.32l2.15.97Z" fill="#fff"/><path d="m66.49,66.67h-15.41c.02.31.06.98.14,2.01.08,1.03.31,2.08.7,3.15.39,1.08,1.07,1.98,2.03,2.72.96.74,2.25,1.1,3.87,1.1.88,0,1.95-.22,3.21-.67,1.25-.45,2.34-1.31,3.26-2.58l1.95,1.32c-1.97,3.13-5.1,4.69-9.39,4.69-1.92,0-3.67-.27-5.25-.82-1.58-.55-2.92-1.31-4.02-2.28-1.1-.98-1.95-2.13-2.53-3.45-.59-1.32-.88-2.75-.88-4.27,0-2,.49-3.86,1.47-5.56.98-1.7,2.38-3.06,4.2-4.07,1.82-1.01,3.9-1.51,6.24-1.51s4.22.49,5.8,1.46c1.58.98,2.74,2.24,3.49,3.8.75,1.56,1.13,3.21,1.13,4.96Zm-6.21-2.28c0-3.77-1.5-5.66-4.51-5.66-1.45,0-2.57.52-3.34,1.56-.78,1.04-1.21,2.41-1.29,4.1h9.14Z" fill="#fff"/><path d="m96.8,67.06c0,2.04-.48,3.93-1.44,5.67-.96,1.75-2.29,3.13-3.98,4.14-1.7,1.02-3.59,1.53-5.7,1.53-2.64,0-4.93-.92-6.89-2.76v7.94c0,.94.06,1.65.19,2.12.13.47.41.83.85,1.07.44.24,1.12.36,2.04.36h1.38v2.28h-14.55v-2.28c1.14,0,1.95-.1,2.45-.29.5-.19.82-.52.96-.98.14-.46.21-1.22.21-2.28v-19.43c0-.96-.07-1.65-.21-2.08-.14-.43-.46-.74-.95-.93-.49-.19-1.32-.29-2.47-.29v-2.28l9.74-2.13c.2.66.32,1.71.35,3.15,1.1-1.09,2.24-1.89,3.42-2.4,1.18-.5,2.53-.76,4.07-.76,1.67,0,3.16.3,4.48.89s2.42,1.39,3.31,2.4c.88,1,1.56,2.14,2.03,3.43.47,1.28.7,2.59.7,3.91Zm-6.91-.25c0-5.08-1.8-7.62-5.39-7.62-1.17,0-2.24.34-3.22,1.01s-1.81,1.49-2.49,2.44v9.8c.65.98,1.5,1.75,2.54,2.33,1.04.58,2.12.87,3.22.87,3.56,0,5.34-2.95,5.34-8.84Z" fill="#fff"/><path d="m131.07,56.08h-9.09c-.33-.36-.75-.89-1.24-1.59-.49-.69-1.03-1.51-1.62-2.44-.58-.93-1.07-1.71-1.45-2.32l-2.3-3.77c-1.04-1.69-1.82-2.84-2.34-3.46-.53-.62-1.13-1.02-1.8-1.19-.68-.17-1.82-.26-3.44-.26h-1.28v8.79c0,.93.1,1.67.3,2.23.2.56.67.99,1.42,1.29.74.3,1.82.45,3.24.45v2.28h-17.03v-2.28c2.07,0,3.4-.3,4-.89.59-.6.89-1.62.89-3.08v-21.25c0-1.44-.29-2.46-.86-3.07-.58-.6-1.92-.91-4.02-.91v-2.33l7.87-.25c.6-.03,1.29-.06,2.07-.07.78-.02,1.5-.02,2.17-.02.52,0,1.38.02,2.58.05,1.69.05,3.26.15,4.73.3,1.47.15,2.63.34,3.48.57,1.25.31,2.44.84,3.57,1.56,1.13.73,2.05,1.69,2.76,2.88.71,1.19,1.06,2.57,1.06,4.14,0,1.13-.25,2.22-.74,3.28-.49,1.06-1.29,2-2.38,2.83-1.09.83-2.53,1.48-4.32,1.96,1.22.71,2.25,1.59,3.11,2.64.85,1.05,2.19,2.98,4.01,5.8,1.05,1.61,1.92,2.82,2.61,3.64.68.82,1.32,1.37,1.89,1.66.58.29,1.31.48,2.19.56v2.28Zm-14.08-24.7c0-2.68-.82-4.46-2.47-5.34-1.65-.88-3.8-1.32-6.45-1.32-.37,0-.66,0-.86.01-.21,0-.45.01-.71.01v13.53h1.58c2.52,0,4.64-.41,6.35-1.22,1.71-.81,2.57-2.71,2.57-5.68Z" fill="#fff"/><path d="m145.9,56.08h-13.6v-2.28h.73c.97,0,1.67-.13,2.12-.4.44-.26.71-.64.81-1.12.1-.48.15-1.18.15-2.11v-7.37c0-1.03-.06-1.75-.19-2.18-.13-.43-.45-.74-.98-.94-.53-.2-1.41-.31-2.64-.32v-2.28l10.27-2.13v15.24c0,1.39.18,2.34.53,2.85.35.51,1.29.77,2.81.77v2.28Zm-2.83-30.85c0,.99-.36,1.84-1.06,2.54-.71.7-1.57,1.05-2.57,1.05s-1.84-.36-2.57-1.08c-.73-.72-1.09-1.56-1.09-2.52s.36-1.84,1.08-2.56c.72-.71,1.58-1.07,2.58-1.07s1.88.35,2.58,1.04,1.05,1.56,1.05,2.58Z" fill="#fff"/><path d="m174.16,37.12c0,.6-.16,1.08-.49,1.44-.33.36-.7.55-1.11.55-.52,0-1.04-.22-1.58-.67-.08-.05-.22-.15-.41-.31-.19-.16-.36-.28-.5-.36-.14-.08-.28-.12-.41-.12-.48,0-.89.17-1.23.5.57.71,1.01,1.39,1.32,2.02.31.64.46,1.45.46,2.44,0,1.34-.3,2.45-.91,3.34-.61.89-1.41,1.57-2.4,2.05-.99.48-2,.83-3.03,1.04-1.03.22-2.34.43-3.95.65-3.94.48-5.91,1.27-5.91,2.38,0,.48.3.81.89.99.59.18,1.47.27,2.64.27h3.81c1.22,0,2.39.06,3.51.19,1.12.12,2.26.41,3.42.86s2.15,1.17,2.97,2.16c.82.99,1.23,2.3,1.23,3.92,0,1.21-.37,2.42-1.11,3.65-.74,1.22-2.07,2.26-3.97,3.11-1.9.85-4.47,1.28-7.69,1.28-2.52,0-5.02-.33-7.5-.99-2.48-.66-3.72-2.14-3.72-4.44,0-.79.24-1.52.71-2.17.48-.65,1.2-.98,2.17-.98.78,0,1.41.15,1.88.45-.37.58-.55,1.19-.55,1.84,0,1.08.64,2.01,1.92,2.82,1.28.8,3.2,1.2,5.77,1.2s4.63-.37,6.12-1.1c1.49-.74,2.24-1.71,2.24-2.92,0-.86-.32-1.51-.96-1.94-.64-.43-1.56-.71-2.76-.83-1.19-.12-3.05-.2-5.57-.24-3.06-.03-5.46-.36-7.21-.99-1.75-.63-2.63-1.96-2.63-4,0-1.72.65-2.97,1.95-3.75,1.3-.78,2.91-1.37,4.81-1.79-4.48-.84-6.71-2.93-6.71-6.25,0-1.08.3-2.18.89-3.33s1.65-2.12,3.18-2.93c1.53-.81,3.58-1.22,6.15-1.22,3.29,0,5.82.76,7.59,2.28,1.05-1.49,2.4-2.23,4.03-2.23.85,0,1.51.21,1.98.63.47.42.7.92.7,1.5Zm-10.27,5.19c0-1.41-.32-2.63-.95-3.67-.63-1.04-1.63-1.56-2.98-1.56-1.47,0-2.5.48-3.11,1.45-.6.97-.9,2.13-.9,3.49s.28,2.6.84,3.74c.56,1.13,1.62,1.7,3.17,1.7,1.17,0,2.12-.44,2.84-1.33.73-.89,1.09-2.16,1.09-3.81Z" fill="#fff"/><path d="m204.2,56.08h-12.88v-2.28c1.15,0,1.95-.2,2.38-.61.43-.41.65-1,.65-1.77v-8.34c0-.83-.05-1.57-.16-2.23-.11-.66-.4-1.26-.86-1.8-.47-.54-1.19-.81-2.15-.81-.79,0-1.58.21-2.39.63-.81.42-1.43.97-1.87,1.65-.47.76-.76,1.49-.89,2.2-.13.7-.19,1.55-.19,2.54v4.27c0,1.16.05,2.01.14,2.54.09.54.35.96.78,1.27.43.31,1.13.46,2.12.46v2.28h-13.13v-2.28c1.12,0,1.94-.12,2.47-.35.53-.23.85-.57.98-1.03.13-.45.19-1.2.19-2.25v-20.82c0-1.24-.2-2.07-.6-2.49-.4-.42-1.41-.64-3.03-.66v-2.23l10.09-2.13v16.75c.99-1.03,2.01-1.89,3.07-2.59,1.06-.7,2.53-1.05,4.42-1.05.87,0,1.74.12,2.61.37s1.65.61,2.34,1.09c.69.48,1.2,1.03,1.52,1.64.68,1.21,1.03,2.78,1.03,4.72v7.42c0,1.39.18,2.34.54,2.85.36.51,1.31.77,2.84.77v2.28Z" fill="#fff"/><path d="m223.34,51.66c-.9,1.87-1.95,3.21-3.16,4.02-1.2.81-2.61,1.22-4.23,1.22-1.97,0-3.42-.4-4.36-1.19-.94-.79-1.51-1.68-1.73-2.67-.22-.98-.33-2.09-.33-3.31v-11.69h-3.78v-2.28c1.59,0,2.96-.3,4.13-.89,1.17-.6,2.09-1.4,2.77-2.41.68-1.01,1.11-2.09,1.29-3.25h2.05v6.55h7.09v2.28h-7.09v11.84c0,1.44.1,2.48.29,3.11.19.64.66.96,1.42.96.8,0,1.46-.31,1.98-.93.52-.62,1.02-1.39,1.5-2.32l2.15.97Z" fill="#fff"/><path d="m255.86,3.1c-1.52,0-2.61.17-3.27.52-.66.35-1.06.84-1.22,1.49-.15.65-.23,1.64-.23,2.98v12.41c0,2.28-.08,4-.24,5.15-.16,1.15-.58,2.31-1.27,3.49-1.27,2.27-3.04,3.83-5.32,4.68-2.28.85-4.47,1.28-6.58,1.28-1.55,0-3.15-.2-4.8-.61-1.65-.41-3.18-1.07-4.6-2-1.42-.93-2.5-2.14-3.23-3.65-.4-.83-.71-1.66-.93-2.49-.22-.84-.35-1.62-.39-2.36-.04-.74-.06-1.7-.06-2.89l-.05-14.02c0-1.46-.29-2.48-.86-3.08s-1.93-.89-4.05-.89V.82h17.13v2.28c-1.45,0-2.54.15-3.26.43-.72.29-1.19.7-1.4,1.24-.22.54-.33,1.3-.33,2.3v14.02c0,1.44.07,2.7.21,3.79.14,1.08.36,2.03.66,2.84.57,1.34,1.53,2.41,2.89,3.21,1.36.8,2.86,1.2,4.5,1.2,1.75,0,3.39-.43,4.9-1.28,1.51-.85,2.56-1.96,3.14-3.31.47-1.06.77-2.16.91-3.29.14-1.13.21-2.49.21-4.06v-12.11c0-1.09-.03-1.9-.1-2.43-.07-.53-.25-1-.55-1.4-.3-.41-.8-.7-1.49-.88-.69-.18-1.65-.27-2.87-.27V.82h12.5v2.28Z" fill="#fff"/><path d="m286.82,23.95c0,2.04-.48,3.93-1.44,5.67-.96,1.75-2.29,3.13-3.98,4.14-1.7,1.02-3.59,1.53-5.7,1.53-2.64,0-4.93-.92-6.89-2.76v7.94c0,.94.06,1.65.19,2.12.13.47.41.83.85,1.07.44.24,1.12.36,2.04.36h1.38v2.28h-14.55v-2.28c1.14,0,1.95-.1,2.45-.29.5-.19.82-.52.96-.98.14-.46.21-1.22.21-2.28v-19.43c0-.96-.07-1.65-.21-2.08-.14-.43-.46-.74-.95-.93-.49-.19-1.32-.29-2.47-.29v-2.28l9.74-2.13c.2.66.32,1.71.35,3.15,1.1-1.09,2.24-1.89,3.42-2.4,1.18-.5,2.53-.76,4.07-.76,1.67,0,3.16.3,4.48.89s2.42,1.39,3.31,2.4c.88,1,1.56,2.14,2.03,3.43.47,1.28.7,2.59.7,3.91Zm-6.91-.25c0-5.08-1.8-7.62-5.39-7.62-1.17,0-2.24.34-3.22,1.01s-1.81,1.49-2.49,2.44v9.8c.65.98,1.5,1.75,2.54,2.33,1.04.58,2.12.87,3.22.87,3.56,0,5.34-2.95,5.34-8.84Z" fill="#fff"/><path d="m300,31.42c0,1.09-.38,2.01-1.15,2.76-.77.74-1.7,1.12-2.78,1.12s-1.99-.37-2.76-1.12-1.15-1.66-1.15-2.76.38-2.02,1.13-2.78c.75-.76,1.68-1.14,2.78-1.14s2.03.38,2.79,1.13c.76.75,1.14,1.68,1.14,2.79Zm-.6-27.75c0,.51-.02.98-.05,1.39-.03.41-.1,1.07-.2,1.96l-1.95,16.26h-2.25l-1.95-16.26c-.17-1.46-.25-2.57-.25-3.35,0-1.26.33-2.18,1-2.78.67-.6,1.43-.89,2.28-.89.97,0,1.77.3,2.42.91.64.6.96,1.53.96,2.77Z" fill="#fff"/></svg>