<svg xmlns="http://www.w3.org/2000/svg" viewBox="0 0 260 131"><path d="M4.82 4.37H0L.69.47h14.09l-.69 3.9H9.27L7.13 16.53H2.67L4.81 4.37zM16.73.47h4.45l-1.06 6.01h5.71L26.89.47h4.45l-2.83 16.07h-4.45l1.08-6.11h-5.71l-1.08 6.11H13.9L16.73.47zM34.19.47h12.92l-.67 3.79h-8.51l-.43 2.43h7.71l-.62 3.51h-7.71l-.45 2.55h8.63l-.67 3.79H31.35L34.19.47zM13.05 27.82h17.08c4.19 0 6.95 1.05 8.56 3 1.1 1.33 1.6 3.09 1.19 5.38l-.02.1c-.68 3.85-3.27 6.14-6.45 7.42 3.81 1.33 5.98 3.62 5.18 8.14l-.02.1c-1.01 5.71-6.28 9.18-14.23 9.18H7.17l5.87-33.3zM25.5 41.1c2.81 0 4.55-.95 4.89-2.9l.02-.1c.32-1.81-.92-2.85-3.68-2.85h-5.99l-1.03 5.85h5.8zm-.89 12.61c2.81 0 4.62-1.09 4.96-3.04l.02-.1c.32-1.81-.9-3-3.99-3h-7.04l-1.08 6.14h7.14zM46.79 26.4h9.42l-1.17 6.66h-9.42l1.17-6.66zm-1.39 8.99h9.04L49.9 61.13h-9.04l4.54-25.74zM57.24 44.57l.02-.1c1.69-9.56 10.76-17.32 21.04-17.32s16.54 7.66 14.85 17.22l-.02.1c-1.69 9.56-10.76 17.32-21.04 17.32s-16.54-7.66-14.85-17.22zm26.45 0l.02-.1c.85-4.81-1.89-8.99-6.98-8.99s-9.14 4.09-9.99 8.9l-.02.1c-.85 4.81 1.89 8.99 6.93 8.99s9.19-4.09 10.04-8.9zM100.87 27.82h8.61l10.6 17.6 3.1-17.6h9.13l-5.87 33.3h-8.09l-11-18.27-3.22 18.27H95l5.87-33.3zM137.94 26.4h9.42l-1.17 6.66h-9.42l1.17-6.66zm-1.39 8.99h9.04l-4.54 25.74h-9.04l4.54-25.74zM148.39 44.57l.02-.1c1.71-9.71 10.52-17.32 20.61-17.32 6.8 0 10.68 2.85 12.91 6.95l-7.89 5.38c-1.48-2.38-3.4-3.9-6.59-3.9-4.66 0-8.64 3.95-9.5 8.8l-.02.1c-.88 5 1.71 8.9 6.38 8.9 3.47 0 5.8-1.62 8.23-4.04l6.07 4.95c-3.9 4.33-8.7 7.52-16.07 7.52-9.52 0-15.89-7.28-14.14-17.22zM68.53 70.74h17.08c4.19 0 6.95 1.05 8.56 3 1.1 1.33 1.6 3.09 1.19 5.38l-.02.1c-.68 3.85-3.27 6.14-6.45 7.42 3.81 1.33 5.98 3.62 5.18 8.14l-.02.1c-1.01 5.71-6.28 9.18-14.23 9.18H62.64l5.87-33.3zm12.46 13.27c2.81 0 4.55-.95 4.89-2.9l.02-.1c.32-1.81-.92-2.85-3.68-2.85h-5.99l-1.03 5.85H81zm-.89 12.61c2.81 0 4.62-1.09 4.96-3.04l.02-.1c.32-1.81-.9-3-3.99-3h-7.04l-1.08 6.14h7.14zM98.82 89.43l3.3-18.7h9.37l-3.26 18.51c-.85 4.81 1.18 7.09 4.89 7.09s6.52-2.19 7.34-6.85l3.31-18.75h9.37l-3.25 18.46c-1.9 10.75-8.86 15.46-18.33 15.46s-14.57-4.81-12.73-15.22zM138.61 70.74h8.61l10.6 17.6 3.1-17.6h9.13l-5.87 33.3h-8.09l-11-18.27-3.22 18.27h-9.13l5.87-33.3zM175.95 70.74h8.61l10.6 17.6 3.1-17.6h9.13l-5.87 33.3h-8.09l-11-18.27-3.22 18.27h-9.13l5.87-33.3zM219.24 91.57l-8.98-20.84h10.51l4.71 12.13 9.04-12.13h10.32l-16.3 20.7-2.22 12.61h-9.28l2.2-12.47zM181.92 127.82l3-2.96c1.36 1.26 3.01 1.93 4.87 1.93 1.19 0 1.91-.41 2.03-1.1v-.05c.13-.67-.34-1.03-2.43-1.54-3.28-.78-5.75-1.74-5.17-5.05V119c.53-2.98 3.28-5.14 7.13-5.14 2.73 0 4.74.73 6.23 2.13l-2.78 3.14c-1.29-1.03-2.8-1.58-4.22-1.58-1.08 0-1.69.46-1.79 1.03v.05c-.14.73.36 1.06 2.49 1.56 3.55.8 5.64 2 5.11 5v.05c-.59 3.28-3.52 5.23-7.43 5.23-2.85 0-5.4-.9-7.06-2.66zM200.51 114.14h4.45l-1.06 6.01h5.71l1.06-6.01h4.45l-2.83 16.07h-4.45l1.08-6.11h-5.71l-1.08 6.11h-4.45l2.83-16.07zM216 122.22v-.05c.82-4.61 5.2-8.35 10.16-8.35s7.98 3.7 7.16 8.31v.05c-.82 4.61-5.2 8.35-10.16 8.35s-7.98-3.7-7.16-8.31zm12.76 0v-.05c.42-2.32-.9-4.34-3.36-4.34s-4.41 1.97-4.82 4.29v.05c-.42 2.32.9 4.34 3.34 4.34s4.43-1.97 4.84-4.29zM235.05 114.14h4.71l1.16 9.3 4.75-9.34h3.83l1.45 9.34 4.44-9.3H260l-8.22 16.18h-3.88l-1.61-9.25-4.84 9.25h-3.88l-2.52-16.18z" fill="#fff"/></svg>