<svg xmlns="http://www.w3.org/2000/svg" width="300" height="55" viewBox="0 0 300 55"><path d="M162.15 1c.59 0 .94-.08 1.28-.08 3.07 0 6.14-.06 9.21 0a25.63 25.63 0 0 1 4.79.52 9.24 9.24 0 0 1 6 14 24.79 24.79 0 0 1-2.69 3 2.68 2.68 0 0 1 .61.29c3.81 2.85 4.48 6.75 3.5 11-.93 4.08-3.88 6.33-7.82 6.81s-7.77.32-11.65.45c-1 0-.77-.68-.77-1.23 0-7.65-.11-15.3 0-22.94a21.83 21.83 0 0 0-1.91-10.25 13.77 13.77 0 0 1-.55-1.57zm9.65 24.79v3.76c0 .28.34.76.55.78a4.23 4.23 0 0 0 3.61-1c1.17-1.14 1.55-3.9.79-5.64a4.16 4.16 0 0 0-4.15-2.33c-.61 0-.85.22-.83.82.05 1.17.03 2.38.03 3.59zm.37-14.24v3.17c0 .29.45.78.69.78a3.56 3.56 0 0 0 3.46-1.58 4.34 4.34 0 0 0 0-4.59 3.45 3.45 0 0 0-3.44-1.6 1.11 1.11 0 0 0-.73.76c-.04.99.02 2.02.02 3.04zM232 16.66a8.46 8.46 0 0 1 3.57 4.3c2.21 6.36-1.24 11.93-8 12.61-3.18.31-6.42.11-9.63.14a2.06 2.06 0 0 1-.48-.15V32.3 9.88c0-2-.05-9-.05-9s6.16 0 10 .21a10.7 10.7 0 0 1 4.35 1.33c4.9 2.67 5.39 10.2 1 13.62-.23.18-.41.34-.76.62zm-8 6.79v3.41c0 .26.3.71.49.72a3.86 3.86 0 0 0 3.28-.92 5.26 5.26 0 0 0 .73-5.11 3.73 3.73 0 0 0-3.75-2.13c-.55 0-.78.18-.77.73.02 1.1.02 2.2.02 3.3zm4.69-12.89a3.29 3.29 0 0 0-3.5-3.56c-.6 0-.92.15-.91.83v5.45c0 .75.35.88 1 .85a3.32 3.32 0 0 0 3.38-3.57zM0 1.11a2.89 2.89 0 0 1 .68-.2C5 1 9.29 1 13.6 1.12a10.19 10.19 0 0 1 5.51 1.95c4.63 3.26 4.84 11.06.39 14.56l-1.1.87a4 4 0 0 1 .86.37c3.79 2.82 4.47 6.7 3.56 11a8.28 8.28 0 0 1-7.31 6.83c-4.2.58-8.5.38-12.75.51-.07 0-.14-.08-.32-.19v-1.33-24.71a14.9 14.9 0 0 0-1.19-6.53C.76 3.4.43 2.27 0 1.11zM9.7 26v3.66c0 .29.32.8.52.82 1.45.14 2.9 0 3.86-1.26a5.44 5.44 0 0 0 .54-5.5c-.64-1.7-2.17-2.12-3.83-2.26-.8-.07-1.17.14-1.13 1 .08 1.15.04 2.33.04 3.54zm.36-14.4c0 1.07-.05 2.13 0 3.19 0 .29.45.79.69.79A3.58 3.58 0 0 0 14.26 14a4.37 4.37 0 0 0 0-4.62 3.47 3.47 0 0 0-3.47-1.6 1.07 1.07 0 0 0-.72.75c-.07.99-.01 2.02-.01 3.04zM239.17 1a9.12 9.12 0 0 1 1-.11h9.31a17.85 17.85 0 0 1 3.71.46 8.4 8.4 0 0 1 5.32 12.69 20.77 20.77 0 0 1-2.28 2.61.88.88 0 0 0 .24.28c3.21 2.26 4.06 5.48 3.54 9.13-.63 4.33-3.34 6.89-8.25 7.42-3.28.35-6.63.13-9.94.17-.1 0-.2-.08-.39-.16v-1.18V10a13.33 13.33 0 0 0-1.11-5.89c-.44-.96-.73-1.97-1.15-3.11zM248 23.56v3.29c0 .27.3.72.5.73a3.58 3.58 0 0 0 3.4-1.08 4.86 4.86 0 0 0 .53-5c-.61-1.58-2-1.92-3.57-2-.65-.05-.91.19-.89.83.03 1.03.03 2.13.03 3.23zm.33-13v2.86c0 .54.18.75.74.78a3.35 3.35 0 0 0 3.62-3.46A3.31 3.31 0 0 0 249.16 7c-.62 0-.92.18-.89.84.04.93.01 1.81.01 2.7zM143.92 24.61c.22-.58.43-1.13.62-1.68a2.27 2.27 0 0 0 .12-.63v-3.4a.42.42 0 0 1 .35-.49c.55-.16 1.08-.36 1.62-.54l.37-.09v4.8h2c.25 0 .19-.2.19-.34v-3.69c0-.47 0-.47.49-.47h1.52c.25 0 .33.09.33.34v10.47c0 .24-.08.31-.31.31h-1.71c-.26 0-.32-.1-.32-.34v-3.84c0-.28-.08-.38-.37-.37a12.71 12.71 0 0 1-1.38 0c-.37 0-.44.12-.44.46v3.69c0 .32-.1.42-.42.4h-1.52c-.31 0-.42-.07-.42-.4v-3.62c0-.49 0-.49-.5-.53a1.48 1.48 0 0 1-.22-.04zM141.37 10.7a10.47 10.47 0 0 1 .63-3.34A3.26 3.26 0 0 1 145.24 5a3.11 3.11 0 0 1 2.85 1.9 6.46 6.46 0 0 1 .66 2.39 10.75 10.75 0 0 1-.36 4.51 3.51 3.51 0 0 1-2.13 2.44A3.3 3.3 0 0 1 142 14.1a5.31 5.31 0 0 1-.31-1c-.16-.82-.23-1.61-.32-2.4zm4.89-1.7a4.94 4.94 0 0 0-.46-1.39.75.75 0 0 0-1.37 0 2.15 2.15 0 0 0-.26.58 10.08 10.08 0 0 0-.14 4.37 3.62 3.62 0 0 0 .45 1.24.73.73 0 0 0 1.27 0 1.84 1.84 0 0 0 .32-.68 11.86 11.86 0 0 0 .19-4.12zM211.23 0c0 .55.09.92.09 1.29v21a19.18 19.18 0 0 1-.61 4.95c-1.32 4.75-5.13 7.24-10.23 6.86-5.47-.39-8.92-3.78-9.21-9.33-.2-3.87-.11-7.75-.12-11.63v-11c0-1.06.34-1.35 1.35-1.3 1.49.07 3 .05 4.49 0 .85 0 1.09.28 1.09 1.12v20.27a12.59 12.59 0 0 0 .56 3.55 2.52 2.52 0 0 0 2.68 1.87 2.45 2.45 0 0 0 2.53-1.91 15 15 0 0 0 .53-3.77q.09-9.12 0-18.24c0-1.11.28-1.66 1.39-2 1.76-.41 3.52-1.08 5.46-1.73zM71.88 32.86l-5.79 1.78c-.46-1.53-1-3-1.31-4.43a1.63 1.63 0 0 0-2-1.48c-2 .11-4 .06-6 0a1.17 1.17 0 0 0-1.37 1A30.6 30.6 0 0 1 54.33 33c-.12.31-.48.73-.74.73-1.92.07-3.84 0-5.93 0 .21-.73.35-1.29.54-1.85C51.08 23.44 54 15 56.82 6.56a4.46 4.46 0 0 0 0-2.15c-.22-1.1-.61-2.17-1-3.51C57 .9 58 .88 58.92.9s2.4-.3 3.12.22S62.87 3 63.18 4q4.31 14.16 8.59 28.35c.03.1.04.2.11.51zm-9.07-9.11L60.4 16h-.29c-.86 2.55-1.71 5.1-2.61 7.77zM158.22 27.13v2h-4.42c-.32 0-.41-.08-.41-.4v-7.7a4.56 4.56 0 0 0-.36-1.9c-.15-.34-.26-.69-.41-1.1h5.03c.35 0 .44.11.43.44a11.28 11.28 0 0 0 0 1.3c0 .26-.08.36-.36.35h-1.67c-.24 0-.35.05-.34.32v1.7c0 .26.09.33.34.32h2a2.08 2.08 0 0 1-.05.3c-.18.49-.38 1-.55 1.49a.41.41 0 0 1-.48.32h-.9c-.3 0-.33.07-.32.31v1.92c0 .24.09.32.32.31h2.17zM26.79 1c.56-.06.88-.1 1.21-.1h13.7c.93 0 1.28.27 1.22 1.21a29.31 29.31 0 0 0 0 3.63c.06 1-.24 1.4-1.31 1.34-1.6-.08-3.21 0-4.81 0-.62 0-.9.19-.89.85v5.23c0 .68.29.85.9.84h6.07c-.79 2.09-1.48 4-2.24 5.84-.08.2-.5.34-.78.35a25.33 25.33 0 0 1-2.89 0c-.87-.06-1.09.3-1.07 1.11.06 1.75.06 3.49 0 5.23 0 .87.22 1.2 1.14 1.17 1.74-.06 3.49 0 5.24 0 .76 0 1.1.16 1.06 1-.06 1.42 0 2.84 0 4.26 0 .46 0 .86-.65.86l-13.29-.13a1.27 1.27 0 0 1-.37-.15V32.3 10A13.33 13.33 0 0 0 28 4.11c-.49-.96-.78-1.97-1.21-3.11zM281.75 1c.59 0 1-.07 1.35-.07h15.09c1.05 0 1.36.31 1.31 1.34-.08 1.75 0 3.51 0 5.46h-6c-1.65 0-1.65 0-1.65 1.65v4.82c0 .87.24 1.18 1.13 1.15 2.08-.06 4.16 0 6.49 0-.85 2.27-1.61 4.38-2.46 6.46-.09.23-.66.35-1 .36-1.1.05-2.2 0-3.3 0-.61 0-.84.22-.84.83v6.58c0 .72.37.83 1 .83h6c.89 0 1.17.29 1.15 1.15q-.09 2.23 0 4.47c0 .9-.33 1.13-1.18 1.13h-13.32c-1 0-1.24-.38-1.23-1.31V10.59a13.15 13.15 0 0 0-1-5.48c-.54-1.32-.96-2.62-1.54-4.11zM118.11 30.62a17.54 17.54 0 0 0 0-1.92c-.11-1 .31-1.21 1.24-1.12a29.5 29.5 0 0 0 3.52.07c1.46 0 2.8-.44 3.43-1.92a3.48 3.48 0 0 0-.73-4.13c-1.06-1.05-2.19-2-3.24-3.09a30.89 30.89 0 0 1-3.11-3.37 9 9 0 0 1-.73-9.87c1.66-3.34 4.65-4.73 8.24-4.77a51.16 51.16 0 0 1 5.62.56c.67.07.86.36.6 1-.66 1.65-1.32 3.3-1.93 5-.2.54-.47.58-1 .44a13.48 13.48 0 0 0-2.5-.49A2.43 2.43 0 0 0 125 8.43a2.56 2.56 0 0 0 .3 3c.7.8 1.51 1.5 2.29 2.23 1.24 1.18 2.56 2.27 3.73 3.52 3.56 3.8 3.08 9.12 1.31 12.55A7.93 7.93 0 0 1 126 33.9a59.15 59.15 0 0 1-6.92 0c-.77 0-1-.41-1-1.17V30.6zM77.28 30.67v-2.24c0-.75.26-.91 1-.86 1.17.08 2.35.1 3.53.09 1.57 0 3-.35 3.72-2a3.64 3.64 0 0 0-1-4.37c-1-1-2.13-1.89-3.11-2.92a25.77 25.77 0 0 1-3.42-3.9A9 9 0 0 1 85.07.55a37.58 37.58 0 0 1 6.58.57.92.92 0 0 1 .47.77c-.62 1.74-1.29 3.47-2 5.17a1 1 0 0 1-.86.38c-.84-.09-1.66-.38-2.51-.46a2.47 2.47 0 0 0-2.56 1.39 2.56 2.56 0 0 0 .31 3.09c1.05 1.1 2.2 2.12 3.36 3.12a16.45 16.45 0 0 1 4.5 5.48C94.44 24.68 92.5 31 88.29 33c-3.33 1.58-6.86 1.42-10.39.85-.24 0-.54-.51-.57-.8a23 23 0 0 1 0-2.35zM152.42 7.23v2.41c0 .23.09.31.32.3h2c-.26.69-.48 1.32-.73 1.94 0 .07-.2.12-.31.13a8.42 8.42 0 0 1-.87 0c-.32 0-.44.07-.43.42v3.39c0 .34-.07.48-.44.46s-1 0-1.52 0c-.3 0-.39-.09-.39-.39V8.37a5.17 5.17 0 0 0-.42-2.24c-.14-.3-.23-.61-.36-1h5.04c.34 0 .44.11.42.44a8.83 8.83 0 0 0 0 1.26c0 .33-.11.41-.42.4-.58-.01-1.21 0-1.89 0zM142.21 29.17h-2.34v-.45-8.11c0-.35-.07-.48-.46-.47-.89 0-.66.14-1-.67-.17-.44-.33-.87-.51-1.36a3.43 3.43 0 0 1 .39 0h5c.33 0 .41.1.4.42v1.66h-1.51zM109.08 33.73h-6.27c-.21 0-.49-.37-.6-.63a2.18 2.18 0 0 1 0-.85V8.37c0-1-.25-1.35-1.3-1.32-2.16.06-2.16 0-2.94-2L96.45 1c.57 0 1-.07 1.33-.07h14.54c1 0 1.32.25 1.27 1.25-.08 1.59 0 3.18 0 4.9h-4.48zM278.8 27.69c-.76 2-1.44 3.87-2.18 5.7-.08.19-.53.33-.81.33h-11.13c-1 0-.87-.59-.87-1.2V9.38 1.92c0-.78.25-1.09 1.05-1.07 1.57.05 3.14.06 4.7 0 1 0 1.21.31 1.21 1.23v24c0 1.53 0 1.53 1.49 1.53h5.35c.31.02.65.05 1.19.08zM81.82 52.28L81.56 54H81l.9-5.48h.83l.91 5.48H83l-.29-1.75zm.85-.54c-.19-1.2-.33-2.13-.38-2.65 0 .42-.21 1.65-.36 2.65zM88.39 48.55h1c1.19 0 1.34.73 1.34 1.6v2.16c0 .84-.13 1.72-1.37 1.72h-1zm.58 5h.33c.67 0 .82-.38.82-1.09v-2.38c0-.63-.11-1-.81-1H89zM95.25 49.9v2.75c0 1-.4 1.45-1.21 1.45s-1.16-.54-1.16-1.44V49.9c0-.93.42-1.42 1.2-1.42s1.17.52 1.17 1.42zm-1.78 0v2.84c0 .61.23.86.59.86s.59-.24.59-.89v-2.84c0-.58-.2-.86-.59-.86s-.59.26-.59.86zM99.63 52.45v.19c0 .7-.12 1.46-1.11 1.46s-1.11-.67-1.11-1.48v-2.78c0-.88.37-1.36 1.12-1.36.91 0 1.08.65 1.08 1.37v.21H99v-.25c0-.44-.07-.8-.5-.8s-.52.33-.52.81v2.84c0 .55.12.91.53.91s.51-.37.51-.89v-.23zM102.33 48.55v4.26c0 .45.16.76.57.76s.56-.29.56-.76v-4.26h.59v4.24c0 .85-.38 1.31-1.16 1.31s-1.14-.43-1.14-1.3v-4.25zM109.1 51.74v-2.67c-.13.92-.55 3.33-.84 5h-.57c-.22-1.41-.66-4-.79-5V54h-.54v-5.45h.86c.3 1.62.66 3.63.74 4.32.09-.68.51-2.8.81-4.32h.84V54h-.56zM113.86 51.38h-1.23v2.11H114V54h-1.9v-5.45h1.88v.54h-1.3v1.75h1.23zM116.07 54v-5.45h.69c.3 1 1.06 3.88 1.15 4.33v-4.33h.55V54h-.67c-.3-1-1.08-4-1.18-4.48 0 .66.05 1.53.05 2.52v2zM121.32 49.09h-.89v-.54h2.35v.54h-.88V54h-.58zM125 52.28l-.24 1.72h-.59l.89-5.48h.83l.94 5.48h-.61l-.28-1.75zm.84-.54c-.19-1.2-.32-2.13-.38-2.65 0 .42-.22 1.65-.36 2.65zM129.46 51.47V54h-.58v-5.45h1c.82 0 1.23.36 1.23 1.26v.25c0 .75-.26 1-.56 1.15.35.13.51.39.51 1.13a15 15 0 0 0 .05 1.69h-.56a12.8 12.8 0 0 1-.06-1.65c0-.71-.1-.91-.64-.91zm0-.49h.36c.52 0 .65-.31.65-.89v-.24c0-.5-.13-.8-.68-.8h-.33zM133.94 54v-2a.77.77 0 0 0 0-.15l-1-3.28h.64c.27 1 .6 2.17.69 2.67.1-.52.44-1.72.69-2.67h.62l-1 3.32a.59.59 0 0 0 0 .17v2zM140.19 48.55h1a1 1 0 0 1 1.17 1.19V50c0 .77-.24 1-.51 1.11.29.09.62.35.62 1.09v.41c0 .95-.33 1.43-1.26 1.43h-1zm.93 2.32c.49 0 .64-.2.64-.84v-.24c0-.5-.18-.74-.65-.74h-.35v1.82zm-.36 2.66h.35c.59 0 .74-.28.74-.94v-.38c0-.6-.21-.85-.74-.85h-.35zM145.18 54v-2a.4.4 0 0 0 0-.15l-1-3.28h.64c.27 1 .6 2.17.69 2.67.1-.52.43-1.72.69-2.67h.61l-1 3.32v2.17zM152.43 51.5v.5c0 .73.23 1.12.79 1.12s.75-.48.75-1.21c0-1-.21-1.31-1.15-2a2.75 2.75 0 0 1-1.43-2.49c0-1.14.35-2.26 1.84-2.25s1.77 1 1.77 2.05v.44h-1.16v-.41c0-.66-.12-1.07-.63-1.07s-.64.44-.64 1.07.13 1 .92 1.58c1.27.95 1.66 1.49 1.66 2.95 0 1.24-.4 2.39-2 2.39s-1.92-1-1.92-2.14v-.53zM161 51.45v.33c0 1-.18 2.37-1.92 2.37-1.57 0-1.88-1-1.88-2.35v-4.43c0-1.37.61-2.21 1.9-2.21 1.57 0 1.86 1.06 1.86 2.25v.37h-1.18v-.49c0-.63-.12-1.06-.68-1.06s-.7.4-.7 1.07v4.59c0 .7.14 1.2.72 1.2s.69-.47.69-1.2v-.44zM167 47.53v4.22c0 1.61-.68 2.4-2.09 2.4s-2-.84-2-2.38v-4.25c0-1.59.77-2.36 2.05-2.36S167 46 167 47.53zm-2.86-.1v4.46c0 .84.3 1.2.83 1.2s.83-.35.83-1.23v-4.43c0-.79-.25-1.2-.84-1.2s-.79.37-.79 1.2zM170 46.37h-1.41v-1.09h4v1.09h-1.39V54H170zM175.61 46.37h-1.41v-1.09h4v1.09h-1.41V54h-1.17zM183 45.28h1.76c1.86 0 2.23 1 2.23 2.57v3.4c0 1.34-.22 2.78-2.26 2.78H183zm1.15 7.72h.47c1 0 1.14-.58 1.14-1.59v-3.67c0-.89-.16-1.45-1.14-1.45h-.47zM190.25 51.5l-.36 2.5h-1.19l1.42-8.75h1.66l1.48 8.75H192l-.39-2.53zm1.25-1.08c-.24-1.67-.45-3.12-.54-4 0 .7-.32 2.62-.52 4zM195.66 54l-1.21-8.75h1.25c.23 2 .57 5.22.64 6.75.17-1.66.63-4.77.9-6.75h1.16c.28 2 .73 4.92.88 6.7.1-1.62.45-4.65.68-6.7h1.19L199.89 54h-1.22c-.26-2-.69-4.81-.86-6.46-.2 1.73-.64 4.51-.92 6.46zM204 51.5v.5c0 .73.23 1.12.79 1.12s.75-.48.75-1.21c0-1-.21-1.31-1.14-2a2.73 2.73 0 0 1-1.4-2.51c0-1.14.34-2.26 1.83-2.25s1.77 1 1.77 2.05v.44h-1.16v-.41c0-.66-.12-1.07-.63-1.07s-.64.44-.64 1.07.14 1 .92 1.58c1.27.95 1.66 1.49 1.66 2.95 0 1.24-.4 2.39-2 2.39s-1.93-1-1.93-2.14v-.51zM212.83 47.53v4.22c0 1.61-.68 2.4-2.08 2.4s-2-.84-2-2.38v-4.25c0-1.59.78-2.36 2-2.36s2.08.84 2.08 2.37zm-2.86-.1v4.46c0 .84.3 1.2.83 1.2s.84-.35.84-1.23v-4.43c0-.79-.26-1.2-.84-1.2s-.8.37-.8 1.2zM215.11 54v-8.72h1.37c.4 1.4 1.51 5.83 1.63 6.39-.06-1.11-.07-2.34-.07-3.78v-2.61h1.09V54h-1.32c-.36-1.3-1.56-6.1-1.68-6.61.06 1.06.06 2.33.06 3.91V54z" fill="#fff"/></svg>