<svg xmlns="http://www.w3.org/2000/svg" viewBox="0 0 202 103"><path fill="#fff" d="M5.93 40.97L20.15 3.14h-3.34L1.5 43.87h12.85l.85-2.9H5.93zM27.95 10.8l-2.65 8.71 1.82 5.93h5.32L27.95 10.8zM37.09 40.97l-2.04-6.73H20.76l-.85 2.9h10.71l2.04 6.73h13.18l-1.09-2.9h-7.66zM76.98 30.32c1.23-1.23 1.85-2.97 1.85-5.23V3.14H74.4v24.84c0 1.62-.32 2.97-.96 4.06 1.44-.23 2.62-.81 3.54-1.73z"/><path d="M81.69 40.3c-2.44.91-5.38 1.36-8.81 1.36-1.98 0-4.14-.14-6.49-.42-2.34-.28-4.3-.83-5.88-1.65-1.57-.82-3.01-1.99-4.32-3.51s-2.2-3.08-2.68-4.69c-.78-2.59-1.17-4.89-1.17-6.88V3.14h-4.43V27.4c0 2 .39 4.29 1.17 6.88.48 1.61 1.37 3.17 2.68 4.69s2.75 2.69 4.32 3.51c1.57.82 3.53 1.37 5.88 1.65 2.34.28 4.5.42 6.49.42 3.43 0 6.36-.45 8.81-1.36 1.61-.59 3.15-1.59 4.63-2.98-.07.03-.13.06-.2.08zM118.93 31.5c.93-.15 1.67-.36 2.23-.65 1.11-.58 1.98-1.6 2.61-3.06.63-1.45.94-3.81.94-7.07 0-4.32-.7-7.27-2.11-8.86-1.41-1.59-3.74-2.39-7-2.39h-3.14v2.95c2.59.19 4.49.97 5.71 2.34 1.41 1.59 2.11 4.55 2.11 8.86 0 3.26-.32 5.62-.94 7.07-.13.29-.26.56-.41.81z" fill="#fff"/><path d="M126.08 39.86c-2.76.74-5.26 1.11-7.5 1.11h-18.7V3.14h-4.43v40.73h18.7c2.24 0 4.74-.37 7.5-1.11 2.02-.54 3.91-1.62 5.67-3.24l.12-.12c-.45.18-.9.33-1.36.45zM144.47 40.97V3.14h-4.43v40.73h12.61v-2.9h-8.18zM176.08 40.97V10.3h-12.83V3.14h-4.43V13.2h12.83v30.67h12.59v-2.9h-8.16zM188.67 10.3h8.4v2.9h-8.4zM31.92 89.69c.93-.15 1.67-.36 2.23-.65 1.11-.58 1.98-1.6 2.61-3.06.63-1.45.94-3.81.94-7.07 0-4.32-.7-7.27-2.11-8.86-1.41-1.59-3.74-2.39-7-2.39h-3.14v2.95c2.59.19 4.49.97 5.71 2.34 1.41 1.59 2.11 4.55 2.11 8.86 0 3.26-.32 5.62-.94 7.07-.13.29-.26.56-.41.81z" fill="#fff"/><path d="M39.06 98.05c-2.76.74-5.26 1.11-7.5 1.11h-18.7V61.33H8.43v40.73h18.7c2.24 0 4.74-.37 7.5-1.11 2.02-.54 3.91-1.62 5.67-3.24l.12-.12c-.45.18-.9.33-1.36.45z" fill="#fff"/><path d="M35.05 34.24H20.76l-1.98 6.72H5.93L21.24.24h13.73l15.3 40.73H37.09l-2.04-6.72zm-2.61-8.8l-4.5-14.64-4.45 14.64h8.94zM78.82.24h12.56V24.5c0 2.41-.38 4.68-1.13 6.82-.75 2.14-1.93 4.01-3.53 5.61-1.6 1.6-3.28 2.73-5.04 3.37-2.44.91-5.38 1.36-8.81 1.36-1.98 0-4.14-.14-6.49-.42-2.34-.28-4.3-.83-5.88-1.65-1.57-.82-3.01-1.99-4.32-3.51s-2.2-3.08-2.68-4.69c-.78-2.59-1.17-4.89-1.17-6.88V.24h12.56v24.84c0 2.22.62 3.96 1.85 5.2 1.23 1.25 2.94 1.87 5.13 1.87s3.87-.62 5.1-1.85c1.23-1.23 1.85-2.97 1.85-5.23V.24zM99.88.24h18.7c3.69 0 6.66.5 8.93 1.5 2.27 1 4.14 2.44 5.63 4.31 1.48 1.87 2.56 4.05 3.22 6.53.67 2.48 1 5.11 1 7.89 0 4.35-.5 7.73-1.49 10.13-.99 2.4-2.37 4.41-4.13 6.03-1.76 1.62-3.65 2.7-5.67 3.24-2.76.74-5.26 1.11-7.5 1.11h-18.7V.24zm12.59 9.22v22.25h3.08c2.63 0 4.5-.29 5.61-.88s1.98-1.6 2.61-3.06c.63-1.45.94-3.81.94-7.07 0-4.32-.7-7.27-2.11-8.86-1.41-1.59-3.74-2.39-7-2.39h-3.14zM144.47.24h12.61v40.73h-12.61V.24zM163.25.24h38.25V10.3h-12.83v30.67h-12.58V10.3h-12.83V.24zM12.86 58.44h18.7c3.69 0 6.66.5 8.93 1.5 2.27 1 4.14 2.44 5.63 4.31 1.48 1.87 2.56 4.05 3.22 6.53.67 2.48 1 5.11 1 7.89 0 4.35-.5 7.73-1.49 10.13-.99 2.4-2.37 4.41-4.13 6.03-1.76 1.62-3.65 2.7-5.67 3.24-2.76.74-5.26 1.11-7.5 1.11H12.86V58.45zm12.59 9.22v22.25h3.08c2.63 0 4.5-.29 5.61-.88s1.98-1.6 2.61-3.06c.63-1.45.94-3.81.94-7.07 0-4.32-.7-7.27-2.11-8.86-1.41-1.59-3.74-2.39-7-2.39h-3.14zM55.37 78.83c0-6.65 1.85-11.82 5.56-15.53 3.7-3.7 8.86-5.56 15.47-5.56s12 1.82 15.67 5.46 5.5 8.74 5.5 15.29c0 4.76-.8 8.66-2.4 11.71-1.6 3.05-3.92 5.42-6.94 7.11-3.03 1.69-6.8 2.54-11.32 2.54s-8.39-.73-11.4-2.19-5.45-3.78-7.32-6.94c-1.87-3.17-2.81-7.13-2.81-11.89zm12.58.06c0 4.11.76 7.07 2.29 8.86 1.53 1.8 3.61 2.69 6.24 2.69s4.8-.88 6.28-2.64c1.48-1.76 2.22-4.92 2.22-9.47 0-3.83-.77-6.63-2.32-8.4-1.55-1.77-3.64-2.65-6.29-2.65s-4.57.9-6.11 2.69c-1.54 1.8-2.31 4.77-2.31 8.92zM124.82 84.41v-8.47h19.45V93.3c-3.72 2.54-7.01 4.26-9.88 5.18-2.86.92-6.26 1.38-10.18 1.38-4.83 0-8.77-.82-11.82-2.47-3.05-1.65-5.41-4.1-7.08-7.36-1.68-3.26-2.51-7-2.51-11.22 0-4.44.92-8.31 2.75-11.6 1.83-3.29 4.52-5.78 8.06-7.49 2.76-1.31 6.47-1.97 11.14-1.97s7.87.41 10.1 1.22c2.23.82 4.08 2.08 5.56 3.79 1.47 1.71 2.58 3.88 3.32 6.51l-12.14 2.17c-.5-1.54-1.35-2.71-2.54-3.53-1.19-.81-2.72-1.22-4.57-1.22-2.76 0-4.96.96-6.6 2.88-1.64 1.92-2.46 4.95-2.46 9.1 0 4.41.83 7.56 2.49 9.45 1.66 1.89 3.97 2.83 6.93 2.83 1.41 0 2.75-.2 4.03-.61 1.28-.41 2.74-1.1 4.39-2.08v-3.83h-8.42zM149.54 85.69l11.97-.75c.26 1.94.79 3.43 1.58 4.44 1.3 1.65 3.15 2.47 5.56 2.47 1.8 0 3.18-.42 4.15-1.26.97-.84 1.46-1.82 1.46-2.93s-.46-2-1.39-2.83c-.93-.83-3.07-1.62-6.44-2.36-5.52-1.24-9.45-2.89-11.81-4.94-2.37-2.06-3.56-4.68-3.56-7.86 0-2.09.61-4.07 1.82-5.93 1.21-1.86 3.04-3.32 5.47-4.39 2.43-1.06 5.77-1.6 10.01-1.6 5.2 0 9.17.97 11.9 2.9 2.73 1.94 4.36 5.01 4.88 9.24l-11.86.69c-.32-1.83-.98-3.17-1.99-4-1.01-.83-2.4-1.25-4.18-1.25-1.46 0-2.57.31-3.31.93-.74.62-1.11 1.38-1.11 2.26 0 .65.31 1.23.92 1.75.59.54 2 1.04 4.22 1.5 5.5 1.19 9.44 2.38 11.82 3.6 2.38 1.21 4.11 2.72 5.19 4.51 1.08 1.8 1.63 3.81 1.63 6.03 0 2.61-.72 5.02-2.17 7.22-1.44 2.2-3.46 3.88-6.06 5.01-2.59 1.14-5.86 1.71-9.81 1.71-6.93 0-11.72-1.33-14.39-4s-4.18-6.06-4.53-10.17z" fill="none" stroke="#fff" stroke-linejoin="round" stroke-width=".57"/><path d="M76.9 99.86c-4.59 0-8.39-.73-11.4-2.19s-5.45-3.78-7.32-6.94c-1.87-3.17-2.81-7.13-2.81-11.89 0-6.65 1.85-11.82 5.56-15.53.22-.22.44-.42.66-.63-1.93.89-3.63 2.06-5.1 3.53-3.7 3.7-5.56 8.88-5.56 15.53 0 4.76.93 8.72 2.81 11.89 1.87 3.17 4.31 5.48 7.32 6.94 3.01 1.46 6.81 2.19 11.4 2.19s8.29-.85 11.32-2.54c1.17-.66 2.24-1.42 3.2-2.28-2.8 1.28-6.16 1.92-10.09 1.92z" fill="#fff"/><path d="M82.76 87.8c1.48-1.76 2.22-4.92 2.22-9.47 0-3.83-.77-6.63-2.32-8.4-1.55-1.77-3.64-2.65-6.29-2.65s-4.57.9-6.11 2.69c-.11.13-.22.27-.32.42.63-.14 1.3-.21 2.01-.21 2.65 0 4.75.88 6.29 2.65 1.55 1.77 2.32 4.57 2.32 8.4 0 4.17-.62 7.16-1.86 8.99 1.66-.36 3.02-1.17 4.07-2.41zM120.39 78.84v8.47h8.42v3.03s.03 0 .04-.01c1.28-.41 2.74-1.1 4.39-2.08v-3.83h-8.42v-5.57h-4.43z" fill="#fff"/><path d="M134.39 98.48c-2.86.92-6.26 1.38-10.18 1.38-4.83 0-8.77-.82-11.82-2.47-3.05-1.65-5.41-4.1-7.08-7.36-1.68-3.26-2.51-7-2.51-11.22 0-4.44.92-8.31 2.75-11.6.99-1.77 2.23-3.32 3.72-4.63-.03.01-.06.03-.09.04-3.54 1.7-6.22 4.2-8.06 7.49-1.83 3.29-2.75 7.15-2.75 11.6s.84 7.96 2.51 11.22c1.68 3.26 4.04 5.71 7.08 7.36 3.05 1.65 6.99 2.47 11.82 2.47 3.93 0 7.32-.46 10.18-1.38 2.86-.92 6.15-2.64 9.88-5.18v-.15c-1.96 1.09-3.78 1.9-5.45 2.43zM129.03 67.91c-1.19-.81-2.72-1.22-4.57-1.22-2.76 0-4.96.96-6.6 2.88l-.24.3c.75-.18 1.55-.28 2.41-.28 1.85 0 3.38.41 4.57 1.22 1.19.82 2.04 1.99 2.54 3.53l12.14-2.17c-.2-.7-.42-1.36-.67-1.99l-7.04 1.26c-.5-1.54-1.35-2.71-2.54-3.53zM171.31 66.58c-1.01-.83-2.4-1.25-4.18-1.25-1.46 0-2.57.31-3.31.93-.66.55-1.02 1.21-1.1 1.97 1.76 0 3.15.42 4.15 1.25.69.57 1.22 1.39 1.58 2.43 1.94.43 3.68.86 5.21 1.29l7.05-.41a18.3 18.3 0 0 0-.5-2.61l-6.93.41c-.32-1.83-.98-3.17-1.99-4zM168.46 99.86c-6.93 0-11.72-1.33-14.39-4-2.08-2.08-3.46-4.61-4.13-7.57l-4.83.3c.35 4.11 1.86 7.5 4.53 10.17s7.46 4 14.39 4c3.94 0 7.21-.57 9.81-1.71 1.65-.73 3.07-1.67 4.26-2.83-2.57 1.09-5.77 1.64-9.63 1.64zM150.19 80.42c2.13 1.86 5.57 3.39 10.29 4.58l1.03-.06c.01.11.03.22.05.32.15.03.29.07.44.1 3.37.74 5.52 1.53 6.44 2.36.93.83 1.39 1.78 1.39 2.83 0 .44-.08.85-.23 1.25 1.34-.13 2.41-.53 3.2-1.22.97-.84 1.46-1.82 1.46-2.93s-.46-2-1.39-2.83c-.93-.83-3.07-1.62-6.44-2.36-5.52-1.24-9.45-2.89-11.81-4.94-2.37-2.06-3.56-4.68-3.56-7.86 0-2.09.61-4.07 1.82-5.93.37-.57.81-1.1 1.3-1.6-.08.03-.17.07-.25.1-2.44 1.07-4.26 2.53-5.47 4.39-1.21 1.86-1.82 3.84-1.82 5.93 0 3.19 1.18 5.81 3.56 7.86z" fill="#fff"/></svg>