<svg xmlns="http://www.w3.org/2000/svg" viewBox="0 0 252 122"><path d="M5.26 94.62c-1.93-2.96-3.23-6.13-3.85-9.51-2.59-14.17 7.39-29.32 25.83-42.66M158.28 111.14c-7.84 2.18-16.03 4.07-24.49 5.62-38.52 7.05-74.32 5.49-99.02-2.66M240.61 63.08c-4.58 6.93-11.55 13.76-20.48 20.15M112.33 8.93c.56-.11 1.11-.21 1.67-.31 50.43-9.23 96.2-3.71 118.5 12.07" fill="none" stroke="#fff" stroke-linecap="round" stroke-miterlimit="10" stroke-width="1.63"/><g fill="#fff"><path d="M107.67 35.55c0 .52-.12 1.02-.33 1.13s-.79.24-1.03.24l-3.56-.1-7.24-20.33c-.23-.64-.59-1.08-1.15-1.66-.3.79-.48 1.35-.48 2.05v19.04c0 .55-.62.99-1.06.98l-2.7-.02c-.32 0-.86-.5-.86-.95V2.7c0-.3.45-.96.71-.96l5.26.09 6.15 17.33c.24.69.56 1.13 1.18 1.72.31-.9.47-1.43.47-2.15V2.71c0-.56.63-.98 1.07-.98l2.71.02c.31 0 .86.5.86.96v32.84zM34.86 37.78c-5.76.56-10.13-3.97-9.78-9.52l.14-2.54c1.71-.15 2.86-.16 4.59 0 .47 2.57-.46 4.83 1.32 6.7.9.95 2.2 1.25 3.59 1.3 2.54.08 4.41-1.58 4.64-4.09.16-1.7-.23-3.25-1.46-4.57-3.39-3.67-7.58-5.88-10.85-10.04-1.2-1.54-1.58-3.23-1.6-5.12C25.38 4.81 29.2.91 34.24.77c5.7-.16 9.86 4.39 9.32 10.08-.07.68 0 1.52-.37 2.17l-3.58.08c-.47.01-.93-.63-.93-1.06l-.03-3.09c-.02-2.3-2-4-4.04-4.01-2.41 0-4.14 1.81-4.21 4.23-.05 1.68.41 3.16 1.58 4.41 3.65 3.91 8.03 6.37 10.91 10.24 1.03 1.39 1.51 2.94 1.37 4.67.3 5.29-3.95 9.66-9.4 9.28zM78.59 29.68l-7.06-.02-.73.65-1.3 6.43c-2.35.29-4.68.43-4.39-.97l6.88-33.3c.09-.43.78-.78 1.13-.77l4.53.12 7.07 33.94c.1.47-.42 1.09-.79 1.1l-2.68.03c-.41 0-.98-.47-1.08-1l-1.01-5.4c-.03-.17-.42-.65-.59-.82zm-1.34-3.83c.32 0 .88-.7.8-1.04l-2.33-11.4c-.09-.45-.42-1.02-.78-1.43-.39.4-.75 1.04-.87 1.62l-2.28 11.21c-.1.49.54 1.06.95 1.06h4.5zM57.29 36.88H54.5c-.48 0-1.02-.48-1.02-1.03V6.41c0-.33-.59-.83-.91-.83l-5.73-.07c-.66 0-1.05-2.57-.11-3.76h18.19c.57 1.27.52 2.46.09 3.77L59 5.58c-.43 0-.9.6-.9 1.1v29.25c0 .33-.54.94-.82.95z"/></g><g fill="#fff"><path d="M94.56 91.87c-1.49.27-3.92-.61-3.98-2.08l-.25-6.45c-.83.21-1.44.78-2.03 1.54l-3.05 3.98-4.26 4.77c-1.05 1.17-2.19 1.78-3.75 2.19-1.79.48-4.07.29-4.73-1.82-1.05-3.39.5-7.59-.68-7.09-.21.09-.81.43-.96.61l-3.24 4.11c-2.26 2.87-4.4 5.73-7.42 7.85-1.46 1.02-4.55.99-5.64-.53s-.44-9.62.92-14.7l2.99-11.18c.42-1.56 1.11-3.39 1.94-4.66 1.3-1.98 4.21-2.39 6.16-1.35.11 2.12-.54 4.34-.97 6.33 0 0-4.08 17.43-3.51 19.9.21.92 2.6-.35 3.1-1.1l3.04-4.23 5.98-10.46c2.38-4.17 3.08-12.44 5.72-14.2 1.72-1.15 3.38-1.14 5.57-.85l-1.79 9.19-1.89 9.13c-.6 2.92-1.55 5.85-1.02 8.81 1.05.49 2.06-.5 2.77-1.2 2.2-2.2 3.5-4.56 4.81-7.39 1.01-2.18 3.06-4.36 3.73-6.63 1.08-3.67 1.78-7.17 2.65-10.84l2.92-12.32 1.07-4.03c.44-1.67 1.14-3.06 2.42-3.76 1.53-.84 3.67-1.12 4.86.08l-.9 5.38-.82 4.74-1.37 6.75-1 4.92-1.18 6.35-1.03 5.08c-.57 2.82-1.28 5.4-1.06 8.24.54 1.37 1.29.89 1.7.47.26-.27.8-.75 1.1-1.12 2.38-2.92 4.01-6.13 6-9.29 2.28-3.63 3.62-7.01 4.42-11.37l.71-3.9 1.4-5.65 1.04-4.52 1.27-4.51 1.16-3.61c.73-2.27 4.29-3.42 6.27-2.23.06 2.54-.42 5.16-.91 7.56l-1.26 6.19-1.98 9.92-.78 4.12-1.06 5.53-1.32 6.85c-.11.56.15 1.72.6 2.01 2.23 1.41 5.65-6.11 7.61-9.18s3.2-5.57 4.05-9.01l3.41-10.68c.8-2.32 4.44-2.86 6.79-1.99l-2.41 12.34-.78 3.65c-.73 3.38-1.48 6.41-1.85 10.01-.24 2.32 1.71 1.41 2.19.89 2.45-2.66 4.63-5.63 6.3-8.79l4.84-9.16 1.5-11.32c1.73-1.53 4.12-1.88 6.39-1.31-.33 7.15-.68 14.08.33 21.12l.72 3.29c.13.6.49 1.68 2.04 1.64s5.14-6.35 6.6-10.32c2.18-5.92 3.62-10.5 2.63-16.91l-1.05-3.42c2.03-.39 3.84-.44 5.67 0 4.01.97 3.65 5.6 2.12 10.07-2.51 7.35-6.54 13.92-11.34 20.06-1.31 1.67-2.9 3.1-4.47 4.52-1.95 1.75-4.66 2.55-7.15 1.55-.94-.38-1.58-1.64-1.84-2.55l-1.42-4.88-1-5.22c-1.06.61-4.98 6.12-4.98 6.12-2.64 4.21-6.75 10.18-10.96 11.8-1.51.58-4.46.19-4.94-1.63s-.26-3.6-.43-5.95c-1.58 1.28-2.78 2.57-3.96 4.04l-3.37 4.19c-1.84 2.29-5.54 4.78-8.57 2.9-2.39-1.49-1.74-5.44-.96-7.92-.5-.31-1.42.19-1.97.86l-6.68 8.19c-1.36 1.67-3 3-5.54 3.46zM193.45 66.54l-.23-1.29c-.06-.31-6.43 4.77-6.43 4.77-2.51 2.41-7.13 3.67-9.06 1.17-1.98-4.11-1.61-8.81-.36-13.26 1.85-6.61 5.57-12.52 10.63-17.11 4.41-4 12.44-6.84 16.49-3.89 2.24 1.63-.71 3.84-.32 4.46l.87 1.39c.71 1.14.25 2.93-.13 4.29-1.25 4.36-2.06 8.75-2.81 13.33-.08.49.44 1.6.83 1.83 1.53.93 4.56-4.08 6.02-7.26 1.12-2.45 3.19-4.66 3.98-7.22 1.57-5.09 2.19-10.33 4.67-14.97 1.13-2.12 4.65-2.73 6.1-1.48 0 0-2.02 9.52-.55 12.16l4.17-6.55 5.33-6.78c.99-1.26 3.14-2.75 4.83-2.22 1.84.58 2.1 3.36 1.92 5.04 0 0-4.22 19.36-2.34 21.01s13.4-14.54 13.96-15.83c.28 5.15-12.54 22-17.69 22.51-1.24.12-3.93.44-4.22-1.27-.55-3.28-.44-6.93.18-10.33l.97-5.3c.27-1.48.93-3.79.48-4.45s-2.46.25-3.05 1.19l-7.57 12.04-1.12 5.76c-.58 3-1.84 6.01-5.1 6.84-.58.15-2.03.04-2.49-.29-1.92-1.43.24-4.76-1-7.58l-7.96 8.95c-1.63 1.83-4.02 3.1-6.43 2.82-1.54-.18-2.3-.97-2.57-2.46zm3.25-19.38c-.34-.5-1.06-1.85-.68-2.26l3.19-3.47c.97-1.06 1.06-2.97-.29-3.56-4.2-1.83-9.13 7.23-10.57 12.28l-2.18 7.67c-1.13 3.97-1.45 9.58 1.04 9.21 1.95-.29 6.55-6.51 6.86-7.91M38.92 106.38c-11.08 6.76-31.32 9.04-33.01-1.85-.73-4.72 5.14-8.44 9.93-8.01l-1.77 3.57c-.66 1.34-.66 3.36.12 4.81 2.27 4.24 7.05 5.95 11.63 4.9 2.96-.68 5.65-1.55 8.23-3.22 3.44-2.23 6.36-8.53 3.81-11.93-1.19-1.58-3.21-3.16-5-4l-8.62-4.06c-3.49-1.64-6.84-3.72-9.58-6.39-2.24-2.18-4.04-6.36-2.8-11.41 3.26-13.23 20.55-21.31 27.76-22.32 7.2-1.01 11.69-.02 14.14 1.64s3.77 2.72 3.52 7.13-5.54 10.89-11.17 13.34c-2.64 1.15-5.41 1.81-8.37.85 2.89-2.87 5.53-5.48 7.58-8.72 1.87-2.95 1.78-7.63-.23-9.57-1.24-1.2-2.91-1.85-4.78-1.7-5.64.45-10.28 3.18-14.07 7.08-4.36 4.48-8.29 11.04-4.41 15.93 4.8 6.05 14.52 7.46 22.54 14.45 3.67 3.2 4.43 8.37 1.65 12.56-1.91 2.87-4.08 5.08-7.08 6.91z"/><path d="M143.97 41.07c.34 2.05-1.07 3.55-2.25 4.28-1.53.95-3.48 1.6-5.22.54-.86-.53-.73-2.86-.26-4.06.44-1.14 1.78-2.01 3.3-2.57s4.11-.17 4.43 1.81z"/></g><path d="M163.32 89.22h4.17v17.97h7.38v3.56h-11.55V89.22zM176.92 89.22h4.17v21.53h-4.17V89.22zM190.21 105.15h.09l3.07-15.92h4.31l-4.75 21.53h-5.36l-4.75-21.53h4.46l2.92 15.92zM210.77 92.78h-7.38v5.07h6.95v3.56h-6.95v5.79h7.67v3.56h-11.84V89.23h11.55v3.56zM213.98 96.22v-7h3.99v7l-.55 8.53h-2.9l-.55-8.53zm4 14.54h-3.99v-3.98h3.99v3.98z" fill="#fff"/></svg>