<svg xmlns="http://www.w3.org/2000/svg" viewBox="0 0 210 115"><path d="M28.18 26.22c.05-.38.39-.49.72-.55 3.02-.5 6.9.36 9.93.55 2.1.14 4.44-.41 6.39.43-3.26 2.18-3.53 4.84-3.71 8.5-.48 9.81 3.37 21.18-5.25 28.23-11.68 9.56-27.71 1.25-22.89-14.01-1.91-.83-3.47-1.51-5.09-2.85-6.1-5.06-8.72-13.22-8.22-21C.57 17.54 5.17 9.95 11.39 5.2c0 0 4.01-2.64 6-3.35 5.58-2 12.08-2.05 17.42.6 6.66 3.31 12.3 12.43 5.16 18.38-5.48 4.56-11.34-.55-9.81-6.68.59-.43 2.02.53 2.56.89 1.46-.58.07-3.28-.73-4.11-3.34-3.46-10.63-.73-14.02 1.55-6.78 4.56-10.55 10.55-7.77 18.78 2.25 6.65 7.68 9.51 14.56 7.57 6.15-1.73 10.39-8.67 3.42-12.62zm5.4 21.28l-5.96 2.27c.75 1.63.98 3.33-.14 4.82-1.86 2.48-5.41 1.74-5.43-1.44 3.54-.67.23-3.44-1.81-1.53-1.23 1.15-.3 2.97.31 4.2 1.86 3.73 4.78 4.56 8.71 3.39 2.54-.76 3.58-2.51 4.01-5.08.22-1.34.48-4.34.49-5.71 0-.34-.15-.61-.19-.94zM60.22 16.95c10.85-1.29 22.63 6.7 22.53 18.22-.17 19.82-28.99 23.82-35.75 5.32-3.56-9.73 2.41-22.25 13.23-23.54zm1.69 7.93c-1.23.23-3.57 1.43-4.47 2.35-3.1 3.17-3.48 10.93-.72 14.33 6.02 7.43 18.69 2.82 16.83-7.16-1.09-5.83-5.18-10.73-11.64-9.52zM134.43 51.19c-.51-.5 1.86-2.27 2.13-2.84.38-.81-.1-20.96-.71-27.08-.13-1.31-.65-2.37-1.13-3.55l10.79-.28c-.04.64-.48.81-.58 1.54-.57 4.04 2.54 12.45 3.91 16.55a60.59 60.59 0 0 0 1.64 4.31c.98 0 4.45-17.11 5.2-18.94l-1.08-3.18c.36-.37 9.22-.43 10.39-.3 2.15.23-.09 1.27-.32 1.98-1.01 3.15-1.29 22.84-.98 26.27.19 2.1 1.21 3.35 2.54 4.85l-.4.67h-9.66c-1.4 0 .96-2.56 1.12-2.85.15-.27.73-1.39.73-1.54v-9.79c-.7-.19-.81.96-.98 1.43-.73 2.07-2.93 9.87-4.01 11.03-.8.86-5.52 1.08-6.16-.35-1.32-3.99-2.89-7.89-4.34-11.83-.27-.75-.05-1.89-.99-2.27l.3 12.32c.09 1.87 2.53 2.05 2.54 3.85h-9.94zM99.49 51.47c-.05-.61.49-.96.57-1.56.2-1.35-1.54.64-1.64.7-5.66 3.36-12.6 1.18-13.15-5.8-.23-2.95-.16-6.11-.29-9.08-.14-3.24.1-13.98-1.17-16.14-.68-1.15-2.84-1.98.17-2.18 1.66-.11 10.95-.53 11.23.45.25.86-1.14 1.63-1.5 2.19-1.73 2.69-.93 7.37-1.04 10.57-.09 2.6-.52 5.35-.47 7.98.04 2.15.06 7.76 3.73 5.2.23-.16 1.47-1.36 1.58-1.54.27-.46.52-3.92.56-4.83.16-3.4.02-6.89-.02-10.21s.68-6.63-1.41-9.37c0-.07 1.21-.43 1.28-.43h9.66l.3.58c-.33.75-1.28 1.43-1.51 2.19-1.6 5.33-1.28 20.75-.64 26.59.21 1.96 1.47 2.98 1.71 4.68h-7.95zM131.31 50.48c-4.54 2.61-8.99-.81-10.95-4.96-1.28-2.7-1.66-5.61-1.19-8.59.25-1.61 1.3-1.23 2.46-2.07 3.7-2.69 2.25-11.81-3.39-10.9v21.7c0 .21.33 2.1.42 2.42.1.37 2.54 3.39 1.15 3.39h-9.66c-.26-.22-.34-.23-.31-.59.11-1.73 2.23-1.62 2.46-4.08.52-5.67.33-15.21-.02-21-.11-1.92-.37-4.98-1.35-6.6-.31-.52-.78-.92-1.2-1.35l.46-.39c6.37-.05 13.19-2.17 17.86 3.36 4.09 4.84 3.85 11.87.09 16.83-.97 1.29-2.32 2.18-3.33 3.41.12.83 2.75 2.61 3.6 2.7 1.68.18 1.6-3.18 2.91-1.8v8.51zM183.16 45.8c.85-.17 2.76-2.47 3.27-1.98l-1.16 7.78c-.53 1.94-1.66.04-2.95-.13-2.93-.41-7.11.16-10.25.03-1.01-.04-2.22-.24-3.25-.3-.36-.48 1.36-1.55 1.56-1.99.66-1.45.34-18.03.16-22.84-.05-1.35-.27-5.07-.65-6.16-.19-.55-2.33-2.11-1.92-2.48 1.85.25 3.77-.23 5.53-.3 3.43-.13 7.12.45 10.39-.43l2.55 8.1c-3.19-1.61-6.51-1.09-9.94-.85v10.21c1.3.1 2.8.52 4.11.28s1.14-2.1 2.71-1.69v8.65c0 .19-.42.7-.29 1.07l-.7.21c-.97-2.46-3.58-1.02-5.55-1.31l-.28 4.14c1.96-.27 4.85.36 6.68 0zM94.8 100.26l-.4-.68c1.45-1.23.21-3.05-.42-4.45l-5.12-.5c-.49.12-1.07 2.68-1.04 3.23.08 1.23 1.31 1.26 1.44 2.4-2.13-.22-4.24-.36-6.39-.28-.75.03-1.56.7-2.13-.14 2.12-1.34 2.4-2.35 3.04-4.62 1.54-5.43 2.75-11.18 4.02-16.69.64-2.77 2.12-5.35 1.17-8.33l6.25.28c-.72 1.79-.49 2.76-.15 4.54.86 4.45 4.66 20.45 6.74 23.62.3.46.7.56 1.07.91-.18.13-.62.71-.71.71h-7.39zm-1.28-10.5c-.53-1.91-.85-3.92-1.41-5.83-.11-.38-.03-.88-.58-.98-.6 2.25-1.64 4.45-1.71 6.81h3.69zM203.47 48.49c.11.57 1.96 2.47 1.7 2.69-3.65-.14-7.17.38-10.79 0 1.21-1.02 2.36-2.12 2.56-3.82.57-4.64-.17-11.13-.3-15.88-.08-2.82.12-5.66-.03-8.48l-.23-.34c-2.34-.14-4.83-.12-6.41 1.86-.26-.95 1.09-7.23 1.72-7.36 2.14 1.11 13.62 1.03 16.88 0l1.42 7.37c-.44.02-.32-.54-.74-.82-1.75-1.16-3.8-.87-5.79-.88V48.5zM188.12 77.57c-.75-.67-.9-1.66-1.84-2.27-1.04-.68-2.09-.75-3.12 0-1.54 2.69 1.03 3.68 2.42 5.24 2.8 3.16 5.09 6.66 4.83 11.08-.4 6.78-6.62 11.17-12.99 7.85-5.3-2.77-4.52-11.45 1.76-11.43 2.49 0 5.24 2.6 3.12 4.84-.5.18-.54-.64-.99-.98-2.21-1.67-4.81 3.23-.58 3.98 3.12.55 4.03-.98 4.01-3.98-.04-7.01-8.54-8.78-7.69-16.45.32-2.85 2.99-5.28 5.82-5.53 2-.18 3.41.83 5.25-.85v8.51z" fill="#fff"/><path d="M63.05 31.12c6.84-1.16 5.77 9.21-.65 7.04-3.63-1.23-3.07-6.4.65-7.04zM66.27 78.23c.05-.34.34-.44.64-.49 2.66-.44 6.09.32 8.76.49 1.86.12 3.91-.36 5.63.38-2.88 1.93-3.11 4.27-3.27 7.49-.43 8.65 2.97 18.68-4.63 24.9-10.3 8.43-24.43 1.11-20.19-12.36-1.69-.73-3.06-1.33-4.49-2.52-5.39-4.45-7.7-11.66-7.26-18.51.45-7.04 4.51-13.73 9.99-17.92 0 0 3.54-2.33 5.29-2.96 4.92-1.76 10.65-1.81 15.36.53 5.88 2.92 10.85 10.96 4.55 16.21-4.83 4.02-10-.48-8.65-5.89.52-.38 1.78.46 2.26.79 1.29-.51.06-2.89-.64-3.62-2.95-3.05-9.37-.64-12.36 1.37-5.98 4.02-9.31 9.3-6.85 16.57 1.98 5.86 6.77 8.39 12.84 6.68 5.42-1.53 9.16-7.65 3.01-11.13zM71.03 97l-5.26 2c.67 1.43.87 2.94-.12 4.25-1.64 2.19-4.77 1.54-4.79-1.27 3.12-.59.2-3.03-1.59-1.35-1.08 1.02-.27 2.62.27 3.7 1.64 3.29 4.22 4.02 7.69 2.99 2.24-.67 3.16-2.21 3.53-4.48.2-1.19.43-3.83.43-5.03 0-.3-.13-.54-.17-.83zM171.8 99.1c-4.01 2.31-7.95-.72-9.68-4.38-1.13-2.39-1.47-4.96-1.05-7.6.22-1.43 1.15-1.08 2.17-1.83 3.27-2.38 1.99-10.44-3-9.64v19.19c0 .19.29 1.86.37 2.14.09.33 2.25 3 1.01 3h-8.54c-.23-.2-.3-.2-.28-.52.1-1.53 1.97-1.43 2.17-3.61.46-5.02.29-13.45-.01-18.57-.1-1.7-.33-4.4-1.19-5.84-.28-.46-.69-.81-1.06-1.19l.41-.34c5.64-.04 11.67-1.92 15.8 2.97 3.61 4.28 3.4 10.5.08 14.89-.86 1.14-2.05 1.92-2.95 3.01.1.74 2.43 2.31 3.18 2.39 1.48.16 1.42-2.81 2.57-1.59v7.53zM147.72 95.17c.76-.15 2.46-2.2 2.91-1.77l-1.03 6.92c-.47 1.73-1.48.04-2.63-.12-2.61-.36-6.33.14-9.13.02-.9-.04-1.97-.21-2.9-.27-.32-.43 1.21-1.38 1.38-1.77.59-1.29.3-16.06.14-20.34-.04-1.2-.24-4.51-.58-5.49-.17-.49-2.08-1.88-1.71-2.21 1.65.22 3.36-.21 4.92-.26 3.05-.11 6.34.4 9.25-.39l2.27 7.21c-2.84-1.43-5.79-.97-8.85-.76v9.09c1.16.09 2.5.47 3.66.25s1.02-1.87 2.41-1.51v7.7c0 .16-.38.62-.26.95l-.62.19c-.86-2.19-3.19-.91-4.94-1.16l-.25 3.68c1.74-.24 4.32.32 5.94 0zM104.21 100.26c-.46-.45 1.67-2.04 1.91-2.55.34-.73-.09-18.81-.64-24.3-.12-1.18-.59-2.12-1.02-3.18l9.68-.25c-.04.58-.43.72-.52 1.38-.52 3.62 2.28 11.17 3.51 14.85.43 1.28.95 2.62 1.47 3.87.88 0 3.99-15.35 4.67-16.99l-.97-2.85c.32-.34 8.28-.38 9.32-.27 1.92.21-.08 1.14-.29 1.77-.9 2.82-1.16 20.5-.88 23.57.17 1.89 1.08 3.01 2.28 4.35l-.36.6h-8.67c-1.25 0 .86-2.3 1-2.56.14-.24.65-1.25.65-1.38v-8.78c-.63-.17-.73.86-.88 1.29-.66 1.86-2.63 8.86-3.6 9.9-.72.77-4.96.97-5.53-.31-1.18-3.58-2.6-7.08-3.9-10.62-.25-.67-.04-1.7-.89-2.04l.27 11.05c.08 1.68 2.27 1.84 2.28 3.45h-8.92z" fill="#fff"/></svg>