<svg xmlns="http://www.w3.org/2000/svg" width="250" height="99" viewBox="0 0 250 99"><path d="M108.58 32.91a2 2 0 0 0 1.28-.47l.09-.07-6.8 16a2.07 2.07 0 0 0 1.91 2.88h3.67a2 2 0 0 0 1.9-1.26l4.2-9.85a21.88 21.88 0 0 1 8.55-9.14c-.09.25-.2.56-.36.93L116 48.4a2.07 2.07 0 0 0 1.91 2.88h3.67a2 2 0 0 0 1.9-1.26l4.2-9.85a21.88 21.88 0 0 1 8.54-9.17c-.09.25-.2.56-.36.93l-5.08 11.92a6.36 6.36 0 0 0 .09 5.91 4.78 4.78 0 0 0 4.23 2 25.52 25.52 0 0 0 13.05-4.08 5.68 5.68 0 0 0 .62 1.26c1.23 1.87 3.36 2.82 6.32 2.82 8.2 0 15-6.81 17.91-13.13 2.23-4.92 2.49-9.33.71-12.09a6.13 6.13 0 0 0-5.37-2.76 10.86 10.86 0 0 0-4.51.94l4.33-10a2.07 2.07 0 0 0-1.9-2.9h-.46a1.88 1.88 0 0 0-.53.07L157.48 14a2.09 2.09 0 0 0-1.41 1.26l-.35.92a2.08 2.08 0 0 0 .23 1.92 2.06 2.06 0 0 0 1.71.89h.49c-.09.22-.17.42-.22.53l-9.12 21.08-.12.3c-4 2.6-7.55 4.21-9.24 4.21a6 6 0 0 1-.94-.07 2 2 0 0 1 .12-.34l4.71-11.18c1.56-3.64 1.75-6 .61-7.78-.6-.91-1.84-2-4.4-2-2.24 0-4.85 1.22-7.79 3.64a4.08 4.08 0 0 0-.63-1.63c-.6-.92-1.85-2-4.42-2-2.13 0-4.6 1.11-7.37 3.3a3.76 3.76 0 0 0-.58-1.55 4.21 4.21 0 0 0-3.76-1.74c-2.14 0-4.79 1.72-7.1 3.4l-.32.23a3.15 3.15 0 0 0-1.29 3.6 2.56 2.56 0 0 0 2.29 1.92zm57.21-2.49c.58 0 .69.17.73.23.32.48.47 2.42-1.2 6.27-3 6.82-7.24 9.3-9.38 9.3a1.41 1.41 0 0 1-.6-.09c-.05-.15-.28-1.11.94-3.88l1.11-2.54.21-.23v-.25a24.63 24.63 0 0 1 3.74-5.87c1.66-1.89 3.23-2.94 4.45-2.94zM190.49 23.32a6.84 6.84 0 0 0 5.86-4 4.19 4.19 0 0 0-.25-4 3.84 3.84 0 0 0-3.26-1.64 6.75 6.75 0 0 0-5.81 4 4.14 4.14 0 0 0 .18 4 3.79 3.79 0 0 0 3.28 1.64zM10.23 12.4a3 3 0 0 0 1.49.33 9 9 0 0 0 3.76-.34 3.15 3.15 0 0 0 2.16-2.83l-.1-.27a9.4 9.4 0 0 0-4.82-1.51C11 7.87 9.27 9.26 9.42 11a1.89 1.89 0 0 0 .81 1.4zM12 79.16l-.07-.16a5 5 0 0 0-2.61.37 1.72 1.72 0 0 0-.84 2.23 1.64 1.64 0 0 0 1.53.69 4 4 0 0 0 1.64-.59 2.6 2.6 0 0 0 1.48-1.7 1 1 0 0 0-.25-.86.62.62 0 0 0-.88.02z" fill="#fff"/><path d="M13.53 62.49l-.39-1.59 8.76-6.12v-3.42l34-27.66-27 6.66-4.8-3.15 8.2-3.51H28l-1-2.45 29.55-6.55c-1.7-1.22-3.39-2.41-5.42-2.67a13.62 13.62 0 0 1-3.13-.39c-1.69-.65-2.54-2.56-4-3.56-1.21-.81-3-1.32-3.1-2.77a10 10 0 0 1 .37-1.69c.3-2-2-3.32-4-3.56-2.85-.35-6.26.84-7 3.6a11.81 11.81 0 0 0 .09 4.27 13.3 13.3 0 0 1-5 11.41 13.28 13.28 0 0 1-12.29 2c-1.49-.52-2.88-1.31-4.39-1.78a7.47 7.47 0 0 0-6.9 1c-1.91 1.5-2.45 4.65-.78 6.38 2 2 5.53 1.28 7.75 3s2.65 6 5.53 6.69c1.82.46 3.57-.8 5.29-1.56 2.94-1.29 6.29-1.15 9.5-1a4.56 4.56 0 0 1 2.2.49c1.93 1.2.93 4.41-1 5.58s-4.37 1.23-6.43 2.18a8.13 8.13 0 0 0-4.58 6.39c-.23 2.19.18 5-1.73 6.06-1.68.94-3.81-.33-5.67.16-1.66.43-2.63 2.1-3.43 3.63L4.6 66a2.4 2.4 0 0 0-.37 1.11 2 2 0 0 0 .93 1.5c2.53 2 6.18 1.44 9.18.33l3.3-5.31 7-7.46-8.93 6.36zM245.83 40.66c-1.58-1.46-4.17-2.18-7.91-2.18-8.47 0-20.44 3.82-21.51 4.16a46.24 46.24 0 0 1-11.65 2h-.83a2 2 0 0 1-1.63-.74 4.47 4.47 0 0 1-.33-3.19c.62 0 1.22.05 1.82.05a21 21 0 0 0 10.53-2.46 12.65 12.65 0 0 0 4.25-3.77 7 7 0 0 0 .76-7.24c-1.21-2.26-3.67-3.51-6.94-3.51-7 0-14 5.39-17.4 13.4a17.27 17.27 0 0 0-1.37 5.09 18.68 18.68 0 0 1-9.09 3.09h-.05a4.12 4.12 0 0 1 .3-1l5.36-12.67c.74-1.74 1.59-4.28.34-6.17a4.19 4.19 0 0 0-3.78-1.75c-3.6 0-7.31 2.61-10.45 7.35a2.06 2.06 0 0 0 .65 2.88l.78.46a2.14 2.14 0 0 0 1 .28 2.09 2.09 0 0 0 1.67-.85c.31-.43.61-.82.89-1.16L176 43.58a6.27 6.27 0 0 0 0 5.7 5.1 5.1 0 0 0 4.09 2.39 19.47 19.47 0 0 0 2 .11 26.42 26.42 0 0 0 12.61-3.65l.12.2a7.69 7.69 0 0 0 6.71 3.35h.29c5 0 11.91-2.34 15.22-3.47l1.26-.42.2-.07c3.66-1.14 12.09-3.31 17.82-3.31 3.11 0 4.2.63 4.58 1a6.75 6.75 0 0 1 1.88 5.32c-.16 2.13-1.35 5.39-6.11 8.84-3.05 2.28-10.42 3.43-21.87 3.43-21.46 0-54.39-4.07-80.67-7.62q-3.62-.48-7.24-.82v2.74h-1.49v16.07h1.49v2.83h-7v-2.83h1.5v-6.72h-7.46v6.72h1.46v2.83h-6.94v-2.83h1.47V57.3h-1.47v-2.82h6.94v2.82h-1.46v6h7.46v-6h-1.5v-2.82h6.34c-5.28-.48-10.54-.72-15.74-.72-5.44 0-10.62.26-15.51.72h8l3.17 3.21v3.48h-4V58.8l-1.5-1.5h-4.78l-1.47 1.5v13.11l1.47 1.46h4.77l1.5-1.46v-4.29h-1.81v-2.3h5.82V73L103 76.2h-9.43L90.36 73V57.69l3-3.06c-1.83.19-3.61.41-5.35.65v2h-1.42v16.09h1.47v2.83h-6.94v-2.83h1.46V57.3h-1.46v-.93l-1.29.25v.68h-1.5v16.07h1.5v2.83h-7v-2.83h1.5v-6.72h-7.47v6.72h1.47v2.83h-6.94v-2.83h1.46V57.3h-1.46v-2.82h6.94v2.82h-1.47v6h7.46v-5.54c-1.18.27-2.34.54-3.47.83a3 3 0 0 0 .57-1c.24-.69.21-1.44.41-2.15.63-2.26 3.38-3.23 5.72-3.08s4.6 1.07 7 1.09c2 0 4.17-.92 5-2.61 5.07-1.8 9.75-6.28 12.46-12.26 2-4.67 2.18-8.75.38-11.51a6.77 6.77 0 0 0-.48-.65 1.79 1.79 0 0 0 .72-1c.13-.55-.28-1.23-.84-1.16v-.48a4.91 4.91 0 0 0-3.22.31l-.09.07a10.8 10.8 0 0 0-3.16-.44c-5.71 0-11.47 3.67-15.24 9.46a2.66 2.66 0 0 1-1.75.09A1.94 1.94 0 0 1 77.28 32c-1.07-3.78 1.42-7.89 4.86-9.79s7.58-2 11.51-1.73a18.06 18.06 0 0 0 5.14 0 5.16 5.16 0 0 0 3.93-3 4.68 4.68 0 0 0-2.4-5.38 8.33 8.33 0 0 0-6.25-.33 23.58 23.58 0 0 1-3.64 1c-2.29.3-4.66-.64-6.87 0a2.92 2.92 0 0 0-.38.14l-1.33.66a21.9 21.9 0 0 1-4 2.49 5.82 5.82 0 0 1-1.59.31L61.55 23.7l1.35.86 3.18-.13s2.57-.36 2.69.74-38.67 29-38.67 29 2.33.25 2.45 1.1-3.8 4.41-3.8 4.41 22.89-3.43 25-3.55 4.89-.49 4.89-.49l.22 2.36s-3.67.86-6.12 1.6-1.84 1.22-3.18 2.93S39 66.29 39 66.29l-8-3.55-4.65 1.47.83 2.6c1.72.55 3.39 1.36 5.06 2.08a73.06 73.06 0 0 0 8.17 2.84v.22A2.1 2.1 0 0 0 42 73.64c17.67 4 25.47 23.61 25.55 23.81a2.07 2.07 0 0 0 1.79 1.32h.14a2.08 2.08 0 0 0 1.82-1.08c.07-.11 1.64-2.74 6.21-6 7.73-5.51 18-8.55 25.22-10.14a144.29 144.29 0 0 1 30.86-2.88c12.95 0 25.87 1.09 38.35 2.15 6.28.53 12.22 1 17.73 1.34 2.73.16 5.4.24 7.93.24 27.71 0 37.52-9.32 43.39-14.89l.1-.1c.43-.41.84-.8 1.23-1.15C247 62 250 55.78 250 50.36a12.81 12.81 0 0 0-4.17-9.7zm-34.29-11.38a1.31 1.31 0 0 1 .59.09 3.59 3.59 0 0 1-1 2.39 9.33 9.33 0 0 1-7.13 3.46c2.1-3.67 4.93-5.94 7.54-5.94zM85.91 38.56c2.4-5.65 5.36-9 8.16-9.25l1.24.33.21.05c.19.43.65 2.19-1.5 7.25-2.52 5.9-5.65 9.28-8.6 9.28-.53 0-.86-.1-1-.29s-.93-1.7 1.49-7.37zm-11.83 1.16a13.13 13.13 0 0 1 2.36-.45 3.94 3.94 0 0 0 .69-.21c-1.12 3.35-1.14 6.32 0 8.59-1.54.44-3.09 1.18-4.09.1a3.25 3.25 0 0 1-.64-1.5c-.59-2.39-.58-5.58 1.68-6.53z" fill="#fff"/></svg>