<?xml version="1.0" encoding="UTF-8"?><svg id="logos" xmlns="http://www.w3.org/2000/svg" width="250" height="201" viewBox="0 0 250 201"><path d="m14.42,81.73c0-.78-.62-1.16-.82-1.28l-.03-.02c-.06-.06-.12-.11-.19-.15l-1.84-1.13c-.28-1.42-.43-6.97-.43-8.66v-21.54l5.09-2.25v19.98c0,.83-.13,1.36-.46,1.86l-2.16,3.23s-.06.09-.08.14c-.03.07-.09.15-.14.22-.21.31-.47.7-.47,1.19s.24.97.63,1.23c.4.26.9.29,1.38.08l11.31-4.98c.66-.29,1.1-.97,1.1-1.69,0-.78-.62-1.16-.82-1.28l-.03-.02c-.06-.06-.12-.11-.19-.15l-2.14-1.31s-.14-.16-.14-.97V17.12c0-.83.13-1.36.46-1.86l2.16-3.24s.06-.09.08-.14c.03-.07.09-.15.14-.22.21-.31.47-.7.47-1.19s-.24-.97-.63-1.23c-.4-.26-.9-.29-1.38-.08l-11.31,4.98c-.29.13-.54.33-.72.58-.28-.05-.57,0-.86.12L1.1,19.82c-.66.29-1.1.97-1.1,1.69,0,.78.62,1.16.82,1.28l.03.02c.06.06.12.11.19.15l2.14,1.31s.14.16.14.97v55.2c0,.84-.13,1.36-.46,1.86l-2.16,3.23s-.06.09-.08.14c-.03.07-.09.15-.14.22-.21.31-.47.7-.47,1.19s.24.97.64,1.23c.22.15.48.22.74.22.21,0,.42-.05.63-.14l11.31-4.99c.66-.29,1.1-.97,1.1-1.69Zm-.69-64.03s.06-.09.08-.14c.03-.07.09-.15.14-.22,0-.01.02-.03.03-.04l2.09,1.29s.14.16.14.97v20.51l-5.09,2.25v-19.52c0-.84.13-1.36.46-1.86l2.16-3.23Z" fill="#fff"/><path d="m34.3,62.51l-2.3,2.82c-.06.08-.11.15-.15.25-.02.03-.08.11-.13.16-.19.22-.51.6-.51,1.14,0,.48.2.91.56,1.19.26.2.58.31.91.31.12,0,.25-.01.37-.04l19.85-4.65c.87-.2,1.48-1.01,1.48-1.95v-19.75c0-.49-.21-.93-.57-1.22-.34-.27-.77-.36-1.2-.26-.67.16-1.21.72-1.37,1.41l-4.12,16.04c-.18.6-.6.98-1.25,1.13l-2.98.7v-21.61l.55-.13,2.47,4.87.04.07c.51.97,1.23,1.03,1.74.91.57-.13,1.18-.61,1.18-1.56v-16.68c0-.56-.18-.98-.53-1.26-.19-.15-.58-.37-1.16-.24-.78.18-1.04.79-1.23,1.23l-2.68,6.14s-.06.08-.07.1l-.3.07V10.94l3.5-.82c.53-.13.57-.02.66.25l4.13,13.78c.23.9,1.08,1.43,1.96,1.22.75-.18,1.25-.84,1.25-1.66V4.13c0-.54-.23-1.03-.64-1.36-.39-.31-.88-.42-1.36-.31l-19.85,4.65c-.78.18-1.33.87-1.33,1.68,0,.71.52,1.1.75,1.27.02.02.04.03.06.05.05.06.11.11.17.16l2.28,1.73c.07.06.26.21.26,1.16v47.69c0,.79-.12,1.26-.44,1.65Z" fill="#fff"/><path d="m62.51,56.8l-2.35,2.49c-.08.08-.12.14-.17.25-.03.04-.07.08-.11.11-.2.2-.57.57-.57,1.17,0,.45.18.87.5,1.16.28.26.65.4,1.04.4.05,0,.1,0,.15,0l19.2-1.71c.44-.04,1.89-.32,1.89-2.3v-19.28c0-.51-.19-.96-.52-1.27-.3-.27-.69-.41-1.1-.37-.93.08-1.23.84-1.33,1.09-.02.04-.03.09-.06.14-.02.05-.04.1-.06.15l-4.86,15.69c-.07.22-.16.51-1.07.59l-1.91.17V7.07c0-.88.16-1.24.4-1.49l2.35-2.49c.05-.05.08-.09.12-.16.03-.04.08-.08.12-.13.23-.24.62-.65.62-1.25,0-.45-.18-.87-.5-1.16-.32-.29-.75-.43-1.2-.39l-12.31,1.09c-.85.08-1.5.78-1.5,1.64,0,.66.45,1.05.69,1.26.03.03.07.06.06.05.05.07.11.14.17.19l2.34,2.06c.18.16.34.43.34,1.31v47.69c0,.88-.16,1.24-.4,1.49Z" fill="#fff"/><path d="m90.38,55.07l-2.36,2.19c-.08.08-.15.16-.21.26-.02.02-.05.04-.07.06-.2.18-.63.55-.63,1.19,0,.89.67,1.58,1.56,1.62l19.27.73s.06,0,.1,0c.67,0,1.09-.27,1.33-.5.41-.39.61-.95.61-1.69v-19.28c0-.93-.64-1.66-1.48-1.69-.68-.03-1.17.32-1.47,1.03-.02.04-.03.08-.05.12-.03.05-.05.11-.07.16l-4.87,15.07c-.06.18-.13.37-.93.34l-2.06-.08V8.22c0-.84.14-1.16.35-1.35l2.36-2.19c.06-.06.09-.09.14-.16.03-.03.07-.07.1-.1.23-.22.67-.62.67-1.26,0-.89-.67-1.58-1.56-1.62l-12.35-.47c-.44-.02-.85.14-1.16.43-.31.29-.48.71-.48,1.15,0,.61.4,1.01.64,1.25.04.04.08.08.09.09.04.06.09.13.15.18l2.35,2.36c.24.25.39.59.39,1.45v45.72c0,.84-.15,1.16-.35,1.35Z" fill="#fff"/><path d="m126.86,63.49c.46.07.9.11,1.34.11,1.73,0,3.27-.57,4.58-1.69,5.1-4.37,5.81-16.5,5.81-28.95s-1.18-28.76-11.37-30.34c-2.27-.35-4.26.19-5.91,1.6-5.14,4.4-5.73,16.67-5.73,25.52,0,16.62,1.37,32.22,11.3,33.76Zm-2.67-32.69c0-21.14,2.55-22.01,2.67-22.04.13.02,3.09.74,3.09,23.28,0,23.91-2.45,25.22-2.75,25.29-.01,0-1.06-.3-1.89-5.36-.74-4.53-1.12-11.65-1.12-21.17Z" fill="#fff"/><path d="m140.16,58.1c1.52.25,2.52.73,2.96,1.45.66,1.07.15,2.75-.27,4.11-.41,1.33-.76,2.47.05,3.26.36.35.8.46,1.21.46.49,0,.95-.15,1.19-.23,3.9-1.29,6.21-3.29,6.87-5.95,1.13-4.54-3.15-9.09-3.34-9.28-.36-.37-.92-.46-1.36-.2l-7.69,4.31c-.42.23-.64.71-.56,1.18.08.47.46.84.93.92Z" fill="#fff"/><path d="m68.41,73.37c-.41-4.13-.75-5.42-2.04-5.42-.2,0-.39.05-.56.15l-8.58,4.9c-1.89.55-4.03,5.48-11.47,28.39-1.49,4.59-3.02,9.29-3.9,11.62-.78-1.63-1.92-4.48-2.89-6.91-4.52-11.3-6.38-15.06-8.5-15.06-.26,0-.52.09-.72.26l-11.24,9.36c-.06.05-.11.1-.16.16-6.77,8.47-6.08,94.28-4.03,98.56.34.71.96.76,1.14.76.07,0,.14,0,.21-.02.11-.02,2.76-.52,5.46-1.2,5.28-1.32,6.25-2.15,6.25-3.29,0-.21-.04-1.54-.15-4.8-.4-12.2-1.45-44.6-1.45-60.57v-.14c0-8.01,1.13-9.42,1.33-9.6.48.1,1.6,1.22,3.95,7.22.22.56.4,1.01.54,1.33,2.24,7.3,2.76,15.65,3.22,23.02.62,9.89,1.07,17.04,5.64,17.04,3.44,0,4.33-6.38,5.85-19.65,1.13-9.86,2.41-21.04,5.44-28.43l.21-.52c2.85-6.97,4.15-7.94,4.52-8.06.24.21,1.23,1.55,1.18,9.35v.38c0,15.94-3.36,50.76-4.62,63.86-.39,4.02-.48,4.98-.48,5.21,0,.77.34,1.26.62,1.54.8.78,2.07.75,2.9.72.15,0,.29,0,.42,0l9.62-.84c1.3-.04,1.78-1.42,2.28-6.53.33-3.35.62-8.17.86-14.32.42-10.93.66-25.88.66-41.03,0-17.54-.26-33.49-.73-44.91-.22-5.4-.49-9.63-.78-12.56Z" fill="#fff"/><path d="m101.16,124.04c-.82.13-1.59.84-2.74,1.92-1.84,1.72-4.62,4.32-8.27,4.88-1.6.25-2.92-.07-3.94-.93-1.57-1.33-2.47-3.99-2.53-7.48-.11-7,3.78-10.14,6.42-10.54,1.32-.2,2.67.19,3.66.48.7.2,1.16.33,1.61.27.81-.12,1.18-.18,3.14-7.49.02-.06,1.72-6.53,1.72-6.95-.01-.65-.28-1.22-.77-1.63-1.14-.97-3.05-.71-3.27-.67-3.37.52-6.35,2.45-8.53,3.86-1.08.7-2.19,1.42-2.69,1.5-.04,0-.06,0-.06,0-.13-.06-.61-.76-.65-3.02-.1-6.64,3.66-10.2,7.44-10.77,3.73-.57,5.57.7,6.79,1.54.68.47,1.27.87,2.01.76.72-.11,1.19-.18,3.42-6.64.02-.06,2.01-5.82,2-6.65-.01-.85-.41-1.36-.74-1.63-.96-.79-2.39-.53-3.24-.38-.09.02-.17.03-.23.04l-23.76,3.64c-1.03.16-2.1.32-3.84,20.67-.92,10.82-1.54,22.31-1.46,27.36.13,3.62.18,6.57.21,8.93.1,6.38.14,8.53,1.46,9.6.49.39,1.05.51,1.56.51.33,0,.64-.05.9-.1l27.66-4.23c.08-.01.18-.02.28-.03.72-.07,2.93-.3,2.89-2.6-.02-1.03-3.91-12.6-5.41-13.86-.42-.35-.84-.35-1.05-.32Z" fill="#fff"/><path d="m137.27,99.97c-.94.05-5.81,2.65-6.36,2.94-5.93,3.18-5.93,3.84-5.93,4.53,0,1.27.94,2.02,1.86,2.75,1.39,1.11,2.96,2.37,2.96,5.83,0,4.68-3.51,6.52-6.79,6.68-2.03.1-3.66-.46-4.96-1.69-2.44-2.33-3.73-7.18-3.73-14.03,0-5.93,1.02-11.77,2.79-16.04,2.15-5.16,5.22-7.88,9.12-8.07,3.91-.19,4.18,1.69,4.5,3.86.18,1.26.46,3.17,2.39,3.08,4.53-.22,7.35-3.47,7.35-8.47,0-3.21-1.09-5.87-3.23-7.92-3.19-3.03-7.99-3.94-11.41-3.77-15.34.75-23.62,20.79-23.62,39.27,0,11.15,2.81,19.72,8.13,24.79,3.46,3.3,7.83,4.96,12.99,4.96.4,0,.8-.01,1.21-.03,7.97-.39,16.55-5.72,16.55-16.5,0-.19-1.02-20.09-2.85-21.83-.27-.25-.61-.38-.96-.37Z" fill="#fff"/><path d="m164.21,71.04c-1.83-.12-4.94,2.64-5.85,3.49-2.35,2.19-6.83,7.12-10.48,15.5-3.74,8.56-5.63,18.39-5.63,29.21,0,12.83,1.45,18.17,5.01,18.41l8.7.6c.53.04,1.33.09,1.88-.43.22-.2.48-.57.48-1.16,0-.56-.28-1.24-.96-2.88-1.12-2.7-3-7.21-3-11.24,0-2.38.68-4.17,2.08-5.48,2.1-1.96,5.94-2.81,11.08-2.46,1.3.09,4.31.66,4.31,4.04,0,5.68-2.05,10.83-3.4,14.24-.77,1.94-1.28,3.22-1.28,4.16,0,1.4,1.06,2.14,3.16,2.2.08,0,.15,0,.2,0l6.82.47c.12,0,.24.03.36.05.23.04.53.08.85.08.54,0,1.16-.13,1.75-.63,1.39-1.19,2.68-4.3,2.68-18.89,0-35.5-15.45-49.07-18.76-49.3Zm5.86,29.69c0,.81-.16,1.02-.21,1.07-.12.11-.51.23-1.69.15-3.82-.26-7.92.44-10.36.87-.82.14-1.75.31-2.02.3-.02-.02-.08-.16-.08-.43,0-3.94,3.86-12.2,7.13-15.25.97-.9,1.42-.9,1.42-.9,1.57.49,5.81,9.49,5.81,14.2Z" fill="#fff"/><path d="m223.36,83.28l-4.6-1.15c-.16-.04-.32-.09-.49-.13-.9-.25-1.92-.54-2.69.05-.24.18-.65.61-.65,1.42,0,.53.16,1.54.52,3.76.87,5.4,2.5,15.46,2.5,26.07v.4c-11.61-30.78-15.47-35.64-17.9-36.25l-4.68-1.17-.06-.02c-.3-.09-1.1-.32-1.9.29-1.05.79-3.52,2.64-3.52,36.62,0,28.6,1.66,28.94,3.95,29.41.05.01.11.02.16.03l5.51,1.38c.07.02.15.05.24.08.53.18,1.43.48,2.16-.05.24-.18.66-.59.66-1.4,0-1.25-.22-2.88-.53-5.13-.71-5.2-1.9-13.89-1.9-29.12,0-.21,0-.55-.02-.97-.09-3.84.02-5.88.17-6.94,1.72,2.68,5.08,11.15,6.59,15.61,4.81,13.94,6.12,21.74,6.82,25.92.68,4.09.97,5.79,3.63,6.45l6.22,1.55c.05.01.11.03.16.04.2.06.51.15.87.15s.74-.09,1.13-.38c1.32-.98,2.5-3.84,2.5-27.64,0-37.86-2.68-38.44-4.84-38.91Z" fill="#fff"/><path d="m241.04,137.54c1.62.76,2.89,1.13,3.8,1.13.42,0,.77-.08,1.03-.25.41-.26.65-.69.65-1.18,0-.52-.08-1.72-.2-3.55-.25-3.79-.68-10.12-.68-15.43,0-7.9,2.35-14.46,3.61-17.99.54-1.52.76-2.15.76-2.64,0-1-.45-2.4-2.59-3.39h0l-7.36-3.43c-.19-.09-.37-.19-.54-.28-.72-.38-1.62-.86-2.54-.31-1.21.73-1.61,2.49-1.61,11.46,0,4.45.66,12.97,1.57,20.24,1.82,14.54,3.37,15.26,4.11,15.61Z" fill="#fff"/><path d="m243.05,140.71c-1.72-.8-3.44-.75-4.85.15-1.8,1.15-2.83,3.5-2.83,6.46,0,5.22,2.98,10.69,6.79,12.47.86.4,1.71.6,2.53.6.9,0,1.75-.24,2.51-.72,1.79-1.14,2.82-3.51,2.82-6.49,0-5.17-3.05-10.65-6.95-12.47Z" fill="#fff"/></svg>