<svg xmlns="http://www.w3.org/2000/svg" width="300" height="78" viewBox="0 0 300 78"><g fill="#fff"><path d="M21.63 63.38v2.55h-4.31v11.85h-3.03V65.93H9.96v-2.55h11.67zM25.83 77.78v-14.4h2.99v5.49h5.6v-5.49h2.99v14.4h-2.99v-6.43h-5.6v6.43h-2.99zM53.41 65.93h-7.62v3.06h7v2.5h-7v3.7h7.97v2.59H42.85v-14.4h10.56v2.55zM69.98 63.38h3.41l5.1 14.4h-3.26l-.95-2.96h-5.3L68 77.78h-3.15l5.14-14.4zm-.2 8.96h3.69l-1.82-5.67-1.87 5.67zM82.72 63.38h3.16l5.72 10.04V63.38h2.8v14.4h-3.01l-5.86-10.22v10.22h-2.8v-14.4zM103.8 63.38h3.41l5.1 14.4h-3.26l-.95-2.96h-5.3l-.98 2.96h-3.15l5.14-14.4zm-.2 8.96h3.69l-1.82-5.67-1.87 5.67zM125.59 63.38v2.55h-4.31v11.85h-3.03V65.93h-4.33v-2.55h11.67zM140.55 76.5c-1.09 1.12-2.66 1.68-4.72 1.68s-3.63-.56-4.72-1.68c-1.46-1.37-2.19-3.35-2.19-5.94s.73-4.62 2.19-5.94c1.09-1.12 2.66-1.68 4.72-1.68s3.63.56 4.72 1.68c1.45 1.32 2.18 3.3 2.18 5.94s-.73 4.57-2.18 5.94zm-1.88-2.19c.7-.88 1.05-2.13 1.05-3.75s-.35-2.86-1.05-3.75c-.7-.88-1.65-1.32-2.84-1.32s-2.14.44-2.85 1.32c-.71.88-1.07 2.13-1.07 3.75s.35 2.87 1.07 3.75c.71.88 1.66 1.32 2.85 1.32s2.14-.44 2.84-1.32zM157.04 63.38h4.33v14.4h-2.8v-9.74-1.18-1.17l-2.73 12.09h-2.93l-2.71-12.09v12.09h-2.8v-14.4h4.38l2.62 11.33 2.6-11.33zM174.83 63.38h3.41l-4.82 9v5.4h-3.01v-5.4l-4.98-9h3.55l2.99 6.27 2.86-6.27zM201.19 76.5c-1.09 1.12-2.66 1.68-4.72 1.68s-3.63-.56-4.72-1.68c-1.46-1.37-2.19-3.35-2.19-5.94s.73-4.62 2.19-5.94c1.09-1.12 2.66-1.68 4.72-1.68s3.63.56 4.72 1.68c1.45 1.32 2.18 3.3 2.18 5.94s-.73 4.57-2.18 5.94zm-1.88-2.19c.7-.88 1.05-2.13 1.05-3.75s-.35-2.86-1.05-3.75c-.7-.88-1.65-1.32-2.84-1.32s-2.14.44-2.85 1.32c-.71.88-1.07 2.13-1.07 3.75s.35 2.87 1.07 3.75c.71.88 1.66 1.32 2.85 1.32s2.14-.44 2.84-1.32zM208.12 63.4h10.27v2.53h-7.28v3.31h6.38v2.5h-6.38v6.04h-2.99V63.4zM230.83 63.4h10.27v2.53h-7.28v3.31h6.38v2.5h-6.38v6.04h-2.99V63.4zM256.17 65.93h-7.62v3.06h7v2.5h-7v3.7h7.97v2.59h-10.91v-14.4h10.56v2.55zM265.44 63.38h3.41l5.1 14.4h-3.26l-.95-2.96h-5.3l-.98 2.96h-3.15l5.14-14.4zm-.2 8.96h3.69l-1.82-5.67-1.87 5.67zM287.47 63.75c.53.23.98.56 1.35 1.01.3.36.55.77.72 1.21.18.44.27.95.27 1.51 0 .68-.17 1.36-.52 2.02-.35.66-.92 1.13-1.71 1.4.66.27 1.13.65 1.41 1.14s.42 1.24.42 2.25v.97c0 .66.03 1.1.08 1.34.08.37.26.64.56.82v.36h-3.32c-.09-.32-.16-.58-.2-.77-.08-.4-.12-.82-.13-1.24l-.02-1.34c-.01-.92-.17-1.53-.48-1.84-.31-.31-.88-.46-1.71-.46h-2.94v5.65h-2.94v-14.4h6.89c.98.02 1.74.14 2.27.37zm-6.22 2.13v3.87h3.24c.64 0 1.13-.08 1.45-.23.57-.27.85-.81.85-1.62 0-.87-.28-1.46-.83-1.76-.31-.17-.77-.25-1.39-.25h-3.32z"/><g><path d="M257.76 15.22h39.11V3.74h-51.86l-3.41 25.93h17.56s19.78-3.93 19.78 4.52c0 7.26-20.52 5.48-20.52-.59h-19.48s-1.78 9.85 11.26 14.37 39.04 3.48 45.41-3.56c6.37-7.04 6.55-18.43-4.52-23.56-14.08-6.52-33.78-1.93-33.78-1.93l.44-3.7zM25.23 38.31c-.77.1-1.5.4-2.24.63-.84.25-1.69.44-2.56.57-1.75.26-3.52.28-5.28.25-1.57-.03-3.13-.13-4.69.1 1.05-4.47 2.59-8.77 4.06-13.12.74-2.2 1.45-4.37 1.94-6.64.24-1.1.96-1.79 1.43-2.77.35-.73.55-1.52.61-2.33a6.42 6.42 0 0 0-.45-2.81c-.18-.46-.59-1.48-1.14-1.72-.25-.6-.92-.9-1.57-.83-.95.11-1.56 1.01-2.09 1.72-.75 1.01-1.18 1.99-1.35 3.24-.17 1.23-.44 2.43-.94 3.57-.48 1.1-1.27 2.02-1.75 3.1-.49 1.12-.16 2.27-.24 3.43-.09 1.29-.68 2.54-1.13 3.74-.48 1.29-.97 2.59-1.45 3.88-.51 1.36-1.1 2.72-1.3 4.16-.17 1.28.02 2.56-.05 3.85-.41.11-.8.24-1.18.44-.48.25-.88.61-1.34.87-.79.44-1.88.39-2.36 1.29-.37.69-.04 1.41.7 1.61 1.02.29 2.15.35 3.21.48-.28 1.2-.48 2.42-.32 3.65.09.73.4 2.12 1.44 1.9.44-.1.8-.53 1.09-.84.39-.41.75-.86 1.07-1.32.65-.93 1.14-1.95 1.56-3 .88-.17 1.62-.67 2.47-.94.94-.3 1.93-.31 2.91-.25 2.18.12 4.31.23 6.5.06 1.1-.08 2.19-.2 3.28-.33.97-.11 2.01-.16 2.95-.44 1.67-.5 2.53-2 1.65-3.59-.76-1.17-2.05-1.79-3.44-1.61zM86.82 32.12c-.65-2.42-1.65-4.69-4.04-5.81-1.13-.53-2.87-.84-3.56-1.98-.35-.58-.43-1.33-.55-1.98-.15-.79-.28-1.58-.39-2.38-.2-1.48-.31-3.04.92-4.12 1.1-.96 2.71-1.54 4.17-1.46 1.32.07 2.55.76 3.19 1.92 0 .02.02.03.04.04-.1 1.98-.77 5.5 1.48 6.58 2.38 1.15 2.87-2.76 3-4.19.21-2.4-.26-4.98-2.18-6.62-2.11-1.79-5.02-2.03-7.62-1.34-5.01 1.33-9 5.78-9.07 11.07-.02 1.24.11 2.4 1.08 3.26.97.86 2.11 1.53 3.2 2.24 1.13.74 2.24 1.54 3.08 2.61.87 1.11 1.43 2.43 1.87 3.76.45 1.34 1.08 2.9 1.04 4.33-.02.71-.26 1.36-.61 1.97-.33.58-.88 1.66-1.54 1.86-.67.21-1.59.02-2.28-.02-.81-.05-1.62-.11-2.42-.19-.82-.08-1.58-.13-2.11-.84-.34-.45-.59-.96-.98-1.38-.5-.53-.95-.86-1.02-1.64-.07-.75-.08-1.5-.2-2.25-.18-1.18-.47-2.45-1.21-3.41-.63-.81-1.67-1.34-2.7-1.13.66-1.49 1.45-3.07 1.61-4.66.09-.92-.04-1.84-.2-2.74-.34-1.91-.82-3.79-1.44-5.63-.52-1.55-1.05-3.55-2.32-4.68-.59-.53-1.31-.86-2.02-1.17-.53-.23-.91-.67-1.44-.91-1.32-.62-2.86-.43-4.25-.2-1.68.28-3.33.63-4.71 1.7-1.08.84-1.94 1.92-2.74 3.03-.38-.59-.77-1.17-1.15-1.75-.31-.47-.58-1-.98-1.41-.39-.4-.89-.52-1.41-.66-1.2-.32-2.31-.85-3.34-1.53a.324.324 0 0 0-.17-.24c-1.15-.5-2.33-.32-3.49.07-1.11.38-2.24.83-3.27 1.39-2.34 1.27-3.52 3.53-4.55 5.88-1.12 2.56-1.98 5.25-2.79 7.92-.8 2.66-1.46 5.47-1.14 8.27.31 2.7 1.64 5.03 3.16 7.22.74 1.07 1.52 1.97 2.73 2.5 1.18.52 2.48.88 3.76 1.09 2.55.42 5.01-.1 7.25-1.36.96-.54 1.96-1.19 2.77-1.97 1.05 1.1 2.3 2 3.76 2.53 1.64.6 3.43.68 5.15.44 1.71-.24 3.57-.76 5.02-1.74 2.02-1.37 2.96-3.71 3.87-5.87.16-.38.32-.75.48-1.13.14 1.85.76 3.7 1.65 5.27 1.17 2.07 3.15 4.43 5.68 4.61.74.05 1.48 0 2.23.05.83.07 1.66.21 2.48.33 1.32.19 2.66.32 3.98.05 2.63-.54 4.09-2.96 5.07-5.28 1.15-2.72.95-5.54.2-8.34zm-24.04-5.91c-.05 1.3.06 2.59-.08 3.89-.3 2.07-1.28 3.91-2.51 5.58-1.19 1.62-2.58 3.44-4.33 4.48-.43.26-.9.49-1.4.59-.77.16-1.19-.26-1.68-.77-.75-.78-1.49-1.57-2.19-2.39-.32-.37-.62-.76-.92-1.15 1.06-2.14 2.29-4.21 3.06-6.48.98-2.88 1-5.98 0-8.87-.32-.87-.72-1.71-1.16-2.52.49-.45 1-.87 1.52-1.27.86-.66 1.81-1.57 2.87-1.87 1.08-.31 2.16.25 3.24.2.07 0 .47-.09.37-.1.07 0 .19.1.26.12.43.11.95.02 1.39.09.56.1 1.11.3 1.48.76.42.54.54 1.26.61 1.92.14 1.29.02 2.59-.13 3.88-.16 1.3-.36 2.59-.42 3.9zm-28.4-3.49c.28-.77.85-1.49 1.3-2.16.52-.78 1.06-1.54 1.63-2.28.58-.77 1.19-1.53 1.82-2.26.55-.63 1.13-1.23 1.95-1.48.02 0 .03-.01.04-.02 2.77.27 4.86 2.6 6.29 4.86-.48.74-.94 1.48-1.41 2.22-.95 1.53-1.95 3.06-2.64 4.74-.7 1.71-.83 3.43-.48 5.24.31 1.62.77 3.23 1.38 4.77-1.88 1.81-4.34 3.45-6.96 3.57-.85.04-1.49-.24-2.04-.89-.5-.6-.95-1.27-1.35-1.93-.37-.62-.69-1.29-.82-2.01-.15-.89.08-1.76.27-2.63.36-1.57.6-3.16.74-4.77.06-.79.1-1.57.11-2.36 0-.85-.14-1.8.15-2.62zm12.81 9.24c-.72-2.11-.86-4.36-.12-6.48.4-1.16.98-2.32 1.66-3.41.7 1.96.96 4.09.89 6.16-.05.84-.21 1.62-.65 2.34-.43.71-1.01 1.33-1.52 1.99l-.02.02c-.08-.21-.16-.41-.24-.63z"/><path d="M87.83 24.31s-.02.03-.03.05c-.04.04-.07.09-.09.15-.2.49-.37 1-.49 1.52-.11.46-.23 1.04.22 1.36.48.34 1.04-.06 1.28-.48.21-.37.31-.82.26-1.24-.05-.51-.25-.99-.62-1.35a.387.387 0 0 0-.53 0z"/><path d="M95.29 25.28c.26-.78.49-1.56.71-2.35.41-1.51.72-3.04.96-4.59.94-.16 1.79-.52 2.66-.91 1-.45 2.02-.84 3.08-1.13 1.06-.29 2.17-.54 3.26-.59 1.18-.06 2.1.37 3.19.71.84.26 1.71.32 2.47-.17.81-.52 1.55-1.28 2.24-1.95.5-.48.98-1.1.88-1.84-.09-.67-.58-1.22-1.28-1.21-.47-.08-1.04.03-1.49.1-.67.11-1.33.29-1.99.47-1.44.41-2.82.75-4.33.61-1.48-.13-2.8-.24-4.24.16-1.37.38-2.72.84-4.07 1.28-.11-1.04-.6-2.16-1.84-1.99-1.56.21-1.86 1.94-2.1 3.24-.78.21-2.04.48-2.13 1.38-.09.88.91 1.18 1.64 1.37-.27 1.59-.52 3.19-.75 4.79l-.33 2.39c-.07.49-.13.99-.2 1.48-.05.34-.03.95-.26 1.21-.21.22-.83.37-1.11.49-.41.18-.82.36-1.22.54-.45.2-.84.49-.83 1.03 0 1.18 1.38 1.43 2.4 1.5-.51 1.71-1.11 3.4-1.61 5.11-.53 1.8-.98 3.63-1.4 5.46-.91.32-2.41.83-2.36 1.93.03.87.9 1.15 1.65 1.28-.17.76-.33 1.53-.49 2.29-.1.51-.2 1.12.15 1.57.89 1.14 2.04-.86 2.36-1.54.32-.67.61-1.35 1.23-1.79.73-.51 1.54-.71 2.37-.99.87-.29 1.73-.55 2.65-.53.91.02 1.8.24 2.7.25 1.71.01 3.25-1.05 4.96-.96.87.04 1.67.46 2.52.58.83.12 1.61-.08 2.39-.37.89-.33 1.78-.69 2.66-1.04.81-.31 1.68-.57 2.44-.99 1.07-.6 1.72-2.11.45-2.9-.72-.45-1.53-.29-2.32-.33-.98-.04-1.87-.52-2.85-.56-1.76-.08-3.23 1.28-4.99 1.11-.15-.02-.26.07-.32.19-1.62.32-3.18.91-4.83 1.16-1.8.28-3.62.38-5.43.59.22-1.69.45-3.35.89-5 .43-1.64.92-3.26 1.28-4.92 1.25-.29 2.48-.65 3.73-.92 1.35-.29 2.67-.35 4.05-.37 1.13-.02 2.23-.14 3.25-.66.99-.51 1.84-1.31 2.91-1.64.8-.25 2.04.17 2.49-.74.14-.28.2-.63.15-.94-.08-.51-.34-.58-.82-.69-1.28-.31-2.61-.48-3.92-.51-.58-.01-1.16.02-1.72.19-.59.18-1.13.5-1.69.74-1.34.58-2.81.76-4.26.81-1.25.04-2.54-.09-3.77.15 0-.08-.02-.16-.02-.24 0-.14-.01-.1 0-.22.02-.18.13-.38.19-.55zM142.13 38.31c-.77.1-1.5.4-2.24.63-.84.25-1.69.44-2.56.57-1.75.26-3.52.28-5.28.25-1.57-.03-3.13-.13-4.69.1 1.05-4.47 2.59-8.77 4.06-13.12.74-2.2 1.45-4.37 1.94-6.64.24-1.1.96-1.79 1.43-2.77.35-.73.55-1.52.61-2.33a6.42 6.42 0 0 0-.45-2.81c-.18-.46-.59-1.49-1.15-1.73-.35-.86-1.5-1.02-2.27-.57-.55.33-.94.87-1.31 1.38-.45.6-.88 1.23-1.13 1.94-.26.76-.29 1.57-.43 2.35-.15.78-.37 1.55-.67 2.29-.3.74-.67 1.45-1.11 2.12-.41.63-.84 1.24-.99 1.99-.14.72-.03 1.44-.01 2.17.02.96-.23 1.85-.56 2.75-.17.46-.34.92-.52 1.38-.56 1.51-1.13 3.01-1.69 4.52-.3.79-.61 1.57-.84 2.38-.49 1.72-.23 3.42-.33 5.16-.41.11-.8.24-1.18.44-.48.25-.88.61-1.34.87-.79.44-1.88.39-2.36 1.29-.37.69-.04 1.41.7 1.61 1.02.29 2.15.35 3.21.48-.28 1.2-.48 2.42-.32 3.65.09.73.4 2.12 1.44 1.9.44-.1.8-.53 1.09-.84.39-.41.75-.86 1.07-1.32.65-.93 1.14-1.95 1.56-3 1.02-.2 1.88-.81 2.89-1.05 1.1-.26 2.25-.16 3.37-.08 1.28.1 2.54.11 3.82.1 1.26 0 2.08.85 3.17 1.34.82.37 1.6-.32 2.35-.58.81-.28 1.67-.49 2.36-1.02.31-.24.48-.58.76-.82.33-.29.7-.41.99-.78.62-.79.53-1.74.07-2.59-.76-1.17-2.05-1.79-3.44-1.61zM153.18 11.92c.95.25 1.41-.88 1.66-1.57.35-.99.76-2.1 1.65-2.73.51-.37 1.15-.52 1.64-.92.37-.31.66-.72.84-1.17.36-.88.32-1.89-.14-2.72.02-.85-.05-1.86-.74-2.45-.68-.58-1.64-.39-2.29.13-.9.72-1.08 1.92-1.56 2.9-.27.55-.63 1.06-1.06 1.51-.38.4-.87.73-1.09 1.25-.46 1.09.5 2.09.54 3.16.03.81-.66 2.28.57 2.61zM152.44 27.33c.26-1.32.92-2.46 1.53-3.64.58-1.13 1.02-2.3 1.25-3.55.14-.76.59-5.95-.92-5.66-1.86-.52-3.24 1.34-3.67 2.94-.32 1.22-.42 2.45-1 3.59-.52 1.01-1 1.93-1.14 3.08-.15 1.18-.08 2.38-.09 3.57-.01 1.26-.04 2.53-.09 3.79-.12 2.61-.36 5.21-.85 7.77-.24 1.25-.61 2.47-.82 3.72-.1.58-.48 2.11.52 2.13.84.01 1.27-1.15 1.51-1.76.41-1.01.62-2.08.93-3.13.33-1.13.87-2.07 1.49-3.07.57-.93.95-1.89 1.11-2.97.33-2.26-.18-4.56.26-6.8zM162.73 42.74c-.2.02-.37.15-.37.37 0 .02 0 .03.01.05-.38.62-.73 1.26-1.04 1.91-.31.66-.69 1.47-.14 2.12.24.28.63.38.98.3.37-.08.66-.36.86-.67.4-.62.58-1.43.6-2.16.01-.4-.02-.84-.13-1.23-.1-.35-.37-.74-.78-.69z"/><path d="M178.38 23.7c.26-3.09.82-6.23 2.32-8.98.83-1.53 2.03-2.7 3.09-4.05.97-1.23 1.66-2.67 1.39-4.27a.296.296 0 0 0-.2-.25.326.326 0 0 0-.26-.02c-1.59.51-2.73 1.87-3.8 3.08a37.385 37.385 0 0 0-3.38 4.44c-1.07 1.62-2.05 3.3-3.09 4.93s-2.18 3.16-3.37 4.68c-1.13 1.44-2.11 2.93-2.9 4.57-.65-1.43-1.48-2.79-2.23-4.16-.84-1.53-1.83-3.1-1.94-4.87.1-.07.17-.18.18-.31.1-1.1-.18-2.16-.62-3.16-.38-.88-.83-1.99-1.55-2.65-1.71-1.58-3.31 1.1-3.97 2.38-.49.94-.88 1.95-.98 3.02-.05.48-.03.96.06 1.43.12.59.47 1.12.55 1.71.09.63-.18 1.31-.34 1.91-.17.65-.33 1.31-.5 1.96-.32 1.23-.64 2.46-.97 3.69-.66 2.45-1.37 4.89-2.18 7.29-.4 1.2-.84 2.39-1.29 3.58-.37.97-.76 2-.72 3.05.04.86.39 1.85 1.22 2.25.84.4 1.58-.19 2.13-.78.75-.82 1.49-1.67 2.06-2.63.58-.98.85-2.02 1-3.14.37-2.73 1.26-5.28 2.03-7.91.65-2.21 1-4.47 1.28-6.75 1.12 2.87 2.36 5.7 3.74 8.46.19.38.39.77.58 1.15.05.1.11.21.16.31.08.08.08.12-.01.13-.02.18-.18.48-.25.64-.35.86-.73 1.7-1.18 2.51-.73 1.31-1.78 2.56-1.69 4.14.01.19.16.39.37.37 1.51-.14 2.33-1.39 3.25-2.44 1.11-1.27 2.68-2.05 3.68-3.42.54-.74.92-1.57 1.32-2.38.45-.92.92-1.83 1.39-2.73.48-.9.97-1.8 1.48-2.69.23-.41.47-.82.71-1.23.18-.31.4-.8.74-1 .16 2.22-.15 4.41-.92 6.51-.78 2.14-1.83 4.16-2.43 6.36a22.17 22.17 0 0 0 .47 13c.09.25.42.38.62.16 1.94-2.07 2.11-5.21 2.56-7.86.56-3.3 1.17-6.6 1.61-9.91.45-3.36.5-6.75.79-10.12z"/><path d="M197.82 26.88c.59-.7 1.39-1.19 2.11-1.76.9-.71 1.47-1.58 1.87-2.64.87-2.33 1.13-5.09-.23-7.29-1.29-2.08-3.88-2.79-6.14-3.25-2.62-.54-5.18.19-7.53 1.35-1.45.72-2.83 1.58-4.18 2.47-.65.43-1.29.87-1.93 1.31-.54.37-1.13.71-1.4 1.33-.09.21-.03.48.22.55 1.38.35 2.78.45 4.19.32-.8 2.33-1.57 4.67-2.27 7.03-1.22.33-3.22.84-3.44 2.26-.1.62.26 1.18.78 1.48.48.28 1.02.3 1.56.28-.94 3.87-1.57 7.83-1.58 11.82-1.14.21-2.35.72-2.98 1.73-.62 1.02-.14 2.14.65 2.9.84.81 1.97 1.23 3.09 1.47 1.35.28 2.79.42 4.17.42 1.45 0 2.73-.41 4.05-.99 1.37-.6 2.77-.98 4.19-1.4 1.36-.4 2.63-.92 3.75-1.8 1.11-.88 2.02-1.97 2.93-3.04.58-.68 1.16-1.36 1.74-2.05.48-.57.85-1.11.93-1.87.09-.82.04-1.65.13-2.48.1-.94.2-1.87.11-2.81a6.363 6.363 0 0 0-4.82-5.32zm-2.35 12.85c-1.52 1.89-3.88 3.21-6.3 3.43-2.3.22-4.48-.72-6.73-1.04.61-.71 1.33-1.3 1.92-2.03.66-.8.92-1.77 1.05-2.79.14-1.19.18-2.38.33-3.57.16-1.25.38-2.5.64-3.74 2.89-.21 6.44-.74 8.73 1.4 2.38 2.23 2.21 5.83.36 8.33zm-6.17-22.76s-.03-.02-.05-.03l-.03-.03c-.1-.07-.31-.17-.26-.32.04-.12.51-.26.59-.29.4-.17.81-.31 1.23-.43.8-.23 1.63-.35 2.47-.26 1.47.15 2.93.96 3.7 2.24.8 1.31.85 3.09-.02 4.38-.89 1.32-2.51 1.95-3.93 2.51-.89.35-1.79.67-2.73.84-.9.16-1.81.16-2.73.15.54-1.66 1.17-3.28 1.89-4.87.55-1.22 1.07-2.83-.12-3.87zM226.6 18.66c-.54-2.26-2.44-4.2-4.39-5.34-1.89-1.11-4.19-1.23-6.26-.56-4.52 1.47-7.08 6.3-7.34 10.84-.07 1.23.3 2.26 1.17 3.13.79.8 1.78 1.43 2.71 2.06 1.85 1.25 3.86 2.52 4.97 4.53.66 1.19 1.05 2.71 1.13 4.07.08 1.37-.6 2.43-1.54 3.37-.97.97-2.11 2.02-3.59 1.62-1.29-.35-2.44-1.36-3.53-2.1-.63-.42-1.09-.69-1.23-1.48-.11-.62-.21-1.23-.39-1.84a13.5 13.5 0 0 0-1.55-3.47c-.44-.69-1.23-1.41-1.92-.53-.31.4-.39.93-.5 1.4-.15.68-.29 1.35-.37 2.04-.29 2.35.13 4.87 1.51 6.83.74 1.05 1.71 1.87 2.72 2.65.95.74 1.93 1.5 3.09 1.9 2.46.83 5.22-.58 7.27-1.86 1.98-1.25 3.64-3.01 4.58-5.17.95-2.18 1.1-4.74.24-6.98-.95-2.44-3.06-4.29-4.81-6.17-.5-.54-1.01-1.08-1.51-1.62-.47-.5-.97-1-1.28-1.63-.3-.61-.41-1.3-.53-1.96-.12-.7-.21-1.42-.19-2.13.04-1.34.61-2.54 1.8-3.22 1.01-.58 2.22-.66 3.3-.22.8.33 1.46.9 1.94 1.59.02.52-.21 1.03-.3 1.55-.08.51-.03.99.21 1.44.44.82 1.49 1.75 2.4 1.99 1.04.27 1.67-.7 2.01-1.53.41-1.01.44-2.14.19-3.19z"/></g></g></svg>