<svg xmlns="http://www.w3.org/2000/svg" width="170" height="135" viewBox="0 0 170 135"><path d="M73.81 70.49a3 3 0 0 1 .56-.73.88.88 0 0 0 .4-1 2 2 0 0 1 0-.65 9.41 9.41 0 0 1 .13-1.19 1.76 1.76 0 0 1 .33-.75c.08-.1.48-.1.54 0a2 2 0 0 1 .28.77 5.89 5.89 0 0 1 .19 1.1 1.89 1.89 0 0 1-.12 1 1.21 1.21 0 0 0 .61 1.9c.35.12.54.3.51.68a1.58 1.58 0 0 0 .33 1.24.7.7 0 0 1-.08 1 .89.89 0 0 1-1.17.13c-.21-.14-.28-.55-.34-.86 0-.14.1-.31.13-.47.16-.76-.14-1.08-.9-1a1.19 1.19 0 0 1-1.4-1.17zM101 76.8c0-.37.09-.76-.47-.82a1 1 0 0 1-1-.88 1.1 1.1 0 0 1 .7-1.2 1.12 1.12 0 0 0 .32-1.82c-.08-.1-.17-.19-.25-.3a1 1 0 0 1 0-1.32 1.08 1.08 0 0 1 1.32-.22.91.91 0 0 1 .41 1.2 1.7 1.7 0 0 0 0 1.33c.07.17-.14.57-.34.72-.37.26-.37.5-.23.89a2.64 2.64 0 0 1 .09 1c0 .4 0 .67.44.83a.87.87 0 0 1 .34 1.4.9.9 0 0 1-.71.3 1.55 1.55 0 0 1-.61-.63c-.01-.11-.01-.28-.01-.48zM130.65 128.84c-.59.23-.59.7-.53 1.17a1 1 0 0 1-2.05.45 5.47 5.47 0 0 0-.6-1.27.86.86 0 0 1 .57-1.42 3.92 3.92 0 0 1 1.59-.06 3.45 3.45 0 0 0 2 .4c.09 0 .39.29.39.44a1.17 1.17 0 0 1-.3.71c-.1.1-.42.05-.6 0s-.29-.26-.47-.42zM82 77.2c-.21-.2-.5-.37-.61-.62s0-.6.38-.74a.59.59 0 0 1 .85.28.65.65 0 0 0 .7.41c.63 0 1 .21 1.09.69a.85.85 0 0 1-.66 1.06.59.59 0 0 0-.23.14 3.28 3.28 0 0 0 .13 2.14c.57.54.48 1.11-.2 1.52a1.72 1.72 0 0 0-.47.66c-.08.13 0 .37-.14.46a1.37 1.37 0 0 1-.66.39.62.62 0 0 1-.48-.36c0-.24 0-.65.18-.74.49-.28.43-.67.5-1.14.09-.7.47-1.34-.08-2 0-.06.24-.45.42-.63s.45-.34.25-.68-.13-1.04-.97-.84zM66.86 113.56a1.41 1.41 0 0 1 .86-1.28 1.11 1.11 0 0 1 1.37.26 1.23 1.23 0 0 0 1.46.56.67.67 0 0 1 .83.56.82.82 0 0 1-.5 1 .76.76 0 0 1-1-.18c-.15-.19-.25-.61-.61-.34s-.25.59 0 .93a.88.88 0 0 1 .11.7c-.06.16-.35.29-.56.33a.45.45 0 0 1-.58-.5 1.22 1.22 0 0 0-.74-1.23c-.32-.18-.5-.6-.64-.81zM23.69 33.58a1.22 1.22 0 0 1-1.2-.94 4.29 4.29 0 0 0-.56-1.11.82.82 0 0 1 0-1.18.89.89 0 0 1 1.25-.08c.08.07.15.16.23.24.34.39.5.38.77-.09s.35-.63.81-.46a.57.57 0 0 1 .32.92 2 2 0 0 0-.36 1.4 1.24 1.24 0 0 1-1.26 1.3zM77.9 32.68a1 1 0 0 1 .89-1.14c.85-.09 1.39.22 1.48 1s.3.78.89.74a1 1 0 0 1 1.06.85.91.91 0 0 1-.67 1.07 1 1 0 0 1-1.29-.55 1.26 1.26 0 0 1-.13-.37c-.07-.37-.24-.47-.62-.36a1.19 1.19 0 0 1-1.61-1.24zM60.43 48a.92.92 0 0 1 1-1c.58 0 .83-.5 1.14-.88.07-.08 0-.31-.08-.45a1.3 1.3 0 0 0-.3-.32 1 1 0 0 1 0-1.49 1.1 1.1 0 0 1 1.46.11.94.94 0 0 1-.12 1.45 4.06 4.06 0 0 1-.36.26c-.28.18-.32.35-.1.63.49.62.45.69-.12 1.22a2.33 2.33 0 0 0-.41.8 1 1 0 0 1-2-.29zM72.41 13.94a1.14 1.14 0 0 1 1.08-1.34c.48-.06.56-.27.52-.7a1.21 1.21 0 0 1 .18-.9 1.08 1.08 0 0 1 .93-.22 1 1 0 0 1 .51.76 1 1 0 0 1-.41.8.78.78 0 0 0-.4 1.14 1.11 1.11 0 0 1-.33 1.35 1.24 1.24 0 0 1-1.38.28 1.17 1.17 0 0 1-.7-1.17zM2.54 56.32a.75.75 0 0 1 .61-.81.88.88 0 0 1 1.05.49 8.17 8.17 0 0 0 .49.71 4.4 4.4 0 0 0 .79-.71c.24-.33.47-.64.92-.54a.92.92 0 0 1 .82.79c.08.47-.19.74-.55 1s-.47.49-.73.69-.57.5-.84.48a1.09 1.09 0 0 1-.76-.58.83.83 0 0 0-.92-.67c-.61.04-.87-.24-.88-.85zM61.54 94c0-.36-.12-.6 0-.75a1.5 1.5 0 0 1 .57-.69c.14-.07.53.13.66.32s.08.6-.23.8a.53.53 0 0 0-.15.85.8.8 0 0 1 0 1.07.64.64 0 0 0 0 1 .85.85 0 0 1 0 .78.59.59 0 0 1-.88.16.52.52 0 0 1-.18-.77c.28-.47.13-.78-.24-1.16s-.6-.94-1.17-1.2c-.09 0-.06-.55.06-.77a.54.54 0 0 1 .81-.19 8 8 0 0 1 .75.55zM4.7 60.32a1.37 1.37 0 0 1-1.31 1.43 1.33 1.33 0 0 1-1.31-1.36 8.39 8.39 0 0 1 .13-1.59c.06-.25.33-.61.55-.64a1.19 1.19 0 0 1 1 .23A9.09 9.09 0 0 1 4.65 60a.79.79 0 0 1 .05.32zM24.35 45.11a7.05 7.05 0 0 1 .58-.5c.25-.19.56-.31.8-.52a1 1 0 0 1 1.53 0 1.7 1.7 0 0 0 1.28.64c.17 0 .45.28.5.47a.79.79 0 0 1-.2.68.73.73 0 0 1-.69 0 1.13 1.13 0 0 0-1.15 0 1.49 1.49 0 0 1-.64.11c-.42 0-.84 0-1.26-.05s-.73-.17-.75-.83zM22.51 98.48a.87.87 0 0 1-.93-.67.83.83 0 0 1 .59-1 .74.74 0 0 1 1 .42.65.65 0 0 0 .9.45.84.84 0 0 1 1.08.63.76.76 0 0 1-.5 1c-.41.15-.54.41-.33.82s0 .75-.34 1-.61 0-.8-.25-.13-.65.15-.93a1 1 0 0 0-.16-1.49c-.17-.07-.42.02-.66.02zM102.94 52.41a3.92 3.92 0 0 0-.93.32 1.32 1.32 0 0 1-1.71-.09 1.5 1.5 0 0 1 0-1.84 1.17 1.17 0 0 1 1.68-.2 2.83 2.83 0 0 0 1.31.64.57.57 0 0 1 .47.8c-.1.24-.41.41-.62.61zM82.12 88a1.12 1.12 0 0 1-1.18-1 1.3 1.3 0 0 1 .83-1.51 1.15 1.15 0 0 0 .88-.73 1.07 1.07 0 0 1 .59-.54c.15 0 .49.24.55.43a.94.94 0 0 1-.14.79 1.31 1.31 0 0 0-.28 1.18A1.17 1.17 0 0 1 82.12 88zM57 95.9a1.38 1.38 0 0 1-1.44 1.48 1.35 1.35 0 0 1-1.38-1.47 1.46 1.46 0 0 1 1.46-1.49A1.36 1.36 0 0 1 57 95.9zM40.79 104.2c-.84 0-1.19-.67-.9-1.28a9.76 9.76 0 0 0 .46-1.28.83.83 0 0 0-.29-1 1 1 0 0 1-.06-1.33.93.93 0 0 1 1.37.16.91.91 0 0 1 0 .74 1.06 1.06 0 0 0 0 1.15v.09c0 .77 0 1.55-.15 2.31.07.24-.31.35-.43.44zM40.66 98.12a3.3 3.3 0 0 1-.55-.32.79.79 0 0 0-.89-.22c-.48.17-.91-.13-1.2-.65a4.76 4.76 0 0 0-.57-.62c-.14-.17-.36-.38-.34-.55a.82.82 0 0 1 .42-.56.72.72 0 0 1 .64.09 1.51 1.51 0 0 0 1.18.6.41.41 0 0 1 .29.22c.14.6.52.54 1 .44a.8.8 0 0 1 1.05.86c-.04.44-.34.69-1.03.71zM26.11 39.19c.18.14.52.27.6.49a1.6 1.6 0 0 1 0 1 7 7 0 0 1-.63 1 1.15 1.15 0 0 1-1.25.62 1.29 1.29 0 0 1-1.06-1 1.2 1.2 0 0 1 .65-1.3l1.3-.71a4.14 4.14 0 0 1 .39-.1zM121.55 50.78A3.55 3.55 0 0 1 122 50a.91.91 0 0 0 .19-1.15c-.19-.34-.18-.7.15-.88a.89.89 0 0 1 .66.03c.35.18.3.49.14.82a.6.6 0 0 0 .32.9 1.16 1.16 0 0 1 .47 1.54 1.2 1.2 0 0 1-1.39.73 1.33 1.33 0 0 1-.99-1.21zM96 69.18c0-.89.61-1.54 1.21-1.49s1.28.3 1.29 1.1a.88.88 0 0 0 .51.95c.45.18.42.53.29.87a.67.67 0 0 1-1 .18 2.8 2.8 0 0 0-1.47-.79 1 1 0 0 1-.83-.82zM47.72 15.2a1.28 1.28 0 0 1-1.31 1.49 1.34 1.34 0 0 1-1.51-1.31 1.62 1.62 0 0 1 1.45-1.61 1.43 1.43 0 0 1 1.37 1.43zM21.54 37.24a1.17 1.17 0 0 1-1.25-.9 1.11 1.11 0 0 1 .54-1.34 7.28 7.28 0 0 1 1.78-.52.87.87 0 0 1 .72.39 1.11 1.11 0 0 1 0 .91A8.25 8.25 0 0 1 22 37.1c-.12.13-.39.12-.46.14zM8.94 14.89a1.07 1.07 0 0 1 .84-1.15 1 1 0 0 1 1.21.55 2.63 2.63 0 0 0 .78.74c.64.45.69 1 .12 1.49a.65.65 0 0 1-1-.05A1.46 1.46 0 0 0 9.81 16a.94.94 0 0 1-.87-1.11zM113.62 23a1.93 1.93 0 0 1 .08-.45 1 1 0 0 0-.23-1.32 1.14 1.14 0 0 1-.07-1 1 1 0 0 1 .9-.38c.28.11.43.56.6.88v.33a.73.73 0 0 0 .36 1 .9.9 0 0 1 .42 1.15 1.67 1.67 0 0 1-.76.77.85.85 0 0 1-1-.4 2.55 2.55 0 0 1-.3-.58zM86.66 58a3.07 3.07 0 0 1 .09-.38c.14-.48.3-1 .42-1.45a1 1 0 0 1 1-.72.83.83 0 0 1 .73.88q0 .9-.06 1.8a1.09 1.09 0 0 1-2.18-.13zM42.78 30.78c-.08.17-.19.37-.29.58-.19.39-.17.61.35.64s.94.36.85.85a1.12 1.12 0 0 1-.49.71 1 1 0 0 1-.85-.09 1.11 1.11 0 0 1-.29-.86c.11-.69.16-.68-.57-.86a.94.94 0 0 1-.84-1.05 1 1 0 0 1 .87-1 1.25 1.25 0 0 1 1.21.79 2.12 2.12 0 0 1 .05.29zM66 69.18a.93.93 0 0 0 .45 1.33 1 1 0 0 1 .3.7 1.2 1.2 0 0 0 .4 1 1.2 1.2 0 0 1 .26.81c0 .13-.33.39-.45.36-.29-.09-.68-.26-.77-.49a2.05 2.05 0 0 0-.82-1.12.7.7 0 0 1-.18-1 .64.64 0 0 0-.23-1 .53.53 0 0 1-.23-.8 1 1 0 0 1 .76-.35c.16.04.32.38.51.56zM104.64 28.8a.93.93 0 0 1-1-.64.84.84 0 0 1 .23-1c.53-.55.53-.56 0-1.17a.77.77 0 0 1 0-1.1.68.68 0 0 1 1-.18.81.81 0 0 1 .34 1.05 1.15 1.15 0 0 1-.16.29.58.58 0 0 0 .16 1 .94.94 0 0 1 .37 1.17.88.88 0 0 1-.94.58zM105 130.65c-1.1 0-1.34-.08-1.37-.67a.83.83 0 0 1 .61-.94.67.67 0 0 1 .86.5c.17.57.45.62.94.38a.89.89 0 0 1 1.2.4 1.13 1.13 0 0 1-.28 1.4.76.76 0 0 1-1.1.05 3.65 3.65 0 0 1-.45-.68c-.12-.18-.3-.34-.41-.44zM4.46 44.88a1.4 1.4 0 0 1 1.36 1.33 1.45 1.45 0 0 1-1.38 1.32 1.3 1.3 0 0 1-1.28-1.38 1.25 1.25 0 0 1 1.3-1.27zM5.67 30.28A1.22 1.22 0 0 1 6.94 29a1.34 1.34 0 0 1 1.37 1.23 1.38 1.38 0 0 1-1.49 1.36 1.26 1.26 0 0 1-1.15-1.31zM9.3 29.9c-.08-.06-.43-.18-.47-.37a1.87 1.87 0 0 1 .06-1.15 1.58 1.58 0 0 0 .26-1.07c-.07-.38 0-.82.42-.91a1.36 1.36 0 0 1 1 .2 1.14 1.14 0 0 1 .07 1 1.81 1.81 0 0 0-.26 1.24c.15.66-.26 1.07-1.08 1.06zM79.3 82.07a1.3 1.3 0 0 1 1.24 1.36 1.35 1.35 0 0 1-1.26 1.31 1.32 1.32 0 0 1-1.23-1.37 1.17 1.17 0 0 1 1.25-1.3zM164.86 19.81c.27-.27.47-.49.69-.69s.57-.35.74-.6c.43-.6.86-.81 1.38-.57a1.06 1.06 0 0 1 .55 1.3 1.11 1.11 0 0 1-1.38.77c-.24 0-.51.2-.77.28a1.29 1.29 0 0 1-.7.12c-.18-.05-.29-.33-.51-.61zM79.37 24.34a17.48 17.48 0 0 1-.37 2.17 1.14 1.14 0 0 1-.77.58 1 1 0 0 1-1.16-.67 1.93 1.93 0 0 1 .11-1c0-.11.16-.21.27-.27a1.46 1.46 0 0 0 .79-1.07.42.42 0 0 1 .61-.36 3.82 3.82 0 0 1 .68.45zM142.54 21.07a1.35 1.35 0 0 1-1.27 1.34 1.45 1.45 0 0 1-1.3-1.34 1.5 1.5 0 0 1 1.26-1.32 1.24 1.24 0 0 1 1.31 1.32zM33.86 96.41c-.12.47-.23.9-.73 1a1 1 0 0 0-.81.74.9.9 0 0 1-.61.49.82.82 0 0 1-.67-.4.86.86 0 0 1 .28-.72 1.19 1.19 0 0 0 .39-1 1 1 0 0 1 .89-1 2 2 0 0 1 1 .46c.17.02.2.27.26.43zM157.31 1.81A1.39 1.39 0 0 1 156 3.14a1.33 1.33 0 0 1-1.18-1.37A1.16 1.16 0 0 1 156 .53a1.22 1.22 0 0 1 1.31 1.28zM55.87 84.85a1.22 1.22 0 0 1-1.25-1.32 1.28 1.28 0 0 1 1.17-1.3 1.25 1.25 0 0 1 1.31 1.34 1.21 1.21 0 0 1-1.23 1.28zM119.86 23a1.25 1.25 0 0 1-1.17 1.35 1.31 1.31 0 0 1-1.32-1.22 1.38 1.38 0 0 1 1.26-1.41 1.2 1.2 0 0 1 1.23 1.28zM6.82 33.53a2.1 2.1 0 0 1 .59.39.89.89 0 0 0 .92.33.83.83 0 0 1 1 .6.8.8 0 0 1-.42 1 .62.62 0 0 1-.91-.14 1.11 1.11 0 0 0-1.29-.45.94.94 0 0 1-1-.79 1 1 0 0 1 1.11-.94zM6.5 59.86a1.15 1.15 0 0 1 1.21-1.29A1.3 1.3 0 0 1 9 59.85a1.23 1.23 0 0 1-1.32 1.26 1.21 1.21 0 0 1-1.18-1.25zM26 12.89a1.28 1.28 0 0 1 1.3 1.3 1.27 1.27 0 1 1-2.53-.08A1.22 1.22 0 0 1 26 12.89zM80 38.39a10.1 10.1 0 0 1 1.91.38 1.21 1.21 0 0 1 .58.89c.07.48-.34.78-.76 1a.75.75 0 0 1-1-.17 2.76 2.76 0 0 0-1.3-1.06.67.67 0 0 1-.17-.6 2.55 2.55 0 0 1 .68-.57zM88.46 110.83c-.14.28-.19.51-.31.59-.46.28-.45.65-.33 1.1a1 1 0 0 1-.67 1.23.94.94 0 0 1-1.27-.47.91.91 0 0 1 .51-1.39.92.92 0 0 0 .78-1 .53.53 0 0 1 .69-.53c.22.02.4.29.6.47zM126.65 24.52c-.15.28-.19.49-.31.54-.51.23-.48.63-.44 1.07a1 1 0 0 1-.68 1.19 1 1 0 0 1-1.33-.82c-.08-.76.14-1.07.9-1.19.52-.08.47-.49.56-.84s.2-.62.58-.48a3.09 3.09 0 0 1 .72.53zM11 37.31c-.19.27-.31.63-.49.66a1.55 1.55 0 0 1-1.07-.12c-.37-.24-.55-.3-.84.08a.9.9 0 0 1-1.39.07.83.83 0 0 1 0-1.27.9.9 0 0 1 1.36 0c.3.38.5.3.79 0a.82.82 0 0 1 1-.2c.31.19.42.47.64.78zM23.74 13.09a1.29 1.29 0 0 1-1.13 1.34 1.32 1.32 0 0 1-1.34-1.32 1.36 1.36 0 0 1 1.19-1.31 1.42 1.42 0 0 1 1.28 1.29zM46 21c-.56 0-.89-.25-.91-.76s-.13-.75-.64-.88a.68.68 0 0 1-.57-.91 1.4 1.4 0 0 1 .81-.7c.45-.12.7.29.78.68s.27.82.83.94.56.55.47 1A.76.76 0 0 1 46 21zM32.79 18.77a1.22 1.22 0 0 1-1.13 1.32 1.39 1.39 0 0 1-1.31-1.39 1.25 1.25 0 0 1 1.25-1.22 1.28 1.28 0 0 1 1.19 1.29zM89.07 51.8a1.18 1.18 0 0 1-1.23-1.22 1.31 1.31 0 0 1 1.22-1.33 1.28 1.28 0 1 1 0 2.55zM102.15 30.32a1.23 1.23 0 0 1-1.34 1.24 1.34 1.34 0 0 1-1.15-1.22A1.36 1.36 0 0 1 101 29a1.32 1.32 0 0 1 1.15 1.32zM10.53 6.93A1.18 1.18 0 0 1 9.3 5.72a1.32 1.32 0 0 1 1.28-1.27 1.16 1.16 0 0 1 1.2 1.3 1.16 1.16 0 0 1-1.25 1.18zM5.45 26.57c.08-.13.17-.5.39-.59a6.86 6.86 0 0 1 1.83-.53c.48-.06.7.35.74.8s-.05.86-.56 1l-1.28.35a1 1 0 0 1-1.12-1.03zM136.22 56.22a1.24 1.24 0 0 1-1.29-1.22 1.29 1.29 0 0 1 1.29-1.24 1.27 1.27 0 0 1 1.25 1.24 1.25 1.25 0 0 1-1.25 1.22zM72.22 42.21A1.19 1.19 0 0 1 70.91 41a1.24 1.24 0 0 1 1.22-1.24 1.32 1.32 0 0 1 1.32 1.29 1.14 1.14 0 0 1-1.23 1.16zM29.37 24.78a1.16 1.16 0 0 1-1.07-.91 1.18 1.18 0 0 1 .7-1.24 9.6 9.6 0 0 1 1.12-.54.76.76 0 0 1 .64.07 1 1 0 0 1 .21.78 6.86 6.86 0 0 1-.88 1.44c-.09.2-.47.27-.72.4zM102.89 120.86c-.36-.12-.59-.18-.81-.27s-.55-.27-.84-.37a.61.61 0 0 1-.49-.64.62.62 0 0 1 .58-.63 4.52 4.52 0 0 0 1-.28 1 1 0 0 1 1.16.25 1 1 0 0 1 .2 1.27c-.17.3-.55.47-.8.67zM14.37 34c-.49 0-.87-.11-1-.6a.76.76 0 0 1 .54-1 .78.78 0 0 1 1 .53c.17.44.43.52.86.48a.76.76 0 0 1 .91.89.73.73 0 0 1-1 .7 1 1 0 0 1-.57-.51c-.11-.39-.29-.68-.74-.49zM35.53 95.75a1.21 1.21 0 0 1 1.27 1.19 1.3 1.3 0 0 1-1.29 1.26 1.21 1.21 0 0 1-1.17-1.2 1.23 1.23 0 0 1 1.19-1.25zM43.33 123.63a1.17 1.17 0 0 1 1.25 1.14 1.26 1.26 0 0 1-1.25 1.28 1.2 1.2 0 0 1-1.2-1.14 1.29 1.29 0 0 1 1.2-1.28zM34.76 57.22A1.15 1.15 0 0 1 33.6 56a1 1 0 0 1 1.12-1.14 1.34 1.34 0 0 1 1.38 1.18 1.49 1.49 0 0 1-1.34 1.18zM116.69 56.24a1.11 1.11 0 0 1-1.2-1.1 1.27 1.27 0 0 1 1.25-1.28 1.19 1.19 0 1 1 0 2.38zM140 34.51c-.21.28-.33.64-.57.73a1.65 1.65 0 0 1-1 0 4.65 4.65 0 0 1-.88-.56.87.87 0 0 1-.3-1.17.74.74 0 0 1 1-.4 6.66 6.66 0 0 1 1.26.68 2.72 2.72 0 0 1 .49.72zM37.5 43.14A1 1 0 0 1 38.61 42a1.2 1.2 0 0 1 1.27 1.24 1.27 1.27 0 0 1-1.19 1.16 1.18 1.18 0 0 1-1.19-1.26zM61.59 55.35a4.87 4.87 0 0 0-.68.36c-.34.27-.7.53-1.09.24s-.52-.57-.48-.82.4-.51.68-.67a9.36 9.36 0 0 1 1.14-.46.85.85 0 0 1 1.07 1.31 1.45 1.45 0 0 1-.56.21zM54.41 56.78a1.08 1.08 0 0 1-1.09-1.18 1.19 1.19 0 0 1 1.14-1.25 1.3 1.3 0 0 1 1.2 1.22 1.27 1.27 0 0 1-1.25 1.21zM92 129.31c0-.17-.1-.35 0-.49a1.42 1.42 0 0 1 .43-.63.61.61 0 0 1 .58.11.94.94 0 0 1 .16.74 2.21 2.21 0 0 0-.28 1.31c.06.58-.47.84-1 .5-.33-.21-.58-.26-.88 0s-.65.31-.87 0a.86.86 0 0 1 0-.75c.2-.38.57-.3.93-.15.19.08.49.18.62.1a2.42 2.42 0 0 0 .47-.68zM72.54 83.3c.14.14.5.34.65.64a.73.73 0 0 1-.34 1c-.49.25-.64.54-.3 1a.63.63 0 0 1-.27.94.67.67 0 0 1-.92-.25.55.55 0 0 1 .16-.86c.45-.31.36-.65.12-1a.94.94 0 0 1 .9-1.47zM40.64 124.82a1.19 1.19 0 0 1-2.38.15 1.31 1.31 0 0 1 1.23-1.32 1.17 1.17 0 0 1 1.15 1.17zM89.19 81.75c-.14-.13-.52-.33-.68-.64s.08-.78.46-.93A1.07 1.07 0 0 0 89.7 79a.76.76 0 0 1 .53-.55.84.84 0 0 1 .66.44.72.72 0 0 1-.21.68c-.55.26-.56.64-.47 1.15s-.21 1.04-1.02 1.03zM152.45 47.23c-.66.56-.24 1.25-.21 2 0 .22-.38.57-.66.68a.67.67 0 0 1-.93-.46 1.09 1.09 0 0 1 .15-.93c.43-.35.38-.72.37-1.18a1.15 1.15 0 0 1 .43-.79c.09-.07.46.15.68.28s.09.17.17.4zM42.82 19c0 .66-.4 1.08-.85 1.08a.84.84 0 0 1-.82-1 1.14 1.14 0 0 0-.3-1.1 1.1 1.1 0 0 1 0-.9.71.71 0 0 1 .64-.21 1 1 0 0 1 .46.63 1.21 1.21 0 0 0 .59 1c.15.16.23.5.28.5zM67.82 78.14a3.14 3.14 0 0 0-.73.5c-.26.32-.59.46-.91.26a.92.92 0 0 1-.3-.74c0-.38.33-.56.72-.48s.52-.18.66-.49a.83.83 0 0 1 1.11-.54.82.82 0 0 1 .59 1c-.07.47-.43.68-1.14.49zM106.66 95.54a2.47 2.47 0 0 1-.26.56.69.69 0 0 1-1 .23.9.9 0 0 1-.26-.74.54.54 0 0 1 .8-.41c.43.16.68 0 .86-.42a.79.79 0 0 1 1.12-.47 1 1 0 0 1 .45 1.24 1 1 0 0 1-1.27.3zM91.21 126.53c-.26-.27-.52-.43-.58-.63a.51.51 0 0 1 .5-.66c1 .06.93-.89 1.43-1.29v-.35a2 2 0 0 1-.18-.64.85.85 0 0 1 .31-.57.6.6 0 0 1 .58.1 1.33 1.33 0 0 1 .14.7c0 .09-.11.19-.19.27a.62.62 0 0 0-.1.84c.33.59.13.93-.51 1.1a2.07 2.07 0 0 0-.64.48c-.26.18-.45.37-.76.65zM91.94 67.25a2.46 2.46 0 0 0-.13.46v1.1c0 .37 0 .6-.11.74a.83.83 0 0 1-.74.09.69.69 0 0 1-.3-.61 1.23 1.23 0 0 0-.35-1.1.81.81 0 0 1 0-1.08.75.75 0 0 1 1-.2 2.68 2.68 0 0 1 .63.6zM70.07 27c-.8.6-.53 1.38-.7 2.07a.65.65 0 0 1-1 .41c-.52-.28-.75-.84-.41-1.22a3 3 0 0 0 .76-1.49.45.45 0 0 1 .66-.38 3.45 3.45 0 0 1 .69.61zM62.71 75.59c0-.73.52-1.12 1.07-1a.86.86 0 0 0 1-.24.55.55 0 0 1 .87-.08 1 1 0 0 1 .2.83c-.1.36-.46.45-.82.31s-.52.28-.77.45-.65.41-.89.33-.52-.44-.66-.6zM68.71 31.35c.19.23.45.41.51.65a.56.56 0 0 1-.48.74.8.8 0 0 0-.73.7.71.71 0 0 1-.87.57c-.4-.06-.76-.22-.81-.7a.75.75 0 0 1 .65-.89 1.32 1.32 0 0 0 1.18-.75c.06-.13.29-.17.55-.32zM115.71 105.24c.35.28.72.45.86.74a.73.73 0 0 1-.36 1c-.49.24-.53.52-.24 1a.6.6 0 0 1-.25.93.77.77 0 0 1-.71-.13.6.6 0 0 1 .07-1c.44-.34.38-.61.08-1a1.18 1.18 0 0 1-.12-.9c.06-.22.38-.37.67-.64zM117.43 113.86c0-.68.32-1 .84-1.08a.67.67 0 0 0 .73-.65c0-.35.2-.72.63-.58a1 1 0 0 1 .58.62c.1.36-.16.62-.55.67s-.52.28-.55.64a1.6 1.6 0 0 1-.15.58c-.18.33-.49.6-.86.42a2.56 2.56 0 0 1-.67-.62zM60.37 75.07a.73.73 0 0 1-1.06.75c-.34-.15-.65-.35-1-.52a.72.72 0 0 1-.4-.93 1.37 1.37 0 0 1 .7-.74c.22-.07.59.16.84.34a3.58 3.58 0 0 1 .68.72 1.78 1.78 0 0 1 .24.38zM144.51 17.37a1.17 1.17 0 0 1-1.09 1 1.14 1.14 0 0 1 0-2.27 1.28 1.28 0 0 1 1.09 1.27zM103.59 107.74a1.74 1.74 0 0 1-.08.32.9.9 0 0 0 .24 1.14.76.76 0 0 1 0 1.21.78.78 0 0 1-1.21-.14 1 1 0 0 1-.06-.8 1.11 1.11 0 0 0 0-1.29.74.74 0 0 1 .06-.69.87.87 0 0 1 .69-.19c.13.04.25.32.36.44zM9.21 18a1.1 1.1 0 0 1-2.21.12 1.17 1.17 0 0 1 1.13-1.22A1.17 1.17 0 0 1 9.21 18zM44.56 129.84a2.69 2.69 0 0 1-.66-.65c-.2-.39.07-.72.37-1s.56-.6.88-.86a1.33 1.33 0 0 1 .71-.31c.13 0 .38.27.39.44a1.5 1.5 0 0 1-.25.66 9.35 9.35 0 0 0-.49.94 1 1 0 0 1-.95.78zM117.41 108.19c.7 0 1 .48.7.93a1.38 1.38 0 0 0-.22 1.24.66.66 0 0 1-.37.88c-.39.15-.85.18-1-.2a1.72 1.72 0 0 1 0-1.07 5.73 5.73 0 0 1 .48-1.18 4.67 4.67 0 0 1 .41-.6zM158.36 77a1 1 0 0 1-1.05 1.1 1.09 1.09 0 1 1 0-2.17 1.1 1.1 0 0 1 1.05 1.07zM138.56 37.55c-.09.41.08.63.54.73a.81.81 0 0 1 .63 1.1.86.86 0 0 1-1 .52.81.81 0 0 1-.57-1.08c.1-.42.11-.77-.36-1s-.62-.4-.42-.76a1 1 0 0 1 .71-.45c.41 0 .47.4.45.75zM25.55 77.39a1 1 0 0 1-1.1 1 1.06 1.06 0 0 1-1.06-1.1 1 1 0 0 1 1.07-1 1 1 0 0 1 1.09 1.1zM110.33 96.85a1 1 0 0 1-1 1 1 1 0 0 1-1-1c0-.81.35-1.16 1.07-1.14a1 1 0 0 1 .93 1.14zM45.37 95.42a1 1 0 0 1 1 1.1c0 .6-.49 1-1.22 1a1 1 0 0 1-1-1 1.2 1.2 0 0 1 1.22-1.1zM56.53 131c.17-.14.34-.28.5-.44s.17-.33.3-.38a1.1 1.1 0 0 1 .67 0 .58.58 0 0 1 .27.47c0 .2-.21.52-.36.54a1.17 1.17 0 0 0-1.09 1 .61.61 0 0 1-.87.35c-.28-.12-.65-.49-.63-.71s.38-.61.64-.87c.09-.09.31-.06.47-.08zM41.86 99.57A1.13 1.13 0 0 1 43 98.44a1.17 1.17 0 0 1 1 1.19 1.22 1.22 0 0 1-1.2 1 1 1 0 0 1-.94-1.06zM69.54 21.2a1 1 0 0 1 1 1 1.19 1.19 0 0 1-1.1 1.12 1.07 1.07 0 0 1-1-1.19c.03-.63.38-.94 1.1-.93zM136.91 96.52a1.22 1.22 0 0 1-1.18 1.18c-.38 0-.94-.68-.94-1.16a1.06 1.06 0 1 1 2.12 0zM137.92 46.82a2.08 2.08 0 0 1-.44-.65 1 1 0 0 1 .11-.78.67.67 0 0 1 .67 0 1.43 1.43 0 0 1 .23.77c0 .08-.1.19-.17.27a.56.56 0 0 0 .08.91c.45.4.53.92.21 1.25a.91.91 0 0 1-1.21 0 .89.89 0 0 1 .06-1.29c.14-.18.29-.3.46-.48zM19.46 32.56c-.15.13-.36.44-.64.53a.62.62 0 0 1-.84-.5.92.92 0 0 0-.85-.86.84.84 0 0 1-.52-.58.8.8 0 0 1 .49-.61.8.8 0 0 1 .69.36.89.89 0 0 0 1 .62c.46-.02.63.39.67 1.04zM25.65 54.9c-.13.15-.26.43-.43.45a1 1 0 0 1-.73-.21A8.78 8.78 0 0 1 23.6 54a.83.83 0 0 1 .4-1.14c.41-.27.85-.23 1.05.19a18.81 18.81 0 0 1 .6 1.85zM148.21 47.1a1 1 0 0 1 1-1.12 1.09 1.09 0 0 1 0 2.18 1 1 0 0 1-1-1.06zM135.87 48.21c.69 0 1 .29 1 .87a1.07 1.07 0 0 1-1.06 1.22 1.12 1.12 0 0 1-1.06-1.12 1 1 0 0 1 1.12-.97zM100.66 79a1.15 1.15 0 0 1-1.09 1.11 1 1 0 0 1-1-1.08 1.14 1.14 0 0 1 1.09-1.1 1 1 0 0 1 1 1.07zM101.63 129.08a1 1 0 0 1-1 1.08 1 1 0 0 1-1.07-1 1 1 0 1 1 2-.06zM153.34 52.4a1 1 0 0 1-1 1.13 1.1 1.1 0 0 1-.12-2.2 1 1 0 0 1 1.12 1.07zM110.49 20.42a1.08 1.08 0 0 1 1.07 1.12 1 1 0 0 1-1.07 1 1.07 1.07 0 0 1-1.08-1 1.13 1.13 0 0 1 1.08-1.12zM6 38.75a1 1 0 0 1 1 1.1c0 .61-.42 1-1.11.95a1.06 1.06 0 0 1-1.09-.95 1.19 1.19 0 0 1 1.2-1.1zM112.16 100.57a3.41 3.41 0 0 1-.38.47c-.19.17-.43.3-.63.45a.87.87 0 0 1-1.37-.17.91.91 0 0 1 .39-1.27 4.4 4.4 0 0 1 1.34-.29c.41-.01.61.3.65.81zM64.69 122.68c-.85 0-1.13-.4-1-1a1.09 1.09 0 0 0-.18-1.13.8.8 0 0 1 0-.74.71.71 0 0 1 .66-.19.81.81 0 0 1 .34.64.87.87 0 0 0 .47 1.09 1 1 0 0 1 .24.86c-.05.23-.42.38-.53.47zM97.59 43.75a.94.94 0 0 1-1 1 1 1 0 0 1-1.07-1.08 1 1 0 0 1 1-1.08 1.11 1.11 0 0 1 1.07 1.16zM45.28 25.57a1 1 0 0 1 1.08 1.11 1.22 1.22 0 0 1-1.15 1.05 1.18 1.18 0 0 1-1-1.11 1 1 0 0 1 1.07-1.05zM145.79 40.15a1.07 1.07 0 0 1-1.12 1.05 1 1 0 0 1-1-1.07 1 1 0 0 1 1-1 1.09 1.09 0 0 1 1.12 1.02zM111.42 105.89c-.66 0-1-.35-1-1a1.11 1.11 0 0 1 1-1.15 1.05 1.05 0 0 1 1 1.09c.01.69-.34 1.06-1 1.06zM40.68 112.63c-.73 0-1-.32-1-1a1 1 0 0 1 1-1.06 1.18 1.18 0 0 1 1.13 1.08 1.09 1.09 0 0 1-1.13.98zM161.29 58.94a1.08 1.08 0 0 1 1-1.15 1.06 1.06 0 0 1 1 1 1 1 0 0 1-1 1.15 1 1 0 0 1-1-1zM2 133.42a.94.94 0 0 1-1-1 1.08 1.08 0 0 1 1-1.1 1.13 1.13 0 0 1 1.13 1.06A1.12 1.12 0 0 1 2 133.42zM60 97.64a1.23 1.23 0 0 1-1.11 1 1 1 0 0 1-1.07-1 1.09 1.09 0 0 1 1.08-1.1 1.17 1.17 0 0 1 1.1 1.1zM134.1 107.42a.92.92 0 0 1-1-1 1.11 1.11 0 0 1 1.05-1.07 1 1 0 0 1 1.08 1.07 1 1 0 0 1-1.13 1zM99.39 47.43a1.1 1.1 0 0 1 .9-1.15 1.16 1.16 0 0 1 1.17 1.1 1.08 1.08 0 0 1-1 1.06 1 1 0 0 1-1.07-1.01zM85.07 51.08A1.06 1.06 0 0 1 84 50a1.22 1.22 0 0 1 1.1-1.13 1.2 1.2 0 0 1 1 1.16 1.16 1.16 0 0 1-1.03 1.05zM17.58 14.92a1 1 0 0 1-1.09 1 1 1 0 0 1-1-1.06 1 1 0 1 1 2.09.07zM119.29 18.1a1.14 1.14 0 0 1 1.13 1.06 1.08 1.08 0 0 1-1 1.14 1.11 1.11 0 0 1-.16-2.2zM55.82 81.13c-.72 0-1-.34-1-1.06a1 1 0 0 1 1.05-1 1.13 1.13 0 0 1 1.06 1.07 1.09 1.09 0 0 1-1.11.99zM91.47 71.84a1 1 0 0 1-1 1 1.08 1.08 0 0 1-1-1 1.14 1.14 0 0 1 1-1.11 1 1 0 0 1 1 1.11zM131.16 110.08a1 1 0 0 1 1.08 1.12 1.05 1.05 0 0 1-1 1 1.11 1.11 0 0 1-1.07-1 1.06 1.06 0 0 1 .99-1.12zM5.29 53.39a1.08 1.08 0 0 1-1 1.06 1.13 1.13 0 0 1-1.13-1.05 1.09 1.09 0 0 1 1.11-1.07 1 1 0 0 1 1.02 1.06zM169.05 87.17c.63 0 .95.35.95 1a1 1 0 0 1-1 1.12 1 1 0 0 1-1-1 1 1 0 0 1 1.05-1.12zM76.86 19.92a1 1 0 0 1-1.08-1 1.09 1.09 0 0 1 1.06-1.06 1 1 0 0 1 1.1 1 1 1 0 0 1-1.08 1.06zM50 95.23a1 1 0 0 1-1.07 1 1.14 1.14 0 0 1-1.1-1A1.18 1.18 0 0 1 49 94.18a1.09 1.09 0 0 1 1 1.05zM10 21.14a1 1 0 0 1-1-.93A1.15 1.15 0 0 1 10.08 19a1 1 0 0 1 1 1.09A1 1 0 0 1 10 21.14zM61.35 52.64c-.16.17-.34.5-.59.58a1.09 1.09 0 0 1-.9-.13 3.8 3.8 0 0 1-.8-1.05.64.64 0 0 1 0-.59c.14-.17.5-.39.63-.32a10.48 10.48 0 0 1 1.49 1c.11.06.1.24.17.51zM97.52 39.1a1.16 1.16 0 0 1-1.17 1.1 1 1 0 0 1-.93-1 1.05 1.05 0 0 1 1-1.12 1.23 1.23 0 0 1 1.1 1.02zM64.48 67.29a1 1 0 0 1-1 1 1.08 1.08 0 0 1-1.14-1c0-.6.45-1 1.17-1a.9.9 0 0 1 .97 1zM81.32 71.15a1 1 0 0 1 1-1.05 1 1 0 0 1 1.07 1 1.09 1.09 0 0 1-1 1.08 1 1 0 0 1-1.07-1.03zM146.46 45.5a1 1 0 0 1-1-1 1 1 0 0 1 1-1 1.14 1.14 0 0 1 1.16 1.1 1 1 0 0 1-1.16.9zM79.21 78.85a1 1 0 0 1-1.08 1 1.06 1.06 0 0 1-1-1.06 1.07 1.07 0 0 1 1.09-1 1 1 0 0 1 .99 1.06zM41.22 23.88a1 1 0 0 1 1 1A1.15 1.15 0 0 1 41.15 26a1.11 1.11 0 0 1-1-1 1.05 1.05 0 0 1 1.07-1.12zM18 101a1.06 1.06 0 1 1 1-1.13 1.15 1.15 0 0 1-1 1.13zM124.09 24.5c0 .66-.31.95-1 .95a1 1 0 0 1-1.09-1.09 1 1 0 0 1 1.07-.94 1 1 0 0 1 1.02 1.08zM39.68 39.62a1.14 1.14 0 0 1-1.11 1 1 1 0 0 1-1-1 1.06 1.06 0 0 1 2.11 0zM95.41 131.16a1 1 0 0 1-.91-1.16 1.06 1.06 0 0 1 1.14-1 1 1 0 0 1 .82 1.18 1.11 1.11 0 0 1-1.05.98zM121 55.53a1 1 0 0 1-1 1.08 1 1 0 0 1-1-1.09.89.89 0 0 1 1-1 .93.93 0 0 1 1 1.01zM110.63 56a1.08 1.08 0 0 1-1.07 1.11 1 1 0 0 1-1-1c0-.66.33-1.06.91-1.07a1 1 0 0 1 1.16.96zM74.19 39.58a1.05 1.05 0 0 1-1.11-1 1.1 1.1 0 0 1 1-1 1.07 1.07 0 0 1 1.14 1.1c-.01.56-.39.89-1.03.9zM40.56 109.29a1 1 0 0 1-1.05-1 1.07 1.07 0 0 1 1.07-1 1 1 0 1 1 0 2zM28.69 13.16a1 1 0 0 1 1-1 1 1 0 0 1 1 1 1 1 0 0 1-1 1.08 1.05 1.05 0 0 1-1-1.08zM10.55 32.58a1 1 0 1 1 2 .05 1 1 0 0 1-1.09 1 1 1 0 0 1-.91-1.05zM69.29 35.83a1 1 0 0 1-1 1 1.06 1.06 0 0 1-1.08-1.08 1.12 1.12 0 0 1 1.17-1 1 1 0 0 1 .91 1.08zM94.32 132.52a16.16 16.16 0 0 1-.74 1.66.75.75 0 0 1-1.24-.84 8 8 0 0 1 .85-1.21.68.68 0 0 1 .63-.17c.18.04.31.34.5.56zM114 55.79a1 1 0 0 1 1 1 1.06 1.06 0 0 1-1 1.05 1 1 0 0 1-1-1 1 1 0 0 1 1-1.05zM84.38 112.69a.94.94 0 0 1-1.06.94 1 1 0 0 1-1-1 1.26 1.26 0 0 1 1.08-1.09 1.07 1.07 0 0 1 .98 1.15zM37.38 57a1.15 1.15 0 0 1-1-1 1.22 1.22 0 0 1 1.11-1 1 1 0 0 1 1 1 1 1 0 0 1-1.11 1zM109.74 25.71a.91.91 0 0 1-1-.89 1 1 0 0 1 .91-1.11 1.09 1.09 0 0 1 1.17 1 1 1 0 0 1-1.08 1zM84.48 47.65a1.06 1.06 0 0 1-1 1 1.09 1.09 0 0 1-1.08-1 1 1 0 0 1 1-1 1.12 1.12 0 0 1 1.08 1zM123 55.18a.89.89 0 0 1-1-.94.91.91 0 0 1 .93-1.05 1 1 0 0 1 1.07 1 1 1 0 0 1-1 .99zM69.86 82.15c-.06.09-.15.35-.33.43a.79.79 0 0 1-.69 0 1 1 0 0 0-1.18-.28.81.81 0 0 1-.66-.3.63.63 0 0 1 .93-.78 1.11 1.11 0 0 0 1.21.21c.36-.19.7.13.72.72zM82 108.93a.58.58 0 0 1-.53-.86 2 2 0 0 0 .24-1.42c0-.24.21-.58.41-.79s.46 0 .61.18a.61.61 0 0 1 0 .9 1 1 0 0 0-.13 1.06.65.65 0 0 1-.6.93zM40.41 121.26a.89.89 0 0 1-1-1 .92.92 0 0 1 1-1 1 1 0 0 1 1 .93 1 1 0 0 1-1 1.07zM89.19 115a8 8 0 0 1 .24 1.26.9.9 0 0 1-.24.71.83.83 0 0 1-.75 0 .69.69 0 0 1-.23-.64 1.72 1.72 0 0 0-.09-1.12 1 1 0 0 1 .19-.79.66.66 0 0 1 .63-.11c.2.11.31.39.46.59zM12.84 36.6a1.08 1.08 0 0 1-1-1 1 1 0 0 1 1.06-1 1 1 0 0 1 1 1 1.12 1.12 0 0 1-1.06 1zM46.71 57.26c-.2-.16-.52-.29-.62-.52a1.27 1.27 0 0 1 0-.88 2.66 2.66 0 0 1 .63-.76.64.64 0 0 1 1.11.32 2.24 2.24 0 0 1-.66 1.63c-.09.07-.24.11-.46.21zM156.51 54.54c-.24.26-.39.55-.6.6a.68.68 0 0 1-.63-.27 1 1 0 0 0-.91-.55 1 1 0 0 1-.64-.54.72.72 0 0 1 .36-.63.84.84 0 0 1 .75.16A1.8 1.8 0 0 0 156 54c.14.05.28.31.51.54zM41 127.85c.21.17.48.29.53.46a.8.8 0 0 1-.15.7 2.12 2.12 0 0 0-.81 1.14.49.49 0 0 1-.75.31.64.64 0 0 1-.21-.92c.28-.44.56-.89.87-1.31a1.94 1.94 0 0 1 .52-.38zM27.83 47a1.47 1.47 0 0 1 .35.12 1.28 1.28 0 0 0 1.29.31c.35-.11.57.3.55.67a.53.53 0 0 1-.68.53.86.86 0 0 1-.43-.23.63.63 0 0 0-.83-.16.74.74 0 0 1-.65-.2.71.71 0 0 1-.08-.65c.08-.21.34-.31.48-.39zM84.38 45.34c0 .51-.21.72-.59.76a.49.49 0 0 1-.61-.54 1.34 1.34 0 0 0-.59-1.27.64.64 0 0 1-.15-.61 1 1 0 0 1 .68-.33c.14 0 .37.31.39.49 0 .52 0 1 .69 1.17.1-.01.15.27.18.33zM8.24 21.36a1 1 0 0 1 .85.93 1 1 0 0 1-.86.92 1 1 0 0 1-1-.95 1 1 0 0 1 1.01-.9zM15.36 7.55a1 1 0 0 1-.94.91.91.91 0 0 1-.91-.92 1 1 0 0 1 .93-.92 1 1 0 0 1 .92.93zM59.15 131.85c0-.57.32-.69.7-.78a4.4 4.4 0 0 0 .69-.34c.25-.1.53-.27.76-.22a.69.69 0 0 1 .32.59c0 .21-.32.38-.53.53a5.06 5.06 0 0 1-.88.49 1.23 1.23 0 0 1-.69.14c-.17-.05-.29-.26-.37-.41zM115.58 16.49a1 1 0 0 1 .84 1.05 1 1 0 0 1-.81.91 1.06 1.06 0 0 1-.91-1 1 1 0 0 1 .88-.96zM6.15 42.88a.92.92 0 0 1-.85 1 .93.93 0 0 1-.94-1 .77.77 0 0 1 .82-.84.84.84 0 0 1 .97.84zM133.55 118.47a.89.89 0 0 1-.89.92.85.85 0 0 1-.9-.85.8.8 0 0 1 .92-.91.78.78 0 0 1 .87.84zM7.48 42.27a.83.83 0 0 1 .88.91.79.79 0 0 1-.87.85.88.88 0 1 1 0-1.76zM133.93 101.5a.82.82 0 0 1 .86-.82.89.89 0 0 1 .93.89.87.87 0 0 1-1 .87c-.48 0-.79-.38-.79-.94zM72.6 79.89a.84.84 0 0 1 .88.8.91.91 0 0 1-.88.94.9.9 0 0 1-.93-.89c-.01-.52.33-.84.93-.85zM92.41 86.1a.8.8 0 0 1-.77.89 1 1 0 0 1-1-1 .88.88 0 0 1 .9-.86c.55.03.87.37.87.97zM145 20a.93.93 0 0 1-1 .9.92.92 0 0 1-.84-.92.88.88 0 0 1 .89-.86.9.9 0 0 1 .95.88zM104.38 93.68a.8.8 0 0 1 .79-.87.92.92 0 0 1 .93.9 1 1 0 0 1-.83.93.86.86 0 0 1-.89-.96zM138.43 18.39a1 1 0 0 1-.88.9.82.82 0 0 1-.9-.83.88.88 0 0 1 .83-1 1.08 1.08 0 0 1 .95.93zM162.83 26.41a.86.86 0 0 1-.83.92 1 1 0 0 1-.92-.86 1 1 0 0 1 .87-1 .86.86 0 0 1 .88.94zM163.41 22.52a.89.89 0 0 1-.88.88.91.91 0 0 1-.86-.85 1.09 1.09 0 0 1 1-1 .84.84 0 0 1 .74.97zM89.52 82.69a1 1 0 0 1 .91.94.93.93 0 0 1-.88.88 1 1 0 0 1-.9-.94.86.86 0 0 1 .87-.88zM156.7 82a.87.87 0 0 1-.89-.86.91.91 0 0 1 .83-.92.85.85 0 0 1 .9.9.82.82 0 0 1-.84.88zM5.27 50.35a.85.85 0 0 1-.81.88.86.86 0 0 1-1-.85.92.92 0 0 1 .89-.94.91.91 0 0 1 .92.91zM126.86 123.66a.83.83 0 0 1 .83-.9.89.89 0 1 1-.07 1.77c-.5 0-.77-.31-.76-.87zM135.59 98c.32.5.89.88.46 1.54a.84.84 0 0 1-1.08.3 1.09 1.09 0 0 1-.5-.74c-.11-.81.58-.88 1.12-1.1zM99.07 32.06a.87.87 0 0 1-1.74 0 .93.93 0 0 1 .87-1 .9.9 0 0 1 .87 1zM153 26.76a.83.83 0 0 1-.87.87.82.82 0 0 1-.87-.81.88.88 0 0 1 .87-.94.85.85 0 0 1 .87.88zM130.5 116.36a.88.88 0 0 1 .83.86.83.83 0 0 1-1 .84.77.77 0 0 1-.82-.89.85.85 0 0 1 .99-.81zM90.71 74.71a.84.84 0 0 1-.8.89.87.87 0 0 1-.93-.82 1 1 0 0 1 .87-1 .88.88 0 0 1 .86.93zM109.62 53.35a.85.85 0 0 1-.84-.9.82.82 0 0 1 .79-.93.92.92 0 0 1 .05 1.83zM151.19 6.12a.94.94 0 0 1-.93-.85 1 1 0 0 1 .91-.94.9.9 0 0 1 0 1.79zM.94 55.57a.91.91 0 0 1-.94-.86.87.87 0 0 1 .86-.83.9.9 0 0 1 1 .85.81.81 0 0 1-.92.84zM147.32 33.88a.86.86 0 0 1-.89.87.74.74 0 0 1-.85-.79.8.8 0 0 1 .81-.92.89.89 0 0 1 .93.84zM144 34.66a.73.73 0 0 1-.84-.8.84.84 0 0 1 .75-.92 1 1 0 0 1 1 .88.88.88 0 0 1-.91.84zM73.54 75.38a.85.85 0 0 1-.75-.87.88.88 0 0 1 .94-.88.83.83 0 0 1 .81.87.9.9 0 0 1-1 .88zM58.7 77.39a1 1 0 0 1-1 .91.84.84 0 0 1-.77-.86.88.88 0 0 1 .85-.91.93.93 0 0 1 .92.86zM124.28 21.59a.87.87 0 1 1-1.73-.16 1 1 0 0 1 .88-.84 1.06 1.06 0 0 1 .85 1zM10 32.51a.78.78 0 0 1-.88.78.75.75 0 0 1-.83-.81c0-.59.32-.94.86-.92a.87.87 0 0 1 .85.95zM62.13 68.8a.91.91 0 0 1-.93.84.83.83 0 0 1-.81-.88.85.85 0 0 1 .88-.87.9.9 0 0 1 .86.91zM66.59 74.72a.86.86 0 0 1 .89-.8 1 1 0 0 1 .88.89.9.9 0 0 1-1 .84.86.86 0 0 1-.77-.93zM134.45 114a.91.91 0 0 1-.84.93 1 1 0 0 1-.86-1 1 1 0 0 1 .9-.81.81.81 0 0 1 .8.88zM136.71 50.91c0-.61.31-.87.86-.83a.91.91 0 0 1 .85 1 .86.86 0 0 1-.9.79.85.85 0 0 1-.81-.96zM94.57 68.62c0 .6-.3.91-.87.89a.84.84 0 0 1-.79-.89c0-.54.3-.83.87-.83s.79.26.79.83zM28.28 50.84a.91.91 0 0 1 .8 1 .84.84 0 0 1-.9.78.91.91 0 0 1-.78-1 .88.88 0 0 1 .88-.78zM135.84 59.23a1 1 0 0 1 .81-.9.94.94 0 0 1 .91.87.89.89 0 0 1-.84.93.93.93 0 0 1-.88-.9zM76.07 104.08a.91.91 0 0 1 .83.87.85.85 0 0 1-.87.87.78.78 0 0 1-.85-.87.91.91 0 0 1 .89-.87zM32 25.77a1 1 0 0 1-.86.92.9.9 0 0 1-.88-.88.86.86 0 0 1 .79-.89 1 1 0 0 1 .95.85zM117.26 20.41a.78.78 0 0 1-.79.86.92.92 0 0 1-.9-.86 1 1 0 0 1 .91-.95.86.86 0 0 1 .78.95zM131.75 123.15a.92.92 0 0 1-.81-.85 1 1 0 0 1 1-.88.82.82 0 0 1 .77 1 .89.89 0 0 1-.96.73zM85.55 106.28a.83.83 0 0 1-.87.87.85.85 0 0 1-.84-.84.89.89 0 0 1 .81-.89.92.92 0 0 1 .9.86zM102.59 116.55a1 1 0 0 1 .86-.92.9.9 0 0 1 .06 1.79 1 1 0 0 1-.92-.87zM142.77 37.21a.87.87 0 0 1-.91.83.79.79 0 0 1-.85-.81.85.85 0 0 1 .79-.89 1 1 0 0 1 .97.87zM74 76.57a.86.86 0 0 1 .77.91.87.87 0 0 1-.9.85.83.83 0 0 1-.8-.93.93.93 0 0 1 .93-.83zM155.37 6.82a.8.8 0 0 1 .84.84.79.79 0 0 1-.84.88.82.82 0 0 1-.83-.91.73.73 0 0 1 .83-.81zM43.48 14.17a1 1 0 0 1-.86 1 .84.84 0 0 1-.84-.85 1 1 0 0 1 .84-1 .85.85 0 0 1 .86.85zM147.24 42.51c-.58 0-1-.36-1-.82a.9.9 0 0 1 .85-.86 1 1 0 0 1 .92.94.74.74 0 0 1-.77.74zM131.75 105.12a.79.79 0 0 1-.88.84.81.81 0 0 1-.85-.82 1 1 0 0 1 .91-.88.8.8 0 0 1 .82.86zM72.12 22.31a1.06 1.06 0 0 1-.85-.89 1 1 0 0 1 .9-.88.87.87 0 0 1 .84 1 .92.92 0 0 1-.89.77zM72.24 27a.92.92 0 0 1-.92.84.84.84 0 0 1-.76-.91.81.81 0 0 1 .79-.87 1 1 0 0 1 .89.94zM103.76 101.64a.84.84 0 0 1 .87.88.93.93 0 0 1-.86.91.86.86 0 0 1-.82-.82 1 1 0 0 1 .81-.97zM27.5 98.56a.79.79 0 0 1 .86.8.83.83 0 0 1-.81.85.9.9 0 0 1-.95-.86.87.87 0 0 1 .9-.79zM158 53.4a.85.85 0 0 1-.79-.89 1 1 0 0 1 .88-.9.9.9 0 0 1-.09 1.79zM20.43 14a.93.93 0 0 1-.81.91.86.86 0 0 1-.82-.87c0-.6.31-1 .85-.94a.86.86 0 0 1 .78.9zM105.11 111.32a.89.89 0 0 1 .81.89.85.85 0 0 1-.92.88c-.44 0-.72-.34-.73-.86a.86.86 0 0 1 .84-.91zM17.29 57.79a.79.79 0 0 1-.92-.79.85.85 0 0 1 .8-.89 1 1 0 0 1 .94.9.78.78 0 0 1-.82.78zM31.59 15.22a1.06 1.06 0 0 1 .86-1c.39 0 .79.42.8.9a.94.94 0 0 1-.69.94 1.05 1.05 0 0 1-.97-.84zM51.42 95.33a.88.88 0 0 1-.84-.85 1 1 0 0 1 .88-.91 1 1 0 0 1 .84.94.91.91 0 0 1-.88.82zM80.46 24.29a.84.84 0 0 1 .83-.8.86.86 0 0 1 .89.92.83.83 0 0 1-.85.77.87.87 0 0 1-.87-.89zM131.81 97.55a.8.8 0 0 1-.85.82.82.82 0 0 1-.85-.82.87.87 0 0 1 .85-.9.85.85 0 0 1 .85.9zM44.37 24.27c-.54 0-.88-.32-.87-.78a.87.87 0 0 1 .84-.91.9.9 0 0 1 .89.87.85.85 0 0 1-.86.82zM81.6 103.1a.9.9 0 0 1-.84-.92.81.81 0 0 1 .74-.87.9.9 0 0 1 .93.83 1 1 0 0 1-.83.96zM73.09 107.65a.81.81 0 0 1-.83.85.81.81 0 0 1-.86-.87.85.85 0 1 1 1.69 0zM73.11 102.8a.82.82 0 0 1 .81.87.88.88 0 0 1-.89.87.81.81 0 0 1-.82-.8.94.94 0 0 1 .9-.94zM28 28a1 1 0 0 1-.94.83.8.8 0 0 1-.83-.83 1 1 0 0 1 .84-.88c.38.05.93.59.93.88zM99.42 50.94a.86.86 0 0 1-.92.82.79.79 0 0 1-.78-.88.73.73 0 0 1 .77-.81.84.84 0 0 1 .93.87zM124.52 47.54c-.47 0-.78-.33-.79-.88a.87.87 0 0 1 .75-.94.94.94 0 0 1 .84.94.82.82 0 0 1-.8.88zM68 42.29a.84.84 0 0 1-.79.83.85.85 0 0 1-.94-.85.78.78 0 0 1 .75-.8.93.93 0 0 1 .98.82zM85 67.9a.89.89 0 0 1-.81.89.91.91 0 0 1-.84-.88.84.84 0 0 1 .84-.9.87.87 0 0 1 .81.89zM42.68 28.22a.7.7 0 0 1-.76-.81.88.88 0 0 1 .85-.91 1.11 1.11 0 0 1 .86.9.92.92 0 0 1-.95.82zM54.74 51.73a.82.82 0 0 1-.75.86.89.89 0 0 1-.94-.81 1 1 0 0 1 .9-1 .87.87 0 0 1 .79.95zM44 131.41a1.16 1.16 0 0 1-.94.94.91.91 0 0 1-.78-.86.86.86 0 0 1 1.72-.08zM9.9 25.21a.78.78 0 0 1-.9-.84.74.74 0 0 1 .77-.81.84.84 0 0 1 .92.87.78.78 0 0 1-.79.78zM59 58.33a.85.85 0 0 1-.89-.86.91.91 0 0 1 .83-.88.9.9 0 0 1 .8.9.73.73 0 0 1-.74.84zM87.53 115.61a.87.87 0 1 1-1.74 0 .79.79 0 0 1 .89-.78.78.78 0 0 1 .85.78zM99.84 37a.8.8 0 0 1-.87.81.75.75 0 0 1-.84-.76.83.83 0 0 1 .86-.89.85.85 0 0 1 .85.84zM86.8 54.56c-.53 0-.87-.34-.84-.81a.87.87 0 0 1 .84-.85.89.89 0 0 1 .88.88.83.83 0 0 1-.88.78zM153.61 58a.88.88 0 0 1-.83-.88 1 1 0 0 1 .81-.92 1 1 0 0 1 .83.84.91.91 0 0 1-.81.96zM126.85 122.08a.77.77 0 0 1-.87.84.82.82 0 0 1-.76-.86.88.88 0 0 1 .79-.85.79.79 0 0 1 .84.87zM153.57 78.44a.85.85 0 0 1-.81.87.94.94 0 0 1-.82-.89 1 1 0 0 1 .89-.9c.45 0 .75.37.74.92zM49.56 99a.88.88 0 0 1-.85.85.92.92 0 0 1-.88-.88.89.89 0 0 1 .89-.81.86.86 0 0 1 .84.84zM42.61 21.14a.86.86 0 0 1 0 1.72.92.92 0 0 1-.88-.89.87.87 0 0 1 .88-.83zM86.1 56.34a1 1 0 0 1-.89.9.83.83 0 0 1-.79-.9.78.78 0 0 1 .8-.81.86.86 0 0 1 .88.81zM59.68 130.06a.75.75 0 0 1-.78-.81.88.88 0 0 1 1-.85.82.82 0 0 1 .72.89.81.81 0 0 1-.94.77zM124.21 115.51a.88.88 0 0 1-.83.87.82.82 0 0 1-.82-.79 1 1 0 0 1 .89-1 .85.85 0 0 1 .76.92zM32 44.45a.84.84 0 0 1-.89.8.82.82 0 0 1-.81-.86.79.79 0 0 1 .78-.83.91.91 0 0 1 .92.89zM66.9 68.32a.83.83 0 0 1-1-.78.86.86 0 0 1 .79-.84.92.92 0 0 1 1 .89.71.71 0 0 1-.79.73zM106.16 45.4a.82.82 0 0 1-.8.82.87.87 0 0 1 0-1.73.89.89 0 0 1 .8.91zM104.69 73.75a.81.81 0 0 1-.79.88.78.78 0 0 1-.82-.9.81.81 0 0 1 .82-.85.8.8 0 0 1 .79.87zM27.41 50.09a.76.76 0 0 1-.8.86.88.88 0 0 1-.91-.79 1 1 0 0 1 .84-.9.88.88 0 0 1 .87.83zM131 107a.76.76 0 0 1 .85.8.76.76 0 0 1-.79.87.78.78 0 0 1-.86-.8.8.8 0 0 1 .8-.87zM166.89 25.28a.77.77 0 0 1-.8.85.84.84 0 0 1-.87-.82.87.87 0 0 1 .83-.86.83.83 0 0 1 .84.83zM14.93 13.06a.75.75 0 0 1-.78.81.85.85 0 0 1-.86-.89.77.77 0 0 1 .85-.8.81.81 0 0 1 .79.88zM79.76 36.63c0 .48-.37.79-.94.8a.81.81 0 0 1-.77-.84.88.88 0 0 1 .87-.82.86.86 0 0 1 .84.86zM84.82 36.49a.82.82 0 0 1-.77.86.85.85 0 0 1-.9-.85.76.76 0 0 1 .81-.84.84.84 0 0 1 .86.83zM11.71 58.49a.94.94 0 0 1 .86.92.91.91 0 0 1-.83.81.88.88 0 0 1-.85-.85.91.91 0 0 1 .82-.88zM67.83 117.51a.79.79 0 0 1 .85.76.86.86 0 0 1-.83.92.83.83 0 0 1-.86-.82.86.86 0 0 1 .84-.86zM118.56 107.87c0-.57.33-.91.83-.9a.92.92 0 0 1 .83.88.82.82 0 0 1-.87.8c-.52-.02-.81-.31-.79-.78zM133.49 55.89a.86.86 0 0 1 .75.88.89.89 0 0 1-.88.83.91.91 0 0 1-.81-.89.86.86 0 0 1 .94-.82zM114.57 54.11a.88.88 0 0 1-.09-1.75 1 1 0 0 1 .9.87.87.87 0 0 1-.81.88zM53.4 59.57a.75.75 0 0 1-.8-.84c0-.44.45-.91.82-.89a.9.9 0 0 1 .8.89.77.77 0 0 1-.82.84zM23.08 54.29a.88.88 0 0 1-.87.88.86.86 0 0 1-.84-.85.91.91 0 0 1 .87-.84 1 1 0 0 1 .84.81zM119.86 115.87a.85.85 0 0 1-.88.87.87.87 0 0 1-.79-.84.8.8 0 0 1 .83-.84.76.76 0 0 1 .84.81zM64 39.48a.88.88 0 0 1-.83.87.86.86 0 0 1-.88-.81.81.81 0 0 1 .83-.85.8.8 0 0 1 .88.79zM99.34 41.49a.85.85 0 0 1-.86.82.82.82 0 0 1-.09-1.64.92.92 0 0 1 .95.82zM107.79 102.23c0 .51-.38.81-1 .8a.73.73 0 0 1-.64-.81.91.91 0 0 1 .79-.91 1 1 0 0 1 .85.92zM78.48 76a.81.81 0 0 1-.81.81.88.88 0 0 1-.87-.81.92.92 0 0 1 .86-.85.87.87 0 0 1 .82.85zM159.37 56.39a.75.75 0 0 1-.79.8.81.81 0 0 1-.87-.8.9.9 0 0 1 .91-.85.79.79 0 0 1 .75.85zM44.81 114.54a.82.82 0 0 1-.89.79c-.54 0-.82-.26-.81-.75a.84.84 0 0 1 .84-.9 1 1 0 0 1 .86.86zM105.74 55.44a.86.86 0 0 1-.84-.86.79.79 0 0 1 .78-.83.82.82 0 0 1 .86.82.83.83 0 0 1-.8.87zM66.47 37.62a.74.74 0 0 1-.77.82.92.92 0 0 1-.91-.85.93.93 0 0 1 1-.8.8.8 0 0 1 .68.83zM114.37 101.39a.91.91 0 0 1 .87.83.92.92 0 0 1-.79.91.8.8 0 0 1-.82-.83c-.01-.54.28-.9.74-.91zM103.11 48.78a.73.73 0 0 1 .77-.81.77.77 0 0 1 .82.78.84.84 0 0 1-.82.92.79.79 0 0 1-.77-.89zM84.29 54.78a.72.72 0 0 1-.79-.78.78.78 0 0 1 .73-.87.83.83 0 1 1 .06 1.66zM44.3 55.54a.78.78 0 0 1-.78-.82.84.84 0 1 1 1.68 0 .89.89 0 0 1-.9.82zM44.68 117.37a.77.77 0 0 1-.82.83.74.74 0 0 1-.84-.75.94.94 0 0 1 .91-.87.75.75 0 0 1 .75.79zM40.6 56.86a.78.78 0 0 1-.84-.82.75.75 0 0 1 .74-.85.83.83 0 0 1 .88.85.76.76 0 0 1-.78.82zM45 121.9a.83.83 0 0 1-.8.81.92.92 0 0 1-.92-.78.93.93 0 0 1 .89-.81.78.78 0 0 1 .83.78zM8.16 121a.76.76 0 0 1-.91.74.7.7 0 0 1-.73-.79.88.88 0 0 1 .92-.83.79.79 0 0 1 .72.88zM25.6 48.86a.93.93 0 0 1-.88-.84.85.85 0 0 1 .86-.82.81.81 0 0 1 .8.76.84.84 0 0 1-.78.9zM40.57 47.73a.76.76 0 0 1-.79.76.82.82 0 0 1-.86-.82.83.83 0 1 1 1.65.06zM11.56 56.85a.86.86 0 0 1-.73.9.87.87 0 0 1-.86-.83.79.79 0 0 1 .77-.84.76.76 0 0 1 .82.77zM33.26 21.7a.73.73 0 0 1-.8-.72c0-.52.33-1 .71-1a.91.91 0 0 1 .88.88.77.77 0 0 1-.79.84zM40.23 36.52a.79.79 0 0 1-.87.73.77.77 0 0 1-.8-.79.82.82 0 0 1 .85-.81.86.86 0 0 1 .82.87zM63.24 42.43a.85.85 0 0 1 .92-.76.77.77 0 0 1 .8.8.75.75 0 0 1-.84.76.89.89 0 0 1-.88-.8zM83.24 72.85a.75.75 0 0 1 .8.73.92.92 0 0 1-.79 1 .85.85 0 0 1 0-1.69zM63.39 125.8a.77.77 0 0 1 .76.84.8.8 0 0 1-.79.82.75.75 0 0 1-.78-.8.8.8 0 0 1 .81-.86zM124.07 119.54a.77.77 0 0 1 .81.78.85.85 0 0 1-.86.83.82.82 0 0 1-.77-.78.78.78 0 0 1 .82-.83zM40.05 52.46a.82.82 0 0 1-.81.86.84.84 0 0 1 0-1.67.8.8 0 0 1 .81.81zM90.33 121a.76.76 0 0 1-.69-.84.8.8 0 0 1 .79-.82.86.86 0 0 1 .79.84.93.93 0 0 1-.89.82zM14.86 58a.78.78 0 0 1-.77.83.83.83 0 0 1 0-1.66.82.82 0 0 1 .77.83zM28.87 42.59c-.52 0-.85-.28-.83-.73a.84.84 0 0 1 .83-.85.85.85 0 0 1 .82.82.76.76 0 0 1-.82.76zM37.46 48.25a.76.76 0 0 1-.82.77.8.8 0 0 1-.74-.87.85.85 0 0 1 .83-.79.87.87 0 0 1 .73.89zM50.82 60.35a.8.8 0 0 1 .8-.82.78.78 0 0 1 .75.86.85.85 0 0 1-.82.8.82.82 0 0 1-.73-.84zM18.69 53.87a.81.81 0 0 1-.81.8.74.74 0 0 1-.75-.83.8.8 0 0 1 .79-.82.84.84 0 0 1 .77.85zM138.67 42.91a.82.82 0 0 1-.06-1.64.9.9 0 0 1 .82.88.74.74 0 0 1-.76.76zM85.94 42.47a.77.77 0 0 1-.85.81.76.76 0 0 1-.73-.8.81.81 0 0 1 .79-.83.79.79 0 0 1 .79.82zM94.41 84.1c-.41 0-.67-.23-.69-.65a.79.79 0 0 1 .68-.8.71.71 0 0 1 .67.73.67.67 0 0 1-.66.72zM72.48 17.79c0 .42-.2.74-.67.72a.59.59 0 0 1-.64-.71.69.69 0 0 1 .72-.73c.43.05.56.36.59.72zM143.36 24.11a.57.57 0 0 1-.69.54.62.62 0 0 1-.64-.73.68.68 0 0 1 .73-.65.71.71 0 0 1 .6.84zM140.4 31.25a.7.7 0 0 1-.74.62.78.78 0 0 1-.66-.77.71.71 0 0 1 .77-.64.75.75 0 0 1 .63.79zM133.09 95.14c0 .38-.17.7-.61.7s-.71-.2-.7-.66.19-.72.64-.74.64.28.67.7zM133.14 103.1a.7.7 0 0 1 .69.71.66.66 0 0 1-.72.62.58.58 0 0 1-.68-.63.7.7 0 0 1 .71-.7zM97.39 80.45c.16.24.42.47.45.73a.59.59 0 0 1-.63.72 1.15 1.15 0 0 1-.69-.63c-.12-.27.37-.73.87-.82zM25.42 26.42c-.11.53-.42.85-.8.82a.61.61 0 0 1-.61-.7c0-.42.28-.76.68-.7s.49.37.73.58zM155.2 88.41c0 .52-.34.64-.74.65s-.56-.29-.56-.66a.61.61 0 0 1 .67-.69c.43 0 .62.29.63.7zM68.92 84.23c0 .45-.25.62-.66.61a.6.6 0 0 1-.66-.65.66.66 0 1 1 1.32 0zM76.93 39.33c.37.05.75.14.73.63s-.34.64-.74.64a.59.59 0 0 1-.68-.63c.01-.43.27-.61.69-.64zM160.3 24.78c-.05.42-.26.66-.68.63s-.7-.18-.69-.62a.67.67 0 0 1 .73-.67c.41-.02.6.27.64.66zM142.86 35.05a.64.64 0 0 1-.7.68c-.45 0-.57-.35-.58-.73a.62.62 0 0 1 .73-.63c.41.03.59.26.55.68zM122.11 117.09c0 .6-.31.89-.76.89s-.61-.1-.61-.52.35-.84.74-.78a1.77 1.77 0 0 1 .63.41zM113 20c-.25.15-.49.4-.76.44s-.63-.24-.64-.65.41-.85.68-.72a3.1 3.1 0 0 1 .74.67zM158.26 25.64c-.09.55-.38.9-.75.87s-.68-.24-.67-.65a.64.64 0 0 1 .7-.68c.25.03.46.3.72.46zM141 18.31a.63.63 0 0 1-.6-.7.64.64 0 0 1 .63-.69.7.7 0 0 1 .66.73.67.67 0 0 1-.69.66zM55.85 86.58a.62.62 0 0 1-.67.62c-.44 0-.61-.32-.62-.71a.61.61 0 0 1 .6-.67.72.72 0 0 1 .69.76zM132.21 100.27c-.39 0-.71-.16-.73-.61a.65.65 0 0 1 .68-.7.64.64 0 0 1 .7.64c.02.4-.29.6-.65.67zM75.46 16.66c0-.43.22-.81.6-.79.22 0 .53.43.59.72a.59.59 0 0 1-.55.74c-.41.02-.6-.33-.64-.67zM105.32 99.23a.61.61 0 0 1-.61-.66c0-.41.2-.67.64-.67a.66.66 0 0 1 .69.69.64.64 0 0 1-.72.64zM130.61 115.1c-.33 0-.62-.18-.61-.63a.64.64 0 0 1 .65-.69.71.71 0 0 1 .68.73c0 .38-.24.59-.72.59zM135.38 47.58c-.43 0-.68-.24-.7-.66s.44-.85.75-.72a1.09 1.09 0 0 1 .55.69.59.59 0 0 1-.6.69zM113 23.61c-.07.6-.31.83-.71.81a.62.62 0 0 1-.61-.71.61.61 0 0 1 .68-.63c.27.06.48.39.64.53zM59.05 70.75c0 .38-.29.57-.7.55s-.7-.3-.61-.67a1 1 0 0 1 .63-.62c.33-.11.7.32.68.74zM42.86 104.42c-.32 0-.51-.24-.52-.63a.63.63 0 0 1 .64-.69.58.58 0 0 1 .65.6.71.71 0 0 1-.77.72zM80.91 105.13c0 .4-.17.68-.59.68s-.7-.15-.7-.61a.69.69 0 0 1 .69-.72.6.6 0 0 1 .6.65zM114.13 105.89a.64.64 0 0 1-.67.65.66.66 0 0 1-.69-.7.62.62 0 0 1 .7-.62c.42-.01.61.27.66.67zM133 109.66a.63.63 0 0 1-.6-.67.65.65 0 0 1 .68-.69c.44 0 .6.32.63.71a.65.65 0 0 1-.71.65zM140.62 25.85c0 .47-.18.73-.62.72a.62.62 0 0 1-.66-.67.58.58 0 0 1 .65-.65c.42.01.67.2.63.6zM76.92 14.7c0 .48-.32.59-.69.63s-.6-.24-.61-.62a.63.63 0 0 1 .53-.73.81.81 0 0 1 .77.72zM96 81.45c0 .37-.24.66-.67.64a.62.62 0 0 1-.62-.7c0-.38.24-.7.66-.67s.63.28.63.73zM92.52 84.8c-.48 0-.5-.37-.51-.69a.63.63 0 1 1 1.25 0 .67.67 0 0 1-.74.69zM23.77 103.18a.57.57 0 0 1-.57-.63.59.59 0 0 1 .65-.66c.37 0 .69.17.71.63a.75.75 0 0 1-.79.66zM130.86 94.71c0 .43-.27.61-.68.61s-.61-.27-.6-.67a.6.6 0 0 1 .67-.64c.44-.01.59.3.61.7zM60.68 71.8c0 .4-.18.72-.61.73s-.63-.28-.63-.69a.62.62 0 0 1 .6-.72c.43-.02.59.3.64.68zM77.58 96.16c-.34 0-.73-.07-.73-.54s.15-.73.62-.76a.61.61 0 0 1 .7.65c0 .42-.17.64-.59.65zM131.18 124.14a.72.72 0 0 1-.68.79.6.6 0 0 1-.59-.66c0-.41.17-.7.59-.7a.63.63 0 0 1 .68.57zM27.77 97.36a.58.58 0 0 1-.55-.65.61.61 0 0 1 .64-.68.64.64 0 0 1 .68.65.72.72 0 0 1-.77.68zM106.61 51.64a.63.63 0 0 1-.64.67.56.56 0 0 1-.65-.59.64.64 0 0 1 .68-.72c.4-.07.55.24.61.64zM136.23 41.39c0 .41-.2.68-.64.69a.56.56 0 0 1-.66-.58.61.61 0 0 1 .59-.72.64.64 0 0 1 .71.61zM157 24.43a.59.59 0 0 1-.64-.68.62.62 0 0 1 .69-.64.66.66 0 0 1-.05 1.32zM150.38 50.56c0 .45-.23.72-.65.71a.6.6 0 0 1-.64-.67c0-.41.23-.69.64-.68a.63.63 0 0 1 .65.64zM30.32 74.38c0 .32-.15.63-.58.61s-.75-.26-.66-.7a1.08 1.08 0 0 1 .58-.66c.34-.13.66.37.66.75zM148.94 4.11c-.12-.16-.41-.38-.45-.63a.6.6 0 0 1 .62-.7.61.61 0 0 1 .67.65c.02.42-.25.62-.84.68zM5.68 99.31c0 .42-.23.68-.67.66s-.66-.15-.65-.58a.67.67 0 0 1 .7-.7c.44-.03.56.31.62.62zM156.56 59.79c-.41-.06-.68-.26-.66-.68a.63.63 0 0 1 .69-.64.61.61 0 0 1 .62.65c.01.43-.27.61-.65.67zM133.12 61.23c-.4 0-.79-.36-.67-.7a1.11 1.11 0 0 1 .63-.61c.38-.07.65.22.68.63a.64.64 0 0 1-.64.68zM21.36 101.49c0-.6.25-.85.67-.85a.6.6 0 0 1 .66.6c0 .38-.33.78-.69.69a2.07 2.07 0 0 1-.64-.44zM121 21.68a.59.59 0 0 1-.66-.65.64.64 0 0 1 .67-.72c.43.05.58.35.58.74a.54.54 0 0 1-.59.63zM1.15 128a.64.64 0 0 1 .63.69.57.57 0 0 1-.65.59.58.58 0 0 1-.64-.61c0-.45.24-.67.66-.67zM124.75 22.81c0-.39.17-.64.57-.66s.75.22.7.6a1.21 1.21 0 0 1-.57.75c-.24.13-.69-.37-.7-.69zM40.92 95.16a.73.73 0 0 1-.73.67c-.33 0-.62-.12-.58-.55s.18-.74.65-.73a.58.58 0 0 1 .66.61zM78.8 99.83a.59.59 0 0 1-.58-.7c0-.33.1-.66.52-.63s.72.17.72.66a.6.6 0 0 1-.66.67zM138.67 26.27c-.23.18-.44.45-.7.52s-.68-.34-.66-.72a.62.62 0 0 1 .67-.65c.46-.01.54.36.69.85zM142 27.46c0 .38-.22.64-.62.62a.68.68 0 0 1 0-1.35c.44.01.62.33.62.73zM165.22 22.13a.64.64 0 0 1 .68-.58.55.55 0 0 1 .59.69 1 1 0 0 1-.59.63c-.33.13-.69-.31-.68-.74zM105 109.17a2.71 2.71 0 0 1-.49-.72c-.09-.35.32-.72.69-.7a.56.56 0 0 1 .59.65c0 .28-.34.51-.52.77zM125.71 118.12c-.38 0-.66-.2-.65-.61a.6.6 0 0 1 .65-.66.62.62 0 0 1 .69.64c.02.45-.32.58-.69.63zM136.73 44a.62.62 0 0 1 .68-.62.58.58 0 0 1 .59.62c0 .36-.14.72-.6.7a.66.66 0 0 1-.67-.7zM99.56 34.07a.57.57 0 0 1 .68-.54 1 1 0 0 1 .61.63.57.57 0 0 1-.64.66c-.37-.01-.65-.23-.65-.75zM79.6 101.3a.55.55 0 0 1 .58.6c0 .39-.19.74-.66.74a.6.6 0 0 1-.64-.62.68.68 0 0 1 .72-.72zM139.22 20.82c-.23.18-.44.5-.69.53s-.63-.29-.61-.69.21-.71.62-.71.54.38.68.87zM79.74 29.53c-.37 0-.59-.16-.57-.57s.29-.75.71-.72.55.32.55.68a.59.59 0 0 1-.69.61zM130.23 119.94a.6.6 0 0 1-.69.61.58.58 0 0 1-.63-.62.56.56 0 0 1 .65-.63.62.62 0 0 1 .67.64zM76.5 99.24c-.07.55-.19.85-.65.86s-.66-.14-.66-.6.27-.73.66-.7.48.31.65.44zM119.2 49.72c-.14.51-.3.82-.74.8a.58.58 0 0 1-.55-.69c0-.39.22-.74.63-.67.25.04.46.36.66.56zM131.14 101.23c.43 0 .6.3.57.72a.6.6 0 0 1-.61.65c-.44 0-.61-.31-.61-.7a.6.6 0 0 1 .65-.67zM39 105.42c.41 0 .67.22.65.63s-.2.69-.62.69a.63.63 0 0 1-.67-.66c-.02-.44.29-.59.64-.66zM159.2 63.66c-.4 0-.66-.21-.65-.63a.63.63 0 0 1 .67-.66.59.59 0 0 1 .63.63.64.64 0 0 1-.65.66zM86 45.64a.64.64 0 1 1 .66.69c-.48.01-.66-.27-.66-.69zM108.93 54.31c0 .34-.08.6-.49.57s-.74-.17-.76-.64a.67.67 0 0 1 .71-.69c.45.05.55.38.54.76zM78.74 21.56c-.15.49-.29.78-.72.77a.61.61 0 0 1-.64-.68.55.55 0 0 1 .64-.6c.26.04.48.33.72.51zM150.52 43.86a.59.59 0 0 1-.6.66.6.6 0 0 1-.68-.63.55.55 0 0 1 .59-.64.61.61 0 0 1 .69.61zM107.74 24.3a2.51 2.51 0 0 1-.72.41.68.68 0 0 1-.66-.73.62.62 0 0 1 .71-.54.85.85 0 0 1 .67.86zM43.51 57c.46 0 .56.28.57.64a.54.54 0 0 1-.59.64c-.38 0-.64-.17-.65-.59a.61.61 0 0 1 .67-.69zM107.47 22.55a.59.59 0 0 1-.62-.66c0-.36.14-.65.56-.68a.68.68 0 0 1 .69.7.6.6 0 0 1-.63.64zM83.61 109.74c-.5 0-.59-.28-.6-.61a.59.59 0 0 1 .63-.67.64.64 0 0 1 .67.61c.03.4-.31.66-.7.67zM107.67 99.9c0 .39-.44.82-.74.7a.92.92 0 0 1-.55-.62.59.59 0 0 1 .62-.68.63.63 0 0 1 .67.6zM154.85 27.52c0 .38-.13.69-.57.67a.63.63 0 0 1-.64-.68c0-.41.16-.69.59-.68s.58.33.62.69zM128 119.32c-.07.31-.24.61-.66.6a.57.57 0 0 1-.65-.6.73.73 0 0 1 .71-.7.61.61 0 0 1 .6.7zM20 56.13c.54 0 .73.24.71.66s-.15.65-.58.64a.56.56 0 0 1-.63-.61c-.05-.4.11-.67.5-.69zM134.74 52.89c-.16.47-.27.78-.7.76a.62.62 0 0 1-.66-.6c0-.36.34-.86.62-.75a2.87 2.87 0 0 1 .74.59zM65.63 29.13a.55.55 0 0 1 .58.63c0 .4-.17.68-.61.69s-.63-.24-.62-.66a.6.6 0 0 1 .65-.66zM82.63 30.09c-.24.17-.47.45-.73.48s-.63-.27-.63-.67.24-.69.61-.62.5.36.75.55zM148.94 29.82c.41-.27.65-.54.91-.57s.64.25.6.68-.31.7-.7.61-.44-.38-.81-.72zM104.42 121.76c.07-.57.25-.86.66-.89a.57.57 0 0 1 .64.62.59.59 0 0 1-.66.65c-.25-.02-.47-.27-.64-.38zM35 17.35c-.08.38-.22.7-.67.68a.6.6 0 0 1-.59-.67c0-.36.18-.7.62-.7s.64.34.64.69zM104 106.47c-.16-.24-.41-.47-.45-.73-.07-.44.28-.67.67-.69s.59.4.54.72-.32.47-.5.71zM41 115.57c.38 0 .61.23.58.63s-.21.65-.61.65a.61.61 0 0 1-.66-.65c-.03-.42.24-.62.69-.63zM80.11 96.75c0 .41-.19.65-.59.65a.64.64 0 1 1-.07-1.28c.41-.03.62.25.66.63zM68.28 79.2c.55.08.87.22.87.65a.58.58 0 0 1-.6.64c-.4 0-.72-.23-.69-.62s.3-.49.42-.67zM70.61 111.44c-.38 0-.68-.15-.67-.59s.18-.7.6-.72.63.24.64.65a.59.59 0 0 1-.57.66zM62.23 99.22c0 .41-.22.65-.65.63a.58.58 0 0 1-.58-.65c0-.39.19-.65.59-.64a.6.6 0 0 1 .64.66zM76.28 101.89c-.06.59-.28.84-.68.85a.59.59 0 0 1-.66-.6.58.58 0 0 1 .66-.65 2.07 2.07 0 0 1 .68.4zM25.06 73.9a.6.6 0 0 1-.62-.65c0-.43.28-.57.65-.58s.66.16.66.57-.23.64-.69.66zM107.19 104.33c-.37.27-.58.55-.84.59a.55.55 0 0 1-.65-.57c0-.35.39-.78.75-.7s.41.35.74.68zM61.51 59.14c-.16.11-.37.37-.62.41a.58.58 0 0 1-.67-.63.62.62 0 0 1 .66-.66c.44 0 .57.33.63.88zM119.18 118.68c0-.58.23-.85.64-.88s.57.22.6.58-.32.86-.61.77a2 2 0 0 1-.63-.47zM157.38 28.71c-.25.16-.48.44-.73.47-.41.05-.64-.26-.62-.68s.27-.67.65-.58.47.35.7.53zM90.54 53.94c0 .61-.25.84-.67.84a.56.56 0 0 1-.6-.58c0-.38.33-.81.65-.72a1.93 1.93 0 0 1 .62.46zM98.57 35.17c0 .35-.12.64-.57.63s-.67-.15-.68-.61a.61.61 0 0 1 .65-.67c.39-.02.59.24.6.65zM138.78 95.19c0 .42-.2.64-.6.64s-.62-.28-.61-.68a.57.57 0 0 1 .61-.63.56.56 0 0 1 .6.67zM30.26 99c0 .43-.23.7-.64.69A.57.57 0 0 1 29 99c0-.38.19-.63.6-.63a.56.56 0 0 1 .66.63zM79.79 115c0 .36-.18.69-.61.7s-.6-.26-.6-.64.16-.69.6-.7.6.2.61.64zM153.76 29.73c-.21.13-.46.41-.71.41a.58.58 0 0 1-.57-.72.61.61 0 0 1 .67-.59c.44.05.53.38.61.9zM90.46 77.41a.58.58 0 0 1-.54-.66c0-.37.21-.63.61-.62s.62.27.61.68-.26.58-.68.6zM85.88 110.47c0 .58-.22.88-.62.91a.58.58 0 0 1-.63-.62c0-.41.21-.71.62-.67.25.03.47.28.63.38zM49.13 37.12c0 .36-.19.65-.61.63s-.71-.12-.7-.61.27-.57.64-.6a.56.56 0 0 1 .67.58zM43.46 112.56c-.11-.14-.38-.35-.42-.59a.62.62 0 0 1 .62-.71.58.58 0 0 1 .64.61c0 .4-.24.64-.84.69zM118.57 52.2c.38-.29.6-.6.85-.63s.59.28.57.65-.18.77-.58.71-.48-.39-.84-.73zM139.13 23.25a.62.62 0 0 1 .63.7.56.56 0 0 1-.64.59c-.42 0-.58-.27-.59-.66a.58.58 0 0 1 .6-.63zM63.09 57.68a2 2 0 0 1-.69.39c-.41 0-.58-.29-.58-.65s.2-.65.61-.62.62.29.66.88zM121.5 113.73c.11.15.38.37.44.62a.52.52 0 0 1-.55.66c-.39 0-.67-.17-.68-.62s.2-.61.79-.66zM102.6 113.73a1.74 1.74 0 0 1 .4.58.64.64 0 0 1-.64.74.54.54 0 0 1-.57-.61c.02-.36.21-.69.81-.71zM69.33 24.43c.24-.16.47-.44.72-.46a.57.57 0 0 1 .63.67.54.54 0 0 1-.66.56c-.26-.06-.47-.33-.7-.5zM74.58 42.71c-.31-.39-.6-.6-.65-.85s.24-.6.61-.64.78.31.69.61a4.42 4.42 0 0 1-.65.88zM73.62 113.78c.14-.52.29-.81.72-.75s.62.28.56.69-.34.67-.73.56c-.24-.06-.41-.36-.55-.5zM94.58 127.12a.59.59 0 0 1 .65-.66.53.53 0 0 1 .55.63c0 .36-.19.65-.6.66s-.59-.24-.6-.63zM154.43 48.56c-.06.55-.25.81-.66.78a.61.61 0 0 1-.64-.62c0-.34.38-.76.67-.65a2.34 2.34 0 0 1 .63.49zM65.41 33.8c.44 0 .56.31.57.66s-.22.57-.6.56-.66-.11-.68-.55a.68.68 0 0 1 .71-.67zM148.61 31.67c0 .45-.22.71-.62.72s-.59-.33-.6-.71.21-.61.62-.59.64.17.6.58zM166.74 38.66c.21 0 .43.23.43.61s-.3.61-.7.6a.52.52 0 0 1-.58-.58c0-.44.23-.64.85-.63zM37.26 111.06c.08-.57.27-.85.7-.83a.56.56 0 0 1 .55.64c0 .41-.25.71-.66.64-.24-.04-.44-.33-.59-.45zM127.79 28.1c0 .58-.23.85-.65.86a.54.54 0 0 1-.58-.6c0-.44.22-.7.63-.65.24.03.45.29.6.39zM80.09 94.86c-.14.12-.33.44-.56.47a.6.6 0 0 1-.72-.59.57.57 0 0 1 .62-.67c.42-.02.57.25.66.79zM21.6 103.92a.53.53 0 0 1-.57.48c-.45 0-.61-.29-.64-.66s.27-.6.61-.63.59.24.6.81zM64.17 49.82a4.26 4.26 0 0 1 .68.86c.1.28-.35.66-.69.63a.55.55 0 0 1-.57-.66c.05-.24.31-.44.58-.83zM90.05 123.43c0 .59-.27.84-.67.85a.55.55 0 0 1-.6-.59c0-.4.22-.73.62-.69.25 0 .49.31.65.43zM66.32 117c-.11.51-.27.78-.68.79a.55.55 0 0 1-.63-.6c0-.44.25-.69.64-.64.24.06.45.32.67.45zM44 133.58c-.38.29-.58.55-.82.6s-.75-.13-.69-.52a1 1 0 0 1 .63-.69c.14-.06.44.31.88.61zM115.21 104c.05-.36.18-.69.62-.69a.59.59 0 0 1 .6.66.58.58 0 0 1-.63.63.54.54 0 0 1-.59-.6zM98.91 132.85c0 .55-.19.87-.63.87s-.59-.24-.61-.62a.57.57 0 0 1 .64-.65c.23.01.45.29.6.4zM19.39 104c-.25-.39-.46-.59-.5-.82a.62.62 0 0 1 .65-.71.57.57 0 0 1 .55.73c-.09.21-.36.4-.7.8zM87.22 119.4c-.19-.23-.49-.44-.53-.69-.07-.42.29-.61.68-.63a.55.55 0 0 1 .59.59c.04.4-.23.6-.74.73zM158.47 61.35c-.11.08-.29.35-.54.41s-.69-.29-.65-.64a.62.62 0 0 1 .64-.63c.37-.02.57.22.55.86zM137.77 28.92c-.42 0-.67-.21-.66-.62s.19-.62.58-.61a.66.66 0 0 1 .71.63c.01.42-.29.56-.63.6zM69.84 39.71c0 .37-.31.49-.67.49a.53.53 0 0 1-.59-.63.52.52 0 0 1 .59-.56.62.62 0 0 1 .67.7zM65.76 40.55c-.36-.06-.72-.24-.61-.65a1 1 0 0 1 .66-.57c.36-.06.6.25.57.64a.57.57 0 0 1-.62.58zM80.05 42.68a.55.55 0 0 1-.59.63.56.56 0 0 1-.64-.6.55.55 0 0 1 .59-.64.54.54 0 0 1 .64.61zM103.4 126.23c.52.12.8.29.77.7a.64.64 0 0 1-.72.61c-.37 0-.62-.25-.54-.6s.32-.48.49-.71zM74.94 115.08c.1.17.32.37.36.61s-.37.77-.65.65a1.05 1.05 0 0 1-.59-.62c-.06-.42.34-.55.88-.64zM39.06 115.09c-.4.3-.62.57-.88.62s-.57-.2-.59-.58.34-.77.64-.67.45.33.83.63zM129.38 25c-.14.1-.34.38-.58.41a.55.55 0 0 1-.61-.66.81.81 0 0 1 .52-.56c.41-.1.62.2.67.81zM123.06 118.31c-.11-.15-.41-.38-.42-.63a.58.58 0 0 1 .73-.57.81.81 0 0 1 .5.59c.05.36-.21.6-.81.61zM81.14 37.52c-.17-.24-.46-.45-.5-.71a.53.53 0 0 1 .61-.61c.37 0 .66.25.6.63s-.3.46-.45.68zM61.77 123.44c-.12.5-.27.77-.69.77a.56.56 0 0 1-.61-.62c0-.43.27-.69.66-.63.23.04.43.31.64.48zM79.12 30c0 .43-.11.78-.53.75a.61.61 0 0 1-.59-.65c0-.45.33-.57.72-.58s.42.25.4.48zM61.66 133.19c0 .43-.24.65-.64.62a.53.53 0 0 1-.57-.59.6.6 0 0 1 .62-.64.56.56 0 0 1 .59.61zM100.45 43.62a.58.58 0 0 1 .64-.63.53.53 0 0 1 .61.56c0 .36-.15.66-.56.66a.61.61 0 0 1-.69-.59zM61.92 50.23c.56 0 .83.21.83.61a.59.59 0 0 1-.63.63.54.54 0 0 1-.6-.63c.03-.24.29-.45.4-.61zM21.35 52.09c.24-.17.47-.43.73-.47a.53.53 0 0 1 .63.59c0 .39-.24.68-.62.63s-.49-.31-.74-.48zM49.91 58c-.24.16-.47.41-.73.45s-.57-.22-.56-.58.2-.73.62-.66c.25 0 .45.34.68.53zM26.21 35.62c-.23.16-.49.47-.67.43s-.46-.37-.69-.57c.21-.22.41-.58.64-.6s.48.31.72.49zM29.36 15.23c.56.08.79.27.77.68s-.21.61-.59.58a.57.57 0 0 1-.59-.66c.05-.24.29-.45.41-.6zM69.4 43c-.3-.35-.58-.54-.62-.78s.2-.62.58-.66.77.36.67.65a3.56 3.56 0 0 1-.63.79zM50.84 54.31c0 .58-.24.82-.64.81a.52.52 0 0 1-.54-.62 1 1 0 0 1 .58-.63c.21-.02.45.33.6.44zM96.54 133.81c-.24.16-.49.46-.72.45s-.57-.4-.55-.57a1 1 0 0 1 .59-.64c.2 0 .46.32.69.51zM101.94 125.39c-.25.17-.5.46-.74.45a.84.84 0 0 1-.57-.56.51.51 0 0 1 .58-.62c.26 0 .49.31.73.47zM103.81 122.82c-.42.26-.69.55-.92.53s-.48-.4-.5-.64a.52.52 0 0 1 .64-.58c.24.07.42.36.78.69zM52.44 57c-.24.16-.47.42-.73.46s-.53-.26-.53-.61.19-.67.55-.6.48.31.71.48zM37.75 51.65c-.24.18-.46.46-.71.49s-.46-.33-.5-.55.11-.71.53-.66c.24 0 .45.3.67.47zM42.46 35.23c.38 0 .64.19.64.59a.55.55 0 0 1-.58.59c-.35 0-.62-.11-.63-.52s.11-.64.57-.66zM19.81 97.52c-.13.53-.36.69-.73.67s-.61-.2-.59-.59.28-.65.66-.56.44.32.66.48zM13.28 55.72a2.34 2.34 0 0 1 .71-.41.49.49 0 0 1 .58.57c0 .39-.26.67-.64.6s-.44-.32-.67-.49zM40.6 33.65c-.38.28-.59.53-.84.59s-.57-.23-.58-.58.2-.7.59-.64.45.33.83.63zM127.61 126.18c-.36.29-.56.59-.79.62a.52.52 0 0 1-.59-.62 1 1 0 0 1 .58-.64c.19-.03.44.33.8.64zM78 112.76c.33 0 .51.24.5.6a.56.56 0 0 1-.61.63c-.39 0-.55-.24-.56-.61s.22-.6.67-.62zM63.88 49.19c-.19-.23-.51-.46-.51-.68s.34-.52.58-.58a.51.51 0 0 1 .62.58c0 .24-.28.45-.43.67zM25.26 38.4c-.29-.37-.56-.57-.6-.8a.51.51 0 0 1 .59-.61c.37 0 .68.2.61.6-.04.23-.31.41-.6.81zM27.18 37.92c.21-.16.41-.43.65-.48s.58.22.6.57-.21.65-.56.61-.46-.29-.69-.44zM40.64 132.49c0 .55-.2.82-.62.82a.52.52 0 0 1-.57-.59c0-.37.19-.7.59-.64.24.04.45.3.6.41zM90.42 129.09c-.28-.35-.61-.61-.57-.76a1 1 0 0 1 .59-.65.53.53 0 0 1 .6.62c-.04.24-.33.44-.62.79zM42 39.51c-.11.48-.23.74-.65.73s-.62-.14-.62-.55a.56.56 0 0 1 .67-.62c.23.02.42.29.6.44zM96.63 131.68c.05-.58.25-.89.65-.85a.84.84 0 0 1 .52.56.53.53 0 0 1-.61.65c-.19-.04-.42-.27-.56-.36zM19 12.64c-.36.27-.55.52-.77.56a.53.53 0 0 1-.64-.59c0-.36.22-.65.58-.59s.4.32.83.62zM6.58 129.53c-.21.18-.4.46-.64.51a.47.47 0 0 1-.6-.53c0-.38.19-.68.59-.63.23 0 .43.26.64.4zM42.73 37.23a2.37 2.37 0 0 1 .42.68c.07.38-.21.58-.56.58a.56.56 0 0 1-.62-.56c.03-.43.27-.55.76-.7zM59.21 127.78c-.25-.37-.47-.56-.49-.77s.15-.72.55-.64c.24 0 .59.37.59.57s-.34.45-.65.84zM82.11 41.71c.23-.15.46-.4.7-.42a.49.49 0 0 1 .53.61.83.83 0 0 1-.57.51c-.22 0-.45-.28-.67-.43zM36.05 53.45c-.35.25-.59.55-.75.51a.73.73 0 0 1-.48-.57.82.82 0 0 1 .55-.52c.14-.03.36.29.68.58z" fill="#fff"/></svg>