<svg xmlns="http://www.w3.org/2000/svg" viewBox="0 0 300 30"><g fill="#fff"><path d="M186.29 11.64c3.83 2.23 5.69 6.37 4.62 10.58-.98 3.86-4.48 7.1-8.75 7.12l-8.5.04V.39l7.16.02c2.42 0 4.62 1.33 5.81 3.37 1.43 2.46 1.26 5.37-.34 7.85zm-5.47-1.56c1.4-.06 2.28-1.34 2.3-2.5.01-1.1-.66-2.53-1.93-2.57l-3-.1v5.28l2.63-.11zm4.66 6.65c-1.13-1.33-2.77-2.02-4.47-2.02h-2.83v10.14l3.78-.02c1.98 0 3.58-1.23 4.3-2.82.81-1.78.55-3.7-.79-5.29zM68.12 29.66L52.5 12.12l-.05 17.05h-4.57L47.9.06l15.64 17.6.04-17.1h4.57l-.03 29.1zM87.35 16.97v-4.3h7.13v14.17c-1.6.99-3.11 1.94-4.92 2.43-5.31 1.45-10.86-.49-14.29-4.75-4.93-6.13-4.42-15.08 1.19-20.57C81.09-.58 88.14-1.3 93.59 2.33l-2.52 3.73c-3.55-2.33-8.07-2.07-11.25.87-4.55 4.21-4.64 11.56-.11 15.81 2.82 2.65 6.81 3.26 10.27 1.58V17l-2.65-.04zM18.84 29.35l-5.18.02-6.85-11.83-2.29 3.23v8.6L0 29.36V.4L4.51.39l.03 12.54L13.57.4l5.6.01-9.46 13.11 9.13 15.83zM299.59 14.59h-11.02v10.25l11.42.01.01 4.51-15.95.01V.39H300v4.52l-11.42.01-.02 5.15 11.02.01.01 4.51zM39.24.4h4.52l-.01 18.79c0 5.95-4.94 10.61-10.72 10.55s-10.54-4.8-10.54-10.75V.4h4.49l.03 18.99c0 3.36 3.02 5.93 6.18 5.88s6.03-2.7 6.04-6.07V.4zM149.63.4h4.52l-.01 18.79c0 5.95-4.94 10.61-10.72 10.55s-10.54-4.8-10.54-10.75V.4h4.49l.03 18.99c0 3.36 3.02 5.93 6.18 5.88s6.03-2.7 6.04-6.07V.4zM211.37.4h4.52l-.01 18.79c0 5.95-4.94 10.61-10.72 10.55s-10.54-4.8-10.54-10.75V.4h4.49l.03 18.99c0 3.36 3.02 5.93 6.18 5.88s6.03-2.7 6.04-6.07V.4zM234.02 28.65c-5.69 2.68-12.94.28-15.19-5.6l4.24-1.53c1.57 3.78 7.11 4.87 10.06 2.32.71-.62 1.1-1.58 1.1-2.41 0-2.3-3.36-3.63-5.83-4.41-4.5-1.43-8.93-3.95-8.9-8.85.01-2.51 1.22-4.82 3.4-6.31 5.17-3.52 13.35-1.95 16.02 4.01l-4.01 1.87c-.94-1.74-2.58-2.92-4.64-3.16-3.08-.36-6.09.85-6.22 3.4-.12 2.38 2.87 3.75 5.34 4.6 3.23 1.12 7.54 2.64 8.83 5.77 1.65 4.01-.16 8.41-4.17 10.3zM253.32 29.34l-4.54.04V4.92h-7.83l-.01-4.53h20.22v4.52l-7.84.01v24.42zM124.07 10.08l.01 4.51h-5.51l-.01 14.77h-4.52V.39l15.54.01-.01 4.52h-11.01v5.14l5.51.02zM280.27 24.84l.03 4.52-15.48.01V.4h4.52v24.45l10.93-.01z"/></g></svg>