<svg xmlns="http://www.w3.org/2000/svg" width="220" height="96" viewBox="0 0 220 96"><g fill="#fff"><path d="M51.71 20.12q0 5-.23 7.07A7.93 7.93 0 0 1 50 31a7.83 7.83 0 0 1-3.35 2.64 12 12 0 0 1-4.91.93 12.54 12.54 0 0 1-4.74-.88 7.9 7.9 0 0 1-3.41-2.62A7.79 7.79 0 0 1 32 27.28a67.68 67.68 0 0 1-.25-7.16v-5.68q0-5 .24-7.08a8 8 0 0 1 1.47-3.8A8.11 8.11 0 0 1 36.82.92 12.3 12.3 0 0 1 41.74 0a12.49 12.49 0 0 1 4.78.87 8 8 0 0 1 4.95 6.4q.24 2.06.24 7.17zm-8.62-10.9a10.22 10.22 0 0 0-.26-3 1 1 0 0 0-1-.65 1.21 1.21 0 0 0-1 .52 7.67 7.67 0 0 0-.35 3.09V24.7a15.22 15.22 0 0 0 .23 3.57 1 1 0 0 0 1.1.67 1.06 1.06 0 0 0 1.12-.77 16 16 0 0 0 .25-3.71zM113.31 20.12a70.7 70.7 0 0 1-.24 7.07 7.9 7.9 0 0 1-4.82 6.44 12.13 12.13 0 0 1-4.92.93 12.49 12.49 0 0 1-4.78-.87 8 8 0 0 1-5-6.41 71.46 71.46 0 0 1-.24-7.16v-5.68q0-5 .23-7.08A7.94 7.94 0 0 1 98.42.92a12.22 12.22 0 0 1 4.91-.92 12.54 12.54 0 0 1 4.79.87 7.94 7.94 0 0 1 4.94 6.4 68 68 0 0 1 .25 7.17zm-8.63-10.9a10.35 10.35 0 0 0-.25-3 1 1 0 0 0-1.06-.65 1.19 1.19 0 0 0-1 .52 7.41 7.41 0 0 0-.37 3.13V24.7a15 15 0 0 0 .24 3.57 1 1 0 0 0 1.09.67 1.07 1.07 0 0 0 1.13-.77 16.85 16.85 0 0 0 .24-3.71zM143.13.7v33.16h-7.54V11.47l-3 22.39h-5.34L124.07 12v21.86h-7.54V.7h11.16q.49 3 1 7.05l1.22 8.43 2-15.48zM187.15.7v33.16h-7.56l-4.48-15.08v15.08h-7.21V.7h7.21l4.83 14.93V.7zM82.2 37.9v57.49h-14V56.58l-5.62 38.81h-9.94l-5.89-37.92v37.92h-14V37.9h20.72q.91 5.19 1.9 12.23l2.28 14.62 3.68-26.85zM88.64 37.9h16.15a40.51 40.51 0 0 1 10.07 1 11.57 11.57 0 0 1 5.3 2.77 9.32 9.32 0 0 1 2.4 4.39 36.52 36.52 0 0 1 .63 8v5q0 5.5-1.22 8a8.18 8.18 0 0 1-4.48 3.87 22.53 22.53 0 0 1-8.49 1.31h-4.31v23.15h-16zm16 9.84v14.63h1.18a3.84 3.84 0 0 0 3.07-1c.57-.67.86-2.07.86-4.2v-4.71c0-2-.33-3.24-1-3.83s-1.99-.89-4.08-.89zM143.83 37.9v57.49h-16V37.9zM150.27 37.9h11.35q11.35 0 15.37.82a10.7 10.7 0 0 1 6.56 4.17q2.52 3.36 2.53 10.71 0 6.7-1.79 9t-7 2.77q4.77 1.1 6.4 3a8.71 8.71 0 0 1 2 3.39 49.52 49.52 0 0 1 .4 8.5v15.13h-14.9v-19.1c0-3.08-.26-5-.78-5.72s-1.88-1.1-4.09-1.1v25.92h-16zm16 9.84v12.78a7.51 7.51 0 0 0 3.79-.69c.72-.46 1.08-2 1.08-4.49v-3.16c0-1.82-.34-3-1-3.59a6.3 6.3 0 0 0-3.83-.85zM192.77 26.33H219v13.92h-10.53v13.19h9.81v13.24h-9.81V82H220v13.9h-27.23zM0 26.33h26.19v13.92H15.71v13.19h9.81v13.24h-9.81V82h11.52v13.9H0zM77.89 9.13h8.62v24.73h-8.62zM72.79.7h18.85v6.64H72.79zM53.45.7H72.3v6.64H53.45zM58.55 9.13h8.62v24.73h-8.62zM161.5.7H149l-4.4 33.16h8.55s1.65-20.17 2.43-25.77q.66 8.29 1.31 13.93h-1.75l-.29 5.88h2.47l.46 6h8.61z"/></g></svg>