<svg xmlns="http://www.w3.org/2000/svg" width="250" height="95" viewBox="0 0 250 95"><path d="M24.23,19.23l8.57,2.59a15.9,15.9,0,0,1-2.72,6,11.78,11.78,0,0,1-4.61,3.64,17.22,17.22,0,0,1-7,1.23A20.33,20.33,0,0,1,10,31.21,13.36,13.36,0,0,1,4.4,25.94,17.86,17.86,0,0,1,2,16.28Q2,8.44,6.2,4.22T18,0q6,0,9.39,2.42A14.2,14.2,0,0,1,32.5,9.84l-8.63,1.92a7.57,7.57,0,0,0-.95-2.11,5.64,5.64,0,0,0-2-1.73,5.82,5.82,0,0,0-2.66-.61A5.75,5.75,0,0,0,13.16,10q-1.34,2-1.34,6.23c0,3.5.54,5.9,1.6,7.21a5.48,5.48,0,0,0,4.49,1.95,5.46,5.46,0,0,0,4.24-1.58A9.67,9.67,0,0,0,24.23,19.23Z" fill="#fff"/><path d="M35.88,20.78a11.44,11.44,0,0,1,3.54-8.64Q43,8.74,49,8.74q6.89,0,10.4,4a11.53,11.53,0,0,1,2.83,7.92,11.49,11.49,0,0,1-3.51,8.66q-3.51,3.38-9.7,3.38a13.6,13.6,0,0,1-8.93-2.8A11.29,11.29,0,0,1,35.88,20.78Zm8.81,0a6.9,6.9,0,0,0,1.24,4.53,4.05,4.05,0,0,0,6.23,0c.82-1,1.22-2.51,1.22-4.64a6.75,6.75,0,0,0-1.23-4.43,3.83,3.83,0,0,0-3-1.46,4,4,0,0,0-3.17,1.48A6.79,6.79,0,0,0,44.69,20.76Z" fill="#fff"/><path d="M90.58,32.17h-8.2V28.46a12,12,0,0,1-3.7,3.26,9.79,9.79,0,0,1-4.58,1,7.47,7.47,0,0,1-5.69-2.17q-2.05-2.16-2.06-6.68V9.26h8.83v12.6a4.57,4.57,0,0,0,.8,3.06,2.81,2.81,0,0,0,2.24.91,3.19,3.19,0,0,0,2.58-1.21c.67-.81,1-2.25,1-4.34v-11h8.78Z" fill="#fff"/><path d="M111.86,9.26h8.22V30.9l0,1a9.42,9.42,0,0,1-.92,4.11,8.66,8.66,0,0,1-2.43,3.17,9.73,9.73,0,0,1-3.87,1.74,23.92,23.92,0,0,1-5.36.54q-6.9,0-9.48-2.07a6.74,6.74,0,0,1-2.58-5.54c0-.29,0-.68,0-1.17l8.53,1a2.72,2.72,0,0,0,1,1.64,4.18,4.18,0,0,0,2.44.67,3.69,3.69,0,0,0,2.83-1,5.2,5.2,0,0,0,.94-3.54V27.94a9.06,9.06,0,0,1-2.59,2.23,9.16,9.16,0,0,1-4.38,1.07,8.68,8.68,0,0,1-7.42-4,12.81,12.81,0,0,1-2-7.53c0-3.57.87-6.29,2.59-8.16a8.8,8.8,0,0,1,6.78-2.8,9.43,9.43,0,0,1,4.41.91,9.6,9.6,0,0,1,3.25,3Zm-8.27,11.11a5.48,5.48,0,0,0,1.06,3.68,3.75,3.75,0,0,0,5.54,0,5.49,5.49,0,0,0,1.11-3.75,5.62,5.62,0,0,0-1.17-3.83,3.65,3.65,0,0,0-2.85-1.33,3.3,3.3,0,0,0-2.68,1.22A6.43,6.43,0,0,0,103.59,20.37Z" fill="#fff"/><path d="M133.39,16.68,125,15.79a9.46,9.46,0,0,1,1.37-3.46A7.64,7.64,0,0,1,129,10.14a10.77,10.77,0,0,1,3.32-1,26.31,26.31,0,0,1,4.58-.37,36.88,36.88,0,0,1,6.34.44,8.12,8.12,0,0,1,4,1.85A6.37,6.37,0,0,1,149,13.78a10,10,0,0,1,.65,3.4V27.3a12.75,12.75,0,0,0,.2,2.53,11.7,11.7,0,0,0,.9,2.34h-8.24a8.47,8.47,0,0,1-.65-1.35,10,10,0,0,1-.3-1.45,11.29,11.29,0,0,1-3.43,2.37,14.37,14.37,0,0,1-5.42.95q-4.09,0-6.23-1.9a6,6,0,0,1-2.12-4.68,6.13,6.13,0,0,1,1.53-4.29c1-1.13,2.91-2,5.65-2.51q4.95-1,6.41-1.39A28.52,28.52,0,0,0,141,16.87a3.05,3.05,0,0,0-.67-2.26A3.35,3.35,0,0,0,138,14a6.1,6.1,0,0,0-3.24.69A3.83,3.83,0,0,0,133.39,16.68ZM141,21.3q-1.81.64-3.78,1.14a8.77,8.77,0,0,0-3.38,1.4,2.22,2.22,0,0,0-.74,1.62,2.18,2.18,0,0,0,.73,1.7,3.09,3.09,0,0,0,2.12.65,5.4,5.4,0,0,0,2.73-.71,4.24,4.24,0,0,0,1.79-1.74A5.82,5.82,0,0,0,141,22.7Z" fill="#fff"/><path d="M155,9.26h8.22V13a9,9,0,0,1,2.45-3.35,5.1,5.1,0,0,1,3.12-.92A9.24,9.24,0,0,1,173,10l-2.72,6.25a6.94,6.94,0,0,0-2.46-.64A3,3,0,0,0,165.13,17q-1.35,2-1.35,7.51v7.68H155Z" fill="#fff"/><path d="M187.27.54V9.26h4.84v6.43h-4.84v8.12a4.43,4.43,0,0,0,.28,1.93,1.61,1.61,0,0,0,1.51.74,9.72,9.72,0,0,0,2.72-.56l.65,6.06a28.86,28.86,0,0,1-6.08.71,10.63,10.63,0,0,1-4.84-.84,5.17,5.17,0,0,1-2.3-2.55,15.22,15.22,0,0,1-.74-5.55V15.69h-3.24V9.26h3.24V5.05Z" fill="#fff"/><path d="M195.21,20.78a11.44,11.44,0,0,1,3.54-8.64q3.54-3.41,9.56-3.4,6.88,0,10.4,4a11.53,11.53,0,0,1,2.83,7.92A11.49,11.49,0,0,1,218,29.31q-3.51,3.38-9.7,3.38a13.6,13.6,0,0,1-8.93-2.8A11.29,11.29,0,0,1,195.21,20.78Zm8.81,0a6.9,6.9,0,0,0,1.24,4.53,4.05,4.05,0,0,0,6.23,0c.82-1,1.22-2.51,1.22-4.64a6.75,6.75,0,0,0-1.23-4.43,3.83,3.83,0,0,0-3-1.46,4,4,0,0,0-3.17,1.48A6.79,6.79,0,0,0,204,20.76Z" fill="#fff"/><path d="M225.77,9.26H234V13a12.3,12.3,0,0,1,3.71-3.27,9.8,9.8,0,0,1,4.57-1,7.48,7.48,0,0,1,5.71,2.17c1.37,1.44,2.06,3.68,2.06,6.7V32.17h-8.83V19.57a4.58,4.58,0,0,0-.79-3.05,2.86,2.86,0,0,0-2.25-.9,3.21,3.21,0,0,0-2.59,1.21c-.66.81-1,2.25-1,4.34v11h-8.78Z" fill="#fff"/><path d="M22.62,80H11.52L10,85.2H0L11.89,53.57H22.55L34.44,85.2H24.2Zm-2-6.84L17.1,61.77,13.65,73.14Z" fill="#fff"/><path d="M37,53.57h8.86v11a8.75,8.75,0,0,1,3-2.07,9.64,9.64,0,0,1,3.7-.69,9,9,0,0,1,6.93,3q2.74,3,2.74,8.64A16.41,16.41,0,0,1,61,80a9.42,9.42,0,0,1-3.46,4.28,9,9,0,0,1-4.91,1.41,9.09,9.09,0,0,1-4.23-1,10.94,10.94,0,0,1-3.15-2.92V85.2H37Zm8.8,20.11A6.63,6.63,0,0,0,46.92,78a3.5,3.5,0,0,0,2.82,1.33A3.28,3.28,0,0,0,52.38,78a7,7,0,0,0,1.07-4.39,6.22,6.22,0,0,0-1.05-4,3.17,3.17,0,0,0-2.53-1.27,3.66,3.66,0,0,0-2.93,1.33A6.08,6.08,0,0,0,45.81,73.68Z" fill="#fff"/><path d="M66.91,53.57h8.87v11a8.66,8.66,0,0,1,3-2.07,9.6,9.6,0,0,1,3.7-.69,9,9,0,0,1,6.93,3c1.82,2,2.74,4.89,2.74,8.64A16.41,16.41,0,0,1,90.89,80a9.37,9.37,0,0,1-3.47,4.28,8.93,8.93,0,0,1-4.91,1.41,9.09,9.09,0,0,1-4.23-1,11.2,11.2,0,0,1-3.15-2.92V85.2H66.91Zm8.81,20.11A6.63,6.63,0,0,0,76.83,78a3.5,3.5,0,0,0,2.81,1.33A3.32,3.32,0,0,0,82.29,78c.71-.87,1.06-2.33,1.06-4.39a6.23,6.23,0,0,0-1-4,3.17,3.17,0,0,0-2.54-1.27,3.64,3.64,0,0,0-2.92,1.33A6,6,0,0,0,75.72,73.68Z" fill="#fff"/><path d="M121.78,75.92h-17.6a5.73,5.73,0,0,0,1.14,3.15,4.15,4.15,0,0,0,3.32,1.49,5,5,0,0,0,2.46-.64,5.92,5.92,0,0,0,1.54-1.45l8.65.8a12.44,12.44,0,0,1-4.79,5q-2.81,1.5-8,1.5a16.53,16.53,0,0,1-7.16-1.28A10.56,10.56,0,0,1,97,80.36a12.33,12.33,0,0,1-1.72-6.57,11.55,11.55,0,0,1,3.45-8.7q3.44-3.31,9.5-3.32A16.83,16.83,0,0,1,116,63.26a10.09,10.09,0,0,1,4.34,4.31,15.84,15.84,0,0,1,1.48,7.36Zm-8.93-4.2a5.86,5.86,0,0,0-1.37-3.65,4.3,4.3,0,0,0-6.27.56,6.08,6.08,0,0,0-1,3.09Z" fill="#fff"/><path d="M123.3,62.29h9.26l4.73,15.25,4.39-15.25h8.65l-9.09,24.48q-1.55,4.19-3.17,5.66c-1.52,1.38-3.85,2.07-7,2.07a49.31,49.31,0,0,1-5.86-.52l-.69-6.12a13.92,13.92,0,0,0,4.22.6,4.13,4.13,0,0,0,2.51-.71,5.41,5.41,0,0,0,1.63-2.55Z" fill="#fff"/></svg>