<svg xmlns="http://www.w3.org/2000/svg" viewBox="0 0 250 124"><path d="M47.12 101.16c-.08-.24-.19-.47-.29-.7-1.11-.39-2.98-.02-3.96-.04-.92-.01-2.26-.04-3.24-.12-.06 1.19-.28 2.38-.51 3.55v.29c.1.12.18.28.18.48v.22c.08.23.16.45.25.68.25.65.47 1.27.53 1.97.1 1.18.1 2.37.09 3.55.09.19.17.38.27.55 0 0 0-.01.02-.02.21-.3.35-.64.48-.98-.03-.83-.08-1.67-.13-2.5-.07-1.04-.12-2.1.1-3.13.21-1.01.79-1.75 1.73-2.16.72-.31 1.54-.52 2.35-.54.02 0 .04-.01.06-.02.67-.18 1.35-.37 2-.59.1-.03.23-.14.19-.04.04-.1-.08-.38-.11-.46zM45.12 123.22c0-.07-.01-.14-.02-.21v-.04-.02c-.01-.06-.02-.13-.04-.19 0-.03-.02-.06-.03-.08 0-.01-.01-.02-.02-.02-.04-.02-.09-.05-.13-.07.15.09-.02 0-.06-.02-.23-.08-.47-.14-.7-.23-.7-.28-2.18-1.21-2.34-1.76 0-.01-.34-.45-.41-.57a.799.799 0 0 1-.09-.36c-.17-.59-.17-1.25-.15-1.91.03-.98-.04-1.92.03-2.86h-.2c-.44-.02-.88-.07-1.32-.12.01 1.46.09 2.92.06 4.37-.02.75-.3 1.28-.74 1.68-.5.59-1.12 1.1-1.74 1.52-.31.2-.65.36-.96.56-.01 0-.01 0-.02.01l-.02.02v.01c0 .02-.01.04-.02.05v.04c-.02.24-.03.52-.07.79h5.26c1.23 0 2.46.04 3.68-.12.04 0 .08-.01.12-.02-.01-.14-.03-.29-.04-.43z" fill="#fff" opacity=".95"/><path d="M9.28 98.57c.11.14.52.35.75.61.6.71 1.4 2.56 1.82 3.48.33.74.79 2.51 1.12 3 .12.18 1.76 1.4 1.92 1.37l.51-.61c-.44-1.07.03-2.3.01-3.3-.02-1.1-.28-2.47-.29-3.57-.01-1.16.6-2.73-.14-3.59-.33-.38-.99-.67-1.47-.83-.87-.29-2.22-.1-2.26-1.19-.02-.69.48-.85 1.07-.92 1.37-.14 7.18-.03 8.1.8.13.12.19.29.29.42l-3.31 1.31.07 2.35c.27.75 1.07 11.89 1.38 12.52l-1.19 6.56c-2.1 2.27-4.18-2.2-4.88-3.81-1.6-3.69-2.78-7.69-4.54-11.36-.23-.47-1.13-2.62-1.67-2.48-.6.15.12 1.12.17 1.39.35 1.66-.67 1.89-.8 2.72-.06.39.33 1.21.35 1.71s-.23 1.09-.22 1.54c.03 1.31.59 3.71.4 4.04-.12.57.59 1.01.58 1.41-.01.32-.51.55-.43 1.14.11.75 2.8 1.58 3.23 2.09.26.31.31 1.1.19 1.47-.31 1.02-2.77.42-3.49.41-1.63-.01-3.3.41-5.03.26-1.31-.11-1.72-.56-1.49-1.93s3.26-1.4 3.42-1.89l.45-6.56c-.65-1.47.19-2.95.15-4.29-.02-.6-.54-1.26-.58-1.74-.03-.32.15-.64.15-.98.01-1.36.3-3.5-.96-4.35-.98-.66-1.99-.04-2.28-1.45-.14-.66-.03-.86.58-1.16 2.9-1.42 6.09-.44 7.37 2.55.26.6.68 2.54.94 2.86zM122.86 53.78c.11.14.52.35.75.61.6.71 1.4 2.56 1.82 3.48.33.74.79 2.51 1.12 3 .12.18 1.76 1.4 1.92 1.37l.51-.61c-.44-1.07.03-2.3.01-3.3-.02-1.1-.28-2.47-.29-3.57-.01-1.16.6-2.73-.14-3.59-.33-.38-.99-.67-1.47-.83-.87-.29-2.22-.1-2.26-1.19-.02-.69.48-.85 1.07-.92 1.37-.14 7.18-.03 8.1.8.13.12.19.29.29.42l-3.31 1.31.07 2.35c.27.75 1.07 11.89 1.38 12.52l-1.19 6.56c-2.1 2.27-4.18-2.2-4.88-3.81-1.6-3.69-2.78-7.69-4.54-11.36-.23-.47-1.13-2.62-1.67-2.48-.6.15.12 1.12.17 1.39.35 1.66-.67 1.89-.8 2.72-.06.39.33 1.21.35 1.71s-.23 1.09-.22 1.54c.03 1.31.59 3.71.4 4.04-.12.57.59 1.01.58 1.41-.01.32-.51.55-.43 1.14.11.75 2.8 1.58 3.23 2.09.26.31.31 1.1.19 1.47-.31 1.02-2.77.42-3.49.41-1.63-.01-3.3.41-5.03.26-1.31-.11-1.72-.56-1.49-1.93s3.26-1.4 3.42-1.89l.45-6.56c-.65-1.47.19-2.95.15-4.29-.02-.6-.54-1.26-.58-1.74-.03-.32.15-.64.15-.98.01-1.36.3-3.5-.96-4.35-.98-.66-1.99-.04-2.28-1.45-.14-.66-.03-.86.58-1.16 2.9-1.42 6.09-.44 7.37 2.55.26.6.68 2.54.94 2.86zM92 113.94c-.3-.96.28-1.74.2-2.34-.05-.34-.48-.84-.52-1.36-.03-.39.14-.7.12-1.1-.03-.67-.7-2.06-.59-2.55.85-.82 1.83-.97 2.86-.94v-2.93c-.37-.04-.71-.1-.99-.16-2.73-.61-1.68-1.7-1.7-3.73 0-.44-.45-2.04-.37-2.23 1.19-.98 3.13-1.07 3.95-2.5-1.31-2.03-4.24-1.22-6.26-1.21-1.1 0-1.71-.49-2.74.47-1.99 1.85 1.58 2.05 2.28 2.67 1.37 1.21.59 3.88.53 5.36-.07 1.87.16 3.76.15 5.59 0 .63-.42 1.69-.43 2.43-.01.73.21 1.58.21 2.38.08.07.16.12.28.19.28.17.51.26.83.34.38.09.85.07 1.13.38.24.27.14.63-.1.87-.22.22-.54.31-.85.3-.24 0-.48-.06-.71-.13-.05.12-.11.24-.17.35-.14.25-.2.4-.21.68 0 .35.05.69.09 1.03.04.36.04.71 0 1.07-.02.17-.23.29-.39.29-.18 0-.33-.13-.39-.29-.12-.38-.28-.73-.41-1.11-.1-.3-.14-.6-.19-.9-.04-.28-.09-.57-.2-.84 0 0 0-.02-.01-.03-.01-.03-.03-.06-.04-.09-.72.36-1.56.59-2.05 1.22-.9 1.15.3 2.14 1.46 2.27.46.05.77-.19 1.16-.16.49.04 4.72.17 5.88-.07.59-.13 1.13-.32 1.69-.54-.05-1.63-3.2-1.68-3.52-2.71z" fill="#fff"/><path d="M106.83 115.41c-.62-.52-3.11-1.36-3.38-2.3.12-1.33.35-2.64.27-3.98-.04-.64-.32-1.42-.29-1.98.05-1.01.82-2.43.7-3.44-.04-.35-.29-.66-.29-1.02 0-.49.48-.86.44-1.28-.04-.44-.49-.35-.69-.54-.51-.49-.87-3.98-.72-4.73.28-1.4 2.25-.64 3.13-1.6 1.16-1.28-1.8-1.88-2.66-1.93-1.01-.06-1.83.3-2.73.3-1.06 0-1.29-.55-2.47-.04-.69.3-1.19.81-.98 1.6.28.58 2.94 1.03 3.61 1.28-.06 1.38.26 4.75-.66 5.81-.95 1.09-3.34 1.34-5.25 1.23v2.9c.53.04 1.07.09 1.6.09.38 0 .73-.16 1.14-.16.7 0 2.17.3 2.48.98.48 1.03.5 6.78-.12 7.69-.3.43-1.74.39-2.29 1.01-.53.6-.54 1.29.21 1.66 1.34.66 6.36.7 7.89.41.23-.04 1.6-.5 1.64-.58.18-.29-.37-1.17-.6-1.37zM161.66 115.15c-.12-.66-1.09-.92-1.44-1.29-.76-.8-1.1-4.94-1.15-6.15-.14-3.14-.24-7.65 0-10.74.02-.26.14-1.21.21-1.36.26-.54 2.35-1.28 1.43-2.57-.42-.59-3.37-.51-4.16-.43-3.25.33-3.37 4.97-4.14 7.47-.19.63-1 3.39-1.75 3.41-.24-.67-.54-1.34-.83-2-.28.29-.65.56-1.01.37-.34-.18-.34-.63-.36-.96-.01-.27.01-.61-.09-.86-.09-.23-.3-.39-.4-.62-.13-.26-.19-.55-.23-.84-.12-.11-.23-.25-.3-.42-.18-.43-.44-.65-.85-.87-.45-.25-.87-.53-1.05-1.04-.17-.47-.1-.91-.56-1.23-.29-.21-.65-.3-.93-.53-.33-.28-.54-.7-.59-1.13-.01-.11-.02-.22-.02-.34-.32-.04-.7-.36-1.12-.35-.42.01-2.14.75-2.21 1.17.68 1.29 1.8.87 2.28 2.42.63 2.04-.1 3.9 0 5.86.03.49.42 1.03.42 1.44 0 .33-.3.79-.33 1.19-.06.89.2 2.35.21 3.24.01 1.65-.62 3.7-.57 5.41-.46.41-1.43 1.11-1.69 1.64-.43.87-.01 2.44 1.05 2.61 1.16.18 7.91-.28 8.84-1.01 1.57-1.22-4.47-2.12-4.48-4.22 0-1.51-.48-3.01-.56-4.42-.05-.81.16-1.51.15-2.29-.03-1.38-.71-3.27-.72-4.44 0-.35.56-3.82.72-3.94 1.5.53 1.2 1.95 1.47 3.04.31 1.25.7 3.69 1.03 4.97.36 1.38-.05 9.2.57 10.33 1.33 2.43 4.26.28 4.22-1.64 0-.33.57-4 .53-6.79 0-.32.6-2.01.62-2.29.02-.21-.22-.45-.26-.7-.27-1.91 2.67-5.35 1.76-7.59l.89-.49c1.1 2.39.63 5.21.64 7.81 0 2.31-.02 4.65 0 7.02 0 .96.36 1.84-.36 2.78-.37.49-2.01.95-1.91 1.61.03.22.36.74.56.89.7.52 3.6.72 4.53.65 1.13-.08 2.19-.38 1.93-1.79z" fill="#fff"/><path d="M161.19 88.65c-.2.64-.11 1.35.7 1.22.26.03-.15.08.1.16.1.03.2.05.3.08.02 0 .1-.01.09 0 1.3-1.34-.42-2.51-1.19-1.45z" fill="#fff" opacity=".95"/><path d="M150.14 92.71c-.34-.17-.75-.18-.74.29-.04.14-.17.26-.17.25.64.84 1.44-.03.91-.54z" fill="#fff"/><path d="M164.45 104.16c-.07-.47-.66-.66-.87-.93-.46-.58-.66-3.57-.7-4.45l-.03-.86c-.05-.24-.1-.48-.17-.71-.09-.31-.13-.47-.27-.75-.03-.06-.06-.11-.09-.17-.01-.01-.02-.03-.03-.04-.02-.02-.04-.04-.05-.06 0 0-.03-.02-.04-.03h-.01c-.02.01-.04.03-.06.04.08-.06-.01.02-.04.05 0 0-.01.02-.02.03 0 0-.02.03-.03.04-.02.05-.05.09-.07.14-.02.05-.05.1-.07.16-.01.03-.02.05-.03.08v.01c-.12.38-.2.78-.27 1.19v3.28c0 .69.21 1.33-.21 2.01-.22.35-1.22.69-1.16 1.17.02.16.22.54.34.64.42.38 2.18.52 2.74.47.69-.06 1.33-.28 1.17-1.29z" fill="#fff" opacity=".95"/><path d="M119.64 26.92c-.12-.66-1.09-.92-1.44-1.29-.76-.8-1.1-4.94-1.15-6.15-.14-3.14-.24-7.65 0-10.74.02-.26.14-1.21.21-1.36.26-.54 2.35-1.28 1.43-2.57-.42-.59-3.37-.51-4.16-.43-3.25.33-3.37 4.97-4.14 7.47-.19.63-1 3.39-1.75 3.41-.24-.67-.54-1.34-.83-2-.28.29-.65.56-1.01.37-.34-.18-.34-.63-.36-.96-.01-.27.01-.61-.09-.86-.09-.23-.3-.39-.4-.62-.13-.26-.19-.55-.23-.84-.12-.11-.23-.25-.3-.42-.18-.43-.44-.65-.85-.87-.45-.25-.87-.53-1.05-1.04-.17-.47-.1-.91-.56-1.23-.29-.21-.65-.3-.93-.53-.33-.28-.54-.7-.59-1.13-.01-.11-.02-.22-.02-.34-.32-.04-.7-.36-1.12-.35-.42.01-2.14.75-2.21 1.17.68 1.29 1.8.87 2.28 2.42.63 2.04-.1 3.9 0 5.86.03.49.42 1.03.42 1.44 0 .33-.3.79-.33 1.19-.06.89.2 2.35.21 3.24.01 1.65-.62 3.7-.57 5.41-.46.41-1.43 1.11-1.69 1.64-.43.87-.01 2.44 1.05 2.61 1.16.18 7.91-.28 8.84-1.01 1.57-1.22-4.47-2.12-4.48-4.22 0-1.51-.48-3.01-.56-4.42-.05-.81.16-1.51.15-2.29-.03-1.38-.71-3.27-.72-4.44 0-.35.56-3.82.72-3.94 1.5.53 1.2 1.95 1.47 3.04.31 1.25.7 3.69 1.03 4.97.36 1.38-.05 9.2.57 10.33 1.33 2.43 4.26.28 4.22-1.64 0-.33.57-4 .53-6.79 0-.32.6-2.01.62-2.29.02-.21-.22-.45-.26-.7-.27-1.91 2.67-5.35 1.76-7.59l.89-.49c1.1 2.39.63 5.21.64 7.81 0 2.31-.02 4.65 0 7.02 0 .96.36 1.84-.36 2.78-.37.49-2.01.95-1.91 1.61.03.22.36.74.56.89.7.52 3.6.72 4.53.65 1.13-.08 2.19-.38 1.93-1.79z" fill="#fff"/><path d="M119.16.41c-.2.64-.11 1.35.7 1.22.26.03-.15.08.1.16.1.03.2.05.3.08.02 0 .1-.01.09 0 1.3-1.34-.42-2.51-1.19-1.45z" fill="#fff" opacity=".95"/><path d="M108.12 4.47c-.34-.17-.75-.18-.74.29-.04.14-.17.26-.17.25.64.84 1.44-.03.91-.54z" fill="#fff"/><path d="M122.42 15.92c-.07-.47-.66-.66-.87-.93-.46-.58-.66-3.57-.7-4.45l-.03-.86c-.05-.24-.1-.48-.17-.71-.09-.31-.13-.47-.27-.75-.03-.06-.06-.11-.09-.17-.01-.01-.02-.03-.03-.04-.02-.02-.04-.04-.05-.06 0 0-.03-.02-.04-.03h-.01c-.02.01-.04.03-.06.04.08-.06-.01.02-.04.05 0 0-.01.02-.02.03 0 0-.02.03-.03.04-.02.05-.05.09-.07.14-.02.05-.05.1-.07.16-.01.03-.02.05-.03.08v.01c-.12.38-.2.78-.27 1.19v3.28c0 .69.21 1.33-.21 2.01-.22.35-1.22.69-1.16 1.17.02.16.22.54.34.64.42.38 2.18.52 2.74.47.69-.06 1.33-.28 1.17-1.29z" fill="#fff" opacity=".95"/><path d="M217.08 114.28c-1.27-.82-3.15-7.54-3.73-9.21 3.28-1.81 3.99-6.55 2.26-9.66-.2-.37-.78-1.1-1.13-1.31-.31-.19-.64-.17-.85-.3-.4-.26-.35-.63-1.22-.93-.65-.22-3.85.59-3.93 1.06-.04.23-.08.46-.13.7.39-.07.73-.12.93-.14.67-.07 1.12 0 1.53.2.28-.11.57-.19.88-.15.7.07 1.37.54 1.94.92.26.18.52.35.71.61.21.28.35.63.41.97.2 1.16-.31 2.57-1.37 3.09-.16.56-.45 1.07-.98 1.48-1.1.84-3.87 1.54-5.68 1.37-.06.37-.11.74-.28 1.09-.4.84-1.66 1.27-2.16.3-.09-.17-.16-.33-.25-.5-.15-.27-.12-.49-.07-.78.03-.19.06-.16-.11-.26-.09-.06-.2-.1-.29-.17-.23-.18-.3-.45-.35-.73-.21-1.16.74-2.13.55-3.28-.09-.55.1-.96.49-1.34.04-.54.12-1 .25-1.27.06-.13.21-.25.4-.37-.46-.56-.79-1.24-1.14-1.84-.28-.48-.64-1.13-1.14-1.48-.84.02-1.55.06-2.01.1-.24.02-.59.09-.94.2.06.04.13.08.18.14.26.3.31.68.36 1.06.02.17.03.33.05.5 0 .05 0 .07.03.14 0 .02 0 .03.01.05h.09c.21-.02.42-.11.63-.13.36-.04.68.11.86.42.19.33.23.78.23 1.15 0 .21-.03.42-.09.62.71 2.49-.06 7.86-.06 10.55 0 1.43-.23 2.44-.25 3.72 0 .48.31 1.94.23 2.26-.02.1-.73.98-.84 1.03-.79.36-2.48-.47-2.72 1.01-.22 1.36.38 2.34 1.79 2.5 1.33.15 4.7.15 6.03 0 .86-.1 2.53-.96 2.01-2.01-.11-.22-1.4-1.01-1.72-1.29-.9-.79-1.85-1.77-1.65-3.07.04-.27.26-.48.27-.73.07-1-.6-2.68-.26-3.83.32-1.06 3.39-1.05 4.28-.74 1.38.49 2.49 2.73 2.95 4.08.61 1.81.24 2.28.27 3.96.03 1.86.82 3 2.75 3.2 1.21.12 4.66.37 4.67-1.36 0-1.55-2.07-1.16-2.73-1.58zM55.22 71.63c-1.27-.82-3.15-7.54-3.73-9.21 3.28-1.81 3.99-6.55 2.26-9.66-.2-.37-.78-1.1-1.13-1.31-.31-.19-.64-.17-.85-.3-.4-.26-.35-.63-1.22-.93-.65-.22-3.85.59-3.93 1.06-.04.23-.08.46-.13.7.39-.07.73-.12.93-.14.67-.07 1.12 0 1.53.2.28-.11.57-.19.88-.15.7.07 1.37.54 1.94.92.26.18.52.35.71.61.21.28.35.63.41.97.2 1.16-.31 2.57-1.37 3.09-.16.56-.45 1.07-.98 1.48-1.1.84-3.87 1.54-5.68 1.37-.06.37-.11.74-.28 1.09-.4.84-1.66 1.27-2.16.3-.09-.17-.16-.33-.25-.5-.15-.27-.12-.49-.07-.78.03-.19.06-.16-.11-.26-.09-.06-.2-.1-.29-.17-.23-.18-.3-.45-.35-.73-.21-1.16.74-2.13.55-3.28-.09-.55.1-.96.49-1.34.04-.54.12-1 .25-1.27.06-.13.21-.25.4-.37-.46-.56-.79-1.24-1.14-1.84-.28-.48-.64-1.13-1.14-1.48-.84.02-1.55.06-2.01.1-.24.02-.59.09-.94.2.06.04.13.08.18.14.26.3.31.68.36 1.06.02.17.03.33.05.5 0 .05 0 .07.03.14 0 .02 0 .03.01.05h.09c.21-.02.42-.11.63-.13.36-.04.68.11.86.42.19.33.23.78.23 1.15 0 .21-.03.42-.09.62.71 2.49-.06 7.86-.06 10.55 0 1.43-.23 2.44-.25 3.72 0 .48.31 1.94.23 2.26-.02.1-.73.98-.84 1.03-.79.36-2.48-.47-2.72 1.01-.22 1.36.38 2.34 1.79 2.5 1.33.15 4.7.15 6.03 0 .86-.1 2.53-.96 2.01-2.01-.11-.22-1.4-1.01-1.72-1.29-.9-.79-1.85-1.77-1.65-3.07.04-.27.26-.48.27-.73.07-1-.6-2.68-.26-3.83.32-1.06 3.39-1.05 4.28-.74 1.38.49 2.49 2.73 2.95 4.08.61 1.81.24 2.28.27 3.96.03 1.86.82 3 2.75 3.2 1.21.12 4.66.37 4.67-1.36 0-1.55-2.07-1.16-2.73-1.58zM246.03 111.17c-.18-1.25-1.58-1.76-2.29-.88-.31.39-.87 2.75-1.22 3.51-.22.49-.65 1.16-.93 1.65-2.34 1.5-5.52 1.32-8.18 1.06-.09-.09.04-2.22 0-2.64-.06-.53-.11-.96-.15-1.37-.76.08-1.53.15-2.29.23 0 .85.11 1.94-.06 2.65-.36 1.52-2.06 1.06-3.27 1.32-1.22.26-1.98.74-1.66 2.15.29 1.29 3.48.43 4.49.42 4.21-.07 8.61.84 12.91.1.76-.13 1.2-.29 1.64-.94.89-1.31 1.24-5.7 1.02-7.26z" fill="#fff"/><path d="M245.72 98.59c-.26-1.34-.74-2.73-1.93-3.52-.72.06-1.44-.14-2.12-.18-2.62-.13-6.37-.33-8.91-.14-1.37.1-1.93.3-3.43.29-.71 0-4.84.02-3.17 1.58 1.39 1.3 4.07-.02 5.13 1.76.56.94.37 1.56.14 2.25.1.74.29 1.47.41 2.21.19 1.19.02 2.29-.57 3.3-.02.88-.27 1.71-.3 2.57-.04 1.04.01 2.13 0 3.22.74-.08 1.48-.15 2.22-.23-.04-.5-.06-1.02-.06-1.7 0-.28-.17-.59-.12-.82.02-.1.58-.92.69-1.03.67-.72.75-.27 1.51-.35.5-.05.93-.46 1.5-.28.16.31-.04.77.03 1.03.08.27.52.48.68.77.36.66.52 3.11 1.74 2.56.67-.3.82-1.49.87-2.14.13-1.87.16-5.03 0-6.88-.23-2.7-2.66-.84-2.73.3-.02.41.46.85.27 1.33-.13.02-.26.05-.38.09-.42.63-1.05 1.14-1.84 1.07-.79-.07-1.46-.6-1.95-1.19a.418.418 0 0 1-.09-.41c-.2-.53-.32-1.14-.32-1.48 0-.58.38-1.22.37-1.71-.02-.94-.88-.96-.29-2.5.43-1.12 1.66-1.23 2.86-1.15.43-.52.91-.97 1.61-1.17.58-.17 1.19-.13 1.69.23.4.29.73.67 1.08 1.03.55.03 1.07.15 1.55.46.38.25 1.13.92 1.25 1.35.09.34-.09.59-.03.86.07.28.48.53.55.91.13.74-.42 1.76.34 2.59.4.44 1.5.48 1.89.04.5-.58.07-4-.11-4.9z" fill="#fff"/><path d="M249.95 111.11c-.13-.93-.51-.63-1.04.04-.23.29-.65 2.05-.91 2.62-.16.36-.49.87-.69 1.23-1.75 1.12-4.79.29-6.78.1-.07-.07.03-1.66 0-1.97-.04-.39-.67-3.63-.7-3.94-.57.06-.27.9-.84.96 0 .63-.2 4.3-.32 4.83-.27 1.14-1.54.79-2.44.98-.91.19-1.48-.16-1.24.89.22.96 2.6.32 3.35.31 3.14-.05 6.43.63 9.64.07.57-.1.9-.22 1.23-.7.66-.98.93-4.25.76-5.42z" fill="#fff" opacity=".95"/><path d="M243.42 105.12c-.02.31.34.64.2 1-.1.01-.19.04-.29.07-.31.47-.78.85-1.38.8-.59-.05-1.09-.45-1.45-.89-.07-.09-.1-.2-.07-.31-.15-.4-.24-.85-.24-1.11 0-.43.28-.91.27-1.28-.01-.57-.44-.7-.35-1.35a3.649 3.649 0 0 0-.95.08c.09.41-.01.75-.13 1.11.08.55.22 1.1.31 1.65.14.89.02 1.71-.43 2.46-.01.66-.2 1.28-.23 1.92-.03.78 0 1.59 0 2.4.55-.06 1.1-.11 1.65-.17-.03-.37-.04-.76-.04-1.27 0-.21-.13-.44-.09-.61.01-.07.43-.68.52-.77.5-.54.56-.2 1.13-.26.37-.04.7-.34 1.12-.21.12.23 2.15-.14 2.18-.63.1-1.39.41-1.47.29-2.85-.17-2.02-1.99-.63-2.04.23z" fill="#fff" opacity=".95"/><path d="M214.52 66.41c-.18-1.25-1.58-1.76-2.29-.88-.31.39-.87 2.75-1.22 3.51-.22.49-.65 1.16-.93 1.65-2.34 1.5-5.52 1.32-8.18 1.06-.09-.09.04-2.22 0-2.64-.06-.53-.11-.96-.15-1.37-.76.08-1.53.15-2.29.23 0 .85.11 1.94-.06 2.65-.36 1.52-2.06 1.06-3.27 1.32-1.22.26-1.98.74-1.66 2.15.29 1.29 3.48.43 4.49.42 4.21-.07 8.61.84 12.91.1.76-.13 1.2-.29 1.64-.94.89-1.31 1.24-5.7 1.02-7.26z" fill="#fff"/><path d="M214.2 53.83c-.26-1.34-.74-2.73-1.93-3.52-.72.06-1.44-.14-2.12-.18-2.62-.13-6.37-.33-8.91-.14-1.37.1-1.93.3-3.43.29-.71 0-4.84.02-3.17 1.58 1.39 1.3 4.07-.02 5.13 1.76.56.94.37 1.56.14 2.25.1.74.29 1.47.41 2.21.19 1.19.02 2.29-.57 3.3-.02.88-.27 1.71-.3 2.57-.04 1.04.01 2.13 0 3.22.74-.08 1.48-.15 2.22-.23-.04-.5-.06-1.02-.06-1.7 0-.28-.17-.59-.12-.82.02-.1.58-.92.69-1.03.67-.72.75-.27 1.51-.35.5-.05.93-.46 1.5-.28.16.31-.04.77.03 1.03.08.27.52.48.68.77.36.66.52 3.11 1.74 2.56.67-.3.82-1.49.87-2.14.13-1.87.16-5.03 0-6.88-.23-2.7-2.66-.84-2.73.3-.02.41.46.85.27 1.33-.13.02-.26.05-.38.09-.42.63-1.05 1.14-1.84 1.07-.79-.07-1.46-.6-1.95-1.19a.418.418 0 0 1-.09-.41c-.2-.53-.32-1.14-.32-1.48 0-.58.38-1.22.37-1.71-.02-.94-.88-.96-.29-2.5.43-1.12 1.66-1.23 2.86-1.15.43-.52.91-.97 1.61-1.17.58-.17 1.19-.13 1.69.23.4.29.73.67 1.08 1.03.55.03 1.07.15 1.55.46.38.25 1.13.92 1.25 1.35.09.34-.09.59-.03.86.07.28.48.53.55.91.13.74-.42 1.76.34 2.59.4.44 1.5.48 1.89.04.5-.58.07-4-.11-4.9z" fill="#fff"/><path d="M218.44 66.35c-.13-.93-.51-.63-1.04.04-.23.29-.65 2.05-.91 2.62-.16.36-.49.87-.69 1.23-1.75 1.12-4.79.29-6.78.1-.07-.07.03-1.66 0-1.97-.04-.39-.67-3.63-.7-3.94-.57.06-.27.9-.84.96 0 .63-.2 4.3-.32 4.83-.27 1.14-1.54.79-2.44.98-.91.19-1.48-.16-1.24.89.22.96 2.6.32 3.35.31 3.14-.05 6.43.63 9.64.07.57-.1.9-.22 1.23-.7.66-.98.93-4.25.76-5.42z" fill="#fff" opacity=".95"/><path d="M211.91 60.36c-.02.31.34.64.2 1-.1.01-.19.04-.29.07-.31.47-.78.85-1.38.8-.59-.05-1.09-.45-1.45-.89-.07-.09-.1-.2-.07-.31-.15-.4-.24-.85-.24-1.11 0-.43.28-.91.27-1.28-.01-.57-.44-.7-.35-1.35a3.649 3.649 0 0 0-.95.08c.09.41-.01.75-.13 1.11.08.55.22 1.1.31 1.65.14.89.02 1.71-.43 2.46-.01.66-.2 1.28-.23 1.92-.03.78 0 1.59 0 2.4.55-.06 1.1-.11 1.65-.17-.03-.37-.04-.76-.04-1.27 0-.21-.13-.44-.09-.61.01-.07.43-.68.52-.77.5-.54.56-.2 1.13-.26.37-.04.7-.34 1.12-.21.12.23 2.15-.14 2.18-.63.1-1.39.41-1.47.29-2.85-.17-2.02-1.99-.63-2.04.23z" fill="#fff" opacity=".95"/><path d="M59.48 97.74c-.12.55-.19 1.11-.29 1.67-.04.25-.1.52-.12.79.13-.18.27-.35.42-.52.27-.3.55-.61.85-.9 1.02-2.05 3.29-4.15 5.52-3.39.79.27 2.65 1.81 3.09 2.51.62.99.86 4.77 2.99 4.12.74-.23.61-2.62.43-3.24-.11-.38-.43-.77-.47-1.11-.1-.8.74-3.4.11-4.03-.67-.67-1.74.53-2.04.53-.65.01-2.71-1.34-3.74-1.43-5.23-.44-6.49 3.83-6.74 5zM72.69 105.62c-1.52-.08-3.99-.14-5.47 0-1.61.15-1.42 1.2-.9 2.42.7.07 2.17.07 2.7.53.73.63-.32 2.26-.4 2.89-.05.38.29.7-.07 1.14-.17.21-2.17 1.69-2.49 1.88-1.24.73-2.45.78-3.57-.25-1.66-1.52-2.3-3.44-2.75-5.52-.33-.61-.66-1.22-.93-1.85-.29-.68-.27-1.38-.47-2.08-.11-.38-.28-.73-.37-1.12-.04-.15-.06-.31-.09-.46-.06.19-.11.38-.16.58-.08.37-.14.74-.23 1.1-.27 1.18-.39 4.28-.39 4.38.02 2.2 2.86 7.14 4.89 8.03 1.24.55 3.82.5 5.1.08.47-.15 1.03-.59 1.48-.64.89-.11 2.15.6 2.95.19 1.28-.67 1.05-3.05.65-4.2.34-1.11.08-3.05.55-4.05.32-.66 2.76-.6 3.46-1.2v-1.24c-.16-.25-3-.57-3.49-.6zM187.86 114.07c-.14-.13-1.13-2.2-1.23-2.5-.48-1.47-.61-3.38-1.04-4.98-.19-.69-.89-2.14-.93-2.65-.05-.52.25-1.13.08-1.79-.71-2.74-1.45-5.81-2.37-8.52-.11-.33-.63-1.69-.8-1.85-.53-.52-1.86.21-2.26.75-.77 1.03-.97 3.58-1.37 4.94-.03.1-.07.22-.1.33.06.17.13.33.17.51.08.38.06.76.01 1.14-.1.74-.29 1.47-.46 2.19-.27 1.18-1.07 2.03-1.98 2.76-.27.91-.48 1.77-.56 2.49-.12 1.09.13.62-.32 1.81-.35.93-1.44 5.38-2 5.73-.78.48-3.57-.12-3.1 1.94.39 1.73 3.25.91 4.48.87 1.16-.04 2.17.35 3.58-.12 3.23-1.07-1.19-2.37-1.31-3.42-.09-.8 5.04-.32 5.04-.32s.31 1.54.17 1.59c-.82.28-1.11.3-.68 1.69.39 1.26 4.84.84 5.97.85.42 0 .79.17 1.28.15.62-.02 2.58-.44 2.78-1.11.53-1.78-2.44-1.88-3.06-2.48zm-10.14-6.5c-.74-.62-.83-2.6-.59-3.48.18-.67.53-1.17.7-1.77.53-1.87 1.07-6.6 2.23-8.22l.42.14c.06.66 2.28 4.62 2.19 5.16-.04.23-.26.39-.27.75 0 .65.3 2.11.61 2.7.17.32-.22 4.89-1.22 6.01-1.27 1.42-3.3-.64-4.06-1.28zM105.94 69.23c-.14-.13-1.13-2.2-1.23-2.5-.48-1.47-.61-3.38-1.04-4.98-.19-.69-.89-2.14-.93-2.65-.05-.52.25-1.13.08-1.79-.71-2.74-1.45-5.81-2.37-8.52-.11-.33-.63-1.69-.8-1.85-.53-.52-1.86.21-2.26.75-.77 1.03-.97 3.58-1.37 4.94-.03.1-.07.22-.1.33.06.17.13.33.17.51.08.38.06.76.01 1.14-.1.74-.29 1.47-.46 2.19-.27 1.18-1.07 2.03-1.98 2.76-.27.91-.48 1.77-.56 2.49-.12 1.09.13.62-.32 1.81-.35.93-1.44 5.38-2 5.73-.78.48-3.57-.12-3.1 1.94.39 1.73 3.25.91 4.48.87 1.16-.04 2.17.35 3.58-.12 3.23-1.07-1.19-2.37-1.31-3.42-.09-.8 5.04-.32 5.04-.32s.31 1.54.17 1.59c-.82.28-1.11.3-.68 1.69.39 1.26 4.84.84 5.97.85.42 0 .79.17 1.28.15.62-.02 2.58-.44 2.78-1.11.53-1.78-2.44-1.88-3.06-2.48zm-10.14-6.5c-.74-.62-.83-2.6-.59-3.48.18-.67.53-1.17.7-1.77.53-1.87 1.07-6.6 2.23-8.22l.42.14c.06.66 2.28 4.62 2.19 5.16-.04.23-.26.39-.27.75 0 .65.3 2.11.61 2.7.17.32-.22 4.89-1.22 6.01-1.27 1.42-3.3-.64-4.06-1.28zM125.9 94.63c-.14.71-.98 1.29-1.2 1.88-.38 1.02.15 3.04.19 4.18.01.38-.2.74-.17 1.15.04.47.51.78.55 1.16.06.61-.5 2.78-.54 3.7-.06 1.31.22 2.24.3 3.44.1 1.46-.65 3.12.56 4.16 1.36 1.17 2.97.36 4.53.49 1.26.11 1.25 1.3.31 1.75-.83.4-3.59.31-4.63.26-.46-.02-1.12-.3-1.44-.28-.21.01-.56.39-.88.53-1.15.49-4.96.86-6.07.39s-1.37-2.05-.14-2.58c1.29-.55 2.73.06 4.07-.1 1.76-1.77 1.18-4.23 1.24-6.5.02-.76.28-1.81.26-2.57-.01-.66-.28-1.5-.27-2.15 0-.6.36-1.29.4-1.74s-.13-1.28-.11-1.85c.05-1.56.32-2.61-.4-4.17-.65-1.4-1.42-1.06-2.65-.58-4.51 1.75-1.89 5.51-3.34 8.56-.42.89-1.4.8-1.51-.21-.19-1.84.05-8.11.75-9.71s3.41-1.11 4.93-1.11c3.04 0 6.61-.29 9.62 0 1.51.14 2.5 2.02 2.65 3.37.1.9 0 2.3 0 3.29 0 1.09.17 3.21 0 4.15-.2 1.09-1.99.85-2.4-.47-.26-.83-.39-3.09-.48-4.11-.07-.77.26-.91-.13-1.73-.75-1.55-2.2-2.73-4-2.62zM44.6 115.01c-.18-.94-1.89-.66-2.66-.65-1.07 0-1.08.24-2.17-.4-1.54-.9-.73-1.18-.76-2.52-.01-.57-.38-1.37-.43-2.01-.1-1.1.08-2.32 0-3.43-.05-.7-.41-1.74-.42-2.31-.01-.45.36-1.27.42-1.85.16-1.78-.35-3.74.65-5.37 1.06-.4 4.17-.31 4.91-1.18.31-.36.09-1.05-.18-1.38-.81-.99-3.38-.41-4.59-.43-1.03-.01-2.59-.05-3.58-.15-1.58-.16-1.93-.68-3.86-.41-1.56.22-2.98.56-2.66 2.48.27 1.66 3.74 1.09 4.95 1.22 2.09.23 1.36 3.15 1.35 4.51 0 .69-.02 1.38-.03 2.07.05.07.1.15.11.24.1.62.32 1.21.42 1.83.1.65.06 1.28-.07 1.92-.12.59-.33 1.16-.56 1.71v1.25c0 .42.17.81.16 1.28-.03 1.72-.87 1.92-1.66 3.22l-.36-.1c-.05-1.35-4.27-.53-4.46.87-.49 3.55 4.56 1.71 6.39 1.65 1.11-.03 2.16.42 3.15.42.97 0 3.09-.41 4.08-.65 1.13-.28 2.18-.35 1.89-1.83zM177.18 50.29c-1.36-.45-4.33-.46-5.77-.3-.91.1-2.51.33-2.74 1.39-.25 1.17.82.91 1.65 1.22.57.21 1.03.54 1.37.97.57.25.9.81 1.04 1.46.28 1.31-.01 2.63.04 3.94.03.8.07 1.61.04 2.41-.01.3-.02.72-.1 1.11.49-.42.94-.88 1.35-1.38.35-.43.72-.95.99-1.49-.18-1.13-.4-2.71-.41-3.35 0-.65.34-1.4.36-1.98.01-.4-.26-.87-.1-1.31.79-.43 2.7-.5 2.93-1.54.14-.65-.04-.94-.65-1.14z" fill="#fff"/><path d="M187.77 71.36c-.72-.33-2.11-.47-2.6-.96l-6.18-9.72c1.66-2.43 2.99-5.16 5.26-7.1.21-.18 1.13-.92 1.29-.99.58-.23 2.2.34 2.41-.72.41-2.08-2.76-1.77-4.06-1.78-.34 0-.65.16-.99.16-1.14 0-2.3-.97-3.09.46-.75 1.37.73 1.2 1.1 2.09.08.18-.09.89-.18 1.09-.3.67-1.69 2.2-2.23 3.03-.89 1.38-1.27 1.91-2.35 3.18-.17.2-.5.88-.74.82-.19.28-.39.56-.6.82-.71.88-1.6 1.81-2.65 2.33v.85c0 1.71.25 2.94-.63 4.61-.65 1.25-1.15 1.09-2.12 1.72-1.16.75-1.53 2.75.26 2.96 1.37.15 6.05.14 7.22-.31.54-.21 1.21-.75 1.42-1.29.33-.87-1.16-.97-1.65-1.25-.84-.48-1.64-2.68-1.66-3.6-.02-.93 1.14-2.53 1.55-3.41.27-.58.12-1.27 1.09-.76l4.04 6.91-.05.19c-.74.39-2.45 2.1-1.61 2.94.62.62 6.09.7 7.15.6 2.25-.22 2.75-1.89.6-2.86zM143.81 63.03c.09.21.22.46.4.6.2-.24.32-.56.42-.89.19-.67.27-1.36.44-2.03.21-.79.45-1.6.89-2.3.18-.29.4-.55.64-.79.08-.27.15-.55.23-.81.11-.34.26-.66.42-.97.05-.74.04-1.83-.51-2.25-.43-.33-1.11.2-1.44.46-.3.24-.58.5-.84.78-.13.26-.26.52-.37.8-.4 1.05-.66 2.86-.77 4.81.09.63.18 1.25.25 1.88.07.24.14.48.24.71zM155.02 50.92c-.07-.12-.19-.16-.35-.18-.38-.06-.78.04-1.17 0-.78-.06-1.28-.68-1.97-.97-.22.02-.44.05-.67.08-.38.34-.64.9-.83 1.39.24.08.48.15.69.3.31.22.44.52.55.88.02.05.02.12.05.17h.02c.05.01.09 0 .14.02 0 0 .07 0 0 .01.05 0 0 .03.04-.03 0 0 0-.01.02-.03.04-.08.07-.15.11-.23.24-.52.69-.82 1.27-.77.73.07.96.64 1.23 1.22.04.08.09.14.14.21-.01-.07-.04-.14-.05-.21-.03-.4.09-.76.32-1.08.15-.2.4-.45.47-.61.01-.06.02-.07.02-.02v-.05c0-.04-.02-.07-.04-.11zM160.83 63.68c-.06-.54.18-.98.16-1.42-.03-.67-.15-1.42-.19-2.23-.05-1.13-1.07-5.08-1.61-6.05-.7-1.25-1.82-2.33-3.14-3.09.04.32-.06.63-.25.89-.17.24-.46.48-.53.75-.07.31.1.58.28.81.23.31.44.62.5 1.01a.58.58 0 0 1-.11.42c.58.68 1.53 1.81 1.63 1.99 1.16 1.86.83 4.7.54 6.76-.58 4.08-1.28 6.95-6.03 7.47-1.25.14-1.8.17-2.77-.63-.5-.41-.91-1.22-1.14-1.42-.68-.57-.88-.11-1.44-1.4-.38-.87-.62-1.82-.75-2.8a.883.883 0 0 0-.77.13c-.36.23-.65.58-.92.94-.12.84-.27 1.67-.38 2.5 1.47 4.26 5.71 7.39 10.29 5.62.99-.38 3.69-2.01 4.29-2.81 1.4-1.86 1.39-3.56 2.07-5.6.11-.33.52-.88.55-1.01.03-.16-.23-.51-.26-.82zM63.37 63.03c.09.21.22.46.4.6.2-.24.32-.56.42-.89.19-.67.27-1.36.44-2.03.21-.79.45-1.6.89-2.3.18-.29.4-.55.64-.79.08-.27.15-.55.23-.81.11-.34.26-.66.42-.97.05-.74.04-1.83-.51-2.25-.43-.33-1.11.2-1.44.46-.3.24-.58.5-.84.78-.13.26-.26.52-.37.8-.4 1.05-.66 2.86-.77 4.81.09.63.18 1.25.25 1.88.07.24.14.48.24.71zM74.59 50.92c-.07-.12-.19-.16-.35-.18-.38-.06-.78.04-1.17 0-.78-.06-1.28-.68-1.97-.97-.22.02-.44.05-.67.08-.38.34-.64.9-.83 1.39.24.08.48.15.69.3.31.22.44.52.55.88.02.05.02.12.05.17h.02c.05.01.09 0 .14.02 0 0 .07 0 0 .01.05 0 0 .03.04-.03 0 0 0-.01.02-.03.04-.08.07-.15.11-.23.24-.52.69-.82 1.27-.77.73.07.96.64 1.23 1.22.04.08.09.14.14.21-.01-.07-.04-.14-.05-.21-.03-.4.09-.76.32-1.08.15-.2.4-.45.47-.61.01-.06.02-.07.02-.02v-.05c0-.04-.02-.07-.04-.11zM80.39 63.68c-.06-.54.18-.98.16-1.42-.03-.67-.15-1.42-.19-2.23-.05-1.13-1.07-5.08-1.61-6.05-.7-1.25-1.82-2.33-3.14-3.09.04.32-.06.63-.25.89-.17.24-.46.48-.53.75-.07.31.1.58.28.81.23.31.44.62.5 1.01a.58.58 0 0 1-.11.42c.58.68 1.53 1.81 1.63 1.99 1.16 1.86.83 4.7.54 6.76-.58 4.08-1.28 6.95-6.03 7.47-1.25.14-1.8.17-2.77-.63-.5-.41-.91-1.22-1.14-1.42-.68-.57-.88-.11-1.44-1.4-.38-.87-.62-1.82-.75-2.8a.883.883 0 0 0-.77.13c-.36.23-.65.58-.92.94-.12.84-.27 1.67-.38 2.5 1.47 4.26 5.71 7.39 10.29 5.62.99-.38 3.69-2.01 4.29-2.81 1.4-1.86 1.39-3.56 2.07-5.6.11-.33.52-.88.55-1.01.03-.16-.23-.51-.26-.82zM131.5 28.81c-.66-.62-.07-1.86.62-2.21 1.37-.7 3.15.88 4.15-1.11.76-1.52.55-5.35.1-7s-1.82-4.41-2.57-5.94c-.26-.52-.92-1.16-1.11-1.59-.17-.38-.21-.98-.4-1.45-.18-.44-1.03-1.81-1.42-1.99-.81-.38-3.13.17-3.36-1.35-.15-.97 1.61-1.3 2.33-1.32.48-.01.91.17 1.41.16.94-.03 3.83-.48 4.44.17.97 1.03-.95 1.9-1.17 2.38-.36.78.87 2.24 1.28 2.97.23.42.58 1.58.82 1.81.12.12 1.25.62 1.45.61.74-.07 1.72-1.84 2.09-2.46.5-.81.7-1.82 1.54-2.29-.83-.59-3.09-2.65-1.31-3.3.9-.32 5.64-.29 6.79-.19.79.07 2.03 1.09 1.56 1.85-.17.27-1.96.9-2.4 1.16-.34.2-2.51 1.82-2.66 2.03-.8 1.19.92 3.22-1.62 2.63-.24.08-.51 1.46-.5 1.75.01.42.48 1.31.34 1.64-.06.15-1.85 2.41-2 2.55-.35.31-.84.21-.92.65.04 1.41.03 6.12 1.46 6.77.88.4 3.98.68 4.44 1.67.5 1.07-1.91 1.45-2.58 1.54-1.67.24-3.42-.16-4.82.01s-1.44.08-2.83 0c-.85-.05-2.57.39-3.17-.17z" fill="#fff"/></svg>