<svg xmlns="http://www.w3.org/2000/svg" viewBox="0 0 300 73"><path d="M20.79 72.45H12.4V61.07H8.39v11.38H0v-28.3h8.39v10.01h4.01V44.15h8.39v28.3zM25.14 72.45v-28.3h15.6v6.65h-7.21v4.12h6.46v6.4h-6.46v4.33h7.21v6.8h-15.6zM66.71 72.45h-8.68l-.62-3.59h-5.66l-.68 3.59h-8.68l7.47-28.3h10.27l6.58 28.3zm-10.29-9.66l-.54-3.3s-.04-.18-.08-.49c-.03-.27-.17-1.33-.42-3.19-.03-.21-.06-.49-.1-.85-.04-.36-.09-.82-.16-1.37l-.26-2.68c-.03.26-.06.54-.11.86-.05.32-.1.67-.15 1.04-.09.76-.16 1.28-.2 1.58s-.07.47-.08.53l-.58 3.43-.85 4.44h3.54zM91.25 72.45h-9.08l-4.15-10.08c-.04-.17-.11-.4-.21-.68-.1-.28-.22-.62-.37-1.01l.06 1.87v9.9h-8.35v-28.3h8.6c3.78 0 6.62.68 8.49 2.03 2.39 1.74 3.58 4.2 3.58 7.4 0 3.42-1.6 5.79-4.81 7.09l6.24 11.77zM77.54 57.26h.56c.97 0 1.77-.34 2.42-1.01.64-.67.97-1.53.97-2.57 0-2.11-1.21-3.17-3.64-3.17h-.3v6.74zM105.16 72.45h-8.39V50.93h-4.63v-6.78h17.84v6.78h-4.81v21.52zM112.15 71.76v-8.89c1.65 2.05 3.44 3.08 5.35 3.08.72 0 1.32-.17 1.77-.52.46-.35.68-.78.68-1.31 0-.76-.5-1.5-1.49-2.22l-1.37-.97c-.91-.62-1.69-1.24-2.34-1.86-.64-.62-1.17-1.25-1.57-1.91-.4-.65-.7-1.33-.89-2.03-.19-.7-.28-1.43-.28-2.2 0-1.32.34-2.7 1.01-4.14.34-.67.72-1.29 1.17-1.84.44-.56.95-1.05 1.53-1.48 1.58-1.22 3.5-1.83 5.74-1.83 2 0 4.01.48 6.04 1.45v8.65c-.68-.97-1.46-1.73-2.34-2.28-.87-.56-1.73-.83-2.58-.83-.64 0-1.17.17-1.59.51-.43.33-.64.73-.64 1.19 0 .76.57 1.51 1.71 2.25l1.33.9c1.77 1.16 3.04 2.35 3.8 3.57.78 1.22 1.17 2.65 1.17 4.29 0 2.79-.93 5.08-2.8 6.89-1.87 1.81-4.23 2.71-7.09 2.71-1.97 0-4.09-.4-6.34-1.19zM152.45 72.45h-8.39v-28.3h8.39v28.3zM156.79 72.45v-28.3h8.01l4.21 9.93c.23.59.49 1.26.77 2.02.29.76.61 1.63.96 2.62l.87 2.49c-.31-2.46-.54-4.56-.7-6.3-.16-1.75-.24-3.21-.24-4.4v-6.36h8.01v28.3h-8.01l-4.23-10.41c-.44-1.11-.84-2.15-1.2-3.12-.36-.97-.67-1.9-.94-2.78.17 1.99.3 3.73.38 5.21.08 1.48.12 2.77.12 3.89v7.22h-8.01zM194.76 71.76v-8.89c1.65 2.05 3.44 3.08 5.35 3.08.72 0 1.32-.17 1.77-.52.46-.35.68-.78.68-1.31 0-.76-.5-1.5-1.49-2.22l-1.37-.97c-.91-.62-1.69-1.24-2.34-1.86-.64-.62-1.17-1.25-1.57-1.91-.4-.65-.7-1.33-.89-2.03-.19-.7-.28-1.43-.28-2.2 0-1.32.34-2.7 1.01-4.14.34-.67.72-1.29 1.17-1.84.44-.56.95-1.05 1.53-1.48 1.58-1.22 3.5-1.83 5.74-1.83 2 0 4.01.48 6.04 1.45v8.65c-.68-.97-1.46-1.73-2.34-2.28-.87-.56-1.73-.83-2.58-.83-.64 0-1.17.17-1.59.51-.43.33-.64.73-.64 1.19 0 .76.57 1.51 1.71 2.25l1.33.9c1.77 1.16 3.04 2.35 3.8 3.57.78 1.22 1.17 2.65 1.17 4.29 0 2.79-.93 5.08-2.8 6.89-1.87 1.81-4.23 2.71-7.09 2.71-1.97 0-4.09-.4-6.34-1.19zM214.27 72.45v-28.3h15.6v6.65h-7.21v4.12h6.46v6.4h-6.46v4.33h7.21v6.8h-15.6zM256.3 58.4c0 4.31-1.08 7.82-3.24 10.52-2.15 2.69-4.95 4.03-8.39 4.03-3.06 0-5.68-1.03-7.87-3.1-2.75-2.61-4.13-6.54-4.13-11.77s1.44-8.84 4.31-11.49c2.13-1.97 4.66-2.95 7.59-2.95 3.58 0 6.43 1.33 8.56 4 2.12 2.66 3.18 6.25 3.18 10.76zm-8.72.05c0-5.12-.99-7.68-2.98-7.68-.99 0-1.79.67-2.38 2.02-.58 1.25-.87 3.08-.87 5.5s.27 4.23.82 5.54c.54 1.31 1.3 1.97 2.26 1.97s1.76-.65 2.29-1.94c.56-1.29.85-3.1.85-5.41zM272.56 44.15h8.39v20.01c0 1.67-.29 3.03-.87 4.07-.56 1.09-1.5 2.07-2.82 2.95-1.77 1.17-3.93 1.76-6.46 1.76-2.87 0-5.28-.65-7.23-1.94-2.47-1.65-3.7-4.29-3.7-7.92V44.15h8.39V62.4c0 1.23.16 2.11.49 2.62.33.51.88.77 1.66.77s1.36-.24 1.67-.71c.31-.5.46-1.39.46-2.66V44.15zM300 72.45h-14.7v-28.3h8.39v21.5h6.3v6.8z" fill="#fff"/><path fill="none" stroke="#fff" stroke-miterlimit="10" stroke-width="2.15" d="M81.56 2.86h7.72M77.54 7.33h15.68M96.82.21v26.11M102.15 12.08h-4.91"/><ellipse cx="85.5" cy="15.32" rx="5.1" ry="4.33" fill="none" stroke="#fff" stroke-miterlimit="10" stroke-width="2.15"/><path fill="none" stroke="#fff" stroke-miterlimit="10" stroke-width="2.15" d="M124.46 3.46h-16.65v11.86h16.88M123.83 9.39h-15.66M103.73 22.02h23.72"/><ellipse cx="144.88" cy="8.24" rx="5.84" ry="5.45" fill="none" stroke="#fff" stroke-miterlimit="10" stroke-width="2.15"/><path fill="none" stroke="#fff" stroke-miterlimit="10" stroke-width="2.15" d="M157.61 0v19.33M142.63 17.34v6.96h16.82M178.51 2.51v5.2c0 6.64 7.22 11.38 7.22 11.38M178.51 2.51v5.2c0 6.64-7.22 12.13-7.22 12.13M183.88 10.24h7.34M191.22.2v26.1"/><ellipse cx="208.65" cy="4.8" rx="8.2" ry="3.7" fill="none" stroke="#fff" stroke-miterlimit="10" stroke-width="2.15"/><path fill="none" stroke="#fff" stroke-miterlimit="10" stroke-width="2.15" d="M196.87 12.09h23.74M208.65 16.65v-4.33M199.53 16.65h16.86v4.14h-15.72v4.58h17.65"/></svg>