<svg xmlns="http://www.w3.org/2000/svg" width="230" height="114" viewBox="0 0 230 114"><rect x="42.99" y="19.97" width="143.34" height="1.46" fill="#fff"/><rect x="42.99" y="22.57" width="143.34" height="1.46" fill="#fff"/><rect x="42.99" y="53.51" width="143.34" height="1.46" fill="#fff"/><rect x="42.99" y="56.12" width="143.34" height="1.46" fill="#fff"/><path d="M102.19,82.05l5.51-14.5h2l5.86,14.5h-2.16l-1.67-4.39h-6l-1.57,4.39Zm4.14-6h4.86l-1.5-4c-.46-1.22-.79-2.22-1-3a18.74,18.74,0,0,1-.77,2.77Z" fill="#fff"/><path d="M118.84,82.05V69.26h-4.72V67.55h11.35v1.71h-4.74V82.05Z" fill="#fff"/><path d="M87,50.22H71.16V29h5V45.21H87a5.59,5.59,0,0,0,2.85-.7,2.36,2.36,0,0,0,1.1-2.24v-.52h5v.52a7.37,7.37,0,0,1-3.42,6.47A10.6,10.6,0,0,1,87,50.22Z" fill="#fff"/><rect x="98.46" y="34.12" width="5.01" height="16.31" fill="#fff"/><rect x="98.46" y="27" width="5.01" height="4.5" fill="#fff"/><path d="M175.89,50.3H161.44v-5h14.45a4.78,4.78,0,0,0,4.32-2.75H161.57V38.78A9.78,9.78,0,0,1,171.35,29h14.44v5H171.35a4.78,4.78,0,0,0-4.61,3.52h18.93v3A9.79,9.79,0,0,1,175.89,50.3Z" fill="#fff"/><path d="M130.78,42.11v-5H112a4.76,4.76,0,0,1,4.46-3.1h14V29h-14a9.79,9.79,0,0,0-9.78,9.78V50.22h24.09v-5H111.7v-3.1Z" fill="#fff"/><path d="M153.47,28.85V40.94c-6.37-8.73-14.4-12.11-14.79-12.09h-5V50.36h5V37.07c7.13,1.43,11.91,8.28,14.79,13.29h5V28.85Z" fill="#fff"/><path d="M54,29a9.79,9.79,0,0,0-9.78,9.78V50.43h5V44.77H63.33v5.4h5V29ZM49.25,39.76v-1A4.78,4.78,0,0,1,54,34h9.31v5.75Z" fill="#fff"/><path d="M45.8,16.86,54.74.28h3.32l9.52,16.58H64.07l-2.71-5H51.63l-2.56,5Zm6.72-6.81h7.89L58,5.46A36.62,36.62,0,0,1,56.33,2a16.87,16.87,0,0,1-1.26,3.17Z" fill="#fff"/><path d="M70,16.86V.28h3.16l12.22,13V.28h3V16.86H85.19L73,3.83v13Z" fill="#fff"/><path d="M110.12,11.05l3.08.55a7.44,7.44,0,0,1-3.48,4.12,12.32,12.32,0,0,1-6.15,1.42,14.61,14.61,0,0,1-6.12-1.09,7.88,7.88,0,0,1-3.59-3.16,8.54,8.54,0,0,1-1.23-4.44A7.51,7.51,0,0,1,94,3.93,8.54,8.54,0,0,1,98,1a15.35,15.35,0,0,1,5.65-1,12.34,12.34,0,0,1,5.87,1.27,7,7,0,0,1,3.32,3.56l-3,.51a5.32,5.32,0,0,0-2.35-2.64,8.1,8.1,0,0,0-3.87-.82,9.82,9.82,0,0,0-4.48.91,5.31,5.31,0,0,0-2.53,2.46,7.33,7.33,0,0,0-.73,3.19,7.51,7.51,0,0,0,.86,3.69,5.35,5.35,0,0,0,2.69,2.36,10,10,0,0,0,4,.78,8.41,8.41,0,0,0,4.38-1.07A5.27,5.27,0,0,0,110.12,11.05Z" fill="#fff"/><path d="M117.52,16.86V.28h3.08V16.86Z" fill="#fff"/><path d="M126.09,16.86V.28h16.83v2H129.17V7.32h12.88V9.26H129.17V14.9h14.29v2Z" fill="#fff"/><path d="M147.68,16.86V.28h3.16l12.22,13V.28h3V16.86h-3.16l-12.23-13v13Z" fill="#fff"/><path d="M177.11,16.86V2.24h-7.67v-2h18.45v2h-7.7V16.86Z" fill="#fff"/><path d="M6.5,112.75V95H0V91.38H17.4V95H10.92v17.75Z" fill="#fff"/><path d="M20.08,112.75V91.38h4.43v8.41h8.66V91.38h4.42v21.37H33.17v-9.34H24.51v9.34Z" fill="#fff"/><path d="M61.72,112.75H56.91L55,107.9H46.25l-1.81,4.85H39.75l8.53-21.37H53Zm-8.14-8.45-3-7.93-3,7.93Z" fill="#fff"/><path d="M63.93,112.75V91.38h4.3l9,14.27V91.38H81.3v21.37H76.86L68,98.81v13.94Z" fill="#fff"/><path d="M85.85,112.75V91.38h4.42v9.49l8.93-9.49h6L96.9,99.7l8.7,13H99.88l-6-10-3.59,3.57v6.46Z" fill="#fff"/><path d="M106.58,105.8l4.3-.41a5,5,0,0,0,1.58,3.1,4.84,4.84,0,0,0,3.2,1,5,5,0,0,0,3.22-.88,2.6,2.6,0,0,0,1.08-2.06,1.91,1.91,0,0,0-.45-1.29,3.85,3.85,0,0,0-1.6-.93q-.76-.25-3.54-.93a12.1,12.1,0,0,1-5-2.11,5.5,5.5,0,0,1-2-4.3,5.44,5.44,0,0,1,.95-3.06,5.89,5.89,0,0,1,2.73-2.16,11.13,11.13,0,0,1,4.31-.74c2.75,0,4.82.58,6.21,1.76a6.17,6.17,0,0,1,2.18,4.71l-4.42.19a3.64,3.64,0,0,0-1.21-2.37,4.57,4.57,0,0,0-2.8-.72,5.11,5.11,0,0,0-3,.77,1.54,1.54,0,0,0-.7,1.33,1.64,1.64,0,0,0,.65,1.29,11.69,11.69,0,0,0,4.07,1.43,22,22,0,0,1,4.77,1.54,6.07,6.07,0,0,1,2.42,2.17,6.63,6.63,0,0,1-.17,6.85,6.32,6.32,0,0,1-3,2.38,12.69,12.69,0,0,1-4.77.78,9.68,9.68,0,0,1-6.37-1.87A8.06,8.06,0,0,1,106.58,105.8Z" fill="#fff"/><path d="M138.1,104.89v-3.6h9.53v8.51a11.93,11.93,0,0,1-4,2.32,15.1,15.1,0,0,1-5.34,1,12.19,12.19,0,0,1-6-1.4,9.07,9.07,0,0,1-3.84-4,12.67,12.67,0,0,1-1.28-5.69,12,12,0,0,1,1.43-5.93,9.52,9.52,0,0,1,4.2-4A11.53,11.53,0,0,1,138,91a10.67,10.67,0,0,1,6.37,1.66,7.56,7.56,0,0,1,2.95,4.62l-4.39.8a4.56,4.56,0,0,0-1.74-2.49A5.41,5.41,0,0,0,138,94.7a6.06,6.06,0,0,0-4.61,1.8,7.43,7.43,0,0,0-1.71,5.32c0,2.53.58,4.44,1.73,5.7a5.86,5.86,0,0,0,4.54,1.91,7.68,7.68,0,0,0,2.79-.54,9.41,9.41,0,0,0,2.4-1.29v-2.71Z" fill="#fff"/><path d="M151.39,112.75V91.38h4.42v21.37Z" fill="#fff"/><path d="M165.43,112.75,157.6,91.38h4.8l5.54,15.82,5.36-15.82H178l-7.84,21.37Z" fill="#fff"/><path d="M179.93,112.75V91.38h4.42v21.37Z" fill="#fff"/><path d="M188.42,112.75V91.38h4.3l9,14.27V91.38h4.1v21.37h-4.43l-8.83-13.94v13.94Z" fill="#fff"/><path d="M220.47,104.89v-3.6H230v8.51a12.09,12.09,0,0,1-4,2.32,15,15,0,0,1-5.34,1,12.15,12.15,0,0,1-6-1.4,9,9,0,0,1-3.84-4,12.67,12.67,0,0,1-1.29-5.69A12,12,0,0,1,211,96.06a9.5,9.5,0,0,1,4.19-4A11.61,11.61,0,0,1,220.4,91a10.69,10.69,0,0,1,6.37,1.66,7.61,7.61,0,0,1,2.95,4.62l-4.39.8a4.52,4.52,0,0,0-1.75-2.49,5.38,5.38,0,0,0-3.18-.91,6,6,0,0,0-4.61,1.8,7.43,7.43,0,0,0-1.71,5.32c0,2.53.58,4.44,1.73,5.7a5.86,5.86,0,0,0,4.54,1.91,7.68,7.68,0,0,0,2.79-.54,9.17,9.17,0,0,0,2.39-1.29v-2.71Z" fill="#fff"/></svg>