<svg xmlns="http://www.w3.org/2000/svg" width="250" height="84" viewBox="0 0 250 84"><path d="M113.07 2.06a1.44 1.44 0 0 0 1.27-.33A24.74 24.74 0 0 1 117.57 0a.44.44 0 0 1 .39 0 1.6 1.6 0 0 0 1.51.14c1.23-.37 2.23.29 3.27.73.15.06.25.36.3.56.22 1 .43 2.11.59 3.17a.86.86 0 0 1-.23.69c-.58.55-1.23 1-1.83 1.56a.58.58 0 0 1-.85 0A2.2 2.2 0 0 0 119 6.5a3.57 3.57 0 0 1-1.41-.27c-.14 0-.26-.28-.3-.45a3.4 3.4 0 0 1 0-.72c-.85.05-1.74.36-2.14-.67l-.9.3c-.53 1-1.12 2-1.65 3.05-.38.75-1.17 1.26-1.23 2.22 0 .3-.47.56-.68.86a6.35 6.35 0 0 0-.44.81v.13c-1.06.29-.69 1.33-1 2s-.59 1.53-.92 2.28a29.64 29.64 0 0 1-1.63 3.41c-.7 1.17-.22 2.48 1.34 2.43a.9.9 0 0 1 .69.21c.36.52.84.51 1.38.51s1.09.08 1.64.1a.49.49 0 0 0 .33-.17.92.92 0 0 1 1.6.09l.25-.55.48.67v-.19c.6-.06 1.2-.13 1.8-.17s1.07-.06 1.6-.05 1.09.76 1.12 1.35a1 1 0 0 1-.73 1c-.44.17-.81.53-1.25.65a14.88 14.88 0 0 1-1.94.27c-.11.47-.51.44-1 .27a2.06 2.06 0 0 0-1.77 0 3.75 3.75 0 0 1-1.59.24.9.9 0 0 1-1 .27 5.29 5.29 0 0 0-2.24 0c-.55.07-1.06.36-1.42-.17-.49.39-1 .73-1.39 1.12-.11.1-.09.33-.14.5-.2.75-.45 1.48-.6 2.23s-.14 1.37-.27 2c-.21 1.13-.48 2.24-.71 3.36-.17.87-.32 1.73-.49 2.6a3.38 3.38 0 0 1-.19.64c-.21.45-.59.85-.25 1.4a.32.32 0 0 1-.08.3c-.34.35-.22.62 0 1a1.34 1.34 0 0 1-.17 1.61c-.28.29-.55.57-.28 1a.49.49 0 0 1 0 .27 18.89 18.89 0 0 1-.73 3.71 17.27 17.27 0 0 0-.37 2.21c-.5 1.77-1.19 3.48-1.7 5.24-.29 1-.39 2.09-.58 3.13a30.13 30.13 0 0 1-1.38 5.46 11.18 11.18 0 0 1-1.05 1.65c-.21.35-.36.73-.55 1.09a27.65 27.65 0 0 1-1.33 2.6 17.91 17.91 0 0 1-1.53 1.75.5.5 0 0 0-.13.36 2.64 2.64 0 0 1-1 2.38c-1.07.75-1.19 2.08-2.16 2.84a1.88 1.88 0 0 0-.5.8 2.15 2.15 0 0 1-1 1 7.24 7.24 0 0 0-1.37 1.29 4.75 4.75 0 0 0-.46.77l-.7-.32c-.81.68-1.61 1.41-2.47 2a4.27 4.27 0 0 1-1.67.79c-.75.12-1.2-.3-1.36-1.06s.29-1 .76-1.4c.31-.25.62-.51.94-.75a1 1 0 0 1 .46-.24c.47-.06.91-.12 1-.69a.26.26 0 0 1 .2-.16c1.23-.15 1.71-1.48 2.84-1.81.13 0 .22-.33.26-.52a5.52 5.52 0 0 1 1.65-3c.18-.17.14-.54.29-.75.47-.68 1-1.33 1.48-2a10.79 10.79 0 0 0 1-1.5c.66-1.28 1.32-2.56 1.85-3.9a41.91 41.91 0 0 0 1.3-4.12c.48-1.75.92-3.52 1.3-5.3s.63-3.46.94-5.19c0-.12 0-.26.08-.34 1-1.26.68-2.85 1-4.27.52-2.11.88-4.27 1.31-6.41a2.49 2.49 0 0 0 0-.61c0-.44-.21-.93.57-.82.07 0 .26-.29.29-.47.2-1 .33-1.93.54-2.89.11-.46.39-.88.52-1.33a4.62 4.62 0 0 0 .3-1.53 8.56 8.56 0 0 1 .64-2.93 9 9 0 0 0 .15-1.38 3.66 3.66 0 0 1 .17-.65 7 7 0 0 0 .4-1.14c.06-.33.06-.88-.11-1a2.94 2.94 0 0 0-1.58-.45 1.88 1.88 0 0 1-2-.85.85.85 0 0 0-.37-.36 11.76 11.76 0 0 1-1.68-.67 1.45 1.45 0 0 1-.66-1 3 3 0 0 0-.84-1.75c-.31-.42-.09-1.25.39-1.23.92 0 1.32-.62 1.84-1.1 1-.89 1.62-.83 2.33.27a1.54 1.54 0 0 1 .27.48 1.22 1.22 0 0 0 1.51 1.06 2.34 2.34 0 0 1 1.16.51c.83.49 1.37.34 1.63-.56s.32-1.57.52-2.33.43-1.26.62-1.89.37-1.46.64-2.14.72-1.37 1-2.07c.11-.27-.08-.64 0-.93a5 5 0 0 1 .58-1.7 22.26 22.26 0 0 1 2.29-2.75 13.36 13.36 0 0 1 1.93-1.36s.15 0 .19-.07c.62-.55 1.17-1.18 1.79-1.88z" fill="#fff"/><path d="M81.23 26.38c-.27.21-.72.54-1.14.91-.11.1-.11.32-.16.49-.23.79-.49 1.56-.66 2.36-.13.62-.09 1.28-.21 1.91-.21 1.14-.49 2.27-.72 3.41-.18.86-.31 1.72-.48 2.59-.06.28-.22.54-.29.82s-.11.77-.17 1.15c0 .12 0 .29-.07.36-.33.36-.21.63 0 1a1.38 1.38 0 0 1-.15 1.62 1 1 0 0 0-.36 1.14c.1.33-.24.76-.29 1.16-.14.92-.22 1.84-.33 2.77a.39.39 0 0 1-.06.19c-.56.46-.41 1.06-.34 1.65a1.26 1.26 0 0 1 0 .47c-.29.9-.59 1.8-.89 2.7s-.51 1.51-.74 2.27a4.08 4.08 0 0 0-.12.78c0 .27-.06.54-.12.8-.12.6-.26 1.2-.4 1.8-.19.85-.38 1.7-.59 2.56a13.74 13.74 0 0 1-.55 2.12c-.32.76-.84 1.44-1.22 2.18-.46.92-.89 1.85-1.31 2.78a8.77 8.77 0 0 1-2 2.7 1 1 0 0 0-.33.59 2.74 2.74 0 0 1-1 2.3c-.79.54-1 1.34-1.46 2s-.94 1.4-1.42 2.1a.69.69 0 0 1-.27.29c-.41.22-.76.67-1.08.81-.72.33-.8 1-1.28 1.5l-.67-.3a22 22 0 0 1-2.52 2.06c-.5.32-.93.89-1.67.81a1.33 1.33 0 0 1-1.31-1.09c-.15-.64.29-1 .7-1.38s.69-.56 1-.83a.79.79 0 0 1 .28-.18c.53-.06 1.07-.08 1.22-.75a.15.15 0 0 1 .1-.09c1.24-.09 1.69-1.42 2.79-1.76a.73.73 0 0 0 .36-.51 5.75 5.75 0 0 1 1.68-3c.23-.24.23-.69.42-1a19.57 19.57 0 0 1 1.7-2.4 11.53 11.53 0 0 0 2-3.66c.77-1.94 1.3-4 2-6a56.45 56.45 0 0 0 2.09-9.7.93.93 0 0 1 .09-.39c1-1.26.67-2.82 1-4.22.51-2.12.9-4.28 1.3-6.42a7.65 7.65 0 0 0 0-1.44h.77c.17-.73.38-1.47.51-2.23s0-1.78.66-2.58a2.27 2.27 0 0 0 .3-1.5 8.34 8.34 0 0 1 .7-3.05 9 9 0 0 0 .16-1.38 3.55 3.55 0 0 1 .19-.71 6.22 6.22 0 0 0 .36-1.08c.06-.33.08-.89-.08-1a3.36 3.36 0 0 0-1.64-.44 2 2 0 0 1-1.92-.85.88.88 0 0 0-.42-.39 15.3 15.3 0 0 1-1.67-.67 1.32 1.32 0 0 1-.61-.93 3.12 3.12 0 0 0-.89-1.82c-.3-.42 0-1.23.46-1.2.9.05 1.27-.62 1.78-1.08 1-.89 1.62-.85 2.33.25a1.93 1.93 0 0 1 .33.59 1.13 1.13 0 0 0 1.38 1 2.62 2.62 0 0 1 1.25.51c.83.49 1.38.34 1.61-.57.3-1.15.51-2.33.77-3.49 0-.11.12-.19.16-.3.19-.52.65-.94.47-1.63-.07-.28.3-.68.48-1 .5-.94 1.25-1.79.91-3a1.1 1.1 0 0 1 .07-.68 13.35 13.35 0 0 1 3.81-4.72 2.08 2.08 0 0 1 .56-.27c.14-.06.35-.05.45-.16.59-.61 1.16-1.25 1.81-1.95A1.57 1.57 0 0 0 90 1.66 22.28 22.28 0 0 1 93 .1c.15-.07.4-.13.51 0a1.87 1.87 0 0 0 1.72.1c1.19-.29 2.12.4 3.13.79.13.06.19.34.23.53.21 1 .39 2.07.61 3.1a.75.75 0 0 1-.32.88c-.58.44-1.15.91-1.69 1.41a.65.65 0 0 1-1 0 2.15 2.15 0 0 0-1.61-.42 4.26 4.26 0 0 1-1.54-.28c-.11 0-.2-.27-.23-.42a4.65 4.65 0 0 1 0-.76c-.85.1-1.73.38-2.14-.64l-.89.29c-.57 1-1.15 2-1.68 3.07C87.77 8.5 87 9 86.92 10c0 .29-.44.53-.64.81a9.17 9.17 0 0 0-.48.87v.06c-1 .32-.7 1.37-1.06 2s-.57 1.59-.92 2.35a59.36 59.36 0 0 1-1.64 3.41c-.69 1.33-.18 2.26 1.32 2.35.24 0 .59 0 .69.17.41.62 1 .54 1.58.55s1 .08 1.43.1a.45.45 0 0 0 .35-.14c.54-.61 1.11-.63 1.59 0l.3-.34.4.35c.74-.06 1.34-.13 1.94-.17a13.35 13.35 0 0 1 1.67 0c.79.05.8.8 1 1.31s-.11.81-.59 1a13.72 13.72 0 0 1-1.37.71 12.44 12.44 0 0 1-1.9.24c-.15.51-.58.43-1.15.24a2 2 0 0 0-1.7 0 3.25 3.25 0 0 1-1.54.22 1 1 0 0 1-1.08.27 8.28 8.28 0 0 0-2.38 0c-.46.03-.89.02-1.51.02zM220.43 38.78c.31-.39.61-.8.94-1.17s.55-.47.81-.72a2.25 2.25 0 0 0 .55-.66 3.88 3.88 0 0 1 1.27-1.59 8 8 0 0 0 1.36-1.78 4.91 4.91 0 0 1 2.27-1.93c.27-.12.43-.46.66-.68.64-.62 1.25-1.27 1.94-1.83 1.3-1 2.66-2 4-3 .52-.41.92-1 1.42-1.39a6.91 6.91 0 0 1 2.81-1.66 11.09 11.09 0 0 0 1.89-.94 3.58 3.58 0 0 1 .82-.32c.66-.14.9.05.94.71a9.42 9.42 0 0 1-.21 3.12c-.56 2.2-.92 4.46-1.38 6.69-.07.35-.27.66-.37 1a1.88 1.88 0 0 0 0 .58c0 .49 0 1 .07 1.48l-.21.05.63.5a4.91 4.91 0 0 0-.39.54c-.25.38-.55.76-.07 1.2.11.1.1.34.1.52.07 1.32.09 2.64.2 4 0 .38.3 1.07.42 1.06a2 2 0 0 0 1.35-.49c1.28-1.65 3.12-2.33 4.93-3.09a6.44 6.44 0 0 0 1-.5 1.44 1.44 0 0 1 1.51.05c.32.17.56.47.24.9-.69.92-1.35 1.86-2 2.78-.12.17-.28.45-.41.45-1.2-.06-1.74 1.27-2.87 1.36a1.23 1.23 0 0 0-.76.38 7.61 7.61 0 0 1-2.26 1.85 42.78 42.78 0 0 0-4.91 3.52 7.07 7.07 0 0 0-.56.5c-.06-.26-.11-.43-.13-.6 0-.35-.22-.49-.56-.4-.52.14-.68-.12-.76-.58s-.11-1.24-.71-1.64c-.12-.09-.11-.38-.14-.58-.11-.91-.22-1.81-.31-2.72a2.41 2.41 0 0 1 .43-1.86 3.47 3.47 0 0 0 .46-1.89 5 5 0 0 1 .48-2.65c.11-.18-.1-.56-.18-1 1.08-.65.87-1.86.91-3a1 1 0 0 1 .09-.46 1.36 1.36 0 0 0-.15-1.74 1.33 1.33 0 0 1 .1-1.28c.4-.41.57-.83.17-1.13s-1.11-.44-1.35-.25a13.44 13.44 0 0 1-3.19 1.86.68.68 0 0 0-.21.17c-1.5 1.73-3.1 3.39-4.48 5.21-1.66 2.21-3.12 4.57-4.72 6.83a9.32 9.32 0 0 0-1.48 3.29 1.65 1.65 0 0 1-.46.72c-.52.52-1.08 1-1.62 1.5-.14.12-.28.29-.44.31a1.7 1.7 0 0 0-1.34 1 .84.84 0 0 1-.63.27c-.65 0-1.3-.06-1.9-.09.79-2.34 1.66-4.74 2.42-7.19a34.23 34.23 0 0 0 1-4.26 20.59 20.59 0 0 0 0-2.08 3.79 3.79 0 0 1 .91-2.33.49.49 0 0 0 .15-.23c0-.7.06-1.39 0-2.09 0-.88-.15-1.76-.18-2.64 0-.52-.09-.95-.64-1.13-1.62-.55-2.25-.23-2.76.89a1.5 1.5 0 0 1-1.06.88c-.5.14-1 .35-1.56.56a2.87 2.87 0 0 1-.44-1c0-.33.13-.89.35-1a4.63 4.63 0 0 0 1.59-.93c.1-.1.3-.1.49-.16l-.16-.53a1.05 1.05 0 0 1 .31 0 1.28 1.28 0 0 0 1.48-.53 7.1 7.1 0 0 1 1.54-1.24 5.9 5.9 0 0 0 1.68-1.73 7.12 7.12 0 0 1 1.65-1.28l.63-.46c.68-.51 1.27-1.16 2.28-1a9.38 9.38 0 0 0 1.89-.08c.16 1.19.19 2.26-.81 3.15a1.77 1.77 0 0 0-.45 1.15 4.64 4.64 0 0 1-.64 2.42 16.52 16.52 0 0 0-1.08 1.92c-.34.76-.58 1.57-.88 2.36-.17.46-.36.91-.53 1.37a1 1 0 0 0-.13.45c.19 1.81-.52 3.48-.79 5.21v.66zM26.89 24.89a1.9 1.9 0 0 0 .11-2.64 16.72 16.72 0 0 0-1.05-1.45 1.82 1.82 0 0 1-.33-1.93 3.64 3.64 0 0 0 0-2.35c-.11-.39-.23-.79-.33-1.19-.28-1-.6-1.22-1.69-1.25s-1.92-.25-2.88-.25a3.18 3.18 0 0 0-1.49.41 1.85 1.85 0 0 1-2.23-.18 1.74 1.74 0 0 1-.23-2.25c.07-.09.15-.22.24-.23.85-.05 1.19-.78 1.73-1.25a1.74 1.74 0 0 1 .37-.3c.61-.34 1.21-.7 1.85-1a6.35 6.35 0 0 1 2-.63 5 5 0 0 1 2.7.23c.34.17.89-.16 1.33-.12a5.82 5.82 0 0 0 3.08-.39c.84-.38 1.16-.15 1.74.64a1.36 1.36 0 0 0 .9.54 11.65 11.65 0 0 0 3.49 0c1.15-.3 2.43-.3 3.41-1.13a.93.93 0 0 1 .73-.23 10 10 0 0 1 1.47.88v.38a7.23 7.23 0 0 1-1 1.53c-.28.3-.72.41-.65 1 0 .06-.22.17-.36.23l-2.11.92-1.89.77a1.58 1.58 0 0 0-.44.19 1.23 1.23 0 0 1-1.2.25 5.51 5.51 0 0 0-1.43.07c0 .65.08 1.21.13 1.77a2.21 2.21 0 0 1 .06.34 34 34 0 0 1-.16 4.29c-.1.63.13 1.17.06 1.75-.25 2-.43 4.1-.75 6.13-.44 2.73-1 5.46-1.47 8.19-.09.46 0 1-.56 1.25 0 0-.09.08-.08.1.21.63-.43 1.09-.41 1.55 0 .93-.76 1.44-.9 2.25a14.15 14.15 0 0 1-.61 2.47c-.25.71-.76 1.34-1 2.06-.65 1.79-1.23 3.6-1.8 5.42a3.43 3.43 0 0 1-1.52 2.1c-.41.24-.54.55-.25 1s.18.85-.12 1.3A40 40 0 0 1 20.82 60c-.83 1-1.14 2.4-2.42 3a2.59 2.59 0 0 0-1.34 1.4 1.73 1.73 0 0 1-1.51 1.06 1.21 1.21 0 0 0-.51.27 4.32 4.32 0 0 1-.63.5 1.38 1.38 0 0 0-.76.87c-.12.37-.56.67-.92.91s-.88.35-1.25.62c-.63.47-1.19 1-1.81 1.54-.2.17-.49.23-.72.39-.63.43-1.25.9-1.88 1.33-.41.27-.88.46-1.26.76-1.17 1-2.3 2-3.47 2.88-.58.46-.87.37-1.31-.2A1.37 1.37 0 0 0 .65 75c-.3-.16-.77-.18-.62-.72S-.11 73 .87 73a.93.93 0 0 0 .37-.16l8.29-5.52a6.71 6.71 0 0 1 .82-.34c.18-.08.41-.14.51-.29a10.09 10.09 0 0 1 3.38-2.92.5.5 0 0 0 .25-.22c.33-1 1.24-1.58 1.92-2.29a16.61 16.61 0 0 0 2.67-3.73c.45-.84 1-1.63 1.41-2.49.86-1.84 1.73-3.68 2.47-5.57.38-1 .44-2 .76-3a23.08 23.08 0 0 1 1-2.34c.06-.12.15-.26.13-.37a3 3 0 0 1 .67-2.61c.12-.14.08-.44.09-.66A3.74 3.74 0 0 1 26.4 38c.1-.11.06-.37.06-.56s0-.67-.06-1a1.59 1.59 0 0 1 .6-1.72.28.28 0 0 0 .06-.25c-.51-1.07.26-2 .36-3 0-.09.12-.21.09-.25-.94-1.1.38-2.26-.09-3.38a.53.53 0 0 1 0-.39 1.64 1.64 0 0 0-.39-2.35 1.83 1.83 0 0 1-.14-.21z" fill="#fff"/><path d="M51.2 35.76a1.58 1.58 0 0 1-2 .89c-.07 0-.17-.17-.19-.15a4.32 4.32 0 0 0-1.41.87 2.26 2.26 0 0 0-.29 1.48c.12.83.53 1.62.59 2.44a4 4 0 0 1-.48 1.71c-.19.45-.29.81.12 1.2.14.12.15.4.18.61.07.56.5.9 1 .65a6.57 6.57 0 0 1 2.59-.31c.54-.06 1-.38 1.58-.49s.94 0 1.41-.09a9.21 9.21 0 0 0 1.39-.26c.62-.19 1.23-.43 1.84-.67l1.77-.71a8.74 8.74 0 0 0 1.7-.68 5.37 5.37 0 0 0 2-1.55c.39-.69.89-.76 1.59-.32a3.34 3.34 0 0 0 .4.25C66 41 66 41 65.54 42c-.05.1-.17.22-.14.3.21.86-.4 1.19-1 1.55 0 0-.05.1-.08.11a6.5 6.5 0 0 0-2.5 1.08c-.28.16-.63.12-.78.52 0 .1-.37.11-.58.14s-.62 0-.63.06c-.12.93-1 .52-1.42.82a1.9 1.9 0 0 1-1.62.49.19.19 0 0 0-.13 0c-1.28.93-3 .83-4.28 1.74-.09.07-.26.14-.31.11-.73-.54-1.44 0-2.16 0-.12 0-.31 0-.33.06-.24.68-.89.51-1.37.67-1 .33-2 .61-3 .92-.19.06-.44.07-.55.21-.32.37-.61.68-1.15.38a.3.3 0 0 0-.29.08c-.4.55-.69.21-1.07-.05-.83-.56-.73-1.37-.74-2.17 0-.31-.06-.62-.1-.93a7.88 7.88 0 0 0-.14-1.09c-.35-1.42.25-2.89-.31-4.3-.31-.77-.17-1 .57-1.37.45-.2.45-.45.17-.79a2.55 2.55 0 0 1 0-2.16.61.61 0 0 0 .17-.34c-.16-1.78.82-3.17 1.56-4.64a.7.7 0 0 1 .39-.35c.7-.15.75-.67.69-1.21a.94.94 0 0 1 .43-1c.24-.16.31-.57.48-.92l-.7-.21.48-2.53c.63 0 1-.35 1.33-.91a6.78 6.78 0 0 1 2-2.18c.64-.4 1-1.39 2-1.16h.07a15.36 15.36 0 0 1 2.2-1.62 16.93 16.93 0 0 1 2.76-.83.28.28 0 0 1 .25.09c.64.95 1.63.75 2.55.83.47 0 .93.13 1.4.21a1.17 1.17 0 0 1 1 1.22 1.24 1.24 0 0 1-.22.83c-.34.4-.35.75 0 1.06 1.2.92.54 2.15.54 3.25 0 .25-.43.48-.54.77s-.26.82.35 1c.1 0 .18.38.15.57-.16.95-1.08 1.14-1.71 1.61s-1.13.77-1.7 1.15a2.29 2.29 0 0 0-1 1.43.75.75 0 0 1-.38.44c-1.23.49-2.41 1.16-3.82.93a7.91 7.91 0 0 0-1.13-.11zm-1.75-7.62c.07.26.24.53.16.63-.42.57-.22 1.55-1.16 1.78a.33.33 0 0 0-.18.26 4.13 4.13 0 0 0 .29 1.61 2 2 0 0 0 2.08.46 3.26 3.26 0 0 1 2-.57 1.32 1.32 0 0 0 1.12-.64c.48-.63 1.06-1.18 1.6-1.77.15-.16.37-.31.43-.51.41-1.27-.09-2.45-.39-3.65a.25.25 0 0 0-.2-.14h-1.61a2.45 2.45 0 0 1-.66 0 1.6 1.6 0 0 0-1.8 1 2 2 0 0 1-1.68 1.54zM134.76 45.8c-.47-.1-1.07-.28-1.27.53 0 .07-.15.18-.2.16-.78-.24-1.24.47-1.88.63-1.06.27-2.1.58-3.14.9-.3.1-.56.31-.85.39a3.89 3.89 0 0 1-2.19.41 2.45 2.45 0 0 0-2.06.61 6 6 0 0 1-2.28.79c-.69.19-1.41.3-2.11.47a.86.86 0 0 0-.36.3c-.23.31-.46.49-.86.28a.46.46 0 0 0-.43 0c-.41.53-.68.22-1.07-.05-.83-.57-.75-1.37-.73-2.19v-.41c-.13-.95-.28-1.91-.41-2.86a1.33 1.33 0 0 1 0-.68 3.5 3.5 0 0 0-.15-2.41c-.25-.88-.2-1 .59-1.44a1.1 1.1 0 0 0 .29-.56c-.59-.38-.15-1.05-.44-1.51a.58.58 0 0 1 0-.53c.54-.49.19-1.18.39-1.71.51-1.28 1.11-2.53 1.68-3.79 1-.25 1.08-.94 1-1.79 0-.14.14-.32.24-.46.23-.34.47-.66.78-1.08l-.8-.2.49-2.52c.76.07 1-.56 1.43-1.11a6.35 6.35 0 0 1 1.76-1.91c.69-.4 1-1.42 2-1.23a.2.2 0 0 0 .12-.06 14.16 14.16 0 0 1 2.21-1.61 14.91 14.91 0 0 1 2.76-.82.29.29 0 0 1 .25.09c.63 1 1.63.73 2.55.81.44 0 .89.12 1.33.2.69.12.92.62 1 1.24.08.35.1.59-.21.84a.61.61 0 0 0 0 1.05c1.2.92.52 2.15.56 3.25 0 .26-.46.51-.58.82s-.23.77.35.94c.11 0 .21.38.18.56-.17 1-1.11 1.16-1.75 1.65s-1.24.79-1.78 1.27a6.82 6.82 0 0 0-.82 1.13 2.77 2.77 0 0 1-.73.72 6.92 6.92 0 0 1-4.57.74 1.56 1.56 0 0 1-2.21.83c-.39.21-.75.42-1.13.61a1.74 1.74 0 0 0-.61 1.68 13.44 13.44 0 0 1 .62 2.44 4.32 4.32 0 0 1-.5 1.73c-.18.44-.31.8.12 1.18a1.13 1.13 0 0 1 .19.61c.07.57.49.92 1 .66.87-.48 1.78-.18 2.66-.31.52-.08 1-.38 1.52-.48a10.2 10.2 0 0 1 1.47-.07 4.92 4.92 0 0 0 1.16-.16c.66-.22 1.29-.52 1.94-.78s1.25-.52 1.88-.76a7.82 7.82 0 0 0 1.71-.68c.66-.49 1.52-.74 1.95-1.57.32-.61.86-.68 1.49-.32a2.82 2.82 0 0 0 .53.31c1.16.43 1.16.43.65 1.43a1.13 1.13 0 0 0-.19.44c.07 1.42-1 1.57-2 1.82a4 4 0 0 0-.73.34c-.37.19-.75.36-1.1.58a5 5 0 0 0-.71.62zm-11.33-17.66c0 .33.15.68 0 .84-.4.52-.23 1.46-1.16 1.61 0 0-.12.16-.11.23.07.55 0 1.26.29 1.59a1.76 1.76 0 0 0 2.07.45 4.36 4.36 0 0 1 2.09-.56 1.2 1.2 0 0 0 1-.57c.48-.63 1.08-1.17 1.57-1.79a3.34 3.34 0 0 0 .57-1.09c.38-1.15-.36-2.13-.49-3.2a4.15 4.15 0 0 0-1-.18 6.87 6.87 0 0 0-1 .18 1.24 1.24 0 0 1-.47 0 1.58 1.58 0 0 0-1.82.92 2 2 0 0 1-1.54 1.57zM187.43 32.7a2.74 2.74 0 0 1 .14-.9c.89-1.63 1.84-3.24 2.73-4.87.37-.7.63-1.46.95-2.18a1 1 0 0 1 .32-.44c1.87-1.15 3.41-2.95 5.88-2.91a1.78 1.78 0 0 0 .85-.25c1.62-.92 3.43-1 5.21-1.14a1.47 1.47 0 0 1 1.76 1.14 1.25 1.25 0 0 0 .52.69.64.64 0 0 0 .63-.15 2.18 2.18 0 0 1 2-.92 1.11 1.11 0 0 1 1 1A14.93 14.93 0 0 1 209 28a4.12 4.12 0 0 1-.76 1.35 6.39 6.39 0 0 1-1 1.1 2.06 2.06 0 0 0-.82 2.56.45.45 0 0 1 0 .34 11.4 11.4 0 0 1-1.26 2.4 10.57 10.57 0 0 0-2.3 3.7c-.28.9-1.12 1.24-1.89 1.58a1.13 1.13 0 0 0-.81 1 2 2 0 0 1-1.12 1.6 5 5 0 0 0-1.43 1.25 10.64 10.64 0 0 1-3.62 3 39.85 39.85 0 0 0-3.63 2.55c-.15.1-.45.21-.52.15-.76-.66-1.5-1.34-2.19-2.06a1.32 1.32 0 0 1-.23-1.35 16.23 16.23 0 0 0 .31-2.31 1.19 1.19 0 0 0-.18-.57 6.65 6.65 0 0 0-.69-1.11 1.55 1.55 0 0 1 .07-2.32.55.55 0 0 0 .11-.48 5.8 5.8 0 0 1-.28-3.44c.06-.65-.18-1.34.33-2 .16-.2-.11-.74-.15-1.12-.08-.51.06-1 .49-1.12zm14.81-7c-1.38-.92-2.66.53-4 0-.06 0-.16.06-.24.11-1.07.58-2.17 1.11-3.2 1.75A6.4 6.4 0 0 0 192 32a1.9 1.9 0 0 0 0 .75c.15.76.29 1.52.51 2.26a1.58 1.58 0 0 1-.24 1.54c-.14.19-.25.58-.15.72a1.39 1.39 0 0 1 .15 1.41 1 1 0 0 0 0 .61c.24.68.52 1.35.77 2a1.9 1.9 0 0 1 .09.53c0 .64-.17 1.47.51 1.81s1.31-.3 1.89-.7a.27.27 0 0 0 .14-.14c.3-.72 1.18-.89 1.47-1.7a9.78 9.78 0 0 1 1.31-2 17 17 0 0 1 1.1-1.66 6.89 6.89 0 0 0 1.55-3.07 16.8 16.8 0 0 1 .51-1.71c.07-.2.18-.37.26-.56a7.8 7.8 0 0 0 .4-.94c.12-.36.12-.77.26-1.12a.52.52 0 0 0-.18-.75c-.46-.35-.9-.73-1.42-1.15a5.75 5.75 0 0 1 .74-.31c.53-.13.67-.41.55-.95a5.74 5.74 0 0 1 .02-1.16zM165.65 52.14l-.83-2.39c1.13-.57 1.57-2 3.1-2.33a4.81 4.81 0 0 0 2.82-1.53c.14-.19.5-.21.67-.39.45-.51.84-1.06 1.26-1.6.11-.14.2-.35.34-.41 1.29-.58 1.45-1.82 1.81-3a1.07 1.07 0 0 0 0-.53c-.43-1.23-.85-2.47-1.33-3.68a2.49 2.49 0 0 0-.77-1c-1.11-.87-2.43-1.5-3.17-2.79-.24-.41-.4-.86-.62-1.27s-.6-1.05-.89-1.58a2.31 2.31 0 0 1-.31-.52 9.11 9.11 0 0 1-.58-2.52 5.56 5.56 0 0 1 .81-2c0-.07.17-.11.18-.17.16-1.29 1.23-1.87 2-2.63.18-.16.53-.13.65-.16.51-.36.94-.63 1.34-.94s1.1-.67 1.37-1.16c.53-1 1.41-1 2.3-1.26a24.42 24.42 0 0 0 3.45-1.22 1.11 1.11 0 0 1 1.41.24c.25.32.52.61.84 1a2.17 2.17 0 0 1-1.29 2c-1.78.81-3.5 1.71-5.26 2.55a2.68 2.68 0 0 0-1 3.75c.36.61.81 1.17 1.18 1.78a9 9 0 0 1 .69 1.48c.12.35.24.53.67.46a1.78 1.78 0 0 1 1.78 1.55 2.16 2.16 0 0 0 .39.77c.12.19.29.35.4.54.75 1.34 1.49 2.69 2.23 4 .05.1.16.22.14.31-.21.87.11 1.83-.48 2.64a2.69 2.69 0 0 0-.33.6 8.77 8.77 0 0 1-1.74 2.51 37.76 37.76 0 0 1-3.94 3.44c-.94.76-1.87 1.55-2.79 2.35a9 9 0 0 1-3.77 1.56 2.69 2.69 0 0 0-1.89 1c-.17.24-.49.33-.84.55zM147.39 34.58c.53-.73 1.37-1.32 1-2.45a1.14 1.14 0 0 1 .11-.66.8.8 0 0 0-.34-1.11 1 1 0 0 1-.23-.66v-2.35l-2.35 1.06H142.65a.83.83 0 0 1-.18-.64 8.27 8.27 0 0 1 1-2 6.85 6.85 0 0 1 3.21-2.36 1.08 1.08 0 0 0 .24-.12c1.08-.74 2.16-1.48 3.25-2.21a1 1 0 0 1 1.15-.08.78.78 0 0 0 .62 0c.71-.26 1.4-.59 2.11-.82a.89.89 0 0 1 .74.23 1 1 0 0 1 .13.78c-.17.76-.41 1.52-.62 2.28-.08.3-.3.63-.23.9a1.84 1.84 0 0 1-.55 2c-.21.19-.61.84-.06 1.11.25.13.8-.16 1.12-.4 1.41-1 2.77-2.15 4.19-3.17a8.45 8.45 0 0 1 2-1c1.4-.47 2.63-1.51 4.18-1.41a5.07 5.07 0 0 1 2.09.69 1.57 1.57 0 0 1-.19 1.31c-1.29.74-2.12 2.13-3.65 2.47-.17 0-.4.13-.51.06a1.84 1.84 0 0 0-1.76.06c-1.05.4-2.3.46-3.16 1.08s-1.31 1.79-2 2.68-1.56 1.92-2.34 2.88a5.19 5.19 0 0 0-1.29 3.4c0 .53-.06 1.06 0 1.59a5.76 5.76 0 0 1-1 3.63 2.18 2.18 0 0 0-.22 1.5c.32 1.78-.57 3.18-1.35 4.62a1.82 1.82 0 0 1-.63.48c-.09.06-.25 0-.32.1a4.4 4.4 0 0 1-3.15 1.19c-.68 0-1.58-.61-1.43-1.28s.39-1.13.57-1.69c.3-1 .63-1.91.87-2.88a3.71 3.71 0 0 1 1.17-2.39.58.58 0 0 0 .22-.34 3.11 3.11 0 0 0-.09-2.39 7.61 7.61 0 0 1-.45-2.17c0-.23 0-.46-.05-.69-.06-.99.17-1.16 1.11-.83z" fill="#fff"/></svg>