<svg xmlns="http://www.w3.org/2000/svg" width="210" height="105" viewBox="0 0 210 105"><path d="M36.22 46.32h10v22.6h19.16v-22.6h10v56.54h-10v-24.8H46.19v24.8h-10zM125.36 83.89a22.63 22.63 0 0 0 .24-3.31 22.38 22.38 0 0 0-6.42-15.74 21.34 21.34 0 0 0-15.35-6.57c-11.9 0-21.58 10-21.58 22.31s9.68 22.32 21.58 22.32a21.38 21.38 0 0 0 15.35-6.57 22.48 22.48 0 0 0 5-7.81h-10.44a11.34 11.34 0 0 1-9.91 5.55c-6.15 0-10.53-4.22-11.71-10.18zm-21.53-16.8c5.66 0 9.84 3.67 11.38 8.88H92.44c1.56-5.26 5.7-8.88 11.39-8.88zM182.52 44.34v17.51a20.44 20.44 0 0 0-12.36-4.2c-11.88 0-21.92 10.47-21.92 22.88a22.22 22.22 0 0 0 21.92 22.33 21 21 0 0 0 12.36-4v3.53h9.86v-58zM170.16 93.1c-6.12 0-11.43-5-11.43-12.57s4.42-13.31 11.43-13.31 12.36 5.78 12.36 13.31-5.34 12.57-12.36 12.57zM200.14 58.79H210v43.58h-9.86zm0-4.59H210v-9.86h-9.86zM130.31 58.79h9.86v43.58h-9.86zm0-4.59h9.86v-9.86h-9.86zM21.66 32.14c-2.51-.59-5.24.91-7.75 3-4.64 3.79-11.8 12.78-9.33 19.02C6.43 58.86 17 58 21 58.75a1.46 1.46 0 0 1 1 2.32 7.51 7.51 0 0 1-3.39 2.29c-3.88 1.53-8.88.77-11.85.25A9.31 9.31 0 0 0 .37 65c-.48.35-.6.76.3 1.1 11.49 4.42 21.55-.56 23.89-5.12 1.72-3.36 1.19-5.58-1.57-5.91-4.07-.5-12.68.11-13.67-2.93-1.95-5.81 10-18.59 12.67-17.8 1.88.57-1.11 6.13-1.5 8.81s.87 3.77 2.35 4.18c.85.24 1.12-.12 1.26-.65A54.43 54.43 0 0 1 26.23 40c.51-1.31 1.25-3.66-.07-5.24a8.71 8.71 0 0 0-4.5-2.62zM31.93 38.2a2.72 2.72 0 0 0 3.62-.64 2.43 2.43 0 0 0-.79-3.22c-1.26-.92-3.21-.78-3.86.37a2.5 2.5 0 0 0 1.03 3.49z" fill="#fff"/><path d="M127.7 13.66c-.3-.41-.82-.15-1 .28a33.25 33.25 0 0 1-7.81 11.2c.76-5.41 2.25-12.32 3-15.67.64-2.94-.62-4.71-1.78-5.2-.68-.15-1.06.1-1.37.91-1.17 3.15-2.12 8.26-3.36 12.65-1.49 5.17-3.32 9.27-5.71 10.05-1.41.45-2.16-1.09-1.85-3.8a42.24 42.24 0 0 1 2-8.47c1.15-3.56.75-5.62-1.26-6.51a1 1 0 0 0-1.49.59 49.6 49.6 0 0 0-3.58 14.74 8.65 8.65 0 0 0 .34 3.1c-1.31 2.35-3 4.23-4.69 4.78-2.76.88-3.6-3.16-3-8.57 4.3-4.74 8.86-12.86 8.47-19.19-.13-2.43-1.15-4-3.35-4.47a2.06 2.06 0 0 0-2.48 1.24C94.59 8.56 91 19.5 92 28.3a11.45 11.45 0 0 0 .52 2.49 14.6 14.6 0 0 1-7.73 7.79 16.46 16.46 0 0 0 3.81-8.73c.74-4.61.45-9.18-3.34-10.37-3.38-1-6.4 1.63-8.35 4.4A4 4 0 0 0 75.69 22c-.51-.43-1.08-.31-1.45.52-1.55 3.65-4.07 13.45-5.52 20.91a5 5 0 0 1-2 1.71c-2.14.89-3.8-.87-3.16-4.13.6-2.87 2.34-7 2.61-9.51.29-2.75-1.25-5.25-3.42-4.45-2 .74-5.15 4.46-7.17 7.74 0-2.32-2.05-4.31-4.1-3.55s-5.59 5.27-7.3 8.63c.17-2.18-.35-4-1.87-4.9a.78.78 0 0 0-1.25.49C39 41.21 37.16 49.35 37 52.72a8.34 8.34 0 0 0 .1 1.72 8.18 8.18 0 0 1-3.52 3.79c-1.88.85-2.7-.88-2.31-4.09.36-2.77 1.65-6.86 2.11-9.37.54-2.84-.72-4.61-1.9-5-.64-.22-1 .08-1.33.84a57.31 57.31 0 0 0-3.28 14.1c-.2 4.4 2.09 6.87 6.63 5.07a11.84 11.84 0 0 0 4.55-3.33 2.77 2.77 0 0 0 1.4.72c.68.15 1-.17 1-.68.7-5.22 1.89-10.6 4.27-14.91 2.57-4.7 5-7.08 5.82-7.14C52 34.3 48 43.14 47.5 47.7c-.44 4 1.1 5.41 2.38 5.69a.89.89 0 0 0 1.29-.77c.82-5.27 2-10.81 5.49-16.55 2.72-4.5 4.55-5.8 5.08-5.85 1-.13-2.32 7.08-3 11.73s2.41 7 7.62 4.95a9.89 9.89 0 0 0 1.94-1 38.36 38.36 0 0 0-.67 5.5c0 3.23.76 4.39 2 5a.62.62 0 0 0 1-.49A163.25 163.25 0 0 1 74 38.77 4.78 4.78 0 0 0 77.21 41c2.66.64 5.34 0 9.09-1.64a16.69 16.69 0 0 0 7.57-6.32c1.4 1.3 3.46 1.38 5.88.48a12.79 12.79 0 0 0 5.32-4.06c.9.72 2.22.95 4.07.36a10.77 10.77 0 0 0 5.53-5.08c-.23 1.35-.38 2.72-.56 4-5.22 4.11-9.22 8.85-9.4 13.66-.13 3.17 1.7 4.29 3.43 5.18a3.21 3.21 0 0 0 3.79-.39c4.38-3.41 5.73-12.43 6.67-19.86 4.35-3.5 7.85-6.89 9.07-10.64a3.65 3.65 0 0 0 .03-3.03zM97 18.6c1.82-7.46 4.25-14.27 5.17-14.21s.45 8.67-5.74 17A24.21 24.21 0 0 1 97 18.6zM84 29.68c-1 5.48-3.6 10.32-6 9.91-2.09-.38-2.87-3.24-2.5-6.7.33-1.24.67-2.32 1-3.4 1.43-4.62 4.23-8.36 5.88-8.38s2.62 4 1.68 8.57zm24.67 15.91c-1.53-.71-1.3-8 5.12-14.51-1 8.17-3.94 15.07-5.06 14.51z" fill="#fff"/></svg>