<svg xmlns="http://www.w3.org/2000/svg" width="200" height="103" viewBox="0 0 200 103"><path d="M90.74,3.46v8.47H86.28V3.46H83.6V0h9.83V3.46Z" fill="#fff"/><path d="M101.24,11.93V7.81H98.79v4.12H94.31V0h4.48V4.18h2.45V0h4.48V11.93Z" fill="#fff"/><path d="M107.38,11.93V0h8.85V3.39h-4.41v.9H116v3.3h-4.19V8.5h4.58v3.43Z" fill="#fff"/><path d="M41.59,67.07V78.49h-6V67.07H32V62.41H45.22v4.66Z" fill="#fff"/><path d="M55.75,78.49V72.94h-3.3v5.55h-6V62.41h6v5.64h3.3V62.41h6V78.49Z" fill="#fff"/><path d="M64,78.49V62.41H76V67H70v1.21h5.64v4.45H70v1.23h6.18v4.62Z" fill="#fff"/><path d="M90.89,78.77c-4.8,0-8.72-2.84-8.72-8.3s3.9-8.29,8.72-8.29a9,9,0,0,1,5.27,1.37l-1.52,5.08a6,6,0,0,0-3.33-1.09,2.79,2.79,0,0,0-3,2.86,2.76,2.76,0,0,0,3,2.89A6.1,6.1,0,0,0,94.9,72l1.65,4.82C96.09,77.28,94.48,78.77,90.89,78.77Z" fill="#fff"/><path d="M97.65,78.49V62.41h6V73.6h5.43v4.89Z" fill="#fff"/><path d="M118,78.77c-5.13,0-8.83-3-8.83-8.3s3.7-8.32,8.83-8.32,8.85,3.06,8.85,8.32S123.11,78.77,118,78.77Zm0-11.54c-1.8,0-2.82,1.33-2.82,3.13a2.79,2.79,0,0,0,2.82,3.1c1.81,0,2.79-1.33,2.79-3.1S119.8,67.23,118,67.23Z" fill="#fff"/><path d="M151.4,62.41l-4.5,16.08h-6.27l-1.77-8.18-1.79,8.18h-6.25l-4.38-16.08h6.25l1.54,8.39,1.63-8.39H142l1.61,8.27,1.58-8.27Z" fill="#fff"/><path d="M161.67,78.49l-3.77-8S158,72.15,158,73v5.45h-5.9V62.41h6.36l3.78,8s-.14-1.77-.14-2.5V62.41H168V78.49Z" fill="#fff"/><path d="M74.32,101.47a7.89,7.89,0,0,1-5,1.4,10.35,10.35,0,0,1-6.43-2l2.35-4.34A8.8,8.8,0,0,0,70,98.21c.56,0,1-.14,1-.37s-.25-.37-1.47-.56a10.27,10.27,0,0,1-4.38-1.84,4.12,4.12,0,0,1-1.56-3.54,5.42,5.42,0,0,1,2-4.08,7.84,7.84,0,0,1,5-1.45,9.93,9.93,0,0,1,6,1.91l-2.21,4a7.15,7.15,0,0,0-4.06-1.45c-.56,0-1,.12-1,.4s.32.35,1.28.49a11.68,11.68,0,0,1,3.45,1.16,4.28,4.28,0,0,1,2.58,4.27A5.5,5.5,0,0,1,74.32,101.47Z" fill="#fff"/><path d="M87.19,102.59V97.05H83.88v5.54h-6V86.51h6v5.64h3.31V86.51h6v16.08Z" fill="#fff"/><path d="M103.66,102.87c-5.13,0-8.83-3-8.83-8.29s3.7-8.32,8.83-8.32,8.85,3,8.85,8.32S108.78,102.87,103.66,102.87Zm0-11.53c-1.8,0-2.82,1.33-2.82,3.12a2.79,2.79,0,0,0,2.82,3.1c1.82,0,2.79-1.33,2.79-3.1S105.48,91.34,103.66,91.34Z" fill="#fff"/><path d="M137.07,86.51l-4.5,16.08H126.3l-1.77-8.18-1.79,8.18H116.5l-4.39-16.08h6.25l1.54,8.39,1.63-8.39h6.1l1.61,8.28,1.59-8.28Z" fill="#fff"/><path d="M181,46.47l-4.09,12.36L164,54.58l4.1-12.36-4.56-25.65,14.13,4.68.39,12.58L186,24l14,4.65Z" fill="#fff"/><path d="M157.61,26.21l3.44,25.28L147.74,53.3,144.3,28l-8,1.09-1.41-10.32,29.36-4,1.41,10.32Z" fill="#fff"/><path d="M132.65,50.5c-3,2.3-6.77,3.13-11.09,3.13a23.21,23.21,0,0,1-14.38-4.48l5.26-9.69a19.52,19.52,0,0,0,10.47,3.75c1.25,0,2.13-.31,2.13-.83s-.57-.83-3.28-1.25A23,23,0,0,1,112,37c-2-1.62-3.49-3.75-3.49-7.92A12.13,12.13,0,0,1,112.86,20c2.29-1.88,6-3.23,11.14-3.23A22.16,22.16,0,0,1,137.49,21l-5,8.9c-3.85-2.55-6.61-3.22-9.06-3.22-1.25,0-2.29.26-2.29.88s.73.78,2.87,1.09a26.05,26.05,0,0,1,7.7,2.61c4.06,2.19,5.78,4.84,5.78,9.53A12.32,12.32,0,0,1,132.65,50.5Z" fill="#fff"/><path d="M85.16,53.81c-10.48-3.11-15-9.54-11.81-20.28l5.81-19.62L92.1,17.74,86.11,38c-.65,2.2,0,4,2.35,4.71S92.28,42.23,93,40l6-20.22,13,3.84-5.81,19.63C102.93,54,95.65,56.91,85.16,53.81Z" fill="#fff"/><path d="M67.37,30.46l11.2,10.43L64,46l-8.16-9.45-1.13.39,3.83,11L45.78,52.34,33.93,18.42,48.58,13.3c6.35-2.21,9.45-2.47,12.63-1.6A11.55,11.55,0,0,1,69,19.09C70.76,24.2,69.56,27.71,67.37,30.46ZM52.49,22.58l-2.86,1,1.79,5.11,2.85-1A2.68,2.68,0,0,0,56.11,24C55.56,22.39,53.91,22.09,52.49,22.58Z" fill="#fff"/><path d="M23.74,45.43l4.7,9.13-12,6.17L0,28.78l12-6.17L16.81,32l.32-12,14-7.2-3.19,18L48.21,44.38,34,51.72,24.16,43.4Z" fill="#fff"/></svg>