<svg xmlns="http://www.w3.org/2000/svg" width="230" height="106" viewBox="0 0 230 106"><g fill="#fff"><path d="M78.58 88.97h-3.09V86h9.69v2.97h-3.09v7.53h-3.51v-7.53zM85.97 86h3.51v3.71h3.21V86h3.51v10.5h-3.51v-3.77h-3.21v3.77h-3.51V86zM97.4 86h8.96v2.88h-5.51v1.07h5.13v2.54h-5.13v1.14h5.58v2.88H97.4v-10.5zM111.19 86h4.02c4.17 0 6.26 2.06 6.26 5.16v.03c0 3.1-2.13 5.31-6.38 5.31h-3.9V86zm4.1 7.44c1.61 0 2.64-.66 2.64-2.17v-.03c0-1.52-1.04-2.18-2.64-2.18h-.58v4.38h.58zM122.42 86h8.96v2.88h-5.51v1.07H131v2.54h-5.13v1.14h5.58v2.88h-9.03v-10.5zM136.06 85.93h3.48l4.43 10.58h-3.81l-.55-1.41h-3.68l-.54 1.41h-3.75l4.43-10.58zm2.67 6.68l-.96-2.55-.96 2.55h1.92zM144.4 86h5.13c1.86 0 3.05.46 3.78 1.2.63.63.96 1.41.96 2.49v.03c0 1.53-.8 2.6-2.07 3.21l2.45 3.57h-4.01l-1.98-3h-.75v3h-3.51V86zm5.03 5c.84 0 1.35-.38 1.35-1.02v-.03c0-.67-.53-1.01-1.34-1.01h-1.53V91h1.52zM155.12 86h8.96v2.88h-5.51v1.07h5.13v2.54h-5.13v1.14h5.58v2.88h-9.03v-10.5zM164.22 94.93l1.88-2.24c1.14.87 2.45 1.23 3.68 1.23.63 0 .9-.16.9-.45v-.03c0-.3-.33-.46-1.46-.69-2.36-.48-4.43-1.16-4.43-3.38v-.03c0-2 1.56-3.54 4.46-3.54 2.03 0 3.53.48 4.74 1.44l-1.71 2.37a5.526 5.526 0 0 0-3.15-1.04c-.53 0-.77.18-.77.44v.03c0 .29.29.47 1.4.67 2.69.49 4.49 1.28 4.49 3.39v.03c0 2.2-1.82 3.56-4.64 3.56-2.13 0-4.05-.6-5.39-1.77zM177.37 88.97h-3.09V86h9.69v2.97h-3.09v7.53h-3.51v-7.53zM188.57 86h4.02c4.17 0 6.26 2.06 6.26 5.16v.03c0 3.1-2.13 5.31-6.38 5.31h-3.9V86zm4.1 7.44c1.61 0 2.64-.66 2.64-2.17v-.03c0-1.52-1.04-2.18-2.64-2.18h-.58v4.38h.58zM199.8 86h8.96v2.88h-5.51v1.07h5.13v2.54h-5.13v1.14h5.58v2.88h-9.03v-10.5zM209.78 86h8.96v2.88h-5.51v1.07h5.13v2.54h-5.13v1.14h5.58v2.88h-9.03v-10.5zM219.75 86h5.13c1.86 0 3.05.46 3.78 1.2.63.63.96 1.41.96 2.49v.03c0 1.53-.79 2.6-2.07 3.21L230 96.5h-4.01l-1.98-3h-.75v3h-3.51V86zm5.03 5c.84 0 1.35-.38 1.35-1.02v-.03c0-.67-.53-1.01-1.34-1.01h-1.53V91h1.52z"/><g><path d="M84.8 34.92s-4.6.58-3.25-2.58 4.53-7.12 10.81-6.26 5.15 4.76 4.34 9.54-3.37 16.15-1.21 16.24 8.61-14.79 10.76-23.81 9.31-8.63 10.4-6.14-.91 11.33-2.42 15.58-4.85 14.02-3.84 17.67l-8.98 4.38-1.33-5.04s-8.45 9.07-12.45 7.54-6.27-8.65-2.81-27.13zM200.34 51.46s14 .1 18.48-6.63 3.94-14.04-7.63-13.74c-11.57.3-20.69 12.63-20.89 21.18-.2 8.55 11.2 11.44 16.87 10.28 5.67-1.16 9.83-3.12 9.83-3.12l4.13-9.25s-17.36 8.39-20.78 1.27zm8.65-10.31c1.68 2.68-2.31 4.28-6.22 3.43 0 0 4.54-6.11 6.22-3.43zM12.28 34.47s9.2-11.99 16.54-8.15-5.56 53.7-11 54.22-2.76-7.83-1.38-15.6.67-24.89-4.16-30.48z"/><path d="M.83 41.27c1.84 1.45 7.92-11.53 23.52-19.49 15.6-7.96 28.74-9.65 31.23-2.29s-11.82 19.73-21.93 22.9c0 0-6.77 13.88-5.36 16.58 1.41 2.7 1.77-4.02 17.63-8.47 15.86-4.45 22.22 2.63 22.49 8.09s-3.26 21.9-24.98 27.75c-21.72 5.85-32.65-8.8-36.86-14.82C2.36 65.5.7 92.76 7.78 99.66c7.08 6.9 27.33 9.32 46.35-3.39C73.16 83.56 85.39 67.82 77.3 52.11s-23.92-9.32-24.94-9.86 17.35-10.64 17.27-24.99S52.33-1.56 38 .46c-14.33 2.02-27.52 9.68-34.66 16.9 0 0-5.35 21.69-2.51 23.91zM121.54 25.71s10.1-5.71 11.63-5.16-6.32 15.45.57 18.01c6.9 2.56 9.58-15.11 8.45-18.01 0 0 5.73-3.13 6.96-2.28s.9 24.73-1.56 29.63-8.01 5.97-8.44 5.84 4.73-11.11 3.66-13.27-5.95 15.84-12.32 14.9-7.86-13.41-7.86-13.41-2.88 14.94-7.41 15.27 6.31-31.52 6.31-31.52zM171.95 29.83s7.5-3.86 5.24-10.99-15.93-7.12-25.59 4.61l2.49 3.46s-4.16 20.1-4 23.4c.16 3.3 1.92 5.84 5.24 6 3.32.16 18.06 0 22.32-15.31 4.26-15.3-5.7-11.18-5.7-11.18zm-16.04-2.97s11.24-8.19 12.04-3.03c.79 5.16-10.52 10.13-10.52 10.13s.79-2.79.7-4.03-2.16-2.33-2.16-2.33l-.05-.74zm9.71 19.5c-4.51 4.06-7.84.41-8.29-.06s-.47-6.43-.47-6.43c2.05 2 5.79-4.7 11.03-2.13 2.62 1.29 2.24 4.56-2.27 8.61zM188.25 30.31c2.44.57 2.65 3.45 1.73 6.66s-3.9 10.14-3.41 13.34c0 0-5.82 7.63-8.58 7.25s1.58-15.7 4.41-22.4 5.86-4.86 5.86-4.86zM195.2 17.8c3.47-.13 8.33.72 8.28 5.69s-8.78 6.77-11.01 5.69-7.35-.83-7.8-3.55 5.82-7.65 10.53-7.83zM225.27 75.4s-29.7-14.44-59.61-16.88-70.32 2.83-74.96 5.49-11.17 14.07-8.94 14.32 24.81-15.34 71.67-11.69c46.87 3.65 60.27 14.44 71.84 8.76z"/></g></g></svg>