<svg xmlns="http://www.w3.org/2000/svg" width="260" height="124" viewBox="0 0 260 124"><polygon points="31.13 77.28 35.65 74.95 33.17 54.34 32.83 54.87 31.13 77.28" fill="#fff"/><polygon points="85.8 21.3 85.8 21.3 85.8 21.3 85.8 21.3" fill="#fff"/><path d="M74.12,30.88l-1.19.48c.28,1.64,1,4.5,2.24,4.15,1-.29,1.56-3.12,1.81-5.4l-1.26.47v-4l-1.6-.71h0Z" fill="#fff"/><polygon points="167.87 30.96 172.22 11.6 160.9 0 160.9 0 167.87 30.96" fill="#fff"/><polygon points="13.7 50.07 13.7 50.07 13.7 50.07 13.7 50.07" fill="#fff"/><path d="M96.2,38.22a.77.77,0,0,1-.12-.42V32.52L85.8,21.3v5.53l-3,1.12-4,19.77.87,16.39,2.21-.78v4.8l-11.8,4.79V67.51l2.21-.78v-16l-4.9-17.1-2.72,1.1V30.83l-1.28.67V37l-2,1.13L54.68,73.52l4-1.81-.2-6.66,3.62-1.52L62.4,75,46,83.85,46,78.53l1.6-1,7.5-35.86-4.91,2.8.22,4.31-3.83,1.88-.23-4.59-4.65-5.28V48.1l-2.39,1.23,3.08,29.91,2.45-1.37v6.39l-10,5.57V83.44l1.72-1-.29-2.41L30.69,83l-.2,2.69,2-1.12v6.38l-10,5.57V90.12l2.4-1.34,1.91-26.1L13.7,50.07v6.5l-3.47,2.29.42,39.35,6-4.1V86.75L21,83.85V97.7L.54,111.86,10.78,123.6,33.2,108.16l9.64-4.59V97.86L46,101.69,56.14,96.5,67,89.83l6.26-2.74V75.41l8.62,8.75,11.41-3.75s1.67-4.81-2.5-6.89l-1.67-13.3,4.5-20.91Z" fill="#fff"/><polygon points="109.72 8.28 109.72 8.28 109.72 8.28 109.72 8.28" fill="#fff"/><path d="M104,18.89v32.6a1.87,1.87,0,0,0,3.73,0V18.89a1.87,1.87,0,0,0-3.73,0Z" fill="#fff"/><path d="M142.42,11.38c-.18,4.28-8.1,11.75-8.1,11.75h-4.65l2.43-7.22-4.25-3.62h0v5.37l-2.68.43.48,33.63,4-.67V44.16l4-.64v6.86h0v5.07l-16,3v-5.4l2-.35L119.15,19l-2.22.35V13.84l.36-.05-4-2.93a9.84,9.84,0,0,1,2.47,6.51V52a9.86,9.86,0,0,1-15.35,8.21h0l11.88,12.7s8,1.91,12.1-7.29l5.3,5.1,14.73-2.6L145.23,56l-8.34-8.4-.84-17.43,5,4.5h4.17s7.19-6.88,8.81-11.56Z" fill="#fff"/><path d="M200.36,9.91l0,0h0Z" fill="#fff"/><path d="M194.45,45A1.57,1.57,0,0,0,196,43.5V16.89a1.6,1.6,0,0,0-3.19,0V43.5A1.57,1.57,0,0,0,194.45,45Z" fill="#fff"/><path d="M211.82,16.89V43.5a1.61,1.61,0,0,0,3.22,0V16.89a1.61,1.61,0,0,0-3.22,0Z" fill="#fff"/><polygon points="236.38 12.98 232.77 9.87 237.69 29.36 238.15 15.37 236.3 15.37 236.38 12.98" fill="#fff"/><path d="M256.79,60.15l-.09-33.3a3.33,3.33,0,0,0,1.91-2.77V22.17L246.5,10.34v5.38l-1.2-.07V50.89H248v4.72l-9.1-.46L234.72,33.9V50l2,.09.09,5-12.06-.37V49.5h2.14l-.39-31-6.11-7.42h0a7.71,7.71,0,0,1,1.51,4.57V43.92a8.53,8.53,0,0,1-17,0V15.65a6.78,6.78,0,0,1,.11-1.2L200.48,10a7.83,7.83,0,0,1,2.41,5.62V43.92a8.45,8.45,0,0,1-16.89,0V15.65a8.17,8.17,0,0,1,6.2-7.77l.05-1.15L185.12,0V6.37h-3.28V46.71h3.28V52.3H172.8V46.71h1.95L174,27.5,169.2,49.29c-.47,2.16-2,2-2.47.21-.76-2.73-4.82-20.27-4.82-20.27l-.45,18.39h1.63v5.59H150.76l12.33,12.3h11.74V60.22l-2-3.42L179,63.33l2.88-3.11,3.28,4.54L196,64.35V60.22l-1.59-4.61,8.44,8.53s9.46-1,10.54-3.92l1.07-3s4.51,7.51,9.46,7.1A18.88,18.88,0,0,0,232,61.89l4.8,4.75H248l.73-1.53,2.17,2H260V63.55Z" fill="#fff"/><path d="M13.17,51.06v5.23L9.94,58.42l-.24.16v.29l.42,39.35,0,1,.82-.57,5.94-4.11.23-.16V87l3.35-2.21V97.42L1.08,110.85l0-5.4,2.75-1.9.24-.16v-.29L3.48,63.67v-1l-.81.53L.53,64.64V59.52l12.64-8.46m.53-1L0,59.24v6.39l3-2,.61,39.44-3,2.06,0,6.69L21,97.7V83.85l-4.41,2.9v7.36l-6,4.1-.42-39.35,3.47-2.29v-6.5Z" fill="#fff"/><path d="M41.14,41.72v6.05L39,48.86l-.33.16,0,.36,3.08,29.91.09.8.7-.39,1.66-.92V84l-8.93,5V83.76l1.46-.82.31-.17,0-.35L36.79,80l-.09-.76L36,79.6l-5.57,2.91-.26.14,0,.29L30,85.63l-.08,1,.86-.48L32,85.45v5.17l-8.92,5V90.43l2.13-1.19.25-.13,0-.29,2.44-33.33.07-.94-.84.43-1.86,1V50.39l15.88-8.67M30.53,78.19l.84-.44,4.52-2.33.33-.17,0-.36L33.51,52.78l-1,0L30.6,77.24l-.07,1M41.67,40.82,24.73,50.07V56.8l2.63-1.35L24.92,88.78l-2.4,1.34V96.5l10-5.57V84.55l-2,1.12.2-2.69,5.57-2.91.29,2.41-1.72,1v6.38l10-5.57V77.87l-2.45,1.37L39.28,49.33l2.39-1.23V40.82ZM31.13,77.28,33,52.85,35.65,75l-4.52,2.33Z" fill="#fff"/><path d="M62.85,32.31v4.34l-1.7,1-.21.12,0,.24L54.16,73.42l-.2,1,.93-.42,4-1.8.32-.15V71.7L59,65.4l2.57-1.08.28,10.41L46.56,83l-.06-4.14L47.84,78l.2-.12.05-.23,7.5-35.86.24-1.15-1,.58L49.89,44l-.28.17,0,.32.2,4L47,49.86,46.52,39.5l16.33-7.19m.53-.81L46,39.16l.58,11.53,3.83-1.88-.22-4.31,4.91-2.8-7.5,35.86-1.6,1L46,83.85,62.4,75l-.31-11.51-3.62,1.52.2,6.66-4,1.81,6.73-35.44,2-1.13V31.5Z" fill="#fff"/><path d="M85.27,22v4.43l-2.66,1-.28.1-.06.29-4,19.78v.13l.87,16.39,0,.71.67-.24,1.5-.53v3.69L70.6,72.13V67.89l1.86-.66.35-.13V50.61l0-.07-4.9-17.09-.16-.57-.54.22-2,.81V29.83l8.4-3.22v3.91l-.86.35-.39.16.07.42c.53,3.11,1.36,4.62,2.54,4.62a1.49,1.49,0,0,0,.36,0c.69-.19,1.67-1,2.2-5.86l.09-.85-.8.3-.55.2V25l9-3m.53-.73L75.72,24.61v6L77,30.11c-.25,2.28-.76,5.11-1.81,5.4l-.22,0c-1.14,0-1.76-2.63-2-4.18l1.19-.48v-5l-9.46,3.63v5.22l2.72-1.1,4.9,17.1v16l-2.21.78v5.41l11.8-4.79v-4.8l-2.21.78-.87-16.39,4-19.77,3-1.12V21.3Z" fill="#fff"/><path d="M105.87,8a9.37,9.37,0,0,1,9.35,9.35V52a9.35,9.35,0,1,1-18.7,0V17.37A9.36,9.36,0,0,1,105.87,8m0,45.86a2.39,2.39,0,0,0,2.39-2.39V18.89a2.4,2.4,0,0,0-4.79,0v32.6a2.4,2.4,0,0,0,2.4,2.39m0-46.39A9.91,9.91,0,0,0,96,17.37V52a9.88,9.88,0,1,0,19.75,0V17.37a9.91,9.91,0,0,0-9.87-9.88Zm0,45.86A1.87,1.87,0,0,1,104,51.49V18.89a1.87,1.87,0,0,1,3.73,0v32.6a1.87,1.87,0,0,1-1.86,1.86Z" fill="#fff"/><path d="M127.32,12.9v4.31l-2.24.36-.45.07v.46l.48,33.62v.62l.61-.1,4-.67.44-.08V44.61l3-.47V55l-15,2.8V53.49l1.61-.26.45-.08v-.46L119.68,19v-.61l-.61.1-1.6.25V14.3l9.86-1.4m.53-.61-10.92,1.55v5.55l2.22-.35.56,33.66-2,.35v5.4l16-3V50.38h0V43.52l-4,.64v6.89l-4,.67-.48-33.63,2.68-.43V12.29Z" fill="#fff"/><path d="M141.81,12c-.76,3.77-6.68,9.63-7.71,10.63h-3.69l3.3-9.82,8.1-.81m.61-.59-9.1.91-3.65,10.84h4.65s7.92-7.47,8.1-11.75Z" fill="#fff"/><path d="M194.45,8.11a7.74,7.74,0,0,1,7.91,7.54V43.92a7.92,7.92,0,0,1-15.83,0V15.65a7.74,7.74,0,0,1,7.92-7.54m0,37.44a2.09,2.09,0,0,0,2.12-2V16.89a2.13,2.13,0,0,0-4.25,0V43.5a2.09,2.09,0,0,0,2.13,2m0-38A8.29,8.29,0,0,0,186,15.65V43.92a8.45,8.45,0,0,0,16.89,0V15.65a8.29,8.29,0,0,0-8.44-8.07Zm0,37.44a1.57,1.57,0,0,1-1.6-1.52V16.89a1.6,1.6,0,0,1,3.19,0V43.5A1.57,1.57,0,0,1,194.45,45Z" fill="#fff"/><path d="M213.43,8.11a7.78,7.78,0,0,1,8,7.54V43.92a8,8,0,0,1-16,0V15.65a7.78,7.78,0,0,1,8-7.54m0,37.44a2.09,2.09,0,0,0,2.13-2V16.89a2.14,2.14,0,0,0-4.27,0V43.5a2.1,2.1,0,0,0,2.14,2m0-38a8.33,8.33,0,0,0-8.52,8.07V43.92a8.53,8.53,0,0,0,17,0V15.65a8.32,8.32,0,0,0-8.51-8.07Zm0,37.44a1.57,1.57,0,0,1-1.61-1.52V16.89a1.61,1.61,0,0,1,3.22,0V43.5A1.58,1.58,0,0,1,213.43,45Z" fill="#fff"/><path d="M232.36,10.4l4.81,19.09.92,3.64.13-3.76.46-14,0-.54h-1.86l.15-4.41,9,.41v4.32l-.65,0-.55,0V51.42h2.69v3.63l-8.13-.41L235.24,33.8l-1.05.1V50.46l.5,0,1.55.07.07,4-11-.34V50h2.14v-.54L227,14.6v-.53h-2.52V10.4h7.87m4.12-.53-.18,5.49h1.85l-.46,14L232.77,9.87H224V14.6h2.53l.44,34.9h-2.14v5.18l12.06.37-.09-5-2-.09V33.9l4.17,21.25,9.1.46V50.89H245.3V15.65l1.2.07V10.34l-10-.47Z" fill="#fff"/><path d="M184.59.53V5.84h-3.28v41.4h3.28v4.53H173.33V47.24h2l0-.55-.74-19.21-.15-4.12-.89,4s-4.3,19.44-4.81,21.79c-.19.87-.54,1.19-.73,1.19s-.52-.27-.72-1c-.74-2.69-4.78-20.08-4.82-20.25L161.48,25l-.1,4.18-.45,18.39v.55h1.64v4.53H151.29V48.15h3.49v-.54l-.33-41.24V5.84h-3.28V.53h9.33l6.87,30.54.52,2.3.52-2.3L175.26.53h9.33m.53-.53H174.83l-7,31-7-31H150.62V6.37h3.29l.33,41.25h-3.48v5.59h12.33V47.62h-1.63l.45-18.39S166,46.77,166.73,49.5c.25.9.74,1.39,1.23,1.39s1-.51,1.24-1.6L174,27.5l.74,19.21H172.8V52.3h12.32V46.71h-3.28V6.37h3.28V0Z" fill="#fff"/></svg>