<svg xmlns="http://www.w3.org/2000/svg" width="150" height="194" viewBox="0 0 150 194"><path d="M7.38,1.23c.77,0,2.08-.61,2.77-.61A1.22,1.22,0,0,1,11.54,2c0,.38-.16,1.69-.16,1.92,0,3.16.77,3.39.77,5.31,0,1.23-1.84,1.31-1.84,2.39a13.05,13.05,0,0,0,.54,2.69c0,.77-.39,2.23-.39,2.77a1.58,1.58,0,0,0,1.46,1.77c.85,0,.46-2.93,2.23-7,1.7-3.85,1.23-4.08,2.77-5.77a15.6,15.6,0,0,0,2.62-3.54c.61-1.69,1.54-1.85,2-1.85s1.69.23,2.31.23c.92,0,1.77-.69,2.61-.69a1,1,0,0,1,.93,1.08c0,1-1.62,7.77-1.62,9.54,0,1.07.54,2.53.54,4.07,0,1.39-.39,1.7-.93,1.7a1.1,1.1,0,0,1-1-1.16c0-1.46.16-2.69.16-3.23s-.08-1.31-.69-1.31c-.85,0-1.54,1.77-1.54,2.93s.54,2.15.54,3.07c0,.77-.23,1.23-.77,1.23-.39,0-.93-.3-1.23-.3-1,0-1.31,1.3-1.31,2.15s.77,2.62.77,3.69c0,.69-.16,2-.16,2.77a8.08,8.08,0,0,0,.93,3.62c2.07,4.46,1,4.07,3.07,10.54-.46-.85,4.08,5.69,4.08,7.84a1.12,1.12,0,0,0-.08.54c0,.62.31,1.46.39,2.69-.16,1.31-2.85,2-2.85,3.16,0,.77.69,2.38.69,3.07,0,.39-.46,3.16-1.23,3.16-1,0-1.23-1.93-1.23-3.08,0-.31.16-1.31.16-1.69a.91.91,0,0,0-.93-1c-.53,0-1,1.31-1.3,1.31-.7-.08-.62-1.77-.77-2.08A18.84,18.84,0,0,1,19,52.31c-.77-1.16-.69-3.54-.77-4.39-.46-2.07-1.38-4.3-1.92-6.46-.85-2.92-2.62-5.84-2.62-9.31,0-1.92-.38-2.15-.69-2.15-1,0-1.77.69-1.77,2.23,0,.69,1.15,2.39,1.15,3.16A8.1,8.1,0,0,1,12,38a29.42,29.42,0,0,0-1.46,10.31c0,1.23.84,2.38.84,3.54,0,.69.08,1.23-1.92,2.69-1.15.85-1.31,1.46-1.31,2.08,0,.46.31,1.53.31,2,0,2.3-.54,3.23-1.23,3.23-1.23,0-1.15-6.62-1.92-6.62-.93,0-.31,2.62-1.69,2.62-1.47-.39-2.08-8.46-2.08-9.7s.38-2.3.38-3.23C1.92,43.23,0,42.23,0,41.31,0,39,2,39.85,2,33.46c0-1.46-.15-2.61-.15-3.15,0-1.92.61-2.39.61-7.16,0-1.69-.77-3.84-.77-5.92,0-1.85.54-3.61.54-5,0-2.08-.46-5.77-.46-8.31,0-2.77.85-3.15,2.69-3.15C5.38.77,6.46,1.23,7.38,1.23Z" fill="#fff"/><path d="M41.54,20.77a1.21,1.21,0,0,0-1.39,1.31c0,1.31.62,2.69.62,4.07a34.39,34.39,0,0,1-.46,5.7c0,1.23,1.15,4.54,1.15,6.61,0,1.23-.69,3.31-.69,5.39,0,.84.08,2.23.08,2.77,0,1.3-.39,3.07-.39,3.84,0,.54,1,2.23,1,2.62,0,1.84-3.38.38-3.38,1.77,0,.84.46,3.69.46,4.3,0,.85-.39,2.77-1.54,2.77-.38,0-.54-.69-.54-2,0-.77.08-2.92.08-3.69,0-1.23-.08-1.84-.46-1.84-1.23,0-.85,4-2.08,4-.46,0-.77-.24-.77-.93,0-1.23.15-2.46.15-2.69,0-.46-.3-.77-1.23-1.92A5.45,5.45,0,0,1,30.69,49a30.25,30.25,0,0,0,.85-6.15c0-3.23.77-5.39.77-6.46,0-1.54-1.62-1.77-1.62-4.08,0-2.46,1.93-4.69,1.93-7.46a58.1,58.1,0,0,0-.47-6.77c0-.54.39-2.77.39-3.54a6.23,6.23,0,0,0-1.16-2.77c-.69-1-.76-.85-.76-1.85s1.15-3.3,1.15-4.38a24.49,24.49,0,0,1-.54-3.31A1.55,1.55,0,0,1,32.92.62c.62,0,2.23.69,3.16.69.77,0,1.54-.54,2.3-.54,1.39,0,4,1.15,4,3.61,0,1.85-1.23,3.7-1.23,5.39,0,2.23,1.54,7.92,1.54,10.15,0,.62-.15.93-.38.93S41.77,20.77,41.54,20.77Z" fill="#fff"/><path d="M69.77,47.08c0,.84-1,2.15-1,2.46,0,.61.61,1.77.61,2.31s-.46,1.07-1.3,1.46c-1.7.69-2.39,1.84-2.39,2.23,0,.77.62,1.77.62,3.08a1.15,1.15,0,0,1-1.08,1.23.85.85,0,0,1-.92-.93c0-.53.15-1.38.15-2.15,0-1.23-.31-2.85-1.69-2.85-1.15,0-.15,5.23-1.23,5.23-1.62,0,0-4.46-2.85-4.46-.46,0-1.23.62-1.61.62-.85,0-2.08-1.08-2.7-1.08-1.84,0-3.38.54-3.38,2.31,0,.31.15,1.38.15,1.69,0,.54-.23.85-.77.85-.92,0-1-1.85-1.23-3.54-.07-.54-1.23-1.46-1.46-2.31a15.18,15.18,0,0,1-.38-3.38V44.69c0-3-.93-5.77-.93-8,0-1.84,1.54-4.61,1.62-6.15a20,20,0,0,0,.08-2.15c0-1.54-.08-3.08-.08-4.16,0-1.61,1.15-4.38,1.15-6.15,0-3-1.84-4.46-1.84-6.39a39.83,39.83,0,0,0,.77-5.92c0-.85-.85-2.69-.85-3.31C47.23.77,48.08,0,49.46,0c1.23,0,3.16,1.46,5.16,1.46,1.76,0,3.3.46,3.3,2.46,0,.54-.61,2-.61,2.7,0,.92.46,2.61.46,3.53,0,.7-.77,2.08-.77,2.85,0,.62,1.54,2.54,1.54,3.62s-1.69,2.3-1.69,3.38c0,.62.46,2.39.46,2.62,0,1.07-1,2-1,3.38,0,.23.54,3.39.54,4.39,0,1.61-.54,4.46-.54,6.07s.54,2.62.54,3.54-.08,1.15-.08,2.15c0,2.24,1.31,3.7,3.31,3.7.84,0,2.69-.62,3.61-.62.62,0,.85.08,1.39.08.84,0,1.61-.08,2.23-.08C69.23,45.23,69.77,46.15,69.77,47.08Z" fill="#fff"/><path d="M94.38,47.08c0,.84-1,2.15-1,2.46,0,.61.62,1.77.62,2.31s-.46,1.07-1.31,1.46c-1.69.69-2.38,1.84-2.38,2.23,0,.77.61,1.77.61,3.08a1.14,1.14,0,0,1-1.07,1.23.85.85,0,0,1-.93-.93c0-.53.16-1.38.16-2.15,0-1.23-.31-2.85-1.7-2.85-1.15,0-.15,5.23-1.23,5.23-1.61,0,0-4.46-2.84-4.46-.46,0-1.23.62-1.62.62-.84,0-2.07-1.08-2.69-1.08-1.85,0-3.38.54-3.38,2.31,0,.31.15,1.38.15,1.69,0,.54-.23.85-.77.85-.92,0-1-1.85-1.23-3.54-.08-.54-1.23-1.46-1.46-2.31a15.16,15.16,0,0,1-.39-3.38V44.69c0-3-.92-5.77-.92-8,0-1.84,1.54-4.61,1.62-6.15.07-.77.07-1.46.07-2.15,0-1.54-.07-3.08-.07-4.16,0-1.61,1.15-4.38,1.15-6.15,0-3-1.85-4.46-1.85-6.39a39.83,39.83,0,0,0,.77-5.92c0-.85-.84-2.69-.84-3.31C71.85.77,72.69,0,74.08,0c1.23,0,3.15,1.46,5.15,1.46,1.77,0,3.31.46,3.31,2.46,0,.54-.62,2-.62,2.7,0,.92.46,2.61.46,3.53,0,.7-.76,2.08-.76,2.85,0,.62,1.53,2.54,1.53,3.62s-1.69,2.3-1.69,3.38c0,.62.46,2.39.46,2.62,0,1.07-1,2-1,3.38,0,.23.54,3.39.54,4.39,0,1.61-.54,4.46-.54,6.07s.54,2.62.54,3.54-.08,1.15-.08,2.15c0,2.24,1.31,3.7,3.31,3.7.85,0,2.69-.62,3.62-.62.61,0,.84.08,1.38.08.85,0,1.62-.08,2.23-.08C93.85,45.23,94.38,46.15,94.38,47.08Z" fill="#fff"/><path d="M121.62,20.77a1.21,1.21,0,0,0-1.39,1.31c0,1.31.62,2.69.62,4.07a33.68,33.68,0,0,1-.47,5.7c0,1.23,1.16,4.54,1.16,6.61,0,1.23-.69,3.31-.69,5.39,0,.84.07,2.23.07,2.77,0,1.3-.38,3.07-.38,3.84,0,.54,1,2.23,1,2.62,0,1.84-3.39.38-3.39,1.77,0,.84.47,3.69.47,4.3,0,.85-.39,2.77-1.54,2.77-.39,0-.54-.69-.54-2,0-.77.08-2.92.08-3.69,0-1.23-.08-1.84-.47-1.84-1.23,0-.84,4-2.07,4-.46,0-.77-.24-.77-.93,0-1.23.15-2.46.15-2.69,0-.46-.31-.77-1.23-1.92A5.4,5.4,0,0,1,110.77,49a30.58,30.58,0,0,0,.84-6.15c0-3.23.77-5.39.77-6.46,0-1.54-1.61-1.77-1.61-4.08,0-2.46,1.92-4.69,1.92-7.46a59.34,59.34,0,0,0-.46-6.77c0-.54.39-2.77.39-3.54a6.23,6.23,0,0,0-1.16-2.77c-.69-1-.77-.85-.77-1.85s1.16-3.3,1.16-4.38a23,23,0,0,1-.54-3.31A1.55,1.55,0,0,1,113,.62c.62,0,2.23.69,3.15.69.77,0,1.54-.54,2.31-.54,1.39,0,4,1.15,4,3.61,0,1.85-1.23,3.7-1.23,5.39,0,2.23,1.54,7.92,1.54,10.15,0,.62-.15.93-.39.93S121.85,20.77,121.62,20.77Z" fill="#fff"/><path d="M150,6.08c0,1.23-1.15,4.3-1.15,5.84a14.23,14.23,0,0,0,.3,2.54c0,.92-.23,1.31-.92,1.31-2,0-.92-5.15-1.92-5.15-.85,0-.93,1.92-1.62,1.92-1,0-1.38-1.69-2.69-1.69-1.69,0-2.15,1.15-2.15,4.23,0,.77.3,1.92.3,2.46,0,2.31-.46,4-.46,5.31,0,3.92,1.54,4.77,1.54,10.07,0,3.93-1.38,5.85-1.38,8.93,0,2.23.69,3.23.69,4.84,0,.54-.23,1.31-.23,1.77,0,.85.92,2.46.92,3.39-.23,2.23-4.08,1.15-4.08,5.77,0,2.15.93,3.69.93,6.23,0,.84-.77,1.54-2.23,1.54-1.23,0-1.85-.47-1.85-1.47,0-1.38.77-2.61.77-3.92,0-2.61,0-6.38-1.39-6.38-.69,0-.61,1.3-1.38,1.3-1.15,0-1.77-5.3-1.77-7,0-4.69,2-11.3,2-13.07a47,47,0,0,0-.38-5.16c0-1.69.53-7.3.92-10.69.31-2.69,1-6,1-7.38,0-1.54-1.46-1.54-2.15-1.54-2.16,0-1.47,5.07-3.54,5.07-1.77,0-1.08-5.07-3.62-5.07a1.78,1.78,0,0,1-1.85-1.54c0-.62,1.08-2,1.08-2.92S123,2.62,123,2s.38-.92,1-.92c1.31,0,2.46,1.15,3.85,1.15,2.92,0,4.53-1.61,6.46-1.61,3.46,0,4.15,1,7.84,1,2.23,0,3.7-1.08,4.77-1.08C149.08.54,150,4.15,150,6.08Z" fill="#fff"/><path d="M23.17,105.22c0,.65-.23,1-.7,1s-.51-.33-.65-.33c-.6,0-.32,3.21-1.25,3.21-.51,0-.79-.7-1.26-.7-1,0-.18,4.27-1,4.27-.37,0-.47-.55-.47-.83s.05-1.91.05-2.14-.09-.51-.47-.51-.37.74-.83.74-.74-.79-1.3-.79-.47.33-.74.33c-.42,0-.65-.74-1.12-.74s-.42.51-.42.88c0,.56.14,1.3.14,1.62,0,.47-.14,1-.69,1-1.35,0-.7-3.16-1.44-3.16C10,109,10.77,112,9.79,112a1,1,0,0,1-1.07-1.16c0-1.44-1.11-1.07-1.11-1.91,0-1.3.42-2.37.42-4,0-1.06-.51-1-.51-1.76,0-1.16.37-1.58.83-6C8.91,91.57,9,89.76,9,89s-.1-1.3-.28-1.3c-.65,0-.61,1.91-1.16,1.91-.33,0-.38-.61-.38-1.35,0-1,.56-1.86.56-3.39,0-.46.23-1.53.23-1.9a22.94,22.94,0,0,0-.32-3.44A2.13,2.13,0,0,1,9.33,77.4c.28,0,1,.37,1.39.37a16,16,0,0,1,1.77-.32c.13,0,1,.32,1.34.32s1.4-.32,1.91-.32,1.85.83,2.09.88c2.92.7,4.64,2.74,4.64,4.6A16.27,16.27,0,0,0,22.8,86a13.87,13.87,0,0,1-.28,2.69c-.47,2.33-.1,3.77-1,3.77-.32,0-.32-.28-.6-.28s-.42.6-1,.6-.6,0-.6.33c0,1.39,2.51,1.39,2.51,2.32,0,.37-.24.56-.24.7s.14.32.42.65a3.73,3.73,0,0,1,.89,3c0,1-.1,1.86-.14,3.16C22.8,103.41,23.17,104.9,23.17,105.22Zm-6-19.41c-.1,0-.47.88-.84.88a.56.56,0,0,1-.56-.6c0-.79.56-1.44.56-2.56,0-.51-.6-.74-1.16-.74-.74,0-.51,1.21-.74,1.21-.51,0-.28-1.49-.79-1.49S13,84.46,13,85.2c0,.47.1.89.1,1.17,0,.74-.65,1.44-.65,2.13,0,1.67,2.27,2.51,3.11,2.51s1.48-1.11,1.48-2.18c0-.33-.18-.7-.18-1,0-.51.42-1.16.42-1.48S17.27,85.81,17.18,85.81Zm-.61,15.6c0-1.11.47-2.41.47-3.06s-.28-1.07-.75-1.07c-.65,0-.09,1.9-.69,1.9s-.79-.74-.79-1.62c0-.33.14-.6.14-1.3,0-.47-.1-.6-.37-.6-.42,0-1,1-1,2.6,0,1.2.79,2,.79,2.46,0,.23-.14.32-.37.32s-.65-.37-.93-.37-.37.19-.37.51c0,.56.33.79.33,1.81,0,.38.14.7.46.7.14,0,.37-.09.51-.09.61,0,.61.79.88.79,1.77,0,3-1,3-1.72S16.53,102.11,16.57,101.41Z" fill="#fff"/><path d="M39.38,107.27c0,.23.09.79.09,1.48s-.23.79-.7.79-1.76-.46-2.32-.46a1,1,0,0,0-1,1,7.51,7.51,0,0,1,.51,2.23c0,.37-.05.51-.47.51-.69,0-1.2-3.43-2-3.43s-1.16.88-1.16,1.2.28.65.28,1c0,.88-.28,1-.65,1-1.44,0-1.16-2.88-1.95-2.88-.14,0-.47.7-.89.7s-1-.7-1.34-.7-.56.28-.75.28c-.83,0-.55-1.67-.65-2V107c0-.23.05-.83.05-1.16v-1c0-1.48.32-4.83.32-6.27a15.75,15.75,0,0,1,.61-2.92c0-.42-.19-.66-.7-.66-.18,0-.46.14-.65.14-.37,0-.42-.51-.42-.79a1.82,1.82,0,0,1,.19-.88,7.2,7.2,0,0,0,.65-3.39c0-1.58.6-2.74.6-3.9,0-.33-.46-1.58-.46-2.23,0-.46.09-1.21.09-1.62s-.23-1.17-.23-1.63c0-.23.14-.6.14-.84s-.47-.88-.47-1.25c0-.74.75-1.07,1.77-1.07.18,0,.6,0,.93,0,.83,0,1-.42,1.72-.42.41,0,.88.42,1.2.42s.47-.28.93-.28c.65,0,1.49.74,2.19.74.46,0,.93-.51,1.58-.51.46,0,.65.23,1,.23s.51-.32,1.21-.32c.32,0,.56.6.56,2.32,0,1.21.65,5.48.65,7.15,0,.56-.28.89-.93.89-.42,0-.65-.24-.65-.7s.09-1.63.09-1.77c0-1.62-.14-3-.42-3-.83,0,0,3.06-1,3.06a.46.46,0,0,1-.51-.37,6.68,6.68,0,0,0-.47-1.67,3.44,3.44,0,0,0-1.72-.84c-1,0-1.11,1.16-1.62,1.16-.28,0-.42-.09-.61-.09-1,0-1.25,1.07-1.25,2.51,0,2.74,1.76,4.32,2.46,4.32.14,0,1.58-.33,1.77-.33a11.51,11.51,0,0,1,2-.14c.46,0,.79.51.79,1.16,0,.33-.42,1.16-.42,1.63,0,1,.88,3.39.88,4.09s-.7,2-1.11,2c-.93,0-.24-2.55-1.4-2.55-1,0-.18,1.72-1,1.72-.56,0-.75-1.54-1.26-1.54-.32,0-.65-.18-1-.18s-.61.09-.61.46a12.46,12.46,0,0,1,.33,3c0,.69-.65,2-.65,2.46,0,.74.65,1.72,2.65,1.72.27,0,.65,0,1.06,0,.65,0,1.86.37,2.47.37.18,0,.41,0,.65,0a1.6,1.6,0,0,1,1.44,1.44C39.8,106.11,39.38,106.85,39.38,107.27Z" fill="#fff"/><path d="M55.73,78.84a2.39,2.39,0,0,1,.14.74,17.12,17.12,0,0,1-.42,2.28c0,1.53.32,4.13.32,5.11a.66.66,0,0,1-.69.74c-.14,0-.24-.18-.24-.55,0-.61.28-1.31.28-1.68,0-.18-.18-.28-.37-.28s-.69.28-.83.28a.47.47,0,0,1-.47-.46A8.36,8.36,0,0,0,53.73,84c0-.56-.37-1.16-.84-1.16s-.74.65-.74,1.07.19,1.86.19,3.34c0,.65-.1.93-.33.93-.79,0-.93-.84-1-1.58,0-.46-.1-3.48-.84-3.48-.33,0-.51.69-.7.69s-.32,0-.46,0a.63.63,0,0,0-.6.7c0,.32.37,1.62.37,2.09,0,.92-.89,2.46-.89,3s.38,1.17.89,1.17c.74,0,1.34-.65,2.09-.65.37,0,1,.41,1.48.41a1.86,1.86,0,0,0,1-.32c.32,0,.51.14.51.46,0,1.12-.65,1.58-.65,3.44,0,1,.14,2.09.18,3.06,0,.56-.18.79-.69.79-.93,0-.47-2.32-1.3-2.32-.51,0-1,1.07-1.49,1.07-.28,0-1-1.16-1.58-1.16s-.79.6-.79,1.39c0,1.21.51,2.23.51,3.3a7.56,7.56,0,0,1-.37,1.9c0,2.47.33,3.81.33,5.49,0,1-.19,4.27-1.12,4.27-.23,0-.6-.09-.6-.51a5.33,5.33,0,0,1,.23-1.21.38.38,0,0,0-.37-.42c-.51,0-.47.61-1,.61-.69,0-.92-1.3-1.48-1.3-.19,0-.56,0-.7,0a.62.62,0,0,1-.65-.7c0-.6.42-1.11.42-1.57,0-1.49-.19-2.09-.19-3.77a35.39,35.39,0,0,1,.56-5.11c0-.37.14-.6-1.07-1.71a.91.91,0,0,1-.32-.7c0-1.12,1.25-1.07,1.25-4.37s-1-3.94-1-7.1c0-1.54.84-3.07.84-4.37,0-.28-.52-1.21-.52-1.62a.68.68,0,0,1,.75-.7c.6,0,1.25.46,2.13.46.33,0,1-.23,1.4-.23s1.16.23,1.53.23,1.86-.41,2.79-.41a18.19,18.19,0,0,1,2.32.32c.37,0,.84-.32,1.39-.32a.82.82,0,0,1,.7.51Z" fill="#fff"/><path d="M71.38,80c1,1.26,1.49,2.65,1.49,6,0,4.74-.79,7.29-.79,10.4v1.72c0,6.13-1.3,5-1.3,8.36s-.56,5.34-1.21,5.34-.7-1.67-1.21-1.67c-1.25,0,0,4.27-1.35,4.27-.32,0-.69-.09-.79-1.53s-.09-2.09-.65-2.09-.6.6-1,.6-.7-.93-1.39-.93c-.93,0-.79,2.61-1.54,2.61-1.07-.14-.88-1.35-1.62-3.49S58.84,107,58.51,107c-.55,0-.69.61-.69,1.12,0,.32,0,.56,0,.7,0,.37-.23.51-.55.51-.61,0-1.35-4-1.35-6,0-1.58.79-4.32.79-5.39s-1.39-3.3-1.39-5.3c0-1.16,1.11-5.39,1.11-6.45,0-.7-.32-1-.32-2a14.93,14.93,0,0,1,.79-3.39c.69-2.88,5.38-4.41,6.08-4.41C65.71,76.38,69.89,78.24,71.38,80Zm-9.15,4.83c0,1.3.37,2.42.37,3.44,0,2-.18,2.32-.18,3,0,1,.65,3.76.65,4.55,0,2.74-.93,4.23-.93,6.14a2.25,2.25,0,0,0,.37,1.06c1,2,1,2.28,1.9,2.28a1.88,1.88,0,0,0,1.91-1.86c0-.23-.14-.93-.14-1.25s0-.75,0-1.54-.09-2.46-.09-3.11a6.07,6.07,0,0,1,.37-2.37,5.09,5.09,0,0,0,.28-1.67c0-1.86-.6-3.48-.6-6.31,0-1.21.42-2.14.42-3.21,0-.65-.24-1.35-1-1.35-.51,0-.7,2.51-1.25,2.51s-.61-1.76-1.35-1.76C62.46,83.35,62.23,84.28,62.23,84.83Z" fill="#fff"/><path d="M89.08,110.94a8.32,8.32,0,0,1,.18,1.39c0,1.53-.37,2.93-.88,2.93-.33,0-.42-.28-.42-.75,0-.74.09-1.39.09-1.67,0-1-.23-3.2-.69-3.2-.79,0-.79.69-1.26.69a.37.37,0,0,1-.41-.37,15.53,15.53,0,0,0,.27-1.81,5.71,5.71,0,0,0-.55-2.37,11.46,11.46,0,0,1-1.26-4c0-.42.1-.69.1-1.07,0-1.06-.93-1.9-.93-2.64s.18-.84.18-1.44c0-.33-.14-.51-.42-.51-.46,0-1,.18-1,1.25a7.56,7.56,0,0,0,.14,1.16.27.27,0,0,1-.28.28c-.65,0-.33-1.86-.93-1.86-.19,0-.28.28-.28.84s.23,2.74.23,3c0,.55-.32,3-.32,4.69,0,1.21.51,2.46.51,3.85,0,1.67-.05,2.19-.51,2.19-1,0-.47-1.91-1.25-1.91a1.45,1.45,0,0,0-1.17,1.39,18.18,18.18,0,0,0,.28,2c0,.28-.14.47-.55.47s-.47-.51-.47-.93c0-.19,0-.84,0-1.16a1.79,1.79,0,0,0-1.07-1.91c-.84-.51-.84-1-.84-1.25s.79-2,.79-2.46c0-1.58-.83-4-.83-4.6,0-1.86.83-4.23.83-4.88,0-1.35-.74-4.5-.74-5.34,0-1.39,1-2.74,1-4.23a13.37,13.37,0,0,0-.83-3.29c0-.65-.61-1.95-.61-2.51s.28-1.67.28-2.37c0-.19-.19-.65-.19-1s.52-.74.89-.74,1.76.7,2.18.7,1.44-.23,1.9-.23c1.07,0,2.65.23,3.72.23h0c6,1.07,6.41,3.43,6.6,4.5A19.62,19.62,0,0,1,91,85.81c0,.74-.51,2.23-.51,3,0,1.12-.28,3.11-.28,4.23a6.73,6.73,0,0,0,.14,1.07,1,1,0,0,1-.84,1c-.42,0-.88-1-1.3-1a.25.25,0,0,0-.23.23c0,.65.69,1.26.69,1.91,0,.37-.23.7-.23,1.21a2.93,2.93,0,0,0,.28,1.16,16.6,16.6,0,0,1,.79,1.9c.28,1,.09,3,.42,3.76s1.72,2.51,1.72,3.49C91.68,109.68,89.08,109.54,89.08,110.94ZM84.85,86.18A11,11,0,0,1,85,85c0-1.26-.61-2.23-1.86-2.23-.56,0-.79.79-.79,1.49,0,.18,0,.65,0,.79,0,.37-.1.51-.28.51-.7,0-.42-1.63-1.07-1.63-.14,0-.23.19-.23.6s.32,3.16.32,3.58-.23.88-.23,1.39a.58.58,0,0,0,.56.61c.37,0,.56-.19.79-.19.46,0,.83,1.35,1.58,1.35s1.34-1.3,1.34-3A7.57,7.57,0,0,0,84.85,86.18Z" fill="#fff"/><path d="M107.14,107.27c0,.23.1.79.1,1.48s-.24.79-.7.79-1.76-.46-2.32-.46a1,1,0,0,0-1,1,7.51,7.51,0,0,1,.51,2.23c0,.37,0,.51-.46.51-.7,0-1.21-3.43-2-3.43s-1.17.88-1.17,1.2.28.65.28,1c0,.88-.28,1-.65,1-1.44,0-1.16-2.88-1.95-2.88-.14,0-.46.7-.88.7s-1-.7-1.35-.7-.55.28-.74.28c-.84,0-.56-1.67-.65-2V107c0-.23,0-.83,0-1.16v-1c0-1.48.32-4.83.32-6.27a16,16,0,0,1,.6-2.92c0-.42-.18-.66-.69-.66-.19,0-.47.14-.65.14-.37,0-.42-.51-.42-.79a1.82,1.82,0,0,1,.19-.88,7.33,7.33,0,0,0,.65-3.39c0-1.58.6-2.74.6-3.9,0-.33-.46-1.58-.46-2.23,0-.46.09-1.21.09-1.62s-.23-1.17-.23-1.63c0-.23.14-.6.14-.84s-.47-.88-.47-1.25c0-.74.74-1.07,1.77-1.07.18,0,.6,0,.92,0,.84,0,1-.42,1.72-.42.42,0,.89.42,1.21.42s.46-.28.93-.28c.65,0,1.49.74,2.18.74.47,0,.93-.51,1.58-.51.47,0,.65.23,1,.23s.51-.32,1.2-.32c.33,0,.56.6.56,2.32,0,1.21.65,5.48.65,7.15,0,.56-.28.89-.93.89a.61.61,0,0,1-.65-.7c0-.37.1-1.63.1-1.77,0-1.62-.14-3-.42-3-.84,0,0,3.06-1,3.06a.47.47,0,0,1-.51-.37,6.41,6.41,0,0,0-.46-1.67,3.48,3.48,0,0,0-1.72-.84c-1,0-1.12,1.16-1.63,1.16-.28,0-.42-.09-.6-.09-1,0-1.25,1.07-1.25,2.51,0,2.74,1.76,4.32,2.46,4.32.14,0,1.58-.33,1.76-.33a11.64,11.64,0,0,1,2-.14c.47,0,.79.51.79,1.16,0,.33-.42,1.16-.42,1.63,0,1,.89,3.39.89,4.09s-.7,2-1.12,2c-.93,0-.23-2.55-1.39-2.55-1,0-.19,1.72-1,1.72-.55,0-.74-1.54-1.25-1.54-.33,0-.65-.18-1-.18s-.6.09-.6.46a12.82,12.82,0,0,1,.32,3c0,.69-.65,2-.65,2.46,0,.74.65,1.72,2.65,1.72.28,0,.65,0,1.07,0,.65,0,1.86.37,2.46.37.19,0,.42,0,.65,0a1.59,1.59,0,0,1,1.44,1.44C107.56,106.11,107.14,106.85,107.14,107.27Z" fill="#fff"/><path d="M125.07,89.34a.73.73,0,0,0-.83.79c0,.79.37,1.62.37,2.46a20.66,20.66,0,0,1-.28,3.44c0,.74.7,2.74.7,4,0,.74-.42,2-.42,3.25,0,.51,0,1.35,0,1.67,0,.79-.23,1.86-.23,2.33s.61,1.34.61,1.58c0,1.11-2,.23-2,1.06,0,.51.28,2.23.28,2.6s-.23,1.68-.93,1.68c-.23,0-.32-.42-.32-1.21,0-.47,0-1.77,0-2.23,0-.74,0-1.11-.27-1.11-.75,0-.52,2.41-1.26,2.41-.28,0-.46-.14-.46-.56,0-.74.09-1.48.09-1.62s-.19-.47-.74-1.16a3.29,3.29,0,0,1-.89-2.33,18.35,18.35,0,0,0,.51-3.71,31.09,31.09,0,0,1,.47-3.9c0-.93-1-1.07-1-2.46s1.17-2.84,1.17-4.51a35.58,35.58,0,0,0-.28-4.09c0-.32.23-1.67.23-2.13a3.73,3.73,0,0,0-.7-1.68c-.42-.6-.46-.51-.46-1.11s.69-2,.69-2.65a14.16,14.16,0,0,1-.32-2,.94.94,0,0,1,1-1c.37,0,1.35.42,1.91.42s.92-.33,1.39-.33a2.43,2.43,0,0,1,2.41,2.19c0,1.11-.74,2.22-.74,3.25,0,1.34.93,4.78.93,6.13,0,.37-.09.55-.23.55S125.21,89.34,125.07,89.34Z" fill="#fff"/><path d="M142.21,80.47c0,.74-.7,2.6-.7,3.53a8.3,8.3,0,0,0,.19,1.53c0,.56-.14.79-.56.79-1.2,0-.55-3.11-1.16-3.11s-.56,1.16-1,1.16c-.61,0-.84-1-1.63-1-1,0-1.3.69-1.3,2.55,0,.47.19,1.16.19,1.49,0,1.39-.28,2.41-.28,3.2,0,2.37.93,2.88.93,6.09,0,2.37-.84,3.53-.84,5.38,0,1.35.42,2,.42,2.93,0,.33-.14.79-.14,1.07,0,.51.56,1.49.56,2-.14,1.35-2.47.7-2.47,3.49,0,1.3.56,2.23.56,3.76,0,.51-.46.93-1.34.93s-1.12-.28-1.12-.89c0-.83.47-1.57.47-2.36,0-1.58,0-3.86-.84-3.86-.42,0-.37.79-.84.79-.69,0-1.06-3.2-1.06-4.23,0-2.83,1.2-6.82,1.2-7.89a27.88,27.88,0,0,0-.23-3.11c0-1,.33-4.42.56-6.46.18-1.63.6-3.62.6-4.46s-.88-.93-1.3-.93c-1.3,0-.88,3.07-2.14,3.07-1.06,0-.65-3.07-2.18-3.07a1.07,1.07,0,0,1-1.11-.93c0-.37.65-1.2.65-1.76s-.42-1.81-.42-2.18.23-.56.6-.56c.79,0,1.49.69,2.33.69,1.76,0,2.74-1,3.9-1,2.09,0,2.5.6,4.73.6,1.35,0,2.23-.65,2.88-.65C141.65,77.12,142.21,79.31,142.21,80.47Z" fill="#fff"/><path d="M50.38,166.62c0,1.69.7,2.54.7,3.38,0,1.54-1.7,1.62-1.7,2.62,0,1.92.47,1.38.47,3.23,0,.69-1.93,1.85-1.93,3.38,0,.47.08.93.08,1.85,0,.77-.31,1.15-.92,1.15-.85,0-2.31-2-3-2-.93,0-1.23,1.23-1.23,2.3,0,.77.15,1.39.15,1.85s-.15.61-.54.61c-1,0-1.77-4.38-3.69-4.38-1.23,0-1.31,1-2.08,1-1.23,0-1.92-2.15-6-2.15-1.46,0-1.84,1.77-1.84,2.3s1.15,2.16,1.15,3S29.69,186,28.69,186a1.23,1.23,0,0,1-1.15-1.38c0-.85.31-2,.31-2.54,0-.23,0-1.69-.93-1.69-.3,0-.46.38-1,.38s-.61-.53-.61-.92c0-.92.61-1.38.61-2.92,0-4.23-.38-5.16-.38-6.39,0-1.77.46-3.84.46-4.61s-.15-1-1-2.62a2.28,2.28,0,0,1-.38-1.15c0-1.46.84-4.08.84-5.54,0-3.54.92-6.46.92-9.62a18.45,18.45,0,0,0-.61-2.92,18.32,18.32,0,0,1,1.08-5.15c0-1.77-2.7-2.39-2.7-4.23,0-2.85-.23-2.85-.23-4.08,0-1.62.54-2.85,2.54-2.85.31,0,1.54.16,1.77.16a22.31,22.31,0,0,0,3.15-.7c.85,0,2.08,1.08,2.93,1.16s2.31-.85,3.07-.85c1.62.08,2.54.93,4.24,1.08,4.23.31,7.53,4.46,8.76,11,0,.54.08,1.15.08,1.61,0,3.7-1.38,2.62-1.38,3.77,0,2.54,2.23,6.47,2.23,8.39,0,5.38-.46,8.23-.46,8.92C50.85,163.47,50.38,164.54,50.38,166.62Zm-8.15-8.08c0-3.31.39-6.84.39-10.38,0-1.46-.31-2.46-1.47-2.46s-1.15,2.84-2.3,2.84c-.39,0-.62-.38-.62-1.23a39.82,39.82,0,0,1,.46-4.77c0-1.46.08-2.23.08-2.92,0-1-.08-1.62-1.15-1.62-.39,0-.54.23-.54.85,0,.77.46,2.31.46,2.92,0,.39-.16.54-.39.54-1.23,0-1.77-1-1.77-2.31,0-.53.39-1.84.39-2.38,0-.92-.62-2-1.15-2s-.7,1.61-.7,2.08c0,.07.39,2.23.39,2.61,0,1-.69,1.85-.69,3.39,0,2.23,1.61,4.3,1.61,6,0,3.46-1.15,4-1.15,7.69a9.21,9.21,0,0,0,.54,3.61c.38.93,1.15,1.77,1.15,2.93,0,.46-.15.69-.54.69-.08,0-.92-.23-1.08-.23a.94.94,0,0,0-.92,1c0,.92.69,5.84,2.77,5.84.77,0,1.46.08,2.15.08,2.31,0,4.08-.92,4.08-9.38v-3.39Z" fill="#fff"/><path d="M66.38,147.23A1.22,1.22,0,0,0,65,148.54c0,1.31.62,2.69.62,4.08a33.63,33.63,0,0,1-.47,5.69c0,1.23,1.16,4.54,1.16,6.62,0,1.23-.69,3.3-.69,5.38,0,.85.07,2.23.07,2.77,0,1.31-.38,3.08-.38,3.85,0,.54,1,2.23,1,2.61,0,1.85-3.39.39-3.39,1.77,0,.85.46,3.69.46,4.31,0,.85-.38,2.77-1.53,2.77-.39,0-.54-.69-.54-2,0-.77.07-2.92.07-3.69,0-1.23-.07-1.85-.46-1.85-1.23,0-.84,4-2.07,4-.47,0-.77-.23-.77-.92,0-1.23.15-2.46.15-2.69,0-.47-.31-.77-1.23-1.93a5.37,5.37,0,0,1-1.46-3.84,30.88,30.88,0,0,0,.84-6.16c0-3.23.77-5.38.77-6.46,0-1.54-1.61-1.77-1.61-4.08,0-2.46,1.92-4.69,1.92-7.46a59.34,59.34,0,0,0-.46-6.77c0-.54.38-2.77.38-3.54a6.11,6.11,0,0,0-1.15-2.77c-.69-1-.77-.84-.77-1.84s1.16-3.31,1.16-4.39a22.68,22.68,0,0,1-.54-3.3,1.56,1.56,0,0,1,1.69-1.62c.61,0,2.23.69,3.15.69.77,0,1.54-.54,2.31-.54,1.39,0,4,1.16,4,3.62,0,1.85-1.23,3.69-1.23,5.38,0,2.24,1.54,7.93,1.54,10.16,0,.61-.16.92-.39.92S66.62,147.23,66.38,147.23Z" fill="#fff"/><path d="M94.38,176.93c0,.38.16,1.3.16,2.46,0,.92-.39,1.31-1.16,1.31-.53,0-2.92-.77-3.84-.77a1.57,1.57,0,0,0-1.62,1.61c.23,1.31.85,1.7.85,3.69,0,.62-.08.85-.77.85-1.15.08-2-5.69-3.38-5.69-1.16,0-1.93,1.46-1.93,2s.46,1.08.46,1.61c0,1.47-.46,1.7-1.07,1.7-2.39,0-1.93-4.77-3.23-4.77-.24,0-.77,1.15-1.47,1.15-.53,0-1.69-1.15-2.23-1.15-.3,0-.92.46-1.23.46-1.38,0-.92-2.77-1.07-3.39v-1.46c0-.38.07-1.38.07-1.92v-1.69c0-2.46.54-8,.54-10.39,0-1.84,1-4.46,1-4.84,0-.7-.31-1.08-1.15-1.08-.31,0-.77.23-1.08.23-.62,0-.69-.85-.69-1.31a3.05,3.05,0,0,1,.31-1.46,12,12,0,0,0,1.07-5.61c0-2.62,1-4.54,1-6.47,0-.53-.77-2.61-.77-3.69,0-.77.16-2,.16-2.69s-.39-1.92-.39-2.69c0-.39.23-1,.23-1.39s-.77-1.46-.77-2.08c0-1.23,1.23-1.76,2.93-1.76.3,0,1,.07,1.54.07,1.38,0,1.69-.69,2.84-.69.69,0,1.46.69,2,.69s.77-.46,1.54-.46c1.08,0,2.46,1.23,3.62,1.23.77,0,1.53-.84,2.61-.84.77,0,1.08.38,1.62.38s.84-.54,2-.54c.54,0,.92,1,.92,3.85,0,2,1.08,9.08,1.08,11.84,0,.93-.47,1.47-1.54,1.47-.69,0-1.08-.39-1.08-1.16,0-.61.16-2.69.16-2.92,0-2.69-.24-5-.7-5-1.38,0-.07,5.08-1.61,5.08a.78.78,0,0,1-.85-.62,10.73,10.73,0,0,0-.77-2.77,5.74,5.74,0,0,0-2.84-1.38c-1.7,0-1.85,1.92-2.7,1.92-.46,0-.69-.15-1-.15-1.69,0-2.07,1.77-2.07,4.15,0,4.54,2.92,7.15,4.07,7.15.23,0,2.62-.53,2.93-.53a18.53,18.53,0,0,1,3.23-.24c.77,0,1.3.85,1.3,1.93,0,.54-.69,1.92-.69,2.69,0,1.62,1.46,5.62,1.46,6.77,0,1.38-1.15,3.31-1.84,3.31-1.54,0-.39-4.23-2.31-4.23-1.62,0-.31,2.84-1.62,2.84-.92,0-1.23-2.54-2.07-2.54-.54,0-1.08-.3-1.62-.3-.69,0-1,.15-1,.77a20.66,20.66,0,0,1,.54,4.92c0,1.15-1.08,3.23-1.08,4.08,0,1.23,1.08,2.84,4.39,2.84.46,0,1.08-.08,1.77-.08,1.07,0,3.08.62,4.07.62.31,0,.7-.08,1.08-.08a2.63,2.63,0,0,1,2.39,2.39C95.08,175,94.38,176.23,94.38,176.93Z" fill="#fff"/><path d="M123.38,168.54a6.9,6.9,0,0,1-.69,3A29.62,29.62,0,0,0,121,182.08c0,.39.08,1.54.08,2.62,0,.53-.23,1.15-1,1.15s-1.08-.54-1.08-1.15c0-3.77-.85-4.62-3.15-4.62-2.08,0-2.85,1.77-2.85,8,0,1.16.08,2.39.08,3.46s-.08,1.7-.93,1.7c-2.84,0-.23-11.47-3-11.47-.84,0-1.3.54-1.3,1.77,0,.62.23,2,.23,2.54s-.23.85-.77.85c-1.23,0-1.46-.69-1.46-1.39,0-4.38-.93-4-2.47-5.92-.69-.77-.84-2.15-1.76-2.15-.7,0-.77,2-1.54,2-2.31,0-3.08-6.39-3.08-9.93a5.06,5.06,0,0,1,5.23-4.92c1.69,0,2.69.77,3.31,2.77,1.23,4.23,3.38,5.31,5.15,5.31,2.23,0,3.16-2.47,3.16-4.93a3.59,3.59,0,0,0-1.39-2.69c-3.92-3.54-3.23-4.77-5.15-7.54-.93-1.38-3.31-2.38-4.77-5.23-.92-1.69-.92-5.23-2.16-5.23-1.07,0-1.23,2.85-2.3,2.85s-1.31-1.77-1.31-3.39c0-1.15.69-2.15.69-4.84a38,38,0,0,1,.46-6.31c.39-1.77,4-5.16,5.7-6.08.46-.15,6.61-2.92,7.38-2.92a1.06,1.06,0,0,0,.46.07,11.36,11.36,0,0,1,6.54,2.85c1.92,1.77,4.92,6.39,4.92,9.69,0,1.85-.61,3.62-.61,5.08,0,2.77-.16,4.85-.85,4.85-2.38,0-.92-8.08-2.77-8.08-2.46,0-1.38,4.38-2.69,4.38-2.77,0-.85-7.46-3-7.46-.62,0-.77.62-.77,1.39,0,.31.08.77.08,1.07,0,.93-.31,1.54-1.23,1.54a1.18,1.18,0,0,1-1.16-1.15c0-1.23.23-1.54.23-2.85s-.53-1.46-1.07-1.46c-1.23,0-1.77,3.16-1.77,5.39,0,3.84,3.46,7.53,7.77,10,2.38,1.38,3.07,4.23,3.69,4.92,1.31,1.54,4,2,4,5.54a19.71,19.71,0,0,0,.08,2.54A17.54,17.54,0,0,1,123.38,168.54Z" fill="#fff"/></svg>