<svg xmlns="http://www.w3.org/2000/svg" viewBox="0 0 275 87"><path d="M50.49 59.29c-.12.57-1.44.47-1.91.43-.3-.03-.56-.12-.66-.43V41c-.04-.45.26-.55.66-.58.78-.07 2.08-.14 2.61.51l5.41 12.34.36-.65c1.39-2.55 2.79-8.13 4.35-10.77.31-.52.63-1.35 1.3-1.43.36-.04 1.66-.05 2.01 0 .39.06.5.37.51.73v17.98c.08.8-1.84.68-2.25.54-.19-.06-.4-.36-.4-.53V45.01l-4.76 13.01c-.37.44-2.09.41-2.48 0l-4.75-13V59.3zM12.44 2.8c2.88-.23 7.04.3 9.28 2.29.86.76 1.49 1.99.94 3.14-.5 1.04-1.48.18-2.17-.09C10.44 4.15 4.41 9.57 4.84 19.91c.35 8.39 5.06 12.83 13.58 10.87 1.16-.27 2.95-1.27 3.83-1.35 1.22-.12 1.19 1.44.86 2.29-.91 2.37-5.6 3.38-7.86 3.52C7.77 35.7 2.29 31.99.63 24.63c-2.08-9.26.76-20.96 11.81-21.83zM38.21 20.29c-.49-4.15-5.54-3.59-8.46-2.9-1.1.26-2.82 1.44-2.85-.46-.05-3.25 5.8-3.83 8.15-3.69 10.46.63 6.82 10.07 7.58 17 .05.42.15 1.05.5 1.31.85.61 2.47-.46 2.01 1.76-.52 2.45-4.8 2.5-6.09.64l-.77-1.3c-3.53 4.11-12.3 3.61-12.62-2.91-.34-6.91 7.64-6.75 12.55-6.67-.08-.88.1-1.92 0-2.78zm.13 5.62h-3.56c-.61 0-2.15.37-2.74.62-2.78 1.2-2.1 5.22.94 5.57 2.05.24 4.22-.62 5.35-2.38V25.9zM70.96 54.12c.19 3.46 2.79 4.08 5.76 3.46.41-.08 1.76-.61 1.96-.57.38.07.39.56.36.87-.13 1.42-2.69 1.93-3.84 2-3.65.22-6.37-1.43-6.88-5.19-.58-4.28 1.15-8.3 6.02-8.05 3.32.17 4.7 2.48 4.86 5.57.02.47.13 1.91-.58 1.91h-7.67zm5.68-1.79c0-1.83-.51-3.67-2.69-3.67s-3 1.76-3 3.67h5.68zM53.06 34.68c-.36.38-2.93.38-3.52.28-.42-.07-.64-.29-.71-.71V3.85c-.03-.52.18-.87.71-.96.49-.08 2.62-.08 3.07.02.35.08.56.34.6.69V34c0 .21 0 .51-.16.67zM63.4 34.68c-.36.38-2.93.38-3.52.28-.42-.07-.64-.29-.71-.71V3.85c-.03-.52.18-.87.71-.96.49-.08 2.62-.08 3.07.02.35.08.56.34.6.69V34c0 .21 0 .51-.16.67zM123.73 21.21s-.29-8.12-2.2-9.27-14.33 2.77-22.93 20.54-3.82 23.7 1.82 22.84 15.58-6.98 20.26-11.56 6.31-2.96 4.78.1-7.26 11.28-13.66 15.91c-6.4 4.63-15.77 4.83-21.79-2.63S80.55 37.65 86 24.46 103.77 4.2 113.23 4.11s13.86 4.97 13.95 8.03-1.24 7.45-3.44 9.08zM137.3 22.46s3.06 4.36-.57 11.12-11.28 16.21-11.28 16.21l.67 3.34s6.88-7.07 10.03-12.8c0 0 5.92-3.82 8.41-4.01s4.68.57 2.77 2.2-10.8 9.65-9.65 17.49 6.88 5.54 8.6 4.49 8.6-7.17 9.75-8.6 2.48-1.34 2.39 2.1.19 6.88 3.54 6.88 5.06-1.53 7.84-6.31 5.73-6.59 5.06-3.06-.19 9.75 3.25 9.56 7.93-6.88 7.93-6.88l-.67-2.39s-2.48 4.11-4.01 2.58 2.01-4.87 1.91-7.74-1.53-6.88-6.98-3.44-9.56 11.18-11.85 10.89.57-6.21 5.35-9.65 8.31-5.45 11.37-5.54 2.2-1.82 1.91-3.54-1.82-4.78-6.88-4.59-14.81 8.5-15.29 13.19h-2.29s-6.02 9.65-9.65 9.27 4.11-8.03 6.21-11.18 2.29-8.6-.19-11.27-8.03-1.43-9.17-.76-3.82 1.15-2.87-.76l.96-1.91s-1.24-4.4-1.91-4.87-4.68 0-4.68 0zM266.5 0s3.73.1 5.64 4.87 2.87 5.64 2.87 5.64-10.7 16.24-11.47 22.55c-.76 6.31-2.01 10.61-3.63 4.78S262.59 4.87 266.5 0zM260.38 53.89c2.36-.77 5.92 4.68 2.58 6.98s-8.12-5.16-2.58-6.98zM254.93 42.43s-2.39 3.92-3.82 2.68c-1.43-1.24-.29-3.44-.38-6.78-.1-3.34-3.06-10.42-7.84-6.59-4.78 3.82-7.36 20.93-10.89 21.02-3.54.1 2.87-7.55 2.29-14.91-.57-7.36-1.62-10.42-7.55-10.32 0 0-3.15 19.88-4.2 21.31 0 0-15.19 4.11-18.06 5.06-2.87.96-3.63-.29-1.82-2.58 1.82-2.29 11.08-15.86 13-19.02 1.91-3.15.29-4.68-3.44-5.64s-15.86.38-24.27 3.63c0 0-.29 3.82.57 4.2.86.38 11.47-3.82 12.14-2.1.67 1.72-12.33 14.43-12.33 18.73s-.19 9.59 3.92 11.91c4.11 2.32 24.56-8.47 26.37-9.52 1.82-1.05 4.01-1.43 4.3 1.43.29 2.87 3.06 6.02 4.97 5.83 1.91-.19 3.25-.97 3.25.85 0 0-8.79 8.03-8.79 15.29s.19 9.46 7.07 9.36 8.89-2.2 12.04-10.03 8.03-25.13 8.03-25.13 4.3-2.39 6.21-5.92l-.76-2.77zm-15.3 21.93c-.82 1.54-4.53 7.81-4.53 7.81-1.75 2.98-3.69 5.04-5.6 5.9-1.91.86-4.18 2.52-3.51-.55.68-3.07 7.93-11.87 10.45-14.27 2.52-2.4 4-.43 3.17 1.11zm3.53-14.21c-.8 4.12-1.6 4.67-3.14 5.78-1.54 1.11-3.69 2.03-3.69 2.03-4.3 1.72-.74-3.26 1.91-8.92 2.64-5.66 4.67-9.84 6.15-9.72s-.43 6.7-1.23 10.82z" fill="#fff"/></svg>