<svg xmlns="http://www.w3.org/2000/svg" viewBox="0 0 260 87"><path d="M176.38 25.56c-1.79 9.39-12.15 7.84-21.41 8.21V.37c9.72.13 20.13-.65 21.81 9.45.45 5.16.35 10.4-.4 15.75zm-3.82-2.62c.31-2.34.29-4.58-.1-6.86-.69-3.98-5.6-4.37-10.2-3.83-1.6.19-3.11 1.61-3.34 3.21-.7 4.74-.67 10.96 2.82 11.21 4.66.33 10.32.03 10.82-3.73zM7.13 34.39v-8.26l13.29-.32c.59-.01 1.56-.78 1.68-1.23.14-.52-.78-1.7-1.32-1.74l-6.96-.48c-2.38-.16-4.95-.75-6.25-2.87-1.43-2.34-1.56-5.33-1.41-8.03.14-4.02 2.57-6.89 6.34-8.29 4.13-1.37 8.45-1.66 13.13-1.61v12.51c-5.46.13-14.97-.35-14.56 2.67.29 2.2 4.42 1.43 9.51 2.04 4.05.49 5.96 3.48 5.66 7.22-.72 9.02-10.14 8.11-19.1 8.38zM112.66 76.68l.14 7.92c-7.63 0-15.65-.17-17.58-7.82-1.42-5.64-1.47-11.64-.2-17.32 1.87-8.39 10.4-8.95 18.62-8.91v13.02l-11.15.7c-2.98.19-4.25 2.66-4.32 5.34-.08 3.24 1.44 5.52 4.64 6.32l9.85.74zM196.7 76.68l.14 7.92c-7.63 0-15.65-.17-17.58-7.82-1.42-5.64-1.47-11.64-.2-17.32.92-4.12 3.85-6.98 7.91-7.94l10.72-.97v13.02l-11.15.7c-2.98.19-4.25 2.66-4.32 5.34-.08 3.24 1.44 5.52 4.64 6.32l9.85.74zM255.8 57.39l4.2-.05-4.39 25.61H248l-1.01-4.9c-.06-.27-.99-.76-1.26-.84-.33-.1-1.2.48-1.28.88l-1.11 5.86-7.27.04-4-26.73 3.63-.03 2.84 15.34c.12.66 1.34 1.6 1.93 1.54 2.88-.29 3.16-10.15 3.8-15.28.43-.66 2.26-.71 2.84-.27l1.39 11.5c.11.87 1.23 1.96 1.92 2 3.61.19 4.21-8.93 5.37-14.68zM209.81 33.79c.39-.02 1.28-.61 1.39-.94s-.71-1.18-1.05-1.2l-4.16-.29c-2.5-.17-4.38-1.71-5.06-4.08-1.19-4.11-1.14-8.61-.01-12.72.83-3.02 3.21-4.53 6.27-4.8l4.48-.39c.94-.08 1.62-1.52 1.79-2.75l3.52.02-.06 21.04c0 2.45-.28 4.91-.77 7.26-1.27 6.06-8.42 5.57-14.81 5.7v-6.51l8.48-.35zm3.33-6.89c1.51-1.56 1.36-5.39-.14-6.6-2.15-1.75-6.18-1.7-8.32.01-1.78 1.41-1.67 5.44.13 6.83 2.1 1.63 6.36 1.79 8.33-.24zM107.71 27.74c-1.19 8.02-9.96 3.85-11.03 6.91-.88 2.51-.83 4.81-.84 7.76l-4.95.03V6.72l2.15-.11.65 2.31c.14.48 1.39.77 1.9.8l6.35.33c2.63.14 4.84 1.92 5.43 4.56.94 4.2 1 8.69.34 13.13zm-4.61-9.36c-2.37-1.2-5.56-1.31-7.85.1-2.13 1.31-2.07 7.43-.05 9.22s6.78 1.53 8.45-.25c1.93-2.07 1.89-7.84-.54-9.07zM153.58 78.02l10.21.74v7c-6.74-.11-14.49.04-15.67-6.41-.87-4.76-.96-9.8-.12-14.48s4.26-6.97 8.64-7.22c3.7-.21 6.86 1.4 7.7 5.28 1.12 5.14.63 12.05-4.5 12.4l-5.96.4c-.34.02-1.4.67-1.24.9l.94 1.39zm6.7-6.65c1.57-.74 1.22-3.72-.15-4.33-2.56-1.13-5.68-1.21-8.25-.03-1.48.68-1.6 3.87-.03 4.49 2.52 1 5.85 1.1 8.43-.13zM116.17 26.7c-1.19 1.72 6.32 2.46 11.09 2.25v7.02c-6.84-.13-14.58.09-15.74-6.68-.78-4.59-.82-9.41-.12-13.94.73-4.72 4.26-7.27 8.82-7.49 3.67-.18 6.84 1.49 7.62 5.36 1.09 5.44.57 12.04-4.79 12.37l-5.68.35c-.36.02-1.04.53-1.2.77zm7.2-4.83c1.12-.3 1.54-2.01 1.36-2.98-.47-2.64-4.95-2.91-8.87-2.04-.85.19-1.62 1.69-1.69 2.51-.28 3.28 4.73 3.7 9.19 2.51zM218.99 78.02l10.21.74v7c-6.74-.11-14.49.04-15.67-6.41-.87-4.76-.96-9.8-.12-14.48s4.26-6.97 8.64-7.22c3.7-.21 6.86 1.4 7.7 5.28 1.12 5.14.63 12.05-4.5 12.4l-5.97.4c-.33.02-1.4.66-1.24.9l.94 1.39zm6.71-6.65c1.57-.74 1.22-3.72-.15-4.33-2.56-1.13-5.68-1.21-8.25-.03-1.48.68-1.6 3.87-.03 4.49 2.52 1 5.85 1.1 8.43-.13zM132.78 83.55c-4.6-.66-5.9-5.16-6.02-10.15l-.33-14.45h3.61l.71 12.14c.14 2.43 2.01 3.9 4.18 3.88s4.12-1.4 4.25-3.83l.68-13.05h4.03v28.47l-3.84.07c-.44-1.26-1.29-2.23-2.51-2.4l-4.74-.68zM80.87 33.9c-4.9.45-9.33-.4-10.33-5.05-1.06-4.88-1.23-10.07-.3-14.95.68-3.55 3.44-5.67 6.93-5.69 2.23-.01 4.49.03 6.48 1.15 3.97 2.23 3.95 13.54 2.77 19.2-.6 2.88-2.58 5.07-5.54 5.34zm1.99-6.47c1.67-2.03 1.69-6.06-.09-7.78-2.04-1.98-6.71-2.09-8.72 0-1.75 1.83-1.55 6.25.18 8.06 2.04 2.14 6.69 2.07 8.64-.29zM62.98 33.1c-2.19 1.17-4.65.95-6.88.76-3.04-.26-5.39-2.14-6.02-5.22-.97-4.73-1.1-9.74-.29-14.54.47-2.78 2.4-5.15 5.17-5.65 5.05-.91 9.95.12 10.93 5 1.16 5.81 1.8 17.14-2.9 19.65zm-.64-5.53c1.89-2.03 1.87-6.33-.1-8.06s-6.57-1.92-8.49.08-1.65 6.33.14 8.16c2.04 2.07 6.42 2.01 8.45-.18zM192.9 33.46c-4.93 1.58-11.15.41-12.16-5.03-1.39-7.5-1.68-20.26 5.75-20.11l4.81.1c2.78.06 4.79 2.36 5.32 5.12 1.24 6.36 1.84 18.15-3.72 19.93zm.2-5.94c1.77-1.96 1.83-5.96.08-7.8-1.93-2.03-6.63-2.18-8.7-.17-1.87 1.8-1.67 6.16 0 8.07 1.95 2.23 6.55 2.18 8.62-.1zM46.04 33.75l-3.36.11c-.43-6.6.9-15.22-4.62-15.19-5.92.03-4.35 9.06-4.73 16.1l-3.81-.02V6.72l2.95-.09c0 1.88.91 2.74 2.51 2.9l5.27.54c4.48.46 5.43 5.58 5.53 10.57l.26 13.11zM30.77 69.82c-1.79-.1-3.18-1.37-3.57-3.01-.76-3.2-.75-6.55-.24-9.79.38-2.41 2.24-3.77 4.71-3.56.92.08 2.35-.25 2.42-1.31l.38-5.58h3.47l.38 25.56c-.41.18-1.28.19-1.59.06.1-1.3-.45-2.05-1.59-2.12l-4.37-.26zm4.45-3.62c1.64-.86 1.56-5.24.02-6.3s-4.18-1.1-5.55.34c-1.24 1.3-1.34 4.27-.07 5.56 1.34 1.37 4.01 1.24 5.61.4zM69.12 70.14l-2.97.05-.42-8.69c-.08-1.66-1.38-2.38-2.94-2.34s-2.74.86-2.8 2.48l-.34 9.21-2.04.04V47.25l3.83-.08.13 3.69c.11 2.98 4.12 1.93 5.86 3.63.92.9 1.35 2.58 1.38 3.88l.3 11.77zM75.19 66.12l6.87.5v4.7c-4.53-.07-9.74.03-10.53-4.31-.59-3.2-.64-6.58-.08-9.73s2.87-4.69 5.81-4.85c2.49-.14 4.61.94 5.17 3.55.75 3.45.42 8.1-3.02 8.33l-4.02.27c-.21.01-.93.45-.83.6l.63.93zm4.51-4.47c1.05-.5.82-2.5-.1-2.91-1.72-.76-3.82-.81-5.55-.02-.99.45-1.08 2.6-.02 3.02 1.7.67 3.93.74 5.67-.09zM3.1 69.95c-3.26-.23-3.48-4.26-2.77-7.62.34-1.58 1.59-2.61 3.23-2.72l3.26-.21c.23-.01.71-.3.84-.45.84-.94-3.77-1.55-6.9-1.48v-5.12l6.09.38c2.31.14 3.88 2.13 3.9 4.5l.18 14.73H8.56c-.08-1.2-.73-1.68-1.71-1.75l-3.76-.26zm5.25-5.11c.87-.44.91-2.43.09-2.85-1.59-.83-3.79-.79-5.46-.07-1.02.44-.98 2.52.01 2.97 1.59.71 3.68.8 5.36-.04zM24.62 69.83l-2.26.07-.39-7.51c-.09-1.68-1.21-2.71-2.72-2.7s-2.74.92-2.82 2.6l-.36 8.22h-2.56V51.66l1.98-.06c0 1.26.61 1.84 1.69 1.95l3.54.36c3.01.31 3.65 3.75 3.72 7.1l.17 8.81zM51.44 58.01c-.88 1.92-.87 4.64.11 6.48.54.93 2.1.87 3.44.8l.07 5.18c-1.82 0-3.47-.05-4.97-.98-1.21-.75-1.78-2.55-1.79-4.02l-.05-16.4 2.55-.08.3 4.07c.05.64 1.03 1.77 1.7 1.84l2.94.29-.03 2.02c-1.51-.01-3.03-.1-4.26.79zM211.17 68.55l-3.81.61c-.91.15-2.04 2.21-2.06 3.16l-.31 12.02-3.56.04v-27.1h4.86c.18.63.48 1.89.87 2.16.79.55 2.59.62 3.98.65l.04 8.47zM141.8 18.87c-1.42.08-3.14.21-4.13.72-.9.46-1.74 2.3-1.77 3.54l-.24 11.42-3.55.05V7.49l5.02-.02c-.08 1.53.67 2.54 1.93 2.65l2.77.23-.03 8.52zM124.46 76.31l.04 7.94c-1.88.1-4.08.14-5.32-1.22-1.35-1.48-1.73-4.06-1.74-6.11l-.07-27.84 3.65-.03.19 24.14c.01 1.68.84 3.3 3.26 3.13z" fill="#fff"/></svg>