<svg xmlns="http://www.w3.org/2000/svg" width="250" height="129" viewBox="0 0 250 129"><path d="M40.94 42.46a9 9 0 0 0-3.07-1.08 7.78 7.78 0 0 0-3 .15 6.19 6.19 0 0 0-3 1.6 3.55 3.55 0 0 0-1.15 2.54 1.78 1.78 0 0 0 .58 1.44 3.65 3.65 0 0 0 1.51.7 10.82 10.82 0 0 0 2.11.27c.78 0 1.56.07 2.32.14q4.6.38 6.74 2.42t2.13 6.15a14.91 14.91 0 0 1-.93 5.27 14.59 14.59 0 0 1-2.68 4.54 17.71 17.71 0 0 1-4.41 3.59 22.15 22.15 0 0 1-5.93 2.37 19 19 0 0 1-12.7-.91l4-8.58a11.76 11.76 0 0 0 4.17 1.74 9.31 9.31 0 0 0 4.07-.1 6.37 6.37 0 0 0 3.43-1.91 4.19 4.19 0 0 0 1.13-2.68 2.77 2.77 0 0 0-.26-1.34 2.11 2.11 0 0 0-1-.87 6.12 6.12 0 0 0-1.75-.5q-1.08-.16-2.61-.3c-1.22-.09-2.41-.21-3.57-.38A8.61 8.61 0 0 1 24 55.66a6 6 0 0 1-2.21-2.35 8.92 8.92 0 0 1-.84-4.23 14.61 14.61 0 0 1 .88-5.08 15.09 15.09 0 0 1 2.49-4.36 15.88 15.88 0 0 1 3.94-3.4 18.16 18.16 0 0 1 5.2-2.16 22.45 22.45 0 0 1 5.61-.66 20.38 20.38 0 0 1 5.61.79zM61.94 64.13l-9.4 2.34V30.32l15-3.73q6.09-1.52 9.33.84t3.23 8.11a14.92 14.92 0 0 1-3.23 9.72 16.83 16.83 0 0 1-9.33 5.49l-5.56 1.39zm0-19.57l3.12-.77c3.45-.86 5.17-2.8 5.17-5.8s-1.72-4.08-5.17-3.22l-3.12.78zM105.67 46.94l-13.43 3.35-2.15 6.82-10 2.5L93.83 20l10.26-2.55 13.76 32.72-10 2.5zm-2.5-6.52L99 29.44l-4.26 13.08zM147.14 18.81a8.05 8.05 0 0 0-8-2 12.17 12.17 0 0 0-3.91 1.74 13.62 13.62 0 0 0-3.09 2.86 13.07 13.07 0 0 0-2 3.65 11.67 11.67 0 0 0-.74 4.12 9 9 0 0 0 .74 3.79 6.74 6.74 0 0 0 2.06 2.65 7.08 7.08 0 0 0 3 1.38 9 9 0 0 0 3.8-.2c3-.75 5.71-2.7 8.1-5.86v11.13l-1 .57a35.54 35.54 0 0 1-4 2.13 22.6 22.6 0 0 1-3.7 1.28 17.53 17.53 0 0 1-7.16.38 13.93 13.93 0 0 1-5.99-2.43 13.77 13.77 0 0 1-4.19-5 15.92 15.92 0 0 1-1.58-7.3 21.5 21.5 0 0 1 1.55-8 26.53 26.53 0 0 1 4.18-7 27.09 27.09 0 0 1 6.06-5.44 23.35 23.35 0 0 1 7.24-3.22 20.55 20.55 0 0 1 4.25-.61 23.08 23.08 0 0 1 4.38.32zM174.14 8L163 10.75v6l10.54-2.63v8L163 24.75V31l11.17-2.79v8l-20.57 5.13V5.13L174.14 0zM0 129l6.14-37.72 9.3-2.28 7.24 17.47 7.19-21.07 9.3-2.4 6.14 34.63L36 120l-3.12-20-8.57 22.9-3.74.93-8.1-18.78-3.12 21.58zM61.13 77.57v19.66c0 1 0 2.12.12 3.2a7.4 7.4 0 0 0 .72 2.82 3.44 3.44 0 0 0 1.9 1.71 6.09 6.09 0 0 0 3.64-.07 8.27 8.27 0 0 0 3.62-1.74A7.36 7.36 0 0 0 73 100.5a10 10 0 0 0 .75-3.19c.08-1.12.12-2.21.12-3.26V74.39l9.35-2.33V93q0 8.44-3.86 13.29t-11.87 6.84q-8 2-11.89-.92t-3.88-11.36v-21zM105 74.59v28.19l-9.4 2.35v-28.2l-7.72 1.93v-8l24.84-6.19v8zM137.85 88.31l-13.42 3.35-2.16 6.82-10 2.5L126 61.39l10.26-2.55L150 91.56l-10 2.5zm-2.49-6.52l-4.22-11-4.22 13.08zM154.63 90.41V54.26l9.4-2.35 17.36 17.78v-22.1l9.35-2.34v36.16l-9.35 2.33L164 66v22.07zM212.51 47.79V76l-9.4 2.34V50.13l-7.72 1.92V44.1l24.83-6.2v8zM244.77 41a8.75 8.75 0 0 0-3.06-1 7.82 7.82 0 0 0-3 .15 6.2 6.2 0 0 0-3 1.6 3.51 3.51 0 0 0-1.15 2.54 1.78 1.78 0 0 0 .57 1.44 3.71 3.71 0 0 0 1.51.7 10.93 10.93 0 0 0 2.11.27c.79 0 1.56.07 2.33.14 3.07.26 5.31 1.06 6.74 2.42s2.18 3.36 2.18 6.1a14.54 14.54 0 0 1-3.67 9.81 18 18 0 0 1-4.41 3.6 22.4 22.4 0 0 1-5.92 2.36 19 19 0 0 1-12.71-.91l4-8.58a11.91 11.91 0 0 0 4.17 1.74 9.35 9.35 0 0 0 4.08-.1 6.44 6.44 0 0 0 3.46-1.91 4.17 4.17 0 0 0 1.12-2.68 2.69 2.69 0 0 0-.29-1.34 2.19 2.19 0 0 0-1-.87 6.12 6.12 0 0 0-1.75-.5c-.72-.1-1.59-.21-2.62-.3-1.21-.08-2.4-.21-3.57-.38a8.61 8.61 0 0 1-3.12-1.07 6 6 0 0 1-2.2-2.35 8.92 8.92 0 0 1-.84-4.23 14.42 14.42 0 0 1 .89-5.09 15.09 15.09 0 0 1 2.49-4.36 15.86 15.86 0 0 1 3.93-3.4 18.28 18.28 0 0 1 5.2-2.16 22.93 22.93 0 0 1 5.66-.64 20.38 20.38 0 0 1 5.61.79z" fill="#fff"/></svg>