<svg xmlns="http://www.w3.org/2000/svg" width="250" height="89" viewBox="0 0 250 89"><path d="M86.15,25.44C69.09,25.44,61,36,61,47.69a21.39,21.39,0,0,0,6.26,15,11.79,11.79,0,0,1-2,3.1c-3.9,4.4-9,5.1-17.22,5.1-16.82,0-28-13.82-28-34.44,0-10.72,2.7-20,8.81-25.34,3.9-3.4,8.81-4.8,14.72-4.8,9.71,0,16.72,2.6,20.22,6.31a14.89,14.89,0,0,1,3.81,9.81c.1,1.4.4,2.1,1.2,2.1s1.1-.9,1.2-2.4c.2-2.5.1-8.41.3-11.72s.5-5.8.5-6.61c0-.6,0-1.2-1.1-1.3a82.22,82.22,0,0,1-9.91-1.3A90,90,0,0,0,45.56,0C31,0,21,3,12.42,10.31,2.3,18.82,0,31.24,0,38.05c0,10.71,2.8,21,12.62,29.44C23.13,76.3,36,78.5,49,78.5c6.41,0,13.22-.7,17.23-2.3,1.7-.6,2.4-1.4,2.6-2.9.47-2.26,1-5.37,1.39-8.21,3.86,2.68,9,4.4,15.58,4.4,15.31,0,24.46-9.92,24.46-23.09C110.22,35.37,100.94,25.44,86.15,25.44ZM87.32,65.6c-9.67,0-13.82-10.32-13.82-20.7,0-13.17,5.64-15.7,10.64-15.7C94.65,29.2,97.76,40.43,97.76,49,97.76,64.24,90.89,65.6,87.32,65.6Z" fill="#fff"/><path d="M154.14,27.65a12.84,12.84,0,0,1,1.3-.13c.84-.07,1-.46,1-.72s-.26-.58-1.23-.58c-2.34,0-5.39.2-6.82.2-2.59,0-6.61-.2-8.75-.2-.59,0-1.11.2-1.11.65,0,.26.26.58,1,.65a20.35,20.35,0,0,1,2.34.26c2.53.39,2.92,1.88,3.05,5l.32,19.85c-1.69-1.49-4.74-4.08-11.16-9.73-7.2-6.35-16.15-14-18.94-16.22-1.6-1.21-1.87-1.23-2.19-1.23h-8.74c-.59,0-1.11.12-1.11.58,0,.26.26.58,1,.65a20.35,20.35,0,0,1,2.34.26c3.6.59,5,4.25,5.21,7.34-.14,7.46-.19,17.26-.44,26.2-.2,5.19-.72,6.49-3.12,6.82-.71.06-1,.06-1.62.13-.78.06-1,.32-1,.64s.33.65,1.3.65c2,0,6.68-.19,8.3-.19,4.09.06,5.84.19,7.46.19,1,0,1.43-.19,1.43-.65s-.26-.51-1.23-.64a14.68,14.68,0,0,1-2.92-.39c-1.75-.46-1.88-2.08-2-6l-.59-18.23c5,4.54,10,8.82,13.11,11.61,2.79,2.53,7.39,6.49,11.42,9.86,4.6,3.76,6.61,5.19,7.59,5.19s1.23-.58,1.23-3.83c.06-11.28.26-22.77.78-33.34C151.54,28.75,152.19,27.91,154.14,27.65Z" fill="#fff"/><path d="M248.77,26.15c-2.34,0-5.39.19-6.81.19-2.6,0-6.62-.19-8.76-.19-.59,0-1.11.19-1.11.65,0,.26.26.58,1,.65a20.35,20.35,0,0,1,2.34.26c2.53.38,2.92,1.88,3.05,5l.32,19.85c-1.68-1.49-4.73-4.08-11.16-9.73-7.2-6.36-16.15-14-18.94-16.22-1.62-1.23-1.88-1.23-2.21-1.23h-8.74c-.58,0-1.1.19-1.1.65,0,.26.26.58,1,.65a19.91,19.91,0,0,1,2.33.26c3.67.6,5.09,4.37,5.22,7.49h0c-.13,7.43-.18,17.12-.43,26-.2,5.19-.74,7-3.37,7h-.09c-.33,0-.78-.07-1.3-.13-2.21-.33-3.25-1.82-5.26-6-3.89-8.57-13.94-29.65-15.37-32.83-1.1-2.2-1.62-3-2.27-3-2.6,0-7.36-.07-9.5-.07-.59,0-1.11.19-1.11.65,0,.26.26.58,1,.65a20.35,20.35,0,0,1,2.34.26c3.66.6,3.31,5,1.14,9.51L158.89,62.49c-1.68,3.82-3.18,4.6-6,4.93-.71,0-1,.26-1,.64s.26.65,1.16.65c2.79,0,6.56-.19,7.21-.19,3.3,0,5.25.19,8.1.19.78,0,1.11-.26,1.11-.71,0-.26-.2-.52-1-.58-1.49-.13-4-.2-4-2.08a11.23,11.23,0,0,1,1-3.44l1.36-3.31c.06-.19.26-.58.65-.58h13.43a.57.57,0,0,1,.51.32l3.57,8c.33.72-.26.78-.78,1s-.77.26-.77.64.38.59,1.16.59c3.13.06,9.48,0,15.53.08a4.45,4.45,0,0,0,.65,0c2,0,6.29-.19,7.92-.19,4.08.06,5.83.19,7.46.19,1,0,1.42-.19,1.42-.65s-.26-.52-1.23-.65a14,14,0,0,1-2.92-.39c-1.75-.45-1.88-2.07-2-6l-.58-18.23c5,4.54,10,8.82,13.1,11.61,2.79,2.53,7.4,6.49,11.42,9.86,4.6,3.76,6.62,5.19,7.59,5.19s1.23-.58,1.23-3.83c.07-11.29.26-22.77.78-33.34.19-3.57.84-4.41,2.79-4.67a12.84,12.84,0,0,1,1.3-.13c.84-.07,1-.46,1-.72S249.74,26.15,248.77,26.15ZM179,52.88h-9.73c-.13,0-.26-.06-.19-.26l4.8-11.54c.13-.26.13-.39.32-.07l5.13,11.61C179.39,52.75,179.39,52.88,179,52.88Z" fill="#fff"/><path d="M79.93,84.16c0,1,0,2.18.07,2.71,0,.33.11.6.49.67l.55.06c.21,0,.26.05.26.14s-.07.11-.29.11c-.87,0-2.11,0-2.31,0l-1.88,0c-.2,0-.29,0-.29-.12s.1-.13.25-.13l.41,0c.28,0,.37-.33.41-.7.05-.54.08-1.46.08-2.69v-5c-.5,0-1.29,0-1.93,0s-1,.21-1.16.65l-.12.3c0,.1-.06.2-.15.2s-.11-.1-.1-.26c0-.52.19-1.21.28-1.69,0-.19.06-.32.14-.32a4.33,4.33,0,0,1,.43.1,10.11,10.11,0,0,0,1.42.09H82a6.24,6.24,0,0,0,.8,0,3.35,3.35,0,0,1,.4-.08c.11,0,.12.08.12.4s-.07,1.36-.08,1.68-.06.26-.13.26-.13-.08-.14-.23S83,80,83,80c0-.39-.24-.7-1-.75-.42,0-1.09-.06-2.06-.06Z" fill="#fff"/><path d="M93.7,82.14s.08,0,.08-.09v-.27c0-2,0-2.19,0-2.6s-.13-.59-.55-.67c-.1,0-.29,0-.44,0s-.25-.08-.25-.13.07-.13.26-.13c.74,0,1.89,0,2,0s1.59,0,2.13,0c.2,0,.26.05.26.13s-.06.13-.19.13a3.82,3.82,0,0,0-.45,0c-.33,0-.43.27-.47.67s0,.74,0,2.72v2.25a26.68,26.68,0,0,0,.07,2.69c0,.42.14.63.52.7l.56,0c.15,0,.22.06.22.13s-.1.12-.26.12c-.88,0-2.17,0-2.39,0s-1.2,0-1.83,0c-.23,0-.28-.06-.28-.14s.08-.11.24-.11l.4,0c.3-.07.38-.31.42-.72s.08-1.33.08-2.55v-1a.08.08,0,0,0-.08-.08h-4a.07.07,0,0,0-.08.08v1.33c0,1.21,0,1.73.07,2.28,0,.37.15.61.53.68l.54.06c.14,0,.24,0,.24.13s-.06.12-.25.12l-2.36,0-1.87,0c-.14,0-.28,0-.28-.11s0-.14.22-.14l.4,0c.3,0,.42-.37.44-.75,0-.54.07-1.43.07-2.64V81.94c0-2,0-2.27,0-2.68s-.17-.69-.61-.75a2.47,2.47,0,0,0-.36,0c-.23,0-.26-.08-.26-.14s.14-.12.28-.12c.74,0,1.73,0,2,0,.48,0,1.55,0,2.1,0,.23,0,.27.05.27.13s-.08.13-.23.13a2.81,2.81,0,0,0-.44,0c-.35.07-.41.37-.44.74s0,.93,0,2.52v.27c0,.07,0,.09.08.09Z" fill="#fff"/><path d="M101.88,81.91c0-2.08,0-2.33,0-2.74s-.14-.59-.46-.66a2.72,2.72,0,0,0-.42,0c-.16,0-.23-.07-.23-.14s.08-.12.28-.12c.73,0,1.34,0,1.9,0h3.6a5.49,5.49,0,0,0,.69,0,.71.71,0,0,1,.2,0c.07,0,.08,0,.08.11s0,.19-.06.56-.07.7-.11,1.37c0,.1,0,.17-.12.17s-.12-.06-.13-.17a1.3,1.3,0,0,0-.07-.45c-.06-.29-.23-.46-.84-.51-.42,0-1.53-.06-1.91-.06-.08,0-.1,0-.1.12v2.81c0,.09,0,.15.1.15.36,0,1.39,0,1.85,0,.62,0,.79-.06.93-.29s.11-.17.18-.17.07.08.07.15-.06.59-.1,1.09c0,.29,0,.92,0,1.06s0,.24-.11.24-.12-.09-.14-.21a2.89,2.89,0,0,1,0-.29c-.05-.37-.23-.59-.86-.62-.35,0-1.4,0-1.8,0-.06,0-.07.06-.07.16v.88c0,.44,0,1.19,0,1.67,0,.9.19,1.1,1.6,1.1a3.54,3.54,0,0,0,1.19-.15c.36-.14.51-.42.63-1,0-.15.07-.23.15-.23s.11.13.11.28a10.89,10.89,0,0,1-.2,1.71c-.09.33-.18.34-.65.34-1.76,0-2.72-.07-4.06-.07-.6,0-1.13,0-1.83,0-.23,0-.31,0-.31-.12s.06-.13.26-.13l.38,0c.35,0,.41-.54.43-1.34,0-.51,0-1.26,0-2Z" fill="#fff"/><path d="M120.26,84.17a6.58,6.58,0,0,0,.18,2.47c.18.25.42.31,1.48.31a3.1,3.1,0,0,0,1.47-.2,1.44,1.44,0,0,0,.66-1.08c0-.14.07-.24.17-.24s.1.07.1.24a10.14,10.14,0,0,1-.27,1.88c-.1.33-.2.34-.71.34-1.76,0-3-.07-4.3-.07-.6,0-1.29,0-2,0-.18,0-.28,0-.28-.14s.08-.11.25-.11l.44,0c.46-.08.47-.31.51-1.33,0-.51,0-1.27,0-2.06V81.91c0-2.08,0-2.31,0-2.72s-.12-.57-.44-.66a2,2,0,0,0-.49-.06c-.14,0-.27,0-.27-.13s.13-.13.38-.13c.73,0,1.39,0,1.89,0l2.16,0c.22,0,.3,0,.3.12s-.13.14-.3.14a2.69,2.69,0,0,0-.44,0c-.34.06-.43.3-.46.75s0,.66,0,2.77Z" fill="#fff"/><path d="M128.23,81.91c0-2,0-2.35,0-2.75s-.17-.59-.45-.64a1.67,1.67,0,0,0-.38,0c-.15,0-.24,0-.24-.14s.06-.12.28-.12c.51,0,1.76,0,1.86,0l2.08,0c.22,0,.28.05.28.13s-.12.13-.24.13a2.76,2.76,0,0,0-.37,0c-.33.06-.46.22-.49.68s0,.74,0,2.72v2.25c0,1,0,2.19.07,2.73,0,.33.1.56.48.65a5.62,5.62,0,0,0,.56.06c.22,0,.27.05.27.13s-.06.12-.27.12c-.86,0-2.23,0-2.34,0l-1.84,0c-.2,0-.31,0-.31-.12s.11-.13.26-.13l.39,0c.27,0,.36-.32.4-.69,0-.54.08-1.45.08-2.7Z" fill="#fff"/><path d="M136.38,81.91c0-1.87,0-2.23,0-2.64s-.19-.73-.56-.76l-.47,0c-.19,0-.23-.07-.23-.13s.1-.13.26-.13c.77,0,1.41,0,2,0,.84,0,1.59,0,2.09,0,2.69,0,3.2,1.25,3.2,2a2.44,2.44,0,0,1-1.56,2.13c1.34.4,2.48,1.22,2.48,2.76s-1.33,2.82-3.87,2.82c-.47,0-2-.07-2.36-.07-.56,0-1.16,0-1.85,0-.17,0-.26,0-.26-.12s.06-.13.25-.13a2.53,2.53,0,0,0,.38,0c.23,0,.37-.23.41-.7,0-.7.08-1.44.08-3Zm2.21,2.17c0,.61,0,1.5,0,2.15,0,.41.08.58.33.71a1.69,1.69,0,0,0,.84.2c.67,0,1.46-.46,1.46-1.73a2.64,2.64,0,0,0-.75-2A1.85,1.85,0,0,0,139.3,83a3.4,3.4,0,0,0-.64,0s-.07,0-.07.09Zm0-2c0,.1,0,.12.11.13a5.63,5.63,0,0,0,.8,0,1.23,1.23,0,0,0,.77-.2,1.57,1.57,0,0,0,.42-1.22c0-1-.51-1.9-1.52-1.9a1.35,1.35,0,0,0-.46.07c-.07,0-.12,0-.12.23Z" fill="#fff"/><path d="M147.84,81.91c0-2,0-2.23,0-2.64s-.18-.69-.49-.75a3.76,3.76,0,0,0-.51,0c-.15,0-.23-.07-.23-.14s.09-.12.28-.12c.55,0,1.78,0,2,0s1.46,0,2.05,0a5.42,5.42,0,0,1,2.6.44,2.16,2.16,0,0,1,1.16,1.95,3,3,0,0,1-1.71,2.56c.78,1.12,1.71,2.49,2.49,3.38s1,1,1.34,1a2.31,2.31,0,0,0,.32,0c.14,0,.21.05.21.13s-.12.12-.25.12h-1.15a4,4,0,0,1-2.32-.42,4.72,4.72,0,0,1-1.31-1.59c-.59-1-.88-1.49-1.11-1.84a.2.2,0,0,0-.16-.07h-.84c-.06,0-.1,0-.1.1v.65a20.24,20.24,0,0,0,.06,2.14c0,.33.12.61.5.7a3.69,3.69,0,0,0,.58.08c.2,0,.22.06.22.14s-.08.11-.26.11c-.86,0-2.25,0-2.34,0l-1.82,0c-.19,0-.26,0-.26-.12s.09-.13.23-.13l.44,0c.25-.07.35-.29.39-.73s.07-1.43.07-2.66Zm2.19.86a.19.19,0,0,0,.11.19,2.48,2.48,0,0,0,1,.16,1.29,1.29,0,0,0,.8-.2,2.08,2.08,0,0,0,.5-1.61c0-1.81-1.15-2.28-1.81-2.28a1.66,1.66,0,0,0-.51,0c-.05,0-.08,0-.08.14Z" fill="#fff"/><path d="M161.16,85.21c-.07,0-.09,0-.12.09l-.39,1a2.78,2.78,0,0,0-.21.82c0,.24.12.35.38.38l.45,0c.19,0,.23.06.23.13s-.1.12-.27.12c-.57,0-1,0-1.68,0-.14,0-1,0-1.62,0-.18,0-.26,0-.26-.12s.09-.13.25-.13l.4,0c.45-.09.71-.49,1-1.1l3.41-7.7c.24-.55.38-.74.52-.74s.24.18.46.64c.33.71,2.48,5.6,3.34,7.53.44,1,.72,1.3,1.16,1.37a2.17,2.17,0,0,0,.41,0c.17,0,.24.05.24.13s-.08.12-.33.12c-1.25,0-2.7,0-3.52,0-.2,0-.28,0-.28-.12s.07-.13.18-.15.19-.12.15-.23l-.85-2a.11.11,0,0,0-.1-.08Zm2.55-1c.07,0,.07,0,.06-.06l-1.12-2.73c0-.09-.07-.06-.09,0l-1.09,2.73s0,.06.06.06Z" fill="#fff"/><path d="M171.87,81.91c0-2,0-2.23,0-2.64s-.18-.69-.49-.75a3.92,3.92,0,0,0-.51,0c-.15,0-.23-.07-.23-.14s.09-.12.28-.12c.55,0,1.77,0,2,0s1.47,0,2.06,0a5.42,5.42,0,0,1,2.6.44,2.16,2.16,0,0,1,1.16,1.95A3,3,0,0,1,177,83.16c.78,1.12,1.71,2.49,2.49,3.38s1,1,1.34,1a2.14,2.14,0,0,0,.32,0c.14,0,.21.05.21.13s-.13.12-.25.12h-1.15a3.94,3.94,0,0,1-2.32-.42,4.84,4.84,0,0,1-1.32-1.59c-.58-1-.88-1.49-1.11-1.84a.18.18,0,0,0-.15-.07h-.84c-.06,0-.1,0-.1.1v.65a20.24,20.24,0,0,0,.06,2.14c0,.33.12.61.5.7a3.72,3.72,0,0,0,.57.08c.21,0,.23.06.23.14s-.09.11-.27.11c-.85,0-2.24,0-2.33,0l-1.82,0c-.2,0-.26,0-.26-.12s.09-.13.23-.13l.43,0c.26-.07.36-.29.4-.73s.06-1.43.06-2.66Zm2.2.86a.19.19,0,0,0,.11.19,2.43,2.43,0,0,0,1,.16,1.32,1.32,0,0,0,.81-.2,2.08,2.08,0,0,0,.5-1.61c0-1.81-1.15-2.28-1.82-2.28a1.7,1.7,0,0,0-.51,0s-.07,0-.07.14Z" fill="#fff"/><path d="M184.07,81.91c0-2,0-2.35,0-2.75s-.16-.59-.44-.64a1.69,1.69,0,0,0-.39,0c-.15,0-.24,0-.24-.14s.06-.12.28-.12c.51,0,1.76,0,1.86,0l2.08,0c.22,0,.28.05.28.13s-.11.13-.24.13a2.94,2.94,0,0,0-.37,0c-.33.06-.46.22-.48.68s0,.74,0,2.72v2.25c0,1,0,2.19.06,2.73,0,.33.1.56.49.65a5,5,0,0,0,.56.06c.21,0,.27.05.27.13s-.07.12-.27.12c-.87,0-2.23,0-2.35,0l-1.84,0c-.2,0-.3,0-.3-.12s.1-.13.25-.13l.4,0c.27,0,.36-.32.39-.69,0-.54.08-1.45.08-2.7Z" fill="#fff"/><path d="M192.91,85.21c-.06,0-.09,0-.11.09l-.4,1a2.69,2.69,0,0,0-.2.82c0,.24.11.35.38.38l.45,0c.19,0,.23.06.23.13s-.11.12-.27.12c-.58,0-1,0-1.69,0-.14,0-1,0-1.62,0-.17,0-.25,0-.25-.12s.09-.13.24-.13l.41,0c.45-.09.7-.49,1-1.1l3.41-7.7c.24-.55.38-.74.52-.74s.24.18.46.64c.33.71,2.47,5.6,3.34,7.53.43,1,.71,1.3,1.16,1.37a2.08,2.08,0,0,0,.41,0c.16,0,.24.05.24.13s-.09.12-.33.12c-1.25,0-2.71,0-3.52,0-.21,0-.28,0-.28-.12s.06-.13.18-.15.19-.12.15-.23l-.86-2a.11.11,0,0,0-.1-.08Zm2.55-1c.08,0,.08,0,.07-.06L194.4,81.4c0-.09-.06-.06-.09,0l-1.08,2.73s0,.06.05.06Z" fill="#fff"/><path d="M203.4,78.63c0-.38.06-.61.22-.61s.16,0,.49.31c.54.44,1.2,1.08,4.12,3.76,1.3,1.2,2.19,2,2.53,2.36l-.08-4.78c0-.72-.09-1-.6-1.14a3.55,3.55,0,0,0-.56-.06c-.16,0-.23-.07-.23-.13s.12-.13.26-.13c.51,0,1.34,0,1.85,0,.28,0,.92,0,1.45,0,.19,0,.28,0,.28.12s-.06.14-.21.14a1.13,1.13,0,0,0-.32,0c-.42,0-.55.26-.59,1-.1,2.57-.1,5.12-.15,7.68,0,.65-.09.79-.26.79s-.6-.3-1.43-1-2-1.77-2.75-2.47-2-1.85-2.92-2.76l.12,4.35c0,.92.08,1.26.44,1.39a4,4,0,0,0,.67.09c.2,0,.26.05.26.13s-.1.12-.31.12l-1.64,0-1.74,0c-.18,0-.28,0-.28-.12s.07-.13.24-.13a3.44,3.44,0,0,0,.43,0c.49-.08.56-.39.6-1.58C203.35,83.35,203.32,80.28,203.4,78.63Z" fill="#fff"/></svg>