<svg xmlns="http://www.w3.org/2000/svg" width="300" height="33" viewBox="0 0 300 33"><path d="M23.48 3.12c2.16 2.08 3.35 4.45 3.59 7.1h-4.12c-.46-2.01-1.37-3.6-2.74-4.78-1.37-1.18-3.29-1.76-5.77-1.76-3.02 0-5.46 1.08-7.31 3.24-1.86 2.16-2.79 5.48-2.79 9.94 0 3.66.84 6.62 2.51 8.9 1.68 2.28 4.18 3.41 7.5 3.41 3.06 0 5.39-1.2 6.99-3.59.85-1.26 1.48-2.92 1.9-4.97h4.12c-.36 3.29-1.57 6.04-3.61 8.26-2.45 2.68-5.75 4.02-9.91 4.02-3.58 0-6.59-1.1-9.03-3.3C1.6 26.69 0 22.2 0 16.14 0 11.53 1.2 7.75 3.61 4.8 6.22 1.6 9.81 0 14.38 0c3.91 0 6.94 1.04 9.09 3.12zM29.45.85h4.27v12.9h16.04V.85h4.27v31.21h-4.27v-14.6H33.72v14.6h-4.27V.85zM82.99 5.31c2.07 2.76 3.1 6.3 3.1 10.6 0 4.66-1.18 8.53-3.55 11.62-2.78 3.63-6.73 5.44-11.88 5.44-4.8 0-8.58-1.59-11.32-4.76-2.45-3.06-3.68-6.93-3.68-11.6 0-4.22 1.05-7.83 3.14-10.84 2.69-3.85 6.67-5.78 11.94-5.78s9.59 1.77 12.24 5.31zM79.26 25.2c1.66-2.67 2.5-5.74 2.5-9.22 0-3.67-.96-6.63-2.88-8.87-1.92-2.24-4.54-3.36-7.87-3.36s-5.86 1.11-7.9 3.33c-2.04 2.22-3.06 5.49-3.06 9.81 0 3.46.87 6.38 2.62 8.75s4.59 3.56 8.51 3.56 6.42-1.34 8.08-4.01zM88.05.85h13.97c2.76 0 4.99.78 6.69 2.35 1.7 1.57 2.55 3.76 2.55 6.6 0 2.44-.76 4.56-2.27 6.36-1.51 1.81-3.83 2.71-6.95 2.71H92.3v13.19h-4.23V.85zm16.4 4.29c-.93-.44-2.2-.66-3.82-.66h-8.35V15.3h8.35c1.88 0 3.41-.4 4.59-1.21 1.17-.81 1.76-2.23 1.76-4.27 0-2.29-.84-3.85-2.53-4.67zM113.59.85h13.97c2.76 0 4.99.78 6.69 2.35 1.7 1.57 2.55 3.76 2.55 6.6 0 2.44-.76 4.56-2.27 6.36-1.51 1.81-3.83 2.71-6.95 2.71h-9.74v13.19h-4.23V.85zm16.4 4.29c-.93-.44-2.2-.66-3.82-.66h-8.35V15.3h8.35c1.88 0 3.41-.4 4.59-1.21 1.17-.81 1.76-2.23 1.76-4.27 0-2.29-.84-3.85-2.53-4.67zM139.13.85h22.65v3.82h-18.53v9.48h17.12v3.61h-17.12v10.58h18.84v3.72h-22.97V.85zM164.78.85h14.19c2.34 0 4.26.35 5.78 1.04 2.88 1.33 4.32 3.79 4.32 7.37 0 1.87-.39 3.4-1.16 4.59-.77 1.19-1.85 2.15-3.24 2.87 1.22.5 2.14 1.15 2.75 1.95.62.81.96 2.12 1.03 3.93l.15 4.19c.04 1.19.14 2.08.3 2.66.25.99.71 1.63 1.36 1.91v.7h-5.18c-.14-.27-.25-.62-.34-1.04-.08-.42-.16-1.25-.21-2.46l-.25-5.21c-.1-2.04-.83-3.41-2.21-4.1-.78-.38-2.02-.57-3.7-.57h-9.35v13.38h-4.23V.85zm13.73 14.3c1.93 0 3.45-.4 4.58-1.19 1.12-.79 1.68-2.22 1.68-4.29 0-2.22-.78-3.74-2.36-4.55-.84-.42-1.96-.64-3.37-.64H169v10.67h9.5zM201.01.85h12.47c4.23 0 7.52 1.52 9.85 4.57 2.08 2.75 3.12 6.27 3.12 10.56 0 3.31-.62 6.31-1.85 8.99-2.17 4.73-5.89 7.1-11.17 7.1H201V.85zm11.65 27.6c1.4 0 2.55-.15 3.45-.45 1.61-.55 2.92-1.61 3.95-3.19.82-1.26 1.41-2.88 1.77-4.84.21-1.18.31-2.27.31-3.27 0-3.87-.75-6.87-2.25-9.01-1.5-2.14-3.92-3.21-7.26-3.21h-7.33v23.97h7.37zM237.83.85h4.78l11.32 31.21h-4.63l-3.17-9.35h-12.34l-3.38 9.35h-4.33L237.83.85zm6.95 18.42l-4.74-13.79-5.03 13.79h9.77zM253.56.85l8.97 26.58L271.39.85h4.74l-11.39 31.21h-4.48L248.89.85h4.67zM277.03.85h22.65v3.82h-18.53v9.48h17.12v3.61h-17.12v10.58h18.84v3.72h-22.97V.85z" fill="#fff"/></svg>