<svg xmlns="http://www.w3.org/2000/svg" width="300" height="110" viewBox="0 0 300 110"><path d="M299.53,80.64c-.24-.3-.07-.71,0-1.08a15.49,15.49,0,0,0-.32-5.47c-.51-1.9-1.4-3.66-1.64-5.68-.34-2.86-2-5-4.26-6.83-.55-.45-1.1-.53-1.44.2-.28.58-.57.45-.94.17s-.7-.54-1-.82a8.45,8.45,0,0,0-6.37-2.21,9.87,9.87,0,0,1-3.44-.35,12.51,12.51,0,0,0-6.65-.11c-.81.24-1.64.49-1.88,1.48a.83.83,0,0,1-.63.56c-.7.25-1.41.43-2.08.72-2.21,1-4.37,2-5.41,4.36a2.62,2.62,0,0,1-.8.89,9.76,9.76,0,0,0-3.28,4.73c-.23.83-.42,1.7.66,2.15.43.18.29.52.24.85-.21,1.38-.5,2.75-.61,4.14-.22,2.88-.22,5.74,1.28,8.37.24.42.39,1,.84,1.14,1.11.37,1.42,1.39,2,2.2.34.48.6,1.08,1.21,1.24a2.11,2.11,0,0,1,1.23.86,7.33,7.33,0,0,0,2.33,2c1.09.66,2.25,1.06,3.48.25a1.2,1.2,0,0,1,1-.25A26.33,26.33,0,0,0,278,95.22c.2,0,.38.08.43.28a4.75,4.75,0,0,1,1.54.22,3.85,3.85,0,0,1,1.07-.29,6.57,6.57,0,0,0,3.56-.88A7.17,7.17,0,0,1,287.88,93c1.05-.18,1.53-1.3,2.42-1.56a14.52,14.52,0,0,0,9-7.66C299.84,82.81,300.44,81.78,299.53,80.64Zm-7-17.62a.43.43,0,0,1,.11-.5.44.44,0,0,1,.6.09,11.27,11.27,0,0,1,2.47,2.91c.37.83.65,1.71,1,2.58.08.24.13.51-.13.7a.37.37,0,0,1-.5-.08,18.87,18.87,0,0,0-3.33-3.17c-.1-.07-.14-.24-.23-.41C293.26,64.45,292.75,63.74,292.53,63Zm2.24,12.44c0,.29,0,.62-.44.63s-.75-.13-.76-.49a7.4,7.4,0,0,0-1-4.17c.58.1.66.55.94.81s.37.29.59.15.15-.41,0-.59c-.3-.51-.64-1-.93-1.5s-.23-.91.26-1.14.6.26.77.57.2.39.3.59c.56,1.09.56,1.09,1.38.16-.08.43,0,1-.25,1.25C294.71,72.83,294.73,74.13,294.77,75.46Zm-3.24-3a4.64,4.64,0,0,1,1.07,3.68,3.33,3.33,0,0,1-1.14,2.1c.07-4-.65-7.41-5.35-8.31-.05.52.33.85-.07,1.26-.59.62-.21,1.09.43,1.35a3.28,3.28,0,0,1,1.93,2.12c.12.34.38.76,0,1s-.66-.2-.92-.45a.59.59,0,0,1-.13-.18c-.83-2.5-2.86-3.06-5.16-3.23-.42,0-1.33.21-.63-.79.05-.06-.06-.27-.13-.38-.66-1.07-.16-2,1.13-1.92,1.49.12,3.12-.43,4.43.79a.57.57,0,0,0,.41.12C289.52,69.38,290.44,71.08,291.53,72.42Zm-5,9.91c-.21.24-.52.4-.58.77-.29,1.69-.78,2.11-2.55,2.15-.32-.09-1,.24-1-.37s.54-.59,1-.7A1.3,1.3,0,0,0,284,84c1.65-1.61,3.41-3.16,3.41-5.76a2.77,2.77,0,0,1,.08-.76c0-.15.19-.36.32-.38.31,0,.29.25.34.45A5.36,5.36,0,0,1,286.55,82.33Zm-14.14-5.46a10.94,10.94,0,0,1,1.15-3.68,2.82,2.82,0,0,1,.65-.73.65.65,0,0,1,.82-.11c.36.26.05.52-.1.74-.87,1.23-.94,2.74-1.46,4.09-.13.36-.06,1.07-.7.92S272.49,77.35,272.41,76.87Zm1.27,4.95c.19,0,.4.12.42.3.2,2.07,2,2,3.36,2.53,1,.35,2.09.08,3.23.34a1.91,1.91,0,0,1-1.92.82,10.09,10.09,0,0,1-4.86-1.92c-.7-.49-.31-1.28-.57-1.88C273.3,81.9,273.52,81.8,273.68,81.82ZM280,67.18c-.9,0-1.81.29-2.65-.51-.35-.33-1.16-.17-1.79-.37a7.7,7.7,0,0,1,3-.86c.75-.09,1.55.09,2.19-.51a.37.37,0,0,1,.3-.09,15.83,15.83,0,0,1,5.21,1.84c-1.57.44-2.76-.53-4.06-.3.06.58.61.52.79.94a3,3,0,0,1-2,0A2.56,2.56,0,0,0,280,67.18Zm2.4-6.8a1,1,0,0,1,1.23-.66c.9.12,1.84,0,2.37,1.13.36.77,1.48.85,2.2,1.35A15.17,15.17,0,0,1,290.65,64c.25.27.81.56.41,1s-.62-.19-.87-.4a19.71,19.71,0,0,0-4.56-3c-.32-.14-.66-.45-1-.14s.17.61.27,1a2.84,2.84,0,0,1-2.05-.7A1.24,1.24,0,0,1,282.4,60.38Zm-12,1.12c.06-.37.49-.24.76-.25a7.72,7.72,0,0,0,3.45-.94c1.5-.78,3.22-.48,4.87-.48a8.18,8.18,0,0,1,1.31.12c.64.12.64.68.64,1.13s-.4.32-.69.29a22.62,22.62,0,0,0-6.47.06,21.49,21.49,0,0,0-2.19.71,1.29,1.29,0,0,1-1.07.06C270.7,62,270.31,61.85,270.37,61.5ZM265,64.38a10.6,10.6,0,0,1,4.43-2.45c-.56.33-1.15.61-1.68,1-.32.23-1,.33-.82.88s.77.07,1.14.24c.14.22,0,.34-.12.49s-.3.37-.07.57.42.06.59-.08a6.8,6.8,0,0,1,1.09-.93,17.79,17.79,0,0,1,6.49-2c.28,0,.66-.07.71.32a.6.6,0,0,1-.66.71c-2.17-.28-3.86.95-5.69,1.72-1.47.63-3.09.59-4.58,1.14a1,1,0,0,1-1.3-.3C264.14,65.14,264.6,64.72,265,64.38Zm3.73,12.74a8.22,8.22,0,0,1-.08.88,3.28,3.28,0,0,1-.71-2.41A14.76,14.76,0,0,1,270,69.86c.1-.16.23-.36.42-.21a1.31,1.31,0,0,1,.44.6c.1.3-.15.55-.31.79A9.6,9.6,0,0,0,268.68,77.12Zm-7.06,5.93c.15.5.19,1,.67,1.32a2.23,2.23,0,0,1,.73,1.44c.18.65-.88.64-.76,1.44-.78-.59-.78-1.38-1-2a12.32,12.32,0,0,1-.83-7.42c.42-1.72.05-3.61,1.15-5.18a.64.64,0,0,0,0-.82c-.31-.29-.53,0-.76.19s-.39.34-.75.27a4.84,4.84,0,0,1,.64-2.26,11.35,11.35,0,0,1,2.46-3.06c.6-.54,1.14-.24,1.56.15s-.12.68-.32,1c-.59.93-1.21,1.84-1.75,2.79-.24.42-.41.76.27,1.21s.26,1.53-.27,1.93a3,3,0,0,0-1.21,2.58C261.39,78.74,261,80.91,261.62,83.05Zm2,3.64a3,3,0,0,1,1,1.39C263.61,88,263.28,87.67,263.59,86.69Zm3.16-1.6c-.15.56-.57,0-.77-.24a9.62,9.62,0,0,1-2.12-6.66,10.93,10.93,0,0,1,.41-3.6,1.13,1.13,0,0,0,.1-.53c-.48-2.7,1.12-4.39,2.89-6,.41-.36.4-.95.83-1.27s.66-.85,1,.18a4,4,0,0,1-.46,3.18c-1,2.13-2.54,4.09-2.38,6.64,0,.36,0,.81-.62.43-.47-.29-.45.19-.45.43a7.33,7.33,0,0,0,2.15,5.76C268.42,84.43,266.91,84.53,266.75,85.09Zm.89,7c-.14-.17,0-.35.14-.45a.92.92,0,0,1,1.11,0,1.42,1.42,0,0,1,.27.45c-.17,0-.34.09-.52.12C268.29,92.32,267.92,92.42,267.64,92.09Zm4.23,1.09A1,1,0,0,1,271,94c-1.42.1-1.86-.35-1.79-1.87.66.19,1.32.4,2,.55C271.49,92.75,272,92.56,271.87,93.18Zm3.2-5.63c-.53,0-1-.17-1.32.44s-.68.31-1,0c-1.07-.89-2.13-1.8-3.2-2.7-.69-.57.12-.8.29-1.14.31-.64.61-.11.8.12a7.82,7.82,0,0,0,1.89,1.83c.16.1.32.24.5.1a.38.38,0,0,0,0-.58c-.29-.33-.62-.63-.91-1-.15-.16-.3-.38-.06-.57a.31.31,0,0,1,.48.09c.72,1.4,2.14,1.74,3.43,2.17a6,6,0,0,0,5-.29c1-.62,1.61.21,2.27.49.47.2,0,1.07-.11,1.59s-.79.3-1.25.34C279.55,88.59,277.37,87.65,275.07,87.55Zm15.21-2.42a17.28,17.28,0,0,1-3.76,3.33,11.77,11.77,0,0,1-7.33,1.81,1,1,0,0,1-1.05-.49,11.9,11.9,0,0,0,5.1-.75,5.41,5.41,0,0,0,2.54-1.84c.1-.16.3-.34.27-.47-.45-1.82,1.64-2.2,2-3.55a.46.46,0,0,1,.52-.33s.1.11.1.17c0,.36-.54.82,0,1.06s.65-.37.87-.74a4.54,4.54,0,0,1,1-1.42c.39.29.19.56,0,.79-.32.54-.75,1-.12,1.65C290.7,84.59,290.48,84.88,290.28,85.13Zm5.89-4.39a4.64,4.64,0,0,1-1.34,2.6,1,1,0,0,0-.18,1.45c.4.57.24.94-.26,1.4a27,27,0,0,1-4,3.07,6.08,6.08,0,0,0,1.5-2.86c.18-.87,1.07-1.62,1.7-2.38,1.57-1.88,1.86-4.17,2.1-6.48.13-1.34.27-2.69.43-4,0-.31.06-.78.47-.75s.36.51.33.8C296.72,76,296.54,78.36,296.17,80.74Zm2.56,2.42a7.8,7.8,0,0,1-2,3.06c.08-.81.54-1.07.75-1.48a1.52,1.52,0,0,0-.07-1.91,2.54,2.54,0,0,1-.43-2.49,13.1,13.1,0,0,0,.73-6.9.53.53,0,0,1,.19-.47,11.85,11.85,0,0,1,.63,1.94,13.57,13.57,0,0,1-.16,5.88c-.09.31-.2.65.09.8C299.36,82,298.94,82.59,298.73,83.16Z" fill="#fff"/><path d="M72.18,62c-.09-1.92.5-3.25,2.36-3.92a1,1,0,0,0,.78-1.19c-.11-.63-.66-.71-1.2-.71A45.59,45.59,0,0,1,68.05,56c-.8-.11-1.14.49-.72,1.21a1.65,1.65,0,0,0,.94.87,2.28,2.28,0,0,1,1.63,2.22c.44,3.44,0,6.9.16,10.35.1,2,0,4,.08,6,0,.44,0,.88-.07,1.32,0,.18,0,.39-.24.45s-1.73-1.64-2.36-2.37c-2.23-2.58-4.46-5.17-6.74-7.71-.46-.51-6.79-7.43-9.14-10.26-.67-.81-1.4-1.77-2.49-1.9a41.14,41.14,0,0,0-5-.17c-.77,0-.93.47-.58,1.12s1,.78,1.66,1a3.67,3.67,0,0,1,2.73,3.67c0,1,.18,15.19-.29,19.78-.12,1.21-.26,2.07-1.68,2.19a1,1,0,0,0-.8,1.05.85.85,0,0,0,.88.83,57.91,57.91,0,0,0,6.18,0c.42,0,.82-.19.86-.7a.94.94,0,0,0-.68-1c-1.74-.71-1.86-.8-1.79-2.65.12-3-.12-6-.13-9,0-2.65.31-5.31.08-8a1.38,1.38,0,0,1,.3-1.07A34.81,34.81,0,0,0,55,68.27c1.86,1.84,3.26,4.07,5,6,2.2,2.37,4.47,4.67,6.43,7.25a45,45,0,0,0,3.79,4.15c.36.36.84.82,1.46.55s.46-.87.5-1.36C72.28,83.26,72.28,64,72.18,62Z" fill="#fff"/><path d="M91.58,81.45c-.57-.16-.81.34-1,.8a2.52,2.52,0,0,1-3,1.7,17.92,17.92,0,0,0-2.2,0A1.29,1.29,0,0,1,84,82.54c-.08-1.32-.07-2.64-.09-4,0-2.68,0-2.66,2.65-2.71,1.19,0,2.33-.06,2.63,1.49.07.38.48.42.83.36a.59.59,0,0,0,.55-.59c0-.36,0-3.69,0-4,0-.8-.93-1.16-1.17-.62-.4.93-1.16,1.11-1.92,1.5-1.15.57-2.22.08-3.31,0-.27,0-.36-.32-.36-.6,0-1.79,0-3.58,0-5.37,0-1.53-.26-2.08,1.94-1.67a3.38,3.38,0,0,0,.55,0c1.57.11,3.35-.26,3.92,1.92a.67.67,0,0,0,.9.43.79.79,0,0,0,.46-.81c0-.81,0-1.62,0-2.43s-.33-1-1-1c-3.61,0-7.22,0-10.82,0-.45,0-1,0-1.05.57a.91.91,0,0,0,.74,1.08c1.09.14,1.22.92,1.3,1.74s0,10.93-.09,13.79c0,.91,0,1.75-1.18,2.08a1,1,0,0,0-.72,1.12c.12.62.68.56,1.16.56q4.47,0,8.94,0c2.94,0,2.46.3,3.12-2.85C92.07,82.23,92.2,81.61,91.58,81.45Z" fill="#fff"/><path d="M112.55,64.61c-.06-1.09-.81-1.31-1.7-.58a3.94,3.94,0,0,1-2.55.82c-3.54.05-7.07-.27-10.61-.3a3.61,3.61,0,0,1-2.46-.69c-.84-.67-1.56-.25-1.58.84s0,2.21,0,3.31c0,.5,0,1.14.63,1.27s.81-.52,1.1-.92a.84.84,0,0,0,.13-.52c-.06-.8.48-1,1.1-1.1,1.2-.22,2.43,0,3.63-.15,1-.09,1.22.27,1.21,1.17,0,3.12,0,6.25,0,9.37,0,.26.14,4.14.07,5S101.38,84,100.09,84a.79.79,0,0,0-.7,1c.07.52.47.71,1,.74a5.14,5.14,0,0,0,.88,0,24.1,24.1,0,0,1,4.41-.29c.48,0,1.11.17,1.19-.6a1,1,0,0,0-1-1.23c-.74,0-1-.49-1-1.17,0-.44-.19-3.42-.19-4.5,0-2.31-.08-4.63-.08-7a24.31,24.31,0,0,1,.2-3.51.78.78,0,0,1,.94-.78c1.22,0,2.43.06,3.65.1a1.18,1.18,0,0,1,1.31,1,5.42,5.42,0,0,0,.71,1.45.56.56,0,0,0,.66.28.51.51,0,0,0,.42-.46A39.49,39.49,0,0,0,112.55,64.61Z" fill="#fff"/><path d="M133.94,84c-1.11,0-1.35-.76-1.37-1.62a140.41,140.41,0,0,1,.19-14.65,1.41,1.41,0,0,1,1-1.4c.5-.15.91-.42.76-1s-.65-.54-1.09-.54q-2.43,0-4.86,0c-.42,0-1-.1-1.11.46a1,1,0,0,0,.81,1.16c.92.25,1.08.9,1.11,1.68,0,1.43.06,2.86.12,4.3,0,.84-.32,1.15-1.17,1.2a74,74,0,0,1-8.16,0c-.77,0-1.13-.3-1.13-1.11a35.63,35.63,0,0,1,.38-5,1.23,1.23,0,0,1,.88-1.13c.44-.15,1.09-.26,1-.85s-.78-.69-1.33-.7c-1.66,0-3.31,0-5,0-.4,0-.87,0-1,.49a.85.85,0,0,0,.61,1c1.19.42,1.36,1.31,1.27,2.38a11.63,11.63,0,0,0,0,1.32c.18,4.16.19,8.31,0,12.46,0,.91-.16,1.24-.63,1.2-.2.07-.89-.1-1.08.83s.31,1.14.93,1.19a24.91,24.91,0,0,1,4.71.35c.62.17,1.22-.49,1.47-1.08a.68.68,0,0,0-.71-.9c-1.24,0-1.45-.81-1.46-1.77,0-1.8,0-3.6-.06-5.4,0-.93.36-1.23,1.24-1.23,2.61,0,5.23,0,7.84,0,1,0,1.29.35,1.31,1.29.05,1.85-.18,3.67-.2,5.51,0,.75,0,1.36-1,1.51a1,1,0,0,0-.8,1.06.89.89,0,0,0,1,.74c1.81,0,3.61,0,5.42,0,.43,0,.78-.17.81-.7S134.44,84,133.94,84Z" fill="#fff"/><path d="M14.72,23.42a1.91,1.91,0,0,1-1.15-.8.89.89,0,0,1-.26-1c.18-.41.55-.42.93-.41l4.41.17a2.14,2.14,0,0,1,1.54.72c2.91,3,5.74,6.18,8.52,9.35C30.56,33.56,38,41.94,39.48,43.76c.11.14.26.3.46.19s.14-.32.14-.5c0-1.35,0-2.71,0-4.06,0-4.57.12-9.14-.06-13.7a.31.31,0,0,0-.17-.43,1.76,1.76,0,0,0-1.47-1.91,1.54,1.54,0,0,1-.93-.73,1.13,1.13,0,0,1,0-1.16c.2-.36.58-.28.9-.24a25.19,25.19,0,0,0,5.82.22.94.94,0,0,1,1.18.74,1,1,0,0,1-.77,1.26c-1.84.44-2.1,1.87-2.2,3.38-.07,1.07-.08,19.86-.34,23.35,0,.48.27,1.14-.36,1.38s-1.11-.28-1.5-.71c-1.32-1.47-2.7-2.91-3.9-4.48-2-2.64-4.42-4.91-6.58-7.41-.47-.55-1-1.07-1.45-1.61l-6.94-8.16c-.06-.35-.25-.65-.63-.57s-.2.48-.2.74c0,.42.05.85.08,1.27,0,2.17,0,4.33,0,6.5-.13,3.2-.13,6.4,0,9.59.07,1.24.17,2.65,2,2.77a.71.71,0,0,1,.64.88,1.07,1.07,0,0,1-1.22.89A57,57,0,0,0,16.05,51c-.58,0-.75-.39-.74-.89s.09-1,.68-.94c1.39.08,1.77-.76,1.84-1.92.2-3.11.21-18.64.22-20.95S15.58,23.51,14.72,23.42Z" fill="#fff"/><path d="M234.06,64.82a40.44,40.44,0,0,1,6.11.34c3.66.62,7.31,4.75,7.82,7.85a12.15,12.15,0,0,1-.22,6.5,9.5,9.5,0,0,1-4.68,5,14.8,14.8,0,0,1-7.2,1.27c-2.13,0-4.26-.16-6.39-.1-.65,0-1.25,0-1.4-.73s.42-.94,1-1a.85.85,0,0,0,.75-.93A103.33,103.33,0,0,0,230,68.08a2.16,2.16,0,0,0-1.07-1.91c-.35-.2-.67-.53-.5-1s.61-.34,1-.34Zm8,3.48c-2.5-1.87-5.31-2.16-8.28-1.82-.32,0-.66.19-.69.61-.09,1.64-.22,3.3-.15,4.92.1,2.63.26,5.26.13,7.88-.16,3.21-.07,3.61,3.13,3.89,2.49.21,4.89-.06,6.71-2.21,1.58-1.86,1.64-4.06,1.86-6.27C244.77,74.87,244.73,70.2,242,68.3Z" fill="#fff"/><path d="M157.09,64.74a14.36,14.36,0,0,1,6.28.84c2,.88,3.46,3.8,2.76,5.87A6,6,0,0,1,164,74.93c-.34.23-.54.6-.25.94,1.87,2.2,2.63,5.09,4.59,7.23a2.94,2.94,0,0,0,1.49,1.07.85.85,0,0,1,.74.84c-.05.51-.58.47-1,.47-.92,0-1.84-.07-2.76-.06s-1.25-.54-1.69-1.08a33.88,33.88,0,0,1-2.9-4.93,6.43,6.43,0,0,0-3.42-3c-.73-.29-1.12-.11-1.11.74,0,1.81,0,3.61,0,5.41A1.21,1.21,0,0,0,158.92,84a1.34,1.34,0,0,1,.8.34A.64.64,0,0,1,160,85a.53.53,0,0,1-.56.43c-1.73.11-3.45.22-5.18.29a3.12,3.12,0,0,1-1-.23c-.32-.1-.63-.25-.64-.66a.73.73,0,0,1,.66-.77c1.18-.17,1.28-.94,1.29-1.92,0-4.33.34-8.66,0-13-.09-1.2-.07-2.36-1.43-3a.86.86,0,0,1-.57-1c.12-.54.64-.43,1-.44C154.81,64.72,156,64.74,157.09,64.74Zm.61,7c0,3.09-.34,3,2.84,2.26a2.78,2.78,0,0,0,2-1.22,4.1,4.1,0,0,0-3.62-6.24c-.72,0-1.14.3-1.15,1C157.76,68.58,157.7,71.37,157.7,71.7Z" fill="#fff"/><path d="M144.3,27.64c.07-1.45,0-1.49-1.21-1.2-3.27.78-5.33,3.11-7.25,5.62-.4.51-.05.72.45.75.7,0,1.61,0,1.63.88s-1,1.22-1.71,1.13c-1.85-.25-2.58.84-3.28,2.23-2.11,4.16-4.24,8.31-6.45,12.42a34,34,0,0,1-9.89,12,6,6,0,0,1-5.41,1.12,2.26,2.26,0,0,1-1.75-3.19,4.58,4.58,0,0,1,1.49-2.27A1.7,1.7,0,0,1,113,57a1.64,1.64,0,0,1,.66,1.85,1.26,1.26,0,0,1-1.32,1.22c-.28,0-.68,0-.59.43s.47.43.81.4a7.69,7.69,0,0,0,5.07-2.4,38.74,38.74,0,0,0,6.22-8.37c2.51-4.62,4.87-9.31,7.36-13.93.33-.6.6-1.09-.36-1.42-.55-.2-.54-.75-.15-1.19a1.11,1.11,0,0,1,.63-.41c1.89-.07,2.58-1.53,3.45-2.83a35.42,35.42,0,0,1,3.68-4.68,7.4,7.4,0,0,1,8.23-1.39,2.84,2.84,0,0,1,.83,4.42,1.87,1.87,0,0,1-2.23.76A1.61,1.61,0,0,1,144.3,27.64Z" fill="#fff"/><path d="M197.11,65.68c-.31-.3-.17-.69,0-1s.54-.22.88-.21a59.17,59.17,0,0,0,7,.13,30.74,30.74,0,0,1,4.39.16c.57,0,.66.54.67,1,0,.77,0,1.54-.08,2.31,0,.34-.06.68-.45.8a.68.68,0,0,1-.89-.46c-.45-1.7-1.64-1.91-3.15-1.77-.67.07-1.36-.26-2.07-.26s-1.06.3-1.07,1c0,2-.1,4,0,6.06,0,1,2.82.57,3.4.65a1.31,1.31,0,0,0,1.44-.56c.11-.19.14-.42.24-.62s.37-.68.8-.66a.82.82,0,0,1,.82.77c.05,1.42.05,2.85,0,4.28,0,.41-.39.49-.73.52a.74.74,0,0,1-.86-.54c-.31-1.29-1.23-1.41-2.31-1.26L205,76c-2.6.18-2.64.18-2.61,2.81a37.31,37.31,0,0,0,.31,3.95c.09.79.49,1.09,1.43,1.09s1.46.06,2.18.12a2.44,2.44,0,0,0,2.59-1.46c.16-.33.24-.7.58-.92.58-.38,1-.3,1.08.44a6.08,6.08,0,0,1-.59,3,1,1,0,0,1-1,.54l-10.81,0c-.38,0-.75-.12-.84-.56a.84.84,0,0,1,.57-1.06c1.2-.3,1.21-1.19,1.22-2.13.07-4.41.15-8.82.21-13.23C199.27,66.36,197.68,66.23,197.11,65.68Z" fill="#fff"/><path d="M144.31,64.53c1.35-.2,3,.16,4.66,0a1.23,1.23,0,0,1,.43,0c.84.25.73,1,.65,1.56-.13.88.49,2-.58,2.61-.44.26-.89-.1-1-.58-.23-1.12-.91-1.46-2-1.47s-2.05-.21-3.07-.3c-.66,0-1,.19-1,1,0,1.94-.08,3.89-.16,5.83,0,.77.3,1.08,1,1.07s1.47,0,2.21,0c.93,0,1.65-.22,1.89-1.27.1-.44.41-.86.94-.75a1,1,0,0,1,.75,1c0,1.28,0,2.57-.07,3.85a.8.8,0,0,1-1.55.19c-.32-1.26-1.26-1.38-2.32-1.31-3,.2-2.79-.44-2.77,2.85,0,1.18,0,2.35.13,3.52s.52,1.6,1.75,1.61a11.59,11.59,0,0,1,1.32,0c1.66.24,2.9-.2,3.49-1.91a.77.77,0,0,1,.94-.58c.5.13.49.57.47,1a12.36,12.36,0,0,1-.57,2.46c-.15.59-.66.66-1.14.67a25.41,25.41,0,0,1-2.76,0c-2.57-.16-5.14,0-7.71,0-.49,0-1,0-1.16-.58a.92.92,0,0,1,.65-1.14c1.28-.3,1.22-1.28,1.26-2.23.22-4.51.11-9,.14-13.55,0-.93-.21-1.56-1.23-1.74A1.09,1.09,0,0,1,137,65.1c.05-.66.67-.53,1.13-.58C140.11,64.3,142.06,64.67,144.31,64.53Z" fill="#fff"/><path d="M49.58,39.58V32.81a.86.86,0,0,0-.45-1,3,3,0,0,1-.85-.21c-.45-.24-.93-.56-.8-1.18s.68-.63,1.16-.57c2.94.3,5.88-.09,8.81.19a10.38,10.38,0,0,0,1.86-.2c.67,0,1,.2,1,.94s0,1.69,0,2.54c0,.39-.06.76-.54.81a.72.72,0,0,1-.86-.54c-.25-1.6-1.47-1.66-2.7-1.83-3.48-.48-3.58-.41-3.59,3,0,1.29,0,2.58,0,3.86,0,.68.26.93.91.91s1.48,0,2.21,0c.94,0,1.76-.1,2-1.24.09-.41.38-.89.93-.73a1,1,0,0,1,.72,1c0,.48,0,1,0,1.44,0,.69-.06,1.39-.06,2.08,0,.49-.11.91-.63,1s-.76-.23-.89-.65c-.37-1.2-1.27-1.39-2.35-1.29-3.22.27-2.86-.4-2.88,3.11a17.25,17.25,0,0,0,.3,3.72,1.21,1.21,0,0,0,1.34,1.14,16.87,16.87,0,0,1,2.75.1,1.75,1.75,0,0,0,1.9-1,9.28,9.28,0,0,1,.64-1.16.69.69,0,0,1,.87-.28.62.62,0,0,1,.37.73c-.18.89-.33,1.8-.59,2.67a1.11,1.11,0,0,1-1.09.78c-.37,0-.74,0-1.11,0a77.91,77.91,0,0,0-9.42,0c-.57,0-1.07-.17-1.17-.77a1,1,0,0,1,.74-1.08c.92-.19,1.07-.75,1.15-1.58C49.59,44.92,49.5,42.25,49.58,39.58Z" fill="#fff"/><path d="M98.26,35.07c0,2.31.87,3.44,3,4a9,9,0,0,1,5.25,3.59,5.79,5.79,0,0,1-.37,6.6,5.59,5.59,0,0,1-6.4,2l-2-.65c-.4-.14-.79-.2-1.09.21s-.55.65-1,.39-.94-.72-.75-1.23c.46-1.23.19-2.47.25-3.71,0-.33,0-.7.4-.82s.7.13.93.44a5.54,5.54,0,0,1,.73,1.84,1.75,1.75,0,0,0,1.41,1.38c1.34.26,2.6.95,4.07.3,2.26-1,2.32-3.52.92-5.13a8,8,0,0,0-2.83-2.06,11.66,11.66,0,0,1-3.23-1.89,5.92,5.92,0,0,1-1.62-6.68,6.53,6.53,0,0,1,7.72-3.79,1.5,1.5,0,0,0,1.81-.25c.46-.48,1.26,0,1.23.75,0,1.46-.28,2.91-.46,4.37a.56.56,0,0,1-.47.54.63.63,0,0,1-.67-.48c-.23-.54-.37-1.11-.61-1.65a2.83,2.83,0,0,0-4.3-1.32C99,32.6,98,33.59,98.26,35.07Z" fill="#fff"/><path d="M75.26,29.2a1.29,1.29,0,0,1,1.78.13,1.87,1.87,0,0,0,1.3.51c3.08-.1,13.48.16,14.43-.73,1.4.22,1.54.35,1.48,1.76A18.64,18.64,0,0,0,94,34c0,.29,0,.74-.38.85s-.61-.3-.82-.59-.3-.39-.29-.58c0-1.47-1-1.56-2.09-1.65A15.65,15.65,0,0,0,86.82,32l-.38.24c-.28.16-.19,13-.09,15.66a.9.9,0,0,0,.91.92,1.3,1.3,0,0,1,1.19.84c.22.59.15,1.1-.6,1-1.89-.15-3.73.37-5.61.34-.58,0-1.18-.05-1.24-.78s.54-1,1.14-1c.76-.07,1-.47,1-1.16,0-4.3-.05-13.9,0-14.08.22-1.87,0-2.18-1.91-2.18a23,23,0,0,0-2.75.19c-.76.1-1.41.39-1.42,1.36a2.18,2.18,0,0,1-.35.91.83.83,0,0,1-1,.34c-.37-.09-.3-.46-.31-.74a16.61,16.61,0,0,0-.13-3.07C75.47,30.24,75,29.73,75.26,29.2Z" fill="#fff"/><path d="M63.83,39.61c-2-1.6-1.46-7.16,1.06-8.54a9.78,9.78,0,0,1,4.36-1.6,3.92,3.92,0,0,1,1.59.35c.62.24,1.25.48,1.72-.31a.48.48,0,0,1,.77-.1c.42.34.8.83.61,1.33A10.23,10.23,0,0,0,73.6,34c0,.56-.13,1.22-.77,1.3s-.76-.61-.93-1.06a4.22,4.22,0,0,0-1.31-2.36c-1.32-.89-2.84-.58-4.13.63a3.7,3.7,0,0,0,1.46,6.3,23.71,23.71,0,0,1,5,3c2.37,2.13,1.56,7-1,8.61a6.41,6.41,0,0,1-6.12.51c-.86-.32-1.65-.72-2.49.21-.46.52-1.49-.26-1.34-1.12a29,29,0,0,0,.18-3.84c0-.4.13-.78.53-.88s.65.24.84.57a1.62,1.62,0,0,1,.23.5c.42,2.06,1.73,3,3.77,3.21a3.91,3.91,0,0,0,3.55-1.19,3,3,0,0,0,0-3.59A8,8,0,0,0,67.41,42,12.57,12.57,0,0,1,63.83,39.61Z" fill="#fff"/><path d="M177.38,73.12c0,.68.24,1,1,1s1.47,0,2.21.05c1,0,1.76-.14,2-1.27a.73.73,0,0,1,.78-.64.69.69,0,0,1,.68.63c0,1.35.46,2.67.19,4-.09.45-.19.87-.79.87s-.92-.22-1-.83a.9.9,0,0,0-.68-.9,9.45,9.45,0,0,0-3.82.06c-.41.06-.48.56-.48.92,0,1.87,0,3.74.08,5.62a.86.86,0,0,0,.86.94,3.11,3.11,0,0,1,.82.3c.3.14.63.28.59.7a.83.83,0,0,1-.79.8,15.85,15.85,0,0,1-3.71.14,11.86,11.86,0,0,0-2,0c-.4,0-.86,0-1-.51a.87.87,0,0,1,.48-1.12c1.32-.48,1.37-1.51,1.36-2.68,0-4.26,0-8.51.07-12.77,0-1,0-2-1.36-2.2a.93.93,0,0,1-.75-1.08c.07-.53.54-.68,1-.67,2.83,0,5.66.06,8.49.14a16.13,16.13,0,0,0,2.2-.07c.89-.09,1.31.32,1.29,1.21,0,.73,0,1.47,0,2.2,0,.38-.13.76-.55.86a.67.67,0,0,1-.79-.47c-.54-2-2.07-1.81-3.6-1.85-2.59-.07-2.59-.11-2.8,2.45C177.33,69.45,177.41,72.24,177.38,73.12Z" fill="#fff"/><path d="M219.83,64.59c.45,0,.83.12.93.59a.68.68,0,0,1-.6.8c-1.94.3-1.86,1.67-1.95,3.18-.25,4.38.19,8.74.14,13.11,0,1.14.53,1.51,1.7,1.53a9.67,9.67,0,0,1,1.32,0c1.58.22,2.85-.07,3.46-1.77a.85.85,0,0,1,1-.63c.56.18.44.71.39,1.13-.1.76-.27,1.52-.39,2.28a.68.68,0,0,1-.65.63,8.21,8.21,0,0,1-1.31.15c-2.76,0-5.51-.07-8.27-.11a9.65,9.65,0,0,0-1.32.07c-.54.07-1.12.1-1.31-.5a1.05,1.05,0,0,1,.67-1.35c1.18-.31,1.15-1.13,1.17-2,.08-4,.19-8.08.28-12.12,0-.59-.05-1.18-.08-1.77a1.4,1.4,0,0,0-1.12-1.43c-.58-.15-1.19-.47-1.11-1.17s.79-.72,1.39-.72C215.08,64.46,218.84,64.59,219.83,64.59Z" fill="#fff"/><path d="M189.41,79.46c0-4,.39-7.59.18-11.22-.05-.9-.2-1.58-1.12-1.9-.48-.17-.92-.46-.75-1s.7-.44,1.13-.44l4.73,0c.47,0,1,0,1.14.59s-.38.75-.8.88a1.36,1.36,0,0,0-1,1.16,16.29,16.29,0,0,0-.3,3.94c0,3.56,0,7.12,0,10.68,0,1,.17,1.76,1.37,1.86a.87.87,0,1,1-.07,1.73c-1.8,0-3.6,0-5.4,0a1,1,0,0,1-1-.77.81.81,0,0,1,.73-.94c.81-.18.92-.77,1-1.41C189.33,81.47,189.37,80.3,189.41,79.46Z" fill="#fff"/><path d="M127.77,40.31A5.89,5.89,0,0,1,124.28,45,2.45,2.45,0,0,1,121,42.06a7.72,7.72,0,0,1,1.52-3.61A3.12,3.12,0,0,1,126,37.32,2.9,2.9,0,0,1,127.77,40.31Zm-4.39,1.38c.05.48-.08,1.13.63,1.19s.88-.5,1-1a4.86,4.86,0,0,0,.11-2.18c-.07-.25-.14-.5-.44-.56s-.47.15-.63.36A4.16,4.16,0,0,0,123.38,41.69Z" fill="#fff"/><path d="M18.44,15.83a.56.56,0,0,1-.57.77c-1.25,0-2.52.3-3.74-.2,0-.19-.26-.15,0-.6s1.08-.35,1.09-1.47c0-2.05,0-4.09,0-6.13,0-.32.05-.67-.23-.92s-1-.46-.86-1.11.77-.6,1.3-.6l2.32,0a.63.63,0,0,1,.68.44c.09.36-.13.52-.39.7a3.54,3.54,0,0,0-.6,3.18.66.66,0,0,0,.79.23A9.43,9.43,0,0,1,21.44,10c.25,0,.5.07.68-.21a4.21,4.21,0,0,0-.51-3.25.79.79,0,0,1-.3-.87.67.67,0,0,1,.78-.47c1.12.11,2.23,0,3.37.17a19.12,19.12,0,0,0,2.87-.14c1,0,1.91,0,2.87,0,.56,0,1.22,0,1.42.61a2.68,2.68,0,0,1,0,2.15c-.32.59-.7.15-.9-.18-.62-1-1.48-1-2.55-.82-.75.17-.89.47-.7,1.12a5,5,0,0,1,.17.86c.12,1.43.88,1.82,2.11,1,.33-.21.58-.64,1-.34s.29.72.3,1.11,0,.67,0,1a.91.91,0,0,1-.46.93c-.44.17-.67-.17-.87-.49-.41-.67-1.05-.63-1.67-.49s-.37.77-.43,1.2a1.58,1.58,0,0,0,0,.65c.14.57-.41,1.47.36,1.65s2,.42,2.76-.52c.23-.3.46-.66.88-.45s.26.64.2,1.05c-.17,1-.66,1.37-1.72,1.35-2.93-.07-5.87,0-8.81,0-.38,0-.87.19-1.09-.29s.24-.68.56-.91c.61-.43.36-1.08.36-1.63,0-2.32,0-2.32-2.29-2.29l-1,0c-1.69,0-1.79.13-1.75,1.83-.07.63-.22,1.29.35,1.8C17.59,15.25,18.25,15.44,18.44,15.83Zm6-4.69h0c0,1.13,0,2.27,0,3.41a1,1,0,0,0,.43.93,1,1,0,0,0,1.13.15,1.51,1.51,0,0,0,.72-1.5c-.05-2.15-.12-4.31-.16-6.46,0-.75-.39-1.29-1.08-1.23a1.12,1.12,0,0,0-1.06,1.29C24.47,8.86,24.43,10,24.43,11.14Z" fill="#fff"/><path d="M2.33,2.86c-.74,0-.74.72-1,1.15s-.44.77-.93.62S0,4,0,3.68c0-1,0-1.9,0-2.86,0-.7.55-1,1-.67C2.72,1.43,4.61.84,6.37.86S10,1.18,11.85.71A3.18,3.18,0,0,0,13.07.38c.73-.52,1.16-.3,1.21.59s0,2,0,3c0,.32.09.71-.34.83s-.78-.23-1-.57c-.81-1.5-.91-1.58-2.61-1.38-.61.07-1.32-.19-1.81.21-.28.23-.1,1.85-.12,2.42-.07,2.86-.09,5,0,7.85a2,2,0,0,0,1.17,2.06.71.71,0,0,1,.5.87c-.13.48-.54.42-.9.43-1.14,0-3.81,0-4.39,0s-.37-.88,0-1.19a2,2,0,0,1,1-.34A.56.56,0,0,0,6,14.55q0-5.7,0-11.4c0-.31,0-.71-.51-.64A21.39,21.39,0,0,0,2.33,2.86Z" fill="#fff"/><path d="M265.34,73.16c-.15-1.09,1.07-3.63,1.94-4,.39-.17.56,0,.54.36A13.65,13.65,0,0,1,265.34,73.16Z" fill="#fff"/><path d="M222,109.79a113.16,113.16,0,0,1-11.51-.58c-36.85-3.78-53-6.76-103.28-27.64-16.77-7-32.55-11.35-46.9-13a97.77,97.77,0,0,0-31,.87c-10,2-16.89,7.48-17.52,13.86-.56,5.67,3.91,10.94,12.28,14.47a25.62,25.62,0,0,0,23.52-2.13c2.17-1.45,4.16-3.06,4.16-4.12h.3c0,1.39-1.48,3.2-4,4.85a26.79,26.79,0,0,1-14.45,4.21,25.43,25.43,0,0,1-9.9-2C15,94.85,10.34,89.24,11,83.16c.67-6.77,7.83-12.52,18.22-14.64a98.94,98.94,0,0,1,31.26-.88c14.43,1.71,30.29,6.12,47.14,13.12,50.18,20.83,66.28,23.8,103,27.57,19.29,2,37.14-1.54,48.72-4.84,13.55-3.86,22.75-8.53,24.9-9.86l.47.75c-2.18,1.35-11.48,6.07-25.13,10A139.28,139.28,0,0,1,222,109.79Z" fill="#fff"/></svg>