<svg xmlns="http://www.w3.org/2000/svg" viewBox="0 0 200 125"><path d="M184.72 0c8.04-.04 14.67 5.09 15.28 13.34v83.58c-.8 4.53-2.76 8.54-6.84 10.91-4.57 2.65-13.45 2.5-18.88 3.03-43.61 4.24-87.23 8.46-130.9 12.47-5.85.54-12.39 2.04-18.03 0-3.9-1.41-6.85-4.18-8.25-8.11-.4-1.11-.6-2.26-.9-3.4-14.8-4.97-21-22.51-12.02-35.59 2.5-3.64 6.17-6.47 10.2-8.24.38-.17 1.61-.4 1.74-.76l.02-36.16c.14-5.44 1.87-10.84 6.68-13.84 4.04-2.52 9.68-2.26 14.33-2.72 44.61-4.47 89.28-8.9 133.94-13.16C175.45.93 180.38.02 184.72 0zM39.61 106.19c-4.97 4.85-11.69 7.29-18.7 6.6-1.5-.15-2.07-.88-1.46 1.18 1.03 3.48 3.97 5.99 7.35 7.06 4.64 1.47 11.41.1 16.29-.35 41.61-3.8 83.2-7.89 124.8-11.92 6.12-.59 12.33-.93 18.44-1.67 6.78-.81 10.09-4.43 11.03-11.15.03-26.34-.25-52.68-.15-79.02 0-.63.17-1.23.15-1.94-.2-6.84-3.86-11.06-10.63-12.11-9.96.24-19.89 1.65-29.8 2.62-35.7 3.47-71.39 6.98-107.05 10.53-6.82.68-13.87 1.08-20.66 1.94-7.5.95-10.06 6.21-10.34 13.23-.45 11.53.34 23.37.02 34.93l.21.51c8.92-1.82 18.55 2.34 23.54 9.84 6.29 9.46 5.04 21.8-3.06 29.7zm-25.01 1.82c-.1-.69 0-1.75 0-2.5 0-.45.42-1.41.67-1.83.66-1.13 1.82-2.1 2.91-2.53.36-.14 2.08-.54 2.19-.7.14-.42.18-2.37-.42-2.37h-2.57v2.15c0 .41-.6.47-.9.49-1.49.13-3.66-.04-4.86-.98-.82-.64-1.09-1.39-1.18-2.42-.48-5.33.36-11.37.01-16.77 2.63-13.02 24.67-12.29 25.37 1.37.21 4.13.23 9.61 0 13.74-.11 2.07-.76 3.63-2.6 4.75-.97.59-2.19.88-3.23.37v-2.7h-2.84c-.09 0-1.18.94-1.57.85l-.02 1.64c4.11.61 6.44 3.96 5.68 8.05.08.08.9-.31 1.07-.39 5.01-2.42 8.48-6.36 10.47-11.58 5.65-14.84-7.77-30.55-23.21-27.5-8.84 1.74-15.44 8.66-16.88 17.5-1.32 8.13 3.45 17.63 10.95 21.2.36.17.68.41 1.11.34.07-.05-.13-.17-.14-.21zM31.38 82.3H17.37v10.33c0 1.18 2.76 4.39 3.88 4.99 5.36 2.91 8.75-4.83 9.56-8.88l.42-3.39c-1.24 1.24-4.35 1.44-5.28-.2-.34-.6-.15-1.23.6-1.03.21.06.53.53.83.7.55.3 1.33.35 1.93.21.75-.17 1.14-1.22 2.05-.66v-2.08zm-9.7 16.91v2.15c0 .41-1.07.54-1.39.55.53.51.9.97 1.63 1.14 1.12.26 3.3.24 3.78-1 0-.17-1.53.3-1.54-1.11 0-.37.36-1.16.02-1.4-.89-.09-1.65-.01-2.5-.34zm-2.52 2.93c-1.04.07-2.3 1.16-2.83 2.06-.83 1.41-.61 3.12-.6 4.69 4.58 2.02 10.03 2.3 14.61.16.07-2.73-.35-5.93-3.39-6.79-1.38 3.02-6.48 2.87-7.79-.13z" fill="#fff"/><path d="M143.01 31.57c4.27-.13 8.01-2.21 10.91-5.24 1.55-.33 2.1 1.36 1.46 2.56-.54 1-3.23 2.36-4.33 2.74-2.82.98-5.93 1.36-8.89 1.68-.42 1.37-1.04 2.68-1.47 4.05-1.17 3.71-3.29 13.09-1.46 16.48 1.43 2.64 5.96.65 7.78-.59.31-.21 1.75-1.38 1.85-1.62.15-.36-.43-1.29-.55-1.73-1.37-4.96.57-11.74 4.46-15.14 1.98-1.73 5.96-3.39 6.18.62.12 2.13-1.03 4.72-2.04 6.57-1.91 3.53-4.25 6.61-6.82 9.68 3.44 6.04 9.1-.27 11.32-3.93.97-1.59 3.95-7.57 4.26-9.19.18-.94-.15-3.93.24-4.4.25-.3 2.68-1.19 3.06-1.11.78.15.67 1.53.64 2.11l.28.07c.92-2.04 4.06-4.75 6.42-4.26 1.04.22 1.68 1.53 1.63 2.53-.13 2.21-3.13 3.39-3.77.79-.91-.57-3.08 1.55-3.65 2.19-.22.25-.99 1.16-1.1 1.4-.43.98-.45 3.27-.67 4.46-.5 2.67-1.27 5.82-2.39 8.28-.36.79-1.01 2.57-2.01 2.36-.12-.11.25-2.66.31-3.09.27-2.02.67-4.06.81-6.12l-.14-1.32c-1.49 3-2.97 5.93-5.2 8.46-1.92 2.18-4.99 4.86-8.11 3.67-1.03-.39-1.9-1.42-2.71-2.14-1.7 1.73-4.63 3.63-7.07 3.88-6.07.63-6.09-4.61-5.93-9.12 0-.23.07-.28-.17-.44-.85 1.33-1.58 2.73-2.51 4.01-2.15 2.96-6.39 7.01-10.01 7.88-2.27.54-4.77-.46-5.79-2.6-.21-.45-.05-1-.56-1.07-.66.5-1.04 1.21-1.66 1.76-2.51 2.21-6.17 2.02-7.24-1.49-.1-.32-.32-2.25-.53-2.24-1.79 3.08-4.43 8.53-8.45 8.87-1.36.12-2.78-.04-3.76-1.11-.27-.29-.64-1.46-.96-1.39-1.28 1.29-2.52 2.76-4.15 3.62-3.24 1.73-6.74 1.57-8.3-2.15-1.39-3.31-.32-10.24.35-13.84 1.14-6.13 3.32-12.83 5.89-18.5.51-1.13 1.93-4.33 2.73-5.03 1.32-1.16 3.8-1.56 4.51.48.3.86-.53 1.99-.98 2.78-3.4 5.99-6.66 11.63-8.74 18.29-1.15 3.69-3.24 12.78-1.48 16.17 1.21 2.32 5.35 1.24 7.07.09.54-.36 2.75-2.38 2.93-2.89.21-.61.11-2.07.22-2.83.37-2.62 1.96-4.92 2.7-7.42.24-.82.7-1.9-.07-2.57-.37-.18-1.55.47-1.93.71-.61.39-1.93 1.59-2.44 2.13-.43.46-2.04 3.12-2.35 3.05l-.19-.32c.32-.68.65-1.38 1.03-2.02 1.25-2.11 5.03-6.87 7.43-7.41 1.25-.28 2.2 0 2.34 1.37.39 3.92-2.38 7.77-3.67 11.3-.84 2.3-1.71 6.53 2.08 6.23 2.77-.22 6.11-5.47 7.11-7.87s1.94-5.8 2.11-8.42c.06-.97-.23-3.69.32-4.33.52-.6 3.67-1.25 4.22-.56s-.11 1.25-.36 1.72c-1.83 3.52-3.19 7.02-3.36 11.06-.13 3.18.79 6.57 4.62 4.35.77-.45 2.58-2.08 2.72-2.96.16-.97-.15-2.5-.14-3.6.04-2.51.54-5.92 1.01-8.41.37-2 .99-4.01 1.48-5.99-.13-.53-2.13.19-2.54.36-.23.09-1.64 1.07-1.48.33 1.1-1.49 2.92-1.42 4.43-2.09 1.31-4.36 2.88-8.78 4.88-12.86.43-.87 1.29-2.72 1.99-3.28.98-.79 2.79-1.3 3.82-.35 1.25 1.15.49 2.12-.17 3.31-.77 1.38-1.77 2.71-2.54 4.11-1.52 2.75-2.79 5.67-4.09 8.53.2.29.21.14.38.11 4.06-.67 6.64-1.66 9.73-4.42.62-.55.68-1.41 1.81-.81s.93 1.88.26 2.74c-1.39 1.79-5.4 2.91-7.57 3.38-1.78.39-3.6.64-5.42.75-.76 2.24-1.63 4.42-2.22 6.72-.87 3.39-1.71 7.86-1.34 11.33.19 1.78.72 3.65 2.79 3.83 5.87.52 13.08-8.44 14.45-13.55.35-1.31.38-2.95.66-4.33.4-1.97.88-3.96 1.46-5.89l-.28-.15c-.48.17-1.07.13-1.55.26-.61.17-1.61.89-1.98.94-.64.08.18-.74.28-.83 1.14-1.02 2.49-.95 3.82-1.49 1.36-4.18 2.8-8.36 4.68-12.33.44-.93 1.26-2.81 1.89-3.51.77-.87 2.76-1.69 3.81-1.03 1.97 1.23.69 2.8-.16 4.26-.62 1.07-1.38 2.06-1.99 3.14-1.59 2.84-2.92 5.89-4.23 8.87zm12.02 6.14c-1.05-.87-3.19 1.41-3.71 2.25-1.5 2.44-2.4 6.29-2.07 9.14.04.38.28 1.12.48 1.47.39.08 2.96-3.48 3.31-4.04 1.02-1.64 2.91-5.76 2.55-7.64-.04-.19-.44-1.07-.56-1.17zM70.85 62.01c-7.32 6.66-17.29 7.09-21.41-3.1s-.03-25.14 7.11-33.17c4.19-4.71 11.8-9.72 18.31-7.35 4.02 1.46 6.65 7.31 5.82 11.37-.31 1.53-1.39 5.1-3.57 3.71-.5-.32-.54-1.01-.53-1.56.02-2.18 2-3.61 1.96-6.09-.06-3.61-3.62-6.07-7.01-5.9-6.3.31-12.39 8.26-15.2 13.36-3.38 6.14-5.42 13.48-4.97 20.54.9 14.37 16.7 14.06 21.52 1.68.24-.62.55-2.1.8-2.53.46-.77 2.07-1.29 2.93-.97.2.36.3.79.22 1.19-.09.46-1.58 3.24-1.91 3.78-.97 1.59-2.68 3.79-4.05 5.03zM102.26 82.7c.27.15.57.15.88.16 1.57.09 3.81-.19 5.31-.66 1-.32 1.79-.92 2.8-1.01-.07 2.89-2.24 3.73-4.79 3.88-1.57.09-3.11-.42-4.65-.35l-1.07 3.78-.34 2.57c-1.35 5.68-2.66 11.1-6.15 15.89-2.7 3.7-7.69 6.76-11.42 2.44-1.16-1.34-1.99-3.43-1.67-5.2.36-.04.22 0 .28.2.68 2.31.71 3.69 3 5.04 1.14.67 1.93.97 3.27.54 3.76-1.21 6.05-7.43 7.14-10.88 1.52-4.83 2.25-9.81 3.08-14.8-.02-.42-.58-.53-.93-.58-1.07-.16-2.47-.05-3.5.31-.53.19-1.97 1.13-2.32 1.16-.18.02-.34-.12-.3-.3.11-.22.17-.48.36-.66.64-.62 3.37-1.53 4.28-1.65.55-.07 2.38.14 2.62-.15l2.29-10.62c.08-.47-.51-.6-.89-.6-4.15.04-7.79 1-10.82 3.88-.29.27-1.03 1.54-1.26 1.65-.15.07-.38.09-.33-.19.7-3.34 5.97-6.05 8.97-6.84 7.57-1.99 15.05 1.45 22.01-2.81.58-.36 1.83-1.55 2.36-1.54.46 0 1.49.81 1.58 1.34.19 1.08-.42 2.47-1.25 3.17-3.06 2.57-8.57 2.95-12.4 2.72-.7-.04-3.21-.61-3.61-.3-.2.15-.74 2.07-.85 2.47-.48 1.78-1.01 3.89-1.39 5.68-.08.39-.43 2.01-.29 2.23zM149.58 96.08c1.13-1.22 2.19-2.52 2.86-4.08.63-.09.03.97-.09 1.23-1.12 2.47-4.24 5.92-6.61 7.13-1.49.76-2.23.91-3.9.5-1.33-.33-2.08-1.17-3.06-2.03-1.83 1.33-3.58 2.79-5.63 3.76-1.81.86-3.55 1.17-5.3-.08-.57-.41-1.05-1.2-1.68-1.37-2.31 1.58-4.62 3.46-7.48 3.89-.73-.81.65-.71 1.14-.92.36-.15.94-.55 1.3-.78.57-.35 4.17-2.97 4.32-3.3.24-.52-.34-1.44-.47-2.02-1.17-5.33 1.14-13.42 6.36-15.93 1.41-.68 3.82-1.2 4.27.87.39 1.77-.52 4.95-1.12 6.72-1.36 3.96-4.55 7.66-7.42 10.61-.11.38.65 1.23.95 1.5 2.55 2.29 6.26-.26 8.39-2.02.67-.55 1.9-1.33 1.71-2.25s-.84-1.77-.95-2.94c-.4-4.65.7-9.27 3.89-12.75 1.82-1.98 6.33-4.79 7.17-.53.42 2.09-.43 4.37-1.28 6.27-1.42 3.17-3.53 6.26-5.82 8.87-.32.36-1.68 1.46-1.58 1.84.09.35 1.42 1.28 1.79 1.42 3.25 1.16 6.22-1.43 8.24-3.62zm-8.19-11.1c-2.24 2.27-3.66 8.25-2.69 11.26.15.46.2.72.71.27 2.14-2.8 4.49-5.95 5.2-9.49.62-3.09-.78-4.5-3.22-2.04zm-9.52 1.38c-.76-.84-2.18.35-2.79.93-2.26 2.12-3.51 7.61-2.97 10.58.04.24.11 1 .33 1.06.38.03.66-.37.9-.62 1.99-2.07 4.53-6.47 4.97-9.31.12-.76.1-2.04-.44-2.64zM120.53 87.03c-2.16-.05-3.71 2.31-5.01 3.76-.89 4.5-1.88 9.77-4.29 13.73-.29.48-1.04 1.95-1.47.89.86-3.62 1.69-7.28 2.05-10.99.11-1.13.29-2.79.29-3.88 0-2.37-1.26-3.62 2.04-4.47 2.06-.53 1.75.04 1.83 1.69 0 .16-.09.38.14.34 1.01-1.83 3.47-4.18 5.61-4.44 3.1-.37 3.48 3.74 1.07 4.67-1.2.47-2.05-.08-2.26-1.33zM19.97 84.28c.1.08.14.3.32.44.54.4 1.47.46 2.11.32.58-.13 1.31-1.1 1.85-.67.71.57-.43 1.38-.91 1.61-1.15.53-2.64.62-3.67-.21-1.33-1.06-.54-2.18.31-1.48zM27.75 89.12c.07.11.06.66 0 .78-.17.3-1.85.81-2.25.86-.8.1-3.27-.28-3.28-1.32 0-1.32 1.61 0 2.3.07.59.06 1.29-.03 1.85-.23.29-.11.57-.42.67-.44.09-.02.7.25.72.28z" fill="#fff"/></svg>