<svg xmlns="http://www.w3.org/2000/svg" width="300" height="132" viewBox="0 0 300 132"><path d="M184.18 116.29a3.21 3.21 0 0 1-2.71-.81 32.85 32.85 0 0 1-3.66-2.7c-.74-.6-1.25-.44-1.84.22-2.16 2.39-4.27 4.83-6.55 7.1A51.15 51.15 0 0 1 158 129a11.15 11.15 0 0 1-5.53 1.61 5.49 5.49 0 0 1-5.53-4.16 6.11 6.11 0 0 1 2.17-6.58 18.32 18.32 0 0 1 3.47-1.54c.28-.11.67.06 1 .1l.05.28c-.63.31-1.28.59-1.89.94a6 6 0 0 0-3.12 4.74c-.28 2.2 2.52 5.25 5.1 4.52a20.71 20.71 0 0 0 5.75-3c5.38-3.62 9.73-8.31 13.88-13.21.51-.61 1-1.23 1.58-1.8a1.6 1.6 0 0 0 .31-2c-2-4.37-1.65-8.78-.09-13.15.77-2.18 1.76-4.29 2.67-6.42.62-1.44.37-1.81-1.18-1.72-1.35.08-2.7.16-4 .13a3.72 3.72 0 0 0-2.85 1.23c-3 3-5.84 6.13-9 9a105 105 0 0 1-8.83 6.88c-3.12 2.22-6.74 2.52-10.45 2.21a13.39 13.39 0 0 1-7.62-2.68A13.73 13.73 0 0 1 129 95c-1.29-9.33 6.19-16.33 12.9-17.86a24.81 24.81 0 0 1 4.06-.27l.07.46c-.33.09-.65.2-1 .28-4.45 1.11-8.45 3-11.15 6.87a15.85 15.85 0 0 0-3 8.28c-.2 3.82 2.54 9.69 7.36 11.15a15.51 15.51 0 0 0 11.36-.66c4.78-2.23 8.38-5.94 12-9.65 1.35-1.39 2.73-2.75 4.07-4.15a2.78 2.78 0 0 0 .37-.88c-.3-.1-.61-.32-.9-.29a27.36 27.36 0 0 0-11.34 3.43 12.35 12.35 0 0 0-4.6 5.22c-.27.54-.58 1.06-.87 1.59l-.42-.09a6.91 6.91 0 0 1 0-1.51 10.18 10.18 0 0 1 3.84-5.76 20.66 20.66 0 0 1 11.31-4.23c1.1-.1 2.21-.21 3.32-.23a4.52 4.52 0 0 0 3.43-1.7q6.88-7.5 13.82-15c.75-.81 1.57-1.57 2.34-2.36.25-.26.45-.57.8-1a6.39 6.39 0 0 0-1.17-.19c-5.22.45-10.46.71-15.63 1.45a24 24 0 0 0-11.31 4.7c-3.57 2.77-4.81 6.62-4.24 11.09a7.44 7.44 0 0 1 0 1.33c-.33-.34-.82-.63-1-1a10.11 10.11 0 0 1 0-6.63c1.69-5.18 5.6-8.14 10.4-10.2a34.44 34.44 0 0 1 15.44-2.56 33.12 33.12 0 0 0 10-.62 33.59 33.59 0 0 0 4.13-1.61c.32-.13.59-.38.91-.49a7.08 7.08 0 0 1 1.12-.19c0 .42.07 1-.16 1.24-.67.82-1.49 1.51-2.24 2.27a10.86 10.86 0 0 0-2 2.16c-2.85 5.42-5.63 10.89-8.4 16.35a4.83 4.83 0 0 0-.25 1.35 3.76 3.76 0 0 0 1.36-.12c1.75-.88 3.46-1.85 5.18-2.79l.89-.46.26.18a9.18 9.18 0 0 1-.75 1.58 8.22 8.22 0 0 1-4.35 3 9.47 9.47 0 0 1-2.43.54 2.8 2.8 0 0 0-2.66 2.1c-1 2.78-2.21 5.54-3 8.39a17.37 17.37 0 0 0-.41 8.74 3.59 3.59 0 0 0 .6 1 3.46 3.46 0 0 0 .94-.67q5.43-7.84 10.81-15.74a3.09 3.09 0 0 0 .24-.94 3.12 3.12 0 0 0-1.05 0c-.79.24-1.54.62-2.33.87a3.92 3.92 0 0 1-1 0 3.91 3.91 0 0 1 .56-1 4.37 4.37 0 0 1 1.07-.63q2.43-1.26 4.88-2.5c.27-.14.55-.25.94-.43.53 1.58-1 2.57-1 4.15.55-.3 1-.55 1.39-.77a38.16 38.16 0 0 1 4.35-2.15c2.13-.75 3.28.12 3.39 2.36a7.72 7.72 0 0 1-1.73 5 11 11 0 0 1-6 4.36 6.91 6.91 0 0 1-4.49-.07 1.77 1.77 0 0 0-2.36.66c-2.31 3.2-4.63 6.39-6.93 9.59a1.33 1.33 0 0 0 .21 2l4.15 3.76c.36.32.62.67 1.08 1.19zm4.24-48l-.27-.16a2.31 2.31 0 0 0-.29.24q-4.26 4.89-8.51 9.8-2.82 3.25-5.57 6.56a2.82 2.82 0 0 0-.35 1 3.63 3.63 0 0 0 .95.26c1 0 2-.18 2.9-.09 1.77.15 2.57-.8 3.29-2.24 2.25-4.52 4.63-9 6.94-13.46.33-.61.61-1.2.91-1.89zm.85 29.38a9.71 9.71 0 0 0 9.23-6.83 1.58 1.58 0 0 0-.33-1.28 1.37 1.37 0 0 0-1.2-.11c-3.66 1.31-6.43 3.85-9 6.62-.68.73-.41 1.35.57 1.53.3.07.61.08.73.09zM64.23 32.87c-6.57-1.49-12.9-.3-19 2.26S34 41.62 31.48 48.21l-.4-.2a11.32 11.32 0 0 1 .14-1.84 15.82 15.82 0 0 1 5.87-8.82 32 32 0 0 1 12.8-5.94 36.8 36.8 0 0 1 12.36-1 19.71 19.71 0 0 1 11.55 4.64 10.34 10.34 0 0 1 3.45 7.2c.41 4.64-.94 8.91-2.88 13-2.27 4.83-5.91 8.5-10 11.77a39.23 39.23 0 0 1-12.62 6.62 42.77 42.77 0 0 1-13.91 2.18 16 16 0 0 1-11.47-4.52c-3.28-3.26-3.9-7.11-2.27-11.37s4.92-7.06 9-9A23.62 23.62 0 0 1 45.92 49c2.3.25 3.49-.48 4.62-2.42A32.55 32.55 0 0 1 61.22 35.2c1-.64 2.05-1.24 3.08-1.87zm-32 38.24l-.08-.45a14.47 14.47 0 0 0 6.71-5.84c2.48-3.62 4.84-7.33 7.22-11a16.52 16.52 0 0 0 1-2.09 10.37 10.37 0 0 0-2.45-.54 23.59 23.59 0 0 0-14.36 5c-3 2.34-4.57 5.31-4.09 9.21.59 4.69 4.68 8.1 9.4 8.82a23.35 23.35 0 0 0 9.42-.87 57.79 57.79 0 0 0 10.29-4.1c6.08-2.93 11.15-6.9 14.54-12.85 2.38-4.2 4-8.58 3.77-13.51-.15-3.13-1.11-5.8-3.69-7.78s-3.24-1.85-5.7.06c-4.66 3.63-7.95 8.35-10.93 13.33-.64 1.06-.36 1.61.83 2a14.14 14.14 0 0 1 6.18 3.25 7.1 7.1 0 0 1 .91 1.39l-.35.33c-.57-.28-1.13-.61-1.72-.83-2.2-.81-4.4-1.62-6.62-2.36a1.71 1.71 0 0 0-2 .89c-1.54 2.34-3.11 4.66-4.67 7a32.53 32.53 0 0 1-7.61 8.58 27.33 27.33 0 0 1-4.66 2.4 3.63 3.63 0 0 1-1.31-.04zM111.69 60c.36-.19.73-.35 1.08-.56 2-1.18 3.91-2.46 6-3.5a6.88 6.88 0 0 1 2.92-.47c1.16 0 1.73.63 1.41 1.76a25.1 25.1 0 0 1-1.71 4.21c-.6 1.2-1.41 2.3-2.09 3.46a3.23 3.23 0 0 0-.21.84c.32 0 .71 0 .93-.13 2.34-1.65 4.81-3.1 6.73-5.33a15.65 15.65 0 0 1 8-5c1.4-.37 2.52 0 3 .89a2.57 2.57 0 0 1-.87 3 14.6 14.6 0 0 1-3.69 2 16.86 16.86 0 0 1-4.08.72 1.91 1.91 0 0 0-1.93 1.42 8.62 8.62 0 0 0-.31 2.76 2 2 0 0 0 2.8 1.48c2-.69 3.33-2.3 4.78-3.73.57-.55 1.2-1 1.79-1.57l.34.22a5.86 5.86 0 0 1-.07.94 4.74 4.74 0 0 0 1.18 4.43 2.51 2.51 0 0 0 3 .75 2.1 2.1 0 0 0 1.44-2.28 37 37 0 0 0-.47-4.33c-.48-2.93-.07-5.55 2.56-7.38a4 4 0 0 1 3.45-.69 3 3 0 0 1 1.79 4.7 3 3 0 0 1-2.46 1.75c.2-.29.4-.57.59-.87s.67-.81.71-1.24a2.77 2.77 0 0 0-.35-1.88 2.32 2.32 0 0 0-1.85-.54 3.34 3.34 0 0 0-2.72 4c.22 1.29.61 2.56.92 3.84a6 6 0 0 1-.08 4.07c-1.45 3-5.77 3.57-8.19 1A14.1 14.1 0 0 1 135 67.5c-.52-.67-1-.57-1.56 0a18.79 18.79 0 0 1-2.94 2.43c-2.74 1.63-5.6.16-6-3 0-.31-.2-.82-.38-.86a1.44 1.44 0 0 0-1 .32 18.15 18.15 0 0 1-6.18 3.61 2.8 2.8 0 0 1-2.19-.12c-.67-.59.07-1.37.43-2 1.62-3 3.24-6 4.83-9a4.43 4.43 0 0 0 .21-1.34 4.59 4.59 0 0 0-1.42.25 51.52 51.52 0 0 0-12.14 9.5 4.84 4.84 0 0 1-1.24.71 5 5 0 0 1 .21-1.53 215.94 215.94 0 0 1 11.54-20.65A64.93 64.93 0 0 1 131.09 30a9.57 9.57 0 0 1 5-2.25 4 4 0 0 1 1.21.31 4.65 4.65 0 0 1-.81.94 50.87 50.87 0 0 0-15.23 14.3c-2.43 3.52-4.49 7.3-6.7 11-.88 1.45-1.71 2.93-2.55 4.4-.19.35-.35.73-.52 1.1zm18 .18l.17.45a4.59 4.59 0 0 0 1.23 0 9.88 9.88 0 0 0 2.33-.87 17.91 17.91 0 0 0 2.58-1.89c.2-.17.16-.61.23-.93a2.76 2.76 0 0 0-.95-.15 5.93 5.93 0 0 0-1.62.68c-1.35.87-2.66 1.81-3.96 2.72zM251.45 96.34c1-.71 2-1.38 3-2.15a27.45 27.45 0 0 0 6.67-7c.23-.38.73-.6 1.11-.9a5.61 5.61 0 0 1-.26 1.51c-.37.79-.87 1.5-.54 2.44s.8 1.08 1.51.36a19.47 19.47 0 0 1 6.06-4.22 14 14 0 0 1 4-1.09c1.33-.17 1.87.46 1.53 1.75a7.36 7.36 0 0 1-1.47 2.96 11.91 11.91 0 0 1-6.24 3.89 7.7 7.7 0 0 1-2.75 0c-1.31-.17-1.78.1-2 1.42-.41 2.64.91 3.84 3.48 3.14a9.62 9.62 0 0 0 1.28-.43 13.39 13.39 0 0 0 5.65-4.09 3 3 0 0 1 .41-.46s.13 0 .49-.13a9.93 9.93 0 0 1-.41 1.52 3.58 3.58 0 0 0 .54 4.14c1.11 1.08 2.53.9 3.1-.53a12.34 12.34 0 0 0 .7-3.21 21.21 21.21 0 0 1 1.89-7.5 6.16 6.16 0 0 1 5.7-3.1c2.6.27 3.53 2.23 2.11 4.44a4 4 0 0 1-4 1.82c.4-.38.71-.69 1-1a8.16 8.16 0 0 0 1.56-1.48 1.74 1.74 0 0 0 .1-1.59 1.91 1.91 0 0 0-1.62-.45 4.73 4.73 0 0 0-3.64 4c-.42 2.6-.78 5.21-1.28 7.79a3.66 3.66 0 0 1-2.82 3.24 4.52 4.52 0 0 1-4.48-1.3 4.59 4.59 0 0 1-.75-1.46c-.29-.78-.67-1-1.37-.4a9.68 9.68 0 0 1-6.37 2.13c-2.3 0-3.5-1.17-3.36-3.47a16.79 16.79 0 0 1 .69-3c.07-.3.35-.63.28-.87a11.67 11.67 0 0 0-.73-1.62c-.42.21-1 .32-1.24.65a30.31 30.31 0 0 1-10 7.85 1.76 1.76 0 0 1-.76.3c-.46 0-1.09.07-1.35-.19s-.18-.9-.05-1.33c.93-3.13 2.83-5.75 4.45-8.53a5.5 5.5 0 0 0 .36-1.31 5.49 5.49 0 0 0-1.37-.18c-.72.09-1.41.36-2.13.47-.25 0-.75-.12-.78-.27a1.15 1.15 0 0 1 .25-.9 6.68 6.68 0 0 1 5.5-1.13 1.43 1.43 0 0 1 .78 2c-.79 2.09-1.68 4.15-2.52 6.22-.13.34-.21.7-.32 1zm12.78-4.24l.16.35a10.58 10.58 0 0 0 1.38 0 9.4 9.4 0 0 0 6.11-3.6 6.18 6.18 0 0 0 .62-1.43c-.59 0-1.29-.21-1.73 0-2 1.15-3.92 2.41-5.85 3.68a3.87 3.87 0 0 0-.69 1z" fill="#fff"/><path d="M202.08 88.71a6.24 6.24 0 0 1 1-.48c1.75-.56 3.5-1.11 5.26-1.62.29-.09.78-.11.91 0a1.26 1.26 0 0 1 0 1 13.43 13.43 0 0 1-.66 1.52l.25.22c.34-.18.69-.33 1-.53 1.56-1 3.07-2 5-2.16A2.74 2.74 0 0 1 218 89.4a7.89 7.89 0 0 1-1.9 6c-2.42 3-5.44 5-9.5 4.88a9.37 9.37 0 0 1-2.43-.49c-1.58-.52-1.79-.47-2.74.9-1.9 2.77-3.75 5.58-5.74 8.27a123.42 123.42 0 0 1-14.72 16.91 42.2 42.2 0 0 1-5.55 4.33 5.7 5.7 0 0 1-5.56.52 4.44 4.44 0 0 1-2.13-5.4 7.05 7.05 0 0 1 5.45-4.76 1.14 1.14 0 0 1 .51-.05 5 5 0 0 1 .71.32c-.17.22-.3.55-.52.66-.58.29-1.26.4-1.81.74a4.56 4.56 0 0 0-2 5.13c.47 1.74 2.08 2.6 3.61 1.69a27.63 27.63 0 0 0 4.85-3.51 124.26 124.26 0 0 0 16.94-19.76q5.34-7.68 10.62-15.38a6 6 0 0 0 .54-1.49 13.48 13.48 0 0 0-1.56 0 5.05 5.05 0 0 1-2.88.1zm3.6 9a15.63 15.63 0 0 0 6.44-2c1.8-1.12 3.34-2.51 3.8-4.71a1.7 1.7 0 0 0-2.38-2.11 15.49 15.49 0 0 0-8.89 6.9 8.15 8.15 0 0 0-.53 1.58zM102.14 65a5.28 5.28 0 0 1-.24 1.28 5.73 5.73 0 0 1-5.43 2.76 3.68 3.68 0 0 1-2.73-3c-.24-1.12-.59-1.18-1.52-.5-1.24.9-2.56 1.73-3.88 2.53a1.91 1.91 0 0 1-1.19.25c-.69-.1-1.57-.17-1.94-.62s.2-1.21.35-1.85c0-.13.16-.25.18-.37v-.87a2.89 2.89 0 0 0-.8.26c-1.21.8-2.35 1.71-3.6 2.44a17.43 17.43 0 0 1-3.3 1.48 2.67 2.67 0 0 1-3.58-3.28 13 13 0 0 1 3.77-6.79c1.18-1.15 1.14-1.19-.22-2.05-.34-.22-.49-.73-.73-1.11a3.43 3.43 0 0 1 1.11-.2 6.71 6.71 0 0 0 3.89-.26 4.57 4.57 0 0 1 1.2-.1l.23.25a7.9 7.9 0 0 1-.95 1.43 22.25 22.25 0 0 0-4.47 5.83 11.34 11.34 0 0 0-.93 2.19 1.64 1.64 0 0 0 .21 1.4 1.8 1.8 0 0 0 1.52.21A23.51 23.51 0 0 0 83 64.44a33.07 33.07 0 0 0 8.65-7.86 5.08 5.08 0 0 1 .89-.77l.35.15a4.32 4.32 0 0 1-.32 1.33c-1.64 2.77-3.34 5.51-5 8.27a4.2 4.2 0 0 0-.28 1.21c.41 0 .9.09 1.23-.1a15.67 15.67 0 0 0 6.39-6.17 11.35 11.35 0 0 1 9-6c2.62-.3 4.08 1.86 3 4.25a4.66 4.66 0 0 1-3 2.78 1.77 1.77 0 0 1-1.46-.35 1.39 1.39 0 0 1 .19-1.36 6.31 6.31 0 0 1 2.14-1.31c1.17-.41 1.53-.72 1.37-1.69s-.84-1.23-1.93-1.1c-3.3.39-7.59 4.08-8.44 7.27a1.87 1.87 0 0 0-.09.41c-.13 1.31-.15 2.65 1.14 3.43s2.47.07 3.54-.67c.52-.37 1-.85 1.47-1.27zM3.37 16.34c-.1.37-.17.74-.29 1.1a29.83 29.83 0 0 0-1.41 4.32A6.44 6.44 0 0 0 6 29c3.54 1.4 6.61.21 9.48-1.74 2.19-1.49 3.51-3.79 4.89-6Q24 15.44 27.66 9.63c.62-1 .59-1.37-.4-1.61-4.33-1-8.47-.8-12.13 2.12a6.84 6.84 0 0 0-2.29 3.63 3.7 3.7 0 0 0 .65 3c.17.3.31.62.46.94l-.3.28a5.49 5.49 0 0 1-1-.81 5.45 5.45 0 0 1-.33-6.41c1.71-3.14 4.67-4.25 7.92-4.9 2.65-.53 5.25 0 7.84.44a5.37 5.37 0 0 0 3.62-.47 8.12 8.12 0 0 1 2.8-.63c.32 0 .69.3 1 .46V6l-2.35.49-.1.35c.41.18.82.54 1.22.53 1.52 0 3-.16 4.54-.26L40.48 7l.13.39a10.12 10.12 0 0 1-1.42.83c-2.23.9-4.58.64-6.89.48a2.68 2.68 0 0 0-2.88 1.62 105.06 105.06 0 0 1-9.8 14.65 15.37 15.37 0 0 1-7.44 5.6c-2.89.88-5.76 1-8.48-.49C.69 28.35-.69 24.7.34 20.88a19.79 19.79 0 0 1 2-4c.16-.29.54-.47.82-.7zM32.3 22.39c.38-.25.74-.54 1.15-.76a41.15 41.15 0 0 1 3.85-2c1.15-.47 1.79.17 1.45 1.36a10.24 10.24 0 0 1-1 1.94c-.21.39-.44.76-.67 1.13l.17.28a3 3 0 0 0 1-.34 4.76 4.76 0 0 0 1-1.28 8.28 8.28 0 0 1 3.38-3.28 2.32 2.32 0 0 1 2.88.23c.62.65.56 1.54-.23 2.65A3.5 3.5 0 0 1 41.43 24c-.79-.2-1.57-.11-1.87.65a2.26 2.26 0 0 0 0 1.91 2.06 2.06 0 0 0 1.89.51 13.38 13.38 0 0 0 3.15-1.89c.73-.55 1.29-1.34 2-2 .21-.18.61-.16.92-.23-.06.3 0 .72-.18.88A43.07 43.07 0 0 1 42.63 28a2.78 2.78 0 0 1-4.5-1.53c-.17-.72-.67-.81-1.27-.44s-1.34.86-2 1.23a4.79 4.79 0 0 1-1.08.3l-.22-.28 3.19-5.08-.28-.37a6.37 6.37 0 0 0-1.08.53c-2.52 2-5 4.05-7.53 6a3.48 3.48 0 0 1-1.21.34 3.78 3.78 0 0 1 .16-1.23 79.78 79.78 0 0 1 9.75-14.17 54.28 54.28 0 0 1 4.87-5.08A4.17 4.17 0 0 1 45 7c.3 0 .55.38.82.59-.27.14-.53.29-.81.41a12.29 12.29 0 0 0-2.5 1.1c-2.89 2.19-4.87 5.19-7 8-1 1.3-2 2.6-2.91 3.92a7.53 7.53 0 0 0-.6 1.12zm8.83.34a2.47 2.47 0 0 0 3.38-1.14c.14-.55-.15-1-.69-.82a3.69 3.69 0 0 0-2.69 1.96zM220.32 88.09c.28-.25.52-.62.85-.73a16.09 16.09 0 0 1 2.72-.66c1.09-.15 1.58.4 1.29 1.48a19.67 19.67 0 0 1-1 2.48l-.33.8.23.19 1.16-.89c1.59-1.27 3.17-2.56 4.78-3.79a2.08 2.08 0 0 1 2.53-.2 2.23 2.23 0 0 1 .94 2.37 6.1 6.1 0 0 1-3.07 4.33c-.19.11-.5 0-.75 0a2.24 2.24 0 0 1 .11-.88c.43-.71 1-1.34 1.37-2.07.27-.54.59-1.53.36-1.73-.66-.61-1.16.25-1.58.64-2.62 2.37-5.17 4.81-7.78 7.17a83.06 83.06 0 0 1-4.46 3.73c-.33.25-.9.2-1.36.28a5 5 0 0 1 .43-1.29c2-3 4-6.07 5.93-9.1a2.07 2.07 0 0 0 .32-.65c.07-.42.07-.86.1-1.29h-1.18c-.39 0-.92.12-1.38.18zM233.43 96.64a12 12 0 0 1 3-6.47 12.87 12.87 0 0 1 4.79-3.74 8.33 8.33 0 0 1 2.78-.67c1.34-.09 2.25 1.11 2.23 2.95a12.55 12.55 0 0 1-8.55 11.76h-.21c-2.53.67-4.04-.47-4.04-3.83zm11.14-6.18c.06-2.73-.86-3.43-2.75-2.54a12.89 12.89 0 0 0-5.39 5.16 6.13 6.13 0 0 0-1 4 1.65 1.65 0 0 0 2.21 1.5 7.77 7.77 0 0 0 2.12-1.05c2.62-1.88 4.45-4.34 4.81-7.07zM156.43 61c.28-.49.56-1 .85-1.47.19-.32.41-.63.6-1 .43-.73.66-1.55 0-2.19a1.87 1.87 0 0 0-2.33 0c-1.38.8-1.92 2.74-1.53 4.62a39.91 39.91 0 0 1 .91 5.93 4.14 4.14 0 0 1-2.41 4 4.53 4.53 0 0 1-4.93-.25c-1.45-1-1.92-3-1.27-5 .36-1.15.67-2.34 2-2.86.63.67.13 1.25-.08 1.82a3.26 3.26 0 0 0 2.93 4.6 1.85 1.85 0 0 0 2.07-1.85 11 11 0 0 0-.44-2.84 10.6 10.6 0 0 1 .25-7.32 4.59 4.59 0 0 1 5.74-2.39 2.21 2.21 0 0 1 1.29 2.47A5.3 5.3 0 0 1 157.7 61a5.73 5.73 0 0 1-1.06.35zM296.73 77.47c-.57 2-1.06 3.89-3 4.84a3.57 3.57 0 0 1-1.42 0c0-.51.07-1 .14-1.54 0-.11.16-.21.25-.32.91-1.12 1.81-2.25 2.75-3.34.18-.22.6-.46.8-.39s.33.5.48.75zM300 78.07a6.23 6.23 0 0 1-2.7 4.45c-.35.22-1 0-1.52 0 .12-.46.09-1.1.38-1.34a6.28 6.28 0 0 0 2.6-3.85c.11-.68.64-.55 1-.12a2.63 2.63 0 0 1 .24.86zM9.18 0c-.56 1.5-.06 2.9.12 4.32a1.34 1.34 0 0 1-.76 1 1.48 1.48 0 0 1-1.15-.62A2.13 2.13 0 0 1 7 3.29 4 4 0 0 1 9.18 0zM6 .62a4.72 4.72 0 0 0-.41 3.84 1.21 1.21 0 0 1-.6 1 1.48 1.48 0 0 1-1.22-.43C3 4.11 4.09.9 5.28.54A2.8 2.8 0 0 1 6 .62z" fill="#fff"/></svg>