<svg xmlns="http://www.w3.org/2000/svg" viewBox="0 0 280 117"><g fill="#fff"><path d="M158.41 111.67c1.7 3.31 4.08-.11 5.15-2.03 2.21-2.27 3.32-4.86 3.66-7.97.53-2.18 2.23-2.06 3.98-2.64 2.92-1.18 5.97-3.81 5.35 1.35.11 2.08.66 3.9.59 5.96-.14 2.81-.56 7.02 2.69 8.15 1.95.47 3.17-1.13 3.37-2.92.89-3.67-.15-7.44-.03-11.15.06-3.39.76-6.83.79-10.23-.74-5.07.89-10.42-1.62-15.28-5.57-6.85-13.36-.52-13.89 6.62-2.05 3.19-1.83 7.49-4.83 10.05-1.2 1.24-.96 3.36-1.3 4.78-.42 1.46-1.64 2.6-2.06 4.06-.66 1.96-.62 3.91-1.48 5.87-.87 1.98-2.62 3.56-.37 5.36zm13.86-21.1c.72-1.21 1.54-7.93 3.38-6.67.59.87.03 2.1.24 3.06.36 1.47.92 3.17.45 4.67-1.27 1.41-6.53 2.85-4.06-1.07zM221.66 101.04c.62 3.13-.26 7.02 2.32 9.41 4.87 5.19 8.65 6.47 14.95 2.31 5.95-4.87 8.96-12.9 10.59-20.23.4-1.93-.27-3.83-.44-5.74.25-2.99.1-6.47-.36-9.45.85-3.92-2.98-9.97-6.41-5.09-1.16 2.07-1.19 5.26-.92 7.65.4 2.22-.76 4.44-.79 6.73.35 6.29-1.61 12.62-3.62 18.54-1.98 2.71-3.85 5.21-4.8.15-1.86-3.89-.37-8.05-.7-12.14.43-1.87 1.13-3.91.78-5.92.28-3.21.93-6.13.34-9.48.33-4.53-5.7-4.15-7.53-1.31-2 4.62-2.66 10.85-3.54 16 .79 2.84.52 5.71.12 8.55zM279.75 71.41c-.62-1.24-2.24-.71-3.42-.66-5.33-.66-8.7.64-13.64 2.39-1.78.42-4.48-.19-5.15 2.06-.35 1.08.09 2.09.09 3.33.07 2.72-1.45 4.9-2.05 7.46-.33 1.26-.06 2.62-.51 3.86-.69 1.39-1.38 2.47-1.3 4.03-.89 5.71-2.45 11.5-1.99 17.38.02.82.11 1.45.63 2.06 3.6 3.62 7.71 1.43 14.14 1.7 2.85-.34 5.08.11 7.24-.89.57-1.89.89-1.23 2.4-1.64 1.7-1.1 1.67-3.71.81-5.35-.75-1.02-2.39-.41-3.67-.51-3.07-.68-6.21.28-9.21.6-2.85.15-.62-3.35-1-5.06.18-2.16-.07-4.13 2.31-4.61 3.48-1.39 10.34.73 11.54-4.03.59-5.42-6.82-3.05-10.2-3.55-2.16.2-1.47-2.18-1.3-3.53.58-1.78-.03-3.53.91-5.02 5.52-2.41 15.27-.7 13.36-10.02zM188.52 104.74c1.99 6.58 10 7.61 15.85 6.41 1.36-.43 2.52-.82 3.49.54 2.28 2.57 5.41 4.8 9.04 3.96.79-.18 2.33-.21 2.08-1.35-.66-3.82-6.81-5.3-5.71-9.55.75-2.72 2.32-5.03 3.35-7.63 2.07-6.29 2.43-14.42-2.06-19.8-1.06-2.94-4.06-5.13-7.25-4.74-1.88-.28-3.62-.96-5.62-.64-3.64.42-6.35 4.15-8.6 6.47-1.98 2.34-.88 5.92-2.81 8.23-.69 1.02-.93 2.38-1.53 3.43-.58 1.01-1.43 1.8-1.59 2.97-.32 3.45-.95 8.76 1.36 11.69zm10.2-10.91c3.45-5.98.41-8.87 4.78-10.41 3.31-2.83 5.15-.89 4.92 2.9.72 3.4.55 8.05-1.33 11.02-.64.45-1.44-.12-2.39-.19-2.23-.25-2.82 1.63-2.64 3.56-.4 1.65 2.09 4.03-.1 4.4-6.46.86-4.67-7.44-3.24-11.29zM136.08 113.51c3.21 2.68 6.31 1.08 5.31-3.37-.14-1.59.38-3.27.52-4.88.17-1.54-.21-3.34.61-4.73 1.36-1.81 4.13-.86 5.98-1.81 6.17-1.83 9.32-2.8 12.72-8.79 1.12-5.14 4.1-10.14-.68-14.52-5.42-4.38-13.22-3.69-17.66 1.77-2.84 5.8-3.18 12.89-5.32 18.98-2.13 3.21-1.48 6.83-1.71 10.48 0 2.23-.4 4.74.24 6.87zm10.3-25.26c-.92-4.64 10.81-14.62 9.18-4.95-.41 1.59-1.48 2.6-2.48 3.92-1.46 3.14-9.27 8.24-6.7 1.03zM134.28 86.82c.31-3.07-.12-5.94-1.95-8.49-1.21-4.02-3.81-7.07-7.24-9.45-2.99-2.31-6.64-3.5-9.68-5.59-3.17-.91-6.43-1.2-9.69-1.56-3.08.35-3.98-.18-6.3 2.24-2.81 1.32-3.8 3.42-5.55 5.77-1.44 1.42-3.07 2.35-3.61 4.4-1.47 2.2-2.73 4.62-2.77 7.32-.96 2.56-2.11 5.13-1.83 7.97-.72 2.77-.44 5.64-.33 8.48-.24 7.54 5.55 17.75 14 17.7 4.63.66 8.96.07 13.4-1.37 1.55-.7 2.91-1.83 4.54-2.42 5.14-2.86 8.85-7.68 12.08-12.45 3.17-3.2 5.72-7.88 4.93-12.54zm-13.87.47c-1.48 2.61-1.7 6.2-2.91 9-1.46 1.83-3.49 3.02-4.89 5.03-1.71.92-2.07 2.5-3.47 3.58-4.68 2.09-9.46-2.59-11.23-6.58-.43-2.13-.73-5.42.18-7.5.8-.97 1.62-1.92 1.91-3.18.41-1.14 1.58-1.79 2.09-2.92 1.14-2.16 1.96-4.52 3.28-6.59 1.36-1.98 3.38-2.7 5.33-3.86 1.48-.2 3.11.08 4.46.8 2.9 2.41 5.73 8.4 5.25 12.22zM62.15 32.58c-2.17 2.7-1.92 6.79-2.66 10.05-.85 3.67-2.26 7.26-2.1 11.12-1.37 3.36-7.48 2.42-7.93-1.23-3.53-11.1.71-23.29 3.77-34.03.94-3.63-1.95-7.34 1.33-10.07 5.13-4.93 13.83-9.97 20.81-6.9 5.32 1.43 9.71 11.77 8.74 16.94-.06 1.3-1.16 2.13-1.98 3.04-1.57 1.37-1.97 3.26-3.38 4.66-2.99 2.77-7.66 4.61-11.38 5.62-1.66.42-3.76-.23-5.21.79zm7.78-24.54c-3.68-.3-4.47 3.35-4.39 6.27-.31 2.91.37 3.65 2.79 4.85 2.97 2.15 3.18.68 3.76-2.17.18-1.41 1.22-2.66 1.23-4.07-.17-1.72-1.61-4.49-3.39-4.87zM158.02 58.01c-.4-.75-1.5-.99-2.37-1.62-2.55-1.49-1.59-4.88-3.44-6.96-3.71-4.3-7.47-8.25-11.32-12.49-3.1-3.3 3.16-6.82 5.09-9.16 3.87-4.89 11.82-12.01 10.04-19.47-.29-5.34-7.05 3.31-8.72 4.45-1.2 1.91-3.33 2.39-4.48 4.23-.6 1.05-1.69 2.94-2.28 3.95-.35.6-.76 1.14-1.38 1.37-2.16.81-1.57-2.31-2.18-3.49-.65-1.4-2.02-3.52-3.52-3.54-2.17.1-2.31 2.75-2.99 4.31-.51 1.19-1.63 1.95-2.2 3.12-.99 1.95-.69 4.15-1.71 6.02-3.2 6.37-3.33 13.81-5.59 20.49-.2 3.38-2.13 10.55 3.81 6.62 5.37-1.04 6.21-7.42 7.07-12.09.23-1.44-.12-3.23.74-4.49 1.53-2.47 7.44 6.33 8.89 7.39 2.8 2.28 14.29 16.04 16.53 11.35zM101.36 42.71c-2.36-.13-2.09 8.97-10.54 11.16-2.95-1.11 1.05-9.34 1.74-11.42 1.54-4.55 2.42-8.7 4.9-12.89 1.61-3.33 2.84-6.7 5.34-9.59.81-1.32 1.14-3.17 2.97-3.26 3.99.06 3.52 6.95 3.97 9.74.19 1.48-1.25 5.64.76 6.05 1.09-.15 1.09-1.73 1.51-2.58 1.76-5.09 4.23-9.89 6.93-14.57 1.18-1.89 3.21-.38 3.35 1.43.02 1.9-1.13 3.67-1.07 5.61-.22 1.9.23 4.16-.58 5.89-1.1 1.42-.86 3.02-1.18 4.67-2.32 4.52-4.42 8.9-5.71 13.86-1.01 3.56-1.82 7.28-4.97 9.6-1.56 3.51-5.9-.15-6.44-2.6-.7-3.29-.33-6.99-.53-10.21-.05-.46-.2-.73-.44-.87zM17.7 4.35c.91 1.62-.42 3.44-.26 5.11.41 1.54 2.16 1.29 3.09.22 1.7-1.44 1.49-4.44 3.77-5.06 3.98-.75 2.58 2.58 1.59 4.76-.54 3.1-.41 3.62-2.2 6.36-.85 2.08-1.18 4.64-2.44 6.53-.74 1.02-1.7.94-2.17-.42-.86-2.07.92-10.1-3.56-6.68-.44.96-1.94 8.81-3.74 5.73-.82-5.7 2.39-10.94 4.2-16.1-.4-2.08-3.7-.52-4.41.73-1.38 2.98-1.9 6.6-3.06 9.67-.73 1.75.18 3.59-.13 5.38-.87 4.19-4.61 4.86-4.44-.11-.07-3.08.24-6.39 1.16-9.36C7.24 6.89 4.09 6.93.81 6.94c-1.99-.64.1-2.04 1.17-2.23C6.49 3.55 6.51 3.24 9.45.23c1.1-.35 2.27.35 3.41.31 1.13.02 2.03-.47 3.21-.53 4.71-.19 2.08 1.91 1.63 4.34zM88.84 22.63c1.98-.45 2.28 2.3 2.32 3.67-.04 1.49-1 2.68-1.29 4-.14 7-3.57 13.51-5.77 20.03-.83 2.03-1.61 7.17-4.45 6.89-2.08-.33-2.72-3.15-3.16-4.89-.58-7.37 4.41-18.96 8.66-25.15.95-1.87 1.29-4.18 3.69-4.54zM37.91 3.04c.29 1.4-2.26 3.26-3.32 4.03-.96.53-2.34.71-2.72 1.92-.49 1.28.04 2.68 1.61 2.34 1.7-.67 5.54-.53 3.48 2.07-1.68 2.29-9.33 1.3-6.7 5.56 1.5.91 3.89-.98 5.33-.54 3.66 2.61-7.16 5.29-8.99 5.32-2.95.33-1.59-7.64-1.27-9.48.3-1.37 1.33-2.32 2.24-3.61 1.6-2.34 2.36-5.09 5.14-6.48.79-.44 4.63-2.21 5.22-1.14zM90.96 6.31c1.87-.55 3.39.65 5.03 1.46.79.37 2.09.77 1.86 1.86-1.64 3.66 3.58 7.47-1.95 9.58-1.2 1.1-2.48.48-3.83.15-1.09-.12-2 .33-3.04.24-2.39-.23-2.24-3.61-1.14-5.11.61-.94 1.77-1.78 2.06-2.83.52-1.63-.81-4.49 1.01-5.35z"/></g></svg>