<svg xmlns="http://www.w3.org/2000/svg" viewBox="0 0 230 138"><g fill="#fff" stroke-width="0"><path d="M43.04 78.8c-1.04 6.15 2.9 37.96-3.33 37.67-1.89-.92-1-6.77-1.41-8.87-.08-8.45-.11-16.89-.08-25.34.16-10.81.41-21.61.27-32.42-1.34-7.33-6.83-1.79-6.38 2.94-.88 3.81 3.35 72.44-4.14 59.46-.41-21.12.24-42.24.12-63.36-.02-3.42.19-6.69-1.63-9.78-3.89-1.8-7.47 7.54-7.3 10.88.21 16.57.31 33.14.46 49.71-.23 3 .06 9.88-2.68 11.27-2.42-.86-1.69-4.45-1.95-6.51.06-16.63.19-33.25.2-49.88-.49-3.75 1.28-12.63-1.2-15.05-5.26-1.48-6.25 6.52-7.9 9.94-1.01 1.11-3.83 16.07-.08 10.83.79-1.04 2.39-3.28 2.6-.54.18 4.34-6.69 10.75-8.51 4.11-.29-3.73.02-7.43.85-11.05.96-7.22 10.86-26.8 18.19-14.74.72 3.64 3.48-3.87 7.7-3.95 6.64-2.07 3.45 11.38 6.8 8.84 3.31-3.02 9.08-.75 9.29 3.74v32.11h.1zM224.29 71.68c2.29 0 5.22 2.19 5.56 4.91.16 1.26.04 23.65 0 26.42-1.06 5.1 2.75 34.17-3.91 32.39-1.21-9.15-.42-18.45-.54-27.65.1-2.2-1.8-10.74-4.78-7.4-.52 1.66-2.55 2.76-2.13 4.59-.47 3.06-.37 23.69-.5 27.28-.08 1.8-.83 3.94-2.42 3.94-4.07 0-1.73-42.96-1.38-55.29 0-.55.17-1.36-.59-1.5-1.16-.29-2.33 5.98-4.29 5.66-2.1-2.45 4.34-13.04 7.91-9.94 1.35.83 3.28-3.27 7.07-3.41zm-5.83 26.67c1.12-1.22 2.27-2.46 3.41-3.72 1.22-1.59 3.87 1.31 3.6-1.71-.16-4.46.14-8.91.33-13.36.19-5.55-7.34-3.08-7.41.92-.53 2.54-.47 15.32.07 17.87zM99.84 100.41c0 8.12-.04 16.24.03 24.37.02 2.1-.8 3.87-1.64 5.66-2.46 2.8-2.38-2.25-2.39-3.78-.02-7.21-.02-14.42 0-21.62-.38-2.48-2.64-4.35-3.72-6.61-1.92-2.7-4.01 1.38-3.82 3.35.14 6.4-.37 12.79.02 19.19.15 1.87-2.09 6.03-3.73 3.63-.58-5.06.1-10.51-.3-15.7.03-10.74.16-21.49.18-32.21-.1-.71-.13-1.5-.97-1.66-1.66-.42-2.69 1.39-3.46 2.6-.41 1.14-2.04.51-1.89-.62-.04-2.33 3.94-6.72 6.25-6.89 2.16-.55 3.58 2.48 5.63.69 4.21-3.37 10.14.72 9.87 5.73-.08 7.96-.03 15.92-.03 23.88h-.03zM95.7 85.08h.05c0-2.53.07-5.06-.02-7.58-.62-5.45-7.04-3.58-7.47.84-.04 4.78-.05 9.57-.04 14.35-.3 1.75.58 2.27 1.9.87 5.49-4.36 5.75 7.64 5.59-8.48zM145.09 99.76c.78-4.99-2.08-26.96 2.31-27.9 2.71.87.51 14.89 1.15 18.28-.25 1.15 1.15 1.55 1.71.55.78-1.06 1.73-1.13 2.8-.44.86 1.1 1.66.33 1.44-.83.88-6.59-1.88-15.98 2.07-21.42.81-1.31 2.4-.72 2.15.83 0 18.28-.17 36.6-.21 54.9.06 1.71-1.09 8.33-3.4 5.22-1.31-7.38-.24-15.17-.56-22.68-.59-2.82 1.35-7.3-1.4-9.06-.43-.18-.9-.48-1.15-.85-5.52-5.27-2.98 21.99-3.3 24.7-.11 1.14-1.07 4.82-2.31 4.49-1.47-.06-1.19-1.85-1.28-2.88-.01-7.63 0-15.27 0-22.9h-.01zM118.55 89.85c.26-3.03-.14-11.83-5.11-9.06-4.69 3.1-1.14 38.31-2.13 44.29-.22 3-3.78 9.29-3.89 2.37-.03-10.61-.34-36 0-46.34.41-2.99-3.17-1.48-4.41-.41a1.07 1.07 0 0 1-1.34-1.63c1.84-3.06 5.45-6.26 9.04-2.91 3.46 3.07 5.92-5.01 10.47 2.73 3.52 10.49.31 36.63 1.49 48.59.01 1.65-1.02 2.58-2.04 3.46-4.54 5.36-.99-38.49-2.08-41.08zM42.85 5.32c1.89.29 5.59-.98 6.26 1.43.06 1.05-.87 1.62-1.88 1.87-1.92.47-2.12.79-1.34 2.64 2.27 5.44 9.46 22.36 10.74 25.42.4 1.39 2.01 1.71 2.27-.02 3.01-8.25 14.69-26.78 11.91-27.64-1.33-.45-3.67.55-3.76-1.66.82-4.03 6.31-1.56 9.18-2.33 2.05.43 6.84-1.04 7.65 1.22-.11 2.1-3.57 2.15-5.16 2.92-4.48-1.28-20.23 44.71-23.9 36.47-1.57-3.34-14.56-34.47-15.13-35.44-.86-1.77-2.82-1.34-4.45-1.5-.62-.06-1.18-.26-1.28-.99.89-3.28 6.19-2.28 8.9-2.48v.08zM177.99 79c-.07 12.59 1.1 28.75-2.57 41.37-.6 1.49-1.96 1.92-3.57 1.65-10.12-2.07-7.67-20.62-8.7-28.61-.12-3.91.35-7.73.75-11.55 1.52-11.51 11.66-22.19 14.09-2.87zm-3.64 23.73c.63-3.28-2.37-4.79-4.81-5.76-.88.03-2.95 2.41-2.88 3.39.89 4.03.38 16.16 5.82 16.2 1.64-.3 1.66-1.68 1.71-2.88.09-2.04-.09-9.38.17-10.95zm-.25-14.48c.29-2.09-1.15-19.71-4.91-13.66-1.76 4.87-4.02 15.56-2.25 20.19.78.16 1.57-.73 2.13-1.23 2.95-4.64 5.56 4.74 5.03-5.31zM129.36 104.78c.11 5.89-.96 15.09 5.59 17.82 1.06.44 1.39-.61 1.58-1.36 1.78-3.94-1.49-10.28 2.61-12.77 3.8-1.48 1.55 15.22-.82 16.83-.93 1.23-2.43 2.9-4.06 2.75-11.32-4.49-8.68-29.02-7.58-39.07-.23-5.32 8.04-21.37 13.06-11.71-.02 4.45 2.46 10.18-1.08 13.8-.94.74-1.65.57-1.58-.56.19-2.91-1.33-5.51-1.32-8.38 0-1 .24-2.64-1.43-2.56-5.66 1.37-5 20.13-4.96 25.21zM51.52 86.28c1.8-2.42 4.03-7.02 7.09-3.26 1.71 2.18 4.52 6.37 1.15 8.26-2.63.64-3.16-6.54-5.87-3.59-2.06 2.49-3.64 5.11-2.72 8.64.55 2.12.74 4.35.97 6.54.36 3.7 4.95 10.23 7.99 4.88 2.21-5.18 3.71 1.79 2.3 3.96-3.44 6.36-11.41 2.78-12.74-3.63-2.75-7.19-4.28-60.92 11.89-44.87 1.64 1.6 1 10.62-1.75 8.86-1.74-1.86-.66-6.4-3.93-6.84-6.18 1.97-4.57 15.5-4.82 20.87.15.06.29.11.44.17zM71.2 74.22c-.19 12.94-.43 25.87-.1 38.82.04 1.07.31 1.35 1.45 1.09 4.51-1.24 6.1.61 7.94 4.61 1.71 2.52.72 2.84-1.25 4.32-1.99 1.59-3.13-2.3-4.02-3.84-1.65-4.11-8.88 4.1-8.2-1.51.51-16.06-.09-32.17.01-48.27.2-2.19.64-6.04 3.09-6.47 2.04 2.36.65 8.08 1.08 11.27zM204.5 126.04c-.7-.1-2.47 2.38-2.53-1.55.38-.89-.21-45.51-.22-47.08-.66-6.32-4.67 3.35-7.04 1.91-.62-.52-.26-1.14.07-1.73 2.26-4.23 10.81-11.6 11.28-2.79-.8 2.31 1.18 50.14-1.56 51.23zM182.25 119.59c0-5.52.08-36.03.03-43.73-.68-2.24 3.28-8.23 4.06-3.65.04 4.03.06 41.33-.04 43.85.08 4.25 6.21-2.5 8.8 2.53.78 1.7 3.84 4.49 1.28 5.87-1.05.59-2.13 1.53-3.15-.03-1.29-3.05-4.49-5.67-7.64-3.15-1.56 2.78-3.7.94-3.34-1.69zM132.22 34.1c-.09 5.11-.53 13.36 1.43 15.58 2.29 2.59-3.96 1.72-5.17 1.63-.77-.06-.84-.64-.27-1.11 2.19-6.49.15-14.2.8-21.09.37-2.3-2.27-1.01-2.46-2.71-.47-1.95 5.51-4.03 6.04-1.58.37.94.99.89 1.81.42 10.67-6.34 19.05 6.5 10.81 14.77-2.54 2.54-8.94 3.85-10.5-.02.34-.79 1.34-.89 1.71-.4 3.28 2.6 8.27.17 8.77-3.49.48-3.81.72-8.45-3.78-9.72-6.76-2.19-8.51 1.52-9.19 7.74zM192.11 38.95c-2.77 5.09-11.37 4.39-15.43.92-5.41-5.1-1.11-14.52 5.51-16 5.99-1.64 11.8.49 12.12 7.8.18 4.09-.02 4.18-4.11 4.32-2.62.61-10.34-.75-11.52.54-.33.77.26 1.16.76 1.58 3.68 3.32 8.57 2.57 12.67.83zm-4.91-5.57c1.44-.31 4.41.66 4.39-1.57-.31-4.54-5.61-7.4-9.78-5.74-1.08.27-3.76 1.81-3.93 5.27-1.05 2.95 7.39 1.43 9.32 2.04zM211.2 36.59c-.9 7.27-10.82 7.3-13.66 4.31-2.32-1.51.02-5.87 1.92-3.2 1.04 1.76 4.39 3.25 6.38 2.85 2.07-.26 2.71-2.93.89-4.06-2.27-2.14-10.62-2.57-9.88-6.5.36-3.41 3.55-4.96 4.62-5.45 3.04-1.7 5.89.11 8.93-.21.65-.26.82.31.83.84.08 1.7.02 3.42-1.83 4.3-3.1-1.86-3.36-4.22-7.82-3.29-.93.11-1.25 1.03-1.37 1.81.08 5.76 10.01 2.98 10.98 8.59zM74 28.21c1.49-5.57 14.52-6.78 14.31 1.75.84 3.37-1.41 9.14 2.72 10.65.82.1.72 1.25-.07 1.29-4.54 1.66-4.36-2.31-6.65-.81-5.14 3.78-16.66-1.18-10.26-8.44 3.77-4.88 10.19-2.31 10.21-4.26.32-3.35-6.49-2.98-8.27-1.09-.51.47-1.33 1.53-1.99.91zm6.27 3.14c-6.98-.15-5.42 9.58 1.12 9.13 6.03.3 5.08-10.27-1.12-9.13zM101.45 26.31c-1.42-2.51 6.41-2.37 7.78-1.59 1.74.78 1.97 2.73 4.08 1.05 10.98-6.33 12.02 3.1 11.13 11.84-.61 2.94 1.57 3.37.82 4.48-.9 1.19-2.05.89-3.22.57-2.14-.33.26-10.41-.74-13.09-.41-3.61-6.3-4.35-7.96-1.58-2.32 3.19-1.11 7.41-1.57 11.12-.02.71-.04 1.38.53 1.94.5.49.32.97-.17 1.36-1.28.93-3.84-.07-3.26-1.81.44-6.67 2.54-15.44-7.43-14.34l.02.04z"/><path d="M101.43 26.27c-2.95 3.66-1.37 8.14-2.19 12.19-.22 1.09.41 2.08 1.48 2.64 3.17 2.32-3.74 1.21-4.82 1.2-.67-.06-1.51-.3-.98-1.15 1-2.34 2.5-14.66-.79-15.12-2.48-1.37 5.77-4.14 5.69-1.33.15 1.01 1.36.81 1.63 1.61.59-.02-.02-.04-.02-.04zM164.1 38.53c.19.96.43 1.91 1.52 2.28.32.11.59.29.58.67-1.05 1.86-4.21.92-5.97.77-2.05-.68 1.32-1.97.74-3.68-.54-2.28 1.55-12.5-1.57-11.99-2.94-1.38 2.65-2.45 3.71-2.8 2.22-.95 1.11 3.58 3.13 1.79.8-.8 1.86-1.04 2.77-1.6 1.16-.72 4.49 1.34 4.49 2.66-1.09 3.38-5.48-.88-7.67 1.31-3 1.83-1.62 7.32-1.73 10.59zM154.86 37.33c-.83 3.01 3.43 4.07.59 4.77-1.76.22-4.1.47-5.62-.43-.09-1.21 2.06-.7 1.76-3.42-.54-2.26 1.38-10.84-1.24-11-1.28.2-1.45-1.63-.42-2.1 1.65-.84 4.85-3.26 4.9.26.02 1.88.11 10.25.03 11.92zM144.92 51.42c3.24-.03 4.29.73 5.17 3.78.12.63.31 1.75-.48 1.99-2.42-1.92-2.14-5.74-6.6-4.45-2.14.29-3.55 4.13-.52 4.16.55.06 1.37-.15 1.4.68.03.76-.73.83-1.32.86-3.83.23-.62 5.94-2.03 7.54-.88.5-2.62.2-2.23-1.12.4-2.34.26-4.71.26-7.07-.01-3.57 2-6.95 6.35-6.38zM106.98 7.68c-.07-1.98.29-3.96-.19-5.94-.27-1.1.55-1.64 1.44-1.75 1.8.08.62 3.19.93 4.4.18 3.21 5.45-2.03 5.47 4.01-.52 1.4.95 5.9-.63 5.93-.66.05-1.01-.33-.93-.97.35-2.87 0-4.04-.11-6.16-.04-.79-1.63-1.05-2.31-1.11-3.12.19-.44 7.02-1.79 8.13-1.1.56-2.66-.06-1.98-1.41.32-1.71-.07-3.43.09-5.14zM131.11 66.85c-13.13-.39-5.4-14.42 3.97-8.66 3.43 1.83-.32 9.84-.5 4.43-.78-7.99-13.3-3.22-6.53 1.92 1.28.43 2.22 1.19 3.06 2.31zM100.44 14.35c-3.71.27-2.87-3.37-3.03-5.81.46-2.14-2.71-2.52-1.13-3.31 1.64-.38 1.32-2.8 2.94-2.88.61.08.68.64.68 1.12-.07 2.3 2.2.94 2.78 2.15-.31 1.19-2.59.61-2.66 2.19-.45 1.91-.16 6.68 2.74 4.37.25-.22.55-.5.84-.25.51 1.32-2.12 2.67-3.16 2.43zM124.79 13.21c.02.64-6.02 1.16-7.42-.16-2.57-1.73-.87-8.26 2.78-8.03 2.82.03 5.71-.2 6.76 3.36 1.01 3.85-4.34 2.25-6.52 2.51-.75 0-1.64-.02-1.74 1 .02 2.5 5.6.23 6.13 1.32zm-4.88-3.26c2.45-.04 7.83-.08 3.76-3.31-2.34-2.44-8.15 2.31-3.76 3.31zM203.68 58.43c.49.62 2.29 1.74 2.92 2.15 1.27 1.46-4.43 5.35-4.77 5.43-.38-.35-2.31-2.42-2.64-2.81-1.11-1.28 4.13-4.38 4.49-4.78zM152.89 20.99c-3.07.14-1.04-4.12 1.23-3.89 3.01.29 1.88 4.19-1.23 3.89z"/><path d="M134.58 62.62c.02 2.22-2.71 3.11-6.53 1.92 0 0 .13 1.68 3.06 2.31 3.35 1.38 7.73-6.33 3.47-4.23zM101.96 24.89c-.45.69-2.88.01-2.53 1.76l1.53.26c.33-1 2.73-.03 1-2.03z"/></g></svg>