<svg xmlns="http://www.w3.org/2000/svg" width="400" height="45" viewBox="0 0 400 45"><path d="M4.71 14.07a5.42 5.42 0 0 0 2.06 3.73 2.45 2.45 0 0 1 .88 1.82 2.25 2.25 0 0 1-2.26 2.25 2.77 2.77 0 0 1-1.61-.54A9.22 9.22 0 0 1 0 14.07c0-5.49 4.41-8.58 10.05-8.58h8.49c10.64 0 15.84 7.46 15.84 14.67s-5 14.22-15 14.22H9.61a2.16 2.16 0 0 1-2.25-2.26 2.22 2.22 0 0 1 2.25-2.3h2c1.23 0 1.23-1 1.23-2.55V13.58a2.25 2.25 0 0 1 2.35-2.3 2.17 2.17 0 0 1 2.36 2.3v13.64c0 1.47-.3 2.45-1 2.6h2.79c5.2 0 9.86-3.34 9.86-9.66s-5.02-10.11-11.3-10.11h-8c-2.99 0-5.19 1.33-5.19 4.02zM43.2 9.07A2.85 2.85 0 0 1 40.26 12a2.81 2.81 0 0 1-2.89-2.9 2.9 2.9 0 0 1 2.89-2.94 2.94 2.94 0 0 1 2.94 2.91zm-5.39 20.75V17.51a2.12 2.12 0 0 1 2.25-2.21 2.15 2.15 0 0 1 2.26 2.21v12.21c0 .73.15.88.49.88a1.57 1.57 0 0 0 .83-.39 1.76 1.76 0 0 1 2.8 1.57 2.14 2.14 0 0 1-.88 1.71 4.66 4.66 0 0 1-3.44 1.23c-2.6 0-4.31-1.37-4.31-4.9zM47.17 25.06a9.35 9.35 0 0 1 9.76-9.76c5.74 0 8.44 3.43 8.44 6.62 0 3.43-2.6 6-7.26 6a7 7 0 0 1-2.65-.54 2.06 2.06 0 0 1-1.32-2 2.15 2.15 0 0 1 2.16-2.2c.58 0 1.42.39 2.1.39a1.85 1.85 0 0 0 2.06-1.82c0-1.22-1-2.15-3.48-2.15-3 0-4.9 2.45-4.9 5.44a5.39 5.39 0 0 0 5.59 5.49 8.41 8.41 0 0 0 4.8-1.37 2.81 2.81 0 0 1 1.43-.44 1.85 1.85 0 0 1 1.71 1A2.46 2.46 0 0 1 64.53 33a12.35 12.35 0 0 1-7.25 1.87 9.78 9.78 0 0 1-10.11-9.81zM69.39 17.51a2.12 2.12 0 0 1 2.25-2.21 2.15 2.15 0 0 1 2.26 2.21v1.76c1.23-2.45 3.19-4 5-4a3.18 3.18 0 0 1 3.48 3.09 2.29 2.29 0 0 1-2 2.4c-1.22 0-1.32-1-2.45-1-2.6 0-4.07 4.81-4.07 7.31v5.44a2.12 2.12 0 0 1-2.26 2.21 2.15 2.15 0 0 1-2.25-2.21zM100.82 29.72c0 .73.15.88.49.88a1.62 1.62 0 0 0 .84-.39 1.76 1.76 0 0 1 2.79 1.57 2.11 2.11 0 0 1-.88 1.71 4.63 4.63 0 0 1-3.43 1.23c-2 0-3.53-.78-4.07-2.79a6.92 6.92 0 0 1-5.74 2.94c-4.37 0-7-3.63-7-8.44 0-6.23 3.73-11.13 9.17-11.13a4.33 4.33 0 0 1 3.29 1.28V2.21A2.12 2.12 0 0 1 98.57 0a2.15 2.15 0 0 1 2.25 2.21zm-12.16-3.39c0 2.55 1.23 4.12 3 4.12 2.9 0 4.66-3.38 4.66-6.47 0-2.75-1.37-4.27-3.14-4.27-2.95 0-4.52 3.09-4.52 6.62zM107.05 17.51a2.12 2.12 0 0 1 2.26-2.21 2.15 2.15 0 0 1 2.25 2.21v1.76c1.23-2.45 3.19-4 5-4a3.18 3.18 0 0 1 3.48 3.09 2.29 2.29 0 0 1-2 2.4c-1.22 0-1.32-1-2.45-1-2.6 0-4.07 4.81-4.07 7.31v5.44a2.12 2.12 0 0 1-2.25 2.21 2.15 2.15 0 0 1-2.26-2.21zM121.42 25.06a9.34 9.34 0 0 1 9.76-9.76c5.73 0 8.43 3.43 8.43 6.62 0 3.43-2.6 6-7.26 6a6.92 6.92 0 0 1-2.64-.54 2.05 2.05 0 0 1-1.33-2 2.15 2.15 0 0 1 2.16-2.2c.59 0 1.42.39 2.11.39a1.86 1.86 0 0 0 2.06-1.82c0-1.22-1-2.15-3.48-2.15-3 0-4.91 2.45-4.91 5.44a5.39 5.39 0 0 0 5.59 5.49 8.44 8.44 0 0 0 4.81-1.37 2.75 2.75 0 0 1 1.42-.44 1.88 1.88 0 0 1 1.72 1 2.48 2.48 0 0 1-1.08 3.28 12.41 12.41 0 0 1-7.26 1.87 9.78 9.78 0 0 1-10.1-9.81zM163.15 31.93a6.92 6.92 0 0 1-5.74 2.94c-4.36 0-7-3.63-7-8.44 0-6.23 3.72-11.13 9.17-11.13a4.23 4.23 0 0 1 3.42 1.37 2.13 2.13 0 0 1 2.16-1.37 2.07 2.07 0 0 1 2.26 2.16v12.26c0 .73.14.88.49.88a1.6 1.6 0 0 0 .83-.39 1.76 1.76 0 0 1 2.79 1.57 2.11 2.11 0 0 1-.88 1.71 4.63 4.63 0 0 1-3.43 1.23c-2.01 0-3.53-.78-4.07-2.79zm-7.9-5.6c0 2.55 1.23 4.12 3 4.12 2.8 0 4.57-3.23 4.66-6.22v-.64c-.14-2.5-1.47-3.88-3.14-3.88-2.95 0-4.52 3.09-4.52 6.62zM178.1 19a6.41 6.41 0 0 1 5.9-3.7c3 0 5.34 1.91 5.34 5.84v8.58c0 .73.15.88.49.88a1.59 1.59 0 0 0 .84-.39 1.76 1.76 0 0 1 2.79 1.57 2.11 2.11 0 0 1-.88 1.71 4.63 4.63 0 0 1-3.43 1.23c-2.6 0-4.32-1.37-4.32-4.9v-7.6c0-2-.88-2.51-1.91-2.51-2.11 0-4.66 2.06-4.81 6.43v6.37a2.26 2.26 0 0 1-4.51 0v-15a2.26 2.26 0 0 1 4.51 0zM211.25 29.72c0 .73.15.88.49.88a1.59 1.59 0 0 0 .84-.39 1.76 1.76 0 0 1 2.79 1.57 2.11 2.11 0 0 1-.88 1.71 4.63 4.63 0 0 1-3.43 1.23c-2 0-3.53-.78-4.07-2.79a6.92 6.92 0 0 1-5.74 2.94c-4.36 0-7-3.63-7-8.44 0-6.23 3.72-11.13 9.17-11.13a4.32 4.32 0 0 1 3.28 1.28V2.21a2.26 2.26 0 0 1 4.51 0zm-12.16-3.39c0 2.55 1.23 4.12 3 4.12 2.9 0 4.66-3.38 4.66-6.47 0-2.75-1.37-4.27-3.14-4.27-2.95 0-4.52 3.09-4.52 6.62zM248 20.65l2.41 6.52 7.28-19.57A2.16 2.16 0 0 1 259.9 6a2.11 2.11 0 0 1 2.26 1.72l5.19 24.23a2.19 2.19 0 0 1-2.3 2.79 2.28 2.28 0 0 1-2.26-1.74l-3.58-16.82L253 32.46c-.64 1.72-1.33 2.26-2.46 2.26-1.52 0-2-.49-2.74-2.26l-3.93-9.75c-.83-2-1.61-3.78-2.35-5.25l-2.17 10.44c-.93 4.47-2.65 6.82-6.52 6.82-1.42 0-4.9-.88-4.9-3.38a2.32 2.32 0 0 1 2.3-2.26 2.36 2.36 0 0 1 1.67.74 1.25 1.25 0 0 0 1 .44c.83 0 1.47-.93 1.86-2.75L238 11.92a6.35 6.35 0 0 0-5-2.31 4.57 4.57 0 0 0-4.91 4.66c0 1.47 1.08 2.6 2 3.58a2.21 2.21 0 0 1 .74 1.72 2.23 2.23 0 0 1-3.63 1.76 8.81 8.81 0 0 1-3.73-7.06c0-5.49 4.27-9.12 9.52-9.12 5.82 0 10.33 2.75 15.01 15.5zM282.21 31.93a6.9 6.9 0 0 1-5.74 2.94c-4.36 0-7-3.63-7-8.44 0-6.23 3.73-11.13 9.17-11.13a4.23 4.23 0 0 1 3.38 1.37 2.13 2.13 0 0 1 2.16-1.37 2.06 2.06 0 0 1 2.26 2.16v12.26c0 .73.15.88.49.88a1.6 1.6 0 0 0 .83-.39 1.76 1.76 0 0 1 2.8 1.57 2.12 2.12 0 0 1-.89 1.71 4.61 4.61 0 0 1-3.43 1.23c-1.97 0-3.49-.78-4.03-2.79zm-7.89-5.6c0 2.55 1.22 4.12 3 4.12 2.79 0 4.56-3.23 4.66-6.22v-.64c-.15-2.5-1.47-3.88-3.14-3.88-2.95 0-4.52 3.09-4.52 6.62zM292.66 17.51a2.12 2.12 0 0 1 2.25-2.21 2.15 2.15 0 0 1 2.26 2.21v1.76c1.22-2.45 3.19-4 5.05-4a3.18 3.18 0 0 1 3.48 3.09 2.29 2.29 0 0 1-2 2.4c-1.23 0-1.32-1-2.45-1-2.6 0-4.07 4.81-4.07 7.31v5.44a2.26 2.26 0 0 1-4.51 0zM314.09 34.87c-4.37 0-7-3.63-7-8.44 0-6.23 3.73-11.13 9.17-11.13a4.31 4.31 0 0 1 3.39 1.37 2.11 2.11 0 0 1 2.15-1.47 2.15 2.15 0 0 1 2.26 2.21V35.6c0 5.94-3.87 9.08-9 9.08a10.38 10.38 0 0 1-6.92-2.21 2.56 2.56 0 0 1-1-1.91 2.11 2.11 0 0 1 2.06-2.11 2.32 2.32 0 0 1 1.32.44 6.56 6.56 0 0 0 4.61 1.52c2.41 0 4.42-1.86 4.42-4.95v-3.19a6.9 6.9 0 0 1-5.46 2.6zm-2.16-8.54c0 2.55 1.22 4.12 3 4.12 2.89 0 4.66-3.38 4.66-6.47v-.39c-.15-2.5-1.47-3.88-3.14-3.88-2.95 0-4.52 3.09-4.52 6.62zM340.52 31.93a6.92 6.92 0 0 1-5.74 2.94c-4.36 0-7-3.63-7-8.44 0-6.23 3.72-11.13 9.17-11.13a4.23 4.23 0 0 1 3.38 1.37 2.12 2.12 0 0 1 2.16-1.37 2.06 2.06 0 0 1 2.25 2.16v12.26c0 .73.15.88.49.88a1.62 1.62 0 0 0 .84-.39 1.76 1.76 0 0 1 2.79 1.57 2.11 2.11 0 0 1-.88 1.71 4.63 4.63 0 0 1-3.43 1.23c-1.97 0-3.49-.78-4.03-2.79zm-7.9-5.6c0 2.55 1.23 4.12 3 4.12 2.8 0 4.56-3.23 4.66-6.22v-.64c-.14-2.5-1.47-3.88-3.14-3.88-2.95 0-4.52 3.09-4.52 6.62zM351 17.51a2.26 2.26 0 0 1 4.51 0v1.76c1.23-2.45 3.19-4 5-4a3.18 3.18 0 0 1 3.49 3.12 2.29 2.29 0 0 1-2 2.4c-1.23 0-1.33-1-2.46-1-2.6 0-4.07 4.81-4.07 7.31v5.44a2.12 2.12 0 0 1-2.25 2.21 2.15 2.15 0 0 1-2.22-2.19zM365.33 25.06a9.35 9.35 0 0 1 9.76-9.76c5.74 0 8.43 3.43 8.43 6.62 0 3.43-2.6 6-7.25 6a6.94 6.94 0 0 1-2.65-.54 2.05 2.05 0 0 1-1.33-2 2.15 2.15 0 0 1 2.16-2.2c.59 0 1.42.39 2.11.39a1.86 1.86 0 0 0 2.06-1.82c0-1.22-1-2.15-3.48-2.15-3 0-4.91 2.45-4.91 5.44a5.39 5.39 0 0 0 5.59 5.49 8.44 8.44 0 0 0 4.81-1.37 2.75 2.75 0 0 1 1.42-.44 1.87 1.87 0 0 1 1.72 1 2.46 2.46 0 0 1-1.08 3.28 12.41 12.41 0 0 1-7.26 1.87 9.78 9.78 0 0 1-10.1-9.81zM387.3 20.06a2.09 2.09 0 0 1-2.16-2.16 2.14 2.14 0 0 1 2.16-2.26h2.35v-2.79a2.26 2.26 0 0 1 4.51 0v2.79h3.54a2.06 2.06 0 0 1 2.1 2.26 2 2 0 0 1-2.1 2.16h-3.54v8.53c0 1.37.25 1.91.89 1.91a1.51 1.51 0 0 0 1.08-.44 2.32 2.32 0 0 1 1.76-.73 2 2 0 0 1 2.11 2.2 2.61 2.61 0 0 1-.54 1.47 6.05 6.05 0 0 1-4.56 1.87c-3.92 0-5.25-2.5-5.25-5.74v-9.07z" fill="#fff"/></svg>