<?xml version="1.0" encoding="UTF-8"?><svg id="images" xmlns="http://www.w3.org/2000/svg" width="170" height="142" viewBox="0 0 170 142"><path d="m41.71,0h7.16l-3.14,14.77h4.55l3.14-14.77h7.24l-8.04,37.89h-7.24l3.55-16.86h-4.55l-3.55,16.86h-7.16L41.71,0Z" fill="#fff"/><path d="m79.14,17.95l-2.29,10.9c-1.37,6.53-4.11,9.52-10.54,9.52s-9.11-3.61-7.74-10.12l2.46-11.58c1.35-6.44,4.58-9.13,10.36-9.13,6.08,0,9.18,3.58,7.75,10.42Zm-10.85-1.58l-2.79,13.18c-.41,1.86-.04,3.12,1.55,3.12s2.09-1.33,2.48-3.19l2.79-13.16c.36-1.69.3-3.13-1.52-3.13-1.65,0-2.12,1.39-2.51,3.19Z" fill="#fff"/><path d="m82.78,18.14c1.06-5.12,1.74-8.19,2.06-10.15h6.82c-.08.82-.3,2.45-.7,4.23,1.57-3.53,4.24-4.67,6.96-4.69l-1.85,8.46c-4.4-.16-6.12,1.68-7.17,6.65l-3.18,15.25h-7.14l4.19-19.75Z" fill="#fff"/><path d="m102.64,28.36l-.32,1.47c-.38,1.77-.24,3.18,1.24,3.18,1.12,0,1.65-.75,1.98-2.11.56-2.38-.04-3.99-2.42-6.15-4.06-3.65-5.03-6.02-4.2-10.38.83-4.3,3.58-6.84,8.51-6.84,6.54,0,8.4,4.03,7.46,8.64l-.23,1.12h-6.53l.27-1.42c.4-2.07.21-3.06-.99-3.06-.96,0-1.45.73-1.67,1.96-.29,1.48-.15,2.44,2,4.44,4.67,4.26,5.78,6.83,4.85,11.56-.89,4.54-3.36,7.6-9.33,7.6-7.43,0-8.62-4.5-7.48-9.41l.13-.59h6.73Z" fill="#fff"/><path d="m123.61,24.81l-.97,4.7c-.41,1.9-.16,3.23,1.33,3.23,1.61,0,2.05-1.49,2.37-3.03l.27-1.29h6.97l-.15.87c-1.01,5.04-2.96,9.08-10.1,9.08-7.9,0-8.61-5.32-7.39-11.03l2.12-9.97c1.12-5.3,3.21-9.8,10.33-9.8,7.75,0,8.74,4.72,7.5,10.58l-1.42,6.66h-10.86Zm5-5.18l.7-3.33c.4-1.96.37-3.37-1.32-3.37-1.47,0-2.05.94-2.54,3.36l-.71,3.34h3.88Z" fill="#fff"/><path d="m55.92,59.05h7.14l-6.36,29.91h-7.14l6.36-29.91Zm2.06-9.65h7.14l-1.4,6.6h-7.14l1.4-6.6Z" fill="#fff"/><path d="m65.4,68.02c1.11-5.34,1.63-7.86,1.81-8.96h6.99c-.09.73-.19,1.52-.34,2.2,1.12-1.32,2.89-2.65,5.65-2.65,4.17,0,5.59,3.09,4.66,7.4l-4.87,22.96h-7.16l4.51-21.3c.45-2.03,0-3.17-1.33-3.17-1.54,0-2.25,1.14-2.87,4.1l-4.34,20.37h-7.14l4.44-20.94Z" fill="#fff"/><path d="m109.53,81.11c-.47,2.22-1.42,6.82-1.55,7.85h-6.95c.06-.57.17-1.42.32-2.29-1.5,1.92-3.06,2.76-5.38,2.76-4.51,0-5.56-4.13-4.43-9.43,1.49-6.84,4.78-8.82,11.99-9.75.42-.06.86-.11,1.22-.15l.7-3.23c.4-1.89.26-2.96-1.13-2.96s-1.75,1.08-2.18,2.91l-.27,1.14h-6.89l.15-.71c1.01-4.71,2.72-8.67,9.7-8.67,6.23,0,8.88,2.76,7.64,8.64l-2.93,13.87Zm-5.82-5.82c-.24.04-.53.09-.79.15-2.38.52-3.53,1.35-4.21,4.36-.4,1.88-.37,3.56,1.24,3.56,1.71,0,2.36-1.53,2.96-4.27l.8-3.8Z" fill="#fff"/><path d="m8.04,102.14h8.78c6.09,0,8.64,3.21,7.4,9.63l-.36,1.84c-.84,4.18-2.77,5.9-5.12,6.57,2.44,1.17,3.7,3.64,2.87,7.71l-.55,2.73c-1.33,6.7-3.79,9.42-11.19,9.42H0l8.04-37.89Zm.13,32.31h1.77c2.56,0,3.2-1.22,3.8-4.19l.73-3.69c.51-2.61.26-3.86-2.62-3.86h-1.17l-2.51,11.74Zm5.25-17.25c2.13,0,2.86-.79,3.46-3.78l.44-2.17c.43-2.28.2-3.46-2.45-3.46h-1.04l-1.98,9.41h1.56Z" fill="#fff"/><path d="m45.24,120.08l-2.29,10.9c-1.37,6.53-4.11,9.52-10.54,9.52s-9.11-3.61-7.74-10.12l2.46-11.58c1.35-6.44,4.58-9.13,10.36-9.13,6.08,0,9.18,3.58,7.75,10.42Zm-10.85-1.58l-2.79,13.18c-.41,1.86-.04,3.12,1.55,3.12s2.09-1.33,2.48-3.19l2.79-13.16c.36-1.69.3-3.13-1.52-3.13-1.65,0-2.12,1.39-2.51,3.19Z" fill="#fff"/><path d="m66.76,120.08l-2.29,10.9c-1.37,6.53-4.11,9.52-10.54,9.52s-9.11-3.61-7.74-10.12l2.46-11.58c1.35-6.44,4.58-9.13,10.36-9.13,6.08,0,9.18,3.58,7.75,10.42Zm-10.85-1.58l-2.79,13.18c-.41,1.86-.04,3.12,1.55,3.12s2.09-1.33,2.48-3.19l2.79-13.16c.36-1.69.3-3.13-1.52-3.13-1.65,0-2.12,1.39-2.51,3.19Z" fill="#fff"/><path d="m77.04,122.22h.17c1.89-3.45,4.92-8.68,6.82-12.1h7.5c-2.47,3.84-5.21,7.66-7.51,11.31-.02,2.15,1.49,16.34,1.49,18.59h-7.1c.02-1.22-.61-11.31-.61-12.29-.81,1.33-2.12,3.15-2.72,3.96l-1.83,8.33h-7.03l8.38-39.56h7.03l-4.6,21.75Z" fill="#fff"/><path d="m105.98,129.58l-.27,1.35c-1.06,5.33-2.58,9.57-9.98,9.57s-8.28-5.03-7.04-10.8l2.23-10.59c.97-4.74,2.9-9.45,9.78-9.45,7.85,0,8.38,5.1,7.48,9.6l-.3,1.52h-6.83l.48-2.53c.34-1.78.39-2.97-1.03-2.97s-1.78,1.33-2.2,3.12l-2.9,13.58c-.36,1.56-.24,2.84,1.14,2.84s1.78-1.38,2.22-3.34l.42-1.9h6.81Z" fill="#fff"/><path d="m126.25,132.18c-.47,2.22-1.42,6.82-1.55,7.85h-6.95c.06-.57.17-1.42.32-2.29-1.5,1.92-3.06,2.76-5.38,2.76-4.51,0-5.56-4.13-4.43-9.43,1.49-6.84,4.78-8.82,11.99-9.75.42-.06.86-.11,1.22-.15l.7-3.23c.4-1.89.26-2.96-1.13-2.96s-1.75,1.08-2.18,2.91l-.27,1.14h-6.89l.15-.71c1.01-4.71,2.72-8.67,9.7-8.67,6.23,0,8.88,2.76,7.64,8.64l-2.93,13.87Zm-5.82-5.82c-.24.04-.53.09-.79.15-2.38.52-3.53,1.35-4.21,4.36-.4,1.88-.37,3.56,1.24,3.56,1.71,0,2.36-1.53,2.96-4.27l.8-3.8Z" fill="#fff"/><path d="m136.31,130.5l-.32,1.47c-.38,1.77-.24,3.18,1.24,3.18,1.12,0,1.65-.75,1.98-2.11.56-2.38-.04-3.99-2.42-6.15-4.06-3.65-5.03-6.02-4.2-10.38.83-4.3,3.58-6.84,8.51-6.84,6.54,0,8.4,4.03,7.46,8.64l-.23,1.12h-6.53l.27-1.42c.4-2.07.21-3.06-.99-3.06-.96,0-1.45.73-1.67,1.96-.29,1.48-.15,2.44,2,4.44,4.67,4.26,5.78,6.83,4.85,11.56-.89,4.54-3.36,7.6-9.33,7.6-7.43,0-8.62-4.5-7.48-9.41l.13-.59h6.73Z" fill="#fff"/><path d="m157.28,126.95l-.97,4.7c-.41,1.9-.16,3.23,1.33,3.23,1.61,0,2.05-1.49,2.37-3.03l.27-1.29h6.97l-.15.87c-1.01,5.04-2.96,9.08-10.1,9.08-7.9,0-8.61-5.32-7.39-11.03l2.12-9.97c1.12-5.3,3.21-9.8,10.33-9.8,7.75,0,8.74,4.72,7.5,10.58l-1.42,6.66h-10.86Zm5-5.18l.7-3.33c.4-1.96.37-3.37-1.32-3.37-1.47,0-2.05.94-2.54,3.36l-.71,3.34h3.88Z" fill="#fff"/></svg>