<svg xmlns="http://www.w3.org/2000/svg" width="220" height="148" viewBox="0 0 220 148"><polygon points="214.57 111.7 207.11 120.02 201.3 114.82 208.76 106.49 203.34 101.63 182.46 124.92 188.13 129.51 197.21 119.38 203.02 124.58 193.94 134.71 199.37 139.58 220 116.56 214.57 111.7" fill="#fff"/><path d="M30.56,90.28l-1.22.87a10.57,10.57,0,0,0-2.49,14.69l12.24,17.21,5.81-4.4-6-8.49,6.51-4.63,6.15,8.66,6.22-3.86L45.25,92.77A10.58,10.58,0,0,0,30.56,90.28Zm4.75,14.88-2.78-3.92A4,4,0,0,1,39,96.61l2.78,3.93Z" fill="#fff"/><path d="M68.65,104.59,59.82,84.81a4,4,0,1,1,7.29-3.25l8.83,19.92,7-2.42L74,79A10.57,10.57,0,0,0,60,73.68l-1.36.61A10.57,10.57,0,0,0,53.35,88.2l8.77,19.7Z" fill="#fff"/><path d="M130.38,65.48a16.2,16.2,0,1,0,16.2,16.2A16.19,16.19,0,0,0,130.38,65.48Zm0,25.39a9.19,9.19,0,1,1,9.19-9.19A9.2,9.2,0,0,1,130.38,90.87Z" fill="#fff"/><path d="M90.13,65.67,83,66.91,88.2,97.37l7.18-1.24c8.82-1.52,14.79-9.57,13.34-18S98.94,64.15,90.13,65.67Zm4.05,23.47L91.34,72.66c5-.86,9.65,1.91,10.47,6.68S99.17,88.28,94.18,89.14Z" fill="#fff"/><path d="M154.59,98.25,165.3,77.79l-6.78-3.54L147.82,94.7a7.85,7.85,0,0,0,3.31,10.56l6.17,3.23,2.95-5.64-5-2.64A1.48,1.48,0,0,1,154.59,98.25Z" fill="#fff"/><path d="M18.65,111.19l-.68-.72c-3.1-3.34-8.78-4-13.88.74s-6.18,10.54,1.13,18.4c7,7.52,12.05,12.92,12.05,12.92l5.16-5.12-8.34-9,3.42-3.19a3.16,3.16,0,0,1,4.46.17l6.26,6.72,5.45-4.77-7.8-8.4c-1.33-1.43-4-2-5.42-.65l-.31.28S22.33,115.15,18.65,111.19Zm-4.28,7.44c-.08,2.13-4.16,5.51-4.16,5.51S6.9,120.65,7,118.52a4,4,0,0,1,3.92-3.87A3.74,3.74,0,0,1,14.37,118.63Z" fill="#fff"/><path d="M190,91.27c-5.8-3.86-11.69-3.57-17.65,5.37l-5.05,7.59-4.69,7,6.22,3.81,6.63-9.94,5.5,3.66c3.25,2.17,9.22,1.44,11.72-2.3l1.25-1.89C196.41,100.81,195.74,95.13,190,91.27Zm-6.45,4.5a4,4,0,0,1,4.67,2.91,3.75,3.75,0,0,1-3.06,4.31c-2.09.42-6.33-2.77-6.33-2.77S181.41,96.19,183.5,95.77Z" fill="#fff"/><polygon points="71.06 65.93 63.21 34.87 70.44 33.04 78.26 63.96 71.06 65.93" fill="#fff"/><path d="M42.87,42.14l-1.41.59a10.82,10.82,0,0,0-5.75,14.13l8.44,20,6.71-3.26-4.11-9.75,7.53-3.18,4.1,9.74,7-2.7L57,47.89A10.81,10.81,0,0,0,42.87,42.14Zm1.44,15.92L42.4,53.52a4.09,4.09,0,1,1,7.53-3.17l1.91,4.54Z" fill="#fff"/><path d="M90.43,61.47,87.79,40a4.09,4.09,0,0,1,8.11-1l2.64,21.51L106,60l-2.62-21.51a10.81,10.81,0,0,0-12-9.39l-1.52.19a10.82,10.82,0,0,0-9.39,12l2.64,21.52Z" fill="#fff"/><path d="M155.11,34.59a16.58,16.58,0,1,0,16.58,16.57A16.57,16.57,0,0,0,155.11,34.59Zm0,26a9.41,9.41,0,1,1,9.41-9.41A9.42,9.42,0,0,1,155.11,60.57Z" fill="#fff"/><path d="M204.1,57.12,193,77.36a2.84,2.84,0,0,1-5-2.72l10.87-19.9.19-.34-6.38-3.49-.19.35-10.86,19.9a2.84,2.84,0,0,1-5-2.73l11.06-20.24-6.55-3.58-11.47,21A8.42,8.42,0,0,0,173.07,77h0c3,1.63,6.46,1.34,9.6-.06.52,3.4,2.16,6.48,5.15,8.11h0a8.39,8.39,0,0,0,11.36-3.34l11.46-21Z" fill="#fff"/><path d="M27.59,60.18l-.53-.87c-2.44-4-8-5.8-14.08-2.07s-8.34,9.32-2.6,18.69c5.49,9,9.51,15.32,9.51,15.32L26,87.13,19.51,76.56l4.09-2.51A3.25,3.25,0,0,1,28,75.12L32.9,83l6.45-3.67-6.09-9.92c-1-1.69-3.61-2.78-5.3-1.75l-.37.23S30.48,64.9,27.59,60.18Zm-5.8,6.6c-.51,2.11-5.29,4.68-5.29,4.68s-2.62-4.18-2.11-6.3a4.11,4.11,0,0,1,4.71-3.09A3.84,3.84,0,0,1,21.79,66.78Z" fill="#fff"/><path d="M131.55,45.57s0,0-.05,0c1.19-.51,3.49-2,3.76-6.08l.07-1c.31-4.65-3.18-9.36-10.29-9.83-6.44-.43-11.21,2.2-12.6,10.83l0-.15,0,.83c-.1.71-.18,1.45-.23,2.24l-1.18,17.67H111l7.45.49v0l.44,0,5.81.39c4.65.31,9.41-3.19,9.72-7.85l.07-1C134.77,48,132.65,46.22,131.55,45.57Zm-9.94-9.66a4.11,4.11,0,0,1,5.63.2,3.84,3.84,0,0,1-.53,5.4c-1.63,1.43-7,.76-7,.76S120,37.34,121.61,35.91ZM123.4,54.6l-4.53-.3.44-6.58,4.52.31a3.29,3.29,0,0,1-.43,6.57Z" fill="#fff"/><polygon points="87.48 1.33 79.14 2.36 79.45 4.88 82.1 4.56 83.36 14.79 86.37 14.42 85.11 4.19 87.79 3.86 87.48 1.33" fill="#fff"/><polygon points="110.86 0 110.86 4.65 107.62 4.65 107.62 0 104.59 0 104.59 12.85 107.62 12.85 107.62 7.2 110.86 7.2 110.86 12.85 113.89 12.85 113.89 0 110.86 0" fill="#fff"/><path d="M138.18,4.15l.35-2.89a6.85,6.85,0,0,0-7.65,5.86,6.87,6.87,0,0,0,6,7.54l.35-2.9a3.65,3.65,0,0,1-3.18-3l3.5.43.31-2.53-3.44-.42A3.65,3.65,0,0,1,138.18,4.15Z" fill="#fff"/><polygon points="91.31 113.94 91.31 128.53 85.4 128.53 85.4 113.94 79.87 115.91 79.87 143.48 85.4 143.48 85.4 133.17 91.31 133.17 91.31 143.48 96.83 143.48 96.83 111.98 91.31 113.94" fill="#fff"/><path d="M112,108.49c-6.78,0-12.28,8-12.28,17.81s5.5,17.82,12.28,17.82,12.27-8,12.27-17.82S118.76,108.49,112,108.49Zm0,29.81c-3.84,0-7-6.42-7-12s3.13-12.06,7-12.06,7,6.49,7,12.06S115.82,138.3,112,138.3Z" fill="#fff"/><path d="M146.13,115.9v21.23a2.11,2.11,0,0,1-4.21,0V115.9l-5.38-2v23.19a2.11,2.11,0,0,1-4.21,0V113.94l-5.52-2v25.78A6.22,6.22,0,0,0,133,144h0a7.93,7.93,0,0,0,6.22-3.44,7.93,7.93,0,0,0,6.22,3.44h0a6.22,6.22,0,0,0,6.2-6.2V117.87Z" fill="#fff"/><path d="M69.25,143.72H66.69v-5.31h2.56c1.06,0,1.6-1.17.22-5.81s-1.68-10.89,0-13.3c2.64-3.78,7.7-3.81,7.7-3.81v5.31s-2.29.26-3,1.67-.85,4.57.35,8.62c1.45,4.94,1.87,8.23.27,10.37C73.72,143,71.52,143.72,69.25,143.72Z" fill="#fff"/></svg>