<svg xmlns="http://www.w3.org/2000/svg" width="240" height="89" viewBox="0 0 240 89"><path d="M12.92,6.3S4.84,35.5,4.07,37.52.34,39.23,0,41.87s2,2,3.26,2.33,34.48,3.26,34.48,3.26S43.52,39.74,42,38A2.47,2.47,0,0,0,38.81,38a42.63,42.63,0,0,0-4.61,4.38L12.45,38.61S19,13.14,19.6,10s7.45-6.06,9-7.3S28.14-1,24.88.71,16.18,2.11,14.16,2,9.35,3.35,12.92,6.3Z" fill="#fff"/><path d="M115.49,6.29s-8.08,29.19-8.86,31.21-3.72,1.71-4,4.35,1.86,2.31,3.26,2.33,6.91.22,11.28.22c2.64,0,2.72-1.54.86-3.06-1.09-.88-3.2-1.88-3-2.75.57-2.21,6.52-25.47,7.15-28.58s7.45-6,9-7.3-.46-3.72-3.72-2-8.7,1.4-10.72,1.25S111.92,3.33,115.49,6.29Z" fill="#fff"/><path d="M40.08,8C34.29,5.07,26.29,9.2,22.2,17.24s-2.7,16.93,3.09,19.87,13.79-1.19,17.88-9.22S45.86,11,40.08,8ZM36.23,23.68c-2.14,5.4-5.36,9.19-7.2,8.46s-1.62-5.7.51-11.1,5.36-9.19,7.2-8.46S38.36,18.28,36.23,23.68Z" fill="#fff"/><path d="M51.44,15.25s-3.53-2.25-1-4.82,8.88-4.71,9,0-4,16-4.39,17.89c-.75,4.07,1.37,5.68,5.57-.22,4.5-6.32,6.27-10.69,5.14-12-.75-.86-2.89-.86-2.89-4.82s3.85-5,5.78-3.64,3,5.78.91,12C68,24.39,63.75,38.06,53.8,38.06S47.59,25.32,51.44,15.25Z" fill="#fff"/><path d="M88.61,7.07C85,7.17,76.28,9.28,72.48,20.56s-1,17.5,6.43,17.5,11.39-3.9,13.92-6.32,0-6.51-3.48-3.17c-4.11,3.9-8.5,4.56-9.7,2.69-1.58-2.48-.1-6.55-.1-6.55s13.59.91,16.86-7.21S92.2,7,88.61,7.07ZM82.76,19.43c-1.58-.92,2.43-8.94,5.59-7.67S84.34,20.36,82.76,19.43Z" fill="#fff"/><path d="M143.39,8.7c-.58,0-2.87.1-5.36.19,0,0,.86-2.45,1.06-3.06.82-2.57-2.42-8.56-4.09-4.4-.42,1.06-2,4.5-3.17,7.69a22,22,0,0,0-3.82.51c-2.06.69-1.85,2.4,0,2.54.46,0,1.41.07,2.64.1-2.84,7.54-6.32,16.83-7.29,19.48-1.54,4.26,0,7.35,4.36,6.19s8-4.06,10.56-6.1,1.4-5.4-4.51-2.23c-3.56,1.91.59-9.13,3.63-17.26,2.44,0,4.18,0,5.31-.1C145.52,12.06,144.91,8.81,143.39,8.7Z" fill="#fff"/><path d="M60.54,66.07H73.49V60c0-1.86-.51-2.79-1.52-2.79l-.26,0-.44.07h0a3.78,3.78,0,0,1-.73.14,5.27,5.27,0,0,1-.78.05c-1.48,0-2.22-.71-2.22-2.12s.9-2.27,2.69-2.27a16.6,16.6,0,0,1,2.46.28,14.07,14.07,0,0,0,1.58.19c.49,0,1,0,1.4,0,.66,0,1.37,0,2.14,0a18,18,0,0,0,2.25-.23c.41-.07.78-.11,1.11-.15s.57,0,.73,0q2.79,0,2.79,2.22t-2.22,2.07c-.16,0-.34,0-.55,0a5.6,5.6,0,0,1-.59-.07c-.19,0-.42-.05-.7-.07s-.43,0-.43-.07c-.94,0-1.42,1-1.42,2.79V78.12c0,1.82.49,2.74,1.47,2.74l.4,0,.64,0,1.18-.14c1.48,0,2.22.69,2.22,2.08S83.8,85,81.94,85A10.35,10.35,0,0,1,80,84.73a14.8,14.8,0,0,0-3.26-.33,24.28,24.28,0,0,0-4.1.28c-.64.13-1.15.22-1.56.26s-.66.07-.76.07c-1.83,0-2.74-.75-2.74-2.26s.74-2.13,2.22-2.13c-.06,0,.06,0,.38,0l.8.09a3.66,3.66,0,0,0,.57,0H72c.85,0,1.34-.65,1.47-1.94,0-.15,0-1.48,0-4V70.42H60.54V75c0,2.49,0,3.81.05,4,.19,1.29.69,1.94,1.51,1.94l.36,0,.63,0,1.23-.14c1.45,0,2.17.69,2.17,2.08S65.57,85,63.71,85a14.3,14.3,0,0,1-2.08-.28c-.73-.13-1.4-.22-2-.28a15.09,15.09,0,0,0-1.66-.1,17.72,17.72,0,0,0-1.91.1c-.64.06-1.33.15-2.05.28l-1.09.19-.28.07a2.14,2.14,0,0,1-.43,0c-1.89,0-2.83-.75-2.83-2.26A2,2,0,0,1,50,81.28a2.13,2.13,0,0,1,1.56-.66l.59,0a5.59,5.59,0,0,1,.59.08,4.93,4.93,0,0,0,1,.14c1,0,1.56-.92,1.56-2.74V59.93q0-2.79-1.56-2.79a1.33,1.33,0,0,0-.28,0l-.38.07a6.34,6.34,0,0,1-.8.14c-.29,0-.52,0-.71,0A2.13,2.13,0,0,1,50,56.77a2,2,0,0,1-.66-1.47c0-1.48.94-2.22,2.83-2.22.16,0,.38,0,.66.05s.6.08.95.14l.12,0s.05,0,.11,0a20.78,20.78,0,0,0,4.07.33,21.5,21.5,0,0,0,2.74-.28,21.13,21.13,0,0,1,2.88-.29c1.86,0,2.78.76,2.78,2.27a2,2,0,0,1-.63,1.53,2.17,2.17,0,0,1-1.54.59,7,7,0,0,1-.78,0,6.34,6.34,0,0,1-.78-.14,1.09,1.09,0,0,1-.26,0l-.21,0a.29.29,0,0,1-.19-.05A1.16,1.16,0,0,0,61,57.9,5.54,5.54,0,0,0,60.59,60Z" fill="#fff"/><path d="M109.22,74.81a1.49,1.49,0,0,0-.36-.59,1.29,1.29,0,0,0-.68-.12H100.1a1,1,0,0,0-.78.26,6.94,6.94,0,0,0-.64,1.4L97.36,79.3a2,2,0,0,0-.14.66c0,.57.33.85,1,.85l.52,0,.71-.07c.25,0,.49-.06.71-.08l.61,0c1.77,0,2.65.74,2.65,2.22s-1,2.13-2.84,2.13l-.42,0a3.54,3.54,0,0,1-.47-.07h-.19l-2.27-.33c-.19,0-.47-.05-.85-.07s-.76,0-1.13,0-.86,0-1.26,0-.68,0-.87.07l-1.89.28c-.41.07-.78.11-1.11.15s-.62,0-.87,0c-1.7,0-2.55-.71-2.55-2.12s.83-2.22,2.5-2.22a1.5,1.5,0,0,0,.35,0,.73.73,0,0,1,.36.08h.42a1.33,1.33,0,0,0,1.18-.67,8.92,8.92,0,0,0,.85-2l8.46-22.81a3.44,3.44,0,0,1,3.59-2.32,3.36,3.36,0,0,1,3.49,2.32L116,77.69a9.84,9.84,0,0,0,1.16,2.48,1.55,1.55,0,0,0,1.3.64,1.7,1.7,0,0,0,.47,0l.54,0a2.82,2.82,0,0,1,.4,0,1,1,0,0,0,.33,0c1.73,0,2.6.69,2.6,2.08s-.83,2.17-2.5,2.17h-.55a2.92,2.92,0,0,1-.54,0l-.19,0-.14,0c-.94-.12-1.76-.21-2.46-.26s-1.25-.07-1.7-.07-1.25,0-2.15.1-2,.16-3.23.28l-.21,0-.22,0a3.61,3.61,0,0,1-.59,0h-.49c-1.73,0-2.6-.73-2.6-2.18s.93-2.17,2.79-2.17l.56,0c.22,0,.46,0,.71.08l.66.07.48,0c.47,0,.7-.2.7-.61a.63.63,0,0,0,0-.19,3.61,3.61,0,0,0-.15-.38l-.14-.43v0ZM100.72,70s0-.08-.1-.14h.14A.2.2,0,0,0,100.72,70Zm0,.19a.7.7,0,0,1,0-.16s0,0,0,0a.11.11,0,0,0,0,.09Zm0,0s0,0,0,0Zm3.49-10.58q-.9,2.55-1.77,5.1t-1.68,5.1h6.76v-.09Zm3.4,10.44a.16.16,0,0,1,0-.1.33.33,0,0,0,0-.14h.28C107.67,69.91,107.61,70,107.61,70.09Z" fill="#fff"/><path d="M135.85,78.16c0,1.83.52,2.74,1.56,2.74l.4,0,.59-.07c.22,0,.49,0,.8,0l.38,0a2.18,2.18,0,0,1,1.56.63,2,2,0,0,1,.66,1.44Q141.8,85,139,85h-.38a1.06,1.06,0,0,0-.33,0L136,84.64c-.45-.07-.89-.11-1.33-.15s-.89,0-1.37,0-1.05,0-1.56,0-1,.08-1.41.15L128.1,85a.66.66,0,0,0-.28,0h-.43q-2.79,0-2.79-2.22t2.22-2.07l.41,0c.33,0,.59,0,.78,0l.61.07a3.33,3.33,0,0,0,.38,0c1,0,1.51-.91,1.51-2.74V75l.05-4V67.16l-.05-7.42a2.28,2.28,0,0,0-2.55-2.6h-1.37a2.23,2.23,0,0,0-2.5,2.56v.92a3.34,3.34,0,0,0,0,.59l.19,1.6a3.1,3.1,0,0,1,.05.57V64q0,3.49-2.55,3.5t-2.46-2.7v-.56a5.27,5.27,0,0,1,0-.71c0-.1,0-.21,0-.36a3.15,3.15,0,0,0,0-.44c.09-1.42.14-2.33.14-2.74s0-.71,0-1.09,0-.79-.07-1.23l-.14-1.37c0-.19,0-.28,0-.28s0-.14,0-.43a2.24,2.24,0,0,1,2.51-2.55l1.06,0c.52,0,1.16,0,1.91.11h.38l1.25,0,2.06.07c.85,0,1.71,0,2.57,0s1.73,0,2.58,0l.71,0c.31,0,.69,0,1.13,0l1.32,0,1.7,0c.54,0,1.51,0,2.93-.14a14.53,14.53,0,0,1,1.61-.12l1.32,0c2,0,3,.87,3,2.6,0,.32,0,.89-.12,1.73S147.1,59.07,147,60v1.3a8.56,8.56,0,0,0,.1,1.25c.06.63.11,1.15.14,1.56s.05.69.05.85c0,1.64-.86,2.45-2.56,2.45s-2.45-1-2.45-2.88c0-.53.05-1.35.14-2.45,0-.54,0-1,.07-1.42s0-.74,0-1c0-1.67-.93-2.51-2.78-2.51h-1.28a2.32,2.32,0,0,0-1.79.62A3,3,0,0,0,136,59.6l-.15,3.17Z" fill="#fff"/><path d="M155.7,59.93c0-1.82-.52-2.74-1.56-2.74a3.7,3.7,0,0,0-.8.1,7.32,7.32,0,0,1-1.37.14,2.21,2.21,0,0,1-1.54-.59,2,2,0,0,1-.63-1.54c0-1.48.89-2.22,2.69-2.22h.28a2.61,2.61,0,0,1,.48.05l3.63.28c.82.07,1.43.12,1.82.17a6.46,6.46,0,0,0,1.25,0l11-.33,2.32-.14h0a6.07,6.07,0,0,1,.71-.05h.66c2.11,0,3.16.92,3.16,2.74,0,.1,0,.36,0,.78s-.08.95-.15,1.58a12.06,12.06,0,0,0-.11,1.37q0,.72,0,1.23c0,.51,0,.94,0,1.3a6.61,6.61,0,0,0,.07.83c.06.44.11.83.14,1.18s0,.64,0,.9c0,1.54-.81,2.31-2.41,2.31s-2.41-1-2.41-3V61.91q0-3.39-1.14-3.87h0a21.07,21.07,0,0,0-5.81-.47,27.49,27.49,0,0,0-3.64.14,2,2,0,0,0-1.37,2.08v3.12a4,4,0,0,0,0,.54v.87a3,3,0,0,0,.19,1.47,5,5,0,0,0,.94.09h1.89c1.35,0,2.05-.41,2.08-1.23a1.88,1.88,0,0,1-.07-.56c0-.32,0-.58-.07-.81v0a10,10,0,0,1-.14-1.75,2.12,2.12,0,0,1,2.4-2.4c1.61,0,2.41.85,2.41,2.55,0,.15,0,.48-.07,1s-.13,1.15-.26,1.93a27,27,0,0,0-.28,3.59c0,.29,0,.71.05,1.26s.08,1.19.14,1.91l.23,1.51a11.64,11.64,0,0,1,.15,1.7c0,1.51-.81,2.27-2.41,2.27s-2.36-.85-2.36-2.55c0-.16,0-.38,0-.66s0-.55.07-.81,0-.29,0-.52,0-.41,0-.59a3.34,3.34,0,0,1,.05-.37c0-.08,0-.06,0,.07,0-.88-.6-1.33-1.79-1.33h-2.08c-.54,0-.86.11-1,.33a3.86,3.86,0,0,0-.17,1.42v3.66c0,.3,0,.66.05,1.07s0,.92,0,1.25v.73c0,1.1.17,1.72.42,1.84a4.73,4.73,0,0,0,1.89.19h6.19a5,5,0,0,0,3.05-.68,3.11,3.11,0,0,0,.83-2.48v-.57a7.6,7.6,0,0,0,0-.76,1.69,1.69,0,0,0,0-.3c0-.11,0-.22,0-.31,0-.38,0-.76,0-1.16v-.92c0-1.79.81-2.69,2.41-2.69s2.51.91,2.51,2.74v.71c0,.28,0,.59-.05.94a3.58,3.58,0,0,1,0,.4c0,.18,0,.33,0,.45s0,.32,0,.47a3.87,3.87,0,0,0,0,.48c0,.34,0,.64,0,.89v1.42c0,.32,0,.69,0,1.13a1.3,1.3,0,0,0,0,.31,1.83,1.83,0,0,1,0,.21,6.42,6.42,0,0,1,0,.74v.59c0,1.85-.95,2.78-2.84,2.78h-.51a3.11,3.11,0,0,1-.57,0l-.31,0-.31,0a11.61,11.61,0,0,0-1.55-.17l-1.45,0-1.58,0c-.56,0-1.21,0-1.93,0-1.08,0-2.08-.06-3-.07l-2.58,0q-4.24,0-8.36.29a.66.66,0,0,0-.28,0h-.38c-1.8,0-2.69-.75-2.69-2.26s.72-2.08,2.17-2.08l.14,0a1,1,0,0,0,.29,0,2.77,2.77,0,0,1,.37,0l.48,0a3.54,3.54,0,0,0,.47.07l.42,0c1,0,1.56-.92,1.56-2.74Z" fill="#fff"/><path d="M197.51,59.93c0-1.82-.52-2.74-1.56-2.74a3,3,0,0,0-.8.1,8.57,8.57,0,0,1-1.37.14,2.21,2.21,0,0,1-1.54-.59,2,2,0,0,1-.63-1.54c0-1.48.91-2.22,2.74-2.22h.37a1.88,1.88,0,0,1,.43.05l2.36.33c.44.06.89.11,1.35.14s.9,0,1.34,0,.88,0,1.4-.07,1-.1,1.58-.17l2-.28a1.75,1.75,0,0,1,.4-.05H206c1.85,0,2.78.74,2.78,2.22a2,2,0,0,1-.66,1.54,2.21,2.21,0,0,1-1.51.59,7.32,7.32,0,0,1-1.37-.14,3.9,3.9,0,0,0-.85-.1c-1,0-1.51.92-1.51,2.74V78.12c0,1.82.5,2.74,1.51,2.74h.21a2.29,2.29,0,0,0,.36,0h.28a9.28,9.28,0,0,1,1.37-.14c1.45,0,2.17.69,2.17,2.08S207.82,85,206,85h-.43a.69.69,0,0,0-.28,0l-2.41-.38c-.41-.06-.81-.11-1.21-.14s-.77,0-1.15,0c-.63,0-1.22,0-1.75.07s-1.06.1-1.56.17L195.1,85a1.15,1.15,0,0,0-.33,0h-.47c-1.8,0-2.69-.75-2.69-2.26s.72-2.08,2.17-2.08l.14,0a.78.78,0,0,0,.24,0,2.91,2.91,0,0,1,.38,0l.51,0a4.14,4.14,0,0,0,.45.07,3.29,3.29,0,0,0,.45,0c1,0,1.56-.92,1.56-2.74Z" fill="#fff"/><path d="M228.47,78.16c0,1.83.52,2.74,1.56,2.74a3.73,3.73,0,0,0,.4,0l.6-.07c.22,0,.48,0,.8,0l.38,0a2.22,2.22,0,0,1,1.56.63,2,2,0,0,1,.66,1.44q0,2.22-2.79,2.22h-.38a1.06,1.06,0,0,0-.33,0l-2.27-.33c-.44-.07-.88-.11-1.32-.15s-.9,0-1.37,0-1.05,0-1.56,0-1,.08-1.41.15l-2.27.33a.75.75,0,0,0-.29,0H220q-2.79,0-2.79-2.22t2.22-2.07l.4,0c.33,0,.59,0,.78,0l.62.07a3.33,3.33,0,0,0,.38,0c1,0,1.51-.91,1.51-2.74V75l0-4V67.16l0-7.42a2.28,2.28,0,0,0-2.55-2.6h-1.37a2.24,2.24,0,0,0-2.51,2.56v.92a3.25,3.25,0,0,0,0,.59l.19,1.6a3.1,3.1,0,0,1,.05.57V64q0,3.49-2.55,3.5T212,64.84v-.56a4,4,0,0,1,0-.71,2.49,2.49,0,0,1,0-.36,3.17,3.17,0,0,0,0-.44c.1-1.42.15-2.33.15-2.74s0-.71,0-1.09,0-.79-.07-1.23L212,56.34c0-.19,0-.28,0-.28s0-.14-.05-.43a2.24,2.24,0,0,1,2.51-2.55l1.06,0c.52,0,1.16,0,1.91.11h.38l1.25,0,2.06.07c.85,0,1.7,0,2.57,0s1.72,0,2.57,0l.71,0c.32,0,.7,0,1.14,0l1.32,0,1.7,0c.53,0,1.51,0,2.93-.14a14.35,14.35,0,0,1,1.6-.12L237,53c2,0,3,.87,3,2.6,0,.32,0,.89-.12,1.73s-.15,1.71-.21,2.62v1.3a10,10,0,0,0,.09,1.25c.07.63.11,1.15.15,1.56s0,.69,0,.85c0,1.64-.85,2.45-2.55,2.45s-2.45-1-2.45-2.88c0-.53,0-1.35.14-2.45,0-.54,0-1,.07-1.42s0-.74,0-1c0-1.67-.93-2.51-2.79-2.51h-1.27a2.35,2.35,0,0,0-1.8.62,3.07,3.07,0,0,0-.66,1.84l-.14,3.17Z" fill="#fff"/></svg>