<svg xmlns="http://www.w3.org/2000/svg" xmlns:xlink="http://www.w3.org/1999/xlink" width="300" height="110" viewBox="0 0 300 110"><defs><filter id="filter"><feOffset dy="2.1" input="SourceAlpha"/><feGaussianBlur stdDeviation="4.21" result="blur"/><feFlood/><feComposite operator="in" in2="blur"/><feComposite in="SourceGraphic"/></filter><filter id="filter-2"><feOffset dx="0.84" dy="0.84" input="SourceAlpha"/><feGaussianBlur stdDeviation="0.42" result="blur-2"/><feFlood/><feComposite operator="in" in2="blur-2"/><feComposite in="SourceGraphic"/></filter></defs><g id="logos"><g filter="url(#filter)"><path d="M0,83.52H8.18a5.82,5.82,0,0,1,4.42,1.6,6.43,6.43,0,0,1,1.51,4.6,7,7,0,0,1-.57,3,5.22,5.22,0,0,1-1.75,2,6.14,6.14,0,0,1,2,.78,4.63,4.63,0,0,1,1.35,1.29,5.36,5.36,0,0,1,.74,1.73,8.92,8.92,0,0,1,.22,2,8,8,0,0,1-.52,3,6,6,0,0,1-1.45,2.2,5.92,5.92,0,0,1-2.28,1.34,9.55,9.55,0,0,1-3,.45H0ZM5.49,93h1c1.71,0,2.57-.77,2.57-2.33s-.86-2.33-2.57-2.33h-1Zm0,9.77h1.2a5.44,5.44,0,0,0,3-.61,2.55,2.55,0,0,0,0-3.89,5.53,5.53,0,0,0-3-.61H5.49Z" fill="#fff"/><path d="M31.39,88.82H24.87v4H31v5.3H24.87v4.15h6.52v5.3h-12V83.52h12Z" fill="#fff"/><path d="M46.93,89.68a6.41,6.41,0,0,0-1.79-1.22,4.18,4.18,0,0,0-1.73-.4,2.6,2.6,0,0,0-1.74.57,1.86,1.86,0,0,0-.67,1.5,1.66,1.66,0,0,0,.33,1.06,3.15,3.15,0,0,0,.88.71,6.7,6.7,0,0,0,1.24.53c.45.15.91.31,1.36.48a8.37,8.37,0,0,1,3.93,2.73A7.38,7.38,0,0,1,50,100.09a9.85,9.85,0,0,1-.55,3.35,7,7,0,0,1-1.6,2.57,7.22,7.22,0,0,1-2.57,1.66,9.62,9.62,0,0,1-3.46.59,11.68,11.68,0,0,1-7.42-2.71l2.35-5a9.53,9.53,0,0,0,2.44,1.85,5.28,5.28,0,0,0,2.38.6,2.62,2.62,0,0,0,2-.7,2.27,2.27,0,0,0,.66-1.6,2.46,2.46,0,0,0-.17-.94,2,2,0,0,0-.56-.73,4.36,4.36,0,0,0-1-.62c-.42-.19-.93-.41-1.53-.64s-1.4-.54-2.09-.85A6.64,6.64,0,0,1,37,95.65a5.57,5.57,0,0,1-1.28-1.93,7.57,7.57,0,0,1-.49-3,9.75,9.75,0,0,1,.51-3.24A7.32,7.32,0,0,1,37.23,85a6.41,6.41,0,0,1,2.3-1.61,7.72,7.72,0,0,1,3-.58,11.78,11.78,0,0,1,3.28.5,13.46,13.46,0,0,1,3.28,1.45Z" fill="#fff"/><path d="M61.58,88.82v18.77H56.09V88.82H51.58v-5.3H66.09v5.3Z" fill="#fff"/><path d="M90.14,88.82H83.53v4h6v5.3h-6v9.45H78V83.52h12.1Z" fill="#fff"/><path d="M92.44,95.56a14.13,14.13,0,0,1,.87-5,12.69,12.69,0,0,1,2.41-4,11,11,0,0,1,3.68-2.69,11.81,11.81,0,0,1,9.42,0,11.1,11.1,0,0,1,3.71,2.69,12.53,12.53,0,0,1,2.42,4,14.77,14.77,0,0,1,0,10,12.43,12.43,0,0,1-2.42,4,11,11,0,0,1-3.71,2.7,11.92,11.92,0,0,1-9.42,0,10.88,10.88,0,0,1-3.68-2.7,12.58,12.58,0,0,1-2.41-4A14,14,0,0,1,92.44,95.56Zm5.74,0a7.14,7.14,0,0,0,.48,2.65,6.54,6.54,0,0,0,1.28,2.1,5.93,5.93,0,0,0,1.89,1.39,5.47,5.47,0,0,0,4.57,0,5.86,5.86,0,0,0,1.9-1.39,6.61,6.61,0,0,0,1.31-2.1,7.71,7.71,0,0,0,0-5.3,6.77,6.77,0,0,0-1.31-2.11,6,6,0,0,0-1.9-1.39,5.57,5.57,0,0,0-4.57,0,6.09,6.09,0,0,0-1.89,1.39,6.7,6.7,0,0,0-1.28,2.11A7.14,7.14,0,0,0,98.18,95.56Z" fill="#fff"/><path d="M118.34,95.56a14.13,14.13,0,0,1,.87-5,12.69,12.69,0,0,1,2.41-4,11,11,0,0,1,3.68-2.69,11.81,11.81,0,0,1,9.42,0,11.1,11.1,0,0,1,3.71,2.69,12.56,12.56,0,0,1,2.43,4,14.94,14.94,0,0,1,0,10,12.45,12.45,0,0,1-2.43,4,11,11,0,0,1-3.71,2.7,11.92,11.92,0,0,1-9.42,0,10.88,10.88,0,0,1-3.68-2.7,12.58,12.58,0,0,1-2.41-4A14,14,0,0,1,118.34,95.56Zm5.74,0a7.14,7.14,0,0,0,.48,2.65,6.74,6.74,0,0,0,1.29,2.1,5.72,5.72,0,0,0,1.89,1.39,5.45,5.45,0,0,0,4.56,0,6,6,0,0,0,1.91-1.39,6.59,6.59,0,0,0,1.3-2.1,7.71,7.71,0,0,0,0-5.3,6.75,6.75,0,0,0-1.3-2.11,6.17,6.17,0,0,0-1.91-1.39,5.55,5.55,0,0,0-4.56,0,5.86,5.86,0,0,0-1.89,1.39,6.91,6.91,0,0,0-1.29,2.11A7.14,7.14,0,0,0,124.08,95.56Z" fill="#fff"/><path d="M145.2,83.52h8.12a8.56,8.56,0,0,1,4,1,11.1,11.1,0,0,1,3.31,2.64A12.61,12.61,0,0,1,162.9,91a13.07,13.07,0,0,1,.81,4.58,13.25,13.25,0,0,1-.8,4.55A12.44,12.44,0,0,1,160.7,104a11.1,11.1,0,0,1-3.31,2.65,8.65,8.65,0,0,1-4.07,1H145.2Zm5.49,18.77H152a6,6,0,0,0,2.54-.51,5.43,5.43,0,0,0,1.89-1.4,6.13,6.13,0,0,0,1.18-2.13,8.48,8.48,0,0,0,.41-2.69,8.32,8.32,0,0,0-.42-2.68,6.35,6.35,0,0,0-1.19-2.14,5.52,5.52,0,0,0-1.89-1.41,6,6,0,0,0-2.52-.51h-1.26Z" fill="#fff"/><path d="M188.83,88.82h-6.61v4h6v5.3h-6v9.45h-5.49V83.52h12.1Z" fill="#fff"/><path d="M209.66,107.59h-6.83l-5.24-9.26v9.26H192.1V83.52h8.54a7.33,7.33,0,0,1,3.08.6,5.9,5.9,0,0,1,2.17,1.61,7,7,0,0,1,1.29,2.36,9.23,9.23,0,0,1,.44,2.87,7.7,7.7,0,0,1-1.17,4.45A5.76,5.76,0,0,1,203,97.73ZM197.59,94.28h1a3.65,3.65,0,0,0,2.49-.76,3.23,3.23,0,0,0,0-4.41,3.66,3.66,0,0,0-2.49-.77h-1Z" fill="#fff"/><path d="M217.45,83.52v24.07H212V83.52Z" fill="#fff"/><path d="M233.88,88.82h-6.52v4h6.16v5.3h-6.16v4.15h6.52v5.3h-12V83.52h12Z" fill="#fff"/><path d="M237.83,107.59V83.52h5.49l10.14,14.72V83.52h5.46v24.07h-5.46L243.32,92.88v14.71Z" fill="#fff"/><path d="M263.34,83.52h8.12a8.6,8.6,0,0,1,4.05,1,11.22,11.22,0,0,1,3.31,2.64A12.38,12.38,0,0,1,281,91a13.07,13.07,0,0,1,.81,4.58,13.24,13.24,0,0,1-.79,4.55,12.47,12.47,0,0,1-2.22,3.84,10.93,10.93,0,0,1-3.3,2.65,8.66,8.66,0,0,1-4.08,1h-8.12Zm5.49,18.77h1.26a6.11,6.11,0,0,0,2.55-.51,5.43,5.43,0,0,0,1.89-1.4,6.3,6.3,0,0,0,1.18-2.13,8.49,8.49,0,0,0,.4-2.69,8.32,8.32,0,0,0-.42-2.68,6.18,6.18,0,0,0-1.19-2.14,5.33,5.33,0,0,0-1.89-1.41,6,6,0,0,0-2.52-.51h-1.26Z" fill="#fff"/><path d="M297,89.68a6.7,6.7,0,0,0-1.79-1.22,4.22,4.22,0,0,0-1.74-.4,2.6,2.6,0,0,0-1.74.57,1.86,1.86,0,0,0-.67,1.5,1.61,1.61,0,0,0,.34,1.06,2.89,2.89,0,0,0,.88.71,6.32,6.32,0,0,0,1.23.53c.46.15.91.31,1.36.48a8.37,8.37,0,0,1,3.93,2.73,7.38,7.38,0,0,1,1.25,4.45,9.61,9.61,0,0,1-.55,3.35,7,7,0,0,1-1.59,2.57,7.17,7.17,0,0,1-2.58,1.66,9.62,9.62,0,0,1-3.46.59,11.68,11.68,0,0,1-7.42-2.71l2.35-5a9.89,9.89,0,0,0,2.44,1.85,5.31,5.31,0,0,0,2.38.6,2.6,2.6,0,0,0,2-.7,2.4,2.4,0,0,0,.49-2.54,2,2,0,0,0-.56-.73,4.36,4.36,0,0,0-1-.62c-.42-.19-.93-.41-1.53-.64s-1.4-.54-2.08-.85a6.49,6.49,0,0,1-1.82-1.23,5.73,5.73,0,0,1-1.29-1.93,7.57,7.57,0,0,1-.49-3,9.49,9.49,0,0,1,.52-3.24A7.3,7.3,0,0,1,287.24,85a6.41,6.41,0,0,1,2.3-1.61,7.81,7.81,0,0,1,3-.58,11.84,11.84,0,0,1,3.28.5,13.39,13.39,0,0,1,3.27,1.45Z" fill="#fff"/></g><g filter="url(#filter-2)"><path d="M92.24,34.43s9.67-3.54,11.16-15.64S95.4,0,80.88,0H40L30.46,76.29H76.79c14.89,0,25.49-7.44,27.91-22.33S92.24,34.43,92.24,34.43ZM76.75,54.26c-.81,5.49-5.08,6.5-8.93,6.5H60.75l1.82-15.43h6.67C74.7,45.33,77.56,48.78,76.75,54.26Zm.78-30.44c-.74,5-4.65,5.95-8.18,5.95H64.69l1.68-14.14h4.28C75.65,15.63,78.28,18.79,77.53,23.82Z" fill="#fff"/><polygon points="170.49 18.89 172.62 0 119.78 0 110.77 76.3 138.26 76.3 142.26 47.59 163.15 47.59 165.28 28.7 144.9 28.7 146.27 18.89 170.49 18.89" fill="#fff"/><polygon points="229.5 18.89 231.63 0 178.78 0 169.78 76.3 197.27 76.3 201.27 47.59 222.15 47.59 224.28 28.7 203.91 28.7 205.27 18.89 229.5 18.89" fill="#fff"/><path d="M266.2,32.39s-7-5.22-20.28-3.94-15.26,12.7-15.55,14.18-.1,8.56,8.66,12.89,6.89,9.36,1.38,8.86-11.52-5.8-11.52-5.8l-1.77,15.06s15,6.2,25.3,2,12.1-10.63,12.3-16.14-8-10.24-12.3-12.2-3.15-6.7,2.75-6.4a13.71,13.71,0,0,1,9.34,4.51Z" fill="#fff"/></g></g></svg>