<svg xmlns="http://www.w3.org/2000/svg" width="350" height="45" viewBox="0 0 350 45"><path d="M333.45 32.29c0-1.91-.06-3.85-.09-5.78a7.22 7.22 0 0 0-3.46-6.1 1.36 1.36 0 0 0-1.52-.21c-1.35.63-2.74 1.2-4 1.72l-2.6-2.45a1.54 1.54 0 0 0-2-.31c-1 .52-2 .9-3.24 1.42v-2.34c-1.38.6-2.61 1.1-3.79 1.68-.2.09-.31.46-.31.72.06 5 .15 10.06.24 15.09a1 1 0 0 0 .21.67c1.26.9 2.54 1.76 4 2.77v-1.32c-.09-5.09-.16-10.17-.26-15.27a1 1 0 0 1 .68-1.13c.61-.24.93.18 1.3.52a6.62 6.62 0 0 1 2.25 4.88c.05 3 .17 6 .12 8.94a2.5 2.5 0 0 0 1.46 2.57c.92.5 1.77 1.16 2.75 1.82a9 9 0 0 0 .05-.9q-.11-7.05-.24-14.1a7 7 0 0 0-.15-1.36c-.12-.48-.27-.88.31-1.08s1-.41 1.67.19a7.08 7.08 0 0 1 2.4 5.07c.07 2.59.09 5.18.16 7.77a6.6 6.6 0 0 0 2.61 5.05 1.13 1.13 0 0 0 .82.31c1.23-.47 2.42-1 3.78-1.59-2.74-2.09-3.2-4.54-3.15-7.25zM218.86 5.31c2-1.82 3.7-1.48 5 1a12.44 12.44 0 0 1 .66 1.89 8.35 8.35 0 0 1 .18.9c1.21-.62 2.32-1.22 3.46-1.76a.94.94 0 0 0 .58-1.15 6.63 6.63 0 0 0-3.39-4.67 1.28 1.28 0 0 0-1.44-.05q-4.37 2.29-8.79 4.53a1.14 1.14 0 0 0-.73 1.17c.05 5.84.07 11.68.09 17.52a6.34 6.34 0 0 0 3.63 5.9 1.36 1.36 0 0 0 1.08 0c1.56-.76 9.64-5.4 9.63-5.39v-9.52c-1.2.59-8 3.72-8 3.73 0 .91 3.84.16 3.84.16s.06 3.59.18 4.5c.25 2-.46 3.17-2.35 3.73h-.08c-.39 0-.88 0-1.15-.16a5.76 5.76 0 0 1-2.45-4.67c-.07-5.68-.08-11.37-.1-17.06a1 1 0 0 1 .15-.6zM82.54 5V3.8c-1.24.81-2.26 1.52-3.34 2.2a1.5 1.5 0 0 0-.86 1.48c0 6.62-.22 13.25-.15 19.86 0 1.83-.44 3-2.24 3.88-.74.35-1.17.39-1.72-.05a5.51 5.51 0 0 1-2.07-4.72c.08-5.38.13-10.77.2-16.16A5.34 5.34 0 0 0 70 5.35c-.24-.15-.69-.31-.89-.19-1.28.77-2.52 1.62-3.81 2.46 2.53 2.07 2.87 2.83 2.83 6.14C68 18.85 68 23.93 67.91 29a5.42 5.42 0 0 0 3.31 5.49 1.36 1.36 0 0 0 1.52-.16c2.86-1.88 5.73-3.73 8.63-5.52a1.7 1.7 0 0 0 1-1.62c0-7.38.1-14.79.17-22.19zM182 21.71V0c-1.3.72-2.38 1.37-3.5 1.94a1.22 1.22 0 0 0-.74 1.29v5.23a1.17 1.17 0 0 1-.73 1.2c-2.36 1.27-4.71 2.57-7 3.92a1.37 1.37 0 0 0-.62 1c0 3.27-.06 6.55 0 9.83a5.9 5.9 0 0 0 2.74 5 2 2 0 0 0 2.66.1c1.1-.75 2.34-1.32 3.36-1.88.81.82 1.46 1.54 2.19 2.19a1 1 0 0 0 .89.17c1.24-.63 2.43-1.32 3.72-2-2.53-2.2-2.97-3.23-2.97-6.28zm-4.73 5.17a1 1 0 0 1-1.34-.12 5.61 5.61 0 0 1-2.31-4.36c-.07-3 0-6.08 0-9.12a.9.9 0 0 1 .28-.69c1.21-.73 2.45-1.41 3.89-2.22v14.2a4.05 4.05 0 0 0 .07 1.16c.14.61-.16.86-.63 1.15zM13.13 29.75a1.25 1.25 0 0 0-.32.81 27.32 27.32 0 0 0-.06 4.33C13 36.76 12.22 38 10.44 39c-.65.36-1.06.42-1.55.06a5 5 0 0 1-2.11-4.45c.12-5.49.21-11 .32-16.46a4.91 4.91 0 0 0-2.32-4.66c-.23-.15-.68-.28-.87-.15-1.29.85-2.53 1.77-3.91 2.76 2.48 1.21 3 3.4 2.89 6-.16 5.1-.19 10.18-.33 15.28a4.91 4.91 0 0 0 3.49 5.22 1.2 1.2 0 0 0 .95-.12q4.69-3.25 9.35-6.55a1.21 1.21 0 0 0 .49-.64c.08-2.68.11-5.35.17-8.23-1.46.94-2.69 1.81-3.88 2.69zM245.39 23.75c0-3.7 0-7.41-.08-11.11 0-.34 0-.68-.07-1.18-1.22.6-2.27 1.17-3.37 1.65a1.11 1.11 0 0 0-.75 1.23c0 3.61.07 7.22.1 10.84v3.31c-1.2.76-1.32.74-2.44-.43a6.49 6.49 0 0 1-1.78-4.63l-.09-11.38c0-.31 0-.63-.06-1.09-1.27.73-2.36 1.39-3.5 2a1.11 1.11 0 0 0-.63 1.15c0 3.85 0 7.7.09 11.55a6.42 6.42 0 0 0 3.25 5.63 1.5 1.5 0 0 0 1.76.15c1.27-.71 2.61-1.32 3.77-1.89.81.86 1.48 1.61 2.19 2.32.17.17.57.36.73.29 1.29-.59 2.56-1.24 3.95-1.93a7.11 7.11 0 0 1-3.07-6.48zM349.89 33.51L349.8 29a7.46 7.46 0 0 0-3.55-6.21 1.28 1.28 0 0 0-1.36-.22c-2.28 1-4.59 1.94-6.9 2.88a1 1 0 0 0-.72 1.09q.14 4.7.19 9.39a7.38 7.38 0 0 0 3.5 6.21 1.21 1.21 0 0 0 1.34.22c2.35-1 4.7-2 7.07-2.91a.93.93 0 0 0 .63-1.06c-.07-1.64-.08-3.26-.11-4.88zm-4.09 5.62a1 1 0 0 1-.64.82 1.33 1.33 0 0 1-1-.28 6.75 6.75 0 0 1-2.49-4.76c-.09-1.51-.07-3-.1-4.51 0-1.5-.1-3-.06-4.51a1.12 1.12 0 0 1 .64-.89 1.46 1.46 0 0 1 1.12.33 6.53 6.53 0 0 1 2.4 4.69c.07 3.04.12 6.08.13 9.11zM30 18.92a1.39 1.39 0 0 0-1.08.16c-2.42 1.62-4.81 3.31-7.24 5a1.36 1.36 0 0 0-.68 1.19c0 1.65 0 3.31-.07 5 0 1.44 0 2.88-.09 4.33a5.11 5.11 0 0 0 3.37 5.37 1.16 1.16 0 0 0 1.26-.18q3.6-2.52 7.23-5a1.32 1.32 0 0 0 .68-1.24c0-3.15.1-6.32.14-9.47A4.94 4.94 0 0 0 30 18.92zm-.86 16.5a1.68 1.68 0 0 1-.69 1.09 1.26 1.26 0 0 1-1.12 0 4.6 4.6 0 0 1-2.26-4.11c0-3 .06-6 .16-9a1.58 1.58 0 0 1 .68-1 1.21 1.21 0 0 1 1.05 0 4.29 4.29 0 0 1 2.26 3.6c.08 1.63 0 3.31-.06 5h.08c-.03 1.4-.01 2.91-.11 4.42zM150.4 19.42c-.8-.46-1.63-.86-2.42-1.32a5.63 5.63 0 0 1-2.8-3.91c-.1-.5-.26-1 .43-1.41s1-.09 1.48.25a6.05 6.05 0 0 1 2.21 4.41c1.21-.69 2.33-1.36 3.48-2a1 1 0 0 0 .61-1.26 5.88 5.88 0 0 0-3.75-4.54 1.1 1.1 0 0 0-.84.12c-2.47 1.41-4.94 2.83-7.38 4.31a1.27 1.27 0 0 0-.54.91 5.76 5.76 0 0 0 3.23 5.69c.81.43 1.64.84 2.41 1.31a5.41 5.41 0 0 1 2.64 4.2 1.16 1.16 0 0 1-.48.92 1.46 1.46 0 0 1-1.14 0 2.8 2.8 0 0 1-1.14-1c-.61-1.1-1.1-2.26-1.68-3.49-1.09.64-2.36 1.37-3.6 2.15a.89.89 0 0 0-.23.7 5.72 5.72 0 0 0 3.73 4.81 1.12 1.12 0 0 0 .84-.14c2.48-1.42 4.95-2.84 7.39-4.28a1.22 1.22 0 0 0 .55-.84 5.66 5.66 0 0 0-3-5.59zM46.76 26.45c-.74-.35-1.5-.65-2.23-1a4.76 4.76 0 0 1-2.84-4 1.71 1.71 0 0 1 .47-1.07.85.85 0 0 1 1.23-.09 4.94 4.94 0 0 1 2.22 3.35l.17 1c1.27-.84 2.39-1.62 3.55-2.34a1 1 0 0 0 .55-1.16 5.11 5.11 0 0 0-3.67-4.3 1 1 0 0 0-.76.14q-3.8 2.51-7.56 5.1a1.18 1.18 0 0 0-.46.74 5.06 5.06 0 0 0 2.74 5.36c.88.46 1.82.8 2.69 1.26a4.81 4.81 0 0 1 2.66 3.9 1.07 1.07 0 0 1-.52 1.14.88.88 0 0 1-1.24 0 13.72 13.72 0 0 1-1.81-2.22 8.67 8.67 0 0 1-.6-2.08c-1.12.77-2.2 1.56-3.33 2.25a1.25 1.25 0 0 0-.68 1.54 5.16 5.16 0 0 0 3.56 4 1.28 1.28 0 0 0 .92-.2q3.72-2.46 7.39-5a1.39 1.39 0 0 0 .56-.88 5.06 5.06 0 0 0-3.01-5.44zM190.9 21.77c1.94-1 3.77-2.2 5.77-3.06 1.63-.69 2-1.7 1.94-3.33a6.42 6.42 0 0 0-3.5-5.64 1.22 1.22 0 0 0-1.37 0c-2.35 1.3-4.73 2.59-7.12 3.87a1.1 1.1 0 0 0-.66 1.13v9.39a6.21 6.21 0 0 0 3.45 5.74 1.21 1.21 0 0 0 1.36 0q3.54-2 7.12-3.85a1 1 0 0 0 .54-1.46c-1.53.82-3 1.61-4.53 2.46a1 1 0 0 1-1.34-.1 6.15 6.15 0 0 1-2.31-3.84 1.06 1.06 0 0 1 .65-1.31zm-.69-.77v-7.81c0-.61.91-1 1.46-.74 1.78.89 3.26 4.24 2.69 6.09a.6.6 0 0 1-.26.34c-1.22.68-2.45 1.34-3.89 2.12zM286.37 27.19c1.89-.83 3.69-1.84 5.63-2.54 1.53-.54 2-1.41 1.91-3.06a7.25 7.25 0 0 0-3.55-6 1.24 1.24 0 0 0-1.36-.16q-3.5 1.66-7.05 3.26a1 1 0 0 0-.63 1.1c.06 3.1.12 6.21.12 9.3a6.91 6.91 0 0 0 3.49 6.12 1.19 1.19 0 0 0 1.35.14c2.34-1.11 4.69-2.2 7.06-3.24.64-.28.78-.68.52-1.42-1.51.69-3 1.35-4.48 2.08a1.12 1.12 0 0 1-1.41-.26 7 7 0 0 1-2.28-4 1 1 0 0 1 .68-1.32zm-.79-1.78c0-2.13 0-4.27-.1-6.41 0-.59.12-1.06.74-1.08a2 2 0 0 1 1.2.43 6.76 6.76 0 0 1 2.31 5.79.54.54 0 0 1-.22.43c-1.23.6-2.48 1.16-3.84 1.79-.04-.42-.09-.69-.09-.95zM277.84 31.6a1.06 1.06 0 0 1-1.41-.25 6.8 6.8 0 0 1-2.37-5.3c-.05-6.8-.14-13.6-.22-20.4V4.37C272.56 5 271.5 5.54 270.4 6a1.12 1.12 0 0 0-.76 1.21q.15 10.43.24 20.85a6.8 6.8 0 0 0 3.66 6.08 1.45 1.45 0 0 0 1.08.08c1.55-.68 3.05-1.44 4.6-2.11.62-.27.73-.67.47-1.38-.64.27-1.28.54-1.85.87zM266.3 30.59a1.05 1.05 0 0 1-1.41-.22 6.57 6.57 0 0 1-2.36-5.1q-.09-10.29-.21-20.58V3.41C261 4 260 4.59 258.9 5.08a1.13 1.13 0 0 0-.77 1.21q.14 10.43.21 20.85a6.67 6.67 0 0 0 3.64 6 1.43 1.43 0 0 0 1.07.08c1.56-.69 3.06-1.46 4.61-2.15.65-.29.77-.7.45-1.39-.64.32-1.26.58-1.81.91zM306.8 17.39a1.25 1.25 0 0 0-1.43-.16c-1.08.53-2.21 1-3.49 1.56v-2.34c-1.41.63-2.67 1.16-3.88 1.76-.17.09-.24.45-.24.69q.09 7.53.22 15.08a1 1 0 0 0 .26.73c1.23.87 2.5 1.7 4 2.68v-1.3c-.16-5.09-.24-10.17-.24-15.25a1.42 1.42 0 0 1 .32-1c.41-.38.91-.36 1.47.14a7.36 7.36 0 0 1 2.46 4.91c1.16-.51 2.2-1 3.3-1.42.74-.26.84-.73.68-1.44a7.46 7.46 0 0 0-3.43-4.64zM91 24.24c.12-3.59.09-7.16.13-10.74v-1.17c-1.42.89-2.63 1.61-3.79 2.4a1.23 1.23 0 0 0-.43.83c-.07 4.3-.13 8.6-.13 12.9A5.13 5.13 0 0 0 89.27 33c.22.14.63.28.81.17 1.28-.75 2.53-1.56 3.93-2.44-2.62-1.5-3.07-3.83-3.01-6.49zM253.64 24.72c0-3.85 0-7.7-.09-11.54v-1.21c-1.42.69-2.64 1.25-3.81 1.88a1 1 0 0 0-.34.82q0 6.39.1 12.8a6.07 6.07 0 0 0 1.35 3.77c1.27 1.61 1.58 1.68 3.27.84l2.6-1.28a6.92 6.92 0 0 1-3.08-6.08zM109.08 23.55c.1-2.14 0-4.27.07-6.41a5.43 5.43 0 0 0-3.54-5.45 1.52 1.52 0 0 0-1.16.09c-2.43 1.45-4.83 3-7.25 4.46a1.15 1.15 0 0 0-.66 1.11c0 3.18-.06 6.38-.07 9.56a5.47 5.47 0 0 0 3.17 5.23 1.47 1.47 0 0 0 1.76-.07c1.28-.86 2.63-1.63 3.79-2.34.83.78 1.5 1.47 2.24 2.09a.94.94 0 0 0 .82.07c1.23-.71 2.44-1.48 3.81-2.32-2.4-1.43-3.06-3.5-2.98-6.02zm-4.73 5.5a1.63 1.63 0 0 1-1.15.1 4.91 4.91 0 0 1-2.46-4.15c-.06-1.53 0-3.07 0-4.6 0-1.47.06-2.95 0-4.42 0-.59.14-1.08.75-1.2a1.79 1.79 0 0 1 1.21.23 5.06 5.06 0 0 1 2.18 4.33v7.58a4.05 4.05 0 0 0 .07 1.16c.15.54-.18.82-.6.97z" fill="#fff"/><path d="M121 15.43v-4.92c-1.15.68-2.08 1.32-3.09 1.82a1.86 1.86 0 0 0-1.14 1.95c0 7.34-.08 14.68-.14 22a1.61 1.61 0 0 1-.2 1c-.46.48-1 .8-1.69.25a6.16 6.16 0 0 1-2.35-4.51c-1.15.71-2.16 1.42-3.26 2a1.36 1.36 0 0 0-.78 1.8 5.78 5.78 0 0 0 3.26 3.89 1.19 1.19 0 0 0 1.36 0c2.34-1.47 4.7-2.91 7.07-4.3a1.4 1.4 0 0 0 .82-1.37c.05-6.56.14-13.04.14-19.61zM132.72 27.66a1 1 0 0 1-1.33 0 5.73 5.73 0 0 1-2.26-3.66 1.21 1.21 0 0 1 .71-1.48c1.92-1.08 3.74-2.35 5.71-3.32a3 3 0 0 0 2-3.32 6 6 0 0 0-3.38-5.51 1.36 1.36 0 0 0-1.53 0q-3.42 2.08-6.9 4.11a1.38 1.38 0 0 0-.82 1.37v9.2a5.76 5.76 0 0 0 3.39 5.64 1.19 1.19 0 0 0 1.35 0c2.37-1.44 4.74-2.87 7.15-4.24a1.11 1.11 0 0 0 .6-1.52c-1.68.93-3.2 1.8-4.69 2.73zm-3.64-10v-3.33a1.59 1.59 0 0 1 .68-1 1.2 1.2 0 0 1 1 .08 5.83 5.83 0 0 1 2.5 5.59.72.72 0 0 1-.33.5c-1.2.74-2.42 1.45-3.87 2.32 0-1.52.01-2.82.02-4.15zM93.75 6.06c-.4 1.68-1.15 2.67-2.25 3a7.21 7.21 0 0 1-1.85 0 6.86 6.86 0 0 0-1.92 0 1.74 1.74 0 0 0-.91.54 6.61 6.61 0 0 0-.55 1l-.48-.16c.46-1.72 1.21-2.71 2.27-3a6.34 6.34 0 0 1 1.89 0 6.26 6.26 0 0 0 1.75 0 2.48 2.48 0 0 0 1.57-1.5zM123.15 4.78q-.6 2.53-2.25 3a6.9 6.9 0 0 1-1.85 0 6.77 6.77 0 0 0-1.92.05 1.74 1.74 0 0 0-.91.54 6.91 6.91 0 0 0-.55 1l-.47-.15c.45-1.72 1.2-2.72 2.26-3a6.34 6.34 0 0 1 1.89 0 6.26 6.26 0 0 0 1.75 0 2.48 2.48 0 0 0 1.57-1.5zM255.46 5c-.4 1.69-1.15 2.67-2.25 3a7.18 7.18 0 0 1-1.85 0 6.43 6.43 0 0 0-1.92 0 1.71 1.71 0 0 0-.9.54 5.44 5.44 0 0 0-.56 1l-.47-.16c.45-1.71 1.2-2.71 2.26-3a6.44 6.44 0 0 1 1.89 0 6.24 6.24 0 0 0 1.76 0A2.44 2.44 0 0 0 255 4.79z" fill="#fff"/></svg>