<svg xmlns="http://www.w3.org/2000/svg" width="220" height="126" viewBox="0 0 220 126"><path d="M28.07,54.63s-6.9,5.18-6,12.85,5,9.72,10.15,9.18,14-6.48,14-18.25S38.34,41.13,33.05,41.13,13.93,50.85,9.72,65s-3.54,49.76,19.35,52.26c22,2.4,26-36.61,27.73-36.61s-2.81,42-30.88,45.57S-.72,87.49.54,81.84C4,66.33,11.43,53.08,18.33,46.61,25.68,39.73,35.85,31.85,42,35.09s8.68,17.06,5.82,26.45S35.58,82.06,29.07,82.38,16.74,75.9,18.58,66.62,27.42,51.93,28.07,54.63Zm50,3.06c-4.24,10.53-10.66,17.85-17.82,15C54.65,70.4,53.54,60,57.78,49.52S70,32.3,75.6,34.56,82.3,47.17,78.07,57.69ZM71.61,36.25c-4.62,0-6.34,7.35-7.11,16S63.35,70.1,66.88,70.1s7.2-9.12,8-17.78S75.2,36.24,71.61,36.25ZM183.1,14s-13.7,27.67-17,32.78-12.81,18.36-20.51,19.52-12.54-5.75-9.76-7.88,5.39,1.65,3,3.23,6.45,6.89,11.65-.9,8.77-14.6,8.77-14.6-5.91,2.24-10.39.63a6.32,6.32,0,0,1-4.38-5.82s-6.63,8.06-13.08,9.49S123.55,45,123.55,45s-1.79,3.39-7.35,6.62S103.85,54,100.53,50.06c0,0-4.48,8.42-8.51,8.42s-5.64-5.55-2.77-13.07S94.53,33,93.73,32.06s-4.48,4.93-6.45,7.7S79,44.06,81.1,37.17s4.48-10.93,5.37-10.75S88,30,88.8,29.29s8.29-5.56,10.59-5-.65,8.42-3.6,15.05S94.26,50.15,96,50.06s4.26-3.22,4.26-3.22a20.34,20.34,0,0,1,4-11.2c4.12-5.82,12-14,18-15.22a14.14,14.14,0,0,1,10.56,2.15L144.06.9l10.3-.9S135.73,34.39,134,38.24s-1.08,6.81.8,7.52,9.85-6.8,9.85-6.8a8.17,8.17,0,0,1,1-4.48c1.25-2.24,10-18.27,10-18.27l7.34-.45S154.54,31.7,152.65,36s-1.43,8.06,1.62,8.33,6.89-2.86,10.21-8.95S175,14.6,175,14.6Zm-54.21,7.88c-4.22-1.87-8.27,4.54-13.19,11.71-5.46,8-8.61,16.58-5.39,18s10.74-6.15,15-13.74S132.17,23.31,128.89,21.85Zm-1.15,36A87.35,87.35,0,0,0,90.22,68.14C71.94,78.31,63.15,83,64.66,87.24S76.09,84.41,86.35,77C103,64.84,127.74,57.83,127.74,57.83ZM160.68,74a9.56,9.56,0,1,0,9.57,9.56A9.56,9.56,0,0,0,160.68,74Zm10.39-3.89c.74-1.46,2.52-4.59,4.24-7.22,3.68-5.65,9.16-14.21,17.53-21.11s24.44-22.9,26.86-32.07S209.52-1.75,203.46,3.61c-3.23,2.86-6,10.93-9,19.43s-3.59,12.48-8.37,19.78S169.85,68.29,169.6,70.18,170.77,70.68,171.07,70.09Z" fill="#fff"/></svg>