<svg xmlns="http://www.w3.org/2000/svg" width="250" height="143" viewBox="0 0 250 143"><path d="M145.47 114.76a11.82 11.82 0 0 1-1.61 2c-2.25 1.8-5 2.43-7.75 2.85-1.9.29-3.85.82-5.81 0a5.43 5.43 0 0 1-3.34-3.48 50.79 50.79 0 0 1-1.61-5.76 24.16 24.16 0 0 1 .08-4c0-.56-.27-1.14-.22-1.7a11.16 11.16 0 0 1 .49-2.19 23.81 23.81 0 0 1 3.81-7.41 14.35 14.35 0 0 1 5.33-4.24c1.54-.81 3-1.68 4.83-1.32 1.25.25 2.44.79 3.66 1.16a2.48 2.48 0 0 0 1.29.2 2 2 0 0 1 2.76 1.37c.4 1 .75 2 1.24 3a10.3 10.3 0 0 0 1.27 1.64c.16.19.46.31.54.52a47.38 47.38 0 0 1 2.1 5.92 16.67 16.67 0 0 1 .23 5 35.16 35.16 0 0 1-1.06 6.7c-.94 3.31-2.12 6.56-3.37 9.77-.32.82-1.33 1.35-2 2.06a4.16 4.16 0 0 0-.49 1.09 3.91 3.91 0 0 0 1.12.25c6.11-.53 12.22-1.12 18.33-1.61 2.28-.18 4.58-.14 6.87-.16a13.53 13.53 0 0 1 2.06.39l-1.2 1.21c-1.65 1.61-3.83 1.63-5.91 1.84-2.4.25-4.82.31-7.23.51-3.86.33-7.73.62-11.57 1.1-3.16.4-6.29 1.11-9.44 1.59a4.52 4.52 0 0 1-2.28-.25 6 6 0 0 0-3.57-.08c-1.91.32-4 1.33-6-.25-.57-.44-2 .08-3 .3a29.61 29.61 0 0 1-3.59 1 14.6 14.6 0 0 1-3.24-.41 4.21 4.21 0 0 0-1.32 0c-2.09.43-4.16.9-6.23 1.35-1.55.34-2 .08-2.71-1.37a2.91 2.91 0 0 0-3.26-1c-1.8.78-3.56 1.66-5.36 2.41a4.42 4.42 0 0 1-2 .39c-.39 0-.86-.58-1-1-.36-.84-.73-1.12-1.6-.6a21.52 21.52 0 0 1-3.11 1.56 5.06 5.06 0 0 1-1.83.08c-1 0-.78-.73-.8-1.36 0-.15-.54-.44-.78-.4-1.58.29-3.16.6-4.71 1a3.75 3.75 0 0 0-1.16.82l-2.27-3.05c1.11-.16 2.06-.23 3-.45q2.77-.66 5.5-1.46c.67-.2 1.28-.63 2-.86 1-.35 2.06-.6 2.86.65.2.33 1.11.43 1.61.31 1.58-.37 3.12-.91 4.68-1.37a1.7 1.7 0 0 1 2.31.86c.58 1.09 1.68.83 2.58.61 3.77-.92 7.5-2 11.28-2.84a53.61 53.61 0 0 1 6.7-.87c.84-.07 1.36-.33 1.57-1.11.27-1 .94-1.32 2-1.37a26.14 26.14 0 0 1 6 .81c2.95.57 6 .49 8.51-1.67a41.23 41.23 0 0 1 3.66-2.62c1.09-.76 2.58-4.57 2.16-6.06zm-4.92-18.47c-.39-.5-.59-1-1-1.19a2.69 2.69 0 0 0-3.55 1.08 17.05 17.05 0 0 0-1.65 2.34 31.09 31.09 0 0 0-2.81 6 10.8 10.8 0 0 0 .84 8c.92 1.74.83 1.85 2.63 1a15.5 15.5 0 0 0 6.36-5.48 7.64 7.64 0 0 0 1.41-3.25 47.91 47.91 0 0 0 0-6.34c-.08-1.76-.68-2.24-2.23-2.16zm-22.17 34.45c.76-.19 1.4-.37 2.05-.52 1.22-.29 2.47-.48 3.66-.85a1 1 0 0 0 .48-1.63 1.59 1.59 0 0 0-1.41-.51 20.9 20.9 0 0 0-2.62 1.25c-.79.37-1.63.64-2.41 1a1 1 0 0 0-.33.81c.01.2.41.33.58.45zM142.82 26.41a37.11 37.11 0 0 0 3.6 2.44 9.37 9.37 0 0 1 4 3.84 12.3 12.3 0 0 1 .87 11.31 4.75 4.75 0 0 1-.91 1.34c-1.31 1.51-2.43 3.28-4 4.42-2.35 1.69-4.59 3.69-7.77 4a44.88 44.88 0 0 0-6.24 1.24 4 4 0 0 1-4-1.18 1.41 1.41 0 0 0-2.09-.19c-.88.62-1.75 1.25-2.67 1.92a2.4 2.4 0 0 1-.69-2.67 2.56 2.56 0 0 0 .25-.83c0-2.62 0-5.24-.12-7.86-.06-2.12-.27-4.25-.32-6.37-.07-2.58 0-5.17-.06-7.75-.09-3.95-.26-7.9-.33-11.86a26.45 26.45 0 0 1 .22-6c.39-1.84.68-4 2.7-5a13.31 13.31 0 0 1 2.22-.68c1.39-.42 2.77-1.19 4.17-1.22a45.21 45.21 0 0 1 7.7.56 35.47 35.47 0 0 1 6.41 1.64c5.36 1.9 8 8.31 4.35 13.22-1.31 1.76-2.77 3.44-5 4.15a10.88 10.88 0 0 0-2.29 1.53zM130.31 49l1.28-.68c1.45-.73 2.86-1.54 4.34-2.16 2.73-1.14 5.52-2.12 8.25-3.26a2.75 2.75 0 0 0 1.18-4 11 11 0 0 0-5.43-4c-1.81-.59-3.62-1.18-5.44-1.72a5.78 5.78 0 0 0-1.85-.2 1.07 1.07 0 0 0-.8.59 34.66 34.66 0 0 0-.59 4c-.15 2-.12 4.09-.27 6.12-.13 1.65-.41 3.31-.67 5.31zm-.23-32.47h.2c.17 1.82.3 3.65.55 5.47 0 .42.56 1.13.81 1.11a14 14 0 0 0 3-.67c3-.94 5-3.29 7.14-5.32a1.62 1.62 0 0 0 .43-1.35c-.52-1.58-1.14-3.19-2.71-4-2.63-1.43-5.41-.9-8.16-.38a.88.88 0 0 0-.51.62c-.29 1.49-.51 2.99-.75 4.5zm18.6-1.59h-.38l-.23 2.47h.45a2.32 2.32 0 0 0 .16-2.49zM54.56 84.68c.39-.42.53-.5.54-.6.12-1.54.84-1.86 2.44-1.93 2-.1 4-1.08 6-1.52a12.67 12.67 0 0 1 3 0 11.78 11.78 0 0 1 2.59.24 26.23 26.23 0 0 1 5.21 1.69c1 .52 1.73 1.73 2.63 2.58 2.15 2 2.57 4.39 2.13 7.28a23.87 23.87 0 0 1-6.52 13.19 1.36 1.36 0 0 0 0 2.16c1.8 2 3.29 4 3.31 6.89 0 1.56.36 3.12.36 4.68a6.77 6.77 0 0 1-3 5.74 10 10 0 0 0-1.52 1.65c-1.55 1.72-3.25 3-5.8 2.76a28 28 0 0 0-3.86.26c-2.45.1-4.91.23-7.35.18-2 0-2.94-1.36-3-3.39-.15-3.06-.51-6.11-.8-9.17-.2-2.1-.45-4.2-.66-6.3-.28-2.81-.63-5.63-.8-8.45-.13-2 0-4.07 0-6.11 0-2.25-1.07-4.53-.18-6.71a16.47 16.47 0 0 0 .89-5.13c.09-1.16 2.35-2.8 3.45-2.68.26 0 .58.49.69.82a13.05 13.05 0 0 1 .25 1.87zm1.8 11.72h.14v7.63c0 1.4.56 1.56 1.84 1.14a36.69 36.69 0 0 1 5.16-1.28c1.62-.29 3.26-.47 4.49-1.69a20.81 20.81 0 0 0 5.28-9.61c.17-.65.29-1.66-.06-2a54.91 54.91 0 0 0-4.18-3.72.55.55 0 0 0-.37 0 25.78 25.78 0 0 1-3.25.41 14.57 14.57 0 0 0-7.81 2.69 2 2 0 0 0-.83 1.25c-.19 1.68-.28 3.43-.41 5.18zm3.85 27.91a10.55 10.55 0 0 0 8.71-3.42 6.85 6.85 0 0 0 .87-1.36c.87-1.62.1-3.22-.23-4.75-.42-1.91-2.08-2.89-3.69-3.74-.42-.21-1.27.19-1.53-.07-1-1-2.17-.46-3.2-.32-2.1.27-2.9 1.37-3.07 3.41a13 13 0 0 1-.79 2.79c-.15.47-.55.93-.52 1.38.11 1.86.31 3.72.57 5.57 0 .27.57.65.91.68a10.22 10.22 0 0 0 1.97-.17zM43.76 27.44c-.06-2.83.06-3.18 2.42-3.94A19.75 19.75 0 0 1 61 24.75a5.37 5.37 0 0 1 3.15 4.1c.26 1.59 1 3.1 1.28 4.69a18.1 18.1 0 0 1 .1 5.09c-.38 2.76-1 5.5-1.67 8.22a4.78 4.78 0 0 1-1.09 1.93c-2.57 3-4.31 6.52-6.4 9.83-2.48 3.93-5.44 7.55-8.26 11.27-.65.85-1.51 1.56-2.5.25-.12-.15-.46-.19-.7-.2-.92 0-1.18-.53-1.21-1.4a1.64 1.64 0 0 0-.7-1.17c-.21-.13-.76.27-1.12.5s-.44.55-.73.67c-.45.19-1.21.5-1.4.31a2 2 0 0 1-.41-1.5 15.48 15.48 0 0 0-.18-6.17c-.48-1.71-.19-3.64-.22-5.47-.05-2.24 0-4.49-.14-6.72s-.36-4.22.43-6.39a21.07 21.07 0 0 0 .67-5.32c.29-3.24.54-6.49.84-9.73a4.72 4.72 0 0 1 .49-1.23 9.29 9.29 0 0 0 1 .63 13.35 13.35 0 0 0 1.53.5zm1.7 37.06c1.54-1.37 2.92-2.5 4.16-3.88a44.48 44.48 0 0 0 3.38-4.3c1.09-1.51 2.05-3.11 3.06-4.69.26-.42.46-.89.71-1.32 2.7-4.65 4.9-9.47 4.34-15A4.18 4.18 0 0 0 60 32.65a41.16 41.16 0 0 0-4.75-3.09c-.28-.18-.61-.27-.9-.43-1.65-1-3.47-1-5.31-1.12-2.54-.2-2.82 0-2.88 2.53 0 1.33-.06 2.65-.16 4-.22 2.89-.48 5.78-.71 8.67-.18 2.22-.39 4.44-.49 6.66a41.3 41.3 0 0 0 0 4.85c.08 1.18.5 2.34.57 3.52.09 1.65 0 3.31 0 5 .03.33.07.76.09 1.26zM198.23 101.38c-1 .85-1.75 1.62-2.62 2.3-4.17 3.23-6.41 7.83-8.74 12.35-1.15 2.21-2 4.58-3 6.85-.75 1.64-2.13 1.78-3.82 1.38-2.3-.55-2.54-1.75-2.43-3.82.26-5.29.23-10.58.27-15.87 0-.78-.26-1.55-.31-2.33a9.55 9.55 0 0 1 .07-1.85c0-.14.46-.23.47-.36a50.89 50.89 0 0 0 .1-7A7.35 7.35 0 0 1 179 89a1 1 0 0 1 1.86 0c1 1.55 2 1.59 3.25.2a2.34 2.34 0 0 1 1.21-.77 1.51 1.51 0 0 1 1.26.45 1.42 1.42 0 0 1 0 1.33c-2.1 2.57-1.57 5.52-1.49 8.47.07 2.78-.23 5.57-.36 8.35 0 .58-.07 1.15-.1 1.73l.43.12a7.36 7.36 0 0 0 .66-1c.59-1.29 1-2.65 1.73-3.87a25 25 0 0 1 2.67-3.86 23.57 23.57 0 0 1 3.4-3.3c2-1.58 4.31-1.21 6.58-.63a8.77 8.77 0 0 0 .94.33 7.4 7.4 0 0 1 5.67 5.23 7 7 0 0 1-2.34 6.23c-1.41 1-3 .43-3.11-1.2a6.52 6.52 0 0 0-2.32-4.53 6.11 6.11 0 0 1-.71-.9z" fill="#fff"/><path d="M174.46 93.12c.61 4.67-2.19 7.52-5.47 10a7.93 7.93 0 0 1-3.41 1.14 28 28 0 0 1-4.2.3c-.72 0-1.24.15-1.31 1a1.3 1.3 0 0 1-.15.6c-1.38 1.76-.31 3 .86 4.25a8.76 8.76 0 0 0 1.62 1.55 8.39 8.39 0 0 0 2.47.93 51.48 51.48 0 0 1 5.48 1c1.77.59 2.12 2.68.93 4.15a6.06 6.06 0 0 1-7.35 2.12c-1.15-.47-2.57-1-2.68-2.8 0-.44-.95-1.12-1.51-1.17-2.46-.22-3.49-2-4.2-3.89-1.35-3.61-1.54-7.42-1.83-11.25-.28-3.65.76-6.93 1.81-10.25a4.7 4.7 0 0 1 1.57-2.06 18.4 18.4 0 0 1 8-4.11 7.29 7.29 0 0 1 4.54.73 7.68 7.68 0 0 1 4.08 4 23.92 23.92 0 0 1 1.09 3.7zm-6.9 2.78c0-2-1.19-4-2.75-4.12s-3.81.22-4.35 2.82a16.51 16.51 0 0 0-.29 3.65c0 .38.58 1.07.88 1.07a23.07 23.07 0 0 0 4.14-.42c1.81-.37 2.32-1.2 2.37-3zM103.45 93.54c0 2.83.16 5.68 0 8.5-.23 3.15-.86 6.28-1.15 9.43a13.15 13.15 0 0 1-2.53 5.9c-1 1.58-3 2.26-4.79 2.7a42.3 42.3 0 0 1-4.32.72 3.71 3.71 0 0 1-3.88-1.41c-.93-1.29-2.33-2.34-2.9-3.74-1-2.44-2-5-1.76-7.73.17-1.91.2-3.85.51-5.74.68-4.14 1.3-8.33 3.75-11.93a5.4 5.4 0 0 1 .71-.87c1.25-1.26 2.5-.75 3.31.78 1.42 2.69.64 5.2.06 7.85-.79 3.66-1.92 7.3-1.43 11.12a9.24 9.24 0 0 0 .41 1.82c.78 2.19 1.86 2.52 4 1.69 2.88-1.11 3.88-3.25 4-6.12.07-1.58.39-3.15.57-4.72.31-2.65.6-5.29.89-7.94a4.21 4.21 0 0 1 2.43-2.95 1.62 1.62 0 0 1 2.11 1.51v1.13zM106.44 118.54v-10.36c0-3.82.09-7.65.12-11.47a2.35 2.35 0 0 0-.2-.81c-.24-.67-.76-1.34-.73-2 .07-1.89.36-3.78.55-5.66 0-.46-.11-1 .08-1.35a4.83 4.83 0 0 1 1.35-1.89c.81-.52 1.6 0 2.15.72a3.75 3.75 0 0 1 .7 3.34 18.59 18.59 0 0 0 .06 5.21c0 .37.56.7.86 1 .26-.35.66-.66.76-1a10.06 10.06 0 0 1 3.23-5.53 20.25 20.25 0 0 1 8-4.19c3.21-.71 5.92.44 8.32 2.45 1.12.94.8 1.74-.44 2.47-2.07 1.22-4.35 1.55-6.6 2.15a10.15 10.15 0 0 0-5.21 3.69c-1.44 1.83-2.91 3.66-4.25 5.56a11.83 11.83 0 0 0-2.13 5.63c-.45 4.68-.79 9.38-1.24 14.06-.17 1.77-1 2.1-2.39 1.13-.15-.1-.42-.22-.55-.15-1.49.76-1.82-.33-2.17-1.35-.19-.54-.32-1.1-.48-1.65zM90.36 44l-2 2a20.74 20.74 0 0 1-8.62 5.3c-1.63.49-4-1-4.5-2.66a9.86 9.86 0 0 1 .22-5.64c.57-1.87.69-3.86 1.21-5.74.44-1.59 1.23-3.08 1.79-4.64 1.48-4.09 4.94-6.41 8.1-8.93 1.69-1.35 3.71-1.42 5.9-.53a5 5 0 0 1 3.35 4.75c0 .36.27.91.55 1 .94.36.76.94.65 1.71-.17 1.21 0 2.46-.15 3.68-.52 4.81-1.09 9.61-1.65 14.42-.15 1.26-.32 2.52-.55 3.77a1.27 1.27 0 0 1-1.54 1.1 11.33 11.33 0 0 0-1.6.21c-1.33.13-1.62-.38-1.82-1.65a15.15 15.15 0 0 1 .81-6.49 10.1 10.1 0 0 0 .19-1.45zm1.3-16.6c-1.28.3-2.21.46-3.11.75-.62.2-1.43.41-1.74.88-1.72 2.65-4.32 4.53-5.9 7.39a20.48 20.48 0 0 0-2.28 7.94c-.12 1.18.45 1.69 1.64 1.68 1.66 0 2.58-1.17 3.55-2.27.62-.71 1.29-1.38 2-2 1-1 2.3-1.81 2.93-3a30.17 30.17 0 0 0 2.43-6.27 30.1 30.1 0 0 0 .48-5.07zM205.06 36.51c1.08.35 2.59.75 4 1.34 1 .41.94 1.43.94 2.38a5.83 5.83 0 0 0 .31 2.37 23.87 23.87 0 0 1 2.42 9.4c0 .56.37 1.13.35 1.68a9.7 9.7 0 0 1-.4 3.34 7.88 7.88 0 0 1-2 2.75c-1.32 1.23-3.12.64-4.69.9a10.88 10.88 0 0 1-4.53.15c-2-.56-4.37-.42-5.71-2.54a8.71 8.71 0 0 0-1.42-1.56 9.71 9.71 0 0 1-3-6.68 31 31 0 0 1 .53-6.28c.5-3.52 4.41-6 7.65-6.36 1.66-.23 3.34-.55 5.55-.89zm3.66 14.64c-.35-1.45-.77-3.22-1.2-5a5.4 5.4 0 0 0-2.3-3.71 4.6 4.6 0 0 0-4.57-.57 4.81 4.81 0 0 0-3.1 4.19c-.07 2-.06 4-.06 6a3.74 3.74 0 0 0 3.06 3.86c.64.16 1.27.38 1.91.57 2.75.83 4.84.05 5.73-2.26a17.18 17.18 0 0 0 .53-3.08zM177.3 34c.48 2.4.92 4.81 1.47 7.19a1.36 1.36 0 0 0 2 1c1.58-.52 3.15-1 4.69-1.67 1.14-.46 2-.17 2.32 1a6.83 6.83 0 0 1 .31 2.09 1.55 1.55 0 0 1-.71 1c-.94.6-2 1.09-2.93 1.62a4.22 4.22 0 0 1-.7.27c-.58.17-1.5.15-1.69.52a6.72 6.72 0 0 0-.76 2.85 10.76 10.76 0 0 0 1.38 4.73 35.32 35.32 0 0 1 1.69 5.7 10.39 10.39 0 0 1 .29 2.22 2.23 2.23 0 0 1-.29 1.07 11.36 11.36 0 0 1-3.1-.51c-.4-.15-.53-1-.73-1.63a7 7 0 0 0-.52-1.68c-.67-.93-1.38-1.79-1.18-3a.47.47 0 0 0-.05-.36c-1.77-1.8-1.28-4.4-2.28-6.49-.42-.88-.83-1.25-1.68-.82s-1.51 1-2.33 1.41a4.13 4.13 0 0 1-2.28.55c-1.39-.31-1.7-1.37-.85-2.59.54-.78.76-1.32 0-2.13s-.27-1.66.82-1.79c2.79-.34 3.38-.37 2.75-4.24a31 31 0 0 1-.25-9.06c.46-3.37 2.88-5.63 6.07-6.88a2.56 2.56 0 0 1 1.83 0 30.65 30.65 0 0 1 3.75 2.2 1 1 0 0 1 .17 1 1.76 1.76 0 0 1-1.15.5c-.82 0-1.64-.2-2.46-.22a1.28 1.28 0 0 0-1 .39c-1.18 1.76-2.61 3.42-2.6 5.76zM242.69 72.71l-1.62-2.38c-.12-.17-.34-.34-.35-.51 0-.69-.2-1.81.12-2 .93-.52 1.16.48 1.51 1.13a9.14 9.14 0 0 0 .9 1.33c.55.71 1.13 1.4 1.72 2.09.17.2.41.5.61.49a.94.94 0 0 0 .62-.52c.5-1.38.92-2.79 1.45-4.16.15-.39.61-1 .9-.93a1.34 1.34 0 0 1 1 .87 4.5 4.5 0 0 1-.14 2.45 17.45 17.45 0 0 1-2.31 3.53c-.53.64-.46 1 .06 1.44a4.39 4.39 0 0 0 .86.71c1.57.77 1.68 2.21 1.91 3.68.31 2-.44 3.76-.79 5.6-.48 2.46-2.49 3.5-4.64 4.29-.9.33-1.78.72-2.7 1-2.46.74-3.44 2.72-4.21 4.88-.36 1-.63 2.08-1 3.09-.57 1.51-1.68 1.8-3.24 1.45a20.77 20.77 0 0 0-5.64-.66c-2.16.1-3.16 2-3.77 3.74a49.86 49.86 0 0 0-1.53 6.44 8.07 8.07 0 0 1-7.76 6.55 9.1 9.1 0 0 1-6.83-2.15c-.83-.7-2.61-.53-3.83.41a36.46 36.46 0 0 0-2.73 2.55c-.5.48-1 1.25-1.76.65a1.26 1.26 0 0 1-.05-2.15 47.51 47.51 0 0 1 5.23-4.19c1.56-1 3.2-.69 4.74.56 2.48 2 5.41 1.8 8.21 1a3.69 3.69 0 0 0 2.4-3.14c.48-3.22 1-6.44 2.75-9.29a7 7 0 0 1 6.38-3.67c1.58 0 3.27-.2 4.69.93.11.09.9-.34 1-.67.68-1.57 1.27-3.16 1.82-4.77a5.14 5.14 0 0 1 3-3.21c2.06-.91 4.15-1.75 6.17-2.74A3 3 0 0 0 247 85a9.5 9.5 0 0 0 .26-5.89c-.72-3.56-3.16-4-6.46-3a4.11 4.11 0 0 1-1.67.37 1.68 1.68 0 0 1-1.16-.92 1.56 1.56 0 0 1 .51-1.35c.93-.64 1.81-1.54 3.16-1.19.26.04.59-.17 1.05-.31zM38.32 117.23a20 20 0 0 1-3-1 36.52 36.52 0 0 0-9.51-3.77 3.93 3.93 0 0 1-1.69-1 11.56 11.56 0 0 1-3.91-7c-.41-2.33-.74-2.46-3.08-2.9-2-.37-4.07-.3-5.68-1.93-1.29-1.3-2.18-2.71-1.9-4.54.33-2.13.87-4.23 1.3-6.34.33-1.61 1.16-3.22 0-4.82a1.42 1.42 0 0 0-1-.58 26.32 26.32 0 0 0-4 .16 30.55 30.55 0 0 0-3.6.9c-.27.07-.56.37-.79.33A3.3 3.3 0 0 1 0 84.2c-.1-.12.12-.94.4-1.2 1.41-1.42 3.31-1.63 5.16-2 .36-.07.76 0 1.12-.06s.59-.25.64-.45-.21-.51-.41-.65c-.62-.44-1.31-.76-1.89-1.23-.3-.24-.41-.71-.61-1.08.45-.21.91-.63 1.34-.6a17.44 17.44 0 0 1 2.3.55c.64.13.94-.17 1.07-.86a36.37 36.37 0 0 1 1-4.24 1.22 1.22 0 0 1 1.09-.48A1.34 1.34 0 0 1 12 73a55.9 55.9 0 0 1-.77 5.77 1.92 1.92 0 0 0 .38 2 6.88 6.88 0 0 1 1.73 6.71c-.61 2.34-1.08 4.71-1.51 7.09a3.15 3.15 0 0 0 2.64 4 19.74 19.74 0 0 0 3.19.62c2.67.17 4 2.1 4.68 4.5a12.5 12.5 0 0 0 1.66 4.18 7.45 7.45 0 0 0 3.38 2.13c2.9 1 5.86 1.8 8.48 3.47a8.85 8.85 0 0 0 2 .92c.41.13 1 .24 1.3 0 1.06-.91 2.25-.6 3.35-.41.51.09.92.78 1.38 1.2-.42.42-.77 1.07-1.26 1.21a41.67 41.67 0 0 1-4.31.84zM107.08 17.64c-.06.86-.12 1.56-.17 2.27-.26 4-.49 8.06-.8 12.09q-.42 5.36-1 10.7c-.12 1.14-.62 2.23-.75 3.37a35 35 0 0 0-.37 5.59c.07 1.43 1.42 2.28 3 2.5.58.08 1.46.34 1.61.73a1.75 1.75 0 0 1-.95 2.2 7.18 7.18 0 0 1-6.48.69 2.18 2.18 0 0 1-1-1.63c-.06-2.24.07-4.48.11-6.73 0-.33-.06-.66-.08-1-.1-1.21-.3-2.42.63-3.45a1.64 1.64 0 0 0 .22-.95c.28-4.92.46-9.84.84-14.74.22-2.95.74-5.87 1.14-8.79.17-1.19.36-2.38.6-3.56a1.76 1.76 0 0 1 .55-1.1 6.12 6.12 0 0 1 2.13-.8c.13 0 .48 1 .64 1.5a5.38 5.38 0 0 1 .13 1.11zM220.59 60.87c-1.1-.82-2.5-.67-3.39-2.46a11.19 11.19 0 0 1-1.39-6.68c.42-2.88-.59-5.37-1.36-8-.53-1.84-.89-3.73-1.3-5.6a1.51 1.51 0 0 1 1-1.92 7.71 7.71 0 0 1 2.08-.38c.85 0 1.17.47 1.32 1.32.26 1.45.69 2.88 1.09 4.31 0 .15.32.37.43.34s.47-.25.5-.43c.55-3.34 2.79-3.71 5.66-3.56a8.61 8.61 0 0 1 6.09 3c.77.82.47 1.7-.84 2.84a1.23 1.23 0 0 1-2-.2 2.18 2.18 0 0 0-3.21.19c-1.53 1.53-3 3.08-4.49 4.67-1.25 1.35-1 3.15-1 4.74a28.86 28.86 0 0 0 .91 4.88c.16.88.26 1.77.39 2.66zM73.43 34.7c-.36 3.73-.78 7.46-1.05 11.19-.18 2.49-.15 5-.18 7.49a27.33 27.33 0 0 1 0 2.86 1.72 1.72 0 0 1-.9 1.18 1.53 1.53 0 0 1-1.25-.49 3 3 0 0 0-2-1.1 1.65 1.65 0 0 1-1.37-1.95c.42-5.51.8-11 1.29-16.54a11.77 11.77 0 0 1 2.63-6c.37-.48 1.15-.64 1.75-1a8.18 8.18 0 0 1 .88 1.91 10.5 10.5 0 0 1-.09 2.37zM162.27 67.56c.14.58.42 1.48.58 2.4.51 2.9-1.13 4.78-3.29 6.19a8.77 8.77 0 0 1-5.56 1.68 2.8 2.8 0 0 0-1.12 0 3.13 3.13 0 0 1-3.25-.64c-2.06-2-4.66-3.58-5-6.85a4.88 4.88 0 0 1 2.36-4.81c1.47-.89 2.92-1.82 4.39-2.72a1.71 1.71 0 0 1 .82-.28c2 0 4.09 0 6.11.21a4.89 4.89 0 0 1 3.96 4.82zm-1 1.94v-.76c.15-3.28-1.66-4.75-4.48-4.68-1.12 0-2.25 0-3.37.06a6.8 6.8 0 0 0-7 5.75 2.27 2.27 0 0 0 .89 2.52 15.24 15.24 0 0 1 3 2.78 2.75 2.75 0 0 0 2.52 1.29 9.76 9.76 0 0 0 3.26-.71c2.77-1.23 5.58-2.46 5.19-6.25zM112.86 70.73c.36 3.8-1.64 6.4-4.54 8.32a11.1 11.1 0 0 1-3.92 1.14 29 29 0 0 1-3.11.31 1.16 1.16 0 0 1-.49 0c-1.32-.47-2.66-.92-3.94-1.48a12.69 12.69 0 0 1-1.92-1.18c-.66-.43-1.76-.78-1.88-1.33-.39-1.79-.64-3.55 1-5.16 2.58-2.45 5.31-4.57 8.77-5.51a4.24 4.24 0 0 1 2.49.13c1.2.45 2.28 1.21 3.45 1.77a9.42 9.42 0 0 0 2.2.77 2.06 2.06 0 0 1 1.89 2.22zm-12 8c1.3-.15 2.46-.34 3.63-.39a6.85 6.85 0 0 0 5.36-2.81 13.29 13.29 0 0 0 1.56-3.53c.4-1.08-.79-1.32-1.26-1.92-1.38-1.8-3.64-2.15-5.49-3.19a.58.58 0 0 0-.37 0c-3.34.58-6.34 1.84-8.49 4.59-1.84 2.35-1.61 3.55.39 5.79 1.39 1.59 3.24.73 4.62 1.42zM201.46 90c.55-1.9 1-3.85 1.7-5.69a1.64 1.64 0 0 1 2.42-1c2.18.91 2.65 1.48 2.13 3s-1.3 3.24-2 4.84a2.21 2.21 0 0 1-.71 1 3.67 3.67 0 0 1-2 .69c-.45-.06-.88-.84-1.16-1.38a3.9 3.9 0 0 1-.22-1.35zM120.67 6.53a3.93 3.93 0 0 1-.16 1c-.22.45-.5 1.18-.81 1.21a1.79 1.79 0 0 1-1.46-.68c-.86-1.54-1.56-3.17-2.31-4.78a6.11 6.11 0 0 1-.68-1.72 2.14 2.14 0 0 1 .42-1.53c.18-.2.91 0 1.37.16a2.92 2.92 0 0 1 2 2.35 22.68 22.68 0 0 0 1.24 2.71 11.65 11.65 0 0 1 .39 1.28zM156.55 4.37a18.67 18.67 0 0 1-1.31 2.3 11.1 11.1 0 0 1-2.08 2.14 1.74 1.74 0 0 1-1.57 0c-.42-.29-.93-1.11-.79-1.48a32.91 32.91 0 0 1 2.34-5.21c.7-1.2 1.5-1.07 2.28.16l1.13 2.09zM205.73 93.3a24.65 24.65 0 0 1 2.27-2.58 22.79 22.79 0 0 1 3.1-2.1 1.25 1.25 0 0 1 1.83.49 1.21 1.21 0 0 1-.27 1.74 8 8 0 0 0-1.37 2.05 3.23 3.23 0 0 1-4.53 1.66c-.38-.19-.59-.7-1.03-1.26zM159.62 10c0 1.61-2.09 3.85-3.66 3.64a3.27 3.27 0 0 1-2-1.51c-.25-.4.12-1.45.54-1.92a9.28 9.28 0 0 1 2.64-2 1.8 1.8 0 0 1 2.48 1.79zM36.66 86.61c.1-.14.32-.85.65-.9a1.73 1.73 0 0 1 1.49.54 8 8 0 0 1 .92 2.66c.25 1.4.27 2.79 1.84 3.57.8.39.78 1.24.16 1.92s-1.13.34-1.65-.23c-2.18-2.41-3.4-4.95-3.41-7.56zM43.67 84.74a34.55 34.55 0 0 1 .14 3.66 1.89 1.89 0 0 1-.81 1.35 1.45 1.45 0 0 1-1.33-.5 9 9 0 0 1-1-2.64 7.07 7.07 0 0 1 0-2.34c.1-.86.52-1.5 1.56-1.4 1.15.13 1.65.63 1.44 1.87zM118.58 10.74c-.36.45-.61 1.07-1 1.2a2 2 0 0 1-1.59-.26c-.9-.63-1.65-1.47-2.51-2.16s-.65-3.3.49-3.71a1.21 1.21 0 0 1 1 .35c1 1.06 1.9 2.18 2.82 3.31a12.23 12.23 0 0 1 .79 1.27zM72.71 22.88c.15.18.62.5.72.9.36 1.5-.55 2.52-1.56 3.41a7.15 7.15 0 0 1-1.62.92c-1.25.58-1.59.32-1.53-1.11a4.42 4.42 0 0 1 3.99-4.12z" fill="#fff"/><path d="M161.28 69.5v-.76c.15-3.28-1.66-4.75-4.48-4.68-1.12 0-2.25 0-3.37.06a6.8 6.8 0 0 0-7 5.75 2.27 2.27 0 0 0 .89 2.52 15.24 15.24 0 0 1 3 2.78 2.75 2.75 0 0 0 2.52 1.29 9.76 9.76 0 0 0 3.26-.71c2.76-1.23 5.57-2.46 5.18-6.25zM153 71.78c-1 0-2.53-.93-2.58-1.61-.09-1.3 1.36-2.22 3.56-2.25a1.66 1.66 0 0 1 1.8 1.51c.05 1.12-1.39 2.33-2.78 2.35zM110.15 70.12c-1.38-1.8-3.64-2.15-5.49-3.19a.58.58 0 0 0-.37 0c-3.34.58-6.34 1.84-8.49 4.59-1.84 2.35-1.61 3.55.39 5.79 1.39 1.55 3.24.69 4.62 1.38 1.3-.15 2.46-.34 3.63-.39a6.85 6.85 0 0 0 5.36-2.81 13.29 13.29 0 0 0 1.61-3.49c.4-1-.79-1.28-1.26-1.88zm-4.61 2.25c-.21 1.27-2.39 2.87-3.72 2.89-1.54 0-2.21-1-1.53-2.39s3.19-2.44 4.6-1.7a1.46 1.46 0 0 1 .65 1.2z" fill="#fff"/><path d="M184.16 76.63c-1.74-1.09-4.07-1.06-6-1.7a53.55 53.55 0 0 1-6.33-2.71c-1.87-.9-3.75-1.8-5.7-2.52s-4-1.78-6-2.65c-2.87-1.24-6.18-1.35-9.27-1.59-3.29-.24-6.59-.38-9.9-.47q-7.74-.21-15.5-.1c-2.31 0-4.61.3-6.91.48-4.43.35-9.13.4-13.3 2.1-2.1.86-3.93 2.15-6.13 2.8s-4.44 1.29-6.6 2.13a46.85 46.85 0 0 0-11.44 6c-1.24 1-2.23 2.38-1.53 4a4.15 4.15 0 0 0 3.19 2.19c3 .48 6.16-.08 9.16-.15a30.94 30.94 0 0 1 3.6.24 21.64 21.64 0 0 0 4.47-.24c1.53-.16 3.09-.12 4.61-.32 2.57-.32 5.08-.92 7.67-1.15a102.61 102.61 0 0 1 14.67 0 49.45 49.45 0 0 0 7.3.24c2.36-.24 4.54-1.08 6.95-1.14s4.78.22 7.17.31c2.56.11 5.13.08 7.69 0s5-.34 7.5-.26a42.42 42.42 0 0 1 6.73.94c3.84.76 17.42 3.73 15.07-4.4a3.87 3.87 0 0 0-1-1.87c-.74-.61-1.81.45-1.06 1.07a2.84 2.84 0 0 1-.37 4.32c-1.67.88-4.19.62-6 .46a59.59 59.59 0 0 1-6.21-1 51 51 0 0 0-6-.92 56.09 56.09 0 0 0-6.61.12c-4.69.19-9.32.07-14-.17a25.77 25.77 0 0 0-6.33.29c-1 .2-2 .55-3 .72a17 17 0 0 1-3.7.06c-4.57-.27-9.14-.55-13.72-.46-2.24 0-4.48.18-6.7.44s-4.61 1-6.92 1.07c-1.4.08-2.77.14-4.17.28a18.42 18.42 0 0 1-4 .2 46.11 46.11 0 0 0-8 0 30.41 30.41 0 0 1-4 0 3.6 3.6 0 0 1-1.85-.6c-1.19-.85-.83-2 .15-2.8a30.06 30.06 0 0 1 5.29-3.23 53.36 53.36 0 0 1 6.06-2.76c2-.75 3.93-1.36 5.94-1.93a31 31 0 0 0 5.6-2.46c3.9-2 8.42-2.08 12.69-2.42 2.53-.2 5.07-.52 7.6-.56q6.56-.1 13.1 0a158.9 158.9 0 0 1 17.85 1A16.2 16.2 0 0 1 161 69.1c1.75.87 3.5 1.58 5.33 2.29 3.81 1.47 7.34 3.62 11.23 4.93a20.24 20.24 0 0 0 2.67.73 9.36 9.36 0 0 1 3.17.88c.83.51 1.6-.79.76-1.3zM80.71 134c-.18 2.65.93 6.76 3.89 7.54a11.33 11.33 0 0 0 3.08.13l3.42-.05c2.63 0 5.27-.08 7.9 0a56.45 56.45 0 0 1 6.37.57 99.82 99.82 0 0 0 12.35.3c4.21 0 8.43.05 12.64 0 4-.11 8-.74 12.18-1.1 5.24-.47 10.48-.88 15.73-1.15 2.07-.11 4.15-.19 6.23-.18 2.77 0 8.06.36 8.62-3.31.45-2.88.24-7-2.58-8.64-1.38-.82-2.95-.62-4.46-.39-2.11.32-4.21.64-6.32.92-8.53 1.16-17.12 1.94-25.72 2.36s-17 .45-25.5.17a30 30 0 0 0-5.69.18c-2.06.32-4 1.09-6.14.85-1.89-.21-3.7-.88-5.6-1.09a16.34 16.34 0 0 0-5.22.27 16.64 16.64 0 0 0-4.89 1.76.75.75 0 0 0 .76 1.3 15 15 0 0 1 10.59-1.76 33.61 33.61 0 0 0 4.76.92 21.25 21.25 0 0 0 5.42-.83c3.82-.74 8-.16 11.83-.1s7.86.06 11.79 0q11.79-.27 23.53-1.46 5.72-.57 11.41-1.37c1.79-.25 3.57-.53 5.35-.79 2.16-.31 4 0 4.85 2.25a10.4 10.4 0 0 1 .28 5.31c-.48 2-4.56 1.83-6.18 1.83-2 0-4 0-6.05.12-4.85.22-9.71.59-14.55 1-3.36.29-6.72.55-10.06 1a86.11 86.11 0 0 1-10.16.37H112.8c-2 0-4 0-6-.15-1.42-.12-2.8-.46-4.22-.58-2.36-.21-4.76-.16-7.12-.14-2.58 0-5.16.07-7.73.11-1.19 0-2.6.23-3.57-.57-1.55-1.29-2-3.7-1.89-5.6.06-1-1.44-1-1.51 0z" fill="#fff"/><path d="M136.75 73.78l.06-.3-3.3 4.35c.08.46.72.61 1.14.4a3.69 3.69 0 0 0 1-1 3.93 3.93 0 0 1 1.45-1c.17-.07.37-.14.44-.32a.65.65 0 0 0-.07-.45z" fill="#fff"/><path d="M137.12 73.88l.06-.3a.38.38 0 0 0-.69-.29l-1.94 2.55-1 1.27c-.15.19-.42.43-.45.67a.75.75 0 0 0 .22.55 1.16 1.16 0 0 0 1 .36 1.6 1.6 0 0 0 1.06-.55c.31-.31.56-.67.9-1a3.75 3.75 0 0 1 1.08-.62.82.82 0 0 0 .46-1.21c-.23-.56-.47-1.11-.7-1.67a.39.39 0 0 0-.47-.26.38.38 0 0 0-.26.46l.41 1 .2.47a1.54 1.54 0 0 1 .17.45s-.1.06-.13.07l-.44.19a5 5 0 0 0-.73.46c-.44.35-.73.82-1.15 1.19-.19.17-.77.43-.86 0v.29l3.3-4.35-.69-.29-.06.3c-.11.53.59.74.71.26zM130.77 69.83l.11.35a1.17 1.17 0 0 0 1.11 1 3.55 3.55 0 0 0 1.59-.36 2.51 2.51 0 0 0-2.81-.99z" fill="#fff"/><path d="M130.41 69.93l.07.25v.1c0 .02 0-.08 0 0v.12a.36.36 0 0 0 0 .11 1.44 1.44 0 0 0 .7.87 2.73 2.73 0 0 0 2.44-.14.39.39 0 0 0 .23-.55 2.9 2.9 0 0 0-3.24-1.18.38.38 0 0 0-.26.46.37.37 0 0 0 .46.26h.85s.09 0 0 0h.1a1.61 1.61 0 0 1 .36.1h.08c.11 0 0 0 0 0l.16.08a2.14 2.14 0 0 1 .32.2l.08.07.13.12a1.78 1.78 0 0 1 .21.27l.22-.56a5.24 5.24 0 0 1-1.08.35h-.31a1.11 1.11 0 0 1-.35-.13.48.48 0 0 1-.12-.08l-.09-.08s-.07-.09 0 0a1.29 1.29 0 0 1-.09-.16v-.06c0-.06 0-.11 0 0a2.7 2.7 0 0 0-.12-.49.37.37 0 1 0-.72.2zM120.19 69.06l-.08.18a2.62 2.62 0 0 0 0 1.36.9.9 0 0 0 1.05.65.91.91 0 0 0 .33-1.32 2.57 2.57 0 0 0-1.3-.87z" fill="#fff"/><path d="M119.82 69l-.06.15a1.94 1.94 0 0 0-.07.33 2.71 2.71 0 0 0 0 .94 1.45 1.45 0 0 0 1 1.24 1 1 0 0 0 1.23-.56 1.42 1.42 0 0 0-.09-1.34 3 3 0 0 0-1.46-1 .38.38 0 0 0-.47.26.38.38 0 0 0 .27.46h.06l.14.06.28.14.23.15c.09 0 0 0 0 0h.06l.06.17s0 .06 0 0v.05c0 .06 0 0 0 0a.26.26 0 0 1 0 .12v.1c0 .01 0-.06 0 0v.12c0 .04 0 0 0 0V70.56c0 .04 0 0 0 0v.08s.06-.06 0 0 .05 0 0 0-.06 0 0 0h-.1c-.09 0 .07 0 0 0h-.22c-.05 0 0 0 0 0a1.14 1.14 0 0 0-.11-.11l-.06-.11s0 .07 0 0a.14.14 0 0 1 0-.07 1.33 1.33 0 0 1 0-.19v-.12a1.27 1.27 0 0 1 0-.2 2.21 2.21 0 0 1 0-.35 2 2 0 0 1 .13-.42.38.38 0 0 0-.26-.46.39.39 0 0 0-.56.39zM119.49 76.3a2.17 2.17 0 0 1 .33.19z" fill="#fff"/><path d="M119.3 76.62l.33.2a.45.45 0 0 0 .19.05.37.37 0 0 0 .15 0 .25.25 0 0 0 .12-.08.37.37 0 0 0 .1-.17v-.1a.28.28 0 0 0 0-.15.18.18 0 0 0 0-.08.32.32 0 0 0-.1-.1l-.3-.14a.33.33 0 0 0-.14 0 .38.38 0 0 0-.15 0l-.13.07a.36.36 0 0 0-.1.11v.09a.67.67 0 0 0 0 .2v.09a.44.44 0 0 0 .14.13l.3.14-.17-.43.55-.22-.33-.2a.33.33 0 0 0-.14 0 .38.38 0 0 0-.15 0l-.13.07a.36.36 0 0 0-.1.11v.09a.67.67 0 0 0 0 .2v.09a.44.44 0 0 0 .06.03z" fill="#fff"/><path d="M119.82 76.49a4.06 4.06 0 0 0-.07 1.43 1.32 1.32 0 0 0 .9 1.06.41.41 0 0 0 .45-.12.53.53 0 0 0 0-.33 3.08 3.08 0 0 0-1.28-2.04z" fill="#fff"/><path d="M119.46 76.39a4 4 0 0 0 0 1.72 1.78 1.78 0 0 0 .82 1.11 1.12 1.12 0 0 0 .76.13.67.67 0 0 0 .53-.65 2 2 0 0 0-.13-.72 4.11 4.11 0 0 0-.28-.65 3.49 3.49 0 0 0-1.1-1.16.37.37 0 0 0-.51.13.39.39 0 0 0 .13.52l.11.07h.06l.2.18a2 2 0 0 1 .31.37 2.64 2.64 0 0 1 .27.46c0 .06 0 0 0 0s0 .09.05.13a2 2 0 0 1 .07.26v.18-.05s-.07 0 0 0h-.14l-.11-.07c-.06 0 0 0 0 0l-.08-.09c-.08-.08 0 0 0 0a.82.82 0 0 1-.12-.2v-.07s0 .05 0 0v-.14a3.09 3.09 0 0 1 0-1.35.39.39 0 0 0-.27-.46.38.38 0 0 0-.57.35zM112.18 79h.21a.5.5 0 0 0-.21 0z" fill="#fff"/><path d="M112.18 79.34h.21a.26.26 0 0 0 .15 0 .24.24 0 0 0 .12-.07l.06-.08a.23.23 0 0 0 0-.14.17.17 0 0 0 0-.1.23.23 0 0 0 0-.14l-.06-.08a.35.35 0 0 0-.17-.09.71.71 0 0 0-.21 0h-.2a.27.27 0 0 0-.13.07.27.27 0 0 0-.1.11.21.21 0 0 0 0 .14.26.26 0 0 0 0 .15v.09a.35.35 0 0 0 .14.13h.09a.34.34 0 0 0 .2 0h-.1.08l.1-.74h-.21a.37.37 0 0 0-.15 0 .37.37 0 0 0-.2.2.33.33 0 0 0 0 .15v.1a.39.39 0 0 0 .1.16l.08.06a.38.38 0 0 0 .2.08zM112 79h.21z" fill="#fff"/><path d="M111.87 79.33a.26.26 0 0 0 .15 0H112.19a.29.29 0 0 0 .12-.07.32.32 0 0 0 .1-.1v-.09a.38.38 0 0 0 0-.15.17.17 0 0 0 0-.1.25.25 0 0 0-.08-.12l-.07-.06a.45.45 0 0 0-.19 0H112a.28.28 0 0 0-.15 0 .37.37 0 0 0-.12.07.57.57 0 0 0-.08.13.32.32 0 0 0 0 .14v.1a.4.4 0 0 0 .09.17l.08.06a.41.41 0 0 0 .19 0h.21l-.1-.74H112h.2-.09a.26.26 0 0 0-.15 0 .24.24 0 0 0-.14.05.24.24 0 0 0-.11.09.31.31 0 0 0-.06.13v.1a.41.41 0 0 0 0 .19l.06.08a.35.35 0 0 0 .16.12z" fill="#fff"/><path d="M113.35 79.34l-1.29-.34a.91.91 0 0 0-.6.87 1.11 1.11 0 0 0 1 1 1.5 1.5 0 0 0 1.3-.57.61.61 0 0 0 .17-.56c-.1-.26-.36-.34-.58-.4z" fill="#fff"/><path d="M113.45 79l-.92-.24a2 2 0 0 0-.47-.11.75.75 0 0 0-.47.21 1.27 1.27 0 0 0-.37 1.55 1.53 1.53 0 0 0 1.29.83 1.89 1.89 0 0 0 1.48-.67 1 1 0 0 0 .22-1.07 1.14 1.14 0 0 0-.76-.5.4.4 0 0 0-.47.27.38.38 0 0 0 .27.46h.19s.12.08.06 0a.59.59 0 0 1-.16.2 1.14 1.14 0 0 1-.11.11h-.07a.57.57 0 0 1-.13.08h-.08a1 1 0 0 1-.29.08H112.35s-.14-.06-.07 0l-.12-.07s-.12-.09-.07 0l-.1-.1a.75.75 0 0 1-.07-.12.14.14 0 0 0 0-.07V79.63v-.07c0-.07 0 0 0 0v-.06s.09-.12 0-.07a.94.94 0 0 1 .1-.1h.13-.15l1.29.34a.37.37 0 0 0 .46-.26.39.39 0 0 0-.3-.41zM85.51 80a4.46 4.46 0 0 0-.83 1.13c-.23.4-.42 1 0 1.26a.79.79 0 0 0 .7 0 2.71 2.71 0 0 0 1.52-2.19l-.09-.55a1.43 1.43 0 0 0-1.3.35z" fill="#fff"/><path d="M85.25 79.73a3.49 3.49 0 0 0-.63.75 5.46 5.46 0 0 0-.43.79 1.11 1.11 0 0 0 .29 1.44c.6.34 1.35-.14 1.79-.53a3.09 3.09 0 0 0 .89-1.41 2.07 2.07 0 0 0 .1-.43.92.92 0 0 0 0-.33l-.08-.46a.38.38 0 0 0-.26-.26 1.79 1.79 0 0 0-1.66.44.37.37 0 0 0 0 .53.39.39 0 0 0 .53 0 1 1 0 0 1 .93-.24l-.26-.27v.5s-.11 0 0-.12 0 .08 0 .1a2.81 2.81 0 0 1-.08.31 1.18 1.18 0 0 1-.1.27 2.69 2.69 0 0 1-.34.53 3.25 3.25 0 0 1-.44.41 1.51 1.51 0 0 1-.59.27h-.01s-.08 0 0 0 .05.06 0 0 0-.06 0 0a.19.19 0 0 1 0-.07c0-.06 0 .06 0 0v-.13c0-.06 0 .06 0 0a2.45 2.45 0 0 1 .08-.29c0-.07 0 0 0 0a1 1 0 0 1 0-.1l.08-.15.23-.38a2.7 2.7 0 0 1 .53-.64.38.38 0 0 0 0-.53.37.37 0 0 0-.57 0zM143.8 71.2a.3.3 0 0 0-.45.06.9.9 0 0 0-.1.49v1.51a1.44 1.44 0 0 0 .12.72.5.5 0 0 0 .63.24.6.6 0 0 0 .26-.51 2.62 2.62 0 0 0-.45-1.84z" fill="#fff"/><path d="M144.06 70.93a.65.65 0 0 0-.8-.09.9.9 0 0 0-.38.77v1.8a1.42 1.42 0 0 0 .2.81.94.94 0 0 0 .73.42c.67 0 .85-.69.85-1.22a3 3 0 0 0-.53-1.74v.19-.67a.38.38 0 0 0-.75 0v.63a1.49 1.49 0 0 0 .24.55 2.09 2.09 0 0 1 .21.64 2 2 0 0 1 0 .64.43.43 0 0 1-.06.21s-.06 0 0 0h-.08c-.08 0 0 0 0 0a.61.61 0 0 1-.08-.25 5.34 5.34 0 0 1 0-.8v-1a1.16 1.16 0 0 1 0-.33h-.12c.38.32.91-.21.57-.56zM162.89 73.87a1.87 1.87 0 0 0-.43 1.73l.43-.41c-.08.46-.1 1 .3 1.29s.94-.07 1.2-.47a1.67 1.67 0 0 0 .11-1.77 1.16 1.16 0 0 0-1.61-.37z" fill="#fff"/><path d="M162.62 73.6a2.2 2.2 0 0 0-.54 2 .38.38 0 0 0 .23.34.4.4 0 0 0 .42-.07l.42-.41-.63-.37a1.8 1.8 0 0 0 .27 1.55 1.15 1.15 0 0 0 1.59 0 2 2 0 0 0 0-3 1.48 1.48 0 0 0-1.64 0 .39.39 0 0 0-.14.52.39.39 0 0 0 .52.14l.11-.08h.05s-.05 0 0 0H163.45c-.08 0 0 0 0 0h.15c-.05 0 0 0 0 0h.19l.22.13c-.06 0 0 0 0 0l.09.1v.07a.88.88 0 0 1 .05.1v.24a2.62 2.62 0 0 1 0 .28 1.18 1.18 0 0 1-.06.28 1.28 1.28 0 0 1-.25.51l.16.07-.1.09c-.05 0 0 0 0 0H163.78s-.1 0 0 0h-.24c.07 0 0 0 0 0h-.07l-.07-.06v-.06c0-.06 0 0 0 0a.24.24 0 0 0 0-.08v-.08-.33V75.27c0 .07 0 0 0 0a.38.38 0 0 0-.17-.42.38.38 0 0 0-.46.06l-.43.4.65.27a3.4 3.4 0 0 1 0-.45.88.88 0 0 1 0-.23.45.45 0 0 1 0-.11c0-.12 0 .07 0 0s0-.14.05-.21v-.1c0 .06 0 0 0 0l.06-.09h.05l.09-.08a.39.39 0 0 0 0-.54.4.4 0 0 0-.62-.17zM170.65 76.46a.86.86 0 0 0-1.26.66l-.2.2 1.33.78a.39.39 0 0 0 .25.08.36.36 0 0 0 .23-.18 1.18 1.18 0 0 0-.35-1.54z" fill="#fff"/><path d="M170.84 76.14a1.23 1.23 0 0 0-1.83 1l.11-.26-.2.19a.37.37 0 0 0 .08.59l1.07.63a1.41 1.41 0 0 0 .64.28c.57 0 .79-.7.79-1.16a1.45 1.45 0 0 0-.66-1.25.39.39 0 0 0-.52.13.38.38 0 0 0 .13.52h.06c.06 0 0 0 0 0a.5.5 0 0 0 .08.07s0 .05.05.05-.05-.06 0 0l.07.12s0-.09 0 0v.11a.43.43 0 0 1 0 .11c0 .08 0-.07 0 0v.38a.56.56 0 0 1 0 .12c0 .06 0 0 0 0h.09c.14 0-.07 0 0 0h-.08l-.94-.55-.39-.23.07.59a1.38 1.38 0 0 0 .27-.27.54.54 0 0 0 .05-.22s0-.09 0 0a.17.17 0 0 0 0-.05c0 .06 0 .06 0 0l.1-.07h.06c.06 0-.05 0 0 0h.13c-.07 0 0 0 0 0a.48.48 0 0 0 .12 0c-.09 0-.06 0 0 0h.12c-.1 0 0 0 0 0a.39.39 0 0 0 .52-.14.38.38 0 0 0 .01-.69z" fill="#fff"/></svg>