<svg xmlns="http://www.w3.org/2000/svg" width="250" height="82" viewBox="0 0 250 82"><path d="M250 38.55c-1.63.52-2.24 2.4-4 2.86a11.32 11.32 0 0 1-3.25.89c.82 2.2-.59 3.19-2 4.07a14.81 14.81 0 0 0-3.19 2.36 3.39 3.39 0 0 1-2.69 1 8.7 8.7 0 0 0-5.81 1.8 7.49 7.49 0 0 1-5 1.68 13.81 13.81 0 0 0-5.94 1.57c-2.27 1.08-4.7 1-7 1.55a1.07 1.07 0 0 1-1.3-.49c-.86-1.68-1.92-3.28-2.09-5.26-.08-.9.22-1.45 1.11-1.63 1.54-.31 3.08-.84 4.67-.3a3.93 3.93 0 0 0 4-.83 17.32 17.32 0 0 0 5.82-7.58 4 4 0 0 0-.07-3.23 3.17 3.17 0 0 0-3 1.32c-2.21 2.76-5.16 4.62-7.82 6.85a8.88 8.88 0 0 1-3.65 2 7 7 0 0 0-4.26 3.27 5.8 5.8 0 0 1-5.34 3c-1.14.05-2.17 0-2.29 1.57-.06.69-.81 1-1.39 1.35a18 18 0 0 1-11.05 2 1.63 1.63 0 0 1-1.55-1.66c-.14-2.26-1.27-4.41-.27-7-2.58.65-4.57 1.09-6.27 2.63-1.54 1.39-3.48 2.33-5.16 3.58a14.79 14.79 0 0 1-7.74 2.33c-1.64.09-2.27-1.58-1-3 2.59-2.84 4.13-6.39 6.53-9.35.08-.09 0-.3 0-.53-.91-.35-1.36.38-1.84.86a5.45 5.45 0 0 1-3 1.74c-.48.08-1.15.12-1.22.68-.23 1.89-1.66 1.84-3 1.88a11.37 11.37 0 0 0-5.27 1.29 6.33 6.33 0 0 1-1.65.57c-.67.16-1.42.22-1.73-.55s.42-1.21 1-1.48c3.44-1.66 6.7-3.66 10.17-5.29 3.21-1.51 6.06-3.69 9.27-5.25 1.41-.69 1.68-2.43 2.71-3.51.63-.66 1.08-1.49 1.73-2.12 2.35-2.34 3.77-1.81 5 1.24 1.1 2.7 0 4.45-1.72 6.13a10.73 10.73 0 0 0-2.93 6.49c4.25-2.39 8.79-3.36 12.44-6.2.31-.25.76-.54.82-.87.56-3.11 3.37-4.41 5.23-6.46a2.22 2.22 0 0 1 3.32-.37c1.55-2.94 3-3.43 5.74-1.93.44.24.88.56 1.39.36 2-.76 2.34.66 2.54 2 .37 2.61 0 4.93-2.59 6.45-2.86 1.69-5.63 3.52-8.44 5.29-.51.32-1 .66-1.54.07a1.12 1.12 0 0 1 .13-1.58c.87-1 1.53-2.21 2.88-2.69s2.06-1.87 2.9-3a1.14 1.14 0 0 0-.05-1.59 1.36 1.36 0 0 0-1.62-.21 2.09 2.09 0 0 0-.83.52c-2.38 2.83-5.26 5.36-5.76 9.34a1.9 1.9 0 0 0 0 .25c0 1-1.5 1.93-.44 2.95s2.4.14 3.58 0a7.2 7.2 0 0 0 4-1.86 4.46 4.46 0 0 1 1.44-1c4.61-1.61 8-5 11.61-8a16.15 16.15 0 0 1 2.63-1.88c3.21-1.67 5.73-4.25 8.6-6.36 1.14-.85 1.37-2.24 1.86-3.46.78-2 1.43-2.11 3.06-.7 2.35 2 2.23 2.7 1.22 5.79-.87 2.64-2.38 5.1-2.52 8 0 .4-.3.85 0 1.19a5.61 5.61 0 0 1 .78 3.9c1 .54 1.53-.22 2.18-.49A72.86 72.86 0 0 0 243.26 39a20 20 0 0 1 6.74-2.44z" fill="#fff"/><path d="M59.55 51.67c-1.3-.27-2.12.47-3 1-3.64 2.17-6.26.67-6.36-3.63 0-.31.23-.64-.28-1-2.23 3.34-6 4.81-9.12 7-1.68 1.2-4 1.39-5.11 3.58-.51 1-3.51.46-4.57-.56S30.14 56 31 54.8c2.36-3.18 3.4-7.06 6-10.22a2 2 0 0 0-2.61.69c-1.76 2.61-4.71 3.91-6.7 6.25a16 16 0 0 0-1.69 2.1c-2 3.33-5.37 4.5-8.82 5.52a1.37 1.37 0 0 1-1.6-.38c-.46-.6 0-1.13.33-1.56a30.38 30.38 0 0 0 3.81-6.67 14.41 14.41 0 0 0 1-5.49 13.88 13.88 0 0 0-4.93 3.84c-2 2.16-4.12 4.26-5.51 7C8.58 59.13 5.44 60 2 60c-2 0-2.59-1-1.46-2.73C2 55 3.57 52.84 5.16 50.74a134.47 134.47 0 0 0 8.4-12.55 4.65 4.65 0 0 1 5.34-2.1c.8.24.86.74 1 1.47.25 1.64-1.09 2.93-.89 4.93 2.14-1.11 4.07-2.13 6-3.11 1.36-.68 2.77-2.2 4.28-.85 1.32 1.19.14 2.79-.14 4.2-.23 1.14-1.75 2.38-.45 3.37s2.35-.53 3.39-1.27c1.35-1 2.68-2 4.08-2.88a14.82 14.82 0 0 0 4.73-4.69c1.11-1.8 2.33-2.16 3.69-1.34 1.68 1 2.52 3 1.75 4.6-1.11 2.23-2.31 4.4-3.48 6.6a4.11 4.11 0 0 0-.86 2.81 19.37 19.37 0 0 0 5.59-3.27c4.71-3.45 7.8-8.27 11.11-12.91.19-.27.36-.55.56-.82.76-1 1.49-2.17 3-1.29s2.45 3.14 1.72 4.44c-1 1.79-2.4 3.38-3.27 5.28-.24.53-.59 1-.78 1.55-.38 1-.68 2.25.22 3 1.07 1 2-.09 2.84-.7 2-1.45 4.11-2.87 4.55-5.63a1.72 1.72 0 0 1 .87-1.17c3.12-1.25 4.56-4.37 7.11-6.24 1-.73 1.77-1.32 2.68 0a2.3 2.3 0 0 0 1.25.75c2.24.79 2.37 1.13.76 2.73s-3 3.78-5.17 5c-1.38.76-1 2.65-2.15 3.94a7.69 7.69 0 0 0 4.17-1.55 93.56 93.56 0 0 0 14-10.6 11.61 11.61 0 0 0 3.34-5.17c.39-1.24 1-2.4 2.63-2.08a2.87 2.87 0 0 1 2 3.55c-1.18 3.22-1 6.68-2 9.92-.36 1.17-.06 2.55-.06 4.18a37 37 0 0 0 10.13-7.14c.91-1 1.88-1.88 2.81-2.83.4-.4 1-.82.52-1.48a1.24 1.24 0 0 0-1.74-.48c-1.76 1-3.75.44-5.54 1.15-.66-3.39 1.65-7.08 4.7-7.38 2.42-.23 4.67-1.18 7.11-1.29 1.74-.08 2.81-1.22 3.5-2.91a6.48 6.48 0 0 0-2.94-.27H15a27.09 27.09 0 0 1-3-.14 1.06 1.06 0 0 1-.94-1.25 1 1 0 0 1 .91-1 26.79 26.79 0 0 1 3-.16H234.9c.92 0 1.83 0 2.75.07.72.06 1.3.39 1.32 1.21s-.51 1.2-1.27 1.25-1.83.07-2.74.07h-89a8.43 8.43 0 0 0-7.37 4 2.43 2.43 0 0 1-2.23 1.26c-2.07-.06-4.12.06-6.2-.11s-4.26-.07-5.61 2.19c-.55.93-1.89 1-3 1-1.89.1-2.82 1.11-3.72 2.75-1.48 2.68-2.53 5.59-4.89 7.85s-3.5 5.68-4 9.26a5.56 5.56 0 0 0 5.56-2.68c1.78-3.21 4.64-5.59 6.39-8.8a6 6 0 0 1 2.71-2.16c2.32-1.22 4.39-3 7.1-3.44a2.71 2.71 0 0 1 2.74.73 3.87 3.87 0 0 0 1.94 1 3 3 0 0 1 1.81 4.19c-1.12 2.61-9.41 7.63-12.63 7.57-.16-2.22 1.91-2.67 3-3.8s2.68-2.3 2.3-4.51a5.56 5.56 0 0 0-3.93 2.44 34.43 34.43 0 0 0-4.2 8.35 2 2 0 0 0 .7 2.46c.81.61 1.49.15 2.3-.11 4.65-1.49 8.72-4.19 12.62-6.86 4.37-3 9.4-5.39 12.25-10.33.67-1.16 2-1.92 3.1-2.85a1.19 1.19 0 0 1 1.78 0 5.3 5.3 0 0 1 .85 5.18 74.06 74.06 0 0 1 7.74-2.2c1.15-.25 2.1-.47 3 .49s0 1.89-.37 2.71c-1.66 3.36-5 4.55-7.9 6.54-1-1.57.55-2.39.44-3.49-3.17-.5-7 1.52-8.11 4.21-.12.3-.16.71-.38.9-3.12 2.72-4.6 6.78-7.84 9.39-2.77 2.24-5.54 1.39-6.58-2-.29-.94.25-1.38.82-1.88a9.89 9.89 0 0 0 2.42-3.51c-1.82.71-3.09 2.15-4.61 3.21-3.64 2.57-7.72 4.49-10.91 7.81a6.35 6.35 0 0 1-7.16 1.38c-2-.85-2-1.23-.57-3a.56.56 0 0 0-.8-.33c-1.69.71-3 1-3.21-1.57-.13-1.37-1.33-.84-2.15-.38a70.67 70.67 0 0 0-6.87 4c-1.86 1.34-4.06 1.41-6 2.25a1.46 1.46 0 0 1-1.8-.48c-.48-.65-.2-1.25.21-1.83 1.7-2.42 2.64-5.3 4.91-7.42 1.3-1.22.38-3.52 1.87-5-1.52-.69-2.29.19-3 .86-2 1.84-3.86 3.45-6.81 4.16-2.18.53-4.36 2.21-6.7 3-3 1-5 .14-6.5-2.52-.59-1-.55-2 .65-2.45 2.48-1 4.48-3 7.55-2.86 2 .08 2.62-2.09 3-3.8a3.41 3.41 0 0 0-.21-2.5c-2.91.25-4.4 2.74-6.57 4.13-3 1.91-5.39 4.64-8.42 6.53-1.69 1.06-3.27 2.12-5.53 1.72-1.44-.26-2.25 1.26-3 2.29-1.5 2-2.08 4.72-4.66 6-.49.23-.56 1-.52 1.59a6.21 6.21 0 0 1-3 5.73c-3.13 2-4.6 5.15-6.55 8-.09.14-.11.36-.23.44a18.49 18.49 0 0 0-6.21 5.52c-2.43-.31-4.59 1.27-7 1-1.22-.13-2.43-.31-3.88-.5.43-1.94 2-2.95 3.12-4 3.63-3.51 7-7.29 10.65-10.77a9.3 9.3 0 0 1 2.8-2 3.82 3.82 0 0 0 2.56-3.11 2.58 2.58 0 0 1 .94-1.71c2.44-2.19 3.54-5.27 5.59-7.72z" fill="#fff"/><path d="M186.29 32.13c-1.09-1.48-1.94-2.56-2.71-3.7-1-1.48.06-2.57 1-3.45a12.13 12.13 0 0 0 2.15-2.66 2 2 0 0 1 2.3-1.1c3.07.7 3.49.46 2.34 3.78-1 2.83-3.77 4.26-5.08 7.13zM63.46 7.08a7 7 0 0 1 2.08-5A7.09 7.09 0 0 1 67.88.54a8.58 8.58 0 0 1 6 0 7.29 7.29 0 0 1 2.36 1.51 6.88 6.88 0 0 1 1.53 2.25 7 7 0 0 1 .55 2.78 7.3 7.3 0 0 1-.45 2.59 6.57 6.57 0 0 1-1.31 2.11l2.28 2.39-3.21.5-1.23-1.27a8.1 8.1 0 0 1-1.66.56 8.5 8.5 0 0 1-4.86-.33 7.09 7.09 0 0 1-2.34-1.51 7 7 0 0 1-2.08-5zm3.65 0a3.66 3.66 0 0 0 2.32 3.43 3.71 3.71 0 0 0 1.45.28 4.06 4.06 0 0 0 .92-.11l-2-2.1 3.29-.41.93 1a3.42 3.42 0 0 0 .64-2.07 3.58 3.58 0 0 0-.3-1.47 3.65 3.65 0 0 0-.83-1.18 3.89 3.89 0 0 0-4.11-.77 3.58 3.58 0 0 0-1.2.77 3.63 3.63 0 0 0-.82 1.18 3.58 3.58 0 0 0-.29 1.45zM96.48.37v8.5a3.35 3.35 0 0 0 .31 1.13 1.88 1.88 0 0 0 .7.81 3.09 3.09 0 0 0 2.7 0 2 2 0 0 0 .7-.81 3.35 3.35 0 0 0 .28-1.12V.37h3.47v7.78a6.32 6.32 0 0 1-1.43 4.58 7.47 7.47 0 0 1-8.82 0A6.27 6.27 0 0 1 93 8.15V.37zM123.44.37V13.8H120V.37zM148.38 4.86a3.72 3.72 0 0 0-5.59-.42 3.56 3.56 0 0 0-.79 1.17 3.72 3.72 0 0 0-.28 1.46 3.74 3.74 0 0 0 .28 1.47 3.53 3.53 0 0 0 .76 1.18 3.66 3.66 0 0 0 1.15.78 3.53 3.53 0 0 0 1.42.29 4 4 0 0 0 3-1.43v4.13l-.35.13a10.81 10.81 0 0 1-1.5.42 8 8 0 0 1-1.37.13 7.06 7.06 0 0 1-4.9-2 7.36 7.36 0 0 1-1.56-2.26 7 7 0 0 1-.59-2.86 6.8 6.8 0 0 1 .58-2.84 7.19 7.19 0 0 1 1.6-2.21 7.07 7.07 0 0 1 2.25-1.47 7 7 0 0 1 2.69-.53 7.48 7.48 0 0 1 1.57.17 9.85 9.85 0 0 1 1.63.52zM167.11 5.91l4.25-5.54h4.31l-5.32 6.36 5.82 7.07h-4.52L167.11 8v5.8h-3.49V.37h3.49z" fill="#fff"/></svg>