<svg xmlns="http://www.w3.org/2000/svg" width="250" height="163" viewBox="0 0 250 163"><path d="M108.4,53.37a10.94,10.94,0,0,1-1.29.53c-8.17,2.31-11.77,9.52-9,17.52A12.3,12.3,0,0,0,107,79.58c4.07,1.18,8.17,2.28,12.24,3.48a11.74,11.74,0,0,1,7,4.71,2.55,2.55,0,0,0,.42.45,3.3,3.3,0,0,0,.53.23c.4-9,.78-17.93,1.17-26.85l-.31,0c-.67,2-1.19,4.12-2,6.06-2.46,5.56-7.09,9.42-13.21,8.88C104,75.73,98.79,66.76,103.17,59c2.58-4.53,8.15-5.81,12-2.75a12.3,12.3,0,0,1,2.28,3,15.18,15.18,0,0,1,1,2.24V45.87a34.49,34.49,0,0,1-3.46,3.89,7.52,7.52,0,0,1-8.9.39c-2.79-1.75-3.78-4.36-3.28-7.8.88-6.08,7.12-9.24,13.15-7.37a14.27,14.27,0,0,1,9.28,8.72c.18.42.37.84.56,1.26s.24.54.56,1.24c.23-6,.46-11.45.62-17,.08-2.51.09-2.49,2.36-1.65,9.27,3.45,18.35,3.15,27.17-1.55.5-.26,1-.51,1.53-.73a3.54,3.54,0,0,1,.8-.06,9.76,9.76,0,0,1-3.94,6.68c-2,1.54-4.28,1.55-6.6,1.18a20.84,20.84,0,0,0-11.62,1c-4.32,1.82-6.59,5.11-6.44,9.16.13,3.63,2.89,7,7,8.45,1.27.45,2.61.73,3.91,1.08l.07.47c-.61.26-1.19.57-1.82.77-4.31,1.33-7.44,4-8.66,8.37-1.64,5.95.24,13.69,7.17,16.5,3.11,1.26,6.47,1.91,9.7,2.86s6.76,1.46,9.46,3.81A44.65,44.65,0,0,1,160.17,89c0-1.64.07-3.09,0-4.53s.54-2.27,2.1-2.3c5.32-.11,10.64-.25,16-.38.61,0,1.21,0,2.12,0l-3.69-3.27a16.93,16.93,0,0,1-5.83-12.59c-.23-6.19-.55-12.38-.51-18.57a9.87,9.87,0,0,1,6.52-9.54,8.82,8.82,0,0,1,11.74,5.29c1.76,4.79,1,9.45-.31,14.17-2,7.17-3.7,14.4-3.42,21.9.11,2.87.63,5.74,2.62,8a7.85,7.85,0,0,0,8.34,2c2.46-.89,4.18-3.68,4.26-6.71a8.48,8.48,0,0,0-3.84-7.7c0,.73-.08,1.2-.1,1.67-.08,2.08-.88,3.07-2.69,3.28-2.08.25-3.48-.6-4-2.54a28.74,28.74,0,0,1-.24-12.65c1-4.81,2.44-9.5,3.55-14.28,1-4.48,1.43-9-.08-13.48-1.39-4.13-5.68-6.28-10.3-5.49a14.34,14.34,0,0,0-10.33,7.22,4.3,4.3,0,0,1-1.1,1.32c-.6-5,.69-9.82,1.22-14.7l-.38-.15c-.71.83-1.39,1.69-2.12,2.5a13.83,13.83,0,0,1-8.15,4.83c-1.21.2-1.74-.13-1.76-1.36,0-1.74-.24-3.49-.14-5.22a4.43,4.43,0,0,1,1-2.34c1.77-2.17,3.66-4.24,5.49-6.36.87-1,.68-1.69-.54-2.38a7.53,7.53,0,0,1-.51-13,7.81,7.81,0,0,1,10.48,2.09,7.67,7.67,0,0,1-2.38,10.74c-2.51,1.44-2.56,1.47-1.06,4C176,24.87,181.84,28.74,189,30.6A31.56,31.56,0,0,0,212.12,28c1.27-.66,2.42-1.54,3.64-2.29,1-.62,1.11-1.24.38-2.24a7.36,7.36,0,0,1-.37-8.89,7.51,7.51,0,0,1,9.37-2.71,7.66,7.66,0,0,1,4.43,8.44,7.38,7.38,0,0,1-7.52,6c-1.82-.13-2.51.52-3,2.12-2.27,7.55-4.63,15.07-7,22.59q-4.83,15.56-9.67,31.09c-.79,2.54-1.6,5.08-2.32,7.64A1.93,1.93,0,0,1,198,91.4q-18.67-.09-37.35-.09c-9.32,0-18.65.06-28,.07-13.68,0-27.36.09-41-.06a6,6,0,0,0-6,3.63,22,22,0,0,0-2.3,12.38c.42,5.3,1.21,10.57,1.86,15.85a1.12,1.12,0,0,0,.58.83c.07-.78.15-1.55.2-2.33.33-5.38,1.29-10.55,4.55-15.07,4.78-6.63,13.12-6.59,17.92,0,3.07,4.23,4.2,9.09,4.7,14.1.57,5.61.34,11.21-2.39,16.34-2.46,4.61-5.93,7.81-11.64,7.53-4.38-.21-7.31-2.7-9.46-6.21-1.16-1.9-2-4-3.09-6.31,0,.84-.12,1.49-.1,2.14.13,5.09-.14,10.14-1.85,15A18.93,18.93,0,0,1,79,157.89a12.19,12.19,0,0,1-15.58-.21A21.86,21.86,0,0,1,56,145.27a39.8,39.8,0,0,1-.8-15.86c.81-4.85,2.66-9.1,6.81-12.11,3.11-2.25,9.85-3.07,13,.6,2.69,3.09,3,9,.39,12.12a6.32,6.32,0,0,1-7.69,1.56,6.3,6.3,0,0,1,.57-.66,5,5,0,0,0,.94-6.71,5.12,5.12,0,0,0-7-.43,10.76,10.76,0,0,0-3.63,6.1c-1.41,6-1.06,11.93,2,17.43A10,10,0,0,0,76.27,150c4.87-4.23,6.77-9.87,6.89-16a83.31,83.31,0,0,0-3.79-26.19C77.31,101,72.65,96.39,66.54,93.09c-2.11-1.14-4.23-2-6.7-1.74a6.52,6.52,0,0,1-1.43-.19c2.19-4.69,1-8.21-3.14-10.68l-.55.14c.05.47.08.94.15,1.4a2.73,2.73,0,0,1-1.08,3,3.06,3.06,0,0,1-3.48,0,5.32,5.32,0,0,1-2-5.85,1.93,1.93,0,0,1,1.07-1c5.45-1.91,8.23-6.16,9.93-11.32a44.17,44.17,0,0,0,1.2-21.71c-.85-4.86-2.75-9.34-6.81-12.55-5.87-4.64-15.31-4-20.55,1.35a24.21,24.21,0,0,0-6.64,15c-.7,6.88,0,13.6,3.09,19.93,3,6.15,7.71,9.81,14.75,10.07,1.66.06,1.85.3,1.46,2C45.6,82,45.28,83,45,84A7.4,7.4,0,0,0,45.49,90c.49.84.42,1.38-.69,1.38-4.82,0-9.63.07-14.45,0-.52,0-1.29-.81-1.48-1.39C27,84.16,25.2,78.34,23.4,72.52c-2.35-7.58-4.66-15.16-7-22.74C14,41.91,11.47,34.05,9.08,26.17a2.18,2.18,0,0,0-2.36-1.82A7.42,7.42,0,0,1,0,16.73,7.38,7.38,0,0,1,6.93,9.3a7.54,7.54,0,0,1,5.59,13.24c-1,.91-.81,1.41.24,2.07,8.85,5.54,18.24,6.4,28,3.11a26,26,0,0,0,13.32-9.93c1.5-2.14,1.51-2.16-.62-3.56A7.73,7.73,0,0,1,50.74,5.1a7.62,7.62,0,0,1,14.41,1,7.48,7.48,0,0,1-3.57,8.42c-1.25.74-1.34,1.45-.6,2.58A26.54,26.54,0,0,0,77.3,28.49c10,2.51,19.37,1,27.58-5.47a38.55,38.55,0,0,0,5.53-6.13c1-1.2.72-1.72-.73-2.42a7.67,7.67,0,0,1-4.32-8,7.6,7.6,0,1,1,11.9,7.26c-2,1.43-2,1.44-.65,3.57a24,24,0,0,0,8,7.87c1.08.66,1.18,1.29.69,2.38-2.1,4.57-4.92,6-9.92,5.6a38,38,0,0,0-8.85.11,10.74,10.74,0,0,0-8.52,6,2.23,2.23,0,0,1-2.13,1.39c-4.5.29-9,.67-13.48,1-.48,0-1,.16-1.6.28.27.36.35.57.5.66,5.87,3.53,7.69,9,7.45,15.48-.18,4.56-.58,9.12-2.79,13.26-1.65,3.07-3.64,5.77-7.1,7.09A8.37,8.37,0,0,1,68.17,74.3a15.92,15.92,0,0,1-.32-12.14c1.32-4,3.18-7.75,4.76-11.62C74.48,46,76,41.29,76.06,36.29a16.4,16.4,0,0,0-.5-4.24c-.75-3-2.63-4.35-5.69-4.35-3.81,0-6.77,1.93-9.82,4.34a21.59,21.59,0,0,1,4.28.54c3.43,1.18,5.07,4,6,7.28,1.43,5,.39,9.83-1.43,14.55C67.59,57.8,66,61.11,65,64.58c-1.25,4.22-2.08,8.54-1.1,13,1.54,7.09,7.43,10.57,14.35,8.34A13.07,13.07,0,0,0,85,81.3a10.49,10.49,0,0,0,.8-1.48l.66.44c.26,1.32.45,2.66.78,4a6.15,6.15,0,0,0,6.19,4.55,6,6,0,0,0,5.74-4.85,6.22,6.22,0,0,0,0-.76,6,6,0,0,0-.88.43c-2,1.58-4.07,1.26-5.18-1a18.76,18.76,0,0,1-1.48-4.81c-1.53-8.89-2.35-17.82.4-26.6.8-2.57,2.52-4.86,3.86-7.25.15-.28.52-.43,1.07-.86,1.29,6.33,5.72,8.87,11.6,9.69Zm2,70c0-4.16-.47-7.52-2.13-10.65-3.07-5.79-9.84-7.39-14.6-3.37a12.29,12.29,0,0,0-4.33,8.37c-.63,5.87-.15,11.49,4,16.13a8.77,8.77,0,0,0,13.85-.38A15.76,15.76,0,0,0,110.38,123.4Z" fill="#fff"/><path d="M198,144.53c-.59,0-1.18,0-1.77,0-6,.16-12,.3-18,.52a3.75,3.75,0,0,0-2.09.82,15,15,0,0,1-10.79,3.62c-4.14-.23-8.27-.63-12.39-1.05-1.53-.16-2.29.25-2.42,1.87-.21,2.76-.59,5.5-.8,8.25a2.29,2.29,0,0,1-1.68,2.24c-3.46,1.32-6.94,2-10.43.3s-4.73-5.08-4.93-8.76a56.54,56.54,0,0,1,2.09-16.85c1-4.16.76-8.26-2.5-11.62A9.75,9.75,0,0,0,121.27,122a4.92,4.92,0,0,0-3,4.3c-.09,5.61.58,11.13,3.81,15.87a47.56,47.56,0,0,0,5.6,6,5.65,5.65,0,0,0,1.46.78l-.49.48H106.21a3,3,0,0,1,.46-.71c4.44-3.35,6.16-8.18,7.12-13.35a57.69,57.69,0,0,0,.68-17.44c-.85-7.09-3.16-13.64-8.52-18.75a2.56,2.56,0,0,1-.34-.64,5,5,0,0,1,.89-.22c5.77-.34,11.54-.74,17.31-1a49.91,49.91,0,0,1,9.63.17c5.74.88,8.31,6.88,5.36,11.92a16.85,16.85,0,0,1-6.86,6.21L129,117.22l.08.43c.46,0,.92,0,1.38,0,7.15-.23,10.41,3.3,9.3,10.39a78.84,78.84,0,0,1-2.28,8.89,20.27,20.27,0,0,0-.71,10c1.1,5,5.84,7,10.34,4.5a11.35,11.35,0,0,0,2.83-2.48c-2.69-.89-5.25.17-7.81.11l-.47-.54a17,17,0,0,0,1.9-1.33,19.1,19.1,0,0,0,5.91-11.53,87.48,87.48,0,0,0,0-27.69,15.16,15.16,0,0,0-5.81-9.82c-.44-.35-.86-.72-1.28-1.1-.1-.09-.12-.26-.19-.42.15-.09.29-.23.41-.21,7.33.88,14.49-.47,21.66-1.63a19,19,0,0,1,9.85.66c4.55,1.7,6.86,5.24,7.89,9.67a67.86,67.86,0,0,1,0,30.44c-.26,1.19-.7,2.34-1,3.51,0,.06.1.16.33.47,6.13-6,7.53-13.76,8.07-21.71s-.27-15.75-5.77-22.41c9.91,2.6,19.55,1.3,29.48-.83-1.53,2.11-2.8,3.88-4.08,5.66l.41.51a10.93,10.93,0,0,0,7.05-2.47c2-1.6,3.82-3.46,5.66-5.15-.54,4.54-1.1,9.29-1.66,14l.66.21.87-1.25c3.14-4.45,7.33-7,12.88-6.68,4.54.23,7.68,3.37,8.46,8.29a29.72,29.72,0,0,1-1,12.61c-1,3.8-2.21,7.57-3,11.42a37,37,0,0,0-.23,12.85c.34,2.26,1.54,3.47,3.39,3.47a2.93,2.93,0,0,0,3.19-3c0-.55,0-1.11,0-1.78.43.07.77,0,1,.17,4.38,3.2,4.59,11.18-.21,14-3.56,2.1-8.95.46-10.66-3.29-1.41-3.09-1.53-6.35-1.44-9.63.17-6.87,1.83-13.47,3.63-20a21.27,21.27,0,0,0,.43-11.52c-1.16-4.18-4.16-6.85-7.92-7a9.61,9.61,0,0,0-9.53,6.36,11.8,11.8,0,0,0-.76,4.18c.14,6.4.34,12.8.69,19.19.29,5.24,3,9.24,7,12.47a3.93,3.93,0,0,1,1.29,1.73H198.37a11.64,11.64,0,0,1,1.23-1.4A11.12,11.12,0,0,0,204,140a71.7,71.7,0,0,0-.44-10.25c-.27-2.54-2.09-4-4.49-4.7a6.61,6.61,0,0,0-6.63,1.25,5,5,0,0,0-1.43,2.94c-.59,6,.75,11.12,6.49,14.24a3.52,3.52,0,0,1,.65.58Zm-44.67-23.36c.17,2.46.31,6.35.78,10.2a32.93,32.93,0,0,0,1.74,7.27,6.74,6.74,0,0,0,6.51,4.73,16.87,16.87,0,0,0,16-10.83,34.15,34.15,0,0,0,1.79-18.7c-1.46-8.92-8-14.61-16.73-14.78a7.61,7.61,0,0,0-7.67,5C153.56,109.1,153.48,114.42,153.33,121.17ZM212,144.26l.71-.1c.62-1.38,1.37-2.71,1.86-4.14,3.18-9.21,3-18.61,1.14-28a12.44,12.44,0,0,0-5.9-8.44c-1.4-.85-1.82-.76-2.23.87a44,44,0,0,0-1.18,6c-1,10-.53,19.92,3.29,29.42A46,46,0,0,0,212,144.26Zm-94.46-30.69c.06,1.12.14,2.24.17,3.37s.65,1.6,1.81,1.34a15.66,15.66,0,0,0,9-5.74,11.38,11.38,0,0,0,2.54-8.73,4.24,4.24,0,0,0-3.21-3.86,6.62,6.62,0,0,0-7.35,2.52C118.14,105.8,117.65,109.64,117.51,113.57Zm79.37,9.06.12.2c1.59-.5,3.21-.9,4.75-1.52a2.34,2.34,0,0,0,1.47-2.76c-1-4.94-2.1-9.88-3.3-14.79-.32-1.31-1.06-2.83-2.69-2.76s-2.22,1.66-2.7,3A55.05,55.05,0,0,0,192,119.06a2.69,2.69,0,0,0,2.24,3C195.07,122.31,196,122.45,196.88,122.63Z" fill="#fff"/><path d="M160.75,78.24V62.85a62.52,62.52,0,0,1-3.53,7.5c-4.89,7.7-14.46,8.15-20,1.92A11,11,0,0,1,139,56a7.42,7.42,0,0,1,10.93,2.59,20.8,20.8,0,0,0,1.47,2.6c.62-4.94.09-9.86-.24-14.78l-.4-.09a4.83,4.83,0,0,0-.7.88c-2.28,4.53-8.56,5.43-12.37,2-2.16-1.93-2.8-5.31-1.58-8.69,1.76-4.91,7.91-7.44,13-5.51a15.19,15.19,0,0,1,9.4,9.83c.06.19.17.35.56.54.06-.56.15-1.12.18-1.67.12-2.36.2-4.71.35-7.06a7.28,7.28,0,0,1,.47-1.53,5.06,5.06,0,0,1,1.52.53,12.47,12.47,0,0,1,4.36,6.54c2.07,7,1.69,14.22,1.11,21.34a27.61,27.61,0,0,1-4.94,13.72,11.86,11.86,0,0,1-.94,1.06Z" fill="#fff"/><path d="M40.32,71.44a8.13,8.13,0,0,1-5.19-2.35A16.29,16.29,0,0,1,29.43,58,30.11,30.11,0,0,1,30.48,45.9C33,38.14,39.86,35.47,47,36.45S57.42,42.7,58.26,49c.61,4.55.66,9.18-1,13.65a14.4,14.4,0,0,1-6.13,7.59,5.74,5.74,0,0,1-1.69.42c-.08-.52-.21-1-.24-1.56A24,24,0,0,0,49,65.32c-.63-2.78-2.43-3.94-5.32-3.72A5.22,5.22,0,0,0,39,66.16,7.34,7.34,0,0,0,40.32,71.44Z" fill="#fff"/><path d="M45.45,115.74c.18-.45.19-.65.29-.72,2.89-2.06,3.33-5.11,3.38-8.31a30.12,30.12,0,0,0,0-4.14c-.38-2.9.75-3.74-3.41-7.8L51.92,93l-1.83,5.38.54.28c.24-.3.5-.6.73-.92a24.44,24.44,0,0,1,1.86-2.6,3.1,3.1,0,0,1,5,.35c1.72,2.35,1.69,5.08,1.61,7.8a9.44,9.44,0,0,1-.57,2.84c-1.43-1.47-3.73-2.32-2.84-5.1a6.23,6.23,0,0,0,0-2.88c-.34-1.9-1.74-2.39-3.26-1.24-1.72,1.29-3.48,6.15-2.89,8.11.1.33.54.8.78.78a2.27,2.27,0,0,0,1.45-.6A13.12,13.12,0,0,1,54.23,103v7.56c-.38-.54-.63-.92-.9-1.28A10.33,10.33,0,0,0,52,107.61c-.93-.82-1.77-.46-1.87.79A6.24,6.24,0,0,0,53,114.63a11.76,11.76,0,0,1,1,.72c.07.05.06.18.12.39Z" fill="#fff"/><path d="M44.55,112.27c-1.65,2.84-5.15,2.9-7.16.33-2.44-3.1-2.43-9.81,0-12.89,2-2.47,5-2,7,.61C46.79,103.52,45.45,110.69,44.55,112.27Zm-.1-9.23a4,4,0,0,0-3.59-2.88,3.84,3.84,0,0,0-3.66,2.77c-.59,2.38-.67,4.76.84,6.93a3.42,3.42,0,0,0,5.86,0C45.45,107.46,44.75,104,44.45,103Z" fill="#fff"/><path d="M47.33,69.74c0,2.07-.42,2.47-2.38,2.47-2.24,0-4.11-1.64-4.06-3.54a2.94,2.94,0,0,1,3-2.89C46,65.78,47.37,67.33,47.33,69.74Z" fill="#fff"/></svg>