<svg xmlns="http://www.w3.org/2000/svg" width="300" height="147" viewBox="0 0 300 147"><path d="M1.31,80.13v6.68l11.33-7s.23,11.22-2,12.94S6.2,90,6.2,90L3.32,92.56s2.83,7,7.31,6.67c5.72-.4,6.21-26.35,5.52-27S8.85,77.08,1.31,80.13Z" fill="#fff"/><path d="M45.2,75.07s-7,9-7.59,8.86-.29-.75.63-2.76,3.57-9.32,1.1-11.62-7.77,1.61-8.46,6.33a10.93,10.93,0,0,0,1.55,7.71S30.25,87.4,29,85.72s-.18-12.2-1.61-13.18-4.78,4.77-4.78,4.77l-.06-6.84-3.79-.92s.46,24.28.46,24,3.16,0,3.16,0-.69-12.14,1.32-12.26,0,10.71,2.88,11,7.14-6.27,7.14-6.27.74,2.53,2.3,2.53,10.7-10.82,10.7-10.82Zm-9.49,4.49c-1.26,1.72-2.24-.87-1.78-3.17s1.78-2.53,1.78-2.53C37.15,73.75,37,77.83,35.71,79.56Z" fill="#fff"/><polygon points="6.65 115.8 23.05 137.96 19.62 141.53 0 124.17 6.65 115.8" fill="#fff"/><polygon points="38.76 112.23 36.98 103.52 13.45 111.89 16.39 119.37 24.09 116.91 30.73 136.66 35.67 134.32 32.6 114.2 38.76 112.23" fill="#fff"/><path d="M54.33,96.59l-.68,6s-6.92-2.07-4,7.74c1,3.54,3.35,6.8,7.56,7,3.61.15,5.19-4.21,5.19-4.21l3.7,3.29s-5,14.68-18.93,4.32C36.18,112.52,41.44,92.68,54.33,96.59Z" fill="#fff"/><polygon points="57.15 94.67 63.39 88.77 71.69 100.78 76.29 98.17 72.03 86.1 79.99 83.15 85.82 110.72 81.64 112.3 78.55 104.83 73.95 106.54 77.93 113.95 75.19 116.35 57.15 94.67" fill="#fff"/><polygon points="85.82 78.83 95.91 85.34 95.91 73.47 106.33 77.73 98.03 105.17 94.53 104.76 95.02 91.45 83.22 88.64 85.82 78.83" fill="#fff"/><path d="M132.75,84.45,135,80l-5.83-2.67-1.37,4.11-7.21-4.87s2.89-7.48-.27-10.36-10.29-1-10.09,4.53,6.45,8.37,6.45,8.37-3,9-1,13.1,6,5.28,9.13,3.5,5.76-7.13,5.76-7.13l4.39,3,2.81-4.93Zm-14.68-8.78a9.76,9.76,0,0,1-3.43-2.2,2.37,2.37,0,0,1,2.46-3.84C119.57,70.32,118.07,75.67,118.07,75.67Zm3.84,14.13c-4.6-1.37-1.72-7.61-1.72-7.61l6.24,4.11S125.43,90.85,121.91,89.8Z" fill="#fff"/><path d="M149.07,52.76l1.51,6s-7.89-.34-6.86,4.26,9.95,2.88,13.45,10.49-3.77,14.82-13.28,12.21l-1-7.4s7.82,2,7.58-2.61-12.73-4.39-14.85-12.14S144,51,149.07,52.76Z" fill="#fff"/><path d="M173.15,49.39l-3.08,4.26s-3.43-3.64-5.9,2.12,1,14.34,4.87,14.14a7.36,7.36,0,0,0,5.55-2.68l2.61,4.32s-3.15,6.45-10.43,5.08-14.13-14.4-9.12-24.23C163.41,41.09,172.12,47.54,173.15,49.39Z" fill="#fff"/><path d="M198.4,64.14l-6.86-5.42s4.8-3.22,3.91-10.49S187.08,38.35,178,43.7L180,72.1h6.92l-.41-10.75,6.31,8Zm-12.76-7.66-.34-9.14s4-.45,4.39,2.88A5.74,5.74,0,0,1,185.64,56.48Z" fill="#fff"/><path d="M202.79,33.07l-4.94,2.4,4.39,30.59,7.07-1-2.61-8.62L211,54l4.74,6.72,6-4.73Zm2.51,19.44-1.82-9.7,5.83,7.06Z" fill="#fff"/><polygon points="230.99 52.51 226.29 31.88 230.23 29.64 227.76 21.88 210.2 33.07 213.49 39.17 218.65 36.23 226.39 55.02 230.99 52.51" fill="#fff"/><path d="M246.83,20.51l-1.71,4.19s-5.22-2.13-5.63,4,2.2,11.12,6.31,11.12,4.87-3,4.87-3L253.21,41s-3.77,6-9.67,5.07-13-7-10.84-19.48C234.76,14.41,246.08,18.45,246.83,20.51Z" fill="#fff"/><polygon points="247.59 13.24 255.34 9.88 259.11 24.15 263.57 23.12 263.57 9.88 271.8 10.22 268.58 38.45 264.05 38.45 263.5 29.77 259.7 30.32 260.14 38.45 256.37 39.93 247.59 13.24" fill="#fff"/><polygon points="271.8 3.36 279.42 19.69 278.25 35.26 286.49 33.96 284.91 20.72 300 8.71 296.36 1.1 283.6 15.16 279.35 0 271.8 3.36" fill="#fff"/><path d="M99.31,122.64c1.64.12-2.13,4.27,0,5.46s8-8.11,4.67-9.87-8.62,2.49-12.37,7.64-3.37,10.7.63,10.34,9.61-2.49,10.45-.42-4.89,8.32-7.44,7.28,2.52-2.91,1.76-4.42-6.12,2.34-6.23,5.51,3.85,3.69,9.2.31,8.84-8.31,6.6-11.38-10.76.83-12.73-1.61S97.8,122.54,99.31,122.64Z" fill="#fff"/><path d="M148.22,103.21l-3.64,1.66s2.49,12.78,0,12.95-2.91-8.69-2.91-8.69l-3.74,1.72s.67,10.08-1.41,10.49-2.39-12.21-2.39-12.21L131,110.64c.14,2.44.32,4.89.59,7.18h-1.39c-.59-2.25-1.77-4.21-4-4-3.74.42-4.89,5.77-4.94,7.8a42.38,42.38,0,0,0,0,6.62c-.7,1.06-1.57,2-2.26,1.74-1.41-.57.52-11.07-1.36-12.52s-5,4.15-5,4.15l.2-11.32-4.61,2,1,27.81,3.58-1.92s-1.18-11.59.79-13.1,1.56,2.94,1.61,7.16,1.61,4.95,2.91,3.75a51.8,51.8,0,0,0,3.93-4.61,3,3,0,0,0,3,2.07c4.95-.32,5.66-8.47,5.61-11.54,0-.12,0-.25,0-.38l1.4-.14c.86,4.55,2.29,7.8,4.8,7.8,3.54,0,3.48-9.14,3.48-9.14S143.54,129,147,124,148.22,103.21,148.22,103.21Zm-20.79,21.1c-.1,1.56-.32,3.79-1.82,3.79s-1.29-7.64.2-8.16S127.54,122.75,127.43,124.31Z" fill="#fff"/></svg>