<svg xmlns="http://www.w3.org/2000/svg" width="250" height="100" viewBox="0 0 250 100"><path d="M43.38 13.32A61.54 61.54 0 0 0 47.54 28c1.52 3.93 2.93 7.9 4.42 11.84.74 2 .8 2 2.73 1.31a4.22 4.22 0 0 1 .77-.22c.48 0 1 0 1.15.52s-.16.83-.53 1.05a16.72 16.72 0 0 1-1.65.8c-1.46.6-2.91 1.21-4.38 1.77a4.15 4.15 0 0 1-1.36.2.89.89 0 0 1-1-.65c-.12-.49.18-.8.57-1a4.84 4.84 0 0 1 .71-.38 1 1 0 0 0 .63-1.48c-.57-1.35-.9-2.79-1.61-4.1-1.07-2-1.48-4.22-2.22-6.34-1-3-2.06-6-3.09-9 0-.1-.14-.17-.28-.35a10.82 10.82 0 0 0-1.31 2.91c-1.75 4.58-3.26 9.27-5.49 13.66a14.34 14.34 0 0 0-1 1.79c-.24.69-.86.74-1.45.53a9.69 9.69 0 0 1-1.32-.68c-.09-.92-5.07-9.35-6.69-12.23a1.74 1.74 0 0 0-.43-1.17c-.21-.2-.32-.65-.7-.44s-.21.56-.15.85c.11.49 2 17.51 2.25 18.43l.4.7c0 .32.19.32.4.14 1 .83 1 1.64-.19 2.11a12.46 12.46 0 0 1-6.21 1.26c-.5-1.16.25-1.62 1.13-2 1.65-.64 1.58-.62 1.39-2.34q-.61-5.59-1.1-11.2c-.35-4-1.3-7.87-2-11.8-.18-1.1-.45-2.19-.67-3.29a9 9 0 0 1-.12-1.2c0-.69.06-1.36.84-1.6a1.48 1.48 0 0 1 1.77.76c1.21 2 2.47 3.93 3.57 6 2.15 4 4.51 7.83 6.78 11.74.28.46.52 1 .83 1.39.53.78 1 .75 1.4-.11 2.28-5.36 5-10.56 6-16.41a25.52 25.52 0 0 0 .8-5.37c-.06-1.23.58-1.48 2.25-1.08zM94.6 8.51c.26.89.82 1.66 1 2.59.7 3.44-.61 6-3.25 8.11-1.14.89-1.12.87-.19 1.92a27.35 27.35 0 0 1 4.07 6.71c.91 1.92 1.7 3.89 2.57 5.84a7.87 7.87 0 0 0 2.07 2.75 2.33 2.33 0 0 0 2.88.16 2.76 2.76 0 0 0 .46-3.12c-.4-.62-.9-1-1.52-.17-.32.44-.75.73-1.27.33a1.14 1.14 0 0 1-.23-1.48 2.23 2.23 0 0 1 3.69-.48 4.66 4.66 0 0 1 .33 5.87 4.06 4.06 0 0 1-5.79.6 13.32 13.32 0 0 1-3.87-4.84c-.93-1.82-1.72-3.72-2.61-5.56-.67-1.39-1.4-2.76-2.13-4.12a4.19 4.19 0 0 0-5.61-1.49 1 1 0 0 0-.45.88 5.41 5.41 0 0 0 .25 1.83 20.64 20.64 0 0 1 1.18 8 6.38 6.38 0 0 0 .28 2.29c.15.48.87 1.82 1.43 2-1.48 1.32-3.35 1.45-5.17 1.71l-.48-1.27.48-.48c.84.07 1.08-.5 1-1.16a54.7 54.7 0 0 0-1-8.15 83.94 83.94 0 0 1-2.32-14.26c-.1-1.24.06-4.69-.34-5.12s-.93-.06-1.38.08a6.51 6.51 0 0 1-2.54.52c-.46-.66-.47-1.22.36-1.57a26.47 26.47 0 0 1 10.39-2.58c6.91 0 7.44 3.67 7.71 3.66zm-11.48-.17a36.34 36.34 0 0 0-.12 4.22c.41 2.36.82 4.72 1.25 7.07a.75.75 0 0 0 .83.66c3.9-.21 8.72-3.33 7.63-8.56-.22-1.05-.35-2.26-1.5-2.87a1.83 1.83 0 0 0-.18-.3c-1.47-1.75-5.63-2.16-7.4-.71a6.48 6.48 0 0 0-.51.49zM164.09 1a1.62 1.62 0 0 1-1.4 1.35c-1 .17-1.24.81-1.3 1.71C161 9.93 161 15.82 161 21.7a54.35 54.35 0 0 0 .17 5.56c.07.64 0 1.18-.67 1.44a1.1 1.1 0 0 1-1.44-.64c-1.64-3-7.81-13.43-9-15.75-.15-.27-.33-.52-.56-.88a16.27 16.27 0 0 0 .27 5.64c.6 4.18.72 8.4 1 12.6.08 1 0 2.07 1.47 2.15a.65.65 0 0 1 .56.77 1 1 0 0 1-.9.91c-1.87.21-3.7.71-5.59.78-.26-.72.05-1.08.74-1.26 1-.27 1.29-1 1.21-2-.63-8.11-1.2-16.22-1.79-24.33-.06-.77-.14-1.54-.16-2.31 0-.55 0-1.14.72-1.27s1 .2 1.31.71c.45.69 1.49 2.47 1.56 2.67l-.07.13h.15c.13.25 5.38 10.32 5.82 11.14h-.05l1.44 2.45s1.5 2.46 1.81 2.42.21-.45.21-.7c.06-2.63.17-5.26.11-7.89 0-1.13-.12-8.93-.22-9.47.36-.45.22-1 .28-1.5.1-.83-.31-1.25-1.17-1.18l-.34-.28v-.15h-.16l-.34-.44a1.56 1.56 0 0 1 1.8-1.02c1.26.12 2.52.21 3.78.28.53.04.74.52 1.14.72zM126.34 3.29a2 2 0 0 1-1.43 1.08c-.83.15-1.09.67-1.11 1.49-.16 6.66.25 13.31.75 20a15.59 15.59 0 0 0 .34 3.11 1.08 1.08 0 0 1-.57 1.37 1.13 1.13 0 0 1-1.51-.46c-1.1-1.54-2.14-3.12-3.26-4.64-2.32-3.14-4.34-6.47-6.35-9.82a3.24 3.24 0 0 0-1.09-1.13c.29 2 .43 4.13.89 6.13a63.56 63.56 0 0 1 1.08 7.11c.18 1.65.42 3.3.62 4.95.09.76.29 1.34 1.21 1.38a.78.78 0 0 1 .83.8.89.89 0 0 1-.8.87c-1.89.34-3.72 1-5.64 1.12-.2-.78.28-1.16.89-1.39.91-.34 1-1 .94-1.85-.54-4.59-1.48-9.14-1.93-13.74-.41-4.16-1.09-8.29-1.41-12.45-.05-.6.08-1.14.68-1.33s1 .25 1.3.73c1.23 2 2.45 4.12 3.7 6.15 2.15 3.49 4.33 7 6.49 10.43a.91.91 0 0 0 .13.19c.4.38.7 1.16 1.31.91s.27-1 .24-1.49c-.19-3.2-.32-6.41-.63-9.61a71.24 71.24 0 0 1-.17-7.73 1.24 1.24 0 0 0-.84-1.38c-.46-.19-1-.37-.85-1s.71-.67 1.23-.68h3.46a1.8 1.8 0 0 1 1.5.88zM181.9 19.11c.21-1.12-.26-1.65-1.38-1.71a6.84 6.84 0 0 1-2.46-.37c-.26-.83-.29-1.62.84-1.63 2.08 0 4.21-.37 6.16.72a.66.66 0 0 1-.25.63c-1.2.82-1.11 2.05-1.16 3.3a22.41 22.41 0 0 1-1.43 8.17 7 7 0 0 1-9.54 3.34c-.62-.31-1.63-1.5-3.35-3.63a12 12 0 0 1-1.28-5.15A23.71 23.71 0 0 1 171 9c1.57-2.69 3.75-4.59 7-4.92a2.35 2.35 0 0 1 1.37.09c1 .53 1.79.93 2.68-.24.36-.48 1-.08 1.26.5a13.54 13.54 0 0 1 .69 2.76 1.38 1.38 0 0 1-1.05 1.57 1.42 1.42 0 0 1-1.86-.76c-1.38-2.52-3.33-2.85-5.59-1.07a9.07 9.07 0 0 0-3.78 7.74c.06 2.82-.11 5.65 0 8.47.05 4.27 3.3 7.76 5.53 7a4.8 4.8 0 0 0 1.6-1.11c2.23-2.09 2.89-4.85 3.17-7.75a3.13 3.13 0 0 0-.12-2.17zM140 4.22a1 1 0 0 1-1 .78c-1 .08-1.12.75-1.18 1.55a53.9 53.9 0 0 0 .21 7.52c.39 5 .94 9.93 1.71 14.85a.69.69 0 0 0-.15.07.22.22 0 0 0 0 .11c.35.95 1.73 1 1.84 2.2a19.13 19.13 0 0 1-6.43 1.43c-.69-.8-.61-1.2.33-1.77 1.86-1.13 1.78-1.12 1.45-3.27a110.56 110.56 0 0 1-1.44-14.42 35.06 35.06 0 0 0-.45-6.22c.57-1.57-.64-1-1.28-1.06-.44-.3-1.35 0-1.34-.82s.81-1 1.47-1.19c1.18-.3 2.38-.47 3.55-.85A2.36 2.36 0 0 1 140 4.22zM5.1 19.52a6.11 6.11 0 0 1 2 1.71c-1 .85-1.86.22-2.79-.07a15 15 0 0 1-4-3.91c-.7-1.48-.31-2.57 1.28-3.05s2.73 0 3.91 1.89a2.18 2.18 0 0 1-1.73 1.12c-.66.05-.64.42-.25.84a16.36 16.36 0 0 0 1.58 1.47zM11.34 17.94c.36.37 1.09.61.73 1.25s-1 .38-1.46.13c-2.08-1.08-4.09-2.25-4.41-4.93-.18-1.52.15-2.32 1.07-2.66A3.43 3.43 0 0 1 10.74 13c.16.27.28.55.42.82-.45.44-.63 1.13-1.34 1.32-.31.08-.73.16-.68.61s1.76 1.73 2.2 2.19zM74.88 85.09c.76 0 .65-1 .88-1.57a87.15 87.15 0 0 0 5.4-19.15 16.45 16.45 0 0 0 .07-2.89c0-.77.09-1.59 1-1.74s1.21.64 1.37 1.39c.35 1.62 1.35 6.76 1.67 7.67q3.45 9.74 6.88 19.48c.61 1.74.74 1.79 2.33 1 .56-.28 1.19-.61 1.66 0s-.06 1.21-.55 1.55a25.34 25.34 0 0 1-6 2.89 1.06 1.06 0 0 1-1.47-.53c-.25-.64.22-1.06.71-1.28 1.09-.47 1.25-1.19.85-2.24-2.48-6.39-4.18-13-6.42-19.5-.13-.36-.28-.71-.46-1.18a2.72 2.72 0 0 0-.8 1.54c-1.42 4.78-2.8 9.57-4.39 14.3-.4 1.18-1 2.27-1.44 3.42-.57 1.47-1.74 1.66-2.67.38a23.91 23.91 0 0 1-1.64-2.93c-1.5-2.88-2.86-5.83-4.53-8.62l.08-.12a15.06 15.06 0 0 0-1.58-2.69c-.16.86.6 5.07.85 6.51.75 4.47 1 9 1.37 13.49a1.6 1.6 0 0 0 .87 1.48c1 .52 1 1.4 0 1.91-1.78.9-3.58 1.82-5.67 1.67l-.48-1.31.28-.33c.4.05 1.13-.69 1.31-.78 1 0 1.3-.58 1.14-1.53-.2-1.18-.4-2.36-.52-3.55-.49-4.88-.85-9.77-1.62-14.62-.68-4.37-1.73-8.69-2.14-13.11l.34-.38a1.46 1.46 0 0 1 1.84.8c1.58 2.69 6 11.07 6 11.07.21.26 4.79 9.51 5.48 9.5zM122.13 60.22c.09.23.26.79.29.81.07.22 2 5.69 2 5.69h.06c.14.37.58 1.48.65 1.64s.19.55.26.75a41.81 41.81 0 0 0 2.41 6.58c.28.71.79.76 1.27 0a84.92 84.92 0 0 0 9.29-17.16c.51-1.38.33-2.92 1.18-4.17 1.11-.24 1.59.32 1.67 1.34a8.7 8.7 0 0 1 .06 2c-.44 2.71 1.25 10.18 1.25 10.19s1 5.34 1.21 5.93h.05c.56 3 1.12 5.92 1.66 8.89a.81.81 0 0 0 1.06.75c.53-.08 1.05-.23 1.58-.32s1 0 1.22.6-.28.85-.69 1.08a3.29 3.29 0 0 1-.85.34l-5.27 1.26a2.36 2.36 0 0 1-2-.35 1 1 0 0 0 0-.84l.47-.44c1.93-.35 2-.55 1.79-2.37-.34-2.65-1.29-5.16-1.57-7.83-.32-3.19-.89-6.35-1.52-9.5 0-.24.05-.57-.32-.66l-.34-1.31c-1.07.45-1.26 1.51-1.71 2.3-2.54 4.47-4.81 9.11-7.9 13.25-.47.63-.78 1.56-1.8 1.38s-1.42-1-1.73-1.85l-4.28-12.14c-.15-.42-.18-.91-.64-1.18-.3.24-.21.57-.21.86a145.83 145.83 0 0 1-1 17.48c-.06.57 0 1.07.58 1.36a.92.92 0 0 1 .59 1 1.14 1.14 0 0 1-1 .84 15 15 0 0 1-5.69.56c-.54-.7-.65-1.28.38-1.66 2.27-.83 2.27-.84 2.38-3.3 0-.23 0-.46.06-.69.22-5.22.94-10.41.83-15.65-.08-3.63-.21-7.26 0-10.88l.51-.55c.2.21 1.11.43 1.37.64 0 .14 0 .19.17.12.07.12 1.12 2.58 1.19 2.81h.06l.19.44zM191.93 85.83c-1.9-.13-3.13.82-3.37 2.45a1 1 0 0 0 .61 1.23c.42.17.77.41.59.95a.83.83 0 0 1-1 .56c-1.51-.25-3-.49-4.54-.79-.51-.1-1.14-.33-1.09-1s.71-.88 1.31-.84c1.18.07 1.62-.57 2-1.6A179 179 0 0 1 195 67.52a46.52 46.52 0 0 1 3.75-6.11c.32-.42.63-.92 1.29-.8s.75.8.87 1.35c1 4.76 1.7 9.59 2.46 14.4.72 4.62 1.67 9.21 2.33 13.85.1.74.28 1.37 1.24 1.55a.74.74 0 0 1 .06 1.45 9.16 9.16 0 0 1-5.61.68.9.9 0 0 1-.75-.92c0-.44.36-.64.72-.81.57-.26 1.4-.29 1.4-1.16 0-1.26.3-2.57-.47-3.73a1 1 0 0 0-.9-.43c-3.27 0-6.39-.99-9.46-1.01zm.06-2.08c.73.57 1.62.28 2.42.44 1.92.38 3.86.66 5.8.94 1.51.22 1.76 0 1.7-1.6a14.38 14.38 0 0 0-.21-2.07 940 940 0 0 0-1.8-9.23c-.25-1.27-.68-5.47-1.22-5.57s-.54.55-.73.9c-2.6 4.79-4.54 9.87-6.7 14.86-.25.7-.25 1.32.75 1.33zM179 82.14a40.53 40.53 0 0 0-2.23-8.14 40.3 40.3 0 0 1-1.77-6.37c-.77-4.16.68-7.81 3.92-9.79a3.54 3.54 0 0 1 4.85.36 18.55 18.55 0 0 1 1.46 1.48 1.17 1.17 0 0 0 1.2.46c.86-.17 1.4.38 1.08 1.22A10.31 10.31 0 0 1 184 66a.79.79 0 0 1-1.07 0 .92.92 0 0 1-.09-1.08 4.45 4.45 0 0 1 .47-.79 2.79 2.79 0 0 0-.64-4c-.81-.62-2.67-.28-3.52.66a5 5 0 0 0-1.15 4.63 84.14 84.14 0 0 0 3.17 10.43 16.6 16.6 0 0 1 .83 7.56c-.36 3.29-4.84 8.21-9.23 8.16a4.51 4.51 0 0 1-4.04-2.57c-1.55-2.77-1.45-5.72.3-7.71 2.35-2.66 5-1.31 6.14 1.18a4.2 4.2 0 0 1 .32 1.58 1.09 1.09 0 0 1-1 1.24 1.1 1.1 0 0 1-1.31-.88 8.63 8.63 0 0 1-.24-1.25 1.19 1.19 0 0 0-.8-1.15 1.44 1.44 0 0 0-1.58.41 2.82 2.82 0 0 0-.86 1.85 8.16 8.16 0 0 0 .39 3c.74 2.3 2.63 2.66 4.4 2 2.82-1.03 4.51-3.58 4.51-7.13zM153.86 82.11a17.13 17.13 0 0 1-2.63-1.86 11.22 11.22 0 0 1-.92-1c-5.06-7.28-1.13-18.63 8.73-20 2.41-.45 3.83.51 4.53.46a15 15 0 0 1 3.48 2.86q1.06 2.43 2.14 4.86a15.47 15.47 0 0 1 .46 2.95 13.81 13.81 0 0 1-4.57 10.12 10 10 0 0 1-5 2.61h-.54c-.86-.38-3.16-.06-5.68-1zM167.39 71a14.06 14.06 0 0 0-1-5.46 6.83 6.83 0 0 0-3.89-4.33 8.12 8.12 0 0 0-9.59 3.55 13.52 13.52 0 0 0 .63 13.87 6 6 0 0 0 7.77 2c3.78-2.03 6.02-5.16 6.08-9.63zM76.63 23a13.39 13.39 0 0 1-4 10.6 10 10 0 0 1-14 .63 6 6 0 0 0-.65-.47 8.67 8.67 0 0 0-.5-.9c-2.35-3.06-2.66-6.58-1.94-10.15a11.84 11.84 0 0 1 8.75-9.53c4.33-1.24 8.19 0 10.46 4.44A27.16 27.16 0 0 1 76.63 23zm-4-5.29c-1-3-6.43-3.73-8.73-2.71-4.57 2-6.14 7.56-5.24 11.93a9.74 9.74 0 0 0 1.88 5.32 6 6 0 0 0 8.43 1.8 10.88 10.88 0 0 0 5.36-12.14c-.33-1.47-.55-3.04-1.74-4.18zM99.63 61.75c.26-1.54.26-1.54-1.28-1.6h-.81c-.25-.53-.61-1.15.2-1.44 1.94-.68 3.88-1.45 6-.86.06.1.13.19.19.28a.34.34 0 0 0 .09.45c-.12.24-.18.58-.47.62-1.33.2-1.3 1.2-1.31 2.19a102.06 102.06 0 0 0 1 14c.23 1.68.44 3.37.61 5.06.07.71.21 1.28 1 1.42a.9.9 0 0 1 .82.85c0 .56-.47.77-.91.91a36.46 36.46 0 0 1-5 1.17c-.72-.94-.63-1.5.56-2s1.19-1.08 1-2.09A109.09 109.09 0 0 1 100 66.34a14.81 14.81 0 0 0-.37-4.59zM224 72.85c1.32-.16 2 .49 1.94 2a11 11 0 0 1-.83 3.71c-1.46 3.51-2.95 7-4.42 10.53a4 4 0 0 1-1.1 1.46.85.85 0 0 1-1.32 0c-.12-2 .88-3.8 1.47-5.65.86-2.75 2.08-5.39 2.74-8.21a9.05 9.05 0 0 1 1.52-3.84zM247.48 79.44c2.09 0 3 1.14 2.3 3-.92 2.46-2.93 3.88-5.14 5a.85.85 0 0 1-1.2-.36c-.26-.47 0-.82.35-1.11.93-.8 1.87-1.58 2.8-2.39.2-.17.42-.39.32-.69s-.44-.21-.69-.24c-.65-.07-1.39 0-1.57-.87s.39-1.28.93-1.72a3.53 3.53 0 0 1 1.9-.62zM240.79 82c.21-.34.2-.68-.31-.75-1-.14-1.8-.5-1.8-1.68 0-.85 1.31-2.14 2.31-2.32s1.69.51 2.2 1.32a6.62 6.62 0 0 1 .29 2.12c-.92 2.57-2.29 4.71-5.12 5.46-.92-.85.06-1.36.36-2a28.61 28.61 0 0 0 2.07-2.15zM218.56 97.3c0 1.54-.84 2.61-2 2.62a2.33 2.33 0 0 1-2.21-2.24 2.9 2.9 0 0 1 2.57-2.42c1.08 0 1.65.74 1.64 2.04z" fill="#fff"/></svg>