<svg xmlns="http://www.w3.org/2000/svg" viewBox="0 0 232 159"><path d="M168.28 85.19c.47 0 .94.02 1.42.08 2.38.26 4.52.82 6.67 1.9l2.65 1.33c1.71.86 3.48 2.21 4.68 3.69l1.44 1.77c.6.73.95 1.6 1.26 2.52.63 1.92 1.54 3.8 1.67 5.82l.28 4.21v2.19c.01 1.93.12 3.93-.48 5.76l-.98 3.01-1.59 3.78-1.31 2.25c-.66 1.13-1.75 2.19-2.91 2.92l-2.9 1.81c-2.05 1.28-4.37 1.88-6.76 2.4-.52.11-1.05.15-1.59.15-.63 0-1.26-.05-1.89-.1-2.14-.18-4.23-.32-6.29-.92-1.36-.4-2.45-1.2-3.61-1.97a37.51 37.51 0 0 1-5.38-4.37c-.62-.6-1.07-1.3-1.51-2.1-2.08-3.8-2.84-8.07-2.68-12.41l.1-2.62c.08-2.22.51-4.23.98-6.4.26-1.23.24-2.41.89-3.55.67-1.17 1.16-2.52 2.16-3.41l3.92-3.47c1.17-1.03 2.4-1.56 3.8-2.2 2.58-1.17 5.17-2.06 7.97-2.06m-.22 39.76c1.48 0 3.27-.27 4.24-.77l4.1-2.14c.62-.32 1.06-1.45 1.53-2 1.01-1.2 2.02-2.39 2.45-3.91.96-3.37 1.09-9.29.72-13.05-.27-2.71-1.6-5.07-2.75-7.59-3.05-2.63-6.21-4.36-10.15-4.36-.52 0-1.05.03-1.6.09-2.37.27-4.38 1.5-6.14 2.96-1.34 1.12-2.65 2.23-3.29 3.86l-1.22 3.12-.54 1.73c-.41 1.33-.31 2.78-.44 4.2-.16 1.8-.09 3.42.17 5.21.13.86.21 1.66.55 2.47.74 1.79 1.43 3.47 2.54 5.04.34.49 1 .82 1.39 1.19 2.03 1.95 4.29 3.43 7.15 3.86.37.06.82.08 1.3.08M94.14 85.24c3.63 0 7.9 1.13 11.14 2.32v6.29l-1.56-.46-2.86-.88-4.94-1.23-3.58-.2h-.18c-.96 0-2.18.39-3.04.62l-1.02.78-2.75 1.74c-.49.31-1.21.97-1.65 1.44-2.22 2.37-4.46 6.25-4.44 9.45l.04 7.18c0 1.15.44 2.72 1.05 3.65l1.1 1.69 3.28 3.9c1.55 1.84 4.97 3.14 8.12 3.14.49 0 .98-.03 1.45-.1l2.99-.42c2.69-.38 5.04-1.55 7.51-2.95l.18 3.8.13 2.63c-1.47.73-2.81 1.43-4.43 1.74l-6.93 1.35c-.55.06-1.1.08-1.65.08-2.97 0-5.93-.81-8.43-2.22-1.92-1.09-3.55-2.19-5.18-3.66l-1.83-2.14-1.53-2.65c-.68-1.18-1.18-2.36-1.5-3.68l-.78-3.23c-.48-2-.77-5.14-.32-7.01l.18-2.41.74-2.7.47-1.7c.89-2.13 1.95-4.17 3.33-6.02 1.32-1.77 4.86-4.74 6.64-5.47l3.13-1.28c.91-.37 1.7-.84 2.67-.96l2.67-.33c.57-.07 1.17-.1 1.79-.1m-71.27.91l-.11 2.64-.25 3.45-3.91-.16-8.39-.02-2.14-.02-.29.57v12.48l13.26-.03 1.64-.09.04 5.14-.84.38-12.82-.03c-.79.06-1.29.51-1.29 1.22l.02 16.07.12 1.96-1.79-.06-4.72-.12-.07-6.54-.15-3.39-.09-26.69-.11-6.51 4.73-.11 17.15-.16m176.19.09l11.29.03 2.01.2c.29-.02.58-.04.86-.04 4.21 0 8.15 2.51 10.46 6l1.12 2.22c.55 3.27-.77 8.42-2.93 10.65l-1.36 1.41c-3.01 3.11-5.17 2.15-5.21 2.91-.02.26.28.61.48.87l2.2 2.94.84 1.36 1.46 2.15 7.84 12.44-1.76.18-5.8.06-2.65-4.79-3.01-4.72-2.7-4.08-3.07-4.89-.38-.75c-.03-.05-.09-.07-.17-.07-.2 0-.52.11-.67.14l-2.08.33-.06 18.82-5.68.03c-.11.06-.37.15-.54.15-.07 0-.13-.02-.15-.06-.07-.14-.17-.52-.17-.69l-.12-3.21-.18-5.13.04-2.42.06-8.78.03-23.26m11.16 5.89h-.05l-3.46-.04c-.18 0-.41-.03-.62-.03-.18 0-.33.02-.4.11-.13.16-.04.65.08.9l.08 11.07c-.04.3-.02.76.12.92.04.04.1.05.17.05.22 0 .57-.13.74-.13l5.67-.11c3.08-.06 6.03-4.91 5.56-7.1a7.872 7.872 0 0 0-4.7-5.61c-.36-.14-.73-.19-1.12-.19-.69 0-1.41.15-2.07.15M50.18 86.22c.54.73.83 1.7 1.18 2.6l3.62 9.32 1.48 4.29 1.5 3.86 3.14 7.39 1.84 4.56 2.22 5.9 1.84 5.41-3.21.16-3.84.12-1.45-3.57-1.42-3.39-2.15-5.64c-.55.28-1.08.34-1.64.34-.41 0-.83-.03-1.27-.04l-6.73-.14-5.97-.05-2.27 6.48-2.11 5.94-5.05-.03-2.1-.1c.73-3.77 2.24-6.87 3.51-10.32l1.46-3.93c.87-2.35 1.73-4.53 2.69-6.85l2.51-6.04 1.03-2.96 2.13-5.84 1.91-5.08.98-2.21c.71.02 1.4.03 2.07.03 1.34 0 2.65-.05 4.1-.21m-8.34 25.23l4.71-.06 6.08-.03c.13 0 .5-.1.51-.22l.03-.63-2.01-5-2.93-7.39-.97-2.36c-.07-.17-.41-.37-.58-.37-.05 0-.09.02-.1.06l-.17.71c-.62 2.67-1.57 5.14-2.42 7.73l-1.91 5.87c-.19.57-.28 1.03-.25 1.69m98.45-25.02v5.53l-4.14-.04-4.4-.02-1.76.12v22.43l.19 2.42v12.73l-2.18-.04h-4.95l.11-4.26-.06-18.26-.1-15.06a1.18 1.18 0 0 0-.43-.06c-.18 0-.38.02-.58.02l-9.74.07.02-5.4 5.73-.11 22.3-.08m27.99-1.63c-3.1 0-5.85 1.06-8.13 2.1l-.21.1c-1.3.59-2.54 1.15-3.69 2.17l-3.92 3.47c-.8.7-1.28 1.66-1.75 2.58-.16.31-.32.63-.49.93-.5.88-.63 1.77-.76 2.63-.05.34-.1.69-.18 1.04-.47 2.19-.9 4.23-.98 6.47l-.1 2.62c-.18 4.74.74 8.99 2.73 12.62.54.98 1.01 1.64 1.58 2.2 1.74 1.7 3.47 3.1 5.43 4.42l.36.24c1.02.69 2.08 1.4 3.36 1.78 1.96.57 3.89.73 5.94.9l.43.04c.63.05 1.28.11 1.92.11s1.18-.05 1.68-.16c2.18-.47 4.7-1.09 6.88-2.45l2.9-1.81c1.26-.79 2.37-1.9 3.04-3.06l1.31-2.25s.02-.03.02-.05l1.59-3.78.99-3.04c.55-1.68.53-3.47.52-5.2v-.69l-.01-2.19-.28-4.23c-.1-1.56-.65-3.03-1.17-4.45-.18-.49-.36-.98-.52-1.47-.28-.85-.66-1.83-1.33-2.65L184 91.96c-1.18-1.46-2.98-2.87-4.81-3.79l-2.65-1.33c-2.07-1.04-4.24-1.66-6.81-1.94-.48-.05-.97-.08-1.46-.08zm-.21 39.77c-.46 0-.89-.03-1.24-.08-2.45-.37-4.65-1.56-6.93-3.76-.17-.16-.37-.31-.57-.45-.29-.21-.59-.43-.77-.68-1.06-1.5-1.74-3.14-2.46-4.86l-.04-.1c-.28-.66-.37-1.34-.48-2.06l-.05-.32c-.27-1.84-.33-3.41-.17-5.11.04-.45.06-.9.08-1.34.04-.98.08-1.91.35-2.78l.54-1.73 1.21-3.09c.61-1.56 1.91-2.65 3.17-3.7 2.09-1.74 3.97-2.65 5.93-2.87.52-.06 1.05-.09 1.55-.09 3.4 0 6.43 1.3 9.83 4.2.18.4.37.79.56 1.19.98 2.06 1.91 4.01 2.12 6.19.38 3.79.22 9.66-.7 12.9-.4 1.4-1.32 2.51-2.3 3.68l-.08.09c-.18.22-.35.5-.53.79-.27.45-.57.95-.88 1.11l-4.1 2.14c-.82.43-2.48.72-4.05.72zM94.14 84.84c-.65 0-1.26.04-1.83.11l-2.67.33c-.78.1-1.46.4-2.11.69-.22.1-.44.2-.66.29l-3.13 1.28c-1.91.78-5.51 3.86-6.8 5.59-1.27 1.7-2.38 3.69-3.38 6.1 0 .02-.01.03-.02.05l-.47 1.7-.74 2.7s-.01.05-.01.08l-.17 2.38c-.45 1.92-.17 5.12.33 7.16l.78 3.23c.32 1.31.81 2.51 1.54 3.79l1.53 2.65s.03.04.04.06l1.83 2.14s.02.03.04.04c1.54 1.39 3.11 2.5 5.25 3.71 2.59 1.47 5.65 2.27 8.62 2.27.57 0 1.13-.03 1.69-.09l6.96-1.35c1.56-.3 2.86-.95 4.24-1.63l.29-.14a.4.4 0 0 0 .22-.38l-.13-2.63-.18-3.8c0-.14-.08-.26-.21-.33-.06-.03-.13-.05-.19-.05s-.14.02-.2.05c-2.71 1.53-4.89 2.55-7.37 2.9l-2.99.42c-.44.06-.91.09-1.39.09-3.07 0-6.35-1.26-7.81-2.99l-3.28-3.9-1.07-1.65c-.56-.85-.98-2.33-.99-3.44l-.04-7.18c-.02-3.1 2.23-6.93 4.33-9.17.42-.45 1.12-1.09 1.57-1.38l2.75-1.74.99-.75.32-.09c.79-.22 1.77-.5 2.54-.5h.16l3.55.2 4.91 1.22 2.83.87 1.55.46s.08.02.11.02c.08 0 .17-.03.24-.08.1-.07.16-.19.16-.32v-6.29a.379.379 0 0 0-.25-.38c-2.39-.87-7.04-2.34-11.28-2.34zm-71.26.91l-17.15.16-4.74.11a.4.4 0 0 0-.39.4l.11 6.51.09 26.68.15 3.41.07 6.53c0 .21.17.39.39.39l4.72.12 1.79.06h.01a.4.4 0 0 0 .29-.12c.08-.08.12-.19.11-.3l-.12-1.96-.02-16.05c0-.66.58-.8.92-.83l12.79.03c.06 0 .11-.01.16-.04l.84-.38c.14-.06.24-.21.23-.37l-.04-5.14a.41.41 0 0 0-.4-.4h-.02l-1.64.09-12.83.03V92.69l.12-.27 1.89.02 8.39.02 3.89.16h.02c.21 0 .38-.16.4-.37l.25-3.45.11-2.66c0-.11-.04-.22-.11-.29a.4.4 0 0 0-.29-.12zm176.18.07c-.11 0-.21.04-.28.12a.42.42 0 0 0-.12.28l-.03 23.26-.06 8.78-.04 2.42.18 5.15.12 3.21c0 .23.12.66.21.85.04.08.18.28.51.28.21 0 .46-.08.63-.15l5.6-.03c.22 0 .4-.18.4-.4l.06-18.49 1.74-.28c.06 0 .14-.03.24-.06.08-.02.18-.05.26-.06l.29.59 3.09 4.93 2.71 4.09 3.01 4.72 2.64 4.77c.07.13.2.21.35.21l5.8-.06 1.79-.19c.14-.01.26-.1.32-.22s.05-.27-.02-.39l-7.84-12.44-1.47-2.16-.83-1.35-2.22-2.97-.08-.11c-.08-.11-.25-.32-.3-.45.1-.03.29-.07.44-.1.91-.18 2.61-.5 4.64-2.61l1.36-1.41c2.18-2.26 3.63-7.5 3.03-10.99a.21.21 0 0 0-.04-.11l-1.12-2.22c-2.55-3.85-6.68-6.22-10.82-6.22-.29 0-.58.01-.86.03l-1.97-.19-11.33-.03zm11.16 6.69c.35 0 .71-.04 1.05-.08.34-.04.69-.07 1.02-.07.39 0 .69.05.97.16 2.24.91 3.95 2.95 4.46 5.32.23 1.05-.47 2.91-1.67 4.41-1.09 1.38-2.37 2.18-3.51 2.2l-5.67.11c-.12 0-.24.03-.39.07-.08.02-.16.04-.23.05-.02-.11-.02-.31 0-.51v-.06l-.08-11.07c0-.05-.01-.11-.03-.16a1.7 1.7 0 0 1-.11-.46h.07c.1 0 .21 0 .31.02.11 0 .21.02.3.02l3.46.04h.05zM50.18 85.82h-.04c-1.29.14-2.54.21-4.06.21-.67 0-1.35-.01-2.06-.03-.16 0-.3.09-.36.24l-.98 2.21-1.92 5.1-2.13 5.84-1.03 2.97-2.5 6.02c-1 2.4-1.85 4.58-2.7 6.86l-1.46 3.93c-.33.89-.68 1.77-1.02 2.62-1.01 2.54-1.96 4.93-2.51 7.76-.02.11 0 .23.08.32s.18.15.29.15l2.1.1 5.07.03c.17 0 .32-.11.38-.27l2.11-5.94 2.18-6.21 5.68.05 6.73.14c.19 0 .38.01.56.02.25.01.48.02.72.02.42 0 .9-.03 1.41-.21l2 5.25 1.42 3.4 1.45 3.57c.06.15.21.25.37.25h.01l3.84-.12 3.22-.16a.394.394 0 0 0 .36-.52l-1.84-5.41-2.22-5.91-1.84-4.56-3.14-7.39-1.5-3.85-1.47-4.28-3.63-9.33c-.07-.18-.14-.36-.21-.55-.28-.75-.56-1.52-1.03-2.15a.403.403 0 0 0-.32-.16zm-7.95 25.23c.02-.42.1-.76.23-1.16l1.91-5.87c.23-.71.47-1.41.71-2.11.62-1.82 1.26-3.7 1.72-5.66l.08-.35.02.02.96 2.34 2.93 7.39 1.98 4.93-.02.36s-.1.02-.12.03l-6.08.03-4.31.06zm98.05-25.02l-22.3.08-5.73.11c-.22 0-.39.18-.39.4l-.02 5.4c0 .11.04.21.12.28.07.07.18.12.28.12l9.74-.07c.1 0 .21 0 .31-.01H122.59l.1 14.72.06 18.25-.11 4.24c0 .11.04.21.11.29s.18.12.29.12h4.95l2.18.04c.1 0 .2-.04.28-.11.08-.07.12-.18.12-.28v-12.73l-.18-2.45V92.4l1.38-.1 4.37.02 4.15.04c.11 0 .21-.04.28-.12.08-.07.12-.18.12-.28v-5.53a.459.459 0 0 0-.13-.28.42.42 0 0 0-.28-.12zM19.72 157.61c-.1 0-.2-.04-.27-.11a.383.383 0 0 1-.09-.44l.92-2.19c.61-1.44 1.37-3.21 1.15-4.58l-3.26-2.35-2.12-1.66a.406.406 0 0 1-.13-.44c.05-.16.2-.27.36-.27l6.9-.25 2.23-5.86a.38.38 0 0 1 .33-.25h.04a.4.4 0 0 1 .33.18c.59.9.86 1.98 1.12 3.02.24.95.46 1.85.9 2.54.1.16.27.32.77.32.25 0 .51-.04.76-.07.26-.04.5-.07.71-.07l4.51.22c.16 0 .3.11.36.26s.01.32-.11.43l-1.76 1.61-3.29 2.68c-.12.1-.36.52-.36.66l1.15 3.3c.11.31.25.58.39.86.26.51.54 1.03.64 1.85.02.16-.06.31-.19.39a.36.36 0 0 1-.2.06.4.4 0 0 1-.23-.08l-2.87-2.07-1.76-1.09c-.36-.22-.69-.35-.92-.35-.09 0-.16.02-.21.06l-.19.14c-1.8 1.35-3.35 2.51-5.42 3.51-.05.03-.11.04-.17.04z" fill="#fff"/><path d="M25.78 139.6c1.07 1.64 1.04 4.02 2.01 5.56.25.4.66.51 1.1.51.51 0 1.06-.14 1.46-.14h.08l4.41.22-1.76 1.61-3.28 2.66c-.2.16-.59.79-.49 1.06l1.16 3.34c.32.93.87 1.44 1.01 2.63l-2.87-2.07-1.78-1.11c-.31-.19-.75-.41-1.13-.41-.16 0-.32.04-.44.14-1.84 1.38-3.44 2.59-5.54 3.61l.7-1.67c.7-1.66 1.73-3.8 1.36-5.47l-3.39-2.44-2.1-1.65 7.16-.26 2.32-6.11m.01-.8h-.09c-.3.03-.55.23-.66.51l-2.13 5.61-6.63.24c-.33.01-.62.23-.73.55-.1.32 0 .67.27.87l2.1 1.65 3.14 2.27c.12 1.23-.58 2.87-1.14 4.2l-.22.52-.7 1.67a.8.8 0 0 0 .74 1.11c.12 0 .24-.03.35-.08 2.1-1.01 3.67-2.19 5.48-3.54l.16-.12c.13 0 .38.08.71.29l1.76 1.09 2.84 2.05c.14.1.3.15.47.15.14 0 .28-.04.41-.11.27-.16.42-.47.38-.78-.11-.89-.41-1.48-.68-1.99-.14-.27-.27-.52-.37-.8l-1.11-3.19c.05-.11.15-.28.21-.34l3.26-2.65 1.8-1.64c.24-.22.32-.56.21-.86a.813.813 0 0 0-.71-.53l-4.41-.22h-.12c-.25 0-.51.04-.76.07-.24.03-.49.07-.7.07-.34 0-.4-.09-.43-.14-.41-.64-.62-1.51-.85-2.43-.27-1.08-.54-2.19-1.17-3.15a.792.792 0 0 0-.67-.36zM199.61 157.98c-.08 0-.17-.03-.24-.08-.14-.1-.2-.29-.14-.45l1.72-4.84.76-1.79-3.08-2.69-2.39-1.85a.41.41 0 0 1-.14-.44c.05-.16.19-.27.36-.28l3.71-.17 3.09-.13.96-3.42 1.05-2.75c.06-.15.2-.25.36-.26h.02c.15 0 .29.09.36.23.66 1.37 1.18 2.45 1.53 3.76.08.29.14.6.21.9.14.67.28 1.3.56 1.82l6.78.21c.17 0 .32.12.37.29.05.17-.02.34-.16.44l-2.31 1.57-2.59 1.91c-.62.46-.73.85-.47 1.61l1.91 5.66c.06.17 0 .35-.15.45a.404.404 0 0 1-.48-.02l-3.21-2.54-1.95-1.48c-.29 0-.75.22-.95.37l-5.26 3.88c-.07.05-.15.08-.24.08z" fill="#fff"/><path d="M205.65 139.25c.65 1.36 1.16 2.41 1.5 3.69.28 1.04.38 2.17.93 3l6.99.22-2.31 1.57-2.6 1.92c-.79.59-.91 1.18-.62 2.05l1.91 5.66-3.21-2.54-1.96-1.48a.478.478 0 0 0-.27-.08c-.37 0-.91.26-1.15.44l-5.26 3.88 1.72-4.84.86-2.03-3.29-2.88-2.41-1.86 3.71-.17 3.38-.14 1.04-3.7 1.04-2.71m0-.8h-.03c-.32.01-.6.21-.71.51l-1.04 2.71s-.02.05-.02.07l-.89 3.14-2.8.11-3.71.17c-.33.02-.62.24-.72.56-.1.32 0 .67.27.87l2.41 1.86 2.82 2.47-.64 1.5-1.74 4.89c-.12.33 0 .7.28.91.14.1.31.16.47.16s.33-.05.47-.16l5.26-3.88c.16-.12.44-.24.6-.27l1.83 1.38 3.2 2.53a.79.79 0 0 0 .95.02c.29-.2.41-.57.3-.91l-1.91-5.66c-.2-.59-.14-.81.33-1.16l2.6-1.92 2.28-1.55c.29-.19.41-.55.32-.88-.1-.33-.4-.56-.74-.57l-6.54-.21c-.19-.43-.31-.96-.43-1.51-.07-.31-.13-.61-.21-.92-.36-1.35-.89-2.44-1.56-3.83a.784.784 0 0 0-.72-.45zM108.56 157.96a.34.34 0 0 1-.22-.07l-3.34-2.27c-.27-.19-.53-.44-.79-.71-.45-.45-.92-.92-1.45-.99-.06 0-.12-.01-.18-.01-.66 0-1.14.45-1.66.92-.23.21-.47.43-.71.59l-3.27 2.19a.44.44 0 0 1-.22.07c-.08 0-.17-.03-.24-.08a.41.41 0 0 1-.14-.44l1.38-4.46c.1-.31.26-.55.42-.77.2-.27.37-.51.42-.89-.06-.06-.18-.14-.26-.2-.17-.12-.33-.23-.43-.37-1.16-1.61-2.61-2.71-4.73-4.08a.404.404 0 0 1-.17-.45c.05-.17.21-.29.38-.29l6.87-.03.95-3.36c.29-1.02.59-2.08 1.51-3.19a.41.41 0 0 1 .4-.13.4.4 0 0 1 .3.3l1.42 5.95 3.2-.03 3.86.26c.18.01.32.14.36.31a.41.41 0 0 1-.19.44c-2.13 1.22-3.75 2.47-5.1 3.94-.02.34-.02.8.03.96l1.98 6.37c.05.16 0 .34-.14.44-.07.05-.15.08-.24.08z" fill="#fff"/><path d="M102.99 139.34l1.5 6.26 3.51-.03 3.83.26c-2 1.15-3.77 2.44-5.28 4.11-.04.34-.04.98.04 1.25l1.98 6.37-3.34-2.27c-.72-.49-1.4-1.64-2.42-1.76-.08 0-.16-.01-.23-.01-1.15 0-1.84 1.07-2.6 1.58l-3.27 2.19 1.38-4.46c.19-.62.78-.94.87-1.82.03-.27-.62-.53-.78-.76-1.26-1.74-2.88-2.92-4.84-4.18l7.17-.03 1.03-3.65c.31-1.08.58-2.02 1.44-3.05m.01-.8c-.23 0-.46.1-.61.29-.98 1.18-1.29 2.28-1.59 3.34l-.87 3.07-6.57.03c-.35 0-.66.23-.76.57-.1.34.04.7.33.89 2.08 1.34 3.5 2.42 4.62 3.98.14.2.34.33.53.47.01 0 .03.02.04.03-.06.17-.17.32-.3.5-.17.24-.37.51-.48.89l-1.38 4.46c-.1.32.01.67.29.87.14.1.31.16.48.16.15 0 .31-.04.44-.13l3.27-2.19c.27-.18.52-.41.76-.63.55-.51.92-.81 1.39-.81h.14c.4.05.81.47 1.21.87.27.27.54.55.85.76l3.34 2.27c.14.09.29.14.45.14.17 0 .33-.05.47-.16.27-.2.39-.55.29-.88l-1.98-6.37c-.02-.09-.04-.4-.03-.68 1.3-1.39 2.86-2.59 4.9-3.76a.8.8 0 0 0-.34-1.49l-3.83-.26H108l-2.88.03-1.35-5.64a.804.804 0 0 0-.59-.59c-.06-.01-.12-.02-.18-.02zM134.74 157.47c-.5-.08-.72-.23-.97-.42l-.19-.13-5.07-3.41-1.43.76-3.41 2.52c-.07.05-.15.08-.24.08a.34.34 0 0 1-.22-.07c-.14-.1-.2-.27-.16-.43l1.21-4.52.5-1.12-1.75-1.62-3.44-3.04a.402.402 0 0 1-.11-.44c.06-.15.21-.26.37-.26l3.93-.03 2 .16 1.67-3.35.91-2.12c.06-.15.21-.24.37-.24s.31.11.36.26l1.97 5.27s.14.02.35.02c.1 0 .53-.01.53-.01l3.61.08 2.84.13c.17 0 .32.12.36.28s-.01.34-.15.44l-1.96 1.42-3.24 2.56c-.17.13-.29.59-.22.81l1.98 5.9c.04.13.02.28-.07.38-.08.09-.19.14-.3.14h-.06z" fill="#fff"/><path d="M128.73 140.2l2.01 5.37c.1.15.39.18.68.18.19 0 .39-.01.54-.01h.05l3.55.08 2.83.13-1.96 1.42-3.25 2.56c-.3.24-.48.87-.35 1.25l1.98 5.9c-.51-.08-.63-.24-.99-.49l-5.27-3.55-1.64.88-3.46 2.55 1.21-4.52.6-1.32-1.96-1.81-3.45-3.04 3.93-.03 2.23.18 1.8-3.59.92-2.14m0-.79c-.32 0-.61.19-.73.48l-.92 2.14-1.54 3.06-1.7-.14h-.06l-3.93.03c-.33 0-.62.21-.74.52-.12.31-.03.66.22.88l3.45 3.04 1.53 1.41-.36.8s-.03.08-.04.12l-1.21 4.52c-.09.33.04.67.32.86.14.09.29.14.45.14.17 0 .33-.05.47-.16l3.41-2.52 1.17-.62 4.87 3.28c.07.04.12.09.18.12.27.2.55.4 1.15.49h.12a.8.8 0 0 0 .61-.28c.18-.21.23-.5.15-.77l-1.98-5.9c-.02-.08.04-.31.1-.38l3.23-2.55 1.93-1.4c.27-.2.39-.55.29-.87a.816.816 0 0 0-.73-.57l-2.83-.13-3.57-.08H131.38l-1.88-5.03c-.11-.3-.4-.51-.73-.52h-.02zM174.42 157.77c-.08 0-.17-.03-.24-.08a.385.385 0 0 1-.13-.45l2.29-6.69-1.65-1.6c-.94-.91-1.99-1.6-3.11-2.33l-.55-.36a.399.399 0 0 1 .21-.73l3.31-.1 3.36-.12 1.39-4.5c.05-.15.06-.29.08-.44.05-.37.11-.83.57-1.3a.4.4 0 0 1 .29-.12h.08c.13.03.24.13.29.25l2.21 6.18c.33.08.77.14 1.08.15l5.19.21c.16 0 .31.11.36.27.05.16 0 .33-.12.43l-3 2.54-1.96 1.53c-.1.12-.03.81.18 1.3l1.18 2.84.86 2.42c.06.16 0 .33-.12.44-.07.06-.17.1-.26.1-.06 0-.13-.02-.19-.05-.77-.41-1.15-.71-1.58-1.05-.13-.1-.27-.21-.42-.33l-2.68-2.02-.2-.16c-.22-.18-.48-.39-.68-.39-.04 0-.12 0-.22.08l-2.95 2.2-2.66 1.8c-.07.05-.15.07-.22.07z" fill="#fff"/><path d="M180.23 139.34l2.29 6.38c.36.11.98.2 1.37.22l5.19.21-3 2.54-1.94 1.52c-.36.28-.14 1.3.05 1.77l1.18 2.84.86 2.4c-.96-.52-1.28-.84-1.95-1.35l-2.68-2.02c-.32-.24-.7-.63-1.12-.63-.15 0-.3.05-.46.16l-2.95 2.2-2.64 1.79 2.37-6.93-1.83-1.78c-1.12-1.08-2.38-1.85-3.72-2.73l3.31-.1 3.64-.13 1.48-4.77c.17-.55.02-1.03.55-1.58m0-.8c-.21 0-.42.08-.57.24-.55.57-.62 1.12-.68 1.53-.02.14-.03.26-.07.37l-1.31 4.23-3.08.11-3.31.1c-.35.01-.65.25-.74.58-.09.33.04.69.33.88l.55.36c1.1.72 2.14 1.4 3.05 2.28l1.47 1.42-2.21 6.45c-.11.32 0 .68.27.89.14.11.31.16.48.16.16 0 .31-.05.45-.14l2.64-1.79 2.98-2.22c.06.01.29.19.41.29.07.06.14.11.21.16l2.68 2.02c.15.12.29.22.42.32.43.34.84.67 1.64 1.09.12.06.25.09.38.09.19 0 .37-.07.52-.19.25-.21.34-.56.23-.87l-.86-2.4-1.19-2.88c-.12-.29-.2-.72-.19-.92l1.83-1.43 3.03-2.56c.25-.21.35-.56.24-.87a.81.81 0 0 0-.72-.54l-5.19-.21c-.22 0-.53-.05-.8-.1l-2.14-5.97a.79.79 0 0 0-.58-.51c-.06-.01-.11-.02-.17-.02zM159.84 157.45a.34.34 0 0 1-.23-.08l-2.15-1.55-3.12-2.11c-.83.27-1.6.85-2.35 1.42-.33.25-.66.5-1 .73l-2.14 1.43a.44.44 0 0 1-.22.07c-.09 0-.17-.03-.24-.08a.385.385 0 0 1-.13-.45l1.17-3.36.96-2.93c-.59-.71-1.37-1.34-1.92-1.76l-3.47-2.64a.41.41 0 0 1-.14-.44c.05-.16.19-.27.36-.28l6.52-.32.72-2.28 1.33-3.03a.384.384 0 0 1 .72.02l1.17 3.07.97 2.77 1.94.14 4.34.12c.17 0 .32.11.37.27.05.16 0 .33-.13.44l-3.2 2.5-1.77 1.74 1.33 3.72.68 2.36c.05.16-.01.34-.15.44a.39.39 0 0 1-.23.07z" fill="#fff"/><path d="M154.16 139.95l1.18 3.07 1.05 3 2.2.16 4.36.12-3.2 2.5-1.99 1.94 1.41 3.96.67 2.34-2.15-1.55-3.28-2.22c-1.36.36-2.48 1.47-3.63 2.25l-2.14 1.43 1.17-3.36 1.03-3.14c-.57-.74-1.34-1.4-2.12-1.99l-3.47-2.64 6.79-.34.8-2.55 1.31-2.99m.01-.79c-.32 0-.6.19-.73.48l-1.31 2.99s-.02.05-.03.08l-.64 2.02-6.24.31c-.33.02-.62.24-.72.56-.1.32.01.67.28.87l3.47 2.64c.49.37 1.17.91 1.71 1.53l-.9 2.73-1.16 3.35a.803.803 0 0 0 .76 1.06c.15 0 .31-.04.44-.13l2.14-1.43c.35-.23.69-.49 1.02-.74.69-.53 1.35-1.03 2.05-1.29l2.96 2.01 2.13 1.53a.797.797 0 0 0 .93 0c.28-.2.4-.55.31-.87l-.67-2.34-1.26-3.53 1.59-1.56 3.17-2.47a.82.82 0 0 0 .27-.88c-.1-.32-.4-.54-.73-.55l-4.36-.12-1.65-.12-.87-2.51-1.18-3.09c-.12-.3-.4-.5-.72-.51h-.02zM71.79 157.69s-.09 0-.14-.02a.391.391 0 0 1-.25-.28c-.21-.92.07-1.6.35-2.25.05-.12.1-.24.15-.37l1.34-3.41c.26-.67.21-.86-.34-1.28l-4.67-3.55a.395.395 0 0 1 .22-.71l5.51-.33c.66-.04.89-.07 1.07-.54l1.8-4.77c.06-.15.2-.25.36-.26h.01c.15 0 .3.09.36.23l2.49 5.37c1-.12 1.94-.19 2.86-.19 1.12 0 2.22.09 3.35.28.15.02.27.13.32.28.04.15 0 .31-.12.41l-1.45 1.3-2.71 2.28c-.12.1-.25.2-.39.3-.24.17-.54.39-.59.55-.11.3-.04.83.19 1.46l1.69 4.7c.06.16 0 .33-.12.44a.41.41 0 0 1-.45.04l-.31-.18c-1.12-.63-2.1-1.17-3.02-2.01l-1.7-1.56-1.61 1.05-3.98 2.95c-.07.05-.15.08-.24.08z" fill="#fff"/><path d="M77.23 140.3l2.62 5.63c1.07-.15 2.09-.22 3.1-.22 1.1 0 2.18.09 3.29.27l-1.45 1.3-2.7 2.27c-.39.33-.97.63-1.1 1.02-.17.49 0 1.2.19 1.72l1.69 4.7c-1.26-.71-2.29-1.25-3.26-2.13l-1.93-1.76-1.87 1.22-4 2.96c-.22-.95.18-1.6.49-2.38l1.34-3.42c.33-.83.23-1.21-.47-1.74l-2.01-1.53-2.66-2.02 5.37-.32c.69-.04 1.26-.02 1.56-.81l1.8-4.77m0-.79h-.03c-.32.01-.6.21-.72.51l-1.8 4.77c-.09.23-.09.25-.72.28h-.14l-5.37.33c-.33.02-.62.24-.71.56-.1.32.01.66.28.87l2.66 2.02 2.01 1.53q.41.31.21.81l-1.34 3.42-.15.36c-.29.68-.62 1.45-.37 2.49.06.26.25.47.5.57.09.03.18.05.28.05.17 0 .33-.05.47-.16l4-2.96 1.31-.86 1.48 1.35c.95.87 1.94 1.42 3.08 2.06l.32.18c.12.07.26.1.39.1.18 0 .37-.06.51-.19.25-.21.35-.56.24-.88l-1.69-4.7c-.22-.63-.24-1.03-.18-1.19.04-.06.3-.25.45-.36.14-.1.29-.21.41-.31l2.7-2.27 1.47-1.32c.23-.2.32-.52.23-.82s-.33-.51-.64-.56c-1.15-.19-2.27-.28-3.42-.28-.85 0-1.71.05-2.62.15l-2.37-5.1a.793.793 0 0 0-.72-.46zM45.52 157.42a.4.4 0 0 1-.23-.08c-.14-.1-.2-.28-.15-.44l1.31-4.09.6-1.81c.06-.17.21-.75-.23-1.05l-5.28-3.73c-.14-.1-.2-.27-.16-.43s.18-.28.35-.29l3.23-.27 3.7-.05 2.24-5.6c.06-.15.21-.25.37-.25h.02c.17 0 .32.12.36.29l1.72 5.86 4.51-.07c.22 0 .44-.02.65-.03.25-.02.5-.03.76-.03.39 0 .75.04 1.11.11.15.03.27.15.31.3.04.15-.02.31-.14.4l-3.67 2.97c-.18.15-.37.29-.56.43-.46.34-.94.69-1.27 1.14l1.39 3.65.88 2.54c.06.16 0 .34-.14.45-.07.05-.16.08-.24.08s-.16-.02-.23-.07l-3.26-2.31-2.58-1.34c-.66.28-1.27.76-1.86 1.23-.24.19-.47.37-.7.54l-2.58 1.88a.4.4 0 0 1-.23.08z" fill="#fff"/><path d="M51.28 139.73l.39 1.3 1.42 4.85 4.82-.08c.49 0 .93-.06 1.4-.06.32 0 .65.02 1.03.1l-3.67 2.97c-.69.55-1.53 1.03-2.03 1.83l1.46 3.84.87 2.53-3.26-2.31-2.79-1.45c-1.05.38-1.93 1.24-2.82 1.88l-2.58 1.88 1.31-4.09.6-1.81c.18-.54.12-1.15-.38-1.5l-5.28-3.73 3.23-.27 3.94-.05 2.34-5.84m0-.79c-.32 0-.62.2-.74.5l-2.14 5.35-3.4.04h-.06l-3.23.27c-.33.03-.61.26-.7.58a.8.8 0 0 0 .31.86l5.28 3.73c.21.15.11.5.08.6l-.6 1.81-1.32 4.1c-.11.33.01.69.29.89.14.1.3.15.47.15s.33-.05.47-.15l2.58-1.88c.24-.17.48-.36.72-.55.52-.41 1.05-.83 1.6-1.1l2.41 1.25 3.22 2.27a.79.79 0 0 0 .94-.01c.28-.21.39-.57.27-.9l-.87-2.53-1.32-3.46c.28-.33.66-.6 1.05-.89.2-.14.39-.29.58-.44l3.68-2.97c.24-.19.35-.51.27-.81s-.31-.53-.61-.59c-.39-.08-.77-.12-1.19-.12-.27 0-.52.02-.79.03-.2.01-.41.03-.63.03l-4.21.07-1.25-4.27-.39-1.31a.803.803 0 0 0-.73-.57h-.04zM133 33.36c-1.18-.49-2.65-.34-3.95-.03l-2.87.68.13 2.06.19 2.82.61 4.39c1.26-.17 2.27-.38 3.16-.7l-.38-2.72-.19-2.79-.09-1.39 2.21-.53c.74-.18 1.41-.27 1.99-.27.4 0 .76.05 1.09.13-.34-.74-.97-1.27-1.91-1.66zM21 68.77l-.86-1.18c-1.36.03-2.63.28-3.89.82-1.58.68-3.17.97-4.87 1.29-.7.13-1.24.63-1.74 1.01-.44.34-.57.44-.68 1.05l-.7 3.84-.57 2.18-.73 1.24c-.47.3-1.03.46-1.6.57l-.31 1.35c-.06.28.03.56.23.76a.81.81 0 0 0 .77.19l.99-.29h.04c.93-.14 1.99-.29 2.88-.85.11-.07.2-.16.26-.27l.73-1.24c.04-.06.07-.13.08-.2l.57-2.18s0-.04.01-.06l.7-3.84q.06-.32.38-.56c.07-.05.14-.11.21-.17.38-.3.78-.61 1.19-.69l.17-.03c1.67-.32 3.26-.62 4.86-1.3.66-.28 1.35-.48 2.06-.6-.08-.27-.15-.54-.22-.82zM125.04 21.78c-.16 1.58.12 2.88.27 4.38.15 1.41.13 2.88.54 4.2a6.26 6.26 0 0 0 3.06-.71c-.05-.42-.08-.86-.11-1.31-.03-.4-.06-.81-.1-1.21-.04-.36-.08-.71-.13-1.05-.11-.88-.22-1.72-.18-2.62 1.08-.28 2.24-.56 3.25-.56.26 0 .5.02.73.06-.08-.18-.17-.36-.28-.51-1.52-2.11-4.39-1.37-7.04-.66zM72.5 43.42l.19 6.42 2.33-.45 1.01-.22-.14-4.73c-.02-.59-.04-1.49-.92-2.15-.26-.2-.62-.3-1.04-.3-.47 0-1.09.14-1.57.49.11.28.13.59.14.93zM12.92 55.75l-.64 3.76-1.43 6.2c.27.25.61.54.75.45l.78-.51c.72-.18 1.5-.35 2.26-.53l1.01-4.39v-.04l.22-1.3c-.83-1.47-1.52-3.01-2.1-4.71-.44.14-.79.64-.86 1.07zM56.77 47.71c-.75-.02-1.4.28-2.1.6-1.22.55-2.11 1.22-2.89 2.33-.87 1.23-1.65 2.74-1.54 4.33l.21 3.2.85 3.39 1.54 1.12c.95.69 2.36.99 3.76.78-.25-.1-.49-.23-.69-.37l-1.31-.95-.76-3.04-.21-3.13c-.08-1.13.38-2.38 1.39-3.82.67-.95 1.41-1.54 2.57-2.06l.07-.03c.6-.27 1.11-.5 1.63-.5h.05c.63.02 1.29.14 1.91.37-.96-1.44-2.69-2.16-4.49-2.22zM37.07 59.05c-.11-.41-.19-.79-.15-1.1l.21-1.88c.84-.05 1.59-.25 2.21-.41-.06-.33-.18-.68-.38-1.04-.18-.31-.38-.75-.61-.9-.78-.5-2.44.64-4.52.51l-.29 2.59c-.09.84.35 1.84.53 2.73.2.98 1.63.48 3.01-.5zM98.45 39.2c-.07-.15-.44-.35-.55-.28-.08.05-.31.32-.34.44l-.9 3.49-.42 2.06-.22 2.22 3.68-1.38.34-1.67.23-.89-.74-1.7-1.07-2.28zM150.41 29l-.25-2.99c-.01-.17-.02-.32 0-.43.85-.28 1.65-.52 2.42-.56-.24-.82-.81-1.66-1.75-1.8-1.26-.19-2.55.25-3.83.67-.28.09-.25.86-.22 1.15l.4 4.66c1.31.15 2.28-.2 3.25-.69zM205.89 6.85l.47 2.85-1.83-.55c-2.08-.37-4.37-.15-6.18.69-3.57 1.64-5.4 4.92-5.11 8.74.15 1.9.57 3.82 2.08 5.11 1.23 1.05 2.95 1.36 4.54 1.21-.49-.16-.99-.4-1.42-.78-1.09-.93-1.63-2.3-1.81-4.56-.27-3.57 1.42-6.47 4.65-7.95 1.12-.52 2.46-.79 3.87-.79.61 0 1.21.05 1.79.15l1.79.53a.813.813 0 0 0 .76-.17c.21-.18.3-.46.26-.73l-.47-2.85a.802.802 0 0 0-.5-.61c-.8-.31-1.74-.47-2.66-.47-.22 0-.44.01-.65.03.15.04.29.09.43.14zM224.17 10.36l-2.33.6.1 1.33-6.25 1.7c-.34.09-.26 1.07-.22 1.46l.43 4.91 3.24-.78-.27-3.16c-.03-.35-.04-.58-.03-.72l5.92-1.61c.37-.1.61-.45.58-.83l-.16-2.21a.81.81 0 0 0-.33-.59.79.79 0 0 0-.46-.15c-.07 0-.13 0-.2.03zM221.31 3.69l-3.06.88-2.65.72c-1.73.47-.67 1.62-.63 4.54 0 .66.27 1.4.75 1.83l2.65-.69v-.11c-.01-1.02-.14-1.82-.24-2.46-.08-.48-.15-.94-.1-1.12.02-.06.22-.14.38-.18l2.65-.72 3.07-.89c.38-.11.62-.48.57-.87l-.29-2.27a.794.794 0 0 0-.79-.7c-.06 0-.13 0-.19.02l-2.29.57.18 1.43zM180.8 16.41c-1.65-.65-3.14-.71-4.73-.37l-2.99.65c-.24.05-.73.3-.79.52-.05.18-.03.57 0 .83l.53 5.7.64 4.72.17 2.25c.02.24.07.53.16.67.25.42 1.7.06 3.17-.54l-.1-1.4v-.05l-.64-4.7-.53-5.68c-.02-.18-.02-.31-.02-.41.07-.04.15-.07.2-.08l2.99-.65c.58-.13 1.12-.19 1.65-.19.63 0 1.26.09 1.9.28-.41-.74-.95-1.29-1.59-1.55z" fill="#fff"/><path d="M201.67 19.19c.03.58.1 1.15.24 1.69.05.21.19.39.37.5a.802.802 0 0 0 .62.08l1.35-.39c0-.84-.1-1.72-.15-2.59l-2.43.71zM167.68 29.47l-.37-3.62-.65-5.71-.1-2.24a.793.793 0 0 0-.31-.6.779.779 0 0 0-.49-.16c-.06 0-.11 0-.17.02l-2.39.53.07 1.47.65 5.73.37 3.62.55 5.98c.06.7 0 1.47-.39 2.25-.13.09-.32.18-.52.25l.14 1.49c.02.22.13.42.31.56.14.11.31.17.49.17.04 0 .09 0 .13-.01 1.01-.17 1.96-.35 2.52-.76a.86.86 0 0 0 .25-.29c.4-.81.56-1.69.47-2.68l-.55-5.98zM148.95 32.19l-1.76.16 1.09 7.92-.14.73c-.04.2-.53.33-.74.36l-.3.04.06 1.29c0 .22.11.43.28.57.14.12.33.19.52.19h.09l2.04-.24c.21-.02 1.27-.19 1.43-1l.14-.73a.57.57 0 0 0 0-.26l-.91-6.65-1.8-2.36zM107.26 44.45c-.19-.34-.38-.69-.56-1.03l-4.55-8.34a.796.796 0 0 0-.7-.42c-.08 0-.15.01-.23.03l-1.9.57 4.08 7.49c1.61 2.96 3.26 5.8 4.43 9.07l-1.69.51.74 1.7c.13.3.42.48.73.48.08 0 .15-.01.23-.03l2.82-.84c.21-.06.38-.21.48-.4.1-.2.11-.42.04-.63-1.06-2.95-2.51-5.6-3.92-8.16zM137.73 30.02c.11-.19.25-.41.38-.61.71-1.12 1.78-2.81 2.06-4.84.2-1.43-.4-2.94-1.07-4.37-.54-1.16-1.8-2.15-3.27-2.59-.53-.16-1.24-.24-2.1-.24-.18 0-.37 0-.56.01 1.09.36 2.15 1.11 2.61 2.11.56 1.19 1.17 2.64 1 3.92-.41 3-2.73 5.24-2.63 5.94.11.75 2.99-.2 4.51 3.22 1.39 3.15.49 6.25-1.25 9.15-.57.96-1.66 1.53-2.62 2.14-1.05.68-2.05 1.36-3.32 1.76l-3.58 1.13-2.96.8c-.16.04-.32.08-.48.11l.1 1.26c.03.41.38.73.79.73h.02c.9-.02 1.61-.08 2.37-.29l2.96-.8h.03l3.58-1.13c1.3-.41 2.34-1.09 3.35-1.74l.17-.11c.15-.1.31-.2.47-.3.85-.54 1.82-1.14 2.4-2.11 2.19-3.67 2.61-6.9 1.29-9.88-1.19-2.69-3.18-3.08-4.24-3.28zM30.14 71.41c-.23-.6-.47-1.22-.83-1.83l-2.85-4.72c-1.31-2.16-2.54-4.46-3.99-7.45l-2.53-5.22c-.16-.33-.33-.62-.5-.91-.3-.51-.56-.94-.68-1.47-.11-.48-.36-1.1-.93-1.29-.24-.08-.57-.1-.81-.1-.31 0-.57.03-.75.09l-.92.31.03.12c.23.98.82 1.67 1.24 2.54l2.53 5.22c1.27 2.61 2.53 5.04 4.02 7.52l2.85 4.72c.83 1.38.97 2.97 2.24 4.37l-3.48 1.03c.48.64 1.04 1.23 1.68 1.77a.826.826 0 0 0 .74.16l3.88-1.15c.26-.08.47-.28.54-.55a.82.82 0 0 0-.18-.75c-.67-.74-.98-1.56-1.31-2.42zM226.3 21.71l-.51-2.17a.827.827 0 0 0-.37-.51.802.802 0 0 0-.4-.11c-.07 0-.15 0-.22.03l-2.17.61.3 1.27-6.39 1.71-1.4.38.14 1.57c.02.23.14.45.34.58.14.09.29.14.46.14.07 0 .14 0 .21-.03l3.07-.83 6.39-1.71a.79.79 0 0 0 .57-.95z" fill="#fff"/><path d="M210.44 19.81v-.04l-.52-3.3a.767.767 0 0 0-.35-.54.78.78 0 0 0-.44-.13c-.06 0-.13 0-.19.02l-2.28.56.39 2.47.51 4.73c-.95 1.29-2.54 2.17-4.02 2.87-2.53 1.2-3.77 1.49-6.63 1.18-.88-.1-1.76-.34-2.55-.74 1.14 1.42 2.94 2.34 5.06 2.57.76.08 1.38.12 1.94.12 1.88 0 3.2-.46 5.11-1.37 1.54-.73 3.26-1.68 4.32-3.12.12-.16.17-.36.15-.56l-.51-4.73zM188.92 18.99c-.22-1-.47-2.12-1.31-3.05-.57-.63-1.58-1.42-2.54-1.73-.92-.3-2.15-.71-3.22-.71-.14 0-.27 0-.39.02-.12.01-.25.03-.37.05.4.11.79.24 1.14.36.78.26 1.67.93 2.2 1.51.93 1.03 1 2.41 1.36 3.67.31 1.09.34 1.95.22 3.09-.2 1.87-.27 3.94-1.54 5.53-1.18 1.47-2.6 2.81-4.1 4.04-1.26 1.04-3.04 1.31-4.62 1.82l-2.77.91.05.73s.01.1.02.15c.21.81 1.27 1.12 1.89 1.12.19 0 .36-.03.51-.08l3.14-1.02c.38-.12.76-.23 1.17-.35 1.29-.36 2.63-.73 3.7-1.62 1.74-1.44 3.12-2.8 4.21-4.16 1.29-1.61 1.48-3.6 1.66-5.37l.06-.58c.12-1.15.12-2.12-.24-3.39-.09-.3-.15-.61-.23-.93zM159.5 36.84l-4.01-4.08-.39-.47c.02-.06.05-.13.07-.17l2.18-2.32s.05-.05.07-.08c1.16-1.62 1.98-4.4 1.03-6.69-.62-1.49-2.3-2.31-4.74-2.31-.18 0-.37.01-.56.02.91.27 1.64.77 1.96 1.55.76 1.83.2 4.33-.94 5.93l-.13.13c-.08.11-.18.21-.29.3l-1.8 1.91c-.16.17-.4.82-.25.99l.59.71 4.05 4.11 1.8 1.72c-.74.73-1.81 1.27-2.83 1.18.58.56 1.28 1.13 2.08 1.7.11.08.24.13.37.14.12.01.24.02.36.02 1.08 0 2.26-.53 3.17-1.42a.82.82 0 0 0 .24-.57c0-.22-.09-.42-.24-.57l-1.79-1.72zM47.17 68.09l-2.45-2.94c-.18-.22-.37-.44-.55-.65-.66-.78-1.29-1.52-1.85-2.37l1.82-1.84c1.01-1.02 2.01-2.69 1.81-4.34l-.24-1.97a.815.815 0 0 0-.12-.34c-1.13-1.73-2.36-2.5-3.98-2.5-.35 0-.71.04-1.08.1.62.32 1.21.88 1.8 1.79l.24 1.97c.16 1.33-.69 2.78-1.59 3.69l-2.27 2.29c.84 1.39 1.81 2.45 2.81 3.64l2.45 2.94c.26.32.65.67.58.95-.1.39-.47.83-.78.92l-1.15.3 1.16 1.7c.15.22.4.35.66.35.07 0 .14 0 .2-.03l1.93-.51c.66-.17 1.2-.9 1.35-1.5.16-.63-.28-1.13-.6-1.5-.05-.05-.09-.11-.14-.16zM37.81 68.13c-.14-1.15-.28-2.24-.11-3.36.03-.05.1-.11.2-.17l-1.7-1.99c-.58-.23-1.78.33-1.88.96-.27 1.77.14 3.4.27 5.14l.23 3-.86.32c.08.62.31 1.27.52 1.83.12.32.42.51.74.51.09 0 .19-.02.28-.05l2.19-.83c.33-.12.54-.45.51-.81l-.23-3c-.04-.53-.11-1.06-.17-1.56zM66.41 49.13c-.88-1.85-2.42-2.92-4.32-3l-1.6-.07c1.16.35 2.03 1.18 2.6 2.37l1.27 2.67c.92 1.93 1.02 6.27-.34 8.54l-1.13 1.88-1.69 2.11c-.48.6-.94 1.05-1.86 1.3-2.98 2.62-5.17 1.46-8.44.08.47.75 1.13 1.3 2 1.66.28.12.55.23.82.34 1.67.71 3.1 1.32 4.61 1.32 1.4 0 2.67-.52 3.99-1.65 1.08-.34 1.64-.96 2.09-1.51l1.69-2.11.06-.09 1.13-1.88c1.48-2.48 1.42-7.11.38-9.3l-1.27-2.67zM103.08 48.22c-.21-.48-.65-.58-1.15-.43l-7.15 2.18-.63 2.4-.64 3.47-.96.2c-.11.42-.2.86-.26 1.38-.03.26.06.51.25.68.15.14.34.21.54.21.05 0 .11 0 .16-.02l3.03-.63c.32-.07.56-.32.62-.64l.63-3.44.51-1.95 5.77-1.76-.73-1.67zM90.21 54.88c-.04-.62-.08-1.26-.14-1.92l-.61-6.15-.36-3.96-.39-3.74a.782.782 0 0 0-.79-.71.78.78 0 0 0-.22.03l-2.27.67.29 2.78.36 3.97.61 6.15c.18 1.8.15 3.46.49 5.27l-.89.21.22 1.52c.03.22.15.42.34.54.13.09.29.14.45.14.06 0 .12 0 .18-.02l2.48-.57c.42-.1.68-.5.6-.92-.21-1.11-.27-2.17-.34-3.28zM83.51 49.67c-1.7.67-3.19.84-4.74 1.31l-5.52 1.67.25 2.13.22 4c.03.5.25 1.71-.17 1.96l-.7.3.13 1.81c.02.26.16.49.38.62a.815.815 0 0 0 .73.06l2.37-1.01s.06-.03.09-.05c.78-.46.67-1.57.59-2.38-.01-.12-.02-.22-.03-.31l-.22-4v-.05l-.17-1.47 4.88-1.47c.57-.17 1.13-.3 1.73-.44.18-.04.36-.08.55-.13l-.37-2.55z" fill="#fff"/><path d="M221.02 1.42l.29 2.27-3.06.88-2.65.72c-1.73.47-.67 1.62-.63 4.54 0 .66.27 1.4.75 1.83l6.05-1.57.16 2.21-6.25 1.7c-.34.09-.26 1.07-.22 1.46l.43 4.91 3.62-.87 2.92-.83.51 2.17-6.39 1.71-3.07.83-.16-1.84-.46-4.15-.6-5.38-.4-5.15-.33-3.05 5.56-1.43 3.93-.98m-17.51 5.03c.83 0 1.68.15 2.38.42l.47 2.85-1.83-.55c-.65-.12-1.31-.17-1.98-.17-1.48 0-2.95.29-4.21.86-3.57 1.64-5.4 4.92-5.11 8.74.15 1.9.57 3.82 2.08 5.11 1.04.89 2.44 1.25 3.81 1.25 2.35 0 4.62-1.05 4.95-2.28.34-1.28.1-2.74.03-4.16l-4.02 1.17c-.19-.77-.26-1.56-.22-2.38l3.12-.86 3.55-.87.52 3.3.51 4.73c-.95 1.29-2.54 2.17-4.02 2.87-1.91.91-3.08 1.29-4.77 1.29-.55 0-1.15-.04-1.86-.12-1.95-.21-3.86-1.12-4.91-2.82-2.17-3.54-2.45-9.35.27-12.6 2.13-2.54 3.78-4.42 7.41-5.14l2.68-.53c.36-.07.75-.11 1.14-.11m-24.24 6.81c.95 0 2.09.38 2.97.67.78.26 1.67.93 2.2 1.51.93 1.03 1 2.41 1.36 3.67.31 1.09.34 1.95.22 3.09-.2 1.87-.27 3.94-1.54 5.53-1.18 1.47-2.6 2.81-4.1 4.04-1.26 1.04-3.04 1.31-4.62 1.82l-3.14 1.02c-.07.02-.17.04-.27.04-.44 0-1.04-.21-1.12-.52l-.36-5.61-.27-3.77-.43-4.79-.6-4.64c3.12-.88 6.13-1.71 9.39-2.05.1-.01.21-.02.31-.02m-4.97 18.33c1.09 0 3.52-.97 4.97-1.85.92-.56 1.56-1.48 2.24-2.2 2.91-3.05 2.13-9.99-.7-11.1-1.01-.4-1.96-.57-2.91-.57-.6 0-1.21.07-1.82.21l-2.99.65c-.24.05-.73.3-.79.52-.05.18-.03.57 0 .83l.53 5.7.64 4.72.17 2.25c.02.24.07.53.16.67.08.13.26.18.52.18m-11.14-14.68l.1 2.26.65 5.73.37 3.62.55 5.98c.06.7 0 1.47-.39 2.25-.43.31-1.37.48-2.19.62l-.35-3.81-.34-4.44-.38-4.18-.26-3.76-.35-3.7 2.59-.57m-32.05.24c.74 0 1.39.06 1.87.21 1.15.34 2.29 1.12 2.77 2.16.56 1.19 1.17 2.64 1 3.92-.41 3-2.73 5.24-2.63 5.94.11.75 2.99-.2 4.51 3.22 1.39 3.15.49 6.25-1.25 9.15-.57.96-1.66 1.53-2.62 2.14-1.05.68-2.05 1.36-3.32 1.76l-3.58 1.13-2.96.8c-.69.19-1.34.24-2.18.26l-.49-6.19-.16-2.78-.14-5.77-.2-3.39-.19-2.9-1.02-6.86 4.52-1.76c1.54-.6 4.12-1.04 6.08-1.04m-5.15 13.22c2.28 0 3.87-1.09 5.31-2.6 1.47-1.55 1.75-3.98.79-5.32-.75-1.04-1.82-1.39-3.04-1.39s-2.66.37-4 .73c-.16 1.58.12 2.88.27 4.38.15 1.41.13 2.88.54 4.2h.13m1.13 12.94c3.24-.43 4.87-1.14 6.81-3.44.88-1.05 1.32-2.04 1.3-3.38-.03-1.54-.75-2.5-2.22-3.11-.55-.23-1.15-.31-1.77-.31-.73 0-1.47.12-2.17.29l-2.87.68.13 2.06.19 2.82.61 4.39m24-22.83c1.8 0 3.46.51 4 1.82.76 1.83.2 4.33-.94 5.93l-2.21 2.35c-.16.17-.4.82-.25.99l.59.71 4.05 4.11 1.8 1.72c-.69.67-1.66 1.19-2.61 1.19-.09 0-.18 0-.27-.01-1.03-.72-2.16-1.65-2.92-2.65l-3.38-4.42-1.76.16 1.09 7.92-.14.73c-.04.2-.53.33-.74.36l-2.04.24-.14-3.14-.19-3.38-.16-2.8-.49-2.98c-.06-2.44-.24-4.72-.67-7.13l4.47-1.28c.91-.26 1.94-.42 2.94-.42m-3.39 9.25c1.22 0 2.16-.45 3.14-.98 1.16-.63 1.87-1.61 1.81-2.95-.04-.96-.62-2.39-1.89-2.59-.21-.03-.42-.05-.63-.05-1.06 0-2.13.36-3.2.72-.28.09-.25.86-.22 1.15l.4 4.66c.2.02.4.03.59.03m-48.91 4.69l4.55 8.34c1.61 2.96 3.26 5.8 4.43 9.08l-2.82.84-1.94-4.45c-.15-.34-.42-.49-.74-.49-.13 0-.26.02-.4.07l-7.15 2.18-.63 2.4-.64 3.47-3.03.63c.15-1.2.4-1.97.92-2.87.62-1.06.76-2.32 1.08-3.52l.98-3.62 1.26-5.29 1.26-5.91 2.86-.86m-2.82 12.71l4.37-1.65c.22-.08.59-.25.75-.36.16-.1-.29-.61-.38-.8l-1.24-2.84-1.07-2.28c-.06-.13-.34-.3-.49-.3-.02 0-.05 0-.06.01-.08.05-.31.32-.34.44l-.9 3.49-.42 2.06-.22 2.22m-10.7-8.96l.39 3.73.36 3.97.61 6.15c.18 1.8.15 3.46.49 5.27l-2.48.57-1.17-8.16c-1.7.67-3.19.84-4.74 1.31l-5.52 1.67.25 2.13.22 4c.03.5.25 1.71-.17 1.96l-2.37 1.01-.28-3.98-.57-6.36-.18-3.98-.28-4.62c-.04-.7.83-1.06 1.48-1.06.23 0 .44.05.56.14.54.4.58.92.6 1.53l.19 6.42 2.33-.45 3.47-.74 5.04-1.32-.03-1.14-.59-4.77-.23-2.49 2.65-.78m-29.2 7.57h.31l3 .13c1.69.07 2.9 1.03 3.63 2.55l1.27 2.67c.92 1.93 1.02 6.27-.34 8.54l-1.13 1.88-1.69 2.11c-.48.6-.94 1.05-1.86 1.3-1.3 1.14-2.45 1.57-3.6 1.57-1.57 0-3.14-.78-5.12-1.6-1.17-.49-1.81-1.33-2.14-2.51-.55-1.98-1.08-3.93-1.32-6-.15-1.3.36-2.46.71-3.65l.54-1.87c.83-1.48 2.02-2.43 3.29-3.53 1.17-1.02 2.78-1.61 4.44-1.61m-.43 17.81c1.57 0 3.24-.63 4.32-2.09.59-.8 1.6-1.61 1.89-2.63.69-2.44.57-5.11-.07-7.55-.61-2.32-2.8-3.47-5.08-3.54h-.08c-.72 0-1.35.29-2.03.6-1.22.55-2.11 1.22-2.89 2.33-.87 1.23-1.65 2.74-1.54 4.33l.21 3.2.85 3.39 1.54 1.12c.75.54 1.78.85 2.87.85M14.41 48.17c.22 0 .45.02.56.06.2.07.34.42.41.71.23.98.82 1.67 1.24 2.54l2.53 5.22c1.27 2.61 2.53 5.04 4.02 7.52l2.85 4.72c.83 1.38.97 2.97 2.24 4.37l-3.88 1.15c-1.83-1.54-2.86-3.41-3.38-5.69l-.86-1.18c-1.36.03-2.63.28-3.89.82-1.58.68-3.17.97-4.87 1.29-.7.13-1.24.63-1.74 1.01-.44.34-.57.44-.68 1.05l-.7 3.84-.57 2.18-.73 1.24c-.78.49-1.76.61-2.67.74l-1.05.31.63-2.77c.46-2.04.59-4.14 1.28-6.11l1.63-4.69.78-2.23c.29-.84.49-1.62.68-2.52l1.65-7.82c.25-1.2.43-2.27 1.12-3.3l.27-1.52 2.65-.9c.1-.03.29-.05.49-.05m-2.88 18.02s.05 0 .07-.02l.78-.51c2.91-.73 6.99-1.24 5.49-3.24-1.82-2.41-3.09-4.84-4.08-7.73-.44.14-.79.64-.86 1.07l-.64 3.76-1.43 6.2c.23.22.52.47.68.47m27.46-15.3c1.23 0 2.26.52 3.32 2.14l.24 1.97c.16 1.33-.69 2.78-1.59 3.69l-2.27 2.29c.84 1.39 1.81 2.45 2.81 3.64l2.45 2.94c.26.32.65.67.58.95-.1.39-.47.83-.78.92l-1.93.51-2.45-3.58-3.19-3.75a.777.777 0 0 0-.31-.05c-.62 0-1.48.48-1.57 1.01-.27 1.77.14 3.4.27 5.14l.23 3-2.19.83c-.21-.54-.43-1.18-.49-1.74l-.79-7.52-.17-4.24-.19-6.23 4.03-1.06c1.62-.43 2.9-.85 4.01-.85m-4.86 3.34c-.11 0-.23 0-.35-.01l-.29 2.59c-.09.84.35 1.84.53 2.73.08.37.33.53.69.53.96 0 2.67-1.11 3.83-2.33.91-.95 1.03-1.96.37-3.13-.18-.31-.38-.75-.61-.9a.922.922 0 0 0-.51-.13c-.83 0-2.11.65-3.67.65M221.02 1.02s-.06 0-.1.01l-3.93.98-5.57 1.43c-.19.05-.32.23-.3.43l.33 3.05.39 5.13.6 5.39.46 4.15.16 1.83c.01.12.07.22.17.29.07.05.15.07.23.07.03 0 .07 0 .1-.01l3.07-.83 6.39-1.71c.21-.06.33-.27.29-.48l-.51-2.17a.347.347 0 0 0-.19-.25.36.36 0 0 0-.2-.06c-.04 0-.07 0-.11.02l-2.92.83-3.16.76-.39-4.45c-.06-.7-.02-.97.01-1.07l6.17-1.68a.39.39 0 0 0 .29-.41l-.16-2.21c0-.12-.07-.23-.17-.29a.39.39 0 0 0-.23-.07c-.03 0-.07 0-.1.01l-5.83 1.51c-.28-.34-.47-.88-.47-1.39-.01-.99-.14-1.77-.24-2.4-.22-1.36-.2-1.55.57-1.75l2.65-.72 3.07-.88c.19-.05.31-.24.28-.43l-.29-2.27a.418.418 0 0 0-.17-.28.381.381 0 0 0-.22-.07zm-17.51 5.01c-.43 0-.83.04-1.21.11l-2.68.53c-3.85.76-5.61 2.85-7.64 5.28-2.31 2.76-3.09 8.53-.3 13.06 1.02 1.66 2.92 2.76 5.2 3.01.75.08 1.35.12 1.9.12 1.81 0 3.08-.45 4.94-1.33 1.5-.71 3.16-1.63 4.17-3 .06-.08.09-.18.07-.28l-.51-4.73-.52-3.32a.411.411 0 0 0-.17-.27.44.44 0 0 0-.22-.07c-.03 0-.06 0-.1.01l-3.55.87-3.13.86c-.17.05-.29.19-.29.37-.04.86.04 1.7.23 2.49.03.11.09.2.19.25.06.04.13.05.2.05.04 0 .07 0 .11-.02l3.54-1.03.03.45c.09 1.11.17 2.16-.08 3.09-.25.94-2.25 1.99-4.57 1.99-1 0-2.44-.2-3.55-1.15-1.49-1.27-1.82-3.25-1.95-4.84-.28-3.69 1.54-6.81 4.88-8.34 1.18-.54 2.57-.83 4.04-.83.65 0 1.29.06 1.91.17l1.79.54s.08.02.11.02c.1 0 .19-.03.26-.1.1-.09.15-.23.13-.36l-.47-2.85a.399.399 0 0 0-.25-.31 7.18 7.18 0 0 0-2.52-.45zm-24.25 6.82c-.12 0-.24 0-.35.02-3.42.35-6.62 1.26-9.45 2.06-.19.05-.31.24-.29.43l.6 4.64.43 4.77.27 3.76.36 5.61s0 .05.01.07c.15.56.97.82 1.51.82.15 0 .28-.02.39-.06l3.14-1.02c.39-.13.79-.24 1.19-.35 1.25-.35 2.55-.71 3.55-1.54 1.72-1.43 3.08-2.77 4.15-4.1 1.22-1.51 1.4-3.45 1.57-5.16l.06-.58c.12-1.1.12-2.03-.23-3.24-.09-.31-.16-.64-.23-.96-.22-.99-.45-2.02-1.21-2.87-.54-.6-1.48-1.33-2.37-1.62-.89-.29-2.09-.69-3.09-.69zm-5.16 18.29c-.03-.07-.07-.24-.09-.46l-.17-2.25-.64-4.75-.53-5.68c-.04-.42-.02-.63 0-.69.04-.03.32-.19.49-.23l2.99-.65a8.3 8.3 0 0 1 1.74-.2c.92 0 1.82.18 2.76.55.93.36 1.7 1.56 2.06 3.21.49 2.22.23 5.43-1.5 7.25-.19.2-.38.41-.57.63-.48.55-.98 1.13-1.6 1.5-1.52.92-3.83 1.8-4.76 1.8-.1 0-.16-.01-.19-.02zm-10.93-14.65h-.09l-2.59.57c-.2.04-.33.23-.31.43l.35 3.7.26 3.75.38 4.19.33 4.44.36 3.82c.01.11.07.21.15.28.07.05.16.08.24.08h.07c.92-.15 1.86-.33 2.36-.69.05-.04.1-.09.12-.15.37-.74.51-1.55.43-2.46l-.55-5.98-.37-3.62-.65-5.73-.1-2.24c0-.12-.06-.23-.16-.3a.431.431 0 0 0-.24-.08zm-32.05.24c-2.01 0-4.63.45-6.23 1.07l-4.52 1.76c-.17.07-.28.25-.25.43l1.02 6.86.19 2.87.2 3.39.14 5.76.16 2.8.5 6.2c.02.21.19.37.4.37h.01c.87-.02 1.55-.08 2.28-.27l2.96-.8 3.59-1.13c1.25-.39 2.27-1.06 3.25-1.7l.17-.11c.15-.1.31-.2.47-.3.86-.54 1.74-1.09 2.27-1.98 2.12-3.55 2.54-6.66 1.27-9.52-1.11-2.5-2.96-2.86-3.95-3.05-.18-.03-.4-.08-.52-.12.06-.2.37-.69.62-1.09.69-1.09 1.73-2.74 2-4.68.18-1.32-.39-2.77-1.03-4.15-.5-1.06-1.65-1.97-3.02-2.37-.5-.15-1.16-.22-1.99-.22zm-5.71 5.36c1.18-.32 2.49-.64 3.63-.64 1.25 0 2.12.39 2.72 1.22.89 1.24.54 3.44-.76 4.81-1.6 1.68-3.06 2.43-4.85 2.48-.22-.83-.28-1.71-.35-2.64-.03-.4-.06-.8-.1-1.2-.04-.36-.08-.7-.12-1.04-.13-.99-.25-1.93-.17-2.98zm1.2 12.24l2.54-.61c.78-.19 1.46-.28 2.08-.28s1.16.1 1.62.28c1.36.56 1.95 1.38 1.97 2.75.02 1.17-.33 2.07-1.21 3.12-1.71 2.04-3.14 2.81-6.16 3.25l-.55-3.99-.18-2.79-.11-1.73zm24.51-14.27c-1 0-2.08.15-3.05.43l-4.47 1.28a.39.39 0 0 0-.28.45c.4 2.21.6 4.39.67 7.07v.06l.49 2.98.16 2.76.19 3.38.14 3.13c0 .11.06.21.14.29.07.06.16.09.26.09h.05l2.04-.24c.1-.01.98-.13 1.08-.68l.14-.73v-.13l-1.03-7.5 1.12-.1 3.25 4.25c.68.89 1.7 1.81 3.01 2.74.06.04.12.06.19.07.11.01.21.02.32.02.98 0 2.06-.49 2.89-1.3.08-.08.12-.18.12-.29s-.04-.21-.12-.29l-1.8-1.72-4.04-4.1-.52-.63c.01-.14.12-.44.19-.52l2.21-2.35s.02-.03.03-.04c1.13-1.58 1.84-4.25.99-6.31-.55-1.33-2.1-2.07-4.37-2.07zm-3.93 4.17c1.03-.34 2.04-.67 2.99-.67.2 0 .39.01.57.04 1.01.15 1.51 1.38 1.55 2.21.05 1.11-.49 1.98-1.6 2.58-.94.51-1.81.93-2.95.93h-.22l-.37-4.32c-.03-.38 0-.66.03-.77zm-48.34 9.78s-.08 0-.12.02l-2.86.86c-.14.04-.24.16-.27.3l-1.26 5.91-1.26 5.28-.98 3.6c-.09.34-.17.68-.25 1.02-.2.87-.38 1.68-.8 2.4-.55.96-.82 1.77-.98 3.02-.02.13.03.26.12.34.07.07.17.11.27.11h.08l3.03-.63c.16-.03.28-.16.31-.32l.64-3.47.57-2.16 6.93-2.11c.1-.03.2-.05.29-.05.19 0 .3.08.38.25l1.94 4.45c.06.15.21.24.37.24.04 0 .08 0 .11-.02l2.82-.84a.395.395 0 0 0 .26-.51c-1.05-2.92-2.43-5.44-3.89-8.1l-.57-1.03-4.55-8.34a.404.404 0 0 0-.35-.21zm-2.37 12.52l.16-1.58.42-2.02.89-3.47.09-.11c.03.02.06.04.08.06l1.05 2.25 1.24 2.83c.04.09.11.2.19.31.02.03.05.08.08.12-.14.07-.3.14-.43.19l-3.77 1.42zm-11.16-8.78s-.08 0-.11.02l-2.65.78c-.18.05-.3.23-.28.42l.23 2.49.6 4.78.02.78-4.74 1.24-3.45.74-1.86.36-.17-5.95c-.02-.58-.04-1.3-.76-1.84-.24-.18-.57-.22-.8-.22-.46 0-1.13.16-1.55.6-.24.25-.35.55-.33.88l.28 4.62.18 3.97.58 6.38.28 3.98c0 .13.08.24.19.31.06.04.14.06.21.06.05 0 .11-.01.16-.03l2.37-1.01s.03-.01.05-.02c.56-.33.47-1.25.4-1.99-.01-.13-.02-.24-.03-.33l-.22-4-.21-1.83 5.2-1.57c.58-.18 1.15-.31 1.76-.45.81-.19 1.65-.38 2.54-.7l1.1 7.67c.02.11.08.21.17.27.07.05.15.07.23.07.03 0 .06 0 .09-.01l2.48-.57c.21-.05.34-.25.3-.46-.21-1.14-.27-2.2-.34-3.33-.04-.62-.07-1.26-.14-1.91l-.61-6.15-.36-3.97-.39-3.73a.417.417 0 0 0-.17-.29.44.44 0 0 0-.22-.07zm-29.17 7.58c-1.74 0-3.45.62-4.7 1.71l-.38.33c-1.14.98-2.22 1.91-3 3.3-.01.03-.03.05-.03.08l-.54 1.87c-.07.23-.14.46-.22.7-.31.97-.63 1.98-.51 3.11.24 2.16.82 4.23 1.33 6.06.38 1.38 1.14 2.26 2.37 2.77.28.12.55.23.82.35 1.63.69 3.03 1.29 4.45 1.29 1.32 0 2.53-.51 3.8-1.6 1.02-.3 1.53-.86 1.97-1.41l1.69-2.11s.02-.03.03-.04l1.13-1.88c1.42-2.38 1.36-6.82.36-8.92l-1.27-2.67c-.83-1.74-2.2-2.7-3.97-2.78l-3-.13h-.32zM50.84 58.1l-.21-3.16c-.08-1.23.4-2.56 1.47-4.07.71-1 1.52-1.65 2.73-2.19l.07-.03c.64-.29 1.19-.53 1.79-.53h.06c1.88.06 4.1.94 4.7 3.24.67 2.58.7 5.12.07 7.34-.17.61-.68 1.18-1.17 1.72-.24.27-.46.52-.66.78-.91 1.23-2.37 1.93-4 1.93-1 0-1.96-.28-2.63-.77l-1.42-1.03-.8-3.21zM14.41 47.77c-.19 0-.45.01-.62.07l-2.65.9c-.14.05-.24.16-.26.31l-.25 1.44c-.63.98-.84 1.99-1.06 3.05l-.07.31-1.65 7.82c-.21.99-.41 1.73-.67 2.47l-.78 2.23-1.63 4.69c-.44 1.27-.66 2.6-.87 3.89-.12.75-.25 1.52-.42 2.26l-.63 2.77c-.03.14.01.28.12.38.07.07.17.11.27.11.04 0 .08 0 .11-.02l1.02-.3h.07c.89-.14 1.91-.28 2.73-.8.05-.03.1-.08.13-.14l.73-1.24s.03-.07.04-.1l.57-2.18.71-3.86c.09-.47.12-.49.53-.81l.21-.16c.42-.33.86-.67 1.36-.77l.17-.03c1.65-.31 3.21-.61 4.78-1.28 1.11-.48 2.27-.73 3.54-.78l.69.94c.58 2.45 1.69 4.3 3.49 5.82.07.06.16.09.26.09.04 0 .08 0 .11-.02l3.88-1.15c.13-.04.23-.14.27-.27.04-.13 0-.27-.09-.38-.72-.8-1.04-1.65-1.39-2.55-.22-.59-.46-1.19-.8-1.76L23.51 64c-1.32-2.17-2.55-4.48-4.01-7.49l-2.53-5.22c-.15-.31-.32-.6-.49-.88-.3-.51-.59-1-.73-1.58-.07-.32-.26-.86-.67-1-.2-.07-.54-.08-.68-.08zm-3.11 17.8l1.37-5.97.64-3.79c.03-.17.13-.37.26-.52.99 2.74 2.26 5.09 3.97 7.36.32.42.24.63.22.69-.27.73-2.39 1.21-4.1 1.59-.47.11-.94.21-1.38.32-.04.01-.08.03-.12.05l-.65.43s-.12-.09-.22-.17zm27.71-15.09c-.95 0-2 .29-3.22.62-.29.08-.58.16-.89.24l-4.03 1.06c-.18.05-.3.21-.3.4l.19 6.23.17 4.25.8 7.54c.06.61.31 1.3.52 1.84.06.16.21.26.37.26.05 0 .09 0 .14-.03l2.19-.83a.4.4 0 0 0 .26-.4l-.23-3a25 25 0 0 0-.17-1.54c-.15-1.19-.29-2.32-.11-3.51.04-.27.68-.68 1.17-.68h.09l3.11 3.65 2.42 3.55c.08.11.2.17.33.17.03 0 .07 0 .1-.01l1.93-.51c.51-.13.95-.73 1.07-1.21.11-.43-.22-.81-.52-1.14-.05-.06-.1-.11-.14-.17l-2.45-2.94c-.18-.22-.37-.44-.55-.65-.74-.87-1.43-1.69-2.06-2.68l2.05-2.07c.94-.95 1.88-2.51 1.7-4.02l-.24-1.97c0-.06-.03-.12-.06-.17-1.05-1.61-2.17-2.32-3.65-2.32zm-4.84 4.15c.95 0 1.8-.23 2.48-.41.47-.13.88-.24 1.17-.24.13 0 .23.02.29.06.1.07.28.38.38.57l.1.19c.58 1.02.48 1.84-.31 2.66-1.15 1.2-2.77 2.21-3.55 2.21-.24 0-.28-.09-.3-.21-.06-.29-.15-.6-.23-.89-.17-.6-.35-1.22-.29-1.71l.25-2.23zM25.32 106.69a.797.797 0 0 0-.55-.22h-.04l-1.62.08h-.41l.03 3.57-.84.38-12.82-.03c-.79.06-1.29.51-1.29 1.22l.02 16.07.12 1.96-1.79-.06-3.46-.09.02 2.26c0 .43.35.78.78.79l4.72.12 1.79.06h.03c.21 0 .42-.09.57-.24.16-.16.24-.38.22-.6l-.11-1.94-.02-16.05c0-.11 0-.38.53-.43l12.79.03c.11 0 .23-.02.33-.07l.84-.38a.8.8 0 0 0 .47-.73l-.04-5.14c0-.22-.09-.42-.25-.57zM24.96 87.64l-2.14.02-.05 1.13-.25 3.45-3.91-.16-8.39-.02-2.14-.02-.29.57v12.48h2.89v-9.96l1.62.01 8.38.02 3.89.16h.03c.42 0 .76-.32.79-.74l.25-3.45v-.02l.11-2.64c0-.22-.07-.43-.22-.59a.779.779 0 0 0-.57-.24zM54.93 117.23c-.95.48-1.86.32-2.91.3l-6.73-.14-5.97-.05-2.27 6.48-2.11 5.94-5.05-.03h-.31c-.18.65-.35 1.33-.49 2.04-.04.23.01.46.16.64s.36.29.59.3l2.1.1h.03l5.05.03c.34 0 .64-.21.75-.53l2.11-5.94 2.08-5.94 5.4.05 6.72.14c.19 0 .37.01.55.02.24.01.49.02.74.02s.53-.01.84-.06l-1.28-3.37zM67.99 126.16v-.02l-2.22-5.9-1.84-4.57-3.14-7.39-1.49-3.83-1.47-4.28s0-.02-.01-.03l-3.62-9.32c-.07-.18-.14-.36-.2-.54-.29-.77-.58-1.57-1.08-2.25a.805.805 0 0 0-.64-.32h-.09c-.4.04-.79.08-1.18.11.13.33.25.67.37 1L55 98.14l1.48 4.29 1.5 3.86 3.14 7.39 1.84 4.56 2.22 5.9 1.84 5.41-3.21.16-3.55.11 1.05 2.6c.12.3.41.5.74.5h.03l3.84-.12 3.22-.16c.25-.01.48-.14.62-.35s.18-.47.09-.7l-1.84-5.41zM155.7 114.78c.74 1.79 1.43 3.47 2.54 5.04.34.49 1 .82 1.39 1.19 1.2 1.15 2.48 2.14 3.91 2.84-.42-.34-.85-.72-1.28-1.13-.19-.18-.4-.34-.61-.49-.27-.19-.54-.39-.68-.59-1.04-1.47-1.71-3.08-2.42-4.78l-.04-.1c-.26-.62-.35-1.24-.45-1.96l-.05-.32c-.27-1.8-.32-3.35-.17-5.02.04-.46.06-.92.08-1.36.04-.95.07-1.85.33-2.67l.53-1.7 1.21-3.09c.57-1.47 1.84-2.52 3.06-3.54 2.02-1.69 3.84-2.57 5.72-2.78.51-.06 1.02-.09 1.51-.09 3.2 0 6.09 1.2 9.29 3.88-.39-.86-.82-1.73-1.22-2.61-3.46-2.97-7.05-4.8-11.75-4.27-2.37.27-4.38 1.49-6.14 2.96-1.34 1.12-2.65 2.23-3.29 3.86l-1.22 3.12-.54 1.73c-.41 1.33-.31 2.78-.44 4.2-.16 1.8-.09 3.42.17 5.21.13.86.21 1.66.55 2.47zM205.96 105.04c.14.16.69-.07.91-.08l1.84-.03-.07-9.59c0-.06 0-.13-.02-.19h.16l3.46.04h.05c.37 0 .74-.04 1.09-.08.34-.04.67-.07.97-.07.33 0 .59.04.82.13 1.09.44 2.05 1.17 2.79 2.08-.66-2.3-2.36-4.21-4.57-5.11-1.01-.41-2.2-.03-3.23-.04l-3.46-.04c-.33 0-.86-.11-1.02.08-.13.16-.04.65.08.9l.08 11.07c-.04.3-.02.76.12.92zM46.83 106.43c.23-.71.47-1.42.71-2.1.49-1.43.98-2.9 1.4-4.42l-.71-1.8-.97-2.36c-.09-.23-.63-.49-.68-.31l-.17.71c-.62 2.67-1.57 5.14-2.42 7.73l-1.91 5.87c-.19.57-.28 1.03-.25 1.69l3.38-.04 1.62-4.97zM107.68 123.44a.784.784 0 0 0-.41-.66c-.12-.07-.25-.1-.39-.1s-.27.03-.39.1c-.55.31-1.06.59-1.57.85l.06 1.35.13 2.63c-1.47.73-2.81 1.43-4.43 1.74l-6.93 1.35c-3.51.36-7.12-.46-10.08-2.14-1.92-1.09-3.55-2.19-5.18-3.66l-1.83-2.14-1.07-1.86c.26.63.57 1.26.94 1.9l1.53 2.65s.05.08.08.12l1.83 2.14.07.07c1.54 1.39 3.19 2.55 5.32 3.76a18.18 18.18 0 0 0 8.82 2.32c.58 0 1.16-.03 1.73-.09.02 0 .05 0 .07-.01l6.93-1.35c1.61-.31 2.93-.97 4.34-1.67l.29-.14c.28-.14.46-.44.44-.75l-.13-2.63-.18-3.8z" fill="#fff"/><path d="M191.23 110.99v-2.19-.05l-.28-4.21c-.11-1.62-.66-3.11-1.19-4.56-.18-.48-.36-.97-.52-1.45-.29-.88-.69-1.91-1.4-2.78l-1.44-1.77c-1.19-1.46-2.97-2.88-4.8-3.82.79.62 1.51 1.31 2.1 2.04l1.44 1.77c.6.73.95 1.6 1.26 2.52.63 1.92 1.54 3.8 1.67 5.82l.28 4.21v2.19c.01 1.93.12 3.92-.48 5.76l-.98 3.01-1.59 3.78-1.31 2.25c-.66 1.13-1.75 2.19-2.91 2.92l-2.9 1.81c-2.05 1.28-4.37 1.88-6.76 2.4-1.12.24-2.32.14-3.48.05-2.14-.18-4.23-.32-6.29-.92-1.36-.4-2.45-1.2-3.61-1.97a37.51 37.51 0 0 1-5.38-4.37c-.4-.39-.73-.82-1.03-1.3.27.64.57 1.26.9 1.86.39.72.9 1.55 1.65 2.29a38.06 38.06 0 0 0 5.49 4.47l.36.24c1.05.71 2.13 1.44 3.47 1.83 2 .58 4.04.75 6.01.91l.43.04c.64.05 1.29.11 1.95.11s1.23-.06 1.76-.17c2.22-.48 4.77-1.1 7.01-2.5l2.9-1.81c1.32-.82 2.47-1.99 3.18-3.2l1.31-2.25s.03-.06.05-.09l1.59-3.78s.02-.04.02-.06l.98-3.01c.57-1.74.55-3.57.53-5.33V111zM230.88 131.22l-7.84-12.44s0-.02-.02-.02l-1.45-2.13-.83-1.35s-.03-.04-.04-.06l-2.2-2.94-.04-.05c.98-.19 2.69-.61 4.71-2.7l1.36-1.41c2.25-2.33 3.75-7.73 3.14-11.34-.01-.08-.04-.15-.07-.22l-1.12-2.22s-.03-.06-.05-.08c-1.45-2.19-3.43-3.92-5.63-5.02 1.12.9 2.1 1.98 2.89 3.17l1.12 2.22c.55 3.27-.77 8.42-2.93 10.65l-1.36 1.41c-3.01 3.11-5.17 2.15-5.21 2.91-.02.26.28.61.48.87l2.2 2.94.84 1.36 1.46 2.15 7.84 12.44-1.76.18-5.8.06-2.65-4.79-3.01-4.72-2.7-4.08-3.07-4.89-.38-.75c-.09-.17-.64.03-.84.07l-2.08.33-.06 18.82-5.33.02.06 1.72c.01.28.13.77.25 1.01.16.31.48.5.87.5.24 0 .51-.07.71-.15l5.52-.03c.44 0 .79-.36.79-.79l.06-18.15 1.41-.22c.07-.01.15-.03.22-.05l.15.3s.02.04.04.07l3.07 4.89 2.71 4.1 2.99 4.69 2.64 4.77c.14.25.41.41.7.41l5.8-.06h.07l1.76-.18c.27-.03.51-.2.63-.44s.1-.54-.04-.77zM142.93 88.15a.787.787 0 0 0-.56-.23h-2.08v4.04l-4.15-.04-4.4-.02-1.76.12v22.43l.19 2.42v12.73l-2.18-.04h-3.61l-.06 2.27c0 .21.08.42.23.58s.36.24.57.24h4.95l2.17.04h.01a.802.802 0 0 0 .8-.8v-12.73-.06l-.18-2.39V95.05l.98-.07 4.37.02 4.15.04a.802.802 0 0 0 .8-.8v-5.53a.852.852 0 0 0-.25-.56zM122.98 91.98c-.28-.11-.64-.05-1.01-.04l-8.45.06v2.3a.787.787 0 0 0 .79.8l8.68-.07-.02-3.05zM107.64 89.09c-.64-.23-1.44-.51-2.36-.79v5.54l-1.56-.46-2.86-.88-4.94-1.23-3.58-.2c-.99-.05-2.3.37-3.22.62l-1.02.78-2.75 1.74c-.49.31-1.21.97-1.65 1.44-2.22 2.37-4.46 6.25-4.44 9.45l.04 7.18c0 1.15.44 2.72 1.05 3.65l1.1 1.69 3.28 3.9c.68.81 1.72 1.51 2.94 2.04-.09-.09-.17-.18-.25-.27l-3.25-3.86-1.07-1.65c-.51-.78-.92-2.2-.92-3.22l-.04-7.18c-.02-2.99 2.18-6.71 4.22-8.9.41-.44 1.09-1.05 1.49-1.31l2.75-1.74s.04-.03.06-.04l.9-.69c.08-.02.16-.05.25-.07.77-.21 1.72-.48 2.43-.48h.14l3.51.19 4.85 1.21 2.83.87 1.56.46c.07.02.15.03.23.03.17 0 .34-.05.48-.16.2-.15.32-.39.32-.64v-6.29c.01-.34-.2-.63-.51-.75z" fill="#fff"/></svg>