<svg xmlns="http://www.w3.org/2000/svg" width="250" height="68" viewBox="0 0 250 68"><g fill="#fff"><path d="M89.22 23.82l2.72-4.05 3.27-4.86c.24-.35.53-.73.21-1.15-.29-.38-.74-.34-1.17-.22-1.77.5-3.26 1.44-4.31 2.96-1.57 2.28-3.11 4.59-4.65 6.9-.2.31-.42.42-.79.42-1.74-.02-3.49 0-5.3 0 .1-.18.15-.31.23-.43 2.2-3.25 4.4-6.5 6.58-9.76.23-.35.34-.78.55-1.28h4.93c.56 0 .78.3.54.8-.27.55-.62 1.05-1.02 1.7.28-.19.45-.31.61-.43 1.33-.98 2.7-1.93 4.35-2.25.77-.15 1.61-.18 2.39-.08 1.43.2 2.21 1.31 2.09 2.74-.02.25-.06.49-.11.84.47-.4.86-.75 1.26-1.09 1.45-1.21 3.04-2.14 4.92-2.46 1.02-.17 2.02-.16 2.95.41 1.08.67 1.48 1.74.84 2.85-.72 1.25-1.6 2.42-2.44 3.6-.53.75-1.11 1.46-1.65 2.21-.14.2-.27.42-.35.65-.16.51.15.88.66.74.45-.12.93-.3 1.3-.57 1.71-1.25 3.19-2.74 4.35-4.53 2.41-3.74 7.27-6.51 12.39-5.42.49.11.99.32 1.42.58.93.58 1.2 1.69.56 2.59-.41.58-.97 1.1-1.56 1.49-1.71 1.12-3.63 1.7-5.64 2-.23.03-.46.14-.68.11-.92-.13-1.31.42-1.55 1.17-.23.71-.53 1.4-.64 2.13-.16 1.05.45 1.62 1.54 1.51 1.43-.14 2.7-.71 3.84-1.54 1.99-1.45 3.55-3.3 4.89-5.36.89-1.36 1.5-2.83 1.95-4.38.02-.07.07-.13.14-.26 1.21.87 2.59.95 3.97.73 1.14-.19 2.26-.57 3.38-.88.22-.06.42-.14.74-.25-.72.93-1.43 1.72-2.01 2.61-.95 1.46-1.82 2.96-2.69 4.46-.33.57-.34 1.21-.12 1.83.28.76.81.98 1.41.46 1.02-.87 2.08-1.73 2.9-2.77 1.2-1.51 2.2-3.17 3.27-4.78.21-.32.33-.7.53-1.16h4.99c.63 0 .77.19.49.77-.28.58-.61 1.15-.98 1.68-1.21 1.77-2.46 3.51-3.66 5.29-.39.58-.74 1.21-1.03 1.85-.29.64.02 1.09.69.92.62-.16 1.28-.46 1.76-.88 1.64-1.44 3.18-2.96 4.39-4.82 2.02-3.11 4.93-4.85 8.68-5.08 1.13-.07 2.22.14 3.25.58.91.39 1.28.96 1.08 1.59-.21.67-1.12 1.18-2.01 1.08.06-.28.1-.55.19-.82.15-.46.05-.91-.32-1.12-.28-.16-.71-.06-1.08-.05-.12 0-.24.12-.34.2-2.48 2.02-4.4 4.46-5.44 7.52-.11.34-.15.71-.17 1.07-.04.75.32 1.17 1.07 1.19.45.01.95 0 1.35-.19 2.17-.98 4-2.37 5.23-4.46 2.09-3.56 5.12-5.89 9.19-6.76.64-.14 1.34-.11 2-.05.97.09 1.45.62 1.61 1.58.04.23.08.45.13.8.4-.58.72-1.1 1.1-1.58.13-.17.38-.34.58-.35 1.69-.03 3.38-.01 5.07-.01.07 0 .14.02.28.03-.12.2-.19.34-.28.48-1.85 2.7-3.71 5.39-5.55 8.1-.22.32-.4.7-.49 1.08-.12.48.24.93.73.86.47-.07.98-.25 1.35-.53 2.01-1.58 3.82-3.37 5.26-5.5.22-.32.36-.83.96-.59.04.02.17-.13.23-.22.57-.84 1.15-1.67 1.68-2.53.2-.32.28-.72.44-1.17 1.68 0 3.48-.02 5.27.02.48.01.45.47.33.79-.2.49-.48.94-.82 1.57.28-.21.43-.32.58-.43 1.44-1.16 3.07-1.93 4.9-2.26.83-.15 1.64-.02 2.41.35 1.25.61 1.69 1.78 1.05 3.01-.35.67-.82 1.29-1.26 1.91-.97 1.4-1.96 2.79-2.91 4.2-.13.2-.1.51-.15.77.29.05.63.21.85.12.57-.26 1.13-.57 1.61-.97 1.73-1.42 3.25-3.03 4.48-4.9.05-.08.09-.2.17-.23.14-.05.3-.05.45-.08 0 .13.06.31 0 .4-.39.59-.79 1.18-1.23 1.73-1.81 2.29-3.87 4.29-6.59 5.51-1 .45-2.04.64-3.14.43-1.64-.31-2.45-1.63-1.77-3.15.43-.95 1.04-1.82 1.66-2.67.73-1 1.57-1.93 2.35-2.9.25-.31.5-.65.64-1.01.1-.25.11-.65-.03-.83-.14-.17-.55-.24-.81-.19-1.12.22-2.06.8-2.92 1.52-1.1.91-2.04 1.94-2.81 3.15-1.12 1.78-2.33 3.5-3.52 5.24-.11.16-.34.33-.52.33-1.78.02-3.57.01-5.35.01-.05 0-.1-.03-.22-.06l2.84-4.23-.06-.04c-.84.82-1.66 1.65-2.51 2.45-1.18 1.13-2.5 2.08-4.17 2.25-.99.1-2.04.07-3.01-.13-1.39-.28-1.77-.94-1.7-2.58-.32.36-.54.64-.8.89-1.78 1.67-3.88 2.16-6.22 1.58-1.45-.36-2.14-1.33-2.14-2.8v-.4c-.69.61-1.3 1.18-1.93 1.72-2.22 1.86-4.81 2.17-7.53 1.62-1.92-.38-2.77-1.95-2.43-4.24-.23.22-.37.38-.52.51-.98.88-1.92 1.82-2.97 2.62a6.77 6.77 0 0 1-4.35 1.4c-2.07-.04-3.1-1.03-3.22-3.15-.31.27-.57.5-.84.73-1.1.96-2.21 1.9-3.68 2.26-1.77.43-3.43-.46-3.81-2.12-.19-.81.06-1.57.48-2.24 1.19-1.91 2.65-3.6 4.45-4.98.12-.09.24-.18.37-.17-1 .13-2 .25-3 .4-.15.02-.32.18-.39.32-1.37 2.63-3.16 4.93-5.43 6.84-2.65 2.24-5.71 2.67-8.97 1.83-1.99-.51-2.67-1.67-2.66-4.22-.2.19-.34.32-.47.46-1.66 1.68-3.49 3.14-5.83 3.71-.87.21-1.84.26-2.71.11-1.27-.21-1.94-1.47-1.46-2.68.34-.86.85-1.67 1.39-2.42.91-1.25 1.91-2.44 2.87-3.66.13-.17.27-.33.37-.51.18-.32.53-.71.17-1.02-.24-.21-.7-.29-1.03-.23-1.21.23-2.11 1.02-3.08 1.72-1.4 1.02-2.3 2.44-3.23 3.84-.93 1.4-1.88 2.79-2.81 4.2-.2.3-.4.44-.78.43-1.74-.02-3.49-.01-5.37-.01zm81.48-9.22c.04-1.11-.46-1.47-1.24-1.11-.43.2-.83.48-1.2.77-1.79 1.43-3.18 3.2-4.27 5.19-.35.64-.63 1.35-.8 2.06-.08.31.11.83.36 1.04.22.18.71.14 1.06.06.27-.06.52-.31.75-.51 2.05-1.78 3.62-3.93 4.9-6.3.24-.44.36-.95.46-1.21zm-52.77 3.82c2.66-.42 4.77-1.56 6.22-3.75.22-.33.34-.77.37-1.18.05-.58-.34-.92-.91-.8-.42.09-.85.26-1.2.51-1.89 1.34-3.34 3.06-4.48 5.21zM69.23 13.63h-2.11c.31-.65.63-1.11 1.39-.96 1.26.25 2.07-.32 2.9-1.28 2.81-3.27 5.83-6.35 9.36-8.88C82 1.63 83.29.83 84.82.56c.96-.17 1.91-.16 2.81.29.86.44 1.26 1.22 1.16 2.17-.14 1.33-.71 2.5-1.43 3.59-1.73 2.64-3.54 5.23-5.25 7.88-1.51 2.34-2.96 4.73-4.39 7.13-.38.64-.58 1.39-.9 2.16h-6.65c1.7-3.7 4.18-6.82 6.56-10.12-.21-.02-.36-.04-.52-.04-1.32 0-2.65-.02-3.97.01-.26 0-.6.15-.77.35-1.49 1.77-2.88 3.63-4.43 5.35-1.92 2.13-4.06 4.04-6.8 5.07-2.17.81-4.41 1.02-6.61.08-2-.86-3.01-2.49-3.23-4.59-.39-3.63 1.25-6.44 3.77-8.83 2.08-1.96 4.53-3.25 7.4-3.65 1.22-.17 2.45-.16 3.6.42.96.49 1.5 1.26 1.59 2.35.13 1.48-.29 2.76-1.39 3.79-.69.64-1.38 1.28-2.13 1.83-.42.31-.98.43-1.47.64l-.13-.19c.16-.25.31-.5.48-.75.68-1.04 1.21-2.12 1.19-3.41-.05-2.49-1.98-3.91-4.35-3.1-2.42.83-3.92 2.65-4.9 4.94-.62 1.44-.65 2.89 0 4.34.69 1.54 1.91 2.32 3.58 2.31 1.63 0 3.17-.45 4.63-1.17 2.76-1.37 4.94-3.45 7.02-5.64l-.07-.14zm3.33-.98c1.55 0 2.94-.03 4.31.02.51.02.79-.18 1.07-.56 1.96-2.66 3.96-5.3 5.92-7.96.45-.61.86-1.27 1.2-1.94.25-.48-.02-.87-.56-.8-.44.06-.9.21-1.27.45-.94.62-1.87 1.27-2.74 1.99-2.32 1.93-4.25 4.24-6.16 6.56-.58.7-1.13 1.43-1.78 2.26zM145.6 8.9c-1.46 0-2.2-1.06-1.75-2.49.49-1.55 2.4-3.1 4-3.25 1.24-.12 2.23.96 2.01 2.19-.31 1.7-2.53 3.55-4.26 3.55z"/></g><g fill="#fff"><path d="M39.72 26.42c-6.41-2.3-14.33-1.42-21.14-.04C12.39 40.02 6.19 53.66 0 67.3c3.77 0 7.57-.02 11.32 0 9.37.06 20.37-1.16 25.65-10.14 3.59-6.11 13.52-26.86 2.74-30.73zM25.29 55.2c-1.82 4.97-6.73 9.04-12.22 8.74 4.56-11.01 9.13-22.02 13.69-33.03 4.93-.84 7.02 2.15 5.11 7.15-2.07 5.42-4.52 11.51-6.58 17.15zM76.77 60.31c.79-3.97.58-2.95 1.23-6.24s-1.1-6.39-4.66-7.66c0 0 5.04-1.35 6.55-5.73 2.13-6.16-2.94-9.67-8.67-9.42-5.44.24-11.39 0-17.08 0-3.69 11.99-7.38 23.98-11.07 35.98h11.79l3.69-13.77c.85-3.18 2.71-4.18 4.81-4.18 3.55 0 4.24 2.33 3.52 5.39s-1.18 7.19 0 9.19c2 3.4 7.4 3.51 10.87 3.37.25-1.31.37-1.96.62-3.27 0 0-2.4.32-1.61-3.66zm-8.09-18.04c-2.36 3.97-7.83 3.06-7.83 3.06 1.1-4.13 1.66-6.2 2.76-10.33h3.26c3.91 0 4.18 3.29 1.82 7.26zM102.34 63.51c-3.44.01-5.39-2.3-4.9-6.15.28-2.19.82-6.25 1.37-10.5h12.49c.18-2.17.26-3.25.44-5.41H99.51l.03-.25c.37-2.88-.03-7.11 4.74-7.11h9.19l.41-3.39s-10.53-.03-12.65 0c-5.96.1-11.8 4.9-13.14 10.98-.92 5.42-1.84 10.84-2.75 16.27-.73 4.98 2.83 8.43 7.35 9.02 6.43.84 20.05.5 20.05.5l-.09-3.78s-8.13-.19-10.31-.18zM135 29.79c-5.71.09-14.15 3.57-14.38 10.42-.29 8.89-.87 18.06-1.31 27.09h11.38l.2-20.33h8.31l.42 20.33h11.5c-.54-9.03-1.03-18.12-1.62-27.09-.45-6.9-8.4-10.51-14.5-10.42zm4.07 11.18h-8.35s-.47-6.94 4.3-6.94 4.05 6.94 4.05 6.94zM188.37 31.38c-1.54.01-3.31 0-5.12 0v-.02H156.9c1.08 11.98 2.17 23.96 3.25 35.94h11.25l-4.29-33.27h6.65l5.13 33.27h11.25c-2.14-11.09-4.27-22.18-6.41-33.27h6.19l7.2 33.27h11.98c-2.16-8.41-4.41-16.87-6.48-25.22-1.74-7.04-7.12-10.77-14.27-10.7zM205.06 25.45l1.25 4.42h15.95c-1.64 10.76-3.88 21.51-6.89 31.93-.79 2.74-.18 5.5 4.17 5.5H250c-.87-2.2-1.31-3.3-2.18-5.5h-20.37c2.35-10.7 3.84-21.63 5.25-32.38.37-2.85-1.67-3.98-3.12-3.98h-24.52z"/></g></svg>