<svg xmlns="http://www.w3.org/2000/svg" width="260" height="114" viewBox="0 0 260 114"><path d="M5.54,4S-4.17,16.25,2.12,35.3l6.47-4.67S1.76,21.64,5.54,4Z" fill="#fff"/><path d="M142.9,1.16a48,48,0,0,0-2,34.79l6.84-3.39A45.75,45.75,0,0,1,142.9,1.16Z" fill="#fff"/><path d="M192.32.54s-9.74,15.74-3.45,34.78l6.83-3.38S187.54,20.29,192.32.54Z" fill="#fff"/><path d="M51.67,2.57S44.13,16.44,48.89,35.3l7.56-4.59S50.7,20,51.67,2.57Z" fill="#fff"/><path d="M43.45,18.53S56.45,23,69.93,4.84L63.21,2.57S57,15.75,43.45,18.53Z" fill="#fff"/><path d="M1,20.62s3.13-9,17.75-5.59l-1.85,6.41S9.28,14.58,1,20.62Z" fill="#fff"/><path d="M34,0S17.6,13.3,21.73,34.9l6.88-3.85S23.51,18.3,34,0Z" fill="#fff"/><path d="M81.1,2.9s-9.15,9-3.59,32l6.32-5.31A36.7,36.7,0,0,1,81.1,2.9Z" fill="#fff"/><path d="M3.5,8.76S6.62,1.12,21.24,4.49L19.4,10.91S9.24,4.56,3.5,8.76Z" fill="#fff"/><path d="M79,7.71S82.1.06,96.72,3.43L94.88,9.85S84.72,3.5,79,7.71Z" fill="#fff"/><path d="M76.29,19.19s3.13-8.47,17.75-5.1L92.19,20.5S83.83,14.27,76.29,19.19Z" fill="#fff"/><path d="M97.79,25.54s-9.2,9.05-18,0c0,0,3.06,9.76,15.06,8.49" fill="#fff"/><path d="M243.31,2.9s-9.15,9-3.58,32l6.32-5.31A36.74,36.74,0,0,1,243.31,2.9Z" fill="#fff"/><path d="M241.19,7.71s3.13-7.65,17.75-4.28l-1.85,6.42S246.93,3.5,241.19,7.71Z" fill="#fff"/><path d="M238.51,19.19s3.12-8.47,17.74-5.1l-1.84,6.41S246.05,14.27,238.51,19.19Z" fill="#fff"/><path d="M260,25.54s-9.2,9.05-18,0c0,0,3,9.76,15,8.49" fill="#fff"/><path d="M1,20.62s3.13-9,17.75-5.59l-1.85,6.41S9.28,14.58,1,20.62Z" fill="#fff"/><path d="M57,15.75s12.33,1,15.41,15.7l-7.17,3.89S64.73,20.47,57,15.75Z" fill="#fff"/><path d="M17.68,21s5.15-7.29,21.13-.79L37,24.63S32.4,19.67,17.68,21Z" fill="#fff"/><path d="M42.11,35.3A53.71,53.71,0,0,0,35.24,2.9l-6.09,4S37,17.45,42.11,35.3Z" fill="#fff"/><path d="M141.59,6l3.31,6s8.24-12,13-2C157.91,10,157.47-5.74,141.59,6Z" fill="#fff"/><path d="M157,11s-3.67,12.28-15.44,6L147,24.84S158.87,22.57,157,11Z" fill="#fff"/><path d="M165,2.13l5.66,4.11s-7.72,8.39-.58,28.21a23.1,23.1,0,0,1-6-8.13C160.77,19.44,159.31,9.48,165,2.13Z" fill="#fff"/><path d="M178.79,2.4l5.67,4.11S178,14.24,179.82,29.7C179.82,29.7,169.68,17.93,178.79,2.4Z" fill="#fff"/><path d="M163.87,34.45s2.72-7.77,17.35-6l-2.79,5.22S171,28.9,163.87,34.45Z" fill="#fff"/><path d="M190.26,9.05,197.4.54s13.89.26,9.26,14.6C206.66,15.14,206.88,3.52,190.26,9.05Z" fill="#fff"/><path d="M205.26,13.67s-4.7,8.58-14.7,2.38l4.63,8.79S206.22,21.39,205.26,13.67Z" fill="#fff"/><path d="M198.93,19.92s9.42,4.12,11.55,12.13l-6.39,2.4a18.8,18.8,0,0,0-5.16-12.62C193.57,16.39,198.93,19.92,198.93,19.92Z" fill="#fff"/><path d="M212.25,9.41s13.52,1.86,14.33,17.21l6.69-4.42S223.79,5.58,212.25,9.41Z" fill="#fff"/><path d="M213.57,15.14s3.53-12.79,16.84-5.51l2.86-6.55S215.19-2.95,213.57,15.14Z" fill="#fff"/><path d="M233.27,23.45S228.79,35,213.86,24.84l1.77,9.05S233.49,37.93,233.27,23.45Z" fill="#fff"/><path d="M188,52s-27.6,22.33-20.67,58.61l11.56-6.46S170.33,82.72,188,52Z" fill="#fff"/><path d="M160.55,87.31S169.2,75.07,196,86l-3.1,7.35S185.26,85,160.55,87.31Z" fill="#fff"/><path d="M201.57,111.26S206,85,190,56.86l-10.22,6.66S193,81.29,201.57,111.26Z" fill="#fff"/><path d="M206.55,68.54s22.75,3.13,24.11,28.95l11.25-7.43S226,62.11,206.55,68.54Z" fill="#fff"/><path d="M208.77,78.19s5.94-21.52,28.32-9.28l4.82-11S211.49,47.77,208.77,78.19Z" fill="#fff"/><path d="M241.91,92.16s-7.54,19.41-32.64,2.35l3,15.21S242.28,116.52,241.91,92.16Z" fill="#fff"/><path d="M20.28,112.2l12.84-6.1A58.34,58.34,0,0,1,26.7,73.54c1.72-18.93-3-4.69-3-4.69S15.74,84.66,20.28,112.2Z" fill="#fff"/><path d="M28,56.86s18.16,18.25,23.17,44.39v4.69S35.18,77.61,18.89,70.1Z" fill="#fff"/><path d="M49.08,109.86S55.66,90.29,42.66,61l11.9-4.85S63.79,84.5,49.08,109.86Z" fill="#fff"/><path d="M85.86,112.2l12.84-6.1a58.34,58.34,0,0,1-6.42-32.56c1.72-18.93-3-4.69-3-4.69S81.32,84.66,85.86,112.2Z" fill="#fff"/><path d="M93.53,56.86s18.16,18.25,23.17,44.39v4.69S100.76,77.61,84.47,70.1Z" fill="#fff"/><path d="M114.66,109.86s6.58-19.57-6.42-48.84l11.9-4.85S129.37,84.5,114.66,109.86Z" fill="#fff"/><path d="M66.77,109.86s5-19.1-3.45-47.79l11.9-4.86S81.48,84.5,66.77,109.86Z" fill="#fff"/><path d="M141,62.43l12.83-5.57s10.88,18.68-3,50.18h-1.57S156.45,89.67,141,62.43Z" fill="#fff"/><path d="M136.81,92.73s3.83,18.14,17.19,13.21c0,0-12.17,10.85-26.72-3.78Z" fill="#fff"/></svg>