<svg xmlns="http://www.w3.org/2000/svg" width="180" height="156" viewBox="0 0 180 156"><path d="M16.71 0h5.08v14.7a8.47 8.47 0 0 0 .58 3.6c.61 1.34 1.92 2 3.95 2s3.33-.67 3.93-2a8.31 8.31 0 0 0 .58-3.6V0h5.08v14.71a12.33 12.33 0 0 1-1.18 5.94q-2.2 3.9-8.41 3.9t-8.43-3.9a12.33 12.33 0 0 1-1.18-5.94zM56.78 13.57a9.11 9.11 0 0 1-6 1.75h-5v8.61h-5V0h10.33a8.3 8.3 0 0 1 5.66 1.85q2.11 1.85 2.12 5.73c0 2.83-.71 4.82-2.11 5.99zM53 5a4 4 0 0 0-2.66-.79H45.8v7h4.51a3.85 3.85 0 0 0 2.69-.87 3.52 3.52 0 0 0 1-2.73A3.31 3.31 0 0 0 53 5zM79.66 0h5v19.63H96.6v4.3H79.66zM107.27 0h5.66l8.47 23.93H116L114.4 19h-8.81L104 23.93h-5.27zM107 14.89h6.12l-3-9.42zM140.31 0v4.24h-7.16v19.69h-5V4.24h-7.19V0zM161.4 4.24h-12.67v5.08h11.63v4.15h-11.63v6.16H162v4.3h-18.15V0h17.55zM45.73 31.85l3.72 9 .82 2.51.81-2.46 3.19-9.08h6.23l3.35 9 .86 2.51.87-2.33 3.77-9.12h6l-8 15.76h-5.59l-3.41-9.24-1-3-1 3L53 47.61h-5.53l-8-15.76zM84.3 47.61h-5.86V31.85h5.86zM110.34 31.85v2.79h-8.45v13H96v-13h-8.54v-2.79zM113.75 47.61V31.85h5.86v6h11v-6h5.86v15.76h-5.86v-7h-11v7zM22.37 64.35h10.09v90.81h-6.53V93.73v-7.42-7.36l-6.35 76.21H12.8L6.49 79V155.21H0V64.35h10.2l6.11 71.41zM42.51 73q3.54-8.67 9-8.67 7.3 0 10.68 11.62a51.5 51.5 0 0 1 2 13.1h-6.12a36.7 36.7 0 0 0-1.5-7.62q-1.64-4.58-4.84-4.58c-2.17 0-3.89 2.16-5.15 6.46S44.7 93.72 44.7 101.6s.66 13.77 2 17.69 3 5.89 5.05 5.89 3.69-1.69 4.79-5.05a41.61 41.61 0 0 0 1.51-8.13h6.07q-.78 11.49-4 18.68c-2.16 4.79-4.91 7.19-8.28 7.19q-6.24 0-9.81-9.72t-3.57-26.77Q38.45 83 42.51 73zM100 74a54.32 54.32 0 0 1 1.54 13.86 47 47 0 0 1-1.54 13.39 17.53 17.53 0 0 1-2.56 5.18q2.57 2.52 3.88 8a58.29 58.29 0 0 1 1.3 13.3 64.27 64.27 0 0 1-1.49 14.48 32.47 32.47 0 0 1-2.38 7.15 9.93 9.93 0 0 1-3.75 4.57 9.52 9.52 0 0 1-4.74 1.23H75.12V64.35h16.22q6.14.24 8.66 9.65zm-18.22 6.1v20H90a4.05 4.05 0 0 0 3.55-2.25q1.37-2.25 1.36-8 0-6.36-1.8-8.38a5.65 5.65 0 0 0-4-1.42zm0 35.06v24.21H90a4 4 0 0 0 3.4-1.6q2.2-3 2.2-11.34c0-4.72-.71-8-2.13-9.73a4.24 4.24 0 0 0-3.36-1.54zM117.28 64.35h7.94l11.87 90.81h-7.6l-2.22-18.67h-12.35l-2.28 18.67h-7.33zm-.46 56.49h8.6l-4.24-35.73zM146.35 155.16h-7V64.35h7zM152.8 64.35h7.35l13.32 63.32V64.35H180v90.81h-7l-13.67-64.44v64.44h-6.53zM38.45 144.65h30.46v8.86H38.45z" fill="#fff"/></svg>