<svg xmlns="http://www.w3.org/2000/svg" width="260" height="75" viewBox="0 0 260 75"><g id="logos"><path d="M160.64.18A2.28,2.28,0,0,1,161.1,0c5.92,0,11.85,0,17.77.12a11.78,11.78,0,0,1,6.3,2,6.07,6.07,0,0,1,3.17,5.09c0,4.43,0,8.87,0,13.31,0,2-1.06,3.49-3.33,4.41-1,.39-1.92.74-3.14,1.2.93.33,1.63.62,2.36.83,2.92.85,4.2,2.46,4.14,4.92-.11,4.36,0,8.73,0,13.09,0,4.56-3.28,7.53-9.1,8-3.14.24-6.32.14-9.49.17-2.4,0-4.79,0-7.19,0-2.19,0-1.93.15-1.93-1.56V.18Zm12.24,47c2.47.29,3.37-.32,3.39-2.34,0-4.68,0-9.36,0-14,0-1.78-1.09-2.35-3.4-1.83Zm0-24.23c2.29.16,3.33-.55,3.38-2.3,0-2.41,0-4.82,0-7.23,0-1.81,0-3.61,0-5.42s-1.46-2.5-3.38-2.08Z" fill="#fff"/><path d="M28.87,18.25H16.75V17.06c0-2.87,0-5.74,0-8.61,0-1.2-.68-2-1.57-2A2,2,0,0,0,13.3,8.5q0,18.24,0,36.46v.21c.08,1.21.77,1.95,1.78,1.91a1.79,1.79,0,0,0,1.67-2c0-3.92,0-7.84,0-11.77V32.08h12c0,.31.09.62.09.92,0,4,0,7.92,0,11.87a8.5,8.5,0,0,1-.53,2.9c-1.3,3.4-4.08,5.64-8.82,5.88a68.66,68.66,0,0,1-9.73-.07c-5.22-.48-8-2.92-8.49-7a25.78,25.78,0,0,1-.14-3c0-11.49.13-23-.07-34.47C1,4.42,4.53.7,10.43.28A44,44,0,0,1,21.49.42c4.07.73,6.65,2.79,7.11,6a50.74,50.74,0,0,1,.26,6.29C28.9,14.5,28.87,16.32,28.87,18.25Z" fill="#fff"/><path d="M68.61,51.84V74.32H58V10.8h9.79l.2,1.57c.37-.23.65-.36.88-.54,2.6-2.14,5.74-2,8.9-1.12,3,.87,4.13,2.83,4.14,5.18q0,15.81,0,31.62a6.13,6.13,0,0,1-.32,2c-1.34,4-6.59,5.56-11.12,3.32C70,52.55,69.43,52.27,68.61,51.84Zm0-20.07v14c0,.79-.19,1.71,1.25,1.91.92.12,1.44-.61,1.44-1.9V17.91c0-.38.08-.85-.17-1.12a2.29,2.29,0,0,0-1.41-.72c-.36,0-.81.54-1,.9s-.06.62-.06.93Z" fill="#fff"/><path d="M215.44,32.62H202.3c0,.4-.1.73-.1,1.06q0,6.72,0,13.45c0,.67-.09,1.44,1.17,1.46s1.53-.66,1.53-1.49c0-3.26,0-6.52,0-9.78V36h10.58c0,.34.06.68.06,1,0,3.54,0,7.08,0,10.62,0,2.79-1.46,4.52-4.91,5.38a28.84,28.84,0,0,1-14,.16c-3-.74-4.81-2.41-5.06-4.93a14.46,14.46,0,0,1-.07-1.47c0-9.91,0-19.83,0-29.74,0-3.38,1.21-6.11,7.93-7a30.47,30.47,0,0,1,11.54.47c3,.76,4.57,2.41,4.6,4.8.06,5.57,0,11.14,0,16.71A4.08,4.08,0,0,1,215.44,32.62ZM202.2,26.67a9.56,9.56,0,0,0,1.82,0c.35-.08.83-.43.84-.66,0-3.25,0-6.5,0-9.75,0-.72-.54-1.1-1.46-1.09s-1.23.47-1.23,1.12V26.67Z" fill="#fff"/><path d="M114.38,23.18c0-2.68-.3-5.19.09-7.63s2.63-4.37,5.75-5.13a24.32,24.32,0,0,1,12.92.19c3.48,1.06,5.27,3.08,5.26,6q0,17.76,0,35.52c0,.78-.26,1-1.29,1-2.85-.05-5.7,0-8.64,0l-.21-1.51c-.4.25-.7.43-1,.63-4.19,2.85-11.51,1-12.72-3.16a7.78,7.78,0,0,1-.24-2c0-4.76,0-9.53,0-14.29a4.46,4.46,0,0,1,2.73-4.2c3.23-1.73,6.41-3.54,9.54-5.39a2.21,2.21,0,0,0,1-1.54c.14-1.68,0-3.36.06-5,0-.8-.4-1.3-1.49-1.31S125,16,125,16.69c0,1.82,0,3.65,0,5.47,0,.75-.21,1.06-1.28,1C120.66,23.15,117.59,23.18,114.38,23.18Zm13.3,8c-2.35,1.19-2.7,1.68-2.7,3.53v8.2a30.35,30.35,0,0,0,.07,3.57c0,.36.78,1,1,.94a3.3,3.3,0,0,0,1.54-.88c.2-.2.06-.61.06-.93q0-5.36,0-10.71Z" fill="#fff"/><path d="M55.47,53.09H45.61l-.23-1.38c-.29.15-.47.23-.63.33a10.36,10.36,0,0,1-9.46.76c-2.63-1.09-3.77-2.9-3.81-5.1-.08-5.11-.06-10.22,0-15.33a4,4,0,0,1,2.45-3.55c3.3-1.8,6.55-3.63,9.74-5.53a2.41,2.41,0,0,0,1.13-1.62c.15-1.64.06-3.29.06-4.94,0-.82-.4-1.38-1.58-1.35s-1.12.74-1.13,1.37c0,1.82,0,3.64,0,5.46,0,.7-.22,1-1.21,1-2.8-.05-5.61,0-8.42,0-.81,0-1.11-.21-1.1-.85,0-2.07,0-4.13,0-6.2.07-2.31,2.69-5,5.92-5.74a24.8,24.8,0,0,1,13.05.26c3.23,1,5.1,2.91,5.1,5.66,0,12,0,24.09,0,36.13C55.54,52.62,55.5,52.8,55.47,53.09ZM44.85,31.16C43,32.09,42,33,42.1,34.62c.14,2.2,0,4.41,0,6.62,0,1.75,0,3.5.06,5.25,0,.35.77,1,1,1a3.39,3.39,0,0,0,1.57-.88c.23-.22.09-.68.09-1V31.16Z" fill="#fff"/><path d="M232.68,53.16c-.11-.57-.18-1-.29-1.58-2.43,2.19-5.34,2.32-8.45,1.69s-5.31-2.54-5.37-5.07c-.11-5.39-.07-10.78,0-16.18a3.56,3.56,0,0,1,2.11-3c3.41-1.91,6.83-3.8,10.18-5.77a2.08,2.08,0,0,0,1-1.48c.12-1.67,0-3.36.06-5,0-.79-.4-1.29-1.47-1.32s-1.27.59-1.26,1.28v6.51c-3.43,0-6.72,0-10,0a.87.87,0,0,1-.6-.62,38.17,38.17,0,0,1,.08-6.93c.42-2.54,2.6-4.38,5.71-5.15a24.46,24.46,0,0,1,12.93.15c3.58,1.07,5.26,3,5.27,6q0,17.76,0,35.52c0,.81-.27,1.1-1.37,1.08C238.37,53.12,235.57,53.16,232.68,53.16ZM231.86,31c-1.37,1-2.72,1.55-2.72,2.9V46.32c0,.62.19,1.18,1.14,1.18s1.57-.34,1.57-1.13C231.86,41.37,231.86,36.37,231.86,31Z" fill="#fff"/><path d="M98.56,16.37l-1.87-.19V10.84l1.84-.2V0h10.73V10.74h3.46v5.45h-3.44V43.37c0,2.68,0,2.68,3.51,3.24,0,2,0,4,0,6,0,.17-.44.48-.66.48-3-.09-6.06-.12-9.06-.37-2.53-.21-3.86-1.57-4.22-3.46a15.73,15.73,0,0,1-.25-2.82q0-14.34,0-28.69Z" fill="#fff"/><path d="M245.73,16.36l-1.83-.16V10.82l1.83-.16V0h10.69V10.75h3.48v5.42h-3.4c0,.51-.09.91-.09,1.31q0,13.18,0,26.37c0,2,.3,2.21,2.82,2.64.3,0,.72.42.73.66.06,1.78.06,3.57,0,5.35a1,1,0,0,1-.76.62c-3-.08-6.05-.12-9.06-.38-2.32-.19-3.68-1.41-4.06-3.19a14.16,14.16,0,0,1-.32-2.81c0-9.71,0-19.41,0-29.11Z" fill="#fff"/><path d="M85,10.78H95.47c0,.38.07.75.07,1.12,0,13.37,0,26.74,0,40.12,0,.94-.35,1.18-1.53,1.16-3-.07-6,0-9,0Z" fill="#fff"/><path d="M95.45,7.23H85V0H95.45Z" fill="#fff"/><rect x="140.72" y="0.03" width="10.65" height="53.09" fill="#fff"/><path d="M0,57.51V68.42H55.55V57.51Zm18.88,8.3L17,64.44,15.1,65.81l.71-2.21-1.9-1.36h2.34L17,60l.74,2.2H20L18.14,63.6Zm23.5,0-1.9-1.37L38.6,65.81l.71-2.21-1.9-1.36h2.34l.71-2.2.73,2.2H43.5L41.64,63.6Z" fill="#fff"/><path d="M71.31,57.51V68.42H260V57.51Zm14.31,8.3-1.91-1.37-1.87,1.37.71-2.21-1.9-1.36H83L83.7,60l.73,2.2h2.31L84.88,63.6Zm23.5,0-1.9-1.37-1.88,1.37.71-2.21-1.9-1.36h2.34l.71-2.2.73,2.2h2.32l-1.87,1.36Zm23.5,0-1.9-1.37-1.88,1.37.71-2.21-1.89-1.36H130l.71-2.2.74,2.2h2.31l-1.86,1.36Zm23.51,0-1.9-1.37-1.88,1.37.71-2.21-1.9-1.36h2.34l.71-2.2.73,2.2h2.31l-1.86,1.36Zm23.5,0-1.9-1.37-1.88,1.37.71-2.21-1.9-1.36H177l.71-2.2.73,2.2h2.32l-1.87,1.36Zm23.5,0-1.9-1.37-1.87,1.37.71-2.21-1.9-1.36h2.34l.7-2.2.74,2.2h2.31L202.4,63.6Zm23.51,0-1.9-1.37-1.88,1.37.71-2.21-1.9-1.36H224l.71-2.2.73,2.2h2.31L225.9,63.6Zm23.5,0-1.9-1.37-1.88,1.37.71-2.21-1.89-1.36h2.33l.71-2.2.73,2.2h2.32l-1.86,1.36Z" fill="#fff"/></g></svg>