<svg xmlns="http://www.w3.org/2000/svg" width="220" height="132" viewBox="0 0 220 132"><path d="M25.69 53.21a.64.64 0 0 1-.48-.22.62.62 0 0 1-.17-.5l.13-1.32a.67.67 0 0 1 .58-.59c5.07-.61 5.66-1.38 6.14-4.7L36.5 13c.21-1.51.25-2.5-.21-3.1s-1.79-1.12-4.43-1.45a.66.66 0 0 1-.44-.25.67.67 0 0 1-.12-.5l.2-1.31a.65.65 0 0 1 .64-.56h17.77c5.58 0 9.78 1.45 12.17 4.19a9.46 9.46 0 0 1 2 7.74c-.64 4.65-4.21 8.67-9.38 10.62 6 2.12 8.93 6.38 8.2 12.08-1.17 8-7.71 12.75-17.5 12.75zm18.69-3.62c6.86 0 10.78-3.24 11.66-9.63.4-2.69-.09-4.84-1.45-6.42-1.74-2-4.86-3-9.28-3h-4.7L37.9 49.59zm-.06-22.7c8 0 11.94-2.67 12.84-8.66.4-2.88 0-5.06-1.28-6.49s-3.67-2.3-7-2.3h-5.31l-2.45 17.45z" fill="#fff"/><path d="M49.91 6.09c5.5 0 9.64 1.42 12 4.1a9.17 9.17 0 0 1 2 7.54c-.65 4.77-4.5 8.86-9.92 10.66 6.39 2 9.49 6.23 8.74 12C61.54 48.27 55.09 53 45.44 53H25.69a.39.39 0 0 1-.29-.13.4.4 0 0 1-.1-.31l.13-1.31a.4.4 0 0 1 .35-.36c5.22-.63 5.87-1.5 6.37-4.93L36.75 13c.23-1.58.27-2.62-.25-3.3s-1.85-1.17-4.6-1.52a.41.41 0 0 1-.27-.18.4.4 0 0 1-.07-.3l.19-1.31a.4.4 0 0 1 .39-.34h17.77m-9.09 21.1h3.5c8.13 0 12.17-2.74 13.1-8.88.4-3-.05-5.21-1.34-6.7s-3.79-2.39-7.16-2.39h-5.57l-2.53 18M37.6 49.85h6.78c7 0 11-3.31 11.92-9.86.41-2.76-.1-5-1.51-6.62-1.8-2.07-5-3.13-9.48-3.13h-4.93L37.6 49.85M49.91 5.57H32.14a.91.91 0 0 0-.9.78L31 7.67a.93.93 0 0 0 .79 1c2.53.32 3.8.71 4.26 1.31s.35 1.51.15 2.92l-4.61 32.9c-.44 3-.77 3.86-5.92 4.49a.91.91 0 0 0-.8.82l-.13 1.31a1 1 0 0 0 .23.71.93.93 0 0 0 .68.3h19.79c9.93 0 16.57-4.85 17.75-13 .73-5.63-2-9.89-7.73-12.13 4.92-2.07 8.29-6 8.92-10.57a9.72 9.72 0 0 0-2.1-8c-2.44-2.8-6.72-4.28-12.37-4.28zM43.8 9.7h5.12c3.21 0 5.49.75 6.77 2.21s1.6 3.49 1.21 6.29c-.9 5.8-4.76 8.43-12.58 8.43h-2.9L43.8 9.7zm-3 21.06h4.48c4.34 0 7.39 1 9.08 2.95 1.31 1.52 1.78 3.6 1.39 6.21-.85 6.25-4.69 9.41-11.4 9.41H38.2l2.63-18.57zM81.24 53.87a12 12 0 0 1-9.53-4c-2.77-3.27-3.77-8.18-2.83-13.83 1.61-10.56 8.75-17.66 17.76-17.66a12.11 12.11 0 0 1 9.51 4c2.79 3.25 3.85 8.17 3 13.86-1.78 10.53-8.97 17.63-17.91 17.63zm4.87-32.25c-5.14 0-8.7 5.17-10 14.57-.85 6.07-.28 10.46 1.64 12.67a5.16 5.16 0 0 0 4.09 1.72c5.16 0 8.76-5.17 10.07-14.58.85-6 .27-10.42-1.67-12.65a5.21 5.21 0 0 0-4.13-1.73z" fill="#fff"/><path d="M86.64 18.59A11.83 11.83 0 0 1 96 22.51c2.74 3.19 3.78 8 2.92 13.65-1.79 10.44-8.87 17.45-17.68 17.45a11.76 11.76 0 0 1-9.33-4c-2.72-3.21-3.7-8-2.77-13.62 1.59-10.43 8.62-17.44 17.5-17.44m-4.81 32.29c5.33 0 9-5.25 10.34-14.8.85-6.12.25-10.56-1.74-12.85a5.43 5.43 0 0 0-4.32-1.83c-5.29 0-8.93 5.25-10.27 14.79-.84 6.16-.27 10.61 1.71 12.85a5.39 5.39 0 0 0 4.28 1.81m4.81-32.77c-9.15 0-16.38 7.19-18 17.89-1 5.72.07 10.7 2.89 14a12.29 12.29 0 0 0 9.73 4.14c9.07 0 16.36-7.19 18.15-17.89.88-5.76-.2-10.76-3-14.07a12.32 12.32 0 0 0-9.7-4.1zm-4.81 32.28a4.91 4.91 0 0 1-3.89-1.63c-1.88-2.15-2.42-6.47-1.58-12.46 1.29-9.26 4.76-14.35 9.75-14.35A4.93 4.93 0 0 1 90 23.53C91.93 25.7 92.49 30 91.65 36c-1.29 9.25-4.78 14.35-9.82 14.35zM109.34 53.21a.67.67 0 0 1-.65-.75l3.62-26.32c.29-2.08 0-2.75-.17-3s-.28-.24-.82-.24c-.11 0-2.65.07-5.32 6.19a.64.64 0 0 1-.38.36.85.85 0 0 1-.22 0 .73.73 0 0 1-.3-.07l-1.31-.66a.66.66 0 0 1-.33-.82c2.34-6.22 6.06-9.64 10.49-9.64a4.92 4.92 0 0 1 3.88 1.5c1.51 1.74 1.32 4.54 1 6.49v.19c2.77-5.29 6.26-8.18 9.9-8.18a3.74 3.74 0 0 1 3.51 1.79A3.81 3.81 0 0 1 132 24a3.48 3.48 0 0 1-3 1.63h-1.34c-7.81 0-9.94 9.07-10.49 13l-2 14.15a.67.67 0 0 1-.65.57z" fill="#fff"/><path d="M128.76 18.59a3.5 3.5 0 0 1 3.24 1.65 3.54 3.54 0 0 1-.26 3.57 3.22 3.22 0 0 1-2.74 1.51h-.32a8.58 8.58 0 0 0-1 0c-8 0-10.17 9.14-10.74 13.2l-2 14.15a.4.4 0 0 1-.39.34h-5.27a.41.41 0 0 1-.3-.14.42.42 0 0 1-.09-.31l3.62-26.33c.23-1.66.15-2.73-.24-3.17a1.21 1.21 0 0 0-1-.33c-.29 0-2.86.18-5.56 6.35a.39.39 0 0 1-.23.21.31.31 0 0 1-.13 0 .35.35 0 0 1-.18-.05l-1.32-.65a.4.4 0 0 1-.19-.5c2.34-6.09 5.98-9.5 10.34-9.5a4.63 4.63 0 0 1 3.63 1.41c1.44 1.66 1.26 4.37 1 6.27l-.2 1.69c2.84-6.07 6.47-9.38 10.34-9.38m0-.52c-3.52 0-6.77 2.46-9.49 7.15.16-1.84.06-4.06-1.25-5.56a5.15 5.15 0 0 0-4.03-1.58c-4.55 0-8.36 3.49-10.73 9.81a.92.92 0 0 0 .45 1.14l1.32.66a.92.92 0 0 0 .41.1.85.85 0 0 0 .31-.06.87.87 0 0 0 .52-.49c2.61-6 5-6 5.09-6 .49 0 .59.11.62.15s.41.65.12 2.76l-3.62 26.33a.9.9 0 0 0 .21.72.94.94 0 0 0 .69.32h5.27a.93.93 0 0 0 .91-.79l2-14.15c.54-3.83 2.63-12.75 10.23-12.75H129.16a3.76 3.76 0 0 0 3.17-1.75 4 4 0 0 0 .17-4.07 4 4 0 0 0-3.74-1.93zM164.3 53.87a4.92 4.92 0 0 1-3.91-1.53c-1.16-1.32-1.51-3.43-1.09-6.46l2.37-17.11c.34-2.31.18-3.8-.47-4.56a2 2 0 0 0-1.64-.62c-2.87 0-9.95 7.05-11.06 14.9l-2 14.15a.67.67 0 0 1-.65.57h-5.26a.67.67 0 0 1-.5-.23.65.65 0 0 1-.15-.52l3.62-26.32c.28-2.08 0-2.75-.18-3s-.28-.24-.82-.24c-.11 0-2.65.07-5.32 6.19a.64.64 0 0 1-.38.36.85.85 0 0 1-.22 0 .73.73 0 0 1-.3-.07l-1.31-.66a.65.65 0 0 1-.32-.82c2.33-6.22 6.05-9.64 10.48-9.64a4.91 4.91 0 0 1 3.88 1.5c1.51 1.74 1.32 4.54 1 6.49l-.21 1.51c3-4.54 7.39-9.5 12.13-9.5a6 6 0 0 1 4.88 1.87c1.48 1.71 1.91 4.57 1.3 8.75l-2.37 17.11c-.27 1.94 0 2.68.2 2.95s.29.25.86.25c.11 0 2.65-.07 5.32-6.18a.64.64 0 0 1 .38-.36.85.85 0 0 1 .22 0 .73.73 0 0 1 .3.07l1.31.66a.65.65 0 0 1 .32.82c-2.26 6.24-5.98 9.67-10.41 9.67z" fill="#fff"/><path d="M162.06 18.59a5.82 5.82 0 0 1 4.69 1.78c1.42 1.65 1.83 4.44 1.23 8.55L165.61 46c-.22 1.63-.14 2.69.26 3.15a1.31 1.31 0 0 0 1.06.34c.29 0 2.86-.17 5.56-6.34a.37.37 0 0 1 .23-.21.31.31 0 0 1 .13 0 .58.58 0 0 1 .18 0l1.32.66a.4.4 0 0 1 .19.5c-2.29 6.1-5.93 9.47-10.24 9.47a4.7 4.7 0 0 1-3.72-1.44c-1.1-1.26-1.43-3.31-1-6.25l2.37-17.11c.35-2.39.17-3.95-.54-4.77a2.26 2.26 0 0 0-1.83-.71c-2.95 0-10.19 7.16-11.32 15.13l-2 14.15a.39.39 0 0 1-.39.34h-5.26a.37.37 0 0 1-.3-.14.39.39 0 0 1-.1-.31l3.62-26.33c.23-1.66.15-2.73-.23-3.17a1.25 1.25 0 0 0-1-.33c-.29 0-2.86.18-5.56 6.35a.37.37 0 0 1-.23.21.31.31 0 0 1-.13 0 .37.37 0 0 1-.18-.05l-1.32-.65a.4.4 0 0 1-.19-.5c2.29-6.1 5.93-9.47 10.24-9.47a4.62 4.62 0 0 1 3.66 1.48c1.44 1.66 1.26 4.37 1 6.27l-.38 2.73c3.16-5 7.68-10.37 12.55-10.37m0-.52c-4.53 0-8.7 4.37-11.72 8.7l.06-.42c.28-2 .47-4.87-1.12-6.69a5.13 5.13 0 0 0-4.07-1.59c-4.54 0-8.36 3.49-10.73 9.81a.92.92 0 0 0 .45 1.14l1.32.66a.92.92 0 0 0 .41.1.81.81 0 0 0 .31-.06.91.91 0 0 0 .53-.49c2.61-6 5-6 5.08-6 .5 0 .59.11.62.15s.41.65.12 2.76l-3.62 26.25a.9.9 0 0 0 .21.72.94.94 0 0 0 .7.32h5.26a.92.92 0 0 0 .91-.79l2-14.15c1.08-7.58 8.08-14.68 10.81-14.68a1.77 1.77 0 0 1 1.44.53c.6.69.74 2.15.42 4.35l-2.37 17.11c-.44 3.11-.06 5.29 1.14 6.67a5.17 5.17 0 0 0 4.11 1.62c4.54 0 8.35-3.49 10.73-9.81a.92.92 0 0 0-.45-1.14l-1.32-.66a1 1 0 0 0-.41-.1.85.85 0 0 0-.31.06.91.91 0 0 0-.57.52c-2.6 6-5 6-5.08 6-.47 0-.6-.09-.67-.16s-.42-.67-.13-2.74L168.5 29c.61-4.26.17-7.19-1.36-9a6.29 6.29 0 0 0-5.08-2zM66.22 64.71a1.77 1.77 0 0 1-1.36-.61 1.75 1.75 0 0 1-.39-1.46 2.27 2.27 0 0 1 2.2-1.93 1.75 1.75 0 0 1 1.33.59 1.85 1.85 0 0 1 .44 1.46 2.36 2.36 0 0 1-2.22 1.95z" fill="#fff"/><path d="M66.67 61a1.54 1.54 0 0 1 1.16.5 1.6 1.6 0 0 1 .37 1.26 2.08 2.08 0 0 1-2 1.72 1.5 1.5 0 0 1-1.5-1.77 2 2 0 0 1 2-1.71m0-.52a2.53 2.53 0 0 0-2.46 2.17 2 2 0 0 0 .46 1.65 2 2 0 0 0 1.55.7 2.57 2.57 0 0 0 2.49-2.17 2.11 2.11 0 0 0-.49-1.67 2 2 0 0 0-1.55-.68zM65 81a2.11 2.11 0 0 1-1.68-.66 3.27 3.27 0 0 1-.47-2.71L64 69.76c.11-.84 0-1 0-1.06s-.14 0-.21 0-.95 0-2 2.38a.43.43 0 0 1-.25.23h-.14a.37.37 0 0 1-.18 0l-.58-.31a.42.42 0 0 1-.21-.52c1-2.55 2.5-4 4.35-4a2.07 2.07 0 0 1 1.66.66 3.43 3.43 0 0 1 .46 2.72l-1.08 7.9c-.11.82 0 1 0 1a.39.39 0 0 0 .23 0s1 0 2-2.38a.42.42 0 0 1 .24-.23h.14a.37.37 0 0 1 .18 0l.54.26a.42.42 0 0 1 .2.53C68.42 79.63 66.88 81 65 81z" fill="#fff"/><path d="M64.78 66.76a1.84 1.84 0 0 1 1.47.57 3.22 3.22 0 0 1 .39 2.51l-1.08 7.9c-.09.66 0 1.08.11 1.26a.5.5 0 0 0 .42.14c.12 0 1.15-.07 2.23-2.54a.12.12 0 0 1 .09-.08h.12l.53.27a.15.15 0 0 1 .08.19c-.92 2.45-2.37 3.79-4.1 3.79a1.87 1.87 0 0 1-1.49-.57 3.11 3.11 0 0 1-.41-2.5l1.08-7.9c.09-.67.06-1.1-.09-1.27a.5.5 0 0 0-.41-.13c-.11 0-1.14.07-2.22 2.54a.18.18 0 0 1-.09.08h-.13l-.53-.26a.16.16 0 0 1-.07-.2c.91-2.44 2.37-3.79 4.1-3.79m0-.52c-2 0-3.59 1.47-4.59 4.13a.69.69 0 0 0 .33.85l.53.26a.63.63 0 0 0 .3.07.67.67 0 0 0 .24 0 .66.66 0 0 0 .38-.37c.94-2.14 1.75-2.22 1.76-2.22a2.91 2.91 0 0 1 0 .81l-1.08 7.9a3.54 3.54 0 0 0 .53 2.91 2.36 2.36 0 0 0 1.88.75c2 0 3.59-1.46 4.58-4.12a.68.68 0 0 0-.33-.85l-.52-.26a.67.67 0 0 0-.31-.07.62.62 0 0 0-.23 0 .66.66 0 0 0-.39.36c-.93 2.14-1.75 2.23-1.76 2.23a2.9 2.9 0 0 1 0-.81l1.08-7.9a3.67 3.67 0 0 0-.54-2.92 2.33 2.33 0 0 0-1.86-.75zM81.37 81a2.13 2.13 0 0 1-1.69-.66 3.35 3.35 0 0 1-.47-2.71l1-6.85a2.31 2.31 0 0 0-.15-1.7.66.66 0 0 0-.54-.19c-.94 0-3.82 2.65-4.27 5.83l-.79 5.66a.42.42 0 0 1-.42.36h-2.1a.43.43 0 0 1-.32-.14.46.46 0 0 1-.1-.33l1.45-10.54c.12-.86 0-1 0-1.06s-.15 0-.21 0-1 0-2 2.38a.45.45 0 0 1-.24.23h-.14a.41.41 0 0 1-.19 0l-.6-.28a.41.41 0 0 1-.2-.52c1-2.55 2.5-4 4.34-4a2.09 2.09 0 0 1 1.67.66 3.43 3.43 0 0 1 .46 2.67c1.57-2.21 3.12-3.33 4.61-3.33a2.55 2.55 0 0 1 2.07.8c.63.72.81 1.91.56 3.63l-.95 6.85c-.11.82 0 1 0 1a.39.39 0 0 0 .23 0s1 0 2-2.38a.42.42 0 0 1 .24-.23h.14a.37.37 0 0 1 .18 0l.53.26a.43.43 0 0 1 .21.53c-.93 2.69-2.47 4.06-4.31 4.06z" fill="#fff"/><path d="M80.47 66.76a2.34 2.34 0 0 1 1.88.71c.57.66.73 1.78.49 3.42l-1 6.85c-.09.66 0 1.08.11 1.26a.5.5 0 0 0 .42.14c.12 0 1.15-.07 2.23-2.54a.12.12 0 0 1 .09-.08h.12l.53.27a.16.16 0 0 1 .08.19c-.92 2.45-2.38 3.79-4.1 3.79a1.87 1.87 0 0 1-1.49-.57 3.1 3.1 0 0 1-.41-2.5l1-6.85a2.5 2.5 0 0 0-.21-1.91.93.93 0 0 0-.74-.28c-1.18 0-4.08 2.86-4.53 6l-.79 5.66a.16.16 0 0 1-.16.14h-2.1a.17.17 0 0 1-.12-.05.16.16 0 0 1 0-.13l1.41-10.48c.09-.67.06-1.1-.1-1.27a.49.49 0 0 0-.4-.13c-.12 0-1.15.07-2.23 2.54a.18.18 0 0 1-.09.08h-.07l-.53-.26a.16.16 0 0 1-.08-.2c.92-2.44 2.37-3.79 4.1-3.79a1.83 1.83 0 0 1 1.47.57 3.22 3.22 0 0 1 .4 2.51l-.15 1.07c1.27-2 3.07-4.15 5-4.15m0-.52c-1.4 0-2.84.91-4.28 2.72a2.87 2.87 0 0 0-.6-2 2.31 2.31 0 0 0-1.86-.75c-2 0-3.59 1.47-4.59 4.13a.67.67 0 0 0 .34.84l.52.27a.67.67 0 0 0 .31.07.59.59 0 0 0 .23 0 .71.71 0 0 0 .39-.37c.93-2.13 1.75-2.22 1.76-2.22a3.15 3.15 0 0 1 0 .81l-1.51 10.51a.74.74 0 0 0 .16.54.68.68 0 0 0 .52.23H74a.69.69 0 0 0 .68-.58l.79-5.67c.43-3.08 3.22-5.6 4-5.6.25 0 .32.07.34.1s.25.42.1 1.5l-1 6.85a3.51 3.51 0 0 0 .53 2.91 2.35 2.35 0 0 0 1.88.75c2 0 3.59-1.46 4.58-4.12a.69.69 0 0 0-.33-.85l-.53-.26a.6.6 0 0 0-.3-.07.59.59 0 0 0-.23 0 .69.69 0 0 0-.39.36c-.94 2.14-1.75 2.23-1.76 2.23a2.9 2.9 0 0 1 0-.81l1-6.84c.26-1.8.06-3.06-.62-3.84a2.81 2.81 0 0 0-2.27-.89zM103 81a2 2 0 0 1-1.63-.67 2.74 2.74 0 0 1-.57-1.61A4.65 4.65 0 0 1 96.67 81a3.6 3.6 0 0 1-2.82-1.32 7.46 7.46 0 0 1-1.15-6c.6-3.58 3.42-7.2 7.66-7.2a4.19 4.19 0 0 1 3 1.08l.64-.79a.42.42 0 0 1 .32-.16h.53a.42.42 0 0 1 .32.15.39.39 0 0 1 .09.33l-1.52 10.67c-.12.86 0 1 0 1.07a.33.33 0 0 0 .18 0c.26 0 1.09-.42 1.76-2.35a.43.43 0 0 1 .23-.25h.17a.51.51 0 0 1 .17 0l.6.26a.41.41 0 0 1 .22.54c-.9 2.42-1.95 3.97-4.07 3.97zm-2.87-12.9c-1.72 0-3.73 1.76-4.32 5.7-.3 2-.09 3.53.6 4.32a1.7 1.7 0 0 0 1.35.6c2 0 3.42-3.26 3.75-5.57l.24-1.58c.22-1.43.09-2.44-.38-3a1.54 1.54 0 0 0-1.28-.44z" fill="#fff"/><path d="M100.36 66.76a3.79 3.79 0 0 1 3 1.22l.82-1a.2.2 0 0 1 .12-.06h.53a.14.14 0 0 1 .17.08.18.18 0 0 1 0 .13l-1.53 10.66c-.1.69-.07 1.11.08 1.28a.46.46 0 0 0 .37.12c.42 0 1.31-.53 2-2.53a.16.16 0 0 1 .09-.09h.12l.61.26a.17.17 0 0 1 .08.21c-.82 2.22-1.82 3.73-3.82 3.73a1.78 1.78 0 0 1-1.43-.58 3.15 3.15 0 0 1-.47-2.42c-1.15 2.1-2.49 3-4.39 3a3.35 3.35 0 0 1-2.62-1.22A7.23 7.23 0 0 1 93 73.74c.58-3.47 3.31-7 7.4-7M97.72 79c2.31 0 3.68-3.55 4-5.79l.24-1.58c.23-1.51.08-2.58-.44-3.19a1.79 1.79 0 0 0-1.44-.58c-1.84 0-4 1.83-4.58 5.92-.31 2.07-.07 3.68.66 4.53a2 2 0 0 0 1.55.69m2.64-12.77c-4.38 0-7.3 3.73-7.91 7.42a7.65 7.65 0 0 0 1.21 6.22 3.81 3.81 0 0 0 3 1.41 4.78 4.78 0 0 0 3.92-1.87 2.56 2.56 0 0 0 .54 1.11 2.35 2.35 0 0 0 1.83.76c2.44 0 3.54-2 4.38-4.12a.67.67 0 0 0-.37-.86l-.6-.27a.86.86 0 0 0-.27-.05.76.76 0 0 0-.27.05.69.69 0 0 0-.37.4c-.61 1.73-1.31 2.15-1.5 2.18a3.4 3.4 0 0 1 .05-.81l1.52-10.66a.69.69 0 0 0-.67-.78h-.53a.7.7 0 0 0-.53.26l-.46.58a4.49 4.49 0 0 0-3-1zm-2.63 12.26a1.47 1.47 0 0 1-1.16-.49c-.62-.72-.82-2.22-.54-4.11.57-3.79 2.46-5.48 4.07-5.48a1.28 1.28 0 0 1 1 .4 3.67 3.67 0 0 1 .32 2.77l-.24 1.58c-.32 2.22-1.61 5.35-3.49 5.35zM13.71 127.89a.63.63 0 0 1-.48-.21.64.64 0 0 1-.17-.51l.13-1.31a.66.66 0 0 1 .58-.59c5.07-.62 5.66-1.39 6.14-4.71L25 84.13h-4.51c-4.49 0-7.36 2.53-8.78 7.74a.64.64 0 0 1-.63.49H9.44a.66.66 0 0 1-.65-.77l1.84-10.53a.66.66 0 0 1 .65-.55h34.88a.65.65 0 0 1 .65.73l-1.18 10.53a.66.66 0 0 1-.66.59h-1.64a.67.67 0 0 1-.47-.2.71.71 0 0 1-.19-.48C42.74 89 42.16 87 41 85.74a6.26 6.26 0 0 0-4.67-1.61h-4.7l-5.12 36.62c-.22 1.51-.26 2.51.2 3.11s1.78 1.08 4.37 1.41a.67.67 0 0 1 .57.72l-.13 1.31a.66.66 0 0 1-.66.59z" fill="#fff"/><path d="M46.16 80.77a.41.41 0 0 1 .39.44l-1.18 10.53a.4.4 0 0 1-.4.36h-1.64a.41.41 0 0 1-.4-.41c.07-2.78-.53-4.85-1.78-6.13a6.54 6.54 0 0 0-4.86-1.69h-4.92l-5.15 36.84c-.24 1.59-.27 2.63.25 3.31s1.83 1.16 4.54 1.51a.4.4 0 0 1 .34.43l-.13 1.32a.39.39 0 0 1-.4.35H13.71a.36.36 0 0 1-.29-.13.37.37 0 0 1-.1-.3l.13-1.32a.39.39 0 0 1 .35-.35c5.22-.64 5.87-1.5 6.37-4.93l5.13-36.73h-4.81c-4.62 0-7.58 2.59-9 7.93a.39.39 0 0 1-.38.3H9.44a.45.45 0 0 1-.31-.1.42.42 0 0 1-.08-.33l1.84-10.57a.4.4 0 0 1 .39-.33h34.88m0-.52H11.28a.9.9 0 0 0-.9.76L8.53 91.54a1 1 0 0 0 .2.75.92.92 0 0 0 .71.33h1.64a.91.91 0 0 0 .88-.68c1.39-5.08 4.17-7.55 8.53-7.55h4.21l-5.05 36.14c-.44 3-.77 3.86-5.92 4.48a.93.93 0 0 0-.8.82l-.13 1.32a1 1 0 0 0 .23.7.93.93 0 0 0 .68.3h17.11a.9.9 0 0 0 .91-.82l.14-1.32a.92.92 0 0 0-.8-1c-2.48-.31-3.74-.71-4.19-1.3s-.36-1.51-.15-2.92l5.09-36.4h4.47a6 6 0 0 1 4.49 1.53c1.15 1.18 1.7 3.12 1.63 5.76a.92.92 0 0 0 .92.94H45a.91.91 0 0 0 .91-.82l1.19-10.53a.93.93 0 0 0-.91-1z" fill="#fff"/><path d="M46.62 127.89a.64.64 0 0 1-.49-.22.65.65 0 0 1-.16-.52l3.62-26.33c.29-2.08 0-2.75-.17-3s-.28-.24-.82-.24c-.11 0-2.65.07-5.33 6.19a.67.67 0 0 1-.37.35.62.62 0 0 1-.23 0 .59.59 0 0 1-.29-.07l-1.32-.66a.66.66 0 0 1-.32-.81C43.07 96.44 46.8 93 51.23 93a4.85 4.85 0 0 1 3.87 1.5c1.52 1.74 1.33 4.53 1.06 6.48v.2C58.91 95.91 62.39 93 66 93a3.71 3.71 0 0 1 3.5 1.79 3.79 3.79 0 0 1-.27 3.83 3.46 3.46 0 0 1-3 1.63H64.9c-7.81 0-9.94 9.07-10.49 13l-2 14.15a.66.66 0 0 1-.65.56z" fill="#fff"/><path d="M66 93.28a3.26 3.26 0 0 1 3 5.21 3.22 3.22 0 0 1-2.69 1.51H65c-8 0-10.17 9.14-10.75 13.19l-2 14.15a.4.4 0 0 1-.39.34h-5.24a.43.43 0 0 1-.3-.13.41.41 0 0 1-.09-.32l3.62-26.32c.23-1.66.15-2.73-.24-3.17a1.23 1.23 0 0 0-1-.33c-.29 0-2.87.18-5.56 6.35a.47.47 0 0 1-.23.21.34.34 0 0 1-.14 0 .33.33 0 0 1-.17 0l-1.32-.66a.39.39 0 0 1-.19-.49c2.29-6.11 5.92-9.47 10.24-9.47a4.64 4.64 0 0 1 3.68 1.41c1.44 1.66 1.25 4.38 1 6.28l-.2 1.68c2.84-6.06 6.46-9.37 10.34-9.37m0-.52c-3.53 0-6.77 2.46-9.5 7.15.17-1.85.06-4.06-1.24-5.56a5.12 5.12 0 0 0-4.07-1.59c-4.55 0-8.36 3.48-10.73 9.81a.91.91 0 0 0 .45 1.14l1.31.66a1 1 0 0 0 .41.09 1.13 1.13 0 0 0 .32 0 .94.94 0 0 0 .52-.5c2.61-6 5-6 5.09-6 .49 0 .59.11.62.15s.4.65.11 2.76l-3.62 26.32a1 1 0 0 0 .22.73.91.91 0 0 0 .69.31h5.27a.91.91 0 0 0 .9-.79l2-14.14c.54-3.84 2.62-12.75 10.23-12.75H66.4a3.77 3.77 0 0 0 3.18-1.75 4.07 4.07 0 0 0 .28-4.1A4 4 0 0 0 66 92.76zM101.58 128.55a4.88 4.88 0 0 1-3.88-1.5c-1.51-1.74-1.32-4.53-1-6.48l.21-1.52c-3 4.55-7.4 9.5-12.13 9.5a6.06 6.06 0 0 1-4.88-1.86c-1.48-1.71-1.91-4.58-1.3-8.76l2.37-17.11c.27-1.94 0-2.67-.2-2.94-.1-.12-.3-.26-.86-.26-.11 0-2.65.07-5.32 6.19a.66.66 0 0 1-.38.35.57.57 0 0 1-.22 0 .6.6 0 0 1-.3-.07l-1.31-.66a.65.65 0 0 1-.33-.81C74.34 96.44 78.06 93 82.49 93a4.92 4.92 0 0 1 3.91 1.52c1.15 1.33 1.51 3.44 1.08 6.46l-2.37 17.12c-.33 2.31-.18 3.8.48 4.56a2 2 0 0 0 1.64.61c2.87 0 10-7.05 11.06-14.9l2-14.15a.65.65 0 0 1 .65-.56h5.26a.68.68 0 0 1 .5.22.65.65 0 0 1 .15.52l-3.62 26.33c-.28 2.08 0 2.75.18 3s.28.24.82.24c.1 0 2.64-.07 5.32-6.19a.66.66 0 0 1 .38-.35.54.54 0 0 1 .22 0 .66.66 0 0 1 .3.07l1.31.66a.65.65 0 0 1 .32.81c-2.35 6.16-6.08 9.58-10.5 9.58z" fill="#fff"/><path d="M82.49 93.28a4.66 4.66 0 0 1 3.71 1.43c1.1 1.27 1.44 3.31 1 6.26l-2.37 17.11c-.35 2.39-.18 4 .53 4.77a2.29 2.29 0 0 0 1.84.7c2.94 0 10.19-7.15 11.32-15.12l2-14.15a.4.4 0 0 1 .4-.34h5.26a.4.4 0 0 1 .3.13.37.37 0 0 1 .09.32L103 120.71c-.23 1.67-.15 2.73.23 3.17a1.24 1.24 0 0 0 1 .33c.28 0 2.86-.18 5.56-6.34a.39.39 0 0 1 .23-.22h.13a.39.39 0 0 1 .18 0l1.31.66a.39.39 0 0 1 .2.49c-2.29 6.11-5.93 9.47-10.24 9.47a4.61 4.61 0 0 1-3.68-1.41c-1.45-1.66-1.26-4.38-1-6.28l.37-2.67c-3.17 5-7.69 10.36-12.55 10.36a5.84 5.84 0 0 1-4.74-1.75c-1.42-1.65-1.83-4.45-1.23-8.55l2.37-17.11c.22-1.64.13-2.7-.26-3.15a1.31 1.31 0 0 0-1.06-.35c-.29 0-2.86.18-5.56 6.35a.47.47 0 0 1-.23.21.3.3 0 0 1-.13 0 .37.37 0 0 1-.18 0l-1.32-.66a.39.39 0 0 1-.19-.49c2.29-6.11 5.93-9.47 10.24-9.47m0-.52c-4.55 0-8.36 3.48-10.73 9.81a.92.92 0 0 0 .45 1.14l1.32.66a.91.91 0 0 0 .41.09 1.12 1.12 0 0 0 .31 0 1 1 0 0 0 .53-.5c2.6-6 5-6 5.08-6 .47 0 .6.1.66.17s.43.67.14 2.74l-2.33 17.01c-.62 4.26-.17 7.19 1.36 9a6.32 6.32 0 0 0 5.08 2c4.53 0 8.7-4.37 11.72-8.7l-.06.42c-.28 2-.47 4.87 1.11 6.69a5.12 5.12 0 0 0 4.08 1.59c4.54 0 8.35-3.48 10.72-9.81a.9.9 0 0 0-.44-1.14l-1.32-.65a.86.86 0 0 0-.41-.1 1.06 1.06 0 0 0-.31 0 .93.93 0 0 0-.53.5c-2.61 6-5 6-5.08 6-.5 0-.59-.11-.63-.15s-.4-.65-.11-2.76l3.62-26.32a.92.92 0 0 0-.91-1h-5.26a.92.92 0 0 0-.91.79l-2 14.14C97 115.94 90 123 87.23 123a1.75 1.75 0 0 1-1.44-.52c-.6-.69-.74-2.16-.42-4.36L87.74 101c.44-3.1.06-5.29-1.14-6.67a5.18 5.18 0 0 0-4.11-1.61zM142.38 128.55a4.92 4.92 0 0 1-3.91-1.52c-1.15-1.32-1.51-3.44-1.08-6.46l2.37-17.11c.33-2.32.18-3.81-.48-4.57a2 2 0 0 0-1.64-.61c-2.87 0-9.95 7-11.06 14.9l-2 14.15a.65.65 0 0 1-.65.56h-5.26a.68.68 0 0 1-.5-.22.65.65 0 0 1-.15-.52l3.62-26.33c.29-2.07 0-2.75-.18-3s-.27-.24-.82-.24c-.1 0-2.64.07-5.32 6.19a.66.66 0 0 1-.38.35.54.54 0 0 1-.22 0 .59.59 0 0 1-.29-.07l-1.32-.66a.65.65 0 0 1-.32-.81c2.33-6.22 6.06-9.64 10.49-9.64a4.87 4.87 0 0 1 3.87 1.5c1.51 1.74 1.33 4.53 1 6.48l-.21 1.52c3-4.55 7.4-9.5 12.13-9.5a6.09 6.09 0 0 1 4.93 1.94c1.48 1.71 1.9 4.58 1.29 8.76L144 120.75c-.26 1.94 0 2.67.2 2.94s.3.26.86.26c.11 0 2.65-.07 5.33-6.19a.64.64 0 0 1 .37-.35.62.62 0 0 1 .23 0 .59.59 0 0 1 .29.07l1.32.66a.66.66 0 0 1 .32.81c-2.38 6.18-6.11 9.6-10.54 9.6z" fill="#fff"/><path d="M140.14 93.28a5.83 5.83 0 0 1 4.69 1.77c1.43 1.65 1.83 4.45 1.23 8.55l-2.37 17.11c-.22 1.64-.13 2.7.27 3.15a1.28 1.28 0 0 0 1 .35c.29 0 2.87-.18 5.56-6.34a.45.45 0 0 1 .23-.22h.14a.33.33 0 0 1 .17 0l1.32.66a.39.39 0 0 1 .19.49c-2.29 6.11-5.92 9.47-10.24 9.47a4.66 4.66 0 0 1-3.71-1.43c-1.1-1.26-1.44-3.31-1-6.26l2.38-17.09c.35-2.39.18-3.95-.53-4.77a2.29 2.29 0 0 0-1.84-.7c-2.94 0-10.19 7.16-11.32 15.12l-2 14.15a.4.4 0 0 1-.4.34h-5.26a.42.42 0 0 1-.3-.13.41.41 0 0 1-.09-.32l3.62-26.32c.23-1.66.15-2.73-.24-3.17a1.24 1.24 0 0 0-1-.33c-.28 0-2.86.18-5.56 6.35a.41.41 0 0 1-.22.21.34.34 0 0 1-.14 0 .39.39 0 0 1-.18 0l-1.31-.66a.4.4 0 0 1-.2-.49c2.29-6.11 5.93-9.47 10.25-9.47a4.6 4.6 0 0 1 3.72 1.39c1.45 1.66 1.26 4.38 1 6.28l-.37 2.67c3.16-5 7.68-10.36 12.54-10.36m0-.52c-4.52 0-8.7 4.37-11.72 8.7l.06-.42c.28-2 .47-4.87-1.11-6.69a5.12 5.12 0 0 0-4.07-1.59c-4.55 0-8.36 3.48-10.73 9.81a.9.9 0 0 0 .44 1.14l1.32.66a1 1 0 0 0 .41.09 1.13 1.13 0 0 0 .32 0 .94.94 0 0 0 .52-.5c2.61-6 5-6 5.08-6 .5 0 .59.11.63.15s.4.65.11 2.76l-3.62 26.32a.92.92 0 0 0 .22.73.9.9 0 0 0 .69.31H124a.92.92 0 0 0 .91-.79l2-14.14c1.08-7.58 8.09-14.68 10.81-14.68a1.78 1.78 0 0 1 1.44.52c.6.69.74 2.16.42 4.36l-2.37 17.11c-.43 3.1-.06 5.29 1.14 6.67a5.18 5.18 0 0 0 4.11 1.61c4.55 0 8.36-3.48 10.73-9.81a.92.92 0 0 0-.45-1.14l-1.31-.65a.86.86 0 0 0-.41-.1 1.13 1.13 0 0 0-.32 0 .94.94 0 0 0-.52.5c-2.61 6-5 6-5.09 6-.46 0-.6-.09-.66-.17s-.42-.67-.14-2.74l2.37-17.11c.62-4.25.17-7.19-1.36-9a6.32 6.32 0 0 0-5.08-1.95zM180.22 128.55c-4.07 0-6-2.93-7.48-5.67l-6.36-11.77-.72.1-.65.08-2.23 16a.66.66 0 0 1-.65.56h-5.27a.64.64 0 0 1-.49-.22.62.62 0 0 1-.16-.52L162 85.69c.22-1.58.34-2.74-.19-3.35s-1.7-.84-3.7-.84a.67.67 0 0 1-.65-.73l.13-1.31a.67.67 0 0 1 .47-.57l10.34-3H169.23a.68.68 0 0 1 .5.22.67.67 0 0 1 .15.52l-4.48 31.67c4.23-.64 14.87-4 14.43-12a3 3 0 0 1 1.46-2.83 3.42 3.42 0 0 1 1.86-.54 3.18 3.18 0 0 1 1.61.43c.67.39 1.77 1.41 1.65 3.8-.37 5.45-7.93 10.13-13.12 12l7.17 12.47c1.28 2.05 1.77 2.24 2.73 2.24.51 0 2.41-.45 5.33-6.22a.66.66 0 0 1 .59-.36.59.59 0 0 1 .29.07l1.32.66a.66.66 0 0 1 .31.85c-2.57 5.84-5.38 9.68-10.81 9.68z" fill="#fff"/><path d="M169.23 76.17a.4.4 0 0 1 .3.13.42.42 0 0 1 .1.32l-4.54 32c5.23-.67 15.43-4.44 15-12.3a2.74 2.74 0 0 1 1.34-2.6 3.24 3.24 0 0 1 1.72-.5 3 3 0 0 1 1.48.39c.62.36 1.64 1.31 1.52 3.56-.36 5.45-8.12 10.1-13.24 11.92l7.33 12.74c1.27 2 1.83 2.37 2.95 2.37.7 0 2.66-.62 5.57-6.36a.38.38 0 0 1 .35-.22.39.39 0 0 1 .18 0l1.31.66a.4.4 0 0 1 .19.51c-2.52 5.68-5.28 9.45-10.57 9.45-3.93 0-5.8-2.86-7.25-5.54l-6.45-11.92-.89.12-.85.11-2.26 16.23a.4.4 0 0 1-.39.34h-5.27a.43.43 0 0 1-.3-.13.41.41 0 0 1-.09-.32l5.79-41.46c.23-1.64.35-2.86-.26-3.55s-1.79-.93-3.89-.93a.39.39 0 0 1-.29-.13.4.4 0 0 1-.1-.31l.13-1.31a.41.41 0 0 1 .28-.35l10.34-3h.76m0-.52h-.65a1.09 1.09 0 0 0-.26 0l-10.33 3a.91.91 0 0 0-.66.79l-.13 1.31a.91.91 0 0 0 .91 1c1.89 0 3.07.25 3.5.75s.34 1.68.14 3.14L156 127.11a1 1 0 0 0 .22.73.91.91 0 0 0 .69.31h5.27a.91.91 0 0 0 .9-.79l2.21-15.84.45-.06.55-.06 6.27 11.6c1.52 2.81 3.49 5.81 7.71 5.81 5.57 0 8.44-3.9 11-9.76a.92.92 0 0 0-.42-1.19l-1.32-.65a.86.86 0 0 0-.41-.1.91.91 0 0 0-.82.5c-2.93 5.79-4.76 6.08-5.1 6.08-.82 0-1.24-.09-2.51-2.12l-7-12.2a31.46 31.46 0 0 0 8-4.46c3.13-2.46 4.87-5.12 5-7.69s-1.06-3.63-1.78-4a3.45 3.45 0 0 0-1.74-.46 3.73 3.73 0 0 0-2 .58 3.2 3.2 0 0 0-1.57 3.08c.21 4.06-2.68 6.79-5.15 8.37a24.34 24.34 0 0 1-8.75 3.21l4.44-31.32a.92.92 0 0 0-.21-.73.93.93 0 0 0-.7-.31zM4.35 17.71a4.35 4.35 0 0 1-3.47-1.39c-1.34-1.55-1.21-3.94-1-5.23C.63 5.62 5.27 1.21 9.24-.16l.24-.09h.09a.27.27 0 0 1 .24.17l.59 1.68a.26.26 0 0 1-.14.32L10 2C6.35 3.65 4.19 7.22 4.53 8.83a.74.74 0 0 0 .84.62 3.57 3.57 0 0 1 2.78 1.23 3.65 3.65 0 0 1 .81 3 4.75 4.75 0 0 1-4.61 4.03z" fill="#fff"/><path d="M9.57 0l.58 1.67-.22.1C6 3.52 3.92 7.21 4.28 8.88a1 1 0 0 0 1.09.82A3.33 3.33 0 0 1 8 10.85a3.38 3.38 0 0 1 .75 2.77 4.49 4.49 0 0 1-4.35 3.83 4.1 4.1 0 0 1-3.27-1.3c-1.27-1.47-1.15-3.78-1-5 .76-5.37 5.31-9.7 9.2-11L9.57 0m0-.52a.47.47 0 0 0-.17 0l-.25.08C5.11 1 .39 5.48-.4 11.06c-.2 1.33-.32 3.8 1.08 5.43A4.61 4.61 0 0 0 4.35 18a5 5 0 0 0 4.87-4.29 3.92 3.92 0 0 0-.87-3.17 3.85 3.85 0 0 0-3-1.33c-.41 0-.53-.15-.58-.41C4.5 7.44 6.32 4 10.14 2.25l.22-.1a.52.52 0 0 0 .28-.65l-.58-1.67a.52.52 0 0 0-.49-.35zM17.6 17.71a4.35 4.35 0 0 1-3.47-1.39c-1.34-1.55-1.22-3.94-1-5.23.77-5.47 5.41-9.88 9.37-11.25l.25-.09h.08a.27.27 0 0 1 .25.17l.58 1.68a.24.24 0 0 1-.14.32l-.21.1c-3.69 1.64-5.85 5.21-5.51 6.82a.74.74 0 0 0 .84.62 3.59 3.59 0 0 1 2.78 1.23 3.64 3.64 0 0 1 .8 3 4.74 4.74 0 0 1-4.62 4.02z" fill="#fff"/><path d="M22.81 0l.59 1.67-.22.1c-3.93 1.75-6 5.44-5.65 7.11a1 1 0 0 0 1.09.82 3.35 3.35 0 0 1 2.58 1.14 3.44 3.44 0 0 1 .8 2.78 4.49 4.49 0 0 1-4.35 3.83 4.13 4.13 0 0 1-3.28-1.3c-1.27-1.47-1.14-3.78-1-5 .76-5.37 5.31-9.7 9.21-11l.23-.15m0-.52h-.17l-.24.08c-4 1.4-8.76 5.89-9.55 11.47-.2 1.32-.32 3.8 1.08 5.43A4.61 4.61 0 0 0 17.6 18a5 5 0 0 0 4.86-4.29 3.89 3.89 0 0 0-.87-3.17 3.82 3.82 0 0 0-3-1.33c-.42 0-.53-.15-.59-.41-.25-1.36 1.57-4.8 5.39-6.55l.22-.1a.52.52 0 0 0 .28-.65L23.3-.17a.5.5 0 0 0-.49-.35zM197.15 99.36a.27.27 0 0 1-.25-.18l-.58-1.67a.26.26 0 0 1 .14-.33l.22-.09c3.71-1.63 5.9-5.21 5.56-6.82a.73.73 0 0 0-.84-.62 3.65 3.65 0 0 1-2.76-1.2 3.73 3.73 0 0 1-.88-3 4.9 4.9 0 0 1 4.67-4.07 4.33 4.33 0 0 1 3.41 1.34c1.26 1.42 1.28 3.65 1.08 5.26-.78 5.48-5.44 9.89-9.44 11.27l-.25.08z" fill="#fff"/><path d="M202.43 81.65a4.06 4.06 0 0 1 3.21 1.25c1.2 1.35 1.21 3.5 1 5.06-.76 5.37-5.34 9.7-9.27 11.05l-.24.09-.59-1.68.22-.09c4-1.75 6.07-5.44 5.72-7.11a1 1 0 0 0-1.1-.83 3.36 3.36 0 0 1-2.57-1.12 3.54 3.54 0 0 1-.82-2.78 4.63 4.63 0 0 1 4.42-3.84m0-.52a5.17 5.17 0 0 0-4.93 4.28 4 4 0 0 0 .95 3.21 3.88 3.88 0 0 0 3 1.29c.42 0 .53.15.59.41.28 1.34-1.56 4.84-5.42 6.53l-.22.1a.51.51 0 0 0-.28.64l.59 1.68a.52.52 0 0 0 .49.35h.17l.24-.09c4.08-1.4 8.83-5.9 9.61-11.46.21-1.68.18-4-1.14-5.48a4.55 4.55 0 0 0-3.6-1.43zM210.4 99.36a.27.27 0 0 1-.25-.18l-.59-1.67a.27.27 0 0 1 .15-.33l.22-.09c3.71-1.64 5.9-5.21 5.56-6.82a.73.73 0 0 0-.84-.62 3.65 3.65 0 0 1-2.76-1.2 3.78 3.78 0 0 1-.89-3 4.9 4.9 0 0 1 4.67-4.07 4.35 4.35 0 0 1 3.42 1.34c1.25 1.42 1.28 3.65 1.08 5.26-.78 5.48-5.45 9.89-9.44 11.27l-.25.08z" fill="#fff"/><path d="M215.67 81.65a4.09 4.09 0 0 1 3.22 1.25c1.19 1.35 1.21 3.5 1 5.06-.76 5.37-5.34 9.7-9.27 11.05l-.24.09-.59-1.68.22-.09c4-1.75 6.07-5.44 5.71-7.11a1 1 0 0 0-1.09-.83 3.34 3.34 0 0 1-2.57-1.12 3.47 3.47 0 0 1-.82-2.78 4.63 4.63 0 0 1 4.41-3.84m0-.52a5.17 5.17 0 0 0-4.92 4.28 4 4 0 0 0 .94 3.21 3.9 3.9 0 0 0 3 1.29c.42 0 .53.15.59.41.28 1.34-1.57 4.84-5.42 6.53l-.22.1a.51.51 0 0 0-.28.64l.59 1.68a.52.52 0 0 0 .49.35h.17l.24-.09c4.07-1.4 8.82-5.9 9.61-11.46.21-1.68.18-4-1.14-5.48a4.58 4.58 0 0 0-3.61-1.43z" fill="#fff"/></svg>