<svg xmlns="http://www.w3.org/2000/svg" width="300" height="49" viewBox="0 0 300 49"><path d="M19.06,3.84a12,12,0,0,0-3.67-2.11,11.69,11.69,0,0,0-8.12,0A11.17,11.17,0,0,0,3.65,3.85,10.61,10.61,0,0,0,1,7.5a11.9,11.9,0,0,0-1,5v23.6a12,12,0,0,0,1,5.09,10.12,10.12,0,0,0,2.65,3.51,10.49,10.49,0,0,0,3.62,2.19,11.66,11.66,0,0,0,8.12,0,11.49,11.49,0,0,0,3.68-2.18,10.7,10.7,0,0,0,2.59-3.52,12,12,0,0,0,1-5.09V21.46H10V28.3h5.09v7.82a3.69,3.69,0,0,1-1.08,3,4,4,0,0,1-2.66,1,3.94,3.94,0,0,1-2.66-1,3.69,3.69,0,0,1-1.08-3V12.52a3.69,3.69,0,0,1,1.08-3,4,4,0,0,1,2.66-1,4,4,0,0,1,2.66,1,3.69,3.69,0,0,1,1.08,3v2.85h7.59V12.52a12.06,12.06,0,0,0-1-5A11,11,0,0,0,19.06,3.84Z" fill="#fff"/><path d="M36.11,1.38,25.86,47.26H33.5l1.88-9.6h7.75L45,47.26h7.64L42.4,1.38Zm5.6,29.06h-5l2.48-12.79Z" fill="#fff"/><polygon points="63.25 17.81 58.48 1.38 50.43 1.38 59.45 27.87 59.45 47.26 67.04 47.26 67.04 27.87 76.07 1.38 68.01 1.38 63.25 17.81" fill="#fff"/><path d="M171.23,5a10.49,10.49,0,0,0-3.75-2.66,13.76,13.76,0,0,0-5.48-1h-9.95V47.26h9.32c4.34,0,7.56-1.12,9.57-3.33s3-5.37,3-9.44V32a13.11,13.11,0,0,0-1.13-5.92,7.49,7.49,0,0,0-2.68-2.91,8.78,8.78,0,0,0,2.6-2.67,7.86,7.86,0,0,0,.92-2.37A15.43,15.43,0,0,0,174,14.9V13.27a15.75,15.75,0,0,0-.62-4.4A10.08,10.08,0,0,0,171.23,5Zm-5.49,13.33c-.61.9-1.89,1.35-3.81,1.35h-2.29V8.59h2c1.94,0,3.27.44,4,1.29A6.57,6.57,0,0,1,166.74,14,7.73,7.73,0,0,1,165.74,18.36Zm.15,9.61a4.74,4.74,0,0,1,.66,1.9,18.32,18.32,0,0,1,.19,2.86c0,1.06-.05,2.06-.13,3a5.32,5.32,0,0,1-.61,2.15,3.33,3.33,0,0,1-1.42,1.33,6.23,6.23,0,0,1-2.77.5h-2.17V26.55h2.23a7.41,7.41,0,0,1,2.61.37A3,3,0,0,1,165.89,28Z" fill="#fff"/><polygon points="185.79 1.38 178.19 1.38 178.19 47.26 196.56 47.26 196.56 39.67 185.79 39.67 185.79 1.38" fill="#fff"/><path d="M209.57,1.38,199.32,47.26H207l1.88-9.6h7.75l1.88,9.6h7.64L215.86,1.38Zm5.59,29.06h-5l2.48-12.79Z" fill="#fff"/><polygon points="229.49 8.59 238.96 8.59 228.86 47.26 249.07 47.26 249.07 40.05 238.96 40.05 249.07 1.38 229.49 1.38 229.49 8.59" fill="#fff"/><polygon points="252.9 47.26 273.17 47.26 273.17 39.67 260.49 39.67 260.49 27.74 271.54 27.74 271.54 20.52 260.49 20.52 260.49 8.59 273.17 8.59 273.17 1.38 252.9 1.38 252.9 47.26" fill="#fff"/><path d="M300,15.44V11.7a10.33,10.33,0,0,0-3.06-7.32,11.83,11.83,0,0,0-3.6-2.45A11.24,11.24,0,0,0,288.73,1a11.93,11.93,0,0,0-5.12,1,10.21,10.21,0,0,0-3.55,2.76,11.46,11.46,0,0,0-2.19,4.1,16.79,16.79,0,0,0-.72,4.95,16,16,0,0,0,1.48,7.26c1,2,3,3.59,5.86,4.77l4.58,1.89a13.59,13.59,0,0,1,1.83.9,2.84,2.84,0,0,1,1,.9,4.39,4.39,0,0,1,.43,1.6,24.46,24.46,0,0,1,.13,2.83c0,1,0,1.88-.1,2.68a4.24,4.24,0,0,1-.52,1.85,2.73,2.73,0,0,1-1.16,1.12,5.08,5.08,0,0,1-2.27.41,3.49,3.49,0,0,1-3-1.17,4.62,4.62,0,0,1-.92-2.82V33.45h-7.59v3a10.78,10.78,0,0,0,.9,4.42,11.57,11.57,0,0,0,2.41,3.54,11,11,0,0,0,3.65,2.39,12.09,12.09,0,0,0,4.56.86,12.9,12.9,0,0,0,5.46-1.06,9.68,9.68,0,0,0,3.68-2.95,11.67,11.67,0,0,0,1.92-4.33,24,24,0,0,0,.58-5.38,34.82,34.82,0,0,0-.26-4.44,12.37,12.37,0,0,0-1-3.62,9,9,0,0,0-2.22-2.72,12.64,12.64,0,0,0-3.61-2L288,19.18a9.09,9.09,0,0,1-1.86-.94,2.85,2.85,0,0,1-.91-1,3.5,3.5,0,0,1-.4-1.34,21,21,0,0,1-.09-2.14,12.54,12.54,0,0,1,.17-2.06,5,5,0,0,1,.6-1.62A3.69,3.69,0,0,1,286.66,9a3.43,3.43,0,0,1,1.82-.42,3.27,3.27,0,0,1,3,1.33,6.35,6.35,0,0,1,.94,3.48v2Z" fill="#fff"/><path d="M142.42,1.38V47.64H82.48V1.38h59.94m.85-.85H81.64v48h61.63V.53Z" fill="#fff"/><path d="M138.6,16.85H128.5l.54-2a11.08,11.08,0,0,0,.59-3.29c-.08-.46-.51-.69-1.3-.69a2.19,2.19,0,0,0-1.61.64,4.1,4.1,0,0,0-1,1.9,10.09,10.09,0,0,0-.44,2.53,2.83,2.83,0,0,0,1,1.76,21.72,21.72,0,0,0,4.18,2.79c2.87,1.62,4.64,3.14,5.29,4.57s.61,3.51-.12,6.24a19.79,19.79,0,0,1-3,6.9,11.59,11.59,0,0,1-4.93,3.58,18.64,18.64,0,0,1-7,1.26,15.85,15.85,0,0,1-7.07-1.36A5.53,5.53,0,0,1,110.28,38q-.54-2.31.72-7l.48-1.81h10.1L121,31.55a12.42,12.42,0,0,0-.67,3.92c.09.61.51.91,1.26.91a2.64,2.64,0,0,0,1.86-.61,5.65,5.65,0,0,0,1.16-2.55c.48-1.79.58-2.91.28-3.36s-2.16-1.79-5.55-4c-2.85-1.88-4.43-3.59-4.76-5.12a11.83,11.83,0,0,1,.37-5.46,17.63,17.63,0,0,1,3-6.62,11.13,11.13,0,0,1,4.9-3.28,19.82,19.82,0,0,1,6.9-1.16,16.53,16.53,0,0,1,6.08,1,6.73,6.73,0,0,1,3.33,2.49,5,5,0,0,1,.93,2.88,22.39,22.39,0,0,1-.82,4.15Z" fill="#fff"/><path d="M106.11,4.5l-.29,1.06a7.67,7.67,0,0,0-4-1.06C96.68,4.5,91.36,8.7,90,13.83L84.66,33.68C83.29,38.81,86.36,43,91.49,43A11.11,11.11,0,0,0,96.07,42L95.79,43h10.43L116.54,4.5ZM98.39,31.69A1.8,1.8,0,0,1,96.76,33a1,1,0,0,1-.94-1.29l4.25-15.88a1.81,1.81,0,0,1,1.64-1.29,1,1,0,0,1,.94,1.29Z" fill="#fff"/></svg>