<svg xmlns="http://www.w3.org/2000/svg" width="200" height="169" viewBox="0 0 200 169"><path d="M113.89.6c4.44.21,7.51.21,7.45,3.23s-3.18,20.87-3.12,22.73c0,0,7.45-5.8,14.46-4.49s13.15,7.4,14.85,16.55,0,25.33-7.66,32.55-14.77,5.86-19.73-4c0,0-.39-.76-.5.6s-.86,4.69-3.85,5.47-11.67,1.08-12.41-4.58,3.37-15.31,3.45-22.27c.07-6,.79-21.19-.86-27.81s-4.7-17.28,2.52-18Z" fill="none" stroke="#0ee2dc" stroke-miterlimit="10" stroke-width="0.13"/><path d="M171.17,32.91c2.76.61,8.94,2.65,9,7.46,0,3.35-2,5-4.47,14.18s-6.68,22-8.84,25.27-3.06,4.13-4,4-10.65-2.89-12.24-3.28-2.94-2-1.07-6.52,7.07-12.23,10.66-20.9C165.11,41.08,165.57,31.66,171.17,32.91Z" fill="none" stroke="#0ee2dc" stroke-miterlimit="10" stroke-width="0.13"/><path d="M178.2,15c5.72.45,8,4.36,8.33,5.55s-1.25,5.84-1.93,7.31-2,1.87-4.76,1.93-8.84-1.93-10.31-5.5S173.68,14.59,178.2,15Z" fill="none" stroke="#0ee2dc" stroke-miterlimit="10" stroke-width="0.13"/><path d="M120.79,67.56c-1.08,5.54-4.05,6-8.39,5.49a37.72,37.72,0,0,1-4.48-.63c-3.41-.8-4.89-2.71-4.41-6.45.53-4.11,1.41-8.17,2.29-12.23,1.66-7.55,1.21-15.2.7-22.8-.45-7-1.7-13.94-2.72-20.9-.13-.91-.22-1.84-.37-2.75-.75-4.49,1.91-8,8.94-7.17,0,0,1.74.15,4.65.48,3.69.41,4.69,1.33,4.32,4.21-.78,6.11-1.72,12.19-2.55,18.29-.12.81-.15,1.64-.27,3,1.28-.83,2.13-1.38,3-1.91,6.86-4.13,17.63-2,22,4.71s5.2,12.87,5,20.19c-.14,7-2.9,14.62-6.64,20.43-5.68,8.65-14.22,9.41-20.48,1.14C120.69,69.67,120.81,67.45,120.79,67.56Zm9.8-27.17c-1.17-2.74-7.19-5.2-9.08-3.24-2.54,2.64-2.43,11.17-.13,14.07S127.83,52.57,130,50C132.41,47.11,131.69,43,130.59,40.39Z" fill="#fff"/><path d="M51.63,77.82c-2.44,7.82-6.37,8.82-12.44,8.76C32.72,86.52,28.51,81,25,75.2c-3.6-6-4.26-10.49-.87-17.33a35.77,35.77,0,0,1,6-8.49c2.15-2.47,4.43-7.12,4.51-9.86S33.13,34,31.21,33.4s-4.8,1.34-5.32,2.78c-.91,2.5,1.83,3.71,2.69,4.28,3.62,2.44-.15,4.94-1.82,6.21S18.82,49.84,15.64,48c-3.37-1.93-6.76-4.89-4.78-10.49,3.65-10.32,12.07-13.38,22.61-15.29,7.3-1.32,13,2.65,15.35,9.87,1.61,4.77,2.86,9.69,4.29,14.53.21.73,1,4.32,1.24,5,.66,1.6,1.61,2,3.24,1.06,3.23-1.88,3-.69,4.77,2.54,3.31,6.09,3.45,11,1.9,15.58C61.72,78.32,58.8,81,53.06,76.39,52.64,76.05,51.83,77.19,51.63,77.82ZM40.55,50H39.44A14.29,14.29,0,0,0,35.73,60.4c.07,2.48,1.38,3.91,3.16,3.82s3.19-1.69,3-4.26C41.7,56.6,41,53.31,40.55,50Z" fill="#fff"/><path d="M84.44,70.57c-1.64.24-3.28.53-4.93.8-2.3.38-3.87-.26-4.66-2.8-.73-2.36-1.45-5.15-1-7.49,2.74-13.52.58-26.35-3-39.12A70.46,70.46,0,0,1,68.54,9.19c-.32-3.68,1.87-5.73,6.17-6.57a31.2,31.2,0,0,1,3.34-.47C84,1.68,86.85,4,86.92,9c.09,5.76-.27,11.55.1,17.28.6,9.48,2.86,18.61,5.44,27.71a37.74,37.74,0,0,1,1.14,10c0,4.23-1.41,5.58-5,6C87.23,70.19,85.84,70.37,84.44,70.57Z" fill="#fff"/><path d="M156.55,82.6c-1.81-.8-3.62-1.61-5.47-2.3-2.16-.8-3.15-2.44-2.51-4.53a26.87,26.87,0,0,1,3.14-7,86.38,86.38,0,0,0,10.48-22c1.16-3.64,2.17-7.35,3.41-11,1.08-3.16,3-3.69,6.85-2,6.63,2.84,8.76,6.25,7.21,11.81-3.07,11.18-6.57,22.21-10.17,33.18a18.52,18.52,0,0,1-.76,1.91c-2.31,5.25-3.91,5.75-9,3.33C158.64,83.53,157.6,83.06,156.55,82.6Z" fill="#fff"/><path d="M185.81,28.61C184,32.5,181,33.08,175.6,30.81c-4.81-2-7.67-5.73-6.11-9.14a14.4,14.4,0,0,1,5.14-5.49c2.21-1.5,5.33-.82,8.19.94,2.7,1.66,4.07,3.85,3.93,6.25A41.63,41.63,0,0,1,185.81,28.61Z" fill="#fff"/><path d="M165,137.14a67.44,67.44,0,0,1-2.23-6.95,69.89,69.89,0,0,1-.37-26,14.16,14.16,0,0,1,.34-1.58c.9-3.69,2-4.88,3.55-3.67.33.26.65.64.73-.86.14-2.64.93-2.44,1.54-2.88s1.17-.06,1.46,1.57c.39,2.15.73,4.44.93,6.77.46,5.41.71,10.94,1.49,16.11.56,3.71,1.11,7.43,1.62,11.19.26,1.95.5,4,.57,6,.19,5.76-.9,10.26-3.26,12.78-1.81,2-3.75,2.29-5.68.84-.86-.64-1.6-1.88-2.05-4C162.92,143.27,163.34,138.57,165,137.14Zm2.4-26.41-.07,0c0-.22,0-.43-.08-.65-.19-1.84-.54-2.73-1.06-2.62s-.85,1.47-.85,2.9c0,2.39.08,4.81.23,7.15.12,1.78.62,2.7,1.11,2.56s.93-1.24.93-3.18S167.43,112.79,167.36,110.73Zm-1.65,26.6c1.19,2.69,2.68,2.88,3.5.86a14.26,14.26,0,0,0,.21-6.93C168.81,135.71,167.7,138.2,165.71,137.33Z" fill="#fff"/><path d="M128.52,156.06c-.47,1.36-.79,2.33-1.13,3.27-2.06,5.71-5,5-6.34-1.56a65,65,0,0,1-.83-17.92c.29-3.78.85-7.52,1.47-11.09a12.09,12.09,0,0,1,1.64-4.18c1-1.65,2.1-1.42,3.07.43.39.74.76,1.54,1.13,2.32l.18-.19c-.24-2.19-.47-4.4-.7-6.59s-.48-4.16-.68-6.27c-.27-2.85.16-4.52,1.32-5.11a13.52,13.52,0,0,1,2.39-.87c.7-.18,1.31.75,1.45,2.51a47.3,47.3,0,0,1,.15,6,141.93,141.93,0,0,0,1.58,30.42,71.35,71.35,0,0,1,.69,8.44c.1,3-.4,4.11-1.68,4.55-.79.27-1.58.54-2.37.77s-1.1-.24-1.21-2.12C128.61,158.07,128.58,157.31,128.52,156.06Zm-3.21-14.88.14,0c0,.39,0,.78,0,1.16.11,1.39.25,2.79,1,3s1.26-.92,1.36-2.83c.11-2.22,0-4.5,0-6.73,0-1.13-.33-2.11-.89-2.18s-1,.75-1.16,2C125.54,137.48,125.45,139.35,125.31,141.18Z" fill="#fff"/><path d="M18,89.49c.33-.54.65-1.12,1-1.61.95-1.38,1.91-1.83,2.93-.75,1.59,1.67,2.3,5,1.82,9.64-.34,3.29-.81,6.5-1.29,9.66a102.14,102.14,0,0,0-1.26,14.89c0,1,0,1.93-.12,2.87-.23,2.83-.84,4-1.9,3.13a12.56,12.56,0,0,1-2.6-3c-.81-1.28-1.12-3.45-1-6a41.13,41.13,0,0,1,1.65-9.88c.73-2.52,1.42-5.12,2.1-7.72a9.2,9.2,0,0,0,.23-1.59c.13-1.64-.24-2.93-.83-2.64a3.09,3.09,0,0,0-1.16,1.45,30.94,30.94,0,0,0-2.14,10c-.31,3.55-.73,7-1.13,10.51a10.69,10.69,0,0,1-.5,2c-.31,1-.69,1.26-1.14.78-.67-.73-1.35-1.4-2-2.12-1.08-1.15-1.44-4.6-.82-7.45.88-4,1.77-8,2.62-12a190.28,190.28,0,0,0,3.06-24.23,45.76,45.76,0,0,1,.65-4.85c.32-1.77.7-2.11,1.3-1.46l2,2.22c.66.73.86,1.72.58,3.81-.41,3.06-.89,6.06-1.36,9.06-.25,1.6-.54,3.16-.81,4.74Z" fill="#fff"/><path d="M188.17,79.76c.1-1.41.17-2.61.27-3.75.32-3.41,1-5.77,2-6.81,1.25-1.21,2.46.07,3.26,4,.56,2.74,1,5.65,1.45,8.6a102.67,102.67,0,0,0,3.7,16.73c.3,1,.61,1.92.85,3,.45,2,.31,4.38-.33,5.35a36.65,36.65,0,0,1-2.4,3.26c-.79,1-2-1-2.5-3.82a150.19,150.19,0,0,1-1.74-15.81c-.13-2.07-.39-4.16-.7-6.12a2.81,2.81,0,0,0-.78-1.65c-.37-.24-.54.71-.63,1.77a44.25,44.25,0,0,0,.93,13.17c.53,2.45,1.16,4.73,1.66,7.21.37,1.8.67,3.76.88,5.73s0,3.23-.68,4-1.34,1.62-2,2.4-1.34.46-1.78-1.77a41.67,41.67,0,0,1-.77-5.64,110.86,110.86,0,0,0-3.24-20.92c-.46-1.91-.81-4.06-1.15-6.18a9.33,9.33,0,0,1,.45-5.46C186.37,73.81,187,74.31,188.17,79.76Z" fill="#fff"/><path d="M61.3,153.79c-.31.72-.53,1.38-.8,1.86-1.57,2.74-3.27,2.71-4.94.39s-2.08-6-2-10.11c.07-5.78,1.19-9.75,3.36-11.83,1-1,2-1.86,3-2.93s1.75-3,1.85-6c.06-1.67-.1-2.19-.74-2.29s-1.09.7-1.06,2.19c0,.43.07.87.12,1.3.2,2-.08,3.32-.9,3.67-1.14.49-2.21-.2-3.06-2.25a12.67,12.67,0,0,1-.23-6.85c0-.24.1-.49.17-.72,1.74-6.56,6.91-6.9,8.92-.62a24,24,0,0,1,.83,8.56c-.2,3.52-.49,7-.72,10.52-.14,2.16,0,2.46.88,2.44.65,0,.94.75,1,2.17a39.3,39.3,0,0,1-1.47,13.83c-1.2,3.65-2.89,3-3.77-1.24ZM61.67,135l-.26-.45c-1,.48-1.7,1.89-2.25,3.92a4.8,4.8,0,0,0,.16,3.54c.43.7,1,.42,1.33-1C61.06,139.1,61.34,137,61.67,135Z" fill="#fff"/><path d="M155.87,144.68c-.23,1-.39,1.82-.58,2.58-.93,3.75-2.34,5.23-4,5s-2.73-2.84-3.35-6.5a28,28,0,0,1,1.22-15.26c.71-1.85,1.47-3.57,2.16-5.44a16.52,16.52,0,0,0,.85-7.55c-.07-.66-.36-1.74-.48-1.68a2.51,2.51,0,0,0-1.09,1.38,6.7,6.7,0,0,0,.07,2.25c.72,3.13.48,5-.91,6-1.08.78-2.18,1-3-1.55a17.18,17.18,0,0,1,.07-8.37c1.36-5.24,3.21-8,5.57-7.84,1.61.07,2.94,2.68,3.42,6.85.42,3.75.7,7.63,1,11.46.23,2.83.26,2.94,1.26,2,.41-.4.71-.2.91.77a45,45,0,0,1,.68,15.71c-.49,3.47-1.78,4.31-2.94,2.15C156.46,146.08,156.22,145.46,155.87,144.68Zm-2.55-18.47a14.83,14.83,0,0,0-1.58,6.47c-.09,1.36.12,2.38.64,2.69s.88-.54,1-1.8A36.35,36.35,0,0,0,153.32,126.21Z" fill="#fff"/><path d="M95.75,168.72a6.48,6.48,0,0,1-5.34-3.37c-1.62-2.62-2.3-7-1.72-10.69s2.56-5.63,4.09-4.26c.74.66,1,2.1,1,3.72S94.33,157,95,157s1-1,1.17-2.71c.15-2-.09-3.71-.89-4.71s-1.79-2-2.68-3a15.33,15.33,0,0,1-1.47-1.82c-2.33-3.6-2.4-11.07-.27-15s6-4.63,8.32-1.66c1.26,1.62,2,4.07,2,7.5,0,2.61-.73,4.41-1.95,4.89s-2-.59-2.34-3.21-.61-3.22-1.36-3.13c-.59.07-1.1.46-1.28,1.93a5.25,5.25,0,0,0,.57,3.49,10.73,10.73,0,0,0,1.62,1.77c.89.83,1.82,1.46,2.7,2.36,2.39,2.45,3.37,6.91,3.31,12.71-.06,5.42-1.46,8.87-3.61,10.74A10.87,10.87,0,0,1,95.75,168.72Z" fill="#fff"/><path d="M184.45,104.89c.21,3.07.52,6.14.62,9.23.21,7-1,12.27-3.23,14.26-2.41,2.13-4.44.12-5.87-6.23a90.9,90.9,0,0,1-1.65-26.44c.68-9.22,3.58-12.35,6.11-6.83C182,92.18,183.36,98,184.45,104.89Zm-6.95,1.72c.22,1.27.42,2.58.67,3.8.47,2.29,1.12,3.14,1.81,2.49s.92-2.31.83-4.93a44.77,44.77,0,0,0-1.29-9.82,8.46,8.46,0,0,0-.85-2.18c-.6-1-1.09-.26-1.33,1.63A36.72,36.72,0,0,0,177.5,106.61Z" fill="#fff"/><path d="M137.47,124.39c.27-.93.44-1.48.6-2,.45-1.67.82-3.5,1.34-5,1.16-3.31,2.88-3.42,3.94-.06a47.24,47.24,0,0,1,1.85,16.27c-.23,5-2.48,8-4.4,6.21-.82-.76-1.19-2.85-.85-5.11.21-1.37.53-2.62.75-4,.16-1,.45-2.17-.06-2.82s-1,.09-1.18,1.23a59.28,59.28,0,0,0-.6,6.6,23.57,23.57,0,0,0,1.32,8.33c.51,1.5,1,3,1.52,4.47a16.4,16.4,0,0,1,.7,5.44c0,1.93-.44,3.23-1.23,3.63a46.63,46.63,0,0,1-5,2.15c-.84.29-1.65-1.88-1.72-4.58a38.16,38.16,0,0,1,.09-4.67,77.08,77.08,0,0,0-.87-19.6c-.31-1.94-.51-4-.67-6.09-.29-3.69.37-6,1.84-6.91,1.95-1.2,2.31-.59,2.52,4.32C137.35,122.77,137.4,123.34,137.47,124.39Z" fill="#fff"/><path d="M48.06,116c.26-.45.52-.9.77-1.35a30.7,30.7,0,0,1,1.63-2.89c1.66-2.2,3.3-.38,3.8,4.36A57.29,57.29,0,0,1,53.67,132a11.74,11.74,0,0,1-.53,1.89c-1.1,3-3.55,2.81-4.61-.4a8.3,8.3,0,0,1,0-4.79c.38-1.19.88-2.12,1.3-3.24a3.81,3.81,0,0,0,.39-2.9c-.4-1.12-1-.69-1.35.23a23.47,23.47,0,0,0-1.62,9.8c.07,2.48.42,4.92.65,7.38.17,1.8.44,3.6.48,5.41.09,4.09-.87,6-2.45,5-1.23-.73-2.45-1.49-3.65-2.27s-1.61-2.48-1.36-5.34a35.27,35.27,0,0,1,.83-5.42,79.33,79.33,0,0,0,2-18.84c0-2.39.17-4.81.37-7.15.24-2.89,1-4.26,2.12-4a1.69,1.69,0,0,1,.37.15c1.81.82,2,1.6,1.56,6.28-.06.64-.11,1.29-.16,1.93C48,115.85,48,115.94,48.06,116Z" fill="#fff"/><path d="M24.81,113.51c.71-5.14,1.91-10.9,4-14.76,1.75-3.28,4-3.17,5.47.17,1.8,4,1.71,12.28-.39,15.37-1,1.45-2.16,1.92-3.25,2.71a4.71,4.71,0,0,1-1.3.52c-.44.16-.61.94-.58,2.13.05,1.87.22,3.64.86,4.53s1.26.27,1.8-.93c.33-.75.64-1.58,1-2.28.67-1.38,1.3-.79,1.55,1.43a19.57,19.57,0,0,1-.29,6.22,45.57,45.57,0,0,1-1.76,6.8c-2.09,5.28-5.39,3.8-6.85-2.84C24,127.8,23.85,121.25,24.81,113.51Zm4.72-3.92c.84,1,2.18,0,2.7-1.84.37-1.3.29-2.82-.26-3.21a.88.88,0,0,0-1.27.3A10.5,10.5,0,0,0,29.53,109.59Z" fill="#fff"/><path d="M105.65,135.65a7.41,7.41,0,0,1-1.37,0c-.84-.12-1.34-1.24-1.36-3.16,0-1.71,0-3.45,0-5.14.14-2.5.62-3.09,1.61-2.33a7.28,7.28,0,0,0,.75.46c0-.84,0-1.43,0-2,0-1.22-.09-2.43-.09-3.65,0-4,.34-4.84,2-5a11.8,11.8,0,0,1,1.46-.1c.81,0,1.17.9,1.22,2.84,0,1.66,0,3.33.08,5,0,2.37,0,2.37,1,2a5.67,5.67,0,0,1,1-.26c.55-.09.94.55,1,1.83.06,2.15.06,4.31,0,6.46,0,1.1-.3,1.67-.81,1.64s-.85.17-1.28.12c-.63-.08-.87.67-.86,2,0,3.1,0,6.22.17,9.3a4.53,4.53,0,0,0,.78,2.44c.31.28.81-.47,1.21-.86.14-.14.23-.65.37-.77.46-.38,1-1.11,1.37-.84a5.11,5.11,0,0,1,.7,2.56,46,46,0,0,1-.54,11c-1,5.49-2.91,7.9-5.46,6.81-2.17-.93-3.72-5.36-3.62-10.74.08-4.32.34-8.61.49-12.92C105.6,140.19,105.61,138,105.65,135.65Z" fill="#fff"/><path d="M4,78.41c-2.13-2.25-1.54-4.59-.85-8.71.07-.42.16-.81.25-1.21C4,65.8,4.36,65.6,5,67.59c.1.28.21.51.35.85.19-1.19.36-2.22.52-3.27.1-.7.17-1.44.29-2.11.69-3.9,1-4.3,2.18-2.74.33.44.68.83,1,1.35.53.81.64,2,.37,3.78S9.18,69.2,8.88,71c-.18,1.15-.08,1.7.28,2a10.61,10.61,0,0,1,1,.93,3.51,3.51,0,0,1,.4,2.57c-.3,2.14-.66,4.21-1,6.28-.17,1-.45,1.21-.78.75S8,82.72,7.68,82.24s-.56-.12-.71.8c-.5,3.23-1,6.43-1.46,9.74-.3,2.3.31,3.92,1.11,3.13.57-.54,1.17-1.47,1.64,0s.07,3.38-.16,5A36.86,36.86,0,0,1,6,109.51c-1.53,3.68-3.19,3.88-4.71.58C0,107.33-.38,102,.4,97.3c.58-3.51,1.33-6.78,2-10.19C2.93,84.28,3.46,81.42,4,78.41Z" fill="#fff"/><path d="M79.63,150.85c-.41,2.45-.72,5.34-1.36,7.79-1.93,7.44-6.25,8.15-8.84,1.58A38.79,38.79,0,0,1,67.29,147c-.18-9.4,1.24-17.06,4.37-22.54,1.71-3,3.64-3.78,5.65-1.32s2.6,7.81,1.54,12.28c-.62,2.6-1.81,3.68-3,2.71-.57-.45-.79-1.4-.64-2.74.09-.8.28-1.56.3-2.36a6.28,6.28,0,0,0-.22-2.23.79.79,0,0,0-1.1-.29,3.05,3.05,0,0,0-.78,1.51,28.5,28.5,0,0,0-.64,13.1c.66,3.73,2.2,4.12,3.23,1,.26-.79.49-1.63.77-2.36.88-2.26,2-1.76,2.43,1.16C79.42,146.61,79.47,148.52,79.63,150.85Z" fill="#fff"/><path d="M84.06,165l-2-.33c-.64-.1-1.1-.9-1.09-2.26a39.61,39.61,0,0,1,.3-5.5,137.93,137.93,0,0,0,1.25-17.78c0-2.71.06-5.43.12-8.14s.47-3.41,1.57-3.17c1.76.37,2.48,2,2.6,6.21.21,7.9.45,15.81.64,23.72,0,1.9-.09,3.85-.24,5.73-.11,1.34-.57,2-1.22,1.82S84.7,165.14,84.06,165Z" fill="#fff"/><path d="M86.8,120.71c-.08,3.26-.74,4.59-2.21,4.31-1.3-.24-2.13-2.45-1.91-5.33a25.19,25.19,0,0,1,.74-4.19c.42-1.58,1.1-2,1.87-1.62s1.21,1.59,1.36,3.38C86.74,118.39,86.75,119.56,86.8,120.71Z" fill="#fff"/></svg>