<svg xmlns="http://www.w3.org/2000/svg" viewBox="0 0 160 173"><path d="M95.27 18.23c-.42-1.06-1.24-1.78-2.43-2.15-.23-.07-.56-.1-.94-.14-.29-.03-.77-.07-1.04-.14.13-.21.38-.38.73-.59.23-.14.47-.29.69-.48 2.09-1.83 3.34-3.25 3.81-4.34 1.05-2.45.66-6.34-1.56-8.01-1.06-.79-3.15-1.18-6.4-1.18-.95 0-1.83.03-2.63.07-4.66.2-8.27.89-11.36 2.16l-.24.1-.07.25c-.15.55.29.95.58 1.21.07.07.18.16.21.21.37.53.46 1.24.51 1.88.28 3.96 0 8.18-.28 12.26-.2 3.01-.41 6.12-.39 9.08s0 .02 0 .02l.25 5.89v.17l.12.13c.31.38 2.24.76 2.26.76.38.04.76.06 1.15.06 6.4 0 13.09-5.22 15.87-10.27 1.1-2 1.98-4.87 1.16-6.93zm-9.85.89c.17-.01.33-.02.49-.02 1.6 0 2.83.49 3.44 1.37.57.82.59 1.99.07 3.37-.87 2.3-5.84 6.03-8.15 7.22-.52.27-1.1.54-1.46.54-.13 0-.16-.04-.18-.06-.07-.07-.23-.33-.22-1.19.02-2.47.24-5.18.4-6.99.01-.13.02-.27.03-.43.04-.54.1-1.35.25-1.69.47-1.05 3.83-2.04 5.33-2.13zM87.17 3.6c1.21 0 2.29.54 2.91 1.46.59.87.68 1.94.25 3-.62 1.55-5.93 5.08-7.82 5.98-.06.03-.15.07-.26.12-.3.15-1.1.53-1.27.58-.1.03-.18.04-.25.04-.13 0-.19-.04-.22-.08-.12-.12-.18-.4-.17-.74.06-2.03.58-5.26.8-6.56.02-.12.04-.26.06-.4.12-.8.27-1.8.84-2.08.9-.44 4.08-1.3 5.06-1.32h.07zM47.51 34.68h.16c.33-.07.69-.1 1.15-.1.29 0 .6.01.9.02.3.01.62.03.92.03.27 0 .52-.01.74-.03.49-.05 1.39-.13 1.66-1.13v-.05l.02-.05.52-6.33s.07-.01.1-.01c.07 0 .13.02.19.05.32.28.65.57.96.86.53.49 1.09.99 1.68 1.44.59.45 3.08 2.21 3.98 2.51.23.08.45.11.68.11.52 0 .98-.2 1.4-.41.34-.18 2.43-1.75 2.6-2.44.04-.17.12-.48-.1-.83-.11-.18-.18-.23-1.82-.99-.46-.21-.94-.43-1.08-.51-.62-.35-1.46-.89-2.25-1.46-.1-.07-.23-.16-.37-.25-.45-.29-1.36-.89-1.22-1.23.74-.79 1.52-1.57 2.27-2.33 2.14-2.17 4.36-4.42 6.14-7.01 1.56-2.27 3.14-4.98 2.06-8.3-.56-1.74-2.15-3.05-3.87-3.2-.94-.08-2.09-.12-3.43-.12v.26-.26c-2.54 0-5.33.15-7.21.26-.34.02-1.64.15-2.92.32-2.65.35-2.74.48-2.89.71l-.09.15v.17c.04.36.08.7.12 1.03.07.57.14 1.11.12 1.67-.08 1.53-.37 3.19-.65 4.79-.26 1.49-.53 3.03-.63 4.48-.04.53-.28 2.34-.35 2.7-.64 3.11-.96 9.29-.82 12.74 0 .03.14 2.61 1.33 2.74zM58.73 5.55c.35-.04.66-.06.94-.06.91 0 1.6.2 2.24.66 1.6 1.13 1.51 3.82.94 5.77-.74 2.55-4.59 7.54-7 9.04-.36.22-1.1.69-1.53.69-.11 0-.42 0-.57-.94.13-.92.25-1.85.37-2.75.18-1.33.36-2.7.56-4.04.07-.47.14-.99.22-1.53.25-1.81.54-3.87.97-5.27.28-.94 1.66-1.41 2.86-1.55zM80.47 40.73c-1.75-1.08-6.36-1.55-8.32-1.55h-.06c-2.62.01-8.19.4-10.56 1.76-.18.1-.71.41-.74.95-.03.54.43.87.83 1.16.15.11.4.28.45.38.04.24.1 1.4.09 1.6-.07 1.37-.55 3.5-.97 5.38-.17.76-.33 1.48-.45 2.09-.25 1.25-.52 2.52-.78 3.74-.5 2.33-1.02 4.74-1.38 7.15-.06.4-.14.83-.22 1.29-.2 1.13-.42 2.42-.46 3.43v.12c-.04.57-.1 1.75.87 2.02.29.08.78.12 1.44.12.57 0 1.22-.03 1.61-.08h.05c.68-.09 1.37-.22 1.68-.71l.05-.09.02-.1 1.48-8.3c.01-.06.03-.08.03-.08h.02l.06.27c.08.36.16.73.36 1.15.64 1.34 2.58 3.75 3.77 4.85.13.12 1.26 1.17 1.55 1.3.17.07.36.11.55.11 1.02 0 2.05-1.08 2.57-1.73.04-.05.08-.09.12-.14.33-.39.88-1.04.41-1.85l-.02-.03-.02-.02-.15-.2c-1.38-1.84-2.95-3.92-3.93-6l-.03-.06c-.22-.47-.34-.75-.26-1.11.26-.29 1.48-1.16 2.14-1.64.46-.33.82-.59 1-.74 1.95-1.61 7.47-7.16 8.31-10.1.74-2.57-.21-3.78-1.14-4.35zM65.56 54.99c.1-.11.22-.24.3-.42.84-2.01 1.39-4.16 1.92-6.24.38-1.49.78-3.02 1.27-4.48.29-.41 1.71-.9 2.71-1.01.34-.04.77-.06 1.15-.06.25 0 .47 0 .65.03.96.1 1.82.66 2.35 1.56.56.93.66 2.05.27 2.99-.45 1.1-2.29 3-4.57 4.73-2.35 1.78-4.59 2.94-5.71 2.96v.26-.26c-.09 0-.23-.02-.35-.05zM135.79 38.89c-.8 0-2.03.18-2.85.3-.32.05-.59.09-.71.1-.57.05-1.17.1-1.78.14-3.15.24-6.72.51-9.54 1.62-.18.07-.41.19-.56.47l-.02.04v.04c-2.08 6.17-3.38 12.41-4.65 18.78-.14.68-.29 1.37-.46 2.09-.38 1.64-.77 3.33-.87 5 0 .13-.02.26-.03.39-.07.75-.13 1.53.34 2.04.25.27.59.4 1.03.4h.2c2.82-.24 6.69-1.59 10.1-2.79 1.24-.43 2.41-.84 3.42-1.16.44-.14.95-.26 1.49-.4.89-.22 1.8-.44 2.51-.75.36-.16.62-.41.75-.75.27-.72-.11-1.56-.45-2.29a4.66 4.66 0 0 1-.26-.62l-.05-.15-.13-.1c-.22-.16-.5-.24-.88-.24-.19 0-.37.02-.51.03h-.02c-3.06.32-7.27 1.25-10.2 2.02-.25.07-.45.18-.62.27-.1.05-.23.13-.27.13h-.03c-.01-.13 0-.37.02-.58.16-1.23.96-3.96 1.47-5.45.13-.39.28-.72.43-.97h.03c.47 0 1.36.38 1.95.62.28.12.52.22.71.28.07.02.17.06.28.1 1.09.37 1.69.56 1.95.58h.08c.36 0 .82-.15 1-.89.29-1.18.43-3.99.44-4.1 0-.03.12-2.58-.15-2.99-.2-.3-.46-.36-.65-.36-.09 0-.16.01-.23.02-.34.06-.69.19-1.02.32-.34.13-.69.26-.97.3-.31.04-.64.08-.95.08-.53 0-.71-.12-.77-.19-.1-.11-.09-.33-.06-.49.1-.71.87-3.25 1.19-3.72.5-.73 2.4-.91 3.67-1.03.46-.04.89-.09 1.24-.14.45-.08.96-.15 1.5-.23 1.27-.19 2.7-.41 3.76-.69.02 0 .51-.14.73-.32.37-.31.6-1.08.65-3.97v-.06-.15l-.08-.13c-.22-.35-.68-.4-1.15-.4zM37.29 24.46c0 .07-.03.16-.04.23-.03.13-.06.28-.06.44 0 .52-.02 1.08-.03 1.65-.04 1.59-.07 3.23.03 4.67.01.15.12 1.5.53 1.75l.1.06h.11c.5.08 2.83.33 4.26.33.93 0 1.31-.1 1.51-.38l.07-.1.02-.12.07-.46v-.09-.09c-.4-2.09-.77-4.25-1.13-6.34-1.15-6.63-2.35-13.5-4.46-19.84-.04-.12-.09-.26-.13-.41-.34-1.03-.85-2.58-1.28-3.29-.24-.39-.55-.45-.72-.45-.65 0-1.03.78-1.36 1.47-.06.12-.12.25-.15.3-4.94 7.68-9.62 15.28-12.62 23.91-.14.4-.63 1.87-1.04 3.28-.8 2.77-.67 3.18-.4 3.45l.14.14.19.02c.29.02.6.03.91.03 1.09 0 2.17-.14 3.21-.28.49-.06.99-.13 1.48-.18h.12l.1-.07.49-.29.17-.1.06-.19c.35-1.13.63-2.3.9-3.44.3-1.25.61-2.54 1.01-3.77l.03-.08c.47-1.48.7-1.91.79-2.03h.11c.24 0 .59.07.9.13.27.06.53.11.75.12H33.52c.19 0 .48 0 .82-.01.45 0 1.01-.02 1.53-.02.9 0 1.3.03 1.47.06zm-1.53-7.16c-.01.25-.05.54-.09.83-.05.35-.1.71-.1 1.06-.31.46-.91.61-1.54.78-.27.07-.55.14-.8.24-.18.07-.4.17-.65.29-.51.23-1.34.61-1.78.66 0-.03 0-.07.01-.12.27-1.89 1.39-4.56 2.29-6.71.23-.55.45-1.08.64-1.55.06-.15.14-.38.23-.66.19-.57.78-2.31 1.13-2.57.02.02.06.08.11.21.44 1.01.62 5.92.55 7.53zM138.29 14.76c-.15-.07-.33-.1-.57-.1-.97 0-2.73.58-2.8.6-.57.19-2.48.87-2.93 1.64-.27.48-.51 2.11-.56 2.44-.29 2.08-.08 2.38.02 2.53l.07.1.1.06c.22.13.5.19.85.19.33 0 .69-.05 1.04-.11.32-.05.66-.1.93-.1.31 0 .4.06.43.09.05.05.07.19.06.37-.15 2.32-3.55 7.55-5.96 7.83-.44.05-.75.07-1.02.07-.92 0-1.46-.27-1.92-.97-1.03-1.55-1.78-4.52.48-9.83 1.61-3.79 4.18-7.24 6-8.98.76-.73 1.62-1.39 2.45-2.03.83-.64 1.68-1.3 2.47-2.04l.06-.06.04-.07c.37-.68.16-3.3.16-3.32 0-.02-.22-1.75-.41-2.02-.16-.23-.44-.35-.81-.35-1.02 0-3.03.91-3.3 1.05-2.5 1.28-4.92 3.6-7.01 6.69a33.01 33.01 0 0 0-4.17 8.77c-1.2 3.96-2.53 11.71.1 15.58.55.81 2.26 2.59 3.76 2.59.09 0 .17 0 .25-.02 3.36-.49 6.85-1.41 9.61-4.79 2.52-3.09 4.25-8.58 3.94-12.51 0-.03-.32-2.84-1.35-3.3zM114.99 41.13l-.15-.16h-3.15c-.71 0-1.81.93-3.72 2.76-.25.24-.46.44-.6.56-.68.61-1.43 1.24-2.15 1.84-.84.7-1.7 1.42-2.48 2.14-.19.17-.3.38-.4.55-.05.09-.12.22-.16.25-.04 0-.1-.04-.14-.07l4.19-9.17.08-.18-.06-.19c-.04-.14-.23-.59-.88-.59-.38 0-.82.15-1.18.27-.11.04-.26.09-.31.1-.2.03-.45.06-.71.09-1.25.14-2.96.32-3.62 1.39-.37.61-.78 1.93-1.08 2.9-.05.18-.1.34-.15.47-2.86 8.95-3.91 16.25-3.32 22.99v.04l.01.04c.37 1.44 2.08 1.44 2.81 1.44h1.31l.12-.36c.43-1.35.62-2.79.8-4.18.11-.85.21-1.65.37-2.44.16-.82.25-.91.44-.91.09 0 .19.02.32.05.29.19.92 1.44 1.19 1.97.18.36.33.66.45.85.57.92 1.33 1.99 2.07 2.96.08.11.17.23.26.35.36.5.77 1.07 1.33 1.37l.12.06h.13c.22 0 .37-.04 1.33-.96.4-.38.9-.89 1.04-1.07.94-1.18.81-1.59.22-2.79-.64-1.32-1.39-2.63-2.12-3.89-.89-1.54-1.81-3.14-2.52-4.75-.09-.2-.32-.72-.34-.92-.08-.59.75-1.38 1.36-1.96.21-.21.42-.4.58-.58 1.15-1.28 2.4-2.52 3.61-3.71 1.4-1.38 2.85-2.81 4.15-4.32.02-.03.06-.07.1-.11.63-.71 1.41-1.59.85-2.16zM18.12 20.87c.14-.52.4-1.48-.35-1.85l-.07-.03h-.07l-6.56-1.16-.45-.08-.14.43-2.09 6.39-.04.12.02.12c.11.71.95.89 1.69 1.04.24.05.6.13.81.21-.38.67-.67 1.39-.95 2.08-.28.7-.55 1.37-.91 1.98-.05.08-.09.16-.13.23q-.22.4-.74.44h-.25c-1.39 0-2.83-1.08-2.91-3.48-.21-6.07 6.08-14.94 10.4-19.03.13-.12.34-.28.56-.44.63-.47 1.34-1 1.51-1.66.14-.52-.08-2.1-.54-2.69-.22-.29-.48-.35-.65-.35h-.2l-.15.13c-.3.26-.68.44-1.08.63-.32.15-.64.3-.95.51-.75.5-2.13 1.73-2.71 2.33-3.79 3.87-7.13 9.17-9.16 14.54-1.67 4.43-3.17 10.55-.79 14.58.96 1.62 2.22 2.44 3.75 2.44 1.11 0 2.34-.43 3.76-1.31 3.62-2.26 8.35-11.98 9.34-15.98.01-.05.03-.1.04-.16zM159.79 1.79c-.18-.48-.63-.73-1.35-.73-.17 0-.33.01-.48.02-.06 0-.11 0-.16.01-.42.02-.84.12-1.25.22-.27.07-.53.13-.76.16-.4.06-.86.11-1.36.17-2.39.3-5.66.7-7.41 1.55-1.14.56-1.34 1.77-1.5 2.74-.03.17-.05.33-.09.49-.83 4.23-1.35 8.57-1.85 12.78-.25 2.13-.52 4.34-.82 6.49-.17 1.19-.4 2.41-.63 3.59-.23 1.22-.48 2.49-.65 3.74 0 .02-.2 1.62-.12 1.88.11.35.41.57.79.58.17 0 .33-.01 2.47-1.06h.02c2.11-1.04 5.24-2.6 8.01-4.17l.06-.03c2.59-1.47 3.12-1.88 3.3-2.11.36-.46 1.25-3.42 1.06-4.04a.813.813 0 0 0-.78-.58h-.15l-.09.05-8.11 3.76h-.02l-.02.02c-.22.13-.43.33-.63.52-.22.2-.55.51-.71.51-.02 0-.04 0-.06-.03l1.69-8.29.37-.13c.49.19.99.44 1.48.69.54.27 1.11.55 1.66.76.04.01.08.03.12.05.25.1.59.23.92.23.35 0 .57-.15.69-.28.21-.22.28-.61.39-1.47 0-.07.02-.13.02-.17.17-1.19.44-3.8.28-5.2-.12-1.03-.69-1.18-1.02-1.18-.1 0-.21.01-.32.04-.35.11-.74.26-1.16.43-.89.35-1.9.75-2.68.75-.16 0-.31-.02-.43-.05-.06-.02-.13-.17-.12-.22.38-.98.62-2.01.86-3.01.2-.85.39-1.65.65-2.42.33-.96.53-1.47 1.22-1.74l8.27-1.58.13-.03.1-.09c.68-.57.3-3.29.18-3.62zM98.07 33.42c.68.08 1.79.16 2.6.16.25 0 .47 0 .64-.02.45-.04 1.2-.11 1.4-1.04.16-.81.3-1.65.43-2.46.3-1.85.61-3.76 1.22-5.45.37-1.01.6-1.2 1.56-1.32.36-.05.9-.07 1.54-.07 1.54 0 3.26.13 4.08.32.64.14.65.2.67.71.01.2.02.45.08.73.37 1.86.64 3.42.76 5.03.01.16 0 .45-.01.76-.04 1.24-.1 2.64.68 3.05.41.22 1.32.27 1.75.27.87 0 1.15-.17 1.31-.33.09-.09.36-.36.32-1.34-.05-1.2-.22-2.55-.39-3.86-.06-.43-.11-.85-.16-1.25-.76-6.32-1.92-14.56-4.21-22.23-.1-.32-.41-1.26-.73-2.1-.64-1.68-.93-1.98-1.32-2.01l-.18-.02-.15.1-.39.26-.11.07-.06.11c-.46.85-.92 1.7-1.38 2.54-4.69 8.61-9.12 16.74-10.88 26.6-.02.13-.07.28-.11.45-.16.56-.35 1.25.01 1.79.21.31.55.49 1.02.54zm7.62-14.45c.47-1.8 1.42-4.27 2.18-6.25.14-.35.27-.69.39-1.01.16-.42.34-.85.52-1.26.32-.74.65-1.51.88-2.31v-.01c.07-.02.14-.03.2-.03.16 0 .25.06.3.22.13 1.22.37 2.44.6 3.62.23 1.15.46 2.33.58 3.5v.06c.19 1.75.24 2.82.15 3.19-.26.27-1.52.49-3.75.63-.28.02-.51.03-.66.05-.24.02-.48.08-.72.13-.25.06-.51.11-.68.11h-.06c-.01-.07-.02-.25.08-.63zM56.75 41.17l-.16-.05-.39-.13-.08-.03h-.09c-.76.02-1.58.03-2.52.03s-1.95 0-2.9-.02c-.96 0-1.94-.02-2.91-.02-2.41 0-5.27.05-8.14.42-.55.07-1.14.26-1.72.44-.29.09-.56.17-.81.24l-.14.04-.1.11-.19.2-.09.1-.03.13c-.52 2.03-.93 4.26-1.21 6.63l-.05.44.43.12c.22.06.46.09.74.09.87 0 1.95-.31 2.99-.61.87-.25 1.77-.51 2.34-.51.16 0 .26.02.31.04.02.02.18.16.28 1.02.31 2.82.19 5.89.08 8.86-.11 2.98-.23 6.06.07 8.98v.04c.04.4.14 1.33.92 1.41H43.67c.25 0 .65.04 1.06.09.54.06 1.16.13 1.69.13.4 0 1.45 0 1.72-.77.12-.34.06-1-.11-2.43-.05-.41-.1-.8-.11-1-.13-3.05-.07-6.04.01-9.09.01-.46.01-1.02.02-1.61 0-2.27.01-5.38.65-6.87.08-.19.55-.55 2.81-.84h.05c.24-.04.58-.04.94-.05.94-.02 2-.04 2.64-.46.4-.27 1.05-1.73 1.24-2.18v-.03c.82-1.88.85-2.37.61-2.7l-.1-.14zM27.18 54.85c-.57-.15-1.27-.22-2.01-.3-1.32-.14-2.81-.3-3.46-.91-.46-.43-.65-.88-.59-1.39.15-1.3 1.93-2.85 3.51-3.75 1.11-.63 2.37-1.19 3.58-1.74.95-.42 1.93-.86 2.84-1.34l.21-.11.05-.24c.06-.25-.07-.45-.12-.52-.32-.49-2.36-2.3-2.84-2.39-.07-.01-.16-.02-.24-.02-.85 0-2.34.75-3.15 1.2-2.9 1.6-8.13 5.69-10.04 8.71-.04.07-.09.13-.13.2-.41.63-.87 1.34-.2 2.38.84 1.3 3.17 1.31 5.04 1.31.49 0 .95 0 1.28.03 3.65.32 5.56 1.77 5.83 4.43.06.56-.04 2.09-2.21 4.14-.54.51-2.02 1.58-2.65 1.92-.51.27-1.08.5-1.64.72-2.03.81-4.34 1.72-3.72 5.05l.02.11.06.09c.18.26.52.37 1.17.37.25 0 .49-.02.61-.03 2.19-.17 8.01-3.38 9.46-4.27 2.79-1.71 6.03-3.96 6.32-6.16.53-4.05-3.27-6.53-7-7.5zM91.59 40.1l-.14-.04-.14.04c-.13.04-.34.09-.61.16-3.98 1.05-4.8 1.41-5.06 1.77-.07.1-.2.28-.22.54v.08c.09.89.28 1.79.47 2.66.17.8.35 1.64.44 2.42.53 4.86.11 11.48-.54 15.88-.02.14-.1.53-.19.94-.57 2.72-.57 2.97-.3 3.24l.18.18.26-.03c.23-.03.62-.04 1.05-.05 1.51-.03 2.62-.09 3.14-.53.41-.35 1.3-3.79 1.3-3.83 1.38-5.66 2.45-14.03 1.73-19.94-.39-3.23-1.08-3.42-1.37-3.5zM23.82 143.31c.14-.47.29-.95.43-1.44.87-2.88 1.76-5.86 2.88-8.48.05-.12.1-.25.15-.39.17-.45.43-1.12.71-1.12h.05c.18.28.34 1.35.42 1.82.05.3.08.53.12.69.5 2.08 1.09 4.11 1.55 5.65.01.04.04.19.06.32.16.86.33 1.84 1.04 1.84.05 0 .1 0 .14-.02l.24-.05.1-.23c.52-1.2.96-2.45 1.39-3.66.32-.89.65-1.81 1-2.7.29-.72.61-1.45.92-2.15.63-1.42 1.28-2.89 1.69-4.42.21-.26.36-.65.53-1.09.13-.32.38-.98.56-1.08.02 0 .06.03.13.08.06.05.07.08.07.08 0 .04-.05.17-.08.26-.06.15-.14.35-.16.57-.46 4.85-.61 9.55-.41 13.23.05.9.21 2.69.44 3.7 0 0 .18.75.68.85l.19.04.17-.1c.15-.1.36-.17.58-.24.54-.18 1.2-.41 1.45-1.19.15-.46.06-1.18-.08-2.16-.05-.37-.1-.72-.11-.94-.29-8.46.51-17.14 1.28-25.53l.16-1.79c.13-1.41.3-2.85.46-4.25.22-1.86.45-3.79.58-5.66v-.02c.06-.76.07-1.59-.49-1.83l-.31-.13-.23.24c-.36.36-.51.78-.64 1.14-.06.17-.11.32-.19.46-3.62 7.16-6.08 14.81-8.26 21.56-.16.48-.29 1.03-.43 1.56-.18.72-.37 1.47-.6 2.06-.08.22-.25.31-.37.31-.1 0-.19-.07-.26-.21-.08-.16-.18-.76-.23-1.37-.31-3.94-.2-7.93-.09-11.8.04-1.24.07-2.52.09-3.79.02-.95 0-1.91 0-2.84 0-.89-.02-1.81 0-2.71v-.5H29.71l.06.55c.03.28-.06.52-.19.84l-.02.05c-.3.76-.78 1.62-1.24 2.44-.41.72-.83 1.47-1.14 2.18-2.63 5.92-5.17 14.38-7.56 25.16-.08.34-.15.69-.23 1.04-1.05 4.68-2.24 9.99-.59 14.64.82 2.31 1.1 2.31 1.39 2.31.11 0 .22-.04.32-.11l.14-.11.04-.17c.91-3.83 1.95-7.67 3.09-11.41zM66.06 121.07c-2.14 4.51-4.68 7.95-7.62 11.93l-.11.15c-.08.11-.16.21-.24.31-.46.6-.94 1.22-.91 2.21 0 .17.05.74.11 1.27.12 1.13.17 1.26.38 1.4l.08.05.09.02c.08.02.16.03.24.03.58 0 .8-.47.9-.7.03-.08.07-.16.11-.2.04-.04.11-.08.18-.13.1-.06.22-.13.31-.24.93-1.1 1.71-2.36 2.46-3.58.37-.6.76-1.23 1.15-1.81.41-.61.82-1.21 1.23-1.81 1.72-2.53 3.5-5.14 5.01-7.92 1.06-1.94 2.15-3.95 1.74-6.76-.31-2.12-2.27-2.93-4.01-3.64-.89-.37-1.74-.71-2.32-1.2-.93-.78-1.13-1.54-.76-3.03.77-3.14 6.97-9.23 9-11.23.11-.11.43-.37.74-.62 1.01-.82 1.34-1.12 1.45-1.35.46-1-.59-1.62-1.28-2.03-.3-.18-.64-.38-.76-.54l-.1-.13-.16-.04a.645.645 0 0 0-.2-.03c-.43 0-.98.33-1.96 1.19l-.03.02c-3.52 3.07-6.84 6.81-9.34 10.52-.6.89-3.59 5.42-3.61 7.05-.01 1.16.99 1.66 1.53 1.93 1.06.52 2.34.61 3.58.7 1.55.11 3.02.21 3.9 1.11 1.75 1.79.34 4.76-.69 6.92l-.09.18zM45.28 135.42c.59 2.34 1.27 3.78 2.07 4.39.47.35.81.56 1.18.56.5 0 .82-.34 1.29-.87 1.61-1.77 2.93-7.07 3.75-11.2 1.22-6.13 2.2-13.18 2.76-19.85.04-.54.1-1.11.17-1.71.26-2.48.55-5.3.06-7.53-.14-.65-.73-1.06-1.53-1.06-.24 0-.47.04-.68.11-.73.24-.75 1.41-.69 3.04 0 .25.02.47.01.59-.19 5.24-.72 10.61-1.18 15.35-.08.77-.15 1.54-.22 2.32-.36 3.9-.73 7.93-1.67 11.75-.04.15-.08.32-.12.51-.22.99-.59 2.65-1.38 2.97-.21.09-.4.13-.56.13-.79 0-1-1.31-1.16-2.66-.02-.16-.04-.31-.05-.44-1.01-7.59-.56-18.96 1.08-27.04.16-.79.37-1.6.58-2.38.26-.98.52-1.99.7-3.02v-.05-.05c-.02-.43-.32-.72-.73-.72-.59 0-1.38.64-1.54.82-.4.44-1.36 3.25-1.42 3.44-.75 2.48-1.28 5.89-1.59 10.14-.39 5.38-.69 11.68 0 17.69.07.59.33 2.69.87 4.8zM81.42 120.87c.4 1.55 1.47 2.56 2.73 2.56.56 0 1.39-.2 2.23-1.14 2.46-2.77 5.6-10.61 6.59-14.03.32-1.12.39-1.86.19-2.23l-.14-.26H92.15l-.13.28c-.26.55-.5 1.11-.72 1.66-.36.88-.74 1.78-1.22 2.59-.46.76-1.76 2.46-2.25 2.73-.34.18-.71.28-1.09.28-.79 0-1.38-.41-1.59-1.09-.81-2.76 1.7-10.95 3.34-14.75.85-1.99 1.91-3.97 2.91-5.44.67-1 1.66-2.07 2.25-2.2.09-.02.19-.03.32-.03.19 0 .4.02.62.05.23.03.47.05.7.05.86 0 1.4-.4 1.6-1.2.24-.95-.27-2.28-.91-3.1-.52-.67-1.13-1.04-1.72-1.04h-.08c-.28.02-.78.18-1.01.31-1.17.65-2.74 2.78-4.81 6.51-3.69 6.64-9.3 20.33-6.94 29.5zM94.12 111.03v.02l-.53 3.65-.03.18.1.15.25.39.16.24.29-.02h.2c.46-.02 1.24-.04 1.49-.74v-.03l.02-.03 1.49-7.19c.43-1.02.7-2.12.97-3.19.21-.86.41-1.67.69-2.43.47-1.3.71-1.36 1.72-1.6.23-.06.5-.12.8-.2.21-.06.41-.15.59-.24.2-.1.41-.19.54-.19.02 0 .08 0 .17.11l-2.54 10.45-.02.07v.07c.03.37.31.8 1.03.8s1.79-.42 2-1.11v-.05l.02-.05c.75-9 3.11-17.33 6.11-27.28s0-.02 0-.02c.09-.34.04-.64-.13-.86-.14-.19-.36-.29-.62-.29-.07 0-.15 0-.23.03-.15.03-.26.12-.34.18-.01.01-.03.02-.04.03-.18.05-.38.09-.6.14-.72.17-1.54.35-2.11.64-.93.47-1.72 2.1-2.46 3.73-.07.17-.14.32-.2.45-3.23 6.94-6.8 15.25-8.79 24.19v.02zm7.68-15.73c.1-.15.22-.33.3-.53.87-2.16 2.12-4.69 3.41-6.93.1-.18.17-.36.22-.52.1-.29.16-.42.28-.49.06.05.11.15.08.36-.08.55-.29 1.21-.49 1.85-.14.43-.28.87-.38 1.27l-1.29 5.43c-.09.16-.52.36-1.27.36-.57 0-.96-.12-1.08-.2-.04-.17.04-.3.23-.6zM72.97 123.42c.01.19 0 .42-.02.66-.02.38-.04.77.02 1.1.11.59.62.89 1.51.89.4 0 .84-.05 1.26-.11.34-.04.65-.08.88-.08.1 0 .15 0 .17.01l.23.06.19-.15.43-.35.2-.16-.02-.25-.5-7.25c.06-5.98 1.21-12.5 3.41-19.36.2-.64.49-1.34.8-2.08.44-1.07.89-2.17 1.1-3.12.06-.3.12-.63-.05-.9-.1-.15-.31-.34-.73-.34-.59 0-1.45.35-1.72.49-.13.07-.54.3-1.81 3.06-3.69 8.04-5.84 19.24-5.36 27.88zM107.67 106.24v.06c-.2 1.22-.32 2.33.42 2.48l.15.03.14-.06c2.08-.94 4.03-2.17 5.91-3.37 1.22-.77 2.47-1.57 3.75-2.28.24-.13.68-.35 1.2-.6 3.19-1.55 4.85-2.48 5.09-3.28l.02-.07v-.07c0-.17 0-.38.02-.61.03-.73.06-1.56-.15-2.11-.19-.48-.56-.53-.71-.53-.41 0-.74.32-1.01.58-.05.05-.11.11-.14.13-1.37.87-2.82 1.71-4.22 2.52-1.49.86-3.03 1.76-4.49 2.7-.18.12-.41.29-.67.49-.35.27-1.09.84-1.32.87h-.12c-.13 0-.31-.02-.38-.11-.19-.23-.02-.99.08-1.44l.02-.09c.84-3.86 2.7-8.63 4.34-12.83.3-.77.59-1.51.86-2.21.06-.14.23-.54.44-1.05.39-.91.92-2.15 1.34-3.21.78-1.98.8-2.26.5-2.53a.685.685 0 0 0-.47-.17c-.43 0-1.05.32-1.76.71-.13.07-.26.14-.32.17l-.18.08-.07.18c-2.19 5.61-4.01 11.14-5.65 16.29-.2.64-.42 1.29-.63 1.92-.79 2.38-1.61 4.85-2 7.41zM81.28 89c1.14-.2 3.79-2.38 3.19-3.59-.17-.34-1.77-.41-2.18-.36-1.07.14-2.26 1.22-2.89 2.06-1.14 1.52.51 2.13 1.89 1.88zM7.63 98.13l-.26.11-.04.28-.29 2.16-.11.81.76-.29c1.02-.39 2.56-.91 3.27-1.06-.03.93-.33 3.48-.67 5.77l-.11.77.74-.24 1.72-.55.29-.09.04-.31.93-6.94 1.72-.68.26-.1.04-.28.34-2.16.13-.86-.8.33-7.98 3.31zM18.89 103.6l.55-.17.76-.23.32-.1.02-.34.27-4.95c.53-.23 1.5-.6 2.16-.6.18 0 .41.03.47.16.39.88.44 2.82.43 3.5v.54l.53-.05 1.2-.1.45-.04v-10.3h-1.59l-.06.42c-.23 1.64-.59 3.58-.81 4.09-.52.12-1.67.35-2.26.35-.14 0-.19-.01-.19-.01-.15-.05-.43-.74-.31-1.52.13-.88.16-1.43.16-1.46v-.31l-.26-.15c-.04-.02-.28-.14-.61-.14-.3 0-.86.11-1.25.84l-.05.1v.11c-.01.32-.26 7.81 0 9.78l.08.57zM34.84 97.2l.33-.24-.18-.37-.39-.81-.26-.53-.47.36c-1.46 1.09-3.07 2.26-3.86 2.79-.08-.76-.12-2.09-.06-2.53.41-.25 1.93-.95 3.23-1.51l.27-.12.02-.3c0-.1.03-.64-.28-.97a.794.794 0 0 0-.6-.26h-.05c-.23.01-.55.12-1.09.32-.45.16-1.05.38-1.36.41-.19-.58-.16-2.42.13-2.74l2.69-1.45.37-.2-.14-.4-.21-.57-.15-.41-.43.1s-.95.24-1.88.63c-1.41.6-2.11 1.25-2.12 2-.03 1.28-.21 10.64-.21 10.64l-.02.97.79-.57 5.92-4.25z" fill="#fff"/><path d="M135.33 111.72c-1.59-1.73-4.21-2.6-7.81-2.6-.43 0-.88.01-1.34.04-9.97.54-18.3 5.42-26.35 10.14l-.35.21c-12.63 7.4-23.86 15.83-32.22 22.35-5.77 4.5-11.82 8.86-17.67 13.07-1.34.96-2.68 1.93-4.01 2.89l-.49.36c-3.54 2.57-10.12 7.35-14.9 7.35-.67 0-1.29-.09-1.84-.28-1.66-.56-3.48-3.11-3.76-4.73v-.06c-.06-.34-.05-.69-.03-.99.5-3.76 6.69-7.75 7.94-7.84H32.67c1.01 0 1.54.27 1.79.89.08.21.08.47.07.75-.01.46-.03 1.04.44 1.46l.62.56.19-.81c.06-.28.15-.55.23-.82.34-1.1.77-2.47-.94-3.47-.38-.22-.87-.34-1.45-.34-.4 0-.84.06-1.28.16s-.12.03-.12.03h-.01c-.21.06-.43.12-.63.2-9.25 3.09-10.65 12.14-10.78 13.21-.04.26-.06.5-.06.74 0 .17 0 .33.01.5.12 2.28 1.17 4.23 3.02 5.65 1.67 1.27 3.85 1.97 6.14 1.97.63 0 1.26-.06 1.87-.16 5.76-1.02 14.34-7.84 20.02-12.36.57-.46 1.11-.88 1.6-1.27 5.03-3.96 10.04-8.17 14.88-12.24 8.03-6.74 16.33-13.72 25.01-19.79l1.1-.77c5.32-3.72 10.82-7.58 16.62-10.48 4.01-2.01 10.67-4.16 15.81-4.16 1.67 0 3.09.23 4.2.69 2.64 1.08 3.77 4.22 3.52 6.76-.16 1.66-1.7 3.84-4.11 5.82-2.27 1.87-4.86 3.17-6.59 3.32-.45.04-.85.06-1.23.06-.95 0-2.57-.14-2.75-1.04-.05-.23-.02-.58 0-.92.02-.36.05-.74 0-1.07l-.05-.33-.33-.08c-.1-.02-.18-.03-.25-.03a.58.58 0 0 0-.57.41c-.4.56-.54 1.24-.41 1.96.18.93.83 1.87 1.66 2.39.62.39 1.47.58 2.51.58 1.9 0 3.99-.64 4.79-.92 3.87-1.32 9.44-5.73 9.85-10.58.23-2.73-.36-4.88-1.74-6.38z" fill="#fff"/></svg>