<svg xmlns="http://www.w3.org/2000/svg" width="240" height="99" viewBox="0 0 240 99"><path d="M229.76 69.35c0 .81.17 1 1 1 2.81 0 5.62 0 8.43-.1.71 0 .82-.16.82-.87v-8.63c0-.49-.16-.72-.65-.77-2.76-.09-5.52-.05-8.28 0-1.32 0-1.4.21-1.39 1.54 0 2.62.04 5.22.07 7.83zM220.64 31c1.62 0 3.23-.09 4.85-.11 1.18 0 1.36-.14 1.28-1.34-.13-2.09 0-4.19-.11-6.28-.07-1.61 0-1.59-1.62-1.6-7.19 0-14.38.22-21.57.31-1 0-1.21.27-1.22 1.27v7.11c0 .68.23.91.88.92 2 0 4 0 5.93-.15.87-.05 1.25.31 1.12 1.19-.43 7.75.16 15.56-.12 23.34.12 5.09.09 10.18.16 15.28 0 1.21 1.49.58 2.24.66 2.32 0 4.63-.17 6.95-.11.6 0 .8-.2.81-.8-.33-12.94 0-25.9-.37-38.83-.06-.63.15-.86.79-.86zM230.78 35.74c.45 3.84 1.38 15.11 1.58 16.88.08.77.29.94 1 1s1.78 0 2.66 0 1.16-.12 1.25-1.15c.15-2.14.32-4.28.49-6.42.7-8.26 1.37-16.54 1.82-24.82 0-.81-.06-1-.89-1-1.09 0-6.58 0-8.23.11-.63 0-.78.16-.83.78-.04 4.88.86 9.74 1.15 14.62zM130.38 27.7c-14.73 14.43-29.71 28.86-41.48 45.9-8.73 11-5.67 13.7 1.54 24 .69 1.23 1.19-.63 3.58-.79 5.16-.51 10.39-.14 15.57-.28 4.62.12 9.38-.42 13.88.81a1.26 1.26 0 0 0 1.09-.12 53.22 53.22 0 0 1 7.86-3.9c2.15-2 6.51-9 7.29-9.73a1.41 1.41 0 0 0 .42-.91 10.14 10.14 0 0 0-.71-4.91c-.94-2.44-3.54-3.6-5.59-5a16.23 16.23 0 0 0-6.67-2.65 9 9 0 0 0-4.16.11c-.55.22-1.34-.21-1.69.45-.5.53-1.24 3-2.15 2.43-2.35-2.42-2.16-1.26-4.53 0-.54.29.29.84-.4 1.44-1.29 1.11-1.45 1.41.23 2.1a.47.47 0 0 0 .61-.25c.55-1.28 3.23-2.43 3.38-.35.1.65-.44 2.69.18 2.89.38.15.59-.32.84-.55a4.81 4.81 0 0 1 4.21-1.39 14.52 14.52 0 0 1 5.21 2.14c1.41.77 1.34 2.65.73 3.93-1.17 2.71-2.88 5.38-6.15 5.45-.47 0-.69-.16-.68-.6s0-.6-.57-.49a18.7 18.7 0 0 1-5.09.74c-.27 0-.58 0-.68-.33-.36-.81 2.54-1.61 2.21-2.3-.31-.33-.88.11-1.24.2-2.1.94-4.4 1-6.62 1.47-.7.24-2.85-.08-1.56-1.06.4-.26 2.13-1.26 1.89-1.69s-.54-.07-.79 0a68.6 68.6 0 0 1-8.34 2.17c-1.94.07-4.36 2-3.76-1.34a25.38 25.38 0 0 1 1.86-6.13 42.1 42.1 0 0 1 4.1-6.63c1.08-1.68 1.76-1.35 1.66.57-.07.65.81 6.25 1.31 4.19a113.39 113.39 0 0 1 2.49-11.54c.11-.79 1-.72.84.1-.07 1.08.22 2.13.18 3.21a1 1 0 0 0 .34.87c.92.86.92-.87 1.11-1.42a89.64 89.64 0 0 1 3.74-10.81c.3-.42.45-1.48 1-1.46.56.33 0 1.31 0 1.83-.1 1-.75 4.08 0 4.71.2 0 .24-.17.27-.32A48.33 48.33 0 0 1 120 54.9a85.18 85.18 0 0 1 3.93-7.74c.21-.69.92-.56.73.25-.31 1.64-.53 3.29-.68 5a1.07 1.07 0 0 1-.33.78.79.79 0 0 0-.14 1.06c.68 1.32-1.76.56-1.83 1.49.52.64 1.88-.09 2.61 0a3.44 3.44 0 0 0 1-1.22c1.41-3.34 3.25-6.48 4.94-9.69 7.44-12 15.08-24 24.46-34.55a1.18 1.18 0 0 0 .19-1.5c-1-1.84-2.28-3.52-3.45-5.25-.64-.9-1.89-.52-2.82-.73a3.26 3.26 0 0 0-2.72.74q-7.4 5.15-14.68 10.45c-15.78 12.23-32 24-47.3 36.77-1 .79-1.84 1.67-2.76 2.5-.19.17-.43.36-.67.12-.36-.4.17-.86.36-1.22 10.62-12.94 21.58-25.66 32.87-38 1.49-1.87 3.25-3.48 4.86-5.25 1.11-1.36-1.81-5.37-2.59-6.61-1-1.71-3.44-2.94-5.29-1.77-1.93 1.34-3.83 2.72-5.82 4-3.78 2.31-7.48 4.75-11.31 7C84.9 16.85 76 21.81 67 26.79c-5.71 3.61-11.93 6.27-18 9.15-.14.06-.33.11-.3.3s2 .12 2.38.09c.59 0 3.44-.72 3.64-.35s-.27.55-.5.72a51.27 51.27 0 0 1-15.62 7.35c-.17 0-.17.58 0 .6a11.79 11.79 0 0 0 3.08.35c.33 0 .9-.14 1.09.22.11.84-2 1.28-2.58 1.72-3.34 1.86-6.9 3.26-10.32 5-1.58 1.05 2.72.29 3.08.38a8.64 8.64 0 0 0 3.05-.66c.22-.09.45-.13.6.11.26 1-2.88 2.29-3.63 2.9a80.21 80.21 0 0 1-8 5.13c-.82.46-3.29 1.48-3 2 .1.31.41.18.63.14a25.08 25.08 0 0 0 4.55-.94c.49-.07 1.43-.77 1.81-.31.19.32-.13.58-.36.76C24 64.72 20 68.9 15.41 72.29a2.15 2.15 0 0 1-3.24-.89c-1.33-3.45.27-7.83.68-11.43a22.88 22.88 0 0 1 3.6-8.72c1.2-1.72 2.42-3.42 3.74-5 .19-.23.63-.49.37-.78s-.69 0-.95.2c-.87.78-3.57 2.34-3.86 2s.1-.73.35-1c1-1.15 2-2.26 3-3.42a53.77 53.77 0 0 1 7.1-6.73c.48-.25.17-.71-.25-.51-1.15.41-2.36.71-3.46 1.23-.89.59-3.31 1.6-3.49 1.35-.45-.8 1.44-2 1.87-2.6 1.54-1.69 3.08-3.36 4.65-5 .27-.44 1.64-1.08 1.48-1.57-.11-.19-.31-.11-.46 0-1.62.48-3.12 1.25-4.76 1.67-.75.37-1.47-.52-.61-1.11 2.47-2 4.91-4 7.42-5.93.32-.18.15-.45-.17-.34-.7 0-1.73.64-2.1 0-.1-.31.08-.49.34-.6.69-.25 2.42-2.08 2.9-2.37 1.4-.84 2.76-1.75 4.23-2.48a11.33 11.33 0 0 1 9.83-1c2.82 1 4.63 1.61 4.37 5a12.07 12.07 0 0 1-2.91 6 .41.41 0 0 0-.09.56c.15.18.35.06.52 0 2.9-1.06 5.77-2.38 7.63-5 2.5-3.25 3.58-9-.23-11.72-2.42-1.41-5-2.46-7.55-3.62-1.3-.59-2.55-1.24-4.1-.8-5.4.72-10.65 2.3-16 3.49a3.29 3.29 0 0 0-1.49.86c-3.08 2.94-5.87 6.16-8.9 9.15-2.33 2.27-4.52 4.68-6.78 7-1 1.18-2.45 2.21-2.72 3.81-.16 1.9-.31 3.79-.58 5.68-1.49 10-3.1 20.07-4.47 30.18C-.73 72 1 76.28 2.87 79.92a68.71 68.71 0 0 1 3.71 7.56c1.72 2.84 1.64 1.23 3.51.78a3.09 3.09 0 0 0 1.15-.53c1.11-.82 2.35-1.45 3.49-2.24 1.66-1.15 3.44-2.14 5-3.41C40 67.9 57.64 51 77.12 35.84c4-3.21 8.08-6.26 12.12-9.38.44-.24.92-1 1.44-.64a.45.45 0 0 1 0 .61c-.46.68-.9 1.37-1.38 2-4 4.33-7.29 9.3-11.18 13.76-7 8.12-25.87 32.17-29.1 35.43-.75.9-1.7 1.93-1.72 3.16.11 3.43 1.4 7.08 4.25 9.13a.62.62 0 0 0 .87-.08c.74-.81 1.53-1.56 2.28-2.35 4.67-4.5 9.93-8.35 14.82-12.61 15.16-12.57 30.14-25.36 45.81-37.3 4.83-3.61 9.63-7.27 14.56-10.75a.46.46 0 0 1 .69 0c.33.31.03.64-.2.88zM198.87 26.21a33 33 0 0 0 0-4.45c-.08-1-.15-1.12-1.15-1.09-2.36.13-4.73 0-7.1.12-1-.1-.71 2.26-.85 3 .07 7-.08 14.08.27 21.1.17.93-.75 1.09-.85.13-2.07-7.66-4.44-15.24-6.49-22.91-.19-.72-.32-.81-1.08-.8l-6.54.11c-.59 0-1.41.06-1.38.84 0 1.4-.39 39.26-.22 46.89 0 .71-.37 2.24.78 2a66.92 66.92 0 0 1 8 .12c.73 0 .93-.16.92-.89-.15-7.36-.14-14.72-.38-22.08-.21-1.12.83-1.26.93-.12 1.89 7.33 3.74 14.68 5.7 22 .24 1.22 1.56.81 2.47.8 2.08-.06 4.15.1 6.23.11.64 0 .8-.16.8-.78 0-5.71-.1-35.11-.06-44.1z" fill="#fff"/><path d="M170.16 70.54c-1.48-11-5.65-42.62-6.31-47.5-.06-.49-.29-.75-.79-.75h-13.08a.82.82 0 0 0-.91.76c-.49 2.45-6.76 34.35-9.33 47.84 0 .73.17.91.9.9 1.28 0 7.12-.12 8.77-.13a.69.69 0 0 0 .78-.64 93.61 93.61 0 0 0 1.34-9.87c0-.46.16-.9.74-.93 1.92-.12 3.85 0 5.77 0 1.43-.26 1.05 1.22 1.09 2.14.38 2.92.62 5.86 1.05 8.77 0 1.35 3.57.29 4.73.7 1.54.26 3-.3 4.58 0 .74.03.76-.75.67-1.29zm-12.61-19.81a18.94 18.94 0 0 0-3.4.13c-.68.16-1-.16-.87-.89.53-3.31 1-6.63 1.51-9.94.43-2.19.59-4.42.9-6.62 0-1 .76-1 .8 0 .6 5.06.84 10.17 1.46 15.24-.01.71.78 2.06-.4 2.08z" fill="#fff"/></svg>