<svg xmlns="http://www.w3.org/2000/svg" width="250" height="90" viewBox="0 0 250 90"><g id="logos"><path d="M22.31,19.62q-2.94,2.44-8.39,2.45H7v12H0V.64H14.37a11.62,11.62,0,0,1,7.92,2.58q3,2.59,3,8Q25.25,17.17,22.31,19.62ZM17,7.56a5.62,5.62,0,0,0-3.72-1.11H7V16.3h6.3A5.33,5.33,0,0,0,17,15.1a4.89,4.89,0,0,0,1.33-3.82A4.59,4.59,0,0,0,17,7.56Z" fill="#fff"/><path d="M30.86.64h7V28.09H54.56v6H30.86Z" fill="#fff"/><path d="M68.83.64h7.91L88.59,34.1H81l-2.21-6.88H66.47L64.2,34.1H56.88Zm-.46,20.82h8.57L72.71,8.29Z" fill="#fff"/><path d="M107.67.64h7.92L104.4,21.55V34.1h-7V21.55L85.83.64h8.24l7,14.57Z" fill="#fff"/><path d="M144.55,4.2a8.48,8.48,0,0,1,1.54,5.11,7.48,7.48,0,0,1-1.55,4.93,8.07,8.07,0,0,1-2.55,1.9,7.47,7.47,0,0,1,3.86,3,8.82,8.82,0,0,1,1.3,4.9,9.77,9.77,0,0,1-1.49,5.34A9.2,9.2,0,0,1,143.29,32a9.06,9.06,0,0,1-3.78,1.68,23.38,23.38,0,0,1-4.73.45H119.7V.64h16.18Q142,.73,144.55,4.2ZM126.38,6.45v7.38h8.13a6.72,6.72,0,0,0,3.54-.83,3.15,3.15,0,0,0,1.36-2.94A3,3,0,0,0,137.61,7a12.52,12.52,0,0,0-4-.52Zm0,12.92v8.92h8.12a7.9,7.9,0,0,0,3.39-.59q2.21-1.1,2.2-4.18A3.58,3.58,0,0,0,138,19.94a8.23,8.23,0,0,0-3.34-.57Z" fill="#fff"/><path d="M162.74.64h7.92L182.5,34.1h-7.59l-2.21-6.88H160.38l-2.27,6.88H150.8Zm-.46,20.82h8.57L166.63,8.29Z" fill="#fff"/><path d="M190,4.13A13.81,13.81,0,0,1,200.24,0q8.35,0,12.22,5.54a12.14,12.14,0,0,1,2.29,6.24h-7A9.59,9.59,0,0,0,206,8.15a7.59,7.59,0,0,0-11.43.9q-2.16,3.07-2.16,8.71t2.28,8.43a7.13,7.13,0,0,0,5.78,2.8,6.57,6.57,0,0,0,5.49-2.4,10.52,10.52,0,0,0,1.73-3.88h7a15.13,15.13,0,0,1-4.59,8.9A13.4,13.4,0,0,1,200.62,35q-7.14,0-11.23-4.63T185.3,17.64Q185.3,8.88,190,4.13Z" fill="#fff"/><path d="M220.45.64h6.88V14.43L240.26.64h9L235.56,14.4,250,34.1h-9L230.7,19.49l-3.37,3.42V34.1h-6.88Z" fill="#fff"/><path d="M167.16,56.44v5.92h-10V89.9h-7V62.36H140.05V56.44Z" fill="#fff"/><path d="M177.63,89.9h-6.95V56.44h6.95Z" fill="#fff"/><path d="M206.37,56.44h10.06V89.9h-6.52V67.27c0-.65,0-1.57,0-2.74s0-2.08,0-2.71L203.62,89.9h-6.8l-6.3-28.08c0,.63,0,1.54,0,2.71s0,2.09,0,2.74V89.9h-6.52V56.44h10.18l6.09,26.31Z" fill="#fff"/><path d="M247.65,62.36H229.94v7.11H246.2v5.81H229.94v8.61h18.53v6H223.11V56.44h24.54Z" fill="#fff"/></g></svg>