<svg xmlns="http://www.w3.org/2000/svg" width="210" height="117" viewBox="0 0 210 117"><rect x="8.07" width="5.82" height="76.84" fill="#fff"/><rect x="21.98" y="1.32" width="5.82" height="75.52" fill="#fff"/><rect x="53.12" y="4.27" width="5.82" height="72.57" fill="#fff"/><path d="M3.16,41l21.72,1" fill="#fff"/><rect x="11.11" y="30.58" width="5.82" height="21.75" transform="translate(-28.01 53.65) rotate(-87.49)" fill="#fff"/><path d="M42.12,8.49a2.32,2.32,0,0,1,2.1,2.19V69.31a2.06,2.06,0,0,1-2.1,2l-3.54,0a2.11,2.11,0,0,1-2.11-2V10a1.89,1.89,0,0,1,2.11-1.84l3.54.31m0-5.54-3.54-.33a7,7,0,0,0-7.92,6.9V69.18a7.82,7.82,0,0,0,7.92,7.66h3.54A7.73,7.73,0,0,0,50,69.37V11.17C50,7.06,46.47,3.36,42.12,3Z" fill="#fff"/><path d="M158.45,18.68a2.2,2.2,0,0,1,2.11,1.89V70.44a2,2,0,0,1-2.11,1.69l-3.53,0a2,2,0,0,1-2.11-1.74V19.91a1.77,1.77,0,0,1,2.11-1.53l3.53.3m0-4.71-3.53-.33c-4.36-.41-7.93,2.19-7.93,5.78V70.31c0,3.59,3.57,6.53,7.93,6.53h3.53c4.36,0,7.93-2.86,7.93-6.35V21.07c0-3.49-3.57-6.68-7.93-7.1Z" fill="#fff"/><path d="M180.27,20.6a2.16,2.16,0,0,1,2.1,1.83V70.65a1.92,1.92,0,0,1-2.1,1.63l-3.54,0a2,2,0,0,1-2.11-1.69V21.77a1.77,1.77,0,0,1,2.11-1.48l3.54.31m0-4.56-3.54-.34c-4.36-.41-7.92,2.1-7.92,5.57V70.52c0,3.47,3.56,6.32,7.92,6.32h3.54c4.35,0,7.92-2.76,7.92-6.13V22.92c0-3.37-3.57-6.47-7.92-6.88Z" fill="#fff"/><path d="M202.08,22.51c1.14.1,2.11.91,2.11,1.77V70.86c0,.86-1,1.58-2.11,1.58l-5.65,0V22l5.65.5m0-4.4L190.62,17V76.84h11.46c4.35,0,7.92-2.67,7.92-5.92V24.78c0-3.26-3.57-6.26-7.92-6.67Z" fill="#fff"/><path d="M99.83,49.75h-.39l-2.56-.11c-4.7-.19-8.53-3.9-8.53-8.27V7.61h5.81V41.36c0,1.25,1.39,2.4,3,2.46l2.56.11a3,3,0,0,0,2.19-.74A1.61,1.61,0,0,0,102.4,42V8.94h5.81V42a7.34,7.34,0,0,1-2.31,5.34A8.75,8.75,0,0,1,99.83,49.75Z" fill="#fff"/><path d="M121.85,77.25h-2.59c-4.77,0-8.64-3.56-8.64-7.9V9.72h5.81V69.34c0,1.11,1.33,2.08,2.85,2.09h2.57a3.34,3.34,0,0,0,2.31-.86,1.58,1.58,0,0,0,.5-1.08V11.05h5.82V69.49a7.33,7.33,0,0,1-2.22,5.2A9.09,9.09,0,0,1,121.85,77.25Z" fill="#fff"/><path d="M136,77.3h-2.6c-4.76,0-8.64-3.51-8.64-7.8V11.06h5.82V69.49c0,.94,1.17,2,2.84,2H136a3.37,3.37,0,0,0,2.34-.87,1.43,1.43,0,0,0,.47-1V12.39h5.82V69.64a7.21,7.21,0,0,1-2.18,5.1A9.17,9.17,0,0,1,136,77.3Z" fill="#fff"/><path d="M99.58,77.17H97c-4.77,0-8.64-3.63-8.64-8V57.79h5.81V69.11c0,1.21,1.31,2.23,2.85,2.24h2.57a3.18,3.18,0,0,0,2.25-.87,1.75,1.75,0,0,0,.57-1.23V36.15h5.81V69.26a7.52,7.52,0,0,1-2.28,5.35A9,9,0,0,1,99.58,77.17Z" fill="#fff"/><rect x="72.64" y="6.12" width="5.82" height="70.72" fill="#fff"/><path d="M56,74.11l16.71.06" fill="#fff"/><rect x="61.47" y="65.78" width="5.82" height="16.71" transform="translate(-9.98 138.26) rotate(-89.8)" fill="#fff"/><path d="M75.54,74.18l16.71.06" fill="#fff"/><rect x="80.99" y="65.85" width="5.82" height="16.71" transform="translate(9.39 157.84) rotate(-89.8)" fill="#fff"/><path d="M39,116.53H21.24l-.16-13.76c0-1.91,0-3.82,0-5.68l.15-5.73h-.46l-1.15,3c-1.7,4.46-2,5.19-3.65,9.06l-5.68,13.08H0L14.2,83.87H31.81L32,97.62c0,1.87,0,3.68.11,5.54s-.1,3.72-.12,5.53h.41l1.16-2.94c1.64-4.31,1.85-4.94,3.54-8.81l5.68-13.07H53.17Z" fill="#fff"/><path d="M89.08,84.75c3.15,1.37,4.31,3.67,3.62,7.15-.25,1.51-1.18,3.91-3.16,8.47-3.07,7-4.46,9.3-7.39,11.75-4.07,3.43-10.23,4.65-19.76,4.65-6.09,0-10.12-.44-12.06-1.76-2.36-1.57-3.1-3.63-2.48-6.81a35.89,35.89,0,0,1,2.32-6.27c2.57-5.92,4.25-9.1,6-11.31,2.07-2.74,5.72-4.94,10.15-6.12a58.23,58.23,0,0,1,11.8-.88C83.41,83.62,87.16,83.91,89.08,84.75ZM65.6,93.07c-1.11,1.08-2,2.69-4.1,7.54-3.51,8.08-2.09,8.62,5,8.62,4.27,0,7-.49,8.7-2.35,1.14-1.27,2-2.74,3.83-7,2-4.51,2.29-5.53,2.21-6.71-.13-1.57-2.53-2-6.74-2C70,91.11,67.22,91.5,65.6,93.07Z" fill="#fff"/><path d="M133.76,116.53h-15l1.76-10.24c.53-3.38,1.2-6.8,1.87-10.23H122c-.33.49-1.11,1.61-1.75,2.54-1,1.47-1.65,2.45-1.77,2.6-1.21,1.71-2.41,3.38-3.68,5.09l-7.37,10.24H92.52l5.83-32.66h10.48l-2.55,12.58-1.34,6.32c-.43,2-.91,4.11-1.44,6.26h.41l2.18-3.13,2.24-3.13L113,96.45l9.22-12.58h10.76l-1.85,12.58c-.66,4.21-1.07,6.9-1.33,8.18-.23,1.47-.49,2.89-.74,4.4h.35c2.68-4.16,5.43-8.32,8.34-12.58l8.51-12.58h10.47Z" fill="#fff"/><path d="M39,116.53H21.24l-.16-13.76c0-1.91,0-3.82,0-5.68l.15-5.73h-.46l-1.15,3c-1.7,4.46-2,5.19-3.65,9.06l-5.68,13.08H0L14.2,83.87H31.81L32,97.62c0,1.87,0,3.68.11,5.54s-.1,3.72-.12,5.53h.41l1.16-2.94c1.64-4.31,1.85-4.94,3.54-8.81l5.68-13.07H53.17Z" fill="#fff"/><path d="M89.08,84.75c3.15,1.37,4.31,3.67,3.62,7.15-.25,1.51-1.18,3.91-3.16,8.47-3.07,7-4.46,9.3-7.39,11.75-4.07,3.43-10.23,4.65-19.76,4.65-6.09,0-10.12-.44-12.06-1.76-2.36-1.57-3.1-3.63-2.48-6.81a35.89,35.89,0,0,1,2.32-6.27c2.57-5.92,4.25-9.1,6-11.31,2.07-2.74,5.72-4.94,10.15-6.12a58.23,58.23,0,0,1,11.8-.88C83.41,83.62,87.16,83.91,89.08,84.75ZM65.6,93.07c-1.11,1.08-2,2.69-4.1,7.54-3.51,8.08-2.09,8.62,5,8.62,4.27,0,7-.49,8.7-2.35,1.14-1.27,2-2.74,3.83-7,2-4.51,2.29-5.53,2.21-6.71-.13-1.57-2.53-2-6.74-2C70,91.11,67.22,91.5,65.6,93.07Z" fill="#fff"/><path d="M133.76,116.53h-15l1.76-10.24c.53-3.38,1.2-6.8,1.87-10.23H122c-.33.49-1.11,1.61-1.75,2.54-1,1.47-1.65,2.45-1.77,2.6-1.21,1.71-2.41,3.38-3.68,5.09l-7.37,10.24H92.52l5.83-32.66h10.48l-2.55,12.58-1.34,6.32c-.43,2-.91,4.11-1.44,6.26h.41l2.18-3.13,2.24-3.13L113,96.45l9.22-12.58h10.76l-1.85,12.58c-.66,4.21-1.07,6.9-1.33,8.18-.23,1.47-.49,2.89-.74,4.4h.35c2.68-4.16,5.43-8.32,8.34-12.58l8.51-12.58h10.47Z" fill="#fff"/></svg>