<svg xmlns="http://www.w3.org/2000/svg" width="200" height="139" viewBox="0 0 200 139"><path d="M35.39,88.57l-7,4.17a12.06,12.06,0,0,0-3.76-4.47,8.77,8.77,0,0,0-4.81-1.19,8.91,8.91,0,0,0-6,2,6.36,6.36,0,0,0-2.38,5.07q0,4.22,6.26,6.78l5.73,2.35q7,2.84,10.25,6.91a15.57,15.57,0,0,1,3.24,10,17.55,17.55,0,0,1-5.29,13.11,18.14,18.14,0,0,1-13.22,5.22A17.7,17.7,0,0,1,6,134.13q-4.81-4.44-6-12.48l8.79-1.94c.4,3.38,1.09,5.71,2.09,7a9,9,0,0,0,7.82,3.73,9.07,9.07,0,0,0,6.74-2.72,9.4,9.4,0,0,0,2.69-6.89,9.71,9.71,0,0,0-.47-3.08,7.74,7.74,0,0,0-1.45-2.57A11.68,11.68,0,0,0,23.66,113a24.29,24.29,0,0,0-3.73-2l-5.55-2.31q-11.81-5-11.81-14.6A13.84,13.84,0,0,1,7.52,83.28a17.94,17.94,0,0,1,12.34-4.4Q29.81,78.88,35.39,88.57Z" fill="#fff"/><path d="M56,102.5H80.84V80h8.68v57.52H80.84V110.66H56v26.86H47.35V80H56Z" fill="#fff"/><path d="M185.3,88.16v49.36h-8.68V88.16H163.39V80h35.09v8.16Z" fill="#fff"/><path d="M17.74,29.47H49.48V1.35H60.59V73.23H49.48V39.66H17.74V73.23H6.63V1.35H17.74Z" fill="#fff"/><path d="M74.55,37q0-15.16,11.39-26.07A38,38,0,0,1,113.21,0a37.21,37.21,0,0,1,27,11,35.5,35.5,0,0,1,11.3,26.39,35,35,0,0,1-11.34,26.31A39.59,39.59,0,0,1,87,64.9Q74.54,54.24,74.55,37Zm11.2.14Q85.75,49,94,56.7a27.62,27.62,0,0,0,38.37-.14,26.13,26.13,0,0,0,8-19.27A26,26,0,0,0,132.41,18a26.25,26.25,0,0,0-19.35-7.82A26.53,26.53,0,0,0,93.66,18,25.62,25.62,0,0,0,85.75,37.1Z" fill="#fff"/><path d="M183.13,11.55V73.23H172V11.55H155.1V1.35H200v10.2Z" fill="#fff"/><path d="M151.73,87.71a28.76,28.76,0,0,0-21.08-8.79,29.3,29.3,0,0,0-21.31,8.71,28.19,28.19,0,0,0-8.91,20.87q0,13.81,9.76,22.35a30.41,30.41,0,0,0,41.51-1,28.28,28.28,0,0,0,8.86-21A28.72,28.72,0,0,0,151.73,87.71Zm-12.35,34.42-8.88-4.67-8.89,4.67,1.7-9.89-7.19-7,9.94-1.44,4.44-9,4.44,9,9.93,1.44-7.18,7Z" fill="#fff"/></svg>