<svg xmlns="http://www.w3.org/2000/svg" width="200" height="109" viewBox="0 0 200 109"><path d="M30.36 1l-7.31 22.15 8 26.86H17.9L12.74 29v21H0V1h12.74v19l5.67-19zM46 1v49H33.27V1zM75.86 1v6.62H68.3V50H55.56V7.62H48V1zM106 18.07H94.07v-4.22a16.54 16.54 0 0 0-.38-4.64A1.63 1.63 0 0 0 92 8.29a1.65 1.65 0 0 0-1.86 1.91c.06 1.9.25 29.79.25 30.94s.6 1.61 1.52 1.61a1.66 1.66 0 0 0 1.74-1.09 19.21 19.21 0 0 0 .41-5.13v-6.94H106v1.91c0 5.07.11 10-.56 12.17s-1.32 3.73-4 5.07A22.05 22.05 0 0 1 92.06 51a16.49 16.49 0 0 1-8.62-2c-2.27-1.35-4-2.6-4.76-5s-.85-6.6-.85-11.4V18.3c0-3.52-.22-6.64 0-8.4a9.78 9.78 0 0 1 1.72-4.74c1.13-1.63 3.32-2.82 5.31-3.75A15.9 15.9 0 0 1 91.72 0a18.4 18.4 0 0 1 9.35 2.27 8.53 8.53 0 0 1 4.11 4.89c.71 2.17.8 6 .8 10.55zM137.69 1v49H125V26.23h-3.81V50H108.4V1h12.74v19H125V1zM140.06 1h24.16v6.52H152.8v12.87h10.87v6.36H152.8v16.89h12.27V50h-25zM200 1v49h-13l-8.57-24.7V50h-10.58V1h13.93l7.67 22.06V1zM40.35 58v49.35H24.93V86.66h-4.61v20.73H4.9V58h15.42v17.69h4.61V58zM79.63 86.94a89.88 89.88 0 0 1-.42 10.53 10.69 10.69 0 0 1-2.64 5.65 14 14 0 0 1-6 3.93 25.59 25.59 0 0 1-8.79 1.38 26.47 26.47 0 0 1-8.55-1.3 14 14 0 0 1-6.1-3.89 10.67 10.67 0 0 1-2.74-5.64A87.24 87.24 0 0 1 44 86.94v-8.45A89.76 89.76 0 0 1 44.39 68 10.69 10.69 0 0 1 47 62.31a14.08 14.08 0 0 1 6-3.94A25.84 25.84 0 0 1 61.8 57a26.2 26.2 0 0 1 8.55 1.3 14.08 14.08 0 0 1 6.1 3.88 10.74 10.74 0 0 1 2.74 5.64 85.5 85.5 0 0 1 .44 10.67zM64.22 70.72a12.91 12.91 0 0 0-.46-4.4 1.88 1.88 0 0 0-1.89-1 2.27 2.27 0 0 0-1.85.78c-.42.52-.64 2.05-.64 4.59v23a18.49 18.49 0 0 0 .43 5.31c.28.67.93 1 1.95 1a1.92 1.92 0 0 0 2-1.15 20.65 20.65 0 0 0 .44-5.52zM119.17 58v33a48 48 0 0 1-.44 7.88 10 10 0 0 1-2.6 4.66 13.41 13.41 0 0 1-5.7 3.63 25.33 25.33 0 0 1-8.33 1.24 27.47 27.47 0 0 1-9.37-1.41 14 14 0 0 1-6.08-3.81 9.67 9.67 0 0 1-2.38-5 102.23 102.23 0 0 1-.36-11V58h15.41v37a12.22 12.22 0 0 0 .42 4.13 1.69 1.69 0 0 0 1.7.9 1.82 1.82 0 0 0 1.89-1 15.5 15.5 0 0 0 .42-4.68V58zM157.64 74.46h-14.32v-5.14c0-1.71-.18-2.8-.55-3.26a2.17 2.17 0 0 0-1.83-.71 2.47 2.47 0 0 0-2.1 1 4.72 4.72 0 0 0-.72 2.87 6.89 6.89 0 0 0 .81 3.72q.76 1.24 4.35 3 10.29 5.09 13 8.34t2.67 10.52q0 5.28-1.48 7.77t-5.73 4.19a26.57 26.57 0 0 1-9.89 1.7 25.86 25.86 0 0 1-10.56-2c-2.92-1.31-4.83-3-5.73-5a21.63 21.63 0 0 1-1.36-8.57v-4.4h14.32v7.23c0 1.84.2 3 .6 3.56a2.55 2.55 0 0 0 2.15.79 2.69 2.69 0 0 0 2.29-1 5 5 0 0 0 .75-3q0-4.35-1.43-5.7a45.79 45.79 0 0 0-7.22-4.48A71.73 71.73 0 0 1 128 81.3a10.85 10.85 0 0 1-3.1-4 14.92 14.92 0 0 1-1.22-6.46q0-5.67 1.74-8.29a11.29 11.29 0 0 1 5.62-4.1 26.47 26.47 0 0 1 9.39-1.45 28.63 28.63 0 0 1 10.23 1.62c2.82 1.08 4.69 2.43 5.61 4.07s1.37 4.41 1.37 8.33zM162.91 58h29.77v6.53h-14.35v13.15H192v6.16h-13.67v16.83h15.38v6.72h-30.8z" fill="#fff"/></svg>