<svg xmlns="http://www.w3.org/2000/svg" width="233" height="94" viewBox="0 0 233 94"><path d="M203.63,40l-8.18,0-8.18,0H187a.5.5,0,0,1-.21,0,.34.34,0,0,1-.16-.13s-.06-.13,0-.18c2-4,3-8.37,3.92-12.59.42-1.91.86-3.89,1.38-5.8,1-3.47,1.88-7.31,2.82-11.73a27.63,27.63,0,0,0,.44-3.72c0-.61.08-1.21.14-1.83a.21.21,0,0,1,.19-.19h.21c.22,0,.5,0,.77,0h13l13.66,0a17.87,17.87,0,0,1,3.64.33c3.75.78,5.39,3.11,4.87,6.92a52.66,52.66,0,0,1-1,5.22l-.87,3.69c-.91,3.83-1.84,7.79-3,11.64-1.67,5.76-4.93,8.27-10.89,8.39C212.29,40,208.4,40,203.63,40ZM205,33.54h2.15c1.53,0,2.7,0,3.81-.08.39,0,.94-.44,1.51-1.16a3.35,3.35,0,0,0,.48-1.3l.07-.31c1-4.19,2-8.38,3-12.57l.35-1.46c.41-1.68.82-3.42,1.19-5.14a1.37,1.37,0,0,0-.12-1.14,1.08,1.08,0,0,0-.85-.32c-1.14,0-2.28,0-3.43,0h-4.43L203,33.53Z" fill="#fff"/><path d="M209.4,3.87l13.7,0a18.73,18.73,0,0,1,3.59.33c3.63.75,5.22,3,4.72,6.7-.24,1.74-.61,3.48-1,5.19-1.24,5.12-2.36,10.27-3.83,15.32-1.63,5.64-4.76,8.13-10.69,8.25-4.09.08-8.17.1-12.26.1-5.43,0-10.87,0-16.31,0H187a.9.9,0,0,1-.22-.07c3-5.85,3.62-12.29,5.32-18.43,1.07-3.88,2-7.81,2.82-11.74a50.88,50.88,0,0,0,.58-5.57c.22,0,.6-.05,1-.05H209.4m-2.26,29.88c1.28,0,2.54,0,3.81-.08.58,0,1.24-.7,1.66-1.24a4.36,4.36,0,0,0,.59-1.68q1.52-6.29,3-12.57c.52-2.2,1.07-4.4,1.54-6.61.23-1.09-.16-1.68-1.17-1.7s-2.29,0-3.43,0h-4.59c-1.94,8-3.86,15.89-5.81,23.88l4.39,0M209.4,3.47H196.47c-.28,0-.56,0-.78,0h-.21a.41.41,0,0,0-.38.37c-.06.62-.1,1.23-.14,1.83a28.47,28.47,0,0,1-.43,3.69c-.94,4.43-1.86,8.26-2.82,11.73-.53,1.92-1,3.89-1.38,5.81-.93,4.2-1.89,8.55-3.91,12.54a.41.41,0,0,0,0,.34.42.42,0,0,0,.26.23l.06,0a.73.73,0,0,0,.28.06h.3l8.16,0,8.15,0c4.79,0,8.68,0,12.27-.1,6.06-.12,9.37-2.67,11.07-8.54,1.11-3.85,2.05-7.81,3-11.64.29-1.23.58-2.46.88-3.69a52.92,52.92,0,0,0,1-5.24c.53-3.88-1.21-6.35-5-7.14a17.47,17.47,0,0,0-3.68-.34l-13.7,0Zm-.53,6.78h4.28c1.34,0,2.43,0,3.42,0a.86.86,0,0,1,.7.25,1.24,1.24,0,0,1,.08,1c-.36,1.72-.78,3.45-1.18,5.13l-.35,1.46q-1.5,6.3-3,12.57l-.08.32a3.14,3.14,0,0,1-.43,1.21c-.53.67-1.05,1.08-1.37,1.09-1.1.06-2.27.08-3.79.08h-3.87l5.6-23.08Z" fill="#fff"/><path d="M34.11,93.05a.21.21,0,0,1-.18-.1.22.22,0,0,1,0-.21c2.53-4.13,3.56-8.55,4.65-13.23.53-2.24,1.07-4.55,1.79-6.82H27.79c-.69,0-1,.07-1.16.71-.42,1.77-.87,3.54-1.31,5.3-.7,2.78-1.43,5.66-2.05,8.51A19.83,19.83,0,0,0,23,91c0,.6,0,1.22-.06,1.83a.21.21,0,0,1-.21.19H1.5a.2.2,0,0,1-.18-.11.2.2,0,0,1,0-.21c2.39-3.37,3.27-7.17,4.11-10.84.23-1,.45-1.95.7-2.91C8,72,10.31,62.84,12.54,53.49a34,34,0,0,0,.68-5.05c.07-.82.13-1.66.23-2.5a.2.2,0,0,1,.2-.18h20.9a.19.19,0,0,1,.17.1.2.2,0,0,1,0,.21c-2.25,3.68-3.18,7.62-4.18,11.8-.51,2.13-1,4.33-1.75,6.48l.31.05a6.48,6.48,0,0,0,.82.07h6l5.33,0h0c.86,0,1.17-.21,1.32-.89.37-1.62.74-3.23,1.12-4.85.65-2.81,1.33-5.72,1.92-8.6a11.19,11.19,0,0,0,.08-2.79c0-.46,0-.94,0-1.42a.2.2,0,0,1,.2-.2H67a.21.21,0,0,1,.18.1.2.2,0,0,1,0,.2c-2.51,4.46-3.63,9.39-4.71,14.16-.43,1.93-.89,3.92-1.42,5.86C59.42,71.9,57.8,78.34,56,86.34a23.8,23.8,0,0,0-.46,4.38c0,.71-.07,1.42-.12,2.14a.21.21,0,0,1-.2.19Z" fill="#fff"/><path d="M67,45.94c-3.54,6.3-4.28,13.35-6.15,20.07s-3.52,13.49-5.1,20.28a46.12,46.12,0,0,0-.58,6.56H34.11c3.83-6.29,4.3-13.44,6.53-20.36H27.74c-.65,0-1.11.07-1.3.87-1.11,4.61-2.36,9.18-3.37,13.81a37.63,37.63,0,0,0-.39,5.61H1.5C4.55,88.49,5.14,83.62,6.35,79,8.55,70.5,10.71,62,12.74,53.54A65.78,65.78,0,0,0,13.65,46h20.9c-3.5,5.73-3.9,12.29-6,18.57.59.06,1,.14,1.39.14h5.93c1.8,0,3.6,0,5.39,0h0c.82,0,1.29-.21,1.48-1.06,1-4.48,2.12-9,3-13.45a22.2,22.2,0,0,0,0-4.25H67m0-.4H45.85a.39.39,0,0,0-.4.4c0,.49,0,1,0,1.43a10.76,10.76,0,0,1-.08,2.74c-.59,2.87-1.26,5.78-1.92,8.59-.37,1.62-.75,3.24-1.11,4.86-.13.57-.37.73-1.09.73l-5.44,0H29.92a6.36,6.36,0,0,1-.79-.07h-.07c.68-2.09,1.19-4.21,1.68-6.27,1-4.17,1.92-8.1,4.15-11.75a.38.38,0,0,0,0-.4.4.4,0,0,0-.35-.21H13.65a.4.4,0,0,0-.4.36c-.1.85-.17,1.69-.23,2.5a34.54,34.54,0,0,1-.67,5C10.12,62.79,7.76,71.94,6,78.86c-.25,1-.48,2-.7,2.91-.84,3.66-1.72,7.44-4.09,10.78a.4.4,0,0,0,0,.42.41.41,0,0,0,.36.21H22.68a.41.41,0,0,0,.41-.37c0-.63.05-1.25.06-1.85a19.23,19.23,0,0,1,.32-3.7c.62-2.85,1.34-5.73,2-8.51.44-1.73.89-3.53,1.32-5.3.12-.5.29-.56.91-.56H40.09c-.68,2.19-1.2,4.42-1.7,6.58-1.09,4.66-2.12,9.07-4.63,13.17a.41.41,0,0,0,0,.4.42.42,0,0,0,.36.21H55.17a.4.4,0,0,0,.4-.37c.06-.72.09-1.45.12-2.15a24.37,24.37,0,0,1,.45-4.35c1.86-8,3.48-14.43,5.1-20.26.54-2,1-3.94,1.43-5.88,1.08-4.75,2.19-9.66,4.69-14.1a.41.41,0,0,0,0-.4.38.38,0,0,0-.35-.2Z" fill="#fff"/><path d="M109.06,93a.2.2,0,0,1-.17-.09.21.21,0,0,1,0-.19c0-.06.05-.12.07-.17a.79.79,0,0,1,.21-.38c4.14-3.81,7.47-8.36,10.7-12.76.83-1.14,1.66-2.27,2.5-3.39q4.13-5.49,8.21-11c3.68-4.93,7.48-10,11.26-15,.89-1.18,1.2-2,.25-3.16a1.47,1.47,0,0,1-.26-.5c0-.1-.09-.23-.16-.38a.19.19,0,0,1,0-.18.18.18,0,0,1,.16-.1l.52-.05c.34,0,.64-.06.94-.06h9.55c3.15,0,6.3,0,9.45,0h0c1.25,0,1.72.41,1.93,1.62,2.48,14.17,4.59,26.07,6.82,38.11a39.32,39.32,0,0,0,1.44,5.06c.26.78.52,1.57.76,2.36a.19.19,0,0,1,0,.18.21.21,0,0,1-.16.08H149.7a.21.21,0,0,1-.17-.08.19.19,0,0,1,0-.19c.15-.42.34-.85.54-1.27a6.92,6.92,0,0,0,.83-2.73,41.5,41.5,0,0,0-.72-6.18l-.27-1.63a1.15,1.15,0,0,0-.73-.42l-9.85,0q-5,0-10,0a2,2,0,0,0-1.2.74c-1.34,1.69-2.7,3.5-4.16,5.52-1.24,1.72-2.26,3.63-1.32,6a.19.19,0,0,1,0,.19.21.21,0,0,1-.17.08Zm39.45-20.87-2.78-14.92-.14,0-10.77,15Z" fill="#fff"/><path d="M162.33,45.81c1.13,0,1.5.35,1.69,1.44,2.23,12.71,4.47,25.42,6.82,38.11a71,71,0,0,0,2.21,7.45H149.7c.48-1.35,1.4-2.72,1.38-4.07a56.58,56.58,0,0,0-1-7.84c0-.24-.6-.59-.93-.59l-9.85,0q-5,0-10,0a2.16,2.16,0,0,0-1.36.82c-1.43,1.8-2.82,3.65-4.17,5.52s-2.3,3.77-1.34,6.18H109.06a1.65,1.65,0,0,1,.23-.48c5.21-4.8,9-10.62,13.23-16.18,6.51-8.66,12.93-17.37,19.47-26,.92-1.22,1.28-2.19.24-3.41a4.42,4.42,0,0,1-.39-.83c.56,0,1-.11,1.45-.11h9.47c3.18,0,6.36,0,9.53,0h0m-27.9,26.56h14.32L145.9,57.09l-.39-.11L134.43,72.37m27.9-27h0c-3.4,0-6.72,0-9.53,0h-9.47c-.32,0-.63,0-1,.06l-.52,0a.41.41,0,0,0-.33.57c.06.14.11.26.15.37a2,2,0,0,0,.29.55c.78.92.72,1.62-.25,2.91-3.78,5-7.57,10.07-11.25,15q-4.09,5.5-8.22,11c-.84,1.13-1.67,2.26-2.5,3.4-3.22,4.39-6.55,8.93-10.68,12.73a1,1,0,0,0-.26.46l-.06.15a.41.41,0,0,0,0,.39.4.4,0,0,0,.34.19h13.36a.42.42,0,0,0,.34-.18.42.42,0,0,0,0-.38c-.86-2.14-.1-3.86,1.29-5.8s2.81-3.81,4.16-5.5a1.72,1.72,0,0,1,1-.66c3.19,0,6.46,0,10,0,3.28,0,6.57,0,9.85,0a1.08,1.08,0,0,1,.54.28c.08.53.17,1.06.26,1.6a41,41,0,0,1,.72,6.14,6.56,6.56,0,0,1-.81,2.64,12.35,12.35,0,0,0-.55,1.3.36.36,0,0,0,.05.36.39.39,0,0,0,.33.18h23.35a.43.43,0,0,0,.32-.17.37.37,0,0,0,.06-.35c-.24-.8-.5-1.6-.76-2.38a37.32,37.32,0,0,1-1.43-5c-2.24-12-4.34-23.94-6.82-38.11a1.81,1.81,0,0,0-2.09-1.78ZM135.21,72l5.63-7.81,4.74-6.58L148.27,72Z" fill="#fff"/><path d="M79.27,39.9a.21.21,0,0,1-.18-.12.22.22,0,0,1,0-.22c2-2.35,1.46-4.73.9-7.25-.11-.5-.22-1-.31-1.49a1,1,0,0,0-.65-.46c-2.43,0-4.85,0-7.28,0s-4.73,0-7.1,0a1.51,1.51,0,0,0-.93.57c-.77,1-1.51,2-2.23,3l-.7,1a5.09,5.09,0,0,0-1.1,4.67.17.17,0,0,1,0,.17.18.18,0,0,1-.16.09H49.77a.19.19,0,0,1-.17-.1.2.2,0,0,1,0-.2,1,1,0,0,0,.07-.15,1,1,0,0,1,.17-.28,61.93,61.93,0,0,0,7.31-9L60,26.23C64.51,19.9,69.2,13.35,73.87,7c.66-.92.7-1.46.13-2.16a1.45,1.45,0,0,1-.22-.45c0-.08-.07-.18-.12-.29a.23.23,0,0,1,0-.18.25.25,0,0,1,.16-.1l.35,0a4.83,4.83,0,0,1,.63,0h6.88c2.39,0,4.78,0,7.18,0a1.22,1.22,0,0,1,1.43,1.2q2.11,12.48,4.28,25c.35,2,.78,4.36,1.35,6.73a10.83,10.83,0,0,0,.78,2.06c.15.33.29.66.43,1a.19.19,0,0,1,0,.19.2.2,0,0,1-.16.09Zm-.6-16-2-11.34L68.75,23.92Z" fill="#fff"/><path d="M88.9,3.86c.79,0,1.07.27,1.2,1q2.12,12.5,4.28,25c.4,2.26.82,4.52,1.35,6.75A22.2,22.2,0,0,0,97,39.69H79.27c2.48-2.91,1.18-5.93.64-8.91a1.15,1.15,0,0,0-.85-.63c-2.43,0-4.85,0-7.28,0s-4.73,0-7.1,0a1.61,1.61,0,0,0-1.08.65c-1,1.31-2,2.68-3,4a5.23,5.23,0,0,0-1.12,4.83H49.77a1.87,1.87,0,0,1,.2-.38,67.77,67.77,0,0,0,8-9.91Q66,18.2,74,7.06c.63-.87.82-1.55.13-2.4A3.08,3.08,0,0,1,73.85,4c.37,0,.67-.09,1-.09h6.9c2.39,0,4.77,0,7.16,0h0M68.37,24.12H78.91c-.71-4-1.42-7.86-2.17-12L68.37,24.12M88.9,3.45h0c-2.38,0-4.77,0-7.15,0h-6.9a5,5,0,0,0-.66,0l-.34,0a.44.44,0,0,0-.31.2.38.38,0,0,0,0,.36l.11.28a1.54,1.54,0,0,0,.26.51c.5.62.47,1.06-.15,1.91-4.66,6.41-9.37,13-13.91,19.3l-2.16,3-.65.91a63.3,63.3,0,0,1-7.28,9,1,1,0,0,0-.22.35l-.07.14a.41.41,0,0,0,0,.39.43.43,0,0,0,.35.2h9.76a.4.4,0,0,0,.33-.17.43.43,0,0,0,.06-.35A4.86,4.86,0,0,1,61,35.07l.7-1c.72-1,1.47-2.05,2.23-3.05a1.34,1.34,0,0,1,.77-.49l7.1,0q3.64,0,7.27,0a.8.8,0,0,1,.46.32c.09.47.2,1,.31,1.47.56,2.47,1.08,4.81-.85,7.08a.4.4,0,0,0-.06.43.39.39,0,0,0,.36.24H97a.4.4,0,0,0,.33-.18.4.4,0,0,0,0-.38c-.14-.34-.29-.67-.44-1a11.73,11.73,0,0,1-.77-2c-.56-2.38-1-4.73-1.34-6.73-1.4-8-2.83-16.41-4.28-25a1.41,1.41,0,0,0-1.6-1.37ZM69.14,23.72,76.51,13.1,78,21.38l.42,2.34Z" fill="#fff"/><path d="M177.52,40q-6,0-12.08,0H147.2a.19.19,0,0,1-.17-.1.19.19,0,0,1,0-.19c2.1-4.06,3-8.45,4-12.68.4-1.84.81-3.75,1.31-5.59,1.16-4.26,2.09-8.5,3.1-13.19a16.35,16.35,0,0,0,.24-2.85c0-.47,0-.94,0-1.41a.19.19,0,0,1,.2-.19h30.77a.2.2,0,0,1,.15.06.22.22,0,0,1,.06.15l-.49,6.78a.19.19,0,0,1-.08.15.24.24,0,0,1-.12,0h-.05l-.63-.18a6.18,6.18,0,0,0-1.09-.27l-.72-.1a27.28,27.28,0,0,0-3.37-.34l-3.89,0H173l-2.87,0h0c-.74,0-1,.19-1.12.82-.34,1.51-.71,3-1.09,4.51l-.51,2.08c0,.14,0,.29-.08.49l0,.15c.75,0,1.5,0,2.25,0L172,18l2.47,0a33.51,33.51,0,0,0,8.61-.91h0a.2.2,0,0,1,.14.05.19.19,0,0,1,.06.2l-1.86,7.72a.19.19,0,0,1-.1.13.17.17,0,0,1-.1,0h-.06a25.42,25.42,0,0,0-7.51-.92c-.88,0-1.76,0-2.63,0s-1.75,0-2.63,0c-.63,0-1.25,0-1.88,0h-.36c-.32,0-.51.07-.6.45-.5,2.13-1,4.26-1.56,6.47l-.57,2.34c.88,0,1.84-.07,2.91-.07s2.08,0,3.11,0,2.06,0,3.08,0a36.55,36.55,0,0,0,8.69-.86h.05a.2.2,0,0,1,.14.06.21.21,0,0,1,.05.2c0,.11-.05.22-.07.31a3.74,3.74,0,0,1-.16.56c-.23.56-.46,1.12-.7,1.67-.44,1.06-.9,2.14-1.31,3.23A1.58,1.58,0,0,1,177.54,40Z" fill="#fff"/><path d="M186.67,4c-.16,2.26-.31,4.45-.48,6.77a14.51,14.51,0,0,0-1.74-.45,36,36,0,0,0-4.12-.44l-3.87,0H173l-2.86,0h0c-.73,0-1.1.21-1.27,1-.5,2.21-1.07,4.4-1.6,6.59-.06.23-.08.48-.14.9.83,0,1.65-.05,2.47-.05,1.65,0,3.3.05,4.95.05a33.41,33.41,0,0,0,8.66-.91l-1.86,7.73a25.51,25.51,0,0,0-7.57-.93c-1.76,0-3.51.08-5.26.08-.62,0-1.25,0-1.87,0h-.37a.69.69,0,0,0-.79.6c-.7,2.95-1.43,5.9-2.2,9.07,1.06-.06,2.12-.08,3.17-.08,2.07,0,4.13.08,6.19.08a36,36,0,0,0,8.74-.87,6.69,6.69,0,0,1-.23.85c-.66,1.64-1.39,3.25-2,4.91a1.38,1.38,0,0,1-1.53,1h0q-6,0-12.05,0H147.2c3-5.86,3.65-12.24,5.31-18.31,1.18-4.36,2.15-8.78,3.09-13.2A29.58,29.58,0,0,0,155.9,4h30.77m0-.4H155.9a.39.39,0,0,0-.4.38c0,.47,0,.95-.06,1.41a15,15,0,0,1-.23,2.81c-1,4.7-1.93,8.93-3.09,13.19-.51,1.85-.92,3.75-1.32,5.59-.92,4.23-1.87,8.6-4,12.63a.43.43,0,0,0,0,.4.42.42,0,0,0,.35.19h18.27q6,0,12.05,0a1.78,1.78,0,0,0,1.93-1.3c.4-1.08.86-2.17,1.31-3.22.23-.56.47-1.11.7-1.67a3,3,0,0,0,.16-.59c0-.1,0-.2.08-.31a.43.43,0,0,0-.11-.39.36.36,0,0,0-.28-.12h-.1a36.11,36.11,0,0,1-8.64.86c-1,0-2,0-3.08,0s-2.07,0-3.11,0-1.84,0-2.65.05l.5-2.05c.54-2.22,1.06-4.36,1.57-6.49.06-.27.14-.3.4-.3h.35c.58,0,1.2,0,1.89,0,.88,0,1.75,0,2.63,0s1.75,0,2.63,0a25.4,25.4,0,0,1,7.46.91l.11,0a.36.36,0,0,0,.2-.06.39.39,0,0,0,.2-.25L183.16,19l.37-1.52a.42.42,0,0,0-.11-.38.44.44,0,0,0-.29-.11H183a32.89,32.89,0,0,1-8.56.9l-2.47,0c-.82,0-1.65,0-2.48,0s-1.39,0-2,0a2.9,2.9,0,0,1,.07-.38l.51-2.08c.37-1.48.75-3,1.09-4.52.12-.53.28-.66.88-.66,1,0,1.95,0,2.9,0h3.5l3.86,0a27,27,0,0,1,3.35.34l.72.09a7.29,7.29,0,0,1,1.07.27l.63.18.1,0a.41.41,0,0,0,.24-.08.39.39,0,0,0,.16-.3l.23-3.19L187.08,4a.41.41,0,0,0-.11-.3.38.38,0,0,0-.3-.13Z" fill="#fff"/><path d="M64,93.12a1.27,1.27,0,0,1-.35-.07L63.39,93a.24.24,0,0,1-.14-.12.22.22,0,0,1,0-.18l.42-.68a5.57,5.57,0,0,0,.73-1.35L65,88.8c.88-2.59,1.79-5.26,2.49-7.94C70.11,71,72.34,62,74.36,53.54a36.24,36.24,0,0,0,.7-5.13c.07-.83.14-1.66.24-2.5a.2.2,0,0,1,.2-.18h41.79a.2.2,0,0,1,.15.06.17.17,0,0,1,0,.15l-.67,8.85a.21.21,0,0,1-.09.15.15.15,0,0,1-.11,0h-.06a41.43,41.43,0,0,0-10.92-1.19c-1.31,0-2.61,0-3.92,0s-2.6.05-3.9.05-2.2,0-3.16-.06h-.2c-.84,0-1.17.28-1.36,1.14-.52,2.29-1.11,4.56-1.73,6.95l-.67,2.61c1,0,2.06-.06,3.27-.06s2.28,0,3.42,0,2.27,0,3.4,0a44.76,44.76,0,0,0,11.63-1.23h0a.2.2,0,0,1,.15.06.19.19,0,0,1,0,.19L110.12,73.7a.24.24,0,0,1-.09.13l-.1,0h-.06a36.25,36.25,0,0,0-10.25-1.19c-1.12,0-2.24,0-3.36,0s-2.24,0-3.36,0-2.06,0-3-.06h-.18c-.87,0-1.21.3-1.43,1.24-.48,2.06-1,4.15-1.54,6.17-.26,1-.52,2-.77,3-.11.4-.19.81-.28,1.3l-.12.56c1.28-.07,2.63-.1,4.23-.1,1.39,0,2.78,0,4.17,0s2.75,0,4.13,0a50.57,50.57,0,0,0,11.75-1.13h0a.2.2,0,0,1,.14.06.19.19,0,0,1,.05.19c0,.14-.06.27-.09.39a3.16,3.16,0,0,1-.18.63l-.56,1.34c-.78,1.84-1.58,3.76-2.45,5.61a2,2,0,0,1-1.49,1q-11.68,0-23.38,0Z" fill="#fff"/><path d="M117.29,45.93c-.23,3-.45,5.87-.67,8.85a41.19,41.19,0,0,0-11-1.21c-2.61,0-5.22.11-7.82.11-1,0-2.1,0-3.15-.07h-.21A1.37,1.37,0,0,0,92.9,54.9c-.72,3.2-1.59,6.38-2.46,9.82,1.18,0,2.36-.07,3.53-.07,2.28,0,4.55.06,6.82.06a44.82,44.82,0,0,0,11.68-1.23c-.88,3.52-1.7,6.78-2.54,10.17a36.3,36.3,0,0,0-10.31-1.2c-2.24,0-4.49.08-6.73.08-1,0-2,0-2.93-.06h-.19c-1,0-1.4.43-1.63,1.4-.71,3.08-1.54,6.13-2.31,9.2-.16.62-.26,1.24-.45,2.13,1.5-.09,3-.11,4.48-.11,2.77,0,5.54.09,8.3.09A50.23,50.23,0,0,0,110,84a10,10,0,0,1-.26,1c-1,2.32-1.94,4.65-3,6.93a1.84,1.84,0,0,1-1.31.92q-11.7,0-23.38,0H64a3.26,3.26,0,0,1-.58-.12,13,13,0,0,0,1.16-2.06c1.09-3.26,2.26-6.5,3.12-9.82q3.56-13.64,6.83-27.32a66,66,0,0,0,1-7.66h41.79m0-.4H75.5a.39.39,0,0,0-.4.35c-.1.85-.17,1.7-.24,2.51a36.16,36.16,0,0,1-.7,5.11c-2,8.47-4.25,17.4-6.83,27.31-.69,2.67-1.6,5.34-2.48,7.93l-.63,1.86a6,6,0,0,1-.71,1.3c-.14.23-.29.45-.42.69a.4.4,0,0,0,.26.59l.27.07a1.46,1.46,0,0,0,.4.07H82c9.15,0,16.58,0,23.38,0a2.21,2.21,0,0,0,1.67-1.15c.87-1.85,1.67-3.76,2.45-5.61l.57-1.34a4.07,4.07,0,0,0,.19-.67,3.42,3.42,0,0,1,.09-.38.44.44,0,0,0-.11-.39.41.41,0,0,0-.28-.11h-.1a50.61,50.61,0,0,1-11.7,1.12c-1.38,0-2.78,0-4.13,0s-2.78,0-4.17,0-2.77,0-4,.09l.06-.32c.1-.47.18-.89.28-1.28l.78-3c.52-2,1.06-4.11,1.54-6.18.19-.85.46-1.08,1.23-1.08h.17c.89,0,1.86.06,3,.06s2.25,0,3.37,0,2.24,0,3.36,0A35.81,35.81,0,0,1,109.81,74h.12a.37.37,0,0,0,.2,0,.44.44,0,0,0,.19-.25l1.33-5.33,1.21-4.85a.38.38,0,0,0-.1-.38.4.4,0,0,0-.29-.12l-.1,0a44.4,44.4,0,0,1-11.58,1.22l-3.4,0q-1.69,0-3.42,0c-1.1,0-2.09,0-3,0L91.57,62c.62-2.4,1.21-4.66,1.72-7,.2-.84.5-1,1.17-1h.19c1,0,2,.06,3.17.06s2.63,0,3.91,0,2.6-.05,3.91-.05a41,41,0,0,1,10.87,1.19h.11a.48.48,0,0,0,.23-.07.4.4,0,0,0,.17-.3l.23-3.05.44-5.8a.41.41,0,0,0-.1-.3.39.39,0,0,0-.3-.13Z" fill="#fff"/><path d="M43.57,40h-11l-10.78,0a10.85,10.85,0,0,1-2.36-.29,5.29,5.29,0,0,1-4.29-4.84A21.3,21.3,0,0,1,16,27.42c.45-1.83.89-3.67,1.33-5.5.67-2.77,1.34-5.54,2-8.3a20.54,20.54,0,0,1,1.18-3.32C22.47,6,25.8,3.73,30.45,3.7c3.21,0,6.41,0,9.62,0H51.65a4.53,4.53,0,0,1,.46,0l.34,0a.22.22,0,0,1,.19.22l-.51,6.65a.21.21,0,0,1-.09.15.15.15,0,0,1-.11,0h-.06A28.47,28.47,0,0,0,44.39,10c-1.06,0-2.11,0-3.17.06s-2.11.05-3.16.05c-.53,0-1.06,0-1.59,0H36.3c-1.4,0-2.13.61-2.51,2.13q-1.51,6.09-3,12.19L29.93,28c-.3,1.26-.62,2.56-.88,3.85a1.57,1.57,0,0,0,.17,1.3,1.21,1.21,0,0,0,1,.37l3.12.06c1.37,0,2.74.07,4.11.07a42.51,42.51,0,0,0,7.39-.53,8.64,8.64,0,0,0,1.44-.43c.25-.08.51-.18.79-.26h.06a.19.19,0,0,1,.14,0,.22.22,0,0,1,.06.19c0,.11,0,.21-.07.31a3.53,3.53,0,0,1-.14.54l-.8,2c-.47,1.18-.94,2.35-1.39,3.54a1.26,1.26,0,0,1-1.34.94Z" fill="#fff"/><path d="M40,3.87H51.65c.2,0,.41,0,.78.07-.17,2.25-.33,4.45-.5,6.66a28.16,28.16,0,0,0-7.54-.85c-2.11,0-4.22.11-6.32.11-.53,0-1.06,0-1.59,0h-.17c-1.52,0-2.32.71-2.71,2.29-1.28,5.11-2.51,10.23-3.75,15.34-.35,1.44-.7,2.88-1,4.34-.24,1.18.18,1.9,1.35,1.91,2.41,0,4.82.13,7.23.13a44.15,44.15,0,0,0,7.43-.53,20.88,20.88,0,0,0,2.25-.7,7.06,7.06,0,0,1-.2.82c-.73,1.84-1.49,3.67-2.19,5.52a1.06,1.06,0,0,1-1.15.81h0l-21.83,0a10.67,10.67,0,0,1-2.32-.28,5.08,5.08,0,0,1-4.13-4.67,20.65,20.65,0,0,1,.91-7.32c1.12-4.6,2.21-9.21,3.36-13.8a20.41,20.41,0,0,1,1.16-3.29A10.05,10.05,0,0,1,30.45,3.9l9.59,0m0-.4c-3.77,0-6.82,0-9.59,0-4.73,0-8.13,2.29-10.1,6.72a20.81,20.81,0,0,0-1.18,3.35c-.7,2.77-1.38,5.58-2,8.3q-.66,2.76-1.34,5.5a21.46,21.46,0,0,0-.91,7.47,5.47,5.47,0,0,0,4.44,5,11.28,11.28,0,0,0,2.41.29l10.74,0c3.7,0,7.39,0,11.09,0A1.46,1.46,0,0,0,45.1,39.1c.45-1.18.94-2.38,1.4-3.54.27-.66.53-1.31.79-2a2.94,2.94,0,0,0,.16-.58c0-.09,0-.19.06-.3a.41.41,0,0,0-.12-.39.39.39,0,0,0-.27-.11l-.12,0-.8.28a9,9,0,0,1-1.4.41,42.14,42.14,0,0,1-7.36.53c-1.36,0-2.75,0-4.1-.07l-3.13-.06a1,1,0,0,1-.83-.3,1.42,1.42,0,0,1-.13-1.13c.26-1.29.57-2.59.88-3.85l.11-.47L31,24.41c1-4,2-8.13,3-12.18.36-1.43,1-2,2.32-2h.16c.53,0,1.06,0,1.6,0,1,0,2.12,0,3.16,0s2.11-.06,3.16-.06a28.11,28.11,0,0,1,7.43.84h.11a.39.39,0,0,0,.23-.07.4.4,0,0,0,.17-.3l.07-1L52.84,4a.41.41,0,0,0-.37-.43l-.34,0a3,3,0,0,0-.48,0H40Z" fill="#fff"/><path d="M180.32,93a.21.21,0,0,1-.17-.08.19.19,0,0,1,0-.19c.28-.7.58-1.39.88-2.09a33.1,33.1,0,0,0,1.73-4.56c1.43-5.29,2.79-10.69,4.1-15.91l1.47-5.83C188.92,62,191,53.83,191,53.83h-4.74c-1,0-2,0-3.07,0h-.46a20,20,0,0,0-7.15,1.49h-.07a.2.2,0,0,1-.15-.06.22.22,0,0,1,0-.22c.3-.74.61-1.47.91-2.21.73-1.75,1.48-3.56,2.13-5.37a2.45,2.45,0,0,1,2.74-1.86q11.84,0,23.61,0h21a.2.2,0,0,1,.15.06.18.18,0,0,1,.05.16L225,55.42a.2.2,0,0,1-.12.16l-.08,0a.2.2,0,0,1-.11,0,13,13,0,0,0-7.32-1.79c-.75,0-1.5,0-2.24,0s-1.5.05-2.25.05-1.31,0-1.88-.07h-.18c-.75,0-.89.44-1.07,1.15l-3.4,13.54L202.9,82.13l-.24.94a42.42,42.42,0,0,0-.94,4.34,37,37,0,0,0-.27,3.72c0,.57,0,1.14-.08,1.72a.19.19,0,0,1-.2.19Z" fill="#fff"/><path d="M181.07,45.79h0c7.89,0,15.78,0,23.67,0h20.88c-.3,3.22-.59,6.29-.89,9.57a13.12,13.12,0,0,0-7.43-1.82c-1.5,0-3,.1-4.49.1-.62,0-1.24,0-1.86-.07h-.2c-.91,0-1.09.58-1.27,1.3C207.26,64,205,73,202.71,82.08a54,54,0,0,0-1.19,5.3c-.25,1.77-.24,3.57-.35,5.46H180.32a64,64,0,0,0,2.62-6.67c1.95-7.22,3.73-14.49,5.56-21.74.89-3.5,1.77-7,2.73-10.8l-5,0c-1,0-2,0-3.06,0h-.47a20.25,20.25,0,0,0-7.22,1.51c1-2.53,2.11-5,3-7.59a2.27,2.27,0,0,1,2.55-1.73m0-.4a2.66,2.66,0,0,0-2.93,2c-.65,1.8-1.4,3.61-2.12,5.36-.31.74-.61,1.48-.91,2.22a.38.38,0,0,0,.08.43.4.4,0,0,0,.29.12l.14,0A19.65,19.65,0,0,1,182.7,54h.46c.9,0,1.88,0,3.07,0h4.48l-.78,3.09c-.62,2.47-1.21,4.84-1.82,7.21l-1.47,5.84c-1.31,5.22-2.66,10.61-4.09,15.89a34.12,34.12,0,0,1-1.72,4.54c-.3.68-.61,1.39-.89,2.09a.42.42,0,0,0,0,.38.42.42,0,0,0,.34.18h20.85a.4.4,0,0,0,.4-.38c0-.59.06-1.17.08-1.74a36.37,36.37,0,0,1,.27-3.69,42,42,0,0,1,.94-4.32l.24-.94q1.69-6.8,3.41-13.59T209.91,55c.2-.79.33-1,.88-1H211c.57,0,1.19.06,1.89.06s1.52,0,2.25,0,1.5-.05,2.24-.05a12.66,12.66,0,0,1,7.21,1.76.4.4,0,0,0,.22.06.33.33,0,0,0,.17,0,.41.41,0,0,0,.23-.32l.42-4.52.47-5.05a.4.4,0,0,0-.4-.44H204.78c-6.53,0-15.12,0-23.67,0Z" fill="#fff"/><path d="M132.78,49.43a.21.21,0,0,1-.16-.08.23.23,0,0,1,0-.18l3.49-12.85a46.82,46.82,0,0,1-14.73,2.52c-6.91,0-13.35-1.91-17.29-5.11l-2.93,1.35-.08,0a.24.24,0,0,1-.16-.07l-2.46-2.84a.2.2,0,0,1,0-.18.21.21,0,0,1,.12-.14l2.88-1.28,0-.05c-1.46-3-1.91-8.78.57-14.39,2-4.45,6.51-10.39,17-13.44A43.8,43.8,0,0,1,131,.88c10.68,0,16.29,4.79,16.34,4.84a.21.21,0,0,1,0,.26.2.2,0,0,1-.17.09h-.07a26.88,26.88,0,0,0-9.68-1.81c-10.55,0-19.17,6.2-21.4,12.19a14,14,0,0,0-.52,7.85L127.36,19l-1.77-3a.19.19,0,0,1,0-.18.23.23,0,0,1,.15-.12l3.84-.66a.21.21,0,0,1,.18.11l5.68,10.91a.17.17,0,0,1,0,.17.18.18,0,0,1-.13.11l-3,.83h-.05a.19.19,0,0,1-.18-.1l-2.89-4.9L116.8,27.88c1.6,3.18,4.13,5.45,6.37,5.67a6.25,6.25,0,0,0,.64,0c5.16,0,19.27-4.51,19.41-4.56h.06a.2.2,0,0,1,.14.06.21.21,0,0,1,.05.2l-5.43,20a.23.23,0,0,1-.2.15Z" fill="#fff"/><path d="M131,1.08c10.73,0,16.21,4.79,16.21,4.79a27,27,0,0,0-9.75-1.82c-10.36,0-19.23,6-21.59,12.32a14.06,14.06,0,0,0-.47,8.2l12.26-5.45-1.89-3.2,3.81-.66,5.68,10.91-3,.82-3-5.06-12.77,5.86c1.63,3.36,4.28,5.73,6.62,6q.3,0,.66,0c5.25,0,19.47-4.56,19.47-4.56l-5.44,20h-5.06L136.36,36a46.64,46.64,0,0,1-15,2.63c-7.84,0-13.87-2.34-17.26-5.14l-3,1.4-2.47-2.84,3.08-1.38-.12-.23C98.81,24.89,99.41,8.6,119,2.91a42.85,42.85,0,0,1,12-1.83m0-.4a43.86,43.86,0,0,0-12.16,1.84c-10.53,3.07-15.11,9.06-17.09,13.55-2.47,5.58-2.07,11.34-.64,14.42l-2.7,1.2a.41.41,0,0,0-.23.28.45.45,0,0,0,.09.35l2.47,2.84a.41.41,0,0,0,.31.14.38.38,0,0,0,.17,0L104,34c4,3.18,10.42,5.07,17.31,5.07a46.83,46.83,0,0,0,14.44-2.41l-3.39,12.49a.41.41,0,0,0,.39.51h5.06a.41.41,0,0,0,.39-.3l5.44-20a.4.4,0,0,0-.39-.51l-.12,0c-.15.05-14.22,4.55-19.35,4.55a5.72,5.72,0,0,1-.62,0c-2.13-.21-4.55-2.35-6.11-5.37l12.06-5.53,2.8,4.75a.42.42,0,0,0,.35.2l.1,0,3-.82a.45.45,0,0,0,.26-.23.43.43,0,0,0,0-.35l-5.68-10.91a.41.41,0,0,0-.36-.21h-.07l-3.81.67a.37.37,0,0,0-.29.22.4.4,0,0,0,0,.38l1.65,2.8L115.68,24a13.69,13.69,0,0,1,.56-7.49c2.81-7.55,13-12.06,21.21-12.06a26.66,26.66,0,0,1,9.6,1.8.43.43,0,0,0,.49-.17.4.4,0,0,0-.08-.51c-.23-.2-5.72-4.89-16.47-4.89Z" fill="#fff"/></svg>