<svg xmlns="http://www.w3.org/2000/svg" width="400" height="93" viewBox="0 0 400 93"><path d="M73.14,46.07c-3.8,0-7.76-1.8-7.76-6.09a20.42,20.42,0,0,1,1-5.18L70,21.27a4.11,4.11,0,0,0,.16-1.14c0-1.59-1.15-2.29-2.74-2.29a8.61,8.61,0,0,0-4,1.8l-2.7,11.15a5,5,0,0,0-.24,1.31c0,1,1.55,1,2.24,1.14L62.23,35H51.94l.41-1.72c2-.28,2.61-.12,3.1-2.16L60.72,10A3.61,3.61,0,0,0,60.84,9c0-.86-.45-1.27-1.06-1.27-.9,0-1.84.12-2.9.12a44.24,44.24,0,0,1-5.51-.33L45.93,28.75a13.8,13.8,0,0,0-.49,2.86c0,1.22,1.76,1.39,3.15,1.39l-.49,2H34.57L35,33c1.68,0,3.93-.74,4.82-4.21L45.56,6.48c-4.82-1.26-8-2.9-11.27-2.9s-6.42,2.21-6.42,5.68c0,1.84,1.35,4.05,3.35,4.05a3.14,3.14,0,0,0,2.46-1.23,3.52,3.52,0,0,1,2.86-1.39,2.55,2.55,0,0,1,2.65,2.41c0,2-1.76,4-5.47,4C29,17.15,25,14,25,9c0-6.3,6.13-9,12.34-9,5,0,20.23,4.69,23.94,4.69a9.27,9.27,0,0,0,5.56-1.63h.82L64.19,16.57a9.57,9.57,0,0,1,5.93-2.08c2.86,0,5.23,1.51,5.23,4.58a6.15,6.15,0,0,1-.21,1.67L71.47,35.2a23.28,23.28,0,0,0-.94,5.56c0,1.47.49,3.06,2.29,3.06,2.73,0,1.59-5.06,5.35-5.06A2.25,2.25,0,0,1,80.58,41C80.58,44.68,76.12,46.07,73.14,46.07Z" fill="#fff"/><path d="M97.41,24.13H83.07a11.81,11.81,0,0,0-.49,2.78c-.17,3.92,2,5.76,4.45,5.76s5.43-2.41,6.7-4.49l2.62,1.06a12.49,12.49,0,0,1-10.71,6.17c-5.43,0-9.11-3.43-9-8.3A13.39,13.39,0,0,1,89.81,14.45c6.41,0,8.42,4.25,8.25,8.13C98,23.48,97.82,24.13,97.41,24.13ZM89.69,17c-2.17,0-4.13,2-5.44,4.41h7.6c.41,0,.82-.49.86-1.06C92.79,18.09,91.53,17,89.69,17Z" fill="#fff"/><path d="M46,71.2C42.69,79.49,35.67,84,26.8,84H10.7l.49-1.83c2.33-.13,3.93-1,4.54-3.44L21,57.8a3.29,3.29,0,0,0,.08-.62c0-2.9-5-2.94-6.86-2.94H12.62c-5.23,0-9.27,2.78-9.27,8.34,0,2.28,1.47,5.27,4.17,5.27,2.16,0,2.08-1.84,2.29-3.44.24-1.87,1.51-4,3.79-4a2.75,2.75,0,0,1,2.54,2.94c0,3.88-3.72,7.19-8,7.19C3.39,70.58,0,67.36,0,62.7c0-6.87,5.19-11.28,12.26-11.28,5.23,0,9.23.7,14.5.7H34c7.48,0,13.48,3.14,13.48,11.35A21.66,21.66,0,0,1,46,71.2ZM32.28,55.1c-4.62,0-4.66.65-5.72,4.9l-4,15.94a14,14,0,0,0-.61,3.18c0,2,2.74,1.92,4.13,1.92,4.12,0,7.55-.86,10.25-4.25S41,66.29,41,61.92C41,55.92,37.38,55.1,32.28,55.1Z" fill="#fff"/><path d="M58.3,63.88l-4,15.94a6.23,6.23,0,0,0-.25,1.3c0,1,1.55,1,2.29,1.15L55.85,84H45.55L46,82.27c2-.29,2.62-.08,3.11-2.17l2.33-9.31a3.79,3.79,0,0,0,.12-.94c0-1.35-1.19-1.35-2.21-1.31l.41-1.67a23.44,23.44,0,0,0,3.35-1.11,17.71,17.71,0,0,0,3.43-1.88Zm-1.39-4.2c-1.92,0-3.51-1.27-3.51-2.82S55,54,56.91,54s3.51,1.26,3.51,2.82S58.87,59.68,56.91,59.68Z" fill="#fff"/><path d="M76.73,68.75c-1.72,0-2.17-1-4.09-1S69.78,69,69,72.3l-1.88,7.44a7.85,7.85,0,0,0-.24,1.3c0,.74.57.9,2.29,1.19L68.68,84H58.34l.41-1.71c2-.29,2.61-.12,3.1-2.17l2.37-9.31a7.58,7.58,0,0,0,.13-.94c0-1.15-.86-1.31-1.76-1.31H62.1l.41-1.67a22.27,22.27,0,0,0,3.35-1.11,16.87,16.87,0,0,0,3.43-1.88h1.88l-.53,2c1.43-1.22,3.63-2.73,6-2.73a2.7,2.7,0,0,1,2.86,2.78A2.75,2.75,0,0,1,76.73,68.75Z" fill="#fff"/><path d="M110.88,93c-6.74,0-15.57-4-20.14-13.72L88.9,75.36,86.24,77.2l-.73,3a3.77,3.77,0,0,0-.08.62c0,1,.81,1.31,2.16,1.51L87.18,84H76.93l.45-1.71c1.88-.16,2.7-.61,3.14-2.45L85.67,59a3.3,3.3,0,0,0,.12-.94c0-1.14-.81-1.31-1.71-1.31h-.49L84,55.06A19.54,19.54,0,0,0,87.35,54a19.19,19.19,0,0,0,3.43-1.88h1.8L87.22,73.32l5.28-3.88c1.22-.9,1.67-1.63,1.67-2.17,0-1.1-1.76-1.55-2.53-1.67L92,63.88h11.65l-.49,1.68c-1.84.16-2.7.33-4.9,2.29l-5.07,4.49c1.55,5.72,4.41,12,9.31,15.61A14.57,14.57,0,0,0,110.84,91a4.67,4.67,0,0,0,4.58-2.69c.77-1.35,1.3-2.7,3.1-2.7a1.79,1.79,0,0,1,1.88,1.84C120.4,90.32,117.34,93,110.88,93Z" fill="#fff"/><path d="M159.21,71.2C155.94,79.49,148.92,84,140.05,84H124l.49-1.83c2.33-.13,3.92-1,4.54-3.44l5.31-20.91a3.29,3.29,0,0,0,.08-.62c0-2.9-5-2.94-6.86-2.94h-1.64c-5.23,0-9.27,2.78-9.27,8.34,0,2.28,1.47,5.27,4.17,5.27,2.16,0,2.08-1.84,2.28-3.44.25-1.87,1.52-4,3.8-4a2.75,2.75,0,0,1,2.54,2.94c0,3.88-3.72,7.19-8,7.19-4.78,0-8.17-3.22-8.17-7.88,0-6.87,5.19-11.28,12.25-11.28,5.23,0,9.24.7,14.51.7h7.23c7.48,0,13.48,3.14,13.48,11.35A21.66,21.66,0,0,1,159.21,71.2ZM145.52,55.1c-4.61,0-4.65.65-5.72,4.9l-4,15.94a14,14,0,0,0-.61,3.18c0,2,2.73,1.92,4.12,1.92,4.13,0,7.56-.86,10.26-4.25s4.66-10.5,4.66-14.87C154.23,55.92,150.63,55.1,145.52,55.1Z" fill="#fff"/><path d="M171.55,63.88l-4,15.94a6.94,6.94,0,0,0-.24,1.3c0,1,1.55,1,2.29,1.15L169.1,84H158.8l.41-1.71c2-.29,2.61-.08,3.1-2.17l2.33-9.31a3.38,3.38,0,0,0,.13-.94c0-1.35-1.19-1.35-2.21-1.31l.41-1.67a23.44,23.44,0,0,0,3.35-1.11,17.71,17.71,0,0,0,3.43-1.88Zm-1.39-4.2c-1.92,0-3.51-1.27-3.51-2.82S168.24,54,170.16,54s3.51,1.26,3.51,2.82S172.12,59.68,170.16,59.68Z" fill="#fff"/><path d="M193.24,63.31c-1.31,0-1.39-1-2.57-1-.9,0-1.43.9-1.8,1.64a4.85,4.85,0,0,1,3.27,4.45c0,5.15-3.88,10.17-11.44,10.17-1.39,0-2.78-.2-2.78.74,0,1.35,2.9,1,5.88,1.18S191,81,191,85.17c0,4.7-6.74,7.07-12.42,7.07-4.16,0-7.76-1.31-7.76-3.92a4.73,4.73,0,0,1,2.49-3.93,3,3,0,0,1-1.51-2.69c0-2.33,2.62-3.68,4.33-4.42a6.08,6.08,0,0,1-1.43-4c0-4.82,3.8-10,10.83-10a8.06,8.06,0,0,1,2.12.25c1.31-2.25,2.78-4.74,5.28-4.74A2.33,2.33,0,0,1,195.53,61,2.15,2.15,0,0,1,193.24,63.31ZM176.86,85A2.4,2.4,0,0,0,175,87.17c0,1.64,1.39,2.45,4.94,2.45,2.74,0,6.34-.86,6.34-2.78S178.9,85,176.86,85Zm7.68-19.29c-3,0-5,4.09-5,7.76a2.51,2.51,0,0,0,2.32,2.74c3.19,0,5.36-4.08,5.36-7.76A2.47,2.47,0,0,0,184.54,65.72Z" fill="#fff"/><path d="M213.38,63.31c-1.3,0-1.39-1-2.57-1-.9,0-1.43.9-1.8,1.64a4.85,4.85,0,0,1,3.27,4.45c0,5.15-3.88,10.17-11.44,10.17-1.39,0-2.78-.2-2.78.74,0,1.35,2.9,1,5.89,1.18s7.19.45,7.19,4.66c0,4.7-6.74,7.07-12.42,7.07-4.17,0-7.77-1.31-7.77-3.92a4.72,4.72,0,0,1,2.5-3.93,3,3,0,0,1-1.52-2.69c0-2.33,2.62-3.68,4.33-4.42a6.08,6.08,0,0,1-1.43-4c0-4.82,3.8-10,10.83-10a8.19,8.19,0,0,1,2.13.25c1.3-2.25,2.77-4.74,5.27-4.74A2.33,2.33,0,0,1,215.67,61,2.15,2.15,0,0,1,213.38,63.31ZM197,85a2.4,2.4,0,0,0-1.88,2.16c0,1.64,1.39,2.45,4.94,2.45,2.74,0,6.34-.86,6.34-2.78S199,85,197,85Zm7.68-19.29c-3,0-5,4.09-5,7.76A2.51,2.51,0,0,0,202,76.22c3.18,0,5.35-4.08,5.35-7.76A2.47,2.47,0,0,0,204.68,65.72Z" fill="#fff"/><path d="M227.56,52.08l-6.95,27.74a6.94,6.94,0,0,0-.24,1.3c0,1,1.55,1,2.29,1.15L222.17,84h-10.3l.41-1.71c2-.29,2.61-.12,3.1-2.17L220.65,59a3.19,3.19,0,0,0,.13-.94c0-1.35-1.19-1.35-2.21-1.31l.41-1.67a20.43,20.43,0,0,0,3.35-1.1,18.85,18.85,0,0,0,3.43-1.88Z" fill="#fff"/><path d="M246.72,73.16H232.38a11.81,11.81,0,0,0-.49,2.78c-.16,3.92,2,5.76,4.45,5.76s5.44-2.41,6.7-4.5l2.62,1.06A12.46,12.46,0,0,1,235,84.43c-5.43,0-9.11-3.43-8.94-8.29a13.37,13.37,0,0,1,13.11-12.67c6.42,0,8.42,4.25,8.25,8.14C247.33,72.5,247.13,73.16,246.72,73.16ZM239,66c-2.17,0-4.13,2-5.44,4.41h7.6c.41,0,.82-.49.86-1.06C242.1,67.11,240.84,66,239,66Z" fill="#fff"/><path d="M265,68.75c-1.71,0-2.16-1-4.08-1S258,69,257.22,72.3l-1.88,7.44a8.09,8.09,0,0,0-.25,1.3c0,.74.58.9,2.29,1.19L256.93,84H246.6l.41-1.71c2-.29,2.61-.12,3.1-2.17l2.37-9.31a7.55,7.55,0,0,0,.12-.94c0-1.15-.86-1.31-1.75-1.31h-.49l.4-1.67a21.54,21.54,0,0,0,3.35-1.11,16.69,16.69,0,0,0,3.44-1.88h1.88l-.54,2c1.43-1.22,3.64-2.73,6.05-2.73a2.7,2.7,0,0,1,2.86,2.78A2.75,2.75,0,0,1,265,68.75Z" fill="#fff"/><path d="M305.18,61.3l-3,1c-1.92-3.39-5-7.56-10.37-7.56a4.83,4.83,0,0,0-5.07,4.58c0,3.55,3.06,6,6.5,8.45,4.33,3.11,9.23,6.25,9.23,11.81,0,7.56-6.58,13.16-15.36,13.16-7.72,0-13.93-4.58-13.93-10.83a7.92,7.92,0,0,1,8-8.25c3.31,0,5.32,1.83,5.32,3.84a2.62,2.62,0,0,1-2.7,2.77c-1.19,0-2.66-.77-4-.77a2.55,2.55,0,0,0-2.66,2.86c0,3.72,3.55,7.27,9.76,7.27s9.32-4,9.32-8.09-3.6-6.82-7.35-9.56c-4.05-3-8.22-6.09-8.22-11,0-6.21,4.87-9.23,9.81-9.23a17.67,17.67,0,0,1,8.21,2l.61-1.51h2.82Z" fill="#fff"/><path d="M320.33,64l-.65,2.54H315.1l-3.27,12.25a4.72,4.72,0,0,0-.16,1.23,1.46,1.46,0,0,0,1.55,1.67,3.5,3.5,0,0,0,2-.85l.65.81a7.28,7.28,0,0,1-5.43,3c-2.5,0-4.05-1.07-4.05-3.48a7.31,7.31,0,0,1,.25-1.8l3.35-13h-2.41l.53-2.25a9.49,9.49,0,0,0,4.53-2.57,13.23,13.23,0,0,0,3-4.21h1.67L316.21,62A4.18,4.18,0,0,0,316,63c0,.62.33,1,1.15,1Z" fill="#fff"/><path d="M327.32,84.5c-6.5,0-8.7-3.1-8.7-7.39A13.55,13.55,0,0,1,332,63.54c5,0,8.5,2.91,8.5,8.18C340.52,77.15,335.29,84.5,327.32,84.5Zm4.21-18.26c-4.46,0-7.56,6.58-7.56,12.34a3.16,3.16,0,0,0,3.43,3.51c5.27,0,7.89-7.23,7.89-11.89A3.65,3.65,0,0,0,331.53,66.24Z" fill="#fff"/><path d="M358,68.81c-1.71,0-2.16-1-4.08-1s-2.86,1.31-3.68,4.58L348.4,79.8a8.38,8.38,0,0,0-.25,1.31c0,.74.58.9,2.29,1.19L350,84.05H339.66l.41-1.71c2-.29,2.61-.12,3.1-2.17l2.37-9.31a7.8,7.8,0,0,0,.12-.94c0-1.15-.86-1.31-1.75-1.31h-.49l.4-1.67a21.54,21.54,0,0,0,3.35-1.11A16.69,16.69,0,0,0,350.61,64h1.88l-.54,2c1.43-1.22,3.64-2.73,6.05-2.73A2.7,2.7,0,0,1,360.86,66,2.75,2.75,0,0,1,358,68.81Z" fill="#fff"/><path d="M397.06,66.73c-1.92,0-2.45-1.43-3.52-2.65a4.62,4.62,0,0,0-3.88-1.64c-7.23,0-11.64,7.31-15.52,12.87s-8.91,16.26-15.53,16.26A3.43,3.43,0,0,1,355,88.38a2.54,2.54,0,0,1,2.37-2.65,2.25,2.25,0,0,1,2,1.14c.49.7.77,1.47,1.39,1.47,1.59,0,3.23-1.79,4.94-4.29l-3.06-15.81c-.45-2.37-1.68-2.41-2.54-2.57l.45-1.72h10.14l-.49,1.72A2.11,2.11,0,0,0,368.05,68a4.44,4.44,0,0,0,.08,1l1.56,8.7c.57-.94,1.18-1.88,1.75-2.74,3.76-5.55,9.19-15.48,20.8-15.48,5.8,0,7.76,2.2,7.76,4.25A3,3,0,0,1,397.06,66.73Z" fill="#fff"/></svg>