<svg xmlns="http://www.w3.org/2000/svg" width="190" height="138" viewBox="0 0 190 138"><path d="M106.53 23.59l-.3-.15a8.77 8.77 0 0 0-2.1-.62 5.18 5.18 0 0 0-.92-.1h-.83a.83.83 0 0 1-1-.56.81.81 0 0 1 .56-1 8.82 8.82 0 0 1 4.54.62v-.58c0-.66-.06-1.33-.11-2-.34 0-.68-.09-1-.11a27.13 27.13 0 0 0-5.17.27.82.82 0 0 1-.81-.81.84.84 0 0 1 .81-.82 25.46 25.46 0 0 1 6-.2 18.41 18.41 0 0 0-.48-2.23 18.31 18.31 0 0 0-2.57.06c-2.05.18-4.08.6-6.14.61a.81.81 0 0 1 0-1.62c2.18 0 4.34-.48 6.51-.64.53 0 1.07-.06 1.61-.05a2.44 2.44 0 0 0-.1-.24c-1.13-2.41-3.61-4.61-6.25-4.87a11.06 11.06 0 0 1-7.6-1.43c-1.89-1.12-3.8-2.88-5.91-2.31a6 6 0 0 0-2.84 2.32c-2.36 3-4.58 4.65-5.92 6.75s-1.5 4.55-.88 8.86c0 1.48.12 3 .23 4.42a59.41 59.41 0 0 0 .84 7.17 59 59 0 0 0 4.44 12.29c.47 1.06 1 2.13 1.51 3.14a11 11 0 0 1 5-2.12c.43-.06.81.42.81.81a.83.83 0 0 1-.81.81 9.41 9.41 0 0 0-4.14 1.88 12 12 0 0 0 1.34 1.68c1.69 1.73 4.22 2.85 6.56 2.22 3.35-.9 4.88-4.76 7.62-6.9 1.49-1.16 3.37-1.84 4.56-3.29a9.66 9.66 0 0 0 1.69-4.66 92.36 92.36 0 0 0 1.25-16.6zM94.71 38.78L87.2 28.23c-1.35-1.94-1.72-2.81-2.48-4.05.35 1.31.79 3.18 1 4.35l1.5 9.47 1.64-.26.32 2-6.59 1.06-.31-2 1.64-.27-2.36-14.75-1.65.27-.32-2L86.41 21l6.43 9c.74 1.14 1.71 2.81 2.52 4-.35-1.31-.84-3.17-1-4.24l-1.27-7.91-1.6.25-.32-2 6.54-1.05.32 2-1.65.27L99.07 38zM74.41 40.19a38.16 38.16 0 0 1-.49-10.34c.19-2.2 1.77-4.4.74-6.59s-4-2.33-3.85-4.58c.14-1.63.52-5.59.15-7.16s-2.08-1.31-3.29-1.47c-4.36-.4-9.23.39-12.07 3.72a17.22 17.22 0 0 1-1.6 1.84 15.15 15.15 0 0 1-1.6 1.16 17.36 17.36 0 0 0-2.95 2.8 15.07 15.07 0 0 0-2.67 3.83 16.13 16.13 0 0 0-1 3.82c-.91 5.38-1.73 10.86-1.07 16.28A45.48 45.48 0 0 0 46 49.39a18.22 18.22 0 0 0 2 5.16 10.83 10.83 0 0 0 6.28 4.6 12.14 12.14 0 0 0 7.8-.52c1.24-.51 2.4-1.21 3.63-1.74.94-.41 1.93-.72 2.83-1.22a11.86 11.86 0 0 0 3.66-3.6A13.5 13.5 0 0 0 75 45a22.06 22.06 0 0 0-.59-4.81zm-3.92 3c-.68 6.72-4.13 11.88-11.49 11.14s-9.73-6.49-9-13.22S54.48 29.26 61.43 30s9.73 6.45 9.06 13.18zM189.77 32.06c-.47-5.08-1.43-10.16-1.05-15.26.17-2.33.35-5.25-1.68-6.41-1.53-.87-3.45-.18-5.19-.42-3.09-.42-5.45-3.76-8.54-3.41l-.77-.2a43.56 43.56 0 0 0-14.7 2.88 5.75 5.75 0 0 0-1.92 1.07c-1.45 1.36-1.25 3.66-1.16 5.65.29 6.65-1.91 13.15-2.53 19.78a41.49 41.49 0 0 0 0 7h.25a7.12 7.12 0 0 0 2.21 0 10.87 10.87 0 0 0 1.44-.61c.53-.23 1.24-.38 1.59.24.49.87-.67 1.83-1.33 2.2a10.49 10.49 0 0 1-3 1.15l-.16.16c-.17.16-.35.31-.53.45a40.63 40.63 0 0 0 1.32 5.65 3.91 3.91 0 0 0 .71 1.48 5.32 5.32 0 0 0 1.53 1c2.22 1.23 3.82 3.32 5.83 4.88a14.61 14.61 0 0 0 11.13 2.86c2.23-.36 5.4-1.43 6.18-2.62s.28-2.71 1.25-3.6 4.13-2.64 5.35-3.75 1.25-3.78 2-5.26c2.16-4.48 2.24-9.82 1.77-14.91zm-7.62-9.82l-5.3 14.65.83 6 2.44-.34.36 2.63-10.06 1.4-.37-2.63 2.44-.34-.81-5.87L162.5 25l-2.5.35-.37-2.63 10.31-1.44.37 2.63-2.5.35 3.44 5.07a36.61 36.61 0 0 1 2.85 4.86 37.76 37.76 0 0 1 1.36-5.45l1.81-5.79-2.44.34-.37-2.63 9.82-1.37.37 2.63zM119.67 81c0 .44-.25.77-.59.77h-3.6c-.34 0-.6-.33-.6-.77v-8.23c0-.82-.44-1.45-1-1.45s-1 .63-1 1.45V81c0 .44-.26.77-.6.77h-3.59c-.34 0-.6-.33-.6-.77V67.2a.69.69 0 0 1 .6-.76h3.59a.69.69 0 0 1 .6.76V70a2.24 2.24 0 0 1 1.4-.48h3.22a2.11 2.11 0 0 1 2.17 2zM67.79 79.75a2.12 2.12 0 0 1-2.18 2h-7.23a2.12 2.12 0 0 1-2.18-2v-2.3a2.65 2.65 0 0 1 2.72-2.56H63v-2.12c0-.82-.44-1.45-1-1.45s-1 .63-1 1.45v.08a.68.68 0 0 1-.6.76h-3.34a.68.68 0 0 1-.6-.76v-1.28a2.1 2.1 0 0 1 2.16-2h7a2.12 2.12 0 0 1 2.18 2zM63 78.21v-1.79h-2v2.12c0 .82.43 1.46 1 1.46s1-.64 1-1.46zM80.82 81c0 .44-.26.77-.6.77h-3.6c-.34 0-.6-.33-.6-.77v-8.23c0-.82-.44-1.45-1-1.45s-1 .63-1 1.45V81c0 .44-.26.77-.6.77h-3.59c-.34 0-.6-.33-.6-.77V70.29a.68.68 0 0 1 .6-.76h3.59l.46.58a2.34 2.34 0 0 1 1.54-.58h3.22a2.12 2.12 0 0 1 2.18 2zM93.84 81c0 .44-.26.77-.6.77h-3.59l-.46-.59a2.3 2.3 0 0 1-1.54.59h-3.22a2.12 2.12 0 0 1-2.18-2v-8.2a2.12 2.12 0 0 1 2.18-2h3.22a2.24 2.24 0 0 1 1.4.48v-2.82c0-.44.26-.77.6-.77h3.59c.34 0 .6.33.6.77zm-4.79-8.25c0-.82-.44-1.45-1-1.45s-1 .63-1 1.45v5.77c0 .82.44 1.46 1 1.46s1-.64 1-1.46z" fill="#fff"/><path d="M109.63 69.55h-4.56v-1.61a.68.68 0 0 0-.6-.76h-3.6a.68.68 0 0 0-.59.76v1.61h-1.37a.72.72 0 0 0-.6.77v.61a.7.7 0 0 0 .6.77h1.37V81c0 .44.26.77.59.77h3.6c.34 0 .6-.33.6-.77v-9.3h4.56c.32 0 .59-.36.59-.77v-.61a.69.69 0 0 0-.59-.77zM132.7 79.75a2.12 2.12 0 0 1-2.18 2h-7.23a2.12 2.12 0 0 1-2.18-2v-8.18a2.12 2.12 0 0 1 2.18-2h7.23a2.12 2.12 0 0 1 2.18 2V74a2.12 2.12 0 0 1-2.18 2h-4.61v2.5c0 .82.44 1.46 1 1.46s1-.61 1-1.4c0-.44.26-.77.6-.77h3.59c.34 0 .6.33.6.77zm-4.79-5.24v-1.74c0-.82-.44-1.45-1-1.45s-1 .63-1 1.45v1.74zM145.28 18.83a4.7 4.7 0 0 0 .65 0h.13l.27-.05c.19-.05.37-.1.56-.17l.12-.05.23-.11a8 8 0 0 0 1-.6l.46-.34.08-.06.07-.06.23-.18a.75.75 0 0 1 .15-.09v-.72a6.68 6.68 0 0 1-3 1.37.85.85 0 0 1-1-.57.81.81 0 0 1 .57-1 5.11 5.11 0 0 0 .75-.18l.36-.13.17-.08c.24-.12.47-.26.7-.4l.33-.23.09-.07.14-.11a7.18 7.18 0 0 0 .7-.65 39.27 39.27 0 0 0-1.27-7c-.73-2.72-2.61-7.06-5.39-6.7l-8.33 1a3.89 3.89 0 0 1-2.09-.13 14.65 14.65 0 0 1-1.65 3.86.82.82 0 0 1-1.4 0A10.29 10.29 0 0 1 127.85 0a9.49 9.49 0 0 0-3 1.85 26.29 26.29 0 0 0-5.27 5.58c-1.84 2.89-2.54 6.33-3.2 9.68l-1.83 9.2a73.23 73.23 0 0 0-1.38 8.7 9 9 0 0 0 1 5.65 10.3 10.3 0 0 0 3.09 2.7l5.42 3.56c1.57 1 3.43 2.11 5.23 1.58 1.32-.39 2.23-1.55 3.35-2.37v-.62c0-1.34.08-3.42 1.87-3.46a3.45 3.45 0 0 1 2.2 1 4.62 4.62 0 0 1 1.12 1.43 7.79 7.79 0 0 0 1.47-.52c2.68-1.31 3.66-4.24 4.52-7.24-.26-.33-.54-.64-.82-.94a12.42 12.42 0 0 0-1.45-1.34.83.83 0 0 1-.29-1.11.82.82 0 0 1 1.11-.29 13.12 13.12 0 0 1 2 1.82c.17-.6.36-1.18.56-1.74 1.21-3.34 3.44-6.23 4.66-9.56a18.46 18.46 0 0 0 1-4.38 6.06 6.06 0 0 1-3.84 1.25.83.83 0 0 1-.81-.81.81.81 0 0 1 .72-.79zm-6.16 5.47l-3.46-1.08 1.34-4.17-7.58-2.35-2.16 7 3.64 1.12.93-3 2 .63-2.46 7.93-2-.63.87-2.81-3.63-1.13-2.43 7.85L131.7 36l1.57-5.06 3.47 1.06-2.27 7.33-17.41-5.39.7-2.27 1.89.59 5.25-16.93-1.9-.59.7-2.27 17.41 5.4zM40.52 40.53c-.39-2-.67-4.08-.9-6.14a.9.9 0 0 1-.31-.41l-.06-.13-.16-.27-.09-.16c-.07-.08-.13-.16-.2-.23a5.23 5.23 0 0 0-.49-.45.69.69 0 0 0-.13-.11l-.27-.2c-.72-.5-1.5-.9-2.23-1.39a.81.81 0 0 1 .82-1.4 33.93 33.93 0 0 1 2.84 1.87l-.15-1.59c0-.57-.1-1.13-.13-1.7a14 14 0 0 0-5.12-2 .81.81 0 1 1 .43-1.56A16.51 16.51 0 0 1 39 26.27q0-.59.06-1.17a8.89 8.89 0 0 0-3.18-1.29.82.82 0 0 1-.57-1 .84.84 0 0 1 1-.57 9.34 9.34 0 0 1 3 1.15v-.15c.34-1.35 1-2.61 1.29-4a9.83 9.83 0 0 0-3.5-10.13 29.2 29.2 0 0 0-2.88 1.13c-.94.43-1.77-1-.82-1.4.64-.29 1.3-.57 2-.82a9.29 9.29 0 0 0-2.12-.78h.1a25.23 25.23 0 0 0-8.13.33 19.76 19.76 0 0 0-2.37.64A17.76 17.76 0 0 1 26 11.56a.81.81 0 0 1-.29 1.11.84.84 0 0 1-1.11-.29 13.82 13.82 0 0 0-3.52-3.47 14.29 14.29 0 0 0-1.59.85A18.67 18.67 0 0 1 24 13.53c.7.78-.45 1.93-1.15 1.15A17 17 0 0 0 18 10.82c-1.84 1.56-3.29 3.57-5.19 5.06-1.16.92-2.47 1.64-3.57 2.63a10.43 10.43 0 0 0-2.23 3l1.52-.5a.72.72 0 0 1 .86.33 1 1 0 0 1 .34.49.81.81 0 0 1-.36 1.33 18.88 18.88 0 0 0-3.57 1.47c-.11.4-.2.81-.29 1.22a8.77 8.77 0 0 1 2.94-.43.78.78 0 0 1 .75 1 .86.86 0 0 1-.36 1.35 26.28 26.28 0 0 0-4 1.9v.21l-.15 1a12 12 0 0 1 4.27-.53.82.82 0 0 1 .41 1.51c-1.71.93-3.46 1.8-5.21 2.68a1.36 1.36 0 0 1 0 .2c0 .28-.08.57-.12.86 2.21-1 5-1.72 7 .1a.81.81 0 0 1-.21 1.3c-2 1.18-4.46.38-6.46 1.45l-.69.41a14.54 14.54 0 0 0 .11 2.38c.21 1.59.75 3.1 1.09 4.66a47 47 0 0 1 .68 8.3l.35.17a.77.77 0 0 1 .37 0 9.65 9.65 0 0 1 1.94.82 8.5 8.5 0 0 1 .23-1.67c-.24-.52-.45-1.13-.7-1.74-.34-1 1.23-1.41 1.57-.43.08.26.18.51.28.76a1.06 1.06 0 0 1 .4.09 2.4 2.4 0 0 1 .38.23 1.06 1.06 0 0 1 .37-.08c.86 0 1.19.91 1.26 1.61a4.2 4.2 0 0 1-.57 2.47 6.68 6.68 0 0 1-.76 2.63.82.82 0 0 1-1.27.17 3.32 3.32 0 0 1-1.07-2.16 14.33 14.33 0 0 1-2.69-1c0 .47.08 1 .13 1.42.29 2.62 1.12 5.45 3.34 6.88 1.58 1 3.57 1.12 5.37 1.68a37.26 37.26 0 0 1 5.41 2.59c-.42-3.11-1.21-6.15-1.79-9.25-.2-1 1.37-1.45 1.56-.43.66 3.49 1.57 6.92 2 10.43a8.68 8.68 0 0 0 2.58.55c2.91.13 5.61-1.56 7.75-3.54.74-.69 1.43-1.42 2.1-2.18a18.53 18.53 0 0 1-1.5-3.8c-.63-2.23-1-5 .25-7.05a.78.78 0 0 1 .91-.35.8.8 0 0 1 1.21.68v2.57A29 29 0 0 0 36 62l.91-1.11.21-.25a21.42 21.42 0 0 1-.45-5.11.82.82 0 0 1 1.63 0 26.68 26.68 0 0 0 .12 3.47 17.46 17.46 0 0 0 3-5.36c1.26-4.27-.06-8.78-.9-13.11zM18.76 65.66a.81.81 0 0 1-1.57.43 8.89 8.89 0 0 0-.26-.88c-.05-.15-.11-.29-.16-.44l-.09-.19a5.86 5.86 0 0 0-.42-.78c-.08-.13-.16-.26-.25-.39l-.09-.12-.08-.1a5.52 5.52 0 0 0-.63-.65l-.21-.23-.43-.31c-.13-.08-.27-.14-.4-.21l-.2-.07a3.31 3.31 0 0 0-.42-.12l-.25-.06h-.13a.83.83 0 0 1-.81-.81.81.81 0 0 1 .81-.81 5.77 5.77 0 0 1 3.79 2 9.35 9.35 0 0 1 1.8 3.74zm8.07-18.49l-.25-2.64 2.21-.21-.79-9.08-8.83.82.83 9.08 2.15-.2.24 2.65-9.57.89-.24-2.65 2.21-.2-1.87-19.73-2.21.2-.25-2.64 9.54-.89.25 2.64-2.15.2.74 8 8.84-.82-.75-8-2.21.21-.24-2.65 9.63-.89.25 2.64-2.21.21L34 43.84l2.21-.21.24 2.65zM60.94 34.85c-3.87-.39-6 2.69-6.46 6.72s.88 7.46 5 7.88 6-2.7 6.46-6.73-1.13-7.48-5-7.87zM23.47 126.14h8.27c.34-.6.69-1.25 1-2l-4.38-1.12 4.91.07 1.14-2.3-5.85-.75h6.22c1.25-2.56 1.74-4.48 1.45-5.74s-1.61-2.21-3.94-2.76a14.42 14.42 0 0 0 5.78-2.18 13.85 13.85 0 0 0 3.69-5 32.37 32.37 0 0 0 1.54-3.58l-4.1-1.04 4.45.07a8.81 8.81 0 0 0 .35-2.29l-6.25-.81H44a.19.19 0 0 1 0-.08 4 4 0 0 0-3-3.15 27.13 27.13 0 0 0-7.73-.67L22.15 93 21 95.27h-8.71l8.24 1.07-5.73 11.84H7.67l6.71.87-1 2H3.67l9.19 1.19L4.72 129l-4.72.28 4.18.85-1.4 2.87 12.49.22c4.4.08 7.45-.1 9.12-.56a10 10 0 0 0 4.48-2.62 16.42 16.42 0 0 0 2.27-2.94zm6.42-26.3a7.7 7.7 0 0 1 2.22.2c.33.13.5.46.49 1a7.52 7.52 0 0 1-.9 2.6h-3.1l2.75.75a16.6 16.6 0 0 1-2.3 3.79 3.55 3.55 0 0 1-2.47.77h-1.12zm-9.71 25.92a6.6 6.6 0 0 1-3.29.66l5.49-11.23c1.62.06 2.54.27 2.74.64s-.11 1.41-1 3.14l-1.84 3.75a7.9 7.9 0 0 1-2.1 3.04zM50.15 124.92l-8-1.04h8.52l3.65-7.2 7.35.03 1.19-2.34-4.74-.61h5.06l.61-1.21-6.35-.83h6.77l1.52-2.98-7.4.02 4.03-7.96 7.97-.07 2.68-5.27-7.01-.9h7.48l1.19-2.34-19.87.31-2.1 4.18h-5l4.7.61-4.31 8.6h-4.77l4.48.58-.84 1.68h-3.64l3.42.44-11.01 21.99-2.81.16 2.48.5-.47.92h-4.79l4.5.59-.48.97 19.93.35 1.37-2.69-7.76-1h8.28l2.32-4.56-8.58-.09.43-.84zM181.77 90.53l-23.23.35-1.05 1.92h-7.52l7.02.91-1.25 2.28h-5.77l5.38.7-5.05 9.23h-7.29l6.8.88-2.23 4.08h-4.57l4.26.55-.88 1.61h-2.68l2.51.32-2.94 5.35h-8.63l8.06 1.05-1.03 1.87h-5.15l4.81.62-5.45 9.94h-4.92l4.59.6-1.42 2.6 23.23.41.76-1.35-8.01-1.07h8.6l2.01-3.59-5.86-.78h6.3l1.19-2.12-10.02-.11 5.44-9.8 8.59.03 1.02-1.82-3.89-.72h4.29l.89-1.6-6.91-1.27h7.63l1.78-3.2-8.65.02 1.61-2.91-7.77-1.03h8.35l2.58-4.66 9.32-.08 2.77-4.95-8.43-1.12h9.05l.58-1.03-8.56-1.14h9.19l.55-.97zM121.2 125.77l-8.22-1.07h9.09l.05-.06-5.86-.76h6.48l3.92-4.77-4.31-.56h4.76l.93-1.13-6.69-.86h7.4l8.51-10.38-7.58-.98h8.38l4.24-5.17 1.95-3.59-9.01-1.17h9.65l.32-.6-7.75-1h8.3l.46-.86-3.21-.41h3.44l.74-1.37-23.25.36-.92 1.73h-2.67l2.5.32-1.17 2.19h-5.71l5.34.7-.97 1.82h-7.96l7.45.96-.59 1.11 10.47-.07-5.54 6.49h-3.82l3.44.44-.53.62h-5.32l4.79.62-11.36 13.31h-6.22l5.6.73-1.31 1.52h-7.98l7.19.93-3.24 3.8-1.91 3.58h-4.38l4.1.54-1.1 2.07 23.49.41.64-1.16-5.14-.67h5.5l1.53-2.81-5.79-.75h6.19l.74-1.35-7.93-1.03h8.48l.51-.92-9.67-.11.53-.64zM101.62 106.52l-4.64-.6h4.86l.37-1-3.09-.4h3.24l2.79-7.77L99.6 96h5.81l1.59-4.47-18.1.27-.67 1H82l5.77.75L86.13 96H82l3.83.5-1.1 1.66H82l2.51.33-4.91 7.44h-6.1l5.59.72-3.76 5.68h-3.78l3.49.45-4.84 7.32H66l3.87.5-.69 1h-5.62l5.17.67-3.87 5.86h-2.63l2.42.32L61 134l12.31.22 4.69-7.5h4.35l-1.29 3h-3.9l3.56.78-.42 1h-3.19l2.87.62-1 2.23 12.53.22 1.5-4.16-3.57-.66h3.8l1-2.78-4.4-.81h4.69l.38-1-6.65-1.22h7.09zm-14.94 10.76h-3.45l3.18.68c-.18.44-.35.89-.52 1.31h-4.21q3.39-5.62 11.69-17.94c-2.68 6.19-4.91 11.5-6.69 15.95z" fill="#fff"/></svg>