<?xml version="1.0" encoding="UTF-8"?><svg id="images" xmlns="http://www.w3.org/2000/svg" width="150" height="171" viewBox="0 0 150 171"><path d="M40.24,70.49c-1.79,1.67-3.31,3.01-4.74,4.46-1.3,1.31-2.51,2.71-3.71,4.12-.69,.8-1.36,1.65-1.9,2.55-1.13,1.85-3.56,1.93-4.69,.06-.15-.24,0-.84,.21-1.1,1.91-2.3,3.8-4.61,5.84-6.8,.76-.82,1.92-1.25,2.8-1.97,.65-.53,1.13-1.26,1.7-1.89,.5-.55,.92-1.28,1.55-1.6,2.15-1.08,2.58-1.87,1.95-4.15-.36-1.28,.47-2.36,1.8-2.27,.69,.05,1.38,.24,2.05,.45,1.52,.48,3.69-.72,3.99-2.27,.03-.16-.06-.35-.04-.25-2.07,.26-4.05,.6-6.04,.71-1.44,.09-2.89-.08-4.33-.22-1.34-.13-2.12,.52-2.59,1.67-.39,.95-.73,1.92-1.16,2.85-.16,.34-.54,.57-.77,.89-.25,.34-.6,.71-.62,1.07-.09,1.94-2.16,3.35-3.97,2.61-1.28-.53-2.54-1.11-3.82-1.66-.88-.38-2.01-.14-4.24,.61,1-1.02,2.01-2.05,3.01-3.07,1.01-1.02,2.05-2.01,2.31-3.9-.87,.26-1.53,.39-2.12,.66-2.3,1.03-5.41-.6-5.9-3.09-.31-1.53-.75-3.03-1.16-4.67-1.73,2.12-3.14,4.18-3.64,6.85-.48,2.57-1.33,3.06-3.89,3.17-1.81,.08-3.62,.42-5.43,.35-2.04-.08-2.57-.75-2.68-2.83-.02-.35,.29-.82,.59-1.06,.72-.57,1.53-1.03,2.3-1.53,.85-.56,1.47-1.26,2.68-1.51,1.69-.36,3.24-1.37,4.26-3.17,.88-1.55,2.36-2.74,4.4-3.03,1.14-.16,2.82-.26,2.26-2.3-.02-.06,.18-.19,.29-.28,1.75-1.6,1.74-3.75,1.86-5.86,.15-2.69,.34-5.38,.38-8.07,.02-1.19-.2-2.39-.45-3.56-.25-1.2-.09-1.48,1.08-1.38,1.9,.16,3.53,.99,4.87,2.27,1.43,1.37,1.7,5.46,.63,7.19-.16,.26-.32,.53-.52,.88,2.42,.65,4.39-.49,6.51-1.09-.15,.16-.29,.32-.44,.48-1.4,1.51-1.34,1.46-.13,3.12,1.22,1.68,2.41,3.4,3.39,5.23,.5,.94,.65,2.14,.69,3.23,.09,2.61,.93,3.21,3.29,2.2,.34-.14,.7-.28,1.06-.3,3.25-.17,7.32,1.77,8.83,4.76,2.29-.41,4.51-.98,6.75-1.15,1.34-.1,3.14-.42,3.61,1.68,2.04,.58,1.34,1.76,1.01,3.24-.45,2.01-.39,4.15-.42,6.24-.01,1.28,.12,2.59,.38,3.84,.51,2.44,0,4.8-.42,7.16-.39,2.26-.94,4.49-1.25,6.76-.24,1.76-1.31,2.96-2.75,3.39-1.44,.43-2.7-.53-3.62-1.83-.75-1.06-1.33-2.4-2.95-2.55-.15-.01-.36-.76-.31-1.14,.05-.36,.4-.68,.77-1.26l-2.43,.17c1.27-.99,2.48-1.67,3.33-2.67,.7-.82,1.33-1.98,1.39-3.03,.14-2.47-.04-4.97-.18-7.45-.09-1.64-.27-3.28-.55-4.9-.12-.69-.74-1.92-.88-1.88-.96,.24-1.9,.69-2.75,1.21-.25,.16-.29,.76-.33,1.17-.45,4.83-.64,9.69-1.38,14.47-.64,4.17-1.84,8.26-2.94,12.34-.26,.96-1.12,1.75-1.68,2.63-1.14,1.81-2.26,3.63-3.38,5.46-.05,.08-.03,.2-.09,.26-1.45,1.57-2.91,3.13-4.41,4.73-1.03-1.59-.71-4.31,.35-5.69,.61-.79,1.12-1.71,1.46-2.65,1.05-2.9,2.07-5.81,2.97-8.75,.77-2.53,1.39-5.11,2.04-7.68,.55-2.2,1.14-4.39,1.52-6.62,.14-.85-.25-1.79-.46-3.07Zm-13.36-20c-.09-.74-.13-1.48-.27-2.21-.25-1.32-.66-1.5-1.77-.69-1.39,1.02-2.39,2.16-2.03,4.2,.2,1.13,.56,1.39,1.51,1.44,2.36,.13,2.72-.26,2.57-2.74Z" fill="#fff"/><path d="M51.7,39.55c.45,.64,.68,1.2,1.1,1.48,.38,.25,1.05,.39,1.44,.23,1.86-.75,3.72-.84,5.62-.27,.89,.27,1.77,.58,2.63,.92,.23,.09,.47,.34,.57,.57,.3,.75,.53,1.53,.88,2.59-1.37,.13-2.73,.3-4.1,.38-1.76,.1-3.53,.02-5.28,.2-3.28,.33-5.22,2.27-5.38,5.51-.07,1.48-1.12,2.3-1.98,2.89-.55,.38-1.92-.39-2.9-.69-.34-.1-.62-.43-.96-.52-1.3-.36-1.51-1.29-1.27-2.4,.46-2.08-.13-2.62-2.32-2.63-1.15,0-2.36-.45-3.4-.97-.49-.24-.89-1.12-.9-1.71,0-.37,.74-.97,1.24-1.08,1.58-.37,3.19-.6,4.8-.82,1.18-.16,1.7-.74,1.66-1.96-.06-1.9-.02-3.81-.02-6.06-2.17,1.96-4.28,2.66-6.5,.07,.53-.39,.97-.76,1.46-1.06,1.35-.84,2.35-1.77,2.41-3.62,.08-2.23,.78-2.79,2.98-3.37,2.37-.62,4.75-.56,7.11-.01,1.24,.29,2.45,.77,3.61,1.3,.38,.17,.79,.79,.78,1.2-.01,1.43,.04,2.93-1.18,4.03-.15,.14-.3,.52-.23,.61,.68,.84-.15,1.57-.1,2.32,.11,1.51-.43,2.48-1.77,2.85Z" fill="#fff"/><path d="M119.71,38.73c2.86,2.43,5.63,4.78,8.46,7.18-2.65,1.56-5.07,.68-7.49,.1-.81-.19-1.62-.45-2.39-.77-.63-.26-1.33-.55-1.78-1.03-1.71-1.79-2.83-1.68-4.24,.64,.27,.15,.52,.35,.81,.44,2.77,.85,2.73,3.5,3.62,5.57,.31,.71,.72,1.38,1.05,2.08,.14,.3,.2,.64,.3,.96-.33-.05-.74,.01-.97-.16-1.74-1.31-3.5-2.61-5.14-4.04-.6-.52-.9-1.38-1.36-2.08-.49-.75-1.05-1.09-1.75-.21-.52,.65-1.04,1.29-1.33,1.65,.79,1.55,1.52,2.81,2.09,4.14,.32,.75,.47,1.57-.42,2.26-.3,.24-.23,1-.27,1.53-.04,.54,0,1.09,0,2.05-.93-.63-1.63-1.03-2.23-1.55-.52-.45-.93-1.05-1.38-1.58-1.02-1.22-1.85-2.72-3.79-2.38l-.21-2.35h1.41c.54-2.05,.24-3.98-.34-5.93-1.27-4.28-2.47-8.58-3.69-12.87-.45-1.6-.87-1.79-2.43-1.16-.42,.17-.91,.32-1.34,.26-1.04-.15-1.24-.75-.56-1.54,.42-.5,.97-.9,1.35-1.42,.28-.39,.54-.91,.53-1.37-.04-1.59,.41-2.22,2.01-2.22,1.69,0,2.68-1.08,3.83-2.1-4.16-1.98-6.81-1.28-8.55,2.81-1.06,2.49-2.58,4.6-4.79,6.21-.77,.56-1.18,.32-1.54-.38-.9-1.77-.71-3.53,.12-5.25,.73-1.52,1.72-2.95,2.25-4.53,.59-1.78,.96-3.69,1.07-5.56,.07-1.2-.51-2.44-.75-3.67-.35-1.78,.12-2.68,1.72-3.37,1.02-.44,2.57,.12,3.45,1.09,.69,.75,1.8,1.14,1.86,2.4,0,.1,.44,.24,.69,.26,.15,.01,.32-.16,.48-.26,2.18-1.46,2.97-1.78,5.9,.55-1.03,1.48-3.63,1.6-3.63,4.09,1.4,.52,3.34,.03,4.36,1.84-.04-.32-.09-.65-.1-.97-.07-1.35-.03-2.6,.57-3.93,.69-1.53,.81-3.31,1.2-4.98,.16-.67,.3-1.37,.62-1.98,.83-1.59,.7-2.52-.55-3.91-.68-.76-.13-1.28,.56-1.63,1.46-.76,2.86-.28,4.13,.44,.73,.42,.95,.36,1.57-.24,.83-.81,1.98-1.33,3.05-1.87,.15-.08,.64,.37,.89,.65,.39,.43,.7,.92,1.24,1.65-.4,.39-.93,.92-1.47,1.43-.75,.69-1.57,1.32-2.24,2.09-.17,.2,.03,1.12,.2,1.16,2.25,.57,3.46,2.24,4.78,4.36-1.24,.12-2.31,.33-3.37,.3-3.66-.12-5.37,1.41-5.65,5.48,.97-.63,1.76-1.25,2.64-1.66,.98-.46,2.04-.75,3.09-1.06,.22-.06,.56,.06,.76,.21,.69,.52,1.35,1.09,2.15,1.75-.22,.13-.59,.4-.99,.58-1.19,.54-2.4,1.02-3.57,1.59-.35,.17-.77,.52-.85,.86-.17,.75-.38,1.65-.1,2.28,.14,.31,1.37,.35,2.02,.18,1.77-.46,2.8,.7,4.29,1.54-.63,.46-.99,.87-1.44,1.02-3.39,1.17-2.76,1.44-2.26,4.37,.22-.13,.49-.2,.56-.36,.77-1.67,2.46-1.86,3.89-2.13,1.39-.27,2.91,.07,4.36,.19,.04,0,.16,.85,0,.96-.72,.51-1.58,.82-2.29,1.34-1.49,1.1-3.15,2.1-4.25,3.52-.54,.69,0,2.24,.14,3.38,0,.07,1.18,.23,1.4-.02,1.84-2.07,4.72-2.76,6.41-5.1,1.12-1.54,3.05-1.88,4.98-1.43,.59,.14,1.24,.2,1.74,.5,1.64,.97,3.86,1.28,4.77,3.07,1.03,2.01,1.6,4.25,2.28,6.42,.25,.79,.36,1.66,.36,2.49,0,1.38-.06,2.77-.26,4.14-.23,1.61-.68,3.18-.95,4.78-.35,2.06-.97,3.93-3.11,4.8-1.55,.63-2.7,.45-3.54-.94-.95-1.58-2.68-1.36-3.94-2.17-.33-.21-.83-.15-1.2-.34-.22-.11-.48-.48-.44-.69,.05-.27,.32-.6,.57-.72,.94-.41,1.98-.62,2.85-1.14,.67-.4,1.3-1.07,1.66-1.77,1.35-2.56,1.08-5.43,.94-8.13-.09-1.76-1.03-3.56-1.88-5.19-.66-1.26-2.01-1.1-3.27-.77-3.28,.86-5.63,3.1-7.88,5.23Zm-15.67,1.54c1.3-.98,2.66-1.87,3.85-2.95,1.12-1.02,1.91-2.45,3.12-3.33,1.33-.98,1.36-1.95,.79-3.23-.13-.3-.26-.6-.38-.9-.35-.91-.89-1.17-1.68-.47-1.78,1.57-3.61,3.08-5.3,4.75-1.48,1.47-1.59,4.11-.39,6.14Zm-2.34-8.6c2.06-1.79,3.97-3.55,5.99-5.16,.92-.73,1.12-1.39,.49-2.39-.75-.09-1.61-.43-2.28-.2-.79,.26-1.41,1.02-2.12,1.55-.33,.25-.7,.46-1.04,.7-1.95,1.33-2.33,3.07-1.04,5.5Zm4.44,14.94c.87-.95,1.63-1.89,2.5-2.7,1.12-1.05,2.35-1.98,3.49-3,1.59-1.42,2.01-3.29,.93-4.74-2.78,2.02-5.44,4.18-7.43,7.01-.72,1.02-.41,2.3,.5,3.43Z" fill="#fff"/><path d="M99.02,51.99v4.89l.22,.03,.98-2.78c1.71,1.8,.88,4.15,1.43,6.16,.2,.72-.57,1.69-.9,2.55-.57,1.49-1.14,2.97-1.72,4.48-1.73-1.04-3.14-3.78-2.75-5.53,.28-1.25,.87-2.42,1.22-3.65,.37-1.32,.65-2.67,.93-4.02,.15-.74,.23-1.49,.34-2.23l.26,.09Z" fill="#fff"/><path d="M33.55,151.39l3.26-2.21-1.42-2.22c.97-.75,1.89-1.1,2.65,.06,.62,.95,1.23,.7,2.01,.3,1.19-.62,2.39-1.25,3.65-1.7,2.61-.93,4.63,.11,6.23,2.17,2.87,3.7,4.64,7.97,6.2,12.32,.68,1.89-.21,2.64-2.16,2.48-1.78-.15-3.58,.07-5.37,.13-.45,.02-.9,.06-1.44-.17,.23-.16,.46-.34,.71-.47,.74-.39,1.53-.71,2.24-1.15,2.28-1.44,2.53-2.44,1.52-4.92-1.04-2.52-2.12-4.99-4.11-6.94-1.89-1.86-5.78-2.01-7.65-.14-.41,.41-.7,1.39-.48,1.84,.32,.66,1.14,1.07,2.04,1.83l-2.7,3.31,4.87-1.07,.31,.33c-1.81,2.18-3.79,4.32-1.74,7.27-1.17,.67-2.03,.63-2.8-.26-.77-.89-1.47-.82-2.15,.16-.37,.54-.81,1.03-1.25,1.51-.48,.54-1.17,.94-1.61,.19-.26-.43-.14-1.32,.16-1.78,.49-.78,1.33-1.32,1.86-2.08,.32-.46,.32-1.14,.47-1.71l-.44-.16c-1.17,.84-2.34,1.68-3.5,2.52l-.54-.33,.98-3.71c-1.94-.85-3.03-.19-3.32,2.03-.35,2.66,1.12,4.69,2.13,6.91,.41,.9,.61,1.94,.68,2.93,.07,.88-1.22,1.42-2.03,.87-3.01-2.03-5.23-4.81-6.47-8.15-.59-1.58-.44-3.58,.63-5.18,.22-.33,.73-.53,1.14-.67,.74-.25,1.51-.4,2.25-.58-.28-2.08-.18-2.45,1.5-2.89,1.33-.35,1.76-1.16,1.69-2.33-.06-1.08-.28-2.15-.48-3.52-.81,.45-1.3,.68-1.74,.98-1.78,1.2-3.53,2.45-5.33,3.63-.45,.3-1.07,.63-1.53,.53-.6-.12-1.12-.65-1.67-1.01,.38-.41,.7-.94,1.16-1.23,2.34-1.45,4.73-2.82,7.07-4.26,.77-.47,.88-1.03,.22-1.83-.55-.67-.83-1.57-1.23-2.37,.77-.14,1.54-.34,2.33-.41,1.21-.1,2.45,0,3.63-.22,.56-.1,.99-.79,1.54-1.1,.61-.35,1.27-.78,1.93-.81,1.1-.05,1.43,.67,1.17,1.76-.36,1.46-1.24,2.31-2.6,2.86-1.34,.55-2.12,1.47-2.07,3.12,.05,1.74-.23,3.49-.38,5.54Zm4.01-.21l-.49-.22c-.94,.73-1.92,1.41-2.8,2.2-.24,.22-.29,.74-.28,1.12,0,.14,.46,.45,.61,.4,.81-.28,1.81-.46,2.3-1.05,.49-.58,.46-1.61,.65-2.44Z" fill="#fff"/><path d="M131.9,96.12c.6-.53,1.31-.97,1.78-1.59,.76-.99,1.6-1.04,2.57-.47,1.08,.65,.45,1.41-.24,2.54,1.67-1.06,3.03-1.99,4.42-.05-1.58,.66-2.69,1.61-1.5,3.61,1.29-.46,2.73-1.09,4.16,.32-.58,.27-1.09,.55-1.63,.75-.8,.3-1.37,.75-.97,1.67,.36,.84,.97,1,1.81,.47,1.23-.78,2.41-.2,4,.34-.98,.72-1.68,1.35-2.49,1.79-1.07,.58-1.62,1.32-.96,2.46,1.18,2.05,1.19,2.06,2.76,1.72,1.19-.26,2.54,.02,3.78,.25,.78,.15,.83,.75,.09,1.14-.94,.49-1.98,.8-2.91,1.31-.81,.44-1.52,1.07-2.29,1.59-.36,.24-.79,.62-1.16,.59-1.24-.12-1.95,.63-2.92,1.2-2.49,1.47-1.68,3.14-.82,4.98,.25,.53,.44,1.08,.71,1.76-1.43,.11-2.35-.2-2.96-1.37-.28-.54-.86-.92-1.24-1.41-.28-.35-.65-.77-.66-1.16-.07-2.4-1.32-4.33-2.37-6.34-.53-1.01-.6-2.43-2.13-2.73-.11-.02-.21-.86-.08-1.23,.46-1.23,.33-2.12-.96-2.79-1-.52-1.12-1.6-.32-2.5,1.08-1.22,2.29-2.32,3.36-3.54,.58-.66,.98-1.47,1.46-2.21l-.5-.48-4.38,3.34-.4-.07c.12-1,.22-2.01,.37-3.01,.19-1.21,.39-2.42,.67-3.62,.11-.45,.47-.85,.71-1.27,.46,.3,1.11,.5,1.33,.92,.22,.41,.05,1.06-.04,1.6-.07,.43-.27,.83-.41,1.25l.35,.27Zm4.94,19c.65-.51,1.18-1.05,1.81-1.42,1.53-.9,1.61-2.31,1.41-3.8-.16-1.18-.8-1.43-1.68-.67-.74,.64-1.46,1.33-2.02,2.12-.97,1.37-.83,2.25,.48,3.77Zm-2.26-4.58c1.21-1.11,2.32-2.22,3.52-3.22,1-.83,.5-1.58-.03-2.29-.65-.87-1.26-.39-1.84,.18-.36,.36-.74,.71-1.13,1.04-1.74,1.46-1.85,2.34-.53,4.29Zm-1.38-4.96c1.1-1.08,1.9-1.9,2.73-2.68,1.01-.95-.05-1.34-.5-1.88-.57-.68-1.11-.53-1.59,.13-.86,1.21-.96,2.53-.65,4.43Z" fill="#fff"/><path d="M127.77,121.91c-.73-.2-1.49-.34-2.19-.62-2.3-.95-2.33-.96-4.05,.9-.43,.46-.84,.92-1.38,1.52-.54-1.02-.71-1.79-.15-2.66,.32-.5,.51-1.09,.77-1.64,.49-1.05,.09-1.52-.97-1.79-.49-.13-1.16-.57-1.23-.97-.09-.46,.37-1.03,.63-1.54,.25-.49,.56-.96,.83-1.44,.31-.55,.65-1.08,.89-1.66,.25-.58,.39-1.21,.57-1.82-.63-.05-1.29-.25-1.88-.12-1.26,.28-2.47,.93-3.74,1.08-1.69,.2-2.33-.72-1.95-2.47,2.17,.25,3.98-.59,5.51-2.07,.44-.42,1.15-1.18,1.03-1.45-.46-.99-.71-2.23-2.13-2.57-.79-.19-1.59-.68-2.19-1.25-.96-.9-.52-1.98,.8-2.26,1.66-.35,3.36,.37,4.22,1.9,.67,1.19,1.34,1.74,2.89,1.29,1.31-.38,2.82-.08,4.24-.08l.15,.48c-.25,.29-.46,.61-.75,.86-.85,.73-1.76,1.39-2.57,2.16-1.56,1.47-1.63,2.18-.47,4.23,.31-.2,.69-.32,.9-.59,.98-1.28,2.1-.87,3.22-.3,.26,.13,.57,.41,.63,.67,.3,1.29,.59,2.59,.76,3.91,.16,1.23,0,2.29-1.21,3.15-.82,.58-1.31,1.66-1.86,2.57-.12,.21,.08,.66,.23,.97,.2,.43,.48,.82,.72,1.23l-.24,.36Zm-2.44-5.86c.91-.71,1.79-1.23,2.43-1.97,.27-.31,.21-1.12,0-1.58-.28-.62-.79-1.1-1.67-.71-1.21,.54-1.59,2.08-.77,4.25Z" fill="#fff"/><path d="M70.57,126.97c1.27-1.3,2.42-2.36,3.44-3.55,1.07-1.26,3.04-1.74,4.76-.81-2.78,1.95-5.46,3.83-8.14,5.72l.47,.29c.22,.95,.55,1.89,.62,2.84,.05,.77,.13,1.11,1.01,1.02,1.65-.16,2.49,.54,3.17,2.09,1.71,3.91,1.8,8.05,1.91,12.2,0,.19,.03,.39-.04,.56-.36,.84-.75,1.67-1.12,2.5-.76-.36-1.58-.65-2.28-1.11-.7-.46-1.69-1.03-1.79-1.68-.1-.65,.96-1.4,1.11-2.18,.32-1.67,.43-3.38,.53-5.09,.04-.63-.08-1.36-.38-1.9-.37-.67-1-1.18-1.52-1.77-.57,.63-1.41,1.17-1.66,1.91-.82,2.36-1.29,4.83-2.15,7.17-.43,1.16-1.32,2.22-3.18,2.56,.45-2.21,.78-4.19,1.27-6.13,.49-1.96,1.23-3.86,1.69-5.82,.3-1.3,.39-2.66,.43-4,.03-.93-.48-1.33-1.34-.65-3.37,2.67-6.73,5.35-10.07,8.04-.54,.44-.92,1.09-1.5,1.46-.53,.34-1.21,.54-1.83,.56-.19,0-.66-.88-.55-1.22,.21-.7,.57-1.58,1.14-1.91,2.05-1.22,4.32-2.09,6.32-3.38,2.02-1.31,3.84-2.93,5.68-4.48,.49-.41,1.22-1.31,1.08-1.58-.51-.93,.03-2.53-1.88-2.7-2.08-.18-4.12-.78-6.17-1.24-.35-.08-.65-.36-.97-.55,.25-.31,.44-.76,.76-.89,.55-.22,1.19-.38,1.77-.33,2.26,.23,4.53,.47,6.77,.87,1.48,.26,2.2,1.44,2.66,3.16Z" fill="#fff"/><path d="M101.83,110.41c-.96,.9-1.75,1.76-2.67,2.46-1.39,1.06-1.73,2.34-1.01,4.21,.55-.39,1.15-.65,1.5-1.1,.8-1.02,1.73-.93,2.77-.59,1.15,.38,2.24,.79,2.29,2.27,.03,.83,.09,1.65,.16,2.86,1.13-.8,2.02-1.42,2.91-2.04,1.34-.94,2.65-2,4.43-1.69,.48,.08,.89,.51,1.34,.78-.31,.37-.56,.88-.95,1.08-1.28,.66-2.69,1.08-3.93,1.81-1.71,1.01-3.33,2.18-4.93,3.36-.89,.66-1.62,1.54-2.5,2.22-.8,.62-.85,1.35-.73,2.24,.35,2.47,.53,4.93-.64,7.26-.97,1.93-1.98,3.85-3,5.76-.13,.23-.59,.55-.7,.49-.58-.33-1.29-.66-1.59-1.2-.62-1.13,.1-3.72,1.22-4.46,1.89-1.25,2.07-3.22,2.39-5.14,.11-.66-.24-1.14-1-.9-.7,.22-1.48,.41-2.01,.86-2.09,1.79-4.08,3.72-6.16,5.51-.65,.56-1.48,1-2.29,1.25-.38,.12-1.07-.22-1.36-.57-.15-.18,.21-.87,.45-1.27,.21-.34,.75-.53,.84-.87,.43-1.69,1.61-2.38,3.13-3.01,1.51-.63,2.82-1.71,4.45-2.74-1.71-1.11-3.16-1.95-4.48-2.95-.61-.46-1.32-1.21-1.37-1.87-.04-.56,.73-1.29,1.3-1.74,.73-.57,1.63-.91,2.43-1.39,2.15-1.28,2.15-1.33,1.22-3.85-1.81,.36-3.45,2.56-5.6,.68l1.9-2.81c-.7-.78-1.56-1.62-2.26-2.57-.31-.42-.54-1.15-.38-1.59,.13-.35,1-.75,1.36-.62,1.3,.46,2.79,.88,3.72,1.8,1.07,1.06,1.82,.76,2.79,.21,.98-.56,1.04-1.34,.52-2.26-.63-1.13-1.3-2.23-1.79-3.42-.12-.3,.26-1.09,.61-1.25,1.33-.65,3.01,.59,2.97,2.1-.01,.47-.16,.95-.08,1.39,.16,.83,.37,1.54,1.57,.9,.95-.51,2.11-.87,3.14,.38Zm-2.33,14.08c2.48-1.46,3.11-3.43,1.95-5.53-.49-.89-1.12-.89-1.86-.51-.72,.38-1.84,.48-1.39,1.81,.46,1.36,.85,2.75,1.3,4.22Zm-6.59-.99c1.08,1.03,2.05,1.99,3.07,2.9,.24,.21,.64,.31,.97,.32,.11,0,.37-.48,.32-.67-.41-1.53-.87-3.04-1.4-4.81l-2.96,2.26Zm4.34-6.06l-.45-2.12-.41-.09-1.17,1.63,2.03,.58Z" fill="#fff"/><path d="M114.48,131.4c-2.5,.29-4.47,.99-6.46-.49-1.03-.77-2.45-1.09-3.75-1.42-1.19-.3-1.11-.96-.73-1.76,.54-1.11,1.58-1.35,2.7-1.4,.09,0,.19,.02,.28,.04,3.04,.83,5.46,2.61,7.96,5.04Z" fill="#fff"/></svg>