<svg xmlns="http://www.w3.org/2000/svg" width="300" height="75" viewBox="0 0 300 75"><polyline points="22.37 69.93 22.37 36.64 3.75 36.64 3.75 69.93" fill="none" stroke="#fff" stroke-miterlimit="10" stroke-width="2.4"/><line x1="13.06" y1="69.93" x2="13.06" y2="36.64" fill="none" stroke="#fff" stroke-miterlimit="10" stroke-width="2.4"/><polygon points="22.5 68.22 25.19 71.64 19.54 71.64 22.5 68.22" fill="#fff"/><polygon points="50.2 68.22 52.89 71.64 47.24 71.64 50.2 68.22" fill="#fff"/><polygon points="60.95 68.22 63.65 71.64 58 71.64 60.95 68.22" fill="#fff"/><polygon points="13.19 68.22 15.88 71.64 10.23 71.64 13.19 68.22" fill="#fff"/><polygon points="3.88 68.22 6.57 71.64 0.92 71.64 3.88 68.22" fill="#fff"/><ellipse cx="36.38" cy="58.05" rx="8.21" ry="14.48" fill="none" stroke="#fff" stroke-miterlimit="10" stroke-width="2.4"/><line x1="36.38" y1="43.57" x2="36.38" y2="72.53" fill="none" stroke="#fff" stroke-miterlimit="10" stroke-width="2.4"/><line x1="28.56" y1="58.05" x2="44.19" y2="58.05" fill="none" stroke="#fff" stroke-miterlimit="10" stroke-width="2.88"/><ellipse cx="127.89" cy="58.05" rx="8.21" ry="14.48" fill="none" stroke="#fff" stroke-miterlimit="10" stroke-width="2.4"/><line x1="127.89" y1="43.57" x2="127.89" y2="72.53" fill="none" stroke="#fff" stroke-miterlimit="10" stroke-width="2.4"/><line x1="120.08" y1="58.05" x2="135.71" y2="58.05" fill="none" stroke="#fff" stroke-miterlimit="10" stroke-width="2.88"/><polygon points="23.53 38.86 20.84 35.44 26.49 35.44 23.53 38.86" fill="#fff"/><polygon points="2.69 38.86 0 35.44 5.65 35.44 2.69 38.86" fill="#fff"/><polyline points="188.12 69.93 188.12 36.64 169.5 36.64 169.5 69.93" fill="none" stroke="#fff" stroke-miterlimit="10" stroke-width="2.4"/><line x1="178.81" y1="69.93" x2="178.81" y2="36.64" fill="none" stroke="#fff" stroke-miterlimit="10" stroke-width="2.4"/><polygon points="188.25 68.22 190.94 71.64 185.29 71.64 188.25 68.22" fill="#fff"/><polygon points="195.81 68.22 197.11 72.38 191.83 70.36 195.81 68.22" fill="#fff"/><polygon points="208.7 68.22 207.4 72.38 212.68 70.36 208.7 68.22" fill="#fff"/><polygon points="178.94 68.22 181.63 71.64 175.98 71.64 178.94 68.22" fill="#fff"/><polygon points="169.63 68.22 172.32 71.64 166.67 71.64 169.63 68.22" fill="#fff"/><polygon points="189.28 38.86 186.59 35.44 192.24 35.44 189.28 38.86" fill="#fff"/><polygon points="168.44 38.86 165.75 35.44 171.4 35.44 168.44 38.86" fill="#fff"/><line x1="50.07" y1="69.93" x2="50.07" y2="44.74" fill="none" stroke="#fff" stroke-miterlimit="10" stroke-width="2.4"/><line x1="60.82" y1="69.93" x2="60.82" y2="44.74" fill="none" stroke="#fff" stroke-miterlimit="10" stroke-width="2.4"/><line x1="50.07" y1="49.33" x2="60.82" y2="66.41" fill="none" stroke="#fff" stroke-miterlimit="10" stroke-width="2.4"/><polygon points="60.69 47.21 58 43.79 63.65 43.79 60.69 47.21" fill="#fff"/><polygon points="79.91 68.22 82.6 71.64 76.95 71.64 79.91 68.22" fill="#fff"/><line x1="79.78" y1="69.93" x2="79.78" y2="44.74" fill="none" stroke="#fff" stroke-miterlimit="10" stroke-width="2.4"/><polygon points="79.64 47.21 76.95 43.79 82.6 43.79 79.64 47.21" fill="#fff"/><polygon points="247.83 68.22 250.52 71.64 244.87 71.64 247.83 68.22" fill="#fff"/><line x1="247.69" y1="69.93" x2="247.69" y2="44.74" fill="none" stroke="#fff" stroke-miterlimit="10" stroke-width="2.4"/><polygon points="235.56 68.22 238.25 71.64 232.6 71.64 235.56 68.22" fill="#fff"/><line x1="235.43" y1="69.93" x2="235.43" y2="44.74" fill="none" stroke="#fff" stroke-miterlimit="10" stroke-width="2.4"/><polygon points="247.56 47.21 244.87 43.79 250.52 43.79 247.56 47.21" fill="#fff"/><polygon points="141.46 68.22 144.15 71.64 138.5 71.64 141.46 68.22" fill="#fff"/><polygon points="151.11 68.22 153.8 71.64 148.15 71.64 151.11 68.22" fill="#fff"/><line x1="141.32" y1="69.93" x2="141.32" y2="44.74" fill="none" stroke="#fff" stroke-miterlimit="10" stroke-width="2.4"/><polygon points="141.29 46.59 138.6 43.17 144.25 43.17 141.29 46.59" fill="#fff"/><polygon points="49.94 47.21 47.24 43.79 52.89 43.79 49.94 47.21" fill="#fff"/><polygon points="103.58 68.22 106.27 71.64 100.62 71.64 103.58 68.22" fill="#fff"/><polygon points="114.33 68.22 117.02 71.64 111.37 71.64 114.33 68.22" fill="#fff"/><line x1="103.44" y1="69.93" x2="103.44" y2="44.74" fill="none" stroke="#fff" stroke-miterlimit="10" stroke-width="2.4"/><line x1="114.2" y1="69.93" x2="114.2" y2="44.74" fill="none" stroke="#fff" stroke-miterlimit="10" stroke-width="2.4"/><line x1="103.44" y1="49.33" x2="114.2" y2="66.41" fill="none" stroke="#fff" stroke-miterlimit="10" stroke-width="2.4"/><polygon points="114.06 47.21 111.37 43.79 117.02 43.79 114.06 47.21" fill="#fff"/><polygon points="103.31 47.21 100.62 43.79 106.27 43.79 103.31 47.21" fill="#fff"/><polygon points="255.87 68.22 258.56 71.64 252.91 71.64 255.87 68.22" fill="#fff"/><polygon points="266.62 68.22 269.31 71.64 263.66 71.64 266.62 68.22" fill="#fff"/><line x1="255.73" y1="69.93" x2="255.73" y2="44.74" fill="none" stroke="#fff" stroke-miterlimit="10" stroke-width="2.4"/><line x1="266.49" y1="69.93" x2="266.49" y2="44.74" fill="none" stroke="#fff" stroke-miterlimit="10" stroke-width="2.4"/><line x1="255.73" y1="49.33" x2="266.49" y2="66.41" fill="none" stroke="#fff" stroke-miterlimit="10" stroke-width="2.4"/><polygon points="266.36 47.21 263.66 43.79 269.31 43.79 266.36 47.21" fill="#fff"/><polygon points="281.27 44.97 284.68 42.28 284.68 47.93 281.27 44.97" fill="#fff"/><polygon points="255.6 47.21 252.91 43.79 258.56 43.79 255.6 47.21" fill="#fff"/><path d="M141.32,58.84s7.84-1.11,7.84-6.76-7.84-5.74-7.84-5.74" fill="none" stroke="#fff" stroke-miterlimit="10" stroke-width="2.4"/><line x1="143.67" y1="58.17" x2="151.3" y2="70.56" fill="none" stroke="#fff" stroke-miterlimit="10" stroke-width="2.4"/><polygon points="217.48 68.22 220.17 71.64 214.52 71.64 217.48 68.22" fill="#fff"/><polygon points="227.13 68.22 229.82 71.64 224.17 71.64 227.13 68.22" fill="#fff"/><line x1="217.35" y1="69.93" x2="217.35" y2="44.74" fill="none" stroke="#fff" stroke-miterlimit="10" stroke-width="2.4"/><polygon points="217.31 46.59 214.62 43.17 220.27 43.17 217.31 46.59" fill="#fff"/><path d="M217.35,58.84s7.83-1.11,7.83-6.76-7.83-5.74-7.83-5.74" fill="none" stroke="#fff" stroke-miterlimit="10" stroke-width="2.4"/><line x1="219.69" y1="58.17" x2="227.32" y2="70.56" fill="none" stroke="#fff" stroke-miterlimit="10" stroke-width="2.4"/><line x1="228.35" y1="44.14" x2="242.51" y2="44.14" fill="none" stroke="#fff" stroke-miterlimit="10" stroke-width="2.88"/><polyline points="283.36 45.1 274.6 45.1 274.6 70.42 283.36 70.42" fill="none" stroke="#fff" stroke-miterlimit="10" stroke-width="2.4"/><line x1="283.36" y1="57.74" x2="271.06" y2="57.74" fill="none" stroke="#fff" stroke-miterlimit="10" stroke-width="2.4"/><polygon points="281.27 44.97 284.68 42.28 284.68 47.93 281.27 44.97" fill="#fff"/><polygon points="291.08 45.24 287.67 47.93 287.67 42.28 291.08 45.24" fill="#fff"/><polygon points="281.27 57.61 284.68 54.92 284.68 60.57 281.27 57.61" fill="#fff"/><polygon points="281.27 70.29 284.68 67.6 284.68 73.25 281.27 70.29" fill="#fff"/><polygon points="296.58 70.29 300 67.6 300 73.25 296.58 70.29" fill="#fff"/><polyline points="289.09 45.2 298.29 45.2 288.59 70.42 298.29 70.42" fill="none" stroke="#fff" stroke-miterlimit="10" stroke-width="2.4"/><polyline points="195.02 69.93 201.89 44.14 209.5 70.3" fill="none" stroke="#fff" stroke-miterlimit="10" stroke-width="2.4"/><line x1="196.58" y1="63.52" x2="207.78" y2="63.52" fill="none" stroke="#fff" stroke-miterlimit="10" stroke-width="2.4"/><path d="M103.44,38.86s.77-4.45,5.38-1.71C115,40.79,115,35.44,115,35.44" fill="none" stroke="#fff" stroke-miterlimit="10" stroke-width="2.4"/><path d="M97.08,46.72s-3.87-4.88-8.34.49S85.2,71,92.43,71s5.34-12.19,5.34-12.19H93.61" fill="none" stroke="#fff" stroke-miterlimit="10" stroke-width="2.4"/><polygon points="95.43 58.97 92.01 61.67 92.01 56.01 95.43 58.97" fill="#fff"/><path d="M74,49.33s-.24-4.59-3.44-4.59c-3.43,0-6.85,6-.49,12.1S75.59,71,70.38,71c-3.79,0-3.53-5-3.53-5" fill="none" stroke="#fff" stroke-miterlimit="10" stroke-width="2.4"/><ellipse cx="36.59" cy="13" rx="5.53" ry="9.76" fill="none" stroke="#fff" stroke-miterlimit="10" stroke-width="1.62"/><line x1="36.59" y1="3.24" x2="36.59" y2="22.76" fill="none" stroke="#fff" stroke-miterlimit="10" stroke-width="1.62"/><line x1="31.32" y1="13" x2="41.85" y2="13" fill="none" stroke="#fff" stroke-miterlimit="10" stroke-width="1.94"/><ellipse cx="196.43" cy="13" rx="5.53" ry="9.76" fill="none" stroke="#fff" stroke-miterlimit="10" stroke-width="1.62"/><path d="M214.73,19.43c-1,2-2.5,3.33-4.16,3.33-3.06,0-5.53-4.37-5.53-9.76s2.47-9.76,5.53-9.76c1.53,0,2.91,1.1,3.91,2.86" fill="none" stroke="#fff" stroke-miterlimit="10" stroke-width="1.62"/><line x1="196.43" y1="3.24" x2="196.43" y2="22.76" fill="none" stroke="#fff" stroke-miterlimit="10" stroke-width="1.62"/><line x1="191.17" y1="13" x2="201.7" y2="13" fill="none" stroke="#fff" stroke-miterlimit="10" stroke-width="1.94"/><polygon points="27.49 21.25 29.79 19.43 29.79 23.24 27.49 21.25" fill="#fff"/><polyline points="21.77 4.05 21.77 21.34 29.01 21.34" fill="none" stroke="#fff" stroke-miterlimit="10" stroke-width="1.62"/><path d="M62.14,21.79V4.36S70,2.4,70,12.92C70,22.93,62.14,21.79,62.14,21.79Z" fill="none" stroke="#fff" stroke-miterlimit="10" stroke-width="1.62"/><polygon points="21.68 5.72 19.86 3.41 23.67 3.41 21.68 5.72" fill="#fff"/><polygon points="140.72 21.25 143.02 19.43 143.02 23.24 140.72 21.25" fill="#fff"/><polyline points="135 4.05 135 21.34 142.24 21.34" fill="none" stroke="#fff" stroke-miterlimit="10" stroke-width="1.62"/><polygon points="134.91 5.72 133.1 3.41 136.91 3.41 134.91 5.72" fill="#fff"/><polygon points="62.04 5.72 60.23 3.41 64.04 3.41 62.04 5.72" fill="#fff"/><polygon points="74.08 19.86 75.89 22.16 72.08 22.16 74.08 19.86" fill="#fff"/><line x1="73.99" y1="21.01" x2="73.99" y2="4.03" fill="none" stroke="#fff" stroke-miterlimit="10" stroke-width="1.62"/><polygon points="73.9 5.69 72.08 3.39 75.89 3.39 73.9 5.69" fill="#fff"/><polygon points="179.03 19.86 180.85 22.16 177.04 22.16 179.03 19.86" fill="#fff"/><polygon points="186.28 19.86 188.09 22.16 184.28 22.16 186.28 19.86" fill="#fff"/><line x1="178.94" y1="21.01" x2="178.94" y2="4.03" fill="none" stroke="#fff" stroke-miterlimit="10" stroke-width="1.62"/><line x1="186.19" y1="21.01" x2="186.19" y2="4.03" fill="none" stroke="#fff" stroke-miterlimit="10" stroke-width="1.62"/><line x1="178.94" y1="7.13" x2="186.19" y2="18.63" fill="none" stroke="#fff" stroke-miterlimit="10" stroke-width="1.62"/><polygon points="186.1 5.69 184.28 3.39 188.09 3.39 186.1 5.69" fill="#fff"/><polygon points="178.85 5.69 177.04 3.39 180.85 3.39 178.85 5.69" fill="#fff"/><polygon points="218.37 19.86 220.18 22.16 216.37 22.16 218.37 19.86" fill="#fff"/><polygon points="225.61 19.86 227.43 22.16 223.62 22.16 225.61 19.86" fill="#fff"/><line x1="218.28" y1="21.01" x2="218.28" y2="4.03" fill="none" stroke="#fff" stroke-miterlimit="10" stroke-width="1.62"/><line x1="225.52" y1="21.01" x2="225.52" y2="4.03" fill="none" stroke="#fff" stroke-miterlimit="10" stroke-width="1.62"/><polygon points="225.44 5.69 223.62 3.39 227.43 3.39 225.44 5.69" fill="#fff"/><polygon points="218.19 5.69 216.37 3.39 220.18 3.39 218.19 5.69" fill="#fff"/><polygon points="235.29 4.19 237.59 2.37 237.59 6.18 235.29 4.19" fill="#fff"/><polyline points="236.7 4.28 230.79 4.28 230.79 21.34 236.7 21.34" fill="none" stroke="#fff" stroke-miterlimit="10" stroke-width="1.62"/><line x1="236.7" y1="12.79" x2="228.41" y2="12.79" fill="none" stroke="#fff" stroke-miterlimit="10" stroke-width="1.62"/><polygon points="235.29 4.19 237.59 2.37 237.59 6.18 235.29 4.19" fill="#fff"/><polygon points="235.29 12.7 237.59 10.89 237.59 14.7 235.29 12.7" fill="#fff"/><polygon points="235.29 21.25 237.59 19.43 237.59 23.24 235.29 21.25" fill="#fff"/><polygon points="80.27 19.86 81.14 22.66 77.58 21.3 80.27 19.86" fill="#fff"/><polygon points="88.95 19.86 88.08 22.66 91.64 21.3 88.95 19.86" fill="#fff"/><polyline points="79.73 21.01 84.36 3.62 89.49 21.26" fill="none" stroke="#fff" stroke-miterlimit="10" stroke-width="1.62"/><line x1="80.78" y1="16.69" x2="88.33" y2="16.69" fill="none" stroke="#fff" stroke-miterlimit="10" stroke-width="1.62"/><polygon points="147.61 19.86 148.48 22.66 144.92 21.3 147.61 19.86" fill="#fff"/><polygon points="156.29 19.86 155.42 22.66 158.98 21.3 156.29 19.86" fill="#fff"/><polyline points="147.08 21.01 151.7 3.62 156.83 21.26" fill="none" stroke="#fff" stroke-miterlimit="10" stroke-width="1.62"/><line x1="148.12" y1="16.69" x2="155.67" y2="16.69" fill="none" stroke="#fff" stroke-miterlimit="10" stroke-width="1.62"/><path d="M50.52,7.13S50.36,4,48.2,4c-2.31,0-4.62,4.07-.33,8.16s3.7,9.56.19,9.56c-2.55,0-2.38-3.37-2.38-3.37" fill="none" stroke="#fff" stroke-miterlimit="10" stroke-width="1.62"/><path d="M98.34,7.13S98.17,4,96,4c-2.31,0-4.62,4.07-.33,8.16s3.7,9.56.18,9.56c-2.55,0-2.37-3.37-2.37-3.37" fill="none" stroke="#fff" stroke-miterlimit="10" stroke-width="1.62"/><path d="M246.59,7.13S246.42,4,244.27,4c-2.31,0-4.62,4.07-.33,8.16s3.7,9.56.18,9.56c-2.55,0-2.37-3.37-2.37-3.37" fill="none" stroke="#fff" stroke-miterlimit="10" stroke-width="1.62"/><path d="M165.93,7.13S165.77,4,163.61,4c-2.31,0-4.62,4.07-.33,8.16s3.7,9.56.19,9.56c-2.56,0-2.38-3.37-2.38-3.37" fill="none" stroke="#fff" stroke-miterlimit="10" stroke-width="1.62"/><line x1="218.28" y1="13" x2="225.52" y2="13" fill="none" stroke="#fff" stroke-miterlimit="10" stroke-width="1.62"/><polygon points="116.06 20.58 117.87 22.88 114.06 22.88 116.06 20.58" fill="#fff"/><polygon points="122.43 4.91 122.83 2 125.48 4.74 122.43 4.91" fill="#fff"/><polygon points="109.61 4.91 109.21 2 106.56 4.74 109.61 4.91" fill="#fff"/><polyline points="108.63 4.24 115.97 11.54 123.31 4.24" fill="none" stroke="#fff" stroke-miterlimit="10" stroke-width="1.62"/><line x1="115.97" y1="22.33" x2="115.97" y2="11.54" fill="none" stroke="#fff" stroke-miterlimit="10" stroke-width="1.62"/><path d="M260.06,21.91V4.48s7.82-2,7.82,8.56C267.88,23.05,260.06,21.91,260.06,21.91Z" fill="none" stroke="#fff" stroke-miterlimit="10" stroke-width="1.62"/><polygon points="259.97 5.84 258.15 3.53 261.96 3.53 259.97 5.84" fill="#fff"/><polygon points="277.83 4.3 280.13 2.49 280.13 6.3 277.83 4.3" fill="#fff"/><polyline points="279.25 4.39 273.34 4.39 273.34 21.46 279.25 21.46" fill="none" stroke="#fff" stroke-miterlimit="10" stroke-width="1.62"/><line x1="279.24" y1="12.91" x2="270.96" y2="12.91" fill="none" stroke="#fff" stroke-miterlimit="10" stroke-width="1.62"/><polygon points="277.83 4.3 280.13 2.49 280.13 6.3 277.83 4.3" fill="#fff"/><polygon points="277.83 12.82 280.13 11.01 280.13 14.82 277.83 12.82" fill="#fff"/><polygon points="277.83 21.37 280.13 19.55 280.13 23.36 277.83 21.37" fill="#fff"/></svg>