<svg xmlns="http://www.w3.org/2000/svg" width="350" height="60" viewBox="0 0 350 60"><path d="M163.28 0v45l-4.88 6.57h-11.8L141.38 45V0h8.51v42.55a2.45 2.45 0 0 0 4.89 0V0zm-26.86 6.57V45l-4.89 6.57h-11.79L114.51 45V6.57L119.74 0h11.79zM127.91 9A2.45 2.45 0 0 0 123 9v33.55a2.45 2.45 0 0 0 4.89 0zm48.4-9H168v51.56h8.29zm44.44 0H202.3v7.5h5.08v44.06h8.29V7.5h5.08zm102.63 0h-18.45v7.5H310v44.06h8.29V7.5h5.08zM198.83 7.5V0h-17v51.56h17v-6.8h-8.7V29.18h8.7v-6.8h-8.7V7.5zm78 0V0h-17v51.56h17v-6.8h-8.7V29.18h8.7v-6.8h-8.7V7.5zM136 51.56h-7.19v7.87H136zm119.1-45V45l-4.89 6.57h-17V0h17zm-8.66 4.22c0-4.9-4.38-3.28-4.38-3.28v37.35s4.38.3 4.38-3.28V10.79zM21.9 6.57V45L17 51.56H0V0h17zm-8.66 4.22c0-4.9-4.38-3.28-4.38-3.28v37.34s4.38.3 4.38-3.28V10.79zM341.71 0v22.47H336V0h-8.29v51.56H336V29.7h5.71v21.86H350V0zM295 44.16h-5.58l-.6 7.4h-8.29L284.64 0h15.06l4.15 51.56h-8.29zm-.54-6.77l-2.25-25-2.25 25.05zM40 44.16h-5.61l-.6 7.4H25.5L29.65 0h15.06l4.15 51.56h-8.29zm-.54-6.77l-2.25-25-2.28 25zm23.69-4.93h-.91v19.1h-8.89V0h17l4.88 6.57v19.32l-3.61 4.86 4.18 20.81H67zm3.47-10V10.79c0-4.9-4.38-3.28-4.38-3.28v18.24s4.35.3 4.35-3.28zm35.84 29.09l-8.34-26.74L101.83 0H93l-4.77 15.26V0h-8.87v51.56h8.87V34.37l5.34 17.19z" fill="#fff"/></svg>