<svg xmlns="http://www.w3.org/2000/svg" viewBox="0 0 200 98"><path d="M20.12 24.05c0 1.7-.56 3.09-1.68 4.18-1.12 1.09-2.68 1.66-4.68 1.7-.5 0-1.04-.08-1.62-.24-1.05-.3-1.6-.45-1.65-.45-.55-.11-1.11-.24-1.67-.36-.56-.13-1.05-.38-1.46-.77-.62-.55-1.12-1.44-1.51-2.68-.48-1.44-.85-2.35-1.1-2.72-.18-.18-.4-.5-.65-.96-.07-.34 0-.68.19-1.01.19-.33.43-.54.7-.64.14-.05.39-.07.76-.07.8 0 1.78.1 2.94.29 1.16.19 1.81.37 1.94.53.14.16.32.99.55 2.48.21 1.38.52 2.14.93 2.3.09.05.19.07.31.07.44 0 .81-.36 1.12-1.08s.46-1.54.46-2.46c0-1.99-.62-3.32-1.86-3.99-2.84-1.54-4.84-2.96-5.98-4.26-1.33-1.51-1.93-3.3-1.79-5.36.11-1.72.74-3.46 1.87-5.21S8.58.56 9.84.26c.53-.11 2.13.39 4.81 1.51.66.25 1.34.52 2.01.79.68.28 1.22.68 1.63 1.2.64.8.96 2.19.96 4.16 0 .37-.01.91-.03 1.62-.02.62-.03 1.05-.03 1.31.02.16.1.42.24.79.11.25.16.5.14.76-.05 1.01-.47 1.57-1.27 1.68-.46.07-1.31-.1-2.54-.52-1.38-.44-2.25-.91-2.61-1.41-.05-.07-.07-.3-.07-.69 0-.34.04-1.12.12-2.34.08-1.21.12-2.1.12-2.65 0-.99-.11-1.47-.34-1.44-.71.05-1.3.56-1.77 1.53s-.7 2.08-.7 3.32c0 2.06.61 3.53 1.82 4.4 1.38.87 2.75 1.74 4.13 2.61 1.31.85 2.21 1.7 2.72 2.54.64 1.1.96 2.64.96 4.61zM39.61 3.25c.02-.25.03 1.94.03 6.57 0 13.07-1.82 19.81-5.47 20.22-.64.07-1.42-.05-2.32-.34-.91-.3-1.79-.6-2.66-.89-.76-.18-1.52-.38-2.29-.6-.77-.22-1.37-.57-1.81-1.05-.94-1.03-1.7-3.28-2.27-6.74-.5-3.19-.76-6.72-.76-10.59 0-2.98.16-5.6.48-7.87.09-.71.42-1.17 1-1.38.25-.09 1.13.07 2.63.48s2.38.77 2.63 1.07c.11.14.17.32.17.55 0 .3-.11.7-.34 1.22-.23.52-.33.92-.31 1.22-.11.44-.17 1.7-.17 3.78 0 4.03.18 7.69.55 10.97.46 4.22 1.12 6.28 1.99 6.19 1.1-.11 1.93-2.12 2.48-6.02.44-3 .65-6.54.65-10.62 0-2.68-.08-4.37-.24-5.05.05-.39 0-.77-.14-1.13-.21-.5-.31-.78-.31-.83-.14-.78.11-1.36.76-1.75.11-.07.31-.1.58-.1.69 0 1.65.17 2.89.52 1.24.34 1.96.63 2.17.86.14.16.16.61.07 1.34zM56.39 2.7c2.2 1.17 3.3 3.18 3.3 6.02 0 2.06-.81 4.68-2.44 7.84-1.81 3.53-3.66 5.3-5.54 5.3-.37 0-.77-.18-1.22-.53-.45-.36-.89-.7-1.32-1.05v5.85c0 .3.06.64.17 1.03.16.55.26.93.31 1.13.05.21-.04.58-.26 1.12-.22.54-.53.83-.95.88-.41.05-1.31-.24-2.68-.86-1.44-.64-2.34-1.21-2.68-1.72-.21-.32-.21-.8 0-1.44.16-.48.24-.86.24-1.13V3.87c0-.14-.08-.39-.24-.76-.16-.37-.23-.63-.21-.79.14-1.1.55-1.65 1.24-1.65.11 0 .58.13 1.39.4.81.26 1.46.41 1.94.43.69.02 1.56-.16 2.63-.55 1.07-.39 1.84-.58 2.32-.58.28 0 .55.03.83.1.53.14 1.08.48 1.65 1.03.69.64 1.19 1.04 1.51 1.2zm-2.85 2.65c-.53 0-1.26.29-2.2.86-.94.57-1.66 1.2-2.17 1.89v8.29c1.24-.39 2.41-1.8 3.51-4.23 1.01-2.2 1.51-4.07 1.51-5.6 0-.8-.22-1.2-.65-1.2zM77.33 24.91c-.07.39-.27.81-.6 1.25-.33.45-.62.72-.88.81-.07.02-.2-.02-.38-.12-.18-.1-.33-.15-.45-.15-.05 0-.09.01-.14.03-.71.21-1.42.48-2.13.83-1.7.78-3.26 1.78-4.68 2.99-2.29-.94-3.54-1.46-3.75-1.55-1.42-.62-2.13-1.08-2.13-1.38V1.77c0-.16.27-.39.81-.69.54-.3.93-.44 1.19-.41.28.02.83.2 1.65.53.83.33 1.5.5 2.03.5.69 0 1.58-.31 2.68-.93 1.01-.6 1.64-.85 1.89-.76.55.18 1.37.79 2.46 1.81 1.09 1.02 1.68 1.75 1.77 2.18.05.21-.17.56-.64 1.07-.47.5-.85.76-1.15.76-.25 0-.44-.03-.55-.1-.11-.07-.2-.09-.24-.07-.83.18-1.59.4-2.3.65-1.7.57-2.95 1.24-3.75 1.99v5.6c.8-.41 1.84-.84 3.13-1.27.37-.05 1.14.46 2.32 1.53s1.77 1.81 1.77 2.22c0 .25-.16.55-.48.89-.32.34-.63.56-.93.65-.23 0-.63.02-1.2.07-.87.16-2.41.89-4.61 2.2v3.61c.69-.41 1.62-.9 2.8-1.46 1.18-.56 1.91-.84 2.18-.84.32 0 1.13.5 2.42 1.5s1.92 1.63 1.87 1.91zM98.96 24.64c.21.39-.2 1.35-1.22 2.87s-1.87 2.27-2.56 2.25c-.73-.02-1.32-.41-1.75-1.17-.07-.23-.24-.56-.52-1l-7.26-6.77v6.36c0 .25.1.57.29.96.19.39.29.68.29.86 0 .69-.45 1.07-1.34 1.13-.69.07-1.71-.06-3.06-.38-1.47-.32-2.2-.67-2.2-1.03 0-.11.03-.27.09-.46s.09-.44.09-.74V3.53c0-.16-.03-.3-.1-.43s-.1-.22-.1-.29c.02-.62.48-.99 1.38-1.1.28-.05.9.06 1.87.33.97.26 1.67.38 2.08.36.39-.02 1.19-.34 2.39-.95 1.2-.61 2.25-.91 3.15-.91.34 0 .7.03 1.07.1.64.14 1.23.44 1.75.89.53.46 1.03.92 1.51 1.38 1.26 1.19 1.91 1.82 1.96 1.89.6.69.92 1.46.96 2.3.14 2.66-2.13 6.07-6.81 10.25.96.87 3.08 2.99 6.36 6.36.21.07.5.21.89.41.23.11.49.29.79.52zm-7.6-19.22c-1.08 0-2.98 1.12-5.71 3.37v5.26c.99-.39 2.28-1.57 3.89-3.54 1.6-1.97 2.41-3.44 2.41-4.4 0-.46-.2-.69-.58-.69zM130.15 27.32c-.02.21-.07.7-.14 1.48-.02.41-.11.72-.28.93-.11.07-.31.1-.58.1-.76 0-1.7-.2-2.82-.58-1.22-.37-2.04-.8-2.48-1.31-.18-.21-.37-.89-.55-2.06-.25-1.54-.54-2.81-.86-3.82-.87.11-2.14.43-3.82.95-1.67.52-2.76.95-3.27 1.29-.34.99-.8 2.2-1.38 3.64-.07.32-.14.62-.22.91-.08.29-.28.52-.6.7-.07.05-.17.07-.31.07-.55 0-1.47-.29-2.77-.86-1.3-.57-1.97-.95-2.01-1.13-.09-.32.13-1.11.65-2.37.73-1.83 1.16-2.96 1.27-3.37-.48-.48-.72-.96-.72-1.44 0-.11.01-.24.03-.38.05-.28.74-.77 2.1-1.48l4.44-15.16c.07-.28.08-.78.03-1.51-.05-.62.02-1.01.21-1.17.11-.11.39-.17.83-.17 1.08 0 2.61.28 4.61.83 1.99.55 3.19 1.04 3.58 1.48.14 2.54.65 6.36 1.55 11.45 1.15 6.28 2.32 10.61 3.51 13zm-8.98-10.45c-.3-1.44-.48-2.4-.55-2.85a47.88 47.88 0 0 1-.52-4.78c-.46 1.12-1 2.68-1.62 4.68-.67 2.09-1.02 3.39-1.07 3.92.44-.18 1.68-.5 3.75-.96zM148.13 24.71c-.28 1.08-.71 1.73-1.31 1.96-.18.07-.43.08-.74.03s-.53-.03-.67.03l-5.09 2.13c-.16.07-.33.26-.5.58-.17.32-.34.5-.5.55-.5.18-1.57.01-3.2-.52-1.63-.53-2.61-1.02-2.96-1.48-.25-.37-.33-.94-.24-1.72.05-.37.07-.65.07-.86V2.32a1.26 1.26 0 0 0-.28-.58c-.14-.16-.21-.3-.21-.41.05-.44.45-.76 1.2-.96.48-.11 1.52.06 3.13.52 1.81.53 2.73 1.15 2.75 1.86 0 .18-.13.46-.38.83-.25.37-.38.64-.38.83v19.01l3.58-1.55c.21-.18.6-.39 1.17-.62.32-.05 1.18.44 2.58 1.46 1.4 1.02 2.05 1.69 1.96 2.01zM156.11 2.22c0 .16-.05.38-.15.65-.1.27-.17.45-.19.52-.14.46-.28 1.17-.41 2.13v21.11c0 .28.07.52.21.74.14.22.21.4.21.53 0 1.47-.28 2.26-.83 2.37-.21.05-1.01-.1-2.41-.45-1.47-.37-2.32-.65-2.54-.86-.5-.44-.76-.84-.76-1.2 0-.09.05-.19.14-.31.09-.11.14-.31.14-.58V2.63c0-.14-.04-.28-.12-.43a.905.905 0 0 1-.12-.43c.05-.55.47-.92 1.27-1.1.25-.05.78-.05 1.58 0 .99.07 1.81.2 2.48.38 1.01.27 1.51.67 1.51 1.17zM174.5 24.91c-.07.39-.27.81-.6 1.25-.33.45-.62.72-.88.81-.07.02-.2-.02-.38-.12-.18-.1-.33-.15-.45-.15-.05 0-.09.01-.14.03-.71.21-1.42.48-2.13.83-1.7.78-3.26 1.78-4.68 2.99-2.29-.94-3.54-1.46-3.75-1.55-1.42-.62-2.13-1.08-2.13-1.38V1.77c0-.16.27-.39.81-.69.54-.3.93-.44 1.19-.41.28.02.83.2 1.65.53.83.33 1.5.5 2.03.5.69 0 1.58-.31 2.68-.93 1.01-.6 1.64-.85 1.89-.76.55.18 1.37.79 2.46 1.81 1.09 1.02 1.68 1.75 1.77 2.18.05.21-.17.56-.64 1.07-.47.5-.85.76-1.15.76-.25 0-.44-.03-.55-.1-.11-.07-.2-.09-.24-.07-.83.18-1.59.4-2.3.65-1.7.57-2.95 1.24-3.75 1.99v5.6c.8-.41 1.84-.84 3.13-1.27.37-.05 1.14.46 2.32 1.53s1.77 1.81 1.77 2.22c0 .25-.16.55-.48.89-.32.34-.63.56-.93.65-.23 0-.63.02-1.2.07-.87.16-2.41.89-4.61 2.2v3.61c.69-.41 1.62-.9 2.8-1.46 1.18-.56 1.91-.84 2.18-.84.32 0 1.13.5 2.42 1.5s1.92 1.63 1.87 1.91zM196.13 2.22c0 .25-.05.49-.14.72-.16.39-.26.7-.31.93v22.69c0-.07.06.36.17 1.27.14 1.05 0 1.74-.41 2.06-.41.32-1.34.41-2.79.28-.83-.07-1.78-.29-2.85-.65-1.4-.44-2.17-.89-2.3-1.38.02-.32-.01-.81-.1-1.48-1.28-3.39-2.77-7.12-4.47-11.18v10.18c0 .18.08.42.24.72.21.39.31.6.31.62.11.34.17.69.17 1.03 0 .92-.41 1.38-1.24 1.38s-1.94-.23-3.4-.69c-1.38-.46-2.15-.81-2.34-1.07-.28-.37-.28-.84 0-1.41s.41-.93.41-1.07V3.63c0-.14-.03-.34-.1-.62-.07-.27-.08-.49-.03-.65.23-.78.68-1.31 1.34-1.58.11-.05.37-.07.76-.07.89 0 1.81.11 2.75.34 1.21.27 2.06.67 2.54 1.17.64.69 1.48 2.79 2.51 6.29 1.26 4.31 2.25 7.22 2.96 8.73V3.73c0-.18-.05-.44-.14-.77-.09-.33-.14-.59-.14-.77 0-.14.02-.26.07-.38.11-.39.55-.68 1.31-.86.6-.16 1.17-.22 1.72-.17.53.05 1.16.17 1.89.38 1.05.32 1.59.68 1.62 1.07zM25.28 49.21c-.02.32-.29.72-.81 1.19s-.89.7-1.12.7c-.32 0-.52.01-.58.03v8.66c0-.07.11.36.34 1.27.21 1.47.03 2.33-.52 2.58-.11.05-.29.07-.52.07-.8 0-1.83-.29-3.09-.86-1.35-.6-2.18-1.19-2.48-1.79-.02-.21-.06-.52-.1-.93-.05-.16.03-.38.24-.65s.31-.45.31-.52v-6.95c-.44.05-1.3.22-2.58.52-1.28.3-2.13.53-2.54.69v6.98c0 .16.07.35.22.57.15.22.23.38.26.5-.09.37-.17.72-.24 1.07-.07.25-.2.41-.38.48-.37.14-1.39-.07-3.08-.64-1.68-.56-2.57-1.01-2.66-1.36-.07-.25-.09-.53-.07-.83.07-.46.1-.78.1-.96V37.02c0-.37.1-1 .31-1.89.05-.23.44-.55 1.17-.96.05-.02.17-.03.38-.03.85 0 1.74.14 2.68.41 1.21.37 1.86.85 1.93 1.44.02.21-.07.6-.29 1.17-.22.57-.33.96-.33 1.17v8.39c1.56-.39 3.27-.79 5.12-1.2v-9.59s-.05-.22-.15-.52c-.1-.3-.13-.54-.09-.72.11-.41.49-.68 1.13-.79.48-.07.96-.13 1.44-.17.5-.07 1.24.08 2.22.45.97.37 1.52.76 1.63 1.17.05.18 0 .42-.14.72-.16.39-.24.71-.24.96v9.49c.11.14.65.63 1.62 1.48.62.55.92.95.89 1.2zM43.33 58.4c-.07.39-.27.81-.6 1.25-.33.45-.62.72-.88.81-.07.02-.2-.02-.38-.12-.18-.1-.33-.15-.45-.15-.05 0-.09.01-.14.03-.71.21-1.42.48-2.13.83-1.7.78-3.26 1.78-4.68 2.99-2.29-.94-3.54-1.46-3.75-1.55-1.42-.62-2.13-1.08-2.13-1.38V35.25c0-.16.27-.39.81-.69.54-.3.93-.44 1.19-.41.28.02.83.2 1.65.53.83.33 1.5.5 2.03.5.69 0 1.58-.31 2.68-.93 1.01-.6 1.64-.85 1.89-.76.55.18 1.37.79 2.46 1.81 1.09 1.02 1.68 1.75 1.77 2.18.05.21-.17.56-.64 1.07-.47.5-.85.76-1.15.76-.25 0-.44-.03-.55-.1-.11-.07-.2-.09-.24-.07-.83.18-1.59.4-2.3.65-1.7.57-2.95 1.24-3.75 1.99v5.6c.8-.41 1.84-.84 3.13-1.27.37-.05 1.14.46 2.32 1.53s1.77 1.81 1.77 2.22c0 .25-.16.55-.48.89-.32.34-.63.56-.93.65-.23 0-.63.02-1.2.07-.87.16-2.41.89-4.61 2.2v3.61c.69-.41 1.62-.9 2.8-1.46 1.18-.56 1.91-.84 2.18-.84.32 0 1.13.5 2.42 1.5s1.92 1.63 1.87 1.91zM64.96 58.12c.21.39-.2 1.35-1.22 2.87s-1.87 2.27-2.56 2.25c-.73-.02-1.32-.41-1.75-1.17-.07-.23-.24-.56-.52-1l-7.26-6.77v6.36c0 .25.1.57.29.96.19.39.29.68.29.86 0 .69-.45 1.07-1.34 1.13-.69.07-1.71-.06-3.06-.38-1.47-.32-2.2-.67-2.2-1.03 0-.11.03-.27.09-.46s.09-.44.09-.74V37c0-.16-.03-.3-.1-.43s-.1-.22-.1-.29c.02-.62.48-.99 1.38-1.1.28-.05.9.06 1.87.33.97.26 1.67.38 2.08.36.39-.02 1.19-.34 2.39-.95 1.2-.61 2.25-.91 3.15-.91.34 0 .7.03 1.07.1.64.14 1.23.44 1.75.89.53.46 1.03.92 1.51 1.38 1.26 1.19 1.91 1.82 1.96 1.89.6.69.92 1.46.96 2.3.14 2.66-2.13 6.07-6.81 10.25.96.87 3.08 2.99 6.36 6.36.21.07.5.21.89.41.23.11.49.29.79.52zm-7.6-19.22c-1.08 0-2.98 1.12-5.71 3.37v5.26c.99-.39 2.28-1.57 3.89-3.54 1.6-1.97 2.41-3.44 2.41-4.4 0-.46-.2-.69-.58-.69zM78.16 63.24c-.48.05-1.02-.02-1.62-.19-.6-.17-1.18-.35-1.75-.53-.69-.18-1.77-.52-3.23-1-1.83-.8-3.22-2.38-4.16-4.75-.83-2.09-1.24-4.61-1.24-7.56 0-2.41.41-5.21 1.24-8.42 1.12-4.31 2.58-6.46 4.37-6.46.16 0 .38.04.67.12.29.08.51.13.67.15 1.7-.48 2.79-.72 3.27-.72.23 0 .46.01.69.03 2.75.34 4.92 2.06 6.5 5.16 1.42 2.8 2.13 6.13 2.13 10.01 0 3.67-.64 6.82-1.93 9.46-1.38 2.87-3.24 4.44-5.6 4.71zm-.62-25.2c-.5-.14-1 .54-1.5 2.03-.49 1.49-.99 2.24-1.5 2.24-.11 0-.28-.06-.5-.19-.22-.13-.4-.2-.53-.22-.78 1.72-1.17 4.17-1.17 7.36 0 2.5.26 4.64.79 6.43.6 1.99 1.42 3.09 2.48 3.3 1.24.23 2.23-1.04 2.99-3.82.66-2.43 1-5.32 1-8.67 0-2.27-.17-4.17-.52-5.71-.37-1.65-.88-2.57-1.55-2.75zM113.68 49.83c.05.34.07.69.07 1.03 0 1.9-.81 3.95-2.44 6.15-1.31 1.77-2.91 3.35-4.81 4.75-1.74 1.26-2.92 1.84-3.54 1.75-.69-.09-1.9-.6-3.64-1.53-1.74-.93-2.68-1.56-2.82-1.91a.617.617 0 0 1-.07-.31c0-.14.04-.31.12-.53.08-.22.12-.38.12-.5V36.45c0-.37.5-.55 1.51-.55.46 0 .86.05 1.2.14 1.08-.69 2.44-1.3 4.07-1.84 1.64-.54 3.04-.81 4.21-.81.69 0 1.22.1 1.6.29.38.19.73.53 1.05 1.01.41.67.7 1.08.86 1.24.05.05.42.36 1.13.93.41.34.68.71.79 1.1.09.27.14.57.14.89 0 1.81-1.2 3.78-3.61 5.91 2.45 1.86 3.8 3.54 4.06 5.05zm-6.02-11.17c-.05-.09-.17-.14-.38-.14-.53 0-1.35.28-2.48.83-1.12.55-1.88 1.08-2.27 1.58v3.58c1.47-1.17 2.73-2.36 3.8-3.58 1.07-1.21 1.51-1.97 1.32-2.27zm1.24 10.18c-.6.02-1.6.31-3.03.86-1.54.62-2.65 1.23-3.34 1.82v6.4c1.49-.41 2.96-1.67 4.4-3.78 1.44-2.11 2.1-3.87 1.96-5.3zM133.79 36.73c.02-.25.03 1.94.03 6.57 0 13.07-1.82 19.81-5.47 20.22-.64.07-1.42-.05-2.32-.34-.91-.3-1.79-.6-2.66-.89-.76-.18-1.52-.38-2.29-.6-.77-.22-1.37-.57-1.81-1.05-.94-1.03-1.7-3.28-2.27-6.74-.5-3.19-.76-6.72-.76-10.59 0-2.98.16-5.6.48-7.87.09-.71.42-1.17 1-1.38.25-.09 1.13.07 2.63.48s2.38.77 2.63 1.07c.11.14.17.32.17.55 0 .3-.11.7-.34 1.22-.23.52-.33.92-.31 1.22-.11.44-.17 1.7-.17 3.78 0 4.03.18 7.69.55 10.97.46 4.22 1.12 6.28 1.99 6.19 1.1-.11 1.93-2.12 2.48-6.02.44-3 .65-6.54.65-10.62 0-2.68-.08-4.37-.24-5.05.05-.39 0-.77-.14-1.13-.21-.5-.31-.78-.31-.83-.14-.78.11-1.36.76-1.75.11-.07.31-.1.58-.1.69 0 1.65.17 2.89.52 1.24.34 1.96.63 2.17.86.14.16.16.61.07 1.34zM153.56 45.5c0 2.5-.68 5.22-2.03 8.15a33.421 33.421 0 0 1-4.06 6.67c-1.44 1.79-2.51 2.83-3.2 3.13-.34.14-.73.21-1.17.21-1.01 0-2.15-.32-3.44-.96-1.15-.53-2.01-1.1-2.58-1.72V36.22c.07-.6.41-.95 1.03-1.07.07-.02.64.06 1.72.24.21.02.89-.22 2.05-.72 1.16-.5 2.15-.76 2.97-.76 1.01 0 1.97.26 2.89.79.53.32 1.32.94 2.37 1.86 1.54 1.33 2.53 2.73 2.99 4.2.3.99.45 2.57.45 4.75zm-5.7-6.64c-.11-.07-.3-.1-.55-.1-1.22 0-2.67.53-4.37 1.58v15.47c1.56-.89 2.89-3.08 3.99-6.57.94-3 1.41-5.73 1.41-8.18 0-1.28-.16-2.02-.48-2.2zM172.89 45.5c0 2.5-.68 5.22-2.03 8.15a33.421 33.421 0 0 1-4.06 6.67c-1.44 1.79-2.51 2.83-3.2 3.13-.34.14-.73.21-1.17.21-1.01 0-2.15-.32-3.44-.96-1.15-.53-2.01-1.1-2.58-1.72V36.22c.07-.6.41-.95 1.03-1.07.07-.02.64.06 1.72.24.21.02.89-.22 2.05-.72 1.16-.5 2.15-.76 2.97-.76 1.01 0 1.97.26 2.89.79.53.32 1.32.94 2.37 1.86 1.54 1.33 2.53 2.73 2.99 4.2.3.99.45 2.57.45 4.75zm-5.71-6.64c-.11-.07-.3-.1-.55-.1-1.22 0-2.67.53-4.37 1.58v15.47c1.56-.89 2.89-3.08 3.99-6.57.94-3 1.41-5.73 1.41-8.18 0-1.28-.16-2.02-.48-2.2zM195.51 36.84c.14 1.19-.14 1.95-.83 2.27-.39.18-.57.28-.55.28-1.33 2.04-3.08 5.63-5.26 10.76-2.04 4.86-3.11 7.78-3.2 8.77-.02.18.02.5.14.96.11.46.16.84.14 1.13-.14 1.56-.53 2.4-1.17 2.51-.32.05-1.12-.13-2.39-.52s-2.13-.72-2.56-1c-.78-.55-1.17-1.1-1.17-1.65 0-.28.08-.58.24-.93.32-.89 1-2.73 2.03-5.5-1.9-3.92-3.19-6.62-3.85-8.11-1.33-2.98-2.27-5.42-2.82-7.32-.05-.11-.18-.29-.4-.52-.22-.23-.33-.44-.33-.62 0-.34.45-.86 1.34-1.55 1.9-1.47 3.21-2.15 3.92-2.06.37.05.7.29 1 .72.25.34.4.65.45.93 0 .44.07 1.13.21 2.1.53 2.84 1.63 5.93 3.3 9.25 1.28-3.14 2.01-4.87 2.17-5.19a40.19 40.19 0 0 1 2.96-5.47c.09-.37.25-.84.48-1.41.46-.53 1.08-.74 1.86-.65.55.07 1.39.47 2.53 1.2 1.13.73 1.72 1.27 1.77 1.62zM22.1 94.47c-.02.21-.07.7-.14 1.48-.02.41-.11.72-.28.93-.11.07-.31.1-.58.1-.76 0-1.7-.2-2.82-.58-1.22-.37-2.04-.8-2.48-1.31-.18-.21-.37-.89-.55-2.06-.25-1.54-.54-2.81-.86-3.82-.87.11-2.14.43-3.82.95-1.67.52-2.76.95-3.27 1.29-.34.99-.8 2.2-1.38 3.64-.07.32-.14.62-.22.91-.08.29-.28.52-.6.7-.07.05-.17.07-.31.07-.55 0-1.47-.29-2.77-.86-1.3-.57-1.97-.95-2.01-1.13-.09-.32.13-1.11.65-2.37.73-1.83 1.16-2.96 1.27-3.37-.48-.48-.72-.96-.72-1.44 0-.11.01-.24.03-.38.05-.28.74-.77 2.1-1.48l4.44-15.16c.07-.28.08-.78.03-1.51-.05-.62.02-1.01.21-1.17.11-.11.39-.17.83-.17 1.08 0 2.61.28 4.61.83 1.99.55 3.19 1.04 3.58 1.48.14 2.54.65 6.36 1.55 11.45 1.15 6.28 2.32 10.61 3.51 13zm-8.98-10.45c-.3-1.44-.48-2.4-.55-2.85a47.88 47.88 0 0 1-.52-4.78c-.46 1.12-1 2.68-1.62 4.68-.67 2.09-1.02 3.39-1.07 3.92.44-.18 1.68-.5 3.75-.96zM41.28 79.17c0 2.5-.68 5.22-2.03 8.15a33.421 33.421 0 0 1-4.06 6.67c-1.44 1.79-2.51 2.83-3.2 3.13-.34.14-.73.21-1.17.21-1.01 0-2.15-.32-3.44-.96-1.15-.53-2.01-1.1-2.58-1.72V69.89c.07-.6.41-.95 1.03-1.07.07-.02.64.06 1.72.24.21.02.89-.22 2.05-.72 1.16-.5 2.15-.76 2.97-.76 1.01 0 1.97.26 2.89.79.53.32 1.32.94 2.37 1.86 1.54 1.33 2.53 2.73 2.99 4.2.3.99.45 2.57.45 4.75zm-5.71-6.64c-.11-.07-.3-.1-.55-.1-1.22 0-2.67.53-4.37 1.58v15.47c1.56-.89 2.89-3.08 3.99-6.57.94-3 1.41-5.73 1.41-8.18 0-1.28-.16-2.02-.48-2.2zM62.94 70.06c-1.19 3.05-2.54 7.68-4.06 13.89-1.38 5.62-2.05 8.8-2.03 9.56-.02.07 0 .6.07 1.58.05.53-.03 1.01-.24 1.44-.23.55-.54.86-.93.93-.67.14-2-.12-4.01-.76s-3.16-1.2-3.46-1.68c-.14-.23-.22-.53-.24-.89-.02-.46-.06-.77-.1-.93-2.61-8.27-4.18-15.69-4.71-22.25 0-.11-.06-.36-.17-.72-.07-.27-.09-.52-.07-.72.11-.8.45-1.29 1-1.48.28-.09 1.24.13 2.89.65 1.74.55 2.7 1.02 2.89 1.41.09.23.09.71 0 1.44-.02.14-.1.34-.24.6-.14.26-.2.49-.17.67.34 2.41.66 4.53.96 6.36.73 4.4 1.31 7.01 1.72 7.84.39-2.13 1.08-4.86 2.06-8.18.99-3.32 1.67-6.1 2.06-8.32.02-.44.13-1.02.31-1.75.25-.55.63-.91 1.13-1.07.37-.11 1.23.08 2.58.58 1.47.57 2.38 1.17 2.75 1.79zM80.76 92.06c-.07.39-.27.81-.6 1.25-.33.45-.62.72-.88.81-.07.02-.2-.02-.38-.12-.18-.1-.33-.15-.45-.15-.05 0-.09.01-.14.03-.71.21-1.42.48-2.13.83-1.7.78-3.26 1.78-4.68 2.99-2.29-.94-3.54-1.46-3.75-1.55-1.42-.62-2.13-1.08-2.13-1.38V68.91c0-.16.27-.39.81-.69.54-.3.93-.44 1.19-.41.28.02.83.2 1.65.53.83.33 1.5.5 2.03.5.69 0 1.58-.31 2.68-.93 1.01-.6 1.64-.85 1.89-.76.55.18 1.37.79 2.46 1.81 1.09 1.02 1.68 1.75 1.77 2.18.05.21-.17.56-.64 1.07-.47.5-.85.76-1.15.76-.25 0-.44-.03-.55-.1-.11-.07-.2-.09-.24-.07-.83.18-1.59.4-2.3.65-1.7.57-2.95 1.24-3.75 1.99v5.6c.8-.41 1.84-.84 3.13-1.27.37-.05 1.14.46 2.32 1.53s1.77 1.81 1.77 2.22c0 .25-.16.55-.48.89-.32.34-.63.56-.93.65-.23 0-.63.02-1.2.07-.87.16-2.41.89-4.61 2.2v3.61c.69-.41 1.62-.9 2.8-1.46 1.18-.56 1.91-.84 2.18-.84.32 0 1.13.5 2.42 1.5s1.92 1.63 1.87 1.91zM102.38 69.37c0 .25-.05.49-.14.72-.16.39-.26.7-.31.93v22.69c0-.07.06.36.17 1.27.14 1.05 0 1.74-.41 2.06-.41.32-1.34.41-2.79.28-.83-.07-1.78-.29-2.85-.65-1.4-.44-2.17-.89-2.3-1.38.02-.32-.01-.81-.1-1.48-1.28-3.39-2.77-7.12-4.47-11.18v10.18c0 .18.08.42.24.72.21.39.31.6.31.62.11.34.17.69.17 1.03 0 .92-.41 1.38-1.24 1.38s-1.94-.23-3.4-.69c-1.38-.46-2.15-.81-2.34-1.07-.28-.37-.28-.84 0-1.41s.41-.93.41-1.07V70.76c0-.14-.03-.34-.1-.62-.07-.27-.08-.49-.03-.65.23-.78.68-1.31 1.34-1.58.11-.05.37-.07.76-.07.89 0 1.81.11 2.75.34 1.21.27 2.06.67 2.54 1.17.64.69 1.48 2.79 2.51 6.29 1.26 4.31 2.25 7.22 2.96 8.73V70.86c0-.18-.05-.44-.14-.77-.09-.33-.14-.59-.14-.77 0-.14.02-.26.07-.38.11-.39.55-.68 1.31-.86.6-.16 1.17-.22 1.72-.17.53.05 1.16.17 1.89.38 1.05.32 1.59.68 1.62 1.07zM121.6 73.49c-.18 0-.44-.07-.76-.22s-.58-.2-.79-.15l-3.54.96v18.09c0 .67.16 1.39.48 2.17.09.23.07.67-.07 1.31-.14.71-.36 1.16-.65 1.34-.05.02-.16.03-.34.03-.76 0-1.81-.15-3.16-.45-1.51-.34-2.41-.68-2.68-1-.32-.41-.31-.96.03-1.65.3-.6.45-1.03.45-1.31V75.59l-2.44.62c-.12.02-.3.12-.57.29-.26.17-.49.24-.67.19-.53-.14-1.25-.82-2.17-2.05-.92-1.23-1.32-2.06-1.2-2.49.18-.53.72-.93 1.62-1.2.23-.07.53-.08.89-.03.37.05.65.05.86 0l11.97-3.06c.11-.02.45-.16 1-.41.37-.16.7-.22 1-.17.64.09 1.08.34 1.31.76.16.28.33.79.52 1.55.23.89.34 1.67.34 2.34 0 .5-.06.89-.19 1.15-.13.26-.53.41-1.22.43zM142.61 70.4c.02-.25.03 1.94.03 6.57 0 13.07-1.82 19.81-5.47 20.22-.64.07-1.42-.05-2.32-.34-.91-.3-1.79-.6-2.66-.89-.76-.18-1.52-.38-2.29-.6-.77-.22-1.37-.57-1.81-1.05-.94-1.03-1.7-3.28-2.27-6.74-.5-3.19-.76-6.72-.76-10.59 0-2.98.16-5.6.48-7.87.09-.71.42-1.17 1-1.38.25-.09 1.13.07 2.63.48s2.38.77 2.63 1.07c.11.14.17.32.17.55 0 .3-.11.7-.34 1.22-.23.52-.33.92-.31 1.22-.11.44-.17 1.7-.17 3.78 0 4.03.18 7.69.55 10.97.46 4.22 1.12 6.28 1.99 6.19 1.1-.11 1.93-2.12 2.48-6.02.44-3 .65-6.54.65-10.62 0-2.68-.08-4.37-.24-5.05.05-.39 0-.77-.14-1.13-.21-.5-.31-.78-.31-.83-.14-.78.11-1.36.76-1.75.11-.07.31-.1.58-.1.69 0 1.65.17 2.89.52 1.24.34 1.96.63 2.17.86.14.16.16.61.07 1.34zM165.24 91.79c.21.39-.2 1.35-1.22 2.87s-1.87 2.27-2.56 2.25c-.73-.02-1.32-.41-1.75-1.17-.07-.23-.24-.56-.52-1l-7.26-6.77v6.36c0 .25.1.57.29.96.19.39.29.68.29.86 0 .69-.45 1.07-1.34 1.13-.69.07-1.71-.06-3.06-.38-1.47-.32-2.2-.67-2.2-1.03 0-.11.03-.27.09-.46s.09-.44.09-.74v-24c0-.16-.03-.3-.1-.43s-.1-.22-.1-.29c.02-.62.48-.99 1.38-1.1.28-.05.9.06 1.87.33.97.26 1.67.38 2.08.36.39-.02 1.19-.34 2.39-.95 1.2-.61 2.25-.91 3.15-.91.34 0 .7.03 1.07.1.64.14 1.23.44 1.75.89.53.46 1.03.92 1.51 1.38 1.26 1.19 1.91 1.82 1.96 1.89.6.69.92 1.46.96 2.3.14 2.66-2.13 6.07-6.81 10.25.96.87 3.08 2.99 6.36 6.36.21.07.5.21.89.41.23.11.49.29.79.52zm-7.6-19.22c-1.08 0-2.98 1.12-5.71 3.37v5.26c.99-.39 2.28-1.57 3.89-3.54 1.6-1.97 2.41-3.44 2.41-4.4 0-.46-.2-.69-.58-.69zM183.08 92.06c-.07.39-.27.81-.6 1.25-.33.45-.62.72-.88.81-.07.02-.2-.02-.38-.12-.18-.1-.33-.15-.45-.15-.05 0-.09.01-.14.03-.71.21-1.42.48-2.13.83-1.7.78-3.26 1.78-4.68 2.99-2.29-.94-3.54-1.46-3.75-1.55-1.42-.62-2.13-1.08-2.13-1.38V68.91c0-.16.27-.39.81-.69.54-.3.93-.44 1.19-.41.28.02.83.2 1.65.53.83.33 1.5.5 2.03.5.69 0 1.58-.31 2.68-.93 1.01-.6 1.64-.85 1.89-.76.55.18 1.37.79 2.46 1.81 1.09 1.02 1.68 1.75 1.77 2.18.05.21-.17.56-.64 1.07-.47.5-.85.76-1.15.76-.25 0-.44-.03-.55-.1-.11-.07-.2-.09-.24-.07-.83.18-1.59.4-2.3.65-1.7.57-2.95 1.24-3.75 1.99v5.6c.8-.41 1.84-.84 3.13-1.27.37-.05 1.14.46 2.32 1.53s1.77 1.81 1.77 2.22c0 .25-.16.55-.48.89-.32.34-.63.56-.93.65-.23 0-.63.02-1.2.07-.87.16-2.41.89-4.61 2.2v3.61c.69-.41 1.62-.9 2.8-1.46 1.18-.56 1.91-.84 2.18-.84.32 0 1.13.5 2.42 1.5s1.92 1.63 1.87 1.91zM200 91.2c0 1.7-.56 3.09-1.68 4.18-1.12 1.09-2.68 1.66-4.68 1.7-.5 0-1.04-.08-1.62-.24-1.05-.3-1.6-.45-1.65-.45-.55-.11-1.11-.24-1.67-.36-.56-.13-1.05-.38-1.46-.77-.62-.55-1.12-1.44-1.51-2.68-.48-1.44-.85-2.35-1.1-2.72-.18-.18-.4-.5-.65-.96-.07-.34 0-.68.19-1.01.19-.33.43-.54.7-.64.14-.05.39-.07.76-.07.8 0 1.78.1 2.94.29 1.16.19 1.81.37 1.94.53.14.16.32.99.55 2.48.21 1.38.52 2.14.93 2.3.09.05.19.07.31.07.44 0 .81-.36 1.12-1.08s.46-1.54.46-2.46c0-1.99-.62-3.32-1.86-3.99-2.84-1.54-4.84-2.96-5.98-4.26-1.33-1.51-1.93-3.3-1.79-5.36.11-1.72.74-3.46 1.87-5.21 1.13-1.75 2.33-2.78 3.59-3.08.53-.11 2.13.39 4.81 1.51.66.25 1.34.52 2.01.79.68.28 1.22.68 1.63 1.2.64.8.96 2.19.96 4.16 0 .37-.01.91-.03 1.62-.02.62-.03 1.05-.03 1.31.02.16.1.42.24.79.11.25.16.5.14.76-.05 1.01-.47 1.57-1.27 1.68-.46.07-1.31-.1-2.54-.52-1.38-.44-2.25-.91-2.61-1.41-.05-.07-.07-.3-.07-.69 0-.34.04-1.12.12-2.34.08-1.21.12-2.1.12-2.65 0-.99-.11-1.47-.34-1.44-.71.05-1.3.56-1.77 1.53s-.7 2.08-.7 3.32c0 2.06.61 3.53 1.82 4.4 1.38.87 2.75 1.74 4.13 2.61 1.31.85 2.21 1.7 2.72 2.54.64 1.1.96 2.64.96 4.61z" fill="#fff"/></svg>