<svg xmlns="http://www.w3.org/2000/svg" viewBox="0 0 250 108"><path d="M14.32 26.97C6.41 26.97 0 21.03 0 13.7S6.41.42 14.32.42h1.57v26.55h-1.57zM88.73 26.97c-7.91 0-14.32-5.94-14.32-13.27S80.82.42 88.73.42h1.57v26.55h-1.57zM94.82 26.97c7.91 0 14.32-5.94 14.32-13.27S102.73.42 94.82.42h-1.57v26.55h1.57zM17.44.42h13.93v10.23L17.44.42zM19.08 14.22v12.76h1.57c5.41 0 12.27-3.3 12.27-8.76v-3.99H19.08zM231.39 26.97c-7.91 0-14.32-5.94-14.32-13.27S223.48.42 231.39.42h1.57v26.55h-1.57zM234.51.42h13.94v10.23L234.51.42zM236.16 14.22v12.76h1.57c5.41 0 12.27-3.3 12.27-8.76v-3.99h-13.84zM37.52.42H51.6v26.55H37.52zM162.48.42h14.08v26.55h-14.08zM69.17 7.32c0 3.81-4.52 6.9-10.11 6.9h-2.99l15.34 12.76H54.55L54.44.43h4.62c5.58 0 10.11 3.09 10.11 6.9zM131.37 26.97h-10.09L111.32.42h14.09l8.05 21.49-2.09 5.06zM148.61 26.97h-10.09L128.56.42h14.09l8.05 21.49-2.09 5.06zM145.56.42h13.35l-6.67 17.46L145.56.42zM181.99 3.2V.42h13.98l16.41 23.6v2.95h-14.5L181.99 3.2zM200.09.42l12.29 19.63V.42h-12.29zM181.99 7.02l11.77 19.95h-11.77V7.02zM108.35 40.9v26.51h1.57c5.41 0 12.27-1.23 12.27-8.76V40.91h-13.84zM105.39 40.9v26.51h-1.57c-5.41 0-12.27-1.23-12.27-8.76V40.91h13.84zM126.75 40.9h14.08v26.55h-14.08zM159.27 48.72c0 4.32-4.86 7.82-10.85 7.82h-4.84l-.12-15.64h4.96c5.99 0 10.85 3.5 10.85 7.82zM40.77 107.58c-7.91 0-14.32-5.94-14.32-13.27s6.41-13.27 14.32-13.27h1.57v26.55h-1.57zM43.89 81.03h13.94v10.22L43.89 81.03zM45.54 94.82v12.76h1.57c5.41 0 12.27-3.3 12.27-8.76v-3.99H45.54zM98.47 83.8v-2.77h13.98l16.41 23.59v2.96h-14.5L98.47 83.8zM116.57 81.03l12.29 19.62V81.03h-12.29zM98.47 87.63l11.77 19.95H98.47V87.63zM208.5 81.03h14.08v26.55H208.5zM133.79 81.03h14.08v26.55h-14.08zM189.4 81.03v11.13h-3.73V81.03h-14.08v26.55h14.08V94.3h3.73v13.28h14.08V81.03H189.4zM152.52 81.03c8.98 0 15.18 5.94 15.18 13.27s-4.7 13.27-15.18 13.27h-1.67V81.02h1.67zM80.12 107.58H94.3l-8.15-26.55H71.69l5.02 15.83h-3.6l-3.43-10.72-8.27 21.44h15.13l-2.85-8.93h3.59l2.84 8.93z" fill="#fff"/></svg>