<svg xmlns="http://www.w3.org/2000/svg" width="250" height="95" viewBox="0 0 250 95"><path d="M76.67,45.68l3.22-.83Q77.18,37.25,73.51,26,75.46,39.49,76.67,45.68Z" fill="#fff"/><path d="M247.37,28.46l-37.63-14a4,4,0,0,0-5.18,2.38l-12.24,33L201.47,16a4.05,4.05,0,0,0-2.84-5L159.88.61a4,4,0,0,0-4.94,2.84l-4.79,17.73V4a4,4,0,0,0-4-4H106a4,4,0,0,0-4,4V35.72l-7.74-30a4,4,0,0,0-4.9-2.9l-38.88,10a4.05,4.05,0,0,0-2.9,4.91l6,23.45-9-20.82a4,4,0,0,0-5.3-2.1L2.43,34.1a4,4,0,0,0-2.1,5.3L23,91.93A4,4,0,0,0,28.29,94l36.85-15.9a4,4,0,0,0,2.18-2.32L105.57,66a3.93,3.93,0,0,0,1.45-.71h39.1a4.09,4.09,0,0,0,1.6-.33l33.87,9.15a4,4,0,0,0,3.19-.48A4.08,4.08,0,0,0,187,75.7l37.63,14a4,4,0,0,0,5.18-2.38l19.9-53.64A4,4,0,0,0,247.37,28.46ZM6.73,47.14A5,5,0,0,0,9,42.24a3,3,0,0,1-2.65,1.94c-2.62.34-2.9-2.32-2-3.58,2.55-3.76,1.72-6,1.72-6s1.51,2.24,5.5,2.83c1.51.22,3.27,2.24,1.25,3.93a3,3,0,0,1-3.41.55,4.82,4.82,0,0,0,5.06,1.91ZM49.4,73.71A10.34,10.34,0,0,1,44,78.56a11.76,11.76,0,0,1-7.21,1A9.24,9.24,0,0,1,31.29,76a45.08,45.08,0,0,1-4.95-9.22L20.86,54.07a73.58,73.58,0,0,1-2.79-7.16,12.4,12.4,0,0,1-.45-5.17,9.9,9.9,0,0,1,2-4.93,11.22,11.22,0,0,1,4.58-3.45,11.38,11.38,0,0,1,7.31-.87,9.75,9.75,0,0,1,5.43,3.37,39.81,39.81,0,0,1,4.67,8.63l1.78,4.13-8.88,3.83-3.26-7.56a18.09,18.09,0,0,0-2.06-4,1.29,1.29,0,0,0-1.6-.27,1.42,1.42,0,0,0-1,1.59,21,21,0,0,0,1.56,4.43l8.72,20.2a19.16,19.16,0,0,0,2.08,4,1.5,1.5,0,0,0,2.62-1.14A21.48,21.48,0,0,0,39.94,65l-2.35-5.47,8.88-3.83.73,1.69a46.15,46.15,0,0,1,3.38,9.9A10.43,10.43,0,0,1,49.4,73.71Zm1.22-52.57a19.29,19.29,0,0,0,2.08-3.3,25.16,25.16,0,0,0,1.09-4.13A24.55,24.55,0,0,0,57,16.57a19.06,19.06,0,0,0,3.55,1.62,19.76,19.76,0,0,0-2.09,3.3,25.86,25.86,0,0,0-1.08,4.13,24.55,24.55,0,0,0-3.16-2.86A19.37,19.37,0,0,0,50.62,21.14ZM58.1,78.35a5.07,5.07,0,0,0,2.26-4.91,3,3,0,0,1-2.66,2c-2.62.34-2.9-2.32-2-3.59,2.55-3.75,1.72-6,1.72-6s1.5,2.25,5.5,2.83c1.51.22,3.27,2.24,1.25,3.94a2.94,2.94,0,0,1-3.41.54,4.76,4.76,0,0,0,5,1.91ZM84.85,61l-2.62-8.12-3.35.87,1.56,8.39-9.69,2.49-7-47.1,13.54-3.49,17.15,44.5Zm19.39-.28a25.86,25.86,0,0,0-1.08,4.13A26.15,26.15,0,0,0,100,62a19.37,19.37,0,0,0-3.55-1.62,19.29,19.29,0,0,0,2.08-3.3A25.14,25.14,0,0,0,99.62,53a25.35,25.35,0,0,0,3.16,2.86,19.8,19.8,0,0,0,3.55,1.62A20,20,0,0,0,104.24,60.76Zm9.5-51.95a2.17,2.17,0,0,1-2.13,2.42c-.91,0-2.26-1.21-2.9-1.84-.08.74-.22,3,1.09,3.64h-2.89c1.3-.67,1.17-2.87,1.09-3.63-.65.63-2,1.83-2.89,1.83A2.17,2.17,0,0,1,103,8.81h0v0a2.17,2.17,0,0,1,2.13-2.42,4.1,4.1,0,0,1,2.13,1.15,6,6,0,0,1-1.31-2.63,2.17,2.17,0,0,1,2.42-2.13h0a2.17,2.17,0,0,1,2.42,2.13,5.88,5.88,0,0,1-1.29,2.6,4,4,0,0,1,2.1-1.12,2.17,2.17,0,0,1,2.13,2.42v0Zm21.51,26a7.9,7.9,0,0,1,1.23,2.79,56.36,56.36,0,0,1,.24,7V57.14h-9V41.4c0-2.54-.15-4.11-.47-4.71s-1.13-.91-2.47-.91V57.14h-9.67V9.77H122q6.84,0,9.27.68a6.59,6.59,0,0,1,3.95,3.43c1,1.85,1.52,4.79,1.52,8.82q0,5.54-1.08,7.44t-4.24,2.28A6.79,6.79,0,0,1,135.25,34.85ZM148.59,59a2.18,2.18,0,0,1-2.13,2.42c-.92,0-2.27-1.21-2.9-1.84-.09.75-.22,3,1.08,3.64h-2.89c1.3-.67,1.17-2.87,1.09-3.63-.64.63-2,1.83-2.89,1.83A2.17,2.17,0,0,1,137.82,59h0v0A2.16,2.16,0,0,1,140,56.52a4.1,4.1,0,0,1,2.14,1.14A6,6,0,0,1,140.78,55a2.17,2.17,0,0,1,2.42-2.13h0A2.17,2.17,0,0,1,145.64,55a5.83,5.83,0,0,1-1.29,2.6,4.06,4.06,0,0,1,2.11-1.11,2.17,2.17,0,0,1,2.13,2.41v0Zm9.59-55.63c2.72-.32,2.87,2.61,2.87,2.61s1.77-2.34,3.84-.56.19,5.12-1.39,6c-1.08.6-5.26,3.74-5.26,3.74s-1.72-4.95-2.27-6C155.15,7.46,155.44,3.64,158.18,3.33Zm15.5,57.94a6.23,6.23,0,0,1-3.23.88,20.39,20.39,0,0,1-5.14-.89l-11.78-3.18,12.36-45.72,7,1.89q6.76,1.82,8.93,3.26a7.14,7.14,0,0,1,2.93,3.58,9.66,9.66,0,0,1,.46,4.44,78.87,78.87,0,0,1-2,8.8l-4.33,16a49.34,49.34,0,0,1-2.68,8.11A6.86,6.86,0,0,1,173.68,61.27Zm11.87,7.66c-1.08.6-5.26,3.73-5.26,3.73s-1.71-4.94-2.27-6c-.82-1.61-.53-5.43,2.21-5.75s2.87,2.61,2.87,2.61,1.77-2.33,3.84-.55S187.13,68.05,185.55,68.93Zm19.67-44.57c-2.15-1.52-.56-3.67.93-4,4.42-1,5.33-3.23,5.33-3.23s-.42,2.67,2.12,5.81c1,1.19.88,3.87-1.76,3.74A3,3,0,0,1,209,24.75a4.78,4.78,0,0,0,2.42,4.83L203.5,26.8a5,5,0,0,0,5-2.06A3,3,0,0,1,205.22,24.36Zm21.87,61.37a3,3,0,0,1-2.87-1.92,4.79,4.79,0,0,0,2.42,4.84l-7.89-2.78a5.05,5.05,0,0,0,5-2.07,3,3,0,0,1-3.27-.37c-2.15-1.53-.56-3.68.93-4,4.42-1,5.33-3.23,5.33-3.23s-.42,2.67,2.12,5.81C229.81,83.18,229.73,85.85,227.09,85.73Zm3.67-40.55-.65,1.75-8.42-3.12,1.22-3.29a8.56,8.56,0,0,0,.76-3.06,1.2,1.2,0,0,0-.84-1,1.42,1.42,0,0,0-1.55.39,6.55,6.55,0,0,0-1.38,2.43,9.57,9.57,0,0,0-.77,3.52,8.22,8.22,0,0,0,1.55,3.67q4.37,6.81,4.84,10.34t-1.94,10a22.06,22.06,0,0,1-3.46,6.67A8.18,8.18,0,0,1,215.35,76a11.65,11.65,0,0,1-6.38-.63,11.49,11.49,0,0,1-5.56-4.06,8.61,8.61,0,0,1-1.72-5.72,31,31,0,0,1,2.07-8l1.08-2.9,8.42,3.12-2,5.4a9.41,9.41,0,0,0-.83,3.35,1.38,1.38,0,0,0,1,1.18,1.53,1.53,0,0,0,1.68-.41,6.76,6.76,0,0,0,1.44-2.52q1.46-3.93,1.07-5.44a31.19,31.19,0,0,0-2.75-5.61,46.38,46.38,0,0,1-2.94-5.8,10.89,10.89,0,0,1-.5-4.25,20.76,20.76,0,0,1,1.44-6.08q1.89-5.1,3.79-7.08a8.22,8.22,0,0,1,4.67-2.46,11.52,11.52,0,0,1,6,.71,12.65,12.65,0,0,1,5.48,3.69,7.57,7.57,0,0,1,1.93,4.89Q232.73,39.88,230.76,45.18Z" fill="#fff"/><path d="M173.12,22.7,165,52.78c1.35.36,2.27.25,2.77-.36s1.15-2.43,2-5.48l4.8-17.76a30.17,30.17,0,0,0,.92-4,2,2,0,0,0-.36-1.47A3.85,3.85,0,0,0,173.12,22.7Z" fill="#fff"/><path d="M124.8,17.88V28.41a3.53,3.53,0,0,0,2.29-.57c.43-.38.65-1.61.65-3.7V21.53a4.72,4.72,0,0,0-.63-3A3,3,0,0,0,124.8,17.88Z" fill="#fff"/></svg>