<svg xmlns="http://www.w3.org/2000/svg" width="180" height="146" viewBox="0 0 180 146"><path d="M62.34 135.55a29 29 0 0 0-3.09-1.71 6.63 6.63 0 0 1-1.42-.86.86.86 0 0 1-.32-.67.88.88 0 0 1 .32-.7 1.71 1.71 0 0 1 1.15-.3 5.83 5.83 0 0 1 2.54.57 13.63 13.63 0 0 1 2.21 1.33.29.29 0 0 0 .31 0 .3.3 0 0 0 .17-.27v-4.06a.31.31 0 0 0-.13-.25 8.42 8.42 0 0 0-1.1-.57 10.8 10.8 0 0 0-2-.65 11 11 0 0 0-2.64-.29 7.66 7.66 0 0 0-3.43.7 5 5 0 0 0-2.13 1.93 5.3 5.3 0 0 0-.7 2.68 5 5 0 0 0 .7 2.67 6.13 6.13 0 0 0 1.77 1.9 15.13 15.13 0 0 0 2.45 1.33 9.16 9.16 0 0 1 1.81.95 1.15 1.15 0 0 1 .52.94 1.05 1.05 0 0 1-.3.64c-.11.13-.44.34-1.43.34a6.08 6.08 0 0 1-2.48-.51 17.75 17.75 0 0 1-2.42-1.33.31.31 0 0 0-.31 0 .3.3 0 0 0-.15.26v4.25a.3.3 0 0 0 .17.28 15.79 15.79 0 0 0 2.63.94 14.51 14.51 0 0 0 2 .39c.5 0 .94.07 1.28.07a8.27 8.27 0 0 0 3.39-.66 5.38 5.38 0 0 0 2.37-1.89 5.24 5.24 0 0 0 .85-3 4.63 4.63 0 0 0-.71-2.61 6.4 6.4 0 0 0-1.88-1.84zM82.39 127.38h-4a.3.3 0 0 0-.3.3v6.07H71.7v-6.07a.3.3 0 0 0-.3-.3h-4a.3.3 0 0 0-.3.3V145a.29.29 0 0 0 .3.3h4a.29.29 0 0 0 .3-.3v-6.94h6.38V145a.29.29 0 0 0 .3.3h4a.29.29 0 0 0 .3-.3v-17.32a.3.3 0 0 0-.29-.3zM100.28 129.89a7.94 7.94 0 0 0-2.82-2 9.89 9.89 0 0 0-3.87-.73 9 9 0 0 0-4.94 1.29 8 8 0 0 0-3 3.4 10.52 10.52 0 0 0-1 4.5 10.72 10.72 0 0 0 1 4.49 8.11 8.11 0 0 0 3 3.41 10.09 10.09 0 0 0 9.82 0 7.87 7.87 0 0 0 3-3.36 10.5 10.5 0 0 0 1-4.59 11.07 11.07 0 0 0-.56-3.51 8.79 8.79 0 0 0-1.63-2.9zm-9.88 2.67a4 4 0 0 1 3.18-1.34 4.53 4.53 0 0 1 1.88.37 3.81 3.81 0 0 1 1.36 1 4.26 4.26 0 0 1 .84 1.54 6.75 6.75 0 0 1 .29 2 6.25 6.25 0 0 1-.52 2.6 3.92 3.92 0 0 1-1.43 1.76 4.33 4.33 0 0 1-2.37.62 4 4 0 0 1-3.17-1.34 6.12 6.12 0 0 1 0-7.21zM126.86 127.4a.31.31 0 0 0-.24-.13h-4.26a.3.3 0 0 0-.28.21l-2.72 8.72-2.92-8.72a.3.3 0 0 0-.29-.21h-3a.3.3 0 0 0-.28.21l-3 8.71-2.59-8.7a.3.3 0 0 0-.29-.22h-4.3a.28.28 0 0 0-.24.13.29.29 0 0 0 0 .27l5 17.55a.31.31 0 0 0 .29.21H111a.3.3 0 0 0 .28-.2l3.38-9.1 3.3 9.1a.29.29 0 0 0 .28.2h3.21a.32.32 0 0 0 .29-.21l5.15-17.55a.29.29 0 0 0-.03-.27zM62.26 104.42v.37l-1.44-.73L55.16 117l2.9 1.94 1-2.23 3.54-.46.14 1.42 3.35.81-.42-13.42zm-1.34 7.9l1.41-3.25.29 3zM72.54 106.32l-3.46-1.41-2.19 12.32 3.04 1.42 6.75-1.59.52-5.12-5.82.63 1.16-6.25zM41.49 104.69l-2.22 12.54 3.18 1.42 2.29-12.68-3.25-1.28zM23.94 104.62l-1.42 7.12-2.4 1.15 1.27-6.61-3.32-1.48-2.33 13.03 2.69 1.03 3.28-1.87 3.78 1.87 2.09-12.51-3.64-1.73zM12.78 104.62l-3.85 5.2-2.16-4-3.21-1.2-2.23 12.44 3.36 1.48.81-4.87 2.29 4.8 3.61-4.45-.74 3.14 3.07 1.7 2.33-12.79-3.28-1.45zM87.48 115.33V114l4.21-.57-.32-2.4-3.18.25V110l6-.46.18-4.62s-5.87-.57-9.47.42l-1.27 6.29 1.27-.36-1.27 5.37 1.8.5.28 1.76s7.32-.67 7.88-1.3l-1.17-3.22s-3.24 1.33-4.94.95zM48.7 115.18c-1.24-1.06 3.39-7 3.53-2.61h3.82l.63-1.48s-.85-5.34-2.22-5.94-7-1.24-9.33 5c-1.27 3.43-.39 3.5-.39 3.5s.21 3.28 1.35 4a4.84 4.84 0 0 0 5.47.32c2.37-1.41 2.58-2.05 2.58-2.05l-2.69-1.8s-1.51 2.12-2.75 1.06zM32.13 112.68s2.55-4.35 3-1.49l4.38-.92s-.78-4.8-2.76-5.4-6.25.07-8.37 4.8.5 4.84.5 4.84l5.72-.21s-1.24 2.33-2.83.92l-3 2.33a4.61 4.61 0 0 0 3.95 1.31c2.37-.43 5.94-4.59 5.94-4.59L37.25 112zM151.29 104.69l-2.23 12.54 3.18 1.42 2.3-12.68-3.25-1.28zM174.53 105.03l-.82 5.05-5.46-5.39-2.39 12.42 3.43 1.54.61-4.35 5.45 4.35 2.31-12.43-3.13-1.19zM141.88 112.68s2.54-4.35 3-1.49l4.38-.92s-.77-4.8-2.75-5.4-6.25.07-8.37 4.8a12 12 0 0 0-.61 1.64 2.36 2.36 0 0 0 .09-.91c-.24-.89-1-3.47-1-3.47-.27-.87-1.37-3.1-5.85-1.63s-5.39 7.31-5.15 8.17.9 2.93 1.11 3.46.85 2 4.89 1.5c3.18-.36 5.25-4.57 5.87-6.79-.65 2.8 1.18 2.87 1.18 2.87l5.72-.21s-1.23 2.33-2.82.92l-3 2.33a4.62 4.62 0 0 0 4 1.31c2.36-.43 5.93-4.59 5.93-4.59L147 112zm-11.44 2.58c-2.37.78-.53-4.57 2.08-4.12 1.32.23.29 3.35-2.08 4.12zM115.92 110.24c0-1.2-.78-4.24-1-5.19s-6.29-.6-8.87 0l-1.31 6.53 1.1-.28-1.1 6.29 3.08 1.48.42-3.25s7.76-4.38 7.68-5.58zm-7 2.54l.28-2.22s2.3-1 2.23.24-2.54 1.98-2.54 1.98zM102.22 104.75l-2.27 3.3-.95-3.11-4.03.32 2.19 6.56-3.18 4.57 2.51 2.68 2.16-3.25.74 2.68 4.49-.53-2.51-6.15 3.1-4.51-2.25-2.56zM121 106.18l-3.36-1.44-2.22 12.49 3.17 1.13c1.63-1 6.33-1.37 6.33-1.37l.49-5.08-5.65.63zM166.3 110.62c-.24-.9-1-3.48-1-3.48-.27-.86-1.37-3.09-5.86-1.62s-5.38 7.3-5.14 8.16.9 2.94 1.11 3.47.85 2 4.89 1.5 6.25-7.14 6-8.03zm-7 4.64c-2.37.78-.53-4.57 2.08-4.12 1.33.23.3 3.35-2.07 4.12zM152.39 79.32l5.16-.42 1.27 6.03 2.62-5.61h4.59l1.02 17.05-4.4.81-.64-9.55-3.63 7.89-2.87-8-1.15 8.85-4.65-.72 2.68-16.33zM142.6 78.46c-3.46-.25-6.57 3.59-6.95 8.59s2.13 9.27 5.59 9.53 6.57-3.58 6.94-8.58-2.12-9.28-5.58-9.54zm1.4 9.69c-.15 2.09-1.24 3.71-2.43 3.62s-2-1.85-1.86-3.94 1.24-3.71 2.43-3.62 2.06 1.86 1.86 3.94zM91.09 79.76l1.52 16.16 3.86-.59 1.47-6.51 1.42 6.89 3.68-.48 4.16-16.26h-4.12l-1.56 7.3-1.03-5.24-3.87.74-1.22 3.57-.4-6.37-3.91.79zM87.17 77.85a7 7 0 0 0-5.14.93l-4.56 16a5.75 5.75 0 0 0 4.56.74l1-4.12h2.49l.71 4.07c1.25.29 4.24-.74 4.24-.74zM83.5 88.42l1-3.57.88 3.57zM64.61 89s3.82-2.62 3.56-5.92-5.88-5.29-10.91-1.84l-.41 14.47 4.84 1.76v-5.61l3.56 5.36 3.67-3.45zm-3.07-1.65v-2.92s1.8-1.16 2.21 0c.55 1.57-2.21 2.89-2.21 2.89zM43.77 78.8l10.87-.4v4.38l-6.6.38v1.61l3.52-.2-.03 3.46-3.42.3v2.14l6.53-.86v5.17L44.1 95.87l-.33-17.07zM108.6 79.3l10.87-.4v4.38l-6.59.38v1.61l3.52-.2-.04 3.46-3.41.3v2.14l6.52-.86v5.17l-10.53 1.09-.34-17.07zM169.13 78.09l10.87-.4v4.39l-6.6.37v1.61l3.53-.2-.04 3.46-3.41.3v2.14l6.52-.86v5.17l-10.53 1.09-.34-17.07zM40.54 80.38c-2.51-3.11-9.75-.67-9.75-.67l-.26 17.21 4.5-1v-6a7.52 7.52 0 0 0 3.82-.91 5.74 5.74 0 0 0 1.69-8.63zm-5.47 6.23v-3.94s3.27-.71 3.26 1.16c-.01 2.52-3.26 2.78-3.26 2.78zM16.36 79.6l4.31-.87s-2.62 10.88.3 11 1.72-10.12 1.72-10.12l4-1.61s3.56 17.42-5.3 18.37c-9.39.96-5.03-16.77-5.03-16.77zM13 79l-.75 4.54s-4.38-1.42-6.71.3-.94 2.78.86 1.95S12.08 85 12.72 88a7.67 7.67 0 0 1-4 8.74 11.87 11.87 0 0 1-7.88.49v-4.89s5.16 1.28 6.75-.56.07-2.62-1.13-2-4.54 1.81-6.15-1.71S3.39 76.52 13 79zM134.28 77l-.75 4.33s-4.39-1.36-6.72.28-.93 2.65.87 1.86 5.07-.41 5.93 2.35a6.88 6.88 0 0 1-3.68 8 12.4 12.4 0 0 1-7.88.47v-4.56s5.21 1.22 6.79-.53.07-2.51-1.13-1.93-4.21 1.75-5.82-1.61 2.75-11.01 12.39-8.66zM167.25 45.48l.77-6.67h-19.77l-3.48 24.21h20l.81-6.57h-10.13l.3-2.44h8.97l.86-6.19h-9.08l.28-2.34h10.47zM145.9 38.81h-22.75l-1.09 6.94h6.74l-2.45 17.27h9.62l2.33-17.27h6.74l.86-6.94zM86.74 54.08c9.21-3.55 7.53-12.23 1.52-14.59s-17.15-.26-17.15-.26L67.82 63h9.46l1-7.31c.77 2.44 2.59 6.88 5.77 7.63a10.82 10.82 0 0 0 7.53-.79l.63-5.44c-4.37.44-5.47-3.01-5.47-3.01zm-3.4-6.85c-.34 2.37-3.11 2.6-4.34 2.59l.63-4.76c1.56-.06 4 .07 3.71 2.17zM110.06 63h9.88L115 38.81h-11.21L92.34 63h9.83l1.64-4h5.72zm-3.88-9.83l1.95-4.76.63 4.76zM61.39 38.81H50.14l-11 22.82.53-4.52c-4.6.11-6.38-6.85-6.38-6.85 7.53-4.62 7.79-11.45 7.79-11.45h-9.55c0 4.34-3.21 7-4.65 8l1.1-8h-9.89l-3.24 24.11h9.83l.86-6.3c1.23 2.63 3.48 6.71 7.61 6.71a34.42 34.42 0 0 0 5.34-.33h10l1.65-4h5.71l.54 4h9.91zm-8.85 14.38l1.94-4.76.63 4.76zM78.06.49L76.8 9.28H72L73.26.49h-9.73l-3.45 24.13h9.73l1.27-8.9h4.8l-1.27 8.9h9.73L87.79.49h-9.73zM47.41 0C36.34-.27 30.84 8.55 32 15.78S38.84 26.07 46.85 25s11.95-6.27 12.23-13.61S54.41.18 47.41 0zm-2.23 18.23c-5.06.89-3.89-11 1.06-11.12 4.06-.11 4 10.23-1.06 11.12zM17.16.49h14s-1.61 11-2.05 13.9-.62 8.47-7.52 10.41-10.78-1-10.78-1l2.67-6.56s5.23 1.89 5.79-1.67.94-7.95.94-7.95H16.1zM107.15.49l-1.51 10.55L101.13.49H91.4l-3.45 24.13h9.41l1.5-10.53 4.84 10.53h9.09L116.24.49h-9.09zM146.11.49h9.68l2.31 7.43 4.62-7.43h9.01v1.32l-9.81 14.08-1.04 8.73h-9.91l1.37-8.59L146.11.49zM135.77.49l-1.5 10.55L129.75.49h-9.73l-3.45 24.13h9.41l1.5-10.53 4.85 10.53h9.08L144.86.49h-9.09z" fill="#fff"/></svg>