<svg xmlns="http://www.w3.org/2000/svg" width="180" height="131" viewBox="0 0 180 131"><path d="M55.36,93.11c-.32,0-2-3.66-1.91-19.82.1-15.16,6.79-34.33,14.6-45.49C76.27,16.05,94.48,2.16,115.44.31s37.06,5,46.64,11.8C172.52,19.5,180.63,30.39,180,30.84S171.85,20.48,161.69,14c-12-7.68-28-12.56-47.37-10.54s-36.71,13.88-44.48,25A79.17,79.17,0,0,0,56.47,59.66C53.69,73.23,55.46,93.11,55.36,93.11Z" fill="#fff"/><path d="M53.28,31.72c0-.93,0-1.73,0-2.53,0-.39-.3-1,.51-1s.56.58.56,1c0,3.61,0,7.21,0,10.82v5.61H53.28c0-1.52,0-3,0-4.52a28.51,28.51,0,0,0-.34-4.33c-.55-2.95-2.06-4.24-5.05-4.54a7.9,7.9,0,0,0-5,1,6.24,6.24,0,0,0-1.64,9,12.37,12.37,0,0,0,4.22,3.45c3.23,1.84,6.5,3.61,9.7,5.49a14.7,14.7,0,0,1,6,6A14.48,14.48,0,0,1,58.39,73a18.37,18.37,0,0,1-10.8,5.35,20.11,20.11,0,0,1-13.15-2.19,13,13,0,0,1-4.18-19.31,12.81,12.81,0,0,1,15.27-3.58,6.79,6.79,0,0,1,4.23,6.35c0,3.47-2.58,5.46-6,4.59a4.51,4.51,0,0,1-.92-.3.58.58,0,0,1-.26-.48.76.76,0,0,1,.43-.45,1.93,1.93,0,0,1,.64,0,3,3,0,0,0,3.13-2.84,5.81,5.81,0,0,0-5-6.4,9.81,9.81,0,0,0-12,10.89,11.75,11.75,0,0,0,5.33,8.84A17.08,17.08,0,0,0,53.45,74.6c5.85-3,8.07-10.88,4.86-16.3A12.54,12.54,0,0,0,53.72,54c-3.11-1.84-6.28-3.57-9.34-5.48a23.8,23.8,0,0,1-4.12-3.22,8,8,0,0,1-2-8.77c1.11-3.31,3.6-5.11,7-5.73a13.26,13.26,0,0,1,7,.63C52.52,31.51,52.83,31.58,53.28,31.72Z" fill="#fff"/><path d="M88.19,123.94l.8.86a15.67,15.67,0,0,1-3.73,3.09,20,20,0,0,1-11,2.83,23,23,0,0,1-15.86-6.06C52.91,119.5,50.57,113,51,105.56a23.1,23.1,0,0,1,6.36-15.23c5-5.29,11.31-7.58,18.54-7.47a24.93,24.93,0,0,1,8.35,1.71l.84.3V80.58c.62-.19,1-.25,1,.57,0,5.52,0,11,0,16.55,0,.16,0,.32-.06.53H85v-2c0-1.34,0-2.69,0-4a6.94,6.94,0,0,0-5.45-7.09,19,19,0,0,0-16,2.77c-5.89,3.89-8.82,9.46-9.2,16.45-.42,7.6,1.75,14.18,7.51,19.38s14.91,6.72,21.74,3.41A16.39,16.39,0,0,0,86,125.74C86.75,125.21,87.42,124.59,88.19,123.94Z" fill="#fff"/><path d="M114.12,77.53h-8.33v-1H108c0-.34.06-.6.06-.86,0-6.32,0-12.64,0-19a17.57,17.57,0,0,0-.24-2.81c-.63-3.64-2.72-5.25-6.73-4.77-3.28.4-5.31,2.92-5.55,6.62-.06,1,0,2,0,3V73.9c0,2.2.41,2.57,2.59,2.6l.78,0v1H89.55v-1c.78,0,1.53,0,2.27,0s.81-.32.81-.92q0-10.26,0-20.5V52l-.19-.09L89.76,55,89,54.34l7-8,.76.69c-1.62,1.07-1.39,2.63-1.26,4.34l.63-.81a8.89,8.89,0,0,1,10.4-3,5.2,5.2,0,0,1,3.48,4,28.48,28.48,0,0,1,.79,5.65c.1,5.41,0,10.81,0,16.22a9.54,9.54,0,0,0,.12,1.69c.16.93.6,1.27,1.55,1.33a6.61,6.61,0,0,0,.89,0C114.18,76.4,114.36,76.76,114.12,77.53Z" fill="#fff"/><path d="M135.73,116.51v1.08h-4.31c-2,0-2,0-2-2v-1.67l-.17-.08c-.24.3-.49.6-.72.9-2.45,3.19-5.69,4-9.5,3.16a5.39,5.39,0,0,1-4-3.67,19.23,19.23,0,0,1-1-6.51c0-5.33,0-10.65,0-16a11.13,11.13,0,0,0,0-1.29c-.17-1.44-.65-1.86-2.1-1.88h-2.24v-.92h7.2v1.06c0,6.51,0,13,0,19.53a20.55,20.55,0,0,0,.26,3.13c.59,3.51,2.79,5.13,6.37,4.74a6.38,6.38,0,0,0,5.77-6.08c.07-.72.11-1.45.11-2.17q0-8.07,0-16.14a12.32,12.32,0,0,0-.1-1.61,1.53,1.53,0,0,0-1.73-1.53c-.72,0-1.44,0-2.15,0-.27-.73-.11-1,.63-1,1.83,0,3.67,0,5.5,0,.21,0,.42,0,.72.06v1.07q0,12.23,0,24.45a14.34,14.34,0,0,0,.1,1.85A1.45,1.45,0,0,0,134,116.5C134.56,116.52,135.1,116.51,135.73,116.51Z" fill="#fff"/><path d="M153.7,60.11c.05-3,.06-5.75-1-8.39S149.1,47.83,146,48.3c-3.68.55-6.14,3.18-6.66,7.16a20.1,20.1,0,0,0-.14,2.33c0,.54-.16.77-.76.56a5.29,5.29,0,0,1-.06-.6c0-3.85,0-7.7,0-11.54,0-.25.18-.68.34-.71.58-.11.44.39.44.7,0,1.58,0,3.16,0,5l.8-.78a11,11,0,0,1,9.73-3.27c3.3.44,5.41,2.36,6.1,5.88a37,37,0,0,1,.66,6.4c.1,4.7,0,9.41,0,14.12,0,2.67.3,3,2.95,3h1.23v1h-6.89V74.89l-.9.69a10.69,10.69,0,0,1-8.57,2.51,9.29,9.29,0,0,1-7.65-7.66A10.2,10.2,0,0,1,145.09,58a11.78,11.78,0,0,1,7.75,1.63Zm.24,5.27a5.49,5.49,0,0,0-.44-1.93,7.22,7.22,0,0,0-6.57-4.34c-2.92-.1-5.36.93-6.67,3.64a10.44,10.44,0,0,0,.44,10.55,6.83,6.83,0,0,0,7.19,3.31,6.63,6.63,0,0,0,5.83-4.89A33.15,33.15,0,0,0,153.94,65.38Z" fill="#fff"/><path d="M90.09,76.49v1H82.17V74.91c-.59.45-1,.78-1.44,1.08a10.29,10.29,0,0,1-9.09,1.87,9.57,9.57,0,0,1-6.75-8.59c-.32-4,1-7.33,4.43-9.6,3.67-2.44,7.5-2.29,11.35-.35.45.23.89.48,1.49.8a22.84,22.84,0,0,0,0-2.5,35,35,0,0,0-.67-4.7c-.85-3.49-3.15-5.08-7.1-4.59A7.49,7.49,0,0,0,67.81,55c-.14.91-.16,1.83-.28,2.73a2,2,0,0,1-.39.7c-.12-.25-.35-.5-.35-.75,0-3.36,0-6.73,0-10.09,0-.51,0-1,0-1.53,0-.21.23-.4.35-.59.13.2.38.4.39.61,0,1.37,0,2.74,0,4.12,0,.25,0,.51,0,.77l.32.24a3.14,3.14,0,0,1,.44-.78,11.06,11.06,0,0,1,9.71-3.31,6.5,6.5,0,0,1,5.89,5,22.42,22.42,0,0,1,.83,5.32c.13,5.29.08,10.6.11,15.9A10.31,10.31,0,0,0,85,75.17c.17.94.59,1.27,1.55,1.32.4,0,.81,0,1.21,0ZM82.39,65.6a4.38,4.38,0,0,0-.68-2.6,7.26,7.26,0,0,0-6.45-3.89,6.8,6.8,0,0,0-6.46,3.37,11,11,0,0,0,.6,11.24,6.94,6.94,0,0,0,7.25,2.82,6.56,6.56,0,0,0,5.58-5.16C82.49,70.24,82.33,66.32,82.39,65.6Z" fill="#fff"/><path d="M137,117.58l18.22-28.93c-.38,0-.61-.06-.83-.06H145c-.42,0-.85.06-1.28.1a3.93,3.93,0,0,0-3.8,3.47c-.32,1.87-.37,3.79-.54,5.69a5.35,5.35,0,0,1,0,.8c0,.16-.21.29-.33.44a1.73,1.73,0,0,1-.37-.4,1.1,1.1,0,0,1,0-.48V84.82c0-.14,0-.3,0-.4A3.47,3.47,0,0,1,139,84c.11.15.31.3.31.46,0,1,0,2,0,3.15h19.93l-18.38,28.86a7.17,7.17,0,0,0,.75.08c2.85,0,5.71,0,8.57,0a22.1,22.1,0,0,0,3.13-.3A4.36,4.36,0,0,0,157.4,112c.19-2.08.19-4.18.25-6.28,0-.51.12-.79.77-.56,0,.23,0,.49,0,.75v13.72c0,.47.07,1-.79.71v-2.72Z" fill="#fff"/><path d="M118.63,48.58H116l-.06-.94h2.68c0-.41,0-.72,0-1,0-4.12,0-8.23,0-12.35a2.24,2.24,0,0,1,.5-1.27c.66-.83,1.41-1.59,2.12-2.37l.19.08V47.6h6.35c.27.74.09,1-.65,1-1.85,0-3.71,0-5.61,0a6.66,6.66,0,0,0-.08.67c0,6.19,0,12.38.06,18.56a21.49,21.49,0,0,0,.72,5.17,5.2,5.2,0,0,0,8.31,2.89A19.13,19.13,0,0,0,133.22,73c.12-.14.18-.34.29-.49a1,1,0,0,1,1.35-.34,1.39,1.39,0,0,1,.5,1.13,4.36,4.36,0,0,1-1.91,2.88A9.55,9.55,0,0,1,126.91,78c-4.51-.3-7.4-3.18-7.94-8a59.44,59.44,0,0,1-.32-6.12c-.05-4.76,0-9.52,0-14.28Z" fill="#fff"/><path d="M99.52,117.55h-9.3v-1c.82,0,1.64,0,2.46,0,.51,0,.72-.12.72-.67,0-7.88,0-15.76,0-23.64a3.48,3.48,0,0,0-.09-.45L90.54,95l-.82-.61c2.35-2.66,4.66-5.27,7-8l.79.67c-1.52,1-1.46,2.46-1.25,4.16a9.86,9.86,0,0,1,5.46-3.94,10.88,10.88,0,0,1,6.66.64V85.39h.88V97.45h-.85V94.78c0-3.35-1.64-5.51-4.42-5.93a6.37,6.37,0,0,0-7.29,4.24,11.73,11.73,0,0,0-.5,3.33c0,5.78,0,11.56,0,17.35v.32c.08,2,.47,2.41,2.52,2.42C99.71,116.52,99.73,116.55,99.52,117.55Z" fill="#fff"/><rect x="160.76" y="104.89" width="18.34" height="0.9" fill="#fff"/><rect x="160.76" y="109.46" width="18.34" height="0.9" fill="#fff"/><rect x="160.76" y="113.65" width="18.34" height="0.9" fill="#fff"/><rect x="160.76" y="117.8" width="18.34" height="0.9" fill="#fff"/><rect y="104.89" width="48.36" height="0.9" fill="#fff"/><rect x="5.03" y="109.46" width="43.33" height="0.9" fill="#fff"/><rect x="13.42" y="113.65" width="34.94" height="0.9" fill="#fff"/><rect x="24.18" y="117.8" width="24.18" height="0.9" fill="#fff"/></svg>