<svg xmlns="http://www.w3.org/2000/svg" width="350" height="111" viewBox="0 0 350 111"><path d="M284.3,105.41c-2.24,1.22-4.12,2.3-6.06,3.24a2.08,2.08,0,0,1-1.53-.27c-5.23-2.51-5.23-2.52-5.23-8.38,0-7.88-.07-15.76,0-23.63,0-2-.38-3.41-2.39-4.1a6,6,0,0,1-1.27-.87c2.08-1.16,4-2.24,5.88-3.25a1.52,1.52,0,0,1,1.22,0c1.61.94,3.16,2,5.07,3.15,1.43-.76,3.32-1.7,5.14-2.76a2.51,2.51,0,0,1,2.88,0c2.29,1.39,4.68,2.62,6.92,4.07a3.1,3.1,0,0,1,1.23,2.11c.15,2.66,0,5.34.09,8a2.52,2.52,0,0,1-1.7,2.82,31.47,31.47,0,0,0-2.85,1.59c1.22.72,2.14,1.35,3.14,1.83a2.18,2.18,0,0,1,1.35,2.3c-.06,3,.09,6.07-.06,9.09a3.14,3.14,0,0,0,2.16,3.51A25.19,25.19,0,0,1,301,105.4c-2.22,1.22-4.05,2.26-5.92,3.22a2.64,2.64,0,0,1-1.22,0,1.71,1.71,0,0,1-.49-.24c-4.87-2.41-4.87-2.41-4.87-7.88,0-2.12,0-4.24,0-6.36,0-1.89-2.77-3.62-4.49-2.8a27.4,27.4,0,0,0-3.82,2.13,2.62,2.62,0,0,0-.89,1.78c-.12,1.81.05,3.64-.07,5.45a2.54,2.54,0,0,0,1.71,2.83A37.52,37.52,0,0,1,284.3,105.41Zm-5-15.72c3.15-1.74,5.89-3.24,8.61-4.8a1.4,1.4,0,0,0,.62-1c.05-2.29,0-4.59,0-6.88a1.37,1.37,0,0,0-.36-.79,5.44,5.44,0,0,0-7-1.11c-.74.45-1.73,1.27-1.76,2C279.19,81.09,279.28,85.13,279.28,89.69Z" fill="#fff"/><path d="M297.73,48.56c-2.19,1.21-4,2.24-5.81,3.15a2,2,0,0,1-1.52-.08,23.91,23.91,0,0,1-4.14-2.32,3.22,3.22,0,0,1-1-2.29c-.07-9-.13-18,0-26.94,0-2.33-.39-4-2.75-4.79a5.82,5.82,0,0,1-1-.73c2.15-1.19,4.07-2.29,6.05-3.28a1.72,1.72,0,0,1,1.36.24c2,1.19,4.83,1.69,4.05,5.51,2.65-1.48,4.84-2.75,7.08-3.94,4.76-2.53,2.83-2.41,7.81,0,3.2,1.56,4.19,3.55,4.05,7.05-.3,7.69,0,15.4-.14,23.11,0,1.88.42,3.12,2.25,3.81a20.23,20.23,0,0,1,2.59,1.47c-2.22,1.21-4.09,2.28-6,3.24a1.86,1.86,0,0,1-1.36-.18c-5.13-2.27-5.12-2.27-5.12-7.89q0-11.64,0-23.29c0-2.77-2.19-4.05-4.65-2.72-1.6.87-3.17,1.82-4.81,2.61A2.73,2.73,0,0,0,293,23.21c.06,6.67.1,13.34,0,20,0,2,.46,3.25,2.36,3.94A17.68,17.68,0,0,1,297.73,48.56Z" fill="#fff"/><path d="M163,46.82c-2.74,1.5-5.37,2.87-7.92,4.38a2.81,2.81,0,0,1-3.34.06,56.3,56.3,0,0,0-5.45-3,3,3,0,0,1-1.88-3.14c.07-8.43,0-16.86.08-25.29,0-2.2-.41-3.76-2.61-4.53a6.65,6.65,0,0,1-1.22-.83,57.6,57.6,0,0,1,6.09-3.17c.67-.26,1.75.53,2.64.86,2.24.82,2.92,2.34,2.87,4.76-.17,8.43-.07,16.86-.06,25.29,0,2.91,2.89,4.34,5.61,3.29,4.42-1.7,6.07-4.43,5.58-9.22A112.75,112.75,0,0,1,163.31,21c.07-2.08-.6-3.27-2.46-4.07-1.37-.59-2.62-1.45-4.31-2.4,2.29-1.24,4.17-2.33,6.13-3.26a2.34,2.34,0,0,1,1.7.31c1.72.9,3.37,2,5.1,2.84a2.54,2.54,0,0,1,1.5,2.61c-.05,8.73,0,17.46-.07,26.2,0,1.89.45,3.11,2.26,3.8a16.92,16.92,0,0,1,2.18,1.24l.12.63c-2.28,1-4.67,2.82-6.81,2.57S163.6,50.28,163,46.82Z" fill="#fff"/><path d="M120.54,105.41c-2.22,1.21-4,2.27-5.93,3.18a2.35,2.35,0,0,1-1.71-.24c-4.86-2.33-4.85-2.34-4.85-7.68,0-3.1,0-6.19,0-9.28,0-1.24-.33-1.77-1.64-1.72-2.07.08-4.15.06-6.22,0-1.12,0-1.49.42-1.48,1.5,0,3.39-.06,6.79.08,10.19a3.41,3.41,0,0,0,1.3,2.07,24.1,24.1,0,0,0,3.29,2c-2.23,1.21-4.11,2.29-6.05,3.23-.38.19-1.07-.07-1.53-.3-4.91-2.38-4.91-2.39-4.91-7.83,0-3,0-6.07,0-9.1,0-1.19-.27-1.89-1.62-1.72s-1.76-.54-1.75-1.83.34-1.88,1.66-1.69,1.74-.59,1.71-1.84c-.06-2.18,0-4.36,0-6.55a2.42,2.42,0,0,1,1.4-2.49c4.19-2.22,8.32-4.58,12.55-6.74a3.41,3.41,0,0,1,2.64.07c2.24,1.1,4.32,2.5,6.54,3.65a2.92,2.92,0,0,1,1.76,3c-.07,8.24,0,16.49-.08,24.74,0,2,.44,3.24,2.33,4A18.61,18.61,0,0,1,120.54,105.41ZM98.75,80.91c0,1.27,0,2.54,0,3.81,0,1,.29,1.47,1.36,1.45,2.19,0,4.38,0,6.57,0,1,0,1.41-.41,1.39-1.41,0-2.12,0-4.24,0-6.36,0-3-3.85-5.16-6.57-3.9-2.08,1-3.18,2.24-2.75,4.6A9.92,9.92,0,0,1,98.75,80.91Z" fill="#fff"/><path d="M190.16,105.43c-2.21,1.2-4.09,2.28-6,3.22a2.22,2.22,0,0,1-1.54-.28c-4.91-2.35-4.9-2.36-4.91-7.85,0-3.1,0-6.19,0-9.28,0-1.21-.43-1.6-1.6-1.57-2.07.07-4.14.06-6.21,0-1.09,0-1.53.35-1.51,1.47.05,3.46,0,6.92.07,10.37a2.87,2.87,0,0,0,1.12,1.81,34.24,34.24,0,0,0,3.53,2c-2.25,1.22-4.14,2.4-6.16,3.25-.57.24-1.6-.36-2.31-.77-4.87-2.75-3.88-1-4-6.53-.06-3.28,0-6.55,0-9.83,0-1.28-.32-2-1.74-1.81s-1.59-.76-1.64-1.93c0-1.32.5-1.75,1.73-1.6s1.67-.56,1.64-1.74c0-2.24,0-4.49,0-6.73a2.37,2.37,0,0,1,1.43-2.45Q168.2,72,174.25,68.6a2.68,2.68,0,0,1,3,0c2.12,1.31,4.28,2.57,6.49,3.72a2.82,2.82,0,0,1,1.67,2.89c-.06,8.19.05,16.37-.09,24.56,0,2.17.5,3.6,2.61,4.35A14.76,14.76,0,0,1,190.16,105.43ZM168.4,80.94c0,1.21,0,2.43,0,3.63s.37,1.65,1.57,1.61c2.07-.06,4.14-.07,6.21,0,1.25,0,1.56-.52,1.54-1.63,0-2.18,0-4.36,0-6.54,0-2.48-3.94-4.62-6.26-3.66s-3.53,2.53-3,5.14A8.77,8.77,0,0,1,168.4,80.94Z" fill="#fff"/><path d="M121.84,71.37c2.16-1.18,4-2.32,5.9-3.15.59-.25,1.56.26,2.33.52,2.66.92,3.43,2.7,3.35,5.55-.23,8.37-.09,16.74-.08,25.11,0,2.61,3,4.13,5.42,3.24,4.75-1.73,6.4-4.73,5.89-9.78-.53-5.22-.16-10.54-.09-15.82a2.65,2.65,0,0,0-1.63-2.72c-1.62-.81-3.17-1.77-5.17-2.89,2.29-1.24,4.21-2.34,6.19-3.31a2.07,2.07,0,0,1,1.53.28c1.88,1,3.77,2,5.54,3.19a2.85,2.85,0,0,1,1.17,2q.12,12.38,0,24.74a2.74,2.74,0,0,1-1.21,2c-5,2.79-10,5.51-15.13,8.12a3.51,3.51,0,0,1-2.68-.07c-2-.94-3.93-2.19-5.94-3.2a2.65,2.65,0,0,1-1.61-2.72c.06-8.61,0-17.23.08-25.84,0-2-.35-3.53-2.43-4.26A8.78,8.78,0,0,1,121.84,71.37Z" fill="#fff"/><path d="M265.84,101.81c-3.59,2-7.15,3.85-10.54,6a4.4,4.4,0,0,1-5.33,0,71.58,71.58,0,0,0-7-3.87,2.62,2.62,0,0,1-1.6-2.73c0-8.25,0-16.49.07-24.73,0-2.07-.4-3.52-2.47-4.22a7.45,7.45,0,0,1-1.21-.82c2.17-1.18,4.1-2.26,6.06-3.28a1,1,0,0,1,.87,0c1.65,1,3.27,2,5.32,3.19,1.38-.75,3.25-1.83,5.19-2.78a2.64,2.64,0,0,1,2-.24c2.95,1.56,5.82,3.26,9.21,5.19-2.33,1.25-4.3,2.36-6.33,3.35-.31.15-.92-.17-1.33-.38a24.19,24.19,0,0,1-3-1.71c-1.42-1-2.63-.84-4.17,0-2,1-2.75,2.25-2.52,4.43a39.64,39.64,0,0,1,0,5.45c0,1.16.41,1.63,1.61,1.6,2.81-.06,5.61,0,8.41,0,1.45,0,1.72.57,1.73,1.83s-.4,1.85-1.79,1.81c-2.74-.09-5.49,0-8.23,0-1.23,0-1.77.33-1.73,1.64.07,2.42-.07,4.85.07,7.27,0,.69.74,1.35,1.15,2,0,.09.22.09.32.17,3.14,2.59,6.27,2.68,9.43,0a6.68,6.68,0,0,1,1.12-.61C263.75,98.78,263.94,98.84,265.84,101.81Z" fill="#fff"/><path d="M177.24,14.55c2.08-1.15,4-2.21,5.88-3.23a1.07,1.07,0,0,1,.87-.07c1.7,1,3.37,2,5.43,3.21,1.4-.75,3.28-1.84,5.24-2.79a2.63,2.63,0,0,1,2-.2c2.94,1.56,5.81,3.26,9.19,5.18-2.36,1.26-4.35,2.35-6.37,3.34-.29.14-.82-.12-1.19-.3-.76-.38-1.49-.83-2.23-1.25-3.12-1.75-4.06-1.72-6.79.53a2.52,2.52,0,0,0-.72,1.7c-.08,2.36,0,4.73-.06,7.09,0,1.22.47,1.59,1.63,1.57,2.86,0,5.73.05,8.59,0,1.44,0,1.53.71,1.53,1.81s-.13,1.86-1.55,1.82c-2.86-.07-5.73,0-8.6,0-1.16,0-1.64.34-1.6,1.55.07,2.43,0,4.85,0,7.28a3.36,3.36,0,0,0,.05.9c.4,1.47,6.13,4,7.47,3.27,1.51-.8,3-1.64,4.48-2.47,2.69-1.49,3-1.4,4.75,1.55l-5.67,3.2c-2,1.13-4,2.35-6.08,3.32a3.54,3.54,0,0,1-2.67.08c-3-1.47-5.88-3.18-8.85-4.73-1.07-.55-1.17-1.37-1.17-2.4,0-8.25-.07-16.5.07-24.74,0-2.16-.45-3.62-2.56-4.36A5.36,5.36,0,0,1,177.24,14.55Z" fill="#fff"/><path d="M263.9,45c-4.18,2.35-8.25,4.67-12.36,6.89a2.36,2.36,0,0,1-1.89-.1c-3.56-1.86-7.06-3.81-10.46-5.67.07-1.35.18-2.54.18-3.73,0-7.64-.06-15.29,0-22.93,0-1.92-.33-3.28-2.24-4a7.62,7.62,0,0,1-1.43-1c2.14-1.15,4-2.33,6-3.16,1.62-.67,5.34,2.25,5.34,4,0,8.62,0,17.23,0,25.85,0,1.56.66,2.26,1.86,3.12,3.05,2.19,5.89,2.46,8.82,0a7.13,7.13,0,0,1,1.11-.64C261.77,41.93,261.77,41.93,263.9,45Z" fill="#fff"/><path d="M219.67,101.81c-4.17,2.35-8.23,4.66-12.34,6.89a2.17,2.17,0,0,1-1.73,0c-3.6-1.89-7.16-3.86-10.42-5.64v-7.5c0-6.43-.08-12.86,0-19.28,0-1.93-.35-3.28-2.25-4a9.67,9.67,0,0,1-1.46-.94,51,51,0,0,1,6.23-3.23c1.72-.64,5.17,2.5,5.17,4.4,0,8.54,0,17.09,0,25.64a3.15,3.15,0,0,0,1.67,2.86c3.15,2.34,6.1,2.53,9.13-.06a7,7,0,0,1,1.11-.62C217.56,98.78,217.64,98.8,219.67,101.81Z" fill="#fff"/><path d="M235.37,45c-4.15,2.33-8.16,4.62-12.22,6.82a2.31,2.31,0,0,1-1.89,0c-3.61-1.88-7.16-3.86-10.6-5.74.08-1.26.21-2.33.22-3.4,0-7.77-.07-15.53.06-23.29,0-2-.42-3.26-2.3-4a8.94,8.94,0,0,1-1.41-.93,68,68,0,0,1,6.08-3.2c1.63-.66,5.28,2.3,5.28,4.08,0,8.61,0,17.23,0,25.84,0,1.49.63,2.17,1.78,3,3.09,2.26,6,2.49,9,0a7.82,7.82,0,0,1,1.27-.71C233.28,41.94,233.5,42,235.37,45Z" fill="#fff"/><path d="M280.17,48.68c-2.1,1.18-3.85,2.25-5.69,3.14a2.63,2.63,0,0,1-1.89-.18c-4.8-2.23-4.79-2.25-4.79-7.55,0-8.13-.07-16.26,0-24.39,0-2.07-.39-3.54-2.46-4.26a9.45,9.45,0,0,1-1.41-.92,57,57,0,0,1,6.24-3.26c1.61-.62,5.3,2.62,5.3,4.37,0,9.28.06,18.56-.05,27.84,0,1.92.51,3.08,2.29,3.77A17.22,17.22,0,0,1,280.17,48.68Z" fill="#fff"/><path d="M220,71.37c2.17-1.2,4-2.27,5.9-3.19a2.63,2.63,0,0,1,1.7.23c2.94,1.08,4.1,2.93,4,6.3-.32,8.47,0,17-.15,25.46,0,2,.46,3.22,2.34,3.92a19.19,19.19,0,0,1,2.48,1.44,58.17,58.17,0,0,1-6.16,3.2c-.66.26-1.74-.57-2.64-.86-3.07-1-3.84-3.06-3.74-6.23.25-8.36,0-16.73.13-25.1,0-2-.37-3.53-2.44-4.26A8.34,8.34,0,0,1,220,71.37Z" fill="#fff"/><path d="M30.53,12.56A58.81,58.81,0,0,1,35.94,9.4c1.37-.63,4.79,2.12,4.81,3.71,0,3.39,0,6.79,0,10.19v2.33c1.76-1.06,3.18-1.84,4.52-2.74a3,3,0,0,1,3.18-.09c4.54,1.88,6.46,4.89,5.77,10-.52,3.81,0,7.75-.14,11.63-.06,1.78.32,3,2.06,3.76a9.77,9.77,0,0,1,1.67,1.22A58.37,58.37,0,0,1,52,52.7c-1.38.6-4.82-2.38-4.82-4,0-6,0-12,0-18,0-2.47-1.79-3.39-4-2.31a4,4,0,0,0-2.43,4.3c.16,3.82,0,7.64,0,11.46,0,3,0,3,2.48,5.25-2.07,1.16-4,2.31-6,3.31-.32.16-1-.29-1.47-.56-1.49-.86-2.95-1.78-4.65-2.81a7.77,7.77,0,0,0,1.36-1.13c.48-.69,1.21-1.44,1.21-2.17q.12-15,0-30a3.78,3.78,0,0,0-1.15-2A12.9,12.9,0,0,0,30.53,12.56Z" fill="#fff"/><path d="M61,29c3.44-2.08,7.19-4.41,11-6.6a2.46,2.46,0,0,1,2,.29c2.38,1.34,4.73,2.73,7,4.25.59.4.83,1.32,1.22,2,0,.09,0,.23,0,.36-.12,6,.91,4.18-4.07,7.33-2.67,1.69-5.4,3.27-8.08,4.94a2.75,2.75,0,0,0-.09,4.51c.81.53,1.64,1,2.5,1.49,1.47.77,2.77.1,2.71-1.58a3.1,3.1,0,0,1,2-3.12c1.54-.81,3-1.74,5-2.88,0,2.54,0,4.67,0,6.78,0,.34-.63.71-1,1-2.57,1.61-5.19,3.15-7.73,4.79a2.33,2.33,0,0,1-2.84-.05c-2.37-1.48-4.75-2.93-7.17-4.32a2.65,2.65,0,0,1-1.48-2.64c.06-4.24.07-8.48,0-12.72A22,22,0,0,0,61,29Zm8,8.62c.47,0,.61,0,.7-.09q2-1.16,3.9-2.34c2.42-1.48,2.45-4.27.06-5.75-.77-.47-1.53-1-2.33-1.41C70,27.37,69,27.85,69,29.2" fill="#fff"/><path d="M29,6.48c4.77,0,7.09-1.63,8.79-6.21C37.69.19,37.57,0,37.44,0Q21.62,0,5.8,0A2.37,2.37,0,0,0,4.12.66C2.8,2.35,1.62,4.15,0,6.46H17.93l.12.57a18.12,18.12,0,0,1-2.4,1.23c-2.29.81-3.13,2.21-3.08,4.76q.06,3.45.08,6.9c-1.05.63-2.12,1.33-3.33,2.06a12.35,12.35,0,0,1,2,1.48,3.78,3.78,0,0,1,1.15,2c-1,.6-2,1.27-3.19,2a12.9,12.9,0,0,1,2,1.49,3.78,3.78,0,0,1,1.15,2,.34.34,0,0,0,.15.33q0,5.27,0,10.52c0,7.28,0,7.28,6.5,10.59a3.07,3.07,0,0,0,.84.4,3,3,0,0,0,1.61,0c2.4-1.26,4.76-2.61,7.57-4.18a30.8,30.8,0,0,0-3.79-2.26c-2.16-.86-2.76-2.32-2.74-4.58.12-9.66.05-19.33.05-29C22.68,6.48,22.68,6.48,29,6.48Z" fill="#fff"/><path d="M136.53,8.56A3.55,3.55,0,0,0,135.06,6,107.24,107.24,0,0,0,125.73.73a4.54,4.54,0,0,0-3.36,0c-2.46,1.08-4.79,2.49-6.56,3.44-2.54-1.55-4.6-2.85-6.71-4.06a1.63,1.63,0,0,0-1.33,0c-2.45,1.29-4.87,2.65-7.52,4.12a7.35,7.35,0,0,0,1.39,1c2.71,1,3.28,2.84,3.24,5.59q-.07,4.53-.09,9.06c-1.05.62-2.1,1.31-3.3,2a12.51,12.51,0,0,1,2.05,1.48,3.82,3.82,0,0,1,1.14,2c-1,.6-2,1.27-3.19,2a13.07,13.07,0,0,1,2.05,1.49,3.76,3.76,0,0,1,1.14,2,.37.37,0,0,0,.11.29c0,3.77,0,7.55.08,11.32a4.07,4.07,0,0,0,1.51,3c3.73,2.24,7.6,4.29,11.5,6.22a3.79,3.79,0,0,0,3-.06c4.75-2.5,9.45-5.11,14.06-7.86a3.72,3.72,0,0,0,1.59-2.68Q136.69,24.86,136.53,8.56Zm-9.7,7a113.8,113.8,0,0,0-.08,11.39c0,4.73,0,9.46,0,14.19a3.88,3.88,0,0,1-5.41,3.39l-.21-.11c-6.44-3.16-6.44-3.16-6.44-10.37s0-14.27,0-21.41c0-3.16,4.72-5.76,7.63-4.55C125.81,9.51,127.23,11.67,126.83,15.53Z" fill="#fff"/><path d="M78.19,91.47c-1.82.8-2.78,1.93-2.42,3.94.45,2.5-.78,3.75-2.82,5.17-3,2.09-5.16.75-7.41-.79a3.93,3.93,0,0,1-1.66-2.66c-.12-9.41-.09-18.83-.05-28.24a3.36,3.36,0,0,1,.65-2.12,6.31,6.31,0,0,1,8.29-1.08,10.6,10.6,0,0,0,1.23.68c1.46.58,1.87,1.63,1.79,3.14-.11,2.2,0,4.4,0,7,3.27-1.25,6-2.27,8.77-3.37a1.74,1.74,0,0,0,1-1.15c.08-2.64.09-5.28,0-7.92,0-.46-.68-1-1.17-1.31-3.23-1.9-6.47-3.79-9.77-5.56A3,3,0,0,0,72.17,57c-6.32,3.38-12.58,6.88-18.7,10.26.16,1.61.37,2.75.37,3.89,0,2.78,0,5.57,0,8.35-1,.59-2,1.23-3.06,1.89a11.9,11.9,0,0,1,2.05,1.49,5.77,5.77,0,0,1,1,1.45V85c-1,.59-2,1.23-3.07,1.89a13.07,13.07,0,0,1,2.05,1.49,6.23,6.23,0,0,1,1,1.44c0,3.52,0,7,0,10.55A3.44,3.44,0,0,0,56,104c3,1.41,5.75,3.16,8.72,4.53a4.11,4.11,0,0,0,3.21,0c5.4-2.81,10.71-5.79,16-8.76.58-.32,1.46-.87,1.47-1.34.13-3.43.07-6.87.07-10.68C82.77,89.17,80.53,90.44,78.19,91.47Z" fill="#fff"/><path d="M349.89,30.63c-.07-.45-.73-1.14-1.14-1.15-1.29,0-2.59,0-3.89-.05l-.11,0q-5.13-.15-10.24,0c-.41,0-1.07.7-1.15,1.15-.31,2,0,2.33,2.05,2.34.42,0,.86,0,1.28,0,1.19-.14,1.63.36,1.59,1.55a46.53,46.53,0,0,0,0,6.36c.24,2.38-.65,3.65-2.74,4.85s-3.52,0-5.17-.76a2.28,2.28,0,0,1-1.46-2.42c.05-7.22,0-14.44,0-21.65a3.11,3.11,0,0,1,.28-1.57c1.11-1.73,4.45-2.45,6.25-1.42a13.22,13.22,0,0,0,1.27.71,2.36,2.36,0,0,1,1.51,2.6c-.09,1.42,0,2.85,0,4.63,2.61-1,4.83-1.79,7-2.69a1.65,1.65,0,0,0,.68-1.15c.72-4.41.25-5.35-3.58-7.54a6.36,6.36,0,0,1-.95-.55C338,10.9,334.72,11,331,13.67c-3.18,2.28-6.83,3.91-10.06,5.7.11,1.4.28,2.53.28,3.65,0,7.46,0,14.92.06,22.38a3,3,0,0,0,1,2.2,79.67,79.67,0,0,0,7.39,4,3.07,3.07,0,0,0,2.36,0c4.32-2.26,8.58-4.63,12.81-7a2.19,2.19,0,0,0,1-1.49c.07-3.37.07-6.74,0-10.11a2.1,2.1,0,0,1,.62,0,10.92,10.92,0,0,0,1.28,0C349.89,33,350.21,32.66,349.89,30.63Z" fill="#fff"/></svg>