<svg xmlns="http://www.w3.org/2000/svg" viewBox="0 0 250 113"><path d="M216.35 19.08c.1-.41.14-.85.11-1.28-.05-.7-.22-1.1-.78-1.51-1.17-.87-2.58-.06-3.19 1.09-.64 1.2-.66 3.42.9 3.9-.02.14-.05.28-.08.42-.07.27-.16.53-.21.81-.04.22-.06.44-.05.66 0 .06 0 .12.03.17.05.09.15.14.25.16.52.13 1.06-.16 1.4-.57.34-.41.53-.92.75-1.4.1-.22.2-.44.28-.67.11-.36.28-.83.43-1.26.07-.17.12-.34.17-.51v-.01zM190.59 4.08c4.74 4.29-6.82 2.06-6.51 10 .14 3.52 4.78 1.19 5.98 2.08 4.33 3.23-5.13 8.27-9.22 6.41-.44-.2-2.47-2.37-2.77-2.9-4.06-6.92 6.58-20.99 12.53-15.6zM85.51 16.84c12.67-.68 7.07 7.38-.79 5.97-3.09-.56-3.63-.58-4-3.51-.41-3.29-.13-10.44.73-13.59.47-1.73 1.04-2.6 2.73-3.26 7.51-2.97.9 13.77 1.33 14.39zM118.36 2.75c-.29-.83-1.08-2.63-2.08-2.73-1.76-.19-3.13 1.73-4.01 2.98-.69.99-1.27 2.04-1.89 3.06-.1.02-.17-.1-.21-.16-1-1.39-2.35-4.78-4.35-4.85-1.01-.04-1.74 1.59-1.91 2.42-.65 3.11-1.76 11.65-1.77 11.8 0 .08-.01.15-.02.22-.02 1.27-.23 2.53-.23 3.81 0 1.31.18 2.25 1.28 3.12 1.57 1.24 3.04-.29 3.87-1.61.96-1.53 1.05-5.44 1.14-6.22.2-.03.12.04.15.11.23.45.87 3.03 1.52 2.99.59-.03.99-.62 1.26-1.08.49-.81.6-1.88 1.07-2.7.13.1.1.2.1.34.06 1.62-.16 5.24.69 6.56.86 1.33 2.98 1.25 3.99.15 1.31-1.42 1.49-5.19 1.68-7.07.35-3.54.91-7.74-.28-11.15z" fill="#fff"/><path d="M76.94 4.18c4.23 3.14 4.07 9.99 1.64 14.29-1.91 3.39-5.92 6.27-10.03 4.12-1.95-1.02-3.32-3.74-3.74-5.68-.56-2.59-.63-4.63.34-7.19 1.7-4.49 6.71-9.31 11.8-5.53zm-5.88 11.81c.34.25 1.22.43 1.64.28 1.17-.42 1.82-1.51 2.16-2.54.43-1.3.15-2.84-.76-3.89-.29-.33-.73-.66-1.23-.63-1.84.1-2.81 2.45-2.82 3.83 0 .81.3 2.42 1 2.95zM174.56 3.64c1.25 1.32 1.63 5.34 1.75 7.15.19 2.82.23 5.69-.16 8.47-.22 1.57-.75 3.74-2.41 4.33-3.6 1.27-5.18-2.66-6.51-5.13-.02-.04-.23-.47-.33-.34.02 1.01-.28 1.97-.46 2.95-.11.57-.12 1.21-.32 1.8-.12.37-.75 1.31-1.06 1.53-.56.38-2.09.39-2.7.11-1.18-.55-1.84-3.51-2.04-4.71-.4-2.47-.4-4.78-.4-7.29 0-2.1-.34-5.84 1.57-7.21 3.08-2.21 4.99 1.08 6.25 3.46.33.63.67 1.65 1.02 2.19.05.08 0 .14.18.1.02-.22-.03-.45 0-.67.22-1.69 1.12-5.53 2.24-6.78.86-.97 2.51-.89 3.38.02z" fill="#fff"/><path d="M156.97 4.44c2.02 1.44 2.64 2.85 2.87 5.33.4 4.35-1.11 8.95-4.83 11.47-1.82 1.23-3.58 1.75-5.77 1.17-5.72-1.53-5.78-9.52-3.57-13.88 2.1-4.13 7.07-7.11 11.3-4.09zm-4.36 4.6c-.68.14-1.81 1.4-2.16 2-.73 1.24-.9 3.42.34 4.42 2.08 1.65 4.08-1.4 4.27-3.25.16-1.56-.51-3.55-2.45-3.16zM199.76 7.92l.16 2.1c.9.11 4.49-.25 5.61 1.94.64 1.24-.02 2.3-1.09 2.88-1.79.99-2.05.78-4.06 1.03-.01.28.39 1.47.3 2.16l2.05-.34c.91-.06 1.83-.19 2.74-.15.55.02 1.32.08 1.74.43 1.41 1.15.64 2.72-.63 3.67-1.08.81-2.61.98-3.89 1.12-1.58.16-3.19.3-4.78.37-2.4.1-3.59.52-4.04-2.4-.54-3.5-.73-7.78-.92-11.34-.06-1.25-.41-3.7.4-4.73.11-.14.26-.28.41-.38 1.65-1.12 10.65-1.95 11.67-1.1.16.13.39.57.43.78.68 3.2-3.97 3.61-6.11 3.97zM40.93 8.44l.05.87c.89.19 1.85.12 2.74.23 1.28.15 2.95.56 3.58 1.77s-.23 2.28-1.34 2.78c-1.87.83-3 1.02-5.03 1.1-.04.28.47 6.44-1.41 7.32s-5.7 1.08-5.89-1.87c-.23-3.53-.04-7.81.08-11.37.05-1.26-.09-3.72.82-4.67.12-.13.28-.26.44-.35 1.74-.97 4.45-.75 6.38-.75 1.32 0 4.71-.23 5.64.71.15.15.33.6.36.82.4 3.25-4.27 3.25-6.43 3.41zM127.01 7.5l.05.87c.89.19 1.85.12 2.74.23 1.28.15 3.11.66 3.74 1.87s-.23 2.28-1.34 2.78c-1.87.83-3.16.93-5.19 1-.04.28.16.5.22.76.14.69.1 1.23-.06 1.9l2.08-.16c.91.02 1.84-.03 2.74.09.54.07 1.31.2 1.7.58 1.3 1.27.27 3.51-1.08 4.34-1.15.71-3.08.76-4.37.77-1.59.02-2.81.02-4.4-.06-2.4-.11-3.93.17-4.12-2.78-.23-3.53-.04-7.81.08-11.37.05-1.26-.09-3.72.82-4.67.12-.13.28-.26.44-.35 1.74-.97 4.45-.75 6.38-.75 1.32 0 4.71-.23 5.64.71.15.15.33.6.36.82.4 3.25-4.27 3.25-6.43 3.41zM57.37 3.58c2.42.55 3.54 1.61 4.71 3.8 2.05 3.85 2.44 8.68-.01 12.44-1.2 1.84-2.62 3-4.87 3.31-5.87.81-9.02-6.54-8.67-11.41.33-4.62 3.77-9.29 8.84-8.14zM55.13 9.5c-.57.39-1.13 2-1.22 2.68-.2 1.42.49 3.51 2.02 3.94 2.55.72 3.22-2.87 2.68-4.65-.46-1.5-1.85-3.08-3.48-1.96zM221.26 76.01c.1-.41.14-.85.11-1.28-.05-.7-.22-1.1-.78-1.51-1.17-.87-2.58-.06-3.19 1.09-.64 1.2-.66 3.42.9 3.9-.02.14-.05.28-.08.42-.07.27-.16.53-.21.81-.04.22-.06.44-.05.66 0 .06 0 .12.03.17.05.09.15.14.25.16.52.13 1.06-.16 1.4-.57.34-.41.53-.92.75-1.4.1-.22.2-.44.28-.67.11-.36.28-.83.43-1.26.07-.17.12-.34.17-.51v-.01zM195.5 61.02c4.74 4.29-6.82 2.06-6.51 10 .14 3.52 4.78 1.19 5.98 2.08 4.33 3.23-5.13 8.27-9.22 6.41-.44-.2-2.47-2.37-2.77-2.9-4.06-6.92 6.58-20.99 12.53-15.6zM78.25 73.27c12.63-1.17 7.09 6.8-.82 5.69-3.11-.44-3.42.44-3.9-2.48-.54-3.27-.53-10.43.21-13.61.41-1.74.85-3.41 2.6-3.37 8.08.18 1.45 13.16 1.91 13.76zM110.9 59.68c-.29-.83-1.08-2.63-2.08-2.73-1.76-.19-3.13 1.73-4.01 2.98-.69.99-1.27 2.04-1.89 3.06-.1.02-.17-.1-.21-.16-1-1.39-2.35-4.78-4.35-4.85-1.01-.04-1.74 1.59-1.91 2.42-.65 3.11-1.76 11.65-1.77 11.8 0 .08-.01.15-.02.22-.02 1.27-.23 2.53-.23 3.81 0 1.31.18 2.25 1.28 3.12 1.57 1.24 3.04-.29 3.87-1.61.96-1.53 1.05-5.44 1.14-6.22.2-.03.12.04.15.11.23.45.87 3.03 1.52 2.99.59-.03.99-.62 1.26-1.08.49-.81.6-1.88 1.07-2.7.13.1.1.2.1.34.06 1.62-.16 5.24.69 6.56.86 1.33 2.98 1.25 3.99.15 1.31-1.42 1.49-5.19 1.68-7.07.35-3.54.91-7.74-.28-11.15zM67.23 60.29c4.86 2.04 6.34 8.72 5.01 13.48-1.04 3.75-4.25 7.5-8.76 6.4-2.14-.53-4.12-2.84-4.99-4.62-1.16-2.38-1.72-4.35-1.39-7.06.58-4.77 4.29-10.65 10.13-8.19zm-2.89 12.87c.39.17 1.28.13 1.66-.12 1.04-.69 1.41-1.9 1.49-2.98.1-1.37-.53-2.8-1.67-3.59-.36-.25-.87-.47-1.35-.32-1.77.54-2.14 3.05-1.82 4.4.19.79.87 2.28 1.68 2.62z" fill="#fff"/><path d="M204.67 64.86l.16 2.1c.9.11 4.49-.25 5.61 1.94.64 1.24-.02 2.3-1.09 2.88-1.79.99-2.05.78-4.06 1.03-.01.28.39 1.47.3 2.16l2.05-.34c.91-.06 1.83-.19 2.74-.15.55.02 1.32.08 1.74.43 1.41 1.15.64 2.72-.63 3.67-1.08.81-2.61.98-3.89 1.12-1.58.16-3.19.3-4.78.37-2.4.1-3.59.52-4.04-2.4-.54-3.5-.73-7.78-.92-11.34-.06-1.25-.41-3.7.4-4.73.11-.14.26-.28.41-.38 1.65-1.12 10.65-1.95 11.67-1.1.16.13.39.57.43.78.68 3.2-3.97 3.61-6.11 3.97zM35.9 65.36l.15.86c.9.08 1.85-.1 2.75-.1 1.29 0 2.16 1.08 2.09 2.56s-2.17 3.07-4.17 3.38c0 .29 1.24 6.34-.52 7.44s-5.52 1.76-6.07-1.14c-.65-3.48-.99-7.75-1.29-11.3-.11-1.25-.53-3.68.25-4.74.11-.14.25-.29.39-.4 1.61-1.17 4.32-1.28 6.25-1.51 1.31-.16 4.65-.8 5.69.02.16.13.41.56.46.77.79 3.18-3.85 3.74-5.98 4.16zM119.56 64.43l.05.87c.89.19 1.85.12 2.74.23 1.28.15 3.11.66 3.74 1.87s-.23 2.28-1.34 2.78c-1.87.83-3.16.93-5.19 1-.04.28.16.5.22.76.14.69.1 1.23-.06 1.9l2.08-.16c.91.02 1.84-.03 2.74.09.54.07 1.31.2 1.7.58 1.3 1.27.27 3.51-1.08 4.34-1.15.71-3.08.76-4.37.77-1.59.02-2.81.02-4.4-.06-2.4-.11-3.93.17-4.12-2.78-.23-3.53-.04-7.81.08-11.37.05-1.26-.09-3.72.82-4.67.12-.13.28-.26.44-.35 1.74-.97 4.45-.75 6.38-.75 1.32 0 4.71-.23 5.64.71.15.15.33.6.36.82.4 3.25-4.27 3.25-6.43 3.41zM52.59 61.24c2.17 1.21 2.95 2.54 3.45 4.97.89 4.27-.09 9.02-3.49 11.94-1.67 1.43-3.36 2.15-5.6 1.81-5.86-.87-6.83-8.81-5.12-13.38 1.61-4.34 6.22-7.86 10.76-5.34zm-3.81 5.05c-.66.22-1.64 1.6-1.92 2.23-.59 1.31-.51 3.5.84 4.35 2.25 1.41 3.9-1.85 3.88-3.72-.02-1.57-.91-3.47-2.79-2.86zM179.53 59.82c1.91-.11 1.99 1.53 2.12 3.05.24 2.74-.67 18.95-4.84 18.53-2.43-.24-1.59-10.98-1.45-12.82.17-2.28 1.29-8.6 4.16-8.76zM157.06 79.5c.29.83 1.1 2.62 2.1 2.72 1.76.18 3.12-1.75 3.99-3.01.68-.99 1.25-2.05 1.87-3.08.1-.02.17.1.22.16 1.01 1.38 2.39 4.76 4.39 4.82 1.01.03 1.73-1.61 1.89-2.43.62-3.11 2.58-11.83 2.58-11.83.01-1.27.21-2.54.2-3.81-.01-1.31-.19-2.25-1.31-3.11-1.58-1.23-3.04.31-3.86 1.64-.95 1.53-1.89 5.24-1.97 6.02-.2.03-.12-.04-.16-.11-.24-.44-.89-3.03-1.54-2.98-.59.04-.98.63-1.26 1.09-.48.81-1.46 2.51-1.47 2.37-.07-1.62.12-5.24-.74-6.56-.87-1.32-3.07-1.23-4.07-.12-1.3 1.43-1.45 5.21-1.62 7.08-.32 3.54-.46 7.75.76 11.15z" fill="#fff"/><path d="M146.53 81.81c-1.65-1.77.35-14.5-1.37-17.36-1.09-1.44-6.83 3.56-7.8.28-2.43-8.23 19.79-7.67 20.64-3.61s-5.51 2.71-6.64 4.27c.23 3.78 1.77 10.23.1 14.12-.7 1.63-3.72 3.6-4.93 2.3zM219.49 48.52c.13-.41.19-.84.19-1.27 0-.7-.15-1.11-.68-1.56-1.11-.94-2.58-.22-3.26.89-.71 1.16-.88 3.37.64 3.95-.03.14-.06.28-.11.42-.08.27-.19.52-.26.79-.05.21-.09.43-.09.65 0 .06 0 .12.02.18.04.09.14.15.24.18.51.16 1.07-.09 1.43-.48.37-.38.59-.88.83-1.35.11-.22.23-.43.32-.66.14-.35.34-.81.51-1.23.08-.16.14-.33.2-.5v-.01zM60.62 28c.92 1.19 1.28 2.99 1.36 4.48.15 2.77-.09 5.55-.31 8.3-.12 1.49-.27 4.33-.23 4.23.15-.48.2-1.01.33-1.48.98-3.55 2.34-7.56 3.84-10.92.53-1.19 2-4.38 3.11-4.93 1.46-.73 3.26-.15 4.22 1.11 1.41 1.85 1.81 6.18 2.03 8.5s.44 4.77.2 7.17c.09.13.14 0 .16-.1.06-.3.01-.67.05-.98.39-3.17 1-6.3 1.7-9.4.19-.82.94-2.44 1.95-2.38 2 .11 3.29 3.52 4.27 4.92.05.07.11.19.21.17.64-1.02 1.24-2.06 1.95-3.03.9-1.24 2.3-3.13 4.06-2.91 1 .12 1.76 1.93 2.04 2.77 1.13 3.43.5 7.62.09 11.16-.22 1.87-.46 5.64-1.8 7.04-1.03 1.08-3.15 1.12-3.98-.22s-.55-4.95-.58-6.57c0-.14.03-.24-.1-.34-.48.82-.85 1.77-1.35 2.57-.28.45-.69 1.03-1.28 1.06-.66.03-.72-.55-.95-1-.04-.07.05-.15-.15-.12-.1.78-.21 1.57-.38 2.34-.23 1-.67 2.62-1.19 3.48-.81 1.33-2.35 2.81-3.9 1.55-1.09-.89-1.21-3.36-1.19-4.67s.25-2.53.29-3.81c-.14.02-.15.14-.17.25-.12.75-.13 1.65-.3 2.39-.18.79-.99 2.8-1.47 3.4-.97 1.2-2.77.92-3.6-.27-.68-.97-1.12-4.05-1.14-5.28-.01-.65.44-2.05-.63-1.66-.3.44-.29 1.03-.44 1.51-.4 1.22-1.26 3.14-2.35 3.86-.86.56-2.81.69-3.51-.16-.58-.69-.39-2.32-.42-3.2 0 0-.65 5.11-2.52 6.15-.5.28-.92.34-1.5.21-.79-.18-1.15-.73-1.45-1.42-1.13-2.59-1.07-5.09-.86-7.86.07-1 .21-1.29-.99-1.31.04.7.16 1.39.19 2.09.05 1.38-.04 2.99-.17 4.38-.17 1.9-.38 2.79-1.76 4.24-.71.75-1.83.83-2.6.12-1.19-1.09-1.84-2.99-2.11-4.59-.8-4.7-.95-9.87-.87-14.62.03-1.83-.29-4.56 1.39-5.83 1.57-1.19 4.01-1.05 4.64 1.08s.79 4.94 1.06 7.15c.02.13.05.55.2.54.09 0 1.23-.29 1.29-.32.05-.03.11-.04.12-.11-.03-.77-.02-1.56.06-2.33.11-1.19.82-5.64 1.5-6.48.07-.08.2-.1.28-.19.17-.22.18-.43.46-.61.99-.67 1.96-.43 2.77.38.11.11.37.42.47.55zm8.53 8.32c-.14.03-.73 1.36-.8 1.58-.18.53-.55 1.98-.35 2.45.22.52 1.55.61 1.76.08.19-.49.09-2.02 0-2.59-.04-.27-.22-1.62-.61-1.53zM204.97 44.22c.85-1.05 1.35-3.09 1.66-4.43.34-1.42.56-2.9.78-4.36.19-1.32.13-3.43 1.32-4.3.15-.11.61-.32.79-.33.16 0 1.03.24 1.21.31 1.25.52 1.67 2.33 1.87 3.55.59 3.62.53 8.86-.66 12.34-.77 2.23-3.61 4.09-5.78 4.73-5.78 1.71-9.97-2.52-10.97-7.88-.49-2.6-.68-6.74.11-9.28.55-1.8 2.83-3.65 4.67-2.35 1.54 1.09.96 3.53.89 5.11-.09 2.16-.13 6.18 1.76 7.61.87.66 1.78 0 2.35-.71zM178.52 28.24c1.21-.19 2.89.76 3.22 1.97.57 2.03-.59 6.48-2.06 8.03-.49.52-2.13 1.61-2.8 1.82-.21.07-.53-.02-.6.21.02.48 0 1.02.03 1.48.05.59.2 1.24.27 1.84.22 2.03.84 5.84.02 7.65-1.03 2.25-4.47 2.11-5.41-.09-.59-1.4-.68-4.17-.71-5.72s.13-3.16.05-4.73c-1.29-.6-2.62-1-3.81-1.8-.49-.33-1.41-1-1.75-1.45-1.45-1.95-3.38-6.19-.86-8.03.88-.65 2.48-.72 3.42-.18.8.45 1.34 2.83 1.74 3.74.68 1.56 1.87 3.07 3.77 2.82 1-.13 1.73-1.72 2.09-2.55.8-1.82.97-4.61 3.38-4.98z" fill="#fff"/><path d="M44.27 50.25c-2.53 2.98-4.82 4.56-8.98 4.01-3.23-.43-4.1-4.64-1.54-6.55 1.87-1.4 5.32-.8 6.86-2.33.66-.65.45-1.53-.16-2.12-1.38-1.35-5.15-1.6-7.14-2.75-3.52-2.04-3.61-4.7-1.91-8.15s4.68-5.17 8.53-4.8c1.46.14 3.62 1.02 3.76 2.71.3 3.57-3.99 2.89-5.6 4.96-1.25 1.6.42 2.42 1.73 2.98 2.4 1.01 5.25 1.16 6.84 3.44 1.79 2.57-.68 6.6-2.38 8.6zM192.07 33.37c3.1 3.91 1.71 10.56-1.18 14.28-2.28 2.93-6.28 4.93-9.46 2.01-1.51-1.39-2.2-4.32-2.21-6.3-.02-2.64.29-4.65 1.6-6.95 2.29-4.04 7.52-7.74 11.25-3.03zm-7.25 10.34c.25.32.98.67 1.38.6 1.1-.18 1.85-1.11 2.33-2.04.61-1.19.65-2.75.05-3.95-.19-.38-.51-.79-.95-.87-1.62-.27-2.88 1.82-3.14 3.18-.15.79-.18 2.42.33 3.08zM151.1 30.88c1.23 1.34 1.54 5.36 1.63 7.18.15 2.82.14 5.69-.3 8.46-.25 1.57-.81 3.73-2.49 4.29-3.62 1.21-5.14-2.75-6.43-5.24-.02-.04-.22-.47-.32-.34 0 1.01-.31 1.97-.51 2.94-.12.57-.14 1.21-.35 1.79-.13.37-.77 1.29-1.09 1.51-.56.37-2.1.35-2.7.06-1.17-.57-1.78-3.54-1.96-4.74-.35-2.48-.31-4.78-.28-7.29.03-2.1-.24-5.84 1.69-7.18 3.12-2.15 4.97 1.17 6.19 3.57.32.63.64 1.66.98 2.21.05.08-.01.14.17.1.02-.22-.02-.45.01-.66.25-1.69 1.21-5.51 2.35-6.74.88-.96 2.53-.85 3.38.08zM101.3 35.17l.03.87c.88.21 1.85.15 2.73.27 1.28.18 4.28.84 4.89 2.07s-.26 2.28-1.38 2.75c-1.89.8-4.36.74-6.38.78-.04.28.15.5.2.77.13.69.08 1.23-.09 1.9l2.08-.12c.91.03 1.84 0 2.74.14.54.08 1.31.22 1.69.61 1.28 1.29.21 3.51-1.15 4.32-1.16.69-2.7.71-3.99.7-1.59 0-3.2-.03-4.79-.13-2.39-.15-3.94.11-4.08-2.85-.17-3.53.09-7.81.28-11.37.07-1.25-.02-3.72.9-4.66.13-.13.29-.25.44-.34 1.76-.94 4.46-.68 6.4-.64 1.32.03 4.71-.15 5.63.8.14.15.32.61.35.82.35 3.26-4.33 3.18-6.49 3.3zM132.39 31.37c2 1.48 2.59 2.9 2.78 5.38.32 4.35-1.26 8.93-5.02 11.38-1.84 1.2-3.61 1.69-5.79 1.07-5.7-1.62-5.62-9.62-3.34-13.94 2.16-4.09 7.19-6.99 11.37-3.89zm-4.44 4.52c-.68.13-1.83 1.37-2.19 1.96-.75 1.22-.96 3.41.27 4.42 2.05 1.69 4.11-1.33 4.33-3.18.19-1.56-.45-3.56-2.4-3.2zM221.72 90.74c4.74 4.29-6.82 2.06-6.51 10 .14 3.52 4.78 1.19 5.98 2.08 4.33 3.23-5.13 8.27-9.22 6.41-.44-.2-2.47-2.37-2.77-2.9-4.06-6.92 6.58-20.99 12.53-15.6z" fill="#fff"/><path d="M230.06 94.58l.16 2.1c.9.11 4.49-.25 5.61 1.94.64 1.24-.02 2.3-1.09 2.88-1.79.99-2.05.78-4.06 1.03-.01.28.39 1.47.3 2.16l2.05-.34c.91-.06 1.83-.19 2.74-.15.55.02 1.32.08 1.74.43 1.41 1.15.64 2.72-.63 3.67-1.08.81-2.61.98-3.89 1.12-1.58.16-3.19.3-4.78.37-2.4.1-3.59.52-4.04-2.4-.54-3.5-.73-7.78-.92-11.34-.06-1.25-.41-3.7.4-4.73.11-.14.26-.28.41-.38 1.65-1.12 10.65-1.95 11.67-1.1.16.13.39.57.43.78.68 3.2-3.97 3.61-6.11 3.97zM190.26 94.83l.05.87c.89.19 1.85.12 2.74.23 1.28.15 2.95.56 3.58 1.77s-.23 2.28-1.34 2.78c-1.87.83-3 1.02-5.03 1.1-.04.28.47 6.44-1.41 7.32s-5.7 1.08-5.89-1.87c-.23-3.53-.04-7.81.08-11.37.05-1.26-.09-3.72.82-4.67.12-.13.28-.26.44-.35 1.74-.97 4.45-.75 6.38-.75 1.32 0 4.71-.23 5.64.71.15.15.33.6.36.82.4 3.25-4.27 3.25-6.43 3.41zM53.23 101.95c-.18 1.96-.11 8.43-1.56 9.53-.32.24-.58.44-1.01.29-1.54-.4-2.26-5.74-2.37-7.17-.13-1.81-.25-12.74.69-13.41.49-.28 1-.21 1.52-.08 2.81.73 5.81 8.33 8.35 10.13-.04-2.59.52-5.68 1.7-7.98 1.7-3.3 4.17-3.9 4.64.41.34 3.12-.78 11.03-1.71 14.13-2.11 7.02-7.84-4.51-10.25-5.86zM166.68 99.22c1.45 1.05 7.26 8.28 5.37 9.76-3.85 1.06-6.27-4.39-8.77-6.7l.17 5.07c.26 2.55-3.24 3.35-4.68 1.98-1.66-1.59-1.35-9.27-1.42-11.69-.09-3.13-1.67-5.99 1.82-7.51 7.11-3.1 18.14 3.8 7.5 9.1zm-4.62-5.84c-1.93.98.07 3.98 1.61 3.64 1.8-.39 1.56-5.26-1.61-3.64zM87.47 95.97l2.68-.02c.02-1.77 1.41-9.98 4.49-7.73 2.21 1.61 2.21 13.34 1.72 16.06-2.2 12.2-6.81 3.87-6.19-4.06l-2.74.18c-.8.45.69 9.39-2.48 9.72-2.33.02-3.25-4.87-3.56-6.72-.53-3.14-.79-12.48 1.05-14.97 3.06-4.14 5.35 5.39 5.03 7.53zM204.14 108.23c-.73-.74-.5-5.37-1.79-6.36-1.93-.52-2.19 6.72-4.6 7.06-2.96.42-1.66-2.99-1.28-4.68.45-2.02 3.22-12.68 4.34-13.48 1.79-1.29 3.12.57 3.99 1.89 2.2 3.34 4.74 11.35 2.77 15.01-.69 1.28-2.29 1.16-3.44.57zm-2.46-8.62c1.22 1.26 2.48-1.23 1.48-1.94-1.29-.91-2.62.75-1.48 1.94zM22.67 102.41s.09 9.85-2.29 10.31-3.19-1.75-3.65-3.41c-.92-3.34-1.25-17.08.89-19.55 2.63-3.03 12.54-.68 14.18 3.44 2.9 7.3-3.57 9.69-9.14 9.21zm2.94-6.97c-.66-1.05-3.74-.24-2.37 1.72.96 1.37 3.29-.25 2.37-1.72z" fill="#fff"/><path d="M40.01 103.38c.86-.8 1.52-2.51 1.96-3.62.46-1.19 1.48-7.22 2.62-7.83.14-.08.57-.21.72-.19.14.01.86.33 1.01.41 1.02.6 1.17 2.21 1.2 3.28.09 3.19-.59 7.7-2.03 10.56-.92 1.83-3.6 3.1-5.54 3.4-5.18.79-8.29-3.35-8.53-8.08-.11-2.29.21-5.89 1.18-7.99.69-1.48 2.87-2.82 4.3-1.48 1.2 1.12.41 3.16.17 4.51-.34 1.85-.84 5.31.62 6.76.67.67 1.75.81 2.32.28zM148.66 103.19c.91-.99 1.53-3.01 1.93-4.32.42-1.4.74-2.86 1.04-4.3.27-1.3.34-3.41 1.58-4.21.16-.1.63-.29.81-.28.16 0 1.01.3 1.19.39 1.22.6 1.53 2.43 1.65 3.66.37 3.65 0 8.88-1.41 12.28-.9 2.18-3.85 3.86-6.05 4.37-5.87 1.35-9.8-3.12-10.47-8.53-.33-2.62-.27-6.77.67-9.26.66-1.76 3.05-3.48 4.8-2.06 1.47 1.18.75 3.59.58 5.15-.22 2.15-.5 6.16 1.3 7.7.83.71 1.78.1 2.39-.57zM122.91 87.4c1.21-.19 2.89.76 3.22 1.97.57 2.03-.59 6.48-2.06 8.03-.49.52-2.13 1.61-2.8 1.82-.21.07-.53-.02-.6.21.02.48 0 1.02.03 1.48.05.59.2 1.24.27 1.84.22 2.03.84 4.95.02 6.75-1.03 2.25-4.47 2.11-5.41-.09-.59-1.4-.68-3.27-.71-4.82s.13-3.16.05-4.73c-1.29-.6-2.62-1-3.81-1.8-.49-.33-1.41-1-1.75-1.45-1.45-1.95-3.38-6.19-.86-8.03.88-.65 2.48-.72 3.42-.18.8.45 1.53 4.47 1.92 5.37.68 1.56 1.87 3.07 3.77 2.82 1-.13 1.73-1.72 2.09-2.55.8-1.82.79-6.25 3.2-6.62z" fill="#fff"/><path d="M136.22 92.86c3.1 3.91 1.71 10.56-1.18 14.28-2.28 2.93-6.28 4.93-9.46 2.01-1.51-1.39-2.2-4.32-2.21-6.3-.02-2.64.29-4.65 1.6-6.95 2.29-4.04 7.52-7.74 11.25-3.03zm-7.25 10.34c.25.32.98.67 1.38.6 1.1-.18 1.85-1.11 2.33-2.04.61-1.19.65-2.75.05-3.95-.19-.38-.51-.79-.95-.87-1.62-.27-2.88 1.82-3.14 3.18-.15.79-.18 2.42.33 3.08zM3.85 90.38c1.9-.24 2.09 1.39 2.33 2.9.43 2.72.6 18.69-3.57 19.13-3.8.4-2.33-11.16-2.32-13.01.02-2.28.71-8.66 3.56-9.02zM73.2 89.41c3.35-.41 6.01 1.48 5.42 5.07-.46 2.77-3.27-.3-5.02-.17-3.38.27-4.58 8.68-1.16 8.81 1.98.08 7.81-5.57 7.93-.77.14 6.16-9.2 7.97-13.35 4.14-5.61-5.19-1.03-16.18 6.18-17.07zM246.77 99.5c-.57.77-1.22 1.52-2.3 1.12-.88-.33-1.22-2.04-1.28-2.89-.21-3.15-.54-7.16.01-10.24.31-1.75 1.13-3.08 3.06-3.23 3.27-.25 3.86 3.66 3.71 6.11-.18 2.83-1.53 6.82-3.21 9.12zM246.4 105.37c.36.26.81.53 1.02.92.91 1.67.32 3.54-1.61 3.94-1.62.34-4.07-.67-4.8-2.2-.29-.61-.22-1.21.08-1.81.33-.68 1.35-1.28 2.07-1.46 1.31-.32 2.17-.16 3.24.6z" fill="#fff"/></svg>