<svg xmlns="http://www.w3.org/2000/svg" width="250" height="116" viewBox="0 0 250 116"><path d="M51.77 114.51a25.41 25.41 0 0 1-2.62 0 1.32 1.32 0 0 1-.92-.65c-.92-1.9-1.84-3.8-2.61-5.77a53.41 53.41 0 0 1-1.75-5.37 67.58 67.58 0 0 1-2.12-10.76 36.4 36.4 0 0 1 .25-8.64 45.46 45.46 0 0 1 1.58-6.69c.59-2.07 1.23-4.14 2-6.14.91-2.29 2-4.52 3-6.74a1.62 1.62 0 0 1 1.11-.61c1-.12 2.08-.13 3.12-.15.19 0 .52.11.54.22a2.08 2.08 0 0 1 0 1.08c-.33.77-.78 1.49-1.15 2.24a40.38 40.38 0 0 0-3 8.2 59.69 59.69 0 0 0-1.8 10.67 80.5 80.5 0 0 0 .09 8.07 36.54 36.54 0 0 0 .51 4.41 61.18 61.18 0 0 0 4.14 13.87 11.21 11.21 0 0 0 .58 1.08c.7 1.17.46 1.65-.95 1.68zM198.31 63.92h3.67a1.3 1.3 0 0 1 1.35.84 47.63 47.63 0 0 1 4.51 11.79 43.57 43.57 0 0 1 1.53 8.87c0 1.64.25 3.27.25 4.91a25.3 25.3 0 0 1-.32 4.17c-.32 1.85-.8 3.68-1.25 5.52s-.82 3.52-1.39 5.22a53.43 53.43 0 0 1-4.23 9.61 1 1 0 0 1-.67.34c-1 .17-1.93.28-2.9.43a1.08 1.08 0 0 1-1.14-1.1 2.92 2.92 0 0 1 .32-.75 41.74 41.74 0 0 0 3.58-9c.4-1.31.81-2.61 1.13-3.93a34 34 0 0 0 .68-3.62c.29-2.22.61-4.44.75-6.67.1-1.69-.06-3.4-.12-5.09 0-.41-.06-.82-.11-1.23-.21-1.8-.34-3.6-.66-5.38a41.54 41.54 0 0 0-1.19-4.64c-.6-2-1.22-4-1.95-5.92-.39-1.07-1.05-2-1.53-3.08a6.27 6.27 0 0 1-.31-1.29zM11.86 36.37c-.15.8-.32 1.6-.44 2.4-.22 1.35-.37 2.71-.6 4.06-.3 1.69-.64 3.38-1 5.06-.4 1.91-.85 3.8-1.26 5.7-.11.54-.42.69-.93.7-.74 0-1.48.07-2.22.12-1.13.07-1.63-.45-1.8-1.59-.36-2.43-.8-4.86-1.22-7.29-.24-1.4-.44-2.81-.73-4.2-.36-1.71-.78-3.4-1.18-5.09-.12-.51-.32-1-.44-1.49s.08-.9.73-.86a23.91 23.91 0 0 1 2.54.19 1.17 1.17 0 0 1 .73.77c.5 4.16.94 8.34 1.4 12.5.15 1.34.28 2.68.45 4 0 .17.21.33.32.49.15-.14.41-.27.45-.45.18-.82.31-1.66.44-2.5.52-3.16 1-6.31 1.54-9.46.25-1.51.54-3 .8-4.52.1-.58.37-.89 1-.88h3.05a1 1 0 0 1 1.18 1c.58 3.07 1.21 6.13 1.78 9.2.42 2.23.78 4.47 1.17 6.7a1.41 1.41 0 0 0 .12.48 2.73 2.73 0 0 0 .39.44c.13-.16.33-.31.36-.49.07-.57 0-1.15.11-1.72.32-2.78.68-5.54 1-8.32.22-2 .39-4 .55-6 .08-1 .28-1.23 1.23-1.26h2.06c.53 0 .74.23.66.68-.16.88-.38 1.75-.56 2.63-.26 1.26-.53 2.51-.76 3.77-.4 2.28-.77 4.57-1.16 6.86-.27 1.59-.57 3.18-.84 4.78-.25 1.22-.57 1.52-1.78 1.52h-1.9c-.95.07-1.35-.17-1.53-1.06-.65-3.13-1.33-6.27-1.92-9.41-.41-2.18-.67-4.39-1-6.57a4.06 4.06 0 0 0-.4-1zM130.29 12.86V2.72c0-2.17 0-2.19 2.16-2.16 2.85 0 5.73-.13 8.52.61a4.78 4.78 0 0 1 3.43 3.34 9.42 9.42 0 0 1 .06 5.87 5.25 5.25 0 0 1-2.46 2.94c-.87.52-.93.66-.19 1.28 1 .87 1.18 2.14 1.58 3.29.58 1.65 1.14 3.31 1.7 5a4.37 4.37 0 0 1 .18.46c.23 1-.05 1.32-1.07 1.25-.76-.06-1.53-.14-2.29-.14a1.07 1.07 0 0 1-1.18-1c-.42-1.81-.89-3.62-1.34-5.42a4.07 4.07 0 0 0-.24-.61c-1.21-2.62-1.33-2.27-4.19-2.18-.6 0-.59.45-.59.88v7.18c0 1.12-.11 1.2-1.22 1.12a8.2 8.2 0 0 0-1.31 0c-1.08.11-1.54-.29-1.54-1.35V12.86zm3.93-4.75h.07v3.13c0 .6.25.88.85.81a13.21 13.21 0 0 0 2.68-.37c1.27-.42 2.57-1 2.84-2.53a11.75 11.75 0 0 0 .21-2.15 2.36 2.36 0 0 0-2.27-2.55c-1.16-.15-2.35-.15-3.52-.22-.66 0-.88.28-.87.89.02 1.01.01 2 .01 2.99zM75.49 19v-4c0-.65-.24-.93-.93-.94-2 0-4-.1-6-.17-.64 0-1 .2-.94.91.1 2.58.14 5.16.24 7.74 0 1.41-.19 1.71-1.6 1.72h-1.32c-.89 0-1.33-.57-1.32-1.45v-10c0-1.93.07-3.85.07-5.77s0-4-.06-5.93c0-.7.32-1 1-1A23.67 23.67 0 0 0 67 .17c.64 0 .79.27.78.85-.08 2.88-.12 5.76-.19 8.64 0 .66.42.66.88.66h5c1.92 0 1.91 0 1.93-1.88 0-1.15.13-2.3.12-3.45s-.11-2.41-.14-3.62c0-.91.19-1.11 1.1-1.12s1.59 0 2.39 0 1.07.43.87 1.07c-.63 2.08-.25 4.2-.32 6.3s0 4.18.06 6.27q.06 3.87.15 7.74c0 .58.13 1.15.14 1.72a.81.81 0 0 1-.91.92h-2.31c-.77 0-1.12-.3-1.13-1.17.06-1.35.07-2.73.07-4.1zM186.91 18.45V1.71c0-.78.3-1 1-1s1.54.11 2.3.11.86.3.85.91c0 2.7-.06 5.39-.09 8.09 0 1 .09 1.12 1.12 1.12h5.78c.7 0 .94-.29.93-.93-.05-2.72-.08-5.44-.15-8.16 0-1 .22-1.21 1.2-1.09.7.09 1.42.07 2.13.1s1 .37 1 1.16q-.13 5.31-.21 10.62c0 2.19-.05 4.39 0 6.58 0 1.4.12 2.79.15 4.19 0 1.12-.19 1.32-1.27 1.31h-1.74c-.77 0-1.08-.28-1.08-1.06v-8c0-.78-.2-1.06-1-1.05-2 0-4 0-5.94-.09-.7 0-.91.24-.9.91 0 2.67.05 5.33.07 8 0 1-.11 1.15-1.13 1.17h-1.81c-.93 0-1.16-.19-1.16-1.13v-5zM165.07 10.13v7.84a6.86 6.86 0 0 1-1.48 4.37 5.67 5.67 0 0 1-4.41 2 25.4 25.4 0 0 1-3.38 0 5.63 5.63 0 0 1-5.1-4.47c-.68-3.73-.24-7.46-.36-11.18-.08-2.28 0-4.56 0-6.84 0-1.11.11-1.21 1.24-1.17h1.82c.95 0 1.06.06 1 1.05-.07 1.67-.2 3.34-.17 5 0 3.81.15 7.63.28 11.44a2.61 2.61 0 0 0 2.12 2.83c1.55.4 3.39-.09 4-1.25a5.79 5.79 0 0 0 .57-2.45c.06-4.4 0-8.79 0-13.18 0-.82-.15-1.64-.19-2.46s.27-1 1.09-1a18.31 18.31 0 0 0 2 0c.78 0 1 .39 1 1.14v8.32zM95 20.51h3.22c.6 0 .86.22.85.81v2.22c0 .54-.3.82-.9.81-3.32 0-6.65-.06-10-.07-1.45 0-1.64-.14-1.62-1.58 0-2.66.12-5.32.12-8 0-4.15-.08-8.3-.12-12.45v-.58C86.47.29 86.7.15 88.11.28c1.15.1 2.33 0 3.5 0 .57 0 1.14.09 1.72.08 1.54 0 3.07-.09 4.61-.11 1.07 0 1.31.31 1.16 1.36-.1.65-.16 1.3-.24 2a.69.69 0 0 1-.82.7c-2.15 0-4.29-.08-6.43-.16-.64 0-1 .2-1 .87 0 1.59 0 3.18.08 4.76a1 1 0 0 0 .68.69c1.93 0 3.85 0 5.77-.06a.77.77 0 0 1 .92.57 1 1 0 0 1 0 .24c.11 2.54.51 3.28-2.72 3-1.25-.12-2.52-.06-3.78-.14a.81.81 0 0 0-1 .93c0 1.65.07 3.29.14 4.94 0 .45.27.67.75.66h3.47zM225 41a5.35 5.35 0 0 0 0 1c.64 4.15.41 8.34.45 12.51 0 1.14-.24 1.35-1.37 1.24-.44-.05-.88 0-1.32-.06a1 1 0 0 1-1-1.14c.05-5.83.09-11.66.09-17.49 0-1.94-.06-1.94 1.83-1.82a.86.86 0 0 0 .16 0c1.15-.18 1.71.31 2.19 1.4 1.2 2.74 2.65 5.36 3.92 8.07.57 1.2 1 2.5 1.45 3.74a10.48 10.48 0 0 0 .53 1.06h.24a2 2 0 0 0 .16-.6c-.11-1-.33-2-.38-3-.09-1.87-.09-3.74-.11-5.6v-4.05c0-.69.18-1.1 1-1a10.29 10.29 0 0 0 1.57 0c.7 0 1 .3 1 1-.07 2.08-.14 4.17-.16 6.26v8.91c0 1 .12 2 .12 3s-.31 1.31-1.35 1.32a2.28 2.28 0 0 1-2.46-1.42c-1.35-3-2.92-5.84-4.33-8.78-.64-1.36-1.13-2.79-1.7-4.18a4.23 4.23 0 0 0-.24-.4zM169 39.05c-.08-1-.17-2.17-.28-3.37-.06-.68.22-1 .89-1 2.08.07 4.17.09 6.25.2a5.55 5.55 0 0 1 3.4 1c1.81 1.47 1.82 3.45 1.55 5.48a4 4 0 0 1-1.63 2.84c-.6.45-.46.67.13 1.06a5.48 5.48 0 0 1 1.75 1.63c1.16 2.07.66 5.58-1.25 7.07a6.14 6.14 0 0 1-3.67 1.25c-1.94.07-3.89.11-5.83.13-1.25 0-1.58-.42-1.57-1.65V43.16c.07-1.26.19-2.57.26-4.11zm5.63 13.32h1.07a2.36 2.36 0 0 0 2.44-2c.36-1.58-.08-3.11-1.27-3.46a20.56 20.56 0 0 0-3.71-.42c-.65-.06-.87.29-.83.9a16.35 16.35 0 0 1 .1 2.79c-.29 2.55.37 2.22 2.22 2.19zm-2.32-11.8v2.06c0 .69.35 1.07 1.06 1a12.2 12.2 0 0 0 2.5-.41 2.9 2.9 0 0 0 1.42-1.09 3.32 3.32 0 0 0 .12-3.22 2 2 0 0 0-1.23-1 21.21 21.21 0 0 0-3.19-.23c-.46 0-.71.22-.71.71.05.69.05 1.43.05 2.18zM204.75 45.21v-9.24c0-.72.16-1 1-1 1.37.09 2.76 0 4.13.06a23.67 23.67 0 0 1 3.67.39 4 4 0 0 1 3.17 3.19 7.73 7.73 0 0 1 .14 4 5.56 5.56 0 0 1-2.33 3.39c-.44.3-.56.6-.21 1a10.77 10.77 0 0 1 1.8 4c.29.91.62 1.81.92 2.72a2.89 2.89 0 0 1 .16.72c.1 1-.1 1.17-1 1.18h-.5c-2.34 0-2 .39-2.64-2.33-.39-1.73-.55-3.53-1.67-5-.55-.73-2.37-1-3-.41a1.32 1.32 0 0 0-.28.89v5.52c0 1.22-.1 1.33-1.28 1.34-2.08 0-2.07 0-2.06-2.05v-8.37zm3.25-3.89v2.72a.64.64 0 0 0 .67.75c2.67 0 5.17-.94 4.89-4.46a1.86 1.86 0 0 0-1.48-1.9 24.64 24.64 0 0 0-3.33-.42c-.52 0-.77.29-.75.84v2.47zM58.78 44.46v-9.07c0-1 .14-1.09 1.15-1 1.78.06 3.57 0 5.36.06a15.1 15.1 0 0 1 3 .54 3.27 3.27 0 0 1 1.18.71c1.74 1.48 1.82 3.46 1.63 5.51a5.27 5.27 0 0 1-2.49 4.15 1 1 0 0 0-.07.93 7 7 0 0 1 1.63 3.36c.34 1.18.73 2.35 1.13 3.51s0 1.78-1.26 1.64c-.14 0-.27-.07-.41-.08-1.79-.18-1.77-.18-2.14-1.84A17.26 17.26 0 0 0 66 48a2.27 2.27 0 0 0-3-1.22 1.24 1.24 0 0 0-.63.92v5.44c0 1.12-.06 1.36-1.16 1.56a4.53 4.53 0 0 1-.73.08c-1.59 0-1.75-.15-1.74-1.72v-8.58zm3.41-3.88v1.82c0 1.76 0 1.76 1.7 1.58h.33c2.22-.23 3.48-1.39 3.65-3.55.11-1.47-.43-2.73-1.89-2.91-1-.11-2-.17-3-.22-.54 0-.78.29-.78.83 0 .8-.01 1.63-.01 2.45zM133.87 44.65v2.31a9.67 9.67 0 0 1-2 5.86 6.55 6.55 0 0 1-5 2.24c-1.51.06-3 0-4.52 0-1.17 0-1.45-.31-1.43-1.49 0-1.73.15-3.46.17-5.19v-9.87a25.81 25.81 0 0 0-.21-2.78c-.08-.71.2-1.17.91-1.15a50.89 50.89 0 0 1 6.89.34 5.44 5.44 0 0 1 4.26 3.52 13.93 13.93 0 0 1 .93 6.21zm-9.55-2.08h.12v7.33c0 2 0 2 2 2 2.26 0 3.34-1 3.84-3.35a20.33 20.33 0 0 0 0-7.85c-.2-1.15-.63-2.32-2-2.61a21.89 21.89 0 0 0-2.65-.45c-1-.09-1.24.18-1.25 1.23zM198.76 43c0 2.31.11 4.63 0 6.93a6 6 0 0 1-1.89 4.31 4.45 4.45 0 0 1-1.78.81 8.56 8.56 0 0 1-6.09-.42 4.33 4.33 0 0 1-2.46-3.75c-.23-3.22-.18-6.46-.25-9.69 0-1.68-.07-3.35-.13-5 0-1.09.11-1.28 1.17-1.28h1.16c1.06 0 1.22.17 1.22 1.26v13.37a2.73 2.73 0 0 0 2.19 2.86c1.9.17 3.12-.61 3.36-2.31a30.61 30.61 0 0 0 .18-3.59c0-2.06.09-4.12.09-6.18 0-1.37-.1-2.74-.12-4.12 0-1 .27-1.27 1.25-1.29 2.21 0 2.19 0 2.16 2.16v5.94zM51.22 14.11V5.86v-.9c0-.63-.27-.92-1-.88-1.23.06-2.47 0-3.71 0-.88 0-1.24-.37-1.26-1.23V1.03C45.2.31 45.53 0 46.3 0q3.42.06 6.85.07h6.92c1.08 0 1.36.34 1.13 1.39a17.35 17.35 0 0 0-.41 1.84 1 1 0 0 1-1.11.93c-1.18 0-2.36 0-3.53-.13-.72 0-1 .19-1 .91 0 4.62.07 9.23.1 13.84v4c0 .95-.22 1.17-1.16 1.2h-1.82c-1 0-1.11-.11-1.11-1.08v-8.9zM174.41 14.57V5.91c0-1-.17-1.15-1.15-1.16h-4a.73.73 0 0 1-.85-.69 27.48 27.48 0 0 1 0-2.87c0-.49.34-.69.87-.56a5.43 5.43 0 0 0 1.14.09h12.79c1.05 0 1.09 0 1 1.05-.06.63-.09 1.26-.2 1.88s-.46 1.18-1.34 1.13c-1.09-.08-2.2 0-3.29-.07-.79-.07-1 .17-1 .93 0 3.88 0 7.75.08 11.63 0 1.92.1 3.84.15 5.76 0 1.34-.24 1.61-1.56 1.55h-1.48c-1 0-1.24-.24-1.24-1.28v-4.37-4.37zM47.66 34.23h.17c1.94 0 1.88.05 2.4 1.93.64 2.32 1.42 4.59 2.1 6.9s1.32 4.75 2 7.11c.32 1.11.72 2.19 1 3.3.25.92-.07 1.29-1 1.28a8.3 8.3 0 0 1-1.87-.19 1.21 1.21 0 0 1-.67-.73 12.68 12.68 0 0 1-.4-1.85c-.19-1-.47-1.18-1.44-1.18-1.62 0-3.24-.08-4.85-.06a1.06 1.06 0 0 0-.8.52 5.94 5.94 0 0 0-.41 1.66c-.15 1.21-.6 1.65-1.8 1.66h-1.41c-.77 0-1-.33-.78-1.06s.41-1.19.59-1.79c1-3.19 1.9-6.39 2.82-9.6.67-2.32 1.31-4.66 2-7 .17-.57.47-1 1.17-.93.36.06.77.03 1.18.03zm.18 2.77h-.31a11.5 11.5 0 0 0-.47 1.23q-.73 3.06-1.43 6.12c-.2.88-.36 1.77-.52 2.65-.11.58.09.84.74.84a31.05 31.05 0 0 1 3.61.17c.58.07.77-.08.75-.6a5.29 5.29 0 0 0-.12-.89c-.4-1.64-.83-3.26-1.21-4.9-.27-1.19-.45-2.41-.69-3.61a6.6 6.6 0 0 0-.35-1.01zM117.47 14.21V5.47c0-.87-.19-1.07-1.07-1-1.31 0-2.63.08-4 .15-.65 0-1-.2-1-.89V1.26c0-.5.2-.74.65-.74.66 0 1.31.05 2 .05h12.38c.81 0 1 .3.92 1.07s-.22 1.34-.32 2a1.2 1.2 0 0 1-1.39 1c-1-.09-2.08-.17-3.12-.21s-1.26.24-1.25 1.26q.09 8.7.17 17.4c0 1.09-.31 1.34-1.41 1.25a5.54 5.54 0 0 0-1.22 0c-1 .16-1.38-.14-1.41-1.12v-9.01zM34.5 51.21h2.64c.56 0 .77.27.8.8.16 2.38.08 2.47-2.3 2.47h-7A1.06 1.06 0 0 1 27.52 53a5.55 5.55 0 0 0 .23-1.45c0-2.34-.12-4.67-.13-7s.06-4.77.06-7.16a13 13 0 0 0-.16-2c-.15-.95.16-1.27 1.12-1.23s2.14-.07 3.21-.06 1.91.09 2.87.09c.74 0 1.48-.05 2.22-.12s1 .19 1 .87c.11 2.38 0 2.48-2.32 2.46-1.23 0-2.46-.07-3.7-.13-.72 0-1 .27-1 1 0 1.21.06 2.42 0 3.63 0 .72.23 1 1 .94h3.71c1.24 0 1.69.47 1.6 1.74-.07 1-.41 1.35-1.43 1.33-1.34 0-2.68-.08-4-.13-.48 0-.81.12-.81.68v4c0 .61.33.84.88.84h2.63zM143.8 34.75h4.37c.65 0 .93.23.88.87 0 .33 0 .66-.06 1-.12 1.45-.26 1.55-1.69 1.48s-2.64-.09-4-.08c-1.15 0-1.21.1-1.21 1.22v3.22c0 .59.18.91.86.9h4.27c.16 0 .39 0 .48.06.74.73.32 1.65.35 2.49 0 .6-.53.59-.91.59-1.29 0-2.58-.07-3.87-.1s-1.21 0-1.19 1.23v3.3c0 .9.26 1 1.14 1 1.71-.05 3.41 0 5.12 0a.77.77 0 0 1 .54.54 14.55 14.55 0 0 1 0 2.38c0 .17-.39.44-.59.43-2.83 0-5.66-.11-8.49-.16-1.08 0-1.23-.33-1.16-1.42.14-2.08.14-4.16.18-6.25v-4.77-5.11a10.13 10.13 0 0 0-.22-1.63c-.18-.92.11-1.25 1-1.24h4.13zM139.93 81.63a5 5 0 0 1-.52-.92q-.89-2.89-1.72-5.82c-.09-.33-.06-.71-.18-1a5.91 5.91 0 0 0-.49-.93l-.27.09c-.14.77-.24 1.55-.41 2.32-.39 1.76-.81 3.51-1.23 5.27-.25 1.06-.48 2.14-.8 3.18-.12.38-.44.89-.75 1a4.73 4.73 0 0 1-2-.06c-.14 0-.28-.75-.19-1.1 1-3.72 2.06-7.42 3.09-11.14.28-1 .52-2 .8-3a1.12 1.12 0 0 1 1.23-.88c.72 0 1.56-.18 1.85.81.66 2.3 1.3 4.61 2 6.92a1.1 1.1 0 0 0 .5.65c.13.06.48-.2.63-.39 1.88-2.43 3.77-4.85 5.6-7.31.39-.52.86-.49 1.38-.52 2.18-.12 1.77.42 1.4 1.91-.24.94-.6 1.86-.78 2.82-.64 3.44-1.23 6.89-1.82 10.33-.17 1-2 1.73-2.66 1a1.53 1.53 0 0 1-.26-1.13 23.91 23.91 0 0 1 .55-2.48c.56-2.25 1.14-4.5 1.71-6.76a2.45 2.45 0 0 0 0-1.18zM107.61 106.34c.07-.63.09-1.27.22-1.89.36-1.68.78-3.34 1.16-5 .24-1.09.43-2.2.67-3.29 0-.22.16-.6.28-.61a12.32 12.32 0 0 1 2.35-.07c.15 0 .42.68.35 1-.62 2.55-1.34 5.07-2 7.61-.41 1.64-.72 3.31-1.07 5a11.92 11.92 0 0 1-.42 2c-.17.42-.57 1-1 1-1.17.24-1.78 0-2-.78-.44-1.46-.78-3-1.16-4.44-.13-.47-.3-.93-.4-1.41-.34-1.57-.65-3.14-1-4.7 0-.21-.3-.38-.46-.56-.11.21-.32.43-.32.64a41.07 41.07 0 0 1-1.75 9.34c0 .08 0 .16-.07.24-.37 1.64-1.12 2.1-2.8 1.66-.77-.2-.52-.84-.41-1.29.55-2.33 1.21-4.63 1.75-7 .6-2.55 1.13-5.12 1.67-7.69.15-.74.71-.79 1.26-.72.74.09 1.75-.47 2.09.71.39 1.39.73 2.79 1.07 4.19.43 1.77.84 3.55 1.27 5.32a4.69 4.69 0 0 0 .34.8zM89.89 79.68a23.09 23.09 0 0 1 .26-2.49c.48-2.33 1-4.64 1.54-7 .08-.37.11-.75.16-1.13a.74.74 0 0 1 .89-.74 7.28 7.28 0 0 0 1.32 0c.87-.06 1.17.32.92 1.16-.58 1.93-1.18 3.86-1.7 5.8-.38 1.43-.65 2.88-1 4.32s-.52 2.64-.78 4c-.16.79-.62 1-2 1.06-.74 0-.9-.36-1.07-1-.64-2.25-1.39-4.47-2-6.72-.3-1.1-.42-2.25-.63-3.37-.05-.23-.11-.46-.17-.69h-.22c-.06.23-.14.46-.19.69-.44 2.31-.86 4.62-1.33 6.92-.23 1.12-.55 2.23-.85 3.33-.06.22-.22.57-.36.59a10.71 10.71 0 0 1-2.4 0c-.51-.07-.42-.6-.3-1 .4-1.42.81-2.83 1.2-4.25s.89-3.08 1.26-4.63.75-3.4 1-5.11c.16-.9.35-1.14 1.26-1.12a3.08 3.08 0 0 1 1.06.05c.37.17.85.47 1 .82.51 1.67.91 3.37 1.35 5.07s.88 3.43 1.33 5.14a.73.73 0 0 0 .17.26zM245.67 35.25c1 .15 2 .25 3 .48a1.19 1.19 0 0 1 .76.72 7.13 7.13 0 0 1 .07 2c-.05.63-.49.66-1 .56a26.31 26.31 0 0 0-3.3-.51 2.26 2.26 0 0 0-2.32 1.6 2.66 2.66 0 0 0 1.12 2.71 43.93 43.93 0 0 1 4 2.75 5.71 5.71 0 0 1 1.89 5.72c-.65 3.81-3.58 4.56-6.68 4.44a16 16 0 0 1-2.89-.53 1.39 1.39 0 0 1-1.18-1.63 2.08 2.08 0 0 0 0-.25c0-1.82.27-2 2-1.33a6.24 6.24 0 0 0 3.69.42 2.27 2.27 0 0 0 1.74-1.76 2.35 2.35 0 0 0-.83-2.39c-1.64-1.18-3.35-2.29-4.88-3.59-2-1.71-2.11-6.66 1-8.43a7.48 7.48 0 0 1 3.81-.98zM173.1 95.51c1.3.15 2.61.27 3.91.45a3.54 3.54 0 0 1 2.81 3.54c-.08 2.46-1 4.23-3.36 5.09-.61.22-.65.6-.34 1a4.91 4.91 0 0 1 .9 2.6c.09 1.1.2 2.19.29 3.28 0 .5-.2.74-.71.81-2.38.34-2.67.08-2.7-2.28a24.33 24.33 0 0 0-.2-3.2 2 2 0 0 0-2.83-1.06 1 1 0 0 0-.33.55c-.35 1.6-.68 3.21-1 4.82-.15.7-.45 1.24-1.32 1.11a1.86 1.86 0 0 0-.41 0c-1.43.06-1.7-.33-1.33-1.67.44-1.61.78-3.24 1.2-4.85.56-2.2 1.16-4.38 1.71-6.58.24-.95.4-1.92.56-2.89.08-.45.26-.65.75-.63h2.4zm3.78 4.29a1.24 1.24 0 0 0-1.11-1.51 10.83 10.83 0 0 0-2.67-.08 1 1 0 0 0-.73.63c-.35 1.23-.61 2.49-.9 3.73-.2.83 0 1 .87.89.27 0 .55-.06.82-.09 2.17-.19 3.71-1.61 3.72-3.57zM80.31 34.4c1.22.17 2.14.28 3 .44a1.27 1.27 0 0 1 1.12 1.39c0 2.36 0 2.13-2 1.66a11.37 11.37 0 0 0-2.6-.27 1.77 1.77 0 0 0-1.77 1.12 2.33 2.33 0 0 0 .46 2.73 23.11 23.11 0 0 0 3.13 2.1 6.11 6.11 0 0 1 3.23 5.94c-.14 2.28-1.15 4.14-3.4 4.86a13.91 13.91 0 0 1-4 .32 10.34 10.34 0 0 1-2.17-.4A1.37 1.37 0 0 1 74.23 53v-.4c-.12-2.06 0-2.16 1.92-1.51a6.63 6.63 0 0 0 3.81.24 2.25 2.25 0 0 0 1-3.81 12.19 12.19 0 0 0-2-1.42 22.08 22.08 0 0 1-3-2.34c-2.09-2.19-2.09-6.94 1.47-8.64a13 13 0 0 1 2.88-.72zM101.19 54.94c-1.07-.18-2.16-.35-3.23-.55a1.15 1.15 0 0 1-1-1.33v-1.57c0-.57.3-.85 1-.65a27.88 27.88 0 0 0 2.91.79 2.66 2.66 0 0 0 2.82-.9 2.3 2.3 0 0 0-.38-3.35c-.55-.45-1.19-.78-1.78-1.18s-1.41-1-2.11-1.44c-1.86-1.33-2.27-3.23-2.15-5.38.16-3.05 3.26-5.19 6.41-4.78l2.37.3a1 1 0 0 1 1 1.11v1.48c0 .72-.33.88-1 .74a23.91 23.91 0 0 0-3.15-.46 1.93 1.93 0 0 0-2.22 1.3 2.78 2.78 0 0 0 1 3c1.17.77 2.39 1.45 3.51 2.29a6 6 0 0 1 2 6.85 4.82 4.82 0 0 1-5 3.59h-.91zM171.92 74.09a16.52 16.52 0 0 1-2.45 7.3 7.08 7.08 0 0 1-5.94 3.41c-1.33.11-2.67.13-4 .17-.91 0-1.12-.15-1-1s.41-1.8.63-2.7c.26-1.11.5-2.22.77-3.33.14-.56.33-1.09.45-1.65q.76-3.3 1.48-6.62a1 1 0 0 1 1.14-.9c1.56.09 3.14 0 4.68.21s2.91.69 3.52 2.19a17.85 17.85 0 0 1 .72 2.92zm-3.15-.09a8.16 8.16 0 0 0 0-1 1.92 1.92 0 0 0-1.56-1.88c-.58-.12-1.19-.13-1.79-.2a1 1 0 0 0-1.15.88c-.2.91-.42 1.81-.64 2.71l-1.77 7.07c-.12.45-.11 1 .44.93a4.91 4.91 0 0 0 3.48-1c2.15-1.98 2.8-4.67 2.99-7.51zM83.15 100.39a15.1 15.1 0 0 1-2.44 8.45 7.39 7.39 0 0 1-3.61 2.79 5.21 5.21 0 0 1-6.52-2.38 4.67 4.67 0 0 1-.47-2.29 19.94 19.94 0 0 1 2.48-8.41 6.2 6.2 0 0 1 5.22-3.21 10.44 10.44 0 0 1 3.08.34c1.09.21 2.16 1.75 2.25 3.07.04.54.01 1.09.01 1.64zm-10 6.37a6.24 6.24 0 0 0 0 1.06 1.82 1.82 0 0 0 1 1.61 3.21 3.21 0 0 0 3.49-1 14.8 14.8 0 0 0 2.83-9 1.8 1.8 0 0 0-1.14-1.84 3.38 3.38 0 0 0-3.3.94 14.47 14.47 0 0 0-2.92 8.23zM125.4 112.06a4.66 4.66 0 0 1-3.09-.9 4.16 4.16 0 0 1-1.7-3.65 18.48 18.48 0 0 1 3.2-9.84 4.67 4.67 0 0 1 2.11-1.67 7.91 7.91 0 0 1 4.7-.33c1.81.39 2.88 1.33 3 3.82A14.29 14.29 0 0 1 130.3 110a6.3 6.3 0 0 1-4.9 2.06zm-1.61-5.83v2.29a1 1 0 0 0 .83 1.08 2.76 2.76 0 0 0 3.67-1.25 29 29 0 0 0 1.74-3.7 11.32 11.32 0 0 0 .78-5 1.91 1.91 0 0 0-2.36-2 3.49 3.49 0 0 0-2.45 1.57 12.24 12.24 0 0 0-2.21 7.01zM70.31 68.24h.33c1 0 1.19.34.92 1.31-.63 2.31-1.2 4.64-1.79 7-.31 1.2-.61 2.39-.9 3.59a1.35 1.35 0 0 0 .73 1.82 3 3 0 0 0 1.21.17c1.87 0 2.59-.63 3-2.45.37-1.56.89-3.1 1.31-4.66.24-.89.41-1.8.62-2.7.26-1.09.51-2.18.77-3.27a.85.85 0 0 1 1-.79h1.24c.75 0 1 .38.8 1.12s-.63 1.69-.87 2.56-.45 2-.69 3c-.33 1.38-.66 2.75-1 4.12a15.72 15.72 0 0 1-.61 2.19 4.91 4.91 0 0 1-4.92 3.29 17.57 17.57 0 0 1-3.32-.27c-2.26-.43-2.74-2.86-2.2-4.46.43-1.26.75-2.56 1.07-3.85.41-1.64.77-3.3 1.14-5a8.14 8.14 0 0 0 .19-1c.27-1.68.29-1.7 1.97-1.72zM89.13 108.31c-1.93-.72-2.86.49-3.51 2.35a2.44 2.44 0 0 1-3.19 1.34c-.53-.18-.66-.66-.31-1.29.47-.84 1-1.65 1.46-2.49 1-1.84 2-3.69 3-5.54l2.7-4.88c.08-.15.15-.29.22-.44 1.14-2.21 1.14-2.2 3.67-2.08.56 0 .81.26.86.84.42 4.56.88 9.11 1.28 13.66.23 2.58.13 2.25-2.35 2.21a1 1 0 0 1-.7-.63 8 8 0 0 1-.06-2c.06-.88-.07-1.08-1-1.1-.54.04-1.2.05-2.07.05zm3-10.33l-.24-.14a4.39 4.39 0 0 0-.57.57 6.17 6.17 0 0 0-.3.75l-3 6.14c-.26.55-.06.88.51.85.87-.05 1.74-.1 2.62-.12s1.11-.25 1.08-1.12c-.06-1.5-.1-3-.14-4.5.05-.81.06-1.62.06-2.41zM178.46 85.11a16.45 16.45 0 0 1-2.55-.51 3.35 3.35 0 0 1-2.1-4.38c.44-1.55.85-3.11 1.25-4.67.5-2 1-3.9 1.48-5.85a1.13 1.13 0 0 1 1.34-1c1.93.07 2 .22 1.41 2.06-.41 1.21-.67 2.48-1 3.73-.54 2.15-1.06 4.3-1.6 6.45-.24 1 .18 1.6 1.16 1.61a10.82 10.82 0 0 0 2.2-.16 1.64 1.64 0 0 0 1.39-1.23c.44-1.64.94-3.25 1.34-4.89.55-2.23 1-4.48 1.56-6.71a1.28 1.28 0 0 1 .82-.77 4.73 4.73 0 0 1 1.72 0c.71.09.65.62.5 1.14-.35 1.29-.71 2.58-1 3.87-.55 2.11-1.07 4.24-1.64 6.35a13.5 13.5 0 0 1-.75 2.25c-.82 1.72-2.41 2.31-4.15 2.58a9.68 9.68 0 0 1-1.32 0zM157.92 108.65h-.17c-2.35-.07-2.35-.07-3.27 2.13a2.54 2.54 0 0 1-3.32 1.4.94.94 0 0 1-.4-.75 1.88 1.88 0 0 1 .36-.81c1.25-2.19 2.55-4.36 3.75-6.57 1.43-2.62 2.77-5.29 4.21-7.91a1.33 1.33 0 0 1 1.08-.48c.83.09 1.79-.47 2.46.38.15.18.11.52.14.79l.78 8.66.54 5.81c.06.71-.23 1-1 .94a5.61 5.61 0 0 0-.58 0c-1.71 0-1.71 0-1.69-1.77s0-1.88-1.88-1.85c-.3-.02-.66.01-1.01.03zM160.7 98l-.22-.06a8 8 0 0 0-.55.92c-.43 1-.8 1.92-1.23 2.86-.61 1.29-1.26 2.55-1.88 3.84-.24.49-.11.8.49.79.88 0 1.76-.05 2.64 0 .68 0 .92-.25.91-.92V98.6a2.45 2.45 0 0 0-.16-.6zM142.49 95.51h3.95c.51 0 .72.29.62.74-.19.92-.66 1.93-1.91 1.9-.93 0-1.87 0-2.8-.12-1.46-.13-1.72.06-2 1.63-.13.64-.25 1.29-.42 1.92s.06.85.65.82l3.13-.16c.64 0 1.16.07 1.26.84a1.33 1.33 0 0 1-1 1.59 7.07 7.07 0 0 1-1.22 0c-1 0-2 0-3 .1a1 1 0 0 0-.69.59c-.24.86-.35 1.76-.57 2.63-.31 1.26-.66 2.51-1 3.76a.63.63 0 0 1-.34.32 1.24 1.24 0 0 1-.47.11c-2.17.18-2.41-.14-1.77-2.17.33-1.07.53-2.18.82-3.27.41-1.52.89-3 1.25-4.56.42-1.78.77-3.57 1.08-5.37.19-1.07.26-1.21 1.34-1.23h3.13zM110.94 77.4l-2.71-.16c-.49 0-.85.11-1 .66-.42 1.86-.91 3.71-1.29 5.58-.18.91-.51 1.25-1.46 1.31-1.52.11-2.13-.18-1.43-2a34.62 34.62 0 0 0 1.06-3.94c.42-1.58.86-3.15 1.24-4.74s.68-3.09 1-4.65a1.07 1.07 0 0 1 1.21-1h6.66c.86 0 1.15.28.88 1.07s-.48 1.47-1.54 1.38-2.13 0-3.2 0c-1.23 0-1.43.07-1.74 1.24-.2.71-.32 1.44-.46 2.17s.14 1 .79.92c1-.05 2-.09 3-.17.6 0 1.12 0 1.21.73s-.52 1.66-1.09 1.71c-.33-.09-.69-.11-1.13-.11zM113.45 34.58h.24c1.51 0 1.51.14 1.45 1.69-.11 3-.07 5.94-.06 8.9s.06 5.78.07 8.66c0 .89-.38 1.25-1.25 1.25-2.67 0-2.42.23-2.41-2.44V39.28v-3.54c0-.91.26-1.14 1.19-1.16zM185.61 112.29c-.57-.06-1.15-.07-1.71-.17-2.77-.53-3.41-3.14-3.17-5.53a21.19 21.19 0 0 1 2-6.48 6.55 6.55 0 0 1 4.92-4.19 14.72 14.72 0 0 1 4.06.26c.18 0 .38.48.44.77a2.31 2.31 0 0 1-.1.81c-.1.64-.36 1-1.1.77-.42-.13-.87-.13-1.3-.22A3.26 3.26 0 0 0 186 100a13.23 13.23 0 0 0-2.22 8c.05 1.3.6 1.9 1.86 1.85a13.23 13.23 0 0 0 2.57-.41c.81-.2 1.1 0 1 .81a2.16 2.16 0 0 1-2.08 2 14.79 14.79 0 0 1-1.49 0zM125.07 84.8h-2.4c-1.09 0-1.38-.53-1.07-1.62.79-2.84 1.52-5.7 2.24-8.55.42-1.7.78-3.41 1.14-5.12a1 1 0 0 1 1.28-1 2.77 2.77 0 0 0 .41 0c1.46 0 1.61.29 1.19 1.69-.51 1.66-.86 3.37-1.28 5.06-.38 1.47-.79 2.94-1.16 4.42a14.73 14.73 0 0 0-.31 1.86c0 .44.19.65.64.64h3c.66 0 .83.23.71.85a1.85 1.85 0 0 1-2.14 1.79h-2.22zM60.51 111.88c-.55-.22-1.25.11-1.24-.9 0-1.24.23-1.58 1.27-1.65 1.83-.13 2.55-.8 3-2.57.51-2.07 1.13-4.1 1.64-6.17.39-1.59.72-3.2 1-4.81.09-.49.25-.65.75-.59a6.46 6.46 0 0 0 1.39 0c.73-.08 1 .17.84.87-.69 3-1.36 5.92-2.1 8.86-.31 1.22-.81 2.38-1.13 3.6A4.15 4.15 0 0 1 63.4 111a18.22 18.22 0 0 1-2.89.88zM115.39 84.79c-1.47 0-1.57-.13-1.19-1.58.63-2.38 1.28-4.74 1.88-7.12.55-2.19 1-4.4 1.54-6.6.15-.63.4-1.08 1.16-1a1.47 1.47 0 0 0 .66 0c1-.35 1.42.31 1.18 1.28-.68 2.74-1.43 5.45-2.08 8.19-.45 1.86-.81 3.74-1.17 5.61-.19.96-.58 1.23-1.98 1.22zM158.12 45.18h-4.45c-1 0-1.2-.26-1.22-1.23v-1.73c0-.58.26-.8.93-.8 3.18 0 6.36 0 9.54-.07.56 0 1 .17 1 .74 0 .74 0 1.48-.09 2.21s-.44.89-1.05.88z" fill="#fff"/></svg>