<svg xmlns="http://www.w3.org/2000/svg" viewBox="0 0 280 74"><path d="M134.12 30.41c-.88-1.59-2.61-2.18-4.12-1.85-1.27.28-2.83 1.56-2.85 3.25l-.21 14.31c-2.4-1.96-4-3.6-5.94-5.56l5.19-.07-1.08-1.43-4.86-.02.52 1.36-9.99-9.36c-.09 3.54-.13 6.85.07 10.22.14 2.35 1.8 2.95 4.09 3.86l-9.09.14c-.66-.93 3.9-.46 4.09-4.13s.27-6.95-.02-10.5c-.89-1.35-2.53-1.83-4.22-2.72l10.24-.08 10.21 9.54v-5.38c0-2.42-1.83-3.07-4.11-4.08h22.32c-.78.98-2.69.09-3.17 1.13-.14.29-.09 1.09.07 1.39l4.96 9.11 3.54-6.27c.57-1 .28-2.53-.25-3.42-.71-1.18-1.9-1.14-3.47-1.91l9.77-.04c-1.98 1.26-3.54 2.23-4.64 4.18L143 46.47l-8.89-16.05zm-19.81-1.15c-.42-.61-.97-.9-1.42-.89l-4.64.09 1.25.86 4.81-.06zm23.92.06c.25 0 .74-.65.73-.9h-6.05l1.23.89h4.09zm14.4-.87h-3.61c.85 1.07 2.67 1.52 3.61 0zm-36.62 2.31l-1.09-1.21-4.83.09c.18.26.94 1.11 1.32 1.11h4.61zm22.98 0l-.58-1.21-4.04.08c.09.3.66 1.14 1.02 1.13h3.59zm-21.14 1.77l-1.23-1.47-4.88.03 1.13 1.46 4.98-.02zm22.03.01l-.62-1.49-4.01.04.69 1.46 3.93-.02zm-20.55 1.47l-1.12-1.22-4.87.11c.26.29 1.16 1.09 1.63 1.09l4.36.02zm21.44-.01l-.67-1.18-3.96.04.68 1.18 3.96-.04zm-19.72 1.48l-1.09-1.21-4.82.09c.18.26.93 1.09 1.33 1.12h4.59zm20.5-.01l-.62-1.16-3.9.02.67 1.19 3.86-.05zm-18.65 1.78l-1.24-1.47-4.87.03 1.11 1.46 5-.02zm19.48.02c.14-.19-.34-1.47-.79-1.46l-3.69.02.66 1.46 3.83-.02zm-17.96 1.45l-1.18-1.2-4.82.09 1.22 1.15 4.78-.04zm18.94.01l-.63-1.17-4 .02.7 1.2 3.93-.05zm.88 1.74l-.81-1.47-3.9.08.66 1.45 4.04-.06zm-17.88 1.55l.05-1.22-4.45.05c.2.31.89 1.11 1.28 1.11l3.12.06zm18.73-.05l-.61-1.17-4.08.07c.3.61.74 1.17 1.17 1.17l3.52-.06zm-18.71.3l-2.84.07c.55.84 1.45 1.25 2.74 1.18l.1-1.25zm18.32.02l-3.34.05c.43 1.01.97 1.25 1.89 1.2.68-.04 1.1-.41 1.45-1.25zM226.01 45.25l-15.59-.02v-.52l2.12-.08c.85-.03 1.79-.77 1.79-1.74v-12.7c0-.99-.94-1.68-1.8-1.73l-2.11-.1v-.53h15.74c3.71 0 6.7 1.74 6.47 5.1-.12 1.71-1.26 2.89-3.21 3.73 2.13.7 3.49 2.01 3.67 3.73.21 1.99-.94 3.78-2.99 4.37-1.18.34-2.63.48-4.1.48zm-7.49-15.96l-.2-.9-4.08.04.65.88 3.63-.02zm6.6 6.15c1.6-1.57 1.53-4.74-.07-6.15-1.2-1.07-2.99-.89-4.54-.83v7.9c1.54.04 3.37.3 4.61-.91zm3.4-6.35c-1.1-.47-2.33-.71-3.56-.63.9 1.08 2.02 1.05 3.56.63zm-13.55.48v1.21l3.54.03V29.6l-3.54-.03zM230 30.71c-.37-.59-.86-1.14-1.16-1.14l-2.63.04.57 1.19 3.21-.1zm-11.49.36h-3.46v1.48h3.46v-1.48zm8.35-.01v1.49h3.56v-1.49h-3.56zm-8.35 1.78h-3.46v1.18h3.46v-1.18zm11.66 1.19l.23-1.19h-3.53l-.13 1.19h3.44zm-11.66.29h-3.46v1.18h3.46v-1.18zm10.32 1.12c.29 0 .99-.95 1.01-1.09l-3.26-.04-.66 1.19 2.9-.06zm-10.32.36h-3.46v1.48h3.46V35.8zm7.57.78l1.62-.66c-1.13-.23-2.38-.53-3.27.88 1.06.43 2.1.53 3.06.41l-1.4-.64zm-.88 7.22c1.64-1.51 1.55-4.7-.07-6.05-1.23-1.04-3.06-.77-4.63-.74v7.6c1.55 0 3.43.36 4.7-.81zm-6.69-6.23h-3.46v1.18h3.46v-1.18zm11.59 1.19c-.76-1.89-4.14-1.19-3.95-.92.09.13.42.82.58.82l3.37.1zm-11.59.28h-3.46v1.48h3.46v-1.48zm12.3 1.47l-.3-1.47-3.68.04.28 1.45 3.71-.02zm-12.3.3h-3.46v1.18h3.46v-1.18zm12.31-.01h-3.83V42h3.83v-1.2zm-12.31 1.46l-3.53.03v1.21l3.54-.03v-1.21zm11.31 1.19l.76-1.12-3.56-.07-.66 1.21 3.46-.02zm-11.3 1.2l-.2-.9h-3.44l-.63.89h4.28zm10.34-.67c-1.61-.4-2.73-.53-3.63.62 1.28.09 2.53-.14 3.63-.62zM40.53 45.38c-6.09 1.32-13.37.11-15.82-5.75-1.8-4.31.26-9.1 4.59-11.11 4.07-1.89 9.1-1.7 13.15.17 3.68 1.7 5.59 5.31 5.19 9.04s-3.17 6.8-7.11 7.65zm-1.15-15.25c-.65-1.45-1.99-2.28-3.26-2.32-4.63-.16-6.22 8.9-3.52 15.14.7 1.61 2.17 2.41 3.8 2.28 4.62-.36 5.41-9.7 2.99-15.1zm-9.53.68c.44.01 1.18-.87.96-1.13-1.58-.31-2.85-.17-3.53 1.05l2.57.07zm13.24-.05c-.57-1.19-1.65-1.43-3.15-1.05-.04.12.43 1.06.77 1.06h2.38zm-13.41 1.79l.39-1.48h-3.29l-.87 1.45 3.76.02zm14.55-.01l-.62-1.46-3.03-.02.26 1.47h3.38zm-15.07 1.49l.25-1.19h-3.57l-.65 1.17 3.97.02zM44.97 34l-.65-1.18-3.3.03.15 1.19 3.8-.04zm-16.06 1.5l.11-1.2-3.98.04-.14 1.17h4.01zm12.33-1.18v1.18h4.03v-1.18h-4.03zM24.79 35.8v1.48h4.09V35.8h-4.09zm16.55-.01v1.48h4.05v-1.48h-4.05zM24.9 37.57v1.18h4.14v-1.18H24.9zm20.27 1.18l.1-1.18h-3.93l-.03 1.18h3.86zm-15.73 1.76l-.31-1.46-3.83-.02.5 1.5 3.64-.02zm15.2 0l.34-1.47h-3.71l-.21 1.49 3.58-.02zm-14.55 1.48l-.59-1.22-3.41.09c.11.29.7 1.11 1.02 1.11l2.98.02zm14.19-1.18l-3.13.04c-.24 0-.67 1.01-.43 1.04l1.18.12c1.16.12 2.22.1 2.39-1.19zm-14.31 1.47l-2.59.05c.73 1.11 1.92 1.34 3.43 1.09.24-.13-.41-1.15-.84-1.14zm13.24.03l-2.63.03c-.22 0-.61.98-.4 1.02l.87.13c.94.14 1.79-.25 2.16-1.18zM59.11 36.18v8.44c5.84.61 7.87-1.99 11.86-6.02l.13 6.63H49.01l.01-.53 2.12-.08c.85-.03 1.79-.77 1.79-1.74V30.17c0-.79-.83-1.63-1.52-1.68l-2.4-.15v-.51l21.84-.01-.05 6.58c-2.37-2.11-3.82-4.35-6.48-5.56-1.5-.68-3.5-.38-5.23-.4v7.25c2.08.4 4.09-.97 5.09-2.42.13-.19.63-.4 1.04-.52l-.08 7.13c-1.89-2.11-3.04-3.74-6.04-3.7zm-2.01-6.89l-.2-.9-4.08.04.65.88 3.63-.02zm11.58-.87l-3.55.04c.6.88 1.71 1.3 2.87 1.14l.97-.13c.2-.03-.07-1.05-.29-1.05zm-15.12 1.15v1.21l3.54.03V29.6l-3.54-.03zm3.54 1.5h-3.46v1.48h3.46v-1.48zm0 1.77h-3.46v1.18h3.46v-1.18zm0 1.48h-3.46v1.18h3.46v-1.18zm0 1.48h-3.46v1.48h3.46V35.8zm0 1.77h-3.46v1.18h3.46v-1.18zm0 1.47h-3.46v1.48h3.46v-1.48zm0 1.77h-3.46v1.18h3.46v-1.18zm12.2 2.68l-.12-2.12-2.12 2.04 2.24.08zm-12.2-1.23l-3.53.03v1.21l3.54-.03v-1.21zm.01 2.39l-.2-.9h-3.44l-.63.89h4.28zm11.96-.01c.19-.02.22-.88.01-.89l-.77-.02c-1.36-.04-2.56.14-3.6.88l4.35.04zM268.01 36.18v8.44c5.84.61 7.87-1.99 11.86-6.02l.13 6.63h-22.09l.01-.53 2.12-.08c.85-.03 1.79-.77 1.79-1.74V30.17c0-.79-.83-1.63-1.52-1.68l-2.4-.15v-.51l21.84-.01-.05 6.58c-2.37-2.11-3.82-4.35-6.48-5.56-1.5-.68-3.5-.38-5.23-.4v7.25c2.08.4 4.09-.97 5.09-2.42.13-.19.63-.4 1.04-.52l-.08 7.13c-1.89-2.11-3.04-3.74-6.04-3.7zM266 29.29l-.2-.9-4.08.04.65.88 3.63-.02zm11.58-.87l-3.56.04c.6.88 1.71 1.3 2.87 1.14l.97-.13c.2-.03-.08-1.05-.28-1.05zm-15.12 1.15v1.21l3.54.03V29.6l-3.54-.03zm3.54 1.5h-3.46v1.48H266v-1.48zm0 1.77h-3.46v1.18H266v-1.18zm0 1.48h-3.46v1.18H266v-1.18zm0 1.48h-3.46v1.48H266V35.8zm0 1.77h-3.46v1.18H266v-1.18zm0 1.47h-3.46v1.48H266v-1.48zm0 1.77h-3.46v1.18H266v-1.18zm12.2 2.68l-.12-2.12-2.12 2.04 2.24.08zM266 42.26l-3.53.03v1.21l3.54-.03v-1.21zm.01 2.39l-.2-.9h-3.44l-.63.89h4.28zm11.96-.01c.19-.02.22-.88.01-.89l-.77-.03c-1.36-.04-2.56.14-3.6.88l4.35.04zM172.85 37.92c1.81 2.27 3.18 3.84 5.3 5.2 5.46 3.48 11.98 2.34 11.76-.37-.08-.96-.96-1.58-2.11-2.19l3.87-.09-.26-1.45-8.09.05 4.69 1.28c-1.06.14-1.75-.15-2.62-.28l-6.46-.99c-3.99-.61-6.96-2.26-6.82-6.09.06-1.52.9-3.07 2.38-4.07 4.14-2.76 9.49-2.04 13.26 1.07l3.54-2.73-.07 7.16c-2.49-3.02-4.61-5.36-8.15-6.25-3.82-.96-7.67.09-7.53 2.41.04.66.95 1.76 1.74 1.9l8.27 1.51c2 .36 4.08.8 5.73 1.95s2.14 3.17 1.84 5.13c-.89 5.74-11.14 6.22-16.37 1.85l-3.93 2.73c-.37-2.74-.25-4.88.04-7.74zm2.78-4.01c-1.04-1.15-1.64-1.15-2.74-1.1l-.16 1.26 2.9-.16zm7.15 1.53l-5.91-1.12h-4.11l.54 1.22 9.47-.09zm6.63 1.81c-.76-.48-2.1-1.42-2.98-1.42l-12.86-.03c.36.56.82 1.15 1.24 1.49l14.6-.04zm1.7 1.49c-.42-.58-.75-.92-1.13-1.2l-14.33.07c1.38.58 2.96 1.14 4.47 1.14h10.99zM257.36 38.58l.08 6.65h-22.08v-.53l2.12-.08c.85-.03 1.79-.77 1.79-1.74v-12.7c0-.99-.94-1.68-1.8-1.73l-2.11-.1v-.53h13.96v.52l-2.39.15c-.69.04-1.48.89-1.48 1.68V44.6c5.94.66 7.93-2.16 11.92-6.04zm-13.78-9.31l.35-.85h-4.76l.64.9 3.76-.05zm-3.68.3v1.21l3.54.03V29.6l-3.54-.03zm3.54 1.5h-3.46v1.48h3.46v-1.48zm0 1.77h-3.46v1.18h3.46v-1.18zm0 1.48h-3.46v1.18h3.46v-1.18zm0 1.48h-3.46v1.48h3.46V35.8zm0 1.77h-3.46v1.18h3.46v-1.18zm0 1.47h-3.46v1.48h3.46v-1.48zm0 1.77h-3.46v1.18h3.46v-1.18zm0 1.45l-3.53.03v1.21l3.54-.03v-1.21zm12.11 2.4c.04-.62.06-1.14-.14-1.16l-.76-.06c-1.3-.11-2.33.24-3.6 1.16l4.5.06zm-12.1-.01l-.2-.9h-3.44l-.63.89h4.28zM209.36 45.18l-14.2-.06c1.38-.91 4.04 0 4.04-2.23V30.46c.01-.96-.61-1.9-1.55-1.96l-2.36-.16v-.51h13.96v.52l-2.4.15c-.68.04-1.48.89-1.48 1.68v12.71c0 2.31 2.8 1.26 3.98 2.29zm-5.85-15.91l.35-.85h-4.76l.64.9 3.76-.05zm-3.68.3v1.21l3.54.03V29.6l-3.54-.03zm3.54 1.5h-3.46v1.48h3.46v-1.48zm0 1.77h-3.46v1.18h3.46v-1.18zm0 1.48h-3.46v1.18h3.46v-1.18zm0 1.48h-3.46v1.48h3.46V35.8zm0 1.77h-3.46v1.18h3.46v-1.18zm0 1.47h-3.46v1.48h3.46v-1.48zm0 1.77h-3.46v1.18h3.46v-1.18zm0 1.45l-3.53.03v1.21l3.54-.03v-1.21zm.54 2.38l-.58-.88h-3.58l-.64.89h4.8z" fill="#fff"/><path d="M169.88 45.18l-14.2-.06c1.38-.91 4.04 0 4.04-2.23V30.46c.01-.96-.61-1.9-1.55-1.96l-2.42-.16v-.51h14.01v.52l-2.4.15c-.68.04-1.48.89-1.48 1.68v12.71c0 2.31 2.8 1.26 3.98 2.29zm-5.84-15.91l.35-.85h-4.76l.64.9 3.76-.05zm-3.68.3v1.21l3.54.03V29.6l-3.54-.03zm3.54 1.5h-3.46v1.48h3.46v-1.48zm0 1.77h-3.46v1.18h3.46v-1.18zm0 1.48h-3.46v1.18h3.46v-1.18zm0 1.48h-3.46v1.48h3.46V35.8zm0 1.77h-3.46v1.18h3.46v-1.18zm0 1.47h-3.46v1.48h3.46v-1.48zm0 1.77h-3.46v1.18h3.46v-1.18zm0 1.45l-3.53.03v1.21l3.54-.03v-1.21zm.53 2.38l-.58-.88h-3.58l-.64.89h4.8zM16.26 44.71c-5.71 2.5-13.23.73-13.71-3.97-.09-.91.31-2.24.85-2.87.61-.71 2.04-1.14 3.03-1.04 1.89.2 2.9 1.47 3.11 3.03.23 1.69-1.27 2.75-2.83 3.74 1.21 1.72 3.65 1.95 5.59.95l.07-17.81c0-1.22-1.14-2.06-2.2-2.12l-2.58-.12v-.64l16.87-.02.25.52-3.3.39c-.66.08-1.48 1.18-1.49 1.96l-.08 12.6a5.968 5.968 0 0 1-3.58 5.4zm1.36-19.1l.43-1.04h-5.81l.79 1.1 4.59-.06zm-4.47.37v1.47l4.3.04v-1.47l-4.3-.04zm4.3 1.83h-4.22v1.8h4.22v-1.8zm0 2.16h-4.22v1.44h4.22v-1.44zm0 1.81h-4.22v1.44h4.22v-1.44zm0 1.8h-4.22v1.8h4.22v-1.8zm0 2.16h-4.22v1.44h4.22v-1.44zm0 1.8h-4.22v1.8h4.22v-1.8zm-10.64 3.2c.23-.16.23-1.39-.11-1.39H5.35l-1.69.15c-.29.03-.26.82-.27 1.27l3.41-.03zm10.62-1.04h-4.2v1.44h4.2V39.7zM6.71 41.2l-3.21-.04c.03.88.98 1.73 1.67 1.46.48-.19.98-.76 1.53-1.42zm10.54.31l-3.84.04c-.22.21-.22 1.44.12 1.43l1.36-.03 1.78-.07c.37-.01.49-.86.59-1.37zm-.92 1.99l-3.01-.3-.58 1.82c1.35-.32 2.41-.73 3.59-1.52zM105.71 45.03c-5.91.11-11.54.14-17.33-.07 1.68-1.11 4.93 0 4.94-2.72V27.07c.02-1.17-.74-2.32-1.89-2.39l-2.89-.19v-.63h17.04v.63l-2.93.19c-.83.05-1.81 1.09-1.81 2.05v15.52c0 2.82 3.42 1.54 4.86 2.8zm-7.14-19.42l.43-1.04h-5.81l.78 1.1 4.59-.07zm-4.49.37v1.47l4.32.04v-1.47l-4.32-.04zm4.33 1.83h-4.22v1.8h4.22v-1.8zm0 2.16h-4.22v1.44h4.22v-1.44zm0 1.81h-4.22v1.44h4.22v-1.44zm0 1.8h-4.22v1.8h4.22v-1.8zm0 2.16h-4.22v1.44h4.22v-1.44zm0 1.8h-4.22v1.8h4.22v-1.8zm0 2.16h-4.22v1.44h4.22V39.7zm-.01 1.77l-4.31.04v1.47l4.32-.04v-1.47zm.66 2.91l-.71-1.08h-4.37l-.79 1.08h5.86zM214.42 70.39c0 1.48.77 2.18 2.12 2.21l1.77.04v.54l-26.85-.05c.97-1.05 2.49-.16 3-1.3.17-1.04-.77-2.39-1.43-3.37h-7.28c-.13 1.2.03 2.27.77 3.13.66.77 1.88.69 3.23 1.49l-10.02.02c2.09-1.15 3.62-2.08 4.75-4.06l8.08-14.18 8.98 15.81c1.35 2.38 4.72 2.34 6.08 1.51.36-.22.66-1.13.66-1.61V58.14c-.01-.98-.94-1.68-1.81-1.72l-2.11-.1v-.52l13.82-.02.2.43-2.71.32c-.51.06-1.23.97-1.23 1.61V70.4zm-1.85-13.17l.35-.85h-4.76l.64.9 3.76-.05zm-3.68.3v1.21l3.54.03v-1.21l-3.54-.03zm-15.75 3c-.09-1.47-.73-1.61-1.76-1.56-.5.03-.91.54-1.27 1.48l3.02.08zm19.29-1.5h-3.46v1.48h3.46v-1.48zm-18.34 2.94l-.67-1.2-3.69.07c-.04.26.39 1.14.71 1.14h3.64zm18.34-1.16h-3.46v1.18h3.46V60.8zm-19.76 7.05l-3.32-6.08-3.31 6.11 6.63-.03zm2.35-4.41l-.73-1.19-3.87.04.62 1.17 3.98-.02zm17.41-1.17h-3.46v1.18h3.46v-1.18zm-16.51 2.9l-.77-1.44-3.82.03.58 1.49 4.01-.08zm16.51-1.42h-3.46v1.48h3.46v-1.48zm-15.64 2.93l-.73-1.18-3.88.04.62 1.17 3.99-.03zm15.64-1.16h-3.46v1.18h3.46v-1.18zm-14.83 2.96l-.49-1.47-3.96-.03c-.12.24.34 1.46.8 1.46l3.64.04zm14.83-1.49h-3.46v1.48h3.46v-1.48zm-13.88 2.94l-.71-1.18-3.9.04.64 1.17 3.97-.02zm13.88-1.16h-3.46v1.18h3.46v-1.18zm-13.01 2.62l-.68-1.16h-3.93l.58 1.22 4.03-.06zm13.01-1.18l-3.53.03v1.21l3.54-.03v-1.21zm-12.27 2.36c-.32-.47-.69-.87-.88-.87l-3.77.02c-.22 0-.69.67-.72.88l5.37-.04zm12.8.02l-.58-.88h-3.58l-.64.89h4.8zM229.53 64.91l.1 6.19c.03 1.58 1.78 1.17 3.05 1.96l-13.19.12v-.52l2.11-.08c.85-.03 1.79-.77 1.79-1.74V58.13c0-.79-.83-1.63-1.52-1.68l-2.4-.15v-.51l18.01.07c1.74 0 3.41 1.22 4.01 2.4.83 1.63.69 3.64-.61 4.96-.9.91-2.31 1.34-3.59 1.71l3.31 6.14c.69 1.28 2.02 1.13 3.46 2.04l-8.58.12-4.41-8.1-1.56-.21zm-1.96-7.67l-.2-.89-4.08.04.65.88 3.63-.02zm6.59 6.17c1.67-1.62 1.54-4.72-.09-6.16-1.2-1.06-2.94-.94-4.51-.85v7.89c1.53.04 3.39.28 4.6-.89zm3.77-6.25c-1.29-.74-2.5-.84-3.92-.72.16.23.9.85 1.22.84l2.7-.12zm-13.9.36v1.21l3.54.03v-1.21l-3.54-.03zm15.34 1.15c-.38-.63-.84-1.15-1.14-1.15l-2.98.05.59 1.19 3.53-.09zm-11.8.35h-3.46v1.48h3.46v-1.48zm8.37-.02v1.5l3.79.03v-1.5l-3.79-.03zm-8.37 1.8h-3.46v1.18h3.46V60.8zm12.13-.05l-3.8.05v1.22l3.82-.05v-1.22zm-12.13 1.52h-3.46v1.18h3.46v-1.18zm9.84 1.22c.66.02 1.37-.48 1.76-1.19l-3.48-.03-.5 1.16 2.22.06zm-9.84.26h-3.46v1.48h3.46v-1.48zm9.76.08c-.76-.08-2.02-.17-2.58.05l-3.11 1.26c2.54.28 3.83.22 5.69-1.32zm-9.76 1.69h-3.46v1.18h3.46v-1.18zm8.37 1.16l-.71-1.18-3.24.04.61 1.17 3.34-.03zm-8.37.31h-3.46v1.48h3.46v-1.48zm9.22 1.47l-.69-1.47-3.24.02.63 1.47h3.29zm-9.22.31h-3.46v1.18h3.46v-1.18zm10 1.16l-.59-1.2-3.22.09c.21.43.64 1.12.91 1.12h2.9zm-10.01.28l-3.53.03v1.21l3.54-.03v-1.21zm10.87 1.19l-.58-1.19-3.21.09c.21.45.64 1.13.91 1.13l2.88-.02zm-10.33 1.19l-.58-.88h-3.58l-.64.89h4.8zm10.96-.05c-.3-.56-.72-.87-1.03-.87l-2.43.03c0-.07.04.41.06.58s.55.35.73.34l2.67-.09zM147.48 73.33c-6.09 1.32-13.37.11-15.82-5.75-1.8-4.31.26-9.1 4.59-11.11 4.07-1.89 9.1-1.7 13.15.17 3.68 1.7 5.59 5.31 5.19 9.04s-3.17 6.8-7.11 7.65zm-1.15-15.25c-.65-1.45-1.99-2.28-3.26-2.32-4.63-.16-6.22 8.9-3.52 15.14.7 1.61 2.17 2.41 3.8 2.28 4.62-.36 5.41-9.7 2.99-15.1zm-9.52.68c.44.01 1.18-.87.96-1.13-1.58-.31-2.85-.17-3.53 1.05l2.57.07zm13.24-.05c-.57-1.2-1.65-1.43-3.16-1.05-.02.13.44.97.78 1.03.57.1 1.7.03 2.38.02zm-13.42 1.79l.39-1.48h-3.29l-.87 1.45 3.76.02zm14.55 0l-.62-1.46-3.03-.02.26 1.47h3.38zm-15.07 1.48l.25-1.19h-3.57l-.65 1.17 3.97.02zm15.81-.03l-.65-1.18-3.3.03.15 1.19 3.8-.04zm-16.06 1.5l.11-1.2-3.98.04-.14 1.17h4.01zm12.33-1.18v1.18h4.03v-1.18h-4.03zm-16.44 1.48v1.48h4.09v-1.48h-4.09zm16.54-.01v1.48h4.05v-1.48h-4.05zm-16.43 1.78v1.18H136v-1.18h-4.14zm20.26 1.18l.1-1.18h-3.93l-.03 1.18h3.86zm-15.72 1.76l-.32-1.46-3.83-.02.5 1.5 3.65-.02zm15.19 0l.34-1.47h-3.71l-.21 1.49 3.58-.02zm-14.55 1.48l-.59-1.22-3.41.09c.11.29.71 1.1 1.02 1.11l2.98.02zm14.19-1.18l-3.13.04c-.24 0-.67 1.01-.44 1.04l1.19.12c1.15.12 2.21.1 2.38-1.19zm-14.31 1.47l-2.59.05c.73 1.11 1.92 1.34 3.43 1.09.24-.13-.41-1.15-.84-1.14zm13.24.03l-2.63.03c-.22 0-.61.98-.4 1.02l.87.13c.94.14 1.79-.25 2.16-1.18zM255.1 64.14v8.44c5.84.61 7.87-1.99 11.86-6.02l.13 6.63H245l.01-.53 2.12-.08c.85-.03 1.79-.77 1.79-1.74V58.13c0-.79-.83-1.63-1.52-1.68l-2.4-.15v-.51l21.84-.01-.05 6.58c-2.37-2.11-3.82-4.35-6.48-5.56-1.5-.68-3.5-.38-5.23-.4v7.25c2.08.4 4.09-.97 5.09-2.42.13-.19.63-.4 1.04-.52l-.08 7.13c-1.89-2.11-3.04-3.74-6.04-3.7zm-2-6.9l-.2-.9-4.08.04.65.88 3.63-.02zm11.58-.87l-3.56.04c.6.88 1.71 1.3 2.87 1.14l.97-.13c.2-.03-.08-1.05-.28-1.05zm-15.13 1.15v1.21l3.54.03v-1.21l-3.54-.03zm3.54 1.5h-3.46v1.48h3.46v-1.48zm0 1.78h-3.46v1.18h3.46V60.8zm0 1.47h-3.46v1.18h3.46v-1.18zm0 1.48h-3.46v1.48h3.46v-1.48zm0 1.77h-3.46v1.18h3.46v-1.18zm0 1.47h-3.46v1.48h3.46v-1.48zm0 1.78h-3.46v1.18h3.46v-1.18zm12.21 2.68l-.12-2.12-2.12 2.04 2.24.08zm-12.21-1.24l-3.53.03v1.21l3.54-.03v-1.21zm.01 2.39l-.2-.9h-3.44l-.63.89h4.28zm11.96-.01c.19-.01.21-.88.01-.89l-.77-.03c-1.36-.04-2.56.14-3.6.88l4.35.04zM176.49 68.44l-1.06-1.43-4.86-.02.52 1.36-9.99-9.36.07 10.22c.02 2.36 1.8 2.95 4.09 3.86l-9.09.14c-.1.04.06-.63.3-.63 1.41 0 3.79-1.43 3.8-3.49l.06-10.53c-1.23-1.29-2.43-1.8-4.32-2.71l10.26-.07 10.15 9.48c.19-1.79.21-3.75.02-5.59-.23-2.26-1.87-2.89-4.07-3.73 3.33-.25 6.15-.28 9.52.03-2.97.7-4.51 2.03-4.52 4.84l-.08 13.26-5.96-5.56 5.18-.07zm-11.87-11.23c-.42-.61-.97-.9-1.42-.89l-4.64.09 1.25.86 4.81-.06zm1.7 1.5l-1.09-1.21-4.83.09c.18.26.94 1.1 1.32 1.11h4.61zm1.84 1.77l-1.23-1.47-4.88.03 1.13 1.46 4.98-.02zm1.48 1.48l-1.12-1.22-4.87.11c.26.29 1.16 1.09 1.63 1.09l4.36.02zm1.73 1.47l-1.09-1.21-4.82.09c.18.26.93 1.09 1.33 1.12h4.59zm1.84 1.78l-1.24-1.47-4.87.03 1.11 1.46 5-.02zm1.52 1.46l-1.18-1.2-4.82.09 1.22 1.15 4.78-.04zm1.94 3.3l.05-1.22-4.46.05c.21.31.9 1.1 1.27 1.11l3.13.06zm.04.25l-2.85.08c.55.84 1.45 1.24 2.74 1.18l.11-1.26zM92.49 66.53l.08 6.65H70.49v-.53l2.12-.08c.85-.03 1.79-.77 1.79-1.74v-12.7c0-.99-.94-1.68-1.8-1.73l-2.11-.1v-.53h13.96v.52l-2.39.15c-.69.04-1.48.89-1.48 1.68v14.43c5.94.66 7.93-2.16 11.92-6.04zm-13.78-9.31l.35-.85H74.3l.64.9 3.76-.05zm-3.68.3v1.21l3.54.03v-1.21l-3.54-.03zm3.54 1.5h-3.46v1.48h3.46v-1.48zm0 1.78h-3.46v1.18h3.46V60.8zm0 1.47h-3.46v1.18h3.46v-1.18zm0 1.48h-3.46v1.48h3.46v-1.48zm0 1.77h-3.46v1.18h3.46v-1.18zm0 1.47h-3.46v1.48h3.46v-1.48zm0 1.78h-3.46v1.18h3.46v-1.18zm0 1.44l-3.53.03v1.21l3.54-.03v-1.21zm12.11 2.41c.04-.62.06-1.14-.14-1.16l-.76-.06c-1.31-.11-2.33.24-3.6 1.16l4.5.06zm-12.1-.02l-.2-.9h-3.44l-.63.89h4.28zM115.05 66.53l.08 6.65H93.05v-.53l2.12-.08c.85-.03 1.79-.77 1.79-1.74v-12.7c0-.99-.94-1.68-1.8-1.73l-2.11-.1v-.53h13.96v.52l-2.39.15c-.69.04-1.48.89-1.48 1.68v14.43c5.94.66 7.93-2.16 11.92-6.04zm-13.78-9.31l.35-.85h-4.76l.64.9 3.76-.05zm-3.68.3v1.21l3.54.03v-1.21l-3.54-.03zm3.54 1.5h-3.46v1.48h3.46v-1.48zm0 1.78h-3.46v1.18h3.46V60.8zm0 1.47h-3.46v1.18h3.46v-1.18zm0 1.48h-3.46v1.48h3.46v-1.48zm0 1.77h-3.46v1.18h3.46v-1.18zm0 1.47h-3.46v1.48h3.46v-1.48zm0 1.78h-3.46v1.18h3.46v-1.18zm0 1.44l-3.53.03v1.21l3.54-.03v-1.21zm12.1 2.41c.04-.62.06-1.14-.14-1.16l-.76-.06c-1.3-.11-2.33.24-3.6 1.16l4.5.06zm-12.09-.02l-.2-.9H97.5l-.63.89h4.28zM69.42 73.13l-14.2-.06c1.38-.91 4.04 0 4.04-2.23V58.41c.01-.96-.61-1.9-1.55-1.96l-2.36-.16v-.51h13.96v.52l-2.4.15c-.68.04-1.49.89-1.48 1.68v12.71c0 2.31 2.8 1.26 3.98 2.29zm-5.85-15.91l.35-.85h-4.76l.64.9 3.76-.05zm-3.68.3v1.21l3.54.03v-1.21l-3.54-.03zm3.54 1.5h-3.46v1.48h3.46v-1.48zm0 1.78h-3.46v1.18h3.46V60.8zm0 1.47h-3.46v1.18h3.46v-1.18zm0 1.48h-3.46v1.48h3.46v-1.48zm0 1.77h-3.46v1.18h3.46v-1.18zm0 1.47h-3.46v1.48h3.46v-1.48zm0 1.78h-3.46v1.18h3.46v-1.18zm0 1.44l-3.53.03v1.21l3.54-.03v-1.21zm.54 2.38l-.58-.88h-3.58l-.64.89h4.8zM129.67 73.13l-14.2-.06c1.38-.91 4.04 0 4.04-2.23V58.41c.01-.96-.61-1.9-1.55-1.96l-2.36-.16v-.51h13.96v.52l-2.4.15c-.68.04-1.49.89-1.48 1.68v12.71c0 2.31 2.8 1.26 3.98 2.29zm-5.85-15.91l.35-.85h-4.76l.64.9 3.76-.05zm-3.68.3v1.21l3.54.03v-1.21l-3.54-.03zm3.55 1.5h-3.46v1.48h3.46v-1.48zm0 1.78h-3.46v1.18h3.46V60.8zm0 1.47h-3.46v1.18h3.46v-1.18zm0 1.48h-3.46v1.48h3.46v-1.48zm0 1.77h-3.46v1.18h3.46v-1.18zm0 1.47h-3.46v1.48h3.46v-1.48zm0 1.78h-3.46v1.18h3.46v-1.18zm-.01 1.44l-3.53.03v1.21l3.54-.03v-1.21zm.54 2.38l-.58-.88h-3.58l-.64.89h4.8zM41.09 72.25c.89-.06 1.96-1.02 1.96-2.02l-.1-16.12-10.22 19.42-10.66-17.55-.08 11.93c.25 2.95 2.03 3.97 5.07 4.95H15.44c2.8-1.03 5.34-1.63 5.4-4.52l.22-10.41-.14-3.65c-1.17-1.97-3.18-1.17-5.16-2.35l12.52-.13 8.05 13.33 6.78-13.31 12.09-.02v.62l-2.85.22c-.9.07-1.81 1.05-1.81 2.04v15.14c0 1.4.75 2.36 2.19 2.45l2.47.15v.63H38.52v-.63l2.55-.18zM26.17 53.53c-.08-.2-.82-1.03-1.13-1.03l-4.71.1c.57.59 1.36 1.08 1.81 1.07l4.02-.14zm22.07.05l.42-1.05h-4.71v1.08l4.28-.03zm-20.98 1.81l-.74-1.45-4.64.09c.27.54.82 1.38 1.15 1.38l4.23-.02zm16.65-1.43v1.44h4.21v-1.44h-4.21zm-15.6 3.62c.13-.26-.45-1.77-1.02-1.78l-4.27-.04.77 1.8 4.52.03zm19.8-1.82h-4.2v1.8h4.2v-1.8zm-18.56 3.55c-.25-.62-.84-1.41-1.17-1.4l-4.28.05.99 1.45 4.46-.09zm18.56-1.38h-4.2v1.44h4.2v-1.44zm-17.36 3.21l-.89-1.44-4.54.05.89 1.44 4.53-.05zm17.36-1.41h-4.2v1.44h4.2v-1.44zM32 63.31l-.96-1.81-4.6.06.9 1.78 4.66-.03zm16.11-1.78h-4.2v1.8h4.2v-1.8zM33.1 65.12l-.8-1.43h-4.65l.8 1.45 4.65-.02zm15.01-1.43h-4.2v1.44h4.2v-1.44zm-13.86 3.6c-.18-.58-.7-1.62-1.13-1.81l-4.33.03.92 1.81 4.55-.04zm13.86-1.8h-4.2v1.8h4.2v-1.8zm-13.55 2.17H30c.38 1.29 1.34 1.62 2.77 1.44l1.65-.2c.34-.04.36-.99.14-1.24zm13.55 0h-4.2v1.44h4.2v-1.44zm-4.31 1.8v1.44h4.32v-1.44H43.8zm4.93 2.88l-.72-1.1h-3.64c-.49 0-1.2.62-1.49 1.06l5.85.04zM61.36 8.41C55.19 7.79 46.54-.07 42.52-.07S36.8 2.07 36.8 2.07 35.1-.07 31.08-.07 18.41 7.79 12.24 8.42C6.08 9.04 0 4.17 0 4.17s0 11.84 17.16 11.84c14.72 0 19.64-5.63 19.64-5.63s4.91 5.63 19.64 5.63C73.6 16.01 73.6 4.17 73.6 4.17s-6.08 4.87-12.25 4.24z" fill="#fff"/></svg>