<svg xmlns="http://www.w3.org/2000/svg" viewBox="0 0 242 142"><path d="M41.31 31.73c-.01-.26 7.7-1.12 10.87-1.54 2.89-.39 5.62-.61 8.54-.85 2.99-.23 5.66-.63 8.61.38 9.33 2.57 12.67 16.59 5.89 23.13-.35.45-.65 1.03-.57 1.53 3.13 1.45 5.93 3.44 7.97 6.14 3.46 5.08 3.98 12.56.73 17.85-3.48 5.06-11.37 6.54-17.3 7.63-4.65.93-11.65 2.36-16.28 3.27 0 0-7.94-52.26-8.45-57.52zM65.75 53.8s8.07-8.51-1.97-11.95c-2.78-.95-8.96.13-8.96.13s1.04 8.97 2.05 12.99l8.88-1.16zm2.54 20.72c5.76-.75 5.24-9.87.19-10.69-3.15-.45-7.14.27-10.26.74.58 3.24 1.14 8.15 1.92 11.36l8.15-1.41zM125.62 71.26c-3.28-3.8-4.32-12.43 1.04-15.13 4.86-2.73 11.88-1.83 17.19-1.03 0 0 3.4-9.35-15.21-5.31l-3.42-5.2s18.19-8.57 27.45-.68c5.37 4.58 2.68 32.09 2.68 32.09l-10.67-.69-.05-2c-.1-.84.05-1.53-1.12-.81-5.34 3.3-13.31 3.29-17.89-1.25zm14.57-4.09c1.47-.13 4.04-.67 4.04-.67l-.06-6.09s-4.41-.27-8.02.41-4.81 7.16 4.03 6.35zM93.04 47.43c2.36-1.36 12.05-3.36 12.05-3.36l-.19 2.74s8.97-4.84 14.52-2.77l-3.53 9.3c-3.24-.24-4.68-.68-9.85 1.42 0 0 2.03 14.64 2.47 20.15-1.38.17-11.07 1.01-11.07 1.01s-3.35-21.21-4.41-28.49zM170.11 6.23c.21-1.05 1.01-.8 1.78-.99 2.25-.74 2.52.69 5.15-.09.89 1.33 2.49 1.8 4.02.87l2.9 3.63c.86 1.08 2.3 1.95 2.2 3.6-.05.84 1.05 2.6.5 7.67-.17 1.56-1.73 3.42-3.3 3.61-1.79.32-3.96-.34-5.6-.85-2.29-.66-5.06-4.38-4.74-6.75.03-.46-.16-1.41.04-1.79.3-.57.38-1.16-.03-1.51-.86-.73-2.07.44-2.77 2.02.92.13 1.19-.43 1.53-1.01.62.04.18 2.39.24 2.78-.68-.28-3.07-.42-3.15-1.45.12-2.65 3.78-3.39 3.65-5.48l-2.11 1.73-.69-1.41c-1.05 3.32-1.16 6.81-3.21 1.11-.84 1.41-3.09.3-2.24-1.04.89-1.01.59-1.98-.66-1.87-.51 2.25-.68 4.69 2.29 4.16.36.31.62 1.27.97 1.72l2.27 2.89-.61 2.33-.92-1.16c-.75 1.17.63 2.66-.46 2.9-.87-.19-3.53-1.95-3.72-.23.76 1.16 2.91-.01 2.79 1.43-1.93 1.09-2.71-.47-3.83-1.22-.14-.09-.38.59-.23.66 1.77.87 1.46 2.15 2.22 2.97 1.48-1.34 2.67.43 3.44 1.67.7.06 2.24 0 2.83.44.25.16.23 1.1-.06 1.08l-1.08-.07c-.36-.02-.94 1.73-3.27 2.38 3.04-5.42.04-1.33-1.66-4.51-3.1-.03-5.06-2.24-4.47-5.26 1.14.14 1.99.14 2.63-.36-1.44-.19-2.04-.22-3.16-.93l.13 1.35c-1.07-.32-1.81-.86-.54-1.62l-.6-2c-.45-.75-.98-1.15.04-1.74l.53 1.37 1.34-1.18-1.67-.31c.15-1.62-.04-4 1.66-4.86 1.04 1.03.18 1.89-.65 2.69l1.29.44c-.08.17-.31.38-.78.68-.22-.1-.18.47-.02.43.25.04 1.13-.14.96.38-.8.54-.93.91-.1 1.72.67.55 1.08 1.05 1.87.33-.72-.42-1.07-.36-.96-1.37l-.2-3.37c-.56-3.58 2.68-7.7 6.12-4.94l-.99-1.84c1.06-.43 1.95-.06 2.9.39l.2-.25zm.2.13l-.26.19.42 1.15c.12.34 1.19.24 1.4-.13-.37-.51-1.03-.98-1.55-1.21zm11.54 10.21c.27-.11-.11-.95-.4-1.02-.25-.06-.87-.05-1.01 0 .29.93.13 1.42 1.41 1.01zm-17.36 2.61l.5 1.08c.85-1.96 1-2.29 3.2-2.77l-2.49-.42-2.07-1.36c-.15-.1-.75.52-.59.62.9.56 1.9 1.19 1.52 2.43l-1.46-.26c-.17-.03-.64.46-.47.51 1 .34 1.7-.2 1.87.17z" fill="#fff"/><path d="M167.7 23.27c-.15.36-.21 1.06-.21 1.89-.25.32-1.49-.51-1.37-1.01.24-1.06.95-1.39 1.78-1.67.8-.59 1.05-.63 1.93-.03.16-.02.46-.94.21-1l-1.15-.26c1.08-3.01 1.51-5.22 4.17-.9.57 1.1 1.18 1.93 2.02 2.81 1.05 1.1.54 3.47-.35 3.99-.74.43-1.59-1.29-1.9-1.03-1.52 1.91-3.85.91-4.63-1.31.14-.11.61-.55.5-.65l-1-.84zM187.21 24.03c-.18-.13-.52-.36-.52-.36.5-1.05 1.37-3.22 1.69-4.32.65.02 1.17.19 1.33-.6-.51-.27-1.06-.36-1.26-1.04-.71-1.87-1.2-3.34-.81-5.53l1.45.66c.65.58.32 3.18.49 4.07 1.4 1.23 1.69 4.3.78 5.49-.26-.41-.71-1.15-1.29-.78l-1.87 2.42zM185.29 25.99c-1.02 1.54-1.92 2.03-3.45 1.31-.45-.14-.89 1.02-1.73 1.02-.97-.04-1.37-2.31-1.7-2.94 1.05-.63 1.57 0 1.83 1.19 1.48-1.05 3.41-.81 5.06-.58zM164.74 30.55c-.73-2.09-3.22-1.56-4.32-3.27 1.42.67 5 .86 4.32 3.27zM186.5 11.05l-1.66-1.94c-.1-.12.14-.65.26-.56.72.63 2.16 1.25 1.4 2.5zM165.24 40.58l12.79-.93-3.71 39.41-11.1-1.68 2.02-36.8zM188.32 42.1l-4.15 38.44 10.71 2.25 4.18-27.56s1.15-.05 3.02 0 6.39.1 5.67 5.43-4.13 24.53-4.13 24.53l11.28 2.93s4.46-21.56 5.71-27.89c1.25-6.34 1.49-15.56-7.39-15.99s-12.87 1.92-12.87 1.92l.53-4.61-12.57.56zM32.42 84.53l-1.85 11.39s-15.3-1.44-15.57 5.01c-.27 6.45 10.22 4.32 16.05 4.8s10.77 5.76 10.77 14.68-1.78 10.77-5.69 13.65-15.85 5.08-21.96 1.72v-10.09s7.89.34 12.14-.27 4.94-3.77 4.87-5.56-2.2-4.32-7.2-4.19-12.21 1.1-17.15-7.62c-4.94-8.71-1.23-17.22 4.53-20.58s14.89-5.35 21.06-2.95zM67 98.66l-7.34 2.4v2.33s-3.02-3.09-8.37-.41-7.14 16.47-.96 21.47c6.17 5.01 11.25-.82 11.25-.82l1.51 13.17 6.66-.96-2.74-37.19zm-11.53 19.83c-2.33-1.3-2.4-7.75-.62-9.06s5.28-.41 5.28-.41l1.1 9.06s-3.43 1.72-5.76.41zM72.35 97.91l7.96-1.51s.27 7.68.48 12.01c.21 4.32 1.1 7.48 6.72 4.8l-.48-17.63 7.41-1.23.82 27.38-6.59.62-.48-2.68s-3.16 3.5-7.48 3.36-6.75-3.49-7.29-11.14c-.47-6.77-1.08-13.97-1.08-13.97zM117.44 112.81s-5.96 2.98-8.94.79c-2.3-1.69-2.18-3.63-2.18-3.63s7.61-.3 9.85-.48c2.24-.18 3.08-1.09 3.02-4.65-.06-3.56-1.21-11.96-8.34-12.14-7.13-.18-11.66 7.07-11.18 14.2.48 7.13 2.66 13.29 8.34 14.2 5.68.91 11.18-3.2 11.18-3.2l-1.76-5.08zm-7.49-12.69c3.63 0 3.56 5.2 3.56 5.2l-7.31.36s.12-5.56 3.75-5.56zM141.56 112.44s-6.01 2.88-8.95.63c-2.27-1.73-2.11-3.66-2.11-3.66s7.62-.17 9.86-.31c2.24-.14 3.1-1.03 3.1-4.6 0-3.57-1-11.98-8.12-12.29-7.13-.31-11.78 6.86-11.42 14 .36 7.14 2.43 13.34 8.09 14.34 5.66 1.01 11.23-3.01 11.23-3.01l-1.67-5.11zm-7.27-12.82c3.62.06 3.47 5.26 3.47 5.26l-7.32.23s.22-5.56 3.84-5.49zM149.59 91.18l.24 8.44 10.33.26-12.08 12.57.3 9.66 19.33 1.45.43-8.82-11.36-1.02 12.32-12.75v-9.12l-19.51-.67zM185.72 93.42c-7.98-.06-12.26 6.1-12.57 17.1-.3 11 5.48 14.62 9.93 15.17s8.44-2.11 8.44-2.11l-1.03-5.92s-5.88 1.92-9.12-1.03c-1.99-1.81-1.69-4.77-1.69-4.77s8.16 1.03 9.97 1.33 2.66 0 3.14-3.44.91-16.25-7.07-16.31zm1.33 14.44l-7.01-.48s.91-6.16 4.41-5.68c3.5.48 2.6 6.16 2.6 6.16zM207.1 98.91V95.1l-7.19.36-3.5 32.81 7.37 1.39 2.11-22.17s3.44-1.39 6.04.66l4.35-9.18s-4.17-4.71-9.18-.06zM233.27 112.39l3.5-8.52s-5.44-4.71-9.73-4.23-8.94 3.99-8.34 11 2.72 9.12 6.4 10.21 3.5 3.02 2.96 4.05-7.24.97-9.42-2.48l-3.15 7.25s5.44 5.98 12.26 5.62 7.31-10.39 6.83-13.59-2.6-5.5-6.04-7.19-5.62-3.13-3.32-4.92 8.04 2.8 8.04 2.8z" fill="#fff"/><path d="M37.78 31.9c-.07-1.42.77-3.1 2.78-3.65.22-.06.49-.12.83-.18.48-.09 1.13-.19 2-.31 1.53-.21 3.51-.46 5.25-.67 1.18-.14 2.29-.28 3.07-.39 2.92-.39 5.64-.62 8.53-.86l.19-.02 1.05-.09c1.16-.1 2.35-.2 3.58-.2 1.95 0 3.64.26 5.28.81 2.83.8 5.39 2.47 7.41 4.81 1.84 2.13 3.19 4.79 3.93 7.67 1.31 5.15.5 10.36-2.11 14.24 2.34 1.5 4.29 3.28 5.83 5.31l.05.07.05.07c2.06 3.02 3.3 6.81 3.49 10.66.2 4.05-.72 7.86-2.67 11.02l-.05.08-.05.07c-4.32 6.28-13.11 7.91-19.54 9.1-1.77.36-3.89.78-6.09 1.23-3.6.73-7.32 1.48-10.18 2.04l-3.62.71-.55-3.64c-.32-2.14-7.96-52.41-8.48-57.71v-.09l-.01-.09zm56.18 44.56l.51 3.25 3.28-.28c1-.09 9.79-.85 11.2-1.02l3.35-.42-.27-3.37c-.33-4.1-1.49-12.95-2.11-17.51 1.21-.36 2.02-.45 2.76-.45.56 0 1.17.05 1.87.11.34.03.7.06 1.08.09l2.62.19.93-2.46 3.06-8.08.02.03 3.42 5.2.46.7c-.4.18-.79.37-1.16.58-2.79 1.43-4.69 4.07-5.36 7.44-.88 4.44.48 9.83 3.31 13.1l.09.1.1.1c3 2.97 7.23 4.6 11.93 4.6 2.09 0 4.17-.33 6.14-.96l.03 1.22 3.22.21 10.67.69 3.41.22.33-3.4c.03-.29.69-7.13.69-14.67 0-11.43-1.41-17.74-4.59-20.45-3.25-2.78-7.58-4.18-12.85-4.18-9.04 0-18.01 4.18-18.39 4.36l-.55.26-2.51-.94c-1.31-.49-2.79-.74-4.41-.74-2.56 0-5.2.61-7.42 1.35l.12-1.67-4.56.94c-2.4.5-10.45 2.24-13.1 3.76l-2.08 1.2.35 2.37c1.05 7.21 4.38 28.31 4.41 28.53zm63.49-47.29c1.11 1.74 2.76 2.4 3.75 2.79.11.04.24.09.35.14l.02.05-2.53 4.51 3.75-1.04.54 1.55-1.44.1-.17 3.1-2.02 36.8-.18 3.2 3.17.48 11.1 1.68 3.69.56.35-3.72 3.7-39.41.39-4.15-4.16.3-11.18.81.74-2.58a8.585 8.585 0 0 0 3.67-2.16c1.08-.11 2.04-.69 2.65-1.58.26.05.53.08.83.08.71 0 1.41-.19 2.03-.55l.15-.09c1.12 1.48 2.51 1.77 3.31 1.81h.14c1.01 0 1.83-.34 2.44-.72.18.02.35.03.53.03 2.35 0 3.84-1.46 4.63-2.48l1.51-1.48s.53.45 1.49.23 2.45-2.89 2.45-2.89c1.76-2.28 1.59-6.3-.1-8.94v-.02c0-1.75 0-3.93-1.6-5.37l-.4-.36-.49-.22-.41-.19c-.11-.53-.32-1.05-.63-1.53-.58-.9-1.34-1.46-1.85-1.83-.09-.06-.2-.15-.24-.18l-.09-.08-.09-.06c-.62-.47-1.39-.73-2.17-.73-.1 0-.2 0-.3.01l-.96-1.2s-1.25-2.28-1.93-2.42-2.21 1.34-2.21 1.34-.24-1.45-1.14-1.71-2.49.74-2.49.74c-.29.09-.43.09-.48.09-.07 0-.21-.03-.44-.09-.45-.11-1.14-.28-2-.28-.69 0-1.38.11-2.1.32h-.09c-.47.05-1.26.14-2.1.61h-.02a6.1 6.1 0 0 0-3.12.38l-3.53 1.73c-.61.39-1.18.89-1.69 1.48-.38.45-.72.94-1.01 1.46l-.57.29c-2.89 1.45-3.35 4.37-3.49 6.31-.38.48-.64 1.02-.78 1.62-.28 1.21.05 2.2.4 2.88v.09l.05.01c.06.12.13.23.19.32-.28.73-.28 1.39-.24 1.8l2.44 8.36zm27.69 9.54l-.32 3.01-4.15 38.44-.34 3.18 3.13.66 10.71 2.25 3.65.77.56-3.69 3.72-24.56c1.16.03 1.88.14 2.15.32.03.09.1.41.01 1.1-.7 5.2-4.07 24.2-4.11 24.39l-.57 3.21 3.16.82 11.28 2.93 3.59.93.75-3.63c.04-.22 4.48-21.65 5.72-27.93 1.4-7.13.72-12.53-2.05-16.06-1.38-1.76-3.99-3.91-8.64-4.13a45.4 45.4 0 0 0-2.31-.06c-2.63 0-4.83.23-6.61.55l.39-3.37-4.14.18-12.57.56-3.03.14zm51.39 75.02l-.8 1.94a11.57 11.57 0 0 1 2.36 5.49c.36 2.39.49 9.58-3.19 14.1-1.77 2.17-4.17 3.39-6.93 3.54-.26.01-.52.02-.79.02-8.01 0-14.03-6.51-14.28-6.79l-1.53-1.69.91-2.09 3.15-7.25 1.33-3.05c-.81-1.88-1.31-4.19-1.55-7.02-.04-.44-.05-.86-.06-1.27s-1.9 4.01-1.9 4.01l-3.48-2.75c-.08-.06-.26-.2-.61-.29L207.31 130l-.37 3.85-3.8-.72-7.37-1.39-3.2-.6.35-3.24.12-1.12c-1.23.73-4.63 2.5-8.72 2.5a13.931 13.931 0 0 1-10.68-5c-.9-1.07-1.64-2.28-2.24-3.61l-.15 3.06-.17 3.62-3.62-.27-19.33-1.45-3.16-.24-.1-3.17-.05-1.49c-1.47.96-5.84 3.51-10.94 3.51-.85 0-1.69-.07-2.5-.22-3.75-.67-6.72-3.01-8.58-6.78-.11-.21-.21-.44-.31-.66l.05.15.84 2.44-2.07 1.54c-.55.41-5.58 4.03-11.61 4.03-.76 0-1.51-.06-2.24-.17-3.76-.6-6.77-2.89-8.7-6.63l-.09-.18.12 3.85.1 3.31-3.3.31-6.59.62-3.23.3-.1-.57c-1.36.57-2.95.97-4.71.97h-.36c-3.34-.11-6.06-1.6-7.88-4.32-.18-.27-.35-.55-.51-.84l1.05 14.2.24 3.28-3.26.47-6.66.96-3.6.52-.41-3.61-.88-7.69c-.97.3-2.04.5-3.21.5-2.59 0-5.08-.95-7.38-2.82-1.12-.91-2.08-2.04-2.86-3.36-.2 3.07-.72 5.32-1.63 7.19-1.31 2.71-3.3 4.32-5.4 5.87-3.28 2.41-9.8 4.1-15.86 4.1-3.99 0-7.32-.72-9.89-2.13l-1.83-1.01V122l3.68.16c.02 0 2.15.09 4.72.09 2.92 0 5.26-.12 6.76-.33 1.13-.16 1.84-.52 1.85-1.75-.22-.28-1.13-.98-3.29-.98h-.29c-.35 0-.7.02-1.07.04-.77.03-1.65.06-2.55.06-4.85 0-11.87-.99-16.7-9.5-5.86-10.34-1.64-21.02 5.82-25.37 4.75-2.77 11.08-4.49 16.54-4.49 2.82 0 5.37.44 7.58 1.3l2.66 1.04-.46 2.82-1.85 11.39-.53 3.25-3.28-.3s-1.34-.12-3.16-.12c-6.31 0-8.39 1.38-8.56 1.72v.05c0 .18 0 .28.02.32.09.07.45.31 1.46.5 1.29.24 2.95.27 4.09.27.75 0 1.53-.01 2.29-.03.75-.01 1.52-.03 2.27-.03 1.08 0 1.93.03 2.69.09 3.94.32 7.52 2.28 10.06 5.51.69.88 1.3 1.84 1.81 2.87.83-5.15 3.21-9.12 6.5-10.77 1.94-.97 3.89-1.46 5.77-1.46.33 0 .64.01.95.04l2.13-.7 7.34-2.4 4.29-1.4.06.81 1.45-.27 7.96-1.51 4.04-.77v.39l2.76-.46 7.41-1.24 3.99-.66.12 4.04.1 3.22c.72-1.45 1.62-2.78 2.7-3.93 2.63-2.81 6.12-4.36 9.84-4.36h.35c4.42.11 7.95 2.55 9.93 6.85.35.75.63 1.52.86 2.27.81-2 1.95-3.83 3.38-5.33 2.63-2.77 6.1-4.29 9.76-4.29.2 0 .39 0 .59.01 4.42.19 7.9 2.68 9.81 7.02.42.96.74 1.94.98 2.9l-.21-7.33-.11-3.76 3.76.13 19.52.66 3.41.12v9c.32-.57.66-1.12 1.03-1.63 2.78-3.87 6.91-5.92 11.94-5.92h.14c2.85.02 5.32 1.16 7.15 3.28 1.58 1.83 2.5 4.19 3.02 6.57l.5-4.64.32-3 3.01-.15 7.19-.36 3.71-.19v2c.35-.04.69-.06 1.05-.06 4.21 0 6.95 2.97 7.25 3.3l1.54 1.74-.08.17c1.81-1.32 3.96-2.16 6.25-2.41.34-.04.68-.06 1.03-.06 5.33 0 10.8 4.6 11.4 5.13l1.92 1.66-.97 2.35-3.5 8.52zm-84.47-10.52l-2.32-.06-2.81-.07c.03.54.04 1.02.04 1.42 0 1.63-.13 3.47-.99 5.03l6.08-6.32zm18.07 1.77l-5.69 5.88 4.01.36 1.16.1c0-.3 0-.61.01-.92.05-1.94.22-3.75.51-5.43z" fill="none" stroke="#fff" stroke-linejoin="round" stroke-width=".76"/></svg>