<svg xmlns="http://www.w3.org/2000/svg" viewBox="0 0 150 191"><path d="M50.93 78.22v58.81l1.43.39.68-.6v-58.6h7.58v58.18c0 1.43-1.31 4.54-2.36 5.63-2.55 2.64-8.82 2.99-11.69.82-1.13-.86-2.79-4.29-2.79-5.61V78.22h7.16zM80.51 143.75h-7.16v-26.67c0-.44-1.19-.8-1.68-.63v27.3h-7.16V78.22h9.89c.16 0 2.14.72 2.48.88 2.02.96 3.28 3.03 3.59 5.24.64 4.69.58 18.69.04 23.49-.25 2.22-1.36 3.62-2.5 5.4.64.83 2.5 2.35 2.5 3.42v27.09zm-8.84-33.6c1.82.25 2-1.28 2.12-2.71.41-4.74.51-15.13-.02-19.76-.15-1.3-.38-3.08-2.1-2.73v25.2zM28.93 77.9c5.5-1.12 10.04.98 10.63 6.84l-.02 53.74c-2.03 8.17-15.66 7.92-15.96-1.24-.12-16.89-.71-34.64 0-51.65.13-3.09 1.98-7 5.35-7.68zm3.9 58.92V85.15c-1.72-1.44-2.34-.7-2.53 1.26.1 16.22-.4 32.79-.02 48.33.05 2.09.25 3.87 2.55 2.08zM7.37 78.22l2.52 22.27 3.16-22.27h7.15l-6.72 42.23-.01 23.3H6.31v-24.56L0 78.22h7.37zM150 78.22v6.73h-5.47v22.68H150v6.72h-5.47v22.68H150v6.72h-12.63V78.22H150zM132.66 78.22v6.63l-5.89.09v22.98l5.71.1.05 6.15-5.76.18v29.4h-7.16V78.22h13.05zM99.84 78.22v58.81h5.47v6.72H92.27V78.22h7.57zM76.92 11.74v25.2c1.01.07 2.01.14 2.1-1.05l-.39-23.97-1.71-.18z" fill="#fff"/><path d="M0 0v75.24h150V0H0zm22.49 63.92c-.76 5.55-4.81 7.74-10.17 7-2.53-.35-6.14-3.45-6.14-6.05V49.54h7.16v14.28l1.71-.18.39-21.45-.69-.99c-3.47-.02-7.95-.14-8.8-4.23-.87-4.13-.57-18.67-.2-23.35.29-3.72 1.6-8.07 5.79-8.92 4.22-.85 8.76.4 10.24 4.71 1.07 3.1 1.23 11.81.84 15.17-.07.61-.05 1.08-.65 1.45h-6.52V12.38c0-1.51-2.1-1.15-2.1-.42v22.05c3.46-.05 8.17-.48 9.07 3.76.81 3.85.66 21.95.08 26.17zm19.05-26.35c-.4 4.75-4.5 6.39-8.84 6.09v26.88h-7.16V5.01h10.31c1.98 0 5.4 2.29 5.58 4.51-.05 8.98.83 19.47.1 28.05zM58.8 70.54c-.42-.26-.55-.58-.63-1.05-.44-2.41-.16-6.24-.42-8.82-.05-.49-.39-2.71-.66-2.76l-3.97.02-.42 12.6h-7.58l4.2-65.52h10.94l5.47 65.53h-6.95zm27.38-25.83v25.83h-7.16V43.87l-2.1-.63v27.3h-7.16V5.01c3.17.35 7.27-.47 10.31 0 2.57.4 5.26 2.59 5.65 5.29.66 4.68.63 20.41.05 25.18-.23 1.87-1.45 3.4-2.54 4.81 1.69.07 2.95 3.07 2.95 4.42zm15.93 25.83l-3.37-22.26v22.26h-7.16V5.01h7.16v24.78l1.21-6.14 2.16-18.64h7.58l-5.09 34.23 5.51 31.3h-8zm25.09 0h-12.63V5.01h7.16v58.81h5.47v6.72zm17.44-58.8h-5.47v22.68h5.47v6.72h-5.47v22.68h5.47v6.72h-12.63V5.01h12.63v6.72z" fill="#fff"/><path d="M54.8 23.08L53.53 50.8h3.37c-.16-7.51-1.41-19.43-1.8-26.93l-.3-.79zM32.7 11.32v25.62c1.1.15 1.91-.4 2.09-1.48.29-6.93.86-15.47.04-22.28-.16-1.3-.82-1.78-2.13-1.87zM108.06 78.22h7.58v65.53h-7.58zM95.72 149.24c-.85-.49-1.22.15-1.85.31-.44.11-1.03-.12-1.53.18l.4.46c-.54.16-1.17-.02-1.67.04-.21.03-.39.2-.62.23-5.51.67-11.03.96-16.63 1.84-1.11.18-2.24.33-3.36.44-.29.43-.17.96-.34 1.41-.34.93-1.39 2.26-1.86 3.17s-.87 1.99-1.38 2.94c-1.2 2.22-2.6 4.34-3.69 6.62.23.36 2.51-.3 3.02-.36 1.12-.14 2.37-.11 3.49-.22.45-.04 2.49-.49 2.72-.22.08.09-.14.93.67.98-.31.63-3.64.82-4.46.97-1.17.21-2.38.38-3.53.63-.71.15-2.57.52-3.09.82-.21.12-.47.46-.68.62l-6.49 12.7c-.11.3.13.22.33.22.45 0 .85-.24 1.24-.3 2.58-.38 5.2-.79 7.79-1.05 3.06-.31 6.16-.43 9.23-.58 1.06-3.4 2.63-6.62 4.16-9.83 1.69-3.51 3.44-7.08 5.25-10.54.73-1.39 1.57-2.73 2.22-4.17 1.19-.73 2.26.51 1.63 1.72-.15.29-.41.29-.49.42-2.02 3.21-3.72 6.95-5.56 10.3s-3.97 6.87-5.71 10.47c-.24.5-.39 1.05-.62 1.55l2.91.06-.53.4c.26-.1.62-.04.84-.1.13-.03.12-.23.24-.25.76-.14 1.74-.02 2.51.02l-.89.23c.35-.01.76.11 1.09.09.27-.02.2-.26.33-.28.77-.13 1.87 0 2.66.04l-.45.26c.9.17 2.1 0 2.96.21.17.04.34.11.35.31l-.44.11c.36.04.73.04 1.09.08.18.02.55-.07.49.18l-13.75.35c-.18.06-.38 1.04-.5 1.31-.05.1-.49.17-.33.67l-.27-.31c.13.6-.35.58-.49.81-.17.26-.11.86-.23 1.18-.27-.06-.1-.74-.06-.93.16-.86.55-1.84.89-2.64l-5.9.18c-2.98.47-5.98.71-8.94 1.3-.75.15-3.87.73-4.32.98-.65.36-1.62 2.76-2.08 3.47l-.18-.59-.4.55.21-1-.62.54c.21-.78.52-1.52.82-2.27.07-.18.17-.18-.14-.16-1.08.09-5.74 1.43-6.79 1.89-.8.35-1.85 1.56-2.74 1.38-.8-.16-.69-1.74-.34-2.26.51-.77 4.72-1.48 5.72-2.02l5.57-1.3 6.49-13.78c-.16-1.13-.27-1.74 1.02-1.99l7.56-13.47.12-.72c-.2-.04-.39-.01-.59.02-1.99.32-3.92 1.14-5.81 1.77-.79.26-1.65.41-2.44.77-2.65-.98.44-3.05 1.82-3.52 6.26-2.13 15.72-3.23 22.37-3.69 3.29-.23 8.33-.71 11.55-.17.32.05.94.16 1.06.51zM138.07 167.27c-1.62 2.44-3.33 4.88-4.79 7.39-.49.85-.91 1.76-1.39 2.63l4.35-2.66c.58-.36 2.46-.18 2.16.75-.68 1.13-1.49 2.42-2.04 3.61-.21.45-.55 1.16-.62 1.63-.32 2 .78.52 1.66.34.38-.08.18.55.09.73-.05.09-.79.81-.89.85-1.08.42-2.21-.2-2.53-1.27-.48-1.61 1-2.89 1.46-4.18.07-.21.14-.38-.16-.35-1.23.93-2.46 1.87-3.69 2.79-.39.29-1.25.68-1.51.92-.31.29-1.12 1.91-1.43 2.42-.24.39-.65.51-.51 1.22l-.2-.31c-.02.33-.42.21-.49.29-.12.12-.11.69-.24.88-.1.15-.33.03-.41.09-.18.14-.07.79-.39.82.47-2.35 1.97-4.41 2.68-6.68l.4-.48c.9-1.87 1.88-3.75 2.92-5.56.59-1.03 1.89-2.64 2.27-3.65.07-.2 0-.26-.2-.23l-5.32 1.51c-1.07 2.37-2.39 4.63-3.46 7-1.6 3.54-3.17 7.42-4.52 11.06-.16.43-.05 1.08-.59 1.27l-.1-.59-.33.56.25-1.36-.29-.1c.55-.42.09-.58.12-.87.04-.34.42-.62.49-.82.54-1.58.9-3.36 1.53-4.99 1.39-3.6 3.44-6.93 4.88-10.49-1.67.3-3.47 1.51-5.15.8 1.85-.87 3.8-1.39 5.77-1.89 3.17-5.74 6.42-11.44 10.2-16.81.25-.76.88-1.37 1.43-1.96.9.12 1 .39.77 1.21-.44 1.57-3.87 6.3-4.98 8.03-.82 1.28-1.97 2.64-2.76 3.9-.97 1.56-1.81 3.38-2.69 5-.01.17.31.07.44.04 1.22-.23 2.43-.6 3.65-.81.49-.08 1.01.21 1.37-.3 3.24-5.01 6.81-9.86 9.74-15.07.37-.65.72-1.42.93-2.13 1.43-.01 1.18 1.28.78 2.22-1.81 4.24-6.01 9.64-8.64 13.59zM29.01 174.4c1.38-.76 3.37-2.58 4.91-2.9.41-.08 1.55.09 1.64.55l-.04.36c-.65 1.45-2.66 4.16-2.71 5.67s1.28-.24 2.06-.07c-.02.76-.19.58-.48.93-.15.18-.27.51-.47.6-1.22.56-2.37-.22-2.73-1.39s1.13-3.17 1.64-4.28l-.33-.07c-1.52.95-2.87 2.33-4.33 3.31-.25.17-.57.14-.82.31l-1.67 3.01-.28-.17-.06.87-.21-.12-.12.2c-.45-.29-.26.38-.49.56-.08.06-.31-.04-.42.09-.16.19-.17.66-.2.92-.03.04-.18-.09-.21-.16-.19-.46 2.55-5.58 2.73-6.53.47-.39.65-1.16.96-1.75 1.39-2.66 3-5.2 4.5-7.8.11-.51-.65.03-.88.08-1.47.34-2.9.69-4.34 1.11-.29.14-.46.57-.62.85-2.54 4.48-4.89 10.21-6.8 15.01-.29.73-.9 3.13-1.24 3.58-.05.07-.2.18-.23.13l-.03-.59-.39.41c-.05-.44.14-.83.2-1.22.04-.26-.31-.57.2-.49l.02-.21-.28-.3c.84-2.04 1.34-4.23 2.15-6.3 1.33-3.4 3.32-6.55 4.67-9.96-.88-.17-1.72.47-2.55.66-.74.17-1.92.38-2.59 0 1.89-.89 3.91-1.3 5.88-2 3.13-5.75 6.45-11.37 10.18-16.75.11-.15.11-.39.21-.54.4-.56.93-1.57 1.61-1.29.82.33.23 1.44-.04 2-1.22 2.52-3.74 5.56-5.3 7.98-1.67 2.6-3.27 5.23-4.8 7.93-.05.22-.03.24.2.23.93-.06 2.23-.54 3.18-.72.56-.11 1.71-.04 2.05-.3 3.16-4.76 6.35-9.47 9.23-14.4.2-.34.5-.6.69-.93.3-.54.58-2.23 1.38-1.95 1.17.41.14 2.42-.23 3.11-3.77 6.97-8.91 13.17-12.95 19.98-.53.9-.98 1.85-1.47 2.76zM117.47 155.8c-3.18 4.85-6.94 9.31-9.94 14.28a84.82 84.82 0 0 0-2.51 4.46c.62.28 1.21-.54 1.66-.75 1.5-.7 4.83-1.78 6.43-1.64 1.05.09 2.07.58 1.74 1.81-.27 1-1.58 1.38-2.39 1.9-2.16 1.37-4.23 2.5-6.53 3.64-1.38.68-2.66 1.63-4.28 1.74l-.05.41c-.4.08-.25-.26-.48-.47l-.46.4-.19-.37c1.39-.57 1.31-2.19 1.84-3.43-1.12.16-2.18.94-3.27.19-.9-.63-.89-1.69-.49-2.63-.23-.06-.4.08-.58.19-1.62.95-3.88 3.26-5.56 3.78-1.12.34-1.94-.29-1.54-1.45.33-.95 2.81-3.22 3.69-3.88.61-.46 2.97-2.01 3.62-1.79.42.14.56.56.24.91-.16.17-1.89.85-2.32 1.09-1.44.81-3.07 2.08-3.7 3.64 2.07-1.07 3.83-2.86 5.82-4.02.53-.31 2.04-1.13 2.41-.21s-1.35 2.49-1.27 3.55c.23.49 2.65.23 2.99-.02.21-.15.19-.58.36-.84 1.1-1.56 1.84-3.47 2.8-5.22 2.79-5.12 6.52-11.52 10.06-16.11.55-.71.76-1.35 1.79-.93.85.35.47 1.21.1 1.78zm-4.36 17.49c-.1-.09-1.85.34-2.15.42-2.59.72-4.99 2.23-7.18 3.67l-1.34 2.72 4.07-2.13c2.07-1.68 4.94-2.48 6.6-4.69zM16.42 168.54s-.62.04.01.47l.29-.05-7.07 9.53c-2.59.79-2.18-2.36-1.75-3.97-.26-.08-.29.06-.43.21-.7.78-2.36 3.31-3.38 3.32-.63 0-1.15-.56-1.15-1.19 0-.54 1.24-4.09 1.53-4.79.41-.96.89-1.93 2-.99.06.11.06.23.05.35-.03.23-1.09 1.68-1.33 2.24-.29.69-.59 1.47-.58 2.22l3.87-4.38c2.3 1.2-.18 3.43.22 5.25l7.53-8.78c.23.02.25.45.2.56z" fill="#fff"/><path d="M90.69 173.32l2.06-.37c-.24.14-.63.83-.74.91-.22.16-1.47.72-1.52.79-.19.25-.52 1.42-.84 1.92-.85 1.31-3.67 3.81-5.31 3.42-.42-.1-.95-.68-.88-1.13.02-.15.51-.82.66-.98 1.09-1.25 2.85-2.25 4.23-3.12.84-.53 1.41-.3 1.14-1.82-1.38.9-2.86 2.31-4.59 2.15 1.34-1.65 3.41-2.49 5.03-3.85.79-.15.86 1.55.77 2.07zm-5.92 5.55c.12.12 1.43-.53 1.65-.68.3-.2 2.4-2.15 2.2-2.39-.49.32-1.23.63-1.67.97-.22.16-.34.47-.54.63-.57.46-1.27.75-1.64 1.48zM123.1 173.57c.29.56-.52 1.36-.93 1.66-.55.4-3.11 1.94-3.63 2.04-.8.15-1.65-.42-1.9-.32-.45.17-1.99 1.93-1.79 2.57.28.32 4.77-.81 5.65-.77.16 0 .56-.05.5.18-.9 0-1.59.64-2.39.92-.4.14-2.82.87-3.05.87-.64.02-1.92-.49-2.02-1.23s.19-1.01.57-1.53c1.18-1.63 5.11-4.56 7.11-4.8.39-.05 1.7.07 1.88.41zm-2.21.84c-.56-.21-.54.16-.78.28-.9.43-1.82.81-2.55 1.52 1.25.12 2.47-.99 3.33-1.8zM17.16 172.03s.15-.02.23-.15c.21-.36.18-1.3.91-1.54.15 0 .62.44.69.6.21.52-.97 3.08-1.29 3.67-.72 1.31-1.96 2.6-2.69 3.78-.1.16-.18.28-.35.38-.16-.16-.31-.29-.33-.54-.1-1.05 2.19-5.11 2.83-6.21zM81.79 172.32s.15-.02.23-.15c.21-.36.18-1.3.91-1.54.76.36.83.82.59 1.56-.73 2.21-2.15 4.31-3.67 5.96-.24.26-.23.7-.57.91-.16-.16-.31-.29-.33-.54-.1-1.04 2.19-5.11 2.83-6.21zM20.57 167.36c-.32.44-.5.23-.97.06l-.11-.17c-.14-.51.29-1.83.51-2.34.16-.38 1.37-2.36 1.62-2.52.32-.21 1.38.09 1.48.51.14.64-1.31 2.34-1.72 2.97-.29.45-.5 1.06-.81 1.5zM85.2 167.65c-.31.44-.77.26-1.08-.11-.06-.81.19-1.61.51-2.34.17-.39 1.36-2.35 1.62-2.52.32-.21 1.38.09 1.48.51.14.63-1.25 2.27-1.66 2.88-.33.5-.55 1.13-.87 1.58z" fill="#fff"/><path d="M83.72 181.41l1.1-.18 2.23.41-3.33-.23z"/></svg>