<svg xmlns="http://www.w3.org/2000/svg" viewBox="0 0 250 103"><path d="M.66 4.27L0 27.66c0 .09.01.19.05.27.03.09.08.17.15.23.06.07.14.12.23.16.09.04.18.06.27.06h6.26c.18 0 .36-.07.49-.2s.2-.31.2-.49v-7.84c0-.18.07-.35.19-.48s.29-.21.47-.22l1.55-.1c.1 0 .19 0 .28.04.09.03.17.09.24.15l9.25 8.94c.13.12.3.19.48.19h8.71c.14 0 .27-.04.39-.12.12-.08.21-.19.26-.31.05-.13.07-.27.04-.41a.783.783 0 0 0-.19-.36L18.36 16.46a.541.541 0 0 1-.15-.22.595.595 0 0 1-.06-.27c0-.09.02-.18.05-.27.03-.08.08-.16.15-.23L29 4.44c.13-.13.2-.3.2-.48v-.82c0-.09-.02-.18-.05-.27a.827.827 0 0 0-.15-.23c-.06-.06-.14-.12-.23-.15s-.18-.05-.27-.05h-8.73c-.17 0-.33.06-.45.16l-9.89 8.53a.66.66 0 0 1-.36.16.66.66 0 0 1-.39-.06.696.696 0 0 1-.41-.63V4.13c0-.09-.02-.18-.05-.27a.913.913 0 0 0-.15-.23c-.07-.06-.14-.12-.23-.15a.857.857 0 0 0-.27-.05l-6.22.13c-.18 0-.35.07-.47.2-.13.12-.2.29-.21.47zM40.97 2.46h-6.9c-.37 0-.68.3-.68.68v24.57c0 .37.3.68.68.68h6.9c.37 0 .68-.3.68-.68V3.13c0-.37-.3-.68-.68-.68zM71.3 1.25l-23.94.62c-.17 0-.33.07-.45.19s-.19.28-.19.45l-.47 24.61c0 .09.01.18.05.26.03.08.08.16.14.22.06.06.14.11.22.14.08.03.17.05.26.05l24.71-.5c1.85-.04 3.62-.8 4.91-2.12a7.05 7.05 0 0 0 2.02-4.95V8.33c0-.94-.19-1.88-.56-2.75-.37-.87-.91-1.66-1.58-2.32a7.05 7.05 0 0 0-5.12-2zm-1.72 15.59c0 1.57-1.49 2.85-3.35 2.88l-11.59.2c-.09 0-.18-.01-.26-.05a.541.541 0 0 1-.22-.15.636.636 0 0 1-.14-.22.751.751 0 0 1-.05-.26l.21-9.24c0-.17.07-.33.19-.45s.28-.19.45-.19l11.25-.24c1.92-.04 3.51 1.26 3.51 2.88v4.84zM107.6 27.23H85.94a4.094 4.094 0 0 1-4.1-4.1v-2.46c0-.17.07-.34.19-.46a.66.66 0 0 1 .46-.19l20.34-.16c.17 0 .34-.07.46-.19a.66.66 0 0 0 .19-.46v-1.15a.66.66 0 0 0-.19-.46.66.66 0 0 0-.46-.19h-16.9a4.094 4.094 0 0 1-4.1-4.1V5.25c0-.54.11-1.07.31-1.57.21-.5.51-.95.89-1.33.38-.38.83-.68 1.33-.89.5-.21 1.03-.31 1.57-.31h21.66c.54 0 1.07.11 1.57.31.5.21.95.51 1.33.89.38.38.68.83.89 1.33s.31 1.03.31 1.57v2.46c0 .17-.07.34-.19.46a.66.66 0 0 1-.46.19L90.7 8.2a.66.66 0 0 0-.46.19.66.66 0 0 0-.19.46v.49c0 .17.07.34.19.46s.29.19.46.19h16.9c.54 0 1.07.11 1.57.31.5.21.95.51 1.33.89.38.38.68.83.89 1.33.21.5.31 1.03.31 1.57v9.02a4.094 4.094 0 0 1-4.1 4.1zM174.65.33h-7.76c-.12 0-.23.04-.32.11s-.16.17-.19.28l-3.75 13.3a.539.539 0 0 1-.51.39.53.53 0 0 1-.51-.4L158.22.73a.57.57 0 0 0-.19-.29.546.546 0 0 0-.33-.11h-9.49a.53.53 0 0 0-.52.4l-3.39 13.28c-.03.11-.1.21-.19.28a.517.517 0 0 1-.64 0 .543.543 0 0 1-.19-.28L139.53.71a.543.543 0 0 0-.19-.28.517.517 0 0 0-.32-.11h-7.76c-.08 0-.16.02-.24.06a.7.7 0 0 0-.19.15c-.05.07-.08.14-.1.22-.02.08-.01.16.01.24l6.59 23.38c.03.11.1.21.19.28.09.07.2.11.32.11h11.32a.53.53 0 0 0 .51-.4l2.76-10.8c.03-.11.09-.22.19-.29a.546.546 0 0 1 .66 0c.09.07.16.17.19.29l2.76 10.8c.03.11.1.22.19.29.09.07.21.11.33.11h11.32c.12 0 .23-.04.32-.11s.16-.17.19-.28L175.17.99c.02-.08.03-.16 0-.25-.01-.08-.05-.16-.1-.22s-.12-.12-.19-.15a.494.494 0 0 0-.24-.05zM185.65.33h-7.47c-.29 0-.53.24-.53.53v23.38c0 .29.24.53.53.53h7.47c.29 0 .53-.24.53-.53V.86c0-.29-.24-.53-.53-.53zM189.5 0h27.48c.14 0 .28.06.37.16.1.1.16.23.16.37v6.16c0 .14-.06.28-.16.37-.1.1-.23.16-.37.16h-8.95a.546.546 0 0 0-.54.54v14.86c0 .07-.01.14-.04.2a.99.99 0 0 1-.11.17c-.05.05-.11.09-.17.11-.07.03-.13.04-.2.04H199c-.14 0-.27-.06-.37-.15-.1-.1-.16-.23-.16-.37l-.15-14.9c0-.13-.05-.26-.15-.36s-.22-.16-.35-.16l-8.35-.44c-.14 0-.26-.07-.36-.17a.554.554 0 0 1-.15-.36V.52c0-.14.06-.27.16-.37.1-.1.23-.15.37-.15zM241.63.53v6.49c0 .14-.06.28-.16.37-.1.1-.23.16-.37.16h-12.72c-.14 0-.28-.06-.37-.16-.1-.1-.16-.23-.16-.37V.53c0-.14-.06-.28-.16-.37-.1-.1-.23-.16-.37-.16h-6.83c-.14 0-.27.05-.37.15-.1.1-.16.23-.16.37l-.62 21.25c0 .07 0 .14.04.21.02.07.06.13.11.18.05.05.11.09.17.12.07.03.14.04.21.04h7.45c.14 0 .28-.06.37-.16.1-.1.16-.23.16-.37v-5.01a.546.546 0 0 1 .53-.54h12.72c.14 0 .28.06.37.16.1.1.16.23.16.38v4.52c0 .14.06.28.16.37.1.1.23.16.37.16h7.31a.546.546 0 0 0 .54-.54V.53c0-.07-.01-.14-.04-.2a.99.99 0 0 0-.11-.17.452.452 0 0 0-.17-.11.466.466 0 0 0-.22-.05h-7.31c-.14 0-.28.06-.37.16-.1.1-.16.23-.16.37zM41.65 41.89s-2.41 1.61-3.01 2.5c-.6.89-18.87 50.88-19.29 52.05 0 .01-.01.03-.01.05-.06.29-.58 3.12.66 3.42 1.31.33 3.45-.98 4.27-1.31.7-.28 2.23.91 2.67 1.27.04.03.08.05.13.06.05.01.1 0 .14 0l3.04-.79c.05-.01.1-.04.14-.07.04-.04.07-.08.08-.13l5.41-18.26c.02-.07.07-.13.13-.16.38-.25 1.78-1.07 2.2.06.46 1.23 5.68 15.73 6.33 17.53.02.06.05.1.1.14.05.04.1.06.16.06 1.09.1 6.42.55 6.86-.18.49-.82 3.61-5.41 3.61-6.23s-7.16-19.91-7.54-20.91c0-.03-.02-.05-.04-.07-.13-.18-.73-1.09-.14-1.82.64-.8 24.48-21.99 25.71-23.09.03-.03.06-.07.08-.11.16-.37.86-2.23-.82-2.09-.06 0-.11 0-.16-.03a.318.318 0 0 1-.12-.11l-.36-.58s-.07-.08-.11-.11a.282.282 0 0 0-.15-.04h-.95c-.06 0-.11.01-.16.04l-2.53.51c-.05.03-.11.05-.17.04-.06 0-.12-.02-.17-.06a.259.259 0 0 1-.11-.14.279.279 0 0 1-.01-.18l-.29-1.8c0-.05 0-.1-.01-.15a.353.353 0 0 0-.08-.13c-.04-.03-.08-.06-.13-.07a.379.379 0 0 0-.15 0l-2.4.3s-.09.03-.13.07a.2.2 0 0 0-.08.12l-1.04 1.02s-.05.09-.09.12c-.04.03-.08.05-.13.07-.05.01-.1.01-.15 0-.05-.01-.09-.04-.13-.07l-.79-.72s-.1-.06-.15-.07c-.06-.01-.11 0-.17.02l-1.36.53s-.07.04-.1.06L48.27 53.59c-.05.05-.13.08-.2.08a.314.314 0 0 1-.32-.26c-.01-.07 0-.15.05-.21l4.77-7.31s.04-.07.04-.11v-.12c-.1-.47-.52-2.09-1.4-2.73-.75-.54-1.15-.15-1.33.11-.03.05-.08.09-.14.12-.06.02-.12.03-.19.01l-.98-.22c-.07-.02-.14 0-.2.02l-4.1 2s-.08.03-.13.03c-.04 0-.09 0-.13-.03a.284.284 0 0 1-.11-.08c-.03-.03-.05-.07-.07-.11l-.7-2.3s-.04-.09-.07-.12c-.19-.2-.87-.84-1.43-.46zM53.97 101.19l19.65-53.97s1.58-2.36 2.89-2.36 2.05-.41 2.05-.41l2.21-2.71s1.24-1.15 1.69 0 .77 2.62 1.26 2.79c.49.16 3.28-3.45 3.94-2.79s1.15 4.43 1.15 4.43l.66 19.69s.16 1.15 1.15-.82 7.55-21.82 7.55-21.82 1.43-2.33 2.6-1.99 2.97.18 2.97-.97 1.15-1.31 1.97-1.15.82 1.64 2.13 1.31 2.62-.66 3.12-.98 2.13-.07 0 4.23c-2.13 4.3-17.72 50.07-17.72 50.07-1.25-.53-2.58-.86-3.94-.98-2.13-.16-4.92 1.31-4.92 1.31h-3.77l-1.26-23.95S77.49 67 77 68.48s-10.34 32.98-10.34 32.98-5.65-.66-5.53 0-1.63-.16-1.99 0c-.36.16-2.33 1.15-2.33 1.15s-1.94 1.42-2.86-1.42zM118.84 42.24S106.7 63.57 99.97 91.13c0 0 .66 2.62 2.62.49 0 0 1.48-.82 1.8.16s1.04 1.83 2.24.67c1.2-1.16 3.01.81 3.34 1.95s2.46.33 3.45-3.94 14.27-42.65 19.03-48.23c0 0 2.02-3.88-2.76-3.17 0 0-2.65 2.68-2.82 3.83s-1.46-.51-1.46-.51-1.65-3.59-2.96-1.79-1.64 2.79-2.13 2.13-1.15-1.15-1.48-.49zM139.51 33.88c-.57-.15-2.62 1.15-2.46 2.13s-4.1 23.95-4.92 28.55-3.77 22.48-2.62 29.37c0 0 .98 1.48 2.3-1.48 0 0 1.71-1.61 2.58-.23.87 1.38 2.02 1.71 2.51 1.22s1.48-.98 1.48-.98 1.48 1.64 2.3 1.48 1.64-2.3 1.64-2.3 13.29-30.84 36.26-59.88c0 0 1.63-1.69-3.37-2.65 0 0-.57 1.99-1.55 1.67s-3.45-1.8-3.61-2.46-1.97-1.48-3.94 1.64-12.8 17.23-21 33.3c0 0-2.3 1.15-1.8-1.15S150.62 39 150.62 39s.24-2.48-1.4-2.32-.82.98-1.8.82-1.31-1.8-2.46-1.64-1.48 1.48-2.79.98-.16-2.3-2.62-2.95zM178.8 34.45s.24 2.38-.58 3.53-1.15 1.46-.58 4.59c.57 3.14-2.46 5.7-2.46 5.7l-15.33 36.95s.98.66 2.79 3.61 23.62-1.31 24.28-2.62-1.15-1.97-1.15-1.97-1.03-2 1.29-2.48c2.32-.48-.89-2.59-.89-2.59s2.05-2.06 0-2.68c-2.05-.62-9.76 1.02-9.76 1.02s-1.31 0-.16-2.3 4.27-9.84 4.27-9.84l11.65-1.64s1.48-1.36 0-3.38 2.46-2.03 2.3-3.83-1.31-3.12-1.97-3.28-5.09.33-5.09.33-1.97.49-.66-2.3 4.1-7.71 4.1-7.71l12.39-2.89-.74-3.18s2.46-1.15-.16-3.45c0 0 .98-2.3.33-2.62s-23.87 3.04-23.87 3.04zM197.26 73.41s-.33 2.46-.98 2.95-3.28.49-3.28.49.49 2.59 0 3.26c-.49.67-2.95 1.99-2.62 3.3s1.48 3.61 10.01 3.28 22.48-8.53 22.31-20.34-5.74-14.6-4.27-21.82 8.2-4.92 8.2-4.92-.49-1.64 1.48-2.46-.66-1.8-1.48-2.13-.66-1.97 1.15-2.46 1.97-3.94-.33-4.27-18.54-.16-21.98 13.94 5.74 14.77 5.09 19.85-.49 10.66-13.29 11.32z" fill="#fff"/></svg>