<svg xmlns="http://www.w3.org/2000/svg" width="253" height="52" viewBox="0 0 253 52"><path d="M15.89,4.89a21.33,21.33,0,0,1,5.3.67,12.53,12.53,0,0,1,4.64,2.25A11.27,11.27,0,0,1,29.11,12a15.28,15.28,0,0,1,1.22,6.47,13.46,13.46,0,0,1-2.08,7.67,11.3,11.3,0,0,1-5.75,4.43l9.86,19.21H21.7L13.51,32H10.4V49.77H1.5V4.89H15.89M10.35,24.1h4.34a12.33,12.33,0,0,0,2.3-.22,6.4,6.4,0,0,0,2.14-.8,4.3,4.3,0,0,0,1.58-1.64,5.6,5.6,0,0,0,.62-2.79,5.1,5.1,0,0,0-.57-2.57,4.13,4.13,0,0,0-1.44-1.52,5.67,5.67,0,0,0-2-.73,12.18,12.18,0,0,0-2.12-.19H10.35V24.1M15.89,3.57H1.5A1.33,1.33,0,0,0,.17,4.89V49.77A1.34,1.34,0,0,0,1.5,51.1h8.9a1.34,1.34,0,0,0,1.33-1.33V33.29h.93l7.83,17a1.34,1.34,0,0,0,1.21.78H32.36a1.32,1.32,0,0,0,1.13-.64,1.34,1.34,0,0,0,0-1.3L24.33,31.23a12.65,12.65,0,0,0,5-4.36,14.86,14.86,0,0,0,2.3-8.41,16.45,16.45,0,0,0-1.35-7,12.62,12.62,0,0,0-3.67-4.67,14.12,14.12,0,0,0-5.12-2.49,23,23,0,0,0-5.63-.7ZM11.67,15h3.55a11.44,11.44,0,0,1,1.89.17,4.45,4.45,0,0,1,1.52.55,2.84,2.84,0,0,1,1,1A3.86,3.86,0,0,1,20,18.65a4.36,4.36,0,0,1-.44,2.13,3.08,3.08,0,0,1-1.1,1.16,5.13,5.13,0,0,1-1.72.63,10.46,10.46,0,0,1-2,.2h-3V15Z" fill="#fff"/><path d="M67.53,4.89V14H51v8.49H66.63V31.2H51v9.32H68.49v9.25H42.17V4.89H67.53m0-1.32H42.17a1.32,1.32,0,0,0-1.33,1.32V49.77a1.33,1.33,0,0,0,1.33,1.33H68.49a1.33,1.33,0,0,0,1.33-1.33V40.52a1.32,1.32,0,0,0-1.33-1.33H52.29V32.52H66.63A1.33,1.33,0,0,0,68,31.2V22.51a1.33,1.33,0,0,0-1.33-1.32H52.29V15.35H67.53A1.33,1.33,0,0,0,68.86,14V4.89a1.32,1.32,0,0,0-1.33-1.32Z" fill="#fff"/><path d="M93.7,4.89a22.4,22.4,0,0,1,5.79.73A12.71,12.71,0,0,1,104.18,8a11,11,0,0,1,3.14,4.24,16.4,16.4,0,0,1,1.15,6.5,16,16,0,0,1-1.23,6.63,11.63,11.63,0,0,1-3.3,4.34,13.57,13.57,0,0,1-4.8,2.41,21.16,21.16,0,0,1-5.65.76H89V49.77H79.85V4.89H93.7M89,24.23H92.8A11.5,11.5,0,0,0,95.25,24a5.8,5.8,0,0,0,2.1-.89,4.4,4.4,0,0,0,1.47-1.67,5.86,5.86,0,0,0,.53-2.63,5.61,5.61,0,0,0-.53-2.6,4.11,4.11,0,0,0-1.44-1.59,5.55,5.55,0,0,0-2-.76A14.21,14.21,0,0,0,93,13.64H89V24.23M93.7,3.57H79.85a1.32,1.32,0,0,0-1.33,1.32V49.77a1.33,1.33,0,0,0,1.33,1.33H89a1.34,1.34,0,0,0,1.33-1.33V34.17h3.2a22.18,22.18,0,0,0,6-.81,14.89,14.89,0,0,0,5.26-2.64,13,13,0,0,0,3.69-4.83,17.43,17.43,0,0,0,1.34-7.18,17.67,17.67,0,0,0-1.25-7A12.32,12.32,0,0,0,105,6.94a14.05,14.05,0,0,0-5.18-2.6,23.66,23.66,0,0,0-6.13-.77ZM90.29,15H93a13.57,13.57,0,0,1,2.15.17,4.21,4.21,0,0,1,1.56.57,2.78,2.78,0,0,1,1,1.08,4.4,4.4,0,0,1,.38,2,4.46,4.46,0,0,1-.39,2,3.14,3.14,0,0,1-1,1.19,4.92,4.92,0,0,1-1.64.69,10.94,10.94,0,0,1-2.17.22H90.29V15Z" fill="#fff"/><path d="M145.77,4.89v9.26H135.12V49.77H126V14.15H115.34V4.89h30.43m0-1.32H115.34A1.32,1.32,0,0,0,114,4.89v9.26a1.32,1.32,0,0,0,1.32,1.32h9.33v34.3A1.34,1.34,0,0,0,126,51.1h9.12a1.33,1.33,0,0,0,1.32-1.33V15.47h9.33a1.32,1.32,0,0,0,1.33-1.32V4.89a1.32,1.32,0,0,0-1.33-1.32Z" fill="#fff"/><path d="M172.1,4.89l15.67,44.88H177.65L174.71,41h-14.6l-2.77,8.81h-9.91L163.26,4.89h8.84m-9.38,27.39h9.49l-4.69-15.41-4.8,15.41M172.1,3.57h-8.84a1.33,1.33,0,0,0-1.26.88L146.18,49.33a1.32,1.32,0,0,0,1.25,1.77h9.91a1.34,1.34,0,0,0,1.27-.93l2.47-7.88h12.68l2.63,7.9a1.32,1.32,0,0,0,1.26.91h10.12A1.33,1.33,0,0,0,189,49.33L173.36,4.46a1.33,1.33,0,0,0-1.26-.89ZM164.53,31l3-9.57L170.42,31Z" fill="#fff"/><path d="M210.64,4.89a21.33,21.33,0,0,1,5.3.67,12.61,12.61,0,0,1,4.64,2.25A11.25,11.25,0,0,1,223.85,12a15.12,15.12,0,0,1,1.23,6.47A13.46,13.46,0,0,1,223,26.13a11.3,11.3,0,0,1-5.75,4.43l9.85,19.21H216.45L208.25,32h-3.1V49.77h-8.9V4.89h14.39M205.09,24.1h4.34a12.17,12.17,0,0,0,2.3-.22,6.46,6.46,0,0,0,2.15-.8,4.3,4.3,0,0,0,1.58-1.64,5.6,5.6,0,0,0,.61-2.79,5.21,5.21,0,0,0-.56-2.57,4.24,4.24,0,0,0-1.45-1.52,5.67,5.67,0,0,0-2-.73,12.07,12.07,0,0,0-2.11-.19h-4.88V24.1m5.55-20.53H196.25a1.32,1.32,0,0,0-1.33,1.32V49.77a1.33,1.33,0,0,0,1.33,1.33h8.9a1.33,1.33,0,0,0,1.32-1.33V33.29h.93l7.84,17a1.34,1.34,0,0,0,1.21.78H227.1a1.32,1.32,0,0,0,1.14-.64,1.34,1.34,0,0,0,0-1.3l-9.21-17.93a12.55,12.55,0,0,0,5-4.36,14.86,14.86,0,0,0,2.31-8.41,16.44,16.44,0,0,0-1.36-7,12.49,12.49,0,0,0-3.66-4.67,14.2,14.2,0,0,0-5.12-2.49,23,23,0,0,0-5.63-.7ZM206.42,15H210a11.44,11.44,0,0,1,1.89.17,4.32,4.32,0,0,1,1.51.55,3,3,0,0,1,1,1,3.86,3.86,0,0,1,.39,1.91,4.24,4.24,0,0,1-.45,2.13,2.94,2.94,0,0,1-1.1,1.16,5.08,5.08,0,0,1-1.71.63,10.49,10.49,0,0,1-2.06.2h-3V15Z" fill="#fff"/><path d="M246.93,4.89V34.75H238V4.89h8.9m-4.42,33.53a4.45,4.45,0,0,1,2,.48,5.55,5.55,0,0,1,2.8,3.17,6.68,6.68,0,0,1,.4,2.31,6.87,6.87,0,0,1-.4,2.38,5.55,5.55,0,0,1-2.8,3.17,4.44,4.44,0,0,1-2,.47,4.68,4.68,0,0,1-2-.44,4.87,4.87,0,0,1-1.63-1.27,7,7,0,0,1-1.12-1.9,6.4,6.4,0,0,1-.42-2.34,6.7,6.7,0,0,1,.4-2.32,6.17,6.17,0,0,1,1.09-1.93,5.09,5.09,0,0,1,1.65-1.3,4.49,4.49,0,0,1,2-.48m4.42-34.85H238a1.33,1.33,0,0,0-1.33,1.32V34.75A1.33,1.33,0,0,0,238,36.07h8.9a1.33,1.33,0,0,0,1.33-1.32V4.89a1.33,1.33,0,0,0-1.33-1.32ZM242.51,37.1a5.83,5.83,0,0,0-2.62.61,6.49,6.49,0,0,0-2.08,1.64,7.8,7.8,0,0,0-1.32,2.33,8.07,8.07,0,0,0-.48,2.77,7.74,7.74,0,0,0,.52,2.83,8.4,8.4,0,0,0,1.34,2.27,6.21,6.21,0,0,0,2.07,1.61,6,6,0,0,0,5.18,0,6.8,6.8,0,0,0,2.07-1.57,6.93,6.93,0,0,0,1.39-2.34,8.25,8.25,0,0,0,.48-2.83,8.05,8.05,0,0,0-.48-2.76,6.94,6.94,0,0,0-3.46-3.91,5.78,5.78,0,0,0-2.61-.61Z" fill="#fff"/><path d="M25.47,47.13a.65.65,0,0,1-.6-.38l-8-17.43h-2V46.47a.65.65,0,0,1-.66.66H5.27a.65.65,0,0,1-.66-.66V1.6A.66.66,0,0,1,5.27.93H19.66a21.75,21.75,0,0,1,5.47.69A13.24,13.24,0,0,1,30,4a11.85,11.85,0,0,1,3.48,4.42,16,16,0,0,1,1.29,6.75,14.23,14.23,0,0,1-2.19,8,12.06,12.06,0,0,1-5.39,4.42l9.53,18.55a.68.68,0,0,1,0,.65.66.66,0,0,1-.56.31Zm-7-27a11.66,11.66,0,0,0,2.18-.21,6,6,0,0,0,1.93-.71,3.72,3.72,0,0,0,1.34-1.41,5,5,0,0,0,.53-2.46A4.6,4.6,0,0,0,24,13.11a3.42,3.42,0,0,0-1.22-1.28A4.76,4.76,0,0,0,21,11.19,11.7,11.7,0,0,0,19,11H14.78v9.13Z" fill="#fff"/><path d="M19.66,1.6a21.32,21.32,0,0,1,5.3.66A12.85,12.85,0,0,1,29.6,4.51a11.27,11.27,0,0,1,3.28,4.18,15.28,15.28,0,0,1,1.22,6.47A13.46,13.46,0,0,1,32,22.83a11.37,11.37,0,0,1-5.75,4.44l9.86,19.2H25.47L17.28,28.66H14.17V46.47H5.27V1.6H19.66M14.12,20.8h4.33a12.36,12.36,0,0,0,2.31-.22,6.61,6.61,0,0,0,2.14-.79,4.41,4.41,0,0,0,1.58-1.65,5.6,5.6,0,0,0,.62-2.79,5.1,5.1,0,0,0-.57-2.57,4.13,4.13,0,0,0-1.44-1.52,5.64,5.64,0,0,0-2-.73A13,13,0,0,0,19,10.34H14.12V20.8M19.66.27H5.27A1.33,1.33,0,0,0,3.94,1.6V46.47A1.34,1.34,0,0,0,5.27,47.8h8.9a1.34,1.34,0,0,0,1.33-1.33V30h.93l7.83,17a1.33,1.33,0,0,0,1.21.77H36.13a1.33,1.33,0,0,0,1.18-1.93L28.1,27.93a12.57,12.57,0,0,0,5-4.36,14.92,14.92,0,0,0,2.3-8.41,16.6,16.6,0,0,0-1.35-7,12.62,12.62,0,0,0-3.67-4.67A14,14,0,0,0,25.29,1,22.56,22.56,0,0,0,19.66.27Zm-4.22,11.4H19a11.44,11.44,0,0,1,1.89.17,4.26,4.26,0,0,1,1.52.56,2.82,2.82,0,0,1,1,1,3.86,3.86,0,0,1,.39,1.91,4.36,4.36,0,0,1-.44,2.13,3.14,3.14,0,0,1-1.11,1.17,5.21,5.21,0,0,1-1.71.63,11.28,11.28,0,0,1-2.06.19h-3v-7.8Z" fill="#fff"/><path d="M45.93,47.13a.66.66,0,0,1-.66-.66V1.6a.67.67,0,0,1,.66-.67H71.3A.67.67,0,0,1,72,1.6v9.12a.67.67,0,0,1-.67.67H55.39v7.16h15a.67.67,0,0,1,.66.67V27.9a.66.66,0,0,1-.66.66h-15v8H72.26a.67.67,0,0,1,.67.67v9.25a.66.66,0,0,1-.67.66Z" fill="#fff"/><path d="M71.3,1.6v9.12H54.73v8.5H70.4V27.9H54.73v9.32H72.26v9.25H45.93V1.6H71.3m0-1.33H45.93A1.32,1.32,0,0,0,44.61,1.6V46.47a1.33,1.33,0,0,0,1.32,1.33H72.26a1.33,1.33,0,0,0,1.33-1.33V37.22a1.32,1.32,0,0,0-1.33-1.33H56.06V29.23H70.4a1.33,1.33,0,0,0,1.32-1.33V19.22a1.32,1.32,0,0,0-1.32-1.33H56.06V12.05H71.3a1.32,1.32,0,0,0,1.33-1.33V1.6A1.32,1.32,0,0,0,71.3.27Z" fill="#fff"/><path d="M83.62,47.13a.66.66,0,0,1-.67-.66V1.6a.67.67,0,0,1,.67-.67H97.47a23.28,23.28,0,0,1,6,.75,13.25,13.25,0,0,1,4.93,2.48,11.69,11.69,0,0,1,3.34,4.49,17.14,17.14,0,0,1,1.2,6.76,16.54,16.54,0,0,1-1.29,6.9,12.12,12.12,0,0,1-3.49,4.59,14.2,14.2,0,0,1-5,2.53,21.75,21.75,0,0,1-5.83.78H93.39V46.47a.65.65,0,0,1-.66.66ZM96.57,20.26A11.53,11.53,0,0,0,98.88,20a5.39,5.39,0,0,0,1.87-.79A3.77,3.77,0,0,0,102,17.81a5.25,5.25,0,0,0,.46-2.33,4.85,4.85,0,0,0-.46-2.29,3.47,3.47,0,0,0-1.2-1.34A4.9,4.9,0,0,0,99,11.19,13.79,13.79,0,0,0,96.73,11H93.39v9.25Z" fill="#fff"/><path d="M97.47,1.6a22,22,0,0,1,5.79.73A12.55,12.55,0,0,1,108,4.67a10.94,10.94,0,0,1,3.14,4.25,16.32,16.32,0,0,1,1.15,6.49A16,16,0,0,1,111,22a11.63,11.63,0,0,1-3.3,4.34,13.57,13.57,0,0,1-4.8,2.41,21.16,21.16,0,0,1-5.65.76H92.73V46.47H83.62V1.6H97.47M92.73,20.93h3.84A11.5,11.5,0,0,0,99,20.67a5.78,5.78,0,0,0,2.1-.88,4.52,4.52,0,0,0,1.47-1.68,5.86,5.86,0,0,0,.53-2.63,5.61,5.61,0,0,0-.53-2.6,4.11,4.11,0,0,0-1.44-1.59,5.55,5.55,0,0,0-2.05-.76,15.36,15.36,0,0,0-2.37-.19h-4V20.93M97.47.27H83.62A1.32,1.32,0,0,0,82.29,1.6V46.47a1.33,1.33,0,0,0,1.33,1.33h9.11a1.34,1.34,0,0,0,1.33-1.33V30.88h3.2a22.24,22.24,0,0,0,6-.82,14.89,14.89,0,0,0,5.26-2.64,13,13,0,0,0,3.69-4.83,17.4,17.4,0,0,0,1.34-7.18,17.7,17.7,0,0,0-1.25-7,12.39,12.39,0,0,0-3.53-4.75A14.05,14.05,0,0,0,103.6,1,23.66,23.66,0,0,0,97.47.27Zm-3.41,11.4h2.67a13.67,13.67,0,0,1,2.15.17,4,4,0,0,1,1.56.58,2.71,2.71,0,0,1,1,1.08,4.33,4.33,0,0,1,.38,2,4.64,4.64,0,0,1-.39,2,3.11,3.11,0,0,1-1,1.18,4.72,4.72,0,0,1-1.64.69,10.24,10.24,0,0,1-2.17.22H94.06V11.67Z" fill="#fff"/><path d="M129.77,47.13a.65.65,0,0,1-.66-.66v-35h-10a.66.66,0,0,1-.66-.66V1.6a.67.67,0,0,1,.66-.67h30.43a.67.67,0,0,1,.67.67v9.25a.66.66,0,0,1-.67.66h-10v35a.66.66,0,0,1-.67.66Z" fill="#fff"/><path d="M149.54,1.6v9.25H138.88V46.47h-9.11V10.85H119.11V1.6h30.43m0-1.33H119.11a1.33,1.33,0,0,0-1.33,1.33v9.25a1.34,1.34,0,0,0,1.33,1.33h9.33V46.47a1.34,1.34,0,0,0,1.33,1.33h9.11a1.33,1.33,0,0,0,1.33-1.33V12.18h9.33a1.33,1.33,0,0,0,1.33-1.33V1.6A1.32,1.32,0,0,0,149.54.27Z" fill="#fff"/><path d="M181.42,47.13a.66.66,0,0,1-.63-.45L178,38.32H164.37l-2.63,8.35a.65.65,0,0,1-.63.46H151.2a.66.66,0,0,1-.63-.88L166.4,1.38A.66.66,0,0,1,167,.93h8.84a.67.67,0,0,1,.63.45l15.67,44.87a.66.66,0,0,1-.09.61.65.65,0,0,1-.54.27Zm-6.34-18.82-3.8-12.48-3.89,12.48Z" fill="#fff"/><path d="M175.87,1.6l15.67,44.87H181.42l-2.94-8.81h-14.6l-2.77,8.81H151.2L167,1.6h8.85M166.49,29H176l-4.69-15.4L166.49,29M175.87.27H167a1.33,1.33,0,0,0-1.25.88L149.94,46a1.33,1.33,0,0,0,1.26,1.77h9.91a1.34,1.34,0,0,0,1.27-.93L164.85,39h12.68l2.63,7.9a1.32,1.32,0,0,0,1.26.91h10.12A1.33,1.33,0,0,0,192.79,46L177.12,1.16a1.32,1.32,0,0,0-1.25-.89Zm-7.58,27.38,3-9.57,2.92,9.57Z" fill="#fff"/><path d="M220.21,47.13a.67.67,0,0,1-.6-.38l-8-17.43h-2V46.47a.66.66,0,0,1-.66.66H200a.66.66,0,0,1-.67-.66V1.6A.67.67,0,0,1,200,.93h14.39a21.73,21.73,0,0,1,5.46.69A13.28,13.28,0,0,1,224.75,4a11.82,11.82,0,0,1,3.47,4.42,15.81,15.81,0,0,1,1.29,6.75,14.15,14.15,0,0,1-2.19,8,12,12,0,0,1-5.38,4.42l9.52,18.55a.66.66,0,0,1,0,.65.67.67,0,0,1-.57.31Zm-7-27a11.74,11.74,0,0,0,2.18-.21,6.1,6.1,0,0,0,1.93-.71,3.8,3.8,0,0,0,1.34-1.41,5,5,0,0,0,.53-2.46,4.49,4.49,0,0,0-.48-2.24,3.48,3.48,0,0,0-1.21-1.28,4.9,4.9,0,0,0-1.75-.64,11.7,11.7,0,0,0-2-.18h-4.21v9.13Z" fill="#fff"/><path d="M214.41,1.6a21.38,21.38,0,0,1,5.3.66,12.93,12.93,0,0,1,4.64,2.25,11.25,11.25,0,0,1,3.27,4.18,15.12,15.12,0,0,1,1.23,6.47,13.46,13.46,0,0,1-2.08,7.67A11.4,11.4,0,0,1,221,27.27l9.86,19.2H220.21L212,28.66h-3.1V46.47H200V1.6h14.39m-5.55,19.2h4.34a12.17,12.17,0,0,0,2.3-.22,6.67,6.67,0,0,0,2.15-.79,4.48,4.48,0,0,0,1.58-1.65,5.6,5.6,0,0,0,.61-2.79,5.21,5.21,0,0,0-.56-2.57,4.24,4.24,0,0,0-1.45-1.52,5.67,5.67,0,0,0-2-.73,13.12,13.12,0,0,0-2.11-.19h-4.88V20.8M214.41.27H200a1.32,1.32,0,0,0-1.33,1.33V46.47A1.33,1.33,0,0,0,200,47.8h8.9a1.33,1.33,0,0,0,1.32-1.33V30h.93L219,47a1.33,1.33,0,0,0,1.2.77h10.66a1.32,1.32,0,0,0,1.14-.64,1.29,1.29,0,0,0,0-1.29l-9.2-17.94a12.54,12.54,0,0,0,5-4.36,14.84,14.84,0,0,0,2.31-8.41,16.44,16.44,0,0,0-1.36-7,12.49,12.49,0,0,0-3.66-4.67A14,14,0,0,0,220,1a22.56,22.56,0,0,0-5.63-.71Zm-4.22,11.4h3.55a11.32,11.32,0,0,1,1.88.17,4.13,4.13,0,0,1,1.52.56,2.84,2.84,0,0,1,1,1,4,4,0,0,1,.39,1.91,4.24,4.24,0,0,1-.45,2.13,3,3,0,0,1-1.1,1.17,5.3,5.3,0,0,1-1.71.63,11.28,11.28,0,0,1-2.06.19h-3v-7.8Z" fill="#fff"/><path d="M246.28,47.77a5.29,5.29,0,0,1-2.29-.51,5.69,5.69,0,0,1-1.85-1.44,7.4,7.4,0,0,1-1.22-2.08,6.86,6.86,0,0,1-.48-2.59,7.5,7.5,0,0,1,.44-2.54,7.21,7.21,0,0,1,1.21-2.14A5.78,5.78,0,0,1,244,35a5.17,5.17,0,0,1,4.64,0,6.15,6.15,0,0,1,3.12,3.54,7.24,7.24,0,0,1,.44,2.53,7.49,7.49,0,0,1-.44,2.61,6.14,6.14,0,0,1-1.25,2.12,6.32,6.32,0,0,1-1.87,1.41A5.08,5.08,0,0,1,246.28,47.77ZM241.8,32.11a.65.65,0,0,1-.66-.66V1.6a.66.66,0,0,1,.66-.67h8.9a.66.66,0,0,1,.66.67V31.45a.65.65,0,0,1-.66.66Z" fill="#fff"/><path d="M250.7,1.6V31.45h-8.9V1.6h8.9m-4.42,33.53a4.44,4.44,0,0,1,2,.47,5.55,5.55,0,0,1,2.8,3.17,6.68,6.68,0,0,1,.4,2.31,6.87,6.87,0,0,1-.4,2.38,5.55,5.55,0,0,1-2.8,3.17,4.45,4.45,0,0,1-2,.48,4.54,4.54,0,0,1-2-.45,4.75,4.75,0,0,1-1.63-1.27,7,7,0,0,1-1.12-1.9,6.4,6.4,0,0,1-.42-2.34,6.74,6.74,0,0,1,.4-2.32,6.28,6.28,0,0,1,1.09-1.93,5.09,5.09,0,0,1,1.65-1.3,4.48,4.48,0,0,1,2-.47M250.7.27h-8.9a1.33,1.33,0,0,0-1.33,1.33V31.45a1.34,1.34,0,0,0,1.33,1.33h8.9A1.34,1.34,0,0,0,252,31.45V1.6A1.33,1.33,0,0,0,250.7.27ZM246.28,33.8a5.93,5.93,0,0,0-2.62.61,6.49,6.49,0,0,0-2.08,1.64,7.59,7.59,0,0,0-1.32,2.33,8.11,8.11,0,0,0-.48,2.77A7.74,7.74,0,0,0,240.3,44a7.91,7.91,0,0,0,1.34,2.27,6.21,6.21,0,0,0,2.07,1.61,5.92,5.92,0,0,0,2.57.57,5.78,5.78,0,0,0,2.61-.61A6.8,6.8,0,0,0,251,46.25a6.93,6.93,0,0,0,1.39-2.34,8.25,8.25,0,0,0,.48-2.83,8.05,8.05,0,0,0-.48-2.76,6.94,6.94,0,0,0-3.46-3.91,5.92,5.92,0,0,0-2.61-.61Z" fill="#fff"/></svg>