<?xml version="1.0" encoding="UTF-8"?><svg id="b" xmlns="http://www.w3.org/2000/svg" viewBox="0 0 160 202"><g id="c"><path d="M60.76,186.32c-.95-.02-2.37.12-3.28.42-.84.28-1.75,2.76-3.3,1.41-.85-.74-1.52-2.86-1.97-3.06-.42-.19-2.02-.16-2.47-.01-1.04.34-.67,2.07-.77,2.93-.27.41-3.2.49-3.76.7-1.31.49-3.03,4.6-3.32,4.63-1.27-1.06-2.93-1.8-4.53-.91-.52.29-2.12,2.46-2.58,2.06-1.1-3.19-1.33-6.64-2.17-9.88-.72-2.77-2.44-5.53-3.1-8.29-.71-2.99-1.26-5.32-2.12-8.32-1.72-5.99-1.09-11.16-2.38-17.17-.4-1.85-1.63-4.82-1.55-6.51s1.56-1.01,2.72-1.6c.75-.39,1.24-1.43,2.23-1.56l.78,2.26c1.67,10.21,2.53,20.59,4.5,30.79.74,3.81,1.14,6.97,1.46,10.87.1,1.22-.5,3.15.86,3.65.53-.72.84-.27,1.51-.32,3.05-.2,6.76-4.65,9.69-4.77,1.26-.05,1.73.84,1.6-1.22-.28-4.38-5.28-7.97-6.45-11.57-.93-2.84-.66-6.49-2.39-9-.37-.54-1.06-.95-1.4-1.44-1.64-2.37-.52-6.59-1.62-8.24-.96-1.43-1.49-1.36-1.61-3.52-.1-1.98.97-9.02,1.62-10.92.5-1.44,1.41-2.38,2.69-3.19.89-.56,4.23-2.24,5.13-2.45,2.36-.54,2.96,1.88,4.25,3.43.32.38.91.57,1.06,1.02.74,2.2.97,4.59,1.74,6.79.97,2.77,3.29,5.1,3.04,8.15-.07.91-.5,1.65-.33,2.61.45,2.57,3.8,6.24,3.77,8.58-.01,1.05-.45,2.02-.39,3.22.11,2.22,1.61,4.12,1.27,6.4-.08.58-.44,1.1-.51,1.58-.34,2.32.97,3.47.95,5.3,0,.81-.67,1.6-.58,2.45.07.75.81,1,1.09,1.58.2.43.89,2.81.62,3.08ZM47.43,147.09c-1.32-.26-2.73-.27-3.53,1.03-1.24,2.01-.07,4.92.3,7.05,1.21,6.94,3.69,15.19,7.04,21.42.78,1.45.89,1.24,2.19,1.99.77.44,1.34,1.61,1.78-.18.81-3.28-.63-7.6-1.23-10.81-.27-1.48-.16-2.94-.52-4.42-.39-1.63-1.48-3.18-1.94-4.7-.33-1.07-.09-1.96-.33-2.89-.26-1-1.51-3.81-2.03-4.81-.35-.67-1.17-1.44-1.35-1.88-.25-.59-.02-1.25-.38-1.81Z" fill="#fff"/><path d="M78.57,154.29h-.8s-.29.28-.29.28c-.44,2.22.42,3.89.87,5.91.74,3.32,2.48,8.89,2.13,12.08-.24,2.18-.79,4.39-.94,6.65-.02.28.14.55-.28.47-1.03-.88-1.75-2.06-2.66-3.04-1.6-1.72-3.44-3.14-4.73-5.14-1.09-1.69-2.14-3.43-3.23-5.12-1.84-2.85-2.04-5.32-3.42-8.15-1.27-2.6-3.53-4.68-4.74-7.21-1.5-3.13-2.16-7.01-3.39-10.28-.82-2.18-3.02-5.3-3.45-7.17-.64-2.78,2.2-1.15,3.37-1.36.57-.11,2.11-1.43,2.6-1.09l2.92,9.13c2.65,3.88,3.73,8.17,5.35,12.48.76,2.02,2.16,3.83,3.03,5.89,1.29,3.09,2.08,6.54,3.48,9.61.3.65,1.98,3.87,2.44,4.01.31.09.68.03,1.01.03-.17-.32.04-.66-.04-.99-.13-.52-.66-.64-.78-1.12-.66-2.53-1.07-5.2-1.73-7.76-.58-2.25-1.51-4.48-1.95-6.78-.3-1.6-.27-3.42-.67-5.03-.64-2.62-2.42-5.38-3.28-7.92-.55-1.62-.54-3.23-.93-4.76-.63-2.51-3.42-7.03-3.15-9.38s1.96-1,3.13-1.23c.44-.09.61-.57.95-.57.73,0,.59.94.76,1.34.88,2.06,1.27,4.04,2.05,6.1,1.25,3.28,3.39,5.75,4.72,8.75,1.41,3.19,2.22,6.89,3.81,10.04s3.62,6.99,5.38,10.18c.75,1.37,1.91,3.93,3.75,3.46.46-.34-.24-3-.41-3.58-.9-3.2-2.74-6.47-3.85-9.62-.75-2.14-1.02-4.43-1.8-6.55-1.12-3.05-3.81-6.03-4.59-9.07-.34-1.34-.31-2.85-.72-4.21-.63-2.07-2.78-4.89-3.09-6.79-.13-.8.6-2.1,1.3-2.41s2.46-.05,3.37-.43l1.47-1.75c.54.51.98.88,1.24,1.6,1.07,2.95,1.43,7.24,2.32,10.39s2.92,5.65,3.36,9.16c.52,4.14.68,7.15,1.8,11.29,1.01,3.7,3.56,9.51,3.14,13.19-.15,1.26-.89,3.09-.94,4.39-.02.65.25,1.58.32,2.26l-.43.28c-.53-.01-3.1-3.19-3.59-3.82-2.43-3.08-4.1-6.45-6.33-9.61-.74-1.05-3.08-3.52-3.26-4.52-.16-.9-.02-1.6-.6-2.52Z" fill="#fff"/><path d="M13.58,145.6c1.38-1.16,2.28.22,3.53.6.43.13,1.07,0,1.34.18.1.07,1.05,1.84,1.14,2.08.9,2.26,2.4,6.29,2.78,8.6.26,1.55-.02,8.7-.7,9.82-.49.81-1.36.9-1.51,2.29-.21,1.96,1.06,1.61,2.25,2.46,2.2,1.57,1.29,2.15,1.96,4.11.9,2.62,1.67,3.63,1.85,6.69.08,1.42.2,4.37,0,5.68-.15.98-.94.98-1.4,1.63-1.05,1.49,0,3.14-.39,4.74-.26.53-1.13.28-1.69.59-1.76.98,0,5.73-2.57,6.35-1.02.25-2.33.19-3.38.61-.6-.02-1.1-2.36-1.34-2.94-1.56-3.78-2.01-6.55-3.06-10.41-1.14-4.21-1.26-5.89-1.52-10.24-.21-3.53-1.22-4.79-2.08-7.78s-.22-6.68-.81-9.62c-.38-1.9-2.85-3.73-3.18-6.88-.13-1.25.23-4.37,1.22-5.23.3-.26.86-.26,1.23-.48.52-.31.91-1.09,1.48-1.37,1.35-.66,2.96.31,4.33-.8.26-.21.36-.55.54-.7ZM15.93,154.86c-.52.1-1.49.98-1.82,1.43-1.8,2.43-.63,5.3-.41,7.94.12,1.49-.13,5.64.75,6.65s1.16-.34,1.53-.77c.93-1.09,2.31-2.27,2.47-3.79.18-1.73-.37-7.32-.8-9.06-.11-.44-.34-.68-.47-1.05-.22-.62.08-1.58-1.24-1.34ZM18.7,197.19c.69-1.02,1.17-2.34,1.75-3.08.91-1.18,1.69-.64,1.61-2.77-.07-1.75.29-3.11.18-4.73-.1-1.45-1.41-7.18-2.47-7.97-.45-.33-1.07-.29-1.52-.76-.81-.86-.45-2.34-1.58-2.74-.28.05-2.1,2.11-2.25,2.5-.71,1.88.83,6,.99,8.2.27,3.77-.55,7.66.63,11.32.24.74.65,2.07,1.55,2.08,1.11,0,.65-1.39,1.1-2.05Z" fill="#fff"/><path d="M38.94,68.88c-.56.06-1.01-.39-1.57-.34-.83.08-1.58,1.05-2.67.76-2.07,1.55-2.86,1.26-2.16,4.18.45,1.88.75,3.21,1.13,5.13.26,1.34,1.37,3.07,2.66,3.6,2.25.93,2.75-2.51,4.18-2.29,1,.15,1.91,3,1.85,3.86-.02.31-1.13.88-1.48,1s-.78-.03-1.19.14c-.34.15-.52.78-1.06.86-.82.12-1.6-1-2.45,0-1.2,1.42.17,3.26.57,4.73.89,3.3.93,6.81,1.79,10.12.45.56.96-.06,1.24-.06.3,0,.46.41.9.35,1.11-.14,2.92-1.76,3.96-2.33,3.33-1.82,4.07-1.17,4.51,2.61-.18.54-1.76.26-2.34.33-2.15.26-2.04,2.73-2.9,2.99-.82.24-1.59-.77-2.8-.54-.18.04-1.27.77-1.47.94-.26.21-.59,1.17-1,.57-1.02-3.7-2.53-7.23-3.76-10.85-.5-1.47-.77-3.1-1.27-4.61-1.65-4.96-4.32-9.47-4.38-14.97l-1.31-4.66c-.04.29-.2.56-.2.86,0,.43.46,1.55.2,1.71-.5.3-1.01-.18-1.47-.24-.77-.1-2.32.17-3.04.48-.16.07-2.24,1.36-2.34,1.46-.27.28-.55,1.14-.57,1.54-.07,1.37,1.22,6.71,1.77,8.1.32.8,2.05,2.46,2.89,2.44,1.27-.04,2.81-2.78,3.95-2.46.71.2.97,2.66,1.24,3.34l-.15.33c-1.6.28-2.39,1.03-3.04,2.48-.95-.09-2.1-1.44-2.94-.48-1.37,1.57.62,6.43.82,8.46s.12,3.66.65,5.8c.11.46.43,1.91.83,2.03.11.03,2.01-.47,2.22-.57,1-.51,2.46-2.12,3.71-2.74,1.06-.52,2.66-1.16,3.11.33.16.54.57,3-.15,3.12-1.43.23-2.44-1.2-3.87.96-.44.66-.65,2.66-1.42,2.49-.67-.57-1.36-1.06-2.3-.91l-2.09,1.71c-.66-.56-.52-1.44-.72-2.13-2.07-7.35-4.97-14.51-6.92-21.92-.81-3.08-.61-5.51-1.02-8.47-.14-1.02-.84-2.58-1.07-3.67-.18-.83-.9-4.47-.73-4.98.24-.75,1.1-.71,1.61-1.05,1.73-1.14,6.03-2.98,8.08-3.11.35-.02.72.27,1.1.17s.41-.61.64-.75c.69-.42,2.22-.26,2.96-1.55,1.67-.05,5.52-2.5,6.88-1.68.72.43,2.69,7.06,2.36,7.41Z" fill="#fff"/><path d="M143.66,155.4c-.45.51-3.22-3.29-3.51-3.61-2.45-2.67-4.8-4.48-6.74-7.68-2.1-3.45-4.25-6.98-6.22-10.47-.97-1.71-2.11-2.02-3.54-3.1-.57-.43-1.61-1.62-2.11-1.87-.78-.4-1.52.05-2.08-.58-.61-1.61-2.66-3.48-3.16-5-.26-.79-.1-1.48-.52-2.32-1.25-2.53-5.1-4.89-6.71-7.52-.11-.19-.59-.87-.31-1.02.71-.38,1.7.18,2.33.07.96-.17,1.26-1.21,3.04-.87,2.35.45,4.64,5.15,6.22,7.06.31.38,1.99,2.43,2.34,2.37.72-.37.36-1.02.17-1.66-.84-2.77-4.88-8.41-3.61-11.09.48-1,1.6-.6,2.47-.76,1.66-.3,1.31-1.17,2.13-2.05.17-.18.36-.52.58-.19,1.81,3.73,1.78,8.09,3.53,11.84.69,1.48,1.76,2.75,2.2,4.44.58,2.22.34,5.09,1.31,7.04.33.66,1.13,1.48,1.44,2.17s.36,1.55.63,2.22c2.79,6.83,6.8,13.16,9.35,20.06.33.88,1.08,1.41.79,2.53Z" fill="#fff"/><path d="M99.21,116c.61.53,2.2,2.79,2.61,3.56.33.61,2.09,5.02,1.82,5.29-.77,0-1.36-.65-2.16-.57s-1.19,1.08-1.81,1.25c-.47.13-1.41-.29-2.15-.07-.53.16-.72.9-1.03,1.11-.71.48-2.24.39-2.48,1.46-.35,1.56,1.88,5.29,2.52,6.89.42,1.06,1.37,5.67,2.65,5.69.29,0,.56-.3.81-.34,1.02-.13,1.77-.02,2.81-.41,1.57-.58,3.81-3,5.31-1.91.68.49,2.01,3.65,2.28,4.55.07.24.15.49.07.75-1.25.59-2.51-.22-3.78.11l-1.23,1.56c-.4-.15-.72-.44-1.15-.51-.32-.05-2.62-.22-2.8-.17-.45.14-.68.78-.71,1.2-.13,1.5,1.98,5.79,2.62,7.44.47,1.22.76,2.93,1.32,3.99.26.49,1.28,1.33,1.48,1.94.29.86.4,2.18.67,3.13.35,1.25,1.63,4.52,1.28,5.66-.07.23-.28.36-.44.51-2.19-2.31-2.92-5.46-4.5-8.21-1.66-2.9-3.95-5.32-5.21-8.45-.47-1.18-.71-2.49-1.25-3.68-1.96-4.31-5.28-7-6.68-11.72-.57-1.92-.84-3.95-1.53-5.87-.74-2.05-3.43-6.11-3.68-7.7-.1-.65-.07-1.69.57-2.07.79-.46,1.5.05,2.28-.19.66-.21.72-.9,1.14-1.14.57-.33,1.81-.33,2.46-.57,1.74-.65,3.79-2.31,5.65-2.89,1-.31,1.43-.32,2.25.39Z" fill="#fff"/><path d="M75.53,56.9c-.97.55-1.61-.77-2.64-.26-.51.25-.96,1.83-1.61,2.19-.19.42-.13.94-.05,1.38.08.49,2.13,5.06,2.45,5.51.52.73,1.5,1.05,1.91,1.89.87,1.78,2.17,4.41,2.9,6.21.32.8.35,1.68.77,2.45.48.87,1.49,1.44,2.08,2.09.86.93,1.96,3.03,3.39,2.85,2.45-.31.19-4.34-.21-5.45-.2-.54-.03-1.24-.43-1.85-.61-.94-3.08.03-3.71.86-.46,0-2.08-3.83-2.17-4.47-.05-.36-.13-1.28.29-1.4.77,0,1.09.73,1.88.76,1.32.06,2.32-2.02,4.2-.33,1.16,1.04,3.03,6.19,3.95,7.91s2.11,3.25,3.06,4.93v.37c-.89.62-.67,1.96-1.05,2.59-.33.54-1.77.69-2.41,1.29-.42.38-1.01,1.95-1.3,1.98-1.81-.59-2.61-2.43-4.1-3.45-.77-.53-1.78-.76-2.36-1.25-.78-.65-1.56-1.35-2.36-2.01-1.52-1.26-2.31-3.9-3.5-5.61-.87-1.25-2.02-2.18-2.74-3.52-1.08-2.01-1.62-4.5-2.62-6.49-.56-1.12-1.92-2.37-2.26-3.43s-.42-2.63-.75-3.8c-.46-1.61-1.63-3.3-1.38-4.98.08-.55.43-1.16.5-1.77.09-.73-.08-1.51.06-2.21.34-1.69,1.69-1.13,2.99-1.57,1.2-.41,1.28-1.56,3.13-1.21,1.55.29,1.1,1.82,1.29,2.89.11.6.63,2.26.84,2.95.27.9,2.47,3.15,1.94,3.99Z" fill="#fff"/><path d="M41.12,60.34c.09.03.7.68.94.76.55,2.66,1.84,4.83,3.08,7.16.34.64.42,1.45.92,2.12.61.83,1.95,1.54,2.81,2.13.36.25.26.76,1.06.54.37-.36-3-7.81-3.44-8.79-.52-1.17-3.01-5.23-2.02-6.35.89-.56,1.5.47,2.33.35s1.41-2,2.84,0c1.21,1.7.73,4.36,1.15,6.25.63,2.86,3.48,7.57,4.55,10.63,1.63,4.65,2.5,9.77,5.47,13.88l2.22,8.97-.38.49c-.93-2.04-2.12-4.51-3.52-6.25-.83-1.03-2.17-1.96-2.92-3-.63-.87-1.01-2.08-1.56-2.95-1.7-2.72-3.65-5.05-5.31-7.97-.33-.58-1.11-3.29-1.96-2.41-.95.99.8,4.37,1.15,5.5,1.28,4.13,2.12,8.44,3.32,12.61.38,1.31,1.15,2.78,1.46,4.04.09.36.23.96-.34.81.15-.63-.3-.85-.52-1.28-2.6-5.02-4.43-9.49-6.6-14.65-.85-2.03-2.45-4.47-3.07-6.42-.5-1.56-.61-3.51-1.1-5.16-.91-3.06-2.84-6.28-3.68-9.22-.19-.67-.28-1.11-.01-1.79.84.15,2.41-.21,3.13,0Z" fill="#fff"/><path d="M139.49,154.26c-.76-.24-1.33.09-2.01.17-1.08.12-1.78-.28-2.66.66-.75.79-.98,2.5-1.42,3.51-.97.31-1.7-.42-2.55-.53-2.43-.32-3.06,1.75-5.08,2.42-.58-.11-2.51-4.17-3-4.96-1.57-2.55-3.63-5.04-5.12-7.59s-2.33-5.41-3.87-7.89-3.84-4.52-5.3-7.22c-1.65-3.05-2.31-6.58-3.75-9.72-.86-1.88-3.21-5.08-3.65-6.78-.15-.59-.24-1.45.18-1.92.49-.4,1.47.22,2.26-.02.86-.26.73-1.93,2.42-1.39.99.32,1.51,3.21,1.98,4.28,1.06,2.38,2.21,4.76,3.28,7.15.95,2.13,2.55,4.01,3.48,6.19.77,1.81,1.1,3.72,1.83,5.57,1.61,4.1,4.31,7.76,5.81,11.83.54,1.47,1.43,5.88,2.46,6.65l.39.18c.9-.31,1.84-.08,2.75-.28,1.05-.23,3.08-1.39,4.15-1.92,1.42-.71,3.74-2.65,5.29-2.01.67.27,2.5,3.31,2.13,3.65Z" fill="#fff"/><path d="M60.73,53.53c.74,2.86.81,5.54,2.41,8.12.37.6.93.98,1.22,1.44,2.21,3.39,3.07,7.03,4.65,10.72,2.37,5.5,5.51,10.77,6.28,16.89.04.34.15.51-.21.76-1.16-2.3-2.2-4.71-3.48-6.96-.93-1.63-2.29-3.27-3.14-4.83-.77-1.41-.24-2.75-2.45-1.65-1.04.52-1.66,1.37-1.85,2.53.78,3.93,2.28,7.64,3.31,11.5.05.18.33.56-.07.55l-5.2-8.37c-1.15-2.39-1.79-5.03-3.08-7.36-.68-1.22-1.89-2.5-2.44-3.82-.33-.78-.35-1.75-.6-2.43-1.43-3.93-3.21-8.11-4.43-12.07-.22-.72-.48-1.49-.35-2.26.22-.63,1.86-.41,2.43-.6.67-.22,1.38-1.43,1.85-1.57.52-.15,1.24.02,1.83-.06,1.15-.17,2.17-.69,3.32-.52ZM57.39,60.2c-1.51,1.57,1.21,5.83,1.8,7.5.5,1.42,1.65,7.18,2.61,7.83,1.12.77.95-1.07,1.34-1.53.37-.43,1.44-.41,1.71-.95.53-1.09-2.06-4.37-2.66-5.5-.74-1.38-1.28-3.5-2.02-4.62-.35-.53-1.01-.81-1.19-1.09-.32-.49-.14-1.55-.99-1.85-.15-.03-.48.09-.59.2Z" fill="#fff"/><path d="M88.83,50.66c-.91-.22-1.51.29-2.26.49-1.74.45-1.11.29-2.44,1.03-.29.16-.73.09-1.09.38-1.66,1.32.6,5.32,1.36,6.81.59,1.16,2.26,4.32,3.23,4.93,1.79,1.11,1.42-.25,1.8-.5.2-.13,1.36-.12,1.93-.44.72-.4,1.74-2.3,2.59-1.78.22.29.43.6.6.92.25.46,1.26,2.66,1.03,2.99-.21.29-1.16.08-1.7.39-.6.34-.58,1.15-1.18,1.46-1.05-.5-3.25-1.5-3.27.51,0,1.22,2.13,4.37,2.79,5.72.89,1.83,1.85,4.91,2.94,6.46.08.12.99.99,1.12,1.06.48.23,1.99.48,2.2-.17.09-.29-.03-.65.13-1.01.29-.66,3.21-2.75,3.97-2.86,1.44-.2,2.16.07,3.03,1.16,2.32,2.92-.5,1.62-1.89,2.44-1.02.6-1.21,2.67-1.79,2.95-.64.33-1.17-.22-1.8-.29-1.5-.17-2.57.89-3.23,2.09-.33.08-1.74-2.29-1.99-2.75-1.58-2.82-2.74-4.22-4.44-6.76-.65-.98-1.17-2.39-1.85-3.46-2.04-3.17-4.45-6.39-6.26-9.68-1.08-1.96-1.75-4.05-2.74-5.99-1.44-2.81-3.17-5.5-4.53-8.36-.04-.92.98-.84,1.49-1.18,1.88-1.27,1.29-.84,3.39-1.55.83-.28,4.17-1.87,4.72-1.75.43.09.93.88,1.19,1.26.32.47,3.2,5.27,2.97,5.47Z" fill="#fff"/><path d="M28.69,40.42c-1.13-1.31-2.05-2.82-3.15-4.15-.31-.38-.86-.54-1.18-1.09-.38-.64-1.84-5.56-2.21-5.57-.28.24-.43.68-.44,1.04-.09,2.96,1.55,6.32,1.11,9.69-.07.56-.64,1.79-1.31,1.38-1.47-2.66-3.15-4.94-4.21-7.84-.54-1.47-.82-3.03-1.39-4.49-.54-1.38-1.45-2.75-1.92-4.15s-.57-2.95-.95-4.36c-.3-1.1-1.86-4.61-1.7-5.34.13-.64,1.35-1.02,1.86-.89.95.23,2,5.67,2.35,6.76.54,1.68,1.4,3.26,1.86,4.97.64,2.37.98,4.85,1.73,7.18.24.74,2.02,5.49,2.43,5.52.63-.27.76-.51.66-1.2-.3-2.15-1.74-4.6-2.08-7.04s-.48-4.64-1-6.97c-.59-2.65-2.08-6.26-2.4-8.8-.07-.6-.14-1.54.25-1.99.31-.36,1.52-.71,1.83-.28.21.3,1.08,4.22,1.27,5,1.41,5.58,3.85,14.38,7.03,19.15.23.34.37.71.88.63,1.09-.33-.82-3.69-.95-4.35-1.12-5.37-2.98-10.28-4.35-15.57-.35-1.35-1.47-3.33-1.23-4.63.16-.84,1.28-1.38,1.99-1.81.21-.13.11-.31.37,0,1,1.2,1.27,4.71,1.67,6.3.92,3.73,1.47,6.28,2.06,10.08.67,4.27,2.03,8.5,1.11,12.83Z" fill="#fff"/><path d="M15.79,114.79l-.82-1.74c-2.18-5.94-2.21-12.58-3.83-18.56-.65-2.42-1.77-4.86-2.32-7.36-.59-2.71-.71-5.66-.85-8.44-1.63-1.85-3.04,1.94-4.7,2.33-.29-.21-.69-6.35-.53-7.07.31-1.36,2.45-1.37,3.61-1.89,1.76-.79,1.87-1.11,3.95-1.74.89-.27,3.02-1.44,3.66-1.22l.28.29c.1,1.31-.05,2.64.03,3.95.06,1,.89,2.27-.2,3.04-.57.4-1.3.16-1.79.68-.68.72-.76,1.79-.67,2.74.26,2.79,1.33,5.82,1.7,8.54.19,1.38.24,3.1.38,4.55.62,6.46,1.7,12.9,1.88,19.35.02.84.35,1.68.21,2.56Z" fill="#fff"/><path d="M147.91,130.66c.76.98,1.83,1.85,2.43,2.98.28.53,1.79,4.52,1.85,4.98.02.15.01.31,0,.46-.27.02-.5.02-.75-.1-.3-.14-2.46-1.97-2.66-2.27-.67-1-.92-2.95-1.61-3.89-.66-.88-2.35-1.64-3.22-2.66-.81-.94-1.27-2.24-1.99-3.13-.63-.78-1.45-.93-2.09-1.71-1.18-1.45-2.31-2.98-3.51-4.46-2.57-3.15-3.4-6.1-5.44-9.36-1.04-1.66-2.54-3.26-3.61-4.93-.67-1.78,1.31-1.59,2.2-2.06.5-.26,1.31-1.49,1.92-1.5,2.6,1.9,3.35,5.55,5.06,8.22,1.5,2.36,3.34,4.1,4.62,6.77.77,1.61,1.08,3.16,1.71,4.75,1.21,3.07,3.11,5.33,5.1,7.9Z" fill="#fff"/><path d="M41.97,35.48c-.38-.12-.57-.31-.8-.62-.77-1.08-2.42-4.73-3.13-6.17-.28-.56-1.35-3.55-1.51-3.66-.81-.55-2.43,1.04-2.52,1.84-.2,1.64,1.36,4.57,1.13,6.34-.5.1-.33-.13-.47-.37-.55-.94-1.48-2.66-1.88-3.63-1.74-4.25-3.25-8.97-4.66-13.36-.46-1.42-1.85-4.2-1.73-5.5.11-1.16,1.16-.83,1.8-1.25.29-.18.37-.62.73-.79.86-.42,1.3.22,1.92.19,1.13-.05,1.71-1.33,2.73.39.88,1.49.87,3.85,1.33,5.5,1.07,3.9,3.17,8.23,4.36,12.15.41,1.36.56,2.77,1,4.12.52,1.59,1.71,3.16,1.71,4.84ZM34.15,23.3c.33-.23.29-2.56.19-3.05-.13-.66-.73-1.08-1-1.65-.74-1.56-.99-3.71-1.7-5.32-.36-.48-1.08.11-1.2.52-.44,1.51.64,3.18,1.01,4.6.27,1.01.71,4.11,1.31,4.76.29.31,1.08.35,1.39.14Z" fill="#fff"/><path d="M68.34,23.34l-1.22-1.15-4.4-6.4c-1.28.36-2.56.71-2.34,2.32.19,1.35,2.36,4.9,2.98,6.51.09.23.19.46.24.71l-.38.1c-2.27-3.04-4.1-6.33-6.11-9.54-.78-1.25-1.96-2.5-2.66-3.79-.92-1.71-1.11-3.5-1.83-5.19-.5-1.18-2.45-3.65-2.47-4.71-.02-.81.96-.89,1.55-1.26.43-.26.69-.83,1.18-.92.6-.11,1.12.2,1.69.2.63,0,1.63-.57,2.2.08.4.45.64,2.27.88,2.92.83,2.26,2.82,3.93,4.01,6.05.67,1.19.92,2.33,1.48,3.45,1.77,3.53,4.58,6.63,5.2,10.64ZM55.95,3.67c-1.05-.77-1.59.61-1.42,1.5s2.65,6.45,3.22,7.41c.46.78,1.92,2.27,2.07.61.14-1.55-.49-1.72-.92-2.7-.62-1.4-1.94-6.08-2.95-6.82Z" fill="#fff"/><path d="M46.58,29.35c.39.32.83.25,1.25.03.08-1.15-.11-2.54-.65-3.56-.16-.3-.56-.49-.69-.82-.26-.63-.14-1.11-.56-1.91-.13-.25-2.63-3.14-2.81-3.26-.97-.68-3.98-1.12-4.66-1.79-1.56-3.35-3.59-6.78-3.02-10.64.26-.55,1.03-.43,1.36-.63.2-.12.54-.73.96-.84.47-.13,1.01.06,1.44-.07.32-.09.76-1.15,1.56-1.08.82.99.33,2.43.51,3.63.11.69,1,2.21.9,2.7-.12.61-.97-.45-1.44-.47-1.18-.07-.91,1.86-.69,2.61.34,1.17,3.83,4.16,4.88,5.36.41.47.62,1.12,1.04,1.61,1.16,1.36,4.32,4.25,4.7,5.93.25,1.08-.17,2.15-.16,3.19,0,.58.48,1.94.02,2.28-1.33-.05-1.67,1.52-2.85,1.52-.45-.22-2.73-4.45-2.81-4.98-.03-.23.04-.62.25-.62.17,0,1.22,1.62,1.48,1.83Z" fill="#fff"/><path d="M4.6,45.73c-.59-.29-.28-1.29-.39-1.79-1.13-5.61-3-11.18-3.59-16.9-.08-.79.07-1.66,0-2.46-.11-1.29-1.03-4.2-.39-5.28.28-.48,2.95-1.71,3.19-.39.12.64-.47,2.9-.52,3.77-.14,2.37.47,4.07.73,6.28.57,4.87.85,9.74.97,14.59.02.73,0,1.46,0,2.18Z" fill="#fff"/><path d="M155.76,141.97c1.26-.2,3.72.5,4.14,1.84.38,1.22-.43,3.8-.11,5.22-1.12,2.18-3.57-.23-4.75-1.12-.96-.71-2.29-1.18-2.59-2.54-.36-1.62,1.92-3.19,3.32-3.41Z" fill="#fff"/></g></svg>