<svg xmlns="http://www.w3.org/2000/svg" width="300" height="60" viewBox="0 0 300 60"><path d="M10.51 21.06l-2.46.08c0-.34.59-.64 1.23-.86 1.19-.41 1.27-2.62 1.27-4.74 0-.9-.08-1.69-.08-2.58a3.18 3.18 0 0 1 0-.6 4.75 4.75 0 0 1 1.57.19c-.22-.34-.45-.6-.63-.86l-.27-.3a1 1 0 0 1-.44-.78c0-.45.11-.83.11-1.31a31 31 0 0 1-.49-3.44c0-.67.08-1.27.08-2C10.44.41 9.17.63 9.06 0l3.39.19c.38 0 1-.12 1.46-.12 1.08 0 1.34.64 1.34 1A7 7 0 0 1 15 2.73a12.09 12.09 0 0 0-.26 2.76v4c0 1.31-.19 3-.19 4.4a8.81 8.81 0 0 0 .23 2.43l-.49.22h.23a2.48 2.48 0 0 1 .33 1.24c0 .48-.07.89-.07 1.34a3.13 3.13 0 0 0 .11.9h-.34l.45.22.15.15h.67l-.07.52zm1.87-10.83h-.71l.78.23zm.19 6c0-.08 0-.19-.56-.3v.41h.41l-.52.15h.71zm.26-11.5h-.38a.55.55 0 0 0 .19-.08h-.48L12 5h.33l-.33.12h.71zm-.34 5.78H12l.15.41h.52zm.08-7a2 2 0 0 1-.49.11h.34v.3h.26zm.33 13.93l.19-.26h.07-.07l.19-.22H13l.48-.12h-.71v.34h.34a1.77 1.77 0 0 0-.93.45h.89l-.11-.19zm-.48-14.08a.12.12 0 0 0-.08 0zm.22 4.86a.73.73 0 0 1-.3-.12 2.05 2.05 0 0 0 .23.49h.07zm.78-1.87v-.3h-.15s0-.07-.15-.07h.07-.52l-.11.48h.3l-.23.15h.82zm-.78-3l-.07.15.22-.07c.07 0 .11 0 .11-.08zm.86 8.48h-.93l.11.37h.6zm-.37-7.62a1.64 1.64 0 0 0-.53.07h.68zm.26-2.76h-.64v-.11l-.07.53h.37l-.37.13h.74v-.3zm-.45 2.46h-.26v.26h.52zm.78 15.24h-1l.07.37h1.09zM36.8 21.06l-.37-.26h-1.31l-.75-.3c-.44-.48-.48-.6-.52-.78v-.23l-1.27-1v-.19h.15a34.82 34.82 0 0 1-3.28-3.47l-1.24-1.24a10 10 0 0 1-1.49-1.71l-.45-.64h.19l-.79-.24v-.12c0-.04 0-.07.12-.07-.23-.07-.71-.34-1.12-1.46H25a2.23 2.23 0 0 1-1.45-1.12h.29L23.28 8l-.71.3h.26v10.37c.3.49.9 1.12.86 1.12h-.15l.3.11C25 20.28 25 21 25 21.25c0 0-.07-.08-.19-.23h-6.57v-.44L20 18.93h-.18c0-4 .18-8.55.18-12.32V5.12l-.15-1.61H20l-.12-.22-.56-.53h.27l-1.42-.22v-.78c2.35 0 3.32.33 5.78.48l.79 1.31.45.37.3.37h-.19l.6.27 1 1.49.27.22L30 9.56a9.14 9.14 0 0 1 .78 1h-.19l1.61 1.23.15.48A6.14 6.14 0 0 0 33 13l.82.9v.67h-.18c.78.11 1 .37 1.56.9v-1.24h2.1c0-.08.71-.45.71-.45v5.53h-.15l.52.48h-.26L39 20c0 .71-.12.44-.12.86zM26.49 8.1h.38a.84.84 0 0 0-.19-.27zm1.09 1.72h.11v-.33l-1.12.07v.22h.38-.26l.37.11h-.16l-.14.12h.33a.76.76 0 0 1-.19.07h.68zm.63.86h.37l-1-.34s0 .08.27.45h.7zm.56-.63L29 10h-.74v.11h-.37.11s.08 0 .19.15l.75-.08zm1.64 2h-.14s.07.07.11.07h-.56l.26.12h.41l-.22.07h.41zm0 1.42l-.34.15h.3c.52 0 .67 0 .67-.15zm1.27.19a.76.76 0 0 0-.23 0h-.15zm.74 1.45h.34a.08.08 0 0 1-.07-.07zm.53-.33h-.41l-.08.22h.49zM37 13.67c-.22 0-.82.11-1.64.11l-.26-6.09h.15l-.11-.11a1 1 0 0 1-.26-.37V7c0-.78-.15-1.86-.15-2.69v-.69h.3l-.23-.15a2.24 2.24 0 0 1-.87-.47v-.68a13.75 13.75 0 0 0 1.41 0l.42.07c.89 0 1.71.08 2.05.08h.82l.3.3a5.48 5.48 0 0 1-.52.59l-.15.19h.15c-.15 4.37-.34 6.01-.41 7.45a1.62 1.62 0 0 1 .26.82 2 2 0 0 0-.38 1.18l-.15.67zm-2 3.92l.07.11 1.05-.11zm1.2-10.91l.19.15h.86v-.12zm1 2.51h-.89v.3H37.2zM54 21.88h.11l-.15.27h-1a2.85 2.85 0 0 0 .08-.53 2 2 0 0 0-.34-1l-.07-.22h.11c-.26-.26-.34-.34-.34-.38h.08a4.22 4.22 0 0 1-.56-.86h-.08H51.99l-.33-.41a1.71 1.71 0 0 0-.38-.41l-.52-1.57h.15l-.26-.26-.23-.38-.63-.82-.45-.45-.07-.18c-.07-.19-.71-1-.71-1.42a.12.12 0 0 1 0-.08h.11a11.33 11.33 0 0 1-1-1.49l-.33-.64a.9.9 0 0 0-.19-.29l-.6-1.13v-.26l-.15-.19a2.3 2.3 0 0 0-.4-.55s-.37-1.05-.71-1.27l-.48-.86-.26-.23a1.9 1.9 0 0 0-.67-.71L43.75 5h.15l-.42-.49a1.69 1.69 0 0 1-.15-.22l-.3-.56h.38L43 3.55h-.45l-.22-.18h.15l-1-.23h-.86v-.82h4.71l.67-.08h1.35l.89.08H50v.74h-.93l-.19.19H49a3.63 3.63 0 0 0-.07.71 1.54 1.54 0 0 0 .07.56h-.1c.19.19.26.3.26.37h-.11a2.83 2.83 0 0 1 .63 1.2l.22.59h-.11c.52.53.3.83.41.94l.3.37h-.15l.93 1.08a7.88 7.88 0 0 0 .45 1.39l.19.26a1.22 1.22 0 0 1 .15.41h-.15a1.75 1.75 0 0 1 .41.56l.19.41h.07s.08.07.08.11l.23.6a21.62 21.62 0 0 0 1.12 2.39l.15.26h.07l.07.15h-.07l.19.3h-.23c.38.19.41.26.49.41h.07l.08.15.07.34.23.3a.63.63 0 0 0 .07.22c0-.11.12-.19.19-.34h-.07c0-.18.26-.67.41-1.19h.11a1.22 1.22 0 0 1 .11-.34l.15-.15h-.15s0-.07.19-.26h-.11c0-.08-.11.11.22-.45H56a2.82 2.82 0 0 0 .3-.41h-.08l.19-.52c.11 0 .15-.23.3-.56a4.7 4.7 0 0 1 .71-1.46h-.11a1.93 1.93 0 0 1 .37-1 1 1 0 0 1 .26-.63l.37-.79a5.72 5.72 0 0 1 .41-.89H59c-.19 0-.37-.11-.34-.15h-.07l.11-.11h-.11l.26-.6a7.48 7.48 0 0 1 .56-1h-.15l.11-.11v-.08c0-.29.52-.48.52-1.08l.18-.48s.08-.23.08-.27l.1-.46s.11-.07.19-.15h-.12v-.11l-.15-.52h.15a9.1 9.1 0 0 0-1-.26l.19-.75c1.57 0 1-.07 2.09-.07h1.9a.47.47 0 0 0 .19 0h.71a7.19 7.19 0 0 1 1.15.11l.64.6c-.37.26-1 .18-1 .26s-.18.15-.37.26l-.82.29c-.11 0-.3.26-.33.41l-.3.49h.07c-.07.22-.3.59-.3.63l-.22.45A6.41 6.41 0 0 0 62.34 7l-.45.89a.53.53 0 0 1-.3.26c.22 0-.82 1-.82 1.91l-.41.41H60.51l-.26.56c-.12.15-.19.49-.27.49-.08.22-.08.45-.15.67l-.15.45-.11.67a3.58 3.58 0 0 1-1.35 2h.19l-.11.3-.45.67-.12.3a.47.47 0 0 0 0 .23l-.33.63a5.16 5.16 0 0 1-.4 1.27l-.34.75a2.24 2.24 0 0 0-.26.59v.12l-.23.33s-.07.08-.07.11l-.45.6a.86.86 0 0 0-.11.45zM48.64 8.81h.11v-.37h-.3.12-.45l.11.23h-.08V9.53h1zm4.52 8.07h.15v-.34h-.86a.9.9 0 0 0 .07.34V17.22h1zm1.94.71c-.23 0-.56 0-.71.11zm0-.3h.07zm.11.22h.19zm2.65-1.08zm.67-8.25h0zm0-.11zM84.3 21.06l-.22.23-2.84.33v-1.27l.41-.41h-.15v-.89h.15l-.65-.64-.51-1.41h.15l-1-.93a3.2 3.2 0 0 0-.11-.68h.11l-1.08-1c-1.87-.07-3.92-.18-5.79-.33-.18-.23-.26-.3-.71-.41a4 4 0 0 1-1.23 1.72H71c-.19 1-.23 1.19-1.57 3.69l.15.3c.6 1.12 1.19 1.46 1.38 2.2a10.77 10.77 0 0 1-2.46-.48h-1.19l-1.61.34a9.16 9.16 0 0 1-2.24.22V21.3v-.48l.44-.49a4.48 4.48 0 0 0 2.32-1.08l.64-.26h-.27a4.68 4.68 0 0 0 .64-1.12l.45-.71.22-.38c.49-.93.68-1.83 1-2.57l.41-.49a8.07 8.07 0 0 0 1.19-3.1l.93-1.27h-.11c.15-1 .19-.67 2.8-7l.56-.6h1.91c.48.78 1.08 1.83 1.3 2.24l.27.48a4 4 0 0 0 .67 1.2h-.86a2.6 2.6 0 0 0 1.03.75.08.08 0 0 0 .07-.07.4.4 0 0 0 0-.19l.56.75c.83 2 1.09 2.31 1.16 2.69h-.19c.56.56.38.82 1 1.42l.34.78c.26.49.48 1 .67 1.46h-.07l.74 1.08a32.74 32.74 0 0 0 3.92 5.3h-.29.56a4.62 4.62 0 0 0 .82 0c.6.6.6.63.71.93h.48v.86zm-16.77-3.88zm10-5.9a9.91 9.91 0 0 1-1-.86l-.3-.9h.07L75 7.47l-.26-1c0-.07.07-.15.15-.18l.11-.46h-.41l.49-.12h-.68l.19.38a1.21 1.21 0 0 0 .15.33 7 7 0 0 1-.74 1.5l-.11.3-.27.67a7.89 7.89 0 0 0-.41 1.49 6.12 6.12 0 0 0-.93 1.46h-.08l.63.48 2.77-.07a21.72 21.72 0 0 0 2.24-.08 1.57 1.57 0 0 1-.45-.93zm-2.42-7.17l-.11.07h.15a.62.62 0 0 1-.18.08h.26l.15-.15zm1-.67l.19-.19h-.83l.15.15h-.02l-.11.22h.78zm1.53 2.12l-.3-.29h-.6l.41.11h-.33l.18.22.41.38h.18a.52.52 0 0 1-.18.08h.33zm3.4 9.3h-1.01l-.38.38h.86l.26-.34h.27zm-1-1.27h-.07zm.45-.11h-.37v.11H80s0 .08.11.12h.6zm.37 1.38h-.22.22zm.27.08l.14.07h.34zM103.19 18.71c-.63 1-.89 1.46-3 2.05-2.5.75-5.71.53-8.59.68-.18 0-.89-.08-1-.3V18.9l.3-.34c.15-.22.26-.37 1.09-.37 1.23 0 1.53 1.27 1.68 1.64h-.19c.56.11 1.12.9 2 .9a6.24 6.24 0 0 0 3-.71l.33-.19h-.21a5 5 0 0 0 1-2.5 4.49 4.49 0 0 0-1.12-2.5h.22c-1.16-.49-1.45-.79-4.63-2.47l-.15-.15c-.52-.41-1.49-1.16-2.16-1.79l-1.2-3.14c0-.26.11-.63.11-.82a5 5 0 0 1 5-3.81 6.22 6.22 0 0 0 1.08-.3l3.4-.15.79.08a10.83 10.83 0 0 1 2.65.48v1.87c0 1 0 2.13-.68 2.13-1.23 0-1.68-1.42-1.86-2.17h.22l-.48-.33A6 6 0 0 0 98 2.88a5 5 0 0 0-1.27.41l-.56.22h.34a1.78 1.78 0 0 1-.49.64c-.71.18-1.12 1.34-1.19 1.71l-.41.64-.19.41a3.43 3.43 0 0 0 1.3 2.35l.3.23h-.07c.45.14.63.74 1.42 1.08.29.33 1 .33 1.15.45a8.23 8.23 0 0 1 2.76 1.27l.93.63c0 .45.64 1 1.16 1.42l.79.71v2.46c-.41.49-.6 1.12-.82 1.2zM92.51 8.44h-.11.11zm0 0v.18a.59.59 0 0 0 .26-.07zm.12-2.58h-.08.08zm0 0a1.3 1.3 0 0 0 .37 0zm.44 2.84a1 1 0 0 1 .23.15 2.44 2.44 0 0 0 0-.52 4 4 0 0 1-.56.26zm.08-2.87h-.08.12zm.41 3.32a.78.78 0 0 0-.26-.3c0 .22-.08.3-.15.3zm0-4.33l.44-.53a1.25 1.25 0 0 0 .23-.29h-1.07a1.34 1.34 0 0 0 .18.79h.19L93.3 5h.18a.22.22 0 0 0 .15.12s.08-.08.08-.3zm.19 4.33h-.19a1 1 0 0 1 .07.34h.08l-.11.22h.93zm2.35 1.68h.26v-.11H96a.14.14 0 0 0 .08 0h-.38a.1.1 0 0 0-.07 0 .22.22 0 0 0 0 .15h.15s-.15.15-.15.19H96.42zm1.79 2.05c-.26 0-.41 0-.41.18H98a.13.13 0 0 0 .11 0c.08 0 .08-.11.08-.19zm1.79.94h-.11l.37-.3h-.85V14h.52a.14.14 0 0 0-.08 0h.38zm.94.71h-.49a.66.66 0 0 1-.07.41h.94zm.82.15l.33-.19h-.85c0 .19.22.22.37.22h.3zm.52 1.64a.21.21 0 0 0-.15 0zm.41.48c-.08 0 0 0-.49-.41v.38h.15l-.15.15h.68zM107.34 21.06a6 6 0 0 0-2.28.26 1.37 1.37 0 0 1 1.19-1.27c.9-.41 1.13-1.79 1.13-3.25 0-1.12-.12-1.94-.12-3.09a3.6 3.6 0 0 1 0-.64 7.31 7.31 0 0 1 1.12.08c-.48-.49-.93-1.05-.93-1.39 0-.52.11-.74.11-1.19a22.06 22.06 0 0 1-.45-3.1c0-.67.08-1.16.08-1.87v-.19A3.79 3.79 0 0 0 107 3.7l-.15-.26c-.37-.34-.9-.75-.9-1.24l1.83.08c.41 0 .86.07 1.16.07s.79-.07 1.31-.07c.89 0 1.31.3 1.31 1a5.46 5.46 0 0 1-.38 1.72h.12a9 9 0 0 0-.19 2.13v3.51c0 1.35-.15 2.58-.15 3.89a8.61 8.61 0 0 0 .26 2.24l-.45.22h.23a1.93 1.93 0 0 1 .26 1c0 .45-.08.79-.08 1.16a3.07 3.07 0 0 0 .08.75h-.23l.34.3h.67v.74zm.86-9.56a.14.14 0 0 1-.08 0zm.82 0h-.71l.33.11a.33.33 0 0 0 0 .15h.64zm0 5h-.15l-.41.18h.82zm-.23-10.87a.21.21 0 0 0-.15 0zm.9 11.69a2.56 2.56 0 0 0-1 .41h.34a1.8 1.8 0 0 0 .74-.41zm-.52-11.72h-.34.38zm-.26-.19l.26.19.18-.19zm.09 2.51V8h.07zm.75-.15s0-.08-.12-.08h-.56v.11h.15l-.12.12h.08l-.11.15L110 8v-.26zm-.12-1.87l-.22-.26h-.22l.11.11h.11l-.34.26h.3c.23 0 .3 0 .3-.07zm-.41-2.28v.15h.49l-.49.08h.48l.41-.26zm0 6.05h.41zM133.1 20.09a3.94 3.94 0 0 0-.52.41l-2.8 1.08h-1c-1.42 0-3 .15-4.37.15l-.19-.37h.45a15.59 15.59 0 0 1-5.56-2.13l-2.8-3.55c-.56-1.53-.82-3.51-1-3.92V9.82l.45-.93c.41-.86.63-1.16 1.61-3.48l1-1 1.1-.41h-.18l1.57-1.27.59-.23a9.36 9.36 0 0 1 2-.6l.3-.26h5l1.34.53a4.27 4.27 0 0 0 .79.26l1.27.52a7.08 7.08 0 0 0 .82.38l1.34 1.27h-.18c1.15.11 1.53 1 1.86 1.9l.41 1.16h-.4l.49.15a4.19 4.19 0 0 0 .7 0l.47 1.19c0 2 0 3.92.11 5.83-.22 0-.41-.11-.56-.15l-.15 1.6c-1.08 1.46-2.39 3.1-3.77 3.66h.15zm-15.27-10.9h-.34.08-.34l.19.11h-.07c.07.15.63.15.63.15h.15zm.86 5.71c-.37.22-.64.3-.82.41a3.32 3.32 0 0 1 1-1.6H118a8.8 8.8 0 0 0-.45 1.75h1.12zm-.15-4.29h-.3a.27.27 0 0 0 .19 0h.11zm.19-2.54a2.41 2.41 0 0 1 .37-1.2h-.82l.26.41h-.11l-.11.79zm-.19 2.61h.18zm.46-5.27l-.11.12h.82l.11-.12zm12.8 11.73l1.2-2.61c0-.12.15-1.12.15-1.09l.15-1c0-1.16-.3-2.24-.3-3.44-.37-.86-.82-2-1.12-2.84h.12l-2.28-2.31h.28c-2-.67-2.28-.79-3.33-1.23-.48.15-1.08.37-1.34.48l-.64.26-.52.45c-.56.49-1.45 1.08-1.42 1.31l-.67.93h-.82.56l-.45 1.72c-.34.33-.41 1.16-1 1.72h.15c-.22 1.56-.52 2.27-.6 3.36h-.15l.49.44c.18 1 .37 1.5.48 2l.26 1.05h-.07a3.4 3.4 0 0 0 .71.93l1.42 1.5H123l.64.52h-.08c.3.15.38.26.38.3h.18c.38.22 1.72.41 2.21.86 2-.56 4-1.27 4.85-3.1l1.05-.19zM119.88 5.41a.16.16 0 0 0-.08 0zm.83.27c.52 0 .52-.34.52-.49h-1l.19.3h-.07v.22h.56zm5.6 14.75l-.45.11h.56zm8.74-3h.15a.7.7 0 0 1 0-.3h-1.08l.19.56h.93zm.07-6.61h-.37l-.45.22h.82zm.56.9h-.07a.1.1 0 0 1 .07 0h-.15a7.67 7.67 0 0 1-.89.56h.89a.83.83 0 0 0-.19-.15zm-.93 5l-.08.3h.71l-.41-.15h.15l.56-.11zm1-3.1h.19V13h-.86l.74.26h-.33l-.23.48h.94zm-.52.11zm1.15-4a1.72 1.72 0 0 1 0-.18h-1.07v.35h1.13s-.08-.08-.08-.12zm-.85 7.27h-.15a1 1 0 0 0 .23.07zm.3-2.54l-.11.45 1.42-.3a2.65 2.65 0 0 0-.82-.15zM159.65 21.06l-.37-.26H158l-.74-.3c-.45-.48-.49-.6-.53-.78v-.23l-1.27-1v-.19h.15a34.32 34.32 0 0 1-3.29-3.47L151 13.59a9.81 9.81 0 0 1-1.5-1.71l-.44-.64h.18l-.74-.22v-.12c0-.04 0-.07.11-.07-.22-.07-.71-.34-1.12-1.46h.34a2.26 2.26 0 0 1-1.46-1.12h.3l-.53-.25-.71.3h.26v10.37c.3.49.89 1.12.86 1.12h-.15l.3.11c1.12.38 1.15 1.05 1.15 1.35 0 0-.07-.08-.18-.23h-6.58v-.44l1.8-1.65h-.19c0-4 .19-8.55.19-12.32V5.12l-.15-1.61h.15l-.11-.22-.56-.53h.26L141 2.54v-.78c2.35 0 3.32.33 5.79.48l.78 1.31.45.37.3.37h-.19l.6.27 1 1.49.26.22 2.8 3.29a7.88 7.88 0 0 1 .78 1h-.18l1.6 1.23.15.48a7.16 7.16 0 0 0 .67.71l.83.9v.67h-.19c.78.11 1 .37 1.57.9v-1.22h2.09c0-.08.71-.45.71-.45v5.53h-.15l.52.48H161l.86.23c0 .71-.11.44-.11.86zm-10.3-13h.37a.84.84 0 0 0-.19-.27zm1.08 1.72h.11v-.33l-1.12.07v.22h.37-.26l.37.11h-.22l-.15.12h.33a.89.89 0 0 1-.18.07h.67zm.63.86h.38l-1-.34s0 .08.26.45h.71zm.56-.63l.27-.08h-.75v.11h-.37.15s.07 0 .18.15l.75-.08zm1.65 2h-.15s.07.07.11.07h-.56l.26.12h.41l-.22.07h.41zm0 1.42l-.34.15h.3c.53 0 .68 0 .68-.15zm1.27.19a.74.74 0 0 0-.22 0h-.15zm.75 1.45h.33a.08.08 0 0 1-.07-.07zm.52-.33h-.41l-.08.22h.49zm4.11-1.16c-.23 0-.82.11-1.65.11l-.27-6h.15l-.15-.11a1.2 1.2 0 0 1-.26-.37V7c0-.78-.15-1.86-.15-2.69v-.69h.3l-.23-.15a2.3 2.3 0 0 1-.93-.52v-.63a14.07 14.07 0 0 0 1.42 0l.41.07c.89 0 1.72.08 2 .08h.82l.3.3a5.48 5.48 0 0 1-.52.59l-.15.19h.15c-.15 4.41-.34 6.05-.41 7.51a1.62 1.62 0 0 1 .26.82 2 2 0 0 0-.37 1.16l-.15.67zm-2 3.92l.08.11 1-.11zm1.2-10.91l.18.15h.86v-.12zm1 2.51h-.9v.3h.78zM194.46 20.09a3.33 3.33 0 0 0-.53.41l-2.8 1.08h-1c-1.42 0-3 .15-4.37.15l-.19-.37h.45a15.59 15.59 0 0 1-5.56-2.13l-2.8-3.55c-.56-1.53-.82-3.51-1.05-3.92V9.82l.45-.93c.41-.86.64-1.16 1.61-3.48l1-1 1.15-.41h-.18l1.57-1.27.59-.23a9.53 9.53 0 0 1 2-.6l.3-.26h5l1.34.53a4.27 4.27 0 0 0 .79.26l1.27.52a8 8 0 0 0 .82.38l1.34 1.27h-.18c1.15.11 1.53 1 1.86 1.9l.41 1.16h-.37l.49.15a4.26 4.26 0 0 0 .71 0L199 9c0 2 0 3.92.11 5.83-.22 0-.41-.11-.56-.15l-.15 1.6c-1.08 1.46-2.39 3.1-3.77 3.66h.15zm-15.28-10.9h-.33.07-.34l.19.11h-.07c.07.15.63.15.63.15h.15zm.82 5.71c-.37.22-.63.3-.82.41a3.32 3.32 0 0 1 1-1.6h-.86a8.8 8.8 0 0 0-.45 1.75H180zm-.15-4.29h-.3a.27.27 0 0 0 .19 0h.11zm.19-2.54a2.41 2.41 0 0 1 .37-1.2h-.82l.26.41h-.11l-.11.79zm-.19 2.61h.19zm.41-5.27l-.11.12h.85l.11-.12zm12.85 11.73l1.23-2.61c0-.12.15-1.12.15-1.09l.15-1c0-1.16-.3-2.24-.3-3.44-.37-.86-.82-2-1.12-2.84h.11l-2.28-2.31h.23c-2-.67-2.28-.79-3.33-1.23-.48.15-1.08.37-1.34.48l-.63.26-.53.45c-.56.49-1.45 1.08-1.42 1.31l-.63.88h-.82.56l-.45 1.72c-.33.33-.41 1.16-1 1.72h.15c-.22 1.56-.52 2.27-.6 3.36h-.15l.49.44c.19 1 .37 1.5.48 2l.27 1.05h-.08a3.4 3.4 0 0 0 .71.93l1.42 1.5h-.07l.63.52h-.07c.29.15.37.26.37.3h.19c.37.22 1.71.41 2.2.86 2-.56 4-1.27 4.85-3.1l1.05-.19zM181.24 5.41a.16.16 0 0 0-.08 0zm.82.27c.52 0 .52-.34.52-.49h-1.05l.19.3h-.07v.22h.56zm5.6 14.75l-.45.11h.56zm8.74-3h.15a.7.7 0 0 1 0-.3h-1.05l.19.56h.93zm.07-6.61h-.37l-.45.22h.82zm.56.9H197a.1.1 0 0 1 .07 0h-.15a7.67 7.67 0 0 1-.89.56h.89a.92.92 0 0 0-.18-.15zm-.93 5l-.1.28h.71l-.41-.15h.15l.56-.11zm1-3.1h.19V13h-.86l.74.26h-.33l-.23.48h.94zm-.52.11zm1.15-4a1.72 1.72 0 0 1 0-.18h-1.07v.35h1.12s-.08-.08-.08-.12zm-.85 7.27h-.15a1.19 1.19 0 0 0 .23.07zm.3-2.54l-.11.45 1.42-.3a2.65 2.65 0 0 0-.82-.15zM213.76 15.16l-.26-1.57h.41a7.14 7.14 0 0 1-1.46-.52c-.34-.11-1.79-.45-2.24-1.05-.22.42-.78.45-1.38.42h-1.05a2 2 0 0 0-.41 1.08 3.7 3.7 0 0 0 .11.9 3.64 3.64 0 0 1 .59 1.53v.33c0 .3-.07.75-.07 1.46 0 .37.07.9.07 1.46v.18a11.15 11.15 0 0 1 1.95.19l-.34.34a2.3 2.3 0 0 0-.26.07h.3c-.08.86-1.61 1.31-2.92 1.31a4.48 4.48 0 0 1-1-.11c-.15 0-.37.15-.49.18l-1.12.38-.93-.94c0-.15 0-.63-.08-1l.19-.33h-.07a.3.3 0 0 1 .07-.19l.26-.78a3.91 3.91 0 0 1 .56-1.2h-.11V7.88h.08l-.42-.82V4.82a3.45 3.45 0 0 0-.48-.86v-.19l-.26-.33a5.52 5.52 0 0 1-.74-1l11.16-.08c1.76 0 1.64.08 3.1.08l.15.86h-.15l.6.63h-.11l.59.45c0 .15.19 1.08.19 1.27a4.44 4.44 0 0 1-1.19-.08c-.23 0-.41-.11-.71-.11l-.67-.46c-.15-.11-.63-.37-.63-.41a2.87 2.87 0 0 1 .3.08c-.15-.08-.41-.19-.41-.19l-.86-.67H209a4.36 4.36 0 0 1-2 .33l-.07-.14h.3l-.45-.23a1.1 1.1 0 0 1 .07.49v.56c0 .15.08.37.27.41l.11-.07 1.08-.16.11 2.62v1.56c0 .6-.23.83-.49.86h.11c0 1.53 1.24.86 2.06 1.27l2.9-.11h-.41l1-1.12.26-.3 2.17-.44v5.82zm-7.13 2h-.23l-.4 1.66-.15.11h.15c-.23.08-.64.23-.68.26h1zm-.23 0a.23.23 0 0 0-.15 0zM215.18 5zM239 21.58h-.3a18.39 18.39 0 0 1-3 .26h-1a3.6 3.6 0 0 1 .67-1.56V7.8v-.11l-.26-2.54h.15l-1.46-1.46h-1.94v.15h-1.31a6.65 6.65 0 0 1-.78.07l-1 .3h.23l-1.12 1h-1a14.22 14.22 0 0 1 1-1.54h-.07l.63-1.49a2.17 2.17 0 0 1 1.35-.3 2.63 2.63 0 0 1 .41.3h16.36l1.08-.56v.64a9.8 9.8 0 0 1-.75 1.12l-.22.26h.15c0 .41.15.41-.6.93h.15l-.11.26v.52h-1.12l-.2-1.35-5.83.56h.53c0 3.84-.08 7.76-.08 11.57l.34 1.53a8.9 8.9 0 0 0-.34 2.69 5.05 5.05 0 0 0 .37.79h-.08l.34.33zm-1.9-11.72a.09.09 0 0 1-.08-.08.63.63 0 0 1 .08-.11h-.27a9.17 9.17 0 0 0-1.27 1.38 18.34 18.34 0 0 0 1.68-1.19zm0 7.06l.07-.12a4.82 4.82 0 0 0-.78.49h.86a.93.93 0 0 0-.08-.37zm-.26-1v-.27h-.15l.07-.07h-.14v.19h.11l-.22.22h.41zm.44-9.6l-.28.18-.23.07h.53zm.38 7.65l-.15-.29h.07v-.12h-.86a1.31 1.31 0 0 0 .79.38h-.15a1.35 1.35 0 0 1 .11.38h.45zm.19-7.35h-1l.37.52h.45-.56.75zm-.9.93h.15-.11H237.43v-.22h-.37l.3-.08h-.49c0 .08-.07.19-.07.23h.56zm.33 9.11l.27-.22h.07-.48v.26h.14l-.11.11.3-.11zm.45-10.75l-.41-.41h.19a.54.54 0 0 0-.15 0 .44.44 0 0 0-.15-.08l.07.12h-.11l.15.37.41.34zm.68 3.21l-.15-.12-.6.45c-.26 0-.19 0-.23.07h.42-.12.45zm-.75 2.69a3.52 3.52 0 0 0 .15.37h.19v-.3h.52zm.26-5.57h-.15v.07h-.11l.44-.08zm.63 2.47l.42-.3-.49.3h.07l-.22.15.15-.15.11-.11h-.85c0 .07.15.18.41.18v.08h.15-.18l-.26.26.37-.26h.11v.07l.08-.07h.6l.11-.11zm.27 6.16h-1v.11a1.48 1.48 0 0 1 .11.45h.41l.3-.3zm-.19-7.06h-.15l-.49.3h.45l.38-.34zm-.3 1h-.22v-.07h.33zm-.07.11V9zm.85-5.15H239l.71-.75h-1c0 .08 0 .15.19.34l-.6.71h.9zm.9.26h-.22l.22.11zM241.06 3l.52-.45h-.93l.15.41h.2l-.45.38h.79zM270.67 20.91a4.85 4.85 0 0 1-.93.08c-.42 0-1 0-1.35-.08h-.11c-.3 0-.56-.07-.67-.07-.75 0-1.57.45-2.77.45h-.44c-.27-.11-.38-.19-.42-.19h.12a2.09 2.09 0 0 1-.49-.74h1.64l1-1.05h-.15v-6.73h-1.16l-.79-.14-1.12.11-.78-.11-.82.14h-1.76l-1-.11h-1.34l-.45.11h-.6v.78l-.3 1.38V15.08c0 .34.18.71.18 1.19a3.45 3.45 0 0 1-.18.38h.02a16.5 16.5 0 0 1 .49 3.66v.3l-.9.26a33.17 33.17 0 0 0-3.92.37c-.93 0-1-.3-1-.67 0 0 .08-.52 1.46-.79h-.34l.12-.48v-.71-5.64V12v-.19a5.58 5.58 0 0 1 .07-.9v-.18a1.71 1.71 0 0 1 0-.45 10.36 10.36 0 0 1-.32-2.28h.08c-.08-.08-.19-.3-.19-.26a3.5 3.5 0 0 1 .22-1v-.11a3.62 3.62 0 0 1-.19-1.08 2.78 2.78 0 0 1 0-.56 2.68 2.68 0 0 0-.19-.68l-.3-.29h-.11.07c-.37-.19-.37-.19-.44-.26l-.42-.37-.33-.9h5l2.65.19-.41 1.12-1.2 1.57h.1V8h-.07l.37.68V11h9.7V9.52h.07l-.45-.71V7.28l-.11-.48V5.6l.08-.45-.26-1.86h.22a1.47 1.47 0 0 1-.45-.15h.11l-.7-.14-.94-.45v-.63c1 .48 1.16.48 1.38.48a2.87 2.87 0 0 0 .75-.07l.75.07h2.13l.18.15a4.67 4.67 0 0 1 1.76-.18h.63a6.47 6.47 0 0 0 .94-.38v.41l-.68.45a2.13 2.13 0 0 0-.71.3h.19l-.52.67v.15h.08c0 .3-.19.93-.3 1.38v1.22L270 7.69h-.26c.34.23.6.45.6.45 0 .3-.11.67-.11 1v.53a1.39 1.39 0 0 1-.11.49v.41a3.26 3.26 0 0 0 0 .52l.26.67v3l-.34.67h.08c0 .11.07.22.07.34l-.07 1.68a.59.59 0 0 0 0 .18l.07 1.35.12.6h-.15l.15.18h-.15l.52.3zm-16.66-9h-.67l.66.09zm.08-4.11h-.15l.11-.11h-.19V8.1a1.36 1.36 0 0 0-.07.44h.07l-.15.3h.08l-.19.26V9h-.07-.08H253.79zm-.09 7.74zm0 0v.08h.52zm0-3.54v.15l.19-.08zm.3 3.52a4.7 4.7 0 0 1 1.12-1.65h-.93l-.49 1.67zm13.6-.71h-.79a1.61 1.61 0 0 0 .45 0h.26l-.26.26h.37v-.3h.45zm-.45.33h.07zm.22-1.6l.19.15h.26s-.08.07-.11.07h.3a1.25 1.25 0 0 0-.08-.22zm.37 3.69v-.11l-.07.22.52-.11zm.49-1.23l-.15.3h-.34.3l-.18.41.26-.38h.11l.75-.37zm-.49.86a.14.14 0 0 0 0-.08zm.08 0a.51.51 0 0 0 0 .22zm.41-2h-.15l.15.07zm.08.07h.07zm.07 0l.11.08h.23zM288 21.1h-11.09c-1.87 0-1.87-.08-1.87-.19l1.39-1.12h-.23V17c0-1.35.08-3 .08-4.56v-1.12h.15c-.08-.08-.3-.34-.3-.34l-.48-.45V3.32h.15a7.25 7.25 0 0 0-1.5-1.15c1.31 0 2.21-.08 2.84-.08h.86l.6.26c2.58 0 6.61 0 8.85-.3l.6.3a3.94 3.94 0 0 0 .52.08l-.15.82.6 2.5c-1.49 0-2.46-.19-2.84-1.46h.34a4.71 4.71 0 0 0-1.91-.18h-3.69a11.3 11.3 0 0 1-1 1.72l-.45.82h.07l.53 2.09c0 .56-.12.89-.12 1.45-1 .34-1.19.38-1.38 1.09l-.19.33h-.22l1 .15a5 5 0 0 1 2.73-1.08h1.6a2.12 2.12 0 0 1 .26-.26l1.05-.19h-.11c0-.07.15-.15 1.23-.15 0 1.65.11 2.92.11 3.29v.9c-1.79-.6-2.42-1.35-2.54-1.91a3.49 3.49 0 0 0-1.64.37l-1.57-.11c.08.82.15 3.55.15 5.16l-.45.63h.12c.11.49.18.9.18.9h-.37l.33.11a12.59 12.59 0 0 0 2.32.6 11.34 11.34 0 0 1 2.54-.49l.86-.07 1.75-1.24.56-.07h-.41l.34-.3.82-.52 1.2.07c.22 0 .48 0 .59.11l-.56 1.5-.74.82h.11c0 .52-.71.9-1.2 1.08zM9.56 58.59c-2.91 0-6.5.26-9.34.26A3.07 3.07 0 0 0 0 58c.67 0 1.76-.11 2.43-.19h-.11l.37-.18h-.08l.75-.38h-.15l1.2-1.19h-.15c0-2.91 0-5.86.07-8.81L4 46.6c0-.78.08-1.45.15-2.2 1.87.26 1.87.26 2.39.71.34 2.31.34 2.31.56 2.8l.3 8.7h-.12l1.2 1.16h-.26l1.34.33zm-.15-15.87l-.67.45-2.74.48-.57-.3a12.6 12.6 0 0 1-1.34-1l-.3-2.13h.11a35.36 35.36 0 0 1-2.24-3.1l5.83.18.22.27a2.94 2.94 0 0 1 .86 2.09H8.4l1 1 1.19 1.12V42zM29 57.88c-.68.15-.68.15-1 .56h-1.93l-.27-.3h-.33l-.3.3c-1.12 0-3.17.11-4.33.19v-.56a4.6 4.6 0 0 0 1.53-.45 5.21 5.21 0 0 1 .86-.34H23l.07-.15a.67.67 0 0 0 .23-.13h-.15c.12-2.47.38-3.14.38-4l-.29-.71.29-.82c-.08-1.08-.23-2.09-.3-3.17l.33-.64c0-1.45-.08-2.91-.08-4.4l-.07.15a11.45 11.45 0 0 0-.71 1.86c-.52.68-.64 1.61-1.16 2.32L21 48.66a69.34 69.34 0 0 1-3.36 7.13L17 57.17l-.15.82H14l-.11-1.38H14a23.16 23.16 0 0 1-1.75-3.4h.11a8.65 8.65 0 0 1-1.75-2.84L8 46v-.82l.38-.56s.22-.26.45-.56h2.16c1.83 2.76 1.83 2.76 2.09 3.47h-.11l1 1 .22.67H14l1 1a5.25 5.25 0 0 0 1.16 2.12v.23l.18-1.16a9.46 9.46 0 0 0 1.05-1.05h-.11c.15-.48.37-.63 1.75-3.92 0 0 0-.52 3.44-5.64h-.08c.41-1 .83-2.09 1.27-3.09h5.87v.44l-1 .23h.26l-1.19 1.22h.15l-.6 1.5v5.07c.26 1.61.26 1.76.56 7.92l.07.38c.15.93.34 1.86.52 2.76H28l1.05.33zm-14.62-4.74h.45v.71h1a6.46 6.46 0 0 0 .3-.94zm11.46 1.19c-.11-.18-.3-.37-.41-.56h.08v-.63h-.38l.19 1.19zM50.49 57.43a3.33 3.33 0 0 0-.53.41l-2.8 1.09h-1c-1.42 0-3 .15-4.37.15l-.18-.38h.44a15.59 15.59 0 0 1-5.56-2.13L33.72 53c-.56-1.53-.82-3.51-1-3.92v-2l.45-.93c.41-.86.64-1.16 1.61-3.47l1-1 1.16-.41h-.19L38.32 40l.6-.23a8.8 8.8 0 0 1 2-.59l.3-.27h5l1.34.53a4.27 4.27 0 0 0 .79.26l1.27.52c.3.15.6.3.82.38l1.34 1.27h-.18c1.16.11 1.53 1 1.86 1.9l.28 1.23h-.38l.49.15a3.21 3.21 0 0 0 .71 0L55 46.3c0 2 0 3.93.11 5.83-.22 0-.41-.11-.56-.15l-.14 1.61c-1.09 1.45-2.39 3.1-3.78 3.66h.15zm-15.28-10.9h-.33.07-.33l.18.11h-.07c.07.15.63.15.63.15h.15zm.86 5.71c-.37.23-.63.3-.82.41a3.39 3.39 0 0 1 1-1.6h-.85a9.26 9.26 0 0 0-.4 1.75h1.12zM35.92 48h-.3a.28.28 0 0 0 .19 0h.11zm.19-2.54a2.52 2.52 0 0 1 .37-1.2h-.82l.26.41h-.11l-.11.79zM35.92 48h.19zm.41-5.26l-.11.11H37l.11-.11zm12.85 11.74l1.23-2.61c0-.11.15-1.12.15-1.08l.15-1c0-1.16-.3-2.24-.3-3.44-.37-.85-.82-2-1.12-2.83h.11l-2.27-2.32h.22A33.34 33.34 0 0 1 44 39.92c-.49.15-1.09.37-1.35.48l-.63.27-.53.44c-.56.49-1.45 1.09-1.41 1.31l-.68.93h-.82.56l-.45 1.72c-.33.34-.41 1.16-1 1.72h.15c-.22 1.57-.52 2.28-.6 3.36h-.15l.49.45c.19 1 .37 1.49.49 2l.26 1h-.08a3.25 3.25 0 0 0 .71.93l1.42 1.5h-.07l.63.52h-.07c.3.15.37.26.37.3h.19c.37.22 1.71.41 2.2.86 2-.56 4-1.27 4.85-3.1l1.05-.19zM37.27 42.76a.14.14 0 0 0-.08 0zm.82.26c.52 0 .52-.34.52-.49h-1l.18.3h-.07v.23h.56zm5.6 14.75l-.45.11h.56zm8.74-3h.15v-.3h-1.05l.19.56h.93zm.07-6.61h-.37l-.45.23h.82zm.56.9H53h.07-.15a7.67 7.67 0 0 1-.89.56h.89a1.66 1.66 0 0 0-.18-.15zm-.93 5l-.07.3h.7l-.41-.15h.15l.56-.11zm1-3.1h.19v-.63h-.86l.75.26h-.34l-.22.48h.93zm-.52.11zm1.16-3.95v-.19H52.7v.26h1.12s-.08-.08-.08-.11zm-.83 7.24h-.15a1.59 1.59 0 0 0 .23.08zm.3-2.54l-.11.45 1.42-.3a2.65 2.65 0 0 0-.82-.15zM69.34 58.93H69a18.33 18.33 0 0 1-3 .27h-1a3.79 3.79 0 0 1 .67-1.57V45.15v-.11l-.26-2.54h.15l-1.45-1.45h-2v.15h-1.3a5.27 5.27 0 0 1-.79.07l-1 .3h.27l-1.12 1h-1a13.87 13.87 0 0 1 1-1.53h-.07l.64-1.5a2.16 2.16 0 0 1 1.34-.3 2.63 2.63 0 0 1 .41.3h16.36l1.08-.54v.64a8.34 8.34 0 0 1-.74 1.12L77 41h.15c0 .41.15.41-.6.93h.15l-.11.26v.53h-1.2l-.15-1.42-5.82.56h.52c0 3.84-.07 7.77-.07 11.57L70.2 55a9.19 9.19 0 0 0-.33 2.68 5.58 5.58 0 0 0 .37.79h-.07l.33.33zm-1.9-11.73a.09.09 0 0 1-.08-.07.58.58 0 0 1 .08-.12h-.26a7.76 7.76 0 0 0-1.27 1.39c.11 0 1-.75 1.68-1.2zm0 7.06l.08-.11a5 5 0 0 0-.79.48h.86a1 1 0 0 0-.07-.37zm-.26-1V53H66.85v.19H67l-.22.22h.41zm.45-9.6l-.34.15-.22.07h.52zm.37 7.69l-.15-.3h.07v-.12H67a1.28 1.28 0 0 0 .78.38h-.15a1.06 1.06 0 0 1 .12.37h.44zm.15-7.35h-1l.37.52H68h-.56.75zm-.9.93h.15-.11H67.74v-.22h-.34l.3-.08h-.48c0 .08-.08.19-.08.23h.56zm.34 9.07l.26-.22a.1.1 0 0 0 .07 0h-.48V54h.15l-.11.12.3-.12zM68 43.28l-.41-.41h.18a.54.54 0 0 0-.15 0 .36.36 0 0 0-.15-.07l.08.11h-.12l.15.37.41.34zm.67 3.21l-.15-.15-.6.45c-.26 0-.18 0-.22.07h.41H68h.44zM68 49.18a3.52 3.52 0 0 0 .15.37h.15v-.3h.52zm.26-5.56h-.15v.07H68l.45-.07zm.64 2.46l.41-.3-.49.3h.08l-.23.15.15-.15.11-.11H68a.43.43 0 0 0 .41.18v.08h.15-.19l-.26.26.37-.26h.11v.07l.07-.07h.64l.11-.11zm.26 6.16h-1v.11a1.35 1.35 0 0 1 .11.45h.41l.3-.3zm-.19-7.06h-.15l-.48.3h.45l.37-.34zm-.3 1h-.22v-.07h.34zm-.07.11zm.86-5.15h-.08l.71-.75h-1c0 .08 0 .15.19.34l-.6.71h.9zm.89.26h-.22l.22.11zm1-1.12l.52-.45H71l.15.41h.19l-.45.38h.78zM101 58.25a4.85 4.85 0 0 1-.93.08c-.41 0-1 0-1.35-.08h-.11c-.3 0-.56-.07-.67-.07-.75 0-1.57.45-2.76.45h-.45c-.26-.11-.37-.19-.41-.19h.11a2.09 2.09 0 0 1-.49-.74h1.65l1-1h-.15v-6.77h-1.22l-.78-.15-1.12.11-.79-.11-.82.15H90l-1-.12h-1.36l-.45.12h-.59v.78l-.3 1.39v.33c0 .34.19.71.19 1.2 0 0-.12.26-.19.37h.07a16.57 16.57 0 0 1 .49 3.66v.3l-.89.26a35.61 35.61 0 0 0-3.93.37c-.93 0-1-.3-1-.67 0 0 .07-.52 1.45-.78h-.33l.11-.49v-.75-5.64V49.33a1.49 1.49 0 0 1 0-.19 6.7 6.7 0 0 1 .07-.89v-.19a2.27 2.27 0 0 1 0-.45 10 10 0 0 1-.34-2.24c-.08-.07-.19-.3-.19-.26a3.57 3.57 0 0 1 .23-1L82 44a4 4 0 0 1-.19-1.08 2.83 2.83 0 0 1 0-.56 2.44 2.44 0 0 0-.19-.67l-.3-.3h-.11.07c-.38-.18-.38-.18-.45-.26l-.41-.37-.34-.9h5l2.65.19-.35.95-1.2 1.57h.12v2.73h-.08l.38.67v2.35h9.74v-1.46h.08l-.42-.71v-1.53l-.11-.48v-1.2l.07-.44-.26-1.87h.22a1.09 1.09 0 0 1-.44-.15h.11l-.75-.19-.93-.45v-.63c1 .48 1.16.48 1.39.48a2.8 2.8 0 0 0 .74-.07l.75.07h2.13l.19.15a4.56 4.56 0 0 1 1.75-.18h.64a7.07 7.07 0 0 0 .93-.38v.41l-.67.45a2 2 0 0 0-.71.3h.18l-.52.67v.15h.08c0 .3-.19.94-.3 1.38v1.27l-.15 1.09h-.26c.33.23.59.45.59.45 0 .3-.11.67-.11 1V47a1.39 1.39 0 0 1-.11.49v.41a2.41 2.41 0 0 0 0 .52l.26.68v3l-.33.67h.07c0 .11.07.23.07.34l-.07 1.68a.7.7 0 0 0 0 .19l.08 1.34.11.6h-.15l.15.18h-.15l.52.3zm-16.65-9h-.67l.67.15zm.07-4.11h-.15l.11-.11h-.18V45.44a1.22 1.22 0 0 0-.08.45h.08l-.15.29h.07l-.18.27h-.08-.07H84.12zm-.07 7.77zm0 0v.08h.52zm0-3.54v.15l.19-.08zm.3 3.51a4.53 4.53 0 0 1 1.12-1.65h-.97l-.48 1.65zm13.59-.71h-.79a1.61 1.61 0 0 0 .45 0h.26l-.26.26h.38v-.3h.44zm-.45.33h.08zm.21-1.6l.18.15h.26s-.07.07-.11.07h.3a2.27 2.27 0 0 0-.07-.22zm.37 3.69v-.11l-.08.23.53-.12zm.48-1.23l-.15.3h-.33.3l-.19.41.26-.37h.11l.75-.38zm-.48.86a.15.15 0 0 0 0-.07zm.07 0a.51.51 0 0 0 0 .22zm.41-2h-.15l.15.08zm.08.08H99zm.07 0l.12.08h.22zM118.34 58.44h-11.1c-1.86 0-1.86-.08-1.86-.19l1.38-1.12h-.23v-2.8c0-1.34.08-2.95.08-4.56v-1.11h.15c-.08-.08-.3-.34-.3-.34l-.49-.45v-7.2h.15a7.22 7.22 0 0 0-1.49-1.16c1.3 0 2.2-.08 2.84-.08h.82l.59.26c2.58 0 6.61 0 8.86-.29l.59.29a4 4 0 0 0 .53.08l-.15.82.59 2.5c-1.49 0-2.46-.18-2.83-1.45h.33a4.34 4.34 0 0 0-1.9-.19h-3.7a11.3 11.3 0 0 1-1 1.72l-.45.82h.08l.52 2.09c0 .56-.11.9-.11 1.46-1 .33-1.2.37-1.39 1.08l-.18.34h-.23c.83.11 1 .15 1 .15a5 5 0 0 1 2.77-1.11h1.61a1.27 1.27 0 0 1 .26-.26l1-.19H115c0-.07.15-.15 1.23-.15 0 1.65.12 2.92.12 3.29v.9c-1.8-.6-2.43-1.35-2.54-1.91a3.41 3.41 0 0 0-1.65.38l-1.55-.06c.07.83.14 3.55.14 5.16l-.44.63h.11c.11.49.19.9.19.9h-.38l.34.11a11.73 11.73 0 0 0 2.31.6 11.45 11.45 0 0 1 2.54-.49l.86-.07 1.72-1.27.56-.08h-.41l.33-.3.82-.52 1.2.07a.93.93 0 0 1 .6.12l-.56 1.49-.75.82h.11c0 .52-.71.9-1.19 1.08zM143.92 58.22l-.53.07h-.11.15a1.64 1.64 0 0 1-.6.11c-2.69 0-5.19-1.42-6.05-1.6l-2.24-2.06-.33-.75h.11a.88.88 0 0 1-.23-.18l-.15-.23h.08l-.6-.67a5.55 5.55 0 0 1-.45-.67l-.26-1.05h.15l-.15-.11h.07l-.48-.41h.11l-.41-.37h-1.56c-.12.22-.23.59-.34.82l.34.74a3.07 3.07 0 0 0-.26 1.27H130l.45.41.3 3.29h-.3l1.79 1.05.15.71h-3.91c-.33 0-1.53.08-2.24.08h-1.42l-.11-1.05c.15-.07.49-.22 1.72-.71h-.37v-.22a10.3 10.3 0 0 1 .14-1.46l.12-1.19v-1c0-1.53-.23-3.21-.23-5h.94l.26.26h.37v-.22h.34l-2-.43V46a4.24 4.24 0 0 1-.34-1.42 1.55 1.55 0 0 0 .3-.86 7.53 7.53 0 0 1 1.61-.14v-.08h.15l-.38-.34-.63.19h.37v.19H126l-.19-.45c-.11-.22-.26-.6-.34-.82l-.44-1.42h.41a6.27 6.27 0 0 1-2.47-.71v-.41c.45-.15 1.42-.37 2-.49 0 .15-.07.23-.22.23l.3.07c.89 0 1.71.11 2.54.11l6.72.08 3.55 2 .59 2v2.35a8.14 8.14 0 0 0-.67 1.61L137 48h.18l-1.64 1.38h.19a3.46 3.46 0 0 1-.12.45l.18.26 1.12 1.57c.07.3.18.64.22.86h-.19l4 3.77h-.11l.52.26h-.08a10.65 10.65 0 0 1 1.39.6l.26.15 2.61-.11h1v.34zM127.3 44.55a.37.37 0 0 1 .07-.19H127a.14.14 0 0 0 0 .11.25.25 0 0 0 .11.19l-.41.11h.64zm-.15 5.64h.07l-.15-.23v.34h.26zm.15-7h-.12.15zm0 2.91zm0 4.82l.26.78h.11a4.13 4.13 0 0 0 .67-.78zm.71-5.19h-.26l.26-.19h-.23l-.33.3-.12.22.68-.26zm0 .41v-.26l-.64.33h.23s-.08.08-.12.08h.52zm.41 8.33v-.19h-.08l.15-.26h-.74a.74.74 0 0 0 .37.07v.38h.3v.07zm-.42-8.65l.41-.23zm5.78 1.87a5.45 5.45 0 0 1 .6-1.5v-2.57l-.14-.42a7.9 7.9 0 0 0-2.47-2.35c-.6 0-1.46.08-2.09.08 0 .44-.08 2.65-.08 3.62h-.41a1.36 1.36 0 0 1 .53.22h.15l.41 4.07h-.41l.86.22 1.79-.34h-.19l2.58-1.56zm2.58-3.36l.3-.3s-.11-.08-.15-.12l.3-.26h-.15l.64-.59-.68.59-.63.64h-.23.19a1.46 1.46 0 0 0-.34 0l-.26.15-.34.23h.41l.19-.15h-.3l.22-.19h.6v.11h-.45l-.07.08h.67zm-.37-.68s.11.11.45.11l-.08.08s-.15.07-.19.19l.41-.38zM172.14 57.77c-1.23 0-1 .22-2.8.67l-4.22.19c-1.12 0-2.5.22-3.73.18a2.19 2.19 0 0 1-1.57-.29v-2.36l.3-.48a1.91 1.91 0 0 1 1-.34c.83 0 1 .52 1 .94l.08.14h-.15l.48.49a7.77 7.77 0 0 0 3.7 1.16 7.57 7.57 0 0 0 2.91-.71h-.33v-.15a5.28 5.28 0 0 0 1.19-2.88l-.22-1.27h.11c-.22-.33-.78-1.12-1.27-1.71h.19l-.9-.42c-.22-.14-1.6-1-4.26-2.35l-.89-.71a13.44 13.44 0 0 1-1.65-1.45l-1.34-3.33a3.59 3.59 0 0 0 .15-1c.3-1.08 1.27-3.95 5.56-4.14a4.29 4.29 0 0 0 1.16-.37l4-.19 2.88.3a1 1 0 0 0 .33.18l.45.23v4.14h-1.57a6.91 6.91 0 0 1-.71-1.46l-.07-.07c-.74-2.32-2.12-2.73-4.1-2.73-.41 0-.86.27-1.87 1.09h.07l-.18.18-.86.34h.22c-.82 1.12-.78 1.83-1.45 3h.07a3 3 0 0 0 1.15 2.22l.86.82h-.26a4.23 4.23 0 0 0 .63 0V46H166l1.42.93a.81.81 0 0 1 .23 0l.48.15.49.33h-.27H168.69c.37 0 .49.11.9.11l3.1 1.91c0 .41.52.82.63.89l.75.56.75.94v2.61l-.27.45c-.11.11-.18.19-.18.22l-.11.23c-.15.15-.19.19-.19.22l-.26.53zm-10.27-13.63s0 .07.08.07a2.16 2.16 0 0 1-.08.56 2.73 2.73 0 0 0 .75-.33 2.73 2.73 0 0 1-.75-.3zm.27-2.88h.15-.23a.42.42 0 0 0 .08.26zm.11.41c-.08 0-.08-.07-.11-.18v.18zm1.12 3.7h.11l-.22-.11v-.15h.15l-.3-.26h.15l-.3-.15h.23l-.41-.08v.56h-.41a2.6 2.6 0 0 0 .86.08v.6h.86zm-.56-1c-.08 0-.15 0-.19.08a.6.6 0 0 1 .15.18zm.52-3.81s-.07-.07-.11-.18l-.52.26h.71zm-.11-.44h-.08c.08-.12.19-.38.27-.42l.37-.44h-1c0 .37 0 .41.19.59h-.15l.11.49h.3zm2.95 6.72H166l.11-.11h-.41l.45-.08h-.67c0 .19 0 .67.11.67h.63c-.07-.07-.07-.15-.07-.33zm2.13 2.31h-.71v.49h.18a.08.08 0 0 1-.07-.08h.45zm1.19 1v.56h.6a1.89 1.89 0 0 1 0-.56zm1.94 1.57a1.16 1.16 0 0 1-.26-.79h-.52a1.12 1.12 0 0 1 0 .26v.15a1.07 1.07 0 0 1 0 .38zm1-.79h-1c0 .34.22.34.22.34h.41zm.26 2.88h.31l-.26-.23s-.07-.15-.07-.3a.67.67 0 0 0 0 .19V54h.56zm-.07-.75v.19a.56.56 0 0 1 .07-.19zm.11 0h.15a.26.26 0 0 0 .15 0zM182.26 41.37a6.61 6.61 0 0 0-.22 1.46l-.11.75v1.63l.07.56v1.57l.12.82v1a8.1 8.1 0 0 0 .89 3.51l.71 1.57c.11.41.11.71.19.74.93.15 1.64 1.2 2.31 1.35l.9.41h.75a.75.75 0 0 0 .22-.08 4.31 4.31 0 0 0 1 .08h.41a3.51 3.51 0 0 0 2.61-2l.15-.3c.26-.26-.22 0 1.16-1.34v.15a5.44 5.44 0 0 0 .78-3.25v-.3l.15-.71c0-.37-.15-.78-.18-1.16v-5.19a3.53 3.53 0 0 0-1.57-2.57v-.38h5.75v.64c-.3.07-.6.86-.86.86l-.49.11h.3a3 3 0 0 0-.52 1.53 1.16 1.16 0 0 0 .15.56l-.1 1.61c0 1.24.07 2.54.07 3.74a3.22 3.22 0 0 1-.15.34 2 2 0 0 1 .15.74v.3h-.08v1.46l-.18.59a4.5 4.5 0 0 1-.49 1.16A7.36 7.36 0 0 1 193 57.1h.15c-1.61 1.75-5.12 1.94-6.5 1.94-1.68 0-2.47-.6-3.14-.6l-.45-.22s-.18-.15-.18-.23l-.15-.48h.27l-.64-.29A5 5 0 0 1 180 55.9a9 9 0 0 1-1.83-4.29v-.15a3.74 3.74 0 0 0-.14-.75l.07-.19v-.26-.11a3 3 0 0 1 0-.48v-1.09l.38-.6h-.08c-.07-1.49-.22-3-.3-4.51h.08c-.19-.34 0-3.1-1.46-3.14v-.75h2.24l1.12.11h3.4l-.07.56zm-2.42 1.31h-.71a.12.12 0 0 0 0 .08c0 .07.11.07.33.07h.27-.34.56zm.07 6.91h.09v-.34h-.56a2.23 2.23 0 0 1 .08.56h.56l-.45.08h.52zm-.07-1.87h-.27.27zm.07-5.15v.11h-.07.37c.07-.08.19-.11.19-.15zm.19 5.15h-.12.34zm.74-7.09h-.78v.11h.94zm0 10h-.56c-.15 0-.15.41-.15.71v.22s0 .08.22.08.49-.53.49-.82zm.41 2.2h-.56c-.12 0-.41.79-.41.82h.15l-.19.86 1-.67zm-.3 1.05l-.41.3h1V54a.36.36 0 0 0 .3-.15zm.63.93l-.37.26h.9c0-.22 0-.22.07-.26zm2.84 2.13l.08.63h.5c.22 0 .48-.56.48-.63zm2.54 1.23v-.15h-.37l.37-.15h-.74v.19h-.41l.08.11h.33v.11H186.9v-.08zm-.75 0V58h.71v.11zm4-.89h.07zm0-.27v.15h.15l-.15.12h.49c.11 0 .26 0 .26-.08l.19-.19zm2.39-1l.34-.3h-.86V56h.23l-.45.33h.89V56zm2.06-1.5h.07v-.33-.34h-.07v-.11h-.15a.25.25 0 0 1 .12-.11h-1v.22c0 .11.11.15.11.22h.22l-.18.08v.45h.22l-.23.11v-.11h-.64V55h.3l-.45.22h.82c0-.11-.07-.3-.07-.41h1zm-1.16.3l.26-.11v.11zm2.09-3l.08-.15h-.56s-.41 0-.41.26v.11h.3c0 .15 0 .34.27.34a1.22 1.22 0 0 0 .26-.34c.45 0 .48-.15.52-.22zm-.82 1.79a.1.1 0 0 0-.07 0h.11zm1.38-10.08h-1.08v.22a1.26 1.26 0 0 0-.15.52h.89zM218.45 57.92h.22a16.76 16.76 0 0 1-3.62 1l-1.05.19-5.23-.41-.59-.3a.94.94 0 0 1-.56-.15h.11-.19.08a.36.36 0 0 1-.19-.08l-1.49-.52-2.06-1.79-.22-.19h.07l-.15-.15a11.74 11.74 0 0 1-1.12-1.23 1.34 1.34 0 0 0-.3 0l.12-.34a7.15 7.15 0 0 0-.6-1.31c-.3-.52-.08-1-.45-2.09V47c.34-.64 0-.6 1.05-2.92a2.47 2.47 0 0 0 .44-1.15l1.95-2.06c1.27-.48 2.35-1 2.91-1.23l.78-.37c1.39 0 3.44-.12 5-.23h.29c2.88.19 3.22.26 3.74.49h-.15l.75.15a7.09 7.09 0 0 0 1 .07l.37.38.64 2.65c0 .15 0 .3.07.3a1.22 1.22 0 0 1-.75.29l-1.08.38v-.71h.11l-1.94-2.13h.23a4.77 4.77 0 0 0-1.87-.37c-3.7 0-5 1-6 1.75h-.44a10.84 10.84 0 0 0-1.87 4.93 4.9 4.9 0 0 0-.52 2.39l-.12.93a6.76 6.76 0 0 0 .34 1.12 5.67 5.67 0 0 1 .53 1.16h-.08l2.13 3.36a.52.52 0 0 0 .07.3h-.52a6.2 6.2 0 0 0 .78.22l1.42.56a1.51 1.51 0 0 0 .45.15l.64.22h-.12l1.31.23h.34a20.41 20.41 0 0 0 2.76-1l.9-.18h-.34l.6-.6a9.27 9.27 0 0 0 .86-1.46c2.2 0 2.54.23 2.54.49s-.08.22-.08.34a.25.25 0 0 0 .08.14 4.75 4.75 0 0 0-.3 1.95zM203 47.57a1.89 1.89 0 0 0 .56 0c-.22.23-.22.26-.22.26h.45l.07-.19a.81.81 0 0 0 .34 0zm1.11 5.43s.11-.15.15-.26v-.19h-.83l.12.67h-.38a4.21 4.21 0 0 1 .71.3zm.07-5.86a.39.39 0 0 1-.26-.41l-.23-.19a.53.53 0 0 1-.18.07h.07v.34h-.11a2.46 2.46 0 0 1 .45.11v.08zm-.18 3.61h.18c-.07 0-.07-.08-.07-.08h.15l-.71-.07c.07.11.26.48.26.45h.19zm-.3-4.37s0 .07.07.15l.15-.08a.56.56 0 0 0 .19-.07zm.82 2.8h.34s-.08 0-.34-.07v-.23h-.15a.3.3 0 0 0 .19-.11h-.41.37s-.07-.07-.11-.07H204l-.11.45h.07a.87.87 0 0 0-.26.15h.3s-.07.07-.11.07h.56zm-.3-2h.08a.13.13 0 0 0 .07 0zm1.76 7h-.79l.23.11a2.63 2.63 0 0 0 .67.23zm-.12-12.06l-.37.26h.49l.3-.26zm.23 12.77a.1.1 0 0 0 0 .07v-.07c0-.07 0-.15-.07-.34h-.23l.12.34zm.89-13.22h-.52l-.07.07h-.49a1.13 1.13 0 0 0 .45 0l-.07.07a.64.64 0 0 1-.19.08h.56l-.15-.08h.15l.07-.07h.41zm-.56-.52a.53.53 0 0 0-.22-.12l.11.12zm-.11.74zm0 13.67l.11.49h.53l.37-.49zm.82-14.41h-.71a.91.91 0 0 0 .3.15l.15.11zm-.33.33l.07-.07h-.15l-.15.26h.41zm0 .3a.14.14 0 0 1 .08 0zm.71 16.39h.11zm1.23-18c-.07.07-.22.22-.26.22l-.11.11H209v-.37zm.41 1l.23-.34a.78.78 0 0 0 .45-.11h-1.24a.88.88 0 0 0 .41.07v.07h.3l-.82.49h.82zM244.36 58.25c-5.56-.15-6.94-1.45-9.56-5.37l-.33-.71-.34-.38c-.75-1.15-1.64-2.57-1.64-2.57a8.22 8.22 0 0 0-2 1.12l.22.15h-.29l.07-.15a1.21 1.21 0 0 0-.49-.08.09.09 0 0 0 .08.08h-.37l-.12.22h.75L229 52h.15a7.68 7.68 0 0 0 .26 2.13l-.45.22h.26a2.18 2.18 0 0 1 .19 1.08v1.37a1.56 1.56 0 0 0 .26 1h.67v.71c-2.5.19-6.46.3-7.17.3 0-.56.45-.78.94-1 1.23 0 1.27-1.68 1.27-2.76v-1c0-.6.11-1.08.11-1.64v-.64c-.11 0-.11-.3-.11-.6v-.48a1.63 1.63 0 0 1 0-.38 4.45 4.45 0 0 1 1.2.12.56.56 0 0 1-.11-.26l-.34-.38a1.76 1.76 0 0 1-.48-.82V48c0-1.19-.41-2.46-.41-3.69v-1.4-.38a4 4 0 0 0-.41-2.13l-.15-.11a1.91 1.91 0 0 1-.71-1c.9 0 2.31.11 3.21.18h.19c.33 0 .71-.11 1-.11 1 0 1.34.41 1.34 1s-.37 1.9-.37 2.54v.41c0 .78-.08 1.53-.08 2.28v2.26c0 .08 0 .74-.07 1.12l3.95-3.55a9.8 9.8 0 0 1 1.18-1.42l1.15-.07H235l1.38-1.94a.38.38 0 0 0 .15-.34c0-.56-.9-.45-.9-.75s1-.71 6.57-1c.6.18.68.26.68.3 0 .29-.42.37-.83.44l-.22.08a7.39 7.39 0 0 0-3.14 1.83L235 46.23l1.27 2.05c2.2 3.59 5 8.11 9.48 9.41.79.08 1.42.15 1.42.3s-.49.41-1.23.41zM227.3 54l-.12-.11h-.78a.75.75 0 0 0 .37.18v.26l1-.07a.61.61 0 0 1-.15-.26zm0-5.19h-.52s0 .11.22.11h-.22l-.19.19h.9zm.11-5.08h-.6l-.07.11h.6zm-.63-1.09a.43.43 0 0 0 .22 0h.26s.26 0 .26-.07a2 2 0 0 0-.33-.08.14.14 0 0 0-.08 0l.11.07zm1.19 12.1h-.45l-.63.41h.82zm-.78-7.88l.07.12h-.3a1.06 1.06 0 0 0 .34 0h.52zM228 41c0-.19-.3-.26-.71-.3v.3l-.26.08zm-.74 13c-.08 0-.12 0-.12.07v.15zm.33-11.21l-.37.08V43h.37l-.33.11h.63zM228 45h-.18a1.52 1.52 0 0 0 .33-.26s.08 0 .11-.08l-.44.08h-.6a3.57 3.57 0 0 0 .15.33h.48l-.52.08h.67zm.3 11.87h-1l.12.26 1 .08zm1.91-7.76c0-.08.15-.15.18-.23h-.78l.37.3c-.07 0-.15.15-.22.19h.67zm4.14-2.21h-.93a1.63 1.63 0 0 0 .22.34l-.15.26h.86c0-.08-.19-.3-.15-.41zm.23 2.39l.29-.3a1.72 1.72 0 0 1 0-.18s-.07 0-.11.11a1.17 1.17 0 0 1-.45.07l-.52.45h1s-.08-.11-.08-.15zm.07.34l.15.22c0 .08-.15.26-.15.26h.93v-.15a.21.21 0 0 0-.11-.15c0-.07.15-.15.19-.22zm.45-.86H234.87zm.6 1.49l.14.41c0 .12.23.15.38.15s.22-.15.22-.26l.34-.3zm.44-7.2l.23.11-.15.11c.89 0 1 0 1-.11s-.07-.11-.07-.11zm.79 9.48h-.34l-.15.11h.67zm.45-10.64a.3.3 0 0 0-.19-.08.66.66 0 0 0-.41.23s.07 0 .11-.08h.22zm-.12 10.23l-.37.26.75-.26zm1.09-10.31h.15l-.08-.22a.68.68 0 0 0-.11-.26l-.37-.41h-.64a1.3 1.3 0 0 1 .56.41V41.67h.15l-.26.27h.82zm-.08 12.4v-.11H238h.15l-.18.07-.08-.11h-.48c.11.07.41.07.41.11l-.11.07h.82zm.86 1.49H239l.34-.26h-.71v.15l-.19.34h-.15 1.05zm1.12.34h-.15l.34-.34h-1a.19.19 0 0 0 .07.12l-.15.52a.36.36 0 0 1-.07.15h.15c-.08 0-.11.07-.11.11h1z" fill="#fff"/><path d="M259.3 58.44h-11.09c-1.87 0-1.87-.08-1.87-.19l1.38-1.12h-.22v-2.8c0-1.34.07-2.95.07-4.56v-1.11h.15l-.3-.34-.49-.45v-7.2h.15a7 7 0 0 0-1.49-1.16c1.31 0 2.2-.08 2.84-.08h.82l.6.26c2.57 0 6.61 0 8.85-.29l.6.29a3.71 3.71 0 0 0 .52.08l-.15.82.6 2.5c-1.5 0-2.47-.18-2.84-1.45h.33a4.31 4.31 0 0 0-1.9-.19h-3.7a11.3 11.3 0 0 1-1 1.72l-.45.82h.08l.52 2.09c0 .56-.11.9-.11 1.46-1.05.33-1.2.37-1.38 1.08l-.19.34h-.22c.82.11 1 .15 1 .15a4.9 4.9 0 0 1 2.76-1.11h1.61a2.12 2.12 0 0 1 .26-.26l1-.19H256c0-.07.15-.15 1.24-.15 0 1.65.11 2.92.11 3.29v.9c-1.79-.6-2.43-1.35-2.54-1.91a3.34 3.34 0 0 0-1.64.38l-1.6-.06c.07.83.15 3.55.15 5.16l-.45.63h.11c.11.49.19.9.19.9h-.38l.34.11a11.65 11.65 0 0 0 2.32.6 11.24 11.24 0 0 1 2.53-.49l.86-.07 1.76-1.27.56-.08h-.41l.33-.3.83-.52 1.19.07c.23 0 .49 0 .6.12l-.56 1.49-.75.82h.11c0 .52-.71.9-1.19 1.08zM284.88 58.22l-.53.07h-.11.15a1.64 1.64 0 0 1-.6.11c-2.68 0-5.19-1.42-6.05-1.6l-2.24-2.06-.33-.75h.11a.69.69 0 0 1-.22-.18l-.15-.23h.09l-.6-.67a5.55 5.55 0 0 1-.45-.67l-.26-1.05h.15l-.15-.11h.08l-.49-.41h.11l-.48-.41h-1.57c-.11.22-.23.59-.34.82l.33.74a3.07 3.07 0 0 0-.26 1.27h-.15l.45.41.3 3.29h-.3l1.79 1.05.15.71h-4.01c-.33 0-1.53.08-2.24.08h-1.42l-.11-1.05c.15-.07.49-.22 1.72-.71h-.37v-.22a9 9 0 0 1 .15-1.46l.11-1.19v-1c0-1.53-.23-3.21-.23-5h.94l.26.26h.37v-.22h.52l-2.1-.19.1-1.85a4.46 4.46 0 0 1-.33-1.42 1.56 1.56 0 0 0 .29-.86 7.53 7.53 0 0 1 1.61-.14v-.08h.15l-.37-.34-.64.19h.29v.19h-1l-.18-.45a7 7 0 0 1-.33-.82l-.49-1.38h.41a6.27 6.27 0 0 1-2.47-.71v-.41c.45-.15 1.42-.37 2-.49 0 .15-.07.23-.22.23l.3.07c.89 0 1.72.11 2.54.11l6.72.08 3.55 2 .59 2v2.35a9.6 9.6 0 0 0-.67 1.61L278 48h.19l-1.65 1.38h.19c0 .08-.08.3-.11.45l.19.26 1.12 1.57c.07.3.19.64.22.86h-.18l4 3.77h-.11l.52.26h-.07a10.46 10.46 0 0 1 1.38.6l.26.15 2.61-.11h1v.34zm-16.62-13.67a.49.49 0 0 1 .07-.19H268a.14.14 0 0 0 0 .11.25.25 0 0 0 .11.19l-.41.11h.64zm-.15 5.64h.07L268 50v.34h.26zm.15-7h-.11.15zm0 2.91zm0 4.82l.26.78h.11a4.13 4.13 0 0 0 .67-.78zm.71-5.19h-.26l.26-.19h-.23l-.33.3-.11.22.67-.26zm0 .41v-.26l-.64.33h.23s-.08.08-.11.08h.55zm.41 8.33v-.19h-.08l.15-.26h-.74a.74.74 0 0 0 .37.07v.38h.3v.07zm-.38-8.65l.41-.23zm5.79 1.87a5.23 5.23 0 0 1 .59-1.5v-2.57l-.15-.42a7.9 7.9 0 0 0-2.47-2.35c-.59 0-1.45.08-2.09.08 0 .44-.07 2.65-.07 3.62h-.41a1.35 1.35 0 0 1 .52.22h.15l.41 4.07h-.41l.86.22 1.79-.34h-.19l2.58-1.56zm2.57-3.36l.3-.3s-.11-.08-.15-.12l.3-.26h-.15l.64-.59-.68.59-.63.64h-.23.19a1.46 1.46 0 0 0-.34 0l-.26.15-.34.23h.41l.19-.15h-.3l.23-.19h.59v.11h-.44l-.08.08h.67zm-.37-.68s.11.11.45.11l-.08.08s-.15.07-.19.19l.41-.38z" fill="#fff"/><path d="M299.22 56.05c-.64 1-.9 1.46-3 2.05-2.51.75-5.72.53-8.59.68-.19 0-.9-.08-1.05-.3v-2.24l.3-.34c.15-.22.27-.37 1.09-.37 1.23 0 1.53 1.27 1.68 1.64h-.19c.56.11 1.12.9 2.06.9a6.27 6.27 0 0 0 2.95-.71l.33-.19h-.11a5 5 0 0 0 1-2.5 4.42 4.42 0 0 0-1.12-2.5h.22c-1.15-.49-1.45-.79-4.63-2.47l-.15-.15c-.52-.41-1.49-1.15-2.16-1.79l-1.2-3.14c0-.26.12-.63.12-.82a5 5 0 0 1 5-3.81 6.25 6.25 0 0 0 1.09-.3l3.39-.15.79.08a10.46 10.46 0 0 1 2.65.49V42c0 1.05 0 2.13-.67 2.13-1.24 0-1.68-1.42-1.87-2.16h.22l-.48-.34a6 6 0 0 0-2.8-1.38 5.15 5.15 0 0 0-1.27.41l-.56.22h.33a1.84 1.84 0 0 1-.48.64c-.71.18-1.12 1.34-1.2 1.71l-.41.64-.19.41a3.47 3.47 0 0 0 1.3 2.35l.3.23h-.07c.45.15.63.74 1.42 1.08.3.34 1 .34 1.16.45a8.15 8.15 0 0 1 2.76 1.27l.94.63c0 .45.63 1 1.15 1.42l.78.71v2.47c-.41.48-.6 1.12-.82 1.19zm-10.68-10.27h-.12.12zm0 0V46a.7.7 0 0 0 .26-.08zm.11-2.58h-.08.08zm0 0a1.3 1.3 0 0 0 .37 0zm.45 2.8a1.23 1.23 0 0 1 .22.15 1.84 1.84 0 0 0 0-.52 4 4 0 0 1-.56.26zm.07-2.87h-.07.11zm.41 3.32a.7.7 0 0 0-.26-.3c0 .23-.08.3-.15.3zm0-4.33l.45-.52a1.46 1.46 0 0 0 .22-.34l-.07.07h-1a1.32 1.32 0 0 0 .18.79h.19l-.26.19h.19a.19.19 0 0 0 .15.11s.07-.08.07-.3zm.19 4.33h-.19a1.05 1.05 0 0 1 .08.34h.07l-.11.22h.93zm2.35 1.68h.26v-.11h-.37.07-.37a.14.14 0 0 0-.08 0 .22.22 0 0 0 0 .15h.15s-.15.15-.15.19H292.42zm1.79 2.06c-.26 0-.41 0-.41.18h.56a.14.14 0 0 0 .11 0c.08 0 .08-.11.08-.18zm1.8.93h-.12l.38-.3h-.86v.52h.52a.1.1 0 0 0-.07 0h.37zm.93.71h-.49a.66.66 0 0 1-.07.41h.9zm.82.15l.34-.19h-.86c0 .19.22.23.37.23h.3zm.52 1.64a.23.23 0 0 0-.15 0zm.41.49c-.07 0 0 0-.48-.41v.37h.15l-.15.15h.67z" fill="#fff"/></svg>