<svg xmlns="http://www.w3.org/2000/svg" width="260" height="106" viewBox="0 0 260 106"><path d="M.16,3.36H12.73a14.22,14.22,0,0,1,2.75.3,7.32,7.32,0,0,1,2.81,1.22,7,7,0,0,1,2.18,2.61,9.88,9.88,0,0,1,.86,4.44,8,8,0,0,1-2.4,6.21c-1.6,1.45-3.88,2.18-6.86,2.18H2V34H.16ZM2,18.69H12.36a8.12,8.12,0,0,0,3.37-.62,6.1,6.1,0,0,0,2.21-1.6,6.35,6.35,0,0,0,1.2-2.19,8,8,0,0,0,.37-2.4,10.33,10.33,0,0,0-.24-2,6.35,6.35,0,0,0-1-2.27,5.9,5.9,0,0,0-2.09-1.84A7.29,7.29,0,0,0,12.61,5H2Z" fill="#fff"/><path d="M24.6,3.36h1.82V34H24.6Z" fill="#fff"/><path d="M31.63,3.36h2.28L52.56,31.42h.09V3.36h1.82V34H52.32L33.54,5.67h-.09V34H31.63Z" fill="#fff"/><path d="M58.91,3.36H78.76V5h-18V17.24h17v1.63h-17V32.32H79V34H58.91Z" fill="#fff"/><path d="M93.16,3.36h2L106.81,34h-2l-3.72-9.81H87L83.23,34h-2Zm7.4,19.15L94.23,5.2h-.08L87.57,22.51Z" fill="#fff"/><path d="M108.53,3.36H121.1a14.14,14.14,0,0,1,2.75.3,7.37,7.37,0,0,1,2.82,1.22,7,7,0,0,1,2.17,2.61,9.74,9.74,0,0,1,.87,4.44,8,8,0,0,1-2.4,6.21q-2.4,2.17-6.87,2.18H110.35V34h-1.82Zm1.82,15.33h10.38a8.08,8.08,0,0,0,3.37-.62,6.14,6.14,0,0,0,2.22-1.6,6.35,6.35,0,0,0,1.2-2.19,8.33,8.33,0,0,0,.37-2.4,10.43,10.43,0,0,0-.25-2,6.5,6.5,0,0,0-1-2.27,6.08,6.08,0,0,0-2.09-1.84A7.35,7.35,0,0,0,121,5H110.35Z" fill="#fff"/><path d="M132.2,3.36h12.58a14.3,14.3,0,0,1,2.75.3,7.39,7.39,0,0,1,2.81,1.22,7,7,0,0,1,2.17,2.61,9.74,9.74,0,0,1,.87,4.44,8,8,0,0,1-2.4,6.21q-2.4,2.17-6.86,2.18H134V34H132.2ZM134,18.69h10.39a8.15,8.15,0,0,0,3.37-.62,6.1,6.1,0,0,0,2.21-1.6,6.35,6.35,0,0,0,1.2-2.19,8,8,0,0,0,.37-2.4,9.71,9.71,0,0,0-.25-2,6.15,6.15,0,0,0-1-2.27,6,6,0,0,0-2.09-1.84A7.35,7.35,0,0,0,144.65,5H134Z" fill="#fff"/><path d="M156.26,3.36h1.82v29h16.75V34H156.26Z" fill="#fff"/><path d="M176.94,3.36H196.8V5h-18V17.24h17v1.63h-17V32.32H197V34H176.94Z" fill="#fff"/><polygon points="8.28 54.43 23.13 54.43 23.13 48.41 8.28 48.41 8.28 44.34 24.45 44.34 24.45 37.96 0 37.96 0 65.69 24.8 65.69 24.8 59.3 8.28 59.3 8.28 54.43" fill="#fff"/><polygon points="55.34 37.98 46.53 37.98 41.09 45.77 35.83 37.98 26.61 37.98 36.44 51.2 25.85 65.67 34.81 65.67 40.83 57.16 46.73 65.67 56.14 65.67 45.56 51.24 55.34 37.98" fill="#fff"/><path d="M80.47,40.77a10.18,10.18,0,0,0-3.55-2.05A15.36,15.36,0,0,0,71.77,38H57.19V65.69h8.28V56.3h6.3a15.36,15.36,0,0,0,5.15-.76,10.09,10.09,0,0,0,3.55-2,7.72,7.72,0,0,0,2-3,9.41,9.41,0,0,0,0-6.77A7.85,7.85,0,0,0,80.47,40.77Zm-5.39,6.36a3,3,0,0,1-.37,1.6,2.59,2.59,0,0,1-1,.92,4.87,4.87,0,0,1-1.63.49,14.75,14.75,0,0,1-2.13.14H65.47V44h4.46a16.33,16.33,0,0,1,2.13.14,4.87,4.87,0,0,1,1.63.49,2.59,2.59,0,0,1,1,.92A3,3,0,0,1,75.08,47.13Z" fill="#fff"/><path d="M112.22,63.36a9.12,9.12,0,0,1-.32-1.54c-.07-.57-.12-1.14-.14-1.67s-.06-1.06-.09-1.5a15.41,15.41,0,0,0-.34-2.09,6.72,6.72,0,0,0-.85-2A6,6,0,0,0,109,52.87a5.5,5.5,0,0,0-.57-.36,6.83,6.83,0,0,0,2.4-2.12A7.79,7.79,0,0,0,112.06,46a7.25,7.25,0,0,0-.7-3.14,7.43,7.43,0,0,0-2-2.55,9.65,9.65,0,0,0-3.08-1.7,12.06,12.06,0,0,0-4-.61H85V65.69h8.28V55.46h6a5,5,0,0,1,3.15.77,4.16,4.16,0,0,1,1.2,2.54c.16,1,.29,2.12.37,3.24a9.83,9.83,0,0,0,.76,3.23l.2.45h8.92l-1.1-1.27A3,3,0,0,1,112.22,63.36Zm-8.44-16.52a2.6,2.6,0,0,1-.86,2.24,5,5,0,0,1-3,.73H93.31V44h6.61a5.11,5.11,0,0,1,3,.71A2.49,2.49,0,0,1,103.78,46.84Z" fill="#fff"/><polygon points="123.9 54.43 138.74 54.43 138.74 48.41 123.9 48.41 123.9 44.34 140.07 44.34 140.07 37.96 115.62 37.96 115.62 65.69 140.41 65.69 140.41 59.3 123.9 59.3 123.9 54.43" fill="#fff"/><path d="M164.73,50.6a13.36,13.36,0,0,0-3.21-1.3c-1-.26-1.85-.45-2.41-.54l-4.65-1a16.79,16.79,0,0,1-2.67-.77,2.28,2.28,0,0,1-1-.61,1.37,1.37,0,0,1-.2-.8,1.44,1.44,0,0,1,.27-.92,2.71,2.71,0,0,1,.85-.71,4.1,4.1,0,0,1,1.25-.43,10.58,10.58,0,0,1,3.65,0,5.27,5.27,0,0,1,1.64.54,2.66,2.66,0,0,1,1,1,3.35,3.35,0,0,1,.46,1.58l.05.72h8v-.78a7.9,7.9,0,0,0-1.13-4.28,8.91,8.91,0,0,0-3-2.87,13.33,13.33,0,0,0-4.17-1.58,21.29,21.29,0,0,0-9.06,0,13.4,13.4,0,0,0-3.92,1.56,9.29,9.29,0,0,0-2.87,2.7A6.86,6.86,0,0,0,142.52,46a6.37,6.37,0,0,0,.91,3.47,7.51,7.51,0,0,0,2.31,2.35,12.66,12.66,0,0,0,3.1,1.46c1.11.36,2.26.67,3.41.92s2.23.51,3.33.74a22.9,22.9,0,0,1,2.82.74,5.9,5.9,0,0,1,1.83,1,1.37,1.37,0,0,1,.52,1.13,1.57,1.57,0,0,1-.39,1.11,3.36,3.36,0,0,1-1.23.82,6.54,6.54,0,0,1-1.74.44,12.09,12.09,0,0,1-4.24-.13,6.22,6.22,0,0,1-1.93-.75A3.59,3.59,0,0,1,150,58.06h0a3.42,3.42,0,0,1-.45-1.83v-.78H141.5v.76a8.33,8.33,0,0,0,1.14,4.6A9.49,9.49,0,0,0,145.78,64a14.19,14.19,0,0,0,4.44,1.77,23.74,23.74,0,0,0,5.08.55,22.71,22.71,0,0,0,5.71-.65,13.39,13.39,0,0,0,4.23-1.85,8.37,8.37,0,0,0,2.67-2.94,7.81,7.81,0,0,0,.9-3.7,6.5,6.5,0,0,0-1.25-4.08A9.35,9.35,0,0,0,164.73,50.6Z" fill="#fff"/><path d="M195.79,53.06A9.35,9.35,0,0,0,193,50.6a13.36,13.36,0,0,0-3.21-1.3c-1-.26-1.85-.45-2.41-.54l-4.65-1A16.79,16.79,0,0,1,180,47a2.28,2.28,0,0,1-1-.61,1.37,1.37,0,0,1-.2-.8,1.44,1.44,0,0,1,.27-.92,2.71,2.71,0,0,1,.85-.71,4.1,4.1,0,0,1,1.25-.43,10.58,10.58,0,0,1,3.65,0,5.27,5.27,0,0,1,1.64.54,2.66,2.66,0,0,1,1,1A3.35,3.35,0,0,1,188,46.6l.05.72h8v-.78a8,8,0,0,0-1.12-4.28,8.91,8.91,0,0,0-3-2.87,13.33,13.33,0,0,0-4.17-1.58,21.29,21.29,0,0,0-9.06,0,13.4,13.4,0,0,0-3.92,1.56,9.29,9.29,0,0,0-2.87,2.7A6.87,6.87,0,0,0,170.74,46a6.37,6.37,0,0,0,.92,3.47A7.51,7.51,0,0,0,174,51.85a12.66,12.66,0,0,0,3.1,1.46c1.11.36,2.26.67,3.4.92s2.24.51,3.34.74a23.38,23.38,0,0,1,2.82.74,5.9,5.9,0,0,1,1.83,1A1.4,1.4,0,0,1,189,57.8a1.57,1.57,0,0,1-.39,1.11,3.36,3.36,0,0,1-1.23.82,6.54,6.54,0,0,1-1.74.44,12.09,12.09,0,0,1-4.24-.13,6.22,6.22,0,0,1-1.93-.75,3.59,3.59,0,0,1-1.22-1.23h0a3.42,3.42,0,0,1-.45-1.83v-.78h-8.05l0,.76a8.42,8.42,0,0,0,1.15,4.6A9.55,9.55,0,0,0,174,64a14.25,14.25,0,0,0,4.45,1.77,23.6,23.6,0,0,0,5.08.55,22.83,22.83,0,0,0,5.71-.65,13.39,13.39,0,0,0,4.23-1.85,8.37,8.37,0,0,0,2.67-2.94,7.81,7.81,0,0,0,.9-3.7A6.5,6.5,0,0,0,195.79,53.06Z" fill="#fff"/><path d="M227.13,52.63l22.51-16.56a49.25,49.25,0,0,0,3.87-3.31A20.64,20.64,0,0,0,256.6,29a17.2,17.2,0,0,0,2-4.47,19.24,19.24,0,0,0,.73-5.51,18,18,0,0,0-1.83-8.32,16.68,16.68,0,0,0-5.08-5.95,23.14,23.14,0,0,0-7.64-3.58A35.23,35.23,0,0,0,235.4,0a39.89,39.89,0,0,0-10.1,1.21,24.9,24.9,0,0,0-8.12,3.62,18.85,18.85,0,0,0-5.55,6,19.43,19.43,0,0,0-2.4,8.55l15.7,1a8.73,8.73,0,0,1,2.77-5.73,9.6,9.6,0,0,1,6.86-2.33A11.13,11.13,0,0,1,241,14.19a5.78,5.78,0,0,1,2.72,5,6.81,6.81,0,0,1-2.2,5,50.31,50.31,0,0,1-4.4,3.84L208.28,50.21V64.44H260V52.63Z" fill="#fff"/><path d="M24.53,74.46h12.8A9,9,0,0,1,43,76.14a6.11,6.11,0,0,1,2.14,5.09,6.25,6.25,0,0,1-1,3.53A6.35,6.35,0,0,1,41.39,87v.07a5.74,5.74,0,0,1,3.69,2.39,8.82,8.82,0,0,1,.7,7.64,5.88,5.88,0,0,1-1.73,2.41,8.71,8.71,0,0,1-3,1.61,14.58,14.58,0,0,1-4.39.59H24.53Zm4.61,11.43h7.53a4,4,0,0,0,2.77-1,3.54,3.54,0,0,0,1.1-2.81,3.65,3.65,0,0,0-1-2.91,4.38,4.38,0,0,0-2.88-.84H29.14Zm0,12H37.3a4.44,4.44,0,0,0,3.26-1.13,4.21,4.21,0,0,0,1.16-3.19,4,4,0,0,0-1.16-3.11,4.56,4.56,0,0,0-3.26-1.09H29.14Z" fill="#fff"/><path d="M50.51,74.46h4.61V97.62h13.4v4.13h-18Z" fill="#fff"/><path d="M82.91,73.81a11.74,11.74,0,0,1,9.26,4.25,14,14,0,0,1,2.49,4.54,18,18,0,0,1,0,11.05,14,14,0,0,1-2.49,4.55,11.66,11.66,0,0,1-4,3.07,13,13,0,0,1-10.59,0,11.75,11.75,0,0,1-4-3.07,14,14,0,0,1-2.49-4.55,18.18,18.18,0,0,1,0-11.05,14,14,0,0,1,2.49-4.54,11.74,11.74,0,0,1,9.27-4.25Zm0,3.9a7.14,7.14,0,0,0-3.64.88,7.28,7.28,0,0,0-2.49,2.35,10.85,10.85,0,0,0-1.42,3.35,16.09,16.09,0,0,0,0,7.64,10.8,10.8,0,0,0,1.42,3.34,7.31,7.31,0,0,0,12.25,0,10.8,10.8,0,0,0,1.42-3.34,16.09,16.09,0,0,0,0-7.64A10.85,10.85,0,0,0,89,80.94a7.28,7.28,0,0,0-2.49-2.35A7.12,7.12,0,0,0,82.91,77.71Z" fill="#fff"/><path d="M111,73.81a12,12,0,0,1,5.3,1.15,11.83,11.83,0,0,1,4,3.1,13.61,13.61,0,0,1,2.49,4.54,18,18,0,0,1,0,11.05,13.65,13.65,0,0,1-2.49,4.55,11.62,11.62,0,0,1-4,3.07,13,13,0,0,1-10.59,0,11.56,11.56,0,0,1-4-3.07,14,14,0,0,1-2.49-4.55,18,18,0,0,1,0-11.05,14,14,0,0,1,2.49-4.54,11.77,11.77,0,0,1,4-3.1A11.92,11.92,0,0,1,111,73.81Zm0,3.9a7,7,0,0,0-6.12,3.23,10.87,10.87,0,0,0-1.43,3.35,16.09,16.09,0,0,0,0,7.64,10.81,10.81,0,0,0,1.43,3.34,7,7,0,0,0,2.49,2.35,7.31,7.31,0,0,0,9.76-2.35,10.8,10.8,0,0,0,1.42-3.34,16.09,16.09,0,0,0,0-7.64,10.85,10.85,0,0,0-1.42-3.35,7.28,7.28,0,0,0-2.49-2.35A7.19,7.19,0,0,0,111,77.71Z" fill="#fff"/><path d="M127.78,74.46H138.7a12,12,0,0,1,5.24,1.07,9.86,9.86,0,0,1,3.62,2.93,12.62,12.62,0,0,1,2.08,4.33,21.11,21.11,0,0,1,0,10.63,12.67,12.67,0,0,1-2.08,4.34,9.83,9.83,0,0,1-3.62,2.92,12,12,0,0,1-5.24,1.07H127.78Zm4.61,23.39h4.54a11.33,11.33,0,0,0,4.41-.74A6.51,6.51,0,0,0,144,95,7.57,7.57,0,0,0,145.36,92a21.24,21.24,0,0,0,0-7.68,7.55,7.55,0,0,0-1.33-3.1,6.41,6.41,0,0,0-2.69-2.06,11.13,11.13,0,0,0-4.41-.75h-4.54Z" fill="#fff"/><path d="M164.68,74.46h12.58q4.35,0,6.53,2A6.92,6.92,0,0,1,186,81.84a8.15,8.15,0,0,1-.55,3.23,6.94,6.94,0,0,1-1.3,2.06,5.07,5.07,0,0,1-1.45,1.13c-.48.23-.83.38-1,.46v.07a4.79,4.79,0,0,1,1.27.39,3.78,3.78,0,0,1,1.27,1,5.54,5.54,0,0,1,1,1.74,7.91,7.91,0,0,1,.39,2.68,24.41,24.41,0,0,0,.35,4.37,5.76,5.76,0,0,0,1.09,2.81H182a4.65,4.65,0,0,1-.61-2c-.06-.71-.09-1.4-.09-2.06a20.05,20.05,0,0,0-.22-3.23,5.85,5.85,0,0,0-.81-2.26,3.54,3.54,0,0,0-1.61-1.32,6.86,6.86,0,0,0-2.6-.42h-6.79v11.24h-4.61Zm4.61,12.42h7.57a4.66,4.66,0,0,0,3.35-1.09,4.26,4.26,0,0,0,1.15-3.26,5.27,5.27,0,0,0-.37-2.12,3.06,3.06,0,0,0-1-1.28,3.72,3.72,0,0,0-1.47-.62,9.74,9.74,0,0,0-1.72-.15h-7.49Z" fill="#fff"/><path d="M190.66,74.46h19v4.13H195.27v7.15h13.28v3.9H195.27v8h14.61v4.13H190.66Z" fill="#fff"/><path d="M213.9,74.46h10.93a12,12,0,0,1,5.24,1.07,9.82,9.82,0,0,1,3.61,2.93,12.64,12.64,0,0,1,2.09,4.33,21.11,21.11,0,0,1,0,10.63,12.69,12.69,0,0,1-2.09,4.34,9.8,9.8,0,0,1-3.61,2.92,12,12,0,0,1-5.24,1.07H213.9Zm4.62,23.39h4.53a11.26,11.26,0,0,0,4.41-.74,6.47,6.47,0,0,0,2.7-2.07A7.71,7.71,0,0,0,231.49,92a21.24,21.24,0,0,0,0-7.68,7.69,7.69,0,0,0-1.33-3.1,6.38,6.38,0,0,0-2.7-2.06,11.07,11.07,0,0,0-4.41-.75h-4.53Z" fill="#fff"/></svg>