<svg xmlns="http://www.w3.org/2000/svg" width="300" height="51" viewBox="0 0 300 51"><path d="M273.92,8.56c.16.69-.76,6.93,1.18,5,.64-1.5.83-3.17,2-4.38,2.29-3.59,6.7-6.32,10.38-8.2,4.19-.19,12-.85,11.66,5.25-.32,1.21-.26,3.41-2.08,3.19-8.75-3.63-13.43,3.23-9.54,11.08,2.62,2.53,5,.93,4.31-2.64.11-2.88,3.82-2.7,5.81-2.54,2.55-.67,3,7,1.33,7.69-5.09,4.17-1,12.91-3.37,18.25-3.1,1.51-.65-9.85-3.33-10.85-1.74-.87-7.57-2.28-8.62-.18-.43.92-.52,2.66-1.86,2.52-.56,0-.69-.46-.71-.91-.4-2.57-.91-5.6-2.92-7.39-1.05-1.81-2.38-3.55-2.54-5.74,0-1.07-1-1.22-1.1-.07,0,.19-.1.41-.29.45-1.6,1.42-.1,4.51-.77,6.53-1.37,3.35-3,6.52-3.9,10.1-.32.8,0,4.86-1.29,4.57s-1.29-2.66-1.61-3.85C266.57,32,262,30,260.45,26.18c-3.41-7.13-2.83-1-5.21,2.05-1.64.84-1.1,17.27-3,16.23-1.64-.91-1.45-9-1.9-9.77-.57-2.11-3.09-2.92-3.06-5.23a44.5,44.5,0,0,0-1.13-10.52c0-1.75,1.7-3,.83-4.76a1.59,1.59,0,0,1,.06-1.4c.72-1.13.36-2.32.24-3.49-.34-1.54.46-3,.07-4.48-.69-5.37.1-4.1,4.74-4.12.7-.37,3.26,2.8,3.68,3.55,1.67,1.32,2.32,3.53,3.78,5.12,1.15,1.67,1.66,5.42,4.39,3.2a3.47,3.47,0,0,0,.81-3.73c-.73-2-.16-3.94.05-5.95-.07-1.95,2.52-2.12,4-2.36C273.45.54,274.35,4.67,273.92,8.56Z" fill="#fff"/><path d="M202,3.47c-.22-1.3-2.26-2.47-3.26-1.92A4.14,4.14,0,0,1,196.7,2c-6.09-.95-4.21,5.45-5,9.08-.11,2.52-1.84,10-1.72,10.93,1.34,1.71.63,5.11,2.41,7,.55.88.38,11.28,1.64,11.47s.75-8,1.88-9.78c1.79-2.12,6,.25,5.07-3.84-.61-4.28,1.47-8.41.63-12.73A71.1,71.1,0,0,0,202,3.47Z" fill="#fff"/><path d="M223.76,1.31c-1.72.28-.7,1.87-2.91,3.52-1.14,1.52-1.87,7.58-4.5,5.38-3.53-8.38-1.52-11.11-12.14-8.35-.42.26-.67,1.65-.36,1.79C209.42,9.92,206.61,19.39,209,27c1.4,3.86,1.55,9.3,2.92,9.77.49.16.88-4.66,1.32-5.49,1-1.49,4.38-1.5,6.07-1.64,2.15.21,3.26,3.83,3,5.66.05.72-.14,3.66.59,4,1-.9.24-4.75.54-6.11.27-4.29,2.4-8,3.32-12.16,1.13-4.6,1.57-9.46,3.69-13.78C232.17,3.34,227.17.42,223.76,1.31Z" fill="#fff"/><path d="M243.84,12.11c-.38,2.36.7,4.52.67,6.8a34.4,34.4,0,0,0-1,8.56c-.39,3-3.23,2.78-3.41,12.1,0,.72-.81,2.55-1.41,1.31-.31-3.08-.5-10.83-4.18-11.71A2,2,0,0,1,233,27.71c-1.28-4.6-.79-9.69-.45-14.44.11-3.12-.86-7.93.47-9.5,2.46-2.87,5.91-.54,8.58-2.63C244.49-.46,243.54,10.38,243.84,12.11Z" fill="#fff"/><path d="M109.57,6.45c-.21,6.16-.11,12.35-.4,18.45-2.32,5.2-1.84,12.53-4.36,17.58-1.17.84-1.73-3.38-1.78-4.22.25-7-5.14-7.07-6.86-12.55-1.32-4.25-3.42-4.37-3.84.29-.44,2.51-3,4.15-2.37,7-.09,2.87-.84,2-2.23.39a2.52,2.52,0,0,0-2.27-.71c-2.47.23-2.64-2.21-3.07-3.95.4-8.3.62-17.18,1.13-25.7-.13-2,1.36-1.57,2.76-1.68C91.54-.49,95.79,14.93,100,13.73,102.63,11,97.63,3.05,101.7,1.05,106.23-.07,110.54.79,109.57,6.45Z" fill="#fff"/><path d="M112.48,24.41c-.17-3.58,1.11-7.69.76-11.45,0-3.69-2-7.8.34-11.15,1.51-2,4.24-1.54,6.44-1.19,1.39.37,1.57,2.14,1.73,3.36.81,9.83,13.8-16.94,15,4.77,0,1.26-.65,2.74-2.15,2.78-7.15,1-2.07,10.53,2.24,12.21,2.08,1.6.55,5.05,1.73,7.32.73,1.23-1.26,9.19-2.94,6-.49-2.39-3.44-2.35-5.4-2.75-1.81-.33-1.06-3.14-2-4.38-.92-1.67-2.94-5.71-5.17-3.56-3.5,4.92-4.9,5-3.92,11.35-1.52,3.63-2.07-3.92-1.93-4.95C116.62,28.57,111.38,30.63,112.48,24.41Z" fill="#fff"/><path d="M15.68,37.06c.26-1.16-.47-6.55-2-3.7-.9,2.11,0,4.39-.26,6.61-1.52,2.65-1.61,6.12-1.75,9.1-.19,1.2-1.32,1.51-1.27,0-.23-5.19-.09-10.85-1.13-16,.09-2.39-2.21-4.22-1.76-6.46C7.24,23.25,9,15.4,5.74,13.64c-2.67-.14-1.61,5-4.17,5.09C.51,18.26,1,16.56.37,15.62-.8,11.36,1.22,7.3.93,3c.18-1.38.66-1.79,2-1.66,4.62.39,9.31,0,14,.36,2.11.44,6.66-1,7.92.55.93,1.92,2.41,12.47-.89,12.2-1.25-.52-.75-2.49-1.56-3.5-.65-1.3-3.3-1.41-3.56.14-1.11,5.13.73,10.4-.4,15.61-.5,4.26-.36,8.59-1.37,12.79-.12.4-.16.91-.76.84C15.14,39.86,15.87,38,15.68,37.06Z" fill="#fff"/><path d="M53.41,26.45c1.68-7.32,5.43-13.9,7.74-21,.52-1.1.45-2.86,1.81-3.35C73.71-.22,73.88,3.57,75.83,12.81c.48,5.09,2.66,9.77,4.88,14.31a1.31,1.31,0,0,1-.22,1.7,5.93,5.93,0,0,0-1.6,5.06c-.42,1.58.7,14.63-2.12,11.89C74,41.06,77,33.35,72.69,29.48A10.27,10.27,0,0,1,69,25.16c-3.55-8.89-4-2.19-6.77,2.11-.89.75-1.42,1.92-2.71,2.25-2,2.78-.91,8.81-1.95,12.28-1,2.53-1.41-1-1.56-1.95C55,35.64,53.24,30.87,53.41,26.45Zm15.7-16c-.58-3.25-4.67-2.5-5.06.47C63.63,14.05,69.53,14.41,69.11,10.46Z" fill="#fff"/><path d="M152,17.78c.43-2.38-3-3-4.94-3.54A17.06,17.06,0,0,0,143,12.31c-3.18-1.69-2.18-6.87-.56-9.38,3.4-4.4,10.63-1.62,15.44-1.57,2.37.73-.41,5.43-.58,7.24-1,2.16-1.88-2.95-5.08-1.54-3.15,1.81,2.53,3.32,3.35,4.75,2.76,3.32,7.55,7.23,6.31,12-1.23,4.54-5.73,8.86-5.81,13.75.08,4.43-2.65,3.87-2.55-.25-3.59-9.19-4.53,1.7-5.91,1.46-1-.83,0-4.29-.38-5.47-.7-4.45-8.54-4.29-7.52-9.6.35-2.85-.46-8.18,4-4.35C146,22.18,152.07,23.14,152,17.78Z" fill="#fff"/><path d="M187.84,19.31c.33,3.36-2.55,5.61-3.88,8.43-2.26,3.2-1.3,16.89-2.5,20.45-1.62,2.87-.82-17.72-4.06-18.23-5-1.85-5.18,10.4-5.59,13.59-2,6.16-2.05-12.29-2.74-13.58-1.49-5.36-7.46-10.34-5.47-16.28.77-6.35,7.51-9.34,12.61-12,3.56-.75,9.63-.27,10.57,4-.11,1-.31,4.1-1.91,2.85-1-.84-2.23.07-3.38-.15-7.54-.59-9.83,8.72-5.34,13.19,1.92,1.1,4.76-.44,4.33-2.85,0-2.48.39-2.81,2.9-2.85C186.16,15.8,188.35,15.9,187.84,19.31Z" fill="#fff"/><path d="M35.33,1.17C42.69,0,36.5,8.86,41.51,8.51c3.81-2.89-.83-7.71,7.7-7.34,5.87.51,1,28,.66,32.65,0,1.8-2,2-1.82,0-.22-3-1.15-5.74-1.48-8.67-1.45-4.08-1-8.35-6.8-7.71-6.11,1.31,1.81,9.89-2.31,13.16-1.05.63-2.75-1.14-4.3-1-2.87-1.36-2.17-7.21-2.79-9.94a44.4,44.4,0,0,1-.05-16C30.31,1.05,33.28,1.11,35.33,1.17Z" fill="#fff"/></svg>