<svg xmlns="http://www.w3.org/2000/svg" viewBox="0 0 250 118"><path d="M74.63 18.77c.49.52.62-.04.68-.51.9-7.13-.05-10.18 7-14.01 7.87-4.27 24.51-5.56 29.32 3.89.43.85 1.81 5.71 2.1 5.82.75.27.44-.5.52-.85 1.48-5.94 1.22-7.98 7.12-11.14 5.29-2.84 12.74-1.68 12.52 5.44 1.38-1.18 2.05-3.14 3.43-4.31.55-.46 4.18-2.72 4.74-2.83 4.56-.93 9.85.94 11.65 5.42.57.14 4.31-2.81 5.32-3.26 6.01-2.69 12.28-.47 15.65 5.01.48.79.46 2.5 1.59 1.47.42-.39.82-1.23 1.54-1.82 2.07-1.7 5.87-4.12 8.6-4.17 3.03-.06 4.32 1.03 6.2 3.12.44.49 1.62 2.85 2.23 2.41.26-1.05.99-2.5 1.73-3.27.84-.87 5.24-3.42 6.4-3.59 10.55-1.46 10.85 8.44 11.34 16.14.7.14.49-.26.67-.69C218.97 7.67 224.49.17 236 1.21c8.38.76 16.38 10.41 13.33 18.81-1.66 4.57-9.03 8.06-13.63 5.92-1.08-.5-1.53-1.47-2.62-1.68l-1.03 5.85c1.45-.38 1.9-1.42 3.5-1.83 2.27-.57 8.83-.67 10.97.28 5.86 2.58 2.31 13.89-.2 18.04-6.16 10.19-22.42 13.03-29.5 2.34-.83-1.25-2.53-5.99-2.85-6.1-.74-.25-.45.52-.55.81-.71 2.16-1.21 4.5-2.57 6.39s-6.17 4.86-8.59 4.86c-.84 0-3.93-.55-4.62-.91-2.34-1.23-3.29-5.05-4.59-7.12-.27-.43-.32-.73-.95-.6-.02 1.44-.73 3.3-1.57 4.45-.71.96-4.57 3.4-5.76 3.88-4.69 1.87-9.01-1.29-10.67-5.65-2.44-6.4-1.15-14.55-1.79-21.26-1.89 1.72-.55 2.36-.48 3.95.05 1.21-.91 7.32-1.6 8.09-.46.51-1.47.55-1.56.92-.63 2.59.96 10.02-.65 11.91-.61.71-1.47.35-1.99.68-.34.21-.48 1.29-1.37 1.56-1.53.45-6.69.41-7.26-1.55l-.41-10.87c-2.27-1.02-2.69-5.31-2.78-7.63-.05-1.23.44-2.86.3-3.71-.2-1.22-1.88-3.17-2.2-4.71-.48-2.33.18-5.01-1.01-7.24l-5.35 8.4c3.55 6.43 11.02 17.3 4.84 24.12-1.15 1.27-5.15 3.63-6.81 3.87-4.61.66-8.06-5.29-9.74-8.86-.73-.7-1.13 2.22-1.31 2.64-1.49 3.52-7.76 6.01-11.52 5.52-4.73-.61-4.88-2.5-6.88-5.86-.93-1.56-1.77.79-2.51 1.47-1.34 1.24-6.32 4.45-8 4.74-2.91.5-4.78-.37-6.94-2.19l-2.96-3.23c-.69 1.83-3.5 3.51-5.27 4.38-4.71 2.32-11.91 1.29-14.03-4.03-3.81 3.03-7.89 5.04-12.85 3.55-4.09-1.23-3.93-3.96-5.19-7.2-.32-.83-1.29-.63-1.61-.15-.17.24-.56 3.11-1.02 4.14-1.09 2.46-5.64 5.29-8.26 5.51-12.74 1.06-11.96-13.61-11.2-22.36-3.95 2.42-7.98 5.04-12.72 5.52.17 3.84 1.32 6.15-.19 9.96-1.15 2.9-6.31 5.82-9.34 6.16-4.66.52-9.07-1.35-10.38-6.08-2.24-8.01-3.09-32.8-.29-40.32C4.91.38 20.44-.23 27.7 2.15c6.36 2.09 7.91 5.38 11.02 10.67.11.2.07.72.59.44.37-.2 1.64-3.07 2.1-3.76 4.5-6.74 11.53-10.72 19.8-9.16 9.61 1.81 11.97 9.88 13.42 18.43zM56.3 1.66C42.85 2.78 39.35 22.59 38.81 33.39c-.39 7.84-1.21 20.97 10.42 19.01 3.05-.51 4.28-3.9 4.39-6.63.03-.8-.99-2.46.23-2.86 1.31-.44 6.84-1 7.28.52.6 2.13-.27 3.53 1.84 5.73s8.77 2.27 10.37-.21c.93-1.44 1.52-6.78 1.64-8.69.47-7.59-1.5-27.48-6.05-33.52-2.94-3.89-7.87-5.48-12.62-5.09zm87.14-.04c-3.78.41-7.37 9.07-8.03 12.31-.29 1.42.22 3.33-.86 4.3-1 .9-2.5.19-2.73-1.03-.86-4.46 3.14-13.77-3.36-14.88-6.06-1.03-8.28 2.27-9.57 7.48-2.15 8.7-3.56 29.74.11 37.75 1.55 3.39 4.16 4.28 7.78 3.85 4.29-.51 5.35-2.95 5.4-7.01.02-1.71-1.21-6.97-.37-7.93.77-.88 2.49-.1 3.07.73.48.69.67 2.1 1.12 3.01 1.37 2.76 5.72 11.33 8.75 11.9 2.42.46 4.77-.93 5.84-3.08 3.37-6.71-3.81-15.96-6.65-21.8 3.39-5.45 10.71-14.69 7.93-21.46-1.18-2.86-5.56-4.47-8.42-4.17zM19.05 50.3c3.51-3.38.54-9.27 1.31-13.32 7.72-2.08 14.81-2.79 17.31-11.61 3.31-11.68-4.24-22.04-16.25-22.8-2.76-.17-11.03.51-13.26 1.92-2.48 1.56-3.3 7.2-3.47 9.95-.51 7.88-.71 26.23 1.81 33.32 1.62 4.56 9.55 5.44 12.56 2.54zm81.19-.69c3.67 3.66 7.24 2.86 10.75-.55 4.91-4.78.42-10.38-2.95-14.63-.43-.54-1.92-1.7-2-2.12-.21-1.06 3.05-3.21 3.88-4.28 4.84-6.21 2.88-20.09-4.49-23.67-5.16-2.51-13.6-1.79-19.01-.15-6.44 1.96-6.41 6.41-6.95 12.32-.77 8.36-1.36 20.28-.71 28.57.29 3.74 1.08 5.46 4.83 6.53 5.3 1.52 9.89-.64 10.02-6.54.03-1.27-.75-2.93-.02-3.79l.87-.44c2.2 2.68 3.32 6.27 5.8 8.75zM170 29.03c.33-1.55 1.61-2.83 2.03-4.34.56-2 .22-4.09.52-6.02.26-1.69 1.39-3.29 1.6-5.29 1.43-13.92-21.09-13.92-19.89-.34.18 2.06 1.22 3.53 1.6 5.28.4 1.87.16 4.4.59 6.29.33 1.46 1.76 2.93 2.11 4.49l11.45-.08zm10.16 20.92c2.69 2.6 7.43 2.63 9.37-.89 1.42-2.58 1.7-7.58 1.53-10.51-.12-2.07-1.16-5.41-1.06-7.23.03-.52.08-.9.55-1.2l1.16.55c1.68 4.47 3.13 9.11 5.15 13.44 2.14 4.6 3.38 8.38 9.45 7.26 3.96-.73 5.55-7.43 6.06-10.8 1.19-7.81 1.19-24.55-.87-32.07s-11.93-7.16-12.82.15c-.64 5.23 1.83 11.49 1.91 16.55.02 1.09-.63 1.62-1.61.98-.42-.28-1.62-5.58-1.96-6.64-1.9-5.91-6.09-19.68-14.73-13.5-3.81 2.73-4.54 7.18-4.99 11.53-.61 5.84-.49 12.13-.35 17.89.1 4.22-.03 11.34 3.23 14.5zm50.77-46.92c-13.82 1.87-15.91 28.63-12.33 38.98 5.66 16.34 27.71 12.82 29.29-4.49.46-5.05 0-7.93-5.66-8.1-1.24-.04-5.43.18-6.48.45-1.53.38-2.12 2.09-2.25 3.49.16.82 2.74 1.13 2.98 2.87.3 2.13-5.17 5.33-6.52 1.31-.84-2.5.46-9.19 1.15-11.96.52-2.09 1.7-6.22 2.63-8.04s2.66-1.38 3.06.44c.34 1.59-.35 2.87 1.27 4.24 3.35 2.83 9.34.56 10.09-4.05 1.57-9.79-8.13-16.37-17.22-15.14zM112.52 37.35v-9.63l-4.46 4.3 4.46 5.33zm47.54-6.2h-2.07l1.52 7.61 9 .31.69-.35 1.2-7.57h-2.07l-.77 6.11c-.78.78-5.22.42-6.48.27-.82-.54-.83-5.18-1.02-6.38zm7.92 0h-7.23l.39 5.29.52.51c1.03-.06 5.04.39 5.49-.27l.84-5.53zm-.35 9.64h-6.89v8.09c0 .12.36 2.23.4 2.35.47 1.45 6.49 1.22 6.49.06V40.8zM141.8 68.31c1.1-1.64 1.91-1.77 3.41-2.61.5-.27.71-.89 1.31-1.1 2.16-.75 16.5-2.09 18.84-1.77 3.04.41 4.68 2.5 4.86 5.48 3.21-1.68 5.79-3.48 9.4-4.38 6.77-1.69 20.88-1.21 26.26 3.85.69.65 1.69 2.73 2.23 2.59.11-.03 1.11-1.38 1.49-1.69 6.82-5.69 16.85-9.99 24.7-3.48 4.12 3.41 6.36 7.24 2.72 12.03-.97 1.28-5.12 4.16-6.61 4.43-.83.15-1.91-.61-1.8.23 5.21 3.69 11.05 7.64 12.01 14.5s-.54 11.07-5.84 15.07c-7.94 5.99-16.06 7.98-25.12 2.79-3.65-2.09-5.61-6.08-5.47-10.3.12-3.51 3.94-5.08 6.69-6.25 2.2.35 4.31 2.32 6.35 2.79.48.11 1.19.52 1.05-.36-2.35-2.2-5.47-3.43-7.88-5.55-3.78-3.32-5.69-8.28-6.24-13.21l-7.21 2.28c.67 8.25 3.89 20.79-.56 28.32-4.16 7.04-15.46 6.87-18.33-1.26-1.57-4.45-.69-16.37-.44-21.62.05-.92.92-5.79.7-6.01-4.38.12-8.82-1.23-10.26-5.76-.27-.83-.44-3.48-.94-3.52-2.26 1.09-4 2.66-6.57 3.06l-.48 3.61.69.39c6.25-3.69 14.07.88 10.11 8.37-1.47 2.79-6.37 5.23-9.29 6.21l-.17 2.55c.15.65 3.11.15 3.95.26 2.84.36 4.89 3.03 4.61 5.89-.62 6.26-9.8 12.47-15.61 13-6.27.57-10.74-1.31-13.77-6.87-.73.63-.85 1.64-1.4 2.38-.74.98-4.8 3.61-6 3.98-5.87 1.85-8.64-4.36-11.2-8.44-.69-.14-.5.26-.67.69-.73 1.86-.4 2.86-2.28 4.28-6.65 5.03-15.75 4.32-17.38-4.97-.39 0-3.17 3.32-3.98 3.94-11.3 8.65-23.98 5.54-30.01-7.14-.24-.51-.64-2.25-.8-2.3-.72-.23-.46.41-.56.8-1.66 6.42-.91 8.61-7.57 12.07-3.64 1.89-9.33 1.17-11.27-2.78-1.18-2.41-1.98-10.37-2.14-13.34-.33-6.1.22-12.33.18-18.43-2.33 1.76-5.22 1.47-7.78 2.63.77 8.32 3.9 20.45-.38 28.11-1.29 2.32-5.74 5.42-8.38 5.42-13.07.01-10.8-12.64-10.49-21.52.15-4.22-.11-8.39.68-12.57-7.9 1.62-14.96-8.91-8.39-14.4 8.42-7.04 25.3-7.49 34.54-1.92 1.37.83 2.68 1.97 3.14 3.58h.51c.84-1.14 1.68-1.87 2.82-2.69 3.1-2.24 6.08-3.48 9.98-3.37 6.19.17 5.4 6.97 5.63 11.57 1.36-1.68 1.99-3.93 3.3-5.82 2.79-4.02 8.85-7.54 13.75-7.94 8-.66 15.58 4.05 17.39 12.04.45.1.41-.36.51-.68 1.65-5.5 1.96-7.59 7.51-10.4 4.99-2.53 12.4-.65 12.13 5.92 1.01-1.5 1.71-2.9 3.09-4.13.96-.86 4.03-2.96 5.17-3.1 5.25-.63 10.23.97 11.55 6.54zm-23.18 43.26c.69-.69 1.49-4.85 1.5-5.93.03-2.57-2.79-10.71 2.55-7.05 1.57 3.68 5.32 12.29 8.67 14.39 2.26 1.41 4.93.74 6.46-1.34 4.86-6.63-3-16.87-6-22.87 3.79-6.19 9.16-12.1 8.27-19.95-.28-2.47-1.96-4.26-4.29-5.01-1.69-.54-4.51-1.09-6.03-.14-3.45 2.16-6.11 9.97-6.81 13.84-.12.64.47 1.66-.33 2.17-1.16.73-2.62.35-3.04-1.01-.33-5.75 3.72-15.28-5.46-15.05-6.89.17-7.7 8.13-8.46 13.5-1.06 7.49-2.22 26.69 1.74 32.94 1.45 2.29 4.02 3.16 6.65 2.98.88-.06 4-.92 4.56-1.47zM85.36 76.63c2.85-.63 2.23 1.82 3.03 3.23 1.21 2.14 4.94 3.67 7.35 3.17 1.85-.38 4.08-3.1 4.36-4.93 2.04-13.03-17.06-19.46-24.92-9.41-8.36 10.69-8.56 43.04 9.28 44.7 5.71.53 13.07-.96 15.73-6.64 1.24-2.65 2.38-10.15.12-12.29-3.99-3.77-7 1.17-9.86 3.25-2.65 1.93-5.97 3.27-6.52-1.34-.41-3.39.18-7.61.37-11 .16-2.96-.45-5.96 1.07-8.73zm147.93-10.24c-8.61-6.73-23.57-.08-24.66 10.7-.77 7.63 2.65 12.72 8.56 16.9 1.32.93 5.17 2.59 5.48 4.15.73 3.71-2.64 4.72-5.71 4-2.44-.57-7.15-5.01-8.16-.81-.97 4.04 1.11 8.21 4.69 10.12 6.79 3.63 13.58 3.29 19.91-1.03 7.96-5.44 7.47-16.06.72-22.34-2.45-2.28-9.26-5.96-10.63-8.31-1.76-3-.31-7.76 3.76-6.5 2.54.78 1.03 3.78 3.23 4.69 3.44 1.42 7.18-2.81 6.73-6.02-.2-1.45-2.74-4.64-3.92-5.56zM24.8 111.55c1.78 1.77 6.7 2.96 8.96 1.8 1.37-.7 2.49-2.85 2.95-4.28 2.74-8.39-.15-17.33-.67-25.79-.03-.52-.11-1.18.06-1.66.5-1.44 8.28-1.88 9.92-2.82 2.09-1.2 1.68-7.09.36-8.93-2.77-3.89-13.57-5.43-18.1-5.35-3.95.07-14.61 1.81-15.58 6.46-1.31 6.31 4.88 9.9 10.4 8.74 1.19.28-.07 4.63-.14 5.64-.41 5.59-1.49 19 .32 23.75.3.79.94 1.86 1.52 2.44zm122.63 0c3.27 2.98 10.2 2.85 14.02 1 3.31-1.61 9.33-7.91 6-11.52-1.91-2.07-4.86-.37-5.99-.87-2.61-1.14-1.71-6.11-.91-8.13 1.09-.78 2.25.06 3.43.01 2.67-.11 5.67-2.65 6.05-5.34.62-4.45-2.52-6.07-6.61-5.23-1.6.33-2.54 2.47-4.39.45-.8-.88-.48-4.52-.31-5.83.48-3.59 1.83-2.27 4.27-2.61 2.7-.38 4.93-1.34 5.31-4.33.89-6.95-7.71-4.31-11.86-3.93-2.66.24-6.07.23-8.6.7-2.39.44-3.27 6.47-3.58 8.47-1.15 7.51-2.37 28.77 1.38 34.99.21.35 1.49 1.9 1.79 2.17zm36.51 0c2.76 2.56 8.57 3.48 10.85-.11 4.76-7.48.42-21.46.46-29.83 2.72-2.59 10.25-.71 11.16-5.02.8-3.82 0-7-3.56-8.87-7.02-3.68-17.9-4.15-25.3-1.39-3.86 1.44-6.6 3.21-5.62 7.85 1.11 5.24 6.34 5.84 10.84 5.86-.28 3.59-.8 7.21-1 10.81-.26 4.81-.98 14.29.76 18.51.24.58.99 1.78 1.43 2.19zM59.74 66.01c-5.35.51-8.04 4.1-9.14 9.1-1.71 7.8-1.67 26.14.41 33.82 1.28 4.73 7.79 5.78 10.86 2.56 2.66-2.78 3.49-12.53 3.79-16.52.53-7.01.53-16.06 0-23.05-.35-4.56-.92-6.4-5.92-5.92zm79.3 31.55l.34-16.86c-2.27 2.28-3.82 5.37-5.52 8.11-.04.47 3.84 7.42 4.41 8.31.22.34-.03.62.77.44zm-37.89-16.51c-1.28.49-1.79 1.83-2.98 2.69-4.25 3.08-7.79 3.86-12.17.4-.42.54-.5 10.49-.37 11.89.07.7.31 2.26 1.39 1.71s2.3-2.14 3.34-2.88c1.41-1 5.23-3.59 6.79-3.49.64.04 3.13 1.22 3.31 1.02l.69-11.35z" fill="#fff"/><path d="M56.97 13.33c1.51-.32 1.81.18 2.08 1.56.47 2.43.7 6.67.77 9.21.04 1.33.25 6.51-.68 7.23-4.41 1.24-5.35.65-5.17-3.79.11-2.67.95-10.77 1.73-13.06.25-.73.46-.98 1.27-1.15zM94.17 15.4c1.91-.4 2.78.38 3.88 1.81 1.6 2.07 2.4 4.36.84 6.69-.94 1.41-6.44 6.08-7.03 2.94-.25-1.33-.21-7.85.01-9.26.19-1.19 1.15-1.94 2.3-2.18zm-.6 10.25c2.78-.8 1.97-4.86 0-6.19v6.19zM20.02 13.07c1.92-.16 4.85 1.52 5.27 3.53.51 2.45-.21 3.98-1.5 5.91-.56.84-4.44 5.9-4.96 2.96.03-2.88-.57-5.72-.36-8.62.09-1.22.13-3.67 1.55-3.78zM162.73 4.75c3.13-.43 6.65.72 8.5 3.37 1.26 1.79 2.42 5.8-.65 6.19-2.45.31-10.69.32-13.12 0-.88-.12-1.34-.28-1.52-1.23-.77-3.98 3.01-7.82 6.79-8.33zm-5.72 8.81c.22.14 3.12.13 3.51 0 .8-.27 1.18-2.38 3.84-2.39 3.08 0 2.09 3.21 6.19 2.43 2.47-.47.69-4.21-.36-5.47-4.45-5.33-15.12-2.04-13.19 5.43zM159.45 26.93c-.76-.72-2.25-8.13-2.19-9.37.02-.5.14-.91.53-1.24 3.93-.12 8.23-.62 12.01-.12 1.02.14 1.26.25 1.28 1.35.03 1.41-1.54 8.76-2.57 9.51-.76.55-8.37.54-9.07-.12zm10.94-10.23h-12.4c.07 2.07.67 8.43 2.05 9.83.73.74 7.44.76 8.12.15.86-.76 2.6-9.62 2.24-9.98zM163.24 35.54c-1.2-1.13 1.24-3.1 2.17-1.29.66 1.28-1.14 2.26-2.17 1.29z" fill="#fff"/><path d="M162.72 6.8c3.85-.66 6.82 1.27 8 4.91-2.61 1.87-3.34-1.91-6.35-1.93-2.74-.02-4.44 3.4-6.39 2.28-.76-.44 1.13-3.22 1.55-3.64.74-.73 2.17-1.45 3.19-1.62zm1.75 1.02c-.27-.25-2.71-.06-1.66 1.31-.82-1.45-2.34-1.31-1.03.34l-1.21-.68-.52.85.86.8 2.93-1.99c-.1 1.33 1.92.15 2.59 1.36.24 0 1.09-1.48.86-1.7-.66-.63-1 .62-1.37.68l-.18-1.03-.85.26-.35.42c0-.18.04-.51-.07-.62zM166.09 18.77c1.34-.28 1.08 5.34.33 5.5-1.34.28-1.08-5.34-.33-5.5zM161.31 21.91c2.26-.75 2.35 1.97.92 2.33-1.32.33-2.14-1.92-.92-2.33zM161.31 18.81c2.32-.77 2.46 2.15.58 2.31-1.05.09-1.71-1.93-.58-2.31z" fill="#fff"/></svg>