<svg xmlns="http://www.w3.org/2000/svg" width="252" height="152" viewBox="0 0 252 152"><path d="M135.53,97.55a3.28,3.28,0,0,1,.29,2.16c-.2-.59-.4-1.18-.61-1.77Z" fill="#f99426"/><path d="M160.64,70.17l.36.12Z" fill="#f99426"/><path d="M132.94,58.74a2,2,0,0,1-.17-1.55l.53,1.53C133.19,58.87,133.07,58.86,132.94,58.74Z" fill="#7120e0"/><path d="M128.13,49.86l.4,1.74c-.66-.46-.48-1-.7-1.46A4,4,0,0,0,128.13,49.86Z" fill="#7120e0"/><path d="M93.34,127.44a2.5,2.5,0,0,1-2.6-2c-.61-2.59-1.13-5.19-1.73-7.78a1,1,0,0,1,.6-1.38c1.64-.8,3.29-1.61,4.91-2.46.77-.4,1.14-.14,1.31.63s.32,1.27.44,1.91c.2,1,.83,1.36,1.72.94,2.28-1.09,4.53-2.24,6.77-3.41a1.33,1.33,0,0,0,.81-1.51c-.17-.79-.86-1-1.5-1-2.37-.32-4.75-.58-7.13-.86s-4.76-.5-7.13-.83a3.81,3.81,0,0,1-3.35-3.34c-.35-1.71-.75-3.4-1.1-5.1-.66-3.26-.12-4.39,2.84-5.89q7.51-3.81,15-7.59c2.8-1.41,4.19-.77,4.89,2.26.52,2.25,1,4.5,1.56,6.74a1.08,1.08,0,0,1-.57,1.41c-1.51.78-3,1.58-4.51,2.36-.91.46-1.59.45-1.72-.83a16.34,16.34,0,0,0-.45-1.9c-.21-.91-.75-1.12-1.55-.72l-7,3.56a1.15,1.15,0,0,0-.78,1.22,1.26,1.26,0,0,0,1.18,1.2c2.25.28,4.49.55,6.74.8,2.51.29,5,.53,7.53.83a4.07,4.07,0,0,1,3.7,3.34c.45,2,.88,4,1.27,6,.46,2.37-.21,3.67-2.35,4.77s-4.57,2.37-6.86,3.53c-3.1,1.59-6.22,3.15-9.33,4.73A3.28,3.28,0,0,1,93.34,127.44Z" fill="#fff"/><path d="M160.44,91.34a3.2,3.2,0,0,1-1.74,3.12c-3.21,1.68-6.43,3.32-9.66,5-2.6,1.31-5.19,2.65-7.84,3.87-2,.9-3.32.19-3.8-1.92-1.63-7.13-3.22-14.26-4.83-21.39q-.6-2.68-1.23-5.34a1.3,1.3,0,0,1,.85-1.75c1.44-.63,2.8-1.43,4.2-2.13,1.21-.6,1.43-.46,1.74.89q2.31,10.24,4.66,20.5c.38,1.67.81,1.85,2.37,1.06,1.9-1,3.75-2,5.69-2.91,1.46-.66,1.56-1.73,1.28-3-.36-1.62-.78-3.22-1.14-4.83-1.19-5.35-2.35-10.72-3.57-16.07-.2-.88-.06-1.33.82-1.72,1.47-.65,2.86-1.49,4.31-2.2,1.12-.55,1.37-.36,1.64.85,1.28,5.61,2.59,11.21,3.86,16.81.8,3.47,1.56,6.95,2.33,10.43A5.07,5.07,0,0,1,160.44,91.34Z" fill="#fff"/><path d="M156.13,61.45a1.34,1.34,0,0,1,.9-1.32q9.94-5,19.88-10.13c.94-.49,1.48-.5,1.69.76.26,1.63.66,3.23,1.06,4.84a1.13,1.13,0,0,1-.73,1.54c-1.92.93-3.78,2-5.69,2.91a1.33,1.33,0,0,0-.83,1.76c1.63,7.12,3.17,14.26,4.82,21.38.27,1.2.07,1.88-1.07,2.38a41.86,41.86,0,0,0-4,2c-1,.56-1.41.25-1.63-.75q-1.31-5.79-2.63-11.58c-.75-3.31-1.54-6.61-2.24-9.93-.24-1.12-.81-1.07-1.6-.65-1.77.93-3.55,1.85-5.31,2.8-.65.36-1.16.47-1.4-.4C156.87,65.21,156.74,63.28,156.13,61.45Z" fill="#fff"/><path d="M118.39,114.32a2.36,2.36,0,0,1-1.83-1.91c-1-4.2-2-8.39-2.93-12.59-1.07-4.71-2.09-9.44-3.17-14.14-.25-1.06-.1-1.71,1-2.17,1.32-.55,2.55-1.32,3.84-2s1.53-.65,1.9.92c.49,2.07.89,4.17,1.36,6.25q1.64,7.26,3.32,14.5c.32,1.38.79,1.57,2,.93l9.28-4.84c1.17-.61,1.33-.52,1.59.78.34,1.66.68,3.33,1.1,5a1.12,1.12,0,0,1-.7,1.46l-13.07,6.59C121.07,113.63,120.13,114.42,118.39,114.32Z" fill="#fff"/><path d="M242.71,82.09A4.39,4.39,0,0,1,241.59,85c-.47.59-.65,1,.35,1.22A3.32,3.32,0,0,1,244.37,89q1.19,5.08,2.29,10.19a4,4,0,0,1-2.35,4.51c-6.23,3.14-12.48,6.22-18.7,9.38-1,.5-1.23.21-1.43-.74Q221.06,98,217.86,83.61a1.2,1.2,0,0,1,.8-1.6c5.26-2.6,10.52-5.2,15.74-7.87a25.29,25.29,0,0,1,2.81-1.28c1.8-.66,3.26-.11,3.85,1.59A52.23,52.23,0,0,1,242.71,82.09Zm-4,15.14c-.33-1.35-.67-2.79-1-4.23-.1-.38-.15-.81-.61-.92s-.72.26-.94.57q-3.06,4.23-6.09,8.48c-.26.36-.52.76-.14,1.18s.73.17,1.09,0q3.39-1.68,6.77-3.39A1.7,1.7,0,0,0,238.7,97.23Zm-12.25-9.92c.33,1.53.64,3.16,1.05,4.75.22.81.75.61,1.13.09q3.21-4.43,6.4-8.88c.22-.31.49-.68.12-1s-.65-.12-1,0c-2.22,1.1-4.44,2.19-6.65,3.31A1.85,1.85,0,0,0,226.45,87.31Z" fill="#fff"/><path d="M174.06,136c0,2-.56,3.08-1.8,3.7-5.69,2.87-11.38,5.73-17.1,8.53-1.95,1-3.46.15-3.91-2q-2.67-12.33-5.3-24.67a3.47,3.47,0,0,1,1.92-4.14q8.3-4.2,16.62-8.32c2.11-1,3.65-.25,4.19,2.07s1,4.77,1.57,7.15c.14.62.11,1.08-.55,1.4q-2.55,1.22-5,2.5c-.66.35-1,.17-1.09-.51s-.3-1.54-.46-2.31c-.2-1-.78-1.23-1.64-.81q-3.34,1.65-6.67,3.34a1.81,1.81,0,0,0-1,2.21q1.49,6.83,3,13.66c.2.94.74,1.21,1.63.76,2.18-1.1,4.37-2.18,6.54-3.3a1.83,1.83,0,0,0,1-2.28c-.67-3.12-.64-3.13,2.27-4.53l2.94-1.44c.46-.23.84-.3,1,.34C172.87,130.42,173.53,133.48,174.06,136Z" fill="#fff"/><path d="M220.4,113.4a3.46,3.46,0,0,1-1.9,3.15q-8.52,4.31-17.06,8.55a2.55,2.55,0,0,1-3.87-1.92c-1.94-8.85-3.85-17.71-5.81-26.55-.17-.78-.07-1.19.68-1.53,1.54-.71,3.07-1.46,4.57-2.27,1-.53,1.33-.29,1.55.77,1.4,6.74,2.86,13.47,4.28,20.2.45,2.12.8,2.33,2.67,1.21s3.77-1.77,5.6-2.74a2,2,0,0,0,1.21-2.53c-1.54-6.93-3-13.88-4.56-20.81-.22-1-.12-1.5.86-1.92,1.56-.67,3.06-1.49,4.58-2.26.6-.31,1-.41,1.16.48,1.94,9,3.92,18,5.88,27.08C220.32,112.69,220.36,113.08,220.4,113.4Z" fill="#fff"/><path d="M179.54,135.83a2.51,2.51,0,0,1-2.71-2.23c-1-4.55-2-9.11-3-13.67-.92-4.21-1.82-8.43-2.8-12.63a1.52,1.52,0,0,1,.86-2c1.44-.92,3.1-1.29,4.52-2.21.73-.48,1.11-.34,1.31.6,1.4,6.7,2.86,13.38,4.3,20.07,0,.13,0,.26.07.38.46,2.11.76,2.24,2.7,1.24,2.91-1.5,5.83-3,8.73-4.48.75-.4,1.19-.28,1.38.58.38,1.8.75,3.59,1.17,5.37a1,1,0,0,1-.63,1.23c-5,2.45-9.92,4.93-14.88,7.38A6.44,6.44,0,0,1,179.54,135.83Z" fill="#fff"/><path d="M144.34,15.22a2.64,2.64,0,0,1,2.83,2.42q1.38,5.91,2.71,11.84c1.08,4.8,2.13,9.61,3.23,14.4a1.56,1.56,0,0,1-1,2.09c-1.42.65-2.81,1.38-4.18,2.14-1,.56-1.48.31-1.71-.79-.54-2.65-1.13-5.28-1.72-7.91-.09-.4,0-1-.53-1.09s-.6.44-.82.75c-2,2.69-4,5.42-6,8.07a3.11,3.11,0,0,0-.55,2.9c.9,4,1.39,3.12-2.34,5-.78.4-1.59.73-2.35,1.15s-1.35.47-1.61-.71c-1.24-5.74-2.57-11.47-3.86-17.2q-1.11-5-2.17-9.95a3.56,3.56,0,0,1,1.9-4.16q8.4-4.35,16.83-8.67A1.81,1.81,0,0,1,144.34,15.22ZM142,28.61c-.18-.85-.34-1.7-.56-2.54s-.75-1.12-1.58-.69l-6.52,3.31A1.87,1.87,0,0,0,132.32,31c.57,2.5,1.14,5,1.73,7.5.06.28,0,.68.4.74s.48-.32.65-.56q3.22-4.35,6.43-8.72A1.91,1.91,0,0,0,142,28.61Z" fill="#fff"/><path d="M174.69,12.86a5.76,5.76,0,0,1-1.08,3.82c-1.09,1.47-2.13,3-3.26,4.42a1,1,0,0,0,.05,1.45c.85.94,1.67,1.91,2.44,2.9a1.78,1.78,0,0,0,2.51.5c2.75-1.32,2.76-1.29,3.42,1.77.24,1.11.46,2.22.74,3.32a1,1,0,0,1-.59,1.26c-1.52.77-3,1.59-4.56,2.29a3.38,3.38,0,0,1-4.16-.9q-2.08-2.34-4.1-4.75c-.67-.81-1.1-.69-1.7.11-2.5,3.35-2.52,3.34-1.54,7.44.85,3.54.85,3.54-2.38,5.25-.78.4-1.57.76-2.33,1.19-.92.51-1.32.22-1.54-.76-1.21-5.44-2.47-10.87-3.7-16.31-.93-4.12-1.81-8.26-2.77-12.37a1.61,1.61,0,0,1,1-2.17c5.82-2.78,11.57-5.71,17.3-8.66,2.42-1.24,4.08-.39,4.6,2.29S174.44,10.52,174.69,12.86Zm-14.9,9.91.37.14c2.26-3.12,4.52-6.23,6.75-9.37a1,1,0,0,0,0-1.33c-.41-.4-.9-.14-1.33.08-2.17,1.1-4.32,2.22-6.5,3.31-.54.28-.81.62-.66,1.24C158.88,18.81,159.33,20.79,159.79,22.77Z" fill="#fff"/><path d="M26.74,77.71a3.68,3.68,0,0,1,2.15-3.94q8.2-4.2,16.44-8.36c2.27-1.14,4-.35,4.51,2.12q2.71,12.12,5.4,24.23c.51,2.29-.08,3.6-2.12,4.65q-8.25,4.23-16.55,8.41c-2.06,1-3.57.32-4.1-2-1.65-7.13-3.26-14.27-4.9-21.4C27.27,80.13,26.47,78.91,26.74,77.71ZM47.23,90.06c0-.13,0-.26,0-.39-1-4.67-2.06-9.34-3.12-14-.21-.92-.85-1-1.61-.61-2.06,1-4.11,2.1-6.18,3.11A2.18,2.18,0,0,0,35.06,81c1,4.37,1.91,8.75,2.87,13.13.28,1.25.67,1.46,1.85.89,2.15-1,4.27-2.16,6.4-3.27A1.65,1.65,0,0,0,47.23,90.06Z" fill="#fff"/><path d="M106,67.35a4,4,0,0,1-2.07,3.17C98.31,73.39,92.68,76.27,87,79.11c-2.15,1.07-3.66.17-4.24-2.4q-1.1-4.9-2.21-9.82c-1.22-5.39-2.4-10.79-3.68-16.18a1.59,1.59,0,0,1,1-2.07c1.4-.68,2.85-1.28,4.22-2,1.08-.58,1.45-.18,1.68.85.76,3.53,1.56,7.06,2.34,10.59s1.49,6.81,2.25,10.21c.32,1.43.66,1.59,2,.94,2.07-1,4.13-2.07,6.2-3.11a1.93,1.93,0,0,0,1.13-2.45c-1.61-7-3.15-14-4.77-21-.23-1,0-1.54.89-2,1.47-.66,2.91-1.41,4.33-2.17.88-.48,1.27-.36,1.5.69,1.39,6.3,2.84,12.58,4.27,18.87q.94,4.14,1.88,8.28C105.89,66.67,105.94,67,106,67.35Z" fill="#fff"/><path d="M26.87,88.78a6.73,6.73,0,0,1-1.45,4.12c-3.55,4.8-7.07,9.62-10.64,14.4a2.41,2.41,0,0,0-.46,2.29c.44,1.6.74,3.23,1.16,4.83a1.18,1.18,0,0,1-.72,1.57c-1.57.76-3.13,1.55-4.66,2.37-.89.47-1.24.17-1.45-.73Q5.43,103.29,2.14,89a1.57,1.57,0,0,1,1-2.07C9,84,14.77,81,20.6,78c2.14-1.08,3.84-.32,4.38,2,.63,2.63,1.2,5.27,1.79,7.9A7.65,7.65,0,0,1,26.87,88.78Zm-7.58-.2c0-1-.69-1.35-1.73-.84C15.41,88.8,13.3,89.91,11.15,91c-.77.37-.83.89-.67,1.6.38,1.65.73,3.31,1.13,5,.08.34,0,.88.48,1s.57-.37.77-.63l5.79-7.72A2.79,2.79,0,0,0,19.29,88.58Z" fill="#fff"/><path d="M77.16,63a6.42,6.42,0,0,1-1.42,4.22c-3.49,4.73-7,9.47-10.51,14.17a2.68,2.68,0,0,0-.56,2.63c.45,1.5.67,3.07,1.08,4.58A1.29,1.29,0,0,1,65,90.4c-1.5.7-3,1.46-4.43,2.25-.9.49-1.33.27-1.56-.72-1.4-6.29-2.84-12.57-4.26-18.86C54,69.72,53.21,66.36,52.42,63c-.19-.78-.1-1.36.67-1.71,5.45-2.44,10.65-5.39,16-8,.58-.29,1.16-.6,1.75-.88,2.48-1.16,3.93-.46,4.52,2.17.52,2.34,1,4.67,1.55,7C77.05,62.19,77.12,62.79,77.16,63Zm-16.34,3.6c.32,1.52.72,3.39,1.14,5.26.08.35-.06.88.48.94s.54-.39.74-.65q2.88-3.8,5.74-7.61a5.16,5.16,0,0,0,.62-1.13,1.17,1.17,0,0,0-.3-1.43c-.41-.37-.82-.18-1.21,0q-3.33,1.66-6.65,3.34C61,65.56,60.72,65.81,60.82,66.63Z" fill="#fff"/><path d="M111.58,66.26A2.59,2.59,0,0,1,109,63.94q-1.71-7.38-3.39-14.78c-.86-3.82-1.68-7.66-2.59-11.47a1.66,1.66,0,0,1,1-2.27c1.36-.59,2.66-1.33,4-2s1.49-.57,1.78.77q1.92,8.61,3.8,17.24c.26,1.19.5,2.38.8,3.57s.76,1.49,2,.88c3-1.49,5.87-3,8.82-4.49,1.65-.83,1.76-.75,2.15,1,.33,1.48.63,3,1,4.46a1.21,1.21,0,0,1-.73,1.58L113,65.91A2.58,2.58,0,0,1,111.58,66.26Z" fill="#fff"/><path d="M135.53,97.55c-1.71-7.61-3.39-15.23-5.15-22.82-.31-1.34-.1-2.1,1.22-2.67,1.72-.73,3.34-1.7,5-2.5,1.33-.63,1.55-.5,2.07.92.24.67.65.64,1.23.39,1.86-.8,2-.75,2.43,1.21,1.37,6,2.74,12,4,18,.24,1.11.59,1.28,1.51.69s2.57-.85,3.22-1.9-.18-2.35-.43-3.51q-2.07-9.59-4.29-19.14a1.62,1.62,0,0,1,1-2.18c2-1,3.94-2,5.91-3.08l.26-.09.8.06c.58.52.41,1.42,1,2.2.19-1.17-.4-2-.22-3q6.31-3.28,12.64-6.57,4.65-2.4,9.32-4.76c1.46-.74,1.83-.61,2.21.93.19.77.45.74,1.06.45,1.75-.83,2-.68,2.43,1.24s.85,3.83,1.31,5.73a1.45,1.45,0,0,1-.91,1.89c-1.81.86-3.55,1.88-5.38,2.68-1.07.47-1.23,1.06-1,2.12,1.63,7,3.16,13.94,4.81,20.89.34,1.39.11,2.16-1.26,2.75-1.8.78-3.49,1.78-5.25,2.66-1.18.58-1.62.42-1.9-.79-.2-.9-.5-1-1.32-.63-1.48.76-1.81.56-2.19-1.13q-2-8.73-4-17.47c-.46-2.05-.46-2.05-2.36-1A11.89,11.89,0,0,1,161,70.29l-.36-.12a.24.24,0,0,0-.19-.1c-.22-.65-.45-1.3-.67-1.94-.36.75.39,3.62.61,4q2.12,9.59,4.25,19.15A4.62,4.62,0,0,1,162,96.91c-5.35,2.75-10.73,5.46-16.07,8.23-1.82.93-3.53,1.28-5.18-.28a.48.48,0,0,0-.6-.11.45.45,0,0,0-.11.59c1.11,2.34-.47,3.06-2.18,3.91-4.5,2.21-8.94,4.55-13.41,6.83-1.57.81-3.1.93-4.48-.37a1.52,1.52,0,0,0-1.58-.29c-.49.14-.19.68-.21,1a4.46,4.46,0,0,1-2.45,4.05q-8.55,4.41-17.13,8.75a3.54,3.54,0,0,1-4.16-.37,2,2,0,0,0-1.3-.48A3.32,3.32,0,0,1,90,125.79c-.72-2.88-1.33-5.78-2-8.67-.19-.8.22-1.21.87-1.53q2.52-1.26,5-2.56c.36-.19.85-.25,1.08-1-2.23.34-3.85-1.18-5.84-1.61a4.25,4.25,0,0,1-3.31-3.21c-.64-2.44-1.19-4.91-1.62-7.4a4,4,0,0,1,2.13-4.55c5.87-3.08,11.78-6.08,17.71-9a3.13,3.13,0,0,1,3.77.54,1.47,1.47,0,0,0,1.67.36c.65-.29.15-.93.06-1.38-.44-2.12-.46-2.11,1.55-3.14,1.67-.85,3.32-1.73,5-2.57,1.13-.56,1.61-.37,1.88.86.2.95.53,1,1.31.57,1.4-.73,1.81-.5,2.16,1,1.35,6.09,2.71,12.17,4,18.27.22,1,.48,1.21,1.44.7,2.18-1.19,4.43-2.26,6.64-3.4a1.67,1.67,0,0,1,1.72-.15c.21.59.41,1.18.61,1.77A3.28,3.28,0,0,0,135.53,97.55ZM93.34,127.44A3.28,3.28,0,0,0,95,127c3.11-1.58,6.23-3.14,9.33-4.73,2.29-1.16,4.57-2.35,6.86-3.53s2.81-2.4,2.35-4.77c-.39-2-.82-4-1.27-6a4.07,4.07,0,0,0-3.7-3.34c-2.51-.3-5-.54-7.53-.83-2.25-.25-4.49-.52-6.74-.8a1.26,1.26,0,0,1-1.18-1.2,1.15,1.15,0,0,1,.78-1.22l7-3.56c.8-.4,1.34-.19,1.55.72a16.34,16.34,0,0,1,.45,1.9c.13,1.28.81,1.29,1.72.83,1.51-.78,3-1.58,4.51-2.36a1.08,1.08,0,0,0,.57-1.41c-.55-2.24-1-4.49-1.56-6.74-.7-3-2.09-3.67-4.89-2.26q-7.53,3.8-15,7.59c-3,1.5-3.5,2.63-2.84,5.89.35,1.7.75,3.39,1.1,5.1a3.81,3.81,0,0,0,3.35,3.34c2.37.33,4.75.55,7.13.83s4.76.54,7.13.86c.64.09,1.33.25,1.5,1a1.33,1.33,0,0,1-.81,1.51c-2.24,1.17-4.49,2.32-6.77,3.41-.89.42-1.52.07-1.72-.94-.12-.64-.29-1.28-.44-1.91s-.54-1-1.31-.63c-1.62.85-3.27,1.66-4.91,2.46a1,1,0,0,0-.6,1.38c.6,2.59,1.12,5.19,1.73,7.78A2.5,2.5,0,0,0,93.34,127.44Zm67.1-36.1a5.07,5.07,0,0,0-.06-.79c-.77-3.48-1.53-7-2.33-10.43-1.27-5.6-2.58-11.2-3.86-16.81-.27-1.21-.52-1.4-1.64-.85-1.45.71-2.84,1.55-4.31,2.2-.88.39-1,.84-.82,1.72,1.22,5.35,2.38,10.72,3.57,16.07.36,1.61.78,3.21,1.14,4.83.28,1.28.18,2.35-1.28,3-1.94.88-3.79,1.95-5.69,2.91-1.56.79-2,.61-2.37-1.06q-2.35-10.24-4.66-20.5c-.31-1.35-.53-1.49-1.74-.89-1.4.7-2.76,1.5-4.2,2.13a1.3,1.3,0,0,0-.85,1.75q.63,2.66,1.23,5.34c1.61,7.13,3.2,14.26,4.83,21.39.48,2.11,1.84,2.82,3.8,1.92,2.65-1.22,5.24-2.56,7.84-3.87,3.23-1.63,6.45-3.27,9.66-5A3.2,3.2,0,0,0,160.44,91.34Zm-4.31-29.89c.61,1.83.74,3.76,1.26,5.6.24.87.75.76,1.4.4,1.76-1,3.54-1.87,5.31-2.8.79-.42,1.36-.47,1.6.65.7,3.32,1.49,6.62,2.24,9.93q1.32,5.79,2.63,11.58c.22,1,.64,1.31,1.63.75a41.86,41.86,0,0,1,4-2c1.14-.5,1.34-1.18,1.07-2.38-1.65-7.12-3.19-14.26-4.82-21.38a1.33,1.33,0,0,1,.83-1.76c1.91-.95,3.77-2,5.69-2.91a1.13,1.13,0,0,0,.73-1.54c-.4-1.61-.8-3.21-1.06-4.84-.21-1.26-.75-1.25-1.69-.76Q167,55.09,157,60.13A1.34,1.34,0,0,0,156.13,61.45Zm-37.74,52.87c1.74.1,2.68-.69,3.72-1.21l13.07-6.59a1.12,1.12,0,0,0,.7-1.46c-.42-1.64-.76-3.31-1.1-5-.26-1.3-.42-1.39-1.59-.78l-9.28,4.84c-1.24.64-1.71.45-2-.93q-1.68-7.25-3.32-14.5c-.47-2.08-.87-4.18-1.36-6.25-.37-1.57-.5-1.62-1.9-.92s-2.52,1.41-3.84,2c-1.1.46-1.25,1.11-1,2.17,1.08,4.7,2.1,9.43,3.17,14.14,1,4.2,2,8.39,2.93,12.59A2.36,2.36,0,0,0,118.39,114.32ZM107.24,103.2c.33.58.83.37,1.21.43a5.39,5.39,0,0,1,2.58.8,5.4,5.4,0,0,0,2.06.75c.58.15.83.07.68-.59-.29-1.18-.55-2.37-.83-3.55-.09-.39-.22-.65-.71-.4C110.58,101.5,108.92,102.34,107.24,103.2Z" fill="none" stroke="#fff" stroke-miterlimit="10" stroke-width="0.52"/><path d="M251,101.23a4.56,4.56,0,0,1-2.63,4.41c-6.6,3.38-13.25,6.66-19.89,10-.84.42-1.41.22-1.68-.73-.11-.38-.06-1-.68-.92s-1.31.29-1.39,1c-.26,2.49-2,3.58-4,4.56-5,2.43-10,5-15,7.48-1.64.83-3.21,1.15-4.73-.21-.2-.17-.44-.36-.7-.19s-.18.46-.13.72a4.94,4.94,0,0,0,.18.76,1.48,1.48,0,0,1-.92,2.09c-5,2.44-9.93,4.94-14.89,7.41a3.57,3.57,0,0,1-4.36-.43,1.48,1.48,0,0,0-1.59-.29c-.53.2-.26.76-.29,1.17a4.36,4.36,0,0,1-2.46,3.89q-8.36,4.23-16.74,8.39a3.66,3.66,0,0,1-4.39-.37,1.73,1.73,0,0,0-.94-.4c-2.24-.34-3-1.07-3.49-3.24-.58-2.69-1.17-5.37-1.75-8.05q-1.77-8.19-3.54-16.37a4.42,4.42,0,0,1,2.57-5.39q8.17-4.12,16.37-8.22a3.67,3.67,0,0,1,4.39.31,1.39,1.39,0,0,0,1.69.28c.55-.35.14-1,.05-1.45-.39-2-.4-2,1.41-2.89l4.91-2.47c1.27-.64,1.68-.5,2.08.85.24.8.57.77,1.23.49,1.56-.67,1.85-.48,2.2,1.18l3.72,17.4c.38,1.74.66,1.86,2.23,1,1.89-1,3.8-2,5.7-3,.23-.12.49-.35.71-.32,1.93.24,1.28-1,1.08-1.9q-2.25-10.41-4.54-20.83c-.39-1.81-.37-1.87,1.32-2.71l5.27-2.62c.94-.47,1.63-.32,1.83.81.17.94.61,1,1.38.59,1.26-.6,1.69-.34,2,1,.54,2.75.87,5.55,1.65,8.23.95,3.31,1.5,6.7,2.31,10,.17.73.49,1,1.18.59a.34.34,0,0,1,.12-.06c3.72-1.68,3.74-1.69,2.89-5.7-1.3-6.1-2.61-12.2-4-18.27a1.93,1.93,0,0,1,1.2-2.59c1.8-.8,3.53-1.72,5.29-2.6,1-.5,1.68-.37,1.9.86.08.42.17,1,.81.72s1.3-.42,1-1.11c-.93-2.27.75-2.72,2.21-3.43q8.21-4,16.39-8.17c1.92-1,3.77-1.41,5.59.18A1.64,1.64,0,0,0,242,73,3.71,3.71,0,0,1,245.48,76c.54,2.2,1,4.43,1.4,6.65a4.36,4.36,0,0,1-.54,3.17c-.34.56-.3.89.3,1.25a3.94,3.94,0,0,1,1.85,2.59c.84,3.61,1.64,7.23,2.45,10.85A4.71,4.71,0,0,1,251,101.23Zm-8.29-19.14a52.23,52.23,0,0,0-1.65-7.64c-.59-1.7-2.05-2.25-3.85-1.59a25.29,25.29,0,0,0-2.81,1.28c-5.22,2.67-10.48,5.27-15.74,7.87a1.2,1.2,0,0,0-.8,1.6q3.21,14.36,6.32,28.72c.2,1,.43,1.24,1.43.74,6.22-3.16,12.47-6.24,18.7-9.38a4,4,0,0,0,2.35-4.51q-1.09-5.1-2.29-10.19a3.32,3.32,0,0,0-2.43-2.81c-1-.24-.82-.63-.35-1.22A4.39,4.39,0,0,0,242.71,82.09ZM174.06,136c-.53-2.49-1.19-5.55-1.84-8.62-.14-.64-.52-.57-1-.34l-2.94,1.44c-2.91,1.4-2.94,1.41-2.27,4.53a1.83,1.83,0,0,1-1,2.28c-2.17,1.12-4.36,2.2-6.54,3.3-.89.45-1.43.18-1.63-.76q-1.51-6.84-3-13.66a1.81,1.81,0,0,1,1-2.21q3.33-1.7,6.67-3.34c.86-.42,1.44-.14,1.64.81.16.77.31,1.54.46,2.31s.43.86,1.09.51q2.49-1.29,5-2.5c.66-.32.69-.78.55-1.4-.53-2.38-1-4.77-1.57-7.15s-2.08-3.11-4.19-2.07q-8.34,4.11-16.62,8.32a3.47,3.47,0,0,0-1.92,4.14q2.64,12.34,5.3,24.67c.45,2.12,2,2.93,3.91,2,5.72-2.8,11.41-5.66,17.1-8.53C173.5,139.05,174.07,138,174.06,136ZM220.4,113.4c0-.32-.08-.71-.16-1.09-2-9-3.94-18-5.88-27.08-.19-.89-.56-.79-1.16-.48-1.52.77-3,1.59-4.58,2.26-1,.42-1.08.95-.86,1.92,1.55,6.93,3,13.88,4.56,20.81a2,2,0,0,1-1.21,2.53c-1.83,1-3.8,1.66-5.6,2.74s-2.22.91-2.67-1.21c-1.42-6.73-2.88-13.46-4.28-20.2-.22-1.06-.57-1.3-1.55-.77-1.5.81-3,1.56-4.57,2.27-.75.34-.85.75-.68,1.53,2,8.84,3.87,17.7,5.81,26.55a2.55,2.55,0,0,0,3.87,1.92q8.55-4.23,17.06-8.55A3.46,3.46,0,0,0,220.4,113.4Zm-40.86,22.43a6.44,6.44,0,0,0,1-.33c5-2.45,9.92-4.93,14.88-7.38a1,1,0,0,0,.63-1.23c-.42-1.78-.79-3.57-1.17-5.37-.19-.86-.63-1-1.38-.58-2.9,1.51-5.82,3-8.73,4.48-1.94,1-2.24.87-2.7-1.24,0-.12,0-.25-.07-.38-1.44-6.69-2.9-13.37-4.3-20.07-.2-.94-.58-1.08-1.31-.6-1.42.92-3.08,1.29-4.52,2.21a1.52,1.52,0,0,0-.86,2c1,4.2,1.88,8.42,2.8,12.63,1,4.56,2,9.12,3,13.67A2.51,2.51,0,0,0,179.54,135.83Zm-15.1-5.62c-.09-.78.37-1.07.91-1.34,2-1,3.91-1.92,5.86-2.91,1-.49,1.56-.31,1.85.78.1.37,0,1,.72.85s.63-.71.5-1.26c-.26-1.1-.55-2.2-.73-3.32-.15-.88-.52-1-1.24-.58-1.47.76-3,1.46-4.45,2.22-.92.46-1.55.24-1.76-.77s-.57-1.16-1.42-.64-1.41.55-1.79-.45c-.25-.67-.71-.51-1.17-.29-1,.48-1.95,1-2.93,1.45a1.16,1.16,0,0,0-.68,1.49q1.14,5,2.22,10.09c.16.74.5.82,1.1.5,1-.51,1.92-1,2.91-1.49A1.16,1.16,0,0,0,165,133C164.78,132,164.62,131.08,164.44,130.21Z" fill="none" stroke="#fff" stroke-miterlimit="10" stroke-width="0.52"/><path d="M132.94,58.74c.1.83-.36,1.27-1.05,1.62Q124.42,64.14,117,68c-1.57.8-3.08.91-4.47-.39-.54-.51-1.24-.32-1.87-.38-.44-.05-.41.32-.37.64.28,2.53-1,4.09-3.14,5.18q-7.78,3.9-15.51,7.89c-1.82.94-3.56,1.51-5.29-.17a1.45,1.45,0,0,0-.86-.22,3.54,3.54,0,0,1-3.39-2.94c-.57-2.33-1.06-4.68-1.61-7-.09-.4,0-1-.51-1.09s-.61.42-.84.73c-3.25,4.38-6.47,8.78-9.73,13.14A1.94,1.94,0,0,0,69,85.14c.43,1.69.76,3.41,1.19,5.1a1.58,1.58,0,0,1-1,2.08c-1.9.9-3.75,1.88-5.61,2.84-1,.49-1.67.44-2-.76-.09-.34,0-.92-.6-.84s-1.12.27-1.17.89c-.2,2.62-2.06,3.72-4.13,4.75-5,2.46-9.9,5-14.82,7.53-1.77.91-3.44,1.3-5-.25-.25-.24-.56-.2-.86-.23a4,4,0,0,1-3.5-3.31c-.49-2.3-1-4.6-1.55-6.89-.07-.31,0-.77-.44-.85s-.48.32-.65.55c-3.33,4.49-6.64,9-10,13.46a1.58,1.58,0,0,0-.21,1.47c.41,1.73.76,3.49,1.2,5.22a1.52,1.52,0,0,1-.88,2c-1.93.93-3.81,1.94-5.73,2.89-1.17.58-1.62.4-2-.9-.22-.8-.53-.83-1.2-.51-1.44.7-1.83.5-2.18-1Q4.51,103.52,1.1,88.66a1.77,1.77,0,0,1,1.1-2.37q8.9-4.46,17.73-9c1.69-.86,3.28-1.14,4.86.22.61.52.92.27,1-.48a5,5,0,0,1,3.12-4.31c5.31-2.66,10.58-5.38,15.88-8.06,1.65-.83,3.3-1.1,4.84.26.48.43,1.08.26,1.63.35s.69-.21.59-.7-.22-1.21-.4-1.79c-.32-1,.09-1.6,1-2.07,6-3,12-6.08,18-9.13,1.64-.85,3.22-1.08,4.72.27.24.22.52.39.83.22s.16-.54.12-.82-.19-.86-.29-1.28a1.23,1.23,0,0,1,.71-1.51c2.07-1,4.12-2.1,6.19-3.14.89-.45,1.56-.25,1.77.78s.51,1.12,1.4.65c1.22-.66,1.67-.4,2,1,1.36,6,2.73,12,4,18,.25,1.18.61,1.51,1.68.81a9.44,9.44,0,0,1,2-1c1.3-.44,1.39-1.23,1.11-2.45C95,56.17,93.52,49.23,91.92,42.3A1.7,1.7,0,0,1,93,40c1.86-.86,3.67-1.81,5.49-2.76,1-.52,1.66-.38,2,.79.09.38,0,1,.72.81s1-.4.91-1.19c-.24-2.15-.21-2.15,1.68-3.11,1.6-.8,3.19-1.63,4.79-2.42,1.27-.63,1.68-.48,2.06.91.23.85.59.75,1.21.46,1.44-.69,1.81-.5,2.16,1.05q2,9,4,18c.3,1.33.53,1.37,1.71.73,2.13-1.18,4.32-2.26,6.49-3.39a1.25,1.25,0,0,1,1.65.24c.22.42,0,1,.7,1.46l-.4-1.74c-1.61-7.18-3.24-14.37-4.82-21.56a4.45,4.45,0,0,1,2.41-4.91l16.86-8.61a3.53,3.53,0,0,1,4.27.32c.68.59,1.49.38,2.23.58.4.11.54-.17.46-.55,0-.21-.09-.42-.14-.64-.68-3.35-1.1-2.56,2-4.19,5.4-2.85,10.88-5.56,16.31-8.35,1.8-.93,3.52-1.31,5.18.24a1.23,1.23,0,0,0,.87.24,3.37,3.37,0,0,1,3.35,2.79c.69,2.75,1.29,5.52,1.83,8.3a6.19,6.19,0,0,1-1.17,4.95C176.85,19.74,176,21,175,22.28c-.44.57-.53,1,0,1.57s.84.75,1.56.39c1.72-.85,1.76-.83,2.67,1,.33.66.69.31,1.06.15,1.57-.68,1.89-.54,2.27,1.08.45,1.95.84,3.92,1.34,5.87a1.57,1.57,0,0,1-1,2.08c-1.54.72-3,1.51-4.56,2.29a2.82,2.82,0,0,1-1.88.46c-2.63-.61-5.34-1.1-7.32-3.21a2.26,2.26,0,0,0-.43-.49c-.42-.29-.59-1.28-1.23-.83a1.92,1.92,0,0,0-1,2.09c.47,1.94.85,3.92,1.35,5.86a1.5,1.5,0,0,1-.94,2c-1.88.92-3.73,1.92-5.6,2.85-1.22.61-1.58.44-2-.81-.13-.37-.1-1-.79-.72s-1.14.36-1,1.24c.25,2.14.21,2.14-1.68,3.1-1.59.81-3.18,1.63-4.78,2.43-1.23.61-1.66.47-2-.83-.22-.93-.62-.82-1.28-.52-1.46.68-1.79.51-2.17-1.06-.21-.85-.38-1.71-.57-2.56-.06-.25-.06-.57-.34-.66s-.46.18-.61.39c-1,1.35-2,2.72-3.07,4.08a1.34,1.34,0,0,0-.14,1.24c.25,1.06.45,2.13.76,3.18a1.48,1.48,0,0,1-.89,2c-1.92.93-3.81,1.93-5.71,2.91-.58.3-1.14.48-1.67-.06l-.53-1.53A2,2,0,0,0,132.94,58.74Zm11.4-43.52a1.81,1.81,0,0,0-1.31.32q-8.42,4.34-16.83,8.67a3.56,3.56,0,0,0-1.9,4.16q1.07,5,2.17,10c1.29,5.73,2.62,11.46,3.86,17.2.26,1.18.73,1.18,1.61.71s1.57-.75,2.35-1.15c3.73-1.92,3.24-1.09,2.34-5a3.11,3.11,0,0,1,.55-2.9c2-2.65,4-5.38,6-8.07.22-.31.4-.82.82-.75s.44.69.53,1.09c.59,2.63,1.18,5.26,1.72,7.91.23,1.1.7,1.35,1.71.79,1.37-.76,2.76-1.49,4.18-2.14a1.56,1.56,0,0,0,1-2.09c-1.1-4.79-2.15-9.6-3.23-14.4q-1.33-5.93-2.71-11.84A2.64,2.64,0,0,0,144.34,15.22Zm30.35-2.36c-.25-2.34-1.11-5.1-1.66-7.91s-2.18-3.53-4.6-2.29c-5.73,3-11.48,5.88-17.3,8.66a1.61,1.61,0,0,0-1,2.17c1,4.11,1.84,8.25,2.77,12.37,1.23,5.44,2.49,10.87,3.7,16.31.22,1,.62,1.27,1.54.76.76-.43,1.55-.79,2.33-1.19,3.23-1.71,3.23-1.71,2.38-5.25-1-4.1-1-4.09,1.54-7.44.6-.8,1-.92,1.7-.11q2,2.41,4.1,4.75a3.38,3.38,0,0,0,4.16.9c1.55-.7,3-1.52,4.56-2.29a1,1,0,0,0,.59-1.26c-.28-1.1-.5-2.21-.74-3.32-.66-3.06-.67-3.09-3.42-1.77a1.78,1.78,0,0,1-2.51-.5c-.77-1-1.59-2-2.44-2.9a1,1,0,0,1-.05-1.45c1.13-1.44,2.17-3,3.26-4.42A5.76,5.76,0,0,0,174.69,12.86ZM26.74,77.71c-.27,1.2.53,2.42.83,3.74,1.64,7.13,3.25,14.27,4.9,21.4.53,2.29,2,3,4.1,2q8.3-4.17,16.55-8.41c2-1,2.63-2.36,2.12-4.65q-2.68-12.12-5.4-24.23c-.56-2.47-2.24-3.26-4.51-2.12q-8.23,4.16-16.44,8.36A3.68,3.68,0,0,0,26.74,77.71ZM106,67.35c-.07-.34-.12-.68-.2-1q-.93-4.14-1.88-8.28c-1.43-6.29-2.88-12.57-4.27-18.87-.23-1-.62-1.17-1.5-.69-1.42.76-2.86,1.51-4.33,2.17-.94.42-1.12,1-.89,2,1.62,7,3.16,14,4.77,21a1.93,1.93,0,0,1-1.13,2.45c-2.07,1-4.13,2.09-6.2,3.11-1.33.65-1.67.49-2-.94-.76-3.4-1.5-6.81-2.25-10.21S84.56,51,83.8,47.46c-.23-1-.6-1.43-1.68-.85-1.37.75-2.82,1.35-4.22,2a1.59,1.59,0,0,0-1,2.07c1.28,5.39,2.46,10.79,3.68,16.18q1.11,4.92,2.21,9.82c.58,2.57,2.09,3.47,4.24,2.4,5.65-2.84,11.28-5.72,16.91-8.59A4,4,0,0,0,106,67.35ZM26.87,88.78a7.65,7.65,0,0,0-.1-.9c-.59-2.63-1.16-5.27-1.79-7.9-.54-2.29-2.24-3-4.38-2C14.77,81,9,84,3.11,86.89a1.57,1.57,0,0,0-1,2.07q3.29,14.33,6.51,28.67c.21.9.56,1.2,1.45.73,1.53-.82,3.09-1.61,4.66-2.37a1.18,1.18,0,0,0,.72-1.57c-.42-1.6-.72-3.23-1.16-4.83a2.41,2.41,0,0,1,.46-2.29c3.57-4.78,7.09-9.6,10.64-14.4A6.73,6.73,0,0,0,26.87,88.78ZM77.16,63c0-.24-.11-.84-.24-1.43-.5-2.35-1-4.68-1.55-7-.59-2.63-2-3.33-4.52-2.17-.59.28-1.17.59-1.75.88-5.36,2.62-10.56,5.57-16,8-.77.35-.86.93-.67,1.71.79,3.35,1.53,6.71,2.29,10.06,1.42,6.29,2.86,12.57,4.26,18.86.23,1,.66,1.21,1.56.72C62,91.86,63.46,91.1,65,90.4a1.29,1.29,0,0,0,.79-1.77c-.41-1.51-.63-3.08-1.08-4.58a2.68,2.68,0,0,1,.56-2.63c3.53-4.7,7-9.44,10.51-14.17A6.42,6.42,0,0,0,77.16,63Zm34.42,3.23a2.58,2.58,0,0,0,1.38-.35l14.69-7.48a1.21,1.21,0,0,0,.73-1.58c-.37-1.48-.67-3-1-4.46-.39-1.74-.5-1.82-2.15-1-3,1.47-5.87,3-8.82,4.49-1.21.61-1.66.4-2-.88s-.54-2.38-.8-3.57q-1.89-8.62-3.8-17.24c-.29-1.34-.49-1.4-1.78-.77s-2.63,1.4-4,2a1.66,1.66,0,0,0-1,2.27c.91,3.81,1.73,7.65,2.59,11.47q1.68,7.4,3.39,14.78A2.59,2.59,0,0,0,111.58,66.26Z" fill="none" stroke="#fff" stroke-miterlimit="10" stroke-width="0.52"/><path d="M238.7,97.23a1.7,1.7,0,0,1-.93,1.69q-3.37,1.71-6.77,3.39c-.36.17-.76.35-1.09,0s-.12-.82.14-1.18q3-4.25,6.09-8.48c.22-.31.48-.68.94-.57s.51.54.61.92C238,94.44,238.37,95.88,238.7,97.23Z" fill="none" stroke="#fff" stroke-miterlimit="10" stroke-width="0.52"/><path d="M226.45,87.31a1.85,1.85,0,0,1,1.09-1.74c2.21-1.12,4.43-2.21,6.65-3.31.31-.16.66-.35,1,0s.1.74-.12,1q-3.19,4.45-6.4,8.88c-.38.52-.91.72-1.13-.09C227.09,90.47,226.78,88.84,226.45,87.31Z" fill="none" stroke="#fff" stroke-miterlimit="10" stroke-width="0.52"/><path d="M142,28.61a1.91,1.91,0,0,1-.51,1.32q-3.21,4.37-6.43,8.72c-.17.24-.28.62-.65.56s-.34-.46-.4-.74c-.59-2.49-1.16-5-1.73-7.5a1.87,1.87,0,0,1,1.06-2.28l6.52-3.31c.83-.43,1.35-.16,1.58.69S141.86,27.76,142,28.61Zm-4.76,5.24a14.43,14.43,0,0,0,2.9-4.24C137,30,136,31.38,137.28,33.85Z" fill="none" stroke="#fff" stroke-miterlimit="10" stroke-width="0.52"/><path d="M159.79,22.77c-.46-2-.91-4-1.38-5.93-.15-.62.12-1,.66-1.24,2.18-1.09,4.33-2.21,6.5-3.31.43-.22.92-.48,1.33-.08a1,1,0,0,1,0,1.33c-2.23,3.14-4.49,6.25-6.75,9.37Z" fill="none" stroke="#fff" stroke-miterlimit="10" stroke-width="0.52"/><path d="M47.23,90.06a1.65,1.65,0,0,1-1,1.65c-2.13,1.11-4.25,2.22-6.4,3.27-1.18.57-1.57.36-1.85-.89C37,89.71,36,85.33,35.06,81a2.18,2.18,0,0,1,1.24-2.8c2.07-1,4.12-2.07,6.18-3.11.76-.39,1.4-.31,1.61.61,1.06,4.67,2.08,9.34,3.12,14C47.23,89.8,47.22,89.93,47.23,90.06Zm-8-8.58,2.39,10.79c.13.56.48.51.89.3l3.27-1.65a1,1,0,0,0,.58-1.29Q45.14,84.46,44,79.29c-.14-.61-.39-.82-1-.48-1,.56-2.09,1.08-3.15,1.6A1,1,0,0,0,39.19,81.48Z" fill="none" stroke="#fff" stroke-miterlimit="10" stroke-width="0.52"/><path d="M19.29,88.58a2.79,2.79,0,0,1-.64,1.54l-5.79,7.72c-.2.26-.39.69-.77.63s-.4-.62-.48-1c-.4-1.65-.75-3.31-1.13-5-.16-.71-.1-1.23.67-1.6,2.15-1,4.26-2.15,6.41-3.21C18.6,87.23,19.28,87.58,19.29,88.58Z" fill="none" stroke="#fff" stroke-miterlimit="10" stroke-width="0.52"/><path d="M60.82,66.63c-.1-.82.18-1.07.56-1.26Q64.7,63.69,68,62c.39-.2.8-.39,1.21,0a1.17,1.17,0,0,1,.3,1.43,5.16,5.16,0,0,1-.62,1.13q-2.85,3.83-5.74,7.61c-.2.26-.34.7-.74.65s-.4-.59-.48-.94C61.54,70,61.14,68.15,60.82,66.63Z" fill="none" stroke="#fff" stroke-miterlimit="10" stroke-width="0.52"/></svg>