<?xml version="1.0" encoding="UTF-8"?>
<svg id="images" xmlns="http://www.w3.org/2000/svg" viewBox="0 0 300 32">
  <path d="M19.1,0c-.38.61-1.09.95-1.75,1.18l-.14-.14c-1.75,0-3.4-.38-5.15-.38-1.23,0-2.46.19-3.69.19s-2.51-.09-3.74-.09c-.47,0-.95,0-1.42.05l-.05-.19-2.03.38,1.61.09.28.24h-1.13l-.09,1.23-.33.33.28-.09c-.09.76-.47,2.74-.99,3.22h.19c-.24.57-.57,1.09-.95,1.61h1.09c.38-.52.66-1.04.95-1.61.38-.05,3.03-3.59,4.02-4.11h2.18c0,3.26,1.32,6.24,1.32,9.55,0,2.84-.52,5.63-.52,8.42,0,2.03.43,4.07.43,6.1,0,2.51-3.31,3.17-4.78,4.35l.47.19c1.94-.33,3.97-.47,5.91-.47v-.57l.85.05-.05-.24c.47,0,.95.05,1.42.14,1.09.66,2.88.76,4.16.95l.28-.19-.99-.28.24-.28c0-.38-4.35-3.45-5.06-4.59.09-.19.09-.09.14-.33,1.42-3.31,1.61-8.13,1.61-11.63s-.28-7.33-.52-10.97c.95,0,1.94-.05,2.88-.19.33.09.66.24.95.43.61,1.18,2.03,4.44,2.13,5.67h.95c0-2.13.38-4.21.38-6.34,0-.57-.28-1.09-.38-1.66h-.95ZM2.55,4.26c.09-.52.14-1.04.19-1.56.66-.28,1.32-.57,1.99-.76-.9.61-1.51,1.51-2.18,2.32ZM5.39,1.42s-.09,0-.9-.05c.19-.05.43-.14.66-.14.33,0,.66.05,1.04.09-.28,0-.57.09-.8.09ZM6.62,1.51v-.19c.99.09,1.99.14,2.98.28h-.28c-.9,0-1.8-.09-2.7-.09ZM9.17,1.89h.66v4.4c-.33-1.47-.66-2.88-.66-4.4ZM10.12,29.84c-1.23,0-2.46,0-3.69.09,1.18-.57,1.89-.47,2.84-1.65-.05.28-.14.57-.24.8h.95l-.05.24.19-.05v.57ZM10.92,14.9c-.05-.38-.19-.8-.19-1.13,0-1.23.38-2.74.57-3.97l-.38,5.11ZM10.83,6.76c.19-1.18.43-2.36.61-3.55,0,1.18-.05,2.36-.09,3.55h-.52ZM16.03,29.6c-2.13-.43-3.07-.76-3.78-2.98.66.57,3.55,2.51,3.78,2.98ZM12.82,29.08h-1.04c-.28-.95-.47-1.89-.61-2.84.24,1.09.76,2.13,1.66,2.84ZM11.82,21.94c.05-1.8.14-3.55.14-5.34h-.19c.19-3.97.47-7.9.57-11.87.19,2.74.33,5.49.33,8.23,0,3.03-.09,6.05-.85,8.98ZM11.63,1.56v-.19h.47l.05.24-.52-.05ZM12.06,1.04l.05.14c-.99-.09-1.89-.09-2.88-.14.8-.05,1.61-.19,2.41-.19,1.04,0,3.55.19,3.36.33-.05.05-.14.05-.38.05-.28,0-.76,0-1.51-.05l-.05-.14h-.99ZM13.1,1.7v-.28c.71,0,1.42.09,2.13.09-.71.05-1.42.14-2.13.19ZM17.92,2.13l-.28-.57.8-.24c-.09.28-.09.57-.24.85l-.28-.05ZM18.35,2.98h.28l.05.8-.33-.8Z" fill="#fff" stroke-width="0"/>
  <path d="M43.55,6.57h-.33c-1.13-3.03-3.22-5.06-6.48-5.49l-.57-.47-.52-.14c-.99-.43-2.7-.47-3.69-.47h-.76l-.99.9h-.8c-4.73,2.7-6.53,9.93-6.53,14.99,0,.9.24,1.75.61,2.51-.05.38-.05.8-.05,1.18,0,2.98.99,5.53,2.65,7.52,2.32,2.74,5.96,4.3,10.12,4.3h.95c1.09,0,2.74-2.22,3.31-3.07,2.08-3.17,4.68-6.48,5.06-10.4.14-1.47.14-3.03.14-4.54,0-2.32-.19-5.2-2.13-6.81ZM39.96,2.88l-.61.05-.71-.71,1.32.66ZM42.18,8.32h-.47c-.95-2.03-2.84-4.07-3.92-5.96,1.66,1.28,3.59,3.78,4.4,5.96ZM32.91.28l1.75.43h-2.18l.43-.43ZM29.6,1.66l.52.09-1.51.8.99-.9ZM30.22,2.65l-.52,1.37c-.71.61-2.55,5.67-2.55,9.55,0,4.4.52,9.98,2.32,12.63-2.13-1.42-2.84-7.28-2.84-11.54,0-3.4,1.47-11.59,3.59-12.01ZM29.32,5.77c-.47,1.7-.9,3.4-1.23,5.15.09-1.8.47-3.55,1.23-5.15ZM33.43,30.08c-1.32-.33-3.64-1.47-4.07-2.88,1.23,1.09,2.74,1.89,4.07,2.88ZM26.86,4.54l-.05.66-.95,1.23.99-1.89ZM26.24,7.42c-.28,2.7-.76,4.63-1.75,7.14-.05-.61-.09-1.23-.09-1.84,0-1.89.8-3.74,1.84-5.3ZM25.77,19.91c-.43-1.09-.76-2.22-.99-3.36.24-.85.61-1.7.95-2.55-.05.99-.05,1.99-.05,2.98s0,1.94.09,2.93ZM24.16,18.92l.71,2.22h-.38l-.33-2.22ZM35.28,31.16c-5.11,0-9.93-4.68-10.73-9.55,2.22,3.88,4.26,8.61,9.41,8.84.8.47,2.84.57,2.84.57,0,0-1.04.14-1.51.14ZM36.22,30.78s-.66-.19-.99-.33c1.23-.19,2.84-1.32,4.21-2.32-.61,1.23-1.84,2.36-3.22,2.65ZM38.59,27.71c-.47.47-2.18,1.09-2.32,1.13h1.37c-.19.43-1.7,1.28-2.74,1.37-3.92-2.6-7.14-8.32-7.14-13.15,0-5.86,2.6-13.81,3.74-15.08.52-.57,1.75-.8,2.84-.8.61,0,1.18.09,1.47.19.8.24,2.36,2.41,2.84,3.55,1.09,2.65,2.51,7.71,2.51,10.55,0,1.32.05,2.65.05,3.97,0,2.22-1.04,6.62-2.6,8.28ZM40.57,8.13c1.13,1.28,1.8,4.21,1.8,6.57,0,.66-.28,1.99-.28,1.99,0,0-.33-5.34-1.51-8.56ZM42.23,23.08v-1.66c0-.19,1.04-3.36,1.23-3.78-.14,1.89-.57,3.74-1.23,5.44ZM43.17,15.84c-.05-2.08-.19-3.97-.85-5.96,1.32,2.22,1.13,3.4,1.18,5.96h-.33ZM43.98,20.57c.33-1.56.47-3.17.47-4.78v-.61c.14.61.19,1.28.19,1.89,0,1.18-.24,2.36-.66,3.5ZM43.69,8.13c.8,1.42.99,3.07,1.04,4.63-.57-1.56-.61-3.03-1.04-4.63Z" fill="#fff" stroke-width="0"/>
  <path d="M69.85,6.57h-.33c-1.13-3.03-3.22-5.06-6.48-5.49l-.57-.47-.52-.14c-.99-.43-2.7-.47-3.69-.47h-.76l-.99.9h-.8c-4.73,2.7-6.53,9.93-6.53,14.99,0,.9.24,1.75.61,2.51-.05.38-.05.8-.05,1.18,0,2.98.99,5.53,2.65,7.52,2.32,2.74,5.96,4.3,10.12,4.3h.95c1.09,0,2.74-2.22,3.31-3.07,2.08-3.17,4.68-6.48,5.06-10.4.14-1.47.14-3.03.14-4.54,0-2.32-.19-5.2-2.13-6.81ZM66.25,2.88l-.61.05-.71-.71,1.32.66ZM68.47,8.32h-.47c-.95-2.03-2.84-4.07-3.92-5.96,1.66,1.28,3.59,3.78,4.4,5.96ZM59.21.28l1.75.43h-2.18l.43-.43ZM55.9,1.66l.52.09-1.51.8.99-.9ZM56.51,2.65l-.52,1.37c-.71.61-2.55,5.67-2.55,9.55,0,4.4.52,9.98,2.32,12.63-2.13-1.42-2.84-7.28-2.84-11.54,0-3.4,1.47-11.59,3.59-12.01ZM55.61,5.77c-.47,1.7-.9,3.4-1.23,5.15.09-1.8.47-3.55,1.23-5.15ZM59.73,30.08c-1.32-.33-3.64-1.47-4.07-2.88,1.23,1.09,2.74,1.89,4.07,2.88ZM53.15,4.54l-.05.66-.95,1.23.99-1.89ZM52.54,7.42c-.28,2.7-.76,4.63-1.75,7.14-.05-.61-.09-1.23-.09-1.84,0-1.89.8-3.74,1.84-5.3ZM52.07,19.91c-.43-1.09-.76-2.22-.99-3.36.24-.85.61-1.7.95-2.55-.05.99-.05,1.99-.05,2.98s0,1.94.09,2.93ZM50.46,18.92l.71,2.22h-.38l-.33-2.22ZM61.57,31.16c-5.11,0-9.93-4.68-10.73-9.55,2.22,3.88,4.26,8.61,9.41,8.84.8.47,2.84.57,2.84.57,0,0-1.04.14-1.51.14ZM62.52,30.78s-.66-.19-.99-.33c1.23-.19,2.84-1.32,4.21-2.32-.61,1.23-1.84,2.36-3.22,2.65ZM64.88,27.71c-.47.47-2.18,1.09-2.32,1.13h1.37c-.19.43-1.7,1.28-2.74,1.37-3.92-2.6-7.14-8.32-7.14-13.15,0-5.86,2.6-13.81,3.74-15.08.52-.57,1.75-.8,2.84-.8.61,0,1.18.09,1.47.19.8.24,2.36,2.41,2.84,3.55,1.09,2.65,2.51,7.71,2.51,10.55,0,1.32.05,2.65.05,3.97,0,2.22-1.04,6.62-2.6,8.28ZM66.87,8.13c1.13,1.28,1.8,4.21,1.8,6.57,0,.66-.28,1.99-.28,1.99,0,0-.33-5.34-1.51-8.56ZM68.52,23.08v-1.66c0-.19,1.04-3.36,1.23-3.78-.14,1.89-.57,3.74-1.23,5.44ZM69.47,15.84c-.05-2.08-.19-3.97-.85-5.96,1.32,2.22,1.13,3.4,1.18,5.96h-.33ZM70.27,20.57c.33-1.56.47-3.17.47-4.78v-.61c.14.61.19,1.28.19,1.89,0,1.18-.24,2.36-.66,3.5ZM69.99,8.13c.8,1.42.99,3.07,1.04,4.63-.57-1.56-.61-3.03-1.04-4.63Z" fill="#fff" stroke-width="0"/>
  <path d="M92.69,0c-.38.61-1.09.95-1.75,1.18l-.14-.14c-1.75,0-3.4-.38-5.15-.38-1.23,0-2.46.19-3.69.19s-2.51-.09-3.74-.09c-.47,0-.95,0-1.42.05l-.05-.19-2.03.38,1.61.09.28.24h-1.13l-.09,1.23-.33.33.28-.09c-.09.76-.47,2.74-.99,3.22h.19c-.24.57-.57,1.09-.95,1.61h1.09c.38-.52.66-1.04.95-1.61.38-.05,3.03-3.59,4.02-4.11h2.18c0,3.26,1.32,6.24,1.32,9.55,0,2.84-.52,5.63-.52,8.42,0,2.03.43,4.07.43,6.1,0,2.51-3.31,3.17-4.78,4.35l.47.19c1.94-.33,3.97-.47,5.91-.47v-.57l.85.05-.05-.24c.47,0,.95.05,1.42.14,1.09.66,2.88.76,4.16.95l.28-.19-.99-.28.24-.28c0-.38-4.35-3.45-5.06-4.59.09-.19.09-.09.14-.33,1.42-3.31,1.61-8.13,1.61-11.63s-.28-7.33-.52-10.97c.95,0,1.94-.05,2.88-.19.33.09.66.24.95.43.61,1.18,2.03,4.44,2.13,5.67h.95c0-2.13.38-4.21.38-6.34,0-.57-.28-1.09-.38-1.66h-.95ZM76.14,4.26c.09-.52.14-1.04.19-1.56.66-.28,1.32-.57,1.99-.76-.9.61-1.51,1.51-2.18,2.32ZM78.97,1.42s-.09,0-.9-.05c.19-.05.43-.14.66-.14.33,0,.66.05,1.04.09-.28,0-.57.09-.8.09ZM80.2,1.51v-.19c.99.09,1.99.14,2.98.28h-.28c-.9,0-1.8-.09-2.7-.09ZM82.76,1.89h.66v4.4c-.33-1.47-.66-2.88-.66-4.4ZM83.7,29.84c-1.23,0-2.46,0-3.69.09,1.18-.57,1.89-.47,2.84-1.65-.05.28-.14.57-.24.8h.95l-.05.24.19-.05v.57ZM84.51,14.9c-.05-.38-.19-.8-.19-1.13,0-1.23.38-2.74.57-3.97l-.38,5.11ZM84.41,6.76c.19-1.18.43-2.36.61-3.55,0,1.18-.05,2.36-.09,3.55h-.52ZM89.61,29.6c-2.13-.43-3.07-.76-3.78-2.98.66.57,3.55,2.51,3.78,2.98ZM86.4,29.08h-1.04c-.28-.95-.47-1.89-.61-2.84.24,1.09.76,2.13,1.66,2.84ZM85.4,21.94c.05-1.8.14-3.55.14-5.34h-.19c.19-3.97.47-7.9.57-11.87.19,2.74.33,5.49.33,8.23,0,3.03-.09,6.05-.85,8.98ZM85.22,1.56v-.19h.47l.05.24-.52-.05ZM85.64,1.04l.05.14c-.99-.09-1.89-.09-2.88-.14.8-.05,1.61-.19,2.41-.19,1.04,0,3.55.19,3.36.33-.05.05-.14.05-.38.05-.28,0-.76,0-1.51-.05l-.05-.14h-.99ZM86.68,1.7v-.28c.71,0,1.42.09,2.13.09-.71.05-1.42.14-2.13.19ZM91.5,2.13l-.28-.57.8-.24c-.09.28-.09.57-.24.85l-.28-.05ZM91.93,2.98h.28l.05.8-.33-.8Z" fill="#fff" stroke-width="0"/>
  <path d="M119.26,29.89h.95v-.19c-.85-.14-1.99-.05-2.74-.38,0-6.29-.57-12.53-.57-18.82,0-1.8.52-3.59.52-5.39,0-.66-.05-1.37-.28-1.99h-.28c.28-.47.47-1.04.52-1.61.38-.09,2.08-.43,2.22-.76-.05-.05-.43-.19-.47-.19-2.65,0-5.3.24-7.94.24l.05.28-1.7-.05v.19l.9.05c.76.66,1.84.9,2.84.9l.09,1.28h-.61c.28.95.43,1.94.52,2.93h-.47c-.09,2.03-.33,4.02-.33,6.05,0,.47.05.9.05,1.32-.47-.05-.99-.05-1.47-.05-1.94,0-3.83.19-5.77.19-.85,0-1.65-.28-2.51-.28h-.33l.76-.19.14-.24h-.85c.05-2.98.38-6.01.38-8.98,0-.85-.05-1.75-.09-2.6,1.42,0,2.46-.52,3.78-.8-1.84-.09-3.69-.43-5.53-.43-.9,0-1.84.05-2.7.38-1.04-.14-2.08-.14-3.12-.14v.19c.85.05,1.7.14,2.55.28l-.19.14h.38c.85,0,1.75.09,2.55.24l.05,1.66c-.09-.33-.28-.66-.57-.9l-.19-.52h-.28c-.9,0-2.03-.19-2.79-.52h-1.37c.99.43,2.18.43,3.17.9,0,5.82.09,11.68.09,17.5,0,2.08.28,4.16.28,6.29,0,1.04-.09,2.08-.38,3.07-1.04.24-2.08.57-3.07.9h.76c1.42,0,2.88-.19,4.3-.33l.05.28c-1.61,0-3.12.28-4.68.47l.33.09c1.47-.19,2.88-.28,4.35-.28v.28l.99-.09.05-.14c1.37.05,2.6.14,3.92.14l.05-.14h.57c-1.23-.8-2.65-1.42-4.11-1.47.61-2.51.8-5.06.8-7.66,0-2.08-.14-4.16-.28-6.24,1.09-.05,2.13-.19,3.22-.19s2.22.19,3.31.19c1.18,0,2.36-.09,3.5-.09l.05.66h.85c0,1.32,0,2.6.05,3.92l-.14.05c0,2.13-.61,4.16-.61,6.29,0,1.23.33,2.41.38,3.64h-.38c-.71,0-1.51.05-2.03.47l-1.32.38h.99l-.33.24c1.89,0,3.74.33,5.58.33,1.56,0,3.07-.28,4.63-.28l-.43-.19h.95l-1.51-.28ZM111.6,1.28c.52,0,1.04.05,1.61.14l.05.52c-.61-.09-1.18-.33-1.65-.66ZM99.83,9.84c0,2.27-.05,4.59-.05,5.91h.47c-.14,2.7-.24,5.34-.24,8.04,0,1.65.24,3.26.43,4.87l-.85.09c.19-.99.24-1.99.24-2.98,0-2.13-.28-4.26-.28-6.38,0-5.25-.09-10.45-.09-15.7.33,1.18.38,3.69.38,6.15ZM98.12,29.46c.76-.19,1.56-.38,2.32-.52l.05.33c-.8.05-1.61.14-2.36.19ZM101.25,27.52c-.19-1.23-.43-2.51-.43-3.78,0-2.98.28-6.01.43-8.98h.28c.19,2.03.33,4.11.33,6.15,0,2.22-.14,4.45-.61,6.62ZM101.48,13.81v.61h-.24l.05-.61h.19ZM101.43,1.56h.38c.05.9.09,1.84.09,2.74,0,.99-.05,1.99-.09,2.98-.19-1.89-.33-3.83-.38-5.72ZM101.62,29.84l.14-.43h.19c.99,0,1.94.19,2.79.66-1.04-.05-2.03-.19-3.12-.24ZM103,29.22h-1.18l.09-.28c.38.09.76.19,1.09.28ZM101.77,1.04v.24l-.33-.05-.09-.38-.85-.05v.28l-1.18-.19c.43-.19.85-.24,1.32-.24,1.28,0,2.55.19,3.83.24-.47.24-.8.47-1.32.47h-.38l-.05-.33h-.95ZM104.37,14.14c-.47,0-.95,0-1.42.05l-.47.05-.05-.28c.95.09,1.89.14,2.88.19h-.95ZM110.99,14.47c-1.84,0-3.69-.24-5.49-.33,2.18.09,4.4.09,6.57.19-.38.05-.76.14-1.09.14ZM118.03.76h.47c-.38.19-.76.28-1.13.38l-.19-.14c-.66,0-1.32.33-1.99.33-.47,0-.9-.09-1.37-.14,1.42-.14,2.79-.43,4.21-.43ZM116,13.86h-.43c.09-2.7.33-8.13.33-8.13.05-.61.19-1.18.47-1.75.09.38.09.76.09,1.13,0,1.7-.52,3.36-.52,5.06v.24l.05,3.45ZM115.95,2.88v-.85h-.95c0,2.93-.14,5.82-.28,8.75-.14-2.88-.33-5.77-.52-8.65.76-.09,1.42-.38,2.18-.47-.05.43-.24.8-.43,1.23ZM114.16,1.75v-.28l.9.05-.9.24ZM114.39,27.66l.24-2.03c.05.71.05,1.42.05,2.13l.28.09c-.09.38-.28.66-.47.95.47.19.9.33,1.37.47l-1.8-.05c0-.57-.14-1.13-.24-1.7l.57.14ZM115.62,28.7c.52-1.13.57-2.36.57-3.55,0-2.27-.28-4.49-.28-6.71h-.52l.14-4.35.47.05c.14,4.97.52,9.88.52,14.9l-.9-.33ZM114.06,21.99l-.38,3.4c-.05-.33-.09-.61-.09-.95,0-.85.14-1.7.47-2.46ZM113.45,13.81c-.09-.66-.19-1.18-.19-1.75,0-.61.09-1.23.24-1.84v2.55l-.05,1.04ZM116.05,30.45c-1.23,0-2.51-.33-3.74-.43.8-.09,1.66-.14,2.51-.14.61,0,3.22.09,3.64.28-.8.05-1.61.28-2.41.28Z" fill="#fff" stroke-width="0"/>
  <path d="M138.46,2.46c-1.28-2.08-9.55-2.08-11.92-2.08-1.61,0-3.17.14-4.78.43v.19c.57,0,1.32-.19,1.89-.19h.28l5.67.66c-2.6-.19-5.25-.33-7.9-.33l.05.14h.38c2.55,0,3.12,2.55,3.12,4.68,0,3.12-.14,6.29-.19,9.41l-.57.05.52.19c-.05,3.07-.09,6.1-.09,9.17,0,.9.24,1.84.24,2.7,0,1.23-1.32,1.89-2.36,1.94l.19.19c-.38,0-.8-.09-1.18-.09l-.09.24h-.71v.19h.38l-.05.14s1.09-.05,2.46-.05c1.66,0,3.78.05,5.06.38l.05-.28c.71-.05,1.47-.14,2.13-.14.24,0,1.13.38,1.37.47h1.32c-.61-.24-1.23-.52-1.89-.66h.61v-.19c-1.37-.19-2.6-.47-3.45-1.66v-6.9c0-1.47.05-2.98.19-4.45.85,0,1.7.24,2.55.24,6.38,0,9.74-2.84,9.74-9.41,0-2.08-1.28-3.92-3.03-4.97ZM138.27,4.73c.19.9.28,1.75.28,2.65,0,4.4-1.51,8.84-6.71,8.84-.85,0-1.75-.24-2.6-.38l.05-.24c.38,0,.76-.09,1.13-.09.28,0,.57.19.85.19,4.26,0,6.71-2.79,6.71-6.95,0-1.75-.38-3.55-.99-5.15.47.33.9.71,1.28,1.13ZM137.47,2.65c.14.19.28.43.38.71-.38-.28-.71-.47-1.13-.66l-.14-.57c.28.19.61.33.9.52ZM137.04,8.75c0,3.64-1.56,6.71-5.67,6.71h-.28c4.02-.57,5.53-3.12,5.53-6.9v-1.51c0-.57-.05-1.04-.09-1.66.28,1.09.52,2.22.52,3.36ZM135.96,3.45c-.24-.38-.57-.71-.9-.99l.71.38.19.61ZM135.58,2.18c-.57-.24-1.13-.38-1.7-.52l.57-.05h.24c.33,0,.61.05.95.09l-.05.47ZM133.12,1.47c-.47,0-1.56-.33-1.56-.33,0,0,.71-.09,1.09-.09.71,0,2.18.38,2.18.38l-1.7.05ZM124.42.76l2.18-.09,1.7.33-3.88-.24ZM128.39.66l1.7-.05h.24c1.04,0,2.84.24,2.84.24,0,0-1.8.14-2.7.14-.61,0-2.08-.33-2.08-.33ZM130.05,1.75c2.32.19,3.78.38,4.63,1.23.71.76.99,1.99.99,4.11,0,5.25-.66,7.61-6.38,8.18.43-3.45.95-6.95.95-10.5,0-.99-.05-2.03-.19-3.03ZM123.76,1.28c1.32.05,2.65.09,4.02.24l-.24.09h-.99c.19.66.19,1.42.19,2.13v.85c0,3.4-.38,6.86-.38,10.31v.38l-.38.05c.14-4.59.24-9.13.24-13.71h-.95v.38c-.43-.38-.99-.52-1.51-.71ZM126.4,16.31h-.43v-.61h.38l.05.61ZM124.94,29.51c.19-.09.33-.19.52-.33l.05.28-.57.05ZM126.17,27.57c.14-.85.24-1.75.24-2.6h-.52v-1.56c0-2.32.05-4.59.09-6.9l.43.05c.19,2.03.33,4.11.33,6.19,0,1.7,0,3.45-.47,5.11l-.09-.28ZM126.59,29.37c.38-.71.61-1.56.8-2.36.19.33.33,1.89.43,2.36h-1.23ZM128.11,22.46v2.18c-.24-2.08-.33-4.21-.33-6.29v-1.8h.43c-.05,1.99-.09,3.92-.09,5.91ZM128.25,16.36h-.43v-.43l.43.05v.38ZM130.05,29.41h-1.13l.05-.43c.33.24.71.28,1.09.43ZM128.34,15.27h-.52c.19-4.54.66-9.08.66-13.62h.99l-.43.14c.19.95.24,1.94.24,2.88,0,3.55-.52,7.09-.95,10.59ZM131.61,16.65c-.8,0-1.61-.24-2.41-.28l.05-.19c.95.14,1.84.33,2.84.43l-.47.05ZM132.6,16.55c1.75-.66,3.4-.8,5.06-1.8-1.42,1.13-3.26,1.66-5.06,1.8ZM138.18,13.52c1.09-1.84,1.32-4.02,1.32-6.1.14.61.19,1.28.19,1.89,0,1.56-.43,3.07-1.51,4.21ZM139.22,4.63l-.19-.71c1.09,1.18,1.51,2.36,1.51,3.92-.19-1.13-.61-2.27-1.32-3.22Z" fill="#fff" stroke-width="0"/>
  <path d="M150.33,28.04c0-2.6-.09-5.15-.09-7.76,0-1.09.09-2.18.09-3.26,0-2.79-.47-5.58-.47-8.32v-.66h.57c0-2.08.43-4.16.52-6.24l3.31-.61-.09-.33-4.11-.05v.24c-.8.14-1.61.28-2.46.28-.33,0-.71,0-1.04-.09l.38-.09v-.19c-1.47-.24-2.93-.43-4.44-.57v.19c.33.19.71.28,1.09.38h-1.04v.19l2.46.19c.38.47.99.76,1.56.9-.33,1.42-.38,2.84-.38,4.26,0,4.45.61,8.8.61,13.24,0,1.7-.19,8.13-1.32,9.32-.47,0-2.32.9-2.88,1.13l.24.19h.24c.76,0,1.47-.19,2.18-.19,1.8,0,3.59.28,5.39.28.99,0,1.94-.05,2.93-.05v-.24l-.57-.19.33-.05-.62-.24c.57.05,1.09.05,1.66.05v-.19c-.9-.05-1.75-.24-2.6-.28-.43-.24-1.42-.66-1.42-1.23ZM146.69,1.75c-.19-.05-.33-.19-.52-.28l.57.09-.05.19ZM145.13,29.65l-1.04.38-.47-.05,1.66-.66-.14.33ZM149.67,4.87c-.05-.47-.19-.95-.19-1.42l.47-.61-.28,2.03ZM149.43,1.75h.52l-.52.43v-.43ZM149.15,28.18c0-1.94.05-3.83.19-5.77,0,.95.05,1.89.05,2.84,0,.76-.09,1.42-.09,2.03,0,.76.19,1.42,1.09,1.94h-1.47c.19-.14.24-.38.24-.61v-.43ZM148.58,5.06l.05.14c.05,1.18.24,2.18.24,3.36s-.09,2.22-.28,3.31v-6.81ZM148.58,12.96h.28v.43c0,.61.05,1.18.05,1.8,0,1.51-.24,3.03-.33,4.54v-6.76ZM147.73,1.66h.76s.05.14.05.14v.24l-.05.33c-.28-.14-.61-.19-.9-.28l.14-.43ZM147.31,9.22c0-2.18.05-4.45.66-6.48.19.19.28.52.38.76-.28.47-.57,1.18-.57,1.75l-.14,8.46c-.05-.57-.14-1.13-.14-1.7l-.19.05v-2.84ZM147.4,23.36l.24.57v4.63h.61c-.14.71-1.09.57-1.66.76.8-.99.66-4.63.8-5.96ZM149.48,29.41h.47c.43,0,.9,0,1.18.19-1.56,0-3.17.14-4.78.28,1.13-.33,1.94-.47,3.12-.47ZM152.41,30.22h-.71c-1.51,0-3.03,0-4.54-.14,1.13-.14,2.32-.28,3.45-.28.43,0,.85.14,1.28.14l.52.28Z" fill="#fff" stroke-width="0"/>
  <path d="M175.3,21.37h-.57l-.09-.71-.85.38c.05.09.05.24.05.38,0,.47-.14,1.09-.19,1.18l-.19.05c-.61,2.84-2.74,5.67-5.58,6.62-1.7-.28-3.64-.95-4.82-1.84l-.24-.43h1.32s-1.37-.85-1.61-.99c-.28-1.23-.33-3.4-.33-3.74v-1.61c0-3.45-1.65-6.81-1.65-10.07,0-3.55,3.69-8.28,7.09-9.13,2.46.19,3.36,1.32,4.02,3.55-.95.19-2.08.76-2.08,1.84,0,1.32,1.89,2.32,3.03,2.32.38,0,.52.05.61.05.19,0,.19-.09.85-.47l-.09-.33c.57-.99.57-2.84.57-3.97,0-2.18-.76-3.5-2.74-3.69-.52-.38-1.13-.57-1.75-.57-1.94,0-3.5.14-5.3.9-1.09,0-1.89.14-2.6,1.04h.66c-.8.52-1.23.33-1.8.76-4.16,3.07-5.06,9.46-5.06,14.23,0,.95.05,4.02,1.09,4.44h.38c1.37,4.16,5.01,9.36,9.88,9.36,2.88,0,5.11-1.28,7.85-1.75.05-.09.05-.99.05-1.8,0-.57,0-1.13-.05-1.23.43-.8.71-1.75.71-2.65,0-.76-.19-1.47-.57-2.13ZM171.28,7.99c-.19-.19-.76-.85-.76-1.18,0-.43.38-.8.71-.99-.14.24-.14.52-.14.8,0,.24,0,.47.05.71h.76s-.38.47-.61.66ZM172.42,8.89c-.33-.19-.61-.43-.9-.66h.71l.38-.38.28.57c-.09.19-.28.33-.47.47ZM171.9,6.62c0-.14,0-.33.05-.57l.24.8-.19.28c-.09-.19-.09-.33-.09-.52ZM173.41,7.71l-.19-.85.24-.8c0,.24.09.52.09.76,0,.28-.14.61-.14.9ZM173.6,4.02v.24c-.24-.8-.52-2.32-1.37-3.17,1.09.47,1.37,1.89,1.37,2.93ZM172.75,4.54c0,.14-.05.33-.09.47-.66-2.32-1.51-3.55-4.11-3.74.14-.05.38-.14.52-.14,1.94,0,3.69,1.37,3.69,3.4ZM169.44.38c.38,0,.85.19,1.18.38,0,0-2.27.43-3.45.43h-.19l-.9-.05c.57-.38,2.32-.76,3.36-.76ZM165.56,1.32l.61.05s-2.36,1.04-2.51.99c.14-.24,1.66-.99,1.89-1.04ZM162.82,3.74c-.05.19-1.61,2.36-1.61,2.36.38-1.23,1.18-2.18,1.61-2.36ZM158.28,19.34c0,.76,0,1.56-.05,1.66-.28-1.09-.57-2.22-.57-3.36v-.28l.05-1.7c.14.71.43,1.75.57,2.08v1.61ZM159.65,19.15l.38.24-.38-.9c-.05-.09-.05-.43-.05-.76,0-.66.05-1.47.14-1.75.57,1.28.99,7.33.99,7.76-.71-1.42-1.04-3.03-1.09-4.59ZM167.07,29.51s-.43.05-.62.05c-.99-.05-1.89-.33-2.55-.99.57.24,3.17.95,3.17.95ZM168.11,30.55c-.76,0-1.94-.47-2.6-.76.19,0,1.75.14,2.65.14.24,0,2.18-.19,2.51-.24-.76.43-1.65.85-2.55.85ZM169.77,29.51c-.24,0-.71.05-1.04.05h-.19c1.42-.61,3.17-1.75,4.11-2.98-.43,1.32-1.32,2.93-2.88,2.93ZM174.21,28.99c-.19.05-1.18.14-1.8.33.19-.14,1.75-1.61,1.84-1.8,0,.19-.05,1.28-.05,1.47ZM174.73,24.73l-.43.05s-.05,1.09-.09,1.23c-.05.19-.47.8-.76,1.18.05-.28,1.18-5.01,1.18-5.01.19.14.28.85.28,1.32,0,.43-.09.85-.19,1.23Z" fill="#fff" stroke-width="0"/>
  <path d="M198.38,29.65l.14-.19c-.71-.47-2.32-1.61-2.7-2.32-2.7-5.01-4.45-10.45-7.19-15.42,2.79-2.98,4.97-6.48,6.95-10.02.43-.28,1.7-.38,1.89-.38l-.24-.19.99-.14v-.19h-.71c-2.46,0-5.01.19-7.47.33l-.14.09c0,.09.09.14.71.19l-1.23.19c.09.09.76.09,1.51.09.9,0,1.94,0,2.18-.05-.43.09-2.03.28-2.03.57l1.13.05c-.24,1.13-.8,2.18-1.13,3.26-2.27,2.88-4.49,6.34-6.9,8.75-.19-4.16-.33-8.37-.33-12.58.52-.05,3.07,0,3.07-.28-1.23,0-1.7-.05-2.03-.05s-.47.05-1.09.05l.05-.19,2.88-.05v-.24l-2.41-.05c.38-.05,1.8-.05,1.8-.33-2.65,0-5.01,0-7.66-.33l-.05.19c.38.19.85.33,1.28.43l-2.55-.05c.14.28.28.61.43.95.71,0,1.51-.09,2.22-.28.57,1.09.66,2.32.66,3.5,0,1.94-.38,3.83-.38,5.77,0,2.32.33,4.68.33,7h-.24c-.05.38-.09.61-.09.85,0,.28.05.52.05,1.04-.05.43-.09.66-.09.9,0,.57.14,1.09.14,4.11,0,1.47-.14,2.98-.71,4.35l.8-.14c.57-1.42.85-4.49.85-4.49,0,.57.05,1.13.05,1.7,0,.99-.05,1.99-.14,2.98-1.37,0-2.55.05-3.78.76v.28h.19c.8,0,1.51.28,2.36.28,1.09,0,4.78-.24,5.67-.52.43.09.85.24,1.28.33l1.23-.19c-1.94-.47-3.97-.8-5.96-.9l.05-.66h.8c.38-1.04.57-2.13.66-3.22l.05,3.55.99.14c-.33-4.54-.19-9.08-.38-13.62.71-.61,1.42-.66,2.32-1.47l.24.66-.9.24c1.28,3.17,3.17,6.05,4.49,9.22.8,1.94.9,4.07,1.51,6.05-.8.14-1.61.33-2.41.52l.8.33c1.51-.38,2.93-.71,4.49-.71,1.32,0,2.7.14,4.02.24l.14-.24c-.33-.19-.61-.38-.95-.52l.47.05ZM191.47,1.51c.71-.14,1.51-.28,2.27-.28.38,0,.76.09,1.13.14-1.13.14-2.32.09-3.4.14ZM193.7,1.94l-.71.99c.05-.24.19-.47.19-.71l-.28-.09.8-.19ZM178.42,1.37l-.09-.38c.38.05.8.05,1.18.05l.09.19c-.38.09-.71.14-1.18.14ZM180.6,1.04c.76,0,1.51.14,2.27.19l.05.14c0,.09-.09.05-.28.09-.66,0-1.28-.14-1.89-.19l-.14-.24ZM184.19,29.6c-1.09.19-2.36.38-3.5.38-.71,0-1.32-.09-2.08-.19.71-.47,1.56-.52,2.36-.52l-.05.47.95-.05.05-.38,2.27.28ZM182.16,14.85c0,.38-.05.76-.09,1.13l-.57.43v-.38c0-3.22.19-6.43.28-9.6.14,1.99.33,3.97.43,5.96h-.38c.19.71.33,1.75.33,2.46ZM181.97,17.02v.99l-.19.19-.19-.99.38-.19ZM181.92,22.65l-.09-1.47.57,1.47h-.47ZM182.06,27.66l-.09-4.11.66.85-.57,3.26ZM182.11,19.77l.57-.19.14,2.74-.71-2.55ZM182.49,1.99l-.9-.14v.24l-.57-.14-.14-.38c.66.05,1.32.14,1.99.14l.14,8.46-.52-8.18ZM197.38,29.37c-1.04-.33-1.94-.33-2.18-1.65.61.61,1.61.99,2.18,1.65ZM193.18,25.44c-.38-1.23-.85-2.41-1.37-3.55.76,1.23,1.04,2.08,1.37,3.55ZM190.76,18.25c-1.13-1.75-2.51-3.55-3.03-5.63l.24-.24c1.04,1.94,1.94,3.88,2.79,5.86ZM191.61,6.01l.52-.28c-1.51,2.36-3.36,4.73-5.34,6.71,1.51-2.22,3.17-4.35,4.82-6.43ZM196.91,29.98c-1.09,0-2.22-.05-3.31-.05h-.8c-.66-2.03-.71-4.21-1.56-6.19-1.04-2.55-2.51-4.92-3.69-7.42,1.94,3.45,3.83,6.29,4.92,10.17.14.43.9,3.12,1.23,3.12h.95l.09-.47h-.33c-.24-.43-.38-.9-.52-1.32.66,1.32,2.27,1.8,3.55,2.18h-.52Z" fill="#fff" stroke-width="0"/>
  <path d="M233.7,30.17l-1.51-.28h.95v-.19c-.85-.14-1.99-.05-2.74-.38,0-6.29-.57-12.53-.57-18.82,0-1.8.52-3.59.52-5.39,0-.66-.05-1.37-.28-1.99h-.28c.28-.47.47-1.04.52-1.61.38-.09,2.08-.43,2.22-.76-.05-.05-.43-.19-.47-.19-2.65,0-5.3.24-7.94.24l.05.28-1.7-.05v.19l.9.05c.76.66,1.84.9,2.84.9l.09,1.28h-.61c.28.95.43,1.94.52,2.93h-.47c-.09,2.03-.33,4.02-.33,6.05,0,.47.05.9.05,1.32-.47-.05-.99-.05-1.47-.05-1.94,0-3.83.19-5.77.19-.85,0-1.65-.28-2.51-.28h-.33l.76-.19.14-.24h-.85c.05-2.98.38-6.01.38-8.98,0-.85-.05-1.75-.09-2.6,1.42,0,2.46-.52,3.78-.8-1.84-.09-3.69-.43-5.53-.43-.9,0-1.84.05-2.7.38-1.04-.14-2.08-.14-3.12-.14v.19c.85.05,1.7.14,2.55.28l-.19.14h.38c.85,0,1.75.09,2.55.24l.05,1.66c-.09-.33-.28-.66-.57-.9l-.19-.52h-.28c-.9,0-2.03-.19-2.79-.52h-1.37c.99.43,2.18.43,3.17.9,0,5.82.09,11.68.09,17.5,0,2.08.28,4.16.28,6.29,0,1.04-.09,2.08-.38,3.07-1.04.24-2.08.57-3.07.9h.76c1.42,0,2.88-.19,4.3-.33l.05.28c-1.61,0-3.12.28-4.68.47l.33.09c1.47-.19,2.88-.28,4.35-.28v.28l.99-.09.05-.14c1.37.05,2.6.14,3.92.14l.05-.14h.57c-1.23-.8-2.65-1.42-4.11-1.47.61-2.51.8-5.06.8-7.66,0-2.08-.14-4.16-.28-6.24,1.09-.05,2.13-.19,3.22-.19s2.22.19,3.31.19c1.18,0,2.36-.09,3.5-.09l.05.66h.85c0,1.32,0,2.6.05,3.92l-.14.05c0,2.13-.61,4.16-.61,6.29,0,1.23.33,2.41.38,3.64h-.38c-.71,0-1.51.05-2.03.47l-1.32.38h.99l-.33.24c1.89,0,3.74.33,5.58.33,1.56,0,3.07-.28,4.63-.28l-.43-.19h.95ZM224.53,1.28c.52,0,1.04.05,1.61.14l.05.52c-.61-.09-1.18-.33-1.65-.66ZM212.75,9.84c0,2.27-.05,4.59-.05,5.91h.47c-.14,2.7-.24,5.34-.24,8.04,0,1.65.24,3.26.43,4.87l-.85.09c.19-.99.24-1.99.24-2.98,0-2.13-.28-4.26-.28-6.38,0-5.25-.09-10.45-.09-15.7.33,1.18.38,3.69.38,6.15ZM211.05,29.46c.76-.19,1.56-.38,2.32-.52l.05.33c-.8.05-1.61.14-2.36.19ZM214.17,27.52c-.19-1.23-.43-2.51-.43-3.78,0-2.98.28-6.01.43-8.98h.28c.19,2.03.33,4.11.33,6.15,0,2.22-.14,4.45-.61,6.62ZM214.41,13.81v.61h-.24l.05-.61h.19ZM214.36,1.56h.38c.05.9.09,1.84.09,2.74,0,.99-.05,1.99-.09,2.98-.19-1.89-.33-3.83-.38-5.72ZM214.55,29.84l.14-.43h.19c.99,0,1.94.19,2.79.66-1.04-.05-2.03-.19-3.12-.24ZM215.92,29.22h-1.18l.09-.28c.38.09.76.19,1.09.28ZM214.69,1.04v.24l-.33-.05-.09-.38-.85-.05v.28l-1.18-.19c.43-.19.85-.24,1.32-.24,1.28,0,2.55.19,3.83.24-.47.24-.8.47-1.32.47h-.38l-.05-.33h-.95ZM217.29,14.14c-.47,0-.95,0-1.42.05l-.47.05-.05-.28c.95.09,1.89.14,2.88.19h-.95ZM223.91,14.47c-1.84,0-3.69-.24-5.49-.33,2.18.09,4.4.09,6.57.19-.38.05-.76.14-1.09.14ZM230.96.76h.47c-.38.19-.76.28-1.13.38l-.19-.14c-.66,0-1.32.33-1.99.33-.47,0-.9-.09-1.37-.14,1.42-.14,2.79-.43,4.21-.43ZM228.92,13.86h-.43c.09-2.7.33-8.13.33-8.13.05-.61.19-1.18.47-1.75.09.38.09.76.09,1.13,0,1.7-.52,3.36-.52,5.06v.24l.05,3.45ZM228.88,2.88v-.85h-.95c0,2.93-.14,5.82-.28,8.75-.14-2.88-.33-5.77-.52-8.65.76-.09,1.42-.38,2.18-.47-.05.43-.24.8-.43,1.23ZM227.08,1.75v-.28l.9.05-.9.24ZM227.32,27.66l.24-2.03c.05.71.05,1.42.05,2.13l.28.09c-.09.38-.28.66-.47.95.47.19.9.33,1.37.47l-1.8-.05c0-.57-.14-1.13-.24-1.7l.57.14ZM228.55,28.7c.52-1.13.57-2.36.57-3.55,0-2.27-.28-4.49-.28-6.71h-.52l.14-4.35.47.05c.14,4.97.52,9.88.52,14.9l-.9-.33ZM226.99,21.99l-.38,3.4c-.05-.33-.09-.61-.09-.95,0-.85.14-1.7.47-2.46ZM226.37,13.81c-.09-.66-.19-1.18-.19-1.75,0-.61.09-1.23.24-1.84v2.55l-.05,1.04ZM228.97,30.45c-1.23,0-2.51-.33-3.74-.43.8-.09,1.66-.14,2.51-.14.61,0,3.22.09,3.64.28-.8.05-1.61.28-2.41.28Z" fill="#fff" stroke-width="0"/>
  <path d="M299.01,8.23c-.24-2.84-2.32-4.16-4.54-5.49l-.19-.47c-1.89-.66-3.31-1.89-5.44-1.89-1.94,0-3.92-.33-5.91-.33-1.75,0-5.67.24-6.76,1.8h-.19l-.09,1.04.9.24.43-1.13h1.18s.09-.09.19-.14c.09-.05.28-.05,1.04-.09.09,1.09.24,2.18.47,3.22h-.61c-.43,5.06-.47,10.12-.47,15.23,0,2.93,0,5.96.57,8.89-1.04.09-2.08.19-3.12.47l-.19-.1.9-.19c-.85-.19-1.7-.33-2.51-.38-1.04-4.49-3.12-8.61-4.21-13.1h-.47l-.09-1.04.33.28c-.43-1.28-.47-2.7-.76-4.02-.76-3.45-2.32-6.67-3.12-10.12l-.52.09-.24-.76-.76-.24.19,1.56c-1.61,3.17-1.89,6.71-3.31,9.98l-.14-.05c-.9,2.18-1.42,4.54-1.94,6.86h-.66l.61.24-.14.66-1.04.24.99.05-.52.19h.47c-.57,2.22-1.13,4.49-2.08,6.53l-.05-.19h-.99c.09.61.24,1.23.24,1.84h.33c-.24.43-.43.8-.61,1.23-.84,0-1.63.21-2.16.39-.08-2.02-.26-4.06-.26-6.06h-.38v-1.42h-.95c-.24,4.78-2.84,7-7.52,7.09-2.98-1.18-3.22-5.44-3.22-8.65v-1.84c0-1.23.05-2.46.09-3.69h3.97c1.13.38,2.46,1.04,2.55,2.36h.9l.09,2.08h.95v-5.11l.33-.09c0-.09-.19-.14-.33-.14v-4.4l-.95.24v.71h-.47c-.05,1.09-.19,2.36-.99,3.22-1.99-.09-3.97-.33-5.96-.43.19-3.78.52-7.57.61-11.4.85-.24,1.8-.38,2.7-.38,2.03,0,4.3,1.99,5.44,3.59l.09.52h.28c.38.66.71,1.32.9,2.08h.95c0-2.27-.09-4.59-.09-6.86-.95,0-1.84.28-2.79.28l-.28-.38h-1.09l.38.33c-2.18-.09-4.3-.33-6.48-.33v-.33l-.95.09v.19c-.99.09-1.89.09-2.84.09-1.23,0-2.46-.05-3.74-.05h-1.75l.99.57s2.08.57,3.17.71c-.05.52-.05,1.13-.05,1.8,0,4.21.66,10.45.66,10.45l-.57.28.57.09s.14,1.13.14,1.66c0,3.83-.24,8.61-.66,12.44-1.23.14-2.41.47-3.59.71.8,0,1.65.05,2.46.14-.95.14-1.84.43-2.7.71h.76c1.7,0,3.36-.24,5.06-.24,1.13,0,2.22-.19,3.36-.19,2.79,0,5.63.85,8.51.85.57,0,.99-.33,1.23-.8l.47.05.05.38h.95c0-.1,0-.21,0-.31.39-.01.92-.02,1.52-.02,1.56,0,3.5.05,4.54.33.61.14,1.32.14,1.94.14.19,0,.57,0,.57-.28,0-.43-1.09-.52-2.27-.52s-2.46.09-2.84.09c-.95,0-1.84-.19-2.79-.19h-.28c.28-.14.85-.14,1.37-.14.71,0,1.32.05,1.32.05h4.87v-.19c-1.23-.19-2.51-.28-3.74-.28.43-2.41,1.18-4.73,1.7-7.09h-.19c.19-.76.38-1.56.57-2.32,2.08-.05,4.21-.24,6.29-.24.38,0,.71.05,1.04.05l.09.14-.71.09c1.56,2.51,2.6,6.15,2.88,9.08-1.04,0-2.13.33-3.12.66-.09,0-.9.28-.85.43-.05.24.76.28.9.33.8.19,1.7.24,2.65.24,1.47,0,2.98-.14,4.4-.33l.19,1.04h.95c0-.38-.05-.76-.14-1.13.01,0,.02,0,.03,0,.28.12.71.15,1.1.15h.8c-.57.14-1.09.28-1.61.43h.66c.8,0,1.47-.09,2.32-.38.52.05,1.23.05,1.84.05,1.28,0,2.46-.05,2.46-.05,0,0,3.26.33,4.82.33.24,0,.47-.05.61-.05,1.75-.28,2.36-.14,3.55-.9,1.13-.14,2.36-.47,3.45-.9,4.97-1.84,5.06-10.78,5.06-15.18,0-1.84-.19-3.64-.99-5.34ZM250.77,1.42c.33,0,.71,0,1.04-.09,0,1.37.05,2.74.05,4.11l-.28-.43c-.19-1.32-.71-2.51-1.47-3.59h.66ZM247.23,1.32c1.84,0,2.93.33,3.22,2.32-1.18-1.18-2.84-2.22-4.59-2.22.47-.09.9-.09,1.37-.09ZM242.5,1.09l2.93.09-1.8.09v.19l-1.13.05v-.43ZM248.98,14.56l.19,2.18c-.38-.99-1.37-1.56-2.32-1.89.71-.09,1.47-.05,2.13-.28ZM246.56,14.52c-.8,0-1.61-.14-2.41-.28.95.09,1.89.14,2.84.14l-.43.14ZM245.19,13.9c-.61,0-1.18.09-1.8.09-.38,0-.9-.28-1.32-.33l3.12.24ZM241.84,14.33c1.09.05,2.18.19,3.22.43h-3.26l.05-.43ZM243.35,29.08l-.9-.09-.05-.71c.24.33.57.61.95.8ZM237.53,1.8c-.43-.09-.8-.19-1.18-.33.52.05,1.04.09,1.56.09l-.38.24ZM237.11,1.18l4.44-.14.05.47h-.19l-.05-.24-.99-.05.05.14-1.18.05-2.13-.24ZM240.56,19.39c0-.76.05-1.47.05-2.22s-.05-1.51-.05-2.27l.28.05c-.05,1.47-.09,2.98-.09,4.44h-.19ZM240.75,22.75c0,1.09-.09,2.22-.28,3.31l.09-5.15c.05.57.19,1.28.19,1.84ZM240.56,14.66v-.38h.33l-.05.43-.28-.05ZM240.56,14.09l-.05-.38.38.09v.28h-.33ZM240.51,13.34c0-.47-.05-.95-.05-1.42,0-1.8.71-3.78.9-5.58-.14,2.32-.33,4.68-.43,7h-.43ZM240.27,7.47c.05-1.51.14-3.03.24-4.49,0,.52.19,1.09.19,1.66,0,.95-.33,1.84-.43,2.84ZM239.23,9.13c0,1.37-.05,2.79-.05,4.21-.85-1.13-.85-8.8-.85-10.69,0-.14,0-.33.05-.47h1.09c-.33,1.09-.43,2.27-.43,3.4s.19,2.36.19,3.55ZM238.9,28.75h-.47c.19-1.51.28-3.03.33-4.54.09,1.51.14,3.03.14,4.54ZM238.48,1.94c.33-.14.71-.19,1.13-.24l-.09.28-1.04-.05ZM236.44,29.41c.8-.19,1.61-.43,2.46-.47v.24h.95v-.19l.61.05-.05.47h-2.7c-.43,0-.85-.09-1.28-.09ZM239.23,30.03c-.28,0-.61-.14-.9-.24.9,0,1.8.05,2.65.09-.57.05-1.13.14-1.75.14ZM250.63,30.64c-1.61,0-3.31-.33-4.92-.57h5.77c-.19.24-.57.57-.85.57ZM245.48,29.74c1.61-.19,3.22-.43,4.87-.43h.9c-.33.38-1.42.52-1.89.52-1.28,0-2.6-.09-3.88-.09ZM251.67,29.79l-.57.05c.24-.05.47-.14.71-.33l-.14.28ZM251.91,29.18c-.38-.05-.8-.05-1.18-.05-2.51,0-5.06.66-7.61.66-.43,0-.9,0-1.32-.05l-.43-.05.05-.57.19-.05-.05.47h.95v-.33c.76.09,1.51.14,2.36.14,2.93,0,6.1-.66,7.52-3.31-.05,1.04-.09,2.13-.47,3.12ZM253.04,29.41l-.19-.05.19-.57v.61ZM268.36,10.55c-.19-.52-1.47-3.74-1.7-3.97l-.38-2.36c.71,2.08,1.51,4.21,2.08,6.34ZM265.15,3.31c.33,2.46.8,4.92,1.32,7.33-.61-1.94-.99-3.92-1.51-5.86l-.33.24c.14-.57.33-1.13.52-1.7ZM264.3,6.38l.33,1.28h-.66l.33-1.28ZM262.22,12.48c.57-.43,1.42-3.59,1.61-4.35.76,3.59,2.08,7.05,3.45,10.45-.9.09-1.8.33-2.7.33-1.28,0-2.7-.33-3.97-.52.43-1.99.9-3.97,1.61-5.91ZM260.51,18.73l1.61.19c-.57.05-1.13.09-1.66.14l.05-.33ZM266.76,19.29c-2.13,0-4.3.14-6.43.24l.05-.14c1.09-.28,2.22-.28,3.36-.28.66,0,1.47-.05,2.27-.05.52,0,1.04,0,1.51.09l.05.14h-.8ZM265.05,9.08c.76,2.6,1.65,4.3,2.41,6.29.47,1.18.9,2.51,1.18,4.21-1.37-3.4-2.74-6.95-3.59-10.5ZM267.65,11.4c.47,1.32.85,2.13,1.09,3.07.14.61.24,1.32.28,2.27-.43-.76-1.13-4.3-1.37-5.34ZM270.02,30.08c-.85-.05-1.7-.14-2.55-.24.76-.43,1.61-.66,2.51-.76v.24c-.43.05-1.13.14-1.56.28l.95.05c.19,0,.43-.05.66-.05v.47ZM273.09,26.81c-.76-1.51-1.51-2.93-2.03-4.45-.43-1.18-.76-2.41-.8-3.78.85,2.79,1.99,5.44,2.84,8.23ZM271.01,28.09h.71l.33.76h-1.13l-.28-1.84.38,1.09ZM270.92,29.03h1.28l.19.28h-1.47v-.28ZM270.96,30.03v-.52l1.7.28-1.7.24ZM273.14,28.85c-.19-.33-.33-.61-.47-.95h.71l.24.95h-.47ZM292.72,3.03c-1.99-1.13-4.21-1.75-6.53-2.03.47-.19,1.23-.38,1.75-.38,1.61,0,3.88,1.13,4.78,2.41ZM283.54.28c1.09,0,2.18.05,3.22.14-.57.09-1.13.24-1.66.47-1.04-.05-1.09-.19-2.08-.19l.05.14h-.57v-.28l-.85-.19c.61-.05,1.23-.09,1.89-.09ZM284.68,1.28l-.57.28v-.33l.57.05ZM277.73,1.66h-.28c.99-.85,2.6-1.09,3.92-1.18l.19.38c-1.56,0-2.46.05-3.83.8ZM280.75,1.66l-.09.99-.09-.99h.19ZM280.33,6.24c.05.24.14.52.14.71,0,.85.05,1.7.05,2.6,0,1.18-.05,2.41-.28,3.5h.24c.05,2.13.24,4.26.24,6.43,0,2.41-.38,4.82-.47,7.28-.24-2.18-.28-4.35-.28-6.48,0-4.68.05-9.36.38-14.04ZM277.54,29.98c-.28-.05-.52-.09-.8-.19.28-.05.57-.14.85-.14s.57.14.9.14c-.33.05-.61.09-.95.19ZM278.58,29.55l1.75-.33.99.47-2.74-.14ZM282.08,29.37l-.05-2.36.19.14c.09.57.14,1.61.19,2.18l-.33.05ZM281.65,18.54c-.09-1.56-.19-3.17-.19-4.78,0-4.11.95-8.23,1.04-12.34l.47-.09c-.05,5.77-.99,11.49-1.32,17.21ZM283.54,7.24l.05,2.22v1.56c0,4.11-.28,8.23-.28,12.39,0,1.23.05,2.46.09,3.69l-.24-.19c-.28-1.8-.66-3.59-.66-5.44,0-4.73.71-9.5,1.04-14.23ZM283.17,27.71l.28.24.05,1.37-.24-.05c0-.38-.09-1.18-.09-1.56ZM287.28,30.17c-1.28,0-2.51-.19-3.78-.28.24-.09.05-.14.28-.14,1.94,0,5.77.14,5.77.14,0,0-1.51.28-2.27.28ZM284.21,28.56c.52,0,1.37.61,1.89.8-.52,0-1.04,0-1.61.05l-.28-.85ZM291.16,28.37c-.57.38-1.94,1.09-2.65,1.09-1.32,0-3.07-.99-4.11-1.7-.09-1.51-.14-2.98-.14-4.45,0-4.59.28-9.17.28-13.76,0-2.36-.28-7-.28-7,0,0,.61-.8,1.32-1.23,3.78.19,8.28,2.84,9.08,6.81h-.61c0,1.94.9,3.45,1.18,5.3.05.33.09.71.09,1.09,0,.52-.05.99-.05,1.47,0,3.22-.05,4.97-.47,6.38-.52,1.7-1.56,3.03-3.64,6.01ZM291.68,29.22c.47-.71,1.56-1.18,2.27-1.61l-.09.38c.43-.05,1.23-.43,1.37-.9l.43.19c.14-.38.47-.71.66-1.18.57-.47,1.04-1.04,1.37-1.75-1.23,3.26-2.74,4.16-6.01,4.87ZM296.08,11.73l.28.28-.28-1.09.71.38c.05.9.14,1.8.14,2.65,0,3.59-.09,7.52-1.23,10.92h-.19c.52-2.84.99-5.67.99-8.56,0-1.56-.28-3.07-.43-4.59ZM295.46,7.57l.05-.66c.38.71.76,1.51.85,2.36-.24-.61-.57-1.18-.9-1.7ZM298.11,10.03c0,.95-.09,1.89-.09,2.88-.24-2.74-.9-5.3-1.99-7.8l-.99-.47-.28-.9c.99.66,2.03,1.42,2.7,2.46h-.71c.47.71.95,1.47,1.32,2.22l.05,1.13v.47ZM298.96,14.14v-2.41c.14,1.13.24,2.22.24,3.31,0,1.28-.14,2.6-.38,3.88.14-1.61.14-3.17.14-4.78Z" fill="#fff" stroke-width="0"/>
</svg>