<svg xmlns="http://www.w3.org/2000/svg" viewBox="0 0 290 108"><path d="M35.8 47.17c-.96.04-1.86.08-2.73.1-3.22.08-5.49-.74-6.74-2.41-1.58-2.12-1.62-5.59-.12-10.32 2.19-6.89 12.95-22.41 16.19-27 .27-.38.24-.87-.06-1.22a.965.965 0 0 0-1.19-.23C25.69 14.13 8.98 35.15 4.37 45.65c-.32.48-7.68 11.82-2.56 17.26 2.67 2.83 8.15 3.08 13.45 3.32 4.76.22 9.26.42 10.85 2.47.77.99 1.26 4.99-4.14 20.61-2.77 8.01-5.92 15.66-6.6 17.29-.02.04-.05.08-.07.12-.07.12-.1.25-.11.38v.01c0 .26.11.52.33.69.15.12.33.17.51.17.21 0 .42-.08.59-.24 5.69-5.59 34.17-34.39 36.19-52.18.27-2.38-.24-4.28-1.52-5.65-3.02-3.25-9.65-2.98-15.5-2.75zM41.6 7l-.23-.45.24.45zm10.21 48.45c-.82 7.25-6.28 17.26-16.21 29.76-7.47 9.4-15.44 17.58-18.78 20.91l1.41-2.41c5.29-9.01 15.13-25.79 15.27-33.63.07-4.19-.8-7.16-2.67-9.06-2.57-2.62-6.55-2.62-9.46-2.62s-7.06-.45-10.68-1.72c-4.34-1.52-6.55-3.75-6.55-6.64 0-3.34 5.04-11.97 11.98-20.51 8.26-10.17 17.5-18.35 25.36-22.47-3.35 4.74-14.04 20.2-16.26 27.18-1.61 5.06-1.52 8.84.27 11.23 1.46 1.95 4.01 2.9 7.58 2.82.88-.02 1.79-.06 2.75-.1 5.63-.23 12.02-.49 14.72 2.42 1.08 1.16 1.49 2.75 1.25 4.84z" fill="#fff"/><path d="M88 8.26c.1-.74-.16-1.46-.71-1.97-.55-.51-1.28-.72-2.02-.57l-26.21 5.33c-.63.08-5.43.78-6.56 2.79-1.07 1.91-4.61 14.79-4.61 19.06 0 2.47.54 4.07 1.64 4.89.88.65 2.07.76 3.55.32 1.07-.32 2.16-.76 3.13-1.15 1.32-.53 2.81-1.13 3.38-1.01.21.57.56 2.83.93 5.22C62.2 52 65.34 72.15 72.95 72.93H73c.06 0 .11-.01.16-.03h.03c.05-.02.09-.05.13-.08.03-.03.06-.06.08-.09 0 0 .01-.02.02-.03.02-.03.03-.06.04-.09 0-.01 0-.02.01-.03.01-.04.02-.08.02-.13l.39-11.23c.36-8.8 1.01-21 2.02-29.93 1.82-.37 5-1.15 7.24-2.45 3.34-1.93 3.58-10.6 3.59-11.24l1.23-9.3zm-2.53-1.55c.41-.08.82.03 1.12.32.31.28.45.69.39 1.1l-1.56 11.79a2.11 2.11 0 0 1-1.61 1.77l-7.42 1.69c-.19.04-.34.2-.38.39-2.33 11.42-3.29 40.79-3.48 47.33-4.54-6.28-6-26.93-5.82-44.87 0-.16-.07-.3-.19-.4a.517.517 0 0 0-.32-.11c-.04 0-.08 0-.11.01l-6.42 1.46c-.84.19-1.7-.02-2.36-.58-.66-.56-1-1.38-.94-2.24l.76-10.83c.04-.63.51-1.17 1.13-1.29l27.19-5.53zM111.94 64.42c-.14-.31-.28-.62-.42-.94-.66-2.48-6.35-24.33-3.7-33.9 1.83-1.05 15.33-9.17 15.91-19.16.19-3.19-1.06-5.8-3.59-7.55-4.03-2.79-10.85-3.13-18.02-1.13-3.14.49-6.45 1.45-9.71 2.9a1.977 1.977 0 0 0-.92 2.77l2.07 3.71c-.27 1.51-2.16 12.33-3.79 24.31-2.36 17.3-3.08 28.66-2.15 33.76.04.2.19.36.39.4.04 0 .07.01.11.01.16 0 .32-.08.42-.22l8.94-13.01.95-1.37c.43-.59.91-1.13 1.22-1.14.13 0 .27.18.35.28.01.02.02.03.04.05.03.03 2.87 3.27 5.73 6.43 6.08 6.7 6.27 6.58 6.75 6.27.12-.08.39-.32.16-.84s-.48-1.07-.73-1.65zM110.87 1.5c3.51 0 6.58.73 8.71 2.2 2.26 1.56 3.32 3.8 3.15 6.66-.3 5.16-4.5 9.88-7.96 12.94-3.8 3.35-7.58 5.48-7.62 5.5-.12.06-.2.17-.24.3-2.44 8.3 1.3 25.32 2.97 32.07l-5.85-8.57a3.11 3.11 0 0 0-2.57-1.36c-1.04.01-1.99.5-2.58 1.35l-6.69 9.7c.07-11.12 6.51-51.65 6.58-52.08a.48.48 0 0 0-.06-.33l-2.16-3.87a.967.967 0 0 1-.07-.78c.09-.26.27-.47.52-.58 4.7-2.09 9.61-3.16 13.86-3.16z" fill="#fff"/><path d="M101.92 24.4a.492.492 0 0 0 .47.07c.47-.17 11.39-4.25 11.09-10.83-.06-1.31-.58-2.31-1.53-2.96-2.87-1.96-8.79.01-9.04.1-.19.07-.33.24-.34.45l-.86 12.74c-.01.17.06.34.2.44zm1.64-12.65c1.36-.09 2.73.04 3.66.67.69.47 1.05 1.18 1.09 2.17.14 3.06-2.69 5.59-5.44 7.32l.69-10.17zM140 6.54c-.28-.76-.58-1.52-.88-2.25-.04-.1-.09-.19-.15-.28-.5-1.15-1-2.16-1.47-3.04a1.81 1.81 0 0 0-1.61-.97c-.62.01-1.16.36-1.44.93-3.08 6.33-20.98 49.07-17.5 55.71.31.58.78.94 1.36 1.03.15.02.29.03.44.03 3 0 6.01-4.64 8.68-8.76.17-.26.34-.52.5-.77 1.29-1.69 2.68-3.41 3.91-4.69 2.08-.49 9.16 5.3 13.21 9.14.14.14.35.18.54.1.18-.07.31-.25.32-.44 0-.08.42-8.23-.41-18.56-1-12.54-3.23-21.27-5.49-27.19zm-3.04-1.89a.68.68 0 0 1 .63-.38c.27 0 .49.16.59.4 6.73 16.05 6.78 39.05 6.67 44.98-2.42-3.13-8.17-10.05-10.9-9.09-1.35.48-3.46 2.61-6.47 6.51-1.42 1.84-2.69 3.65-3.41 4.68-1.28-5.33-.07-13.59 3.59-24.6 3.12-9.36 7.16-18.13 9.3-22.52z" fill="#fff"/><path d="M135 33.45h.28c1.23-.08 2.31-.7 3.13-1.81 1.52-2.05 1.96-5.55 1.13-9.14-.42-1.82-1.16-2.77-2.21-2.84-2.14-.13-4.38 3.77-5.29 6.26-.86 2.34-.73 4.86.32 6.26.63.84 1.54 1.28 2.64 1.28zm-2.02-7.19c1.09-2.98 3.02-5.53 4.19-5.59.43 2.85 0 5.49-1.18 7.08-.64.86-1.46 1.34-2.38 1.4-.42.03-.8-.03-1.13-.16 0-.87.17-1.82.5-2.73zM178.11 6.84c-1.26-.85-3.74-2.03-8.43-2.8-.11-.02-.22-.03-.33-.03-.39-.1-.8-.2-1.25-.27-.65-.11-1.31.07-1.81.48-.38.32-3.32 2.78-4.85 4.86-1.26-.89-2.77-2.42-4-4.98-.44-.91-1.51-1.37-2.5-1.06l-5.72 1.79-.15.06-3.05.96c-.55.17-.99.58-1.22 1.11-.22.53-.2 1.13.07 1.65.14.26.28.56.45.87 2.71 5.32 5.81 11 8.55 11.99-.85 2.93-4.55 17.49 2.2 29.38.09.16.26.26.44.26h.09a.5.5 0 0 0 .41-.41c.01-.06.25-1.37.74-3.51.08-.06.14-.15.17-.26.07-.25 7.27-24.94 20.41-37.06.43-.4.66-.97.61-1.55-.04-.59-.35-1.12-.85-1.45zm-.45 2.27c-11.48 10.59-18.47 30.55-20.25 36.07-2.35-8.1 1.16-25.19 1.2-25.38.03-.14 0-.29-.09-.4a.499.499 0 0 0-.36-.21c-1.93-.21-5.45-4.83-9.18-12.08a.914.914 0 0 1-.03-.79c.11-.26.32-.45.58-.53L155.25 4c.11-.03.22-.05.33-.05.4 0 .78.22.95.59 1.64 3.42 3.77 5.13 5.27 5.97a2.237 2.237 0 0 0 3.11-.97c.91-1.83 2.65-3.43 3.61-4.23.27-.23.63-.32.99-.26 4.51.75 6.85 1.85 8.03 2.64.24.16.38.41.4.69.02.28-.08.54-.29.73zM203.24 17.21a.5.5 0 0 0-.42.33L199 28.18c-.09.24.02.5.24.62.06.03 1.11.57 2.5.57.57 0 1.19-.09 1.83-.34 1.61-.64 2.83-2.13 3.62-4.43.92-2.67.87-4.68-.15-5.97-1.31-1.65-3.69-1.43-3.79-1.42zm.07 1.96s.06.06.08.09c.79 1 .79 2.68-.01 5-.69 2-1.71 3.29-3.03 3.82-.03.01-.06.02-.1.03-.05-.01-.1-.03-.14-.04l3.19-8.9z" fill="#fff"/><path d="M212.52 11.81c-.35-1.42-1.12-2.47-2.27-3.09-1.05-.57-2.26-.71-3.36-.67-2.81-.33-5.79.51-5.95.55-.14.04-.25.13-.31.26-.43.85-10.6 20.87-9.71 26.44.03.19.17.35.35.4.15.05 2.4.73 5.12.73.25 0 .5 0 .75-.02.51.06 1.06.1 1.64.1 3.11 0 7.06-1.13 9.57-6.02 5.17-10.04 4.83-16.02 4.17-18.69zm-5.08 18.22c-3.85 7.48-11.18 5.37-12.72 4.82-.43-5.36 8.52-23.3 9.55-25.35.75-.22 3.56-.95 5.49.1.89.49 1.49 1.31 1.77 2.44.63 2.53.93 8.23-4.09 17.98zM226.32 20.33c-1.72-.86-3.81 1.45-5.24 3.27-1.48 1.88-3.02 4.75-2.47 6.65.23.78.79 1.35 1.64 1.65.35.12.7.18 1.05.18 2.88 0 5.38-3.95 6.39-5.8.67-1.23.85-2.6.49-3.76-.3-.97-.95-1.73-1.86-2.18zm-4.45 3.89c.97-1.23 1.73-1.99 2.32-2.44.04.08.07.17.1.26.28.9.13 1.98-.41 2.97-1.7 3.1-3.18 4.42-4.3 4.94-.4-1.42.9-3.96 2.29-5.73z" fill="#fff"/><path d="M232.46 14.43c-.48-.97-1.21-1.6-2.12-1.83a3.55 3.55 0 0 0-.47-.09c-1.09-.34-2.43-.68-2.45-.69-4.88-1.22-12.02 7.11-14.09 9.69-2.64 3.29-3.9 8.75-2.81 12.17.52 1.62 1.52 2.68 2.89 3.08.53.15 1.78.47 2.62.68.44.17.96.27 1.56.27s1.26-.1 2.02-.32c7.49-2.23 10.55-9.35 12.19-13.18 1.5-3.51 1.78-7.53.66-9.77zm-1.59 9.37c-1.57 3.67-4.51 10.51-11.54 12.61-2.01.6-3.48.23-4.36-1.08-1.81-2.7-.78-8.84 2.08-12.41 5.6-6.98 9.9-9.42 12.33-9.42.26 0 .5.03.72.08.62.16 1.11.59 1.46 1.29.98 1.97.69 5.72-.69 8.92zM249.86 29.05c.55-.23 1.64-.78 1.8-1.59.05-.27.03-.68-.4-1.07-1.02-.94-4.13-.77-5.97-.27-1.66.04-3.44.43-4.07.88-.48.35-.55.73-.52 1 .06.52.54.93.95 1.19-.36.49-.98 1.26-1.68 1.88-.33-.48-.67-1.65.5-4.29 1.91-4.28 11.04-8.33 12.85-9.1.51-.22.75-.81.54-1.32l-1.07-2.6c-.03-.06-.06-.12-.1-.17l-.63-1.52a.848.848 0 0 0-.47-.46.817.817 0 0 0-.65.02c-4.35 1.99-14.11 8.41-17.27 13.61-1.84 3.02-2.06 6.66-.57 9.26 1.05 1.83 2.78 2.84 4.89 2.84h.11c.82-.01 2.28-.24 3.29-.42.38-.03.74-.1 1.1-.2h.02c4.12-1.18 6.81-6.53 7.33-7.64zm-8.87 6.86c-1.76.03-3.22-.8-4.1-2.33-1.29-2.25-1.07-5.56.55-8.23 2.71-4.46 9.23-8.61 14.49-11.04l1 2.43c-2.63 1.12-11.37 5.1-13.38 9.62-1.55 3.49-.76 5-.14 5.6.71.69 1.86.82 2.86.34 1.75-.85 3.37-3.31 3.44-3.41.08-.12.1-.28.06-.42s-.15-.26-.28-.32c-.4-.17-.82-.48-.89-.64.01-.02.04-.05.1-.09 1.16-.83 5.19-.91 5.87-.29.07.06.1.11.09.13-.04.22-.7.67-1.36.91-.13.05-.23.15-.29.27-.03.07-3.29 7.39-8.03 7.46zM266.24 26.28c-.8-1.17-1.64-2.38-1.56-3.76.16-2.82 6.47-6.37 8.88-7.5.02 0 .03-.02.05-.03.03-.02.05-.03.08-.05l.06-.06c.02-.02.04-.05.05-.07.01-.03.02-.05.03-.08 0-.03.02-.06.02-.09v-.09-.06c0-.01-.01-.02-.01-.04v-.04c0-.02-.02-.03-.02-.04-.01-.03-.03-.06-.04-.08-.02-.02-.03-.04-.05-.07a.435.435 0 0 0-.07-.06c-.02-.02-.05-.03-.07-.04l-.09-.03c-.03 0-.06-.01-.09-.02h-.05c-.68 0-16.76.2-18.85 6.48-.77 2.32.73 3.81 2.05 5.13 1.05 1.04 2.03 2.02 1.98 3.33-.1 2.54-6.4 7.31-8.82 8.93-.2.14-.28.39-.18.62.08.19.27.31.47.31.03 0 .07 0 .11-.01.15-.03 1.52-.33 3.36-.87h.09c.4-.09 9.85-2.21 13.09-5.71 2.12-2.3.79-4.25-.4-5.97zm-.35 5.27c-1.79 1.93-5.83 3.47-8.85 4.4 2.93-1.85 6.66-4.65 6.75-6.93.07-1.76-1.12-2.94-2.26-4.09-1.27-1.27-2.36-2.36-1.82-4.1.42-1.34 2.96-2.81 7.16-4.13 1.03-.33 2.06-.61 2.98-.84-2.69 1.62-6.04 4.12-6.18 6.6-.1 1.72.88 3.14 1.74 4.39 1.32 1.92 1.99 3.08.49 4.7zM289.78 19.1c-.31-.61-.9-1.03-1.57-1.12l-1.89-.24c-.21-.1-.43-.18-.66-.21l-1.97-.25c-.77-.1-1.55.12-2.14.59-5.02 4.02-10.43 15.33-10.66 15.81-.09.19-.05.41.09.57.1.1.23.16.37.16.07 0 .13-.01.19-.04 1.71-.71 3.24-1.48 4.61-2.29 8.62-4.08 12.19-8.6 13.59-11.05.34-.59.36-1.31.05-1.92zm-.93 1.41c-1.39 2.45-5.06 7.05-14.21 11.13 1.84-2.87 6.31-9.52 10.08-12.54.31-.25.72-.39 1.14-.39.08 0 .16 0 .24.02l1.97.25c.35.04.64.25.8.56.16.31.15.66-.02.96zM272.62 36.23a2.76 2.76 0 0 0-1.04-.3c-.04 0-.07-.01-.11 0h-.06c-.13 0-.26 0-.39.02-.66.03-1.8.11-2.24.25-.7.22-1.27.7-1.62 1.35-.34.65-.41 1.4-.19 2.1a2.74 2.74 0 0 0 2.61 1.93c.11 0 .23 0 .34-.02h.23c.84-.01 1.22-.05 1.45-.14.19-.02.37-.05.56-.11 1.45-.45 2.26-2 1.8-3.45-.22-.7-.7-1.27-1.35-1.62zm.26 3.24a1.739 1.739 0 1 1-.74-2.35c.41.22.71.58.85 1.02.14.44.1.91-.12 1.32z" fill="#fff"/></svg>