<svg xmlns="http://www.w3.org/2000/svg" viewBox="0 0 280 93"><path d="M279.76 78.9c1.09 11.76-2.19 8.94-11.68 10.96-1.69.28-3.26.16-4.5-1.24-3.63-4.29-9.45-3.21-14.12-5.45-1.87-.75-3.5-.73-5.14.55-8.8 5.37-19.42-.96-28.81-1.57-4.11-.21-8.2 1.64-12.22 2.39-4.48 1.13-6.85-5.1-11.55-2.7-3.36.65-7.02 2.54-10.44 1.79-3.73-1.9-7.48-.55-11.31-.36-7.08-.79-13.99.22-20.88 1.72-3.17.68-6.53-1.3-9.56.53-2.19 1.27-5.44.65-7.43-1.22-2.95-2.51-5.08-6.41-9.33-6.55-9.91-1.49-11.17-2.74-20.29 2.12-6.18 1.58-12.66-.74-18.8 1.24-5.09 1.13-10.09 3.04-15.1.56-1.04-.26-2.28-.77-3.15-.45-10.47 1.83-15.99 15.74-19.8 10.21-1.54-1.9-3.3-2.48-5.7-2-3.79.37-5.34-4.48-8.98-4.94-6.29-2.21-10.65 3.15-15.79 6.04-4.31 2.23-14.37.69-15.19-4.26.14-3.04-.48-7.4 1.78-9.67 3.97-2.27 7.81-4.99 12.74-4.8 5.91-.1 2.4 3.98 5.49 6.53 3.73-3.02-1.65-10.55 7.74-9.6 4.61.71 9.34.97 13.62 3.13 5.09 1.38 10.67-.59 15.98 0 2.06-.02 4.22.53 6.17.08 8.64-1.99 17.23.31 25.9-.52 7.05.72 9.08 2.78 14.88-2.87 4.86-3.55 4.38 5.53 10.11 2.34 1.23-.37 3.04-.75 3.89-.15 6.44 4.85 11.99-2.76 18.71-.95 10.57 2.22 19.86-5.93 28.01-2.67 3.73 2.37 7.2-1.48 10.73.36 6.74 2.48 14.25.53 21.26 1.75 4.97.54 9.85 1.92 14.84-.05 4.63-.73 9.6 1.59 14.1 2.65 7.9 3.45 15.1-3.46 22.68-2.84 8.72 3.73 18.35 2.92 27.5 4.92 3.93-.43 3.94 1.6 3.84 4.95h-.21z" fill="#fff" stroke-width="0"/><g fill="#fff" stroke-width="0"><path d="M51.95 11.79L58.75 0h-7.53L49 4.44l-1.09 2.25-.55 1.1-.51 1.12h-.11l-.5-1.12-.51-1.1-1.1-2.25L42.41 0h-7.53l6.81 11.79-7.28 12.48h7.64l2.4-4.91 1.2-2.44.59-1.24.58-1.24h.11l.58 1.24.54 1.24 1.2 2.44 2.41 4.91h7.49l-7.2-12.48zM84.79 24.27l2.2-6.59 1.59-4.84.77-2.42.73-2.42h.19l-.13 2.48c-.26 4.46-.29 5.35-.29 7.42v6.37h5.61V3.02h-9.08l-1.91 6.12c-.76 2.39-.86 2.77-1.56 5.42l-.48 1.82h-.22c-.26-.83-.48-1.69-.7-2.55-.51-1.72-.8-2.68-1.47-4.71l-1.98-6.08h-8.89v21.25h5.61v-6.37c0-1.78-.06-2.96-.32-7.42l-.16-2.48h.19c.64 1.98 1.15 3.6 1.53 4.84l1.62 4.81 2.26 6.63h4.87zM111.81 20.6l1.11 3.66h5.8l-6.47-21.25h-8.63l-6.37 21.25h5.92l1.02-3.66h7.61zm-3.79-13.34l2.68 9.24h-5.29l2.61-9.24zM132.55 21.43v2.84h5.8v-3.89c.06-2.61-1.21-4.01-3.82-4.14v-.22c1.5-.38 2.01-.57 2.55-1.02 1.05-.83 1.43-2.26 1.43-5.35 0-2.87-.51-4.36-1.88-5.38-1.24-.96-2.61-1.24-5.67-1.24h-10.74v21.25h5.7v-5.64h4.24c1.69-.06 2.45.83 2.39 2.8zm-6.63-13.54h4.24c2.1 0 2.52.45 2.52 2.55 0 2.87-.35 3.38-2.23 3.38h-4.52V7.89zM161.64 24.27l-8.13-10.8 7.52-10.45h-6.88l-5.45 8.06h-1.72V3.02h-5.7v21.25h5.7v-8.38h1.75l5.93 8.38h6.98zM177.18 12c-1.34-.41-1.4-.41-6.56-.8-1.82-.13-2.01-.16-2.36-.48-.32-.25-.48-.76-.48-1.47 0-1.69.67-2.07 3.44-2.07.3 0 7.58 0 7.83.02V2.87h-7.89c-4.14 0-5.93.32-7.33 1.31-1.21.86-1.75 2.45-1.75 5.03 0 3.79.96 5.35 3.6 6.02 1.08.25 2.84.45 6.31.64 2.23.13 2.68.48 2.68 1.98 0 .86-.19 1.34-.61 1.69-.48.41-.76.45-2.61.45h-8.46v4.45h8.46c4.21 0 5.93-.38 7.33-1.59 1.08-.96 1.5-2.42 1.5-5.29 0-3.41-.77-4.81-3.09-5.54zM206.3 3.02h-16.82v4.87h5.39v16.38h5.7V7.89h5.73V3.02zM227.11 24.27V3.02h-5.71v8.03h-7.39V3.02h-5.7v21.25h5.7v-8.35h7.39v8.35h5.71zM246.13 19.58h-9.88v-4.14h9.05v-3.92h-9.05V7.7h9.69V3.02h-15.39v21.25h15.58v-4.69zM38.15 45.19c-.87 2.73-.98 3.17-1.78 6.19l-.55 2.07h-.26c-.29-.95-.55-1.93-.8-2.91-.58-1.96-.91-3.06-1.67-5.38l-2.26-6.95H20.68v24.27s.02 8.25-.78 12.86c-.22 1.3-.49 2.6-.41 3.92s.53 2.66 1.53 3.53c.31.27.68.49 1.09.49 1.04 0 1.52-1.39 1.24-2.39-.28-1-.99-1.87-1.17-2.89-.25-1.45.58-2.86.69-4.32.05-.74-.09-1.47-.2-2.2-.48-2.97-.62-5.98-.45-8.98h4.87v-7.28c0-2.04-.07-3.38-.36-8.48l-.18-2.84h.22c.73 2.26 1.31 4.11 1.75 5.53l1.86 5.49 2.58 7.57h5.57l2.51-7.53 1.82-5.53.87-2.77.84-2.77h.22l-.15 2.84c-.29 5.09-.33 6.11-.33 8.48v7.28h6.4V38.22H40.34l-2.18 6.99zM69.19 53.71c0 2.87-.58 3.38-3.71 3.38-3.71 0-4.37-.44-4.37-3.06V38.2H54.6v15.83c0 1.31 0 1.56.07 2.29.18 2.84 1.09 4.33 3.24 5.35 1.6.73 3.49.98 7.35.98 4.11 0 5.68-.25 7.28-1.13 1.64-.91 2.69-2.55 2.95-4.55.04-.33.22-3.09.22-3.46V38.19H69.2v15.5zM98.88 51.89c1.2-.95 1.64-2.58 1.64-6.11 0-3.27-.58-4.98-2.15-6.15-1.42-1.09-2.98-1.42-6.48-1.42H79.63v24.27h6.51v-6.44h4.84c1.93-.07 2.8.95 2.73 3.2v3.24h6.62v-4.44c.07-2.98-1.38-4.58-4.37-4.73v-.25c1.71-.44 2.29-.65 2.91-1.16zm-7.57-1.35h-5.17v-6.77h4.84c2.4 0 2.87.51 2.87 2.91 0 3.27-.4 3.86-2.55 3.86zM122.23 39.45c-1.31-.8-3.46-1.24-5.86-1.24h-12.7v24.27H116c4.29 0 6.69-.84 8.19-2.98 1.35-2.04 1.56-3.38 1.56-9.35l.04-2.87c0-3.78-1.2-6.4-3.57-7.82zm-3.74 16.04c-.62 1.06-1.35 1.42-3.02 1.42h-5.28V43.85h5.28c1.67 0 2.51.33 3.02 1.16.47.73.65 2.11.65 4.98 0 3.31-.15 4.66-.65 5.49zM135.33 52.4h10.34v-4.48h-10.34v-4.36h11.06v-5.35h-17.57v24.27h17.79v-5.35h-11.28V52.4zM169.17 51.89c1.2-.95 1.64-2.58 1.64-6.11 0-3.27-.58-4.98-2.15-6.15-1.42-1.09-2.98-1.42-6.48-1.42h-12.26v24.27h6.51v-6.44h4.84c1.93-.07 2.8.95 2.73 3.2v3.24h6.62v-4.44c.07-2.98-1.38-4.58-4.37-4.73v-.25c1.71-.44 2.29-.65 2.91-1.16zm-7.57-1.35h-5.17v-6.77h4.84c2.4 0 2.87.51 2.87 2.91 0 3.27-.4 3.86-2.55 3.86zM217.23 42.21c-1.34-.8-2.17-.96-4.59-.96h-10.67V62.5h5.7v-5.45h3.41l.92-.03q2.84-.06 3.22-.1c1.34-.19 2.64-.83 3.31-1.66 1.02-1.24 1.4-2.84 1.4-5.93 0-4.08-.73-5.99-2.71-7.14zm-5.99 9.94h-3.57v-6.21h3.6c1.18 0 1.34.03 1.82.22.76.35 1.02 1.08 1.02 2.9 0 2.74-.32 3.09-2.87 3.09zM237.58 41.82c-1.24-.54-2.71-.73-5.61-.73-2.71 0-4.43.19-5.58.57-2.13.76-3.6 2.2-4.08 3.98-.41 1.43-.57 3.5-.57 7.36 0 2.1.06 3.19.22 4.08.41 2.07 1.31 3.41 2.96 4.43 1.37.86 3.03 1.15 6.34 1.15 5.19 0 7.61-.8 9.02-3.03 1.02-1.59 1.24-3.06 1.24-7.65 0-2.96-.06-4.52-.29-5.51-.45-2.26-1.62-3.76-3.66-4.65zm-2.29 14.4c-.48 1.21-1.21 1.53-3.54 1.53-3.89 0-4.14-.35-4.14-5.61 0-3.15.1-4.21.45-4.91.51-1.02 1.27-1.27 3.76-1.27 2.29 0 3.06.29 3.5 1.31.32.76.38 1.43.38 4.36s-.1 3.76-.41 4.59zM243.03 41.25v4.87h5.39V62.5h5.7V46.12h5.73v-4.87h-16.82zM196.12 50.23c-1.34-.41-1.4-.41-6.56-.8-1.82-.13-2.01-.16-2.36-.48-.32-.25-.48-.76-.48-1.47 0-1.69.67-2.07 3.44-2.07.3 0 7.58 0 7.83.02v-4.35h-7.89c-4.14 0-5.93.32-7.33 1.31-1.21.86-1.75 2.45-1.75 5.03 0 3.79.96 5.35 3.6 6.02 1.08.25 2.84.45 6.31.64 2.23.13 2.68.48 2.68 1.98 0 .86-.19 1.34-.61 1.69-.48.41-.76.45-2.61.45h-8.46v4.45h8.46c4.21 0 5.93-.38 7.33-1.59 1.08-.96 1.5-2.42 1.5-5.29 0-3.41-.77-4.81-3.09-5.54z"/></g></svg>