<svg xmlns="http://www.w3.org/2000/svg" width="260" height="66" viewBox="0 0 260 66"><path d="M49.48,18.93a2,2,0,0,0-1.94-1.36,2.15,2.15,0,0,0-1.66.68,4.94,4.94,0,0,0-1,2.42,31.45,31.45,0,0,0-.42,4.69q-.1,2.94-.1,7.41t.1,7.41a31.45,31.45,0,0,0,.42,4.69,5,5,0,0,0,1,2.42,2.15,2.15,0,0,0,1.66.68,2,2,0,0,0,1.4-.53,3.65,3.65,0,0,0,.84-1.77,20.21,20.21,0,0,0,.43-3.32c.08-1.38.12-3.13.12-5.24h9V40.4a24.66,24.66,0,0,1-1,7.63,12.29,12.29,0,0,1-2.64,4.68A8.23,8.23,0,0,1,51.9,55a16.26,16.26,0,0,1-4.36.59,14.85,14.85,0,0,1-6.37-1.18,8.34,8.34,0,0,1-3.88-3.94,21.67,21.67,0,0,1-1.92-7.13,90.76,90.76,0,0,1-.52-10.58A79.07,79.07,0,0,1,35.47,22a21.13,21.13,0,0,1,2.12-7.14A9.06,9.06,0,0,1,41.52,11a13.56,13.56,0,0,1,6-1.21,12.74,12.74,0,0,1,5.33,1,9,9,0,0,1,3.56,2.82,11.93,11.93,0,0,1,2,4.4,24.51,24.51,0,0,1,.62,5.8v2.79h-9V24.08A14.7,14.7,0,0,0,49.48,18.93Z" fill="#fff"/><path d="M71.89,10.62V26.88h5.67V10.62h9.26v44.3H77.56V36.68H71.89V54.92H62.63V10.62Z" fill="#fff"/><path d="M108.68,10.62l8.66,44.3h-9.86l-.94-7.76H99.17l-1,7.76h-9.7L97,10.62Zm-5.88,9.06-2.54,18.8h5.18l-2.54-18.8Z" fill="#fff"/><path d="M131.78,10.62l3.73,26.24h.1l3.73-26.24h13.25v44.3h-8.67v-33h-.1l-4.92,33h-6.67l-4.93-33h-.1v33h-8.67V10.62Z" fill="#fff"/><path d="M170.16,10.62a9.36,9.36,0,0,1,4.58,1.06A9.06,9.06,0,0,1,178,14.56a12.69,12.69,0,0,1,1.87,4.31,23,23,0,0,1,.6,5.4q0,6.89-3,10.33T168.77,38h-3.24V54.92h-9.26V10.62Zm-2.89,19.11a3.1,3.1,0,0,0,2.67-1.3,7.25,7.25,0,0,0,.92-4.1q0-5.4-3.59-5.4h-1.74v10.8Z" fill="#fff"/><path d="M192.27,10.62v44.3H183V10.62Z" fill="#fff"/><path d="M195.9,22.19A21.64,21.64,0,0,1,198,15.06,9.48,9.48,0,0,1,202,11a14.69,14.69,0,0,1,11.95,0,9.42,9.42,0,0,1,3.93,4A21.64,21.64,0,0,1,220,22.19a73.88,73.88,0,0,1,.65,10.58A73.88,73.88,0,0,1,220,43.35a21.64,21.64,0,0,1-2.14,7.13,8.85,8.85,0,0,1-3.93,3.94,15.72,15.72,0,0,1-11.95,0A8.9,8.9,0,0,1,198,50.48a21.64,21.64,0,0,1-2.14-7.13,73.88,73.88,0,0,1-.65-10.58A73.88,73.88,0,0,1,195.9,22.19Zm9,18a34.4,34.4,0,0,0,.42,4.69,5.09,5.09,0,0,0,.95,2.42,2.38,2.38,0,0,0,3.33,0,5.09,5.09,0,0,0,.95-2.42,31.45,31.45,0,0,0,.42-4.69q.11-2.94.1-7.41t-.1-7.41a31.45,31.45,0,0,0-.42-4.69,5,5,0,0,0-.95-2.42,2.38,2.38,0,0,0-3.33,0,5,5,0,0,0-.95,2.42,34.4,34.4,0,0,0-.42,4.69q-.1,2.94-.1,7.41T204.91,40.18Z" fill="#fff"/><path d="M234.33,10.62l6,27.3h.1V10.62h8.66v44.3H238.91l-6.17-27.36h-.1V54.92H224V10.62Z" fill="#fff"/><path d="M15,51.2H10.5V40.62H15v3.19H30.8v4.24H15Z" fill="#fff"/><path d="M10.5,35.42H18v-2.6H10.5V28.57H30.8v4.25H22.44v2.6H30.8v4.24H10.5Z" fill="#fff"/><path d="M10.5,16.92h4.33v5.4h3.46V17.26h4.15v5.06h4V16.71H30.8v9.86H10.5Z" fill="#fff"/><path d="M260,65.54H0V0H260ZM3.87,61.67H256.13V3.87H3.87Z" fill="#fff"/></svg>