<svg xmlns="http://www.w3.org/2000/svg" viewBox="0 0 200 107"><path d="M42.55 31.11c-.84-1.81-2.68-2.8-5.05-1.62-1.38.69-1.16 1.02-.87 1.58.72 1.41 1.45 2.83 2.17 4.24.31.6.34 1.39 2.14.48 2.2-1.09 2.42-2.92 1.61-4.68zM53.66 73.61c-1.34 0-1.3.83-1.37 1.95l-.14 3.43c-.07.94-.25 1.73.94 1.73 2.35 0 3.11-1.3 3.11-3.54 0-1.77-.43-3.58-2.53-3.58zM95.74 28.37c.05 1.62.35 2.27 2.19 2.23 4.26-.04 5.13-4.06 5.22-7.25.22-7.43-3.16-8.69-6.13-8.61-1.62.04-1.71.59-1.67 1.79l.39 11.84z" fill="#fff"/><path d="M197.38 80.53c-.05-.06-.09-.13-.14-.19.82-1.85 1.24-3.91 1.24-6.05 0-8.05-5.3-16.38-14.18-16.38-1.83 0-3.23.43-3.83.61h-.02c-.18.03-.83.11-2.26.11H167.5c-.31 0-.66-.02-1.02-.02-1.38 0-3.48.1-5.76.91-.47-.19-.96-.35-1.45-.49 4.2-.45 7.81-2.75 9.86-6.36.01-.02.03-.05.04-.07.67-1.2 1.66-3.48 1.61-6.34 1.05.33 2.4.62 3.98.62 4.25 0 8.17-2.17 10.48-5.81 1.87-2.93 2.46-6.37 1.65-9.7-1.44-5.99-6.76-9.1-9.97-10.97-2.82-1.68-5.5-2.76-8.01-3.23-2.27-2-5.3-3.59-9.01-5.2-.09-.04-.17-.07-.26-.11-5.17-2.09-8.68-2.98-11.77-2.98h-.09a13.783 13.783 0 0 0-5.06-2.68c-1.03-.3-1.99-.44-2.79-.5-1.43-.7-3.55-1.6-6.4-2.24-2.17-.49-4.38-.73-6.55-.73-3.86 0-7.61.8-10.94 2.3-5.24-4.02-11.73-5-16.62-5.03H99.3c-4.6.02-9.25.25-13.82.67-1.8.16-3.46.54-4.96 1.1-.65-.07-1.33-.11-2.04-.11-2.05 0-4.01.3-5.1.5-2.79.45-6.35 1.28-9.37 3.37-.58-.07-1.18-.1-1.78-.1-2.55 0-5.38.52-9.17 1.7-.07.02-.14.04-.21.07-3.47 1.15-7.14 2.66-9.93 5.16-3.25.16-6.58 1.02-9.7 2.52-.01 0-.03.01-.04.02-1.28.62-2.75 1.49-4.96 2.8-1.44.85-3.23 1.91-5.37 3.14-.01 0-.02.01-.04.02-.3.17-.59.33-.88.49-.57.31-1.22.66-1.92 1.09-3.7 2.22-6.2 5.45-7.06 9.09-.78 3.29-.2 6.67 1.61 9.52a12.37 12.37 0 0 0 7.61 5.42l1.29 2.16c-.46 3.85 1.12 6.89 1.82 8 .02.04.04.07.07.11.32.5.67.97 1.05 1.41-.32-.01-.64-.02-.97-.02-6.57 0-12.79 2.32-17.49 6.52C2.81 69.23-.01 75.54-.01 82.42s2.87 13.45 8.09 18.07c4.72 4.18 10.94 6.48 17.5 6.48 4.01 0 7.77-.88 11.05-2.48 1.28.73 2.72 1.29 4.29 1.67 2.85.7 5.64.7 6.99.7 3.68 0 6.31-.31 8.55-1.03 2.06.82 4.54 1.35 7.52 1.35 3.88 0 7.24-.81 9.99-2.4 2.97 1.29 6.72 2.18 11.46 2.18 5.13 0 9.13-1.03 12.26-2.55.26.16.53.31.8.45 2.59 1.34 5.63 1.99 9.3 1.99s6.79-.67 9.4-2.05c.49-.26.96-.54 1.4-.84 2.55 1.92 5.34 2.89 8.31 2.89s5.95-1.07 8.26-3.03c3.82 2.04 8.17 3.14 12.69 3.14 3.87 0 7.51-.82 10.71-2.32 2.11 1.2 4.57 1.81 7.32 1.81h14.85c.57 0 1.12.05 1.7.11.09.01.18.03.27.04.77.12 1.62.25 2.66.25 3.05 0 8.72-1.16 12.41-8.94.84-1.76 2.24-5.3 2.24-9.17 0-2.95-.93-5.87-2.62-8.21zm-51.41-39.77c.64-1.59 2.23-.25 3.32-1.2.61-.53 1.39-1.79 2.62-4.61.72-1.66.66-2.34.01-4.17-.77-1.83-1.58-3.65-2.45-5.46-1.13-2.38-3.71-2.75-3.19-4.21.22-.62.48-2.31 9.16 1.2 7.68 3.34 6.99 4.6 6.7 5.17-.36.74-1.5.54-1.79 1.14-.3.63.23 3.11 1.08 3.54.89.44 3.12-.29 3.46-.93.41-.79-.58-1.38-.02-2.45.86-1.69 5.02.53 6.35 1.33 4.41 2.56 5.27 3.76 4.53 4.92-1.08 1.72-2.92-.83-5.51-.35-2.12.41-4.21.87-6.27 1.39-2.3.75-2.83 1.55-3.86 3.52-1.35 2.59-1.78 3.8-1.79 4.48 0 1.04 1.74 1.77 1.01 3.07-1.11 1.96-5.85-.56-7.37-1.23-6-2.8-6.34-4.32-6-5.15zM114.5 23.3c.61-6.66 8.19-10.72 16.6-8.84 3.41.77 5.03 2.1 6.02 2.36.69.19 1.81 0 2.49.2 2.38.69 2.79 4.23 2.29 5.77-.48 1.48-1.85 2.7-3.79 2.13-3.55-1-2.41-5.31-7.54-6.51-3.29-.74-5.83 1.15-6.42 4.45-1.12 6.43 2.49 9.52 4.61 10.05 1.18.28 2.25-.3 2.54-1.4.64-2.57-3.58-.94-2.93-3.77.49-2.29 5.93-1.15 7.72-.59 6.64 1.96 6.43 3.83 6.14 4.65-.27.78-1.2 1.06-2.05.92-.91-.2-1.03-.07-1.52.64-2.76 3.98-7.86 4.73-12.45 3.72-6.76-1.54-12.35-6.79-11.7-13.78zM86.52 11.88c4.27-.4 8.55-.61 12.83-.63 11.07.08 14.05 6.21 13.43 11.8-.66 5.92-4.83 10.87-13.11 10.84-1.43 0-2.62 0-3.65-.03-1.03 0-1.93.01-2.86.06-.93.05-1.89.15-2.81.25-.92.14-1.84.25-2.8.35-1.12.11-2.6-.25-2.76-1.51-.27-2.28 2.67-.06 2.3-4.67-.28-3.66-.55-7.33-.81-10.99-.25-3.27-2.96-1.38-3.2-3.42-.18-1.45 2.07-1.94 3.45-2.06zm24.08 42.41c0 3.05-4.11 7.13-11.87 7.13s-11.67-3.99-11.67-8.04c0-3.59 3.14-4.16 3.14-4.73 0-.34-1.03-1.71-1.03-3.02 0-3.14 3.54-5.36 7.1-5.36 1.6 0 5.02.66 5.02 2.77 0 .8-.8 1.65-1.63 1.65s-1.51-1.2-2.88-1.2c-1.08 0-1.74.94-1.74 1.97 0 2.8 3.11.91 3.11 2.88 0 3.39-3.31 1.11-3.31 3.71 0 2.88 2.68 5.9 5.65 5.9 1.91 0 4.34-1.25 4.34-3.45 0-1.03-.88-1.74-1.91-1.74-1.8 0-1.91 2.14-2.82 2.14s-1.28-1.31-1.28-2.03c0-5.76 7.82-5.25 7.82-7.62 0-.4-.29-.77-.68-.77-.26 0-.4.2-.74.2-.31 0-.6-.29-.6-.63 0-1.57 2.57-2.31 3.79-2.31 2.17 0 4.31 1.31 4.31 3.68 0 3.62-4.25 4.59-4.25 5.45s2.14.94 2.14 3.42zm-72.11 32.4c-.94.11-1.01.29-1.26 1.23-1.41 5.27-6.5 7.8-11.63 7.8-7.66 0-14.34-5.31-14.34-13.29s6.47-13.04 14.2-13.04c3.18 0 4.91.98 5.85.98.65 0 1.59-.54 2.24-.54 2.24 0 3.58 3.68 3.58 5.53s-.9 3.58-2.85 3.58c-3.58 0-3.58-5.02-8.49-5.02-3.14 0-5.17 2.6-5.17 6.43 0 7.44 4.33 10.11 6.65 10.11 1.26 0 2.2-.94 2.2-2.24 0-3-3.79-.07-3.79-3.4 0-2.64 5.45-2.82 7.3-2.82 6.79 0 7.19 1.91 7.19 2.96 0 .94-.79 1.59-1.66 1.73zm-3.65-36c-.93-1.49 1.83-1.91.5-4.14-2.12-3.55-4.25-7.1-6.37-10.65-1.23-2.06-3.85.78-4.91-.89-.68-1.07.69-2.28 1.77-2.93.87-.53 1.75-.97 2.63-1.48 5.11-2.93 8.12-4.84 9.65-5.58 4.99-2.4 10.82-1.95 12.49 2.52 1.66 4.43-1.65 8.41-6.16 10.58-.98.47-2.03.81-2.91 1.25-.39.2-.45.4-.29.72.28.55.56 1.09.84 1.64 1.9 3.47 3.43.87 4.25 2.53.88 1.84-3.43 4.13-4.76 4.91-1.27.66-5.63 3.25-6.72 1.53zm29.15 45.25c-5.78 0-6.5-3.32-7.62-8.09-.4-1.66-1.01-3.29-3-3.29-.79 0-1.08.11-1.08 2.38 0 1.05.07 2.49.25 3.5.29 1.66 2.13 1.16 2.13 2.89 0 1.3-.9 2.28-6.75 2.28-1.73 0-6.86 0-6.86-2.64 0-1.88 2.71-.58 2.71-5.27V77.41c0-5.6-2.75-3.29-2.75-5.53 0-1.99 2.82-2.24 4.26-2.24.76 0 1.48.07 2.24.11.72.07 1.48.14 2.2.14 1.16 0 2.31-.07 3.5-.14 1.16-.04 2.35-.11 3.5-.11 4.08 0 8.81 1.81 8.81 6.61 0 2.17-1.05 4.26-3.07 5.24-.33.18-.58.29-.58.72 0 .54.47.69.9.87 2.53.94 3.65 2.6 4.15 6.5.43 3.36 2.78 1.34 2.78 3.54 0 1.37-1.66 2.82-5.74 2.82zm-8.14-64.13c-.83-2.3-1.65-4.6-2.48-6.9-.53-1.94-3.01-1.03-3.53-2.38-.14-.36-1.25-2.05 6.56-4.64 6.21-1.93 7.74-1.21 8.04-.04.58 2.2-2.72.89-1.85 4.68l1.59 5.62c1.05 3.64 3.2 5.5 6.75 4.64 5.3-1.21 4.32-5.16 4.24-5.53-.5-2.59-1.01-5.17-1.51-7.76-.65-3.35-3.65-1.4-4.04-3.18-.44-1.94 4.09-2.81 5.69-3.06 1.48-.28 5.79-.9 6.02.94.23 1.75-2.79 1.09-2.35 3.96.43 2.82.87 5.65 1.3 8.47.24 1.54 1.23 8.64-9.86 11.22-12.53 3.48-14.46-5.5-14.58-6.03zm42.06 43.86v9.75c0 1.63.04 10.29-12.46 10.29-14.23 0-12.64-10.98-12.64-11.41v-8.34c.14-2.28-2.31-2.28-2.31-3.94 0-.51-.4-2.53 7.04-2.53 5.89 0 7.08 1.08 7.08 2.49 0 2.6-2.64.18-2.82 4.59v6.65c0 4.3 1.63 7.04 5.45 7.04 5.71 0 5.45-4.73 5.45-5.13v-8.99c0-3.86-3.11-2.38-3.11-4.48 0-2.24 4.19-2.17 5.67-2.17 1.37 0 5.35 0 5.35 2.09s-2.71.79-2.71 4.08zm31.67-.9c-.47 1.3-.47 3.54-.47 4.91v9.36c0 1.63.22 6.57-2.2 6.57-.72 0-1.34-.43-1.88-.9L113.87 84.7c-.51-.47-1.44-1.34-2.2-1.34-1.12 0-1.16 2.35-1.16 3.11 0 1.01.04 2.35.25 3.29.54 2.31 2.46 1.44 2.46 3.21 0 2.42-3.72 2.64-5.42 2.64s-5.38-.22-5.38-2.56c0-1.91 2.09-1.16 2.46-3.47.25-1.55.33-3.83.33-5.45 0-2.6 0-5.24-.4-7.84-.58-3.61-3.18-2.2-3.18-4.37 0-2.56 4.88-2.42 6.5-2.42 2.24 0 2.64.14 4.26 1.59l8.56 7.51c.43.36 1.59 1.41 2.24 1.41.9 0 .94-1.48.94-2.09 0-.9-.04-2.46-.33-3.29-.51-1.52-2.42-.98-2.42-2.93 0-2.31 3.68-2.2 5.2-2.2s5.53-.18 5.53 2.31c0 2.06-1.91 1.3-2.53 2.96zm31.17 11.92c-.94.11-1.01.29-1.26 1.23-1.41 5.27-6.5 7.8-11.63 7.8-7.66 0-14.34-5.31-14.34-13.29s6.47-13.04 14.2-13.04c3.18 0 4.91.98 5.85.98.65 0 1.59-.54 2.24-.54 2.24 0 3.58 3.68 3.58 5.53s-.9 3.58-2.85 3.58c-3.58 0-3.58-5.02-8.49-5.02-3.14 0-5.17 2.6-5.17 6.43 0 7.44 4.33 10.11 6.65 10.11 1.26 0 2.2-.94 2.2-2.24 0-3-3.79-.07-3.79-3.4 0-2.64 5.45-2.82 7.3-2.82 6.79 0 7.19 1.91 7.19 2.96 0 .94-.79 1.59-1.66 1.73zm24.6 8.92c-.25 0-.83-.11-1.59-.22-.79-.07-1.81-.18-3.03-.18h-14.85c-2.38 0-2.42-1.08-2.42-1.55 0-1.99 2.46-.4 2.71-4.23.43-6.57.47-5.92.11-12.46-.25-5.53-3-2.67-3-5.24 0-2.2 3.03-1.84 4.52-1.84h10.4c4.84 0 5.53-.72 6.1-.72 2.06 0 2.93 3.54 2.93 5.13 0 1.19-.47 2.6-1.88 2.6-2.85 0-.54-3.47-7.4-3.47-4.01 0-3.61.72-3.61 4.88 0 2.09.11 2.17 2.31 2.17 2.75 0 .69-4.01 3.25-4.01 2.09 0 2.24 4.08 2.24 5.49 0 1.48-.25 5.82-2.42 5.82s0-3.79-3.65-3.79c-1.52 0-1.48 1.37-1.48 2.53 0 5.27.36 5.02 4.15 5.02 7.4 0 5.31-5.09 8.27-5.09 1.16 0 1.73 1.3 1.73 2.31 0 2.46-1.95 6.86-3.4 6.86z" fill="#fff"/></svg>