<?xml version="1.0" encoding="UTF-8"?>
<svg id="logos" xmlns="http://www.w3.org/2000/svg" viewBox="0 0 420 19">
  <path d="M101.72,14.2c.29-.56.54-.97.73-1.4,1.48-3.41,2.95-6.82,4.4-10.24.53-1.26.62-1.36,2.03-1.36,1.07,0,2.13.03,3.16.04.2.76.05,1-.56.96-1.2-.08-1.36.06-1.36,1.3,0,4.05.02,8.11.05,12.16,0,1.04.34,1.34,1.38,1.3.47-.02.94-.04.93.54,0,.56-.49.56-.95.55-1.71-.02-3.41,0-5.12,0-.25,0-.5-.04-.9-.07.06-.36.11-.65.15-.85.15-.07.18-.1.21-.1,2.1-.02,1.98.06,2.03-2.04.09-3.72.03-7.44.03-11.16l-.25-.05c-.15.3-.31.59-.44.9-1.78,4.14-3.55,8.27-5.32,12.41-.05.12-.08.26-.16.35-.22.25-.45.49-.68.73-.24-.23-.58-.42-.7-.71-.64-1.43-1.23-2.88-1.84-4.32-1.23-2.91-2.46-5.83-3.69-8.74-.12-.29-.26-.56-.57-.82-.02.24-.05.47-.05.71.07,3.53.13,7.06.21,10.59.03,1.27.5,1.77,1.82,2.02q.9.17.86,1.07c-.14.03-.29.1-.44.1-1.67,0-3.35-.02-5.02-.02-.42,0-.85.04-.92-.48-.07-.55.35-.57.77-.64.88-.13,1.25-.52,1.36-1.41.07-.55.14-1.11.13-1.66-.09-3.56-.22-7.12-.31-10.68-.02-.73-.33-1.02-1.01-.97-.49.03-.73-.19-.81-.82.3-.07.61-.2.93-.21.95-.03,1.9.01,2.85-.01,1.1-.03,1.4.19,1.84,1.22,1.62,3.78,3.26,7.54,4.9,11.31.05.12.15.21.36.5Z" fill="#fff" stroke-width="0"/>
  <path d="M24.19,2c-.27-.55-.1-.87.52-.88,1.68-.02,3.35-.02,5.03.01.22,0,.42.29.64.44-.22.18-.43.48-.67.51-1.31.15-1.32.13-1.32,1.48,0,1.73,0,3.45,0,5.13,1.22.49,8.64.4,9.78-.1,0-1.89.03-3.81-.04-5.73-.01-.27-.53-.55-.86-.76-.14-.09-.42.04-.57-.04-.22-.11-.39-.33-.59-.5.18-.15.36-.43.55-.43,1.74-.03,3.48-.02,5.22,0,.17,0,.34.15.49.22.09.68-.31.72-.78.75-1,.05-1.17.23-1.17,1.25,0,3.99,0,7.98,0,11.97,0,1.33.18,1.51,1.52,1.6.42.03.89.08.77.61-.05.22-.5.5-.77.51-1.77.05-3.55.03-5.32.02-.77,0-.86-.16-.64-.99.14-.02.3-.07.45-.08,1.54-.05,1.78-.27,1.79-1.76.01-1.37,0-2.75.02-4.12.02-.72-.29-.99-1-.98-2.6.03-5.19.03-7.79.04-.71,0-1.1.24-1.08,1.03.04,1.47,0,2.94.04,4.41.03,1.14.27,1.34,1.42,1.37.4.01.88-.05.85.52-.02.5-.46.57-.88.57-1.77,0-3.55.02-5.32-.02-.29,0-.58-.25-.88-.38,0-.12,0-.25,0-.37.32-.11.64-.28.97-.3,1.23-.09,1.53-.3,1.54-1.53.03-3.89.04-7.78,0-11.67-.01-1.49-.11-1.52-1.95-1.8Z" fill="#fff" stroke-width="0"/>
  <path d="M413.39,10.68c.42.58.77,1.09,1.14,1.57.99,1.26,1.93,2.57,3.01,3.74.5.54,1.3.81,1.95,1.22.2.13.34.33.5.5-.17.16-.32.42-.52.47-1.3.36-2.58.34-3.57-.7-.94-.99-1.82-2.06-2.66-3.13-.63-.79-1.18-1.65-1.74-2.49-.53-.79-1.24-1.12-2.32-.86-.05.33-.15.7-.14,1.07.02,1.11.09,2.22.14,3.33.06,1.24.29,1.45,1.55,1.44.9,0,1.07.26.69,1.14-.17.02-.37.07-.56.07-1.81,0-3.61,0-5.42,0-.43,0-.95.03-.93-.58.01-.54.45-.61.93-.61,1.1-.02,1.4-.32,1.4-1.41.01-3.99.01-7.97,0-11.96,0-1.05-.2-1.17-1.21-1.1-.25.02-.51-.23-.76-.35.21-.24.39-.63.65-.69.57-.14,1.17-.12,1.76-.15,2.2-.09,4.4-.29,6.56.29,1.5.41,2.84,1.07,3.43,2.64.74,1.96-.06,4.1-2.03,5.43-.56.38-1.15.7-1.84,1.11ZM409.08,2.54c-.3,1.44-.13,6.43.24,7.14,3.06.46,4.62-.71,5.34-2.27.68-1.46.29-3.38-.81-4.34-1.19-1.04-3.55-1.3-4.78-.53Z" fill="#fff" stroke-width="0"/>
  <path d="M393.77,9.42c0,4.97-3.79,8.91-8.67,8.87-5.3-.04-8.63-3.59-8.65-8.77-.02-4.9,3.51-8.49,8.71-8.55,5.08-.06,8.61,3.48,8.61,8.44ZM391.13,10.54c-.04-2.78-.54-4.88-2.18-6.54-1.69-1.71-3.74-2.23-6.04-1.58-2.17.61-3.25,2.23-3.57,4.35-.17,1.12-.25,2.28-.15,3.41.18,2.07,1,3.9,2.56,5.35,3.04,2.83,7.57,1.7,8.84-2.24.34-1.04.43-2.16.54-2.74Z" fill="#fff" stroke-width="0"/>
  <path d="M234.47,9.56c-.24-3.74,2.56-8.49,8.65-8.58,5.09-.07,8.68,3.55,8.64,8.52-.04,4.97-3.91,8.89-8.75,8.81-6-.1-8.69-4.65-8.54-8.75ZM249.25,10.08c-.13-2.45-.76-4.62-2.57-6.33-2.67-2.53-7.86-2.22-9.17,2.13-.21.71-.35,1.46-.39,2.21-.17,2.97.53,5.65,2.88,7.67,2.87,2.46,7.07,1.44,8.43-2.07.44-1.14.56-2.4.82-3.6Z" fill="#fff" stroke-width="0"/>
  <path d="M317.17,14.01c-.29,1.33-.56,2.6-.86,3.97h-11.74v-.9c2.11-.32,2.16-.32,2.18-2.42.04-3.82.02-7.64.02-11.46,0-.22-.07-.44-.13-.79-.61-.05-1.21-.11-1.82-.16-.4-.82-.21-1.07.72-1.06,2.69.04,5.39.07,8.08.09.52,0,1.05-.07,1.57-.06.44,0,.88.08,1.5.15-.12,1.1-.18,2.07-.34,3.02-.08.48-.48.56-.91.38-.05-.07-.1-.11-.12-.17-.46-1.84-.75-2.11-2.69-2.26-.85-.07-1.71-.09-2.56,0-.34.04-.89.38-.93.65-.29,1.9-.26,3.82-.1,5.81,1.37,0,2.61.03,3.85-.01.65-.02.86-.55.9-1.1.03-.49.2-.92.72-.78.23.06.45.59.46.91.06,1.04.02,2.09.01,3.13,0,.44-.02.91-.59.96-.61.05-.63-.43-.66-.87-.04-.6-.35-1.02-.97-1.04-1.17-.04-2.35-.01-3.62-.01-.06.35-.14.63-.14.91,0,1.57.04,3.14.05,4.71,0,.79.36,1.27,1.16,1.27,1.11,0,2.24.04,3.33-.16,1.27-.23,1.8-1.3,2.22-2.41.35-.93.62-.99,1.38-.28Z" fill="#fff" stroke-width="0"/>
  <path d="M57.38,9.96c-.07.41-.18.72-.17,1.03.04,1.6.12,3.2.16,4.8.02.64.31,1.03.93,1.03,1.21,0,2.43.03,3.61-.18.56-.1,1.08-.68,1.52-1.14.28-.29.39-.75.55-1.13.18-.42.3-.96.91-.81.71.18.45.76.36,1.22-.21,1.02-.44,2.03-.7,3.16-.33.05-.71.14-1.08.14-3.28.01-6.57,0-9.85,0-.44,0-.94,0-.93-.59.01-.53.46-.51.88-.52,1.06-.02,1.43-.36,1.44-1.42.04-3.92.06-7.84.05-11.76,0-1.47-.06-1.46-1.5-1.49-.16,0-.32-.03-.6-.05-.03-.3-.05-.59-.08-.91h12.09c-.12,1.13-.18,2.1-.35,3.05-.08.46-.49.57-.93.37-.04-.06-.11-.11-.11-.16-.22-1.68-.36-1.89-2.1-2.14-1.06-.16-2.16-.16-3.24-.12-.29.01-.64.37-.83.65-.16.25-.19.62-.19.94-.02,1.34-.02,2.68,0,4.02,0,.25.08.5.13.82,1.34,0,2.61.03,3.88-.02.61-.02.74-.56.82-1.06.07-.43.13-.94.72-.83.59.11.53.62.51,1.1-.04.91-.03,1.82-.04,2.73,0,.16.09.37.02.48-.18.27-.43.49-.64.74-.21-.24-.56-.46-.62-.74-.24-1.05-.34-1.19-1.38-1.21-1.04-.02-2.09,0-3.21,0Z" fill="#fff" stroke-width="0"/>
  <path d="M132.83,17.84c-.14-.65.17-.82.74-.86,1.02-.07,1.3-.43,1.01-1.39-.32-1.06-.71-2.1-1.15-3.11-.11-.25-.55-.49-.84-.5-1.8-.05-3.61-.04-5.42-.04-.55,0-.93.26-1.12.79-.35.95-.75,1.88-1.07,2.84-.3.91.05,1.36,1.02,1.41.33.02.67-.06.98.02.23.06.42.3.63.46-.21.2-.4.54-.63.57-.58.07-1.18-.02-1.77-.02-1.05,0-2.1.02-3.15.05-.41,0-.88,0-.87-.51,0-.19.46-.5.73-.53.91-.11,1.27-.76,1.57-1.45.86-1.97,1.7-3.95,2.54-5.94.74-1.77,1.49-3.54,2.18-5.34.27-.7.38-1.45.6-2.35.84.13,1.54-.56,2.32-1.35.19.47.33.78.46,1.11,1.7,4.3,3.4,8.6,5.11,12.9.16.39.35.77.53,1.15.35.75.79,1.35,1.77,1.26.19-.02.42.3.63.46-.18.19-.36.55-.54.55-2,.02-4-.02-6-.05-.05,0-.11-.06-.24-.15ZM132.48,10.66c.06-1.13-1.85-6.02-2.65-6.81-1.09,2.21-2.13,4.39-2.9,6.79,1.94.49,3.71.17,5.55.02Z" fill="#fff" stroke-width="0"/>
  <path d="M149.88,13.37c.03.15.06.31.08.47.33,2.48,2.15,3.73,4.56,3.13,1.93-.48,2.67-2.95,1.26-4.49-.58-.63-1.38-1.08-2.13-1.54-.84-.51-1.75-.89-2.59-1.41-2.08-1.29-2.95-3.22-2.41-5.2.55-2.01,2.36-3.37,4.79-3.33,1.25.02,2.51.42,3.75.7.57.13.86.53.85,1.15-.01.75.06,1.51.01,2.25-.02.25-.32.48-.49.72-.22-.19-.53-.35-.65-.59-.22-.46-.26-1.01-.5-1.46-.85-1.61-2.32-2.04-4.02-1.54-1.7.5-2.27,2.63-1.08,4,.54.62,1.3,1.08,2.02,1.52.92.55,1.93.97,2.87,1.51,1.77,1.03,2.93,2.52,2.58,4.65-.36,2.2-1.78,3.58-3.94,4.16-1.75.47-3.45.24-5.09-.49-.88-.39-1.33-1.03-1.17-2.02.09-.55.1-1.11.24-1.65.12-.51.38-.94,1.06-.54Z" fill="#fff" stroke-width="0"/>
  <path d="M341.93,15.52c.68.61.69.83,0,1.34-1.34.99-2.91,1.37-4.53,1.42-3.52.11-6.62-.85-8.53-4.03-2.89-4.84-1.02-11.96,6.45-13.12,1.92-.3,3.8-.13,5.65.41,1.71.5,1.96.87,2.03,2.63.01.36,0,.71,0,1.19-.4.04-.77.08-1.16.12-.11-.28-.2-.48-.28-.69-.69-1.7-2.05-2.51-3.8-2.68-4.67-.44-6.98,2.68-7.46,5.78-.62,4.02,1.45,7.82,5.54,8.8,1.97.47,3.84.12,6.09-1.16Z" fill="#fff" stroke-width="0"/>
  <path d="M223.92,5.41h-1.24c-.48-1.6-1.45-2.71-3.1-3.11-3.85-.93-7.12.99-8.18,4.66-.96,3.31.22,6.85,2.84,8.64,2.49,1.7,5.78,1.72,8.31.05.08-.05.18-.08.27-.11.7.61.71.81.01,1.33-1.34.99-2.9,1.37-4.53,1.43-3.2.11-6.07-.68-8.1-3.35-3.26-4.3-2.27-12.46,5.98-13.79,1.88-.3,3.73-.15,5.55.37,1.81.51,2.06.84,2.18,2.72.02.35,0,.7,0,1.19Z" fill="#fff" stroke-width="0"/>
  <path d="M367.28,5.29c-.57.27-.88.17-1.04-.38-.71-2.59-2.13-3.32-4.89-2.43-.06.38-.18.82-.18,1.26.04,3.98.09,7.97.17,11.95.02,1.05.24,1.21,1.31,1.26.25.01.49.07.72.11.22.73-.05,1.02-.69,1.02-1.77,0-3.54.01-5.32,0-.62,0-.91-.31-.67-1.04.26-.03.54-.08.83-.1,1.17-.1,1.4-.33,1.41-1.53.02-2.16.04-4.31.04-6.47,0-1.83-.02-3.66-.03-5.49,0-.98-.12-1.13-1.13-1.19-.65-.04-1.32-.04-1.96.09-1.09.22-1.77.94-2.03,2.02-.08.32-.13.64-.19.95-.66.27-1.01.05-.99-.6.02-.95.08-1.89.19-2.83.07-.67.61-.77,1.17-.77,1.58.02,3.15.06,4.73.06,2.36,0,4.73-.04,7.09-.06,1.26,0,1.4.11,1.43,1.4.02.93,0,1.86,0,2.77Z" fill="#fff" stroke-width="0"/>
  <path d="M.9,5.37C.34,5.53,0,5.4,0,4.82c0-.88,0-1.77.06-2.65.04-.69.43-1.06,1.16-1.05,4.11,0,8.21-.01,12.32.03.34,0,.94.37.95.61.1,1.19.05,2.39.05,3.56-.52.23-.84.16-.96-.36-.02-.1-.06-.19-.07-.29-.16-2.25-2.29-2.72-4.03-2.46-.73.11-1.02.49-1.01,1.18,0,1.05-.03,2.09,0,3.14.06,3.07.14,6.14.21,9.21.02.98.23,1.17,1.23,1.22.25.01.52.05.73.17.11.06.17.42.09.51-.17.2-.44.43-.67.43-1.77.03-3.55.02-5.32.02-.64,0-.9-.3-.73-1.06.3-.03.65-.07.99-.1.94-.09,1.16-.25,1.19-1.2.08-2.58.11-5.16.14-7.74.02-1.54-.01-3.07-.01-4.61,0-.71-.29-1.12-1.05-1.11-.69.01-1.39-.05-2.06.08-1,.19-1.7.81-1.99,1.82-.12.4-.21.81-.31,1.22Z" fill="#fff" stroke-width="0"/>
  <path d="M272.94,18.07c-.48,0-.94,0-1.39,0-3.18,0-6.36.01-9.55.04-.48,0-.89-.05-.91-.62-.01-.5.39-.5.77-.52,1.33-.1,1.57-.33,1.58-1.69.02-3.82.03-7.64.02-11.46,0-1.43-.32-1.7-1.74-1.66-.13,0-.25-.03-.4-.05-.29-.63-.1-.96.58-.96,1.87,0,3.74-.03,5.61.02.26,0,.52.34.78.53-.24.16-.47.37-.74.45-.34.11-.75.02-1.05.18-.3.16-.62.48-.71.79-.15.56-.18,1.16-.18,1.75-.02,2.97-.02,5.94,0,8.92,0,.55.08,1.11.15,1.66.15,1.21.17,1.23,1.41,1.44.32.06.65.11.97.12,2.78.09,3.3-.25,4.35-2.81.18-.44.38-.81.91-.64.46.15.47.52.36.96-.22.95-.37,1.91-.56,2.86-.04.19-.14.36-.28.71Z" fill="#fff" stroke-width="0"/>
  <path d="M283.02,18.02v-.93c.22-.05.4-.11.59-.12,1.39-.08,1.68-.32,1.7-1.7.04-3.1.03-6.21.04-9.31,0-.78,0-1.57-.02-2.35-.02-1.14-.4-1.49-1.57-1.48-.22,0-.43-.04-.67-.06-.16-.63.03-.93.64-.93,1.87,0,3.74,0,5.61,0,.56,0,.9.2.67.91-.48.07-.98.14-1.49.21-.67.09-.98.5-.98,1.14,0,4.02-.02,8.03.02,12.05,0,1.03.24,1.24,1.29,1.38.81.11,1.63.13,2.45.14,1.3.01,2.14-.69,2.64-1.83.18-.42.3-.88.54-1.25.13-.2.5-.38.71-.33.19.04.47.42.44.61-.17,1.16-.37,2.32-.68,3.45-.07.24-.67.46-1.03.46-1.97.01-3.94-.06-5.91-.06-1.38,0-2.76.07-4.13.1-.25,0-.5-.04-.86-.07Z" fill="#fff" stroke-width="0"/>
  <path d="M179.48,2.38c-.54-.09-.86-.07-1.1-.2-.25-.13-.42-.41-.62-.62.22-.15.43-.43.66-.43,1.74-.03,3.48-.03,5.22,0,.21,0,.59.32.57.46-.02.23-.32.64-.46.63-2.22-.21-3.07,1.65-4.29,2.86-1.17,1.17-2.13,2.55-3.06,3.7,0,.3-.03.38,0,.42,1.54,2.51,3.19,4.96,5.39,6.95.7.63,1.65.99,2.66,1.57.14.35-.28.48-.66.55-1.54.26-3.01.21-4.25-.93-2.17-2.01-3.68-4.49-5.2-6.97-.33-.53-.21-1,.22-1.5,1.46-1.72,2.87-3.48,4.27-5.25.25-.31.38-.71.66-1.24Z" fill="#fff" stroke-width="0"/>
  <path d="M168.72,2.1c-.32-.66-.11-.97.5-.98,1.74-.02,3.48-.01,5.22,0,.59,0,.85.26.6.83-.1.06-.15.11-.21.12-1.83.12-1.84.12-1.84,1.93,0,3.43,0,6.86.02,10.29,0,.78.13,1.55.21,2.46.79.1,1.51.19,2.24.28.28.71.03,1.02-.68,1.03-1.9,0-3.81,0-5.71,0-.45,0-.85-.18-.76-.65.04-.2.52-.43.8-.43,1.41-.03,1.63-.15,1.64-1.55.04-4.02.04-8.04.04-12.06,0-.99-.31-1.25-1.32-1.28-.23,0-.46,0-.74,0Z" fill="#fff" stroke-width="0"/>
</svg>