<svg xmlns="http://www.w3.org/2000/svg" width="180" height="122" viewBox="0 0 180 122"><g fill="#fff"><path d="M49.78 21.13H35.66V16.2a24.42 24.42 0 0 0-.4-5.84 1.79 1.79 0 0 0-1.91-1.17 1.78 1.78 0 0 0-1.78 1c-.31.67-.47 2.4-.47 5.17v26.05a15.57 15.57 0 0 0 .47 4.81 1.82 1.82 0 0 0 1.88 1.16 2.06 2.06 0 0 0 2.09-1.31A15.18 15.18 0 0 0 36.1 41v-6.46h-2.85v-8.25h16.53v29.14h-8.87l-1.31-3.89a9.8 9.8 0 0 1-3.6 3.77 10.22 10.22 0 0 1-5.18 1.26 13.51 13.51 0 0 1-6.67-1.73 12.74 12.74 0 0 1-4.71-4.27 13.52 13.52 0 0 1-2-5.35 63.73 63.73 0 0 1-.41-8.4V20.69a53.91 53.91 0 0 1 .84-11.3C18.38 7 20 4.89 22.63 2.93A16.92 16.92 0 0 1 32.91 0a19.16 19.16 0 0 1 10.3 2.55 12.1 12.1 0 0 1 5.33 6.05 32.3 32.3 0 0 1 1.24 10.18zM79.65 1.14l8.07 54.29H73.29l-.75-9.76h-5.05l-.85 9.76H52l7.2-54.29zm-7.48 34.91q-1.08-9.22-2.17-22.8-2.15 15.59-2.7 22.8zM133.68 1.14v54.29h-12.34V18.78l-4.91 36.65h-8.76l-5.18-35.81v35.81H90.12V1.14h18.26c.55 3.26 1.1 7.11 1.68 11.54l2 13.81 3.25-25.35zM139.34 1.14h23.54V12h-9.42v10.3h8.82v10.33h-8.82v11.93h10.36v10.87h-24.48zM0 65.24h14.08a36.83 36.83 0 0 1 10.11 1 10 10 0 0 1 5.55 4.2q2.11 3.17 2.12 10.21 0 4.75-1.5 6.63t-5.88 2.92c3.26.74 5.48 2 6.64 3.68s1.74 4.33 1.74 7.86v5c0 3.67-.42 6.38-1.26 8.15a6.71 6.71 0 0 1-4 3.62q-2.76 1-11.27 1H0zm14.12 9.29V86.6h1.41q2.07 0 2.64-1t.57-5.85a9.3 9.3 0 0 0-.47-3.57 2.25 2.25 0 0 0-1.22-1.29 10.72 10.72 0 0 0-2.93-.36zm0 20.52v15.19c2-.07 3.25-.38 3.8-.94s.82-1.93.82-4.12v-5.07c0-2.32-.24-3.73-.73-4.22s-1.79-.77-3.89-.84zM70.18 97q0 8.18-.38 11.58a13 13 0 0 1-7.9 10.55 20.07 20.07 0 0 1-8 1.51 20.5 20.5 0 0 1-7.9-1.4 13.05 13.05 0 0 1-8.1-10.48A117.12 117.12 0 0 1 37.52 97v-9.26q0-8.19.39-11.59a12.94 12.94 0 0 1 7.89-10.54 19.93 19.93 0 0 1 8.05-1.51 20.43 20.43 0 0 1 7.83 1.42A13 13 0 0 1 69.78 76a114.44 114.44 0 0 1 .4 11.74zM56.07 79.19a16.84 16.84 0 0 0-.42-4.85 1.68 1.68 0 0 0-1.73-1 1.91 1.91 0 0 0-1.69.85c-.4.57-.59 2.25-.59 5v25.35a25.47 25.47 0 0 0 .38 5.83 1.69 1.69 0 0 0 1.8 1.11 1.73 1.73 0 0 0 1.84-1.28 26.45 26.45 0 0 0 .41-6.06zM99.85 65.24l8.07 54.29H93.5l-.76-9.76h-5l-.85 9.76H72.24l7.21-54.29zm-7.48 34.91q-1.08-9.23-2.15-22.81-2.16 15.6-2.71 22.81zM110.32 65.24h10q10 0 13.53.77a9.32 9.32 0 0 1 5.76 3.99q2.23 3.17 2.23 10.11 0 6.33-1.58 8.52c-1 1.45-3.11 2.32-6.2 2.61 2.8.7 4.67 1.62 5.63 2.79a8.28 8.28 0 0 1 1.8 3.2 51.3 51.3 0 0 1 .35 8v14.32h-13.11v-18q0-4.36-.69-5.4c-.46-.69-1.66-1-3.6-1v24.48h-14.12zm14.12 9.29V86.6a6.14 6.14 0 0 0 3.33-.66c.64-.43 1-1.84 1-4.24v-3c0-1.72-.31-2.85-.92-3.39a5.3 5.3 0 0 0-3.41-.78zM147.31 65.24h10.56q10.23 0 13.83.94a10.56 10.56 0 0 1 5.48 3.08 9.79 9.79 0 0 1 2.35 4.74 72.7 72.7 0 0 1 .47 10.39v19q0 7.3-.69 9.77a7.36 7.36 0 0 1-2.4 3.86 9.91 9.91 0 0 1-4.22 1.94 38 38 0 0 1-7.58.56h-17.8zm14.11 9.29v35.71c2 0 3.29-.41 3.76-1.23s.7-3 .7-6.65V81.27a29.29 29.29 0 0 0-.23-4.73 2.31 2.31 0 0 0-1.07-1.54 7.07 7.07 0 0 0-3.16-.47z"/></g></svg>