<svg xmlns="http://www.w3.org/2000/svg" width="280" height="111" viewBox="0 0 280 111"><path d="M1.28,38.56H0V33.31H1.28V28.72h6v4.59H10.5v5.25H7.23v5.16c0,.91.62,1,1.12,1A8.1,8.1,0,0,0,10,44.42l1.28,4.92a21.21,21.21,0,0,1-5,.91c-3.14,0-5-2-5-5.74Z" fill="#fff"/><path d="M22.85,32.9a8.81,8.81,0,0,0-3.85,1V0H12.85V49.83H19V41.49c0-2.52,1.45-3.26,2.77-3.26a3,3,0,0,1,3,3.26v8.34h5.95V41.57C30.74,37,28.05,32.9,22.85,32.9Z" fill="#fff"/><path d="M40.59,32.9a7.72,7.72,0,0,1,7.85,7.77,10.54,10.54,0,0,1-.08,1.11.8.8,0,0,1-.79.7H37.66a3.06,3.06,0,0,0,3.18,2.73,8.86,8.86,0,0,0,2.89-1l3.06,3.68s-3.51,2.35-6.12,2.35a8.68,8.68,0,0,1-.08-17.35Zm2,6.36a2.24,2.24,0,0,0-2.19-1.94,2.31,2.31,0,0,0-2.24,1.94Z" fill="#fff"/><polygon points="4.98 61.62 19.87 61.62 19.87 58.82 1.98 58.82 1.98 86.95 4.98 86.95 4.98 61.62" fill="#fff"/><polygon points="5.4 74.13 5.4 86.95 8.42 86.95 8.42 76.91 18.68 76.91 18.68 74.13 5.4 74.13" fill="#fff"/><polygon points="5.4 62.04 5.4 73.71 18.68 73.71 18.68 70.84 8.42 70.84 8.42 64.89 19.87 64.89 19.87 62.04 5.4 62.04" fill="#fff"/><rect x="27.72" y="58.82" width="3.05" height="28.14" fill="#fff"/><rect x="24.24" y="58.82" width="3.05" height="28.14" fill="#fff"/><path d="M57.67,80.26,39.23,65.88V87h3.12V71.54h0S60.7,87,60.7,86.57v-27h-3Z" fill="#fff"/><polygon points="38.81 65.02 57.25 79.41 57.25 59.6 54.17 59.6 54.17 73.43 54.13 73.43 35.83 58.31 35.87 86.95 38.81 86.95 38.81 65.02" fill="#fff"/><path d="M74.3,62.22H68.91V83.68h5c4.62,0,12.36-1.43,12.36-11.05C86.32,64.4,78.46,62.22,74.3,62.22Zm.85,18.62H71.81v-16h3.34a8,8,0,1,1,0,16Z" fill="#fff"/><path d="M75.56,58.82H65.37V87H75.56A14.22,14.22,0,0,0,90.07,72.81C90.07,64.88,83.54,58.82,75.56,58.82ZM74,84.1H68.49V61.8H74.3c4.3,0,12.44,2.26,12.44,10.83C86.74,82.61,78.73,84.1,74,84.1Z" fill="#fff"/><polygon points="111.85 64.89 111.85 62.01 96.7 62.01 96.7 72.44 109.61 72.44 109.61 69.59 99.77 69.59 99.77 64.89 111.85 64.89" fill="#fff"/><polygon points="96.28 84.29 96.28 61.59 111.85 61.59 111.85 58.82 93.33 58.82 93.33 86.91 111.85 86.91 111.85 84.29 96.28 84.29" fill="#fff"/><polygon points="96.7 83.87 111.85 83.87 111.85 80.84 99.77 80.84 99.77 75.67 109.61 75.67 109.61 72.86 96.7 72.86 96.7 83.87" fill="#fff"/><path d="M127.66,74.22l-.85,0h-7.34V87h3.14V76.42h2.85L131,87.36h3.35Z" fill="#fff"/><path d="M134.89,67.74c0-3.69-2.6-5.73-7.33-5.73h-8.09V73.82h7.34C132,73.82,134.89,71.66,134.89,67.74Zm-12.28-3h6.11a3.17,3.17,0,0,1,3.14,3.14,3.32,3.32,0,0,1-3.14,3.31h-6.11Z" fill="#fff"/><path d="M138.27,67.74a9,9,0,0,0-9-8.92H116.12V87h2.93V61.59h8.51c4.92,0,7.75,2.24,7.75,6.15s-2.61,6.08-7.19,6.45l6.65,13.17h3.5L132.15,76C135.74,74.6,138.27,71.54,138.27,67.74Z" fill="#fff"/><path d="M165.21,58.4a14.88,14.88,0,1,0,14.87,14.92A14.81,14.81,0,0,0,165.21,58.4Zm0,27.07a12.2,12.2,0,1,1,12.19-12.19A12.21,12.21,0,0,1,165.23,85.47Z" fill="#fff"/><path d="M165.23,61.55A11.73,11.73,0,1,0,177,73.28,11.74,11.74,0,0,0,165.23,61.55Zm0,20a8.27,8.27,0,1,1,8.26-8.22A8.27,8.27,0,0,1,165.21,81.54Z" fill="#fff"/><path d="M186.45,58.82V76.26a9.67,9.67,0,0,0,1.5,5,7.47,7.47,0,0,0,6.67,3.27c.86,0,8.37-.24,8.37-8.36V58.82h-3.24V76.33a5.13,5.13,0,1,1-10.25,0V58.82Z" fill="#fff"/><path d="M203.45,76.19c0,4.07-2.31,8.82-8.83,8.82-6.83,0-8.63-5.72-8.63-8.75V58.82h-3.14V76.66a11.78,11.78,0,0,0,23.55,0V58.82h-3Z" fill="#fff"/><polygon points="217.08 110.08 220.04 110.08 220.04 62 209.63 62 209.63 64.89 217.08 64.89 217.08 110.08" fill="#fff"/><rect x="209.63" y="58.82" width="21.28" height="2.72" fill="#fff"/><polygon points="223.61 110.08 223.61 64.89 230.91 64.89 230.91 62 220.51 62 220.51 110.08 223.61 110.08" fill="#fff"/><polygon points="238.44 83.87 253.58 83.87 253.58 80.84 241.51 80.84 241.51 75.67 251.35 75.67 251.35 72.86 238.44 72.86 238.44 83.87" fill="#fff"/><polygon points="253.58 64.89 253.58 62.01 238.44 62.01 238.44 72.44 251.35 72.44 251.35 69.59 241.51 69.59 241.51 64.89 253.58 64.89" fill="#fff"/><polygon points="238.02 84.29 238.02 61.59 253.58 61.59 253.58 58.82 235.06 58.82 235.06 86.91 253.58 86.91 253.58 84.29 238.02 84.29" fill="#fff"/><path d="M269.4,74.22l-.85,0h-7.34V87h3.13V76.42h2.85l5.5,10.94H276Z" fill="#fff"/><path d="M276.62,67.74c0-3.69-2.6-5.73-7.32-5.73h-8.09V73.82h7.34C273.75,73.82,276.62,71.66,276.62,67.74Zm-12.28-3h6.12a3.17,3.17,0,0,1,3.14,3.14,3.32,3.32,0,0,1-3.14,3.31h-6.12Z" fill="#fff"/><path d="M280,67.74a9,9,0,0,0-9-8.92H257.85V87h2.94V61.59h8.51c4.92,0,7.74,2.24,7.74,6.15s-2.6,6.08-7.19,6.45l6.66,13.17H280L273.88,76C277.48,74.6,280,71.54,280,67.74Z" fill="#fff"/></svg>