<svg xmlns="http://www.w3.org/2000/svg" width="250" height="60" viewBox="0 0 250 60"><path d="M22.81,55.42c-.31,0-.31-.24-.55-.24s-.32.31-.62.24L4.42,51A.74.74,0,0,0,4,50.76v-.23c-.78-.09-3.47-.11-3.49-1l1.24-1.24A1.86,1.86,0,0,0,0,47.66c0-1.47.47-10.94.47-11.17.23-.23,1-.47,1.24-.23v-.62H.39c.11-1.86.09-4.2.39-6.05H3v.77a10.29,10.29,0,0,0,2.48-.54V28.58C2.77,27.27-.17,31.48,1,25.94c1-.75,1.87-.53,3-.31V25.4a5.51,5.51,0,0,0-1.48-.47A1.69,1.69,0,0,1,1,24.39c0-3.66.8-14.5.7-18.15a2.36,2.36,0,0,1,2.71.23c.45,0,.38-.22,1.09-.23h.62a1.33,1.33,0,0,0,.31.7l.23-.16c1.26-1.28,4.21-.06,5.9-.08,2.42-.67,4.94.62,7.6.24a.44.44,0,0,0,.77,0c2.66.07,4.8-.34,7.37.77.84,2.81,2.89,4.89,3.49,7.84-.94.42.64,1.17.47,2-.78.39-.85-.08-1.24.93.36.58,1-.09,1.47,0a73.8,73.8,0,0,1,.39,9.16h-5.2c0-.19.47-.62.62-.78-.49,0-.66.06-1,.54H25.52V25.16h-.77c0-.38.46-.46.46-.85-.23,0-.62-.46-.62.39l-.47-1.47c.24,0,.55-.32.78-.55.08-.6-.76-.61-1-.93L22,17.56,13.81,17c.08-.85-.78-.39-1-.39V17c-.62,0-.47-.93-1.09-.93s-.85.85-.85,1.16c-2.72-.24-2.73.5-3.26,3C7,20.2,7,21,7.6,21c0,1.42.26,3.32-.93,3.95-.09.64.69.07.7.7,0,.93.25,2.74-.7,3.26l.23.23v8.15c0,.46.47,4.65.47,5.12.12.64-.88.8-1.47.77-.07.45,1.27.15,1.47.23a15,15,0,0,1,.54,1.48L17,44.09c3.1-.34,2.06-2.82,4-1.16.19-.83-.77-1.16-1.47-1.24.12-.55-.33-2.79.39-2.95.08-.05,1.71.69,1.78.7a2.82,2.82,0,0,1-.93.77c.65-.07,2.47.24,2.95-.31-1.91-1-4.86-3.23-6.9-1.7H13c-.27-.53-.77,0-1.24,0a7,7,0,0,1,.31-2.41l.23.47h1.94V36H13c0-.85-.85-.62-.85-1.62,0-1.25,1.24-1.63,2.41-1.63h9.38c.81,1-.68,1,0,2v.47L22.65,36l1.71.47V37h.39c0-.7-.16-.94-.16-1.56.28-1.09,1.07-1,0-2.09,0-.23.08-.54.31-.54h7.6c0,.72-1.1.37-1,1a4.46,4.46,0,0,0,1.79.47V32.77h4.19l1.16.54v2.95c-.93.07-1.47,0-1.47.7,1.61-.08,1.52,0,1.47,1.47H33.74c.09-.35-2-.37-1.94,0L28.55,39V41.3c-.62,0-.7.31-.7.85s.7.16.7.86c0,.54-.39.54-.39,1.08.85-.3.53,1.31.62,2.1,0,1.78-3,2-3,3.1,1.24,0,1.79-.7,2.72-1a4.72,4.72,0,0,1-.24,3.49c-1.63,0-1.86,4.42-3.41,4.42-.93,0-.23-1-1.24-1C23.12,55.18,23.12,55.42,22.81,55.42Zm-21.1-11c-.24,0-.62.23-.62.47.54,0,1.16.08,1.39-.47a.92.92,0,0,0-1-.54ZM1.47,19h.24v-.31H1.47Zm.24,1.47H3v-.23H1.71Zm.23,16a.16.16,0,1,0,.31,0A.16.16,0,1,0,1.94,36.49Zm.39,4.34-.08.08c0,.23.23.23.23,0Zm4.19,5.28a5.67,5.67,0,0,0-4.27,1.47c.93.16,1.73-.74,2.4-.77h4c.37.15.91.59,1.24.54v-.54A7.31,7.31,0,0,0,6.52,46.11Zm-4-29.17c0,1,.76.86,1.4.86.48,0,.57-.23.54-.55l-1.94-.46Zm.24-6.05a.4.4,0,0,0,.46-.46A.4.4,0,0,0,2.72,10.89Zm.69-1.24H4V9.42H3.41Zm.31,33.51a2.07,2.07,0,0,0,.93.47v-.47Zm.86-28.47c-.16.08-.31.08-.39.16v.23H6.67v-.23A2.71,2.71,0,0,0,4.58,14.69Zm-.16,13c.23.07.39.07.47,0C5.12,27.41,4.34,27.41,4.42,27.65Zm.23,17a6.7,6.7,0,0,0,1.79,0C6.67,44.4,4.42,44.4,4.65,44.63ZM4.89,21H5.2v-.24H4.89ZM5.43,9.65H7.14V8.87c-.26.13-2.08-.3-1.94.31C5.2,9.26,5.2,9.65,5.43,9.65Zm-.15,13-.08.08c0,.23.23.23.23,0ZM5.43,8.33c.08,0,.08-.31,0-.31A.16.16,0,1,0,5.43,8.33Zm.47,8.22c.23.08.54.62.77.62v-.62Zm0,32.27h.54l-.31-.23ZM6.52,31l-.08.08c0,.23.23.23.23,0ZM6.44,50.53a.46.46,0,0,0,.46.23v-.23Zm.23-38.94H6.9v-.23H6.67Zm.47-3.8c.23,0,.23-.23,0-.23S6.9,7.79,7.14,7.79Zm0,43.36c.23,0,.23-.23,0-.23S6.9,51.15,7.14,51.15Zm1-39.41.08-.07-.08-.16C7.91,11.51,7.91,11.74,8.14,11.74Zm0,34.14c.08,0,.08-.31,0-.31A.16.16,0,1,0,8.14,45.88ZM8,9.18h2.33C9.94,8.53,7.94,7.83,8,9.18Zm.54,4.89h1.55c0-.08-.07-1.32-.69-1.24C9.15,13.68,8.53,13.37,8.53,14.07Zm.31,36a.16.16,0,1,0,0-.32C8.77,49.75,8.77,50.07,8.84,50.07Zm.08-4.81-.08.07c0,.24.24.24.24,0Zm.31,6.51h1.4C10.71,51.1,9.32,51.17,9.23,51.77ZM10.94,45l-.08.08c0,.23.23.23.23,0Zm.62-30.95c.23,0,.23-.39.23-.62C11.42,13.32,10.58,14.05,11.56,14.07Zm0-5.2V8.41l-.23.23Zm0,42.13h.54v-.24h-.54Zm.62-43.68-.08.08c0,.23.23.23.23,0Zm.39,2.56A.77.77,0,0,0,13.42,9C13.19,9,12.1,9,12.1,9.5,12.1,9.73,12.26,9.88,12.57,9.88Zm-.24,1.48c.08.23.24.23.47,0C13,11.28,12.1,11.28,12.33,11.36Zm.24-3.57.07-.08-.07-.15C12.33,7.56,12.33,7.79,12.57,7.79ZM14,8.41c.39-.1.28-.92.39-1.24-.52,0-1.57.2-1.4.77Zm-.78,6.44c.24.08.94.23,1,.46.33,0,.42-.12.78-.23C14.71,14.22,13.35,13.9,13.26,14.85ZM13.81,10l.08-.08-.08-.15C13.58,9.81,13.58,10,13.81,10Zm0-.86.08.08L14,9.18C14,9,13.81,9,13.81,9.18Zm0,3.42H14v-.47h-.23Zm0,.77H14v-.31h-.23ZM14.2,37.5l.07.08c.24,0,.24-.24,0-.24Zm.07-3h.24v-.31h-.24Zm.16,16.14.08.07c.23,0,.23-.23,0-.23ZM17,7.17a13.76,13.76,0,0,0-1.71.54V9.42c.28.49,1,.19,1.24-.24-.85-.82.66-1,.7-2Zm-1.24,42a.16.16,0,1,0,0-.31C15.67,48.9,15.67,49.21,15.75,49.21Zm.15-35.84.08.08c.23,0,.23-.23,0-.23ZM16,53h.54c0-.31-.06-.88-.54-.77Zm.54-41.89a9.82,9.82,0,0,1,2.72.47c.38-.08.23-.68.31-1.09C19.12,10.68,16.3,10.3,16.52,11.12Zm1.94,36.7v-.24h-1Zm-1,2.25H18c-.11-.32-.31-.33-.55-.32Zm1.4-34c.08,0,.39,0,.39-.31l-.31-.47v-.38c-.24,0-.86,0-.93.38C18.62,15.55,18.46,16.09,18.85,16.09Zm-.62,37.39c0,.23.23.23.23,0S18.23,53.25,18.23,53.48Zm.85-39.87a1.53,1.53,0,0,0,1.09-.78C19.54,12.25,17.9,12.76,19.08,13.61Zm.16,36.14a2.63,2.63,0,0,0,1.47-.69c-.31-.55-1.32-.47-1.86-.47C19,49.38,19.87,48.58,19.24,49.75Zm0-40.57c.08,0,.08-.31,0-.31A.16.16,0,1,0,19.24,9.18Zm.7,34.91a5.49,5.49,0,0,0,1.24.31l.23-.31c0-.42-1.43-.16-1.71-.23Zm-.08-29.24.08.08c.23,0,.23-.24,0-.24Zm.31,18.92h.23v-.23h-.23Zm5-16.75a3.34,3.34,0,0,0,2.49-1.24H26c0-.58.39-1.75-.16-2.17-.62-.24-1.71.93-1.71,1.47H22.88c.24-.23.55-.78.78-1-1.4-.13-1.39,1-3.26,1,.23.08.31.62.54.7,0,.1.15.22.24.31h3.41ZM20.4,37a.16.16,0,1,0,.31,0C20.71,36.88,20.4,36.88,20.4,37Zm0,3.72a.16.16,0,1,0,.31,0A.16.16,0,1,0,20.4,40.68Zm1.09-3.18c.59,0,1.83-.06,1.63-.85-.7,0-1.09.38-1.94.62A.41.41,0,0,0,21.49,37.5Zm1-26.84c.38,0,.54-.08.62-.23a4.69,4.69,0,0,0-1.79-.31C21.33,10.66,22.19,10.66,22.5,10.66Zm-.31,34.21.23-.24H22ZM22,50.14c-.1,1.32,1.27.09,1.71-.39-.2-.41-1.46-.13-1.71,0Zm0,4.58h.47v-.23H22Zm.7-37.16h.62c0-.31-.39-.54-.62-.54Zm1.4,31.26c.8.06.91-.61.85-1.24a2.51,2.51,0,0,0-2.25.08h1.09c.09.1.32.25.15.39,0,.23-.39.54-.46.54C23.5,48.75,23.66,48.82,24.05,48.82ZM22.88,9.65c0,.23.24.23.24,0S22.88,9.42,22.88,9.65ZM23,53l.08.08c.23,0,.23-.23,0-.23Zm.08,2.8L23,55.73l.08-.16C23.35,55.57,23.35,55.81,23.12,55.81Zm.31-11.41h.46c0-.62.7-.77,1.24-1-.67-.43-2.28-.26-1.47.47A.59.59,0,0,0,23.43,44.4ZM23.66,18c0,.23.23.23.23,0S23.66,17.8,23.66,18Zm.46-1a.62.62,0,0,0-.23.54h.23Zm1,25.6c.39,0,1-.08,1.24-.47a3.22,3.22,0,0,0-2.32-.62A1,1,0,0,0,25.13,42.62Zm-1.08,8.84.07.08c.24,0,.24-.23,0-.23ZM24.12,39h.24l-.24-.23Zm0,1.94h.78c0-.42-.39-.5-.78-.46Zm0,11.56h.24V52h-.24Zm1.4-34h.08c.11-.67,1-.72,1.47-.69a7.84,7.84,0,0,0-2.32-.39C24.75,18,25,18.49,25.52,18.49Zm.23-7.6H26c0-1.24.15-1.86,1.32-2.25a1.72,1.72,0,0,1-1.71-.93,1.19,1.19,0,0,1-.7,1.16A2.25,2.25,0,0,1,25.75,10.89ZM25.21,20a.6.6,0,0,0,.62-.47c-.31,0-.89,0-.93.23S25.06,20,25.21,20Zm.16-7.14c.62,0,.77-.54.77-1.09C25.64,10.51,25.26,12.39,25.37,12.83Zm.31,24.05L25.6,37c0,.23.23.23.23,0Zm.07-15.36.08.08c.23,0,.23-.24,0-.24Zm.86,22.11h.23A1.15,1.15,0,0,0,25.75,43C25.75,43.55,26.22,43.63,26.61,43.63Zm.23-5.82a.65.65,0,0,0-.7-.7C26.14,37.73,26.45,37.81,26.84,37.81ZM26.61,19h.46v-.31h-.46ZM27,36l.07.08c.24,0,.24-.23,0-.23Zm.15-21.79-.08.07c0,.24.24.24.24,0ZM27.07,24.7h.55l-.55-.31Zm0,1.94h.24a.48.48,0,0,0-.24-.47Zm.08,10.24-.08.08c0,.23.24.23.24,0Zm.47-27.23h.69c-.08-.23-.45-.25-.69-.23ZM27.85,20c.08.23.23.23.46,0C28.55,19.89,27.62,19.89,27.85,20Zm0,5.19h.46V24.7Zm1.47,10.09c-.34,0-1.17.24-1.47.23V36h.23c.23-.23,1.47-.31,1.71-.54A.41.41,0,0,0,29.32,35.25ZM27.85,51l.23-.24-.23-.23Zm.7-39.1a.41.41,0,0,0-.47.47h.47Zm-.47,4.89c.39,0,.85-.08.85-.62C28.39,16.17,28.08,16.4,28.08,16.79ZM28.78,35v-.47a.49.49,0,0,0-.47.23A.48.48,0,0,0,28.78,35Zm5.12,0c-1.48,0-1.55,1.24-3.65,1.47-3.33.23-.54.85-1.94,1.24a12.81,12.81,0,0,0,5.59-1.47c-.41-.42.09-.85.31-1.24ZM29.79,15.78c.23,0,1-.08,1.24-.47-.33-.46-1.5-.19-1.71.24C29.32,15.78,29.71,15.78,29.79,15.78Zm-.24.77c-.23,0-.23.39-.23.47H31l.23-.47Zm-.23,3.81c.08,0,.86,0,.93-.39A.51.51,0,0,0,29.32,20.36Zm0,4.34c.34.57,1.24.67,1.24,0Zm1.55-2.48h.39a1.35,1.35,0,0,0-1.32-.86A.84.84,0,0,0,30.87,22.22Zm-.62-8.85.31-.31h-.31Zm.31,24.44.08-.08-.08-.15C30.33,37.58,30.33,37.81,30.56,37.81ZM31,38a.45.45,0,0,0,.46-.23H31Zm4.19-1.24h.23v-.23h-.23Z" fill="#fff"/><path d="M55.85,39.52l-.08.07v.16c-1.07,0-1.93.57-3,.54.54-.54.07-1,.07-1.63h-.07a6.81,6.81,0,0,1-1.63.47c-.13.62.63.66.93.62-.07.33-.36,2.22-1,1.7-.08,0-.16,0-.16-.07v1.55c-.69-.23-.62-.85-1.16-.85v1.55h.7c0,.54-1.09,1.7-1.63,1.7,0-.31-.23-.54-.23-.93s.31-.54.31-1.24c-.66.52-1.12-.1-1.79-.23a1.55,1.55,0,0,1-1,.23,1,1,0,0,1,.55-.93c.35.57.91-.12,1.39,0l-.23.47c.8.3,1.31-.35,1.24-1.17-.08,0-2.79.55-3.1.7-1.55.23-.31-1.71-1.4-1.71,0,1.56.93,1.94.93,2.95-.07,0-1.16.08-.93.62.17.32,1.76.78.93,1.17H44.06a.41.41,0,0,1-.47.46c-.54,0-.23-.62-.93-.62v-.54h.47c-.28-4.88,7.85-18.47,9.62-23.2.23-.54.69.08.93-.46a8.29,8.29,0,0,1,1.86-4.5.48.48,0,0,0-.23-.47l5-9.85c.6-.91,2.15-.32,3-.46.07.31,19.33,50,19.31,50.26.28,2.39-1.62.91-2.64,1.71-3.16-4.75-8.65-12.47-11.79-17.3,1.92-2.43-10.81-.54-12.18-.54v-.16Zm-10.4.31h.24v-.47h-.24Zm.7-1.17c.39,0,.62-.23.62-.7h-.62Zm1.09,2.64.08.08c.23,0,.23-.24,0-.24Zm.77-1c-.38,0-.54.16-.54.47C48,40.76,48,40.62,48,40.29Zm.31-1.71.08-.07-.08-.16C48.09,38.35,48.09,38.58,48.32,38.58Zm.24-2H49V36.1h-.46Zm.23,3,.08-.07-.08-.16C48.56,39.36,48.56,39.59,48.79,39.59Zm.23.24v.93C50,40.69,49.82,38.93,49,39.83Zm2.56-2.1c.67-.41-.6-1.81-1.32-1.71C50.26,37,50.26,37.73,51.58,37.73Zm-.7-11.79.08-.08-.08-.15C50.65,25.71,50.65,25.94,50.88,25.94Zm.24,8.38.07-.08-.07-.15C50.88,34.09,50.88,34.32,51.12,34.32Zm.46-1c.08.08.23.08.47,0C52.13,33.08,51.35,33.08,51.58,33.31Zm.23,2.79h.7c0-.43,0-1.33-.7-1.16ZM51.89,27h.93C52.75,26,51.91,26.13,51.89,27Zm.86,4.73c.07,0,1.08-.15,1.16-.46a2.3,2.3,0,0,0-1.4.23A.21.21,0,0,0,52.75,31.68ZM53.29,36l-.08.08c0,.23.23.23.23,0Zm.15-10,.08-.08-.08-.15C53.21,25.79,53.21,26,53.44,26Zm.47,10.55a.45.45,0,0,0,.46-.24h-.46ZM54,38.82l-.08.07c0,.24.23.24.23,0Zm.38-14.28a.16.16,0,1,0,0-.31C54.3,24.23,54.3,24.54,54.37,24.54Zm.16,9.23.08.08c.23,0,.23-.23,0-.23Zm1.24-2.71v.16c.39,0,.85-.08.85-.63C56.39,30.59,55.77,30.52,55.77,31.06ZM56,39.75a.14.14,0,0,0-.23,0Zm.39-6.21.08.08c.23,0,.23-.23,0-.23Zm.78-7.6V24.62C56.24,24.76,56.28,26,57.17,25.94Zm-.47-8.61a.49.49,0,0,0,.47-.23c-.09-.23-.26-.25-.47-.24Zm0,12.18a.48.48,0,0,0,.47.23v-.23Zm.7,8c1.14-.16,0-.87-.54-.7C56.86,37.27,57,37.5,57.4,37.5Zm.47-6.75c.23.08.38.08.46,0C58.56,30.52,57.79,30.52,57.87,30.75ZM58,36.26c.7,0,1-.62,1-1.24,0-.31.08-.55-.47-.55C57.71,34.47,58,35.71,58,36.26Zm.7,2.09.08.08c.23,0,.23-.23,0-.23Zm1.08.54a.45.45,0,0,0,.24-.46h-.7Zm0-9.15H60l-.24-.23ZM60,14.54a.45.45,0,0,0,.46-.24H60Zm0,16.21V31l.7-.46C60.52,30.15,60,30.21,60,30.75Zm.77,4.81-.07.08c0,.23.23.23.23,0Zm.16,3,.08-.07L61,38.35C60.74,38.35,60.74,38.58,61,38.58Zm.46-8,.08-.07-.08-.16C61.2,30.36,61.2,30.59,61.43,30.59Zm.24,8,.07-.07-.07-.16C61.43,38.35,61.43,38.58,61.67,38.58Zm.46-3.18v-.23H61.9Zm.47-14.27a.45.45,0,0,0,.46.23.46.46,0,0,0-.23-.46Zm.46,15.67.24-.23-.24-.24-.23.24Zm0-1.86.08-.08-.08-.15C62.83,34.71,62.83,34.94,63.06,34.94Zm0,3.41.08-.08-.08-.15C62.83,38.12,62.83,38.35,63.06,38.35Zm1-.23L64,38.2c0,.23.24.23.24,0ZM64.46,34h.23l-.23-.24Zm.62-1.48.08.08c.23,0,.23-.23,0-.23Zm.54,3.8v-.46l-.23.23Zm-.08,1.25.08.07c.24,0,.24-.23,0-.23Zm.32.15c.23.23.38.23.46,0C66.55,37.65,65.78,37.65,65.86,37.73Zm.46-7.68a.46.46,0,0,0-.46.23h.46Zm1.32-8.69.08.08c.23,0,.23-.23,0-.23Zm1,10.55.08.08.15-.08C68.88,31.68,68.65,31.68,68.65,31.91Zm.7,8.61c.23.24.38.24.46,0C70,40.45,69.27,40.45,69.35,40.52Zm1.47-2.09V38.2h-.23Zm2.09.15.08-.07-.08-.16C72.68,38.35,72.68,38.58,72.91,38.58Zm.7-2.56.08-.07-.08-.16C73.38,35.79,73.38,36,73.61,36Zm.47,8.38.08-.08-.08-.15C73.85,44.17,73.85,44.4,74.08,44.4Zm1.16,3a.48.48,0,0,0-.23.47.45.45,0,0,0,.46-.24Zm.23-4.89h.24v-.23h-.24ZM75.94,45l.23-.23h-.46Zm.23.47.08.08.16-.08C76.41,45.26,76.17,45.26,76.17,45.49ZM77,49.75l.07.08c.24,0,.24-.23,0-.23Zm.46-4.8.08.07c.23,0,.23-.23,0-.23Zm0,6.9.08.08c.23,0,.23-.24,0-.24Zm.78-2.41h.23a.47.47,0,0,0-.23-.46Zm.15,1,.08.08c.23,0,.23-.23,0-.23ZM78.5,53c.62,0,.85-.7.93-1.24a.38.38,0,0,1,0-.7H78.5Zm1.86,2.17a.83.83,0,0,0-.7.39h.7ZM80,57.59l-.07.08h.23Zm.31-2.79.08.07c.23,0,.23-.23,0-.23Zm.55-.86c.23.08.38.08.46,0S80.75,53.71,80.83,53.94Zm.38,3.26.08.08c.23,0,.23-.23,0-.23Zm.62-1.86.24-.23a.28.28,0,1,0-.24.23Z" fill="#fff"/><path d="M96,.19a9.17,9.17,0,0,1,2.33.23l.23.46L99,.42h6.59c-.09.19,3.11,4,3.26,4.19-.68.49.27,1.94.46.7l4.27,5c.43.33.08.66,0,1,0,1.32,1.47.46,1.86,1.09L118,15.16c.14.09.47-.37.47-.23l-.08-.24h-.16L118,13.3c.85-1.16-1.52-2.49.93-4.12,0-.56-.68-.23-.93-.07-1-.52-.93-2.4-.23-3.11-.18-.08-.72-.36-.7-.46V3.21c.07.3.12.63.47.7L118,3c1.21.07,2.49-.54,3.49,0,.76-.12,1.37-.4,2,0,.54,0,1.08-.47,1.63-.47.39,0,.39.47.7.47s.38-.16.38-.47h2.33a102.67,102.67,0,0,1,.39,10.79h-.62V14h.7c.53,13.36,1.65,27.63,1.16,40.65H128.3c-.23,0-4.19-6.13-4.19-7.21,0-.57.51-.9.46-1.48-.14-.13-.41-.46-.62-.46v1.24c-.09-.14-.41,0-.54-.08-1-1.06-1.54-2.62-2.4-3.8v-.93l-.47.23c-5.82-9.35-14-23.3-20.63-32.11.3,6.42-1.16,39.81-1.4,46.93l-.23.23c-2.36.11-5.17.53-7.53.47l-.23-.24c-.29-18.75-.34-38.78-.39-57.4C91,0,95.17.19,96,.19ZM91.37,12.52c.11-.64-.67-1.26-.85-.54C90.52,12.37,91,12.52,91.37,12.52ZM91,9.11h.46c-.09-.23-.26-.25-.46-.24Zm.69.7.24-.24h-.24Zm1.17-.7h.23V8.87h-.23ZM93.16,5l-.08.07c0,.24.23.24.23,0Zm.31,33.2.08.07c.23,0,.23-.23,0-.23ZM93.7,8.87l.08.08c.23,0,.23-.23,0-.23ZM94,27a.47.47,0,0,0-.23.46.45.45,0,0,0,.46-.23Zm.39-15.36.08.08c.23,0,.23-.24,0-.24Zm.08,21.87h.77v-.23Zm1-24.35h.23V8.87h-.23Zm1.16,36.46.08-.08-.08-.16C96.42,45.33,96.42,45.57,96.65,45.57Zm.46-23.82h.24v-.23Zm.24,23.58.07-.07-.07-.16C97.11,45.1,97.11,45.33,97.35,45.33Zm0-36.46.07.08.16-.08C97.58,8.64,97.35,8.64,97.35,8.87Zm.46,5.36H98V14Zm.47-5.36.08.08.15-.08C98.51,8.64,98.28,8.64,98.28,8.87Zm.46-6.28.08-.08-.08-.15C98.51,2.36,98.51,2.59,98.74,2.59Zm0,37.86.08-.08-.08-.16C98.51,40.21,98.51,40.45,98.74,40.45Zm.47-16.84.08-.07-.08-.16C99,23.38,99,23.61,99.21,23.61Zm1.08-18,.08.07c.23,0,.23-.23,0-.23Zm2.41-1.24a.62.62,0,0,0,.7-.7c-.31,0-.9-.1-.93.39C102.47,4.3,102.54,4.38,102.7,4.38Zm.7,6.36a3.41,3.41,0,0,1,.23.69c.29-.1.33-1.06,0-1.16C103.4,10.36,103.38,10.53,103.4,10.74Zm3.8.46.08-.08L107.2,11C107,11,107,11.2,107.2,11.2Zm2,5.12c.23,0,.31-.15.31-.54a.87.87,0,0,0-.7.31A.43.43,0,0,0,109.22,16.32ZM110,9.57c.54,0,.62-.39.62-.7H110Zm.16-2.32.07.07c.24,0,.24-.23,0-.23ZM113,25.79c.31.54.31,1.39,1,1.39V25.79Zm1.7-3.81v-.69C114.13,21.26,114.07,22.06,114.72,22Zm1.4,6.44.08-.07-.08-.16C115.89,28.19,115.89,28.42,116.12,28.42Zm.23-13.49h.23v-.47h-.23Zm1.63,14a.45.45,0,0,0,.23.39c0-.21,0-.38-.23-.47Zm.16-13.19.07.08c.24,0,.24-.23,0-.23ZM118.91,38h.23v-.23h-.23Zm.7-25.36a2.69,2.69,0,0,0,.23.93l.24-.93Zm.47,4a.41.41,0,0,0-.47-.46C119.61,16.4,119.76,16.55,120.08,16.55Zm.15,22.34c.31,0,.31-1.08.31-1.31C119.68,37.44,119.11,38.9,120.23,38.89Zm-.15-5.19c.23-.08.23-.24,0-.47C120,33.15,120,33.93,120.08,33.7Zm0-22c.37,0,.84,0,.85-.62A1.07,1.07,0,0,0,120.08,11.67Zm.23-3.73h.23V7.4h-.23Zm.15,9.08.08.08c.23,0,.23-.24,0-.24Zm.31,1.24H121V18Zm.39,16.83.08.08c.23,0,.23-.23,0-.23Zm1-12.41a.77.77,0,0,0-.31.7h.31Zm-.16-6.2-.07.07c0,.24.23.24.23,0Zm.08,3.41.08.08c.23,0,.23-.24,0-.24Zm.62-14.66.08-.08L122.71,5C122.48,5,122.48,5.23,122.71,5.23Zm0,25.44h.47v-.23h-.47Zm.47,15h.23v-.23h-.23ZM123.41,11h.31c0-.23-.08-.62-.31-.7Zm.47,7.29.07-.08-.07-.15C123.64,18,123.64,18.26,123.88,18.26Zm.23,1.86.08-.08-.08-.15C123.88,19.89,123.88,20.12,124.11,20.12Zm.08,21-.08.08c0,.23.23.23.23,0Zm.15-5.74h.47v-.46h-.47Zm.23-24,.08-.07-.08-.16C124.34,11.2,124.34,11.43,124.57,11.43Zm.47,21.1a.46.46,0,0,0,.23-.46H125Zm.23-12.33.08-.08-.08-.15C125,20,125,20.2,125.27,20.2Zm-.15,17.3a.81.81,0,0,0,.39.7,1.24,1.24,0,0,1,.46-.7Zm.15-4a.47.47,0,0,0,.24.47.48.48,0,0,0,.23-.47Zm.47,16,.08-.07-.08-.16C125.51,49.21,125.51,49.44,125.74,49.44ZM126,19c.08-.23.08-.39,0-.47C125.74,18.26,125.74,19,126,19Zm0,1.94.08-.08-.08-.15C125.74,20.67,125.74,20.9,126,20.9Zm.23-5.35a.82.82,0,0,0,.7-.39h-.7Zm.93,5,.47-.47a1.07,1.07,0,0,0-.85-.62C126.75,19.73,126.75,20.36,127.13,20.59ZM126.9,8.41h.23V8.18h-.23Zm0,35.91h.23v-.23h-.23ZM127.13,29c.11,0,.39.32.47.47a1.13,1.13,0,0,0,1.16-1.09C128.32,28.59,127,28.33,127.13,29Zm0,2.56c.27-.07.24-.65.24-.93Zm0,16,1.17,1.17c.62.23.4-1.71.46-2.49C128.39,46.32,127,47.19,127.13,47.58Zm0,2.1a5,5,0,0,0,.24,1.16.21.21,0,0,0,.23-.23C127.59,50.23,127.63,49.52,127.13,49.68Zm.55-45.38-.08.08c0,.23.23.23.23,0Zm.07,12.8.08.07c.24,0,.24-.23,0-.23Zm.08,1.39a.45.45,0,0,0,.24-.46h-.24Zm.93,4.11c0-.49.2-1.65-.46-1.78C127.8,21,128.15,22.51,128.76,22.6Zm-.46,26.61v1.63c.54,0,1.32-1.47,1.32-1.86C129.38,49,128.3,49,128.3,49.21Zm.7-24.43a.58.58,0,0,0,0-.93C128.58,24.08,128.82,24.46,129,24.78Zm.15,17,.08.08c.23,0,.23-.23,0-.23Z" fill="#fff"/><path d="M162.35,55.42c-.31,0-.31-.24-.54-.24s-.33.31-.62.24L144,51a.74.74,0,0,0-.46-.24v-.23c-.77-.09-3.47-.11-3.49-1l1.24-1.24a1.85,1.85,0,0,0-1.71-.62c0-1.47.47-10.94.47-11.17.23-.23,1-.47,1.24-.23v-.62h-1.32c.11-1.86.1-4.2.39-6.05h2.17v.77a10.19,10.19,0,0,0,2.48-.54V28.58c-2.65-1.31-5.6,2.9-4.42-2.64.95-.75,1.87-.53,2.95-.31V25.4a5.45,5.45,0,0,0-1.47-.47,1.7,1.7,0,0,1-1.48-.54c0-3.66.81-14.5.7-18.15a2.36,2.36,0,0,1,2.71.23c.46,0,.39-.22,1.09-.23h.62a1.33,1.33,0,0,0,.31.7l.23-.16c1.26-1.28,4.21-.06,5.9-.08,2.42-.67,4.95.62,7.6.24a.44.44,0,0,0,.78,0c2.65.07,4.79-.34,7.37.77.83,2.81,2.88,4.89,3.49,7.84-.94.42.64,1.17.46,2-.77.39-.85-.08-1.24.93.37.58,1-.09,1.48,0a75.73,75.73,0,0,1,.38,9.16h-5.19c0-.19.47-.62.62-.78-.5,0-.67.06-1,.54h-1.79V25.16h-.77c0-.38.46-.46.46-.85-.23,0-.62-.46-.62.39l-.46-1.47c.23,0,.54-.32.77-.55.08-.6-.75-.61-1-.93l-1.87-4.19L153.35,17c.08-.85-.77-.39-1-.39V17c-.62,0-.46-.93-1.08-.93s-.86.85-.86,1.16c-2.72-.24-2.73.5-3.25,3-.66-.08-.6.72,0,.7,0,1.42.26,3.32-.94,3.95-.08.64.7.07.7.7,0,.93.26,2.74-.7,3.26l.24.23v8.15c0,.46.46,4.65.46,5.12.13.64-.88.8-1.47.77-.07.45,1.27.15,1.47.23a14.84,14.84,0,0,1,.55,1.48l9.07-.78c3.11-.34,2.06-2.82,4-1.16.18-.83-.77-1.16-1.48-1.24.13-.55-.33-2.79.39-2.95.08-.05,1.71.69,1.79.7a2.85,2.85,0,0,1-.94.77c.65-.07,2.48.24,2.95-.31-1.9-1-4.85-3.23-6.9-1.7h-3.72c-.28-.53-.77,0-1.25,0a7,7,0,0,1,.31-2.41l.24.47h1.94V36H152.5c0-.85-.86-.62-.86-1.62,0-1.25,1.25-1.63,2.41-1.63h9.39c.8,1-.69,1,0,2v.47l-1.25.77,1.71.47V37h.39c0-.7-.16-.94-.16-1.56.28-1.09,1.07-1,0-2.09,0-.23.08-.54.31-.54h7.61c0,.72-1.1.37-1,1a4.38,4.38,0,0,0,1.78.47V32.77H177l1.16.54v2.95c-.93.07-1.47,0-1.47.7,1.61-.08,1.52,0,1.47,1.47h-4.88c.08-.35-2-.37-1.94,0l-3.26.54V41.3c-.62,0-.7.31-.7.85s.7.16.7.86c0,.54-.39.54-.39,1.08.86-.3.53,1.31.62,2.1,0,1.78-2.95,2-2.95,3.1,1.25,0,1.79-.7,2.72-1a4.71,4.71,0,0,1-.23,3.49c-1.63,0-1.86,4.42-3.42,4.42-.93,0-.23-1-1.24-1C162.66,55.18,162.66,55.42,162.35,55.42Zm-21.1-11c-.23,0-.62.23-.62.47.54,0,1.16.08,1.4-.47a.93.93,0,0,0-1-.54ZM141,19h.23v-.31H141Zm.23,1.47h1.24v-.23h-1.24Zm.23,16a.16.16,0,1,0,.31,0A.16.16,0,1,0,141.48,36.49Zm.39,4.34-.08.08c0,.23.24.23.24,0Zm4.19,5.28a5.69,5.69,0,0,0-4.27,1.47c.93.16,1.73-.74,2.41-.77h4c.37.15.92.59,1.24.54v-.54A7.28,7.28,0,0,0,146.06,46.11Zm-4-29.17c-.05,1,.75.86,1.39.86.48,0,.57-.23.54-.55L142,16.79Zm.23-6.05a.4.4,0,0,0,.46-.46A.4.4,0,0,0,142.26,10.89Zm.7-1.24h.54V9.42H143Zm.31,33.51a2,2,0,0,0,.93.47v-.47Zm.85-28.47c-.16.08-.31.08-.39.16v.23h2.48v-.23A2.71,2.71,0,0,0,144.12,14.69Zm-.16,13c.24.07.39.07.47,0C144.66,27.41,143.89,27.41,144,27.65Zm.24,17a6.62,6.62,0,0,0,1.78,0C146.21,44.4,144,44.4,144.2,44.63ZM144.43,21h.31v-.24h-.31ZM145,9.65h1.71V8.87c-.25.13-2.07-.3-1.94.31C144.74,9.26,144.74,9.65,145,9.65Zm-.15,13-.08.08c0,.23.23.23.23,0ZM145,8.33c.08,0,.08-.31,0-.31A.16.16,0,1,0,145,8.33Zm.47,8.22c.23.08.54.62.77.62v-.62Zm0,32.27H146l-.31-.23ZM146.06,31l-.08.08c0,.23.23.23.23,0ZM146,50.53a.46.46,0,0,0,.47.23v-.23Zm.23-38.94h.24v-.23h-.24Zm.47-3.8c.23,0,.23-.23,0-.23S146.45,7.79,146.68,7.79Zm0,43.36c.23,0,.23-.23,0-.23S146.45,51.15,146.68,51.15Zm1-39.41.08-.07-.08-.16C147.46,11.51,147.46,11.74,147.69,11.74Zm0,34.14c.08,0,.08-.31,0-.31A.16.16,0,1,0,147.69,45.88Zm-.16-36.7h2.33C149.48,8.53,147.48,7.83,147.53,9.18Zm.55,4.89h1.55c0-.08-.08-1.32-.7-1.24C148.7,13.68,148.08,13.37,148.08,14.07Zm.31,36a.16.16,0,1,0,0-.32C148.31,49.75,148.31,50.07,148.39,50.07Zm.07-4.81-.07.07c0,.24.23.24.23,0Zm.31,6.51h1.4C150.25,51.1,148.86,51.17,148.77,51.77ZM150.48,45l-.08.08c0,.23.24.23.24,0Zm.62-30.95c.23,0,.23-.39.23-.62C151,13.32,150.13,14.05,151.1,14.07Zm0-5.2V8.41l-.23.23Zm0,42.13h.54v-.24h-.54Zm.62-43.68-.08.08c0,.23.24.23.24,0Zm.39,2.56A.77.77,0,0,0,153,9c-.23,0-1.32-.08-1.32.47C151.64,9.73,151.8,9.88,152.11,9.88Zm-.23,1.48c.07.23.23.23.46,0C152.58,11.28,151.64,11.28,151.88,11.36Zm.23-3.57.08-.08-.08-.15C151.88,7.56,151.88,7.79,152.11,7.79Zm1.47.62c.39-.1.28-.92.39-1.24-.51,0-1.57.2-1.39.77Zm-.77,6.44c.23.08.93.23,1,.46.32,0,.41-.12.77-.23C154.25,14.22,152.89,13.9,152.81,14.85Zm.54-4.81.08-.08-.08-.15C153.12,9.81,153.12,10,153.35,10Zm0-.86.08.08.15-.08C153.58,9,153.35,9,153.35,9.18Zm0,3.42h.23v-.47h-.23Zm0,.77h.23v-.31h-.23Zm.39,24.13.08.08c.23,0,.23-.24,0-.24Zm.08-3h.23v-.31h-.23ZM154,50.69l.08.07c.23,0,.23-.23,0-.23Zm2.56-43.52a13.65,13.65,0,0,0-1.7.54V9.42c.28.49.95.19,1.24-.24-.85-.82.66-1,.69-2Zm-1.24,42a.16.16,0,1,0,0-.31C155.21,48.9,155.21,49.21,155.29,49.21Zm.16-35.84.07.08c.24,0,.24-.23,0-.23ZM155.52,53h.55c0-.31-.07-.88-.55-.77Zm.55-41.89a9.81,9.81,0,0,1,2.71.47c.39-.08.23-.68.31-1.09C158.67,10.68,155.84,10.3,156.07,11.12ZM158,47.82v-.24h-1Zm-1,2.25h.54c-.11-.32-.31-.33-.54-.32Zm1.39-34c.08,0,.39,0,.39-.31l-.31-.47v-.38c-.23,0-.85,0-.93.38C158.16,15.55,158,16.09,158.39,16.09Zm-.62,37.39c0,.23.24.23.24,0S157.77,53.25,157.77,53.48Zm.86-39.87a1.54,1.54,0,0,0,1.08-.78C159.08,12.25,157.44,12.76,158.63,13.61Zm.15,36.14a2.63,2.63,0,0,0,1.47-.69c-.31-.55-1.31-.47-1.86-.47C158.57,49.38,159.41,48.58,158.78,49.75Zm0-40.57c.08,0,.08-.31,0-.31A.16.16,0,1,0,158.78,9.18Zm.7,34.91a5.63,5.63,0,0,0,1.24.31l.23-.31c0-.42-1.43-.16-1.7-.23Zm-.08-29.24.08.08c.23,0,.23-.24,0-.24Zm.31,18.92h.23v-.23h-.23Zm5-16.75a3.33,3.33,0,0,0,2.48-1.24h-1.63c0-.58.4-1.75-.16-2.17-.62-.24-1.7.93-1.7,1.47h-1.24c.23-.23.54-.78.77-1-1.4-.13-1.38,1-3.26,1,.24.08.31.62.55.7,0,.1.15.22.23.31h3.41ZM159.94,37a.16.16,0,1,0,.31,0C160.25,36.88,159.94,36.88,159.94,37Zm0,3.72a.16.16,0,1,0,.31,0A.16.16,0,1,0,159.94,40.68ZM161,37.5c.6,0,1.84-.06,1.63-.85-.7,0-1.09.38-1.94.62A.42.42,0,0,0,161,37.5Zm1-26.84c.39,0,.54-.08.62-.23a4.65,4.65,0,0,0-1.78-.31C160.88,10.66,161.73,10.66,162,10.66Zm-.31,34.21.23-.24h-.46Zm-.23,5.27c-.11,1.32,1.26.09,1.7-.39-.19-.41-1.45-.13-1.7,0Zm0,4.58H162v-.23h-.46Zm.69-37.16h.62c0-.31-.38-.54-.62-.54Zm1.4,31.26c.8.06.91-.61.85-1.24a2.51,2.51,0,0,0-2.25.08h1.09c.09.1.32.25.16.39,0,.23-.39.54-.47.54C163.05,48.75,163.2,48.82,163.59,48.82ZM162.43,9.65c0,.23.23.23.23,0S162.43,9.42,162.43,9.65ZM162.58,53l.08.08c.23,0,.23-.23,0-.23Zm.08,2.8-.08-.08.08-.16C162.89,55.57,162.89,55.81,162.66,55.81ZM163,44.4h.47c0-.62.69-.77,1.24-1-.68-.43-2.28-.26-1.48.47A.62.62,0,0,0,163,44.4ZM163.2,18c0,.23.24.23.24,0S163.2,17.8,163.2,18Zm.47-1a.59.59,0,0,0-.23.54h.23Zm1,25.6a1.49,1.49,0,0,0,1.24-.47,3.24,3.24,0,0,0-2.33-.62A1,1,0,0,0,164.68,42.62Zm-1.09,8.84.08.08c.23,0,.23-.23,0-.23ZM163.67,39h.23l-.23-.23Zm0,1.94h.77c.05-.42-.39-.5-.77-.46Zm0,11.56h.23V52h-.23Zm1.39-34h.08c.11-.67,1-.72,1.48-.69a8,8,0,0,0-2.33-.39C164.29,18,164.52,18.49,165.06,18.49Zm.24-7.6h.23c0-1.24.15-1.86,1.32-2.25a1.73,1.73,0,0,1-1.71-.93,1.19,1.19,0,0,1-.7,1.16A2.25,2.25,0,0,1,165.3,10.89ZM164.75,20a.59.59,0,0,0,.62-.47c-.3,0-.88,0-.93.23S164.6,20,164.75,20Zm.16-7.14c.62,0,.77-.54.77-1.09C165.18,10.51,164.8,12.39,164.91,12.83Zm.31,24.05-.08.08c0,.23.23.23.23,0Zm.08-15.36.07.08c.24,0,.24-.24,0-.24Zm.85,22.11h.23A1.14,1.14,0,0,0,165.3,43C165.3,43.55,165.76,43.63,166.15,43.63Zm.23-5.82a.65.65,0,0,0-.7-.7C165.68,37.73,166,37.81,166.38,37.81ZM166.15,19h.47v-.31h-.47Zm.39,17,.08.08c.23,0,.23-.23,0-.23Zm.15-21.79-.07.07c0,.24.23.24.23,0Zm-.07,10.47h.54l-.54-.31Zm0,1.94h.23a.49.49,0,0,0-.23-.47Zm.07,10.24-.07.08c0,.23.23.23.23,0Zm.47-27.23h.7c-.09-.23-.45-.25-.7-.23ZM167.39,20c.08.23.23.23.47,0C168.09,19.89,167.16,19.89,167.39,20Zm0,5.19h.47V24.7Zm1.48,10.09c-.34,0-1.18.24-1.48.23V36h.23c.24-.23,1.48-.31,1.71-.54A.4.4,0,0,0,168.87,35.25ZM167.39,51l.23-.24-.23-.23Zm.7-39.1a.41.41,0,0,0-.47.47h.47Zm-.47,4.89c.39,0,.86-.08.86-.62C167.93,16.17,167.62,16.4,167.62,16.79Zm.7,18.23v-.47a.46.46,0,0,0-.46.23A.45.45,0,0,0,168.32,35Zm5.12,0c-1.47,0-1.55,1.24-3.64,1.47-3.34.23-.55.85-1.94,1.24a12.77,12.77,0,0,0,5.58-1.47c-.4-.42.09-.85.31-1.24Zm-4.11-19.24c.23,0,1-.08,1.24-.47-.33-.46-1.49-.19-1.7.24C168.87,15.78,169.25,15.78,169.33,15.78Zm-.23.77c-.23,0-.23.39-.23.47h1.7l.23-.47Zm-.23,3.81c.07,0,.85,0,.93-.39A.51.51,0,0,0,168.87,20.36Zm0,4.34c.33.57,1.23.67,1.24,0Zm1.55-2.48h.38a1.34,1.34,0,0,0-1.31-.86A.83.83,0,0,0,170.42,22.22Zm-.62-8.85.31-.31h-.31Zm.31,24.44.07-.08-.07-.15C169.87,37.58,169.87,37.81,170.11,37.81Zm.46.15a.47.47,0,0,0,.47-.23h-.47Zm4.19-1.24H175v-.23h-.23Z" fill="#fff"/><path d="M183.83,48.82h3.88c.08-6.76.39-16.19.78-23,0-.63-.16-.32.7-.94-.08-.31-.47-.38-.7-.38,0-7.45.46-14.82.46-22.27h2.49c.22.34,1,.44,1-.31.86.24.31.62,1.24.62V1.89l8.62-.46a32.35,32.35,0,0,1,1.08,4.34H199c.11.23.4.57.31.86-.28,1.57-.08,5.08-.55,6.59-.82,0-.57,1.56.55.77-.85,12.67-.29,26.13-.55,39.41l-.23.23c-4.32-.07-10.5-.51-15.28-.77l-.23-.24Zm1.94,3.8.24-.23h-.24Zm2.95-1.24c.06-.33.5-1,0-1.16C188.3,50.2,188.48,51.18,188.72,51.38Zm0-19.16h.47c-.1-.22-.27-.24-.47-.23Zm.78,10.55c.54,0,.54-.54.54-1.08a1.53,1.53,0,0,0-1.32.85A1,1,0,0,0,189.5,42.77Zm-.62-19.39.07.08c.24,0,.24-.23,0-.23Zm.07,14h.24v-.23H189Zm.16-19.62.08.08c.23,0,.23-.24,0-.24Zm.08,4.88a.52.52,0,0,0,0-.77C189.11,21.75,189.11,22.84,189.19,22.6Zm.62-6.51-.08.08c0,.23.23.23.23,0Zm.38,29.32a.16.16,0,1,0,0-.31A.16.16,0,1,0,190.19,45.41Zm.16-11.71.08.07c.23,0,.23-.23,0-.23Zm.31-22H191l-.31-.23Zm.78,32.51c-.39,0-.63.23-.63.77h.63Zm.15,6c.31,0,.31-.39.31-.62-.08,0-.62,0-.7.31C191.28,50.14,191.36,50.22,191.59,50.22Zm-.15-39.72c.23,0,.23-.23,0-.23S191.2,10.5,191.44,10.5Zm.23,4.5v-.31h-.23Zm.39,21.41.07.08c.24,0,.24-.23,0-.23Zm.85-6.2h.23l-.23-.24Zm.23,10.16.08.08.15-.08C193.37,40.14,193.14,40.14,193.14,40.37Zm.54-32.89.08-.08-.08-.15C193.45,7.25,193.45,7.48,193.68,7.48Zm.94,8.14a.16.16,0,1,0,0-.31C194.54,15.31,194.54,15.62,194.62,15.62Zm.54,21.26.08-.08-.08-.15C194.93,36.65,194.93,36.88,195.16,36.88Zm.23,6.28.08-.08-.08-.15C195.16,42.93,195.16,43.16,195.39,43.16Zm.47-40.1a.16.16,0,1,0,0-.31A.16.16,0,1,0,195.86,3.06Zm.23,7.21h.23V9.81h-.23Zm.54-6.52.08-.07-.08-.16C196.4,3.52,196.4,3.75,196.63,3.75Zm0,.78c.08,0,.08-.31,0-.31A.16.16,0,1,0,196.63,4.53Zm0-2.09h.24V2.2h-.24Zm.24,3.18.07-.08-.07-.16C196.63,5.38,196.63,5.62,196.87,5.62Zm.23,1.08c.23,0,.23-.23,0-.23S196.87,6.7,197.1,6.7Zm.46,26c.39-.08.39-.62.39-.7C197.32,31.91,197.17,32.31,197.56,32.69Zm1-29.32h.23a.56.56,0,0,0-1-.24A1.26,1.26,0,0,0,198.57,3.37Zm-.23,9.15h.23v-.23h-.23Zm1.24-9.85.08.08.15-.08C199.81,2.44,199.58,2.44,199.58,2.67Zm2.72,1.24V3.68H202Z" fill="#fff"/><path d="M222.62,54.25c-1.48,0-8.77-.23-10.32-.23V24.23l.47-.46-.47-.47c-.17-7.33-.68-16.24-.7-23l.47-.23c1.87,0,3.76-.07,5.82-.08,6.34-.15,17.62.27,22.8.78l.47.46c-.06-.44,1.4-.15,1.63-.23,2,.3,5.2.18,7.21.7V9l-.47.23c0-.24,0-.72-.31-.7-.62,0-.23,1.17-.93,1.17-.35,0-28-1.18-28.39-1.17a84.69,84.69,0,0,0,.62,12.18c.79-.42.33-.78.24-1.39L245.81,18h2.1c.77-1.1,1.8,2.59,1.86,2.56v.54h-1.4c0,.47.95.66,1.4.62v9.86H238.52c-.31,0-.16-.7-.7-.7a.94.94,0,0,0-.7.23l.24.47h-1.87a.57.57,0,0,0-.93,0c-5.75.14-9.73.89-15,.23C219.2,33.11,217.41,49.91,218,51a.75.75,0,0,0,.31-.7c3.36,0,19.44.38,22.89.7,0,.15.73.42.7,0h7.91v4.34c-5.71,0-11.53-.72-17.77-.62-1.69-.1-4.06,0-4.73-.47ZM211.84,1.51c0,.23.23.62.46.62V1.51Zm.69,51.11a1,1,0,0,0,.7,0C213.46,52.39,212.46,52.39,212.53,52.62Zm.7-9.85.08.08.15-.08C213.46,42.54,213.23,42.54,213.23,42.77Zm.39-7.68.08.08c.23,0,.23-.23,0-.23Zm.77,18a5.15,5.15,0,0,0,1.17.23C215.85,52.21,214.29,52,214.39,53.09Zm.47-8.46h.23l-.23-.23Zm.16.86.07.08c.24,0,.24-.24,0-.24Zm0,.62.07.08c.24,0,.24-.24,0-.24Zm.07-40.34.08.08.16-.08C215.33,5.54,215.09,5.54,215.09,5.77ZM215.56,51v-.24h-.23Zm-.08-17.92.08.07c.23,0,.23-.23,0-.23Zm0,6.59.08.08c.23,0,.23-.23,0-.23ZM216.41,53l.08.08c.23,0,.23-.23,0-.23Zm.47-51,.07.08c.24,0,.24-.24,0-.24Zm.39,41.19.07-.08-.07-.15C217,43,217,43.24,217.27,43.24Zm0,7.52.07.08.16-.08C217.5,50.53,217.27,50.53,217.27,50.76Zm.93-16.67a2.3,2.3,0,0,0-.7.23h.7Zm-.47-15.6.08-.07-.08-.16C217.5,18.26,217.5,18.49,217.73,18.49Zm.08-3-.08.08c0,.23.23.23.23,0Zm.15,3.26.08-.08-.08-.16C217.73,18.49,217.73,18.73,218,18.73Zm-.15,10.93a2.38,2.38,0,0,0,2,1.94v-.77l-1.17-1.17Zm.39,12,.07-.08-.07-.16C218,41.45,218,41.69,218.2,41.69Zm.23-37.62h.23a.48.48,0,0,0-.23-.47Zm.23-1.48.08-.08-.08-.15C218.43,2.36,218.43,2.59,218.66,2.59Zm0,32.81.08-.07-.08-.16C218.43,35.17,218.43,35.4,218.66,35.4Zm-.15,16.76a.82.82,0,0,0,.38.7.75.75,0,0,0,.31-.7Zm.62-29.87.07-.07-.07-.16C218.89,22.06,218.89,22.29,219.13,22.29Zm1,31.27c.85,0,1.08-.86,1.08-1.56C220.56,51.9,219.13,53,220.14,53.56Zm.62-52.29H221V.81h-.23Zm.77,30.49c1.11.2,2.14-1.3,1.24-1.86C221.76,29.9,221.53,31.06,221.53,31.76Zm.39,20.86c.7.08.6-1.2,0-1.16Zm.7-49.8c.23,0,.23-.23,0-.23S222.38,2.82,222.62,2.82ZM223,24.93c.41.05.4-.81.07-.93C222.59,24.29,222.37,24.91,223,24.93Zm-.24,4.42.08.08c.23,0,.23-.23,0-.23Zm0,24.67.08.08c.23,0,.23-.23,0-.23Zm.78-32a.16.16,0,1,0,0-.31C223.47,21.75,223.47,22.06,223.55,22.06Zm0,32H224v-.93h-.46Zm.7-1.4h.23l-.23-.23Zm1.08-23.89c.24,0,.31-.62.55-.7l-.47-.46C225.12,27.74,224.58,28.79,225.33,28.73Zm-.39,2.1c.39-.24.39-.86.39-.93h-.39Zm0,22.11a.41.41,0,0,0,.24.38l.23-.23-.47-.23Zm.7-29.87c.41-.07,1,.26.93-.47S225.59,22.69,225.64,23.07Zm0,29.55h.47c-.31-.23-.31-.85-.31-.93h-.16Zm.93-25.36V27h-.23Zm-.07-1.09.07.08c.24,0,.24-.23,0-.23ZM227,29,227,29c.23,0,.23-.23,0-.23ZM227,52.86a.27.27,0,1,0,.23-.24Zm.15-30.18.08.08c.23,0,.23-.23,0-.23Zm.55,29.25h.54v-.47h-.54Zm.77-22.19.08-.08-.08-.15C228.28,29.51,228.28,29.74,228.51,29.74Zm.7-8.53.08.08.15-.08C229.44,21,229.21,21,229.21,21.21Zm.47,6.05.46-.47h-.46Zm.46,25.83a2.39,2.39,0,0,0,.7-.23h-.7Zm1.63-24.74.08-.08-.08-.16C231.54,28.11,231.54,28.35,231.77,28.35Zm.23,3,.08-.08-.08-.15C231.77,31.14,231.77,31.37,232,31.37Zm0-6.9a.48.48,0,0,0,.24-.47H232Zm.47-20.72.08-.07-.08-.16C232.24,3.52,232.24,3.75,232.47,3.75Zm.93-.69.08-.08-.08-.16C233.17,2.82,233.17,3.06,233.4,3.06Zm.7,26.37V29.2h-.23Zm.46,22.5-.23.93C235.27,53.09,235.72,51.75,234.56,51.93Zm1.79.93.07.08c.24,0,.24-.24,0-.24Zm.77-25.6a.41.41,0,0,0-.46-.47A.41.41,0,0,0,237.12,27.26Zm.47,25.83v-.23h-.47Zm.7,1.16.07.08.16-.08C238.52,54,238.29,54,238.29,54.25Zm1.94,0h.23l-.23-.23Zm.23-27h.46c0-.35-.19-.49-.46-.47Zm.46,25.83v-.23h-.46Zm.47-22.42.08-.08-.08-.15C241.16,30.44,241.16,30.67,241.39,30.67Zm2.33,22,.07-.08-.07-.15C243.48,52.47,243.48,52.7,243.72,52.7Zm0-50.5H244L243.72,2ZM244,52.86a1,1,0,0,0,.7,0C244.73,52.62,243.72,52.62,244,52.86ZM245.58,2h.23V1.74Zm.15,49.88.08.08c.23,0,.23-.24,0-.24Zm.7.77.08.08c.23,0,.23-.23,0-.23Zm1.63-22.49.08.08c.23,0,.23-.24,0-.24Zm.47,22c0,.31,0,.7.54.7v-.7Zm.93-47.71.07.08c.24,0,.24-.23,0-.23Z" fill="#fff"/></svg>