<?xml version="1.0" encoding="UTF-8"?><svg id="logos" xmlns="http://www.w3.org/2000/svg" width="400" height="61" viewBox="0 0 400 61"><path d="m9.04,11.83c0,2.02,0,3.75.11,4.69.07.61.2,1.1.85,1.18.31.04.79.09,1.12.09.24,0,.35.07.35.18,0,.15-.17.22-.42.22-1.45,0-2.83-.07-3.44-.07-.5,0-1.88.07-2.76.07-.29,0-.44-.07-.44-.22,0-.11.09-.18.35-.18.33,0,.59-.04.79-.09.44-.09.57-.57.64-1.21.11-.92.11-2.65.11-4.67V2.84c-.83.02-2.19.07-3.26.09-1.27.04-1.8.15-2.13.64-.22.33-.33.59-.37.77s-.11.26-.24.26c-.15,0-.2-.11-.2-.35,0-.35.42-2.34.46-2.52.07-.28.13-.42.26-.42.18,0,.39.22.94.26.64.07,1.47.11,2.19.11h8.68c.7,0,1.18-.07,1.51-.11.33-.07.5-.11.59-.11.15,0,.18.13.18.46,0,.46-.07,1.97-.07,2.54-.02.22-.07.35-.2.35-.17,0-.22-.11-.24-.44,0-.07-.02-.18-.02-.24-.04-.57-.64-1.18-2.58-1.23-.57-.02-1.47-.04-2.76-.07v8.98Z" fill="#fff"/><path d="m28.05,9.96c.07,0,.13-.04.13-.13v-.39c0-2.83,0-3.31-.04-3.9-.04-.61-.2-.85-.83-.99-.15-.02-.48-.04-.72-.07-.24,0-.35-.09-.35-.22s.13-.18.39-.18c1.07,0,2.37.07,2.85.07.39,0,1.8-.07,2.58-.07.26,0,.37.04.37.18s-.09.22-.33.22c-.2.02-.35.02-.57.07-.53.07-.68.35-.72.99-.04.59-.04,1.1-.04,3.94v3.29c0,1.73,0,3.13.11,3.92.04.55.17.94.75,1.03.26.04.7.04.96.07.22,0,.31.11.31.2,0,.13-.15.2-.37.2-1.27,0-2.63-.07-3.13-.07-.42,0-1.67.07-2.48.07-.29,0-.39-.07-.39-.2,0-.09.07-.2.31-.2.26-.02.5-.02.68-.07.39-.09.5-.48.57-1.05.11-.77.11-2.15.11-3.86v-1.6c0-.09-.07-.11-.13-.11h-7.1c-.07,0-.13.02-.13.11v1.67c0,1.73,0,3.02.11,3.83.04.53.2.92.77.99.28.07.68.07.94.09.22,0,.33.11.33.2,0,.13-.15.2-.39.2-1.23,0-2.63-.07-3.11-.07-.39,0-1.75.07-2.52.07-.22,0-.37-.07-.37-.2,0-.09.07-.2.31-.2.29-.02.5-.02.68-.07.39-.09.53-.5.57-1.05.11-.77.11-2.17.11-3.9v-3.29c0-2.83,0-3.33-.04-3.92-.04-.64-.2-.88-.86-1.01-.15-.04-.44-.04-.7-.07-.24,0-.33-.09-.33-.22s.15-.18.39-.18c1.05,0,2.32.07,2.83.07s1.8-.07,2.56-.07c.31,0,.42.07.42.2s-.15.2-.35.2c-.18.02-.42.04-.57.07-.53.07-.68.37-.72,1.01-.04.59-.04,1.14-.04,3.88v.39c0,.09.07.13.13.13h7.1Z" fill="#fff"/><path d="m37.14,9.48c0-2.85,0-3.35-.04-3.97-.04-.61-.2-.85-.79-.99-.18-.04-.48-.04-.75-.07-.22,0-.33-.07-.33-.2s.13-.18.44-.18c.92,0,1.8.07,2.76.07.59,0,4.6,0,4.95-.02.37-.04.7-.09.88-.11.11-.02.22-.09.31-.09.11,0,.13.09.13.18,0,.13-.13.39-.17,1.18-.02.35-.04.72-.09,1.29,0,.11-.04.31-.22.31-.13,0-.18-.11-.2-.35,0-.09,0-.37-.11-.61-.13-.35-.31-.55-1.25-.66-.37-.04-2.34-.09-2.78-.09-.09,0-.13.07-.13.2v4.54c0,.13.02.2.13.2.46,0,2.56,0,3.05-.02.55-.04.83-.11,1.01-.31.13-.18.22-.24.31-.24s.13.04.13.15c0,.13-.09.55-.15,1.45,0,.37-.07,1.16-.07,1.31s-.02.35-.2.35c-.13,0-.2-.2-.2-.31-.02-.18-.02-.28-.07-.5-.11-.42-.33-.7-1.1-.77-.39-.04-2.23-.07-2.72-.07-.11,0-.13.09-.13.2v1.42c0,.64-.02,2.17,0,2.74.04,1.29.33,1.58,2.34,1.58.5,0,1.32,0,1.8-.22.5-.24.72-.61.88-1.4.04-.2.09-.31.24-.31s.15.18.15.37c0,.48-.15,1.82-.26,2.19-.13.48-.31.48-1.03.48-1.91,0-3.55-.11-5.5-.11-.79,0-1.58.07-2.5.07-.26,0-.39-.07-.39-.2,0-.09.07-.2.33-.2.26-.02.5-.02.68-.07.39-.09.5-.5.57-1.16.09-.77.09-2.19.09-3.79v-3.29Z" fill="#fff"/><path d="m69.9,16.71c0,.59-.02.64-.28.79-1.42.75-3.57.99-5.28.99-5.37,0-10.12-2.54-10.12-8.59,0-3.51,1.82-5.96,3.81-7.17,2.1-1.27,4.05-1.42,5.89-1.42,1.51,0,3.44.26,3.88.35.46.09,1.23.22,1.73.24.26.02.31.11.31.26,0,.24-.15.85-.15,3.59,0,.35-.07.46-.24.46-.15,0-.2-.11-.22-.28-.07-.5-.18-1.21-.75-1.82-.66-.7-2.41-1.71-4.89-1.71-1.21,0-2.8.09-4.34,1.36-1.23,1.03-2.02,2.67-2.02,5.37,0,4.71,3,8.24,7.63,8.24.57,0,1.34,0,1.86-.24.33-.15.42-.44.42-.81v-2.06c0-1.1,0-1.93-.02-2.59-.02-.74-.22-1.1-.94-1.25-.18-.04-.55-.07-.85-.07-.2,0-.33-.04-.33-.18,0-.18.15-.22.46-.22,1.14,0,2.52.07,3.18.07s1.84-.07,2.56-.07c.29,0,.44.04.44.22,0,.13-.13.18-.29.18-.17,0-.33.02-.59.07-.59.11-.81.48-.83,1.25-.02.66-.02,1.53-.02,2.63v2.41Z" fill="#fff"/><path d="m73.88,11.15c0-3.29,2.19-7.32,7.95-7.32,4.82,0,7.76,2.96,7.76,6.97,0,4.27-3,7.63-7.93,7.63-5.5,0-7.78-3.97-7.78-7.27Zm12.86.35c0-3.97-2.28-6.68-5.48-6.68-2.15,0-4.56,1.1-4.56,5.7,0,3.81,2.08,6.88,5.72,6.88,1.34,0,4.32-.55,4.32-5.89Z" fill="#fff"/><path d="m92.35,11.15c0-3.29,2.19-7.32,7.95-7.32,4.82,0,7.76,2.96,7.76,6.97,0,4.27-3,7.63-7.93,7.63-5.5,0-7.78-3.97-7.78-7.27Zm12.86.35c0-3.97-2.28-6.68-5.48-6.68-2.15,0-4.56,1.1-4.56,5.7,0,3.81,2.08,6.88,5.72,6.88,1.34,0,4.32-.55,4.32-5.89Z" fill="#fff"/><path d="m112.18,9.48c0-2.85,0-3.33-.04-3.92-.04-.64-.2-.94-.81-1.05-.15-.04-.46-.07-.75-.09-.17,0-.33-.02-.33-.15s.15-.18.46-.18c.92,0,1.82.07,2.78.07.68,0,4.8,0,5.21-.02.37-.02.64-.02.83-.09.11-.02.2-.11.31-.11.07,0,.13.09.13.18,0,.13-.09.39-.15.88-.02.22-.07,1.25-.09,1.56-.02.18-.07.28-.2.28s-.17-.09-.2-.31c0-.15,0-.44-.11-.7-.15-.28-.53-.53-1.27-.57-.68-.02-2.41-.04-3-.07-.11,0-.18.07-.18.24v4.56c0,.13.02.18.13.18.55.02,1.82,0,2.52-.02,1.12,0,1.4,0,1.67-.35.11-.13.15-.2.26-.2.07,0,.11.07.11.18,0,.13-.09.68-.15,1.25-.04.39-.07,1.27-.07,1.42,0,.18,0,.35-.18.35-.13,0-.17-.13-.17-.28,0-.11-.04-.33-.11-.53-.09-.33-.37-.66-1.03-.72-.5-.04-2.48-.07-2.85-.07-.09,0-.13.07-.13.2v1.47c0,1.77,0,3.09.11,3.88.04.55.17.94.77,1.03.26.04.68.04.94.07.24,0,.35.07.35.15,0,.13-.13.2-.44.2-1.18,0-2.24-.07-3.02-.07-.66,0-1.91.07-2.59.07-.26,0-.39-.04-.39-.2,0-.09.07-.15.29-.15.29-.02.53-.02.72-.07.39-.09.5-.5.57-1.07.09-.85.09-2.13.09-3.92v-3.29Z" fill="#fff"/><path d="m129.38,3.76c-.26-.81-.5-1.34-.81-1.56-.24-.15-.68-.2-.88-.2-.22,0-.35-.02-.35-.2,0-.15.18-.2.48-.2,1.14,0,2.34.07,2.54.07s1.16-.07,2.43-.07c.31,0,.46.07.46.2,0,.18-.17.2-.39.2-.17,0-.39,0-.55.09-.2.09-.24.24-.24.48,0,.28.22,1.03.48,2.02.37,1.45,2.41,8.09,2.83,9.4l4.29-11.5c.22-.61.37-.79.55-.79.24,0,.35.33.64,1.03l4.6,11.11c.42-1.56,2.17-7.34,2.94-9.9.15-.5.22-.96.22-1.27,0-.35-.2-.66-1.05-.66-.22,0-.37-.07-.37-.2,0-.15.18-.2.5-.2,1.16,0,2.08.07,2.28.07.15,0,1.1-.07,1.82-.07.24,0,.39.04.39.18,0,.15-.11.22-.31.22-.22,0-.53.02-.77.11-.53.2-.77,1.07-1.23,2.32-1.01,2.76-3.31,9.73-4.38,13.02-.24.77-.35,1.03-.64,1.03-.22,0-.35-.26-.68-1.07l-4.58-11.04c-.44,1.18-3.35,8.94-4.29,10.96-.42.9-.53,1.16-.79,1.16-.22,0-.31-.24-.5-.81l-4.65-13.91Z" fill="#fff"/><path d="m164.26,9.96c.07,0,.13-.04.13-.13v-.39c0-2.83,0-3.31-.04-3.9-.04-.61-.2-.85-.83-.99-.15-.02-.48-.04-.72-.07-.24,0-.35-.09-.35-.22s.13-.18.39-.18c1.07,0,2.37.07,2.85.07.39,0,1.8-.07,2.58-.07.26,0,.37.04.37.18s-.09.22-.33.22c-.2.02-.35.02-.57.07-.53.07-.68.35-.72.99-.04.59-.04,1.1-.04,3.94v3.29c0,1.73,0,3.13.11,3.92.04.55.17.94.75,1.03.26.04.7.04.96.07.22,0,.31.11.31.2,0,.13-.15.2-.37.2-1.27,0-2.63-.07-3.13-.07-.42,0-1.67.07-2.48.07-.29,0-.39-.07-.39-.2,0-.09.07-.2.31-.2.26-.02.5-.02.68-.07.39-.09.5-.48.57-1.05.11-.77.11-2.15.11-3.86v-1.6c0-.09-.07-.11-.13-.11h-7.1c-.07,0-.13.02-.13.11v1.67c0,1.73,0,3.02.11,3.83.04.53.2.92.77.99.28.07.68.07.94.09.22,0,.33.11.33.2,0,.13-.15.2-.39.2-1.23,0-2.63-.07-3.11-.07-.39,0-1.75.07-2.52.07-.22,0-.37-.07-.37-.2,0-.09.07-.2.31-.2.29-.02.5-.02.68-.07.39-.09.53-.5.57-1.05.11-.77.11-2.17.11-3.9v-3.29c0-2.83,0-3.33-.04-3.92-.04-.64-.2-.88-.86-1.01-.15-.04-.44-.04-.7-.07-.24,0-.33-.09-.33-.22s.15-.18.39-.18c1.05,0,2.32.07,2.83.07s1.8-.07,2.56-.07c.31,0,.42.07.42.2s-.15.2-.35.2c-.18.02-.42.04-.57.07-.53.07-.68.37-.72,1.01-.04.59-.04,1.14-.04,3.88v.39c0,.09.07.13.13.13h7.1Z" fill="#fff"/><path d="m171.11,11.15c0-3.29,2.19-7.32,7.95-7.32,4.82,0,7.76,2.96,7.76,6.97,0,4.27-3,7.63-7.93,7.63-5.5,0-7.78-3.97-7.78-7.27Zm12.86.35c0-3.97-2.28-6.68-5.48-6.68-2.15,0-4.56,1.1-4.56,5.7,0,3.81,2.08,6.88,5.72,6.88,1.34,0,4.32-.55,4.32-5.89Z" fill="#fff"/><path d="m196.51,17.92c-.35-.15-.42-.26-.42-.74,0-1.21.09-2.52.11-2.87.02-.33.09-.57.26-.57.2,0,.22.2.22.37,0,.28.09.74.2,1.12.48,1.62,1.78,2.21,3.13,2.21,1.97,0,2.94-1.34,2.94-2.5,0-1.07-.33-2.08-2.15-3.51l-1.01-.79c-2.41-1.88-3.24-3.42-3.24-5.19,0-2.41,2.02-4.14,5.06-4.14.83,0,1.49.09,2.02.18.37.07.66.13.9.2.2.04.31.11.31.26,0,.28-.09.92-.09,2.63,0,.48-.07.66-.24.66-.15,0-.22-.13-.22-.39,0-.2-.11-.88-.57-1.45-.33-.42-.96-1.07-2.39-1.07-1.62,0-2.61.94-2.61,2.26,0,1.01.5,1.77,2.32,3.16l.61.46c2.65,1.99,3.59,3.51,3.59,5.59,0,1.27-.48,2.78-2.06,3.81-1.09.7-2.32.9-3.48.9-1.27,0-2.26-.15-3.2-.57Z" fill="#fff"/><path d="m211.1,13.56c-.09,0-.13.04-.17.15l-.96,2.39c-.17.46-.28.92-.28,1.14,0,.55.68.57,1.1.57.26,0,.33.09.33.18,0,.15-.15.2-.35.2-.68,0-1.47-.07-2.15-.07-.22,0-1.31.07-2.32.07-.24,0-.35-.04-.35-.2,0-.11.11-.2.26-.2,1.38-.13,1.69-.39,2.19-1.67l4.65-10.98c.39-1.03.61-1.45.85-1.45.17,0,.28.2.5.68.37,1.07,3.62,8.55,4.84,11.35.7,1.64,1.25,1.93,1.71,2.02.2.04.53.04.72.04.24,0,.33.09.33.2,0,.13-.09.2-.37.2-.92,0-3.22.04-4.6-.04-.2-.02-.33-.07-.33-.18,0-.09.09-.13.2-.18.2-.07.35-.13.22-.39l-1.49-3.7c-.02-.09-.09-.13-.17-.13h-4.34Zm3.92-1.1c.11,0,.11-.04.09-.11l-1.71-4.47c-.07-.18-.13-.22-.22,0l-1.73,4.47c-.02.07,0,.11.09.11h3.48Z" fill="#fff"/><path d="m227.53,12.77c0,1.67,0,3.13.09,3.94.07.5.18.92.77.99.26.04.66.07.94.09.22,0,.33.09.33.18,0,.13-.13.22-.39.22-1.27,0-2.61-.07-3.09-.07-.44,0-1.77.07-2.52.07-.26,0-.39-.09-.39-.22,0-.09.09-.18.33-.18.26-.02.48-.02.66-.07.42-.09.53-.48.59-1.03.09-.79.09-2.19.09-3.92v-7.58c-.72,0-2.17,0-3.04.07-1.12.09-1.45.18-1.71.66-.13.24-.18.39-.26.61-.04.13-.11.22-.22.22-.13,0-.18-.11-.18-.33.02-.39.37-1.95.42-2.19.04-.26.11-.39.22-.39.15,0,.33.18.81.22.53.07,1.32.11,1.97.11h7.76c.61,0,1.03-.07,1.31-.11.28-.04.44-.09.55-.09.13,0,.15.11.15.44,0,.37-.09,1.73-.09,2.21-.02.2-.07.31-.2.31-.15,0-.17-.11-.2-.37,0-.07-.02-.15-.02-.24-.04-.5-.5-1.01-2.13-1.03-.53-.04-1.34-.07-2.54-.09v7.58Z" fill="#fff"/><path d="m243.26,7.97c0-3.33,0-3.94-.04-4.65-.04-.75-.22-1.1-.94-1.25-.17-.04-.55-.07-.85-.07-.24,0-.37-.04-.37-.2s.15-.2.48-.2c1.16,0,2.54.07,2.98.07,1.07,0,1.93-.07,2.67-.07,3.97,0,4.67,2.13,4.67,3.29,0,1.8-1.03,2.87-2.23,3.83,1.8.61,3.99,2.17,3.99,4.73,0,2.34-1.82,4.78-5.85,4.78-1.01,0-2.02-.13-3.18-.13-.88,0-1.77.07-2.76.07-.29,0-.44-.07-.44-.22,0-.11.09-.18.35-.18.33,0,.64-.04.83-.11.42-.13.5-.55.59-1.18.11-.92.11-2.65.11-4.67v-3.86Zm2.63.37c0,.18.07.22.15.24.2.04.53.07,1.03.07.72,0,1.21-.09,1.58-.42.57-.46.9-1.25.9-2.32,0-1.47-.85-3.4-2.74-3.4-.31,0-.5,0-.72.04-.15.04-.2.13-.2.37v5.41Zm0,2.98v3.57c0,1.45.07,1.82.77,2.1.59.24,1.09.26,1.6.26.99,0,2.65-.53,2.65-2.8,0-1.36-.46-3.2-2.12-4.36-.46-.33-.96-.48-1.82-.53-.39-.02-.61-.02-.94-.02-.09,0-.13.04-.13.15v1.62Z" fill="#fff"/><path d="m259.78,13.34c0-.99-.2-1.4-.46-1.95-.24-.48-2.7-4.38-3.38-5.37-.53-.74-.94-1.1-1.38-1.31-.22-.11-.48-.2-.7-.22-.15,0-.33-.07-.33-.2,0-.11.09-.2.33-.2.44,0,1.93.07,2.58.07.37,0,1.25-.07,2.17-.07.2,0,.31.07.31.18s-.07.18-.35.24c-.24.04-.39.15-.39.31s.09.35.24.61c.26.57,2.89,4.97,3.2,5.5.39-.77,2.56-4.43,2.85-5.04.2-.42.29-.74.29-.99,0-.18-.09-.33-.46-.42-.17-.04-.35-.11-.35-.22,0-.13.09-.18.35-.18.68,0,1.29.07,1.88.07.39,0,1.71-.07,2.08-.07.22,0,.37.07.37.18,0,.13-.15.22-.39.22-.18.02-.53.07-.83.2-.42.2-.64.39-1.03.88-.64.75-3.35,5.17-3.68,5.96-.29.7-.29,1.31-.29,1.84v1.49c0,.31,0,1.05.04,1.82.04.53.18.96.79,1.03.29.07.68.07.96.09.22,0,.33.11.33.2,0,.13-.11.2-.35.2-1.25,0-2.59-.07-3.13-.07-.48,0-1.77.07-2.5.07-.28,0-.44-.04-.44-.2,0-.09.11-.18.31-.2.22-.02.46-.02.63-.09.44-.07.64-.46.66-1.01.07-.79.07-1.53.07-1.84v-1.51Z" fill="#fff"/><path d="m282.39,12.77c0,1.67,0,3.13.09,3.94.07.5.18.92.77.99.26.04.66.07.94.09.22,0,.33.09.33.18,0,.13-.13.22-.39.22-1.27,0-2.61-.07-3.09-.07-.44,0-1.77.07-2.52.07-.26,0-.39-.09-.39-.22,0-.09.09-.18.33-.18.26-.02.48-.02.66-.07.42-.09.53-.48.59-1.03.09-.79.09-2.19.09-3.92v-7.58c-.72,0-2.17,0-3.04.07-1.12.09-1.45.18-1.71.66-.13.24-.17.39-.26.61-.04.13-.11.22-.22.22-.13,0-.18-.11-.18-.33.02-.39.37-1.95.42-2.19.04-.26.11-.39.22-.39.15,0,.33.18.81.22.53.07,1.31.11,1.97.11h7.76c.61,0,1.03-.07,1.32-.11.28-.04.44-.09.55-.09.13,0,.15.11.15.44,0,.37-.09,1.73-.09,2.21-.02.2-.07.31-.2.31-.15,0-.17-.11-.2-.37,0-.07-.02-.15-.02-.24-.04-.5-.5-1.01-2.13-1.03-.53-.04-1.34-.07-2.54-.09v7.58Z" fill="#fff"/><path d="m301.1,9.96c.07,0,.13-.04.13-.13v-.39c0-2.83,0-3.31-.04-3.9-.04-.61-.2-.85-.83-.99-.15-.02-.48-.04-.72-.07-.24,0-.35-.09-.35-.22s.13-.18.39-.18c1.07,0,2.37.07,2.85.07.39,0,1.8-.07,2.58-.07.26,0,.37.04.37.18s-.09.22-.33.22c-.2.02-.35.02-.57.07-.53.07-.68.35-.72.99-.04.59-.04,1.1-.04,3.94v3.29c0,1.73,0,3.13.11,3.92.04.55.17.94.75,1.03.26.04.7.04.96.07.22,0,.31.11.31.2,0,.13-.15.2-.37.2-1.27,0-2.63-.07-3.13-.07-.42,0-1.67.07-2.48.07-.29,0-.39-.07-.39-.2,0-.09.07-.2.31-.2.26-.02.5-.02.68-.07.39-.09.5-.48.57-1.05.11-.77.11-2.15.11-3.86v-1.6c0-.09-.07-.11-.13-.11h-7.1c-.07,0-.13.02-.13.11v1.67c0,1.73,0,3.02.11,3.83.04.53.2.92.77.99.28.07.68.07.94.09.22,0,.33.11.33.2,0,.13-.15.2-.39.2-1.23,0-2.63-.07-3.11-.07-.39,0-1.75.07-2.52.07-.22,0-.37-.07-.37-.2,0-.09.07-.2.31-.2.29-.02.5-.02.68-.07.39-.09.53-.5.57-1.05.11-.77.11-2.17.11-3.9v-3.29c0-2.83,0-3.33-.04-3.92-.04-.64-.2-.88-.86-1.01-.15-.04-.44-.04-.7-.07-.24,0-.33-.09-.33-.22s.15-.18.39-.18c1.05,0,2.32.07,2.83.07s1.8-.07,2.56-.07c.31,0,.42.07.42.2s-.15.2-.35.2c-.18.02-.42.04-.57.07-.53.07-.68.37-.72,1.01-.04.59-.04,1.14-.04,3.88v.39c0,.09.07.13.13.13h7.1Z" fill="#fff"/><path d="m310.19,9.48c0-2.85,0-3.35-.04-3.97-.04-.61-.2-.85-.79-.99-.18-.04-.48-.04-.75-.07-.22,0-.33-.07-.33-.2s.13-.18.44-.18c.92,0,1.8.07,2.76.07.59,0,4.6,0,4.95-.02.37-.04.7-.09.88-.11.11-.02.22-.09.31-.09.11,0,.13.09.13.18,0,.13-.13.39-.17,1.18-.02.35-.04.72-.09,1.29,0,.11-.04.31-.22.31-.13,0-.18-.11-.2-.35,0-.09,0-.37-.11-.61-.13-.35-.31-.55-1.25-.66-.37-.04-2.34-.09-2.78-.09-.09,0-.13.07-.13.2v4.54c0,.13.02.2.13.2.46,0,2.56,0,3.05-.02.55-.04.83-.11,1.01-.31.13-.18.22-.24.31-.24s.13.04.13.15c0,.13-.09.55-.15,1.45,0,.37-.07,1.16-.07,1.31s-.02.35-.2.35c-.13,0-.2-.2-.2-.31-.02-.18-.02-.28-.07-.5-.11-.42-.33-.7-1.1-.77-.39-.04-2.23-.07-2.72-.07-.11,0-.13.09-.13.2v1.42c0,.64-.02,2.17,0,2.74.04,1.29.33,1.58,2.34,1.58.5,0,1.32,0,1.8-.22.5-.24.72-.61.88-1.4.04-.2.09-.31.24-.31s.15.18.15.37c0,.48-.15,1.82-.26,2.19-.13.48-.31.48-1.03.48-1.91,0-3.55-.11-5.5-.11-.79,0-1.58.07-2.5.07-.26,0-.39-.07-.39-.2,0-.09.07-.2.33-.2.26-.02.5-.02.68-.07.39-.09.5-.5.57-1.16.09-.77.09-2.19.09-3.79v-3.29Z" fill="#fff"/><path d="m329.64,7.97c0-3.33,0-3.94-.04-4.65-.04-.75-.22-1.1-.94-1.25-.17-.04-.55-.07-.85-.07-.24,0-.37-.04-.37-.2s.15-.2.48-.2c1.16,0,2.54.07,3.16.07.68,0,2.06-.07,3.38-.07,2.74,0,6.4,0,8.79,2.5,1.1,1.14,2.12,2.96,2.12,5.57,0,2.76-1.16,4.86-2.39,6.11-1.01,1.03-3.29,2.59-7.34,2.59-.79,0-1.69-.07-2.52-.13-.83-.07-1.6-.13-2.15-.13-.24,0-.72,0-1.25.02-.5,0-1.07.04-1.51.04-.29,0-.44-.07-.44-.22,0-.11.09-.18.35-.18.33,0,.59-.04.79-.09.44-.09.55-.57.64-1.21.11-.92.11-2.65.11-4.67v-3.86Zm2.74,2.41c0,2.32.02,4.01.04,4.43.02.55.07,1.42.24,1.67.29.42,1.14.88,2.87.88,2.24,0,3.73-.44,5.04-1.58,1.4-1.21,1.84-3.2,1.84-5.46,0-2.78-1.16-4.58-2.1-5.48-2.02-1.93-4.51-2.19-6.22-2.19-.44,0-1.25.07-1.42.15-.2.09-.26.2-.26.44-.02.74-.02,2.65-.02,4.38v2.76Z" fill="#fff"/><path d="m348.15,11.15c0-3.29,2.19-7.32,7.95-7.32,4.82,0,7.76,2.96,7.76,6.97,0,4.27-3,7.63-7.93,7.63-5.5,0-7.78-3.97-7.78-7.27Zm12.86.35c0-3.97-2.28-6.68-5.48-6.68-2.15,0-4.56,1.1-4.56,5.7,0,3.81,2.08,6.88,5.72,6.88,1.34,0,4.32-.55,4.32-5.89Z" fill="#fff"/><path d="m366.62,11.15c0-3.29,2.19-7.32,7.95-7.32,4.82,0,7.76,2.96,7.76,6.97,0,4.27-3,7.63-7.93,7.63-5.5,0-7.78-3.97-7.78-7.27Zm12.86.35c0-3.97-2.28-6.68-5.48-6.68-2.15,0-4.56,1.1-4.56,5.7,0,3.81,2.08,6.88,5.72,6.88,1.34,0,4.32-.55,4.32-5.89Z" fill="#fff"/><path d="m386.45,9.48c0-2.85,0-3.26-.04-3.86-.04-.66-.22-.94-.81-1.05-.24-.04-.5-.07-.74-.09-.22,0-.33-.07-.33-.2s.13-.2.42-.2c.99,0,2.32.07,2.7.07.59,0,2.15-.07,2.8-.07,1.31,0,2.61.13,3.59.77.61.39,1.42,1.34,1.42,2.61,0,1.4-.66,2.65-2.56,4.08,1.62,2.02,2.98,3.75,4.12,4.91,1.05,1.12,1.78,1.21,2.13,1.29.2.02.35.02.5.04.17,0,.26.09.26.18,0,.15-.13.22-.37.22h-1.84c-1.27,0-1.82-.13-2.37-.42-.77-.42-1.49-1.27-2.5-2.65-.79-1.1-1.6-2.26-1.88-2.59-.07-.09-.17-.11-.31-.11l-1.56-.04c-.09,0-.15.04-.15.15v.39c0,1.69,0,2.98.09,3.75.04.55.17.96.77,1.03.26.07.66.07.92.09.18,0,.24.09.24.18,0,.13-.13.22-.37.22-1.16,0-2.7-.07-2.98-.07-.33,0-1.67.07-2.43.07-.24,0-.37-.07-.37-.2,0-.09.09-.2.31-.2.29-.02.53-.02.7-.07.37-.09.5-.48.55-1.05.11-.77.11-2.17.11-3.9v-3.29Zm2.48,1.42c0,.18.04.26.17.31.39.15.96.22,1.47.22.7,0,1.01-.09,1.34-.33.55-.39,1.07-1.21,1.07-2.7,0-2.65-1.82-3.35-2.91-3.35-.46,0-.81.02-.99.09-.11.04-.15.11-.15.26v5.5Z" fill="#fff"/><path d="m75.58,54.26c-.54,0-1.15-.59-1.41-.93-.48-.73-.51-1.97-.51-2.84,0-2.42.48-4.39.96-5.88-1.92-.76-2.93-1.66-2.93-2.76,0-.37.14-1.1.56-1.24.37,0,.14.7.34.87.96.79,1.91,1.04,3.07,1.21.51-.48,1.32-1.69,2.7-1.69.76,0,1.94.23,1.94,2.28,0,1.6-2.28,1.89-3.27,1.89h-.17c-.48,1.8-.56,3.86-.56,5.71,0,1.1.03,2.17.06,3.1-.25.23-.37.28-.79.28Zm2.34-11.32c.45,0,1.3-.34,1.3-.7,0-.23-.17-.45-.42-.45-.56,0-1.29.39-1.32,1.1.14.03.28.06.45.06Z" fill="#fff"/><path d="m86.79,41.5h.39c.22,0,.73.06,1.04.2,0,.17,0,.48.03.82,0,.2.03.45.03.7l.2,3.46c0,.53.08,1.01.17,1.49.08.53.17,1.04.17,1.63,0,.42,0,1.21-.31,1.55-.25.08-.42.14-.65.14-.42,0-1.07-.28-1.15-.76l-.11-2.08v-.11h-.08c-.37.03-.68.06-.96.06-.39,0-.84-.03-1.49-.08.06.68.06,1.94.06,2.22,0,.56-.11.59-.87.68-.37,0-.68-.03-1.1-.34l-.22-.82c-.11-.31-.17-1.89-.17-2.25-.34-.14-.84-.59-.99-1.01-.06-.2-.17-.96-.17-1.41,0-.06.03-.08.03-.11v-.25c.51.31.96.51,1.29.59l.2-3.46.45-.23c.17-.06.34-.08.56-.08.25,0,.87.11,1.07.28,0,.23-.03.28-.06.51-.06.48-.14,1.18-.14,2.34v1.29c.59.11.84.14,1.8.14.25,0,.37,0,.65-.06l-.25-3.58-.06-.68c.08-.31.31-.59.65-.79Z" fill="#fff"/><path d="m96.08,50.09c-.76.59-2.48,1.91-4.34,1.91-1.55,0-2.25-1.15-2.25-2.36,0-.65.39-1.52.7-2.39-.08-.28-.23-.45-.23-.73,0-.23.08-.34.14-.56.23-.08.48-.2.73-.23l.68-1.55c-.65-.31-1.6-.68-1.6-1.27,0-.31.25-.39.73-.42,1.18-.06,2.56-.56,4.87-.56.25,0,.56.03,1.15.2.25.31.9.9.9,1.38,0,.28-.99.59-1.52.62-1.21.08-1.49.06-2.25.08-.14,0-.28,0-.42.03-.11.11-.34.48-.34,1.18,0,.11.06.28.25.28h2.08l.39.06c.14.2.17.56.17.82,0,.23-.06.65-.31.68-.51.03-1.77.08-3.18.08-.06,0-.11,0-.17.11-.14.59-.39,1.27-.68,1.89.14,0,1.21-.28,3.01-.45.28-.03.65-.06.93-.06.34,0,.7.48.7.84,0,.17-.03.34-.17.42Z" fill="#fff"/><path d="m110.72,53.41c-1.75-2.22-2.87-5.88-2.87-8.53,0-2.82,1.01-5.21,2.56-7.57-1.69-.56-3.52-1.41-4.76-2.08-.93-.51-2.05-1.35-2.05-2.45,0-.62.73-1.32,1.55-1.32h.11c.17,0,.17.11.17.2s0,.14-.06.2c-.42.45-.62.76-.62,1.01s.31.51.76.84c1.04.84,3.83,1.63,6.08,2.03,2.42-2.36,5.83-3.69,9.18-3.69.7,0,1.77.06,1.77.93,0,3.58-4.34,5.15-7.18,5.15-.84,0-1.72-.08-2.59-.25-1.49,2.51-2.48,5.71-2.48,8.78,0,2.48.68,4.59,1.97,6.53.28.42.48.65.48.87,0,.17-.08.28-.37.28-.62-.06-1.24-.42-1.66-.93Zm3.8-17.31c.34.03.7.03,1.01.03,1.86,0,3.69-.45,4.64-2.03-.7,0-1.52.2-1.91.28-1.27.31-2.67.9-3.74,1.72Z" fill="#fff"/><path d="m121.55,41.5h.39c.22,0,.73.06,1.04.2,0,.17,0,.48.03.82,0,.2.03.45.03.7l.2,3.46c0,.53.08,1.01.17,1.49.08.53.17,1.04.17,1.63,0,.42,0,1.21-.31,1.55-.25.08-.42.14-.65.14-.42,0-1.07-.28-1.15-.76l-.11-2.08v-.11h-.08c-.37.03-.68.06-.96.06-.39,0-.84-.03-1.49-.08.06.68.06,1.94.06,2.22,0,.56-.11.59-.87.68-.37,0-.68-.03-1.1-.34l-.22-.82c-.11-.31-.17-1.89-.17-2.25-.34-.14-.84-.59-.99-1.01-.06-.2-.17-.96-.17-1.41,0-.06.03-.08.03-.11v-.25c.51.31.96.51,1.29.59l.2-3.46.45-.23c.17-.06.34-.08.56-.08.25,0,.87.11,1.07.28,0,.23-.03.28-.06.51-.06.48-.14,1.18-.14,2.34v1.29c.59.11.84.14,1.8.14.25,0,.37,0,.65-.06l-.25-3.58-.06-.68c.08-.31.31-.59.65-.79Z" fill="#fff"/><path d="m124.23,46.77c0-3.01,2.59-5.24,5.41-5.24.62,0,1.13.08,1.49.23.45.2.7.39.7.56,0,.23-.34.34-.59.37h.03c.62,0,1.32.14,1.92.53.48.31.84,1.49.84,2.25,0,3.46-3.72,5.77-7.09,5.91-.11.34-.45.59-.79.9-.56-.73-.84-1.41-.84-1.86v-.06c-.76-1.27-1.07-2.48-1.07-3.6Zm6.28-4c-.45.08-.87.2-1.24.31-2.37.56-3.41,2.56-3.41,4.28,0,.28.03.56.11.84,1.21-3.1,2.31-4.79,3.88-5.26.23-.06.42-.14.65-.17Zm-2.73,6.22h.37c1.49,0,4.31-1.72,4.31-3.69,0-.59-.45-.9-1.13-.9-1.49,0-2.51,1.8-3.55,4.59Zm2.73-6.22c.06-.03.08-.03.14-.03-.06,0-.08,0-.14.03Z" fill="#fff"/><path d="m140.64,41.39c.76,0,.9,1.1.96,2.2.03.9.06,1.75.11,2.11.37-.99,1.38-3.72,3.58-3.72.82,0,1.44.84,1.49,1.46.06,1.1.42,8.42-.42,8.45-1.52.08-1.63-2.31-1.66-2.67-.03-.48-.06-1.97-.06-3.21,0-.84.03-1.6.08-1.8-1.38.56-1.89,4.62-2.45,6.22-.08.25-.45.39-.73.39-1.46.06-1.89-6.25-1.89-6.98-1.38.9-2.79,1.89-2.76,5.83,0,1.13-.06,2.06-.99,2.08-.42.03-.7-.14-.9-.79-.2-.62-.34-2.73-.34-3.55,0-1.15.11-2.39.31-3.38.25-1.13.34-1.97,1.32-1.97.79,0,.87,1.21.96,1.63.17-.28,1.8-2.31,3.38-2.31Z" fill="#fff"/><path d="m152.83,40.69h.17c.37,0,.76.48.82.87.14.48.65,1.86.76,2.62.34,2.45.56,3.83.56,6,0,.99,0,1.24-.08,1.58-.08.06-.2.08-.31.08-.54,0-.96-.59-1.27-1.32l-.11-1.63h-.9c-.99,0-1.32-.03-1.55-.03-.08,0-.14,0-.17.03-.42.14-.62,1.24-1.01,2.28l-.31.82c-.14.14-.39.23-.67.23-.17,0-.34-.06-.56-.08-.39-.42-.54-.79-.54-1.38,0-.68.28-1.52.79-2.42,0-.45-.25-.93-.84-1.01l.06-.53c.11.03.25.03.39.03h.93c.45-.96,1.44-2.96,2.11-3.97l1.35-1.66.08-.34c.08-.14.17-.14.31-.14Zm-.54,6c.25,0,.56,0,.82-.03,0-.53-.03-1.77-.39-2.42-.39.11-1.01,1.75-1.21,2.42.25.03.53.03.79.03Z" fill="#fff"/><path d="m157.42,44.49s.03.06.06.06c1.07.39,1.77.53,2.9.59,1.91.14,4.76.17,4.76,2.82,0,3.04-3.38,3.21-4.28,3.21-2.39,0-4.5-1.52-4.5-2.67,0-1.38,1.44-1.75,2.56-1.75s2.48.28,3.63.87c.03.03.06.06.06.11,0,.08-.03.14-.06.17-.23.23-.9.56-1.61.56-.82,0-1.94-.68-3.04-.68-.39,0-.87.08-.87.7,0,.7,1.27.7,2.28.7.54,0,4.42-.45,4.42-1.49,0-.99-2.96-1.41-4.17-1.44-3.24-.08-3.66-.42-3.66-1.6,0-2.65,5.35-2.84,5.6-2.84,1.41,0,2.67.25,3.6.48.2.03.31.11.31.42-.03.34-.31.53-.62.65-.23.06-.7.14-.93.17-.99.14-3.88.25-4.79.42-.93.14-1.32.25-1.61.42-.03.03-.06.08-.06.11Z" fill="#fff"/><path d="m187.54,29.77c.45,0,1.07.25,1.49.59,2.73,2.17,4.65,6.56,4.65,10.11,0,8.61-6,12.56-9.49,12.56-2.48,0-3.91-2.28-4-2.76-.7.28-1.6.51-2.34.51-3.12,0-4.31-2.79-4.31-5.46,0-4.84,2.39-9.99,6.31-12.67.39-.28.96-.62,1.32-.62.25,0,.39.08.39.31,0,.28-.28.51-.39.62-3.21,3.27-5.38,8.14-5.38,12.78,0,1.69.48,3.83,2.36,3.83.56,0,1.18-.2,1.52-.56-.48-2.2-.51-4.31-.51-4.65,0-4.73,3.55-6.59,4.96-6.59,1.72,0,2.31,2.25,2.31,3.66,0,2.56-1.49,5.24-4.31,7.63.37,1.07,1.21,1.6,2.51,1.6,2.59,0,6.53-4.14,6.53-12.02,0-3.12-1.32-6.64-3.69-8.67l.06-.2Zm-3.38,11.04c0-.79-.06-1.91-.65-1.91-1.35,0-1.8,5.72-1.8,6.95,0,.42,0,1.1.14,1.21,1.75-2.08,2.31-4,2.31-6.25Z" fill="#fff"/><path d="m197.93,40.69h.17c.37,0,.76.48.82.87.14.48.65,1.86.76,2.62.34,2.45.56,3.83.56,6,0,.99,0,1.24-.08,1.58-.08.06-.2.08-.31.08-.54,0-.96-.59-1.27-1.32l-.11-1.63h-.9c-.99,0-1.32-.03-1.55-.03-.08,0-.14,0-.17.03-.42.14-.62,1.24-1.01,2.28l-.31.82c-.14.14-.39.23-.67.23-.17,0-.34-.06-.56-.08-.39-.42-.54-.79-.54-1.38,0-.68.28-1.52.79-2.42,0-.45-.25-.93-.84-1.01l.06-.53c.11.03.25.03.39.03h.93c.45-.96,1.44-2.96,2.11-3.97l1.35-1.66.08-.34c.08-.14.17-.14.31-.14Zm-.54,6c.25,0,.56,0,.82-.03,0-.53-.03-1.77-.39-2.42-.39.11-1.01,1.75-1.21,2.42.25.03.53.03.79.03Z" fill="#fff"/><path d="m202.52,44.49s.03.06.06.06c1.07.39,1.77.53,2.9.59,1.91.14,4.76.17,4.76,2.82,0,3.04-3.38,3.21-4.28,3.21-2.39,0-4.5-1.52-4.5-2.67,0-1.38,1.44-1.75,2.56-1.75s2.48.28,3.63.87c.03.03.06.06.06.11,0,.08-.03.14-.06.17-.23.23-.9.56-1.61.56-.82,0-1.94-.68-3.04-.68-.39,0-.87.08-.87.7,0,.7,1.27.7,2.28.7.54,0,4.42-.45,4.42-1.49,0-.99-2.96-1.41-4.17-1.44-3.24-.08-3.66-.42-3.66-1.6,0-2.65,5.35-2.84,5.6-2.84,1.41,0,2.67.25,3.6.48.2.03.31.11.31.42-.03.34-.31.53-.62.65-.23.06-.7.14-.93.17-.99.14-3.88.25-4.79.42-.93.14-1.32.25-1.61.42-.03.03-.06.08-.06.11Z" fill="#fff"/><path d="m216.96,41.5h.39c.22,0,.73.06,1.04.2,0,.17,0,.48.03.82,0,.2.03.45.03.7l.2,3.46c0,.53.08,1.01.17,1.49.08.53.17,1.04.17,1.63,0,.42,0,1.21-.31,1.55-.25.08-.42.14-.65.14-.42,0-1.07-.28-1.15-.76l-.11-2.08v-.11h-.08c-.37.03-.68.06-.96.06-.39,0-.84-.03-1.49-.08.06.68.06,1.94.06,2.22,0,.56-.11.59-.87.68-.37,0-.68-.03-1.1-.34l-.22-.82c-.11-.31-.17-1.89-.17-2.25-.34-.14-.84-.59-.99-1.01-.06-.2-.17-.96-.17-1.41,0-.06.03-.08.03-.11v-.25c.51.31.96.51,1.29.59l.2-3.46.45-.23c.17-.06.34-.08.56-.08.25,0,.87.11,1.07.28,0,.23-.03.28-.06.51-.06.48-.14,1.18-.14,2.34v1.29c.59.11.84.14,1.8.14.25,0,.37,0,.65-.06l-.25-3.58-.06-.68c.08-.31.31-.59.65-.79Z" fill="#fff"/><path d="m226.28,34.13c.48,0,1.58.48,1.58,1.52,0,2.17-3.72,4.65-5.57,4.65-.56,0-1.27-.08-1.77-.25-.31.37-.42.68-.84.73-.28-.06-.65-.59-.7-1.21,0-.14.06-.34.08-.48-.42-.56-.73-1.07-.73-1.69,0-1.86,2.79-4.34,5.46-4.34,1.24,0,2.22.48,2.39,1.1.03,0,.06-.03.11-.03Zm-6.48,3.32c.06,0,.11-.03.14-.06.37-.51,1.55-1.63,2.2-2.25v-.03s0-.08-.06-.14c-1.41.28-2.28,1.32-2.39,2.42.03.03.06.06.11.06Zm2.67,6.14c.06,2.28.28,4.67.28,6.93,0,.45-.17.99-.87.99-.23,0-.56-.08-.79-.17-.37-.11-.53-1.21-.56-1.49,0-1.44.03-1.46.08-2.96.03-.39.11-1.94.48-4.79.03-.14.06-.2.17-.2,1.01.03,1.15.62,1.21,1.69Zm-.87-4.95h.62c1.41,0,4.28-.96,4.28-2.67,0-.39,0-.7-.73-.7-1.63,0-3.24,1.58-4.39,3.15,0,.06.14.23.22.23Z" fill="#fff"/><path d="m229.6,40.97c0-.23.03-.59.28-.59.79,0,3.04,2.79,3.04,6.7,0,1.72-.79,3.77-2.17,3.77-1.63,0-3.35-5.24-3.74-5.24-.06,0-.14.08-.2.31-.08.34-.14,3.29-.28,4.17-.08.39-.22,1.32-.84,1.32-.9,0-1.1-1.55-1.1-2.22,0-1.46.73-6.64,1.94-6.64.84,0,2.53,3.52,4.03,5.38.11.11.17.23.2.23.17,0,.17-.25.17-.73,0-2.59-.53-3.35-1.24-6l-.08-.34v-.11Z" fill="#fff"/><path d="m241.26,44.26c-.34.23-.76.31-1.21.31.17-.31.25-.59.25-.73,0-.11-.08-.23-.34-.23-.17,0-.42.06-.76.14-1.94.45-3.49,1.8-3.49,4.03,0,1.24.68,1.91,2.2,1.91.68,0,2.76-.17,2.76-2,0-.37-.84-.39-1.32-.39-.79,0-1.32.42-1.75,1.18-.62-.2-.65-.42-.65-.87,0-1.8,2.56-1.86,3.8-1.86s2.03.87,2.03,1.83c0,2.56-1.89,3.97-5.12,3.97-2.84,0-3.94-1.29-3.94-3.83,0-3.66,3.72-6.19,5.83-6.19,1.41,0,2.11.45,2.11,1.41,0,.37-.11.82-.34,1.27l-.06.06Z" fill="#fff"/><path d="m247.25,54.26c-.54,0-1.15-.59-1.41-.93-.48-.73-.51-1.97-.51-2.84,0-2.42.48-4.39.96-5.88-1.92-.76-2.93-1.66-2.93-2.76,0-.37.14-1.1.56-1.24.37,0,.14.7.34.87.96.79,1.91,1.04,3.07,1.21.51-.48,1.32-1.69,2.7-1.69.76,0,1.94.23,1.94,2.28,0,1.6-2.28,1.89-3.27,1.89h-.17c-.48,1.8-.56,3.86-.56,5.71,0,1.1.03,2.17.06,3.1-.25.23-.37.28-.79.28Zm2.34-11.32c.45,0,1.3-.34,1.3-.7,0-.23-.17-.45-.42-.45-.56,0-1.29.39-1.32,1.1.14.03.28.06.45.06Z" fill="#fff"/><path d="m252.52,46.77c0-3.01,2.59-5.24,5.41-5.24.62,0,1.13.08,1.49.23.45.2.7.39.7.56,0,.23-.34.34-.59.37h.03c.62,0,1.32.14,1.92.53.48.31.84,1.49.84,2.25,0,3.46-3.72,5.77-7.09,5.91-.11.34-.45.59-.79.9-.56-.73-.84-1.41-.84-1.86v-.06c-.76-1.27-1.07-2.48-1.07-3.6Zm6.28-4c-.45.08-.87.2-1.24.31-2.37.56-3.41,2.56-3.41,4.28,0,.28.03.56.11.84,1.21-3.1,2.31-4.79,3.88-5.26.23-.06.42-.14.65-.17Zm-2.73,6.22h.37c1.49,0,4.31-1.72,4.31-3.69,0-.59-.45-.9-1.13-.9-1.49,0-2.51,1.8-3.55,4.59Zm2.73-6.22c.06-.03.08-.03.14-.03-.06,0-.08,0-.14.03Z" fill="#fff"/><path d="m267.94,40.97c0-.23.03-.59.28-.59.79,0,3.04,2.79,3.04,6.7,0,1.72-.79,3.77-2.17,3.77-1.63,0-3.35-5.24-3.74-5.24-.06,0-.14.08-.2.31-.08.34-.14,3.29-.28,4.17-.08.39-.22,1.32-.84,1.32-.9,0-1.1-1.55-1.1-2.22,0-1.46.73-6.64,1.94-6.64.84,0,2.53,3.52,4.03,5.38.11.11.17.23.2.23.17,0,.17-.25.17-.73,0-2.59-.53-3.35-1.24-6l-.08-.34v-.11Z" fill="#fff"/><path d="m281.32,44.49s.03.06.06.06c1.07.39,1.77.53,2.9.59,1.91.14,4.76.17,4.76,2.82,0,3.04-3.38,3.21-4.28,3.21-2.39,0-4.5-1.52-4.5-2.67,0-1.38,1.44-1.75,2.56-1.75s2.48.28,3.63.87c.03.03.06.06.06.11,0,.08-.03.14-.06.17-.23.23-.9.56-1.61.56-.82,0-1.94-.68-3.04-.68-.39,0-.87.08-.87.7,0,.7,1.27.7,2.28.7.54,0,4.42-.45,4.42-1.49,0-.99-2.96-1.41-4.17-1.44-3.24-.08-3.66-.42-3.66-1.6,0-2.65,5.35-2.84,5.6-2.84,1.41,0,2.67.25,3.6.48.2.03.31.11.31.42-.03.34-.31.53-.62.65-.23.06-.7.14-.93.17-.99.14-3.88.25-4.79.42-.93.14-1.32.25-1.61.42-.03.03-.06.08-.06.11Z" fill="#fff"/><path d="m293.84,54.26c-.54,0-1.15-.59-1.41-.93-.48-.73-.51-1.97-.51-2.84,0-2.42.48-4.39.96-5.88-1.92-.76-2.93-1.66-2.93-2.76,0-.37.14-1.1.56-1.24.37,0,.14.7.34.87.96.79,1.91,1.04,3.07,1.21.51-.48,1.32-1.69,2.7-1.69.76,0,1.94.23,1.94,2.28,0,1.6-2.28,1.89-3.27,1.89h-.17c-.48,1.8-.56,3.86-.56,5.71,0,1.1.03,2.17.06,3.1-.25.23-.37.28-.79.28Zm2.34-11.32c.45,0,1.3-.34,1.3-.7,0-.23-.17-.45-.42-.45-.56,0-1.29.39-1.32,1.1.14.03.28.06.45.06Z" fill="#fff"/><path d="m299.11,46.77c0-3.01,2.59-5.24,5.41-5.24.62,0,1.13.08,1.49.23.45.2.7.39.7.56,0,.23-.34.34-.59.37h.03c.62,0,1.32.14,1.92.53.48.31.84,1.49.84,2.25,0,3.46-3.72,5.77-7.09,5.91-.11.34-.45.59-.79.9-.56-.73-.84-1.41-.84-1.86v-.06c-.76-1.27-1.07-2.48-1.07-3.6Zm6.28-4c-.45.08-.87.2-1.24.31-2.37.56-3.41,2.56-3.41,4.28,0,.28.03.56.11.84,1.21-3.1,2.31-4.79,3.88-5.26.23-.06.42-.14.65-.17Zm-2.73,6.22h.37c1.49,0,4.31-1.72,4.31-3.69,0-.59-.45-.9-1.13-.9-1.49,0-2.51,1.8-3.55,4.59Zm2.73-6.22c.06-.03.08-.03.14-.03-.06,0-.08,0-.14.03Z" fill="#fff"/><path d="m310.76,51.56c-.62,0-1.35-.53-1.35-1.35.03-2.42.28-3.8,1.04-6.14.11-.42.68-.62,1.15-.62.39,0,.73.14.73.48-.56,2.36-.68,4.65-.84,6.95-.06.45-.37.68-.73.68Zm-.62-8.76c0-.68,1.77-1.35,2.53-1.35,3.38,0,5.35,1.49,5.35,4.22,0,.93-.51,1.72-1.24,2.28.73.82,1.24,1.89,1.83,2.9.08.14.11.34.11.48,0,.56-.48.99-.84.99-.11,0-.2-.03-.28-.11-.08-.11-1.44-2.03-2.51-3.38-.54.14-1.07.23-1.58.23-.9,0-1.52-.62-1.52-1.44,0-.53.87-1.04,1.58-1.04s1.29.14,1.8.37c.37-.45.62-.96.62-1.35,0-2.17-2.45-2.53-3.77-2.53-.56,0-1.07.34-1.52.37-.39-.2-.56-.42-.56-.62Zm4.2,5.12c-.34-.34-.42-.39-.79-.39-.34.03-.53.14-.53.31,0,.28.28.39.48.39.25,0,.48-.06.84-.31Z" fill="#fff"/><path d="m319.52,59.69c-1.13-.11-1.89-1.04-1.89-2.25,0-.53.45-3.58,2.03-7.35-.31-.68-.51-1.38-.51-2.06,0-2.9,2.82-6.33,3.38-6.39.39.06.45.28.45.79,0,.56-.34.93-1.21,2.25-.45.7-1.1,1.86-1.1,2.87,0,.11,0,.28.08.34h.06s.06-.03.11-.11c1.35-1.8,4.14-5.18,5.57-5.18s1.83,2.36,1.83,3.49c0,3.32-4.17,5.69-6.05,5.69-.2,0-.39.03-.62.06-1.1,3.21-1.29,4.59-2.06,7.63l-.08.23Zm6.31-11.63c.79-.68,1.21-1.6,1.21-2.76,0-.31,0-.79-.37-.79-.48,0-1.55,1.27-1.97,1.8-.31.42-1.44,2.56-1.63,3.04.96-.11,1.89-.53,2.76-1.3Z" fill="#fff"/></svg>