<?xml version="1.0" encoding="UTF-8"?><svg id="logos" xmlns="http://www.w3.org/2000/svg" width="250" height="61" viewBox="0 0 250 61"><g><path d="M86.11,7.53c0-1.75-.12-2.37-.5-2.99-.62-.97-1.75-1.28-4.85-1.28-5.36,0-6.37,.62-6.37,4.04,0,2.06,.5,3.07,1.79,3.49,.74,.27,1.09,.31,5.12,.5,4.58,.23,6.02,.5,7.26,1.4,1.44,1.09,1.98,2.68,1.98,5.78,0,3.77-.66,5.59-2.37,6.68-1.51,.93-3.38,1.2-8.35,1.2-4.08,0-5.51-.23-7.1-1.16-.97-.58-1.82-1.82-2.1-3.14-.23-1.16-.27-1.9-.31-4.04h3.88c0,2.33,.12,2.91,.58,3.73,.66,1.16,1.36,1.32,5.71,1.32,5.47,0,6.13-.5,6.13-4.62,0-1.94-.43-2.83-1.51-3.26q-.7-.27-5.2-.54c-4.7-.23-5.24-.35-6.56-.97-2.06-1.01-2.91-2.83-2.91-6.25,0-2.99,.62-4.89,1.98-5.9,1.55-1.16,3.49-1.51,8.11-1.51,5.12,0,7.14,.54,8.39,2.29,.74,1.09,1.09,2.48,1.09,4.46v.78h-3.88Z" fill="#fff"/><path d="M94.03,.23h10.64c4.54,0,5.47,.16,6.99,1.2,1.67,1.2,2.41,3.42,2.41,7.38s-1.05,6.44-3.38,7.41c-1.24,.54-1.4,.58-6.09,.66h-6.6v9.24h-3.96V.23Zm10.21,13.24c5.05,0,5.82-.66,5.82-4.74,0-3.07-.35-4.23-1.48-4.74-.7-.35-1.36-.43-3.65-.43h-6.95V13.47h6.25Z" fill="#fff"/><path d="M135.21,.85c2.25,.97,3.49,2.87,3.96,6.02,.19,1.16,.23,2.37,.23,5.82,0,5.2-.08,6.25-.47,8.15-.5,2.25-1.75,3.8-3.65,4.62-1.67,.7-3.26,.89-6.99,.89-4.27,0-5.75-.19-7.45-.93-1.86-.82-3.03-2.33-3.53-4.54-.43-1.82-.5-2.83-.5-7.69,0-6.25,.23-7.92,1.4-9.86,.93-1.55,2.52-2.6,4.7-3.03,.93-.19,3.07-.31,5.36-.31,3.8,0,5.43,.19,6.95,.85Zm.19,12.27v-3.61c0-2.83-.62-4.7-1.79-5.4-.97-.58-2.06-.7-5.94-.7-4.54,0-5.67,.43-6.4,2.52-.43,1.28-.47,1.75-.47,7.26q0,4.81,.19,6.13c.27,1.67,.89,2.68,2.02,3.11,.97,.39,2.02,.5,5.12,.5,3.53,0,4.7-.16,5.59-.82,1.05-.74,1.67-2.72,1.67-5.4v-3.61Z" fill="#fff"/><path d="M143.33,.23h12.54c5.94,0,8,1.98,8,7.57,0,4.97-.97,6.44-4.58,7.1v.12c2.83,.16,4.31,1.9,4.27,5.01v6.09h-4v-5.24c.08-3.07-1.28-4.35-4.39-4.23h-7.88v9.47h-3.96V.23Zm11.65,13c1.75,0,2.87-.23,3.61-.78,1.01-.7,1.28-1.55,1.28-3.8,0-3.03-.27-3.92-1.4-4.54-.58-.31-1.55-.47-2.83-.47h-8.35V13.24h7.69Z" fill="#fff"/><path d="M177.92,26.12h-3.96V3.8h-7.92V.23h19.91V3.84l-8.04-.04V26.12Z" fill="#fff"/><path d="M203.73,7.53c0-1.75-.12-2.37-.5-2.99-.62-.97-1.75-1.28-4.85-1.28-5.36,0-6.37,.62-6.37,4.04,0,2.06,.5,3.07,1.79,3.49,.74,.27,1.09,.31,5.12,.5,4.58,.23,6.02,.5,7.26,1.4,1.44,1.09,1.98,2.68,1.98,5.78,0,3.77-.66,5.59-2.37,6.68-1.51,.93-3.38,1.2-8.35,1.2-4.08,0-5.51-.23-7.1-1.16-.97-.58-1.82-1.82-2.1-3.14-.23-1.16-.27-1.9-.31-4.04h3.88c0,2.33,.12,2.91,.58,3.73,.66,1.16,1.36,1.32,5.71,1.32,5.47,0,6.13-.5,6.13-4.62,0-1.94-.43-2.83-1.51-3.26q-.7-.27-5.2-.54c-4.7-.23-5.24-.35-6.56-.97-2.06-1.01-2.91-2.83-2.91-6.25,0-2.99,.62-4.89,1.98-5.9,1.55-1.16,3.49-1.51,8.11-1.51,5.12,0,7.14,.54,8.39,2.29,.74,1.09,1.09,2.48,1.09,4.46v.78h-3.88Z" fill="#fff"/><path d="M86.06,41.52c0-1.75-.12-2.37-.5-2.99-.62-.97-1.75-1.28-4.85-1.28-5.36,0-6.37,.62-6.37,4.04,0,2.06,.5,3.07,1.79,3.49,.74,.27,1.09,.31,5.12,.5,4.58,.23,6.02,.5,7.26,1.4,1.44,1.09,1.98,2.68,1.98,5.78,0,3.77-.66,5.59-2.37,6.68-1.51,.93-3.38,1.2-8.35,1.2-4.08,0-5.51-.23-7.1-1.16-.97-.58-1.82-1.82-2.1-3.14-.23-1.16-.27-1.9-.31-4.04h3.88c0,2.33,.12,2.91,.58,3.73,.66,1.16,1.36,1.32,5.71,1.32,5.47,0,6.13-.5,6.13-4.62,0-1.94-.43-2.83-1.51-3.26q-.7-.27-5.2-.54c-4.7-.23-5.24-.35-6.56-.97-2.06-1.01-2.91-2.83-2.91-6.25,0-2.99,.62-4.89,1.98-5.9,1.55-1.16,3.49-1.51,8.11-1.51,5.12,0,7.14,.54,8.39,2.29,.74,1.09,1.09,2.48,1.09,4.46v.78h-3.88Z" fill="#fff"/><path d="M115.45,60.11h-3.96v-11.53h-13.55v11.53h-3.96v-25.89h3.96v10.99h13.55v-10.99h3.96v25.89Z" fill="#fff"/><path d="M137.77,34.84c2.25,.97,3.49,2.87,3.96,6.02,.19,1.16,.23,2.37,.23,5.82,0,5.2-.08,6.25-.47,8.15-.5,2.25-1.75,3.8-3.65,4.62-1.67,.7-3.26,.89-6.99,.89-4.27,0-5.75-.19-7.45-.93-1.86-.82-3.03-2.33-3.53-4.54-.43-1.82-.5-2.83-.5-7.69,0-6.25,.23-7.92,1.4-9.86,.93-1.55,2.52-2.6,4.7-3.03,.93-.19,3.07-.31,5.36-.31,3.8,0,5.43,.19,6.95,.85Zm.19,12.27v-3.61c0-2.83-.62-4.7-1.79-5.4-.97-.58-2.06-.7-5.94-.7-4.54,0-5.67,.43-6.4,2.52-.43,1.28-.47,1.75-.47,7.26q0,4.81,.19,6.13c.27,1.67,.89,2.68,2.02,3.11,.97,.39,2.02,.5,5.12,.5,3.53,0,4.7-.16,5.59-.82,1.05-.74,1.67-2.72,1.67-5.4v-3.61Z" fill="#fff"/><path d="M166.89,34.22v17.66c0,3.14-.35,4.66-1.32,5.94-1.55,1.98-3.53,2.52-9.32,2.52-3.65,0-5.24-.19-6.64-.74-2.87-1.16-3.77-2.95-3.77-7.57v-17.82h3.96v17.82c0,1.79,.16,2.76,.5,3.34,.66,1.16,2.14,1.55,5.86,1.55,6.02,0,6.75-.54,6.75-5.01v-17.7h3.96Z" fill="#fff"/><path d="M181.52,60.11h-3.96v-22.32h-7.92v-3.57h19.91v3.61l-8.04-.04v22.32Z" fill="#fff"/><path d="M196.31,60.11h-3.96v-25.89h3.96v25.89Z" fill="#fff"/><path d="M224.14,60.11h-6.64l-9.08-15.84c-.47-.85-.93-1.79-2.6-5.01l-.82-1.63h-.16l.04,1.32,.04,1.36c.04,.08,.04,1.44,.04,2.72v17.08h-3.92v-25.89h6.6l8.04,14.25c.89,1.59,1.36,2.45,3.38,6.21l1.09,2.06h.12v-1.32l-.04-1.32c-.04-.19-.04-1.48-.04-2.68v-17.2h3.96v25.89Z" fill="#fff"/><path d="M249.92,46.8c.08,1.24,.08,1.59,.08,3.14,0,4.7-.16,5.94-.97,7.38-.7,1.24-1.79,2.1-3.34,2.52-1.13,.35-3.3,.5-6.75,.5-3.65,0-5.16-.19-6.72-.82-2.02-.82-3.11-2.06-3.77-4.31-.39-1.24-.5-2.64-.5-5.59,0-7.26,.04-7.92,.47-9.94,.62-2.83,2.17-4.54,4.74-5.24,1.16-.35,2.76-.47,6.02-.47,5.55,0,6.68,.16,8.46,1.24,.97,.62,1.75,1.79,2.02,3.07,.19,1.01,.27,1.75,.27,3.57h-3.96c-.12-4.19-.62-4.5-7.14-4.5-4.08,0-5.51,.43-6.21,1.94-.54,1.2-.66,2.64-.66,7.76,0,5.51,.12,6.79,.66,7.96,.7,1.51,2.21,1.94,6.87,1.94,3.11,0,4.5-.19,5.36-.82,.82-.54,1.2-2.21,1.2-5.01,0-.19,0-.7-.04-1.24h-7.34v-3.11h11.26Z" fill="#fff"/></g><path d="M29.94,.23C13.4,.23,0,13.64,0,30.17s13.4,29.94,29.94,29.94,29.94-13.4,29.94-29.94S46.48,.23,29.94,.23Zm16.83,48.26c-1.56,.96-3.49,1.24-8.62,1.24-4.21,0-5.69-.24-7.33-1.2-1-.6-1.88-1.88-2.16-3.25-.24-1.2-.28-1.96-.32-4.17h4.01c0,2.4,.12,3.01,.6,3.85,.68,1.2,1.4,1.36,5.89,1.36,5.65,0,6.33-.52,6.33-4.77,0-2-.44-2.93-1.56-3.37q-.72-.28-5.37-.56c-4.85-.24-5.41-.36-6.77-1-.45-.22-.84-.48-1.18-.79-.11,.09-.23,.17-.35,.24-1.56,.96-3.49,1.24-8.62,1.24-4.21,0-5.69-.24-7.33-1.2-1-.6-1.88-1.88-2.16-3.25-.24-1.2-.28-1.96-.32-4.17h4.01c0,2.4,.12,3.01,.6,3.85,.68,1.2,1.4,1.36,5.89,1.36,5.65,0,6.33-.52,6.33-4.77,0-2-.44-2.93-1.56-3.37q-.72-.28-5.37-.56c-4.85-.24-5.41-.36-6.77-1-2.12-1.04-3.01-2.93-3.01-6.45,0-3.09,.64-5.05,2.04-6.09,1.6-1.2,3.61-1.56,8.38-1.56,5.29,0,7.37,.56,8.66,2.36,.76,1.12,1.12,2.56,1.12,4.61v.8h-4.01c0-1.8-.12-2.44-.52-3.09-.64-1-1.8-1.32-5.01-1.32-5.53,0-6.57,.64-6.57,4.17,0,2.12,.52,3.17,1.84,3.61,.76,.28,1.12,.32,5.29,.52,4.73,.24,6.21,.52,7.49,1.44,.23,.17,.43,.36,.62,.56,1.54-.96,3.59-1.26,7.93-1.26,5.29,0,7.37,.56,8.66,2.36,.76,1.12,1.12,2.56,1.12,4.61v.8h-4.01c0-1.8-.12-2.44-.52-3.09-.64-1-1.8-1.32-5.01-1.32-5.53,0-6.57,.64-6.57,4.17,0,2.12,.52,3.17,1.84,3.61,.76,.28,1.12,.32,5.29,.52,4.73,.24,6.21,.52,7.49,1.44,1.48,1.12,2.04,2.77,2.04,5.97,0,3.89-.68,5.77-2.44,6.89Z" fill="#fff"/></svg>