<?xml version="1.0" encoding="UTF-8"?><svg id="b" xmlns="http://www.w3.org/2000/svg" viewBox="0 0 170 148"><path d="M15.23,69.76h13.48v19.43c0,9.8-4.9,15.41-14.36,15.41S0,99,0,89.2v-31.86c0-9.8,4.9-15.41,14.36-15.41s14.36,5.6,14.36,15.41v5.95h-9.1v-6.57c0-4.38-1.93-6.04-4.99-6.04s-4.99,1.66-4.99,6.04v33.09c0,4.38,1.93,5.95,4.99,5.95s4.99-1.58,4.99-5.95v-11.29h-4.38v-8.75Z" fill="#fff"/><path d="M66,103.9h-9.72l-1.66-11.12h-11.82l-1.66,11.12h-8.84l9.8-61.28h14.09l9.8,61.28ZM44.03,84.47h9.28l-4.64-30.99-4.64,30.99Z" fill="#fff"/><path d="M99.27,56.72v2.19c0,6.3-1.93,10.33-6.22,12.34,5.16,2.01,7.18,6.65,7.18,13.13v4.99c0,9.45-4.99,14.53-14.62,14.53h-15.14v-61.28h14.53c9.98,0,14.27,4.64,14.27,14.09ZM80.1,51.38v16.19h3.76c3.59,0,5.78-1.58,5.78-6.48v-3.41c0-4.38-1.49-6.3-4.9-6.3h-4.64ZM80.1,76.33v18.82h5.51c3.24,0,4.99-1.49,4.99-6.04v-5.34c0-5.69-1.84-7.44-6.22-7.44h-4.29Z" fill="#fff"/><path d="M134.81,56.72v2.19c0,6.3-1.93,10.33-6.22,12.34,5.16,2.01,7.18,6.65,7.18,13.13v4.99c0,9.45-4.99,14.53-14.62,14.53h-15.14v-61.28h14.53c9.98,0,14.27,4.64,14.27,14.09ZM115.64,51.38v16.19h3.76c3.59,0,5.78-1.58,5.78-6.48v-3.41c0-4.38-1.49-6.3-4.9-6.3h-4.64ZM115.64,76.33v18.82h5.51c3.24,0,4.99-1.49,4.99-6.04v-5.34c0-5.69-1.84-7.44-6.22-7.44h-4.29Z" fill="#fff"/><path d="M140.76,57.33c0-9.8,5.16-15.41,14.62-15.41s14.62,5.6,14.62,15.41v31.86c0,9.8-5.16,15.41-14.62,15.41s-14.62-5.6-14.62-15.41v-31.86ZM150.39,89.81c0,4.38,1.93,6.04,4.99,6.04s4.99-1.66,4.99-6.04v-33.09c0-4.38-1.93-6.04-4.99-6.04s-4.99,1.66-4.99,6.04v33.09Z" fill="#fff"/><path d="M63.49.13h12.89v3.79h-4.36v22.74h-4.17V3.92h-4.36V.13Z" fill="#fff"/><path d="M82.37,26.66h-4.17V.13h4.17v11.37h4.74V.13h4.25v26.53h-4.25v-11.37h-4.74v11.37Z" fill="#fff"/><path d="M98.55,11.31h5.72v3.79h-5.72v7.77h7.2v3.79h-11.37V.13h11.37v3.79h-7.2v7.39Z" fill="#fff"/><path d="M58.77,120.73c4.06,0,6.14,2.43,6.14,6.67v.83h-3.94v-1.1c0-1.9-.76-2.62-2.08-2.62s-2.08.72-2.08,2.62c0,5.46,8.15,6.48,8.15,14.06,0,4.25-2.12,6.67-6.22,6.67s-6.22-2.43-6.22-6.67v-1.63h3.94v1.9c0,1.9.83,2.58,2.16,2.58s2.16-.68,2.16-2.58c0-5.46-8.15-6.48-8.15-14.06,0-4.25,2.08-6.67,6.14-6.67Z" fill="#fff"/><path d="M71.51,147.57h-4.17v-26.53h4.17v11.37h4.74v-11.37h4.25v26.53h-4.25v-11.37h-4.74v11.37Z" fill="#fff"/><path d="M83.18,127.4c0-4.25,2.24-6.67,6.33-6.67s6.33,2.43,6.33,6.67v13.8c0,4.25-2.24,6.67-6.33,6.67s-6.33-2.43-6.33-6.67v-13.8ZM87.35,141.47c0,1.9.83,2.62,2.16,2.62s2.16-.72,2.16-2.62v-14.33c0-1.9-.83-2.62-2.16-2.62s-2.16.72-2.16,2.62v14.33Z" fill="#fff"/><path d="M107.78,133.43l-1.52,14.14h-5.72l-2.96-26.53h4.06l2.24,20.92,2.01-20.92h4.02l2.08,21.08,2.16-21.08h3.64l-2.96,26.53h-5.53l-1.52-14.14Z" fill="#fff"/></svg>