<?xml version="1.0" encoding="UTF-8"?><svg id="logos" xmlns="http://www.w3.org/2000/svg" width="180" height="152" viewBox="0 0 180 152"><g id="b1aqTu.tif"><g><path d="M46.61,56.93c.08,.23,.15,.45,.22,.68-.1,.18-.1,.33,.14,.39,.94,2.8,2,5.53,4.15,7.68,.81,.81,1.02,1.98,1.59,2.94,.77,1.29,1.77,2.27,3.38,2.13,1.54-.14,2.96-.74,4.24-1.62,1.67-1.13,3.33-2.28,4.78-3.69,.51-.5,1.01-.94,1.26-1.65,.32-.9,.88-1.16,1.81-.97,.11,.02,.24,.05,.34,.1,2.29,1.34,4.87,1.67,7.4,2.21,1.61,.34,1.94,1.03,1.27,2.54-.55,1.25-.87,2.54-1.1,3.88-.34,1.95-1.21,3.62-3.16,4.49-1.91,.85-3.1,2.2-2.97,4.44,.02,.25-.05,.55-.18,.76-1.25,2.01-2.9,3.54-5.28,4.11-.92,.22-1.83,.05-2.71-.17-1.69-.43-3.39-.31-5.09-.16-1.23,.11-2.46,.13-3.7,.13-2.07,.01-3.38-1.17-4.46-2.73-1.46-2.1-2.91-4.2-4.46-6.25-1.22-1.62-3.02-2.51-4.6-3.66-.36-.26-.71-.54-1.1-.73-1.13-.55-1.39-1.52-1.37-2.64,.02-.91,.01-1.83,.11-2.73,.19-1.79-.16-3.44-1.07-4.99-.54-.94-1.06-1.89-1.54-2.86-.18-.37-.35-.75-.78-.7-.44,.05-.58,.51-.61,.88-.1,1.26-.3,2.51-.68,3.72-.72,2.3-.38,4.53,.3,6.76,.29,.96,.49,1.94,.47,2.95-.02,1.2-.45,1.73-1.63,1.72-1.4,0-2.61,.45-3.69,1.27-1.38,1.04-2.95,1.45-4.63,1.47-1.77,.02-3.53-.02-5.3-.06-.92-.02-1.2-.33-1.03-1.21,.5-2.61,.32-5.22,.05-7.82-.3-2.93-.01-5.82,.47-8.69,.31-1.86,.76-3.69,1.07-5.54,.15-.89,.17-1.82-.11-2.71-.45-1.42-.57-2.88-.61-4.35-.07-2.09-.84-4.1-.64-6.22,.05-.53,.03-1.08,.27-1.56,1.04-2.13,1.15-4.48,1.73-6.72,.39-1.54,.94-3.03,.87-4.66-.05-1.3-.42-1.75-1.71-1.64-1.64,.14-3.22-.08-4.81-.41-2.46-.5-4.8-.18-6.98,1.1-.25,.15-.51,.3-.79,.38-.57,.15-1.04,.01-1.05-.68-.04-2.28-.72-4.39-1.65-6.44-.38-.85-.25-1.66,.35-2.3,1.63-1.75,1.72-3.87,1.5-6.05-.16-1.55-.47-3.08-.7-4.62-.31-2.12-.03-2.43,2.11-2.31,1.51,.08,2.97,.46,4.42,.82,2.25,.55,4.51,.83,6.82,.65,1.18-.09,2.34,.04,3.42,.62,2.83,1.51,5.9,2.14,9.06,2.44,1.58,.15,3.12-.07,4.63-.5,1.43-.41,2.77-.41,4.2,.22,2.07,.9,4.15,1.85,6.43,2.14,.61,.08,1.23,.14,1.85,.12,1.28-.05,2.12,.58,2.69,1.65,.67,1.25,1.2,2.56,1.53,3.94,.29,1.21,.64,2.39,1.35,3.43,.27,.39,.39,.86,.49,1.32,.5,2.27,.97,4.55,.87,6.9-.06,1.26,.16,2.45,.64,3.62,.42,1.02,.4,2-.34,2.9-.47,.57-.65,1.24-.64,1.97,0,.53-.03,1.06-.02,1.59,.04,1.18-.41,2.05-1.54,2.51-.27,.11-.54,.27-.74,.48-1.69,1.76-3.72,3.17-5.24,5.1-.4,.51-.88,.94-1.44,1.29-.91,.58-1.13,1.23-.86,2.27,.61,2.34,1.29,4.65,2.39,6.81-.07,.28,0,.49,.3,.57Zm-15.16-19.09c0,.23-.07,.6,.29,.77,.34,.16,.52-.16,.74-.34,.2-.17,.39-.41,.63-.48,2.25-.68,3.95-2.29,5.95-3.4,.44-.24,.98-.57,.98-1.06,0-1.01,.38-1.96,.38-2.95,0-.69,.11-1.32,.44-1.94,.57-1.06,.36-2.03-.65-2.69-2-1.31-4.31-1.83-6.59-2.38-.77-.19-1.1,.44-1.25,1.08-.26,1.12-.37,2.27-.17,3.41,.16,.96,.08,1.88-.37,2.75-.41,.79-.51,1.63-.4,2.49,.2,1.55,.24,3.1,.02,4.75Z" fill="#fff"/><path d="M8.27,130.82c.09-1.4,.33-2.81,0-4.22-.15-.63-.28-1.26-.58-1.84-.93-1.77-1.03-3.69-.77-5.6,.31-2.28-.2-4.38-.94-6.48-.36-1.03-.82-2.02-1.17-3.04-.52-1.51-.27-3.1-.15-4.64,.23-2.99,.18-5.89-1.11-8.73-.62-1.36-1.18-2.74-1.88-4.06-.79-1.5-.56-3.11-.35-4.67,.21-1.56,.4-3.08-.02-4.63-.25-.95-.79-1.77-1.04-2.71-.08-.3-.39-.6-.11-.9,.26-.27,.61-.09,.93-.03,.75,.14,1.51,.25,2.25,.45,1.49,.42,3.01,.54,4.55,.5,.65-.02,1.2,.17,1.71,.58,1.7,1.37,3.6,2.17,5.84,2.1,1.2-.04,1.16,.09,1.1,1.28-.21,3.79-.27,7.59-.17,11.38,.02,.75,.47,1.33,.98,1.83,.74,.72,1.05,1.57,1.06,2.61,0,2.85,.58,5.68,.42,8.54-.03,.5,.15,.98,.38,1.44,1.04,2.05,1.88,4.19,2.56,6.38,.08,.26,.08,.66,.47,.65,.39,0,.36-.41,.43-.67,.52-1.9,1-3.81,1.55-5.7,.42-1.45,.24-2.85-.17-4.26-.51-1.74-.61-3.45,.05-5.19,.7-1.84,.99-3.82,1.9-5.59,.22-.42,.42-.85,.75-1.19,1.85-1.89,2.58-4.3,3.26-6.75,.86-3.09,1.69-6.18,2.35-9.32,.07-.33,.25-.59,.46-.84,.61-.73,1.06-.78,1.36,.07,.65,1.87,2,2.49,3.78,2.48,1.2,0,1.97,.83,2.88,1.35,.71,.41,1.36,.92,2.16,1.17,.45,.14,.86,.36,1.24,.66,.78,.62,.93,.94,.3,1.65-1.34,1.51-2.07,3.36-2.83,5.15-.87,2.07-1.65,4.2-2.22,6.39-.18,.7-.12,1.4-.06,2.1,.15,1.61-.53,3.03-1.25,4.33-1.87,3.4-2.24,7.02-1.92,10.77,.21,2.49-.03,4.86-1,7.21-.7,1.68-.92,3.56-1.43,5.33-.35,1.24-.74,2.46-1.03,3.72-.29,1.28-.43,2.55-.32,3.85,.1,1.25-.21,2.36-.85,3.43-.34,.57-.59,1.21-.82,1.84-.76,2.13-1.44,4.26-1,6.61,.21,1.14,.06,2.35,.04,3.53-.01,.8-.52,1.14-1.23,.79-1.83-.91-3.76-1.31-5.79-1.28-.3,0-.69,.04-.83-.2-.57-.9-1.24-.8-2.04-.36-.2,.11-.52,.03-.78-.01-1.22-.21-2.45-.33-3.69-.29-.59,.02-.96-.2-1.01-.83-.04-.55-.3-.99-.7-1.38-.58-.55-.36-1.39-.66-2.06-.25-.56-.41-1.16-.67-1.72-.6-1.31-1.2-2.61-1.43-4.06-.21-1.33-.92-2.47-1.65-3.58-.67-1-1.13-2.07-1.04-3.31Z" fill="#fff"/><path d="M133.72,137.48c-.6,0-1.25,0-1.89,0-.55,0-.81-.29-.76-.84,.22-2.18-.2-4.33-.31-6.5-.12-2.42,.41-4.8,.74-7.18,.17-1.2,.13-2.38-.11-3.59-.36-1.81-.4-3.67-.83-5.48-.11-.48-.11-1.02,.1-1.48,.94-2.07,.9-4.37,1.56-6.51,.09-.3,.1-.64,.1-.96,.01-1.18-.2-1.41-1.38-1.35-.92,.05-1.82-.08-2.71-.28-1.66-.38-3.21-.09-4.67,.76-.98,.57-1.27,.41-1.38-.72-.11-1.12-.38-2.2-.95-3.19-.37-.63-.63-1.34-.11-1.99,1.29-1.6,1.01-3.42,.82-5.23-.09-.85-.23-1.69-.34-2.53-.09-.63,.2-.95,.82-.98,1.04-.05,2.06,.11,3.07,.31,1.68,.34,3.35,.66,5.08,.44,1.37-.18,2.49,.6,3.7,1,2.53,.85,5.11,1.27,7.7,.42,1.51-.49,2.71,.22,3.98,.67,1.28,.45,2.52,.97,3.92,.91,.66-.03,.9,.39,.84,.97-.19,1.63,.27,3.13,.81,4.64,.39,1.09,1.11,1.93,1.77,2.82,.9,1.2,1.6,2.46,1.67,4,0,.2,.05,.42,.13,.6,.57,1.17,.46,2.27-.27,3.34-.19,.28-.31,.64-.38,.98-.16,.77-.61,1.32-1.22,1.78-1.6,1.21-3.16,2.45-4.13,4.28-.09,.18-.27,.31-.4,.47-.5,.58-1.32,.99-1.15,1.96,.24,1.39,.38,2.84,1.63,3.78,.79,.6,1.3,1.34,1.42,2.34,.06,.52,.22,1.04,.25,1.57,.16,2.93,2.03,4.87,3.94,6.76,1.54,1.52,3.92,1,4.81-.96,.26-.57,.65-1.01,1.13-1.43,1.02-.88,2.09-1.71,2.79-2.91,.36-.63,.98-.51,1.49-.29,1.41,.63,2.9,.94,4.42,1.18,1.37,.22,1.64,.75,1.13,2.03-.31,.8-.55,1.61-.63,2.47-.13,1.37-.93,2.35-2.09,2.99-1.1,.6-1.72,1.37-1.81,2.68-.13,1.98-2.72,3.84-4.86,3.54-1.62-.23-3.23-.26-4.83,.01-2.51,.43-4.09-.84-5.26-2.84-1.45-2.47-3.45-4.38-5.95-5.75-.71-.39-1-.96-1.01-1.72,0-.47-.06-.95,0-1.41,.27-2.12-.71-3.82-1.78-5.5-.1-.15-.2-.31-.4-.3-.28,.01-.45,.23-.47,.46-.15,1.88-1.02,3.71-.41,5.66,.26,.84,.5,1.69,.57,2.58,.09,1.11-.16,1.49-1.24,1.59-.72,.07-1.31,.38-1.86,.76-1.44,1.02-3.03,1.4-4.81,1.19Zm6.3-26.48c0,.46,.14,.78,.84,.54,1.62-.55,2.91-1.62,4.27-2.59,.33-.24,.4-.61,.46-1,.13-.89,.13-1.81,.47-2.67,.42-1.04,.18-1.7-.84-2.14-.91-.39-1.87-.7-2.81-1.01-1.6-.53-2.08-.17-2.11,1.55,0,.62,.02,1.23,.03,1.85,0,.41,.01,.83-.18,1.21-.31,.61-.29,1.26-.18,1.89,.14,.76,.25,1.5,.06,2.39Z" fill="#fff"/><path d="M122.81,10.86c1.35,.09,2.7-.11,4.06-.03,1.29,.07,1.48,.27,1.19,1.48-.27,1.12-.28,2.22,.06,3.31,.37,1.17-.04,2.41,.34,3.59,.12,.37-.24,.41-.49,.47-1.4,.35-2.78,.7-4.25,.6-1.11-.08-2.24,0-3.35,.05-1.16,.05-1.65,.57-1.8,1.74-.21,1.69,.1,3.45-.52,5.07-.78,2.06-.02,4.07,.08,6.1,.04,.77,.03,1.55-.12,2.28-1.06,5.09-1.18,10.27-1.69,15.42-.17,1.75,.21,3.4,.9,4.98,.95,2.2,3,2.77,5.12,1.45,1.92-1.19,3.49-2.79,5-4.43,.54-.58,1.1-1.14,1.64-1.73,.5-.54,1.05-.52,1.59-.19,1.62,1,3.34,1.86,4.76,3.16,1.05,.97,1.2,1.56,.39,2.74-1.48,2.15-3.38,3.9-5.27,5.67-1.98,1.86-4.4,2.94-6.82,3.96-2.24,.95-4.56,.66-6.82-.13-1.14-.4-2.27-.82-3.4-1.25-.45-.17-.91-.31-1.38-.24-1.07,.16-1.81-.34-2.41-1.14-2.06-2.7-3.75-5.53-3.91-9.07-.16-3.51-.16-6.99,.47-10.46,.03-.14,.02-.31,.08-.43,1.16-2.23,.6-4.39-.19-6.57-.56-1.55-.44-3.05,.39-4.51,.75-1.31,.99-2.77,1.03-4.25,.05-2.09,.03-4.18,.02-6.27,0-1.06-.28-1.21-1.31-1.54-3.21-1.02-6.35-.27-9.52,.15-.87,.12-1.76,.15-2.64,.2-.67,.05-.99-.24-.89-.95,.1-.68-.01-1.34-.23-2-.6-1.76-.64-3.58-.56-5.41,.04-1.09,.2-1.26,1.3-1.35,2.7-.22,5.41-.16,8.12-.25,1.91-.06,3.82-.23,5.73-.33,.56-.03,.84-.3,.93-.86,.19-1.17,.13-2.35,.15-3.52,.03-1.73-.14-3.47,.15-5.2,.11-.63,.42-.91,.99-1.06,.64-.16,1.29-.14,1.93-.14,1.65,0,3.3,.03,4.94,.02,.73,0,1.06,.34,1.1,1.07,.09,1.65,.06,3.3-.08,4.94-.1,1.18-.09,2.35-.05,3.53,.04,1.07,.38,1.33,1.44,1.31,1.26-.02,2.53,0,3.79,0Z" fill="#fff"/><path d="M147.57,35.86c.09-2.06-.03-4.12-.25-6.17-.14-1.29-.04-2.59,.19-3.87,.1-.58,.23-1.19,.05-1.75-.22-.68,.11-.73,.63-.76,2.09-.1,4.17-.19,6.25-.36,1.11-.09,2.21-.33,3.31-.53,.42-.08,.7-.07,.71,.46,.1,4.81,.7,9.62-.1,14.44-.62,3.76-1.94,7.24-3.58,10.64-1.54,3.21-3.07,6.42-3.38,10.06-.08,.98-.78,1.77-1.28,2.59-1.33,2.18-2.6,4.39-3.8,6.65-.12,.23-.23,.49-.47,.62-1.8,1-3.12,2.58-4.65,3.9-2.43,2.09-4.77,4.27-7.39,6.14-1.43,1.02-2.63,2.35-3.92,3.55-1.49,1.38-3,2.72-4.79,3.72-1.9,1.05-3.07,.92-4.37-.79-.96-1.27-2.17-2.12-3.53-2.84-.68-.36-1.32-.77-1.86-1.33-.47-.49-.58-.96-.02-1.52,.76-.76,1.54-1.42,2.6-1.75,1.68-.52,2.84-1.69,3.85-3.09,1.09-1.51,2.52-2.63,4.27-3.29,1.53-.58,2.93-1.37,4.07-2.55,1.7-1.75,3.61-3.28,5.29-5.06,2.03-2.16,3.46-4.57,3.74-7.6,.09-1.02,.38-2.01,.34-3.06-.03-.69-.27-1.24-.86-1.54-1.56-.78-2.43-2.09-2.99-3.65-.4-1.13-1.12-2.01-2.05-2.7-1.14-.86-1.92-1.96-2.48-3.25-.95-2.19-2.41-4.03-4.03-5.75-1.13-1.2-2.26-2.4-3.44-3.55-.63-.62-.47-1.01,.18-1.45,1.71-1.16,3.49-2.19,5.34-3.08,.85-.41,1.69-.84,2.33-1.56,.58-.63,1.15-.48,1.69,0,.84,.77,1.37,1.75,1.86,2.76,.59,1.21,.99,2.55,1.99,3.51,.91,.88,1.82,1.75,2.53,2.81,.26,.39,.53,.79,.69,1.22,.71,2.04,2.03,3.63,3.64,4.99,.7,.59,1.52,1.31,2.53,.85,.98-.45,1.08-1.5,1.12-2.44,.06-1.2,.01-2.41,.01-3.62Z" fill="#fff"/><path d="M72.67,122.17c-.5,1.16-.4,2.41-.45,3.62-.09,2.53-.08,5.06-.28,7.58-.02,.26,0,.53,.02,.79,.11,1.34-.26,1.64-1.62,1.35-.73-.16-1.39-.48-2.04-.81-1.28-.65-2.58-.72-3.94-.38-.23,.06-.45,.13-.69,.16-1.87,.29-2.02-.29-1.52-1.54,.06-.16,.09-.35,.08-.52-.02-1.26,.01-2.5,.43-3.73,.39-1.15-.31-2.24-.49-3.35-.16-.94-.15-1.87-.14-2.81,0-.23,.02-.54,.16-.67,1.16-1.09,1.02-2.57,1.23-3.94,.08-.55,.19-1.1,.21-1.66,.04-1.19,.16-2.36-.82-3.38-.79-.82-.52-1.96-.29-2.94,.88-3.74,1.38-7.51,1.25-11.35-.05-1.32,.05-1.42,1.31-1.16,1.92,.4,3.78,.25,5.64-.38,1.53-.52,1.76-.31,1.98,1.28,.28,2.08,.26,4.16,.13,6.24-.05,.79,.18,1.46,.75,1.99,1,.91,1.71,2.01,2.3,3.2,.13,.27,.28,.58,.63,.51,.39-.07,.3-.45,.35-.73,.31-1.79,.46-3.62,.91-5.38,.21-.81,.21-1.63,.23-2.45,.02-1,.31-1.19,1.27-.88,1.03,.34,2.06,.72,3.09,1.05,1.23,.39,2.48,.38,3.75,.13,.6-.12,1.22-.24,1.83-.23,.89,.01,1.31,.5,1.06,1.31-.7,2.33-.55,4.78-1.1,7.13-.14,.61-.03,1.22,.16,1.82,.53,1.69,.53,3.38,.14,5.13-.57,2.58-.97,5.2-1.43,7.8-.08,.43-.1,.91,.1,1.31,.51,1.02,.44,2.1,.44,3.19,0,2.06,.06,4.11,.44,6.15,.29,1.56-.17,2.1-1.76,2.26-.29,.03-.59,.03-.88,.02-1.7-.09-3.34,.12-4.95,.69-.95,.34-1.4,.03-1.71-.93-.42-1.29-.41-2.67-.86-3.96-.71-1.99-1.44-3.93-2.94-5.52-1.19-1.26-1.28-2.98-1.52-4.61-.07-.48-.16-.96-.23-1.44l-.25,.03Z" fill="#fff"/><path d="M85.19,55.33c.79,0,1.59-.03,2.38,0,2.68,.13,2.57,.91,2.57,2.98,0,.99-.26,1.97-.1,2.99,.32,1.97,1.3,2.51,3.06,1.66,1.22-.59,1.81-1.48,1.76-2.87-.07-2.01-.56-3.95-.72-5.95-.14-1.69-1.39-2.72-2.77-3.55-.68-.41-1.36-.83-2.07-1.17-2.74-1.32-4.42-3.83-6.53-5.84-.42-.4-.56-.94-.51-1.54,.17-1.76,.48-3.5,.86-5.21,.35-1.61,.68-3.22,.75-4.87,.04-1.07,.38-1.92,1.28-2.67,1.37-1.14,2.69-2.4,3.79-3.82,1.08-1.4,2.32-2.04,4.12-1.6,2.08,.51,4.19,.59,6.26-.18,.58-.21,.6,.23,.69,.61,.44,1.82,.8,3.66,.81,5.54,0,1.05,.4,1.99,1.11,2.72,1.53,1.57,1.22,3.37,.8,5.21-.11,.47-.41,.77-.85,.94-1.76,.7-3.55,.71-5.37,.31-.44-.1-.57-.45-.65-.85-.21-1.08-.14-2.17-.15-3.26-.03-1.74-.32-2.08-2.01-2.13-.43-.01-.79-.19-1.18-.34-.71-.28-1.07-.07-1.15,.69-.05,.47-.09,.95-.02,1.41,.21,1.31-.15,2.65,.17,3.94,.48,1.93,1.64,3.45,3.15,4.68,2.38,1.93,4.46,4.19,6.84,6.1,1.37,1.1,1.79,2.45,2,4.01,.19,1.4,.38,2.8,.63,4.18,.23,1.3,.17,2.56-.59,3.65-.87,1.24-1.15,2.62-1.26,4.07-.07,.79-.33,1.47-.86,2.07-1.7,1.94-3.71,3.51-5.87,4.9-1.59,1.02-3.16,.77-4.66-.12-1.08-.65-2.12-1.39-3.05-2.24-1.57-1.43-3.25-2.71-4.92-4.01-1.01-.78-1.75-1.76-1.81-3.1-.09-2.06-.22-4.11,.07-6.16,.11-.8,.51-1.2,1.35-1.16,.88,.04,1.77,0,2.65,0v-.02Z" fill="#fff"/><path d="M110.84,89.19c-.09,.64-.11,1.28,.02,1.91-.05,.4-.08,.8,.22,1.13,.02,.18,.04,.37,.07,.55-.2,.51-.1,1.04-.08,1.56,.06,.98-.02,1.89-.96,2.47-.99,.35-2.01,.4-3.05,.33-1.15-.07-2.26,.32-3.4,.37-.82,.03-1.24,.69-1.3,1.73-.09,1.7,.08,3.43-.37,5.08-.62,2.3-.05,4.54,.18,6.8,.14,1.36,0,2.72-.24,4.04-.36,1.98-.42,3.96-.37,5.96,.07,2.76,.04,5.53,.04,8.3,0,.77,.03,1.53,.24,2.28,.2,.7-.03,1.11-.73,1.34-1.62,.51-3.26,.84-4.95,.44-1.24-.3-2.45-.22-3.65,.2-.41,.14-.9,.3-1.25-.07-.3-.33-.02-.73,.08-1.08,.51-1.69,.27-3.44,.34-5.16,.05-1.17-.15-2.34-.23-3.52-.05-.74,.06-1.44,.3-2.16,.37-1.08,.28-2.21-.02-3.3-.2-.74-.4-1.48-.64-2.2-.67-2.01-.39-3.94,.45-5.83,.67-1.5,.73-3.1,.66-4.67-.08-1.94-.12-3.88-.09-5.82,.02-1.24-.17-1.48-1.38-1.74-.26-.06-.53-.09-.77-.18-1.72-.67-3.39-.42-5.07,.2-1.18,.43-1.4,.26-1.41-1,0-.65-.11-1.27-.33-1.89-.75-2.13-.58-4.35-.55-6.56,0-.57,.37-.8,.85-.8,2.12-.01,4.21-.52,6.34-.41,.32,.02,.67,0,.96,.12,3.02,1.24,6.1,.33,9.15,.31,.09,0,.18-.02,.26-.06,3.14-1.47,6.46-.9,9.74-.84,.72,.56,.74,1.42,.92,2.2Z" fill="#fff"/><path d="M58.69,128.5c0,1.32,.02,2.62-.55,3.88-.3,.65-.04,1.39,.2,2.06,.74,2.06,.49,2.39-1.67,2.13-.48-.06-.93,.04-1.39,.14-1.16,.25-2.32,.12-3.49,.03-.36-.03-.59-.21-.83-.43-.91-.84-1.91-1.05-3.07-.52-2.25,1.03-4.68,1.52-7.06,2.13-.69,.18-1.15-.1-1.24-.86-.13-1.17-.27-2.34-.39-3.5-.07-.63,.01-1.23,.3-1.8,.22-.44,.3-.93,0-1.35-1.09-1.45-.84-3.06-.37-4.56,.7-2.23,1.39-4.43,1.11-6.81-.03-.28,0-.61,.13-.86,.37-.78,.26-1.48-.24-2.15-.59-.79-.53-1.74-.56-2.63-.09-2.38-.05-4.76,.31-7.13,.15-.99,.05-2-.03-3-.09-1.16,.16-1.26,1.27-1.43,2.07-.33,4.15-.39,6.23-.42,.64,0,1.04-.38,1.06-1.06,.03-.79,.4-1,1.16-.78,.85,.25,1.67,.55,2.45,.95,1.47,.76,3.05,.38,4.59,.4,.73,0,1.47-.09,2.2-.17,.53-.06,.78,.13,.8,.66,0,.18,.03,.35,.02,.53-.18,2.14,.4,4.19,.69,6.27,.13,.92-.09,1.05-1,.96-1.81-.17-3.62-.36-5.44-.05-.95,.16-1.95,.14-2.88-.15-.89-.27-1.17,.24-1.2,.9-.05,.91-.15,1.81-.2,2.72-.06,1.01,.71,1.49,1.55,.94,.5-.33,.95-.35,1.49-.22,2.27,.54,4.56,.24,6.85,.16,.69-.02,1.04,.17,.97,.87-.25,2.53-.31,5.03,.25,7.54,.32,1.42,.08,1.6-1.35,1.53-2.44-.13-4.86,.4-7.31,.27-.19,0-.4,.09-.57,.2-.33,.23-.58,2.6-.32,2.92,.21,.26,.46,.24,.78,.21,1.81-.15,3.59-.48,5.38-.77,1.27-.21,1.36-.09,1.38,1.2,0,.35,0,.71,0,1.06Z" fill="#fff"/><path d="M104.82,129.83c-.32-2.31,.47-4.56,.4-6.86-.04-1.17-.18-2.28-.84-3.28-.13-.2-.22-.42-.18-.67,.39-2.52,.25-5.1,.83-7.61,.29-1.26,.35-2.56,.15-3.85-.09-.61-.3-1.19-.42-1.8-.12-.66,.18-1.03,.86-1,.91,.04,1.82,.09,2.73,.15,1.68,.11,3.35-.2,5.02-.17,1.1,.02,1.3,.28,1.05,1.36-.48,2.07-.47,4.2-.94,6.27-.21,.94,.09,1.84,.64,2.67,.66,1.01,.39,2.17,.29,3.27-.1,1.17-.43,2.31-.44,3.5,0,1.25,.18,2.44,.82,3.56,.31,.54,.42,1.16,.31,1.79-.08,.47-.11,.94-.01,1.41,.15,.75,.59,1.22,1.38,1.24,.82,.02,1.65,0,2.47-.02,.68-.01,.96-.38,.88-1.03-.2-1.59-.03-3.17,.2-4.74,.21-1.46-.32-2.79-.82-4.11-.53-1.41-.44-2.8-.21-4.25,.47-2.95,1.33-5.86,1.16-8.9-.04-.74,.34-1.03,1.06-.84,1.79,.47,3.58,.93,5.36,1.43,1.15,.32,1.36,.64,1.38,1.81,.05,2.49-.25,4.93-.97,7.31-.39,1.28-.33,2.55-.15,3.84,.22,1.69,.6,3.36,.59,5.08,0,1.38-.37,2.73-.45,4.11-.07,1.26-.37,2.5-.11,3.77,.13,.64-.07,1.19-.59,1.65-.66,.58-1.28,1.21-1.82,1.92-.26,.34-.63,.6-1.04,.62-1.33,.09-2.58,.57-3.92,.62-1.29,.05-2.49,.47-3.56,1.17-1.05,.69-2.13,.79-3.27,.3-1.42-.61-2.93-1.07-4.02-2.3-.25-.28-.61-.46-.95-.64-1.97-1.02-2.93-2.63-2.88-4.85,.01-.65,0-1.29,0-1.94Z" fill="#fff"/><path d="M78.28,28.04c.25,.08,.51,.16,.76,.24,.61,.67,1.22,1.34,1.83,2.01,.08,2.23-.31,4.42-.94,6.52-.66,2.2-.49,4.37-.22,6.55,.2,1.68,.23,3.32-.03,5-.32,2.09-.73,4.18-.39,6.31,.07,.44-.13,.74-.43,1-.8,.7-1.58,1.41-2.25,2.23-.38,.47-.94,.58-1.5,.65-1.63,.21-3.27,.38-4.9,.62-.82,.12-1.57,.5-2.27,.93-1.07,.65-2.06,.62-3.24,.16-2.11-.82-3.7-2.37-5.48-3.63-1.26-.89-2.07-2.23-1.94-3.94,.06-.73,.04-1.47,.01-2.21-.05-1.71,.15-3.4,.44-5.08,.29-1.73,.29-3.47-.71-5.04-.22-.34-.21-.72-.12-1.11,.22-1.01,.27-2.04,.25-3.07-.02-1.72,.6-3.34,.86-5.02,.21-1.32,.3-2.63-.12-3.93-.08-.25-.11-.52-.15-.78-.1-.65,.13-1,.85-1.02,.89-.02,1.76,.15,2.64,.16,1.53,.03,3.06,.08,4.59-.09,1.49-.16,1.68,.15,1.47,1.59-.31,2.12-.63,4.24-1.07,6.34-.12,.57-.07,1.16,.27,1.62,1.01,1.38,.78,2.91,.57,4.42-.22,1.63-.69,3.27-.22,4.9,.48,1.62,.76,3.22,.79,4.92,.02,1.05,.59,1.41,1.64,1.42,.68,0,1.35,0,2.03-.01,.68,0,1.03-.29,1.01-1.02-.03-1.59-.04-3.16,.31-4.74,.35-1.56-.31-3.02-.81-4.46-.38-1.1-.39-2.16-.15-3.29,.6-2.85,1.2-5.7,1.43-8.61,1.37-1.35,2.94-1.03,4.53-.55,.22,.07,.44,.19,.67,.01Z" fill="#fff"/><path d="M169.52,108.65c1.21-.02,2.41,0,3.59,.36,.78,.24,1.58-.03,2.37-.02,1.08,.01,1.36,.28,1.37,1.36,0,.88-.03,1.77,0,2.65,.02,.73-.33,1.17-1.02,1.16-2.72-.04-5.37,.65-8.07,.76-.86,.04-1.3,.42-1.42,1.25-.13,.86,.47,1.15,1.09,1.37,1.18,.41,2.37,.29,3.57,.04,1.58-.34,3.15-.72,4.77-.84,.35-.03,.76-.17,.98,.18,.2,.31-.19,.5-.34,.74-.52,.87-.44,1.81-.36,2.75,.08,.88,.2,1.75,.26,2.63,.05,.69-.28,1.15-1.01,1.18-2,.09-3.9,.84-5.92,.86-1.3,.01-2.58,.1-3.86-.19-.91-.21-1.74-.16-2.38,.67-.45,.58-1.12,.71-1.83,.7-1.05-.01-2.09-.07-3.14,.27-.96,.31-1.42-.12-1.3-1.13,.35-2.93-.05-5.88,.34-8.81,.15-1.08-.4-2-.66-2.99-.43-1.65-.39-3.26,.29-4.83,.76-1.75,.53-3.59,.42-5.4-.07-1.11-.3-2.21-.41-3.32-.12-1.21,.1-1.48,1.27-1.4,1.87,.12,3.55-.22,4.98-1.54,.72-.67,1.68-.45,2.54-.34,.9,.12,1.81,.28,2.68,.52,1.55,.43,3.07,.39,4.6-.1,.82-.26,1.7-.26,2.52,.04,.88,.32,1.77,.39,2.69,.34,1.67-.08,2.22,.56,1.61,2.11-.43,1.09-.49,2.08-.14,3.16,.12,.38,.09,.82,.07,1.22-.02,.48-.33,.84-.79,.76-2.2-.37-4.31,.61-6.49,.37-.2-.02-.45,.05-.61-.04-1.3-.68-2.61-.28-3.94-.13-.71,.08-1.09,.35-1.12,1.08-.02,.59-.1,1.17-.1,1.76,0,.66,.37,.96,1.02,.92,.62-.04,1.23-.08,1.85-.12Z" fill="#fff"/></g></g></svg>