<svg xmlns="http://www.w3.org/2000/svg" width="300" height="51" viewBox="0 0 300 51"><path d="M73.9 7.73a21 21 0 0 0-10.41-2.68 20.14 20.14 0 0 0-10.16 2.72 19.94 19.94 0 0 0-7.45 7.5 20.54 20.54 0 0 0-2.71 10.3 20.32 20.32 0 0 0 2.72 10.26 19.67 19.67 0 0 0 7.54 7.44A20.77 20.77 0 0 0 63.73 46 20.32 20.32 0 0 0 74 43.23a19.87 19.87 0 0 0 7.48-7.47 20.79 20.79 0 0 0 0-20.58 19.89 19.89 0 0 0-7.58-7.45zm-3 25.14a9.91 9.91 0 0 1-7.25 2.89 9.58 9.58 0 0 1-7.07-3 9.81 9.81 0 0 1-3-7.28 10 10 0 0 1 2.9-7.33 9.4 9.4 0 0 1 7.14-3 9.74 9.74 0 0 1 7.19 3 9.9 9.9 0 0 1 3 7.38 9.7 9.7 0 0 1-2.94 7.34z" fill="#fff"/><path d="M117.08 11.07a17.53 17.53 0 0 0-6.63-4c-2.44-.81-6.06-1.21-11-1.21H85V16h4.43v19H85v10.19h17.91c4.92 0 8.65-.84 11.41-2.55a17.13 17.13 0 0 0 6.34-7.1 20.93 20.93 0 0 0 2.15-9.32 24 24 0 0 0-1.44-8.54 18.2 18.2 0 0 0-4.29-6.61zm-5 19.05A7.66 7.66 0 0 1 110 33a6.83 6.83 0 0 1-3 1.54 36.28 36.28 0 0 1-7.41.5h-.2v-19a40 40 0 0 1 6.49.5 8.52 8.52 0 0 1 3.72 1.64 7.86 7.86 0 0 1 2.35 3.11 11.1 11.1 0 0 1 .89 4.51 11.43 11.43 0 0 1-.79 4.32zM257.44 7.73A21 21 0 0 0 247 5.05a20.24 20.24 0 0 0-17.6 10.22 20.54 20.54 0 0 0-2.71 10.3 20.22 20.22 0 0 0 2.72 10.26 19.67 19.67 0 0 0 7.59 7.44A20.74 20.74 0 0 0 247.27 46a20.32 20.32 0 0 0 10.28-2.72 19.87 19.87 0 0 0 7.45-7.52 20.79 20.79 0 0 0 0-20.58 19.89 19.89 0 0 0-7.56-7.45zm-3 25.14a9.91 9.91 0 0 1-7.25 2.89 9.58 9.58 0 0 1-7.07-3 9.81 9.81 0 0 1-3-7.28 10.08 10.08 0 0 1 2.88-7.29 9.44 9.44 0 0 1 7.15-3 9.75 9.75 0 0 1 7.19 3 9.9 9.9 0 0 1 3 7.38 9.74 9.74 0 0 1-2.93 7.3z" fill="#fff"/><path d="M298.82 12.21a11.39 11.39 0 0 0-3.27-4A12.07 12.07 0 0 0 291.06 6c-.94-.23-2.82-.54-8.32-.54h-14.18v10.11h4.24v19h-4.24v10.14h19.51V34.57h-5v-4.86a41.55 41.55 0 0 0 7.38-.54 13 13 0 0 0 5-2.17 10.82 10.82 0 0 0 3.37-4.1 12.31 12.31 0 0 0 1.18-5.33 12.18 12.18 0 0 0-1.18-5.36zm-12.41 8.7h-3.34v-7.33h3.61c3.21 0 4.34 2 4.34 3.67s-1.21 3.66-4.61 3.66zM216.72 6.87a22.78 22.78 0 0 0-9.17-1.82 21.32 21.32 0 0 0-10.37 2.64 19.95 19.95 0 0 0-10.37 17.63 20 20 0 0 0 5.93 14.76A20.61 20.61 0 0 0 207.8 46c7.18 0 12.92-2.71 17.08-8.07l2-2.55-8-6.09-2 2.3c-2.49 2.9-5.3 4.31-8.57 4.31a11 11 0 0 1-8.07-2.94 9.56 9.56 0 0 1-3-7.25 9.82 9.82 0 0 1 3.1-7.38 10.2 10.2 0 0 1 7.44-3c6.68 0 8.92 4.7 8.92 4.7h8.36V5.05h-8.36zM31.35 7.3c-.29-.14-.57-.27-.86-.39a23.34 23.34 0 0 0-9.28-1.86A20.65 20.65 0 0 0 6 11.1a19.76 19.76 0 0 0-6 14.31 20.1 20.1 0 0 0 5.93 14.38C9.9 43.88 15.2 46 21.71 46c5.75 0 10.51-1.81 14.12-5.37s5.5-8.49 5.61-14.67l.05-3.26h-20.3v8.92h7.91A2.84 2.84 0 0 1 27.86 34a9.28 9.28 0 0 1-6.06 1.89 11 11 0 0 1-8.14-3.18 9.91 9.91 0 0 1-3.2-7.35 9.14 9.14 0 0 1 1.4-4.91 10.37 10.37 0 0 1 4-3.72A10.65 10.65 0 0 1 21 15.28a12.69 12.69 0 0 1 5.26 1.14 17.42 17.42 0 0 1 5 3.44l.06.06h8.36V5.05h-8.33zM154.42 3.32a13.25 13.25 0 0 0 6.22 1.51 16.17 16.17 0 0 0 6.55-1.46l4.62 4.36a9.68 9.68 0 0 0-2.73 6.45c0 3.24 1.25 6.48 2.46 9.62 2 5.05 3.8 9.83 1 14.7-3.24 5.62-7.57 6-11 6.4a9.93 9.93 0 0 0-4.25 1c-1.15.7-2.11 1.3-2.82 1.75-.71-.45-1.67-1.05-2.82-1.75a9.9 9.9 0 0 0-4.25-1c-3.47-.35-7.8-.78-11-6.4-2.81-4.87-1-9.65 1-14.7 1.21-3.14 2.46-6.38 2.46-9.62A9.68 9.68 0 0 0 137 7.73l4.62-4.36a16.17 16.17 0 0 0 6.55 1.46 13.22 13.22 0 0 0 6.22-1.51M167.64.37a14.42 14.42 0 0 1-7 2 10.07 10.07 0 0 1-6.22-2 10.07 10.07 0 0 1-6.22 2 14.41 14.41 0 0 1-7-2l-7.86 7.41s3.93 2.53 3.93 6.4c0 7.61-8.48 16.28-3.13 25.56s13.66 6.79 16.16 8.3 4.11 2.59 4.11 2.59 1.59-1.07 4.12-2.63 10.8 1 16.16-8.3-3.13-18-3.13-25.56c0-3.87 3.93-6.4 3.93-6.4L167.64.37z" fill="#fff"/></svg>