<?xml version="1.0" encoding="UTF-8"?><svg id="logos" xmlns="http://www.w3.org/2000/svg" width="300" height="32" viewBox="0 0 300 32"><path d="M22.56,15.43s8.04-.63,8.26-5.45c.24-5.21-3.16-9.17-12.8-9.17H1.98L0,30.45H17.94c8.53,0,13.27-2.19,13.59-7.66,.4-6.72-8.97-7.35-8.97-7.35ZM11.06,6.51h4.86c2.8,0,5.25,.87,5.25,3.56s-1.82,3.56-4.27,3.56h-6.24l.4-7.11Zm6.4,18.8h-7.27l.4-7.11h5.89c2.8,0,5.25,.87,5.25,3.56s-1.82,3.56-4.27,3.56Z" fill="#fff"/><path d="M64.56,.82h-11.29l-19.06,29.63h11.56l3.7-8.7h14.62l2.96,8.7h10.55L64.56,.82Zm-11.93,14.17l4.44-9.16h2.41l3.15,9.16h-9.99Z" fill="#fff"/><path d="M246.51,.82h-11.29l-19.06,29.63h11.56l3.7-8.7h14.62l2.96,8.7h10.55L246.51,.82Zm-11.93,14.17l4.44-9.16h2.41l3.15,9.16h-9.99Z" fill="#fff"/><polygon points="80.84 30.45 83.8 .82 95.18 .82 106.75 21.92 109.71 21.92 110.54 .82 118.5 .82 116.74 30.45 104.06 30.45 93.05 11.47 90.28 11.47 89.72 30.45 80.84 30.45" fill="#fff"/><polygon points="121.66 30.45 124.62 .82 136 .82 147.57 21.92 150.53 21.92 151.36 .82 159.32 .82 157.56 30.45 144.89 30.45 133.88 11.47 131.1 11.47 130.55 30.45 121.66 30.45" fill="#fff"/><polygon points="262.35 30.45 265.31 .82 276.69 .82 288.25 21.92 291.21 21.92 292.04 .82 300 .82 298.24 30.45 285.57 30.45 274.56 11.47 271.78 11.47 271.23 30.45 262.35 30.45" fill="#fff"/><polygon points="172.25 30.45 163.01 30.45 164.52 .82 173.75 .82 172.25 30.45" fill="#fff"/><path d="M212.19,1.85l.03,6.3s-4.4-2.63-13.59-1.78-11.63,5.27-11.82,9.26c-.15,3.08,.97,7.25,8.15,8.36,4.9,.75,8.38,0,8.38,0l-.09-3.67h-4.05v-6.22h13.75v15.45s-5.32,2.52-17.8,1.46c-13.6-1.16-17.03-8.85-17.03-15.37s8.68-20.69,34.08-13.78Z" fill="#fff"/></svg>