<?xml version="1.0" encoding="UTF-8"?>
<svg id="logos" xmlns="http://www.w3.org/2000/svg" viewBox="0 0 150 212">
  <path d="M18.37,66.57c2.58-.07,5.17-.23,7.72-.56.53-.07,1.21-.99,1.32-1.6.15-.84-.6-1.32-1.46-1.43-.67-.08-.88-.46-.74-1.1.18-.81,4.98-18.12,6.03-21.96.79-2.91,1.66-5.8,2.5-8.7.1-.35.28-.67.43-1,.83,3.24,1.39,6.41,2,9.57.46,2.42.95,4.83,1.48,7.23.07.34.46.8.75.83.3.03.79-.3.96-.61.65-1.18,1.21-2.42,1.81-3.63.19-.38.39-.74.59-1.11.09.02.19.04.28.06.27,1.6.56,3.19.8,4.8.33,2.26.58,4.54.95,6.8.46,2.84,1.04,5.65,1.48,8.5.07.44-.24,1.08-.58,1.42-.66.65-1.45,1.18-2.23,1.7-1.21.8-1.58,1.96-1.54,3.33.02.77.44,1.24,1.18,1.13.95-.14,2-.25,2.77-.74,2.48-1.59,4.9-3.28,7.22-5.08.81-.63,1.4-1.64,1.85-2.59.23-.48.14-1.5-.21-1.77-.37-.29-1.21-.03-1.83.07-.3.05-.58.27-1.05.51,0-.66-.03-1.1,0-1.53.1-1.38.23-2.76.32-4.15.12-1.94.17-3.88.32-5.82.37-4.83.77-9.67,1.19-14.5.02-.25.42-.67.62-.66.65.04,1.28.25,1.93.38.66.13.89.46.83,1.17-.16,1.87-.24,3.74-.34,5.61-.12,2.36-.29,4.71-.34,7.07-.05,2.78-.46,5.59.99,8.24.97,1.77,2.12,3.2,4.08,3.93.98.36,1.72.14,2.36-.51.56-.56,1.07-1.2,1.48-1.87,2.03-3.29,2.78-7.06,3.92-10.68.02-.06.02-.14.02-.21.63-5.04.94-10.09.52-15.17-.03-.33.14-.68.22-1.03.12.01.24.02.37.03.06.35.18.71.19,1.06.07,5.62.15,11.25.18,16.87.02,2.34.9,3.28,3.27,3.24.62,0,1.25-.09,1.85-.25.8-.2,1.56-.65,2.37-.75,3.36-.42,5.14-2.77,6.69-5.39.93-1.57,1.43-3.28,1.68-5.1.65-4.76.84-9.4-1.07-14.02-2.42-5.85-6.92-8.4-12.92-8.88-1.6-.13-1.99.3-2.13,1.95-.06.73-.16,1.45-.15,2.18.02,1.56.12,3.12.16,4.68.01.56.17,1.29-.74,1.31-1.31.04-2.63.08-3.94.02-1.35-.06-2.36.4-3.05,1.57-.36.6-.39,1.16-.39,1.16-.7-2.12-4.23-.44-5.73-.21-.84.13-1.62.65-2.48,1.02-.02-.24-.08-.48-.07-.71.21-3.01.42-6.01.65-9.02.14-1.87.25-3.74.48-5.6.17-1.35-.29-2.07-1.66-2.12-1.07-.04-2.16.03-3.23-.03-.99-.06-1.66.35-2.16,1.15-1.17,1.88-2.35,3.77-3.53,5.65-.17.27-.38.53-.76,1.05-.39-2.05-.74-3.8-1.04-5.55-.26-1.5-.36-3.04-.72-4.51-.58-2.4-1.68-2.91-3.94-1.99-.16.06-.32.14-.47.23-3.8,2.07-7.6,4.16-11.42,6.21-.82.44-1.72.75-2.83,1.22.01.16-.02.64.11,1.08.55,1.86,1.06,3.75,1.74,5.56.75,1.99,1.86,2.97,3.84,1.92,1.04-.55,2.22-.86,3.41-1.31.04.33.11.51.07.66-.59,2.53-1.17,5.06-1.8,7.58-.82,3.3-1.66,6.59-2.53,9.88-.62,2.35-1.34,4.67-1.94,7.02-.08.31-.14.57-.2.78-.09,1.12-2.65,10.01-2.79,10.72-.2,1.02-.77,1.41-1.81,1.48-.87.06-1.85.23-2.54.71-.51.36-.85,1.27-.86,1.94,0,.39.79,1.14,1.22,1.13ZM71.65,21.27c.03-1.22.56-1.53,1.66-1.09.96.39,1.97.65,2.92,1.06,3.53,1.51,5.55,4.29,6.39,7.95.33,1.44.88,7.9-.81,11.97-1.25,3-2.99,5.47-6.57,5.93-1.71.22-2.28-.21-2.38-1.94-.39-7.06-.8-14.12-1.19-21.18-.05-.9-.05-1.8-.02-2.7ZM58.29,35.12c.04-.65.38-.91.96-1.17.82-.36,2.3-2.47,2.3-2.47.74,2.17,3.47-.2,4.19.32.3.22.46.82.46,1.25.06,3.69-.22,7.35-1.08,10.94-.65,2.72-1.33,5.45-2.33,8.05-.4,1.04-1.64,1.78-2.55,2.61-.49.44-.94.23-1.31-.27-1.05-1.41-1.18-3.07-1.28-4.73-.06-.97-.01-1.94-.01-2.91h-.07c.24-3.88.49-7.75.72-11.62Z" fill="#fff" stroke-width="0"/>
  <path d="M139.92,167.56c-3.01-2.31-7.56-4.68-11.06-6.2.25-.83.45-1.47.52-1.74.69-2.55,1.43-5.08,2.07-7.63.1-.4-.09-1.2-.35-1.31-1.5-.63-3.06-.65-4.5.21-.34.21-.64.66-.76,1.06-.64,2.15-1.19,4.32-1.83,6.47-.14.48-.29.95-.43,1.42-3.2-1.21-8.92-2.84-12.13-3.45.03-1.61.07-3.21.1-4.82.01-.79,0-1.61-.13-2.38-.18-1-1.01-1.42-1.97-1.11-.92.3-1.82.66-2.74.96-.85.28-1.22.81-1.18,1.71.05,1,.04,2.01.01,3.02-.01.66-.3.89-1.02.7-.9-.23-1.83-.36-2.76-.43-.96-.08-1.73-.37-2.28-1.22-.45-.69-.95-1.37-1.51-1.97-1.46-1.58-3.3-2.65-5.41-2.81-2.39-.18-4.54.87-6.13,2.59-.2.22-.39.44-.59.66-1.28-.21-3.55-.52-3.86-.57-.92-.15-1.84-.3-2.77-.33-2.06-.07-4.11-.04-6.17-.1-.23,0-.59-.26-.64-.46-.13-.53-.11-1.1-.17-1.65-.05-.55-.07-1.11-.19-1.64-.05-.22-.39-.55-.53-.52-.24.06-.49.32-.62.56-.12.23-.12.54-.13.81-.05.84-.11,1.68-.15,2.52-3.27-.64-10.27-1.04-13.83-.7-.12-.54-.26-1.08-.44-1.6-.14-.39-.89-.64-1.41-.77-.27-.07-.86.2-.93.43-.21.67-.41,1.38-.48,2.08-1.69,0-4.86.18-6.48.09-.61-.03-1.27-.44-1.76-.85-.58-.48-.96-1.18-1.48-1.73-2.64-2.82-5.56-5.11-9.77-4.14-1.92.44-3.6,1.3-4.33,3.44-.54,1.57-.09,4.01.11,5.55.09.71-7.03,2.09-9.59,2.83-2.77.79-5.47,1.87-8.01,3.36-2.09,1.22-3.62,2.99-5.32,4.6-.79.75-1.47,1.68-1.99,2.64-1.74,3.21-.72,8.24,2.16,10.69,1.73,1.47,3.5,2.92,5.38,4.19,2.06,1.4,4.23,2.66,6.43,3.82,1.65.87,3.44,1.47,5.15,2.24,1.7.76,3.37,1.57,5.06,2.36.15.07,2.32.58,3,1.26,1.15,1.15,2.11,2.55,3.43,3.44,2.83,1.92,5.75,3.69,9.19,4.49,2.74.64,5.1.23,7.15-1.64.83-.75,1.63-.87,2.75-.76,1.05.1,2.07.2,3.07.29.3,2.57.65,5.14,1,7.71.27,1.98.23,4.02,1.36,5.82.47.75,1.08,1.33,1.89,1.18.97-.18.7-1.16.68-1.84-.1-2.88-.27-5.75-.37-8.63-.04-1.28-.07-2.57-.1-3.85,3.57.29,6.73.51,9.44.66.02.85.07,1.69.21,2.55.29,1.84.34,3.73.58,5.58.07.56-.28,1.56.71,1.52.28-.01.73-1.1.74-1.71.03-2.61-.04-5.22-.09-7.82,3.44.17,6,.25,7.62.27.33.49.68.96,1.13,1.3,1.15.87,2.45,1.61,3.79,2.15,1.7.68,3.5,1.1,5.39.82,1.49-.22,2.55-1.15,3.71-1.97.86-.61,1.82-1.28,2.82-1.47,1.49-.28,3.06-.14,4.6-.19.38-.01.76-.08,1.13-.13,1.28-.16,2.56-.39,3.85-.47,1.68-.11,3.38-.21,5.06-.14,1.58.06,7.74-.82,8.93-1.02,1.99-.35,3.96-.88,5.92-1.38.97-.25,1.91-.61,2.85-.94,1.56-.55,3.18-.98,4.65-1.71,2.17-1.08,4.25-2.32,6.32-3.58,2.92-1.79,5.1-4.15,5.56-7.73.33-2.52-.16-4.94-1.61-6.93-1.59-2.19-3.33-4.27-5.55-5.98ZM73.63,151.11c2.53.13,5.06.24,7.59.35.47.02,2.75.19,4.23.28-1.68,1.91-3.27,3.91-4.78,5.95-1.16,1.58-2.16,3.31-3,5.09-.87,1.86-1.55,3.82-2.16,5.79-.51,1.65-.84,3.35-1.18,5.05-.24,1.19-.37,2.4-.54,3.6-.12,0-.25,0-.37-.01-.05-.42-.13-.84-.15-1.27-.15-3.19-.33-6.38-.44-9.56-.17-4.68-.28-9.35-.43-14.03-.03-.87.33-1.29,1.23-1.24ZM61.86,150.16c2.31.15,6.25.39,8.56.57.06,0,.11,0,.17,0-.02.44-.03.88-.03,1.32-.02,5.55-.02,11.09.04,16.64.02,2.18.22,4.36.35,6.54.04.72-.24,1.06-.98,1.18-1.13.19-2.22.54-3.35.72-1.6.26-3.21.46-4.81.64-.65.07-.91-.34-1-.94-.28-2.03-.62-4.05-.88-6.08-.58-4.57-1.1-9.15-1.71-13.72-.26-1.92-.65-3.83-1.01-5.73-.07-.38-.14-.75-.21-1.13,1.36,0,4.07-.07,4.86-.02ZM38.39,177.6c-1.97-.63-3.49-1.94-4.85-3.46-.97-1.08-1.89-2.2-2.86-3.29-.6-.67-1.72-.46-2.04.39-.12.32-.15.68-.16,1.02-.14,2.53-.22,5.06-.41,7.58-.1,1.37.2,2.6.79,3.81.46.93.89,1.88,1.26,2.84.12.33.02.74.02,1.17-3.19-1.59-6.19-2.94-9.05-4.55-3.32-1.86-6.5-3.97-9.76-5.93-1.98-1.18-3.41-2.92-4.84-4.65-1.39-1.69-1.53-4.63-.25-6.56,1.62-2.43,3.42-4.7,6-6.22,1.37-.81,2.62-1.84,4.05-2.5,1.93-.89,3.94-1.65,5.97-2.24,2.47-.71,5.01-1.22,7.53-1.73.28-.06.82.33.99.65.51.93.92,1.93,1.35,2.91,1.11,2.54,2.24,5.06,3.3,7.62,1.04,2.48,2.01,4.99,3,7.49.55,1.38,1.16,2.74,1.56,4.17.43,1.51-.1,1.97-1.61,1.49ZM53.45,191.92c-.01-1.45.11-3.01-.38-4.32-1.17-3.14-2.62-6.19-4.05-9.23-1.12-2.38-2.52-4.63-3.56-7.04-1.93-4.49-3.69-9.05-5.48-13.59-.15-.37.01-.86.03-1.3.42.17.97.22,1.24.52,1.56,1.73,2.87,3.61,3.59,5.89.26.81.89,1.54,1.47,2.21.2.23.85.37,1.08.22.56-.37,1.22-.85,1.42-1.43.63-1.79,1.29-3.64.74-5.58-.55-1.93-1.21-3.83-1.84-5.74-.2-.6-.58-1.24.32-1.53.58-.19,1.22-.23,1.83-.32.7-.1,2.7-.22,3.67-.37.08.86.34,1.72.43,2.59.33,3.17.65,6.34.92,9.52.4,4.73.75,9.47,1.13,14.2.33,4.11.67,8.23,1.03,12.34.17,1.93.35,3.86.57,5.78-.73-.07-1.45-.15-2.13-.23-1.88-.41-2.01-.66-2.03-2.59ZM62.14,195.13c-.03-1.54-.07-3.08-.13-4.61-.07-1.66-.35-3.32-.38-4.98-.01-.53.32-1.39.71-1.55,2.42-.94,4.88-1.77,7.37-2.53,1.05-.32,1.43.05,1.48,1.11.16,3.98.4,7.97.41,11.95,0,.39,0,.78,0,1.17-3.02-.15-6.3-.33-9.45-.57ZM73.72,195.8c-.07-3.62-.17-7.24-.24-10.86,0-.37.15-.75.24-1.13.1,0,.2.02.31.02.08.18.17.36.25.55.69,1.66,1.22,3.41,2.1,4.96,1.15,2.03,2.1,4.24,3.88,5.86.17.15.21.44.35.63.06.08.11.16.17.24-1.73-.06-4.22-.15-7.06-.28ZM97.74,182.17c-.84,2.41-1.83,4.77-3.39,6.87-1.03,1.39-2.28,2.4-3.75,3.21-1.36.75-2.52.56-3.71-.47-2.21-1.91-3.17-4.51-3.58-7.21-.72-4.79-.49-9.56.83-14.3.77-2.76,1.67-5.42,3.07-7.91,1.73-3.08,7.57-4.46,10.45-.43,1.65,2.31,2.29,3.87,2.31,6.39-.07,4.72-.68,9.37-2.24,13.84ZM115.72,195.49c-3.51.29-7.03.56-10.55.76-1.81.11-3.63.11-5.44.1-1.26,0-1.47-.44-.9-1.54.98-1.91,2.09-3.77,2.86-5.76,1.09-2.81,2-5.71,1.97-8.78-.04-4.96.04-9.92-.26-14.87-.15-2.45-1.01-4.86-1.59-7.28-.18-.73-.54-1.42-.74-2.15-.22-.82.35-1.12,1-1.05,1.03.11,2.07.28,3.04.62.33.12.57.84.62,1.31.17,1.58.89,28.7.92,32.86,0,.14-.04.29,0,.41.19.58.41,1.15.61,1.73.54-.42,1.29-.72,1.59-1.27,1.17-2.16,2.17-4.42,3.3-6.6.56-1.07,1.22-2.09,1.91-3.09.54-.79,1.09-.73,1.41.16.4,1.1.69,2.24.96,3.38.55,2.29,1.24,4.56,1.49,6.88.13,1.17.24,3.81.24,3.81,0,0-2.02.32-2.46.36ZM116.99,162.72c-1.32,1.74-2.55,3.54-3.84,5.31-.39.53-.81,1.04-1.22,1.56-.13-.04-.26-.08-.39-.12-.09-1.43-.27-2.87-.25-4.3.03-2.77.09-5.54.15-8.31,3.25.93,8.68,2.48,12,3.44-.48,1.57-.97,3.15-1.49,4.71-.19.59-.55,1.12-.97,1.96-.26-.57-.36-.81-.47-1.05-.53-1.05-.99-2.14-1.62-3.12-.68-1.05-1.16-1.06-1.91-.08ZM144.66,183.3c-1.66,3.01-4.44,4.74-7.29,6.14-4.55,2.24-9.38,3.87-14.33,5.08-.9.22-4.24.49-4.24.49,0,0,3.45-11.08,4.54-14.91,1.12-3.93,2.21-7.88,3.38-11.8.32-1.09,1.15-3.73,1.8-5.84,1.95.98,8.73,4.15,11.07,6.42,2.35,2.28,5.02,4.33,5.84,7.78.55,2.32.43,4.48-.76,6.64Z" fill="#fff" stroke-width="0"/>
  <path d="M114.51,103.79c1.74-.28,3.46-.68,5.2-.94.25-.04.72.34.83.63.29.78.36,1.63.67,2.4.16.41.73,1.02.95.95.43-.12,1-.6,1.08-1.02.72-3.42.76-6.89.42-10.36-.1-1-1.4-1.74-2.59-1.6-1.37.17-2.08.95-1.93,2.2.12,1.07.28,2.14.47,3.19.24,1.31.07,1.48-1.3,1.66-2.41.31-4.8.69-7.19,1.09-.9.15-1.35.73-1.29,1.71.08,1.49.12,2.98.14,4.47.02,1.72-.16,1.86-1.78,1.21-.61-.24-1.55-.17-1.65-1.17-.17-1.62-1.13-2.79-2.14-3.96-2.72-3.16-6.15-4.32-10.23-3.59-1.48.26-1.91.83-1.84,2.38.1,2.18.19,4.37.41,6.54.65,6.32,1.35,12.63,2.08,18.93.14,1.2.43,2.39.75,3.55.08.29.51.48.78.71.22-.29.61-.57.63-.87.07-.89.03-1.8-.04-2.7-.17-2.21-.38-4.42-.56-6.64-.07-.87.11-1.55,1.12-1.82.66-.18,1.29-.53,1.87-.89.76-.48,1.08-.23,1.18.56.16,1.27.28,2.55.44,3.82.62,4.95,1.24,9.91,1.89,14.86.16,1.24.36,2.47.67,3.68.1.37.61.63.93.95.22-.39.55-.75.64-1.17.1-.42,0-.9-.05-1.34-.51-4.41-1.01-8.82-1.54-13.23-.12-.97.26-1.23,1.21-1.3,1.44-.1,2.89-.32,4.29-.69,1.32-.35,1.63-.26,1.69,1.13.11,2.32.15,4.65.27,6.97.04.75.18,1.52.45,2.22.25.66.93.87,1.43.32,1.07-1.19,2.44-1.43,3.91-1.57,1.07-.11,2.16-.23,3.17-.57.8-.27,1.08-.09,1.41.62.18.38.79.84,1.15.8.43-.06.81-.59,1.19-.95.11-.1.14-.33.14-.49-.02-1.8-.03-3.6-.1-5.4-.01-.31-.21-.71-.45-.9-.33-.25-.82-.49-1.19-.43-.26.04-.52.57-.62.93-.15.53-.19,1.09-.23,1.65-.14,1.66-.12,1.7-1.8,2-1.84.33-3.69.6-5.54.86-.65.09-.95-.17-.89-.9.09-1.14.1-2.29.1-3.43,0-.67.23-.98.92-1.11,1.6-.29,3.19-.64,4.75-1.07.38-.1.63-.63.95-.97-.4-.28-.77-.75-1.19-.81-.81-.12-1.66.02-2.49.01-.74,0-1.47-.07-2.21-.1-.08-.17-.16-.34-.24-.51.22-.1.45-.19.65-.32,2-1.3,3.28-4.44,2.85-6.79-.35-1.91-1.56-3.21-2.9-4.45-.78-.72-1.22-1.54-1.16-2.65.08-1.52.07-3.06.02-4.58-.04-1.09.43-1.55,1.47-1.72ZM100.12,108.95c-.26,1.76-.3,3.57-.26,5.36.02.99-.25,1.58-1.14,1.96-.82.35-1.61.77-2.63,1.26-.11-1.08-.21-1.99-.28-2.91-.22-2.97-.42-5.95-.66-8.92-.05-.69-.19-1.37-.33-2.05-.17-.79.15-1.17.93-1.27,3.09-.38,7.14,2.35,7.85,5.34.07.3-.14.96-.24.97-.63.03-3.04-1.01-3.23.25ZM102.49,112.51c.1-.48.19-.96.29-1.44.2.06.57.17.57.18-.1.47-.25.93-.38,1.38-.16-.04-.32-.08-.47-.12ZM109.25,122.44c-1.73.28-3.45.64-5.19.92-.76.12-1.06-.29-1.03-1.04.03-.66,0-1.32,0-1.97h0c0-.42.03-.83,0-1.25-.09-1.06.24-1.89.96-2.72.88-1.01,1.59-2.18,2.25-3.35.42-.73.89-.93,1.6-.6,1.38.65,2.54,1.34,2.36,3.27-.17,1.78.05,3.59.14,5.39.04.81-.28,1.2-1.08,1.34ZM113.21,116.41c1.09.53,1.29,1.41,1.23,2.25-.04.55-.51,1.08-.78,1.61-.15-.06-.3-.12-.45-.18v-3.69Z" fill="#fff" stroke-width="0"/>
  <path d="M80.51,90.46c-2.09-3.59-5.33-5.61-9.36-5.93-3.33-.27-6.12,1.31-8.16,3.99-.53.69-1.02,1.57-1.11,2.4-.37,3.29.09,6.55,1.11,9.66,1.39,4.25,3.08,8.4,4.56,12.62,1.21,3.44,2.24,6.94,2.43,10.82-.06.63-.07,1.48-.24,2.28-.34,1.53-.79,3.05-2.1,4.08-.3.23-.81.49-1.09.38-.79-.31-1.62-.67-2.23-1.24-2.18-2.03-2.99-4.78-3.64-7.56-.09-.38.3-.93.58-1.31.47-.63,1.23-1.11,1.52-1.79,1.68-3.87,1.35-7.67-.77-11.26-1.82-3.08-4.11-5.71-7.32-7.49-1.94-1.07-3.89-2-6.11-2.2-.68-.06-1.39.03-2.05.19-.29.07-.67.48-.7.76-.03.27.29.67.56.86.29.21.71.26,1.07.37,1.06.33,2.14.59,3.17.99,1.83.72,1.77.75,1.02,2.61-1.78,4.41-2.36,9.11-3.21,13.75-.24,1.29-.42,2.59-.77,3.85-.3,1.08-.94,2.07-1.16,3.15-.32,1.61.92,2.83,2.54,2.56,1.12-.19,2.24-.51,3.29-.93,1.57-.64,3.06-1.46,4.62-2.12,1.3-.55,1.49-.29,1.85.74,1.05,2.97,2.54,5.69,4.95,7.83,1.88,1.67,3.89,1.65,5.77-.02,1.5-1.32,2.14-3.06,2.51-4.91.56-2.77.12-5.51-.4-8.26-.76-4.01-2.05-7.84-3.57-11.6-1.55-3.8-3.01-7.65-3.38-11.76-.28-3.15.8-6.97,4.55-7.88,4.86-1.19,8.28.83,9.85,4.94.32.83.05,1.35-.68,1.83-1.13.74-2.24,1.52-3.28,2.38-1.11.93-.81,2.33.51,2.91,1.54.69,2.81-.09,3.98-.86,2.23-1.46,4.39-3.04,6.56-4.58.96-.68,1.94-1.35,2.8-2.15,1.11-1.02.93-2.24-.36-3-.78-.46-1.58-.47-2.36.04-1.39.91-2.78,1.84-4.19,2.72-.86.53-1.37-1.5-1.57-1.84ZM59.21,116.83c-.11-.37-.33-.75-.29-1.1.04-.39.35-.74.49-1.12.22-.64.52-1.29.54-1.94.05-1.37-.82-2.17-2.16-1.98-1.8.26-3.28,1.18-4.17,2.78-1.06,1.9-.12,3.35,2.05,3.21.7-.05,1.31-.12,1.61.69.31.82.16,1.5-.53,2.04-1.53,1.19-3.25,1.8-5.22,1.7-.75-.04-1-.44-.9-1.08.64-4.14,1.27-8.28,1.97-12.41.28-1.62.72-3.22,1.15-5.11,1.35,1.06,2.69,1.93,3.81,3.04,1.46,1.44,2.71,3.09,3.2,5.15.46,1.91.45,3.79-.69,5.5-.19.28-.57.43-.86.64Z" fill="#fff" stroke-width="0"/>
  <path d="M9.31,141.63c.5-.99.22-1.66-.77-2.14-.65-.31-1.35-.56-2.05-.67-.86-.12-1.06-.53-.85-1.28.23-.8.48-1.6.69-2.4,1.18-4.49,2.36-8.98,3.54-13.47,1.07-4.06,2.15-8.11,3.23-12.17.18-.66.36-1.33.54-1.99.35.26.49.49.56.75.87,3.17,3.3,10.25,3.66,10.62.33-.39,1.63-4.94,1.91-6.82.42-2.81.82-5.62,1.23-8.44.06,0,.12,0,.18,0,.07.37.17.74.19,1.11.27,4.47.58,8.93.79,13.4.21,4.44.31,8.88.51,13.32.05,1.15-.19,2.08-1.05,2.91-1,.97-1.05,1.68-.43,2.8.57,1.04,1.38,1.47,2.61,1.18.73-.17,1.42-.52,2.09-.87,1.08-.56,1.6-1.49,1.54-2.72-.05-1.14-.94-1.51-1.79-1.77-.9-.28-1.17-.81-1.19-1.68-.17-7.43-.4-14.85-.53-22.28-.09-5,.02-10-.08-15-.04-1.93-.4-3.86-.64-5.78-.02-.19-.24-.42-.43-.5-.11-.05-.39.13-.49.28-.18.25-.34.54-.41.83-.96,4.08-1.94,8.16-2.85,12.25-.28,1.26-.4,2.56-.59,3.84-.38-.31-.54-.64-.63-.99-.46-1.77-.88-3.56-1.36-5.33-.6-2.19-1.07-2.45-3.19-1.93-.07.02-.14.02-.2.04-2.97.7-5.93,1.42-8.9,2.1-.82.19-1.17.61-1.13,1.45.04.9.02,1.81.02,2.71,0,.83.45,1.28,1.25,1.13,1.94-.35,3.86-.79,5.8-1.18.49-.1.99-.12,1.48-.18-.03.5,0,1.03-.11,1.51-.41,1.65-.92,3.27-1.32,4.92-1.16,4.86-2.3,9.73-3.43,14.59-1.08,4.63-2.18,9.25-3.21,13.89-.22.97-.54,1.73-1.42,2.29-.6.38-1.09.97-1.55,1.53-.96,1.17-.6,2.64.88,3.05,2.28.64,4.48.18,6.44-1.11.62-.41,1.12-1.13,1.47-1.82Z" fill="#fff" stroke-width="0"/>
  <path d="M103.56,11.35c.64.1,1.32.1,1.96,0,.86-.15,1.15.11,1.07.97-.33,3.36-.44,6.7.05,10.07.69,4.79,1.54,9.53,3.74,13.9.79,1.58,1.03,3.14.82,4.91-.72,6.03-1.3,12.07-1.93,18.11-.17,1.67-.19,1.62-1.77,2.05-.78.21-1.57.55-2.24,1-.68.45-1.04,1.3-.61,2.01.31.5,1.04.94,1.64,1.03,1.06.16,2.18.11,3.26.01,2.1-.19,4.2-.43,6.3-.71.8-.11,1.29-.64,1.36-1.49.07-.86-.24-1.55-1.05-1.85-.96-.36-1.96-.69-2.97-.84-.87-.13-1.16-.46-1.03-1.29.23-1.51.43-3.02.67-4.53.62-3.97,1.3-7.94,1.86-11.92.29-2.11.62-4.18,1.74-6.05.59-.98,1.25-1.95,1.63-3.01.97-2.71,1.8-5.46,2.68-8.2,2-6.22,3.13-12.59,3.14-19.13,0-1.55.14-2.86,1.96-3.24.13-.03.24-.14.35-.22.89-.64.9-1.63-.07-2.14-.66-.35-1.41-.67-2.14-.72-1.76-.1-3.54-.09-5.31,0-.81.04-1.68.21-2.4.57-1.34.69-1.32,2.23.07,2.79.99.4,2.13.58,3.21.58,1.39,0,1.6,0,1.48,1.37-.33,3.73-.56,7.48-1.14,11.17-.74,4.73-1.86,9.4-3.72,13.83-.58,1.38-1.35,2.67-2.11,4.15-.37-.39-.55-.51-.63-.69-.71-1.5-1.49-2.98-2.08-4.53-1.2-3.18-1.5-6.55-1.81-9.89-.21-2.31-.11-4.64-.16-6.97-.02-1.11.61-1.63,1.62-1.8.21-.04.42-.04.62-.09,1.32-.33,2.38-1.63,2.19-2.67-.22-1.16-1.45-1.9-2.93-1.69-2.09.29-4.17.61-6.25.98-.57.1-1.15.33-1.64.63-.84.5-1.22,1.32-1.12,2.3.1.99.95,1.13,1.69,1.25Z" fill="#fff" stroke-width="0"/>
  <path d="M148.77,125.12c-.52-.56-1.23-.62-1.89-.11-1.07.82-2.16,1.62-3.19,2.5-.85.73-1.08.75-1.65-.22-.95-1.61-7.61-13.05-9.99-17.16-.67-1.16-.52-1.6.39-2.57,1.98-2.08,4.05-4.1,5.84-6.34,2.56-3.21,4.42-6.76,4.74-11,.28-3.75-.51-7.12-3.08-9.93-2.02-2.21-4.45-3.62-7.61-3.35-2.6.22-3.92,1.31-4.3,3.84-.38,2.54-2.04,21.82-2.5,28.92-.52,7.86-.97,15.72-1.44,23.58-.12,1.97.88,2.67,2.96,2.17.45-.11.92-.69,1.08-1.15.07-.21-.55-.9-.94-.98-1.19-.24-1.38-.96-1.24-1.97.04-.27.97-11.62,1.43-17.01.11-1.32.46-2.38,1.53-3.24.63-.51.83-.32,1.15.26,1.32,2.4,8.36,13.78,10.47,17.12.27.42.39,1.18.19,1.61-.5,1.05-.29,1.95.22,2.87.67,1.2,1.1,1.3,2.21.48,1.9-1.4,3.79-2.81,5.67-4.24,1.79-1.36,1.38-2.53-.04-4.09ZM128.25,108.83l-.28-.04c-.02-.28-.07-.57-.05-.85.47-5.56.93-11.12,1.45-16.67.28-3,.65-5.99,1.04-8.98.3-2.31,1.75-3.09,3.85-2.05,2.32,1.14,3.54,3.22,4.41,5.55,1.55,4.2.77,8.09-1.41,11.86-1.82,3.15-4.11,5.91-6.62,8.51-.83.86-1.6,1.78-2.4,2.67Z" fill="#fff" stroke-width="0"/>
  <path d="M44.55,87.28c1.17-.22,1.63-.79,1.66-2,.01-.52.04-1.04.09-1.56.16-1.65-.92-2.78-2.58-2.55-1.41.2-2.79.52-4.18.83-.29.06-.59.24-.79.46-.94,1.07-.19,4.18,1.19,4.58,1.21.35,1.58,1.16,1.67,2.21.25,2.69.45,5.39.68,8.09.27,6.05-.95,11.9-2.39,17.69-.37,1.48-1.16,2.88-1.91,4.24-.69,1.25-2.25,1.83-3.3,1.55-1.72-.45-2.14-1.87-2.46-3.3-.98-4.36-.97-8.78-.92-13.24.05-4.52.99-8.88,1.71-13.28.21-1.26.87-2.14,2.03-2.7,1.19-.57,1.79-1.6,1.9-2.91.08-1.03-.64-1.85-1.67-1.81-.54.02-1.09.19-1.61.35-1.42.43-2.84.88-4.25,1.35-.24.08-.5.26-.63.47-.77,1.25-.18,3.1,1.23,3.54.9.29,1.03.76.88,1.55-.35,1.77-.77,3.53-.98,5.31-.39,3.34-.77,6.69-.92,10.05-.2,4.5-.39,9.04,1.17,13.39.4,1.11.87,2.34,1.68,3.15,2.71,2.7,8.76.75,9.77-3.06,1.7-6.41,2.66-12.93,2.63-19.54-.02-3.73-.56-7.47-.89-11.2-.11-1.24,0-1.44,1.2-1.67Z" fill="#fff" stroke-width="0"/>
  <path d="M88.58,60.62c1.75.04,3.53.07,5.26-.17,1.9-.26,3.75-.91,5.04-2.43,1.91-2.26,3.64-4.67,4.52-7.53,1.73-5.64.82-10.1-3.65-14.28-1.43-1.34-3.27-2.31-5.06-3.18-1.66-.81-3.46-1.4-5.26-1.8-1.83-.4-2.58.38-2.63,2.2-.05,1.8-.17,3.6-.19,5.41-.03,3.88.37,17.26.39,20.07,0,1.25.34,1.69,1.57,1.72ZM89.1,34.79c0-1.55.02-1.46,1.51-1.07,2.12.56,3.97,1.64,5.79,2.77,3.11,1.92,4.34,4.92,4.24,8.4-.05,1.83-.4,3.78-1.13,5.45-1.43,3.3-3.99,6.09-7.88,6.16-1.42.03-2-.41-2.07-1.83-.12-2.43-.21-4.86-.27-7.28-.04-1.73-.15-5.21-.22-5.21,0-2.47-.01-4.93,0-7.4Z" fill="#fff" stroke-width="0"/>
  <path d="M78.96,116.01c3.07-2.8,6.05-5.7,9.02-8.62.3-.29.22-.96.32-1.46-.44.09-.97.05-1.29.29-1.23.9-2.39,1.9-3.58,2.86-1.97,1.59-3.93,3.18-5.91,4.75-.25.19-.57.29-.86.43-.08-.32-.21-.64-.22-.96-.07-2.98-.09-5.97-.18-8.95-.02-.58-.09-1.26-.42-1.69-.41-.53-1.06-.94-1.69-1.18-.14-.05-.69.79-.93,1.27-.16.32-.16.75-.15,1.12.14,3.64.24,7.28.45,10.91.19,3.22.47,6.43.79,9.64.22,2.24.56,4.47.87,6.7.09.65.16,1.32.36,1.94.08.26.48.61.71.6.23-.01.47-.42.63-.69.1-.16.09-.4.09-.61.01-2.05.01-4.1.02-6.14,0-1.69,0-3.38,0-5.18,1.48.76,2.93,1.48,4.35,2.24.95.5,1.84,1.13,2.83,1.53.44.18,1.25.11,1.55-.19.51-.51.11-1.07-.45-1.44-.4-.27-.78-.57-1.19-.82-1.67-1.04-3.38-2.01-5-3.12-2.02-1.37-1.92-1.57-.13-3.2Z" fill="#fff" stroke-width="0"/>
  <path d="M88.83,139.19c.31-.36.83-.68.88-1.07.17-1.27.2-2.56.21-3.84.02-4.93-.22-18.39-.23-20.19,0-.3-.05-.67-.22-.89-.27-.36-.67-.84-1.02-.85-.31,0-.8.51-.92.88-.27.85-.49,1.75-.51,2.64-.22,7.44.53,14.84,1.08,22.25.03.38.49.72.75,1.08Z" fill="#fff" stroke-width="0"/>
  <path d="M91.85,98.15c.03-1.58-.9-2.63-2.37-2.67-1.87-.06-3.17,1.39-3.2,3.56-.02,1.31.82,2.23,2.09,2.21,1.65-.02,3.7-.89,3.48-3.1Z" fill="#fff" stroke-width="0"/>
</svg>