<svg xmlns="http://www.w3.org/2000/svg" width="240" height="93" viewBox="0 0 240 93"><path d="M121.1,27.39c0,.33.06.66.06,1,0,1.33-.23,1.41-1.57,1.32a28.92,28.92,0,0,0-4.56.08c-1,.1-1.33-.18-1.29-1.1.13-2.86.3-5.72.36-8.58a25.76,25.76,0,0,0-.33-3.59c-.08-.68.07-1.22.83-1.23,1.85,0,3.71,0,5.56,0,.82,0,.91.56.9,1.3,0,3.6,0,7.2,0,10.8ZM120,21.85c.11-1.7.22-3.41.32-5.11l-.35,0C119.28,18.14,119.12,21,120,21.85Zm.08.29a3.74,3.74,0,0,0,.31,4.48C120.3,25.1,120.21,23.78,120.1,22.14ZM120,29h.53l-.09-2-.44,0Z" fill="#fff"/><path d="M138.55,21.5c-.17-1.86-.35-3.72-.51-5.57s0-2,1.72-2.14a25.16,25.16,0,0,1,4.59.13,1.48,1.48,0,0,1,.91,1.15c0,1.44-.23,2.89-.2,4.34.06,2.56.24,5.13.38,7.69.08,1.4-.06,1.54-1.41,1.35-.41-.06-.82-.09-1.24-.11-.78-.06-1.81.19-2.28-.21a7.37,7.37,0,0,1-2-2.93,9.3,9.3,0,0,1,0-3.07V21.5Zm5.12-1.72.34.07c.77-.92,1-4.59,0-5.55C143.91,16.29,143.79,18,143.67,19.78Zm.47,4.72.46,0c-.09-1.34-.18-2.69-.28-4.29C143.51,21.09,143.55,23.45,144.14,24.5Z" fill="#fff"/><path d="M79.13,26.41c-1.46-.54-2.68-1.06-3.95-1.44-.93-.28-1.11-.69-.64-1.53,1.13-2,2.31-4,3.31-6.12a49.5,49.5,0,0,0,1.86-4.88c.31-.87.81-1.21,1.71-.86l3.8,1.49-2.48,4.58.51.31,2.5-4.17.46.11A3.63,3.63,0,0,1,86,15.32a50.45,50.45,0,0,0-4.85,10.33,9.61,9.61,0,0,1-1,1.78l-.39-.2,1.5-4.72-.53-.18Zm1.75-4.69A3.33,3.33,0,0,0,82.55,18Z" fill="#fff"/><path d="M114.09,10.33c0-2.65,0-5.31,0-8,0-.43.54-1.17.88-1.2a31.89,31.89,0,0,1,4.79,0c.32,0,.84.68.87,1.08.25,3.19.42,6.38.58,9.57.1,2.16-.43,2.3-2.16,1.94a12.24,12.24,0,0,0-4,.13c-1,.13-1.42-.15-1.4-1.14,0-.79,0-1.58,0-2.37Zm6-8.46c-1,.71-.89,4.05,0,5.35Zm.18,5.69-.63.05c.07,1.35.15,2.7.22,4.05l.71-.05Z" fill="#fff"/><path d="M128.1,13.15a6.8,6.8,0,0,0,.59,1.1c2.37,3,4.73,6.08,7.15,9.07.56.69.52,1.09-.24,1.41a8.65,8.65,0,0,0-3.73,3c-.51.72-1,.58-1.42-.14a40.84,40.84,0,0,0-7.27-9.28,1.41,1.41,0,0,1-.13-1.35,8.37,8.37,0,0,1,4.34-3.37l.35-.11Zm2.8,14c.31-1.36-1.6-4.33-3-4.66Zm-3.47-5.07.49-.44c-.87-1-1.44-2.3-2.72-2.92l-.38.35Z" fill="#fff"/><path d="M208.68,20.24c-.63-.09-1.58-.2-2.52-.36-.68-.11-.95-.45-.82-1.22a48.46,48.46,0,0,1,3.75-11.45c.36-.8.83-.78,1.45-.21,1.28,1.17,2.57,2.33,3.91,3.44a1.24,1.24,0,0,1,.46,1.75,45.94,45.94,0,0,0-2,6.24c-.26,1.08-.64,1.61-1.74,1.62C210.42,20.07,209.72,20.16,208.68,20.24ZM212.11,16l.42.13q1-2.4,1.9-4.78l-.45-.17A10.14,10.14,0,0,0,212.11,16Zm-.68,3.17.55.13.45-2.51-.43-.09A3,3,0,0,0,211.43,19.16Z" fill="#fff"/><path d="M206.11,21.52c1.86-.1,3.72-.23,5.59-.25a1.43,1.43,0,0,1,1,.79c.9,2.39,1.74,4.82,2.57,7.24.1.32.16.85,0,1-1.39,1.36-2.8,2.69-4.28,4-.69.59-1.19.21-1.48-.58-1.38-3.77-2.76-7.54-4.17-11.3C205,21.55,205.38,21.34,206.11,21.52Zm5.82.38-.38.11c-.22,1.29.79,4.39,1.89,4.86C212.94,25.21,212.44,23.56,211.93,21.9Zm1.76,5.5-.64.27c.4.83.79,1.66,1.18,2.49l.62-.29C214.46,29.05,214.07,28.22,213.69,27.4Z" fill="#fff"/><path d="M236.52,21.22c3.29,0,3.47.3,3,3.38-.51,3.44-2,6.5-3.39,9.59-.38.85-.85.83-1.52.2-1.2-1.13-2.45-2.21-3.72-3.26a1.38,1.38,0,0,1-.51-1.95,42.82,42.82,0,0,0,2-6.36c.24-.93.6-1.37,1.54-1.41S235.71,21.28,236.52,21.22Zm2.72,1.13-.59-.14c-.36,1.68-.71,3.35-1.07,5l.56.12C239,25.8,238.94,24,239.24,22.35Zm-3.37,9.22.5.21a7.62,7.62,0,0,0,1.53-3.66l-.51-.2Z" fill="#fff"/><path d="M233.12,20.16a2.28,2.28,0,0,1-.57-.75c-.88-2.41-1.72-4.83-2.55-7.26-.1-.31-.17-.84,0-1,1.37-1.36,2.77-2.7,4.24-4,.64-.56,1.17-.3,1.48.55,1.37,3.78,2.78,7.54,4.17,11.3.26.72.07,1.13-.76,1.13C237.27,20.15,235.41,20.16,233.12,20.16Zm.19-.54.35-.13c.32-1.3-.76-4.5-1.9-5.1Zm-2.87-8,1.23,2.67C232.07,12.94,231.63,12,230.44,11.62Z" fill="#fff"/><path d="M144.64,36l-5,3.42c-.47-.63-1-1.43-1.65-2.19-1.79-2.18-3.57-4.37-5.42-6.5-.68-.79-.75-1.54,0-2.15a34.14,34.14,0,0,1,3.83-2.73,1.47,1.47,0,0,1,1.38.27C140.12,29.44,142.4,32.79,144.64,36Zm-7.77-2-.4.31,3.2,4.09.43-.33A12.66,12.66,0,0,0,136.87,34.07ZM134,30.36l-.3.23c.11,1.16,1.84,3,3.05,3Z" fill="#fff"/><path d="M3.88,13.81h.25c3.28.1,3.18.1,3.09,3.22-.07,2.52.14,5,.24,7.57.07,1.49-.12,1.55-1.62,1.38a20.13,20.13,0,0,0-4.32,0C.44,26.13.09,25.87.16,24.79c.17-2.77.43-5.54.35-8.3C.45,14,.28,14,2.88,13.83c.33,0,.67,0,1,0ZM6.8,14.9c-1,.94-1.22,4-.33,5Zm-.32,8.77c.19-1.06.43-2.12-.32-3.07A3.57,3.57,0,0,0,6.48,23.67Z" fill="#fff"/><path d="M32.78,20.19c-4,0-4.26-.32-3.09-3.67Q31.31,11.95,33,7.41c.15-.39.48-.91.8-1s.74.37,1.07.64C36,8,37.12,9,38.29,9.92c.56.43.81.72.47,1.51a61.6,61.6,0,0,0-2.62,6.93c-.32,1.12-.76,1.64-1.86,1.71C33.66,20.1,33,20.17,32.78,20.19Zm3-5.19.43.2,2.09-4.49-.45-.21A11.84,11.84,0,0,0,35.79,15Zm.32.8a3.35,3.35,0,0,0-.88,3.81Z" fill="#fff"/><path d="M.23,39c0-1.93,0-3.78,0-5.64C.19,31.88.09,30.43,0,29c0-.76.17-1.42,1-1.44,1.82,0,3.64,0,5.46.09.78,0,1.1.56,1,1.39-.24,3.34-.44,6.69-.64,10Zm5.55-3.76.69,0,.31-5.11-.67,0Zm.48.7H5.91v2h.35Z" fill="#fff"/><path d="M73.73,39.39a2.85,2.85,0,0,1-.06-1.15c.34-.89.81-1.73,1.2-2.6a7.11,7.11,0,0,0,.27-.93l-.45-.2-2,3.85-4-1.56c.14-.33.28-.69.43-1,1.24-2.86,2.5-5.7,3.7-8.57.61-1.44.85-1.68,2.33-1.11a22.77,22.77,0,0,1,3.94,2.07,1.49,1.49,0,0,1,.32,1.43c-1.69,3.28-3.48,6.51-5.24,9.76Zm3.62-8.51-.64-.33L74.92,34l.59.31Z" fill="#fff"/><path d="M168.8,19.34c-.08-.8-.15-2.13-.36-3.43-.11-.7.09-1,.75-1.12a10.42,10.42,0,0,1,5.54.09,1.21,1.21,0,0,1,.71.85c.05,3.13,0,6.27.06,9.4,0,1.52-.09,1.6-1.59,1.43a20.71,20.71,0,0,0-4.09,0c-1.56.13-1.64.15-1.51-1.45S168.61,21.6,168.8,19.34Zm6.07-3.79c-1,.75-1.27,3.88-.42,5.1C174.6,18.76,174.74,17.16,174.87,15.55Zm-.7,8.8.68-.09-.29-3.21-.67.07Z" fill="#fff"/><path d="M145.6,10.3v.62c0,1.55-.09,1.56-1.62,1.48a32.09,32.09,0,0,0-4.7.12c-1,.09-1.31-.17-1.28-1.1.12-3.06.2-6.12.34-9.18a1.1,1.1,0,0,1,.57-.81,7,7,0,0,1,5.34-.11A1.47,1.47,0,0,1,145,2.37c.23,2.64.36,5.29.52,7.93ZM144,7.15c1-.87.76-4.56,0-5.18Zm.46,4.66c.88-1.09.56-3.57-.42-4.1Z" fill="#fff"/><path d="M29.73,21.61c1.73-.11,3.45-.28,5.17-.31a1.43,1.43,0,0,1,1,.8c.93,2.6,1.79,5.23,2.64,7.86a1.16,1.16,0,0,1-.1,1c-1.37,1.25-2.77,2.47-4.22,3.6-.59.46-1.06.31-1.35-.56-1.25-3.77-2.6-7.51-3.92-11.26-.35-1-.13-1.46.76-1.44Zm2.66,7.69A10.88,10.88,0,0,0,33.83,34,7.61,7.61,0,0,0,32.39,29.3Zm-1.21-4.36-.53.2a10.16,10.16,0,0,0,1.4,3.6l.51-.2Zm-.8-.41.36-.17c-.07-1.5-.45-2.16-1.45-2.23Z" fill="#fff"/><path d="M7.41,6.89c.08,1.49.17,3,.24,4.48,0,.87-.22,1.22-1.25,1.13a31.15,31.15,0,0,0-4.83,0c-.78,0-1.27-.07-1.24-.9C.45,8.34.58,5.11.79,1.89A1.24,1.24,0,0,1,1.67,1a31.37,31.37,0,0,1,4.65,0c.33,0,.82.78.85,1.23.11,1.52,0,3.06,0,4.6Zm-1-.07c.69-2,.43-4.69-.43-5.12C6,3.47,5.73,5.18,6.38,6.82Zm.24,4.94c.64-1.36.45-3.53-.38-4.31A11.36,11.36,0,0,0,6.62,11.76Z" fill="#fff"/><path d="M48.3,0c1.16,0,1.43.4,1.19,1.26-.46,1.62-.81,3.26-1.3,4.87a1.39,1.39,0,0,1-.91.86,13.2,13.2,0,0,0-6.54,2.2,1.22,1.22,0,0,1-1.11.06,33.67,33.67,0,0,1-3.82-3.32c-1-1-.76-1.46.58-1.94C39.6,2.87,42.83,1.79,46.06.7,46.88.42,47.72.18,48.3,0ZM42.15,7.44l5.23-1.17C46.23,5.52,43.23,6.15,42.15,7.44Zm-2.39,1,.37.51L42,7.7l-.34-.52Z" fill="#fff"/><path d="M49,39.15c.06,2.4-.22,2.63-1.77,2.1-3.71-1.25-7.41-2.51-11.09-3.82a5.87,5.87,0,0,1-1.36-1c.38-.4.73-.81,1.12-1.19,1-.91,2-1.75,2.88-2.72a1.32,1.32,0,0,1,1.82-.36c2,.85,4.1,1.52,6.14,2.31.39.15.9.42,1,.76C48.32,36.77,48.75,38.33,49,39.15ZM48.07,41l.2-.71-4.79-1.4-.2.63Zm-5.22-2.28-3.74-1.39A3.2,3.2,0,0,0,42.85,38.68Zm-4.44-.9.25-.6L35.78,36l-.24.58Z" fill="#fff"/><path d="M61.12,36.05c-.1.14-.31.62-.66.8-2.78,1.34-5.56,2.66-8.38,3.9-1.39.61-1.52.38-1.8-1.14a22,22,0,0,0-1.18-4c-.37-.93-.21-1.35.73-1.67C52.55,33,55.24,32,58,31.09a1.44,1.44,0,0,1,1.18.28A6.62,6.62,0,0,1,61.12,36.05Zm-5,2.23,4.73-2.2C59.59,35.7,56.41,37.15,56.11,38.28ZM51.74,39.6l.24.5a8.09,8.09,0,0,0,3.47-1.68L55.24,38Z" fill="#fff"/><path d="M197.5,19.64c-1.81.09-3.62.21-5.43.24-.26,0-.67-.41-.77-.72q-1.23-3.5-2.35-7c-.1-.32-.09-.91.11-1.08,1.38-1.11,2.78-2.19,4.25-3.17.72-.48,1.22-.2,1.52.74,1.08,3.35,2.25,6.67,3.42,10C198.58,19.52,198.41,19.89,197.5,19.64Zm-6.81-5.27c.5,1.83.92,3.4,1.39,5.12C192.75,18.17,192.05,15.4,190.69,14.37Zm-.22-.3.58-.24-1.19-2.51-.55.25Z" fill="#fff"/><path d="M194.73,21h.37c3.26.1,3.42.38,2.47,3.37-.81,2.57-1.43,5.19-2.18,7.77-.12.39-.4.92-.71,1s-.82-.21-1.16-.44c-1.19-.81-2.32-1.72-3.54-2.46-.77-.46-1-.76-.62-1.72a37,37,0,0,0,1.74-5.81c.23-1,.59-1.54,1.64-1.58.66,0,1.33-.11,2-.18Zm3.07.8c-1.31.9-2.27,4.11-1.59,5.09ZM196,27.27l-.54-.1c-.35,1.2-1,2.34-.86,3.65l.46.11Z" fill="#fff"/><path d="M222.58.29c-.2,2.55-.38,4.88-.58,7.39-1.94-.31-3.11,1.06-4.44,2.16a1.47,1.47,0,0,1-1.3.26,31.25,31.25,0,0,1-4.21-3.46c-1.18-1.24-.94-1.91.61-2.58q4-1.74,8.06-3.37A10.24,10.24,0,0,1,222.58.29ZM216.9,9.2l4.68-2.63A4.35,4.35,0,0,0,216.9,9.2Z" fill="#fff"/><path d="M170.3,39.82h3.9v-.41h-3.86V34.24c.34,0,.82,0,1.3,0,2.61-.12,5.22-.22,7.83-.4.82-.06,1.35.11,1.37,1,0,1.72,0,3.45,0,5.17,0,.73-.54,1-1.32.93-2.86-.2-5.72-.31-8.59-.49a2.63,2.63,0,0,1-.86-.36Zm9.36.48,0-.52a11.36,11.36,0,0,0-4.82-.34l0,.5Z" fill="#fff"/><path d="M168.58,3.85c0-.25,0-.5,0-.74C168.74,1.16,169,1,170.9.89c2.66-.12,5.32-.31,8-.42,1.45-.06,1.46.11,1.17,1.49a14.22,14.22,0,0,0-.28,3.68c.08,1.16-.36,1.5-1.4,1.46-2.78-.12-5.56-.25-8.35-.32a1.06,1.06,0,0,1-1.21-1c-.12-.65-.22-1.3-.33-2Zm5.17,1.48-.11.73,4.8.47.08-.65Zm-4.05.26a2.68,2.68,0,0,0,3.36,0Z" fill="#fff"/><path d="M222.63,34.38l6.88-2.78c1.23,1.1,3,2.5,4.51,4.07.89.9.71,1.32-.48,1.81-2.73,1.11-5.47,2.21-8.23,3.26-1.63.62-2.08.13-2.05-1.61a23.7,23.7,0,0,0-.5-3.8C222.71,34.93,222.65,34.52,222.63,34.38Zm11.17,2.09-.23-.51-9.65,3.86.14.41c2.47.21,4.19-1.95,6.54-2.24A5.63,5.63,0,0,0,233.8,36.47Z" fill="#fff"/><path d="M183.55,7.16l2.94,1.66-.06.12c-1.57-.61-3.15-1.19-4.7-1.86a1.23,1.23,0,0,1-.68-.89c.13-1.68.31-3.36.6-5,.13-.78.68-.85,1.42-.48,3,1.52,6.05,3,9.06,4.47a1.39,1.39,0,0,1,.74.83c0,.23-.34.6-.6.81-1.2,1-2.41,1.87-3.64,2.78a4.18,4.18,0,0,1-.8.37,6.29,6.29,0,0,0,.17-.62A.69.69,0,0,0,188,9C187.69,8.33,184.57,6.81,183.55,7.16Z" fill="#fff"/><path d="M181.89,39.9c0-1.69,0-3.38,0-5.07a1.32,1.32,0,0,1,.55-.93c1.63-1,3.29-1.94,5-2.85a1.38,1.38,0,0,1,1.13-.15c1.48,1,2.94,2,4.32,3.08.64.51.69,1-.3,1.55-3.1,1.6-6.12,3.36-9.18,5C182.41,41.1,181.84,40.83,181.89,39.9ZM188,36.49l.31.58,4.32-2.26-.32-.61Zm-3.8,2.2.39.61,3.24-1.91-.37-.62Z" fill="#fff"/><path d="M89.41,1.78c-.79,2-1.44,3.54-2.08,5.13l.56.24,2-4.5.36,0a2.91,2.91,0,0,1,.08,1.12c-1,2.82-2,5.63-3,8.44a5.87,5.87,0,0,1-.63,1l-.27-1c-.66-.2-1.18-.32-1.67-.49-.9-.32-1.77-.75-2.68-1S80.75,10,81.26,9c1.34-2.48,2.62-5,4-7.48A1.33,1.33,0,0,1,86.3.93,30.17,30.17,0,0,1,89.41,1.78ZM87.75,7.67a3.23,3.23,0,0,0-1.1,3.85Z" fill="#fff"/><path d="M100.13,23.06c-1.58,0-3.29,0-5,0-.29,0-.61-.45-.81-.75a14.1,14.1,0,0,1-.74-1.45l-.42.15.69,2.38-.23.12a4,4,0,0,1-.43-.58c-1-1.87-1.9-3.78-3-5.59-.54-.91-.42-1.5.42-1.93,1.35-.69,2.74-1.34,4.16-1.9.79-.31,1.33,0,1.69.89C97.63,17.28,98.9,20.15,100.13,23.06Zm-8.66-6.18-.55.36c.74,1,1.1,2.33,2,3.23l.46-.29Z" fill="#fff"/><path d="M80,30.89c.44-2,2.24-.69,3.13-2-.72,0-1.25,0-1.77,0-.23,0-.54-.06-.64-.2s0-.44.13-.64a24.28,24.28,0,0,1,1.34-2.33,1.73,1.73,0,0,1,1-.76c2.85-.27,5.71-.41,8.56-.69,1-.1,1.26.14,1.15,1.12a29.38,29.38,0,0,0,0,3.15H88L88,29h5.2c.24,1.16-.49,1.09-1.15,1.11-2.62.09-5.25.13-7.86.27C82.86,30.49,81.52,30.72,80,30.89Zm3.52-2.14,0,.45c1.3.41,3.1.23,3.9-.65Z" fill="#fff"/><path d="M57.05,9.88c-2.24-.73-4.47-1.47-6.7-2.15-.66-.21-1.1-.53-.91-1.22.46-1.67.92-3.34,1.52-4.95A1.16,1.16,0,0,1,52.79.93L60.23,5.3Zm-.29-.59c-.51-1.39-3.58-2.67-4.76-2Z" fill="#fff"/><path d="M224.47.52c2.88,1.34,5.72,2.64,8.53,4,.91.44.89,1,.17,1.62-1.26,1.19-2.52,2.39-3.69,3.66-.47.51-.79.62-1.36.26-1.36-.87-2.75-1.7-4.12-2.57-.15-.1-.35-.31-.34-.45.14-2,.31-4.1.48-6.14C224.15.79,224.3.71,224.47.52Zm4.11,9.05.24-.36c-.62-1.07-3.55-2.82-4.85-2.6Z" fill="#fff"/><path d="M222.08,38.47c0,2.14-.55,2.45-2,1.82-2.52-1.1-5.05-2.15-7.55-3.27-.41-.18-1-.58-1-.93s.52-.71.85-1c1-1,2.19-2,3.14-3.15.62-.74,1.13-.82,1.87-.33,1.14.76,2.29,1.49,3.41,2.27a1.19,1.19,0,0,1,.48.67C221.63,36,221.9,37.52,222.08,38.47Zm-5.67-.62L221,40C220.49,38.68,217.67,37.36,216.41,37.85Zm-3.77-2.23c.77,1.41,2.57,2.08,3.54,1.45Z" fill="#fff"/><path d="M120.36,38.79l-.58-1.52c-.45,1.79-1.62,1.31-2.6,1.36s-2,.14-3.17.23c-.1-2.29-.24-4.55-.26-6.82a1.33,1.33,0,0,1,.89-.95,54,54,0,0,1,5.69.13c.33,0,.87.78.85,1.17-.1,2.13-.34,4.26-.54,6.39ZM120,31.58c-.16,2-.29,3.72-.43,5.41C120.56,36.14,120.82,32.65,120,31.58Z" fill="#fff"/><path d="M103.18,24v3.7l-4.32.5v.47c1.53.62,3.34-.65,4.83.21l0,.55c-2.72.15-5.44.34-8.17.42a1.33,1.33,0,0,1-1-.85,34.52,34.52,0,0,1-.3-3.81c0-.83.43-1.2,1.24-1.19Zm-8,4.46,0,.35h3V28.5Z" fill="#fff"/><path d="M100.85,39.34c-1.3-2.71-2.59-5.43-4-8.3,2.16-.21,4.25-.43,6.35-.57.24,0,.63.36.76.65.82,1.85,1.59,3.73,2.4,5.65l-4.5,1.79-1.63-3.45-.48.16c.21.65.41,1.31.65,1.95s.55,1.32.82,2Zm-2.68-8.21-.56.24,1.79,3.49.48-.23A9.3,9.3,0,0,0,98.17,31.13Z" fill="#fff"/><path d="M175.36,7.71c.11,1.52.22,2.91.32,4.31.07,1-.3,1.29-1.33,1.2a27.77,27.77,0,0,0-4.56,0c-1,.08-1.45-.12-1.38-1.13.09-1.43.19-2.87.3-4.37Zm-.92,4.36.7-.09-.32-3.79-.67.06Z" fill="#fff"/><path d="M88.46,12.67l.94,1.47.36-.14a5.39,5.39,0,0,0-.36-1.28,3.63,3.63,0,0,1-.17-3.43c.62-1.43,1.11-2.9,1.78-4.67,1.43,2.46,2.68,4.59,3.91,6.74.34.6.12.91-.55,1.18-1.49.6-2.9,1.37-4.39,2a1.31,1.31,0,0,1-1.17-.24,5.2,5.2,0,0,1-.68-1.49Z" fill="#fff"/><path d="M168.39,33.27a31.66,31.66,0,0,1-.22-3.81c0-.46.58-1.26.94-1.28a42.76,42.76,0,0,1,5.31,0c.89.05,1.23.65,1.09,1.59-.16,1.11-.19,2.25-.28,3.37h-.38V28.92l-.47,0c-.09.77-.22,1.54-.27,2.32-.13,2.36.11,2.08-2.26,2-.58,0-1.16-.05-1.74-.05S169,33.24,168.39,33.27Z" fill="#fff"/><path d="M122,15.49c.06-1.51.19-3.1.18-4.7s-.19-3.22-.32-5.24c.68.78,1.13,1.27,1.56,1.79,1.08,1.32,2.15,2.64,3.2,4,.43.54.44,1-.26,1.42C124.91,13.57,123.55,14.48,122,15.49Z" fill="#fff"/><path d="M141.42,29.74c.43,0,.58-.09.74-.09,3.14,0,3.43.27,3.21,3.34,0,.48-.07,1-.11,1.44h-.48l.2-3.8-.5,0-.54,2.6Z" fill="#fff"/><path d="M72.23,26c-.82,1.22-.39,3.11-2.29,3.7C69,27.29,70,25.73,72.23,26Z" fill="#fff"/><path d="M140.44,40.72l4.8-3.56A5.69,5.69,0,0,1,140.44,40.72Z" fill="#fff"/><path d="M73.21,40.19A5.64,5.64,0,0,1,68.51,38Z" fill="#fff"/><path d="M101.73,40.15,106.4,38A5.51,5.51,0,0,1,101.73,40.15Z" fill="#fff"/><path d="M114.73,40h5.4C118.86,40.78,117,40.84,114.73,40Z" fill="#fff"/><path d="M6,40.18a5.82,5.82,0,0,1-5,0Z" fill="#fff"/><path d="M61.38,6.57l-2.8,4.1-.31-.21Q59.64,8.38,61,6.29Z" fill="#fff"/><ellipse cx="168.94" cy="37.26" rx="0.2" ry="3.29" fill="#fff"/><path d="M224.27,56.5a29.3,29.3,0,0,1,0-3.11,1.66,1.66,0,0,1,.74-1.22,7,7,0,0,1,5.56.17,1.55,1.55,0,0,1,.62,1.18c.08,3.43.08,6.86.14,10.29,0,.82-.28,1.06-1.1,1-1.77-.06-3.55,0-5.32.05-.72,0-1-.16-1-.84,0-1,.09-2.07.15-3.1.09-1.49.2-3,.3-4.46Zm6.11-3.56h-.32v5h.32Zm-.06,9.48.54-.05c-.11-1.26-.22-2.53-.32-3.79l-.61.05A11.55,11.55,0,0,0,230.32,62.42Z" fill="#fff"/><path d="M94.92,59.07c0,1.82,0,3.64,0,5.47,0,.95-.38,1.14-1.32,1.06a19.3,19.3,0,0,0-4.43,0c-1.24.19-1.52-.25-1.48-1.27.08-2.48.18-5,.28-7.45,0-1,.18-2.07.14-3.1a1.15,1.15,0,0,1,1.11-1.34,12.92,12.92,0,0,1,2.22-.26c2.69.06,3,.38,3.07,3,0,.13,0,.25,0,.38l.21,3.47Zm-1.1-5.8-.36,0v5h.36ZM94,63V59.07A3.64,3.64,0,0,0,94,63Z" fill="#fff"/><path d="M132.61,58.94v5.59c0,.91-.36,1.16-1.32,1.08a23.16,23.16,0,0,0-4.56,0c-1,.11-1.34-.13-1.31-1,.13-3.72.26-7.45.45-11.17a1.21,1.21,0,0,1,.72-.83,6.71,6.71,0,0,1,4.87.07,1.46,1.46,0,0,1,.72,1.07c.07,1.73,0,3.47,0,5.21Zm-1.46-.62c.93-1.18.73-4.53,0-5Zm.6.74c-.91,1-.69,3.34,0,3.86Z" fill="#fff"/><path d="M125.73,67.31a10.07,10.07,0,0,1,6.24,0,1,1,0,0,1,.47.83c0,3.1,0,6.21.05,9.31,0,1.69-.11,1.74-1.74,1.55a21.83,21.83,0,0,0-4.2,0c-1.2.1-1.44,0-1.38-1.2C125.35,74.39,125.53,71,125.73,67.31ZM130.82,73l.65,0,.3-5-.68,0Zm.31,3.78.68-.06c-.11-1-.21-2.07-.32-3.1l-.61.06C131,74.68,131.05,75.72,131.13,76.75Z" fill="#fff"/><path d="M153.47,64.21a10.67,10.67,0,0,1,6-.14,1.66,1.66,0,0,1,.91,1.32c-.61,3.07-.16,6.12,0,9.18.07,1.38-.27,1.54-1.62,1.42a27.09,27.09,0,0,0-4.32,0c-1,.07-1.44-.19-1.35-1.19.11-1.2.29-2.4.32-3.6C153.51,68.93,153.47,66.66,153.47,64.21Zm6,6.83c.09-1.94.17-3.55.25-5.43C158.56,66.72,158.42,69.82,159.43,71Zm-.21,4.17.39,0a3.54,3.54,0,0,0-.79-3.91C159,72.73,159.09,74,159.22,75.21Z" fill="#fff"/><path d="M43.22,64.25a10.84,10.84,0,0,1,6.23-.17,1.63,1.63,0,0,1,.88,1.33c-.6,3-.18,6,0,9,.09,1.53-.23,1.67-1.75,1.5a20.16,20.16,0,0,0-4,0c-1.42.13-1.63,0-1.55-1.4.12-2.24.33-4.47.4-6.71A35.2,35.2,0,0,0,43.22,64.25Zm5.57,6.46.54.07c.08-1.64.17-3.28.25-4.92l-.47,0A9.1,9.1,0,0,0,48.79,70.71Zm.34,4.5.39,0a3.54,3.54,0,0,0-.79-3.91C48.88,72.73,49,74,49.13,75.21Z" fill="#fff"/><path d="M91.15,66.85a2.29,2.29,0,0,1,.37,0c1,.17,2.21.06,2.86.61.45.38.09,1.69.12,2.58.08,2.4.14,4.8.29,7.19.11,1.89-.05,2-1.86,1.76a16.84,16.84,0,0,0-4,0c-1.41.15-1.61.06-1.51-1.39.15-2.39.31-4.79.46-7.18,0-.08,0-.17,0-.25,0-.92-.42-2.36,0-2.67.82-.59,2.1-.55,3.2-.77Zm3,1.1-.71,0c-.1,1.68-.19,3.36-.29,5l.65,0C93.87,71.33,94,69.64,94.11,68Zm-.27,5.63-.67.06.31,3.14.58,0C94,75.68,93.92,74.63,93.84,73.58Z" fill="#fff"/><path d="M203.93,60.14c.79-1.67,1.52-3.36,2.4-5,.43-.8,1.13-.66,1.76,0a34.73,34.73,0,0,1,7.13,9.8,1.56,1.56,0,0,1,0,1.35c-.21.26-.86.21-1.32.22-1.36,0-2.72-.1-4.07,0a1.6,1.6,0,0,1-1.86-.91,43,43,0,0,0-3.12-4.16Zm5.23,6c.13-1.57-1.71-4.17-3.09-4.43Z" fill="#fff"/><path d="M67.55,58.78c-3.37.12-6.72.28-10.08.33a1.49,1.49,0,0,1-1.08-1c0-1.88,0-3.77.16-5.65a1.12,1.12,0,0,1,.87-.69c3.43.14,6.86.36,10.13.55ZM61,57.72c1,.88,4.05.73,4.85,0Zm-.75.57-.05-.39c-1.51-.41-2.66-.21-3.25.76Z" fill="#fff"/><path d="M177.64,52.38v6.34c-2.06.12-4.12.24-6.18.34-1.12,0-2.25,0-3.37.11s-1.71-.38-1.74-1.34a38.71,38.71,0,0,1,.21-5,1.42,1.42,0,0,1,1-1C171,52,174.39,52.18,177.64,52.38ZM171,57.77l.07.54a18.54,18.54,0,0,0,4.82-.23l0-.31Zm-.69.52,0-.37c-1.4-.44-2.61-.25-3.29.73Z" fill="#fff"/><path d="M160.27,84.74h4.62c.91,0,1.21.41,1.16,1.33a40.8,40.8,0,0,0,0,4.56c0,.93-.32,1.22-1.14,1.17l-6.86-.43a12.45,12.45,0,0,0-2.11-.08A1.39,1.39,0,0,1,154.22,90a9.8,9.8,0,0,1-.19-2.22c.17-2.24.66-2.66,2.88-2.74,1.12,0,2.24-.13,3.36-.2Zm-.21,5.65c.87,1,3.74,1.18,4.78.27Zm-.9.72.1-.73-3.72-.4-.08.64Z" fill="#fff"/><path d="M50.22,84.72c1.46,0,2.92,0,4.37,0,1.06,0,1.46.39,1.36,1.51a28.32,28.32,0,0,0,0,4.32c.07,1-.26,1.31-1.17,1.25l-6.85-.43a11.12,11.12,0,0,0-2-.08,1.43,1.43,0,0,1-1.82-1.38A10.17,10.17,0,0,1,44,87.45c.25-2.08.65-2.39,2.75-2.45.58,0,1.17-.06,1.75-.1s1.16-.08,1.74-.12ZM50,90.39l-.06.73,4.81.23,0-.69Zm-.88.72.1-.74L45.44,90l-.07.64Z" fill="#fff"/><path d="M13.36,92.1c-.34,0-.71.09-1.07.1-3.15.12-3.41-.17-3.48-3.27-.06-2.65-.2-5.3-.33-8-.07-1.43.15-1.87,1.61-1.92a32.88,32.88,0,0,1,4.95.29,1.34,1.34,0,0,1,.79,1,32.81,32.81,0,0,1-.3,4.09,1.11,1.11,0,0,1-.73.76,1.85,1.85,0,0,0-1.86,2.17C13,88.89,13.2,90.4,13.36,92.1Zm2-12.12-.72,0-.3,4.95.67.05C15.12,83.28,15.23,81.63,15.35,80Z" fill="#fff"/><path d="M198,53.28c1.91,0,3.82,0,5.73,0a1.54,1.54,0,0,1,1.08.37,1.54,1.54,0,0,1,0,1.13c-.52,1.51-1.1,3-1.65,4.5-.18.5-.2,1-1,.88-2.8-.36-5.61-.66-8.42-.88-1-.07-1.46-.41-1.52-1.36,0-.21-.07-.41-.09-.62-.36-4.06-.15-4.28,3.83-4.06l2.12.1Zm4.39,6.28c-.69-1-4.06-1.39-5.14-.72Zm-5.56-1,.06-.32h-3.82l0,.32Z" fill="#fff"/><path d="M51.08,59.19c-2-.12-3.74-.18-5.47-.38a1.53,1.53,0,0,1-1.1-.89,11.84,11.84,0,0,1-.28-3.55c.24-2.1.64-2.35,2.78-2.4s4.24-.14,6.36-.12c1.6,0,1.71.3,1.56,1.88a17.88,17.88,0,0,0,0,3.8c.13,1.16-.25,1.65-1.36,1.66C52.65,59.2,51.74,59.19,51.08,59.19Zm2.65-.55.05-.72-4.92-.32,0,.68Zm-5.59-.49A1.78,1.78,0,0,0,45.23,58Z" fill="#fff"/><path d="M159.81,51.85c1.28,0,2.57-.05,3.86,0s1.49.36,1.38,1.71a20.64,20.64,0,0,0,0,3.93c.11,1.12-.17,1.71-1.32,1.68-1.87,0-3.74-.12-5.6-.2-.42,0-.83-.09-1.24-.11-2.2-.12-2.46-.37-2.61-2.61a9.27,9.27,0,0,1,0-1.49c.2-2.27.72-2.75,3-2.8.87,0,1.74,0,2.62,0ZM159,57.59l0,.55a10.78,10.78,0,0,0,4.92.29l0-.49Zm-.74.55.06-.67-2.71-.19-.05.69Z" fill="#fff"/><path d="M231.06,76.52h-6.17c-.28-3-.56-6-.83-8.93a1.11,1.11,0,0,1,1.22-1.36c1.58,0,3.16-.07,4.74-.07,1.11,0,1.56.64,1.51,1.69Q231.31,72.19,231.06,76.52Zm-.3-9.5h-.44l-.24,5h.49A10.63,10.63,0,0,0,230.76,67Zm-.68,9.08h.35V72.6h-.35Z" fill="#fff"/><path d="M12.48,71.38c.11-4.12.52-4.42,4.45-3.91,2.75.36,5.53.57,8.3.9a1.33,1.33,0,0,1,1,.56c.12.26-.12.73-.3,1-.67,1.17-1.45,2.29-2.07,3.49-.39.75-.61,1.07-1.66.81-2.73-.66-5.53-1.09-8.32-1.48C12.76,72.65,12.32,72.29,12.48,71.38ZM23,73.79c-.79-1.15-4-1.73-5.16-1Zm-9.29-2.18,0,.36a4.15,4.15,0,0,0,4.17.13Z" fill="#fff"/><path d="M131.86,90.18h-6.57c0-1.42,0-2.85,0-4.28s-.09-2.65-.2-4a1,1,0,0,1,.82-1.26,9.08,9.08,0,0,1,5.87.14,1.24,1.24,0,0,1,.65,1C132.28,84.62,132.05,87.46,131.86,90.18Zm-1-3.9c.92-.83,1.15-4.07.27-4.92Z" fill="#fff"/><path d="M67.37,85.06v6.47c-3,.12-6,.25-9,.3-.32,0-.92-.5-.92-.78,0-1.92,0-3.85.14-5.77a1,1,0,0,1,.75-.64C61.41,84.75,64.47,84.92,67.37,85.06ZM66.54,91l0-.33c-1.12-.62-4.13-.45-5,.33Zm-5.58.2-.09-.65-2.1.27.07.59Z" fill="#fff"/><path d="M177.46,91.52l-7.1.29c-.41,0-.84,0-1.24,0-1.11.18-1.74-.34-1.74-1.38,0-1.69.1-3.38.26-5.06a1.24,1.24,0,0,1,.89-.77c3,.09,6.05.27,8.93.41Zm-5.75-1,0,.65,4.93-.23,0-.42Zm-2.81.18,0,.65,2.12-.22-.05-.6Z" fill="#fff"/><path d="M87.74,90.18c-.11-2.91-.25-5.75-.31-8.6a1.15,1.15,0,0,1,.67-.83,8.52,8.52,0,0,1,6,0,1.16,1.16,0,0,1,.65.85c-.14,2.89-.36,5.78-.54,8.53ZM94,81.41l-.6,0c-.11,1.64-.21,3.29-.32,4.93l.59,0A22.17,22.17,0,0,0,94,81.41Z" fill="#fff"/><path d="M195,73.47c-.17-.59-.33-1.13-.48-1.67h-.34c-.09.6-.18,1.19-.29,1.94-2-.26-2.34,1.14-2.63,2.65a2.2,2.2,0,0,1-2.34,1,1.75,1.75,0,0,1-.58-1.4c.28-3.13.79-6.25.22-9.41-.05-.28.39-.93.62-.94,1.89-.07,3.79-.06,5.68,0,.24,0,.66.54.65.82,0,2.27-.16,4.54-.27,6.81C195.26,73.3,195.16,73.34,195,73.47ZM195,66.28c-1,.88-1.23,3.75-.38,5C194.7,69.58,194.83,67.93,195,66.28Z" fill="#fff"/><path d="M87.19,52.48c-.12,2.5-.23,4.8-.34,7.16-.72,0-1.33,0-1.94,0-2.12-.09-4.24-.23-6.36-.27-.75,0-1.2-.25-1.33-1a16.81,16.81,0,0,1-.32-2.21c-.05-2.93.32-3.28,3.23-3.37C82.41,52.74,84.69,52.6,87.19,52.48Zm-5.57,5.71,0,.66,5,.27,0-.68ZM78,58l-.07.63a5.81,5.81,0,0,0,2.93.08l0-.51Z" fill="#fff"/><path d="M124.66,52.85v5.5H119.3l0,.46,5.15.37.11.2c-.25.12-.51.34-.75.34-2.62-.11-5.24-.22-7.85-.4a1.26,1.26,0,0,1-.89-.66,7.09,7.09,0,0,1,0-5,1.38,1.38,0,0,1,.92-.79C118.82,52.82,121.72,52.85,124.66,52.85Zm-5.73,5.85c-1.22-.91-2.83-.86-3.33,0Z" fill="#fff"/><path d="M95.65,52.7l9.25.43v6.7h-9l-.06-.17,2.56-.39,0-.38a6.6,6.6,0,0,0-1.52-.13c-1,.12-1.33-.27-1.3-1.24C95.68,56,95.65,54.4,95.65,52.7Zm8.53,6.4c-1.18-.81-4.35-.68-5.1,0Z" fill="#fff"/><path d="M191.12,78.77c.63,3.46.63,3.46,3,3.62v3.94l.44,0,.48-4.2.16,0v8.09l-.5,0c-.07-1.11-.13-2.23-.2-3.34L194,87l-.27,3h-5.16c0-.33,0-.77-.05-1.21-.09-2.49-.19-5-.27-7.47S188.51,78.61,191.12,78.77Z" fill="#fff"/><path d="M133.35,58.64v-6l9.26.44V59.8h-9l0-.14,2.6-.41,0-.39Zm8.53.47v-.4h-5v.4Z" fill="#fff"/><path d="M215.34,87.26l-5.23,3c-.56-1-1.15-2.26-1.84-3.41s-1.55-2.26-2.25-3.43c-.21-.35-.35-1.12-.17-1.27A39.92,39.92,0,0,1,210,79.12a1.53,1.53,0,0,1,1.45.39C212.82,82.09,214.08,84.73,215.34,87.26Zm-5.09,1.94c.39-1.24-1.2-4-2.52-4.54Z" fill="#fff"/><path d="M15.32,63.68V59.11h.47c.06,1.52.16,3,.14,4.58,0,.2-.64.53-1,.55-1.65.06-3.3,0-4.95.06-.78,0-1.22-.13-1.18-1,.13-3.15.25-6.3.42-9.45a1,1,0,0,1,.51-.74c1-.28,2.13-.47,3.3-.71-.18,1.51-.4,2.69-.44,3.88A2.52,2.52,0,0,0,14,59a1.27,1.27,0,0,1,.46.89c.12.86.13,1.74.22,2.6,0,.42.16.82.24,1.23Z" fill="#fff"/><path d="M33.26,79.64c-1.69,0-3.38-.06-5.06-.14a1.36,1.36,0,0,1-.9-.46A29,29,0,0,1,25,76.12a2,2,0,0,1-.27-1.61,24.06,24.06,0,0,1,2.39-3.75c.61-.8,1.4-.81,2,.13,1.64,2.49,3.3,5,4.9,7.47a1.75,1.75,0,0,1,0,1.26c-.06.2-.53.28-.82.41Zm-5.11-.57c.28-1.24-1.26-3.32-2.9-3.65C26.19,76.59,27.12,77.77,28.15,79.07Z" fill="#fff"/><path d="M17.05,58.06a7.67,7.67,0,0,0-1.65,0c-1.4.26-1.86-.57-1.85-1.66A16,16,0,0,1,14,53.13c0-.22.46-.47.72-.5,2.53-.21,5.05-.41,7.58-.55a7.43,7.43,0,0,1,1.65.29c-.18.52-.37,1-.53,1.56-.36,1.18-.78,2.35-1.05,3.55-.18.84-.44,1.21-1.41,1C19.81,58.26,18.6,58.22,17.05,58.06ZM21.63,58l.08-.72-4.95-.45-.06.67Z" fill="#fff"/><path d="M174.11,68.21v6.14c-2.29.18-4.56.41-6.83.51a1.32,1.32,0,0,1-1-.78,36.92,36.92,0,0,1-.16-4.93c.05-1,.89-1.34,1.82-1.29C170,68,172.06,68.09,174.11,68.21Zm-1.41,5.53c-1-.84-4-.53-4.83.51Z" fill="#fff"/><path d="M64,68.21v6.14c-2.32.19-4.63.41-6.94.51-.31,0-.91-.55-.94-.89A33.61,33.61,0,0,1,56,69.16c.05-1,.87-1.35,1.81-1.3C59.89,68,62,68.09,64,68.21Zm-1.17,5.48c-1.14-.83-4.4-.5-5.28.61Z" fill="#fff"/><path d="M14.73,65.79c-2.14.39-2.45.61-2.87,2.8A21,21,0,0,0,11.51,72a1.41,1.41,0,0,0,1.58,1.65c1,0,1.37.43,1.35,1.41a13.43,13.43,0,0,0,.26,2l.51,0c0-.48.07-1,.06-1.44s-.08-1-.12-1.51l.53,0c0,1.09.11,2.19,0,3.27,0,.14-.74.33-1.15.33-1.56,0-3.13-.17-4.67,0-1.08.11-1.39-.19-1.3-1.16.16-1.82.4-3.64.45-5.46a24.54,24.54,0,0,0-.25-4.1c-.1-.78.15-1.12.87-1.13C11.35,65.77,13,65.79,14.73,65.79Z" fill="#fff"/><path d="M24.33,84.43a9,9,0,0,0,1.58-1.84,3.21,3.21,0,0,1,3.77-1.82,24.29,24.29,0,0,1,3.4.65c.66.2,1.16.75.52,1.54-1.79,2.22-3.55,4.48-5.38,6.68-.65.78-1.28.68-1.64-.12C25.84,87.87,25.12,86.22,24.33,84.43ZM30,86.06l.55.4,2.72-4.17-.55-.36Q31.4,84,30,86.06ZM27.2,88.92l.32.29c1.43-.71,2.4-2,1.94-2.76Z" fill="#fff"/><path d="M15.38,86.34c2.19-.49,4.33-1,6.48-1.44a1,1,0,0,1,.87.3c.86,1.54,1.71,3.09,2.43,4.69a.9.9,0,0,1-.82,1.35q-3.84.39-7.7.75a2.92,2.92,0,0,1-.7-.22l3-.7-.06-.37H16.35Zm3.73,4.13c1.06.77,4.56.5,5.37-.12l0-.37Z" fill="#fff"/><path d="M31.4,61c-1.19.33-2.39.61-3.55,1-.77.27-1.22.28-1.75-.5a14.73,14.73,0,0,0-2-1.82c-.29-.28-.71-.78-.62-1a44.52,44.52,0,0,1,1.82-5c.35-.8,1-.84,1.63-.06,1.71,2,3.51,4,5.24,6a6.21,6.21,0,0,1,.67,1.31l-1.32.43Zm-4,.82c-.31-1.69-2.08-3.25-3.47-3.14Z" fill="#fff"/><path d="M210.16,77.56c-.16.1-.36.23-.55.37-1.24.88-2.5,1.73-3.69,2.67-.54.42-.91.72-1.38,0Q203,78,201.39,75.48a1.86,1.86,0,0,1,.43-2.74l.37-.34c2.1-1.76,2.6-1.7,4.25.43C207.65,74.39,208.89,75.94,210.16,77.56Zm-5.06,2.79.41-.25a12.06,12.06,0,0,0-2.59-4.26l-.44.26Z" fill="#fff"/><path d="M43.19,85.52c-.1-2.22-.22-4.36-.29-6.5a1.53,1.53,0,0,1,1.6-1.7,40.44,40.44,0,0,1,4.12,0,1.66,1.66,0,0,1,1.7,1.79A29,29,0,0,1,50.05,83c0,.31-.59.73-.95.78-1.35.18-2.75.1-4.09.37C44.4,84.23,43.91,84.94,43.19,85.52Zm5.88-7.45c-.1,1.84-.18,3.46-.27,5.07C49.92,82.09,50,79.1,49.07,78.07Z" fill="#fff"/><path d="M153.27,85.52c-.09-2.25-.21-4.43-.27-6.61a1.43,1.43,0,0,1,1.45-1.56,42.47,42.47,0,0,1,4.37,0,1.6,1.6,0,0,1,1.58,1.75,27.32,27.32,0,0,1-.26,3.84,1.31,1.31,0,0,1-.93.8c-1.36.18-2.76.1-4.09.37C154.5,84.23,154,84.93,153.27,85.52Zm6.4-7.2-.52,0-.27,4.85.55,0A9.39,9.39,0,0,0,159.67,78.32Z" fill="#fff"/><path d="M191.21,52.39c0,2-.1,3.9,0,5.78.11,1.69.49,1.93,2.17,2,.66,0,1.32.1,2.19.18.06.92.15,1.85.16,2.78s-.48.88-1.18.85c-1.65-.05-3.3-.05-4.94,0-.74,0-1.13-.14-1.1-.92.14-3.19.18-6.4.46-9.58C189.12,52.24,190.53,52.71,191.21,52.39Zm3.34,10.92.66,0-.21-2.7-.6,0Z" fill="#fff"/><path d="M194.36,81.2c-.11-2.21-.21-4.25-.32-6.46l5.38-.73,2.76,4.89-2.2.45,0,.35h2.85l0,.49Zm5-1.13,0-.71-3.84.45.07.65Z" fill="#fff"/><path d="M210.37,75.85c.44-.67.87-1.35,1.3-2l-.51-.42-1.31,2.2c-1.29-1.73-2.29-3-3.24-4.4a1,1,0,0,1,.07-.87,21.94,21.94,0,0,1,1.37-2.08,1.08,1.08,0,0,1,.68-.43,37.17,37.17,0,0,1,4.6,0c1.85.17,2.22,1.05,1.25,2.57s-2,3.14-3,4.72c-.25.41-.44.85-.66,1.28ZM211.51,73c1.21-.23,3-3.14,2.64-4.25Z" fill="#fff"/><path d="M224.68,89.8c-.12-1.49-.22-3-.36-4.53a1.37,1.37,0,0,1,1.36-1.69,37.8,37.8,0,0,1,3.84-.09c1.24,0,1.75.79,1.68,2-.08,1.44-.22,2.87-.34,4.35Zm5-.85h.39c.74-1.28.75-4-.09-4.56C229.85,86,229.76,87.46,229.66,89Z" fill="#fff"/><path d="M30.11,70.34c.15-.56.31-1.12.47-1.68l-.28-.19-.85.91c-1-.18-2.14-.12-2.72-1.44-.17-.41-.95-.56-1.63-.93.65-1.13,1.07-2.79,2.11-3.45a6.58,6.58,0,0,1,5.53-.73c.33.11.77.9.66,1.17-.82,2-1.76,4-2.68,6a1.8,1.8,0,0,1-.39.45Zm2.82-6.74c-1.29.61-2.53,3.66-2.05,4.77C31.62,66.64,32.27,65.12,32.93,63.6Z" fill="#fff"/><path d="M161.58,74.49l2.65-.18v-.46c-.64-.06-1.29-.16-1.94-.17s-1.06-.22-1.07-1c0-1.2-.13-2.4-.23-3.59-.09-.93.35-1.29,1.23-1.24.34,0,.67,0,1,0,1.51.15,1.58.36,1.45,1.89a17.42,17.42,0,0,0,.08,3.82c.13,1-.16,1.51-1.19,1.49-.67,0-1.34-.1-2-.15Z" fill="#fff"/><path d="M51.52,74.48l2.61-.17v-.49a13.16,13.16,0,0,1-2-.18c-.36-.08-.89-.41-.92-.68A26.54,26.54,0,0,1,51,68.88c0-.34.54-.74.91-1,.2-.13.57,0,.86,0,1.9.08,2,.28,1.82,2.13a14.22,14.22,0,0,0,.11,3.57c.18,1.12-.19,1.57-1.26,1.54-.65,0-1.29-.09-1.93-.14Z" fill="#fff"/><path d="M153.57,58.49c1.48,2.31,3.72.86,5.51,1.8l.34,1.53h.37l.29-1.51h.33a7.5,7.5,0,0,1-.06,1.9c0,.16-.87.14-1.33.16-1.45,0-2.9,0-4.33.1-1.05.09-1.51-.18-1.38-1.26C153.4,60.41,153.46,59.6,153.57,58.49Z" fill="#fff"/><path d="M43.62,58.72c1.43,2,3.66.67,5.34,1.5l.43,1.62.35,0L50,60.33h.37a6.68,6.68,0,0,1-.07,1.85c-.05.18-.85.18-1.31.19-1.4,0-2.81,0-4.21.07s-1.62,0-1.51-1.44c0-.66.12-1.32.19-2C43.44,59,43.51,58.89,43.62,58.72Z" fill="#fff"/><path d="M224.22,91.17h6.59C229.84,92.5,226,92.62,224.22,91.17Z" fill="#fff"/><path d="M216,88.84a6.67,6.67,0,0,1-4.94,2.73c.34-1,1.55-.83,2.25-1.37s1.63-1.11,2.45-1.66Z" fill="#fff"/><path d="M193,75.51v5.61C192.06,80,192,77.13,193,75.51Z" fill="#fff"/><path d="M14.35,86.87,15.07,92A5.62,5.62,0,0,1,14.35,86.87Z" fill="#fff"/><path d="M131.05,91.72h-5v-.35h5Z" fill="#fff"/><path d="M178.62,91v-5H179v5Z" fill="#fff"/><path d="M68.51,90.94v-5A5.87,5.87,0,0,1,68.51,90.94Z" fill="#fff"/><path d="M42.17,73.55a5,5,0,0,1,0-4.57l.36,0Z" fill="#fff"/><path d="M151.68,73.44c.1-1.49.21-3,.31-4.48l.61,0c-.12,1.52-.23,3-.34,4.56Z" fill="#fff"/><path d="M88,91.35h5.49A6.64,6.64,0,0,1,88,91.35Z" fill="#fff"/><path d="M178.76,58.25v-5h.33A7.85,7.85,0,0,1,178.76,58.25Z" fill="#fff"/><path d="M69.06,53.27v5H68.7v-5Z" fill="#fff"/><path d="M144.07,54.15v5h-.32v-5Z" fill="#fff"/><path d="M106,54.09a6.52,6.52,0,0,1,0,5.11Z" fill="#fff"/><ellipse cx="65.34" cy="71.35" rx="0.22" ry="3.59" fill="#fff"/><path d="M175.26,73.88v-5A6.42,6.42,0,0,1,175.26,73.88Z" fill="#fff"/><path d="M189.18,91.31h5v.31A8.68,8.68,0,0,1,189.18,91.31Z" fill="#fff"/><path d="M225.94,77.77h4.17V78H226Z" fill="#fff"/></svg>