<svg xmlns="http://www.w3.org/2000/svg" viewBox="0 0 222 120"><path d="M176.49 27.14c.66-2.28-.11-4.82-.9-4.82-.06 0-.13.02-.19.05-.7.39.16 1.75-1.1 4.13-.57 1.07-.67 2.14-.21 3.24.82 1.97-.86 3.71-.96 6.24.88.13 1.68.21 2.46.21 1.09 0 2.14-.14 3.3-.46l-.63-4.97c-.09-.73-2.34-1.61-1.76-3.61z" fill="#fff"/><path d="M214.69 94.97c-.05-.18-.08-.29-.09-.36 1.1-2.59.7-5.36-1.05-7.49-.07-.82-.25-2.28-1.12-3.68 1.27-.89 2.14-2.16 2.55-3.71.26-.99.27-1.9.27-2.57v-.46c.97-1.28 1.4-2.84 1.23-4.42-.11-.99-.47-1.95-1.03-2.79.18-2.21-.56-4.61-2.11-6.69-1.26-1.7-2.98-2.66-5-2.8.96-.21 2.16-.79 3.35-1.78l1.11-.93.43-1.38.06-.2c.85-.97 1.27-1.99 1.47-2.79.32-1.28.22-2.4.14-3.21-.07-.77-.06-.87.02-1.07 1.13-2.7 1.12-5.45-.05-7.55-.9-1.62-2.43-2.71-4.19-2.99a5.99 5.99 0 0 0-3.09.34c-.5-.13-1.02-.2-1.55-.2-1.02 0-1.87.26-2.48.49l-.03-.24c1.18-1.77 1.63-3.64 1.33-5.57-.1-.64-.27-1.21-.48-1.73.82-2.75.37-5.07-.13-6.67.42-.63.72-1.33.9-2.08.37-1.54.17-3.17-.56-4.61.05-.11.1-.23.15-.34.49-1.11 1.24-2.79 1.18-5.07-.1-3.94-3.12-6.92-7.02-6.92-.21 0-.42 0-.63.03-1.94.16-3.41.85-4.49 1.36-.9.42-1.25.57-1.7.59-1.67.06-3.18.65-4.37 1.58a6.84 6.84 0 0 0-.61-.72c-1.32-1.36-3.21-2.14-5.16-2.14h-.04c-2.31 0-4.13.65-5.46 1.13-.76.27-1.37.49-1.77.49-.08 0-.34 0-.88-.23-1.68-.73-3.51-1.13-5.15-1.13-3 0-4.97 1.27-6.08 2.85l-.24-.09-.97-.33-.43-.63-.8-1.18-1.31-.57c-.98-.43-2-.65-3.04-.65s-1.86.2-2.54.43a7.634 7.634 0 0 0-3.48-.84c-1.53 0-3.06.46-4.44 1.34-.32.2-.44.2-.62.2-.28 0-.66-.05-1.11-.1-.64-.08-1.43-.18-2.32-.18-.76 0-1.48.07-2.19.22-.42.09-.82.2-1.21.35a5.764 5.764 0 0 0-3.69-1.32c-1.69 0-2.96.71-3.75 1.24-1.23-.44-2.47-.66-3.77-.66-1.31 0-2.43.22-3.32.4-.58.12-1.08.22-1.44.22-.17 0-.32-.02-.49-.08-1.26-.41-2.59-.62-3.96-.62-.78 0-1.59.07-2.39.2-1.7.28-3.1.43-4.56.46-1.68.04-3.23.74-4.33 1.95-2.1-2.28-4.38-2.82-6.03-2.82-1.2 0-2.4.28-3.57.83-1.01-.3-2.03-.45-3.04-.45-2.51 0-4.75.95-6.33 2.67-.53.58-.95 1.21-1.29 1.85-.48-1.34-1.32-2.76-2.93-3.77-.94-.59-2.02-.9-3.13-.9-1.49 0-2.65.55-3.42.91-.16.08-.37.17-.5.23-.04-.02-.09-.04-.15-.07-1.13-.6-2.37-.92-3.59-.92-1.69 0-3.29.6-4.54 1.69-.84-.28-1.89-.56-3.15-.57-1.24 0-2.42.28-3.52.85-.26.13-.51.28-.75.45l-.03-.03-.77-.43c-1.88-1.04-3.88-1.64-5.94-1.78-1.44-.5-2.95-.76-4.5-.76-2.29 0-4.54.57-6.58 1.65l-1.91-.74c-.75-.29-1.56-.44-2.41-.44-1.66 0-3.24.54-4.44 1.51-.63-.21-1.35-.33-2.16-.33a11 11 0 0 0-1.44.11c-.18.02-.36.04-.47.05-.02-.01-.05-.03-.09-.05-1.68-1.03-3.4-1.53-5.25-1.53-1.23 0-2.34.22-3.16.42-.56.13-1.23.18-1.94.23-1.14.08-2.44.17-3.77.64-2.08.74-3.62 2.22-4.47 4.27-.06.14-.25.39-.6.66-1.71 1.3-2.81 3.01-3.26 5.06-.32 1.46-.26 2.8-.21 4.1.03.75.06 1.45.02 2.17-.02.17-.12.6-.19.88-.21.87-.47 1.95-.46 3.12.03 2.08.98 3.89 2.56 4.99.48 2.25 1.54 3.71 2.56 4.75-1.15.51-2.21 1.36-2.86 2.57-1.36 2.55-.41 4.82-.05 5.67.04.11.1.25.12.31 0 .02 0 .07-.01.14l-.28 2.18c-.3 2.33 1.07 4.08 1.49 4.57.78.88 1.76 1.46 2.84 1.69a5.42 5.42 0 0 0 2.57 3.17c1.03.57 2 .69 2.65.78.19.02.61.15.71.26.06.08.13.15.2.22l-2.38.29c-2.81.34-5.05 2.04-6.14 4.68-.06.14-.2.28-.68.71-1.21 1.08-3.46 3.1-3.42 7.17l.04 3.96-.57 2.86c-.46 2.33.61 4.87 2.48 6.26.47 2.27 1.54 3.74 2.57 4.78-1.15.51-2.21 1.36-2.86 2.56-1.36 2.55-.41 4.82-.05 5.67.04.11.1.25.12.31 0 .02 0 .07-.01.14l-.28 2.19c-.3 2.32 1.07 4.08 1.49 4.56.78.88 1.76 1.46 2.84 1.69a5.42 5.42 0 0 0 2.57 3.17c1.03.57 2 .69 2.65.78.19.02.44.06.52.08.02.02.09.07.18.18 1.18 1.38 2.93 2.17 4.8 2.17.58 0 1.16-.08 1.72-.23.38-.1.74-.13 1.16-.16.46-.04.97-.08 1.56-.22 1.64-.4 2.93-1.41 3.65-2.85.2-.41.34-.8.45-1.17a9.13 9.13 0 0 0 1.86-1.28l1.43-1.32.07-.93c.72-.35 1.37-.79 1.91-1.31.16.11.31.21.47.31 0 .36.02.74.07 1.15.27 1.96 1.27 3.64 2.9 4.87l.62.47c.16.24.35.48.58.73 1.17 1.28 2.8 1.98 4.57 1.98.15 0 .29 0 .44-.01l.68-.04.55.7 3.42-1.34c.12-.05.24-.1.35-.15.67.29 1.41.45 2.18.45 1.53 0 3.78-.66 5.1-2.54l.59-.85.09-.44c.11-.08.22-.17.32-.24.46-.33 1.04-.76 1.61-1.33.49.31 1.02.57 1.58.75.36.78.95 1.7 2 2.4.9.6 1.96.92 3.08.92.15 0 .3 0 .44-.02 1.03 1.04 2.46 1.83 4.05 1.89h.21c1.53 0 2.97-.68 4.02-1.6 3.73-.06 5.04-2.71 5.35-3.53v-.01c.72-.45 1.39-1.03 1.97-1.71.86-1.01 1.5-2.2 1.86-3.44.43 2.4 2.21 4.35 4.52 5.09.36.78.95 1.7 2 2.4.9.6 1.96.92 3.08.92.15 0 .3 0 .44-.02 1.03 1.04 2.46 1.83 4.05 1.89h.21c1.53 0 2.97-.68 4.02-1.6 3.73-.06 5.04-2.71 5.35-3.53v-.01c.7-.44 1.35-1 1.93-1.66.22.72.55 1.42.98 2.06.78 1.13 1.83 1.96 3.02 2.4a5.488 5.488 0 0 0 4.24 2.84c.18.02.35.03.53.03 1.28 0 2.53-.48 3.61-1.39 1.18-.99 1.89-2.3 2.02-3.7a5.7 5.7 0 0 0 2.09-2.3c.66-1.35.74-2.92.23-4.41l-.12-.35c.79-.98 1.59-2.41 1.72-4.33l.21-.12c.47.14 1 .23 1.58.23.74 0 1.46-.15 2.15-.43.72-.3 1.29-.7 1.74-1.12.1.19.21.37.33.55-.16.47-.36.98-.57 1.52-1.57 4.04-1.36 8.12.55 10.92 1.28 1.87 3.21 2.94 5.29 2.94.73 0 1.46-.14 2.15-.4.17.01.33.02.5.02h.01c.97.97 2.31 1.55 3.75 1.55 1.02 0 2.16-.31 3.16-.9 1.14 1.43 2.78 2.24 4.58 2.24.55 0 1.1-.08 1.64-.23 1.88-.52 3.3-1.76 3.99-3.47.08-.19.14-.38.19-.56.88 1.16 2.14 1.92 3.58 2.11l.92 1.74 3.47-.55c2.2-.35 3.95-1.63 4.81-3.51.28-.62.43-1.23.51-1.77.23-.21.45-.43.65-.67l2.54 3.43.49.66.68.47c.9.62 1.99.95 3.14.95 2.34 0 4.34-1.23 5.21-3.21.15-.34.26-.67.35-.99.68-.34 1.41-.85 2.03-1.61.57 1.64 1.92 2.87 3.69 3.33.5.13.95.17 1.3.21.22.02.54.05.63.1 0 0 .04.03.11.11 1.18 1.42 2.91 2.21 4.86 2.21.4 0 .8-.03 1.23-.09l2.12-.32h.07c.26-.05.7-.11 1.2-.25 2.1-.59 3.07-1.99 3.46-2.78.2-.41.34-.8.45-1.17.74-.39 1.4-.86 1.86-1.29l1.43-1.32.07-.93c3.12-1.5 4.73-4.84 3.78-8.11l-.61-2.1zm-24.28-69.19c-.72-.69-1.23-1.38-1.02-2.48l.55-2.95-.07-5.58c-.02-1.36 1.1-2.33 2.41-2.38 2.75-.11 4.13-1.77 6.4-1.95h.23c1.24 0 2.07.85 2.1 2.12.08 2.93-2.59 4.22-.83 7.43.47.85.25 1.88-.58 2.34-2.24 1.24 1.43 3.72-.03 7.79l-1.31-.23c.75 2.32 2.87 3.54 1.08 6.04-.56.78-.94 1.87-.75 2.8.5 2.43-.05 4.05.52 6.02.74-.7 1.32-1.01 2.06-1.01.25 0 .52.04.82.1.35.08.67.11.96.11 1.46 0 2.33-.8 3.1-.8.25 0 .48.08.72.3.33.29.62.4.89.4.78 0 1.36-.91 2.11-.91.05 0 .1 0 .14.01.9.14 1.31 1.81.48 3.77-1.29 3.07.8 4.85-1.38 6.22l-.47 1.49c-.36.3-.67.42-.96.42-1.04 0-1.67-1.57-2.49-1.57h-.02c-.8.02-.91 1.05-1.84 1.33-.03.01-.07.02-.1.02-.45 0-.53-1.09-1.23-1.72-.15-.13-.52-.22-.85-.22-.25 0-.48.05-.55.19-.18.33-.46.96-.75.96h-.02c-1.18-.15-1.42-.91-2.21-.91h-.03c-.74.02-.41 1.56-1 1.9a.34.34 0 0 1-.19.05c-.46 0-.94-.88-1.76-1h-.08c-.76 0-1.52 1.48-2.39 1.48-.09 0-.18-.02-.27-.05-.42-.15-.64-1.24-.65-1.7l-.12-3.29c-.05-1.37-.34-2.35.36-3.63.49-.9.88-2.64 0-3.34l-1.02-.82c-.79-.64 1.39-2.8-.3-5.74-2.24-3.89.65-6.8.34-11zM61.49 15.49c.21-1.12.99-2.12 1.73-2.5.43-.22.85-.3 1.27-.3 1.38 0 2.7.93 3.97.93.7 0 1.39-.29 2.05-1.19.44-.6 1.04-.87 1.67-.87.42 0 .86.12 1.28.34.94.5 1.75.68 2.47.68 1.82 0 2.99-1.17 3.92-1.17.18 0 .35.04.51.15 1.46.92 1.09 3.47 2.01 5.54.48 1.07.85 1.81.32 3.07-1.13 2.68.43 3.1.24 4.24-.07.4-.76.9-1.23.9h-.09l-1.29-1.71-1.14-.02-.9-1.58c-.19-.09-.39-.13-.59-.13-.78 0-1.63.57-2.08 1.18-.35.47-.74.62-1.13.62-.65 0-1.29-.42-1.67-.42-.21 0-.34.13-.36.52l-.13 3.21c-.02.53-.23 1.35 0 1.73.34.53.86.72 1.49.72 1.48 0 3.56-1.04 5.31-1.04.19 0 .37.01.55.04.65 1.39.47 2.55.66 4l.58 4.4c.04.31-.38.9-.63.97-.07.02-.12.03-.18.03-.49 0-.55-.73-1.51-.73-.23 0-.52.04-.88.15-.12.04-.37.08-.6.08-.2 0-.38-.03-.42-.13l-.42-.86-.32-.66s-.07-.06-.14-.06c-.15 0-.36.08-.46.16-.24.17-.47.23-.69.23s-.47-.06-.73-.11c-1 0-1.02 1.57-.66 2.31.51 1.04.18 1.96-.93 2.5l1.18 2.71c-.73 1.12-.92 2.75-.49 3.97.32-.05.61-.07.87-.07 1.62 0 2.43.75 3.15.75.05 0 .1 0 .15-.01.69-.11-.22-1.53 1.34-2.49l2.31-1.43c.13-.08.27-.12.41-.12.34 0 .67.22.81.56l.6 1.42c1.06 2.51-.9 2.4-1.24 4.55.53.91.75 1.84-.1 2.6l-1.55 1.37c-1.01.89.34 2.42-1.25 2.86-.12.03-.23.05-.33.05-1.26 0-1.2-2.41-1.87-2.56-1.74-.41-3.12.33-4.37-1.12l-.43 1.7c-.08.3-.66.65-1.05.65-.15 0-.27-.05-.32-.17l-.72-1.66c-.11-.25-.48-.68-.74-.75-.06-.01-.12-.02-.17-.02-.69 0-1.03 1.05-1.82 1.05-.13 0-.27-.03-.43-.09l-.89-.37h-.04c-.22 0-.52.57-.73.69-.18.11-.37.16-.56.16-1.46 0-2.86-3.07-1.26-7.16.7-1.79 1.37-3.6 1.48-5.62-.52-.05-1-.1-1.25-.28-1.01-.75.7-2.39-.17-6.37-.59-2.72 1.72-5.41-.42-7.2-.74-.62-1.1-1.78-.69-2.71 1.67-3.75-.96-6.38-.26-10.06zM34.22 73.82c-1.79 2.09-.11 4.67-1.77 5.66a.32.32 0 0 1-.19.05c-.59 0-1.15-1.53-1.85-1.6h-.05c-.66 0-1.03 1.31-1.86 1.31h-.04c-.28-.01-.79-.45-.91-.72l-.96-2.2c-.41-.95-1.38-1.69-2.44-1.69-.23 0-.46.03-.69.11-1.1.36-1.97 1.67-2.18 2.59-.62 2.7 1.77 4.9 4.5 6.05l4.4 1.87c2.34 1 .7 3.26 2.22 4.67.85.79 1.09 1.75.62 2.8-.53 1.2-.47 2.35-.1 3.63l.61 2.1c.33 1.15-.46 2.06-1.48 2.42-1.34.47-2.3 1.47-2.41 2.95-.34.31-1.11.76-1.57.85-1.94.38-1.31 2.03-1.81 3.03-.25.51-1.44.19-3.25.68-.14.04-.28.06-.43.06-.4 0-.81-.15-1.07-.46-2.5-2.9-5.12-1.22-4.98-2.78.13-1.46-.94-3.16-2.58-3.16-.11 0-.22 0-.34.02l-.7.1h-.01c-.2 0-.53-.6-.5-.81l.28-2.19c.34-2.67-1.17-3.36-.6-4.44.15-.28.84-.57 1.27-.57.08 0 .15.01.21.03l3.22 1.29c.98.39 1.64 1 1.61 2.24-.03.95.9 2.51 1.97 2.51.14 0 .28-.03.42-.08 1.96-.79 3.5-2.54 4.55-4.3-1.21-.65-2.05-1.22-2.6-2.27l-1-1.91c-.44-.84-1.07-.98-1.74-.98-.33 0-.67.03-1 .03-.64 0-1.25-.13-1.68-.9-1.71-3.11-4.47-2.84-4.62-6.95l-.08-2.09c-.56.3-.94.48-1.26.48-.09 0-.18-.02-.27-.05-.43-.17-.82-.95-.73-1.43l.67-3.36-.05-4.47c-.03-3.2 2.58-3.15 3.73-5.95.4-.97 1.08-1.54 2.18-1.67l4.58-.55c.8-.1 1.5-.2 2.17-.2.83 0 1.63.16 2.54.72 1.01.62 1.87.77 2.61.77s1.39-.16 1.95-.16c.5 0 .94.12 1.36.59.95 1.07 1.67 2.72 1.28 4.15-.24.88-.35 1.53.47 2.13.68.5.94 1.36.34 2.06zm-1.05-46.6c-.06.04-.13.06-.19.06-.59 0-1.14-1.53-1.85-1.6h-.05c-.66 0-1.03 1.31-1.86 1.31h-.04c-.28-.01-.79-.45-.91-.72l-.96-2.21c-.41-.95-1.38-1.69-2.44-1.69-.23 0-.46.03-.69.11-1.1.36-1.97 1.67-2.18 2.59-.62 2.7 1.77 4.9 4.5 6.05l4.4 1.87c2.34 1 .7 3.26 2.22 4.67.85.79 1.09 1.75.62 2.8-.53 1.2-.47 2.35-.1 3.63l.61 2.1c.33 1.15-.46 2.06-1.48 2.42-1.34.47-2.3 1.47-2.41 2.95-.34.31-1.11.76-1.57.85-1.94.38-1.31 2.03-1.81 3.03-.25.51-1.44.19-3.25.68-.14.04-.28.06-.43.06-.4 0-.81-.15-1.07-.46-2.5-2.9-5.12-1.22-4.98-2.78.13-1.46-.94-3.16-2.58-3.16-.11 0-.22 0-.34.02l-.7.1h-.01c-.2 0-.53-.6-.5-.82l.28-2.18c.34-2.66-1.17-3.36-.6-4.44.15-.28.84-.57 1.27-.57.08 0 .15.01.21.03l3.22 1.29c.98.39 1.64 1 1.61 2.24-.03.95.9 2.51 1.97 2.51.14 0 .28-.03.42-.08 1.96-.79 3.5-2.54 4.55-4.3-1.21-.65-2.05-1.21-2.6-2.27l-1-1.91c-.44-.84-1.07-.98-1.74-.98-.33 0-.67.03-1 .03-.64 0-1.25-.13-1.68-.9-1.71-3.11-4.47-2.84-4.62-6.95l-.08-2.09c-.56.3-.94.48-1.26.48-.09 0-.18-.02-.27-.05-1.49-.57-.16-3.05-.06-4.79.2-3.52-.83-5.95 1.51-7.72.92-.7 1.72-1.61 2.17-2.7 1-2.42 3.76-1.51 6.76-2.23.74-.17 1.39-.29 2.03-.29.88 0 1.72.22 2.68.8 1.01.62 1.87.77 2.61.77s1.39-.16 1.95-.16c.5 0 .94.12 1.36.59.95 1.07 1.67 2.72 1.28 4.15-.24.88-.35 1.53.47 2.13.68.5.94 1.36.34 2.06-1.79 2.09-.11 4.66-1.77 5.66zm24.61 73.88c1.66 3.69-2.89 3.43-3.51 6.51-.15.22-.7.44-1.07.44-.12 0-.22-.02-.28-.08l-.98-.96c-.23-.22-.56-.58-.77-.71a.28.28 0 0 0-.17-.05c-.53 0-1.05 1.42-2.11 1.84-.64-.82-.19-1.74-.98-2.51-.11-.11-.39-.17-.67-.17-.34 0-.67.09-.73.29l-.79 2.75h-.13c-1.07 0-1.25-.91-1.66-1.69l-.35-.67s-.06-.05-.11-.05c-.18 0-.53.16-.69.23-2.09-1.58-.18-3.85-.89-4.92-.62-.93-2.19-.93-2.9-1.7-.34-.36-.24-1.33-.13-1.83.59-2.64-3.02-3.81-2.01-7.35.29-1.01-.04-2.14-.91-2.72-2.55-1.69.59-3.65 1.58-7.06.34-1.15-.15-1.63-.89-2.39-.61-.62-.15-2.11.39-2.75l1.76-2.09c.65-.77.4-1.8.4-2.58l1.67-3.16c.48-.91.73-2.07 1.41-2.81.71-.77 1.69-1.07 2.7-1.07.59 0 1.18.1 1.72.27.47.15.94.22 1.4.22.65 0 1.28-.14 1.88-.45.58-.29 1.11-.43 1.61-.43 2.77 0 4.29 4.17 5.6 7.36.36.87.9 1.78 1 2.73.26 2.4-2.96 3.99-1.88 6.79.11.28-.14.94-.36.95h-.08c-.95 0-.69-1.37-2.77-1.83-.76-.17.35-2.28-.59-2.52-.06-.02-.12-.02-.18-.02-.51 0-.67.66-1.47.77h-.02c-.21 0-.63-.46-.65-.66l-.22-2.19c-.05-.53-.36-1.09-.74-1.17a.875.875 0 0 0-.16-.02c-.49 0-1.11.41-1.15.89l-.22 2.61c-.02.23-.3.82-.49.82h-.03l-1.05-.45c-1.23.11-1.63 1.97-1.23 3.03l.96 2.48c.52 1.35-1.22 1.93-1.36 2.67-.22 1.21 1.82 1.63 2.04 4.67l.25 3.45c.13 1.79 1.5 2.58 3.09 2.58h.24c3.73-.18 3.22-3.32 4.41-4.04.09-.05.24-.08.4-.08.3 0 .65.08.8.2l.47.38s.07.04.1.04c.27 0 .58-.76 1.14-.85h.02c.24 0 .71.49.74.72.35 2.89-1.9 5.07-.43 8.33zm-1.13-62.97c-1.22.95-1.06 2.02-1.84 2.34-.08.03-.17.05-.25.05-.63 0-1.21-.92-2.01-.92h-.08c-1.29.1-1.51 1.41-2.32 1.46h-.03c-.8 0-.51-1.81-1.38-2.51-1.59 1.3-1.58 3.16-1.09 4.91 1.08 3.81-2.66 3.78-2.05 5.56l.9 2.6c.44 1.26-1.4 1.09-2.47 1.89.2 1.76-.06 3.37-.78 3.37h-.06c-1.04-.12-.21-2.45-2.77-2.52-.98-.03-1.62-1.63-1.31-2.51l.89-2.5c.3-.85.27-1.77-.11-2.61-1.8-3.94-.39-7.94-.97-10.7-.37-1.75-.95-3.08-.43-4.96.59-2.11 1.07-5.26-.61-6.59-.34.61-.57 1.17-.9 2.01-2.06-1.6-.31-3.96-.75-5.77-.3-1.24-.39-2.29-.04-3.49.71-2.48-.91-3.95.43-5.29.32-.32.91-.5 1.44-.5.23 0 .45.03.63.1l2.6 1.01c.4.16.82.24 1.23.24.58 0 1.16-.16 1.7-.48a9.134 9.134 0 0 1 4.73-1.34c1.19 0 2.37.24 3.49.72h.03c1.66 0 3.16.44 4.54 1.2 2.05 2.38 2.92 5.27 2.49 8.35-.22 1.59-.06 3.23.23 4.78.64 3.46-1.85 5.13-1.48 6.98.41 2.04.05 3.8-1.63 5.11zm26.89 52.53c.37 1.6.45 3.24.17 4.88-.29 1.7-2.34 1.78-2.86 5.8-.2 1.56-1.47 3.06-2.82 3.27h-.04c-.2 0-.61-.17-.79-.17-.05 0-.09.02-.09.06v.87c0 .48.03.98-.08 1.27-.12.31-.45.37-.88.37-.25 0-.54-.02-.84-.02-.73 0-1.52.12-2.01.96-.16.27-.74.66-1.05.66h-.01c-.35-.01-.94-.53-1.07-.87-.4-1.06-1.03-1.33-1.69-1.33-.71 0-1.44.32-1.93.32-.13 0-.24-.02-.33-.08-.68-.46-.32-2.91-2.55-2.91H64.56c-.83 0-1.69-.6-1.76-1.51l-.22-2.65c-.09-1.07-.88-1.49-1.83-1.61-.16-1.48-.35-3.09-.8-4.51L58.6 89.2c-.22-.7.22-1.91.46-2.62 1.17-3.48-.58-5.59.05-7.35.54-1.51 1.94-2.77 2-4.41l.08-2.4c3.26-1.06 2.92-4.7 5.01-5.69l4.44-2.1c.97-.46 2-.94 3.09-.94.13 0 .26 0 .39.02 1.85.2 3.4 1.17 4.59 2.57l2.93 4.63c.53.84 1.08 1.36 1.21 2.42.54 4.21-1.29 5.89.96 8.84 1.57 2.05-1.2 4.44-.27 8.49zm1.88-52.46c.29-1.01-.04-2.14-.91-2.72-2.55-1.69.59-3.65 1.58-7.06.34-1.15-.15-1.63-.89-2.39-.61-.62-.15-2.11.39-2.75l1.76-2.09c.64-.76.41-1.8.39-2.58 1.58-2.15 1.94-4.72 3.08-5.97.71-.77 1.69-1.07 2.7-1.07.59 0 1.18.1 1.72.27.47.15.94.22 1.4.22.65 0 1.28-.14 1.88-.45.58-.29 1.11-.43 1.61-.43 2.77 0 4.29 4.17 5.6 7.36.36.87.9 1.78 1 2.73.26 2.42-2.97 3.96-1.87 6.83.1.25-.15.9-.37.92h-.07c-.97 0-.65-1.34-2.78-1.82-.75-.17.35-2.28-.59-2.52-.06-.02-.12-.02-.18-.02-.51 0-.67.66-1.47.77h-.02c-.21 0-.63-.46-.65-.66l-.22-2.19c-.05-.53-.36-1.09-.74-1.17-.05-.01-.1-.02-.16-.02-.49 0-1.11.41-1.15.89l-.22 2.61c-.02.23-.3.82-.49.82h-.03l-1.05-.45c-1.22.11-1.63 1.98-1.22 3.03l.96 2.48c.52 1.35-1.22 1.93-1.36 2.67-.22 1.21 1.82 1.63 2.04 4.67l.25 3.45c.13 1.79 1.5 2.58 3.09 2.58h.25c3.74-.19 3.21-3.32 4.41-4.04.09-.06.24-.08.4-.08.3 0 .64.08.79.2l.48.39s.07.04.1.04c.27 0 .58-.76 1.14-.85h.02c.24 0 .71.49.74.72.35 2.89-1.9 5.07-.43 8.33 1.66 3.69-2.89 3.43-3.51 6.51-.15.22-.7.44-1.07.44-.12 0-.22-.02-.28-.08l-.98-.96c-.23-.22-.56-.58-.77-.71a.28.28 0 0 0-.17-.05c-.52 0-1.04 1.4-2.11 1.85-.63-.85-.19-1.75-.98-2.53-.11-.11-.39-.17-.67-.17-.34 0-.68.09-.73.29l-.79 2.75h-.13c-1.07 0-1.25-.91-1.66-1.69l-.35-.67s-.06-.05-.11-.05c-.18 0-.53.16-.69.23-2.09-1.58-.18-3.85-.89-4.92-.62-.93-2.21-.94-2.9-1.7-.34-.38-.25-1.31-.13-1.83.58-2.65-3.02-3.81-2.01-7.35zm25.62 52.46c.37 1.6.45 3.24.17 4.88-.29 1.7-2.34 1.78-2.86 5.8-.2 1.56-1.46 3.06-2.82 3.27h-.04c-.2 0-.61-.17-.79-.17-.05 0-.09.02-.09.06v.87c0 .48.03.98-.08 1.27-.12.31-.45.37-.88.37-.25 0-.54-.02-.84-.02-.73 0-1.52.12-2.01.96-.16.27-.74.66-1.05.66h-.01c-.35-.01-.94-.53-1.07-.87-.4-1.06-1.03-1.33-1.69-1.33-.71 0-1.44.32-1.93.32-.13 0-.24-.02-.33-.08-.68-.46-.32-2.91-2.55-2.91H92.06c-.83 0-1.69-.6-1.76-1.51l-.21-2.65c-.09-1.08-.88-1.48-1.82-1.61-.16-1.47-.36-3.09-.8-4.5l-1.36-4.26c-.22-.7.22-1.91.46-2.62 1.17-3.48-.58-5.59.05-7.35.54-1.51 1.94-2.77 2-4.41l.08-2.4c3.26-1.06 2.92-4.7 5.01-5.69l4.44-2.1c.97-.46 2-.94 3.09-.94.13 0 .26 0 .39.02 1.85.2 3.4 1.17 4.59 2.57l2.93 4.63c.53.84 1.08 1.36 1.21 2.42.54 4.21-1.29 5.89.96 8.84 1.57 2.05-1.2 4.44-.27 8.49zm1.16-66.54c-.23 0-.65.29-.65.46l-.03 1.57c0 .26-.53.68-.78.68-1.23 0-2.18-3.35-1.48-4.73.79-1.58 1.18-2.89.71-4.66-.63-2.39-1.1-5.33.65-5.37 1.83-.04 3.49-.23 5.26-.52.53-.09 1.05-.14 1.58-.14.82 0 1.64.12 2.44.38.72.24 1.38.32 2.01.32 1.69 0 3.12-.62 4.77-.62.79 0 1.64.14 2.59.57.54.24 1.01.34 1.43.34 1.65 0 2.52-1.48 3.5-1.48.07 0 .15 0 .22.03 1.05.25 1.06 2.53.27 4.62-.59 1.56-.5 2.87.05 4.41l1.13 3.13c.32.9-.05 2.34-.68 2.93-.07.07-.25.1-.44.1-.25 0-.51-.06-.55-.18-.09-.25-.19-.78-.2-1.08l-.04-1.12c0-.25-.61-.59-.98-.59-.09 0-.16.02-.21.06l-1.28 1.15-.76-2.02c-.11-.29-.51-.81-.79-.87-.06-.01-.11-.02-.16-.02-.73 0-.95 1.11-2.13 1.11-.16 0-.34-.02-.55-.07a.761.761 0 0 0-.21-.03c-1.22 0-1.46 2.8-.93 4.68.35 1.24.48 2.24-.16 3.45-.61 1.15-.85 2.45-.31 3.7l1.01 2.34c1.6 3.7-1.97 5.63-.27 10.11.55 1.44-1.14 2.01-2.03 3.66l-1.06-.52c-.14 2.41 1.61 4.62-.93 6.04l-.62-1.71-.31-.71c-.06-.13-.21-.17-.41-.17-.4 0-.99.17-1.43.17-.19 0-.35-.03-.46-.12-.2-.17-.34-.82-.35-1.1l-.05-2.75-1.72-.89c-.8-2.77 1.56-4.07.6-7.44-.33-1.17.16-2.47.65-3.58 1.01-2.3 1.58-4.82-.49-5.11-.47-.06-1.03-.71-.93-1.21l.69-3.34c.28-1.38.44-2.88-.5-4.1-.16-.2-.58-.29-.95-.29-.2 0-.38.03-.51.07-1.3.5-1.02 2.1-1.91 2.1h-.08c-.96-.09-.63-1.15-1.14-1.58-.02-.02-.06-.03-.1-.03zm22.71 61.16c.41 2.04.05 3.8-1.63 5.11-1.22.95-1.06 2.01-1.84 2.34a.56.56 0 0 1-.25.05c-.63 0-1.2-.92-2.02-.92h-.08c-1.25.09-1.49 1.41-2.3 1.46h-.04c-.8 0-.51-1.81-1.38-2.51-1.59 1.3-1.58 3.16-1.09 4.91 1.08 3.81-2.66 3.78-2.05 5.56l.9 2.6c.44 1.26-1.4 1.09-2.47 1.89l-.09 2.74c0 .21-.52.63-.73.63h-.01c-1.04-.11-.2-2.44-2.77-2.51-.98-.03-1.62-1.64-1.31-2.51l.89-2.5c.3-.85.27-1.77-.11-2.61-1.8-3.94-.39-7.94-.97-10.7-.37-1.75-.95-3.08-.43-4.96l.53-3.35c.19-1.22-.06-2.23-1.14-3.24l-.9 2.01c-2.06-1.6-.31-3.96-.75-5.77-.3-1.24-.39-2.29-.04-3.49.71-2.48-.91-3.95.43-5.29.32-.32.91-.5 1.44-.5.23 0 .45.03.63.1l2.6 1.01c.4.16.82.24 1.23.24.58 0 1.16-.16 1.7-.48a9.134 9.134 0 0 1 4.73-1.34c1.19 0 2.37.24 3.49.72h.03c1.66 0 3.16.44 4.54 1.2 2.05 2.38 2.92 5.27 2.49 8.35-.22 1.59-.06 3.23.23 4.78.64 3.46-1.85 5.13-1.48 6.98zm23.14 17.51c.53.91.74 1.84-.11 2.6l-1.54 1.37c-1.01.9.34 2.42-1.25 2.86-.11.03-.22.05-.32.05-1.28 0-1.25-2.52-1.88-2.57l-2.35-.17c-.86-.06-1.37-.34-2.02-.95l-.43 1.7c-.08.3-.66.65-1.05.65-.15 0-.27-.05-.32-.17l-.72-1.66c-.11-.25-.48-.68-.74-.75-.06-.01-.12-.02-.17-.02-.69 0-1.03 1.05-1.82 1.05-.13 0-.27-.03-.43-.09l-.88-.37h-.04c-.22 0-.53.57-.73.69-.18.11-.37.16-.56.16-1.46 0-2.85-3.07-1.26-7.16.7-1.79 1.37-3.6 1.48-5.62-.52-.05-1-.1-1.25-.28-1.01-.74.7-2.42-.17-6.38-.6-2.71 1.72-5.4-.42-7.19-.74-.62-1.1-1.78-.68-2.71 1.67-3.75-.96-6.38-.26-10.06.21-1.12.99-2.12 1.73-2.5.43-.22.85-.3 1.27-.3 1.38 0 2.71.93 3.97.93.7 0 1.39-.29 2.05-1.18.45-.61 1.03-.87 1.66-.87.43 0 .87.12 1.3.34.98.5 1.82.68 2.53.68 1.82 0 2.89-1.16 3.83-1.16.13 0 .26.02.39.08.36.15.9.69 1.02 1.18l1.14 4.43c.29 1.12.85 1.81.32 3.07-1.13 2.68.43 3.1.24 4.24-.07.39-.76.9-1.23.9h-.08l-1.29-1.72-1.14-.02-.9-1.58c-.19-.09-.39-.13-.59-.13-.78 0-1.63.57-2.08 1.18-.35.47-.75.62-1.13.62-.65 0-1.29-.42-1.67-.42-.21 0-.34.13-.36.51l-.13 3.21c-.02.53-.24 1.35 0 1.73.34.53.86.72 1.49.72 1.48 0 3.56-1.04 5.31-1.04.19 0 .37.01.55.04.65 1.39.47 2.55.66 4l.58 4.4c.04.31-.38.89-.63.97-.07.02-.13.03-.18.03-.48 0-.55-.74-1.51-.74-.23 0-.52.04-.88.15-.12.04-.37.08-.59.08-.2 0-.38-.03-.42-.13l-.43-.86-.32-.65s-.08-.06-.15-.06c-.15 0-.36.08-.46.16-.24.17-.47.23-.69.23s-.47-.06-.73-.11c-1 0-1.02 1.57-.66 2.31.51 1.04.18 1.96-.93 2.51l1.18 2.69c-.75 1.2-.85 2.67-.52 4.03.37-.07.71-.11 1.02-.11 1.51 0 2.32.74 3.04.74.05 0 .1 0 .15-.01.69-.11-.22-1.53 1.34-2.49l2.31-1.43c.13-.08.27-.12.41-.12.34 0 .67.22.81.56l.6 1.42c1.06 2.51-.9 2.4-1.24 4.54zm.51-49.64c-.54.51-.04 1.54-.49 2.56-.07.17-.42.27-.71.27-.14 0-.27-.03-.35-.08l-3.03-4.09c-.53-.72-1.32-1.8-1.08-2.62.38-1.33.22-2.23-.88-3.03-3.46-2.54.63-5.89-4.48-7.46l-.45 2.43c-.24 1.29-.24 2.2.36 3.48l-.99 3.48c-.14.49.28 1.53.48 2 .52 1.2.11 2.3-1.07 2.74-1.89.7.31 3.28-2.1 3.68l-.92-1.73h-.04c-.35 0-.94.2-1.33.32l-.72.22h-.02c-.16 0-.39-.43-.44-.62l-1.11-3.54c-.41-1.29-.55-2.31.1-3.6.69-1.37.83-2.99.07-4.34-1.95-3.49 1.48-7.04.48-9.41-.62-1.49-1.25-2.53-.67-4.25.66-1.98.52-4.51-.56-4.63l-.87-.1c-.82-.09-.71-2.58-.07-4.7.5-1.65.58-3.23.19-4.91-.37-1.6.54-3.1 2.21-3.45.41-.09.8-.12 1.19-.12 1.16 0 2.26.29 3.43.29 1 0 2.05-.21 3.26-.97.59-.37 1.2-.57 1.81-.57.65 0 1.29.23 1.88.72.42.35.81.48 1.19.48.94 0 1.81-.79 2.96-.79.33 0 .69.07 1.07.23l1.36 2.01 2.55.85c.56.19.8 1.58.85 2.18l.29 3.16c.08.91.02 1.65.53 2.54.21.37.46 1.27.31 1.7-.14.38-.69.73-1.16 1.18-.86 2.65 1.4 5.7-2.04 7.7-.89.52-1.66 1.32-2.27 2.15l-1.78.63c1.06 2.11 4.22 2.33 2.97 5.92-.44 1.26-.2 2.39.84 3.24 1.26 1.04 2.31 2.22 1.63 3.37-.2.35-.67.52-1.31.75l1.3 1.86c.27.39.57 1.08.36 1.5-.47.93-2.02.72-2.72 1.38zm28.27 22.59c-.14.38-.69.73-1.16 1.18-.86 2.65 1.4 5.7-2.04 7.7-.89.52-1.66 1.32-2.27 2.15l-1.78.63c1.06 2.11 4.22 2.33 2.97 5.92-.44 1.26-.2 2.39.84 3.24 1.26 1.04 2.3 2.22 1.63 3.37-.2.34-.68.52-1.31.75l1.3 1.86c.27.39.57 1.08.36 1.5-.47.94-2.03.72-2.72 1.38-.54.52-.04 1.54-.49 2.56-.07.17-.42.27-.71.27-.14 0-.27-.03-.35-.08l-3.03-4.09c-.53-.72-1.32-1.8-1.08-2.62.38-1.33.22-2.23-.88-3.03-3.46-2.54.63-5.89-4.48-7.46l-.45 2.43c-.24 1.29-.24 2.2.36 3.48l-.99 3.48c-.14.49.28 1.53.48 2 .52 1.2.11 2.3-1.07 2.74-1.89.69.3 3.3-2.1 3.68l-.92-1.73h-.15c-.76 0-1.38.53-1.83.53-.24 0-.43-.15-.57-.6l-1.11-3.54c-.41-1.29-.55-2.31.1-3.6.69-1.37.83-2.99.07-4.34-1.95-3.49 1.48-7.04.48-9.41-.62-1.49-1.25-2.53-.67-4.25.66-1.96.53-4.51-.57-4.63l-.86-.1c-.83-.09-.7-2.57-.06-4.7.5-1.65.58-3.23.19-4.91-.37-1.6.54-3.1 2.21-3.45.41-.08.8-.12 1.19-.12 1.16 0 2.26.29 3.43.29 1 0 2.05-.21 3.26-.97.59-.37 1.2-.57 1.81-.57.65 0 1.29.23 1.88.72.42.35.81.48 1.19.48.94 0 1.81-.79 2.96-.79.33 0 .69.07 1.07.23l1.36 2.01 2.55.86c.55.18.79 1.57.84 2.17l.29 3.16c.08.91.02 1.65.53 2.54.21.37.46 1.27.31 1.7zM186 52.66l.17 2.53c.03.45-.59 1.03-.99 1.03-1.52-.01-.73-1.75-1.35-3.72-.07-.23-.25-.3-.5-.3-.56 0-1.45.41-2.08.41-.14 0-.26-.02-.37-.07-.28-.13-.62-.87-.56-1.19l.36-1.71c.19-.91-.15-1.35-1-1.65l-1.35-.46c0-.79.12-1.6.37-2.31.44-1.27 0-2.53-1.54-2.88-.31-.07-.63-.11-.95-.11-1.78 0-3.51 1.08-4.19 2.77-.83 2.09 1.91 4.83-.36 6.82-.33-.07-1.1-.24-1.46-.24h-.08c-.54 1.13.02 2.83-1.22 2.83-.68 0-1.06-.56-.88-1.27l-.13-.68c-.01-.05-.07-.08-.15-.08-.24 0-.7.2-.72.38l-.29 2.58c-.05.4-.64.9-.99.91h-.03c-.5 0-1.02-.54-1.02-1.09v-4.44c-.02-1.22 2.14-3.17.48-4.7-.93-.85-1.38-2.08-.98-3.32l1.36-4.18c.44-1.35.86-2.89.45-4.22-2.54-.74-.98-4.26-.21-6.93l1.21-4.2-1.52-.28c-.02-2.57.88-4.9 1.81-7.29-.56-.89-1.18-1.89-.87-3.03.23-.84 1.13-1.2 2.26-1.2.98 0 2.14.27 3.19.72 1.07.46 1.99.64 2.83.64 2.57 0 4.39-1.62 7.23-1.62h.03c1.17 0 2.19.8 2.17 1.95l-.1 4.81c-.04 1.77-.09 3.53.55 5.19l2.05 5.35c.58 1.52-1.58 1.33-1.26 2.33 1.01 3.15-.73 4.91.6 7.69.78 1.64-.78 2.95-.21 4.61l1.26 3.7c.85 2.51-1.18 3.04-.99 5.91zm25.27 21.16c-1.79 2.09-.11 4.65-1.77 5.66-.06.04-.13.06-.19.06-.59 0-1.15-1.53-1.85-1.6h-.05c-.66 0-1.03 1.31-1.86 1.31h-.04c-.28-.02-.79-.45-.91-.72l-.96-2.21c-.41-.95-1.38-1.69-2.44-1.69-.23 0-.46.03-.69.11-1.1.36-1.97 1.67-2.18 2.59-.62 2.7 1.77 4.9 4.5 6.05l4.4 1.87c2.34 1 .7 3.26 2.22 4.67.85.79 1.09 1.75.62 2.8-.53 1.2-.47 2.35-.1 3.63l.61 2.1c.33 1.15-.46 2.06-1.48 2.42-1.34.47-2.3 1.47-2.41 2.95-.34.31-1.11.76-1.58.85-1.93.37-1.31 2.04-1.8 3.03-.12.24-.72.29-1.05.34l-2.12.32c-.17.03-.34.04-.5.04-.42 0-.81-.11-1.08-.43-2.09-2.52-4.72-1.66-4.87-2.22-.04-.17-.07-.5-.07-.85 0-1.18-1.13-2.77-2.28-2.88h-.07c-.29 0-.76.12-1.12.12-.23 0-.42-.05-.48-.22-.65-1.84.94-3.26-.48-5.86-.16-.29-.21-1.06-.06-1.35.15-.28.84-.57 1.27-.57.08 0 .15.01.21.03l3.22 1.29c.99.39 1.64.99 1.61 2.25-.02.86.84 2.49 1.92 2.49.11 0 .22-.02.34-.05 2-.64 3.59-2.56 4.69-4.3-1.22-.68-2.05-1.22-2.6-2.28l-1-1.91c-.44-.84-1.07-.98-1.74-.98-.33 0-.67.03-1 .03-.64 0-1.25-.13-1.68-.9-1.74-3.13-4.46-2.84-4.62-6.95l-.08-2.09c-.56.29-.93.48-1.26.48-.09 0-.18-.02-.27-.05-.43-.17-.82-.95-.73-1.43l.67-3.36-.05-4.47c-.03-3.2 2.58-3.15 3.73-5.96.4-.97 1.08-1.54 2.18-1.67l4.76-.58c.74-.09 1.38-.19 2-.19.78 0 1.53.15 2.39.66 1.13.67 2.05.84 2.83.84.73 0 1.33-.14 1.87-.14.58 0 1.09.16 1.59.83.76 1.02 1.45 2.59 1.06 3.89-.26.89-.35 1.53.47 2.14.69.51.94 1.36.34 2.06z" fill="#fff"/><path d="M73.94 82.35l.23-4.19c.06-1.04-.57-2.42-1.67-2.53-.09 0-.18-.01-.27-.01-1.33 0-2.64.93-3.31 2.01-.8 1.3 1.55 3.15-1.24 4.89-.18.86.13 2.06.5 2.92 1.43 3.29-.12 5.23.11 7.23.29 2.51 2.05 6.23 3.6 6.23.09 0 .17-.01.25-.03.45-.12 1.09-.61 1.34-1.02 1.17-1.92.73-3.93.68-6.07-.07-3 3.2-6.62-.22-9.42zM101.43 82.35l.23-4.19c.06-1.04-.57-2.42-1.67-2.53-.09 0-.18-.01-.27-.01-1.33 0-2.64.92-3.31 2.01-.79 1.29 1.55 3.16-1.24 4.88-.18.87.13 2.07.5 2.92 1.43 3.3-.12 5.23.11 7.23.29 2.51 2.05 6.23 3.6 6.23.09 0 .17-.01.25-.03.45-.12 1.09-.61 1.34-1.02 1.17-1.92.73-3.93.68-6.07-.07-3 3.2-6.62-.22-9.42zM152.11 21.28c-.11 0-.22.04-.33.13-.23.19-.68.46-.96.46-.07 0-.12-.01-.16-.05l-.82-.68c-.37-.31-.76-.53-1.17-.53-.15 0-.31.03-.46.1-.53.25-.58 1.12-.25 1.62 1.41 2.12-1.18 2.45-.4 3.73.39.64.47 1.44.2 2.13-.35.89-.1 2.16.88 2.47.04.01.08.02.13.02.68 0 1.33-1.65 1.91-1.65h.06c.28.06.85.47 1.15.63 1.94-.73.43-3.24.79-4.58.65-2.45.04-3.81-.59-3.81zM51.23 22.4c-.25-.24-.63-.35-1.09-.35-1.11 0-2.67.61-3.83 1.29-.39.71-.03 1.95.22 2.69 1.48 4.41-.37 6.51.54 7.21.27.21.94.4 1.37.45l2.78-3.33c.95-1.14.75-2.24.29-3.46-.51-1.34.83-3.41-.29-4.5zM176.2 73.55c-.12 0-.23.04-.34.14-.21.17-.67.45-.95.45-.06 0-.12-.01-.16-.05l-.82-.68c-.37-.31-.77-.54-1.17-.54-.15 0-.3.03-.46.1-.53.25-.58 1.12-.25 1.62 1.41 2.12-1.18 2.45-.4 3.73.39.64.47 1.44.2 2.13-.35.89-.1 2.16.88 2.47.04.01.08.02.13.02.69 0 1.33-1.65 1.91-1.65h.06c.28.06.86.47 1.16.63 1.93-.74.43-3.23.78-4.58.65-2.44.05-3.8-.58-3.8zM127.85 74.66c-.22-.21-.81-.39-1.26-.39-.13 0-.25.02-.34.05l-3.32 1.29c-.39.71-.03 1.95.22 2.69 1.48 4.4-.37 6.52.54 7.21.28.21.94.4 1.37.45l2.78-3.33c.95-1.14.75-2.24.29-3.46-.51-1.34.83-3.41-.29-4.5z" fill="#fff"/><path d="M219.69 94.75c-.07-1.84.19-3.72-.26-5.53-.48-2-1.58-3.8-.92-5.82.99-3.34 2.16-6.66 2.49-10.12.06-1.63-.37-3.22-.73-4.79-.43-1.8-.75-3.65-1.54-5.36-2.19-3.89-1.26-4.7.19-8.5.72-2.38.62-4.87 1.1-7.29 1.07-5.09-1.23-10.9-6.22-12.92-1.51-.71-3.6-.64-4.23-2.36-.49-2.26-.18-4.71-.17-7.02.3-2.28.47-4.59.4-6.9.83-5.68 1.34-10.17-3.39-14.4-2.94-2.59-7.18-3.26-10.92-2.24-2.07.48-3.87 1.53-5.96 1.62-1.84.09-3.42-.8-5.25-1.16-2.5-.5-5.16-.12-7.59.51-2.19.61-4.16-.19-6.44-.42-2.01-.24-4.04.11-5.99.57-2.01.48-3.87-.45-5.79-.92-2.15-.47-4.38-.3-6.56-.58-2.99-.56-5.8.56-8.71.99-2.53.28-5.07-.06-7.55-.49-1.79-.29-3.71.14-5.39.35-2.42.18-4.88.04-7.3.3-1.88.09-3.73-.33-5.68-.31-3.37.09-6.72.74-10.05.96-2.84-.02-5.59-1.59-8.43-1.08-3.42.49-7.01-.09-10.29 1.23-2.81 1.31-5.36-1.02-8.18-1.02-1.51-.08-2.91.23-4.32.27-1.62.07-3.25-.27-4.87-.11-1.55.13-3 .67-4.5.87-1.47.2-3.03.2-4.54.38-1.47.16-2.94 0-4.36-.41-2.42-.64-4.88-1.19-7.37-1.44-2.63-.32-5.21.44-7.79.73-1.87.12-3.73-.44-5.61-.23-1.73.13-3.39.8-5.05.88-1.9.1-3.71-.73-5.57-1.01-2.36-.39-4.78 0-7.12.31-2.4.27-4.89.63-7.06 1.8C9.7 5.31 8.12 7.58 6.43 9.68c-2.94 3.09-4.39 7.17-4.2 11.42-.25 5.88-1.61 8.39 1.94 13.82 1.19 2.13-.48 4.23-.76 6.36-.35 2.84.32 5.81.43 8.71.9 8.75 8.1 5.38.8 13.35-3.27 3.72-3.01 8.3-3.33 12.98-.49 2.9-.59 5.94.88 8.61.59 1.22 1.57 2.38 1.67 3.75.11 1.89-1.16 3.59-1.25 5.47-.21 2.16.32 4.41.36 6.65.07 4.42 1.77 7.15 5.14 9.82 2.94 3.09 4.66 3.75 8.37 5.49 2.49 1.45 5.39 2.02 8.24 1.57 2.02-.25 4.12-.64 5.93-1.7 1.7-.7 2.97-3.38 4.56-3.24 1.61.47 2.75 2.38 4.24 3.22 3.62 2.5 8.26 2.38 12.37 1.63 1.51-.16 2.93-.12 4.38-.59 2.88-.89 4.57-3.21 7.71-1.54 5.4 2.21 8.15 3.74 13.93 1.13 1.43-.56 2.93-1.1 4.2-1.95 1.63-.92 2.91-3.73 4.96-2.17.77.52 1.46 1.24 2.23 1.78 1.29.95 2.82 1.45 4.31 2.05 4.52 2.09 7.4 2.27 12.01.22 1.67-.49 3.39-1.73 5.05-1.83 1.62.04 2.8 1.67 4.19 2.42 3.09 1.9 7.09 1.9 10.2-.07 4.66-2.55 4.17-8.83 7.89-3.97 2.28 2.63 5.56 3.44 8.84 3.71 2.34.51 4.73 1 7.11 1.12 4.05.86 6.7 2.04 10.82.04 3.48-1.61 5.38 1.46 9.47.22 2.25-.23 4-1.81 6.19-1.93.88.02 1.74.41 2.57.72 2.55 1 5.66.88 8.16-.33 2.4-1.43 4.02-2.52 6.69-.99 1.94.97 3.96 2.02 6.19 2.12 3.56.17 7.58-.57 10.42-2.83 1.59-1.3 2.45-2.94 4-4.29 5.38-5.14 7.58-8.13 6.35-15.84v-.04z" fill="none" stroke="#fff" stroke-linejoin="round" stroke-width=".67"/></svg>