<svg xmlns="http://www.w3.org/2000/svg" width="150" height="125" viewBox="0 0 150 125"><path d="M36.65 15.76c1.37-3 3.18-6.93 3.18-10.42 0-3 1.41-5.34 5.34-5.34s6.27 3.93 8 6.84c.75 1.29 7.41 14.8 9 18.42C63.63 28.62 66 26.58 66 29.1c0 3.22-6.27 3.09-8.48 3.09-6.32 0-10.11 0-10.11-2.78 0-2.12 2.69-1.32 2.69-2.87 0-2-1.11-2.16-8.21-2.16-2.3 0-3.67.08-3.67 2.25 0 1.72 2.83.57 2.83 2.87 0 2.65-4.77 2.69-6.54 2.69-6.31 0-6.89-1.19-6.89-2.6 0-2.08 2.39-1.46 3.67-3.05a25.3 25.3 0 0 0 2.56-4.73zm9.27 3.18c.45 0 1.77.09 1.77-.57a15.45 15.45 0 0 0-1.63-3.58c-.4-.7-1.15-2.34-2.12-2.34s-1.81 2.65-2 3.14a15 15 0 0 0-.94 2.74c0 .75 1.11.61 1.59.61zM78.78 9.41c.79.13 1.5.31 1.81.31a2.92 2.92 0 0 0 1.19-.31A3.66 3.66 0 0 1 83 9.14c2 0 4 4.06 4 5.86a2.12 2.12 0 0 1-2.16 2.08c-2.52 0-3.93-3.49-5.87-3.49a1.59 1.59 0 0 0-1.59 1.5c0 2.83 9.71 3.36 9.71 10.2 0 4.15-4 7-8.61 7a24.19 24.19 0 0 1-3.27-.3c-1.1-.14-2.07-.27-2.34-.27a5.25 5.25 0 0 0-.88.09 5.41 5.41 0 0 1-.84.09 2.14 2.14 0 0 1-1.94-.84 9.85 9.85 0 0 1-2.21-5.4c0-1.15.4-2.08 1.68-2.08 1.94 0 3.71 4.37 6.18 4.37.88 0 1.72-.44 1.72-1.41 0-2.61-8.65-2.91-8.65-10.2 0-4.42 3.62-7.2 8.17-7.2a13 13 0 0 1 2.68.27zM104.39 25c-.18-.26-1.24-1.76-1.68-1.76s-.44 1-.44 1.23c-.14 3.93 1.81 2.61 1.81 4.69 0 1.23-.31 3-7.2 3-3.62 0-7.73.13-7.73-2.78 0-2.12 2.34-.57 2.47-4.28.14-3.09.36-7.29.36-9.23V9.58c0-3.57-3.4-1.19-3.4-3.71 0-3 10-5.12 12.32-5.12 1.19 0 1.28.71 1.23 1.68l-.22 9.36c-.09 2.83-.09 3.93 1 3.93.71 0 3.54-1.5 3.54-2.16s-.89-1-.89-1.86c0-2.29 4.51-2.43 6-2.43 1.81 0 6.63.05 6.63 2.79 0 2-1.64 1.06-4.29 2.69-.44.22-2.16 1.1-2.16 1.63 0 1.11 5.17 7.47 6 8.48 2 2.47 4.41 2.43 4.41 4.29 0 1.36-1 2.56-4.41 2.56h-6.23c-1.77 0-2-.09-3.05-1.46zM11.88 64.55c-.27-.58-.75-1.9-1.55-1.9-1.37 0-.92 5.83-.92 7.28 0 4.73 2.82 2.52 2.82 4.9s-4.72 2.61-6.44 2.61C4.24 77.44.22 77.31.22 75c0-2.52 2.65-.44 3-4.06A132.3 132.3 0 0 0 4 56.73c0-2.65-.17-4-.66-5s-3-1.24-3-3.05c0-2.52 4.11-3.14 7.64-3.14 5.17 0 5.08.89 6.41 3.14 1.54 2.6 4.28 9.85 6.22 10.29 1.37.31 3.18-5 4.77-7.95 2.25-4.15 2.3-5.48 8.13-5.48 1.94 0 6.36.14 6.36 2.92 0 1.76-2 2.12-2.43 3.62a56.84 56.84 0 0 0-.67 8.43c0 .67.27 5.52.45 9.63.13 3.22 2.78 2.52 2.78 4.5 0 3-6 2.83-8 2.83s-7.86.18-7.86-2.65c0-1.55 2-1.81 2.29-3.22.18-.75 1.06-8.35-.48-8.35-1.37 0-2.79 3.89-3.85 6.14-1 2-2.56 7.06-4 6.89-.71-.09-1.06 0-3.71-6zM54.09 68.78c0 5.22 2.61 3.32 2.61 5.66 0 3-5.61 3-7.6 3-7.59 0-7.9-1.72-7.9-2.78 0-1.59 1.81-1.68 2.34-3 .57-1.54.66-8 .17-9.58S41.07 61 41.07 59c0-3.13 11.21-4.46 11.65-4.46 1.33 0 1.37 1 1.37 1.94zm-8.74-15.67c-1.86 0-3.84-.84-3.84-3 0-2.92 5.83-4.11 8.08-4.11 1.76 0 4.28.57 4.28 2.78 0 3.44-6 4.33-8.52 4.33zM69.94 54.65c.8.14 1.51.31 1.81.31a2.78 2.78 0 0 0 1.2-.31 3.85 3.85 0 0 1 1.19-.26c2 0 4.06 4.06 4.06 5.87a2.12 2.12 0 0 1-2.2 2.08c-2.52 0-3.93-3.49-5.88-3.49a1.59 1.59 0 0 0-1.58 1.5c0 2.83 9.71 3.36 9.71 10.2 0 4.15-4 7-8.61 7a22.79 22.79 0 0 1-3.27-.31c-1.1-.13-2.07-.26-2.34-.26a5.25 5.25 0 0 0-.88.09 5.44 5.44 0 0 1-.84.08 2.12 2.12 0 0 1-1.94-.83 9.85 9.85 0 0 1-2.17-5.42c0-1.14.4-2.07 1.68-2.07 1.94 0 3.71 4.37 6.18 4.37.88 0 1.72-.44 1.72-1.41 0-2.61-8.65-2.92-8.65-10.2 0-4.42 3.62-7.2 8.16-7.2a13.53 13.53 0 0 1 2.65.26zM93.61 67.42c0 3 1.24 3.66 2.43 3.66 1.37 0 2.16-1 3-1s1.5 1.23 1.5 2c0 2.91-5 5.47-9.49 5.47-2.26 0-7.91-1-7.91-8v-9.1c0-.79 0-1.1-.22-1.23s-.71 0-1.72 0-1.72 0-1.94-.17-.26-.78-.26-1.79c0-.62-.13-1.1.4-1.46l10.07-6.4c1-.62 1-.49 2.3-.49 1.76 0 1.85-.17 1.85 1.86a13.64 13.64 0 0 0 .12 3.23c.14.35.45.35 1.59.35h3.1c1.89 0 1.89.13 1.89 2.12 0 2.52-.31 2.69-2 2.69h-3c-1.55 0-1.64 0-1.64 1.64zM112.47 66.8c-.49 0-1.2-.13-1.2.62 0 2.2 2.87 4.06 5 4.06 3.31 0 5-2 5.87-2s1.72 1.37 1.72 2.21c0 3.4-6.22 5.87-10.2 5.87-7.94 0-12-5.74-12-11.43 0-6.81 5.78-11.75 12.41-11.75 7.5 0 10.82 5.78 10.82 9.1 0 2.91-1.33 3.31-2.74 3.31zm3.84-5.57a2.58 2.58 0 0 0-2.61-2.82 2.93 2.93 0 0 0-2.65 2.91c0 1.59 1.5 1.24 2.65 1.24s2.61.26 2.61-1.33zM128.85 63.57c0-4.32-2.74-1.89-2.74-4.59 0-3.49 10.33-4.46 10.73-4.46 1.68 0 1.72.44 1.9 1.94 0 .53 0 1.55.75 1.55 1.06 0 1.72-3.49 5.52-3.49a4.81 4.81 0 0 1 4.9 5.12 5.4 5.4 0 0 1-5.43 5.3c-2.87 0-3.67-2.51-4.81-2.51s-1 2.95-1 3.75A40.78 40.78 0 0 0 139 71c.27 1.94 3.62.75 3.62 3.4s-3.88 3-8.74 3c-2 0-8 .09-8-3 0-1.85 2-1.85 2.52-3.4a22 22 0 0 0 .49-4.86zM4.28 122.2c-1.41 0-3.66.09-3.66-1.94 0-2.74 3.44-.44 3.58-5.57.08-3.22.08-6 .08-8.65s-.22-5.12-.31-7.6c-.08-3.71-4-1.76-4-4.28 0-3.22 6.93-3.4 9.1-3.4 8.83 0 9.27 1.5 9.27 3 0 2.56-3.49.62-3.49 4.77v14c0 3.17.53 4.72 3.67 4.72 7.5 0 4.94-6.14 7.77-6.14 2 0 2.74 2.12 2.74 3.8 0 3.44-2.48 7.86-4.51 7.86a13.06 13.06 0 0 1-2.21-.31 15 15 0 0 0-3.31-.26zM42.21 114c0 5.21 2.61 3.31 2.61 5.65 0 3-5.61 3-7.6 3-7.59 0-7.9-1.72-7.9-2.78 0-1.59 1.81-1.68 2.34-3 .57-1.55.66-8 .18-9.58s-2.65-1.06-2.65-3c0-3.14 11.21-4.46 11.65-4.46 1.33 0 1.37 1 1.37 1.94zm-8.74-15.64c-1.85 0-3.84-.84-3.84-3 0-2.91 5.83-4.1 8.08-4.1 1.77 0 4.28.57 4.28 2.78.01 3.43-5.99 4.32-8.52 4.32zM61.16 114a7.79 7.79 0 0 0-1 2.3c0 .93.83 1.1 1.59 1.1 3.62 0 2.91-3.79 4.85-3.79 1.59 0 2.21 1.5 2.21 2.91 0 3.44-3 6.36-4.41 6.36-.89 0-.89-.71-4-.71H49.63c-1.1 0-3.58 0-3.58-1.68 0-1 .93-2.07 1.42-2.87l5.34-8.62c.35-.57 1.72-2.65 1.72-3.35 0-.93-1.28-.93-1.94-.93-3.18 0-2.65 3.71-5 3.71-1.37 0-2-1.33-2-2.52 0-3 2.52-6.53 3.89-6.53 1.19 0 1.46.79 8.79.79h4.9a15.37 15.37 0 0 1 3.75.13 1.43 1.43 0 0 1 .75 1.28 6.76 6.76 0 0 1-1.06 2.7zM92.2 111.65c0 7.77 2.65 3.53 2.65 5.92s-3.45 5.25-6.67 5.25c-3.49 0-3.58-2.25-4.68-2.25-.53 0-1.1.57-2.08 1.1a8 8 0 0 1-4.32 1.15c-3.67 0-7.33-1.94-7.33-6.31 0-3.14 3-7 10.77-7 1.37 0 2 .09 2-1.5s0-4.5-2.08-4.5c-2.65 0-2.91 4.77-6.84 4.77a2.38 2.38 0 0 1-2.47-2.43c0-3.75 7.46-6.18 11.65-6.18 2.52 0 9.41 1 9.41 7.59zM79 115.53c0 1.15.62 2.39 1.9 2.39 1.68 0 1.81-1.81 1.81-3.14 0-1 0-2.07-1.19-2.07a2.7 2.7 0 0 0-2.52 2.82zM98.91 108.82c0-4.33-2.74-1.9-2.74-4.59 0-3.49 10.33-4.46 10.73-4.46 1.68 0 1.72.44 1.9 1.94 0 .53 0 1.55.75 1.55 1.06 0 1.72-3.49 5.52-3.49a4.81 4.81 0 0 1 4.9 5.12 5.4 5.4 0 0 1-5.43 5.3c-2.87 0-3.66-2.52-4.81-2.52s-1 3-1 3.76a40.65 40.65 0 0 0 .36 4.85c.26 2 3.62.76 3.62 3.4s-3.89 3-8.75 3c-2 0-8 .09-8-3 0-1.86 2-1.86 2.51-3.4a21.49 21.49 0 0 0 .49-4.86zM147.66 114.74c0 3.09 2.34 2.07 2.34 4.37 0 3.36-9.67 3.58-10.16 3.58-2.25 0-.66-2.43-2.12-2.43-.39 0-1.06.62-2.07 1.28a8 8 0 0 1-4.33 1.28c-5.78 0-10.29-6.14-10.29-11.57 0-5.87 4.77-11.61 10.86-11.61 3.05 0 4.77 1.32 5.26 1.32.66 0 .71-1.46.71-1.94 0-2.74-3.23-1.28-3.23-3.67 0-3.26 11.26-4.1 11.4-4.1 1.32 0 1.63.92 1.63 2.38zm-12.32-10.29c-3 0-3.49 5.08-3.49 7.15s.53 5.7 3.27 5.7c3 0 2.78-5.43 2.78-7.37 0-1.73 0-5.48-2.56-5.48z" fill="#fff"/></svg>