<svg xmlns="http://www.w3.org/2000/svg" viewBox="0 0 350 56"><path d="M10.08 23.68v12.28h3.51c1.33 0 2.28.26 2.84.77s.85 1.18.85 2.01-.28 1.47-.85 1.98-1.51.77-2.84.77h-9.9c-1.33 0-2.28-.26-2.84-.77S0 39.54 0 38.71s.29-1.47.86-1.98c.57-.51 1.52-.77 2.83-.77h.86V5.93h-.86c-1.33 0-2.28-.26-2.84-.77S0 3.98 0 3.15s.28-1.49.85-2S2.36.38 3.69.38L29.7.41v5.01c0 1.31-.26 2.25-.77 2.82-.51.57-1.18.85-2.01.85s-1.47-.28-1.98-.84c-.51-.56-.77-1.5-.77-2.83v.51h-14.1v12.22h5c0-1.44.13-2.36.4-2.78.56-.88 1.35-1.32 2.37-1.32.81 0 1.47.28 1.98.85s.77 1.51.77 2.84v6.36c0 1.33-.26 2.28-.77 2.84-.51.57-1.18.85-2.01.85-1.01 0-1.79-.44-2.34-1.32-.27-.41-.4-1.35-.4-2.8h-5zM158.01 24.59v12.28h3.51c1.33 0 2.28.26 2.84.77s.85 1.18.85 2.01-.28 1.47-.85 1.98-1.51.77-2.84.77h-9.9c-1.33 0-2.28-.26-2.84-.77s-.85-1.18-.85-2.01.29-1.47.86-1.98c.57-.51 1.52-.77 2.83-.77h.86V6.84h-.86c-1.33 0-2.28-.26-2.84-.77s-.85-1.18-.85-2.01.28-1.5.85-2.01 1.51-.77 2.84-.77l26.01.03v5.01c0 1.31-.26 2.25-.77 2.82-.51.57-1.18.85-2.01.85s-1.47-.28-1.98-.84c-.51-.56-.77-1.5-.77-2.83v.51H158v12.22h6.08c0-1.44.13-2.36.4-2.78.56-.88 1.35-1.32 2.37-1.32.81 0 1.47.28 1.98.85s.77 1.51.77 2.84V25c0 1.33-.26 2.28-.77 2.84-.51.57-1.18.85-2.01.85-1.01 0-1.79-.44-2.34-1.32-.27-.41-.4-1.35-.4-2.8H158z" fill="#fff"/><path d="M35.09 4.07v31.89h4.29c1.33 0 2.28.26 2.84.77s.85 1.18.85 2.01-.28 1.47-.85 1.98-1.51.77-2.84.77H22.94c-1.33 0-2.28-.26-2.84-.77s-.85-1.18-.85-2.01.28-1.47.85-1.98 1.51-.77 2.84-.77h6.63V9.59h-4.45c-1.31 0-2.25-.26-2.83-.77-.58-.51-.86-1.18-.86-2.01s.28-1.47.85-1.98 1.51-.77 2.84-.77h9.97z" fill="#fff"/><path d="M65.14 27.25c0 2.12-.53 4.17-1.59 6.16-1.06 1.99-2.64 3.57-4.74 4.74-2.1 1.18-4.29 1.77-6.57 1.77s-4.44-.58-6.51-1.74c-2.07-1.16-3.65-2.74-4.74-4.73-1.09-1.99-1.63-4.08-1.63-6.25s.55-4.38 1.65-6.51c1.1-2.13 2.69-3.8 4.75-5.03 2.07-1.22 4.22-1.83 6.48-1.83s4.45.62 6.55 1.87c2.1 1.25 3.68 2.93 4.75 5.04 1.07 2.11 1.6 4.28 1.6 6.51zm-4.98.03c0-1.78-.58-3.41-1.73-4.91-1.57-2.01-3.64-3.02-6.2-3.02-2.25 0-4.13.8-5.64 2.4-1.51 1.6-2.26 3.45-2.26 5.55 0 1.72.76 3.34 2.28 4.84 1.52 1.5 3.39 2.25 5.61 2.25s4.11-.75 5.64-2.25c1.52-1.5 2.28-3.12 2.28-4.86z" fill="#fff"/><path d="M81.55 27.25c0 2.12-.47 4.17-1.42 6.16-.95 1.99-2.36 3.57-4.24 4.74-1.88 1.18-3.84 1.77-5.88 1.77s-3.97-.58-5.83-1.74c-1.86-1.16-3.27-2.74-4.24-4.73-.97-1.99-1.46-4.08-1.46-6.25s.49-4.38 1.48-6.51 2.4-3.8 4.25-5.03c1.85-1.22 3.78-1.83 5.79-1.83s3.98.62 5.86 1.87c1.88 1.25 3.29 2.93 4.25 5.04s1.43 4.28 1.43 6.51zm-4.45.03c0-1.78-.51-3.41-1.54-4.91-1.41-2.01-3.25-3.02-5.54-3.02-2.01 0-3.7.8-5.04 2.4-1.35 1.6-2.02 3.45-2.02 5.55 0 1.72.68 3.34 2.04 4.84 1.36 1.5 3.04 2.25 5.02 2.25s3.68-.75 5.04-2.25c1.36-1.5 2.04-3.12 2.04-4.86z" fill="#fff"/><path d="M87.3 31.91v11.82h2.56c1.03 0 1.76.26 2.2.77.44.51.66 1.18.66 2.01s-.22 1.47-.66 1.98c-.44.51-1.17.77-2.2.77H82.3c-1.03 0-1.76-.26-2.2-.77-.44-.51-.66-1.17-.66-1.98s.22-1.5.67-2.01c.44-.51 1.17-.77 2.19-.77h.73V16.01h-.73c-1.03 0-1.76-.26-2.2-.77-.44-.51-.66-1.18-.66-2.01s.22-1.47.66-1.98c.44-.51 1.17-.77 2.2-.77h5v1.89c1-.88 2.03-1.54 3.1-1.97 1.07-.43 2.17-.65 3.29-.65 2.91 0 5.4 1.28 7.45 3.84s3.08 5.49 3.08 8.8c0 3.65-1.21 6.66-3.64 9.03-2.03 1.98-4.31 2.96-6.85 2.96-1.1 0-2.18-.21-3.25-.62-1.07-.41-2.13-1.03-3.19-1.86zm12.65-9.49c0-.77-.24-1.76-.71-2.95a7.231 7.231 0 0 0-2.18-2.99c-.98-.8-2.13-1.2-3.45-1.2-2.12 0-3.81 1.03-5.06 3.1-.85 1.42-1.27 2.79-1.27 4.1 0 1.47.61 2.91 1.82 4.3 1.21 1.39 2.72 2.09 4.51 2.09s3.31-.69 4.52-2.08c1.21-1.38 1.81-2.84 1.81-4.37z" fill="#fff"/><path d="M105.02 7.37h7.38l-7.95 9.02c-.47.53-1.05.79-1.75.79-.47 0-.87-.09-1.2-.28-.33-.18-.5-.39-.5-.62 0-.16.06-.38.19-.66l3.83-8.25z" fill="#fff"/><path d="M123.68 15.47c-.9-.68-1.84-1.2-2.83-1.54-.99-.34-2.02-.51-3.1-.51-2.14 0-3.84.43-5.09 1.29-.56.38-.84.78-.84 1.22 0 .51.38 1 1.13 1.49.57.35 1.86.7 3.85 1.03 3.67.62 6.22 1.24 7.65 1.85 1.89.82 3.34 2.03 4.37 3.64 1.02 1.61 1.54 3.31 1.54 5.1 0 2.43-.87 4.46-2.61 6.09-2.5 2.36-5.74 3.54-9.73 3.54-1.6 0-3.08-.17-4.43-.51-1.36-.34-2.6-.84-3.73-1.51-.27.29-.56.51-.86.66-.31.15-.62.23-.94.23-.86 0-1.55-.35-2.06-1.04-.51-.7-.77-1.86-.77-3.49v-2.28c0-1.63.26-2.8.77-3.49.51-.7 1.18-1.04 2.01-1.04.66 0 1.22.23 1.67.68.45.45.8 1.23 1.05 2.33.84.88 1.86 1.55 3.05 2 1.19.45 2.55.68 4.1.68 2.53 0 4.5-.49 5.9-1.46.66-.49 1-.99 1-1.52 0-.88-.48-1.61-1.43-2.18-.95-.57-2.92-1.06-5.9-1.46-4.44-.57-7.4-1.68-8.89-3.31-1.49-1.61-2.24-3.6-2.24-5.96s.84-4.45 2.51-6.06c2.26-2.21 5.23-3.31 8.89-3.31 1.28 0 2.5.15 3.68.45 1.18.3 2.3.76 3.38 1.37.34-.31.66-.54.96-.7.3-.15.57-.23.82-.23.75 0 1.38.35 1.89 1.04.5.7.76 1.86.76 3.49v1.65c0 1.48-.14 2.48-.43 3.01-.58 1.02-1.36 1.52-2.34 1.52-.67 0-1.25-.25-1.75-.76s-.83-1.18-.97-2.02zM196.91 29.79c0 1.89-.52 3.72-1.57 5.49s-2.61 3.18-4.68 4.23c-2.07 1.05-4.24 1.57-6.5 1.57s-4.39-.52-6.44-1.55c-2.05-1.03-3.61-2.44-4.68-4.22s-1.61-3.64-1.61-5.57.54-3.9 1.63-5.8c1.09-1.9 2.65-3.39 4.7-4.48 2.04-1.09 4.18-1.63 6.4-1.63s4.4.56 6.47 1.67c2.07 1.11 3.64 2.61 4.7 4.49 1.06 1.88 1.59 3.82 1.59 5.8zm-4.93.02c0-1.59-.57-3.04-1.7-4.37-1.55-1.79-3.6-2.69-6.13-2.69-2.23 0-4.08.71-5.57 2.14-1.49 1.43-2.23 3.07-2.23 4.95 0 1.54.75 2.97 2.26 4.31 1.51 1.34 3.35 2.01 5.55 2.01s4.07-.67 5.57-2.01c1.5-1.34 2.26-2.78 2.26-4.34z" fill="#fff"/><path d="M217.47 29.79c0 1.89-.52 3.72-1.57 5.49s-2.61 3.18-4.68 4.23c-2.07 1.05-4.24 1.57-6.5 1.57s-4.39-.52-6.44-1.55c-2.05-1.03-3.61-2.44-4.68-4.22-1.07-1.78-1.61-3.64-1.61-5.57s.54-3.9 1.63-5.8c1.09-1.9 2.65-3.39 4.7-4.48 2.04-1.09 4.18-1.63 6.4-1.63s4.4.56 6.47 1.67c2.07 1.11 3.64 2.61 4.7 4.49 1.06 1.88 1.59 3.82 1.59 5.8zm-4.93.02c0-1.59-.57-3.04-1.71-4.37-1.55-1.79-3.6-2.69-6.13-2.69-2.23 0-4.08.71-5.57 2.14-1.49 1.43-2.23 3.07-2.23 4.95 0 1.54.75 2.97 2.26 4.31 1.5 1.34 3.35 2.01 5.55 2.01s4.07-.67 5.57-2.01c1.51-1.34 2.26-2.78 2.26-4.34zM240.27 20.32v-1.67h6.57c1.35 0 2.31.26 2.89.78s.86 1.2.86 2.04-.29 1.49-.86 2.01-1.54.78-2.89.78h-.96v20.43c0 1.97-.42 3.69-1.25 5.16-.83 1.47-2.1 2.73-3.82 3.79-1.72 1.06-3.65 1.59-5.81 1.59h-6.35c-1.35 0-2.31-.26-2.89-.78-.57-.52-.86-1.19-.86-2.01s.29-1.52.86-2.04c.58-.52 1.54-.78 2.89-.78h6.19c1.72 0 3.05-.47 4-1.4.95-.93 1.42-2.11 1.42-3.53v-2.74c-1.24.8-2.51 1.41-3.79 1.81-1.29.4-2.61.6-3.96.6-3.82 0-7.01-1.27-9.59-3.82-2.57-2.55-3.86-5.69-3.86-9.44s1.29-6.92 3.86-9.46c2.57-2.55 5.77-3.82 9.59-3.82 1.42 0 2.78.21 4.07.62 1.29.41 2.52 1.04 3.68 1.88zm-.03 10.76c0-2.06-.76-3.85-2.29-5.37-1.52-1.52-3.36-2.27-5.49-2.27s-3.97.76-5.49 2.27c-1.52 1.52-2.29 3.31-2.29 5.37s.76 3.88 2.29 5.38c1.52 1.51 3.36 2.26 5.49 2.26s3.97-.75 5.49-2.26c1.52-1.51 2.29-3.3 2.29-5.38z" fill="#fff"/><path d="M262.08 2.75v32.54h5.91c1.18 0 2.03.23 2.53.68s.76 1.05.76 1.79-.25 1.31-.76 1.77-1.35.68-2.53.68h-16.74c-1.19 0-2.03-.23-2.53-.68s-.76-1.05-.76-1.79.25-1.31.76-1.77 1.35-.68 2.53-.68h5.91V7.67h-3.96c-1.17 0-2.01-.23-2.52-.68-.51-.46-.77-1.05-.77-1.79s.25-1.31.76-1.77c.5-.46 1.35-.68 2.53-.68h8.89zM286.95 11.95v20.73c0 1.44 1.17 2.61 2.61 2.61h3.3c1.19 0 2.03.23 2.53.68s.76 1.05.76 1.79-.25 1.31-.76 1.77-1.35.68-2.53.68h-16.74c-1.18 0-2.03-.23-2.53-.68s-.76-1.05-.76-1.79.25-1.31.76-1.77 1.35-.68 2.53-.68h3.3c1.44 0 2.61-1.17 2.61-2.61V16.87c0-1.44-1.17-2.61-2.61-2.61h-1.36c-1.17 0-2.01-.23-2.52-.68s-.77-1.05-.77-1.79.25-1.31.76-1.77 1.35-.68 2.53-.68h6.28c1.44 0 2.61 1.17 2.61 2.61zm-.68-9.34c0 1.44-1.17 2.61-2.61 2.61h-.65c-1.44 0-2.61-1.17-2.61-2.61A2.627 2.627 0 0 1 283.02 0h.65c1.44 0 2.61 1.17 2.61 2.61zM320.38 28.59l-19.85 3.77c.74 1.16 1.83 2.01 3.26 2.54 1.43.53 3.24.58 5.42.17 1.79-.34 4.1-1.18 6.93-2.51 1.17-.55 1.99-.87 2.46-.96.64-.12 1.23 0 1.76.38.53.37.86.91.99 1.6.12.63-.01 1.21-.4 1.74-.52.7-1.95 1.55-4.29 2.54s-4.63 1.7-6.88 2.13c-3.87.73-7.17.23-9.91-1.52s-4.41-4.22-5.01-7.41c-.65-3.4.08-6.4 2.19-9.01 2.1-2.61 4.79-4.22 8.07-4.84 1.97-.37 3.84-.37 5.61 0 1.78.38 3.14.9 4.1 1.55 1.35.95 2.56 2.21 3.63 3.79.73 1.1 1.25 2.44 1.54 4.01l.39 2.05zm-6.27-3.82c-1-1.24-2.17-2.09-3.49-2.55-1.33-.46-2.81-.53-4.47-.22s-2.99.92-4.05 1.83-1.84 2.13-2.34 3.66l14.35-2.72zM342.8 18.33c-.97-.6-1.98-1.05-3.05-1.35-1.06-.3-2.18-.45-3.34-.45-2.3 0-4.13.38-5.49 1.13-.6.33-.9.69-.9 1.07 0 .45.41.88 1.22 1.31.62.31 2 .61 4.15.9 3.95.54 6.7 1.08 8.24 1.63 2.03.72 3.6 1.78 4.7 3.19s1.66 2.9 1.66 4.47c0 2.13-.94 3.91-2.82 5.34-2.69 2.07-6.18 3.11-10.48 3.11-1.72 0-3.31-.15-4.78-.45-1.46-.3-2.8-.74-4.02-1.32-.29.25-.6.45-.93.58-.33.14-.67.2-1.02.2-.93 0-1.67-.3-2.22-.91-.55-.61-.83-1.63-.83-3.06v-2c0-1.43.28-2.45.83-3.06.55-.61 1.27-.91 2.16-.91.72 0 1.32.2 1.8.6.48.4.86 1.08 1.13 2.05.91.77 2 1.36 3.28 1.76 1.28.4 2.75.6 4.41.6 2.73 0 4.85-.43 6.36-1.28.72-.43 1.07-.87 1.07-1.34 0-.77-.51-1.41-1.54-1.92-1.03-.5-3.15-.93-6.36-1.28-4.78-.5-7.97-1.47-9.58-2.9-1.61-1.41-2.41-3.15-2.41-5.22s.9-3.9 2.7-5.31c2.44-1.93 5.63-2.9 9.58-2.9 1.37 0 2.69.13 3.96.39s2.48.66 3.64 1.2c.37-.27.71-.47 1.03-.61.32-.14.61-.2.89-.2.81 0 1.49.3 2.03.91.54.61.81 1.63.81 3.06v1.45c0 1.3-.16 2.18-.46 2.64-.62.89-1.46 1.34-2.53 1.34-.72 0-1.35-.22-1.89-.67-.54-.44-.89-1.04-1.04-1.77z" fill="#fff"/></svg>