<?xml version="1.0" encoding="UTF-8"?><svg id="logos" xmlns="http://www.w3.org/2000/svg" width="320" height="22" viewBox="0 0 320 22"><path d="M.1,15.11L2.76,0H7.08l-2.66,15.11c-.21,1.17,.58,2.13,1.75,2.13H29.92l-.77,4.35H5.4C1.86,21.59-.53,18.66,.1,15.11Z" fill="#fff"/><path d="M55.95,21.59h-17.24c-3.58,0-5.96-2.93-5.33-6.48l1.52-8.64c.63-3.58,4.04-6.48,7.62-6.48h17.24c3.61,0,5.97,2.9,5.33,6.48l-1.52,8.64c-.63,3.55-4.01,6.48-7.62,6.48Zm-16.47-4.35h17.24c1.23,0,2.36-.96,2.56-2.13l1.52-8.64c.21-1.17-.58-2.16-1.81-2.16h-17.24c-1.2,0-2.33,.99-2.54,2.16l-1.52,8.64c-.21,1.17,.58,2.13,1.78,2.13Z" fill="#fff"/><path d="M74.51,19.49L66.23,0h5.06l7.32,17.24h1.85L93.86,0h5.03l-15.13,19.49c-.96,1.23-2.5,2.1-4.07,2.1h-1.85c-1.57,0-2.81-.86-3.33-2.1Z" fill="#fff"/><path d="M105.4,0h23.75l-.76,4.32h-23.75c-1.2,0-2.33,.99-2.54,2.16l-.38,2.16h25.91l-.76,4.32h-25.91l-.38,2.16c-.21,1.17,.58,2.13,1.78,2.13h23.75l-.77,4.35h-23.75c-3.58,0-5.99-2.93-5.37-6.48l1.52-8.64c.63-3.58,4.07-6.48,7.65-6.48Z" fill="#fff"/><path d="M152.36,6.48l-1.52,8.64c-.21,1.17,.61,2.13,1.78,2.13h23.75l-.77,4.35h-23.75c-3.58,0-5.96-2.93-5.33-6.48l1.52-8.64c.63-3.58,4.04-6.48,7.62-6.48h23.75l-.76,4.32h-23.75c-1.17,0-2.33,.99-2.54,2.16Z" fill="#fff"/><path d="M182.97,21.59h-4.29l3.81-21.59h4.29l-1.52,8.64h21.59l1.52-8.64h4.32l-3.81,21.59h-4.32l1.52-8.64h-21.59l-1.52,8.64Z" fill="#fff"/><path d="M235.67,21.59h-17.24c-3.58,0-5.96-2.93-5.33-6.48l1.52-8.64c.63-3.58,4.04-6.48,7.62-6.48h17.24c3.61,0,5.97,2.9,5.33,6.48l-1.52,8.64c-.63,3.55-4.01,6.48-7.62,6.48Zm-16.47-4.35h17.24c1.23,0,2.36-.96,2.56-2.13l1.52-8.64c.21-1.17-.58-2.16-1.81-2.16h-17.24c-1.2,0-2.33,.99-2.54,2.16l-1.52,8.64c-.21,1.17,.58,2.13,1.78,2.13Z" fill="#fff"/><path d="M249.04,0h4.32l-3.81,21.59h-4.32l3.81-21.59Z" fill="#fff"/><path d="M259.62,6.48l-1.52,8.64c-.21,1.17,.61,2.13,1.78,2.13h23.75l-.77,4.35h-23.75c-3.58,0-5.96-2.93-5.33-6.48l1.52-8.64c.63-3.58,4.04-6.48,7.62-6.48h23.75l-.76,4.32h-23.75c-1.17,0-2.33,.99-2.54,2.16Z" fill="#fff"/><path d="M296.25,0h23.75l-.76,4.32h-23.75c-1.2,0-2.33,.99-2.54,2.16l-.38,2.16h25.91l-.76,4.32h-25.91l-.38,2.16c-.21,1.17,.58,2.13,1.78,2.13h23.75l-.77,4.35h-23.75c-3.58,0-5.99-2.93-5.37-6.48l1.52-8.64c.63-3.58,4.07-6.48,7.65-6.48Z" fill="#fff"/></svg>