<svg xmlns="http://www.w3.org/2000/svg" width="300" height="54" viewBox="0 0 300 54"><path d="M37,17.31c.56,0,.84-.71.84-2.11V6.61c0-1.39-.28-2.08-.84-2.08a3.13,3.13,0,0,0-.73.11,3.82,3.82,0,0,1-.76.11,1.48,1.48,0,0,1-1.19-.59,2.25,2.25,0,0,1-.48-1.46,2.22,2.22,0,0,1,.62-1.65A2.19,2.19,0,0,1,36.07.43c.35,0,1.07.07,2.17.19a18.94,18.94,0,0,0,2.08.12c.25,0,.82,0,1.73-.09L44.32.5c.6,0,1.19-.07,1.77-.07a8.34,8.34,0,0,1,8,4.75,12.42,12.42,0,0,1,1.36,5.74,12.28,12.28,0,0,1-1.3,5.64,8.68,8.68,0,0,1-3.47,3.79,9.43,9.43,0,0,1-4.59,1q-1.07,0-1.8-.06l-2.27-.19c-.49,0-1.07-.06-1.73-.06a20,20,0,0,0-2.08.09L37,21.31q-.72.09-.93.09a2.13,2.13,0,0,1-2.23-2.26,2.23,2.23,0,0,1,.48-1.46,1.48,1.48,0,0,1,1.19-.59,4.08,4.08,0,0,1,.78.11A4,4,0,0,0,37,17.31ZM45.06,4.4a2.16,2.16,0,0,0-1.41.33A1.75,1.75,0,0,0,43.3,6v9.77a1.79,1.79,0,0,0,.35,1.3,2.1,2.1,0,0,0,1.41.34A4.16,4.16,0,0,0,48.13,16a6.71,6.71,0,0,0,1.59-4.86q0-3.63-1.59-5.37a4.28,4.28,0,0,0-1.55-1.12A4.23,4.23,0,0,0,45.06,4.4Z" fill="#fff"/><path d="M67.21,21.8A9.3,9.3,0,0,1,59.92,19q-2.58-2.85-2.58-8.09c0-3.37.86-6,2.56-8A8.94,8.94,0,0,1,67,0a9.58,9.58,0,0,1,7.35,2.82Q76.95,5.64,77,10.7c0,3.49-.86,6.22-2.56,8.17A9,9,0,0,1,67.21,21.8Zm0-17.46q-4,0-4,6.58a10.59,10.59,0,0,0,.78,4.65,3.34,3.34,0,0,0,3.23,1.89c2.66,0,4-2.13,4-6.39a10.5,10.5,0,0,0-1-5.13A3.24,3.24,0,0,0,67.18,4.34Z" fill="#fff"/><path d="M95.55,6.05,97.23,9.4l1.86-3.35a3.91,3.91,0,0,0,.53-1.24c0-.23-.21-.46-.62-.68a1.55,1.55,0,0,1-.81-1.49A2,2,0,0,1,100.42.43a10,10,0,0,1,1.37.1,18.28,18.28,0,0,0,2,.21,12.61,12.61,0,0,0,1.62-.15,13.33,13.33,0,0,1,1.6-.16,2.16,2.16,0,0,1,1.6.62,2.33,2.33,0,0,1,.6,1.68,2.25,2.25,0,0,1-.45,1.44,1.38,1.38,0,0,1-1.13.58,4.68,4.68,0,0,1-.84-.13,3,3,0,0,0-.62-.09.87.87,0,0,0-.65.22,10.33,10.33,0,0,0-.9,1.3l-4.09,6.54A5.09,5.09,0,0,0,99.83,15l0,.87c0,.95.29,1.43,1,1.43a6.49,6.49,0,0,0,1-.11,6.19,6.19,0,0,1,.93-.11,1.52,1.52,0,0,1,1.22.59,2.33,2.33,0,0,1,.48,1.52,2.09,2.09,0,0,1-.62,1.61,2.33,2.33,0,0,1-1.67.59c-.52,0-1.3,0-2.36-.15s-1.85-.16-2.39-.16-1.43.05-2.57.16-2,.15-2.58.15a2.22,2.22,0,0,1-1.64-.62,2.19,2.19,0,0,1-.62-1.61c0-1.39.59-2.08,1.77-2.08a6.58,6.58,0,0,1,.94.11,6.68,6.68,0,0,0,.95.11c.6,0,.9-.48.9-1.43V15a4.47,4.47,0,0,0-.81-2.26L89.1,5.21a1.21,1.21,0,0,0-1-.68,3,3,0,0,0-.59.09,4.12,4.12,0,0,1-.84.13c-1,0-1.49-.64-1.49-1.9,0-1.61.73-2.42,2.17-2.42a16.5,16.5,0,0,1,1.77.16,16.4,16.4,0,0,0,1.86.15A16.24,16.24,0,0,0,93.1.56,11.12,11.12,0,0,1,94.5.43c1.41,0,2.11.78,2.11,2.33a1.37,1.37,0,0,1-.71,1.33l-.62.35a.31.31,0,0,0-.19.31v.09a1,1,0,0,0,.12.49A5.45,5.45,0,0,0,95.55,6.05Z" fill="#fff"/><path d="M119.56,21.8A9.33,9.33,0,0,1,112.27,19c-1.72-1.9-2.57-4.6-2.57-8.09s.85-6,2.56-8a8.91,8.91,0,0,1,7-2.9,9.58,9.58,0,0,1,7.35,2.82q2.64,2.82,2.64,7.88c0,3.49-.86,6.22-2.56,8.17A9,9,0,0,1,119.56,21.8Zm0-17.46q-4,0-4,6.58a10.61,10.61,0,0,0,.77,4.65,3.34,3.34,0,0,0,3.23,1.89c2.66,0,4-2.13,4-6.39a10.5,10.5,0,0,0-1-5.13A3.24,3.24,0,0,0,119.53,4.34Z" fill="#fff"/><path d="M152,6.3V7.66l0,2.73v1c0,2.32,0,3.7-.09,4.16a6.12,6.12,0,0,1-1.52,3.69c-1.64,1.74-4.11,2.6-7.41,2.6s-5.84-.9-7.26-2.69a7.73,7.73,0,0,1-1.3-4.87q0-.28.09-3.45c0-1.4.06-2.53.06-3.38V6.2c0-1.11-.3-1.67-.9-1.67a2.94,2.94,0,0,0-.68.11,3.64,3.64,0,0,1-.75.11,1.51,1.51,0,0,1-1.19-.58,2.16,2.16,0,0,1-.48-1.44,2.19,2.19,0,0,1,.67-1.68A2.46,2.46,0,0,1,133,.43c.45,0,1.14.06,2,.16s1.59.15,2,.15a15,15,0,0,0,1.76-.15,15.23,15.23,0,0,1,1.75-.16,1.93,1.93,0,0,1,1.49.62,2.45,2.45,0,0,1,.55,1.68c0,1.24-.42,1.86-1.27,1.86h-.31a2.17,2.17,0,0,0-.4,0c-.35,0-.56.22-.62.65V13.4a4.77,4.77,0,0,0,.73,3,3,3,0,0,0,2.46.89,3.18,3.18,0,0,0,2.53-.92,4.54,4.54,0,0,0,.79-3V6.3a5.13,5.13,0,0,0-.12-1.45.54.54,0,0,0-.56-.29,1.9,1.9,0,0,0-.37,0h-.31c-.85,0-1.27-.63-1.27-1.89a2.36,2.36,0,0,1,.57-1.65A2,2,0,0,1,146,.43a16.35,16.35,0,0,1,1.79.16,15.64,15.64,0,0,0,1.78.15c.45,0,1.14-.05,2-.15s1.59-.16,2-.16a2.31,2.31,0,0,1,1.69.62A2.24,2.24,0,0,1,156,2.73a2.16,2.16,0,0,1-.48,1.46,1.59,1.59,0,0,1-1.26.56,3.38,3.38,0,0,1-.69-.11,2.81,2.81,0,0,0-.67-.11Q152,4.53,152,6.3Z" fill="#fff"/><path d="M183.36,2.57l2.07,13.34,2-10.23a2.42,2.42,0,0,0,.09-.59c0-.38-.18-.56-.53-.56l-.4.06h-.19l-.18,0c-.79,0-1.18-.62-1.18-1.86,0-1.55.69-2.33,2.08-2.33a13.59,13.59,0,0,1,1.49.13q1.45.18,2,.18L193,.47a6.21,6.21,0,0,1,.68,0,2.07,2.07,0,0,1,1.54.64,2.24,2.24,0,0,1,.6,1.6,2.43,2.43,0,0,1-.45,1.46,1.3,1.3,0,0,1-1.07.62,1.85,1.85,0,0,1-.63-.11,1.38,1.38,0,0,0-.51-.11c-.36,0-.61.26-.78.77,0,0-.09.43-.28,1.21L189.28,19a8,8,0,0,1-.47,1.55,1.29,1.29,0,0,1-1.27.66c-.23,0-.56,0-1-.07-.21,0-.57,0-1.09,0s-.81,0-1.14,0l-1,.07h-.15a1.18,1.18,0,0,1-1.12-.56,10,10,0,0,1-.62-2.55L179.76,7.32l-1.71,10.82a9.56,9.56,0,0,1-.62,2.55,1.18,1.18,0,0,1-1.12.56c-.18,0-.56,0-1.14-.07-.29,0-.66,0-1.12,0-.23,0-.57,0-1,.05s-.81.05-1,.05a1.3,1.3,0,0,1-1.27-.66,7.35,7.35,0,0,1-.46-1.55l-.38-1.58-2.48-11c-.08-.39-.16-.79-.25-1.21s-.44-.77-.77-.77a1.73,1.73,0,0,0-.53.09,2.15,2.15,0,0,1-.62.13,1.35,1.35,0,0,1-1.08-.62,2.43,2.43,0,0,1-.47-1.49,2.19,2.19,0,0,1,.62-1.59,2.11,2.11,0,0,1,1.55-.62,12.43,12.43,0,0,1,1.57.16,11.93,11.93,0,0,0,1.6.15q.5,0,1.95-.18a13.39,13.39,0,0,1,1.49-.13c1.38,0,2.08.74,2.08,2.21,0,1.32-.4,2-1.18,2l-.19,0h-.22l-.37-.06c-.35,0-.53.2-.53.59a3.16,3.16,0,0,0,.07.56l2,10.23,2-13.34a5.74,5.74,0,0,1,.46-1.73,1,1,0,0,1,.87-.41c.25,0,.63,0,1.15.08s.9.08,1.15.08.62,0,1.13-.08.88-.08,1.13-.08a1,1,0,0,1,1.06.72A12.22,12.22,0,0,1,183.36,2.57Z" fill="#fff"/><path d="M208.32,14.83H204.2q-1.77,0-1.77,2.1c0,.34.17.5.53.5a3.85,3.85,0,0,0,.46-.05,3.38,3.38,0,0,1,.47,0q1.14,0,1.14,1.83a2.4,2.4,0,0,1-.52,1.61,1.76,1.76,0,0,1-1.4.62,16.6,16.6,0,0,1-1.92-.22,14.34,14.34,0,0,0-1.83-.09,16.94,16.94,0,0,0-2,.09c-1.09.15-1.74.22-2,.22a2.18,2.18,0,0,1-1.57-.59,2.07,2.07,0,0,1-.6-1.55c0-1.45.55-2.17,1.64-2.17a4,4,0,0,1,.59.05,5.68,5.68,0,0,0,.59,0,1.09,1.09,0,0,0,1-.65c.06-.12.21-.51.44-1.15l4.28-12.19a4.73,4.73,0,0,1,1.67-2.6,8.19,8.19,0,0,1,3-.34,10.13,10.13,0,0,1,3.29.32,2.81,2.81,0,0,1,1.11,1.82l4,13.21c.31,1,.68,1.58,1.09,1.58a4.09,4.09,0,0,0,.65-.09h.34c1.16,0,1.74.68,1.74,2.05a2.22,2.22,0,0,1-.62,1.64,2.2,2.2,0,0,1-1.61.62,9.56,9.56,0,0,1-1.15-.09,7.6,7.6,0,0,0-1.15-.16q-.68-.06-1.77-.06a13.24,13.24,0,0,0-1.58.06,17.32,17.32,0,0,1-2,.25,1.72,1.72,0,0,1-1.38-.64,2.31,2.31,0,0,1-.55-1.59c0-1.22.4-1.83,1.18-1.83a3.5,3.5,0,0,1,.47,0,3.65,3.65,0,0,0,.46.05c.39,0,.59-.22.59-.65a2.64,2.64,0,0,0-.34-1.4A1,1,0,0,0,208.32,14.83Zm-.46-4.75-1.49-6.36-1.93,6.61a.66.66,0,0,0,0,.21c0,.25.26.38.78.38h1.92c.54,0,.81-.15.81-.44C207.92,10.5,207.9,10.37,207.86,10.08Z" fill="#fff"/><path d="M231.3,2.51l5.46,13.28V6.61c0-1.39-.27-2.08-.8-2.08a2.42,2.42,0,0,0-.64.11,2.92,2.92,0,0,1-.64.11,1.36,1.36,0,0,1-1.1-.59,2.35,2.35,0,0,1-.45-1.46,2.33,2.33,0,0,1,.59-1.65,2.06,2.06,0,0,1,1.55-.62A17.13,17.13,0,0,1,237,.59a17.67,17.67,0,0,0,2.14.15,18.41,18.41,0,0,0,1.95-.12c1.12-.12,1.81-.19,2.08-.19a2.19,2.19,0,0,1,1.61.62,2.22,2.22,0,0,1,.62,1.65,2.2,2.2,0,0,1-.49,1.46,1.54,1.54,0,0,1-1.21.59,3.64,3.64,0,0,1-.75-.11,2.92,2.92,0,0,0-.71-.11c-.41,0-.68.26-.81.77a8.77,8.77,0,0,0-.06,1.31V19.23c0,1.36-.56,2.05-1.67,2.05-.21,0-.53,0-1-.05s-.74-.05-.94-.05l-1.52.07h-.69a1.81,1.81,0,0,1-1.33-.44,5,5,0,0,1-.71-1.33l-6-13.65V15.2c0,1.4.27,2.11.81,2.11a3.37,3.37,0,0,0,.66-.11,3.45,3.45,0,0,1,.67-.11,1.36,1.36,0,0,1,1.1.59,2.33,2.33,0,0,1,.45,1.46c0,1.51-.72,2.26-2.17,2.26a17.05,17.05,0,0,1-2-.19,15.47,15.47,0,0,0-1.92-.12,18.82,18.82,0,0,0-2.17.16q-1.37.15-1.74.15a2,2,0,0,1-2.26-2.26,2.23,2.23,0,0,1,.48-1.46,1.49,1.49,0,0,1,1.19-.59,3.82,3.82,0,0,1,.76.11,3.89,3.89,0,0,0,.73.11c.56,0,.84-.71.84-2.11V6.61c0-1.39-.28-2.08-.84-2.08a3.2,3.2,0,0,0-.73.11,3.82,3.82,0,0,1-.76.11,1.49,1.49,0,0,1-1.19-.59,2.25,2.25,0,0,1-.48-1.46,2.22,2.22,0,0,1,.62-1.65,2.19,2.19,0,0,1,1.61-.62,17.34,17.34,0,0,1,1.89.16,17.33,17.33,0,0,0,2,.15q.59,0,2-.12c.44,0,.93-.06,1.49-.12a5.09,5.09,0,0,1,.81-.07,1.5,1.5,0,0,1,1.3.66A8.58,8.58,0,0,1,231.3,2.51Z" fill="#fff"/><path d="M252.46,17.31c.7,0,1-.64,1-1.93V6.45c0-1.38-.51-2.08-1.52-2.08s-1.52.36-1.52,1.06a6.58,6.58,0,0,0,.11.94,6.68,6.68,0,0,1,.11,1c0,1.84-.78,2.76-2.33,2.76a2.14,2.14,0,0,1-1.7-.7A2.67,2.67,0,0,1,246,7.51c0-.27,0-.76.12-1.46a13.62,13.62,0,0,0,.09-1.49c0-.25,0-.76-.09-1.52,0-.52-.06-.93-.06-1.24A1.21,1.21,0,0,1,247.46.43c.48,0,1.08,0,1.8.1q2.48.21,6.95.21c3,0,5.32-.07,7-.21.72-.06,1.31-.1,1.76-.1a1.23,1.23,0,0,1,1.4,1.37c0,.31,0,.77-.08,1.38s-.07,1.07-.07,1.38,0,.83.09,1.49c.08.87.12,1.36.12,1.49a2.65,2.65,0,0,1-.63,1.86,2.23,2.23,0,0,1-1.69.68c-1.55,0-2.33-.89-2.33-2.67a7.17,7.17,0,0,1,.09-1,7.42,7.42,0,0,0,.1-.93c0-.74-.46-1.12-1.37-1.12a1.54,1.54,0,0,0-1.27.47,2.63,2.63,0,0,0-.37,1.61v8.93c0,1.29.35,1.93,1.05,1.93a7.17,7.17,0,0,0,1-.11,7.17,7.17,0,0,1,1-.11A1.64,1.64,0,0,1,263.87,19c0,1.63-.78,2.45-2.33,2.45-.6,0-1.31,0-2.14-.12a31,31,0,0,0-3.19-.19,30.6,30.6,0,0,0-3.2.19c-.8.08-1.52.12-2.14.12a2,2,0,0,1-2.32-2.26c0-1.37.63-2.05,1.89-2.05a7.32,7.32,0,0,1,1,.11A7.17,7.17,0,0,0,252.46,17.31Z" fill="#fff"/><path d="M10.45,36.61q-1,0-1,1.71v8.74a7.36,7.36,0,0,0,.09,1.52,1.23,1.23,0,0,0,1.06.93,2.69,2.69,0,0,0,.46.05l.62,0h1.52c1.68,0,2.51-.52,2.51-1.55a4.61,4.61,0,0,0-.12-1,6.74,6.74,0,0,1-.15-1.21,2.13,2.13,0,0,1,.74-1.66,2.71,2.71,0,0,1,1.86-.66A2.18,2.18,0,0,1,20.53,46c0,.18,0,.41,0,.68s-.05.58-.09.93-.08.66-.1.93,0,.49,0,.65,0,.42,0,.62,0,.42.05.62c0,.42.07.74.09,1s0,.38,0,.42c0,1.14-.67,1.7-2,1.7l-1.27,0-1.73-.09c-2-.12-4.84-.19-8.56-.19-.56,0-1.06,0-1.51,0s-.85.07-1.22.12-.72.1-1,.13-.64.05-1,.05A2,2,0,0,1,.6,52.86,2.32,2.32,0,0,1,0,51.22a2.2,2.2,0,0,1,.48-1.47,1.52,1.52,0,0,1,1.23-.58,3.82,3.82,0,0,1,.72.11,4,4,0,0,0,.73.11c.56,0,.84-.7.84-2.11V38.69c0-1.38-.28-2.08-.84-2.08a4,4,0,0,0-.73.11,3.82,3.82,0,0,1-.76.11,1.49,1.49,0,0,1-1.19-.59A2.23,2.23,0,0,1,0,34.78a2,2,0,0,1,2.3-2.26c.28,0,1.17.06,2.66.18.5,0,1,.08,1.41.1l1.29,0q.52,0,1,0c.33,0,.67,0,1-.1a20.14,20.14,0,0,1,2.14-.18,2.07,2.07,0,0,1,2.23,2.23,2.33,2.33,0,0,1-.47,1.49,1.44,1.44,0,0,1-1.17.59,6.56,6.56,0,0,1-1-.11A6.56,6.56,0,0,0,10.45,36.61Z" fill="#fff"/><path d="M24.63,49.39c.41,0,.67-.27.77-.81a8.6,8.6,0,0,0,.06-1.3V38.69a7.94,7.94,0,0,0-.06-1.27c-.1-.54-.36-.81-.77-.81a3.78,3.78,0,0,0-.73.11,3.92,3.92,0,0,1-.76.11,1.5,1.5,0,0,1-1.2-.59,2.51,2.51,0,0,1,.13-3.12,2.2,2.2,0,0,1,1.63-.6c.31,0,1,.06,2.17.18a18.89,18.89,0,0,0,2.23.13c.58,0,1.41,0,2.5-.16s1.8-.15,2.15-.15A2,2,0,0,1,35,34.78a2.19,2.19,0,0,1-.49,1.46,1.48,1.48,0,0,1-1.19.59,4,4,0,0,1-.74-.11,4.05,4.05,0,0,0-.75-.11c-.56,0-.84.7-.84,2.08v8.59c0,1.41.28,2.11.84,2.11a4.05,4.05,0,0,0,.75-.11,4,4,0,0,1,.74-.11,1.48,1.48,0,0,1,1.19.59A2.2,2.2,0,0,1,35,51.22a2.33,2.33,0,0,1-.61,1.64,2,2,0,0,1-1.53.66.88.88,0,0,1-.28,0l-2-.24a11.74,11.74,0,0,0-1.64-.1,27.18,27.18,0,0,0-2.92.16c-1.22.12-2,.18-2.38.18a2.17,2.17,0,0,1-1.62-.62,2.48,2.48,0,0,1-.14-3.11,1.52,1.52,0,0,1,1.23-.58,3.89,3.89,0,0,1,.73.11A3.78,3.78,0,0,0,24.63,49.39Z" fill="#fff"/><path d="M47.42,36.43a3.33,3.33,0,0,0-1.36.18c-.31.19-.47.6-.47,1.24v1.74a1.8,1.8,0,0,0,.14.79c.09.18.34.26.73.26.91,0,1.36-.33,1.36-1v-.4a3.09,3.09,0,0,1,0-.47c0-.87.51-1.3,1.52-1.3a1.4,1.4,0,0,1,1.58,1.58,8.51,8.51,0,0,1-.06,1,16.55,16.55,0,0,0-.12,1.9c0,.53,0,1.22.12,2S51,45.37,51,45.7q0,1.83-1.65,1.83A1.39,1.39,0,0,1,47.76,46v-.16c0-.1,0-.35.06-.74s-.44-.75-1.33-.75c-.6,0-.9.34-.9,1v2.32A2.1,2.1,0,0,0,46,49.1a2.09,2.09,0,0,0,1.44.38h1.8A7.8,7.8,0,0,0,52,49.14a1.22,1.22,0,0,0,.79-1.21,6.21,6.21,0,0,0-.1-1,7,7,0,0,1-.09-1,2.44,2.44,0,0,1,.65-1.8A2.37,2.37,0,0,1,55,43.44c1.51,0,2.26.82,2.26,2.48,0,.53,0,1.1-.09,1.7-.1,1-.16,1.62-.16,1.86a11.83,11.83,0,0,0,.16,1.34A7.92,7.92,0,0,1,57.28,52c0,1-.61,1.45-1.83,1.45q-.59,0-2-.09-2.27-.15-7.23-.22H43.51c-1,0-1.89,0-2.57.1l-2.36.21-.12,0H38.3a2,2,0,0,1-1.56-.66,2.28,2.28,0,0,1-.61-1.64,2.25,2.25,0,0,1,.48-1.46,1.52,1.52,0,0,1,1.23-.59,4.09,4.09,0,0,1,.74.11,4.12,4.12,0,0,0,.71.11c.56,0,.84-.7.84-2.11V38.69c0-1.38-.28-2.08-.84-2.08a3.87,3.87,0,0,0-.74.13,3.35,3.35,0,0,1-.71.09,1.53,1.53,0,0,1-1.21-.59,2.19,2.19,0,0,1-.5-1.46,2,2,0,0,1,2.27-2.26c.35,0,1.06,0,2.14.12,1.61.13,3.17.19,4.68.19l3.72-.09c1.7-.05,2.81-.09,3.35-.13q1.34-.09,2.79-.09c1.16,0,1.74.51,1.74,1.52,0,.33,0,.82-.11,1.46S56.6,36.62,56.6,37a10.43,10.43,0,0,0,.14,1.41,10.53,10.53,0,0,1,.14,1.38,2,2,0,0,1-.67,1.52,2.3,2.3,0,0,1-1.66.62,2.07,2.07,0,0,1-2.32-2.38,5.69,5.69,0,0,1,.14-1.12,6.58,6.58,0,0,0,.14-1.05.79.79,0,0,0-.72-.84,7.88,7.88,0,0,0-1.3-.06Z" fill="#fff"/><path d="M67.33,32.08a6.31,6.31,0,0,1,5.09,2.21,2.24,2.24,0,0,1,.42-1.49,1.8,1.8,0,0,1,1.35-.41q2,0,2,1.68c0,.31,0,.76-.09,1.36S76,36.49,76,36.8a6,6,0,0,0,.07.8,8,8,0,0,1,.06.81v.16c0,1.22-.7,1.83-2.11,1.83a1.89,1.89,0,0,1-2.11-1.49l-.15-.65c-.31-1.35-1.41-2-3.29-2s-2.67.62-2.67,1.86a1.38,1.38,0,0,0,.57,1.3,11.88,11.88,0,0,0,2.9.81,12.24,12.24,0,0,1,5.68,2.33,5.31,5.31,0,0,1,1.77,4.21,6.76,6.76,0,0,1-2.14,5.14,7.7,7.7,0,0,1-5.46,2,8.46,8.46,0,0,1-5.3-2,1.66,1.66,0,0,1-1.87,1.74,1.77,1.77,0,0,1-2-2A11.55,11.55,0,0,1,60,50.26a14.22,14.22,0,0,0,.13-1.52c0-.23,0-.58-.08-1.06s-.08-.82-.08-1a1.58,1.58,0,0,1,.67-1.32,2.75,2.75,0,0,1,1.72-.51,2.34,2.34,0,0,1,1.69.51,3.56,3.56,0,0,1,.73,1.91c.23,1.55,1.4,2.33,3.53,2.33a3.19,3.19,0,0,0,2.08-.63,2,2,0,0,0,.78-1.61,1.7,1.7,0,0,0-.68-1.53,12.83,12.83,0,0,0-3.26-1.07l-2-.5A7,7,0,0,1,62.71,43a5.33,5.33,0,0,1-2.23-4.5,6,6,0,0,1,1.9-4.63A7,7,0,0,1,67.33,32.08Z" fill="#fff"/><path d="M105.08,34.66,107.15,48l2-10.23a2.35,2.35,0,0,0,.09-.59c0-.37-.17-.56-.53-.56l-.4.06h-.19a.54.54,0,0,1-.18,0c-.79,0-1.18-.62-1.18-1.87,0-1.55.69-2.32,2.08-2.32a12.91,12.91,0,0,1,1.49.12,17.85,17.85,0,0,0,1.95.19l2.48-.28.68,0a2,2,0,0,1,1.54.63,2.25,2.25,0,0,1,.6,1.6,2.41,2.41,0,0,1-.45,1.46,1.3,1.3,0,0,1-1.07.62,1.85,1.85,0,0,1-.63-.11,1.62,1.62,0,0,0-.51-.11q-.52,0-.78.78s-.09.42-.28,1.21L111,51.13a8.29,8.29,0,0,1-.47,1.55,1.3,1.3,0,0,1-1.27.65c-.22,0-.56,0-1-.06-.21,0-.57,0-1.09,0s-.81,0-1.14,0l-1,.06h-.15a1.18,1.18,0,0,1-1.12-.56,9.87,9.87,0,0,1-.62-2.54L101.48,39.4,99.77,50.23a9.07,9.07,0,0,1-.62,2.54,1.16,1.16,0,0,1-1.11.56l-1.15-.06c-.29,0-.66,0-1.12,0-.23,0-.57,0-1,0s-.81,0-1,0a1.31,1.31,0,0,1-1.27-.65A7.57,7.57,0,0,1,92,51.13l-.38-1.58L89.1,38.6l-.24-1.21q-.28-.78-.78-.78a1.5,1.5,0,0,0-.53.1,2.08,2.08,0,0,1-.62.12,1.35,1.35,0,0,1-1.08-.62,2.41,2.41,0,0,1-.47-1.49,2.12,2.12,0,0,1,2.17-2.2,12,12,0,0,1,1.57.15,10.74,10.74,0,0,0,1.6.16,17.85,17.85,0,0,0,2-.19,12.91,12.91,0,0,1,1.49-.12c1.38,0,2.08.73,2.08,2.2s-.4,2-1.18,2a.58.58,0,0,1-.19,0h-.21l-.38-.06c-.35,0-.52.2-.52.59a3,3,0,0,0,.06.56L95.8,48l2-13.33a5.38,5.38,0,0,1,.47-1.74.92.92,0,0,1,.86-.4,10.44,10.44,0,0,1,1.15.08c.52,0,.9.07,1.15.07s.62,0,1.13-.07a10,10,0,0,1,1.13-.08,1.05,1.05,0,0,1,1.06.71A12.61,12.61,0,0,1,105.08,34.66Z" fill="#fff"/><path d="M121,49.39c.41,0,.67-.27.77-.81a8.6,8.6,0,0,0,.06-1.3V38.69a7.94,7.94,0,0,0-.06-1.27c-.1-.54-.36-.81-.77-.81a3.78,3.78,0,0,0-.73.11,3.92,3.92,0,0,1-.76.11,1.5,1.5,0,0,1-1.2-.59,2.23,2.23,0,0,1-.48-1.46,2.28,2.28,0,0,1,.61-1.66,2.2,2.2,0,0,1,1.63-.6c.31,0,1,.06,2.17.18a19,19,0,0,0,2.23.13c.58,0,1.41,0,2.5-.16s1.8-.15,2.15-.15a2,2,0,0,1,2.27,2.26,2.23,2.23,0,0,1-.48,1.46,1.5,1.5,0,0,1-1.2.59,4.09,4.09,0,0,1-.74-.11,4.05,4.05,0,0,0-.75-.11c-.55,0-.83.7-.83,2.08v8.59c0,1.41.28,2.11.83,2.11a4.05,4.05,0,0,0,.75-.11,4.09,4.09,0,0,1,.74-.11,1.5,1.5,0,0,1,1.2.59,2.25,2.25,0,0,1,.48,1.46,2.28,2.28,0,0,1-.61,1.64,2,2,0,0,1-1.53.66.88.88,0,0,1-.28,0l-2-.24a11.74,11.74,0,0,0-1.64-.1,27.18,27.18,0,0,0-2.92.16c-1.22.12-2,.18-2.38.18a2.17,2.17,0,0,1-1.62-.62,2.48,2.48,0,0,1-.14-3.11,1.52,1.52,0,0,1,1.23-.58,3.89,3.89,0,0,1,.73.11A3.78,3.78,0,0,0,121,49.39Z" fill="#fff"/><path d="M138.94,49.39c.71,0,1.06-.64,1.06-1.92V38.54c0-1.39-.51-2.08-1.52-2.08s-1.52.35-1.52,1a5.46,5.46,0,0,0,.11,1,6.58,6.58,0,0,1,.11.94c0,1.84-.78,2.76-2.33,2.76a2.2,2.2,0,0,1-1.71-.69,2.75,2.75,0,0,1-.62-1.88,13.42,13.42,0,0,1,.13-1.46,13.47,13.47,0,0,0,.09-1.49c0-.24,0-.75-.09-1.52,0-.51-.06-.93-.06-1.24A1.2,1.2,0,0,1,134,32.52c.48,0,1.07,0,1.8.09q2.48.22,6.95.22c3,0,5.32-.07,7-.22q1.1-.09,1.77-.09a1.22,1.22,0,0,1,1.4,1.36c0,.31,0,.77-.08,1.38s-.08,1.07-.08,1.38,0,.83.1,1.49c.08.87.12,1.37.12,1.49a2.58,2.58,0,0,1-.64,1.86,2.16,2.16,0,0,1-1.69.68c-1.55,0-2.32-.88-2.32-2.66a7.43,7.43,0,0,1,.09-1,7,7,0,0,0,.09-.93c0-.74-.45-1.11-1.36-1.11a1.54,1.54,0,0,0-1.27.46,2.64,2.64,0,0,0-.37,1.62v8.93q0,1.92,1,1.92a7.32,7.32,0,0,0,1-.11,7.17,7.17,0,0,1,1-.11A1.64,1.64,0,0,1,150.36,51c0,1.64-.78,2.45-2.33,2.45-.6,0-1.31,0-2.14-.12-1.24-.12-2.31-.19-3.19-.19s-2,.07-3.2.19c-.8.08-1.52.12-2.14.12A2,2,0,0,1,135,51.22c0-1.36.63-2,1.89-2a7.47,7.47,0,0,1,1,.11A7.21,7.21,0,0,0,138.94,49.39Z" fill="#fff"/><path d="M163.44,38.35v2.17H170V38.35a8.71,8.71,0,0,0,0-1.06c-.07-.43-.26-.65-.59-.65a1.9,1.9,0,0,0-.37,0h-.28c-.91,0-1.37-.63-1.37-1.89a2.28,2.28,0,0,1,.58-1.64,2,2,0,0,1,1.5-.62,17.1,17.1,0,0,1,1.86.15,15.33,15.33,0,0,0,1.86.16,18.66,18.66,0,0,0,2-.13l2.08-.21a2.09,2.09,0,0,1,1.59.63,2.3,2.3,0,0,1,.61,1.66,2.23,2.23,0,0,1-.48,1.46,1.5,1.5,0,0,1-1.2.59,3.92,3.92,0,0,1-.76-.11,3.78,3.78,0,0,0-.73-.11c-.41,0-.68.26-.8.78a8.6,8.6,0,0,0-.06,1.3v8.59c0,1.41.27,2.11.83,2.11a4.05,4.05,0,0,0,.75-.11,4.09,4.09,0,0,1,.74-.11,1.53,1.53,0,0,1,1.21.59,2.21,2.21,0,0,1,.5,1.46,2.28,2.28,0,0,1-.61,1.66,2.1,2.1,0,0,1-1.59.64h-.13a.19.19,0,0,0-.12,0,16.74,16.74,0,0,1-1.86-.15,17.68,17.68,0,0,0-1.9-.16,14.56,14.56,0,0,0-2,.13,15,15,0,0,1-1.8.18,1.89,1.89,0,0,1-1.47-.63,2.37,2.37,0,0,1-.58-1.66c0-1.26.46-1.89,1.37-1.89a1,1,0,0,1,.28,0h.21l.16,0c.33,0,.52-.23.59-.68,0-.23,0-.58,0-1.06V44.55h-6.52v4.16c.07.43.27.65.63.65l.15,0h.19a.94.94,0,0,1,.28,0c.9,0,1.36.63,1.36,1.89a2.41,2.41,0,0,1-.57,1.66,1.93,1.93,0,0,1-1.48.63,14.29,14.29,0,0,1-1.69-.15,14.65,14.65,0,0,0-1.72-.16,19.32,19.32,0,0,0-2.32.13,20.64,20.64,0,0,1-2.08.18,2.11,2.11,0,0,1-1.6-.62,2.25,2.25,0,0,1-.6-1.64,2.2,2.2,0,0,1,.49-1.46,1.54,1.54,0,0,1,1.21-.59,3.78,3.78,0,0,1,.73.11,3.78,3.78,0,0,0,.73.11c.56,0,.84-.7.84-2.11V38.69c0-1.38-.28-2.08-.84-2.08a3.78,3.78,0,0,0-.73.11,3.82,3.82,0,0,1-.76.11,1.48,1.48,0,0,1-1.19-.59,2.24,2.24,0,0,1,1.75-3.72c.2,0,.87.06,2,.18a18.69,18.69,0,0,0,2.24.13,11.37,11.37,0,0,0,1.8-.13,14,14,0,0,1,1.76-.18,1.89,1.89,0,0,1,1.49.63,2.45,2.45,0,0,1,.56,1.66c0,1.24-.46,1.86-1.36,1.86h-.28a1.58,1.58,0,0,0-.34,0c-.36,0-.56.22-.63.65Z" fill="#fff"/><path d="M194.71,49.39q1,0,1-1.92V38.54c0-1.39-.51-2.08-1.52-2.08s-1.52.35-1.52,1a6.68,6.68,0,0,0,.11,1,6.58,6.58,0,0,1,.11.94c0,1.84-.78,2.76-2.33,2.76a2.16,2.16,0,0,1-1.7-.69,2.7,2.7,0,0,1-.62-1.88c0-.27,0-.75.12-1.46a13.47,13.47,0,0,0,.09-1.49c0-.24,0-.75-.09-1.52,0-.51-.06-.93-.06-1.24a1.2,1.2,0,0,1,1.36-1.36q.72,0,1.8.09c1.66.15,4,.22,7,.22s5.32-.07,7-.22q1.08-.09,1.77-.09a1.21,1.21,0,0,1,1.39,1.36c0,.31,0,.77-.08,1.38s-.07,1.07-.07,1.38,0,.83.09,1.49c.08.87.12,1.37.12,1.49a2.62,2.62,0,0,1-.63,1.86,2.19,2.19,0,0,1-1.69.68c-1.55,0-2.33-.88-2.33-2.66a7.43,7.43,0,0,1,.09-1,5.89,5.89,0,0,0,.1-.93c0-.74-.46-1.11-1.37-1.11a1.54,1.54,0,0,0-1.27.46,2.64,2.64,0,0,0-.37,1.62v8.93q0,1.92,1.05,1.92a7.17,7.17,0,0,0,1-.11,7.32,7.32,0,0,1,1-.11A1.64,1.64,0,0,1,206.12,51c0,1.64-.77,2.45-2.33,2.45-.6,0-1.31,0-2.14-.12-1.24-.12-2.3-.19-3.19-.19s-2,.07-3.19.19c-.81.08-1.52.12-2.14.12a2,2,0,0,1-2.33-2.26c0-1.36.63-2,1.89-2a7.32,7.32,0,0,1,1,.11A7.17,7.17,0,0,0,194.71,49.39Z" fill="#fff"/><path d="M219.21,38.35v2.17h6.51V38.35a8.71,8.71,0,0,0,0-1.06c-.06-.43-.26-.65-.59-.65a2,2,0,0,0-.37,0h-.28c-.91,0-1.37-.63-1.37-1.89a2.33,2.33,0,0,1,.58-1.64,2,2,0,0,1,1.5-.62,16.74,16.74,0,0,1,1.86.15,15.33,15.33,0,0,0,1.86.16,18.66,18.66,0,0,0,2-.13l2.08-.21a2.13,2.13,0,0,1,1.6.63,2.33,2.33,0,0,1,.6,1.66,2.23,2.23,0,0,1-.48,1.46,1.49,1.49,0,0,1-1.19.59,3.82,3.82,0,0,1-.76-.11,3.89,3.89,0,0,0-.73-.11q-.63,0-.81.78a8.6,8.6,0,0,0-.06,1.3v8.59c0,1.41.28,2.11.84,2.11a4.09,4.09,0,0,0,.74-.11,4.09,4.09,0,0,1,.74-.11,1.53,1.53,0,0,1,1.21.59,2.21,2.21,0,0,1,.5,1.46,2.32,2.32,0,0,1-.6,1.66,2.14,2.14,0,0,1-1.6.64h-.13a.19.19,0,0,0-.12,0,17.1,17.1,0,0,1-1.86-.15,17.74,17.74,0,0,0-1.89-.16,14.6,14.6,0,0,0-2,.13,15,15,0,0,1-1.8.18,1.89,1.89,0,0,1-1.47-.63,2.41,2.41,0,0,1-.58-1.66c0-1.26.46-1.89,1.37-1.89a1,1,0,0,1,.28,0H225l.15,0c.33,0,.53-.23.59-.68,0-.23,0-.58,0-1.06V44.55h-6.51v4.16c.06.43.27.65.62.65l.15,0h.19a.94.94,0,0,1,.28,0c.91,0,1.36.63,1.36,1.89a2.41,2.41,0,0,1-.57,1.66,1.89,1.89,0,0,1-1.47.63,14,14,0,0,1-1.69-.15,14.78,14.78,0,0,0-1.73-.16,19.45,19.45,0,0,0-2.32.13,20.41,20.41,0,0,1-2.08.18,2.12,2.12,0,0,1-1.6-.62,2.25,2.25,0,0,1-.6-1.64,2.2,2.2,0,0,1,.49-1.46,1.56,1.56,0,0,1,1.21-.59,3.78,3.78,0,0,1,.73.11,3.89,3.89,0,0,0,.73.11c.56,0,.84-.7.84-2.11V38.69c0-1.38-.28-2.08-.84-2.08a3.89,3.89,0,0,0-.73.11,3.82,3.82,0,0,1-.76.11,1.49,1.49,0,0,1-1.19-.59,2.23,2.23,0,0,1-.48-1.46A2.13,2.13,0,0,1,212,32.52c.21,0,.87.06,2,.18a18.53,18.53,0,0,0,2.23.13,11.37,11.37,0,0,0,1.8-.13,14.1,14.1,0,0,1,1.77-.18,1.87,1.87,0,0,1,1.48.63,2.4,2.4,0,0,1,.56,1.66c0,1.24-.45,1.86-1.36,1.86h-.28a1.52,1.52,0,0,0-.34,0c-.35,0-.56.22-.62.65Z" fill="#fff"/><path d="M250.53,46.91h-4.12c-1.18,0-1.77.7-1.77,2.11,0,.33.18.49.53.49a3.26,3.26,0,0,0,.46,0,3.77,3.77,0,0,1,.47,0q1.14,0,1.14,1.83a2.4,2.4,0,0,1-.52,1.61,1.73,1.73,0,0,1-1.4.62,18.23,18.23,0,0,1-1.92-.21,14,14,0,0,0-1.83-.1,16.55,16.55,0,0,0-2,.1q-1.64.21-2,.21a2.14,2.14,0,0,1-1.57-.59,2.06,2.06,0,0,1-.6-1.55c0-1.44.55-2.17,1.64-2.17.13,0,.32,0,.59,0s.47.05.59.05a1.1,1.1,0,0,0,1-.66c.06-.12.21-.5.44-1.14L244,35.28a4.77,4.77,0,0,1,1.67-2.61,8.43,8.43,0,0,1,3-.34,9.74,9.74,0,0,1,3.29.33A2.78,2.78,0,0,1,253,34.47l4,13.21c.31,1.06.68,1.59,1.09,1.59a3.4,3.4,0,0,0,.65-.1h.34c1.16,0,1.74.69,1.74,2a2.22,2.22,0,0,1-.62,1.64,2.15,2.15,0,0,1-1.61.62,9.56,9.56,0,0,1-1.15-.09,8.6,8.6,0,0,0-1.15-.15,16.91,16.91,0,0,0-1.77-.07,10.85,10.85,0,0,0-1.58.07,18.91,18.91,0,0,1-2,.24,1.74,1.74,0,0,1-1.38-.63,2.36,2.36,0,0,1-.55-1.6c0-1.22.4-1.83,1.18-1.83a3.77,3.77,0,0,1,.47,0,3.26,3.26,0,0,0,.46,0c.4,0,.59-.21.59-.65a2.6,2.6,0,0,0-.34-1.39A1,1,0,0,0,250.53,46.91Zm-.46-4.75-1.49-6.35-1.92,6.6a.51.51,0,0,0,0,.22c0,.25.26.37.78.37h1.92c.54,0,.81-.14.81-.43C250.13,42.59,250.11,42.45,250.07,42.16Z" fill="#fff"/><path d="M267.09,49.39c.71,0,1.06-.64,1.06-1.92V38.54c0-1.39-.51-2.08-1.52-2.08s-1.52.35-1.52,1a5.46,5.46,0,0,0,.11,1,6.58,6.58,0,0,1,.11.94c0,1.84-.78,2.76-2.33,2.76a2.2,2.2,0,0,1-1.71-.69,2.75,2.75,0,0,1-.62-1.88,13.42,13.42,0,0,1,.13-1.46,13.47,13.47,0,0,0,.09-1.49c0-.24,0-.75-.09-1.52,0-.51-.06-.93-.06-1.24a1.2,1.2,0,0,1,1.36-1.36q.72,0,1.8.09,2.48.22,7,.22t7-.22c.72-.06,1.31-.09,1.76-.09a1.22,1.22,0,0,1,1.4,1.36c0,.31,0,.77-.08,1.38s-.08,1.07-.08,1.38,0,.83.1,1.49c.08.87.12,1.37.12,1.49a2.58,2.58,0,0,1-.64,1.86,2.16,2.16,0,0,1-1.69.68c-1.55,0-2.32-.88-2.32-2.66a7.43,7.43,0,0,1,.09-1,7,7,0,0,0,.09-.93c0-.74-.45-1.11-1.36-1.11a1.54,1.54,0,0,0-1.27.46,2.64,2.64,0,0,0-.37,1.62v8.93q0,1.92,1.05,1.92a7.32,7.32,0,0,0,1-.11,7.17,7.17,0,0,1,1-.11A1.64,1.64,0,0,1,278.51,51c0,1.64-.78,2.45-2.33,2.45-.6,0-1.31,0-2.14-.12-1.24-.12-2.3-.19-3.19-.19s-2,.07-3.2.19c-.8.08-1.52.12-2.14.12a2,2,0,0,1-2.32-2.26c0-1.36.63-2,1.89-2a7.32,7.32,0,0,1,1,.11A7.21,7.21,0,0,0,267.09,49.39Z" fill="#fff"/><path d="M291.28,36.18a3.79,3.79,0,0,0-2.63.84,2.2,2.2,0,0,1,1,1.73,2.67,2.67,0,0,1-.93,2.06,3.2,3.2,0,0,1-2.23.86,3.08,3.08,0,0,1-2.33-1,3.42,3.42,0,0,1-.9-2.46,5.25,5.25,0,0,1,2.45-4.42,10.38,10.38,0,0,1,6.2-1.76,9.13,9.13,0,0,1,5.9,1.8A5.79,5.79,0,0,1,300,38.63a6.22,6.22,0,0,1-.54,2.53A4.55,4.55,0,0,1,298,43a9.67,9.67,0,0,1-3.7,1.46,2.14,2.14,0,0,0-1,.37,1.25,1.25,0,0,0-.25.75c0,.58-.13,1-.34,1.11a2.61,2.61,0,0,1-1.36.31l-.87.07h-.31a2.24,2.24,0,0,1-1.67-.49,2.46,2.46,0,0,1-.47-1.72,3.27,3.27,0,0,1,.73-2.34,5.45,5.45,0,0,1,2.68-1.19c2-.46,3-1.35,3-2.67a2.18,2.18,0,0,0-.9-1.81A3.7,3.7,0,0,0,291.28,36.18Zm-.77,17.68a2.77,2.77,0,0,1-2.06-.87,2.95,2.95,0,0,1,0-4.16,2.77,2.77,0,0,1,2.06-.87,3,3,0,0,1,0,5.9Z" fill="#fff"/></svg>