<svg xmlns="http://www.w3.org/2000/svg" viewBox="0 0 400 19"><g fill="#fff"><path d="M321.59 18.03l-.04-11.57-8.39 11.52-2.83.01-8.42-11.52-.04 11.55h-3.09V1.01l3.14-.05 9.95 13.71 9.85-13.64h2.96v16.99l-3.09.01zM349.46 13.75c0 2.26-1.47 4.17-3.9 4.17h-14.09c-2.43 0-3.94-1.78-3.95-4.03l-.02-8.69c0-2.14 1.37-4.11 3.84-4.11h14.31c2.35 0 3.78 1.84 3.79 3.93l.03 8.74zm-4.98 1.61c1.05 0 1.62-.88 1.62-1.66V5.15c0-.69-.75-1.53-1.52-1.53h-11.92c-1.16-.01-1.82.81-1.82 1.86v8.13c0 1 .7 1.75 1.79 1.75h11.85zM79.48 17.98l-3.6.05-3.95-7.55-8.78-.02v7.56H59.8V.96l15.29.03c1.6 0 3.07.69 4.03 1.86.61 1.85.84 3.98-.09 5.75-.61 1.18-2.06 1.6-3.5 1.84l3.94 7.55zM76.31 5.63c.09-1.28-.71-2.01-1.77-2.01L63.16 3.6v4.24l11.37-.01c.46 0 1.22-.29 1.45-.6.19-.27.3-1.06.34-1.59zM144.13 17.98l-3.6.05-3.95-7.55-8.78-.02v7.56h-3.35V.96l15.29.03c1.6 0 3.07.69 4.03 1.86.61 1.85.84 3.98-.09 5.75-.61 1.18-2.06 1.6-3.5 1.84l3.94 7.55zm-3.17-12.35c.09-1.28-.71-2.01-1.77-2.01l-11.38-.02v4.24l11.37-.01c.46 0 1.22-.29 1.45-.6.19-.27.3-1.06.34-1.59zM283.48 10.34h-13.47l-.02 5.02 14.13.01.03 2.66h-17.5V.97l17.48-.01.03 2.65H270v4.06l13.43.01.05 2.66zM399.24 10.34h-13.42l.01 5.03h14.12l.05 2.66h-17.53V.97l17.51-.01.02 2.65h-14.17v4.07l13.39-.01.02 2.67zM200.45 17.93c-.7.05-1.34.03-1.9-.05l-17.66-12.9-.03 13.03h-2.93V1h3.02l16.56 12.38.03-12.39h2.91v16.93zM263.7 17.98l-3.35.05v-7.69H246.7v7.69l-3.35-.02V1l3.35-.04v6.72h13.65V1l3.35-.01v16.99zM17.9.99h3.35l-.01 13.5c0 1.82-1.32 3.38-3.28 3.44-4.63.14-9.28.13-13.9 0-2.4-.06-4.06-1.7-4.06-3.98V1L3.36.98v12.71c-.01.88.64 1.67 1.63 1.67h11.18c1.03 0 1.73-.72 1.73-1.67V.99zM166.28 18.04l-8.65-13.51-8.76 13.45h-3.79l11.17-16.86c.81-.14 1.69-.16 2.66-.1l11.18 16.96-3.8.06zM101.63 18.04L92.98 4.53l-8.76 13.45h-3.79L91.59 1.12c.81-.14 1.69-.16 2.66-.1l11.18 16.96-3.8.06zM370.74 1.04l3.77.01-11.14 16.92-2.57.01-11.21-16.92 3.8-.08 8.75 13.47 8.6-13.41zM232.71 17.99l-3.34.03.01-14.4-8.87-.02.03-2.63 20.72-.01.05 2.65-8.6-.01v14.39zM113.85 17.99l-3.35.03V3.61h-8.87l.01-2.64 20.72-.01.07 2.65-8.59-.01.01 14.39zM49.25 17.99l-3.34.03.01-14.4-8.84-.02.05-2.64 20.73.01.01 2.64h-8.62v14.38zM41.16 15.36l.05 2.66-17.08.01.01-17.05L27.5 1v14.37l13.66-.01zM171.51.97h3.35v17.06h-3.35zM376.03.97h3.35v17.06h-3.35zM203.27 5.14h3.43v3.28h-3.43zM203.27 14.75h3.43v3.28h-3.43z"/></g></svg>