<svg xmlns="http://www.w3.org/2000/svg" width="250" height="122" viewBox="0 0 250 122"><path d="M69.43,39.79s-2.07,3.21-3,3.83S64.56,42,64.56,30c0-.93,0-1.89.06-2.87L68,26v-2.8l-3.16.52A218.23,218.23,0,0,1,68.29,0l-2.7,1.14s-2.45,13.84-3.43,23l-3.61.6V29l3.28-1c-.48,8.67,1.65,20.63,4.08,20.63s4.45-3.73,4.45-3.73Z" fill="#fff"/><path d="M71.81.52c.73,2.38,0,34.71,0,34.71h2.07s.73-8.39,2.49-8.39S77,43.42,77,43.42h2.08S81,22.31,78.34,22c-2.16-.28-3.94,2.9-3.94,2.9V0Z" fill="#fff"/><path d="M89.54,34.91s.66-10.08-2-10.39-5,4.24-5.22,10-.13,11,3,10.92,3.85-2.47,3-4.82A2.45,2.45,0,0,1,86,42.35c-1.85-.09-2.21-3-2.08-7Zm-3.19-6.72c1.24.09,1.06,4.2,1.06,4.2H84.8S85.11,28.1,86.35,28.19Z" fill="#fff"/><path d="M25.76,35.36V51.88h9s6.23-21.25.86-34.12-21-7.09-23.82-5.37S0,19.47,0,30.74V72.92l16.1,11.8.64,17H10.3L9.23,91.81l-5.39.64s-2.09,20.19,3.24,26.4c4.77,5.55,15.67,3.65,16.1-7.08s-.43-32-.43-32L11.59,63.69l1.93-31.55Z" fill="#fff"/><path d="M54.11,79.27v8.38s-21.26,4-22.6,10.34c-.83,3.9,4.11,8.84,19.62,9.07s14.24-.8,14.24-.8l0-2.19s-21.27,1.38-25.75-3.33l-.11-3s7.35-4,15.39-3.68L55.15,97h3.44l2.65-16.77Z" fill="#fff"/><path d="M104,53.08V70.31H88.69v3.44H104s-3.24,29.41,3.61,29.29S115.45,90,115.45,90L112,89.72s-.34,9.28-3.9,9.76-.53-24.81-.53-24.81l9,.58,1-5.06L109.47,70,111,53.08Z" fill="#fff"/><path d="M97.28,82.59c-.71-3.39-8.59-5.32-14.46-5.3-4.83,0-8,.06-12,2s-4.71,4.09-4.65,6.29,5.72,7.15,18.34,5.54S98,86,97.28,82.59Zm-4.94,2.5c-.29,2.44-6.48,3.33-8.3,3.33A71.22,71.22,0,0,1,75.87,87l-.15-3.27s1.92-1.85,8.17-2.2S92.64,82.65,92.34,85.09Z" fill="#fff"/><path d="M147.7,65.38h2.58s.75,12.22-1.29,15h-6.43V78.57s-9.76-.43-9.76,2.35,6.86,3.65,7.4,6.65.86,5.47-6.65,7.51a68.07,68.07,0,0,1-13.83,2.25V95s11.58-1.53,13.62-3.55l-.11-2.56s-7.5-3.11-10-4.51-3.24-6,1.42-7.93c3.54-1.43,8.76-4.18,21.2-4.93Z" fill="#fff"/><path d="M144.59,84.94V99.79h4.94l.88-7.42,11.23-1v12.45h4.07l1.72-11.37h8.68v14h5.68s4.72-15.88-.53-18.13-13.19,2.37-13.19,2.37S170,84.35,165,84.35s-13.08,4.94-13.08,4.94l.33-4.94Z" fill="#fff"/><path d="M218.57,78.89c-.86-9.65-35.7-5.68-35.7-5.68v3.21S211.17,75.67,212,82c0,0-22.09,5-22.52,11.79-.53,8.47,23.27-1.61,23.27-1.61v6H216S219.35,87.71,218.57,78.89ZM212.24,90s-7.83,3.53-13.83,2.14c0,0,8.15-6.38,13.83-6.89Z" fill="#fff"/><path d="M222.85,56.48V87.57h2.47l2-19.08L242.9,72l.64,35.91h4.94s3.43-32.81,0-43.85-21.12.43-21.12.43l.64-8Z" fill="#fff"/></svg>