<?xml version="1.0" encoding="UTF-8"?><svg id="logos" xmlns="http://www.w3.org/2000/svg" width="250" height="121" viewBox="0 0 250 121"><g><path d="M13.64,22.44l.65,.49c-.17,.37-.33,.69-.49,.96s-.35,.61-.57,1-.39,.69-.51,.88c-.98,1.72-1.91,2.57-2.77,2.57-.37,0-.68-.14-.94-.43s-.39-.68-.39-1.18c0-.71,.25-1.68,.76-2.91,.5-1.23,1.28-2.75,2.34-4.55,1.05-1.8,2.38-3.84,3.98-6.12,1.6-2.28,3.4-4.68,5.4-7.21-1.15-.17-2.52-.26-4.11-.26-1.82,0-3.85,.2-6.08,.61-2.23,.41-4.18,.87-5.84,1.4-1.66,.53-2.49,.92-2.49,1.17,0,.09,.03,.15,.1,.19,.07,.03,.17,.06,.32,.08s.34,.04,.58,.07c1.53,.21,2.3,.45,2.3,.71,0,.13-.33,.19-1,.19-.67,0-1.47,0-2.42,0-.75,0-1.29-.03-1.62-.09s-.56-.17-.67-.33c-.11-.16-.17-.42-.17-.76,0-.22,.07-.71,.2-1.45,.25-1.39,.63-2.5,1.15-3.34,.52-.84,1.31-1.52,2.38-2.05,1.07-.53,2.54-.95,4.41-1.27,3.14-.54,5.74-.81,7.8-.81,1.52,0,2.72,.06,3.6,.19,.88,.12,1.52,.3,1.94,.54,.41,.24,.67,.47,.79,.7,.11,.23,.26,.63,.44,1.19l.61,1.81c.04,.12,.07,.21,.1,.29,.03,.07,.05,.15,.07,.23s.03,.15,.03,.22c0,.51-.12,.97-.34,1.38-.23,.41-.65,1.02-1.26,1.83-.61,.81-1.06,1.45-1.35,1.91-3.38,5.49-5.69,9.55-6.92,12.18Z" fill="#fff"/><path d="M34.09,20.16v1.24c-1.14,1.17-2.13,2.12-2.96,2.86-.83,.74-1.56,1.3-2.18,1.68s-1.15,.57-1.58,.57c-1.02,0-1.53-.6-1.53-1.81,0-.97,.32-2.09,.95-3.37,.64-1.28,1.55-2.78,2.74-4.51-.59,.33-1.15,.7-1.67,1.13s-.99,.87-1.4,1.34c-.41,.47-.75,.86-1.02,1.19-.85,.96-1.67,1.94-2.46,2.94-.79,1-1.32,1.65-1.59,1.96-.28,.3-.54,.45-.79,.45-1.02,0-1.53-1.26-1.53-3.77,0-.83,.12-1.74,.37-2.73,.25-1,.92-2.31,2-3.95,2.29-3.43,4.25-6.24,5.89-8.42,1.63-2.18,2.98-3.83,4.06-4.95,1.07-1.12,1.79-1.67,2.16-1.64,.46,.04,.83,.13,1.11,.28,.28,.14,.42,.31,.42,.49,0,.33-.23,.87-.68,1.62-.45,.75-1.23,1.93-2.33,3.53-1.19,1.69-2.04,2.88-2.54,3.57s-1.24,1.66-2.23,2.93c-.99,1.26-1.89,2.39-2.71,3.38-.82,.99-1.75,2.06-2.8,3.21v2.36c1.76-1.95,3.27-3.55,4.56-4.79,1.28-1.24,2.37-2.18,3.26-2.82,.89-.64,1.55-.95,1.97-.95,.39,0,.76,.23,1.1,.7,.34,.47,.51,.85,.51,1.15,0,.13-.07,.29-.2,.49-.94,1.13-1.69,2.06-2.25,2.8-.56,.74-.99,1.4-1.29,1.98-.3,.58-.45,1.08-.45,1.5,0,.62,.29,.92,.88,.92,.63,0,2.02-.84,4.19-2.53Z" fill="#fff"/><path d="M36.19,20.87v.49c0,.77,.19,1.38,.57,1.81,.38,.43,.88,.65,1.49,.65s1.31-.15,1.99-.45c.69-.3,1.37-.7,2.05-1.2,.68-.5,1.51-1.17,2.5-2v1.2c-1.48,1.78-2.87,3.15-4.17,4.1-1.3,.95-2.61,1.42-3.95,1.42-1.17,0-2.09-.45-2.77-1.36-.68-.9-1.02-2.14-1.02-3.71,0-1.38,.32-2.62,.96-3.74s1.69-2.3,3.14-3.55c1-.85,1.98-1.49,2.97-1.93,.98-.43,1.86-.65,2.63-.65,.62,0,1.1,.14,1.46,.42,.36,.28,.54,.7,.54,1.27,0,.83-.31,1.65-.92,2.47-.62,.82-1.56,1.63-2.82,2.44-1.26,.81-2.82,1.58-4.67,2.33Zm.2-1.28c1.18-.46,2.19-1.03,3.03-1.71,.84-.68,1.46-1.33,1.86-1.96,.4-.62,.6-1.08,.6-1.37s-.14-.45-.41-.45c-.24,0-.62,.15-1.15,.45-.53,.3-1.07,.69-1.61,1.18-.54,.48-1.03,1.05-1.46,1.71-.43,.66-.71,1.37-.84,2.14Z" fill="#fff"/></g><g><path d="M20.06,35.1c0-.54,.43-1.03,1.03-1.03h12.62c6.39,0,11.64,4.39,11.64,10.07,0,4.17-3.74,7.2-6.28,8.55,2.87,1.19,7.25,3.84,7.25,8.83,0,6.06-5.36,10.45-11.8,10.45h-13.43c-.6,0-1.03-.49-1.03-1.03V35.1Zm12.67,14.35c2.06,0,3.79-1.73,3.79-3.9s-1.73-3.68-3.79-3.68h-4.22v7.58h4.22Zm.7,14.78c2.11,0,3.9-1.73,3.9-3.95s-2.33-3.79-4.44-3.79h-4.39v7.74h4.93Z" fill="#fff"/><path d="M53.19,35.1c0-.54,.49-1.03,1.03-1.03h6.5c.54,0,1.03,.49,1.03,1.03v35.84c0,.54-.49,1.03-1.03,1.03h-6.5c-.54,0-1.03-.49-1.03-1.03V35.1Z" fill="#fff"/><path d="M87.79,33.59c4.55,0,9.53,1.89,13.21,5.09,.49,.38,.54,1.03,.11,1.46l-4.28,4.55c-.43,.38-1.03,.38-1.46,.05-2.06-1.9-4.44-2.6-7.09-2.6-5.9,0-10.67,4.98-10.67,10.94s4.82,10.77,10.72,10.77c1.57,0,3.19-.22,4.82-.87v-3.14h-3.41c-.6,0-1.03-.43-1.03-.97v-5.36c0-.6,.43-1.03,1.03-1.03h10.88c.54,0,.97,.49,.97,1.03l.05,14.56c0,.27-.22,.7-.43,.87,0,0-5.58,3.52-13.43,3.52-10.77,0-19.44-8.55-19.44-19.38s8.66-19.49,19.44-19.49Z" fill="#fff"/><path d="M105.71,35.37c-.22-.76,.22-1.3,.97-1.3h6.33c.43,0,.87,.38,.97,.76l4.66,18.35h.22l8.39-19.06c.16-.32,.49-.6,.92-.6h.97c.49,0,.81,.27,.92,.6l8.39,19.06h.22l4.66-18.35c.11-.38,.54-.76,.97-.76h6.33c.76,0,1.19,.54,.97,1.3l-10.23,36.38c-.11,.43-.54,.76-.97,.76h-.87c-.38,0-.76-.27-.92-.6l-9.91-22.14h-.16l-9.85,22.14c-.16,.32-.54,.6-.92,.6h-.87c-.43,0-.87-.33-.97-.76l-10.23-36.38Z" fill="#fff"/><path d="M157.42,35.1c0-.54,.43-1.03,1.03-1.03h22.41c.6,0,1.03,.49,1.03,1.03v5.9c0,.54-.43,1.03-1.03,1.03h-15v6.71h12.34c.54,0,1.03,.49,1.03,1.03v5.9c0,.6-.49,1.03-1.03,1.03h-12.34v7.31h15c.6,0,1.03,.49,1.03,1.03v5.9c0,.54-.43,1.03-1.03,1.03h-22.41c-.6,0-1.03-.49-1.03-1.03V35.1Z" fill="#fff"/><path d="M189.14,35.1c0-.54,.43-1.03,1.03-1.03h6.44c.54,0,1.03,.49,1.03,1.03v28.91h12.89c.6,0,1.03,.49,1.03,1.03v5.9c0,.54-.43,1.03-1.03,1.03h-20.36c-.6,0-1.03-.49-1.03-1.03V35.1Z" fill="#fff"/><path d="M216.81,35.1c0-.54,.43-1.03,.97-1.03h13.21c10.45,0,19,8.5,19,18.9s-8.55,19-19,19h-13.21c-.54,0-.97-.49-.97-1.03V35.1Zm13.64,28.86c6.12,0,10.56-4.82,10.56-10.99s-4.44-10.94-10.56-10.94h-5.2v21.93h5.2Z" fill="#fff"/><path d="M17.89,115.03l2.54-4.49c.43-.7,1.46-.6,1.84-.33,.22,.11,4.11,2.98,7.69,2.98,2.17,0,3.74-1.35,3.74-3.25,0-2.27-1.9-4.01-5.58-5.47-4.66-1.84-10.5-5.47-10.5-11.97,0-5.36,4.17-10.77,12.51-10.77,5.63,0,9.96,2.87,11.59,4.06,.65,.38,.54,1.35,.32,1.73l-2.76,4.17c-.38,.6-1.35,1.08-1.84,.7-.49-.27-4.44-3.25-7.74-3.25-1.95,0-3.41,1.3-3.41,2.76,0,2,1.62,3.52,5.9,5.25,4.22,1.68,10.94,4.98,10.94,12.34,0,5.58-4.82,11.21-12.78,11.21-7.04,0-10.94-2.92-12.18-4.17-.54-.54-.7-.76-.27-1.52Z" fill="#fff"/><path d="M49.73,83.31c0-.54,.49-1.03,1.03-1.03h6.44c.6,0,1.03,.49,1.03,1.03v13.64h15.48v-13.64c0-.54,.43-1.03,1.03-1.03h6.44c.54,0,1.03,.49,1.03,1.03v35.84c0,.54-.49,1.03-1.03,1.03h-6.44c-.6,0-1.03-.49-1.03-1.03v-14.24h-15.48v14.24c0,.54-.43,1.03-1.03,1.03h-6.44c-.54,0-1.03-.49-1.03-1.03v-35.84Z" fill="#fff"/><path d="M108.2,81.74c10.83,0,19.49,8.72,19.49,19.55s-8.66,19.44-19.49,19.44-19.44-8.61-19.44-19.44,8.61-19.55,19.44-19.55Zm0,30.32c5.96,0,10.83-4.87,10.83-10.77s-4.87-10.88-10.83-10.88-10.77,4.93-10.77,10.88,4.87,10.77,10.77,10.77Z" fill="#fff"/><path d="M130.62,83.58c-.22-.76,.22-1.3,.97-1.3h6.33c.43,0,.87,.38,.97,.76l4.66,18.35h.22l8.39-19.06c.16-.32,.49-.6,.92-.6h.97c.49,0,.81,.27,.92,.6l8.39,19.06h.22l4.66-18.35c.11-.38,.54-.76,.97-.76h6.33c.76,0,1.19,.54,.97,1.3l-10.23,36.38c-.11,.43-.54,.76-.97,.76h-.87c-.38,0-.76-.27-.92-.6l-9.91-22.14h-.16l-9.85,22.14c-.16,.32-.54,.6-.92,.6h-.87c-.43,0-.87-.33-.97-.76l-10.23-36.38Z" fill="#fff"/></g></svg>