<svg xmlns="http://www.w3.org/2000/svg" width="180" height="114" viewBox="0 0 180 114"><g fill="#fff"><path d="M26.71 16.86c2.81 1 5.05 2.45 6.26 5.01 2.45 5.16 1.36 12.22-4.22 16.03-4.28 2.92-9.09 3.52-14.1 3.08-4.1-.36-7.81-1.71-10.82-4.63-3.98-3.87-5.07-10.49-2.25-14.85.76-1.17 2.04-2.13 3.29-2.82 1.15-.64 2.55-.43 3.55.59s1 2.31.61 3.59c-.18.58-.52 1.12-.87 1.62-2.64 3.69-1.82 7.57 2.09 9.81C14.44 36.7 22 35.9 25.3 32.71c4.07-3.95 2.69-10.61-2.69-12.43-1.75-.59-3.69-.63-5.69-.94v2.13c.13.04.24.11.36.11 1.19 0 2.27.27 2.73 1.49.47 1.24.09 2.35-.83 3.27-1.81 1.81-3.61 3.62-5.46 5.38-1.09 1.04-2.75 1.04-3.86.13-1.21-.99-1.44-2.31-.52-3.73 1.09-1.69 1.53-3.49 1.5-5.5-.06-4.73 0-9.47-.03-14.2 0-2.15-.1-2.87-2.27-3.26C7.38 4.95 7.02 4 7.16 2.88 7.29 1.78 8.13.95 9.34.9c1.44-.07 2.89-.04 4.34-.02 2.97.04 5.96-.06 8.91.24 1.67.17 3.41.78 4.87 1.62 4.98 2.87 4.28 10.88.36 13.32-.31.19-.6.43-1.08.79zM16.88 6.27v7.94c1.76-.1 3.45-.06 5.09-.31 1.88-.29 2.82-1.74 2.76-3.8-.06-2.03-1.01-3.31-2.9-3.56-1.58-.21-3.19-.18-4.94-.27zM81.88 75.47c.45-.42.78-.8 1.17-1.08 1.57-1.12 3.6-.56 4.29 1.2.73 1.84 1.42 3.69 2.09 5.54.49 1.34.24 2.33-.68 2.99-.93.66-2.37.61-3.33-.24-.86-.76-1.6-1.66-2.43-2.46-1.5-1.43-3.27-1.87-5.25-1.24-1.16.37-1.89 1.21-2.06 2.41-.18 1.22.35 2.24 1.43 2.78 1.32.66 2.76 1.09 4.09 1.73 2.45 1.17 5.04 2.16 7.25 3.69 4.77 3.3 5.52 8.21 4.42 13.44-1.06 5.01-4.46 8.02-9.38 9.11-4.9 1.09-9.64.61-13.8-2.54-4.03-3.05-5.48-8.67-3.41-12.96 1.73-3.57 6.31-5.51 10.08-4.21.68.23 1.38.63 1.87 1.14 1.56 1.63.83 3.96-1.36 4.47-.56.13-1.14.14-1.72.16-2.8.11-4.08 2.07-3.01 4.67.62 1.5 1.82 2.4 3.25 3.07 3.15 1.47 7.33.95 9.53-1.21 3.09-3.03 2.84-8.35-.81-10.65-2.38-1.5-5.16-2.34-7.74-3.53-1.3-.6-2.65-1.2-3.8-2.04-3.32-2.44-4.2-7.31-2.14-11.01 2.01-3.6 6.31-5.15 10.26-3.72.38.14.76.31 1.18.48zM63.13 62.55c.29.05.45.09.61.09 1.15 0 2.16.29 2.63 1.45.52 1.26.13 2.37-.81 3.26-2.15 2.05-4.3 4.1-6.51 6.08-1.23 1.1-2.57 1.02-3.65-.03-1.02-.99-1.17-2.49-.18-3.69.97-1.18 1.82-2.36 1.85-3.93.06-2.92.08-5.84.07-8.77 0-.34-.19-.71-.37-1.02-2.2-3.82-4.43-7.62-6.63-11.44-.8-1.38-1.82-2.37-3.56-2.14-1.6.21-2.65 1.15-3.1 2.65-.49 1.64-.52 3.3.74 4.64.79.84 1.81 1.14 2.92.5.25-.14.51-.27.76-.42 1.05-.65 2.13-.94 3.24-.18 1.1.75 1.43 1.85 1.35 3.13-.13 1.95-1.49 3.55-3.52 4.16-5.36 1.6-10.83-1.96-11.45-7.5-.73-6.52 3.28-12.27 10.73-12.01 2.77.1 5.53.13 8.3.19 1.06.02 1.96.34 2.48 1.33.6 1.15.28 2.12-.93 2.92-1.84 1.21-1.92 1.57-.84 3.47.65 1.15 1.27 2.31 1.93 3.45.43.74.91.81 1.36.02.78-1.36 1.56-2.71 2.32-4.08.5-.91.41-1.74-.48-2.39-1.1-.8-2.19-1.65-1.58-3.24.6-1.57 2.02-1.3 3.28-1.3 2.36-.01 4.71 0 7.07 0 1.04 0 1.78.47 2.08 1.43.33 1.02.4 2.21-.66 2.78-2.23 1.18-3.33 3.23-4.51 5.26-1.44 2.5-2.94 4.96-4.34 7.48-.36.65-.55 1.45-.59 2.2-.08 1.88-.03 3.77-.03 5.66zM97.98 81.86c-.32-.04-.68-.08-1.04-.13-1.74-.24-2.55-2-1.3-3.24a25.44 25.44 0 0 1 4.88-3.75c1.55-.92 2.86-.01 2.89 1.84.06 3.13.02 6.26.04 9.39 0 .43.08.85.16 1.6.52-.49.81-.75 1.07-1.03 1.72-1.83 3.85-2.48 6.3-2.13 2.13.3 3.5 1.44 3.79 3.64.3 2.23.24 4.51.32 6.77.03.77 0 1.55 0 2.35 1.29.25 2.43.68 2.41 2.11 0 .68-.25 1.52-.7 1.99-1.57 1.63-3.26 3.15-4.94 4.68-.85.77-1.8.75-2.71.06-1-.75-1.46-2.05-.79-2.93 1.45-1.9 1.45-4.05 1.4-6.24-.03-1.32-.02-2.63-.1-3.95-.06-1.17-.35-2.21-1.77-2.46-1.49-.27-2.96.19-3.53 1.43-1.18 2.56-1.2 5.28-.56 7.97.12.5.87.95 1.43 1.22 1.11.53 1.49 1.35 1.3 2.51-.2 1.2-1.05 1.64-2.13 1.66-2.44.03-4.87.03-7.31-.03-1.15-.03-2.14-.46-2.34-1.77-.19-1.28.53-2.03 1.65-2.41 1.18-.4 1.7-1.22 1.71-2.43V82.15c0-.07-.06-.15-.13-.29zM88.48 15.81c.33-.32.64-.66.99-.96 1.47-1.31 2.81-2.83 4.46-3.83 1.19-.71 2.8-.93 4.23-.96 1.6-.04 2.56 1.2 2.61 2.73.04 1.59-.65 2.34-2.47 2.65-1.66.28-3.38.36-4.77 1.69.73.83 1.56 1.59 2.16 2.5.99 1.5 1.79 3.13 2.76 4.65.53.84 1.28 1.54 1.87 2.35.47.64 1.05 1.29 1.25 2.03.31 1.13-.55 2.16-1.74 2.19-1.86.05-3.72.07-5.57-.02-1.87-.09-2.72-1.47-1.71-3.07 1-1.58.55-2.82-.34-4.06-.83-1.17-1.8-2.24-2.77-3.31-.24-.27-.7-.35-1.06-.51-.1.36-.27.72-.29 1.09-.04.74.05 1.49 0 2.22-.14 1.64.21 2.98 1.8 3.85.93.51 1 1.46.74 2.4-.27.96-.98 1.41-1.94 1.42-2.31.01-4.63.02-6.94-.04-1.09-.03-2.05-.38-2.24-1.68-.18-1.25.36-2.07 1.52-2.49.96-.35 1.69-.9 1.7-2.02.01-5.67 0-11.35 0-17.11-.4-.05-.8-.02-1.11-.17-.59-.29-1.49-.58-1.62-1.05-.19-.69-.1-1.81.36-2.25 1.38-1.34 2.89-2.61 4.53-3.61 1.68-1.03 3.13-.11 3.17 1.9.07 4.03.03 8.07.03 12.1v1.18l.38.21zM38.52 17.27c-.43-.04-.67-.07-.91-.08-.87-.04-1.64-.23-1.99-1.17-.36-.99-.02-1.84.7-2.45 1.31-1.12 2.66-2.24 4.1-3.18 1.81-1.19 3.37-.31 3.42 1.9.07 3 .02 6.01.03 9.01 0 .53 0 1.07.04 1.6.15 1.65.66 2.27 1.93 2.46 1.67.24 2.91-.22 3.26-1.72.44-1.9.48-3.89.61-5.84.01-.17-.53-.51-.85-.55-.87-.12-1.66-.3-1.93-1.26-.27-.97.01-1.83.76-2.46 1.26-1.06 2.53-2.13 3.88-3.07 1.87-1.29 3.55-.43 3.6 1.88.08 3.83.06 7.66.02 11.48-.01 1.2.23 2.15 1.28 2.87.85.58 1.14 1.49.98 2.51-.16.96-.7 1.6-1.72 1.63-1.36.04-2.73.03-4.09 0-1.49-.03-1.31-1.31-1.62-2.48-.46.41-.82.7-1.14 1.02-1.83 1.87-4.04 2.42-6.58 1.93-1.83-.35-2.97-1.45-3.35-3.21-.26-1.2-.37-2.44-.4-3.67-.06-2.34-.02-4.68-.02-7.15zM103.95 54.18c-.58-.06-.9 0-1.13-.13-.62-.32-1.55-.61-1.7-1.11-.2-.66-.03-1.75.44-2.22 1.3-1.3 2.75-2.5 4.29-3.51 1.76-1.16 3.33-.26 3.37 1.84.06 3.95.05 7.9 0 11.85-.01 1.04.27 1.83 1.11 2.45.77.56 1.26 1.27 1.22 2.29-.05 1.34-.6 1.98-1.94 2.06-.86.05-1.73.02-2.6.02-2.39 0-2.42-.03-2.87-2.45-.4.31-.75.52-1.03.81-1.54 1.62-3.41 2.38-5.66 2.24-2.59-.17-4.05-1.34-4.58-3.86-.18-.84-.24-1.71-.26-2.57-.04-1.93-.05-3.87 0-5.8.03-1.22.1-2.15-1.66-2.2-1.39-.04-1.96-2-.84-3.08 1.44-1.39 3.03-2.69 4.75-3.71 1.63-.97 2.97-.11 3.02 1.79.08 2.92.03 5.84.05 8.76 0 .7 0 1.4.07 2.1.18 1.77.7 2.36 2.15 2.5 1.69.16 2.88-.46 3.18-2.05.37-1.95.43-3.96.63-6zM123.56 22.57c.15 2.57 3.61 4.28 6.13 3.07.77-.37 1.48-.9 2.17-1.4.95-.69 1.91-1 2.96-.27.88.61 1.25 1.94.89 3.12-.5 1.66-1.72 2.71-3.21 3.4-5.43 2.51-13.9.51-14.74-8.35-.29-3.07.26-5.99 2.12-8.55 2.33-3.19 6.86-4.49 10.92-3.16 3.58 1.17 5.9 4.47 5.84 8.28-.04 2.51-.83 3.52-3.33 3.67-2.92.18-5.86.09-8.78.13-.32 0-.64.04-.96.06zm-.08-4.17c2.09 0 4.1.08 6.1-.03 1.27-.07 1.81-1.21 1.16-2.32-.27-.47-.75-.9-1.23-1.14-2.57-1.3-5.71.5-6.03 3.49zM146.53 96.9c.49 2.81 3.51 4.3 6.09 3.14.78-.35 1.48-.89 2.18-1.39.9-.65 1.82-1 2.86-.37.94.57 1.41 1.82 1.07 3.05-.56 2-2.07 3.16-3.91 3.82-6.18 2.24-13.41-.82-14.05-8.48-.38-4.57.59-8.72 4.95-11.15 5.21-2.9 12.95-.69 13.84 6.46.42 3.38-.71 4.78-4.15 4.88-2.48.07-4.95.02-7.43.02h-1.44zm-.09-4.11c2.1 0 4.12.08 6.13-.03 1.19-.06 1.74-1.07 1.17-2.13-.32-.6-.94-1.2-1.57-1.44-2.62-1.03-5.35.69-5.74 3.6zM169.18 104.51c-.19.3-.32.5-.46.7-1.18 1.61-3.41 1.48-4.22-.33-.79-1.76-1.4-3.6-2.02-5.43-.3-.88-.14-1.72.71-2.29.92-.62 2.33-.6 3.24.17 1 .86 1.84 1.91 2.91 2.67.76.54 1.75.9 2.69 1.03.97.14 1.93-.22 2.15-1.4.2-1.1-.36-1.86-1.35-2.22-1.32-.47-2.71-.76-4-1.27-1.18-.47-2.36-1.01-3.38-1.75-1.81-1.31-2.39-3.22-1.98-5.36.41-2.12 1.75-3.53 3.8-4.16 1.97-.61 3.92-.45 5.75.69.27-.28.5-.56.77-.8 1.19-1.06 2.96-.86 3.7.54.74 1.42 1.29 2.93 1.88 4.42.31.77.35 1.54-.42 2.12-.82.61-1.7.68-2.54.13-1.2-.8-2.3-1.76-3.54-2.49-.71-.42-1.6-.6-2.44-.71-.74-.1-1.4.2-1.57 1.06-.18.88.11 1.57.98 1.89.85.31 1.75.5 2.59.82 1.61.61 3.3 1.1 4.78 1.96 2.25 1.31 3.13 3.44 2.69 6.01-.45 2.63-2.07 4.26-4.63 4.89-2.07.51-4.1.35-6.08-.89zM138.35 94.94c-.29 2.29-.71 4.43-1.82 6.36-1.73 2.98-4.34 4.59-7.83 4.54-3.51-.04-6.14-1.7-7.65-4.8-2.04-4.19-2.01-8.46.37-12.53 1.79-3.06 4.61-4.38 8.14-4.14 3.46.23 5.92 2.07 7.27 5.16.74 1.7 1.03 3.6 1.53 5.41zm-5.66.03c-.3-1.2-.48-2.42-.92-3.55-.53-1.38-1.74-1.92-3.19-1.85-1.42.07-2.41.79-2.87 2.14-.73 2.17-.73 4.36 0 6.53.45 1.35 1.42 2.08 2.85 2.17 1.51.1 2.72-.53 3.26-1.94.42-1.09.58-2.28.87-3.5z"/><path d="M69.19 57.54c.29-2.64.89-5.03 2.39-7.16 3.32-4.7 10.52-4.81 13.98-.22 2.86 3.8 3.11 10.01.53 14-1.94 3.01-4.74 4.42-8.3 4.11-3.5-.3-5.94-2.23-7.23-5.41-.69-1.68-.93-3.55-1.37-5.33zm13.28-.09c-.27-1.15-.43-2.34-.83-3.44-.5-1.39-1.66-1.99-3.12-1.98-1.46 0-2.49.7-2.99 2.14-.77 2.16-.77 4.36-.02 6.52.5 1.46 1.51 2.15 2.96 2.19 1.5.05 2.68-.62 3.2-2.04.38-1.06.53-2.21.8-3.4zM70.46 31.46c-6.26-.04-10.47-4.68-10.11-11.19.21-3.83 1.56-7.12 5.04-9.09 3.42-1.94 6.91-1.69 10.21.4 1.31.83 2.16 2.04 2.02 3.71-.16 1.87-1.87 2.9-3.58 2.12-.82-.38-1.56-.93-2.34-1.38-2.68-1.52-5.1-.37-5.55 2.67-.31 2.08-.17 4.13 1.14 5.9 1.09 1.48 2.5 1.81 4.15 1 .78-.38 1.5-.87 2.27-1.26 1.37-.71 2.73-.58 3.55.31.84.91.94 2.46.14 3.68-1.51 2.28-3.84 2.97-6.42 3.13-.16.01-.33 0-.5 0zM117.61 54.15c-.42-.05-.62-.08-.82-.09-.9-.05-1.77-.18-2.09-1.2-.32-1.02.02-1.88.81-2.54 1.24-1.02 2.47-2.06 3.78-2.99 1.41-1 2.7-.65 3.57.86.1.16.25.3.46.55.34-.32.62-.6.91-.86 2.24-2.08 5.9-1.1 6.6 1.86.27 1.15.22 2.47-.05 3.63-.39 1.7-2.25 2.57-3.93 2.09-.87-.25-1.19-.86-1.3-1.74-.06-.51-.5-.96-.77-1.44-.49.35-1.12.62-1.44 1.09-.3.44-.37 1.09-.38 1.65-.04 1.85-.01 3.7 0 5.55 0 1.43.65 2.35 2.04 2.9.61.24 1.26.87 1.49 1.48.46 1.16-.32 2.52-1.58 2.57-3 .14-6.01.09-9.02.02-.84-.02-1.42-.61-1.53-1.52-.12-.97.03-1.97 1.04-2.27 2.04-.62 2.28-2.09 2.23-3.86-.06-1.88-.01-3.76-.01-5.73zM106.81 7.48c-1.19-.19-2.38-.17-2.66-1.54-.27-1.35.58-2.13 1.53-2.86.92-.7 1.81-1.43 2.71-2.15.89-.71 1.88-1.11 2.98-.66 1.15.48 1.04 1.61 1.04 2.56.03 6.54.02 13.08.02 19.61 0 .66.04 1.32.02 1.97-.02 1.07.4 1.78 1.46 2.16 1.15.41 1.7 1.29 1.54 2.51-.17 1.33-1.16 1.73-2.32 1.74-2.31.03-4.62.04-6.93 0-1.07-.02-2.1-.26-2.34-1.56-.23-1.24.14-2.18 1.4-2.66.98-.38 1.54-1.06 1.54-2.15V7.47z"/></g></svg>