<svg xmlns="http://www.w3.org/2000/svg" viewBox="0 0 240 133"><path d="M18.71 76.88c-.18 2.65-.14 6.82-.48 9.45-.25 1.85-.26 3.93-.91 5.7-.88 1.31-1.27 3.39-2.97 3.91l-.64 1.2-.97 1.25-2.05-.07c-1.23-.8-1.94-2.38-2.9-3.41-.71-.67-.46-1.09-.97-2.59l-.53-1.56c-.29-2.08-.69-5.49-.63-7.59-.05-4 .13-8.77.46-12.76.19-1.8.66-4.28.59-6.1-2.34 1.16-5.23.37-6.26-1.93L0 60.11c.62-1.09.86-2.73 1.67-3.67 1.94-1.67.36-2.84 3.57-4.62.67-1.17 1.54-2.06 2.76-2.71 1.59-.99 1.55-1.06 1.89-2.83.28-1.45.83-3.64 1.26-5.02.4-1.73.83-3.81 1.43-5.48.08-.32.05-.58-.38-.51-1.06.28-2.45.87-3.53.6-.87.86-.84-.08-2.56-.9-.66-.32-1.06-2.92-.09-3.61.28-1.11 1-1.9 1.97-2.49.25-1.02 1.5-1.97 2.24-2.64.68-.61 1.2-1.37 1.87-2.05 1.06-1.08 2.17-1.44 2.52-1.86.65-.83 2.18-1.11 3.1-1.56 1.7-1.18 3.64-1.93 5.33-3.12.32-.22 1.2-.16 1.62-.22.9-.6 1.87-.9 2.87-1.32 2.48-1.12 6.64-2.59 9.17-3.6 4.66-1.97 10.05-4.02 14.78-5.75 4.21-1.52 9.63-3.24 14-4.26 3.15-1.26 13.37-3.88 15.05.05.37.41.96.94.79 1.5-.76.99-.4 1.3-1.79 1.12-.54.04-.57.93-.23 1.33.28.33.31.92-.01 1.23l-1.62 1.57-.58.96-1.8 1.84c-.87 1.7-2.83 2.01-4.53 2.49-2.51.68-5.56 1.4-7.99 2.29-1.64.4-3.44.88-5.02 1.41-1.5.44-3.49 1.27-5.03 1.58-.98.37-2.99 1.02-4.01 1.29-2.55.76-5.21 1.52-7.69 2.51-5.31 1.64-10.99 3.41-15.96 5.93-.55 2.86-.95 6.3-1.47 9.19-.26.82-.44 2.9-.5 3.77 5.67-1.76 12.49-3.91 18.1-5.76 2.45-.74 5.32-1.86 7.83-2.36 2.36-.32 5.11-.97 7.24.41.7.5 1.49.96 2.04 1.73.16.23-.28.8-.43 1.03-.11.64-.64 1.3-1.4 1.42l-.91 1.55 1 .44c0 .98-1.89 2.93-2.47 3.66-.74 1.32-2.22 2.01-2.71 3.47-1.4 1.38-3.63 2.09-5.37 2.97-1.88.84-4.65 1.62-6.6 2.23-5.95 1.92-12.44 3.95-18.4 5.89-.55.18-.74.41-.85.94-.44 1.36-.72 5.35-.88 6.79-.3 2.76-.39 7.13-.57 9.91zM214.09 65.02c-1.25.87-.83 1.79-2.65 2.98-1.26.82-1.55 2.22-3.33 2.81-6.19 2.79-15.23 1.18-14.07-7.35-.79.06-1.1.68-1.35 1.26-.28.68-1 1.14-1.47 1.67-.74.75-2.9 3.45-3.62 4.13-2.06 2.25-4.52 4.54-7.49 5.45-4.76 1.58-8-2.54-7.91-6.87l-.05-1.44c0-.16-.44-.08-.56.05-3.24 3.31-8.08 11.23-13.42 7.46-2.07-1.89-1.43-5.37-.66-7.77.86-3.24 2.71-6.12 4.6-8.83.76-.58 1.52-1.59 2.19-2.28.68-.81 2.53-2.55 3.3-3.31 3.16-2.55 10.45-11.31 14.67-7.62 1.61 1.72 2.93-.27.93 3.56.36.25.52.45.34.91-.92 1.52-1.84 3.15-2.1 4.95-.37 1.83-.99 5.69-1.02 7.55-.1 1.26-.05 2.62.16 3.82.15.88 1.56.77 2.13.38 3.59-2.4 6.06-6.56 8.6-9.95 1.34-2.06 3.85-5.82 5.12-7.94.32-.74 2.12-2.86 1.92-3.77-1.83.17-6.07.57-7.85.71-1.27.07-2.61.29-3.85-.17l-1.16-1.08-.05-1.25c.09-.26.46-1.26.51-1.52.06-.22.77.2.92-.04.16-.25.48-.76.64-1.02.07-.11-.26-.29-.48-.45.66-.5 1.49-.89 2.28-1.26.62-1.11 1.36-.92.83-1.13-1.77-.94 3.59-1.52 4.16-1.62 1.49-.2 6.66-.65 8.24-.79.46-.04.67-.29.78-.71l.43-1.56.66-1.53s.65-.13.7-.29l.49-1.53c.68-.03 1.08-.29 1.37-.7.25-.04.62-.21.68-.43l.37-1.42 1.4-.06.8-.24c.22-.07.47.46.68.61.68.48 1.32 1.26.88 2.22-.51 1.32-.85 3.55-1.24 4.94 4-.09 10.52-.33 14.57-.34l2.99-.54c.41-.07.64-.12.92.23.19.24-.04.6-.26.86l-.16.63c-.03.14-.41.22-.5.27 1.07 2.3-1.5 1.03-2.27 2.88l.14 1.26c-.93.23-2.79.64-3.72.82-4.69 1.99-10.33 2.85-15.37 3.44-1.6 3.96-2.93 8.07-3.61 12.28-.36 1.1-.64 5.08.71 5.48 1.41.35 2.9.13 4.32-.11 1.46-.38 3.98-.39 5.22-1.26.6-.37.34-.48.13-.95-1.55-1.28-1.81-3.64-1-5.39.52-1.32 1.66-2.4 2.47-3.56 1.32-1.48 3.16-3.08 4.51-4.54.62-.3 2.27-1.31 2.86-1.72l2.02-1.01c3.72-1.57 7.85-2.91 11.96-2.54 1.83.07 3.51 1.92 2.91 2.19l-.98.43.39 1.37c-.82 1.08-.69 1.82-2.35 1.76.24.74-.06 1.34-.62 1.82-.09.56-.09.75-.74.83l-4.14.1c-1.76.03-4.33 1.13-6.01 1.61-1.02.53-2.26.96-3.13 1.8.75.56 1.36.74 2.16 1 1.39.5 3.39 1.01 4.84 1.29 2.14.43 5.27 1.3 7.37 1.84.81.16 1.62.73 2.3 1.14 2.71 1.49 1.05 3.76.78 6l-.79 1.05c-.3.4-.52 1.07-.92 1.32-.76.48-1.29 1.05-1.68 1.84-.68 1.07-1.75 1.96-2.81 2.64-1.4.74-4.34 2.14-5.83 2.64-1.06.31-5.65 1.85-6.71 1.8-2.8.37-5.31-1-3.15-3.37.64-1.92 2-2.12 3.04-3.26.88-1.71 1.99-2.04 4.35-2.99l1.48-.53c.43-.16.43-.3 0-.54-3.27-.87-7.42-1.53-10.32-3.32l-.96 1.37c-.39.56-.48.58.37.68-.04.73-.57 1.33-1.21 1.78zm-47.1-.91c.37-.53 1.16-1.54 1.58-2.02.63-.94 1.54-2.34 2.12-3.33.27-.38 3.47-4.44 2.52-4.33-.19.05-1.92 1.69-2.11 1.86-.51.47-1.05.74-1.53 1.23-.83.82-1.38 1.89-2.12 2.78-.92 1.21-2.71 4.23-2.46 5.72 1.09-.46 1.43-1.13 2-1.91zM151.32 63.97l.3.69c-.47.83-.82 1.53-.47 2.62l.74-.6c.3.92.13 2.04-.14 3.07.4 1.38-.54 2.69-1.08 3.89-.45 1.11-1.69 2.25-2.45 3.17-.71.78-2.24 2.61-3.01 3.28-4.11 3.84-10.1 5.17-15.58 5.09-1.02-.09-3.1-.31-4.11-.46l-3.48-.89c-1.04-.33-3.33-1.47-4.32-1.96l-2.08-1.39c-.94-.92-2.88-2.81-3.79-3.76-.65-1.01-2.25-3.37-2.7-4.48l-.78-1.81-.25-1.45c-.68-.79-.61-1.75-.33-2.66-.77-1.15-.59-2.81-.65-4.11-.3-2.98.84-7.05 1.49-9.96 1.68-5.91 4.92-12.18 8.55-17.13 2-2.89 4.26-6.09 6.65-8.71.66-.66 2.28-2.35 2.72-3.15 2.51-2.66 5.29-5.87 8.05-8.29.68-.5 2.07-1.63 2.71-2.18 1.11-.88 2.92-2.15 4.08-2.96.73-.48 2.73-1.87 3.53-2.25 1.11-.47 2.21-1.58 3.45-1.7l.64-.53c2.74-1.04 5.43-2.1 8.31-2.68 1.47-.04 4.75-.65 6.12.02 2.41.59 5.14 1.96 6.2 4.34.22.56.14 1.59.24 2.22.95.92-.27 4.74-.26 5.87l-.3 1.83-.53 1.73c-.42.67-1 2.42-1.22 3.21-1.31 1.49-2.94 3.8-4.2 5.3l-.98 1.12c-.84 1.73-3.42 4.02-5.13 1.97.7-1.04-.39-1.19.14-2.73.21-.59.14-.75.85-.87-.24-.49-.49-.62-.08-1.15-.02-1.76 1.25-2.48 1.6-4.29-.46-.73.22-1.13-.09-2.93-.3-.91-.04-2.53-1.12-2.97-1.76-.77-3.95-.16-5.74.25-2.24.72-4.14 2.11-6.08 3.38-1.07.51-2.75 2.03-3.67 2.79-1.15.78-3.59 3.19-4.58 4.2-.66.48-2.01 1.97-2.56 2.6-1.62 1.62-3.14 3.58-4.59 5.33-1.18 1.72-3.85 5.67-4.85 7.47-.46 1.07-1.89 4.18-2.19 5.28-.31 1-.86 3.05-1.09 4.08-.37 2.08-.58 4.4-.36 6.5.22.81.42 1.41.16 2.26l1 1.04c.34 1.26 1.08 2.26 2.12 3.06 1.29.95 2.25 1.97 3.89 2.3 3.79.69 7.85-.4 11.47-1.52 1.73-.79 4.28-1.21 6.14-1.53.83-.11 4.47-.39 3.69 1.11zM32.34 80.29c.67-1.91 2.11-3.34 3.07-5.07 2.56-2.96 6.01-6.16 9.22-8.42 1.89-1.57 4.22-2.97 6.42-4.07 1.85-1.03 3.53-.71 5.1.6 3.58 1.1 2.95.8 1.56 3.81-.23.47-.79.75-.5 1.49l1.04-1.48c.84.85-3 5.6-2.94 7.01-.19 1.02-.2 3.96-.22 5.04.09.65.68.86 1.21.46 2.55-1.68 4.98-3.84 6.84-6.23.52-.75 1.75-2.37 2.33-3.1 1.27-1.83 3.41-5.01 4.57-6.95.31-1.03 1.29-1.48 1.4-2.62-3.03.47-7.94 1.21-11.01 1.19-1.46.11-3.83-1.63-2.05-2.92-.63-1.51 2.27-.4 1.03-2.1l1.18-.4 1.65-1.52.11-.88c4.16-1.03 8.99-1.91 13.21-2.69.13-.56.48-2.08.62-2.66l.67-1.72.77-.25.91-1.67.94-.59c1.51-.95 1.23-1.75 1.65-2.06.14-.1.58.08.76.05l1.41-.22 1.53 1.29c.56 2.11-.76 4.19-.82 6.3 1.23-.23 6.52-.7 7.87-.83 2.2-.06 5.26-.71 6.94 1.11-.13.45-.59.74-1.03.91l.22.38c.03.28-.65 1.05-.78 1.32-.72.41-1.24 1.22-1.73 1.87l-1.89 1.25c-4.05 1.78-8.62 2.21-12.96 3.1-1.55 4.61-3.09 9.93-2.56 14.84.1 1.7.09 2.44 1.64 3.68 1.52.63 3.04.13 4.52.5.6.1 1.79.53 2.34.79-.37 2.04-.96 4.3-2.96 5.31-1.69 3.9-6.99 4.65-10.54 2.72-3.42-1.79-4.6-5.7-4.67-9.42-1.95 1.77-4.1 4.64-5.96 6.49-1.02.86-3.09 2.59-4.12 3.45-3.84 2.82-9.14 4.59-11.15-1.21-.09-.37-.34-.71-.68-.86-.98 1.28-2.54 2.94-3.57 4.2-9.77 11.32-15.59 1.63-10.58-9.2zm9.64 1.3c1.53-2.03 3.51-4.52 4.91-6.64.53-.72 1.66-2.28 2.16-3.01.34-.48.56-.78.67-1.52-5.21 2.91-11.83 7.21-11.54 13.88.01.19.29.55.45.67 1.3-.82 2.39-2.22 3.35-3.38zM134.36 119.96c-1.24.02-.67-8.77-.81-9.94.07-3.08.11-7.52.69-10.56.98-.76 2.15-.69 3.3-.78.85-.06 1.87.15 1.9 1.25l.12 5.04c.79.34 2.42.08 2.87-.52-.06-2.67-1.19-8.69 2.1-9.12l2.62-.15c.94-.13 1.51.42 1.47 1.34.06 2.61 0 8.16-.4 10.7.14 1.69.3 9.85.74 11.35.13.51.28 1.36-.3 1.69-1.38.79-3.08.82-4.62.32-.4-.44-.64-1.21-.72-1.85-.26-2.14-.39-4.23-.24-6.38.03-.45.1-.9-.16-1.32-1.41-.07-4.4.56-4.39.64.05.09.19 5.34.2 5.65.03.82.44 1.61.12 2.48-1.47.26-2.91.35-4.47.15zm3.62-7.43c-.19-1.02-.92-2.72.71-2.91l3.51-.65c1.04-.11 3-.84 2.98.86.17 1.33.24 4.71.27 6.08.08.44 0 2.91.29 3.23.29.19 1.65.31 2.31-.07-.99-7.23-.63-15.8-.46-23.08-.97-.1-1.74-.09-2.57.11.28 2.68-.29 5.87-.56 8.54-.09.75-1.23.87-1.81.98l-2.98.57c-.21.69-.64.82-1.08.35-.26-.42-.07-.95-.08-1.43.02-1.22.03-4.34-.25-5.51-.77.01-1.54.14-2.32.38-.09 3.22-.14 12.99-.16 16.36-.19 1.61.91 1.52 2.12 1.49.01-.92.05-4.31.06-5.29zM28.72 129.99c-.36 1.42-.71 1.85-2.04 2.06l-2.87.46c-.62.12-1.21-.23-1.2-.9.22-3.75.9-7.7 1.05-11.43l.43-6.87c.1-.99.9-1.85 1.28-2.78 1.01-.5 2.16-.64 3.25-.33l3.33 7.32c.21.57.48.49.59-.04l.07-4.03c.04-1.92.06-3.85 1.33-5.41.15-.28.46-1 .78-1.01l2.03-.07c1.04.1.41.95.56 1.59.15 2.21.65 5.23.35 7.41-.29 2.44.27 6.19.4 8.67.1 1.29.13 2.57-.46 3.75-.33.21-1.03.69-1.41.68l-2.92-.07c-2.4-.37-4.04-4.97-4.95-7.13-.85 2.33-.46 5.83.39 8.11zm-1.35-.45c-.28-2.71-.34-9.11-.32-11.9.2-.55.15-2.61 1.17-1.67 1.71 2.9 3.87 8.29 5.83 11.01.66-.06 2.61-.24 3.23-.38-.04-1.67-.28-5.07-.44-6.74 0-1.73.02-5.33.02-7.07-.11-1.2-.33-3.79-.4-4.98l-1.47.04c-.05 1.43-.2 4.65-.35 6.03-.34 2.6-.17 5.21-.57 7.82-.94.31-1.21-.6-1.53-1.23l-.95-2.1c-.54-1.27-2.69-5.72-3.31-7.05-.22-.47-.73-.55-1.24-.44-.48.1-.78.36-.72.91.11.98.08 1.94-.02 2.97-.55 4.4-.85 10.88-1.19 15.26.78.25 2.3-.13 2.28-.47zM112.16 111.77c-2.07 1.53-1.58 4.31-1.54 6.56l.3 5.43c-.15 2.4-3.2 1.66-4.68 1.04-1.51-3.47 1.04-10.54-1.2-13.75-1.18-1.87-4.23-4.88-4.16-7.26.02-1.13 1.44-1.93 2.2-2.55l1.97-1.5c.6-.16.86-.15.57.58 4.39 9.58 1.98 10.21 7.11 2.68.85-1.04 2.11-3.45 3.73-2.16l2.13 1.72c.27.22.93.35.87.87-.07.71-.67 1.23-1.12 1.75-1.79 2.09-4.05 4.88-6.19 6.59zm-1.62-1.17c1.47-1.65 5.62-6.19 7.17-7.88l-2.35-1.27c-.54.76-2.96 4.12-3.38 4.84l-2.09 2.81c-.29.39-.59 1.17-1.29.85-.66-1.56-3.07-7.33-3.7-8.77-1.09.61-1.91 1.2-2.56 2.02 2 3.71 6.26 7.85 5.75 12.43-.13 2.84.71 5.02-.04 7.16.67.34 1.29.54 2.09.65-.12-1.62-.19-5.03-.18-6.68.04-1.96-.86-4.5.58-6.16zM88.31 121.89c-8.29 2.96-2.94-5.57-2.77-9.86l.54-4.16c.07-.53-.86-2.99.73-3.63 1.38-.56 3.12-1.05 3.57-.03.47 1.51 2.97 5.4 3.85 6.76l.06-5.54c-.67-4.8.6-3.74 4.48-4.02-.03 4.78-.4 13.47-.77 18.22-.11.86-.2 2.1-.71 2.89-1.33.04-3.14.2-3.73-1.27l-2.01-4.43c-.54-.95-1.25-3.66-2.22-4.31-.3 2.24.4 7.5-1.03 9.39zm-2.21-1.39l1.93-.49c.48-.81.32-5.14.42-6.12.01-.98.44-4.29.54-5.31 1.6-1.04 6 10.16 6.55 11.59.15.36.97.76 1.32.57.37-.26.33-.96.35-1.38.05-1.01.18-3.04.26-4.04.02-3.47.13-9.89.43-13.29-3.58.52-2.83.02-2.63 3.53.1 2.59-.31 5.33.39 7.86.13.46.1 1.03-.28 1.31-1.48-1.44-4.26-7.6-5.32-9.33-.5-1.36-2.18-.64-3.2-.4.3 2.08.6 4.39.19 6.45-.38 2.65-1.06 6.35-.94 9.03zM180.54 98.12c1.75-.15 1.45 1.4 1.5 2.58.51 4.89-.26 10.22-3.26 14.22-2.33 2.9-7.27 3.11-9.2-.35-2.05-2-2.28-17.58 1.29-17.92l2.24-.02c.2.06.48.5.47.73l-.12 3.55c.07 1.89-1.11 7.26.64 8.25 2.73-.54 2.1-8.32 2.5-10.65.93-.24 2.98-.38 3.94-.39zm.63.72c-1.14-.1-1.81-.04-2.77.28-.23 3.3.84 11.34-3.56 11.54-3.09-.33-2.86-5.38-2.47-7.98.24-1.24.38-3.9.38-5.17-.39-.25-.95-.07-1.28.17-.57.39-.38 2.48-.53 3.16-.24 3.99-.55 8.4 1.07 12.13 1.73 3.54 4.88 3.44 6.77.08 2.68-3.9 2.28-9.67 2.4-14.22zM210.82 109.48c.82-.27 1.48-.42 2.32-.25l.03 2.95c-.47 1.78-1.83 3.15-3.81 3.35l-5.69.77c-1.07.14-3.58 1.65-3.73-.37.23-5.18.17-13.14.22-18.32.26-.31.45-.71.56-1.08l1.89-1.64c2.02-.2 6.71-.41 8.78-.48.4 1.94.24 4.02-1.15 5.5-.88 1.56-5.86 0-4.87 2.33 4.48.22 5.5-1.97 3.87 4.98-.57.08-3.13-.32-3.52.24-.33 5.15-.83 3.64 5.1 2.01zm-5.72-2.77c3.47-.35 3.96.13 3.77-3.83-1.38-.24-4.7 1.06-4.68-.56l.13-1.91c.22-3.1 3.14-.94 5.8-2.07.42-.79.54-1.91.54-2.82-1.03-.16-4.55-.03-5.65-.04-1.18-.04-2.86.07-2.88 1.62l.04 6.26c.16 2.23.23 7.83.23 10.12 0 .17.28.49.43.47l3.76-.57c1.24-.16 4.27-.45 5.48-.61.16-.98.19-1.72.09-2.77-2.38.28-4.95 1.98-7.37 1.69-.34-1.54-.14-4.93.31-4.98zM227.18 110.19c-1.45 3.6-5.9 4.63-9.27 3.3-.74-.25-1-.99-.9-1.67.25-1.42.8-4.18 2.71-3.74 1.34.6 4.24 2.07 4.93.08.23-1.79-7.86-2.05-8.98-5.93-1.39-4.79 4.48-7.14 8.31-7.78 1.53-.27 4.25-.14 4.51.78.33 1.14.27 3.09-.42 3.09-2.11.12-5.41-.58-6.92 1.36.32.92 4.28 2.8 5.02 3.35 2.8 1.67 2.34 4.69 1 7.16zm-3.59 1.39c2.62-.25 5.02-5.14 2.75-7.25-.5-.8-4.38-2.89-5.18-3.43-.73-.55-1.66-1.18-1.28-2.27 1.48-2.47 5.11-2.99 7.69-2.08.15-.32.2-.79.1-1.15-4-1.38-11.94 1.93-8.84 6.97 1.28 1.45 3.72 2.18 5.38 3.11 2.85 1.91 1.3 5.37-2.06 4.32-1.64-.71-2.69-.63-2.97 1.39.67.78 3.52.31 4.41.39zM62.99 125.64c-.22-.45-.22-1.11-.13-1.57.4-3.03 1.82-8.46 1.9-11.48-2.88.26-5.38 1.97-8.51 1.72 0-1.17.64-3.95.73-5.17.11-.73.66-1.18 1.48-1.12.12-.36.28-1.32.47-1.61.08-.12.5-.03.65-.05 4.9-.6 10.15-1.14 15.07-.89l.92-.23c.05 1.42-.72 2.99-1.52 4.16-.35.51-.51 1.3-1.3 1.4l-3.33.45c-.33 2.17-1.1 7.55-1.25 9.66-.36 1.62-.2 5.66-2.57 5.3-.61-.16-2.17-.1-2.62-.59zm2.22-3.39l-.33 2.31h1.69c.62-3.13.96-7.75 1.52-10.95.2-1.43.4-2.89 1.14-4.14.81-1.37 3.38-.41 4.93-1.31l.79-2.37c-4.8 1.14-10.51.68-15.39 1.19l-.21 2.33-.64 2.65c2.02-.72 5.04-1.44 7.04-2.09.27-.08.78-.01 1.05.1.51 1.07-1.54 10.97-1.6 12.28zM196.62 112.7c-1.89 3.11-9.97 2.89-10.59.27-.26-1.09-.15-2.18.14-3.25 2.44-1.25 5.7 1.45 6.67-.13-1.66-2.05-4.55-2.67-6.21-4.71-3.37-3.65.83-8.94 5.04-9.19 2.34-.3 6.36.83 4.59 3.89-1.86-.4-8.37-2.16-5 1.47 3.15 2.26 6.63 4.02 6.05 8.53-.04 1.05-.14 2.18-.7 3.11zm-4.46.02c3.91-.23 5.45-5.56 2.49-8-.57-.49-1.86-1.56-2.48-1.97-5.54-3.71-2.09-5.9 3.14-4.18 1.76-2.39-2.81-2.47-5.29-1.55-1.71.66-2.62 2.1-2.8 3.88-.84 3.8 7.97 4.51 7.18 8.73-1.14 2.33-4.17.55-5.88.64l-.51 1.76c-.27.95 2.41.86 4.13.68zM160.05 116.45c-.93.58-3.04.58-3.93.34-2.02-.73-3.73-2.6-4.32-4.69-1.02-3.47-1.56-10.13 2.21-12.02 2.25-1.56 4.15-3.15 7.05-1.81 6.46 3.3 5.03 15.06-1.01 18.17zm-4.31-2.58c4.76 5.13 8.21-2.61 8.54-6.86.18-2.55-.76-5.19-2.33-7.15-2.05-2.24-4.09-1.53-5.88.49-3.39 2.85-3.25 10.25-.32 13.52zM14.53 130.31c.11-2.96.39-9.84.67-12.71.12-1.62.44-3.15.97-4.65.13-2.07 3.49-1.73 4.93-1.26-.15 4.01-.4 12.08-.5 16.09-.17 2.68-3.99 2.56-6.07 2.54zm5.03-2.05c.51-1.59.07-2.95.26-4.47.24-3.36-.09-8.22.58-11.52-2.95.09-3.3-.62-3.11 2.78 0 1.63-.06 4.96-.12 6.59-.07 2.22-.57 4.86-.31 7.06l2.7-.45zM81.78 121.58c-.1 1.21-2.52 1.95-4.04 1.74-.66-.62.34-6.37.31-7.19.3-3.1.37-6.14.43-9.26-.25-2.29 2.28-4.53 4.37-3.37.22.36-.25 3.64-.24 4.1-.31 3.8-.51 10.18-.82 13.99zm-2.31-.04c.66-.1 1.14-.24 1.58-.55.62-4.75.56-12.19.92-16.97-.68-.08-1.16.05-1.58.41.57 2.82-.29 6.49-.41 9.33-.03 1.9-.33 5.88-.51 7.79z" fill="#fff"/><path d="M160.29 112.7c-5.2 2.96-6.15-10.18-2.5-11.69 4.91-2.12 5.31 9.69 2.5 11.69zm-2.15-.46c1.88-2.68 1.74-5.76.91-8.65-3.02-3.8-3.26 7.57-.91 8.65z" fill="#fff"/></svg>