<svg xmlns="http://www.w3.org/2000/svg" width="204" height="139" viewBox="0 0 204 139"><path d="M20.26,3.35C15.71,1.37,9.68.27,6,4.58c-1.25,1.48-2.41,4.17-.73,5.75a9.28,9.28,0,0,0,3.05,1.56,39,39,0,0,0,4.36,1.3,29.47,29.47,0,0,1,7.81,2.68,10.8,10.8,0,0,1,4.92,6.52,18.66,18.66,0,0,1,.77,8.55c-.43,2.66-1.59,5.9-4.13,7.21-2.73,1.42-6.81,2.86-9.78,1.49C9.67,38.41,8.26,35.5,7.05,33c-.43-.86-1.71-.11-1.29.75a17.68,17.68,0,0,0,4.18,6.08,8.12,8.12,0,0,0,6.67,1.66,21.51,21.51,0,0,0,4.24-1.25,10.18,10.18,0,0,0,3.38-1.79,12.21,12.21,0,0,0,3.32-6.55c1-4.81.07-11.23-3.31-15-3.74-4.17-9.7-4.49-14.67-6.18a17,17,0,0,1-2.41-1,1.76,1.76,0,0,1-1-2.29A6.05,6.05,0,0,1,9.16,4c3.28-1.75,7.15-.72,10.35.67.87.38,1.63-.9.75-1.28Z" fill="#fff"/><path d="M20.12,2.57c-.14,1-.28,1.91-.44,2.87a.81.81,0,0,0,.08.57.78.78,0,0,0,.44.34.76.76,0,0,0,.92-.52c.15-1,.3-1.91.43-2.86a.83.83,0,0,0-.07-.58A.77.77,0,0,0,21,2.05a.76.76,0,0,0-.57.08.68.68,0,0,0-.34.44Z" fill="#fff"/><path d="M5.2,35.13A8.85,8.85,0,0,1,6,34.39l.2-.16.09-.07.08-.06,0,0,.1-.07.22-.17,1.87-1.3a.75.75,0,1,0-.75-1.29,20.38,20.38,0,0,0-3.67,2.85.74.74,0,1,0,1,1.05Z" fill="#fff"/><path d="M29,14.48,31,14.23a.75.75,0,0,0,.75-.74.75.75,0,0,0-.75-.75L29,13a.89.89,0,0,0-.53.22.78.78,0,0,0-.21.53.76.76,0,0,0,.21.53.72.72,0,0,0,.53.21Z" fill="#fff"/><path d="M29.44,14.46l2.89,24.42c.11.94,1.6.95,1.49,0L30.93,14.46c-.11-.94-1.6-1-1.49,0Z" fill="#fff"/><path d="M31.93,40.71h2a.75.75,0,0,0,.74-.75.76.76,0,0,0-.74-.74h-2a.74.74,0,0,0-.74.74.75.75,0,0,0,.74.75Z" fill="#fff"/><path d="M32.26,26.57A44.51,44.51,0,0,0,41,26.31a.77.77,0,0,0,.75-.74c0-.36-.35-.8-.75-.74a46.12,46.12,0,0,1-8.71.26c-1-.07-.95,1.42,0,1.48Z" fill="#fff"/><path d="M39.25,13.6H41.4a.74.74,0,0,0,.74-.74.75.75,0,0,0-.74-.75H39.25a.75.75,0,1,0,0,1.49Z" fill="#fff"/><path d="M39.83,13.4l2.42,25.26c.1,1,1.59,1,1.49,0L41.32,13.4c-.09-.94-1.58-1-1.49,0Z" fill="#fff"/><path d="M42,40.49h1.83a.8.8,0,0,0,.53-.21A.75.75,0,0,0,43.87,39H42a.77.77,0,0,0-.52.22.75.75,0,0,0-.22.53.76.76,0,0,0,.74.74Z" fill="#fff"/><path d="M50.59,11v2.51a.75.75,0,0,0,1.49,0V11a.75.75,0,0,0-1.49,0Z" fill="#fff"/><path d="M50.85,11.32l-4.1.69c-.85.14-2,.09-2.31,1.08a5.63,5.63,0,0,0,0,1.69c0,.73.07,1.46.11,2.2.07,1.46.15,2.93.23,4.39q.51,8.79,1.36,17.56a.77.77,0,0,0,.74.74,30.33,30.33,0,0,0,6.39,0c.94-.11.95-1.6,0-1.49a30.33,30.33,0,0,1-6.39,0l.75.75Q46.88,31,46.38,23.08c-.16-2.6-.3-5.21-.42-7.81,0-.31-.14-1.63-.13-1.66l1.54-.21,3.88-.65c.94-.15.54-1.59-.4-1.43Z" fill="#fff"/><path d="M52.75,38v1.88a.74.74,0,0,0,.74.74.77.77,0,0,0,.75-.74V38a.75.75,0,1,0-1.49,0Z" fill="#fff"/><path d="M45.83,25.55h2.58a.75.75,0,0,0,.74-.75.76.76,0,0,0-.74-.74H45.83a.75.75,0,0,0,0,1.49Z" fill="#fff"/><path d="M47.8,23.69v2.23a.75.75,0,0,0,.75.74.76.76,0,0,0,.74-.74V23.69a.75.75,0,1,0-1.49,0Z" fill="#fff"/><path d="M55.16,12.53c.89,0,1.77,0,2.65,0a.75.75,0,0,0,.75-.74.77.77,0,0,0-.75-.75c-.88,0-1.76-.05-2.65,0a.74.74,0,0,0-.74.74.76.76,0,0,0,.74.75Z" fill="#fff"/><path d="M55.37,12.08q1.53,13.16,2.38,26.37a.76.76,0,0,0,.74.74l6.07,0a.75.75,0,0,0,0-1.49l-6.07,0,.75.75q-.85-13.22-2.38-26.37c-.11-.94-1.6-1-1.49,0Z" fill="#fff"/><path d="M64,37.27v1.95a.75.75,0,0,0,1.49,0V37.27a.75.75,0,0,0-1.49,0Z" fill="#fff"/><path d="M66.28,12.76c-.32,4.16.45,8.38.74,12.52s.45,8.36.47,12.55a.75.75,0,0,0,1.49,0c0-4.19-.17-8.37-.47-12.55s-1.06-8.36-.74-12.52c.07-1-1.42-.95-1.49,0Z" fill="#fff"/><path d="M66.65,13.4a12.59,12.59,0,0,1,5.26,4c1.61,2.18,1.86,4.69,2.06,7.32s.25,5.21-.9,7.56a11.71,11.71,0,0,1-5,5,.75.75,0,0,0,.75,1.29,13.3,13.3,0,0,0,5.45-5.32c1.37-2.63,1.39-5.59,1.19-8.48s-.47-5.51-2.11-7.85a13.88,13.88,0,0,0-5.95-4.73c-.87-.37-1.63.91-.75,1.29Z" fill="#fff"/><path d="M83.71,12.16c-1.65-1-3.23-1.08-4.45.57A14.06,14.06,0,0,0,77,19a33.13,33.13,0,0,0,.51,13.08c.81,3,3.63,8.56,7.62,6.85C87,38.08,87.7,36,88,34.11a59,59,0,0,0,.68-7.85A27.49,27.49,0,0,0,88,18.07a11.25,11.25,0,0,0-1.55-3.33,12.39,12.39,0,0,0-2.54-2.47c-.74-.6-1.8.45-1.06,1.06a11,11,0,0,1,2.31,2.16,9.9,9.9,0,0,1,1.51,3.4,26.79,26.79,0,0,1,.59,7.37,56.14,56.14,0,0,1-.62,7.45,5.58,5.58,0,0,1-1.45,3.43c-1.16,1-2.56.4-3.54-.53-3.08-2.91-3.39-7.91-3.44-11.87a29.55,29.55,0,0,1,.49-6.64,13.66,13.66,0,0,1,1.16-3.4,4.61,4.61,0,0,1,1-1.5c.81-.65,1.46-.17,2.15.24a.74.74,0,0,0,.76-1.28Z" fill="#fff"/><path d="M91.44,41.5a18.5,18.5,0,0,0,2.84-.64.74.74,0,1,0-.4-1.43,18.35,18.35,0,0,1-2.83.63.72.72,0,0,0-.45.35.75.75,0,0,0-.07.57.72.72,0,0,0,.34.44.86.86,0,0,0,.57.08Z" fill="#fff"/><path d="M98.48,11.69h2.65a.75.75,0,0,0,0-1.49H98.48a.74.74,0,0,0-.74.74.76.76,0,0,0,.74.75Z" fill="#fff"/><path d="M90.55,13.08q4.76,12.81,9.09,25.78a.75.75,0,0,0,1.46-.2c.19-4.58.21-9.17,0-13.75s-.73-9.06-.62-13.61c0-1-1.46-1-1.49,0-.11,4.55.43,9.06.62,13.61s.18,9.17,0,13.75l1.47-.2q-4.33-13-9.1-25.77c-.33-.9-1.77-.51-1.43.39Z" fill="#fff"/><path d="M90.3,13c0,9.1,1.23,18.18,1.85,27.25.06.95,1.55,1,1.49,0C93,31.21,91.77,22.13,91.79,13a.75.75,0,0,0-1.49,0Z" fill="#fff"/><path d="M132.34,5.78C131.2,4,130,2,128,1a5.26,5.26,0,0,0-5.51.14c-3.87,2.61-4.47,8.28-5.1,12.48A47.85,47.85,0,0,0,117,28.09c.62,4,2.14,9,5.85,11.18a6.39,6.39,0,0,0,9.58-5.5.75.75,0,0,0-1.49,0,4.91,4.91,0,0,1-8.21,3.58c-2.73-2.34-3.83-6.46-4.33-9.87A43.19,43.19,0,0,1,118.55,16c.47-3.76.85-8,2.77-11.39,1.05-1.81,2.82-3.35,5-2.71s3.54,2.78,4.69,4.63c.51.81,1.8.06,1.29-.76Z" fill="#fff"/><path d="M130.92,33.61a3.14,3.14,0,0,1,.75,0l-.2,0a3.44,3.44,0,0,1,.76.21l-.18-.08a3.25,3.25,0,0,1,.65.38l-.15-.11,0,0a.81.81,0,0,0,.53.22.73.73,0,0,0,.52-.22.75.75,0,0,0,.22-.53.73.73,0,0,0-.22-.52,3.77,3.77,0,0,0-1.35-.73,3.57,3.57,0,0,0-1.38-.13.81.81,0,0,0-.53.22.73.73,0,0,0-.21.52.72.72,0,0,0,.21.53.77.77,0,0,0,.53.22Z" fill="#fff"/><path d="M131.15,8l2.11-1.31a.74.74,0,1,0-.75-1.28L130.4,6.69A.74.74,0,1,0,131.15,8Z" fill="#fff"/><path d="M143.13,13a3.26,3.26,0,0,0-4-1.34c-1.83.65-2.68,2.56-3.05,4.33a42.46,42.46,0,0,0-.29,15.69c.62,3.39,2.45,9.37,7.13,7.19C147,37,146.61,31,146.48,27.23c-.16-4.78-.81-10.06-3.35-14.22-.5-.82-1.79-.07-1.29.75a23.58,23.58,0,0,1,2.84,9.39,34.83,34.83,0,0,1,0,10.64c-.34,1.74-1.3,3.65-3.22,4s-3-1.75-3.54-3.34A33.5,33.5,0,0,1,136.81,22a29,29,0,0,1,.89-6.5,3.51,3.51,0,0,1,1.78-2.35,1.79,1.79,0,0,1,2.36.65c.45.85,1.73.1,1.29-.75Z" fill="#fff"/><path d="M157.66,14.37c-.85-1.73-2.14-2.76-4.12-2.53a4.72,4.72,0,0,0-4,3.27c-1.06,2.62-1.19,5.6-1.4,8.38a46.31,46.31,0,0,0-.12,8.65,8.9,8.9,0,0,0,2.71,6,3.93,3.93,0,0,0,5.32.14c1.5-1.42,2-3.76,2.33-5.71a41.41,41.41,0,0,0,.59-6.48,53,53,0,0,0-.33-7.13,16.18,16.18,0,0,0-1-4.56c-.38-.87-1.66-.12-1.28.76.94,2.16,1,4.94,1.07,7.26a42.84,42.84,0,0,1-.58,10.24c-.3,1.56-.68,3.7-2,4.71-2.16,1.6-4.26-1.34-4.86-3.13a18.23,18.23,0,0,1-.57-6c.06-2.36.22-4.73.45-7.08.2-2.18.39-5.23,2-6.94a3.09,3.09,0,0,1,2.42-.88c1.13.05,1.68.91,2.14,1.85S158.09,15.23,157.66,14.37Z" fill="#fff"/><path d="M161.64,12.16q.72,13.9.4,27.82a.75.75,0,0,0,1.49,0q.32-13.92-.4-27.82c0-.95-1.54-1-1.49,0Z" fill="#fff"/><path d="M161.71,40.79h2.34a.74.74,0,1,0,0-1.48h-2.34a.74.74,0,0,0,0,1.48Z" fill="#fff"/><path d="M162.88,12.72a4.15,4.15,0,0,1,5.15,3.7,5.23,5.23,0,0,1-1.54,3.4c-.83,1-1.87,1.95-3.23,1.83-.95-.09-.94,1.4,0,1.49,1.74.16,3.21-1,4.28-2.27a6.62,6.62,0,0,0,2-4.6,5.66,5.66,0,0,0-7-5c-.94.2-.54,1.63.4,1.43Z" fill="#fff"/><path d="M178.9,11.06V13.4a.77.77,0,0,0,.75.75.76.76,0,0,0,.74-.75V11.06a.75.75,0,1,0-1.49,0Z" fill="#fff"/><path d="M179.13,11.25a54.63,54.63,0,0,0-6.27.1c-1.44.19-1.28,1.33-1.28,2.55l0,12.6,0,12.35c0,1.23-.26,2.68,1.3,2.82,2,.18,4.21,0,6.26,0a.75.75,0,0,0,0-1.49H174c-.21,0-1,.14-1.21,0,.37.3.18-.57.18-.84V36.87l0-10.37,0-10.13V13.65c0-.18.14-1.17-.1-.9s.64.08.86.07l5.3-.08a.75.75,0,0,0,0-1.49Z" fill="#fff"/><path d="M178.76,40v1.53a.75.75,0,1,0,1.49,0V40a.81.81,0,0,0-.22-.53.75.75,0,0,0-.53-.22.76.76,0,0,0-.74.75Z" fill="#fff"/><path d="M172.77,25.27h2.78a.74.74,0,1,0,0-1.48h-2.78a.74.74,0,1,0,0,1.48Z" fill="#fff"/><path d="M175,23.29V25a.81.81,0,0,0,.22.53.78.78,0,0,0,.53.21.74.74,0,0,0,.74-.74V23.29a.73.73,0,0,0-.22-.53.74.74,0,0,0-.52-.22.76.76,0,0,0-.75.75Z" fill="#fff"/><path d="M183.86,11.64q.63,14.82.33,29.65a.75.75,0,0,0,1.49,0q.3-14.82-.33-29.65c0-1-1.53-1-1.49,0Z" fill="#fff"/><path d="M184.26,42.41h2a.75.75,0,0,0,0-1.49h-2a.74.74,0,0,0-.74.74.75.75,0,0,0,.74.75Z" fill="#fff"/><path d="M185,12.13c3.61-1.4,6.38,1.72,6.19,5.23a6.88,6.88,0,0,1-1.79,4.5,38.09,38.09,0,0,1-3.35,2.43c-.76.6-1.55,1.23-1.19,2.26a30.17,30.17,0,0,0,2.5,4.51q2.65,4.71,5.42,9.36a.74.74,0,0,0,1.28-.75q-3.13-5.28-6.14-10.64a22.47,22.47,0,0,1-1.43-2.58c-.23-.59-.25-.42.25-.81.34-.27.68-.52,1-.77a12.39,12.39,0,0,0,3.34-2.72,8.73,8.73,0,0,0,.74-8.75,5.81,5.81,0,0,0-7.26-2.71c-.88.35-.5,1.79.4,1.44Z" fill="#fff"/><path d="M193.08,41.75a5.56,5.56,0,0,1,.87-.46l-.18.07a5.85,5.85,0,0,1,1.08-.33.75.75,0,0,0,.52-.92.77.77,0,0,0-.92-.52,6.27,6.27,0,0,0-2.12.88.77.77,0,0,0-.35.44.78.78,0,0,0,.08.58.76.76,0,0,0,1,.26Z" fill="#fff"/><path d="M8.22,60.5a2.89,2.89,0,0,0-.85,3.68c.78,1.54,2.65,2.09,4.26,2.08,4,0,5.91-4,4.25-7.42a8,8,0,0,0-10-3.64C2.32,56.67,1,61.68,1.3,65.18c.37,4.16,3.6,6.76,7.19,8.36A20.45,20.45,0,0,0,20.55,75.4a18.49,18.49,0,0,0,9.8-5.23,18.66,18.66,0,0,0,3.3-4.77c1-2.06,2-4.16,4.13-5.32a6.93,6.93,0,0,1,7.11.25c2,1.29,3.71,4,2.91,6.42-.72,2.17-3.28,3.31-5.41,3.38-1.41,0-3.22-.34-3.71-1.87-.23-.73,0-1.83.94-2a.88.88,0,0,1,.84,1.39c-.55.78.74,1.53,1.29.75a2.39,2.39,0,0,0-.8-3.35,2.66,2.66,0,0,0-3.6,1.39,3.49,3.49,0,0,0,1.28,4.14,6.63,6.63,0,0,0,5.34.82c3.32-.72,6.09-3.49,5.38-7.06a8.39,8.39,0,0,0-13-5.16,11.62,11.62,0,0,0-3.64,4.7,17.87,17.87,0,0,1-8.13,8.6,16.73,16.73,0,0,1-12.47.85C8,72.08,3,69.67,2.76,64.76a10.52,10.52,0,0,1,2.12-7.07c1.82-2,5.26-1.91,7.47-.58s3.75,4.49,1.92,6.66a3.87,3.87,0,0,1-3.71.91C9.5,64.46,7.47,62.9,9,61.79c.76-.57,0-1.86-.75-1.29Z" fill="#fff"/><path d="M22.92,61.28a107.09,107.09,0,0,0,2.57,23.06c.21.93,1.65.54,1.44-.4a104,104,0,0,1-2.52-22.66.75.75,0,0,0-1.49,0Z" fill="#fff"/><path d="M26.91,58.5a213.5,213.5,0,0,0,3.31,24.29c.18.94,1.62.54,1.43-.4A211,211,0,0,1,28.4,58.5c-.08-1-1.57-1-1.49,0Z" fill="#fff"/><path d="M168.08,66.41a1.59,1.59,0,0,1,1.54,2.32c-.53.94-2,1.11-3,1.11a4.31,4.31,0,0,1-4.43-3.27c-.34-2,1.2-3.72,2.75-4.7a11.86,11.86,0,0,1,5.79-2.07c2,0,3.46,1.29,4.72,2.67s2.3,2.68,3.48,4a27.37,27.37,0,0,0,8.42,6.83,13.56,13.56,0,0,0,9.66,1,7.59,7.59,0,0,0,5.56-6.52c.37-2.94.39-6.6-2.26-8.52-2.4-1.75-6.31-3.11-9-1.21-2.44,1.75-3,5.72-.37,7.59s6.44-.34,5.5-3.62a.74.74,0,0,0-1.43.4c.63,2.21-2.15,3.17-3.56,1.72s-.72-4,.9-5,3.33-.41,4.91.23c1.94.77,3.43,1.8,3.8,4,.6,3.47,0,7.48-3.47,9.12s-7.5.7-10.65-1.07a31,31,0,0,1-7.86-7c-1.89-2.16-3.79-5.07-6.7-5.91s-6.91.9-9.22,2.77c-2.14,1.73-3.35,4.69-1.84,7.23a6.44,6.44,0,0,0,8.23,2.17,3.06,3.06,0,0,0-1.54-5.77.75.75,0,0,0,0,1.49Z" fill="#fff"/><path d="M181.78,62.21l.56,16.15c0,1,1.52,1,1.48,0l-.55-16.15c0-1-1.52-1-1.49,0Z" fill="#fff"/><path d="M185.28,62.47A65.88,65.88,0,0,0,186.13,78c.17.94,1.6.54,1.44-.4a64.05,64.05,0,0,1-.8-15.15c.06-.95-1.43-.95-1.49,0Z" fill="#fff"/><path d="M63.92,65.72c4.69,1.53,8.51-2.12,11.38-5.31l-1.24-.72L66.76,82.9c-.29.91,1.15,1.3,1.43.39l7.3-23.21a.75.75,0,0,0-1.24-.72c-2.5,2.77-5.8,6.27-9.93,4.93-.91-.3-1.31,1.14-.4,1.43Z" fill="#fff"/><path d="M74.82,62.54c1.24-.83,3.92-2.29,4.27.21A6.93,6.93,0,0,1,78,67.25a4.57,4.57,0,0,1-3.85,2.16,3.88,3.88,0,0,1-2-.53c-.21-.13-.84-.56-.9-.85-.22-1.07.79-.38,1.12-.21,2.37,1.19,5,3.48,7.75,1.74a6.33,6.33,0,0,0,2.1-2.64c.78-1.63,1.43-3.34,2.13-5l-.84.34a19.71,19.71,0,0,0,4.84.45l-.64-1.12c-1.54,2.17-3.57,7.64-.13,9.12s7-2.16,8.29-5.06c.49-1.09,1.13-3.34-.3-4.05s-2.52.9-2.93,2c-1.17,3-1,8.13,3.34,7.83,4.66-.33,7-4.92,8.59-8.68H103.3a10.86,10.86,0,0,1,2.22,6.8c-.08,1.35-.89,3-2.49,2.45-1.14-.37-2.65-2.06-2.45-3.31l-.72.55c1,0,2,1.07,2.78,1.55a10.28,10.28,0,0,0,2.52,1.16,6.95,6.95,0,0,0,8.8-7.75,1.56,1.56,0,0,0-2.35-1.35,4.37,4.37,0,0,0-2.33,3.11c-.57,2.28.19,5.93,3.21,5.68,3.72-.3,5.42-5.55,6.52-8.42l-1.46-.2a45.72,45.72,0,0,1-1.82,8.57c-.28.92,1.16,1.31,1.44.4A48.15,48.15,0,0,0,119,63c.09-.9-1.19-.92-1.47-.2a32.24,32.24,0,0,1-1.74,4c-.68,1.23-1.73,3-3.26,3.3s-2-1.45-2-2.67a4.8,4.8,0,0,1,.47-2c.16-.31.93-1.53,1.41-1.19s0,1.91,0,2.24a5.77,5.77,0,0,1-.81,1.91,5.42,5.42,0,0,1-3.57,2.29,6.64,6.64,0,0,1-4.66-1.16c-1.12-.69-2.13-1.8-3.53-1.75a.75.75,0,0,0-.72.55c-.48,3.09,3.8,7,6.57,4.46s.76-8.13-1.12-10.76c-.28-.4-1-.57-1.29,0-1.15,2.69-2.41,5.73-5.11,7.22-1.27.71-3.61,1.38-4.37-.32a6.6,6.6,0,0,1,.37-5.15c.68-1.23.89-.4.63.54a7.28,7.28,0,0,1-1.07,2.14,7.14,7.14,0,0,1-3.51,3,2.76,2.76,0,0,1-2.35-.2c-.68-.48-.63-1.44-.58-2.18A8.89,8.89,0,0,1,89,62.34a.75.75,0,0,0-.65-1.12,17.45,17.45,0,0,1-4.44-.4.77.77,0,0,0-.84.34c-.75,1.77-1.41,3.61-2.3,5.32-1.06,2-2.7,2.69-4.84,1.68-1.45-.68-2.86-2.1-4.5-2.25a1.62,1.62,0,0,0-1.78,2c.46,2.79,4.29,3.44,6.5,2.66,2.8-1,4.27-4,4.42-6.78.09-1.53-.24-3.14-1.84-3.73s-3.3.27-4.68,1.21c-.8.53,0,1.82.75,1.28Z" fill="#fff"/><path d="M118.67,66.19c.33-.66,1-1.88,1.8-.91.46.57.23,1.57.16,2.21a4.52,4.52,0,0,0,.39,3.07c1.3,2,3.83.91,4.92-.65,1.55-2.21,2.12-5,2.75-7.58L131,52.79l-1.46-.2-1,10.26-.47,4.88c-.12,1.19-.49,2.61.42,3.58,1.67,1.78,4.29.29,5.62-1.1,2.2-2.3,4-5.06,6-7.57l-1.25-.33a19.13,19.13,0,0,1,1.46,7,4.26,4.26,0,0,1-.44,2.54c-1,1.17-1.92-.69-2.29-1.49-.13-.28-1.07-3.2-.72-3.26.1,0,1.24,2,1.46,2.27a10.67,10.67,0,0,0,4.19,2.57c3.08,1.15,7.68,1.2,9.61-2a2.56,2.56,0,0,0-.36-3.43c-1.21-.93-2.86-.34-4.08.26-.86.42-.11,1.7.75,1.28s3.17-1.17,2.62.69a4,4,0,0,1-2.74,2.21,9.13,9.13,0,0,1-6.73-1,6.87,6.87,0,0,1-2.54-2c-.46-.65-.62-1.53-1.3-2a1.46,1.46,0,0,0-2.37,1.22c-.14,2.1,2.24,9,5.33,6.07,1.13-1.06,1.14-2.9,1.09-4.32a20.64,20.64,0,0,0-1.5-6.93c-.18-.45-.86-.82-1.24-.32l-4.71,6a11.12,11.12,0,0,1-2.29,2.45,2.76,2.76,0,0,1-1.68.56c-1.14-.1-1-1.32-.89-2.15l1.52-15.87c.08-.84-1.26-1-1.46-.2l-2.23,9.08c-.63,2.55-1.09,6.2-3.08,8.12-.71.69-1.9.79-2.2-.33a5.09,5.09,0,0,1,.06-2,3.93,3.93,0,0,0-.58-3c-1.45-1.83-3.38-.45-4.18,1.17-.43.85.85,1.61,1.28.75Z" fill="#fff"/><path d="M123.58,60.05h11.81a.75.75,0,0,0,0-1.49H123.58a.75.75,0,0,0,0,1.49Z" fill="#fff"/><path d="M75.54,78.87c18,1.65,36-.3,54-.84,5.13-.16,10.27-.19,15.41,0,1,0,.95-1.45,0-1.49-18-.67-36,1.51-54.06,1.51-5.13,0-10.26-.2-15.37-.66-1-.09-.94,1.4,0,1.48Z" fill="#fff"/><path d="M85,100.21a47.46,47.46,0,0,0,2.77,14.19.76.76,0,0,0,1.36.18,67.62,67.62,0,0,0,5.18-9.3H93q1.81,3.87,3.25,7.9c.19.53,1.08.81,1.36.18a44.42,44.42,0,0,0,3.79-14.88c.08-1-1.41-1-1.49,0a42.34,42.34,0,0,1-3.58,14.12l1.36.18c-1-2.8-2.14-5.55-3.4-8.25a.75.75,0,0,0-1.29,0,68.63,68.63,0,0,1-5.17,9.3l1.36.17a45.71,45.71,0,0,1-2.72-13.79c0-1-1.52-1-1.49,0Z" fill="#fff"/><path d="M104.62,102.8q-.08,5,0,10c0,1,1.52,1,1.49,0-.09-3.33-.1-6.66,0-10a.75.75,0,0,0-1.49,0Z" fill="#fff"/><path d="M108.71,103.06h9.6a.75.75,0,0,0,0-1.49h-9.6a.75.75,0,0,0,0,1.49Z" fill="#fff"/><path d="M112.29,103.08v9.31a.75.75,0,0,0,1.49,0v-9.31a.75.75,0,0,0-1.49,0Z" fill="#fff"/><path d="M120.92,102.51a93.36,93.36,0,0,0,.47,11.7c.1.94,1.59,1,1.49,0a93.36,93.36,0,0,1-.47-11.7.75.75,0,0,0-1.49,0Z" fill="#fff"/><path d="M121.86,108.42l5.09-.1a.74.74,0,0,0,.74-.74.76.76,0,0,0-.74-.75l-5.09.1a.75.75,0,0,0,0,1.49Z" fill="#fff"/><path d="M126.35,102a55.09,55.09,0,0,0,1.28,12.08c.2.94,1.64.54,1.43-.39A53.42,53.42,0,0,1,127.84,102a.75.75,0,0,0-1.49,0Z" fill="#fff"/><path d="M1.75,91.49c3.29,2.25,6.26,5,10.07,6.4.9.33,1.29-1.11.4-1.43-3.67-1.32-6.55-4.1-9.72-6.25-.8-.54-1.54.75-.75,1.28Z" fill="#fff"/><path d="M5,116.89c1.41,0,2.74-.69,4.06-1.09a30.52,30.52,0,0,1,4.11-.93.74.74,0,0,0,.52-.91.75.75,0,0,0-.91-.52,28.43,28.43,0,0,0-4,.88c-.63.19-1.24.39-1.86.62A5.25,5.25,0,0,1,5,115.4a.75.75,0,0,0,0,1.49Z" fill="#fff"/><path d="M13,137.68l4.72-7.48c.51-.81-.78-1.56-1.29-.75l-4.72,7.48c-.51.81.78,1.56,1.29.75Z" fill="#fff"/><path d="M62.5,124.75c2.18,2.92,4.34,5.86,6.45,8.82a.77.77,0,0,0,1,.26.73.73,0,0,0,.27-1c-2.12-3-4.27-5.9-6.45-8.82a.77.77,0,0,0-1-.26.74.74,0,0,0-.27,1Z" fill="#fff"/><path d="M64.76,114.58q4.29.35,8.55.87a.75.75,0,0,0,.75-.74.77.77,0,0,0-.75-.75q-4.26-.52-8.55-.87c-1-.08-1,1.41,0,1.49Z" fill="#fff"/><path d="M65.8,95.3a26.12,26.12,0,0,1,3.84-3.74.74.74,0,0,0,0-1,.76.76,0,0,0-1,0,25.16,25.16,0,0,0-3.84,3.74.75.75,0,0,0,0,1,.74.74,0,0,0,1,0Z" fill="#fff"/><path d="M27.76,93.91q-5.25,2-10.33,4.32A1,1,0,0,0,17,99.35q3.27,14,5.38,28.2c.18,1.25,2.1.72,1.91-.53q-2.1-14.2-5.37-28.19L18.43,100q4.84-2.27,9.86-4.12c1.19-.44.67-2.36-.53-1.92Z" fill="#fff"/><path d="M21.91,114.83a53.6,53.6,0,0,1,6-2.68,1,1,0,0,0-.53-1.92,59.81,59.81,0,0,0-6.43,2.89,1,1,0,0,0-.36,1.36,1,1,0,0,0,1.36.35Z" fill="#fff"/><path d="M32.23,103.37c-.22,4.6,0,10.3,4.52,12.91a5.38,5.38,0,0,0,6.25-.34,7.19,7.19,0,0,0,2.4-6.28c-.25-3-1.75-5.67-2.78-8.48-.43-1.19-2.35-.67-1.91.53.93,2.57,2.41,5.06,2.69,7.82.23,2.22-.6,5.1-3.12,5.59-2.32.45-4.3-1.76-5.17-3.63-1.17-2.51-1-5.43-.9-8.12.06-1.28-1.92-1.27-2,0Z" fill="#fff"/><path d="M50.56,119.2a173.07,173.07,0,0,1,2.61-19.77H51.26q3.66,10.29,6.86,20.75a1,1,0,0,0,1.91,0A162.43,162.43,0,0,0,63.57,100c.14-1.26-1.84-1.25-2,0a159.86,159.86,0,0,1-3.47,19.66H60q-3.2-10.45-6.86-20.75c-.3-.84-1.71-1-1.91,0a175.66,175.66,0,0,0-2.68,20.3c-.1,1.27,1.89,1.27,2,0Z" fill="#fff"/><path d="M149.61,89.47v2.67a.77.77,0,0,0,.75.75.76.76,0,0,0,.74-.75V89.47a.75.75,0,0,0-1.49,0Z" fill="#fff"/><path d="M150.36,90.19a30.13,30.13,0,0,0-8.47.7.76.76,0,0,0-.55.72c-.06,4.4.35,8.8.66,13.19l.94,13.38c.07.95,1.55,1,1.49,0l-.94-13.38c-.31-4.39-.72-8.79-.66-13.19l-.54.72a28.43,28.43,0,0,1,8.07-.65c.95.06.95-1.43,0-1.49Z" fill="#fff"/><path d="M142.87,119.66l1.43-.14a.58.58,0,0,0,.29-.06.54.54,0,0,0,.24-.16.79.79,0,0,0,.22-.52.77.77,0,0,0-.22-.53.71.71,0,0,0-.53-.22l-1.43.14a.72.72,0,0,0-.29.06.63.63,0,0,0-.24.16.79.79,0,0,0-.22.52.77.77,0,0,0,.22.53.73.73,0,0,0,.53.22Z" fill="#fff"/><path d="M143.33,105.37a29.72,29.72,0,0,1,4.55-.35.75.75,0,1,0,0-1.49,31.57,31.57,0,0,0-4.95.4.75.75,0,1,0,.4,1.44Z" fill="#fff"/><path d="M147.46,103.21v1.3a.79.79,0,0,0,.22.53.75.75,0,0,0,.53.22.77.77,0,0,0,.53-.22.78.78,0,0,0,.21-.53v-1.3a.74.74,0,0,0-1.27-.52.77.77,0,0,0-.22.52Z" fill="#fff"/><path d="M151.59,100.18h2.74a.75.75,0,0,0,0-1.49h-2.74a.75.75,0,0,0-.74.74.76.76,0,0,0,.74.75Z" fill="#fff"/><path d="M152.24,99.65q.72,6.33,1.07,12.69c.06,1,.11,2.09.15,3.13,0,.7-.17,1.8.36,2.35s1.6.2,2.27.11l3.18-.4c.94-.11.95-1.6,0-1.49l-2.51.32a13.42,13.42,0,0,1-2.36.26l.53.22s0-.7,0-.85c0-.4,0-.81-.05-1.22,0-.69-.07-1.39-.1-2.09-.08-1.45-.17-2.9-.28-4.35q-.31-4.35-.81-8.68c-.1-.94-1.59-1-1.49,0Z" fill="#fff"/><path d="M158.8,116v1.43a.76.76,0,0,0,.21.52.75.75,0,0,0,.53.22.73.73,0,0,0,.74-.74V116a.77.77,0,0,0-.21-.53.75.75,0,0,0-.53-.22.73.73,0,0,0-.74.75Z" fill="#fff"/><path d="M162,118.41h1.31a.75.75,0,0,0,.74-.74.75.75,0,0,0-.74-.75H162a.77.77,0,0,0-.52.22.75.75,0,0,0-.22.53.75.75,0,0,0,.74.74Z" fill="#fff"/><path d="M168.86,118.27c.47-.09.92-.29,1.39-.39a.73.73,0,0,0,.52-.92.75.75,0,0,0-.34-.44.81.81,0,0,0-.57-.08c-.48.1-.92.3-1.4.4a.74.74,0,0,0-.44.34.72.72,0,0,0-.08.57.73.73,0,0,0,.92.52Z" fill="#fff"/><path d="M163.43,117.34q.15-8.84.86-17.64l-1.39.38a11.12,11.12,0,0,1,1.38,3.92c.4,1.5.91,3,1.45,4.44a74.83,74.83,0,0,1,2.92,8.71c.22.94,1.65.54,1.43-.39a77.67,77.67,0,0,0-3-9c-.53-1.46-1-2.94-1.42-4.45a10.84,10.84,0,0,0-1.44-4,.75.75,0,0,0-1.39.37q-.7,8.8-.86,17.64a.75.75,0,0,0,1.49,0Z" fill="#fff"/><path d="M163.71,108.91c.71,0,1.43,0,2.15-.08a.77.77,0,0,0,.52-.22.74.74,0,0,0,.22-.52.73.73,0,0,0-.22-.53.7.7,0,0,0-.52-.22,19.41,19.41,0,0,1-2.15.08.75.75,0,0,0-.75.74.77.77,0,0,0,.75.75Z" fill="#fff"/><path d="M178.57,102.26c.46-.25.94-.48,1.42-.69l-.18.08.42-.17a.87.87,0,0,0,.45-.35.75.75,0,0,0,.07-.57.81.81,0,0,0-.34-.45.76.76,0,0,0-.57-.07,18.46,18.46,0,0,0-2,.93.75.75,0,1,0,.75,1.29Z" fill="#fff"/><path d="M179.67,100.29a4.12,4.12,0,0,0-2.81-1.68,3.69,3.69,0,0,0-3,1.66,13.26,13.26,0,0,0-1.55,3.58,16.77,16.77,0,0,0-.91,4.07,12.8,12.8,0,0,0,2,8c1.2,1.75,3.8,3.68,6,2.52,1.23-.64,1.45-2.06,1.63-3.3a33.55,33.55,0,0,0,.3-5.11.75.75,0,0,0-1.49,0,29.74,29.74,0,0,1-.19,4.22c-.11,1-.12,2.89-1.48,3-2.75.22-4.34-3.12-4.92-5.29a13.11,13.11,0,0,1,.49-7.71,9.37,9.37,0,0,1,1.57-3.42c1.18-1.25,2.37-.56,3.32.51.63.72,1.68-.34,1-1Z" fill="#fff"/><path d="M178.5,110.76c1.42-.33,2.85-.61,4.29-.83a.76.76,0,0,0,.52-.92.78.78,0,0,0-.92-.52c-1.44.23-2.87.5-4.28.83a.76.76,0,0,0-.52.92.77.77,0,0,0,.91.52Z" fill="#fff"/><path d="M189.27,99a3.15,3.15,0,0,0-.36.37,3.6,3.6,0,0,0-.39.57.49.49,0,0,0-.09.28.51.51,0,0,0,0,.3.55.55,0,0,0,.13.25.63.63,0,0,0,.21.19.78.78,0,0,0,.58.08.75.75,0,0,0,.44-.34,2.59,2.59,0,0,1,.25-.39l-.11.15a2.46,2.46,0,0,1,.38-.41.54.54,0,0,0,.16-.24.68.68,0,0,0,.06-.29.64.64,0,0,0-.06-.28.45.45,0,0,0-.16-.24.74.74,0,0,0-.52-.22l-.2,0a.7.7,0,0,0-.33.2Z" fill="#fff"/><path d="M189.77,99.09c-.87-.87-2-1.82-3.33-1.52a3.12,3.12,0,0,0-2.15,2.29,3.58,3.58,0,0,0,.44,3.47c1,1.07,2.39,1.12,3.71,1.35a3.39,3.39,0,0,1,2.8,2.73,13,13,0,0,1,.73,4.49,3.34,3.34,0,0,1-2.68,3.27c-.95.24-1.65.34-2.36-.43a4,4,0,0,1-1-2.16c-.11-.94-1.6-1-1.49,0a5.55,5.55,0,0,0,1.89,3.62c1.16,1,2.75.68,4.08.2,3.08-1.13,3.36-4.43,2.81-7.24s-1.4-5.45-4.5-5.94a8.34,8.34,0,0,1-2.27-.47,1.63,1.63,0,0,1-.81-2c.11-.59.38-1.43,1-1.66.81-.3,1.61.58,2.11,1.09a.75.75,0,0,0,1.05-1.06Z" fill="#fff"/><path d="M184.14,113.27a6.54,6.54,0,0,0,1.69-.36.74.74,0,0,0,.44-.34.72.72,0,0,0,.08-.57.77.77,0,0,0-.34-.45.74.74,0,0,0-.58-.07,6.11,6.11,0,0,1-1.26.31l.19,0-.22,0a.46.46,0,0,0-.28.06.49.49,0,0,0-.24.15.75.75,0,0,0-.22.53.77.77,0,0,0,.22.53.72.72,0,0,0,.52.21Z" fill="#fff"/></svg>