<svg xmlns="http://www.w3.org/2000/svg" width="250" height="58" viewBox="0 0 250 58"><polygon points="1 2.54 4.4 57.43 248.98 53.42 249 0.57 1 2.54" fill="none" stroke="#fff" stroke-miterlimit="10" stroke-width="1.13"/><path d="M75.17,13.86a59.82,59.82,0,0,1,4,20.9c.1,11.71,0,15.58,0,15.58l9.54-3.43S82.7,37.64,83.89,23c0,0,6.66,2.66,6.66-5.56,0-5.57-4-7.28-6-4.66-.86,1.14-1.22,2.79-1.81,3.83a4,4,0,0,1-1.42,1.49s-1.89-2.38-.2-6.85Z" fill="#fff"/><path d="M101.09,16.09s4.17,8.14,4.67,16.08a134.45,134.45,0,0,1,0,15.39L112,46.07s-3.38-11.83-.69-12.73,3.77,13,3.77,13l5.57-2.19s-5.57-12.63-1.79-13,4.37,13.69,4.37,13.69l6.17-2.55s-4.28-26.94-10-27.64-3.38,11-3.38,11-2-9.56-4.57-9.6-4.08,6.08-4.08,6.08-1.39-5.29-.6-7.54Z" fill="#fff"/><path d="M217.33,13.69l5.37-3.58V20.6l7.15-10.49h8.94L224.84,25.43l11.93,7.93L233.43,41l-10.38-9.56.12,8.07h-5.84S219.12,22.51,217.33,13.69Z" fill="#fff"/><path d="M215.54,4.86s-3.93,30.41-3.81,38.28l12-1.67V48l-18.54,2.73s3.75-35.06,1.61-41.5Z" fill="#fff"/><path d="M197.06,18.34c-4.77-.12-11.09,4.41-13.12,12.28S184.78,44,190.74,46s12.76-3.44,13.95-10.47S205.76,18.55,197.06,18.34Zm3,16.33c-.6,2.39-2.5,6.08-7.51,4.41s-4.89-10.37.83-12.64C199.6,24,200.64,32.29,200,34.67Z" fill="#fff"/><polygon points="166.18 13.09 171.78 47.19 178.58 45.05 174.64 28.52 183.11 25.79 183.11 18.22 172.97 22.39 172.62 15.76 187.64 10.35 187.04 3.67 166.18 13.09" fill="#fff"/><path d="M148.6,33.05s1.2-14.83-7.25-17S127.43,22,125.74,29.67s1.29,14.84,9.15,15.17,11.23-8.51,11.23-8.51l-5.37-1s-.89,4-6,3.68-2.39-10.74-2.39-10.74Zm-8.55-10.88c2.89,1.23,2.59,5.22,2.59,5.22l-8.15-2.33S137.17,20.93,140.05,22.17Z" fill="#fff"/><path d="M102.78,34.14s.3-15.71-5-16.6S88,24.4,87.27,29.17s-.1,13.52,5.77,15,8.74,0,8.74,0l.3-6.66S100.59,40.3,96,38s-3.28-8.16-3.28-8.16ZM92.34,25.19s1.19-2.88,4-2S99,27.39,99,27.39Z" fill="#fff"/><path d="M65.9,16.15c-4.08.39-10.44,9-10.44,9v6.17l4.27-2.49.7,24.55L68.18,51,64.41,37.42s10.23-4.37,10.73-12.23S70,15.75,65.9,16.15Zm-1.39,16L62.62,24.6s5.46-5.47,7.05,0C70.87,28.7,64.51,32.17,64.51,32.17Z" fill="#fff"/><path d="M40.25,22.11l6.56-4.17S46.21,38.12,51,37.62,49.4,19,49.4,19l5.26-2.88s6.09,30.66-3.18,32C43.83,49.26,40.25,22.11,40.25,22.11Z" fill="#fff"/><path d="M38.36,9.19,35,18.33s-6.86-6-9.44-2.78,7.06,9.84,10.73,12.33S45.12,37.92,40,45s-14.61,3.68-20.28,1.94a45.23,45.23,0,0,1-8-3L18,35.13S28.22,46.66,33.59,40.3s-7.88-11-15-16.86.43-17.93,9-17.93A16.8,16.8,0,0,1,38.36,9.19Z" fill="#fff"/></svg>