<svg xmlns="http://www.w3.org/2000/svg" viewBox="0 0 210 148"><path d="M102.81 0c1.17 0 2.08.04 2.78.07.15.04.22.07.26.15.66 3.73 3.18 16.12 4.28 21.21.04.15.18.4.29.44l.91.33c.15.04.22.22.22.4 0 .04-.04.07-.11.07-1.1-.04-2.12-.07-3.18-.07-1.35 0-2.49.04-3.77.07-.07 0-.07-.04-.07-.07 0-.11.04-.37.15-.4l1.39-.33c.22-.04.29-.26.22-.55-.37-1.32-1.32-4.79-1.75-6.51-1.13 0-4.31.15-5.19.26-.11 0-.22.11-.26.29-.22 1.65-.66 4.42-.8 5.74-.07.62.07.73.33.8l1.1.29c.15.04.22.22.22.4 0 .07-.04.07-.11.07-.95-.04-1.75-.07-2.63-.07s-1.68.04-2.45.07c-.07 0-.07-.04-.07-.07 0-.07.04-.37.15-.4l.62-.22c.33-.11.48-.15.62-.73 1.24-4.53 3.95-15.57 5.12-20.04.22-.88.8-1.21 1.72-1.21h.04zm-1.25 3.03c-.11.37-.18.66-.22.91-.66 3.11-1.54 7.2-2.05 9.62 0 .11.07.22.15.26.91.11 3.95.33 4.83.33-.37-1.57-1.57-6.43-2.34-10.16-.07-.29-.11-.55-.26-.95h-.11zM103.57 83.49c0 .11-.29.26-.4.26-.04 0-.07 0-.11-.07l-1.54-3.66c-.15-.37-.26-.48-.58-.55-.4-.11-2.16-.26-2.63-.26-.11 1.75-.26 7.82-.29 10.6-.04 1.9-.18 9.4-.18 10.13 0 .37.11.44.37.51l1.32.33c.07 0 .15.15.15.37 0 .07-.04.11-.07.11-.77-.04-2.3-.07-3.91-.07-1.46 0-2.82.04-3.44.07-.07 0-.07-.04-.07-.07 0-.11.04-.37.15-.4l1.32-.4c.26-.04.29-.11.29-.51.04-1.21-.11-9.1-.15-10.53-.04-1.54-.15-7.9-.22-10.13-.37 0-1.86.11-2.45.22-.33.07-.48.11-.62.44l-1.72 3.73c-.04.07-.07.07-.11.07-.11 0-.37-.07-.37-.18l.26-4.83c0-.18.04-.26.26-.26.59 0 2.56.22 7.13.22 3.91 0 6.69-.22 7.2-.22.26 0 .29.07.29.29l.15 4.79zM109.13 101.48c-3.62 0-5.81-3.36-5.81-7.68 0-4.94 2.27-9.54 7.31-9.54 4.02 0 6.22 3.29 6.22 7.57 0 4.68-2.05 9.65-7.68 9.65h-.04zm1.1-.7c2.19 0 2.23-4.2 2.23-8.26s-.69-7.57-2.3-7.57c-2.12 0-2.45 3.99-2.45 8.3 0 3.77.84 7.53 2.49 7.53h.04zM6.73 52.25c0-7.45 2.43-12.37 5.76-15.15 1.99-1.74 4.52-2.73 7.25-2.73 1.19 0 2.43.1 3.38.55.2.05.25.2.3.45l.7 6.31c.05.2-.5.45-.7.45-.05 0-.1-.05-.15-.1-.84-1.84-1.69-3.72-2.53-5.56-.1-.3-.3-.6-.5-.79s-.55-.35-.94-.35c-1.34 0-2.38 1.04-3.28 2.38-1.99 3.03-3.03 7.35-3.03 13.81 0 9.44 3.72 12.22 6.11 12.22 1.09 0 2.09-.15 2.63-.3.55-.15 1.94-.7 2.53-1.04.1-.05.25.25.25.6 0 .1-.05.2-.15.3-.7.5-2.09 1.29-3.58 1.94-.6.25-1.89.55-3.63.55-5.51 0-10.43-3.87-10.43-13.46v-.05zM36.77 34.77c.1 0 .1.05.1.1 0 .15-.05.6-.2.65l-1.09.3c-.4.1-.6.3-.6.55-.2 3.33-.4 10.83-.4 11.87 0 .45.15.6.5.65 1.54.15 4.57.25 7.05.25.1-1.64-.1-11.77-.1-12.37s-.1-.84-.55-.94l-1.24-.3c-.15-.05-.25-.3-.25-.65 0-.05 0-.1.1-.1h10.08c.1 0 .1.05.1.1 0 .2-.05.6-.2.65l-1.14.3c-.3.05-.45.2-.5.7-.15 1.74-.6 10.28-.65 13.41-.05 2.53-.3 12.76-.3 13.56 0 .45.1.7.35.79l1.74.6c.1.05.15.25.15.5 0 .05 0 .1-.1.1-.45 0-2.28-.1-4.37-.1-2.23 0-4.32.05-5.02.1-.15 0-.15-.05-.15-.1 0-.3.1-.45.25-.5l1.44-.6c.3-.1.4-.2.4-.6.1-1.24 0-12.51-.05-13.66-2.73.1-6.01.4-7.05.5-.45.05-.6.2-.6.55-.1 2.09-.2 11.47-.15 12.76 0 .3.15.5.5.6l1.29.45c.2.05.3.25.3.45 0 .1 0 .15-.1.15-.74-.05-2.58-.1-4.67-.1s-3.77.05-4.67.1c-.1 0-.1-.05-.1-.15 0-.2.05-.4.15-.45l1.54-.55c.35-.1.4-.2.4-.74 0-1.64-.1-11.22-.1-13.11s-.2-12.56-.25-13.76c0-.55-.15-.79-.5-.84l-1.44-.35c-.15-.05-.2-.45-.2-.65 0-.05 0-.1.15-.1h10.13zM72.62 42.57c0 3.38-2.23 5.96-4.82 7.5 1.44 2.53 4.12 8.74 5.81 13.46.15.4.4.65.7.79l1.29.45c.25.1.3.4.3.6 0 .05 0 .1-.1.1-.84-.05-2.38-.1-4.12-.1-1.59 0-3.13.05-4.57.1-.1 0-.15-.05-.15-.15 0-.25.05-.45.2-.5l1.44-.4c.35-.1.55-.3.3-.74-1.64-3.28-4.12-8.04-6.36-11.22-.1-.15-.2-.25-.35-.25-.15.05-.89 0-1.14 0-.1 2.53-.25 9.73-.25 11.27 0 .55.15.7.5.79l1.64.55c.15.05.2.3.2.55 0 .05-.05.15-.15.1-.94-.05-2.63-.1-4.62-.1-1.84 0-3.53.1-4.52.1-.15 0-.15-.05-.15-.15 0-.2.05-.45.25-.5l1.34-.45c.35-.1.45-.35.45-.65 0-2.09-.15-11.47-.15-14 0-2.04-.1-11.77-.2-12.81-.05-.55-.2-.84-.55-.89l-1.39-.25c-.2-.05-.3-.4-.3-.6 0-.05 0-.1.15-.1 2.14-.2 6.11-.45 9.44-.45 6.85 0 9.88 2.93 9.88 7.9v.05zm-10.77 8.79c1.69 0 4.82-2.28 4.82-8.19 0-4.32-1.99-7.8-4.22-7.8-.55 0-.89.15-.89.55-.2 3.87-.55 13.95-.55 14.85-.05.55.1.6.79.6h.05zM86.92 34.77c.1 0 .1.05.1.1 0 .2-.05.6-.25.65l-1.29.3c-.4.05-.55.45-.55.7-.25 3.18-.4 12.32-.4 14.6-.05 1.34-.25 11.87-.25 12.71 0 .3.2.45.55.55l1.39.45c.15.05.2.35.2.5 0 .1 0 .15-.1.15-.75 0-2.53-.1-4.57-.1s-3.97.05-4.97.1c-.1 0-.1-.05-.1-.1 0-.15.05-.5.2-.55l1.69-.5c.35-.1.4-.2.4-.55.05-1.84-.15-11.77-.2-13.66-.05-3.38-.2-12.66-.25-13.26-.05-.55-.15-.94-.7-1.04l-1.24-.3c-.15-.05-.25-.2-.25-.6 0-.1 0-.15.1-.15h10.48zM105.5 56.62c0 4.92-3.82 9.14-11.42 9.14-1.04 0-2.73-.1-3.53-.4a.488.488 0 0 1-.35-.4l-.75-6.11c-.05-.2.4-.45.65-.45.05 0 .1 0 .15.05.79 1.69 1.59 3.33 2.53 4.87.2.4.35.6.79.84.5.3 1.29.4 2.43.4 1.99 0 5.07-1.49 5.07-4.72s-2.28-5.26-5.96-7.85c-3.53-2.48-5.26-5.11-5.26-8.29 0-4.57 4.47-9.34 10.73-9.34 1.44 0 2.88.2 3.53.55.15.1.2.15.25.45l.45 6.01c0 .1-.35.4-.55.4-.05 0-.1 0-.15-.1-.74-1.64-1.54-3.33-2.38-4.97-.15-.25-.35-.45-.7-.7-.55-.3-1.09-.45-1.84-.45-2.73 0-4.42 2.38-4.42 4.97 0 2.78 1.39 4.27 4.87 7.1 3.18 2.63 5.86 5.36 5.86 8.94v.05zM128.39 41.33c0 .15-.4.35-.55.35-.05 0-.1 0-.15-.1l-2.09-4.97c-.2-.5-.35-.65-.79-.74-.55-.15-2.93-.35-3.58-.35-.15 2.38-.35 10.63-.4 14.4-.05 2.58-.25 12.76-.25 13.76 0 .5.15.6.5.7l1.79.45c.1 0 .2.2.2.5 0 .1-.05.15-.1.15-1.04-.05-3.13-.1-5.31-.1-1.99 0-3.82.05-4.67.1-.1 0-.1-.05-.1-.1 0-.15.05-.5.2-.55l1.79-.55c.35-.05.4-.15.4-.7.05-1.64-.15-12.37-.2-14.3-.05-2.09-.2-10.73-.3-13.76-.5 0-2.53.15-3.33.3-.45.1-.65.15-.84.6l-2.33 5.07c-.05.1-.1.1-.15.1-.15 0-.5-.1-.5-.25l.35-6.56c0-.25.05-.35.35-.35.79 0 3.48.3 9.68.3 5.31 0 9.09-.3 9.78-.3.35 0 .4.1.4.4l.2 6.51zM159.72 34.77c.1 0 .15.05.15.15 0 .2-.1.55-.25.6l-1.14.3c-.55.15-.65.65-.7 1.19-.05 1.54.05 11.12.05 13.01s0 10.88.05 13.56c0 .55.1.74.45.84l1.24.45c.1.05.15.45.15.55 0 .05-.05.05-.1.05-.65-.05-2.19-.1-4.07-.1-2.04 0-3.92.05-4.67.1-.15 0-.15-.05-.15-.15 0-.2.1-.45.25-.5l1.64-.4c.35-.1.45-.45.45-.79-.15-4.87-.89-15.84-1.04-20.06 0-.55-.05-1.14 0-1.64h-.4c-.2.65-.35 1.19-.5 1.59-1.59 5.21-4.92 16.14-6.6 20.66-.25.65-.4.74-1.34.79-.4.05-.74.05-1.09.05-.15 0-.25-.1-.3-.25-1.74-4.87-5.26-14.9-6.7-19.86-.1-.4-.35-.94-.45-1.44h-.25c0 .45-.1 1.14-.15 1.44-.35 3.92-1.44 16.29-1.64 18.82 0 .5.1.74.45.79l1.59.3c.1 0 .2.35.2.5 0 .1 0 .15-.15.15-.84-.05-1.69-.1-2.78-.1-.84 0-1.84.05-2.48.1-.1 0-.1-.05-.1-.1 0-.2.1-.55.25-.55l1.14-.25c.35-.05.45-.2.45-.74.05-2.53.3-11.87.4-13.76.1-1.84.4-11.97.4-13.46 0-.35-.15-.55-.7-.7l-1.19-.4c-.2-.05-.25-.4-.25-.6 0-.1.05-.15.15-.15h7.95c.2 0 .3.15.35.3.84 2.98 5.02 17.88 6.06 21.75.15.45.3.99.6 1.89h.3c.3-.84.45-1.59.6-2.04 1.34-4.27 4.37-16.04 5.96-21.65.05-.15.1-.25.25-.25h7.7zM171.74 34.67c1.59 0 2.83.05 3.77.1.2.05.3.1.35.2.89 5.07 4.32 21.9 5.81 28.8.05.2.25.55.4.6l1.24.45c.2.05.3.3.3.55 0 .05-.05.1-.15.1-1.49-.05-2.88-.1-4.32-.1-1.84 0-3.38.05-5.12.1-.1 0-.1-.05-.1-.1 0-.15.05-.5.2-.55l1.89-.45c.3-.05.4-.35.3-.74-.5-1.79-1.79-6.51-2.38-8.84-1.54 0-5.86.2-7.05.35-.15 0-.3.15-.35.4-.3 2.23-.89 6.01-1.09 7.8-.1.84.1.99.45 1.09l1.49.4c.2.05.3.3.3.55 0 .1-.05.1-.15.1-1.29-.05-2.38-.1-3.58-.1s-2.28.05-3.33.1c-.1 0-.1-.05-.1-.1 0-.1.05-.5.2-.55l.84-.3c.45-.15.65-.2.84-.99 1.69-6.16 5.36-21.16 6.95-27.21.3-1.19 1.09-1.64 2.33-1.64h.05zm-1.69 4.12c-.15.5-.25.89-.3 1.24-.89 4.22-2.09 9.78-2.78 13.06 0 .15.1.3.2.35 1.24.15 5.36.45 6.56.45-.5-2.14-2.14-8.74-3.18-13.81-.1-.4-.15-.74-.35-1.29h-.15zM201.33 56.62c0 4.92-3.82 9.14-11.42 9.14-1.04 0-2.73-.1-3.53-.4a.488.488 0 0 1-.35-.4l-.75-6.11c-.05-.2.4-.45.65-.45.05 0 .1 0 .15.05.79 1.69 1.59 3.33 2.53 4.87.2.4.35.6.79.84.5.3 1.29.4 2.43.4 1.99 0 5.07-1.49 5.07-4.72s-2.28-5.26-5.96-7.85c-3.53-2.48-5.26-5.11-5.26-8.29 0-4.57 4.47-9.34 10.73-9.34 1.44 0 2.88.2 3.53.55.15.1.2.15.25.45l.45 6.01c0 .1-.35.4-.55.4-.05 0-.1 0-.15-.1-.74-1.64-1.54-3.33-2.38-4.97-.15-.25-.35-.45-.7-.7-.55-.3-1.09-.45-1.84-.45-2.73 0-4.42 2.38-4.42 4.97 0 2.78 1.39 4.27 4.87 7.1 3.18 2.63 5.86 5.36 5.86 8.94v.05zM.25 117.91c-.15 0-.25-.3-.25-.5 0-.05 0-.15.1-.15 1.99-.3 5.91-.65 9.48-.65 7.55 0 12.56 4.67 12.56 14s-4.52 17.08-13.06 17.08c-1.04 0-3.13-.1-4.27-.1-1.29 0-3.18.05-4.07.1-.15 0-.15-.05-.15-.1 0-.25.1-.5.2-.55l1.54-.45c.35-.1.45-.25.5-.79.05-1.64-.1-12.46-.1-14.4s-.15-10.78-.2-12.41c0-.55-.1-.74-.6-.84l-1.69-.25zm8.79 28.91c2.98 0 7.05-3.23 7.05-15.84 0-8.54-3.38-13.46-6.16-13.46-.65 0-.84.25-.89.99-.2 3.28-.79 26.97-.79 27.71 0 .55.2.6.74.6h.05zM35.26 117.02c.1 0 .1.05.1.1 0 .2-.05.6-.25.65l-1.29.3c-.4.05-.55.45-.55.7-.25 3.18-.4 12.32-.4 14.6-.05 1.34-.25 11.87-.25 12.71 0 .3.2.45.55.55l1.39.45c.15.05.2.35.2.5 0 .1 0 .15-.1.15-.75 0-2.53-.1-4.57-.1s-3.97.05-4.97.1c-.1 0-.1-.05-.1-.1 0-.15.05-.5.2-.55l1.69-.5c.35-.1.4-.2.4-.55.05-1.84-.15-11.77-.2-13.66-.05-3.38-.2-12.66-.25-13.26-.05-.55-.15-.94-.7-1.04l-1.24-.3c-.15-.05-.25-.2-.25-.6 0-.1 0-.15.1-.15h10.48zM53.83 138.87c0 4.92-3.82 9.14-11.42 9.14-1.04 0-2.73-.1-3.53-.4a.488.488 0 0 1-.35-.4l-.74-6.11c-.05-.2.4-.45.65-.45.05 0 .1 0 .15.05.79 1.69 1.59 3.33 2.53 4.87.2.4.35.6.79.84.5.3 1.29.4 2.43.4 1.99 0 5.07-1.49 5.07-4.72s-2.28-5.26-5.96-7.85c-3.53-2.48-5.26-5.11-5.26-8.29 0-4.57 4.47-9.34 10.73-9.34 1.44 0 2.88.2 3.53.55.15.1.2.15.25.45l.45 6.01c0 .1-.35.4-.55.4-.05 0-.1 0-.15-.1-.74-1.64-1.54-3.33-2.38-4.97-.15-.25-.35-.45-.7-.7-.55-.3-1.09-.45-1.84-.45-2.73 0-4.42 2.38-4.42 4.97 0 2.78 1.39 4.27 4.87 7.1 3.18 2.63 5.86 5.36 5.86 8.94v.05zM86.36 117.02c.1 0 .15.05.15.15 0 .2-.1.55-.25.6l-1.14.3c-.55.15-.65.65-.7 1.19-.05 1.54.05 11.12.05 13.01s0 10.88.05 13.56c0 .55.1.74.45.84l1.24.45c.1.05.15.45.15.55 0 .05-.05.05-.1.05-.65-.05-2.19-.1-4.07-.1-2.04 0-3.92.05-4.67.1-.15 0-.15-.05-.15-.15 0-.2.1-.45.25-.5l1.64-.4c.35-.1.45-.45.45-.79-.15-4.87-.89-15.84-1.04-20.06 0-.55-.05-1.14 0-1.64h-.4c-.2.65-.35 1.19-.5 1.59-1.59 5.21-4.92 16.14-6.6 20.66-.25.65-.4.74-1.34.79-.4.05-.74.05-1.09.05-.15 0-.25-.1-.3-.25-1.74-4.87-5.26-14.9-6.7-19.86-.1-.4-.35-.94-.45-1.44h-.25c0 .45-.1 1.14-.15 1.44-.35 3.92-1.44 16.29-1.64 18.82 0 .5.1.74.45.79l1.59.3c.1 0 .2.35.2.5 0 .1 0 .15-.15.15-.84-.05-1.69-.1-2.78-.1-.84 0-1.84.05-2.48.1-.1 0-.1-.05-.1-.1 0-.2.1-.55.25-.55l1.14-.25c.35-.05.45-.2.45-.74.05-2.53.3-11.87.4-13.76.1-1.84.4-11.97.4-13.46 0-.35-.15-.55-.7-.7l-1.19-.4c-.2-.05-.25-.4-.25-.6 0-.1.05-.15.15-.15h7.95c.2 0 .3.15.35.3.84 2.98 5.02 17.88 6.06 21.75.15.45.3.99.6 1.89h.3c.3-.84.45-1.59.6-2.04 1.34-4.27 4.37-16.04 5.96-21.65.05-.15.1-.25.25-.25h7.7zM107.16 147.56c-.05.15-.15.25-.4.25-.2 0-1.09-.05-2.98-.1a319 319 0 0 0-8.64-.1c-1.84 0-3.68.05-5.16.1-.15 0-.15-.05-.15-.1 0-.2.05-.5.25-.55l1.59-.45c.35-.1.55-.25.55-.79.05-1.34 0-12.32-.05-14.2-.05-1.89-.1-10.83-.25-12.66-.05-.55-.15-.79-.55-.89l-1.44-.35c-.15 0-.2-.3-.2-.55 0-.1 0-.15.1-.15h4.62c4.17 0 7.15-.05 9.14-.1 1.99 0 2.98-.05 3.18-.05.25 0 .3.2.3.45l.15 5.51c0 .15-.4.4-.55.4-.05 0-.1 0-.15-.1-.55-1.44-1.19-2.78-1.84-4.22-.2-.4-.5-.5-.89-.6-.74-.15-4.27-.5-4.97-.45-.4.05-.45.2-.45.45-.25 3.48-.45 11.32-.45 12.66 1.74.1 6.36.3 7.7.3.1 0 .1.05.1.1 0 .35-.25.79-.35.79-1.89.2-4.87.35-6.9.5-.45.05-.6.15-.6.4-.05 1.44-.25 11.37-.25 12.81 0 .5.1.74.45.74 1.64 0 4.47-.2 6.16-.55.5-.1.84-.4 1.09-.79.84-1.19 1.64-2.48 2.33-3.67.05-.1.1-.1.15-.1.15 0 .5.3.45.5l-1.09 5.56zM140.63 117.02c.1 0 .15.05.15.15 0 .2-.1.55-.25.6l-1.14.3c-.55.15-.65.65-.7 1.19-.05 1.54.05 11.12.05 13.01s0 10.88.05 13.56c0 .55.1.74.45.84l1.24.45c.1.05.15.45.15.55 0 .05-.05.05-.1.05-.65-.05-2.19-.1-4.07-.1-2.04 0-3.92.05-4.67.1-.15 0-.15-.05-.15-.15 0-.2.1-.45.25-.5l1.64-.4c.35-.1.45-.45.45-.79-.15-4.87-.89-15.84-1.04-20.06 0-.55-.05-1.14 0-1.64h-.4c-.2.65-.35 1.19-.5 1.59-1.59 5.21-4.92 16.14-6.6 20.66-.25.65-.4.74-1.34.79-.4.05-.74.05-1.09.05-.15 0-.25-.1-.3-.25-1.74-4.87-5.26-14.9-6.7-19.86-.1-.4-.35-.94-.45-1.44h-.25c0 .45-.1 1.14-.15 1.44-.35 3.92-1.44 16.29-1.64 18.82 0 .5.1.74.45.79l1.59.3c.1 0 .2.35.2.5 0 .1 0 .15-.15.15-.84-.05-1.69-.1-2.78-.1-.84 0-1.84.05-2.48.1-.1 0-.1-.05-.1-.1 0-.2.1-.55.25-.55l1.14-.25c.35-.05.45-.2.45-.74.05-2.53.3-11.87.4-13.76.1-1.84.4-11.97.4-13.46 0-.35-.15-.55-.7-.7l-1.19-.4c-.2-.05-.25-.4-.25-.6 0-.1.05-.15.15-.15h7.95c.2 0 .3.15.35.3.84 2.98 5.02 17.88 6.06 21.75.15.45.3.99.6 1.89h.3c.3-.84.45-1.59.6-2.04 1.34-4.27 4.37-16.04 5.96-21.65.05-.15.1-.25.25-.25h7.7zM156.92 131.17c.35.05.6.1.7.1 3.67.55 6.75 3.92 6.75 7.7 0 6.26-5.66 8.69-13.16 8.69-.6 0-2.09-.05-2.73-.05-1.19 0-2.53.1-4.17.1-.15 0-.15-.05-.15-.1 0-.2.05-.5.25-.55l1.54-.45c.35-.1.5-.25.5-.79.05-1.64 0-12.12 0-14 0-2.09 0-10.88-.05-12.81 0-.55-.15-.79-.7-.79l-1.54-.15c-.25 0-.35-.35-.35-.6 0-.05.05-.1.2-.1 2.48-.35 6.65-.6 9.09-.6 6.56 0 9.93 2.43 9.93 6.9 0 3.38-2.88 6.11-5.36 7-.2.05-.5.2-.75.3v.2zm1.49 8.2c0-4.52-3.48-7.3-5.81-7.3-.3 0-.6 0-.79.1-.1 2.43-.3 12.51-.3 14.1 0 .3.3.45.89.45 1.89 0 6.01-1.34 6.01-7.3v-.05zm-5.22-21.7c-.5 0-.75.15-.75.55-.25 3.43-.65 11.42-.6 12.81.15.15.65.15.89.15 2.09 0 4.62-2.78 4.62-6.7 0-5.16-2.53-6.8-4.12-6.8h-.05zM184.48 147.56c-.05.15-.15.25-.4.25-.2 0-1.09-.05-2.98-.1a319 319 0 0 0-8.64-.1c-1.84 0-3.68.05-5.16.1-.15 0-.15-.05-.15-.1 0-.2.05-.5.25-.55l1.59-.45c.35-.1.55-.25.55-.79.05-1.34 0-12.32-.05-14.2-.05-1.89-.1-10.83-.25-12.66-.05-.55-.15-.79-.55-.89l-1.44-.35c-.15 0-.2-.3-.2-.55 0-.1 0-.15.1-.15h4.62c4.17 0 7.15-.05 9.14-.1 1.99 0 2.98-.05 3.18-.05.25 0 .3.2.3.45l.15 5.51c0 .15-.4.4-.55.4-.05 0-.1 0-.15-.1-.55-1.44-1.19-2.78-1.84-4.22-.2-.4-.5-.5-.89-.6-.74-.15-4.27-.5-4.97-.45-.4.05-.45.2-.45.45-.25 3.48-.45 11.32-.45 12.66 1.74.1 6.36.3 7.7.3.1 0 .1.05.1.1 0 .35-.25.79-.35.79-1.89.2-4.87.35-6.9.5-.45.05-.6.15-.6.4-.05 1.44-.25 11.37-.25 12.81 0 .5.1.74.45.74 1.64 0 4.47-.2 6.16-.55.5-.1.84-.4 1.09-.79.84-1.19 1.64-2.48 2.33-3.67.05-.1.1-.1.15-.1.15 0 .5.3.45.5l-1.09 5.56zM206.72 124.82c0 3.38-2.23 5.96-4.82 7.5 1.44 2.53 4.12 8.74 5.81 13.46.15.4.4.65.7.79l1.29.45c.25.1.3.4.3.6 0 .05 0 .1-.1.1-.84-.05-2.38-.1-4.12-.1-1.59 0-3.13.05-4.57.1-.1 0-.15-.05-.15-.15 0-.25.05-.45.2-.5l1.44-.4c.35-.1.55-.3.3-.74-1.64-3.28-4.12-8.04-6.36-11.22-.1-.15-.2-.25-.35-.25-.15.05-.89 0-1.14 0-.1 2.53-.25 9.73-.25 11.27 0 .55.15.7.5.79l1.64.55c.15.05.2.3.2.55 0 .05-.05.15-.15.1-.94-.05-2.63-.1-4.62-.1-1.84 0-3.53.1-4.52.1-.15 0-.15-.05-.15-.15 0-.2.05-.45.25-.5l1.34-.45c.35-.1.45-.35.45-.65 0-2.09-.15-11.47-.15-14 0-2.04-.1-11.77-.2-12.81-.05-.55-.2-.84-.55-.89l-1.39-.25c-.2-.05-.3-.4-.3-.6 0-.05 0-.1.15-.1 2.14-.2 6.11-.45 9.44-.45 6.85 0 9.88 2.93 9.88 7.9v.05zm-10.77 8.79c1.69 0 4.82-2.28 4.82-8.19 0-4.32-1.99-7.8-4.22-7.8-.55 0-.89.15-.89.55-.2 3.87-.55 13.95-.55 14.85-.05.55.1.6.79.6h.05z" fill="#fff" stroke-width="0"/></svg>