<svg xmlns="http://www.w3.org/2000/svg" viewBox="0 0 200 123"><path d="M11.29 12.18v41.16c0 1.73 1.41 3.14 3.14 3.14h6.32c1.51 0 2.76-1.07 3.06-2.49 1.6-.14 2.85-1.49 2.85-3.12V11.6h7.37a2.39 2.39 0 0 0 2.39-2.39v-.08h.39a2.39 2.39 0 0 0 2.39-2.39V2.65A2.39 2.39 0 0 0 36.81.26H5.17a2.39 2.39 0 0 0-2.39 2.39v.08h-.39A2.39 2.39 0 0 0 0 5.12V9.2a2.39 2.39 0 0 0 2.39 2.39h8.31c.32 0 .58.27.58.58zM3.68 2.65c0-.82.67-1.49 1.49-1.49H36.8c.82 0 1.49.67 1.49 1.49v4.08c0 .82-.67 1.49-1.49 1.49h-9.56c-.82 0-1.49.67-1.49 1.49v41.16c0 1.23-1 2.23-2.23 2.23H17.2c-1.23 0-2.23-1-2.23-2.23V9.7c0-.82-.67-1.49-1.49-1.49H5.17c-.82 0-1.49-.67-1.49-1.49V2.65zM46.01 56.47h6.32c1.51 0 2.76-1.07 3.06-2.49 1.6-.14 2.85-1.49 2.85-3.12V3.14C58.24 1.41 56.83 0 55.1 0h-6.32c-1.51 0-2.77 1.07-3.07 2.49-1.59.15-2.85 1.49-2.85 3.12v47.73c0 1.73 1.41 3.14 3.14 3.14zm.54-53.33c0-1.23 1-2.23 2.23-2.23h6.32c1.23 0 2.23 1 2.23 2.23v47.72c0 1.23-1 2.23-2.23 2.23h-6.32c-1.23 0-2.23-1-2.23-2.23V3.14zM88.82 51.87l1.19-3.9 2.1-6.86v12.22c0 1.73 1.41 3.14 3.14 3.14h6.32c1.51 0 2.76-1.07 3.06-2.49 1.6-.14 2.85-1.49 2.85-3.12V3.14c0-1.73-1.41-3.14-3.14-3.14h-6.32c-1.47 0-2.75 1.06-3.06 2.5-1.38.13-2.55 1.17-2.8 2.56l-6.3 20.6-6.97-22.78C78.4 1.27 76.74.01 75.11.01h-6.32c-.6 0-1.15.17-1.59.5a2.4 2.4 0 0 0-1.34 1.99c-.54.03-1.04.19-1.44.49-.82.4-1.35 1.23-1.35 2.15V54.1a2.39 2.39 0 0 0 2.39 2.39h4.08a2.39 2.39 0 0 0 2.39-2.39v-.08h.39a2.39 2.39 0 0 0 2.39-2.39v-9.36l3.12 10.21.35 1.15c.49 1.61 2.15 2.87 3.78 2.87h1.26c1.21 0 2.44-.93 2.81-2.13l.11-.36c1.16-.07 2.32-.97 2.67-2.11zm-2.8 1.22h-1.26c-1.23 0-2.54-1-2.91-2.23l-.35-1.15-7.67-25.08V51.6c0 .82-.67 1.49-1.49 1.49h-4.08c-.82 0-1.49-.67-1.49-1.49V2.65c0-.62.38-1.15.92-1.37.28-.23.66-.37 1.11-.37h6.32c1.23 0 2.54 1 2.91 2.23l8.84 28.92L95.82 2.8a2.236 2.236 0 0 1 2.2-1.89h6.32c1.23 0 2.23 1 2.23 2.23v47.73c0 1.23-1 2.23-2.23 2.23h-6.32c-1.23 0-2.23-1-2.23-2.23V25.99l-6.64 21.73-1.19 3.9c-.25.82-1.12 1.49-1.94 1.49zM84.09 63.68h-4.08c-1.21 0-2.44.93-2.81 2.13l-.11.36c-1.16.07-2.32.97-2.67 2.11l-5.3 17.34-5.83-19.07c-.49-1.61-2.15-2.87-3.78-2.87h-6.32c-.86 0-1.61.36-2.08.99-.31.42-.47.94-.47 1.49h-.22c-.86 0-1.61.36-2.08.99-.48.65-.61 1.53-.34 2.41l10.97 35.87v13.61c0 1.73 1.41 3.14 3.14 3.14h6.32c1.51 0 2.76-1.07 3.06-2.49 1.6-.14 2.85-1.49 2.85-3.12v-12.13l11.65-38.1c.21-.68.11-1.36-.27-1.88-.37-.5-.96-.78-1.63-.78zm1.03 2.39L73.43 104.3v12.27c0 1.23-1 2.23-2.23 2.23h-6.32c-1.23 0-2.23-1-2.23-2.23v-13.75l-11.01-36c-.38-1.23.32-2.23 1.55-2.23h6.32c1.23 0 2.54 1 2.91 2.23l7.7 25.2 7.93-25.95c.25-.82 1.12-1.49 1.94-1.49h4.08c.82 0 1.28.67 1.03 1.49zM116 56.47h22.85a2.39 2.39 0 0 0 2.39-2.39V54h.39a2.39 2.39 0 0 0 2.39-2.39v-4.08a2.39 2.39 0 0 0-2.39-2.39h-13.07a.555.555 0 0 1-.32-.42v-9.24h6.62a2.39 2.39 0 0 0 2.39-2.39v-.08h.39a2.39 2.39 0 0 0 2.39-2.39v-4.08a2.39 2.39 0 0 0-2.39-2.39h-8.84a.56.56 0 0 1-.56-.48V11.35h10.62a2.39 2.39 0 0 0 2.39-2.39v-.08h.39a2.39 2.39 0 0 0 2.39-2.39v-4.1a2.405 2.405 0 0 0-2.4-2.39h-22.85c-1.51 0-2.77 1.07-3.07 2.49-1.59.15-2.85 1.49-2.85 3.12v47.72c0 1.73 1.41 3.14 3.14 3.14zm.55-53.33c0-1.23 1-2.23 2.23-2.23h22.85c.82 0 1.49.67 1.49 1.49v4.08c0 .82-.67 1.49-1.49 1.49H128.8c-.76 0-1.39.58-1.47 1.33v14.43c.08.74.71 1.33 1.47 1.33h8.84c.82 0 1.49.67 1.49 1.49v4.08c0 .82-.67 1.49-1.49 1.49h-8.84c-.76 0-1.39.58-1.47 1.33V44.8c.07.6.49 1.1 1.07 1.26h13.23c.82 0 1.49.67 1.49 1.49v4.08c0 .82-.67 1.49-1.49 1.49h-22.85c-1.23 0-2.23-1-2.23-2.23V3.14zM155.46 63.68h-22.85c-1.51 0-2.77 1.07-3.07 2.49a3.139 3.139 0 0 0-2.84 3.12v47.72c0 1.73 1.41 3.14 3.14 3.14h22.85a2.39 2.39 0 0 0 2.39-2.39v-.08h.39a2.39 2.39 0 0 0 2.39-2.39v-4.08a2.39 2.39 0 0 0-2.39-2.39H142.4a.573.573 0 0 1-.32-.42v-9.24h6.62a2.39 2.39 0 0 0 2.39-2.39v-.08h.39a2.39 2.39 0 0 0 2.39-2.39v-4.08a2.39 2.39 0 0 0-2.39-2.39h-8.84a.56.56 0 0 1-.56-.48V75.03h10.62a2.39 2.39 0 0 0 2.39-2.39v-.08h.39a2.39 2.39 0 0 0 2.39-2.39v-4.08a2.39 2.39 0 0 0-2.39-2.39zm1.49 6.47c0 .82-.67 1.49-1.49 1.49h-12.83c-.76 0-1.39.58-1.47 1.33V87.4c.08.74.71 1.33 1.47 1.33h8.84c.82 0 1.49.67 1.49 1.49v4.08c0 .82-.67 1.49-1.49 1.49h-8.84c-.76 0-1.39.58-1.47 1.33v11.35c.07.6.5 1.1 1.07 1.26h13.23c.82 0 1.49.67 1.49 1.49v4.08c0 .82-.67 1.49-1.49 1.49h-22.85c-1.23 0-2.23-1-2.23-2.23V66.84c0-1.23 1-2.23 2.23-2.23h22.85c.82 0 1.49.67 1.49 1.49v4.08zM115.31 63.68H94.45c-1.51 0-2.77 1.07-3.07 2.49a3.139 3.139 0 0 0-2.84 3.12v47.73c0 1.73 1.41 3.14 3.14 3.14h20.86c2.59 0 4.87-1.32 6.23-3.32a7.533 7.533 0 0 0 4.08-6.69V71.21c0-4.15-3.38-7.53-7.53-7.53zm6.63 46.46c0 3.64-2.98 6.63-6.63 6.63H94.45c-1.23 0-2.23-1-2.23-2.23V66.81c0-1.23 1-2.23 2.23-2.23h20.86c3.64 0 6.63 2.98 6.63 6.63v38.94z" fill="#fff"/><path d="M106.64 71.56h-3.61v38.16h3.61c2.48 0 4.51-2.03 4.51-4.51V76.07c0-2.48-2.03-4.51-4.51-4.51zm-2.7 37.25V74.94a3.61 3.61 0 0 1 3.53 3.6v29.14c0 .37-.06.73-.17 1.07-.21.04-.43.06-.66.06h-2.7zM28.59 70.51h-5.74v25.27h5.74c2.48 0 4.51-2.03 4.51-4.51V75.02c0-2.48-2.03-4.51-4.51-4.51zm-4.83 24.37V73.89h2.05c1.99 0 3.61 1.62 3.61 3.61v16.25c0 .37-.06.73-.17 1.07-.21.04-.43.06-.66.06h-4.83z" fill="#fff"/><path d="M38.63 63.68H14.3c-1.51 0-2.77 1.07-3.07 2.49-1.59.15-2.85 1.49-2.85 3.12v47.73c0 1.73 1.41 3.14 3.14 3.14h6.32c1.51 0 2.76-1.07 3.06-2.49 1.6-.14 2.85-1.49 2.85-3.12v-8.21h2.75l3.35 10.95c.49 1.61 2.15 2.87 3.78 2.87h6.32c.86 0 1.61-.36 2.08-.99.31-.42.46-.94.47-1.49h.23c.86 0 1.61-.36 2.08-.99.48-.65.61-1.53.34-2.41l-3.33-10.88c.1-.13.19-.26.28-.39a7.498 7.498 0 0 0 4.06-6.68V71.22c0-4.15-3.38-7.53-7.53-7.53zm6.63 32.64c0 2.95-1.95 5.46-4.62 6.31l3.64 11.91c.38 1.23-.32 2.23-1.55 2.23h-6.32c-1.23 0-2.54-1-2.91-2.23l-3.54-11.59h-7.1v11.59c0 1.23-1 2.23-2.23 2.23h-6.32c-1.23 0-2.23-1-2.23-2.23V66.81c0-1.23 1-2.23 2.23-2.23h24.34c3.64 0 6.63 2.98 6.63 6.63v25.11zM182.42 70.51h-5.74v25.27h5.74c2.48 0 4.51-2.03 4.51-4.51V75.02c0-2.48-2.03-4.51-4.51-4.51zm-4.83 24.37V73.89h2.05c1.99 0 3.61 1.62 3.61 3.61v16.25c0 .37-.06.73-.17 1.07-.21.04-.43.06-.66.06h-4.83z" fill="#fff"/><path d="M200 96.32V71.21c0-4.15-3.38-7.53-7.53-7.53h-24.34c-1.51 0-2.77 1.07-3.07 2.49a3.139 3.139 0 0 0-2.84 3.12v47.73c0 1.73 1.41 3.14 3.14 3.14h6.32c1.51 0 2.76-1.07 3.06-2.49 1.6-.14 2.85-1.49 2.85-3.12v-8.21h2.75l3.35 10.95c.49 1.61 2.15 2.87 3.78 2.87h6.32c.86 0 1.61-.36 2.08-.99.31-.42.46-.94.47-1.49h.23c.86 0 1.61-.36 2.08-.99.48-.65.61-1.53.34-2.41l-3.33-10.88c.1-.13.19-.26.28-.39a7.498 7.498 0 0 0 4.06-6.68zm-3.43 20.45h-6.32c-1.23 0-2.54-1-2.91-2.23l-3.54-11.59h-7.1v11.59c0 1.23-1 2.23-2.23 2.23h-6.32c-1.23 0-2.23-1-2.23-2.23V66.81c0-1.23 1-2.23 2.23-2.23h24.34c3.64 0 6.63 2.98 6.63 6.63v25.11c0 2.95-1.95 5.46-4.62 6.31l3.64 11.91c.38 1.23-.32 2.23-1.55 2.23z" fill="#fff"/></svg>