<svg xmlns="http://www.w3.org/2000/svg" width="200" height="144" viewBox="0 0 200 144"><path fill="#fff" d="M6.29 40.2l4.77-6.16H25.9l-3.62 5.13-2.72-.6v14.96l1.45 1.02-4.4 5.92-3.38-4.41 1.65-1.73-.87-15.74-4.16.16-3.56 1.45zM160.08 40.2l4.76-6.16h14.85l-3.63 5.13-2.71-.6v14.96l1.45 1.02-4.41 5.92-3.37-4.41 1.65-1.73-.87-15.74-4.16.16-3.56 1.45zM30.66 34.83l-5.12 5.07 1.69 1.2v13.27l-1.33 1.39 3.44 2.96 4.58-3.32-1.75-1.81V47.8h5.98v5.43l-1.21 2.17 2.71 2.84 4.05-4.11-1.21-1.14-.36-18.16-4.35 3.98.67 1.03v5.36h-6.4l-.06-8.93-1.33-1.44zM45.87 38.75l4.6-4.75s5.18-1.87 7.43 0l1.37 4.71L53 36l.29 8.74 3.13-1.37.2 3.91-3.72-.49.2 8.51s6.75-.29 8.8-2.84l-3.23 5.87H46.36l1.76-3.52-.59-15.26zM84.52 85.36l4.59-4.71s5.19-1.87 7.43 0l1.37 4.71-6.26-2.77.3 8.74L95.08 90l.19 3.9-3.71-.48.19 8.51s6.75-.3 8.8-2.84l-3.22 5.87H85l1.76-3.52-.58-15.26zM130 85.36l4.6-4.71s5.18-1.87 7.43 0l1.37 4.71-6.26-2.77.29 8.74 3.15-1.33.2 3.9-3.72-.48.2 8.51s6.75-.3 8.8-2.84l-3.23 5.87h-12.32l1.76-3.52-.59-15.26zM145.94 38.75l4.6-4.71s5.18-1.87 7.43 0l1.37 4.71-6.26-2.75.29 8.74 3.13-1.37.2 3.91-3.7-.51.2 8.51s6.75-.29 8.8-2.84l-3.23 5.87h-12.34l1.76-3.52-.59-15.26zM72.57 33.21L67.78 38l1.56 1.17v14.45l-1.56 1.56 2.39 3.13 3.18-2.93V43.64l5.09 9.78 5.77-7.66s-1.76 9.81 2.05 11.77l4.89-4.89-2.05-.29L88.51 34 80.1 44.23zM65.13 81.28L60.34 86l1.57 1.17v14.47l-1.57 1.57 2.4 3.13 3.18-2.94V91.71l5.08 9.78 5.77-7.66s-1.77 9.81 2.06 11.77l4.89-4.89-2.06-.3-.59-18.3-8.41 10.19zM92.38 37.47l5.76-4.26s-.45 12 0 16.55 3.08 5.11 4.81 4.81c0 0-1.36 2.93-5.67 2.78-4.9-.17-3.39-18.67-3.39-18.67zM104.47 38.37l4.95-5.16.24 18.36 1.74 1.56-6.16 4.6-.77-19.36zM121.43 32.57c-4.34-.65-8.42 4.07-8.42 4.07l1.14 1.13.23 15.36-1.38 1.19 1.67 4 5.74-5.12-1.26-.9-.06-6c2.87.77 6.34-.72 7.83-5.56s-1.24-7.53-5.49-8.17zM119 44.88V35s4.48.12 4.6 4.19-4.6 5.69-4.6 5.69zM138.19 32.57c-4.34-.65-8.42 4.07-8.42 4.07l1.13 1.13.24 15.36-1.37 1.19 1.67 4 5.73-5.12-1.25-.9-.06-6c2.87.77 6.33-.72 7.83-5.56s-1.26-7.53-5.5-8.17zm-2.45 12.31V35s4.48.12 4.6 4.19-4.6 5.69-4.6 5.69zM191.1 39.46l3.41-4.16s-3.41-2.78-6.94-1.7-6.88 6.2-6.88 8.76 5.46 5 7.85 6.14 2.39 1.71 1.76 3.08-2.21 3.75-3.58 3.64-3.81-2.22-3.81-2.22l-4.1 4.78 3.3-.86s3.76 2.11 6.6.86 5.77-5.4 5.77-8-5.43-5.31-7.67-7-2.93-5.24 0-6 4.12.8 4.12.8zM28.67 82.56l-4.32 4.61s-1-4-4.4-3-5.2 4.54-4.25 10.48 3.67 8.49 5.86 8.2 1.4-5.2 1.4-5.2l4.83-3.74-.37 8.09 2.5 1.83-4.47 3.74s-1.83-2.2-1.83-3.52c0 0-3.89 4-6 3.52s-6.15-3.66-7.18-11.43 2-9.24 4.53-11.73a12.51 12.51 0 0 1 13.7-1.85zM49 86.08c-.8-4.47-8.13-5.21-8.13-5.21-10.35 3.21-8.79 13.13-7.79 18.76 1.08 6.08 8.19 7.47 8.19 7.47l8.57-7.55s0-9.01-.84-13.47zm-5 16.55s-6.3-.29-6.89-6.23-1.15-11.28 4.08-13.33a6 6 0 0 1 4.49 5.57c.13 4.91.86 10.99-1.68 13.99zM117.07 83.76c-1-4.08-10.54-3.94-10.54-3.94l-4.64 4.5.29 18.64-1.37 2h8.84l8.49-8.76s-.05-8.36-1.07-12.44zm-3.4 10.42a8 8 0 0 1-6.18 7.48l-.73-18.47c6.96-.56 7.24 4.7 6.91 10.99zM120.63 83.42l5.95-3.6v20.38l1.42 1.02-4.14 4.4-3.51-4.34 1.87-1.59.11-12.7-1.7-3.57zM144.76 83.59l6.29 20.05v1.98l6.96-5.72-1.13-.79 3.68-17.28 2.21-2.26-4.36 1.64-3.57 14.73-5.83-16.37-4.25 4.02zM181.28 100.13l-8.14-20.56-5.78 4.19 1.13.85-5.15 18.39-2.32 2h4.81l2.17-8.16h6.34l3.23 8.08 5.71-4.68zm-12.9-5.61l2-7.48 3 7.48zM183.37 84.21l6.52-4.64.93 22.51s5.61.74 9.18-3l-3.34 5.15h-11.22l-.54-18zM99.74 17.63s11.61-15.7 31.92-12.8 33.88 17.06 51.16 15.36 12.33-12.42 8.75-15c-5.26-3.83-18.27-1.54-17.92 4.09s5.72 4.24 5.16 2.12 2.44-3.48 4-1.43-1.15 6.68-6.78 5.56-8.53-7.29-1.53-12.75 23.21-2.56 24.75 6-7 17.24-27.33 14S143.62 9.26 128 10 99.74 20.7 99.74 20.7zM99.68 17.63S88.07 1.93 67.76 4.83 33.88 21.89 16.6 20.19 4.27 7.77 7.85 5.17c5.26-3.83 18.27-1.54 17.93 4.09s-5.73 4.24-5.17 2.12S18.18 7.9 16.6 10s1.15 6.68 6.79 5.56 8.53-7.27 1.53-12.73S1.71.22.17 8.75s7 17.24 27.33 14S55.8 9.26 71.43 10s28.25 10.7 28.25 10.7zM99.68 125.45s-11.61 15.7-31.92 12.8-33.88-17.07-51.16-15.36-12.33 12.42-8.75 15c5.26 3.82 18.27 1.54 17.93-4.1s-5.73-4.23-5.17-2.11-2.43 3.48-4 1.43 1.15-6.69 6.79-5.56 8.53 7.27 1.53 12.73-23.21 2.56-24.75-6 7-17.24 27.33-14 28.3 13.48 43.93 12.8 28.25-10.75 28.25-10.75zM99.74 125.45s11.61 15.7 31.92 12.8 33.88-17.07 51.16-15.36 12.33 12.42 8.75 15c-5.26 3.82-18.27 1.54-17.92-4.1s5.72-4.23 5.16-2.11 2.44 3.48 4 1.43-1.15-6.69-6.78-5.56-8.54 7.27-1.54 12.73 23.21 2.56 24.75-6-7-17.24-27.33-14-28.3 13.48-43.92 12.8-28.26-10.75-28.26-10.75z"/></svg>