<?xml version="1.0" encoding="UTF-8"?><svg id="logos" xmlns="http://www.w3.org/2000/svg" width="200" height="139" viewBox="0 0 200 139"><path d="M130.92,104.87c-.62-.18-1.32,.3-1.77,1.17-.29,.57-.59,1.15-.99,1.65-.96,1.18-1.55,1.17-2.66,.16-1.25-1.14-1.48-2.73-1.9-4.21-1.22-4.28-1.22-8.66-.79-13.05,.23-2.33,.29-2.31,2.66-2.71,.33-.06,.88-.41,.86-.57-.05-.39-.29-.86-.6-1.08-.41-.29-.95-.43-1.46-.51-.62-.1-.86-.41-.8-1,.1-.91,.13-1.84,.33-2.74,.64-2.87,1.22-5.76,2.06-8.57,.94-3.16,1.81-6.38,4.11-8.94,.53-.59,.48-1.34-.1-1.91-1.08-1.06-2.45-1.54-3.92-1.54-3,0-5.78,.99-8.47,2.22-3.36,1.54-6.14,3.84-8.68,6.53-2.89,3.07-5.26,6.52-7.07,10.25-1.52,3.14-2.46,6.59-3.46,9.95-.91,3.08-1.55,6.24-2.33,9.36-.34,1.34-.49,1.39-1.87,.97-.23-.07-.48-.12-.72-.12-2.36,0-4.72-.09-7.07,.02-2.63,.11-5.18,.83-7.48,2.03-3.28,1.71-6.02,4.06-7.53,7.62-.88,2.08-1.5,4.14-1.12,6.41,.63,3.72,4.91,7.11,8.75,7.46,2.28,.21,4.55,.22,6.85-.26,4.77-1.01,8.57-3.39,11.32-7.39,1.07-1.56,1.98-3.24,2.99-4.85,.25-.41,.45-1.12,1.14-.7,.78,.47,1.51,1.03,2.18,1.65,2.67,2.45,3.52,5.65,3.66,9.13,.04,.85-.28,1.25-1.12,1.33-2.21,.2-4.3,.77-6.31,1.79-3.07,1.57-5.6,3.53-6.9,6.89-1.49,3.85,1.11,6.85,4.34,6.79,4.25-.08,7.6-2.13,10.19-5.41,1-1.27,1.77-2.72,2.7-4.04,.21-.3,.72-.64,1.01-.58,1.96,.39,3.89,.91,5.52,2.15,.88,.67,1.63,1.41,1,2.71-.13,.28,.06,.92,.31,1.12,.26,.2,.81,.13,1.18,.01,.28-.09,.5-.43,.69-.69,1.28-1.7,.56-5.1-.38-6.36-1.6-2.16-3.82-3.31-6.36-3.91-.88-.21-1.14-.61-1.05-1.48,.13-1.15,.18-2.31,.17-3.46-.09-5.95-2.78-10.43-7.8-13.53-.86-.53-1-1.12-.72-1.99,.45-1.43,.9-2.86,1.29-4.31,.14-.52,.4-.65,.9-.7,.56-.06,1.18-.16,1.63-.46,1.41-.92,2.75-1.95,4.13-2.91,1.12-.78,2.26-1.52,3.39-2.29l.29,.14c-.12,.64-.25,1.27-.35,1.92-.43,2.79-.56,5.59-.41,8.42,.18,3.29,.7,6.48,2.46,9.31,1.35,2.17,2.84,4.33,5.92,3.7,.99-.2,1.97-.66,2.84-1.18,2.27-1.38,3.89-3.44,5.44-5.54,.4-.54,.64-1.24,.79-1.91,.22-1-.2-1.74-.93-1.95Zm-38.3,3.32c-1.86,2.98-3.64,6.02-5.68,8.88-1.93,2.71-4.85,3.84-8.06,3.49-3.34-.37-4.86-2.7-3.7-6.38,1.23-3.89,4.19-5.84,7.85-6.9,1.75-.5,3.59-.66,5.02-.91,1.57,.19,2.73,.31,3.87,.49,.91,.14,1.16,.59,.69,1.33Zm12.6,20.64c-.58,1.17-1,2.5-1.84,3.45-1.56,1.75-3.32,3.38-5.88,3.56-1.48,.1-2.26-.58-2.43-1.97,.31-.63,.51-1.36,.95-1.89,2.2-2.66,5.24-3.69,8.52-4.16,.96-.14,1.11,.13,.68,1.01Zm16.12-54.23c-1.6,3.71-3.04,7.49-4.42,11.29-.42,1.16-1.3,1.32-2.19,1.69-2.38,.96-4.75,1.97-7.13,2.94-.17,.07-.39,.01-.58,.02,0-.29-.06-.61,.03-.87,.38-1.13,.84-2.23,1.21-3.37,1.68-5.22,3.82-10.22,7.13-14.64,1.95-2.6,4.45-4.54,7.4-5.88,.61-.28,1.27-.47,1.93-.55,.27-.03,.59,.32,.94,.52-.29,.71-.45,1.2-.69,1.66-1.22,2.4-2.58,4.74-3.64,7.21Z" fill="#fff"/><path d="M70.82,62.52c2.8,.19,5.62-.33,8.14-1.58,2.98-1.48,5.7-3.47,7.53-6.32,1.54-2.38,2.82-4.93,4.13-7.46,.4-.77,.77-1.18,1.67-.92,.76,.23,1.55,.37,2.32,.54,2.54,.56,5.08,1.09,7.61,1.67,3.31,.76,6.58,1.74,9.92,2.32,4.33,.76,8.68,.83,13.03-.21,3.58-.85,6.89-2.04,9.67-4.58,2.78-2.53,3.91-5.65,3.68-9.3-.13-2.12-1.52-3.58-3.22-3.67-1.02-.06-1.57,.65-1.24,1.59,.92,2.57,.32,4.62-1.77,6.32-2.41,1.97-5.17,3.14-8.21,3.65-1.56,.26-3.18,.62-4.72,.47-3.25-.32-6.5-.67-9.61-1.87-3.62-1.4-7.31-2.64-10.98-3.92-1.38-.48-2.79-.93-4.21-1.27-1.02-.24-1.25-.35-1.11-1.37,.49-3.55,1-7.1,1.58-10.63,.08-.48,.57-.98,1-1.29,2.33-1.62,4.77-3.09,7.04-4.79,2.37-1.78,4.02-4.18,5.28-6.85,1.33-2.82,1.89-5.73,1.3-8.84-.41-2.21-2.62-4.07-4.85-4.21-3.04-.18-5.5,1.16-7.71,2.96-4.64,3.76-6.95,8.94-8.43,14.54-.41,1.56-.54,3.2-.79,4.8-.15,1-.4,1.18-1.41,.99-.48-.09-.97-.15-1.44-.28-1.76-.5-3.08-1.46-3.55-3.35-.32-1.3-.18-2.55,.21-3.8,.55-1.75,1.53-3.1,3.24-3.9,.81-.37,1.51-.31,2.27,.11,.29,.16,.79,.3,1.01,.16,.81-.51,1.49-1.17,1.54-2.25,.05-1.06,.11-2.1-.98-2.76-1.59-.97-3.32-1.12-5.06-.75-2.71,.58-4.83,2.21-6.23,4.52-1.92,3.16-1.85,6.54-.21,9.84,.83,1.66,2.12,2.86,3.79,3.75,1.66,.88,3.38,1.43,5.23,1.59,.82,.07,1.13,.46,.94,1.29-.64,2.78-1.26,5.56-1.87,8.34-.12,.57-.42,.82-.99,.9-1.22,.15-2.43,.33-3.64,.54-5.44,.94-9.9,3.59-13.52,7.72-2.38,2.71-3.65,5.84-3.66,9.77-.36,4.21,3.49,7.53,7.27,7.79Zm25.36-42.41c.65-3.7,1.62-7.3,3.5-10.59,.89-1.57,1.98-2.96,3.86-3.44,1.67-.43,2.32,.09,2.45,1.8,.31,4.02-1.58,7.02-4.46,9.51-1.6,1.39-3.36,2.59-5.05,3.88l-.31-.22c0-.31-.05-.64,0-.94Zm-26.31,30.16c2.76-3.14,6.43-4.3,10.43-4.73,.43-.05,.85-.08,1.28-.11,.7-.04,.9,.23,.63,.89-1.63,3.97-3.74,7.63-6.91,10.6-1.28,1.2-2.82,1.79-4.11,1.86-2.5,.01-3.57-1-3.71-3.04-.15-2.24,1.01-3.91,2.39-5.48Z" fill="#fff"/><path d="M59.99,106.78c-.93-.23-1.16,.55-1.56,1.12-.7,1-1.36,2.04-2.19,2.91-.69,.72-1.53,.54-2.14-.25-.26-.33-.46-.73-.63-1.11-1.1-2.5-1.43-5.19-1.79-7.86-.46-3.36-.35-6.73-.04-10.09,.06-.68,.41-1.13,1.09-1.31,.89-.23,1.79-.44,2.64-.77,.4-.16,.69-.59,1.03-.9-.32-.32-.58-.83-.96-.93-.72-.19-1.51-.23-2.25-.17-.72,.06-.89-.17-.79-.81,.16-.97,.22-1.96,.46-2.9,.91-3.53,1.8-7.07,2.85-10.55,.67-2.22,1.6-4.36,3.08-6.22,.7-.88,.49-1.99-.5-2.51-.83-.44-1.73-.84-2.65-.97-2.26-.32-4.49,.07-6.6,.85-3.24,1.19-6.22,2.87-8.89,5.1-4.24,3.53-7.14,7.98-9,13.11-1.06,2.93-1.85,5.96-2.75,8.96-1.35,4.52-2.64,9.06-4.07,13.55-.75,2.36-1.66,4.67-2.63,6.96-1.25,2.95-3.21,5.44-5.49,7.65-1.95,1.89-4.21,3.25-7.04,3.4-.98,.05-1.7-.35-2.15-1.14-1.02-1.79-1.49-3.74-.85-5.75,.9-2.84,2.62-5.09,5.44-6.22,1.14-.46,2.44-.51,3.67-.76,.64-.13,1.09,0,1.48,.6,.6,.92,1.89,.77,2.35-.24,.17-.38,.27-.84,.24-1.25-.21-2.4-1.38-4.17-3.65-5.09-2.58-1.05-5.04-.42-7.47,.64-4.33,1.88-7.17,5-8,9.71-.39,2.21-.44,4.44,.78,6.52,2.07,3.54,5.23,5.45,9.13,6.37,3.32,.78,6.41,.32,9.4-1.33,4.57-2.52,8.01-6.01,9.93-10.92,.93-2.39,1.98-4.75,2.82-7.18,.62-1.79,.99-3.67,1.45-5.51,.19-.76,.44-1.29,1.42-1.15,.42,.06,.97-.21,1.34-.48,2.48-1.8,4.94-3.64,7.41-5.45,.2-.14,.46-.2,.69-.29,.04,.26,.15,.52,.11,.76-1.02,5.09-.58,13.9-.31,16.15,.3,2.42,1.43,4.39,3.17,6.06,1.22,1.17,2.65,1.33,4.1,.75,3.85-1.55,6.78-4.23,8.92-7.77,.23-.38,.37-.85,.42-1.29,.12-.96-.33-1.79-1.02-1.95Zm-13.63-18.55c-.19,.62-.54,.91-1.16,1.14-2.66,1-5.29,2.08-7.93,3.13-.21,.08-.45,.11-.68,.16-.03-.19-.13-.41-.07-.58,.77-2.29,1.62-4.55,2.35-6.85,.95-3,2.51-5.71,3.99-8.46,1.54-2.87,3.49-5.42,5.96-7.51,1.05-.89,2.42-1.41,3.65-2.08,.18-.1,.41-.09,.51-.11,1.01,0,1.46,.72,1.09,1.71-.52,1.37-1.06,2.75-1.7,4.06-2.42,4.97-4.39,10.11-6.01,15.38Z" fill="#fff"/><path d="M162.69,97.42c-.69-.24-1.03-.57-.85-1.35,.74-3,1.46-6.01,2.18-9.01,.93-3.9,1.88-7.8,2.78-11.71,.27-1.15-.2-1.68-1.4-1.68-2.1,.01-3.69,1.18-5.2,2.45-.23,.2-.23,.72-.27,1.1-.11,.99-.08,2-.28,2.96-.28,1.35-.69,2.67-1.08,3.99-.45,1.56-1.25,2.85-2.79,3.57-1.64,.76-2.78,0-2.63-1.81,.05-.61,.2-1.21,.3-1.81,.33-2.1,1.26-3.84,3.1-4.97,.37-.23,.91-.19,1.38-.23,.36-.03,.98,.15,1.06,.01,.22-.39,.43-1.06,.24-1.35-.51-.76-1.13-1.56-1.9-2-1.81-1.03-4.98,0-6.62,1.86-2.29,2.6-3.79,5.6-4.26,9.01-.32,2.33-1.56,4.01-3.06,5.6-.11,.12-.38,.26-.45,.21-.15-.11-.3-.33-.3-.5,.01-.39,.07-.8,.2-1.17,.28-.8,.67-1.57,.92-2.39,.66-2.17,1.45-4.31,1.86-6.53,.55-2.99-2.1-4.37-3.86-3.86-2.3,.67-4.36,1.79-6.05,3.53-.24,.25-.52,.48-.84,.77-.17-.29-.3-.46-.38-.64-.59-1.38-1.57-1.91-2.94-1.33-1.19,.5-2.33,1.19-3.41,1.92-.79,.53-.72,1.26,.09,1.74,.66,.39,.66,.93,.48,1.51-.62,1.99-1.36,3.94-1.88,5.95-.5,1.95-.91,3.93-1.14,5.93-.16,1.38,.69,2.24,2.06,2.5,1.98,.38,3.61-.4,5.01-1.69,.54-.5,.36-1.22-.36-1.44-.8-.24-.89-.76-.76-1.42,.6-3.2,1.17-6.45,2.94-9.23,.86-1.35,2.19-2.45,3.43-3.51,.71-.61,1.46-.14,1.46,.83,0,.63-.11,1.29-.32,1.87-.38,1.03-.9,2.01-1.34,3.03-.83,1.94-1.8,3.84-1.86,6.02-.07,2.68,1.88,4.1,4.45,3.31,2.76-.84,4.6-2.72,6-5.1,.37-.63,.59-.53,1-.05,.41,.47,.86,.96,1.39,1.27,1.85,1.07,5.16,.54,6.91-1.59,.31-.37,.64-.72,.95-1.08l.28,.1c-.04,.28-.03,.57-.11,.84-.37,1.26-.82,2.51-1.15,3.78-.21,.8-.6,1.17-1.44,1.26-3.07,.31-6.05,.98-8.81,2.4-.92,.48-1.75,1.12-2.64,1.66-3.68,2.25-6.15,5.38-7.09,9.63-1.05,4.76,2.15,8.62,7.05,8.61,1.9,0,3.63-.55,5.34-1.21,2.1-.81,4.01-1.96,5.6-3.61,2.48-2.57,3.95-5.74,5.2-9.01,1.01-2.65,.97-2.69,3.64-1.83,2.48,.8,4.44,2.26,5.48,4.7,.58,1.37,.75,2.83-.31,4.17-.21,.26-.3,.98-.14,1.1,.32,.25,1.01,.48,1.26,.3,.73-.52,1.53-1.12,1.91-1.89,1.6-3.18,.87-7.52-1.55-10.13-1.82-1.96-3.95-3.49-6.49-4.37Zm-9.56,6.34c-1.38,3.13-2.35,6.48-4.55,9.18-1.27,1.56-2.79,2.91-4.82,3.53-2.05,.63-3.23-.23-3.2-2.38-.02-1.63,.65-3.07,1.48-4.38,1.19-1.88,2.74-3.45,4.76-4.49,1.03-.53,2.05-1.12,3.12-1.54,.84-.33,1.76-.46,2.66-.63,.55-.11,.77,.21,.55,.71Z" fill="#fff"/><path d="M71.8,95.72c.16-.2,.35-.38,.62-.68,.18,.33,.3,.53,.39,.74,.48,1.19,.86,1.48,2.14,1.45,1.8-.05,3.15-1.08,4.43-2.19,.62-.54,.53-1.11,.07-1.78-.34-.5-.7-1.18-.64-1.73,.41-3.83,1.64-7.35,4.39-10.18,.42-.43,.96-.74,1.49-1.05,.54-.32,1.26-.63,1.65-.02,.27,.42,.28,1.22,.07,1.7-.71,1.65-2.01,2.72-3.72,3.31-1.24,.43-1.41,.84-1.02,2.09,.76,2.5,2.3,4.42,4.56,5.66,3.6,1.98,6.57-.32,7.33-3.57,.11-.47-.28-1.06-.45-1.59-.45,.17-.98,.24-1.34,.52-.94,.75-1.36,.72-1.89-.35-.47-.94-.89-1.9-1.38-2.94,.15-.1,.39-.27,.65-.42,1.59-.9,2.86-2.1,3.66-3.77,.56-1.18,.68-2.43,.23-3.66-.34-.92-.96-1.57-2.05-1.56-.9,0-1.8,0-2.88,0,.37-.6,.8-1.09,1.02-1.67,.85-2.22,1.78-4.43,2.4-6.72,.43-1.6,.7-3.31,.22-5-.39-1.41-1.45-2.47-2.7-2.31-1.13,.14-2.33,.41-3.29,.99-2.08,1.24-3.38,3.28-4.53,5.34-2.43,4.34-4.36,8.91-5.78,13.68-.85,2.84-1.57,5.72-2.38,8.58-.3,1.05-.49,2.19-1.06,3.09-.53,.82-1.41,1.5-2.29,1.99-.71,.39-1.29-.06-1.3-.88-.03-2.01,.16-3.99,1.3-5.73,.72-1.1,1.57-2.11,2.25-3.23,1-1.66,.58-2.99-.96-4.39-1.05-.95-2.24-.71-3.68,.57-.27,.25-.51,.54-.78,.78-.63,.54-1.26,1.07-1.92,1.56-.22,.16-.54,.18-.82,.26-.07-.25-.18-.5-.2-.76-.06-.67,0-1.36-.12-2.01-.2-1.16-1.31-1.93-2.45-1.67-1.85,.41-2.74,1.86-3.18,3.49-.35,1.29,.04,2.6,1.22,3.43,.71,.5,.89,1.14,.58,1.83-.63,1.42-1.25,2.86-2.09,4.16-.69,1.07-1.7,1.93-2.51,2.92-.47,.58-.88,1.28-.29,1.99,.56,.67,1.29,.44,1.94,.14,1.58-.73,2.88-1.78,3.52-3.45,.69-1.8,1.33-3.62,1.96-5.44,.23-.67,.58-1.08,1.33-1.21,.65-.12,1.28-.39,1.91-.63,.64-.25,1.02-.03,.83,.63-.17,.6-.49,1.2-.89,1.67-1.6,1.87-2.68,4.03-2.91,6.44-.12,1.26,.22,2.71,.77,3.87,.61,1.28,3.11,1.6,4.65,.86,1.54-.74,2.85-1.8,3.93-3.12Zm10.23-17.56c1.46-3.47,2.9-6.94,4.43-10.38,.35-.79,.98-1.47,1.53-2.16,.19-.23,.54-.33,.81-.5,.12,.35,.38,.73,.32,1.06-.23,1.29-.43,2.61-.87,3.83-1.23,3.46-3.33,6.38-5.91,8.96-.08,.08-.19,.14-.56,.38,.11-.57,.12-.9,.24-1.19Z" fill="#fff"/><path d="M110.09,16.75c.53,.94,1.12,1.85,1.72,2.82-.28,.09-.49,.13-.67,.23-1.11,.63-2.25,1.21-3.3,1.93-.65,.44-.75,1.1-.33,1.87,.2,.35,.25,.9,.13,1.28-.88,2.84-1.82,5.65-2.73,8.48-.56,1.73-.29,3.32,1.02,4.58,1.26,1.21,2.83,1.35,4.47,.85,1.81-.55,3.2-1.75,4.54-3.03,.85-.81,1.76-1.56,2.66-2.35,.03,.08,.09,.3,.19,.51,1.11,2.41,3.09,3.54,5.31,2.37,1.65-.87,3.1-2.16,4.53-3.4,.5-.43,.76-1.24,.91-1.92,.07-.3-.33-.85-.66-1.06-.24-.15-.76-.02-1.07,.15-.39,.21-.7,.59-1.03,.9-.66,.63-1.05,.57-1.23-.34-.19-.98-.21-2-.27-3.01-.06-1.19,.46-1.82,1.61-2.43,2.8-2.05,3.71-4.02,5.09-5.96,2.55-3.59,3.94-7.68,4.4-12.04,.17-1.56,.12-3.19-.14-4.73-.3-1.83-1.66-2.47-3.44-1.88-1.78,.58-3.01,1.92-4.06,3.32-1.62,2.18-3.18,4.43-4.49,6.81-2.88,5.25-4.85,10.85-5.8,16.77-.35,2.18-1.52,3.85-2.9,5.42-.47,.54-1.15,.93-1.79,1.26-.77,.4-1.29,.07-1.27-.79,.03-1,.03-2.05,.32-2.99,.72-2.43,1.64-4.81,2.38-7.24,.47-1.54,.66-2.78-1.03-3.5-.03-.01-.03-.11-.07-.27,.26-.18,.55-.39,.85-.58,1.82-1.2,3.63-2.43,4.89-4.26,.73-1.06,.63-2.5-.14-3.45-.7-.87-1.85-1.19-3.09-.57-1.11,.55-2.21,.63-3.38,.57-1.2-.07-1.97,.53-2.42,1.6-.59,1.4-.45,2.76,.28,4.06Zm15.69,2.65c.96-3.64,2.02-7.26,4.09-10.46,.64-.99,1.44-1.89,2.2-2.8,.17-.2,.5-.28,.75-.42,.12,.29,.39,.62,.33,.88-.31,1.62-.65,3.23-1.07,4.82-.69,2.61-1.98,4.94-3.76,6.96-.69,.78-1.54,1.41-2.32,2.11l-.32-.22c.03-.29,.01-.59,.08-.87Z" fill="#fff"/><path d="M199.91,52.75c-.25-2.51-2.16-3.72-4.51-2.77-.72,.29-1.5,.68-1.99,1.25-1.51,1.76-3.02,3.54-4.29,5.47-3.75,5.69-6.08,11.99-7.68,18.59-.32,1.3-.63,2.63-1.2,3.83-.57,1.2-1.42,2.29-2.21,3.37-.89,1.21-1.82,2.41-3.37,2.86-1.13,.33-2.21,.05-2.6-.8-.56-1.22-.17-2.39,.39-3.52,.46-.94,1.19-1.25,2.19-1.1,.3,.04,.61,.02,.92,0,.9-.07,1.56-.66,1.8-1.59,.2-.78-.28-1.27-.85-1.57-.51-.27-1.12-.37-1.7-.44-.37-.05-.73,.01-.58-.52,.26-.89,1.98-1.57,2.77-1.11,1.34,.78,2.36,.44,3.12-1.06,.6-1.19,.1-2.53-1.19-3-.74-.27-1.53-.39-2.29-.57-2.31,0-6.09,1.93-6.91,4.79-.22,.76-.32,1.41,.23,2.07,.36,.43,.33,.84-.22,1.13-2.15,1.15-3.41,3.03-4.28,5.22-.96,2.41,.19,5.12,2.47,6.3,2.39,1.25,4.64,.63,6.75-.48,2.05-1.07,3.65-2.77,5.03-4.64,.16-.22,.44-.35,.66-.52,.11,.26,.31,.53,.31,.79,0,2.17,.96,3.96,2.16,5.66,.86,1.22,2.01,1.66,3.45,1.21,.82-.26,1.65-.49,2.42-.87,2.43-1.19,3.99-3.29,5.49-5.43,.2-.29,.26-.8,.15-1.14-.12-.39-.45-.85-.8-.98-.29-.11-.81,.12-1.12,.35-.36,.27-.59,.7-.87,1.06-1.09,1.43-1.97,1.37-2.99-.14-1.11-1.64-1.08-3.45-.98-5.31,.07-1.31,.24-2.46,1.88-2.58,.08,0,.16-.09,.24-.14,2.2-1.37,3.79-3.33,4.94-5.58,1.34-2.61,2.59-5.27,3.64-8.01,1.24-3.22,1.98-6.57,1.63-10.07Zm-4.92,12.06c-1.09,2.51-2.84,4.63-4.92,6.44-.18,.16-.47,.19-.7,.28-.02-.25-.13-.55-.05-.76,1.47-3.66,2.9-7.33,4.48-10.94,.62-1.41,1.58-2.67,2.41-3.97,.14-.21,.47-.3,.71-.45,.13,.25,.26,.5,.27,.52-.17,3.28-1.03,6.14-2.21,8.86Z" fill="#fff"/></svg>