<svg xmlns="http://www.w3.org/2000/svg" width="250" height="155" viewBox="0 0 250 155"><g id="logos"><path d="M26.86,0S3.69,52.25,1.58,56.88s-2.11,7.17,0,8,33.31,8,38.46,8.85,8.94-2.11,9.79-5.9-2.11-6.11-6.11-6.53-28.87-4.85-28.87-4.85" fill="#fff"/><path d="M14.85,56.46S30.65,9.06,32.13,0H26.86" fill="#fff"/><path d="M53.27,24.57s-9.22,8.53-5.05,17.75,8,8.22,9.42,8.52,13.08-8,10.7-21.21-16.42-9-18.37-10.9,3.9-5.66,9.85-5.26,15.76,3.37,15.36,17.15-5.41,27.4-18.44,29S39,47.77,38.7,42,46.43,20.61,53.27,24.57Z" fill="#fff"/><path d="M83.21,16.35c2.08,0-2.48,39.65-2.58,48.37s-1.39,16-3.76,15.86S72.7,77.31,73.4,62.84,79.84,16.35,83.21,16.35Z" fill="#fff"/><path d="M83.11,20.91s1.39-2.58,2.58-1.69S97.48,63.93,99,63.93s6.25-50.76,7.14-53.33,3.67.39,7.83,0,2.87,1.29,2.18,7.53-9,50.55-15.66,53.13S90,56.19,88.76,50.25,83.11,20.91,83.11,20.91Z" fill="#fff"/><path d="M127.82,16.41c3.17,0,11.5.53,15.06.93S146.65,21,146,23.19s-3.27,3.56-7.24,3.56-16.16-.89-18.44-1.09S116,23.48,118,19.32,124.65,16.41,127.82,16.41Z" fill="#fff"/><path d="M124.25,37.13c3.17,0,11.5.53,15.07.92s3.76,3.67,3.07,5.85-3.27,3.57-7.24,3.57-16.16-.89-18.44-1.09-4.26-2.18-2.28-6.34S121.08,37.13,124.25,37.13Z" fill="#fff"/><path d="M118.9,59.73c3.17,0,11.49.53,15.06.93s3.77,3.66,3.08,5.84-3.28,3.57-7.24,3.57-16.16-.89-18.44-1.09-4.26-2.18-2.28-6.34S115.72,59.73,118.9,59.73Z" fill="#fff"/><path d="M154.48,15.55c2.1-.09,1.29,16.44-.39,25s-5.65,29.84-4.66,30.34,8.22-1.29,10.6-1.59,3.27,1.88,2.68,4.66-3.57,4.66-10.61,4.66-11.89,1-12-3.17S149.92,15.75,154.48,15.55Z" fill="#fff"/><path d="M173.32,42.91s21.9-18.83,27-19.13-23,25.18-23,25.18L176,79.19l-11.2.89,1.59-26.76s-5.95-20.72-7-24.78,1-6.26,2.87-7,4.37.11,5.65,4S171,42.12,173.32,42.91Z" fill="#fff"/><path d="M54.37,118.85c-1.19-3.94-7.5-7.3-9.67-7.5,0,0,7.5-3.94,7.89-17.36S41,78.81,35.42,78.7s-23.09-.5-23.09,4.24,8.49,3.35,8.49,3.35-2.53,57.54-.76,59.12,11,1.07,22.86-2.87S55.55,122.8,54.37,118.85ZM28.71,84.52s18-3,18.36,8.09S28.71,106,28.71,106Zm0,51.81V117.39s18.41-6.23,18.36,7.19C47,142,28.71,136.33,28.71,136.33Z" fill="#fff"/><path d="M69.14,137.2s1.39-38.68,0-45.44-3.38-7.46-5.76-7.6-6.51,3.33-6.44,10.93-.32,50.32,2.26,53.3S80,146,83.11,141.23s1.77-10.13-4.61-7.15S69.14,137.2,69.14,137.2Z" fill="#fff"/><path d="M90.8,90S89.6,83.9,95,84.16s11.7,20.52,13.3,27.47,4.18,16,4.18,16,3.58,2.72,0,4.11-8.06,1.52-10.09-4.11-7.59-18.34-7.59-18.34S92,129.71,90.68,135.87,85,146.4,81.06,141.43,90.8,90,90.8,90Z" fill="#fff"/><path d="M90,119s18.48-4.47,21.06-5.11,3.38,2.93,0,3.92S95.4,124.8,90,119Z" fill="#fff"/><path d="M125,92.75s.2,25.64,0,30.8-1.39,10.13-4.77,10.53-4.37-2.38-4.37-10.73V85.8A10.81,10.81,0,0,1,128.16,83c7.74,3,16.08,11.72,15.88,28.41s-1.18,34.18-14.1,41.13-11.47-6.08-7.13-6.32a41,41,0,0,1,6.33,0s9.67-7.3,8.21-28.6S127.55,92.36,125,92.75Z" fill="#fff"/><path d="M158.29,83.8c3.93-.74,14.35-2.14,18.84-2.58s5.34,2.73,4.88,5-3.39,4.27-8.31,5.19-20.18,2.87-23,3.2-5.68-1.15-4-5.71S154.36,84.53,158.29,83.8Z" fill="#fff"/><path d="M158.29,100.19c3.93-.74,14.35-2.14,18.84-2.58s5.34,2.73,4.88,5-3.39,4.27-8.31,5.19-20.18,2.87-23,3.2-5.68-1.15-4-5.71S154.36,100.92,158.29,100.19Z" fill="#fff"/><path d="M157,123.46c3.93-.74,14.34-2.14,18.84-2.58s5.34,2.73,4.88,5-3.4,4.27-8.31,5.19-20.18,2.87-23,3.2-5.69-1.15-4-5.71S153.11,124.19,157,123.46Z" fill="#fff"/><path d="M220.69,95.25s-6.92-32.14-8-37.58-5.19-5.7-8.64-3.89-4,4.41-2.1,12.7,9.93,49.24,12.62,50.28c0,0,1.61,13,2.41,12.7s3.11-6.48,3.7-6.48-1.4,11.14,0,11.14,4.63-16.07,4.63-16.84,3.22-8.3,3-11.41c0,0,20-49.18,21.52-53.1s-6.22-9.61-9.17-1.58S220.69,95.25,220.69,95.25Z" fill="#fff"/><path d="M226.87,131.05c1.63.09,1.8,1.42,1.55,4s-.57,7.58-2.54,8.13-3.52.48-3.52-1.1S222.77,130.81,226.87,131.05Z" fill="#fff"/><circle cx="226.98" cy="150.01" r="1.53" fill="#fff"/></g></svg>