<svg xmlns="http://www.w3.org/2000/svg" width="300" height="39" viewBox="0 0 300 39"><path d="M24.51,10.16a4.91,4.91,0,0,0-2-2.23,5.31,5.31,0,0,0-2.8-.82,8.57,8.57,0,0,0-1.56.15,4.75,4.75,0,0,0-1.52.57,5.3,5.3,0,0,0-1.31,1.11,4,4,0,0,0-.85,1.72,2.81,2.81,0,0,0,0,1.51,2.2,2.2,0,0,0,.7,1.05,5.78,5.78,0,0,0,1.31.82c.52.25,1.11.51,1.78.78.95.4,1.94.84,3,1.32a8.61,8.61,0,0,1,2.63,1.93,7,7,0,0,1,1.58,3,9,9,0,0,1-.19,4.43,16.12,16.12,0,0,1-2.32,5.28A14.81,14.81,0,0,1,15,36.6a16.24,16.24,0,0,1-4.62.7A14.13,14.13,0,0,1,4.23,36,9.41,9.41,0,0,1,0,32.19l6.35-5.71a6.52,6.52,0,0,0,2.34,2.68,6,6,0,0,0,3.44,1.08A7.4,7.4,0,0,0,13.8,30a5.2,5.2,0,0,0,1.55-.65,4.48,4.48,0,0,0,1.25-1.21,5.11,5.11,0,0,0,.8-1.8,2.79,2.79,0,0,0,0-1.7,3.1,3.1,0,0,0-.93-1.28,7.17,7.17,0,0,0-1.76-1c-.72-.31-1.55-.66-2.48-1A17.47,17.47,0,0,1,9.63,20,6.79,6.79,0,0,1,7.56,18.1a6.68,6.68,0,0,1-1.08-2.86,10.44,10.44,0,0,1,.35-4.08,13.91,13.91,0,0,1,2.32-5,14.7,14.7,0,0,1,3.64-3.46,14.87,14.87,0,0,1,4.36-2,17.07,17.07,0,0,1,4.5-.63,12.5,12.5,0,0,1,5.11,1.1,9.65,9.65,0,0,1,4,3.26Z" fill="#fff"/><path d="M27.44,36.39,36.36,1h7.55L35,36.39Z" fill="#fff"/><path d="M41.41,36.39,50.32,1h7.56l-7,28h12L61,36.39Z" fill="#fff"/><path d="M77.55,36.39H70L67.19,1h8.43l.88,25.13h.17L90.15,1h8.3Z" fill="#fff"/><path d="M92.09,36.39,101,1h20.9l-1.81,7.21H106.43l-1.68,6.71h12.91l-1.73,6.86H103l-1.85,7.36h14.45l-1.84,7.3Z" fill="#fff"/><path d="M135.39,36.39l-3.22-14.06h-2.56l-3.53,14.06h-7.34L127.66,1h11.85a16.58,16.58,0,0,1,4.24.53,8,8,0,0,1,3.38,1.77A6.42,6.42,0,0,1,149,6.56a10.85,10.85,0,0,1-.27,5.1,13.18,13.18,0,0,1-3.24,6.06,13,13,0,0,1-5.62,3.51l4.31,15.16Zm5.87-24.58a3.58,3.58,0,0,0,.05-2,2.33,2.33,0,0,0-.89-1.2A3.66,3.66,0,0,0,138.93,8a10.05,10.05,0,0,0-1.71-.15h-4l-2.08,8.26h3.58a11.21,11.21,0,0,0,1.94-.18,6.85,6.85,0,0,0,1.92-.62A5,5,0,0,0,140.2,14,5.43,5.43,0,0,0,141.26,11.81Z" fill="#fff"/><path d="M170.88,10.16a4.91,4.91,0,0,0-2-2.23,5.34,5.34,0,0,0-2.81-.82,8.54,8.54,0,0,0-1.55.15,4.72,4.72,0,0,0-1.53.57,5.69,5.69,0,0,0-1.31,1.11,4.15,4.15,0,0,0-.85,1.72,3,3,0,0,0-.05,1.51,2.22,2.22,0,0,0,.71,1.05,5.7,5.7,0,0,0,1.3.82c.53.25,1.12.51,1.78.78,1,.4,1.94.84,3,1.32a8.66,8.66,0,0,1,2.64,1.93,7.11,7.11,0,0,1,1.58,3,9,9,0,0,1-.2,4.43,15.9,15.9,0,0,1-2.31,5.28,15.13,15.13,0,0,1-3.58,3.68,15,15,0,0,1-4.37,2.16,16.18,16.18,0,0,1-4.61.7A14.13,14.13,0,0,1,150.6,36a9.41,9.41,0,0,1-4.23-3.78l6.35-5.71a6.45,6.45,0,0,0,2.34,2.68,6,6,0,0,0,3.44,1.08,7.4,7.4,0,0,0,1.67-.2,5.2,5.2,0,0,0,1.55-.65A4.61,4.61,0,0,0,163,28.18a5.3,5.3,0,0,0,.8-1.8,2.87,2.87,0,0,0,0-1.7,3.28,3.28,0,0,0-.93-1.28,7.17,7.17,0,0,0-1.76-1c-.72-.31-1.55-.66-2.48-1A17.58,17.58,0,0,1,156,20a6.87,6.87,0,0,1-2.06-1.92,6.68,6.68,0,0,1-1.08-2.86,10.61,10.61,0,0,1,.34-4.08,13.92,13.92,0,0,1,2.33-5,14.53,14.53,0,0,1,3.64-3.46,14.75,14.75,0,0,1,4.36-2A17.07,17.07,0,0,1,168,.05a12.42,12.42,0,0,1,5.1,1.1,9.61,9.61,0,0,1,4,3.26Z" fill="#fff"/><path d="M194.3,8.26l-7.07,28.13h-7.51l7.07-28.13H178L179.85,1h25.07l-1.83,7.31Z" fill="#fff"/><path d="M235,18.52a27,27,0,0,1-3.2,7.69,25.5,25.5,0,0,1-5,5.95A21.75,21.75,0,0,1,220.44,36a19.18,19.18,0,0,1-7.1,1.36A14.3,14.3,0,0,1,206.93,36a10.88,10.88,0,0,1-4.39-3.83,13.44,13.44,0,0,1-2-5.95,21.82,21.82,0,0,1,.66-7.69,26.78,26.78,0,0,1,3.21-7.68,24.09,24.09,0,0,1,5-5.83,21.69,21.69,0,0,1,6.29-3.71A19.68,19.68,0,0,1,222.73,0a15.08,15.08,0,0,1,6.44,1.3A10.77,10.77,0,0,1,233.61,5a12.65,12.65,0,0,1,2.07,5.83A21.18,21.18,0,0,1,235,18.52Zm-8,0a13.64,13.64,0,0,0,.42-4.3,8.07,8.07,0,0,0-1-3.43,5.9,5.9,0,0,0-2.24-2.25,6.67,6.67,0,0,0-3.42-.83,9,9,0,0,0-3.81.83,12.62,12.62,0,0,0-3.38,2.25,14,14,0,0,0-2.68,3.43,17.19,17.19,0,0,0-1.72,4.3,14.08,14.08,0,0,0-.46,4.43,8.5,8.5,0,0,0,.95,3.48,5.79,5.79,0,0,0,2.22,2.28,6.6,6.6,0,0,0,3.39.83,9.18,9.18,0,0,0,3.81-.83,12.28,12.28,0,0,0,3.38-2.28A14.89,14.89,0,0,0,225.21,23,17.48,17.48,0,0,0,227,18.52Z" fill="#fff"/><path d="M255.25,36.39l-6.69-23.17h-.13l-5.65,23.17h-7.29L244.4,1H253l6.65,23.13h.13L265.39,1h7.29l-8.91,35.44Z" fill="#fff"/><path d="M270.18,36.39,279.1,1H300l-1.81,7.21H284.53l-1.69,6.71h12.91L294,21.73H281.12l-1.85,7.36h14.44l-1.84,7.3Z" fill="#fff"/></svg>