<svg xmlns="http://www.w3.org/2000/svg" width="200" height="139" viewBox="0 0 200 139"><path d="M45.21 119.29c1.21 14.07-23.28 18.46-33.46 19.34C9 138.86.36 139.61 0 135.5c-.13-1.48 2-5.44 3.06-6.6A19.09 19.09 0 0 1 9 126.32c.35 0 .57 0 .61.45.06.71-.62 1.12-1.09 1.45a8.26 8.26 0 0 0-1.11 1.16v.14c25.33-1.25 31.64-9.13 31.54-10.26-.31-3.61-20.15-4.75-23.59-5-3.59-.26-7.36-1.07-7.73-5.32-.2-2.33.49-7.59 1.46-9.6 1.88-3.8 14.1-11.62 29.59-13a42.44 42.44 0 0 1 9 .22c1.66.22 1.92.77 2 2.18.45 5.23-1.22 6.59-5.25 8.57a20.31 20.31 0 0 0-6.07 4 4.35 4.35 0 0 1-1.7.86 1 1 0 0 1-1.23-1c0-.14 1.15-2.45 4.74-5.39l-.15-.13c-18.2 2.21-25.48 9.46-25.41 11.09.08 1-.79 1.57 19.34 4.47 7.32 1.15 10.96 4.61 11.26 8.08zm14.91-21c2.82-.25 5-3.67 4.75-6.3a2.09 2.09 0 0 0-2.35-1.85C60 90.32 57 93 57.25 95.65a2.66 2.66 0 0 0 2.87 2.6zm76.18-6.68c2.83-.24 5-3.67 4.75-6.29a2.09 2.09 0 0 0-2.34-1.85c-2.56.22-5.51 2.85-5.28 5.55a2.65 2.65 0 0 0 2.87 2.55zm63.7 9.64l-13 11.56c-5.95 11.56-11.37 16.26-13.93 16.48a1.5 1.5 0 0 1-1.64-1.44c-.41-4.73 8.86-13.86 12.24-16.8l3.82-9.39-.14-.12c-2.14 2.83-8.52 9.4-12.13 9.71-3.36.29-5-3.61-5.49-6.49-3.37 4-8.14 9.84-12.07 10.18-2.49.22-3.86-1.78-4-4-.34-3.94 2.84-8.57 4.68-11.78l-.15-.12a52.75 52.75 0 0 0-9.24 10.92c-.88 1.33-3 4.76-4.81 4.91-2.89.25-4-3.82-4.22-6a.49.49 0 0 1 0-.12c-2.87 3.76-7.28 8.39-11.5 8.75-3.87.33-6-4-6.31-7.33a6.85 6.85 0 0 1 0-.79l-11.39 10.16c-6 11.56-11.37 16.26-13.93 16.48a1.51 1.51 0 0 1-1.65-1.44c-.4-4.73 8.87-13.86 12.25-16.8l3.82-9.39-.14-.12c-2.14 2.83-8.52 9.4-12.13 9.71-3.36.29-5-3.6-5.49-6.47-3.36 4-8.14 9.84-12.07 10.17-2.49.22-3.86-1.78-4-4-.34-3.94 2.83-8.58 4.68-11.78l-.15-.12a52.44 52.44 0 0 0-9.24 10.91c-.88 1.33-3 4.76-4.81 4.91-2.84.25-3.93-3.7-4.21-6-2.87 3.72-7.19 8.18-11.32 8.53-3.88.33-6-4-6.32-7.33-.69-8 6.84-16.53 10.78-16.87 1.12-.09 2.93.15 3 1.59.28 3.29-5.71 9.69-8.31 11.83-.29 2.74.82 4.1 3.84 3.84 3.28-.28 6.24-3.66 8.64-5.83A25.83 25.83 0 0 1 70 100.39a3.24 3.24 0 0 1 2.49-1c4-.21 3.7.74 3.74 1.13.22 2.56-7.49 9.9-7.35 11.48a.73.73 0 0 0 .78.66c.46 0 1-.68 1.24-1 4.68-7.15 16.06-16.27 18-16.43.26 0 .68.27 1.15 1.16a15 15 0 0 1 1.29 3.46c.22 2.56-7.42 8.24-7 12.77a1.22 1.22 0 0 0 1.28 1.08c1.58-.13 4.27-2.68 5.36-3.76l2.79-2.76c2.38-7.22 13.2-13.44 17.54-14.22a4.11 4.11 0 0 1 3.62 1.34c.45.66 2.38 2.27 3.3 4.2a3.6 3.6 0 0 1 .56 1.48c.09 1-.7 2.58-1.09 3.47l-4.15 9.55.14.12 8.78-7.51c1.58-6.45 7.19-12.17 10.4-12.45 1.12-.09 2.92.15 3 1.59.28 3.29-5.72 9.69-8.31 11.83-.29 2.74.81 4.1 3.84 3.84 3.4-.3 6.45-3.91 8.88-6.06a26.13 26.13 0 0 1 6.09-10.68 3.31 3.31 0 0 1 2.49-1c4-.2 3.7.74 3.74 1.14.22 2.56-7.48 9.9-7.35 11.48a.74.74 0 0 0 .79.66c.46 0 1-.68 1.23-1 4.68-7.15 16.06-16.27 18-16.43.26 0 .68.27 1.15 1.15a15.11 15.11 0 0 1 1.29 3.47c.22 2.56-7.42 8.24-7 12.77A1.22 1.22 0 0 0 162 107c1.58-.13 4.27-2.68 5.37-3.77l2.78-2.76c2.4-7.21 13.21-13.43 17.54-14.2a4.11 4.11 0 0 1 3.62 1.34c.45.66 2.38 2.27 3.3 4.2a3.6 3.6 0 0 1 .56 1.48c.09 1-.7 2.57-1.09 3.47l-4.13 9.61.14.12 9.36-8zm-86.35-2.34l-7.81 3c-4 2.59-8.65 4.84-7.64 9.58.11.52.51.62 1.1.57 1.86 0 5.73-1.88 8-4.79zm76.35-6.7l-7.81 3c-3.95 2.58-8.65 4.84-7.64 9.58.11.52.51.62 1.1.57 1.86 0 5.73-1.88 8-4.79zM17.11 2.75h6.7l7 29.73H24.1l-1.23-6.35H12l-2.82 6.35h-6.5zm-2.73 18.16h7.47L19.59 9.3zM62.73 10.3a5.76 5.76 0 0 1 2.38 1.94A6 6 0 0 1 66.19 15a20 20 0 0 1 0 3.24l-.69 14.21h-5.84l.79-14.35a4.55 4.55 0 0 0-.28-2.06 2.59 2.59 0 0 0-2.66-1.52 3.46 3.46 0 0 0-3.32 2 6.67 6.67 0 0 0-.62 2.48l-.89 13.44H46.9l1-13.44a7.27 7.27 0 0 0-.18-2.85 2.49 2.49 0 0 0-2.64-1.58 3.58 3.58 0 0 0-3.35 1.58 6.57 6.57 0 0 0-.69 2.7l-1.16 13.63h-5.83l2.13-22.22h5.38l-.27 3.15A10.38 10.38 0 0 1 43.45 11a7 7 0 0 1 4.28-1.26 6.22 6.22 0 0 1 3.85 1.08 5.87 5.87 0 0 1 1.66 2.6 7.82 7.82 0 0 1 2.89-2.79A8.41 8.41 0 0 1 60 9.75a7 7 0 0 1 2.73.55zM85.51 10.66a8.41 8.41 0 0 1 3.64 3.2 10.73 10.73 0 0 1 1.68 4.52 29.82 29.82 0 0 1 .17 4.41H75.23q0 3.38 2.13 4.76a5.52 5.52 0 0 0 3.12.85 4.8 4.8 0 0 0 3.19-1 5.19 5.19 0 0 0 1.2-1.56h5.8a7.6 7.6 0 0 1-2.14 4.11 10.57 10.57 0 0 1-8.31 3.36 11.31 11.31 0 0 1-7.66-2.84c-2.15-1.87-3.14-4.9-3-9 .16-3.84 1.25-6.74 3.29-8.75a10.42 10.42 0 0 1 7.68-3 11.82 11.82 0 0 1 4.98.94zm-8.43 4.89a6.26 6.26 0 0 0-1.6 3.45h9.69a4.47 4.47 0 0 0-4.73-4.65 4.48 4.48 0 0 0-3.36 1.2zM105.63 9.72h.48l.11 5.8c-.36 0-.67-.07-.94-.08h-.67c-2.25 0-3.76.75-4.51 2.25a8.89 8.89 0 0 0-.62 3.94l.09 10.84h-5.79V10.21h5.29v3.77a11.84 11.84 0 0 1 2.22-3 6 6 0 0 1 4-1.32zM115 7.67h-5.6l-.13-5.09h5.55zm-5.54 2.55h5.62l.76 22.26H110zM133.61 18a5.45 5.45 0 0 0-.94-2.21 3.94 3.94 0 0 0-6.73 1.55 11.94 11.94 0 0 0-.35 4.09 12 12 0 0 0 .76 4 4.07 4.07 0 0 0 4 2.82 3.13 3.13 0 0 0 2.78-1.12 5.4 5.4 0 0 0 .84-2.9h5.79a9.48 9.48 0 0 1-1.52 5.11c-1.61 2.63-4.2 4-7.74 4s-6.21-1.11-8-3.3a13.83 13.83 0 0 1-2.84-8.38c-.15-3.8.62-6.72 2.32-8.8a8.79 8.79 0 0 1 7.22-3.08 11.47 11.47 0 0 1 6.65 1.82c1.78 1.21 3 3.37 3.49 6.49zM151.78 18.75a8.07 8.07 0 0 0 2.2-.5 1.55 1.55 0 0 0 1.02-1.64 2.17 2.17 0 0 0-1.11-1.85 6 6 0 0 0-2.75-.51 3.25 3.25 0 0 0-2.76 1 3.89 3.89 0 0 0-.62 2h-5.41a7.94 7.94 0 0 1 1.2-4.7q2-2.85 7.35-2.85a14.29 14.29 0 0 1 6.35 1.4c1.91.94 3 2.71 3.3 5.34l1.1 10.22c.07.72.18 1.6.32 2.63a3.94 3.94 0 0 0 .51 1.6 2.41 2.41 0 0 0 .93.69l.09.89h-6.25a7.63 7.63 0 0 1-.49-1.31c-.11-.4-.21-.87-.3-1.39a10.29 10.29 0 0 1-2.53 2.3 7.48 7.48 0 0 1-4.12 1.12 7.56 7.56 0 0 1-5.1-1.79 6.9 6.9 0 0 1-2.34-5c-.22-2.77.66-4.76 2.62-6a12.51 12.51 0 0 1 4.89-1.4zm3.71 2.71a5.55 5.55 0 0 1-1 .56 8.61 8.61 0 0 1-1.48.4l-1.27.25a7.64 7.64 0 0 0-2.53.8 2.47 2.47 0 0 0-1.12 2.5 2.92 2.92 0 0 0 1 2.19 3.32 3.32 0 0 0 2.07.68 5.35 5.35 0 0 0 3.34-1.13q1.47-1.12 1.23-4.08zM170.89 25.2a4.54 4.54 0 0 0 1.11 2.24c.81.79 2.17 1.19 4.09 1.19a5.38 5.38 0 0 0 2.62-.52 1.42 1.42 0 0 0 .78-1.56 2 2 0 0 0-1-1.52 36.36 36.36 0 0 0-6.17-1.77 13.83 13.83 0 0 1-5.47-2.35 5.81 5.81 0 0 1-2-4 6.13 6.13 0 0 1 1.72-5.18q2.06-2.14 6.24-2.14a13 13 0 0 1 6.7 1.61 8.3 8.3 0 0 1 3.69 5.61h-5.6a3.94 3.94 0 0 0-.85-1.74 4.25 4.25 0 0 0-3.29-1.16 4.07 4.07 0 0 0-2.53.58 1.47 1.47 0 0 0-.61 1.36 1.75 1.75 0 0 0 1 1.43 38.4 38.4 0 0 0 6.07 1.59 12.69 12.69 0 0 1 5.39 2.47 6.7 6.7 0 0 1 2.27 4.21 6.18 6.18 0 0 1-1.62 5.53c-1.42 1.44-3.83 2.17-7.23 2.17s-6.12-.77-7.95-2.3a8.49 8.49 0 0 1-3.12-5.77zM160.82 3.26V0l2.71 2.33 3.17-.7-1.12 2.94 2.05 2.65-3.4-.27-2.29 4.66-.37-5.36-3.59-1.31 2.84-1.68zM18.05 43.72h5.79l-1.1 11.8 12-11.8h7.61L29.77 55.49 40.91 73h-7.85l-7.84-13L22 63l-.9 10h-6zM51.1 48.61h-5.56l.33-5.06h5.52zm-5.72 2.53H51L49.7 73H44zM67.42 51.48a6.38 6.38 0 0 1 2.34 2.36l.33-10.08h5.52L74.86 73h-5.5l.1-3.1a8.56 8.56 0 0 1-2.85 2.89 7.64 7.64 0 0 1-3.89.91 7.53 7.53 0 0 1-6.23-3.18 11.79 11.79 0 0 1-2.16-8c.2-3.72 1.18-6.62 3-8.72a8.44 8.44 0 0 1 6.78-3.13 6.51 6.51 0 0 1 3.31.81zm.82 15.46a8.38 8.38 0 0 0 1.39-4.7q.14-4-1.77-5.7a4.37 4.37 0 0 0-6.4.84 9.08 9.08 0 0 0-1.35 4.67 8.77 8.77 0 0 0 1 4.88 3.74 3.74 0 0 0 3.48 1.84 4.27 4.27 0 0 0 3.65-1.83zM79.13 55.69l.09-4.55h16.64v4.65L85.32 68.2h10.92V73H78l.1-4.55 10.78-12.76zM128.43 52.58a5.91 5.91 0 0 0-3.43-4.11 8.12 8.12 0 0 0-3.27-.64 6.82 6.82 0 0 0-5.55 2.61c-1.43 1.74-2.1 4.38-2 7.94s1 6.19 2.63 7.71a8.16 8.16 0 0 0 5.62 2.29 6.8 6.8 0 0 0 4.94-1.81 7.45 7.45 0 0 0 2.2-4.7h-6.67l-.18-4.9h11.94l.81 16h-4l-.78-3.77a13.53 13.53 0 0 1-3 3 10.63 10.63 0 0 1-5.9 1.54 12.48 12.48 0 0 1-9.79-4.17c-2.62-2.77-4-6.53-4-11.24s1.12-8.45 3.59-11.24a12.55 12.55 0 0 1 9.86-4.09 13.5 13.5 0 0 1 8.75 2.73 11 11 0 0 1 4.09 6.9zM158.61 70.21c-1.63 2.33-4.32 3.51-8 3.51S144 72.54 142 70.21a13.74 13.74 0 0 1-3.19-8.31 12.23 12.23 0 0 1 2.22-8.11c1.65-2.26 4.27-3.38 7.88-3.38s6.39 1.12 8.35 3.38a13.78 13.78 0 0 1 3.35 8.11 12.22 12.22 0 0 1-2 8.31zM153.87 67a8.08 8.08 0 0 0 .93-5.1 8.82 8.82 0 0 0-1.69-5 4.69 4.69 0 0 0-3.85-1.75 4.08 4.08 0 0 0-3.62 1.75 8 8 0 0 0-1 5 8.93 8.93 0 0 0 1.65 5.1 4.79 4.79 0 0 0 3.92 1.81 4.08 4.08 0 0 0 3.66-1.81zM161.88 55.27l-.34-4h2.93l-.53-5.89h5.41l.56 5.89h3.42l.4 4h-3.43l1.11 11.52a3 3 0 0 0 .5 1.7 3.74 3.74 0 0 0 2.09.34h1.1l.44 4.37-2.67.1q-4 .15-5.61-1.44a4.73 4.73 0 0 1-1.26-3.13l-1.21-13.46z" fill="#fff"/></svg>