<svg xmlns="http://www.w3.org/2000/svg" width="160" height="155" viewBox="0 0 160 155"><path d="M41.82 45.72h-9.41a.33.33 0 0 1-.23-.1L25.37 39a.33.33 0 0 1-.1-.23v-11.3a.33.33 0 0 1 .33-.33h8.91a.32.32 0 0 1 .32.33v9.69h5V.32a.32.32 0 0 1 .29-.32h9.21a.32.32 0 0 1 .33.32v38.16a.32.32 0 0 1-.11.24L42 45.63a.31.31 0 0 1-.18.09zM71.89 3.48a.33.33 0 0 0-.32-.28H58.45a.33.33 0 0 0-.32.27l-6.51 38.77a.31.31 0 0 0 .07.26.33.33 0 0 0 .25.11h7.91a.32.32 0 0 0 .32-.27l1-6.64H68l.77 6.63a.32.32 0 0 0 .32.28h8.33a.32.32 0 0 0 .24-.11.35.35 0 0 0 .08-.26zm-5.79 24.3a.32.32 0 0 1-.24.11h-4.51a.32.32 0 0 1-.24-.11.37.37 0 0 1-.08-.26L63.54 11a.31.31 0 0 1 .32-.27.32.32 0 0 1 .32.28l2 16.53a.33.33 0 0 1-.08.24zM96.21 42.61H85.89a.35.35 0 0 1-.23-.09l-5.2-5.21a.33.33 0 0 1-.1-.23V8.54a.33.33 0 0 1 .11-.25l5.81-5a.34.34 0 0 1 .21-.08h10.12a.37.37 0 0 1 .2.07l5.9 4.51a.31.31 0 0 1 .13.25v9.62a.32.32 0 0 1-.32.32l-7.61.1a.25.25 0 0 1-.23-.09.33.33 0 0 1-.1-.23V10h-6.36v25.76h6.06v-9.5a.32.32 0 0 1 .33-.32h7.91a.32.32 0 0 1 .32.32V37a.33.33 0 0 1-.11.25l-6.31 5.31a.4.4 0 0 1-.21.05zM133.87 45.22h-10.72a.33.33 0 0 1-.3-.2l-7.29-17.73v17.6a.32.32 0 0 1-.32.33h-8.92a.32.32 0 0 1-.22-.1.33.33 0 0 1-.1-.23l.4-43.77a.32.32 0 0 1 .33-.32h8.41a.32.32 0 0 1 .32.32v17.6L123.26 1a.32.32 0 0 1 .29-.19h8.72a.34.34 0 0 1 .27.15.29.29 0 0 1 0 .3l-8.46 20 10.07 23.52a.32.32 0 0 1 0 .3.33.33 0 0 1-.28.14zM18 97.61H6.17a.32.32 0 0 1-.23-.09L.1 91.79a.29.29 0 0 1-.1-.23v-7.71a.32.32 0 0 1 .32-.33H9a.33.33 0 0 1 .33.33v5.4h6.78V79.14H7a.35.35 0 0 1-.22-.08L.11 73a.32.32 0 0 1-.11-.26V59.29a.33.33 0 0 1 .1-.23L6.53 53a.31.31 0 0 1 .22-.09h11.11a.32.32 0 0 1 .21.08l6.2 5.38a.32.32 0 0 1 .11.24v8.07a.32.32 0 0 1-.32.32l-8.06.1a.24.24 0 0 1-.23-.09.35.35 0 0 1-.09-.23v-5.41H9.41v9.88H18a.29.29 0 0 1 .2.07l7 5.85a.32.32 0 0 1 .11.24V91a.31.31 0 0 1-.1.24l-7 6.31a.32.32 0 0 1-.21.06zM51.88 100H30.6a.32.32 0 0 1-.32-.32V53.21a.33.33 0 0 1 .32-.32H40a.33.33 0 0 1 .32.32v37.91h11.6a.32.32 0 0 1 .32.33v8.18a.32.32 0 0 1-.36.37zM100.75 97.61H91.4a.32.32 0 0 1-.32-.32V61.37h-6.23a.32.32 0 0 1-.32-.32v-7.84a.32.32 0 0 1 .32-.32l22-.06a.33.33 0 0 1 .23.1.31.31 0 0 1 .09.22v8.25a.32.32 0 0 1-.32.32h-5.76v35.57a.32.32 0 0 1-.34.32zM131.15 100h-20.34a.32.32 0 0 1-.33-.32V53.21a.33.33 0 0 1 .33-.32h20.34a.32.32 0 0 1 .32.32v8.19a.32.32 0 0 1-.32.32H119.9v9.41h9.26a.32.32 0 0 1 .33.32v7.84a.33.33 0 0 1-.33.32h-9v11.75h11a.32.32 0 0 1 .32.32v7.95a.32.32 0 0 1-.33.37zM159.87 79l-6.1-4.66 4.94-4.07a.3.3 0 0 0 .12-.25V58.71a.29.29 0 0 0-.1-.23L153.12 53a.31.31 0 0 0-.22-.09h-18a.32.32 0 0 0-.32.32v44.06a.32.32 0 0 0 .32.32h8.77a.32.32 0 0 0 .32-.32v-17.8h6.49v17.8a.32.32 0 0 0 .32.32h8.89a.32.32 0 0 0 .32-.32v-18a.33.33 0 0 0-.14-.29zm-10.16-8.75a.32.32 0 0 1-.32.33h-5.73a.32.32 0 0 1-.32-.33v-9.44a.32.32 0 0 1 .32-.32h5.73a.32.32 0 0 1 .32.32zM78 53.54a.32.32 0 0 0-.31-.28H63a.32.32 0 0 0-.32.27l-7.35 43.52a.31.31 0 0 0 .07.26.33.33 0 0 0 .25.11h8.88a.31.31 0 0 0 .32-.27l1.08-7.49h7.74l.87 7.48a.32.32 0 0 0 .32.28h9.35a.32.32 0 0 0 .24-.11.34.34 0 0 0 .08-.26zm-6.48 27.25a.35.35 0 0 1-.24.1h-5.06a.33.33 0 0 1-.25-.11.3.3 0 0 1-.07-.26L68.71 62a.31.31 0 0 1 .29-.3.32.32 0 0 1 .32.28l2.28 18.55a.35.35 0 0 1-.08.26zM76.34 153.61H67a.32.32 0 0 1-.32-.32v-44.08a.33.33 0 0 1 .33-.32l9.38-.06a.33.33 0 0 1 .23.1.31.31 0 0 1 .09.22l-.06 8.57v35.57a.32.32 0 0 1-.31.32zM92.34 152.16H83a.32.32 0 0 1-.32-.32v-44.08a.32.32 0 0 1 .32-.32l9.39-.06a.32.32 0 0 1 .23.09.33.33 0 0 1 .09.23l-.06 8.57v35.57a.32.32 0 0 1-.31.32zM107.38 154.42H98a.32.32 0 0 1-.32-.32v-44.08a.32.32 0 0 1 .32-.32l9.39-.06a.31.31 0 0 1 .22.09.34.34 0 0 1 .1.23l-.07 8.57v35.57a.32.32 0 0 1-.26.32z" fill="#fff"/></svg>