<svg xmlns="http://www.w3.org/2000/svg" viewBox="0 0 250 116"><path d="M135.03 81.14c2.78 11.22-4.09 22.57-15.35 25.37-11.26 2.8-22.65-4.03-25.43-15.24-2.78-11.22 4.09-22.57 15.35-25.37 11.26-2.8 22.65 4.03 25.43 15.24zm-23.27 20.77c13.86 1.87 22.49-11.32 16.08-23.48-4.56-8.65-15.26-10.51-23.14-4.94l7.06 28.42zM172.61.41l1.09 4.4-16.21 4.03 4.87 19.61 6.03-1.5 1.09 4.41-6.03 1.49 1.49 6.01 16.62-4.13 1.09 4.4-25.05 6.23-9.64-38.83L172.61.41zM220.86 39.12l1.09 4.41-16.21 4.02 4.87 19.61 6.03-1.49 1.09 4.4-6.03 1.5 1.49 6 16.62-4.13 1.09 4.41-25.05 6.22-9.64-38.83 24.65-6.12zM93.79 19.98l22.3 35.68-5.08 1.26-2.54-4.01-9.76 2.38-.31 4.76-8.84 2.2 4.22-42.27zm12.48 28.77l-6.3-10.76-.93 12.56 7.23-1.8zM87.34 72.28l1.09 4.4-9.24 2.29 5.07 20.42 6.03-1.5.99 4-6.03 1.47 2.49 10.04-8.84 2.19-9.64-38.81 18.08-4.5zM241.1 39.62c-.37.12-5.09-1.71-7 1.76-1.55 2.83.78 4.58 2.67 6.25 3.6 3.21 7.9 5.08 10.7 9.41 6.32 9.77.2 20.73-11.74 18.84-1.06-.17-2.29-.67-2.29-.67l-1.25-4.49c4.7 2.11 12.17.94 10.13-5.71-1.6-5.21-9.83-7.96-13.19-12.65-5.68-7.94-2.14-16.07 7.64-17.15 2.07-.23 3.21.05 3.21.05l1.12 4.36zM76.33 60.86l8.84-2.2 1.09 4.41-17.68 4.39-9.64-38.83 8.84-2.2 8.55 34.43zM144.81 58.01l8.54 34.42 9.25-2.3 1.09 4.41-17.68 4.39-9.64-38.83 8.44-2.09zM181.775 48.842l8.841-2.194 9.637 38.822-8.842 2.194zM146.14 35.54c-1.69 7.37-8.6 12.81-17.83 11.57l-7.06-28.42c6.52-4.6 14.95-4.11 20.26 1.08l2.61-4.86c-4.91-3.81-11.46-5.43-17.97-3.81-11.26 2.8-18.13 14.15-15.35 25.37s14.17 18.04 25.43 15.24c7.44-1.85 12.94-7.44 15.03-14.25l-5.12-1.92zM167.54 52.36l8.55 34.42 9.24-2.29 1.09 4.4-17.68 4.39-9.64-38.82 8.44-2.1zM41 33.09l22.3 35.68-5.08 1.26-2.54-4.01-9.76 2.38-.31 4.76-8.84 2.2 4.22-42.27zm12.48 28.77l-6.3-10.76-.93 12.56 7.23-1.8zM15.1 39.52l-6.26 1.55-.65.16-.14.03L0 43.27l9.64 38.82 8.84-2.2-1.93-7.78 6.26-1.55c8.54-2.12 13.79-10.84 11.67-19.38S23.64 37.39 15.1 39.51zm6.6 26.61l-6.26 1.55L9.93 45.5l6.26-1.55c6.12-1.52 12.33 2.22 13.85 8.34 1.52 6.12-2.22 12.33-8.34 13.85z" fill="#fff"/></svg>