<svg xmlns="http://www.w3.org/2000/svg" width="180" height="170" viewBox="0 0 180 170"><path d="M122.66,70.78c-.35,1.22-.77,2.42-1,3.66-.7,3.39-1.33,6.8-2,10.2-.07.37-.16.61-.58.62l-2.47,0c-.51,0-.74-.23-.79-.78a87.86,87.86,0,0,0-2.8-14,.62.62,0,0,0-.21-.36,4.85,4.85,0,0,0-.08.53,183.45,183.45,0,0,0-.07,19.76c0,.63-.1.94-.77.92-1.34,0-2.68,0-4-.11-.52,0-.68-.33-.65-.88.38-7.29.73-14.59.56-21.9-.09-3.68-.33-7.36-.54-11,0-.55.14-.78.64-.9a18,18,0,0,1,6.55-.15c.45.05.5.35.57.72q1.08,5.58,2.18,11.15a5.58,5.58,0,0,0,.64,1.66c.22-.71.47-1.41.66-2.13q1.26-5,2.5-10c.28-1.11.27-1.2,1.38-1.24,1.69,0,3.38,0,5.07.1.66,0,.88.33.84,1-.27,5.39-.64,10.78-.68,16.17,0,5.78.24,11.57.4,17.35,0,.5-.1.76-.6.76-1.43,0-2.86,0-4.29,0-.57,0-.72-.31-.7-.88q.27-8.45.49-16.9c0-1.12,0-2.25,0-3.37Z" fill="#fff"/><path d="M37.19,57.72c-.15,1.66-.35,3.12-.42,4.59-.11,2.85-.15,5.71-.23,8.57a.71.71,0,0,0,.64.82,6,6,0,0,0,3.21-.25.73.73,0,0,0,.34-.54c.11-1.58.26-3.16.27-4.73,0-3,0-5.9-.06-8.85,0-.46.08-.75.6-.76l4.61-.15c.59,0,.7.27.66.81-.54,8-.65,16-.65,24,0,3.42,0,6.85.1,10.27,0,.65-.23.87-.82,1a10.73,10.73,0,0,1-4.65-.15c-.51-.14-.62-.4-.56-.9a80.49,80.49,0,0,0,.61-12.12c0-1.34-.06-1.36-1.37-1.16-.77.12-1.54.27-2.31.4-.36,0-.48.24-.5.61a75.16,75.16,0,0,0,.13,12.73c.11.93,0,1-.91,1.33a12.34,12.34,0,0,1-5.21.13c.09-1.38.22-2.69.25-4,.18-6.47.4-13,.47-19.43,0-3.66-.18-7.32-.3-11a.57.57,0,0,1,.49-.69,20.55,20.55,0,0,1,2.56-.47C35.12,57.66,36.12,57.72,37.19,57.72Z" fill="#fff"/><path d="M79.85,140.41A341.76,341.76,0,0,0,79,104.34c0-.62,0-1.26-.1-1.87a1.39,1.39,0,0,1,1.18-1.8c4.5-1.17,9-2,13.69-1a14.26,14.26,0,0,1,10.84,9.29c3.32,8.6,2.55,16.84-2.79,24.5a10.93,10.93,0,0,1-2,2.24,1.69,1.69,0,0,0-.59,2,166.33,166.33,0,0,0,8.41,26.42c.39.9.21,1.32-.71,1.64a18.25,18.25,0,0,1-8.45.88c-.37,0-.86-.62-1-1-1.28-4.67-2.38-9.39-3.79-14-1-3.42-2.44-6.74-3.71-10.1-.12-.32-.47-.56-.71-.84a3.5,3.5,0,0,0-.49,1c-.26,4.21-.56,8.42-.67,12.63-.09,3.16,0,6.32.15,9.48,0,.85-.29,1.17-1,1.17-2.46,0-4.92-.07-7.38-.12-1,0-1.29-.46-1.22-1.48C79.05,155.7,79.44,148.05,79.85,140.41ZM89,130.83a13.56,13.56,0,0,0,3-1.08,10.61,10.61,0,0,0,2.68-2.58c3.23-4.6,3.08-9.52,1-14.48-.93-2.19-2.78-3.13-5.2-3.07-1,0-1.37.36-1.38,1.34,0,5.47-.15,10.94-.21,16.4C88.83,128.37,88.94,129.38,89,130.83Z" fill="#fff"/><path d="M66.89,91.94a6.34,6.34,0,0,1-2.85.83c-.71.07-1.44,0-2.15,0-.54,0-.75-.23-.88-.73-.6-2.39-1.16-4.8-1.88-7.16-.64-2.07-1.46-4.07-2.21-6.1-.07-.19-.29-.32-.44-.48a2.69,2.69,0,0,0-.25.62,79.46,79.46,0,0,0-.3,12c0,.88,0,.93-.86.95-1.21,0-2.43-.06-3.64-.07-.73,0-.86-.37-.82-1,.25-4.68.51-9.35.69-14a151,151,0,0,0-.38-17.15c-.06-.86-.08-1.73-.15-2.59a.59.59,0,0,1,.47-.73c1.17-.26,2.33-.56,3.5-.73a10.4,10.4,0,0,1,6,.62,8.72,8.72,0,0,1,4.8,6A13.94,13.94,0,0,1,64.18,73.3a14.8,14.8,0,0,1-1.92,2.36.88.88,0,0,0-.25.91,91.27,91.27,0,0,0,4.75,15C66.81,91.65,66.84,91.78,66.89,91.94ZM56.26,72.71a3.22,3.22,0,0,0,2.88-1.33,7.77,7.77,0,0,0,1-8.37,2.84,2.84,0,0,0-3.1-1.87c-.45,0-.6.17-.61.61,0,1.45-.16,2.9-.18,4.35C56.24,68.29,56.26,70.47,56.26,72.71Z" fill="#fff"/><path d="M141.81,81.9l-4.18.31c-.37,0-.49.22-.52.59-.22,2.52-.49,5-.7,7.57,0,.49-.18.78-.71.78-1.45,0-2.9,0-4.36,0-.52,0-.66-.26-.55-.81,1.58-7.73,2.74-15.53,3.72-23.35q.74-5.91,1.42-11.81c0-.41.19-.62.6-.7a17,17,0,0,1,6.93.17c.43.1.51.39.54.76.18,2.31.33,4.63.56,6.94.44,4.35.84,8.71,1.39,13.05.61,4.77,1.35,9.52,2.05,14.28.06.38,0,.56-.4.66a12.38,12.38,0,0,1-4.85.14c-.13,0-.3-.37-.32-.58-.18-2.37-.33-4.75-.5-7.13C141.91,82.57,141.86,82.31,141.81,81.9ZM140,64.1h-.28c-.62,4.21-1.24,8.41-1.88,12.78l3.63-.17C140.94,72.4,140.46,68.25,140,64.1Z" fill="#fff"/><path d="M60.15,103.14c1.84.27,4.12.6,6.41.91.83.12,1.15.53,1.21,1.4q1.67,23.44,4.86,46.72c.69,5,1.53,10,2.35,15.05.11.69,0,1-.7,1.19a22.24,22.24,0,0,1-8.75.29c-.23,0-.53-.6-.56-.94-.34-4.4-.66-8.8-.92-13.21,0-.93-.33-1.33-1.31-1.26-2.06.15-4.13.23-6.2.34-.86.05-1.15.5-1.23,1.35-.39,4.55-.86,9.1-1.27,13.65-.06.61-.18,1.1-.9,1.11-2.73.06-5.46.13-8.19.14-.92,0-1.19-.42-1-1.45,1.56-8.72,3.19-17.43,4.51-26.19,1.4-9.23,2.5-18.5,3.7-27.76.4-3.09.77-6.2,1.07-9.31.09-.91.45-1.34,1.32-1.43C56.25,103.57,58,103.38,60.15,103.14Zm-3.52,41c1.92-.1,3.62-.18,5.33-.25.9,0,1.14-.42,1-1.34-.64-5.35-1.2-10.7-1.82-16-.2-1.75-.49-3.48-.74-5.22l-.43,0C58.89,128.74,57.78,136.27,56.63,144.09Z" fill="#fff"/><path d="M135.78,150.5a23,23,0,0,1-4.26,8c-4.7,5.47-12.16,5.17-16.4-.68a26.29,26.29,0,0,1-4.07-10.39,77.55,77.55,0,0,1-1.15-17.61,85.44,85.44,0,0,1,2.35-20.08,24.61,24.61,0,0,1,3.74-8.4c4.61-6.28,13-6.15,17.43.28a25.18,25.18,0,0,1,4,11C140.13,121.88,138.13,143.36,135.78,150.5Zm-6.3-21.38c-.41-5.13-.7-10.28-1.28-15.39a14.93,14.93,0,0,0-1.82-5.25c-1-1.79-2.82-1.67-4,0a4.34,4.34,0,0,0-.67,1.23,41.62,41.62,0,0,0-1.49,5.4,102.39,102.39,0,0,0-.39,27.92,27,27,0,0,0,1.94,7.19c1,2.31,3.23,2.36,4.47.16a16.23,16.23,0,0,0,1.69-4.57C129.17,140.33,129.17,134.74,129.48,129.12Z" fill="#fff"/><path d="M26.92,152.36A10.15,10.15,0,0,0,28,155.68c1,2,3.06,2.21,4.24.3a11.4,11.4,0,0,0,1.68-4.43c.43-3.12.56-6.29.68-9.44a1.45,1.45,0,0,1,1.16-1.6,13.85,13.85,0,0,1,7.31-.11,1.17,1.17,0,0,1,.73.82c.23,7-.51,13.83-4,20.07-1.81,3.23-4.4,5.6-8.18,6.32a10.53,10.53,0,0,1-11.28-5,25.11,25.11,0,0,1-3.71-11.13,121,121,0,0,1-.69-12.62,111.2,111.2,0,0,1,1.51-19A41.29,41.29,0,0,1,21,108c1.49-2.91,3.44-5.43,6.64-6.64,6.15-2.32,12.58.93,14.8,7.43,1.5,4.41,1.63,9,1.5,13.55-.05,1.83-.18,3.67-.38,5.49,0,.37-.54,1-.85,1-2.45.14-4.9.17-7.35.22-.72,0-.78-.46-.75-1,.13-2.53.34-5.07.32-7.6a33.92,33.92,0,0,0-.59-5.1,5.71,5.71,0,0,0-.73-1.84c-1.14-2-3.13-2.19-4.23-.2a22.84,22.84,0,0,0-2.24,6C25.27,126.17,26.38,147.09,26.92,152.36Z" fill="#fff"/><path d="M19.89,83.82A7,7,0,0,0,20.56,86a1.21,1.21,0,0,0,2.26.19,7.74,7.74,0,0,0,1.06-2.81,40.49,40.49,0,0,0,.31-4.92.84.84,0,0,1,.69-.93,7.59,7.59,0,0,1,3.93-.06.77.77,0,0,1,.49.52,21,21,0,0,1-2,10.73,6.9,6.9,0,0,1-4.4,3.79,5.83,5.83,0,0,1-6.32-2.32A13.83,13.83,0,0,1,14.26,84a55.66,55.66,0,0,1-.19-12.64,35.57,35.57,0,0,1,1.63-9.38,18.26,18.26,0,0,1,1.68-3.58,5.73,5.73,0,0,1,6-2.83,5.7,5.7,0,0,1,5.05,4.1,18.36,18.36,0,0,1,.91,4.63c.13,2,0,4-.06,6,0,.5-.21.79-.71.81-1.25.05-2.51.07-3.76.09-.48,0-.59-.24-.56-.71.1-1.45.2-2.9.18-4.35A17.16,17.16,0,0,0,24,63.38a3.1,3.1,0,0,0-.42-1c-.61-1-1.67-1.1-2.24-.1a11.74,11.74,0,0,0-1.24,3.18C18.94,70.55,19.61,81.11,19.89,83.82Z" fill="#fff"/><path d="M89.75,68.49a.63.63,0,0,1-.54.68,7.92,7.92,0,0,1-3.87,0c-.36-.08-.38-.29-.38-.62,0-1.62,0-3.24-.12-4.86a4.7,4.7,0,0,0-.6-1.83,1.64,1.64,0,0,0-2.85-.15,4.49,4.49,0,0,0-.71,1.79,8,8,0,0,0,1.59,6.25c1.28,1.73,2.65,3.38,3.93,5.1a14,14,0,0,1,2.2,13,6.8,6.8,0,0,1-9.52,4.22,6.25,6.25,0,0,1-3.2-4.38,19.38,19.38,0,0,1-.31-8.06.94.94,0,0,1,.48-.59,6.3,6.3,0,0,1,3.77-.22c.37.07.49.26.48.63,0,1.32-.07,2.65,0,4a10.47,10.47,0,0,0,.38,2.36,1.62,1.62,0,0,0,1.66,1.38c.7,0,1.21-.5,1.47-1.44a8.09,8.09,0,0,0-1-6.91,39.2,39.2,0,0,0-2.43-3.21,22.41,22.41,0,0,1-4-6.39,13,13,0,0,1,.63-10.35,6.53,6.53,0,0,1,6.9-3.43c3.38.38,5.35,2.26,5.93,5.81C90.06,63.26,89.78,67.6,89.75,68.49Z" fill="#fff"/><path d="M163.58,68.08a.65.65,0,0,1-.52.71,7.81,7.81,0,0,1-3.93,0c-.52-.12-.37-.51-.34-.83a15.49,15.49,0,0,0-.27-5.3,4.25,4.25,0,0,0-.48-1.19,1.62,1.62,0,0,0-2.81-.16,5.05,5.05,0,0,0-.78,2.09A7.85,7.85,0,0,0,156,69.28c1.15,1.56,2.39,3,3.55,4.58a14.73,14.73,0,0,1,3.28,7.6,14,14,0,0,1-1.07,7.12,6.42,6.42,0,0,1-6.65,3.72,5.71,5.71,0,0,1-5.45-4.37,19.62,19.62,0,0,1-.51-8.62,1,1,0,0,1,.52-.64,6.25,6.25,0,0,1,3.78-.21c.42.08.46.35.45.71,0,1.54,0,3.07,0,4.61a5.8,5.8,0,0,0,.3,1.59c.29,1,.87,1.43,1.64,1.42s1.26-.47,1.53-1.45a7.75,7.75,0,0,0-.61-6.11,37.12,37.12,0,0,0-2.91-4.06,25.14,25.14,0,0,1-3.82-5.86,13,13,0,0,1,.24-10.37c1.24-2.95,3.81-4.16,7.13-3.86a5.94,5.94,0,0,1,5.77,5.18C163.89,62.5,163.59,67.28,163.58,68.08Z" fill="#fff"/><path d="M100.14,79.05c.1,3.69.19,7.37.3,11,0,.38,0,.67-.46.78a9.12,9.12,0,0,1-4.64,0,.85.85,0,0,1-.74-1.06,216.78,216.78,0,0,0,.7-23.77c0-1.35-.11-2.69-.13-4,0-.42-.16-.6-.56-.59-1.26,0-1.34,0-2.6.12-.43,0-.67-.07-.79-.46a7.76,7.76,0,0,1-.06-4.6.76.76,0,0,1,.62-.38,72.6,72.6,0,0,0,12.07.06c.41,0,.65,0,.73.51a11.62,11.62,0,0,1-.12,4.32c-.08.39-.25.52-.66.51-1.24,0-1.07,0-2.31,0-.45,0-.57.18-.62.6C100.31,67.74,100.18,73.39,100.14,79.05Z" fill="#fff"/><path d="M141.62,165.18c.15-1.63.3-3.06.42-4.48,1-13,.85-26.08.69-39.12-.07-6-.41-11.94-.7-17.91a1.69,1.69,0,0,1,1.25-1.92,14.85,14.85,0,0,1,8.42-.66c.73.14.81.52.76,1.16-.3,4.33-.65,8.65-.82,13-.48,12.1-.49,24.21.13,36.31,0,.47.06.93.08,1.4.08,2,.08,2.13,2.09,2.16a69.61,69.61,0,0,0,7.49-.4c.87-.08,1.35.1,1.57.92a15,15,0,0,1-.1,8.43c-.24.79-.78.71-1.39.66a96.5,96.5,0,0,0-17.25.11C143.45,164.9,142.64,165,141.62,165.18Z" fill="#fff"/><path d="M72.93,73c.12,5.17.24,10.67.39,16.17,0,.57-.16.83-.7,1a9.43,9.43,0,0,1-4.89,0c-.48-.14-.64-.32-.6-.84.27-4,.63-8,.71-12.07.12-6.41,0-12.82,0-19.23,0-.7,0-1.39-.06-2.08a.63.63,0,0,1,.55-.74,10.3,10.3,0,0,1,4.78,0c.14,0,.31.39.3.59,0,1.51-.15,3-.19,4.54C73.15,64.48,73,68.58,72.93,73Z" fill="#fff"/><path d="M7.65,17.74,3.8,34.86,0,38.22s10.62-.82,10.62-2.42-3.79-1.27-3.79-1.27L9.36,20.17s7,13.15,7.81,13.21,5.4-14.59,5.4-14.59L25.1,32.72s-2,1.7-2,2.53,6.39.77,6.44-.28-2.42-2.75-2.42-2.75l-2.2-18.66s4.29-1.16,4.12-2-6.93-.28-7.43,1.21S17.5,27.71,17.5,27.71L11.45,14.44s-8.7-.44-8.53.66S7.65,17.74,7.65,17.74Z" fill="#fff"/><path d="M45.19,29a1.31,1.31,0,0,0-1.76-.61l-3.69-5.5s4.08-1.49,4.13-4.68-2.42-8.75-9.3-3.85c0,0-1.32-2.65-2.75-2s-2.53,1.87-1.1,2.81a7.19,7.19,0,0,0,2.47,1.1l.28,13.32s-2.75,1.26-2.37,2.92,5.51-1.88,5.4-2.26-.88-.61-.88-.61l.05-5.72H37.6s4.73,7.82,5.5,7.82S45.69,30.18,45.19,29Zm-7.95-8c-1.24-.11-4.63-2.59-.58-5.83,2.2-1.77,3.36,1.54,3.3,3.19A2.67,2.67,0,0,1,37.24,21Z" fill="#fff"/><rect x="44.96" y="22.81" width="4.45" height="4.45" rx="2.23" fill="#fff"/><path d="M55.82,9.67s.25,19-.42,19.75-3.18,2.1-1.08,2.68,7.36.59,6.11-.58-2.1-2-2.1-2L58,17.12s8.62,13.22,9.29,13.06.25-2.75.67-5.14a63.67,63.67,0,0,1,2.59-7.92l4,14.81s-2.68,1.51-2.68,2.6,9.46.67,9.46-.92S77.08,32,77.08,32L71.3,10.34s4.19-3.43,4-4.43-6.27,2-6.27,2l-2.6,16.79c-1.76-.39-6.36-18.46-7.7-19s-9-.38-8.37,1.63S55.82,9.67,55.82,9.67Z" fill="#fff"/><path d="M88.39,14.15s-1.94-2.83-3.22-2.83a15.23,15.23,0,0,0-3.4.66s-4.5,6.58-4.19,9.14,5,7.9,7.63,7.9,6.71-7.37,6.27-8.08-3.75.23-3.75.23-.62,5.42-2.65,5.07-5.17-2.78-5.17-5.12,1.55-7,4-7.24,3,1.11,3,1.11-1.06,1.14.31,1.72,4.28-.8,3.62-2.34S88.39,14.15,88.39,14.15Z" fill="#fff"/><path d="M111.25,26.28c-4-2.09-9.73,1-9.73,1a4.07,4.07,0,0,1,0-3.16,23,23,0,0,0,6.89-4.88c2.44-2.88.34-8.37-.27-9.86s-4.72-.79-4.72-.79a3.27,3.27,0,0,1,3.3-3.14c1.65-.08,2.1,2.88,4,2.09s-2.26-4-2.26-4L102.2,5.43V9s-6,3.49-6.88,5.41-1.48,5.58-.87,7.33,5.41,2.09,5.41,2.09C98.55,25.5,99.13,29,99.13,29s-7.12,4.76-6.95,11,4.63,6.28,8.29,6.28.61-2.26.61-2.26-2.09-.18-4.27-3-.88-6.37,3.48-10.47,9.34-3.22,11.07.53-1.47,8-3.13,10.12-5.41,4.44-1.66,3.83,7.85-9.24,8.46-11.25S115.21,28.38,111.25,26.28Zm-12.61-6c-1.92-2.54-2.68-4.11.49-7.34,1.39-1.42,4.29-2.19,5.43-1.62s2,2.49,1.84,4.93-.27,3-1.84,3.92S100.56,22.83,98.64,20.28Z" fill="#fff"/><path d="M116.39,11.32V24.93s-2.28,1.19-2,1.79,4.62.4,4.48-.74-.53-13.37-.53-13.37,1.07-2.88,2.81-2.75,2.87,2.21,2.74,5.29c0,0-1.67-.15-1.27,1.23s2.87,2.1,4,2.07,1-1.31,0-2.07c0,0,.8-7.52-3.35-8.06a5,5,0,0,0-5.48,2.81s.26-2.92-.61-2.86S111.37,7.83,116.39,11.32Z" fill="#fff"/><path d="M134.58,11.13c-1.6.14-4.81,4.49-5.35,7.56s-1.6,5.69,0,7.49,3.68,3.68,4.21,2.61-2.2-2.54-2.47-4.61.94-2.56.94-2.56,5-.65,6-1a7.23,7.23,0,0,0,3.54-5.88C141.4,11.67,136.19,11,134.58,11.13Zm2.68,8.1-5.62.8c-.67-1.34.8-4.15,2-6.35s3-.87,4.35.86S137.26,19.23,137.26,19.23Z" fill="#fff"/><path d="M137.32,22.3v3.35s-2.6,2.9-2.07,3.45,3.61-3.4,3.61-3.4l2.54-2.59Z" fill="#fff"/><path d="M141.14,2.17,145.48,4l.74,25.75s-3.61,2-3.28,3.21,5.35-1.27,5.35-1.27l6-16.26s.74,16.93,1.34,18.8,7.42,1.2,7.22,0-4.28-2.34-4.28-2.34l7.29-22s2.48-.11,2.34-1.59-2.2-2.22-4.61-2.15-2.41,1.94-.4,2.94l-4,15.18s-3.27-16.18-4-16.25-6.42,15-6.42,15l-1-18.19s3.54-2.54,3.54-3.34S143-1.71,141.14,2.17Z" fill="#fff"/><path d="M168.23,20.7s4.21-4.15,1.8-5.22S166.83,18.09,168.23,20.7Z" fill="#fff"/><path d="M175.58,20.11c3.65.46,5.15,4.2,4.08,4.8s-1.67-2.32-4.81-2.4-4.62,2.34-3.28,2.8,7.82.94,8.09,4.69-1,6.08-5.48,6.08-8.36-.87-8.43-5.15,2.81-2.47,2.88-.73.2,3.67,3.54,3.67,5.15-.06,5.08-2.67-4.13-3.28-6.48-4.15-2.89-2.27-1.61-4.08S172,19.66,175.58,20.11Z" fill="#fff"/></svg>