<svg xmlns="http://www.w3.org/2000/svg" width="180" height="173" viewBox="0 0 180 173"><path fill="none" stroke="#fff" stroke-miterlimit="10" stroke-width=".83" d="M83.82 42.81l2.3 3.51M64.37 40.77s2.55 4.2 3.45 4.72 13.35 3.9 18.3.83 6-19.2 6-19.2L89.64 24"/><path d="M89.64 24S77 21.2 72.09 22.47s-7.72 16.87-7.72 18.3 14.47 3.07 18.45 2.55S89.74 24.65 89.64 24z" fill="none" stroke="#fff" stroke-miterlimit="10" stroke-width=".83"/><path d="M147.67 23.09a19.9 19.9 0 0 1-1.4 9.26c-.08.22-.16.45 0 .64s.49.07.73 0a20.12 20.12 0 0 1 7.29-1.35 31 31 0 0 1 9.23 2c3.88 1.4 5.58 4.53 6.86 8a17.41 17.41 0 0 1 1 8.9 22 22 0 0 1-4.19 9.46 17.25 17.25 0 0 1-1.64 1.88c-.52.53-.67.82.1 1.36a32.2 32.2 0 0 1 10.5 11.53 35.61 35.61 0 0 1 3.85 16 54.53 54.53 0 0 1-1.2 11.46 39.27 39.27 0 0 1-4.75 12.52 32.83 32.83 0 0 1-8.93 10 36.81 36.81 0 0 1-8.47 4.67 36 36 0 0 1-6.45 1.85 15.18 15.18 0 0 1-3.63.64c-.53 0-.6.42-.67.87-.24 1.6-.5 3.2-.8 4.8a29.1 29.1 0 0 1-3.73 9.41 37.09 37.09 0 0 1-10.87 11.84 21.55 21.55 0 0 1-9.36 4c-4.94.63-9.62 0-13.76-3.06-1.92-1.43-1.91-1.37-3.93 0a9.74 9.74 0 0 1-8.52.94 11.2 11.2 0 0 1-3.55-1.93 1.17 1.17 0 0 0-1.85.14c-1 1.22-2.24 2.24-3.36 3.36a23.36 23.36 0 0 1-8.17 5.3 17.74 17.74 0 0 1-21.64-6.34 21.56 21.56 0 0 1-3.16-7.18c-.06-.26-.15-.51-.23-.76-.49-1.48-.71-1.52-1.84-.42a24.06 24.06 0 0 1-10.17 6.31 17.16 17.16 0 0 1-5.62 1c-1.47-.09-2.95 0-4.43 0a20.17 20.17 0 0 1-13.07-5c-3.35-3-5.13-6.74-6.46-10.88a22.78 22.78 0 0 1-.51-10.65 28 28 0 0 1 2.1-7.14c.16-.38.24-.79.38-1.18.23-.6-.1-.82-.6-1a18.24 18.24 0 0 1-6.09-3.08A17.11 17.11 0 0 1 1.42 114 21.31 21.31 0 0 1 0 104.55a21.89 21.89 0 0 1 1.78-7.32A23.28 23.28 0 0 1 6.37 90a23.78 23.78 0 0 1 4.07-3.56c.62-.42.75-.75.31-1.45a27 27 0 0 1-4.09-15.82 28 28 0 0 1 3.41-12.31 28.19 28.19 0 0 1 8.71-10A19.53 19.53 0 0 1 28 43.37a22.85 22.85 0 0 1 7.05.09 27.48 27.48 0 0 1 7.27 2.63 18.06 18.06 0 0 1 3 2.21 2.64 2.64 0 0 0 .51.44c.43.19.82.76 1.27.51s.2-.84.19-1.28a34.89 34.89 0 0 1 3.15-15 35.85 35.85 0 0 1 10.75-13.7A32.85 32.85 0 0 1 68.05 15a30.7 30.7 0 0 1 9-2.41 31.53 31.53 0 0 1 7.16.26 17.8 17.8 0 0 1 9.37 4.23c1 .84 1.95 1.78 2.92 2.68.56.53.88.75 1.36-.23A39.24 39.24 0 0 1 106 7.78a28.47 28.47 0 0 1 11.28-6.46 31.74 31.74 0 0 1 7.61-1.24c6.2-.44 11.85 1 16.45 5.3a19.65 19.65 0 0 1 5.52 9.82 22.76 22.76 0 0 1 .81 7.89zM12.35 137.22a14.13 14.13 0 0 0 .56 5.88 23.86 23.86 0 0 0 5.67 9.9 17.69 17.69 0 0 0 10 4.88c2.72.49 5.5.22 8.26.24a2.24 2.24 0 0 0 1.23-.16c1.21-.71 2.66-.54 3.94-1.15a22.24 22.24 0 0 0 4.37-2.24 45.47 45.47 0 0 0 5.57-4.8c.7-.76 1.19-.59 1.49.43A39.5 39.5 0 0 0 55 155a20 20 0 0 0 5.2 7.57 18.51 18.51 0 0 0 8.24 3.93 16.51 16.51 0 0 0 7.38-.22 19 19 0 0 0 7.27-3.71 37.35 37.35 0 0 0 5.89-5.9c1-1.21 1.1-1.2 2.28-.09 1.75 1.63 4 2.18 6.2 2.68 2.53.58 4.79-.65 6.76-2.18 1.4-1.08 1.4-1.18 2.81-.17a18.61 18.61 0 0 0 6.36 3.24 20.56 20.56 0 0 0 9.49 0 20.09 20.09 0 0 0 6-2.74 25 25 0 0 0 6.51-5.56 38.44 38.44 0 0 0 4.92-6.84 31.45 31.45 0 0 0 2.22-5.64c.52-1.85.74-3.77 1.11-5.66a3.77 3.77 0 0 1 4-3.44 18.27 18.27 0 0 0 3.89-.95 42.17 42.17 0 0 0 6.09-2.28 28.75 28.75 0 0 0 6.52-3.75 35.49 35.49 0 0 0 5.24-5.09 36.05 36.05 0 0 0 3.59-5.33 22.15 22.15 0 0 0 2-3.47 42.72 42.72 0 0 0 1.8-6.17 58.09 58.09 0 0 0 1.26-13 36.74 36.74 0 0 0-2.43-11.9 33.8 33.8 0 0 0-7.6-11.54c-1.13-1.17-2.51-2.06-3.56-3.31a1.3 1.3 0 0 1-.14-1.75c1.06-1.51 2-3.08 2.94-4.68a17 17 0 0 0 2.29-8.82 21.49 21.49 0 0 0-.51-3 11.14 11.14 0 0 0-1.61-4.62 13.3 13.3 0 0 0-8.3-5.93 26.38 26.38 0 0 0-6.46-.71 65.43 65.43 0 0 0-7 .55c-.65.09-.88-.11-.79-.82s.35-1.62.5-2.43a32.42 32.42 0 0 0 .09-12.57 22.65 22.65 0 0 0-4.17-9.89 17.34 17.34 0 0 0-11.47-6.59 27 27 0 0 0-10.54.41 35.8 35.8 0 0 0-7.44 2.82 25.15 25.15 0 0 0-9.41 9.11c-1.34 2-2.53 4.18-3.78 6.28-.35.59-.73.82-1.36.36-1.25-.91-2.48-1.85-3.78-2.67a21.86 21.86 0 0 0-7.07-3.37 38.7 38.7 0 0 0-4.43-.93 20.33 20.33 0 0 0-6.81.22 43.61 43.61 0 0 0-6.83 2.13 30.19 30.19 0 0 0-6.77 4.21 35 35 0 0 0-4.55 4.56 30.48 30.48 0 0 0-5.25 8.4 38.53 38.53 0 0 0-2.7 14.48v3.53c0 .44-.06.86-.5 1.05s-.65-.26-.91-.5a32.83 32.83 0 0 0-6.85-5.16 16.3 16.3 0 0 0-5.92-2.07 39.11 39.11 0 0 0-6.77-.16 18.4 18.4 0 0 0-7.25 2.25 22 22 0 0 0-6.45 5.61 24.72 24.72 0 0 0-4.46 8A32.48 32.48 0 0 0 8.58 68a27.21 27.21 0 0 0 .78 8.62 31.49 31.49 0 0 0 3.45 8c.48.89.17 1.33-.56 1.69a18.19 18.19 0 0 0-7.38 7.32A21.53 21.53 0 0 0 2.37 111 15.94 15.94 0 0 0 10 121a20.42 20.42 0 0 0 3.33 1.36c1.49.51 1.66.86 1.25 2.34-.3 1-.75 2.06-1 3.11-.74 3.06-1.53 6.19-1.23 9.41zM157.13 151.34a3.59 3.59 0 0 1-3.6-2.09 3.7 3.7 0 0 1 .3-3.84c1.11-1.9 2.93-3.24 3.81-5.3a16.76 16.76 0 0 1 1.12-2.19c1-1.51 2.65-2.43 3.94-1.93 2.68 1 3.35 2.14 2.93 4.52-.3 1.68-1.31 3-2 4.49a20.18 20.18 0 0 0-.78 1.88c-1.01 2.49-3.11 4.79-5.72 4.46zm3.1-9.54a3 3 0 0 0 3-1.69 2.12 2.12 0 0 0-.46-2.92 2.42 2.42 0 0 0-3.15.87 9.25 9.25 0 0 0-.73 1.78c-.54 1.49-.2 1.96 1.34 1.96zM39.77 22.51c.32 2.72-2.06 5.95-4.31 6.71-3.84 1.28-7.69-1.1-7.44-5.34.16-2.84 2.49-6 5.08-6.42 1.49-.24 3.09-.5 4.49.52a4.9 4.9 0 0 1 2.18 4.53zm-6.59-3.88c-1.14.06-2.27 1.2-3.09 2.46a4.41 4.41 0 0 0-.09 4.35 1.52 1.52 0 0 0 1.69.91c1.83-.36 4.29-2.75 4.49-4.63a2.82 2.82 0 0 0-3-3.09z" fill="#fff"/><path d="M91.4 164.29a3.77 3.77 0 0 1 3.84 3.47c0 2.37-2.45 5.24-4.57 5.08a3.88 3.88 0 0 1-3.83-3.61c0-2.78 2.16-5.23 4.56-4.94zm-3.19 3.86c0 1.46.33 1.74 1.76 1.82 2.1.1 3-1.44 3.2-3.18a1.8 1.8 0 0 0-1.9-1.82 3.05 3.05 0 0 0-3.06 3.18zM108.25 67.23c-.1 1.68-.2 3.36-.28 5-.1 2.08-.2 4.15-.26 6.23 0 1-.44 1.57-1.57 1.61a19.29 19.29 0 0 0-4.85.36c-.93.25-.86-.56-.8-1.08a25.26 25.26 0 0 1 .59-3.46 58.81 58.81 0 0 0 1.51-11.21c.18-2.87.38-5.73.33-8.6 0-.82.35-1.18 1.19-1.33a26.69 26.69 0 0 1 4.71-.56 1.89 1.89 0 0 1 1.79.87c2.18 3.13 3.53 6.67 5 10.15.14.32.13.87.61.81s.38-.58.41-.93a73.65 73.65 0 0 1 2-10 .93.93 0 0 1 1.13-.84c1.79.22 3.55.57 5.38.64 1 0 .78 1 .51 1.71-.59 1.47-1.28 2.9-1.85 4.38-1.53 4-2.31 8.21-3.37 12.34-.39 1.54-.65 3.1-1 4.64a1.89 1.89 0 0 1-1.81 1.46c-.52.06-1.06 0-1.59 0-2.26 0-2.23 0-3.15-2.12-1.37-3.19-2.81-6.35-4-9.61a4.56 4.56 0 0 0-.3-.58zM133.2 80.73c-4.83-.57-8.1-1.92-9.36-6.81a13.2 13.2 0 0 1 1.09-8.84 18.56 18.56 0 0 1 8.84-9.39 10.92 10.92 0 0 1 8.18-1 9.79 9.79 0 0 1 4.57 2.43c1 1.05 1 1.59-.06 2.58-1.44 1.39-2.9 2.77-4.36 4.14-.44.42-.89.79-1.41.09-1.89-2.54-3.42-2.37-5.68-.81a10.06 10.06 0 0 0-4.28 6 5.87 5.87 0 0 0 0 2.25c.24 1.83 2.81 2.63 4 2.31a1.25 1.25 0 0 0 1-1.24c.09-1 .21-2 .36-3 .11-.71.33-1 1.28-.83a10.39 10.39 0 0 0 6.56-.3 4.69 4.69 0 0 1 1.9-.23c.65 0 .83.44.68 1-.31 1.29-.63 2.57-1 3.85-.15.55-.4 1-1.07 1s-.78.37-1 .79a10.2 10.2 0 0 1-7.88 5.56c-.92.03-1.72.64-2.36.45zM51.82 85.19c-.17-6.16-.43-12.31-1.11-18.43a1.19 1.19 0 0 1 .49-1.18 27.76 27.76 0 0 1 5.21-3.12c.41-.2.85-.33 1.23-.56 1.81-1.09 3.81-.83 5.74-.69A3.24 3.24 0 0 1 66 63.27a6.76 6.76 0 0 1 .06 5.4 11.85 11.85 0 0 1-2.83 4.07c-.22.2-.5.41-.4.75s.49.27.78.32a2.07 2.07 0 0 1 .76.18 32.88 32.88 0 0 1 8.38 7.53c.54.7 0 1.11-.42 1.37-1 .6-2.13 1.1-3.22 1.61-.74.35-1.53.61-2.26 1-1.34.67-2 .57-2.94-.62-1.6-2-3.17-4-4.75-6.07-.2-.26-.41-.68-.77-.55s-.19.65-.15 1c.3 2.24.64 4.48.81 6.74A1.54 1.54 0 0 1 58 87.72c-1.69.7-3.36 1.49-5 2.27-.8.38-1.15.1-1.16-.72-.03-1.36-.02-2.72-.02-4.08zM57 69.41c.18 2.3.29 2.35 2.2 1.09a5.33 5.33 0 0 0 .79-.63c.54-.54 1.44-1 1-1.93s-1.44-.51-2.17-.39c-1.53.24-1.88.68-1.82 1.86zM101.39 25.48c.35-4 1.8-6.05 5.69-7.31a4.91 4.91 0 0 0 3.46-3 9.36 9.36 0 0 1 4.29-5.17c3.69-2.1 8.08-1.05 9.5 3.52a13.71 13.71 0 0 0 3.17 5.6 6.71 6.71 0 0 1 1.71 6.15 8.34 8.34 0 0 1-4 6 7 7 0 0 1-5.88.77A39.09 39.09 0 0 1 114 29.6a3 3 0 0 0-2.21-.21c-1 .31-2 .48-2.93.8-3.04 1.01-7.86-.34-7.47-4.71zm5.74 1.1a5.35 5.35 0 0 0 3.87-.68c2-1 3.8-2.19 4.41-4.54a3.64 3.64 0 0 0-1.53-4 3 3 0 0 0-3.45.38 9.63 9.63 0 0 1-2.76 1.51 7.55 7.55 0 0 0-3.68 2.1c-1.58 1.89-1.27 4.27.72 5.06a7 7 0 0 0 2.42.17zM42.09 66.73c1.92 0 3.35-.08 4.64.81.72.5 1.07 1 .62 1.87-1 2-2 3.92-3.13 5.79-.29.47-.54.9-1.24.43-2.49-1.68-3.75-1.25-5.67 1.1a9.22 9.22 0 0 0-2.15 6.08c0 1.65.33 3.1 1.94 3.93 1.45.75 2.72.07 3.93-.61a8.13 8.13 0 0 0 2.74-2.34c.54-.77 1-.7 1.65-.06C46.6 85 47.8 86.17 49 87.35a1.32 1.32 0 0 1 .15 2 11.46 11.46 0 0 1-5.54 4.09A14.86 14.86 0 0 1 35 94a8.61 8.61 0 0 1-5.76-5.22c-1.69-4-1.32-8 .15-11.84a15.9 15.9 0 0 1 7.85-9 9.6 9.6 0 0 1 4.85-1.21zM106.29 119.73c0 .22.11.47.4.46s.33-.26.36-.48a5.16 5.16 0 0 0 0-.68q.12-6.28.23-12.56a3.46 3.46 0 0 1 .41-1.84c.32 0 2.56-.06 2.75-.12 1-.3 1.33.13 1.33 1 0 .18-.19 9.28-.28 11.88a17.36 17.36 0 0 1-.86 6 5.12 5.12 0 0 1-4.72 3.08c-1.81 0-3.22-1.46-3.72-3.56-.25-1-.46-2.06-.67-3.09-.26-1.33-.5-2.67-.77-4 0-.24-.06-.61-.41-.59s-.54 1.29-.57 1.62q-.39 4.29-.76 8.57c0 .37.07.81-.26 1.07a4.65 4.65 0 0 1-3.8.65c-.91-.15-.48-1.95-.5-2 .15-.39.32-3.19.45-4.19.5-4 .94-7.94 1.4-11.92l.08-.53a5.78 5.78 0 0 1 4-4 2.37 2.37 0 0 1 3 1.19c.31.92 2.49 12.1 2.91 14.04zM75.06 58.58c.66-.15 1 .31 1.25.84.78 1.47 1.55 2.95 2.34 4.41.13.24.2.67.58.59s.36-.46.44-.74a52 52 0 0 0 1.5-5.1A2.8 2.8 0 0 1 84 56.21c1.39-.15 2.79-.05 4.19-.19.92-.1 1.17.38.8 1.28-1.66 4-2.92 8.11-4.18 12.23a15.55 15.55 0 0 0-.27 4.62c0 2.24-.32 4.45-.46 6.67-.09 1.43-1.4 1.36-2.25 1.69-1.28.51-2.68.7-4 1.2a3 3 0 0 1-1.35.14c-.48 0-.74-.26-.67-.82a62.64 62.64 0 0 1 1.39-7.45c.2-.81.4-1.62.59-2.42.14-.63-.24-1-.67-1.33a34.68 34.68 0 0 1-5.6-6.07 15.39 15.39 0 0 1-2.06-4c-.25-.67-.14-1.32.51-1.54 1.69-.59 3.22-1.56 5.09-1.64zM68.48 162.24a4.47 4.47 0 0 1-2.82-.87 4 4 0 0 1-1.4-4.57 13.89 13.89 0 0 0 .19-6c-.62-3.93.7-6 4.08-7.7a7.17 7.17 0 0 1 5.18-.34c1.79.48 3.37-.07 5-.63 3.38-1.12 5.7.14 6.45 3.73 1 4.59-2 8.45-6.35 10.07a9.73 9.73 0 0 0-4.68 3.64 6.37 6.37 0 0 1-5.65 2.67zm-2.57-12.33c.13.77.3 1.88.51 3 .06.33.2.74.54.81a10.48 10.48 0 0 0 3.32.51 8.71 8.71 0 0 0 5.6-2.45c1-1.1 1.77-2.29 1.3-3.75a3.7 3.7 0 0 0-3.18-2.47 17.94 17.94 0 0 0-4.15.11c-2.51.13-3.85 1.43-3.94 4.24zM57 130.05c.39-5.21.46-10.42.46-15.64 0-2.1.59-2.83 2.63-3.49a20.6 20.6 0 0 1 6-1.17 4.53 4.53 0 0 1 4.66 3.68 5.88 5.88 0 0 1-1.2 5.43 1.26 1.26 0 0 0-.08 1.79c1.53 2.35 2 5.12 3.07 7.66a.64.64 0 0 1-.34.86c-1.11.63-2.21 1.29-3.36 1.85-.65.31-1-.09-1.24-.75-.35-1.19-.7-2.39-1.13-3.56a8.94 8.94 0 0 0-1.84-3.22 2 2 0 0 0-2.08-.49c-.78.18-.54.91-.58 1.43-.15 2.22-.31 4.44-.37 6.67 0 .87-.28 1.28-1.16 1.46a14.63 14.63 0 0 1-2.2.5c-.88.07-1.39-.2-1.3-1.19.06-.6.06-1.21.06-1.82zm5-13.78c.09 1.85.18 1.9 1.88 1.22.21-.09.44-.11.65-.19.74-.3 1.57-.6 1.48-1.58s-1.06-1.1-1.81-1.16c-1.78-.16-2.2.25-2.2 1.71zM112.52 124.33v-1c.39-1.54 1.56-14.62 1.76-17.17a2.63 2.63 0 0 1 2.54-2.68c7.29-1.06 9.87 3.11 9.93 3.16a13.73 13.73 0 0 1 .95 5c0 1.9-.95 6.17-2.52 7.91-1.18 1.72-5.7 6-10.21 6a2.24 2.24 0 0 1-2.45-1.22zm5.56-3.93c.55.3 1-.26 1.37-.56a8.67 8.67 0 0 0 3.36-5.69c.56-3.23-.19-4.85-2.88-6.1-.55-.26-1.13-.44-1.21.5-.27 3.45-1.16 11.56-.64 11.85zM99.09 57.32c-.28 2.22-.57 4.92-1 7.61a27 27 0 0 0-.44 4.39c0 3.25.07 6.51-.15 9.76a1.11 1.11 0 0 1-.89 1.2 12 12 0 0 1-3.8.57 5.31 5.31 0 0 0-2.22.35c-1 .41-1.35.09-1.26-1 .17-1.92.38-3.83.61-5.75.44-3.71.81-7.43 1.06-11.17.14-2.08.13-4.16.17-6.24 0-1.24.38-1.58 1.65-1.63a34.3 34.3 0 0 0 4.52-.29c1.66-.26 1.8.01 1.75 2.2zM85.43 118.68c-.5-.08-.62.14-.43.57a23.22 23.22 0 0 0 0 3.75c-.12.56-.27 1.26.55 1.29a8.68 8.68 0 0 0 3.45-.19 9.51 9.51 0 0 1 4.09-.45v3.72l-.29.48c-2.41.37-4.82.71-7.23 1.14a11.45 11.45 0 0 1-2.92.17c-1.4-.1-2.38-1.44-2.43-3.45-.08-2.9 0-5.81-.1-8.71-.11-3.08.13-6 2.12-8.56l.22-.16A17.47 17.47 0 0 1 92.88 106c.34 0 .78 0 .87.37a5.57 5.57 0 0 1-.23 3.33c-.32.84-1.19.61-1.79.56-1.94-.18-3.71.55-5.56.84a2 2 0 0 0-1.21 2.5c.3 1 1.07.48 1.62.37a17.75 17.75 0 0 1 3.25-.43c.75 0 1.13.29 1.07 1.07s-.11 1.51-.09 2.26-.32 1-1 1.06a33.42 33.42 0 0 0-4.38.75z" fill="#fff"/><path d="M128.66 110.48v-1.22c.17-.57.34-1.13.5-1.7a10.7 10.7 0 0 1 2.26-3.59h.06c4.47-4.06 9.29-.4 9.73-.2a30 30 0 0 1-1.62 2.84c-.42.69-1 .86-1.61.41a3.49 3.49 0 0 0-2.16-.49 2.51 2.51 0 0 0-2.55 1.84 2.22 2.22 0 0 0 .86 2.61c.94.75 2 1.39 2.92 2.11 2.28 1.69 3.58 3.82 3.13 6.78a7.34 7.34 0 0 1-6.36 5.68c-2.38.33-6.78-.53-8.72-2.37-.6-.58-.82-.92-.19-1.64.84-.94 2.32-2.57 2.56-2.8.47-.47 1.68 1.08 2.39 1.44a7.13 7.13 0 0 0 4.08 1 1.83 1.83 0 0 0 1.59-2.75c-.44-.92-6.18-3.21-6.87-7.95zM42 98l.67.68a4.51 4.51 0 0 1-.34 3.81c-.55 1-.18 1.36.75 1.62a3 3 0 0 1 2.22 2.44 5.3 5.3 0 0 1-.79 3.77c-.38.7-1.15 1.1-1.37 1.91a25.32 25.32 0 0 1-7.07 4.13c-2.09.81-2.6.61-2.94-1.58-.6-4-1.14-7.91-1.7-11.86a2.46 2.46 0 0 1 .92-2.63c2.96-1.97 5.91-3.88 9.65-2.29zm-1.68 12.3a1.56 1.56 0 0 0 1-1.88c-.19-.8-1-.67-1.6-.73a8.49 8.49 0 0 0-2.46.23 1 1 0 0 0-.93 1.28 3.46 3.46 0 0 0 .4 1.5v.46c-.08.56.07 1.14.72.9a4.63 4.63 0 0 0 2.87-1.76zm-5-7.36c.21.51.07 1.31.59 1.61s.94-.35 1.34-.65a15.59 15.59 0 0 0 1.56-1.48c.33-.32.38-.69 0-1-.83-.65-1.67-.14-2.48.08a1.44 1.44 0 0 0-1 1.44zM121 88.37c-.14 3.55-.63 7.06-1.07 10.58a.85.85 0 0 1 0 .23c-.22.62-2.33 1-3.78.63-1-.21-.57-.88-.5-1.44.15-1.24.31-2.47.47-3.71.11-.8-.19-1.16-1-1.18-1.76 0-1.75-.06-2 1.71-.18 1.23-.4 2.45-.56 3.68a.91.91 0 0 1-.83.92c-.82.11-1.64.19-2.46.29s-1.18-.32-1.07-1.14c.31-2.31.59-4.63.94-6.94a14.52 14.52 0 0 1 2.33-6.3 7.31 7.31 0 0 1 5.06-3.09c2.3-.37 4.3 1.56 4.55 4.28a14.61 14.61 0 0 1-.08 1.48zm-5.81 1.27c1.59 0 1.85-.35 1.39-1.84a4.49 4.49 0 0 0-.42-.92.75.75 0 0 0-.76-.39 3.92 3.92 0 0 0-1.59 2.56c.13.95.93.42 1.35.59zM59.27 106.51c0 .13-.07.27-.11.4-.5.55-1 1.12-1.5 1.65-1.23 1.21-2.38.55-3.51-.19a.37.37 0 0 0-.16-.09L51.1 105a.56.56 0 0 0-.6-.22.34.34 0 0 0-.24.44c.36 1.33.05 2.77.64 4.06l.1.72a1.17 1.17 0 0 1-.59.8 16.42 16.42 0 0 1-3.29 1.2 8.63 8.63 0 0 1-.2-.88c-.53-3.84-1.08-7.67-1.57-11.51-.21-1.66-.63-3.41 1-4.71a10.34 10.34 0 0 1 5-2.08c1.79-.27 3.7-.34 5.2 1.12.7 1 .93 3.94-.88 5.33-.39.33-.79.66-1.2 1-.83.63-.82 1.24 0 1.83a.54.54 0 0 0 .44.47l.23.22a3.64 3.64 0 0 0 2 1.88 3.42 3.42 0 0 1 2.13 1.84zm-7.93-9.94a5.53 5.53 0 0 0-1.23.1c-1 .32-1 1.1-.76 1.93.11.47.29.78.84.62a5.3 5.3 0 0 0 2.47-1.5c.5-.55.31-1-.42-1.1a5.41 5.41 0 0 0-.9-.05zM53.54 122.57a3.63 3.63 0 0 1 0 1.39c-.07.52-.35.88-.88.85-1.33-.08-2.46.69-3.77.74-.84 0-1.08.73-1 1.48.06 1.74.11 3.48.22 5.22.17 2.59 0 2.85-2.62 3.26-.22 0-.45 0-.67.05-1.41.11-1.64-.08-1.68-1.53-.08-2.8-.12-5.6-.22-8.4a51.77 51.77 0 0 0-.3-3.72 7.34 7.34 0 0 1 5.1-8.21c1.25-.37 6.14-1.58 7.37-1.51.82 0 1.31.22 1.27 1.14a3.78 3.78 0 0 0 .08.56c.22 2.46.09 2.37-2.33 2.84a31.55 31.55 0 0 0-5.73 1.19c-.74.29-.7.91-.82 1.47a2.58 2.58 0 0 0 .32 2c.14.23.41.06.62 0 1.06-.39 2.2-.45 3.29-.76 1.52-.43 1.67-.22 1.77 1.35-.05.14-.04.33-.02.59zM95.1 96.9c.66-.21.77.07 1 .48 1 1.81 1 1.81-.79 2.93a9.52 9.52 0 0 1-.87.52c-1.72.87-2.45.63-3.38-1.08a9.82 9.82 0 0 1-.56-1.24c-.48-1.2-.91-2.41-1.42-3.58-.14-.32-.16-1-.7-.82s-.45.77-.35 1.2A16.11 16.11 0 0 1 88.2 99c0 2.36 0 2.36-2.34 2.5-1.43.09-1.52 0-1.5-1.37.08-4-.3-8-.07-12 .14-2.34-.2-2.31 2.17-2.28a2.19 2.19 0 0 0 .68-.07c.62-.19.83.06.81.66v2.61c0 .32-.15.76.23.91s.71-.15 1-.41a12.59 12.59 0 0 0 3.08-3.88 1.32 1.32 0 0 1 2-.77 3.25 3.25 0 0 0 1.66.29 2.74 2.74 0 0 1-.32 1 28.84 28.84 0 0 1-2.91 4.14c-.22.31-.55.62-.39 1 .52 1.34 1.91 5.85 2.8 5.57zM153.1 49.12c2.29 0 3.45 1 3.77 3.27.14 1 .35 1 1.11.44 1.92-1.49 3-1.63 4.57-.55a4.13 4.13 0 0 1 1.45 4.95 7.46 7.46 0 0 1-6 4.22c-.91 0-1.8-1.26-1.25-2 .79-1 .39-1.91 0-2.86-.26-.68-.74-.75-1.22-.24a23.34 23.34 0 0 1-2.88 2.17 1.64 1.64 0 0 1-2.09 0c-.67-.42-.47-1-.2-1.61a1.35 1.35 0 0 0-.26-1.46c-1.52-2.2-1.12-4.3 1-5.94.7-.51 1.39-.31 2-.39zM69.44 91.91a2.18 2.18 0 0 1 0 .25c-.25.15-.49.41-.77.45-1.82.27-3.57.83-5.35 1.24-.56.12-.84.38-.78.9.09.76 0 1.59.54 2.22.06.07.32 0 .42 0 .72-.52 1.67-.35 2.43-.85.47-.3 1.25-.52 1.65.31.63 1.33.5 2.34-.42 2.71S65 99.87 64 100.2c-.35.1-.63.18-.72.59A1.66 1.66 0 0 0 65 103c1.24 0 2.29-.71 3.53-.73 1.69 0 1.68-.11 2 1.65.07.45.28 1.06-.27 1.18a17.23 17.23 0 0 1-2.54.86 27.84 27.84 0 0 0-4.51.87 2.16 2.16 0 0 1-1.81-.16 3.76 3.76 0 0 1-1.75-3.13c-.29-2.21-.52-4.42-.85-6.62a5.84 5.84 0 0 1 4.75-6.63 43.59 43.59 0 0 0 4.39-1c.7-.2 1-.08 1 .66s-.13 1.41.5 1.96zM148 118.54c-1-.21-2.14-.43-3.3-.74-.51-.14-.44-.65-.35-1.06.72-3 1.41-6 2.19-9 .72-2.8 1.55-5.59 2.33-8.38.26-.93.72-1.1 1.6-.73a11.75 11.75 0 0 0 3.42 1c.88.09 1.07.42.85 1.26-.7 2.63-1.72 5.15-2.55 7.74-.94 2.94-1.85 5.9-2.78 8.85-.17.52-.41 1.14-1.41 1.06zM103.19 83.18c1.71-.19 3.44-.1 5.14-.38.9-.15 1.58 0 1.43 1.2-.11.93-.15 1.87-.22 2.8l-.23.21h-6c-1.41 0-1 1.14-1.13 1.88s.49.67 1 .61h3c0 .7.09 1.4.13 2.11 0 .3-.05.6-.07.91a1.26 1.26 0 0 1-1.54 1.09 10.43 10.43 0 0 0-1.25 0 1.12 1.12 0 0 0-1.3 1.32 20.65 20.65 0 0 1-.16 2.48c-.22 2.28-.19 2.22-2.47 2.36-1.15.08-1.41-.31-1.37-1.39.13-3 .15-6 .21-9l.06-.91a7 7 0 0 1 2.26-4 9.43 9.43 0 0 1 2.51-1.29zM20.62 75.23c-.63-1.7 0-3.21.16-4.76a2 2 0 0 1 1.09-1.62c.57-.32 1.21-.39 1.53.37s.82.78 1.47.78c1.8 0 3 .73 3.4 2A4.12 4.12 0 0 1 22 76.39c-.18-.12-.37-.33-.6-.21s-.24.53-.22.81a3.81 3.81 0 0 1-2 3.87 3.48 3.48 0 0 1-4.21-.3 3.67 3.67 0 0 1-1.4-3.72 18.06 18.06 0 0 1 1.3-3.63c.34-.8 1.08-.76 1.74-.78s.7.57.81 1 .15.72.56.76a4.08 4.08 0 0 1 2.64 1.04zM78.24 128.39c0 1-.23 1.5-1.3 1.56a10.78 10.78 0 0 0-2 .45c-1 .25-1.41-.14-1.38-1.15.09-3.4-.32-6.79-.38-10.19a88.16 88.16 0 0 0-.44-9c-.17-1.36 0-1.43 1.34-1.56a11.49 11.49 0 0 0 2.1-.42c.77-.23 1.09 0 1.24.78.41 2.14.79 17.19.82 19.53zM114.32 38.08a6.74 6.74 0 0 1-4.64 6.39c-2.56.81-4.45.34-6-1.86a5.64 5.64 0 0 1-.41-5.22c1.31-3.52 4.35-4.66 7.73-4.1 2.17.34 3.32 2.27 3.32 4.79zm-7.56 3.08a7.92 7.92 0 0 0 5-3.08 2 2 0 0 0 0-2.6 7.84 7.84 0 0 0-3.7-1c-1.82.32-2.7 1.72-3.54 3.07-1.12 1.76-.07 3.59 2.24 3.61zM121.61 140.43c3.38 0 5 2.34 4.06 5.65a6 6 0 0 1-3.57 4 7.44 7.44 0 0 1-3.49.1c-.81-.07-1.19-.88-1.72-1.39-1.33-1.29-1.52-2.75-.7-4.69a5.63 5.63 0 0 1 5.42-3.67zm-.61.88a4 4 0 0 0-3.55 2.75 2.06 2.06 0 0 0 2.19 3 4.31 4.31 0 0 0 3.33-2.84c.7-2.03.1-2.91-1.97-2.91zM159.54 104.76a5.57 5.57 0 0 1 3.69-5.31 4 4 0 0 1 5.11 4.11c-.28 2.73-3 4.61-5.39 4.78a3.49 3.49 0 0 1-3.41-3.58zm3 0a2.51 2.51 0 0 0 2.52-2.06c.52-1.58-.31-2.08-1.82-2-1 0-2.1 1.53-2.14 2.59-.05 1.33.09 1.48 1.44 1.49zM145.14 120.92c1-.2 1.63.39 2.12 1.29a2.84 2.84 0 0 1-.18 3.1 4.81 4.81 0 0 1-1.71 1.61 2.69 2.69 0 0 1-4-2.4 3.74 3.74 0 0 1 3.77-3.6zM82.69 99.81c0 2.36-1.72 3.52-3.4 2.87-.43-.16-.38-.51-.4-.84q-.14-2-.24-4c0-.71-.23-1.19-1.11-.92-.32.09-.68 0-1 .09-1.19.22-1.55.79-1.4 2s.25 2.25.28 3.37a1.26 1.26 0 0 1-1.29 1.51 10.38 10.38 0 0 0-1.61.52c-.49.12-1 .16-1-.63-.14-3-.16-6-.12-9A10 10 0 0 1 72.75 90a6 6 0 0 1 6.38-3A3.15 3.15 0 0 1 81 88.62c1 1.65 1 3.54 1.19 5.37.26 2.14.38 4.29.5 5.82zM78 92.35c-.18-.6-.19-1.57-1.27-1.69s-1.15.75-1.29 1.5a1.89 1.89 0 0 0 0 .23c0 .49-.56 1-.08 1.48s1-.09 1.43-.27a2.18 2.18 0 0 1 .65-.18c.49-.06.56-.42.56-1.07zM128.13 88.68c.55 1 2.86 2.42 3.12 2.62 2.95 2.28 1.36 7.22-1.8 8.75-2.55 1.24-4.75.53-6.91-.81-1.52-.93-1.49-1-.51-2.46.37-.57.76-1.12 1.15-1.68s.91-.72 1.49-.13a2.81 2.81 0 0 0 2.46 1.12c.46-.06.92 0 1.16-.54a.93.93 0 0 0-.41-1.18c-.7-.58-1.4-1.15-2.14-1.67a5.19 5.19 0 0 1-2.27-5.08 5.5 5.5 0 0 1 4.38-4.32 7.48 7.48 0 0 1 4.73.58c.67.35.76.76.38 1.36a5.87 5.87 0 0 0-.43.67c-.3.64-.48 1.45-1.1 1.8s-1.3-.31-2-.47a1.85 1.85 0 0 0-1.63.52c-.25.24-.1.71.33.92zM145.16 89.33a6 6 0 0 1-.73 0c-2-.31-2-.31-2.57 1.62-.87 2.94-1.93 5.8-3 8.68-.34.94-.77 1.49-1.91 1.17a6.83 6.83 0 0 0-1.92 0c-.82 0-1.07-.27-.84-1.11.7-2.59 1.65-5.1 2.5-7.64.29-.9.53-1.81.84-2.71.25-.74 0-1-.76-1.11s-1.47-.35-2.2-.51c-.57-.12-.76-.4-.53-1a10.07 10.07 0 0 0 .27-1c.63-2.07.66-2.08 2.81-1.54a33.81 33.81 0 0 0 7.88 1.06 4.22 4.22 0 0 1 1 .13c1.3.34 1.43.6 1 1.82a6.86 6.86 0 0 0-.34 1c-.24.87-.73 1.29-1.5 1.14z" fill="#fff"/></svg>