<svg xmlns="http://www.w3.org/2000/svg" viewBox="0 0 280 80"><path d="M42.96 49.82l7.66 3.64c1.09-6.62 1.7-13.81 2.03-20.72l-9.69 17.07zM0 60.11h.02C0 60.1 0 60.1 0 60.11zM155.13 39.06l-2.86-.03V33.7l-11.1-20.85-12.16 21.42v5.77l-3.19-.15-8.06 14.21 10.66 5.07 2.81-8.44 15.87.6 3.72 9.31L162.54 53l-7.42-13.93zm-20.07 3.89l4.72-11.97 4.66 11.97h-9.38z" fill="#fff"/><path fill="#fff" d="M127.98 36.09l-1.57 2.77 1.57.08v-2.85zM110.41 34.33v3.79l1.11.06-1.11-3.85z"/><path fill="#fff" d="M110.41 29.62v8.5l17.57.82V28.81l-17.57.81zM153.32 34.54V38l1.85.02-1.85-3.48zM51.97.63L28.93 5.46c.39 2.71 2.29 16.33 3.6 29.88 2.98 30.95-.03 31.45-1.16 31.64-2.67.45-5.87-2.75-9.5-9.51-2.08-3.88-3.73-7.88-4.34-9.4-1.31.98-4.75 3.56-8.19 6.1-5.2 3.84-7.45 5.45-8.5 6.09.06.07.12.15.19.24 11.67 14.38 24.4 20.89 35.84 18.33 7-1.57 10.93-11.87 13.09-24.53l-8.45-4.02L52.17 31.5c.62-14.75-.03-27.94-.19-30.87zM196.49 46.54c.84 1.32 1.85 2.57 3.05 3.71l-.02-3.82c-.9.04-1.92.08-3.03.12z"/><path d="M245.34 25.37c-3.53.09-7.5.22-8.72.26l-.54.02V15.13c-3.88-1.97-8.73-3.02-14.43-3.02-19.36 0-28.18 12.5-28.18 24.12 0 3.14.79 6.36 2.41 9.29 1.56-.04 2.95-.1 4.12-.16l.54-.03.04 5.84c4.09 3.39 10 5.64 17.88 5.64 22.25 0 28.18-14.8 28.18-23.54 0-2.89-.45-5.53-1.31-7.89zm-26.15 22.47c-5.99 0-9.87-4.93-9.87-12.55 0-9.82 5.76-14.22 11.46-14.22 6.36 0 10.01 4.6 10.01 12.62 0 8.99-4.23 14.14-11.61 14.14z" fill="#fff"/><path d="M280 24.56V12.11c-5.53.41-37.54 2.23-42.88 2.16v10.3c2.78-.09 11.1-.34 13.61-.34h.52v.52c0 1.19-.07 27.72-.13 32.09h17.58c-.41-4.4-2.65-30.85-2.76-32.05l-.05-.56h.57c.53 0 10.81.24 13.54.34z" fill="#fff"/><path d="M237.12 15.13v9.44c1.64-.06 5.19-.16 8.35-.25-1.66-3.93-4.5-7.03-8.35-9.2zM67.84 47.43l3.15 7.87 9.82-6.4-18.06-33.94-19.78 34.86 8.9 4.23 2.38-7.14 13.6.52zM61.56 30l4.07 10.47h-8.2L61.56 30z" fill="#fff"/><path fill="#fff" d="M76.48 40.76l-2.49 9.23 3.93.79 2.89-1.88-4.33-8.14z"/><path fill="#fff" d="M111.28 39.2l-1.91-.08V32.6l-5.03-17.42-9.48 15.92-11.15-17.14-6.83 25.33 5.3 9.96-2.8 1.82 6.51 1.32 1.04-16.89 6.62 13.63 6.64-12.28 3.28 15.52 10.77-2.94-2.96-10.23zM171.65 38.2l-.72-8.09-17.61-.56V38l18.33.2z"/><path d="M170.93 30.11l-.83-.03v8.1l1.54.02-.72-8.09z" fill="#fff"/><path d="M199.52 46.42c-3.42.17-8.4.26-14.12.26h-.51v-.51c-.02-1.29-.36-29.75-.34-34.55l-14.49 2.3c.02 1.76.04 7.95.05 15.13l1.79.06.9 10.15-2.68-.03v17.52l29.47.63-.07-10.95z" fill="#fff"/></svg>