<svg xmlns="http://www.w3.org/2000/svg" width="350" height="38" viewBox="0 0 350 38"><path d="M10.84,7.83H0V.9H30.06V7.83H19.22V36.44H10.84ZM34.3.9h8.37V14.15H58.93V.9h8.38V36.44H58.93V21.08H42.67V36.44H34.3ZM74.93.9H83.3V36.44H74.93Zm34.78,8.69a5.88,5.88,0,0,0-2.77-1.78,10.35,10.35,0,0,0-3.3-.58,9.55,9.55,0,0,0-1.88.2,7.13,7.13,0,0,0-1.82.63,3.91,3.91,0,0,0-1.4,1.13,2.74,2.74,0,0,0-.53,1.7,2.79,2.79,0,0,0,1.28,2.46,12.62,12.62,0,0,0,3.25,1.46c1.31.4,2.71.8,4.22,1.2A17.88,17.88,0,0,1,111,17.72a9.69,9.69,0,0,1,3.25,3,8.63,8.63,0,0,1,1.28,5,10.78,10.78,0,0,1-1.18,5.17,10.61,10.61,0,0,1-3.19,3.66,14,14,0,0,1-4.67,2.16A22.92,22.92,0,0,1,94,36.29a17.39,17.39,0,0,1-5.9-3.41l6-6.13a8.74,8.74,0,0,0,3.25,2.49,9.65,9.65,0,0,0,6.12.65,7.09,7.09,0,0,0,1.88-.68,4,4,0,0,0,1.34-1.15,2.75,2.75,0,0,0,.51-1.66,3,3,0,0,0-1.31-2.53,12.29,12.29,0,0,0-3.31-1.58c-1.32-.44-2.75-.87-4.29-1.31a19.42,19.42,0,0,1-4.29-1.76,9.84,9.84,0,0,1-3.3-2.91,7.88,7.88,0,0,1-1.32-4.77,10,10,0,0,1,1.21-5,11.06,11.06,0,0,1,3.22-3.62A14.29,14.29,0,0,1,98.38.73,20.07,20.07,0,0,1,103.8,0,22.69,22.69,0,0,1,110,.85a14.82,14.82,0,0,1,5.42,2.86ZM137.51.9h8.37V36.44h-8.37Zm34.78,8.69a5.88,5.88,0,0,0-2.77-1.78,10.35,10.35,0,0,0-3.3-.58,9.37,9.37,0,0,0-1.87.2,7.07,7.07,0,0,0-1.83.63,3.91,3.91,0,0,0-1.4,1.13,2.74,2.74,0,0,0-.53,1.7,2.77,2.77,0,0,0,1.29,2.46,12.39,12.39,0,0,0,3.24,1.46c1.31.4,2.71.8,4.22,1.2a17.88,17.88,0,0,1,4.21,1.71,9.6,9.6,0,0,1,3.25,3,8.56,8.56,0,0,1,1.29,5,10.78,10.78,0,0,1-1.19,5.17,10.61,10.61,0,0,1-3.19,3.66A14,14,0,0,1,169,36.64a22.92,22.92,0,0,1-12.48-.35,17.39,17.39,0,0,1-5.9-3.41l6-6.13a8.7,8.7,0,0,0,3.24,2.49,9.65,9.65,0,0,0,6.12.65,7,7,0,0,0,1.88-.68,3.87,3.87,0,0,0,1.34-1.15,2.75,2.75,0,0,0,.51-1.66,3,3,0,0,0-1.31-2.53,12.36,12.36,0,0,0-3.3-1.58c-1.33-.44-2.76-.87-4.3-1.31a19.42,19.42,0,0,1-4.29-1.76,9.84,9.84,0,0,1-3.3-2.91,7.88,7.88,0,0,1-1.32-4.77,10.12,10.12,0,0,1,1.21-5,11.18,11.18,0,0,1,3.22-3.62A14.29,14.29,0,0,1,161,.73,20.07,20.07,0,0,1,166.38,0a22.63,22.63,0,0,1,6.23.85A14.82,14.82,0,0,1,178,3.71ZM200.2.9h12.67l8.74,23.19h.11L230.52.9h12.62V36.44h-8.38V9.19h-.1l-10,27.25h-6.38L208.68,9.19h-.11V36.44H200.2Zm63.17,0h6.93l16.53,35.54h-9.45l-3.27-7.53H259.35l-3.17,7.53H247Zm3.22,10.34-4.61,11h9.28ZM290.64.9h14.7a27.84,27.84,0,0,1,5.51.53,13.6,13.6,0,0,1,4.56,1.76,9,9,0,0,1,3.11,3.31,10.6,10.6,0,0,1,1.15,5.19,9.93,9.93,0,0,1-2.09,6.4,9.53,9.53,0,0,1-6.12,3.34l9.66,15h-10l-7.95-14.2H299v14.2h-8.37ZM299,15.61H304c.75,0,1.55,0,2.39-.08a8,8,0,0,0,2.28-.45,3.9,3.9,0,0,0,1.69-1.18,3.39,3.39,0,0,0,.67-2.26,3.56,3.56,0,0,0-.59-2.15,3.89,3.89,0,0,0-1.5-1.23,6.88,6.88,0,0,0-2.1-.58,18.15,18.15,0,0,0-2.31-.15H299Zm45.19-6a5.89,5.89,0,0,0-2.76-1.78,10.35,10.35,0,0,0-3.3-.58,9.47,9.47,0,0,0-1.88.2,7.34,7.34,0,0,0-1.83.63A3.87,3.87,0,0,0,333,9.19a2.68,2.68,0,0,0-.54,1.7,2.77,2.77,0,0,0,1.29,2.46A12.46,12.46,0,0,0,337,14.81c1.3.4,2.71.8,4.21,1.2a17.71,17.71,0,0,1,4.21,1.71,9.6,9.6,0,0,1,3.25,3,8.56,8.56,0,0,1,1.29,5,10.42,10.42,0,0,1-4.37,8.83A14.11,14.11,0,0,1,341,36.64a21.89,21.89,0,0,1-5.61.7,21.7,21.7,0,0,1-6.87-1.05,17.53,17.53,0,0,1-5.91-3.41l6-6.13a8.66,8.66,0,0,0,3.25,2.49,9.65,9.65,0,0,0,6.12.65,7.22,7.22,0,0,0,1.88-.68,4,4,0,0,0,1.34-1.15,2.75,2.75,0,0,0,.51-1.66,2.93,2.93,0,0,0-1.32-2.53,12.36,12.36,0,0,0-3.3-1.58c-1.32-.44-2.76-.87-4.29-1.31a19.7,19.7,0,0,1-4.3-1.76,10,10,0,0,1-3.3-2.91,8,8,0,0,1-1.31-4.77,10.12,10.12,0,0,1,1.2-5,11.09,11.09,0,0,1,3.23-3.62A14.19,14.19,0,0,1,332.88.73,20,20,0,0,1,338.3,0a22.69,22.69,0,0,1,6.23.85A14.82,14.82,0,0,1,350,3.71Z" fill="#fff"/></svg>