<svg xmlns="http://www.w3.org/2000/svg" width="280" height="50" viewBox="0 0 280 50"><path d="M265.75,44.53c-2.62,0-5.11,0-7.61,0-.26,0-.51-.41-.85-.71l-5.83,1.91-4-8.29c-.3-.61-.57-1.25-.87-1.86-.41-.83-1-.87-1.55-.13a4.28,4.28,0,0,0-.46,4,24.92,24.92,0,0,1,.73,4.11c.08.84-.4,1.25-1.36,1.22-1.15-.05-2.31.17-3.47.18-3.39,0-6.77,0-10.27,0-.3-3.05-.58-5.91-.88-8.87-2.38-.08-4.65-.17-6.93-.2-.17,0-.46.48-.51.77-.37,2.17-.73,4.35-1,6.54a1.29,1.29,0,0,1-1.57,1.3c-2.09-.07-4.19,0-6.46,0,2.35-12.71,4.71-25.4,7.08-38.21h5.4c1.74,0,3.49.05,5.23,0,.8,0,1.06.26,1.18,1,.85,5.29,1.71,10.57,2.65,15.85.67,3.74,1.46,7.46,2.2,11.18.06.31.16.61.24.91l.27,0v-29h4a31.65,31.65,0,0,0,4.25-.07c3.41-.5,5.86,1.19,8.11,3.33a15,15,0,0,1,2.34,3,32.7,32.7,0,0,1,1.65,3.55q-.18-5-.34-9.63h8.41V18.07l.52.1,4.83-12c.59.22,1.21.42,1.78.69,1.71.8,3.42,1.59,5.08,2.47a1.56,1.56,0,0,1,.71,1.12c.09,2.35-1.11,4.14-2.67,5.74-.86.88-1.8,1.69-2.61,2.62a6.34,6.34,0,0,0-1.73,5.29,4.49,4.49,0,0,0,.45,1.32c2.6,4.76,5.2,9.53,7.86,14.26a1.45,1.45,0,0,1-.21,2c-1.72,1.66-3.93,2.42-6.12,3.2-.17.06-.68-.41-.82-.72-1.79-4-3.54-7.93-5.3-11.9a6.2,6.2,0,0,0-.36-.79c-.38-.61-.87-.61-1.09.06a7.25,7.25,0,0,0-.44,2.43c.08,3.11.26,6.22.4,9.33C265.77,43.71,265.75,44.14,265.75,44.53ZM253.2,42.22l.29-.13c-.1-.32-.18-.65-.3-1-.71-1.82-1.52-3.6-2.12-5.46a59.73,59.73,0,0,1-1.5-5.85,2.71,2.71,0,0,1,.84-2.55,11,11,0,0,0,3.2-6.29c.43-3.73-.16-7.19-3.17-9.88S244,8.16,240.31,8.46V41.84c.71.19,1,0,1-.7-.07-1.3-.08-2.61-.1-3.91,0-1.56,0-3.11,0-4.67,0-.37.24-1,.51-1.06,1.74-.64,3.5-1.2,5.27-1.72.91-.28,1.45,0,1.81,1,1.2,3.49,2.55,6.92,3.86,10.37A8.3,8.3,0,0,0,253.2,42.22Zm-19.1,0,.37-.21a1.61,1.61,0,0,0,0-.31q-3-15.72-6-31.45a.85.85,0,0,0-1-.82c-1.26.07-2.53.19-3.8.18-.79,0-1,.32-1.17,1-1.69,8.15-3.42,16.3-5.14,24.44q-.67,3.23-1.33,6.44c.81.3,1,0,1.17-.67.46-2.64,1-5.27,1.44-7.91.13-.75.39-1,1.18-1,3.81,0,7.63,0,11.44,0,.79,0,1.06.24,1.16,1,.38,2.8.83,5.59,1.29,8.37A3.37,3.37,0,0,0,234.1,42.26Zm23.42-21a35,35,0,0,1-1.78,3.62c-.69,1.08-1.65,2-2.39,3.07a1.82,1.82,0,0,0-.16,1.38c1.29,4.24,2.63,8.47,4,12.7a7.6,7.6,0,0,0,.37.81Zm4-12.55-.4-.19a2.63,2.63,0,0,0-.38.95c0,3.8,0,7.6.05,11.4L261,40.12c0,.43-.16,1.09.6,1,.24,0,.52-.59.53-.91.08-2.61.14-5.21.13-7.82a4.18,4.18,0,0,1,.88-2.91,16,16,0,0,0,1.15-1.75l-.3-.26-1.54,2-.34-.26ZM275.72,41l.31-.34c-.1-.23-.2-.46-.31-.68-2.39-4.83-4.72-9.69-7.2-14.47a3.85,3.85,0,0,1-.13-3.89c1-1.85,2.21-3.63,3.41-5.38a8.78,8.78,0,0,0,1.8-5.86c-1.55,1.48-2.05,3.56-3,5.36s-1.87,3.75-2.86,5.59-2.06,3.64-3.18,5.61l2.75-2.64.62,1.24q3.46,7.3,7,14.59C275,40.45,275.43,40.68,275.72,41Z" fill="#fff"/><path d="M156.47,6.39h8.37c-.33,12.78-.8,25.47.33,38.23h-8.74l-.28-.74a1.27,1.27,0,0,0-.35,0c-1.51.5-3,1-4.53,1.53-.74.27-1,0-1.32-.6q-2.13-4.53-4.34-9c-.16-.35-.55-.85-.79-.83a1.73,1.73,0,0,0-1.06.74,4.22,4.22,0,0,0-.25,3.75,22.5,22.5,0,0,1,.72,3.9c.1.9-.33,1.41-1.42,1.39-1.48,0-3,.18-4.45.28l-2.43.13V14.42l-11-.47a235,235,0,0,0,.44,30.94h-9c.31-10.3.84-20.63.37-30.89H105.5c0-1.92,0-3.86,0-5.81,0-2.42,0-2.43,2.43-2.36,4.43.12,8.86.39,13.29.33,4.68,0,9.36-.42,14-.62.38,0,.76.29,1.15.4a4,4,0,0,0,1,.18c2.95,0,5.89-.07,8.83,0a5.19,5.19,0,0,1,2.25.59c4.28,2.27,7.15,5.62,7.84,10.56a11.56,11.56,0,0,1-3.48,10,2.38,2.38,0,0,0-.7,2.67c1.27,4.07,2.47,8.15,3.7,12.23l.5-.07c.12-3.93.28-7.87.35-11.8s.11-7.9.07-11.84S156.59,10.46,156.47,6.39ZM152,42.18l.34-.14a10.11,10.11,0,0,0-.29-1c-.7-1.79-1.49-3.55-2.09-5.37s-1.08-3.74-1.51-5.64a3,3,0,0,1,.9-2.85,11.43,11.43,0,0,0,3.31-8,10.51,10.51,0,0,0-2.23-7c-2.93-3.36-6.87-4.2-11.32-3.65V40.94c0,.7.06,1.25,1,.8V40.31c0-2.49-.09-5-.07-7.49,0-.45.21-1.18.5-1.29,1.83-.68,3.71-1.24,5.59-1.79.72-.21,1.15.07,1.43.86,1.27,3.54,2.61,7.06,3.94,10.59C151.69,41.53,151.87,41.85,152,42.18ZM120.46,10.29v1.63l-.12,28.56a3.48,3.48,0,0,0,0,1,.54.54,0,0,0,1,0,3.9,3.9,0,0,0,0-1V10.35H133c.33-1.11-.35-1-1-1H109.67c-.31,0-.62,0-.93.06-.15,1,.5.9,1,.91ZM161.3,25.57V10.81a4.2,4.2,0,0,0,0-.87c0-.16-.28-.44-.34-.41a.87.87,0,0,0-.52.39,2.07,2.07,0,0,0,0,.75l-.18,29.75a4.48,4.48,0,0,0,0,1,.57.57,0,0,0,.44.34c.2,0,.51-.16.56-.32a3.11,3.11,0,0,0,.06-1Z" fill="#fff"/><path d="M107.43,44.51c-.69.06-1.3.15-1.9.17-1.64,0-3.27.11-4.91.12-2.39,0-2,.39-2.25-2-.18-2-.41-3.89-.57-5.84-.06-.74-.37-.95-1.09-.95-1.78,0-3.57-.05-5.34-.17-.82-.06-1.05.23-1.15,1-.29,2.16-.67,4.3-1,6.45a1.23,1.23,0,0,1-1.43,1.21c-4.68,0-9.36.15-14.05.19a3.89,3.89,0,0,1-1.27-.48l.06-.38c-1.57.51-3.16,1-4.71,1.56-.78.29-1.15.14-1.51-.62-1.38-3-2.82-6-4.26-8.92-.17-.35-.58-.9-.76-.86a2,2,0,0,0-1.14.79,4,4,0,0,0-.24,3.64,23.57,23.57,0,0,1,.72,4c.09.85-.29,1.32-1.34,1.34-2.27,0-4.55.27-6.84.42V6.13h3.4l7.08-.06a2.82,2.82,0,0,1,1.17.16c4.5,2.21,7.73,5.46,8.61,10.61a11.55,11.55,0,0,1-3.36,10.33A2.5,2.5,0,0,0,68.62,30c1.3,3.91,2.51,7.85,3.76,11.78a3.27,3.27,0,0,0,.35.55A353.53,353.53,0,0,0,72.84,6.4h8.38c-.22,12-.79,23.89.23,36,.14-.44.26-.69.31-1,2.07-11.32,4.16-22.65,6.19-34,.17-1,.52-1.22,1.46-1.2,3.12.06,6.25.07,9.37,0,1,0,1.21.33,1.33,1.2,1.61,11.19,3.83,22.27,6.31,33.29C106.7,42,107.07,43.18,107.43,44.51Zm-51.8-36V41.82c.86.28,1-.11,1-.8-.06-2.75-.06-5.5-.11-8.25a1.34,1.34,0,0,1,1.17-1.52c1.19-.31,2.33-.81,3.51-1.16.79-.23,1.61-.33,2.44-.49,1.66,4.28,3.08,8.5,5,12.52a5.37,5.37,0,0,0-.42-1.87c-1-2.82-2.15-5.61-3-8.47a4.8,4.8,0,0,1,1.09-5.16,10.56,10.56,0,0,0,2.64-9.69,9.71,9.71,0,0,0-2.41-5.23C63.45,8.72,59.76,8.05,55.63,8.48Zm46.85,33.78.35-.21c0-.07.06-.14,0-.2q-3-15.84-6.09-31.68a1.13,1.13,0,0,0-.87-.66c-1.2,0-2.4.16-3.59.12-1,0-1.35.36-1.54,1.3C89.43,17.56,88,24.18,86.61,30.81c-.75,3.57-1.48,7.15-2.23,10.75.72.27,1,.14,1.17-.61.45-2.64,1-5.27,1.44-7.91.13-.81.44-1.07,1.26-1.06,3.78,0,7.55,0,11.33,0,.86,0,1.1.3,1.21,1.09.37,2.77.82,5.52,1.26,8.27A4.57,4.57,0,0,0,102.48,42.26Zm-24.85-.62V9.55c-1-.19-.84.49-.84,1q-.06,7.71-.11,15.42c0,4.92-.05,9.85-.09,14.77C76.58,41.45,76.65,42,77.63,41.64Z" fill="#fff"/><path d="M28.64,10.77l-4.72-.44C16.7,9.6,12.5,13.5,10.69,20.2a16.57,16.57,0,0,0,2.43,14.2A10.77,10.77,0,0,0,17.73,38V23.81H28.32c.15,8.14.31,16.24.46,24.48a20,20,0,0,1-2.44.17c-3.33-.13-6.67-.17-10-.54-3.59-.41-6.51-2.37-9.08-4.8a31.71,31.71,0,0,1-4-4.31A13.05,13.05,0,0,1,1.63,35a35.25,35.25,0,0,1,1-24,4,4,0,0,1,.87-1.23C5.28,8,7,6.1,8.84,4.45c3.54-3.1,7.89-4,12.43-4.19,2.46-.1,4.92,0,7.37,0ZM24.48,4.19l-.25-.39c-1.7.13-3.4.24-5.09.38a8.49,8.49,0,0,0-2,.27A14.93,14.93,0,0,0,9.62,9.82c-5.44,7.64-6.26,15.9-2.73,24.5C9.72,41.2,14.73,45.22,22.54,45c.6,0,1.2,0,1.82,0-.13-6-.26-11.9-.39-17.82H22.9V43.25c0,.54,0,1-.75,1-4.37-.17-8.19-1.5-11-5.05-5.89-7.47-6.56-18.68-1.75-27a13.88,13.88,0,0,1,10.9-7.35c1.11-.13,2.25-.06,3.37-.15C24,4.67,24.22,4.37,24.48,4.19Z" fill="#fff"/><path d="M199.47,48.93l-9.88.37c0-.54-.08-1-.07-1.4.12-15.92,1-31.84-.55-47.85,3.2,0,6.09-.12,9,0,5.66.29,9.85,3.34,13.33,7.52a8.09,8.09,0,0,1,1.17,2.54c1.75,5.12,2.27,10.3.54,15.55a19.1,19.1,0,0,1-6.84,9.45,24.08,24.08,0,0,1-5.49,2.6,1.7,1.7,0,0,0-1.22,1.92C199.52,42.69,199.47,45.73,199.47,48.93ZM194.05,2.7V45.62l1.11-.13V34.67c1.67-.45,3.12-.76,4.53-1.22,5-1.59,8.29-4.84,9.44-10a26,26,0,0,0,.5-6,16.27,16.27,0,0,0-2.18-8.64C204.33,3.88,199.57,2.42,194.05,2.7Z" fill="#fff"/><path d="M38.59,22l7.06-.35v7.84l-7.23-.37c0,1.14,0,2.15,0,3.15,0,1.44.16,2.89.19,4.34,0,.62.2.93.87.92,2.58,0,5.15-.06,7.73-.08h4v7.9L31,44.78V6.26H51.27c0,.62,0,1.43,0,2.25,0,1.37,0,2.75,0,4.13s0,1.44-1.43,1.38c-3.05-.13-6.09-.24-9.14-.34-.65,0-1.3.05-2.08.09Zm-3.06-11.3H47.16l.14-.41c-.31-.17-.62-.47-.94-.48-3.66-.07-7.33-.1-11-.13a5,5,0,0,0-.8.15v32c.25,0,.46.05.67.05,3.7,0,7.41,0,11.11,0,.29,0,.57-.24.85-.37-.3-.16-.59-.46-.89-.47-3.19-.07-6.39-.1-9.59-.15-.38,0-.77,0-1.17-.05V26.13H42.2l.2-.32a3.21,3.21,0,0,0-.68-.61,2.45,2.45,0,0,0-.86,0H35.53Z" fill="#fff"/><path d="M182.57,11.38a52.18,52.18,0,0,0-4.7,3.19c-3.75,3.18-5,7.41-4.81,12.17.24,6,3.23,10.2,8.8,12.55l1,.42c.65.28.72.78.24,1.18-2,1.65-3.67,3.74-6.15,4.8a1.92,1.92,0,0,1-2-.13,19.15,19.15,0,0,1-9.3-14.23,33.37,33.37,0,0,1,.82-14.2,11.1,11.1,0,0,1,1.37-2.94c1.55-2.39,3.18-4.74,4.85-7a4.79,4.79,0,0,1,1.62-1.25c1.58-.88,2.23-.76,3.55.44.91.83,1.91,1.57,2.76,2.46A28.4,28.4,0,0,1,182.57,11.38ZM177.2,41.21c-1.47-1.88-3-3.65-4.35-5.59-3.75-5.53-4.59-11.4-1.64-17.58a28.45,28.45,0,0,1,5.31-7.39,3,3,0,0,0,.38-1.11c-.37.11-.85.1-1.09.34a23.88,23.88,0,0,0-5.07,6.88c-1.86,3.89-2.81,7.91-1.81,12.21a28.24,28.24,0,0,0,6.84,12.32C176.33,41.93,176.77,41.58,177.2,41.21Z" fill="#fff"/><path d="M241.36,30.49V9.09c2.78-.77,6.88.82,9,3.25,2.94,3.44,3.07,7.16,1.44,11.15s-4.83,6.28-9.16,6.88C242.22,30.42,241.82,30.44,241.36,30.49Zm3.06-4.69c1.9-.23,4.44-4.19,4.58-6.9a6.09,6.09,0,0,0-4.58-5.71Z" fill="#fff"/><path d="M218.83,31.17c1.58-7.07,3.07-13.75,4.6-20.41a1,1,0,0,1,.78-.59c3.3-.18,3.42-.19,4.13,3,1.27,5.79,2.39,11.61,3.61,17.63A84.11,84.11,0,0,1,218.83,31.17ZM226,16h-.42c-.86,4.16-2.95,8.09-2.28,12.5h5.21C227.63,24.16,226.8,20.06,226,16Z" fill="#fff"/><path d="M140.2,30.49V29.36c0-6.4,0-12.8,0-19.2,0-1,.33-1.31,1.29-1.28,5.65.14,8.94,3.3,10.19,8.28.69,2.7-.36,5.51-1.79,8C147.75,28.79,144.37,30.17,140.2,30.49Zm3.16-17.33V25.85c1.95-.41,4.36-4.22,4.57-6.93C148.1,16.56,146.14,14.1,143.36,13.16Z" fill="#fff"/><path d="M56.71,9a10.35,10.35,0,0,1,9,3.41c5.62,6.16.68,16.73-6.42,17.75-.82.11-1.64.26-2.56.4Zm3,4.16V25.76c1.73,0,4.14-3.56,4.59-6.49C64.68,16.77,62.64,14.06,59.71,13.13Z" fill="#fff"/><path d="M100.17,30.86a87,87,0,0,1-12.72.29c.49-2.66.88-5.08,1.39-7.47.91-4.21,1.92-8.39,2.85-12.6.16-.74.45-1,1.23-.95,1,.08,2,0,3,0C98,16.89,99,23.77,100.17,30.86ZM94.37,16,94,16c-.88,4.14-3,8.07-2.28,12.44h5.22C96,24.15,95.19,20.06,94.37,16Z" fill="#fff"/><path d="M195.26,3.34c4.12-.08,7.58,1.2,10.11,4.61a17.55,17.55,0,0,1-.86,21.73,12.54,12.54,0,0,1-9.25,3.9Zm4.12,25.28c3.65-1.17,6.22-5.91,6.11-10.89-.1-5.35-3.09-8.64-6.11-9.47Z" fill="#fff"/></svg>