<svg xmlns="http://www.w3.org/2000/svg" viewBox="0 0 292 85"><path fill="#fff" stroke="#fff" stroke-linejoin="round" stroke-width=".53" d="M21.71 16.52V7.77l-3.8.64 1.37 8.11h2.43zM31.22 34.72l.75-.12-.75-4.45v4.57zM4.56 10.66l-3.56.6 3.56 21.12V10.66zM22.46 35.14l.17 1.03 6.12-1.03h-6.29zM21.75 24.44h-7.72v2.33l6.82-1.15.9 5.32v-6.5zM14.03 35.14h-9l.65 3.89 9.34-1.57-.99-5.88v3.56zM46.89 17.56h2.52l1.18-2.69-1.39-4.27-2.31 6.96zM59.78 14.65l-2.8-9.81-1.07-.1 3.87 9.91zM55.04 28.94l-1.47-4.14h-8.95l-1.39 4.14h-8.96l-1 1.96 9.98.94 1.78-3.99 8.91.84 1.08 4.26 10.26.96-1.42-4.97h-8.82zM67.34 13.87l-2.37.43 2.37 13.01V13.87zM76.88 26.45v2.41h.44l-.44-2.41zM87.14 30.6l-.91.17v6.24H69.1l.91 5 18.59-3.38-1.46-8.03zM98.72 22.41l2.3-13.88-2.3-.38v14.26z"/><path fill="#fff" stroke="#fff" stroke-linejoin="round" stroke-width=".53" d="M89.17 32.95V21.63L87 34.75l18.64 3.09.81-4.89H89.17zM111.01 10.88l-1.21.1 1.21 13.82V10.88zM120.56 24.38v10.76h-8.63l.34 3.9 9.51-.84-1.22-13.82zM134.72 12.82h9.83v.41l.12-.01-.22-2.82h-9.73v2.42zM144.55 20.18h-9.83v2.63h10.06l-.23-3.01v.38zM125.81 6.8l-1.07.08 1.07 13.65V6.8zM146.32 25.54l-.46.04v5.11h-19.25l.33 4.27 19.99-1.57-.61-7.85zM176.89 14.34V7.86l-1.44.15.64 6.33h.8zM159.75 9.6l-1.36.14 1.36 13.34V9.6zM176.93 25.41v-3.16h-7.72v10.7h-8.46l.48 4.81 9.42-.96-1.08-10.64 7.36-.75zM186.4 21.73v11.22h-8.38l.31 3.07 9.42-.95-1.35-13.34zM201.2 26.67l1.21-13.82-1.21-.11v13.93zM191.65 37.01V26.25l-1.22 13.82 9.51.84.34-3.9h-8.63zM220.73 12.07c0-.45-.08-.82-.24-1.09-.16-.28-.38-.5-.66-.66a3.09 3.09 0 0 0-.94-.34c-.34-.07-.69-.1-1.03-.1h-1.99v3.77l1.2-.14c.34-.04.69-.05 1.04-.02.35.03.67.1.97.23.18.08.33.18.47.31.09-.05.19-.09.28-.14.6-.36.89-.96.89-1.81zM206.45 7.35l-1.57.19 1.57 13.29V7.35zM229.1 16.44c-.65 1.22-1.51 2.21-2.59 2.98-1.07.77-2.31 1.33-3.7 1.67-1.39.34-2.82.52-4.28.52h-2.67v9.07h-8.26l.57 4.82 9.36-1.11-1.06-9.01 2.65-.31c1.45-.17 2.84-.51 4.19-1.02 1.34-.51 2.5-1.2 3.48-2.09.98-.89 1.72-1.98 2.22-3.27.38-.96.55-2.05.53-3.27-.12.35-.27.69-.44 1zM247.7 19.66c-.16-.28-.38-.5-.66-.66-.28-.16-.59-.27-.93-.34-.34-.07-.69-.1-1.03-.1h-1.99v3.75l1.27-.14c.34-.04.69-.04 1.04-.01.35.03.67.11.97.24.17.07.31.17.44.28l.24-.12c.6-.36.89-.96.89-1.81 0-.45-.08-.82-.24-1.09zM233.66 15.93l-1.45.16 1.45 13.37V15.93zM256.31 25.13c-.65 1.22-1.51 2.21-2.59 2.98-1.07.77-2.31 1.33-3.7 1.67-1.39.35-2.82.52-4.28.52h-2.67v9.07h-8.36l.51 4.72 9.37-1.01-.97-9.02 2.65-.29c1.45-.16 2.85-.48 4.2-.97s2.51-1.18 3.5-2.06c.99-.88 1.74-1.96 2.25-3.24.41-1.02.59-2.19.56-3.5-.13.4-.29.77-.48 1.13zM280.48 17.5c-.28-.76-.67-1.39-1.17-1.91-.5-.52-1.09-.92-1.77-1.21-.68-.29-1.41-.44-2.21-.44s-1.54.15-2.23.44c-.69.29-1.28.7-1.77 1.21a5.36 5.36 0 0 0-1.15 1.91 7.15 7.15 0 0 0-.42 2.49c0 .55.06 1.07.15 1.57.05-.18.1-.35.16-.52.28-.76.66-1.39 1.15-1.91.49-.52 1.08-.92 1.77-1.21.69-.29 1.43-.44 2.23-.44s1.53.15 2.21.44c.68.29 1.27.7 1.77 1.21.5.52.89 1.15 1.17 1.91.11.31.2.63.27.96.17-.62.25-1.29.25-2.01 0-.9-.14-1.73-.42-2.49z"/><path d="M289.81 26.15c-.8 1.86-1.9 3.44-3.3 4.75a14.783 14.783 0 0 1-4.97 3.04c-1.91.72-3.98 1.07-6.21 1.07s-4.3-.36-6.21-1.07c-1.91-.72-3.56-1.73-4.95-3.04-1.39-1.31-2.49-2.9-3.28-4.75-.64-1.5-1.02-3.14-1.15-4.9-.1.73-.15 1.49-.15 2.27 0 2.25.4 4.31 1.19 6.17.8 1.86 1.89 3.44 3.28 4.75s3.04 2.33 4.95 3.04c1.91.72 3.98 1.07 6.21 1.07s4.3-.36 6.21-1.07c1.91-.72 3.57-1.73 4.97-3.04 1.41-1.31 2.51-2.9 3.3-4.75.8-1.86 1.19-3.91 1.19-6.17 0-.43-.02-.85-.05-1.26-.18 1.38-.53 2.68-1.05 3.89zM36.39 62.74l2.15-12.79-2.15-.36v13.15zM19.16 53.56h1.3l1.09-6.46-2.39-.41v6.87zM26.92 72.18v-10.7H19.2v2.93l7.1 1.19-1.77 10.56 9.34 1.57.93-5.55h-7.88zM9.73 72.18V60.52L7.58 73.31l9.34 1.57.45-2.7H9.73zM47.66 52.87l-.83.17-.65 3.59 1.48-3.76zM53.54 61.73l1.87 3.33h1.22l-2.26-6.96-2.31 6.96h1.06l.42-3.33zM58.74 72.3h-8.95l-1.39 4.14h-5.82l-1.17 6.38 9.84-1.94.56-4.33 7.89-1.56-.96-2.69zM66.83 66.98l3.69 9.46h-8.96l1.28 2.14 10.11-2-6.12-9.6zM72.51 49.29l-2.12.35 2.12 12.95v-13.3zM86.79 53.56c0-.45-.08-.82-.24-1.09-.16-.28-.38-.5-.66-.66-.28-.16-.59-.27-.93-.34-.34-.07-.69-.1-1.03-.1h-1.99v3.83l.91-.15c.34-.06.69-.08 1.04-.07.35.01.68.07.98.18.24.09.44.24.62.41.14-.06.28-.13.42-.21.6-.36.9-.96.9-1.81zM95.16 57.94c-.65 1.22-1.51 2.21-2.59 2.98-1.07.77-2.31 1.33-3.7 1.67-1.39.35-2.82.52-4.28.52h-2.67v9.07h-7.86l.86 5.25 9.3-1.52-1.46-8.95 2.63-.43c1.44-.24 2.82-.64 4.14-1.2 1.32-.56 2.45-1.31 3.38-2.25.94-.93 1.63-2.05 2.07-3.36.24-.69.37-1.45.4-2.26-.07.16-.15.32-.23.47zM110.19 60.1l1.97.3c.34.05.68.14 1.01.26.04.01.08.04.12.05.47-.37.72-.91.72-1.67 0-.45-.08-.82-.24-1.09-.16-.28-.38-.5-.66-.66a3.09 3.09 0 0 0-.94-.34c-.34-.07-.69-.1-1.03-.1h-1.99v4.54h.85l.2-1.29zM99.72 77.66V66.21l-2 13.03 9.32 1.43.46-3.01h-7.78zM123.62 59.69c-.08-.22-.18-.43-.27-.63-.01 1.71-.33 3.17-.97 4.37-.65 1.22-1.51 2.21-2.59 2.98-1.07.77-2.31 1.33-3.7 1.67-1.39.34-2.82.52-4.28.52h-2.67v3.23l1.9.29c1.44.22 2.88.27 4.31.14 1.43-.13 2.73-.49 3.91-1.09 1.18-.6 2.18-1.45 3.01-2.56.83-1.11 1.37-2.53 1.64-4.26.28-1.81.18-3.36-.29-4.65zM150.57 48.97l-7.85 11.67v3.67l12.79-14.73-4.94-.61zM133.25 72.18V60.64l-6.53-10.23 6.26 13.13-1.43 11.45 9.4 1.16.49-3.97h-8.19zM136.04 47.71l-.23-.57-.09-.02.32.59zM164.56 54.18l-2.49.5 2.49 12.52V54.18zM181.7 57.82v-7.05l-2.82.56 1.29 6.49h1.53zM181.74 68.57v-2.83h-7.71v10.7h-7.63l1.16 5.86 9.29-1.85-2.09-10.49 6.98-1.39zM191.21 64.57v11.87h-7.29l.5 2.51 9.28-1.85-2.49-12.53zM215.97 56.48c-.28-.76-.67-1.39-1.17-1.91-.5-.52-1.09-.92-1.77-1.21-.68-.29-1.41-.44-2.21-.44s-1.54.15-2.23.44c-.69.29-1.28.7-1.77 1.21a5.36 5.36 0 0 0-1.15 1.91 7.15 7.15 0 0 0-.42 2.49c0 .63.07 1.23.2 1.79.06-.25.13-.5.22-.74.28-.76.66-1.39 1.15-1.91.49-.52 1.08-.92 1.77-1.21.69-.29 1.43-.44 2.23-.44s1.53.15 2.21.44c.68.29 1.27.7 1.77 1.21.5.52.89 1.15 1.17 1.91.09.24.16.49.22.74.13-.56.2-1.15.2-1.79 0-.9-.14-1.73-.42-2.49z" fill="#fff" stroke="#fff" stroke-linejoin="round" stroke-width=".53"/><path d="M225.3 65.13c-.8 1.86-1.9 3.44-3.3 4.75a14.783 14.783 0 0 1-4.97 3.04c-1.91.72-3.98 1.07-6.21 1.07s-4.3-.36-6.21-1.07c-1.91-.72-3.56-1.73-4.95-3.04s-2.49-2.9-3.28-4.75c-.58-1.36-.95-2.83-1.11-4.4-.06.57-.09 1.16-.09 1.76 0 2.25.4 4.31 1.19 6.17.8 1.86 1.89 3.44 3.28 4.75s3.04 2.33 4.95 3.04c1.91.72 3.98 1.07 6.21 1.07s4.3-.36 6.21-1.07c1.91-.72 3.57-1.73 4.97-3.04 1.41-1.31 2.51-2.9 3.3-4.75.8-1.86 1.19-3.91 1.19-6.17 0-.6-.03-1.19-.09-1.76-.16 1.57-.52 3.04-1.11 4.4zM256.45 56.88V68.8c0 1.67-.29 3.23-.86 4.67-.57 1.45-1.41 2.7-2.53 3.76-1.11 1.06-2.5 1.9-4.16 2.51-1.66.61-3.59.92-5.79.92s-4.12-.31-5.75-.92c-1.63-.61-2.99-1.45-4.08-2.51a9.923 9.923 0 0 1-2.43-3.76c-.53-1.44-.79-2.99-.79-4.66l-.23 1.73c-.22 1.66-.17 3.24.16 4.74s.97 2.85 1.9 4.05c.94 1.2 2.17 2.21 3.71 3.03s3.39 1.38 5.57 1.68c2.18.29 4.13.25 5.86-.13 1.72-.38 3.21-1.02 4.46-1.93 1.25-.9 2.25-2.03 3.01-3.39.76-1.36 1.25-2.86 1.47-4.52l2.29-16.95-1.82-.25z" fill="#fff" stroke="#fff" stroke-linejoin="round" stroke-width=".53"/><path d="M239.54 67.76c0 .39.03.74.08 1.08l1.89-13.99-1.97-.27v13.17zM275.55 55.63c0-.5-.09-.9-.28-1.19-.18-.29-.42-.51-.71-.66-.29-.15-.61-.24-.95-.28-.34-.04-.66-.06-.95-.06h-2.25v4.02l1.28-.19c.29-.04.6-.07.95-.08.34-.01.67.04.98.14.2.07.38.18.55.32.07-.03.14-.05.21-.09.33-.17.61-.41.83-.72.22-.3.34-.71.34-1.21zM283.39 61.95c.44-.98.67-2.03.69-3.14-.15.34-.33.66-.53.98-.85 1.31-2.06 2.33-3.65 3.04l1.25 1.99c.99-.81 1.74-1.77 2.24-2.87zM278.21 77.34l10.76-1.6-3.72-4.35 1.79 2.86h-10.87l-5.4-10.07h-.28v10.07h-7.76l.78 5.27 9.09-1.35-1.48-9.96.28-.04 6.81 9.17zM261.3 51.37l-1.92.28 1.92 13V51.37z" fill="#fff" stroke="#fff" stroke-linejoin="round" stroke-width=".53"/><path fill="none" stroke="#fff" stroke-linejoin="round" stroke-width="1.06" d="M21.75 24.44h-7.72v10.7H4.56V6.98h9.43v9.54h7.72V6.98h9.51v28.16h-9.47v-10.7zM54.37.77H44.31l-11.1 28.16h10.02l1.39-4.14h8.95l1.47 4.14h10.3L54.37.77zm-7.48 16.79l2.31-6.96 2.27 6.96H46.9zM67.34 8.85h9.54v20.01h9.35v8.15H67.34V8.85zM89.17 4.79h9.55V24.8h9.35v8.15h-18.9V4.79zM111.01 6.98h9.55v28.16h-9.55zM125.81 2.52h19.38v7.88h-10.47v2.42h9.83v7.36h-9.83v2.63h11.14v7.88h-20.05V2.52zM176.93 22.25h-7.72v10.7h-9.46V4.79h9.42v9.55h7.72V4.79h9.51v28.16h-9.47v-10.7zM191.65 8.85h9.55v28.16h-9.55zM229.08 7.43a8.09 8.09 0 0 0-2.63-2.9c-1.09-.73-2.32-1.25-3.7-1.55-1.38-.3-2.78-.46-4.22-.46h-12.09v28.16h9.43v-9.07h2.67c1.46 0 2.88-.17 4.28-.52 1.39-.34 2.63-.9 3.7-1.67a8.601 8.601 0 0 0 2.59-2.98c.65-1.22.97-2.7.97-4.46s-.33-3.35-.99-4.55zm-9.25 6.45c-.6.36-1.25.54-1.97.54h-1.99V9.88h1.99c.34 0 .69.03 1.03.1.34.07.66.18.94.34.28.16.5.38.66.66.16.28.24.64.24 1.09 0 .85-.3 1.45-.89 1.81zM256.29 16.12a8.09 8.09 0 0 0-2.63-2.9c-1.09-.73-2.32-1.25-3.7-1.55-1.38-.3-2.78-.46-4.22-.46h-12.09v28.16h9.43V30.3h2.67c1.46 0 2.88-.17 4.28-.52 1.39-.34 2.63-.9 3.7-1.67a8.601 8.601 0 0 0 2.59-2.98c.65-1.22.97-2.71.97-4.46s-.33-3.35-.99-4.55zm-9.25 6.45c-.6.36-1.25.54-1.97.54h-1.99v-4.54h1.99c.34 0 .69.03 1.03.1.34.07.66.18.93.34.28.16.5.38.66.66.16.28.24.64.24 1.09 0 .85-.3 1.45-.89 1.81zM289.81 13.88c-.8-1.82-1.9-3.36-3.3-4.63-1.41-1.27-3.06-2.25-4.97-2.94-1.91-.69-3.98-1.03-6.21-1.03s-4.3.34-6.21 1.03c-1.91.69-3.56 1.67-4.95 2.94-1.39 1.27-2.49 2.82-3.28 4.63-.8 1.82-1.19 3.85-1.19 6.11s.4 4.31 1.19 6.17c.8 1.86 1.89 3.44 3.28 4.75s3.04 2.33 4.95 3.04c1.91.72 3.98 1.07 6.21 1.07s4.3-.36 6.21-1.07c1.91-.72 3.57-1.73 4.97-3.04 1.41-1.31 2.51-2.9 3.3-4.75.8-1.86 1.19-3.91 1.19-6.17s-.4-4.29-1.19-6.11zm-9.33 8.65c-.28.77-.67 1.43-1.17 1.99-.5.56-1.09.99-1.77 1.29-.68.31-1.41.46-2.21.46s-1.54-.15-2.23-.46a5.06 5.06 0 0 1-1.77-1.29 6.01 6.01 0 0 1-1.15-1.99c-.28-.77-.42-1.62-.42-2.55s.14-1.73.42-2.49c.28-.76.66-1.39 1.15-1.91.49-.52 1.08-.92 1.77-1.21.69-.29 1.43-.44 2.23-.44s1.53.15 2.21.44c.68.29 1.27.7 1.77 1.21.5.52.89 1.15 1.17 1.91.28.76.42 1.59.42 2.49s-.14 1.78-.42 2.55zM26.92 61.48H19.2v10.7H9.73V44.02h9.43v9.54h7.72v-9.54h9.51v28.16h-9.47v-10.7zM59.54 48.27H49.48l-11.1 28.16H48.4l1.39-4.14h8.95l1.47 4.14h10.3L59.53 48.27zm-7.48 16.79l2.31-6.96 2.27 6.96h-4.57zM95.14 48.93a8.09 8.09 0 0 0-2.63-2.9c-1.09-.73-2.32-1.25-3.7-1.55-1.38-.3-2.78-.46-4.22-.46H72.5v28.16h9.43v-9.07h2.67c1.46 0 2.88-.17 4.28-.52 1.39-.34 2.63-.9 3.7-1.67a8.601 8.601 0 0 0 2.59-2.98c.65-1.22.97-2.71.97-4.46s-.33-3.35-.99-4.55zm-9.25 6.44c-.6.36-1.25.54-1.97.54h-1.99v-4.54h1.99c.34 0 .69.03 1.03.1.34.07.66.18.93.34.28.16.5.38.66.66.16.28.24.64.24 1.09 0 .85-.3 1.45-.9 1.81zM122.35 54.41a8.09 8.09 0 0 0-2.63-2.9c-1.09-.73-2.32-1.25-3.7-1.55-1.38-.3-2.78-.46-4.22-.46H99.71v28.16h9.43v-9.07h2.67c1.46 0 2.88-.17 4.28-.52 1.39-.34 2.63-.9 3.7-1.67a8.601 8.601 0 0 0 2.59-2.98c.65-1.22.97-2.7.97-4.46s-.33-3.35-.99-4.55zm-9.25 6.44c-.6.36-1.25.54-1.97.54h-1.99v-4.54h1.99c.34 0 .69.03 1.03.1.34.07.66.18.94.34.28.16.5.38.66.66.16.28.24.64.24 1.09 0 .85-.3 1.45-.89 1.81zM142.72 72.18h-9.47V60.64l-10.62-16.62h11.42l4.45 8.27 4.26-8.27h11.14l-11.18 16.62v11.54zM181.74 65.74h-7.71v10.7h-9.47V48.27h9.43v9.55h7.71v-9.55h9.51v28.17h-9.47v-10.7zM225.3 52.86c-.8-1.82-1.9-3.36-3.3-4.63-1.41-1.27-3.06-2.25-4.97-2.94-1.91-.69-3.98-1.03-6.21-1.03s-4.3.34-6.21 1.03c-1.91.69-3.56 1.67-4.95 2.94-1.39 1.27-2.49 2.82-3.28 4.63-.8 1.82-1.19 3.85-1.19 6.11s.4 4.31 1.19 6.17c.8 1.86 1.89 3.44 3.28 4.75s3.04 2.33 4.95 3.04c1.91.72 3.98 1.07 6.21 1.07s4.3-.36 6.21-1.07c1.91-.72 3.57-1.73 4.97-3.04 1.41-1.31 2.51-2.9 3.3-4.75.8-1.86 1.19-3.91 1.19-6.17s-.4-4.29-1.19-6.11zm-9.33 8.65c-.28.77-.67 1.43-1.17 1.99-.5.56-1.09.99-1.77 1.29-.68.31-1.41.46-2.21.46s-1.54-.15-2.23-.46a5.06 5.06 0 0 1-1.77-1.29 6.01 6.01 0 0 1-1.15-1.99c-.28-.77-.42-1.62-.42-2.55s.14-1.73.42-2.49c.28-.76.66-1.39 1.15-1.91.49-.52 1.08-.92 1.77-1.21.69-.29 1.43-.44 2.23-.44s1.53.15 2.21.44c.68.29 1.27.7 1.77 1.21.5.52.89 1.15 1.17 1.91.28.76.42 1.59.42 2.49s-.14 1.78-.42 2.55zM243.12 80.65c-2.2 0-4.12-.31-5.75-.92s-2.99-1.45-4.08-2.51a9.923 9.923 0 0 1-2.43-3.76c-.53-1.45-.8-3-.8-4.67V51.68h9.47v16.07c0 1.35.32 2.41.97 3.16.65.76 1.57 1.13 2.76 1.13s2.11-.38 2.76-1.13c.65-.76.97-1.81.97-3.16V51.68h9.43v17.11c0 1.67-.29 3.23-.86 4.67-.57 1.45-1.41 2.7-2.53 3.76-1.11 1.06-2.5 1.9-4.16 2.51-1.66.61-3.59.92-5.79.92zM279.9 62.83c1.59-.72 2.8-1.73 3.65-3.04.85-1.31 1.27-2.83 1.27-4.56s-.33-3.26-.99-4.44c-.66-1.18-1.53-2.12-2.61-2.82-1.07-.7-2.29-1.19-3.66-1.47s-2.74-.42-4.12-.42h-12.13v28.16h9.19V64.18h.28l5.4 10.06h10.88l-7.15-11.42zm-4.69-5.99c-.22.31-.5.54-.83.72-.33.17-.68.29-1.07.34-.38.05-.73.08-1.05.08h-1.86v-4.54h2.25c.29 0 .61.02.95.06.34.04.66.13.95.28.29.15.53.36.71.66.18.29.28.69.28 1.19s-.11.91-.34 1.21z"/></svg>