<svg xmlns="http://www.w3.org/2000/svg" width="220" height="133" viewBox="0 0 220 133"><path d="M10,43.53A15.89,15.89,0,0,0,10.18,46a5.59,5.59,0,0,0,.66,2,3.41,3.41,0,0,0,1.3,1.31,4.14,4.14,0,0,0,2.09.48,4.07,4.07,0,0,0,2.11-.48A3.43,3.43,0,0,0,17.62,48a5.59,5.59,0,0,0,.66-2,15.89,15.89,0,0,0,.17-2.49v-25H25.7v25a14.43,14.43,0,0,1-1,5.66,9.17,9.17,0,0,1-2.56,3.55A8.86,8.86,0,0,1,18.5,54.5a20,20,0,0,1-4.27.45,23,23,0,0,1-4.28-.4,8.8,8.8,0,0,1-3.67-1.64,8.39,8.39,0,0,1-2.56-3.49,15.25,15.25,0,0,1-1-5.89v-25H10Z" fill="#fff"/><path d="M35,18.49h7.25v30H55.11V54.4H35Z" fill="#fff"/><path d="M79.6,24.42H71.75v30H64.51v-30H56.67V18.49H79.6Z" fill="#fff"/><path d="M87.54,29.12h5.1V54.4h-5.1Z" fill="#fff"/><path d="M110.57,18.49l5.13,25.34h.1L121,18.49h9.75V54.4h-6.32V27.66h-.1L118.57,54.4h-5.64l-5.74-26.74h-.1V54.4h-6.32V18.49Z" fill="#fff"/><path d="M151.47,18.49l7.86,29.68h-6.24l-1.37-6.28h-7.9l-1.37,6.28h-6.23l7.85-29.68ZM150.68,37l-2.87-13.34h-.08L144.86,37Z" fill="#fff"/><path d="M185.24,24.42H177.4v30h-7.24v-30h-7.85V18.49h22.93Z" fill="#fff"/><path d="M213.13,24.42H200.3v8.45h12.07v5.94H200.3v9.65h13.33V54.4H193.06V18.49h20.07Z" fill="#fff"/><rect x="136.22" y="51.49" width="23.11" height="2.9" fill="#fff"/><path d="M5.25,81.21s1.67,32,2,33.16,1.12,3.68-1,2.9S.11,101.75,0,93A55.47,55.47,0,0,1,2.76,76.18s9.3-7.14,15.33-4,6.81,10.27.22,19.42c0,0,13.06,7.82,16.3,14.51s.11,11.5-2.34,13.18-19.87,5.36-25,5.36,4.23-2.57,7-3,13.35-2.68,14.91-3.46,7.37-5.69,1.68-11.83S16,95.72,14.23,92.71s-1.29-3.24,0-4.24,8-6.93,5-10.61S7.93,77,5.25,81.21Z" fill="#fff"/><path d="M89,80s-1.13-6.36,1.11-6.36,3.8,4,1.79,6.36c0,0-7.25,29.47-25.34,37.73S55.13,82.11,56,78.54,60,68.93,60,74.29,56.83,89.91,57.16,98s.9,15.8,5.36,16.24,11.38-4.13,17.08-13.06S89,80,89,80Z" fill="#fff"/><path d="M147.77,88.13c-4.2-6.7-14.23-15.62-25.63-17.64-7.57-1.34-9.38,2.79-9.38,2.79s-1.23.9-.78,6.92,2.9,37.4,4.35,41.08,1.23,3.13,4.13,3.47,22,2.56,29.7-8C158,105.88,152,94.83,147.77,88.13Zm-10.78,32c-8,2.12-18.09.56-18.09.56a55.49,55.49,0,0,0-1.23-6.92c-.89-3.58,0-34.72,0-34.72s-4-.56-2.9-3.35c.75-1.87,7.14-2.35,18.2,3.35s17.41,20.43,17.64,27S145,118.05,137,120.17Z" fill="#fff"/><path d="M212.12,67.14s1.12,3.8,2.79,4.24a3.29,3.29,0,0,1,1.79,4.36c-.79,1.45-3.79,5.69-3.07,6.81S216.36,81,218,78.42s2.9-5.45,1-8.2-3.46-5.09-6.25-5.2-9.94-1.56-11.95,2.57c0,0-13.39,2.12-12.72,12.17s9,22.55,12,27.24,7.15,17.08,1.23,19.76c0,0-4.46-.67-6.14.56,0,0-11.5.22-16.41,0s-9,.44-5.14,2.9,15.63,2.45,23.56,1,11.39-5,10.16-13.73S193.7,87.35,192.25,83.22s2.68-10.5,4.91-10.72a6.7,6.7,0,0,0,3.91-2.28s5.24.47,7.36-.3S209.77,67.37,212.12,67.14Z" fill="#fff"/><path d="M90.09,13S91.87.53,93.83,0A54.69,54.69,0,0,1,93,13.28s5.39-4.15,7.35-4.15a19,19,0,0,1-7,7.95s4.57.65,5.64,1a7.3,7.3,0,0,1-6.82.77,9,9,0,0,1,.89,2.73s-2.2-1.43-2.26-2.79l-.29,3-1-.29.53-3s-2,2.15-3.5,2.15c0,0,.3-2.14,1.6-2.73,0,0-6-2.08-6.34-4.86,0,0,2.37-.36,6.11,2.37,0,0-4.45-8.84-4.09-11.39C83.87,4,88.55,8.84,90.09,13Z" fill="#fff"/></svg>