<svg xmlns="http://www.w3.org/2000/svg" width="220" height="122" viewBox="0 0 220 122"><g id="logos"><g id="TZ7Be5.tif"><path d="M184.67,120.25h-9c-1,0-1.08-.09-1.08-1.09,0-2.45.07-4.91,0-7.36a4.14,4.14,0,0,1,1.29-3.34,10.76,10.76,0,0,0,.82-1,2,2,0,0,0,.47-1.32q0-13.17,0-26.34a2.35,2.35,0,0,0-.72-1.5,14.45,14.45,0,0,0-1.32-1.5,1.77,1.77,0,0,1-.52-1.29q0-4.45,0-8.92c0-.66.17-.83.87-.84h5.35c3.47,0,6.95,0,10.42,0a1.2,1.2,0,0,1,1.3.88c.67,1.93,1.58,3.77,2.28,5.69.47,1.27,1.07,2.5,1.58,3.76.58,1.45,1.11,2.93,1.75,4.36,1,2.17,1.79,4.39,2.75,6.56.24.56.43,1.14.67,1.71.08.21.21.46.48.43s.26-.34.26-.56c0-3,0-6,0-9a2.36,2.36,0,0,0-.67-1.43,5.71,5.71,0,0,0-.82-1,3.12,3.12,0,0,1-1.08-2.7c.07-2.59,0-5.18,0-7.76,0-.82.11-.94.94-.94q9.06,0,18.12,0c1,0,1.11.21,1.07,1.17a39.22,39.22,0,0,0,0,4.6,13.23,13.23,0,0,1,0,2.18,3.13,3.13,0,0,0,0,.86,2.39,2.39,0,0,1-.73,2.29c-.33.38-.63.78-1,1.13a3.09,3.09,0,0,0-.88,2.33q0,12.89,0,25.77a2.35,2.35,0,0,0,.66,1.69c.44.51.86,1,1.3,1.54a2.75,2.75,0,0,1,.69,1.9q0,4.05,0,8.11c0,.74-.14.88-.87.89H202.66c-1,0-1.06-.1-1.4-1-.72-1.93-1.54-3.83-2.2-5.79-.44-1.26-.91-2.52-1.41-3.75-.63-1.58-1.16-3.2-1.82-4.77-.79-1.91-1.45-3.87-2.17-5.81a13.06,13.06,0,0,1-.8-2c-.05-.2-.16-.49-.45-.43s-.25.32-.25.53v9.49a1.36,1.36,0,0,0,.4.87c.51.62,1,1.24,1.57,1.83a2,2,0,0,1,.54,1.4c0,2.86,0,5.71,0,8.57,0,.76-.14.91-.91.91Z" fill="#fff"/><path d="M191.35,55.77H174.79c-1,0-1.06-.09-1.06-1.05,0-2.74,0-5.48,0-8.22a2.78,2.78,0,0,1,.77-2.09c.45-.46.81-1,1.3-1.45a1.92,1.92,0,0,0,.59-1.49c0-4.87,0-9.74,0-14.61,0-3.81,0-7.63,0-11.44a1.82,1.82,0,0,0-.52-1.33,11,11,0,0,1-1.93-2.55,1.71,1.71,0,0,1-.19-.76c0-2.92,0-5.83,0-8.74,0-.71.14-.86.86-.94.23,0,.46,0,.69,0,6.52,0,13-.06,19.56,0a95.29,95.29,0,0,1,11.07.63A19.64,19.64,0,0,1,213.08,4,8.85,8.85,0,0,1,217,8.36a12.07,12.07,0,0,1,1,3.92c.64,9.71.23,19.43.29,29.14a30.15,30.15,0,0,1-.65,7.14A7.73,7.73,0,0,1,213.09,54a21.09,21.09,0,0,1-7.7,1.68C200.06,56,194.73,55.69,191.35,55.77Zm3.08-27.23h0V31.3q0,7.1,0,14.2c0,.75.13.86.86.89a8.28,8.28,0,0,0,2.22-.27,2.63,2.63,0,0,0,2.19-2.34,29.25,29.25,0,0,0,.38-4.17V15.24a14.75,14.75,0,0,0-.14-1.89,2.65,2.65,0,0,0-2.34-2.59,7.93,7.93,0,0,0-2-.18c-1.1,0-1.17.07-1.17,1.18Z" fill="#fff"/><path d="M22.12,55.78H7.42a10.66,10.66,0,0,1-1.26-.08c-.75-.08-.82-.17-.82-1,0-2.79,0-5.59,0-8.39a2.49,2.49,0,0,1,.48-1.62c.44-.58.92-1.13,1.41-1.67a2.27,2.27,0,0,0,.66-1.65q0-13.05,0-26.11a2,2,0,0,0-.59-1.48c-.58-.61-1.09-1.29-1.62-1.94a1.54,1.54,0,0,1-.33-1c0-2.93,0-5.86,0-8.8,0-.77.12-.9.91-.9,8.15,0,16.3,0,24.45,0a37.91,37.91,0,0,1,7.59.8A12.81,12.81,0,0,1,46.4,7a11,11,0,0,1,1.94,5.28,35.24,35.24,0,0,1,.23,5.62,11.87,11.87,0,0,1-.51,3.28,6.37,6.37,0,0,1-4.16,3.9c-.92.34-1.86.58-2.8.85-.22.06-.57,0-.57.36s.32.3.53.35a19.08,19.08,0,0,1,3.55,1.14,7.79,7.79,0,0,1,4.6,5,18.32,18.32,0,0,1,.76,5.5c0,2,0,4,0,5.93a16.7,16.7,0,0,1-.88,5.31,7.85,7.85,0,0,1-5.25,5.15,23.51,23.51,0,0,1-5.65.94C32.46,56,26.73,55.66,22.12,55.78Zm3.73-16.94v6.67c0,.76.17.93.95,1A9.57,9.57,0,0,0,29.85,46a2.49,2.49,0,0,0,1.72-1.7,9.15,9.15,0,0,0,.39-3.4c-.09-1.8,0-3.6-.07-5.4a7.43,7.43,0,0,0-.16-1.83c-.23-.86-.47-1.74-1.45-2.06a10.8,10.8,0,0,0-3.34-.48c-.85,0-1.09.25-1.09,1.11Zm.09-22.33h0v5.23c0,.7.2.9.88.92a11.75,11.75,0,0,0,2.58-.17c1.53-.31,1.82-.77,2.16-2.29a18.8,18.8,0,0,0,.27-3.6,11.74,11.74,0,0,0-.17-3.19c-.42-1.81-1.18-2.79-3.26-2.81-.56,0-1.11,0-1.67,0s-.78.08-.78.81C25.93,13.11,25.94,14.81,25.94,16.51Z" fill="#fff"/><path d="M171.39,28.62c0,3.53,0,7.06,0,10.58a30.86,30.86,0,0,1-.66,6.51,11.94,11.94,0,0,1-3.07,5.51,16.25,16.25,0,0,1-6.57,4.07A31.46,31.46,0,0,1,151.66,57a36.51,36.51,0,0,1-8.41-.72,20.89,20.89,0,0,1-5.6-1.83,14.84,14.84,0,0,1-5.56-4.62,11.32,11.32,0,0,1-2.12-5.2,70.55,70.55,0,0,1-.45-8.72c0-5.5,0-11,0-16.51a55.07,55.07,0,0,1,.6-7.9,9.86,9.86,0,0,1,1.53-3.67,14.1,14.1,0,0,1,4.22-4.24,16.54,16.54,0,0,1,3.23-1.62A27.67,27.67,0,0,1,148.06.1a37,37,0,0,1,10.29.72,21.36,21.36,0,0,1,6.14,2.39,13.92,13.92,0,0,1,5.17,5.19,13.19,13.19,0,0,1,1.41,5,115.14,115.14,0,0,1,.34,12.18c0,1,0,2,0,3Zm-23.72-.05V43.4a10.46,10.46,0,0,0,.4,2.72,1.75,1.75,0,0,0,1.47,1.35,4.45,4.45,0,0,0,1.26.07,2.09,2.09,0,0,0,2.09-1.79,10.84,10.84,0,0,0,.25-2c.05-2.06,0-4.13,0-6.19q0-12.36,0-24.72a9.54,9.54,0,0,0-.16-1.6,2.09,2.09,0,0,0-1.55-1.74,5,5,0,0,0-1.72,0,2,2,0,0,0-1.69,1.6,11.36,11.36,0,0,0-.36,3.07C147.66,19,147.67,23.76,147.67,28.57Z" fill="#fff"/><path d="M0,93.18c0-3,0-6.06,0-9.09a69.85,69.85,0,0,1,.61-8.18,8.25,8.25,0,0,1,1.15-3A13,13,0,0,1,5,69.1a18.11,18.11,0,0,1,5.05-2.8c4.56-1.68,9.29-1.85,14.07-1.55a26,26,0,0,1,7.9,1.64A15.53,15.53,0,0,1,39.44,72a13.36,13.36,0,0,1,2,6.08,47.61,47.61,0,0,1,.25,6c0,4.56.07,9.11.08,13.67q0,3.8-.11,7.59a26.59,26.59,0,0,1-.83,6,9.3,9.3,0,0,1-1.78,3.32,15.51,15.51,0,0,1-4.36,3.79,21.63,21.63,0,0,1-4.45,1.84c-4,1.3-8.2,1.32-12.36,1.12a26.53,26.53,0,0,1-8.88-2A15.06,15.06,0,0,1,1.67,113a11,11,0,0,1-1.3-4.9c-.15-2.48-.4-5-.37-7.45s0-5,0-7.48Zm23.55-.62h0c0-3.3,0-6.6,0-9.9,0-2,0-3.94,0-5.92a2.77,2.77,0,0,0-.94-2.37,3.51,3.51,0,0,0-3.62.32,1.68,1.68,0,0,0-.39.69,10.28,10.28,0,0,0-.43,3.17q0,14.24,0,28.47a15.79,15.79,0,0,0,.43,3.81A1.43,1.43,0,0,0,19.76,112a8.08,8.08,0,0,0,1.31.14,2.21,2.21,0,0,0,2.35-2.18,21.8,21.8,0,0,0,.15-2.92C23.56,102.18,23.57,97.37,23.57,92.56Z" fill="#fff"/><path d="M127.09,28.78c0,3.09,0,6.18,0,9.26a40.61,40.61,0,0,1-.45,7.05,12,12,0,0,1-4,6.87c-3,2.68-6.64,3.86-10.51,4.53a34.5,34.5,0,0,1-7.1.44,31.17,31.17,0,0,1-9.37-1.64,16.17,16.17,0,0,1-7.33-4.94,12.06,12.06,0,0,1-2.78-7.26c-.4-7.84-.2-15.68-.18-23.51A42.57,42.57,0,0,1,85.78,12,11.55,11.55,0,0,1,88.2,6.63a15.28,15.28,0,0,1,2.56-2.46,18.87,18.87,0,0,1,4-2.18A26.68,26.68,0,0,1,102.53.17,40.37,40.37,0,0,1,111,.28,26.2,26.2,0,0,1,117.69,2a14.44,14.44,0,0,1,8.42,7.94,11.05,11.05,0,0,1,.75,3.65c.21,3.73.27,7.46.24,11.2,0,1.34,0,2.68,0,4Zm-23.7-.3h0q0,6.5,0,13a35.76,35.76,0,0,0,.25,4.13,2.15,2.15,0,0,0,.6,1.39,3.38,3.38,0,0,0,3.32.38,2.11,2.11,0,0,0,1.19-1.65,25.4,25.4,0,0,0,.29-3.37q0-14.24,0-28.46a9.49,9.49,0,0,0-.39-3.3,1.86,1.86,0,0,0-1.37-1.18,3.68,3.68,0,0,0-1.65,0,2.3,2.3,0,0,0-1.95,1.92,21.83,21.83,0,0,0-.25,2.91C103.37,19,103.39,23.73,103.39,28.48Z" fill="#fff"/><path d="M161.31,120.25h-9.38c-.93,0-1-.11-1-1,0-2.72,0-5.45,0-8.17a2.14,2.14,0,0,1,.59-1.62,2.24,2.24,0,0,0,.68-2.29c-.11-.45-.12-.91-.19-1.37a.76.76,0,0,0-.88-.71l-4.42.23c-.52,0-.74.34-.8.81s0,1-.11,1.43a1.93,1.93,0,0,0,.71,1.74c.87.76.72,1.73.73,2.66s0,2.1,0,3.15c0,.82,0,1.64,0,2.46a16.49,16.49,0,0,0,.07,1.72c0,.72-.14.91-.86,1a5,5,0,0,1-.86,0H127.39c-1.52,0-1.58-.06-1.58-1.57,0-2.48,0-5,0-7.42a3.09,3.09,0,0,1,.93-2.43c.31-.31.59-.65.9-1a5.13,5.13,0,0,0,1.12-3c.38-2.41.88-4.79,1.21-7.2.37-2.68.85-5.34,1.34-8,.73-4,1.31-8,2-12,.45-2.52,1-5,1.26-7.58.14-1.22.54-2.39.62-3.62,0-.6.34-.83.93-.82,2.11,0,4.22,0,6.33,0,5.77-.1,11.55-.08,17.32-.09h.4c1.19,0,1.26.17,1.49,1.34.4,2.08.69,4.19,1.16,6.26.25,1.1.36,2.24.63,3.33.44,1.87.65,3.77,1,5.65.56,2.62,1,5.27,1.5,7.9.56,2.8,1,5.61,1.57,8.41a22.09,22.09,0,0,1,.64,4.2.5.5,0,0,0,0,.17,12.14,12.14,0,0,1,.94,3.94c0,.4.41.69.68,1,.5.55,1,1.11,1.47,1.69a1.76,1.76,0,0,1,.44,1.15c0,2.93,0,5.87,0,8.8,0,.56-.3.74-.79.74h-9.67Zm-12.7-24.83v0c.55,0,1.11,0,1.66-.1.73-.08.79-.21.7-.93-.23-1.88-.58-3.75-.79-5.63-.29-2.59-.53-5.18-.93-7.75,0-.21,0-.53-.3-.53s-.24.3-.27.5c-.37,2.11-.74,4.22-1.08,6.34-.39,2.4-.76,4.8-1,7.23,0,.64.1.83.76.85C147.8,95.43,148.2,95.42,148.61,95.42Z" fill="#fff"/><path d="M62.52,89.15c0,3.7,0,7.4,0,11.1,0,1.93-.11,3.87,0,5.8a21,21,0,0,0,.31,4.18A2.08,2.08,0,0,0,64.41,112c1.06.21,2.11.36,2.88-.66a3.13,3.13,0,0,0,.52-1.91c.11-3.2.3-6.4.26-9.6,0-.25,0-.5,0-.74a.7.7,0,0,1,.79-.72c.6,0,1.19,0,1.79,0h14.5c1.06,0,1.16.12,1.17,1.2,0,3.16-.16,6.32-.25,9.48a12.57,12.57,0,0,1-.86,4A8.94,8.94,0,0,1,81.79,117a22.41,22.41,0,0,1-9,3.85,41.73,41.73,0,0,1-15.42-.2,19.9,19.9,0,0,1-7.25-2.91,12.13,12.13,0,0,1-4-4.44,15.06,15.06,0,0,1-1.56-6c-.41-4.71-.18-9.42-.23-14.14,0-2.89,0-5.79,0-8.68a48.44,48.44,0,0,1,.72-8.92,10.09,10.09,0,0,1,1.87-4,13.48,13.48,0,0,1,4.55-4A22.51,22.51,0,0,1,59.8,65a48.82,48.82,0,0,1,7.92-.32,36.09,36.09,0,0,1,6.54.88,23.59,23.59,0,0,1,6.81,2.8,11,11,0,0,1,4.25,4.32,15.46,15.46,0,0,1,1.36,4.66,44.51,44.51,0,0,1,.47,7.56c0,1.23.06,2.45.08,3.68,0,.68-.22.93-.89,1a6.27,6.27,0,0,1-.75,0H67.87a4.57,4.57,0,0,1-.64,0c-.66-.08-.86-.31-.87-1q0-4.29,0-8.57a1.94,1.94,0,0,1,.46-1.27.69.69,0,0,0,.11-.13c1.58-1.83,1.06-1.6.63-3.58-.16-.74-.83-1-1.49-1.07a4,4,0,0,0-2.25.33,2.25,2.25,0,0,0-1.05,1.57,6.18,6.18,0,0,0-.22,1.82V89.15Z" fill="#fff"/><path d="M106.33,120.33c-5.08,0-10.16,0-15.25,0-1.61,0-1.63,0-1.63-1.64,0-2.3.07-4.6,0-6.9a4,4,0,0,1,1.26-3.29A4.25,4.25,0,0,0,92,105c-.06-8.3,0-16.6,0-24.9a2.5,2.5,0,0,0-.65-1.78c-.37-.41-.67-.89-1.07-1.28a3.37,3.37,0,0,1-.93-2.89c.21-2.39.05-4.79.1-7.18,0-1.14.15-1.29,1.29-1.29q15,0,30,0a3.49,3.49,0,0,1,.46,0c.74.07.85.18.85.93,0,3,0,6.06,0,9.09,0,.59-.24.84-.8.88l-.8,0h-9c-.26,0-.53,0-.8,0a.69.69,0,0,0-.71.75c0,2.93,0,5.86,0,8.79,0,.59.25.77,1,.79,2.93.11,5.86.1,8.8.1.23,0,.46,0,.69,0,.66,0,.81.17.82.83,0,1.45,0,2.91,0,4.37s0,2.72,0,4.08c0,.82-.14,1-1,1h-8.45c-1.79,0-1.86.07-1.86,1.82q0,4.58,0,9.14c0,.91.15,1.09,1.06,1.1h10.36c1.79,0,1.82,0,1.82,1.82v8.11c0,.79,0,.85-.82,1a8.14,8.14,0,0,1-.86,0Z" fill="#fff"/><path d="M53.68,34.89c0-6.23,0-12.46,0-18.69a4.61,4.61,0,0,0-1.41-3.47L52,12.4a3.07,3.07,0,0,1-.87-2.27c.06-2.63,0-5.26,0-7.88,0-.91.16-1.08,1.07-1.08q10.56,0,21.12,0c1,0,1,.09,1,1.05v8.4A1.9,1.9,0,0,1,73.94,12c-.47.55-.91,1.13-1.4,1.67a2.63,2.63,0,0,0-.72,1.86q0,12,0,24c0,1.47,0,3,0,4.43,0,.55.19.84.77.91a14.2,14.2,0,0,0,1.72.06c2.21,0,4.41.08,6.62-.07a7.41,7.41,0,0,1,.8.07c1.05.06,1.15.15,1.15,1.18v8.63c0,1-.15,1.12-1.1,1.12H54.86c-1,0-1.18-.19-1.18-1.23Z" fill="#fff"/></g></g></svg>