<svg xmlns="http://www.w3.org/2000/svg" width="351" height="45" viewBox="0 0 351 45"><path d="M100,.7a22.92,22.92,0,0,0-11,.52A15.56,15.56,0,0,0,78,12.06c-1.52,4.67-.27,8.67,3.51,12.09,1.06,1,2.18,1.86,3.22,2.84a31.48,31.48,0,0,1,2.81,2.85,4.21,4.21,0,0,1,1,3.75l-.18.81H99.6l.06-.14c2-5.1,1.09-9.61-3.31-13.43-1-.9-2.11-1.78-3.11-2.71a29.33,29.33,0,0,1-2.55-2.56,4.6,4.6,0,0,1-1.15-4.09,24.89,24.89,0,0,1,.87-3,3.89,3.89,0,0,1,3-2.59c1.83-.4,3.11.72,2.72,2.38-.2.84-.47,1.67-.71,2.51l-1.6,5.44c3.76,0,7.36,0,11,0a.67.67,0,0,0,.49-.39,56,56,0,0,0,1.54-6.55C107.37,4.72,104.85,1.64,100,.7Z" fill="#fff"/><path d="M36.89.3c-3.49,0-7,0-10.47,0a1.7,1.7,0,0,0-1.79,1Q15.44,17.85,6.19,34.4H36.8q.63-17,1.25-34.1ZM26.57,26.14c-.2,1.77-.38,3.54-.61,5.31,0,.21-.28.57-.44.57-2.25,0-4.51,0-6.92,0,3.11-6.31,6.17-12.49,9.22-18.67l.16,0Z" fill="#fff"/><path d="M.86,44c-.12.22-.22.44-.36.71a2.1,2.1,0,0,0,.4.07c3.66,0,7.32,0,11,0a1.09,1.09,0,0,0,.77-.5c.87-1.72,1.69-3.44,2.49-5.18a1.06,1.06,0,0,1,1.13-.69c2.66,0,5.33,0,8,0,.27,0,.54,0,.91,0-.18,2.14-.35,4.2-.53,6.29H36.42c.11-2.88.21-5.75.32-8.63H5.26Z" fill="#fff"/><path d="M59.45,5.17C59.93,3.59,60.39,2,60.9.31c-3.76,0-7.38,0-11,0-.16,0-.39.26-.46.43-.27.8-.5,1.61-.75,2.42q-4,13.29-8,26.57a42.53,42.53,0,0,0-1.24,4.65H50.7Q55.07,19.79,59.45,5.17Z" fill="#fff"/><path d="M77.91.35c-.35,0-.57,0-.8,0-3.23,0-6.47,0-9.7,0-.62,0-.88.16-1,.71-2.49,8.4-5,16.79-7.53,25.17q-1.23,4.13-2.47,8.23H67.59a20,20,0,0,0,.78-2.17Q72.65,18.1,76.86,4C77.22,2.78,77.55,1.59,77.91.35Z" fill="#fff"/><path d="M55.77,36.4a3.87,3.87,0,0,1-3,2.78c-1.58.4-2.89-.51-2.83-2a5,5,0,0,1,.23-1.14H39.29c0,.31,0,.62,0,.93a6.87,6.87,0,0,0,3.95,6.34,13.89,13.89,0,0,0,5.63,1.33,20.82,20.82,0,0,0,12.26-2.6,15.42,15.42,0,0,0,5.68-6H55.87C55.84,36.18,55.8,36.29,55.77,36.4Z" fill="#fff"/><path d="M72.46,30.47a29.07,29.07,0,0,0-1,3.93H82.69c.25-.84.49-1.68.74-2.52.29-1,.57-2,.89-3.15H75.06C73,28.73,73,28.73,72.46,30.47Z" fill="#fff"/><path d="M87.66,36.67a6,6,0,0,1-1.7,2,2.78,2.78,0,0,1-3.09.25,2.14,2.14,0,0,1-.73-2.63,2.17,2.17,0,0,1,.07-.24H71.28a9.71,9.71,0,0,0,0,1.08c.17,3.64,2.45,6.16,6.4,7.06a22.63,22.63,0,0,0,6.92.43c6.74-.55,11.52-3.35,14.24-8.57H87.9A6.25,6.25,0,0,1,87.66,36.67Z" fill="#fff"/><path d="M136.69,6.63c.54,0,.81-.11.94-.62.31-1.19.71-2.35,1.06-3.53.2-.7.39-1.4.59-2.13l-.47,0c-9.14,0-18.28,0-27.42,0a.74.74,0,0,0-.86.63c-.47,1.67-1,3.33-1.5,5a6.29,6.29,0,0,0-.13.75h8.43c-2.77,9.27-5.52,18.48-8.27,27.73h11.58q4-13.53,8-27.06c.18-.6.48-.73,1.12-.73C132.09,6.64,134.39,6.61,136.69,6.63Z" fill="#fff"/><path d="M106,44.74h1.08c3.12,0,6.25,0,9.37,0,.87,0,1.21-.2,1.43-1,.77-2.58,1.53-5.16,2.3-7.73H108.56Q107.27,40.41,106,44.74Z" fill="#fff"/><path d="M153.76.3h-1c-3.21,0-6.41,0-9.62,0-.75,0-1,.23-1.2.85-1.12,3.88-2.29,7.75-3.45,11.63Q135.24,23.59,132,34.4h11.57Q148.13,19.22,152.66,4C153,2.85,153.37,1.65,153.76.3Z" fill="#fff"/><path d="M130,41.1c-.36,1.18-.69,2.37-1.06,3.64,3.81,0,7.47,0,11.13,0,.2,0,.51-.34.58-.57.81-2.7,1.61-5.39,2.42-8.08H131.51Z" fill="#fff"/><path d="M191,.3h-1.06c-3.07,0-6.14,0-9.2,0-.94,0-1.3.24-1.54,1.05-2.75,9.31-7.54,25.25-7.63,25.48-.07,0-.72-16.6-1.09-26.51h-10c-2.38,0-2.36,0-3,2q-4.78,16-9.58,32.06h11.53q2.34-7.84,4.68-15.7c.33-1.11,0,0,.33-1.11,0,0,.46,8.4.83,16.81h15.59L190.2,3C190.46,2.14,190.7,1.27,191,.3Z" fill="#fff"/><path d="M145.87,41.06c-.36,1.2-.69,2.4-1.05,3.64.33,0,.55,0,.78,0,3.29,0,6.58,0,9.88,0,.64,0,.88-.2,1-.73l2.37-8H147.36C146.87,37.73,146.37,39.4,145.87,41.06Z" fill="#fff"/><path d="M165.64,44.74h10.12c2,0,2,0,2.48-1.69.69-2.32,1.39-4.65,2.08-7h-15C165.44,39.17,165.56,42.21,165.64,44.74Z" fill="#fff"/><path d="M183.34,40c-.46,1.54-.91,3.08-1.39,4.71h1c3.2,0,6.41,0,9.62,0,.69,0,1-.18,1.16-.78q1.16-4,2.32-7.91H184.52C184.13,37.39,183.74,38.71,183.34,40Z" fill="#fff"/><path d="M220.1,6.6c-.19-2.43-1.86-4.15-4.34-5.18A15.34,15.34,0,0,0,210,.33c-4.69,0-9.37,0-14,0A.78.78,0,0,0,195,1q-5,16.73-10,33.45h11.49q.81-2.76,1.64-5.52c.39-1.32.8-2.63,1.21-4,1.22,0,2.36,0,3.49,0,3.54-.13,7-.7,9.87-2.67C218.46,18.3,220.59,12.89,220.1,6.6ZM209.45,8c-.85,3.1-1.75,6.2-2.74,9.26-.57,1.78-2.15,2.69-4.23,2.69h-1.66c.92-3,1.78-5.94,2.64-8.82.5-1.69,1-3.38,1.51-5.08a.7.7,0,0,1,.86-.59c.43,0,.85,0,1.28,0C208.7,5.53,209.83,6.67,209.45,8Z" fill="#fff"/><path d="M254.1.39a2.3,2.3,0,0,0-.4-.08H243.31c-.49,0-.6.23-.71.58q-4,13.43-8,26.86c-.67,2.22-1.33,4.44-2,6.66h11.23a21.54,21.54,0,0,0,.77-2.13q4-13.35,8-26.71C253.09,3.85,253.59,2.13,254.1.39Z" fill="#fff"/><path d="M231.87,36.64a3.8,3.8,0,0,1-3,2.57A2.06,2.06,0,0,1,226.31,38a3.5,3.5,0,0,1,0-1.64c0-.1,0-.2.07-.29H215.49a10.28,10.28,0,0,0,0,1.11c.14,3.4,2.07,5.8,5.69,6.82a18.37,18.37,0,0,0,3.91.66c5.26.31,10.12-.63,14.12-3.94A15.52,15.52,0,0,0,243,36.07H232C232,36.26,231.92,36.45,231.87,36.64Z" fill="#fff"/><path d="M215.68,34.4h11.2c.19-.65.4-1.3.59-1.95L235.9,4.34c.39-1.31.77-2.63,1.16-4a2.9,2.9,0,0,0-.37-.07c-3.46,0-6.93,0-10.39,0-.61,0-.65.34-.77.71q-4.35,14.55-8.71,29.07A39.46,39.46,0,0,0,215.68,34.4Z" fill="#fff"/><path d="M248.62,30.57a27.55,27.55,0,0,0-1,3.83h11.23c.22-.75.45-1.5.66-2.25.32-1.1.63-2.2,1-3.42h-9.21C249.2,28.73,249.2,28.73,248.62,30.57Z" fill="#fff"/><path d="M269.59,18.25a31.94,31.94,0,0,1-2.68-2.65A4.72,4.72,0,0,1,265.84,11c.26-.86.46-1.73.77-2.58a3.92,3.92,0,0,1,2.75-2.51c2-.55,3.39.64,2.91,2.42s-1,3.59-1.57,5.39c-.23.79-.45,1.59-.69,2.47h1.17c3.23,0,6.47,0,9.7,0a.76.76,0,0,0,.55-.43A61.91,61.91,0,0,0,283,9a6.87,6.87,0,0,0-5.4-7.87,21.33,21.33,0,0,0-15.86,1.55c-4,2.1-6.21,5.46-7.49,9.37-1.55,4.76-.24,8.83,3.65,12.28,1,.91,2.1,1.78,3.1,2.72a31.72,31.72,0,0,1,2.71,2.73,4.5,4.5,0,0,1,1,4.33c0,.11-.07.22-.1.33h11.21c.25-.65.47-1.32.66-2a10.33,10.33,0,0,0-3-10.69C272.21,20.51,270.85,19.42,269.59,18.25Z" fill="#fff"/><path d="M263.87,36.72a3.65,3.65,0,0,1-1.94,2.13,2.78,2.78,0,0,1-3,0,2,2,0,0,1-.67-2.44c0-.12.07-.24.1-.36H247.48a11.82,11.82,0,0,0,0,1.33c.26,3.39,2.29,5.74,5.91,6.68a20.59,20.59,0,0,0,3.68.58,21.52,21.52,0,0,0,11.35-2,14.61,14.61,0,0,0,6.62-6.57h-11C264,36.29,263.94,36.5,263.87,36.72Z" fill="#fff"/><path d="M314.34,7.25A6.74,6.74,0,0,0,309,1.1a21.21,21.21,0,0,0-15.93,1.56c-4.57,2.43-6.82,6.33-7.84,10.86-.84,3.73.29,7,3.07,9.82.78.8,1.65,1.54,2.48,2.31,1.3,1.2,2.68,2.34,3.9,3.61a4.84,4.84,0,0,1,1.26,5.14h11.23c2.06-5.17,1.16-9.75-3.33-13.62-1-.85-2-1.67-2.93-2.55a36.29,36.29,0,0,1-2.76-2.79,4.45,4.45,0,0,1-1-4,25,25,0,0,1,1-3.24A3.74,3.74,0,0,1,300.3,6a2.64,2.64,0,0,1,2.66.13,1.89,1.89,0,0,1,.64,2.29c-.4,1.35-.8,2.7-1.19,4-.35,1.19-.69,2.38-1,3.57a2,2,0,0,0,.26.09c3.52,0,7,0,10.56,0a.85.85,0,0,0,.6-.46,17.88,17.88,0,0,0,.54-1.76A17,17,0,0,0,314.34,7.25Z" fill="#fff"/><path d="M280.44,29.1A40.31,40.31,0,0,0,279,34.4h11.22l.3-1c.44-1.52.87-3,1.3-4.53-.11-.06-.13-.08-.16-.08-3.57,0-7.14,0-10.72,0A.7.7,0,0,0,280.44,29.1Z" fill="#fff"/><path d="M295.33,36.45a3.89,3.89,0,0,1-2.21,2.49,2.7,2.7,0,0,1-2.81-.08,2,2,0,0,1-.67-2.38l.12-.41H278.83a10.09,10.09,0,0,0,0,1.1c.16,3.38,2.08,5.77,5.68,6.84a20.51,20.51,0,0,0,7.65.62c6.71-.55,11.5-3.33,14.22-8.56H295.44Z" fill="#fff"/><path d="M349.44.3c-3.18,0-6.36,0-9.54,0a1.65,1.65,0,0,0-1.48.66c-2.66,3.29-5.37,6.56-8.06,9.84-.15.19-.32.37-.58.66-.13-.43-.22-.69-.28-1-.72-3.09-1.44-6.17-2.13-9.26-.15-.67-.39-1-1.26-.95-3.15.06-6.3,0-9.45,0h-1a4.75,4.75,0,0,0,.06.57q2.35,10.38,4.7,20.76a3,3,0,0,1,0,1.5q-1.65,5.64-3.34,11.27h11.57q1.62-5.46,3.25-10.91a5.24,5.24,0,0,1,.95-1.75q8.46-10.29,17-20.54c.21-.25.4-.51.7-.9Z" fill="#fff"/><path d="M315.15,40.8c-.38,1.27-.74,2.55-1.14,3.94h1.11c3.09,0,6.19,0,9.28,0,.91,0,1.26-.23,1.49-1,.74-2.56,1.5-5.12,2.25-7.68H316.56Z" fill="#fff"/></svg>