<svg xmlns="http://www.w3.org/2000/svg" viewBox="0 0 320 33"><g fill="#fff"><path d="M69 3.54c-.37.62 2.72 3.29 2.81 4.74.11 1.8-1.35.73-1.52.73-.9-.01-.99 3.19-1.21 3.82-.29.83-1.76 1.87-.94 2.95.5.65 2.02.14 2.77 1.69 1.02 2.13-.54 2.71-.51 3.56 0 .24.65 1.14.81 1.61.36 1.04.42 1.91-.04 2.92-4.01-.28-1.84 2.26-1.82 4.2.02 1.69-.83 1.15-1.91 1.29-.74.1-1.97.45-2.64.42-.62-.03-1.12-.59-1.55-.53s-.45.61-.79.81c-1.79 1.05-4.58-1.29-6.14-.91-.41.1-1.12 2.6-2.58 1.73-.89-.52-.07-2.64-.2-3.43-.09-.54-.78-1.09-.78-1.84s.85-1.7.95-2.48c.09-.7-.46-1.74.44-2.18 1.15-.56 1.87 1.27 2.58 1.48.44.13.9-.02 1.43.19.87.36 1.01 1.69 2.27 1.99.89.21 2.35.2 3.07-.41.92-.78.29-1.2.39-2.03.15-1.32.79-2.08-.19-3.46-.9-1.27-1.97-.41-2.93-.5-.68-.07-1.39-1.19-2.16-.32-.32.36-.49 2.03-1.63 1.24-.54-.38.12-2.48 0-3.24-.17-1.12-1.11-1.28-.16-2.82 1.19-1.92 4.01.2 6.16-2.36 1.08-1.29 1.34-3.3 1.3-4.94-.03-1.03-1.08-2.96-2.17-2.05l.13.99c-.69 1.06-2.03-.06-3.03.44-.64.32-.71 2.32-.51 2.95.14.47 1.55 1.96.21 2.22-2.21.43-2.62-1.19-3.86-2.22-1.12-.93-3.35-1.09-2.9-3.1.12-.55.8-1.08.93-1.71.23-1.12-.2-2.07.41-3.23 1.06-2.02 3.28-.12 4.81-.25.68-.06 1.02-.63 1.61-.84 1.51-.54 2.01.25 3.25.31 2.12.09 4.48-1.16 6.19 1.22.92 1.27-.17.99-.37 1.35zm-3.27 19.21c.9-.88.49-2.91-.81-3.24.35 1.06.96 2.06.81 3.24zM31.96 1.96c.21.23.54.68.46 1l-.76 1.02c.61.89 4.08 4.28 2.41 5.32-.66.41-.95-.82-1.6.22s-.29 2.12-.65 3.2c-.25.75-1.1 1.43-1.15 2.27-.08 1.36 1.11 1.06 1.91 1.45 1.08.51 1.73 2.09 1.29 3.2-.19.47-.82.87-.78 1.37.07.79 1.3 1.84 1.16 3.45s-1.01.91-2.03 1.23c-2.21.7 1.17 4.49-.9 5.38-1.19-.15-2.54.39-3.67.41-.69.01-1.14-.47-1.6-.42s-.59.52-.94.7c-1.76.94-4.23-1.12-6.14-.9-.66.91-1.18 2.28-2.59 1.74-.79-1.07 0-2.22-.21-3.44-.12-.72-.63-.82-.61-1.83s.64-1.54.78-2.27c.19-.93-.41-2.42.98-2.49.84-.04 1.32 1.26 1.91 1.52.47.21 1.02.03 1.57.26.86.35 1.07 1.75 2.43 2.03.92.19 3.08.1 3.42-.96.23-.71-.17-1.13-.12-1.71.03-.33.31-.6.36-.88.24-1.32-.36-3.04-1.89-3.1s-.99.12-2.52-.3c-2.16-.6-.85 2.31-2.65 1.43-.84-.41-.07-2.36-.19-3.25-.08-.59-.42-.81-.43-1.61-.04-3.16 3.41-1.61 5.14-2.38.5-.22 1.83-1.68 2.06-2.2.31-.7.62-3.94.43-4.64-.18-.66-.92-1.52-1.63-1.62s.18 1.24-.77 1.68c-.66.31-1.82-.41-2.65.13-.36.23-.59 1.89-.55 2.35.07.78 1.83 2.44.31 2.74-2.18.42-2.67-1.41-4.06-2.43-1.09-.81-3.2-.99-2.69-2.89.12-.46.8-.95.93-1.51.23-1.02-.1-2.15.36-3.28.93-2.25 3.28-.3 4.85-.41.85-.06.99-.6 1.61-.84 1.49-.57 2.09.29 3.29.35 2.01.09 4.21-1.15 6.09.95zm-3.58 20.79c1.14-.89.45-2.84-.81-3.24.43 1.09 1 1.98.81 3.24zM49.03 7.31c-.48.48-1.21-.13-1.47.25l-.67 2.57c1.72 2.8.32 5.58.57 8.27.13 1.39 2.09 4.62-.61 3.75-.32 1.3.26 2.66.4 3.95.09.84-.11 1.8.02 2.62.13.86.96 1.36.99 2.22-.25.81-4.15.56-4.73.76-.3.11-.39.63-.79.83-.71.35-1.32.06-1.35-.75-.06-2.16.65-4.96.91-7.13l-.12-6.35h-1.02c-.3-1.38.83-2.52 1-3.76.15-1.11-.04-2.46.02-3.63s.96-2.48-.31-3.54c-.51 1.09-2.06.59-2.55.9s1.09 3.19-.87 2.51c-.21-.07-1.32-2.88-1.27-3.22.04-.26.24-.62.36-.87.48-.95 3.42-5.32 4.16-5.77 1.79-1.11 2.03.06 3.25.33s3.37-.18 4.13 1.14c.63 1.1-.31 1.79-.23 2.85.05.66.8 1.44.17 2.08zM10.32 7.36c-.22.59-.16 1.23-.29 1.84-.07.34-.42.69-.44.9-.03.3.83 2.44.9 3.26.15 1.66-.44 2.95-.39 4.43.02.87 1.4 4.28.5 4.54l-1.09-.19c-.18 1.3.28 2.51.4 3.75s-.2 2.27.33 3.52c.25.6.94.97.69 1.84-.85-.17-1.54.32-2.33.41-.69.08-1.84-.16-2.4 0-.28.08-.82 1.81-1.98.68 0-2.01.23-4.02.44-6.02.16-1.53.18-1.92.17-3.46s.02-2.97.02-4.45l-.83-.2c-.65-.42.87-3.23.93-4.15s-.21-1.96-.11-2.95c.13-1.26 1.09-2.66-.3-3.74-.68.95-1.53.75-2.55.9l-.2.4c.61 1.11.76 2.74-.92 1.94L0 7.31l3.42-5.52C4.35.73 5.14.2 6.57.66c.45.15.81.54 1.21.61 1.19.22 3.43-.21 4.05 1.23.48 1.13-.27 1.58-.32 2.32-.08 1.08 1.54 3.25-1.2 2.53z"/><path d="M25.13 7.96l.17 1.68c-1.47 1.83-2.18-1.97-.17-1.68zM62.27 7.96l.21 1.89-.89.32c-.65-.18-.51-2.57.68-2.21zM70.39 11c.87 2.53-1.39 1.49-.58.33.17-.24.24-.41.58-.33zM32.75 11c.63-.14.83 1.6.2 1.62-.43 0-.81-1.48-.2-1.62z"/></g><g fill="#fff"><path d="M104.7 28.63l-.62-1.4c-.21.62-.79 2.13-1.31 2.44-.43.26-.9.15-1.28.34-.54.28-.91.87-1.62 1.02-1.26.26-3.07-.46-3.99-.13-.39.14-.29.73-.52.89-.64.45-2.04-.4-2.77-.5-1.13-.15-3.67-.15-4.62.42-.67.4-1.05 1.51-2.07.79-.5-1.26.4-2.23.52-3.35.17-1.52-.08-3.3.22-4.87l-.05-.26c-.3-.07-.56-.06-.77-.34-.85-1.16.8-4.89.82-6.47.02-1.28-.59-2.33-.64-3.44-.05-1.02.52-1.95.42-2.82-.07-.63-.57-1.15-.62-2.04-.09-1.61.92-3.38.58-4.83-.11-.45-.53-.66-.58-1.25-.2-2.16 1.64-1.55 2.96-1.73s2.22-.58 3.61-.35c.7.11 1.24.52 2.07.57 1.48.09 2.22-.78 3.63.02.47.27.91.98 1.54 1.09.4.07.78-.38 1.18-.47 2.29-.5 2.14 1.82 2.82 3.18 1.03 2.05 3.06 3.04 2.71 5.78-.07.56-.41.99-.41 1.64 0 1.36.9 2.45.61 4.24-.1.61-.58 1.13-.6 1.84s.43 1.38.4 2c-.05 1.01-1.03 2.61-1.02 3.87 0 1.1 1.43 2.93.29 4.12h-.87zM96.56 6.37c0 .4.13 1.04-.33 1.2-1.58.35-2.63-1.87-4.04-.79-1.57 1.2 1.06 5.09 0 6.28-.21.24-.68.21-.82.4-.38.54.26 2.19.32 2.94.12 1.44-.36 3.03-.22 4.27.07.58.38.94.43 1.61.08 1.15-.42 2.42-.23 3.62l.4.23c1.39-.69 3.35-.39 4.48-1.42.56-.51 2.71-3.49 3.08-4.22.39-.77 1.64-5.35 1.51-6.02-.1-.51-.52-.93-.54-1.51-.03-.7.4-1.46.43-2.22.03-.88-.39-2.79-1.52-2.55-.4.09-.06 1.53-.87 1.79-1.76.57-.79-2.32-1.1-3.27l-.99-.33zm4.26 16c-.51.09-1.11.95-1.39 1.35-.38.56-.87 1.19-.85 1.89.7.7 2.65-2.49 2.23-3.24zM128.4 7.74c-1.68.87-1.47-.41-2.18-1.27-.94-1.14-1.34-.45-2.34-.49-.62-.02-1.01-.51-1.83-.44-1.68.15-1.61 2.98-3.04 2.87s.55-2.33-.1-2.76c-1.65-.45-3.11.29-3.27 2.02-.1 1.05.03 3.42.22 4.46.34 1.91 2.96.25 3.95.29.69.03.87.47 1.27.58 1.32.36 2.2-1.38 3.17-1.37.79 0 1.48.73 1.52 1.5.01.23-.36 3.21-.42 3.41-.11.36-.65.55-.69.84-.11.76.77 1.73-.8 1.74-1.76.02-1.87-2.16-3.64-1.83-.39.07-.66.43-1.08.55-1.26.36-2.5-.05-3.27 1.2-1.1 1.79.63 3.01 1.56 4.26.41.55.87 1.86 1.4 2.05.41.15 1.09.02 1.53.25.29.15.31.68.7.78.71.19 1.93-1.2 2.64-1.35.53-.12 1.1 0 1.7-.13.98-.21 2-1.56 2.82-.81.88.79.19 2.45.19 3.43 0 1.65 1.57 3.5-1.1 3.56-.95.02-1.68-.53-2.39-.38-.91.19-.78 1.22-1.88 1.19-1-.02-.82-1.45-1.62-1.43-.29 0-1.23.77-2.05.79-1.32.04-3.83-1.5-3.54.83-1.29.43-2.37-.89-3.37-1.01-.77-.09-2.24.6-2.72.31-1.35-.82.83-3.92.82-5.08 0-1.01-1.05-1.09-.8-3.02s.78-5.49.57-7.29c-.12-1-.67-1.77-.59-2.85.07-.99 1.6-3.93 1.14-4.57-.38-.53-1.24.15-1.14-1.72.03-.65.38-1.16.41-1.63.03-.62-.29-1.1-.14-1.96.45-2.68 3.55-2.55 5.74-2.38.97.08 1.69.64 2.76.31.37-.11.52-.48 1.1-.53.8-.07 1.18.39 1.83.44.77.06 1.43-.36 2.23-.43 2.1-.19 5.61-.37 4.94 2.7-.08.39-.47.74-.51 1.08-.1.91 1.09 2.24.3 3.27zM135.77 2.72c1.25.12 1.75-1.44 2.94-1.22s-.11 1.86-.34 2.5c-.19.52-1.02 6.15-.99 6.72.03.65.52 1.04.61 1.63.18 1.1-.12 2.43.06 3.58.17 1.09 1.04 2.16 1.16 3.31l-.32.48-.69-.2c-.18 1.07.56 2.16.59 3.17.03 1.12-.66 2.3.54 3.3.86.2 2.34-2.77 2.58-3.47.95-2.8.57-4.76.75-7.55.23-3.65.91-6.67.38-10.31-.11-.76-.86-2.45-.64-2.9.65-1.38 2.55.37 3.39.34 1.03-.03 1.46-1.36 2.64-.58.26.17.35.58.53.69.43.26 1.17-.13 1.4.44.51 1.5-2.54 6.09-2.2 8.46.09.61.6 1.11.58 1.82-.04 1.29-.4 4.09-.62 5.46-.18 1.18-.93 2.72-.98 3.7-.04.74.44 1.09.38 1.97-.08 1.13-.96 2.52-.98 3.7s1.13 3.52-.58 4.28c-1.57.69-2.55.25-4 .25-2.5 0-5.25.77-7.29-.84s-.69-2.25-.81-3.89c-.07-.99-.21-2.96-.35-3.86s-1.64-2.03-1.02-3.01c.16-.24.73-.34.76-.64.02-.18-.27-.58-.3-.86-.37-3.08-.68-6.2-1.08-9.25-.13-.96-.84-1.72-.54-2.8.11-.41.56-.58.57-1.26 0-.9-1.42-3.72-.06-4.12.72-.21 1.53.35 2.27.14 0-.99 1.02-1.89 1.86-1.1.94.88-.48 1.68-.21 1.93zm6.49 23.09c-.27-.3-2.13 1.37-1.83 1.62 1.24.22 1.9-.4 1.83-1.62zM212.3 1.57c.1.09 1.38 1.98 1.52 2.23 1.16 2.12.06 1.98-.76 3.58-.67 1.28-.73 3.42-2.47 3.82-2.29.52-1.15-1.42-1.06-2.29.22-2.19-.98-1.55-2.12-2.15-.32-.17-.58-.68-.88-.76-1.46-.37-2.47 2.41-1.71 3.33.36.44 1.39.11 1.74.9.4.92-.46 2.42 1.21 2.64 1.49.19 2.88-.61 3.86 1.01.36.59.36 1.25.75 1.88.46.74 1.43 1.21 1.77 2.08.32.81.08 1.35.26 1.97.09.32.56.55.74.88.9 1.62.36 3.9-.7 5.32-.52.7-1.48 1.25-1.76 2.1-.32.97-.07 2.15-.37 3.17l-1.21-.09-.51-1.12c-.89.14-1.94.84-2.85.82-.52 0-.94-.39-1.61-.43-1.79-.1-2.88.91-5.24.37-1.5-.34-1.75-1.22-2.64-1.62-1.06-.47-2.78-.02-2.81-1.67-.03-1.51 1.45-4.72 2.37-5.96.41-.55 1.23-1.41 1.97-1.2 1.46.4-.63 3.2.56 4.31.85.79 1.34.26 2.11.31.97.06 1.83.58 2.68.98 1.7-.94 4.16-1.4 4.34-3.7.1-1.29-.66-2.31-1.73-2.93l-1.12 1.93c-2.31.18-.42-2.17-.48-3.42-.09-2.14-2.23-1.51-3.59-2.25-1.21-.65-1.29-1.83-2.16-2.31s-1.23.71-2.29-.14c-2.09-1.68-.31-4.32-.23-6.09.06-1.16-.85-2.07-.16-3.39.42-.82 1.14-.64 1.79-1.05.84-.51 1.57-2.03 2.76-2.11 1.11-.07 2.5.77 4.24.58 1.55-.16 1.97-.23 3.65.04.53.09 1.77.17 2.1.44zm-8.48 4.19c-1.15.27-1.46 1.52-.81 2.43l.81-2.43zM170.77 11.29c-1.1 1.45.14 3.48.15 5.11 0 1.05-.58 2.23-.41 3.33l1.01-.4c.41.79-.11 1.4-.18 2.15-.14 1.49.08 2.58 1.19 3.63 1.59 1.49 1.58.48 2.95.48.64 0 .95.35 1.43.41 1.03.14 2.84-.03 3.8-.44 1.06-.45 1.22-1.55 2.68-1.99 3.27-.97 1.26 1.61 1.12 2.74-.16 1.3.33 2.2.38 3.4-.75.63-2.02 2.35-2.92 2.39-1.45.06-1.35-1.18-2.28-1.39-.98-.22-1.42.44-2.19.39-.48-.03-.29-.59-.81-.64-.64-.06-1.41.63-2.24.64-1.02 0-1.93-.66-2.95-.62l.38 1.28c-1.48 2.22-3.59-1.74-5.25-.97-.6.28-.5 1.13-1.64.83-1.52-.41-.04-4.34-.03-5.49 0-.6-.32-1.39-.36-2.03-.13-2.01.94-4.01.56-5.83-.18-.87-.96-1.49-.99-2.68-.04-1.55 1.4-3.16.94-4.57-.17-.51-.82-.81-.86-1.53-.06-.97.87-2.19.95-3.21.14-1.67-1.43-3.08.06-4.7 1.14-1.24 3.21-.36 4.51-.46.8-.06 2.36-1.02 2.85.2.4.99-1.74 3.61-1.85 5.05-.08 1.18 1.25 3.22.63 4.47-.13.25-.53.3-.65.46zM160.73 16.07l-1.4-.08 1.13 14.9c-.68.49-1.39.05-2.03-.23-.15 0-.33 1.05-1.23 1.05l-1.62-.84c-.48.05-.78.76-1.32.93-2.25.72-1.19-1.38-1.21-2.44 0-.43-.22-.85-.22-1.22.02-2.32.35-4.3.42-6.65.02-.74.63-1.86.59-2.45s-.79-1.64-.96-2.29c-.89-3.36.69-5.05.74-7.67.02-.92-.67-2.17-.58-3 .07-.7.91-1.79.97-2.49.03-.35-.18-.67-.16-.97.13-1.99 1.38-2.12 3.14-1.92.3.03.52.37.82.38.75.04 2.43-1.35 3-.14.48 1.01-.19 1.93-.25 2.89-.09 1.3.15 2.82 0 4.05-.1.8-.63 1.51-.63 2.43 0 1.98 1.37 3.86.8 5.75zM191.18 6.93l-.46.17c-.45-.51-1.76.17-1.93-.43-.16-.54 1.44-1.8 1.62-2.43s-.99.1-1.49-.28c-.6-.45-.27-2.76.82-3.01 1.15-.27 2.42.03 2.65 1.32.35 1.96-.93 2.84-1.22 4.67z"/><path d="M161.32 20.09c-.87 1.1-1.89-2.22-.66-2.78.69.39 1.09 2.24.66 2.78zM172.33 11.23c.17.8.85 1.41.59 2.3-.16.47-.81.33-1.19.33l.04-2.3.57-.34zM203.93 17.71c.78-.16.8 2.49-.4 2.23-.65-.19-.06-2.13.4-2.23zM117.68 11.03c-.15-.85.34-1.47.91-2.02.72.85.34 2.25-.91 2.02zM98.74 11.08c.36.43.5 2.31-.21 2.64-1.87.86-1-4.1.21-2.64z"/></g><g fill="#fff"><path d="M288.34 26.1c-.66-1.53.63-2.87.04-4.6-.1-.3-1.25-1.6-1.52-1.73-1.31-.6-3.02.59-3.4 1.87-.43 1.48.08 5.32.54 6.85.18.6.97 1.11.53 1.93-.12.17-2.48.43-2.86.41-.74-.04-1.33-.57-1.74-.53-.64.06-1.94 1.83-2.37.37-.21-.69-.11-4.49-.04-5.43.08-1.05.6-2.44.58-3.43-.02-1.06-.81-2.04-.8-3.05.01-.71.37-1.65.42-2.43.12-1.83-.37-3.62-.21-5.47.05-.6.84-3.53.61-3.75-2.47.2-1.07-2.22-.84-3.57.14-.81-.19-2.73.88-3.19 1.16-.49 1.82.5 2.67.47 1.13-.04 2.97-1.43 4.1 0 .68.87.02 1.42.12 2.1.07.47.71.87.78 1.48.05.45-.22.99-.17 1.18.04.17.59.43.83.78.52.78.85 1.88 1.07 2.79l1.29.23c.73 1.03.38 2.42 1.35 3.21.98.21.25-3.15.3-3.75.08-.99.96-1.94.58-3.01-.14-.41-1.04-.45-.98-1.44.02-.37.57-1.54.72-2.13.19-.78-.17-2.06 1.03-2.19.48-.05 1.18.4 1.8.36.99-.05 1.38-.91 2.69-.06 1.82 1.19.19 4.21.05 5.81-.16 1.77.59 3.52.42 5.08-.07.63-.47 1.08-.57 1.66-.29 1.71.61 2.86.76 4.41.23 2.29-.13 4.95 0 7.3.08 1.46.5 3.2.62 4.66.27 3.47-1.65 1.2-2.37 1.14-.26-.02-.5.33-.79.38-.42.06-.81-.22-1.2-.2-.35.02-.66.34-1.04.4-2.19.31-1.65-2.63-1.71-3.94-.02-.33-.17-.66-.2-1.02-.03-.38.5-1.06-.2-1.02-.48.76-.7 1.77-1.78 1.07zm-2.89-9.27c-.94-3.14-2.98-1.2-2.64 1.22.88-.42 1.54-1.34 2.64-1.22zM273.8 30.87c.45.71.84 2.1-.27 2.32-.67.05-1.42-1.03-1.85-1.14s-.85.23-1.33.14-.85-.68-1.48-.77c-1.22-.18-1.63.65-2.69.76-2.08.22-.85-1.63-.7-2.54.11-.66-.02-1.31.07-1.95.27-1.94.33-2.02.19-3.89-.06-.84.01-1.68-.02-2.52h-.61c-.12.11.41 2.36-.91 2.36-.77 0-1.35-1.7-1.94-2.05-.5-.29-2.4-.59-2.6.02-.4 1.21.62 3.02.76 4.25.16 1.36-.12 2.24.39 3.66.18.51 1.07 1.6.76 2.09-.83 1.32-2.38-1.08-3.36-1.01-.23.24.95 1.65-.05 2.09-1.64.73-1.66-1.11-2.11-1.27-.54-.18-2.04.73-2.62-.22-.37-.74.67-3.03.66-3.99 0-.5-.45-.71-.54-1.18-.23-1.2.44-2.14.58-3.25.08-.67-.06-1.37.02-2 .35-2.66.79-5.51 1.43-8.09-2.38-1.08.23-2.67.35-4.12.05-.6-.24-1.38-.16-2.18.05-.53.35-.96.37-1.41.05-1.33-.84-2.02.23-3.45 1.72-2.3 4.72-1.31 7.01-1.3 1.75.01 3.48-.64 5.29.17 1.65.74.47 3.31.51 4.54.05 1.29 1.03 2.81 1.02 4.09 0 .72-.45 1.08-.41 1.79.04.76.58 1.74.74 2.52.36 1.79.85 5.09.88 6.84.02.87-.63 1.43-.6 2.39.08 2.47 1.7 6.31 2.96 8.3zm-9.89-21.74c.37-.76.26-3.82-.4-4.16-2.03-1.03-2.77 4.41.4 4.16zm1.81 5.7c-1.89-.44-.84-2.45-2.62-3.56-2.85-1.78-2.43 2.22-2.64 3.63-.06.41-.58.78-.4 1.32.89.28 5.23.22 5.59-.4l.07-.99zM317.97 7.48c-.17-.11-.35-1.96-1.6-2.17-.48-.08-.9.2-1.37.19s-.82-.36-1.24-.42c-2.47-.33-1.97 2.79-3.45 2.83-1.76.04.39-2.3-.28-2.74-1.5-.39-3.01.22-3.24 1.85-.11.76.02 5.05.52 5.37 1.17.74 2.54-.44 3.63-.43.68 0 .85.46 1.26.57 1.54.42 2.05-1.36 3.16-1.32.88.03 1.41.6 1.46 1.46.03.55-.19 2.88-.3 3.46-.09.5-.56.42-.62.64-.12.5.24 1.41-.2 1.78-1.37 1.15-2.52-1.17-3.34-1.54-1.23-.56-1.56.39-2.5.58-1.1.22-1.85-.34-2.67.79-1.46 1.99.39 3.24 1.47 4.75.39.54.79 1.89 1.44 2.01.42.07.9-.11 1.33.1.29.14.32.67.54.72 1.06.25 1.98-1.1 2.9-1.33.67-.17 1.3-.03 2-.23.88-.25 1.34-1.32 2.38-.69s.19 2.87.28 3.97c.08.97 1.1 2.41-.24 2.97s-2.3-.56-3.46-.21c-1.03.31-1.72 2.75-2.91-.26-.89.08-1.46.58-2.4.63-1.18.07-2.08-.44-3.22-.43-.67 3.02-2.29.45-3.73.25-.52-.07-1.21.34-1.79.37-2.99.16-.02-3.88-.1-5.16-.06-.98-1.03-1.17-.79-3.04s.78-5.48.57-7.29c-.11-.91-.64-1.7-.59-2.65.05-1.1 1.72-4.27.96-4.92-.18-.15-.67-.07-.86-.45-.52-1.01.29-1.97.32-2.74.02-.58-.28-1.08-.21-1.8.29-2.9 3.74-2.75 5.98-2.56.93.08 1.45.66 2.55.32.37-.11.52-.48 1.1-.53.81-.07 1.2.4 1.83.44.69.03 1.65-.37 2.43-.43 1.92-.14 5.28-.31 4.77 2.52-.08.43-.51.78-.54 1.26-.05.78.69 1.72.55 2.6-.12.72-1.26 1.24-1.8.89zM236.1 19.26c.42.1.79-.75 1.12-.21.59.96-1.23 3.5.9 5.59 1.68 1.65 2.08.41 3.35.5.36.03.66.35 1.04.39 1.2.12 2.93.1 4.02-.43 1.37-.66 1.72-2.41 3.89-1.99 1.21.23.13 1.7 0 2.23-.43 1.75.18 2.62.07 4.33-.79.31-1.82 1.89-2.39 2.07-1.55.49-1.71-1.24-2.85-1.45-.85-.16-1.24.6-2.1.54l-.67-.79c-2.08 1.11-3.26.56-5.36-.03.39.63.72 1.41 0 1.92-1.88.67-2.84-2.05-4.73-1.48-.53.16-.61 1.04-1.62.74-1.47-.44-.2-3.84-.14-4.92.08-1.42-.34-2.78-.21-4.26.09-1 .63-2.22.62-3.24 0-1.4-1.15-2.28-1.04-4.06.07-1.21 1.08-2.64 1.02-3.63-.05-.78-1.01-1.4-1.02-2.24 0-1.01 1.04-2.34 1.03-3.45-.01-1.34-1.46-2.71 0-4.26 1.24-1.33 2.99-.42 4.36-.49.72-.04 2.7-1.08 2.96.3s-1.77 3.36-1.81 5.08c-.03 1.2 1.28 3.17.69 4.34-.13.27-.61.37-.8.61-.83 1.01 0 2.66.09 3.74.13 1.59-.07 3.02-.4 4.56z"/><path d="M264.68 24.99c.36.44.86 2.8-.05 2.79-1.02 0-.7-2.41-.5-3.05.02-.02.51.21.55.26zM237.82 10.76c.66.37 1.33 2.84.2 2.84-.83 0-.99-2.43-.2-2.84zM288.4 27.17c.78-.17.98 2.03 0 2.03-1.11 0-.67-1.89 0-2.03zM309.72 8.53c.69.8.35 1.85-.61 2.22-.79-.72.04-1.65.61-2.22z"/></g></svg>