<svg xmlns="http://www.w3.org/2000/svg" width="300" height="175" viewBox="0 0 300 175"><path d="M97.28,16.52v9.79L113.9,16s.34,16.46-3,19-6.5-4.05-6.5-4.05l-4.22,3.8S104.38,45,111,44.53c8.39-.59,9.11-38.64,8.1-39.57S108.34,12.05,97.28,16.52Z" fill="#fff"/><path d="M161.66,9.1s-10.21,13.16-11.14,13-.42-1.1.93-4.05,5.23-13.67,1.6-17-11.39,2.36-12.4,9.28a15.94,15.94,0,0,0,2.27,11.3s-3.2,5.6-5,3.14-.26-17.9-2.37-19.34-7,7-7,7l-.08-10L122.93,1s.67,35.6.67,35.18,4.64,0,4.64,0-1-17.8,1.94-18,0,15.69,4.22,16.2,10.47-9.2,10.47-9.2,1.09,3.71,3.37,3.71,15.7-15.86,15.7-15.86Zm-13.93,6.58c-1.85,2.53-3.29-1.27-2.61-4.64s2.61-3.72,2.61-3.72C149.84,7.15,149.59,13.15,147.73,15.68Z" fill="#fff"/><polygon points="6.65 123.47 23.05 145.63 19.62 149.2 0 131.84 6.65 123.47" fill="#fff"/><polygon points="38.76 119.91 36.98 111.19 13.45 119.56 16.39 127.04 24.09 124.59 30.73 144.33 35.67 142 32.6 121.87 38.76 119.91" fill="#fff"/><path d="M54.33,104.27l-.68,6s-6.92-2.07-4,7.74c1,3.54,3.35,6.81,7.56,7,3.61.14,5.19-4.22,5.19-4.22l3.7,3.29s-5,14.68-18.93,4.33C36.18,120.2,41.44,100.36,54.33,104.27Z" fill="#fff"/><polygon points="57.15 102.34 63.39 96.45 71.69 108.45 76.29 105.84 72.03 93.77 79.99 90.82 85.82 118.4 81.64 119.98 78.55 112.5 73.95 114.21 77.93 121.62 75.19 124.02 57.15 102.34" fill="#fff"/><polygon points="85.82 86.5 95.91 93.02 95.91 81.15 106.33 85.4 98.03 112.84 94.53 112.43 95.02 99.12 83.22 96.31 85.82 86.5" fill="#fff"/><path d="M132.75,92.12,135,87.66,129.18,85l-1.37,4.12-7.21-4.88s2.89-7.47-.27-10.35-10.29-1-10.09,4.52,6.45,8.37,6.45,8.37-3,9-1,13.11,6,5.28,9.13,3.49,5.76-7.13,5.76-7.13l4.39,3,2.81-4.94Zm-14.68-8.78a9.65,9.65,0,0,1-3.43-2.19,2.37,2.37,0,0,1,2.46-3.84C119.57,78,118.07,83.34,118.07,83.34Zm3.84,14.13c-4.6-1.37-1.72-7.61-1.72-7.61L126.43,94S125.43,98.53,121.91,97.47Z" fill="#fff"/><path d="M149.07,60.43l1.51,6s-7.89-.35-6.86,4.25,9.95,2.88,13.45,10.5S153.4,96,143.89,93.36l-1-7.41s7.82,2.06,7.58-2.61S137.75,79,135.63,71.2,144,58.71,149.07,60.43Z" fill="#fff"/><path d="M173.15,57.07l-3.08,4.25s-3.43-3.63-5.9,2.13,1,14.34,4.87,14.13a7.36,7.36,0,0,0,5.55-2.68l2.61,4.33s-3.15,6.45-10.43,5.07-14.13-14.4-9.12-24.22C163.41,48.77,172.12,55.22,173.15,57.07Z" fill="#fff"/><path d="M198.4,71.82l-6.86-5.42s4.8-3.23,3.91-10.5S187.08,46,178,51.37L180,79.78h6.92L186.46,69l6.31,8Zm-12.76-7.67L185.3,55s4-.45,4.39,2.88A5.74,5.74,0,0,1,185.64,64.15Z" fill="#fff"/><path d="M202.79,40.74l-4.94,2.4,4.39,30.6,7.07-1-2.61-8.63L211,61.66l4.74,6.73,6-4.74Zm2.51,19.45-1.82-9.71,5.83,7.07Z" fill="#fff"/><polygon points="230.99 60.19 226.29 39.55 230.23 37.31 227.76 29.56 210.2 40.74 213.49 46.85 218.65 43.91 226.39 62.69 230.99 60.19" fill="#fff"/><path d="M246.83,28.19l-1.71,4.18s-5.22-2.13-5.63,4.05,2.2,11.11,6.31,11.11,4.87-3,4.87-3l2.54,4.12s-3.77,6-9.67,5.08-13-7-10.84-19.49C234.76,22.08,246.08,26.13,246.83,28.19Z" fill="#fff"/><polygon points="247.59 20.91 255.34 17.55 259.11 31.82 263.57 30.79 263.57 17.55 271.8 17.89 268.58 46.13 264.05 46.13 263.5 37.45 259.7 38 260.14 46.13 256.37 47.6 247.59 20.91" fill="#fff"/><polygon points="271.8 11.04 279.42 27.36 278.25 42.94 286.49 41.63 284.91 28.39 300 16.39 296.36 8.77 283.6 22.84 279.35 7.67 271.8 11.04" fill="#fff"/><circle cx="202.85" cy="106.51" r="4.74" fill="#fff"/><path d="M232,113.28c-2.75,5.88-8.25,17.89-13.26,11.07,0,0,8.76-13.44,7.13-18.82s-12.38-5.69-15.38,5.72c-1.66,6.33-1.06,12.34,1.07,16.4-1.57,2.23-3.79,4.81-5.82,5-3.63.37-.63-16.64-.63-16.64s-5.25,4.76-8.13,5.13-8.13-2.12-8.13-2.12c3.76,7.5,2.13,21.63,0,22.38s-4.25-8-4.37-13.13-2.25-5.75-3.38-3c-.71,1.75-3.85,3.69-6,4.88-1-.76-3.47-2-8-.63-5.19,1.59-6.34,13.51-6.42,19-.82,1.21-4.4,6.24-5.87,4.25-1.66-2.25,2.91-21.13-1.46-26.89s-12.89,6.26-12.89,6.26c-5.5-8.38-11.88,1.37-11.88,1.37-5.88-10.75-12.5,8.38-12.5,8.38l3.12,3.63s2-6.88,5.63-6.38.38,34.89.38,34.89H130s1.63-35.64,6.26-35.51,2.59,13.75,2.59,13.75l3.79-.5s2.25-18.26,5.46-17.76-2.21,26.52,2,30.64,7.5-2.62,9.13-7.37c.74-2.19,1.62-2.73,2.35-2.69,1.36,3.47,4.11,7.41,8.4,7.06,5.56-.45,13-15.21,7.58-27.38l3.3-.51s1.38,16.39,7.88,14.14,6.63-21.77,6.63-21.77l4.13-1s-1.75,15,6.5,13.64c3.42-.57,6.4-4.49,8.28-7.62a7.32,7.32,0,0,0,4.85,1.61c7.38-.25,11.76-7.5,14.39-13.63s3.62-9.63,5.63-10.5C239.23,108.66,234.72,107.4,232,113.28Zm-58.53,35c-.87,5.75-4.88,9.13-6.63,3.25s.88-16.13,3.88-16.26C175.07,135.11,174.32,142.55,173.44,148.3Zm43.65-29.51c-1.63.25-4.63-3.26.62-8.76C220,107.66,218.71,118.54,217.09,118.79Z" fill="#fff"/></svg>