<svg xmlns="http://www.w3.org/2000/svg" viewBox="0 0 300 76"><path d="M107.98 9.51V29.1c0 1.42 1.38 2.68 2.88 2.68 1.58 0 2.88-1.22 2.88-2.68V9.51h5.2c.27 0 .54-.06.8-.17l1.37 19.33c.1 1.42 1.57 2.58 3.06 2.47 1.57-.11 2.78-1.42 2.68-2.88l-.6-8.42 9.63-.68.6 8.42c.1 1.42 1.57 2.58 3.06 2.47.66-.05 1.25-.3 1.71-.69.09 1.05.71 1.91 1.91 2.08l12.75 1.88c1.25.18 2.52-.86 2.71-2.15.2-1.37-.69-2.65-1.97-2.84l-9.32-1.37.85-5.77 7.76 1.14c1.25.18 2.51-.83 2.7-2.11.2-1.37-.69-2.61-1.98-2.8l-7.76-1.14.91-6.16 8.97 1.32c1.25.18 2.52-.87 2.71-2.15.21-1.4-.68-2.69-1.97-2.88l-12.4-1.82c-1.44-.21-2.38.76-2.62 2.09l-2.52 17.1-1.33-18.72c-.1-1.46-1.49-2.58-3.06-2.47-1.49.11-2.74 1.46-2.68 2.88l.61 8.57-9.63.68-.61-8.57c-.1-1.46-1.49-2.58-3.06-2.47-.83.06-1.59.51-2.08 1.14-.35-.22-.76-.36-1.2-.36h-16.16c-1.3 0-2.37 1.14-2.37 2.56 0 1.3 1.14 2.52 2.37 2.52h5.2zM196.9 46.32c-1.4-.46-3.16.17-3.66 1.49l-5.65 15.28-2.68-11.93c-.26-1.2-1.13-1.95-2.51-2.01h-.24c-1.38-.08-2.32.59-2.69 1.76l-3.78 11.62-4.19-15.75c-.37-1.36-2.07-2.15-3.51-1.82-1.52.36-2.42 2.02-2.02 3.42l1.28 4.48a13.647 13.647 0 0 0-11.34-5.96c-6.31 0-11.53 4.2-13.2 9.98v-9.52c0-1.46-1.3-2.68-2.88-2.68s-2.84 1.26-2.88 2.68v8.59h-9.66v-8.59c0-1.46-1.3-2.68-2.88-2.68s-2.84 1.26-2.88 2.68v12.32c-1.13-1.79-3.36-3.4-7.81-3.82l-3.35-.33c-2.73-.25-3.25-1.47-3.38-2.17-.3-1.59.95-3.03 2.93-3.4 1.2-.23 2.75-.08 4.15 1.14 1.15.99 2.46 1.14 3.69-.01.85-.8 1.16-2.15.26-3.3-1.96-2.52-5.14-3.64-8.98-2.92-5.11.97-8.57 4.95-7.67 9.71.45 2.4 2.1 5.58 8.33 6.29l3.38.28c2.86.26 3.6 1.21 3.79 2.41.29 1.75-1.09 3.14-3.38 3.57-2.4.45-3.97-.61-4.78-1.71-.75-1.02-2.34-1.56-3.74-.7-1.22.75-1.59 2.19-.91 3.46 1.81 3.23 5.65 4.87 10.38 3.98 2.88-.54 5.61-2.03 7.1-4.31v1.7c0 1.42 1.38 2.68 2.88 2.68 1.58 0 2.88-1.22 2.88-2.68v-8.44h9.66v8.44c0 1.42 1.38 2.68 2.88 2.68 1.58 0 2.88-1.22 2.88-2.68V64.8c1.67 5.73 6.89 9.93 13.2 9.93 7.54 0 13.5-5.94 13.79-13.33l2.58 9.03c.37 1.36 1.31 2.27 2.57 2.33l.39.02c1.3.06 2.41-.79 2.82-2.08l3.77-12.1 2.61 12.4c.29 1.32 1.31 2.27 2.61 2.33l.39.02c1.26.06 2.29-.76 2.78-2.08l8.35-21.35c.54-1.36-.21-3.09-1.69-3.59zm-40.98 22.8c-4.61 0-8-3.75-8-8.28s3.39-8.36 8-8.36 8.04 3.82 8.04 8.36-3.43 8.28-8.04 8.28zM298.82 2.07c-1.22-.83-3-.63-3.75.51L289 11.92l-5.99-9.34c-.79-1.14-2.52-1.34-3.75-.51-.77.54-1.19 1.49-1.18 2.4l-11.85-1.03c-1.45-.13-2.33.91-2.49 2.24l-1.93 22.19v.31l-8.67-7.71 6.46-10.36c.79-1.22.05-2.78-1.28-3.44-1.21-.6-2.87-.16-3.51 1.01l-5 8.56-.61-6.4c-.14-1.45-1.55-2.54-3.12-2.39-.89.09-1.68.62-2.16 1.33V4.92c0-1.46-1.3-2.68-2.88-2.68s-2.88 1.26-2.88 2.68v13.76l-8.24-14.43c-.91-1.62-1.97-2.01-3.19-2.01h-.51c-1.42 0-2.64 1.3-2.64 2.96v9.37c-1.7-5.73-6.9-9.89-13.21-9.89s-11.08 3.85-12.97 9.25c-1.34-6.37-5.94-10.71-12.85-10.21l-8.34.6c-1.46.1-2.16 1.26-2.11 2.6l1.59 22.22c.09 1.3 1 2.38 2.46 2.27l8.34-.6c5.59-.4 9.24-3.68 10.65-8.33 1.64 5.78 6.88 10.03 13.23 10.03s11.51-4.15 13.21-9.84v4.45c0 1.42 1.38 2.68 2.88 2.68 1.58 0 2.88-1.22 2.88-2.68V13.16l8.44 14.67c.91 1.58 1.89 1.97 3.08 1.97h.51c1.38 0 2.56-1.26 2.56-2.88V15.13l1.66 17.36c.14 1.41 1.63 2.54 3.12 2.39 1.57-.15 2.75-1.49 2.61-2.94l-.64-6.67 8.43 7.87c.96.9 2.8.72 3.73-.36.59-.64.82-1.53.7-2.33.11.03.22.05.35.06l12.84 1.12c1.26.11 2.46-1.01 2.57-2.31.12-1.37-.84-2.61-2.14-2.72l-9.39-.82.51-5.81 7.82.68c1.26.11 2.46-.97 2.57-2.27.12-1.37-.85-2.57-2.14-2.68l-7.82-.68.54-6.21 9.03.79c.82.07 1.62-.39 2.11-1.07l5.73 8.1v9.82c0 1.42 1.38 2.68 2.88 2.68 1.58 0 2.88-1.22 2.88-2.68v-9.74l7.73-10.88c.75-1.14.39-2.92-.79-3.75zM186.13 25.76l-4.88.35-1.22-16.99 4.88-.35c4.33-.31 6.78 3.59 7.1 8.07.32 4.44-1.56 8.61-5.88 8.92zm24.24 1.14c-4.61 0-8-3.75-8-8.28s3.39-8.36 8-8.36 8.04 3.82 8.04 8.36-3.43 8.28-8.04 8.28zM88.94 2.87c-1.22-.83-3-.63-3.75.51l-6.07 9.34-5.99-9.34c-.79-1.14-2.52-1.34-3.75-.51-.82.58-1.24 1.61-1.17 2.57-1.16-1.04-2.67-1.82-4.5-2.28-5.05-1.25-9.86.93-11.02 5.64-.59 2.37-.42 5.95 4.96 9.19l2.96 1.67c2.49 1.43 2.77 2.59 2.44 3.77-.46 1.71-2.3 2.4-4.56 1.84-2.37-.59-3.35-2.21-3.63-3.54-.26-1.24-1.48-2.4-3.11-2.19-.67.08-1.22.39-1.62.83V4.81c0-1.46-1.3-2.68-2.88-2.68s-2.84 1.26-2.88 2.68v16.51l-9-18.97C34.6.76 33.25-.16 31.25.02l-.24.02c-2 .18-3.17 1.31-3.65 3.01l-4.5 16.36c.03-.44.05-.89.05-1.35 0-7.73-4.45-13.64-12.26-13.64H2.29C.83 4.43.04 5.53 0 6.87v22.28c0 1.3.83 2.44 2.29 2.44h8.36c5.07 0 8.72-2.46 10.67-6.3-.05 1.26.83 2.61 2.11 2.91 1.49.34 3.09-.43 3.48-1.81l1.41-5.11 9.27-.81 2.28 4.79c.63 1.29 2.33 1.77 3.74 1.18.29-.12.54-.3.75-.52V27c0 1.42 1.38 2.68 2.88 2.68 1.58 0 2.88-1.22 2.88-2.68v-2.17c1.12 2.53 3.59 4.53 7.14 5.4 4.67 1.16 10.03-.16 11.4-5.38.7-2.51.67-6.33-5.26-9.75l-2.91-1.7c-2.38-1.36-2.34-2.69-2.17-3.38.39-1.57 2.13-2.36 4.08-1.87 1.19.29 2.54 1.07 3.3 2.77.63 1.38 1.76 2.06 3.36 1.52 1.11-.38 1.95-1.47 1.61-2.89v-.03l5.59 7.9v9.82c0 1.42 1.38 2.68 2.88 2.68 1.58 0 2.88-1.22 2.88-2.68V17.5l7.73-10.88c.75-1.14.39-2.92-.79-3.75zm-78.3 23.68H5.75V9.51h4.89c4.34 0 6.51 4.06 6.51 8.56s-2.17 8.48-6.51 8.48zm19.13-10.41l1.92-9.67 3.57 9.19-5.5.48z" fill="#fff" stroke-width="0"/></svg>