<svg xmlns="http://www.w3.org/2000/svg" width="240" height="84" viewBox="0 0 240 84"><path d="M1 25.92V.88h4.77v20.81h7.7v4.23zM216.23 16.13v-.41h2.29l.12.29 4.89-.25-.43-1c2.67-1 3.78-3.26 3.78-6.38 0-4.72-2.74-7.49-8.5-7.49h-6.94v15.48zm0-11.3h2.46c2.12 0 3.4 1 3.4 3.47s-1.28 3.47-3.4 3.47h-2.46zM211.45 75.35l.54-1.63h14.73l1.06 3.58 10.49 1.26-12.09-38.91h-13.65l-11 34.5zM219.16 49h.16l5.16 17.46h-10.56zM173.97 70.85l10.64 1.28v-6.78l15.19-25.7h-11.33l-9.02 17.39-9.33-17.39h-11.33l15.18 25.7v5.5zM127.23 65.25V52.44c0-4.78 2.7-6.1 6.94-6.1s6.94 1.32 6.94 6.1v14.47l10.64 1.28V53.52c0-10.64-7.25-14.47-17.58-14.47s-17.58 3.83-17.58 14.47V64zM83.6 60.02l10.64 1.28V46.94h12.41v-7.29H71.19v7.29H83.6v13.08zM49.52 55.94l.75-2.5h.13l.8 2.7 8.84 1.06-3.68-11.85H44.51l-3.07 9.62 8.08.97zM10.79 51.3V39.05H0V50l10.79 1.3zM228.72 79.14l1.1 3.73H240l-.77-2.47-10.51-1.26zM201.38 75.86l-2.24 7.01h10.26l1.92-5.81-9.94-1.2zM174.19 72.83v10.24h10.63V74.1l-10.63-1.27zM141.52 68.69v1.39c0 4.78-2.7 6.1-6.94 6.1s-6.94-1.32-6.94-6.1V67L117 65.75V69c0 10.64 7.25 14.46 17.58 14.46 10 0 17.13-3.59 17.56-13.51zM193.56 17.27v-9c0-2.78 1.21-3.54 3.12-3.54s3.12.76 3.12 3.54V17l4.79-.24V8.92c0-6.17-3.26-8.39-7.91-8.39s-7.91 2.22-7.91 8.39v8.6zM172.47 18.34V15.1h7.7v-4.23h-7.7V5.11h9.44V.88h-14.22v17.7l4.78-.24zM137.33 13.09V17h3.52v1.53a4.53 4.53 0 0 1-.21 1.37l4.65-.23a41.19 41.19 0 0 0 .19-6.62z" fill="#fff"/><path d="M134.88 20.23a5.64 5.64 0 0 1-.22-1.73V8.3c0-2.78 1.21-3.54 3.12-3.54 1.73 0 2.91 1 2.91 4.27h4.79c-.18-5.69-2.81-8.5-7.7-8.5-4.65 0-7.91 2.22-7.91 8.39v9a13.85 13.85 0 0 0 .23 2.61zM110.73 21.45V9.76h.07l5.17 11.43 6.72-.34V.88h-4.37v14.84h-.07L111.59.88h-5.23v20.79l4.37-.22zM85.82 21.54v1.17L99.98 22v-.46H95.3V5.26h4.68V.88H85.82v4.38h4.69v16.28h-4.69zM69.22 23.55v-5.3l1.87-2.84 3.74 7.86 5.23-.27-5.78-12.03L80.73.88H75.5l-6.21 10.33h-.07V.88h-4.79v22.91l4.79-.24zM45.21 24.76l11.14-.56c1.28-1.34 2-3.38 2-6.33v-9c0-6.17-3.26-8.39-7.9-8.39s-7.91 2.22-7.91 8.39v9c.02 3.4 1.01 5.6 2.67 6.89zM47.34 8.3c0-2.78 1.22-3.54 3.13-3.54s3.12.76 3.12 3.54v10.2c0 2.77-1.22 3.53-3.12 3.53s-3.13-.76-3.13-3.53zM24.13 25.82l7.33-.37c2.34-1.11 3.78-3.47 3.78-7.58v-9c0-6.12-3.24-8.34-7.91-8.34s-7.91 2.22-7.91 8.39v9c0 4.58 1.84 6.99 4.71 7.9zm.08-17.52c0-2.78 1.21-3.54 3.12-3.54s3.12.76 3.12 3.54v10.2c0 2.77-1.21 3.53-3.12 3.53s-3.12-.76-3.12-3.53zM217.74 17.64l4.01 9.82h5.13l-4.25-10.06-4.89.24zM210.51 18.01v9.45h4.78v-9.69l-4.78.24zM198.86 18.6V20c0 2.78-1.21 3.54-3.12 3.54s-3.12-.76-3.12-3.54v-1.09l-4.79.24v.26c0 6.17 3.26 8.39 7.91 8.39s7.91-2.22 7.91-8.39v-1.06zM166.75 20.22v7.24h4.79v-7.48l-4.79.24zM139.67 21.58a2.87 2.87 0 0 1-2.83 2c-1.39 0-2.41-.41-2.86-1.7l-4.8.24c.85 4.13 3.77 5.69 7.66 5.69 5.2 0 6.94-3 7.5-6.45zM115.08 22.82l2.1 4.64h4.58v-4.97l-6.68.33zM105.42 23.31v4.15h4.37v-4.37l-4.37.22zM84.89 24.35v3.11h14.16v-3.83l-14.16.72zM73.94 24.9l1.21 2.56h5.38l-1.36-2.82-5.23.26zM63.5 25.43v2.03h4.78v-2.28l-4.78.25zM44.39 26.39a8.53 8.53 0 0 0 5.14 1.41 8 8 0 0 0 5.78-2zM23.49 27.44a10.67 10.67 0 0 0 2.9.36 9.71 9.71 0 0 0 3.89-.7zM83.81 62v21.07h10.64v-19.8L83.81 62zM51.74 58.37l3.16 10.69h-9.17l3.31-11.01-8.11-.97-8.38 26.19h8.9l2.61-7.88h12.78l2.34 7.88h8.83L60.6 59.44l-8.86-1.07zM11 53.07L.21 51.78v31.09h28.14v-7.39H11V53.07z" fill="#fff"/></svg>