<svg xmlns="http://www.w3.org/2000/svg" viewBox="0 0 260 106"><path d="M10.64 49.83H1.06c-.88 0-1.06-.5-1.06-1.31V2.34C0 1.22.19.4 1.63.4h15.01c1.75 0 3.13 1.31 3.13 2.94v16.58h-9.2v3.75h8.88v3.69h-8.82v22.46zM41.92 3.53v35.41h31.72v10.45c0 .25-.38.44-.5.44H33.29v-6.82h-2.32v6.82H22.9c-.44 0-.56-.25-.56-.5V3.53c0-1.75 1.38-3.13 3.13-3.13H38.8c1.75 0 3.13 1.38 3.13 3.13zm-8.7 16.45c0-.25-.19-.44-.44-.44h-1.25c-.25 0-.44.19-.44.44v9.89c0 .19.19.38.44.38h1.25c.25 0 .44-.19.44-.38v-9.89zM73.7 3.78v30.84c0 1-1.38 1.75-3.13 1.75h-5.32V20.73c0-.44-.19-.81-.44-.81h-1.25c-.25 0-.5.38-.5.81v14.95c-.56.44-1.38.69-2.25.69h-5.13V20.98c0-.63-.19-1.06-.44-1.06h-1.25c-.31 0-.5.44-.5 1.06v15.39h-6.07c-1.75 0-3.13-1-3.13-2.31V2.22c0-1.25 1.44-1.81 3.13-1.81h4.19c1.75 0 1.94 1.63 1.94 1.63h17.02c1.75 0 3.13.81 3.13 1.75zM92.71 49.83H79.26c-1.75 0-3.13-1.06-3.13-2.38V12.54c0-1.25 1.38-2.31 3.13-2.31h13.45c1.75 0 3.19 1.06 3.19 2.31v34.91c0 1.31-1.44 2.38-3.19 2.38zm-.62-40.98h-12.2c-1.75 0-3.13-.25-3.13-.5V.9c0-.31 1.38-.5 3.13-.5h12.2c1.75 0 3.19.19 3.19.5v7.45c0 .25-1.44.5-3.19.5zM133.82 49.83H98.91c-.44 0-.56-.31-.56-.5L98.41.84c0-.25.38-.5.5-.5h12.33c.38 0 .56.31.56.56v31.66h21.9c.44 0 .56.31.56.5V49.2s0 .63-.44.63zm-3.38-20.02c0 .19-.31.44-.5.44h-11.01c-.38 0-.56-.25-.56-.5V14.17c0-1.75-3.88-3.38-3.88-5.13V.9c0-.25.44-.5.56-.5h8.2v9.26h2.31V.4h8.2c.37 0 .56.31.56.56v8.26c0 1.63-3.88 3.19-3.88 4.88v15.7zM10.64 105.66H1.06c-.88 0-1.06-.5-1.06-1.31V58.18c0-1.13.19-1.94 1.63-1.94h15.01c1.75 0 3.13 1.31 3.13 2.94v16.58h-9.2v3.75h8.88v3.69h-8.82v22.46zM62.75 105.66H35.41l-1.81-2.69-2.5.06v2.63h-8.2c-.44 0-.56-.25-.56-.5l.06-48.49c0-.19.25-.38.44-.44h16.02c1.75.06 3.13 1.19 3.13 2.69v28.53c0 1.44-1.13 2.57-2.88 2.57l2.88 4.75h20.77c.88 0 1.56.25 1.56.63v9.7c0 .31-.69.56-1.56.56zM33.35 70c0-.25-.19-.44-.44-.44H31.6c-.25 0-.44.19-.44.44v9.95c0 .25.19.44.44.44h1.31c.25 0 .44-.19.44-.44V70zm21.96-1.75V72h8.76v3.69h-8.82v3.5h9.13v9.57c0 1.69-1.38 2.94-3.13 2.94H45.73c-.94 0-1.06-.63-1.06-1.5V58.23c0-1.13.12-2.06 1.56-2.06h15.01c1.75 0 3.13 1.25 3.13 2.82v9.26H55.3zM77.58 75.69v3.75h8.76v3.75h-8.82v3.44h9.13v16.08c0 1.69-1.38 2.94-3.13 2.94H68c-.88 0-1.13-.31-1.13-2.94V58.54c0-1.25.06-2.31 1.63-2.31h15.01c1.75 0 3.13 1.25 3.13 2.88v16.58h-9.07zM107.29 85.7v6.94c0 .88-.69 1.63-1.56 1.63H90.59c-.88 0-1.56-.75-1.56-1.63V85.7c0-.88.69-1.63 1.56-1.63h15.14c.88 0 1.56.75 1.56 1.63zM120.3 105.66h-9.57c-.88 0-1.06-.5-1.06-1.31V58.18c0-1.13.19-1.94 1.63-1.94h15.01c1.75 0 3.13 1.31 3.13 2.94v16.58h-9.2v3.75h8.88v3.69h-8.82v22.46zM148.64 105.66h-13.51c-1.69 0-3.13-1.31-3.13-2.94V59.18c0-1.63 1.44-2.94 3.13-2.94h13.51c1.75 0 3.13 1.31 3.13 2.94v43.54c0 1.63-1.38 2.94-3.13 2.94zm-5.38-29.47c0-.25-.19-.44-.44-.44h-1.25c-.25 0-.5.19-.5.44v9.95c0 .25.25.44.5.44h1.25c.25 0 .44-.19.44-.44v-9.95zM173.92 105.66h-6.63l-1.69-2.63h-2.63v2.63h-8.2c-.44 0-.56-.25-.56-.5l.06-48.49c0-.19.06-.44.5-.44h15.95c1.75 0 3.13 1.19 3.13 2.69v34.35c0 1.44-1.13 2.57-2.88 2.57l2.88 4.94.06 4.88zm-8.64-31.34c0-.19-.19-.38-.5-.38h-1.25c-.25 0-.44.19-.44.38v8.88c0 .25.19.38.44.38h1.25c.31 0 .5-.13.5-.38v-8.88zM194.62 85.7v6.94c0 .88-.69 1.63-1.56 1.63h-15.14c-.88 0-1.56-.75-1.56-1.63V85.7c0-.88.69-1.63 1.56-1.63h15.14c.88 0 1.56.75 1.56 1.63zM216.58 59.36v45.86c0 .25-.38.44-.5.44h-8.13v-6.82h-2.32v6.82h-8.07c-.44 0-.56-.25-.56-.5v-45.8c0-1.75 1.38-3.13 3.13-3.13h13.33c1.75 0 3.13 1.38 3.13 3.13zm-8.69 16.46c0-.25-.19-.44-.44-.44h-1.25c-.25 0-.5.19-.5.44v9.89c0 .19.25.38.5.38h1.25c.25 0 .44-.19.44-.38v-9.89zM259.5 105.66h-39.92c-.38 0-.56-.31-.56-.5l.06-48.49c0-.25.38-.5.5-.5h10.64c.44 0 .56.31.56.56v31.66h28.59c.44 0 .56.31.56.5v16.14s0 .63-.44.63zm.06-19.9h-24.34c-.37 0-.56-.31-.56-.5l.06-28.65c0-.19.38-.44.5-.44h10.64c.44 0 .56.31.56.5V71h13.01c.44 0 .56.31.56.5v13.64s-.06.63-.44.63zM181.25 18.1c-.24-.75-.95-1.26-1.74-1.26h-11.1l-3.43-10.55c-.24-.75-.95-1.26-1.74-1.26s-1.49.51-1.74 1.26l-3.43 10.55h-11.1c-.79 0-1.49.51-1.74 1.26s.02 1.58.66 2.04l8.98 6.52-3.43 10.55a1.828 1.828 0 0 0 1.73 2.39c.37 0 .75-.12 1.07-.35l8.98-6.52 8.98 6.52c.32.23.7.35 1.07.35s.75-.12 1.07-.35c.64-.47.91-1.29.66-2.04l-3.43-10.55 8.98-6.52c.64-.47.91-1.29.66-2.04zM220.58 18.1c-.24-.75-.95-1.26-1.74-1.26h-11.1l-3.43-10.55c-.24-.75-.95-1.26-1.74-1.26s-1.49.51-1.74 1.26l-3.43 10.55h-11.1c-.79 0-1.49.51-1.74 1.26s.02 1.58.66 2.04l8.98 6.52-3.43 10.55a1.828 1.828 0 0 0 1.73 2.39c.37 0 .75-.12 1.07-.35l8.98-6.52 8.98 6.52c.32.23.7.35 1.07.35s.75-.12 1.07-.35c.64-.47.91-1.29.66-2.04l-3.43-10.55 8.98-6.52c.64-.47.91-1.29.66-2.04zM259.91 18.1c-.24-.75-.95-1.26-1.74-1.26h-11.1l-3.43-10.55c-.24-.75-.95-1.26-1.74-1.26s-1.49.51-1.74 1.26l-3.43 10.55h-11.1c-.79 0-1.49.51-1.74 1.26s.02 1.58.66 2.04l8.98 6.52-3.43 10.55a1.828 1.828 0 0 0 1.73 2.39c.37 0 .75-.12 1.07-.35l8.98-6.52 8.98 6.52c.32.23.7.35 1.07.35s.75-.12 1.07-.35c.64-.47.91-1.29.66-2.04l-3.43-10.55 8.98-6.52c.64-.47.91-1.29.66-2.04z" fill="#fff"/></svg>