<svg xmlns="http://www.w3.org/2000/svg" width="280" height="49" viewBox="0 0 280 49"><g id="logos"><path d="M82.62,4.19l-1.5,5.6a1,1,0,0,0,1,1.37H96.92L96.17,14H81.39a3.12,3.12,0,0,1-3.07-4.19l1.5-5.6A5.87,5.87,0,0,1,85.14,0H99.92l-.75,2.8H84.39A2,2,0,0,0,82.62,4.19Z" fill="#fff"/><path d="M103.66,0h2.8l-3.75,14H99.92Z" fill="#fff"/><path d="M114.5,14l3-11.18h-7.78l.74-2.8h18.38l-.75,2.8h-7.79l-3,11.18Z" fill="#fff"/><path d="M131.82,0h2.8l-3.75,14h-2.79Z" fill="#fff"/><path d="M164.24,0h15.38l-.75,2.8H163.49a2,2,0,0,0-1.77,1.39l-.37,1.4h16.77l-.75,2.8H160.6l-.38,1.4a1,1,0,0,0,1,1.37h15.38L175.87,14H160.5a3.12,3.12,0,0,1-3.09-4.19l1.49-5.6A5.91,5.91,0,0,1,164.24,0Z" fill="#fff"/><path d="M197.84,0h2.82l-3.09,11.54c-.21.73-.66,2.44-.66,2.44h-3.45a1.87,1.87,0,0,1-1.34-.52L185.62,3.2h-1L181.72,14h-2.8L182,2.44,182.67,0h3.45a1.82,1.82,0,0,1,1.34.52L194,10.78h1Z" fill="#fff"/><path d="M8.93,31.15a1.7,1.7,0,0,0,1.68,2.3H27c3.82,0,6.08,3.09,5.06,6.91a9.72,9.72,0,0,1-8.76,6.91H0l1.24-4.64H24.58a3.22,3.22,0,0,0,2.91-2.27,1.71,1.71,0,0,0-1.68-2.31H9.38c-3.79,0-6.08-3.09-5.06-6.9a9.69,9.69,0,0,1,8.76-6.91H36.42l-1.24,4.6H11.85A3.27,3.27,0,0,0,8.93,31.15Z" fill="#fff"/><path d="M47.09,47.27,52,28.84H39.21l1.23-4.6H70.69l-1.23,4.6H56.64L51.7,47.27Z" fill="#fff"/><path d="M127,40l2.86,7.24h-5.52l-2.76-6.91H106.23l-1.85,6.91H99.77l6.17-23h23.34c3.81,0,6.05,3.09,5,6.91l-.61,2.3A9.72,9.72,0,0,1,127,40Zm2.71-8.88A1.73,1.73,0,0,0,128,28.84H109.31l-1.85,6.91h18.73a3.23,3.23,0,0,0,2.92-2.3Z" fill="#fff"/><path d="M136.12,40.36l4.32-16.12h4.61l-4.32,16.12a1.68,1.68,0,0,0,1.66,2.27h23.34l-1.24,4.64H141.15C137.36,47.27,135.11,44.14,136.12,40.36Z" fill="#fff"/><path d="M173.54,24.24h4.61l-6.17,23h-4.61Z" fill="#fff"/><path d="M189.44,24.24h23.34l-1.24,4.6H188.21a3.23,3.23,0,0,0-2.89,2.31l-2.47,9.21a1.69,1.69,0,0,0,1.66,2.27h16.43a3.31,3.31,0,0,0,2.95-2.27l1.82-6.91h4.6l-1.85,6.91a9.72,9.72,0,0,1-8.76,6.91H183.27c-3.78,0-6.07-3.13-5.06-6.91l2.47-9.21A9.69,9.69,0,0,1,189.44,24.24Z" fill="#fff"/><path d="M215.32,47.27h-4.57l6.17-23h4.57L219,33.45h21.24l2.47-9.21h4.6l-6.17,23h-4.61L239,38.05H217.79Z" fill="#fff"/><path d="M256.4,47.27l4.94-18.43H248.52l1.23-4.6H280l-1.23,4.6H266L261,47.27Z" fill="#fff"/><path d="M157.78,0H138.21l-.75,2.8h15.06L137,9.63a3.26,3.26,0,0,0-1.89,2.07L134.47,14H154l.75-2.82H139.73l15.55-6.83a3.16,3.16,0,0,0,1.89-2.05h0Z" fill="#fff"/><path d="M94.41,24.24h-13a9.69,9.69,0,0,0-8.76,6.91L68.28,47.27h4.64l1.85-6.91H92.36l-1.85,6.91h4.64l4.32-16.12C100.49,27.33,98.2,24.24,94.41,24.24ZM76,35.75l1.24-4.6a3.21,3.21,0,0,1,2.89-2.31H93.18a1.71,1.71,0,0,1,1.65,2.31l-1.23,4.6Z" fill="#fff"/></g></svg>