<svg xmlns="http://www.w3.org/2000/svg" width="300" height="32" viewBox="0 0 300 32"><path d="M22.56 15.43s8.04-.63 8.26-5.45c.24-5.21-3.16-9.17-12.8-9.17H1.98L0 30.45h17.94c8.53 0 13.27-2.19 13.59-7.66.4-6.72-8.97-7.35-8.97-7.35zm-11.5-8.92h4.86c2.8 0 5.25.87 5.25 3.56s-1.82 3.56-4.27 3.56h-6.24l.4-7.11zm6.4 18.8h-7.27l.4-7.11h5.89c2.8 0 5.25.87 5.25 3.56s-1.82 3.56-4.27 3.56zM64.56.82H53.27L34.21 30.45h11.56l3.7-8.7h14.62l2.96 8.7H77.6L64.56.82zM52.63 14.99l4.44-9.16h2.41l3.15 9.16h-9.99zM246.51.82h-11.29l-19.06 29.63h11.56l3.7-8.7h14.62l2.96 8.7h10.55L246.51.82zm-11.93 14.17l4.44-9.16h2.41l3.15 9.16h-9.99zM80.84 30.45L83.8.82h11.38l11.57 21.1h2.96l.83-21.1h7.96l-1.76 29.63h-12.68L93.05 11.47h-2.77l-.56 18.98h-8.88zM121.66 30.45L124.62.82H136l11.57 21.1h2.96l.83-21.1h7.96l-1.76 29.63h-12.67l-11.01-18.98h-2.78l-.55 18.98h-8.89zM262.35 30.45L265.31.82h11.38l11.56 21.1h2.96l.83-21.1H300l-1.76 29.63h-12.67l-11.01-18.98h-2.78l-.55 18.98h-8.88zM172.25 30.45h-9.24L164.52.82h9.23l-1.5 29.63zM212.19 1.85l.03 6.3s-4.4-2.63-13.59-1.78-11.63 5.27-11.82 9.26c-.15 3.08.97 7.25 8.15 8.36 4.9.75 8.38 0 8.38 0l-.09-3.67h-4.05V14.1h13.75v15.45s-5.32 2.52-17.8 1.46c-13.6-1.16-17.03-8.85-17.03-15.37S186.8-5.05 212.2 1.86z" fill="#fff"/></svg>