<svg xmlns="http://www.w3.org/2000/svg" viewBox="0 0 260 77"><path d="M106.44 20.83c.34 2.07 2.48 2.28 4.19 2.43l-.15.92c-2.88.05-5.77-.19-8.66-.1-.49.02-2.21.51-2.41-.09-.29-.89 1.09-.92 1.62-1.2.87-.47 1.11-1.22 1.2-2.15.54-5.16-.37-11.14.03-16.39-.24-2.83-1.73-1.62-3.09-2.6-.37-.27-.42-.82 0-.96.6-.2 2.69.28 3.49.32 2.03.1 3.77-.27 5.71-.35.56-.02 1.73.04 1.18.86-.27.41-2.13.24-2.78 1.24-.08.12-.33.76-.33.84v7.2l.25.25h10.65V3.59s-.41-.74-.5-.84c-.83-.96-2.44-.77-2.87-1.33-.97-1.28 3.46-.43 3.78-.42 1 .04 2.21.05 3.2 0 .65-.03 3.39-.67 3.59-.07.2.98-.9.76-1.49.99-.74.28-1.2.5-1.33 1.35.41 5.48-.59 11.86-.01 17.23.15 1.35.94 1.97 2.15 2.38.68.23 1.86.08 1.89.97 0 .27-.03.21-.22.3-.87.39-2.3-.04-3.23-.06-2.4-.05-4.79.07-7.19.14-1.35-1.08.95-1.13 1.62-1.66.16-.13.61-.79.61-.9v-8.95h-10.65l-.25.25v7.87zM190.42 2.56c2.59 2.65 1.87 6.93-1.57 8.44-.19.08-1.77.33-1.39.71 4.12.27 7.16 2.87 6.33 7.24-1.01 5.31-7.76 5.87-12.13 5.66-2.16-.11-4.57-.82-6.7-.67-.66.04-2.73.85-2.61-.25.09-.79 2.26-.47 2.52-2.19.09-.6.15-1.68.19-2.33.2-3.92.22-9.16 0-13.07-.04-.78-.19-2.53-.53-3.15-.68-1.23-2.52-.8-2.8-1.56-.46-1.27 2.25-.42 2.91-.39 4.21.22 12.66-1.64 15.79 1.57zm-9.71-.52c-1.17.18-1.32.62-1.45 1.73s-.16 6.23.33 6.99c.72 1.12 4.68.53 5.81-.03 2.46-1.24 2.8-4.66 1.42-6.84-1.11-1.76-4.21-2.14-6.11-1.85zm-1.1 11.04c-.15.16-.35 1.11-.37 1.39-.12 1.31-.17 6.28.21 7.32.7 1.91 4.54 1.65 6.13 1.18 4.96-1.45 5.02-8.83-.1-10.05-.96-.23-5.27-.46-5.88.16zM74.14 20.16c.14 1.31.76 2.38 2.09 2.77.8.24 2.64.02 1.95 1.25-2.77.04-5.54-.16-8.32-.1-.71.02-2.41.6-2.74-.27-.23-.61 1.33-.79 1.77-1.03.79-.43.94-.97 1.03-1.81-.26-5.39.42-11.22.03-16.55-.03-.35-.19-1.5-.38-1.71-.52-.56-3.31-.77-3.47-1.32-.06-.2.02-.35.14-.5.47-.57 3.44.07 4.28.11 4.59.2 12.12-1.91 15.33 2.45 1.94 2.64 1.47 6.99-.98 9.18-2.74 2.45-7.23 1.77-10.55 1.28-.02.13-.19.34-.19.4 0 1.8-.19 4.14 0 5.86zm.39-17.61c-.24.28-.36.99-.39 1.37-.15 1.76-.16 5.13 0 6.88.15 1.58 1.12 1.99 2.6 2.09 6.89.48 8.12-9.29 2.14-10.67-1-.23-3.63-.49-4.35.33zM214.22 13.08c-.15.15-.35 1.12-.37 1.39-.12 1.29-.16 5.9.25 6.95.77 1.97 5.4 1.36 7.01.8 1.13-.4 2.04-1.15 2.8-2.06.38-.46 1.33-2.26 1.77-2.26.75 0 .61 1.26.57 1.74-.65 7.06-7.07 4.63-11.97 4.45-1.46-.05-3.08-.04-4.54 0-.76.02-2.76.69-2.77-.41 0-.4 1.14-.59 1.52-.84.89-.58 1.07-1.53 1.16-2.52.38-4.03.32-11.3.03-15.38-.08-1.08-.2-2.06-1.23-2.62-.55-.3-2.64-.45-2.22-1.3.35-.71 2.9-.03 3.69 0 3.19.14 7.05.13 10.25 0 .82-.03 3.38-.59 3.94-.26s.31 2.82.33 3.52c.02.82.7 2.51-.92 1.92-.64-3.33-2.48-3.71-5.53-3.86-1.64-.08-3.82-.47-4.1 1.61-.17 1.22-.14 4.25-.01 5.51.22 2.17 1.88 2.1 3.77 1.92 2.49-.23 2.65-1.47 3.6-3.44 1.28-.21.68 1.32.67 2.01-.03 1.62 0 3.25 0 4.87 0 .58.35 1.1-.15 1.68-.79.56-1.21-1.8-1.55-2.33-1.11-1.74-4.23-1.73-5.98-1.08zM24.59 24.24l-9.38-.05c-.66-1.58 1.91-.72 2.18-2.36.25-1.54-.76-5.1-2.58-5.27s-5.38-.15-7.23 0c-1.46.12-1.77 1.21-2.22 2.47-.92 2.6-.93 3.64 1.95 4.42l-.05.66c-.21.3-3.84-.03-4.55-.02-.62.01-2.37.53-2.69-.16-.25-.55 1.38-1.21 1.69-1.51 3.72-6.7 6.12-14.41 9.62-21.2.59-1.15 1-1.95 1.97-.4 3.23 6.49 5.67 13.76 8.99 20.15.65 1.26 1.14 1.91 2.42 2.62l-.12.64zM11.13 6.87c-.19.03-.46.43-.57.62-1.23 2.02-2.11 4.84-3.17 6.99l.4.38c1.96-.13 4.46.3 6.35.04.3-.04.64-.12.73-.46.08-.31-2.18-5.12-2.52-5.8-.19-.37-.78-1.84-1.21-1.77zM160.35 24.24l-9.38-.05c-.66-1.58 1.91-.72 2.18-2.36.25-1.54-.76-5.1-2.58-5.27s-5.38-.15-7.23 0c-1.46.12-1.77 1.21-2.22 2.47-.92 2.6-.93 3.64 1.95 4.42l-.05.66c-.21.3-3.84-.03-4.55-.02-.62.01-2.37.53-2.69-.16-.25-.55 1.38-1.21 1.69-1.51 3.72-6.69 6.12-14.41 9.62-21.2.59-1.15 1-1.95 1.97-.4 3.23 6.49 5.67 13.76 8.99 20.15.65 1.26 1.14 1.91 2.42 2.62l-.12.64zM146.89 6.87c-.19.03-.46.43-.57.62-1.23 2.02-2.11 4.84-3.17 6.99l.4.38c1.96-.13 4.46.3 6.35.04.3-.04.64-.12.73-.46.08-.31-2.18-5.12-2.52-5.8-.19-.37-.78-1.84-1.21-1.77zM251.09 3.04a4.83 4.83 0 0 0-.38 1.55c-.32 3.96-.26 10.41 0 14.41.06.91.26 2.77 1.02 3.34.67.5 3.64.73 3.51 1.49-.14.86-3.07.28-3.76.26-2.57-.05-5.13.09-7.69.14-.25-.12-.55-.32-.38-.64.47-.89 2.81-.27 3.1-2.44l-.02-17.52c-.17-.76-.89-.89-1.56-.95-1.75-.18-3.92.2-4.92 1.78-.22.34-1.24 4.16-2.08 2.36-.26-.56.11-3.09.24-3.87.08-.51.23-1.98.68-2.18.73-.32 2.49.19 3.39.23 4.06.17 8.87.16 12.93 0 .93-.04 2.98-.59 3.69-.18 1.1.63 1.25 4.45 1.07 5.6-.04.29-.15.6-.43.75-.96.31-1.13-1.93-1.5-2.64-1.13-2.17-4.88-2.19-6.91-1.49zM46.46 1.64c-1.24.45-2.73.71-2.81 2.3.31 5.35-.48 11.28-.03 16.56.14 1.66.59 2.13 2.26 2.26 2.78.22 5.51-.64 7.39-2.68.49-.53 1.6-2.76 2.34-1.66 1.02 1.51-.76 4.51-2.1 5.42-2.24 1.52-7.11.35-9.8.25-1-.04-6.87.37-7.12 0-.6-.88 1.33-1.04 1.71-1.19.87-.35.94-.88 1.11-1.74-.26-5.34.41-11.1.03-16.39-.21-2.96-1.29-2.43-3.7-3.17-.64-1.64 3.13-.64 4.12-.59.84.04 1.85.05 2.69 0 .64-.03 3.59-.58 3.86-.19l.05.83zM201.94 39.5c-2.6.68-3.94.83-3.41 3.94.29 1.68 4.32 10.47 5.33 12.33.85 1.56 1.48 2.16 2.55.28.98-1.72 5.23-11.62 5.33-13.16.17-2.79-3.62-2.7-4.17-3.59-1.43-2.33 4.04-.88 4.91-.83 2.31.13 4.99-.72 6.81-.57 2.87.24-1.78 3.1-2.45 3.82-2.42 2.6-10.26 17.5-10.68 20.85-.2 1.58-.3 8.49.26 9.65.36.74 1.12 1.11 1.85 1.42 1.19.5 4.5.58 4.37 1.9l-.47.64c-4.08.05-8.13-.33-12.22-.24-1.27.03-5.97 1-6.35-.44-.1-.37-.06-.53.24-.77 1.3-1.04 4.11-.14 4.99-3.17.65-2.23.22-8.29-.44-10.61-.94-3.32-6.22-14.89-8.14-17.69-1.44-2.1-3.63-2.84-5.88-3.78-1.11-2.73 4.74-1.09 6.33-1.02s3.37.08 4.91.02 7.43-1.7 6.32 1.01zM152.97 41.8c-.35.79-.55 1.65-.62 2.51-.52 6.42-.42 16.9 0 23.38.1 1.48.42 4.5 1.65 5.42 1.09.81 5.9 1.19 5.7 2.42-.23 1.39-4.98.45-6.1.43-4.17-.09-8.32.15-12.48.23-.41-.19-.89-.51-.62-1.03.76-1.44 4.56-.45 5.03-3.96l-.03-28.44c-.27-1.24-1.44-1.44-2.53-1.55-2.84-.29-6.36.33-7.98 2.89-.35.56-2.02 6.74-3.38 3.83-.43-.91.19-5.01.39-6.27.13-.82.37-3.21 1.1-3.53 1.19-.52 4.03.32 5.51.38 6.59.27 14.39.26 20.99 0 1.51-.06 4.84-.96 5.99-.3 1.78 1.02 2.03 7.22 1.74 9.1-.07.47-.24.98-.7 1.21-1.56.5-1.83-3.13-2.44-4.29-1.84-3.52-7.92-3.55-11.21-2.41zM57.61 37.2c2.03-.21 4.07-.11 6.06.32 2.1.45 6.15 2.9 7.49 2.88 1.07-.01 1.88-1.81 2.71-1.65.73.14.34 4.39.42 5.29.12 1.41.91 4.03.84 5.17-.23 3.57-3.33-3.14-3.72-3.65-4.17-5.5-11.54-7.93-17.73-4.15-7.67 4.69-8.42 18.21-4.01 25.29 4.54 7.28 14.28 8.61 20.94 3.28.66-.53 3.42-4.12 3.92-2.53.65 2.06-4.38 5.77-5.98 6.73-9.51 5.67-22.91 2.89-27.25-7.81-5.01-12.32 2.61-27.76 16.33-29.17zM111.42 38.23c.93 1.39-1.84 1.54-2.42 1.74-1.4.49-1.9 1.3-2.16 2.74.6 8.77-.89 18.79-.02 27.41.2 1.98.88 3.08 2.78 3.75.96.34 4.32.39 3.99 1.65-.37 1.43-4.84.46-6.08.44-3.9-.08-7.79.13-11.68.24l-.45-.37c-.42-1.38 2.98-1.61 3.77-2.74.48-.68.74-2.64.82-3.53.57-6.51.48-17.29.05-23.88-.08-1.23-.31-3.63-1.09-4.54-1.13-1.3-3.88-1.06-4.64-1.7-.92-.77-.1-1.46.95-1.52 2.95-.17 6.49.74 9.8.56 1.07-.06 5.83-1.06 6.37-.24z" fill="#fff"/></svg>