<svg xmlns="http://www.w3.org/2000/svg" width="250" height="106" viewBox="0 0 250 106"><path d="M37,45.36S67.62,0,126.08,0s86.28,45.36,86.28,45.36h-8.65S178.29,6.78,126.55,6.78s-80,38.58-80,38.58Z" fill="#fff"/><rect x="25.53" y="100.78" width="199.46" height="4.91" fill="#fff"/><polygon points="51.78 58.91 60.72 58.91 68.42 76 68.42 58.91 73.28 58.91 73.28 87.77 64.91 87.77 56.99 69.32 56.99 87.77 51.78 87.77 51.78 58.91" fill="#fff"/><path d="M26.77,58.91h8.15V80c0,5.62,7.36,5.56,7.36,0v-21h5.77V79.4a8.89,8.89,0,0,1-9.18,9.28c-5,0-12.1-1.14-12.1-9.17Z" fill="#fff"/><path d="M92.83,73.34s5.11-1.26,5.11-7.48-5.11-7-10-7H77.37V87.77H85.3V76.7l6.92,11.07h9.14ZM85.4,71.08V62.65s4-.6,4,4.21S85.4,71.08,85.4,71.08Z" fill="#fff"/><rect x="104.27" y="58.91" width="8.13" height="28.86" fill="#fff"/><polygon points="158.14 62.62 158.14 58.91 138.79 58.91 138.79 87.77 158.14 87.77 158.14 84.06 146.92 84.06 146.92 74.81 155.73 74.81 155.73 71.1 146.92 71.1 146.92 62.62 158.14 62.62" fill="#fff"/><path d="M191.38,73.05a7.37,7.37,0,0,0,4.32-7.19c0-6.22-5.12-7-10-7H175.13V87.77h12c5,0,9.38-3,9.38-8.06S191.38,73.05,191.38,73.05Zm-8.22-10.4s4-.6,4,4.21-4,4.22-4,4.22Zm0,21.28V75s4.61-.1,4.61,4.47S183.16,83.93,183.16,83.93Z" fill="#fff"/><path d="M214.87,58.91h-8.63l-9.13,28.86h6.82l1.91-9.87H212l2.21,9.87h9.33ZM207,73.67,209,66.86l1.81,6.81Z" fill="#fff"/><polygon points="219.69 58.91 230.43 78.61 230.43 92.56 239.86 92.56 239.86 78.2 250 58.91 243.58 58.91 237.15 71.68 231.03 58.91 219.69 58.91" fill="#fff"/><path d="M21.43,59.61s-7.92-3.55-13.71-2S0,64.39,0,68.25s3.75,7.12,7.5,10c4.15,3.22,6.32,4.62,5.5,6.95S5.87,87.77,0,84.4v6.2s6.6,2.54,12.7,2.23a10.62,10.62,0,0,0,10.06-10c0-4.47-2.08-7.21-6.51-10.35-3.2-2.26-8.73-5.5-6-8.65S21.33,65.2,21.33,65.2Z" fill="#fff"/><path d="M134.5,60.37s-6.66-3-11.52-1.71-6.48,5.72-6.48,9,3.14,6,6.29,8.41c3.49,2.7,5.31,3.88,4.63,5.84s-6,2.15-10.92-.68v5.2a30.54,30.54,0,0,0,10.66,1.88,8.92,8.92,0,0,0,8.45-8.45c0-3.75-1.74-6-5.46-8.68-2.69-1.91-7.34-4.63-5-7.27s9.3,1.19,9.3,1.19Z" fill="#fff"/></svg>