<svg xmlns="http://www.w3.org/2000/svg" width="200" height="97" viewBox="0 0 200 97"><g fill="#fff"><path d="M11.38.92H27.3c3.54 0 6.08.19 7.6.56 2 .48 3.55 1.4 4.65 2.78 1.1 1.38 1.65 2.94 1.65 4.68 0 1.43-.44 2.88-1.31 4.37-.87 1.49-2.17 2.71-3.91 3.67-1.73.96-4.39 1.85-7.98 2.66 3.72 1.05 6.31 2.4 7.75 4.04 1.45 1.64 2.17 3.55 2.17 5.73 0 2.04-.71 4.05-2.14 6.04-1.43 1.99-3.32 3.45-5.67 4.37-2.36.92-6.67 1.38-12.95 1.38H.42l.39-1.1c1.62 0 2.79-.15 3.49-.45s1.27-.76 1.69-1.38.93-1.93 1.5-3.91l7.18-24.77c.73-2.51 1.1-4.2 1.1-5.05 0-.69-.29-1.27-.88-1.72-.58-.46-1.86-.72-3.82-.8l.3-1.1zm8.41 20.02l-5.14 17.91c.99.04 1.73.06 2.23.06 4.42 0 7.49-1.23 9.21-3.7 1.72-2.47 2.58-5.1 2.58-7.92 0-1.35-.33-2.54-1-3.58-.66-1.04-1.52-1.76-2.57-2.17-1.05-.41-2.82-.61-5.32-.61zm.71-2.23c2.69-.04 4.82-.46 6.37-1.28 1.55-.81 2.8-2.14 3.74-4 .94-1.85 1.41-3.6 1.41-5.24 0-1.54-.49-2.8-1.46-3.77-.97-.97-2.27-1.44-3.89-1.4l-1.63.06-4.55 15.62zM58.04 13.66l-6.09 21.12c-.34 1.21-.5 2-.5 2.38 0 .22.09.42.27.61.18.19.37.28.56.28.34 0 .67-.15 1.01-.45.89-.73 1.96-2.06 3.21-3.98l1.01.59c-2.99 5.21-6.17 7.81-9.54 7.81-1.29 0-2.31-.36-3.07-1.08-.76-.72-1.14-1.64-1.14-2.75 0-.73.17-1.66.5-2.79l4.13-14.2c.4-1.37.59-2.4.59-3.09 0-.44-.19-.82-.56-1.16-.38-.34-.89-.5-1.54-.5-.3 0-.65.01-1.07.03l.39-1.19 10.07-1.63h1.78zM56.2 0c1.23 0 2.26.43 3.1 1.28.84.85 1.26 1.88 1.26 3.09s-.43 2.24-1.28 3.09c-.85.85-1.88 1.28-3.09 1.28s-2.21-.43-3.06-1.28c-.85-.85-1.28-1.88-1.28-3.09s.42-2.24 1.26-3.09C53.95.43 54.98 0 56.18 0zM76.87 6.42l-2.38 8.08h3.89l-1.04 3.42h-3.83l-4.96 17.23c-.32 1.07-.48 1.88-.48 2.44 0 .26.09.48.27.67.18.19.38.28.59.28.34 0 .68-.14 1.04-.42.91-.69 1.97-1.9 3.18-3.62l1.04.65c-1.37 2.38-2.87 4.12-4.51 5.23s-3.26 1.66-4.84 1.66c-1.35 0-2.39-.34-3.13-1.02-.74-.68-1.11-1.55-1.11-2.6 0-1.15.26-2.62.77-4.43l4.69-16.07h-4.04l.59-2.2c2.53-.93 4.67-2.02 6.42-3.27 1.74-1.25 3.84-3.26 6.3-6.03h1.54zM93.78 6.42L91.4 14.5h3.89l-1.04 3.42h-3.83l-4.96 17.23c-.32 1.07-.48 1.88-.48 2.44 0 .26.09.48.27.67.18.19.38.28.59.28.34 0 .68-.14 1.04-.42.91-.69 1.97-1.9 3.18-3.62l1.04.65c-1.37 2.38-2.87 4.12-4.51 5.23s-3.26 1.66-4.84 1.66c-1.35 0-2.39-.34-3.13-1.02-.74-.68-1.11-1.55-1.11-2.6 0-1.15.26-2.62.77-4.43l4.69-16.07h-4.04l.59-2.2c2.53-.93 4.67-2.02 6.42-3.27 1.74-1.25 3.84-3.26 6.3-6.03h1.54zM102.75 30.06c-.18 1.29-.27 2.35-.27 3.18 0 1.49.43 2.67 1.29 3.56.86.89 2.01 1.34 3.46 1.34s2.78-.34 4.17-1.01c1.4-.67 3.01-1.85 4.86-3.53l.89.8c-2.28 2.75-4.5 4.71-6.65 5.88-2.16 1.17-4.54 1.75-7.16 1.75-3.31 0-5.59-.79-6.86-2.38-1.27-1.58-1.9-3.42-1.9-5.5 0-3.25.95-6.5 2.84-9.74 1.89-3.25 4.47-5.85 7.72-7.81s6.53-2.94 9.82-2.94c1.66 0 2.92.4 3.77 1.19.85.79 1.28 1.79 1.28 3 0 1.45-.42 2.85-1.25 4.22-1.15 1.86-2.59 3.36-4.34 4.5-1.74 1.14-3.69 2.01-5.85 2.6-1.45.4-3.39.69-5.82.89zm.27-1.54c1.74-.26 3.09-.61 4.05-1.05s1.9-1.16 2.82-2.14c.92-.98 1.72-2.22 2.39-3.71.67-1.49 1.01-2.9 1.01-4.2 0-.55-.15-.99-.46-1.31-.31-.32-.7-.48-1.17-.48-.95 0-2.02.66-3.21 1.99-2.18 2.42-3.99 6.05-5.44 10.9zM134.65 13.66l-4.49 16.69c3.68-8.14 6.46-13.15 8.32-15.03 1.09-1.11 2.24-1.66 3.45-1.66.83 0 1.5.3 2.02.91.52.6.77 1.46.77 2.57 0 1.92-.47 3.53-1.4 4.84-.59.83-1.26 1.25-1.99 1.25-.79 0-1.39-.37-1.78-1.1-.4-.73-.67-1.16-.83-1.29a.79.79 0 0 0-.51-.19c-.2 0-.41.06-.62.18-.44.24-1.01.82-1.71 1.74s-1.57 2.46-2.6 4.62-1.83 3.99-2.41 5.48c-.57 1.5-1.38 4.34-2.41 8.54h-7.19l4.9-19.69c.36-1.47.53-2.44.53-2.91 0-.53-.09-.95-.28-1.25-.19-.3-.45-.51-.77-.65-.33-.14-1.01-.21-2.03-.21l.27-.86 8.97-1.96h1.78zM20.05 73.82h14.73l3.27-11.26c.44-1.54.65-2.72.65-3.53s-.27-1.4-.8-1.81c-.53-.42-1.82-.69-3.86-.83l.33-1.1h20.02l-.33 1.1c-1.96 0-3.45.42-4.46 1.25-1.01.83-1.87 2.48-2.58 4.93l-7.49 25.78c-.5 1.68-.74 2.89-.74 3.62s.27 1.29.8 1.66c.69.52 1.95.79 3.77.83l-.3 1.1H23.44l.45-1.1c1.9 0 3.3-.37 4.2-1.11.9-.74 1.73-2.41 2.48-5.01l3.48-12H19.38l-3.45 12c-.5 1.64-.74 2.86-.74 3.65 0 .71.3 1.29.91 1.74.6.45 1.8.69 3.58.73l-.3 1.1H0l.33-1.1c1.9 0 3.29-.37 4.17-1.11.88-.74 1.7-2.41 2.45-5.01l7.49-25.78c.44-1.49.65-2.65.65-3.51s-.26-1.43-.79-1.84c-.52-.42-1.78-.69-3.76-.83l.33-1.1h19.7l-.45 1.1c-1.82 0-3.2.39-4.13 1.17-.93.78-1.78 2.45-2.55 5.01l-3.39 11.26zM78.42 68.45L72.66 88.2l-.59 2.41c-.06.3-.09.52-.09.65 0 .24.08.45.25.62.17.18.34.27.52.27.42 0 .99-.32 1.72-.95.3-.26 1.01-1.17 2.14-2.73l1.04.53c-1.41 2.57-2.91 4.45-4.5 5.63-1.59 1.18-3.31 1.77-5.15 1.77-1.13 0-1.99-.29-2.58-.88s-.89-1.32-.89-2.21c0-.77.32-2.21.95-4.31l.71-2.41c-2.3 3.94-4.51 6.73-6.62 8.38-1.23.95-2.53 1.43-3.92 1.43-1.82 0-3.14-.75-3.95-2.24s-1.22-3.18-1.22-5.06c0-2.79.85-6 2.55-9.61 1.7-3.61 3.94-6.52 6.71-8.72 2.28-1.82 4.42-2.73 6.42-2.73 1.11 0 2 .32 2.67.97.67.64 1.17 1.82 1.49 3.52l1.07-3.65 7.04-.42zm-9.51 5.64c0-1.6-.25-2.76-.74-3.48-.36-.49-.84-.74-1.46-.74s-1.25.3-1.9.89c-1.33 1.23-2.76 3.72-4.29 7.47-1.54 3.75-2.3 7-2.3 9.73 0 1.05.17 1.81.52 2.27.35.47.73.7 1.14.7.89 0 1.79-.51 2.7-1.54 1.31-1.47 2.48-3.26 3.53-5.38 1.86-3.72 2.79-7.03 2.79-9.92zM94.1 68.03l-4.49 16.69c3.68-8.14 6.46-13.15 8.32-15.03 1.09-1.11 2.24-1.66 3.45-1.66.83 0 1.5.3 2.02.91.52.6.77 1.46.77 2.57 0 1.92-.47 3.53-1.4 4.84-.59.83-1.26 1.25-1.99 1.25-.79 0-1.39-.37-1.78-1.1-.4-.73-.67-1.16-.83-1.29a.79.79 0 0 0-.51-.19c-.2 0-.41.06-.62.18-.44.24-1.01.82-1.71 1.74s-1.57 2.46-2.6 4.62-1.83 3.99-2.41 5.48c-.57 1.5-1.38 4.34-2.41 8.54h-7.19l4.9-19.69c.36-1.47.53-2.44.53-2.91 0-.53-.09-.95-.28-1.25-.19-.3-.45-.51-.77-.65-.33-.14-1.01-.21-2.03-.21l.27-.86 8.97-1.96h1.78zM111.75 96.4h-1.07c.06-1.62.09-2.85.09-3.68 0-2.26-.17-5.52-.52-9.79s-.74-7.11-1.17-8.54c-.34-1.05-.78-1.81-1.34-2.29-.38-.32-.86-.48-1.46-.48-.34 0-.74.04-1.22.12v-1.07l9.89-2.64c1.98 5.41 2.94 12.33 2.88 20.76 2.91-2.77 4.92-5.02 6.02-6.74s1.65-3.16 1.65-4.31c0-.91-.34-1.84-1.02-2.78-.68-.94-1.11-1.61-1.28-2.01-.17-.4-.25-.83-.25-1.31 0-1.03.34-1.89 1.01-2.58.67-.69 1.52-1.04 2.55-1.04 1.09 0 1.93.35 2.52 1.04.83.97 1.25 2.12 1.25 3.45s-.24 2.71-.73 4.02c-.49 1.32-1.32 2.87-2.49 4.66a32.056 32.056 0 0 1-3.94 4.89c-2.65 2.69-6.45 6.13-11.38 10.31zM139.88 84.43c-.18 1.29-.27 2.35-.27 3.18 0 1.49.43 2.67 1.29 3.56.86.89 2.01 1.34 3.46 1.34s2.78-.34 4.17-1.01c1.4-.67 3.01-1.85 4.86-3.53l.89.8c-2.28 2.75-4.5 4.71-6.65 5.88-2.16 1.17-4.54 1.75-7.16 1.75-3.31 0-5.59-.79-6.86-2.38-1.27-1.58-1.9-3.42-1.9-5.5 0-3.25.95-6.5 2.84-9.74 1.89-3.25 4.47-5.85 7.72-7.81s6.53-2.94 9.82-2.94c1.66 0 2.92.4 3.77 1.19.85.79 1.28 1.79 1.28 3 0 1.45-.42 2.85-1.25 4.22-1.15 1.86-2.59 3.36-4.34 4.5-1.74 1.14-3.69 2.01-5.85 2.6-1.45.4-3.39.69-5.82.89zm.27-1.54c1.74-.26 3.09-.61 4.05-1.05s1.9-1.16 2.82-2.14c.92-.98 1.72-2.22 2.39-3.71.67-1.49 1.01-2.9 1.01-4.2 0-.55-.15-.99-.46-1.31-.31-.32-.7-.48-1.17-.48-.95 0-2.02.66-3.21 1.99-2.18 2.42-3.99 6.05-5.44 10.9zM180.01 68.03l-1.31 9.18h-1.1c-.16-2.38-.89-4.25-2.18-5.61-1.3-1.37-2.69-2.05-4.17-2.05-.91 0-1.66.27-2.26.8s-.89 1.18-.89 1.93c0 .63.13 1.23.39 1.78s.83 1.31 1.72 2.26c3.13 3.37 5.03 5.68 5.7 6.95a8.58 8.58 0 0 1 1.01 4.07c0 1.56-.4 3.04-1.19 4.44-.79 1.4-1.98 2.52-3.55 3.36-1.57.84-3.21 1.26-4.92 1.26-1.15 0-2.56-.23-4.25-.68-1.11-.32-1.94-.48-2.5-.48-.49 0-.88.07-1.16.22-.28.15-.58.46-.92.94h-1.1l1.46-9.89h.95c.69 2.4 1.34 4.1 1.95 5.12.6 1.02 1.41 1.83 2.42 2.44 1.01.6 1.98.91 2.91.91 1.09 0 1.99-.34 2.7-1.02s1.07-1.5 1.07-2.45-.23-1.83-.7-2.7c-.47-.87-1.54-2.23-3.22-4.07-2.32-2.51-3.84-4.46-4.57-5.82-.52-.99-.77-2.12-.77-3.39 0-2.14.78-3.92 2.33-5.35 1.55-1.43 3.74-2.14 6.55-2.14 1.23 0 2.73.22 4.51.65.89.22 1.6.33 2.14.33.77 0 1.4-.33 1.87-.98H180zM198.48 60.78l-2.38 8.08h3.89l-1.04 3.42h-3.83l-4.96 17.23c-.32 1.07-.48 1.88-.48 2.44 0 .26.09.48.27.67.18.19.38.28.59.28.34 0 .68-.14 1.04-.42.91-.69 1.97-1.9 3.18-3.62l1.04.65c-1.37 2.38-2.87 4.12-4.51 5.23s-3.26 1.66-4.84 1.66c-1.35 0-2.39-.34-3.13-1.02-.74-.68-1.11-1.55-1.11-2.6 0-1.15.26-2.62.77-4.43l4.69-16.07h-4.04l.59-2.2c2.53-.93 4.67-2.02 6.42-3.27 1.74-1.25 3.84-3.26 6.3-6.03h1.54z"/></g></svg>