<svg xmlns="http://www.w3.org/2000/svg" viewBox="0 0 300 87"><path d="M124.2 42.88v-.01c-.03-.09-2.74-9.09-10.19-17.8L124.04 3.9a.31.31 0 0 0-.03-.32.333.333 0 0 0-.29-.13l-10.18.96c-.04 0-.08.02-.12.04 0 0-.02.01-.02.02-.01 0-.03.02-.04.03l-8.79 8.17-.76-6.65a.313.313 0 0 0-.34-.28l-8.13.79h-.02c-.03 0-.06.01-.08.03 0 0-.02 0-.02.01a.55.55 0 0 0-.09.07v.02c-.01.02-.03.04-.04.06l-5.75 13.31c-.02.05-.03.11-.02.16l2.56 21.53c-2.41-2.3-5.61-4.76-9.31-6.17.38-.79 1.39-2.94 2.23-5.56 1.44-4.46 1.76-8.07.96-10.76-.7-2.35-2.4-4.27-4.91-5.58-4.52-2.34-10.94-2.4-17.62-.15 0 0-.01 0-.02.01-.02 0-.04.02-.06.04-.01 0-.02.02-.03.02-.02.01-.03.03-.04.05 0 .01-.01.02-.02.03 0 0 0 .01-.01.02l-6.14 14.02-3.45-8.43a.336.336 0 0 0-.37-.19l-14.82 3.54c-.03 0-.06.02-.09.04 0 0-.02.02-.03.02a.12.12 0 0 0-.05.05c0 .01-.01.02-.02.03 0 .01-.02.02-.02.04l-6.91 16.5c-2.05-3.71-5-6.56-8.57-8.14-5.4-2.37-11.5-1.51-17.17 2.42-.02.01-.03.03-.04.04l-.02.02c-.01.02-.03.04-.04.06v.01L.02 47.29c-.02.06-.03.12-.01.18l2.51 11.94c.03.13.13.23.26.25l3.81.55 5.18 24.58c.02.09.08.17.16.21.05.03.1.04.15.04.04 0 .07 0 .11-.02.29-.1 7.03-2.54 10.23-4.71 2.17-1.47 4.53-4.79 7.01-9.87 1.84-3.76 3.08-7.14 3.09-7.17.06-.11.12-.23.18-.35l1.95 12.16c.02.15.16.27.31.27h.01l9.32-.37c.12 0 .23-.08.28-.2l5.04-12.6 2.79 8.75s.02.06.04.09l.01.01c.02.02.03.04.06.06 0 0 .02.01.03.02.02.01.03.02.05.03h.04c.02 0 .03 0 .05.01h.03l7.69-.3c.12 0 .23-.08.28-.19l3.37-7.55 1.03 3.71c.04.14.17.23.3.23.03 0 .05 0 .08-.01l7.38-1.91c.1-.03.18-.1.21-.19l2.29-5.83 3.94 3.88a.682.682 0 0 0 .1.07c.04.02.08.02.12.02h.05l11.6-1.92c.11-.02.2-.09.24-.2l2.1-5.43.49 4.12c.02.16.16.28.31.28h.03l7.51-.78a.31.31 0 0 0 .26-.19l3.12-7.61 2.95 6.83s.03.06.05.08l.02.02c.02.02.03.03.05.04 0 0 .02 0 .03.01.02 0 .03.02.05.02.03 0 .06.01.09.01h.04l8.9-1.33c.1-.02.19-.08.24-.18l6.53-13.76s.02-.06.03-.08v-.12zM22.3 31.74c5.86 2.57 10 8.74 11.07 16.5 2.13 15.45-4.19 18.41-6.88 19.67-2.93 1.37-7.65 2.56-8.91 2.86l-5.16-24.48a.32.32 0 0 0-.26-.25l-3.81-.55-2.42-11.52c5.44-3.7 11.25-4.49 16.38-2.24zm80.92-25.35l1.09 9.54c.01.1.06.18.15.23l1.27.79c.15.09.34.05.43-.1l7.6-11.84 9.47-.89-9.88 20.86c-.05.11-.04.25.05.34 6.6 7.66 9.48 15.57 10.08 17.35l-9.34.81-5.72-9.68a.289.289 0 0 0-.3-.15l-1.48.15c-.17.02-.3.17-.28.34l.96 10.2-7.17.88-4.41-38.11 7.5-.72zm-22.69 7.82c2.36 1.22 3.95 3.02 4.6 5.2 1.82 6.12-3.25 16.07-3.31 16.17-.04.08-.05.18-.01.26s.1.15.19.18c7.18 2.58 12.5 9.32 13.78 11.06l-9.03 1.29c-2.67-4.65-10.39-6.22-10.72-6.28-.1-.02-.21.01-.28.09-.07.07-.11.18-.09.28l1.72 9.43-6.93 1.34-6.78-39.21c6.33-2.07 12.62-2 16.87.2zm-27.57 5.54L67.1 54.34l-7.38 1.82-3.68-10.6a.319.319 0 0 0-.35-.21l-6.74 1.1a.31.31 0 0 0-.26.34l1 13.31-8.19 2.3-2.83-39.23 14.3-3.42z" fill="#fff"/><path d="M47.78 39.83c.06.04.12.07.19.07h.06l3.89-.8c.13-.03.22-.12.25-.25l.34-1.77c.01-.05 0-.11-.01-.16l-1.85-5.39a.304.304 0 0 0-.38-.2l-2.67.75c-.14.04-.24.17-.23.32l.28 7.21c0 .09.05.18.12.24zM21.39 57.62c.02.08.06.15.13.19.07.05 1.3.91 2.57.91.37 0 .75-.07 1.1-.27 1.14-.62 1.67-2.27 1.57-4.9-.19-4.96-1.8-9.01-4.3-10.84-1.24-.91-2.62-1.19-3.99-.81-.16.04-.26.2-.23.37l3.14 15.34zM299.82 45.56l-9.1-4.26a.312.312 0 0 0-.31.02l-5.84 3.93-1.27-6.84a.3.3 0 0 0-.19-.23l-9.8-4.04s-.06-.02-.09-.02h-.02c-.03 0-.06 0-.1.01h-.02l-6.7 2.1 1.22-3.97a.31.31 0 0 0-.18-.38l-8.19-3.53h-.01c-.04-.01-.07-.02-.11-.02-.04 0-.07 0-.11.02h-.01-.02l-6.21 3.43-1.42-6.53a.307.307 0 0 0-.21-.23l-10.71-3.43c-.04-.01-.07-.01-.11-.01h-.03c-.04 0-.07.01-.1.03l-11.11 6.01 1.85-8.53a.309.309 0 0 0-.22-.37l-8.83-2.46a.332.332 0 0 0-.24.03.31.31 0 0 0-.15.2l-2.74 11-4.34-14.12a.291.291 0 0 0-.23-.21l-10.49-2.56h-.11-.02c-.03 0-.06.02-.09.03h-.01-.01l-8.76 6.46.9-8.19c.02-.16-.08-.3-.24-.34l-7.55-1.86H187.65c-.04 0-.08.02-.12.05l-8.25 5.6 1.03-8.32c.02-.16-.08-.3-.23-.34l-7.3-1.99H172.66h-.02a.21.21 0 0 0-.11.04l-.02.02c-.01.01-.03.02-.04.03l-7.51 8.2C163.87 5.41 159.52.52 146.01 0H146c-.08 0-.15.03-.21.08l-.04.04-10.41 13.99s-.06.11-.06.17l-2.44 43.79c0 .17.12.32.29.33.26.02 2.97.26 6.36.26 4.75 0 10.84-.47 13.4-2.63 1.71-1.45 3.84-4.8 5.81-8.36l3.84 8.37c.04.09.13.16.23.18l10.52 1.81h.05c.08 0 .15-.03.21-.08l12.37-10.85s.04-.04.06-.07l3.33-5.28-1.58 18.4c-.01.16.09.3.25.34l8.41 1.84h.07c.09 0 .17-.04.24-.1l5.8-6.46.39 9.98s0 .07.02.1c0 .01.01.02.02.03.01.02.02.04.04.06 0 .01.02.02.03.03.02.01.03.03.05.04.01 0 .02.01.03.02 0 0 .01 0 .02.01h.03c.01 0 .02.01.04.01l9.44 1.32h.04c.09 0 .18-.04.24-.11l5.13-5.8-.36 7.9c0 .14.08.27.22.31l9.73 3.24s.07.02.1.02c.08 0 .15-.03.21-.08l4.95-4.56.33 8.34s0 .06.02.09c0 .01 0 .02.01.03 0 .02.02.03.03.05 0 .01.02.02.02.03.01.01.02.03.04.04.01 0 .02.01.03.02.01 0 .02.01.03.02h.03l9.11 3.27s.07.02.11.02c.07 0 .14-.03.2-.07l13.53-11.26.03-.03.02-.02c.02-.03.04-.06.05-.1l4.78-15.59 1.87 8.38-15.39 17.96c-.06.07-.09.16-.07.25s.07.17.15.22l10.17 6.28c.05.03.11.05.17.05s.11-.02.16-.05l14.1-8.61s.04-.03.05-.05c0 0 .01 0 .02-.01l27.49-31.53c.07-.07.09-.18.07-.27s-.09-.18-.18-.22zm-45.43-3.27c.03.14.15.24.29.25.15 0 .27-.08.32-.22l4.31-13.26 7.62 3.28-11.01 35.91-7.72-2.7-3.35-21.7a.31.31 0 0 0-.29-.27c-.15 0-.28.08-.32.23l-5.27 17.83-8.75-3.53 10.3-35.82 10.23 3.27 3.63 16.72zm-35.95-13.51c.04.14.16.23.31.22.14 0 .26-.1.3-.24l2.94-11.79 8.23 2.29-7.84 36.17-7.8-1.24-4.31-19.3a.321.321 0 0 0-.31-.25c-.15 0-.28.1-.31.25l-3.56 15.75-9.82-3.11 7.56-36.23 9.99 2.44 4.62 15.04zm-42.14 2.18c-.02.17.09.32.25.35l7.59 1.46c.09.02.17 0 .24-.05.07-.05.12-.13.13-.21l3.42-25.07 6.94 1.71-3.01 27.39-6.63 8.07-11.16-2.21-5.31-9.6 4.16-30.38 6.69 1.83-3.31 26.71zm-11.77-19.27c.31 4.1-3.66 9.07-3.7 9.12-.1.12-.09.3.01.41 3.42 3.7 4.9 7.55 4.3 11.12-.54 3.18-2.7 5.93-6.08 7.74-5.84 3.12-14.01 2.37-15.64 2.17L146.28.63c14.42.63 17.88 6.35 18.24 11.05zm107.6 65.28l-7.83-4.74 12.24-16.26c.05-.07.07-.15.06-.24l-3.03-20.8 9.13 3.76 1.32 7.14a.32.32 0 0 0 .49.2l6.09-4.1 8.55 4.01-27.04 31.02z" fill="#fff"/><path d="M152.1 16.76c.06.01.74.14 1.63.14 1.03 0 2.36-.17 3.36-.9.79-.58 1.26-1.42 1.38-2.5.22-1.96-.18-3.51-1.21-4.63-1.73-1.87-4.57-1.78-4.69-1.77-.16 0-.3.14-.3.3l-.42 9.03c0 .16.1.29.25.32zM150.88 35.39c.05.01.68.16 1.52.16.94 0 2.13-.18 3.05-.93.97-.79 1.43-2.04 1.38-3.72-.15-4.96-5.39-5.27-5.45-5.27-.09 0-.17.03-.23.08-.06.06-.1.14-.1.22l-.42 9.14c0 .15.1.29.24.32zM73.53 32.78s.41.1.96.1c.7 0 1.67-.15 2.58-.82 1.44-1.06 2.22-3.05 2.33-5.91.09-2.2-.49-3.79-1.71-4.74-2.15-1.67-5.46-.71-5.6-.67-.15.04-.24.19-.22.34l1.43 11.44c.02.13.11.23.23.27z" fill="#fff"/></svg>