<svg xmlns="http://www.w3.org/2000/svg" width="250" height="114" viewBox="0 0 250 114"><path d="M2.37,23.13c.21,0,.31.09.31.37a9.88,9.88,0,0,0,2,5.27,8.26,8.26,0,0,0,6.8,3.33c2.78,0,6.69-1.57,6.69-5.41,0-4.26-2.16-5.64-7.62-7.49A25.26,25.26,0,0,1,3,15.31C1.24,13.83.41,11.52.41,8.7A7.63,7.63,0,0,1,4,2.22,11.31,11.31,0,0,1,11.33,0a17.8,17.8,0,0,1,6.49,1.11A1,1,0,0,0,18.91,1l.67-.6A1,1,0,0,1,20.3.09c.31,0,.41.28.41.74,0,.74.82,7.22.82,7.68,0,.19-.1.28-.31.32l-.82.24a.4.4,0,0,1-.51-.28,12.94,12.94,0,0,0-3.2-4.9,7.16,7.16,0,0,0-5.36-1.95c-4.12,0-5.77,3-5.77,4.67A5.27,5.27,0,0,0,7,10.78a18,18,0,0,0,6.28,2.86c3,.84,5.46,1.76,7.42,3.61a8.39,8.39,0,0,1,2.57,6.62c0,5.64-4.12,10.27-10.92,10.27-4.22,0-6.69-.84-8.75-2.23a2.76,2.76,0,0,0-1.24-.55c-.31,0-.51.37-.82.83s-.52.56-.93.56S0,32.47,0,32s.82-8,.93-8.61c0-.27.1-.37.31-.37Z" fill="#fff"/><path d="M31,20.26c0-1.39-.31-2.31-2.68-2.87-.46-.09-.51-.23-.51-.41v-.51c0-.19.1-.28.36-.37.72-.28,5.82-1.9,6.69-2.22a3.82,3.82,0,0,1,1.24-.28c.31,0,.46.18.41.55-.1.74-.1,3.7-.1,7.54v5a38.57,38.57,0,0,0,.1,4c.11.83.31,1.2.83,1.2h2.06c.41,0,.51.09.51.32v.93c0,.28-.1.46-.41.46s-2.78-.14-6.23-.14c-3,0-5,.14-5.57.14-.25,0-.41-.09-.41-.46v-.88c0-.28.21-.37.52-.37h2.26c.52,0,.78-.19.83-.93.05-1.38.1-2.86.1-4.16ZM32.76,8.93c-1.65,0-3.29-1.16-3.29-2.78,0-1.39,1.49-2.87,3.6-2.87A3,3,0,0,1,36.26,6C36.26,7.35,35.18,8.93,32.76,8.93Z" fill="#fff"/><path d="M48.27,14a2.75,2.75,0,0,1,1-.37c.31,0,.51.18.62.55l.41,2.41h.31a8.54,8.54,0,0,1,2.57-1.85,8.73,8.73,0,0,1,4.12-1.11,7.76,7.76,0,0,1,4.54,1.11c2.26,1.48,2.83,2.87,2.83,4.76v6.66c0,1.48,0,3.52,0,4.44a1.14,1.14,0,0,0,1.24,1.3h1.44c.46,0,.62.09.62.32v1.07c0,.23-.11.32-.41.32s-2-.14-5.57-.14c-3.09,0-4.74.14-5,.14s-.41-.18-.41-.55v-.79c0-.28.1-.37.62-.37h1c.41,0,.82-.28.93-1.11a34.78,34.78,0,0,0,.2-4.35V21.09c0-1.85-.1-3.05-1.34-4a4.28,4.28,0,0,0-3.09-.83,5.09,5.09,0,0,0-3.29,1.2,4.39,4.39,0,0,0-1.09,3.29V30.3c0,1,.26,1.57,1,1.57h.93c.41,0,.52.09.52.41v.84c0,.28-.11.46-.42.46s-1.75-.14-4.84-.14-4.84.14-5.15.14-.31-.18-.31-.46v-.88c0-.28.1-.37.51-.37h1c.61,0,1.34-.19,1.34-.93V20.54c0-1.39-.93-2.13-2.17-2.69l-.41-.18c-.31-.09-.41-.28-.41-.46v-.37c0-.19.2-.37.51-.47Z" fill="#fff"/><path d="M71.76,44.59c-1.86-1-2.58-2.18-2.58-3.66,0-2.49,2.89-4.25,5.36-5.18v-.27C72.27,35,71,33.53,71,32.05c0-2.49,2.88-4.07,4.43-4.71v-.1A7.44,7.44,0,0,1,71,20.35c0-3.05,2.88-6.75,9.53-6.75a9.29,9.29,0,0,1,7,2.63A8.85,8.85,0,0,1,92,14.52c1.91,0,2.78,1,2.68,2.22a2,2,0,0,1-2.06,1.85A2.38,2.38,0,0,1,91,18a2.43,2.43,0,0,0-1.23-.56,2.17,2.17,0,0,0-1.24.28,6.43,6.43,0,0,1,.62,3A7,7,0,0,1,87,25.86,9.45,9.45,0,0,1,80.41,28a15.75,15.75,0,0,1-2.93-.18c-.93.37-2.22,1.2-2.22,2.31,0,1.85,2,1.85,6.49,1.67,3.92-.19,6.49.09,8.76,1.75a5.32,5.32,0,0,1,2.58,4.54c0,2-.93,3.79-3.2,5.36A17.43,17.43,0,0,1,79.79,46C77.32,46,74,45.74,71.76,44.59Zm5.15-8.37a4.2,4.2,0,0,0-3.14,3.7,3.89,3.89,0,0,0,1.85,3.19c1.6.83,3,1.11,6,1.11,2.68,0,7.11-1.39,7-4.12s-2.16-4.35-7.1-4.16ZM84,19.89a5.61,5.61,0,0,0-1.14-3.66,3.07,3.07,0,0,0-2.42-.92,3.55,3.55,0,0,0-2.78,1.16c-1.13,1.29-1.44,3.42-1.44,5.22a4.78,4.78,0,0,0,1.29,3.66,3.92,3.92,0,0,0,2.93,1C83.09,26.36,84,23.17,84,19.89Z" fill="#fff"/><path d="M98.18,7.31c-.1-1.57-1-2.31-2.62-2.78l-1-.27c-.31-.1-.31-.19-.31-.37V3.33c0-.09.1-.28.41-.37A46.17,46.17,0,0,0,102.36.28,4.85,4.85,0,0,1,103.49,0c.31,0,.52.19.52.83-.11,2.5-.21,12.12-.21,14.66v6.67c0,2.12,0,6.84.1,8.23.11.83.21,1.48,1.34,1.48h2c.51,0,.62.09.62.41v.84c0,.28-.11.46-.31.46-.41,0-2.68-.14-6.29-.14-3.91,0-6,.14-6.38.14s-.42-.18-.42-.46v-.88c0-.28.11-.37.73-.37H97.1c.52,0,1.29-.37,1.29-1.67V15.73C98.39,12.49,98.29,8.51,98.18,7.31Z" fill="#fff"/><path d="M114.51,23.17a7.26,7.26,0,0,0,6.7,7.5c3.19,0,5.15-1.21,6.23-2.69.21-.32.42-.32.62-.23l.78.42c.25.14.36.32,0,.92-1.09,1.76-3.71,4.91-9.38,4.91-3.3,0-5.62-.65-7.42-2.5a9.81,9.81,0,0,1-2.88-7.63A9,9,0,0,1,111.68,17c2.16-2.5,4.48-3.42,9-3.42,5.88,0,7.78,5.5,7.78,7.4,0,.69-.51.74-1.44.74H114.51Zm6.39-3.1c1.08,0,1.7-.27,1.7-.64,0-1.39-.51-4.12-3.19-4.12-2.53,0-4.07,1.67-4.74,4.76Z" fill="#fff"/><path d="M110.83,56a46.67,46.67,0,0,0,5.52-.24,3.8,3.8,0,0,0,2.73-1.8,7.7,7.7,0,0,0,.92-2.36.48.48,0,0,1,.42-.37l1,.09c.2,0,.31.1.31.28-.11.83-.11,4.63-.11,5.27,0,1.67.21,3.89.31,4.81.05.33-.1.42-.31.47l-1.13.18a.38.38,0,0,1-.41-.37,11.24,11.24,0,0,0-.78-2.17,3.88,3.88,0,0,0-2.57-1.9,45,45,0,0,0-5.93-.28V69.17c0,1.3.42,1.48,1.65,1.48h2.78c.31,0,.42.09.42.33v1.15c0,.28-.11.37-.42.37-.51,0-2.57-.14-7.62-.14-4.64,0-6.59.14-7.32.14-.2,0-.3-.09-.3-.32V70.93c0-.19.1-.28.3-.28h2.07c1.23,0,1.64-.18,1.7-1s.15-6.75.15-14.71V51.73c0-2-.1-8.6-.1-9.11,0-.83-.72-1.29-2.06-1.29H99.5c-.21,0-.41-.1-.41-.23V39.75c0-.18.2-.27.41-.27.52,0,2.47.14,8.35.14.72,0,14.32-.1,17.61-.1a17.87,17.87,0,0,0,2-.18c.21.09.31.28.31.65.21.74,1.86,7.12,2.06,7.67.05.19,0,.33-.15.37l-1,.37c-.21.1-.31,0-.62-.37a29.23,29.23,0,0,0-3.71-4.25,6.37,6.37,0,0,0-3.5-2.13c-1.34-.23-8-.42-10-.42Z" fill="#fff"/><path d="M134.84,62.09a7.26,7.26,0,0,0,6.7,7.5c3.19,0,5.15-1.21,6.23-2.69.21-.32.41-.32.62-.23l.77.42c.26.14.36.32,0,.92-1.08,1.76-3.71,4.91-9.38,4.91-3.29,0-5.61-.65-7.41-2.5a9.81,9.81,0,0,1-2.89-7.63A8.93,8.93,0,0,1,132,55.94c2.16-2.5,4.48-3.42,9-3.42,5.87,0,7.78,5.5,7.78,7.4,0,.69-.52.74-1.44.74H134.84ZM141.23,59c1.08,0,1.7-.28,1.7-.65,0-1.39-.52-4.12-3.2-4.12-2.52,0-4.07,1.67-4.74,4.77Z" fill="#fff"/><path d="M158,52.8a2.42,2.42,0,0,1,1-.28c.31,0,.57.18.62.65l.31,2.68h.2a10.24,10.24,0,0,1,7.42-3.33,6.54,6.54,0,0,1,6.08,3.42h.31a9.73,9.73,0,0,1,7.21-3.42c2.06,0,3.4.28,4.74,1.57s2.37,1.95,2.37,6v5.27c0,1.3-.1,3.52-.1,4.07a1.24,1.24,0,0,0,1.34,1.39h1.34c.31,0,.41.09.41.32v1c0,.27-.1.41-.41.41s-1.75-.14-5-.14c-2.88,0-4.74.14-5,.14s-.41-.14-.41-.37v-1c0-.28.1-.37.41-.37h.83a.93.93,0,0,0,1-.93c.1-1,.2-2.68.2-4.07V60.38c0-2.22-.2-3.42-1.13-4.16a4.23,4.23,0,0,0-3.09-1A5.19,5.19,0,0,0,175,57.1a5.75,5.75,0,0,0-.77,3.61v8.6c0,1,.31,1.48.92,1.48h1.34c.42,0,.52.09.52.32v1c0,.23-.05.37-.31.37-.41,0-1.75-.14-5.05-.14s-4.89.14-5.2.14-.36-.14-.36-.37v-.88c0-.37.1-.46.41-.46h1.13c.73,0,1.24-.46,1.24-2.13V60.75c0-3.33-.62-4.34-1.34-4.9a5.09,5.09,0,0,0-2.78-.65,4.64,4.64,0,0,0-3.71,1.95,4.9,4.9,0,0,0-.82,3.28v8.23c0,1.67.41,2.13,1,2.13h1.13c.41,0,.52.09.52.28v1.06c0,.23-.11.37-.42.37s-1.85-.14-5.15-.14c-3.09,0-4.74.14-5.15.14s-.41-.09-.41-.41v-1c0-.23.2-.32.62-.32H154c.52,0,.83-.37.93-1.2V60c0-1.48-.31-2.31-1.55-3l-1.08-.51c-.26-.13-.36-.23-.36-.41v-.46c0-.19.16-.28.36-.37Z" fill="#fff"/><path d="M205.82,70.1a10.13,10.13,0,0,1-4.48,2.49,11.67,11.67,0,0,1-3.29.33c-1.91,0-3.56-1.39-3.56-4,0-2.13,1-4.21,4.74-5.69a57.19,57.19,0,0,0,6.29-2.87V58a4.2,4.2,0,0,0-.83-2.59,3.68,3.68,0,0,0-2.57-.7,5.76,5.76,0,0,0-3,.84c-.72.46-.21,1.15-.21,2.26,0,1.67-.93,2.69-3.09,2.69a1.6,1.6,0,0,1-1.75-1.58,4.8,4.8,0,0,1,2.37-3.79,14.55,14.55,0,0,1,8.34-2.59c2.89,0,3.82.55,4.74,1.3a4,4,0,0,1,1.24,3.46l.1,7.31v2.22c0,2.5.42,3.24,1.34,3.24a2.05,2.05,0,0,0,1.65-.74c.21-.28.31-.28.52-.19l.61.37c.21.1.31.28.11.75a5.21,5.21,0,0,1-4.74,2.68A4.24,4.24,0,0,1,206,70.1Zm-.3-8c-2.27,1.3-5.67,2.09-5.67,5.46,0,1.9,1.13,2.82,2.37,2.82,1.44-.09,3.3-1.38,3.3-2.22Z" fill="#fff"/><path d="M219.12,46.23c-.11-1.57-1-2.31-2.63-2.78l-1-.27c-.31-.1-.31-.19-.31-.37v-.56c0-.09.1-.28.41-.37a46.17,46.17,0,0,0,7.73-2.68,5,5,0,0,1,1.13-.28c.31,0,.52.19.52.83-.11,2.5-.21,12.12-.21,14.67v6.66c0,2.12,0,6.84.1,8.23.11.83.21,1.48,1.34,1.48h2c.52,0,.62.09.62.42V72c0,.28-.1.46-.31.46-.41,0-2.68-.14-6.28-.14-3.92,0-6,.14-6.39.14s-.41-.18-.41-.46v-.88c0-.28.1-.37.72-.37H218c.52,0,1.29-.37,1.29-1.67V54.65C219.32,51.41,219.22,47.43,219.12,46.23Z" fill="#fff"/><path d="M235.44,62.09a7.26,7.26,0,0,0,6.7,7.5c3.2,0,5.15-1.21,6.24-2.69.2-.32.41-.32.61-.23l.78.42c.25.14.36.32,0,.92-1.09,1.76-3.71,4.91-9.38,4.91-3.3,0-5.61-.65-7.42-2.5a9.8,9.8,0,0,1-2.88-7.63,9,9,0,0,1,2.52-6.85c2.17-2.5,4.48-3.42,9-3.42,5.87,0,7.78,5.5,7.78,7.4,0,.69-.52.74-1.45.74H235.44ZM241.83,59c1.09,0,1.7-.28,1.7-.65,0-1.39-.51-4.12-3.19-4.12-2.52,0-4.07,1.67-4.74,4.77Z" fill="#fff"/><path d="M59.6,90.65c.11.09.11.18.11.46-.21.28-2.27,8-2.58,9.2-1.34,0-16.17-.13-21.43-.13-4.64,0-6.49.13-7.11.13-.41,0-.41-.09-.41-.41V98.83c0-.27,0-.37.31-.37h2.06c1.85,0,2.16-.64,2.16-1.24,0-.84.21-12.4.21-15.18V79.45c0-3-.1-7.86-.21-8.65-.1-1.2-.31-1.66-1.65-1.66H28.9a.41.41,0,0,1-.41-.42V67.66c0-.28.1-.37.41-.37.52,0,2.37.14,7.11.14,5.56,0,7.73-.14,8.14-.14s.51.18.51.42v1.06c0,.18-.1.37-.51.37H41.37c-1.55,0-1.75.46-1.75,1.71,0,.65-.21,7.59-.21,10.82v4c0,.83,0,10.83.21,12.81H42.5c2.88,0,6.6,0,8.66-.23,2.88-.37,6.18-5.92,6.9-7.68.21-.18.31-.27.62-.18Z" fill="#fff"/><path d="M74.34,97.91a10.26,10.26,0,0,1-4.48,2.5,12.12,12.12,0,0,1-3.3.32c-1.91,0-3.56-1.39-3.56-4,0-2.13,1-4.21,4.74-5.69A55.81,55.81,0,0,0,74,88.2V85.79a4.18,4.18,0,0,0-.83-2.59,3.68,3.68,0,0,0-2.57-.69,5.77,5.77,0,0,0-3,.83c-.72.46-.2,1.16-.2,2.27,0,1.66-.93,2.68-3.1,2.68a1.6,1.6,0,0,1-1.75-1.57A4.83,4.83,0,0,1,65,82.92a14.61,14.61,0,0,1,8.35-2.59c2.88,0,3.81.56,4.74,1.3a4.06,4.06,0,0,1,1.23,3.47l.11,7.3v2.22c0,2.5.41,3.24,1.33,3.24a2,2,0,0,0,1.65-.74c.21-.27.31-.27.52-.18l.62.37c.2.09.31.28.1.74a5.2,5.2,0,0,1-4.74,2.68,4.24,4.24,0,0,1-4.33-2.82Zm-.31-8c-2.27,1.29-5.67,2.08-5.67,5.45,0,1.9,1.13,2.83,2.37,2.83C72.17,98.09,74,96.8,74,96Z" fill="#fff"/><path d="M92.93,99.9,85.88,83.62a2,2,0,0,0-2-1.21H83c-.26,0-.36-.13-.36-.32v-1c0-.27.1-.37.41-.37.62,0,1.65.14,5.36.14,2.47,0,3.71-.14,4.43-.14.31,0,.41.1.41.37v1c0,.23-.1.32-.41.32h-.51c-.52,0-.78.37-.52,1.07l3.71,10.87h.31l4-9.11a2.08,2.08,0,0,0-.42-2.09,1.67,1.67,0,0,0-1.33-.46h-.57c-.26,0-.36-.09-.36-.32v-1c0-.28.15-.37.46-.37s2,.14,5.31.14c2.37,0,3.5-.14,3.91-.14s.52.09.52.37v1c0,.23-.11.37-.41.37h-.83a.77.77,0,0,0-.72,1.07l3.81,10h.21l3.4-8.42c.82-2,.21-3-1-3h-.72a.29.29,0,0,1-.31-.32v-1c0-.27.15-.37.41-.37s1.86.14,4.33.14c2.26,0,3.19-.14,3.71-.14.31,0,.41.14.41.33v1c0,.24-.1.37-.36.37h-.77a2.33,2.33,0,0,0-2,.79c-.52.83-7.11,15.5-7.88,17.07a1.08,1.08,0,0,1-1.09.6c-.51,0-.72-.28-1-1l-5.15-12.54h-.31l-6,12.72a1.28,1.28,0,0,1-1.24.79C93.5,100.87,93.19,100.5,92.93,99.9Z" fill="#fff"/><path d="M117.92,110.26a2.39,2.39,0,0,1,2.47-2.31,5.75,5.75,0,0,1,2.27.55,1.35,1.35,0,0,0,1.34-.09,42,42,0,0,0,3.91-7.4c-.31-1.39-6.28-15.87-6.64-16.65-.57-1.21-1.09-2-2.12-2h-1c-.31,0-.41-.13-.41-.37V81c0-.19.1-.33.41-.33s1.65.14,5.46.14c3,0,4.54-.14,5.16-.14.3,0,.41.1.41.37v1c0,.19-.11.32-.36.32H128a.72.72,0,0,0-.77,1c.16.92,3.25,10.4,3.76,11.42h.21c.92-1.76,4.53-9.67,4.79-10.64.31-1.2-.16-1.76-1.08-1.76h-.83c-.31,0-.41-.13-.41-.32v-1c0-.23.1-.37.41-.37.62,0,1.65.14,4.43.14,1.75,0,3-.14,3.45-.14a.33.33,0,0,1,.37.37v1c0,.28-.11.37-.31.37h-.62a2.43,2.43,0,0,0-1.86.79c-1,1.2-4.53,8.19-8.24,15.68-2.57,5-4.74,9.34-5.67,10.82-.82,1.21-1.85,3.06-4.63,3.06C119.15,112.76,117.92,111.74,117.92,110.26Z" fill="#fff"/><path d="M147.43,89.91a7.26,7.26,0,0,0,6.7,7.49c3.19,0,5.15-1.2,6.23-2.68.21-.33.42-.33.62-.23l.78.41c.25.14.35.33,0,.93-1.09,1.76-3.71,4.9-9.38,4.9-3.3,0-5.62-.65-7.42-2.5a9.8,9.8,0,0,1-2.88-7.63,8.94,8.94,0,0,1,2.52-6.84c2.16-2.5,4.48-3.43,9-3.43,5.88,0,7.78,5.51,7.78,7.4,0,.7-.51.74-1.44.74H147.43Zm6.39-3.1c1.08,0,1.7-.28,1.7-.65,0-1.39-.51-4.12-3.19-4.12s-4.07,1.67-4.74,4.77Z" fill="#fff"/><path d="M167.47,88.29c0-2.13-.41-2.87-2-3.61l-.92-.46c-.31-.09-.41-.19-.41-.37v-.28c0-.18.1-.28.41-.42l6.23-2.63a2.71,2.71,0,0,1,.82-.19c.31,0,.42.28.47.56l.46,3.42h.21c1.75-2.59,3.91-4.16,6.18-4.16a2.41,2.41,0,0,1,2.68,2.31,2.85,2.85,0,0,1-2.78,2.5,4.39,4.39,0,0,1-1.75-.37,2.58,2.58,0,0,0-1.45-.37,2.73,2.73,0,0,0-2.16,1.34,4.86,4.86,0,0,0-.62,2.27v8.83c0,1.48.41,1.94,1.44,1.94h2.27c.31,0,.41.1.41.33V100c0,.23-.1.32-.36.32s-2.63-.13-6.39-.13c-3.6,0-5.61.13-6,.13-.26,0-.36-.09-.36-.32V99c0-.27.1-.37.46-.37h1.8c.83,0,1.34-.37,1.34-1.25Z" fill="#fff"/></svg>