<svg xmlns="http://www.w3.org/2000/svg" width="286" height="116" viewBox="0 0 286 116"><g id="logos"><path d="M16.33,1.5,18.94,3a89.17,89.17,0,0,1,19,15.43A64.86,64.86,0,0,1,50.11,36.5,48.21,48.21,0,0,1,52.44,43l.25-2.14H63l.07-.77.21-2.58,2.58-.12,14.87-.7,3.58-.17L84,39.19l3.58-1.58,14-6.17,1.68-.74,1.41,1.18a26.76,26.76,0,0,1,5.29,6.52l.08-1.68h20.89l-.77,3.54,2.47-3.34.88-1.19h23.62l-2.32,2.62,10-3L169,34l-.52,4.46-.74,6.28,2.12-3,.88-1.25h4.72l.15-1.45.19-1.9,1.83-.6,16-5.17L199,29.6,197.36,35l-.83,2.74h13l-.79,3.19,12.37-3.61,3.18-.93.12.68,1.46-.4L235.43,34l4.27-1.18-.57,4.39-1.48,11.36a52.13,52.13,0,0,1,9.52-13l.85-.8H281.5l-10.11,5.52c-.12.07-10.73,5.93-16.55,14.86H273l-1.73,4.08-9,21.29-.76,1.79h-17.7l-.61-.3a13.9,13.9,0,0,1-4.4-3.86,22.15,22.15,0,0,1-3.91-8.2l-1.28,9.8-.33,2.56H216.87l-.63-2.09-1-3.33-1.1,3.39-.66,2h-12.2l.13-3.06.43-10.21-2.71,11-.55,2.24H188.35l.18-3.1,1-18.51-5.91,19.52L183,82.36H168.74l-.26-2.64-.81-8-5.34,9.21-.85,1.46H130l-.88-1.08-6.26-7.65-1.39,6.42-.5,2.31H96.41l-.83-1.52L92.92,76l-.57,3.85L92,82.36H65.68l-.31-2.59-.54-4.49H61.36l-1.72,5.09-.68,2H47.86l.39-3.28.54-4.63a66.49,66.49,0,0,1-11,13.62A95.16,95.16,0,0,1,24.14,99.15l-1.26.8-1.39-.54-5.63-2.2L11.6,95.54l3.29-3.18,0-.06H7.48l.06-3,1.1-49,.07-2.87h8.05a137.48,137.48,0,0,0-12.52-7.3L1.5,28.78,3,26.09l11.94-22L16.33,1.5m68.6,39.56-1.12-.89-.13.86,1.25,0M26.88,78.63c1.38-1.86,2.58-3.64,3.6-5.31a29.41,29.41,0,0,0,4.24-16.18c0-2.34-1.4-5.14-4.09-8.25L26.88,78.63M144.6,74.79l.58-25.64L134.36,61.4,144.6,74.79m-36.36-2.08.47-9.83a22.38,22.38,0,0,1-4.26,3.9l3.79,5.93M15.9,0l-.54,1L13.93,3.61,2,25.57.53,28.25l-.55,1,1,.5,2.74,1.36c.19.1,4.19,2.1,9.22,5.21H7.63l0,1.07-.06,2.88-1.1,49-.07,3,0,1.13h5.87l-1.39,1.34L9.6,96l1.6.62,4.26,1.67,5.63,2.19,1.39.55.52.2.47-.3,1.26-.81A93.69,93.69,0,0,0,38.57,88.86,74.35,74.35,0,0,0,47.15,79l-.38,3.26-.15,1.23H59.75l.26-.75.67-2,1.47-4.33h1.7l.43,3.52.31,2.58.11,1H92.93l.14-1L93.44,80l.09-.6,1.08,2,.84,1.52.31.58h26.08l.19-.87.5-2.32.9-4.18L128.24,82l.89,1.08.33.41h32.65l.32-.55.85-1.47,3.63-6.26.47,4.64.27,2.64.1,1h16.09l.24-.79.63-2.09L188,69.91l-.52,9.28-.18,3.11-.06,1.17h12.25l.21-.84.55-2.24.08-.31-.1,2.24-.05,1.15h14.15l.25-.77.66-2v0l.62,2,.23.79h18.18l.12-1,.34-2.56.68-5.25a20.86,20.86,0,0,0,2.54,4.19,14.76,14.76,0,0,0,4.78,4.17l.61.3.23.12h18.69l.29-.68.75-1.79,9-21.29L274,55.62l.64-1.53H257c5.8-7.69,14.86-12.73,15-12.78L282,35.79l3.79-2.07H247.58l-.32.3-.85.8a53.67,53.67,0,0,0-7,8.51l.77-6,.57-4.39.22-1.65-1.6.44L235.14,33l-9.54,2.64-.28.07-.11-.7-1.2.35-3.18.93L210.3,39.31l.33-1.32.33-1.37H198l.4-1.32,1.63-5.38.61-2-2,.65-5.35,1.73-16,5.18-1.83.59-.68.22-.07.71-.2,1.91-.05.45h-4.3l-.33.47-.48.7.22-1.92.52-4.46.2-1.67-1.61.49-4.3,1.3-6.28,1.91,1.36-1.54H132.88l-.34.45-.4.55H109.39A26.9,26.9,0,0,0,105.3,31l-1.41-1.18-.52-.44-.63.28-1.68.74-14,6.17-1.74.77.1-.65.2-1.33-1.34.07-3.58.17-14.87.7-2.58.12-1,0-.08,1L62,39.8H52.59c-.44-1.26-.93-2.51-1.47-3.74a66,66,0,0,0-12.41-18.4A89.91,89.91,0,0,0,19.48,2L16.88.54,15.9,0ZM28.53,74.34l2.86-22.7a10.2,10.2,0,0,1,2.22,5.5,28.29,28.29,0,0,1-4.08,15.61c-.31.52-.65,1-1,1.59ZM135.79,61.45l8.22-9.3-.44,19.48-7.78-10.18Zm-29.86,5.6c.53-.41,1-.84,1.54-1.28l-.17,3.43-1.37-2.15Z" fill="#fff"/><path d="M17.48,5.54,5.54,27.5A128.37,128.37,0,0,1,25.85,40.37H11.58l-1.1,49H21.82c-2.82,3.11-4.89,5.11-4.89,5.11l5.63,2.2S48.29,80.26,50.83,60.31C55.09,27,17.48,5.54,17.48,5.54ZM33,74.84A97.37,97.37,0,0,1,22.68,88.4l5.78-45.83c5.18,4.6,9.2,9.72,9.2,14.57A32.34,32.34,0,0,1,33,74.84ZM66,40.37l-.29,3.47H55.31L51.17,79.42h5.68l2.41-7.08h8.18l.85,7.08h6.63l6-39.75ZM61.48,65.81,65.3,54.55l1.35,11.26ZM110,53.19c1.82-11.35-7.35-19.06-7.35-19.06l-14,6.17a32.11,32.11,0,0,1,4,3.86l-11.12-.23L79.18,79.42H89.44l1.47-10h1.75l5.49,10h10.9l-8.72-13.61S108.61,62.15,110,53.19ZM91.82,63.24l2.49-17a14.88,14.88,0,0,1,2.94,7.1C97.77,59.82,94.58,62.3,91.82,63.24Zm38.74-2,13.89,18.15H131.37L121.26,67.05l-2.68,12.37h-7.72l1.91-39.75H127.2L124.3,53l10.61-14.34h15.62Zm17.7-17.88,17.33-5.27L163.51,56l8.8-12.61h3.27l.72,9.35.91-.09,1.36-13.35,16-5.17L180.84,79.42H171.4l-1.72-17.06-9.9,17.06H147.44Zm57.54-2.73-9.53,38.76h-4.81l2.18-38.76Zm0,4.18L222,40.12,223.59,50l3.09-10.53,9.53-2.63-5.54,42.57H219.06l-3.72-12.34-4,12.34h-7Zm48.11,13.3h14.62l-9,21.28H244.47s-6.5-3.19-7.53-14.7c-1.27-14.16,12.25-27,12.25-27H270s-13.8,7.53-19.43,19c-4.77,9.74-1.64,17.23,1.36,19.38Z" fill="#fff"/><path d="M164.54,88.46H152v27.36h12.53a12.57,12.57,0,0,0,12.53-12.53V101A12.57,12.57,0,0,0,164.54,88.46Zm3.37,20.82H159.8V95.72h8.11Z" fill="#fff"/><path d="M196.05,88.37v17.32a3.6,3.6,0,0,1-3.59,3.59h-.08a3.6,3.6,0,0,1-3.59-3.59V88.37h-8.2V109c0,3.78,1.38,7.26,11.45,7.26s12.31-3.48,12.31-7.26V88.37Z" fill="#fff"/><path d="M225.34,104.57V109h-8V96.19h8v3.27H235v-.32a10.81,10.81,0,0,0-10.78-10.77h-4.8a11.75,11.75,0,0,0-11.72,11.71V104a11.75,11.75,0,0,0,11.72,11.71h5.35A10.26,10.26,0,0,0,235,105.43v-.86Z" fill="#fff"/><polygon points="266.07 88.37 254.52 88.37 246.39 98.9 246.39 88.37 236.74 88.37 236.74 116.32 244.15 116.32 244.15 109.93 248.43 105.72 252.83 115.67 263.56 115.67 255.03 99.23 266.07 88.37" fill="#fff"/><polygon points="145.19 49.16 134.36 61.4 144.6 74.79 145.19 49.16" fill="#fff"/><path d="M108.71,62.88l-.47,9.83-3.79-5.93S107.5,67.52,108.71,62.88Z" fill="#fff"/></g></svg>