<svg xmlns="http://www.w3.org/2000/svg" width="230" height="127" viewBox="0 0 230 127"><defs><clipPath id="a"><path fill="none" d="M-876.59-686H230v630H-876.59z"/></clipPath></defs><g clip-path="url(#a)"><circle cx="38.58" cy="-485.35" r="898.45" fill="#f7c845"/><circle cx="38.58" cy="-485.35" r="692.47" fill="#fef5be"/><circle cx="38.58" cy="-485.35" r="492.43" fill="#f7c845"/></g><path d="M69.4 29.14a6 6 0 0 0 .93 2.67 3 3 0 0 0 2.29 1.3h.29c2.26 0 4.3-1.89 6-4.41-.22 1.41-.43 2.79-.62 4l-1.93 1.37c-3.48 2.37-5.31 5.29-4.66 7.44a3 3 0 0 0 3 2h.09c2.79 0 4.76-2.11 5.26-5.68.08-.62.29-2 .55-3.74 2.75-2 5.35-4.17 6.8-5.38a4.76 4.76 0 0 0 2.19 3 3.25 3.25 0 0 0 1.54.39 4.5 4.5 0 0 0 3.27-1.69 17.07 17.07 0 0 0 2.69-4.19 4.35 4.35 0 0 0 2.27 1.11 5.27 5.27 0 0 0 3.11-.26 4.86 4.86 0 0 0 2.69 3.19 4.54 4.54 0 0 0 1.79.36 6.13 6.13 0 0 0 4.16-1.78 16.86 16.86 0 0 0 2.68-4.26 5.47 5.47 0 0 0 4.38 1.49 8.42 8.42 0 0 0 3.29-.85 4.52 4.52 0 0 0 4 3.32 3.59 3.59 0 0 0 .47 0 5.44 5.44 0 0 0 3.58-1.45 11 11 0 0 0 2.11-2.56 4.25 4.25 0 0 0 .84 2.38 1.86 1.86 0 0 0 1.37.6h.2c1.67-.18 4.63-2.36 6.74-4.77a6.07 6.07 0 0 0 1 2.8 3 3 0 0 0 2.29 1.3h.29c2.26 0 4.3-1.89 6-4.41-.22 1.41-.43 2.79-.62 4l-1.93 1.37c-3.48 2.37-5.31 5.29-4.66 7.44a3 3 0 0 0 3 2h.09c2.79 0 4.76-2.11 5.26-5.68.08-.62.29-2 .55-3.74 4.05-3 7.79-6.21 8-6.37a1.27 1.27 0 1 0-1.65-1.93s-2.62 2.24-5.77 4.69c.72-4.71 1.56-10.18 1.85-12 .05-.24.08-.48.11-.69a1.27 1.27 0 0 0-2.52-.34l-.11.7a28.6 28.6 0 0 1-2.95 7.79c-1.68 3.06-3.49 4.82-4.83 4.73a.51.51 0 0 1-.41-.25c-1.2-1.68 0-9.1 1-13.19h-2.61c-.24 1-.9 4-1.18 5.95 0 .29-.07.57-.11.85a1.32 1.32 0 0 0-.19.49c-.36 2-4.66 5.92-6.48 6.69a27.28 27.28 0 0 1 .39-7.52c0-.1 0-.19.08-.29s0-.13.06-.21A94.35 94.35 0 0 0 137.39 0h-2.55a96.72 96.72 0 0 1-2 14.08c-1.77-1.52-4.37-2.7-7.07-1.19s-4.58 5.8-4.67 9.57a4.8 4.8 0 0 1-3.1 1.15 3 3 0 0 1-3-1.48 1.59 1.59 0 0 1-.13-.22c.89-2.63 1.23-5.25.22-6.57a1.63 1.63 0 0 0-2.06-.55c-1.63.81-1.66 4.44-1 6.64 0 .19.1.37.16.54a17.32 17.32 0 0 1-2.85 5.14 3.16 3.16 0 0 1-3.15.88c-1.11-.47-1.68-2.12-1.62-4.63.15-6.22 5.23-7 5.43-7l-.34-2.52c-2.34.31-7.47 2.69-7.63 9.46v1.14a1.77 1.77 0 0 0-.24.17 2.31 2.31 0 0 1-2 .29 1.79 1.79 0 0 1-1.48-1.25l-.06-.16c0-.1.07-.19.1-.28 1.17-3.25 1.5-5.33 1-6.18a1.42 1.42 0 0 0-1.66-.64c-1.64.52-2.27 4.3-2.15 6.18 0 .25 0 .49.08.73-1 2.5-2.38 5.12-3.78 6.06-.61.41-.9.26-1.06.17-1-.54-1.43-2.68-1.39-5.62a75.78 75.78 0 0 0 4.3-6.33c3.09-5.12 4.29-8.8 3.68-11.22-.71-2.82-2.11-3.42-3.16-3.43-2.25 0-4.21 2.94-5 5.86a82.75 82.75 0 0 0-2.16 11.63c-.11 1.07-.17 2.07-.2 3v.06c0 .88 0 1.68.05 2.42-.27.23-2.75 2.34-5.74 4.67.72-4.71 1.57-10.18 1.85-12 0-.24.08-.48.11-.69a1.27 1.27 0 0 0-2.52-.34l-.11.7a28.6 28.6 0 0 1-2.86 7.65c-1.68 3.06-3.49 4.83-4.83 4.73a.51.51 0 0 1-.41-.25c-1.22-1.72-.07-9.13 1-13.21h-2.61c-.23 1-.87 3.82-1.18 6-.13.93-.21 1.78-.27 2.58a1.33 1.33 0 0 0-.24.19c-4.5 4.63-6.2 5.23-6.63 5.31-.09-.3-.23-1.28.47-4 .93-3.56.7-6.27-3.49-7.89l-.25-.12a7.56 7.56 0 0 0 .42-1.95 2.16 2.16 0 0 0-.6-1.69 1.94 1.94 0 0 0-2.15-.49 2.55 2.55 0 0 0-1.29 2.51 4.67 4.67 0 0 0 .67 2.23c-1.54 3.41-4.83 8.73-6.59 10.25-3.55 3.07-6.7 4.61-8.42 4.12-.28-.08-1.12-.32-1.66-2a6.46 6.46 0 0 1-.28-1.53c1.58-.63 7.26-3.12 8.52-6.77a4.54 4.54 0 0 0-.47-4 3.25 3.25 0 0 0-4.42-1.31c-1.8.82-3.67 3-4.89 5.75a14.9 14.9 0 0 0-1.29 5.13c-1.46.79-3.28 1.47-4.16.5a2.53 2.53 0 0 1-.49-.87c.71-2.13 2.14-7.09.59-8.36a1.44 1.44 0 0 0-2 .11c-1.09 1-1.94 5-1.27 8.13a16.29 16.29 0 0 1-2.27 4.31 3.43 3.43 0 0 1-2.46 1.59 1 1 0 0 1-.88-.47c-1.46-1.92-.54-9 .3-12.64h-2.6c-.2 1-.69 3.62-.89 5.59a29.59 29.59 0 0 0-.17 3 1.07 1.07 0 0 0-.2.22C17.23 35 11 37 7.46 36c-1.91-.59-2.88-2-2.88-4.25a6.52 6.52 0 0 1 1.85-4.94 8.37 8.37 0 0 1 4.73-2 12.4 12.4 0 0 0 1.84-.08 1.27 1.27 0 0 0-.06-2.53 12.72 12.72 0 0 0-2 .08c-1.8-.09-2.82-.9-3.16-3.35a5.57 5.57 0 0 1 3.74-5.71 4.64 4.64 0 0 1 3.74.58 1.47 1.47 0 0 1 .64 1.2c0 1.33-.65 1.58-.93 1.62l.27 2.53c1.1-.12 3.18-1.13 3.18-4.15a4 4 0 0 0-1.7-3.27 7.22 7.22 0 0 0-6-1 8 8 0 0 0-5.54 8.5A6.65 6.65 0 0 0 7 23.34a9.05 9.05 0 0 0-2.3 1.56A8.93 8.93 0 0 0 2 31.7a6.52 6.52 0 0 0 4.7 6.67 9.49 9.49 0 0 0 2.85.41 16.83 16.83 0 0 0 11.29-5 6 6 0 0 0 1 2.12 3.58 3.58 0 0 0 2.81 1.47h.16c2.32 0 4.47-1.92 6.18-5.49 1.09 1 2.94 1.65 6 .27.06.24.12.48.2.72a5 5 0 0 0 3.39 3.71 4.82 4.82 0 0 0 1.37.19c3.1 0 6.74-2.53 9.4-4.83 1.77-1.52 5-6.45 6.91-10.42l.31.13c2.19.85 2.78 1.67 1.94 4.88-.68 2.62-1.22 5.77.7 6.85 1.65.99 4.09-.25 8.19-4.24zm8.13 8.42c-.22 1.6-.88 3.49-2.75 3.49-.14 0-.59 0-.65-.22-.16-.55.53-2.46 3.63-4.6-.12.58-.19 1.04-.23 1.33zm71.41-6.18c-.22 1.6-.88 3.49-2.75 3.49-.14 0-.59 0-.65-.22-.16-.55.52-2.46 3.63-4.6-.12.58-.17 1.04-.23 1.33zM127 15.11a2.6 2.6 0 0 1 1.36-.38 3.86 3.86 0 0 1 2.22.82A8.45 8.45 0 0 1 132.1 17c-1.15 4-2.61 6.91-4.22 8.3a2.88 2.88 0 0 1-2.16.82c-.67-.06-1.6-.34-2-2-.62-3.22 1.37-7.94 3.28-9.01zM91.67 9.44c.73-2.77 2.21-4 2.51-4s.39.21.72 1.51c.6 2.41-2.23 7.71-5.14 12a73.71 73.71 0 0 1 1.91-9.51zM44 20.89a1.46 1.46 0 0 1 .56-.15c.28 0 .46.18.64.48a2 2 0 0 1 .24 1.8c-.66 1.92-3.72 3.71-5.86 4.71.7-3.1 2.68-6.06 4.42-6.84z" fill="#fff"/><path d="M157.39 40c-1.8.82-3.67 3-4.89 5.75a14.74 14.74 0 0 0-1.29 5.13c-1.46.8-3.28 1.48-4.16.51a2.49 2.49 0 0 1-.49-.88c.71-2.13 2.14-7.08.59-8.36a1.45 1.45 0 0 0-2 .11c-1.09 1-1.94 5.05-1.27 8.13a16.2 16.2 0 0 1-2.27 4.32 3.49 3.49 0 0 1-2.46 1.59 1.08 1.08 0 0 1-.88-.47c-1.45-1.91-.45-9.23.39-12.85h-2.6c-.2 1-.78 3.86-1 5.79a25.9 25.9 0 0 0-.14 4.11 5 5 0 0 1-3 1.06 3 3 0 0 1-3-1.47l-.12-.23c.88-2.63 1.23-5.25.21-6.56a1.62 1.62 0 0 0-2.06-.56c-1.62.81-1.65 4.45-1 6.65 0 .18.11.36.16.53a17.55 17.55 0 0 1-2.84 5.15 3.19 3.19 0 0 1-3.16.87c-1.1-.47-1.68-2.11-1.62-4.63.15-6.22 4.82-7 5-7l-.34-2.51c-2.32.3-7 2.62-7.22 9.19a10 10 0 0 1-10.57 5.27 40.24 40.24 0 0 0-3.79-.46 29.16 29.16 0 0 0 1.26-6.76 9.53 9.53 0 0 0 3.78-1.07c2.6-1.41 4.23-4.05 4.83-7.86.85-5.31-.38-7.51-1.57-8.42a3.58 3.58 0 0 0-3.75-.28c-2.27 1-4.86 4.33-5.19 9.15l-.12 1.75c-.09 1.41-.19 2.81-.29 4.15a21.3 21.3 0 0 1-4.88-1.34l-.27-.09.43 2.86a26 26 0 0 0 4.49 1.11c-.3 3-.73 5.41-1.46 6.77-2.74.15-4.09.89-4.75 1.65a2.17 2.17 0 0 0-.49 2.08A1.9 1.9 0 0 0 95 63.24a2 2 0 0 0 .55.07c1.74 0 3.73-1.78 4.56-2.61a31.85 31.85 0 0 1 4.83.47 12 12 0 0 0 11.35-4 5 5 0 0 0 2.78 3.49 4.59 4.59 0 0 0 1.8.36 6.09 6.09 0 0 0 4.15-1.78 16.23 16.23 0 0 0 2.72-4.24 5.5 5.5 0 0 0 4.39 1.48 8.41 8.41 0 0 0 3.28-.85 5.66 5.66 0 0 0 .86 1.74 3.62 3.62 0 0 0 2.81 1.48h.16c2.32 0 4.47-1.93 6.18-5.49 1.09 1 2.94 1.65 6 .26.06.24.12.48.2.73a5.43 5.43 0 0 0 3.6 4 5.54 5.54 0 0 0 1.53.21c3.59 0 7.68-3.06 9.43-4.51 1.91-1.6 4.77-5.47 6.65-8.3l.94-1.46c1.87 3.59.22 6.3-.79 8v.06a5.87 5.87 0 0 1-.48.68c-1.54-.27-2.66-.42-3.38.41a1.76 1.76 0 0 0-.27 1.79 2.16 2.16 0 0 0 1.83 1.57 3.71 3.71 0 0 0 2.68-1.05 12.45 12.45 0 0 0 3.46.14c3.67-.48 6.34-4.78 6.63-5.27l-1.26-2.43c-.61 1-3.6 4.9-5.7 5.18a6.53 6.53 0 0 1-1.18 0c1.17-1.93 3.47-6.09.22-11.18l-.25-.41c1.74-3.19 1.48-4 1.36-4.4a2 2 0 0 0-1.64-1.47 2.53 2.53 0 0 0-2.41 1.28 4.84 4.84 0 0 0-.17 4.46c-2.16 3.64-5.78 8.71-7.83 10.41-2.59 2.17-6.41 4.47-8.62 3.82A3 3 0 0 1 154 53.6a6.37 6.37 0 0 1-.28-1.53c1.58-.63 7.26-3.11 8.52-6.77a4.52 4.52 0 0 0-.47-3.95 3.26 3.26 0 0 0-4.38-1.35zm-54 4.86c0-.58.07-1.16.11-1.75.25-3.57 2.09-6.27 3.7-7a1.61 1.61 0 0 1 .68-.17.76.76 0 0 1 .48.15c.68.52 1.2 2.37.62 6-.48 3-1.67 5-3.54 6a6.72 6.72 0 0 1-2.34.73c.1-1.19.19-2.52.29-3.93zm56.25-2.22a2 2 0 0 1 .24 1.8c-.66 1.92-3.72 3.71-5.86 4.72.73-3.1 2.71-6.06 4.42-6.84a1.3 1.3 0 0 1 .56-.15c.28.03.46.2.64.5zM29.48 62.72v-.31l-11.94.51v.31c0 .11 1.32 11 1.85 17.53.36 4.35.34 7.13-.82 8.49a3.28 3.28 0 0 1-2.4 1 3.41 3.41 0 0 1-2.67-.82c-1-.94-1.56-2.71-1.58-5.11V63.87l-12 1 .05.3C3.46 87.62 3 124.27 3 124.63v.3l11.45-.56v-.29c0-.16-1.53-15.82-1.48-19.53 0-2.67 1.29-4 3.84-4.18a3.63 3.63 0 0 1 2.87.86 5.35 5.35 0 0 1 1.27 4c0 4.81-.42 18.72-.43 18.86v.3l12.05-.56v-.29c-3.97-41.14-3.1-60.63-3.09-60.82zM60.08 76.87L51 76.24a.27.27 0 0 0-.29.21l-4.62 17.38-1.86-17.34a.27.27 0 0 0-.28-.25H34.1a.29.29 0 0 0-.22.1.28.28 0 0 0-.06.25c.07.26 6.67 26.38 6.46 29.27s-1.78 17-1.8 17.15a.29.29 0 0 0 .07.22.28.28 0 0 0 .21.1h8.9A.31.31 0 0 0 48 123c0-.15-.2-15 1.35-18.75s10.93-26.8 11-27a.3.3 0 0 0 0-.26.3.3 0 0 0-.27-.12zM79.37 75.14c-3.59-3.31-9.43-4.3-17.34-2.93a.28.28 0 0 0-.23.29l1.37 47.59a.32.32 0 0 0 .1.2.32.32 0 0 0 .19.07l8.69-.74a.29.29 0 0 0 .26-.3l-.73-10.6a23.25 23.25 0 0 0 5.49-3c3.81-2.82 6-6.42 6.37-10.4.52-5.66 1.36-15.09-4.17-20.18zm-3.58 16.64c0 3.08-.75 5.3-2.1 6.6a4 4 0 0 1-2.23 1.1l-.72-18.76a2.39 2.39 0 0 1 2.39 0c1.77 1.07 2.73 5.11 2.66 11.06zM109.13 73.36a.29.29 0 0 0-.21-.09h-8.58a.28.28 0 0 0-.28.32 89.25 89.25 0 0 1 .09 22.3c-2.23-4-5.23-20.1-5.26-20.27a.27.27 0 0 0-.28-.23h-7.84a.28.28 0 0 0-.28.28v46.63a.29.29 0 0 0 .28.29H95a.29.29 0 0 0 .2-.09.26.26 0 0 0 .08-.21c-1-16.24-.54-20.67-.26-21.87 2.69 5.47 5 19.56 5 19.7a.28.28 0 0 0 .28.24h8.58a.32.32 0 0 0 .22-.1.29.29 0 0 0 .06-.22c-1.67-11.29 0-46.13 0-46.48a.25.25 0 0 0-.03-.2zM122 73.69c-6.81.33-11.82 11.57-11.18 25.07.73 15.2 5.39 23.46 13.48 23.9h.52a7.83 7.83 0 0 0 5.7-2.36c2.16-2.15 5.69-8 5-22.73-.64-13.48-6.71-24.21-13.52-23.88zm2.18 40.75c-2 0-4.24-6.26-4.58-15.65s1.51-15.87 3.46-15.94c1 0 2.06 1.63 2.91 4.39a45.26 45.26 0 0 1 1.67 11.26c.36 9.44-1.49 15.87-3.44 15.94zM177.26 78.88c-2.37-4.53-5.55-7-8.95-7h-.05c-7.07 0-12.54 10.78-12.45 24.43.1 15.5 4.5 24.11 12.73 24.9h.9a8 8 0 0 0 5.52-2.17c2.3-2.1 6.14-7.88 6-22.94.04-6.58-1.33-12.7-3.7-17.22zm-8.83 33.92c-.87 0-1.8-1.71-2.48-4.58a52.1 52.1 0 0 1-1.09-11.54 52 52 0 0 1 1.2-11.53c.71-2.86 1.65-4.56 2.52-4.56.88 0 1.8 1.72 2.48 4.58a51.45 51.45 0 0 1 1.1 11.54c-.05 9.49-2 16.09-3.73 16.09zM155.87 73.55a.29.29 0 0 0-.1-.23.33.33 0 0 0-.23-.09 114.79 114.79 0 0 1-20.19-.42.33.33 0 0 0-.25.08.32.32 0 0 0-.11.24v8.69a.3.3 0 0 0 .12.24.32.32 0 0 0 .25.07s3.31-.54 4.83.73a2.1 2.1 0 0 1 .74 1.71c0 3.14-1.15 36.22-1.16 36.56a.31.31 0 0 0 .09.23.29.29 0 0 0 .22.09h8.59a.31.31 0 0 0 .31-.31s.28-31.16.32-35.93a2.45 2.45 0 0 1 .87-2c1.7-1.41 5.29-.79 5.33-.78a.35.35 0 0 0 .26-.07.33.33 0 0 0 .11-.25zM201.65 76.63a.32.32 0 0 0-.11-.24.28.28 0 0 0-.25-.07c-5.18.83-12-.52-12.08-.53a.3.3 0 0 0-.24 0 .36.36 0 0 0-.13.22c-2.09 21.81-8.39 47.29-8.45 47.55a.26.26 0 0 0 .05.25.29.29 0 0 0 .22.13l8.47.74a.29.29 0 0 0 .22-.07.26.26 0 0 0 .11-.21s.41-5.22.73-8.26c.23-2.26 1.9-2.51 3.32-2.48h.2c.35 0 3.4.05 3.45 3s0 7.68 0 7.73a.31.31 0 0 0 .31.31h8.32a.31.31 0 0 0 .31-.36 304.13 304.13 0 0 1-4.45-47.71zm-6.23 29.18a2 2 0 0 1-1.54.47 1.7 1.7 0 0 1-1.38-.43c-.26-.32-.3-.86-.13-1.72.12-.59 1.48-8.45 2.17-12.43.39 3.92 1.14 11.61 1.22 12.63a1.89 1.89 0 0 1-.34 1.48zM230 97.29c-.53-12.16-3-19.61-7.72-23.45-3.77-3-9-3.88-16.5-2.62a.32.32 0 0 0-.2.12.29.29 0 0 0 0 .24c0 .24 4.11 24.61 3.69 47.61a.3.3 0 0 0 .26.31 18.41 18.41 0 0 0 2.28.13c3 0 8.3-.59 12.41-4.28s6.09-9.87 5.78-18.06zm-9 7.5c-.76 3.85-2.8 5.42-3.2 5.36-.91-.5-2.09-11.48-2.5-30.86a3.78 3.78 0 0 1 2.44 1.52c3.58 4.34 4.71 16.66 3.26 23.98z" fill="#fff"/></svg>