<svg xmlns="http://www.w3.org/2000/svg" xmlns:xlink="http://www.w3.org/1999/xlink" width="124" height="141" viewBox="0 0 124 141"><defs><clipPath id="a"><polygon points="62 64.44 2 33.72 2 106.46 62 137.18 62 64.44" fill="none"/></clipPath><clipPath id="b"><polygon points="62 3 2 33.72 62 64.44 122 33.72 62 3" fill="none"/></clipPath><clipPath id="c"><polygon points="62 64.44 122 33.72 122 106.46 62 137.18 62 64.44" fill="none"/></clipPath></defs><g clip-path="url(#a)"><path d="M3.86,37.18,24.58,47.94c3.89,2,6.28,4,8,6.48,2.69,3.95,4,9.61,4,17.69,0,6.53-.66,9.56-2.33,11a3.91,3.91,0,0,1-3.89.84v.31c5.32,3.89,7.06,8.68,7.06,19.81,0,13.9-3,17-12.15,12.29L3.86,105.33ZM21.11,74c3.65,1.79,3.95,1.84,4.73,1.43,1.07-.46,1.49-2.29,1.49-6.07,0-5.82-.84-7.48-4.55-9.41l-9.7-5V69.86Zm-.3,27.12c6.22,3.24,7.36,2.6,7.36-3.94,0-4.7-.48-7-1.86-8.73-.77-.91-.95-1-4.49-2.94L13.08,81V97.14Z" fill="#fff"/><path d="M68.28,73.56c3.71,4.68,5.86,8.5,6.64,16.57.36,3.25.48,7.81.48,17.21,0,15.43-.42,19.81-2.16,23.91-1.55,3.49-4.25,5.05-7.84,4.51a35.16,35.16,0,0,1-8.62-3.45c-6.28-3.26-9.34-5.77-11.85-9.53-3.18-4.71-4.79-9.94-5.51-17.37-.3-3.22-.42-6.75-.42-14.11,0-17.78.48-23.35,2.46-27.13a6.92,6.92,0,0,1,7.6-4,35.34,35.34,0,0,1,8.62,3.45C63.31,66.53,65.94,70.61,68.28,73.56Zm-18,2c-1.62,1.61-1.86,3.94-1.86,19.88,0,10.93.3,14,1.56,17.25,1,2.58,2.85,3.67,7.84,6.63,10.37,6.17,6.46,2.23,7.42-1.56.66-2.72.78-5.11.78-15.53,0-13.59-.18-15.53-1.62-19.13-1-2.57-2.57-3.89-7.36-6.38C52.83,74.57,51.45,74.37,50.26,75.59Z" fill="#fff"/></g><g clip-path="url(#b)"><path d="M13.42,25.16V11H44V25.16h-7V56.47h-10V25.16Z" fill="#fff"/><path d="M55.78,3V28.43H68.22V3h10V64.44h-10V36.84H55.78v27.6h-10V3Z" fill="#fff"/><path d="M100.35,11v14.2H90v4h8.39v7.78H90v3.73h10.87V56.47H80V11Z" fill="#fff"/></g><polygon points="62 3 2 33.72 62 64.44 122 33.72 62 3" fill="none" stroke="#fff" stroke-linecap="round" stroke-linejoin="round" stroke-width="0.82"/><g clip-path="url(#c)"><path d="M76.25,61.85c3.71.84,5.87,4.53,6.65,11.79.35,2.88.47,7.31.47,16.72,0,15.42-.41,20.24-2.15,26.14a27.4,27.4,0,0,1-7.84,12.63,32,32,0,0,1-9.65,5.1c-6.7,2.27-8.57.57-11.09-.58-3.17-1.43-4.53-1.28-5.25-8C47.1,122.78,47,119.36,47,112c0-17.78.47-23.85,2.45-29.67,1.56-4.69,2-10,5.21-12.78,1.62-1.44,7.36-2.71,11-4.59C71.28,62.06,73.92,61.32,76.25,61.85ZM55.69,82.78c-1.62,3.29.68,7.72.68,23.66,0,10.93,1.4,10.41,2.65,12.32,1,1.52,1.6,4.49,6.75,1.83,5-2.56,6.47-4.46,7.43-9.25.66-3.4.78-5.92.78-16.34,0-13.59-.18-15.33-1.62-17.45-1-1.52-4.42-.79-9.21,1.69C59,81.4,56.89,80.32,55.69,82.78Z" fill="#fff"/><path d="M108.93,75.65l12.28,28.82-10.6,5.47L105.4,96.38c-.66-1.6-1.08-2.82-2.75-7.77l-.9-2.61-.12.07-.9,3.52c-1.68,6.69-2.21,8.61-2.75,10.72l-5.27,18.87-10.9,5.62L94.33,83.2l-11.68-27,10.78-5.56,4.85,12.41c.6,1.53,1,2.67,2.45,7.11l.78,2.36.18-.09.78-3.16c1.43-5.65,1.79-7.16,2.45-9.55l4.91-17.55,10.72-5.53Z" fill="#fff"/></g><polyline points="122 33.72 122 106.46 62 137.18 62 64.44" fill="none" stroke="#fff" stroke-linecap="round" stroke-linejoin="round" stroke-width="0.82"/><polyline points="2 33.72 2 106.46 62 137.18" fill="none" stroke="#fff" stroke-linecap="round" stroke-linejoin="round" stroke-width="0.82"/></svg>