<svg xmlns="http://www.w3.org/2000/svg" viewBox="0 0 230 112"><path d="M107.19 1.89c6.87.03 13.96-.16 20.78.8 5.35.75 9.95 1.7 11.08 7.67 1.46 7.72-.5 18.24-1.09 26.21-.27 3.7-.02 7.95-.38 11.61-.43 4.35-3.24 6.36-7.36 6.89-1.66.22-4.21.36-5.94.44-5.54.25-11.12-.02-16.55-1.12l-.54-52.5zm13.88 44.61c1.64-.54 2.66-1.66 3.33-3.23 1.75-4.07 1.51-19.33 1.18-24.34-.19-2.9-.89-9.19-4.9-8.2l.38 35.77zM90.69 36.19c-.27-2.57-1.26-6.35-4.45-4.07l-.05 22.63-13.88.37c-.85-17.84.47-35.71 0-53.6 5.09.17 10.5.06 15.57.38 2.88.18 7.47.27 10.04 1.22 5.14 1.91 5.48 12.81 5.18 17.35-.13 1.92-.13 4.67-1.99 5.51-1.13.51-4.76.33-4.78 1.6 3.25 0 4.82 2.56 5.46 5.42l.92 21.76-12.01.37c-.46-6.05.61-12.98 0-18.93zm-4.27-26.03c-.6.17-.57.77-.63 1.27-.32 2.79.03 6.47.04 9.4.01 3.5 2.73 1.79 3.38 1.13 1.42-1.47 1.52-8.61.52-10.31-.41-.7-2.62-1.7-3.31-1.49zM50.09.13c5.18-.57 12.35.74 15.62 5.17 4.09 5.53 2.87 11.59 2.82 17.76-.06 7.02 1.09 20.15-1.09 26.28-2.81 7.9-15.59 7.82-22.23 5.68-9.27-2.98-7.5-13.98-7.8-21.82-.28-7.3-1.12-17.1.94-24.18 1.28-4.4 7.33-8.4 11.73-8.89zm1.47 9.33c-1.08.33-1.65 2.47-1.76 3.49-.95 8.3-.03 17.14-.39 25.5.7 2.26-.99 9.18 2.83 9.21 2.12.01 2.67-5.91 2.81-7.73.55-7.16.43-17.39.24-24.67-.06-2.23-.22-6.88-3.72-5.8zM32.92 21.01H19.98s-.12-1.52-.17-2.04c-.15-1.8-.5-7.02-1.05-8.36s-2.06-1.73-3.11-.68c-.85.85-1.41 6.36-1.49 7.87-.52 9.02.79 18.51.56 27.58.37 1.18 1.87 2.1 2.96 1.46 1.95-1.31 2.43-10.29 1.7-12.68l-1.46-.04v-7.34l15.01.21-.19 28.11h-6.38c-.12 0-2.06-2.38-2.4-3.22-.15-.37.21-.66-.6-.53-.8.13-1.6 1.78-2.46 2.42-3.61 2.67-11 3.24-14.61.41C-2.54 47.27-.1 22.27 1.9 12.32c1.03-5.1 2.5-8.63 7.51-10.87C13.98-.6 23.38.12 27.65 2.85c5.52 3.53 4.91 12.46 5.27 18.16zM199.84 36.75l10.13-.38c.09 2.34.11 9.29 1.68 10.88 1.51 1.53 3.96-.51 4.78-1.99 3.71-6.73-1.47-10.91-6.49-14.29-5.34-3.6-9.29-3.39-10.98-10.77-.98-4.28-.58-12.73 2.37-16.15 3.76-4.35 17.62-4.66 22.27-2.11 4.44 2.44 3.58 11.48 5.12 15.69-4 .66-8.03.89-12.03.21-.47-.29.36-6.15-2.25-7.87-3.55-2.34-4.18 3.69-3.57 6.19.71 2.95 5.57 4.93 7.9 6.73s6.94 5.91 8.6 8.27c4.42 6.27 3.54 20.83-4.95 23.48-6.85 2.14-18.42 2.74-21.19-5.6-.42-1.26-1.4-5.7-1.4-6.85v-5.44zM183.71 1.89l.21 9.76-9.59.73v10.5h8.25v9l-8.63.37v12.63c0 .11 7.38.49 10.87.49l-.73 9.57s-19.91.68-22.55.01l-.3-.45c-.67-4.85-.27-9.71-.41-14.58-.28-10.19-.47-20.12 0-30.33.11-2.46-.56-5.64.55-7.7h22.32zM156.29 54.33l-13.11.25-.3-.45.32-52.61c2.31.38 11.96-.84 13.16-.21l.3.45-.36 52.57zM151.15 95.51c.32.19.71.06 1.05.09.65-6.98.36-14.11 1.14-21.16l-.03-12.4c.62-.39 3.26-.2 3.41.45-.09 6.98.06 13.96 0 20.94-.01 1.63 0 3.25-.02 4.86-.05 7.33-1.18 14.69.75 21.92-.26.22-4.37-.19-5.04-.39-1.6-.47-4.94-11.32-7.26-15.61-1.68-1.84-8.72-17.31-9.63-17.74-.13-.06-.95-.13-.94.19-.12 10.71-1.4 21.55-.09 32.25-.15.8-4.29 1.01-5.16.92.18-2.3.65-5.04.68-7.31.05-5.57.15-30.24.09-33.38-.04-2.19-.52-5.06-.76-7.29l3.86.06c1.61.44 5.13 10.15 6.2 12.19 3.04 5.78 6.64 11.44 9.72 17.28.45.85 1.2 3.64 2.05 4.12zM115.82 87.36l6.09 10.97c.97 1.32 5.85 10.89 5.38 11.53-.74.67-5.08.46-5.4-.07-.15-.47-5.09-19.32-14.29-21.52-1.53-.37-7.15-1.17-7.53.77l.35 19.44c-.32 1.02-2.49.52-3.35.61l.36-47.43c7.75-.15 23.13-3.43 26.76 5.9 1.27 3.26 1.61 12.33.29 15.51-1.11 2.69-5.96 4.07-8.65 4.28zm-.73-20.08c-2.67-.38-8.74-.91-11.47-.85-.59.01-1.15.26-1.68.49l-.74 15.54c8.45 1.18 20.38 2.71 18.78-9.57-.08-.65-.58-5.01-4.88-5.62zM22.73 61.92l-1.31-.56c-.07-.02-.14-.04-.22-.04-.16-.02-.31-.02-.45.02-.6.87-.79 1.97-.83 3.03-.43 11.53 1.43 24.42-.61 35.83-.15.85-2.27 4.65-2.91 4.96l-4.63.13c-.11-.03-2.78-.07-3.65-3.58-.11-.47-.03-5.68-.03-5.68-1.31-.76-2.59-.29-3.73.55.13 2.82.53 3.4.75 5.23.08.69.67 2.34 1.08 3.43.69 1.87 3.39 4.44 5.41 4.75 3.61.54 6.59-.67 8.64-3.61 4.84-6.95 2.77-21.5 2.52-29.69-.15-4.91.19-9.86-.04-14.77zM163.08 61.49h24.76c-.12 1.25.51 5.09-1.01 5.58l-9.67-.72-10.28.44.73 16.03c2.3.86 4.4.05 6.52.02 3.74-.07 7.57.34 11.24-.32.77.19.87 3.56.97 4.46l-18.98.7s-.28 12.99-.16 17.29l20.64-.75.4 4.68c-.17 1.18-1.88 1.26-2.82 1.33-7.38.61-15.07-.13-22.33-1.14v-47.6zM29.02 98.35c-2.28-6.36-2.51-17.21-.75-24.07 1.55-6.02 9.48-13.62 16.03-13.13 17.43 1.32 17.06 26.28 12.74 38.5-2.55 7.21-10 11.28-17.46 9.71-5.73-1.21-8.73-5.9-10.56-11.01zm7.12 3.78c4.33 4.84 10.91 5.28 15.17.04 5.83-7.18 7.09-27.35-.38-33.75-6.28-5.38-13.27-2.4-16.79 4.22-2.05 3.87-2.66 9.03-2.74 13.38-.1 5.97.72 11.62 4.73 16.1zM84.46 101.37c1.81-3.01 1.22-3.9 1.74-7.06 1.65-10.02 2.26-20.85 1.49-31.14-.04-.5-.21-.86-.39-1.3h3.75s-.3 23.09-.38 25.67c-.16 5.38.4 17.11-3.74 21-4.25 3.98-13.78 4.21-18.02 0-4.01-3.98-4.3-12.91-4.51-18.36-.28-7.26.31-14.6.35-21.79 0-.97-.75-6.12-.36-6.35l3.16-.12c.49.12.54.46.62.88.75 4.08-.79 27.63.05 34.06.66 5.08 1.63 7.17 6.66 8.71 5.03 1.54 6.84.35 9.58-4.2zM222.14 61.86l-4.24.05c-1.71 4.09-3.97 7.94-5.86 11.95-1.22 2.59-2.37 6.57-3.86 8.89-.27.43-.38.88-1.02.88-1.14 0-1.94-2.48-2.28-2.99-2.04-3.08-3.65-6.47-5.18-9.81-1.34-2.92-2.58-5.88-3.66-8.9l-4.07-.06c.06 1.69 1.23 3.12 1.77 4.41 2.98 7.13 5.72 14.21 9.48 20.89.38.68 1.84 2.1 1.88 2.25v20.43l4.15-.6c-.42-5.93-1.25-12.4-.79-18.34.19-2.45 1.11-2.42 2.03-4.35l11.66-24.69zM187.09 1.89l9-.75c.83 7.65.21 14.3-8.01 16.93-.36.12-.36.55-.81-.05-.91-2.79.38-4.05 1.7-6.19l-1.33.1-.55-.48V1.89z" fill="#fff"/></svg>