<svg xmlns="http://www.w3.org/2000/svg" viewBox="0 0 200 135"><path d="M51.43 28.01l-2.02 1.59-.91 1.15c-.53.67-.95.89-1.7 1.24l-1.54.73c-2.69 1.27-6.71 1.72-9.41.82l-.52-.17c-.28-.09-.91-2.29.1-3.46 1.87-.52 3.73.04 4.12-1.04l1.33-.73c.94-.51 2.35-1.12 2.4-2.36l.13-3.09c.03-.71.2-1.29-.19-1.88-.32-.5-.34-1.09-.51-1.69-.29-1.04-1.48-1.72-2.17-2.49-.56-.63-1.08-1.19-1.72-1.73-.44-.22-1.52.06-2.06.06-.87 0-1.2.48-1.62 1.29l-1.31 2.53-1.18 2.01c-.54.92-.89 1.7-1.2 2.76-.14.47-.46 1-.52 1.54-.02.16-.14.51-.24.44-.55-.39-.63-2.46-1.17-3.7-.58-.59-.91-1.04-1.21-1.78l-1.76-2.02c-.4-.46-.42-1.34-1.09-1.6l-2.65-1.04-.92-.33c-.52-.49-1.24-.74-1.92-.38-.74.39-1.68.85-2.22 1.47l-1.17 1.35c-.13.15-.44.36-.62.39-.22.03-.48-.49-.44-.72.33-2.09.21-4.29.06-6.38l.3-1.14c-.07-.71-.06-1.41-.05-2.12 0-.16-.01-.32-.02-.47 0 .14 0 .02-.01-.05-.01-.06-.03-.12-.05-.18l-.01-.01s-.01-.02-.02-.02c0 0 0-.01-.01-.02 0 0-.08-.03-.06-.03-.05-.01-.11-.02-.12-.03h-.21c-.02 0-.16.02-.18.02-.16.03-.32.07-.48.12-.05.02-.11.04-.16.06-.13.05-.04.02-.01 0-.08.04-.15.07-.22.11-.07.04-.13.08-.19.12l-.02.02a.5.5 0 0 0-.08.07c-.07.07-.15.14-.21.21-.03.03-.05.06-.08.09v.02c-.09.13-.16.26-.24.4 0 .01-.01.02-.01.03l-.03.09c-.03.08-.05.16-.08.24-.04.15-.08.3-.1.46 0 .04-.01.09-.02.13v.03c0 .09-.02.17-.02.26-.01.15-.02.3-.02.46v1.06c0 .12-.03.22-.08.32-.02.3-.06.59-.11.89-.08.48.07 1.2.03 1.67-.13 1.43-.66 2.8-.53 4.2l.12 1.33c.15 1.58.13 3.04.07 4.6-.08 2.26.7 3.9.04 4.7-.79.95-2.26.96-3.28.6s-1.44-1.05-1.3-2.14l.24-1.91c.1-.79.07-1.53 0-2.34l-.18-1.95-.1-4.24c-.02-.95-.29-2.01-.03-2.91.2-.71.37-1.3.45-2.04.01-.11.04-.22.08-.33 0-.2.01-.4 0-.6 0-.08 0-.15-.02-.23 0-.03 0-.07-.01-.1v.07c.03-.05-.06-.29-.07-.35-.02-.06-.04-.12-.05-.18v-.02c-.03-.05-.05-.1-.08-.15l-.04-.06c-.02-.02-.05-.06-.07-.07l-.02-.02a.262.262 0 0 0-.09-.05c-.01 0-.03 0-.05-.01l-.11-.03h-.47c-.16.04-.32.07-.48.12-.03.01-.13.06-.13.05-.05.02-.1.05-.14.07-.08.04-.16.09-.23.14-.02.01-.09.07-.12.09-.03.02-.1.08-.12.1-.06.05-.12.11-.18.17-.06.06-.11.12-.17.18-.02.03-.04.05-.06.08-.09.12-.18.25-.25.39-.08.14-.15.28-.21.42v.01l-.03.09c-.03.08-.06.16-.08.24-.02.05-.04.1-.07.15-.15.8-.28 1.48-.49 2.29-.11.42-.67 1.07-.67 1.58l.05 6.03.19 2.85c.07 1.08.58 2.11.19 3.24-.58.22-1.34.34-1.95.19C1.5 27.6.2 28.4.03 29.46c1.55 1.75 4.26-.02 4.25 2.48l.66.66.09 2.76v1.83l-.13 4.53c-.02.76-.02 1.4 0 2.17l.12 2.96c.04.96.42 1.9.68 2.83l.97 3.6c.22.81.56 1.34 1.41 1.38.71.04 1.54-.52 1.45-1.47-.09-.96-.27-2.01-.52-2.98-.38-1.53-.34-3-.4-4.6l-.19-4.41-.16-2.49c-.09-1.38-.16-2.69-.02-4.08.05-.45-.31-1.43-.04-1.79.52-.69 1.23-.81 1.92-1 .94-.26 1.75-.46 2.76-.36.06 1.04 0 2 .14 2.89.27.72.6 1.38.71 2.14l.34 2.29c.04.25.51.61.74.67.93.26 1.08-1.27.86-3.01-.1-.77.33-1.61.35-2.38l.15-5.01c.04-1.3.1-2.47.11-3.83 0-.36.25-.98.49-1.2.8-.74 1.76.23 2.39-1.54.38-1.06 1.5-2.55 2.41-2.55h2.14c.93.58 1.45 1.56 1.22 2.67.73 1.05.91 2.38.63 3.61-.52 2.28-.28 4.98-.7 6.54-.19.72-.38 1.11.1 1.78-.05.55-.32 1.44-.33 2.04l-.11 7.05c-.04.12-.1.26-.16.42-.07 1-.43 1.92-.83 2.83-.25.57-.54 1.15-.75 1.75.21.59.4 1.17.4 1.91-.31.88-.04 1.84.89 2.24l1.34-1.34.51-2.59c.34-.45 1.47-.61 2.04-.59.83-.62.85-1.92 1.25-2.81.94-2.08.3-3.49.68-6.03l.64-4.27c.03-.19.29-.55.43-.62.48-.24.41 1.18 1.85 1.69l1.69.6c1.46.52 2.91.65 4.47.38l2.89-.49 1.4-.19 1.78-.95 1.48-.72 3.68-2.58c.56-.39 1.54-.63 1.79-1.33l.7-1.9c.17-.45-.79-1.39-1.24-1.03zm-15.61-6.17c.17-.86.01-2.01.9-2.56.26-.16.82.37.94.65.18.4.07.71.06 1.34-.02 1 1.33 1.94.97 2.93-.23.63-1.92.27-2.71-.19-.86-.5-.3-1.49-.16-2.17zM90.87 20.83c-1.07-3.45-3.9-3.23-2.01-5.28l1.38-1.5c.39-.42.91-1.29 1.14-1.77l.29-2.22-.47-2.64c.12-1.01-.62-1.24-1.09-1.83-.78-.98-1.74-2.05-2.75-2.86-.28-.27-.63-1.22-1.04-1.22l-1.63-.02L82.4.43c-.52-.06-1.09-.06-1.57 0-.08.01-.35.06-.49.08-.18.03-.35.07-.53.11-.38.08-.75.17-1.13.25-.05.01-.11.02-.16.02-1.04.46-2.32.51-2.89.63l-2.48.52c-1.56.33-1.26 1.78-2.43 2.49-.55-.68.61-2.26.07-3.49l-.11-.25c-.15-.09-.3-.17-.45-.25-.2-.11-.4-.25-.6-.36 0 0-.08-.04-.11-.06-.03 0-.11-.04-.12-.04l-.07-.02h-.18c-.04.01-.09.03-.13.04 0 0-.01 0-.02.01-.03.02-.07.04-.1.06 0 0-.06.04-.08.06-.03.02-.06.05-.07.06-.08.07-.16.15-.24.23-.07.07-.14.14-.2.22-.04.04-.08.08-.12.13 0 0-.06.07-.07.09-.02.03-.06.1-.06.09 0 .01-.02.03-.02.03 0 .02-.01.05-.02.07v.1c.02.2-.07.38-.22.51-.14.39-.37.75-.67 1.11l-.91 3.79c-.14.58-.26 1.14-.49 1.66l-.56 1.27c-.48 1.1-1.35 2.17-1.53 3.35l-.83 5.27c-.15.96-.57 1.9-.43 2.93l.61 4.17c1.09 1.11.76 2.66 2.22 5.05.41.67.42 1.45.65 2.24l.5 1.73.63 1.53c.13.32.63.68.91.62.32-.08.99-.53 1-.9l.05-3.02c0-.16.49-.4.58-.29l.49.54 1.68 1.83c.12.62.28 1.29.78 1.68l1.41 1.1c.86.66 2.87 1.73 3.1 1.76.45.06.48-.67 2.01-.76l2.17-.13c.52-.03.85-.19 1.35-.41.73-.31 2 .08 2.72-.65l1.47-1.5c.75-.76 1.47-1.06 2.6-1.25.55-.09 1.1-1.16 1.13-1.7.07-1.11.68-1.42 1.27-2.2 1.51-2 2.03-5.25.91-7.3-.49-.89-1.49-1.5-1.78-2.45zm-25.86.16l-.46 1.96c-1.14-.83-1.16-2.14-.89-3.44l.52-2.44c.16-.73.12-1.33.74-1.9.45 1.98.51 4.06.09 5.83zM84.94 2.52c.65 1.16 1.46.8 1.9 1.54.6 1.02 1.44 1.45 2.53 1.77l.59 2.77c.21.97.15 2.36-.48 3.05L87.5 13.8l-1.07 1.04c-.53-.6-.31-1.11.06-1.51.41-.44.24-.9.23-1.46l-.06-3.34c-.01-.8.06-1.92-.41-2.58-.32-.45-1.14-.79-1.3-1.3l-.56-1.85c-.04-.13.49-.39.55-.28zm2.21 16.34c-.37 0-.75-.13-.75-.29 0-.21.28-.57.51-.59.26-.02.56.1.66.24.1.14-.23.64-.43.64zM82.48 1.97c.19.08.51.36.71.58-.56.4-1.32.23-1.48-.22.03-.2.58-.44.77-.36zm2.57 26.16l-1.32 3c-.4.9-1.22 1.78-2.02 2.38-.91.05-1.96.06-2.78-.08l-2.23-.37c-.76-.13-1.78-.54-2.6-.85-1.1-.41-1.98-1.44-2.93-2.14-.38-.28-.6-.59-.76-1.06-1.3-.97-2.02-2.57-1.68-4.19l-.45-3.81-.02-5c0-.63.46-1.43.57-2 .23-1.16.43-2.35 1.31-3.21 1.37-1.33.8-2.08 2.3-2.71l1.44-.61c.39-1.03 1.19-1.69 2.24-1.88.38-.07.88-.64 1.21-.89.84-.63 2.33-.89 3.18-.38 1.49.91 2.41 2.16 3.01 3.66l.85 2.14c.31.78.6 1.53-.09 2.3l-1.16 1.28c-.74.81-3.69 1.1-5.34.93l-1.98-.2c-.63-.06-1.64.11-2.18-.1l-1.92-.75-.97.47c-.27.84-.13 1.75.65 2.42.5.43 1.7.36 2.43.44l2.91.3 1.32.98c.08.75.3 1.36.79 1.77 1.4 1.18 3.07-1.1 5.38.55 1.35.14 2.48.39 3.73 1.12l-.76 2.01-.99 2.45-1.17 2.01zm4.97.23c-.59.95-1.54 1.69-1.82 2.78-.15.58-.33 1.04-.78 1.29-.41.23-1.33.25-1.59-.3-.21-.46.55-2.22 1.11-3.27l1.57-2.98c.4-.75.48-1.65 1.52-1.97l.5 1.15c.08 1.04.04 2.43-.5 3.3zM133.89 48.27l-.92.77c-.61.09-1.08-.62-1.1-1.25l-.11-3.28c-.87.79-1.21 1.54-2.28 1.36-.46-.08-.1-.75-.07-1.1l.19-2.17.54-2.31.7-4.6.13-1.47.17-2.82c.1-1.63-.3-2.96-.93-4.42l-.75-1.75-1.65-4.04c-.17-.42-.78-.64-1.25-.64-.48-.55-1.09-.78-1.83-.66-.77-.61-1.61-.92-2.58-.64l-.76 1.45c-.36.69-1.37 1.29-1.8 1.98s-.76 1.41-1.32 1.89c-1.31 1.13-2 2.71-2.12 4.42-.67 1.07-.88 2.08-.85 3.41h-2.03c-.56-.01-.78-.71-.81-1.16l-.18-2.53c-.14-1.95-.2-3.85.05-5.83.2-1.57.21-3.02.02-4.59-.31-2.6-.37-5.12.33-7.63.15-.52 1.07-.79 1.55-.72l1.86.27c.69.1 1.23.39 1.83.64l1.39.57c-.65.81-1.2.37-1.7 1.39-.47.96-.75 1.75-.73 2.88.74-.22 1.06-.59 1.43-1.13l1.28-1.9-.17-.66c-.04-.16.47-.26.64-.2.53.2 1.01-.12 1.53-.13l3.44-.08c.91-.02 1.39.72 2.05 1.15l1.51.95c.59.38 1 .72 1.37 1.34l.72 1.23.96 1.62c.43.72.7 1.32 1.33 1.92l.09 1.47 1.03 3.61c.36 1.26.41 2.55.41 3.88v2.86l-.13 4.91c-.02.77.07 1.36.03 2.17l-.1 2.06c-.05.94.06 1.63.02 2.54l-.09 2.08-.36 2.91zm-10.77-33.28c.36.04.95-.25 1.08-.53.12-.25-.38-.85-.67-.81-1.08.14-1.85.31-2.63 1.11l2.23.23zm8.14 9.19c-.07-1.01-.55-1.43-.71-2.88-.02-.14-.32-.45-.37-.32-.04.09-.17.44-.15.54l.19 1.71c.05.46.2 1.23 1.04.96zM96.18 24.8c.07-.28.85-.4 1.12-.26s.56.46.7.86l.69 1.98c.26.75 1.19 1.51 1.76 2.15l1.02-1.06c.74-.77 1.27-1.84 1.78-2.79l.5-.93c.21-.39.11-1.36.04-1.74l-2.76-.59-.54-1.13-2.74-1.35c-.79-.39-1.48-.85-2.36-1.01-.63-.12-1.04-.88-.6-1.46l2.31-.29c.66-.83-.61-2-.31-4.77.1-.97 1.07-1.54 1.62-2.2.79-.94 1.36-1.8 2.63-2.2 1.43-.45 1.31-1.78 3.15-1.59l2.12.22c.69.07 1.54.21 2.24.43.55.18 1.31 1.24 1.41 1.83l.33 2.12c.15.99.2 2.15.15 3.13-.06 1.17-.64 2.42-1.02 3.5l-1.22 3.56-.85 1.98c-.33.76-.51 1.75-.89 2.49l-1.01 1.97c-.46.91-1.04 1.43-1.43 2.4-.35.87-1.32 1.69-1.75 2.56-.68 1.38-1.9 1.88-3.45 1.36-.35-.12-.45-.84-.66-1.19-.99-1.66-1.6-3.29-1.89-5.22-.13-.89-.38-1.71-.1-2.78zm7.27-4.97c.19.26.74.5.99.47 1.17-.11 2.08-2.99 1.81-4.25l-.39-1.82c-.14-.64-1.12-2.68-1.93-2.71-.5-.02-1.01.2-1.32.59-1.22 1.55-2.63 4.49-1.72 4.98.58.31 1.58.14 1.72-.12.09-.16.12-.49.16-.85s.76-.84 1.19-.58c.37.23.27 1.11-.06 1.39-.85.72-1.19 1.91-.45 2.9zM190.14 30.58l-.71 1.06c-.23.35-.48 1.04-.8 1.26-1.19.8-1.21 1.9-1.44 3.13-.12.64-.19 1.18-.19 1.86 0 .9-.21 1.85-.42 2.78a5.263 5.263 0 0 0 3.99 2.7c.91.65 1.93.81 3 .55.8-.04 1.3-.21 2.17-.73.41.45.66 1.35.62 2.05l-.13 2.6c-.03.56-.13.99.34 1.33.42.3 1.03.15 1.43-.3.66-.74-.21-1.63.78-2.1.26-.42.8-1.19.82-1.74l.07-2.66c.11-.38.37-1.05.32-1.39-.8-.47-1.46-1.03-1.56-1.9l-.28-2.37c-.11-.91-.41-1.37-.3-2.31l.33-2.92c.09-.76-.13-1.14-.31-1.9-.27-1.11-.1-2.58-.08-3.76l.02-1.47.07-1.05c.08-1.24.1-2.53.61-3.65l.1-.11c.07-.84.21-1.68.22-2.52.02-1.07 0-2.18-.21-3.23-.09-.46-.2-.89-.41-1.27-.08-.14-.13-.21-.23-.25-.1-.05-.33-.1-.49-.11-.51-.04-1.09.02-1.56.23-.21.1-.25.16-.39.39s-.27.48-.38.73c-.38.88-.65 1.87-.74 2.85.37 1.04.23 2.45-.09 3.53.58 1.32-.31 1.82-.75 3.9l-.49 2.33c-.08.36-.28 1.1-.44 1.43l-2.49 3.03zm3.73.45c.49.61.71 1.37.6 2.1-.14 1-.05 1.92.04 2.92l.17 1.97.11 2.62-.97 1.02c-1.16.21-2.35-.03-2.88-1.11l-1.23-2.48c-.17-.44-.26-1.49-.04-1.94l1.58-3.19c.51-1.04 1.47-1.63 2.62-1.91zM162.38 29.44l-.16-1.92-.47-2.14c-.24-1.1-.5-2.31-1.7-2.83-.16 1.27-.74 2.21-1.21 3.28-.58 1.32-1.6 2.51-3.27 2.23-1.38.27-2.73-.39-3.53-1.57-1.32-.51-2.12-1.39-2.95-2.59-.66-4.5 2.03-5.92 2.91-7.68.72-1.44 1.38-2.72 2.72-3.74l.46-1.13c.79-.38 1.65-.78 2.54-.96l3.81-.75 1.04 1.2c.08.61.24 1.43.42 1.98-.4.72-.68 1.41-.19 2.27l.52 1.92 1.61 4.42c.26.71.29 1.35.09 2.14-.09.35.22 1.03.23 1.39l.15 4.12c.05 1.29.32 2.57.9 3.69l.99 1.91c.25.49.21 1.36.13 2.03l-1.94.7-2.41-3.54-.08-2.18-.61-2.25zm-5.3-5.48c.2-.2-.08-.87.02-1.14.26-.7.66-1.58.7-2.32l.11-2.32c.06-1.22.21-2.18.99-3.12.52-.63.69-1.81.2-2.57-.57-.08-1.24.6-1.51 1.08l-.67.42-1.16.84-1.9 1.8c-.44 1.76-.86 3.59-.68 5.37.31.57.56 1.14.77 1.76.27.81 2.42.9 3.12.2zM181.73 36.22c.48-1.04.8-2.43.87-3.49.05-.79-.09-1.35.16-2.09.33-1 .01-2.4-.64-3.18l-1.33-1.6-1.61-1.51-1.14-.98c-.9-.27-1.57.59-1.69 1.38-.63.6-1.09 1.22-1.35 2.01-1.95 2.38-.28 4.77-1.15 5.62-.26.26-.99.45-1.42.57-.81-.34-1.16-1.02-1.2-1.88-1.61-1.36-1.23-2.83-2.02-4.33l-.55-1.03-.74-4.06-.18-3.2-.09-4.57c0-.49.63-1.06 1.01-1.41l.09-1.69c.56-.76 2.03-.85 2.67-.07l.35 3.65c.08.78.26 1.48.84 1.99.74.66.87 1.47.51 2.41l.23 1.45c.52.62.6 1.29.29 1.99.63.68.66-1.39 2.98-1.8 1.96-.35 3.95-.53 5.8.34l.37 2.57c.6.62.87 1.26 1.04 2.04 1.87 2.42 2.93 4.19 1.67 7.13-.37.86-.39 1.43-.58 2.35l-.54 2.54c-.3 1.4-1.15 1.47-2.02 2.46-.29.33-.98.7-1.32.39-.67-.61-.52-1.44-.21-2.11l.88-1.9zM162.6 111.01c-1.28-1.66.89-2.22-1.3-3.31-.2-.1-.58-.44-.73-.34s-.42.37-.57.55l-1.25 1.46c-1.37 1.61-.57 2.41-2.19 3.93l-2.22 2.08-1.76 2.08-1.08.99c-.26.24-.89.5-1.26.65-1.31-.42-2.05-1.42-2.55-2.64-.62-1.51-2.3-2.27-3.18-3.81-1.74-3.03-.75-5.91.73-8.91.28-.56.26-1.4.93-1.67l2.2-.87c1.08-.43 1.73-.72 2.86-.52 1.78.31 3.59.53 5.31 1.09l1.63.53c.68.22 1.79.63 2.4.18l.56-1.88.84-3.24.69-3.82c.16-.88.03-1.99 1-2.52.3-.16.89.03 1.12.26.34.34.4.84.35 1.36l-.34 3.7c-.03.28.07.8.26.95.6.47 2.05-1.04 2.58-.46.15.16.09.58.03.89-.24 1.18-.3 3.18.01 4.26.12.42-.16 1.21.78 1.23l.63-1.73c.14-.38.47-1.01.81-1.36l.75-.75c.34-2.99 2.49-5.83 2.81-6.6.3-.72 1.4-1.06 1.8-.54.49 1.31-.56 2.39-.95 3.49s-.06 4.74-.63 5.78l-1.02 1.25c-.2.63-.4 1.12-.78 1.64l-1.64 2.22c-2.09 2.84-4.05 1.73-4.76 2.09-.45.23-.06 1.26-.52 1.71-.22.21-.75.24-1.12.29l-1.23.31zm-6.81-4.91l.13-1.6c-.95-.71-2.36-1.28-3.51-1.35-.32-.02-.62.75-.55 1.04.23.98 1.75.62 3.09 1.96.15.15.83.16.84-.05zm-5.96-.84c.61-.36.98-1.12.89-1.84-.46-.13-1.02.04-1.44.29-.52.3-.67.63-.59 1.19.07.45.6.69 1.15.36zm.34 8.69l1.39.03c.43-.84.88-1.31 1.57-1.84.51-.39.61-.93.74-1.54.18-.81.6-1.9.2-2.64-.74-1.39-2.18-1.61-3.43-1.01-.67.32-1.45.51-1.72 1.32-.17.53-.04 1.32 0 1.91.07 1.08.36 1.93 1.22 2.6l.03 1.18zM136.85 114.91l-.48-2.54-.35-2.11c-.61-1.1-2.02-.8-2.83-.23l-1.92 1.36-1.19.8c-.66.44-1.05.69-1.24 1.52-.08.36-.5 1.02-.47 1.41l.54 7.16-.57 1.01-1.14-1.02c.09-1.14-.18-1.9-.6-2.88-.15-.34-.27-.98-.87-.9-.3.25-.56 1.09-.52 1.54l.22 2.19c.11 1.07.39 2.1.22 3.24-.94-.11-1.27-1-1.38-1.79l-.36-2.68-.22-1.85-.41-1.82-.68-7.81-.37-2.1c-.1-.56-.17-.97-.22-1.52l-.29-3.44-1.08-4.88-.4-1.16-.33-2.95c-.01-.13.15-.45.26-.53.13-.1.6.12.66.29l.66 1.93.64 1.75c.04.12.27.32.38.38.44.24-.07-1.26.51-1.69.38-.28 1.1-.34 1.27.03-.53 1.76-.46 4.89-.06 6.58l.4 1.65c.18.73.34 1.24.88 1.85l-.06 1.41c.99 1.61.76 3.23 1.86 3.39l1.92-1.38 1.27-.92 1.84-1.06c1.11-.64 2.69-.34 4.01-.28 2.25.11 3.2 2.95 3.62 5.22l.75 4 .39 2.83c.17 1.2-1.08 2.61-2.3 2.65l-.94-.91-.31-2.49-.69-3.26zm-11.79-1.15c.16-1.34-.12-3.66-.76-4.62-.9 3.15.65 5.53.76 4.62zM108.67 132.52l-.45 1.52c-1.11.86-3.36 1.27-3.83.54-.17-.26-.13-.55.12-1.01l-1.87-1.4-1.24-.78-1.27-.74c-.47-.27-.89-1.41-1.04-1.94.35-.64 1.17-.42 1.73-.19l1.46.6c.96.39 1.56.8 2.62.68 1.36-.14 2.74-.26 3.99-.77 1.35-.55 1.96-1.83 1.75-3.21l-.34-2.17-.75-3.61-.36-1.9c-.15-.8-.53-1.35-.88-2.12l-.8-1.78c-.26-.58-.61-1-.78-1.61l-.8-2.87c-.49-1.75-.31-3.57-.23-5.36.02-.51-.06-1.21.14-1.58l1.22-2.25c.31-.57.99-1.03 1.62-.96l1.45.16 1.65.25 1.58.22c1.01.14 1.23 1.53 1.55 2.41l.38 1.03c.09.25-.3.91-.61.98-.6.14-.99.71-1.09 1.4l-.07.48c-.02.13-.55.24-.62.13-.72-1.16-.15-2.57-.94-3.58-2.55.06-4.3 2.32-3.97 4.84l.05 1.84c.02.77.35 1.85.7 2.49.25.47.5.73.49 1.25 0 .66.33 1 .52 1.59l.69 2.12c.54 1.64 2.23 2.6 2.27 4.41l.52.99.28 3.16c.1 1.12-.19 2.18-1.01 2.91l-1.7 1.51-2.13 2.34zm3.3-8.92c-.08-.15-.56-.23-.62-.12-.23.7-.16 1.91.46 2.53.59-.64.49-1.81.16-2.41zm-4.57 9.19c.14-.67.24-.89.38-1.21.08-.19-.52-.39-.75-.38l-2.8.12c-.05.33-.03.88.14 1.03l1.17 1.03c.62.02 1.59-.22 1.86-.58zM149.13 69.26c-.69-.14-1.26-1.46-2.02-1.31-.22.04-.42.43-.56.69l-.91 1.74c-.6 1.14-1.44 2.18-2.42 3.06l-2.56.23c-1.8 1.89-3.9.97-3.57 2.89.22 1.25.06 2.24-.18 3.4L136.5 82c-.22 1.1-.43 2.05-.28 3.21.13 1.08.27 2.21-.29 3.21-.68.34-1.77.36-2.55.06-.32-.56-.35-1.39-.46-2.03-.2-1.16-.36-2.17-.22-3.36.08-.67-.33-1.46-.53-2.02-.04-1.38-.15-2.69-.41-4.09l-.36-2c-.31-1.73-.54-3.36-.33-5.07-.26-1.07-.51-2-1.02-2.89-.03-.95-.34-1.83-.84-2.61l-.56-2.31c-.04-.18-.1-.64-.01-.8s.49-.21.74-.32c.57-.39.39-1.22.83-1.84.08-.11.42.24.43.4l.25 3.24c.03.36.65.99.79 1.13.16-.21.61-.5.73-.37.47.48.23 1.29.05 1.91-.17.58.49 1.4.67 1.91l.51 1.45.1 3.01c.02.22.8.05.87-.17l1.7-5.1 1.53-1.79c1.53-.71 3.22-1 4.87-.87l3.39 1.55.24.2c.08.07.39.04.38-.06-.07-.85-1.04-.96-1.38-2.5-.63-.52-1.07-1.03-1.25-1.81l-1.85-3.52c-.29-.55-1.2-.92-1.72-1.2-.03-.11-.03-.45.07-.45h.5c2.48-.01-.74-2.37.34-3.4.68-.64 1.47.47 1.8 1.05l1.24 2.15c.86 1.49 1.61 2.99 2.7 4.33.07 1.01.64 1.64 1.49 2.06l1.66 2.2.58 1.28.81 1.64c.22.45.47.88.85 1.23.6 1.2.56 2.65 2.24 2.85l.33-2.18.33-1.86.18-2.79.19-1.88c.11-1.16.3-2.35.75-3.42.51-1.2.84-2.42.27-3.66l-.17-.38c-.04-.09.27-.35.35-.33.32.19.85.79.97 1.14l.83 2.46c.37 1.1.25 2.31-.32 3.2l.19 1.86c-1.36.46-.68 1.3-1.21 3.22-.1.35-.14 1-.15 1.39l-.11 4.72c-.02.93-.11 1.76-.41 2.69l-.12 1.46-.49 2.25c-.17.78-1.04.6-1.37 2.08-.12.51-.34 1.02-.62 1.47l-1.58 2.56c-.42.69-.54 1.7-1.12 2.32-.54.59-2.64.65-3.3-.3-.3-.44.19-1 .44-1.39l2.06-3.23c.12-1.06.68-1.92 1.32-2.74l1.44-3.55c.39-.95-.04-1.54-.49-2.31l-1.58-2.63c-.33-.55-1.15-.54-1.18-1.42-.02-.55-.51-.81-1.1-.93zm-9.17 2.04c.92-.75 2.35.78 2.73-.15.21-.52-.79-.59-.87-1.03s.65-.54 1.2-1.73c.37-.8.14-1.85-.84-2.04s-1.74.56-2.43 1.06c-1.57 1.12-2.94 3.6-2.37 4.91.18.42.99.29 1.3.04l1.29-1.06zM114.26 82.14c-.39.21-.92-1.57-.97-3.17-.06-1.95-.73-2.75-.97-2.45l-.27.33-.33.41c-.07.09-.43-.2-.55-.27-.81.05-1.05 1.21-1.43 1.75l-1.3 1.87-2.57 3.61c-.22.31-1.09.33-1.47.14-.33-.17-.77-.72-.83-1.17l-.31-2.61-.1-1.37.02-1.8c-.4-2.44-.59-4.75-.69-7.21l-.12-2.92 1.67-1.92c.89.57-.14 2.76.8 5.02 1.27-.26.75-1.97 2.97-1.85 1.25.06 3.1-.99 3.6-2.06.28-.59.61-1.09 1.42-1.23l.93 1.84c.74-.26 1.49-.42 2.18-.51.93-.13 1.23-1.28 1.58-2.02.39-.83 1.36-1.47 2.25-1.62.99-.16 1.88.04 2.73.25.8.2.93.39 1.17 1.14l.58 1.84c.53.49 1.59 1 1.88 1.67l.96 2.23.51 1.71.3 1.82-.02 1.96.15 2.19.07 2.03c.01.38-.09 1-.35 1.16-.33.22-.87.23-1.26.15-1.57-.33-2.68-1.43-2.59-3.11l-1.61-.03c-1.12-.84-1.27-2.28-.8-3.57l.68-1.86-.67-1.97c-.13-.39-.36-.85-.67-1.01-.84.29-1.36.92-1.21 1.83.08.47-.17 1.11-.33 1.58-.12.35.3 1.26-.25 1.49l-3.41 1.4 1.66 3.41c.32.65-.53 1.34-1.1 1.49-1.24.34-1.32 1.07-1.95 1.41zm4.72-9.23c-.39-.39-.75-.69-1.18-.78-.22-.04-.68.19-.8.38s.02.79.2.9l1.79-.49zm-9.99 3.92c.72-.64.89-1.69.62-2.43-.91.11-1.39.96-1.52 1.77l.9.66zm15.38-2.79c-.06-.13-.6-.14-.63 0l-.14.65c-.03.15.02.52.12.63s.38.15.52.09c.33-.14.42-.76.13-1.38zM56.03 88.75c-.83-.62-1.26-1.21-1.2-2.17-.51-.85-.83-1.95-.58-2.92.69-.47 1.16.55 1.59.39.13-.05.27-.47.2-.59-.57-.87-.74-2.11-.46-2.59.1-.17.55-.28.75-.23.88 1.36-.58 3.37.82 4.45 2.27.48 1.89 2.38 2.75 2.45.93.08.56-1.2 1.76-.61.69.35.98-.4 1.28-.75.55-.64.77-1.13.9-1.94.7-4.57-1.16-6.97-1.78-5.28l-.16.45c-.03.09-.42.05-.46-.04l-.94-2.09-1.13-1.86-1.54-.07a6.212 6.212 0 0 1-1.34-2.69c.41-.76.34-1.4.14-2.26l-.44-.5c-.1-.11-.35.23-.45.35l-.48.48c-.32.32-.99-1.38-2.18-2.23l-.32-2.48c-.14-1.09-.92-1.71-1.96-1.74-.51-.02-.78-.48-.94-.91l-.63-1.61c-.24-.6-.53-1.11-1.02-1.53-.79-.69-1.12-1.73-1.18-2.78-.93-1.31-1.99-.59-1.9-2.28l.09-1.72c.06-1.2.28-1.71 1.14-2.41.56-.46.73-1.65 1.09-2.22l1.46-2.3c.35-.55 1.13-1.37 1.69-1.7.75-.45 1.2-.76 1.8-1.31l1.25-1.17 1.75-.58 2.27 1.09c.64.31 1.1 1.35 1.79 1.62.6.24 1.16.41 1.51 1.02l2.19 3.78.28 1.83.18 2.46c.02.31-1 .23-1.2-.02-.99.69.22 1.6-.4 2.5s-.29 1.91-.9 2.33c-.19.13-.72.12-1.08.08-.15-.72-.11-1.33.11-2-.2-.85-.27-1.72-.18-2.62-.25-1.7.38-2.91.05-3.54-.17-.33-.97.27-1.7-.47-1.02-1.05-1.73-.51-2.66-1.5l-1.39-.29c-.45-.42-.81-.64-1.38-.58-1.32.15-1.24 2.67-.8 4.53-.14.21-.4.71-.39.94l.19 2.85c.04.58.39 1.15.54 1.64l.85 2.89c.27.91.6 2.01 1.25 2.71.51.55.86.93 1.18 1.6.59 1.23 2.63 1.99 3.32 2.74l1.07 1.17c.52 1.34 1.16 2.57 2.47 3.33.18.88.38 1.74.8 2.46l1.15 1.97c.32.56.59.91.62 1.68 0 .26.25.66.39.95.48 1.04.52 2.28.63 3.45.15 1.53-.32 2.95-1.25 4.1-.27 1.03-.72 1.86-1.9 2.13-.76.61-1.79.87-2.79.55-1.38.39-2.9.29-4.17-.37zM100.36 72.14l.34 2.23c.12.76-.35 1.15-.7 1.62-.46.6-.54.93-1.46 1.02l-2.17.58c-.8-.24-.4-1.27-.47-1.74l-.28-1.83c-.2-.34-1.15-.08-1.44.23-.84.91-2.11 1.31-3.27.95l-1.5-.46c-.54-.17-1.56.02-2.2.04l-1.26.03c-.7-.38-1.27-.6-2.06-.79-.96-.34-1.99-.98-2.33-1.92l-.79-2.15c-.54-1.49-.25-2.86-1.05-4.76-.35-.81-.11-1.99-.17-2.85-.09-1.32.3-2.08 1.08-3.07l.81-1.04c1.04.23 1.11 1.13 1.22 1.99l.29 2.33.38 1.89.51 1.87c-.02.96.01 1.66.36 2.52l.71 1.73c.35.87.83 1.65 1.52 2.03.96.52 1.83.25 2.8.1 1.4-.22 2.81-.12 4.07-.96.43-.29.65-1.23.81-1.73l.74-2.23.44-1.12c.47-.5.68-.98.77-1.72 1.01-1.8 1.83-1.29 2.37-1.77.19-.17.42-.39.57-.46.18-.08.54.2.72.33l.94.69c-.16.78-.22 1.35-.23 2.08l-.05 2.84v3.52zm-17.64-4.57l-.45-2.13-.66-3.46c-.09-.46.36-1.09-.43-1.4-.19 1.59.04 3.02.2 4.6l.34 3.49c.06.65.49 1.3 1.23 1.22-.01-.77-.07-1.59-.23-2.32zM72.55 84.28l-.67-.26c-.16-.06-.21-.51-.29-.66-.7-1.21-.69-2.81-.32-3.08.28-.2.81-.61.66-.82-.66-.94-.68-1.87-.8-2.88l-.3-2.49c-.27-1.05-.35-2.08-.16-3.17-.52-1.11-1.84-1.55-2.9-.87l-.57.05c-.13.01-.21-.48-.19-.61.25-1.76 2.36-1.19 3.09-1.97.18-.2-.06-.84-.06-1.13l.07-3.76-.26-3.61-.65-3.96-.03-2.16c0-.21.12-.66.26-.81.16-.18.64-.22 1-.27l1.97-.29c.22-.02.56.51.58.76l.57 8.18v2.5c0 .7-.26 1.49-.1 2.17s.19 1.26.14 2c.2.22.84.37 1.22.33l2.01-.21c.12-.01.44.29.46.41s-.15.44-.27.49l-2.43.98c-.61.25-.8.58-.81 1.2l-.04 3.17.1 2.81.15 2.07c.05.68.22 1.38 0 2.09-.28.87-.62 1.8-.5 2.68.04.31.12.69.03.88-.1.21-.69.31-.94.21zm-.78-24.17l-.47.06c-.13.02-.23 1.24.32 1.49.6-.22.25-1.56.15-1.55z" fill="#fff"/></svg>