<svg xmlns="http://www.w3.org/2000/svg" width="350" height="51" viewBox="0 0 350 51"><path d="M8.27 29.18a7.31 7.31 0 0 0-6.35 6.09l-.25 2a4.41 4.41 0 0 0 5 5.11l18-1.56a1.46 1.46 0 0 1 1.14 1.91 2.5 2.5 0 0 1-2.14 1.76l-23.12 2L0 50.91l34.86-3a7.32 7.32 0 0 0 6.35-6.09l.24-2a4.4 4.4 0 0 0-5-5.1l-18 1.56a1.45 1.45 0 0 1-1.15-1.91 2.5 2.5 0 0 1 2.15-1.76l23.11-2 .54-4.38zM46.34 31l-1.47 11.9a4 4 0 0 0 4.56 4.68l32.92-2.85.52-4.23-22.35 1.9a1.83 1.83 0 0 1-2.06-2.12l1.11-9.07a3 3 0 0 1 2.63-2.52l22.35-1.94.52-4.23-32.92 2.86A6.7 6.7 0 0 0 46.34 31zM178.09 19.53l-1.46 11.91a4 4 0 0 0 4.55 4.68l32.92-2.86.52-4.22L192.27 31a1.83 1.83 0 0 1-2.06-2.12l1.11-9.07a3 3 0 0 1 2.68-2.54l22.36-1.94.52-4.23L183.9 14a6.7 6.7 0 0 0-5.81 5.53zM267.16 11.81l-1.46 11.9a4.05 4.05 0 0 0 4.56 4.69l32.92-2.86.52-4.23-22.35 1.94a1.83 1.83 0 0 1-2.06-2.12l.17-2.05 24.7-2.14.52-4.23L280 14.85l.42-2.78A3 3 0 0 1 283 9.54l22.38-1.94.52-4.23L273 6.23a6.72 6.72 0 0 0-5.84 5.58zM124.23 19.13L94.56 21.7a6.72 6.72 0 0 0-5.82 5.58l-1.46 11.91a4 4 0 0 0 4.56 4.68l29.67-2.58a6.71 6.71 0 0 0 5.82-5.58l1.46-11.9a4 4 0 0 0-4.56-4.68zm-10.14 16.33a3 3 0 0 1-2.63 2.54l-8.53.74a1.82 1.82 0 0 1-2.06-2.11l1.13-9.09a3 3 0 0 1 2.61-2.54l8.53-.74a1.83 1.83 0 0 1 2.06 2.12zM261.39 7.23l-12.63 1.1L247.45 19 235 20.07l1.31-10.66-12.63 1.1a2.15 2.15 0 0 0-1.87 1.79l-1.88 15.27a4.13 4.13 0 0 0 4.66 4.79l7-.61a2.64 2.64 0 0 0 2.3-2.2l.89-7.21 12.46-1.08-.88 7.21a1.59 1.59 0 0 0 1.8 1.85l6.95-.61a6.84 6.84 0 0 0 6-5.7l1.87-15.27a1.3 1.3 0 0 0-1.59-1.51zM167.4 15.39L148.68 17 136 18.1a2.15 2.15 0 0 0-1.87 1.8l-1.88 15.27A4.13 4.13 0 0 0 137 40l7-.6a2.64 2.64 0 0 0 2.29-2.2l.64-5.21 7.86-.68a4.12 4.12 0 0 1 4.52 4.91l-.2 1.67 12.74-1.11.39-3.19a6.54 6.54 0 0 0-1.25-4.92 6.84 6.84 0 0 0 2.38-4.27l.28-2.28c.4-4.07-2.37-7.07-6.25-6.73zm-10.84 4.33a2.76 2.76 0 0 1 3 3.28 4.57 4.57 0 0 1-3.91 3.88l-8.3.72.88-7.16zM349.66 9.05l.28-2.28c.5-4-2.28-7-6.16-6.68l-18.72 1.62-12.63 1.1a2.16 2.16 0 0 0-1.88 1.8l-1.87 15.27a4.12 4.12 0 0 0 4.65 4.78l7-.6a2.65 2.65 0 0 0 2.3-2.21l.64-5.21 7.85-.68a4.14 4.14 0 0 1 4.53 4.91l-.21 1.67 12.74-1.1.39-3.2a6.48 6.48 0 0 0-1.25-4.91 6.82 6.82 0 0 0 2.34-4.28zM333 4.43a2.76 2.76 0 0 1 3 3.28 4.58 4.58 0 0 1-3.9 3.88l-8.31.72.88-7.16z" fill="#fff"/></svg>