<svg xmlns="http://www.w3.org/2000/svg" viewBox="0 0 280 58"><path d="M59.1 45.14c-.06-.18-.17-.44-.27-.15-.08-.11.09-.11-.12-.23-.23-.33-1.09-.39-1.35-.35-.08.02-.56-.18-.54-.08.04.12-.08.04-.12-.04-.02-.19-.34.06-.31-.08l-.04.04c-.27.42-1.07.31-1.51.42-.58-.12-1.32.17-1.81-.04-.55-.08-1.3-.19-1.7.15-.16-.76-.03.16-.46-.23-.13-.26-.18.31-.23.12-.04-.34-.18-.03-.31.08-.02-.24-.22-.09-.27-.19-.05-.28-.08.07-.19-.08 0-.04-.04-.04-.04.04-.25-.05-.58-.04-.77 0-.26-.11.02.25-.31.15-.27-.39-1.08-.17-1.39-.54-.07-.07-.03.46-.23.31.02.32.17 1.12.62 1.24.59.65 1.93.34 2.39 1.04.48 1.1.77 2.99 1.16 3.98.27-.02.1.43.08.54h.04c.07 0 .05.14 0 .08-.24.21.21.72-.04.89-.12-.09-.07 1.11.12 1 .11.12-.25.17-.08.46.38.88-1.26-.06-1.08.27-.18-.19-.43-.4-.66-.23-.09 0 .03-.23-.12-.19-.11.05-.07-.2-.27-.08-.2.2-.33-.24-.39-.31-.14-.13-.52.04-.58-.19 0-.04-.04-.04-.08-.04-.14.66-.17-.14-.35-.27-.16-.16-1.08-.15-.66-.42.17-.16-.23-.05-.19-.27a1.27 1.27 0 0 0-.35-.42c-.05.06-.05-.13-.15-.15-.09-.17-.16.12-.23-.15-.04-.15-.04-.19-.12-.15-.09-.08-.05-.33-.19-.42-.33-.27-.55-1.14-.97-1.12.02-.5.01-1.13-.35-1-.06-.12.34-.26.12-.31-.18-.14.17-.32-.04-.42-.12.03-.03-.16-.12-.15-.17.11.22-.54-.08-.46-.21-.06.28-.69-.19-.66-.15 0-.19-.04-.12-.12.15-.16.03-.46.04-.62-.01-.17-.29.16-.23-.19-.04-.22.17-.03.08-.23-.44.09-.31-.4.12-.27-.32-.12.03-.72-.35-.85-.06-.16-.06.14-.12.04-.03-.06-.25-.14-.27-.15-.12-.78.39.35.5-.89-.08-.29-.36-.08-.23-.42-.04-.11.17-.2.04-.23-.18.12.22-.45.04-.42-.17 0 .2-.77-.08-.66-.17.12-.05-.32 0-.15.03.08.12-.09 0-.23.36-.21.17-1.54.39-1.66.08-.07.35-.34.19-.5-.05-.16.02-.61.19-.5.13-.26.37-.59.27-1.04q-.04-.15.08-.15c.21.07-.1-.29.08-.23.2-.12-.29-.11-.08-.27.04.04.12-.08.08-.08-.04-.24.78-.25.39-.46-.2-.4.45-.01.42-.19.41-.09-.02-.33.35-.39.19-.04.27-.19.42-.31.03-.11.11.16.19 0 .05-.09.2.13.19.19-.13.1.32.08.27.04l.04-.04c.08.11.19-.2.35-.19.17.04.44.32.66.27.1-.01.33.2.42.04q.08-.08.08 0c-.03.13.34.18.31.08.03.12.4.16.5.15.12.02.1.18.23.04.19.08.53.2.77.27.12.18.19-.3.31.08.23.05.35.38.42.12.04-.2.02 0 .08 0 .13-.03.1.25.12.31.04.12.12-.14.15-.04.04.04.08.08.08.04.81 1.02 1.81 1.72 2.47 2.74.74.73.94 2.19 1.97 2.66.25 0 1.39.46 1.27-.12 0-.26-.05.07-.08-.04-.02-.07.04-.37.04-.46.11-.78.03-.86.23-1.27-.11-.6-.06-.38.08-.58-.25-.22.21-.04.12-.7.07-.39-.2-.42-.08-.42.26-.03-.07-.21.12-.19.33-.42.19-1.76.5-2.28-.07-.5-.05-.28-.31-.46.32.03-.1-.13.08-.23.1.02.04-.24.04-.27.05-.13.08.07.08-.19-.09-.32-.58-.79-.97-1-.17.04-.53-.34-.66-.08-.06.09-.04-.08-.08-.08-.11-.02-.21-.27-.31-.08-.18-.13-.78-.4-1.12-.31-.04.25-.35-.04-.39-.08-.2-.27-1.13.26-1.47.08-.19-.28-.96-.14-1.31-.15-.28.06-.52-.1-.85.04-.34-.11-1.14.12-1.39.04-.21.11-.92-.07-1.24.23l-.04-.04c.01-.11-.33-.02-.35.04-.08.23-.15-.15-.27.08-.2-.07-.44-.12-.62.12-.14-.28-1.35.06-1.43.31.18.17-.35-.14-.39.04-.04 0-.08.08-.04.08.01.14-.15-.09-.15 0-.21.04-.55.04-.5.27-.07-.22-.38-.26-.31 0-.11-.21-.27-.08-.39-.08-.36.07-.6.1-.85.27-.09.19-.41.69-.69.42-.14-.01 0 .12-.19.12-.13.19-.76.14-.73.39.02.09-.11-.1-.12 0-.09.02-.16.13-.23.08-.04.01-.77.46-.66.62.03 0 .06-.2.08-.04.11.2-.23.05-.27.15-1.19.61-1.64 1.71-2.35 2.55-.36.42-.42.97-.81 1.12-.08.27.05.44-.15.62.03.16-.17 0-.08.15.12.12.08.12-.08.08-.19-.14-.37 1.16-.35 1.24.11 0 .01.12 0 .04-.04-.02-.18.3-.08.39.06 0-.22.45-.04.35.21.06-.3.27-.08.54.12.3.1-.06.27.12-.02.16.16-.03.15.04 0 .1.21-.04.12.04-.04 0-.04.04 0 .04 0 .05-.44 0-.39.19.02.12.02-.04-.08.04h-.04s-.08-.08-.12 0c-.14.12.16.18 0 .35-.05.45-.12 1.37-.04 1.74 0 .1-.03.56.04.54-.02.47 0 1.77.35 1.93-.02.08-.14-.16-.12.12-.03.35.21.03.12.19-.06.24.1.52.23.58-.04.04.43.54.12.42-.31-.22.21.76.27.85-.04.11.26.81.31.5.01.03.05.21.08.15.1.23.11.41.31.58.22.43.87 1.27 1.31 1.58.29.52 1.06.96 1.47 1.24-.03.11.17.03.23.19.15.21.39-.2.39.08-.1.18.27.31.39.35.11.07.26.44.46.35.14.02.57.5.66.42.12-.18.03.37.23-.08-.1.41.74.5 1.08.5.22.15 1.26.49 1.47.39.11.18.99.3 1.2.27.09-.16.35.26.42.04.19.05.72.15 1 .12.39-.04 1.28.28 1.62.12.11-.03.24.34.39.04q.08-.15.19 0c.1.13.63-.01.66-.15.08-.36.2.24.31.04 0-.04.12-.04.15 0 .08.11.06-.19.15-.08q.08.04.08-.04c.02-.27.14.21.27 0 .25-.26.55.26.69-.23q.04-.12.04-.04c.12.32.14.1.08-.04.22.36.84.07 1.04 0 .08.16.5.19.54 0 .03-.21.23-.03.27-.12-.01-.03.26-.07.23-.04.08.02 0-.12.08-.04.12.07.19-.41.39-.12.28-.21.11-.4.58-.27-.04-.17.3.22.39.08.11-.1.22.12.27-.04.04-.22.12.1.19 0 .24-.05.01.08.54.04.36.08.27-.09.35-.04.05.15.18-.02.27.04.11.11.12-.22.23-.19.21.1.34-.16.42-.42.23-.18.06-.53.08-.77.07-.38-.17.11-.15-.19 0-.09.1.02.08-.12.33-.2-.11-.45-.08-.66.11-.23-.11-.54 0-.62.1-.08-.22-.16 0-.19.04-.04.08-.04.04-.08 0-.04-.04-.08-.04-.04-.26.27-.13-.62-.08-.62.11-.13-.04-.15-.12-.15.04.03.18-1.26.12-1.58-.02-.31.07.08.08-.12-.04-.04 0-.08 0-.12.08 0 .01-.12 0-.04-.17.08-.24-.2 0-.15.12-.16-.24-.17-.04-.31.17-.23.08-.89.19-1.12.04-.07.07-.38-.08-.23-.24.08-.04-.2.08-.15.42-.06.06-.81.23-1.08.23-.4.15-1.8.12-2.2zM36.29 24.35c-.03.16.14-.13.19-.15.19.21.19.39.35.12.08-.07-.01.16.19-.08.2-.2.06.22.23.08.11-.07.02-.21.15-.15.16.11.11-.29.31-.04.08-.03.15 0 .19.04.29.08.68.03.93.08.19-.11.38-.27.58-.12.28.52 1.14.17.66-.42-.03.1-.23-.18-.23 0-.04.22-.13-.09-.04-.15.09-.1-.19-.37-.19-.5-.54-.4-1.19-.96-1.16-1.66-.06-.36-.31.18-.35 0 0-.24.22-.19.27-.31-.38-.29.31-.19-.31-.69-.21-.11.49-.49.12-.42-.14-.13.11-.25 0-.31-.08-.02-.15-.1-.04-.27q.08-.23.04-.19c-.09 0 .03-.25-.08-.23-.11 0 .06-.28-.08-.23-.14-.22.25-1.14-.19-1.39-.26-.17.15-.06.04-.27 0-.05-.05-1.04-.12-1.04.06-.26-.1-.23-.19-.42q0-.08.04-.04c.11.08.1-.38.15-.39-.07-.16 0-.39-.12-.46-.12.02.16-.52-.04-.42-.15.11-.07-.76.12-.93.12-.08.19-.08.19.04-.04.22.28-.3.23-.08.08.23.18-.03.27-.04.2.1.82.12.66-.27-.11-.2.26-.35.12-.08.39.73.04.23.58.12.08-.1.25.16.27-.04.05-.28.2.17.19 0 0-.13.09-.12.12-.23.04.02.19.51.31.42.03-.04-.12-.12-.04-.12.12-.06-.02-.51.08-.54.14-.04-.03.25.08.15.29-.16-.13.35.08.23.17.04.07-.15.15-.19.1.09-.03.37.23.12-.02-.07.09-.03.08 0-.03.44.26-.11.46-.08.11-.14.17.24 0 .12-.13-.09-.08.06-.04.12.07.01 0 .2.12.08.03-.13.34-.4.39-.42.1.22.39-.3.23.12 0 .02.18.41.23.23.22-.21-.11 0 0-.19.23-.29.32.14.39.27.26-.92.18 2.08.27 2.35q.04.08 0 .08c-.1.03.2.24.04.27-.15.03-.1.93 0 .93-.22.05.18.14 0 .35-.21-.18-.06 1.25-.04 1.2.56.06-.43 1.26 0 1.47.04.1-.36.53-.15.73-.21.56-.25 1.44-.69 2.01-.21-.12-.48.35-.69.62-.19.36.13.82-.12.96-.12-.02.39.6.46.31-.05-.16.07.18.15.08.09-.08.16.16.23-.04.08-.15.27.24.5.04.24-.02.09.41.54.27.19.08.34-.02.5-.12 0-.08.15-.08.19 0 .02.11.32-.15.35-.08.64.09.86.04 1.43.08q.12.04.12 0c-.07-.07.18-.17.08-.04-.04.16.24.03.23 0 .13.06.49 0 .69-.04.15.09.17-.17.39-.08.25.03.46-.15.5-.12.1.16.14-.09.23 0 .14.12.12-.23.35-.04.28.08.57.11.81-.12q.04-.08.12.04c.16.07.64.04.81-.04.44.04.73-.28 1.08-.08.11.11.2-.2.23-.04 0 .26.32-.39.42.08.09-.05-.01-.31.12-.27.19.06.13-.59.04-.31-.2.25-.11-.45-.35-.39q-.08.04-.08-.04s.04-.08.04-.15c0-.12.17-.03.08-.19-.13-.09-.51.18-.35-.15.09-.02-.01-.46.08-.42.12.02.09-.13.04-.19-.04 0-.04-.04-.04-.12.08-.11-.09-.07-.12-.27q0-.15-.04-.08c.02.19-.11.01-.12-.04-.04-.02-.11.4-.23.27-.03-.68.38-.74 0-1.16.18-.45-.28-.98-.27-1.35-.08-.66-.05-1.31-.12-1.97.11-.09-.13-.29-.15-.35-.11-.06.26-.04.08-.12.13-.5-.44-.45-.31-.81.05 0 .05.25.15.23.08.02-.06-.39.04-.31.3.32.04-.49.08-.62 0-.3-.45-.58.12-.69-.17-.05-.22-.2-.08-.19.18-.01-.19-.33-.08-.42.11-.33-.01-.54-.04-.77-.02-.11-.08.19-.08 0 .02-.08-.2-.14-.12-.19.55.36.14-1.55.19-.89.08.12-.2-.06-.12-.15.14-.19-.18-.5 0-.46-.24-.32.22-.24.15-.54-.11-.18.11-.68 0-.5-.15.15-.14-.28-.08-.23.11 0 .17-.75.08-.85.05-.08-.16-.26-.04-.31.23.07-.09-.46.04-.46.16-.4-.12-.59-.08-.08-.16.13-.02-.21-.12-.23-.03-.08-.22-.14-.15-.19.08-.12.15-.08.19 0 .11.03-.07-.37 0-.46.23.37.34-.02.27-.19.14.07.09-.26-.04-.19-.13.03-.02-.2-.12-.23-.04-.04 0-.08.08-.12.35-.03-.21-.84.08-.58.27-.2-.08-.23.08-.35.21-.29-.02-.14-.08-.31-.13-.12.05-.04.04-.19.17-.14-.2-.37.12-.23.13.11-.15-.34 0-.27.19-.07.14-.72.27-.73.09 0 .02-.08-.04-.12-.05 0 .09-.24-.08-.19-.05.03.25-.58.27-.73 0-.07.09-.24 0-.15-.08.09-.02-.1.04-.08.35-.24.11-.88.62-.93.04-.02-.05-.18.08-.19.21-.03.19-.48.35-.42.32-.32-.21-.57-.39-.35-.46-.12-1.03-.83-1.35-.31-.16.02-.24.33-.42.15-.19-.03-.35-.02-.31.23-.42-.19.09-.33-.23-.39-.16.14-.11.21-.23-.12-.18.07-.14.49-.31.35-.05-.09-.49 0-.54.04-.2-.16-.52-.16-.73-.19-.69-.1-1.63-.18-2.39-.19-.62.08-1.13.23-1.7.23-.13-.05-.3.26-.27-.04-.17.28-.21-.06-.39.12-.08.09 0-.19-.15-.04-.03.06-.51-.11-.66-.08-.23.16-.45-.24-.7-.12 0 .05-.23 0-.19.12 0 .16-.06-.06-.12.04-.1.15-.24-.13-.35-.15-.2-.23.03.35.04.23q0-.08.08-.04c.12.2-.17.04 0 .19.32.3-.24-.07-.31-.04-.34.27.51.53.66.77.21.08.37.56.42.62.33-.03.32 1.16.62 1.47-.11.44.24 1.16.5 1.54.08.04.04.31 0 .35-.08 0-.04.08.04.08.08.01 0 .27.04.31.04.19.29.59.19.77-.21.37-.01.92-.12 1.24-.13.15.08 1.5.19 1.62-.24.03.04.24 0 .23-.2-.11-.12.74-.04.66.17.34-.79.34-.81.42-.03-.2-.17-.15-.42-.15-.18-.14-.74.09-.77 0-.55-.23-1.08.06-1.35 0-.2-.19-.49.07-.66.04-.31-.04-.6 0-.89.08-.04-.08-.31-.04-.31.04-.87.29-.16-1.37-.35-1.78-.06 0-.05-.11 0-.04.19.2.19-.73.31-.85.19-.67.02-1.46 0-2.05.17-.96.2-2.06.12-2.97.45-.41.16-1.32.19-1.85.07-.22.42-.57.04-.69-.02.08-.12-.12-.15.04-.05-.03-.28-.23-.46-.27-.32.08-.55-.15-.81-.42-.06 0-.11.42-.19.31-.2.13.31.01.12.15-.12-.07-.02.14-.15.04-1.13 0-2.73.35-3.98.27-.29-.21-.19.5-.39.12-.31-.45-2.65.29-3.36.04-.21-.13-.81-.07-1.04-.31-.32-.09.28.19-.19.31 0 .2-.11-.15-.15-.04-.1.19-.51-.19-.42.27.5.79 0 .06.04.62-.08.08.04.23.15.23.2-.03.07.28.31.19.18-.03-.04.23.12.27.14.03-.03.23.08.23.94.28 1.05 1.97 1.35 2.66-.16.08-.04.38-.04.42.15.34-.28.28.04.62.58 1.65.04 5.05.58 7.14-.38 1.1-.12 3.6-.08 4.59-.24.12-.13 1.45-.08 1.66-.18.32 0 .37-.04.54-.17.04-.09-.14-.15.46-.06.4-.13.36-.15.77-.34.53-.88.58-1 1.35-.07-.15-.5.11-.58.31-.09.17-.17-.22-.27.15 0 0 .04.08.08.08-.26.45.83.98 1.12.97.18-.15-.09-.31.12-.23 0 .11.4.13.35.04-.02-.21.44.28.46.04.19-.05.53-.35.69-.27.17.17.5.08.58-.08.3.24 1.47.2 1.81.12-.02-.07.9.41.97 0 .14.1.35.12.62.08.05-.05.12.19.27.04.14-.21.23.14.46.04.17.03.47-.13.58-.12.07.1.11-.17.15.04.32.25.42-.36.54-.08zM62.27 23.93c0-.07.13-.15.19-.19-.06.22.26.38.35.27.1-.07.17-.18.31-.15.1 0 .46-.21.5-.12-.03.38.99-.17.66.35.25-.4.49-.11.81-.23.46-.05.85.11 1.35.12.13.08.19-.25.35-.12.06.01.28.17.31.04.2-.03.65.08.66-.27 0 .3.2.41.46.31.05-.07.29.15.39 0 0-.04.04 0 .08 0 .24.13.06-.08.35.08.08-.05-.13-.19.04-.19v.04c0 .08.1-.12.15.04q.04.08.08.04c.12-.15.3.35.46.15.06-.11.21-.06.27-.08.12.19.31-.25.42 0 .18.28.05-.21.35.12.04.08.08.08.08.04-.02-.16.29-.02.35-.04 0 .04.04.04.08 0 .06-.01 0 .17.12.08.33.12.14.09.42-.12.11.31.07-.03.15-.12 0 .38.27-.11.31.15 0 .04.24-.1.35.04.14.12.12-.19.19 0h.12c.27.08.32-.06.62-.04.15-.13.5-.07.46.08 0 .24.34-.28.42-.12.15.23.11-.18.12-.27.04.5.36.02.42.31.23-.06.32-.42.31.04.08.01 0-.21.08-.12.33.04-.1-.52.5-.04.12-.09-.1-.38.12-.27.12.14-.2.48.08.42.22-.04.2.2.5.12.21.15-.04-.49.19-.35.15-.05-.2-.02-.12-.35.02-.13-.08-.53.15-.5.14 0 .05-.26-.04-.12-.1.09-.03-.23.08-.15.05-.1.17-1.57-.12-1.12-.08-.03.02-.11.04-.15.09-.2.1.01.15 0-.08-.5.34-1.27-.08-1.74.06-.24.11-1 .04-1.31-.04-.08.12.03.08-.19-.11-.22.18-.02.15-.19.08-.28-.1-1.17-.19-1.31-.1-.13-.02-.43 0-.58-.02-.02-1.08-1.19-1-.81.03.13.17.52.12.62-.25-.65-.19-.27-.39.04-.11.39-.48-.15-.23.5-.1-.02.04.16-.04.15-.05 0-.03-.15-.08-.15-.04.52 0 1.01-.23 1.51-.29.34-.27 1.03-.66 1.39-.13.2-.43.28-.5.54-.13 0-.03.29-.19.12-.09-.04-.38.27-.5.27-.08.06-.22.37-.35.31-.27-.07-.23.23-.46.19-.07-.03-.21.31-.15.08-.08 0-.31.15-.35.23-.12.09-.17-.13-.23.04 0 .16-.14-.07-.15.08-.05.22-.34-.05-.42.19-.24.01.11.13.12.08.24-.08-.26.38-.31.31-.02 0-.16-.26-.15-.15.03.16-.13-.07-.12.04.02.28-.49-.29-.39.08.04.08.04.15.04.15-.06 0-.15 0-.15-.08 0-.13-.26.13-.31-.04-.15-.13.03.45-.23.23-.01-.18-.25.15-.23-.04.05-.16-.23 0-.23-.08.02-.08-.13-.02-.04 0-.09.28-.73.03-.89.31-.13.13-.63-.17-.93-.04-.1.11-.24-.1-.31.04-1.02.04-.72-1.38-1.08-2.08-.11-.48.42-1.24.04-1.58 0-.17.28.02.23-.19-.18-.9.36-2.2.04-3.55-.07-.47.31-1.18-.12-1.51-.01-.14.02-.11.08-.23h.04c0 .11.2.05.19.12.14.16.19-.37.31-.04 0 .12.17-.07.15.12-.09.04.36.09.46.08 0-.07-.03-.3.04-.31 0 0 .04-.04.04-.12.07-.09.06.07.15 0v.04c-.2.27.08.43.27.35.21.39.16-.28.54.19v-.08c0-.21.27-.13.12.04.07.1.36-.25.39-.08.13.12.07-.2.15-.04 0 .04.04 0 .04-.04.12-.24.09.15.15.15.65.12 1.42.71 1.85.96.04 0 .06.12.12.04.06-.16.23.24.31.23-.02.17.23.21.35.27.16.31.51.8.85.97.02.04.14.28.19.15 0-.07.2.2.19.08.19-.02.32.05.27-.23.08-.22.16.67.35.15.37-.12 0-.89.08-1.16 0-.07.06-.11.04-.19 0-.08-.17 0-.08-.15-.09-.2.21-.19-.15-.19.34-.17-.11-.26.08-.42.15-.13-.12-.74 0-.93.18-.19-.04-.59-.04-.73.24.27.06-.04.08-.12.13 0 .04-.23.12-.15-.11-.32.2-1.18-.12-1.24-.08-.08.29-.17.19-.23.03-.06 0-.23.04-.35.13-.22-.38-.11-.04-.35.2-.28-.19-.43 0-.66.02-.16.14-.05.12-.27.03-.3.23-.1-.08-.35-.04-.04-.08-.08-.08-.04.03.1-.13.08-.04.04-.06-.2-.24.04-.27-.08-.12-.11-.53-.21-.58-.12-.12.02-.5-.14-.66.08.04.21-.19 0-.27.04.03.31-.38.73-.54.93-.21.33-.65.57-.89.89-1.02.68-3.07.61-4.29.85-.22-.46-.04-1.52-.19-1.93-.24-.53.28-.9.04-1.51-.12-.07.03-.44.15-.62.07-.28-.08-.74-.15-1-.01 0 .11-.56-.04-.66-.15.05.29-.8 0-.39.18-.38-.06-.43 0-.69.18.1.05-.68 0-.62.15-.22.07-.67.12-1.08.21 0 .61 0 .42-.19.5-.14.15.25.5.23.19.05.06-.33.23-.08.32.2.8.03 1.08.04.11.08.27.08.39-.08.22.22.47.24.66.19.13.09.46.2.58.12.04-.08.08-.04.12.04.12.13.3-.08.31.08.04.17.37-.08.42.15-.07.28.42.15.42.23.07.32.25.07.35.27-.03-.02.6.71.58.54.05-.09.2-.04.12.04-.06.1.14.28.19.27.16-.05.09.36.27.23.06.05.32.57.5.58.25.56 1.62 1.66 1.81 2.05.62 1.49 1.4 1.61 1.43-.23.33-.13.12-.56.04-.93-.11-.7.11-2.65 0-3.24-.09-.35-.07-.88 0-1.16.21-.38.19-.99-.31-1-.37.13.08-.26-.31-.12-.15.07-.17-.24-.23.08.02.15-.12.07-.12-.04-.06-.36-.48-.08-.62-.12-.2-.1-.57-.04-.77-.08-.1-.09-.14.1-.27 0-.1-.1-.16.21-.27.04-.62.02-2.35.1-3.2.15-.36-.07-1.01-.18-1.39-.08-.25.13-.63-.26-.93-.04-.04.07-.47-.23-.46-.08 0 .12-.12.12-.12 0-.39-.08-1.27-.07-1.78-.08-.7.09-1.12-.09-1.7.19-.19.22.02-.11-.12-.12-.07-.01 0 .17-.08.08-.86-.06-1.57.04-2.51.12-1.38.06-2.13.49-3.47.19-.13.03-.61-.18-.66-.04-.21-.03-.31-.08-.42.19.02-.05-.07-.3-.15-.19h-.04c-.33-.07-.71.14-1 .23-.1.12-.38-.06-.46.12-.1.18.16-.1.12.08.29.29.96.35 1.2.66-.04.08-.12.04-.12-.04-.14-.1.11.37.15.15.12-.09.06.06.12.08.11.04-.15.14-.04.19v.08c-.09.09.12.18.04.19 0 .09.25.9.23.66 0-.08.18.15.04.12.35 2.41.51 4.54.77 6.83-.08.29-.02 1.15-.23 1.31-.05.11.31.07.27.12.03.06.09.12.15.15-.33.09.08.25-.12.35-.18 1.1.22 3.31.12 4.29.16.15-.05.81.04.73.08.2.13.77-.12.93-.08 0-.08.04-.04.19 0 .23.04.27.04.04-.09-.19.16-.15.12-.08-.13.6-.11 1.11-.23 1.54-.25.64.05 2.08-.5 2.55-.54.08-.19.32-.35.54-.6.4-.12 1.52.46 1.54.27.21.78-.36 1.16-.39 0-.09.64-.06.62-.15.24-.24.07.2.19.08.04-.04.08-.08.04-.08.93.26 1.92.16 2.86-.08zM23.82 6.79c-.15-.56-.13-1.38-.19-2.08-.02-.48-.27-.98-.12-1.51.06-1.32-.24-2.3-1.74-2.78-.34-.17-.74.04-1 .15C19.74.45 18.53.53 17.3.38c-2.85-.3-5.36-.12-8.15.39-.48-.05-.99.12-1.39.08-.14.04-.59.18-.69-.04C6.83.69 6.9.49 6.68.77c-.12.2-.69.07-.66.15-.13.04-.33-.07-.5-.04-.17-.06-.18.2-.31.04-.05-.09-.22.1-.27 0-.6 0-1.35-.11-2.05.04-.75.18-1.35.27-2.05.19-.71-.14-.35.63-.54 1.04.02.58-.28.91-.04 1.47.2.12-.03.88-.12 1.08-.12.27.05.87.04 1.12-.1.28-.1 1.22 0 1.47.04.43-.35 1.27-.12 1.78l.04-.04c-.02.55.37 1.14.97 1.31.42 1.01.65-1.99.85-2.39.15-.47.27-1.16.7-1.54-.08-.16.28-.18.12-.42h.04c.13.04.04-.29.15-.35.13-.14.21-.32.31-.5-.07.52.27-.07.54-.19.08.08 0-.19.08-.08.07.18.06-.19.12-.08.05.2.16-.22.23-.27.11-.12.47-.31.73-.5.05-.4.62-.35.89-.69.21-.26.88-.19 1.24-.5.34-.07-.04.57.15.81.06.18.04.47.08.62-.09 1.18.22 1.84.19 3.2-.02.78.03.58.23.77-.56.17.03 1.09-.12 1.89.19.27-.13 1.45.27 1.58-.35.26-.01 1.02-.08 1.43-.04.62-.07 1.52.08 2.05l-.04.04c-.14.09.07.29 0 .35-.11.14.13.03.04.12-.08.06-.14 1.39.12 1.27-.44 2.64.02 3.53-1.89 5.83-.46 1 .51 1.47 1.31 1.74.12.08.36-.16.42.12.09.01.51-.09.62-.04.21.18.92-.1.93.04.02.2.22-.02.31.08 1.06.04 1.01-.08 2.28.15.21.1.77.07.85.04.16.08.55.09.66-.04.38.02 1.39-.15 1.81-.35.34.04.4-.25.73-.19.16 0 .12-.39.23-.23.27-.11.79.42.81-.19.15-.01.34.33.54.27.3 0-.27-.4 0-.46.08 0 .11-.14.04-.15-.05.05-.09.15-.12 0 .02-.22-.38-.29-.46-.42-.44-.5-.43-1.43-.85-1.93-.6-3.55-.69-8.39-.89-11.97.06-.63-.18-1.17-.19-1.78.1-.12 0-.24.04-.35.11-.09-.07-.12-.08-.19.1-.74.38-1.88.08-2.7-.13-.29.6-.62.54-.81.08.04.03-.59.15-.46.12.08.12.04.12-.08.11-.83.82-.32 1.27-.54.1-.07.15.01.12.04-.1.2 1.08.14 1.35.62.83.64 1.36 1.08 2.05 1.85 1.39 1.21 1.2 3.85 2.39 4.44.04.37.37-.42.35-.54.04.02.28-.47.15-.35-.11.08-.17-.14-.04-.12.48.01.14-1.05.19-1.51zM243.18 32.71c-.34-.16-.93-.61-1.43-.58-.1.2-.3-.32-.39 0-.08.44-.86.22-.93.58-.16.17-.14-.21-.39-.12-.16.01-.44-.18-.54-.08-.03.16-.16-.28-.23 0 .08.1-.16.1-.08 0-.03-.21-.73 0-.81-.04-.05-.02-.64-.07-.69-.04-.13.09-.31.18-.27.04-.6-.34-.16.62-.31.85-.1.22-.14.89-.19.93-.41.65-.7 1.88-.85 2.66-.25.46-.37.82-.31 1.35-.27.55-.75 1.13-.69 1.66-.19-.06-.49.77-.54.93.03.06.24.06.04.15-.6.02-1.01 2.23-1.35 1.97-.1.11-.22-.3-.27-.35 0-.19-.26-.13-.23-.31.1-.18-.08-.16-.04-.23-.46-.2-.57-1.08-.93-1.27-.61-1.2-1.63-2.56-2.59-3.67-.36-.57-.46-1.49-.81-2.16-.25 0 .14-.42.08-.54-.08-.51.12-1.45-.5-1.62-.08-.28-.24-.13-.31-.12-.06-.32-.54-.27-.77-.23-.98.38-2.55 0-3.17.08-1.17.12-2.99-.13-3.59.23-.26-.51-4.15-.53-2.59 1 .71.91 1.64 1.27 2.32 2.05.91 1.02 1.52 2.34 2.51 3.2.09-.07-.11.42.23.39.13.17.11.47.31.62.07-.03.26.08.15.12-.16.06.28.34.23.46.27.16.39.61.62.81.3.34.57 1.36 1.04 1.7.29.88.94 1.53 1.24 2.28-.48.08.2.25-.23.23.81 2.14.39 4.65.23 6.76-.23.17-.15 1.6-.46 1.62-.25.64-.89.75-1.16 1.12-.53.26.4 1.63.69 1.58 1.18.8 2.38.13 3.67.12.78-.25 1.91.05 2.82-.12.54.1 2.19-.12 2.63.08.25.11.62.05.85.04.1.15.19-.12.23-.19.17-.18-.03.26.15.08 0-.08.04-.08.04-.08-.02.06.21-.14.12-.04.1.16.48.05.46-.23.11-.06-.29-.29-.27-.23-.2.16-.06-.14-.15-.15-.5-.03-.45-.96-1-.81-.09.1.02-.62-.08-.5.01-.17.1-.46-.19-.62-.2-.11-.05.36-.23.15-.12-.31.25-.38.15-.66.06 0 0-.74-.08-.62-.04.04-.08.04-.12 0-.08-.08-.04-.12.08-.12.19.04.02-.49-.04-.58-.16-.28.12-1.17.08-1.31-.05-.01.01-.64-.08-.42-.13.09-.11-.19 0-.19.33.04.31-1.02.23-1.12.03-.34.28-.96.08-1.24-.06-.09.14-.18-.04-.31-.28-.26.25-.09.15-.42v-.89c-.21.19-.03-.27.08-.35-.01-.11-.02-.61 0-.66-.05-.05.1-.22.12-.27.1.03.09-.5.19-.39.18.23.12-.48.23-.5.22-.08.03-.06 0-.12-.09-.1.43.08.35-.23.3-.69.87-1.23 1.24-1.85.03-.12.14-.12.15-.31.02-.36.34-.44.54-.62.11-.03-.1-.44 0-.35.08 0 .19-.12.12-.15.16-.51.57-1.33.66-1.89.03-.07.26-.08.39-.19-.18-.18.03-.35.23-.27.02.03.37-.47.42-.42.07-.09.17-.23.23-.31.17.04.06-.34.19-.23.15-.11.5-.51.66-.73.42-.2.68-1.16.93-1.27.2.19.26-.48.31-.27h.08c.05-.41.29-.09.31-.35.12-.33.42-.31.5-.62.18-.26.47-.29.69-.54.3.08.05-.44.19-.39.15-.06-.24-.35-.31-.35zM251.13 1.04c-.4.25-1.12-.86-1.47-.23-.16.02-.24.33-.42.15-.19-.03-.35-.02-.31.23-.42-.19.09-.33-.23-.39-.16.14-.11.21-.23-.12-.18.07-.14.49-.31.35-.05-.09-.49 0-.54.04-.2-.16-.52-.16-.73-.19-.69-.1-1.63-.18-2.39-.19-.62.08-1.13.23-1.7.23-.13-.05-.3.26-.27-.04-.17.28-.21-.06-.39.12-.08.09 0-.19-.15-.04-.03.06-.51-.11-.66-.08-.23.16-.45-.24-.69-.12 0 .05-.23 0-.19.12 0 .16-.06-.06-.12.04-.1.15-.24-.13-.35-.15-.2-.23.03.35.04.23q0-.08.08-.04c.12.2-.17.04 0 .19.32.3-.24-.07-.31-.04-.34.27.51.53.66.77.21.08.37.56.42.62.33-.03.32 1.16.62 1.47-.11.44.24 1.16.5 1.54.08.04.04.31 0 .35-.08 0-.04.08.04.08.08.01 0 .27.04.31.04.19.29.59.19.77-.21.37-.01.92-.12 1.24-.13.15.08 1.5.19 1.62-.24.03.04.24 0 .23-.2-.11-.12.74-.04.66.17.34-.79.34-.81.42-.03-.2-.17-.15-.42-.15-.18-.14-.74.09-.77 0-.55-.23-1.08.06-1.35 0-.2-.19-.49.07-.66.04-.31-.04-.6 0-.89.08-.04-.08-.31-.04-.31.04-.87.29-.16-1.37-.35-1.78-.06 0-.05-.11 0-.04.19.2.19-.73.31-.85.19-.67.02-1.46 0-2.05.17-.96.2-2.06.12-2.97.45-.41.16-1.32.19-1.85.07-.22.42-.57.04-.69-.02.08-.12-.12-.15.04-.05-.03-.28-.23-.46-.27-.32.08-.55-.15-.81-.42-.06 0-.11.42-.19.31-.2.13.31.01.12.15-.12-.07-.02.14-.15.04-1.13 0-2.73.35-3.98.27-.29-.21-.19.5-.39.12-.31-.45-2.65.29-3.36.04-.21-.13-.81-.07-1.04-.31-.32-.09.28.19-.19.31 0 .2-.11-.15-.15-.04-.1.19-.51-.19-.42.27.5.79 0 .06.04.62-.08.08.04.23.15.23.2-.03.07.28.31.19.18-.03-.04.23.12.27.14.03-.03.23.08.23.94.28 1.05 1.97 1.35 2.66-.16.08-.04.38-.04.42.15.34-.28.28.04.62.58 1.65.04 5.05.58 7.14-.38 1.1-.12 3.6-.08 4.59-.24.12-.13 1.45-.08 1.66-.18.32 0 .37-.04.54-.17.04-.09-.14-.15.46-.06.4-.13.36-.15.77-.34.53-.88.58-1 1.35h-.04c0-.22-.54.21-.54.31-.09.17-.17-.22-.27.15 0 0 .04.08.08.08-.26.45.83.98 1.12.97.18-.15-.09-.31.12-.23 0 .11.4.13.35.04-.02-.21.44.28.46.04.19-.05.53-.35.69-.27.17.17.5.08.58-.08-.03.17.64.09.77.15.33.17 1.08-.16 1.2 0-.03.12.88.2.81-.04.14.1.35.12.62.08.03-.05.13.19.27.04.14-.21.23.14.46.04.26.04.65-.24.73-.08q0 .08.04.04c.53.03.14-.1.42-.19.16.16.08.09.27-.08.3.38.15.26.54.04.2-.2.06.22.23.08 0-.04.04-.08.04-.04.1 0-.05-.2.12-.12.16.11.11-.29.31-.04.2.02.61.13.85.08.34.18.54-.3.85-.08.28.52 1.14.17.66-.42-.03.1-.23-.18-.23 0-.04.22-.13-.09-.04-.15.09-.1-.19-.37-.19-.5-.54-.4-1.19-.96-1.16-1.66-.06-.36-.31.18-.35 0 0-.24.22-.19.27-.31-.38-.29.31-.19-.31-.69-.21-.11.49-.49.12-.42-.14-.13.11-.25 0-.31-.08-.02-.15-.1-.04-.27q.08-.23.04-.19c-.09 0 .03-.25-.08-.23-.11 0 .07-.28-.08-.23-.14-.22.25-1.14-.19-1.39-.26-.17.15-.06.04-.27 0-.05-.05-1.04-.12-1.04.06-.26-.1-.23-.19-.42q0-.08.04-.04c.11.08.1-.38.15-.39-.07-.16 0-.39-.12-.46-.12.02.16-.52-.04-.42-.15.11-.07-.76.12-.93.12-.08.19-.08.19.04-.04.22.28-.3.23-.08.08.23.18-.03.27-.04.2.1.82.12.66-.27-.11-.2.26-.35.12-.08.39.73.04.23.58.12.08-.1.25.16.27-.04.05-.28.2.17.19 0 0-.13.09-.12.12-.23.04.02.19.51.31.42-.07-.12-.02-.11 0-.23.06.04-.05-.49.04-.42.14-.04-.03.25.08.15.29-.16-.13.35.08.23.17.04.07-.15.15-.19.1.09-.03.37.23.12-.02-.07.09-.03.08 0-.03.44.26-.11.46-.08.11-.14.17.24 0 .12-.13-.09-.08.06-.04.12.07.01 0 .2.12.08.03-.13.34-.4.39-.42.1.22.39-.3.23.12 0 .02.18.41.23.23.22-.21-.11 0 0-.19.23-.29.32.14.39.27.26-.92.17 2.08.27 2.35q.04.08 0 .08c-.1.03.2.24.04.27-.15.03-.1.93 0 .93-.22.05.18.14 0 .35-.21-.21-.06 1.26-.04 1.2.56.06-.43 1.26 0 1.47.04.1-.36.53-.15.73-.21.56-.25 1.44-.69 2.01-.21-.12-.48.35-.7.62-.19.36.13.82-.12.96-.12-.02.39.6.46.31-.05-.16.07.18.15.08.09-.08.17.16.23-.04.08-.15.27.24.5.04.24-.02.09.41.54.27.19.08.34-.02.5-.12 0-.08.15-.08.19 0 .02.11.32-.15.35-.08.64.09.86.04 1.43.08q.12.04.12 0c-.07-.07.18-.17.08-.04-.04.16.24.03.23 0 .13.06.49 0 .69-.04.15.09.17-.17.39-.08.25.03.46-.15.5-.12.1.16.14-.09.23 0 .14.12.12-.23.35-.04.28.08.57.11.81-.12q.04-.08.12.04c.16.07.64.04.81-.04.44.04.73-.28 1.08-.08.11.11.2-.2.23-.04 0 .26.32-.39.42.08.09-.05-.01-.31.12-.27.19.06.13-.59.04-.31-.2.24-.1-.45-.35-.39q-.08.04-.08-.04s.04-.08.04-.15c0-.12.17-.03.08-.19-.13-.09-.51.18-.35-.15.09-.02-.01-.46.08-.42.12.02.09-.13.04-.19-.04 0-.04-.04-.04-.12.08-.11-.09-.07-.12-.27q0-.15-.04-.08c.02.19-.11.01-.12-.04-.04-.02-.11.4-.23.27-.03-.68.38-.74 0-1.16.18-.45-.28-.98-.27-1.35-.08-.66-.05-1.31-.12-1.97.11-.09-.13-.29-.15-.35-.11-.06.26-.04.08-.12.13-.5-.44-.45-.31-.81.05 0 .05.25.15.23.08.02-.06-.39.04-.31.3.32.04-.49.08-.62 0-.3-.45-.58.12-.69-.17-.05-.22-.2-.08-.19.18-.01-.19-.33-.08-.42.11-.33-.01-.54-.04-.77-.02-.11-.08.19-.08 0 .02-.08-.2-.14-.12-.19.55.36.14-1.55.19-.89.08.12-.2-.06-.12-.15.14-.19-.18-.5 0-.46-.24-.32.22-.24.15-.54-.11-.18.11-.68 0-.5-.15.15-.14-.28-.08-.23.11 0 .17-.75.08-.85.05-.08-.16-.26-.04-.31.23.07-.09-.46.04-.46.16-.4-.12-.59-.08-.08-.16.13-.02-.21-.12-.23-.03-.08-.22-.14-.15-.19.08-.12.15-.08.19 0 .11.03-.07-.37 0-.46.23.38.34-.02.27-.19.14.07.09-.26-.04-.19-.13.03-.02-.2-.12-.23-.04-.04 0-.08.08-.12.35-.03-.21-.83.08-.58.27-.2-.08-.23.08-.35.21-.29-.02-.14-.08-.31-.13-.12.05-.04.04-.19.17-.18-.08-.16 0-.27.4.18-.09-.2.12-.23.18-.18.37-1.11.15-1.04-.07.03.41-.88.27-.89-.15.02.39-.39.31-.54-.24-.36 1.66-1.44.5-1.51zM217.19 19.65c-.05-.2-.04-.32.12-.5.07-.07.03-.24.12-.35.08 0 .12-.12.08-.15-.04-.12.04-.41 0-.5.06-.13.22-.12.23-.23.06-.49.46-1.29.73-2.08.18-.39.23-.76.27-1.12-.07-.26.26-.5.08-.62-.06 0-.03-.3.12-.23.16-.04-.12-.16 0-.27 0-.16.06.06.12-.04h.08c.11-.33.42-1.05.58-1.54.08-.06.05-.68-.04-.27-.06-.16-.13-.17-.15-.31.08-.1.12.17.19 0q.08-.04.08 0c.08.25.08-.71-.15-.58.08-.22.42.31.23-.08-.13-.43.28.18.35-.54 0-.24-.06 0-.12-.08-.16-.09.06-.21 0-.23-.18.01.04-.23-.12-.15V9.7c.04-.16.17.03.23.08.08.22.28-.53.15-.58 0-.06.3-.41.15-.42-.04 0-.02.17-.08.08 0-.04-.04-.04-.08-.04 0 .04-.04.04-.04 0 .49-.08-.02-.23.35-.31-.1-.21.26-.25.19-.5-.49-.25-.03-.79 0-.12.17-.22-.1-.8.12-.97.11.1.17.17.23-.04-.05-.22.11-.37.12-.42-.01-.1-.09-.43.04-.12.32.13-.11-.5.27-.35.14-.52.35-1.13.46-1.58.04.04.08 0 .08 0 0-.09.1.15.08-.08-.02-.15.07-.08.08-.15 0-.06-.11.04-.12-.08-.1-.09.16.03.12-.08-.02-.05.09-.44.19-.46.16.03-.07-.17.12-.15.09-.03-.23-.33.23-.15-.17-.37.38-.37.19-.62-.08-.04.45-.13.15-.19-.09.01.09-.17 0-.19-.08-.09.15.04.12-.15 0-.15.04-.19.12-.12.04.18.2-.23.19-.04.03.21.63-.04.77-.08 0-.06.2.1.23 0 .08-.08.13.12.23-.04.37-.19-.02-.8-.39-.69-.16-.05-.69-.54-.93-.19-.16-.48-2.16.11-2.2-.08-.39.11-.87.11-1.24.04-.19.15-.09-.11-.23-.12-.12-.03-.39 0-.39 0-.14-.11-.25.12-.27 0 0-.24-.93-.05-.66.04.08 0 .11.54.04.35-.06-.21-.22.03-.35-.19.02.11-.06.24-.08.04-.04-.12-.19-.04-.19.08-.04.08.13.08.04.12.24.24.47.12.15.39.4-.24.23.08.58.12.21-.02.18.25.31.31q.08 0 .04.04c-.14.12.12.17.04.35.28.72.05 2.53-.08 2.82-.2.7-.43 1.52-.58 2.05.04 0 .04-.04.04-.08-.03-.07.22.21.04.12-.29.11-.12.68-.27.93-.23.37-.28 1.58-.35 1.74-.2-.08-.07.63-.19.62-.1.15-.19.32-.12.62.1.21-.32.26-.15.46 0 .15-.25.48-.27.73-.23.67-.34 1.84-.7 2.51 0 .33-.29 1.89-.58 1.81-.14.04.18-.31.12-.31-.08.04-.15 0-.15-.08.36-.29-.14-.37-.08-.62.02-.06-.26-.24-.12-.23.21-.05-.09-.47-.23-.5.04-.16-.21-.2-.19-.39.23.29.06-.65-.23-.23-.05-.11-.2-.47 0-.42.12.04-.12-.24-.04-.19.21-.02-.09-.15-.08-.23q0-.08-.04-.04c-.05.27-.26-.3-.15-.27.08 0 0 .21.08.19.18-.05-.2-.36-.04-.39q.04-.08-.04-.08c-.16-.22-.2-.34-.46-.46.08-.41-.18-.9-.39-1.27-.41.4-.02-.09-.15-.19q-.08-.08-.04-.12c.14-.18-.24-.15-.19-.27.19.03.44-.03.27-.27-.08.04-.12-.08-.08-.27 0-.31-.13-.09-.19-.39-.07.06-.07.33-.15.27q.04-.08-.08-.08c-.17.14-.09-.31 0-.27l.04-.04c.07-.2.17-.77-.08-.31-.07-.24-.32.04-.23-.35.09-.02 0-.24.08-.15.21.02.11-.27.04-.35-.17-.2-.68-.45-.46-.73.17.24.29-.09.08-.15-.06.08.08-.22-.04-.23-.08 0-.2.27-.19.12-.08 0 0-.22-.08-.19-.09.07-.09-.07-.12-.08-.23-.23.32-.32.19-.39-.13-.31-.02-.95-.42-1.2-.13.02-.09-.24-.04-.35.26.61.05-.87 0-1-.28-.16.3-.72-.04-.73-.12.03-.08-.12-.04-.15.09-.03-.07-.16 0-.15-.26-.21.36-.61.12-.93-.07.12-.06-.06-.08-.08-.13-.19.44-.02.12-.39-.12-.4.51-.05.27-.42-.53-.47-1.39-.37-2.05-.31-.23-.17-.15.24-.42-.04-.24-.17-.41 0-.46-.15-.08.03 0 .18-.12.04-.3-.14-.2.2-.31.08-.21.08-1.08-.09-1.27.12l-.04-.04c.12-.16-.87-.16-.81-.12 0 .04-.04.04-.04 0-.01-.04-.16.04-.15-.04-.06-.06-.26.18-.23 0-.23-.18-.66.05-.89 0-.15 0-.53-.08-.58.08.07.12-.01-.02-.08.04-.05-.26-.23-.03-.42-.12-.04.07-.58-.03-.81.08-.35-.06-.37.1-.58.12 0 .04-.08.04-.08-.04.06-.1-.36.15-.39.04-.37-.02-.23-.06-.93-.19-.29-.06-.16.25-.35.04-.11-.03-.52.04-.66.04-.08.07-.16-.11-.27.04q-.08.08-.08-.08c-.06-.19-.22.06-.35 0 .17.15.32.18.35.46 0 .19-.39-.15-.31.23-.15.05.2.31.23.27 1.27 1.32 2.71 2.88 3.2 4.86.19.29-.33.43-.19.77-.24.56-.52 1.27-.66 1.89-.01-.06-.43 1.01-.42 1.39-.25.34-.43 1.26-.46 1.58.06.11.12.39-.04.19-.13.03 0 .41-.04.39-.22.05-.12.3-.31.27.12.04.13.23.04.19-.16-.07-.14.94-.39.89v.12c.05.2-.15.12-.08.19.17 0-.16.23-.08.27.03.17-.16.33-.15.73-.15.24-.75 1.98-.58 1.16.11-.23-.15-.6-.08-.73.12-.06-.03-.04-.08-.08-.03-.06-.17-.2 0-.12.14.04.02-.32-.08-.12-.11.13.06-.72-.23-.66-.07-.18-.15-.49-.23-.54-.02-.22.03-.46-.08-.7.02-.32-.27-.44-.23-.58.06-.01.05-.09 0-.08-.1.06-.06-.47-.19-.5-.06-.13-.05-.54-.31-.35.01-.09.17-.13 0-.23-.12-.1.03-.78-.35-.97-.06-.13-.07-.91-.19-1 .16-.18-.25-.24-.19-.39.03-.18-.31-.23-.15-.42.08 0 .04-.08-.04-.08-.18-.05.11-.14 0-.19 0-.04-.04-.08 0-.08.04-.04-.12-.15-.15-.12-.03-.05.02-.43-.04-.5-.2-.44-.03-1.09-.27-1.47-.5-.7.2-1.58-.23-2.2-.44-1.05.03-2.33.23-3.32.15-.17-.3-.02-.39-.27-.28-.07-1-.24-1.54-.15-.07.01 0 .29-.15.15-.08-.14-.49.05-.54.04-.32.05-.06-.2-.42-.04-.14.22-.19-.15-.31 0-.06.05-.12.06-.12 0 .04 0 .04-.04 0-.08-.11 0 .07.31-.08.19-.14-.23-.06-.12-.27-.15-.32-.03-.63-.08-.89.08.31-.2-.58-.08-.66-.08-.19-.1-.05.11-.19.08-.08 0-.12-.08-.04-.08.07-.26-.29.17-.42 0 .09-.05-1.04-.08-.89.04 0 .08-.08.12-.08 0-.07-.03-.08-.18-.12-.12-.02.08-.21-.08-.27.08-.04.1-.08-.21-.15-.04-.08.04-1.48-.23-1.51 0-.21-.32-.08.16-.39-.04-.07.07-.12-.09-.12 0 0 .04 0 .08.04.08.09.12-.08.08-.15.04-.02-.14-.35-.14-.39 0-.2-.12-.6.11-.73.12-.21-.15-.11.12-.19.08-.11-.1-.13.06-.27.04-.09 0-.41.06-.54.19-.18-.05.34.38.08.27-.18-.04-.42.02-.27.23-.02.13.32-.04.39.19.29.22.59.41.77.73.14.16.02-.06.12-.08.06-.06.07.29.04.31.01.02.3.54.42.35v.08c-.06.36.28.86.42 1.2.22.03.04.44.35.42.23.09.44.47.39.58.36 1.41 1.16 2.63 1.2 4.13-.04.15 0 .19.27.15.33-.02.14.08.19.12.01.22.79 1.39.42 1.47-.42-.03.42.51-.08.54-.18-.12.07.31.08.19 0-.04.04-.12.12-.12.22-.24.26.62.12.5-.15-.02.18.35.15.46.22.18.1.62.31.81.21.06.31.68.46.66.08.48.52 1.48.73 2.08.05.12.04.88.31 1.12.26 1.01.89 2.58 1.27 3.71.46.95.65 2.7 1.89 2.86.24.04.53.54.93.39.08-.06.17-.14.23-.19.05.14-.15.34.19.31.57-.09.5.28.81.08.71-.98 2.33-.55 2.39-2.08.08-.36.5-.43.5-.85.02-.24.22-.39.27-.58.13-.15 0-.54.19-.69.34-.27.21-.88.5-1.2.33-.17 0-.93.27-1.04.15-.11.13-.39.19-.58.12-.24.21-.52.27-.77.08.04.39-.39.31-.46.44-.54.84-1.49 1.04-2.16.21-.13.36-.48.35-.73-.09-.16.06 0 .04-.12-.03-.11.11-.04.12-.12.14-.09.04-.51.12-.58.07-.15.21-.25.23-.46.08-.21-.13-.34.23-.39.17-.35.2-.57.39-.85-.3-.13-.09-.54.08-.62.67 1.16.96 2.17 1.62 3.32.22.68.57 1.55.89 1.93.21.65.54 1.37.93 2.08.02.1.18.22.12.12-.02-.09.14.1.08.08-.18.11.48.6.12.5.3.41.48 1.05.85 1.47 0-.04.04 0 .04 0 0 .08.33-.12.15.08-.22 0 .06.52.04.46.09 0 .03.48.15.35.13.4.56 1.05.89 1.35.34.47.45 1.18.85 1.54.49.69 1.42.48 2.2.46.05-.11.18.17.31.12.34.07 1.27.11 1.35-.27.08-.17.53-.63.23-.85-.13.06-.15-.21-.08-.15.37-.49.35-1.46.42-1.97.18-.4.24-.68.31-1.12.17.06.07-.2.15-.23.07-.06.15-.14.08-.23-.13-.17.24.02.19-.19zM152.57 24.93c.21-.13.99-.09 1.43-.04.28.09.9.28 1.31.04.08.07 0-.14.08-.04.01.08.22.04.27 0q.08-.08.19 0c.43.22.3-.42.12-.46-.58-.48-.51-1.85-.77-2.16.25.04.07-.44.15-.62 0-.22-.23.04-.23-.23.25.21.12-.37.12-.5.08-.81-.88-.93-.69-1.85.07.03 0-.27.08-.19.15-.03-.16-.38 0-.54-.03-.34.21-.7-.04-1 .1-.67.16-1.78.08-2.55-.14-.6.05-.85.04-1.31-.21-.24-.7-3.99.27-3.13 1.13.9 1.66 2.44 2.93 3.28.11 0 .29.53.54.46.17 0 .07.23.15.27.07.03.18.06.19.15 0 .2.31.28.42.46-.02.14.22-.17.31.04.02.52.75 1.04 1.04 1.43.47.39.99 1.45 1.47 1.58h.04c.04.18.21-.25.23 0 .28.05.03.12-.04.19-.03.23.37.66.5.69.4.7 1.18 1.19 1.62 1.89-.07-.01.29.59.27.23-.02-.24.22.1.12.15q-.04.08 0 .12c.42.23.67.86 1.12 1.31-.07.03.21.32.23.39.06.27.44-.15.39.08-.02.12.13.22-.04.19-.11.17.3.4.5.42.12.08.33.46.54.46.64.5 1.69.69 2.32.31.17.14.78.05 1.04-.08.09-.15.32.17.42 0-.08-.06.08-.03.12-.12.15-.19.29.13.35.04.12 0 .41-.22.35-.35-.19-.18.15-.22 0-.27 0-.04-.02-.22.04-.15.08.04.04-.04-.04-.12-.15-.06.05-.2 0-.35.14-.94-.24-.28-.23-.62q0-.08.15-.08c.16-.49.13-.11.08-.89.02-.48-.29-.57-.23-.93-.07-1.21-.3-2.62-.23-3.94-.45.21.21-.52.04-.73-.05-.02-.08-.53-.19-.58-.05-.02.27-.38.23-.42-.16-.16-.07-.3-.08-.42-.08-.07-.22-.87-.15-.89l.04-.08c-.1-.12.23-.06.04-.23.14-.33-.22-.27.08-.46-.28-.89.12-1.85-.19-2.66-.16-.3.05-.19.04-.54.06-.61.16-1.34.04-1.97.08-1.5.34-3.58.89-5.17.24-.2.44-.72.62-.77.29.06.18-.6.08-.5-.12-.03-.4-.08-.35-.15-.24-.15-.8.01-1.08-.12-.46-.09-.51.46-1.04.12-1.22-.25-2.57.37-3.71.04-1.72-.27.98 1.22.89 2.01.09.32.06 1.05.27 1.08 0 1.46.18 2.21.46 3.78.19.37-.13.12-.19.31-.1.19-.38-.21-.35.08.84 1.56.54 3.84.62 5.64.18.2-.17.23-.27-.08-.1.03-.53-.08-.66-.19-.46-.39-1.16-.74-1.51-1.16-.11 0 .01-.17-.08-.15-.15 0-.33-.55-.42-.12.04-.22.05-.38-.12-.62-.22-.32-.73-.35-.62-.89-.04-.13-.21-.12-.23-.23-.32-.14-.4-.39-.69-.62-.21.03-.12.07-.15-.23-.38-.13-.33-.65-.58-.89-.71-.15-.02-.32-.46-.42-.05-.02-.08-.59-.19-.46-.04.09-.17-.34-.23-.27-.04 0-.31-.12-.31-.15.11-.1.11-.2-.04-.31-.29.03-.45-.38-.62-.66-.28-.14-.45-.65-.85-.89 0-.15-.04-.15-.04-.15-.16 0-.1-.33-.31-.35-.19-.2-.22-.56-.58-.62-.16-.46-.57-.74-.73-1.2-.25-.41-.61-.84-.69-1.31-.1-.08.15-.14.19-.08.17-.11.19-.49-.08-.46-.71-.67-1.16-.46-1.85-.42 0-.16-.18.19-.23.15-.07.09-.29.04-.39.04-.15.03-.41.1-.62-.04q-.08-.04-.08 0c.02.1-.12-.12-.12-.04-1.85-.4-3.74.11-5.48-.15-.01.02.04.26-.04.15-.39-.34.56 1.19.62 1 .79.62.65.33.81 1.51.06.14.05.36.12.39.08-.01-.09.31.08.19.3.03-.17.12.04.31.03.13.02.29.04.27.16.59.2.76.27 1.16.3.22-.49.48-.27.58.69.17.42 1.55.58 2.01.13.08.04.03 0 .12-.12-.07-.1.59 0 .5.21.02-.19.15-.12.35-.04.19.06.67.04.77-.08.99.14 2.13.19 3.05.05.35-.1.92.08 1.12-.41.06-.06 1.38-.12 1.62-.08.33-.03.8-.04 1.2.04.98-.27 2.27-.19 3.32.27.16-.2.12-.15.27-.07.38-.15.89-.42 1.2-.24.27-.37.48-.5.77.26-.04-.12.12-.15.19-.12.2-.35.46-.31.69.04.28-.48.07-.31.42.51.93 1.9 1.07 2.74.77zM122.22 24.24c-.53-.05-.8-.79-1.16-1.12-.11 0-.3-.16-.12-.15.07.09.12-.05.04-.04-.04-.04-.09-.34-.12-.39-.05-.15-.2-.18-.15-.27.12-.18-.32-.12-.04-.27.16 0-.06-.2-.08-.23-.07-.05.12-.26.04-.31.02-.42-.07-.85-.15-1.31.26.15.13-.23.08-.42-.06-.3-.1-.53-.19-.77.05-.11.03-.28-.08-.5.02-.41.09-.97-.04-1.27-.06-.25-.06-.75-.31-.96.11-.1.18-.13.04-.15-.05.03-.08-.43.04-.15.21.14.24-.16.08-.08-.07.03.06-.14-.04-.12-.24-.03.16-.19.04-.31 0-.04-.1-.12 0-.19.2-.08 0-1.1-.12-.93-.22-.73.44.45.08-.62-.39-.13.05-.1-.08-.35q-.08-.08.04-.15c.21-.2-.05-.79-.08-1.04-.24-.21.22.03.04-.31-.02-.07-.14-.55-.04-.54.06-.22-.16-1.07-.19-1.51.15-.06.07-.18 0-.35.09-.11 0 .18.08 0 .07-.26-.05-.31-.08-.42.32-.16.05-1.26.08-1.66.18-1.21.22-2.94.73-3.98.23-.61.68-.85.89-1.43.31.26.33-.52.39-.69.28-.29-.66-.17-.58-.5-.01.28-.49.25-.5.04.03-.15-.13-.03-.15-.12-.73-.19-1.16.1-1.78 0-.11-.13-.95 0-.97-.08-.02-.19-1.04.04-1.08-.08-1.65.4-3.64.13-5.02.35.14.25.27.62.58.62.07.07-.17.27 0 .27.12.15-.1.09-.12.27-.16.1.1.34-.12.5-.15-.32-.11.08-.12.23-.04.19-.33.71-.54.85-.12.21-.02.58-.15.81 0 .15-.04.15-.15 0-.24-.14-.04.64-.19.77-.17.26-.32.87-.42 1.12-.23.23.07.14-.04.27-.28.11-.54.9-.5 1.16.02.31-.32.47-.23.89-.09-.06-.31.12-.12.27.09.04-.1.02 0 .15.18.33-.23 0-.12.27.12.13-.25.24-.23.35.06.2-.38.79-.23.81 0 .23-.34 0-.27.23-.19.65-.56 1.86-.89 2.08-.09.11.26.37-.04.35-.08.07-.28.29-.35.42.09 0-.15.32-.15.23-.12-.02-.06.43-.27.23.05-.3-.13-.86-.39-1.16.06-.15-.48-.34-.27-.54-.05-.34-.34-.78-.39-.97-.08-.32-.18-.63-.35-.93-.11-.15-.06-.53-.42-.54.19-.13.2-.57.04-.81-.22-.48-.52-1.02-.5-1.35-.14-.39-.43-.44-.39-.89q.08-.15-.04-.19c-.15-.11-.07-.42-.15-.58-.08 0-.12-.08-.08-.15.03-.06-.28-.27-.19-.31 0-.04 0-.08-.04-.08-.08-.09 0 .06-.08.04.11-.18.06-.32-.08-.54-.06-.21 0-.2-.19-.31-.09-.21.15-.41-.12-.66-.27-.08.08-.2 0-.31.01-.43-.22-.24-.31-.58-.1-.35-.29-.32-.31-.66.02-.18-.09.1-.08-.08-.19-.18.11-.65-.12-.73-.31-.12-.33-.8-.66-.66-.04.1-.02-.07-.08-.04-.04.04-.04 0-.04 0q0-.08-.08-.04c-.18.06.06.27-.15.12-.49-.39-1.04-.06-1.62-.23.01 0-.75-.09-.89-.08-.08-.15-.3 0-.39-.12-.12 0 .04.2-.12.04-.11-.07-.35 0-.46-.04-.02-.12-.08.24-.08.04-.02-.13-.55-.1-.58-.04-.08.06.03-.14-.27-.15-.5-.08-.54-.08-.54-.04-.12.01-.26-.16-.39.08.07-.35-.49.08-.39-.08-.12-.25-.86 0-.97-.08-.03-.2-.54.18-.5 0 .05-.11-.29.03-.19.08 0 .03-.29 0-.39 0-.54-.23-1.53.3-2.05.31-.09-.16-.45.2-.19.15.04-.06.06.14.15.15.14.1.71.63.97.89-.15.19.06.94.27 1.16.33.1-.25.32.08.39-.03.81.25 1.22.42 2.05 0 .16.16.48.23.58-.13.17.05.57.27.58-.02 0-.02.43-.08.39-.22.01-.18.24-.19.35-.17.8-.11 1.7-.08 2.55-.15-.02.11.9 0 .77.01 1.98-.05 4.75.12 6.14-.07.6-.07 1.38-.27 2.05q-.04.27.08.35c.19-.06.06.54.15.58.08.12.02.12-.04.04-.05-.02-.05.26-.12.15-.07.51-.41 1.3-.58 1.81.08.19-.31.06-.19.19.08.17-.16.26-.27.31-.13.49-.88.78-1.27 1.08.3 2.17 3.97 1.31 5.37 1.51.52.14 1.75-.5 2.08-.5.22-.44-.42-.58-.66-.81.02-.26-.46-.27-.39-.46.12-.08.08-.08-.12-.31-.25-.16-.23-.75-.46-.66-.11 0-.09-.29-.15-.35-.16-.17.06-.53-.12-.73.02-.71-.43-1.63-.27-2.43.04.04.05-.33-.04-.42-.14-.04.2-.59-.15-.73.12-.26-.06-.72.04-1.12.11-1.17-.33-.73-.04-1.35.12-.04 0-.77.19-.66.23-.06-.03-.41 0-.5-.14-.04.14-.11 0-.23-.16-.01-.04-.56-.15-.5-.24-.32.34-.83.04-1.16l-.08-.12c-.16-.04-.04-.18.04-.04-.26-.27.13-.78-.04-1.04-.36-.27.13-.46.23-.73-.41-1.25.5 1.3.93 1.04.25.05-.19.18-.04.46.12.2.19-.31.23.04.09.55.24.74.46 1.12.43.63.73 2.09 1.2 2.47.14-.09-.04.31.04.42.48.7.55 1.32 1 1.97.24.59.52 1.46.77 2.01.06.37.52.67.62.85-.14.32.08.82.23 1.27.04.23.27.45.5.54.06-.02.06.09 0 .08-.16.06.21.3.08.42-.12.09.04.17.12 0 0-.18.1.08.08.12-.06.11.16.14-.08.15-.21 0 .25.5.31.46-.25.11.92 1.47 1.24.85.04.2.17.13.27.12.19.12.36-.11.46-.08.68-.23 1.75.22 2.01-.66.04.03-.09-.81.08-.73.18.02.06-.25.19-.35.08-.14-.04-.32.12-.42.05-.23.02.06.08-.04.1-.1-.04.19.04.15.07-.02.02-.24.12-.27.27-.14-.23-.67.31-.7.14-.45.32-1.06.46-1.47-.29-.81.23-.09.27-.62.27-.62.78-1.27.89-1.97-.04 0-.04-.04 0-.08 0-.08.12.15.15-.08-.04-.18.13.05.19-.08 0-.04-.15-.15-.15-.12-.05.06-.06-.61.15-.31.32-.4.49-1.69.85-2.32 0-.05.09-.13 0-.15-.09.03.19-.22.08-.27 0-.11.24.07.19-.08-.1-.08.25-.54-.04-.54-.21-.12.05-.24.15-.04.09-.27.23-.7.39-.93.09.05-.01-.19.12-.15.14.04-.03-.32.08-.31.16-.13.12-.53.35-.69.01-.03.08-.24 0-.15-.04.18-.15-.31-.04-.12.15.14.13-.12.23-.12.05-.12.1-.3.19-.42-.08-.4.19-.39.35-.77.42 1.28-.46 3.57.46 4.32-.1.07-.15.15-.23.23.02.23.24-.33.35-.08.09.15-.14.09-.04.19-.02.14-.12-.31-.12-.04-.05.26-.05.13-.12.04-.17.31.19 1.66.04 1.58-.04 0 .03.13.04.08.09.48-.16 1.2.08 1.58-.17-.07-.17.12-.08.19.13 0 .09.08.15.12.14.46-.17-.03-.15.5-.04.15.15.08.08.15-.14.18.07.42.04.5-.04.34.07.69.08 1.04.04.05.25.3.08.27-.24-.5-.29.42-.31.73-.42.86-.75 1.75-1.66 2.36-.52.22-.11.86.19 1 .79.98 2.33.32 3.4.31 1.48-.05 3.7.47 5.06.04.53.01 1.3.44 1.81 0 .06-.24.05.06.12.08.37.15.36-.53.12-.62zM114.31 39.2c-.15-.56-.13-1.38-.19-2.08-.02-.48-.27-.98-.12-1.51.06-1.33-.24-2.3-1.74-2.78-.34-.16-.74.04-1 .15-1-.12-2.28-.05-3.47-.19-2.85-.3-5.36-.12-8.15.39-.48-.05-.99.12-1.39.08-.14.04-.59.18-.69-.04-.24-.12-.17-.32-.39-.04-.12.2-.69.07-.66.15-.13.04-.33-.07-.5-.04-.17-.06-.18.2-.31.04-.05-.09-.22.1-.27 0-.76.02-1.7-.18-2.55.19-.31-.02-.73 0-.97.12-.14-.01-.32-.09-.58-.08-.71-.14-.35.63-.54 1.04.02.58-.28.91-.04 1.47.2.12-.03.88-.12 1.08-.12.27.06.87.04 1.12-.1.29-.1 1.22 0 1.47.04.43-.35 1.27-.12 1.78l.04-.04c-.02.55.37 1.14.97 1.31.42 1.01.65-1.99.85-2.39.15-.47.27-1.16.7-1.54-.08-.16.28-.18.12-.42h.04c.13.04.04-.29.15-.35.13-.14.21-.32.31-.5-.12.59.53-.3.62-.27.07.18.06-.19.12-.08.05.2.16-.22.23-.27.11-.12.47-.31.73-.5.05-.41.62-.35.89-.69.21-.26.88-.19 1.24-.5.34-.07-.04.57.15.81.06.18.04.47.08.62-.09 1.18.22 1.84.19 3.2-.02.78.03.58.23.77-.56.17.03 1.09-.12 1.89.19.27-.13 1.45.27 1.58-.35.26-.01 1.02-.08 1.43-.04.62-.07 1.52.08 2.05l-.04.04c-.14.09.07.29 0 .35-.11.14.13.02.04.12-.08.06-.14 1.39.12 1.27-.44 2.64.02 3.53-1.89 5.83-.47.98.51 1.47 1.31 1.74.12.08.36-.16.42.12.09.01.51-.09.62-.04.21.18.92-.1.93.04.02.2.22-.02.31.08 1.06.04 1.01-.08 2.28.15.21.1.77.07.85.04.16.08.55.09.66-.04.38.02 1.39-.15 1.81-.35.34.04.4-.25.73-.19.16 0 .12-.39.23-.23.14 0 .46.06.69.12.27-.74.17 0 .66-.04.3 0-.27-.4 0-.46.08 0 .11-.14.04-.15-.17.23-.04-.17-.27-.19-.18-.16-.39-.27-.5-.5-.22-.33-.21-1.07-.5-1.35-.04-.19-.42-.48-.19-.66-.19-1.15-.31-2.69-.42-4.01-.34-2.36-.28-4.99-.35-7.26-.06-.65-.19-1.4-.27-2.12.11-.12 0-.24.04-.35.11-.09-.07-.12-.08-.19-.08-.11.15-.07.04-.35.13-.69.31-1.63.04-2.35-.14-.27.54-.59.54-.77.02.05.06-.58.15-.5.12.08.12.04.12-.08.1-.82.95-.36 1.39-.54-.23.26.59.12.77.31.47.05 1.04.86 1.35.93.72.69 1.81 1.77 2.35 2.86.27.83.35 1.97.93 2.59-.1.15.21 0 .15.19 0 .21.27-.23.23.08 0 .08.04.12.04.12.12-.11.32-.44.31-.66.04.02.28-.47.15-.35-.11.08-.18-.14-.04-.12.21.11 0-.12.12-.04.32-.23.02-1.06.08-1.47zM87.83 43.68c-.1-.57-.1-.45-.23-.89.06-.3-.11-.48-.23-.54-.21.02.37-.26.08-.23-.12-.02.01-.5.08-.5-.13-.36-.26-.62-.39-.97-.22 0 .23-.34 0-.39-.1-.15-.21-.57-.23-.66-.17-.12-.23-.4-.39-.19.03-.23.19-.6-.27-.66.31-.11-1.38-2.05-1.51-1.93-.22.06-.03-.36-.23-.46 0-.08-.15 0-.15-.08-.03-.19-.34-.2-.35-.39-.22 0-.28-.25-.42-.31-1.67-1.91-4.27-2.43-6.64-2.55-.25.03-.95.02-.93.12-.1.18-.06-.27-.19-.19-.19-.31-.24 0-.31.15-.32.29-.16-.15-.27-.04-.24-.1-.52-.02-.77 0-.43-.46-2.28.87-2.2-.12-.4.8-.54-.03-.62.15.17.28-.67.08-.73.19-.66.16-1.81.51-2.28 1 .09-.02-.1.16-.08.08.16-.19-.2 0-.19.12-.08.07-.25-.1-.31.15-.12.28.04-.06-.12-.04-.08 0-.15.15-.12.19.11.09-.15.12-.04-.04.03-.23-.42.16-.46.12-.4.06-.54.46-.66.5-.03-.07-.96.53-.69.62-.2-.13-.53.25-.62.42-.09-.02 0 .13 0 .15-.01.1.09-.1.08 0-.03.19-.16-.16-.27-.04-.12.07-.04.07 0 .12-.04.02-.35.14-.19.12.08 0 .08.12.04.15-.08.1-.15-.17-.19 0-.11.05-.34.47-.46.58.03.06-.16.17-.15.27-.18.15-.7.89-.62 1.08-.26.14-.38.97-.54 1.27-.2.3-.38.91-.42 1.12-.46.35.1.99-.35 1.2-.66 1.7-.5 4.05 0 6.06-.13-.07.09.5-.08.39-.42-.22.23.32.23.31.09.02-.1.14 0 .19.03.8.36 1.5.58 2.2.03-.19.1.04.19-.04.22 0-.15.15.08.15.09-.07.14.03.23 0 .06.33.21.03.23.23-.08.37.1.14.15.19.08.08-.11.26.08.31.44.51 1.26 1.76 1.78 1.7q-.04.12.04.08c.18-.18.27.62.39.35.11-.09.08.21.19.23.25.18.15.08.31 0 .12 0-.02.4.23.31.19-.01.78.94 1.08.62-.02.1.49.58.69.46.28-.11.11.18.39.15.04.01.03.17.12.08.13.09.17-.01.27.04.18.17.25.17.31-.04.27.32.76.29 1.16.5.04.08.15.08.15.04.08-.08 0 .15.08.08.04 0 .04-.04.04-.08-.05-.17.21.42.5.23-.01-.09.27.2.27.12-.02-.08.09.06.08-.04.04-.15.12.12.19.12.15 0 .46.21.54.12.4.06.78.31 1.16.23.19-.21.32.2.39 0 .04-.04.15-.08.15 0-.02.06.09.06.08 0-.04-.03.21-.14.12.04-.07.15.05.04.12.04 0-.21.23-.07.31 0 .01.05.13-.08.27-.04.19.08.28-.18.5 0 .04 0 .04-.04.04-.08 0-.23.12.09.35.04.29.08.31-.31.39-.08 0 .06.16-.11.19.04q.08.04.12 0c-.03-.17.18.14.23.04.03-.08.04.04.12.04.04.04.08 0 .08-.04.02-.18.27.12.27 0-.01-.08-.29-.18-.08-.23.06-.19.1-.21.23.04.15-.26.36-.34.54-.31.13-.13.52-.05.46-.35 0-.08.1-.03.08.04-.11.04.61.1.5 0 .18.18.12.08.23.04.04.08.08.04.08-.08-.05-.26.42 0 .54-.23.11-.19.25.03.27-.12.09-.14.37-.19.35-.39.42.07.9-.25 1.24-.46.18-.11.43.01.62-.19.15-.1.49-.29.58-.39.09.12.19-.47.23-.19.21-.19.87-.64 1-.89.03-.19.22.24.35-.31.04.04.5-.46.46-.5-.1-.15.07-.4 0-.04.45-.62.88-1.56 1.12-2.16.2.14.21-.75.27-.89.23-.5.38-1.35.19-1.7-.2.18.08-.15.23-.12 0-.42.19-1.02.27-1.74.19-.02-.11-.8.08-.58.03.13.19-.37.08-.27-.25-.57.33-1.27.19-1.78.04 0 .08-.04.08-.19zm-8.46 6.71c-.4 1.21-.94 4.97-2.66 4.67-.25-.38-.68-.6-1.04-.35-.11.22-.08.09-.23-.04 0-.45-.84-.35-.85-.73-.03-.3-.29-.28-.35-.54-.27-.24-.54-.78-.89-.77-.1-.25-.15-.53-.46-.66-.17-.17-.21-.78-.5-.81-.11-.01.11-.19.04-.23-.11-.07-.14.16-.15-.23-.08-.38-.38-.35-.42-.66-.18.09.02-.46-.04-.5-.03-.09-.18-.42-.39-.5-.06.07-.08-.6-.12-.27-.07.19-.02-.37-.08-.42-.2-.12.06-.09-.04-.19-.15 0-.09-.21-.15-.27-.09.06.03.24-.12.15 0-.16.05-.38-.08-.08-.18.02.22-.83-.15-.58-.11-.08.18-.3.08-.35l.04-.12c.21-.22-.55.01.12-.46 0-.27-.46-.59-.12-.85.11-.35-.29.12-.27 0 .48-1.14-.35-.02-.08-.85-.12-.24.26.11.23-.12-.41.13.1-.36-.08-.35-.08 0-.23-.18-.19-.31l.12.19c.41-.22.08-.35.12-.58 0-.02-.02-.74-.12-.73-.25-.06.38-.68.15-.69-.09.06-.17-.31-.12-.27.02.07.13-.24.08-.19-.27-.29.09-.28 0-.42-.04 0 .15-.4-.04-.39.02-.31 0-1.15.15-1.66.15-.26.04-.09 0-.19.11-.15-.13.04-.12-.08.01-.11.3-.03.27-.19.02-.13-.17-.03-.08-.12 0-.1.13.09.12 0 .3-.2-.12-.25-.04-.42.08.02.07-.19.15-.19.02.05-.16.31-.04.23.12-.06.3-.15.31-.39.03-.44.5-.91.39-1.2-.08 0-.04-.08.08-.08.17-.03.05-.17.19-.19.09-.09-.05-.46.23-.35.48.08.87-.07 1.16-.35 0-.22.28 0 .39-.08.52.34 1.34.4 1.85.69.27.23.97.12 1.08.66.52.77.93 1.62 1.39 2.24-.02.08.13 0 .04.08-.17.05.11.28.15.27.09.19-.14.19.15.19.6 3.45 1.12 7.12.93 10.62zM190.87 34.37c.33-.01.39-.12.69-.12.43.14.46-.53.19-.66-.41.03-.86-.64-1.27-.27-.16-.48-2.16.11-2.2-.08-.39.11-.87.11-1.24.04-.19.15-.09-.11-.23-.12-.12-.03-.38 0-.39 0-.14-.11-.25.12-.27 0 0-.24-.93-.05-.66.04.08 0 .11.54.04.35-.06-.21-.22.02-.35-.19.02.38-.17-.28-.27.12-.08.15.58.33.27.42-.28.16.19-.04.23-.04.06.18.06.21.27.23.21-.02.18.25.31.31q.08 0 .04.04c-.15.12.12.17.04.35.28.72.05 2.53-.08 2.82-.2.7-.43 1.52-.58 2.05.04 0 .04-.04.04-.08-.03-.07.22.21.04.12-.29.11-.12.68-.27.93-.23.37-.28 1.58-.35 1.74-.21-.07-.07.63-.19.62-.1.15-.19.32-.12.62.1.2-.32.26-.15.46 0 .15-.25.48-.27.73-.23.67-.34 1.84-.7 2.51 0 .33-.29 1.89-.58 1.81-.14.04.18-.31.12-.31-.08.04-.15 0-.15-.08.36-.29-.14-.37-.08-.62.02-.06-.26-.24-.12-.23.21-.05-.09-.47-.23-.5.04-.16-.21-.2-.19-.39.23.29.06-.65-.23-.23-.05-.11-.2-.47 0-.42.12.04-.12-.24-.04-.19.21-.02-.09-.15-.08-.23q0-.08-.04-.04c-.06.27-.26-.3-.15-.27.08 0 0 .21.08.19.19-.05-.2-.36-.04-.39.06-.1-.13-.12-.15-.23-.1-.03.05-.19-.12-.15-.35-.1-.12-.37-.27-.66-.23-.19.02-.4-.27-.62-.04-.03-.1-.1-.08-.15-.41.4-.02-.09-.15-.19q-.08-.08-.04-.12c.14-.18-.24-.15-.19-.27.19.03.44-.03.27-.27-.08.04-.12-.08-.08-.27.04-.35-.16-.05-.15-.31 0-.19-.05-.03-.08 0-.05 0-.04.29-.12.19q.04-.08-.08-.08c-.17.14-.09-.31 0-.27.08.08.19-.8.04-.46-.17.29-.02-.11-.23 0-.19.11-.03-.47 0-.39.38-.06-.16-.53-.23-.62-.15-.01-.4-.48-.15-.46.1.29.25-.17.04-.15-.06.08.08-.22-.04-.23-.28.27-.15.11-.27-.08-.21.04-.19-.44.04-.39.08 0 .12-.08.04-.08-.13-.31-.02-.95-.42-1.2-.13.02-.09-.24-.04-.35.26.61.05-.87 0-1-.28-.16.3-.72-.04-.73-.12.03-.08-.12-.04-.15.09-.03-.07-.16 0-.15-.26-.21.36-.61.12-.93-.07.12-.06-.06-.08-.08-.13-.19.44-.02.12-.39-.12-.4.51-.05.27-.42-.53-.47-1.39-.37-2.05-.31-.23-.17-.15.24-.42-.04-.24-.17-.41 0-.46-.15-.08.03 0 .18-.12.04-.3-.14-.2.2-.31.08-.21.08-1.08-.09-1.27.12l-.04-.04c.12-.16-.87-.16-.81-.12 0 .04-.04.04-.04 0-.01-.04-.16.04-.15-.04-.06-.06-.26.18-.23 0-.23-.18-.65.05-.89 0-.15 0-.53-.08-.58.08.07.12-.01-.02-.08.04-.05-.26-.23-.03-.42-.12-.04.07-.58-.03-.81.08-.35-.06-.37.1-.58.12 0 .04-.08.04-.08-.04.06-.1-.36.15-.39.04-.37-.02-.23-.06-.93-.19-.28-.06-.16.25-.35.04-.11-.03-.52.04-.66.04-.08.07-.16-.11-.27.04q-.08.08-.08-.08c-.06-.19-.21.06-.35 0 .17.15.32.18.35.46 0 .19-.39-.15-.31.23-.15.05.2.31.23.27 1.27 1.32 2.71 2.88 3.2 4.86.19.29-.33.43-.19.77-.24.56-.52 1.27-.66 1.89-.01-.06-.43 1.01-.42 1.39-.25.34-.43 1.26-.46 1.58.06.11.12.39-.04.19-.13.03 0 .41-.04.39-.22.05-.12.3-.31.27.12.04.13.23.04.19-.16-.07-.14.94-.39.89v.12c.05.2-.15.12-.08.19.17 0-.16.23-.08.27.03.17-.16.33-.15.73-.15.24-.75 1.98-.58 1.16.11-.23-.15-.6-.08-.73.12-.06-.03-.04-.08-.08-.03-.05-.17-.2 0-.12.14.04.02-.32-.08-.12-.11.13.06-.72-.23-.66-.07-.19-.15-.49-.23-.54-.02-.22.03-.46-.08-.7.02-.32-.27-.44-.23-.58.06-.01.05-.09 0-.08-.1.06-.05-.47-.19-.5-.06-.13-.05-.54-.31-.35.01-.09.17-.13 0-.23-.12-.1.03-.78-.35-.97-.06-.13-.07-.91-.19-1 .16-.18-.25-.24-.19-.39.03-.18-.31-.23-.15-.42.08 0 .04-.08-.04-.08-.18-.05.11-.14 0-.19 0-.04-.04-.08 0-.08.04-.04-.12-.15-.15-.12-.03-.05.02-.43-.04-.5-.2-.44-.03-1.09-.27-1.47-.5-.7.2-1.58-.23-2.2-.44-1.05.03-2.33.23-3.32.15-.17-.3-.02-.39-.27-.28-.07-1-.24-1.54-.15-.07.01 0 .29-.15.15-.08-.14-.49.05-.54.04-.32.05-.06-.2-.42-.04-.14.22-.19-.15-.31 0-.06.05-.12.06-.12 0 .04 0 .04-.04 0-.08-.11 0 .07.31-.08.19-.14-.23-.06-.12-.27-.15-.32-.03-.63-.08-.89.08.31-.2-.58-.08-.66-.08-.19-.1-.05.12-.19.08-.08 0-.12-.08-.04-.08.07-.26-.29.17-.42 0 .09-.05-1.04-.08-.89.04 0 .08-.08.12-.08 0-.06-.03-.08-.18-.12-.12-.02.08-.21-.08-.27.08-.04.1-.08-.21-.15-.04-.08.04-1.48-.23-1.51 0-.21-.32-.08.16-.39-.04-.07.07-.12-.09-.12 0 0 .04 0 .08.04.08.09.12-.08.08-.15.04-.02-.14-.35-.14-.39 0-.2-.12-.6.11-.73.12-.21-.15-.11.12-.19.08-.11-.1-.13.06-.27.04-.09 0-.41.06-.54.19-.18-.05.34.38.08.27-.18-.04-.42.02-.27.23-.02.13.32-.04.39.19.29.22.59.41.77.73.14.16.02-.06.12-.08.06-.06.07.29.04.31.01.02.3.54.42.35V36c-.06.36.28.86.42 1.2.22.03.04.44.35.42.23.09.44.47.39.58.36 1.41 1.16 2.63 1.2 4.13-.04.15 0 .19.27.15.33-.02.14.08.19.12.01.22.79 1.39.42 1.47-.42-.03.42.51-.08.54-.18-.12.07.31.08.19 0-.04.04-.12.12-.12.22-.24.26.62.12.5-.15-.02.18.35.15.46.22.18.1.62.31.81.21.05.31.68.46.66.08.48.52 1.48.73 2.08.05.12.04.89.31 1.12.27 1.01.88 2.58 1.27 3.71.46.95.65 2.7 1.89 2.86.24.04.53.54.93.39.08-.06.18-.14.23-.19.05.14-.15.34.19.31.57-.09.5.28.81.08.71-.98 2.33-.55 2.39-2.08.32-.43.54-.9.77-1.43.1-.28.06-.73.39-.97.08.04.12-.6.15-.69.17-.23.36-.57.35-.97-.15-.33.07-.16.19-.5 0-.23.07-.3.15-.54.07-.19.15-.42.19-.62.08.04.39-.39.31-.46.11-.22.55-.78.69-1.12.07-.32.22-.74.35-1.04.31-.15.32-.68.39-.85.22-.14.18-.49.23-.69.06-.13.38-.53.23-.62-.13-.09.17-.25.23-.23.09-.09.19-.58.19-.54.11 0 .16-.31.19-.35-.3-.12-.14-.19-.08-.42.14-.37.34.2.39.27.8 1.58 1.61 3.63 2.35 5.1.29.43.56 1.62.97 1.93-.02-.09.14.1.08.08-.19.11.49.59.12.5.3.41.48 1.05.85 1.47 0-.04.04 0 .04 0 0 .09.33-.12.15.08-.22 0 .06.52.04.46.09 0 .03.48.15.35.13.4.56 1.05.89 1.35.34.47.45 1.18.85 1.54.49.69 1.42.48 2.2.46.04-.11.18.17.31.12.34.07 1.27.11 1.35-.27.08-.17.53-.63.23-.85-.13.06-.15-.21-.08-.15.37-.49.35-1.46.42-1.97.18-.4.24-.68.31-1.12.17.06.07-.2.15-.23.07-.06.15-.14.08-.23-.1-.1.4-.09.15-.35-.09-.16.2-.28.19-.42-.06-.15.2-.29.15-.42-.01-.17-.03-.48.08-.58 0-.13.18-.02.15-.15-.09-.13.21-.2.04-.31-.03-.21.33-.58.31-.81.25-.11.28-1.1.54-1.31.03-.42.15-.9.23-1.31 0 0-.18-.33.08-.31.16-.04-.12-.16 0-.27 0-.16.06.06.12-.04h.08c.1-.33.42-1.05.58-1.54.08-.06.05-.68-.04-.27-.06-.16-.13-.17-.15-.31.08-.1.12.17.19 0q.08-.04.08 0c.08.25.08-.71-.15-.58.08-.22.42.31.23-.08-.13-.43.28.18.35-.54 0-.24-.06 0-.12-.08-.16-.09.06-.21 0-.23-.18.01.04-.23-.12-.15v-.08c.05-.16.17.03.23.08.08.22.28-.53.15-.58 0-.06.3-.41.15-.42-.04 0-.02.17-.08.08-.01-.1-.11.03-.12-.04.49-.08-.02-.23.35-.31q.04-.08-.04-.08c-.05-.07.36-.3.23-.42-.49-.25-.03-.79 0-.12.17-.22-.1-.8.12-.96.11.1.17.17.23-.04-.05-.22.11-.37.12-.42-.01-.1-.09-.43.04-.12.32.13-.11-.5.27-.35.14-.52.35-1.13.46-1.58.04.04.08 0 .08 0 0-.09.1.15.08-.08-.03-.15.07-.08.08-.15 0-.06-.11.04-.12-.08-.1-.09.16.03.12-.08-.02-.05.09-.44.19-.46.16.03-.07-.17.12-.15.09-.03-.23-.33.23-.15-.17-.37.38-.37.19-.62-.07-.04.45-.13.15-.19-.09.01.09-.17 0-.19-.08-.09.15.04.12-.15 0-.15.04-.19.12-.12.04.18.2-.23.19-.04-.03.21.17 0 .31.04zM267.89 22.08c-.08 0-.12.04-.12.08-.04.17.3-.08.12-.08z" fill="#fff"/><path d="M279.93 11.46c.13-.08.06-.67-.04-.66-.13-.15 0-.8-.23-.85-.11.02-.05-.21-.12-.12-.09.08-.02-.15.08-.12.12-.08.12-.12 0-.12-.15-.05.04-.27 0-.39-.1-.11.08-.04.08-.12-.12-.24-.17-.49-.27-.69-.27-.33.05-.62-.27-1-.08-.04-.01-.37-.08-.31-.17-.12-.23-.4-.39-.19-.05.04.23-.7-.19-.62q-.12 0-.08-.04c.21-.21-.39-.75-.46-.85-.36-.29-.62-1.01-1.04-1.08-.22.06-.03-.36-.23-.46 0-.08-.15 0-.15-.08-.03-.19-.34-.2-.35-.39-.22 0-.28-.25-.42-.31-1.67-1.91-4.27-2.43-6.64-2.55-.25.03-.95.02-.93.12-.1.18-.06-.27-.19-.19-.19-.31-.24 0-.31.15-.32.29-.16-.15-.27-.04-.24-.1-.52-.02-.77 0-.43-.46-2.28.87-2.2-.12-.4.79-.54-.03-.62.15.17.28-.67.08-.73.19-.66.16-1.82.51-2.28 1 .09-.02-.1.16-.08.08.16-.19-.2 0-.19.12-.08.07-.25-.1-.31.15-.12.28.04-.06-.12-.04-.08 0-.15.15-.12.19.11.09-.15.12-.04-.04.03-.23-.42.16-.46.12-.4.06-.54.46-.66.5-.03-.07-.96.53-.69.62-.2-.13-.53.25-.62.42-.09-.02 0 .13 0 .15-.01.1.09-.1.08 0-.03.19-.16-.16-.27-.04-.12.07-.04.07 0 .12-.04.02-.35.14-.19.12.08 0 .08.12.04.15-.08.1-.15-.17-.19 0-.11.05-.34.47-.46.58.03.06-.16.17-.15.27-.18.15-.7.89-.62 1.08-.26.14-.38.97-.54 1.27-.2.3-.38.91-.42 1.12-.46.35.09.99-.35 1.2-.66 1.7-.5 4.05 0 6.06-.13-.07.09.5-.08.39-.42-.22.23.32.23.31.09.02-.1.14 0 .19.03.8.36 1.5.58 2.2.03-.19.1.04.19-.04.24.02-.17.13.08.15.09-.07.14.03.23 0 .06.33.21.03.23.23-.08.37.1.14.15.19.08.08-.11.26.08.31.44.51 1.26 1.76 1.78 1.7q-.04.12.04.08c.18-.18.27.62.39.35.11-.09.08.21.19.23.25.18.15.08.31 0 .12 0-.02.4.23.31.19-.01.78.94 1.08.62-.02.1.49.58.69.46.28-.12.11.18.39.15.04.01.03.17.12.08.13.1.17-.02.27.04.18.17.25.17.31-.04.27.32.76.29 1.16.5.04.08.15.08.15.04.08-.08 0 .15.08.08.04 0 .04-.04.04-.08-.05-.17.21.42.5.23-.01-.09.27.2.27.12-.02-.08.09.06.08-.04.04-.15.12.12.19.12.15 0 .46.21.54.12.4.06.78.31 1.16.23.19-.21.32.2.39 0 .04-.04.15-.08.15 0-.02.06.09.06.08 0-.04-.03.21-.14.12.04-.07.15.05.04.12.04 0-.21.23-.07.31 0 .01.05.13-.08.27-.04.19.08.28-.18.5 0 .04 0 .04-.04.04-.08 0-.23.12.09.35.04.29.08.31-.31.39-.08 0 .06.16-.11.19.04q.08.04.12 0c-.03-.17.18.14.23.04.03-.08.04.04.12.04.04.04.08 0 .08-.04.02-.18.27.11.27 0-.01-.08-.29-.18-.08-.23.06-.19.1-.21.23.04.15-.26.36-.34.54-.31.13-.13.52-.05.46-.35 0-.08.1-.03.08.04-.11.04.61.1.5 0 .18.18.12.08.23.04.04.08.08.04.08-.08-.05-.26.42 0 .54-.23.11-.19.25.03.27-.12.09-.14.37-.19.35-.39.42.07.9-.25 1.24-.46.18-.11.43.01.62-.19.15-.1.49-.29.58-.39.09.12.19-.47.23-.19.21-.19.87-.64 1-.89.03-.19.22.24.35-.31.04.04.5-.46.46-.5-.1-.15.07-.4 0-.04.45-.62.88-1.56 1.12-2.16.2.14.21-.75.27-.89.23-.5.38-1.35.19-1.7-.2.18.08-.15.23-.12 0-.42.19-1.02.27-1.74.19-.02-.11-.79.08-.58.03.13.19-.37.08-.27-.25-.57.33-1.27.19-1.78zm-8.38 6.53c-.4 1.21-.94 4.97-2.66 4.67-.24-.38-.68-.6-1.04-.35-.11.22-.08.09-.23-.04 0-.45-.84-.35-.85-.73-.03-.3-.29-.28-.35-.54-.27-.24-.54-.78-.89-.77-.1-.25-.15-.53-.46-.66-.17-.17-.21-.78-.5-.81-.11-.01.11-.19.04-.23-.11-.07-.14.16-.15-.23-.08-.38-.38-.35-.42-.66-.18.09.02-.46-.04-.5-.03-.09-.18-.42-.39-.5-.06.07-.08-.6-.12-.27-.07.19-.02-.37-.08-.42-.2-.12.06-.09-.04-.19-.15 0-.09-.21-.15-.27-.09.06.03.24-.12.15 0-.16.05-.38-.08-.08-.18.02.22-.83-.15-.58-.11-.08.18-.3.08-.35l.04-.12c.21-.22-.55.01.12-.46 0-.27-.46-.59-.12-.85.11-.35-.29.12-.27 0 .48-1.14-.35-.02-.08-.85-.12-.24.26.11.23-.12-.41.13.1-.36-.08-.35-.08 0-.23-.18-.19-.31l.12.19c.41-.22.08-.35.12-.58 0-.02-.02-.74-.12-.73-.25-.06.38-.68.15-.69-.14.02-.03-.12-.12-.19-.12-.06.1-.08.08-.23.01 0-.18-.36-.08-.35.1.11.19-.51.04-.5.02-.31 0-1.15.15-1.66.15-.26.04-.09 0-.19.11-.15-.13.04-.12-.08.01-.11.3-.03.27-.19.02-.13-.17-.03-.08-.12 0-.1.13.09.12 0 .3-.2-.12-.25-.04-.42.08.02.07-.19.15-.19.02.05-.16.31-.04.23.12-.06.3-.15.31-.39.03-.44.5-.91.39-1.2-.08 0-.04-.08.08-.08.17-.03.05-.17.19-.19.09-.09-.05-.46.23-.35.48.08.87-.07 1.16-.35 0-.22.28 0 .39-.08.52.34 1.34.4 1.85.69.27.23.97.12 1.08.66.52.77.93 1.62 1.39 2.24-.02.08.12 0 .04.08-.17.05.11.28.15.27.09.19-.14.19.15.19.6 3.45 1.12 7.12.93 10.62zM148.71 23.78c-.1-.26.3-.63-.31-.58q-.15.04-.15-.12c-.05-.15-.27-.01-.23-.27-.05-.19-.17-.42-.23-.12-.26.03 0-.49-.31-.42-.51.27.05-.71-.5-.58-.37.22.27-.87-.66-.96.05-.07.14-.06 0-.19-.1-.04.11-.12.12-.08.14.04-.06-.29-.08-.15-.07.15-.16-.23-.12-.35.01-.1-.09.1-.08 0-.03-.2-.02-.7-.19-.77 0-.17-.16-.19-.08 0q.04.08 0 .04c-.15-.21-.13-.53-.19-.77-.07-.04-.23-.55-.27-.35-.2.23-.12-.78-.31-.89-.03-.23-.28-.13-.23-.35q-.08-.04-.12 0c.01.14-.26.04-.12 0 .1-.03-.09-.18 0-.19.08.03.04.1.19-.04.05-.08-.24-.87-.39-.97-.08.05 0-.12-.08-.15-.08-.01 0 .21-.08.12-.03-.12-.07-.04-.04-.19.18-.14-.14-.03-.12-.15 0-.04 0-.08.04-.04.08.02-.1-.48-.19-.42-.08 0 .12-.2-.04-.23-.13-.46-.61-1.02-.77-1.27.06-.36-.03 0-.12-.23-.03.07-.07-.02-.04-.08.17-.08.06-.19.08-.23-.19-.31-.28-.94-.69-.97-.06-.09.26-.41-.19-.42-.32-.02.13-.68-.08-.69-.07.1-.14-.2-.08-.19.03-.13-.69-.39-.39-.46.07.02-.08-.41.12-.23.11.08 0-.27-.15-.23-.22 0 .12-.5-.08-.35-.15 0 .02-.17-.15-.19 0-.11.1.01.12-.08-.14-.4-.45-.83-.58-1.08.17-.26-.13.03-.08-.19 0-.31-.32-.47-.42-.66.07-.15.04-.37.15-.39.05-.14-.37-.21-.19-.31.19-.42-.5-1.38-.42-1.7-.02-.05-.09-.4-.15-.46.12-.08.04-.35-.12-.35-.23-.04.12-.59-.39-.62.28-.52-.34-1.92-1.04-2.05-.16.23 0-.14-.08-.12-.07-.06-.02.2-.12-.04-.08-.04-.12-.12-.12-.15-.21-.06-1.06-.18-1.24-.23-.09-.05-.31.26-.35.04-.23-.2-.35-.16-.08.08-.15-.01-.44-.08-.46-.15 0 .12-.12.08-.19-.04-.15-.17-.02.09-.12 0-.36-.11-.46.2-.7.23-.33 0-.39.3-.77.23-.45-.02 0 .16-.04.31.38.24-.13.5-.12.89-.31.77-.58.98-.81 1.81-.16.04-.22 1.14-.58 1.08-.12-.08-.31.08-.27.23.07.22-.48.13-.23.31.4 1.05-.75 2.52-1 3.63-.83 2.38-1.59 4.23-2.59 6.52-.85 2.29-2.21 4.06-3.32 6.06.02.54-.15-.07-.58.42-.48.72-.68.91-1.51.81.08.31.43.75.54.93-.02.17.14-.03.12.15-.08.43.76.47.97.19.39-.22 1.46.38 1.89.12.37-.31 1.06.38 1.58 0 .31 0 .74 0 1.08-.08.11-.04.15.04.15-.04-.03-.15.26.14.27-.04.05-.1.08.11.12.12.15-.01.2-.24.31-.19.25 0-.08-.2.08-.27.07-.11-.46-.45-.54-.66-.4-.14-.34-1.05-.62-1.24-.08 0-.03-.1.04-.08.19.12.1-.67.12-.85.04.01.02-.25-.08-.23-.09-.02.1.11 0 .12-.12 0-.08-.23.04-.23.22-.09-.03-.64.19-.69.12-.18.25-.47.15-.7-.06 0 .1-.13.12-.15.11.06.02-.26.15-.15.13 0 .1-.5.19-.66.07-.19.29-.04.12-.31.02.02.05-.19.08-.19.22.08.19-.51.35-.35.14 0 .32.17.42.15-.05-.66.26-.51.77-.7.04.13.38-.27.42-.12.05.11.42 0 .5-.04.09 0 .04-.09.12-.12.22.28.75-.08.97 0 .24-.06.9.36.96-.08-.03.41.46.05.54.04 0 .12.12.12.08 0 .26.16.54.1.85.27.15.04.08-.15.15-.08.15.19.07-.26.19-.08.37.64.45.99.62 1.7.23.62.52 3.21.35 4.17-.19.07-.37.42-.58.5-.23.07-.78.54-.35.7.11 0 .02.13.19.15.16-.03.08.23.19.23.23.07.55.26.77.15.49 0 1-.44 1.47-.42 1.24.13 2.56-.18 3.86-.31.4.14 1.14.07 1.39.04.39 0 1.15.33 1.31 0h.04c0-.21.18.32.19.19-.11-.49.36.33.5.12.03-.1.09.01.15 0-.09.36 1.09.26 1.24.12.02-.02.18.27.35.12 0-.07.21-.01.08-.12-.2-.15.85-.15.5-.42zm-13.09-8.77c-.47.36.15-.24-.54-.04 0 .02-.51-.05-.66.08-.26-.04-.5-.25-.73-.04-.8-.11-1.49-.25-2.59-.15-.06-.52.29-.73.27-1.12-.08-.26.35-.43.31-.69.06-.23.14-.38.23-.62.39-1.1.7-2.33 1.24-3.55.09.32.06.07.19.12.03.05.02.21.12.12.17-.02.09.54.27.42.03.37.47 1.31.62 1.85.29 1.34 1.24 2.36 1.27 3.63zM151.22 56.18c-.1-.26.3-.63-.31-.58q-.15.04-.15-.12c-.05-.15-.27-.01-.23-.27-.05-.19-.17-.42-.23-.12-.26.03 0-.49-.31-.42-.51.27.05-.71-.5-.58-.37.22.27-.86-.66-.96.05-.07.14-.06 0-.19-.1-.04.11-.12.12-.08.14.04-.06-.29-.08-.15-.07.15-.16-.23-.12-.35.01-.1-.09.1-.08 0-.03-.2-.02-.7-.19-.77 0-.17-.16-.19-.08 0-.04.15-.16-.58-.19-.73-.07-.04-.23-.55-.27-.35-.2.23-.12-.78-.31-.89-.03-.23-.28-.13-.23-.35q-.08-.04-.12 0c.01.14-.26.04-.12 0 .1-.03-.09-.18 0-.19.08.03.04.1.19-.04.05-.08-.24-.87-.39-.97-.08.05 0-.12-.08-.15-.08-.01 0 .21-.08.12-.03-.12-.07-.04-.04-.19.18-.14-.14-.03-.12-.15 0-.04 0-.08.04-.04.08.02-.1-.48-.19-.42-.08 0 .12-.2-.04-.23-.13-.46-.61-1.02-.77-1.27.06-.36-.03 0-.12-.23-.03.07-.07-.02-.04-.08.17-.08.06-.19.08-.23-.19-.31-.28-.94-.69-.97-.06-.09.26-.41-.19-.42-.32-.02.13-.68-.08-.69-.07.1-.14-.2-.08-.19.03-.13-.69-.39-.39-.46.07.02-.08-.41.12-.23.11.08 0-.27-.15-.23-.22 0 .12-.5-.08-.35-.15 0 .02-.17-.15-.19 0-.11.1.01.12-.08-.14-.4-.45-.83-.58-1.08.17-.26-.13.03-.08-.19 0-.31-.32-.47-.42-.66.07-.15.04-.37.15-.39.05-.14-.37-.21-.19-.31.19-.42-.5-1.38-.42-1.7-.02-.05-.09-.4-.15-.46.12-.08.04-.35-.12-.35-.23-.04.12-.59-.39-.62.28-.52-.34-1.92-1.04-2.05-.16.23 0-.14-.08-.12-.07-.06-.02.2-.12-.04-.08-.04-.12-.12-.12-.15-.21-.06-1.06-.18-1.24-.23-.09-.05-.31.26-.35.04-.23-.2-.35-.16-.08.08-.15-.01-.44-.08-.46-.15 0 .12-.12.08-.19-.04-.15-.17-.02.09-.12 0-.36-.11-.46.2-.7.23-.33 0-.39.3-.77.23-.45-.02 0 .16-.04.31.38.24-.13.5-.12.89-.25.37-.26.81-.39.81-.47.52-.37 1.5-.93 2.05-.05.03-.02.11-.08.04-.31-.14-.25.49-.5.42.4.7-.34 1.71-.5 2.47-.78 2.04-1.62 4.27-2.32 6.14-.81 1.16-1.25 3.37-2.16 4.56-.57.92-1.3 1.83-1.78 2.97-.17-.01-.15.73-.27.39-.35-.15-.9.97-1.12 1-.51.17-1.12-.27-.62.54.17.17.35.48.42.58-.13.17.22.33.35.35.71-.02.95-.4 1.85 0 .61.12.69-.19 1.2-.12.19.28.75.2 1.04.08.31 0 .74 0 1.08-.08.11-.04.15.04.15-.04-.03-.15.26.14.27-.04.05-.1.08.1.12.12.15-.01.2-.24.31-.19.25 0-.08-.2.08-.27.07-.11-.46-.45-.54-.66-.4-.14-.34-1.05-.62-1.24-.08 0-.03-.1.04-.08.19.12.1-.67.12-.85.04.01.02-.25-.08-.23-.09-.02.1.11 0 .12-.12 0-.08-.23.04-.23.22-.09-.03-.64.19-.69.12-.18.25-.47.15-.69-.06 0 .1-.13.12-.15.11.06.02-.26.15-.15.13 0 .1-.5.19-.66.07-.19.29-.04.12-.31.02.02.05-.19.08-.19.22.08.19-.51.35-.35.14 0 .32.17.42.15-.05-.66.26-.51.77-.69.04.13.38-.27.42-.12.05.11.42 0 .5-.04.09 0 .04-.09.12-.12.22.28.75-.08.97 0 .24-.06.9.36.96-.08-.03.41.46.05.54.04 0 .12.12.12.08 0 .26.16.54.1.85.27.15.04.08-.15.15-.08.15.19.07-.26.19-.08.37.64.45.99.62 1.7.23.66.52 3.21.35 4.17-.19.08-.37.42-.58.5-.23.07-.78.54-.35.7.11 0 .02.13.19.15.16-.03.08.23.19.23.23.07.55.26.77.15.49 0 1-.44 1.47-.42 1.24.13 2.56-.18 3.86-.31.4.14 1.14.07 1.39.04.39 0 1.15.33 1.31 0h.04c0-.21.18.32.19.19-.11-.49.36.33.5.12.03-.1.09.01.15 0-.09.36 1.09.26 1.24.12.02-.02.18.27.35.12 0-.07.21-.01.08-.12-.2-.15.85-.15.5-.42zm-13.09-8.76c-.47.36.15-.24-.54-.04 0 .02-.51-.05-.66.08-.26-.04-.5-.25-.73-.04-.8-.11-1.49-.25-2.59-.15-.06-.52.29-.73.27-1.12-.08-.26.35-.43.31-.69.06-.23.14-.38.23-.62.39-1.1.7-2.33 1.24-3.55.09.32.06.07.19.12.03.05.02.21.12.12.17-.02.09.54.27.42.03.37.47 1.31.62 1.85.29 1.34 1.24 2.36 1.27 3.63zM216.35 56.18c-.1-.26.3-.63-.31-.58q-.15.04-.15-.12c-.05-.15-.27-.01-.23-.27-.05-.19-.17-.42-.23-.12-.26.03 0-.49-.31-.42-.51.27.05-.71-.5-.58-.37.22.27-.86-.66-.96.05-.07.14-.06 0-.19-.1-.04.11-.12.12-.08.14.04-.06-.29-.08-.15-.07.15-.16-.23-.12-.35.01-.1-.09.1-.08 0-.03-.2-.02-.7-.19-.77 0-.17-.16-.19-.08 0-.04.15-.16-.58-.19-.73-.07-.04-.23-.55-.27-.35-.2.23-.12-.78-.31-.89-.03-.23-.28-.13-.23-.35q-.08-.04-.12 0c.01.14-.26.04-.12 0 .1-.03-.09-.18 0-.19.08.03.04.1.19-.04.05-.08-.24-.87-.39-.97-.08.05 0-.12-.08-.15-.08-.01 0 .21-.08.12-.03-.12-.07-.04-.04-.19.18-.14-.14-.03-.12-.15 0-.04 0-.08.04-.04.08.02-.1-.48-.19-.42-.08 0 .12-.2-.04-.23-.13-.46-.61-1.02-.77-1.27.06-.36-.03 0-.12-.23-.03.07-.07-.02-.04-.08.17-.08.06-.19.08-.23-.19-.31-.28-.94-.69-.97-.06-.09.26-.41-.19-.42-.32-.02.13-.68-.08-.69-.07.1-.14-.2-.08-.19.03-.13-.69-.39-.39-.46.07.02-.08-.41.12-.23.11.08 0-.27-.15-.23-.22 0 .12-.5-.08-.35-.15 0 .02-.17-.15-.19 0-.11.1.01.12-.08-.14-.4-.45-.83-.58-1.08.17-.26-.13.03-.08-.19 0-.31-.32-.47-.42-.66.07-.15.04-.37.15-.39.05-.14-.37-.21-.19-.31.19-.42-.5-1.38-.42-1.7-.02-.05-.09-.4-.15-.46.12-.08.04-.35-.12-.35-.23-.04.12-.59-.39-.62.28-.52-.34-1.92-1.04-2.05-.16.23 0-.14-.08-.12-.07-.06-.02.2-.12-.04-.08-.04-.12-.12-.12-.15-.21-.06-1.06-.18-1.24-.23-.09-.05-.31.26-.35.04-.23-.2-.35-.16-.08.08-.15-.01-.44-.08-.46-.15 0 .12-.12.08-.19-.04-.15-.17-.02.09-.12 0-.36-.11-.46.2-.7.23-.33 0-.39.3-.77.23-.45-.02 0 .16-.04.31.38.24-.13.5-.12.89-.25.37-.26.81-.39.81-.47.52-.37 1.5-.93 2.05-.05.03-.02.11-.08.04-.31-.14-.25.49-.5.42.4.7-.34 1.71-.5 2.47-.78 2.04-1.62 4.27-2.32 6.14-.81 1.16-1.25 3.37-2.16 4.56-.57.92-1.3 1.83-1.78 2.97-.17-.01-.15.73-.27.39-.35-.15-.9.97-1.12 1-.51.17-1.12-.27-.62.54.17.17.35.48.42.58-.13.17.22.33.35.35.71-.02.95-.4 1.85 0 .61.12.69-.19 1.2-.12.19.28.75.2 1.04.08.31 0 .74 0 1.08-.08.11-.04.15.04.15-.04-.03-.15.26.14.27-.04.05-.1.08.1.12.12.15-.01.2-.24.31-.19.25 0-.08-.2.08-.27.07-.11-.46-.45-.54-.66-.4-.14-.34-1.05-.62-1.24-.08 0-.03-.1.04-.08.19.12.1-.67.12-.85.04.01.02-.25-.08-.23-.09-.02.1.11 0 .12-.12 0-.08-.23.04-.23.22-.09-.03-.64.19-.69.12-.18.25-.47.15-.69-.06 0 .1-.13.12-.15.11.06.02-.26.15-.15.13 0 .1-.5.19-.66.07-.19.29-.04.12-.31.02.02.05-.19.08-.19.22.08.19-.51.35-.35.14 0 .32.17.42.15-.05-.66.26-.51.77-.69.04.13.38-.27.42-.12.05.11.42 0 .5-.04.09 0 .04-.09.12-.12.22.28.75-.08.97 0 .24-.06.9.36.96-.08-.03.41.46.05.54.04 0 .12.12.12.08 0 .26.16.54.1.85.27.15.04.08-.15.15-.08.15.19.07-.26.19-.08.37.64.45.99.62 1.7.23.66.52 3.21.35 4.17-.19.08-.37.42-.58.5-.23.07-.78.54-.35.7.11 0 .02.13.19.15.16-.03.08.23.19.23.23.07.55.26.77.15.49 0 1-.44 1.47-.42 1.24.13 2.56-.18 3.86-.31.4.14 1.14.07 1.39.04.39 0 1.15.33 1.31 0h.04c0-.21.18.32.19.19-.11-.49.36.33.5.12.03-.1.09.01.15 0-.09.36 1.09.26 1.24.12.02-.02.18.27.35.12 0-.07.21-.01.08-.12-.2-.15.85-.15.5-.42zm-13.09-8.76c-.47.36.15-.24-.54-.04 0 .02-.51-.05-.66.08-.26-.04-.5-.25-.73-.04-.8-.11-1.49-.25-2.59-.15-.06-.52.29-.73.27-1.12-.08-.26.35-.43.31-.69.06-.23.14-.38.23-.62.39-1.1.7-2.33 1.24-3.55.09.32.06.07.19.12.03.05.02.21.12.12.17-.02.09.54.27.42.03.37.47 1.31.62 1.85.29 1.34 1.24 2.36 1.27 3.63z" fill="#fff"/></svg>