<svg xmlns="http://www.w3.org/2000/svg" width="250" height="81" viewBox="0 0 250 81"><path d="M69.54.74a35.41,35.41,0,0,1,3.59,0,1.66,1.66,0,0,1,1,.9q6.06,11.82,12,23.66c.16.32.34.62.6,1.1.27-.48.47-.81.65-1.15q6.39-11.82,12.75-23.66a1.43,1.43,0,0,1,1.52-.91c.9.06,1.81,0,2.82,0v35h-4V9.27l-.23-.06c-.19.33-.39.66-.56,1C96.21,17,92.67,23.86,89.18,30.71a2,2,0,0,1-1.89,1.22c-1.82.2-2.65-.54-3.41-2.14-3.1-6.55-6.37-13-9.58-19.53a1.84,1.84,0,0,0-.67-.81V35.74H69.54Z" fill="#fff"/><path d="M218.13,60.27c2.52,1.93,3.18,4.84,3,8.07a34.48,34.48,0,0,1-.39,5.19c-.83,4-4,6.58-8.64,6.81s-9.09.08-13.64.13c-.81,0-.73-.5-.73-1v-9c0-8.16,0-16.31,0-24.47,0-1,.25-1.29,1.27-1.28,4.11.07,8.22,0,12.33.06A10.85,10.85,0,0,1,216.77,46a5.71,5.71,0,0,1,3.11,4.59,22.84,22.84,0,0,1,0,5.42A22.15,22.15,0,0,1,218.13,60.27Zm-16,1a3.25,3.25,0,0,0-.19.49q0,7.17,0,14.34c0,.7.4.73.92.73,1.82,0,3.64,0,5.45,0a33,33,0,0,0,4.77-.36,4.41,4.41,0,0,0,3.91-4.42c.11-1.4.1-2.82.11-4.23,0-3.58-1.4-5.59-5-6.09C208.73,61.28,205.37,61.42,202.08,61.29Zm-.22-3.56c2.53,0,4.85,0,7.18,0a39.17,39.17,0,0,0,4.34-.18c1.65-.21,2.32-1,2.43-2.69.07-1,0-2,0-2.94,0-2.22-.74-3.19-2.95-3.33-2.86-.17-5.74-.13-8.61-.16-2.43,0-2.43,0-2.43,2.46Z" fill="#fff"/><path d="M130.39,80.38V44.76c.38,0,.73,0,1.08,0,4.15,0,8.3,0,12.45,0a10.84,10.84,0,0,1,5.28,1.15,5.94,5.94,0,0,1,3.3,5.16c.05,1,0,2,0,3a7,7,0,0,1-2.06,5.78,1.74,1.74,0,0,0,.23.39,8.4,8.4,0,0,1,3,7.16,45.6,45.6,0,0,1-.31,5.74c-.62,3.67-3,5.85-6.54,6.8a8.34,8.34,0,0,1-2.13.4C140,80.4,135.25,80.38,130.39,80.38Zm4.25-19.1a2.87,2.87,0,0,0-.19.54l0,14.35c0,.62.36.69.85.68,1.27,0,2.55,0,3.82,0,2.17-.09,4.36-.09,6.51-.39a4.13,4.13,0,0,0,3.8-3.9,54,54,0,0,0,.09-6.61,3.81,3.81,0,0,0-.79-1.87,5.28,5.28,0,0,0-3.92-2.33C141.39,61.46,138,61.42,134.64,61.28Zm-.22-3.63h11.15a2.56,2.56,0,0,0,.54-.1A2.45,2.45,0,0,0,148.36,55c.07-1,.06-2.1.06-3.15,0-2.2-.75-3.18-3-3.29-3.45-.17-6.9-.13-10.36-.12-.22,0-.61.54-.62.83-.06,2.14,0,4.28,0,6.42Z" fill="#fff"/><path d="M166,35.8h-4.11V11c0-6.38,2.19-9.12,8.53-10.31a20.63,20.63,0,0,1,11.09.7c3.54,1.31,5.68,3.77,5.74,7.64.09,5,0,10.08.06,15.12,0,3.48,0,7,0,10.45V35.8h-4.06V23.36H166Zm17.13-16.35c0-.38.07-.69.07-1,0-3,0-6,0-8.92a4.48,4.48,0,0,0-3.29-4.71A16.4,16.4,0,0,0,169,4.9a4,4,0,0,0-2.92,3.83c-.09,3.51,0,7,0,10.54,0,.06.09.11.15.18Z" fill="#fff"/><path d="M187.77,80.41H183.7V68H166.51V80.36h-4.16V79.05c0-7.8.09-15.6,0-23.39-.09-4.95,1.13-9.09,8.58-10.41A21,21,0,0,1,182,46c3.54,1.32,5.66,3.79,5.72,7.66.09,5.11,0,10.23.06,15.34V80.41Zm-21.3-16.36h17.12c0-.38.06-.7.06-1,0-3,0-5.95,0-8.92a4.48,4.48,0,0,0-3.29-4.71,16.31,16.31,0,0,0-10.6,0A4.34,4.34,0,0,0,166.48,54c0,2.76,0,5.51,0,8.26Z" fill="#fff"/><path d="M35.38,35.71V34.58q0-16.63,0-33.29c0-1,.24-1.3,1.26-1.29,4.33.06,8.66,0,13,.08a21,21,0,0,1,5,.74,7.83,7.83,0,0,1,6,7.08,26.71,26.71,0,0,1,.19,3.47c0,4.46,0,8.92,0,13.38v.87c-.12,6.34-3.2,9.79-9.55,10.11-5.16.27-10.33.09-15.5.11A2.66,2.66,0,0,1,35.38,35.71Zm4.19-3.46c1.26,0,2.38,0,3.51,0,2.76,0,5.53,0,8.28-.18,3.77-.27,5.29-2,5.39-5.75,0-.4,0-.8,0-1.19V13.91c0-1.59.05-3.19,0-4.78-.17-3.3-1.58-4.94-4.87-5.13-4-.24-8-.17-12-.22-.09,0-.19.1-.3.16Z" fill="#fff"/><path d="M25.33,35.78h-4V23.36H4.14v12.4H0v-1Q0,22.32,0,9.86C0,5.3,2,2.51,6.31,1.2a21.13,21.13,0,0,1,13.2.14c3.83,1.31,5.83,4,5.85,8,.06,8.63,0,17.26,0,25.89C25.39,35.37,25.36,35.52,25.33,35.78ZM21.27,19.46c0-3.36,0-6.58,0-9.8,0-2.67-1.08-4.23-3.63-5a17.05,17.05,0,0,0-10.1.08,4.41,4.41,0,0,0-3.4,4.72c0,3,0,6.09,0,9.13a7.3,7.3,0,0,0,.09.88Z" fill="#fff"/><path d="M151.62,18.87a11.28,11.28,0,0,1,2.2,2.55,11.8,11.8,0,0,1,1.08,4.24c.16,3.08,0,6.17.07,9.25,0,.9-.31,1.13-1.14,1.08s-1.87,0-3,0V26.64c0-3.84-1.73-5.92-5.58-6.24-2.93-.25-5.89-.13-8.84-.19-.81,0-.72.52-.72,1V35.89h-4V.73h14.79a9.71,9.71,0,0,1,5.41,1.41,6,6,0,0,1,3,5.24c0,2,0,4.06,0,6.09A5.52,5.52,0,0,1,152,18.59,2.37,2.37,0,0,0,151.62,18.87ZM135.73,4.52c0,3.89,0,7.65,0,11.4a.92.92,0,0,0,.66.59c3.89,0,7.78,0,11.66-.09,1.94-.06,2.72-1,2.77-2.92s0-4.13,0-6.19a2.42,2.42,0,0,0-1.77-2.37,8.84,8.84,0,0,0-2.65-.47c-3.23,0-6.47,0-9.7,0C136.46,4.45,136.18,4.49,135.73,4.52Z" fill="#fff"/><path d="M246.3,44.93l3.7,1.63c-.17.42-.3.78-.45,1.13C246.79,54,244,60.23,241.28,66.52a5.4,5.4,0,0,0-.42,2c0,3.55,0,7.11,0,10.66V80.4h-4.07c0-.38-.06-.76-.06-1.14,0-3.6,0-7.19,0-10.78a5,5,0,0,0-.44-2c-2.9-6.29-5.85-12.56-8.78-18.84-.15-.32-.29-.65-.49-1.09,1.11-.5,2.14-1,3.23-1.4.19-.06.72.33.85.63,1.57,3.43,3.09,6.88,4.62,10.32,1,2.18,1.94,4.36,3,6.85C241.31,56.81,243.79,50.93,246.3,44.93Z" fill="#fff"/><path d="M201.4,32.1h15.83c0,1.1,0,2.16,0,3.23,0,.15-.4.41-.61.41q-9.5,0-19,0c-.06,0-.12-.06-.25-.13V.83h4.05Z" fill="#fff"/><path d="M116.11.8h4v35h-4Z" fill="#fff"/><line x1="124.67" y1="46.84" y2="46.84" fill="#fff" stroke="#fff" stroke-miterlimit="10" stroke-width="3.5"/><line x1="124.67" y1="78.39" y2="78.39" fill="#fff" stroke="#fff" stroke-miterlimit="10" stroke-width="3.5"/><line x1="124.67" y1="63.1" y2="63.1" fill="#fff" stroke="#fff" stroke-miterlimit="10" stroke-width="3.5"/></svg>