<svg xmlns="http://www.w3.org/2000/svg" width="330" height="76" viewBox="0 0 330 76"><path d="M42.84 15.1a91.49 91.49 0 0 1-14.51 3.21C29.17 16 45.43-3.81 35.87.65l-12 18.14a89.11 89.11 0 0 1-12.52.21c1.34-3.19 9.53-9.14 6.75-12.11-4.09-.29-7.62 9-10.8 11.8a43 43 0 0 1-5.16-.84c-2.15-.51-3.07 2.8-.91 3.31 1.21.29 2.46.5 3.7.67-1.09 2.6-6.74 5.88-4.11 8.61 3.81.42 5.41-5.93 8.07-8.19a87.15 87.15 0 0 0 12.62.17l-5.76 8.72c-1.22 1.85 1.75 3.57 3 1.73l7.14-10.81c2.46-.13 26.41-3.41 16.95-6.96z" fill="#fff"/><path d="M72.82 23.51c-1.49-.86-2.42.64-3.07 1.75l.11-.13C66.27 30 59.77 27 56 23.9c2-2.74 5.07-5.33 5.94-8.57-1.12-2.87-5.82-1.7-8.29-1.58-10.93.06-11.74 24 0 12.67 5.19 4.58 14.05 7.32 18.85.87.91-1.02 1.86-2.85.32-3.78zM50 25.13a6.87 6.87 0 0 1-1.36.91 7.52 7.52 0 0 1 8.51-9.13A50.52 50.52 0 0 1 50 25.13zM81.71 27c0 .09.08.15 0 0z" fill="#fff"/><path d="M96.65 13.71c5.65 4.65 2 11.94-3.63 13a3.22 3.22 0 0 1-.61-.24c-1.57-1.79-1.7-4.41-1.81-6.68-.38-2.75-3.73-1.79-3.7.67-.92 2.5-2 5.93-4.83 6.75h-.2l-.1-.05c-.06-.09-.07-.17-.13-.27l.07.13c-.77-3.59.47-7 1.36-10.43.66-2.12-2.66-3-3.32-.92-3.81 8.49-.94 22.64 8.44 10.38 2.76 8.16 12.71 2 14.42-3.74 1.4-4.1-.68-8.16-3.52-11-1.56-1.61-3.99.82-2.44 2.4zM81.81 27.23zm0 0l.09.06zm9.73-2s0 .05 0 0zm1.75 1.45c.18 0 .09 0 0 0zM131.35 12.05l-14 2.89c1-2.13 3.45-7.44 4.4-9.51s-2-3.74-3-1.73l-11.24 24.39c-.92 2 2 3.74 3 1.73q2.08-4.49 4.16-9l7 10.66c1.21 1.84 4.19.12 3-1.74l-7.47-11.26c2.22-.82 23.36-3.06 14.15-6.43zM152 21.37h-.16c-.1-.01-.14.01.16 0zM146.59 27.18v-.01.01zM147 25.49c-.05.12-.1.32 0 0zM154.72 28.11h.09s-.05-.06-.24-.09zM154.27 27.68a.45.45 0 0 0-.1-.19c.02.06.07.12.1.19zM157.34 27.63c.16-.08.3-.19 0 0z" fill="#fff"/><path d="M161.33 25.29a20.76 20.76 0 0 1-4 2.37h.05a4.88 4.88 0 0 1-2.53.5c-.06 0-.2-.08-.27-.1a.81.81 0 0 1-.3-.36s-.09-.2-.13-.24a4.42 4.42 0 0 1-.22-.94c8.3-9.25-5.95-11.91-9.54-3.61-3.75 5.54 1.57 10.26 6.75 6.2 2.13 7.16 19.27-3.65 10.19-3.82zm-11.92-3.2zm-2.88 5zm.11.24v-.05c0-.05 0 0 0 0s.04.13 0 .04zm2.93-1.23s.36-.26.13-.1a4.74 4.74 0 0 1-3.11 1.19 3.62 3.62 0 0 1 .4-1.75v.07c.94-2 2.58-4.51 5.12-4.12H152a6.94 6.94 0 0 1 .92.26 10.88 10.88 0 0 1-3.35 4.44zM177.13 27.82c.06.11.11.14 0-.11a.54.54 0 0 0 0 .11zM176.91 27v-.16a.86.86 0 0 0 0 .16z" fill="#fff"/><path d="M177.68 28.22h.09c-.38.08-.59-.22-.72-.54a.13.13 0 0 1 0 .07 5.28 5.28 0 0 1-.16-.66v-.22a11.39 11.39 0 0 1 .08-2.27c.76-2.56-1-5.77-4-4.59 1.49-2.24-2.13-4.22-3.05-1.62l-3.3 8.89c-.63 1.16-.88 2.94.73 3.38 3.42.24 2.17-5.19 5-6.33l-.12.1a10 10 0 0 1 1.45-.94c-2.32 12.51 10.97 7.37 4 4.73zm-4.05-5.42a.46.46 0 0 1-.05-.1zM192.65 22.31l-.05-.09.06.13z" fill="#fff"/><path d="M198.93 28.25a9.37 9.37 0 0 1-.92.19c.23 0-.62.09-.16 0-1.2.1-2.64.23-3.61-.63 0 .07-.16-.22-.22-.25s0 0 .06.06a2.2 2.2 0 0 1-.35-.9 74.59 74.59 0 0 0 7.14-11.56 1.76 1.76 0 0 0-.61-2.35c-3.3-1-3.75 4.63-5.62 6.46-4.81-4.68-13.62.75-12.5 7.19a5.09 5.09 0 0 0 9.09 3.08c1.64 2.76 9.7 4 9.82-.12a1.76 1.76 0 0 0-2.12-1.17zM191 21zm-3.8 7.17c-.26.09-.2.01 0 .01zm1.14-.63c-.66.59-1.6.93-2.25.13-2.55-4.07 3.37-8.52 6.18-6a3.08 3.08 0 0 1 .33.55l.08.16a25.79 25.79 0 0 1-4.34 5.17zM240.17 9.87C210.1 12 211.59 48.7 237.8 33.37c1.58-1.55-.85-4-2.44-2.43-4 4-14.74 4.29-14.18-3.51-1.68-8.55 23.39-19.73 21.51-10.91 3.23 7.9 6.76-7.7-2.52-6.65zM265.54 30.33a24.86 24.86 0 0 1-2.77 2.56c2.57-5.4 4.76-14-4.54-12a99 99 0 0 1 5.77-9.51c1.26-1.82-1.72-3.55-3-1.74-4.73 7.38-9.93 15.29-10.91 24.19-.17 2.21 3.27 2.2 3.44 0a26.53 26.53 0 0 1 2.64-8.91c11.71-3.85.83 5.95 3.3 10.91 2.82 5.17 14.17-7.75 6.07-5.5zm-3 3.86zm-.79-10zm.8 10.09zm0-.64c.02.49-.03.24.01.04zM279.06 22c-3.93-.86-4.26 7.18-6.23 9.71-.5 1.1-1.39 2.85.08 3.64 3.92.86 4.26-7.18 6.22-9.71.5-1.13 1.39-2.88-.07-3.64zM287.91 13.45c-2.67-2.4-6.39 2.41-9.21 3.2a1.72 1.72 0 0 0 1.73 3c1.43-1.41 9.01-3.37 7.48-6.2zM299.88 29.45a43.3 43.3 0 0 1-8.88 2.84c-.56 0-.6-.21-.69-.32a12.82 12.82 0 0 1 2.08-6.83c.32-.36.77-1.05 1.24-1.24.21-.36 3.19-1.43 4.56-.76a1.72 1.72 0 0 0 .92-3.32c-7.76-2.58-15 8.31-11.17 14.74 2.4 4.3 21.56-4.22 11.94-5.11zm-9.49 2.76zM330 16.46c-2-3.55-11.75 3.7-15.33 4.23q2.31-5 4.64-10.07c.92-2-2-3.75-3-1.74q-5.41 11.75-10.82 23.47c-.92 2 2 3.75 3 1.74l3.51-7.51 3.78 8.31c6.91 3.87-.2-8.32-1-10.53 3.5-2.36 14.56-3.93 15.22-7.9zM154.79 41.07a1.11 1.11 0 0 1 0-.29c0-.31.2-.47.59-.47h3.08a.73.73 0 0 1 .75.55L161 46.4l2.23-4.52a.31.31 0 0 1 .3-.18h2c.23 0 .35.1.35.29a.33.33 0 0 1 0 .17L161.36 53a.79.79 0 0 1-.77.54H159a.72.72 0 0 1-.74-.57zM172.89 50.17a.57.57 0 0 0 .65-.65v-.41a.58.58 0 0 0-.65-.66h-1.24a2.87 2.87 0 0 1-2.11-.85l-.63-.63a2.59 2.59 0 0 1-.78-1.94v-1.61a2.61 2.61 0 0 1 .73-2 2.79 2.79 0 0 1 2-.7h5.62a.58.58 0 0 1 .65.66v2.05a.57.57 0 0 1-.65.65h-3.67a.58.58 0 0 0-.66.66V45a.58.58 0 0 0 .66.66h1a3 3 0 0 1 1.87.55l.39.29a2.17 2.17 0 0 1 .75 1.82v2.61a2.23 2.23 0 0 1-.91 1.9 3.45 3.45 0 0 1-2.14.69h-5.37a.29.29 0 0 1-.33-.33v-2.68a.3.3 0 0 1 .33-.34zM85.62 70a.58.58 0 0 0 .65-.66V69a.57.57 0 0 0-.65-.65h-1.24a2.87 2.87 0 0 1-2.11-.86l-.64-.62a2.64 2.64 0 0 1-.77-1.94v-1.64a2.62 2.62 0 0 1 .73-2 2.83 2.83 0 0 1 2-.69h5.61a.58.58 0 0 1 .66.65v2.05a.58.58 0 0 1-.66.66h-3.65a.58.58 0 0 0-.65.65v.25a.58.58 0 0 0 .65.65h1a3 3 0 0 1 1.87.55l.39.3a2.15 2.15 0 0 1 .75 1.81v2.63a2.24 2.24 0 0 1-.91 1.9 3.44 3.44 0 0 1-2.14.68h-5.32a.29.29 0 0 1-.33-.33v-2.68a.29.29 0 0 1 .33-.33zM100.33 71.19v1.65a.51.51 0 0 1-.57.58h-6.18a.8.8 0 0 1-.9-.9l-.06-11.22a.71.71 0 0 1 .81-.81h6.15a.64.64 0 0 1 .73.73v2.56a.65.65 0 0 1-.74.73h-3.68c-.21 0-.32.11-.32.34v1a.31.31 0 0 0 .29.34l3.53.42a.29.29 0 0 1 .29.31v1.15a.52.52 0 0 1-.58.57h-3.07a.51.51 0 0 0-.57.58v1a.29.29 0 0 0 .33.33h4a.51.51 0 0 1 .58.57zM114.22 75a.29.29 0 0 1 0 .09.29.29 0 0 1-.33.32h-2.63a.73.73 0 0 1-.73-.46l-1.3-3.14-2.88-.44-.65 1.63a.57.57 0 0 1-.55.41h-2.36a.29.29 0 0 1-.32-.32.32.32 0 0 1 0-.13l4.58-12a.74.74 0 0 1 .69-.5l1.81-.18h.14a.71.71 0 0 1 .76.58zm-5.35-5.86l-.61-2.62a.34.34 0 0 0-.37-.27.26.26 0 0 0-.26.2l-.67 2.4a.46.46 0 0 0 0 .19c0 .16.1.26.29.29l1.31.22a.29.29 0 0 0 .32-.32.36.36 0 0 0-.01-.06zM119.11 73a.89.89 0 0 1-.7.39h-.85a.56.56 0 0 1-.6-.53l-2.1-12a1.37 1.37 0 0 1 0-.19c0-.34.21-.51.62-.51h2.1a.51.51 0 0 1 .55.47l1.09 5.78 2.14-4.16a.81.81 0 0 1 .74-.52h.39a.75.75 0 0 1 .71.5l1.42 3.08 2-5.52a.32.32 0 0 1 .32-.21h2c.22 0 .34.09.34.28v.1L127 72.89a.56.56 0 0 1-.6.53h-1.13a.84.84 0 0 1-.77-.45l-2.24-3.77zM139.43 71.19v1.65a.51.51 0 0 1-.57.58h-6.16a.8.8 0 0 1-.9-.9l-.06-11.22a.71.71 0 0 1 .81-.81h6.15a.64.64 0 0 1 .73.73v2.56a.65.65 0 0 1-.74.73H135c-.21 0-.32.11-.32.34v1a.31.31 0 0 0 .29.34l3.53.42c.2 0 .29.13.29.31v1.15a.52.52 0 0 1-.58.57h-3.07a.51.51 0 0 0-.57.58v1a.29.29 0 0 0 .33.33h4a.5.5 0 0 1 .57.57zM149.8 71.19v1.65a.51.51 0 0 1-.57.58h-6.16a.8.8 0 0 1-.9-.9l-.06-11.22a.71.71 0 0 1 .81-.81h6.15a.64.64 0 0 1 .73.73v2.56a.65.65 0 0 1-.73.73h-3.67c-.22 0-.32.11-.32.34v1a.3.3 0 0 0 .29.34l3.53.42a.29.29 0 0 1 .29.31v1.15a.5.5 0 0 1-.57.57h-3.07a.51.51 0 0 0-.57.58v1a.29.29 0 0 0 .33.33h4a.51.51 0 0 1 .58.57zM161.66 69.5a2.88 2.88 0 0 1-.89 2.14l-.89.89a3 3 0 0 1-2.14.89h-4.55a.65.65 0 0 1-.73-.74V61.12a.61.61 0 0 1 .64-.68l4.69-.34h.21a2.59 2.59 0 0 1 1.92.81l.82.83a2.94 2.94 0 0 1 .9 2.12zm-3.79.35v-5.11a.73.73 0 0 0-.56-.75l-1.08-.34h-.11a.29.29 0 0 0-.32.33l.13 6.41c0 .22.1.34.29.34h.11l1-.19a.6.6 0 0 0 .54-.69zM178.07 69.86l-1.36 3.3a.66.66 0 0 1-.66.44h-.13a.6.6 0 0 1-.63-.49l-1-3.75-.51 3.73a.29.29 0 0 1-.32.29h-1.65c-.22 0-.33-.1-.33-.32l.38-11.6a.58.58 0 0 1 .65-.64h2.05a.73.73 0 0 1 .74.56l1.23 3.75 1.36-3.72a.74.74 0 0 1 .76-.53h2.12c.43 0 .65.2.65.61L181 73.62a.29.29 0 0 1-.33.31h-1.42a.3.3 0 0 1-.33-.26zM194.77 69.33a4.61 4.61 0 0 1-.65 2.33l-.35.59a2.07 2.07 0 0 1-1.9 1.07h-4.49a2.89 2.89 0 0 1-2.09-.93l-.08-.08a3.06 3.06 0 0 1-.85-2.2l-.1-6.84a2.53 2.53 0 0 1 1-2h.05a3.31 3.31 0 0 1 2.23-.78h3.79a2.9 2.9 0 0 1 2.15.89l.43.44a3 3 0 0 1 .89 2.15zm-3.52.16v-4.2a.59.59 0 0 0-.61-.67l-1.64-.15h-.1c-.37 0-.57.21-.59.62l-.23 4.32v.09c0 .48.23.73.69.73h.11l1.83-.15a.51.51 0 0 0 .54-.59zM200.88 68.3l-.48 4.58a.54.54 0 0 1-.6.54h-1.6a.51.51 0 0 1-.58-.57l.13-12a.52.52 0 0 1 .58-.57h1.84a.32.32 0 0 1 .27.13l3 3.77 1.27-5.69a.57.57 0 0 1 .61-.5h1.42c.37 0 .55.17.55.5a.28.28 0 0 1 0 .09L206 72.7a.53.53 0 0 1-.59.53h-1.48a.29.29 0 0 1-.28-.16zM214.39 70a.58.58 0 0 0 .65-.66V69a.58.58 0 0 0-.65-.65h-1.25a2.9 2.9 0 0 1-2.11-.86l-.63-.62a2.61 2.61 0 0 1-.78-1.94v-1.64a2.63 2.63 0 0 1 .74-2 2.8 2.8 0 0 1 2-.69H218a.58.58 0 0 1 .66.65v2.05a.58.58 0 0 1-.66.7h-3.67a.57.57 0 0 0-.65.65v.25a.57.57 0 0 0 .65.65h1a3 3 0 0 1 1.88.55l.39.3a2.15 2.15 0 0 1 .75 1.81v2.59a2.24 2.24 0 0 1-.91 1.9 3.47 3.47 0 0 1-2.15.68H210a.3.3 0 0 1-.34-.33v-2.68A.3.3 0 0 1 210 70zM226.43 72.86a.53.53 0 0 1-.58.56h-1.59a.52.52 0 0 1-.58-.58l-.14-7.3a.29.29 0 0 0-.33-.33h-1.45a.58.58 0 0 1-.65-.66v-3.34a.6.6 0 0 1 .64-.67l7.6-.35c.21 0 .31.11.31.34v4.38a.29.29 0 0 1-.32.33h-2.22c-.21 0-.31.11-.32.32zM240 71.19v1.65a.51.51 0 0 1-.57.58h-6.16a.8.8 0 0 1-.9-.9l-.06-11.22a.71.71 0 0 1 .81-.81h6.15a.64.64 0 0 1 .73.73v2.56a.65.65 0 0 1-.74.73h-3.67c-.21 0-.32.11-.32.34v1a.31.31 0 0 0 .29.34l3.53.42c.2 0 .29.13.29.31v1.15a.52.52 0 0 1-.58.57h-3.07a.51.51 0 0 0-.57.58v1a.29.29 0 0 0 .33.33h4a.5.5 0 0 1 .57.57zM252 73.09a.27.27 0 0 1 0 .12.35.35 0 0 1 0 .13.25.25 0 0 1-.22.09H249a.24.24 0 0 1-.2-.09l-3.08-4.54-.32 4a.46.46 0 0 1-.52.47h-1.76a.43.43 0 0 1-.49-.49V61c0-.43.19-.65.57-.67l5.13-.22h.16a2.93 2.93 0 0 1 2.06.76 2.59 2.59 0 0 1 .86 2v2.34a2.83 2.83 0 0 1-.89 2.14l-1 1zm-3.46-8.43a.74.74 0 0 0-.65-.78l-1.6-.36h-.09q-.19 0-.21.24l-.15 2.73c0 .17.08.25.23.25a.22.22 0 0 0 .13 0l1.8-1.16a1.07 1.07 0 0 0 .54-.92z" fill="#fff"/></svg>