<svg xmlns="http://www.w3.org/2000/svg" viewBox="0 0 260 132"><path d="M95.76 26.5c16.54.19 16.39-25.34-.09-25.33-15.69-.12-16.58 25.14.09 25.33zm5.9-13.81c-.14 7.23-11.04 7.47-10.92-.3.12-7.08 10.81-6.63 10.92.3zM114.22 20.51c.21 3.75-.56 4.01 4.48 3.43 4.3-.96.34-7.8 2.66-10.67 3.7 2.25 3.01 9.86 7.82 10.11 2.41-.73 7.45.73 7.32-3.03-.09-2.88-.52-15.07-.53-18.28 0-1.35-.68-2.05-2.06-2.03-2.2 0-4.42-.49-3.79 2.54.03 3.94 1.48 8.08.16 11.88-5.75-3.27-6.28-14.8-14.49-12.82-2.29.45-2.58.44-2.47 2.78.25 5.37.59 10.74.89 16.1z" fill="#fff"/><path d="M59.21 30.86c.81 4.77 12.51-.53 15.03-2.2 10.02-6.37 3.25-23.21-9-22.33-.03-.13-5.23.9-7.77 1.61-1.35.38-1.76 1.34-1.53 2.71 1.12 6.73 2.23 13.46 3.27 20.21zm9.02-18.62c4.45-.26 6.71 5.66 3.64 8.61-1.69 1.27-6.3 6.22-7.39 2.24-.45-4.82-3.48-10.42 3.75-10.85zM146.94 24.7c5.36 3.06 13.47 2.25 16.14-3.93 1.46-2.5 5.29-19.46 1.2-19.37-8.69-1.25-5.4 4.71-6.96 10.67-.38 2.11-.48 4.34-1.31 6.33-1.07 3.03-5.6 2.86-6.01-.45-1.08-4.23-.71-8.48-.04-12.72.7-4.45.32-4.82-4.25-4.45-3.1-.06-1.95 11.3-2.79 13.67.38 4.15-.11 8.25 4.04 10.26zM176.24 11.22c4.1.45.61 7.58.85 10.38-.55 3.71-.56 3.71 3.23 4.07 2.12.2 2.39.05 2.77-2.06 1.32-3.54-.12-13.51 5.34-12.07 2.84.2 3.13-.04 3.43-2.89-.03-1.56 1.21-4.43-1.23-4.57-5.69-.49-11.39-.99-17.08-1.49-2.78-.1-1.78 4.08-2.48 5.91-.42 2.82 3.41 2.09 5.16 2.74zM188.36 40.84c-1.42-.17-1.77.7-1.96 1.89-1.36 8.71-2.74 17.42-4.14 26.13-.57 3.56-1.18 7.11-1.78 10.67-.49 3.37 4.44 1.74 6.46 2.36 4.32.65 3.69-9.93 5.07-13 .52-3.61 1.7-3.52 5.02-3.03 3.64.71 1.55 6.89 2.34 9.67h-.12c-.23 8.35-.81 8.55 7.88 9.12 2.29.16 2.63-.28 2.35-2.59-.56-4.62-1.07-9.26-1.72-13.87-.75-2.94 2.53-2.54 4.07-3.98 4.69-4.17 9.07-11.84 3.65-17.19-7.37-6.23-18.18-4.24-27.12-6.17zm18.77 15.97c-.64 3.41-4.56 2.99-7.24 3.21-5.15-.04-5.57-.83-5.01-5.86-.55-6.46 6.74-7.31 10.93-4 2.18 1.72 1.77 4.31 1.32 6.65zM172.36 41.72c-6.18-7.88-18.44-4.95-24.38 1.93-4.11 4.44-5.01 9.86-5.43 15.64 3.35 44.97 51.04 12.32 29.81-17.58zm-8.52 26.83c-3.31 3.73-8.22 3.16-10.33-1.37-4.64-8.32-.22-24.09 11.43-20.91 3.09.7 2.77 4.79 3.28 6.98-.4 5.64-1.01 10.98-4.38 15.31zM259.75 57.03c-3.75-.43-8.35-4.41-11.63-1.33-2.07 1.18-10.45 12.55-11.01 6.63-3.64-10.91 1.12-13.91-11.93-14.17-6.57-1.9 7.3 20.27 4.86 24.34-.9 4.57-1.71 9.16-2.53 13.74-.95 3.38 3.41 2.5 5.44 3.27 3.33.8 3.65.62 4.33-2.76.82-4.07 1.64-8.15 2.4-12.24 2.1-6.02 15.22-11.89 20.32-16.94-.08-.18-.17-.36-.25-.55zM138.03 45.91c1.6-.15 2.22-1.04 2.1-2.58-.63-2.59 1.01-7.83-3.24-7-7.7.36-15.4.78-23.11 1.19-7.74-.28-4.66 3.18-4.8 8.65.57 3.57 5.88.7 8.36 1.1 2.16-.2 2.58.15 2.66 2.31.32 8.98.63 17.95.93 26.93-.05 2.71 3.25 1.65 4.99 1.79 2.12-.09 2.38-.38 2.38-2.48V62.84h.1c.99-15.77-4.33-15.99 9.63-16.93zM72.06 83.12c2.24-.51 2.42-.84 1.41-2.9-5.88-12-11.78-24-17.65-36.01-1.82-3.22-8.79.18-12.06-.04-2.52.37-2.7.54-3.08 3.09-2.12 14.44-4.12 28.43-6.29 42.94-.07 2.84 6.78-1.08 8.64-.93 4.02-1.14 2.31-7.97 3.48-11.29 1.05-4.18 7.36-3.08 10.67-4.53 4.28-1.37 5.45 6.31 7.48 9.01 1.37 3.28 4.88.9 7.38.66zM47.89 70.68c-.25-.51-.76-1.05-.71-1.53.96-5.21.19-11.17 2.48-15.92 3.14 3.83 4.23 9.15 6.43 13.59.44 2.75-5.87 2.71-8.2 3.87zM82.17 77.87c3.3 2.57 24.55 5.93 22.25-.71-1.15-2.28-.39-7.72-4.09-6.97-7.54 1.26-14.16-1.41-16.1-9.56-2.16-8.71 5.01-15.08 13.11-14.28 3.44-.23 2.11-5.19 3.11-7.55.3-1.56-.36-2.22-1.83-2.53-25.12-4.4-34.64 27.47-16.45 41.6zM66.06 112.59c.05 15.86 24.27 17.29 24.88.32.38-16.81-24.47-17.44-24.88-.32zm6.36-1.08c.07-7.19 11.03-6.9 10.82.35.1 7.31-11.23 6.97-10.82-.35zM59.28 106.5c-.73-3.98-.91-4.02-4.7-2.57-4.64 1.93 3.04 9.89-3.28 10.57-4.4 1.11-4.4 1.04-5.26-3.38-.94-4.87-.16-4.71-5.62-3.35-1.31.33-1.65 1.01-1.35 2.31 1.42 6.11 2.75 12.23 4.18 18.34.83 3.55 1.28 3.71 4.8 2.43 3.31-1.39.11-5.92.29-8.59-1-3.5 2.74-3.56 5.13-4.32 5.23-.87.85 10.84 6.14 10.41 1.33-.29 3.62-.17 3.15-2.16-1.16-6.56-2.26-13.12-3.46-19.67zM106.77 115.23c-2.99.54-3.64.09-3.98-2.99-.42-3.92-.8-7.84-1.22-11.75-.42-3.91-.65-4.01-4.6-3.3-1.57.28-1.99 1.01-1.82 2.51.78 6.89 1.48 13.79 2.23 20.69.26 2.36.58 2.61 2.95 2.6 3.2-.38 6.4-.71 9.59-1.14 5.05-.68 5.02-.7 4.3-5.86-.63-3.26-5.21-.61-7.45-.75zM179.97 98.05c-.61-3.57-5.97-1.61-8.59-2.4v.07c-3.75.08-5.92-.82-6.68 3.58-1.74 5.79-3.47 11.59-5.19 17.39-1.42 4.79-1.17 5.04 3.84 4.36 1.3-.18 1.97-.75 2.22-2.04.96-2.4.23-7.17 3.67-7.36 4.21-.16 4.66.18 5.3 4.28.78 4.84-.44 5.3 5.61 4.99 1.91-.04 2.22-.42 2.01-2.34-.73-6.84-1.49-13.68-2.19-20.52zm-8.78 11.89c-3.38-.16-4.21-.2-2.82-3.95.85-2.1.97-4.57 3.05-5.91 2.01 1.51 2.05 4.05 2.67 6.29.72 3.13.26 3.68-2.89 3.57zM136.19 94.59c-1.38.19-1.96 1.1-1.96 2.46.01 3.6-.55 17.13-.74 20.29-.71 6.8 11.62 2.6 14.75.52 14.72-10.32 4.34-27.08-12.05-23.27zm3.03 15.45c0-1.11-.08-6.43-.14-7.98 0-5.82 10.41-1.2 10.75 2.17 3.31 7.17-11.4 15.57-10.6 5.81zM25.84 71.53v-.07-.03c-.29-1.03-.84-1.52-1.54-1.69-1.2-.29-2.86.38-4.47.88-.33.1-.65.2-.97.27l-.39.09c-.03 0-.06.01-.1.02-.29.06-.58.09-.86.1-2.18-1.17-2.12-4.06-2.75-6.22 0-.02 0-.04-.02-.05-.03-.15-.05-.28-.06-.42v-.17-.14c.11-1.32 1.5-2.16 3.25-2.81 2.6-.87 6.06-1.34 7.63-2.69.23-.18.41-.39.55-.62.17-.27.27-.57.29-.91.14-1.12-.29-2.49-.71-3.84-.15-1.3-.3-2.67-.76-3.56-.28-.95-.84-1.27-1.98-.93-6.97 2.06-13.96 4.05-20.92 6.13-2.08.62-2.34 1.13-1.78 3.17 1.09 3.94 2.18 7.88 3.27 11.81 1.8 7.34 3.96 16.19 5.91 21.3.24.88.49 1.75.73 2.63.29 1.05.87 1.53 1.75 1.51.21.08.41.06.61-.08 3-.76 5.11-1.15 6.53-1.56 2.24-.63 2.76-1.29 2.29-3.53-.28-1.37-.94-3.33-1.83-6.23-.02-.06-.03-.11-.05-.17-.81-1.8-.48-2.79.4-3.41 1.22-.86 3.49-1.01 5.2-1.6.07-.02.13-.05.2-.07.1-.03.2-.06.29-.09 1.22-.45 1.44-1.44 1.29-2.58-.19-1.47-.97-3.2-1.01-4.44zM199.97 107.3c-2.58 2.93-2.93-3.59-3.76-5.09-1.84-5.68-2.02-5.81-7.97-5.5-1.62.08-1.8.37-1.17 1.79 1.88 4.2 3.83 8.37 5.57 12.63 2.17 3.09-4.32 13.84.18 13.78 11.82 1.4 3.71-9.46 9.25-14.89 3.12-3.13 6.35-6.14 9.26-9.46-5.77-3.86-8.41 3.14-11.36 6.75zM125.99 98.25c-.12-3.38-.37-3.49-3.79-3.05-1.39.02-2.01.66-1.84 2.09.76 6.95.88 13.94 1.11 20.92-.23 3.19 5.85 2.49 5.16-.34.02-2.99-.51-16.07-.64-19.61z" fill="#fff"/></svg>