<svg xmlns="http://www.w3.org/2000/svg" viewBox="0 0 210 105"><g fill="#fff"><path d="M28.27 50.44c.39.48.62 1.51 1.3 1.9 3.76 1.31 7.77 1.94 11.61 3.07s7.75 2.34 10.67 5.48c1.49 1.6 2.5 3.47 3.83 5.08.3.36.47.55.97.45.42-.08 2.1-1.44 2.38-1.81.47-.61.44-1.66 1.47-1.62.03.41-.22.77-.4 1.12-.41.82-1.01 1.69-1.51 2.48-.25.4-1.11 1.43-1.14 1.8-.06.62 1.07 2.14 1.41 2.79.11.22.8 1.56.69 1.66-.22.02-.37-.14-.53-.26-.67-.51-2.24-2.48-2.93-2.63-.11-.02-.19-.03-.29.02-3.64 2.94-7.4 5.74-11.49 8.02-.86.79.67 1.53 1.19 2.03 4.09 3.86 10.39 10.61 13.3 15.32.17.28.3.8.49.98.65.64 3.51-.23 4.52-.11.87.1-.32 1.08-.63 1.37-2.37 2.21-5.33 4.02-8.03 5.81-.76.31-.94-1.36-1.03-1.9-.49-3.07-.11-4.37-1.71-7.3-2.21-4.06-6.35-9.86-9.47-13.28-.24-.27-1.34-1.42-1.58-1.46-.18-.04-.42-.01-.6.02-1.56.71-3.25 1.13-4.83 1.78-.37.15-.6.23-.7.67l.95 14.03c-.15 1.17.48 3.93-.87 4.48-.73.3-3.27.29-4-.03-1.11-.49-.73-2.31-.8-3.29-.04-.51-.26-1.07-.31-1.47-.33-2.81.13-5.67.21-8.48.02-.59.1-3.08-.02-3.45-.22-.64-2.02.14-2.42.38-.98.57-2.13 3.03-2.88.52-.59-1.97-.83-6.39-.66-8.46.01-.15.11-.89.27-.89.54.48.43 2.35 1.17 2.49.53.1 2.3-.26 2.89-.42.39-.11 1.25-.33 1.42-.68.29-.61.16-2.28.24-3.01.15-1.4.49-2.77.54-4.18.21-2.83 1.44-6.17 1.56-8.92.02-.5.09-.89-.46-1.11s-2.15-.42-2.69-.26c-.37.11-1.15 1.01-1.38 1.35-.5.74-.88 1.94-1.4 2.58-.14.17-.23.25-.47.21-.05-.19-.1-.37-.11-.57-.18-2.44.28-10.14 1.5-12.14.22-.36.46-.54.78-.15zm6.89 10.17c-.34.48.03 2.1-.25 2.74.26 3.61-.43 7.55-.11 11.12.02.27.09.67.39.76.46.14 1.47-.24 1.98-.39 4.64-1.44 10.89-3.66 15.12-5.96.53-.29 1.07-.49.85-1.2-.07-.24-2.34-1.65-2.74-1.88-4.14-2.39-8.82-3.84-13.42-5.04-.49-.13-1.41-.73-1.83-.15zM25.08 43.16c-.21-.13-.54-1.72-.64-2.03-.36-1.09-1.11-.29-1.76-.18-.3.05-.83.06-1.12.02-3.56-.55-9.58-9.1-11.59-12.1s-4.4-6.57-5.86-9.76c-.56-1.21-.72-2.48-1.81-3.33-.58-.45-2.03-1.13-2.26-1.84-.05-.17-.03-.24.04-.39.33-.76 3.58-2.41 4.45-3 1.13-.77 2.1-1.72 2.5-3.06.92-.14 1.77.63 2.15 1.42.28.6.78 2.85.8 3.51.01.54-.26 1.15-.31 1.69-.08.93.28 1.45.67 2.24 3.42 6.97 8.56 13.55 12.39 20.32 1.57 1.44 1.25-.76 1.3-1.73.31-6.07-.52-12.2.63-18.23-.06-1.04-2.6-.58-2.62-1.68 0-.33.56-1.9.75-2.19.16-.23.34-.38.64-.36.61.04 2.94.94 3.58 1.25 2.19 1.04 5.54 3.03 7.55 4.41.51.35.94.56.69 1.18-.74 1.81-3.1-.08-3.95.62-.2.17-1.11 3.02-1.26 3.51-1.41 4.8-2.43 9.86-3.39 14.75.21 2.52 1.63.71 2.69-.03 2.77-1.92 7.32-4.34 8.9-7.25 2.54-4.68 4.1-11.38 5.56-16.56.56-1.99 1.52-4.02 1.32-6.14-.07-.75-.61-1.01-.52-1.97.18-1.87 1.62-.53 2.5.1 1.97 1.41 4.22 3.35 5.99 5.02.36.34 1.71 1.58 1.89 1.88.1.18.15.31.09.51-.09.27-1.28.8-1.56 1.06-.35.32-.97 1.21-1.3 1.64-3.99 5.2-7.5 10.97-11.41 16.27-1.16 1.57-1.71 2.59-3.51 3.52-2.4 1.24-6.4 2.73-9.03 3.34-.28.07-.59-.04-.87.08-.62.27-.55 1.54-.76 2.17-.17.51-.83 1.75-1.53 1.32zM144.88 10.61c-.11.13-.12.28-.14.44-.35 3.23-.11 6.71-.21 9.96.66 5.88.45 12.29 1.38 18.11.04.26.08.55.14.8.13.56 1.07 2.49.98 2.86-.14.61-1.64.35-2.13.39-.81.07-1.69.28-2.51.32-1.03.05-3.99.18-4.15-1.21-.12-1 .09-2.05.11-3.04.14-5.32.31-10.63.62-15.94.12-1.99.11-4.45.55-6.37.29-1.24 1.14-2.83 1.31-4.04.12-.86-.28-.97-1.05-.84-2.22.9-4.7 1.51-6.89 2.44s-2.42 1.93-2.31 4.19c.02.39.55 3.01-.24 2.87-.53-.09-2.91-4.89-3.27-5.65-.85-1.83-1.67-3.78-2.41-5.66-.15-.39-.8-1.97-.79-2.25.08-1.35 3.11-.23 3.93-.17 2.43.2 5.26-1.3 7.67-1.87s4.76-.72 7.18-.79c.21-.1.4-.23.49-.45.31-.75.37-1.88.58-2.67.18-.65.43-1.58.86-2.07.59 0 .28 4 .37 4.55.03.17.15.46.31.53.31.15 3.52.06 4.15.06 4.45-.06 10.99-1 13.83 3.25.13.19.92 1.41.43 1.46l-2.42-.93c-4.73-.14-10.36.03-14.96 1.18-.36.09-1.21.27-1.42.52zM129.53 90.44c-.07 1.73-1.15 3.24-1.76 4.79-1.16 2.95-1.22 5.62-1.96 8.52-.21.82-.33 1-1.18.64-4.96-2.05-9.95-7.52-13.67-11.39-3.94-4.09-10.79-10.88-12.82-16.02-1.11-2.82-1.73-6.28-1.45-9.3H97c.2.74.24 1.49.45 2.22.25.84 1 2.63 1.42 3.4.26.48.55.85 1.14.58 2.44-1.93 4.88-3.85 7.32-5.79 4.69-3.73 9.38-7.52 14.16-11.21 1.45-1.12 2.2-1.36 2.93-3.25.17-.43.58-2.46.85-2.51.4-.07 1.65 2.1 1.88 2.51 1.53 2.77 2.88 6.51 3.75 9.56.37 1.28.99 3.47 1.02 4.75.02.56-.13.79-.67.56-1.28-.55-1.79-2-3.69-2.29-4.62-.69-8.26-1.17-12.41 1.31-2.25 1.34-4.57 3.08-6.72 4.61s-4.98 3.37-6.77 4.97c-.25.23-.59.5-.58.88.47 1.03.84 2.34 1.44 3.29 2.8 4.44 13.71 9.4 18.67 11.21 1.74.64 3.53 1.34 5.43 1.08.41-.06.89-.54 1.15-.84.48-.56.94-1.8 1.31-2.15.14-.13.22-.19.42-.15zM86.41 41.7c-1.24.3-2.44.24-3.68-.01-2.17-.45-2.26-1.08-2.76-3.11s-.77-4.35-.99-6.35c-.12-1.11-.05-2.48-.22-3.56-.03-.19-.19-.5-.35-.59-.17-.1-1.67-.35-2.01-.4-1.64-.26-3.92-.59-5.54-.65-.78-.03-1.35-.21-1.42.68-.29 3.5.88 7.76 1.05 11.32.02.34.1 1.21-.21 1.36-.5.24-1.58-.13-2.15-.16-.66-.04-1.67-.06-2.31 0-.94.09-2.54.87-3.44.61-.7-.21.41-1.42.66-1.71.29-.33.86-.61.94-1.05.11-.57-.18-1.85-.21-2.51-.08-2.23-.15-4.59-.1-6.82 0-.47.38-2.26-.17-2.44s-1.23.16-1.76.2c-.14 0-.53.09-.47-.16.72-.78 2.41-.89 2.78-1.94 1.03-5.76 2.24-11.48 3.6-17.16.36-1.5.58-3.16 1.15-4.62.51-1.32.94.89.98 1.39.34 4.53-.03 9.98-.11 14.57 0 .51-.07 3.15.1 3.37.07.09.17.12.28.14.71.14 2.73-.55 3.67-.62 1.16-.09 2.43.06 3.56 0 1.73-.1 1.08-.98 1.21-2.25.42-4.02 1.73-10.15 2.99-13.99.15-.47.71-2.2 1.42-1.84.64.73-.14 1.73-.39 2.55-1.24 4.05-1.62 8.63-1.29 12.86.04.51.12 1.82.29 2.23.21.52 1.28.41 1.7.18 1.33-.74.24-3.03 1.63-3.19 2.22-.25 2.03.71 1.94 2.57-.14 2.92-.98 6.26-.37 9.18.15.73.58 1.38.57 2.13l-.23.16c-.32-.07-.39-.39-.59-.57-.35-.31-1.82-1.77-2.02-1.85-1.68-.69-.57 2.17-.36 2.88.68 2.34 1.67 4.66 2.33 7 .1.36.61 1.97.35 2.19zM182.4 89.81c-.01.29.02.59 0 .89-.17 2.17-2.61 8.92-4.09 10.48-1.26 1.33-1.54.08-2.36-.78-2.08-2.21-6.97-3.52-9.83-4.85-1.4-.64-3.11-1.48-4.37-2.34-1.63-1.11-2.97-3.21-4.46-4.66-2.83-2.75-6.19-5.04-8.39-8.39-.52-.32-1.09.17-1.58.22-.11.01-.35.05-.26-.16.09-.22 1.13-.6 1.46-.85.14-.1.2-.34.29-.36.23-.05.56.03.88-.04 1.72-.39 3.9-1.43 5.66-2 6.35-2.03 12.88-3.52 19.22-5.53 1.57-.5 3.27-1.41 4.8-1.8.7-.18 1.26-.33 1.7.4.87 1.44.48 3.06.61 4.63.22 2.55 1.37 5.06 1.05 7.76-.09.79-1.16 1.25-1.86 1.39-.8.16-.7-.47-1.03-1.02-1.02-1.68-5-3.17-6.86-3.73-5.26-1.56-14.71-1.71-20.04-.42-.59.14-2.35.62-2.8.87-.53.29-.63.71-.13 1.12.46.38 1.6.87 2.19 1.27 3.28 2.18 6.38 4.57 9.8 6.56 3.06 1.78 8.15 4.53 11.66 4.7 1.02.05 3.9-.13 4.68-.78.46-.38.72-1.42 1.16-1.98.97-1.22 1.58-.46 2.92-.59zM186.85 40.1c-.63-.56-1.33-1.21-1.88-1.84-1.21-1.4-1.68-3.04-2.63-4.6-2-3.28-4.95-6.38-6.41-9.94-.14-.33-.08-.86-.45-1.02-.39-.17-1.28.19-1.78.05.07-.61.93-.45 1.37-.57.29-.08.59-.46.78-.47.21-.01.55.22.94.21 1.51-.03 3.56-.5 5.15-.63 6.74-.57 13.5-.59 20.24-1.05 1.82-.12 3.98-.72 5.67-.74s1.65 1.72 1.52 2.99c-.08.79-.53 1.65-.62 2.42-.23 2.13.04 4.44-.35 6.56-.31 1.68-.58 2.07-2.33 2.18-1.01.06-.73-.61-.99-1.32-.61-1.7-4.2-4.19-5.81-5.1-3.97-2.24-10.3-3.92-14.82-4.58-2.59-.38-5.27-.5-7.86-.02-.11.13-.25.3-.25.48 0 .34 1.67 1.76 2.04 2.15 3.37 3.57 6.26 7.17 10.01 10.43 3.46 3.01 7.45 6.27 12.33 5.92 1.55-.11 1.84-1.96 3.06-2.28.56-.15.68.13 1.08.24.61.17 1.32.02 1.1.89-.35 1.42-2.23 4.31-3.12 5.59-.73 1.06-2.81 3.95-3.96 4.32-1.02.33-1.39-1.64-1.89-2.31-1.97-2.64-7.39-5.53-10.14-7.95zM107.06.86c.2-.04.5-.06.69 0 .06.02.9.58 1.01.67 1.49 1.11 1.96 5.93 2.1 7.75.49 6.44.27 13.04.21 19.49-.03 3.5.09 7.11-.1 10.59-.02.32-.12 1.59-.26 1.73-.07.07-.12.08-.21.1-.42.08-2.04.04-2.49-.03-1.9-.3-4.11-2.61-4.27-4.54-.19-2.28.5-5.98.73-8.38.6-6.04 1.46-12.08 1.89-18.13.19-2.65-.17-5.66.11-8.17.04-.39.18-.98.6-1.08zM82.72 56.4c.38-.11.51.19.64.48.7 1.63.49 5.97.34 7.84-.17 2.07-.81 4.18-.94 6.19-.39 5.75.78 12.06 1.15 17.82.13 1.95.07 3.92.21 5.87.11 1.46.34 2.94.52 4.4-.03.31-.43.43-.69.46-1.18.17-3.48 0-4.68-.23-1.14-.21-1.34-.28-1.44-1.49-.25-2.8.6-6.54.84-9.43.09-1.06.03-2.21.11-3.25.61-7.97 2.8-15.07 2.42-23.27-.04-.88-.33-1.83-.2-2.71.07-.52 1.26-2.53 1.74-2.67zM179.26 18.55s.3-.45.37-.52c1.42-1.59 3.97-3.63 5.67-5.03 3.87-3.18 8.28-5.7 12.67-8.09 2.41-1.31 6.23-3.52 8.8-4.2.75-.2 1.12-.4 1.23.6.26 2.29-.43 3.08.8 5.38.3.55 1.29 1.7 1.2 2.27-.07.41-.85.41-1.22.46-4.72.68-9.68.85-14.33 1.93-5.22 1.2-10.04 4.59-14.69 7.12l-.5.08zM151.56 75.14c-.03-.22.02-.37.12-.56.46-.91 1.71-2.5 2.35-3.41 4.55-6.4 10.56-12.16 16.67-17.09.95-.76 2.35-1.91 3.38-2.5.64-.37 1.07-.7 1.45.19.48 1.13.38 2.54 1.05 3.77.42.78 2.66 2.83 2.68 3.2 0 .14-.02.21-.1.31-.12.16-2.57 1.05-2.99 1.2-3.59 1.32-7.25 2.45-10.72 4.06-4.92 2.28-8.69 6.18-12.62 9.82l-1.26.99z"/></g></svg>