<svg xmlns="http://www.w3.org/2000/svg" viewBox="0 0 280 94"><path d="M124.23 9.25l1.97-.18c.1 2.63.3 5.57.68 7.61.85 4.61 6.74 3.6 6.74 3.6v-3.79s-2.85 1.34-2.94-2.29c-.03-.97-.07-3.2-.11-5.52l2.86-.26V4.89l-2.91.52c-.04-2.1-.06-3.73-.06-3.73l-4.35 1.24s0 1.35.03 3.27l-2.58.46.69 2.62zM139.9 19.6l-.22-8.61c.71-.58 1.88-1.35 2.88-1.14 1.56.33.33 9.3.33 9.3l4.22.41s.57-10.32-1.8-12.49c-1.83-1.67-4.55-.12-5.71.69l-.19-7.41-3.89 1.52.41 18.51 3.97-.78zM159.46 19.03l-.94-2.1s-5.14 2.07-6.59-2.36l8.11.39s.68-6.17-3.2-7.69c-3.67-1.44-8.4.78-8.53 5.62-.13 4.85 5.72 9.47 11.15 6.14zm-4.82-9.56c2.14.23 2.2 2.49 2.2 2.49l-4.39-.16s.39-2.52 2.2-2.33zM119.39 42.35c-.05-.11-1.49-3-3.87-3.63-2.98-.79-7.2-.71-10.53 2.77.09-2.52-.12-5.07 0-7.6.1-2.26.6-4.88.7-7.15.17-4.23-3.4-2.55-5.25-.67.18.53.48 7.05.62 9.71.38 7.31.43 14.83-.15 22.15-.06.8-.33 2.12-.33 2.7 0 .89.27 1.76 1.14 2.11 2.27.92 1.27-1.18 2.21-1.46.89-.27 3.11.06 4.23-.04 8.62-.77 14.54-11.04 11.25-18.91zm-6.28 13.57c-1.12 1.29-3 2.07-4.03 2.37-.91.26-4.54 1.1-4.78-.18-.14-.75-.05-2.72-.01-3.58.15-3.59.81-9.65 3.7-11.99 2.56-2.06 6.2-2.38 8.08.73 2.27 3.76-.31 9.61-2.96 12.65zM71.87 54.53c-.2-4.16.74-7.95.87-11.94.04-1.11.06-2.09-1.29-2.15-.81-.04-2.83.7-3.08 1.54-.16.53.25 7.34-.41 11.01-.07.38-.06 3.67-3.2 5.32-2.8 1.47-5.75.23-7.22-2.43-1.91-3.45-.3-9.12 1.08-12.57.3-.75 1.01-1.08.81-2.1-.21-1.03-3.6-1.21-4.35-.42-.16.17-.69 1.13-.81 1.4-2.69 5.75-2.52 16.95 4.44 19.68 1.99.78 4.54.79 6.5-.05.49-.21 3.1-2.06 3.43-1v2.73c1.21.9 3.91-.88 4.08-2.23-.22-2.26-.74-4.53-.85-6.8zM130.02 23.45c-.58-.5-2.22-.06-2.91.17-.77.25-3.14 1.46-3.19 2.27-.01.27.59 8.21.68 11.92.18 7.26-.1 14.62-.04 21.83 0 1.17-.42 1.6.73 2.54.76.63 3.87 1.64 4.09.35.03-.16-.14-1.92-.19-2.21-1.7-11.24-1.32-20.67.36-31.88.14-.96 1.22-4.34.46-5zM185.59 47.98c-.44-.52-2.44-1.92-2.28-2.46.07-.22 1.3-.88 1.61-1.13 3.99-3.38 5.68-7.25 5.39-12.54-.14-2.56-1.46-6.34-3.48-8.03-5.44-4.56-12.82-2.63-17.18 2.41l-1.35 2.4c-1.64.97-1.4-2.34-1.77-3.37-.45-1.27-1.22-1.11-2.28-.68-1.26.51-2.5 1.59-2.61 3.04-.02.32.14.59.13.83-.32 6.79.13 13.53.55 20.28.23 3.64.29 7.23.98 10.79.14.75.21 2.24 1.1 2.65 2.18 1.01 2.51-2.03 3.8-2.11.67-.04 1.15.47 1.75.65 5.24 1.52 11.58 1.37 15.14-3.18 2.38-3.04 3.21-6.31.49-9.54zm-18.82-8.1c.76-5.03 2.92-9.91 7.42-12.62 5.59-3.37 11.06-.17 11.16 6.3.07 4.68-2.93 8.6-7.35 10.05-3.5 1.15-7.68 1.28-11.26.53-.41-.28-.08-3.57.03-4.25zm15.28 16.04c-.29.34-1.63 1.73-3.03 2.17-3.93 1.24-9.43.85-12.4-2.06-.29-2.48-.04-5.05.23-7.54.23-.69 1.99-1.17 2.73-1.36 4.18-1.08 11.97-.63 13.65 4.07.14.39.63 2.61-1.18 4.73zM210.92 53.52c-.26-4.2-.63-10.42-3.97-13.34-1.78-1.55-4.9-2.13-7.18-1.58-1.35.33-4.9 2.44-4.89 3.98 0 .65.37 1.47.97 1.78 1.7.87 2.31-1 3.59-1.65 2.51-1.28 4.86-.21 6.27 2.03 1.02 1.61 2.4 6.09 2.16 7.92-.07.52-.29.88-.87.69-.6-.19-1.81-1.36-2.4-1.71-3.13-1.83-6.06-2.59-9.4-.9-1.28.65-2.76 2.64-3.13 4.04-1.23 4.71 2.13 7.24 2.24 7.31 2.4 1.58 6.62.81 9.14-.2.86-.35 3.89-2.53 4.37-.85.14.5-.15 1.78.2 2.02 1.04.32 1.8-.1 2.72-.46.08-.23.32-6.69.18-9.08zm-12.32 7.05c-2.39 0-3.43-1.27-3.95-2.55-.33-.82-.65-4.23 2.1-5.39 2.4-1.02 5.08-.12 7.08 1.16.37.23 2.17 1.67 2.17 1.94 0 1.51-5.01 4.84-7.4 4.84zM228.5 51.99c-2.33-1.1-6.25-1.37-8.12-3.39-3.47-3.74.45-9.73 5.52-7.82 1.68.63 2.41 2.48 2.09 4.2-.14.77-1.6 1.95.08 2.66 1.3.55 2.8.24 3.22-1.24 1.73-5.96-5.98-10.11-10.92-7.68-1.23.61-3.21 1.96-4.05 3.63-1.09 2.18-.91 5.2.49 7.16 2.05 2.86 6.5 2.58 9.23 4.25.21.13 1.58.8 2 2.09.43 1.32.1 3.13-1.08 3.95-1.64 1.14-4.45 1.08-6.11 0-.97-.63-2.09-2.1-3.27-2.53-.66-.24-1.45.35-1.87.84-.5.59-.51 2.01-.07 2.64 1.43 2.05 4.27 3.15 5.47 3.4 3.28.7 8.65-.64 10.55-3.57.21-.32 1.13-1.6 1.13-2.8 0-2.75-1.97-4.69-4.3-5.78zM148.15 57.08c-1.09-.96-2.54.56-3.34 1.28-.38.34-2.01 2.97-5.59 1.5-.24-.1-1.55-.96-2.24-1.85-.69-.89-1.35-3.44-.31-3.86.9-.05 7.58-1.27 10.16-2.3.91-.36 2.89-1.38 3.54-2.09 2.69-2.94 2.47-8.26-.57-10.78-.39-.33-1.72-.86-2.24-.91-9.67-.95-15.72 10.18-14.41 18.66.95 6.16 9.03 8.2 13.72 4.87 1.34-.95 2.93-3.08 1.29-4.52zm-11.19-8.95c.55-3.47 3.8-7.36 7.39-7.79 4.4-.53 6.19 5.99 2.32 8.45-1.6 1.01-6.79 2.24-8.67 2.26-1.57.02-1.23-1.7-1.03-2.92zM250.11 51.99c-2.33-1.1-6.25-1.37-8.12-3.39-3.47-3.74.45-9.73 5.52-7.82 1.68.63 2.41 2.48 2.09 4.2-.14.77-1.6 1.95.08 2.66 1.3.55 2.8.24 3.22-1.24 1.73-5.96-5.98-10.11-10.92-7.68-1.23.61-3.21 1.96-4.05 3.63-1.09 2.18-.91 5.2.49 7.16 2.05 2.86 6.5 2.58 9.23 4.25.21.13 1.58.8 2 2.09.43 1.32.1 3.13-1.08 3.95-1.64 1.14-4.45 1.08-6.11 0-.97-.63-2.09-2.1-3.27-2.53-.66-.24-1.45.35-1.87.84-.5.59-.51 2.01-.07 2.64 1.43 2.05 4.27 3.15 5.47 3.4 3.28.7 8.65-.64 10.55-3.57.21-.32 1.13-1.6 1.13-2.8 0-2.75-1.97-4.69-4.3-5.78zM46.25 47.98c-.44-.52-2.44-1.92-2.28-2.46.07-.22 1.3-.88 1.61-1.13 3.99-3.38 5.68-7.25 5.39-12.54-.14-2.56-1.46-6.34-3.48-8.03-5.44-4.56-12.82-2.63-17.18 2.41l-1.35 2.4c-1.64.97-1.4-2.34-1.77-3.37-.45-1.27-1.22-1.11-2.28-.68-1.26.51-2.5 1.59-2.61 3.04-.02.32.14.59.13.83-.32 6.79.13 13.53.55 20.28.23 3.64.29 7.23.98 10.79.14.75.21 2.24 1.1 2.65 2.18 1.01 2.51-2.03 3.8-2.11.67-.04 1.15.47 1.75.65 5.24 1.52 11.58 1.37 15.14-3.18 2.38-3.04 3.21-6.31.49-9.54zm-18.82-8.1c.76-5.03 2.92-9.91 7.42-12.62 5.59-3.37 11.06-.17 11.16 6.3.07 4.68-2.93 8.6-7.35 10.05-3.5 1.15-7.68 1.28-11.26.53-.41-.28-.08-3.57.03-4.25zm15.28 16.04c-.29.34-1.63 1.73-3.03 2.17-3.93 1.24-9.43.85-12.4-2.06-.29-2.48-.04-5.05.23-7.54.23-.69 1.99-1.17 2.73-1.36 4.18-1.08 11.97-.63 13.65 4.07.14.39.63 2.61-1.18 4.73zM96.39 42.35c-.05-.11-1.49-3-3.87-3.63-2.98-.79-7.2-.71-10.53 2.77.09-2.52-.12-5.07 0-7.6.1-2.26.6-4.88.7-7.15.17-4.23-3.4-2.55-5.25-.67.18.53.48 7.05.62 9.71.38 7.31.43 14.83-.15 22.15-.06.8-.33 2.12-.33 2.7 0 .89.27 1.76 1.14 2.11 2.27.92 1.27-1.18 2.21-1.46.89-.27 3.11.06 4.23-.04 8.62-.77 14.54-11.04 11.25-18.91zm-6.28 13.57c-1.12 1.29-3 2.07-4.03 2.37-.91.26-4.54 1.1-4.78-.18-.14-.75-.05-2.72-.01-3.58.15-3.59.81-9.65 3.7-11.99 2.56-2.06 6.2-2.38 8.08.73 2.27 3.76-.31 9.61-2.96 12.65zM13.48 71.12H1.54c-.85 0-1.54.69-1.54 1.54v19.46a1.54 1.54 0 0 0 3.08 0v-7.18h6.28l6.15 8.11c.3.4.76.61 1.23.61a1.533 1.533 0 0 0 1.23-2.46l-4.74-6.25h.27c3.57 0 6.48-2.91 6.48-6.48v-.86c0-3.57-2.91-6.48-6.48-6.48zm3.41 7.34c0 1.88-1.53 3.41-3.41 3.41H3.07v-7.68h10.41c1.88 0 3.41 1.53 3.41 3.41v.86zM41.98 89.65H31.31c-1.73 0-3.14-1.41-3.14-3.14v-1.56h12.81a1.54 1.54 0 0 0 0-3.08H28.17v-4.94c0-1.73 1.41-3.14 3.14-3.14h10.37a1.54 1.54 0 0 0 0-3.08H31.31c-3.43 0-6.21 2.79-6.21 6.21v9.57c0 3.43 2.79 6.21 6.21 6.21h10.67a1.54 1.54 0 0 0 0-3.08zM111.34 89.65h-10.67c-1.73 0-3.14-1.41-3.14-3.14v-1.56h12.81a1.54 1.54 0 0 0 0-3.08H97.53v-4.94c0-1.73 1.41-3.14 3.14-3.14h10.37a1.54 1.54 0 0 0 0-3.08h-10.37c-3.43 0-6.21 2.79-6.21 6.21v9.57c0 3.43 2.79 6.21 6.21 6.21h10.67a1.54 1.54 0 0 0 0-3.08zM67.52 70.86c-.77-.36-1.68-.02-2.04.75l-7.4 15.98-8-16.02c-.38-.76-1.3-1.07-2.06-.69-.76.38-1.07 1.3-.69 2.06l9.43 18.88c.26.52.79.85 1.37.85h.02c.59 0 1.12-.35 1.37-.89l8.74-18.88c.36-.77.02-1.68-.75-2.04zM89.19 73.79a1.54 1.54 0 0 0 0-3.08H73.68a1.54 1.54 0 0 0 0 3.08h6.22v15.86h-6.22a1.54 1.54 0 0 0 0 3.08h15.51a1.54 1.54 0 0 0 0-3.08h-6.22V73.79h6.22zM138.48 70.33c-.85 0-1.54.69-1.54 1.54v16.12c0 .92-.75 1.66-1.66 1.66h-4.88V71.87a1.54 1.54 0 0 0-3.08 0v17.78h-4.58c-.92 0-1.66-.75-1.66-1.66V72.18a1.54 1.54 0 0 0-3.08 0v15.81a4.75 4.75 0 0 0 4.74 4.74h12.53a4.75 4.75 0 0 0 4.74-4.74V71.87c0-.85-.69-1.54-1.54-1.54zM278.46 70.33c-.85 0-1.54.69-1.54 1.54v16.12c0 .92-.75 1.66-1.66 1.66h-4.88V71.87a1.54 1.54 0 0 0-3.08 0v17.78h-4.58c-.92 0-1.66-.75-1.66-1.66V72.18a1.54 1.54 0 0 0-3.08 0v15.81a4.75 4.75 0 0 0 4.74 4.74h12.53a4.75 4.75 0 0 0 4.74-4.74V71.87c0-.85-.69-1.54-1.54-1.54zM247.49 70.33h-9.28c-2.85 0-5.17 2.32-5.17 5.17v12.04c0 2.85 2.32 5.17 5.17 5.17h9.28c2.85 0 5.17-2.32 5.17-5.17V75.5c0-2.85-2.32-5.17-5.17-5.17zm2.11 17.22a2.1 2.1 0 0 1-2.1 2.1h-9.28a2.1 2.1 0 0 1-2.1-2.1V75.51c0-1.16.94-2.1 2.1-2.1h9.28c1.16 0 2.1.94 2.1 2.1v12.04zM226.56 70.33c-.85 0-1.54.69-1.54 1.54v9.96h-12.87v-9.96a1.54 1.54 0 0 0-3.08 0v19.32a1.54 1.54 0 0 0 3.08 0V84.9h12.87v6.29a1.54 1.54 0 0 0 3.08 0V71.87c0-.85-.69-1.54-1.54-1.54zM151.02 73.86h11.57a1.54 1.54 0 0 0 0-3.08h-11.57c-3.13 0-5.69 2.55-5.69 5.68v2.96c0 3.13 2.55 5.68 5.69 5.68h8.13c1.05 0 1.9.85 1.9 1.9v.6c0 1.12-.91 2.03-2.03 2.03h-12.53a1.54 1.54 0 0 0 0 3.08h12.53c2.82 0 5.11-2.29 5.11-5.11V87c0-2.74-2.23-4.97-4.97-4.97h-8.13c-1.44 0-2.61-1.17-2.61-2.61v-2.96c0-1.44 1.17-2.61 2.61-2.61zM190.92 73.86h11.57a1.54 1.54 0 0 0 0-3.08h-11.57c-3.13 0-5.68 2.55-5.68 5.68v2.96c0 3.13 2.55 5.68 5.68 5.68h8.13c1.05 0 1.9.85 1.9 1.9v.6c0 1.12-.91 2.03-2.03 2.03h-12.53a1.54 1.54 0 0 0 0 3.08h12.53c2.82 0 5.11-2.29 5.11-5.11V87c0-2.74-2.23-4.97-4.97-4.97h-8.13c-1.44 0-2.61-1.17-2.61-2.61v-2.96c0-1.44 1.17-2.61 2.61-2.61z" fill="#fff"/></svg>