<svg xmlns="http://www.w3.org/2000/svg" viewBox="0 0 250 111"><path d="M245.95 107.87c-1.06 1.61-4.18 2.08-6.31 1.75-5.28-.82-10.2-3.98-13.87-7.72l-2.79-2.84c-4.92-5.8-8.76-12.48-10.49-19.9-.64-2.76-.73-5.37.39-7.86.86-1.92 2.63-2.91 4.7-2.77l3.04.2c3.86 1.25 7 3.39 10.08 5.94l5.14 5c2.47 2.4 4.36 5.31 6.14 8.26 2.26 3.76 3.98 7.61 4.92 11.87.63 2.81.67 5.61-.95 8.07zm-6.13-6.86c.78-3.96-1.41-8.55-3.45-12.26-2.15-3.9-4.94-7.38-8.71-9.73-1.4-.87-2.83-1.14-4.41-1.16-1.92-.02-3.38 1.14-3.42 3.19s.58 4.1 1.53 6c1.59 3.17 3.48 6.17 5.88 8.78l2.09 2.26 1.86 1.68c3.24 2.94 8.07 4.1 8.64 1.23zM156.37 55.64c.18 3.28.61 8.46-1.73 8.47-.47 0-1.37-.66-1.43-1.23l-.54-4.85-.25-2.8-.34-3.35-.58-5.99-.48-5.86-.31-4.29c-.08-1.06.21-1.94 1.23-2.26 1.45-.45 2.98 1.39 3.75 3.1l1.79 4.02 2.18 4.9c.35-1.19.18-2.08 0-3.21l-.5-3.28-.51-3.36-.11-2.41c.91-1.12 2.36-1.42 3.53-.41.71.61 1.38 1.7 1.86 2.64l6.17 12.02 5.69 11.33c.35.7.76 1.97.42 2.62-.51.98-1.88.5-2.39-.13l-1.59-1.99-4.14-7c-1.43-2.41-2.46-4.88-4.38-7.02-.14.75.15 1.33.26 2l1.77 9.94c.29 1.63.7 3.33.25 4.9-.13.43-1.06 1-1.48.96-.47-.04-1.34-.59-1.56-1.12l-3.21-7.68-3.68-8.53.05 5.32.24 4.55zM169.54 92.53c.98-1.94 4.93-3 4.18-6.87-.41-2.15-1.2-4.32-2.41-6.1-.89-1.3-2.42-1.63-3.85-1.48l-1.88.19.97 4.06.71 3.56.88 4.6 1.1 6.07 1.63 9.03c.35 1.92.58 4.17-1.04 4.44-1.32.22-2.03-2.57-2.51-4.5l-4.93-19.57-1.89-8.33-.87-4.09 4.03-.22c1.6-.09 3.46-.37 5.03-.02 2.73.62 5.16 2.64 6.63 5s2.43 4.99 3.16 7.73c.31 1.17.23 2.91-.03 4.07-.3 1.37-1.5 2.48-2.25 3.59l2.98 3.58 2.12 2.92 3.46 5.43c.8 1.25 1.45 3.5.81 4.17-.93.99-3.3-.94-4.66-2.88l-4.48-6.39c-1.61-2.3-3.44-4.05-5.75-5.66-.62-.43-1.53-1.53-1.13-2.32zM151.02 94.72c-.91-2.41 1.53-2.56 3.76-5.19.3-.36.72-1.41.69-1.86-.18-2.95-1.45-8.02-3.25-8.18l-2.89-.25c-.22-.02-.84.18-.83.38l.05.87.91 7.98.55 5.02.53 5.32.47 4.83.24 4.37c.05.88-.71 2.52-1.74 2.18-1.65-.54-1.38-2.67-1.62-4.01l-1.76-9.83-1.52-9.37-.86-5.86c-.32-2.16-.66-4.22-.28-6.4l4.22-.04c1.14-.01 2.81-.45 3.88-.04l2.04.78c1.73.66 2.9 2.32 3.72 3.87l.9 1.69c.36.69.53 1.46.75 2.27.74 2.75 1.47 5.64.17 8.39l-1.96 2.79 1.99 2.76 1.56 2.52 1.76 3.05.82 1.47c1.13 2.02 2.33 4.86 1.06 5.91-.73.6-3.53-1.88-4.46-3.51l-4.79-8.42a26.589 26.589 0 0 1-4.12-3.49zM126.86 100.12c-.73-2.64-.56-5.34-.75-8.13l-.45-6.31-.24-5.6.03-2.44c0-.69.68-1.37 1.24-1.28.85.14 1.15.59 1.28 1.38l.58 3.48 2.58 16.85c.24 1.57 1.51 3.02 2.67 3.93 1.58 1.24 3.84.38 4.46-1.35.7-1.99.56-3.88.33-5.91l-.87-7.57-.48-4.3-.83-7.49c1.03-.27 2.77-.26 3.44.48l1.02 2.05.85 4.47 1.15 6.82.58 3.78.45 2.01.22 3.59c.3 4.94-2.06 11.14-6.87 12.07-1.83.35-3.32-.57-4.72-1.48-2.55-1.66-4.78-5.85-5.68-9.06zM119.84 96.33c-1.41-2.03-4.13-1.95-5.87-4.23l.07 8.41.07 7.21c0 .9.04 1.89-.76 2.49-1.95-.82-2.37-4.26-2.56-6.77L110 92.95l-.26-6.13-.23-7.42-.11-1.8 3.54-.25 4.06-.29c2.69-.19 4.76 1.99 5.39 4.47.58 2.3.97 4.7.5 7.07l-.95 2.88c1.48 1.64 2.63 3.99 2.92 6.08.61 4.51 0 9.8-3.93 12.09-1.96 1.14-5.23.92-5.82-.87-.27-.83-.21-2.47.03-3.42 1.72-1.46 4.37-1.14 5.19-3.21.71-1.78.72-4.08-.49-5.82zm-5-5.86l2.88-1.04c1.92-.69 1.95-4.44.98-5.59-.33-.39-1.36-.8-1.91-.72l-3.15.45.16 4.44.22 3.68.81-1.22zM228.67 40.46c-.51-.82.06-1.81.6-2.43 1.16-1.31 1.6-3.2.55-4.59l-2.95-3.92c-1.18-1.57-2.94-3.07-5.11-2.75l-2.39.35c.06.53.31 1.28.6 1.75l10.67 17.41L233 50.1l2.69 4.81c.11.2-.06.94-.26 1.02-1.72.71-3.88-2.99-5.4-5.26L215.4 28.86l-3.44-5.48 5.51-.8c2.71-.39 4.77.13 7.22 1.27 4.28 2.9 7.72 6.79 10.34 11.17 1.51 2.53-.09 4.83.12 5.55.09.29.56.55.9.81l4.57 3.54 2.63 2.2 2.17 1.86 4.09 4.04c.4.4.61 1.27.33 1.74-2.17-.56-4.04-1.58-5.71-2.96l-6.66-5.51c-1.94-1.6-3.95-2.83-6.26-3.87-.97-.44-2.01-1.07-2.56-1.98zM215.22 50.37l7.89.67c2.44.21 4.45 1.32 6.05 3.11.46.51.87 1.36.55 2.01l-3.77.53-5.25.54-2.81.29c-1.75.18-3.2-.64-4.16-2.23-5.84-9.64-11.21-19.39-16.57-29.37l3.78-.66 7.4-1.19c1.04.23 2.33 1.92 2.04 3.05s-1.6 1.86-2.54 2.34l-3.49 1.79 3.48 6.04 2.19-.12c2.77-.15 5.95-.18 7.03 2.51.4 1.01.04 2.2-1.06 2.5l-4.51 1.25 3.78 6.96zM202.17 91.63l-6.3-13.34-2.63-.9c-2.79-.95-6.65-1.8-6.36-4.09.07-.53.15-1.15.29-1.42.17-.32.93-.61 1.35-.62l4.22-.14c1.68-.06 3.18-.55 4.86-.47l4.68-.49c1.59.25 3.77 1.81 4 3.59-.39 2.35-2.85 3.49-5.25 3.94l5.85 13.92 6.13 15.22c.25.63.48 1.96 0 2.26-1.1.68-2.35-.24-2.87-1.29l-7.98-16.14zM71.34 106.8c-.38 1.49-.91 3.02-2.28 3.66-.28 0-.88-.15-1.04-.36-.2-.25-.41-1.06-.35-1.39l1.23-7 2.89-14.56 1.04-5.17c.15-.73 1.3-1.58 2.27-2.07l-.03 8.26c0 1.01-.33 2.18-.02 3.03l4.07-.1c.66-.02 1.4.03 1.96-.27l1.95-7.44c.31-1.19.82-2.89 1.33-3.86.12-.22 1.05-.27 1.11-.06l.26.82-.13 4.59-1.05 9.95-1.7 12.74c-.12.9-1.16 2.96-2.24 2.79-1.17-.18-1.28-4.24-1.05-6.81l.24-2.71.09-3.5-2.96.3-3.28.19-2.31 8.98zM89.32 103.5l5.79 1.44c1.89.47 3.2 2.02 2.8 4.01-.11.54-.94 1.19-1.43 1.34l-9.71.02c-1.15-.05-1.77-1.23-1.69-2.38l.25-3.53 1.53-13.66 1.47-10.6c.1-.72.58-1.08 1.21-1.11l3.38-.18 5.74-.4c.99.33.75 2.31-.15 2.98-.67.5-1.64 1.29-2.39 1.57l-4.5 1.7-.33 2.21c-.19 1.3-.26 2.62-.05 3.83 2.14-.1 4.35.08 5.59 1.58.26 2.35-1.91 3.98-4.12 4.05-.8.03-1.67.33-2.4.66l-.99 6.46zM121.88 65.92c-.05.37-.61.94-.89 1.12s-1.2.08-1.37-.22c-1.03-1.84-.81-3.97-.93-5.99l-.23-3.83-.33-3.68-.18-11.25c-.02-1.25.24-2.66 1.04-3.6.86-.05 1.05 1.06 1.24 1.65.51 1.55.7 2.88.96 4.42l.68 4.13c1.84.13 4.02-.13 5.76-.64l.16-3.67.25-5.34.44-2.12c1.51.38 1.57 1.24 1.8 2.31l.84 4.11 1.03 8.37 1.12 9.91c.27 2.36.34 4.34-1.54 4.49-1.04-.83-1.51-2.01-1.78-3.3l-.92-4.3-.49-4.22-2.51.1-3.73.61-.04 8.37-.38 2.54zM190.1 57.57c-.81 3.34-3.97 4.19-7.41 3.55-2.84-.53-5.21-2.54-5.33-5.63-.03-.69 1.29-.97 1.83-.63l2.72 1.7c1.1.68 3.05.67 3.42-.91.29-1.22-.26-2.73-.6-3.95-1.5-5.29-5.94-4.54-9.88-6.61-2.9-1.52-4.25-4.36-5.17-7.32-.82-2.64-.87-5.59 1.44-7.55.9-.37 2.59-.67 3.66-.56 2.97.31 5.04 4.28 4.11 4.5-1.01.24-1.76-.74-3.32-.94-.64-.08-1.62.4-1.93.81-.9 1.19.12 5.27 2.6 6.07l4.44 1.44c1.91.62 3.81 1.7 5.01 3.32 2.61 3.53 5.39 8.71 4.41 12.72zM147.05 57.83c-1.73-.08-3.49.14-5.21.41l-3.33.53-1.14 6.11c-.07.37-1.02.8-1.3.7-.67-.59-.9-1.76-.83-2.73l.64-9.29.26-3.99.2-5.94.23-2.56.18-3.59c.04-.72.26-1.02.79-1.53.74-.73 2.19-1.18 2.95-.39.27.29.94.93 1.11 1.32l2.41 5.52.95 2.38 1.15 2.68 3.8 9.42c.99 2.44 2.96 6.28 1.59 7.18-1.17.76-2.47-1.74-3.34-3.73l-1.09-2.49zm-2.29-3.82c-.43-1.76-.83-2.77-1.44-4.05l-2.36-4.95-.6-1.26c-.47.91-.48 1.49-.57 2.39l-.33 3.13-.66 5.13c1.91.2 3.84.1 5.96-.39zM13.97 110.84c.17-2.06 1.05-3.87 1.82-5.66l.84-1.95 1.7-3.94 4.46-9.93c.95-2.11 2.81-6.12 4.05-5.74.2.06.4.53.4.76l-.03 14.05c.58-.57.73-1.14 1.08-1.83l5.37-10.53c.57-1.11 1.09-1.98 2.34-2.76-.06.98-.23 1.77-.56 2.7l-4.03 11.24-4.15 10.73c-.62 1.6-1.84 2.77-3.6 2.8l.14-10.8.22-4.23.18-.84c.03-.14-.18-.22-.57-.35l-6.77 13.64c-.94.96-1.12 2.33-2.89 2.67zM41.37 102.31c2.17-4.31 4.16-12.71 1.1-14.07-.76-.34-2.11-.32-2.81.22l-3.94 11.55-3.49 9.69c-.14.39-.75 1.08-1.1.74-.74-.72-.71-2.02-.4-3.03l4.97-16.33 2.68-7.99 3.08-.21h3.82c.69-.01 1.92 1.1 2.22 1.79.92 2.11.94 4.69.53 7.1-1.36 8.04-6.4 18.38-15.23 18.98.15-2 1.81-3.07 3.43-3.66 2.35-.86 4.04-2.59 5.13-4.77zM138.89 23.56l.05 3.92c0 .33-.74.84-1.03.75s-.8-.62-.86-.97l-2.81-15.57-.41-2.94-.75-5.68c-.04-.28.34-.91.58-.99.29-.1.91.14 1.11.42l3.19 4.46 6 8.83c-.11-5.21-1.86-10.49-1.25-15.62.42.51 1.11 1.23 1.23 1.63l2.39 7.91 2.26 8.65.99 3.9c.25 1 .69 2.17.13 3.21-.26.49-1.32.85-2.08.98l-7.25-10.75-2.64-3.39.58 6.01.56 5.27zM193.62 104.99c.54 1.81.86 3.65-.34 4.4-1.11.7-3.03-1.46-3.9-3.9L183.13 88l-2.6-7.86-1.77-6.14c-.22-.76.44-2.47 1.33-2.28 2.18.47 3.65 2.5 4.34 4.55l1.33 3.98 5.53 16.99 1.36 4.49.98 3.26zM91.03 64.83c3.74-.5 4.26-5.39 6.15-3.2.22 2.3-.61 4.27-2.3 5.75-.99 1.01-2.14 2.06-3.36 2.66-2.3 1.12-4.55.3-5.85-1.76-3.86-6.08-1.51-15.9 2.57-22.05.78-1.18 2.17-2.4 3.21-3.2 1.43-1.1 2.98-.28 4.17.32 1.93.98 3.11 2.73 2.41 4.89-.13.41-.69 1.04-1.06 1.13-1.28.32-4.32-3.15-6.62-.17-2.07 2.69-2.93 6.16-2.83 9.6.07 2.28 1.73 6.26 3.51 6.03zM105.83 63.76c1.3.25 2.71.66 3.25 1.9.29.66.25 1.6-.05 2.01-.56.78-1.27.74-2.18.83l-6.04.58c-.45.04-1.13.05-1.51-.04s-.85-.93-.84-1.35l.11-5.34.44-6.1.42-6.05.39-5.14.51-3.41 3.65-.49 3.44-.68c.33-.07 1.14-.02 1.44.14 1.25.64-.71 3.79-5.17 5.21-.56.18-.86.71-.9 1.25l-.27 4.44c1.95.48 4.65-.42 5.03 2 .16 1.02-.88 2.31-1.84 2.6l-3.36 1.01-.41 5.88 3.87.74zM202.12 57.91l-4.03-7.18-3.23-5.9-6.08-11.4c-2.35-.31-4.59-.84-6.64-1.97-.46-.25-.83-1.47-.69-1.95.1-.33.44-1 .72-1.02l1.21-.07 4.44-.98 5.55-.9c1.23-.2 3.98 1.83 3.18 3.54-.69 1.46-2.17 2.29-3.77 2.96l6.75 13.98 2.56 5.59 2.55 5.93c-.77.69-1.99.3-2.51-.64zM78.74 65.32l-5.4.54c-.59.06-1.41.32-1.65.83l-1.16 2.44c-.58 1.21-1.04 2.48-2.39 3.16-.24-1.56.42-2.63.88-3.89l4.95-13.6 3.33-7.99c.55-1.31 1.67-2.31 3.2-1.95l.42 2.26.24 3.35.04 19.11c0 .9-1.03 1.73-1.74 1.35l-.72-5.61zm-.23-3.38l-.21-3.67-.13-5.57c-.74.09-.8.65-1.04 1.23l-3.54 8.3c1.21.16 2.12.12 3.14-.03l1.78-.26zM131.31 24.73c1.71.21 2.79.58 3.59 2.05l.51.95c.12.22-.53.84-.8.9l-3.03.67-2.87.5c-.87.15-1.8.17-2.8.01l-.93-5.63-.65-5.91-.64-6.94-.21-4.42-.18-2.1 6.09-1.43c.41-.1 1.17-.08 1.45.14 1.07.83-.15 2.75-2.09 3.9l-2.61 1.55c.67 1.7.79 3 .75 4.72l2.56.02c.92 0 2.15.78 2.26 1.72.16 1.43-1.05 2.25-2.17 2.66l-2.05.76.47 5.44 3.37.42zM11.84 104.94H5.46l-2.96 3.89c-.66.87-1.29 1.57-2.5 2.02.27-1.46 1-2.23 1.7-3.32l8.54-13.24 2.17-3.18 2.45-3.62c1.31-1.94 2.28-3.61 4.58-3.03l-.69 3.81-1.34 5.06-3.35 11.84-1.17 3.66c-.26.82-.99 1.52-1.76 1.98-.39-2.19.2-3.57.71-5.88zm.82-3.69l2.39-9.78c-2.71 3.11-4.48 6.29-6.9 9.39l.27.64c.04.09.32.03.46.02l3.79-.28zM62.4 60.65l-2.42 7.33c-.89 2.68-2.65 6.58-2.98 5.31l-.22-.85 2.66-10.61c.04-.63.18-1.12.4-1.63 1.29-3.02 2.03-6.13 2.86-9.32l1.2-3.33 1.84-.39c1.57-.33 2.62-.59 4.03.32 1.06.69 1.5 1.99 1.44 3.49-.14 3.47-.66 6.75-2.53 9.72-1.32 2.09-3.27 3.91-5.79 4.09-.82-.99-.23-2.58.8-3.25l2.15-1.41c1.6-2.23 2.56-5.06 2.11-7.86-.73-.99-2.8-.46-3.14.62l-2.4 7.77zM104.68 28.42l-4.37.82c-1.06.2-1.49.57-1.89 1.71l-1.45 4.15c-.06.17-.53.42-.69.45-.21.04-.53-.6-.48-.83l.5-2.38 2.65-11.86 2.69-10.43c.79-.36 1.57-.54 2.52-.54l1.56 8.36 1.5 10.18c.23 1.58.44 3.24.38 4.82-.01.3-.9.85-1.07.62-.38-.55-.66-1.64-.9-2.34l-.95-2.73zm-.55-2.96l-.32-2.39-1.11-6.06c-.28.03-.56.41-.66.76l-2.25 8.33 4.33-.63zM21.33 74.56c-.54 1.02-1.23 1.84-2.31 2.42-.48-1.28.27-2.24.75-3.32l1.41-3.15c1.71-3.8 3.44-7.45 5.27-11.19l1.92-3.93c.49-1 .83-2.11 2.27-2.43l-1.5 4.69-1.29 3.66c1.63.09 3 .1 4.27-.38l4.76-8.7.37-.58c.09-.13.67.2.62.35l-.91 2.82-1.71 4.43-4.77 11.67c-1.2 2.94-3.18 6.76-3.69 4.31.82-3.12 1.76-5.78 3.04-8.82-1.21-.32-3.53-.05-4.51.6l-4.01 7.54zM73.33 30.85l-1.53 5.62c-.5 1.85-1.58 4.01-2.35 3.65-.19-.09-.43-.59-.38-.82l1.35-6.43.62-2.73 2.61-10.31c.36-1.42.55-2.92 2.01-3.75l-.27 3.21-.58 5.39 4.18-.78 2.87-9.28.77-.19c.15-.04.06.49.04.65l-.63 5.47-1.56 9.08-.82 4.32-.43 2.29c-.22 1.15-.6 2.36-2.01 2.51-.04-1.51-.14-3.1.04-4.44l.73-5.24-2.94.47c-.76.12-1.52.53-1.73 1.3zM57.49 109.6l1.38-7.53 2.82-13.38c.14-.69.36-1.75 0-2.22-1.31-.56-2.82-1.15-3.35-2.57.31-1.06 1.35-2.05 2.23-2.71l1.87.1c2.81-.41 5.5-.73 8.31-.43.96 2.51-2.45 4.58-5.28 5.57l-1.57 6.51-3.51 12.91c-.58 2.14-.98 4.25-2.42 4.69-.2.06-.55-.64-.49-.95zM58.25 61.63c-.76 8.51-7.45 15.13-10.66 12.16-1.43-1.33.02-4.54 1.18-4.76.74-.14 1.22.93 1.56 1.42 1.07 1.53 3.31-1.27 4.24-5.09.32-1.3-.38-2.44-1.57-2.93-1.43-.59-2.27-1.98-1.95-3.67.76-4.02 2.38-7.83 5.77-10.14.94-.64 2.67-.59 3.21.44s-.11 2.54-.92 3.17l-1.2-.94c-.82-.64-3.61 1.62-3.47 4.87 1.98 2.68 4.12 1.97 3.8 5.49zM35.22 68.71c-1.56 3.31 2.64 1.3 3.82 3.41.48.86-.45 2.9-1.5 3.01l-5.63.58c-.34.04-.98-.03-1.17-.26s-.22-.96-.1-1.26l3.01-7.71.79-2 4.89-11.54c.47-1.12.8-1.7 2.29-1.9l2.83-.39c1.01-.14 1.81-.42 2.71-.08-1.64 3.98-6.28 3.72-7.02 5.84l-1.01 2.88-.26.89c-.11.38 3.24-.37 3.2 1.18-.04 1.43-1.39 2.64-2.69 3.01l-2.45.7-1.72 3.63zM83.71 32.47l4.12.96c.98.23 1.41 1.73 1.05 2.2-.18 1.25-1.16 1.49-2.2 1.56l-4.12.74c-.48.08-1.19.08-1.77.01-.2-1.69.08-3.17.34-4.78l.65-4.02c.73-4.47 1.5-8.79 2.49-13.2l.67-2.13 4.02-.8 2.32-.52c.61 2.43-2.47 4.05-5.02 5.21l-.56 3.81-.06.84c-.03.46 3.78-.38 3.55 1.71-.16 1.5-1.69 2.58-3.07 2.83-1.23.22-1.43.82-1.66 1.96l-.74 3.63zM111.95 26.86c1.67 1.06 4.73.08 5.73 3.09.3.92-.3 1.84-1.23 2.01l-6.06 1.08c-.83.15-1.52-.52-1.51-1.37l.04-14.93.12-4.05c.05-1.65.2-3.11.72-4.8 1.11.29 1.05 1.03 1.17 2.03l.41 3.28.24 3.51.24 5.08.13 5.05zM122.11 23.1c.09 2.74.59 8.75-1.2 7.93-.23-.11-.65-.61-.68-.88l-.46-4.28-.65-8.43-.2-4.5-.22-3.8c-.08-1.4.15-2.55 1.08-3.84l1.49 1.67.48 7.74.19 3.07.17 5.31zM13.55 73.05l2.13-4.72c1.41-3.12 2.79-6.03 4.39-9.09.59-1.13-1.7-1.51-1.49-2.48.55-2.61 3.35-2.64 5.67-3.06.97-.18 1.94-.3 2.97-.25.36 1.98-2.38 3.77-4.58 4.64l-8.28 15.97c-.68 1.32-1 2.93-2.81 3.34l1.99-4.36zM63.1 40.89c-.04.14-.54.53-.6.45l-.44-.54 3.2-13.39 1.36-5.03c-1.09-.48-1.77-.84-2.39-1.71.95-2.27 2.19-2.56 4.79-3.08l3.55-.7c.37 1.57-.4 2.2-1.27 3.11-.73.77-1.56 1.44-2.55 1.78l-.61 2.36-3.88 13.13-1.17 3.62z" fill="#fff"/></svg>