<svg xmlns="http://www.w3.org/2000/svg" viewBox="0 0 350 40"><path d="M102.97 37.45c-4-2.5-6.08-6.68-5.8-11.07.26-3.95 1.13-7.7 4-10.44 4.93-4.7 11.78-3.98 18.05-1.31l-.05-12.13c0-1.08.92-1.84 1.95-1.9.71-.04 1.76 1.12 1.75 2.18l-.23 34.84c0 .78-.73 1.72-1.25 1.85s-1.85-.51-1.92-1.07l-.46-3.36c-4.33 4.24-10.77 5.71-16.05 2.41zm5.81-1.52c4.19.26 9.16-2.2 10.16-6.37.83-3.42-.04-7.06.26-10.58-3.93-3.52-9.44-4.16-14.07-1.83l-1.96 1.74c-2.4 2.77-2.96 6.55-2.36 10.17s3.76 6.61 7.97 6.87zM242.14 37.58c-3.7-2.14-6.2-6.1-6.14-10.15l.4-4.22c.61-6.5 6.05-10.87 12.54-10.77 3.19.05 5.95.79 9.18 2.25l-.04-12.19c0-.9.93-1.81 1.73-1.88.74-.06 1.82 1.07 1.82 2.12l-.04 21.79-.17 13.15c0 .54-.6 1.45-1 1.67-.47.25-1.82-.34-1.93-.91l-.64-3.52c-4.07 4.16-10.35 5.75-15.69 2.66zm5.35-1.7c4.7.35 8.7-2.37 10.6-6.42V19.07c-3.68-3.55-9.19-4.45-13.84-2.07-4.02 2.06-5.4 7.33-4.65 11.96.62 3.87 3.83 6.62 7.89 6.92zM173.83 22.16c0-1.66-.6-3.63-1.55-4.75-3.31-3.93-11.35-.42-14.8 3.8l.13 16.63c-.49.83-1.18 1.6-1.78 1.61-.93.02-1.51-.89-1.53-1.78l-.22-9.71-.11-25.39c0-1.06.97-2.02 1.83-2 .91.02 1.84.94 1.83 1.96l-.08 13.62c5.55-3.45 11.93-5.97 16.77-1.85 1.87 2.2 3.12 4.95 3.11 7.97l-.08 15.64c0 .67-1.33 1.47-1.91 1.47-.81 0-1.57-.95-1.57-1.97l-.04-15.25zM51.36 34.71c-5.52 4.91-13.84 6.9-17.9 1.57-2.4-3.14-2.18-6.96.56-9.64 4.71-4.61 9.97-4.69 16.7-4.18-.36-1.45-.87-3.02-1.66-4.22-2.44-3.71-7.49-2.68-11.77-1.66-.62.15-1.81-.38-2.04-.89-1.2-2.61 6.55-4.7 13.14-2.24 4.52 1.68 5.55 6.25 5.64 11.17l.13 7.37c.04 2.3 3.84 5.17 2.07 6.69-1.39 1.19-3.68-1.01-4.86-3.96zm-.64-4.4l-.06-4.34c-5.19-.61-11.24-.84-14.32 3.02-1.47 1.84-1.51 4.63.68 5.96 4.13 2.5 10.6-.59 13.71-4.65zM283.41 35.79c3.1.21 6-.34 8.83-1.09.49.09 1.34.79 1.5 1.21.19.5-.37 1.6-.98 1.82-7.45 2.65-16.93 2.25-20.47-5.12-2.09-4.35-1.95-9.67.48-13.78 4.11-6.96 12.88-8.72 19.1-3.76 2.98 2.38 4.38 6.31 2.38 9.79-.78 1.35-2.87 2.49-4.53 2.52l-15.65.26c.89 4.65 4.51 7.82 9.35 8.14zm7.62-12.25c1.74-2.75.18-5.76-2.44-6.86-3.16-1.32-6.75-1.28-9.75.38-2.73 1.5-4.32 4.06-4.49 7.18h10.03c2.1 0 4.6-.12 6.66-.71zM19.84 22.74c0-1.06-.3-2.35-.52-3.22-.66-2.66-3.01-4.2-5.75-3.91-3.97.41-7.36 2.4-10.09 5.28l.1 16.75c-.18.55-1.15 1.62-1.87 1.7S.23 38.1.22 36.99L0 8.44l.04-5.99c0-.66.79-1.6 1.38-1.83s2.1.71 2.1 1.36l.06 14.45c3.24-2.28 6.56-3.93 10.32-4.19s6.57 1.44 8.2 4.65c.53 1.58.97 3.31 1.28 5.02l-.09 15.89c-.52.6-1.13 1.24-1.57 1.49-.48.27-1.77-.8-1.78-1.38l-.1-15.17zM213.12 25.79c0 7.56-6.12 13.68-13.67 13.68s-13.67-6.13-13.67-13.68 6.12-13.68 13.67-13.68 13.67 6.13 13.67 13.68zm-3.2-.01c0-5.79-4.69-10.48-10.47-10.48s-10.47 4.69-10.47 10.48 4.69 10.48 10.47 10.48 10.47-4.69 10.47-10.48zM344.84 38.63c-5.28 1.65-10.97 1.12-15.98-.93-.67-.27-1.2-1.34-1.26-1.89s.9-1.71 1.47-1.55c5.47 1.53 12.93 3.88 16.58-.12 1.03-1.13 1.16-3.11.47-4.56-.48-1.02-2.14-2.07-3.61-2.29l-8.14-1.21c-2.46-.36-4.93-1.77-5.94-4.1-1.53-3.54.53-7.38 4.11-8.72 4.63-1.73 9.75-1.61 14.38.16.53.2.94 1.79.69 2.27-1.26 2.47-7.22-2.35-13.92.72-1.91.88-3.14 3.35-1.68 5.06.86 1 2.9 1.44 4.22 1.58l4.27.44c3.81.39 7.64 2.07 8.99 5.76 1.46 3.97-.47 8.06-4.68 9.38zM85.06 37.82L84.94 22c-.01-1.46-.68-3.53-1.62-4.56-3.45-3.75-10.91-.32-14.74 3.64l.08 16.98c0 .63-1.25 1.52-1.82 1.55s-1.4-.91-1.41-1.73l-.37-23.57c-.02-1.01.83-1.85 1.63-2.05.63-.16 1.93.59 1.97 1.32l.16 3.11c5.98-4.45 14.42-6.69 18.23.06 1.42 2.51 1.57 5.57 1.54 8.52l-.17 12.87c0 .57-1.29 1.4-1.83 1.39s-1.52-.86-1.52-1.72zM321.64 13.86c.62 2.27-4.66 1.48-8.81 4.82-1.77 1.42-3.56 3.28-4.58 5.23l.09 13.47c0 .82-1.1 1.79-1.74 1.78-1.13-.01-1.48-1.09-1.49-2.21l-.34-22.52c-.01-.83.9-1.88 1.47-2.09s2.05.65 2.08 1.31l.16 4.28c3.53-3.78 12.11-7.94 13.17-4.09zM223.03 37.7l-.11-10.16-.08-25.64c0-.76 1.33-1.57 1.95-1.51.8.09 1.6 1.05 1.6 2.15l-.07 34.75c0 .75-.83 1.62-1.36 1.81-.66.24-1.92-.57-1.93-1.41z" fill="#fff"/></svg>