<svg xmlns="http://www.w3.org/2000/svg" width="200" height="135" viewBox="0 0 200 135"><path d="M56.8 4.51s-19.29 28.41-29.57 47.4C16.95 70.89 7.88 101.12 7.88 101.12h27.2S41 96.16 45.84 82.98c3.86-10.52 2.3-20.92 2.3-20.92 7.62-2.3 12.57-13.3 17.04-21.28 4.47-7.98 6.16-19.19 6.16-19.19L56.8 4.51zM23.73 91.8c1.57-9.31 12.45-31.19 12.45-31.19C38.72 92.53 23.73 91.8 23.73 91.8zm30.95-51.02c-6.65 10.28-11.49 7.86-11.49 7.86s5.26-12.47 14.39-22.49c0 0 3.75 4.35-2.9 14.63zM75.36 25.3S57.37 56.58 51.91 69.23c-5.46 12.65-12.28 32.03-12.28 32.03l11.11.25 3.79-8.81c2.02-.89 3.71.17 3.71.17l-2.32 8.48 11.34.38s8.58-31.32 9.67-36.4c1.09-5.08 7.25-37.96 7.25-37.96l-8.83-2.06zM64.08 78.72s-1.53 1.53-5.94.48c0 0 3.07-13.23 12.84-28.47l-6.9 27.99zm3.13 51.48s-4.92-11.99-15.78-11.99-14.24 10.35-14.24 10.35-3.38-12.19-14.75-12.19S0 125.8 0 125.8l7.07-22.02h63.9L88.4 46.93l-7.84-.03S92.09 3.89 94.55 0c0 0 .61 18.13.82 22.84s1.13 6.76 4.51 7.07 9.83-7.38 13.11-13.01 7.48-12.4 7.48-12.4v3.59l-12.19 38.93h-6.76l-15.67 56.85h114.01s.61 20.18-.72 29.6c0 0-15.37-12.7-23.56-12.7-10.35 0-25 11.27-25 11.27s-3.38-15.16-13.62-15.16c-12.5 0-29.4 17.62-29.4 17.62s-6.86-16.49-17.41-16.49-22.95 11.27-22.95 11.27m64.45-98l-2.64 14.09s-3.01-.3-4.87-.44-6.24 1-8.3 7.44-9.76 31.74-9.16 35.53c0 0 2.99 1.66 6.51 0l2.52-12.68h-4.12l3.59-16.14 11.42-.4s-1.33 10.89-1.86 13.61-3.11 17.14-4.03 21.72-3.42 7.95-10.71 8.3-13.65.46-15.39-2.78-.35-7.87 1.04-12.61 13.08-41.2 15.39-46.52 3.93-6.83 8.79-7.52 11.82-1.59 11.82-1.59zm1.03 0l9.14-1.88-4.86 72.32s-8.33 1.04-12.38 0l8.1-70.44zm26.96 35.6s5.55-5.77 5.9-16.07c.35-10.3.35-25.23-.93-28.58-1.27-3.36-2.78-5.21-5.67-3.12-2.89 2.08-15.27 10.3-15.27 10.3l-3.12 71.71s9.14.5 12.03-.54V81.02l6.71 20.1 10.41-.66-10.07-33.58zm-7.87-9.59l-.23-21.52 4.17-2.08s6.02 21.29-3.93 23.61zm14.33-40.92s8.43-10.61 12.35-11.87l4.9 82.81s7.84 1.76 9.8-19.01c0 0 6.66 11.95 6.07 31.55 0 0-24.48 1.02-27.24 0 0 0-1.41-30.37-2.27-44.29-.86-13.91-3.61-39.19-3.61-39.19z" fill="#fff"/></svg>