<?xml version="1.0" encoding="UTF-8"?><svg id="logos" xmlns="http://www.w3.org/2000/svg" width="220" height="96" viewBox="0 0 220 96"><path d="M71.36,82.89v1.5h-4.24v11.07h-1.72v-11.07h-4.24v-1.5h10.19Zm1.75,0h1.72v5.19h6.46v-5.19h1.72v12.57h-1.72v-5.88h-6.46v5.88h-1.72v-12.57Zm12.92,0h9.12v1.54h-7.46v3.82h6.9v1.45h-6.9v4.26h7.59v1.5h-9.25v-12.57Zm16.63,0h2.44l3.61,10.63,3.59-10.63h2.42v12.57h-1.63v-7.42c0-.26,0-.68,.02-1.27,.01-.59,.02-1.23,.02-1.91l-3.59,10.6h-1.69l-3.62-10.6v.39c0,.31,0,.78,.03,1.41,.02,.63,.03,1.09,.03,1.39v7.42h-1.63v-12.57Zm25.13,1.8c.83,1.11,1.25,2.54,1.25,4.27,0,1.88-.48,3.44-1.43,4.68-1.12,1.46-2.71,2.19-4.78,2.19-1.93,0-3.45-.64-4.56-1.92-.99-1.23-1.48-2.79-1.48-4.67,0-1.7,.42-3.15,1.27-4.36,1.08-1.55,2.69-2.33,4.81-2.33s3.86,.71,4.93,2.14Zm-1.5,8.01c.67-1.08,1.01-2.31,1.01-3.71,0-1.48-.39-2.67-1.16-3.57-.77-.9-1.83-1.35-3.17-1.35s-2.36,.45-3.18,1.34c-.82,.89-1.23,2.21-1.23,3.95,0,1.39,.35,2.57,1.06,3.52,.7,.96,1.85,1.43,3.43,1.43s2.59-.54,3.26-1.61Zm5.92-9.81l3.61,10.7,3.57-10.7h1.91l-4.59,12.57h-1.81l-4.58-12.57h1.88Zm11.22,0h1.72v12.57h-1.72v-12.57Zm4.79,0h9.12v1.54h-7.46v3.82h6.9v1.45h-6.9v4.26h7.59v1.5h-9.25v-12.57ZM77.95,.78c0-.46,.07-.78,.3-.78,.25,0,.46,.3,.85,.71,.28,.3,3.78,4.06,7.15,7.4,1.57,1.57,4.8,5,5.19,5.37l-.23-10.47c-.02-1.41-.23-1.84-.78-2.08-.35-.14-.9-.14-1.22-.14-.28,0-.37-.07-.37-.21,0-.18,.25-.21,.6-.21,1.2,0,2.31,.07,2.79,.07,.25,0,1.13-.07,2.26-.07,.3,0,.53,.02,.53,.21,0,.14-.14,.21-.42,.21-.23,0-.41,0-.69,.07-.65,.18-.83,.67-.85,1.96-.09,4.87-.16,9.68-.25,14.55,0,.51-.09,.71-.3,.71-.25,0-.53-.25-.78-.51-1.45-1.38-4.4-4.4-6.8-6.78-2.51-2.49-5.14-5.44-5.56-5.88l.25,9.75c.05,1.8,.35,2.4,.81,2.56,.39,.14,.83,.16,1.2,.16,.25,0,.39,.05,.39,.18,0,.18-.21,.23-.53,.23-1.5,0-2.42-.07-2.86-.07-.21,0-1.29,.07-2.49,.07-.3,0-.51-.02-.51-.23,0-.14,.14-.18,.37-.18,.3,0,.71-.02,1.04-.12,.6-.18,.69-.85,.71-2.86,.07-4.89,.16-10.58,.21-13.65Zm19.64,9.64c0-3.46,2.31-7.7,8.37-7.7,5.07,0,8.16,3.11,8.16,7.33,0,4.5-3.16,8.02-8.35,8.02-5.79,0-8.19-4.17-8.19-7.65Zm13.53,.37c0-4.17-2.4-7.03-5.76-7.03-2.26,0-4.8,1.15-4.8,5.99,0,4.01,2.19,7.24,6.02,7.24,1.41,0,4.54-.58,4.54-6.2Zm12.89,1.34c0,1.75,0,3.3,.09,4.15,.07,.53,.18,.97,.81,1.04,.28,.05,.69,.07,.99,.09,.23,0,.35,.09,.35,.18,0,.14-.14,.23-.41,.23-1.34,0-2.74-.07-3.25-.07-.46,0-1.87,.07-2.65,.07-.28,0-.41-.09-.41-.23,0-.09,.09-.18,.35-.18,.28-.02,.51-.02,.69-.07,.44-.09,.55-.51,.62-1.08,.09-.83,.09-2.31,.09-4.13V4.15c-.76,0-2.28,0-3.2,.07-1.18,.09-1.52,.18-1.8,.69-.14,.25-.18,.42-.28,.65-.05,.14-.12,.23-.23,.23-.14,0-.18-.12-.18-.35,.02-.42,.39-2.05,.44-2.31,.05-.28,.12-.42,.23-.42,.16,0,.35,.18,.85,.23,.55,.07,1.38,.12,2.07,.12h8.16c.65,0,1.08-.07,1.38-.12,.3-.05,.46-.09,.58-.09,.14,0,.16,.12,.16,.46,0,.39-.09,1.82-.09,2.33-.02,.21-.07,.32-.21,.32-.16,0-.18-.12-.21-.39,0-.07-.02-.16-.02-.25-.05-.53-.53-1.06-2.24-1.08-.55-.05-1.41-.07-2.67-.09v7.98ZM45.95,21.81c-.29-.89-.56-1.47-.89-1.71-.27-.17-.75-.22-.97-.22-.24,0-.39-.02-.39-.22,0-.17,.19-.22,.53-.22,1.26,0,2.58,.07,2.8,.07s1.28-.07,2.68-.07c.34,0,.51,.07,.51,.22,0,.19-.19,.22-.43,.22-.19,0-.43,0-.6,.1-.22,.1-.27,.27-.27,.53,0,.31,.24,1.13,.53,2.22,.41,1.59,2.66,8.91,3.12,10.36l4.73-12.68c.24-.68,.41-.87,.6-.87,.27,0,.39,.36,.7,1.13l5.07,12.24c.46-1.71,2.39-8.09,3.24-10.91,.17-.56,.24-1.06,.24-1.4,0-.39-.22-.72-1.16-.72-.24,0-.41-.07-.41-.22,0-.17,.19-.22,.56-.22,1.28,0,2.29,.07,2.51,.07,.17,0,1.21-.07,2-.07,.27,0,.43,.05,.43,.19,0,.17-.12,.24-.34,.24-.24,0-.58,.02-.85,.12-.58,.22-.85,1.18-1.35,2.56-1.11,3.04-3.65,10.72-4.83,14.34-.27,.85-.39,1.13-.7,1.13-.24,0-.39-.29-.75-1.18l-5.05-12.17c-.48,1.3-3.69,9.85-4.73,12.07-.46,.99-.58,1.28-.87,1.28-.24,0-.34-.27-.56-.89l-5.12-15.33Zm27.63,6.3c0-3.14,0-3.62-.05-4.3-.05-.68-.27-1.01-.72-1.11-.22-.05-.48-.07-.75-.1-.22,0-.34-.07-.34-.24,0-.12,.14-.19,.48-.19,.85,0,2.29,.07,2.83,.07,.48,0,1.91-.07,2.73-.07,.29,0,.41,.07,.41,.19,0,.17-.12,.24-.34,.24-.22,.02-.31,.02-.56,.07-.58,.1-.75,.46-.8,1.16-.07,.65-.07,1.13-.07,4.27v3.62c0,1.93,.02,3.5,.12,4.37,.05,.56,.22,.99,.85,1.06,.31,.07,.6,.07,.92,.1,.27,0,.36,.12,.36,.22,0,.14-.17,.22-.41,.22-1.42,0-2.8-.07-3.31-.07-.41,0-1.86,.07-2.7,.07-.29,0-.43-.07-.43-.22,0-.1,.1-.22,.36-.22,.29-.02,.46-.02,.65-.07,.41-.1,.6-.46,.65-1.04,.12-.87,.12-2.41,.12-4.42v-3.62Zm15.41,3.62c0,1.84,0,3.45,.1,4.35,.07,.56,.19,1.01,.85,1.09,.29,.05,.72,.07,1.04,.1,.24,0,.36,.1,.36,.19,0,.14-.14,.24-.43,.24-1.4,0-2.87-.07-3.4-.07-.48,0-1.96,.07-2.78,.07-.29,0-.43-.1-.43-.24,0-.1,.1-.19,.36-.19,.29-.02,.53-.02,.72-.07,.46-.1,.58-.53,.65-1.13,.1-.87,.1-2.41,.1-4.32v-8.35c-.8,0-2.39,0-3.36,.07-1.23,.1-1.59,.19-1.88,.72-.14,.27-.19,.43-.29,.68-.05,.14-.12,.24-.24,.24-.14,0-.19-.12-.19-.36,.02-.43,.41-2.15,.46-2.41,.05-.29,.12-.43,.24-.43,.17,0,.36,.19,.89,.24,.58,.07,1.45,.12,2.17,.12h8.55c.68,0,1.13-.07,1.45-.12,.31-.05,.48-.1,.6-.1,.14,0,.17,.12,.17,.48,0,.41-.1,1.91-.1,2.44-.02,.22-.07,.34-.22,.34-.17,0-.19-.12-.22-.41,0-.07-.02-.17-.02-.27-.05-.56-.56-1.11-2.34-1.13-.58-.05-1.47-.07-2.8-.1v8.35Zm20.62-3.09c.07,0,.14-.05,.14-.14v-.43c0-3.11,0-3.65-.05-4.3-.05-.68-.22-.94-.92-1.09-.17-.02-.53-.05-.8-.07-.27,0-.39-.1-.39-.24s.14-.19,.43-.19c1.18,0,2.61,.07,3.14,.07,.43,0,1.98-.07,2.85-.07,.29,0,.41,.05,.41,.19s-.1,.24-.36,.24c-.22,.02-.39,.02-.63,.07-.58,.07-.75,.39-.8,1.09-.05,.65-.05,1.21-.05,4.35v3.62c0,1.91,0,3.45,.12,4.32,.05,.6,.19,1.04,.82,1.13,.29,.05,.77,.05,1.06,.07,.24,0,.34,.12,.34,.22,0,.14-.17,.22-.41,.22-1.4,0-2.9-.07-3.45-.07-.46,0-1.84,.07-2.73,.07-.31,0-.43-.07-.43-.22,0-.1,.07-.22,.34-.22,.29-.02,.56-.02,.75-.07,.43-.1,.56-.53,.63-1.16,.12-.85,.12-2.37,.12-4.25v-1.76c0-.1-.07-.12-.14-.12h-7.82c-.07,0-.14,.02-.14,.12v1.84c0,1.91,0,3.33,.12,4.23,.05,.58,.22,1.01,.85,1.09,.31,.07,.75,.07,1.04,.1,.24,0,.36,.12,.36,.22,0,.14-.17,.22-.43,.22-1.35,0-2.9-.07-3.43-.07-.43,0-1.93,.07-2.78,.07-.24,0-.41-.07-.41-.22,0-.1,.07-.22,.34-.22,.31-.02,.56-.02,.75-.07,.43-.1,.58-.56,.63-1.16,.12-.85,.12-2.39,.12-4.3v-3.62c0-3.11,0-3.67-.05-4.32-.05-.7-.22-.97-.94-1.11-.17-.05-.48-.05-.77-.07-.27,0-.36-.1-.36-.24s.17-.19,.43-.19c1.16,0,2.56,.07,3.11,.07s1.98-.07,2.83-.07c.34,0,.46,.07,.46,.22s-.17,.22-.39,.22c-.19,.02-.46,.05-.63,.07-.58,.07-.75,.41-.8,1.11-.05,.65-.05,1.26-.05,4.27v.43c0,.1,.07,.14,.14,.14h7.82Zm7.56,1.3c0-3.62,2.41-8.07,8.77-8.07,5.31,0,8.55,3.26,8.55,7.68,0,4.71-3.31,8.4-8.74,8.4-6.06,0-8.57-4.37-8.57-8.02Zm14.17,.39c0-4.37-2.51-7.36-6.04-7.36-2.37,0-5.02,1.21-5.02,6.28,0,4.2,2.29,7.58,6.3,7.58,1.47,0,4.76-.6,4.76-6.5Zm10.41,.7c0,2.97,.58,4.2,1.67,5.02,.92,.7,1.86,.77,2.54,.77,.89,0,2-.24,2.83-1.04,1.18-1.11,1.21-3.02,1.21-5.12v-2.56c0-3.09-.05-3.6-.07-4.25-.05-.7-.17-1.04-.87-1.16-.17-.05-.48-.07-.77-.1-.24,0-.36-.07-.36-.22s.12-.22,.46-.22c1.09,0,2.44,.07,2.51,.07,.29,0,1.62-.07,2.49-.07,.31,0,.46,.07,.46,.22s-.12,.22-.39,.22c-.24,.02-.36,.02-.63,.1-.56,.1-.7,.41-.75,1.13-.05,.65-.07,1.18-.07,4.27v2.17c0,2.29-.22,4.73-2.05,6.23-1.47,1.21-3.02,1.45-4.42,1.45-1.26,0-3.28-.12-4.78-1.42-1.09-.92-1.91-2.41-1.91-5.41v-3.02c0-3.14,0-3.62-.05-4.3-.05-.65-.19-.97-.85-1.11-.19-.05-.58-.07-.87-.1-.24,0-.39-.1-.39-.24s.17-.19,.51-.19c1.09,0,2.56,.07,3.12,.07,.46,0,2.03-.07,2.78-.07,.34,0,.48,.07,.48,.22s-.14,.22-.36,.22c-.22,.02-.39,.05-.63,.1-.58,.1-.75,.46-.77,1.16-.05,.65-.05,1.26-.05,4.25v2.92Zm22.51,.7c0,1.84,0,3.45,.1,4.35,.07,.56,.19,1.01,.85,1.09,.29,.05,.72,.07,1.04,.1,.24,0,.36,.1,.36,.19,0,.14-.14,.24-.43,.24-1.4,0-2.87-.07-3.4-.07-.48,0-1.96,.07-2.78,.07-.29,0-.43-.1-.43-.24,0-.1,.1-.19,.36-.19,.29-.02,.53-.02,.72-.07,.46-.1,.58-.53,.65-1.13,.1-.87,.1-2.41,.1-4.32v-8.35c-.8,0-2.39,0-3.36,.07-1.23,.1-1.59,.19-1.88,.72-.14,.27-.19,.43-.29,.68-.05,.14-.12,.24-.24,.24-.14,0-.19-.12-.19-.36,.02-.43,.41-2.15,.46-2.41,.05-.29,.12-.43,.24-.43,.17,0,.36,.19,.89,.24,.58,.07,1.45,.12,2.17,.12h8.55c.68,0,1.13-.07,1.45-.12,.31-.05,.48-.1,.6-.1,.14,0,.17,.12,.17,.48,0,.41-.1,1.91-.1,2.44-.02,.22-.07,.34-.22,.34-.17,0-.19-.12-.22-.41,0-.07-.02-.17-.02-.27-.05-.56-.56-1.11-2.34-1.13-.58-.05-1.47-.07-2.8-.1v8.35Zm37.95,2.85c.22,1.52,.46,2.22,1.18,2.44,.7,.22,1.18,.24,1.5,.24,.22,0,.39,.02,.39,.17,0,.19-.29,.27-.63,.27-.6,0-3.94-.07-4.9-.14-.56-.05-.7-.12-.7-.27,0-.12,.1-.19,.27-.27,.14-.05,.22-.36,.12-1.04l-1.47-10.77-5.34,11.11c-.56,1.13-.68,1.35-.89,1.35s-.46-.48-.85-1.21c-.58-1.11-2.49-4.81-2.78-5.48-.22-.51-1.74-3.72-2.58-5.53l-1.28,9.78c-.05,.43-.07,.75-.07,1.13,0,.46,.31,.68,.72,.77,.43,.1,.77,.12,1.01,.12,.19,0,.36,.05,.36,.17,0,.22-.22,.27-.58,.27-1.01,0-2.1-.07-2.54-.07-.46,0-1.62,.07-2.39,.07-.24,0-.43-.05-.43-.27,0-.12,.14-.17,.39-.17,.19,0,.36,0,.72-.07,.68-.14,.87-1.09,.99-1.91l2.39-15.74c.07-.41,.22-.63,.41-.63s.34,.12,.65,.75l6.59,13.62,6.57-13.79c.19-.39,.31-.58,.53-.58s.36,.24,.43,.75l2.2,14.92Zm8.04-2.22c0-1.09-.22-1.55-.51-2.15-.27-.53-2.97-4.83-3.72-5.92-.58-.82-1.04-1.21-1.52-1.45-.24-.12-.53-.22-.77-.24-.17,0-.36-.07-.36-.22,0-.12,.1-.22,.36-.22,.48,0,2.13,.07,2.85,.07,.41,0,1.38-.07,2.39-.07,.22,0,.34,.07,.34,.19s-.07,.19-.39,.27c-.27,.05-.43,.17-.43,.34s.1,.39,.27,.68c.29,.63,3.19,5.48,3.53,6.06,.43-.85,2.83-4.88,3.14-5.55,.22-.46,.31-.82,.31-1.09,0-.19-.1-.36-.51-.46-.19-.05-.39-.12-.39-.24,0-.14,.1-.19,.39-.19,.75,0,1.42,.07,2.08,.07,.43,0,1.88-.07,2.29-.07,.24,0,.41,.07,.41,.19,0,.14-.17,.24-.43,.24-.19,.02-.58,.07-.92,.22-.46,.22-.7,.43-1.13,.97-.7,.82-3.69,5.7-4.06,6.57-.31,.77-.31,1.45-.31,2.03v1.64c0,.34,0,1.16,.05,2,.05,.58,.19,1.06,.87,1.13,.31,.07,.75,.07,1.06,.1,.24,0,.36,.12,.36,.22,0,.14-.12,.22-.39,.22-1.38,0-2.85-.07-3.45-.07-.53,0-1.96,.07-2.75,.07-.31,0-.48-.05-.48-.22,0-.1,.12-.19,.34-.22,.24-.02,.51-.02,.7-.1,.48-.07,.7-.51,.72-1.11,.07-.87,.07-1.69,.07-2.03v-1.67ZM48.43,57.73c0-6.72,4.48-14.96,16.26-14.96,9.86,0,15.86,6.05,15.86,14.25,0,8.74-6.14,15.59-16.22,15.59-11.24,0-15.9-8.11-15.9-14.87Zm26.3,.72c0-8.11-4.66-13.66-11.2-13.66-4.39,0-9.32,2.24-9.32,11.65,0,7.79,4.26,14.07,11.69,14.07,2.73,0,8.83-1.12,8.83-12.05Zm18.14,2.6c0,4.7,0,7.35,.81,8.02,.63,.63,1.61,.9,4.75,.9,2.06,0,3.58-.04,4.61-.99,.54-.49,1.03-1.52,1.16-2.46,.09-.36,.13-.72,.45-.72s.36,.31,.36,.76c0,.49-.36,3.54-.67,4.61-.27,.9-.45,1.03-2.42,1.03-3.99,0-7.62-.22-11.83-.22-1.61,0-3.27,.13-5.11,.13-.54,0-.85-.13-.85-.4,0-.18,.22-.36,.67-.4,.49-.04,.94-.04,1.25-.13,.94-.22,1.21-.94,1.34-2.42,.18-1.57,.18-4.43,.18-7.71v-6.72c0-5.82,0-6.72-.09-7.93-.09-1.25-.4-1.84-1.61-2.11-.31-.09-.85-.13-1.34-.18-.45,0-.72-.13-.72-.4s.31-.4,.94-.4c1.88,0,4.3,.13,5.47,.13,.85,0,4.08-.13,5.6-.13,.63,0,.85,.13,.85,.4s-.22,.4-.76,.4c-.45,.04-.99,.04-1.48,.18-1.08,.18-1.39,.81-1.48,2.15-.09,1.21-.09,2.06-.09,7.97v6.63Zm17.56-6.72c0-5.47,0-6.72-.09-7.97-.09-1.21-.45-1.84-1.61-2.06-.36-.09-.99-.13-1.57-.18-.4,0-.67-.13-.67-.4s.27-.4,.9-.4c2.02,0,4.75,.13,5.78,.13,1.66,0,3.94-.13,5.78-.13,4.97,0,6.76,1.39,7.79,2.37,.85,.81,1.93,2.33,1.93,4.97,0,4.93-4.39,8.74-9.94,8.74-.18,0-.67,0-.9-.04-.18-.09-.49-.18-.49-.45s.31-.36,1.07-.36c2.42,0,5.2-2.37,5.2-6.18,0-1.52-.04-4.03-2.11-5.82-1.39-1.21-3.05-1.39-4.03-1.39-.58,0-1.12,.04-1.43,.13-.22,.04-.36,.27-.36,.76v15.01c0,3.4,0,6.41,.22,8.02,.09,1.12,.36,1.93,1.52,2.06,.58,.13,1.39,.13,1.93,.18,.49,0,.67,.18,.67,.36,0,.27-.31,.45-.72,.45-2.64,0-5.47-.13-6.36-.13-.76,0-3.58,.13-5.15,.13-.49,0-.76-.13-.76-.4,0-.18,.18-.4,.67-.4,.54-.04,.99-.04,1.39-.13,.76-.18,.99-.94,1.12-2.15,.22-1.57,.22-4.43,.22-7.97v-6.72Zm44.3,.99c.13,0,.27-.09,.27-.27v-.81c0-5.78,0-6.76-.09-7.97-.09-1.25-.4-1.75-1.7-2.02-.31-.04-.99-.09-1.48-.13-.49,0-.72-.18-.72-.45s.27-.36,.81-.36c2.2,0,4.84,.13,5.82,.13,.81,0,3.67-.13,5.29-.13,.54,0,.76,.09,.76,.36s-.18,.45-.67,.45c-.4,.04-.72,.04-1.16,.13-1.07,.13-1.39,.72-1.48,2.02-.09,1.21-.09,2.24-.09,8.06v6.72c0,3.54,0,6.41,.22,8.02,.09,1.12,.36,1.93,1.52,2.11,.54,.09,1.43,.09,1.97,.13,.45,0,.63,.22,.63,.4,0,.27-.31,.4-.76,.4-2.6,0-5.38-.13-6.41-.13-.85,0-3.4,.13-5.06,.13-.58,0-.81-.13-.81-.4,0-.18,.13-.4,.63-.4,.54-.04,1.03-.04,1.39-.13,.81-.18,1.03-.99,1.16-2.15,.22-1.57,.22-4.39,.22-7.88v-3.27c0-.18-.13-.22-.27-.22h-14.51c-.13,0-.27,.04-.27,.22v3.4c0,3.54,0,6.18,.22,7.84,.09,1.08,.4,1.88,1.57,2.02,.58,.13,1.39,.13,1.93,.18,.45,0,.67,.22,.67,.4,0,.27-.31,.4-.81,.4-2.51,0-5.38-.13-6.36-.13-.81,0-3.58,.13-5.15,.13-.45,0-.76-.13-.76-.4,0-.18,.13-.4,.63-.4,.58-.04,1.03-.04,1.39-.13,.81-.18,1.07-1.03,1.16-2.15,.22-1.57,.22-4.43,.22-7.97v-6.72c0-5.78,0-6.81-.09-8.02-.09-1.3-.4-1.79-1.75-2.06-.31-.09-.9-.09-1.43-.13-.49,0-.67-.18-.67-.45s.31-.36,.81-.36c2.15,0,4.75,.13,5.78,.13s3.67-.13,5.24-.13c.63,0,.85,.13,.85,.4s-.31,.4-.72,.4c-.36,.04-.85,.09-1.16,.13-1.08,.13-1.39,.76-1.48,2.06-.09,1.21-.09,2.33-.09,7.93v.81c0,.18,.13,.27,.27,.27h14.51Zm17.2-.99c0-5.82,0-6.72-.09-7.97s-.49-1.88-1.34-2.06c-.4-.09-.9-.13-1.39-.18-.4,0-.63-.13-.63-.45,0-.22,.27-.36,.9-.36,1.57,0,4.26,.13,5.24,.13,.9,0,3.54-.13,5.06-.13,.54,0,.76,.13,.76,.36,0,.31-.22,.45-.63,.45-.4,.04-.58,.04-1.03,.13-1.08,.18-1.39,.85-1.48,2.15-.13,1.21-.13,2.11-.13,7.93v6.72c0,3.58,.04,6.5,.22,8.11,.09,1.03,.4,1.84,1.57,1.97,.58,.13,1.12,.13,1.7,.18,.49,0,.67,.22,.67,.4,0,.27-.31,.4-.76,.4-2.64,0-5.2-.13-6.14-.13-.76,0-3.45,.13-5.02,.13-.54,0-.81-.13-.81-.4,0-.18,.18-.4,.67-.4,.54-.04,.85-.04,1.21-.13,.76-.18,1.12-.85,1.21-1.93,.22-1.61,.22-4.48,.22-8.2v-6.72Zm16.17-10.26c0-.85,.13-1.39,.58-1.39,.4,0,.76,.45,1.43,1.12,.72,.63,5.96,6.05,12.36,12.05,2.91,2.78,7.93,7.88,8.65,8.51l-.36-16.57c-.04-2.28-.36-3.05-1.43-3.45-.58-.18-1.48-.18-2.02-.22-.49,0-.67-.22-.67-.45,0-.31,.45-.36,.99-.36,1.97,0,3.99,.13,4.97,.13,.49,0,2.11-.13,3.99-.13,.49,0,.85,.09,.85,.4,0,.22-.18,.4-.67,.4-.4,.04-.72,.04-1.12,.13-1.16,.31-1.52,1.08-1.57,3.23-.18,5.73-.27,15.72-.4,23.7,0,1.03-.22,1.39-.58,1.39-.49,0-1.07-.49-1.93-1.25-2.51-2.28-7.3-6.9-11.02-10.48-3.94-3.67-8.33-8.33-9.41-9.45l.4,15.54c.09,2.91,.54,3.85,1.34,4.12,.67,.22,1.43,.22,2.11,.27,.4,0,.67,.13,.67,.36,0,.31-.36,.45-.9,.45-2.33,0-3.9-.13-4.93-.13-.49,0-2.55,.13-4.48,.13-.49,0-.85-.04-.85-.4,0-.22,.22-.4,.63-.4,.49-.04,1.16-.04,1.7-.18,1.12-.31,1.3-1.3,1.34-4.61,.09-8.06,.31-17.43,.31-22.44ZM15.63,72.48c-.29-.37-.64-.93-.38-1.4,.1-.18,.26-.34,.45-.47-1.69-.41-2.66-1.08-3.09-1.71-.42-.58-.53-2.69-.58-4.01-.05-1-.11-5.06-.11-10.65v-6.64c0-4.17,0-8.75,.05-10.55,0-.58,.16-.84,.63-1.05,.18-.09,.66-.17,1.23-.24-.11-.13-.21-.27-.3-.41-.32-.51-.41-1.09-.34-1.68,.02-.15,.04-.31,.06-.47-1.85,.05-3.49,.11-4.5,.11-1.48,0-4.8-.16-7.59-.16-.79,0-1.16,.11-1.16,.47s.32,.47,.9,.47c.74,0,1.63,.05,2.06,.16,1.74,.37,2.16,1.21,2.27,3.01,.11,1.69,.11,3.16,.11,11.18v9.28c0,4.85,0,9.02-.26,11.23-.21,1.53-.47,2.69-1.53,2.9-.47,.11-1.11,.21-1.9,.21-.63,0-.84,.16-.84,.42,0,.37,.37,.53,1.05,.53,1.05,0,2.43-.11,3.64-.11,1.27-.05,2.43-.05,3.01-.05,1.32,0,3.16,.16,5.17,.32,.94,.07,1.91,.15,2.87,.21-.32-.27-.64-.56-.9-.89Zm-1.6-37.21c.36,.16,.7,.43,1.07,.47,.68,.08,1.38-.02,2.06,.03,1.33,.1,2.72-.03,3.93,.71,1.41,.86,2.81,1.73,4.21,2.61,1.24,.79,1.74,1.98,1.4,3.41-.17,.69-.41,1.37-.64,2.05-.44,1.29-.69,2.61-.47,3.97,.05,.32,.19,.62,.34,1.1,.48-.89,.83-1.59,1.24-2.26,.12-.2,.42-.3,.63-.44,.09,.24,.2,.47,.27,.72,.35,1.17,.67,2.36,1.06,3.52,.09,.28,.4,.49,.7,.83l.65-2.33h.34c.12,.33,.32,.66,.35,1,.18,1.72,.35,3.44,.45,5.17,.07,1.17,.17,2.38-.03,3.52-.81,4.73-3.02,8.74-6.39,12.14-.53,.53-1.15,.62-1.82,.55-.44-.04-.87-.13-1.29-.27-1.47-.47-2.97-.55-4.49-.34-.25,.03-.49,.11-.74,.16,1.21,.73,2.42,1.26,3.63,1.8,.18,.08,.47,.27,.46,.37-.11,.74,.43,1,.88,1.36,.9,.73,1.46,1.7,1.86,2.78,.16,.42,.3,.85,.45,1.28,1.56-.78,2.64-2.95,2.3-4.66-.16-.78,.14-1.07,.8-1.35,.96-.41,1.9-.87,2.78-1.42,2.28-1.43,3.88-3.56,5.56-5.59,2.07-2.5,4.17-5,5.34-8.09,1.02-2.7,1.96-5.42,2.83-8.17,.72-2.26,2.68-3.3,4.88-2.44,.31,.12,.62,.24,.92,.36,.55,.21,.88,.01,.69-.55-.22-.63-.54-1.26-.94-1.79-1.02-1.34-2.49-2.04-4.01-2.66-1.54-.63-2.63-1.66-3.43-3.16-1.22-2.28-2.68-4.39-4.71-6.09-4.27-3.57-9.02-5.32-14.61-4.16-1.83,.38-3.48,1.13-4.87,2.43-.48,.45-1.05,.83-1.64,1.15-.37,.21-.85,.22-1.26,.37-.17,.06-.29,.27-.43,.41,.17,.11,.33,.31,.51,.32,.6,.03,1.21,0,1.81,0,.49,0,.99,0,1.48,0v.33c-1.27,.52-2.66,.4-4.01,.49l-.12,.33Z" fill="#fff"/></svg>