<svg xmlns="http://www.w3.org/2000/svg" viewBox="0 0 210 104"><g fill="#fff"><path d="M103.21.82l-3.78 8.09-33 .35L58.09 28l.35.59 14.84.21c.15.11.16.3.16.47 0 .79-2.22 4.73-2.84 5.55l-15.48.19c-.63.27-1.62 2.75-1.94 3.49C46.03 55.08 38.7 71.61 31.2 88.02c-2.35 5.14-4.22 11.53-9.43 14.45s-10.08-.35-12.32-5.06c-.29-.61-.86-2-.4-2.54 1.16-.76 2.38-1.45 3.55-2.19.47-.3 2.91-2.27 3.28-1.92-.27 5.15 2.65 9.08 6.65 3.62 3.6-4.92 6.49-13.14 9.1-18.81C43.05 50.71 54.13 25.7 65.74.97c.81-.94 2.61-.3 3.73-.29 8.51.03 17.04-.07 25.59 0 1.05 0 7.91-.18 8.15.15zM111.82 47.34c.51.15-.2 1.44-.36 1.81-3.46 7.94-7.67 16.1-11.43 23.93-.97 2.02-3.11 5.67-2.85 7.82.03.29.28 1.03.42 1.29.26.47.81.67.82 1.21 0 .35-.76 1.76-1.15 1.76-.73-.01-1.36-.82-1.73-1.37-.28-.42-.14-.95-.79-.94-.57 0-1.31.98-1.83 1.29-2.24 1.34-6.22 2.07-8-.29-2.33-3.1-.4-6.78.98-9.82 2.85-6.27 5.83-12.48 8.74-18.71.98-2.1 2.05-5.3 3.25-7.14.79-1.21 1.46-.78 2.75-.82.56-.02 1.04-.33 1.61 0 .06.16.02.33-.02.49-.36 1.58-2.12 4.53-2.87 6.13-2.91 6.2-5.82 12.39-8.7 18.6-.91 1.96-3.35 6.01-3.45 8.03-.06 1.2.5 2.68 1.94 2.57 2.35-.17 4.05-5.52 4.93-7.33 3.74-7.65 7.39-15.35 11.11-23.02.89-1.83 1.54-3.84 2.74-5.48h3.88zM96.46 36.64c.63.19-.43 2.16-.86 2.4l-5.04.24c-.34.05-.5.32-.68.57-.43.61-1.21 2.33-1.56 3.09-4.42 9.58-8.8 19.2-13.25 28.78-.92 1.98-4.36 8.05-4.31 9.81.04 1.16.77 1.85 1.94 1.62 1.59-.3 2.77-4.76 3.79-5.98.69-1.57 1.26-3.24 2.08-4.75.13-.24.34-.54.64-.57.36.06 1.64 2.15 1.64 2.55 0 .17-.67 1.81-.81 2.13-1.76 4.19-4.03 9.02-9.35 8.65-2.52-.18-3.22-1.62-3.34-3.95-.17-3.54 1.41-5.31 2.78-8.25 4.67-10.01 9.36-20.02 14.01-30.04.3-.64 1.38-2.28 1.49-2.7.71-2.63-3.91.15-2.98-2.21s2.05-1.26 4.02-1.56c.86-.13 1.32-1.47 1.67-2.21.47-1 1.47-4.02 2.22-4.61.55-.43 3.64-.5 3.79.09l-2.44 5.76c-.26.51.39 1.12.82 1.12.77 0 3.2-.16 3.72 0zM136.47 49.57c1.04-.89 3.67-2.03 5.03-2.18 4.04-.46 5.93 1.68 5.62 5.62-.4 4.97-6.25 10.76-10.25 13.33-2.02 1.3-4.27 2.23-6.27 3.51l-4.84 10.67c-.58 1.31-.02 3.6 1.77 2.86.31-.13 1.54-1.5 1.75-1.82 1.4-2.18 2.61-5.43 3.85-7.78 1.12-2.12 1.07-1.53 2.43-.36.58.5 1.53.54 1.06 1.68-1.75 2.67-2.96 6.61-5.48 8.63-5.65 4.53-10.43-.34-8.43-6.41 3.88-7.75 7.03-15.9 10.98-23.6.63-1.22 1.76-3.26 2.77-4.13zm1.24 13.34c2.42-2.55 5.16-7.54 5.64-11.03.51-3.71-2.25-3.48-3.97-1.02l-6.91 14.81c-.1.35-.32 1.35.37 1.15.34-.1 1.86-1.2 2.24-1.49.81-.63 1.92-1.67 2.62-2.42zM203.28 58.97c0-.27-.03-.54.04-.81.4-1.51 1.72-3.43 2.31-4.98.39-1.01 1.28-3.09-.19-3.59-.65-.22-1.7.31-2.15.78-.56.57-2.08 3.7-2.52 4.62-1.42 2.96-1.99 4.04-1.33 7.43.45 2.33 1.4 5.21 1.19 7.62s-2.14 6.55-3.16 8.78c-1.26 2.76-2.22 4.8-5.2 5.97-2.04.8-4.16.85-5.97-.54-2.71-2.08-.72-4.71.19-7.1.72-1.88 1.21-3.86 2.36-5.55l3.19.07c.07.12.08.26.08.4.01.28-.48 1.53-.63 1.87-.86 2.01-2.61 4.59-3.04 6.73-.54 2.66 1.14 3.66 3.04 1.79 1.14-3.16 3.53-6.45 4.27-9.69 1.1-4.84-1.17-8.98-.86-13.42.13-1.78 2.28-7.27 3.41-8.68 2.14-2.67 6.9-4.46 9.92-2.32 3.3 2.35 1.2 5.11-.17 7.72-.3.56-1.04 2.9-1.76 2.9h-3.03zM167.29 29.04c-.19 1.56-1.18 2.89-1.84 4.29-6.33 13.49-12.64 26.96-18.97 40.43-.95 2.01-3.69 6.18-3.17 8.33.22.9 1.12 1.46 2.02 1.39 1.79-.13 2.67-2.3 3.11-2.34.61-.06 1.9 1.58 1.15 2.4-2.11 2.28-6.77 2.85-8.64-.02-2.37-3.62.53-7.37 1.99-10.67a4580.81 4580.81 0 0 1 18.78-41.87c.15-.32.5-1.95 1-1.95h4.58zM182.34 29.04c.22.23-.87 2.05-1.04 2.45-4.92 11.36-10.72 22.45-15.98 33.65-2.06 4.39-4.44 9.13-6.28 13.57-.52 1.25-1.46 3.63.07 4.48 1.78.99 3.38-.86 4.22-2.2.55.4 1.67 1.46 1.45 2.21-.11.37-1.97 1.6-2.4 1.8-.92.43-2.82.62-3.82.45-2.37-.4-3.8-3.74-3.52-5.93.36-2.79 3.87-8.98 5.17-11.89 5.25-11.75 10.48-23.5 15.81-35.21.51-1.13 1-2.41 1.74-3.38h4.58zM122.84 47.34c.72.21-.88 2.33-.54 2.95.92.04 1.62-.71 2.42-1.07 1.58-.69 5.39-1.82 6.14.49s-1.86 6.54-2.5 8.86c-.16.2-4.1.54-4.29.26-.41-.58.95-2.91 1.2-3.63.39-1.1.9-2.19-.44-2.88-2.72-1.4-5.4 3.15-6.38 5.06-2.82 5.51-5.38 11.29-8.09 16.88-1.51 3.12-3.1 7.52-4.86 10.34-.13.2-.33.63-.54.7-.82.08-1.64 0-2.46.02-.38 0-.99.36-1.14-.09-.18-.56.91-2.2 1.18-2.81 3.74-8.47 7.81-16.75 11.79-25.13 1.43-3.01 2.69-6.48 4.27-9.38.07-.13.43-.58.51-.58h3.72zM188.78 47.5c.12.04.23.23.23.38 0 .16-.95 2.24-1.12 2.61-3.95 8.42-8.25 16.72-12.26 25.12-.83 1.74-3.3 5.31-1.97 7.18.91 1.27 2.54.77 3.51-.13.49-.46.89-1.96 1.69-1.35.06.04.89 1.03.92 1.1.28.61-.16 1.31-.64 1.68-.98.75-3.26 1.43-4.48 1.43-2.78 0-4.62-2.47-4.72-5.08-.08-2.17 3.4-8.56 4.44-10.88 2.38-5.29 4.61-10.65 7.05-15.91.73-1.58 1.84-4.29 2.74-5.64.13-.19.23-.38.42-.51h4.19zM40.07 33.39c0 .19.13.35.13.54 0 2.11-2.87 1.28-4.23 1.32-.72.02-1.79.2-2.5.31-.49.72-2.14 3.42-.3 3.42h3.72c.38 0 .37 1.02-.5 1.21-1.23.27-4.02-.3-4.97.15-.68.32-2.05 3.37-.86 3.73.47.14 2.15.05 2.77.04.83-.02 2.44-.67 2.24.83-.14 1.01-1.37.98-2.24 1.03-1 .05-2.59.05-3.57 0-.35-.01-2.42-.21-2.49-.31-.14-.16-.04-.31 0-.47.42-1.78 2.09-4.49 2.88-6.27.59-1.32.99-2.86 1.59-4.15.27-.57.71-1.36 1.43-1.36h6.9zM189.43 38.69c3.98-.82 3.08 3.04.46 4.33-2.02 1-4.5.26-3.14-2.21.32-.57 2.04-2 2.68-2.13z"/><path d="M65.96 47.36c.3.48-1.31 2.95-1.59 3.57-4.17 9.15-9 18.03-13.11 27.22-.47 1.06-.93 2.46-.55 3.62.34 1.05 1.51 1.64 2.54 1.15 2.19-1.03 4.18-6.63 5.26-8.85 4.31-8.84 8.61-17.66 12.84-26.56.38-.5.79-.12 1.22-.16.97-.08 1.94-.29 2.93-.14.44.14.23.7.13 1.02-.46 1.46-1.98 4.1-2.72 5.66-3.39 7.18-7.21 14.24-10.46 21.49-.91 2.03-2.3 4.46-1.16 6.66.35.68 1.03.68.66 1.68-.15.41-.79 1.36-1.29 1.29-1.39-.2-1.41-2.3-2.37-2.29-.98.47-1.75 1.31-2.76 1.73-1.79.73-3.51 1.28-5.38.51-2.73-1.11-3.32-4.33-2.57-6.91 1.23-4.2 4.67-8.82 5.95-13.13l.63-1.08c2.22-4.35 4.05-8.94 6.2-13.34.35-.72.97-2.06 1.36-2.67.69-1.08 3.1-.63 4.23-.46zM19.59 45.79c-.12-1.77 1.51-3.23 1.37-4.94-.16-.26-3.96-.26-4.44-.06-.68.29-.79 1.58-1.05 2.21-.19.46-.93 2.35-1.15 2.57-.42.43-1.31.15-1.87.22l.11-1.06 4.23-10.93c.24-.36 1.93-.41 2.02-.02L17.29 38c-.05.26.02.64.2.82.31.31 3.6.18 4.15-.04 1.46-.6 1.26-5.29 3.47-5.38.81-.03 1.12.28.89 1.05-.28.93-.85 1.78-1.21 2.67-1.1 2.7-2.01 5.49-3.15 8.17-.35.82-1.32.43-2.05.51zM13.23 33.54c.33 3.45-3.86 1.27-5.7 2.36l-4.37 9.63c-.25.39-2.27.38-2.34.02l3.93-8.47.11-1.26c-.03-.1-.35-.26-.39-.26H.04c-.24-.39.68-2.02 1.01-2.02h12.18z"/></g></svg>