<svg xmlns="http://www.w3.org/2000/svg" width="350" height="54" viewBox="0 0 350 54"><path d="M.2,16.76l2.43-2.9a8.08,8.08,0,0,0,5.1,1.89c1.17,0,1.8-.4,1.8-1.08v0c0-.65-.52-1-2.65-1.51C3.53,12.36.94,11.41.94,8.18v0c0-2.92,2.32-5,6.1-5a9.91,9.91,0,0,1,6.47,2.09L11.33,8.27A7.83,7.83,0,0,0,6.92,6.72c-1,0-1.57.45-1.57,1v0c0,.72.54,1,2.72,1.53,3.62.79,5.87,2,5.87,4.9v0c0,3.22-2.54,5.13-6.36,5.13A11,11,0,0,1,.2,16.76Z" fill="#fff"/><path d="M16.13,3.37h4.39V19.1H16.13Z" fill="#fff"/><path d="M23.39,3.37h4.07l6.47,8.31V3.37h4.32V19.1H34.43l-6.72-8.63V19.1H23.39Z" fill="#fff"/><path d="M40.49,11.28v0A8.17,8.17,0,0,1,49,3.05a9.21,9.21,0,0,1,6.38,2.29L52.79,8.42A5.58,5.58,0,0,0,49,6.94a4.14,4.14,0,0,0-4,4.32v0a4.16,4.16,0,0,0,4.28,4.36A4.41,4.41,0,0,0,51.75,15V13.1h-3.1V9.91h7.24V17a10.66,10.66,0,0,1-6.83,2.42C44.16,19.41,40.49,16,40.49,11.28Z" fill="#fff"/><path d="M64.54,3.37H70.6c5.62,0,8.88,3.23,8.88,7.77v0c0,4.54-3.3,7.91-9,7.91h-6Zm6.13,11.86c2.61,0,4.34-1.43,4.34-4v0c0-2.52-1.73-4-4.34-4H68.9v8Z" fill="#fff"/><path d="M81.73,3.37H94.38V7.08H86V9.46h7.55V12.9H86v2.49h8.45V19.1H81.73Z" fill="#fff"/><path d="M96.71,3.37h4.61l3.76,6.09,3.75-6.09h4.61V19.1H109.1v-9l-4,6.16H105l-4-6.11v9H96.71Z" fill="#fff"/><path d="M122.44,3.37h8.07a5.79,5.79,0,0,1,4.29,1.41,3.45,3.45,0,0,1,1,2.54v0a3.63,3.63,0,0,1-2.43,3.5c1.91.63,3.12,1.71,3.12,3.85v0c0,2.7-2.2,4.34-5.95,4.34h-8.12Zm7,6.27c1.33,0,2.07-.45,2.07-1.37v0c0-.85-.67-1.35-2-1.35h-2.83V9.64Zm.63,5.95c1.33,0,2.09-.51,2.09-1.43v-.05c0-.85-.67-1.42-2.13-1.42h-3.33v2.9Z" fill="#fff"/><path d="M138.51,3.37h4.36V15.28h7.62V19.1h-12Z" fill="#fff"/><path d="M151.7,12.2V3.37h4.43v8.74c0,2.27,1.14,3.35,2.9,3.35s2.9-1,2.9-3.24V3.37h4.42v8.72c0,5.08-2.9,7.3-7.37,7.3S151.7,17.12,151.7,12.2Z" fill="#fff"/><path d="M168.93,3.37h12.66V7.08h-8.34V9.46h7.55V12.9h-7.55v2.49h8.45V19.1H168.93Z" fill="#fff"/><path d="M182.73,16.76l2.43-2.9a8.08,8.08,0,0,0,5.1,1.89c1.17,0,1.8-.4,1.8-1.08v0c0-.65-.52-1-2.65-1.51-3.35-.76-5.94-1.71-5.94-4.94v0c0-2.92,2.32-5,6.09-5A9.92,9.92,0,0,1,196,5.19l-2.18,3.08a7.85,7.85,0,0,0-4.41-1.55c-1.06,0-1.57.45-1.57,1v0c0,.72.54,1,2.72,1.53,3.62.79,5.86,2,5.86,4.9v0c0,3.22-2.54,5.13-6.36,5.13A11,11,0,0,1,182.73,16.76Z" fill="#fff"/><path d="M197.63,21.17c1.5-.18,2.29-.9,2.25-2.12h-1.73V14.67h4.45v3.58c0,3.32-1.82,4.47-4.63,4.56Z" fill="#fff"/><path d="M210.12,3.37h4.61l2.74,9.1,3-9.15h3.75l3,9.15L230,3.37h4.51l-5.26,15.84H225.5l-3.17-9.06-3.15,9.06h-3.8Z" fill="#fff"/><path d="M236.28,3.37h4.36V9.26h5.59V3.37h4.36V19.1h-4.36v-6h-5.59v6h-4.36Z" fill="#fff"/><path d="M253.47,3.37h4.38V19.1h-4.38Z" fill="#fff"/><path d="M264.57,7.19h-4.72V3.37h13.8V7.19h-4.72V19.1h-4.36Z" fill="#fff"/><path d="M275.56,3.37h12.65V7.08h-8.34V9.46h7.55V12.9h-7.55v2.49h8.45V19.1H275.56Z" fill="#fff"/><path d="M296.23,11.28v0a8.17,8.17,0,0,1,8.47-8.18,9.19,9.19,0,0,1,6.38,2.29l-2.56,3.08a5.55,5.55,0,0,0-3.8-1.48,4.13,4.13,0,0,0-4,4.32v0A4.16,4.16,0,0,0,305,15.66a4.42,4.42,0,0,0,2.52-.65V13.1h-3.1V9.91h7.23V17a10.61,10.61,0,0,1-6.83,2.42C299.89,19.41,296.23,16,296.23,11.28Z" fill="#fff"/><path d="M314.14,3.37h4.38V19.1h-4.38Z" fill="#fff"/><path d="M321.4,3.37h7.43c2.41,0,4.07.63,5.13,1.7a4.9,4.9,0,0,1,1.39,3.67v0a5,5,0,0,1-3.23,4.84l3.75,5.48h-5l-3.17-4.77h-1.91V19.1H321.4Zm7.23,7.55c1.49,0,2.34-.72,2.34-1.87V9c0-1.24-.9-1.87-2.36-1.87h-2.85v3.78Z" fill="#fff"/><path d="M337.55,3.37h4.36V15.28h7.62V19.1h-12Z" fill="#fff"/><path d="M63.45,41.77H60.63V39.48h8.26v2.29H66.06V48.9H63.45Z" fill="#fff"/><path d="M70,39.48h2.61V43H76V39.48h2.61V48.9H76V45.32H72.65V48.9H70Z" fill="#fff"/><path d="M80.29,39.48h7.57V41.7h-5v1.43h4.52v2.06H82.87v1.49h5.06V48.9H80.29Z" fill="#fff"/><path d="M92.21,47.47l1.69-1.58a1.89,1.89,0,0,0,1.46.87c.66,0,1.08-.44,1.08-1.32v-6H99v6a3.53,3.53,0,0,1-.93,2.66,3.59,3.59,0,0,1-2.58,1A3.84,3.84,0,0,1,92.21,47.47Z" fill="#fff"/><path d="M103.51,39.41H106l4,9.49h-2.8l-.69-1.68h-3.63l-.67,1.68H99.5Zm2.29,5.78-1-2.68-1.07,2.68Z" fill="#fff"/><path d="M110,44.22v0a4.84,4.84,0,0,1,5-4.9,4.6,4.6,0,0,1,4,2l-2,1.52A2.52,2.52,0,0,0,115,41.67a2.33,2.33,0,0,0-2.25,2.49v0A2.34,2.34,0,0,0,115,46.71a2.55,2.55,0,0,0,2.12-1.15l2,1.4a5,5,0,0,1-9-2.74Z" fill="#fff"/><path d="M120.18,39.48h2.61V43.3L126,39.48h3.09l-3.57,4.05,3.69,5.37h-3.13l-2.37-3.5-1,1.06V48.9h-2.61Z" fill="#fff"/><path d="M130.06,39.48h2.63V48.9h-2.63Z" fill="#fff"/><path d="M134.41,39.48H142V41.7h-5v1.43h4.52v2.06H137v1.49h5.06V48.9h-7.65Z" fill="#fff"/><path d="M146.34,47.47,148,45.89a1.89,1.89,0,0,0,1.46.87c.66,0,1.08-.44,1.08-1.32v-6h2.6v6a3.53,3.53,0,0,1-.93,2.66,3.59,3.59,0,0,1-2.58,1A3.84,3.84,0,0,1,146.34,47.47Z" fill="#fff"/><path d="M154.4,44.22v0a5.07,5.07,0,0,1,10.14,0v0a5.07,5.07,0,0,1-10.14,0Zm7.48,0v0a2.44,2.44,0,0,0-2.42-2.54,2.4,2.4,0,0,0-2.39,2.51v0a2.45,2.45,0,0,0,2.41,2.54A2.4,2.4,0,0,0,161.88,44.22Z" fill="#fff"/><path d="M165.91,39.48h4.45a4.14,4.14,0,0,1,3.07,1,3,3,0,0,1,.84,2.2v0a3,3,0,0,1-1.94,2.9l2.25,3.28h-3l-1.9-2.85h-1.14V48.9h-2.61ZM170.24,44c.89,0,1.4-.43,1.4-1.12v0c0-.74-.54-1.12-1.41-1.12h-1.71V44Z" fill="#fff"/><path d="M175.59,39.48h2.76l2.25,3.65,2.24-3.65h2.76V48.9H183V43.49l-2.41,3.69h-.06l-2.39-3.66V48.9h-2.56Z" fill="#fff"/><path d="M187.28,39.48h4c2.38,0,3.91,1.22,3.91,3.31v0c0,2.22-1.71,3.39-4,3.39h-1.29V48.9h-2.61Zm3.85,4.68c.93,0,1.49-.48,1.49-1.22v0c0-.81-.56-1.24-1.51-1.24h-1.22v2.49Z" fill="#fff"/><path d="M196,43.57h4.42v2.25H196Z" fill="#fff"/><path d="M200.92,47.47l1.68-1.58a1.91,1.91,0,0,0,1.47.87c.66,0,1.07-.44,1.07-1.32v-6h2.6v6a3.5,3.5,0,0,1-.93,2.66,3.57,3.57,0,0,1-2.58,1A3.84,3.84,0,0,1,200.92,47.47Z" fill="#fff"/><path d="M209,44.22v0a5.08,5.08,0,0,1,10.15,0v0a4.94,4.94,0,0,1-5.09,4.9A4.89,4.89,0,0,1,209,44.22Zm7.48,0v0A2.44,2.44,0,0,0,214,41.65a2.39,2.39,0,0,0-2.38,2.51v0a2.44,2.44,0,0,0,2.41,2.54A2.39,2.39,0,0,0,216.45,44.22Z" fill="#fff"/><path d="M220.48,39.48h2.76l2.25,3.65,2.25-3.65h2.76V48.9h-2.6V43.49l-2.41,3.69h-.06L223,43.52V48.9h-2.56Z" fill="#fff"/><path d="M232.17,39.48h4c2.38,0,3.91,1.22,3.91,3.31v0c0,2.22-1.71,3.39-4.05,3.39h-1.29V48.9h-2.61ZM236,44.16c.93,0,1.49-.48,1.49-1.22v0c0-.81-.56-1.24-1.51-1.24h-1.22v2.49Z" fill="#fff"/><path d="M244.25,47.5l1.45-1.74a4.87,4.87,0,0,0,3.06,1.13c.7,0,1.07-.24,1.07-.64v0c0-.39-.31-.6-1.58-.9-2-.46-3.56-1-3.56-3v0c0-1.75,1.39-3,3.65-3a5.91,5.91,0,0,1,3.87,1.25l-1.3,1.84a4.76,4.76,0,0,0-2.64-.93c-.63,0-.94.27-.94.61v0c0,.43.32.62,1.63.91,2.16.47,3.51,1.17,3.51,2.94v0c0,1.93-1.52,3.07-3.81,3.07A6.55,6.55,0,0,1,244.25,47.5Z" fill="#fff"/><path d="M255.77,41.77H253V39.48h8.26v2.29h-2.83V48.9h-2.61Z" fill="#fff"/><path d="M261.63,44.22v0a5.08,5.08,0,0,1,10.15,0v0a4.94,4.94,0,0,1-5.09,4.9A4.89,4.89,0,0,1,261.63,44.22Zm7.48,0v0a2.44,2.44,0,0,0-2.42-2.54,2.39,2.39,0,0,0-2.38,2.51v0a2.44,2.44,0,0,0,2.41,2.54A2.39,2.39,0,0,0,269.11,44.22Z" fill="#fff"/><path d="M273.14,39.48h4.46a4.16,4.16,0,0,1,3.07,1,2.94,2.94,0,0,1,.83,2.2v0a3,3,0,0,1-1.94,2.9l2.25,3.28h-3l-1.9-2.85h-1.15V48.9h-2.61ZM277.48,44c.89,0,1.4-.43,1.4-1.12v0c0-.74-.54-1.12-1.42-1.12h-1.71V44Z" fill="#fff"/><path d="M285.21,45.37l-3.58-5.89h3l1.94,3.43,1.95-3.43h2.92l-3.58,5.85V48.9h-2.62Z" fill="#fff"/><line x1="0.8" y1="28.9" x2="349.93" y2="28.9" fill="none" stroke="#fff" stroke-miterlimit="10" stroke-width="0.71"/></svg>