<?xml version="1.0" encoding="UTF-8"?><svg id="logos" xmlns="http://www.w3.org/2000/svg" width="350" height="30" viewBox="0 0 350 30"><path d="M3.84,27.94c0,1.23-.54,1.92-1.92,1.92s-1.92-.69-1.92-1.92V0H12.89c3.03,0,6.06,2.15,6.06,5.56v2.65c0,3.61-2.99,5.45-6.06,5.45h-3.53l8.63,12.36c.42,.58,.96,1.3,.96,2.03,0,1.07-.88,1.8-1.96,1.8-.77,0-1.27-.46-1.69-1.07L4.72,13.66h-.88v14.27Zm0-18.11H12.36c1.07,0,2.76-.08,2.76-1.61v-2.65c0-1.53-1.57-1.73-2.72-1.73H3.84v5.99Z" fill="#fff"/><path d="M34.84,29.85c-1.53,0-2.15,0-3.3-1l-1.57-1.38c-1.46-1.3-1.88-2.15-1.88-4.14v-7.1c0-1.96,.27-3.11,1.8-4.41l1.3-1.11c1.73-1.5,2.57-1.53,4.07-1.53h3.38c1.8,0,2.65,.19,4.07,1.34l1.5,1.19c1.69,1.34,1.92,2.76,1.92,4.8v2.95c0,2.11-.35,2.72-2.53,2.72h-11.82v1.23c0,.35,.27,.81,.54,1.07l.92,1c.5,.54,1.23,.69,2.46,.69h7.9c1.23,0,2.53,.27,2.53,1.84s-1.46,1.84-2.53,1.84h-8.75Zm-3.07-11.36h10.67v-2.23c0-.69,.04-1.27-.46-1.73l-1.42-1.23c-.46-.42-1.19-.46-1.77-.46h-3.11c-.69,0-1.27,0-1.88,.42l-1.27,.92c-.46,.35-.77,.61-.77,1.69v2.61Z" fill="#fff"/><path d="M61.89,12.85c-1.07,0-2.53-.23-2.53-1.84s1.3-1.84,2.53-1.84h5.07c1.92,0,3.3,.19,4.76,1.65,1.42,1.42,1.61,2.53,1.65,4.37l.38,12.51c.04,1.07-.5,2.15-1.73,2.15-.96,0-1.92-.81-1.88-1.84l-2.53,1.3c-1.04,.54-1.07,.54-2.26,.54h-3.53c-1.65,0-2.84-.19-4.18-1.3-1.53-1.27-1.92-2.61-1.92-4.53v-1.61c0-1.77,.42-2.88,1.8-4.11,1.27-1.11,2.69-1.38,4.3-1.38h7.9v-.84c0-2.76-.61-3.22-3.26-3.22h-4.57Zm-.04,7.75c-1,0-2.46,.27-2.46,1.61v2.46c0,1.23,1.5,1.5,2.38,1.5h4.07l4.07-2.11v-.81c0-2.03-.58-2.65-2.61-2.65h-5.45Z" fill="#fff"/><path d="M99.91,26.02c1,0,1.92,.54,1.92,1.92s-.92,1.92-1.92,1.92h-17.04V1.92c0-1.23,.54-1.92,1.92-1.92s1.92,.69,1.92,1.92V26.02h13.2Z" fill="#fff"/><path d="M121.9,26.17h2.76c1.23,0,2.53,.27,2.53,1.84s-1.46,1.84-2.53,1.84h-9.36c-1.07,0-2.53-.23-2.53-1.84s1.3-1.84,2.53-1.84h2.92V12.85h-2.92c-1.07,0-2.53-.23-2.53-1.84s1.3-1.84,2.53-1.84h3.88c2.11,0,2.72,.38,2.72,2.57v14.43ZM116.33,1.73c0-1.3,.73-1.73,1.73-1.73h2.11c1,0,1.73,.42,1.73,1.73v1.77c0,1.3-.73,1.73-1.73,1.73h-2.11c-1,0-1.73-.42-1.73-1.73V1.73Z" fill="#fff"/><path d="M145.99,22.91c0,2.07-.08,3.26,2.46,3.26h1.88c1.5,0,2.19-.12,2.57-1.61,.23-.88,.92-1.5,1.84-1.5,1.04,0,1.88,.81,1.88,1.84s-.65,2.34-1.27,3.07c-1.34,1.61-3.11,1.88-5.07,1.88h-1.88c-1.84,0-3.45-.42-4.76-1.84-1.42-1.57-1.34-3.15-1.34-5.14V12.85h-1.19c-1.07,0-2.53-.23-2.53-1.84s1.3-1.84,2.53-1.84h1.19v-3.76c0-1.27,.27-2.53,1.84-2.53s1.84,1.27,1.84,2.53v3.76h6.18c1.23,0,2.53,.27,2.53,1.84s-1.46,1.84-2.53,1.84h-6.18v10.05Z" fill="#fff"/><path d="M177.15,27.94c0,1.23-.54,1.92-1.92,1.92s-1.92-.69-1.92-1.92V15.66l-7.56-9.82V1.92c0-1.23,.54-1.92,1.92-1.92s1.92,.69,1.92,1.92v2.61l5.64,7.33,5.64-7.33V1.92c0-1.23,.54-1.92,1.92-1.92s1.92,.69,1.92,1.92v3.91l-7.56,9.82v12.28Z" fill="#fff"/><path d="M221,0h10.74c5.64,0,8.21,3.45,8.21,8.86,0,2.23-.5,4.26-2.53,6.06,2.19,2.07,2.53,4.11,2.53,6.95,0,5.03-3.34,7.98-8.21,7.98h-10.74V0Zm3.84,13.01h6.91c2.76,0,4.37-1.23,4.37-4.14,0-3.22-.88-5.03-4.37-5.03h-6.91V13.01Zm0,13.01h6.91c2.76,0,4.37-1.23,4.37-4.14,0-3.22-.88-5.03-4.37-5.03h-6.91v9.17Z" fill="#fff"/><path d="M260.02,26.17h2.76c1.23,0,2.53,.27,2.53,1.84s-1.46,1.84-2.53,1.84h-9.36c-1.07,0-2.53-.23-2.53-1.84s1.3-1.84,2.53-1.84h2.92V12.85h-2.92c-1.07,0-2.53-.23-2.53-1.84s1.3-1.84,2.53-1.84h3.88c2.11,0,2.72,.38,2.72,2.57v14.43Zm-5.56-24.44c0-1.3,.73-1.73,1.73-1.73h2.11c1,0,1.73,.42,1.73,1.73v1.77c0,1.3-.73,1.73-1.73,1.73h-2.11c-1,0-1.73-.42-1.73-1.73V1.73Z" fill="#fff"/><path d="M284.12,22.91c0,2.07-.08,3.26,2.46,3.26h1.88c1.5,0,2.19-.12,2.57-1.61,.23-.88,.92-1.5,1.84-1.5,1.04,0,1.88,.81,1.88,1.84s-.65,2.34-1.27,3.07c-1.34,1.61-3.11,1.88-5.06,1.88h-1.88c-1.84,0-3.45-.42-4.76-1.84-1.42-1.57-1.34-3.15-1.34-5.14V12.85h-1.19c-1.07,0-2.53-.23-2.53-1.84s1.3-1.84,2.53-1.84h1.19v-3.76c0-1.27,.27-2.53,1.84-2.53s1.84,1.27,1.84,2.53v3.76h6.18c1.23,0,2.53,.27,2.53,1.84s-1.46,1.84-2.53,1.84h-6.18v10.05Z" fill="#fff"/><path d="M320.92,26.02c1,0,1.92,.54,1.92,1.92s-.92,1.92-1.92,1.92h-17.04V0h17.04c1,0,1.92,.54,1.92,1.92s-.92,1.92-1.92,1.92h-13.2V13.01h5.64c1,0,1.92,.54,1.92,1.92s-.92,1.92-1.92,1.92h-5.64v9.17h13.2Z" fill="#fff"/><path d="M338.26,12.85c-.77,0-2.07-.15-2.07,1.04,0,.61,.46,.84,1,1.07l9.21,4.18c2.38,1.07,3.61,2.57,3.61,5.22,0,3.72-2.53,5.49-6.06,5.49h-5.68c-1.92,0-3.22-.08-4.6-1.15-.69-.54-1.69-1.23-1.69-2.15,0-1.04,.88-1.84,1.92-1.84,.58,0,1,.19,1.42,.65,.65,.73,1.8,.81,2.95,.81h4.99c1.3,0,3.07,.12,3.07-2.03,0-.88-1.07-1.46-1.92-1.84l-8.67-3.95c-2.03-.92-3.22-2.11-3.22-4.49,0-2.92,2.3-4.68,5.07-4.68h6.29c2.03,0,2.88,.12,4.26,1.27,.69,.58,1.46,1.04,1.46,2.07s-.88,1.84-1.88,1.84c-.69,0-1.11-.27-1.57-.77-.61-.65-1.27-.73-2.26-.73h-5.6Z" fill="#fff"/></svg>