<svg xmlns="http://www.w3.org/2000/svg" viewBox="0 0 230 153"><path d="M77.46 66.86c-6.89-15.6-12.35-34.31-9.56-51.47.78-4.77 1.4-9.43-.61-9.6-3.95-.33-5.74 9.5-6.29 15.44-3.12 6.47-8.03 13.78-13.92 20.47-4.35.81-9.89 4.77-5.86 6.12-6.49 6.21-13.73 11.33-20.85 13.83-18.81 6.63-24-16.75-5.2-3.67-21.44-19.83-20.71 15.81 5.79 7.03 6.28-2.08 12.3-5.59 19.05-6.48 6.33-.84 12.83.5 17.16 5.54-2.19-6.53-10.96-7.56-21.78-7.23 4.01-3.21 7.9-7.02 11.41-11.03 4.91-1.28 10.57-.82 19.01 6.04-.7-7.22-7.88-10.06-15.49-10.3 5.04-6.43 8.89-13 10.53-18.09-.03.68-.04 1.23-.03 1.6.71 18.5 10.07 34.85 16.65 41.78zM88.9.81c3.62-.94 6.07-.9 3.18 2.84-3.53 4.56-5.85 8.97-7.77 14.43-4.8 13.68-5.44 28.81-3.71 44.75-5.56-15.24-7.39-31.19-2.27-46.04C79.85 12.38 83.7 2.15 88.9.8zm23.66 34.02c-13.01-8.51-26.81 7.74-28.07 19.3-.52 4.76.61 9.45 6.45 9.14 3.59-.19 8.42-3.52 14.91-11.1l.97 7.43c.79 1.87 1.85 3 3.18 3.39.75.22 2.78.34 3.55.14 1.16-.3 1.1-1.72-.16-4.28-3.99-8.13.81-14.17 2.15-20.89-2.83.03-5.64 5.48-9.69 10.98-25.23 23.24-11.77-20.42 6.71-14.11zm25.12-28.77c-2.61-8.15 6.16-2.05 7.76 2.2 4.95 13.19.39 26.54-3.59 39.2-1.33 4.22-2.04 8.6 1.94 15.14.81 1.31-.24 1.75-3.13 1.31-2.58-.38-2.86-2-3.43-4.49-.54-2.37-.58-4.83-.74-7.26-2.21 4.41-5.38 7.41-8.57 9.05-10.44 5.4-14.39-4.17-11.85-12.68 2.91-9.73 14.18-14.9 22.78-11.93-17.94 2.85-17.65 17.23-15.93 20.09.97 1.61 7.07 1.27 12.95-7.4 4.44-6.56 5.22-12.34 5.43-20.15.2-7.55-.69-15.21-3.63-23.07zm28.96.49c-2.8-8.09 6.12-2.19 7.81 2.02 5.24 13.07.98 26.51-2.72 39.26-1.23 4.25-1.85 8.64 2.28 15.09.84 1.29-.2 1.75-3.1 1.38-2.59-.33-2.91-1.94-3.52-4.41-.59-2.36-.69-4.81-.9-7.24-3.52 7.43-9.78 10.98-14.47 10.92-7.6-.11-7.64-10.35-5.71-15.55 3.29-8.86 13.87-13.61 22.18-10.97-17.87 3.25-17.26 17.62-15.48 20.44.97 1.53 6.63 1.15 12.11-6.69 4.4-6.29 5.38-11.63 5.61-19.11.25-8.26-.69-16.6-4.11-25.14zm27.83 6.73c4.06-3.34 4.8 1.51 3.35 4.2-1.71 3.14-4.09 5.28-6.94 6.7-5.39 2.82-8.89-3.7-3.86-6.25 2.66-1.37 5.14-2.93 7.45-4.65zm-17.68 48.8c3.27-5.58 3.5-2.62 10.76-19.47 1.5-3.49 5.63-9.18-.66-10.18-1.94-.11-3.39.68-4.36 2.37-4.28 7.45-5.88 18.76-5.74 27.28zm12.38.1c1.3-5.63 2.61-11.27 3.91-16.89.69-3.01.96-6.67 2.37-9.56.98-1.99 1.96-2.76 3.81-3.66 3.24-1.56 4.83-1.28 4.77.82-.15 5.83-3.51 13.03-5.68 18.37 29.05-39.14 48.68-1.78 10.42 13.77 6.34-7.35 10.6-11.72 12.59-15.3 3.38-6.1.03-12.13-7.07-8.52-6.18 3.14-15.21 11.34-25.11 20.98v-.02z" fill="#efca43"/><path d="M77.46 66.86c-6.89-15.6-12.35-34.31-9.56-51.47.78-4.77 1.4-9.43-.61-9.6-3.95-.33-5.74 9.5-6.29 15.44-3.12 6.47-8.03 13.78-13.92 20.47-4.35.81-9.89 4.77-5.86 6.12-6.49 6.21-13.73 11.33-20.85 13.83-18.81 6.63-24-16.75-5.2-3.67-21.44-19.83-20.71 15.81 5.79 7.03 6.28-2.08 12.3-5.59 19.05-6.48 6.33-.84 12.83.5 17.16 5.54-2.19-6.53-10.96-7.56-21.78-7.23 4.01-3.21 7.9-7.02 11.41-11.03 4.91-1.28 10.57-.82 19.01 6.04-.7-7.22-7.88-10.06-15.49-10.3 5.04-6.43 8.89-13 10.53-18.09-.03.68-.04 1.23-.03 1.6.71 18.5 10.07 34.85 16.65 41.78zM88.9.81c3.62-.94 6.07-.9 3.18 2.84-3.53 4.56-5.85 8.97-7.77 14.43-4.8 13.68-5.44 28.81-3.71 44.75-5.56-15.24-7.39-31.19-2.27-46.04C79.85 12.38 83.7 2.15 88.9.8zm23.66 34.02c-13.01-8.51-26.81 7.74-28.07 19.3-.52 4.76.61 9.45 6.45 9.14 3.59-.19 8.42-3.52 14.91-11.1l.97 7.43c.79 1.87 1.85 3 3.18 3.39.75.22 2.78.34 3.55.14 1.16-.3 1.1-1.72-.16-4.28-3.99-8.13.81-14.17 2.15-20.89-2.83.03-5.64 5.48-9.69 10.98-25.23 23.24-11.77-20.42 6.71-14.11zm25.12-28.77c-2.61-8.15 6.16-2.05 7.76 2.2 4.95 13.19.39 26.54-3.59 39.2-1.33 4.22-2.04 8.6 1.94 15.14.81 1.31-.24 1.75-3.13 1.31-2.58-.38-2.86-2-3.43-4.49-.54-2.37-.58-4.83-.74-7.26-2.21 4.41-5.38 7.41-8.57 9.05-10.44 5.4-14.39-4.17-11.85-12.68 2.91-9.73 14.18-14.9 22.78-11.93-17.94 2.85-17.65 17.23-15.93 20.09.97 1.61 7.07 1.27 12.95-7.4 4.44-6.56 5.22-12.34 5.43-20.15.2-7.55-.69-15.21-3.63-23.07zm28.96.49c-2.8-8.09 6.12-2.19 7.81 2.02 5.24 13.07.98 26.51-2.72 39.26-1.23 4.25-1.85 8.64 2.28 15.09.84 1.29-.2 1.75-3.1 1.38-2.59-.33-2.91-1.94-3.52-4.41-.59-2.36-.69-4.81-.9-7.24-3.52 7.43-9.78 10.98-14.47 10.92-7.6-.11-7.64-10.35-5.71-15.55 3.29-8.86 13.87-13.61 22.18-10.97-17.87 3.25-17.26 17.62-15.48 20.44.97 1.53 6.63 1.15 12.11-6.69 4.4-6.29 5.38-11.63 5.61-19.11.25-8.26-.69-16.6-4.11-25.14zm27.83 6.73c4.06-3.34 4.8 1.51 3.35 4.2-1.71 3.14-4.09 5.28-6.94 6.7-5.39 2.82-8.89-3.7-3.86-6.25 2.66-1.37 5.14-2.93 7.45-4.65zm-17.68 48.8c3.27-5.58 3.5-2.62 10.76-19.47 1.5-3.49 5.63-9.18-.66-10.18-1.94-.11-3.39.68-4.36 2.37-4.28 7.45-5.88 18.76-5.74 27.28zm12.38.1c1.3-5.63 2.61-11.27 3.91-16.89.69-3.01.96-6.67 2.37-9.56.98-1.99 1.96-2.76 3.81-3.66 3.24-1.56 4.83-1.28 4.77.82-.15 5.83-3.51 13.03-5.68 18.37 29.05-39.14 48.68-1.78 10.42 13.77 6.34-7.35 10.6-11.72 12.59-15.3 3.38-6.1.03-12.13-7.07-8.52-6.18 3.14-15.21 11.34-25.11 20.98v-.02zM104.56 80.28h3.56l-2.26 16.01h-3.56l2.26-16.01zM109.77 80.28h4.06l2.51 10.49h.05l5.55-10.49h3.81l-8.93 16.01h-2.85l-4.2-16.01zM124.04 94.34c.05-.29.14-.56.29-.81.14-.26.32-.48.54-.67.21-.19.46-.34.73-.44.27-.11.56-.16.85-.16.58 0 1.04.2 1.39.61.35.41.49.9.41 1.47-.05.29-.14.56-.29.81-.15.26-.33.48-.55.67-.22.19-.46.34-.73.44-.27.11-.54.16-.83.16s-.56-.05-.8-.16-.45-.25-.61-.44c-.16-.19-.28-.41-.35-.67-.08-.26-.09-.53-.05-.81zm1.03-7.23c.05-.29.14-.56.27-.81.14-.26.32-.48.54-.67.22-.19.46-.34.73-.44.27-.11.54-.16.83-.16s.56.05.8.16.45.25.62.44c.17.19.29.41.37.67.08.26.09.53.05.81-.05.29-.14.56-.29.81-.14.26-.33.48-.55.67-.22.19-.46.34-.73.44-.27.11-.54.16-.83.16s-.56-.05-.8-.16-.45-.25-.61-.44c-.16-.19-.28-.41-.35-.67-.08-.26-.09-.53-.05-.81zM72.08 119.53c-.11.74-.27 1.45-.5 2.15a5.65 5.65 0 0 1-1 1.84c-.44.54-1.02.96-1.75 1.29-.72.32-1.63.49-2.73.49-1.28 0-2.32-.3-3.12-.9s-1.24-1.54-1.31-2.83l3.38-.79c-.02.39.11.72.39.99.27.27.61.41 1 .41s.75-.1 1.01-.31c.26-.2.46-.46.62-.76.15-.3.26-.63.33-.98s.13-.68.17-.98l1.46-10.26h3.56l-1.51 10.65zM81.1 123.51h-.05c-.46.59-1.02 1.01-1.69 1.27-.67.26-1.36.38-2.06.38-.52 0-1.01-.07-1.46-.21-.46-.14-.85-.36-1.18-.64-.33-.29-.57-.64-.72-1.06-.15-.42-.19-.91-.11-1.47.14-.95.5-1.68 1.08-2.2.59-.52 1.28-.9 2.08-1.15.8-.25 1.64-.4 2.51-.44.88-.05 1.67-.07 2.39-.07.08-.6-.08-1.08-.46-1.44-.38-.35-.87-.53-1.46-.53s-1.09.12-1.59.35c-.5.23-.96.55-1.38.96l-1.55-1.85c.72-.59 1.52-1.03 2.41-1.32.89-.29 1.79-.44 2.71-.44 1 0 1.82.12 2.43.37s1.08.61 1.4 1.1c.32.48.51 1.07.56 1.77.05.7.01 1.51-.13 2.43l-.78 5.58H80.9l.18-1.38zm-.36-3.44c-.26 0-.58.01-.97.03-.39.02-.77.09-1.14.19-.37.11-.7.26-.98.47-.28.21-.45.51-.49.88-.03.21 0 .39.07.53.08.14.18.27.32.37.14.11.3.18.49.23.19.05.38.07.56.07.33 0 .67-.05.99-.14.33-.09.62-.22.89-.38.27-.17.49-.38.67-.63.18-.26.3-.56.34-.9l.09-.72h-.84zM88.57 116.61h-2.26l.39-2.71h2.26l.27-1.94c.09-.6.22-1.17.4-1.71.18-.53.45-1.01.81-1.41.37-.41.85-.73 1.45-.96.6-.23 1.37-.35 2.29-.35.35 0 .69.02 1.03.05.33.03.65.08.96.16l-.57 2.87c-.18-.08-.35-.13-.51-.17-.16-.04-.35-.06-.56-.06-.55 0-.97.12-1.28.35-.3.23-.51.71-.62 1.44l-.25 1.74h2.53l-.39 2.71h-2.53l-1.16 8.27H87.4l1.16-8.27zM101.81 123.51h-.05c-.46.59-1.02 1.01-1.69 1.27-.67.26-1.36.38-2.06.38-.52 0-1.01-.07-1.46-.21-.46-.14-.85-.36-1.18-.64-.33-.29-.57-.64-.72-1.06-.15-.42-.19-.91-.11-1.47.14-.95.5-1.68 1.08-2.2.59-.52 1.28-.9 2.08-1.15.8-.25 1.64-.4 2.51-.44.88-.05 1.67-.07 2.39-.07.08-.6-.08-1.08-.46-1.44-.38-.35-.87-.53-1.46-.53s-1.09.12-1.59.35c-.5.23-.96.55-1.38.96l-1.55-1.85c.72-.59 1.52-1.03 2.41-1.32.89-.29 1.79-.44 2.71-.44 1 0 1.82.12 2.43.37s1.08.61 1.4 1.1c.32.48.51 1.07.56 1.77.05.7.01 1.51-.13 2.43l-.78 5.58h-3.15l.18-1.38zm-.36-3.44c-.26 0-.58.01-.97.03-.39.02-.77.09-1.14.19-.37.11-.7.26-.98.47-.28.21-.45.51-.49.88-.03.21 0 .39.07.53.08.14.18.27.32.37.14.11.3.18.49.23.19.05.38.07.56.07.33 0 .67-.05.99-.14.33-.09.62-.22.89-.38.27-.17.49-.38.67-.63.18-.26.3-.56.34-.9l.09-.72h-.84zM108.48 113.9h3.43l-.25 1.76h.05c.46-.68.96-1.19 1.51-1.53.55-.34 1.2-.51 1.96-.51.2 0 .4 0 .59.02.2.02.38.05.55.09l-.43 3.1a4.863 4.863 0 0 0-1.44-.23c-.66 0-1.19.09-1.6.27-.41.18-.74.43-.98.76-.24.32-.43.71-.56 1.16-.13.45-.23.95-.31 1.49l-.64 4.59h-3.43l1.55-10.99zM125.68 108.88h5.39l2.24 10.44h.05l5.23-10.44h5.37l-2.26 16.01h-3.56l1.74-12.28h-.05l-5.98 12.28h-2.72l-2.35-12.28h-.05l-1.74 12.28h-3.56l2.26-16.01zM151.68 123.51h-.05c-.46.59-1.02 1.01-1.69 1.27-.67.26-1.36.38-2.06.38-.52 0-1.01-.07-1.46-.21-.46-.14-.85-.36-1.18-.64-.33-.29-.57-.64-.72-1.06-.15-.42-.19-.91-.11-1.47.14-.95.5-1.68 1.08-2.2.59-.52 1.28-.9 2.08-1.15.8-.25 1.64-.4 2.51-.44.88-.05 1.67-.07 2.39-.07.08-.6-.08-1.08-.46-1.44-.38-.35-.87-.53-1.46-.53s-1.09.12-1.59.35c-.5.23-.96.55-1.38.96l-1.55-1.85c.72-.59 1.52-1.03 2.41-1.32.89-.29 1.79-.44 2.71-.44 1 0 1.82.12 2.43.37s1.08.61 1.4 1.1c.32.48.51 1.07.56 1.77.05.7.01 1.51-.13 2.43l-.78 5.58h-3.15l.18-1.38zm-.36-3.44c-.26 0-.58.01-.97.03-.39.02-.77.09-1.14.19-.37.11-.7.26-.98.47-.28.21-.45.51-.49.88-.03.21 0 .39.07.53.08.14.18.27.32.37.14.11.3.18.49.23.19.05.38.07.56.07.33 0 .67-.05.99-.14.33-.09.62-.22.89-.38.27-.17.49-.38.67-.63.18-.26.3-.56.34-.9l.09-.72h-.84zM162.92 126.67c-.3.59-.59 1.11-.87 1.56-.27.45-.6.83-.97 1.14-.37.31-.82.54-1.35.7-.53.16-1.2.24-2.02.24-.88 0-1.71-.14-2.49-.41l.85-2.78c.47.23.98.34 1.53.34.38 0 .7-.04.96-.12.26-.08.48-.2.66-.36.18-.16.34-.35.48-.58s.29-.49.46-.79l.34-.63-3.29-11.08h3.7l1.83 7.26h.05l3.47-7.26h3.52l-6.85 12.77zM45.33 136.28h4.84l5.3 11.12h.05l1.58-11.12h3.56l-2.26 16.01h-4.66l-5.46-11.39h-.05l-1.6 11.39h-3.56l2.26-16.01zM72 150.39c-.64.69-1.4 1.23-2.3 1.61-.89.38-1.78.57-2.68.57s-1.64-.14-2.35-.41c-.72-.27-1.31-.66-1.79-1.16-.48-.5-.83-1.11-1.05-1.82-.22-.71-.27-1.5-.15-2.37.12-.87.39-1.67.81-2.37.42-.71.94-1.31 1.56-1.82.62-.5 1.33-.89 2.12-1.16s1.61-.41 2.47-.41c.79 0 1.49.14 2.1.41.61.27 1.1.66 1.48 1.16.38.51.64 1.11.79 1.82.14.71.16 1.5.03 2.37l-.16 1.06h-7.95c.05.65.27 1.16.67 1.55.4.38.94.58 1.61.58.56 0 1.05-.12 1.47-.37.42-.25.8-.57 1.15-.96l2.15 1.74zm-2.21-4.84c.09-.57-.03-1.06-.37-1.47-.34-.41-.81-.61-1.44-.61a2.819 2.819 0 0 0-1.83.64c-.23.19-.42.41-.57.66s-.26.51-.32.78h4.52zM85.11 150.39c-.64.69-1.4 1.23-2.3 1.61-.89.38-1.78.57-2.68.57s-1.64-.14-2.35-.41c-.72-.27-1.31-.66-1.79-1.16-.48-.5-.83-1.11-1.05-1.82-.22-.71-.27-1.5-.15-2.37.12-.87.39-1.67.81-2.37.42-.71.94-1.31 1.56-1.82.62-.5 1.33-.89 2.12-1.16s1.61-.41 2.47-.41c.79 0 1.49.14 2.1.41.61.27 1.1.66 1.48 1.16.38.51.64 1.11.79 1.82.14.71.16 1.5.03 2.37l-.16 1.06h-7.95c.05.65.27 1.16.67 1.55.4.38.94.58 1.61.58.56 0 1.05-.12 1.47-.37.42-.25.8-.57 1.15-.96l2.15 1.74zm-2.22-4.84c.09-.57-.03-1.06-.37-1.47-.34-.41-.81-.61-1.44-.61a2.819 2.819 0 0 0-1.83.64c-.23.19-.42.41-.57.66s-.26.51-.32.78h4.52zM99.11 152.29h-3.15l.18-1.45h-.05c-.15.2-.35.4-.61.6s-.54.39-.86.55c-.32.17-.67.3-1.04.41-.37.11-.75.16-1.13.16-.82 0-1.55-.14-2.18-.42s-1.15-.67-1.56-1.18c-.41-.5-.7-1.1-.86-1.8-.16-.69-.18-1.45-.06-2.28.11-.77.33-1.5.66-2.2.33-.7.76-1.32 1.27-1.87.51-.54 1.1-.98 1.77-1.3.67-.32 1.4-.49 2.19-.49.72 0 1.37.11 1.96.33.59.22 1.04.59 1.35 1.12h.05l1.05-7.28h3.43l-2.42 17.09zm-2.38-5.49c.12-.83-.02-1.5-.43-2.01-.41-.51-1.05-.77-1.92-.77s-1.58.26-2.12.77c-.55.51-.88 1.18-1 2.01-.12.83.02 1.5.42 2.01.4.51 1.04.77 1.91.77s1.58-.26 2.14-.77.89-1.18 1.02-2.01zM123.84 151.16c-1.14.54-2.3.93-3.47 1.18-1.17.24-2.35.36-3.54.36-1.26 0-2.4-.2-3.41-.59-1.01-.39-1.85-.95-2.52-1.68-.67-.73-1.15-1.62-1.44-2.66-.29-1.04-.34-2.2-.16-3.48a9.92 9.92 0 0 1 1.15-3.48 9.653 9.653 0 0 1 2.19-2.66c.88-.73 1.88-1.29 3-1.68 1.13-.39 2.32-.59 3.59-.59s2.46.15 3.51.46c1.04.31 1.92.84 2.64 1.59l-2.9 2.71c-.41-.5-.91-.87-1.48-1.13-.58-.26-1.32-.38-2.24-.38-.76 0-1.47.13-2.12.38-.65.26-1.23.61-1.74 1.07-.5.46-.92 1.01-1.24 1.64-.33.63-.54 1.32-.65 2.06-.11.75-.08 1.44.07 2.07.15.63.41 1.17.79 1.63.37.46.85.82 1.43 1.07.58.26 1.25.38 2.01.38s1.46-.09 2.06-.26c.59-.17 1.07-.35 1.42-.53l.37-2.6h-2.9l.48-3.26h6.33l-1.19 8.36zM128.84 135.2h3.43l-2.42 17.09h-3.43l2.42-17.09zM139.46 150.91h-.05c-.46.59-1.02 1.01-1.69 1.27-.67.26-1.36.38-2.06.38-.52 0-1.01-.07-1.46-.21-.46-.14-.85-.36-1.18-.64-.33-.29-.57-.64-.72-1.06-.15-.42-.19-.91-.11-1.47.14-.95.5-1.68 1.08-2.2.59-.52 1.28-.9 2.08-1.15.8-.25 1.64-.4 2.51-.44.88-.05 1.67-.07 2.39-.07.08-.6-.08-1.08-.46-1.44-.38-.35-.87-.53-1.46-.53s-1.09.12-1.59.35c-.5.23-.96.55-1.38.96l-1.55-1.85c.72-.59 1.52-1.03 2.41-1.32.89-.29 1.79-.44 2.71-.44 1 0 1.82.12 2.43.37s1.08.61 1.4 1.1c.32.48.51 1.07.56 1.77.05.7.01 1.51-.13 2.43l-.78 5.58h-3.15l.18-1.38zm-.37-3.44c-.26 0-.58.01-.97.03-.39.02-.77.09-1.14.19-.37.11-.7.26-.98.47-.28.21-.45.51-.49.88-.03.21 0 .39.07.53.08.14.18.27.32.37.14.11.3.18.49.23.19.05.38.07.56.07.33 0 .67-.05.99-.14.33-.09.62-.22.89-.38.27-.17.49-.38.67-.63.18-.26.3-.56.34-.9l.09-.72h-.84zM151.95 144.54c-.41-.62-1.04-.93-1.87-.93-.29 0-.58.07-.87.2-.29.14-.46.37-.5.7-.05.27.07.47.34.6s.62.24 1.03.34c.41.1.86.2 1.34.32.48.11.92.29 1.31.53.4.24.7.57.92.98.22.41.29.97.19 1.66-.09.71-.33 1.29-.71 1.75-.38.46-.83.83-1.36 1.11-.53.28-1.1.47-1.72.59-.62.11-1.23.17-1.83.17-.78 0-1.55-.11-2.31-.33s-1.38-.61-1.85-1.16l2.4-2.28c.27.39.59.69.95.89.36.2.8.31 1.31.31.4 0 .76-.06 1.1-.17.33-.11.53-.32.57-.62.05-.29-.06-.5-.33-.64a4.53 4.53 0 0 0-1.03-.36c-.42-.1-.87-.2-1.35-.32-.48-.11-.92-.28-1.32-.51-.4-.23-.72-.55-.95-.96-.23-.41-.29-.97-.18-1.66.09-.65.3-1.21.64-1.67.34-.47.74-.85 1.22-1.15.48-.3 1.01-.52 1.59-.67.58-.14 1.16-.21 1.74-.21.73 0 1.45.11 2.17.32.72.21 1.29.59 1.74 1.13l-2.38 2.06zM162.52 144.54c-.41-.62-1.04-.93-1.87-.93-.29 0-.58.07-.87.2-.29.14-.46.37-.5.7-.05.27.07.47.34.6s.62.24 1.03.34c.41.1.86.2 1.34.32.48.11.92.29 1.31.53.4.24.7.57.92.98.22.41.29.97.19 1.66-.09.71-.33 1.29-.71 1.75-.38.46-.83.83-1.36 1.11-.53.28-1.1.47-1.72.59-.62.11-1.23.17-1.83.17-.78 0-1.55-.11-2.31-.33s-1.38-.61-1.85-1.16l2.4-2.28c.27.39.59.69.95.89.36.2.8.31 1.31.31.4 0 .76-.06 1.1-.17.33-.11.53-.32.57-.62.05-.29-.06-.5-.33-.64a4.53 4.53 0 0 0-1.03-.36c-.42-.1-.87-.2-1.35-.32-.48-.11-.92-.28-1.32-.51-.4-.23-.72-.55-.95-.96-.23-.41-.29-.97-.18-1.66.09-.65.3-1.21.64-1.67.34-.47.74-.85 1.22-1.15.48-.3 1.01-.52 1.59-.67.58-.14 1.16-.21 1.74-.21.73 0 1.45.11 2.17.32.72.21 1.29.59 1.74 1.13l-2.38 2.06zM176.47 150.39c-.64.69-1.4 1.23-2.3 1.61-.89.38-1.78.57-2.68.57s-1.64-.14-2.35-.41c-.72-.27-1.31-.66-1.79-1.16-.48-.5-.83-1.11-1.05-1.82-.22-.71-.27-1.5-.15-2.37.12-.87.39-1.67.81-2.37.42-.71.94-1.31 1.56-1.82.62-.5 1.33-.89 2.12-1.16s1.61-.41 2.47-.41c.79 0 1.49.14 2.1.41.61.27 1.1.66 1.48 1.16.38.51.64 1.11.79 1.82.14.71.16 1.5.03 2.37l-.16 1.06h-7.95c.05.65.27 1.16.67 1.55.4.38.94.58 1.61.58.56 0 1.05-.12 1.47-.37.42-.25.8-.57 1.15-.96l2.15 1.74zm-2.21-4.84c.09-.57-.03-1.06-.37-1.47-.34-.41-.81-.61-1.44-.61a2.819 2.819 0 0 0-1.83.64c-.23.19-.42.41-.57.66s-.26.51-.32.78h4.52zM186.2 144.54c-.41-.62-1.04-.93-1.87-.93-.29 0-.58.07-.87.2-.29.14-.46.37-.5.7-.05.27.07.47.34.6s.62.24 1.03.34c.41.1.86.2 1.34.32.48.11.92.29 1.31.53.4.24.7.57.92.98.22.41.29.97.19 1.66-.09.71-.33 1.29-.71 1.75-.38.46-.83.83-1.36 1.11-.53.28-1.1.47-1.72.59-.62.11-1.23.17-1.83.17-.78 0-1.55-.11-2.31-.33s-1.38-.61-1.85-1.16l2.4-2.28c.27.39.59.69.95.89.36.2.8.31 1.31.31.4 0 .76-.06 1.1-.17.33-.11.53-.32.57-.62.05-.29-.06-.5-.33-.64a4.53 4.53 0 0 0-1.03-.36c-.42-.1-.87-.2-1.35-.32-.48-.11-.92-.28-1.32-.51-.4-.23-.72-.55-.95-.96-.23-.41-.29-.97-.18-1.66.09-.65.3-1.21.64-1.67.34-.47.74-.85 1.22-1.15.48-.3 1.01-.52 1.59-.67.58-.14 1.16-.21 1.74-.21.73 0 1.45.11 2.17.32.72.21 1.29.59 1.74 1.13l-2.38 2.06z" fill="#fff"/></svg>