<svg xmlns="http://www.w3.org/2000/svg" viewBox="0 0 320 37"><g fill="#fff"><path d="M80.62 22.25c.77-1.63 1.56-3.25 2.27-4.91 1.57-3.65 5.08-14.47 8.23-16.32 3.52-2.06 3.98 4.18 4.23 6.26.65 5.35.55 10.79.94 16.14-.4 3.48.51 8.1-.02 11.44-.24 1.52-2.64 2.11-3.22.14-.79-2.68-.14-9.8-.22-13.04-.01-.43-.18-.83-.2-1.26-.1-3.34-.1-6.66-.36-10-.14-1.79-.49-3.57-.55-5.36-.65.65-1.09 1.6-1.49 2.42-2.43 4.99-3.9 10.9-6.68 15.69-1.88 3.24-4.43 5.06-6.18.47-2.19-5.73-2.93-12.56-5.2-18.26-.08-.19-.05-.54-.31-.5a355.84 355.84 0 0 0-4.17 25.55c-.2 1.56.22 5.4-2.09 5.28-1.44-.07-1.62-1.43-1.57-2.58.14-3.86 1.08-8.96 1.67-12.87.74-4.94 1.58-10.4 2.76-15.24.33-1.35.82-3.93 2.07-4.66 3.08-1.81 4.52 3.02 5.21 5.1 1.5 4.52 2.48 9.37 3.87 13.95.08.27.74 2.74 1 2.54zM248.92 1.22c3.28-.34 6.58.61 8.78 3.13 1.04 1.19 3.31 5.24.93 6-1.99.63-2.02-1.13-2.53-2.22-3.1-6.74-13.57-3.47-12.98 3.68.19 2.35 1.47 3.34 3.74 3.43 2.67.11 4.89-.68 7.7.05 9.36 2.44 8.72 14.87.66 18.74-4.21 2.02-11.01 1.87-13.34-2.83-.64-1.28-1.48-4.65.62-4.96 2.61-.38 1.49 2.82 3.08 4.36 2.41 2.35 7.31 1.47 9.74-.48 3.64-2.92 3.96-9.77-1.12-11.39-4.48-1.44-10.8 2.07-13.59-3.52-3.03-6.06 1.81-13.33 8.31-14zM136.01 34.33c-.32 1.8-3.17 1.99-3.46-.54-.38-3.35.25-7.99.37-11.44.18-5.07-.16-13.02.99-17.73.98-4.03 5.46-4 8.85-3.36 14.63 2.76 12.21 22.68-2.64 23.54-1.13.07-2.59-.3-3.47-.2-.27.03-.47.03-.63.29v9.45zm.18-12.99c2.79.12 5.38.15 7.96-1.06 7.29-3.42 6.42-13.13-1.14-15.47-1.71-.53-4.37-1.09-5.78.21l-1.04 16.31zM302.7 31.7c1.92-1.71 2.65-8.42 4.46-9.63.72-.48 1.58-.42 2.27.1 1.22.91 2.62 6.61 3.33 8.31.07.16.36 1.18.68.86l3.24-12.85c1.16-1.76 3.51-1.16 3.3 1.11-.27 2.94-2.36 10.79-3.54 13.56-1.58 3.73-3.95 4.37-5.95.49l-2.33-5.94c-.54 2.25-2.58 7.61-5.05 8.13-2.92.62-3.5-2.68-3.85-4.8-.51-3.11-.59-6.3-.75-9.43-.05-1-.52-3.01-.09-3.89.52-1.05 2.1-1.22 2.79-.26s.62 6.07.75 7.61c.19 2.21.56 4.42.73 6.63zM13.4 3.53c.06 1.5-.42 2.97-.54 4.45-.46 5.72.25 11.54.37 17.25.04 2.07.21 5.12 0 7.09-.3 2.72-3.21 2.63-3.47-.36-.29-3.33-.1-7-.18-10.36-.16-6.05-.69-12.14.55-18.09-2.28.04-4.56-.05-6.84 0-1.04.02-2.12.66-2.9-.54C-1.14.61 2.27.19 3.84.08c3.02-.21 6.1.17 9.1.19 2.44.02 5.99-.47 8.19-.17 1.99.27 2.77 2.32.85 3.36l-8.57.08zM113.18 35.82c-.42.39-1.34.59-1.83.21-2.42-2.42-4.84-4.82-7.85-6.52-.49 1.63 1.29 6.99-1.46 7.1-1.65.07-1.82-1.34-1.92-2.64-.36-5.17-.39-10.31-.03-15.45.02-.36-.23-.69-.11-1.23.34-1.61 2.99-1.28 4.25-1.22 2.97.14 6.85.93 8.44 3.76 2.21 3.93-2.19 6.85-5.24 8.32.84.67 1.75 1.28 2.55 2s2.88 2.64 3.36 3.37.55 1.66-.14 2.3zm-9.97-9.76c1.45-.72 6.72-2.32 6.73-4.27 0-1.69-5.11-2.69-6.43-2.42l-.3.24v6.45zM198.8 35.1c-.18.22-1 .61-1.31.61-1.88.01-2.46-3.93-3.01-5.28l-9.07 1.21-.22.2c-.63 1.44-.7 4.87-2.96 4.37-1.63-.36-1.25-2.07-.95-3.23.86-3.34 2.65-8.26 3.96-11.49 1.02-2.51 2.54-6.32 5.95-4.57 3.97 2.03 5.9 12.89 7.96 16.79.1.37-.11 1.13-.35 1.41zm-5.59-7.77c-.6-1.74-1.2-3.69-2.03-5.33-.17-.33-1.24-2.39-1.61-2.11l-3.1 8.18c2.27 0 4.51-.37 6.74-.73zM31.98 28.61l-8.38.36v4.63c0 .11-.26 1.35-.32 1.5-.49 1.21-2.35 1.26-2.92.09s-.05-2.32-.03-3.4c.07-3.88 0-7.77.36-11.63.12-1.29.12-3.19 1.91-3.19 2.5 0 1.47 3.58 1.37 5.01-.09 1.24-.17 2.49-.18 3.72l8.2-.36c.06-1.66-.09-3.35 0-5.01.03-.68.11-2.32.23-2.86.38-1.67 3.01-1.66 3.24.32s-.2 4.21-.19 6.19c0 2.57.11 5.03 0 7.62-.08 1.75.78 4.94-1.91 4.65-.56-.06-1.36-.88-1.36-1.38V28.6zM275.55 28.61l-8.38.36v4.63c0 .11-.26 1.35-.32 1.5-.49 1.21-2.35 1.26-2.92.09s-.05-2.32-.03-3.4c.07-3.88 0-7.77.36-11.63.12-1.29.12-3.19 1.91-3.19 2.5 0 1.47 3.58 1.37 5.01-.09 1.24-.17 2.49-.18 3.72l8.2-.36c.06-1.66-.09-3.35 0-5.01.03-.68.11-2.32.23-2.86.38-1.67 3.01-1.66 3.24.32s-.2 4.21-.19 6.19c0 2.57.11 5.03 0 7.62-.08 1.75.78 4.94-1.91 4.65-.56-.06-1.36-.88-1.36-1.38V28.6zM42.37 24.79c2.2.42 4.4.01 6.61.04 1.26.34 1.73 2.2.67 2.96-1.23.88-5.86.41-7.46.28l-.16 4.88c.17.28 2.19.23 2.62.22 1.71-.07 5.86-1.14 7.1-.01.85.77.52 2.35-.6 2.68l-7.6.79c-2.47-.23-4.58-.47-4.83-3.37-.21-2.43.29-4.86.38-7.27.08-2.14-.3-4.32-.2-6.37.06-1.15.22-3.29 1.74-3.37 2.93.58 6.58-.01 9.46.4 1.26.18 2.39 1.68 1.25 2.72-1.43 1.29-6.97-.02-8.98.36v5.09zM163.63 17.95c3.98 4.14 4.67 17.66-2.94 18.29-6.7.55-9.46-8.03-7.97-13.4 1.24-4.5 6.82-9.14 10.92-4.88zm-4.17 1.79c-2.15.36-3.61 3.77-3.78 5.69-.24 2.81 1.27 7.76 4.83 7.36s2.73-7.27 2.04-9.67c-.43-1.49-1.12-3.7-3.09-3.37zM224.66 17.95c3.98 4.14 4.67 17.66-2.94 18.29-6.7.55-9.46-8.03-7.97-13.4 1.24-4.5 6.82-9.14 10.92-4.88zm-4.17 1.79c-2.15.36-3.61 3.77-3.78 5.69-.24 2.81 1.27 7.76 4.83 7.36s2.73-7.27 2.04-9.67c-.43-1.49-1.12-3.7-3.09-3.37zM292.98 17.95c3.98 4.14 4.67 17.66-2.94 18.29-6.7.55-9.46-8.03-7.97-13.4 1.24-4.5 6.82-9.14 10.92-4.88zm-4.18 1.79c-2.15.36-3.61 3.77-3.78 5.69-.24 2.81 1.27 7.76 4.83 7.36s2.73-7.27 2.04-9.67c-.43-1.49-1.12-3.7-3.09-3.37zM169.25 19.52c-1.68-.3-1.94-2.98-.17-3.26 3.43.18 7.16-.27 10.55 0 1.36.11 3.33.49 2.75 2.37-.63 2.03-4.71.5-6.3.9l.18 9.37c-.08 1.74.67 4.4.57 5.99-.12 1.87-3.11 2.38-3.45-.38-.52-4.2-.31-8.69-.56-12.89-.04-.68-.31-1.36-.19-2.08-1.02-.12-2.4.17-3.37 0zM198.95 19.52c-1.68-.3-1.94-2.98-.17-3.26 3.43.18 7.16-.27 10.55 0 1.36.11 3.33.49 2.75 2.37-.63 2.03-4.71.5-6.3.9l.18 9.37c-.08 1.74.67 4.4.57 5.99-.12 1.87-3.11 2.38-3.45-.38-.52-4.2-.31-8.69-.56-12.89-.04-.68-.31-1.36-.19-2.08-1.02-.12-2.4.17-3.37 0zM116.03 27.03c2.34-2.35 5.59 2.3 2.58 4.66-2.69 2.11-4.33-2.9-2.58-4.66z"/></g></svg>