<svg xmlns="http://www.w3.org/2000/svg" viewBox="0 0 280 92"><path fill="#fff" d="M79.82 47.76l-.05-32.03-6.36 13.56-6.28-13.51-.06 31.96-6.08.01V.55l6.05-.03 6.47 14.91L79.82.56l6.16-.02.01 47.14-6.17.08zM205.78 47.65l-8.95.04c-2.42.01-4.82-2.21-4.82-4.91V5.49c0-2.9 2.56-4.92 5.15-4.92h8.16c2.65 0 4.99 1.98 4.99 4.83v37.52c0 2.48-2.07 4.72-4.52 4.73zm-1.62-40.76h-5.91l.06 34.55h5.91l-.06-34.55zM188.85 47.7l-6.47.08-4.57-16.17-2.68-.11v16.25l-6.16-.05V.6l13.07-.01c2.92 0 4.89 2.28 4.97 5.11l-.05 21.3c0 2.63-2.21 4.21-4.67 4.52l2.44 2.5 4.12 13.67zm-7.96-40.81h-5.77v18.34h5.77V6.89zM255.16 47.68l-6.31.04-.02-17.56-5.86-.01-.01 17.54-6.16.01.01-47.1 6.15-.04v23.43h5.94l.01-23.43 6.25.02v47.1zM13.68 41.42l-.02-11.21-3.01-.1v-6.1l9.1-.02V47.7h-2.7l-1.32-2.37c-1.01 1.15-2.27 2.39-3.89 2.38l-5.69-.03c-2.42-.01-4.66-2.1-4.66-4.77V5.41c0-2.8 2.33-4.82 4.94-4.82h8.45c2.43 0 4.78 1.99 4.79 4.55l.09 12.01h-6.17l-.02-9.19c0-.44-.68-1.08-1.04-1.08l-3.77.02c-.5 0-1.15.64-1.15 1.23v32.05c0 .58.66 1.25 1.13 1.25l4.94-.02zM145.77 42.84c0 2.66-2.14 4.85-4.65 4.86l-8.51.04c-2.47.01-5.05-1.86-5.08-4.58l-.12-10.68 6.23-.09.08 8.82c2 .26 3.54.25 5.57.12.73-2.62.66-5.63-.99-7.74l-8.99-11.47c-1.16-1.48-1.79-3.36-1.79-5.26V5.87c0-3.03 2.13-5.31 5.19-5.29l8.06.03c2.48 0 4.77 2.06 4.79 4.66l.1 13.32-6.24.07-.09-11.6-4.72-.12c-.32 0-.82.9-.82 1.22l.04 7.3c0 .91.39 2.35.95 2.98l7.61 8.64c1.8 2.04 3.41 4.06 3.4 7.01l-.03 8.74zM118.19 40.48h-6.43l-.69 7.26-6.65-.09L111.37.53l7.45.05 6.78 47.13-6.53.03-.89-7.26zm-.51-6.69l-2.7-20.65-2.64 20.72 5.34-.07zM233.43 23.39c0 3.83-.96 8-4.5 8.04l-7.37.09v16.2l-6.22-.04V.56l13.13.04c2.95 0 4.81 2.37 4.98 5.17v17.62zm-11.89-16.5v18.34h5.67V6.89h-5.67zM57.11 30.31l-8.87.05v11.06l9.47.01-.01 6.28-15.59.03V.58L57.67.53l.05 6.4-9.48.01V24h8.86l.01 6.31zM275.06 30.36l-8.84-.03-.04 11.08 9.52.04-.07 6.28-15.52.02V.54l15.53.01.04 6.39-9.49-.01V24h8.87v6.36zM0 56.6h279.06v1.66H0zM159.88 47.62l-6.04.12-.01-40.8-6.19-.01.02-6.39 18.48.01.03 6.35-6.29.08v40.64zM100.62 47.61l-6.2.1V6.94h-6.13V.56l18.44-.03.05 6.35-6.16.1v40.63zM39.41 41.42l.03 6.29-14.7.02V.59l6.08-.01v40.84h8.59zM199.58 91.39l-.09-16.55-3.72 6.98-3.82-7-.07 16.55-3.63-.01V66.91l3.68-.07 3.85 7.72 3.76-7.72 3.69.07.01 24.39-3.66.09zM76.11 91.39l-.1-16.55-3.69 6.96-3.8-6.96-.08 16.49-3.63.01-.01-24.43 3.68-.07 3.85 7.72 3.77-7.69h3.72l.01 24.44-3.72.08zM25.44 91.24l-3.66.13-3.96-13.13-.16 13.12h-3.63l-.01-24.39 3.63-.12 3.9 12.25.13-12.16 3.74-.08.02 24.38zM280 91.34l-3.89.03-2.45-7.61c-.09-.27-.42-.69-.64-.82-.26-.16-1.11.16-1.26.46v7.92l-3.7.05V66.89h7.89c1.74 0 2.89 1.31 3.04 3.03l-.03 10.24c0 1.61-1.2 2.54-2.76 2.82.42.47 1.29 1.21 1.46 1.69l2.34 6.69zm-4.88-11.75l-.02-9.42-3.34.02.04 9.44 3.33-.04zM59.22 91.33h-5.54c-1.3 0-2.66-1.23-2.67-2.57V69.51c0-1.51 1.38-2.61 2.79-2.62l5.14-.03c1.65 0 3.02 1.28 3.02 2.98v18.59c0 1.42-1.14 2.89-2.75 2.88zm-1.05-3.49l-.02-17.63c-1.37-.08-2.4-.06-3.47.16l.02 17.59c1.3.16 2.34.16 3.47-.13zM110.28 91.32l-5.34.03c-1.26 0-2.89-1.18-2.89-2.6V69.54c0-1.38 1.21-2.62 2.55-2.63l5.39-.05c1.63-.01 3.04 1.31 3.04 2.98v18.6c0 1.41-1.19 2.87-2.75 2.88zm-1.05-3.51l-.04-17.66-3.44.08v17.61c1.12.33 2.28.35 3.48-.03zM160.14 82.38l-1.81-.21-.04-3.17h5.51v12.18l-1.29.22c-.33.06-.73-.63-1.04-1.16-2.92 2.15-8.58 1.36-8.59-1.23l-.05-19.78c0-1.37 1.58-2.34 2.76-2.34h5.42c1.45 0 2.75 1.15 2.76 2.63l.05 5.91-3.7.02-.05-5.27-3.57.06V87.9l3.59.17.06-5.68zM240.47 91.31l-5.58.04c-1.55.01-2.87-1.36-2.87-2.9v-5.06l3.85-.01.05 4.62 3.22.08c.62-2.07 0-3.48-1.29-4.9l-2.48-2.73c-.94-1.03-2.35-2.16-2.83-3.5-.83-2.29-.45-4.74-.4-7.15.03-1.5 1.02-2.92 2.66-2.9l5.59.04c1.59.01 2.59 1.48 2.59 2.85v6.46h-3.7v-5.94l-3.33-.11.02 5.4 5.85 5.83c.68.68 1.26 2.06 1.26 2.99l.02 4.1c0 1.33-1 2.79-2.62 2.8zM213.81 91.37l-5.19-.04c-1.6-.01-2.67-1.36-2.67-2.84V83.4l3.66-.02.12 4.64c1.23.06 2.25.06 3.34-.13.27-.96.33-2.73-.28-3.42l-5.36-6.04c-.63-.71-1.45-1.76-1.45-2.76l.02-6.16c0-1.5 1.34-2.65 2.79-2.64l5.59.07c1.56.02 2.36 1.55 2.35 2.83l-.02 6.46h-3.67v-5.95c-1.08-.14-2.04-.15-3.25-.02-.11 1.92-.16 3.63.13 5.39l6.28 6.57c1.21 1.27.62 3.67.76 5.28.2 2.15-.99 3.88-3.16 3.87zM140.17 87.56h-3.8l-.48 3.84-3.91-.1 4.13-24.41 4.46-.02 4.11 24.46-3.94.05-.56-3.83zm-.28-3.47l-1.67-10.51-1.54 10.51h3.21zM8.21 87.54l-3.8.05-.43 3.75H0l4.16-24.49 4.47.06 4.04 24.45H8.81l-.6-3.82zm-.25-3.41l-1.64-10.5-1.55 10.54 3.19-.04zM226.56 87.6l-3.79-.06-.46 3.86-3.95-.11 4.12-24.42 4.48.03L231 91.35l-3.86.04-.58-3.79zm-.3-3.48l-1.68-10.37-1.53 10.41 3.21-.04zM34.94 87.6l-3.85-.05-.43 3.83-3.96-.03 4.11-24.39 4.49-.06 4.04 24.45-3.85.04-.55-3.8zm-.33-3.48L32.92 73.6l-1.51 10.57 3.21-.05zM185.99 82.31l-5.33.01-.01 5.78h5.66l-.01 3.28h-9.31l-.01-24.47 9.32-.05.04 3.28-5.68.05-.03 8.8 5.34.04.02 3.28zM265.85 82.31l-5.36.01v5.75l5.7.04-.02 3.26-9.34-.02V66.87l9.3.01.07 3.26-5.71.04-.01 8.82 5.33.03.04 3.28zM93.96 66.92l-4.62 14.35-.03 10.09-3.64.01.03-9.67-4.88-14.77 3.84-.09 2.83 9.92 2.77-9.88 3.7.04zM124.76 79.02l.01 3.31-5.17.01-.09 9.05-3.56-.09-.01-24.42 9.25-.01.02 3.25-5.59.05-.04 8.85h5.18zM45.65 91.25l-3.71.15-.03-21.23-3.73-.03.07-3.26 10.99-.01.05 3.26-3.65.08.01 21.04zM251.54 91.25l-3.67.12-.01-21.21-3.68.01.09-3.3h10.86l.09 3.28-3.69.01.01 21.09zM175.49 88.11l-.11 3.28-8.77-.05V66.91l3.73-.04v21.19l5.15.05z"/></svg>