<svg xmlns="http://www.w3.org/2000/svg" width="350" height="78" viewBox="0 0 350 78"><g id="logos"><path d="M21.91,11.11v1.65c0,4.73-1.46,7.76-4.73,9.27,3.93,1.51,5.47,5,5.47,9.86v3.75c0,7.1-3.8,10.92-11.13,10.92H0V.53H11.06C18.65.53,21.91,4,21.91,11.11ZM7.33,7.1V19.27h2.86c2.73,0,4.4-1.19,4.4-4.87V11.84c0-3.29-1.14-4.74-3.73-4.74Zm0,18.74V40h4.19c2.47,0,3.8-1.12,3.8-4.54v-4c0-4.27-1.4-5.59-4.73-5.59ZM29.71.53H37V40H49.09v6.58H29.71ZM55,.53h7.32v46H55ZM76.79,13.22V46.56H70.2V.53h9.19l7.53,27.55V.53h6.52v46H85.92ZM101.37.53H113c7.32,0,10.92,4,10.92,11.37V35.18c0,7.37-3.6,11.38-10.92,11.38H101.37ZM108.7,7.1V40h4.13c2.33,0,3.73-1.18,3.73-4.47V11.57c0-3.28-1.4-4.47-3.73-4.47Zm51,26.11,5-32.68H174.9v46H168v-33l-5.06,33H156L150.52,14V46.56h-6.39V.53h10.19Zm30.51-13.29h10.06V26.5H190.22V40h12.65v6.58h-20V.53h20V7.1H190.22ZM210.07.53h11.59c7.32,0,10.92,4,10.92,11.37V35.18c0,7.37-3.6,11.38-10.92,11.38H210.07Zm7.32,6.57V40h4.13c2.33,0,3.73-1.18,3.73-4.47V11.57c0-3.28-1.4-4.47-3.73-4.47ZM239.91.53h7.32v46h-7.32Zm36.56,28.86v6.12c0,7.36-3.73,11.57-10.92,11.57s-10.93-4.21-10.93-11.57V11.57C254.62,4.21,258.35,0,265.55,0s10.92,4.21,10.92,11.57v4.48h-6.93V11.11c0-3.28-1.46-4.53-3.79-4.53S262,7.83,262,11.11V36c0,3.29,1.47,4.47,3.8,4.47s3.79-1.18,3.79-4.47V29.39ZM283.6.53h7.32v46H283.6Zm21.84,12.69V46.56h-6.59V.53H308l7.53,27.55V.53h6.52v46h-7.52Zm31.91,6.7h10V26.5h-10V40H350v6.58H330V.53h20V7.1H337.35Z" fill="#fff"/><circle cx="9.35" cy="56.41" r="3.16" fill="#fff"/><circle cx="9.35" cy="64.75" r="3.16" fill="#fff"/><circle cx="38.23" cy="56.41" r="3.16" fill="#fff"/><circle cx="62.27" cy="56.41" r="3.16" fill="#fff"/><circle cx="38.23" cy="64.75" r="3.16" fill="#fff"/><circle cx="86.44" cy="56.41" r="3.16" fill="#fff"/><circle cx="75.9" cy="56.41" r="3.16" fill="#fff"/><circle cx="86.44" cy="64.75" r="3.16" fill="#fff"/><circle cx="115.68" cy="56.41" r="3.16" fill="#fff"/><circle cx="105.14" cy="56.41" r="3.16" fill="#fff"/><circle cx="115.68" cy="64.75" r="3.16" fill="#fff"/><circle cx="224.36" cy="56.41" r="3.16" fill="#fff"/><circle cx="247.23" cy="56.41" r="3.16" fill="#fff"/><circle cx="259.97" cy="56.41" r="3.16" fill="#fff"/><circle cx="271.15" cy="56.41" r="3.16" fill="#fff"/><circle cx="291.78" cy="56.41" r="3.16" fill="#fff"/><circle cx="213.82" cy="56.41" r="3.16" fill="#fff"/><circle cx="224.36" cy="64.75" r="3.16" fill="#fff"/><circle cx="239.91" cy="64.75" r="3.16" fill="#fff"/><circle cx="284.1" cy="64.75" r="3.16" fill="#fff"/><circle cx="198.51" cy="64.75" r="3.16" fill="#fff"/><circle cx="163.8" cy="56.41" r="3.16" fill="#fff"/><circle cx="153.26" cy="56.41" r="3.16" fill="#fff"/><circle cx="188.91" cy="56.41" r="3.16" fill="#fff"/><circle cx="345.77" cy="64.75" r="3.16" fill="#fff"/><circle cx="336.17" cy="56.41" r="3.16" fill="#fff"/><circle cx="54.95" cy="64.75" r="3.16" fill="#fff"/><circle cx="38.23" cy="73.09" r="3.16" fill="#fff"/><circle cx="75.9" cy="73.09" r="3.16" fill="#fff"/><circle cx="317.37" cy="56.41" r="3.16" fill="#fff"/><circle cx="306.83" cy="56.41" r="3.16" fill="#fff"/><circle cx="317.37" cy="64.75" r="3.16" fill="#fff"/><circle cx="306.83" cy="73.09" r="3.16" fill="#fff"/><circle cx="153.26" cy="73.09" r="3.16" fill="#fff"/></g></svg>