<svg xmlns="http://www.w3.org/2000/svg" width="350" height="32" viewBox="0 0 350 32"><path d="M16.87.1A148.55 148.55 0 0 0 0 .57V29.5h8.86v-10s16.58 4.16 17.81-6.5C27.61 4.81 23.94.47 16.87.1zm2 12.53H8.2V6.22s9.33-.39 12.34 2 .95 4.41-1.69 4.41zM31.29 3.87v25.16l20.17.94v-7.44l-12.73-.85V3.4l-7.44.47zM56.92.47V29.5l18.19.47V24.5l-10.08-.37.09-5.28 9.14.19v-5.75l-9.14-.66V8.77l11.03.64V1.32L56.92.47zM330.77 1.36v29.02l18.19.47v-5.46l-10.08-.38.09-5.28 9.15.19v-5.75l-9.15-.66V9.65l11.03.65V2.21l-19.23-.85zM100.08 8.3h4l.66-6.79H81.8v6.41H85l-4.61 20.26 8.48.38.85-4.56 7-.37 1.13 4.43 8.67-1.23zM92 16.68l1.46-6.41 2 6.41zM160.1 8.3h4l.66-6.79h-22.9v6.41H145l-4.62 20.26 8.48.38.85-4.53 7-.37 1.13 4.43 8.67-1.23zm-8.1 8.38l1.46-6.41 2 6.41zM130.62 2S116 .57 114.69 1.51s-4.62 9.71-4.62 11.21 3.68 6.51 5.38 7.36 7 .37 9.51.37 3.4 5.09.38 5.09h-13l1.13 5.56H128c1.6 0 3.39-.94 5.47-2.54S136 26.3 135.8 24s-3.67-7.63-4.71-8.81-4.15-.69-6-.6-5.94.65-6.69-.48-.47-3.58-.47-4.9 1.69-1.6 3.67-1.51 8.77.57 8.77.57zM170.67 31.1l1.79-29.91 8.39-.62 6.12 11.78V.57l7.73.62-.56 28.03-7.83-.19-7.82-15.55-.19 16.96-7.63.66zM200.45.57v6.12h9.24l.37 22.43h8.11V6.88l7.26.38V.57h-24.98zM229.01 6.69l7.25 23.19 13.29 1.22 8.2-28.08-7.35-1.23-5.66 20.74L239.75 5l-10.74 1.69zM264.06 1.13h10.18v4.62h-10.18zM264.06 8.67h8.3v20.45h-7.54l-.76-20.45zM304.96 5.37l.38 25.17h19.7v-7.17l-12.54-.09V3.96l-7.54 1.41zM279.78 5.37l.38 25.17h19.7v-7.17l-12.54-.09V3.96l-7.54 1.41z" fill="#fff"/></svg>