<svg xmlns="http://www.w3.org/2000/svg" viewBox="0 0 350 40"><path d="M49.87 24.33c-.2.25-.15.3-.25.59-.2 0-.1.3-.34.25-.2.3-.25.69-.69.74 0 .2-.25-.25-.2.05-.34.1-.44 1.03-.84 1.08-.1.2-.25.39-.34.59-.2 0-.39-.3-.59-.25 0 .15-.05.3-.1.49-.39.05-.44.54-.89.54-.05.15-.1.29-.1.44-.61.56-1.14 1.23-1.87 1.67-.1.25-.39.34-.44.59-.1.1-.2.15-.3.15-.2.44-.64.69-.88 1.08-.1-.01-.19.03-.25.1-.2.3-1.43.84-1.33 1.28-.13-.03-.13.1-.3.05-.15.3-.74.59-1.03.93-.15 0-.25.1-.39.1-.63.83-1.82.59-2.41 1.52-.74 0-1.08.49-1.72.74-.2.29-.59.39-.88.64-.15-.05-.39 0-.54-.1-.2.1-.49.1-.64.3-1.32.06-2.99.98-4.23.3-.1 0-.25.1-.34.15-.25-.34-.74-.2-.93-.49-.37.18-1.33-.36-1.43-.69-.58.24-.95-.43-1.43-.59 0-.15-.2-.25-.15-.39-.39-.05-.54-.49-.93-.59v-.39l-.44-.25c-.59-.78-1.1-3.44-1.67-4.52.02-.1-.05-.28 0-.39-.1-.15-.1-.39-.25-.44.1-.15.1-.39.25-.54-.25-.34-.15-.89-.44-1.18.37-3.39-1.29-2.22-2.16-3.3-.64.24-1.11-.37-1.67-.54-.05-.2-.25-.2-.2-.44-.29-.05-.44-.25-.69-.39h-.1v-.15l-.2-.05c-.15-.19-.55-1.13-.64-1.38-.05-.2-.39-.2-.49-.34-.61.52-.42 1.59-1.08 2.02.08.48-.33.81-.34 1.23-.39.44-.74.89-.84 1.48-.15.1-.25.3-.34.44v.1h-.1c-.15.25-.15.54-.39.64-.2.59-.44 1.13-.79 1.62.02.13-.04.26-.05.39-.2 0-.1.25-.29.25-.05.25-.1.44-.2.64l-.1.05v.15l-.2.05-.05.2-.1.1v.25c-.25.25-.25.59-.54.74 0 .2-.1.34-.05.49-.15.05-.74.98-.69 1.13l-.25.05c0 .34-.34.54-.34.89l-.34.25c-.13.58-.62 1.09-.74 1.72-.25 0-.2.34-.44.34-.1.59-.44 1.03-.84 1.48l.05.39-.25.1c.1.67-.22.81-.79.49l-.05.05c-.34 0-.39-.34-.64-.44 0-.24-.04-.51 0-.74.1-.05.2-.1.29-.1-.08-.2.49-.96.64-1.08-.06-.2.29-.81.44-.93 0-.36.06-.75.39-.93.05-.15.15-.3.2-.49l.2-.05c0-.15.1-.34.25-.39 0-.2.54-1.13.74-1.23v-.3c.17-.04 1.02-1.94 1.28-2.26v-.2h.1c.2-.39.49-.74.54-1.18.34-.15.3-.64.59-.79-.02-.1-.08-.21 0-.3.34-.34.25-1.03.79-1.28 0-.15.93-1.72 1.08-1.87 0-.25.1-.49.29-.59-.02-.15.1-.29.05-.39.46-.91 1.04-1.87 1.23-2.8.29-.2.34-.69.64-.98v-.25l.1-.05c0-.1-.02-.29.1-.3-.38-.79.48-1.1.89-1.62 0-.25.39-1.23.64-1.18l-.05-.05c.02-.14.17-.31.25-.44v-.25l.34-.34c0-1.03 1.23-2.07 1.28-3.05.49-.49.74-1.13 1.08-1.72-.02-.23.15-.37.1-.69.3-.15.3-.54.54-.74 0-.44.29-.79.29-1.23-.05 0-.54.79-.54.79l-.3.15c-.05.15-.2.2-.2.34-.25.1-.39.34-.49.59-.25.05-.39.2-.59.34-.2.44-1.13.74-1.08 1.08-.54.15-.98.49-1.28.98-.15-.05-.2.1-.34.1-.1.25-.3.39-.34.64-.44.05-.54.49-1.08.49-.18.1-.34.28-.54.39v.15c-.1.1-.25.2-.3.34-.34.05-2.02 1.03-2.02 1.18-.15-.06-1.13.57-1.18.64-.17-.02-.28.04-.44.05-.15.15-1.82.79-2.21 1.13-.59.05-1.08.3-1.62.54-.19-.06-.37-.07-.54 0v.1h-.25c-.42.43-.62-.02-.93.34-.75-.39-1.97.28-2.66-.42.09-.45.77-.07 1.03-.25.63.01 1.44-.04 2.02-.34 1.61-.17 2.91-1 4.43-1.57.07-.26.43-.06.54-.3.18.01.36-.05.54 0 .18-.34.5-.62.88-.59l.05-.15c.2-.1.34-.2.54-.25.1-.1.15-.2.25-.3.2-.05.39-.1.49-.34.55-.23 1.83-.76 1.92-1.33.1-.05.2-.1.3-.05.05-.2.15-.3.15-.44.15-.1.29-.1.44-.2l.1-.25c.1 0 .25-.05.2-.2.25 0 .39-.15.44-.34.15 0 .15-.1.25 0 .06-.31.51-.28.54-.59h.1c.6-.42 1.16-.93 1.72-1.38.2-.44.64-.69.79-1.13l.29-.1c.19-.2.3-.5.54-.64 0-.1.1-.15.2-.1l.1-.34c.15 0 .2-.15.34-.15.15-.49.69-.64.79-1.13.15 0 .25-.15.39-.15.05-.3.34-.49.44-.79l.34-.2c.05-.25.1-.54.39-.64v-.34c.2-.2.44-.39.49-.74.1-.05.2-.15.3-.15-.09-.38.32-.45.34-.84.25-.1.34-.44.64-.49l-.15.2c.26-.09.46-.44.74-.2.06.27-.1.42-.34.54.05.3-.2.3-.34.54.16.27-.21.61-.25.89-.15.15-.15.3-.2.49l-.2.15c-.05.3-.39.79-.59 1.03.02.14-.03.23-.05.39-.25.15-.25.54-.49.64.05.22-.13.3-.1.54-.44.39-.44 1.08-.84 1.52 0 1.08-1.18 2.31-1.28 3.39-.25.05-.15.44-.3.59.34-.1.59-.34.69-.64.39-.2.69-.54.88-.89.13.03.13-.1.3-.05.1-.15.15-.3.2-.44.19.06.16-.17.34-.2.05-.1.05-.2.05-.3.2 0 .29-.2.44-.3h.15v-.15c.34-.3.88-.54 1.08-.98.34-.2.69-.39.89-.69h.2c.44-.54 1.03-.59 1.48-1.18.2-.05.59-.05.59-.34.28.03.91-.53 1.08-.74.41.02.79-.18 1.03-.49.44-.05.59-.54 1.03-.54.15-.2.39-.25.49-.39.16.15.41-.17.54-.05.15-.05.29-.39.49-.25.28-.28.47-.36.84-.39.33-.37.82-.43 1.28-.59.1.15.29-.1.44.1.43-.32.88-.32 1.43-.34l.25-.15c.35-.02 1.7.16 1.87.05 1.02.1 1.84.32 2.9.44v.15c.2.05.39 0 .44.25.11-.01.39-.08.49 0 .15.1.93.69 1.03.74l.64.93c.15.69.79 2.16.64 2.8.19.21-.01.42-.05.64.12.31-.1.6.05.84-.2.25-.2.54-.39.74 0 .43.05.95-.25 1.33.18.73-.07 1.32-.2 2.02-.2.15-.2.39-.39.54l.05.44c-.29.25-.29.64-.59.89-.1.79-.44 1.23-.49 1.67-.1.1-.25.1-.39.15-.15.49-.49.89-.54 1.38-.25.15-.34.54-.69.59-.1.34-.34.59-.44.89-.49.29-.89.74-1.23 1.18-.19-.03-.36.02-.54.05-.15.1-.2.25-.25.39-.15 0-.25.15-.29.3-.44.28-1.24.41-1.38.98l-.34.1-.05.15h-.15c-.25.15-.39.34-.59.54-.34-.06-.57.18-.93.15l-.2.1c0 .2-.2.34-.25.49-.44 0-.39 0-.69.25-.31-.03-.63.35-.84.25-.39.44-.44.39-.98.39-.37.24-.82.45-1.33.49-.29.1-.2.25-.64.25-.05 0-.1.05-.1.1-.11.1-.2 0-.29-.1-.15.1-.39.1-.54.3-.34.1-.69 0-1.03 0-.4.07-1.46.43-1.82.15-.25.1-.54.05-.74.25-.31-.15-.67-.15-.98 0-.39.67.08 1.27-.05 1.97.1.35.1.85.29 1.18l-.05.34c.26.55.08.37.1.79.69 1.31.3 3.13 1.38 4.23.05.34.34.59.44.98.2.3.69.39.84.79.1 0 1.08.74 1.18.89.42-.07.72.21 1.03.39.34.05.84-.05 1.08.2.39-.1 1.97-.15 2.11-.44.1 0 .25.05.34.1.1-.25.98-.3 1.23-.3.27-.03.41-.27.69-.2.16-.28.66-.18.74-.49.34-.05.69-.2.93-.44.43.03 1.99-1.07 2.41-1.38.12.03.33-.16.39 0 .34-.35.54.05.69-.54.13.02.18-.1.34-.05.05-.2.25-.25.2-.44.31.08.32-.33.64-.3.2-.64 1.08-.54 1.03-1.08h.25c.25-.2.29-.59.69-.59l.2-.39c.25-.1.49-.3.74-.34.04-.75.48-.36.79-1.33.2.05.25-.15.44-.15.25-.29.54-.49.69-.84l.25-.05.05-.25c.44-.1.59-.59.98-.74.1-.3.3-.54.59-.69-.06-.24.18-.28.2-.49.15 0 .25-.05.39-.1.15-.2.25-.39.54-.44 0 0 .54-.93.59-.98l.2-.05c.05-.15.2-.3.34-.25.05-.3.29-.44.44-.64l.15-.05v-.15c.2-.25.34.39.44.1l.3.64zm-29.8-1.96c-.27-.28-.4-1.61-.74-1.92l.05-.1c-.29-.1-.34-.54-.39-.79-.39-.3-.69-.74-1.13-1.03-.19.13-.43-.06-.59-.05l-.25-.34c-.37-.12-.76.05-1.13.05-.15.2-.15.44-.34.64l.1.25c-.34.1-.54 1.08-.74 1.38.05.15.25.2.34.34-.13.06.02.19 0 .3.09.02.28-.06.29.1.15.93.64.93.93 1.62.59.05.69.69 1.13.98.54.05.98.39 1.52.39.15.29.63.08.84 0-.04-.16.12-.3.2-.44-.15-.44 0-.49 0-.89 0-.15-.25-.39-.1-.49zm20.5-17.12c-.05-.39-.05-.74-.15-1.13-.34-.25-.64-.44-.64-.93-.41.07-.7-.18-.98-.49-.39.32-.97-.37-1.48-.39-.47.1-1.51.09-2.21.34-.21-.15-.41.07-.64 0-.2.25-.69.15-1.03.25-.15.05-.15.25-.34.25-.06-.06-.19-.05-.29-.05-.1.15-.34.1-.49.1-.12.17-.34.28-.54.25l-.34.39c-.3 0-.39.25-.74.2-.56.27-.9.85-1.57.79-.05.2-.25.29-.44.29-.34.54-.98.39-1.33.89-.25 0-.29.25-.59.2-.05.25-.29.34-.54.39 0 .29-.44.49-.69.49-.3.79-1.57.59-1.77 1.43-.2.1-.34.25-.39.44-.29 0-.39.2-.54.34-.2-.03-.34.14-.49.15-.05.15-.1.34-.15.49-.29 0-.34.29-.64.29.05.34-.25.39-.39.64-.25.05-.34.34-.64.34v.34c-.39.24-.73.75-.93 1.13l-.39.2c0 .15-.89 1.33-1.03 1.43 0 .15-.1.3-.1.44-.2 0-.25.2-.25.34-.25.13-.61.31-.54.64-.25.27-.36.66-.49.98-.21.2-.47.23-.44.59.2.36.71.17.98.44h.34c.25.2 1.18.54 1.77.93h.1l.1.15c.39.15.44.49.84.64.15.34.54.44.34.89.29.15.39.49.59.74-.09.52.42.96.54 1.33.17.82-.03 1.5.29 2.26.1.1.34.1.34.29.82.2 3.75-.45 4.77-.44.05-.1 1.52-.59 1.67-.54.15-.25.49-.25.74-.29.5-.39 1.19-.52 1.82-.74.39-.69.69-.59 1.28-.89.44-.32.77-.66 1.28-.89.05-.1.15-.2.2-.3.69-.3 1.28-1.38 1.48-1.48.29-.15.64-.25.69-.59.29-.25.59-.54.69-.93.15 0 .93-1.08.84-1.23.29-.15 1.23-2.16 1.28-2.51l.15-.1c.39-.98.39-2.02.74-2.9-.1-.2-.1-.39-.1-.59.1-.15.1-.25.25-.34-.16-.26.16-.52.2-.79l-.1-.2c.15-.49.34-2.56.44-2.75-.25-.29-.05-.84-.3-1.23zM22.92 1.86s.05.15.1.25c0-.08 0-.23-.1-.25z" fill="#fff"/><path d="M70.38 24.19c0 .34-.15.39-.25.69-.55.33-.54 1.39-1.23 1.38-.15.29-.44.49-.54.84-.25.1-1.38 1.03-1.43 1.33h-.34c-.15.2-1.33 1.28-1.52 1.23-.1.34-.44.44-.59.74-.51.34-1.1.66-1.43 1.18-.16-.02-.28.1-.44.05-.1.1-.15.25-.2.34-.2 0-.49.25-.69.34l-.05.15c-.34.15-.64.34-.89.59-.31 0-.54.23-.64.49-.55.16-1.61.99-2.26 1.18-.49.64-1.43.74-2.02 1.28h-.25l-.1.15c-.59.2-.39.25-.74.54-.43.08-.71.17-1.13.34-.37.34-1 .42-1.38.79-.47-.15-.89.13-1.33.05-.29.15-.44.15-.74.15-.79 0-.69-.44-1.08-.44-.18.02-.29.25-.49.2-.2-.2-.44-.05-.59-.39-.44-.2-.69-.64-1.23-.69 0-.2-.15-.3-.2-.49-.39-.15-.64-.54-.98-.74 0-.1-.49-.89-.64-.93.25-.75-.02-1.02-.3-1.67 0-.54.1-1.72.49-2.07-.02-.9.66-1.6.84-2.46.2-.1.2-.49.49-.49.05-.39.34-.89.59-1.18.1-.84.74-1.43 1.03-2.16.15-.05.2-.15.34-.2.76-1.2 2.18-2.97 3.39-3.64.25-.59.98-.74 1.33-1.28.69-.23 1.22-.77 1.87-1.13.47.07.82-.34 1.28-.39.25.01.47.14.69-.1.15.15.34.15.54.15l.05.1c.98.44 1.33.54 1.38 1.67-.25.34-.25.74-.25 1.13-.15.1-.88 1.33-.93 1.52-.25.25-.54.39-.79.64.02.22-.14.33-.2.54-.34.15-.64.34-.69.74-.59.1-.69.79-1.38.79-.15.3-.44.44-.54.74-.36.17-1.11.61-1.33.98-.44.2-.69.54-.98.89-.44.1-.84.29-1.03.69-.2 0-.39.15-.59.1-.2.05-.1.34-.25.44-.25.25-.64.2-.79.64l-.05-.05c-.3 0-.39.34-.69.3-.2.15-.44.34-.69.39-.1.15-.1.34-.25.39-.1.15.05.2.05.34 0 .2-.39.1-.49.2-.31.4-.4 1.56-.59 1.92.05 2.07.69 2.51 1.92 3.84.46-.31 1.2.23 1.43.25.29 0 .34-.15.64 0 .74-.13 1.46-.22 2.11-.64l.05-.1h.25c.1-.1.2-.25.29-.34.13.12.3-.05.44-.05.25-.2.64-.2.84-.49.29-.1.54-.3.74-.54.34 0 1.48-.39 1.57-.74.2-.1.44-.2.54-.39.54-.05 1.28-.49 1.57-.89.15.04.27-.1.34-.2h.15c.29-.2.59-.49.79-.74.2-.05.34-.15.49-.2.34-.44 1.48-.79 1.62-1.28.19.08.85-.48.98-.69.29.07.35-.33.64-.3.15-.1.2-.25.2-.39.39-.25 1.03-.64 1.18-1.03.29 0 .39-.3.64-.34l.39-.54c.59-.15.64-.98 1.33-1.08.08-.15.04-.21.05-.34.39-.25.64-.64.98-1.03.2 0 .25-.44.44-.49.05-.15.2-.3.25-.49.33-.23.91-.11.93.44zm-12.54-4.72c-1.05-.93-1.15-.21-1.97-.54-.1.15-.2.3-.25.44-.44.25-.88.69-1.38.89-.15.25-.34.44-.59.59-.2.49-.59.84-1.03 1.03-.33.61-.84.91-1.13 1.48-.44.3-.49.89-.98 1.13 0 .29-.34.44-.34.74-.44.34-1.23 1.57-1.18 2.11-.34.34-.59.79-.64 1.28.16.08 2.26-1.36 2.46-1.52.69-.1.84-.89 1.48-.98.1-.25.29-.39.44-.59.39-.1 2.02-1.38 2.07-1.72.59-.23 1.23-1.12 1.57-1.57.25-.1.34-.39.54-.49.1-.25.2-.49.44-.59.24-.58.58-.98.49-1.67z" fill="#fff"/><path d="M90.54 23.94c.17.43-.22 1.07-.54 1.13-.1.29-.39.39-.39.74-.44.2-.54.74-.98.89-.29.49-.49.98-.93 1.43-.34-.2-.68.44-.79.74-.48-.1-.74.26-.89.64-.15.05-.29.49-.44.49-.1.29-.44.39-.49.69-.29-.09-.32.48-.64.44-.2.2-1.48 1.23-1.62 1.18-.36.73-1.26.61-1.67 1.28-.44.05-.74.49-1.18.54-.42.7-.99.75-1.62 1.08-.1.15-.25.25-.34.39-.08.08-.33-.08-.39.05-.15.05-.1.3-.25.39-.1 0-1.57.59-1.72.69-.66-.08-1.47.35-2.02.69-.17-.16-.46.18-.59 0-.43.12-1.55.55-1.97.15-.28.08-.48.28-.79.15-.65-.01-1.3.48-1.92.1-.6.38-1.16-.02-1.77 0-.25-.25-.64-.25-.84-.54-.14.04-.26-.07-.39-.05-.1-.25-.39-.3-.59-.39l-.05-.15c-.15-.1-.25-.2-.39-.25-.05-.15-.15-.25-.15-.39-.2-.05-.25-.25-.44-.25-.05-.39-.25-.69-.54-.89-.23-.96-.85-3.28.74-3.05.28.59-.14 1.53 0 2.21 0 .64.93 1.92 1.52 2.02.35.48 1 .59 1.38 1.08.12-.12.36.01.49.05.3-.25.74-.05 1.08-.05.3.03.69-.27.98-.15.29-.05.49-.3.84-.3.55-.37 1.09-.81 1.62-1.18.05-.25.2-.39.39-.54 0-.1.79-2.07.79-2.07-.01-.6.1-1.46.1-2.07l.15-.2c-.22-.26-.01-.63-.05-.98l-.05-.05c.09-.42-.04-2.2-.05-2.66.05-.3 0-.34 0-.69s.2-.25.1-.74c-.1-.29 0-.54 0-.84.11-.66 0-1.85.05-2.56-.54.18-1.52 1.19-2.07 1.57-.42.44-.44.67-.84.93-1.44.08-.08-1.56.49-1.72.28-.08.86-.76 1.03-.89.34-.45 1.1-1.35 1.52-1.72.15-.3.1-.2.44-.34.05-.2.05-.39.1-.59l.15-.05c-.03-.22.13-.46.1-.69l.1-.05v-.1l.15-.1c.05-.15.15-.34.3-.39.25-1.18.98-1.33 1.23-1.92.05 0 .64-.25.69-.34.43-.06.78-.36 1.23-.2.15.15-.1.49.05.59-.25.1-.34.44-.3.69-.29.3-.49.69-.49 1.08-.25.25-.34.54-.54.79v.15h-.15c-.17.58-.88 1.31-.69 2.11-.17.18-.1.44-.29.64 0 .34-.25 2.41-.39 2.7-.08.71.28 1.29-.05 1.97.37.73 0 1.93.25 2.7-.1 0-.05.25-.15.25 0 .59.11 1.14 0 1.72l-.25.29c.1.93-.29 1.97-.29 2.8-.25.15-.34.44-.49.69 0 .2-.25.1-.34.25.02.08-.05.36-.15.44v.15c-.29.3-1.52 1.03-1.57 1.23.05.1.1.2.2.2l.2-.2c.19.13.44-.04.54-.15.18.05 1.09-.31 1.23-.39.16.02.34-.11.44 0 .1-.2.39-.2.49-.44.59-.26 2.19-.68 2.66-1.38.39.05.49-.3.79-.34l.15-.25c1.1-.55 2.41-1.47 3.44-2.26.15 0 .05-.25.15-.25.51-.18 1.06-.63 1.38-.98.66-.35 1.26-.99 1.62-1.67.15 0 .25-.15.39-.1.2-.15.89-.93 1.08-.89.1-.2.15-.44.39-.44.1-.15.1-.3.2-.44.34-.15.34-.59.74-.74l.05-.25c.32-.18.54-.96.93-1.03.05-.1.1-.25.2-.34.15-.1 0-.34.15-.49 0-.1.28-.25.34-.29.22-.34.62.02.74.25z" fill="#fff"/><path d="M111.29 24.24c-.05.44-.2.69-.49 1.03-.17.66-1.02.82-1.33 1.38-.44 0-.39.34-.79.49-.05.15-.1.34-.2.49l-.54.25c.05.3-.1.3-.2.59-.29.15-.64.25-.74.59-.49.05-.54.34-.69.74-.1.05-.25.1-.34.1l-.05.25-.2.05-.1.29c-.2 0-.46.33-.59.2 0 .39-.44.54-.54.93-.25.05-.39.2-.49.39-.15.05-.25 0-.39.1-.1.34-.29.64-.49.93-.2.1-.49.05-.44.39l-.29-.15c-.1.1-.05.2.05.3 0 .05-.05.1-.05.15-.34.2-.54.59-.98.64-.15.15-.29.34-.44.54-.59.15-1.18.69-1.33.79-.48 0-.52-.24-.74.3-.2.1-.3.15-.3.39-.34-.23-.75 0-.98.34h-.2c-.22.3-.61.4-.93.3-.1.1-.15.25-.3.34h-.44c-.15.2-1.43.49-1.67.39-.78.33-2 .31-2.66-.2-.49 0-.69-.2-1.08-.39-.05-.15-.2-.34-.29-.49-.39-.1-.64-.3-1.03-.49-.1-.44-.44-.25-.59-.89-.06-.3-.42-.52-.39-.89-.1-.25-.44-.34-.59-.59-.07-.7-.42-2.26.05-2.95v-.49c.15-.1.15-.34.25-.44.05-.64.15-1.38.59-1.87.07-1.23.66-2.49 1.28-3.49 0-.44.34-1.03.49-1.43l.15-.05c.15-.49.3-.93.3-1.43.25-.1.1-.49.34-.64-.05-.2.05-.39 0-.59.25-.44.64-.59.54-1.18.44-.1.49-.49.44-.84.05-.05.17-.18.25-.2.05-.1.05-.34.05-.44l.2-.05c.02-.29.29-.39.49-.59-.05-.25.2-.44.25-.74l.2-.05c.2-.3.64-1.13.98-1.23.05-.34.34-.54.44-.84-.15-.49-.69-.34-1.03-.34-.34 0-.77-.21-1.08 0-.2.05-.2-.2-.34-.25-.39.18-.96-.2-1.28.15-.15 0-.25-.1-.34-.2-.42.14-1.18-.05-1.57-.2-.2 0-.3.15-.49.15-.15-.15-.93-.59-.98-.69-.02-.37.43-.42.64-.2 1.31.25 2.63.06 3.93.44l.05-.05c.39.17.78-.06 1.18.1.78-.11 2.51.36 2.46-.74.3-.1.34-.69.64-.74 0-.49.49-.69.44-1.18.15-.05.2-.2.34-.25.16-.79 1.03-1.29 1.23-2.07l.15-.15.05-.2.15-.1c.02-.24.23-.43.44-.49.05-.15.05-.25.05-.39.3-.15.44-.44.54-.74.34-.15.59-.39.69-.79.39-.06.78-.17 1.18-.15.38.56-.47 1.22-.49 1.67.31.69.1 1.04-.25 1.67-.25.05-.34.2-.59.2-.05.1-.05.34-.05.49-.29.15-.49.39-.54.74-.34.15-.54.44-.84.69.16.52-.31 1.23-.74 1.52-.05.25-.15.49-.34.64.1.29.54.34.79.25 1.47.23 3.15.04 4.57-.34 1.7-.31 2.97 1.78.93.89-.5.12-.97 0-1.43 0-.1.15-.25.15-.39.25-1.25-.07-2.58.39-3.74-.15-.2.1-1.43.54-1.48.54-.15.3-.39.54-.39.89-.2.15-.34.34-.29.59-.2.05-.2.34-.39.34.06.41-.32.71-.59.93 0 .3-.39.98-.69 1.13.07.39-.22.7-.29 1.08-.34.05-.39.49-.74.54-.08.38-.05.76-.1 1.13l-.1.05c-.05.44-.44.93-.74 1.23 0 .34-.1.44 0 .74-.15.1-.15.34-.39.39.04.23-.13.47-.15.69-.41.78-.42 1.52-1.03 2.21.01.18-.04.36-.05.54-.64.41-.53 1.71-1.18 1.97.2.19.04.49-.15.64.1.05 0 .29.05.39-.15.39-.25.79-.34 1.18-1.06 1.07-.64 3.2.2 4.28l.15.05v.15c.2.2.49.39.59.74.2.15.59.3.69.54.34.05.74.15.98.44.21-.21.49-.02.69.05.47-.02 1 .19 1.33-.25.22.03.38-.17.59-.05.15-.05.59-.25.69-.34.59.05 1.13-.15 1.38-.64l.34.05c.2-.2.34-.44.54-.59.86.07 1.42-.75 2.11-1.03l.05-.15c.29-.05.49-.39.69-.34l.05-.2c.31-.13.78-.64.93-.89.23 0 .5-.18.59-.39.15-.1.34-.2.25-.39.1-.05.2-.1.34-.05.1-.3.39-.49.49-.74.25-.1.39-.25.34-.44.25-.05.3-.3.54-.2.1-.2.89-1.13.79-1.18.34-.05.44-.49.79-.49.1-.2.2-.29.29-.49.3-.15.44-.44.59-.74.35-.1.41-.43.79-.59l.05.05c.2-.29.84-1.13 1.13-1.18.15-.29.44-.39.49-.69.48.04.48-.72.88-.89.1-.29.25-.25.3-.54.38-.3 1.06-.29 1.03.39z" fill="#fff"/><path d="M130.77 23.65c.64-.05.79.25.84.69-.15 0-.05.34-.25.34l-.29.29c-.25.05-.79.59-.93.84-.34.05-.59.25-.98.44l-.15.34c-.15.05-.34.1-.49.15l-.15.25c-.2 0-.34.1-.49.2l-.15.44c-.2.1-.34.25-.39.54-.29.15-1.13.25-1.28.54-.1 0-.2.05-.29.05-.05.25-.29.39-.39.69-.29-.09-1.84 1.41-1.92 1.67-.69.57-1.4 1-2.07 1.62l-.15.25c-.59.15-1.48 1.13-2.46 1.33-.1.15-.54.29-.59.54-.25.2-1.03.84-1.18 1.08-.29 0-.59.3-.93.3-.59.35-1.05.36-1.43.93-.49.1-.84.1-1.28.3-.58.66-1.84.48-2.51.49-.15 0-.25-.15-.34-.2-.05.15-.39 0-.44.15-.15-.1-.29-.2-.49-.2-.1-.1-.15-.2-.15-.3h-.34c-.05-.15-.25-.15-.2-.3-.39 0-.59-.3-.89-.39-.12-.33-.48-.56-.29-.89l-.3-.84.05-.1c-.32-.46-.1-.84 0-1.28-.24-.64.19-1.26.1-1.87l.2-.3c-.08-.34-.1-.76.15-1.03-.17-.57.28-1.05.25-1.62.11-.26.43-1.07.3-1.38.25-.1.1-.39.29-.49l-.05-.29c.2-.25.1-.64.3-.89.68-.69.25-1.73 1.03-2.31-.05-.18.08-.32.05-.49.25-.15.29-.54.59-.69.06-.33.29-.67.2-1.03.39-.34.44-.93.89-1.18-.01-.26.08-.48.29-.64-.04-.33.19-.56.2-.89.1-.05.25-.15.39-.25.15-.98.84-1.72 1.08-2.66.15 0 .05-.25.29-.2 0-.34.2-.54.49-.74 0-.39.29-.59.29-.98.25-.25.39-.59.64-.74.29-1.28 1.67-2.31 2.16-3.49.44-.2.49-.84.89-1.08.1-.34.49-.64.59-1.03.69-.44.84-1.33 1.52-1.82.05-.34.39-.54.49-.93.13.03.13-.1.29-.05.46-.72 1.7-1.28 2.26-1.87.2-.03.34-.29.54-.34l.05-.1c.15-.05 1.18-.34 1.33-.3.34-.32.91.19 1.23.1.15.15.3.29.44.39.23.78.92 1.54.74 2.36-.05.2.2 0 .2.39 0 .15 0 .29-.15.29.24.22.23.53.15.79.43.61.22 1.08-.2 1.43v.15h-.1v.1c-.26.11-.27.46-.54.54l.05.05c-.03.16-.22.32-.1.49l-.1.05c-.03.54-.46 1.2-.84 1.62 0 .15-.1.29-.1.44-.39.1-.34.59-.84.64-.1.54-.69.69-.84 1.18h-.25c-.05.1-.1.25-.1.34-.37.01-.31.51-.34.74-.12-.02-.23.09-.34.1-.1.15-.25.3-.3.49-.15 0-.29.15-.29.29-.2.05-.29.2-.44.25-.06.32-.28.5-.59.49-.25.64-.93.84-1.18 1.38-.34.2-.79.34-.98.74-.29.1-.59.44-.98.49-.15.15-.74.69-.69.84-.39.2-.84.39-1.03.84-.59.1-1.23.69-1.67 1.03h-.29c-.15.25-.44.39-.74.49-.29.49-.5.46-.79.93-.34.1-.54.39-.89.44-.2.25-.29.54-.54.59-.1.25-.2.49-.39.64 0 .29-.15.64-.34.89.04.42-.22.73-.44.98v.44c-.2.1-.1.44-.34.54 0 .25-.05.44-.25.64.04.14.05.4 0 .54-.24.31.07.58-.29.74.06.5-.39.82-.29 1.33-.1.1-.15.15-.25.2-.05.15.1.2.1.34-.25.44-.2 1.97-.64 2.11.37.65-.41 1.4-.05 2.07-.38 1.65 1.09 2.41 2.51 2.36.3-.1.2-.15.54-.1.37-.15.61-.48 1.03-.49l.05-.15c.69.05 1.14-.65 1.72-.64.15 0 .25-.15.34-.2.1-.05.25-.1.2-.25.33.08.57-.22.84-.25.2-.1.15-.39.49-.34.05-.15.59-.74.69-.89.2-.05.3-.2.54-.2.29-.2 1.33-.69 1.52-.98.49.05.64-.39 1.13-.49.05-.1.1-.25.15-.34.26.04.35-.23.44-.34.62-.43 1.01-.84 1.48-1.38.1 0 .29-.05.25-.2.1.05.2.05.25.1.1-.15.15-.34.2-.54.15 0 .25-.15.39-.15.2-.34.44-.49.54-.74.16.03.24.02.39 0 .15-.1.2-.29.25-.44.44-.2 1.13-.64 1.57-.79-.02-.13.04-.26.05-.39.74-.37 1.72-1.39 2.26-2.02.2-.05.3-.15.49-.15.1-.39 1.03-.74 1.13-1.03l.39-.25zM126.83 5.7c-.17-.3.04-.8-.3-1.03 0-.15.15-.59.2-.74-.34-.1-.39-.49-.69-.69-.24.02-.54 0-.74-.1-.29.1-.44.34-.74.44-.05.25-.59.44-.79.44 0 .2-.15.29-.15.49-.34.05-.54.3-.69.54-.15.05-.25.1-.39.1-.1.2-.2.34-.39.39-.05.1-.05.2-.05.3-.29.25-.54.59-.69.93-.29.15-.34.49-.59.59-.05.29-.34.49-.39.79-.49.16-.7.99-.98 1.43l-.39.2c0 .25-.2.44-.25.74-.3.15-.25.64-.59.74-.1.69-.64.93-.84 1.52-.2.05-.34.2-.49.3.02.16-.04.21-.05.39-.49.39-.69.89-.74 1.52-.64.4-.61 1.37-1.03 1.92-.02.14.06.19.15.34-1.02.51-1.14 1.63-1.48 2.56-.15.1-.2.3-.39.34.02.27-.26.65.05.84.44-.34.69-.84 1.33-.93.36-.35.91-.64 1.38-.89.1-.15.25-.39.49-.39.05-.2.25-.3.44-.34.1-.25.89-1.03 1.08-.93.05-.25.34-.29.44-.44.22.04.24-.2.44-.15.53-.43 1.06-1.07 1.67-1.33-.01-.07.04-.17.05-.25.25-.15.34-.34.44-.59.15 0 .29-.1.44-.1.05-.34.15-.34.44-.34.15-.49.64-.79.79-1.28.15-.1.25-.2.39-.25 0-.15.84-1.23.98-1.48.15 0 .25-.05.34-.1 0-.25.2-.39.25-.64.44-.05.34-.69.79-.74 0-.54.25-1.03.69-1.43.05-.2.15-.49.34-.69-.03-.19.09-.36.1-.54.55-.4-.02-.91.1-1.48z" fill="#fff"/><path d="M152.01 24.19c0 .34-.15.39-.25.69-.55.33-.54 1.39-1.23 1.38-.15.29-.44.49-.54.84-.25.1-1.38 1.03-1.43 1.33h-.34c-.15.2-1.33 1.28-1.52 1.23-.1.34-.44.44-.59.74-.51.34-1.1.66-1.43 1.18-.16-.02-.28.1-.44.05-.1.1-.15.25-.2.34-.2 0-.49.25-.69.34l-.05.15c-.34.15-.64.34-.89.59-.31 0-.54.23-.64.49-.55.16-1.61.99-2.26 1.18-.49.64-1.43.74-2.02 1.28h-.25l-.1.15c-.59.2-.39.25-.74.54-.43.08-.71.17-1.13.34-.37.34-1 .42-1.38.79-.47-.15-.89.13-1.33.05-.29.15-.44.15-.74.15-.79 0-.69-.44-1.08-.44-.18.02-.29.25-.49.2-.2-.2-.44-.05-.59-.39-.44-.2-.69-.64-1.23-.69 0-.2-.15-.3-.2-.49-.39-.15-.64-.54-.98-.74 0-.1-.49-.89-.64-.93.25-.75-.02-1.02-.3-1.67 0-.54.1-1.72.49-2.07-.02-.9.66-1.6.84-2.46.2-.1.2-.49.49-.49.05-.39.34-.89.59-1.18.1-.84.74-1.43 1.03-2.16.15-.05.2-.15.34-.2.76-1.2 2.18-2.97 3.39-3.64.25-.59.98-.74 1.33-1.28.69-.23 1.22-.77 1.87-1.13.47.07.82-.34 1.28-.39.25.01.47.14.69-.1.15.15.34.15.54.15l.05.1c.98.44 1.33.54 1.38 1.67-.25.34-.25.74-.25 1.13-.15.1-.88 1.33-.93 1.52-.25.25-.54.39-.79.64.02.22-.14.33-.2.54-.34.15-.64.34-.69.74-.59.1-.69.79-1.38.79-.15.3-.44.44-.54.74-.36.17-1.11.61-1.33.98-.44.2-.69.54-.98.89-.44.1-.84.29-1.03.69-.2 0-.39.15-.59.1-.2.05-.1.34-.25.44-.25.25-.64.2-.79.64l-.05-.05c-.3 0-.39.34-.69.3-.2.15-.44.34-.69.39-.1.15-.1.34-.25.39-.1.15.05.2.05.34 0 .2-.39.1-.49.2-.31.4-.4 1.56-.59 1.92.05 2.07.69 2.51 1.92 3.84.46-.31 1.2.23 1.43.25.29 0 .34-.15.64 0 .74-.13 1.46-.22 2.11-.64l.05-.1h.25c.1-.1.2-.25.29-.34.13.12.3-.05.44-.05.25-.2.64-.2.84-.49.29-.1.54-.3.74-.54.34 0 1.48-.39 1.57-.74.2-.1.44-.2.54-.39.54-.05 1.28-.49 1.57-.89.15.04.27-.1.34-.2h.15c.29-.2.59-.49.79-.74.2-.05.34-.15.49-.2.34-.44 1.48-.79 1.62-1.28.19.08.85-.48.98-.69.29.07.35-.33.64-.3.15-.1.2-.25.2-.39.39-.25 1.03-.64 1.18-1.03.29 0 .39-.3.64-.34l.39-.54c.59-.15.64-.98 1.33-1.08.08-.15.04-.21.05-.34.39-.25.64-.64.98-1.03.2 0 .25-.44.44-.49.05-.15.2-.3.25-.49.33-.23.91-.11.93.44zm-12.54-4.72c-1.05-.93-1.15-.21-1.97-.54-.1.15-.2.3-.25.44-.44.25-.88.69-1.38.89-.15.25-.34.44-.59.59-.2.49-.59.84-1.03 1.03-.33.61-.84.91-1.13 1.48-.44.3-.49.89-.98 1.13 0 .29-.34.44-.34.74-.44.34-1.23 1.57-1.18 2.11-.34.34-.59.79-.64 1.28.16.08 2.26-1.36 2.46-1.52.69-.1.84-.89 1.48-.98.1-.25.29-.39.44-.59.39-.1 2.02-1.38 2.07-1.72.59-.23 1.23-1.12 1.57-1.57.25-.1.34-.39.54-.49.1-.25.2-.49.44-.59.24-.58.58-.98.49-1.67z" fill="#fff"/><path d="M172.18 23.94c.17.43-.22 1.07-.54 1.13-.1.29-.39.39-.39.74-.44.2-.54.74-.98.89-.29.49-.49.98-.93 1.43-.34-.2-.68.44-.79.74-.48-.1-.74.26-.89.64-.15.05-.29.49-.44.49-.1.29-.44.39-.49.69-.29-.09-.32.48-.64.44-.2.2-1.48 1.23-1.62 1.18-.36.73-1.26.61-1.67 1.28-.44.05-.74.49-1.18.54-.42.7-.99.75-1.62 1.08-.1.15-.25.25-.34.39-.08.08-.33-.08-.39.05-.15.05-.1.3-.25.39-.1 0-1.57.59-1.72.69-.66-.08-1.47.35-2.02.69-.17-.16-.46.18-.59 0-.43.12-1.55.55-1.97.15-.28.08-.48.28-.79.15-.65-.01-1.3.48-1.92.1-.6.38-1.16-.02-1.77 0-.25-.25-.64-.25-.84-.54-.14.04-.26-.07-.39-.05-.1-.25-.39-.3-.59-.39l-.05-.15c-.15-.1-.25-.2-.39-.25-.05-.15-.15-.25-.15-.39-.2-.05-.25-.25-.44-.25-.05-.39-.25-.69-.54-.89-.23-.96-.85-3.28.74-3.05.28.59-.14 1.53 0 2.21 0 .64.93 1.92 1.52 2.02.35.48 1 .59 1.38 1.08.12-.12.36.01.49.05.3-.25.74-.05 1.08-.05.3.03.69-.27.98-.15.29-.05.49-.3.84-.3.55-.37 1.09-.81 1.62-1.18.05-.25.2-.39.39-.54 0-.1.79-2.07.79-2.07-.01-.6.1-1.46.1-2.07l.15-.2c-.22-.26-.01-.63-.05-.98l-.05-.05c.09-.42-.04-2.2-.05-2.66.05-.3 0-.34 0-.69s.2-.25.1-.74c-.1-.29 0-.54 0-.84.11-.66 0-1.85.05-2.56-.54.18-1.52 1.19-2.07 1.57-.42.44-.44.67-.84.93-1.44.08-.08-1.56.49-1.72.28-.08.86-.76 1.03-.89.34-.45 1.1-1.35 1.52-1.72.15-.3.1-.2.44-.34.05-.2.05-.39.1-.59l.15-.05c-.03-.22.13-.46.1-.69l.1-.05v-.1l.15-.1c.05-.15.15-.34.3-.39.25-1.18.98-1.33 1.23-1.92.05 0 .64-.25.69-.34.43-.06.78-.36 1.23-.2.15.15-.1.49.05.59-.25.1-.34.44-.3.69-.29.3-.49.69-.49 1.08-.25.25-.34.54-.54.79v.15h-.15c-.17.58-.88 1.31-.69 2.11-.17.18-.1.44-.29.64 0 .34-.25 2.41-.39 2.7-.08.71.28 1.29-.05 1.97.37.73 0 1.93.25 2.7-.1 0-.05.25-.15.25 0 .59.11 1.14 0 1.72l-.25.29c.1.93-.29 1.97-.29 2.8-.25.15-.34.44-.49.69 0 .2-.25.1-.34.25.02.08-.05.36-.15.44v.15c-.29.3-1.52 1.03-1.57 1.23.05.1.1.2.2.2l.2-.2c.19.13.44-.04.54-.15.18.05 1.09-.31 1.23-.39.16.02.34-.11.44 0 .1-.2.39-.2.49-.44.59-.26 2.19-.68 2.66-1.38.39.05.49-.3.79-.34l.15-.25c1.1-.55 2.41-1.47 3.44-2.26.15 0 .05-.25.15-.25.51-.18 1.06-.63 1.38-.98.66-.35 1.26-.99 1.62-1.67.15 0 .25-.15.39-.1.2-.15.89-.93 1.08-.89.1-.2.15-.44.39-.44.1-.15.1-.3.2-.44.34-.15.34-.59.74-.74l.05-.25c.32-.18.54-.96.93-1.03.05-.1.1-.25.2-.34.15-.1 0-.34.15-.49 0-.1.28-.25.34-.29.22-.34.62.02.74.25z" fill="#fff"/><path d="M192.34 23.94c.17.43-.22 1.07-.54 1.13-.1.29-.39.39-.39.74-.44.2-.54.74-.98.89-.29.49-.49.98-.93 1.43-.34-.2-.68.44-.79.74-.48-.1-.74.26-.89.64-.15.05-.29.49-.44.49-.1.29-.44.39-.49.69-.29-.09-.32.48-.64.44-.2.2-1.48 1.23-1.62 1.18-.36.73-1.26.61-1.67 1.28-.44.05-.74.49-1.18.54-.42.7-.99.75-1.62 1.08-.1.15-.25.25-.34.39-.08.08-.33-.08-.39.05-.15.05-.1.3-.25.39-.1 0-1.57.59-1.72.69-.66-.08-1.47.35-2.02.69-.17-.16-.46.18-.59 0-.43.12-1.55.55-1.97.15-.28.08-.48.28-.79.15-.65-.01-1.3.48-1.92.1-.6.38-1.16-.02-1.77 0-.25-.25-.64-.25-.84-.54-.14.04-.26-.07-.39-.05-.1-.25-.39-.3-.59-.39l-.05-.15c-.15-.1-.25-.2-.39-.25-.05-.15-.15-.25-.15-.39-.2-.05-.25-.25-.44-.25-.05-.39-.25-.69-.54-.89-.23-.96-.85-3.28.74-3.05.28.59-.14 1.53 0 2.21 0 .64.93 1.92 1.52 2.02.35.48 1 .59 1.38 1.08.12-.12.36.01.49.05.29-.25.74-.05 1.08-.05.3.03.69-.27.98-.15.3-.05.49-.3.84-.3.55-.37 1.09-.81 1.62-1.18.05-.25.2-.39.39-.54 0-.1.79-2.07.79-2.07-.01-.6.1-1.46.1-2.07l.15-.2c-.22-.26-.01-.63-.05-.98l-.05-.05c.09-.42-.04-2.2-.05-2.66.05-.3 0-.34 0-.69s.2-.25.1-.74c-.1-.29 0-.54 0-.84.11-.66 0-1.85.05-2.56-.54.18-1.52 1.19-2.07 1.57-.42.44-.44.67-.84.93-1.44.08-.08-1.56.49-1.72.29-.08.86-.76 1.03-.89.34-.45 1.1-1.35 1.52-1.72.15-.3.1-.2.44-.34.05-.2.05-.39.1-.59l.15-.05c-.03-.22.13-.46.1-.69l.1-.05v-.1l.15-.1c.05-.15.15-.34.3-.39.25-1.18.98-1.33 1.23-1.92.05 0 .64-.25.69-.34.43-.06.78-.36 1.23-.2.15.15-.1.49.05.59-.25.1-.34.44-.29.69-.29.3-.49.69-.49 1.08-.25.25-.34.54-.54.79v.15h-.15c-.17.58-.88 1.31-.69 2.11-.17.18-.1.44-.29.64 0 .34-.25 2.41-.39 2.7-.08.71.28 1.29-.05 1.97.37.73 0 1.93.25 2.7-.1 0-.05.25-.15.25 0 .59.11 1.14 0 1.72l-.25.29c.1.93-.29 1.97-.29 2.8-.25.15-.34.44-.49.69 0 .2-.25.1-.34.25.02.08-.05.36-.15.44v.15c-.3.3-1.52 1.03-1.57 1.23.05.1.1.2.2.2l.2-.2c.19.13.44-.04.54-.15.18.05 1.09-.31 1.23-.39.16.02.34-.11.44 0 .1-.2.39-.2.49-.44.59-.26 2.19-.68 2.66-1.38.39.05.49-.3.79-.34l.15-.25c1.1-.55 2.41-1.47 3.44-2.26.15 0 .05-.25.15-.25.51-.18 1.06-.63 1.38-.98.66-.35 1.26-.99 1.62-1.67.15 0 .25-.15.39-.1.2-.15.88-.93 1.08-.89.1-.2.15-.44.39-.44.1-.15.1-.3.2-.44.34-.15.34-.59.74-.74l.05-.25c.32-.18.54-.96.93-1.03.05-.1.1-.25.2-.34.15-.1 0-.34.15-.49 0-.1.28-.25.34-.29.22-.34.62.02.74.25zM249.53 11.99c-.29 0-.64-.05-.88-.2-.49.1-.98.3-1.43.15-.39.05-.29.59-1.52.44-.2.05-.29.1-.44.3-.63.02-1.21.54-1.82.59-.19.27-.48.43-.69.64-.44 0-.74.49-.93.44-.1.1-.15.25-.15.34-.16-.03-.25.1-.44.05-.59.39-.89 1.03-1.62 1.18-.15.15-.25.34-.34.49-.53.2-.55.64-1.03.89v.1c-.2.2-.64.39-.69.69-.27-.04-.29.24-.54.25-.55 1.09-1.75 1.59-2.21 2.66-.15 0-.25.15-.39.2-.25.34-.44.2-.64.79-.49.25-.84.79-1.38 1.03l-.05.15c-.34.15-.44.54-.74.74l-.05.2-.2.1c-.08.51-.99.89-.98 1.38-.29.15-.44.39-.79.49l.05.34c-.15.05-.29.15-.29.34-.2 0-.39.1-.54.25-.05.2-.15.39-.15.59-.3.15-.44.49-.49.84-.2.1-.89 1.03-.93 1.28-.25.05-.29.3-.49.44.04.2-.14.26-.1.49-.25.1-.3.39-.49.54-.09.54-.66.88-.44 1.48-.15.1-.15.3-.29.39 0 .15-.05.34.05.54-.48.31-.49.95-.44 1.48-.11.53-.14 1.15-.39 1.62.04.78-.25 1.53-.15 2.31-.44.48-1.49.08-1.77-.3 0-.34.2-.49.1-.89.22-.15.75-1.21.39-1.38h.05c0-.25.2-.39.25-.59.03-.34-.17-.86.05-1.18.13-.89-.31-1.99.25-2.75-.08-1.06.26-2.37.54-3.44.22-3.27 1.94-7.08 2.46-10.13.1-.1.15-.25.3-.3-.2-.29.28-.64.1-.93 0-.21.23-.32.2-.54-.28-.04-.28.34-.59.3-.18.71-.76.5-.89 1.18-.2.05-.79 1.19-.84 1.28-.22.2-.96 1.3-1.23 1.23-.05.15-.1.25-.1.39-.55.03-.56.64-.98.84.01.4-.37.62-.54.89h-.15v.1l-.1.1v.1l-.2.05c-.14.44-.6.48-.69.93-.25.15-.74.84-.79 1.08-.94.6-1.48 1.63-2.31 2.21-.18.34-.74.5-.84.84h-.2l-.05.15c-.15.1-.25.25-.44.29 0 .3-.34.39-.34.69-.84.05-.39.49-1.03.49-.15 0-.05.3-.15.34-.2.05-.29.25-.54.2-.02.7-1.5 1.36-1.52 2.07-.44.1-.84.39-1.03.84-.43 0-.65.68-.98.74-.1.25-1.77 1.92-2.02 1.97-.15.49-.64.84-.74 1.38l-.25.1c0 .2-.15.3-.1.49-.54.41-.61 1.49-1.48 1.57-.38-.04-2.24-.94-1.08-1.13.15-.3.54-.25.44-.69.21.09.83-.9 1.03-1.08.11-.21.05-.42.2-.59.1-.15.1-.39.25-.54 0-.1 1.18-2.26 1.23-2.26-.1-.15-.04-.23.1-.39v-.34l.2-.15.05-.3h.1c.4-.64.75-1.44 1.13-2.11-.04-.16.23-.13.29-.25 0-.2.15-.34.15-.54.54-.39.44-1.23.98-1.67.05-.34.79-1.97 1.08-1.97 0-.15 0-.39.2-.44-.05-.43.21-.86.44-1.13-.04-.21.09-.43.05-.64.09-.42.71-1.02.54-1.52.2-.1.25-.29.39-.39-.03-.43.08-.86.44-1.08-.03-.42.7-3.13.98-3.54v-.2c.4-.54.02-1.04.54-1.57.25-.79.29-1.72.64-2.46-.12-.33.06-.65.15-.98.17-.17.11-.43.1-.64.18-.7.2-1.49.49-2.16-.29-.85.29-1.79-.25-2.61a.38.38 0 0 0 .1-.3c-.08-.15-.55-.82-.39-.98l-.1-.1c0-.49-.1-1.18-.59-1.38-.25-.49-.64-.79-.88-1.23-.81.15-1.48-.69-2.31-.44l-.15-.05c-.34.15-.54.1-.89.1-.69 0-1.08.39-1.87.2-.44.1-.69.49-.98.84-.34-.03-1.49.54-.84.84.1.25.3.49.54.64.57 1.44.97 2.05.98 3.74.13.5.2.94-.05 1.43.37.77-.08 1.56 0 2.36-.15.15-.59 1.43-.54 1.57-.15.05-.15.3-.29.3.17.31-.17.38-.1.74l-.2.15-.05.2c-.93.93-.98 1.87-2.51 2.26-.63.62-1.65.42-2.36.05-.08-.5-.46-.38-.79-.64-.15-.2-.05-.59-.29-.69.06-.38-.15-.77-.05-1.13l-.15-.25c.03-.54.14-1.16-.05-1.67.05-.49.25-.3.05-.98.05-.15.15-.44.1-.59l.1-.15-.1-.25c.11-.25-.02-.41-.1-.69.2-.2.74-2.16.79-2.51.1-.06.25-.17.25-.3-.05-.29.2-.49.15-.84.1 0 .84-1.03 1.08-1.13.05-.59.64-.89.84-1.38l.3-.1c.15-.3.54-.44.64-.64-.2-.49-.84-.59-.98-1.13-.26.14-.57-.1-.79-.25-.44.15-.84-.16-1.33-.1-.15-.15-.34-.15-.49-.25-.25-.03-.22.24-.59.25-.25.05-.44.2-.64.2-.29 0-.65-.15-.59-.49-.05-.15.1-.15.2-.15.25-.1.44-.2.74-.2.56-.32 1.25-.17 1.87-.1.34.34.93.2 1.38.3.34.1.64.39.98.39.69.96.96.99 1.92.25.44 0 .79-.3 1.23-.34.1-.1.29-.15.39-.29.54.09 1.04-.42 1.57-.25.52-.16 1.06-.32 1.57-.1l.15-.1c.1.25.44.1.64.1.81 0 1.44.74 2.21.74l.05.1c.89.33 1.58 1.72 2.21 2.31-.02.28.58 1.74.74 2.11.34 1.08-.1 2.41.2 3.39-.33 1.12-.33 3.24-.98 4.23l.05.39c-.2.25-.25.54-.44.74.08.81-.37 2.31-.69 3.1.05.15-.05.3.05.44-.83 1.17-.71 2.68-1.57 3.84l.05.39c-.2.29-.25.64-.49.89 0 .54-.39.93-.44 1.48-.15.2-.29.29-.25.54-.15.05-.2.15-.29.2-.1.49-.25 1.08-.79 1.23-.25.84-.74 1.33-.74 2.21-.49.44-.59 1.18-1.13 1.62.14.17-.11.36-.05.54-.15.1-.3.25-.44.3.17.27-.3.39-.2.69.48.27 1.35-.68 1.52-1.03.39-.05.49-.49.84-.54.1-.1.1-.25.15-.39.15-.05.25-.05.39-.05.1-.34.49-.54.59-.89.34-.1.54-.44.89-.59.2-.29.59-.44.74-.79.39-.15.54-.59.93-.69.1-.39.49-.54.69-.89.29-.05.34-.44.69-.49.05-.3.39-.49.49-.79.2 0 .79-.64.79-.79.15 0 .25-.15.29-.25l.2-.1c.07-.29.41-.43.49-.74.05-.05.15-.05.25 0 .05-.25.2-.49.29-.74.45-.11.7-.48.79-.93l.2-.05.1-.3c.34-.25.69-.54.84-.98.49-.15.64-.74 1.08-.98.1-.44.54-.69.69-1.13.1-.05.2-.15.29-.25l.05-.2.15-.05v-.2h.1c.27-.35.65-.55.74-.98.15-.15.39-.3.39-.54.2 0 .3-.15.49-.2.05-.15.69-1.08.84-1.08.05-.3.2-.64.49-.74 0-.15.1-.3.1-.44.39-.15.34-.79.79-.89.15-.3.59-.98.59-1.28.15 0 .2-.15.34-.2 0-.2.25-.49.29-.74l.3-.3c-.02-.2.1-.39.1-.54.1-.05.2-.15.34-.15.05-.34.34-.49.34-.84.39-.15.69-1.23.98-1.23-.09-.39.32-.56.34-.93.39-.25.64-.64.79-1.08.69-.31.75-1.25 1.77-1.13.59.62.06.69.15 1.23-.13.07-.32.22-.34.39l-.2.1c-.08.32-.39.65-.44 1.03l-.25.15-.1.34c-.2.05-.34.2-.49.29-.05.15 0 .3-.05.44-.1.15-.29.15-.34.3-.29.54-.05.59-.69.93 0 .2-.1.39-.1.54-.25.39-.49.74-.64 1.18-.3.2-.34.59-.39.93-.15 0-.25.15-.39.2.09.43-.32.71-.39 1.08-.1.1-.15.15-.3.2-.31 1.1-2.19 7.61-2.56 8.46l.1.25-.15.34c.09.92-.63 1.59-.59 2.51-.1.1-.1.3-.25.34.11.38-.02.67-.25.98-.1.39 0 .84-.05 1.23-.06.29-.35.54-.2.84.37.18.75-.17.74-.59.2-.05.25-.2.44-.3 0-.15.05-.29.05-.44.15-.15.34-.1.3-.34.33.01.41-.41.49-.64.2-.05.15-.25.44-.2.1-.39.39-.69.79-.84 0-.25.15-.39.2-.54.2-.1.34-.3.59-.34-.07-.4.39-.42.29-.84.3-.05.64-.54.74-.84l.2-.05.05-.1c.39-.15.59-.59.93-.64.05-.1.05-.2.05-.3.34-.1.49-.44.84-.49.25-.3.34-.74.79-.89.15-.49.79-.69.93-1.23.16.09.34.04.34-.2.37.01.45-.13.54-.49.41-.37 1.07-.86 1.33-1.38.29-.15.54-.39.59-.69.59-.3 1.33-.89 1.77-1.38.39-.05.54-.44.93-.54.34-.49 1.03-.59 1.33-1.13.2 0 .98-.54 1.03-.74.46.18 1.4-.58 2.21-.39.15-.15.29-.2.39-.34.49.07 1.42-.42 2.8-.49l.05-.05c.1.1.15 0 .25 0 .3 0 .44.15.74 0 .89.09.99 1 .05.98zm-41.65-6.54c-.25-.34-.34-.84-.49-1.23-.19.03-.23-.19-.44-.2-.15 0-.49.2-.59.39-.31.19-.16.43-.54.54-.1.1-.1.25-.1.39-.3-.05-.25.3-.54.3.26.62-.67.83-.84 1.38-.1 0 0 .3 0 .39-.15.1-.2.25-.34.34.01.2-.03.4-.1.59l-.1.05c-.01.38-.29 1.44-.44 1.67.17.77.09 1.85-.34 2.46 0 .2.2.25.2.44-.1.25.1.54-.05.79.15.1.2.3.25.44-.05.2-.05.39-.1.54.1.25.25.44.25.69.2.2.34.39.54.64 0 .1.05.25.2.25.39.22.74-.25 1.13-.2.34-.34.84-.93 1.23-1.18 0-.05.64-1.38.69-1.43.05-.64.39-1.18.29-1.82.67-1.47.14-3.05.49-4.52 0-.59-.39-1.13-.25-1.72zM263.35 23.79c1-.12 1.07 1.25.1 1.57-.37.99-1.27 1.42-1.82 2.26-.1 0-.1.05-.1.15l-.2.05-.1.2c-.1.05-1.13 1.13-1.23 1.28-.2.04-.55-.03-.3.25 0 .05 0 .1-.05.05-.54.44-.84 1.18-1.62 1.38-.05.15-.1.29-.15.49-.69.3-.84 1.23-1.72 1.33-.29.74-1.08.64-1.48 1.43-.34.1-.74.25-.84.59-.49 0-.49.39-.84.59-.15.05-.29 0-.39.2-.93-.34-.76.94-1.62.84-.44.3-.64.64-1.23.69-.54.54-1.52.25-2.16.79-.64-.03-1.96.45-2.46-.25-.15-.1-.54 0-.64-.25-.21.03-.42-.02-.59-.05-.1-.33-.68-.89-.93-1.13-.29-.74-.29-1.92-.29-2.7-.04-.51-.33-1.07.05-1.52 0-.05-.05-.15 0-.2 0-.34.05-.64.15-.93l.1-.05c.05-.3.34-1.57.54-1.77v-.25c.2-.25.64-1.38.59-1.62.29-.25.34-.74.74-.98-.19-.35.24-.21.05-.79.25-.69.74-1.33.93-1.97.25-.05.34-.25.44-.44.39-.1.54-.59.98-.69.25-.44.49-.93.98-1.18l-.05-.05c0-.1.44-.59.54-.74.48-.35.89-.71 1.48-.25.07.68-.84 2.01-1.38 2.41-.2.69-.84 1.03-.93 1.77-.37.03-.53.51-.49.79-.1.1-.2.2-.3.34 0 .59-1.08 1.57-.98 2.41-.29.2-.2.64-.49.84.07.38-.1.6-.3.89-.32.57-.2 1.45-.64 1.97v.2l-.2.15c-.01.16.06.32-.1.44-.01.1.01.3.05.39-.1.15-.2.39-.34.54-.07 1.94-.12 4.24 2.56 3.89.61.04 1.61-.91 2.16-.44.15-.05.2-.2.29-.3.44-.05.69-.39 1.13-.49l.1-.2h.25c-.05-.1.1-.3.2-.1.25-.15.29-.39.44-.49h.29c.15-.1.29-.15.29-.34.15 0 .3 0 .44-.05.25-.44.79-.49.98-.93.8-.21 1.5-1.09 2.11-1.62.12.04.33-.21.39 0 .2-.1.25-.34.49-.39 0-.15.05-.25.15-.44.29-.05 1.13-.98 1.28-1.23.44-.15.64-.84 1.18-1.03-.05-.2.1-.34.2-.49.34-.1.49-.39.74-.54.49-1.03 2.41-2.41 2.85-3.39.18-.22.46-.62.69-.84zm-7.96-11.5c-.39 0-.69-.15-1.03-.1-.62-.34-1.08-1.55-.2-1.82l.05-.15h.15c.48-.54 1.07-.76 1.82-.69 1.4.53.09 2.56-.79 2.75z" fill="#fff"/><path d="M297.14 24.09c.3.71-.76 1.11-.84 1.92-.29.25-.49.44-.69.79-.44.1-.59.44-1.03.64-.1.49-.59.64-.74 1.08-.34.1-.54.34-.79.54h-.3c-.1.2-.39.39-.49.74-1.06 1.15-2.39 2.19-3.39 3.39-.25.2-.79.3-.79.69-1.82.3-.75 1.11-1.82 1.23-.81.94-2.6 1.35-3.54 1.82-.49-.06-.76.14-1.08.44-.62-.06-1.17.14-1.72.44-.23-.26-.61-.13-.84.05-.44-.05-.79-.25-1.18-.25-.34-.34-.39-.44-.93-.44.05-.15-.25-.29-.29-.44-.05-.34-.05-.39-.25-.69 0-.54-.3-.64-.25-.98-.2-.05-.2-.3-.34-.39-.07-1.04.16-1.98.15-3 .25-.2.15-.64.44-.84-.18-.36.5-2.04.74-2.21 0-.34.15-.59.25-.89l.1-.05.05-.3c.29-.3.39-.74.69-.98.11-.82 1.06-1.39 1.33-2.26l.15-.05c2.1-4 .67-3.14-2.41-1.67l-.1.25c-.34 0-.84.39-.93.69-.25.1-.84.54-.98.49l-.2.3c-1.07.58-2.09 1.26-2.8 2.26-.2-.16-.34.15-.49.15-.24.29-.49.53-.84.64l-.05.1-.3.15c-.15 0 0 .29-.15.34-.39.25-.54.74-.98.93-.09.53-.59.81-.69 1.38-.44.3-.93.64-1.33 1.03 0 .05-.34.79-.39.89h-.1c-.1.2-.39.54-.54.74v.1l-.25.05c.04.21-.17.32-.2.49l-.15.1c-.05.15 0 .39-.1.54l-.15.05c-.1.25-.25.44-.49.59 0 .54-.49.79-.54 1.33-.39.34-.69.74-.89 1.23-.2.15-.34.3-.34.59-.24.04-.3.43-.54.54-.18.69-1.22 1.09-1.38.2-.02-.68.68-.84.69-1.52.15-.05 1.03-1.77 1.03-2.02.25-.15.29-.54.39-.79.15-.05.49-.89.49-1.08.1.05.15-.15.15-.25h.15c.06-.45.47-.86.34-1.38.46-.63.85-1.55 1.03-2.26.27-.51.58-.97.79-1.52l.1-.05c.2-.34.49-.98.44-1.38.29-.3.34-1.43.64-1.67.05-.84.72-2.35-.25-2.7-.13.1-.17 0-.25.15-.44.2-.29.39-.88.59 0 .25-.2.3-.34.49-.12 0-.27.06-.39.05-.56.34-.6.42-.88.79 0 .1-.05.2-.15.15l-.15.15c-.15.05-.05.2-.25.2.05.2-.39.39-.54.49-.42.07-.7.13-.69-.2 0-.2 0-.25.2-.29 0-.17.24-.28.2-.49.1-.1.2-.15.29-.15l.2-.39c.4-.35.75-.93 1.28-1.13.38-.44.77-.92 1.28-.98.59-.74.93-.59 1.28-.84.29 0 .49-.15.74-.3.27.05.42.05.74.15.79.65.72 1.43.54 2.36.05.12.06.36.05.49-.19.64.02 1.42-.39 1.97.22.44-.62 1.64.05 1.92.25 0 .25-.25.59-.2.2-.15.54-.59.69-.74.05-.15.44-.2.54-.25.2-.15.34-.59.49-.74.29-.34.89-.84 1.18-1.08.35-.14.78-.28.93-.69.79-.25 2.26-1.77 2.8-1.82.37-.63 1.12-.46 1.38-1.08.72.23 1.49-.62 2.36-.59.97.04 1.8.22 2.07 1.23-.1.39.1.93-.25 1.23.18.5-.57 1.59-.54 2.02-.1.15-.15.25-.3.25-.15.59-.29 1.43-.88 1.67-.05.25-.2.49-.34.64 0 .39-.29.64-.39 1.03-.3.15-.3.59-.54.74-.05.39-.25.93-.59 1.18.05.1.05.25.05.39-.2.15-.25.39-.39.59.04.27-.25 1.39-.39 1.48.14.17-.06.28 0 .49-.34.36-.44 1.92-.15 2.36-.13 1.27 1 1.78 2.07 1.67.39-.25.64-.3 1.08-.15.25-.33 1.05-.66 1.33-.69.25-.25 1.08-.49 1.48-.64.39-.43 1.06-.74 1.62-.79l.05-.1c1.1-.8 1.75-1.79 3.05-2.31.1-.3.39-.54.54-.84.34-.1.44-.25.64-.64.15 0 .15-.1.3-.05.25-.15.34-.44.54-.54v-.15c.39-.15.74-.49.89-.84.34-.1.54-.49.93-.64.2-.29 1.48-1.87 1.82-1.72.1-.34.34-.44.39-.74.17.02.28-.14.44-.2 0-.15.1-.3.1-.44.15-.15.25-.34.34-.49h.15v-.1c.55-.52 1.34-2.02 1.72-.74z" fill="#fff"/><path d="M329.55 24.78c-.5.35-.91.61-.98 1.28-.1.05-.1.29-.2.29l-.44.2c0 .34-.25.1-.3.39-.34 0-.34.84-.69.89-.29.54-.34.84-.84 1.13-.1.3-.44.54-.64.84-.2.05-.25.2-.44.2-.34.54-.93.54-1.23 1.28l-.2-.05-.15.34c-.34 0-1.18.84-1.28 1.18-.59.2-.84.84-1.28 1.23-.59.1-.93.39-1.23.89-.25 0-.54.1-.69.39-.27.05-.69.16-.74.49-.59.2-.69.49-1.08.98-.16-.02-.28.1-.44.05-.2.2-1.23.64-1.52.54-.39.39-1.28.49-1.82.69-.25-.1-.59-.05-.79-.25-.31.06-.59-.11-.89-.2l-.25-.34c-.15 0-.29-.1-.49-.05 0-.05-1.13-1.18-1.13-1.18l-.1-.05-.05-.25c-.35-.26-.49-.77-.69-1.13l-.15-.05c-.44-.89-.49-.44-.54-1.48l-.1-.15c.06-1.46.3-3.05.74-4.43-.15-.1-.1-.34-.15-.49.23-.5.52-.97.2-1.48-.34.15-.54.49-.64.84-.25.1-.15.39-.54.49-.04.42-.53.58-.59.98-.2.17-.48.28-.49.59-.49.1-1.43 1.23-1.57 1.23.02.13-.05.22 0 .34-.25.1-.39.29-.44.49-.2.1-.44.2-.54.39-.29 0-.44.2-.69.3v.44c-.34.25-.54.69-.84.98l-.29-.05c-.48.25-.56 1.03-1.13 1.08l-.1.15c-.89-.03-.95 1.34-1.87 1.23-.34.34-.84.44-1.13.79-.14-.02-.23.03-.39.05-.11.32-.61.13-.74.44-.35-.11-.78-.01-1.03.25-.29-.02-.76.09-.93-.25-.34 0-1.43-.34-1.52-.3-.29-.39-.54-.84-.89-1.18 0-.15-.15-.34-.05-.49-.86-1.25-.08-3.04.1-4.43l.1-.1c0-.11.03-.34.15-.34.06-.14-.02-.3 0-.44l.2-.2-.05-.15c.42-1.19 1.19-2.29 1.52-3.54.39-.2.34-.74.74-.93 0-.2.2-.25.15-.49.49-.3.49-.64.84-1.03.29-.3.69-.3.84-.79.2-.15.49-.15.44-.44.29 0 1.03-.89 1.18-1.18l.29-.05c.62-.43 1.25-1.27 2.16-1.23.44-.15.93-.98 1.57-.69.25-.15.34-.15.64-.05.1-.05.29-.05.39 0 .41-.31.92.04 1.38-.15l.59.25c.7-.08 1.42.21 2.11.25.1.15.29.15.44.25.07 0 .12-.06.2-.05l.1.15c.61.04 1.05.47 1.52.84h.15v.15c.1.05.25.1.34.15.39-.09.62-.4.64-.79.1 0 .69-.98.69-1.18l.25-.15c.03-.14.18-.36.3-.44v-.2c.3-.19.44-.87.74-.93.05-.34 0-.49.34-.69-.17-.14.23-.74.29-.89l.05-.2c.1-.1.15-.25.15-.39.05-.05.1-.15.2-.15 0-.34.54-1.28.84-1.43-.05-.13-.06-.35.05-.44.15-.69 1.33-2.7 1.28-3l.25-.15c0-.49.44-.69.39-1.23.15-.05.15-.2.25-.3-.02-.23.1-.42.05-.64.34-.34.44-.84.84-1.08.05-.2.05-.44.29-.44 0-.44.49-.93.44-1.38.11.07.86-1.27.89-1.48l.15-.05c.15-.44.1-.79.54-1.13.05-.44.25-.79.39-1.23.25 0 .49.1.69.25 0 .58.87 1.36.1 1.62-.05.59-.67.96-.54 1.57-.15.15-.64 1.23-.64 1.38-.15.1-.15.3-.29.39.02.19-.05.36 0 .54-.2 0-.05.3-.34.25 0 .44-.49.69-.54 1.18-.15.05-.25.25-.39.3.09.62-.3 1.12-.44 1.72-.2.1-.25.3-.39.39.03.18-.1.34-.2.49l.05.25c-.25.25-.44.74-.44 1.08-.15.15-.25.44-.34.64l-.1.05c-.12.24-.22.75-.49.84.03.22-.1.38-.05.64-.15.1-.2.25-.39.25-.29.84-.39 1.92-1.03 2.51.05.6-.58.95-.49 1.57-.34.29-.44.74-.39 1.18h-.1c-.28.28-.47.94-.89 1.23-.15.79-.64 1.57-.74 2.31-.39.25-.54.59-.49 1.08-.25.2-.54 1.87-1.03 2.41.03.2-.1.35-.05.59-.3.1-.1.64-.34.79.1.29.05.59-.2.74.04.45-.13.84-.15 1.33-.21.16-.17.3 0 .54-.15.34.05 1.08-.25 1.28.01 1.35.07 2.53 1.03 3.54.2.05.34.15.54.25.05.2.29.25.29.49.2.1.44.15.49.34.32-.12 1.04.13 1.13-.1.47-.18 1.88-.68 2.26-.74.39-.53 1.19-.36 1.28-1.18.3-.25.44-.2.74-.49.39-.05.74-.34.98-.74.29-.05.49-.25.69-.44l.1.05.05-.25h.29c.39-.3.74-.74 1.18-.93.12-.25.34-.34.39-.59.44-.25 1.67-1.57 2.02-1.67 0-.25.25-.3.34-.54.44 0 .49-.44.93-.49.05-.34.2-.44.29-.74.2 0 .29-.2.49-.2-.12-.22.05-.31.1-.54.34-.1.44-.64.84-.64.1-.44.34-.49.59-1.08.44-.1.59-1.03 1.03-1.18.1-.1.1-.25.15-.34.15 0 .2-.15.34-.15 0-.34.34-.34.49-.49.44-.13 1.1.7.44 1.18zm-20.16-3.64c-.05-.15-.15-.2-.2-.34-.29 0-.49-.2-.84-.15-.2-.29-2.07-.49-2.51-.69-.85.21-2.22.12-3.1.34-.2.59-.84.54-1.33.44-.25.34-.44.69-.64 1.03-.25-.06-.37.23-.59.25-.05.15-.05.34-.1.44-.15-.02-.21.07-.2.2l-.2.05c-.15.25-.29.2-.54.25-.1.34-.74.79-.74 1.13-.34.05-.39.49-.74.54-.05.39-.3.69-.3 1.03-.15.05-.25.1-.39.15-.05.44-.44.39-.34 1.03-.51-.06-.37 1.27-.84 1.48l-.25.25c0 .69-.54 1.03-.44 1.72l-.29.15c-.05.44-.2.49-.1.98-.1.1-.34.05-.29.25-.1.3-.15.39-.1.74-.41.28.09 1.07-.44 1.28.05.39-.2.69 0 1.08-.05.1-.15.2-.15.34.69 1.62.05.98 1.72 1.48.34-.29.84-.1 1.23-.25.25-.05.49-.34.74-.3v-.05s.64-.54.69-.54c.11-.1.17.09.3.05-.02-.1.08-.25.15-.25.44-.05.54-.34.89-.49 0-.2.1-.3.15-.44.29-.1.49-.34.84-.39.1-.15.25-.3.39-.34-.02-.12.07-.2.2-.2-.05-.3.15-.25.39-.25.1-.24.33-.37.44-.59l.2-.1v-.1c.49-.25.69-.74 1.03-.93.05-.15.49-.64.69-.54.1-.29.39-.49.64-.64 0-.39.39-.44.59-.74-.01-.13.05-.18 0-.34.16.03.29-.13.34-.25.1-.1.29-.15.29-.34.29-.1.89-.69.93-1.03.2.15.25-.06.25-.2.34-.25.3.1.3-.44 0-.05.29-.2.29-.54.27-.12.67-.62.93-.74-.05-.15.1-.3.1-.44.25 0 .29-.2.44-.29-.06-.34.3-.46.2-.84.15-.05.2-.15.39-.15v-.3l.15-.05c.03-1.34 1.71-1.46-.25-2.41z" fill="#fff"/><path d="M349.96 23.94c.17.43-.22 1.07-.54 1.13-.1.29-.39.39-.39.74-.44.2-.54.74-.98.89-.29.49-.49.98-.93 1.43-.34-.2-.68.44-.79.74-.48-.1-.74.26-.89.64-.15.05-.29.49-.44.49-.1.29-.44.39-.49.69-.29-.09-.32.48-.64.44-.2.2-1.48 1.23-1.62 1.18-.36.73-1.26.61-1.67 1.28-.44.05-.74.49-1.18.54-.42.7-.99.75-1.62 1.08-.1.15-.25.25-.34.39-.08.08-.33-.08-.39.05-.15.05-.1.3-.25.39-.1 0-1.57.59-1.72.69-.66-.08-1.47.35-2.02.69-.17-.16-.46.18-.59 0-.43.12-1.55.55-1.97.15-.28.08-.48.28-.79.15-.65-.01-1.3.48-1.92.1-.6.38-1.16-.02-1.77 0-.25-.25-.64-.25-.84-.54-.14.04-.26-.07-.39-.05-.1-.25-.39-.3-.59-.39l-.05-.15c-.15-.1-.25-.2-.39-.25-.05-.15-.15-.25-.15-.39-.2-.05-.25-.25-.44-.25-.05-.39-.25-.69-.54-.89-.23-.96-.85-3.28.74-3.05.28.59-.14 1.53 0 2.21 0 .64.93 1.92 1.52 2.02.35.48 1 .59 1.38 1.08.12-.12.36.01.49.05.3-.25.74-.05 1.08-.05.3.03.69-.27.98-.15.29-.05.49-.3.84-.3.55-.37 1.09-.81 1.62-1.18.05-.25.2-.39.39-.54 0-.1.79-2.07.79-2.07-.01-.6.1-1.46.1-2.07l.15-.2c-.22-.26-.01-.63-.05-.98l-.05-.05c.09-.42-.04-2.2-.05-2.66.05-.3 0-.34 0-.69s.2-.25.1-.74c-.1-.29 0-.54 0-.84.11-.66 0-1.85.05-2.56-.54.18-1.52 1.19-2.07 1.57-.42.44-.44.67-.84.93-1.44.08-.08-1.56.49-1.72.28-.08.86-.76 1.03-.89.34-.45 1.1-1.35 1.52-1.72.15-.3.1-.2.44-.34.05-.2.05-.39.1-.59l.15-.05c-.03-.22.13-.46.1-.69l.1-.05v-.1l.15-.1c.05-.15.15-.34.3-.39.25-1.18.98-1.33 1.23-1.92.05 0 .64-.25.69-.34.43-.06.78-.36 1.23-.2.15.15-.1.49.05.59-.25.1-.34.44-.3.69-.29.3-.49.69-.49 1.08-.25.25-.34.54-.54.79v.15h-.15c-.17.58-.88 1.31-.69 2.11-.17.18-.1.44-.29.64 0 .34-.25 2.41-.39 2.7-.08.71.28 1.29-.05 1.97.37.73 0 1.93.25 2.7-.1 0-.05.25-.15.25 0 .59.11 1.14 0 1.72l-.25.29c.1.93-.29 1.97-.29 2.8-.25.15-.34.44-.49.69 0 .2-.25.1-.34.25.02.08-.05.36-.15.44v.15c-.29.3-1.52 1.03-1.57 1.23.05.1.1.2.2.2l.2-.2c.19.13.44-.04.54-.15.18.05 1.09-.31 1.23-.39.16.02.34-.11.44 0 .1-.2.39-.2.49-.44.59-.26 2.19-.68 2.66-1.38.39.05.49-.3.79-.34l.15-.25c1.1-.55 2.41-1.47 3.44-2.26.15 0 .05-.25.15-.25.51-.18 1.06-.63 1.38-.98.66-.35 1.26-.99 1.62-1.67.15 0 .25-.15.39-.1.2-.15.89-.93 1.08-.89.1-.2.15-.44.39-.44.1-.15.1-.3.2-.44.34-.15.34-.59.74-.74l.05-.25c.32-.18.54-.96.93-1.03.05-.1.1-.25.2-.34.15-.1 0-.34.15-.49 0-.1.28-.25.34-.29.22-.34.62.02.74.25z" fill="#fff"/></svg>