<svg xmlns="http://www.w3.org/2000/svg" width="200" height="157" viewBox="0 0 200 157"><path fill="#fff" d="M31.95 13.15l15.12 65.91-8 7.34 27.85-5.37-12.58-28.22 22.32 21.32v5.51l13.83-22.8-9.47 4.61-16.46-12.54L81.18 22.9l9.75-3.17-24.92-8.3 2.42 6.87-15.45 26.11-7.07-36.17L49.69 0 24.38 7.75l7.53 5.2.04.2z"/><path fill="#fff" d="M87.8 56.95l5.53-2.69-4.54 7.49 3.53 13.83 26.59-2.91V60.44l-20.49 4.48-1.73-8.27 7.38-1.7-.47-7.73-9.01 2.38-1.81-9.73 10.03-.9-3.14-11.6-17.5 6.26 5.63 23.32zM167.01 117.37L152.23 107l10.31-26.25-8.02-3.84-9.32 25.45-1.56-27.02-10.53 1.3.13 3.04 6.46 2.93-4.32 17.81 4.59 40.43 11.1-4.75-4.04-23.88 16.02 12.95 3.96-7.8zM99.12 103v-.07l-5.46-20.4L78.69 86l-3.18 37.8 8.77 8.34-4.9 5.27 7.62-.69-2.11-24.6 8.3-.16L94 144l17.75-6.88-3.84-1.17zm-14 2.16l2.58-14.57 5.16 16.47z"/><path fill="#fff" d="M138.44 83.22l-10.91-4.94-5.51 30.35-5.77-34.58-6.84.75-9.18 28.14 5.06 18.97 6.68-26.69 5.33 30.94h10.73l6.25-25.8-.06-.58.21-.02 4.01-16.54zM62.88 113.26l.53-.38c4.16-3 4.36-8.75 3.16-13.15-1.24-4.55-7.09-10.3-18.16-7.53a104 104 0 0 0-10.18 3.33 23.58 23.58 0 0 1 1.32 6 15 15 0 0 1-2.32 9.15l6.7 30.3 11.28-2-4.61-20.22 4.91-2.09 17 26.51 10.25-11zm-13.65-1.76l-.5.07-2.34-11 .4-.17c.14-.07 3.5-1.55 5.84-.18a4.55 4.55 0 0 1 2 3.79 6.58 6.58 0 0 1-5.4 7.49z"/><path d="M24.25 120.79c.15-.07 15.25-7.71 14.22-19.13-.95-10.4-7.68-16.45-18.46-16.6h-.22c-8.46 0-18.06 6.76-19.79 8l13.37 61.56L35 148.46 23.8 121zm-4.87-12.09l-.45.13-5-11.22.38-.25c.11-.08 2.88-1.89 5.58-1.12a5.49 5.49 0 0 1 3.42 3.3 6.72 6.72 0 0 1 .3 5.69 7.18 7.18 0 0 1-4.23 3.47zM154.76 65L131 42l1-.19a13.6 13.6 0 0 0 8.94-7.37c2.1-4.52 2.05-9.94-.14-13.82s-6.08-6-11.46-6.63a41.68 41.68 0 0 0-16.22 1.36 30.52 30.52 0 0 0-5.34 2.11l5.3 4.46v.24l1.22 38.21 5.7-1.25v6.83l6.86-.91-1.29-19.92 20.9 27.13zm-30.65-31.93h-.54V22.65l.38-.12c.15 0 3.54-1 5.63.51a4.2 4.2 0 0 1 1.54 3.62c-.01 6.34-6.93 6.41-7.01 6.41z" fill="#fff"/><path d="M163.17 43.54V31l-18.26 2.1.66 13.3zM196.89 81.19c-4-9.27-15.7-12-18.81-12.52l.67 3-4 2.12-2.86 51.7c2.47.09 13.11 0 19.82-8.11 11.95-14.38 8.37-28.82 5.18-36.19zm-4.23 12.47c-.56 8.08-8.87 11.46-9.22 11.6l-.78.31 1.28-25.25.62.13c.09.02 8.88 2.03 8.1 13.21z" fill="#fff"/><path fill="#fff" d="M163.91 61.38l10.23-5.18 3.37 14.87-8.13 4.33-5.47-14.02z"/></svg>