<svg xmlns="http://www.w3.org/2000/svg" width="300" height="33" viewBox="0 0 300 33"><path d="M12.75,1h.6c3.3,0,5.76.63,7.38,1.91A5.7,5.7,0,0,1,22.1,4.49a4.43,4.43,0,0,1,.67,1.8A3.2,3.2,0,0,0,23.5,8a6.33,6.33,0,0,0,.74.66l-.38.2a9,9,0,0,0-1.42,3.2,4.22,4.22,0,0,1-1,1.49,8.58,8.58,0,0,1-2.73,1.85,1.63,1.63,0,0,0-.49.22,9.06,9.06,0,0,1,2.13,1.11,6.18,6.18,0,0,1,1.76,1.93,17.41,17.41,0,0,1,1,2.78A5.31,5.31,0,0,0,24,23a1.68,1.68,0,0,0,.66.49v0a1.78,1.78,0,0,0-1,.91,7,7,0,0,0-.56,1.74,8.57,8.57,0,0,1-.53,2,6.59,6.59,0,0,1-3.33,3.31,15.39,15.39,0,0,1-6.13,1h-.54a7.83,7.83,0,0,1-4.91-1.44l-.53-.58A3,3,0,0,1,4.42,32H4.13A6.17,6.17,0,0,1,.4,30.7c-.27-.23-.4-.4-.4-.49v-.4s0,0,.07,0c1.89,0,3-.3,3.44-.89A3.93,3.93,0,0,0,4,26.77l0-3.58c0-3.94-.64-6.31-1.91-7.13a3,3,0,0,0-.83-.33v-.05a2.46,2.46,0,0,0,1.4-.75Q4,13.49,4,9.26a24,24,0,0,0-.14-3.82,1.82,1.82,0,0,0-.62-1.11A6,6,0,0,0,0,3.75l0,0V3.42c0-.24.4-.64,1.07-1.2a4.17,4.17,0,0,1,2.55-.86Q6.2,1.36,7.13,3A4.22,4.22,0,0,1,8.38,1.91,8.69,8.69,0,0,1,12.75,1ZM10.44,6.58v7.68h0c2.48,0,4-.15,4.45-.46a2.37,2.37,0,0,0,1.11-1,5.76,5.76,0,0,0,.42-2.46V7.53c0-1.84-.29-2.94-.87-3.31a4.09,4.09,0,0,0-2.17-.47c-1.34,0-2.2.32-2.6,1A4.06,4.06,0,0,0,10.44,6.58Zm0,10.81V26.9a2.59,2.59,0,0,0,1.2,2.54,4.14,4.14,0,0,0,1.71.33c1.36,0,2.22-.33,2.56-1a10.77,10.77,0,0,0,.49-4.11V23c0-2.24-.22-3.64-.65-4.2a2.29,2.29,0,0,0-.71-.71q-.79-.72-3.93-.72Z" fill="#fff"/><path d="M27.7.67H28a3.71,3.71,0,0,1,3.16,1.55,3.52,3.52,0,0,1,1.58-1.13A5.26,5.26,0,0,1,34.86.67H35a3.94,3.94,0,0,1,3.4,1.51,1.65,1.65,0,0,1,.27.64V3s0,0,0,0h-.24c-1.81,0-2.92.27-3.33.8a4.35,4.35,0,0,0-.51,2.6c0,1,0,2.37,0,4.13,0,2.11.25,3.43.76,4a2.65,2.65,0,0,0,1.28.87v0l-.71.38a3,3,0,0,0-1,1.77,16.84,16.84,0,0,0-.31,3.85c0,2.09,0,3.81,0,5.17,0,1.56.25,2.49.75,2.8a5.17,5.17,0,0,0,3.09.63h.22s0,0,0,.06v.27A2.2,2.2,0,0,1,38,31.52a4.63,4.63,0,0,1-3,1,4.83,4.83,0,0,1-3.56-1.42c-.16-.16-.24-.26-.24-.29h0A3.44,3.44,0,0,1,29,32.3a4.46,4.46,0,0,1-1.34.22h-.42a4.08,4.08,0,0,1-3.09-1.26,1.89,1.89,0,0,1-.37-.94V30.1s0-.05.06-.06h.27c1.79,0,2.88-.32,3.26-.94a3.09,3.09,0,0,0,.47-1.62c0-1.58,0-2.85,0-3.8V22q0-4.53-.77-5.6a2.31,2.31,0,0,0-1.27-1v0a2.39,2.39,0,0,0,1.35-1c.46-.67.69-2.17.69-4.51V8.75c0-.8,0-1.86,0-3.2-.09-1.17-.44-1.87-1.07-2.11A7,7,0,0,0,24.08,3h-.22s0,0,0,0V2.84c0-.26.24-.63.73-1.09A5.09,5.09,0,0,1,27.7.67Z" fill="#fff"/><path d="M53.07.76h.58a6.92,6.92,0,0,1,4.71,2h0a2.54,2.54,0,0,1,1.11-1.42A4.32,4.32,0,0,1,61.32.76s0,.05.13.08v0a3,3,0,0,0-.53,2.06,10.79,10.79,0,0,0,.57,3.33,5.69,5.69,0,0,1,.14,1.14,4.81,4.81,0,0,1-1.56,3.66,2.93,2.93,0,0,1-2,.78c-.31-.07-.47-.21-.47-.42v-.07a10.21,10.21,0,0,1,.85-2.06,5.09,5.09,0,0,0,.35-1.67,4.57,4.57,0,0,0-1.24-3,6,6,0,0,0-3.69-1Q50.79,3.6,50,5.2a6.13,6.13,0,0,0-.54,3c0,.41,0,1.11,0,2.08q0,5.07,2.09,6.27a1.84,1.84,0,0,0,.38.18v0a2,2,0,0,0-1.2.58A5.06,5.06,0,0,0,49.63,20a24,24,0,0,0-.2,3.2c0,.16,0,.3,0,.42a17.8,17.8,0,0,0,.14,3.6A3.84,3.84,0,0,0,50.27,29a3.15,3.15,0,0,0,2.67,1.18h.11a.71.71,0,0,1,.2,0,5.18,5.18,0,0,0,1.22-.33A3,3,0,0,0,56,28a5.07,5.07,0,0,0,.18-1.55v-6c0-1.64-.32-2.61-1-2.91a2.34,2.34,0,0,0-1-.31v-.13c0-.58.43-1.11,1.29-1.6a3.49,3.49,0,0,1,1.38-.29,3.69,3.69,0,0,1,2.6,1.15h0a3.88,3.88,0,0,1,2.6-1.06A2.79,2.79,0,0,1,64.65,17v.23a4.62,4.62,0,0,1-.56.15c-.92.37-1.38,1.28-1.38,2.71v9.49c0,1.27.24,2.09.72,2.44-.12.17-.23.25-.32.25H63a3.37,3.37,0,0,1-2.86-1.56,1.33,1.33,0,0,1-.18-.42,7.5,7.5,0,0,1-1.74,1.49,8.11,8.11,0,0,1-2,.86,12.1,12.1,0,0,1-2.54.36h-.8a11,11,0,0,1-3.26-.62,12.86,12.86,0,0,1-2-1.07,14.8,14.8,0,0,1-1.73-1.51,14.18,14.18,0,0,1-2.87-5.38,24.19,24.19,0,0,1-.71-4,5,5,0,0,0-1-2.4,3.47,3.47,0,0,0-2-1.11v0L40.52,16a7.14,7.14,0,0,0,1.18-1.22,4.23,4.23,0,0,0,.8-2A11.33,11.33,0,0,1,42.9,10a16.24,16.24,0,0,1,1-2.8,13.25,13.25,0,0,1,2.49-3.64A9.49,9.49,0,0,1,53.07.76Z" fill="#fff"/><path d="M88.68,1h.6c3.31,0,5.77.63,7.38,1.91A6,6,0,0,1,98,4.49a4.59,4.59,0,0,1,.66,1.8A3.23,3.23,0,0,0,99.44,8a5.46,5.46,0,0,0,.73.66l-.38.2a9,9,0,0,0-1.42,3.2,4.09,4.09,0,0,1-1,1.49,8.58,8.58,0,0,1-2.73,1.85,1.79,1.79,0,0,0-.49.22,9.06,9.06,0,0,1,2.13,1.11,6.18,6.18,0,0,1,1.76,1.93,17.41,17.41,0,0,1,1,2.78A5.31,5.31,0,0,0,100,23a1.7,1.7,0,0,0,.67.49v0a1.79,1.79,0,0,0-1,.91A7,7,0,0,0,99,26.13a9,9,0,0,1-.54,2,6.51,6.51,0,0,1-3.33,3.31,15.39,15.39,0,0,1-6.13,1h-.53a7.81,7.81,0,0,1-4.91-1.44l-.54-.58A3,3,0,0,1,80.35,32h-.28a6.2,6.2,0,0,1-3.74-1.33c-.26-.23-.4-.4-.4-.49v-.4s0,0,.07,0c1.9,0,3-.3,3.44-.89a3.92,3.92,0,0,0,.45-2.11l0-3.58c0-3.94-.64-6.31-1.91-7.13a2.87,2.87,0,0,0-.82-.33v-.05a2.52,2.52,0,0,0,1.4-.75q1.33-1.44,1.33-5.67a26.91,26.91,0,0,0-.13-3.82,1.87,1.87,0,0,0-.63-1.11A6,6,0,0,0,76,3.75l0,0V3.42c0-.24.4-.64,1.07-1.2a4.19,4.19,0,0,1,2.55-.86q2.58,0,3.51,1.62a4.35,4.35,0,0,1,1.25-1.07A8.71,8.71,0,0,1,88.68,1ZM86.37,6.58v7.68h0c2.47,0,3.95-.15,4.44-.46a2.37,2.37,0,0,0,1.11-1,5.76,5.76,0,0,0,.42-2.46V7.53c0-1.84-.29-2.94-.86-3.31a4.13,4.13,0,0,0-2.18-.47c-1.33,0-2.2.32-2.6,1A4.06,4.06,0,0,0,86.37,6.58Zm0,10.81V26.9a2.59,2.59,0,0,0,1.2,2.54,4.14,4.14,0,0,0,1.71.33c1.37,0,2.22-.33,2.56-1a10.77,10.77,0,0,0,.49-4.11V23c0-2.24-.22-3.64-.65-4.2a2.19,2.19,0,0,0-.71-.71q-.8-.72-3.93-.72Z" fill="#fff"/><path d="M103.64.67H104a3.69,3.69,0,0,1,3.15,1.55,3.52,3.52,0,0,1,1.58-1.13,5.26,5.26,0,0,1,2.11-.42h.13a3.93,3.93,0,0,1,3.4,1.51,1.65,1.65,0,0,1,.27.64V3s0,0,0,0h-.25c-1.81,0-2.92.27-3.33.8a4.35,4.35,0,0,0-.51,2.6c0,1,0,2.37,0,4.13,0,2.11.26,3.43.76,4a2.63,2.63,0,0,0,1.29.87v0l-.71.38a2.94,2.94,0,0,0-1,1.77,17.45,17.45,0,0,0-.31,3.85c0,2.09,0,3.81,0,5.17,0,1.56.25,2.49.75,2.8a5.22,5.22,0,0,0,3.09.63h.22s0,0,0,.06v.27a2.2,2.2,0,0,1-.69,1.15,4.61,4.61,0,0,1-3,1,4.79,4.79,0,0,1-3.55-1.42c-.17-.16-.25-.26-.25-.29h0A3.44,3.44,0,0,1,105,32.3a4.45,4.45,0,0,1-1.33.22h-.43a4.06,4.06,0,0,1-3.08-1.26,1.83,1.83,0,0,1-.38-.94V30.1s0-.05.06-.06h.27c1.79,0,2.88-.32,3.27-.94a3.17,3.17,0,0,0,.46-1.62c0-1.58,0-2.85,0-3.8V22q0-4.53-.78-5.6a2.27,2.27,0,0,0-1.27-1v0a2.41,2.41,0,0,0,1.36-1c.46-.67.69-2.17.69-4.51V8.75c0-.8,0-1.86,0-3.2-.09-1.17-.44-1.87-1.06-2.11A7.08,7.08,0,0,0,100,3h-.22s0,0,0,0V2.84c0-.26.24-.63.73-1.09A5.1,5.1,0,0,1,103.64.67Z" fill="#fff"/><path d="M119.25.87h.31a4.14,4.14,0,0,1,2.47.86,3.2,3.2,0,0,1,.56.74A4,4,0,0,1,126,.89a5.23,5.23,0,0,1,3.13,1A3.29,3.29,0,0,1,130,3a1,1,0,0,1,0,.17V3.2s0,0,0,0h0c-1.9,0-3.06.26-3.49.76A2.09,2.09,0,0,0,126,5.22c-.06,0-.1,1.8-.11,5.4a7.29,7.29,0,0,0,.64,3.71,6,6,0,0,0,1.4,1.42v0a2.2,2.2,0,0,0-1.15.65,3.39,3.39,0,0,0-.76,1.82,18.41,18.41,0,0,0-.11,2.51v5c0,2.23.27,3.47.82,3.71a2.64,2.64,0,0,0,1.8.6.1.1,0,0,1,0,.06l.76,0h0q3.73,0,5-2.31a4.92,4.92,0,0,0,.48-2.11v-.09a0,0,0,0,1,0,0l0,0v-.29a11.39,11.39,0,0,0-.64-3.31c0-.27.16-.42.49-.47a6.6,6.6,0,0,1,2.49,3.16,13.09,13.09,0,0,1,.37,3.8A4.65,4.65,0,0,0,138.85,31c.19.2.49.5.91.88-.09.11-.39.16-.89.16a2.42,2.42,0,0,1-.47,0h-.31A4.23,4.23,0,0,1,135.34,31l-.31-.25h0a16,16,0,0,1-2.37,1.38,9.52,9.52,0,0,1-4,.8h-.56a8.88,8.88,0,0,1-4.22-.95c-.16-.12-.49-.4-1-.83a3,3,0,0,0-.28-.31A3.09,3.09,0,0,1,121,32.17a5.57,5.57,0,0,1-1.67.26h-.53a4,4,0,0,1-3.51-2.08.29.29,0,0,1,0-.09V30.1s0,0,0,0c1.9,0,3-.28,3.47-.82a3.22,3.22,0,0,0,.51-1.83q0-8.22-.38-8.9a3.77,3.77,0,0,0-.78-1.67,2.94,2.94,0,0,0-1.39-.82,2.67,2.67,0,0,0-.43-.11v-.05a4.27,4.27,0,0,0,1.71-.95,4.07,4.07,0,0,0,1-2.14,27,27,0,0,0,.27-4.66v-2c0-1.27-.33-2.06-.93-2.37a7.17,7.17,0,0,0-3-.45s0,0,0,0V3.09a3.89,3.89,0,0,1,2.11-1.85A5,5,0,0,1,119.25.87Z" fill="#fff"/><path d="M143.69.87H144a4.16,4.16,0,0,1,2.47.86,3.07,3.07,0,0,1,.55.74A4,4,0,0,1,150.4.89a5.25,5.25,0,0,1,3.13,1A3.12,3.12,0,0,1,154.44,3l.05.17V3.2s0,0,0,0h0c-1.89,0-3.06.26-3.48.76a2.09,2.09,0,0,0-.49,1.22c-.06,0-.1,1.8-.11,5.4a7.29,7.29,0,0,0,.64,3.71,5.85,5.85,0,0,0,1.4,1.42v0a2.23,2.23,0,0,0-1.16.65,3.47,3.47,0,0,0-.75,1.82,16.84,16.84,0,0,0-.11,2.51v5c0,2.23.27,3.47.82,3.71a2.64,2.64,0,0,0,1.8.6.39.39,0,0,1,0,.06l.76,0h0q3.73,0,4.95-2.31a4.79,4.79,0,0,0,.49-2.11v-.09s0,0,0,0l0,0v-.29A11.39,11.39,0,0,0,158.6,22c0-.27.16-.42.49-.47a6.52,6.52,0,0,1,2.48,3.16,12.65,12.65,0,0,1,.38,3.8A4.65,4.65,0,0,0,163.29,31c.19.2.49.5.91.88-.09.11-.39.16-.89.16a2.42,2.42,0,0,1-.47,0h-.31A4.26,4.26,0,0,1,159.77,31l-.31-.25h0a16,16,0,0,1-2.38,1.38,9.44,9.44,0,0,1-4,.8h-.56a8.85,8.85,0,0,1-4.22-.95c-.16-.12-.49-.4-1-.83a2.42,2.42,0,0,0-.29-.31,3.11,3.11,0,0,1-1.55,1.36,5.62,5.62,0,0,1-1.67.26h-.53a4,4,0,0,1-3.51-2.08.15.15,0,0,1,0-.09V30.1s0,0,0,0c1.9,0,3.05-.28,3.47-.82a3.22,3.22,0,0,0,.51-1.83q0-8.22-.38-8.9a3.77,3.77,0,0,0-.78-1.67,3,3,0,0,0-1.4-.82,2.44,2.44,0,0,0-.42-.11v-.05a4.4,4.4,0,0,0,1.71-.95,4.07,4.07,0,0,0,1-2.14,27,27,0,0,0,.27-4.66v-2c0-1.27-.33-2.06-.94-2.37a7.09,7.09,0,0,0-3-.45s0,0,0,0V3.09a3.89,3.89,0,0,1,2.11-1.85A5,5,0,0,1,143.69.87Z" fill="#fff"/><path d="M188.5.31h.69a11.46,11.46,0,0,1,6,1.53,9.86,9.86,0,0,1,4.07,5.29,17.6,17.6,0,0,1,.84,3.31,20.65,20.65,0,0,0,.54,3,4.5,4.5,0,0,0,1.64,2.49,2.2,2.2,0,0,0,.65.31v.07a3.44,3.44,0,0,0-1.72,1.57,8,8,0,0,0-.84,2.65c-.09.49-.24,1.56-.47,3.22a18.23,18.23,0,0,1-.8,2.8,9,9,0,0,1-4.48,5,13.49,13.49,0,0,1-5.69,1.16h-.69q-3.75,0-5.4-2.07a3.57,3.57,0,0,1-3.35,1.64A5.29,5.29,0,0,1,176,31.15a1.49,1.49,0,0,1-.58-1.14c0-.06,0-.09.07-.09,1.88,0,3.05-.31,3.53-.93a4.16,4.16,0,0,0,.49-2.24q0-.63.06-3.42,0-4.71-1.51-6.36a3.38,3.38,0,0,0-1.2-.93c-.22-.09-.33-.14-.33-.16v0q3-1.44,3-6.66c0-3-.07-4.47-.2-4.47a1.69,1.69,0,0,0-.65-1,3.42,3.42,0,0,0-1.44-.42,10.12,10.12,0,0,0-1.8-.13l0-.05V3A4.29,4.29,0,0,1,177.1,1.2a4.32,4.32,0,0,1,2-.49h.2a3.83,3.83,0,0,1,3.55,1.69C184,1,185.83.31,188.5.31Zm-2.29,5.84V8.4q0,5.37,1.56,6.51a1.14,1.14,0,0,0,.31.13v0a5,5,0,0,0-1.14,2.11,14.45,14.45,0,0,0-.51,2.87,64.61,64.61,0,0,0-.22,6.62V27c0,1.38.35,2.25,1,2.62a4.1,4.1,0,0,0,1.75.31c2.13,0,3.41-1.31,3.84-4a13.35,13.35,0,0,0,.18-2.4V9.24c0-4-1.29-6.06-3.89-6.06q-2,0-2.55,1A4.31,4.31,0,0,0,186.21,6.15Z" fill="#fff"/><path d="M215.76,0h.71a8.89,8.89,0,0,1,4.33,1.2,11,11,0,0,1,1.91,1.49,12.68,12.68,0,0,1,2,2.73,19,19,0,0,1,1.36,3.2,32.22,32.22,0,0,1,.84,4.13,7.94,7.94,0,0,0,.65,1.85,3,3,0,0,0,1.49,1.28v0a2.15,2.15,0,0,0-1,.73,4.83,4.83,0,0,0-1,2.18c-.15.64-.34,1.95-.58,3.93a21,21,0,0,1-1,3.33,13.38,13.38,0,0,1-2.62,4.09A10.33,10.33,0,0,1,220.4,32a8.85,8.85,0,0,1-3.93,1h-.71a8.82,8.82,0,0,1-4.27-1.16,9.83,9.83,0,0,1-1.84-1.44,10.33,10.33,0,0,1-1.58-1.93,15.47,15.47,0,0,1-1.82-3.89,30.5,30.5,0,0,1-.93-4.35,13.43,13.43,0,0,0-.94-2.91,5.2,5.2,0,0,0-1.08-1.47,2.2,2.2,0,0,1-.34-.27,5.82,5.82,0,0,0,2.33-2.91c.14-.46.33-1.41.58-2.86A21,21,0,0,1,207.25,6a16.63,16.63,0,0,1,1.6-2.54,10.66,10.66,0,0,1,2-1.84,8,8,0,0,1,1.64-.93A9,9,0,0,1,215.76,0Zm-3.31,10.86c0,2.45.49,3.94,1.49,4.49l.17.13a4.3,4.3,0,0,0-1,1.43,12.09,12.09,0,0,0-.66,4.57,37.35,37.35,0,0,0,.2,5.22,5.74,5.74,0,0,0,.4,1.54c.47,1.05,1.5,1.57,3.09,1.57s2.62-.56,3.08-1.69a13,13,0,0,0,.51-4.57q0-1.62,0-2.49c0-3-.44-4.83-1.31-5.49l-.18-.09v0a6.08,6.08,0,0,0,1.55-4.15V11c-.07-2.65-.14-4.19-.22-4.6a5.25,5.25,0,0,0-.53-1.89,3.16,3.16,0,0,0-3-1.33c-1.64,0-2.68.57-3.11,1.71-.35.62-.53,2.37-.53,5.26C212.46,10.33,212.45,10.57,212.45,10.86Z" fill="#fff"/><path d="M235,.73h.24a4,4,0,0,1,3.11,1.69,3.65,3.65,0,0,0,.23.38V3a0,0,0,0,1,0,0h-.78c-1.12,0-1.81.23-2.06.71V4a6.68,6.68,0,0,0,.89,2.23q2.44,5,2.62,5.42h0q3.31-6.27,3.67-7a2,2,0,0,0,.2-.73V3.84c0-.35-.25-.59-.76-.71a5.76,5.76,0,0,0-.69,0H241A0,0,0,0,1,241,3c0-1,.64-1.77,1.93-2.17a2.74,2.74,0,0,1,.87-.14h.09A2.84,2.84,0,0,1,246.22,2a2.29,2.29,0,0,1,.8-.78,3.1,3.1,0,0,1,1.37-.33,2.57,2.57,0,0,1,2.27,1.56,1.59,1.59,0,0,1,.18.37V3a0,0,0,0,1-.05,0h-.06a3.76,3.76,0,0,0-3.67,2.15Q243,12.62,243,12.8a2.64,2.64,0,0,0-.15.86,2.77,2.77,0,0,0,.93,2,2.32,2.32,0,0,1-.4.15c-1.21.61-1.82,1.93-1.82,4V27c0,1.26.32,2.06,1,2.42a6.27,6.27,0,0,0,2.66.44h.11c.15,0,.22,0,.22.07v.24a5.7,5.7,0,0,1-1.22,1.31,4.52,4.52,0,0,1-2.64,1h-.29a4.15,4.15,0,0,1-3.15-1.8s0,0,0,0h0a3.75,3.75,0,0,1-3.2,1.84,5.36,5.36,0,0,1-4.13-2.35V30s.07-.07.22-.07h.13c1.81,0,2.91-.32,3.29-.95a4.43,4.43,0,0,0,.45-2.45V20.42c0-2-.3-3.31-.89-3.94a2.21,2.21,0,0,0-1.25-.82s-.06,0-.06,0a1.72,1.72,0,0,0,.75-1.38v-.13A8.23,8.23,0,0,0,232.18,11c-1.23-2.57-2.33-4.66-3.29-6.24A3.72,3.72,0,0,0,227,3.22a6.74,6.74,0,0,0-1.38-.13h-.11s0,0,0,0V2.87a2.68,2.68,0,0,1,1.2-1.31A4.36,4.36,0,0,1,229,.89h.09a4,4,0,0,1,3,1.4A3.63,3.63,0,0,1,235,.73Z" fill="#fff"/><path d="M255,.87h.31a4.11,4.11,0,0,1,2.46.86,3.2,3.2,0,0,1,.56.74A4,4,0,0,1,261.66.89a5.25,5.25,0,0,1,3.13,1A3.24,3.24,0,0,1,265.7,3a1,1,0,0,1,0,.17V3.2s0,0,0,0h0c-1.9,0-3.06.26-3.49.76a2.16,2.16,0,0,0-.49,1.22c-.06,0-.09,1.8-.11,5.4a7.26,7.26,0,0,0,.65,3.71,5.67,5.67,0,0,0,1.4,1.42v0a2.19,2.19,0,0,0-1.16.65,3.39,3.39,0,0,0-.76,1.82,18.41,18.41,0,0,0-.11,2.51v5c0,2.23.28,3.47.83,3.71a2.6,2.6,0,0,0,1.79.6.15.15,0,0,1,0,.06l.75,0h0q3.74,0,5-2.31a4.94,4.94,0,0,0,.49-2.11v-.09s0,0,0,0l0,0v-.29a11.46,11.46,0,0,0-.65-3.31c0-.27.17-.42.49-.47a6.54,6.54,0,0,1,2.49,3.16,13,13,0,0,1,.38,3.8A4.62,4.62,0,0,0,274.54,31c.19.2.5.5.91.88-.09.11-.38.16-.89.16a2.26,2.26,0,0,1-.46,0h-.31A4.26,4.26,0,0,1,271,31l-.31-.25h0a16,16,0,0,1-2.38,1.38,9.49,9.49,0,0,1-4,.8h-.55a8.85,8.85,0,0,1-4.22-.95c-.17-.12-.49-.4-1-.83a3.78,3.78,0,0,0-.29-.31,3.09,3.09,0,0,1-1.56,1.36,5.51,5.51,0,0,1-1.66.26h-.54A4,4,0,0,1,251,30.35a.29.29,0,0,1,0-.09V30.1s0,0,0,0c1.89,0,3.05-.28,3.46-.82a3.22,3.22,0,0,0,.51-1.83q0-8.22-.37-8.9a3.77,3.77,0,0,0-.78-1.67,3,3,0,0,0-1.4-.82,2.44,2.44,0,0,0-.42-.11v-.05a4.4,4.4,0,0,0,1.71-.95,4.23,4.23,0,0,0,1-2.14A28.41,28.41,0,0,0,255,8.11v-2q0-1.9-.93-2.37a7.12,7.12,0,0,0-3-.45s0,0,0,0V3.09a3.93,3.93,0,0,1,2.11-1.85A5,5,0,0,1,255,.87Z" fill="#fff"/><path d="M288.56.22h.58a12.49,12.49,0,0,1,6.55,1.85,3.73,3.73,0,0,1,2.67-1.2c1,.07,1.57.19,1.64.35a4.52,4.52,0,0,0-1.78,3.07c0,.68,0,1.23,0,1.66v.34l0,.11a.18.18,0,0,0,0,.11v.2a4.34,4.34,0,0,1-1.79,3.84,2.27,2.27,0,0,1-1.56.67h0a.78.78,0,0,1-.29-.65,23.4,23.4,0,0,1,.64-2.73,7.25,7.25,0,0,0,.18-1.35,3.54,3.54,0,0,0-2-3.25,7.3,7.3,0,0,0-2.89-.55,6,6,0,0,0-3.33.91A2.29,2.29,0,0,0,286.29,5a7.7,7.7,0,0,0-.15,1.91V14l1.75,0h.76a8.32,8.32,0,0,0,4.84-1.22l0,0A3,3,0,0,1,292,15.68a1.93,1.93,0,0,1,1.06.92,4.23,4.23,0,0,1,.32,1.86v0h0a6.77,6.77,0,0,0-3-1.06,24.55,24.55,0,0,0-3.53-.18l-.6,0v8.22c0,2.09.18,3.33.53,3.71a2.47,2.47,0,0,0,2.27.93h.44a9.19,9.19,0,0,0,3.36-.77,3.11,3.11,0,0,0,1.71-1.65,5.25,5.25,0,0,0,.31-1.86,31.26,31.26,0,0,0-.38-3.31,3.24,3.24,0,0,1,0-.38q0-.69.51-.69a6.74,6.74,0,0,1,2.51,3.13,13.91,13.91,0,0,1,.38,3.87A4.62,4.62,0,0,0,299.11,31c.18.2.48.5.89.88q-.13.18-.87.18a1.8,1.8,0,0,1-.49,0h-.31A4.18,4.18,0,0,1,295.58,31l-.33-.25h0a13.6,13.6,0,0,1-2.4,1.4,9.6,9.6,0,0,1-4,.78h-.56a7,7,0,0,1-5.51-2.09,3.26,3.26,0,0,1-1.58,1.38,6.17,6.17,0,0,1-1.66.24H279a4,4,0,0,1-3.53-2.08.29.29,0,0,1,0-.09V30.1s0,0,.07,0q2.88,0,3.51-.87a3.54,3.54,0,0,0,.46-1.82q0-8.22-.37-8.93a3.8,3.8,0,0,0-.8-1.69,3.72,3.72,0,0,0-1.8-.93v-.05a4.09,4.09,0,0,0,1.35-.64,3.58,3.58,0,0,0,1.27-2.07,26.51,26.51,0,0,0,.35-5.71V5.89a2.58,2.58,0,0,0-.82-2.27,6.92,6.92,0,0,0-3.2-.51l0,0V2.89a4.41,4.41,0,0,1,2.6-2,5.74,5.74,0,0,1,1.44-.22h.14a3.6,3.6,0,0,1,3.15,1.6Q284.38.23,288.56.22Z" fill="#fff"/></svg>