<svg xmlns="http://www.w3.org/2000/svg" width="300" height="164" viewBox="0 0 300 164"><path d="M215.81 135.33c-.31 1.41-1.29 2.17-1.89 5.84-.25 2.07 1.09 3.05 3 2.13a9.43 9.43 0 0 0 2.76-2c2.64-2.79 5.19-5.67 7.74-8.55 1-1.09.68-1.69-.79-2a9 9 0 0 0-7.2 1.79q-4.39 3.1-8.81 6.17a3.28 3.28 0 0 1-3 .73 1.92 1.92 0 0 1-1.62-2.04 4 4 0 0 0-.14-.84 4.76 4.76 0 0 0-2.77 1.94c-1.82 2.41-3.66 4.81-5.57 7.15a1.51 1.51 0 0 1-1.42.24c-.64-.37-.54-1.07-.08-1.63 1.56-1.88 3.16-3.72 4.7-5.61 1.26-1.54 2.5-3.11 3.69-4.71a3.26 3.26 0 0 0 .33-1.16 3.84 3.84 0 0 0-1.2.29c-.83.54-1.63 1.14-2.41 1.76-3.46 2.72-6.87 5.49-10.37 8.15a12.29 12.29 0 0 1-3.13 1.64 4.17 4.17 0 0 0-2.23 2.14 68.61 68.61 0 0 1-5 8.59 22.68 22.68 0 0 1-11.12 7.74 4.06 4.06 0 0 1-4.89-1.32c-1.1-1.69-1.15-4.42.23-5.81a45 45 0 0 1 5.47-4.65 23.89 23.89 0 0 1 4.71-2.69c2.54-1.07 5.17-2 7.78-2.84a3.38 3.38 0 0 0 2.23-3.35c-.55.34-1 .63-1.51.95a7.39 7.39 0 0 1-4.93 1.33c-1.69-.16-2.31-.78-2.28-2.46v-1.17l-1.21.78a66.11 66.11 0 0 1-6.16 3.87c-2.68 1.33-4.75-.26-4.53-3.24.05-.57.14-1.13.24-2-3.38 1.84-6.31 4-9.83 4.88 4.31-1.57 7.31-4.86 10.38-8a46.91 46.91 0 0 0 3.39-4.76 43.67 43.67 0 0 1 2.86-3.38 1.79 1.79 0 0 1 1.14-.57 1.7 1.7 0 0 1 1.22.52c.16.22 0 .87-.24 1.17-1.41 1.9-3 3.65-4.27 5.66a38 38 0 0 0-2.79 6.12 2.17 2.17 0 0 0 .32 1.91c.3.31 1.3.24 1.83 0 3.21-1.54 6.25-3.31 8.36-6.34a19.11 19.11 0 0 1 8.08-7.05 7.78 7.78 0 0 1 4.67-.53 12.52 12.52 0 0 1 2.7 1.28c.44-.56 1-1.27 1.56-2 .42-.56.87-1.14 1.63-.66s.52 1.27.09 1.85c-1.05 1.43-2.11 2.86-3.28 4.2a37.51 37.51 0 0 0-5.05 8.31 1.27 1.27 0 0 0 0 .93 13.36 13.36 0 0 0 2.55-1.23c1.64-1.26 3.16-2.67 4.73-4 2.22-1.9 4.4-3.84 6.65-5.7a9.28 9.28 0 0 1 2.63-1.6 2.56 2.56 0 0 1 2 .24c.73.47.6 1.37.23 2.11s-.83 1.53-1.24 2.3l.32.28a15.71 15.71 0 0 0 1.57-1.59 17.08 17.08 0 0 0 1.34-2.17 10.77 10.77 0 0 1 5-4.67c.69-.33 1.44-.58 2 .09a1.39 1.39 0 0 1-.17 2 21.86 21.86 0 0 1-4.17 3c-1.67.84-2.19 2.3-2.81 3.79a.78.78 0 0 0 .14.69.92.92 0 0 0 .8.1 11.65 11.65 0 0 0 1.66-1.1 55.48 55.48 0 0 1 11.28-6.76 7.74 7.74 0 0 1 6.58.16 3.22 3.22 0 0 0 1.13.08c.45 0 1.19-.1 1.28.09a1.66 1.66 0 0 1 0 1.43 48.57 48.57 0 0 1-3.85 5.26 49.23 49.23 0 0 1-5.4 5.31 20.8 20.8 0 0 1-4.79 2.93c-2.3 1-4.18-.51-4-3 .23-1.66 1.82-5.82 3.15-6.74zM183 147.06l-.32-.35a8.78 8.78 0 0 0-.94.38c-3.48 1.87-7 3.6-10.38 5.69a33.21 33.21 0 0 0-5.22 4.57 2.81 2.81 0 0 0 0 3.23 2.06 2.06 0 0 0 2.62.45 22.39 22.39 0 0 0 11.83-9.69c.83-1.42 1.63-2.86 2.41-4.28zm-4.3-4.07a5.38 5.38 0 0 0 3.87-1.65c2.37-2.17 4.65-4.44 6.95-6.69 1.05-1 .85-1.84-.57-2.33a2.61 2.61 0 0 0-1.41-.11 20.48 20.48 0 0 0-3.45 1.13c-2.75 1.3-4.39 3.78-6.16 6.09a3.93 3.93 0 0 0-.59 1.88c-.13 1.39.2 1.69 1.4 1.69zM57.22 71.92c.91-.37 1.63-.68 2.37-1 2.09-.83 3.65-2 4.25-4.44a17 17 0 0 1 11.87-11.2 2.41 2.41 0 0 1 2.72.8 2.52 2.52 0 0 1 .33 3 26.2 26.2 0 0 1-3.43 4.14c-2.46 2.36-5.57 3.73-8.58 5.22a2.63 2.63 0 0 0-1.56 2c-.73 3.13-1.41 6.28-2.38 9.34-1 3.22-3.13 5.84-5.39 8.3a28 28 0 0 1-15.76 9.07 37.52 37.52 0 0 1-7 .24c-1.17 0-1.4 0-1.32 1.23a7.07 7.07 0 0 0 1.66 4.1c.3.37.64 1.1.48 1.37-.43.7-1.15.33-1.65 0a5.25 5.25 0 0 1-2.41-4.41c.16-2.58-1.06-4-2.83-5.57-4.13-3.67-5.4-10.24-3.31-15.43 1.78-4.42 3.84-8.72 7.45-11.93 3.89-3.45 7.93-6.82 13.38-7.6 3.13-.45 6.3-.65 8.82 1.67a7.33 7.33 0 0 1 2.65 5.64c0 1.5-.23 3-.34 4.51-.04.22-.02.46-.02.95zm-19.37 5.94c-.58.11-.9.09-1.09.23a3.92 3.92 0 0 0-.92 4.72 3.26 3.26 0 0 0 4.78.74c3.27-2.77 6.2-6 10-8a44 44 0 0 0 3.86-2.17 3 3 0 0 0 1.24-1.81 35.58 35.58 0 0 0 .51-5.83 5.64 5.64 0 0 0-4.38-5.58 16 16 0 0 0-11.93 2.2 27 27 0 0 0-4.75 3.61 23.68 23.68 0 0 0-4 5 70.34 70.34 0 0 0-3.66 7.81 12.25 12.25 0 0 0 3.45 14.74c.68.56 1 .52 1.4-.28a19.47 19.47 0 0 1 5.18-6.43 6.64 6.64 0 0 0 .79-.88 13.1 13.1 0 0 0-1.33-.7c-3.25-1-4.34-6.32-1.37-8.86A3.47 3.47 0 0 1 41 78.14a3.09 3.09 0 0 1-1.17 2.92 2.1 2.1 0 0 1-2.46-.34c-.93-.95-.32-1.72.48-2.86zm24.32-7.19c-1.93.92-3.65 1.73-5.35 2.58-.23.11-.37.45-.5.71a22.58 22.58 0 0 1-5 6.59c-3.05 2.74-6.31 5-10.59 5.27a1.54 1.54 0 0 0-1 .59c-1.85 2.48-3.69 5-5.45 7.51-.61.88-.33 1.39.73 1.48a19.19 19.19 0 0 0 11-1.88 41.07 41.07 0 0 0 12.66-11.11 5 5 0 0 0 .84-1.55c.92-3 1.79-5.93 2.65-8.9a6.45 6.45 0 0 0 .01-1.29zm3.53-3.16l.36.22a8.28 8.28 0 0 0 1-.38c1.43-.75 2.88-1.49 4.29-2.3a21.35 21.35 0 0 0 6-5.18 2.52 2.52 0 0 0 .39-3.16c-.57-.76-1.53-.71-3-.26C71 57.63 68.71 60.4 67 63.76a32.06 32.06 0 0 0-1.3 3.75zM53.84 75c-4.66 1.89-7.75 5.76-11.42 8.91 3.18.45 10.46-5.68 11.42-8.91zM38.64 41.8a38.18 38.18 0 0 0 5.56 0 17.67 17.67 0 0 0 9.23-3.8c1.79-1.54 3.48-3.2 5.11-4.91a13 13 0 0 1 7.52-3.72 1.61 1.61 0 0 1 .44 0 1.2 1.2 0 0 1 .32.14c0 .11-.07.25-.14.29-3.8 2.23-6.84 5.36-10 8.42a20.45 20.45 0 0 1-15.88 5.93 40.2 40.2 0 0 0-8.84.38c-.61.11-1.35.33-1.55-.56s.5-1 1.08-1.29c3-1.41 6.16-2.52 8.82-4.37s4.81-4.45 7.14-6.76a17.19 17.19 0 0 0 1.54-2 .89.89 0 0 0-.3-1.47 12.25 12.25 0 0 0-6.81-2 3.26 3.26 0 0 0-1.46.64c-4.65 3-8.18 7.34-12.35 10.93A28 28 0 0 1 19.21 43a22.45 22.45 0 0 1-14 .54 6.8 6.8 0 0 1-4.9-8.8 3.16 3.16 0 0 1 4-2.47 2.36 2.36 0 0 1 1.81 2.14A2.47 2.47 0 0 1 5 36.88a1.53 1.53 0 0 1-2.18-.33c-.23-.26-.43-.55-.66-.84a3.55 3.55 0 0 0 .74 4.95 11.88 11.88 0 0 0 7.1 2.25 20.53 20.53 0 0 0 15-5.16c3.15-2.77 6.09-5.8 9.17-8.68.83-.78 1.83-1.42 2.68-2.07l.89-.72-.09-.29-6 .33v-.38c2.16-.39 4.32-.85 6.5-1.15A5.07 5.07 0 0 0 41 23.6 134 134 0 0 1 61.41 9.38a29.11 29.11 0 0 1 6.65-2.32 7.73 7.73 0 0 1 2.86.13c3.77.49 7.54 1 11.31 1.54a1.57 1.57 0 0 1 .84.23 2.32 2.32 0 0 1 .74 1.19c0 .2-.67.7-1 .68a38.34 38.34 0 0 1-7.05-.59 8.51 8.51 0 0 0-6.09.82c-7.05 3.54-13 8.38-16.88 15.36a7 7 0 0 0-.39 1.94 2.34 2.34 0 0 1-.34 1.1c-1 1-2.08 1.94-3 3C46.17 36 43.1 39.18 39 41.2a1.7 1.7 0 0 0-.38.33zm31.7-32.72A4.46 4.46 0 0 0 69.12 9a22.22 22.22 0 0 0-5 1.27c-6.79 3.32-12.81 7.89-18.89 12.33-.61.44-1.15 1-1.81 1.54.32.17.47.3.63.31a15 15 0 0 1 6.19 2 .86.86 0 0 0 1.3-.39l.6-1c3.07-5.09 7.55-8.76 12.29-12.13 1.83-1.41 3.78-2.51 5.91-3.85zM139.72 143.84a28.59 28.59 0 0 0 4.27-3.22c3.12-3.39 6.14-6.9 9-10.49 5.09-6.3 10-12.8 16.48-17.75a21.14 21.14 0 0 1 8.29-3.84 4.15 4.15 0 0 1 2.07 0c.43.14.7.79 1 1.21a10.22 10.22 0 0 1-1.26.84 14.9 14.9 0 0 0-2 .76c-3 2-4.72 5.14-6.61 8.09-5.05 7.83-10.51 15.33-17.8 21.24-2.52 2-5.35 3.7-8.05 5.5a1.77 1.77 0 0 1-1.06.24 1.09 1.09 0 0 1-.79-.46 1 1 0 0 1 .18-.89 14.26 14.26 0 0 1 2.1-1.61 67.44 67.44 0 0 0 17.68-15.64c2.93-3.76 5.6-7.72 8.46-11.54 1-1.35 2.26-2.53 3.39-3.79l.62-.72-.15-.26c-.48.18-1 .34-1.44.56a21.69 21.69 0 0 0-6.72 4.8c-3.84 4-7.53 8.23-11.34 12.3s-7.43 7.94-11.28 11.76a12.77 12.77 0 0 1-7.26 4 2.59 2.59 0 0 1-.89-.19c.09-.26.1-.61.28-.76 4.48-3.74 6.89-8.87 9.55-13.87 1.57-3 2.17-6.2 3.21-9.3.23-.68.43-1.37.65-2.05l-.27-.18a14.28 14.28 0 0 0-1 1c-2.34 3-4.55 6.12-7 9-3 3.49-6.16 6.9-9.47 10.11a36.37 36.37 0 0 1-13.37 8.11 9.6 9.6 0 0 1-7.07.19c-4.24-1.85-6-5.21-3.84-9.25 1-1.8 2.6-2.45 4-1.76a1.7 1.7 0 0 1 1 1.67 1.92 1.92 0 0 1-1.17 2.07 2.5 2.5 0 0 1-1.92-.26c-.83-.61-1-.28-1.14.46-.62 3 1.91 6.23 5.24 6.6a12.07 12.07 0 0 0 8.07-2.24 77.64 77.64 0 0 0 6.45-4.66c1.48-1.2 2.71-2.71 4.08-4a77.89 77.89 0 0 0 9.11-10.26c1.61-2.26 3.28-4.48 5-6.62a51.62 51.62 0 0 1 4.82-5.2 51 51 0 0 1 4.82-3.49 1 1 0 0 1 1.53.26c.42.68.08 1.2-.53 1.57s-1.41.81-2.11 1.21c-3.14 1.76-3.85 5-4.87 8s-1.72 5.82-2.71 8.68a37.16 37.16 0 0 1-7.93 12.82c-.26.29-.51.6-.76.9zM98.57 86.75a2.81 2.81 0 0 0-.43 2.78c.16.58.61.74 1.09.26a15.93 15.93 0 0 0 1.61-1.68c2.71-3.55 5.36-7.15 8.1-10.68a22.46 22.46 0 0 1 2.88-2.89c.23-.2.79 0 1.2 0 0 .4.14 1-.07 1.18-1.83 1.88-1.79 4.17-1.37 6.46a15.55 15.55 0 0 1-1.11 8.56 3.69 3.69 0 0 1-1.47 1.49c-2.13 1.34-4.42 2.36-7 1.75a9.91 9.91 0 0 1-3-1.55 1.22 1.22 0 0 0-1.57 0 14.52 14.52 0 0 1-3.19 1.5 2.66 2.66 0 0 1-3.31-2.64 9.54 9.54 0 0 1 1.54-5.57 32 32 0 0 0 2.2-4c.23-.5 0-1.23-.06-1.86a5 5 0 0 0-1.66.21 11.92 11.92 0 0 0-4.73 3.56c-1.87 2.56-3.78 5.1-5.68 7.64-.36.49-.74 1-1.1 1.44l-.33-.17a5.25 5.25 0 0 1 .33-.89c1.56-2.88 3.22-5.76 4.81-8.65a7 7 0 0 0 .75-2.4c.1-.8-.42-1.37-1.25-1a6.66 6.66 0 0 0-2.24 1.51c-1.92 2.15-3.65 4.46-5.6 6.57-1.57 1.71-3.38 3.2-5 4.83-2.08 2-4.7 2.37-7.39 2.38-1.36 0-2.76-1.8-2.9-3.61A11.73 11.73 0 0 1 65.05 83a15.89 15.89 0 0 1 11-6.29 10.31 10.31 0 0 1 1.11 0c1.24 0 2.39.26 3 1.52a3.11 3.11 0 0 1-.61 3.32 9.4 9.4 0 0 1-5.8 3.18 14.31 14.31 0 0 1-3.21.06 6 6 0 0 1-1.21-.27v-.31c.34 0 .67-.13 1-.16a11.23 11.23 0 0 0 7.23-3.72 4.34 4.34 0 0 0 .6-1.22 4.4 4.4 0 0 0-1.43-.35A12.61 12.61 0 0 0 65.29 88a11.16 11.16 0 0 0-.43 2 2.55 2.55 0 0 0 2.81 3A6.61 6.61 0 0 0 72 91.37c2.06-1.85 4-3.8 6-5.74s4.08-4.08 6.13-6.11a4.38 4.38 0 0 1 .89-.64 2 2 0 0 1 2.38-.09c.74.58.6 1.35.4 2.13a5.56 5.56 0 0 0 0 .86c1-.89 1.82-1.61 2.65-2.3a15 15 0 0 1 2-1.55 3.22 3.22 0 0 1 3.74.14 3.12 3.12 0 0 1 .81 3.76c-.53 1.26-1.27 2.42-1.89 3.64s-1.36 2.68-2 4.06a3.71 3.71 0 0 0-.11 1.53c0 1.42.77 1.91 2.13 1.44.34-.12.67-.29 1-.44 1-.46 1.59-1 1-2.29a3.88 3.88 0 0 1 .34-3.53A4.74 4.74 0 0 1 99 84.76a1.16 1.16 0 0 1 1.74.39 1.94 1.94 0 0 1-.14 1.59 1.07 1.07 0 0 1-1.66.17 2.28 2.28 0 0 0-.37-.16zM108.65 80a6.25 6.25 0 0 0-.59.51l-8.5 10c-.38.45-.3.75.11 1.1 3 2.65 6.57 1.86 8.56-1.16a7.65 7.65 0 0 0 .84-5.35c-.16-1.39-.19-2.8-.29-4.2-.02-.22-.06-.45-.13-.9zM235.17 129.17c1.67-.49 3.36-.94 5-1.49a3.64 3.64 0 0 0 1.66-1c1.15-1.5 2.14-3.11 3.23-4.65a7.19 7.19 0 0 1 1.24-1.4 3.23 3.23 0 0 1 1.07-.38c.06.38.25.8.14 1.12a12.37 12.37 0 0 1-1 2.32c-.6 1-1.29 2-2 3-.45.65-.25 1 .48 1a8.26 8.26 0 0 1 1.87.07 1.68 1.68 0 0 1 1.08 1c.11.71-.49 1-1.17 1-1.14 0-2.29-.08-3.43 0a2.53 2.53 0 0 0-1.52.65c-1.3 1.31-2.51 2.72-3.74 4.1a2 2 0 0 0-.47.73c-.75 2.48-1.49 5-2.17 7.44a3.73 3.73 0 0 0 .13 1.35c.51-.11 1.15 0 1.5-.34a39.6 39.6 0 0 0 8.3-8.55 59 59 0 0 1 4.22-5.27c.24-.29.86-.58 1.11-.46a1.35 1.35 0 0 1 .68 1.09 8.47 8.47 0 0 1-1 3c-1.25 1.82-2.69 3.51-4.1 5.22-1.21 1.46-1 3.21-.92 4.86 0 .77.73.24 1.06-.05 2.36-2 4.73-4 7.05-6.08s4.72-4.47 7.2-6.56a8.76 8.76 0 0 1 5.29-2.07c1.18 0 2.39 0 3.06 1.14a4.12 4.12 0 0 1 .11 4c-.84 1.76-1.66 3.53-2.57 5.25a5.83 5.83 0 0 1-1.34 1.47c-1.49 1.31-3 2.67-4.56 3.85a9.48 9.48 0 0 1-2.91 1.31 2.66 2.66 0 0 1-3.6-2.13 21.57 21.57 0 0 1-.14-3.51 12.18 12.18 0 0 1 .11-1.27c-.5.34-.78.51-1 .72l-5.67 4.79a5.17 5.17 0 0 1-.92.63 1.62 1.62 0 0 1-2.55-1.47 29.55 29.55 0 0 1 .24-3c-.57.48-.95.74-1.27 1-1.64 1.63-3.36 3.09-5.76 3.53s-3.41-.57-2.95-2.83c.3-1.46.82-2.88 1.34-4.66-.54.4-.85.59-1.13.83-2.11 1.84-4.2 3.72-6.35 5.52a2.36 2.36 0 0 1-2.88.39c-1.1-.68-1.47-4.12-.52-5 .23 2.94.88 5.59 3.29 3 2.66-2.87 5.5-5.58 8.2-8.41 1-1 1.78-2.14 2.82-3.4l-3.76-.6zm20.62 12.33h.16v.5c.09 1.69.68 2.19 2.13 1.4a39.64 39.64 0 0 0 4.51-3.15 4 4 0 0 0 1.62-3.52 4.14 4.14 0 0 1 2.68-4.2 1.08 1.08 0 0 0 .49-.92 1.18 1.18 0 0 0-.75-.74 2.83 2.83 0 0 0-1.53.07c-3.62 1.41-7.23 2.84-8.33 7.19-.29 1.12-.65 2.24-.98 3.37zm9.7-5.61l.44.33c.43-.51.89-1 1.28-1.54.08-.12-.07-.48-.21-.64a.63.63 0 0 0-.56.13c-.35.55-.64 1.14-.95 1.72zM175.33 80.24c-3.51 2.9-7 5.86-10.55 8.7a46.29 46.29 0 0 1-5.2 3.55 7.71 7.71 0 0 1-8 0 6.67 6.67 0 0 1-2.06-1.9c-.46-.63-.75-.72-1.29-.22q-1 1-2.13 2a8.45 8.45 0 0 1-.95.75c-2.1 1.4-4.25.53-4.44-2a15.93 15.93 0 0 1 .55-4.69 41.92 41.92 0 0 1 1.47-4.3c.09-.26.15-.54.27-1l-1.12.25-.31-.35c.42-.28.84-.57 1.27-.83a7.33 7.33 0 0 0 2.35-3c2.36-4.07 4.32-8.44 8-11.6a8.85 8.85 0 0 1 1.72-1.2c1.45-.71 2.89.17 2.63 1.74a14.3 14.3 0 0 1-1.42 4 9.5 9.5 0 0 1-4 4.37 12.11 12.11 0 0 0-6 6.93c-.94 2.41-2.13 4.71-3.15 7.09a8.17 8.17 0 0 0-.57 2.35 1.38 1.38 0 0 0 .49 1.11 1.28 1.28 0 0 0 1.18-.12c1.54-1.25 3-2.57 4.53-3.91a1.75 1.75 0 0 0 .37-.89c.84-5 5.87-10.24 10.85-11.15a8 8 0 0 1 3.59.27c2.13.64 2.48 3.24.59 4.8a15.17 15.17 0 0 1-4 2.29c-2.22.9-4.52 1.59-6.81 2.33a1.52 1.52 0 0 0-1.19 1.4 3.2 3.2 0 0 0 3 3.93 7.24 7.24 0 0 0 5.24-1.28c4.09-2.84 8.24-5.6 12.38-8.38.76-.52 1.56-1 2.34-1.46zm-22.13 4.31l.22.27a4.57 4.57 0 0 0 .82-.16 45.05 45.05 0 0 0 4.49-1.85 23.38 23.38 0 0 0 3.61-2.52 1.2 1.2 0 0 0-.33-2.18 2.83 2.83 0 0 0-1.19 0c-3.07.59-5 2.75-6.73 5.06-.32.47-.59.93-.89 1.38zm-3.85-9.94c2.63-.49 7-6.7 6.15-8.75-2.81 2.39-4.43 5.49-6.15 8.75zM135.24 79.12a2.06 2.06 0 0 1 3.32-.21 4.22 4.22 0 0 1 .83 3.77c-1.09 5.32-4.39 8.68-9.31 10.54-2.11.79-4.21.64-5.73-1.3a10.19 10.19 0 0 1-1-2.41c-1.48.94-3 1.9-4.46 2.83-1.33.82-2.78 1.22-4.17.29a4 4 0 0 1-1.62-4.21 16.53 16.53 0 0 1 5.14-9.35 1.82 1.82 0 0 1 .93-.56 5.88 5.88 0 0 1 1.42.21c-.11.45-.08 1-.35 1.34-2.42 2.79-4.63 5.68-5.33 9.44-.15.83-.37 1.79.46 2.2a2.57 2.57 0 0 0 2.17 0c2.23-1.48 4.35-3.14 6.49-4.77a2.43 2.43 0 0 0 .51-1c2.52-6.26 5.46-12.3 10-17.38a25.5 25.5 0 0 1 3.46-3.11c1.21-.92 2.37-.31 2.43 1.22a11.25 11.25 0 0 1-1.91 6c-2.9 5-7.06 8.91-11.09 12.91a7 7 0 0 0-2 4.22 2 2 0 0 0 2.4 2.29c4.09-1.17 8-2.73 9.45-7.31a16.7 16.7 0 0 0 .64-2.69c.33-2.27-.27-2.93-2.68-2.96zm-6.66 2.71c3.8-2 10.66-12.19 10-14.93-4.96 4.04-7.36 9.57-10 14.93z" fill="#fff"/><path d="M30.45 22.52c-1.77 3.28-4.27 5.4-7.92 5.87a11.69 11.69 0 0 1-6.85-.77A7.26 7.26 0 0 1 12 19.69c1-5.42 4-9.51 8-13A28.47 28.47 0 0 1 31.55.54a10.1 10.1 0 0 1 7 .16 5.08 5.08 0 0 1 3.05 5.38 47 47 0 0 1-1.68 5.58 13 13 0 0 0-.87 3.34c0 1.48.67 2 2.14 1.84 1.27-.11 2.53-.39 3.94-.62-.27.24-.43.51-.66.58a29.6 29.6 0 0 1-4.72 1.39c-1.6.22-3-1.32-3.08-3a9.51 9.51 0 0 1 1.11-4.58 25.9 25.9 0 0 0 1.33-3.39c1.06-3.49-1.67-5.47-4.49-4.9a34.09 34.09 0 0 0-7.16 2.19A23.54 23.54 0 0 0 16 15.12a17.39 17.39 0 0 0-1.78 5.76c-.36 2.81 1.59 4.86 4.4 5.26 3.83.53 7.1-.9 10.24-2.82.41-.26.78-.56 1.18-.82.06-.03.15 0 .41.02zM300 129a35.17 35.17 0 0 1-1.94 4.64c-1.45 2.48-3.12 4.84-4.73 7.23a14.77 14.77 0 0 1-2.34 3.18 13.08 13.08 0 0 1-4 2.31c-2.29.82-4.11-.68-4.18-3.12 0-2.24 1.21-3.9 2.38-5.6.87-1.28 1.84-2.5 2.71-3.78.43-.65.86-1.57.1-2.09a2.55 2.55 0 0 0-2.13-.08 19.06 19.06 0 0 0-8.24 7.14 70.42 70.42 0 0 1-4.47 5.64 4.76 4.76 0 0 1-.54.56c-.49.44-1.13.68-1.54.09a1.61 1.61 0 0 1 0-1.45c.77-1.12 1.7-2.14 2.55-3.21 1.68-2.15 3.36-4.31 5-6.47a1.71 1.71 0 0 0 .42-.78c.05-.51.19-1.23-.08-1.5a1.5 1.5 0 0 0-1.47 0 36.44 36.44 0 0 0-4.82 3.82 16 16 0 0 1-5.63 4c.21-.2.42-.4.64-.59 1.13-1 2.3-2 3.39-3 1.66-1.58 3.23-3.25 4.89-4.82a4.89 4.89 0 0 1 1.77-1.07c2.06-.63 3 0 3.43 2.14a6 6 0 0 0 .23.68c.38-.32.69-.54 1-.8 1.48-1.47 3-2.85 5.15-3.29 2.8-.58 4.43 1.11 3.65 3.88a11.8 11.8 0 0 1-3.45 5.47 7.62 7.62 0 0 0-2.5 5c-.11 1.15.3 1.56 1.39 1.17a8.55 8.55 0 0 0 2.22-1.21 17.9 17.9 0 0 0 4.52-4.82c2-3.17 4.16-6.28 6.25-9.41zM142.73 116.92a4.7 4.7 0 0 1-3.51 5.18 3.2 3.2 0 0 1-3.64-.66 3.92 3.92 0 0 1-.8-4.23c.46-1.55 1.27-3 1.77-4.54a11.75 11.75 0 0 0 .64-3.55c0-1.48-.88-2.07-2.35-1.93a23 23 0 0 0-11.19 4.51 18.45 18.45 0 0 0-3.87 3.44c-1.91 2.41-2.89 5.16-1.58 8.26a3.66 3.66 0 0 0 2.34 2c3.11 1.12 5.8.21 8.31-1.63.26-.19.53-.34.79-.51l.25.29a29.3 29.3 0 0 1-2.34 2 8.29 8.29 0 0 1-8 1c-2.45-.94-3.84-4.23-3.21-7.2a12.5 12.5 0 0 1 5.92-8.35c2.8-1.7 5.72-3.22 8.66-4.66a17.31 17.31 0 0 1 3.64-.9 3.65 3.65 0 0 1 4.28 4.75c-.49 1.62-1.33 3.12-1.95 4.7a18.81 18.81 0 0 0-1.4 4.13c-.24 1.88 1.22 2.88 3.07 2.5a5.19 5.19 0 0 0 3.93-3.81c.05-.14.07-.28.12-.43s.07-.28.12-.36zM178.21 124.83a2 2 0 0 1-1.79 1.79 1.51 1.51 0 0 1-1.65-1.3 1.92 1.92 0 0 1 1.64-1.9 1.6 1.6 0 0 1 1.8 1.41zM252 125.61c.08-1.19.37-1.93 1.28-1.84a1.67 1.67 0 0 1 1.11 1c.2.73-.65 1.78-1.25 1.64s-.84-.59-1.14-.8zM124.29 74.21c-.72.61-1.26 1.32-1.52 1.23a2.75 2.75 0 0 1-1.24-1.26c-.06-.1.62-.92.92-.9.55.03 1 .47 1.84.93z" fill="#fff"/></svg>