<svg xmlns="http://www.w3.org/2000/svg" width="250" height="108" viewBox="0 0 250 108"><path d="M19.7 94.11a2.75 2.75 0 0 0-1.26-.87 4.44 4.44 0 0 0-1.5-.28 3.67 3.67 0 0 0-.86.1 3.06 3.06 0 0 0-.83.3 1.8 1.8 0 0 0-.64.55 1.42 1.42 0 0 0-.24.83 1.36 1.36 0 0 0 .58 1.2 5.37 5.37 0 0 0 1.48.71c.6.2 1.24.39 1.92.59a8.09 8.09 0 0 1 1.93.83 4.65 4.65 0 0 1 1.48 1.45 4.4 4.4 0 0 1 .58 2.42 5.57 5.57 0 0 1-.54 2.52 5 5 0 0 1-1.45 1.78 6.09 6.09 0 0 1-2.13 1.06 9.71 9.71 0 0 1-2.56.34 9.1 9.1 0 0 1-3.13-.52 7.75 7.75 0 0 1-2.69-1.66l2.72-3a4 4 0 0 0 1.44 1.23 4.28 4.28 0 0 0 1.84.43 3.93 3.93 0 0 0 .95-.12 2.89 2.89 0 0 0 .85-.33 1.73 1.73 0 0 0 .61-.56 1.38 1.38 0 0 0 .24-.81 1.45 1.45 0 0 0-.6-1.23 5.61 5.61 0 0 0-1.51-.77c-.6-.21-1.25-.43-2-.64a9 9 0 0 1-2-.85A4.77 4.77 0 0 1 11 97.39a4.09 4.09 0 0 1-.6-2.33 5.33 5.33 0 0 1 .6-2.45 5.45 5.45 0 0 1 1.47-1.76 6.49 6.49 0 0 1 2.12-1.06 8.53 8.53 0 0 1 2.41-.36 9.67 9.67 0 0 1 2.84.42 6.67 6.67 0 0 1 2.47 1.39zM25.61 98.54a9.85 9.85 0 0 1 .7-3.77 8.34 8.34 0 0 1 2-2.88 8.52 8.52 0 0 1 3-1.82 11.28 11.28 0 0 1 7.49 0 8.61 8.61 0 0 1 3 1.82 8.18 8.18 0 0 1 1.94 2.88 10.48 10.48 0 0 1 0 7.53 8.18 8.18 0 0 1-1.94 2.88 8.61 8.61 0 0 1-3 1.82 11.28 11.28 0 0 1-7.49 0 8.52 8.52 0 0 1-3-1.82 8.34 8.34 0 0 1-2-2.88 9.84 9.84 0 0 1-.7-3.76zm4 0a6.24 6.24 0 0 0 .38 2.24 5 5 0 0 0 2.79 2.92 6.05 6.05 0 0 0 4.43 0 5.19 5.19 0 0 0 1.7-1.16 5.38 5.38 0 0 0 1.09-1.76 6.94 6.94 0 0 0 0-4.47 5.13 5.13 0 0 0-1.09-1.77 5.06 5.06 0 0 0-1.7-1.17 6.19 6.19 0 0 0-4.43 0 5 5 0 0 0-1.7 1.17A4.84 4.84 0 0 0 30 96.31a6.22 6.22 0 0 0-.42 2.23zM64 89.87h4.3l4.28 11.36L77 89.87h4.08l-7.15 17.33h-3.06zM86 89.87h11.79v3.53h-8v3.23h7.51v3.52h-7.46v3.52h8.39v3.53H86zM103.72 89.87h6.7a11.93 11.93 0 0 1 2.51.26A6 6 0 0 1 115 91a4.26 4.26 0 0 1 1.42 1.61 5.49 5.49 0 0 1 .53 2.54 5 5 0 0 1-1 3.11 4.31 4.31 0 0 1-2.79 1.63l4.41 7.32H113l-3.62-6.93h-1.89v6.93h-3.81zm3.81 7.13h3.34a3.61 3.61 0 0 0 1-.22 2 2 0 0 0 .78-.58 1.78 1.78 0 0 0 .3-1.1 1.82 1.82 0 0 0-.27-1 1.86 1.86 0 0 0-.68-.6 3.08 3.08 0 0 0-1-.28 7.65 7.65 0 0 0-1-.08h-2.5zM126.85 99.81l-6.51-9.94h4.75l3.67 6.49 3.89-6.49h4.53l-6.51 9.94v7.39h-3.82zM167.58 93.25h-4.94v-3.38h13.7v3.38h-4.94v14h-3.82zM180.61 89.87h3.81v17.33h-3.81zM190.18 89.87h6.7a11.93 11.93 0 0 1 2.51.26 6 6 0 0 1 2.08.86 4.35 4.35 0 0 1 1.42 1.61 5.5 5.5 0 0 1 .52 2.54 5 5 0 0 1-.95 3.11 4.31 4.31 0 0 1-2.79 1.63l4.4 7.32h-4.57l-3.62-6.93H194v6.93h-3.81zM194 97h3.34a3.61 3.61 0 0 0 1-.22 1.85 1.85 0 0 0 .77-.58 1.71 1.71 0 0 0 .31-1.1 1.82 1.82 0 0 0-.27-1 1.86 1.86 0 0 0-.68-.6 3.08 3.08 0 0 0-1-.28 7.65 7.65 0 0 0-1-.08H194zM206.92 89.87h11.77v3.53h-7.95v3.23h7.51v3.52h-7.51v3.52h8.39v3.53h-12.21zM223.18 89.87h5.72a16.4 16.4 0 0 1 4 .47 9.12 9.12 0 0 1 3.26 1.5 7.49 7.49 0 0 1 2.22 2.71 9.15 9.15 0 0 1 .82 4 8.22 8.22 0 0 1-.8 3.7 7.86 7.86 0 0 1-2.14 2.69 9.48 9.48 0 0 1-3.11 1.66 12.17 12.17 0 0 1-3.69.56h-6.24zm3.82 13.8h2a10.67 10.67 0 0 0 2.46-.26 5.24 5.24 0 0 0 2-.9 4.28 4.28 0 0 0 1.31-1.64 5.9 5.9 0 0 0 .47-2.48 5 5 0 0 0-.47-2.22 4.52 4.52 0 0 0-1.29-1.55 5.7 5.7 0 0 0-1.9-.92 8.48 8.48 0 0 0-2.28-.3H227zM153 50h5.15l2.85-6H93.92l-2.83 6h6.26l11.9 11.9-11 11h-4.33l-2.83 6h67.07l2.82-6h-8zm-6.8 22.86h-5.14V50h5.14zm-11.93 0h-4.47l-11-11L130.76 50h3.52zM107 50h14.18l-7.09 7.1zm7.09 16.71l6.15 6.15H107.9zM189.84 18.44h14.75l2.83-6.01h-14.75l-2.83 6.01zM66.63.06H41.11l-2.82 6.01h9.35v24.84h6.8V6.07h9.37L66.63.06zM172.3 16.89a6.78 6.78 0 0 0 2.18-1.89 9 9 0 0 0 1.7-5.55 9.78 9.78 0 0 0-.94-4.51A7.7 7.7 0 0 0 172.71 2 10.5 10.5 0 0 0 169 .52a20.78 20.78 0 0 0-4.47-.46h-37l-2.83 6h9.3v24.85h6.79V6.07h9.37L152.6.93v30h6.8V5.81h4.44a15.24 15.24 0 0 1 1.88.13 5.73 5.73 0 0 1 1.7.5 3.3 3.3 0 0 1 1.22 1.07 3.26 3.26 0 0 1 .48 1.87 3.16 3.16 0 0 1-.55 2 3.24 3.24 0 0 1-1.37 1 5.9 5.9 0 0 1-1.85.39c-.69.05-1.33.07-1.94.07h-1.3V19.44a11.46 11.46 0 0 1 11.23 11.48h6a17.6 17.6 0 0 0-7.04-14.03zM110.18 16.89a6.75 6.75 0 0 0 2.17-1.89 9 9 0 0 0 1.7-5.55 9.79 9.79 0 0 0-.93-4.51A7.7 7.7 0 0 0 110.59 2a10.55 10.55 0 0 0-3.71-1.48 20.68 20.68 0 0 0-4.46-.46H90.48v28.25L74.26.06 57 30.91h7.12l3.69-6.54H80.9l3.65 6.54h12.73V5.81h4.44a15 15 0 0 1 1.87.13 5.64 5.64 0 0 1 1.7.5 3.23 3.23 0 0 1 1.22 1.07 3.26 3.26 0 0 1 .49 1.87 3.16 3.16 0 0 1-.54 2 3.24 3.24 0 0 1-1.37 1 6 6 0 0 1-1.86.39c-.68.05-1.32.07-1.93.07H100V19.44a11.46 11.46 0 0 1 11.23 11.48h6a17.59 17.59 0 0 0-7.05-14.03zm-40.37 2.59L74.26 11l4.46 8.51zM211.87.06h6.8v30.85h-6.8zM237.49 24.8a17.51 17.51 0 0 0-11.59-10.71l13.43-14h-8.89l-9 9.67v9.67a11.46 11.46 0 0 1 11.23 11.48H246l4-6.11z" fill="#fff"/><path d="M39.41 17.51c-2.09-1.26-15.18-7.46-15.18-7.46-4.15-2.33-3.38-4 .32-4h9.35L37 0H19.56c-8.07 0-10.81 9.23-4.31 13.15 2.09 1.26 17 8.6 17 8.6 4.15 2.33 1.59 3.15-2.11 3.15H0l4.25 6h30.68c8.07.01 10.98-9.46 4.48-13.39zM179.33 15.49a15.47 15.47 0 0 0 15.42 15.42h9.75l2.92-6.22h-12.67a9.21 9.21 0 0 1 0-18.41h9.75l2.92-6.22h-12.67a15.47 15.47 0 0 0-15.42 15.43z" fill="#fff"/></svg>