<svg xmlns="http://www.w3.org/2000/svg" viewBox="0 0 250 124"><path d="M27.64 114.36V92.12h7.51c2.37-.03 4.15.3 5.32.84 2.4 1.11 3.91 3.67 3.91 6.67 0 4.12-2.28 7.75-8.66 7.75h-2.64v6.97h-5.44zm7.87-11.96c2.28 0 3.43-.78 3.43-2.67s-1.11-2.61-3.64-2.61h-2.22v5.29h2.43zM46.39 103.75c0-6.88 4.96-12.05 11.72-12.05s11.75 5.02 11.75 11.39-5.11 11.69-11.48 11.69-11.99-4.45-11.99-11.03zm17.79-.48c0-3.49-2.49-6.58-6.07-6.58s-6.04 2.98-6.04 6.49 2.49 6.61 6.13 6.61 5.98-2.98 5.98-6.52zM88.25 114.36l-3.34-9.16h-.06l-3.34 9.16h-5.14l-5.74-22.24h5.77l2.98 14.46h.06l3.28-9.22h4.36l3.22 9.28h.06l3.04-14.52h5.74l-5.89 22.24h-4.99zM101.66 114.36V92.12h12.35v4.99h-6.91v3.46h6.7v4.99h-6.7v3.82h6.91v4.99h-12.35zM128.16 114.36l-5.14-7.18h-.06v7.18h-5.44V92.12h7.27c2.31 0 4.09.3 5.26.81 2.4 1.08 4.09 3.7 4.09 6.85 0 3.52-2.1 6.4-5.53 7l6.04 7.57h-6.49zm-3.09-11.06c2.25 0 3.64-1.05 3.64-3.19 0-1.92-1.44-3.01-3.58-3.01h-2.16v6.19h2.1zM145.87 98.61c-.24-1.59-.9-2.16-2.01-2.16-1.05 0-1.95.75-1.95 1.74 0 1.32 1.2 1.92 3.64 2.98 4.9 2.1 6.13 3.88 6.13 6.79 0 4.3-2.95 6.82-7.75 6.82s-8.02-2.52-8.02-7.3V107h5.65c.03 1.83.93 3.04 2.34 3.04 1.17 0 2.13-.93 2.13-2.13 0-1.77-2.46-2.55-4.48-3.37-3.64-1.47-5.29-3.4-5.29-6.28 0-3.79 3.67-6.55 7.75-6.55 1.47 0 2.77.33 3.94.93 2.37 1.23 3.52 3.01 3.55 5.98h-5.62zM176.61 114.36v-8.9h-7.27v8.9h-5.68V92.12h5.68v8.36h7.27v-8.36h5.68v22.24h-5.68zM185.35 103.75c0-6.88 4.96-12.05 11.72-12.05s11.75 5.02 11.75 11.39-5.11 11.69-11.48 11.69-11.99-4.45-11.99-11.03zm17.8-.48c0-3.49-2.49-6.58-6.07-6.58s-6.04 2.98-6.04 6.49 2.49 6.61 6.13 6.61 5.98-2.98 5.98-6.52zM223.22 92.12h5.68v13.61c0 2.31-.36 4.06-1.11 5.26-1.47 2.37-3.97 3.79-7.33 3.79-1.86 0-3.46-.36-4.75-1.11-2.61-1.53-3.88-3.61-3.88-7.9V92.13h5.68v13.55c0 2.77.87 4.12 2.89 4.12s2.82-.96 2.82-4.09V92.13zM243.51 114.36l-5.14-7.18h-.06v7.18h-5.44V92.12h7.27c2.31 0 4.09.3 5.26.81 2.4 1.08 4.09 3.7 4.09 6.85 0 3.52-2.1 6.4-5.53 7l6.04 7.57h-6.49zm-3.1-11.06c2.25 0 3.64-1.05 3.64-3.19 0-1.92-1.44-3.01-3.58-3.01h-2.16v6.19h2.1z" fill="#fff"/><path d="M92.78 4.78c3.59 3.91 4.21 7.65 1.01 12.41-3.63 5.39-9.82 10.55-14.88 14.64-1.34 1.08-1.74 1.5-3.17 2.52-6.85 4.89-15.01 8.55-21.87 13.69l-7.49 20.25c-1.72 4.66-3 10.09-5.44 14.48-1.34 2.41-5.25 3.51-7.52 2.04-2.1-1.35-1.32-7.74-1.42-6.41s.77-8.38.69-12.61c-.43-.48-4.59 4.13-5.16 4.61-3.12 2.59-7.8 5.22-11.81 5.97-1.52.28-3.29-.38-4.54.79-.65 1.11.35 7.31.58 9.03 1.44 10.7 4.56 20.97 8.5 30.99.27 2.53-5.47 7.62-7.47 6.4-1.11-.67-6.05-14.49-6.76-16.71C-5.25 71.91-.17 32.86 16.88.72c1.82-2.2 8.71 1.14 8.1 3.46-.83 3.18-3.25 7.38-4.44 10.16-3.38 7.87-5.86 16.07-7.76 24.43.8.21 1.04-.76 1.34-1.31 4.35-7.74 14.78-25.95 22.81-29.47 3.51-1.54 5.83.97 3.72 4.44-2.63 4.32-7.71 9.17-10.76 13.78-5.81 8.8-17.34 29.68-18.15 39.83-.25 3.15 1.56 2.32 4.07 1.57 9.68-2.87 17.94-14.17 21.8-23.01 3.92-9 6.47-16.56 13.02-24.32 2.84-3.36 11-10.33 11-10.33S64.23 1.7 65.89.7c1.56-.94 5.86.15 5.89 2 .03 1.55-.14 1.79-.17 3.01 3.01-1.63 5.86-2.37 9.24-2.84 1.34-.19 4.76-.63 5.92-.52 1.35.13 4.57.91 5.99 2.45zM58.29 35.92s2.42-1.11 2.96-1.48c8.23-5.65 16.34-11.78 23.36-18.6 1.27-1.24 2.78-3.56 3.18-4.28s.12-1.54-2.3-1.27-8.03 1.19-11.8 2.81c-1.34.58-5.93 2.96-6.83 3.83-.66.64-2.21 3.41-2.72 4.39-1.93 3.65-3.73 8.04-4.85 11.86-.25.86-.99 2.74-.99 2.74zm-4.27-7.82c-.92.04-1.58 1.34-2.07 2.02-4.38 6.07-9.01 20.66-10.63 28.14-.54 2.49-.72 5.04-1.17 7.54 1.06-.79 1.71-2.98 2.23-4.34 3.31-8.67 5.95-17.42 9.39-26.18.86-2.2 1.74-4.87 2.24-7.18z" fill="#fff"/></svg>