<svg xmlns="http://www.w3.org/2000/svg" width="250" height="138" viewBox="0 0 250 138"><path d="M4.4,24.47l13.68-1.2v47L4.4,71.41ZM20.79,39.94l9.35-.82V22.22L43.81,21V68L30.14,69.16V50.72l-9.35.82Z" fill="#fff"/><path d="M52.62,20.25l13-1.13V66.06l-13,1.14Zm35.82-3.13V28.25L68.33,30V18.88ZM68.33,36.31l13.75-1.2v10.6l-13.75,1.2Zm0,18.24,20.11-1.76V64.06L68.33,65.82Z" fill="#fff"/><path d="M110.72,39.92l-6.23,22.74-13.75,1.2L104,17.5H104Zm9.34-25.57,13.75,45.74-13.75,1.2-1.69-5.55-9.55.84,2.58-8.95,4.47-.39-9.55-31.69Z" fill="#fff"/><path d="M131.37,25V13.36l37.79-3.3v11.6Zm25.74.43V58.05l-13.68,1.2V26.59Z" fill="#fff"/><path d="M95.2,107.06c-2.68,1.7-5.39,2.48-8.28.21-1.91,2.42-3.93,4.66-7,5.37s-5.81.06-7.6-2.9c-1.08,1.11-2,2.1-2.91,3s-2.06,1.16-2.92.12-.24-1.94.7-2.79c2.46-2.21,4.34-4.74,4.36-8.28A15.52,15.52,0,0,1,72.17,98a2,2,0,0,1,2.42-1.69c1.37.19,1.4,1.22,1.32,2.21-.12,1.67-.43,3.32-.5,5a14.51,14.51,0,0,0,.23,3.9c.58,2.45,2.66,3.16,4.76,1.69a17.73,17.73,0,0,0,5.85-7.38,28.41,28.41,0,0,1,4-6.94,6.42,6.42,0,0,1,9-1.13,4,4,0,0,1,1.52,3.65,1.48,1.48,0,0,1-2.43,1.09c-.78-.55-1.27-1.49-2-2.07a2.53,2.53,0,0,0-1.88-.56c-3.08.93-5.11,7-3.16,9.95A25.72,25.72,0,0,0,93,103.66c.62-.9,1.12-1.88,1.69-2.82a2.19,2.19,0,0,1,2.78-1.11,2.22,2.22,0,0,1,1.48,2.45c0,1.36.14,2.72.22,4,.32.06.45.13.53.09,4.53-2.18,8.35-5.08,9.93-10.12.44-1.4.57-2.9,1-4.31a1.7,1.7,0,0,1,2.35-1.15,1.79,1.79,0,0,1,1.22,2.34c-.26,1.34-.57,2.67-.92,4.23,2-1.62,3.84-3.08,5.69-4.48A10.33,10.33,0,0,1,121,91.64c2.66-1.15,4.85.55,4.49,3.45a55.42,55.42,0,0,0-.73,6.1c0,1.91,1.64,2.82,3.4,2,3.47-1.71,6.18-4.14,7.45-8a15.2,15.2,0,0,1,6-8.37c2.35-1.55,7.07-.45,8.23,3.41.15.52-.34,1.73-.72,1.82a3.82,3.82,0,0,1-2.5-.38c-.88-.49-1.75-2.06-2.26-1.91A6.45,6.45,0,0,0,141.33,92a11.1,11.1,0,0,0-2.27,7.76,9.84,9.84,0,0,0,.64,2c2.22-1.15,3.3-3,4.31-4.89a12.18,12.18,0,0,1,1.76-3.08c1.24-1.2,2.57-.58,2.79,1.13a15.77,15.77,0,0,1,0,2.06c0,2.7,1.92,4.11,4.45,3.29,3.82-1.24,5.86-4.29,7.08-7.75,1-2.87,2.35-11.35,3-14.62-1.35.15-9.3,1.29-10.42,1.25a5.43,5.43,0,0,1-1.82-.82c.44-.56.77-1.39,1.34-1.63,1.1-.44,9.15-1.52,10.34-1.66s1.6-.93,1.81-2c.34-1.69,1-4.15,1.37-5.82.26-1.06.73-2,2.06-1.87a2.16,2.16,0,0,1,2,2.42c-.1,1.72-.71,4.19-1,6,.36-.09.75-.2,1.15-.28,1.7-.33,18.77-2.67,20.48-2.91,1-.13,2.24-.22,2.31,1.07,0,.51-1.1,1.35-1.84,1.58-1.53.49-18.55,2.89-20.13,2.88-2.64,0-3.3,1.73-3.88,3.67-.45,1.54-2.05,8.43-2.26,10a30.69,30.69,0,0,0-.36,6.48,3.13,3.13,0,0,0,4.51,2.49,31.86,31.86,0,0,0,4.89-3.12,21.67,21.67,0,0,0,3.26-2.78c1.84-2,2.4-4.54,2.8-7.12a17,17,0,0,1,.53-2.88,1.86,1.86,0,0,1,2.63-1.23c1.14.4,1.52,1.11,1.18,2.42-.74,2.88-1.33,5.81-1.85,8.74a9.09,9.09,0,0,0,.26,2.51l.77.21a15.23,15.23,0,0,0,2.51-2.85c1.25-2.39,2.12-5,3.41-7.35a3.71,3.71,0,0,1,2.57-1.52c1.12-.13,1.6.93,1.6,2s-.05,2.42-.07,3.62a9,9,0,0,0,0,1.72c.53,3.07,3.11,4.41,5.7,2.73a11.56,11.56,0,0,0,3.75-3.71,65.51,65.51,0,0,0,3.78-8.31,5,5,0,0,0-.17-2.49,4.37,4.37,0,0,1,4-5.16c1.65,0,2.4,1.11,1.78,2.63a2.2,2.2,0,0,1-.15.31c-1.72,3.09-1.11,4,2.56,5,4,1.09,4,1,2.18,4.73-.1.21-.22.41-.3.62-.61,1.58-.62,3.44.7,4.26a4.44,4.44,0,0,0,4-.27,16.85,16.85,0,0,0,4.8-4.79c1-1.55.82-3.75,1.53-5.51a17,17,0,0,1,2.85-4.83,3.92,3.92,0,0,1,5.61-.47,2.53,2.53,0,0,1,.94,2.9c-.3,1-.27,2-.52,3a8.26,8.26,0,0,1-4,4.83c-.54.36-1.35,1.14-1.25,1.5a4.33,4.33,0,0,0,1.56,2.43,4.86,4.86,0,0,0,4.79,0,19.41,19.41,0,0,0,8.87-7.93c.2-.34.42-.8.74-.93a17.3,17.3,0,0,1,2.27-.63c.17.76.71,1.71.44,2.26a19.36,19.36,0,0,1-3,4.62c-2.94,3.15-6.28,5.74-10.79,6.33-3.36.45-5.75-.48-8.72-3.62-1,.8-1.9,1.63-2.87,2.41-2.18,1.76-7.21,3.09-10.21,1a4.91,4.91,0,0,1-1.94-4.91,35.12,35.12,0,0,1,1.05-4.22l-3.42-1.56c-.78,1.64-1.58,3.26-2.33,4.9a18.52,18.52,0,0,1-5.19,7.25c-2.77,2.13-5.86,3.25-9.11,1.32-1.4-.83-2.33-2.46-3.49-3.76-.66.91-1.53,2.18-2.46,3.39a6.72,6.72,0,0,1-5,2.48c-2,.21-2.95-1.24-3.68-2.3-3,1.71-5.76,3.55-8.75,4.93s-8-.29-9.16-3a12.43,12.43,0,0,1-7.15,4.85,6.71,6.71,0,0,1-7.64-2.75,49.69,49.69,0,0,1-4,3.18,4.29,4.29,0,0,1-6.55-1.87,66.78,66.78,0,0,1-5.71,3.58c-3.29,1.64-7.31.91-8.87-2.83a5.82,5.82,0,0,1-.24-2.85c.2-1.57.64-3.12,1-5a22.39,22.39,0,0,0-7.66,7.27,31.4,31.4,0,0,1-2.2,3.51,3.38,3.38,0,0,1-2.27,1.34c-.69,0-1.3-1.1-2.12-1.88a47.88,47.88,0,0,1-5.24,3.21,4.41,4.41,0,0,0-3,4.33,79.58,79.58,0,0,1-1.88,12.06A14.49,14.49,0,0,1,87.86,136c-5.57,2-11.45-.82-12-7.38-.43-4.78,2-8,4.88-11.11,3.68-4,8.79-5.82,13.42-8.39a8.9,8.9,0,0,0,1.58-1.5Zm.46,5.22-.66-.36c-4.42,2.6-9.25,4.58-12.67,8.69a10.36,10.36,0,0,0-2.7,8.06,5.57,5.57,0,0,0,4.66,4.88,6.59,6.59,0,0,0,5.3-2.4A13.82,13.82,0,0,0,93.91,122a12.08,12.08,0,0,1,.36-1.5Q95,116.39,95.66,112.28ZM230.54,83.5l.5.21c1.56-1.26,2.45-3.81,1.29-5.24Z" fill="#fff"/><path d="M63.38,101.07c-1.33-3.21-2.62-6.51-3.86-9.7L59.1,90.3c-.06-.15-.12-.42,0-.52a12,12,0,0,0,2.73-4.54,34.44,34.44,0,0,0,1-5.16c.18-1-.8-2.73-1.52-3.4a3.12,3.12,0,0,0-2.9-.7c-2,.5-4.85,3.59-5.18,5.87-.36,2.49.6,4.75,1.49,6.84A2,2,0,0,1,54.89,90c-.87,2.15-1.82,4.23-2.81,6.19-.68,1.36-1.48,2.7-2.25,4l-.65,1.1q-1.43,2.46-2.88,4.9L45,108.37a17,17,0,0,1-.8-2.15,11.67,11.67,0,0,1,.15-6.13,8.82,8.82,0,0,1,1-2l.36-.6c.55-1,.54-2.39-.36-2.94a2.27,2.27,0,0,0-2.86.89,4.55,4.55,0,0,0-.34.7c-.24.56-.47,1.13-.7,1.69a14.09,14.09,0,0,0,.28,12.11c1.1,2.2,1.1,2.2-.27,4.4A14.62,14.62,0,0,0,40,117.88l-.2.65a2,2,0,0,0,.31,1.45,1,1,0,0,0,.72.52l.18,0a2.35,2.35,0,0,0,1.76-.67,4.38,4.38,0,0,0,.69-1.29,5.48,5.48,0,0,1,.23-.56c.41-.81.82-1.62,1.25-2.45l.17-.33a11.46,11.46,0,0,0,6.81,3.19l.26,0a16.61,16.61,0,0,0,4.67-.1c1.68-.36,3.56-.89,4.64-2.74a3.44,3.44,0,0,1,.81-.81l.26-.21a5.35,5.35,0,0,0,1.88-3.47A18.62,18.62,0,0,0,63.38,101.07ZM57.5,95.83c.77,1.86,1.57,3.79,2.25,5.71a17.44,17.44,0,0,1,1.29,7.9,4.75,4.75,0,0,1-.51,1.43c-.1.21-.2.43-.29.64a.91.91,0,0,0-.3.5c-.31,1.44-1.61,2-2.9,2.59a7,7,0,0,1-5.81.25A12.08,12.08,0,0,1,47,111.79c1-1.71,2-3.42,3-5.07a117.9,117.9,0,0,0,6.84-12.43Zm-.6-13.6a5,5,0,0,1,2.29-2.42c.77,1.63-.44,5.43-1.35,6.36C57.82,85.67,56.23,83.87,56.9,82.23Z" fill="#fff"/><path d="M75.56,86.46c-.37-.36-1.23-.87-1.55-1.6-.44-1,1.12-2.89,2.36-2.8a2.77,2.77,0,0,1,2,1.38C78.83,84.57,77.46,86.19,75.56,86.46Z" fill="#fff"/><polygon points="161.27 35.2 250 27.32 249.7 23.86 161.27 31.71 161.27 35.2" fill="#fff"/><polygon points="161.27 46.69 250 38.89 249.7 35.43 161.27 43.2 161.27 46.69" fill="#fff"/><polygon points="161.27 57.56 250 49.76 249.7 46.3 161.27 54.08 161.27 57.56" fill="#fff"/><polygon points="173 13.56 250 6.79 249.7 3.33 173 10.07 173 13.56" fill="#fff"/><polygon points="173 23.64 250 16.9 249.7 13.44 173 20.18 173 23.64" fill="#fff"/><path d="M54.06,133.57s86.66-27.36,177.64-26.25" fill="none" stroke="#fff" stroke-linecap="round" stroke-miterlimit="10" stroke-width="2.97"/></svg>