<svg xmlns="http://www.w3.org/2000/svg" width="260" height="64" viewBox="0 0 260 64"><g id="logos"><g id="_9A84VQ" data-name="9A84VQ"><path d="M31.71,24c.41,3.52.8,6.76,1.16,10,.2,1.77.41,3.55.53,5.33.13,2.17.25,4.34.19,6.5,0,.62-.65,1.22-1,1.83a6.16,6.16,0,0,1-1.07-1.55c-.81-2.91-2.15-5.78-.78-8.88a.22.22,0,0,0,0-.16c-1.4-2.53-1.48-5.3-1.63-8.08a42.32,42.32,0,0,0-.75-5c-.12-.67-.35-1.32-.58-2.15,1.14-1,.72-2.47.68-3.94-.06-2.55-.49-5.12.48-7.63a17.78,17.78,0,0,0,.77-3.43c.4-2.42,2.59-3.24,4.12-4.62A13,13,0,0,1,36.2,1.09c.35-.21.55-.67.88-1.09.16.14.51.59.64.53,2.71-1.24,3.81,1,5.09,2.48a20.57,20.57,0,0,1,2.78,4.38A4.15,4.15,0,0,1,45.77,10c-.42,1.79-1.05,3.53-1.63,5.28-.64,1.9-2.6,2.15-4,3-1.74,1.11-3.67,1.94-5.71,3a.72.72,0,0,0,.13.55c2.64,2.24,5.35,4.41,8,6.68s5.38,4.67,7.9,7.18c1.63,1.61,2.7,3.84,4.48,5.2a8,8,0,0,1,2.79,3.62c.33.88.77,1.89-.43,2.41s-2-.1-2.36-1.3a4,4,0,0,0-2.79-2.91c-.12,0-.28-.1-.32-.2-1.68-4.13-5-6.91-8.24-9.65-3.52-3-7.24-5.7-10.88-8.52A4.65,4.65,0,0,0,31.71,24Zm-.26-4.73c1.17-.62,1.82-1.06,2.54-1.34,1.55-.6,3.48-.74,4.61-1.77C40,15,42,13.89,41.83,11.48c-.09-1.4.2-2.91-.21-4.2a34.49,34.49,0,0,0-2.48-5A34.44,34.44,0,0,0,34.66,5a5.57,5.57,0,0,0-1.94,3C32.14,11.57,31.88,15.2,31.45,19.29Z" fill="#fff"/><path d="M137.35,27c.07,2.62.27,5.08.15,7.51a31.34,31.34,0,0,1-1,4.71,6.39,6.39,0,0,0-.37,1.87c.13,1.28.24,2.42-.71,3.55-.37.45,0,1.46-.12,2.2a2.85,2.85,0,0,1-.57,1.54,1.34,1.34,0,0,1-1.31.08,2.73,2.73,0,0,1-.81-1.66c-.09-2.5-.17-5,0-7.51a46.78,46.78,0,0,1,.92-4.75,10.39,10.39,0,0,0,.07-2.23,56.65,56.65,0,0,0-.41-6.39c-.11-.64-1.13-1.39-1.87-1.62a35.11,35.11,0,0,0-5.18-1.11,25.74,25.74,0,0,0-3.83-.22,1.33,1.33,0,0,0-1,.61c-.5,1.26-.79,2.59-1.31,3.84a15.22,15.22,0,0,1-1.42,2.23c-.86,1.32-1.7,2.65-2.55,4l.35.36-1.59-.24c.28-1.95.42-3.89.86-5.77.23-.93,1.12-1.67,1.5-2.59a17.29,17.29,0,0,0,.75-2.79c-1.72-.78-3.19-1.4-4.6-2.14-.3-.16-.36-.79-.53-1.2.43-.13.89-.43,1.28-.35,1,.19,2,.59,3.07.83a3.34,3.34,0,0,0,3.8-1.73,28.29,28.29,0,0,0,.88-3.06c.14-.45.25-1.09.58-1.27a9,9,0,0,0,3.27-3.92,15,15,0,0,1,2.11-3.31c.67-.7,2.11-1.55,2.65-1.27,1,.53,2.47.79,2.75,2.58a20.93,20.93,0,0,0,2,5,25.6,25.6,0,0,1,1.7,3.5c.25.95-.19,2.06-.14,3.09a11.79,11.79,0,0,0,.61,3.72c.19.47,1.35.61,2.1.78a21.27,21.27,0,0,1,2.82.49c.45.18.68.94,1,1.44a4.67,4.67,0,0,1-1.36.8C140.48,26.79,139.11,26.85,137.35,27ZM128.88,9.85a50.28,50.28,0,0,0-6,10.25l10.37,2C133.2,17.74,132.47,13.51,128.88,9.85Z" fill="#fff"/><path d="M73.05,26.44l-4.72-1.9c.17,1.21.26,2.09.45,3,.46,2.12,1,4.23,1.47,6.35.75,3.46,1.46,6.93,2.18,10.4q1.16,5.53,2.29,11.08c.22,1.09,0,2.11,1,3.22.77.87.28,2.89.22,4.4,0,.25-.76.7-1.1.65a1.91,1.91,0,0,1-1.36-.84A28,28,0,0,1,72.07,58c-.49-2.75-.77-5.54-1.16-8.31,0-.37-.08-.92-.31-1.07-1.4-.91-.76-1.67-.34-2.37-.42-1.91-.83-3.83-1.25-5.74-.05-.22-.11-.43-.17-.64-.59-2.1-1.14-4.21-1.8-6.28a5.64,5.64,0,0,0-1.11-1.47c1.46-.92,0-2.1-.12-3.17-.24-1.88-.88-3.71-1.28-5.58a1.28,1.28,0,0,1,.4-1,16.9,16.9,0,0,1,1.8-1.25c.6.27,1.59.79,2.64,1.16s2.4.65,3.58,1c1,.31,2,.74,3,1.05,2.08.64,4.16,1.28,6.27,1.8.32.07.94-.41,1.18-.79.86-1.36,1.62-2.79,2.39-4.21A12.11,12.11,0,0,0,87,18.73c.53-1.9,2.28-2.05,3.6-2.16.69-.05,1.45,1.5,2.28,2.22,1.81,1.56,2.35,3.72,3.15,5.83.53,1.41,1.75,2.54,2.61,3.83a7.44,7.44,0,0,1,.64,1.5c1,2.47,2.06,4.93,3,7.41a11.91,11.91,0,0,1,.49,1.89c.47,2.11,1,4.22,1.37,6.35a1.69,1.69,0,0,1-.54,1.46,2.17,2.17,0,0,1-1.88,0A4,4,0,0,1,100.52,45,57.14,57.14,0,0,0,97.4,33.64c-1.22-3-2.23-6-4.31-8.58a11.33,11.33,0,0,1-.83-1.94c-.69-1.3-1.45-2.56-2.17-3.84l-.57.09a9,9,0,0,1-1,2.45c-1.39,1.69-1.88,3.75-2.7,5.68a1.57,1.57,0,0,1-1.14.86c-1.94-.17-3.82.66-5.86-.64C77.2,26.7,74.87,26.8,73.05,26.44Z" fill="#fff"/><path d="M233.61,35.12c.53-1.27,1-2.41,1.49-3.57s1-2.33.42-3.88c-.27-.72,1.1-2.06,1.79-3.05a34.22,34.22,0,0,1,2.17-4.9,6.2,6.2,0,0,1,2.86-2.46c.87-.32,2.09.29,3.15.52a22,22,0,0,1,3.8.94,8.69,8.69,0,0,1,2.37,1.81,55.48,55.48,0,0,1,4.11,4.15,31,31,0,0,1,2.6,3.86c.38.59.56,1.33,1,1.89a2.59,2.59,0,0,1-.79,4,1.83,1.83,0,0,0-.88,1.06c-.15,1.4-.93,1.81-2.21,2.11-1.47.34-2.79,1.23-4.24,1.69a13.31,13.31,0,0,1-3,.37c-1.22.09-2.45.12-3.67.14s-2.55,0-3.82,0a5,5,0,0,0-5,3.66,2.44,2.44,0,0,1-.33.88,6,6,0,0,0-1.59,5.25,1.31,1.31,0,0,1-.11.81c-1.78,3.19-3.55,6.39-5.43,9.53a2,2,0,0,1-1.59.89c-.43-.09-.7-1-1-1.48a4.49,4.49,0,0,0,2.66-3.71,1.4,1.4,0,0,1,.22-.65,9.9,9.9,0,0,0,2-5,25.81,25.81,0,0,1,1-5.19,15.91,15.91,0,0,1,1.2-2.59l-.24-.47a20.4,20.4,0,0,1-3.59,1,2.9,2.9,0,0,1-2.33-.75c-.59-1,.48-1.21,1.23-1.61,1.49-.8,2.92-1.5,4.7-1.06.28.06,1-.57,1.06-.94A26,26,0,0,0,233.61,35.12Zm3.47,3.18.57.22a17.15,17.15,0,0,1,1.83-1,4.1,4.1,0,0,1,1.36-.17c.59,0,1.17,0,1.75,0s1.36-.17,2-.22,1.17,0,1.75,0c.93,0,1.86.06,2.78,0a13.5,13.5,0,0,0,4-.64,10.42,10.42,0,0,0,3.1-2.43c.51-.53-.41-3.92-1-4.57-1.42-1.62-3.18-3.1-4.07-5a7.88,7.88,0,0,0-3-3.23c-2-1.35-3.83-1.07-5.23.72a14.21,14.21,0,0,0-2.64,5.82c-.11.5.15,1.12-.05,1.55-.94,2-2.09,4-2.95,6.07A9.83,9.83,0,0,0,237.08,38.3Z" fill="#fff"/><path d="M175,16.92a9.82,9.82,0,0,0,1.16,0c2.61-.35,2.56-.34,3.3,2.25.93,3.28,2.4,6.48,2.82,9.82.54,4.32,2.85,8.09,3.13,12.5.19,3.06,1.36,6.07,2.28,9a19.75,19.75,0,0,0,2.06,3.57,13.36,13.36,0,0,0,.4-1.44c.53-4,1-8,1.59-12a28.77,28.77,0,0,1,.93-3c.34-1.3.58-2.61.87-3.92.2-.88.35-1.78.63-2.64.53-1.69,1.24-3.36.31-4.59.63-.71,1.09-1,1.24-1.44.29-.83.33-1.75.61-2.58.71-2.08,1.05-4.5,2.37-6.12a15.4,15.4,0,0,0,2.86-6c.14-.52,1.6-.67,2.45-1,0,1.19.41,2.51,0,3.54-.6,1.62-1.8,3-2.57,4.56s-1.16,3.13-1.88,4.63a17.19,17.19,0,0,0-1.7,7.08c-.07,2.19-1.2,4.33-1.85,6.5-.41,1.38-.5,2.95-1.25,4.1-1.84,2.83-.57,6.05-1.49,9S191.83,55,191,58a2.63,2.63,0,0,1-1.56,1.57c-1,.26-.86-.9-1.26-1.44-1.39-1.88-2.13-4-3.2-6a6.31,6.31,0,0,1-1-4.37A3.87,3.87,0,0,0,183.6,46c-.39-1.3-1.15-2.58-1.16-3.87A25.3,25.3,0,0,0,179.76,32a18.41,18.41,0,0,1-.89-3.49c-.33-1.53-.29-3.16-1.53-4.4-.28-.28-.14-.93-.27-1.39-.26-.91-.2-1.82-1.35-2.48C175.1,19.89,175.23,18.24,175,16.92Z" fill="#fff"/><path d="M211.11,5.62a4.74,4.74,0,0,1,4.22-1.47,18.48,18.48,0,0,0,3.22.31c3.35-.17,6.7-.51,10.06-.66a16.19,16.19,0,0,1,3.17.52c-.5,1.64-1.77,2-3.17,2.06-3.59.06-7.18,0-10.77,0a2,2,0,0,0-2.07,2.75,3.07,3.07,0,0,1,.24.91c-.1,1.46-.59,3-.29,4.35s-.26,2.31-.6,3.42c-.55,1.78-.09,3.1,1.23,3.38,2.36.49,4.74.88,7.09,1.41.62.14,1.65.67,1.64,1,0,1.22-1.09,1.18-2,1.05-2.51-.39-5-.88-7.5-1.23-.3,0-.93.51-1,.85-.28,2.08-.42,4.19-.67,6.28a7.5,7.5,0,0,1-.55,1.68c-.37,1,.18,1.87,1.16,1.74,1.56-.2,3.13-.42,4.69-.67,2.8-.45,5.59-.93,8.39-1.38a6,6,0,0,1,1,0c-.22,2.3-1,2.85-3.11,3-3,.18-6,.56-9.05.87a16.57,16.57,0,0,1-3,.3A3.44,3.44,0,0,1,211.69,35a2.7,2.7,0,0,1-.86-1.63c.13-1.29.23-2.58.39-3.86.13-1.11.39-2.21.45-3.33a12.65,12.65,0,0,0-.18-2.81,10,10,0,0,0-.71-1.77l1.5-.58c.27-1.9.59-3.8.8-5.72.1-.9-.05-1.82,0-2.73s.15-2,.21-3.06C213.38,7.87,213.13,6.36,211.11,5.62Z" fill="#fff"/><path d="M8.91,36.74C9.45,38.38,10,40,10.52,41.67c.06.2.21.45.15.61-.72,1.79.48,3.29.81,4.89s1.21,3.33,1.71,5c.34,1.16,1.26,2.52-.49,3.42-1.16.6-1.84.09-2.2-1.17-.56-1.95-1.31-3.84-2.05-5.74-.55-1.39-1.28-2.6-1.12-4.3.15-1.51-.61-3.09-.86-4.66-.31-1.88-1.19-3.67-.82-5.67A1.48,1.48,0,0,0,5,32.89a2.71,2.71,0,0,1-1.27-2.47c-.2-2.27-.1-4.62-1.45-6.67a1.93,1.93,0,0,1,0-1.42c.34-1,.31-1.83-.76-2.36-.14-.07-.31-.2-.34-.33C.78,17.6.36,15.57,0,13.53c-.06-.35.13-1,.35-1.08a1.54,1.54,0,0,1,1.34.15c1,1,2.22,2,2.16,3.69A6.33,6.33,0,0,0,5.16,20c1,1.55,1,3.71,1.48,5.6.28,1.15.57,2.3.84,3.45.4,1.76.75,3.53,1.19,5.27a23.72,23.72,0,0,0,.8,2.28Z" fill="#fff"/></g></g></svg>