<svg xmlns="http://www.w3.org/2000/svg" width="200" height="104" viewBox="0 0 200 104"><path d="M77.09 40.09a45.23 45.23 0 0 1-4.41 19.78 35.46 35.46 0 0 1-13.07 14.79Q51 80.24 39.18 80.23a38.49 38.49 0 0 1-16.95-3.54 33.25 33.25 0 0 1-12-9.48 40.75 40.75 0 0 1-6.87-13A47 47 0 0 1 1.17 40a45.9 45.9 0 0 1 4.26-19.56A35.07 35.07 0 0 1 18.27 5.62Q26.84 0 38.78 0q10.88 0 18.5 4.05a32.85 32.85 0 0 1 11.89 10.23 41.91 41.91 0 0 1 6.09 12.93 49.33 49.33 0 0 1 1.83 12.88zm-16.25-.23a73.74 73.74 0 0 0-1-12.34A35.12 35.12 0 0 0 56.43 17a19.53 19.53 0 0 0-6.72-7.48 18.89 18.89 0 0 0-10.53-2.78q-8.62 0-13.47 4.88a25.28 25.28 0 0 0-6.57 12.22 69.94 69.94 0 0 0-1.73 16 94.06 94.06 0 0 0 .56 10 41.52 41.52 0 0 0 2.65 10.66 21.87 21.87 0 0 0 6.72 9.2q4.66 3.74 11.94 3.74t11.81-3.86a22.59 22.59 0 0 0 6.62-9.42 43 43 0 0 0 2.61-10.65 94 94 0 0 0 .52-9.65zM121 40.22c0 20.63-26.5 14.57-26.5 14.57v13.86a12.41 12.41 0 0 0 .5 3.86 4.42 4.42 0 0 0 2 2.54 13.19 13.19 0 0 0 4.76.65v2.59H77V75.7a11.83 11.83 0 0 0 4.64-.7 4.59 4.59 0 0 0 2-2.57 12.9 12.9 0 0 0 .45-3.79V35.89a10.85 10.85 0 0 0-.44-3.46 4.87 4.87 0 0 0-2-2.73 10.14 10.14 0 0 0-4.38-.7v-2.83L91 25.79l2.38-.06h7.02a66.83 66.83 0 0 1 8.33.88 18.33 18.33 0 0 1 8.08 3.89q4.19 3.17 4.19 9.72zm-11.19.07q0-6.19-3.44-8.28a17.24 17.24 0 0 0-9-2.09c-.68 0-1.63 0-2.84.08v20.85h3.35a17 17 0 0 0 8.65-1.93c2.16-1.29 3.27-4.16 3.27-8.63zM180 84.49l.71 1.13a37.77 37.77 0 0 1-19.32-.22c-9.54-2.79-16.14-12.11-21.35-25.58H125.5s-4.17 10.92-4.36 11.74a2.88 2.88 0 0 0 1.69 3.52 17.76 17.76 0 0 0 4.87.62v2.59h-19.29V75.7a13.49 13.49 0 0 0 4.84-.81c1-.53 1.85-2.47 2.71-4s18.69-45.51 18.69-45.51h2.68s12.9 34.88 19.22 46.51C165.66 88.7 180 84.49 180 84.49zm-42-28.68l-5.75-14.89-5.4 14.89z" fill="#fff"/><path d="M197.63 64.85l-.33 13.44h-38.64V75.7q4.54 0 5.85-1.38c.87-.92 1.31-3.43 1.31-5.67v-32.6a11.07 11.07 0 0 0-.44-3.51 3.41 3.41 0 0 0-2-1.93 12.28 12.28 0 0 0-4.7-.69V26.4h24.79v3.52a12.93 12.93 0 0 0-4.67.65 3.47 3.47 0 0 0-2.07 1.9 10.06 10.06 0 0 0-.5 3.58v29.84c0 2.35.33 4 .33 5 0 4.53 6.34 5.2 11.13 3.09 4-1.76 6.61-5.63 6.61-9.18zM0 93.34h200v9.75H0z" fill="#fff"/></svg>