<svg xmlns="http://www.w3.org/2000/svg" width="350" height="62" viewBox="0 0 350 62"><path d="M0 30.91V0h13.75a6.6 6.6 0 0 1 4.84 2 6.63 6.63 0 0 1 2 4.83v3.47a6.63 6.63 0 0 1-2 4.84 6.6 6.6 0 0 1-4.84 2H6.86v13.77zm6.86-17.16h3.44a3.48 3.48 0 0 0 3.45-3.45V6.86a3.26 3.26 0 0 0-1-2.41 3.36 3.36 0 0 0-2.43-1H6.86zM27.46 30.91v-24a6.63 6.63 0 0 1 2-4.84 6.6 6.6 0 0 1 4.84-2h6.89a6.6 6.6 0 0 1 4.84 2 6.59 6.59 0 0 1 2 4.83v24.01h-6.82V17.16h-6.89v13.75zm6.86-17.16h6.89V6.86a3.26 3.26 0 0 0-1-2.41 3.42 3.42 0 0 0-4.85 0 3.26 3.26 0 0 0-1 2.41zM54.93 30.91V0h1.56l19 17.16V0H79v30.91h-1.6l-19-17.16v17.16zM85.84 30.91V0h13.75a6.58 6.58 0 0 1 4.83 2 6.59 6.59 0 0 1 2 4.83v17.22a6.93 6.93 0 0 1-6.85 6.86zm6.86-3.45h3.44a3.45 3.45 0 0 0 3.45-3.41V6.86a3.23 3.23 0 0 0-1-2.41 3.34 3.34 0 0 0-2.42-1H92.7zM120.16 0h6.89a6.6 6.6 0 0 1 4.84 2 6.63 6.63 0 0 1 2 4.83v17.22a6.93 6.93 0 0 1-6.86 6.86h-6.89a6.9 6.9 0 0 1-6.86-6.86V6.86a6.63 6.63 0 0 1 2-4.84A6.6 6.6 0 0 1 120.16 0zm0 6.86v17.19a3.45 3.45 0 0 0 3.45 3.41 3.28 3.28 0 0 0 2.43-1 3.31 3.31 0 0 0 1-2.4V6.86a3.26 3.26 0 0 0-1-2.41 3.43 3.43 0 0 0-4.86 0 3.29 3.29 0 0 0-1.02 2.41zM140.77 30.91V0h13.74a6.6 6.6 0 0 1 4.84 2 6.59 6.59 0 0 1 2 4.83v1.9a7.31 7.31 0 0 1-1.58 4.43q-1.57 2.13-5.28 2.13h3.42a3.47 3.47 0 0 1 3.44 3.45v12.17h-6.86v-10.3a3.47 3.47 0 0 0-3.44-3.45h-3.45v13.75zm6.85-17.16h3.45a3.31 3.31 0 0 0 2.42-1 3.33 3.33 0 0 0 1-2.43V6.86a3.26 3.26 0 0 0-1-2.41 3.34 3.34 0 0 0-2.42-1h-3.45zM168.23 30.91v-24a6.6 6.6 0 0 1 2-4.84 6.6 6.6 0 0 1 4.84-2H182a6.6 6.6 0 0 1 4.84 2 6.63 6.63 0 0 1 2 4.83v24.01H182V17.16h-6.89v13.75zm6.86-17.16H182V6.86a3.26 3.26 0 0 0-1-2.41 3.43 3.43 0 0 0-4.86 0 3.29 3.29 0 0 0-1 2.41zM222.92 6.86h-3.42q-.45-3.45-3.25-3.45a3.81 3.81 0 0 0-2.72.87 3.42 3.42 0 0 0-.92 2.59 3.55 3.55 0 0 0 1 2.42l7.27 8.18a7.11 7.11 0 0 1 2 4.84v1.74a6.93 6.93 0 0 1-6.86 6.86h-3.45a7 7 0 0 1-5.13-1.72 7 7 0 0 1-1.72-5.14h3.44v.56a2.39 2.39 0 0 0 1.08 2.13 4.15 4.15 0 0 0 2.36.72 3.4 3.4 0 0 0 2.64-.88 3.7 3.7 0 0 0 .81-2.58 3.49 3.49 0 0 0-1-2.41l-7.27-8.15a7.11 7.11 0 0 1-2-4.84V6.86a6.62 6.62 0 0 1 2-4.83 6.57 6.57 0 0 1 4.84-2h3.45q6.43-.03 6.85 6.83zM233.22 30.91V3.44h-6.86V0H247v3.44h-6.86v27.47zM250.41 30.91V0h13.75A6.6 6.6 0 0 1 269 2a6.59 6.59 0 0 1 2 4.83v1.9a7.37 7.37 0 0 1-1.58 4.43q-1.57 2.13-5.28 2.13h3.41a3.47 3.47 0 0 1 3.45 3.45v12.17h-6.86v-10.3a3.47 3.47 0 0 0-3.44-3.45h-3.45v13.75zm6.86-17.16h3.45a3.31 3.31 0 0 0 2.42-1 3.33 3.33 0 0 0 1-2.43V6.86a3.26 3.26 0 0 0-1-2.41 3.34 3.34 0 0 0-2.42-1h-3.45zM277.88 30.91v-24a6.6 6.6 0 0 1 2-4.84 6.58 6.58 0 0 1 4.84-2h6.89a6.58 6.58 0 0 1 4.83 2 6.59 6.59 0 0 1 2 4.83v24.01h-6.85V17.16h-6.89v13.75zm6.86-17.16h6.89V6.86a3.23 3.23 0 0 0-1-2.41 3.42 3.42 0 0 0-4.85 0 3.25 3.25 0 0 0-1 2.41zM308.75 30.91V0h6.88v30.91zM326 30.91V0h1.56l19 17.16V0H350v30.91h-1.58l-19-17.16v17.16z" fill="#fff"/><path fill="none" stroke="#fff" stroke-linecap="round" stroke-linejoin="round" stroke-width="1.24" d="M1 49.48h38.76l1.37-5.14 2.25 13.99 2.73-21.21 3.26 13.69h292.25"/><circle cx="341.61" cy="50.8" r="2.16" fill="#fff"/></svg>