<svg id="images" xmlns="http://www.w3.org/2000/svg" width="300" height="96" viewBox="0 0 300 96"><polygon points="25.68 0 25.68 26.64 19.8 26.64 19.8 16.75 16.19 14.95 16.19 0 13.67 0 13.67 26.64 7.58 26.64 7.58 16.75 3.77 14.84 3.77 0 1.25 0 1.25 29.48 28.2 29.48 28.2 0 25.68 0" fill="#fff"/><polygon points="37.48 14.95 37.48 0 34.95 0 34.95 29.48 41.09 29.48 41.09 16.75 37.48 14.95" fill="#fff"/><polygon points="69.79 3.73 69.79 0 47.83 0 47.83 4.64 54.17 4.64 54.17 1.54 66.06 1.54 66.06 2.32 47.83 17.69 47.83 29.48 69.79 29.48 69.79 26.64 54.17 26.64 54.17 17.06 69.79 3.73" fill="#fff"/><path d="M88.81,0H75.48V29.48h6.2V22.69l-3.44-2.13V14.74H92.83L96.45,22v7.48H99.8V22.06ZM78.24,12.86V1.6h8L91.9,12.86Z" fill="#fff"/><path d="M149.57,0H132.79V29.48l17.09,0,2.94-2.94V3.27Zm-.19,24.75-1.61,1.83H139V17.65l-3.45-2.13V1.6h12l1.81,1.81Z" fill="#fff"/><path d="M126.77,11.8V3.27L123.51,0h-18.9V29.48h6.21V22.69l-3.45-2.13V14.74h9.14l7.43,8.86v5.88h2.48v-6.3l-6.82-8.44h4.23Zm-19.4.93V1.6H122l1.81,1.81v7.21l-2.11,2.11Z" fill="#fff"/><path d="M191.67,11.8V3.27L188.42,0H169.51V29.48h6.21V22.69l-3.45-2.13V14.74h9.14l7.43,8.86v5.88h2.48v-6.3l-6.82-8.44h4.23Zm-19.4.93V1.6h14.65l1.81,1.81v7.21l-2.11,2.11Z" fill="#fff"/><path d="M216.83,0H200.76L197.5,3.17v23l3.35,3.35,16.3,0,2.93-2.94V3.27Zm-.19,24.75L215,26.59H203.86V17.73l-3.79-1.87V3.35l1.75-1.75h13l1.81,1.81Z" fill="#fff"/><path d="M272.9,0H256.83l-3.26,3.16v23l3.35,3.35,16.3,0,2.93-2.94V3.27Zm-.19,24.75-1.61,1.83H259.93V17.73l-3.79-1.87V3.35l1.75-1.75h13l1.81,1.81Z" fill="#fff"/><polygon points="299.83 1.52 299.83 0 279.89 0 279.89 1.52 288.69 1.52 288.69 29.48 294.83 29.48 294.83 16.75 291.22 14.95 291.22 1.52 299.83 1.52" fill="#fff"/><path d="M245,12.94h-4.08l1.14-1.14V3.27L238.83,0H226V29.48h5v0h14l3.23-3.24V16.13ZM237.34,1.6l1.81,1.81v7.21L237,12.73h-8.31V1.6Zm8,23.09-2.05,2.19h-11.1V22.69l-3.45-2.13V14.74h14.86l1.74,1.88Z" fill="#fff"/><path d="M117.53,54.37h-1.68V52.7h-6.7v1.67h5v1.68h-5v1.67h-1.68v5h1.68v1.68h5V62.75h1.67v1.68h3.35V62.75h-1.67Zm-5,6.71v1.67h-1.68v-5h3.36v3.36Z" fill="#fff"/><polygon points="123.61 52.7 120.26 52.7 120.26 54.37 121.94 54.37 121.94 64.43 125.29 64.43 125.29 54.37 123.61 54.37 123.61 52.7" fill="#fff"/><polygon points="130.31 52.7 125.29 52.7 125.29 54.37 128.64 54.37 128.64 64.43 131.99 64.43 131.99 54.37 130.31 54.37 130.31 52.7" fill="#fff"/><path d="M145.09,47.67h-5v1.68h1.67V52.7h-3.35v1.67h-1.67v1.68H135v6.7h1.68v1.68h5V62.75h1.68v1.68h3.35V62.75h-1.67Zm-5,13.41v1.67h-1.68v-6.7h1.68V54.37h1.67v6.71Z" fill="#fff"/><polygon points="164.82 47.67 164.82 54.37 159.79 54.37 159.79 47.67 156.44 47.67 156.44 64.43 159.79 64.43 159.79 56.05 164.82 56.05 164.82 64.43 168.17 64.43 168.17 47.67 164.82 47.67" fill="#fff"/><polygon points="176.49 52.7 171.46 52.7 171.46 54.37 173.13 54.37 173.13 62.75 171.46 62.75 171.46 64.43 178.16 64.43 178.16 62.75 176.49 62.75 176.49 52.7" fill="#fff"/><rect x="173.13" y="47.67" width="3.35" height="3.35" fill="#fff"/><polygon points="192.27 56.05 192.27 54.37 190.59 54.37 190.59 52.7 182.22 52.7 182.22 54.37 180.54 54.37 180.54 56.05 182.22 56.05 182.22 57.72 183.89 57.72 183.89 59.4 187.24 59.4 187.24 61.08 188.92 61.08 188.92 62.75 183.89 62.75 183.89 61.08 180.54 61.08 180.54 62.75 182.22 62.75 182.22 64.43 190.59 64.43 190.59 62.75 192.27 62.75 192.27 61.08 190.59 61.08 190.59 59.4 188.92 59.4 188.92 57.72 185.57 57.72 185.57 56.05 183.89 56.05 183.89 54.37 188.92 54.37 188.92 56.05 192.27 56.05" fill="#fff"/><polygon points="10.05 92.14 8.38 92.14 8.38 93.81 5.03 93.81 5.03 80.41 6.7 80.41 6.7 78.73 0 78.73 0 80.41 1.68 80.41 1.68 93.81 0 93.81 0 95.49 11.73 95.49 11.73 90.46 10.05 90.46 10.05 92.14" fill="#fff"/><path d="M25.37,83.76H17v1.67H15.31v8.38H17v1.68h8.38V93.81H27V92.14H23.69v1.67h-5v-5H27V85.43H25.37Zm-1.68,3.35h-5V85.43h5Z" fill="#fff"/><path d="M138.38,83.76H130v1.67h-1.67v8.38H130v1.68h8.38V93.81h1.68V92.14h-3.35v1.67h-5v-5h8.38V85.43h-1.68Zm-1.67,3.35h-5V85.43h5Z" fill="#fff"/><path d="M268,83.76h-8.38v1.67H258v8.38h1.68v1.68H268V93.81h1.67V92.14h-3.35v1.67h-5v-5h8.38V85.43H268Zm-1.68,3.35h-5V85.43h5Z" fill="#fff"/><polygon points="40.16 83.76 31.78 83.76 31.78 85.43 30.11 85.43 30.11 87.11 31.78 87.11 31.78 88.78 33.46 88.78 33.46 90.46 36.81 90.46 36.81 92.14 38.49 92.14 38.49 93.81 33.46 93.81 33.46 92.14 30.11 92.14 30.11 93.81 31.78 93.81 31.78 95.49 40.16 95.49 40.16 93.81 41.84 93.81 41.84 92.14 40.16 92.14 40.16 90.46 38.49 90.46 38.49 88.78 35.14 88.78 35.14 87.11 33.46 87.11 33.46 85.43 38.49 85.43 38.49 87.11 41.84 87.11 41.84 85.43 40.16 85.43 40.16 83.76" fill="#fff"/><polygon points="54.9 83.76 46.52 83.76 46.52 85.43 44.85 85.43 44.85 87.11 46.52 87.11 46.52 88.78 48.2 88.78 48.2 90.46 51.55 90.46 51.55 92.14 53.23 92.14 53.23 93.81 48.2 93.81 48.2 92.14 44.85 92.14 44.85 93.81 46.52 93.81 46.52 95.49 54.9 95.49 54.9 93.81 56.58 93.81 56.58 92.14 54.9 92.14 54.9 90.46 53.23 90.46 53.23 88.78 49.88 88.78 49.88 87.11 48.2 87.11 48.2 85.43 53.23 85.43 53.23 87.11 56.58 87.11 56.58 85.43 54.9 85.43 54.9 83.76" fill="#fff"/><polygon points="92.88 83.76 89.53 83.76 89.53 93.81 86.18 93.81 86.18 83.76 82.83 83.76 82.83 93.81 84.5 93.81 84.5 95.49 94.56 95.49 94.56 93.81 92.88 93.81 92.88 83.76" fill="#fff"/><polygon points="195.58 83.76 192.23 83.76 192.23 93.81 188.88 93.81 188.88 83.76 185.53 83.76 185.53 93.81 187.2 93.81 187.2 95.49 197.26 95.49 197.26 93.81 195.58 93.81 195.58 83.76" fill="#fff"/><polygon points="107.91 83.76 99.53 83.76 99.53 85.43 97.86 85.43 97.86 93.81 99.53 93.81 99.53 95.49 107.91 95.49 107.91 93.81 109.59 93.81 109.59 92.14 106.23 92.14 106.23 93.81 101.21 93.81 101.21 85.43 106.23 85.43 106.23 87.11 109.59 87.11 109.59 85.43 107.91 85.43 107.91 83.76" fill="#fff"/><polygon points="123.17 83.76 114.79 83.76 114.79 85.43 113.12 85.43 113.12 93.81 114.79 93.81 114.79 95.49 123.17 95.49 123.17 93.81 124.85 93.81 124.85 92.14 121.5 92.14 121.5 93.81 116.47 93.81 116.47 85.43 121.5 85.43 121.5 87.11 124.85 87.11 124.85 85.43 123.17 85.43 123.17 83.76" fill="#fff"/><polygon points="77.62 78.73 69.24 78.73 69.24 80.41 67.57 80.41 67.57 83.76 69.24 83.76 69.24 85.43 70.92 85.43 70.92 87.11 74.27 87.11 74.27 88.78 75.94 88.78 75.94 93.81 70.92 93.81 70.92 90.46 67.57 90.46 67.57 93.81 69.24 93.81 69.24 95.49 77.62 95.49 77.62 93.81 79.3 93.81 79.3 88.78 77.62 88.78 77.62 87.11 75.94 87.11 75.94 85.43 72.59 85.43 72.59 83.76 70.92 83.76 70.92 80.41 75.94 80.41 75.94 83.76 79.3 83.76 79.3 80.41 77.62 80.41 77.62 78.73" fill="#fff"/><polygon points="153.75 83.76 145.37 83.76 145.37 85.43 143.69 85.43 143.69 87.11 145.37 87.11 145.37 88.78 147.04 88.78 147.04 90.46 150.39 90.46 150.39 92.14 152.07 92.14 152.07 93.81 147.04 93.81 147.04 92.14 143.69 92.14 143.69 93.81 145.37 93.81 145.37 95.49 153.75 95.49 153.75 93.81 155.42 93.81 155.42 92.14 153.75 92.14 153.75 90.46 152.07 90.46 152.07 88.78 148.72 88.78 148.72 87.11 147.04 87.11 147.04 85.43 152.07 85.43 152.07 87.11 155.42 87.11 155.42 85.43 153.75 85.43 153.75 83.76" fill="#fff"/><polygon points="168.43 83.76 160.05 83.76 160.05 85.43 158.38 85.43 158.38 87.11 160.05 87.11 160.05 88.78 161.73 88.78 161.73 90.46 165.08 90.46 165.08 92.14 166.76 92.14 166.76 93.81 161.73 93.81 161.73 92.14 158.38 92.14 158.38 93.81 160.05 93.81 160.05 95.49 168.43 95.49 168.43 93.81 170.11 93.81 170.11 92.14 168.43 92.14 168.43 90.46 166.76 90.46 166.76 88.78 163.41 88.78 163.41 87.11 161.73 87.11 161.73 85.43 166.76 85.43 166.76 87.11 170.11 87.11 170.11 85.43 168.43 85.43 168.43 83.76" fill="#fff"/><polygon points="181.36 80.41 181.36 78.73 176.68 78.73 176.68 80.41 175 80.41 175 85.43 173.33 85.43 173.33 87.11 175 87.11 175 93.81 173.33 93.81 173.33 95.49 180.03 95.49 180.03 93.81 178.36 93.81 178.36 87.11 180.03 87.11 180.03 85.43 178.36 85.43 178.36 80.41 180.03 80.41 180.03 82.08 181.71 82.08 181.71 83.76 183.38 83.76 183.38 80.41 181.36 80.41" fill="#fff"/><polygon points="204.92 78.73 199.89 78.73 199.89 80.41 201.57 80.41 201.57 93.81 199.89 93.81 199.89 95.49 206.6 95.49 206.6 93.81 204.92 93.81 204.92 78.73" fill="#fff"/><polygon points="276.4 83.76 273.05 83.76 273.05 85.43 274.72 85.43 274.72 95.49 278.08 95.49 278.08 85.43 276.4 85.43 276.4 83.76" fill="#fff"/><polygon points="283.1 83.57 278.08 83.57 278.08 85.25 281.43 85.25 281.43 95.3 284.78 95.3 284.78 85.25 283.1 85.25 283.1 83.57" fill="#fff"/><path d="M298.32,93.63V78.54h-5v1.68H295v3.35h-3.35v1.68H290v1.67h-1.68v6.71H290V95.3h5V93.63h1.68V95.3H300V93.63ZM295,92H293.3v1.68h-1.68V86.92h1.68V85.25H295Z" fill="#fff"/><polygon points="217.38 78.73 217.38 80.41 219.05 80.41 219.05 93.81 217.38 93.81 217.38 95.49 224.08 95.49 224.08 93.81 222.4 93.81 222.4 87.11 224.08 87.11 224.08 88.78 225.75 88.78 225.75 83.76 224.08 83.76 224.08 85.43 222.4 85.43 222.4 80.41 225.4 80.41 225.4 82.08 227.08 82.08 227.08 83.76 228.75 83.76 228.75 78.73 217.38 78.73" fill="#fff"/><polygon points="242.27 83.76 237.59 83.76 237.59 85.43 235.92 85.43 235.92 83.76 232.57 83.76 232.57 85.43 234.24 85.43 234.24 93.81 232.57 93.81 232.57 95.49 239.27 95.49 239.27 93.81 237.59 93.81 237.59 87.11 239.27 87.11 239.27 85.43 240.59 85.43 240.59 88.78 243.95 88.78 243.95 85.43 242.27 85.43 242.27 83.76" fill="#fff"/><polygon points="252.87 83.76 247.84 83.76 247.84 85.43 249.52 85.43 249.52 93.81 247.84 93.81 247.84 95.49 254.54 95.49 254.54 93.81 252.87 93.81 252.87 83.76" fill="#fff"/><rect x="249.52" y="78.73" width="3.35" height="3.35" fill="#fff"/></svg>