<svg xmlns="http://www.w3.org/2000/svg" width="230" height="147" viewBox="0 0 230 147"><g fill="#fff"><path d="M102.77 0v1.84h-5.19v13.57h-2.11V1.84h-5.19V0zM105 0h2.1v6.37h7.9V0h2.11v15.41H115V8.2h-7.92v7.21H105zM120.46 0h11.18v1.89h-9.14v4.68h8.5v1.78h-8.5v5.22h9.3v1.84h-11.34zM60.79 48.61a11.51 11.51 0 0 1-1 5.35q-1.89 3.48-7.19 3.48a8.34 8.34 0 0 1-5.23-1.66c-1.44-1.1-2.17-3.07-2.17-5.9v-1.94h3.46v1.94a4.93 4.93 0 0 0 1 3.35 3.94 3.94 0 0 0 3.09 1.12c2 0 3.25-.68 3.86-2a13.15 13.15 0 0 0 .56-4.69V29.51h3.64zM68.46 29.51H88.2v3.34H72.05v8.26H87v3.15H72.05v9.22h16.43v3.24h-20zM150.91 29.51h4.29l7.8 13.08 7.82-13.08h4.34l-10.3 16.25v11h-3.69v-11zM0 73.84h3.69v24h13.64v3.24H0zM32.41 73.84h4.17l9.87 27.21h-4l-2.8-8.15H28.9l-2.9 8.15h-3.83zm6.06 16.06l-4.13-12-4.34 12zM55.75 73.84h4.34l13.57 22v-22h3.52v27.21H73l-13.77-22v22h-3.48zM106.17 74.62q4 2.13 4.89 7.46h-3.65a6.62 6.62 0 0 0-2.7-4.34 9.15 9.15 0 0 0-5.17-1.36 8.07 8.07 0 0 0-6.23 2.83c-1.68 1.89-2.53 4.71-2.53 8.45a13.72 13.72 0 0 0 2.09 7.9q2.09 3 6.81 3a8.58 8.58 0 0 0 6-2.14c1.57-1.42 2.38-3.73 2.42-6.91h-8.54v-3.02h12v14.56h-2.38l-.88-3.5a14 14 0 0 1-3.3 2.85 12.14 12.14 0 0 1-6.07 1.37 11.69 11.69 0 0 1-8.18-3.13Q87 94.71 87 87.86T90.66 77a11.51 11.51 0 0 1 9-3.85 13.6 13.6 0 0 1 6.51 1.47zM120.55 73.84h18.87v3.34h-15.18v8.26h13.35v3.24h-13.35v12.37h-3.69zM168.47 77.73a15 15 0 0 1 2.71 9.27 16.11 16.11 0 0 1-3.1 10.13q-3.63 4.74-10.35 4.74a12.4 12.4 0 0 1-9.87-4.14 15.71 15.71 0 0 1-3.2-10.12 16.07 16.07 0 0 1 2.74-9.44q3.51-5 10.41-5 7.19-.07 10.66 4.56zm-3.25 17.34a14.87 14.87 0 0 0 2.18-8 11.48 11.48 0 0 0-2.51-7.73 8.56 8.56 0 0 0-6.89-2.96 8.94 8.94 0 0 0-6.89 2.9q-2.67 2.91-2.67 8.56a12.53 12.53 0 0 0 2.29 7.62c1.52 2.07 4 3.11 7.42 3.11q4.85 0 7.07-3.5zM176.87 73.84h12.36a12.21 12.21 0 0 1 5 .91q3.77 1.74 3.77 6.43a7.26 7.26 0 0 1-1 4 7.42 7.42 0 0 1-2.83 2.5 5.61 5.61 0 0 1 2.4 1.7 6.09 6.09 0 0 1 .9 3.43l.13 3.65c0 1 .14 4.59.14 4.59H194c-.12-.24-.18-7.59-.18-7.59a3.84 3.84 0 0 0-1.93-3.58 7.78 7.78 0 0 0-3.22-.5h-8.15v11.67h-3.68zm12 12.47a6.82 6.82 0 0 0 4-1c1-.69 1.46-1.94 1.46-3.74s-.68-3.26-2-4a6.53 6.53 0 0 0-2.93-.56h-8.76v9.3zM207.82 73.84h10.87a10.2 10.2 0 0 1 8.59 4A14.83 14.83 0 0 1 230 87a18.55 18.55 0 0 1-1.61 7.83 9.91 9.91 0 0 1-9.74 6.19h-10.83zM218 97.9a9.71 9.71 0 0 0 3-.39 6.62 6.62 0 0 0 3.44-2.78 11.48 11.48 0 0 0 1.56-4.22 16.46 16.46 0 0 0 .27-2.85q0-5.05-2-7.85T217.93 77h-6.39v20.9zM49.91 137a7.67 7.67 0 0 0 1.09 3.78c1.17 1.8 3.25 2.71 6.22 2.71a10.53 10.53 0 0 0 3.64-.6q3.14-1.14 3.14-4.11a3.6 3.6 0 0 0-1.35-3.17 13.57 13.57 0 0 0-4.26-1.61l-3.57-.83a15.63 15.63 0 0 1-5-1.8 5.74 5.74 0 0 1-2.51-5.09 8 8 0 0 1 2.47-6c1.64-1.56 4-2.35 7-2.35a11.89 11.89 0 0 1 7.11 2.07q2.91 2.05 2.91 6.6h-3.46a7 7 0 0 0-1.14-3.35q-1.61-2.13-5.48-2.13c-2.08 0-3.58.45-4.49 1.37a4.33 4.33 0 0 0-1.37 3.18 3.14 3.14 0 0 0 1.61 2.93 23.62 23.62 0 0 0 4.79 1.48l3.7.87a11.16 11.16 0 0 1 4.13 1.72 6.54 6.54 0 0 1 2.51 5.54c0 3-1.07 5.17-3.21 6.46a14 14 0 0 1-7.45 1.95c-3.29 0-5.88-.87-7.74-2.6a8.82 8.82 0 0 1-2.75-7zM76.31 118.6H80v11.24h14V118.6h3.72v27.2H94v-12.72H80v12.72h-3.69zM129.43 122.49a15 15 0 0 1 2.7 9.24 16.2 16.2 0 0 1-3.13 10.13q-3.63 4.74-10.36 4.74a12.37 12.37 0 0 1-9.86-4.15 15.65 15.65 0 0 1-3.21-10.11 16.08 16.08 0 0 1 2.74-9.45q3.53-5 10.41-5 7.28-.03 10.71 4.6zm-3.25 17.33a14.84 14.84 0 0 0 2.17-8 11.43 11.43 0 0 0-2.51-7.73 8.56 8.56 0 0 0-6.86-2.93 9 9 0 0 0-6.89 2.9c-1.78 1.94-2.66 4.79-2.66 8.56a12.52 12.52 0 0 0 2.28 7.62q2.3 3.1 7.42 3.11c3.25-.03 5.59-1.2 7.05-3.53zM141.74 118.6l5.13 22.1 6.13-22.1h4l6.16 22.14 5.13-22.14h4l-7.15 27.2h-3.87L155 123.24l-6.31 22.56h-3.87l-7.11-27.2zM95.54 29.51h12.37a12.28 12.28 0 0 1 5 .91c2.5 1.16 3.76 3.3 3.76 6.43a6.7 6.7 0 0 1-3.83 6.5 5.51 5.51 0 0 1 2.39 1.7 6.11 6.11 0 0 1 .9 3.43l.13 3.65c0 1 .14 4.59.14 4.59h-3.73c-.13-.24-.19-7.59-.19-7.59a3.83 3.83 0 0 0-1.92-3.58 7.81 7.81 0 0 0-3.22-.5h-8.11v11.67h-3.69zm12 12.47a6.82 6.82 0 0 0 4-1c1-.69 1.47-1.94 1.47-3.74s-.69-3.26-2-4a6.58 6.58 0 0 0-2.94-.56h-8.84V42zM125 29.51h12.37a12.25 12.25 0 0 1 5 .91q3.76 1.74 3.76 6.43a6.7 6.7 0 0 1-3.83 6.5 5.61 5.61 0 0 1 2.4 1.7 6.2 6.2 0 0 1 .89 3.43l.13 3.65c0 1 .14 4.59.14 4.59h-3.73c-.13-.24-.19-7.59-.19-7.59a3.83 3.83 0 0 0-1.92-3.58 7.81 7.81 0 0 0-3.22-.5h-8.15v11.67H125zM137 42a6.82 6.82 0 0 0 4-1c1-.69 1.47-1.94 1.47-3.74s-.68-3.26-2-4a6.58 6.58 0 0 0-2.94-.56h-8.75V42z"/></g></svg>