<svg xmlns="http://www.w3.org/2000/svg" width="300" height="38" viewBox="0 0 300 38"><path d="M24.66 22.37c-.36 2-1.64 6.79-2.05 8H0v-1.66c4-.27 4.38-.59 4.38-4.42V6.92c0-3.83-.46-4.19-3.88-4.47V.77h14.22v1.68c-3.55.32-4 .64-4 4.47v17.69c0 2.5.09 3.64 2.6 3.69h2.37c2.6 0 3.28-.54 4.38-1.77a19.52 19.52 0 0 0 2.87-4.74zM45.13.13c8.43 0 15.31 6.15 15.31 15.13 0 9.71-6.93 15.82-15.54 15.82-9.12 0-15.73-6.66-15.73-15.45 0-7.8 5.56-15.5 15.96-15.5zm-.69 2c-4.65 0-8.07 4.56-8.07 12.63 0 7.7 3.06 14.31 9.21 14.31 4.33 0 7.71-4.19 7.71-12.53 0-9.03-3.56-14.41-8.85-14.41zM97.55 17.91c-2.6.45-2.92.63-2.92 3.73v3.51a25.8 25.8 0 0 0 .27 4.43c-2.32.41-7.34 1.5-11 1.5-10.74 0-16.9-6.52-16.9-15.54C67 5.28 75.35.13 85.06.13a71.59 71.59 0 0 1 9.2 1c.09 2 .46 5.47.78 8l-1.78.32c-1.09-3.87-2.78-5.83-5.61-6.79a13.82 13.82 0 0 0-3.87-.55c-5.52 0-9.66 4.79-9.66 12.63 0 8 2.82 14.36 10.3 14.36a6 6 0 0 0 2.92-.64c.68-.41 1-1.18 1-2.6v-4c0-3.19-.63-3.51-4.46-4v-1.64h13.67zM116.37 2.45c-3.19.37-3.6.64-3.6 4.47V22c0 5.29-.5 9.71-4.83 13.13a15.86 15.86 0 0 1-5.65 2.78l-.73-1.73a6.79 6.79 0 0 0 4.37-5.61 56 56 0 0 0 .5-8.75V6.92c0-3.83-.45-4.15-4-4.47V.77h13.9zM135.83 30.4v-1.69c2.88-.41 2.88-.91 2.24-2.87-.46-1.37-1.19-3.42-1.87-5.24h-8.89c-.5 1.41-1.14 3.14-1.59 4.55-1 2.88.13 3.24 3.73 3.56v1.69h-11.26v-1.69c2.88-.37 3.61-.78 5.15-4.6L132.83.54 135 .13c2.92 7.93 6 16 9 23.66 1.69 4.24 2.1 4.55 5.06 4.92v1.69zm-4-21.79c-1.32 3.28-2.6 6.33-3.73 9.66h7.24zM176 30.4v-1.69c3.46-.37 3.69-.68 3.69-4.79V6.15c-3.28 7.84-6.88 16.5-10.16 24.25h-1.51c-3-7.43-6.19-15.91-9.48-23.89-.59 14.31-.59 17.14-.59 18.78.05 2.46 1 3.1 4.38 3.42v1.69h-11.41v-1.69c2.6-.23 3.79-.73 4.15-3.47.18-1.36.36-4 1.41-19 .14-2.19-.18-3.42-4.1-3.79V.77h9.85l8.77 20.1 8.87-20.1h9.61v1.68c-3.64.37-4 .73-4 4.38l.36 17.09c.05 4.11.23 4.29 3.92 4.79v1.69zM218.89 30.4v-1.69c3.46-.37 3.69-.68 3.69-4.79l-.05-17.77c-3.28 7.84-6.88 16.5-10.16 24.25h-1.51c-3-7.43-6.2-15.91-9.48-23.89-.59 14.31-.59 17.14-.59 18.78.05 2.46 1 3.1 4.38 3.42v1.69h-11.31v-1.69c2.6-.23 3.78-.73 4.15-3.47.18-1.36.36-4 1.41-19 .14-2.19-.18-3.42-4.1-3.79V.77h9.85l8.83 20.1 8.81-20.1h9.61v1.68c-3.64.37-4 .73-4 4.38l.36 17.09c.05 4.11.23 4.29 3.92 4.79v1.69zM237.94 30.4v-1.69c3.46-.32 3.87-.59 3.87-4.42V6.92c0-3.83-.45-4.19-3.87-4.47V.77H252v1.68c-3.41.32-3.87.64-3.87 4.47v17.37c0 3.78.41 4.05 3.87 4.42v1.69zM289.49 2.45c-2.78.37-3.64 1-3.78 3-.14 1.78-.27 3.33-.27 7.3V30.9h-2.56l-19-22.79v10.3c0 4 .09 5.74.22 7.06.19 2 1.14 3.06 4.52 3.24v1.69h-11.31v-1.69c2.6-.23 3.74-.91 4-3.06a59.08 59.08 0 0 0 .28-7.24V7.6a5.44 5.44 0 0 0-1-3.69c-.82-1.14-1.92-1.27-3.83-1.46V.77h8.89L283.07 21v-8.2c0-4-.05-5.47-.19-7.16-.13-2-.86-2.92-4.65-3.15V.77h11.26zM295.87.8l.89 13.75h2.15L300 .8h-4.13z" fill="#fff"/></svg>