<svg xmlns="http://www.w3.org/2000/svg" width="300" height="78" viewBox="0 0 300 78"><path d="M102.15,9.58l-3.23-.44c-.22,0-.53-.07-.67,0a9.87,9.87,0,0,0-2.56,2.36A105.33,105.33,0,0,0,87,31.87a6.08,6.08,0,0,0-.13,2.48,2.55,2.55,0,0,0,2,2.22c.75.22,1.49.48,2.21.77.47.18,1,.35.89,1a1.28,1.28,0,0,1-1.26,1.2,12.91,12.91,0,0,1-4.09-.22c-3.27-1.1-6.45-.67-9.69-.07a12.46,12.46,0,0,1-2.52.12A1.4,1.4,0,0,1,73,38.37a2.09,2.09,0,0,1,.49-2.17,1.3,1.3,0,0,1,.83-.14c.84,0,1.68.16,2.52.2A3.75,3.75,0,0,0,80.69,34c1.25-2.69,2.47-5.39,3.64-8.12a16.83,16.83,0,0,1,2.14-4.12,7.48,7.48,0,0,0,.93-2.46c.7-2.17,1.38-4.35,2.07-6.52.27-.89.58-1.77.81-2.67A1.57,1.57,0,0,0,88.59,8c-1.68.11-3.34.35-5,.49-.95.08-1.92.05-2.88.11a23,23,0,0,0-3.22.32,2.32,2.32,0,0,0-1.9,3.17c.22.84.51,1.66.72,2.51a1.46,1.46,0,0,1-1.55,2,3.62,3.62,0,0,1-3.29-2A2.9,2.9,0,0,1,71.8,11c1.12-1,1.67-2.34,2.75-3.25a6.34,6.34,0,0,1,3.3-1.69c2.24-.27,4.46-.69,6.7-.94,1.49-.17,3-.15,4.5-.19a.94.94,0,0,1,.5.17,3.7,3.7,0,0,0,2.82.47,40.92,40.92,0,0,1,5.75-.16c2.81.13,5.62.44,8.44.67.91.08,1.35-.28,1.45-1.3s0-1.81.14-2.69a2.73,2.73,0,0,1,.7-1.59,2.37,2.37,0,0,1,1.7-.48c.31.05.68.79.73,1.25a28.26,28.26,0,0,1,.08,3.32,1.68,1.68,0,0,1-.23.86c-1.33,2-2.8,3.79-5.48,3.89C104.63,9.38,103.61,9.48,102.15,9.58Z" fill="#fff"/><path d="M193.72,37a16.74,16.74,0,0,1-1.75.75c-2.08.6-4.16,1.18-6.26,1.72-6.12,1.61-11.56-.32-16.67-3.43-3.13-1.9-4.44-5-4.46-8.56,0-1.89.11-3.78.19-5.66a1.56,1.56,0,0,1,.14-.61,38,38,0,0,1,7.78-11.6,7.35,7.35,0,0,1,3.28-2c1.85-.49,3.67-1.1,5.51-1.66a14.82,14.82,0,0,1,9.9.23c.7.26,1.45.37,2.16.63a3.24,3.24,0,0,0,3.05-.1c.85-.51,1.37-.07,1.33.93a2.39,2.39,0,0,1-.12.8,28.49,28.49,0,0,0-1.35,5.93c-.16,1.32-.95,1.72-2.21,1.34-.55-.17-.75-.41-.56-1A7.58,7.58,0,0,0,194,12.6a3.47,3.47,0,0,0-1.34-2.73,12.47,12.47,0,0,0-1.38-1.16,14.2,14.2,0,0,0-1.9-.87c-.19-.08-.44,0-.61-.14-2.39-1.34-4.72-.57-7,.19-.88.28-1.71.73-2.57,1.08-3.42,1.39-5.19,4.22-6.51,7.43a24.26,24.26,0,0,0-1,3,27,27,0,0,0-.5,2.71,12.46,12.46,0,0,1-.33,2,8.13,8.13,0,0,0-.08,4.61c.27,1.08.5,2.16.72,3.25a3.63,3.63,0,0,0,1.52,2.35c1.83,1.32,3.61,2.76,5.9,3.17a17.69,17.69,0,0,0,4.11.26,3.74,3.74,0,0,0,3.39-2.59c.61-1.62,1-3.32,1.5-5,.13-.46.24-.93.35-1.39a2.05,2.05,0,0,0-1.68-2.71,18.42,18.42,0,0,0-2-.25c-.47-.05-1-.11-.86-.76s.4-1.15,1-1c3.33.67,6.67.18,10,.26a7.21,7.21,0,0,1,1.78.25c.28.08.7.42.69.63a1.38,1.38,0,0,1-.52,1,3.46,3.46,0,0,1-1.46.4,2.07,2.07,0,0,0-2,1.71c-.23.87-.43,1.75-.69,2.61s-.62,1.93-1,2.87c-.48,1.2-.11,1.86,1.13,2.11.41.08.76.48,1.14.73Z" fill="#fff"/><path d="M228.74,18.74a20.28,20.28,0,0,1-5.81,14.52,19.8,19.8,0,0,1-8.41,5.85,11.94,11.94,0,0,1-2.29.47c-1.07.12-2.15.15-3.22.21a4.58,4.58,0,0,1-3.47-1.47c-5.25-5-7.11-11.43-3.93-18.23a56.05,56.05,0,0,1,3.92-7c2-3.11,5.11-4.94,8.54-6.18,2-.74,4-1.61,6.27-1.37a7,7,0,0,1,3.17,1c3.49,2.23,4.5,5.66,5,9.4C228.65,17.08,228.69,18.16,228.74,18.74Zm-4.09-4.65a29.76,29.76,0,0,0-.42-2.95,3.53,3.53,0,0,0-.84-1.82,6,6,0,0,0-7-.85,8.6,8.6,0,0,0-3.16,2.89c-.17.24-.36.48-.55.7a18.37,18.37,0,0,0-2.78,3.24,72.06,72.06,0,0,0-3.74,8.26,27.73,27.73,0,0,0-1.2,5.61,6.49,6.49,0,0,0,.37,2.26,34.1,34.1,0,0,0,1.1,4.4A3.17,3.17,0,0,0,209.94,38a8,8,0,0,0,2.87-.59c4.64-2.38,8.38-5.56,9.69-10.94A57.68,57.68,0,0,0,224.65,14.09Z" fill="#fff"/><path d="M146.26,39.76c-.42-1.57-.07-2.18,1.4-2.33a3.65,3.65,0,0,0,2.92-1.84,21.45,21.45,0,0,0,3.07-8,5.23,5.23,0,0,0,0-1.25c-.11-1.38-.7-1.8-2.07-1.73s-2.71-.05-4.05,0a3.93,3.93,0,0,0-2,.61,30.6,30.6,0,0,0-8.36,9.67,1.84,1.84,0,0,0,.23,2.31,16,16,0,0,1,1.1,1.69,2.64,2.64,0,0,1-.51.15c-2.39.08-4.79.15-7.18.24a6.59,6.59,0,0,0-1,.26,29.25,29.25,0,0,1-3,.7c-1.1.15-1.46-.16-1.46-.94a1.53,1.53,0,0,1,1.6-1.67c.48,0,1,.11,1.43.18a2.18,2.18,0,0,0,2-.62c2.67-2.63,5.46-5.15,8-7.9,4.65-5,9.12-10.22,13.76-15.25A81.55,81.55,0,0,1,158.47,8c1.24-1.07,2.79-1.76,3.61-3.29.1-.2.34-.32.51-.46a2.23,2.23,0,0,1,1.13,2.47,12.51,12.51,0,0,1-.65,2c-2.36,5.64-3.66,11.6-5.22,17.48-.58,2.2-1,4.45-1.43,6.69a7.45,7.45,0,0,0-.17,1.33c-.13,2.11.31,2.66,2.38,3.08.5.1,1.19,0,1.19.81a1.19,1.19,0,0,1-1.17,1.26,9.79,9.79,0,0,1-3.2-.06,15.78,15.78,0,0,0-8.54.28C146.72,39.7,146.51,39.72,146.26,39.76Zm11.6-28.3-.34-.2a34.53,34.53,0,0,0-3.76,3.25c-2,2.23-3.83,4.61-5.72,7-.62.78-.36,1.61.62,1.75a37.85,37.85,0,0,0,4.39.37,1.65,1.65,0,0,0,1.77-1.36c.24-1,.51-2,.7-3a25.74,25.74,0,0,1,2.24-6.89A2.4,2.4,0,0,0,157.86,11.46Z" fill="#fff"/><path d="M113.05,38.94c-2,.15-4,.21-5.89.48a10.06,10.06,0,0,0-2.66,1.06,1.34,1.34,0,0,1-2-.55c-.46-.85-.31-1.29.63-1.77L107,36.22a1.75,1.75,0,0,1,.74-.31c1.29,0,1.81-.86,2.14-1.85.9-2.75,2-5.45,2.29-8.37,0-.18,0-.42.14-.5,1.11-.81,1-2.1,1.37-3.23,1.06-3.75,2.08-7.51,3.12-11.27a2,2,0,0,0-1.38-2.55c-.74-.25-1.5-.42-2.24-.67s-1.28-.48-1.07-1.38a1.59,1.59,0,0,1,1.75-1.22c.8.14,1.58.37,2.37.58a11.29,11.29,0,0,0,2,.51,5.76,5.76,0,0,0,2.45-.25,5.25,5.25,0,0,1,3.21-.1,14.31,14.31,0,0,0,2.75-.15,3.33,3.33,0,0,1,1.51.28c.52.26.48.77,0,1.08a7.1,7.1,0,0,1-1.23.52l-3.43,1.49C121,9.9,120.81,12.51,120,14.57c-1.32,3.53-2.19,7.23-3.19,10.87-.73,2.69-1.37,5.4-2,8.11a5.69,5.69,0,0,0-.07.71,1.65,1.65,0,0,0,.93,1.85,7.23,7.23,0,0,1,1.71,1.3,6,6,0,0,1,.75,1.34,5.31,5.31,0,0,1-1.38.49c-1.23.06-2.46,0-3.7,0Z" fill="#fff"/><path d="M79,68.85a1.94,1.94,0,0,1-.29-1.95c.58-1.46,1.08-3,1.65-4.41.79-2,1.63-4,2.42-6,.28-.7.48-1.43.7-2.14a.72.72,0,0,0-.58-1c-.36-.1-.74-.16-1.09-.29a3.26,3.26,0,0,1-.63-.44c.24-.13.49-.35.73-.36,1.06,0,2.12.07,3.17.05.81,0,1.62-.15,2.44-.22a1.78,1.78,0,0,1,.8,0c.25.13.42.42.63.63a2,2,0,0,1-.71.26,2.38,2.38,0,0,0-2.11,1.47,15.62,15.62,0,0,0-1,2.32c-.48,1.25-.93,2.52-1.38,3.78a1.24,1.24,0,0,0-.14.58,1.89,1.89,0,0,0,.37,1c.36.31.77.14,1.12-.23,1.65-1.82,3.33-3.62,5-5.41a14.27,14.27,0,0,1,1.19-1.14,1.42,1.42,0,0,0-.09-2.29,1.84,1.84,0,0,1-.28-.39c.14-.09.27-.26.41-.27,2-.2,4-.41,6.08-.53.43,0,.88.41,1.32.42,3.1,0,6.19,0,9.28,0a1.46,1.46,0,0,0,.5-.12c.72-.29,1.19,0,1,.75a12.61,12.61,0,0,1-1.07,2.16c-.38-.53-.62-.83-.83-1.16a2,2,0,0,0-1.92-1.05c-2.66.07-2.68,0-3.52,2.57a17.22,17.22,0,0,0-.69,2.53c-.18,1.09.26,1.47,1.36,1.58a4.11,4.11,0,0,0,3.43-1.17c.17-.16.47-.17.71-.25,0,.3.23.78.11.88a2.69,2.69,0,0,0-.85,2.13c0,.1-.14.19-.2.27s-.17,0-.18,0c-.87-1.83-2.59-1.06-4-1.29a1.7,1.7,0,0,0-.81.06,1,1,0,0,0-.56.48c-.43,1.44-.82,2.89-1.21,4.34-.34,1.23,0,1.76,1.34,1.76s2.41,0,3.62-.11A2.85,2.85,0,0,0,107,64.89c.08-.2.39-.3.6-.44.09.25.31.56.24.75a21.88,21.88,0,0,1-1.06,2.31.76.76,0,0,1-.57.25c-.62,0-1.23,0-1.85,0-.12,0-.25,0-.37,0-1.49-.07-3-.21-4.47-.22s-2.85.14-4.28.21a9.62,9.62,0,0,1-1.2,0c-.38,0-.8-.16-.62-.61a1.27,1.27,0,0,1,.81-.55c.24-.06.53.11.8.17A1.3,1.3,0,0,0,96.71,66a17.44,17.44,0,0,0,.58-1.77c.24-.74.53-1.45.75-2.19.72-2.44,1.46-4.87,2.09-7.33.28-1.07-.2-1.48-1.31-1.49a8.9,8.9,0,0,1-1.51-.28s-.1,0-.14,0c-1,.33-2.27.4-3,1.05-2,1.89-3.84,4-5.76,6a23.52,23.52,0,0,1-1.87,1.72,11.39,11.39,0,0,0-3.31,3.53.35.35,0,0,1-.1.11C81.78,66.48,80.4,67.64,79,68.85Z" fill="#fff"/><path d="M252.27,57.24c-2.79,2.89-5.54,5.72-8.27,8.57-.41.42-.7,1-1.08,1.42-.13.16-.37.39-.5.35a.8.8,0,0,1-.49-.48,2.18,2.18,0,0,1,0-.81c.13-2.75.28-5.51.42-8.26a4.52,4.52,0,0,0,0-1,2.48,2.48,0,0,0-.31-.71c-.21.11-.49.17-.6.35-1.9,2.89-3.81,5.77-5.63,8.71-.63,1,0,1.85,1.24,1.86.24,0,.47.06.71.08v.31a5.16,5.16,0,0,1-1.16.17,15.3,15.3,0,0,0-4.58.1,4.62,4.62,0,0,1-1.4-.17l0-.28a3.48,3.48,0,0,1,.64-.38,4.46,4.46,0,0,1,1.16-.32A2,2,0,0,0,234.53,65a1.09,1.09,0,0,1,.19-.41c1.37-2,2.72-4.08,4.11-6.09.73-1,1.52-2.06,2.33-3,.63-.78.62-1-.27-1.46-.47-.23-1-.41-1.44-.64a9.77,9.77,0,0,1-.88-.53l0-.21a7.22,7.22,0,0,1,.79-.13c1.25-.07,2.49-.13,3.74-.18a3.45,3.45,0,0,1,1,.1c1,.28,1.12.52.65,1.46a2.52,2.52,0,0,0-.28.92c-.2,2.39-.37,4.78-.55,7.18a1.83,1.83,0,0,0,.05.74c.11.25.3.61.51.65a1.2,1.2,0,0,0,.94-.24,17,17,0,0,0,1.66-1.84,28.23,28.23,0,0,1,3.77-4,35.72,35.72,0,0,0,3-3.11,10.68,10.68,0,0,0,1.19-1.81.74.74,0,0,1,1-.4,2.68,2.68,0,0,0,2.55-.46,3.26,3.26,0,0,1,1.21-.35c.05,0,.3.46.24.53a2.88,2.88,0,0,1-.93.88,21,21,0,0,0-2,.83,2.91,2.91,0,0,0-1.06,1.36c-.67,1.83-1.2,3.72-1.86,5.56-.41,1.15-1,2.25-1.41,3.39a3.37,3.37,0,0,0-.26,1.16c0,1,.31,1.35,1.31,1.46a4.6,4.6,0,0,1,1.25.19c.25.11.38.49.56.76-.25.12-.51.36-.76.34-1.59-.09-3.17-.29-4.76-.36a16.32,16.32,0,0,0-1.93.28,3.29,3.29,0,0,1-.91-.19c.23-.28.46-.79.71-.8a2.68,2.68,0,0,0,2.45-2c.73-1.78,1.49-3.56,2.17-5.36A1.54,1.54,0,0,0,252.27,57.24Z" fill="#fff"/><path d="M147.88,58.67c.11,2.86-1.26,4.85-3.42,6.65a11.22,11.22,0,0,1-6.14,2.34,9.77,9.77,0,0,1-4.37,0,7.28,7.28,0,0,0-2.85.26c-.69.1-1.08-.2-.87-.77a.7.7,0,0,1,.58-.34,1.67,1.67,0,0,0,2.11-.88,8.87,8.87,0,0,0,.7-2c.57-2,1.14-4,1.67-6.08.3-1.13.6-2.26.79-3.42s-.26-1.37-1.3-1.25c-.48,0-.95.12-1.43.13s-.69-.27-.56-.67a.89.89,0,0,1,.63-.52c2-.07,4.07,0,6.09-.13a8.86,8.86,0,0,1,5.84,1.33,5.94,5.94,0,0,1,2.53,4.34C147.9,58,147.88,58.34,147.88,58.67Zm-2,.64-.09,0c0-.35-.06-.7-.1-1a6,6,0,0,0-5.11-5.67c-.92-.2-1.33,0-1.55.72q-1.74,5.91-3.43,11.81c-.26.9,0,1.55.77,1.69a7.32,7.32,0,0,0,5.74-1.18c1.73-1.2,2.53-3.06,3.38-4.87A8.37,8.37,0,0,0,145.84,59.31Z" fill="#fff"/><path d="M196,51.88c3,.15,6,.28,9,.48.69,0,.91-.22.94-.82a9.55,9.55,0,0,1,.07-1.2c.1-.49.43-.88.94-.74.24.06.46.52.51.84a2.92,2.92,0,0,1-3,3.46c-.88,0-1.75-.08-2.63-.09a2,2,0,0,0-1.77,1.39c-1.13,2.37-2.19,4.78-3.25,7.19a11.75,11.75,0,0,0-.6,1.85c-.32,1.25.05,1.86,1.25,2.3.37.14,1,.47,1,.71,0,.68-.67.51-1.11.54a3,3,0,0,1-1.12-.06,8.65,8.65,0,0,0-4.68-.08,3.5,3.5,0,0,1-1,.07.77.77,0,0,1-.83-.93c.06-.57.38-.69,1-.6,1.63.27,2.21,0,2.94-1.53.48-1,.87-2,1.34-3,.32-.7.72-1.37,1-2.06a8.33,8.33,0,0,0,.43-1.18c.43-1.34.85-2.67,1.25-4,.22-.73-.07-1.15-.82-1.11-1.61.09-3.21.2-4.81.37-1,.1-1.31.68-1.05,1.65.07.27.15.53.23.8.23.84-.16,1.27-1,1.08A1.49,1.49,0,0,1,189,56a1.41,1.41,0,0,1,.55-1.66c.23-.17.34-.5.56-.69a7.54,7.54,0,0,1,1.73-1.22,9.48,9.48,0,0,1,2.15-.36C194.66,52,195.36,51.94,196,51.88Z" fill="#fff"/><path d="M38.9,51.86c3.33.17,6.31.3,9.29.5.75,0,.94-.26,1-.89a3,3,0,0,1,.14-1.25c.14-.3.57-.45.88-.66.16.27.43.52.47.8a2.94,2.94,0,0,1-3.12,3.55c-.83,0-1.65-.07-2.48-.11a1.78,1.78,0,0,0-1.62,1.14,46.49,46.49,0,0,0-4,9.38,1.58,1.58,0,0,0,1.21,2.18,2.09,2.09,0,0,1,.56.21,3.74,3.74,0,0,1,.51.54c-.24.18-.47.49-.71.5a6.54,6.54,0,0,1-2.08-.15,8.74,8.74,0,0,0-4.1,0,6.11,6.11,0,0,1-1,.08.76.76,0,0,1-.82-.92c.06-.59.37-.7.94-.61,1.63.27,2.23,0,2.94-1.54.5-1,.91-2.11,1.4-3.15.3-.66.69-1.27,1-1.92a9.94,9.94,0,0,0,.46-1.33c.4-1.24.81-2.47,1.18-3.72.28-.93,0-1.31-.94-1.26-1.53.09-3.06.2-4.58.36-1.06.1-1.41.7-1.11,1.74a3,3,0,0,1,.18.65c0,.33.08.84-.09.95a1.28,1.28,0,0,1-1.1.11,2.82,2.82,0,0,1-1.07-1.23,1.26,1.26,0,0,1,.57-1.5c.25-.18.37-.55.61-.74A5,5,0,0,1,35,52.45,39,39,0,0,1,38.9,51.86Z" fill="#fff"/><path d="M54.29,52.31c1.35.13,2.71.18,4,.4,1.77.28,2.56,1.12,2.71,2.65a4.36,4.36,0,0,1-2.15,3.41c-1.89.83-2.16.89-1.57,2.8.44,1.43,3.47,9.78,4.37,12,1.76,4.39,3,1.26,4,1.64,0,.29-1.15,2.19-2.53,2.23-1.17,0-2.45-1.7-3-3.36s-3.92-11-4.45-12.79c-.15-.51-.08-1-.74-1.14a1.54,1.54,0,0,0-1.75.73c-.67,1.76-1.27,3.53-1.9,5.3-.15.44.11.62.48.66s.91,0,1.35.11c.15,0,.28.22.41.34-.15.1-.29.27-.45.28-2,.07-4,.14-6,.17-.24,0-.47-.26-.71-.4.22-.17.44-.49.66-.49,1.85,0,2.42-1.3,2.93-2.72,1-2.68,1.95-5.35,2.92-8a9,9,0,0,0,.33-1c.26-1.07,0-1.41-1-1.78-.23-.08-.39-.4-.58-.61a2.45,2.45,0,0,1,.72-.33c.68,0,1.36,0,2,0Zm2.38.83a1.15,1.15,0,0,0-1.36.8c-.42,1.23-.79,2.47-1.17,3.71-.51,1.66-.38,1.81,1.37,1.53a4,4,0,0,0,3.06-1.93C59.61,55.36,58.6,53.2,56.67,53.14Z" fill="#fff"/><path d="M173.65,67c.73,0,1.45,0,2.18,0A2.69,2.69,0,0,0,178,65.7c.52-.73.95-1.53,1.43-2.3a2.07,2.07,0,0,1,.4-.62,4,4,0,0,1,.84-.38,6.73,6.73,0,0,1,.27.87.88.88,0,0,1-.12.5,6.26,6.26,0,0,0-.82,3.29c0,1-.91,1.22-1.78.76a2.2,2.2,0,0,0-1.51-.19c-1.49.42-2.93,0-4.4-.12a9.3,9.3,0,0,0-1.18,0c-1.7.08-3.4.18-5.09.23-.59,0-.49-.46-.45-.82s.07-.77.66-.68c1.87.26,2.41,0,3.1-1.81.29-.74.42-1.54.64-2.31.09-.3.23-.6.32-.9.25-.78.48-1.57.72-2.35s.45-1.43.65-2.15a20.15,20.15,0,0,0,.59-2.25,1.74,1.74,0,0,0-1.61-2.16c-.16,0-.3-.18-.46-.28.12-.14.22-.36.37-.41a3.28,3.28,0,0,1,.89-.06,27.37,27.37,0,0,0,3,.07,30.18,30.18,0,0,0,3-.59,1.21,1.21,0,0,1,.92.15,1,1,0,0,1,.14.88c-.09.19-.53.31-.8.29a2.05,2.05,0,0,0-2.09,1.07,11.32,11.32,0,0,0-.82,1.85c-.51,1.52-1,3.06-1.47,4.59s-1,3.22-1.48,4.85S172,67,173.65,67Z" fill="#fff"/><path d="M286.12,58.45a10.26,10.26,0,0,1-6.42,9,7.78,7.78,0,0,1-3,.32,3,3,0,0,1-1.66-.92,6.68,6.68,0,0,1-1.59-7.79,18.78,18.78,0,0,1,2.3-4c1.46-1.87,3.64-2.6,5.9-3a3.62,3.62,0,0,1,3.48,2,37.72,37.72,0,0,1,1.16,4.23Zm-1.9-2.1a11.69,11.69,0,0,0-.1-1.19,2.31,2.31,0,0,0-3.1-1.89,5.17,5.17,0,0,0-1.53.91,7.62,7.62,0,0,0-1.43,1.52c-1.77,2.63-3.22,5.37-2.77,8.71.28,2.11,1.42,3.13,3.1,2.5a7.25,7.25,0,0,0,4.44-4A20.26,20.26,0,0,0,284.22,56.35Z" fill="#fff"/><path d="M266.17,60c.27-.24.52-.5.81-.71a17.23,17.23,0,0,0,1.95-1.4,2.67,2.67,0,0,0,.68-1.41,9.84,9.84,0,0,0,.08-2.17c-.07-1.2-.62-1.87-1.5-2A2,2,0,0,0,266.13,54a12.17,12.17,0,0,1-.83,2.94,15.77,15.77,0,0,0-1.27,4c-.33,1.12-.6,2.27-.87,3.42-.33,1.35-.15,1.66,1.13,2.1a4.53,4.53,0,0,1,1,.45.84.84,0,0,1,.32.59c0,.11-.32.32-.5.32-1.08,0-2.16-.09-3.23-.09-.9,0-1.79.11-2.69.16a7.85,7.85,0,0,1-1.19,0,.57.57,0,0,1-.43-.33.61.61,0,0,1,.24-.49,2.59,2.59,0,0,1,1-.49c1.32-.22,1.78-1.22,2.08-2.27.69-2.36,1.26-4.74,1.92-7.1.31-1.1.76-2.15,1.06-3.25a1.1,1.1,0,0,0-.38-.9,6.5,6.5,0,0,0-1.1-.47c-.17-.08-.28-.29-.41-.44.16-.14.3-.35.49-.39a4.48,4.48,0,0,1,1-.05c1.43,0,2.86-.08,4.29-.09a9.06,9.06,0,0,1,1.88.15,2.57,2.57,0,0,1,2.17,2.53,4.72,4.72,0,0,1-2.1,4.59,23.61,23.61,0,0,1-2.4,1.37,3.12,3.12,0,0,1-1,.09Z" fill="#fff"/><path d="M228.71,55.13c-.4-.56-.67-.93-.94-1.32a1.84,1.84,0,0,0-1.71-.86c-2.72,0-2.73,0-3.61,2.55-.26.75-.49,1.52-.68,2.3-.28,1.19.2,1.71,1.41,1.83a4.15,4.15,0,0,0,3.36-1.16c.18-.17.51-.16.77-.23,0,.33.16.85,0,1a2,2,0,0,0-.74,1.78,1.78,1.78,0,0,1-.21.52c-.12,0-.19,0-.21,0-.88-1.81-2.59-1.07-4-1.29a1.89,1.89,0,0,0-.82.06c-.21.06-.5.22-.55.4-.44,1.51-.86,3-1.25,4.55-.28,1.1.08,1.6,1.2,1.62,1.36,0,2.72,0,4.07-.13A2.67,2.67,0,0,0,227.29,65c.09-.22.41-.35.63-.52.08.28.31.62.22.84a17.21,17.21,0,0,1-1,2.22.77.77,0,0,1-.56.27c-.64,0-1.28,0-1.92,0-.11,0-.21,0-.31,0-1.49-.07-3-.21-4.47-.22s-2.85.14-4.27.21c-.4,0-.81,0-1.21,0s-.79-.17-.61-.61a1.27,1.27,0,0,1,.81-.55c.24-.06.53.11.8.17a1.32,1.32,0,0,0,1.76-.85,13.26,13.26,0,0,0,.46-1.43c.28-.85.62-1.68.87-2.54.71-2.41,1.43-4.82,2.05-7.26.28-1.07-.2-1.5-1.3-1.48a3,3,0,0,1-.9-.09,2.32,2.32,0,0,1-.54-.42c.2-.14.4-.38.61-.4.47,0,.95.09,1.42.09,2.8,0,5.59,0,8.38,0,.22,0,.43-.1.65-.13s.65-.16.73-.05a1.1,1.1,0,0,1,.25.87A20.33,20.33,0,0,1,228.71,55.13Z" fill="#fff"/><path d="M163.54,54.92c-.24-.34-.49-.68-.72-1A1.93,1.93,0,0,0,161,53c-2.72.06-2.73,0-3.57,2.59a16.72,16.72,0,0,0-.69,2.61c-.16,1,.29,1.35,1.25,1.46a4.12,4.12,0,0,0,3.52-1.13c.18-.17.51-.18.77-.26,0,.35.16.89,0,1a1.9,1.9,0,0,0-.71,1.71c0,.2-.15.39-.23.57-.11,0-.14,0-.15,0-1.24-2-3.24-1.07-4.95-1.22-.15,0-.41.23-.46.4-.43,1.49-.84,3-1.23,4.48-.3,1.16.08,1.67,1.3,1.67s2.61,0,3.92-.13A2.68,2.68,0,0,0,162.29,65c.08-.22.41-.34.63-.5.08.28.29.61.21.83a15.77,15.77,0,0,1-1,2.17.83.83,0,0,1-.61.31c-.62,0-1.23,0-1.85,0-.12,0-.25,0-.37,0-1.49-.07-3-.21-4.47-.22s-2.85.14-4.27.21a9.83,9.83,0,0,1-1.21,0c-.38,0-.79-.16-.62-.61.1-.26.51-.46.82-.55s.53.11.8.17a1.29,1.29,0,0,0,1.72-.78,17,17,0,0,0,.55-1.71c.27-.78.58-1.54.81-2.33.72-2.46,1.45-4.92,2.1-7.39.23-.9-.33-1.4-1.26-1.37a5.27,5.27,0,0,1-1.12-.07c-.15,0-.41-.24-.39-.31a1,1,0,0,1,.34-.5c.07-.06.24,0,.37,0,3.14,0,6.28.07,9.42.09a2.79,2.79,0,0,0,1-.16c.67-.24,1.14,0,.95.75a11.23,11.23,0,0,1-.95,2Z" fill="#fff"/><path d="M19.07,67.85c-.21-.69.05-1,.59-1a1.79,1.79,0,0,0,1.58-1.22,22.48,22.48,0,0,0,1.2-3.52c.21-.92-.17-1.2-1.12-1.14a1.21,1.21,0,0,1-.38,0,3.48,3.48,0,0,0-3.56,1.42c-.75.91-1.5,1.82-2.2,2.76-.45.59-.71,1.23,0,1.86a1.79,1.79,0,0,1,.27.54l-2.7.22c-.59.06-1.17.15-1.76.23-.3,0-.59.11-.89.14s-.77,0-.66-.46c.07-.27.5-.72.66-.68a2.36,2.36,0,0,0,2.44-1c2.52-2.68,5-5.39,7.54-8.08,1.26-1.33,2.5-2.68,3.82-4,.85-.82,1.83-1.51,2.81-2.31.59.39.46,1,.27,1.59-.76,2.44-1.57,4.86-2.25,7.32-.44,1.56-.72,3.17-1,4.76-.17.94.08,1.19,1,1.45a2.06,2.06,0,0,1,.61.43c-.23.19-.44.52-.68.55a4.2,4.2,0,0,1-1.5-.07,5.9,5.9,0,0,0-3.12,0A7.22,7.22,0,0,1,19.07,67.85Zm5.36-12.92-.15-.11a8.14,8.14,0,0,0-1.36,1c-1,1.15-2,2.35-3,3.56-.37.45-.22.77.37.86s1,.14,1.56.19a1,1,0,0,0,1.2-.93c.32-1.33.74-2.64,1.12-3.95C24.25,55.34,24.35,55.14,24.43,54.93Z" fill="#fff"/><path d="M78,51.6c.55.42.47,1,.3,1.55-1,3.13-1.9,6.27-2.8,9.42a17.48,17.48,0,0,0-.51,2.8c-.11.91.11,1.12,1,1.37a2.43,2.43,0,0,1,.63.41c-.23.2-.43.52-.68.57a3.57,3.57,0,0,1-1.42,0,6,6,0,0,0-3.34,0,6.86,6.86,0,0,1-.81.12c-.22-.63,0-1,.61-1a1.72,1.72,0,0,0,1.54-1.15A24.61,24.61,0,0,0,73.74,62c.21-.93-.16-1.18-1.13-1.12a1.21,1.21,0,0,1-.38,0,3.39,3.39,0,0,0-3.5,1.39c-.76.9-1.5,1.81-2.22,2.74a1.31,1.31,0,0,0,0,1.94,1.9,1.9,0,0,1,.24.53c-.74,0-1.41.07-2.07.15-1.06.12-2.11.29-3.17.41-.37,0-.84.1-.81-.48a.64.64,0,0,1,.81-.67,2,2,0,0,0,2.13-.78l7.06-7.5c1.43-1.52,2.82-3.07,4.3-4.53C75.9,53.22,77,52.46,78,51.6ZM75.75,55l-.16-.15a8.48,8.48,0,0,0-1.35,1c-1,1.16-2,2.36-3,3.56-.37.46-.22.78.38.87a15,15,0,0,0,1.64.19,1,1,0,0,0,1.1-.87c.28-1.23.65-2.45,1-3.67A6.91,6.91,0,0,1,75.75,55Z" fill="#fff"/><path d="M115.23,67.4a2.88,2.88,0,0,0,2.8-3.85,17.07,17.07,0,0,0-1.93-3.87,5.46,5.46,0,0,1,1.15-7.21c1.08-.87,2.24-.48,3.4-.28.8.14,1.61.28,2.39.49a.84.84,0,0,1,.51.61,22.59,22.59,0,0,1-.17,2.46.74.74,0,0,1-.24.46,8.87,8.87,0,0,1-.86.61,3.08,3.08,0,0,1-.18-1,2.22,2.22,0,0,0-1.82-2.6,2.16,2.16,0,0,0-2.75,1.46,4,4,0,0,0,.3,3.47c.73,1.1,1.4,2.25,2.08,3.39a2,2,0,0,1,.34.82,21,21,0,0,1,.09,3.26,3.33,3.33,0,0,1-3.17,2.51,1,1,0,0,0-.5.08,3.38,3.38,0,0,1-3,0,4.3,4.3,0,0,0-3-.36c-.51.15-.68-.32-.6-.7a7.88,7.88,0,0,1,.53-1.55c.35-.82.72-1.63,1.13-2.43.12-.25.4-.64.56-.62.46.07.5.47.4.89s-.12.58-.18.88c-.33,1.8.36,2.75,2.21,3A5.2,5.2,0,0,0,115.23,67.4Z" fill="#fff"/><path d="M208.36,67.63a6.52,6.52,0,0,0-4.16.58c-.16.09-.59-.19-.8-.39s.12-.57.29-.67c.78-.4,1.59-.74,2.39-1.09s.87-1.18,1.1-1.87c.3-.92.43-1.89.71-2.82.65-2.22,1.35-4.42,2-6.63.26-.84.09-1.19-.76-1.48a2.47,2.47,0,0,1-.71-.23,3.67,3.67,0,0,1-.58-.71c.3-.16.61-.47.91-.45.51,0,1,.3,1.53.36a9.53,9.53,0,0,0,1.6-.07c.23,0,.45-.09.67-.09.71,0,1.43,0,2.14,0,.23,0,.44.24.65.36a2.09,2.09,0,0,1-.54.45c-.49.23-1,.4-1.53.59-1.12.42-1.39,1.49-1.67,2.43-.9,2.92-1.68,5.87-2.51,8.81a1.3,1.3,0,0,0,.68,1.69c.33.18.54.6.8.92a10.58,10.58,0,0,1-1.24.28A6.79,6.79,0,0,1,208.36,67.63Z" fill="#fff"/><path d="M107.82,44.05c.27.18.67.32.82.59a.94.94,0,0,1-.23.85c-1.41,1.45-2.84,2.87-4.31,4.27-.21.2-.63.18-1,.27.08-.36,0-.84.26-1.05a9.93,9.93,0,0,0,2.25-3.14A3.43,3.43,0,0,1,107.82,44.05Z" fill="#fff"/><circle cx="64.64" cy="74.84" r="1.09" fill="#fff"/><path d="M255.81,37.08a18.62,18.62,0,0,1-9.62-3.18,25.14,25.14,0,0,1-5.59-4.55,64.48,64.48,0,0,0-5.78,3.78l-2.54,1.93,1.42-2.86a21.81,21.81,0,0,1,4.81-5.8A9.85,9.85,0,0,1,237.22,21c.19-2.55,1.48-5,3.67-5.59,2.69-.65,4.3,2,4.3,2a3.57,3.57,0,0,0-3.71-.6,5,5,0,0,0-2.77,4.32,8.26,8.26,0,0,0,1,4.28A26.7,26.7,0,0,1,256.61,20c8.95.06,14.74,4.26,19.84,8,4.38,3.17,8.16,5.91,13,5.5,5.91-.51,8.81-4.28,9-7.57.15-2.36-1.12-5.17-5.1-6-5.25-1.1-6.54,2.38-6.81,3.47-.53,2.12.19,4.39,1.49,4.76A2.19,2.19,0,0,0,290,28a3.17,3.17,0,0,0,1-2.12,2.33,2.33,0,0,1-.12,3.34c-.72.77-1.94.74-3.23.37-2.1-.6-3.26-3.61-2.53-6.56s3.35-5.67,8.57-4.57c4,.84,6.51,3.81,6.29,7.55-.24,3.91-3.59,8.39-10.38,9-5.43.46-9.61-2.57-14-5.78-4.92-3.58-10.5-7.63-19-7.69a25.4,25.4,0,0,0-16.16,5.24c.15.23.31.46.49.69,3.95-2.2,8.93-4.37,13.15-4.37,4.94,0,8.55,1.9,9.67,5.07a6.36,6.36,0,0,1-2.22,7.09A8.9,8.9,0,0,1,255.81,37.08Zm-13.89-8.49a24.17,24.17,0,0,0,5.06,4c5.44,3.37,10.52,3.9,13.61,1.42a4.9,4.9,0,0,0,1.75-5.43c-.9-2.55-4-4.08-8.26-4.08C250.28,24.54,245.68,26.53,241.92,28.59Zm-2.62-.9a24.57,24.57,0,0,0-1.77,1.76q1-.61,2.1-1.29C239.51,28,239.4,27.85,239.3,27.69Z" fill="#fff"/><path d="M38.47,35.21a6.36,6.36,0,0,1-2.22-7.09C37.37,25,41,23.05,45.92,23.05c4.22,0,9.2,2.17,13.15,4.37.18-.23.34-.46.49-.69A25.4,25.4,0,0,0,43.4,21.49c-8.47.06-14,4.11-19,7.69-4.43,3.21-8.61,6.24-14,5.78C3.6,34.38.25,29.9,0,26c-.22-3.74,2.25-6.71,6.29-7.55,5.22-1.1,7.85,1.64,8.57,4.57s-.43,6-2.53,6.56c-1.29.37-2.51.4-3.23-.37A2.33,2.33,0,0,1,9,25.86,3.17,3.17,0,0,0,10,28a2.19,2.19,0,0,0,1.95.15c1.3-.37,2-2.64,1.49-4.76-.27-1.09-1.56-4.57-6.81-3.47-4,.83-5.25,3.64-5.1,6,.2,3.29,3.1,7.06,9,7.57,4.87.41,8.65-2.33,13-5.5,5.1-3.71,10.89-7.91,19.84-8a26.7,26.7,0,0,1,16.93,5.43,8.26,8.26,0,0,0,1-4.28,5,5,0,0,0-2.77-4.32,3.57,3.57,0,0,0-3.71.6s1.61-2.63,4.3-2c2.19.54,3.48,3,3.67,5.59a9.85,9.85,0,0,1-1.29,5.36,21.81,21.81,0,0,1,4.81,5.8l1.42,2.86-2.54-1.93a64.48,64.48,0,0,0-5.78-3.78,25.14,25.14,0,0,1-5.59,4.55,18.62,18.62,0,0,1-9.62,3.18A8.9,8.9,0,0,1,38.47,35.21Zm7.45-10.67c-4.28,0-7.36,1.53-8.26,4.08a4.9,4.9,0,0,0,1.75,5.43c3.09,2.48,8.17,2,13.61-1.42a24.17,24.17,0,0,0,5.06-4C54.32,26.53,49.72,24.54,45.92,24.54Zm14.45,3.62q1.14.68,2.1,1.29a24.57,24.57,0,0,0-1.77-1.76C60.6,27.85,60.49,28,60.37,28.16Z" fill="#fff"/></svg>