<?xml version="1.0" encoding="UTF-8"?><svg id="images" xmlns="http://www.w3.org/2000/svg" width="200" height="139" viewBox="0 0 200 139"><path d="m21.64,5.54c8.51.25,17.05,1.28,25.55.97,2.16-.68,2.1-4.07,3.45-5.74,3.85-4.49,2.04,13.16.34,13.96-1.12,1.69-.2,4.57-1.88,5.91-2.12-1.14.85-6.28-2.08-5.97-.94.41-1.33-.02-1.53-.86-.49-3.89-5.87-1.9-8.65-2.5-3.38.38.74,6.24-2.57,7.55-.86.5-1.17,1.22-1.2,2.18-.07,2.16-.4,4.21-1.52,6.17-2.73,7.26,9.89,3.79,9.52-2.31.48-1.55-.27-11.14,2.66-6.23-.25,3.35-.57,6.68.3,9.98.25,1.25.27,1.32-.99,1.46-4.48,1.9,2.44,11.25.17,14.79-2.38-2.6-1.16-7.04-3.9-9.73-1.57-2.45-4.64-1.06-6.75-.24-2.26,2.3-.23,6.44-.51,9.39-.3,1.86,2.43.44,1.91,2.15-.68,6.22,5.61,11.11,9.96,4.63,1.46-1.65,2.2-4.76,4.56-5.08.14,1.99-3.68,4.5-1.71,6.26,6.19,1.39,5.99-8.64,7.06-12.7.09-.51.15-1.18.88-1.01.63.16.55.73.45,1.3-.67,3.12-.64,6.33-.97,9.49.6,9.46,2.72,5.49-9.6,7.9-6.54-.48-10.36,5.61-11.4,3.03-3.95-2.84-9.9,1.81-14.26-1.27-1.96-1.03,1.34-2.73,2.09-3.6,4.69-5.33.98-22.24,2.38-30.08.12-1.59-1.93-3.02-.87-4.49,4.48-6.33-2.53-10.61-5.2-15.35,1.37-.49,2.88-.17,4.32-.25,0,.09,0,.19,0,.28Z" fill="#fff"/><path d="m164.99,31.2c.26,6.91-1.53,14.12-6.42,19.2-2.27,2.14-3.95,6.03-7.62,4.41-6.5-.29-13.88-2.74-14.55-10.3-4.98-10.12-1.62-26.92,6.94-34.34,12.56-6.08,22.07,10.13,21.65,21.02Zm-23.07,2.12s.04,0,.06,0c-.01,6.88-.27,18.95,9.67,16.88,7.36-.41,8.35-20.53,5.38-25.84-6.35-26.57-17.3-7-15.11,8.96Z" fill="#fff"/><path d="m91.91,36.02c.32,1.97-3.17,14.42.26,13.1.15-.44.88-1.03,1.22-.99,1.68,1.61.15,4.84.27,6.99-.13.99-.9,1.33-2.29,1.36-10.89-.21-21.58,1.38-32.27,3.1-2.84-.69.99-3.51,2.42-3.48,7.37-1.48,6.21-10,7.17-15.68.39-3.11,1.45-7.74-1.46-9.79-1.6,2.09-.96,5.07-1.81,7.49-.12,0-.25.01-.37.02-2.45-9.38,3.84-23.19-7.4-28.08-.83-.58-.63-1.65-.66-2.53,1.5-.09,2.4,1.01,3.51,1.83,3.68,2.54,7.76-.6,11.65-.15,1.76.31,2.71,0,3.85-1.35.95-1.49,4.09-2.46,3.83.23-.78,3.54-4.76,5.59-5.54,9.08.17,9.85-3.02,19.82-.2,29.46.56,4.1,4.39,5.52,7.56,7.3,8.43,2.03,6.65-13.22,9.76-18.04.17.04.35.08.52.13Z" fill="#fff"/><path d="m105.49,37.93c-3.51-7.96,1.99-19.82-5.23-26.4-.76-.94-3.07-2-2.02-3.38,1.73-1.08,2.97,2.04,4.95,1.69,3.39-.1,7.25.74,10.15-1.44,1.18-.95,5.78-2.02,5.02.47-1.34,3.43-5.4,5.27-5.52,9.11.15,10.26-5.61,27.24,4.95,33.56,10.3,3.8,9.99-7.11,12.07-13.64.12,0,.24.02.36.03,1.32,2.95-1.56,7.59,1.22,9.66.76,1.19-.4,2.99-.49,4.34-2.14,4.12-13.64,2.62-18.22,4.15-4.52.2-9.46,2.67-13.8,1.25,1.56-3.28,6.36-3.97,7.26-7.95,1.33-6.04,3.73-14.18.4-19.68-1.09,2.44-.22,5.42-.7,8.06-.14.06-.27.12-.41.19Z" fill="#fff"/><path d="m33.58,115.88c13.36-1.2-.16,1.53,3.03,15.15-.05,1.31-.57,1.58-1.75,1.09-2.39-1.02-2.62,4.21-4.94,2.79-.98-.72-1.99-.63-2.89.07-3.14,2.48-7.19,1.07-10.74,2.47-2.78.74-4.32-2.86-7.3-2.38-2.79.33-7.1-8.75-6.43-11.13.28-2.59,1.21-6.06-.63-8.16-5.79-5.39,3.56-8.65,2.05-14.62-.08-1.71.03-3.21,1.19-4.55.61-1.19-.51-2.8.43-4,1.54-2.08,2.48,2.49,4.41,1.35,6.28-3.62,17.06-.21,21.38-4.73,7.02-8.89,4.07,3.92,4.03,8.34.08,4.29,1.97,8.96-1.15,12.67-2.39-3.68-2.28-8.94-5.05-12.67-6.79-8.57-14.39,1.45-16.55,8.5-2.05,5.55-1.02,11.46-.77,17.2.43,2.81.08,7.09,3.7,7.65,4.31.68,10.52,1.31,13.72-1.99.59-2.07,3.2-5.07.85-6.78-8.98-5.4-3.75-6.1,3.36-6.6.01.12.02.24.03.35Z" fill="#fff"/><path d="m76.68,109.67c1.09,8.23-7.2,18.55-14.45,21.25-10.88-.1-15.94-1.27-18.78-12.45-2.23-12.92,2.97-30.28,18.6-30.53,9.35,1.56,15.49,12.65,14.63,21.72Zm-7.47.74c-.01-5.58-1.38-11.4-3.71-16.48-5.31-6.87-12.12-.2-12.66,6.49-2.61,6.65-1.63,13.27-.48,20.13.77,6.31,6,6.9,10.55,5.84,4.93-3.33,6.55-10.25,6.29-15.97Z" fill="#fff"/><path d="m73,85.06c5.09-.82,10.53,1.11,15.51-.63,1.6-.51,1.51,1.18.82,2.08-.46,1.33-2.02,2.85-.91,4.21,1.74,1.92,2.28,4.23,2.18,6.7-.21,2.45,1.7,13.9,5.21,9.7.71-5.31,7.87-18,3.77-21.65-2.16-1.85,6.31-3,7.24-2.05-2.92,3.96-5.02,8.12-6.14,13.04-2.73,8.53-7.02,17.39-6.6,26.42.62,1.36.01,3.83-1.81,3.82-1.29-3.7.47-8.45-2.45-11.84-.28-.54-.72-.72-1.29-.3-1.82,1.66-2.5-6.49-3.24-7.81-1.46-6.28-4.59-11.92-6.63-17.99-1.11-1.97-3.85-2.19-5.67-3.33,0-.12.01-.25.02-.37Z" fill="#fff"/><path d="m116.2,84.95c2.29-1.59,4.94-.44,7.29-1.84,2.57-1.75,7.22.48,6.81,3.79-.82,1.91-.48,3.67.56,5.39,2.46,2.94,3.52,8.44,7.11,9.86,2.3-4.49.04-10.96.54-16.08-.02-.83-.12-1.5-1.16-1.57-1.64-.12-1.22,1.61-1.55,2.65-.15.51-.64.6-.9.1-.72-1.34,0-3.87,1.33-4.55,1.2-.68,8.49-4.45,6.92-.86-5.31,3.46-1.27,23.24-3.3,30.09-.98,2.51,2.11,4.6-.77,6.64-.35-2.15-14.11-31.31-15.78-24.15-.63,6.57-.78,13.49.08,20.03.23,1.84,2.38,1.92,3.32,2.98-.7,2.14-8.16,3.31-10.14,2.66,5.62-4.76,5.13-11.74,4.77-18.56-.78-5.6,1.67-13.68-5.04-16.15-.03-.14-.06-.28-.1-.42Z" fill="#fff"/><path d="m170.02,97.11c-.3,6.72-3.3,16.5-10.91,17.32-4.01.26-10.46-.21-11.62-4.84-2.94-8.16-2.02-18.26,3.18-25.52,9.4-11.09,19.8,2.76,19.36,13.04Zm-17.94,1.58c.07,0,.14,0,.21.01.25,5.08-.78,15.88,7.24,13.62,9.31-4.66,5.51-19.49,2.76-27.5-7.54-9.47-10.5,8.51-10.21,13.87Z" fill="#fff"/><path d="m185.14,76.48c-2.62-.59-5.21,1.09-7.92.92-1.92.38-3.74-1.06-5.55-.61-.76.31-1.37,1.19-.31,1.67,3.24,1.25,6.92.44,6.63,5.13-.7,7.61,4.6,24.9-3.93,27.87-.54.56,0,1.11.7.97,3.5-1.71,7.79-.99,11.12-3.01-.97-1.06-2.53-1.68-2.56-3.45.05-2.37-1.89-14.08,2.99-9.98,3.69,3.31.41,14.26,7.39,12.32,3.83,1.13.18,3.06,6.28-.52-2.47-1.44-4.71-2.76-5.68-5.7-.93-2.64-4.05-5.09-4.17-7.86,3.24-4.33,5.63-9.3,3.51-14.56-1.3-3.16-5.66-2.62-8.51-3.18Zm4.81,5.85c-1.42,3.76,2.21,6.16.14,8.48-1.94,1.72-4.93,3.1-7.33,1.54-1.93-1.72,1.53-4.18.91-6.39.09-2.72-1.43-6.16,1.96-7.08,2.1.42,4.54.79,4.32,3.45Z" fill="#fff"/><path d="m110.55,85.2c2.54-2.31,3.86-5.84,3.33-9.61-.9-2.76-6.86-.54-6.54,1.79.92,2.5,4.94,4.28,3.2,7.82Z" fill="#fff"/></svg>