<svg xmlns="http://www.w3.org/2000/svg" viewBox="0 0 330 64"><path d="M49.23 29.82c-.55-.48-1.15-1.4-1.67-1.9-.66-.29-1.38-.7-1.67-1.27-.59-1.15-1.41-1.28-2.44-1.82-1.63-.84-3.2-2-4.68-3.12-.41-.31-.81-.81-1.29-.7l-.21 2.54c-.36.95-.52 1.75-.73 2.74l-.52 2.42c-.21.99-.38 1.95-.44 2.98l-.23 3.92-.11 2.41-.13 2.7c-.03.62-.34 1.52-.75 2.01-1.08-.25-1.35-1.25-1.56-2.17-.18-.82-.49-1.7-.58-2.48l-.41-3.27c-.29-2.35-.21-4.76-.26-7.16l-.19-9.61c-.02-.98-.23-2.03.05-2.98-.16-1.59-2.36-1.38-2.2-3.36 1.03.15 1.7.1 2.57-.17l3.65-1.09c.54-.16 1.29-.43 1.88-.52.72 1.1.73 2.43.76 3.72l3.15 3.45c1.68 1.84 3.46 3.49 5.29 5.2l1.34 1.25c.11.1.82.1.79-.05-.03-.2-.2-.47-.48-.78-.14-2.51-.12-4.71-.04-7.52l-1.6-.57 1.57-.8-.02-5.57 2.44-1.54 3.65-1.93c.17-.09.58-.58.71-.45.17.16.32.65.3.88l-.28 3.12.16 2.97 3.85-.06c1.59-.03 3.37.37 4.68-.79l2.24-1.98c.31-.28 1.3-.26 1.61 0l-.44 2.39c2.88.02 5.24-.06 8.13.18-1.15.98-2.32 2.1-3.44 2.31l-5.06.96-.78 3.36c-.44 1.88-.77 3.72-.97 5.62-.13.3-.38.99-.44 1.33l-.45 2.73-.52 3.28-.68 1.95-.28 4.61c-.04.67.21 1.86-.04 2.39-.39.84-.63 1.35-.39 2.16.4 1.33-.03 2.48-.63 2.46-.24 0-.45-.5-.53-.8l-.48-2.02c-.31-1.29-.92-2.76-1-4.08l-.27-4.38-.43-4.44c-.21-2.11-.17-4.3-.23-6.41l-.18-6.92-4.7.6-.82 6.01-.31 8.92-.59 1.88c-.04.14-.39.49-.49.39-.81-.8-.44-1.58-2.22-3.12zM266.16 29.82c-.55-.48-1.15-1.4-1.67-1.9-.66-.29-1.38-.7-1.67-1.27-.59-1.15-1.41-1.28-2.44-1.82-1.63-.84-3.2-2-4.68-3.12-.41-.31-.81-.81-1.29-.7l-.21 2.54c-.36.95-.52 1.75-.73 2.74l-.52 2.42c-.21.99-.38 1.95-.44 2.98l-.23 3.92-.11 2.41-.13 2.7c-.03.62-.34 1.52-.75 2.01-1.08-.25-1.35-1.25-1.56-2.17-.18-.82-.49-1.7-.58-2.48l-.41-3.27c-.29-2.35-.21-4.76-.26-7.16l-.19-9.61c-.02-.98-.23-2.03.05-2.98-.16-1.59-2.36-1.38-2.2-3.36 1.03.15 1.7.1 2.57-.17l3.65-1.09c.54-.16 1.29-.43 1.88-.52.72 1.1.73 2.43.76 3.72l3.15 3.45c1.68 1.84 3.46 3.49 5.29 5.2l1.34 1.25c.11.1.82.1.79-.05-.03-.2-.2-.47-.48-.78-.14-2.51-.12-4.71-.04-7.52l-1.6-.57 1.57-.8-.02-5.57 2.44-1.54 3.65-1.93c.17-.09.58-.58.71-.45.17.16.32.65.3.88l-.28 3.12.16 2.97 3.85-.06c1.59-.03 3.37.37 4.68-.79l2.24-1.98c.31-.28 1.3-.26 1.61 0l-.44 2.39c2.88.02 5.24-.06 8.13.18-1.15.98-2.32 2.1-3.44 2.31l-5.06.96-.78 3.36c-.44 1.88-.77 3.72-.97 5.62-.13.3-.38.99-.44 1.33l-.45 2.73-.52 3.28-.68 1.95-.28 4.61c-.04.67.21 1.86-.04 2.39-.39.84-.63 1.35-.39 2.16.4 1.33-.03 2.48-.63 2.46-.24 0-.45-.5-.53-.8l-.48-2.02c-.31-1.29-.92-2.76-1-4.08l-.27-4.38-.43-4.44c-.21-2.11-.17-4.3-.23-6.41l-.18-6.92-4.7.6-.82 6.01-.31 8.92-.59 1.88c-.04.14-.39.49-.49.39-.81-.8-.44-1.58-2.22-3.12zM214.82 13.38c-1.21-1.08-2.62-1.6-4-2.2l-.74-.32c-.17-.07-.29.57-.27.76.13 1.53-.27 3.04-.3 4.54l-.13 7.99-.23 2.63c-.11 1.24.24 2.58-.04 3.73-.14.59-.17.94-.17 1.57 0 1.38-1 2.71-1.46 4.01l-1 2.82c-.6-.08-.98-.6-1.1-1.16l-1.01-4.79-.38-5.98c-.27-4.29-.58-9.64-.34-13.82l.14-2.37 1.72-1.44-2.22-.62c-1.88-.52-3.75-.67-5.69-.63h-.48c-.13.01-.24-.45-.12-.5l.51-.21 2-.95 1.59-.64c.97-.39 2.24-.97 3.32-.8l3.95.62 5.77 1.44c1.35.34 2.52.88 3.73 1.57l1.75 1 1.7 1.28c2.04 1.53 3.69 4.37 2.99 6.5-.84 2.55-2.12 4.68-3.51 6.89-.54.87-1.22 1.52-1.89 2.26l-2.58 2.89-3.76 3.55c-.79.75-1.41 1.68-2.41 2.28l-.52.44c-.12.1-.57-.09-.76-.27l2-2.58 2.14-2.96 2.4-3.68 1.23-2.14c.59-1.02 1.14-2.22 1.18-3.45.13-4.09.14-4.43-3.01-7.26zM112.02 35.12l-2.54-.77-3.29-.95-2.12-.59-2.98-1.07-3.5-1.22c-.28-.1-.77-.54-1.05-.55-.33-.02-.8.61-.82.96-.08 1.82-.28 3.33-.61 5.03l-.67 3.5c-.22 1.16-.29 2.18-1.59 2.89-.75-1.6-1.2-3.23-1.43-5s-.67-3.58-.55-5.37c.21-3.21-2.32-4.29-.98-4.84.76-.31.74-1.05.7-1.79l-.26-4.91-.07-4.84 1.28-.68 2.24-2.37-5.85-1.31c-.21-.05-.6-.64-.46-.72l.78-.4L93 7.74c.75-.37 1.53-.14 2.3.03l2.44.53 1.97.48c3.55.87 11.08 3.01 9.61 5.98-1.75 3.52-4.42 6.28-7.54 8.62l-1.82 1.59c-.44.38.79 1.32 1.35 1l16.24 7.33 2.3 1.44 3.23 1.61 3.54 2.41c.46.32 1.02.96 1.46 1.49-.15.38-.72.48-1.08.34l-4-1.53-1.58-.52-3.12-1.31c-.58-.24-1.52-.41-2.18-.51-1.47-.21-2.59-1.14-4.1-1.6zM98.34 24.86c2.4-2.9 4.29-4.63 3.64-8.46-1.15-1.31-2.86-2.38-4.5-2.29l-.65 3.42-.41 3.88-.26 3.05 2.17.39z" fill="#fff"/><path d="M14.38 21.81l.23 2.57c.24 2.69 1.72 6.79 3.61 8.8.95 1.01 1.87 2.77 3.21 3.26l4.92 1.78 2.12.05c.15 0 .5.29.58.41.36.51-1.97.87-3.44.77l-2.95-.21-5.3-.83c-6.44-1-11.16-6.1-12.02-12.55-.19-1.45-.28-2.69.3-4.13l-5.23-.02c-.18 0-.51-.54-.39-.63l.53-.39 3.86-2.01c.86-.45 1.44-.65 1.85-1.6.64-1.52 1.55-2.93 2.57-4.29 2.64-3.56 6.31-5.83 10.14-8l1.88-1.28c1.17-.79 5.57-2.68 7.23-2.93.42-.06 1.26.33 1.48.68.73 1.12-.64 2.15.14 3.53-.33 1.14-.62 2.48-.72 3.68-.02.28-.38.89-.47 1.16-.38 1.07-.6 2.04-1.47 2.93-.73-2.25-1.26-4.1-1.79-6.22-.21-.82-.45-1.73-.98-2.22-3.48 2.37-5 2.54-7.09 6.51-1.09 2.07-2.02 4.25-2.12 6.48.9.23 1.51.41 2.22.53l2.94.47 4.86.64c1.35.18 2.75.18 4.13.26l.04.78c.01.2-.56.48-.77.5l-4.59.54-5.65.51-3.86.48zM189.81 32.24c-.69-.05-1.67-.1-2.28-.26-.66-.17-1.17-.36-1.82-.35-.8.01-1.25-.13-1.91-.46-.6-.3-1.67-.73-2.07-1.18l-1.12-3.29c-.34-.99-.25-2.85.09-3.92.44-1.42 1.24-2.7 2.05-3.85l1.19-1.69c.51-.72 1.25-1.81 1.94-2.31l3.31-2.41 2.56-1.6 3.09-1.55 1.8.77c.59.43.9 1.55 1.26 2.16 1.09 1.85 1.21 4.55.97 6.76l-.46 4.4-.88 3.52-1.11 3.94c.08.31.14.56-.02.6l-.99.28 1.31.68c-.97.25-2.02.14-3.17.05l-3.73-.28zm5.14-6.64l-.46-3.06-.47-2.52c-.39-2.11-2.03-5.94-3.34-5.85-1.22.08-2.08 1-2.73 1.88-3.15 4.28-2.42 9.37 1.27 12.94 1.33 1.28 2.73 2.43 4.73 2.63 1.27-1.86 1.34-3.75 1-6.02zM79.67 30.14c1.29 2.07 3.08 3.1 5.26 3.74l1.86.54c.15.04.47.27.57.38.22.23-2.97 1.5-5.58.93l-2.79-.61c-.48-.11-1.52-.5-1.93-.79l-2.15-1.5c-.58-.41-1.01-.99-1.45-1.49-1.01-1.13-1.71-2.2-2.38-3.53l-1.66-3.28c-.49-.96-2.18-1.25-2.64-2.02-.13-.22.56-.68.81-.75l2.04-.57 1.53-3.39 1.31-2.35c.65-1.17 1.58-1.96 2.67-2.77 3.11-2.33 6.24-4.36 9.89-5.75.4-.15 1-.41 1.27-.25.37.22.52.96.46 1.37l-.29 2.12-.21 1.7-.18 2.72c-.02.24-.29.77-.46.91-.21.18-.79-.22-.91-.47l-1.24-2.48-1.05-2.15-1.36 1.41c-.89.92-1.66 2.13-2.3 3.28l-1.13 2.04c-.56 1-.98 2.06-.78 3.2l2.87.33 8.56.02c.14.26.31.61.27.79-.13.63-1.58 1.22-2.69 1.4s-2.4-.08-3.35.15l-5.24 1.25c-.02 1.08.29 2.51.93 3.54l1.45 2.33zM237.35 30.14c1.29 2.07 3.08 3.1 5.26 3.74l1.86.54c.15.04.47.27.57.38.22.23-2.97 1.5-5.58.93l-2.79-.61c-.48-.11-1.52-.5-1.93-.79l-2.15-1.5c-.58-.41-1.01-.99-1.45-1.49-1.01-1.13-1.71-2.2-2.38-3.53l-1.66-3.28c-.49-.96-2.18-1.25-2.64-2.02-.13-.22.56-.68.81-.75l2.04-.57 1.53-3.39 1.31-2.35c.65-1.17 1.58-1.96 2.67-2.77 3.11-2.33 6.24-4.36 9.89-5.75.4-.15 1-.41 1.27-.25.37.22.52.96.46 1.37l-.29 2.12-.21 1.7-.18 2.72c-.02.24-.29.77-.46.91-.21.18-.79-.22-.91-.47l-1.24-2.48-1.05-2.15-1.36 1.41c-.89.92-1.66 2.13-2.3 3.28l-1.13 2.04c-.56 1-.98 2.06-.78 3.2l2.87.33 8.56.02c.14.26.31.61.27.79-.13.63-1.58 1.22-2.69 1.4s-2.4-.08-3.35.15l-5.24 1.25c-.02 1.08.29 2.51.93 3.54l1.45 2.33zM129.33 20.8l-.17-3.48-2.13.27c-.34.04-.94.16-1.19.29s-.32.78-.34 1.11l-.34 4.89-.2 2-.13 7.75c-1.42-.56-1.61-1.66-1.9-2.72l-.92-3.45-.29-3.07-.3-6.1c-2.67-.09-4.73.1-7.55.51 2.07-1.58 4.35-2.77 6.98-3.1.3-.34.18-1.23-.02-1.88l3.37-3.31 2.03-1.8.05 4.4-.2 2.08c1.05.23 1.97.35 3.13.33l.04-8.16 3.15-2.64c.3-.25 1.05-.48 1.52-.39l-.12 1.99-.49 5.87-.39 3.62-.22 3.25 1.36-1.66 1.21-1.74 1.3-1.41c.4.7.63 1.19.74 1.89l.66 4.24.25 4.43.3 3.45c.06.65.58 1.97.32 2.57-.06.14-.74.17-.78.02l-.18-.72c-.99-2.28-2.19-4.75-2.81-7.19-.23-.89-.42-1.5-1.06-2.05l-1.16 2.42-1.25 3.3c-.44 1.16-.22 2.17-1.15 3.28-.51-.56-.71-1.16-.75-1.84l-.38-7.25zM148.45 32.35l-4.54-1.61c-.9-.32-1.87-1.37-2.53-2.03-1.92-1.9-2.41-4.55-1.11-6.81l1.63-2.82 1.19-1.19 1.76-1.71c.76-.74 1.76-1.35 2.68-1.73 1.13 1.37.62 2.58.32 3.87-.71 3.03-2.37 4.04-3.39 6.48-.81 1.93.45 3.95 1.72 5.48.77.65 1.88.51 2.28 2.06zm-2.82-14.22c-1.64-.56-2.59 3.33-2.46 5.77 1.43-.03 2.11-3.63 2.46-5.77z" fill="#fff"/><path d="M183.23 33.72l-3.09-.94-4-1.15-2.58-.72-3.62-1.3-4.25-1.48c-.35-.12-.94-.65-1.28-.67-.4-.03-.97.75-.99 1.17-.1 2.22-.34 4.04-.74 6.11l-.82 4.25c-.27 1.41-.35 2.65-1.93 3.51-.91-1.95-1.46-3.92-1.73-6.07s-.81-4.34-.66-6.52c.26-3.9-2.82-5.21-1.19-5.88.92-.38.9-1.28.86-2.17l-.31-5.96-.08-5.87 1.55-.83 2.72-2.88-7.11-1.59c-.25-.06-.73-.78-.56-.87l.95-.49 5.77-2.89c.91-.45 1.86-.17 2.8.04l2.97.64 2.39.59c4.32 1.06 13.46 3.65 11.67 7.26-2.12 4.28-5.37 7.63-9.16 10.46l-2.21 1.93c-.54.47.96 1.61 1.64 1.22l19.72 8.91 2.79 1.75 3.93 1.96 4.3 2.93c.56.38 1.24 1.16 1.77 1.81-.18.46-.88.58-1.32.41l-4.85-1.86-1.92-.63-3.79-1.59c-.7-.3-1.84-.5-2.65-.62-1.79-.25-3.14-1.38-4.98-1.94zm-16.61-12.45c2.91-3.52 5.21-5.62 4.42-10.27-1.4-1.59-3.47-2.89-5.46-2.78l-.79 4.15-.5 4.72-.32 3.71 2.64.47zM328.77 4.87l-22.71-1.09-4.43 6.35 15.7.3-1.9 7.41c-.64 2.49-1.41 5.04-1.86 7.58l-.97 5.34-1.15 5.22c-.35 1.58-.11 3.5-.18 5.11l-.11 2.52c-.02.37.07 1.02.35 1.11.7.22 1.58-.99 1.56-2.67-.01-1.02.44-1.55 1.17-2.4.47-.55.57-2.02.84-2.79l3.31-7.37 1.69-3.67s2.14-4.14 2.39-4.46c.87-2.16 5.04-9.94 5.04-9.94s4.62-5.57 1.26-6.55zM57.74 54.44h1.62l5.01 7.48h.03v-7.48h1.23v9.1h-1.57l-5.07-7.48h-.03v7.48h-1.23v-9.1zM72.15 63.78c-.69 0-1.33-.12-1.92-.37a4.46 4.46 0 0 1-1.5-1.01c-.42-.43-.74-.93-.98-1.52-.24-.58-.35-1.21-.35-1.89s.12-1.31.35-1.89c.24-.58.56-1.09.98-1.52.42-.43.92-.77 1.5-1.01s1.22-.37 1.92-.37 1.33.12 1.92.37c.58.24 1.08.58 1.5 1.01.42.43.74.93.98 1.52.24.58.35 1.21.35 1.89s-.12 1.31-.35 1.89c-.24.58-.56 1.09-.98 1.52-.42.43-.92.76-1.5 1.01-.58.24-1.22.37-1.92.37zm0-1.16c.52 0 .99-.1 1.41-.29.42-.19.78-.45 1.08-.78.3-.33.53-.71.69-1.15.16-.44.24-.91.24-1.41s-.08-.97-.24-1.41c-.16-.44-.39-.82-.69-1.15a3.4 3.4 0 0 0-1.08-.78c-.42-.19-.89-.29-1.41-.29s-.99.1-1.41.29c-.42.19-.78.45-1.08.78-.3.33-.53.71-.69 1.15-.16.44-.24.91-.24 1.41s.08.97.24 1.41a3.331 3.331 0 0 0 1.77 1.93c.42.19.89.29 1.41.29zM80.57 55.6h-2.93v-1.16h7.1v1.16h-2.93v7.95h-1.23V55.6zM89.62 54.44h3.16c.39 0 .76.05 1.1.14.34.09.63.23.87.42.24.18.44.42.58.71.14.29.21.62.21 1.01 0 .52-.15.95-.44 1.28-.29.33-.67.57-1.13.73v.03a1.98 1.98 0 0 1 1.39.7c.18.2.32.44.42.7.1.27.15.55.15.86 0 .41-.08.77-.25 1.09-.17.31-.4.58-.69.79-.29.21-.63.38-1.02.49-.39.11-.8.17-1.25.17H89.6v-9.1zm1.24 3.78h1.68c.23 0 .45-.02.66-.07.21-.05.39-.13.54-.24.15-.11.28-.25.37-.42.09-.17.14-.38.14-.63 0-.36-.12-.67-.35-.94-.23-.27-.6-.4-1.09-.4h-1.94v2.7zm0 4.25h1.81c.19 0 .4-.02.62-.06.23-.04.44-.12.64-.23s.36-.27.5-.47c.14-.2.21-.46.21-.78 0-.54-.18-.94-.53-1.21-.35-.27-.83-.4-1.43-.4h-1.83v3.16zM97.72 54.44h5.88v1.16h-4.64v2.71h4.32v1.16h-4.32v2.92h4.87v1.16h-6.11v-9.1zM105.58 54.44h5.72v1.16h-4.49v2.85h4.18v1.16h-4.18v3.93h-1.23v-9.1zM117.13 63.78c-.69 0-1.33-.12-1.92-.37a4.46 4.46 0 0 1-1.5-1.01c-.42-.43-.74-.93-.98-1.52-.24-.58-.35-1.21-.35-1.89s.12-1.31.35-1.89c.24-.58.56-1.09.98-1.52.42-.43.92-.77 1.5-1.01s1.22-.37 1.92-.37 1.33.12 1.92.37c.58.24 1.08.58 1.5 1.01.42.43.74.93.98 1.52.24.58.35 1.21.35 1.89s-.12 1.31-.35 1.89c-.24.58-.56 1.09-.98 1.52-.42.43-.92.76-1.5 1.01-.58.24-1.22.37-1.92.37zm0-1.16c.52 0 .99-.1 1.41-.29.42-.19.78-.45 1.08-.78.3-.33.53-.71.69-1.15.16-.44.24-.91.24-1.41s-.08-.97-.24-1.41c-.16-.44-.39-.82-.69-1.15a3.4 3.4 0 0 0-1.08-.78c-.42-.19-.89-.29-1.41-.29s-.99.1-1.41.29c-.42.19-.78.45-1.08.78-.3.33-.53.71-.69 1.15-.16.44-.24.91-.24 1.41s.08.97.24 1.41a3.331 3.331 0 0 0 1.77 1.93c.42.19.89.29 1.41.29zM123.65 54.44h3.2c.58 0 1.06.08 1.44.24.38.16.67.36.89.6.22.24.37.52.46.82.09.3.13.6.13.88s-.05.57-.15.84a2.373 2.373 0 0 1-1.15 1.28c-.28.15-.59.24-.93.28l2.58 4.15h-1.54l-2.31-4.01h-1.38v4.01h-1.23v-9.1zm1.24 4.02h1.62c.24 0 .48-.02.71-.06.24-.04.45-.11.63-.21.18-.1.33-.25.44-.44.11-.19.17-.44.17-.75s-.06-.56-.17-.75c-.11-.19-.26-.34-.44-.44-.18-.1-.39-.17-.63-.21-.24-.04-.47-.06-.71-.06h-1.62v2.93zM131.51 54.44h5.88v1.16h-4.64v2.71h4.32v1.16h-4.32v2.92h4.87v1.16h-6.11v-9.1zM142.94 54.44h1.23v9.1h-1.23v-9.1zM147.12 57.61h-1.05l.89-3.16h1.23l-1.07 3.16zM148.84 54.44h1.43l2.67 7.41h.03l2.78-7.41h1.35l-3.59 9.1h-1.16l-3.51-9.1zM158.19 54.44h5.88v1.16h-4.64v2.71h4.32v1.16h-4.32v2.92h4.87v1.16h-6.11v-9.1zM169.62 54.44h1.23v3.78h4.72v-3.78h1.23v9.1h-1.23v-4.17h-4.72v4.17h-1.23v-9.1zM182 54.44h1.12l3.9 9.1h-1.44l-.91-2.25h-4.33l-.9 2.25H178l4.01-9.1zm2.21 5.78l-1.7-4.18h-.03l-1.72 4.18h3.45zM187.99 54.44h3.18c.64 0 1.21.07 1.69.22s.9.34 1.26.58c.36.24.65.53.89.84.24.32.42.64.56.98.14.33.24.67.3 1s.09.64.09.93c0 .58-.11 1.15-.32 1.69-.21.54-.53 1.03-.95 1.45a4.8 4.8 0 0 1-1.56 1.02c-.62.26-1.34.39-2.15.39h-2.97v-9.1zm1.23 7.95h1.56c.52 0 1.02-.07 1.48-.21.47-.14.88-.35 1.23-.64s.63-.64.84-1.06c.21-.42.31-.92.31-1.48 0-.29-.05-.63-.14-1.02-.09-.39-.27-.76-.53-1.11-.26-.35-.62-.65-1.09-.89-.46-.24-1.06-.37-1.8-.37h-1.85v6.79zM201.2 54.44h1.84l2.89 6.89h.05l2.87-6.89h1.84v9.1h-1.23v-7.48h-.03l-3.07 7.48h-.82l-3.07-7.48h-.03v7.48h-1.23v-9.1zM215.09 59.66l-3.45-5.22h1.58l2.48 4 2.56-4h1.5l-3.45 5.22v3.88h-1.23v-3.88zM230.72 56.41c-.26-.33-.58-.59-.98-.77s-.8-.27-1.22-.27c-.51 0-.98.1-1.4.29-.42.19-.77.46-1.07.79-.3.33-.53.73-.69 1.18-.16.45-.24.93-.24 1.45 0 .48.08.93.23 1.36.15.43.38.81.67 1.13.29.33.65.58 1.07.77.42.19.9.28 1.43.28s.98-.11 1.38-.32c.39-.21.73-.51 1-.9l1.04.78c-.07.09-.19.23-.36.4-.17.18-.4.35-.68.53a4.4 4.4 0 0 1-1.02.46c-.4.13-.86.2-1.38.2a4.568 4.568 0 0 1-3.43-1.49 4.829 4.829 0 0 1-1.25-3.21c0-.7.12-1.35.35-1.95.23-.6.56-1.11.97-1.54.42-.43.92-.77 1.5-1.01s1.23-.36 1.93-.36c.6 0 1.19.12 1.77.35.58.23 1.05.59 1.42 1.07l-1.03.78zM237.61 63.78c-.69 0-1.33-.12-1.92-.37a4.46 4.46 0 0 1-1.5-1.01c-.42-.43-.74-.93-.98-1.52-.24-.58-.35-1.21-.35-1.89s.12-1.31.35-1.89c.24-.58.56-1.09.98-1.52.42-.43.92-.77 1.5-1.01s1.22-.37 1.92-.37 1.33.12 1.92.37c.58.24 1.08.58 1.5 1.01.42.43.74.93.98 1.52.24.58.35 1.21.35 1.89s-.12 1.31-.35 1.89c-.24.58-.56 1.09-.98 1.52-.42.43-.92.76-1.5 1.01-.58.24-1.22.37-1.92.37zm0-1.16c.52 0 .99-.1 1.41-.29.42-.19.78-.45 1.08-.78.3-.33.53-.71.69-1.15.16-.44.24-.91.24-1.41s-.08-.97-.24-1.41c-.16-.44-.39-.82-.69-1.15a3.4 3.4 0 0 0-1.08-.78c-.42-.19-.89-.29-1.41-.29s-.99.1-1.41.29c-.42.19-.78.45-1.08.78-.3.33-.53.71-.69 1.15-.16.44-.24.91-.24 1.41s.08.97.24 1.41a3.331 3.331 0 0 0 1.77 1.93c.42.19.89.29 1.41.29zM244.13 54.44h5.72v1.16h-4.49v2.85h4.18v1.16h-4.18v3.93h-1.23v-9.1zM251.51 54.44h5.72v1.16h-4.49v2.85h4.18v1.16h-4.18v3.93h-1.23v-9.1zM258.89 54.44h5.88v1.16h-4.64v2.71h4.32v1.16h-4.32v2.92H265v1.16h-6.11v-9.1zM266.75 54.44h5.88v1.16h-4.64v2.71h4.32v1.16h-4.32v2.92h4.87v1.16h-6.11v-9.1z" fill="#fff"/></svg>