<svg xmlns="http://www.w3.org/2000/svg" width="300" height="74" viewBox="0 0 300 74"><path d="M6.46,22.72H9.33V4.85H6V8.43H0V0H25.22V8.43h-6V4.85H15.4V22.72h2.93v5H6.46Z" fill="#fff"/><path d="M46.42,0H58.31V5H55.38V22.72h2.93v5H46.42v-5h2.89v-7.1H36.8v7.1h2.93v5H27.86v-5h2.87V5H27.86V0H39.73V5H36.8v5.76H49.31V5H46.42Z" fill="#fff"/><path d="M62.43,0H77.09a10.68,10.68,0,0,1,3.83.64,8.73,8.73,0,0,1,2.83,1.71,7.38,7.38,0,0,1,2.38,5.44,9.13,9.13,0,0,1-.3,2.47A6.15,6.15,0,0,1,85,12.14a6.33,6.33,0,0,1-1.42,1.46,11.06,11.06,0,0,1-1.92,1.14,4.72,4.72,0,0,1,1.65,1.46,7.12,7.12,0,0,1,1.08,2.53l.93,3.6h2.29l0,5.4h-8l-1.1-6.59a8.62,8.62,0,0,0-.51-2,3.8,3.8,0,0,0-.9-1.39,3.49,3.49,0,0,0-1.38-.79,6.48,6.48,0,0,0-1.93-.26H71.37v6h2.54v5H62.43v-5H65.3V5H62.43Zm8.94,5v6.71H75a8.21,8.21,0,0,0,1.87-.19,4.22,4.22,0,0,0,1.43-.6,2.87,2.87,0,0,0,.92-1,3.2,3.2,0,0,0,.32-1.48,3,3,0,0,0-1.16-2.5A5.41,5.41,0,0,0,75,5Z" fill="#fff"/><path d="M90.41,0h22.06V9.46h-6V5.52H99.39V11h5.51V16.3H99.39v6.42h7.12V17.8h6v9.93H90.41v-5h2.91V5.52H90.41Z" fill="#fff"/><path d="M129.92,22.72h2.76l-1.24-4h-8.53l-1.24,4h2.92v5H114.08v-5h2.06L123.7,0H131l7.39,22.72h2v5H129.92Zm-5.56-8.67H130l-2.81-9Z" fill="#fff"/><path d="M145.85,22.72h2.87V4.85h-3.37V8.43h-6V0h25.22V8.43h-6V4.85h-3.82V22.72h2.93v5H145.85Z" fill="#fff"/><path d="M174.75,0h11.87V5h-2.93V22.72h6a.88.88,0,0,0,.46-.14,1.4,1.4,0,0,0,.41-.36,2,2,0,0,0,.28-.47,1.33,1.33,0,0,0,.11-.5V17.54h5.92V27.73H174.75v-5h2.87V5h-2.87Z" fill="#fff"/><path d="M199.37,0h22V9.46h-6V5.52h-7.11V11h5.5V16.3h-5.5v6.42h7.11V17.8h6v9.93h-22v-5h2.9V5.52h-2.9Z" fill="#fff"/><path d="M238.27,0h11.87V5h-2.47l-7.41,22.7h-7.5L225.58,5h-2.67V0h11.88V5h-3l4.83,15.73L241.47,5h-3.2Z" fill="#fff"/><path d="M252.59,0h22.06V9.46h-6V5.52h-7.12V11h5.51V16.3h-5.51v6.42h7.12V17.8h6v9.93H252.59v-5h2.91V5.52h-2.91Z" fill="#fff"/><path d="M277.83,0H289.7V5h-2.92V22.72h6a.92.92,0,0,0,.47-.14,1.5,1.5,0,0,0,.4-.36,1.72,1.72,0,0,0,.28-.47,1.16,1.16,0,0,0,.11-.5V17.54H300V27.73H277.83v-5h2.87V5h-2.87Z" fill="#fff"/><path d="M0,65.15H3.54V40.86H0V34H15.67L26.9,61.43,37.33,34h15.9v6.91H49.69V65.15h3.49V72H38.94V65.15h2.61V43.25L30.14,71.58H23.08L11.48,44V65.15h2.84V72H0Z" fill="#fff"/><path d="M58.9,34H75.21v6.88h-4V65.15h4V72H58.9V65.15h4V40.83h-4Z" fill="#fff"/><path d="M78.47,34H93.09a18.63,18.63,0,0,1,18,13.92,19.84,19.84,0,0,1,0,10.15,19,19,0,0,1-4.76,8.42A18.36,18.36,0,0,1,93.09,72H78.47V65.15h3V40.86h-3Zm11.38,6.91V65.15H93a8.22,8.22,0,0,0,3.85-1A10.28,10.28,0,0,0,100,61.6a13.09,13.09,0,0,0,2.11-3.87,14.62,14.62,0,0,0,.77-4.79,14.47,14.47,0,0,0-.77-4.75A12.92,12.92,0,0,0,100,44.35a9.87,9.87,0,0,0-3.14-2.56A8.32,8.32,0,0,0,93,40.86Z" fill="#fff"/><path d="M140.19,34h14.47v6.91h-3.09V72h-8.34L127.38,47.42V65.15h3.19V72H116.13V65.15h3.14V40.86h-3.09V34h11.5L143.43,58.9v-18h-3.24Z" fill="#fff"/><path d="M158.78,34h16.3v6.88h-4V65.15h4V72h-16.3V65.15h3.94V40.83h-3.94Z" fill="#fff"/><path d="M206.73,72V65.5a15.24,15.24,0,0,1-3,4,12.43,12.43,0,0,1-3.35,2.06,13,13,0,0,1-5,.75,15.09,15.09,0,0,1-3.12-.36,17.27,17.27,0,0,1-3-1,20.41,20.41,0,0,1-2.85-1.49,14.05,14.05,0,0,1-2.53-2A20.25,20.25,0,0,1,179.49,61,20.77,20.77,0,0,1,178,52.94a20.8,20.8,0,0,1,2.48-9.89,19.55,19.55,0,0,1,2.85-4A18.76,18.76,0,0,1,187,36a17.74,17.74,0,0,1,4.41-2,17.17,17.17,0,0,1,5-.7,15.11,15.11,0,0,1,5.15.79A15.66,15.66,0,0,1,206.2,37h5.63v8.49h-7.76a9,9,0,0,0-4.38-3.92,8.53,8.53,0,0,0-3.33-.52,8.2,8.2,0,0,0-3.92.95,10.09,10.09,0,0,0-3.13,2.58,12.25,12.25,0,0,0-2.07,3.81,14.19,14.19,0,0,0-.08,8.86,11.21,11.21,0,0,0,2.06,3.7,9.64,9.64,0,0,0,3.22,2.53,9,9,0,0,0,3.92.88A7.28,7.28,0,0,0,201,62.84a8.63,8.63,0,0,0,2.87-4.25h-7.26V51.71h17.63V72Z" fill="#fff"/><path d="M245.72,34H262v6.91h-4V65.15h4V72H245.72V65.15h4V55.4H232.5v9.75h4V72h-16.3V65.15h3.94V40.86h-3.94V34h16.3v6.91h-4v7.91h17.19V40.86h-4Z" fill="#fff"/><path d="M274.23,65.15h3.94V40.61h-4.62v4.92h-8.19V34H300V45.53h-8.24V40.61h-5.25V65.15h4V72h-16.3Z" fill="#fff"/></svg>