<svg xmlns="http://www.w3.org/2000/svg" width="451" height="31" viewBox="0 0 451 31"><path d="M11,25.09,9.11,30.55H.8L13.73.45h8.06l13.09,30.1H26.67l-2-5.46ZM17.89,7.81,12.8,20H23Z" fill="#fff" stroke="#fff" stroke-linecap="round" stroke-linejoin="round" stroke-width="0.4"/><path d="M83.38,30.55H75.75V5.1h7.63Z" fill="#fff" stroke="#fff" stroke-linecap="round" stroke-linejoin="round" stroke-width="0.4"/><polygon points="115.54 5.1 115.54 5.21 115.44 5.1 106.16 15.71 96.93 5.1 96.93 5.11 96.93 5.1 89.29 5.1 89.29 30.55 96.93 30.55 96.93 15.22 106.03 25.73 106.24 25.96 106.27 25.93 106.3 25.96 106.5 25.73 115.54 15.34 115.54 30.55 123.17 30.55 123.17 5.1 115.54 5.1" fill="#fff" stroke="#fff" stroke-linecap="round" stroke-linejoin="round" stroke-width="0.4"/><path d="M171.8,25.47h18.36v5.08h-26V5.1h7.64Z" fill="#fff" stroke="#fff" stroke-linecap="round" stroke-linejoin="round" stroke-width="0.4"/><polygon points="61 5.1 61 20.29 46.59 5.1 46.58 5.12 46.58 5.1 38.94 5.1 38.94 30.55 46.58 30.55 46.58 15.36 61 30.55 68.64 30.55 68.64 5.1 61 5.1" fill="#fff" stroke="#fff" stroke-linecap="round" stroke-linejoin="round" stroke-width="0.4"/><path d="M137.73,25.9l-1.93,4.65h-8.32l13-25.64h8.06l13.1,25.64h-8.21l-2-4.65Zm6.86-14.45-5.1,10.1h10.25Z" fill="#fff" stroke="#fff" stroke-linecap="round" stroke-linejoin="round" stroke-width="0.4"/><path d="M211.15,30.45h-7.64V.36h7.64Z" fill="#fff" stroke="#fff" stroke-linecap="round" stroke-linejoin="round" stroke-width="0.4"/><path d="M297.45,30.45h-7.64V10.08h-8.92V5h25.93v5.07h-9.37Z" fill="#fff" stroke="#fff" stroke-linecap="round" stroke-linejoin="round" stroke-width="0.4"/><path d="M318.92,30.45h-7.63V5h7.63Z" fill="#fff" stroke="#fff" stroke-linecap="round" stroke-linejoin="round" stroke-width="0.4"/><path d="M409.8,30.45h-7.63V10.08h-8.93V5h25.93v5.07H409.8Z" fill="#fff" stroke="#fff" stroke-linecap="round" stroke-linejoin="round" stroke-width="0.4"/><polygon points="347.1 5.01 347.1 20.19 332.68 5.01 332.67 5.02 332.67 5.01 325.04 5.01 325.04 30.45 332.67 30.45 332.67 15.26 347.1 30.45 354.73 30.45 354.73 5.01 347.1 5.01" fill="#fff" stroke="#fff" stroke-linecap="round" stroke-linejoin="round" stroke-width="0.4"/><polygon points="239.18 5.01 239.18 20.19 224.77 5.01 224.76 5.02 224.76 5.01 217.13 5.01 217.13 30.45 224.76 30.45 224.76 15.26 239.18 30.45 246.82 30.45 246.82 5.01 239.18 5.01" fill="#fff" stroke="#fff" stroke-linecap="round" stroke-linejoin="round" stroke-width="0.4"/><path d="M447.92,16.68c-1.68-.84-3.52-1.14-8.82-1.37s-5.36-.27-6.05-.38a2.26,2.26,0,0,1-2.08-2.6c0-2.44,1.09-3,6.24-3,4.67,0,5.41.45,5.41,3.35v1.53l7.34-.71v-.82h0s0-.87,0-1a6.12,6.12,0,0,0-1.84-4.84c-1.68-1.53-4.41-2-11.15-2-6.15,0-8.83.38-11,1.52-1.84,1-2.68,2.9-2.68,5.95,0,3.63,1,5.5,3.62,6.49,1.69.65,3.22.84,8.63,1.1,6,.31,6,.31,6.79.81.65.34.89,1,.89,2.13,0,1.34-.34,2.14-1,2.56s-1.58.61-4.61.61c-4.51,0-5.91-.08-6.71-.57a2.91,2.91,0,0,1-1-2.67V21.18l-7.29.71v.44h0c0,3.13.36,4.46,1.39,5.68,1.64,2,5.22,2.63,13.3,2.63,6.65,0,9.28-.42,11.36-1.91,1.59-1.14,2.18-2.86,2.18-6.14S450.06,17.75,447.92,16.68Z" fill="#fff" stroke="#fff" stroke-linecap="round" stroke-linejoin="round" stroke-width="0.4"/><path d="M388.62,10a5.56,5.56,0,0,0-4-4.35c-1.84-.65-3.37-.8-8-.8-7.89,0-10.42.46-13,2.36-2.23,1.64-3,3.74-3,8.47a67.77,67.77,0,0,0,.45,8.54,6.87,6.87,0,0,0,3.17,4.66c2.43,1.49,4.21,1.79,10.51,1.79a67.28,67.28,0,0,0,6.95-.23,11.82,11.82,0,0,0,4.62-1.64c2-1.37,2.57-2.78,2.57-6.86V20.14l-7.54-.94v2.08h0v.32c0,1.6,0,2-.45,2.59-.64,1-2,1.42-5.76,1.42-3.52,0-5-.35-5.75-1.38s-.9-1.9-.9-6.29c0-5.42.15-6.26,1.19-7.1.9-.68,2.43-.95,5.7-.95,3.48,0,4.77.27,5.41,1.15.4.57.5,1,.55,2.78v2.65l7.58-.94V13.82h0A19.26,19.26,0,0,0,388.62,10Z" fill="#fff" stroke="#fff" stroke-linecap="round" stroke-linejoin="round" stroke-width="0.4"/><path d="M276.33,16.68c-1.69-.84-3.52-1.14-8.83-1.37s-5.35-.27-6.05-.38a2.27,2.27,0,0,1-2.08-2.6c0-2.44,1.09-3,6.25-3,4.66,0,5.4.45,5.4,3.35v1.53l7.35-.71v-.82h0s0-.87,0-1a6.11,6.11,0,0,0-1.83-4.84c-1.69-1.53-4.41-2-11.16-2-6.15,0-8.82.38-11,1.52-1.83,1-2.67,2.9-2.67,5.95,0,3.63,1,5.5,3.62,6.49,1.68.65,3.22.84,8.62,1.1,6,.31,6,.31,6.8.81.64.34.89,1,.89,2.13,0,1.34-.35,2.14-1,2.56-.85.49-1.59.61-4.61.61-4.52,0-5.92-.08-6.71-.57a2.91,2.91,0,0,1-1-2.67V21.18l-7.29.71v.44h0c0,3.13.35,4.46,1.39,5.68,1.63,2,5.22,2.63,13.3,2.63,6.64,0,9.27-.42,11.35-1.91,1.59-1.14,2.19-2.86,2.19-6.14S278.46,17.75,276.33,16.68Z" fill="#fff" stroke="#fff" stroke-linecap="round" stroke-linejoin="round" stroke-width="0.4"/></svg>