<svg xmlns="http://www.w3.org/2000/svg" width="300" height="96" viewBox="0 0 300 96"><path fill="#fff" d="M25.68 0v26.64H19.8v-9.89l-3.61-1.8V0h-2.52v26.64H7.58v-9.89l-3.81-1.91V0H1.25v29.48H28.2V0h-2.52zM37.48 14.95V0h-2.53v29.48h6.14V16.75l-3.61-1.8zM69.79 3.73V0H47.83v4.64h6.34v-3.1h11.89v.78L47.83 17.69v11.79h21.96v-2.84H54.17v-9.58L69.79 3.73zM88.81 0H75.48v29.48h6.2v-6.79l-3.44-2.13v-5.82h14.59L96.45 22v7.48h3.35v-7.42zM78.24 12.86V1.6h8l5.66 11.26zM149.57 0h-16.78v29.48h17.09l2.94-2.94V3.27zm-.19 24.75l-1.61 1.83H139v-8.93l-3.45-2.13V1.6h12l1.81 1.81zM126.77 11.8V3.27L123.51 0h-18.9v29.48h6.21v-6.79l-3.45-2.13v-5.82h9.14l7.43 8.86v5.88h2.48v-6.3l-6.82-8.44h4.23zm-19.4.93V1.6H122l1.81 1.81v7.21l-2.11 2.11zM191.67 11.8V3.27L188.42 0h-18.91v29.48h6.21v-6.79l-3.45-2.13v-5.82h9.14l7.43 8.86v5.88h2.48v-6.3l-6.82-8.44h4.23zm-19.4.93V1.6h14.65l1.81 1.81v7.21l-2.11 2.11zM216.83 0h-16.07l-3.26 3.17v23l3.35 3.35h16.3l2.93-2.94V3.27zm-.19 24.75L215 26.59h-11.14v-8.86l-3.79-1.87V3.35l1.75-1.75h13l1.81 1.81zM272.9 0h-16.07l-3.26 3.16v23l3.35 3.35h16.3l2.93-2.94V3.27zm-.19 24.75l-1.61 1.83h-11.17v-8.85l-3.79-1.87V3.35l1.75-1.75h13l1.81 1.81zM299.83 1.52V0h-19.94v1.52h8.8v27.96h6.14V16.75l-3.61-1.8V1.52h8.61zM245 12.94h-4.08l1.14-1.14V3.27L238.83 0H226v29.48h19l3.23-3.24V16.13zM237.34 1.6l1.81 1.81v7.21L237 12.73h-8.31V1.6zm8 23.09l-2.05 2.19h-11.1v-4.19l-3.45-2.13v-5.82h14.86l1.74 1.88zM117.53 54.37h-1.68V52.7h-6.7v1.67h5v1.68h-5v1.67h-1.68v5h1.68v1.68h5v-1.65h1.67v1.68h3.35v-1.68h-1.67zm-5 6.71v1.67h-1.68v-5h3.36v3.36zM123.61 52.7h-3.35v1.67h1.68v10.06h3.35V54.37h-1.68V52.7zM130.31 52.7h-5.02v1.67h3.35v10.06h3.35V54.37h-1.68V52.7zM145.09 47.67h-5v1.68h1.67v3.35h-3.35v1.67h-1.67v1.68H135v6.7h1.68v1.68h5v-1.68h1.68v1.68h3.35v-1.68h-1.67zm-5 13.41v1.67h-1.68v-6.7h1.68v-1.68h1.67v6.71zM164.82 47.67v6.7h-5.03v-6.7h-3.35v16.76h3.35v-8.38h5.03v8.38h3.35V47.67h-3.35zM176.49 52.7h-5.03v1.67h1.67v8.38h-1.67v1.68h6.7v-1.68h-1.67V52.7zM173.13 47.67h3.35v3.35h-3.35zM192.27 56.05v-1.68h-1.68V52.7h-8.37v1.67h-1.68v1.68h1.68v1.67h1.67v1.68h3.35v1.68h1.68v1.67h-5.03v-1.67h-3.35v1.67h1.68v1.68h8.37v-1.68h1.68v-1.67h-1.68V59.4h-1.67v-1.68h-3.35v-1.67h-1.68v-1.68h5.03v1.68h3.35zM10.05 92.14H8.38v1.67H5.03v-13.4H6.7v-1.68H0v1.68h1.68v13.4H0v1.68h11.73v-5.03h-1.68v1.68zM25.37 83.76H17v1.67h-1.69v8.38H17v1.68h8.38v-1.68H27v-1.67h-3.31v1.67h-5v-5H27v-3.38h-1.63zm-1.68 3.35h-5v-1.68h5zM138.38 83.76H130v1.67h-1.67v8.38H130v1.68h8.38v-1.68h1.68v-1.67h-3.35v1.67h-5v-5h8.38v-3.38h-1.68zm-1.67 3.35h-5v-1.68h5zM268 83.76h-8.38v1.67H258v8.38h1.68v1.68H268v-1.68h1.67v-1.67h-3.35v1.67h-5v-5h8.38v-3.38H268zm-1.68 3.35h-5v-1.68h5zM40.16 83.76h-8.38v1.67h-1.67v1.68h1.67v1.67h1.68v1.68h3.35v1.68h1.68v1.67h-5.03v-1.67h-3.35v1.67h1.67v1.68h8.38v-1.68h1.68v-1.67h-1.68v-1.68h-1.67v-1.68h-3.35v-1.67h-1.68v-1.68h5.03v1.68h3.35v-1.68h-1.68v-1.67zM54.9 83.76h-8.38v1.67h-1.67v1.68h1.67v1.67h1.68v1.68h3.35v1.68h1.68v1.67H48.2v-1.67h-3.35v1.67h1.67v1.68h8.38v-1.68h1.68v-1.67H54.9v-1.68h-1.67v-1.68h-3.35v-1.67H48.2v-1.68h5.03v1.68h3.35v-1.68H54.9v-1.67zM92.88 83.76h-3.35v10.05h-3.35V83.76h-3.35v10.05h1.67v1.68h10.06v-1.68h-1.68V83.76zM195.58 83.76h-3.35v10.05h-3.35V83.76h-3.35v10.05h1.67v1.68h10.06v-1.68h-1.68V83.76zM107.91 83.76h-8.38v1.67h-1.67v8.38h1.67v1.68h8.38v-1.68h1.68v-1.67h-3.36v1.67h-5.02v-8.38h5.02v1.68h3.36v-1.68h-1.68v-1.67zM123.17 83.76h-8.38v1.67h-1.67v8.38h1.67v1.68h8.38v-1.68h1.68v-1.67h-3.35v1.67h-5.03v-8.38h5.03v1.68h3.35v-1.68h-1.68v-1.67zM77.62 78.73h-8.38v1.68h-1.67v3.35h1.67v1.67h1.68v1.68h3.35v1.67h1.67v5.03h-5.02v-3.35h-3.35v3.35h1.67v1.68h8.38v-1.68h1.68v-5.03h-1.68v-1.67h-1.68v-1.68h-3.35v-1.67h-1.67v-3.35h5.02v3.35h3.36v-3.35h-1.68v-1.68zM153.75 83.76h-8.38v1.67h-1.68v1.68h1.68v1.67h1.67v1.68h3.35v1.68h1.68v1.67h-5.03v-1.67h-3.35v1.67h1.68v1.68h8.38v-1.68h1.67v-1.67h-1.67v-1.68h-1.68v-1.68h-3.35v-1.67h-1.68v-1.68h5.03v1.68h3.35v-1.68h-1.67v-1.67zM168.43 83.76h-8.38v1.67h-1.67v1.68h1.67v1.67h1.68v1.68h3.35v1.68h1.68v1.67h-5.03v-1.67h-3.35v1.67h1.67v1.68h8.38v-1.68h1.68v-1.67h-1.68v-1.68h-1.67v-1.68h-3.35v-1.67h-1.68v-1.68h5.03v1.68h3.35v-1.68h-1.68v-1.67zM181.36 80.41v-1.68h-4.68v1.68H175v5.02h-1.67v1.68H175v6.7h-1.67v1.68h6.7v-1.68h-1.67v-6.7h1.67v-1.68h-1.67v-5.02h1.67v1.67h1.68v1.68h1.67v-3.35h-2.02zM204.92 78.73h-5.03v1.68h1.68v13.4h-1.68v1.68h6.71v-1.68h-1.68V78.73zM276.4 83.76h-3.35v1.67h1.67v10.06h3.36V85.43h-1.68v-1.67zM283.1 83.57h-5.02v1.68h3.35V95.3h3.35V85.25h-1.68v-1.68zM298.32 93.63V78.54h-5v1.68H295v3.35h-3.35v1.68H290v1.67h-1.68v6.71H290v1.67h5v-1.67h1.68v1.67H300v-1.67zM295 92h-1.7v1.68h-1.68v-6.76h1.68v-1.67h1.7zM217.38 78.73v1.68h1.67v13.4h-1.67v1.68h6.7v-1.68h-1.68v-6.7h1.68v1.67h1.67v-5.02h-1.67v1.67h-1.68v-5.02h3v1.67h1.68v1.68h1.67v-5.03h-11.37zM242.27 83.76h-4.68v1.67h-1.67v-1.67h-3.35v1.67h1.67v8.38h-1.67v1.68h6.7v-1.68h-1.68v-6.7h1.68v-1.68h1.32v3.35h3.36v-3.35h-1.68v-1.67zM252.87 83.76h-5.03v1.67h1.68v8.38h-1.68v1.68h6.7v-1.68h-1.67V83.76zM249.52 78.73h3.35v3.35h-3.35z"/></svg>