<svg xmlns="http://www.w3.org/2000/svg" width="280" height="89" viewBox="0 0 280 89"><path d="M158 23.42v33.69a32 32 0 0 1-.2 3.89 12.74 12.74 0 0 1-.74 3.09 14 14 0 0 1-5.67 6.66 16.88 16.88 0 0 1-4.28 1.87 17.79 17.79 0 0 1-4.93.68q-7.78 0-12.69-7.15l8.25-8.44a6.74 6.74 0 0 0 1.41 3.48 3.43 3.43 0 0 0 2.71 1.29q3.54 0 3.54-5.61V23.42zM190.4 38.94h11.72V72H190.4v-3.69A12.22 12.22 0 0 1 180.29 73a16.43 16.43 0 0 1-6.64-1.32 15.94 15.94 0 0 1-5.28-3.68 17.15 17.15 0 0 1-3.51-5.6 19.12 19.12 0 0 1-1.25-7 18.51 18.51 0 0 1 1.22-6.73 17.2 17.2 0 0 1 3.41-5.58 16.15 16.15 0 0 1 5.22-3.76 15.82 15.82 0 0 1 6.7-1.39 13.44 13.44 0 0 1 10.24 4.32zm-14.69 16.43a7.77 7.77 0 0 0 .58 3 7.86 7.86 0 0 0 1.58 2.42 7.1 7.1 0 0 0 2.39 1.61 7.77 7.77 0 0 0 3 .58 7.62 7.62 0 0 0 2.93-.58 7.06 7.06 0 0 0 2.38-1.61 8.27 8.27 0 0 0 1.62-2.39 7 7 0 0 0 .61-2.89 7.29 7.29 0 0 0-.61-2.93 8.15 8.15 0 0 0-1.62-2.42 7.06 7.06 0 0 0-2.38-1.61 7.44 7.44 0 0 0-2.93-.58 7.59 7.59 0 0 0-3 .58 7.1 7.1 0 0 0-2.39 1.61 8.16 8.16 0 0 0-1.58 2.35 7.18 7.18 0 0 0-.58 2.86zM233.45 49.63a10.8 10.8 0 0 0-6.12-2.06 8.48 8.48 0 0 0-3.12.58 7.74 7.74 0 0 0-2.54 1.65 7.46 7.46 0 0 0-1.67 2.51 8.22 8.22 0 0 0-.61 3.25 8.1 8.1 0 0 0 .61 3.19 7.77 7.77 0 0 0 1.67 2.51 7.22 7.22 0 0 0 2.55 1.64 8.51 8.51 0 0 0 3.15.58 9.65 9.65 0 0 0 6.12-2.25v9.92a20.68 20.68 0 0 1-8.22 1.85 19.26 19.26 0 0 1-6.86-1.23 17.18 17.18 0 0 1-9.69-9 16.68 16.68 0 0 1-1.48-7.12 17.86 17.86 0 0 1 1.41-7.18 17 17 0 0 1 9.7-9.28 19.72 19.72 0 0 1 7.24-1.32 17.21 17.21 0 0 1 7.86 1.81zM250.82 18.52v32.34l12.24-11.92h16l-16.58 15.27L280 72h-16.36l-12.82-13.48V72h-11.66V18.52zM97.66 42.7c-.12-.83-.24-1.67-.4-2.51-.11-.19-.22-.38-.34-.56a11.79 11.79 0 0 0-1.69-2.57 67.72 67.72 0 0 0-5.63-4.6A7 7 0 0 0 86.31 31a35.77 35.77 0 0 0-12.87.9c-2.69.79-4 2.07-4.41 4h-.23a.82.82 0 0 0-.38.2 1.18 1.18 0 0 0-.41.59 1.11 1.11 0 0 0-.08.3 2.76 2.76 0 0 0-.06.57 2.71 2.71 0 0 0 .3 1.12 5.23 5.23 0 0 0 .74 1 2.13 2.13 0 0 1 .16.25c.12.84.24 1.67.38 2.5.28 1.78.68 3.54.85 5.33a17.5 17.5 0 0 1 .11 1.95 1.72 1.72 0 0 1 .1.55c0 4.21 1 8.27 1.83 12.41.1.49.07 3.34.22 4.29.73 4.81 1.42 9.63 2.29 14.41a31.7 31.7 0 0 0 1.75 5.61c.65 1.65 1.17 1.68 2.95.31-.46-2.7-.76-5.58-1.48-8.33a28.23 28.23 0 0 1-1-7.19c0-1.9-.07-3.8 0-5.69 0-1.06.22-2.11.34-3.2a15.35 15.35 0 0 1 7.87-1.53c4.26.17 7.08-2.9 10.2-5.3a5.73 5.73 0 0 0 1.21-2.59c.56-1.69 1-3.44 1.55-5.13a2.28 2.28 0 0 1 .15-.36 9 9 0 0 0-.14-2c-.19-1.14-.44-2.19-.59-3.27zM88 56.94c-1.48.28-3 .31-5 .51-1.48-.24-3.45-.51-5.41-.87-1.44-.27-2.19-1.27-2.31-3A34.71 34.71 0 0 0 73 43.17c-.93-2.39-.8-3.06 1-4.69 3.62-3.37 7.8-3.79 12.19-2.61 2.31.62 3.89 2.14 5.3 4.53a15.22 15.22 0 0 1 2.06 8.73 3.61 3.61 0 0 1-.32.79 7.3 7.3 0 0 0-1 2.31 11.22 11.22 0 0 0-.09 2.59c-.88 1.11-2.14 1.74-4.14 2.12zM104.19 37.56c-.25-4.6-.44-9.2-.82-13.78-.49-5.93-1.12-11.85-1.73-17.78a38.23 38.23 0 0 0-.64-4.27c-.27-1.23-.83-2.2-2.37-1.49A8.93 8.93 0 0 0 98.25 3a1.1 1.1 0 0 0-.55.15 1.15 1.15 0 0 0-.52.68 1.17 1.17 0 0 0 .11.88c.58.8 1.19 1.56 1.84 2.31a10.76 10.76 0 0 1 0 4 26.83 26.83 0 0 0 1 12.28 10 10 0 0 1 .4 3.17c-.17 3.06 0 7.71-.56 12.47s.71 18.81 1.76 20.71c1.47 0 1.78-1 1.88-2 .39-3.94 1.13-10.13.79-14.14-.12-1.97-.1-3.97-.21-5.95zM134.06 35.52c-.32-2.27-1.06-4.52-3.06-5.84-1.3-.84-2.61-1.68-3.93-2.48a6.7 6.7 0 0 0-2.16-1.07 59.29 59.29 0 0 0-5.95-.57 5.33 5.33 0 0 0-4.58 1.88 8 8 0 0 1-2.14 1.71c-2.57 1.36-3.15 4-3.9 6.56a2.53 2.53 0 0 0-1 .89 2.07 2.07 0 0 0 .79 2.65 2.74 2.74 0 0 0 2.19.24 7.74 7.74 0 0 0 2.6 1.5c2.74.56 5.51.92 8.29 1.27 1.9.24 3.82.3 5.72.48 2.19.22 2.9 1.61 2.09 3.92a4.81 4.81 0 0 1-2.61 3 15 15 0 0 1-11 .76 35.92 35.92 0 0 0-4.47-1 5.1 5.1 0 0 0-1.68.28v1.37c1 .39 1.91.73 2.84 1.18s1.9 0 2.52.68a6 6 0 0 0 6.82 1.88c1.59-.5 3-1.54 4.61-2.12l.34-.15a1.46 1.46 0 0 0 .34-.1c-.27.11 0 0 0 0l.28-.07.24-.05h.08c.41 0 .81-.09 1.21-.16a3.34 3.34 0 0 0 2.12-1.2 4.81 4.81 0 0 0 .86-2.12c.06-.33.11-.67.16-1a19 19 0 0 0 2.43-12.32zm-5.25 3a3.93 3.93 0 0 1-2.32.42q-5.79-1-11.55-2.15a4 4 0 0 1-3.19-2.83 5.93 5.93 0 0 1 4.49-3.82 17.45 17.45 0 0 1 9.48-.3c2.15.61 4.58 4.65 4.18 7.09a2.53 2.53 0 0 1-1.09 1.55zM70.4 60.18c0-.15-.05-.3-.08-.45-.06-.34-.13-.67-.21-1a18.15 18.15 0 0 0-.56-1.91c-.11-.35-.24-.69-.37-1a2.61 2.61 0 0 0-.12-.28 2.44 2.44 0 0 0-.1-.24 20 20 0 0 0-.96-1.98.3.3 0 0 1 0 .08 20.51 20.51 0 0 1-2-2.83q-2.06-4.4-3.91-8.91A10.48 10.48 0 0 0 58.33 37a28.19 28.19 0 0 1-3-2.51c-1.52-1.45-3-1.6-4.66-.3a11.78 11.78 0 0 0-1.06 1.06C47.84 37 45.84 38 43.43 37.46a8 8 0 0 0-1.61-.24c-2.61 0-5.23-.66-7.81.4a16.36 16.36 0 0 1-2.24.75 2.76 2.76 0 0 0-.61-.57 2.16 2.16 0 0 0-2.16-.11 1.84 1.84 0 0 0-.76.8 2.62 2.62 0 0 0-.15 1.51.13.13 0 0 0 0 .06 5.32 5.32 0 0 0 0 3.24A98.91 98.91 0 0 1 30 56.68c.18 3.59.41 7.23 1.81 10.57.68 1.62.75 1.71 2.63 1.14 0-.71.14-1.5.14-2.29 0-2.81-.08-5.61-.13-8.41a20.8 20.8 0 0 0-1.24-7.12 6.22 6.22 0 0 1-.34-3.88 23 23 0 0 1 3.8-6.35 4.45 4.45 0 0 1 5.49-.7c1.81.9 1.65 3 1.73 4.94a48.69 48.69 0 0 0 .45 5.93 73.71 73.71 0 0 1 1.45 14.23 11.79 11.79 0 0 0 .42 2.94c.2.92.74 1.34 1.83.82a17.47 17.47 0 0 0 .51-5.1V43.86c0-3.52 1-4.64 4-4.16 1.63.26 3.13 1.43 4.75 1.93 2.64.81 3.73 3 4.12 5.86a41.56 41.56 0 0 0 3.78 11.88c.41.88.85 1.72 1.26 2.5l.32.12.63.17c.18 0 .43.06.61.12h1.18l.19-.07.18-.1.43-.41.14-.2a4.5 4.5 0 0 0 .23-.43v-.8a.11.11 0 0 0 .03-.09zM17.87 55.93c-.63-.56-4.69-3.3-6.45-3.71-2.25-.53-9.64-2.93-8.36-7.31a10.17 10.17 0 0 1 1.4-2.28c2 0 4-.35 5.77.1s3.56 1.69 5.47 2.66a1.5 1.5 0 0 0 .47-2.13c-1-1.43-2-3-3.81-3.45a10.51 10.51 0 0 0-10.79 3.32C-1 45.92-.31 49.84 3.13 51.19a4 4 0 0 1 1.12.44 35.86 35.86 0 0 0 9.4 5.08c2.88 1.09 3.79 3.51 3.3 6.84a3.87 3.87 0 0 1-3.57 1.76c-2.86-.23-5.71-.53-8.56-.78-.56 0-1.46-.33-2 .5s2 2.35 4.68 3a23.54 23.54 0 0 0 5.6.73c3.15.25 5-1.17 6.26-4.3s.96-6.35-1.49-8.53zM26.14 51.52c-.29-2.69-.64-5.37-1.08-8-.19-1.17-.33-2.59-2.33-2.78-.08 1.06-.18 1.91-.2 2.77A115.93 115.93 0 0 0 24 67.18a23.33 23.33 0 0 0 1 3.09c2.43-.07 2.92-.72 2.67-3.42-.49-5.11-.99-10.23-1.53-15.33zM23.32 30.86c.72-.68.68-1.54-.26-2.62a31.64 31.64 0 0 0-3.45.63c-2.14.62-2.45 1.64-1.38 4.2 2.3 1.14 3.63-.81 5.09-2.21z" fill="#fff"/></svg>