<svg xmlns="http://www.w3.org/2000/svg" viewBox="0 0 300 70"><path d="M62.09 11.77v.94h-1.87v25.35h5.81V12.98c-.25-.54-1.75-.15-1.87-.28v-.94h11.99v.94H73.9v53.71h2.25v.93H64.16v-.94c.13-.13 1.62.26 1.87-.28V39.16h-5.81V66.4h1.87v.93H49.91v-.94h2.44V12.7h-2.44v-.93h12.18zM0 69.58v-.94h2.44v-60H0V7.7c6.47.49 15.27-1.94 19.14 4.74 3.53 6.1 3.37 35.59 2.97 42.66-.29 5.08-2.73 14.48-9.28 14.48H0zM10.3 8.64v60.01c1.66-.25 3.63-.29 3.92-2.35-.14-13.23.37-42.6-.26-55.79-.56-1.72-2.15-1.63-3.66-1.87zM112.73 11.26c7.13-.86 9.66 5.27 10.66 11.13 1.29 7.56 1.6 33.84-2.1 40.54-3.4 6.18-11.69 6.03-14.93-.25-3.62-7.03-3.31-34.25-1.59-41.97.97-4.37 2.95-8.85 7.96-9.45zm1.1.95c-1.55.04-2 1.31-2.18 2.65l.17 50.04c.64 2.04 3.74 2.06 4.24-.09.46-13.68.4-36.78.03-50.47-.12-1.23-.98-2.17-2.26-2.13zM90.56 11.77c4.05.33 7.58 2.18 9.09 6.07 2.02 5.19 1.8 23.69-3.58 26.86-.83.49-3.11 1.42-4.01 1.42h-3.47v20.3h3v.93h-13.3v-.94h2.44V12.7h-2.44v-.93c3.98.24 8.33-.32 12.27 0zm-1.97 33.42c2.59 0 4.1-.2 4.32-3.08.45-6.13-.32-21.21-.05-27.4-.47-2.23-2.51-1.75-4.27-2.01v32.48zM231.63 11.77c4.05.33 7.58 2.18 9.09 6.07 2.02 5.19 1.8 20.93-3.58 24.1-.83.49-3.11 1.42-4.01 1.42h-3.47V66.4h3v.93h-13.3v-.94h2.44V12.7h-2.44v-.93c3.98.24 8.33-.32 12.27 0zm-1.96 30.66c2.59 0 4.1-.2 4.32-3.08.45-6.13-.32-18.45-.05-24.64-.47-2.23-2.51-1.75-4.27-2.01v29.73zM286.99 11.77v17.39l-.64-.02-.27-.3c-.47-2.57-.85-5.18-1.44-7.73-.56-2.41-1.52-7.09-4.11-8.05-.2-.07-1.38-.36-1.51-.36h-3.47v25.26c5.02-.76 4.98-7.09 5.24-11.03h.94v23.56h-.75c-.63-3.82-.22-11.05-5.43-11.41V65.9c4.45.19 6.06-.54 7.58-4.68s2.1-8.72 2.93-12.87l.92-.02v18.51h-21.73v-.94h2.44V12.7h-2.44v-.93h21.73zM261.32 11.21V30.1h-1.12c-.45-3.56-1.08-7.29-2.08-10.74-.68-2.34-1.85-6.6-4.83-6.73-3.93-.18-3.11 5.53-2.33 7.89 3.11 9.34 17.76 33.73 9.95 43.84-2.92 3.78-9.23 4.42-12.24.5-.41-.1-3.29 2.93-4.21 2.62V47.47h.94c.27 2.99.76 6.01 1.44 8.94s2.2 8.97 5.48 9.67c2.22.47 3.82-.34 4.11-2.65 1.53-12.31-12.86-30.74-11.78-43.53.44-5.24 6-11.54 11.22-7.47.63.49 1 1.18 1.58 1.55.84-.07 2.59-3.07 3.87-2.79zM37.74 11.77v.94H35.3v51.45c0 .84 1.03 1.6 1.82 1.73 4.29.72 6.03-2.55 6.58-6.24l.02-44.6c-.16-1.1-.45-1.69-1.53-2.02-.97-.3-1.93.16-1.65-1.25h7.12v1.12c-1.3-.21-2.34.67-2.44 1.96-.37 10.63.49 30.86 0 41.45-.32 6.94-2.03 11.67-10.04 11.13-4.56-.31-7.77-3.46-7.77-8.14V12.7h-2.44v-.93h12.74zM186.02 11.77v.93h-2.62v53.7c3.73 0 5.63.09 7.21-3.56 1.83-4.24 2.38-9.25 3.45-13.73l.96-.11v18.33H173.1v-.94h2.44V12.7h-2.44v-.93h12.93zM206.06 11.77v.94c-.07.08-1.77-.05-2.16 0-.27.04-.31-.11-.27.27l5.14 20.11c1.11-4.21 2.42-8.4 3.45-12.64.47-1.93 2.04-6.21-.31-7.33-.92-.44-2.05.09-1.74-1.35h7.31c.23 1.35-.53.94-1.3 1.41-.37.23-.75.74-.9 1.15l-6.01 21.3-.02 30.23.31.44 2.5.03v.94h-13.3v-.94l2.5-.03.31-.44V35.43l-5.79-22.27c-.06-.79-1.56-.31-1.7-.45v-.94h11.99zM147.24 67.47l.08-.95c1.75-.31 2.15-.81 2.6-2.45L158.95.42h1.6l7.7 65.81c.18.58 1.88.21 2.41.31v.94h-12.55v-.94h2.44l-1.3-10.73-6.61-.12-1.19 9.17c.11.48.37.83.79 1.08.99.61 2.48.03 2.13 1.52h-7.12zm11.71-12.77l-2.69-22.71-3.46 22.75 6.15-.04zM145.74 30.09h-.93c-.96-4.74-1.54-11.23-3.9-15.46-.94-1.68-3.36-3.49-4.44-1l-.1 49.53c-.11 2.88 2.43 4.15 4.7 2.43 4.01-3.05 3.95-12.54 3.93-17.12h.94c0 4.91.14 14.9-4.25 18.11-4.54 3.32-9.39-.22-11.2-4.65-2.62-6.39-2.36-28.83-1.98-35.87.21-3.99 1.57-11.8 5.31-13.96 3.28-1.89 7.27-.88 8.46 2.84.79-.45 2.28-3.44 2.76-3.7.21-.11.48-.02.71-.04v18.89zM296.34 50.04h-.55c-.35-3.44-.67-6.9-1.15-10.34-.71-5.12-2.12-18.96-2.42-24.04-.17-2.99-.12-6.98 3.84-7.03 4.86-.07 3.99 6.08 3.63 9.24-.65 5.64-1.85 19.37-2.57 25.01-.3 2.38-.4 4.8-.79 7.17zM295.56 59.31c4.56-.73 5.45 7.57 1.06 8.17-4.82.66-5.34-7.48-1.06-8.17z" fill="#fff"/></svg>