<svg xmlns="http://www.w3.org/2000/svg" viewBox="0 0 180 161"><g fill="#fff"><path d="M91.93 117.83l-2.47 3.01 5.12 29.31 2.04-15.86-2.99-2.89 7.78-1.83-1.85 4.47 6.26 11.89 2.12-24.81-3.46-4.39 11.79-1.42-4.06 6.2-6.38 34.32c-.3.07-.75-.3-.97-.71l-6.41-11.99-4.22 17.37-.69-.12-11.31-37.29-3.39-3.82 13.08-1.46zM16.6 159.77c-.49.17-.99.21-1.42.15l-9.46-27.53.7 21.76 2.53 3.21-7.06-1.44 1.96-2.35-1.05-37.24-2.8-3.9 8.56 1.87 7.55 38.75 6.53-32.26-2.47-4.24 8.88 2.38-2.85 2.59-9.61 38.25zM141.79 52.99c.32.77.8 1.65 1.24 1.86.65.31 1.46.11 2.18-.19 3.84-3.68 5.92-10.97 7.83-16.61l-10.73-8.78-3.18-.2 6.01-9.65.72 4.96 7.9 11.25 2.89-10.43-1.79-5.95 12.83 5.45-5.46 4.87c-3.67 9.2-10.05 25.66-18.17 27.84-2.4.65-4.41-.73-5.49-3.42-1.6-4.72-1.49-10.1.42-15l5.21 5.2c-2.14 2.32-2.86 5.4-2.41 8.8zM174.94 155.67c-2.75.9-5.46 1.15-8.19.08-3.17-1.25-5.24-4.63-5.27-8.8-.28-3.63 1.35-6.61 4.01-8s5.37-1.57 8.42-1.07l-.47-15.84-4.29-7.05 10.37.74-2 40.7 2.47 4.07-6.94-.72 1.73-1.95c.28-.31.28-1.31.15-2.16zm-.07-2.34l-.78-12.76c-2.17-.68-4.64.02-5.76 2.57s-1.15 5.99-.22 8.78c1.01 3.02 3.95 2.46 6.76 1.41zM25.54 53.16c-3.62 4.77-7.45 3.77-12.57 1.64l2.28-8.2c2.22 2.49 5 5.74 7.37 5.02 2.54-.77 3.68-7.84 3.82-11.7.43-11.13-.19-22.16-1.55-33.16L21.17.5l13.26 2.8-3.07 4.26c.84 13.15 1.82 35.52-5.82 45.59zM52.6 133.28l-1.12 3.59 2.45 11.89 3-11.62-1.24-3.87 8.31-.39-1.21 1.71 2.24 13.84 3.88-13.06-1.36-2.65 7.62-.11-3.15 3.98-8.28 19.89-5.04-13.39-5.2 13.51-8.46-19.35-3.6-3.39 11.16-.58zM70.99 86.55l2.68 5.07c-.95 2.7-2.56 4.98-4.73 6.11-2.34 1.23-4.76.2-6.02-2.56-1.99-4.39-2.22-9.87-2.48-15.04-.42-.05-1.51-.15-1.92.13l-3.6 2.41.49-10.78L59 76.47c.2.26 1.07.31 1.34.26l.52-11.13 7.14.85c-.91 3.6-1.47 6.9-1.95 10.74l1.71.17 4-3.41v9.13l-3.32-2.96-2.69-.04c-.41 4.4-1.38 13.71.5 15.4.93.83 1.8-.35 2.38-1.13 1.14-2.39 1.6-4.67 2.37-7.8zM54.72 29.29c-1.69 8.83-10.14 14.94-15.22 10.16-3.83-3.6-5.45-9.65-3.96-14.91 1.25-4.4 4.51-7.09 8.47-7.28 2.99-.14 5.9.86 8.18 3.23s3.17 5.48 2.53 8.8zm-7.82 6.56c1.71-4.75 3.13-14.89-.47-16.11-6.26-2.12-5.86 17.83-3.4 19.39 1.14.72 3.05-1 3.87-3.28zM93.79 86.59c-3.01 8.42-11.93 13.01-15.93 7.43-3.02-4.2-3.57-10.43-1.31-15.36 1.88-4.12 5.37-6.23 9.12-5.74 2.83.37 5.4 1.84 7.16 4.57s2.09 5.93.96 9.1zm-8.4 5.15c2.37-4.4 5.34-14.15 2.16-15.96-5.54-3.15-8.38 16.58-6.31 18.53.96.91 3.02-.47 4.16-2.58zM129.75 145.57c-3.01 8.42-11.93 13.01-15.93 7.43-3.02-4.2-3.57-10.43-1.31-15.36 1.88-4.12 5.37-6.23 9.12-5.74 2.83.37 5.4 1.84 7.16 4.57s2.09 5.93.96 9.1zm-8.4 5.14c2.37-4.4 5.34-14.15 2.16-15.96-5.54-3.15-8.38 16.58-6.31 18.53.96.91 3.02-.47 4.16-2.58zM111.64 37.49c.91-3.46 1.07-7.12.36-10.49-.44-2.11-2.13-3.71-3.91-2.78-2.88 1.51-3.59 10-4.04 14.53l2.99 2.44-8.1 1.25 2.5-3.07-2.07-15.43-4.09-5.61 11.27.35-1.23 4.22c2.29-2 4.34-3.44 7.05-3.67s5.04 2.06 4.99 5.45c-.06 4.24-1.17 8.25-2.92 12.03l3.98 3.03-8.91 1.12 2.12-3.39zM150.29 157.49l3.27-3.89 1.83-33.37-3.39-2.73 10.61-3.58-5.72 40.31 2.34 4.96-8.94-1.7zM73.35 36.71l2.61 5.74-6.4-1.05.45-3.85c-2.33 2.01-5.08 3.49-7.97 2.54-4.05-1.33-4.32-11.04-4.33-16.46l-2.8-3.31 9.2-.74c-.59 5.05-1.6 10.84-.36 15.39.65 1.51 1.63 2.26 2.95 2.24 3.61-.05 3.97-8.98 4.42-13.95l-1.79-3.67 8.23.29-4.24 16.83zM120.07 96.99v-3.35c-3.35 2.07-7.04 1.88-10.25-.21-2.07-1.36-3.31-3.81-3.56-6.71-.31-3.49 1.16-6.59 3.77-7.97 2.86-1.5 5.94-1.81 9.18-.69l-.17-3.88 7.31-.12-1.94 3.44-1.27 16.03 1.82 3.28-4.89.17zm-3.05-4.25c1.1-.04 2.08-.46 3.02-.96l-.59-11.07c-1.81-1.22-4.27-1.21-5.73.84-1.28 1.78-1.37 4.24-1.03 6.52.4 2.63 1.93 4.78 4.34 4.68zM129.67 39.58c.85-.57 1.5-1.49 2.2-2.48l3.55 2.54c-5.18 3.98-12.74 3.97-14.98-2.98-.96-2.97-1.36-6.33-.71-9.48.8-3.86 3.62-6.39 6.75-7.21s6.38.38 8.47 3.46 2.93 7.05 2.31 11.15l-12.56-.32c.08 1.51.46 3 1.21 4.28.82 1.4 2.34 2.01 3.77 1.05zm.77-7.52c.41-.04.99-1.06 1.12-1.5.51-3.68-.62-7.52-3.17-7.37s-3.92 5.47-3.77 9.39l5.83-.51zM35.35 154.26c.82-.57 1.45-1.49 2.13-2.48l3.44 2.54c-5.01 3.98-12.32 3.97-14.49-2.98-.93-2.97-1.32-6.33-.69-9.48.77-3.86 3.5-6.39 6.53-7.21s6.17.38 8.19 3.46 2.84 7.05 2.23 11.15l-12.15-.32c.07 1.51.45 3 1.17 4.28.79 1.4 2.26 2.01 3.64 1.05zm.75-7.51c.4-.04.95-1.06 1.08-1.5.5-3.68-.6-7.52-3.07-7.37s-3.8 5.47-3.65 9.39l5.64-.51z"/><path d="M91.49 34.48c-.18-3.33-.13-8.05-1.72-8.78-2.51-1.14-4.17 9.85-4.61 14.42l2.92 4.76-7.57-.97 2.17-2.65-2.48-17.57-2.12-4.44 8.21 1.96-.48 4.42c1.4-1.97 2.87-3.46 4.89-4.05 3.53-1.04 5.85 1.8 6.77 6.13l-5.97 6.77zM144.46 148.79c-.18-3.33-.13-8.05-1.68-8.78-1.19-.55-2.63 2.69-2.94 4.67l-1.56 9.75 2.86 4.76-7.4-.97 2.12-2.65-2.42-17.57-2.07-4.44 8.02 1.96-.47 4.42c1.37-1.97 2.8-3.46 4.77-4.05 3.45-1.04 5.71 1.8 6.62 6.13l-5.83 6.77z"/></g></svg>