<svg xmlns="http://www.w3.org/2000/svg" width="300" height="150" viewBox="0 0 300 150"><path d="M2,50.19V45.44l15.33-5.58v4.75Zm10.44-2.7V60.87l-5.55,2V49.51Z" fill="#fff"/><path d="M19.75,39l5.55-2V56.2l-5.55,2Zm6.65,4.51,3.79-1.38V35.18l5.55-2V52.4l-5.55,2V46.86L26.4,48.24Z" fill="#fff"/><path d="M39.32,31.86l5.27-1.92V49.18L39.32,51.1Zm14.54-5.29v4.56l-8.17,3V29.54ZM45.69,36.69l5.58-2V39l-5.58,2Zm0,7.47,8.17-3v4.62l-8.17,3Z" fill="#fff"/><path d="M6.46,80.2,2.17,82.66,0,76.44l8.07-5.66,8.57-3.12V103L6.46,106.67Z" fill="#fff"/><path d="M45,57.35,29.25,84.2,35.41,82v7.47L22.24,94.22l-1.56-6.9L36.42,60.47ZM37.42,73.61l9.79-16.72,0,0V77.65l4.18-1.52v7.46l-4.18,1.52v6.71L37.42,95.4Z" fill="#fff"/><path d="M69.46,48.44l10.19-3.71V80L69.46,83.74Zm12.2,4.18V44l13-4.74v8.63Zm0,5.3L91.9,54.19v8.27L81.66,66.19Z" fill="#fff"/><path d="M99.88,37.37l10.18-3.71V69L99.88,72.67Z" fill="#fff"/><path d="M124.44,51.58c.7,4.43,1.91,5,6.4,3.31v7.57c-.75.32-1.31.53-1.56.62-9.23,3.36-13.16.2-14.27-6.36Zm8.42,9.94V51.79c0-3.08-.76-2.55-8.27-2.84-4.44-.15-9.38-.77-9.38-7.73,0-5.7,3.18-10.49,9.58-13.78V37c0,2.78,1,1.92,8.47,2.22,6,.23,9.43,1.56,9.43,7.66C142.69,54,138.41,58.7,132.86,61.52Zm-4.34-35.69c8.17-3,13-.63,14.07,5.77l-9.43,5.1c-.6-3.11-1.46-4.61-6.35-2.83V26.51C127.62,26.16,128.17,26,128.52,25.83Z" fill="#fff"/><path d="M144.47,29.86V21.14L172.61,10.9v8.72Zm19.16-5V49.46l-10.19,3.71V28.61Z" fill="#fff"/><path d="M184.31,29.78c.71,4.44,1.92,4.95,6.41,3.32v7.56c-.76.33-1.31.53-1.56.62-9.23,3.36-13.17.21-14.28-6.35Zm8.43,9.95V30c0-3.08-.76-2.55-8.27-2.84-4.44-.15-9.38-.78-9.38-7.74,0-5.69,3.17-10.48,9.58-13.77v9.58c0,2.77,1,1.92,8.47,2.21,6,.24,9.43,1.56,9.43,7.67C202.57,32.17,198.28,36.9,192.74,39.73ZM188.4,4c8.17-3,13-.63,14.07,5.77L193,14.91c-.61-3.11-1.46-4.61-6.36-2.83V4.71C187.49,4.37,188.05,4.17,188.4,4Z" fill="#fff"/><path d="M219.52,24.67v4.45a6.41,6.41,0,0,1-5.14-.1c-1.68-1-2.61-3.2-2.61-7.3s.93-7,2.61-9.19a12,12,0,0,1,5.14-3.85v4.48a2.9,2.9,0,0,0-1.32,1.44,13.28,13.28,0,0,0-.74,5c0,2.14.24,3.79.74,4.51A1.17,1.17,0,0,0,219.52,24.67Zm1.1,4V24.27a3.14,3.14,0,0,0,1.31-1.47,13.21,13.21,0,0,0,.75-5.05c0-2.14-.25-3.78-.75-4.51a1.21,1.21,0,0,0-1.31-.48V8.28a6.35,6.35,0,0,1,5.13.11c1.68,1,2.62,3.2,2.62,7.29s-.94,7-2.62,9.19A12,12,0,0,1,220.62,28.72Z" fill="#fff"/><path d="M231.28,5l5.55-2V22.22l-5.55,2Zm6.65,2.28V2.58L245,0V4.7Zm0,2.89,5.58-2v4.51l-5.58,2Z" fill="#fff"/><path d="M6.45,114.24l5.8-2.12,4.14,15.14v18.66l-9.94,3.62ZM31,140.62l-7.86,2.86-8.73-32.13,7.87-2.86Zm-3-19.58,3.58-15.93,7.87-2.86-7.52,33.24-.05,0ZM47.3,134.67l-9.93,3.61V119.63l4.13-18.15,5.8-2.11Z" fill="#fff"/><path d="M62.5,130.25c-2.45.77-5.09,1.1-7.3-.19-2.41-1.41-3.76-4.6-3.76-10.48s1.35-10,3.76-13.22a16.72,16.72,0,0,1,7.3-5.47v6.36c-2,1.16-2.88,3.9-2.88,9.35s.91,7.53,2.88,7.25Zm1.58-23.57v-6.36c2.18-.75,5.14-1.28,7.39.12,1.5,1,2.49,2.65,3.12,5.65l-7.66,4.1C66.41,107.25,65.82,106.4,64.08,106.68Zm0,22.95v-6.36c1.7-1,2.45-2.31,2.89-6.07l7.7-1.5a18.4,18.4,0,0,1-3.2,8.44A17.22,17.22,0,0,1,64.08,129.63Z" fill="#fff"/><path d="M92.94,119.17c-3.13,1-6.51,1.41-9.33-.24-3.08-1.8-4.79-5.87-4.79-13.38s1.71-12.83,4.79-16.87a21.2,21.2,0,0,1,9.33-7v8.12c-2.52,1.47-3.68,5-3.68,11.93s1.16,9.61,3.68,9.25Zm2-30.09V81c2.78-.95,6.56-1.63,9.43.15,1.92,1.22,3.18,3.39,4,7.23l-9.78,5.22C97.93,89.82,97.17,88.73,95,89.08Zm0,29.3v-8.12c2.17-1.24,3.13-3,3.69-7.74l9.83-1.91c-.81,4.78-2,8-4.09,10.76A21.87,21.87,0,0,1,95,118.38Z" fill="#fff"/><path d="M113.12,75.41l10.18-3.7V107l-10.18,3.7Zm12.2,30.86V97.4l11.25-4.1v8.88Z" fill="#fff"/><path d="M140.36,65.5l10.18-3.71V80.85a30.8,30.8,0,0,0,.31,5.39c.35,1.84,1.26,2.72,3.17,2.32v8.38c-8.62,2.78-13.66.08-13.66-10.36ZM156,96.2V87.83a6,6,0,0,0,3.18-4.64,36.56,36.56,0,0,0,.3-5.6V58.52l10.19-3.7V75.9C169.71,86.34,164.66,92.71,156,96.2Z" fill="#fff"/><path d="M183.84,72.82c.7,4.43,1.91,5,6.4,3.32V83.7c-.76.33-1.31.53-1.56.62-9.23,3.36-13.16.2-14.27-6.35Zm8.42,10V73c0-3.07-.76-2.54-8.27-2.84-4.44-.15-9.38-.77-9.38-7.73,0-5.7,3.17-10.48,9.58-13.77v9.58c0,2.77,1,1.92,8.47,2.21,6,.24,9.43,1.56,9.43,7.66C202.09,75.2,197.81,79.94,192.26,82.77Zm-4.34-35.69c8.17-3,13-.64,14.07,5.77L192.56,58c-.6-3.11-1.46-4.62-6.35-2.84V47.75C187,47.41,187.57,47.21,187.92,47.08Z" fill="#fff"/><path d="M207,41.23l10-3.64v35.3l-10,3.64Zm12,17.36V46.94l6.31-12.38,11.29-4.11L227,49.06l10.09,16.55-11,4Z" fill="#fff"/><path d="M240.54,29l9.68-3.53v35.3l-9.68,3.53Zm26.67-9.71V27.7l-15,5.45V24.78Zm-15,18.56,10.24-3.73v8l-10.24,3.73Zm0,13.72,15-5.45v8.47l-15,5.45Z" fill="#fff"/><path d="M289.91,30.43V46.37l-10.18,3.7V35.3L269.59,18.46l11.1-4Zm-3.73-11.25,2.73-7.75,11.09-4-8.72,20.68,0,0Z" fill="#fff"/></svg>