<svg xmlns="http://www.w3.org/2000/svg" viewBox="0 0 350 64"><path d="M126.59 23.52c-.53 0-1.02-.21-1.46-.62-2.97-2.79-6.24-4.72-9.8-5.8.11 2.85.16 4.44.16 4.75 0 .56-.2 1.03-.59 1.42-.39.39-.88.58-1.47.58s-1.08-.19-1.47-.58c-.39-.39-.59-.86-.59-1.42 0-.74 0-1.84.03-3.3.02-1.47.03-2.57.03-3.3l.03-11.87c0-.64.19-1.22.57-1.74.5-.67 1.19-.97 2.07-.9 2.38.18 3.6.27 3.66.28 1.37.17 2.54.5 3.5.99 4.19 2.11 6.28 4.72 6.28 7.84 0 1.28-.44 2.42-1.32 3.41-.88.99-2.19 1.82-3.95 2.49 2.6 1.45 4.56 2.93 5.87 4.44.34.39.52.83.52 1.31 0 .55-.21 1.02-.62 1.42-.41.4-.9.6-1.47.6zm-9.43-18.5c-.08 0-.65-.05-1.72-.12v7.81c.25 0 .46.01.65.01 2.4 0 4.18-.3 5.34-.9.5-.25.96-.59 1.37-1.02.42-.42.63-.74.63-.96 0-1.1-.7-2.16-2.09-3.18-1.32-.96-2.72-1.52-4.18-1.66zM146.28 20.8c-.72.97-1.58 1.78-2.59 2.43-1.24.78-2.51 1.18-3.81 1.18-2.5 0-4.36-.47-5.58-1.42-2.57-1.99-3.85-5.46-3.85-10.39 0-.47.02-1.18.07-2.11.05-.93.07-1.64.07-2.11 0-.38 0-.94.03-1.68.02-.75.03-1.31.03-1.68 0-.77.14-1.5.43-2.18.38-.91.92-1.36 1.6-1.36.54 0 1.02.17 1.43.52.45.36.68.84.68 1.41s0 1.38-.02 2.48c-.01 1.11-.02 1.94-.02 2.5 0 .46-.02 1.16-.07 2.09-.05.93-.07 1.63-.07 2.09 0 1.49.18 2.87.53 4.15.41 1.53 1.02 2.59 1.81 3.2.41.32 1.39.48 2.94.5 2.59.04 4.34-2.17 5.24-6.62.47-2.3.71-5.54.71-9.71 0-.55.16-1.08.49-1.59.44-.68 1.07-1.02 1.88-1.02.67 0 1.17.25 1.5.74.26.36.38.77.38 1.21 0 3.87-.18 6.89-.54 9.06-.55 3.34-1.63 6.12-3.25 8.33zM159.91 24.24c-2.49 0-4.45-.55-5.88-1.66-1.21-.92-1.81-1.99-1.81-3.19 0-.62.19-1.13.56-1.54.37-.41.89-.61 1.54-.61.88 0 1.53.45 1.94 1.35.56 1.21 1.82 1.81 3.8 1.81 1.69 0 3.32-.37 4.9-1.1 1.64-.76 2.46-1.58 2.46-2.49 0-1.24-.51-2.05-1.53-2.44-.73-.28-2.18-.45-4.37-.5-1.7-.04-3.22-.36-4.56-.96-1.81-.81-2.71-1.98-2.68-3.5.03-1.91 1.05-3.67 3.06-5.26 2.01-1.59 4.23-2.39 6.65-2.39.96 0 2.15.22 3.56.66 1.76.55 2.63 1.18 2.63 1.9 0 .51-.18.96-.53 1.35-.39.44-.9.66-1.51.66-.46 0-1.15-.1-2.07-.29-.92-.2-1.61-.29-2.08-.29-1.26 0-2.47.31-3.6.91-1.18.61-1.77 1.27-1.77 1.99 0 .37.18.68.54.92.36.24.9.41 1.61.51l3.75.21c2.18.17 3.9.78 5.16 1.84 1.39 1.18 2.09 2.8 2.09 4.88 0 2.53-1.44 4.45-4.32 5.75-2.2.99-4.71 1.49-7.53 1.49zM191.46 5.71c-.76 0-1.96-.05-3.57-.16-1.56-.11-2.75-.16-3.57-.15.04 1.12.17 3.11.4 5.97.21 2.53.31 4.53.31 6 0 .33.03.83.1 1.49s.1 1.15.1 1.49c0 .74-.16 1.4-.47 1.99-.4.76-.98 1.13-1.72 1.13-.54 0-1.02-.17-1.43-.51-.46-.38-.69-.86-.69-1.44 0-.14.02-.35.07-.63s.07-.49.07-.64c0-.45-.03-1.13-.1-2.04s-.1-1.6-.1-2.06c0-1.31-.1-3.09-.31-5.34-.24-2.58-.37-4.36-.41-5.34h-.77c-2.19 0-3.92-.16-5.21-.47-1.09-.26-1.63-.91-1.63-1.93 0-.5.18-.95.53-1.35.41-.48.95-.7 1.62-.65.34.02 1.12.1 2.34.25.97.11 1.76.16 2.35.16s1.49 0 2.68-.03c1.19-.02 2.09-.03 2.69-.03.75 0 1.86.05 3.35.15 1.49.1 2.61.15 3.35.15.59 0 1.08.19 1.48.57.4.38.6.85.6 1.41s-.2 1.03-.6 1.42c-.4.39-.89.58-1.48.58z" fill="#fff"/><path d="M211.11 5.19c-.5 1.03-1.51 3.26-3.02 6.68-1.26 2.86-2.32 5.11-3.21 6.74-1.53 2.82-2.35 4.32-2.46 4.49-.58.85-1.25 1.28-2 1.28-.54 0-1.02-.18-1.43-.53-.45-.39-.68-.88-.68-1.46 0-.48 1.02-2.5 3.07-6.06-.76-1.09-1.84-2.74-3.25-4.96-1.06-1.63-2.61-4.08-4.66-7.37-.2-.33-.29-.68-.29-1.04 0-.57.22-1.05.66-1.44.41-.36.89-.54 1.44-.54.65 0 1.24.33 1.77.99l1.1 1.77c.07.12.91 1.55 2.53 4.3 1.02 1.76 1.92 3.14 2.71 4.16.75-1.5 1.82-3.77 3.22-6.81.29-.68.74-1.7 1.32-3.07.37-.88 1.01-1.32 1.91-1.32.54 0 1.02.18 1.43.53.45.38.68.86.68 1.44 0 .33-.28 1.08-.85 2.25zM214.13 6.74c-.33-.34-.5-.77-.5-1.3 0-.45.17-1.72.51-3.81.18-1.09.81-1.63 1.9-1.63.54 0 .97.17 1.3.51s.49.77.49 1.3c0 .34-.17 1.58-.52 3.72-.06.39-.22.75-.49 1.06-.36.44-.83.66-1.4.66-.54 0-.98-.17-1.31-.51zM227.71 24.24c-2.49 0-4.45-.55-5.88-1.66-1.21-.92-1.81-1.99-1.81-3.19 0-.62.19-1.13.56-1.54.37-.41.89-.61 1.54-.61.88 0 1.53.45 1.94 1.35.56 1.21 1.82 1.81 3.8 1.81 1.69 0 3.32-.37 4.9-1.1 1.64-.76 2.46-1.58 2.46-2.49 0-1.24-.51-2.05-1.53-2.44-.73-.28-2.18-.45-4.37-.5-1.7-.04-3.22-.36-4.56-.96-1.81-.81-2.71-1.98-2.68-3.5.03-1.91 1.05-3.67 3.06-5.26 2.01-1.59 4.23-2.39 6.65-2.39.96 0 2.15.22 3.56.66 1.76.55 2.63 1.18 2.63 1.9 0 .51-.18.96-.53 1.35-.39.44-.9.66-1.51.66-.46 0-1.15-.1-2.07-.29-.92-.2-1.61-.29-2.08-.29-1.26 0-2.47.31-3.6.91-1.18.61-1.77 1.27-1.77 1.99 0 .37.18.68.54.92.36.24.9.41 1.61.51l3.75.21c2.18.17 3.9.78 5.16 1.84 1.39 1.18 2.09 2.8 2.09 4.88 0 2.53-1.44 4.45-4.32 5.75-2.2.99-4.71 1.49-7.53 1.49zM14.43 62.24c-1.16.51-2.95.97-5.37 1.37-2.22.37-4.04.56-5.46.56-2.4 0-3.6-1.05-3.6-3.16 0 .17.1-1.39.29-4.66.25-4.26.38-8.99.38-14.21 0-.56.19-1.03.58-1.43.39-.39.88-.59 1.46-.59s1.08.2 1.47.59c.39.39.59.87.59 1.43 0 5.23-.13 10.04-.4 14.45-.09.78-.18 1.99-.28 3.6 2.32-.04 5.31-.61 8.94-1.71.23-.07.44-.1.65-.1.62 0 1.12.23 1.5.68.34.4.52.85.52 1.35 0 .84-.43 1.46-1.28 1.84zM32.01 43.94c-.2 0-.4-.03-.62-.09-1.59-.43-3.13-.65-4.63-.65-.74 0-1.53.06-2.37.18-.84.12-1.74.29-2.69.53 0 1.3-.04 3.24-.13 5.81.55-.04 2.47-.22 5.75-.54 1.87-.19 3.06-.28 3.56-.28.58 0 1.07.18 1.49.55s.62.86.62 1.46c0 1.17-.62 1.83-1.87 1.99-.79.06-1.96.16-3.52.29-1.39.16-3.49.35-6.3.57-.07 1.25-.1 2.25-.1 3.02 0 1.92.11 3.02.34 3.28.11.13.73.19 1.85.19.61 0 1.52-.01 2.75-.04s2.14-.04 2.75-.04c.2 0 .49-.03.87-.09s.67-.09.85-.09c.57 0 1.05.16 1.46.49.46.36.69.87.69 1.53 0 1.1-.57 1.76-1.72 1.97-.98.19-3.02.28-6.1.28s-5.28-.43-6.25-1.29c-1.07-.95-1.6-3.01-1.6-6.18 0-1.31.1-3.29.29-5.92s.29-4.6.29-5.91c0-.34-.05-.85-.15-1.52-.1-.67-.15-1.18-.15-1.52 0-1.49.69-2.24 2.06-2.24.43 0 .83.12 1.19.37 1.14-.28 2.22-.5 3.24-.64s1.99-.21 2.91-.21c2.47 0 4.45.28 5.93.85.9.34 1.35.97 1.35 1.87 0 .51-.18.96-.53 1.35a1.9 1.9 0 0 1-1.5.68zM52.9 63.24c-.77-.03-1.55-.94-2.34-2.74-.52-1.16-.97-2.49-1.34-4-.73.11-1.91.22-3.56.32-1.55.11-2.74.24-3.56.38-.45 1.08-1.24 2.7-2.35 4.87-.43.71-1.03 1.06-1.79 1.06-.54 0-1.03-.18-1.46-.55s-.65-.84-.65-1.4c0-.5.72-2.2 2.15-5.09-.14-.3-.2-.59-.18-.85.04-.47.52-.84 1.43-1.1 1.39-2.41 2.94-4.91 4.65-7.5 2.45-3.72 3.96-5.58 4.53-5.58 1.08 0 1.8.65 2.16 1.96.2 1.05.5 2.62.93 4.72.6 2.82 1.33 6.06 2.19 9.69.07.27.32.92.75 1.94.35.84.53 1.48.53 1.9 0 .57-.21 1.04-.64 1.43-.43.38-.91.56-1.45.54zm-5.49-15.09c-.77 1.31-1.82 3.1-3.16 5.37.44-.1 1.13-.18 2.06-.24 1.1-.07 1.79-.12 2.07-.16-.24-1.27-.56-2.93-.97-4.97zM73.11 62.98c-.53 0-1.02-.21-1.46-.62-2.97-2.79-6.24-4.72-9.8-5.8.11 2.85.16 4.44.16 4.75 0 .56-.2 1.03-.59 1.42-.39.39-.88.58-1.47.58s-1.08-.19-1.47-.58c-.39-.39-.59-.86-.59-1.42 0-.74 0-1.84.03-3.3.02-1.47.03-2.57.03-3.3l.03-11.87c0-.64.19-1.22.57-1.74.5-.67 1.19-.97 2.07-.9 2.38.18 3.6.27 3.66.28 1.37.17 2.54.5 3.5.99 4.19 2.11 6.28 4.72 6.28 7.84 0 1.28-.44 2.42-1.32 3.41-.88.99-2.19 1.82-3.95 2.49 2.6 1.45 4.56 2.93 5.87 4.44.34.39.52.83.52 1.31 0 .55-.21 1.02-.62 1.42-.41.4-.9.6-1.47.6zm-9.43-18.51c-.08 0-.65-.05-1.72-.12v7.81c.25 0 .46.01.65.01 2.4 0 4.18-.3 5.34-.9.5-.25.96-.59 1.37-1.02.42-.42.63-.74.63-.96 0-1.1-.7-2.16-2.09-3.18-1.32-.96-2.72-1.52-4.18-1.66zM99.09 59.18c0 .49-.08 1.27-.25 2.32-.2 1.27-.91 1.9-2.15 1.9-.69 0-1.46-.39-2.32-1.16-3.78-3.4-8.04-8.17-12.78-14.31a297.7 297.7 0 0 0-.09 4.69c0 .77.02 1.94.05 3.5s.05 2.73.05 3.5c0 2.89-.71 4.34-2.12 4.34-.72 0-1.29-.22-1.72-.66-.38-.39-.57-.87-.57-1.43 0-.39.03-.99.1-1.78.06-.79.1-1.39.1-1.78 0-.58.02-1.45.06-2.6.04-1.16.06-2.03.06-2.6 0-.62-.02-1.55-.04-2.8-.03-1.25-.04-2.18-.04-2.8s-.06-1.47-.18-2.63c-.12-1.17-.18-2.04-.18-2.63s.25-1.11.76-1.57c.5-.46 1.08-.69 1.73-.69.73 0 1.53.63 2.41 1.88 4.45 6.36 8.85 11.54 13.18 15.55.01-.31.02-1.06.02-2.24 0-4.83-.05-8.1-.15-9.78-.02-.28-.08-.81-.19-1.59-.1-.69-.15-1.23-.15-1.62 0-1.35.72-2.03 2.15-2.03 1.6 0 2.4 2.47 2.4 7.4 0 .11-.01.88-.03 2.32-.06 4.98-.09 8.08-.09 9.3zM114.08 45.41c-.47 0-1.76-.14-3.87-.41-.14 1.8-.21 4.2-.21 7.19v6.61c1.29-.03 2.62-.04 3.97-.04.59 0 1.08.2 1.46.59.39.39.58.86.58 1.41s-.2 1.02-.59 1.4c-.4.39-.89.58-1.5.58-.56 0-1.4.01-2.52.04-1.12.02-1.96.04-2.52.04-.66 0-1.65.09-2.98.26-1.32.17-2.31.26-2.98.26-.6 0-1.1-.19-1.5-.58-.4-.39-.59-.86-.59-1.4s.21-1.02.62-1.41c.41-.39.94-.59 1.57-.59.71 0 1.65-.07 2.82-.22-.02-1.16-.03-3.37-.03-6.65 0-2.67.1-5.21.29-7.63l-3.19.09c-.59 0-1.08-.19-1.48-.57-.4-.38-.6-.86-.6-1.43s.19-1.05.57-1.41c.35-.33.78-.52 1.3-.57.84-.08 2.29-.12 4.36-.12 1.86 0 4.26.21 7.2.62 1.17.17 1.75.84 1.75 2.03 0 .63-.23 1.12-.68 1.49-.37.3-.79.46-1.26.46zM140.05 59.18c0 .49-.08 1.27-.25 2.32-.2 1.27-.91 1.9-2.15 1.9-.69 0-1.46-.39-2.32-1.16-3.78-3.4-8.04-8.17-12.78-14.31a297.7 297.7 0 0 0-.09 4.69c0 .77.02 1.94.05 3.5s.05 2.73.05 3.5c0 2.89-.71 4.34-2.12 4.34-.72 0-1.29-.22-1.72-.66-.38-.39-.57-.87-.57-1.43 0-.39.03-.99.1-1.78.06-.79.1-1.39.1-1.78 0-.58.02-1.45.06-2.6.04-1.16.06-2.03.06-2.6 0-.62-.02-1.55-.04-2.8-.03-1.25-.04-2.18-.04-2.8s-.06-1.47-.18-2.63c-.12-1.17-.18-2.04-.18-2.63s.25-1.11.76-1.57c.5-.46 1.08-.69 1.73-.69.73 0 1.53.63 2.41 1.88 4.45 6.36 8.85 11.54 13.18 15.55.01-.31.02-1.06.02-2.24 0-4.83-.05-8.1-.15-9.78-.02-.28-.08-.81-.19-1.59-.1-.69-.15-1.23-.15-1.62 0-1.35.72-2.03 2.15-2.03 1.6 0 2.4 2.47 2.4 7.4 0 .11-.01.88-.03 2.32-.06 4.98-.09 8.08-.09 9.3zM160.92 54.15c-.67 2.92-2.01 5.26-4.03 7.02-2.05 1.77-4.45 2.65-7.21 2.65-2.61 0-4.57-.69-5.87-2.07-1.3-1.38-1.96-3.44-1.96-6.2 0-2.51.62-5.08 1.85-7.72 1.24-2.64 2.82-4.78 4.77-6.41 1.36-1.15 2.82-1.72 4.38-1.72.95 0 2.25.34 3.88 1.03 1.94.81 2.91 1.68 2.91 2.6 0 .53-.2 1-.6 1.42-.4.42-.9.63-1.49.63-.29 0-.94-.28-1.95-.83-1-.55-1.92-.83-2.76-.83-.88 0-2.07.95-3.57 2.85-2.19 2.77-3.28 5.76-3.28 8.99 0 1.64.24 2.75.72 3.34.51.62 1.5.93 2.96.93s2.82-.43 3.96-1.28c1.21-.9 2.1-2.22 2.68-3.94-2.28.18-4.26.64-5.94 1.4-.3.14-.61.21-.91.21-.61 0-1.11-.23-1.51-.68-.36-.4-.54-.86-.54-1.37 0-1.5 1.78-2.55 5.33-3.15 2-.33 4.33-.5 7-.5.59 0 1.08.19 1.48.57.4.38.6.85.6 1.41 0 .72-.29 1.27-.88 1.66zM193.89 45.16c-.76 0-1.96-.05-3.57-.16-1.56-.11-2.75-.16-3.57-.15.04 1.12.17 3.11.4 5.97.21 2.53.31 4.53.31 6 0 .33.03.83.1 1.49s.1 1.15.1 1.49c0 .74-.16 1.4-.47 1.99-.4.76-.98 1.13-1.72 1.13-.54 0-1.02-.17-1.43-.51-.46-.38-.69-.86-.69-1.44 0-.14.02-.35.07-.63s.07-.49.07-.64c0-.45-.03-1.13-.1-2.04s-.1-1.6-.1-2.06c0-1.31-.1-3.09-.31-5.34-.24-2.58-.37-4.36-.41-5.34h-.77c-2.19 0-3.92-.16-5.21-.47-1.09-.26-1.63-.91-1.63-1.93 0-.5.18-.95.53-1.35.41-.48.95-.7 1.62-.65.34.02 1.12.1 2.34.25.97.11 1.76.16 2.35.16s1.49 0 2.68-.03c1.19-.02 2.09-.03 2.69-.03.75 0 1.86.05 3.35.15 1.49.1 2.61.15 3.35.15.59 0 1.08.19 1.48.57.4.38.6.85.6 1.41s-.2 1.03-.6 1.42c-.4.39-.89.58-1.48.58zM207.35 63.7c-2.9 0-5.37-.83-7.41-2.5-2.18-1.78-3.27-4.09-3.27-6.93 0-3.33 1.04-6.37 3.13-9.12 2.34-3.09 5.3-4.63 8.86-4.63s5.99.78 7.69 2.35c1.71 1.57 2.56 3.93 2.56 7.08 0 3.33-.96 6.36-2.88 9.06-2.22 3.13-5.11 4.69-8.68 4.69zm1.31-19.2c-2.19 0-4.06 1.06-5.62 3.18-1.46 1.98-2.19 4.18-2.19 6.59 0 1.63.63 2.95 1.9 3.97 1.22.98 2.75 1.47 4.6 1.47 2.16 0 3.96-1.06 5.4-3.18 1.32-1.93 1.99-4.13 1.99-6.59 0-2.06-.46-3.49-1.38-4.3-.88-.76-2.45-1.15-4.69-1.15zM248.23 62.24c-1.16.51-2.95.97-5.37 1.37-2.22.37-4.04.56-5.46.56-2.4 0-3.6-1.05-3.6-3.16 0 .17.1-1.39.29-4.66.25-4.26.38-8.99.38-14.21 0-.56.19-1.03.58-1.43.39-.39.88-.59 1.46-.59s1.08.2 1.47.59c.39.39.59.87.59 1.43 0 5.23-.13 10.04-.4 14.45-.09.78-.18 1.99-.28 3.6 2.32-.04 5.31-.61 8.94-1.71.23-.07.44-.1.65-.1.62 0 1.12.23 1.5.68.34.4.52.85.52 1.35 0 .84-.43 1.46-1.28 1.84zM263.25 45.41c-.47 0-1.76-.14-3.87-.41-.14 1.8-.21 4.2-.21 7.19v6.61c1.29-.03 2.62-.04 3.97-.04.59 0 1.08.2 1.46.59.39.39.58.86.58 1.41s-.2 1.02-.59 1.4c-.4.39-.89.58-1.5.58-.56 0-1.4.01-2.52.04-1.12.02-1.96.04-2.52.04-.66 0-1.65.09-2.98.26-1.32.17-2.31.26-2.98.26-.6 0-1.1-.19-1.5-.58-.4-.39-.59-.86-.59-1.4s.21-1.02.62-1.41c.41-.39.94-.59 1.57-.59.71 0 1.65-.07 2.82-.22-.02-1.16-.03-3.37-.03-6.65 0-2.67.1-5.21.29-7.63l-3.19.09c-.59 0-1.08-.19-1.48-.57-.4-.38-.6-.86-.6-1.43s.19-1.05.57-1.41c.35-.33.78-.52 1.3-.57.84-.08 2.29-.12 4.36-.12 1.86 0 4.26.21 7.2.62 1.17.17 1.75.84 1.75 2.03 0 .63-.23 1.12-.68 1.49-.37.3-.79.46-1.26.46zM274.36 63.7c-2.49 0-4.45-.55-5.88-1.66-1.21-.92-1.81-1.99-1.81-3.19 0-.62.19-1.13.56-1.54.37-.41.89-.61 1.54-.61.88 0 1.53.45 1.94 1.35.56 1.21 1.82 1.81 3.8 1.81 1.69 0 3.32-.37 4.9-1.1 1.64-.76 2.46-1.58 2.46-2.49 0-1.24-.51-2.05-1.53-2.44-.73-.28-2.18-.45-4.37-.5-1.7-.04-3.22-.36-4.56-.96-1.81-.81-2.71-1.98-2.68-3.5.03-1.91 1.05-3.67 3.06-5.26 2.01-1.59 4.23-2.39 6.65-2.39.96 0 2.15.22 3.56.66 1.76.55 2.63 1.18 2.63 1.9 0 .51-.18.96-.53 1.35-.39.44-.9.66-1.51.66-.46 0-1.15-.1-2.07-.29-.92-.2-1.61-.29-2.08-.29-1.26 0-2.47.31-3.6.91-1.18.61-1.77 1.27-1.77 1.99 0 .37.18.68.54.92.36.24.9.41 1.61.51l3.75.21c2.18.17 3.9.78 5.16 1.84 1.39 1.18 2.09 2.8 2.09 4.88 0 2.53-1.44 4.45-4.32 5.75-2.2.99-4.71 1.49-7.53 1.49zM305.91 45.16c-.76 0-1.96-.05-3.57-.16-1.56-.11-2.75-.16-3.57-.15.04 1.12.17 3.11.4 5.97.21 2.53.31 4.53.31 6 0 .33.03.83.1 1.49s.1 1.15.1 1.49c0 .74-.16 1.4-.47 1.99-.4.76-.98 1.13-1.72 1.13-.54 0-1.02-.17-1.43-.51-.46-.38-.69-.86-.69-1.44 0-.14.02-.35.07-.63s.07-.49.07-.64c0-.45-.03-1.13-.1-2.04s-.1-1.6-.1-2.06c0-1.31-.1-3.09-.31-5.34-.24-2.58-.37-4.36-.41-5.34h-.77c-2.19 0-3.92-.16-5.21-.47-1.09-.26-1.63-.91-1.63-1.93 0-.5.18-.95.53-1.35.41-.48.95-.7 1.62-.65.34.02 1.12.1 2.34.25.97.11 1.76.16 2.35.16s1.49 0 2.68-.03c1.19-.02 2.09-.03 2.69-.03.75 0 1.86.05 3.35.15 1.49.1 2.61.15 3.35.15.59 0 1.08.19 1.48.57.4.38.6.85.6 1.41s-.2 1.03-.6 1.42c-.4.39-.89.58-1.48.58zM324.12 43.94c-.2 0-.4-.03-.62-.09-1.59-.43-3.13-.65-4.63-.65-.74 0-1.53.06-2.37.18-.84.12-1.74.29-2.69.53 0 1.3-.04 3.24-.13 5.81.55-.04 2.47-.22 5.75-.54 1.87-.19 3.06-.28 3.56-.28.58 0 1.07.18 1.49.55s.62.86.62 1.46c0 1.17-.62 1.83-1.87 1.99-.79.06-1.96.16-3.52.29-1.39.16-3.49.35-6.3.57-.07 1.25-.1 2.25-.1 3.02 0 1.92.11 3.02.34 3.28.11.13.73.19 1.85.19.61 0 1.52-.01 2.75-.04s2.14-.04 2.75-.04c.2 0 .49-.03.87-.09s.67-.09.85-.09c.57 0 1.05.16 1.46.49.46.36.69.87.69 1.53 0 1.1-.57 1.76-1.72 1.97-.98.19-3.02.28-6.1.28s-5.28-.43-6.25-1.29c-1.07-.95-1.6-3.01-1.6-6.18 0-1.31.1-3.29.29-5.92s.29-4.6.29-5.91c0-.34-.05-.85-.15-1.52-.1-.67-.15-1.18-.15-1.52 0-1.49.69-2.24 2.06-2.24.43 0 .83.12 1.19.37 1.14-.28 2.22-.5 3.24-.64s1.99-.21 2.91-.21c2.47 0 4.45.28 5.93.85.9.34 1.35.97 1.35 1.87 0 .51-.18.96-.53 1.35a1.9 1.9 0 0 1-1.5.68zM349.88 59.18c0 .49-.08 1.27-.25 2.32-.2 1.27-.91 1.9-2.15 1.9-.69 0-1.46-.39-2.32-1.16-3.78-3.4-8.04-8.17-12.78-14.31a297.7 297.7 0 0 0-.09 4.69c0 .77.02 1.94.05 3.5s.05 2.73.05 3.5c0 2.89-.71 4.34-2.12 4.34-.72 0-1.29-.22-1.72-.66-.38-.39-.57-.87-.57-1.43 0-.39.03-.99.1-1.78.06-.79.1-1.39.1-1.78 0-.58.02-1.45.06-2.6.04-1.16.06-2.03.06-2.6 0-.62-.02-1.55-.04-2.8-.03-1.25-.04-2.18-.04-2.8s-.06-1.47-.18-2.63c-.12-1.17-.18-2.04-.18-2.63s.25-1.11.76-1.57c.5-.46 1.08-.69 1.73-.69.73 0 1.53.63 2.41 1.88 4.45 6.36 8.85 11.54 13.18 15.55.01-.31.02-1.06.02-2.24 0-4.83-.05-8.1-.15-9.78-.02-.28-.08-.81-.19-1.59-.1-.69-.15-1.23-.15-1.62 0-1.35.72-2.03 2.15-2.03 1.6 0 2.4 2.47 2.4 7.4 0 .11-.01.88-.03 2.32-.06 4.98-.09 8.08-.09 9.3z" fill="#fff"/></svg>