<svg xmlns="http://www.w3.org/2000/svg" width="220" height="152" viewBox="0 0 220 152"><path d="M57.49 0c.21.11.27.3.2.59a2.92 2.92 0 0 1-.52 1 7.62 7.62 0 0 1-.91 1 4.18 4.18 0 0 1-1 .71 9.23 9.23 0 0 0-3 1.39 9 9 0 0 0-2.32 2.51 20.55 20.55 0 0 0-2 4.31c-.63 1.76-1.29 4-2 6.76a55.3 55.3 0 0 1-8 18.1 10.47 10.47 0 0 0 1.93-.47 8.56 8.56 0 0 0 1.31-.55c.16-.06.26 0 .31.11a.45.45 0 0 1-.07.44 9.73 9.73 0 0 1-1.74.79 10.57 10.57 0 0 1-2.3.55 35.08 35.08 0 0 1-11.44 10.24 28.87 28.87 0 0 1-14 3.52q-5.77 0-8.86-2A6.17 6.17 0 0 1 0 43.65a7.84 7.84 0 0 1 2.21-5.26 13.45 13.45 0 0 1 7-3.68c.27.06.41.16.44.32a.47.47 0 0 1-.12.4c-3.22 1-4.82 3-4.82 6a6.29 6.29 0 0 0 2.61 5.29c1.73 1.32 4.16 2 7.27 2a23.53 23.53 0 0 0 11.07-2.57 22.76 22.76 0 0 0 8.62-8.66 7.85 7.85 0 0 1-6.17-3.08A12 12 0 0 1 25.94 27a20.24 20.24 0 0 1 2.61-9.72 31.89 31.89 0 0 1 7-8.7 35.29 35.29 0 0 1 10.04-6.21A30.85 30.85 0 0 1 57.49 0zM41 20a43.09 43.09 0 0 1 1.9-6.09 23.36 23.36 0 0 1 2.29-4.39 15.09 15.09 0 0 1 2.89-3.2 24.27 24.27 0 0 1 3.79-2.52 30 30 0 0 0-10 2.92 31.72 31.72 0 0 0-7.91 5.5 24.34 24.34 0 0 0-5.14 7A17.3 17.3 0 0 0 27 26.73q0 4.74 2 7.27a7.59 7.59 0 0 0 5.61 2.73A66 66 0 0 0 41 20zM67.77 45.47c.1-.11.23-.09.39 0a.47.47 0 0 1 .16.51A17.79 17.79 0 0 1 65 49.5a5.89 5.89 0 0 1-3.64 1.5 2.6 2.6 0 0 1-2.09-.87 3.33 3.33 0 0 1-.76-2.29 20.7 20.7 0 0 1 1-6 42.92 42.92 0 0 1 2.65-6.56 3 3 0 0 0 .24-1.19c0-.53-.24-.79-.71-.79q-2.93 0-6.49 4T48.63 50a.87.87 0 0 1-.51.43 5 5 0 0 1-1 .32c-.37.08-.74.14-1.11.19a5.54 5.54 0 0 1-.87.08.9.9 0 0 1-.59-.16c-.13-.1-.15-.28 0-.55.89-2.26 1.8-4.76 2.73-7.47s1.72-5.44 2.41-8.19a1.79 1.79 0 0 0 .08-1.14.57.57 0 0 0-.56-.36 2.4 2.4 0 0 0-1.66.75 12.77 12.77 0 0 0-1.45 1.6.29.29 0 0 1-.43-.07.46.46 0 0 1-.12-.48 12.24 12.24 0 0 1 1.06-1.26 12.49 12.49 0 0 1 1.55-1.39A9.22 9.22 0 0 1 50 31.2a4.57 4.57 0 0 1 1.9-.44 1.82 1.82 0 0 1 1.78.83 3 3 0 0 1 .2 2c-.27 1.16-.54 2.25-.83 3.28s-.65 2.17-1.07 3.44a22.43 22.43 0 0 1 2.33-3.44 22 22 0 0 1 3.09-3.09 14.88 14.88 0 0 1 3.68-2.21 10.73 10.73 0 0 1 4.19-.83 2.1 2.1 0 0 1 1.46.47 1.48 1.48 0 0 1 .51 1.11 3.6 3.6 0 0 1-.55 2 42.21 42.21 0 0 0-2.81 6.21 17.28 17.28 0 0 0-1.14 5.73c0 1.37.44 2.05 1.34 2.05a2.72 2.72 0 0 0 1.74-.71 13.3 13.3 0 0 0 1.95-2.13zM77.81 49.9c-.74.26-1.6.51-2.57.75a12.61 12.61 0 0 1-2.89.35c-.63 0-.82-.34-.55-1a52.61 52.61 0 0 0 2.29-7.24 67.71 67.71 0 0 0 1.35-7c.15-1.84-.14-2.77-.87-2.77s-1.77.61-2.93 1.82a.53.53 0 0 1-.63-.08.42.42 0 0 1-.08-.55 14.53 14.53 0 0 1 3.2-2.41 7.35 7.35 0 0 1 3.6-1 1.65 1.65 0 0 1 1.58.71 3.77 3.77 0 0 1 .4 1.82 24.07 24.07 0 0 1-.32 3.56c-.21 1.37-.49 2.81-.83 4.31s-.71 3-1.11 4.43-.78 2.75-1.14 3.91a13.38 13.38 0 0 0 4.38-2.06A21.61 21.61 0 0 0 84.61 44a18 18 0 0 0 2.81-4.31A11.27 11.27 0 0 0 88.48 35c0-1.37-.42-2.06-1.26-2.06a2.15 2.15 0 0 0-1.15.28 3.58 3.58 0 0 0-.91 1 .24.24 0 0 1-.39-.08.49.49 0 0 1-.08-.47 7.33 7.33 0 0 1 1.93-1.86 4.92 4.92 0 0 1 2.89-1 2.26 2.26 0 0 1 1.94.91 3.68 3.68 0 0 1 .67 2.25 10.06 10.06 0 0 1-1.19 4.63 20 20 0 0 1-3.16 4.4 27.47 27.47 0 0 1-4.58 3.91 31.66 31.66 0 0 1-5.38 2.99zM96.63 36.3c-.16.1-.29.06-.4-.12a.67.67 0 0 1-.08-.52 43.06 43.06 0 0 1 8.15-4.9c.42 0 .63.24.63.71-.69 1.21-1.36 2.53-2 4s-1.24 2.83-1.74 4.23a38.66 38.66 0 0 0-1.22 4 13.84 13.84 0 0 0-.48 3.2c0 1.06.37 1.58 1.11 1.58a2.53 2.53 0 0 0 1.7-.75c.55-.5 1.2-1.14 1.94-1.94.1-.1.24-.09.39 0a.48.48 0 0 1 .08.6 20.73 20.73 0 0 1-3.44 3.32A5.53 5.53 0 0 1 98 51c-1.84 0-2.77-.87-2.77-2.61a15.74 15.74 0 0 1 .41-3.39 28.93 28.93 0 0 1 1.19-4c.5-1.34 1-2.66 1.66-3.95a25.25 25.25 0 0 1 1.85-3.37c-.58.32-1.22.72-1.93 1.19a14.89 14.89 0 0 0-1.78 1.43zm8.46-8.94a.34.34 0 0 1-.52 0 1.56 1.56 0 0 1-.43-.67 2.67 2.67 0 0 1-.16-1 1.72 1.72 0 0 1 .24-.91 33.17 33.17 0 0 1 2.57-2.78 21.59 21.59 0 0 1 3.52-2.88c.1-.06.23 0 .39.11s.21.26.16.36a22.11 22.11 0 0 0-3.16 3.6 39.26 39.26 0 0 0-2.61 4.17zM123.2 31.16c.26.1.36.25.31.43s-.29.33-.71.44c-.79 0-1.7 0-2.73.07s-2.12.14-3.28.24a71.46 71.46 0 0 0-2.61 7.55 23.6 23.6 0 0 0-1 6c0 1.8.69 2.69 2.06 2.69s2.9-1.18 4.58-3.56a.36.36 0 0 1 .44 0 .55.55 0 0 1 .12.56 14.44 14.44 0 0 1-3.4 3.83 6.56 6.56 0 0 1-4 1.62 4.14 4.14 0 0 1-3-1 3.65 3.65 0 0 1-1-2.72A25.58 25.58 0 0 1 110 41a69.34 69.34 0 0 1 2.85-8.22 34.6 34.6 0 0 0-3.8.63c-.26 0-.33-.18-.2-.4a2.57 2.57 0 0 1 .71-.67 5.9 5.9 0 0 1 1.23-.63 3.79 3.79 0 0 1 1.34-.28h.64a2.27 2.27 0 0 0 .63-.08c.68-1.52 1.4-3 2.14-4.42s1.46-2.76 2.2-3.93a4.41 4.41 0 0 1 1.3-1 9.78 9.78 0 0 1 1.62-.67 6.76 6.76 0 0 1 1.31-.28c.34 0 .49.07.43.28a52.79 52.79 0 0 0-2.64 4.59c-.87 1.68-1.7 3.45-2.5 5.29 1-.05 2-.07 3-.07zM144.47 46q.15-.15.39 0a.41.41 0 0 1 .16.48 13.06 13.06 0 0 1-3.16 3.28 5.8 5.8 0 0 1-3.32 1.24c-1.22 0-2-.85-2.34-2.57a13 13 0 0 1 .52-6.12 31.52 31.52 0 0 1-4.63 5.81 9.93 9.93 0 0 1-5.26 2.88 3.22 3.22 0 0 1-2.92-1.74 7.72 7.72 0 0 1-1-4 11.69 11.69 0 0 1 1.26-5.18 17.2 17.2 0 0 1 3.36-4.62 19 19 0 0 1 4.67-3.37 11.45 11.45 0 0 1 5.18-1.3 6.56 6.56 0 0 1 4.35 1.34 7.61 7.61 0 0 1 2-.94 7 7 0 0 1 2.17-.4c.21 0 .32.13.32.4a24.47 24.47 0 0 0-3.14 4.81 31.61 31.61 0 0 0-2 5.06 21.07 21.07 0 0 0-.87 4.31 4.43 4.43 0 0 0 .31 2.61 1.32 1.32 0 0 0 1.35.28c.62-.12 1.49-.87 2.6-2.26zm-15.19 2.06a4 4 0 0 0 2.34-1.19 20.39 20.39 0 0 0 2.88-3.16 50.08 50.08 0 0 0 3-4.43 45.18 45.18 0 0 0 2.57-5 2.86 2.86 0 0 0-1.46-1.66 5.44 5.44 0 0 0-2.65-.63 6.73 6.73 0 0 0-3.4.9 8.63 8.63 0 0 0-2.73 2.53 13.26 13.26 0 0 0-1.83 3.92 17.16 17.16 0 0 0-.67 4.94 5.48 5.48 0 0 0 .59 2.77c.38.69.84 1.03 1.36 1.03zM163.84 31.16c.26.1.37.25.32.43s-.29.33-.72.44c-.79 0-1.7 0-2.72.07s-2.13.14-3.29.24a71.46 71.46 0 0 0-2.61 7.55 23.52 23.52 0 0 0-1 6c0 1.8.68 2.69 2 2.69s2.9-1.18 4.59-3.56a.35.35 0 0 1 .43 0c.14.11.17.29.12.56a14.27 14.27 0 0 1-3.4 3.83 6.54 6.54 0 0 1-4 1.62 4.12 4.12 0 0 1-3-1 3.65 3.65 0 0 1-1-2.72 26 26 0 0 1 1.1-6.33 69.34 69.34 0 0 1 2.85-8.22 34 34 0 0 0-3.79.63c-.27 0-.33-.18-.2-.4a2.57 2.57 0 0 1 .71-.67 5.57 5.57 0 0 1 1.22-.63 3.88 3.88 0 0 1 1.35-.28h.63a2.27 2.27 0 0 0 .63-.08c.69-1.52 1.4-3 2.14-4.42s1.47-2.72 2.21-3.88a4.33 4.33 0 0 1 1.31-1 9.12 9.12 0 0 1 1.62-.67 6.69 6.69 0 0 1 1.3-.28c.35 0 .49.07.44.28a50.31 50.31 0 0 0-2.65 4.59c-.87 1.68-1.7 3.45-2.49 5.29 1-.05 2-.07 3-.07zM165.18 36.3c-.15.1-.29.06-.39-.12a.63.63 0 0 1-.08-.52 42.93 42.93 0 0 1 8.14-4.9c.42 0 .64.24.64.71-.69 1.21-1.36 2.53-2 4s-1.24 2.83-1.74 4.23a41.39 41.39 0 0 0-1.23 4 14.31 14.31 0 0 0-.47 3.2c0 1.06.37 1.58 1.11 1.58a2.55 2.55 0 0 0 1.7-.75c.55-.5 1.2-1.14 1.93-1.94.11-.1.24-.09.4 0s.18.33.08.6a21.12 21.12 0 0 1-3.44 3.32 5.58 5.58 0 0 1-3.3 1.29c-1.85 0-2.77-.87-2.77-2.61a15.66 15.66 0 0 1 .43-3.36 30.42 30.42 0 0 1 1.19-4c.5-1.34 1.05-2.66 1.66-3.95a26.41 26.41 0 0 1 1.86-3.37c-.58.32-1.23.72-1.94 1.19a16.71 16.71 0 0 0-1.78 1.4zm8.46-8.94a.33.33 0 0 1-.51 0 1.56 1.56 0 0 1-.43-.67 2.67 2.67 0 0 1-.16-1 1.81 1.81 0 0 1 .23-.91 35 35 0 0 1 2.57-2.78 22.47 22.47 0 0 1 3.52-2.88c.11-.06.24 0 .4.11s.21.26.16.36a22.15 22.15 0 0 0-3.17 3.6 39.26 39.26 0 0 0-2.61 4.17zM188.35 30.76a5 5 0 0 1 4.11 1.66 6 6 0 0 1 1.35 3.88 13.46 13.46 0 0 1-1.23 5.7 19.21 19.21 0 0 1-3 4.66 14.8 14.8 0 0 1-3.84 3.17A7.82 7.82 0 0 1 182 51a5.05 5.05 0 0 1-4-1.62 6.17 6.17 0 0 1-1.38-4.15 13.19 13.19 0 0 1 1-4.82 19.43 19.43 0 0 1 2.61-4.67 15.61 15.61 0 0 1 3.75-3.56 7.88 7.88 0 0 1 4.37-1.42zM184 48.55a4.89 4.89 0 0 0 4.15-2.55 12.65 12.65 0 0 0 1.7-7.08 7.5 7.5 0 0 0-.95-3.92 3 3 0 0 0-2.76-1.58 4.76 4.76 0 0 0-4.14 2.4c-1.05 1.64-1.58 4-1.58 7.2a7.14 7.14 0 0 0 1 4.15 3 3 0 0 0 2.58 1.38zM219.43 45.47c.1-.11.23-.09.39 0a.47.47 0 0 1 .18.53 17.79 17.79 0 0 1-3.28 3.48A5.89 5.89 0 0 1 213 51a2.62 2.62 0 0 1-2.09-.87 3.33 3.33 0 0 1-.75-2.29 20.66 20.66 0 0 1 1-6 42.92 42.92 0 0 1 2.65-6.56 3 3 0 0 0 .24-1.19c0-.53-.24-.79-.71-.79q-2.93 0-6.49 4T200.29 50a.87.87 0 0 1-.51.43 5 5 0 0 1-1 .32c-.37.08-.74.14-1.11.19a5.54 5.54 0 0 1-.87.08.9.9 0 0 1-.59-.16c-.13-.1-.15-.28 0-.55.89-2.26 1.8-4.76 2.73-7.47s1.72-5.44 2.41-8.19a1.79 1.79 0 0 0 .08-1.14.57.57 0 0 0-.56-.36 2.4 2.4 0 0 0-1.66.75 12.77 12.77 0 0 0-1.42 1.62.29.29 0 0 1-.43-.07.46.46 0 0 1-.12-.48 12.24 12.24 0 0 1 1.06-1.26 13.25 13.25 0 0 1 1.55-1.39 9 9 0 0 1 1.82-1.1 4.49 4.49 0 0 1 1.89-.44 1.82 1.82 0 0 1 1.78.83 3 3 0 0 1 .2 2c-.26 1.16-.54 2.25-.83 3.28s-.65 2.17-1.07 3.44a22.43 22.43 0 0 1 2.33-3.44A22 22 0 0 1 209 33.8a14.88 14.88 0 0 1 3.68-2.21 10.73 10.73 0 0 1 4.19-.83 2.1 2.1 0 0 1 1.46.47 1.48 1.48 0 0 1 .51 1.11 3.6 3.6 0 0 1-.55 2 42.21 42.21 0 0 0-2.81 6.21 17.28 17.28 0 0 0-1.14 5.73c0 1.37.44 2.05 1.34 2.05a2.72 2.72 0 0 0 1.74-.71 13.3 13.3 0 0 0 2.01-2.15zM129.83 76.1c.27.11.37.25.32.44s-.29.33-.71.43c-.79 0-1.7 0-2.73.08s-2.12.13-3.28.24a67.2 67.2 0 0 0-2.61 7.55 23.09 23.09 0 0 0-1 6c0 1.79.69 2.69 2.06 2.69s2.9-1.19 4.58-3.56a.33.33 0 0 1 .44 0 .54.54 0 0 1 .12.55 14.33 14.33 0 0 1-3.4 3.84 6.59 6.59 0 0 1-4 1.62 4.13 4.13 0 0 1-3-1 3.69 3.69 0 0 1-1-2.73 25.52 25.52 0 0 1 1.11-6.32 70 70 0 0 1 2.84-8.23 34.31 34.31 0 0 0-3.79.64c-.27-.06-.33-.19-.2-.4a2.57 2.57 0 0 1 .71-.67 5.44 5.44 0 0 1 1.23-.63 3.58 3.58 0 0 1 1.34-.28h.64a2.72 2.72 0 0 0 .63-.08q1-2.3 2.13-4.43t2.12-3.85a4.28 4.28 0 0 1 1.3-1 9 9 0 0 1 1.62-.67 6.61 6.61 0 0 1 1.31-.28c.34 0 .48.07.43.28-.89 1.37-1.78 2.9-2.65 4.58s-1.7 3.46-2.49 5.3c1-.05 2-.08 3-.08zM141.22 75.71a5 5 0 0 1 4.11 1.66 5.94 5.94 0 0 1 1.35 3.87 13.4 13.4 0 0 1-1.23 5.76 19.28 19.28 0 0 1-3 4.67 14.75 14.75 0 0 1-3.84 3.16 7.73 7.73 0 0 1-3.72 1.17 5.05 5.05 0 0 1-4.07-1.62 6.19 6.19 0 0 1-1.38-4.15 13.28 13.28 0 0 1 1-4.83 18.71 18.71 0 0 1 2.56-4.71 15.41 15.41 0 0 1 3.75-3.56 7.86 7.86 0 0 1 4.47-1.42zm-4.35 17.79a4.93 4.93 0 0 0 4.13-2.57 12.74 12.74 0 0 0 1.7-7.08 7.48 7.48 0 0 0-.95-3.95 3 3 0 0 0-2.75-1.58 4.74 4.74 0 0 0-4.12 2.45q-1.57 2.45-1.58 7.19a7.12 7.12 0 0 0 1 4.15 3 3 0 0 0 2.57 1.39zM97.91 100.1a5 5 0 0 1 4 1.7 6.08 6.08 0 0 1 1.51 4.15 11.54 11.54 0 0 1-.72 3.68 18.33 18.33 0 0 1-1.5 3.44.61.61 0 0 1-.67.08.45.45 0 0 1-.28-.55 7.6 7.6 0 0 0 .4-2.85 5.61 5.61 0 0 0-.79-2.61 5.26 5.26 0 0 0-2.18-1.94 8 8 0 0 0-3.67-.75 11.65 11.65 0 0 0-5.18 1.07 10.78 10.78 0 0 0-4 3.72 31.35 31.35 0 0 0-3.4 7.07c-1 3-2.13 6.64-3.24 11.07q-2.76 10.6-7.67 16.37 3.56 1.35 7.47 2.41a33 33 0 0 0 8.66 1.07 10.52 10.52 0 0 0 6-1.42A10.62 10.62 0 0 0 96 141.7a.46.46 0 0 1 .6 0 .62.62 0 0 1 .19.67 15.45 15.45 0 0 1-5.06 6.52 14.32 14.32 0 0 1-8.46 2.26 25 25 0 0 1-8.5-1.39q-3.84-1.38-7.47-3a22.86 22.86 0 0 1-14.16 4.35 8.25 8.25 0 0 1-4.73-1.11 3.27 3.27 0 0 1-1.58-2.77 4.2 4.2 0 0 1 .75-2.21 8.84 8.84 0 0 1 2.09-2.22 13.19 13.19 0 0 1 3.21-1.74 11.62 11.62 0 0 1 4.15-.71 22.09 22.09 0 0 1 5.73.75 59.44 59.44 0 0 1 5.73 1.9 33.54 33.54 0 0 0 2.61-5.53 78.83 78.83 0 0 0 2.53-8.15A75.61 75.61 0 0 1 78 117.06a42.22 42.22 0 0 1 5.66-9.17 24.18 24.18 0 0 1 6.72-5.77 15.16 15.16 0 0 1 7.53-2.02zm-41.2 49a20.3 20.3 0 0 0 5.1-.59 9.29 9.29 0 0 0 4.07-2.34 61.35 61.35 0 0 0-5.88-2.26 21.17 21.17 0 0 0-6.4-.95q-3.64 0-3.64 2.45a3 3 0 0 0 1.73 2.59 10.08 10.08 0 0 0 5.02 1.05zM112 130.86a5 5 0 0 1 4.12 1.66 6 6 0 0 1 1.34 3.88 13.61 13.61 0 0 1-1.22 5.73 19.2 19.2 0 0 1-3 4.67 14.92 14.92 0 0 1-3.83 3.16 7.87 7.87 0 0 1-3.72 1.15 5 5 0 0 1-4.07-1.63 6.12 6.12 0 0 1-1.39-4.15 13.23 13.23 0 0 1 1-4.82 19.43 19.43 0 0 1 2.61-4.67 15.23 15.23 0 0 1 3.76-3.55 7.84 7.84 0 0 1 4.4-1.43zm-4.34 17.79a4.92 4.92 0 0 0 4.15-2.57 12.72 12.72 0 0 0 1.7-7.07 7.64 7.64 0 0 0-.95-4 3.05 3.05 0 0 0-2.77-1.58 4.73 4.73 0 0 0-4.11 2.45c-1.06 1.64-1.58 4-1.58 7.2a7.14 7.14 0 0 0 1 4.15 3 3 0 0 0 2.54 1.42zM127.64 150c-.74.26-1.59.51-2.57.75a12 12 0 0 1-2.89.36c-.63 0-.81-.35-.55-1a51.28 51.28 0 0 0 2.29-7.24 65.15 65.15 0 0 0 1.35-7q.24-2.76-.87-2.76c-.79 0-1.77.6-2.93 1.81a.54.54 0 0 1-.63-.07.45.45 0 0 1-.08-.56 14.53 14.53 0 0 1 3.2-2.41 7.35 7.35 0 0 1 3.6-1 1.65 1.65 0 0 1 1.58.71 3.66 3.66 0 0 1 .4 1.82 24.07 24.07 0 0 1-.32 3.56c-.21 1.37-.49 2.81-.83 4.31s-.71 3-1.1 4.43-.78 2.75-1.15 3.91a13.6 13.6 0 0 0 4.39-2 21.23 21.23 0 0 0 3.91-3.48 17.65 17.65 0 0 0 2.81-4.31 11.29 11.29 0 0 0 1.07-4.71c0-1.37-.43-2.05-1.27-2.05a2.18 2.18 0 0 0-1.15.27 3.42 3.42 0 0 0-.9 1 .25.25 0 0 1-.4-.08.51.51 0 0 1-.08-.47 7.24 7.24 0 0 1 1.94-1.86 4.87 4.87 0 0 1 2.88-1 2.28 2.28 0 0 1 1.94.91A3.68 3.68 0 0 1 142 134a10.14 10.14 0 0 1-1.18 4.63 19.58 19.58 0 0 1-3.17 4.47A26.26 26.26 0 0 1 133 147a31.28 31.28 0 0 1-5.36 3zM161.09 134.82q0 4.5-11.94 6.16-.08.79-.12 1.59v1.66a4.73 4.73 0 0 0 .95 3.16 3.73 3.73 0 0 0 3 1.11 6.39 6.39 0 0 0 3.09-.87 7.39 7.39 0 0 0 2.53-2.22.32.32 0 0 1 .47.12.76.76 0 0 1 .08.59 14.19 14.19 0 0 1-4 3.52 9.8 9.8 0 0 1-5.18 1.47 5.08 5.08 0 0 1-4-1.39 5.69 5.69 0 0 1-1.23-3.91 13.93 13.93 0 0 1 1-5.1 21 21 0 0 1 2.65-4.87 14.65 14.65 0 0 1 3.71-3.59 7.58 7.58 0 0 1 4.23-1.39 4.8 4.8 0 0 1 3.44 1.23 3.68 3.68 0 0 1 1.32 2.73zm-6.88-1.9a3.83 3.83 0 0 0-3.12 1.7 11 11 0 0 0-1.78 5.26 14.38 14.38 0 0 0 5.61-1.47 3.08 3.08 0 0 0 1.82-2.65 3 3 0 0 0-.71-2 2.28 2.28 0 0 0-1.82-.84z" fill="#fff"/></svg>