<svg xmlns="http://www.w3.org/2000/svg" width="254" height="78" viewBox="0 0 254 78"><path d="M241.6,23.74a6.61,6.61,0,0,0-2.51-4.36,8.05,8.05,0,0,0-.83-.51V15.44l7-3.5,6.88,2.56-3-4.52.73-.36,2.09-4L241.5,1.72c-.21-.09-.42-.17-.64-.24l-.06,0h0l-.27-.08a11.8,11.8,0,0,0-4.69-.26,13.66,13.66,0,0,0-4.28,1.36,14.37,14.37,0,0,0-3.86,2.83c-.17.17-.33.37-.5.55L222.1,4,198.91,7.13l-.21,1.8-3.47-1.3-6.46.88-1.7,14.23-2.74.37,2.58-8.89-10.69-4-6.45.88L167.55,29.6l-5.73-2.14-6.22.91-1.66,13.89a16.17,16.17,0,0,1-2.59,1.6A11.19,11.19,0,0,1,147.63,45a8.47,8.47,0,0,1-1.21.08l1-11.94L154,22.68l2.11-.88.22.2,0-.31,11.75-4.9-10.69-4a17.28,17.28,0,0,0-6-.14,17.46,17.46,0,0,0-6.5,2.26,20.9,20.9,0,0,0-5.25,4.42l-8.08-3-11.79,1.61-.32,2.71-5.21-1.95L94.68,21.38l-.16,1.38-2.65-1-7.66,1-3,5.43-9.83-3.68-8,1.1L71.77,46,69.83,62.3l10.68,4,5-13.15,6.08-12.36.93-1.27-2.4,20,10.69,4,5.51-9.5,1.26-10.91,0-.59.24,0-.28.63,10.23-.49,2-1.93-.8,6.63-2.66.36-1,8.41,10.69,4,5-6.34,6.68-3.15a10,10,0,0,0,2.86,1.62l10.69,4,9.26-4.26-.1,0,6.78-.79.28-1,8.44,3.16,5.69-20.57.56-2,4.05-.55-2,16.49,10.69,4L204.41,17l1.49.55-3.19,26.63,10.68,4,8.71-34,1.28-.38c-.08.43-.15.88-.21,1.33a9.76,9.76,0,0,0,.41,5,6.38,6.38,0,0,0,2.17,2.78,10.69,10.69,0,0,0,1.12.67h0l0,0a9.66,9.66,0,0,0,1.92.74l.46.13,4.2,1.53a4.82,4.82,0,0,1,.83.64,2.89,2.89,0,0,1,.69,2.58,4.46,4.46,0,0,1-.61,1.83,5.08,5.08,0,0,1-1.18,1.38,6.52,6.52,0,0,1-1.54.93,6.39,6.39,0,0,1-1.62.46,11.45,11.45,0,0,1-1.63.11l-6.08-2.27L221.5,40a7.82,7.82,0,0,0,2.1,1.1l10.68,4,7.1-3.45L249,32.43,248.45,26ZM133.51,43.17A14,14,0,0,0,136,48.88l.17.19L133,47.87Zm-22-8.83-3.44.47.32-5.51,9.5-.34L121.24,26l.3-.05-1.39,11.61Z" fill="none" stroke="#fff" stroke-linejoin="round" stroke-width="0.82"/><path d="M70.69,44.93l-3-6.52-5.84-1.23c0-.23-.08-.46-.13-.69a17,17,0,0,0-1.07-3.41l4.69-1.81-9.93-3.68c-.24-.11-.49-.22-.75-.31s-.49-.17-.74-.24h0a13.06,13.06,0,0,0-5.42-.3A17.47,17.47,0,0,0,42,29a21.18,21.18,0,0,0-5.49,4.7,25.46,25.46,0,0,0-3.31,5.16l-.44-2.51-10.62-4h0A7.26,7.26,0,0,0,19.88,32a21,21,0,0,0-3.79.17L7.57,33.29,3,71.44l10.68,4L31.34,65.37l.62-4A10.67,10.67,0,0,0,33,63a10,10,0,0,0,3.1,2.68h0a9.64,9.64,0,0,0,1.42.65,9.92,9.92,0,0,0,1.21.36l9.47,3.63,8.12-4.69-1.09-.39L66,61.59ZM53.77,37.07a9.21,9.21,0,0,1,1.38,3.65,17.14,17.14,0,0,1,.05,4.82,20,20,0,0,1-1.23,5,16.52,16.52,0,0,1-2.31,4.13,12.65,12.65,0,0,1-3.18,3A9.34,9.34,0,0,1,45.2,59L43.35,47.66l5.3-9.95,4.28-1.65A6.35,6.35,0,0,1,53.77,37.07ZM30.06,51.79a23.15,23.15,0,0,0,.37,5.12l-2.76-2Z" fill="none" stroke="#fff" stroke-linejoin="round" stroke-width="0.82"/><path d="M18.25,37.29l8.52-1.17A21,21,0,0,1,30.56,36a6.84,6.84,0,0,1,3.29.92A5.25,5.25,0,0,1,36,39.47a9.92,9.92,0,0,1,.35,4.88,11.78,11.78,0,0,1-2,5.55,11.19,11.19,0,0,1-4,3.55l0,.1a5.64,5.64,0,0,1,2.51.69A5.25,5.25,0,0,1,34.56,56a6.89,6.89,0,0,1,1,2.65,11.92,11.92,0,0,1,0,3.39A13.61,13.61,0,0,1,34,67.17a13.23,13.23,0,0,1-3,3.61A13.64,13.64,0,0,1,27.26,73a17.14,17.14,0,0,1-4,1.08l-9.6,1.31Zm4.63,14.36,2.27-.31a6,6,0,0,0,1.5-.42A5,5,0,0,0,28,50a4.93,4.93,0,0,0,1.08-1.42,5.66,5.66,0,0,0,.59-2,3.93,3.93,0,0,0-.16-1.91,2.18,2.18,0,0,0-.87-1.07,3.26,3.26,0,0,0-1.33-.43,6.35,6.35,0,0,0-1.51,0l-2,.27ZM21,67.43,24.38,67a6.7,6.7,0,0,0,1.54-.42,5,5,0,0,0,1.48-1,5.66,5.66,0,0,0,1.18-1.54,5.9,5.9,0,0,0,.64-2.15A3.59,3.59,0,0,0,29,59.8a2.44,2.44,0,0,0-1.16-1.09,4.68,4.68,0,0,0-1.62-.36,10.11,10.11,0,0,0-1.68.07L22,58.76Z" fill="#fff" stroke="#fff" stroke-miterlimit="10" stroke-width="0.82"/><path d="M41,52.94a31.84,31.84,0,0,1,2.17-8.46,27,27,0,0,1,4-6.78A21.18,21.18,0,0,1,52.67,33a17.58,17.58,0,0,1,6.51-2.27,12.69,12.69,0,0,1,6.16.54,10,10,0,0,1,4.53,3.33,14.14,14.14,0,0,1,2.54,5.88,25.27,25.27,0,0,1,.18,8.13,31.36,31.36,0,0,1-2.17,8.46,26.05,26.05,0,0,1-4,6.78,21,21,0,0,1-5.49,4.7,17.47,17.47,0,0,1-6.5,2.27,12.73,12.73,0,0,1-6.17-.54A10,10,0,0,1,43.68,67a14.07,14.07,0,0,1-2.53-5.88A25.53,25.53,0,0,1,41,52.94ZM47.67,52a16.52,16.52,0,0,0,0,4.84,9.18,9.18,0,0,0,1.38,3.63,5.92,5.92,0,0,0,2.57,2.17,6.75,6.75,0,0,0,3.64.4,9.48,9.48,0,0,0,3.85-1.43,12.69,12.69,0,0,0,3.19-3,16.49,16.49,0,0,0,2.3-4.13,20.39,20.39,0,0,0,1.24-5,16.76,16.76,0,0,0-.06-4.82,9.21,9.21,0,0,0-1.37-3.65,6,6,0,0,0-2.57-2.16,6.66,6.66,0,0,0-3.64-.41,9.52,9.52,0,0,0-3.86,1.43,12.65,12.65,0,0,0-3.18,2.95A16.68,16.68,0,0,0,48.9,47,20.37,20.37,0,0,0,47.67,52Z" fill="#fff" stroke="#fff" stroke-miterlimit="10" stroke-width="0.82"/><path d="M82.46,50l-8.4-20.37,8-1.1L86.6,42,94.89,26.8l7.66-1L88.92,49.14,87,65.41l-6.46.88Z" fill="#fff" stroke="#fff" stroke-miterlimit="10" stroke-width="0.82"/><path d="M105.36,25.37,125,22.68l-.93,7.76-13.21,1.81L110,40l12.21-1.67-.93,7.76L109,47.76l-1.78,14.87-6.46.88Z" fill="#fff" stroke="#fff" stroke-miterlimit="10" stroke-width="0.82"/><polygon points="141.35 28.72 142.35 20.31 130.56 21.93 129.56 30.33 132.22 29.96 129.67 51.3 127 51.66 126 60.07 137.78 58.46 138.79 50.05 136.13 50.42 138.68 29.08 141.35 28.72" fill="#fff" stroke="#fff" stroke-miterlimit="10" stroke-width="0.82"/><path d="M166.29,32.36l-1.67,13.89a16.17,16.17,0,0,1-2.59,1.6A11.19,11.19,0,0,1,158.31,49a6.66,6.66,0,0,1-3.64-.4,6,6,0,0,1-2.57-2.17,9,9,0,0,1-1.37-3.62,16.92,16.92,0,0,1-.06-4.85,20.48,20.48,0,0,1,1.23-5,16.61,16.61,0,0,1,2.31-4.15,12.73,12.73,0,0,1,3.19-3,9.32,9.32,0,0,1,3.85-1.42,7.52,7.52,0,0,1,4,.34A6,6,0,0,1,167.05,26l1.1-9.2a18,18,0,0,0-12.47,2.12,21.18,21.18,0,0,0-5.49,4.7,26.39,26.39,0,0,0-4.05,6.78A31.46,31.46,0,0,0,144,38.85a25.33,25.33,0,0,0,.18,8.14,14.14,14.14,0,0,0,2.54,5.88,10,10,0,0,0,4.53,3.33,12.82,12.82,0,0,0,6.16.53A26.77,26.77,0,0,0,163.82,55a27.31,27.31,0,0,0,6.3-3.62l2.39-19.93Z" fill="#fff" stroke="#fff" stroke-miterlimit="10" stroke-width="0.82"/><path d="M180.45,15.1l6.46-.88L185.2,28.44l12.55-1.71,1.7-14.23,6.46-.88-4.56,38.14-6.46.89,2-16.49-12.55,1.72-2,16.48-6.46.89Z" fill="#fff" stroke="#fff" stroke-miterlimit="10" stroke-width="0.82"/><path d="M217.07,17.41l-8.36,1.14.89-7.43L232.78,8l-.89,7.43-8.36,1.14-3.68,30.71-6.46.89Z" fill="#fff" stroke="#fff" stroke-miterlimit="10" stroke-width="0.82"/><path d="M252.15,14.5a7.64,7.64,0,0,0-6.68-1.61,7.32,7.32,0,0,0-1.48.41,6.5,6.5,0,0,0-1.49.87,5,5,0,0,0-1.22,1.36,4.41,4.41,0,0,0-.63,1.89,2.7,2.7,0,0,0,.68,2.5,6.09,6.09,0,0,0,2.31,1.22c1,.29,2,.57,3.1.85a8.7,8.7,0,0,1,3,1.38,6.31,6.31,0,0,1,2.12,2.84,10.67,10.67,0,0,1,.36,5.2,18,18,0,0,1-1.58,5.67,15.45,15.45,0,0,1-2.93,4.27,13.68,13.68,0,0,1-3.88,2.81,14.76,14.76,0,0,1-4.42,1.35,11.08,11.08,0,0,1-5.16-.41,7.82,7.82,0,0,1-2.1-1.1l.86-8.46a9.63,9.63,0,0,0,7.7,2.16,6.58,6.58,0,0,0,1.63-.46,6.45,6.45,0,0,0,1.53-.93,5.3,5.3,0,0,0,1.19-1.38,4.6,4.6,0,0,0,.6-1.83,2.89,2.89,0,0,0-.69-2.58,6.17,6.17,0,0,0-2.34-1.35c-1-.33-2-.64-3.14-1a9.7,9.7,0,0,1-3.09-1.43A6.38,6.38,0,0,1,234.26,24a9.78,9.78,0,0,1-.4-5,16.92,16.92,0,0,1,1.57-5.51,16.32,16.32,0,0,1,2.95-4.22,14.37,14.37,0,0,1,3.86-2.83,13.75,13.75,0,0,1,4.28-1.36,11.79,11.79,0,0,1,4.69.26,7.25,7.25,0,0,1,1.79.76Z" fill="#fff" stroke="#fff" stroke-miterlimit="10" stroke-width="0.82"/><path d="M37.68,7.75V18.69H35.55V7.75h-2.4V5.91h6.93V7.75Z" fill="#fff"/><path d="M47.5,18.69V13H43.67v5.67H41.52V5.91h2.15v5.18H47.5V5.91h2.15V18.69Z" fill="#fff"/><path d="M52.43,18.69V5.91h5.72V7.82H54.51v3.4h3.37V13H54.51v3.77h3.82v1.93Z" fill="#fff"/><path d="M151.91,75.28a3.75,3.75,0,0,1-2,.47,3.94,3.94,0,0,1-2-.5,4.59,4.59,0,0,1-1.48-1.4,7.36,7.36,0,0,1-.94-2.12,11.17,11.17,0,0,1,0-5.39,7,7,0,0,1,.95-2.13A4.47,4.47,0,0,1,148,62.82a3.87,3.87,0,0,1,1.94-.5,4.32,4.32,0,0,1,1.93.41,3.48,3.48,0,0,1,1.36,1.16L152,65.41a2.24,2.24,0,0,0-1.91-1.07,1.85,1.85,0,0,0-1.14.37,2.79,2.79,0,0,0-.81,1,5.55,5.55,0,0,0-.49,1.49,9.85,9.85,0,0,0-.16,1.84,9.6,9.6,0,0,0,.16,1.81,5.43,5.43,0,0,0,.49,1.49,2.73,2.73,0,0,0,.82,1,1.87,1.87,0,0,0,1.16.37,1.92,1.92,0,0,0,1.1-.32,2.9,2.9,0,0,0,.76-.8l1.25,1.47A4.06,4.06,0,0,1,151.91,75.28Z" fill="#fff"/><path d="M163.35,69a11.1,11.1,0,0,1-.32,2.75,6.62,6.62,0,0,1-.91,2.12,4.36,4.36,0,0,1-1.46,1.38,4.1,4.1,0,0,1-3.85,0,4.3,4.3,0,0,1-1.44-1.38,6.63,6.63,0,0,1-.92-2.12,11.12,11.12,0,0,1-.31-2.75,11.64,11.64,0,0,1,.3-2.75,6.77,6.77,0,0,1,.91-2.11,4.17,4.17,0,0,1,1.45-1.36,3.9,3.9,0,0,1,1.94-.48,3.85,3.85,0,0,1,1.92.48,4.2,4.2,0,0,1,1.46,1.36,6.77,6.77,0,0,1,.91,2.11A11.1,11.1,0,0,1,163.35,69Zm-2.24,0a9.67,9.67,0,0,0-.16-1.83,5.5,5.5,0,0,0-.45-1.48,2.74,2.74,0,0,0-.74-1,1.55,1.55,0,0,0-1-.36,1.6,1.6,0,0,0-1,.36,2.86,2.86,0,0,0-.74,1,5.51,5.51,0,0,0-.44,1.48,12,12,0,0,0,0,3.66,5.82,5.82,0,0,0,.44,1.49,2.86,2.86,0,0,0,.74,1,1.65,1.65,0,0,0,2.08,0,2.86,2.86,0,0,0,.74-1,5.45,5.45,0,0,0,.44-1.49A10.59,10.59,0,0,0,161.11,69Z" fill="#fff"/><path d="M165.55,75.43V62.64h2.18V73.42h3.52v2Z" fill="#fff"/><path d="M172.84,75.43V62.64H175V73.42h3.52v2Z" fill="#fff"/><path d="M180.14,75.43V62.64h5.72v1.92h-3.65V68h3.38v1.77h-3.38V73.5H186v1.93Z" fill="#fff"/><path d="M194.32,75.28a3.72,3.72,0,0,1-2,.47,3.94,3.94,0,0,1-2-.5,4.69,4.69,0,0,1-1.48-1.4,7.36,7.36,0,0,1-.94-2.12,11.17,11.17,0,0,1,0-5.39,7,7,0,0,1,.95-2.13,4.47,4.47,0,0,1,1.49-1.39,3.89,3.89,0,0,1,1.94-.5,4.32,4.32,0,0,1,1.93.41,3.48,3.48,0,0,1,1.36,1.16l-1.25,1.52a2.24,2.24,0,0,0-1.91-1.07,1.9,1.9,0,0,0-1.14.37,3,3,0,0,0-.81,1A5.55,5.55,0,0,0,190,67.2a9.85,9.85,0,0,0-.16,1.84,9.6,9.6,0,0,0,.16,1.81,5.43,5.43,0,0,0,.49,1.49,2.83,2.83,0,0,0,.82,1,2,2,0,0,0,2.26,0,2.9,2.9,0,0,0,.76-.8l1.25,1.47A4.06,4.06,0,0,1,194.32,75.28Z" fill="#fff"/><path d="M200.41,64.49V75.43h-2.13V64.49h-2.4V62.64h6.93v1.85Z" fill="#fff"/><path d="M204.26,75.43V62.64h2.17V75.43Z" fill="#fff"/><path d="M217.85,69a11.12,11.12,0,0,1-.31,2.75,6.85,6.85,0,0,1-.91,2.12,4.46,4.46,0,0,1-1.46,1.38,4.1,4.1,0,0,1-3.85,0,4.43,4.43,0,0,1-1.45-1.38,6.85,6.85,0,0,1-.91-2.12,11.12,11.12,0,0,1-.31-2.75,11.64,11.64,0,0,1,.3-2.75,6.77,6.77,0,0,1,.91-2.11,4.17,4.17,0,0,1,1.45-1.36,3.9,3.9,0,0,1,1.94-.48,3.85,3.85,0,0,1,1.92.48,4.29,4.29,0,0,1,1.46,1.36,7,7,0,0,1,.91,2.11A11.12,11.12,0,0,1,217.85,69Zm-2.23,0a10.56,10.56,0,0,0-.16-1.83,5.5,5.5,0,0,0-.45-1.48,2.74,2.74,0,0,0-.74-1,1.55,1.55,0,0,0-1-.36,1.6,1.6,0,0,0-1,.36,2.86,2.86,0,0,0-.74,1,5.51,5.51,0,0,0-.44,1.48,11.24,11.24,0,0,0,0,3.66,5.82,5.82,0,0,0,.44,1.49,2.86,2.86,0,0,0,.74,1,1.65,1.65,0,0,0,2.08,0,2.86,2.86,0,0,0,.74-1,5.82,5.82,0,0,0,.44-1.49A10.59,10.59,0,0,0,215.62,69Z" fill="#fff"/><path d="M225.65,75.43l-3.63-9H222l0,9h-1.95V62.64h2.47l3.59,9.09h.06l0-9.09H228V75.43Z" fill="#fff"/></svg>