<svg xmlns="http://www.w3.org/2000/svg" width="200" height="157" viewBox="0 0 200 157"><polygon points="31.95 13.15 47.07 79.06 39.07 86.4 66.92 81.03 54.34 52.81 76.66 74.13 76.66 79.64 90.49 56.84 81.02 61.45 64.56 48.91 81.18 22.9 90.93 19.73 66.01 11.43 68.43 18.3 52.98 44.41 45.91 8.24 49.69 0 24.38 7.75 31.91 12.95 31.95 13.15" fill="#fff"/><polygon points="87.8 56.95 93.33 54.26 88.79 61.75 92.32 75.58 118.91 72.67 118.91 60.44 98.42 64.92 96.69 56.65 104.07 54.95 103.6 47.22 94.59 49.6 92.78 39.87 102.81 38.97 99.67 27.37 82.17 33.63 87.8 56.95" fill="#fff"/><polygon points="167.01 117.37 152.23 107 162.54 80.75 154.52 76.91 145.2 102.36 143.64 75.34 133.11 76.64 133.24 79.68 139.7 82.61 135.38 100.42 139.97 140.85 151.07 136.1 147.03 112.22 163.05 125.17 167.01 117.37" fill="#fff"/><path d="M99.12,103l0,0,0-.07L93.66,82.53,78.69,86l-3.18,37.8,8.77,8.34-4.9,5.27,7.62-.69-2.11-24.6,8.3-.16L94,144l17.75-6.88-3.84-1.17Zm-14,2.16,2.58-14.57,5.16,16.47Z" fill="#fff"/><polygon points="138.44 83.22 127.53 78.28 122.02 108.63 116.25 74.05 109.41 74.8 100.23 102.94 105.29 121.91 111.97 95.22 117.3 126.16 128.03 126.16 134.28 100.36 134.22 99.78 134.43 99.76 138.44 83.22" fill="#fff"/><path d="M62.88,113.26l.53-.38c4.16-3,4.36-8.75,3.16-13.15-1.24-4.55-7.09-10.3-18.16-7.53a104,104,0,0,0-10.18,3.33,23.58,23.58,0,0,1,1.32,6,15,15,0,0,1-2.32,9.15l6.7,30.3,11.28-2L50.6,118.76l4.91-2.09,17,26.51,10.25-11ZM49.23,111.5l-.5.07-2.34-11,.4-.17c.14-.07,3.5-1.55,5.84-.18a4.55,4.55,0,0,1,2,3.79A6.58,6.58,0,0,1,49.23,111.5Z" fill="#fff"/><path d="M24.25,120.79c.15-.07,15.25-7.71,14.22-19.13-.95-10.4-7.68-16.45-18.46-16.6h-.22c-8.46,0-18.06,6.76-19.79,8l13.37,61.56L35,148.46,23.8,121ZM19.38,108.7l-.45.13-5-11.22.38-.25c.11-.08,2.88-1.89,5.58-1.12a5.49,5.49,0,0,1,3.42,3.3,6.72,6.72,0,0,1,.3,5.69A7.18,7.18,0,0,1,19.38,108.7Z" fill="#fff"/><path d="M154.76,65,131,42l1-.19a13.6,13.6,0,0,0,8.94-7.37c2.1-4.52,2.05-9.94-.14-13.82s-6.08-6-11.46-6.63a41.68,41.68,0,0,0-16.22,1.36,30.52,30.52,0,0,0-5.34,2.11l5.3,4.46v.24l1.22,38.21,5.7-1.25v6.83l6.86-.91-1.29-19.92,20.9,27.13ZM124.11,33.07h-.54V22.65l.38-.12c.15,0,3.54-1,5.63.51a4.2,4.2,0,0,1,1.54,3.62C131.11,33,124.19,33.07,124.11,33.07Z" fill="#fff"/><path d="M163.17,43.54V31L144.91,33.1l.66,13.3Z" fill="#fff"/><path d="M196.89,81.19c-4-9.27-15.7-12-18.81-12.52l.67,3-4,2.12-2.86,51.7c2.47.09,13.11,0,19.82-8.11C203.66,103,200.08,88.56,196.89,81.19Zm-4.23,12.47c-.56,8.08-8.87,11.46-9.22,11.6l-.78.31,1.28-25.25.62.13C184.65,80.47,193.44,82.48,192.66,93.66Z" fill="#fff"/><polygon points="163.91 61.38 174.14 56.2 177.51 71.07 169.38 75.4 163.91 61.38" fill="#fff"/></svg>