<svg xmlns="http://www.w3.org/2000/svg" viewBox="0 0 250 131"><path d="M249.99 22.2v-.04-.02c-.04-.12-.08-.25-.1-.38-.04-.05-.07-.11-.11-.16-.19-.2-.37-.4-.57-.59-.52-.5-4.62-2.62-5.21-2.85-2.14-.85-4.23-2.05-6.33-2.94-3.37-1.43-6.89-2.49-10.27-3.56-1.14-.36-1.77-.27-2.87-.89-.21-.12-.49-.11-.67-.27-.68-.57.78-2.32.9-2.99.11-.6.03-2.21-.45-2.65-.24-.22-1.42-.73-1.8-.9-.97-.42-3.49-1.34-4.46-1.49-1.32-.2-3.18-1.24-4.01-.56S210.88 7.58 210.6 8c-.23.36-.24.81-.7 1.23-.82.76-.83.19-1.49-.16-2.06-1.09-4.04-1.34-6.13-2.45-.24-.13-.56-.1-.71-.19-.12-.07-13.73-3.95-15.11-4.46-.11-.04-5.19-2.26-5.53-1.95-.35.33-.89 1.27-1.32 1.62-.53.43-1.65 2.19-2.15 2.83-.94 1.19-1.84 2.34-2.69 3.61-.5.73-1.76.44-2.11-.47-.48-1.22-.7-1.36-1.31-2.42-.52-.9-.84-2.05-1.38-2.91-.15-.23-1.22-1.59-1.34-1.69-.8-.64-2.97-.49-3.91-.18-1.13.36-1.47.11-2.54.26-.41.05-2.13.4-2.45.45-1.2.18-2.72 1.03-3.9 1.09-1.52.08-1.45-1.07-2.55-1.33-.74-.17-1.56.04-2.29-.07-3.82-.55-7.97-.12-11.91-.13-4.2 0-8.04.42-12.17.68-1.04.07-2.09-.18-3.19-.14-5.88.23-11.81 1.35-17.57 1.94-.86-.27-1.95.47-2.47-.56-.14-.28-.11-.7-.26-.92-.05-.08-1.42-1.1-1.54-1.16-.97-.42-5.35 0-6.64.16-4.58.6-9.34.88-13.98 1.37-3.52.37-7 1.1-10.51 1.11-.78 0-12.88 2.53-13.56 2.62-1.54.2-2.13.84-3.74.9-.28.01-4.63.91-4.84 1.02-.42.21-2.43.93-3.01 1.02-.42.06-1.29.65-1.86.76-1.66.32-3.32-.86-4.85-1.31-2.47-.74-6.16-1.11-8.82-1.01-1.04.04-2.21.25-3.25.36-1.69-.27-9.47 1.63-14.45 6.29-2.48 2.32-5 4.82-6.76 7.62-1.23 1.97-2.13 4.12-3.18 6.08-1.3 2.42-1.28 4.7-1.75 7.39-2.93 16.66 4.58 31.38 4.93 31.86.5.7 2.01 1.74 2.68 2.57.44.54 1.81 2.4 2.02 2.55.32.23.63.72.96.97 2.77 2.12 5.65 3.23 8.92 4.22.15.05.95.36.97.44.2.92-.66 1.06-1.24 1.51-2.14 1.67-4.3 3.28-6.31 5.03-.45.4-1 .75-1.38 1.25-.63.83 1.47 9.05 1.58 9.76.13.91.14 1.92.32 2.86.08.41 3.97 29.92 5.78 32.84.27.44 6.23-1.29 7.56-2.15.35-.23.72-.23 1-.38 1.53-.85 2.82-1.73 4.31-2.6 1.96-1.14 3.98-2.12 5.84-3.42 1.16-.81 8.02-7.19 9.29-7.31 1.44-.14 4.9.69 5.67 1.54 1.09 1.2 1.97 2.08 3.41 2.95.3.18 1.83.79 1.91.93-.08.29 7.67 1.35 8.08 1.32 2-.17 5.21-1.3 6.99-2.25.8-.42.79-.93 1.99-.71.85.15.63.65 1.01 1.07.33.37 1.42.77 1.92.7.75-.11 2.55-1.15 3.4-1.45 3.56-1.27 7.23-2.34 10.79-3.45 1.04-.32 2.3-1.64 3.39-.36.63.73 1.16 2.31 1.71 2.85.26.26.92.45 1.2.86 1.74-.03 3.26-.76 4.86-1.18 2.6-.68 5.2-1.28 7.82-2 .6-.17 1.31-.66 1.97-.66.71 0 1.63.75 2.28 1.04 4.19 1.85 9.29 2.11 13.49-.2.73-.4 1.73-1.55 2.55-1.18.73.33.15 1.06.28 1.63.01.05.34.74.4.87.75 1.45 1.74 1.57 3.22 1.27 1.84-.37 3.64-1.02 5.47-1.45 5.32-1.25 10.61-2.2 16.01-2.94 1.67-.23 3.38-.76 5.05-.34 2.77 2.73 5.58 4.37 9.39 5.24 2.5.57 5.21.71 7.83.21.59-.11 1.51-.61 2.12-.79.23-.07 1.44-.4 1.55-.31.25.91-.2 1.65.25 2.58.17.36.52.52.73.79.15.21.09.51.27.7.33.36 6.25-.19 7.27-.62 1.94.07 7.59-.82 8.35-.54.18.27 1.62-.03 4.02.68.07.09 3.92 4.34 4.36 4.28 3.69-.5 7.41-.6 11.06-1.11.83-.12 1.91.11 2.77 0 .24-.05 1.23-1.01 1.38-1.25.95-1.53.71-2.86 1.05-4.32.11-.47.6-1.61.8-2.4 1.64-6.32 2.99-13.09 4.58-19.09 1.69-6.37 3.25-12.75 4.59-19.03.07-.34.42-.76.39-1.13-.02-.28-.31-.36-.38-.57-.09-.3.02-.56-.15-.95-.06-.14-1.02-1.14-1.15-1.2-.97-.42-4.11.37-4.52-.26.27-.6-.11-1.19-.02-1.86.04-.32.25-.49.29-.82.14-1-.09-2.35.05-3.4.13-.5.65-.44.99-.68 2.91-2.09 6.5-6.14 8.02-9.4 2.07-4.42 2.41-9.74.37-14.21-.23-.49-.97-1.52-1.07-1.83-.35-1.1.63-1.72 1.14-2.48 2.05-3.06 4.13-6.17 6.23-9.19.71-1.02 4.09-6.07 4.48-7.38.07-.23.13-.47.18-.71-.04.15-.02-.36 0-.48zM213.35 9.09c.32-.51.61-1.2.97-1.73.22-.33.64-1.03.92-1.22.3-.21 1.08-.49 1.45-.5.43-.02 2.29.41 2.78.56.42.13 1.06.43 1.16.91.13.63-.48.99-.74 1.46-.51.92-.88 2.28-1.99 2.58-1.39.36-1.66-.08-2.74-.23-.87-.12-2.12.37-2.48-.71-.16-.48.55-.9.69-1.11zm-51.6-4.7c1.07-.17 3.01-1.17 3.75.02.18.29.17.58.3.81.61 1.08 1.51 2.24 2.08 3.24.61 1.08 1.07 2.49 1.65 3.54.78 1.4 1.75 2.71 2.52 4.11.21.38.49 1.46.85 1.64 1.15.56 1.64-1.26 2.16-1.99 1.81-2.57 3.81-4.96 5.73-7.45.64-.83 1.25-2.13 2.08-2.86.37-.33 1.06-.55 1.55-.46.31.05.53.29.77.34 4.19.97 8.31 2.08 12.37 3.4.62.2 3.02.89 3.3 1.27.16.21.13.26.07.49-.23.92-2.01 2.41-2.44 3.38-11 13.84-21.61 28.03-31.31 42.82-1.02 1.56-1.87 3.48-3.07 4.95-.54.66-1.04 1.04-1.92 1.13-2.44.24-5.66-.08-8.17-.15-2.64-.08-5.36-.36-8.02-.42-.95-.02-2.73.67-2.35-1.09 1.48-2.24 2.73-4.66 4.15-6.91 3.22-5.08 6.93-9.96 10.22-14.95.7-1.06 1.3-2.49 2.03-3.5 1.07-1.47 2.42-2.89 3.35-4.53.46-.81-.08-1.09-.43-1.76-1.97-3.63-4.85-7.23-7.37-10.61-2.46-3.31-4.87-6.71-7.76-9.67-.69-1.2 1.08-1.63 1.92-1.97 3.71-1.47 8.05-2.22 11.97-2.83zm12.32 58.79c.17.67.81 1.32 1.23 1.8.05.06-.07.19.03.28.31.28 1.95 1.2 2.07 1.37.17.27-.15.86-.45.94-.31.09-.7-.01-1.05.06-.49.1-.88.58-1.2.71-.12.05-1.63.38-1.71.35-.18-.05-.18-.19-.22-.34-.24-.97.24-1.89-.04-2.87-.19-.68-1.58-.86-1.18-2.35.07-.26 1.49-2.4 1.76-2.8 1.09-1.6 2.5-3.52 3.74-4.98.25-.3.33-.91.83-.9.02.24 0 .47-.06.7-.34 1.47-2.36 3.87-3.18 5.26-.48.81-.81 1.82-.57 2.76zm-23.41-23.41c-2.23.38-4.65-.11-6.89-.11-.7 0-2.05.57-2.63.15-.87-.62.3-1.35.63-1.74 2.09-2.45 4.05-4.97 6.09-7.46.97-1.19 2.15-2.2 2.91-3.59 1.04-.6 1.24.06 1.71.7.83 1.13 1.94 2.33 2.69 3.47.41.63.93 1.41.87 2.19-.02.19-.64 1.37-.78 1.58-.58.88-.76.94-1.24 1.94-.06.13-1.65 2.21-1.8 2.35-.28.27-1.14.46-1.55.53zM8.28 56.34c-2.89-6.51-3.95-15.15-2.74-22.26C7.22 24.17 14.82 13.66 25 11.22c3.43-.82 8.81-.73 12.17.34 1.46.47 5.39 2.13 5.99 3.55.15.34.36 2.03.4 2.5.11 1.41.08 1.93.38 3.35.47 2.18.44 5.15.74 7.42.14 1.04 1.01 2.89 2.14 3.11 1.38.27 1.26-.18 2.27-.61.52-.22 1.6-.5 2.08-.14.26.2.41 2.55.7 3.05.07 4.89.1 9.81-1.01 14.62-.4 1.74-1.61 2.92-2.28 4.36-.85 1.82-.97 2.88-2.2 4.64-3.97 5.72-11.28 11.41-18.52 11.84-9.85.59-15.76-4.31-19.58-12.92zm37.64 14.99l-1.15-.02c-.89-.72.98-.93 1.14-.45l.02.47zm4.48 30.85c-.08.19-.59.55-.76.88-.56 1.1-.52.87-1.29 1.76-2.39 2.78-4.81 5.39-7.6 7.69-4.47 3.68-9.17 6.48-14.33 9.12-.3.15-.77.61-.99.68-.32.1-.49-.29-.61.21-.37-.2-.82-.61-.9-1.05-.13-.73-.06-1.9-.16-2.74-1.18-9.28-3.51-18.48-5.25-27.66-.31-1.61-.94-3.49-.94-5.15 0-.82.99-1.48 1.58-1.98 5.98-5.08 17.35-12.22 25.32-8.8.86.37 2.32 1.06 3.03 1.73.36.34 2.11 2.25 2.26 2.58.47 1.11.27 1.92.18 3.04-.39 4.64-.66 8.47-.44 13.26.06 1.31.33 3.26.59 4.53.06.3.35.55.38.87 0 .08-.06.98-.08 1.03zm-.2-47.38c.12-1.59.47-1.33 1.25-2.35.65-.85 1.11-1.27 1.74-2 5.17-5.95 10.17-11.99 15.01-18.19 1.05-1.34 2.2-2.75 3.18-4.01.59-.76 4.9-6.35 4.82-6.76-.13-.71-.97-.15-1.3-.1-8.12 1.22-14.88 3.04-22.55 5.81-1.56.56-3.08 1.3-4.67 1.77-1.23-.47-.79-1.65-.94-2.64-.46-3.11-.77-6.14-1.09-9.28-.09-.9-.76-4.02-.25-4.6.1-.12.39-.1.55-.18 1.14-.59 4.42-1.34 5.92-1.72 7.68-1.94 15.33-3.21 23.14-4.39.85-.13 2.04-.51 2.85-.58 1.18-.1 1.98-.02 3.28-.21 1.99-.28 3.96-.36 5.94-.56 2.86-.3 6.77-1.07 9.55-.83.43.04.76.16 1.16.3.1 1.19-1.53 1.06-2.3 1.48-1.2.65-1.83 2.67-1.69 3.96.41 3.82.48 7.74.55 11.62.01.63.09 1.89-.07 2.43-.15.51-2.09 3-2.57 3.66-4.11 5.68-8.15 11.29-12.45 16.73l-1.25 1.93c.08.36 1.58.26 1.86.2 4.08-.8 8.19-1.79 12.33-2.47 1.74-.28 3.53-.45 5.24-.57.74-.05 2.78-.74 3.36-.24.17.26.27.61.04.87l-4.82 5c-.19 1.1-.43 2.3-.45 3.42-.03 1.43.24 2.87.1 4.27-.05.52-.32 1.13-.79 1.39-.68.38-2.93.23-3.92.37-1.11.16-2.21.39-3.32.55-11.26 1.57-22.3 4-33.39 6.58-.72.17-1.16.58-2.03.47-1.3-.16-1.17-2.79-1.32-3.8-.35-2.37-.87-4.88-.69-7.35zm8.62-21.11c.4-.18.93-.1 1.32-.48 3.1-.69.72 1.2-.06 2.22-.12.15-.14.42-.29.61-2.17 2.75-2.4-1.71-.97-2.35zm37.69.48c2.25-1.28 6.83-2.29 9.41-3.04 1.33-.38 2.65-.77 3.97-1.16.55-.03.91.3.71.85-.61.56-1.07 1.25-1.61 1.86-.1.12-.28.16-.36.25-.9 1.02-1.85 1.89-2.75 2.85-2.39 2.55-2.32 3.74-6.37 4.02-1.64.11-3.3.07-4.96.29-.6.08-2.14.83-2.42-.25-.07-.28 1-1.45 1.23-1.77.65-.91.7-1.04 1.48-1.77.54-.5.51-1.48 1.67-2.14zm-17.7 72.47c-.07.24-.7.71-.92 1.02-1.09 1.55-2.03 2.56-3.55 3.78-1.78 1.42-5.61 3.24-7.88 3.3-.41 0-.98-.24-1.39-.25-.84-.02-1.36.17-2.33 0-8.58-1.6-10.81-11.69-11.26-19.14-.47-7.91.8-14.48 2.17-22.14.15-.82-.15-1.9.8-2.38.66-.34 1.37.07 2.06.12 1.57.12 2.85.42 4.29.55.94.09 3.63-.23 4.22.21.77.58.21 2.58.14 3.46-.6 7.1-1.51 14.07-1.11 21.3.08 1.37.48 4.01 1.19 5.18.4.66 1.67 1.09 2.41.76.18-.08 1.75-1.53 1.86-1.73 1.22-2.17 1.4-5.51 1.33-7.95-.15-5.16-1.25-10.85-2.97-15.7-.16-.45-.65-2.6-.6-2.94.08-.45 1.15-1.21 1.55-1.48.2-.13.43-.09.58-.19 2.16-1.42 4.36-2.79 6.57-4.14.33-.14 1.11-.11 1.36.12.17.16.11.43.22.61.19.31.72.76.44 1.23-.04.06-.27.1-.37.25-.67 1.02-.13 2.57-.01 3.58.18 1.52.2 3.49.25 4.98.13 3.36-.15 6.74.16 10.09.43 4.59.34 9.17.55 13.83.05 1.04.56 2.65.25 3.71zm32.39 2.37c-1.13.31-2.28.69-3.41.99-1.45.38-3.03.64-4.5 1.06-.22.06-.37.29-.62.35-1.52.36-1.83-.36-2.45-1.51-.72-1.34-1.33-2.92-2.04-4.29-1.44-2.82-2.98-5.59-4.3-8.46-.51-1.11-1.35-2.52-1.5-.31-.05.81.14 1.63.13 2.34-.03 1.81-.43 3.62-.49 5.43-.03.91.13 2.1.09 3.01-.04.91-.48 1.31-1.3 1.62-2.78 1.07-5.8 1.78-8.63 2.85-1.06.11-1.49-.04-1.56-1.14-.06-1 .27-2.11.15-3.19-.39-3.54-.3-7.22-.41-10.78-.23-7.31-.58-14.55-.69-21.85-.01-.92-.5-2.61.21-3.37.53-.57 1.53-.42 2.17-.6 2.84-.79 6.04-1.6 8.78-2.56.26-.09.49-.36.7-.41 2.11-.54 2.13 1.11 2.71 2.48.82 1.95 1.86 4 2.61 5.96.48 1.23 1.22 4.6 1.99 5.34.7.67.88-.46.85-1.06-.02-.28-.23-.47-.24-.8-.09-2.05-.04-4.21.01-6.22.01-.59-.14-1.79.12-2.23.42-.71 1.91-.74 2.64-.96 2.14-.61 4.33-1.18 6.5-1.8 1.11-.31 1.86-.94 3.12-.77 1.24.17.6 1.43.61 2.15.02 1.1.05 1.77-.01 2.9-.02.37.17.7.13 1.07-.13 1.17-1.18 2.21-1.69 3.16-2.08 3.92-3.01 9.9-2.86 14.3.06 1.65.3 4.43.74 5.97.4 1.41 1.03 3.26 1.54 4.75.31.9 1.53 2.3 1.73 3.39.21 1.19-.15 2.21-.83 3.17zm26.02-31.94c.38 2.47-.06 3.37-.15 5.68-.02.47.38 1.03-.04 1.55-.07.08-.8.62-.92.66-1.36.53-3.54.71-5.02 1.07-.79.2-1.96 1.05-2.73.44-.46-.35-.21-.75-.29-1.23-.18-1-.43-2.68-.71-3.58-.06-.18-.51-1.01-.65-1.15-.49-.5-.95-.12-1.57-.31-.57.47-1.41 1.04-1.87 1.58-2.56 3.01-3.25 7.9-3.08 11.74.06 1.35.63 4.42 1.46 5.45.15.18 1.21 1.05 1.41 1.09.34.07 1.76-.18 2.1-.34.69-.31 1.78-1.69 1.4-2.48-2.05-.12-2.78.83-2.92-1.79-.06-1.07.04-3.21.15-4.29.11-1.05.67-1.58 1.72-1.74 2.58-.38 5.79-.35 8.44-.55 1.06-.08 3.02-.89 3.26.9.18 1.35 0 3.54-.01 4.99 0 1.12 0 2.29-.05 3.43-.09 1.91-.56 2.85-1.63 4.42-1.82 2.67-6.35 7.13-9.6 7.83-4.95 1.07-8.75-.78-11.62-4.68-1.35-1.83-1.82-3.52-2.63-5.67-.83-2.21-1.1-3.09-1.43-5.49-1.21-8.78 1.51-17.81 8.5-23.42 4.76-3.82 12.88-6.1 18.05-1.88 1.47 1.2.68 1.54.44 2.8-.2 1.07-.19 3.87-.03 4.94zm-21.37-17.48c-1.35.16-2.7.64-4.04.8-1.56.18-2.36.14-3.92.51-2.64.63-5.86.45-8.49 1.03-.14.03.04.46-.76.18-.55-.19-.76-.67-.84-1.23-.26-1.87-.14-3.79-.14-5.65 0-1.14-.21-4.98.21-5.73.97-.96 2.04-1.83 3.02-2.79 8.39-8.21 16.85-16.72 24.56-25.65.1-.11.83-1.16.84-1.23l-.2-.49c-.35-.32-1.88.15-2.42.22-2.12.27-4.32.39-6.47.72-5.91.91-12.44 2.21-18.13 4-.8.25-1.52 1.01-2.39.26-.36-2.49-.3-5.09-.4-7.62-.07-1.76-.18-3.49-.28-5.25-.07-1.24-.05-2.57.41-3.74.28-.19 1.84-.14 2.28-.21 6.21-1.03 12.38-2.2 18.69-2.75 9.76-.85 19.41-.63 29.18-.98.56-.02 2.84-.11 2.08 1.12-.18.28-2.06.79-2.7 1.59-.41.52-.75 1.56-.69 2.21 0 .09.72 1.24.83 1.39.73.96 1.41 1.33 1.99 2.51.98 2 .23 3.68.15 5.86-1.78 1.97-3.41 4.06-5.11 6.09-4 4.77-8.13 9.57-12.31 14.24-1.65 1.84-3.41 3.6-5.05 5.46-.1.47 1.14.36 1.46.35 2.1-.08 4.6-.59 6.77-.81 4.19-.42 8.58-.76 12.86-.86.96-.02 2.39-.25 2.69.9a50.9 50.9 0 0 0-.27 2.77c-.06.95.24 1.32-.2 2.29-.47 1.03-1.44 1.87-1.98 2.72-.8 1.23-1.58 3.07-2.41 4.16-.14.18-1.04 1.12-1.19 1.22-1.26.84-4.09.51-5.61.62-7.26.52-14.76.95-21.98 1.81zm44.26 47.29c-6.19.69-13.57 1.99-19.51 3.59-.57.15-1.48.47-1.94.01-.43-.43-.13-2.54-.11-3.23.14-6.82.97-14.02.62-21.03.54-3.85.08-7.8.12-11.63 0-.25.18-1.47.27-1.63.27-.46 2.73-.92 3.35-1.11 3.55-1.06 7.18-1.96 10.85-2.57 1.91-.32 4.54-.31 6.32-.74 1.5-.36 1.83-.28 3.35-.39.94-.07 3.38-.81 4.08-.21.4.34-.29 2.64-.38 3.22-.22 1.36-.32 2.64-.63 4.01 0 .03-.21.04-.23.13-.13.52.04 1.54-.14 2.15-1.01.83-2.49.53-3.66.66-.87.09-1.74.19-2.61.29-1.75.22-5.31.56-6.82 1.06-.26.08-.84.35-.95.58-.07.15.06.33.02.45-.23.87-.07.75-.1 1.43-.02.5-.4 2.63.1 2.8.97.22 1.92-.36 2.76-.52.58-.11 1.56-.03 2.04-.15.76-.18 1.99-.49 2.94-.68.82-.16 1.85-.53 2.54.07.02.24-.13.44-.13.68.03 1.62-.41 3.23-.67 4.86-.08.48 0 1.23-.08 1.64-.03.14-.64 1-.84 1.03-.67.12-1.56.04-2.21.15-1.16.18-2.42.37-3.59.56-.93.16-3.22.43-3.54 1.3-.32.86-.23 2.24-.57 3.18.25.68-.1 1.44.34 2.02.44.36.79-.06 1.14-.1 2.18-.27 4.5-.96 6.48-1.16.63-.06 1.83-.12 2.27.36l2.03 8.5c-.91.57-1.95.31-2.91.41zm25.47 2.71c-4.28 2.91-9.51 4.1-14.52 1.95-9.45-4.05-8.85-19.44-5.77-27.43 3-7.79 10.94-15.55 19.95-13.72 2.69.55 4.81 1.73 6.81 3.56.74.67 1.89 1.81 2 2.85.11.97-.39 4.09-.55 5.23-.41 2.76-1.11 5.53-1.5 8.32-.49 3.52-1.4 7.13-1.94 10.64-.36 2.31.04 4.5-1.73 6.43-.44.48-2.13 1.75-2.74 2.16zm43.99-29.51c-.26 1.09-.59 2.24-.84 3.31-2.23 9.68-4.66 19.36-6.63 29.05l-1.34 5.29c-.71.97-3.98.54-5.19.62-1.3.08-4.66.89-5.68.14-.81-.59-1.13-3.86-1.42-4.94-.24-.88-.71-1.85-.95-2.78-.7-2.63-1.16-5.8-2.04-8.33-.45-1.3-1.26-1.14-1.53.13-.13.61.1 1.17.02 1.53-.08.37-.51 1.03-.62 1.46-.43 1.73-.73 3.6-1.15 5.34-.17.71-.44 2.34-.99 2.74-.18.13-2.83.79-3.19.82-.67.06-1.4-.06-2.07 0-1.5.14-3.75.66-5.14.64-.99-.02-1.21-.48-1.13-1.38.17-1.99.93-4.78 1.32-6.84.42-2.25.79-4.52 1.25-6.77.65-3.11 1.14-6.58 1.84-9.66.23-1 .25-2.57.46-3.41.76-3.02 1.47-6.56 1.89-9.7.11-.81-.21-2.12 1.03-2.29 2.84-.38 6.13-.06 9-.27 1.04-.08 3.53-1 4.3-.28.35.33.33 1.02.42 1.4.74 2.89 1.08 6.4 1.63 9.54.07.41.28.8.35 1.19.21 1.25-.26 2.6 1.19 3.23.43-.03.43-2.13.49-2.54.28-2.02.61-4.16 1-6.19.09-.49.17-1.01.43-1.44.02-.03.48-.51.51-.53.66-.41 2.45-.02 3.38-.08 1.94-.11 3.88-.29 5.81-.42.82-.05 2.57-.63 3.25-.34.76.32.52 1.14.38 1.75zm-12.16-6.09c1.4-.34 1.97 1.94-.03 1.62-.07-.01-.72-.26-.75-.29-.31-.36.32-1.22.78-1.34zm6.94 1.14c-.09.06-.91.36-1.03.37-.15.01-2.08-.15-2.19-.18-.56-.16-.44-1.61-.2-1.88.11-.12.47-.12.65-.25.63-.46 1.66-1.54 2.54-1.28.8.24.35.92.37 1.29.03.52.41 1.56-.14 1.92zm18.33-52.2c-.28.45-.38.52-.69 1.11-.22.4-.72.77-.95 1.12-1.78 2.71-3.57 5.3-5.47 7.95-.54.75-.45 1.44-1.72 1.3-.94-.1-1.35-.78-2.03-1.15-3.29-1.8-7.13-3.86-10.84-4.38-2.44-.34-6.21.68-4.92 3.82.16.39.63 1 .98 1.23 1.04.68 2.78 1.01 3.94 1.45 4.59 1.74 10.83 4.23 13.44 8.69 3.16 5.4-.96 12.51-5.29 16.07-7.78 6.4-18.45 7.95-28.34 6.76-4.64-.55-13.72-3.02-17.58-5.93-.14-.1-.78-.73-.83-.83-.1-.22-.14-1.48-.04-1.63.05-.08.34-.09.45-.31.08-.14.03-.37.12-.51 2.18-3.48 4.68-6.87 6.75-10.47.21-.27.69-.39 1.02-.37.69.03 1.93 1.48 2.63 1.94 3.54 2.35 11.38 4.62 15.63 4.43 1.28-.06 4.25-.71 4.83-1.95 1.1-2.36-.31-3.05-2.29-3.63-.33-.1-.67-.05-.98-.13-4.58-1.14-9.16-2.83-12.76-6.05-1.08-.97-3.3-4.65-3.63-6.05-.11-.45.05-.95-.04-1.32-.03-.11-.27-.09-.28-.17-.25-4.95 3.09-11.33 6.85-14.58 2.39-2.07 7.89-5.39 11.07-5.12 1.68.14 3.72.81 5.41.96 2.7.25 2.58-1.07 4.31-1.47.93-.21 1.04.22 1.65.35.69.14 1.71.08 2.44.22 5.57 1.11 11.36 3.75 16.37 6.36.05.02.06.17.16.21.32.15 1 .17 1.12.66.04.15-.37 1.26-.47 1.42z" fill="#fff"/><path d="M26.74 54.82c-1.69-.78-2.76-2.94-3.31-4.64-1.73-5.31-1.9-14.5 1.52-19.17 1.42-1.94 4.74-3.98 7.13-2.6.96.55 1.4 1.37 1.89 2.26 2.92 5.31 4.18 15.42.47 20.68-1.45 2.06-5.17 4.64-7.69 3.47zm3.4-5.07l.57-2.13c-.06-2.3-.05-4.23-.55-6.51-.11-.49.22-.94-.37-1.29-1.46-.85-.92 1.83-1.01 2.55-.03.26-.27.13-.3.4-.2 1.55.19 4.61.56 6.1.06.24-.04.5.02.74l1.08.14zM38.49 89.4c.15.15.41.18.47.43.05.96.45 1.96.56 2.89.52 4.32-1.19 8.31-4.62 10.97-.42.33-.7.57-1.26.3-.23-.11-.59-.83-.67-1.11-.28-.94-.43-2.86-.62-3.96-.33-1.91-.55-3.99-1.04-5.88-.19-.73-.74-1.21-.47-2.11.06-.19 1.88-1.36 2.15-1.44.7-.23 1.84-.59 2.55-.77 1.52-.38 1.83-.4 2.93.68zM183.77 83.7c.53.41.57 1.01 1.02 1.42 1 4.12-.09 12.74-3.38 15.66-.91.81-2.75 1.71-3.98 1.63-.13 0-1.22-.37-1.31-.42-.15-.1-1.16-1.8-1.22-2.03-.11-.45-.19-1.5-.22-2.01-.2-3.79.94-8.5 2.72-11.81.6-1.12 3.13-3.01 4.42-3.06.71-.03 1.4.2 1.94.62z" fill="#fff"/></svg>