<?xml version="1.0" encoding="UTF-8"?><svg id="images" xmlns="http://www.w3.org/2000/svg" width="250" height="88" viewBox="0 0 250 88"><g id="wNsRxs.tif"><g><path d="M135.79,14.24c.07,.45,.08,.92,.2,1.35,.89,3.03,.86,6.12,.44,9.2-.22,1.58-1.29,2.61-2.85,3.05-.79,.22-1.61,.36-2.41,.56-.95,.23-1.21,.65-1.09,1.63,.25,2.2,.49,4.41,.71,6.62,.11,1.12-.48,1.76-1.59,1.94-1.9,.3-3.78,.65-5.68,.98-1.32,.23-1.75-.15-1.88-1.48-.23-2.31-.55-4.61-.81-6.91-.41-3.59-.84-7.18-1.2-10.78-.08-.76-.24-1.38-.86-1.89-.85-.68-1.66-1.43-2.48-2.16-.38-.34-.66-.22-.8,.19-.17,.52-.32,1.06-.38,1.6-.23,2.33-.39,4.67-.65,7-.29,2.58-.14,5.13,.22,7.68,.28,2,.56,4,.83,6,.02,.12,.03,.25,.04,.37,.13,1.79-.13,2.04-1.93,2.23-1.06,.11-2.11,.38-3.18,.52-1.67,.22-2.27-.22-2.47-1.87-.19-1.58-.25-3.18-.41-4.77-.17-1.76-.36-3.52-.6-5.27-.06-.42-.32-.83-.55-1.21-1.05-1.69-2.14-3.36-3.17-5.06-.94-1.56-2.12-2.89-3.61-3.93-.22-.15-.63-.14-.91-.05-.12,.04-.18,.46-.17,.7,.1,1.54,.26,3.08,.34,4.63,.05,.96-.16,1.23-1.11,1.49-.74,.2-1.51,.35-2.27,.47-.87,.14-1.14,.42-1.02,1.29,.38,2.92,.78,5.83,1.17,8.75,.24,1.75,.48,3.5,.72,5.25,.03,.2,.06,.4,.07,.59,.09,1.39-.2,1.87-1.55,2.21-1.3,.33-2.63,.59-3.95,.85-.7,.13-1.29-.3-1.38-1.05-.31-2.55-.58-5.1-.86-7.65-.24-2.13-.47-4.26-.7-6.39-.02-.2-.05-.4-.06-.6-.12-1.5-.37-1.71-1.88-1.5-.52,.07-1.03,.2-1.55,.27-.84,.12-1.44-.25-1.86-.97-.65-1.12-1.32-2.23-2-3.33-.09-.15-.29-.23-.44-.35-.12,.17-.35,.34-.35,.52,0,.67,0,1.35,.1,2.01,.49,2.95,1.04,5.89,1.54,8.84,.55,3.21,1.06,6.44,1.6,9.65,.19,1.14-.38,1.98-1.48,2.2-1.49,.3-2.97,.64-4.45,.96-.2,.04-.39,.1-.58,.14-1.25,.25-1.87-.2-1.99-1.45-.12-1.32-.23-2.63-.33-3.95-.1-1.32-.46-1.61-1.76-1.38-1.69,.3-1.94,.53-2.03,2.2-.08,1.32-.07,2.64-.11,3.97-.04,1.22-.34,1.59-1.52,1.88-1.19,.29-2.38,.57-3.57,.85-1.27,.3-2.03-.3-1.91-1.58,.22-2.26,.5-4.51,.7-6.77,.18-2.09,.27-4.18,.43-6.27,.16-2.13,.32-4.27,.57-6.39,.13-1.17-.12-2.11-1.07-2.84-.26-.2-.47-.45-.69-.68-.67-.72-.5-1.41,.46-1.67,1.2-.32,2.42-.59,3.64-.82,2.38-.44,4.76-.87,7.14-1.25,1.37-.22,2.77-.32,4.15-.52,.39-.06,.75-.29,1.11-.46,.24-.11,.46-.33,.71-.38,2.18-.4,4.37-.77,6.55-1.16,2.21-.4,4.4-.87,6.62-1.21,1.38-.21,2.78-.22,4.17-.37,.4-.04,.77-.25,1.16-.38,.42-.14,.83-.31,1.26-.4,1.12-.23,2.26-.38,3.36-.65,1.49-.37,2.18-.11,2.99,1.21,.42,.69,.91,1.34,1.36,2.01l.28-.03c.11-.35,.28-.7,.31-1.05,.06-.62,.05-1.25,.06-1.87,.02-.71,.33-1.24,1.03-1.39,1.41-.3,2.9-.89,4.25-.68,1.41,.22,2.48-.23,3.7-.56,1.92-.53,3.87-.94,5.82-1.32,2.42-.47,4.85-.93,7.29-1.25,1.01-.13,2.07,.05,3.1,.18,.58,.07,1.06,.09,1.49-.39,.22-.24,.57-.42,.88-.49,1.75-.41,3.5-.81,5.26-1.15,1.08-.21,2.17-.34,3.26-.43,.82-.07,1.09,.25,1.19,1.09,.36,3.12,.72,6.24,1.1,9.36,.22,1.81,.45,3.61,.68,5.42,.04,.3,.11,.59,.18,.88,.13,.55,.56,.85,1.04,.75,.26-.06,.6-.57,.6-.88,0-1.27-.04-2.55-.17-3.81-.4-3.72-.86-7.43-1.29-11.15-.03-.25-.04-.5-.05-.75-.02-1.33,.23-1.68,1.51-2.01,.58-.15,1.17-.27,1.77-.31,1.09-.08,1.49,.3,1.63,1.39,.21,1.68,.43,3.35,.65,5.03,.27,2.07,.58,4.15,.8,6.23,.23,2.21,.37,4.42,.57,6.63,.33,3.58-1.8,5.96-4.9,6.95-.87,.28-1.89,.19-2.82,.11-1.66-.15-3.24-.69-4.61-1.63-1.65-1.14-2.17-2.88-2.37-4.79-.36-3.4-.74-6.79-1.23-10.17-.27-1.83-1.53-3.04-2.93-4.08l-.31,.14Zm-65.11,19.09h-.12c0,1.15-.03,2.3,.02,3.44,.02,.3,.25,.76,.49,.86,1.47,.59,2.67-.29,2.5-1.84-.22-1.98-.51-3.96-.76-5.93-.09-.68-.53-.98-1.13-.96-.61,.02-1.01,.38-1.01,1.07,0,1.12,0,2.24,0,3.37Zm60.42-12.56h.02c-.04-.7-.06-1.4-.12-2.09-.02-.21-.11-.49-.26-.58-.61-.35-1.21-.16-1.76,.18-.5,.3-1.12,.52-.95,1.33,.21,1,.4,2.01,.6,3.01,.18,.87,.57,1.21,1.28,1.14,.69-.07,1.16-.6,1.19-1.4,.02-.52,0-1.05,0-1.57Z" fill="#fff"/><path d="M42.54,47.94c-.21,1.08-.32,2.31-.71,3.45-.48,1.42-1.41,2.44-3.03,2.77-2.97,.61-5.93,1.33-8.88,2.05-1.32,.32-1.42,.45-1.32,1.82,.21,2.78,.47,5.56,.73,8.34,.06,.66,.41,1.12,1.1,1.36,.79,.28,1.57,.65,2.29,1.09,.3,.19,.55,.67,.57,1.03,0,.22-.44,.59-.74,.67-1.52,.39-3.06,.69-4.6,1.04-1.85,.42-3.68,.88-5.53,1.27-1.24,.26-2.5,.4-3.75,.62-.96,.17-1.89,.46-2.85,.6-1.51,.22-2.19-.55-1.45-1.83,1.28-2.22,.75-4.5,.55-6.78-.22-2.56-.46-5.12-.74-7.67-.34-3.14-.75-6.28-1.1-9.43-.2-1.76-.32-3.53-.51-5.29-.13-1.2-.7-1.76-1.86-1.98-3.16-.59-6.31-1.19-9.47-1.79-.24-.05-.55-.07-.7-.23-.25-.27-.54-.62-.55-.96-.01-.25,.33-.59,.59-.75,.33-.19,.75-.26,1.14-.35,3.25-.68,6.5-1.34,9.74-2.02,3.1-.65,6.19-1.32,9.28-1.97,.85-.18,1.72-.3,2.57-.46,3.67-.7,7.33-1.43,11-2.08,1-.17,2.04-.12,3.06-.08,.75,.03,1.45,.32,1.74,1.09,.51,1.37,1.05,2.74,1.39,4.16,.5,2.03,.88,4.09,1.22,6.15,.32,1.99,.52,4,.8,6.16Zm-12.61-6.32h0c-.8,0-1.6-.05-2.39,.01-.54,.04-.99,.38-.91,.99,.25,2.08,.54,4.15,.83,6.22,.09,.62,.48,.95,1.1,.85,1.37-.24,2.74-.49,4.1-.8,1.13-.26,1.48-.78,1.34-1.96-.16-1.36-.39-2.71-.6-4.07-.11-.74-.56-1.18-1.3-1.22-.72-.04-1.45,0-2.17,0Z" fill="#fff"/><path d="M76.75,5.4c.31,.07,.62,.21,.93,.19,.72-.04,1.44-.15,2.15-.25,.92-.13,1.44,.26,1.52,1.18,.03,.35,.08,.7,.08,1.04,0,.82-.55,1.4-1.36,1.5-.67,.09-1.37,.1-1.98,.33-.4,.15-.89,.61-.95,.99-.08,.5,.15,1.1,.39,1.58,.08,.15,.64,.14,.96,.08,.83-.15,1.65-.4,2.48-.54,1.68-.29,2.39,.3,2.45,2,.03,.8,.01,1.6,.03,2.4,.01,.69-.3,1.17-.97,1.32-1.09,.24-2.2,.43-3.3,.64-1.73,.34-3.47,.67-5.2,1.02-.32,.06-.62,.18-.94,.24-1.84,.33-2.58-.29-2.75-2.13-.25-2.66-.57-5.3-.85-7.96-.07-.62-.08-1.24-.16-1.86-.09-.8-.45-1.4-1.26-1.69-.44-.16-.83-.47-1.26-.65-.92-.38-1.36-.06-1.25,.92,.37,3.19,.78,6.38,1.13,9.57,.13,1.19,.18,2.39,.21,3.58,.02,.86-.4,1.27-1.25,1.39-.05,0-.1,.01-.15,.02-1.81,.23-2.75,.15-2.76-2.24,0-1.33-.31-2.67-.52-4-.09-.59-.32-1.15-1.02-1.18-.48-.02-.94,.78-.87,1.47,.17,1.71,.4,3.42,.54,5.13,.11,1.36-.22,1.74-1.54,2-1.18,.23-2.35,.47-3.53,.69-1.14,.21-1.87-.3-1.98-1.46-.32-3.42-.62-6.85-.91-10.27-.1-1.17-1.33-2.57-2.5-2.71-.21-.03-.61,.14-.66,.3-.31,1.06-1.2,1.33-2.08,1.62-.31,.1-.62,.19-.93,.28-.97,.27-1.11,.48-.98,1.5,.4,3.24,.8,6.48,1.21,9.72,.07,.52,.18,1.03,.31,1.54,.19,.72-.12,1.2-.74,1.43-.65,.25-1.33,.39-2.01,.56-.65,.16-1.31,.28-1.96,.45-.7,.18-1.52-.31-1.7-1.09-.09-.41-.1-.84-.14-1.26-.28-3-.55-6-.84-9-.03-.35-.08-.69-.14-1.04-.18-.95-.69-1.33-1.63-1.21-.74,.1-1.48,.21-2.22,.32-.9,.14-1.55-.13-2.12-.9-.68-.91-1.54-1.69-2.32-2.54-.22-.24-.46-.47-.63-.74-.47-.77-.28-1.34,.57-1.64,.4-.14,.82-.22,1.23-.3,1.91-.35,3.83-.65,5.73-1.03,1.69-.33,3.35-.76,5.04-1.11,1.27-.26,2.55-.5,3.83-.67,1.28-.17,1.91,.36,2.13,1.63,.04,.22,.06,.45,.1,.67,.19,.93,.36,1.03,1.27,.71,.09-.03,.19-.09,.28-.1,2.41-.37,4.83-.77,7.25-1.1,.81-.11,1.28,.3,1.4,1.11,.08,.54,0,1.11,.15,1.63,.1,.34,.45,.62,.69,.92,.32-.3,.86-.56,.92-.91,.14-.77,.07-1.59,.03-2.39-.04-.76,.31-1.29,1.02-1.32,2.06-.07,3.88-.99,5.83-1.43,3.96-.9,7.98-1.57,11.97-2.34,1-.19,1.54,.18,1.71,1.17,.08,.52,.15,1.04,.15,1.56,.01,.82-.28,1.04-1.1,1.21-1.33,.28-2.65,.64-3.97,.97-.08,.02-.15,.12-.22,.18l-.03,.26Z" fill="#fff"/><path d="M93.18,82.45c-1.22,0-2.5,.1-3.33-.96-.65-.83-1.28-1.76-1.58-2.75-.81-2.66-.98-5.43-1.19-8.2-.25-3.25-.62-6.5-.97-9.74-.16-1.46-.05-2.87,.34-4.29,.28-1.03,.67-1.91,1.29-2.8,.95-1.36,2.24-1.88,3.75-2.17,2.77-.52,5.53-1.09,8.29-1.61,2.4-.45,4.81-.87,7.22-1.28,1.25-.21,1.84,.21,2.06,1.46,.19,1.08,.31,2.17,.49,3.26,.16,.96,.37,1.91,.53,2.87,.11,.66,.2,1.33,.22,2,.03,1.04-.52,1.51-1.52,1.2-1.21-.37-2.38-.9-3.58-1.28-.55-.17-1.18-.28-1.74-.21-1.06,.14-2.1,.42-3.15,.65-1.02,.22-2.03,.5-3.05,.67-.75,.13-.93,.61-.89,1.23,.09,1.49,.2,2.99,.34,4.47,.2,2.16,.45,4.31,.65,6.47,.12,1.26,.46,1.68,1.71,1.45,2.27-.41,4.53-.95,6.77-1.5,.3-.07,.51-.48,.76-.73-.4-.19-.81-.57-1.19-.54-.89,.06-1.76,.32-2.65,.48-.32,.06-.64,.11-.96,.13-.72,.05-1.23-.29-1.39-.99-.31-1.34-.61-2.68-.81-4.03-.15-1.01,.35-1.41,1.38-1.26,.29,.04,.6,.09,.87,.2,2.11,.84,4.25,.75,6.39,.15,1.42-.4,2.25-.12,2.46,.94,.2,1,.37,2.01,.48,3.03,.31,2.67,.58,5.35,.87,8.02,.18,1.64-.14,2.14-1.75,2.45-3.06,.59-6.13,1.12-9.18,1.71-1.88,.36-3.75,.81-5.63,1.18-.76,.15-1.53,.21-2.29,.31Z" fill="#fff"/><path d="M227.31,34.95c.05-.38,.17-.76,.15-1.13-.05-1-.19-1.99-.24-2.98-.08-1.33,.41-1.9,1.65-2,1.31-.11,2.06,.44,2.17,1.7,.35,4,.66,8,1,12,.04,.45,.12,.89,.16,1.34,.19,1.8,.41,3.6,.54,5.41,.07,1-.22,1.29-1.18,1.47-1.39,.26-2.79,.52-4.19,.74-.46,.07-.97,.08-1.4-.05-.34-.1-.7-.41-.87-.73-.34-.63-.56-1.33-.81-2-.39-1.07-.74-2.16-1.14-3.23-.08-.21-.28-.37-.42-.55-.16,.23-.45,.45-.45,.68,.02,1.19,.12,2.39,.17,3.58,.03,.77,.08,1.55-.03,2.3-.04,.31-.41,.68-.72,.81-.54,.23-1.15,.34-1.73,.44-.83,.14-1.49-.3-1.65-1.14-.13-.71-.2-1.43-.23-2.15-.07-1.67-.07-3.34-.18-5.01-.07-1.11-.34-2.21-.43-3.32-.11-1.27-.15-2.54-.17-3.81-.01-.87-.32-1.52-1.04-2.03-.83-.59-1.62-1.25-2.43-1.86-.16-.12-.48-.29-.56-.22-.17,.13-.3,.4-.31,.62-.01,.44,.05,.89,.12,1.34,.16,1.09-.11,1.32-1.04,1.84-1.16,.65-2.4,.74-3.65,.89-.16,.02-.32,.08-.49,.25,.18,.04,.35,.13,.53,.12,1.18-.06,2.4,.2,3.51-.48,.36-.22,1.3,.42,1.42,1.06,.2,1.02,.28,2.07,.36,3.11,.04,.53-.31,.81-.81,.91-1.41,.3-2.83,.61-4.24,.9-.89,.18-1.3,.6-1.35,1.51-.12,2.21,.37,2.71,2.53,2.43,.96-.13,1.9-.43,2.86-.59,1.04-.17,1.44,.14,1.59,1.17,.19,1.33,.38,2.66,.48,4,.07,1.04-.3,1.44-1.3,1.7-3.84,1.02-7.75,1.59-11.69,2.02-.97,.1-1.49-.29-1.57-1.26-.17-2.11-.26-4.23-.41-6.35-.19-2.63-.38-5.27-.64-7.9-.05-.52-.37-1.07-.7-1.49-.65-.82-1.47-1.5-2.09-2.34-.73-1-.35-1.64,.86-1.86,1.71-.32,3.41-.75,5.11-1.11,.68-.15,1.38-.23,2.06-.37,1.07-.22,2.13-.52,3.21-.69,1.68-.27,3.33-.82,5.07-.37,.26,.07,.61-.13,.91-.24,.32-.12,.6-.36,.93-.43,1.25-.26,2.51-.45,3.75-.71,1.34-.28,2.67-.62,4-.92,.39-.09,.79-.15,1.18-.18,.85-.05,1.24,.29,1.58,1.06,.55,1.27,1.18,2.51,1.78,3.76,.07,.15,.18,.29,.27,.43l.24-.09Z" fill="#fff"/><path d="M181.9,57.43c-.04,.38-.1,.76-.13,1.14-.06,.65-.32,1.18-1,1.33-1.75,.37-3.5,.76-5.27,1.04-.97,.16-1.41-.2-1.52-1.19-.23-1.98-.39-3.97-.57-5.95-.24-2.6-.46-5.21-.76-7.81-.05-.48-.33-1.01-.67-1.37-.57-.62-1.24-1.15-1.92-1.66-.28-.2-.68-.23-1.03-.34-.1,.34-.29,.69-.28,1.03,.03,1.82-.71,2.6-2.54,2.7-.52,.03-1.03,.19-1.54,.29v.3c.27,.05,.53,.15,.79,.13,.7-.05,1.39-.15,2.08-.24,1.03-.13,1.58,.26,1.71,1.27,.1,.79,.16,1.59,.24,2.38,.07,.66-.24,1.05-.88,1.18-1.15,.24-2.29,.48-3.44,.71-.27,.05-.55,.07-.81,.14-.98,.23-1.35,.8-1.26,1.79,.23,2.58,.46,5.17,.65,7.75,.05,.65-.11,1.31-.85,1.49-1.67,.4-3.35,.83-5.05,1.07-1.49,.21-1.95-.25-2.1-1.74-.18-1.84-.28-3.68-.45-5.52-.21-2.38-.47-4.76-.68-7.15-.12-1.44-1.24-2.08-2.17-2.88-.51-.44-1.06-.84-1.52-1.33-.74-.78-.5-1.68,.5-2.08,.23-.09,.48-.14,.72-.19,1.65-.37,3.3-.77,4.96-1.1,1.22-.25,2.46-.4,3.69-.62,2.01-.36,4.02-.74,6.03-1.09,.26-.05,.55,.03,.82,0,.48-.06,.97-.13,1.44-.26,.48-.13,.92-.39,1.4-.49,2.14-.47,4.28-.94,6.44-1.33,1.89-.34,3.79-.65,5.7-.81,2.32-.2,2.73,.64,3.18,2.61,.31,1.38,.46,2.81,.61,4.22,.15,1.39-.03,2.65-1.33,3.57-.98,.69-.9,.85-.31,1.91,1.03,1.85,1.99,3.74,2.98,5.61,.23,.44,.47,.88,.69,1.33,.24,.51,.1,.9-.39,1.2-1.26,.77-2.65,.83-4.05,.77-.26-.01-.53-.32-.74-.54-.38-.41-.72-.87-1.08-1.31l-.26,.05Zm.02-12.78c0-.52-.13-.96-.75-.99-.72-.04-1.37,.62-1.36,1.38,0,.55,.11,1.08,.82,1.1,.8,.02,1.29-.55,1.29-1.49Z" fill="#fff"/><path d="M119.38,52.46c0,.75-.06,1.51,.01,2.26,.19,2.16,.42,4.31,.65,6.46,.2,1.86,.45,3.71,.65,5.57,.14,1.31,.26,2.63,.32,3.95,.05,1.08-.21,1.34-1.26,1.6-.78,.19-1.54,.42-2.32,.59-1.2,.26-1.77-.11-1.92-1.33-.37-3.14-.7-6.29-1.02-9.44-.2-1.93-.27-3.88-.53-5.81-.1-.73-.55-1.41-.87-2.1-.17-.36-.43-.67-.59-1.04-.33-.79,.08-1.55,.92-1.68,1.33-.21,2.66-.39,3.99-.58,.02,0,.05-.01,.07,0,1.4,.63,2.49-.34,3.72-.68,2.13-.59,4.32-1.03,6.49-1.49,1.92-.41,3.85-.8,5.8-1.11,1.59-.25,2.48,.28,2.84,1.85,.46,1.98,1.1,3.94,.96,6.03-.07,.98-.35,1.71-1.21,2.24-1.01,.63-1.11,.95-.57,2.03,.7,1.4,1.5,2.75,2.24,4.13,.49,.92,1.01,1.83,1.43,2.79,.34,.78-.02,1.46-.87,1.65-.95,.21-1.91,.37-2.88,.48-.84,.1-1.31-.47-1.72-1.1-.12-.19-.33-.32-.5-.48-.13,.22-.33,.42-.38,.66-.28,1.31-.49,1.47-1.79,1.69-1.3,.22-2.58,.56-3.87,.84-.36,.08-.74,.15-1.11,.14-.62-.03-1.02-.35-1.09-1.01-.3-3.05-.6-6.1-.92-9.15-.13-1.24-.25-2.48-.46-3.7-.08-.43-.38-.86-.68-1.2-.73-.85-1.51-1.66-2.3-2.45-.29-.29-.67-.47-1.02-.7l-.23,.11Zm12.72,1.59c-.16-.25-.29-.68-.55-.8-.28-.13-.77-.1-1.04,.07-.59,.35-.51,1-.35,1.55,.09,.31,.41,.81,.6,.8,.36-.03,.77-.29,1.04-.58,.19-.21,.19-.6,.32-1.04Z" fill="#fff"/><path d="M164.01,31.65c-2.95,.34-4.96-1.69-5.84-3.81-.43-1.04-.59-2.2-.78-3.33-.17-1.01,.22-1.39,1.24-1.55,1.4-.22,2.78-.54,4.18-.74,.78-.11,1.59-.1,2.39-.07,.69,.03,.7,.55,.7,1.09,0,.48-.02,1,.14,1.44,.08,.24,.51,.52,.77,.51,.27,0,.7-.29,.78-.54,.3-1.03,.33-2.12-.26-3.03-.23-.36-.93-.59-1.41-.59-.94,0-1.88,.26-2.82,.35-.84,.08-1.7,.15-2.54,.11-1.56-.06-2.63-.84-3.3-2.29-.78-1.68-.96-3.46-1.05-5.24-.06-1.13,.03-2.3,.22-3.42,.35-2.05,2.38-3.93,4.45-4.19,1.87-.24,3.76-.57,5.64-.57,2.7,0,5.1,.84,6.64,3.31,.3,.48,.73,.89,1.08,1.33,.77,.96,.52,1.74-.65,2.08-1.74,.51-3.49,1.04-5.23,1.56-.76,.23-1.23,.04-1.61-.67-.24-.44-.38-.98-.72-1.3-.39-.35-.97-.71-1.44-.68-.62,.04-.98,.62-.94,1.32,.02,.35,0,.7,.03,1.05,.12,1.07,.57,1.79,1.98,1.62,1.45-.18,2.94-.15,4.4-.06,.59,.04,1.26,.36,1.72,.75,1.17,.97,2.07,2.19,2.51,3.65,.29,.97,.43,2,.49,3.02,.09,1.36,.16,2.74,.03,4.1-.16,1.68-1.18,2.73-2.86,3.15-1.84,.45-3.66,.99-5.5,1.42-.72,.17-1.49,.13-2.44,.21Z" fill="#fff"/><path d="M235.63,35.99c0-.15-.02-.3,0-.45,.2-1.69-.4-2.99-1.81-3.98-.64-.45-1.14-1.1-1.69-1.68-.49-.52-.22-1.26,.57-1.46,1.41-.34,2.82-.64,4.24-.94,1.68-.36,3.37-.7,5.05-1.03,1.39-.27,2.79-.53,4.2-.74,.79-.12,1.38,.21,1.81,.92,.71,1.19,.78,2.51,.92,3.82,.33,3.2,.63,6.4,.91,9.6,.1,1.16,.24,2.33,.15,3.47-.07,.89-.38,1.8-.76,2.62-.45,.98-1.45,1.35-2.43,1.58-1.31,.31-2.65,.49-3.97,.73-1.5,.28-2.99,.58-4.49,.83-1.45,.24-2.01-.17-2.12-1.65-.18-2.54-.32-5.08-.43-7.62-.06-1.34-.01-2.69-.01-4.04h-.13Zm9.23,3.63c-.03-.34-.08-.74-.11-1.13-.15-1.63-.28-3.27-.47-4.9-.1-.84-.53-1.06-1.31-.77-.42,.16-.83,.34-1.25,.5-.75,.28-1.01,.87-.95,1.6,.16,1.81,.33,3.61,.57,5.41,.05,.4,.3,.92,.62,1.11,1.02,.6,2.91-.59,2.9-1.81Z" fill="#fff"/><path d="M191.41,5.53c2.44,.16,4.17,.58,5.38,2.25,1.24,1.72,.79,4.49-.98,5.65-.08,.05-.17,.1-.26,.15-.99,.67-1.04,1.13-.12,1.85,.54,.42,1.13,.8,1.74,1.12,.46,.24,.76,.03,.77-.52,0-.27,.03-.55,.05-.82,.06-.6,.38-.95,.99-1.04,1.04-.15,2.07-.33,3.11-.44,1.7-.18,2.41,.53,2.14,2.22-.14,.88-.39,1.75-.67,2.6-.42,1.24-.34,1.55,.76,2.21,1.01,.61,1.17,1.45,.45,2.37-.37,.47-.7,.98-1.1,1.41-.64,.7-1.27,.87-1.98,.29-1.19-.98-2.27-1.07-3.53-.16-.63,.46-1.4,.75-2.14,1.03-2.24,.85-4.55,.89-6.91,.73-2.42-.16-4.65-2.97-4.66-5.25,0-1.87,.99-3.3,1.87-4.79,.11-.19,.26-.36,.38-.55,.66-1.05,.59-1.32-.19-2.31-2.2-2.78-1.26-5.55,1.54-7.04,1.15-.61,2.55-.75,3.35-.98Zm1.45,16.58c.4-.07,1.2-.16,1.96-.38,.3-.09,.66-.42,.74-.71,.06-.22-.23-.63-.48-.8-1.13-.81-2.28-1.6-3.47-2.31-.31-.19-.98-.24-1.19-.04-.38,.37-.7,.94-.77,1.47-.23,1.61,1.01,2.78,3.22,2.79Zm-2.57-11.16c.01,.69,.58,1.27,1.22,1.24,.6-.03,1.55-1.11,1.54-1.74-.01-.56-.51-.96-1.21-.96-.88,0-1.56,.64-1.55,1.46Z" fill="#fff"/><path d="M49.83,54.13c-1.84,0-2.12-.34-2.22-1.62-.14-1.76-.4-3.51-.6-5.27-.49-4.26-.99-8.52-1.47-12.78-.11-.97-.45-1.83-1.11-2.55-.3-.33-.64-.64-.92-.98-.82-1.01-.56-1.95,.7-2.27,1.13-.29,2.3-.47,3.45-.66,1.08-.18,2.17-.32,3.26-.46,1.02-.13,1.67,.39,1.78,1.43,.25,2.28,.46,4.57,.75,6.84,.28,2.18,.65,4.34,.94,6.51,.1,.74,.11,1.49,.15,2.24,.06,1.01,.4,1.34,1.41,1.21,1.04-.14,2.06-.36,3.1-.52,.42-.06,.85-.1,1.27-.08,1.16,.05,1.41,.28,1.63,1.42,.2,1.05,.43,2.09,.59,3.15,.2,1.23-.02,1.6-1.21,1.89-1.23,.3-2.49,.5-3.72,.77-1.58,.35-3.15,.75-4.73,1.1-1.19,.26-2.39,.49-3.06,.62Z" fill="#fff"/><path d="M52.3,85.46c-.87,0-1.42-.42-1.52-1.23-.19-1.58-.29-3.17-.43-4.76-.07-.74-.15-1.49-.22-2.23-.06-.63-.45-1-1.03-.96-.62,.04-.76,.57-.71,1.12,.18,2.11,.38,4.22,.55,6.33,.18,2.25,0,2.27-1.6,2.69-1.34,.36-2.71,.65-4.08,.9-.69,.13-1.36-.56-1.42-1.42-.22-3.01-.42-6.02-.63-9.02-.1-1.42-.22-2.83-.31-4.25-.06-.95-.77-1.47-1.31-2.11-.29-.34-.62-.65-.92-.98-.5-.57-.33-1.34,.36-1.66,.16-.07,.33-.13,.5-.16,1.62-.3,3.23-.58,4.85-.88,.29-.05,.59-.12,.87-.22,1.13-.37,1.83-.03,2.13,1.16,.19,.77,.23,1.58,.37,2.36,.05,.29,.1,.67,.29,.82,.24,.18,.66,.29,.94,.2,.2-.06,.41-.49,.4-.75-.04-1.1-.15-2.19-.25-3.28-.05-.64,.25-1.04,.81-1.29,.18-.08,.37-.16,.55-.23,1.79-.61,2.46-.34,2.84,1.49,.34,1.65,.41,3.35,.59,5.03,.02,.22-.01,.46,.04,.67,.88,3.51,.41,7.16,1.1,10.69,.15,.79-.32,1.41-1.1,1.63-.41,.11-.82,.2-1.24,.28-.17,.03-.35,.04-.44,.05Z" fill="#fff"/><path d="M79.12,76.06c0,.42,0,.85,0,1.27-.05,1.91-1.34,3.26-3.23,3.48-.68,.08-1.36,.3-2.01,.52-1.44,.49-2.94,.62-4.35,.21-1.26-.37-2.35-1.24-2.77-2.62-.24-.78-.42-1.59-.52-2.4-.11-.86,.45-1.57,1.32-1.69,1.13-.16,2.28-.23,3.42-.33,.74-.06,1.13,.31,1.2,1.02,.06,.59,.31,.93,.94,.92,.62-.01,.88-.43,1-.94,.29-1.21-.86-2.23-2.18-1.98-1.07,.21-2.15,.37-3.23,.52-1.28,.17-2.37-1.03-2.76-2.07-.73-1.94-.98-3.92-.77-5.95,.17-1.62,1.12-2.76,2.57-3.51,1.93-1,4.01-1,6.08-.83,1.47,.13,3.36,1.15,3.66,3.04,.11,.66,.35,1.3,.48,1.96,.14,.65-.13,1.1-.81,1.17-1.09,.11-2.19,.21-3.28,.22-.89,.01-1.09-.24-1.11-1.12,0-.02,0-.05,0-.07-.07-.46,.19-1.06-.47-1.29-.67-.23-1.09,.19-1.46,.65-.38,.48-.4,1.02-.08,1.54,.42,.69,1.06,1.03,1.84,.86,1.55-.34,2.93,.07,4.2,.88,.52,.33,1.02,.84,1.3,1.38,.39,.77,.65,1.63,.82,2.48,.17,.87,.17,1.78,.25,2.68h-.06Z" fill="#fff"/><path d="M153.79,64.14c0,1.12-.39,1.57-1.5,1.74-.89,.13-1.79,.16-2.67,.33-2.15,.42-4.28,.89-6.42,1.36-1.08,.24-1.7-.15-1.84-1.36-.21-1.83-.31-3.67-.49-5.51-.31-3.17-.62-6.34-1.02-9.5-.07-.55-.53-1.08-.9-1.54-.36-.44-.88-.73-1.28-1.15-.39-.4-.63-.88-.41-1.49,.21-.61,.69-.69,1.22-.81,1.71-.35,3.4-.75,5.1-1.12,.29-.06,.59-.12,.89-.13,.92-.03,1.47,.42,1.59,1.33,.18,1.38,.34,2.76,.47,4.15,.28,2.9,.53,5.8,.8,8.7,.09,1.03,.51,1.36,1.53,1.19,1.01-.17,2.01-.37,3.02-.55,.99-.18,1.47,.14,1.6,1.15,.14,1.09,.22,2.18,.31,3.22Z" fill="#fff"/><path d="M188.9,38.45c-.13-1.29,.22-1.85,1.62-2.25,1.05-.3,2.15-.46,3.23-.59,.75-.09,1.2,.34,1.08,1.06-.62,3.86,.25,7.64,.52,11.46,.18,2.56,.43,5.11,.65,7.66,.09,1.07-.35,1.6-1.43,1.8-.73,.14-1.47,.27-2.19,.45-.97,.25-1.6-.06-1.84-1.08-.18-.77-.24-1.58-.31-2.37-.26-2.8-.53-5.6-.76-8.41-.21-2.58-.38-5.16-.57-7.74Z" fill="#fff"/><path d="M63.88,81.48c-.03,1.65-.35,2.03-1.95,2.28-.47,.07-.93,.17-1.4,.27-1.29,.27-1.98-.21-2.13-1.55-.11-.94-.13-1.89-.22-2.83-.23-2.41-.49-4.81-.73-7.21-.03-.32-.11-.65-.07-.97,.19-1.93-.82-3.23-2.16-4.43-.36-.32-.68-.91-.68-1.37,0-.57,.58-.86,1.18-.96,1.53-.25,3.05-.54,4.57-.77,.9-.14,1.58,.27,1.71,1.16,.3,1.97,.51,3.95,.73,5.93,.3,2.72,.58,5.44,.87,8.17,.08,.77,.18,1.53,.28,2.3Z" fill="#fff"/></g></g></svg>