<svg xmlns="http://www.w3.org/2000/svg" width="180" height="149" viewBox="0 0 180 149"><path fill="#fff" d="M26.84.04h-2.22v30.21h7.75v-2.22h-5.53V.04zM36.66.04h2.22v30.21h-2.22zM78.13 24.61h2.22L80.83.04h-3.19l.49 24.57zM51.46 20.83L46.84.04h-2.22l6.82 30.72.02-.25.01.25L58.3.04h-2.23l-4.61 20.79zM134.51 97.16h-3.81v51.8h13.29v-3.81h-9.48V97.16zM150.51 97.16h3.81v51.8h-3.81zM121.35 97.25h-4.56l-10.16 11.95V97.16h-3.81v51.8h3.81v-38.3l13.43 38.3h3.81l-13.57-38.71 11.05-13zM72.83 9.66l-.86-2.22h-5.24V2.26h5.52V.04H64.5v7.4h-1.94l.87 2.22h1.07v20.59h7.75v-2.22h-5.52V9.66h6.1zM91.71 105.34l-15.08-9.2v52.82h3.81v-45.83l11.27 6.45v39.38h3.81v-51.8h-3.81v8.18zM16.13 109.84H7.14v-8.87h9.48v-3.81H3.33v12.68H0l1.49 3.82h1.84v35.3h3.81v-35.3h10.47l-1.48-3.82zM20.31 56.18l-8.17-17.35-8.1 51.68h3.77l6.07-38.79 6.25 13.42 5.93-13.84 6.14 39.21h3.76l-8.09-51.68-7.56 17.35zM92.19 59.53c0-11.1-8.61-20.13-19.2-20.13h-3.76v51.11H73V79.67l13 10.84h5.72L77.94 79a20 20 0 0 0 14.25-19.47zM73 76.24V42.83c8.7 0 15.78 7.49 15.78 16.7S81.69 76.24 73 76.24zM57.87 82.54a5.16 5.16 0 1 1-10.32 0V39.38h-3.42v43.16a8.58 8.58 0 0 0 17.16 0V39.38h-3.42zM142.23 38.79a7.93 7.93 0 0 0-7.92 7.92v5.2h-3.61l1.47 3.76h2.14v34.78h3.43V55.67h9v34.78h3.43V46.71a7.93 7.93 0 0 0-7.94-7.92zm4.39 13.12h-8.88v-5.2a4.49 4.49 0 0 1 9 0v5.47zM174.24 97.16v8.18l-15.08-9.2v52.82h3.81v-45.83l11.27 6.45v39.38h3.81v-51.8h-3.81zM62.84 96.56a8 8 0 0 0-8 8v5.26h-3.68l1.48 3.81h2.18v35.24h3.47v-35.22h9.1v35.24h3.47v-44.31a8 8 0 0 0-8.02-8.02zm4.44 13.28h-9v-5.26a4.55 4.55 0 1 1 9.1 0v5.55zM123.31 59.53c0-11.1-8.61-20.13-19.2-20.13h-3.76v51.11h3.76V79.67l12.94 10.84h5.71L109.06 79a20 20 0 0 0 14.25-19.47zm-19.2 16.71V42.83c8.7 0 15.77 7.49 15.77 16.7s-7.07 16.71-15.77 16.71zM46.1 117.57c0-11.24-8.73-20.39-19.46-20.39h-3.81V149h3.81v-11l13.11 11h5.79l-13.88-11.72a20.3 20.3 0 0 0 14.44-19.71zM26.64 134.5v-33.85c8.81 0 16 7.59 16 16.92s-7.19 16.93-16 16.93zM167.64 51.13l-7.86-11.66h-4.5l10.49 15.55v37.24h3.76V54.99L180 39.47h-4.5l-7.86 11.66z"/><circle cx="79.24" cy="29.29" r="1.47" fill="#fff"/><path d="M98.38 21.5s-1.07-.65.88-1.89 4.2-2.48 4.85-2.07-1.3 2.07-2.72 3.67-3.59 3.84-3.3 4.19 5.49-2.6 7-4.25 3.6-2.66 3.3-.83-4 3.9-4.78 6.2-1.07 3.37.71 2.25 7.91-7.39 8.45-9.34 1.71-4 2-1.12-4.85 8.46-8 10.91-5.26 2.09-6 .73.95-4.61.95-4.61-5.14 4.18-6.38 3.95-3.28-2.12 3.04-7.79zM121.54 18c1.06.23-.71 2.18-2.42 3.95s-3.84 5.32-3.07 6.27 9-3.73 11.34-5.62a85.76 85.76 0 0 0 6.26-6s-6 .29-7.62-.3-2-1.3-2-1.3-2.24.12-.94-1.77 3.07-2 3.66-1.3-.53 2.07-.53 2.07l11.28-.71S140.27 9 141.75 9s1.18 1.07.59 1.89a8.61 8.61 0 0 0-1 2.49h6.33l-1.07 2.18-7.56-.17s-6.85 4.9-9.81 8.86-3.07 6.1.59 4.08 11.88-7 11.88-7l-3.37 3.84s-7.68 6.86-11 6.74-3.91-3.26-1.24-6.91c0 0-6.8 7.21-10.87 5.67s-.77-6.56 1.06-9.28 3.43-3.79 5.26-3.39z" fill="#fff"/><path d="M142.1 19.67s7-7.68 9.22-10.16 6.32-3.84 5.91-1.95-2.54 2.18-5.14 4.49-11.35 12.58-11.35 12.58 7.57-5.55 9-5.26-4.73 7.92-4 8.87 12.94-8.45 13.7-8-10.81 11.35-15.42 11.4 1.72-6.84 1.18-7.7-7.74 7.29-9.1 7.06-2.45-.75 6-11.33z" fill="#fff"/></svg>