<svg xmlns="http://www.w3.org/2000/svg" viewBox="0 0 240 123"><path d="M18.45 27.28c-.69-5.98-.33-12.27.31-18.27-.05-1.73 1.81-4.59-.31-5.51-4.13.3-7.22.14-7.15 4.79-1.24 5.54-3.39 11.34-5.15 16.74C4.77 29.65 2.35 34.04 0 38c5.85 4.57 8.22-6.65 9.58-10.81 1.59-.31 3.37-.15 5.02 0 .65 4.03.62 8.51 3.49 11.69 4.65 2 1.73-2.63 1.33-4.77-.48-2.22-.79-4.55-.97-6.82zm-4.25-2.36c-1.27-.16-2.45-.15-3.79-.26 1.22-3.76 2.21-8.19 3.23-11.94-.18 4.07-.02 8.01.61 12.1l-.05.1z" fill="#fff" stroke-width="0"/><path d="M37.01.06c-1.27-.3-1.64.48-1.69 1.59-1.43 6.06-2.11 12.37-4.41 18.2-1.1-1.14-3.04-1.43-4.56-1.38-4.26 1.71-6.14 8.63-6.41 12.86-.17 1.03.38 2.1 1.13 2.77 5.65 4.65 8.41-6.01 10.25-9.84.07 3.89-1.62 10.77 4.08 10.71.51-10.46 1.11-22.26 4.43-32.75C39.91.86 38.14.24 37.01.07zM24.6 32.2c.47-3.95 1.42-8.07 3.9-11.28.03 0 .05-.02.05-.05.27-.27.56-.51.87-.72.46.02.84.19 1.23.41-1.7 4.01-3.24 8.27-6.05 11.63zM42.62 13.98c1.25.78 3.71 2.4 4.13.18 0-.97.54-2.43.31-3.43-.65-1.3-4.68-2.83-4.2-.2.21 1.1-.68 2.44-.23 3.46zM69.29 27.08c2.33-2.53 5.28-4.69 8.76-5.23-1.32-2.94-7.95 2.3-9.58 3.95-1.5-2.31-1.29-5.3-.18-7.71.24-1.53-2.74-2.4-3.82-1.87a9.26 9.26 0 0 0-1.01 5.36c-.94 1.02-2.05 1.98-3.55 2.13.93-3.36-.64-7.08-4.46-7.28-2.53.07-3.89 2.53-4.8 5.11-.12.12-.21.27-.22.47-2.27 3.07-3.88 6.63-5.79 9.89-.25-4.26 1.06-8.43 1.41-12.69-.03-1.5-3.2-2.12-4.15-2.13-1.1 2.88-1.04 6.65-1.66 9.74-.98 2.96 1.1 6.75 4.46 5.84 1.31.13 1.67-1.3 2.25-2.2.65-1.35 1.53-2.88 2.33-4.15-.72 3.96.05 8.74 5.26 8 3.3-1.65 4.26-6.15 5.18-9.48 1.59-.07 2.9-.79 4.05-1.76.45 1.6 1.31 3.12 2.51 4.43-12.02 16.85 15.01 15.23 3.02-.41zM52.64 32.1c-.22-.84-.4-1.69-.31-2.56-.1-3.25.67-6.52 2.05-9.48.08 1.44.6 2.95 1.95 3.69-.76 2.92-1.61 6.09-3.69 8.35zm3.95-9.69c-.39-.99-.66-2.29-.41-3.33.04-.34.24-.73.46-1.02.47 1.22.09 3.08-.05 4.36zm10.96 6.77c1.53 2.73 1.2 7.62-1.9 9.02-.46-1.14-.25-2.43-.05-3.59.27-1.39 1.34-4.14 1.95-5.43zM161.17 109.71c-.69-5.98-.33-12.27.31-18.27-.05-1.73 1.81-4.59-.31-5.51-4.13.3-7.22.14-7.15 4.79-1.24 5.54-3.39 11.34-5.15 16.74-1.38 4.62-3.8 9.01-6.15 12.97 5.85 4.57 8.22-6.65 9.58-10.81 1.59-.31 3.37-.15 5.02 0 .65 4.03.62 8.51 3.49 11.69 4.65 2 1.73-2.63 1.33-4.77-.48-2.22-.79-4.55-.97-6.82zm-4.25-2.36c-1.27-.16-2.45-.15-3.79-.26 1.22-3.76 2.21-8.19 3.23-11.94-.18 4.07-.02 8.01.61 12.1l-.05.1z" fill="#fff" stroke-width="0"/><path d="M179.73 82.5c-1.27-.3-1.64.48-1.69 1.59-1.43 6.06-2.11 12.37-4.41 18.2-1.1-1.14-3.04-1.43-4.56-1.38-4.26 1.71-6.14 8.64-6.41 12.87-.17 1.03.38 2.1 1.13 2.77 5.65 4.65 8.41-6.01 10.25-9.84.07 3.89-1.62 10.77 4.08 10.71.51-10.46 1.11-22.26 4.43-32.75.08-1.36-1.69-1.98-2.82-2.15zm-12.41 32.13c.47-3.95 1.42-8.07 3.9-11.28.03 0 .05-.02.05-.05.27-.27.56-.51.87-.72.46.02.84.19 1.23.41-1.7 4.01-3.24 8.27-6.05 11.63zM185.34 96.41c1.25.78 3.71 2.4 4.13.18 0-.97.54-2.43.31-3.43-.65-1.3-4.68-2.83-4.2-.2.21 1.1-.68 2.44-.23 3.46zM220.78 104.28c-1.32-2.94-7.95 2.3-9.58 3.95-1.5-2.31-1.29-5.3-.18-7.71.24-1.53-2.74-2.4-3.82-1.87a9.26 9.26 0 0 0-1.01 5.36c-.94 1.02-2.05 1.98-3.55 2.13.93-3.36-.64-7.08-4.46-7.28-2.53.07-3.89 2.53-4.8 5.11-.12.12-.21.27-.22.47-2.27 3.07-3.88 6.63-5.79 9.89-.25-4.26 1.06-8.43 1.41-12.69-.03-1.5-3.2-2.12-4.15-2.13-1.1 2.88-1.04 6.65-1.66 9.74-.98 2.96 1.1 6.75 4.46 5.84 1.31.13 1.67-1.3 2.25-2.2.65-1.35 1.53-2.88 2.33-4.15-.72 3.96.05 8.74 5.26 8 3.3-1.65 4.26-6.15 5.18-9.48 1.59-.07 2.9-.79 4.05-1.76.45 1.6 1.31 3.12 2.51 4.43-12.02 16.85 15.01 15.23 3.02-.41 2.33-2.53 5.28-4.69 8.76-5.23zm-25.42 10.25c-.22-.84-.4-1.69-.31-2.56-.1-3.25.67-6.52 2.05-9.48.08 1.44.6 2.95 1.95 3.69-.76 2.92-1.61 6.09-3.69 8.35zm3.95-9.69c-.39-.99-.66-2.29-.41-3.33.04-.34.24-.73.46-1.02.47 1.22.09 3.08-.05 4.36zm9.07 15.79c-.46-1.14-.25-2.43-.05-3.59.27-1.39 1.34-4.14 1.95-5.43 1.53 2.73 1.2 7.62-1.9 9.02zM104.14 55.3c-1.5-12.94-.71-26.53.66-39.52-.12-3.75 3.92-9.91-.66-11.92-9.47 1.07-15.2-.43-15.46 10.36C86 26.19 81.36 38.75 77.54 50.41c-2.98 9.98-8.21 19.47-13.3 28.04 12.54 10.22 17.84-14.7 20.73-23.39 3.45-.68 7.29-.32 10.86 0 1.41 8.71 1.34 18.4 7.54 25.27 1.43 1.74 5.64 1.23 5.99-.78-.46-2.86-2.81-6.46-3.11-9.53-1.03-4.79-1.71-9.84-2.1-14.74zm-9.2-5.1c-2.75-.34-5.31-.32-8.2-.55 2.64-8.13 4.77-17.71 6.98-25.83-.38 8.8-.04 17.33 1.33 26.16l-.11.22zM219.08 69.04c.05-8.31 1.19-16.91 4.1-24.72-.52-2.15-4.91-3.93-6.76-2.77-1.68 3.28-3.07 6.92-4.21 10.42-3.53 5.22-6.38 11.77-11.09 16.07l.11-.11c1.1-10.98 4.95-22.87 12.08-31.48 1.75-1.63 5.5-1.2 1.88-3.88-7.13-4.39-13.81 3.93-17.98 13.59-5.89 6.56-10.95 14.78-16.82 19.55l.11-.11c.94-7.27 3.82-15.21 5.65-22.5 2.02-7.04 8.24-14.21-3.1-15.74-6.82 2.07-15.84 23.51-18.51 30.48 0-.44.07-.74.22-.89.58-4.77 1.45-8.85 2.94-13.52-.88-1.83-3.24-2.53-4.88-3.44-3.06-1.05-4.63.73-5.54 3.53-7.02 6.83-12.66 16.75-19.35 22.19l.11-.11c.94-7.27 3.82-15.21 5.65-22.5 2.02-7.04 8.24-14.21-3.1-15.74-6.82 2.07-15.84 23.51-18.51 30.48 0-.44.07-.74.22-.89.58-4.77 1.45-8.85 2.94-13.52-.88-1.83-3.24-2.53-4.88-3.44-7.62-2.62-6.06 12.37-7.7 16.85-1.7 7.35-3.93 17.73 6.43 18.4.07-.15.54-.4.55-.22 3.02-4.97 3.93-13.62 6.82-19.62 2.72-7.1 6.75-13.88 10.81-20.29-1.14 10.56-15.48 30.93-.11 35.69h.44c.46.48 1.74-.21 2.22-.67 6.09-6.02 10.6-13.45 16.29-19.81-.27 2.63-.47 5.1-.99 6.51-1.7 7.35-3.93 17.73 6.43 18.4.07-.15.54-.4.55-.22 3.02-4.97 3.93-13.62 6.82-19.62 2.72-7.1 6.75-13.88 10.81-20.29-1.14 10.56-15.48 30.93-.11 35.69h.44c.46.48 1.74-.21 2.22-.67 4.36-4.31 7.91-9.34 11.66-14.18-.91 3.76-1.29 7.11-1.01 9.3.48 3.06 3.17 5.02 5.54 6.54 6.02 3.52 9.7-6.46 12.41-10.42-.53 4.37.83 8.94 5.32 10.53 8.44 3.4 15.05-16.96 17.51-22.72-3.19-4.52-9.33 17.74-14.63 19.84zM234.65 70.87c-.54 1.08.44 5.72-1.13 8.82-2.84 6.91 3.74 2.53 5.03-.99 2.87-6.43 1.46-11.85-3.89-7.84z" fill="#fff" stroke-width="0"/></svg>