<svg xmlns="http://www.w3.org/2000/svg" viewBox="0 0 280 87"><path d="M20.96 75.09c-1.05 1.24-3.23 1.14-3.77-.51-.66-2.03.8-3.76.86-5.67-1.43-3.29-2.83-6.59-4.52-9.76-.91-.81-3.4 1.27-3.7.25-.22-.74 2.48-2.05 2.06-3.07-.59-1.32-1.1-2.68-1.69-4-.44-.99-1.48-3.41-2.02-4.17-.12-.17-.46-.58-.67-.52-.96 1.26-1.66 2.87-3.52 1.96-1.18-.58-1.4-1.46-1.21-2.72.09-.59.71-1.19.42-1.65-.42-.68-3.08.2-3.2-2.14-.1-1.81 1.2-2.59 2.85-2.67 2.35-.12 2.81.78 5.14-.71 4.07-2.59 9.64-7.46 14.86-5.68 3.06 1.05 5.22 4.64 5.72 7.7.77 4.79-2.9 9.58-6.54 12.34-.62.47-4.16 2.49-4.26 2.79-.17.49.1 1.4.28 1.89l3.74 7.78c1.11 1.01 4.08 1.23 4.37 3.02.38 2.37-1.78 3.44-3.78 2.56-.39.18-.91 2.35-1.43 2.97zm-3.47-34.58c-.84.03-4.2 1.48-4.96 2-.62.42-1.9 1.57-1.59 2.38.61 1 3.1 7.73 3.82 7.87 4.18-.67 9.06-6.94 6.09-10.88-.66-.87-2.31-1.41-3.36-1.37zM156.14 8.45c-1.37.23-3.3 2.17-4.28.24s.59-3.17 1.99-4.1c-.02-.68-.8-.97-.94-1.59-.36-1.57.43-3.36 2.25-2.93.93.22 2.56 2.64 3.52 3.19 1.42.24 3.02.3 4.42.57 5.91 1.14 12.11 2.95 12.67 10.03.73 9.04-6.28 11.48-14.03 10.75-.66-.06-2.72-.85-3.1-.34l-1.75 9.86c.27.87 1.01 1.44 1.46 2.29.69 1.29 1.62 3.5.02 4.43-2.02 1.18-3.13-1.1-4.03-2.45-.6.27-1.02.87-1.67 1.05-2.27.66-4.21-.98-2.8-3.14.82-1.26 2.83-1.81 3.14-3.23.52-2.39.79-5.4 1.09-7.85.1-.82.5-1.49.32-2.42-.22-1.16-3.28-1.44-3.09-2.41.9-.88 3.29.17 3.74-1.08.36-3.6 1.53-7.24 1.07-10.87zm3.13 11.49c3.88 1.83 10.97.28 10.3-5.05-.25-2.05-3.14-3.92-4.95-4.51-.86-.28-4.12-1.17-4.34.05-.2 1.07-.34 2.5-.5 3.63-.12.82-.72 5.53-.51 5.88zM217.99 60.41c.49-.36 4.42-.38 4.85.13.72.86-.01 6.36.02 7.74-.33.99-3.94 1.01-4.83.85s-.64-1.33-1.2-1.9c-.69-.7-1.85-.41-1.99.63-.29 2.23 4.36 3.15 5.84 4.12 4.1 2.71 4.82 8.55 1.98 12.44-1.41 1.94-3.17 2.27-5.45 1.68-.66-.17-2.79-1.5-2.95-1.47-.74.13-.04 1.57-1.27 1.83-.36.07-3.16-.22-3.54-.35-.53-.19-.61-.77-.65-1.24-.15-1.61.17-3.28.19-4.82.02-1.17-.87-3.54 1.11-3.86.47-.07 2.84-.09 3.23.02.76.23.55 2.44 1.93 2.71 2.45.48 2.89-2.07 1.47-3.53-2.23-2.27-7.71-3.53-8.69-6.96-1.15-4 1.53-9.5 6.29-8.51.77.16 2.61 1.48 2.84 1.48.47 0 .56-.8.82-.99zM63.04 42.67c-.11.76.31 1.71-.58 2.09-1.14.49-1.61-.63-2.08-.54-.42.08-.65 1.57-2 .92-1.17-.56.31-2.25-.42-3.36-.45-.68-3.23-2.69-4.07-3.33-1.65-1.27-3.42-2.45-5.14-3.63-.59-.41-.79-1.16-1.73-.93-.17.14 1.42 3.94 1.59 4.08.52.43 1.69-.24 1.85.31s-1.07 1.17-1.04 2.05c.01.37 1.14 3.87 1.36 4.34.57 1.26 1.27.83 2.02 1.42 1.36 1.08 1.02 3.17-1.04 2.93-.47-.05-.95-.46-1.34-.33-.55.18-.86 2.31-2.45 1.37-1.17-.7.1-2.43.23-3.23.23-1.43-1.24-3.84-1.42-5.38l-1.81-.17c-.18-.62.42-1 .51-1.47.14-.77-1.38-6.26-1.8-7.12-.52-1.06-.96-.55-1.88-.71s-2.29-.68-1.93-1.88c.32-1.05 1.82-.87 1.97-1.49.12-.49-.75-1.57-.16-2.39.71-.99 2.13-.01 2.41-.26.05-.9.54-1.63 1.5-1.7 1.72-.13.78 3.01.94 4.02.21 1.35 2.33 2.71 3.27 3.61 1.22 1.18 2.36 2.44 3.7 3.53.41.34 3.95 3.05 4.21 2.75l-1.56-4.88c-.28-.57-1.51.02-1.7-.55-.16-.5.56-1.02.73-1.64.51-1.89-.95-3.96-1.17-5.81-.34-.73-3.34-.93-2.51-2.85.64-1.48 1.95-.62 2.77-1.02.6-.29.81-1.98 2.33-1.13 1.09.61.45 2.18.19 3.13-.08.31-.38.59-.43.96-.07.5 1.1 4.33 1.42 4.7.59.69 1.96 0 2.15.61.26.78-1.49 1.43-1.36 2.71.07.73.85 1.69 1.09 2.37.43 1.19.67 2.71 1.2 3.96s1.35.79 2.4 1.04c1.98.46 2.03 2.91-.2 2.9zM231.71 68.61c2.49-.28 5.28-.65 6.5 2.02.59 1.29.73 3.83.74 5.28 0 1.52-.46 3.7-.18 5.16.15.76.94.52 1.28.96.41.53.41 3.59 0 4.12-.57.75-5.01.73-5.68.18-.76-.62-.71-2.94-.6-3.88s.76-1 .86-1.55c.22-1.15.05-5.73-.43-6.79-.43-.96-1.21-1.25-1.77-.22-.67 1.24-.99 5.47-.73 6.83.12.62 1.03.82 1.19 1.91.12.86.29 3.47-.76 3.68-.63.12-3.62.1-4.31.01-.37-.05-.79-.26-.9-.65-.1-.36-.11-3.35 0-3.71.16-.54 1.07-.73 1.17-1.24s.15-2.08.18-2.74c.09-2.07.29-8.43-.22-10.11-.34-1.1-2.5-.24-2.85-1.45-.13-.45-.12-4.56 0-5.08.13-.58.56-.72 1.1-.8.97-.14 3.01-.37 3.94-.37.44 0 .81.12 1.13.43l.33 8.01zM260.46 78.75l1.29-4.8c-.45-.82-1.06-3.17-.16-3.78.63-.43 3.79.07 4.67.21.33.66.53 1.35.39 2.1-.13.65-.89.61-.86 1.54.02.63.74 3.27.95 4.05.07.27.18.64.35.86.8-.5.53-1.22.75-2 .26-.92.54-1.84.88-2.73l-.98-1.39.21-2.82c.29-.48 3.83-.45 4.4-.27.86.28.87 2.75.65 3.42-.16.49-1.23.2-1.58 1.52-.37 1.39-.61 3.26-.93 4.74-.4 1.8-.78 4.84-1.51 6.4-.65 1.4-3.55 1.23-4.01-.3l-1.07-5.2c-.45-.05-.27 0-.35.25-.32 1.1-1.06 5.08-1.79 5.6-.37.26-2.76.26-3.12 0-.25-.18-.42-.74-.51-1.04-.94-3.18-1.16-7.16-2.1-10.28-.42-1.4-.56-.82-1.35-1.4s-.87-3.16-.25-3.7c.48-.41 4.43-.45 4.73.08.21.36.33 2.38.26 2.84-.09.66-.72.98-.69 1.52.01.36.89 3.27 1.08 3.75.11.28.35.69.63.82zM228.97 35.96l1.96-.54c.38-1.22 1.82-3.25 1.96-4.42.11-.99-.6-1-1.09-1.58-.9-1.05-.86-2.81.74-3.07.58-.09.78.29 1.17.32.91.06 1.36-2.52 3.13-1.76 1.62.69-.07 2.15.63 2.98.29.34 3.18 1.23 3.97 1.71 2.86 1.71 4.12 4.13 3.71 7.48-.25 2-2.42 4.51-4.44 4.85-.7.12-1.83-.12-2.38.37s-.13 2.11-.14 2.82c-.02 1.11-.37 3.19-.28 4.14.1 1.07 2.57 2.65.86 4.14-1.53.73-2.03-1.2-2.68-1.29-.95-.13-1.2 1.04-2.4.18-1.79-1.29.67-3.13 1.6-4.07.09-1.54 0-3.08.03-4.61.01-1.02.54-1.55-.41-2.49-.2-.2-1.72-1.11-1.94-1.16-.61-.16-.77.32-1.04.77-.47.8-1.73 3.79-1.88 4.65-.25 1.39.4 1.11.8 1.87.94 1.82-1.18 3.59-2.39 2.05-.38-.48-.22-1.09-.73-1.35-.46-.22-.66.16-1.08.22-1.44.2-2.4-.64-1.45-1.97.55-.78 1.2-.57 1.79-.97.64-.43 1.76-3.81 2.14-4.74.36-.87 1.17-1.62.86-2.68-.13-.43-1.34-1.29-.98-1.83zm7.17-5.14c-.25.06-.54.48-.67.71-.36.63-1.6 3.57-1.78 4.24-.31 1.16.13 1.5 1.04 2.07 1.85 1.15 6.14 2.74 7.35.12 1.3-2.83-.66-4.9-3.07-6.11-.35-.17-2.64-1.08-2.86-1.03zM221.15 44.66c-1.2 1.2-2.29-.19-2.98-1.12-.67-.17-1.53 1.32-2.7.65-1.88-1.07.99-3.1 1.83-3.8.22-2.43-.11-4.92-.3-7.35-.74-.46-3.03-1.98-3.57-.99-.24.44-.9 2.46-1.07 3.05-.14.47-.58 1.96-.6 2.34-.07.99 2.52 3.9 0 4.46-1.61.36-1.71-.95-2.41-1.21-.44-.17-1.49.69-2.68-.09-1.26-.83-.38-2.21.65-2.79.81-.45 1.51-.23 2.05-1.22.87-1.59 1.29-4.33 2.02-6.07.03-1.13-1.18-1.02-1.53-1.87.64-.79 1.8 0 2.3-.96l1.64-5.06c-.62-.88-1.45-.13-2.09-.28-.31-.07-.93-.58-.99-.92-.32-1.77 1.38-1.66 1.53-2.08.24-.67-1.06-1.86-.31-3.05 1.23-1.94 3.2 2.24 3.88 2.62.74.42 2.51.67 3.45 1.02 4.01 1.48 8.23 4.69 6.89 9.52-.55 1.99-2.61 3.42-4.55 3.88-.7.16-1.53-.3-1.73.68l.31 7.35c.09.55.69.67 1 1.06.52.66.57 1.63-.03 2.23zm-4.11-22.61c-.73.14-1.09 1.61-1.34 2.29-.31.85-1.43 3.91-1.11 4.56.39.82 4.52 1.7 5.5 1.73 2.75.07 4.93-2.72 3.23-5.12-.76-1.07-5.1-3.68-6.28-3.46zM89.39 12.61c-.11.19.43 3.77.53 4.3.13.76.27 2.41 1.23 2.37.28-.01 1.85-.48 2.15-.62 1.37-.65 1.69-2.9 3.34-2.97 1.33.82-.2 2.45.16 3.64.19.63 2.11 1.67 1.43 2.87-.68.65-1.59.18-2.32-.09-.57-.21-1.83-1.08-2.17-1.11s-2.54.51-2.74.68c-.25.22-.14 1.92-.07 2.31.07.44.37.91.46 1.43.29 1.62-.42 3.18 1.83 2.94.69-.07 3.93-.89 4.5-1.17.9-.45 2.11-2.48 3.41-2.05.98.71-.28 2.36-.24 2.8.04.5.88 1.04 1 1.6.11.47.17 1.65-.23 1.93-1.04.73-2.36-.72-3.43-.85-.52-.06-1.34-.02-1.9 0-.88.04-5.28.54-5.76.95-.68.57-.8 2.32-2 2.81-2.22.92-2.07-2.27-1.11-3.49-.08-.35-1.5-.44-1.77-1.51-.19-.78.7-1.73 1.51-1.68.45.03 1.34.85 1.74.17.52-.88-.91-4.09-.93-5.23l-1.74-.54c-.13-.59 1.48-1.23 1.54-1.89-.31-1.62-.23-3.53-.56-5.1-.09-.44-.15-.89-.56-1.15-.66.47-1.88 1.73-2.68.94-.96-.96.35-1.89.28-2.59-.07-.77-1.78-1.22-1.18-2.62.31-.71 1.34-.67 2.01-.55 1.02.18 1.32 1.24 2.72.98s5.34-1.42 6.54-2.06c1.01-.54 1.3-2.09 2.95-1.84 1.75.26.51 2.04.64 2.79.17.92 1.61 1.07 1.35 2.44-.3 1.6-3.42-.1-4.26-.21-1.61-.22-4.14.86-5.69 1.37zM142.24 13.82c-.38.42-.31 3.26-.4 3.98-.46 3.42-3.07 6.82-6.65 7.28-1.39.18-3.33-.2-4.57.08-.88.2-1.77 2.03-2.97 1.35-1.65-.94.54-2.65.4-3.34-.11-.55-1.45-1.08-.58-2.19.73-.92 1.86.13 2.25-.67.17-.35.15-4.09.09-4.73-.14-1.66-.6-1.1-1.54-1.73-1.1-.73.92-.95 1.16-1.74.16-.56.12-4.37.04-5.12-.04-.39-.12-.84-.43-1.11-.55.83-2.04 1.4-2.42.18-.45-1.44.97-1.74.95-2.51-.01-.38-.69-.68-.82-1.23-.3-1.3.43-2.15 1.76-1.93 1.09.18 1.26 1.5 2.12 1.68 3.18-.26 6.36-.54 8.83 1.83.79.76 1.69 2.84 1.94 3.9.2.86.26 3.85.92 4.24.45.26 1.26.2 1.6.8-.22.54-1.5.79-1.68.99zm-9.76-8.81l-.26.26v6.88l1.89 1.2c-.69.79-1.6.64-1.68 1.93.48 1.24-.26 5.77.21 6.58.5.85 3.06.06 3.76-.37 1.54-.94 3.09-5.02 2.86-6.75-.2-1.46-2-.63-1.9-1.72.1-1 2.04-.29 1.88-2.22-.13-1.57-1.28-4.21-2.56-5.19-.12-.1-.9-.59-.95-.59h-3.27zM197.93 25.68c-.21-.18-2.21-.62-2.54-.47-.52.24-1.03 2.34-1.16 2.97-.17.81-.71 3.24-.04 3.72s4.77 1.57 5.63 1.6 3.2-1.7 3.48-.21-1.08 1.54-1.18 2.27c-.07.49 1.76 2.87-.44 2.81-2.04-.06-1.92-1.88-2.78-2.57-.5-.4-3.35-1.14-4.16-1.35-.69-.18-2.48-.75-3.03-.73-.75.03-1.05.64-1.65.93-.88.44-2.7.79-2.9-.56-.18-1.17 1.55-1.51 1.67-1.88.25-.76-1.14-2.47-.25-3.17 1.16-.91 2.25 1.53 2.68 1.22l1.3-5.42c-.07-.8-2.03-1.21-1.79-1.85.28-.75 1.78-.26 2.37-1.08.36-1.75 1.13-3.77 1.39-5.49.02-.15.08-.42-.08-.42-.86.21-1.77.89-2.5.09-.95-1.04.7-1.81 1.12-2.65.13-.55-1.5-2.01-.15-2.92 2.16-1.45 2.28 1.35 3.29 1.83l7.04 2.09c1.3.06 2.74-1.85 4.11-.34s-.3 2.46-1.27 3.39c.01 1.07 1.32 2.05.16 2.9-1 .73-2.45-.56-2.85-1.47-.16-.36-.13-.85-.35-1.2-.37-.57-2.43-1.16-3.14-1.33-.66-.16-2.16-.62-2.63-.15-.55.56-1.07 5.2-1.51 6.25-.19.81 2.26 1.11 2.8 1.08 1.06-.07 2.71-1.7 3.89-.62 1.41 1.29-1.06 2.49-1.19 2.97-.2.76 1.23 2.23.03 2.94-1 .59-2.09-.47-2.61-1.28-.27-.43-.61-1.79-.76-1.91zM255.7 53.77c-.33-.37-.69-1.19-.83-1.66-.13-.44-.21-1.69-.3-1.85-.07-.13-1.49-1.03-1.73-1.11-.45-.13-1.03-.31-1.42.04-.1.09-1.17 2.14-1.32 2.46-.41.87-.71 2.06-1.16 2.96.02.34.31.48.52.66.38.33 3.81 2.68 4.11 2.77 1.09.32 3.84-.48 4.11 1.07.18 1.02-.97 1.31-1.14 1.88-.2.68.17 1.64-.19 2.34-2.42 1.18-2.38-1.76-3.31-2.87-.27-.32-.92-.72-1.29-.94-.85-.49-4.16-2.34-4.87-2.53-1.4-.38-2.49.84-3.88-.08-.82-.54-.74-1.35-.17-2.06.26-.32.8-.46.91-.81.28-.88-.57-1.97.28-2.81 1.15-1.12 1.89.76 2.76 1.21.28-.06 2.15-4.34 2.17-4.91.03-.91-.88-.98-.86-1.87l.41-.27c.51.14 1.25.38 1.66-.08.14-.16 1.61-3.71 1.67-4 .28-1.35-.65-1-1.34-1.68-1.36-1.34.05-2.28 1.3-2.83-.82-2.03.74-3.71 2.32-1.64.64.84.66 1.98 1.13 2.65.57.8 5.38 2.54 6.44 3.37 1.15.32 2.32-.6 3.54.42s-.22 2.1-1.09 2.7l-.11 2.47c-1.13.93-2.31-.35-2.75-1.38-.32-.74-.26-1.73-.95-2.31-.18-.15-1.79-1.01-2.11-1.16-.53-.24-2.68-1.09-3.09-.97-.17.05-.28.19-.39.3-.78.8-1.42 4.11-2.24 5.16-.08.21 0 .4.11.58.18.26 3.05 1.79 3.36 1.83 1.01.13 2.78-1.57 3.69.61-.19 1.09-1.29 1.46-2.06 2.08-.1.47.27.71.34 1.17.27 1.95-.96 2.47-2.19 1.07zM78.9 22.85c.34.34 1.9.08 2.03.65.12.51-1.93 1.28-1.54 2.21.45 1.26.79 2.56 1.15 3.85.29 1.03.42 2.97 1.17 3.65.66.6 1.56.51 1.47 1.8-.11 1.68-1.98.99-3.03.67-.66.3-.66 1.23-1.33 1.52-1.29.56-1.65-.8-1.49-1.84s1.08-1.42 1.03-2.41c-.1-1.94-.63-3.12-1.16-4.87-.25-.83.07-2.13-1.09-2.03-.77.07-4.3 1.08-5.16 1.39-.38.14-1.16.46-1.21.86.41 1.2.48 2.48.77 3.7.19.78.58 2.63.87 3.25.47.99 3.06 1.76 1.8 3.53-1 1.41-1.79-.05-2.3.1-.54 1.05-2.35 2.79-3.08.98-.68-1.69.81-2.49.91-3.65.06-.64-.4-2.67-.58-3.39-.34-1.33-1.03-2.54-1.06-3.92l-1.46-.61c-.05-.81 1.03-1.1 1.17-1.75.25-1.12-.78-3.38-1.13-4.48-.19-.61-.15-1.4-.43-1.98-.57-1.18-3.13-1.21-2.28-3.21.44-1.03 2.06-.23 2.67-.41.44-.13.54-.62.86-.87 1.34-1.08 2.7-.15 2.39 1.53-.2 1.11-1.1 1.56-1.03 3.11.03.61 1.04 5.06 1.33 5.25.56.38 1.06-.15 1.6-.28.78-.17 5.01-1.04 5.26-1.45.43-.71-.67-3.67-.9-4.61-.17-.69-.13-1.55-.3-2.11-.4-1.31-3.03-1.25-2.85-3.15s2.63-.27 3.33-.44c.57-1.75 2.85-2.83 2.53-.09-.08.68-.54 1.06-.65 1.58-.32 1.53.56 3.04.94 4.48.14.52.63 3.28.78 3.43zM121.25 23.87c.72.79 2.23.87 2.01 2.36-.29 1.95-2.41.6-3.14.81-.48.14-2.2 2.53-3.09.44-.56-1.3 1.14-2.5 1.09-3.65-.01-.3-1.15-3.9-1.3-4.05-.64-.65-5.26.51-6.13 1.15-.13.2-1 3.5-1.01 3.77-.04.95 2.91 3.17.47 4.24-1.21.53-1.23-.91-1.79-1.06-.43-.11-.92.55-1.28.74-1.32.7-2.49-.83-1.83-2.18s2.26-1.11 2.64-3.21c.1-.57.36-2.72-.1-3.01-.38-.24-.89.08-.82-.66.07-.79 1.74-.57 1.99-1.46.5-2.94 1.51-6.13 1.74-9.09.19-2.35-1.71-1.71-2.4-3.4-1.01-2.5 2.16-1.27 2.83-1.46.1-.03.32-1.22 1.22-1.23.71-.01.94.64 1.39.71.55.08 1.74-.97 2.22.17.69 1.62-1.31 2.85-1.25 3.49l3.85 9.9c.56.88.89.54 1.63.78 1.48.48-.7 1.51-.7 2.07.68.94 1.05 3.02 1.78 3.82zm-8.31-13.36c-.12 1.27-2.11 5.42-1.64 6.36.43.87 3.09-.21 3.94-.02.23-.08.34-.42.37-.64.03-.25-1.53-4.08-1.78-4.61-.1-.21-.55-1.34-.89-1.09zM4.3 12.6c-1.17-.78-1.33.71-1.95.83S.97 13.5.64 12.9C.22 12.13.23 5.15.7 4.56c.16-.21.37-.22.61-.25 2.08-.27 4.47-.09 6.54.01.95.05 3.64-.34 3.98.67v8.43c-.44.6-1.58.74-2.07.17-.39-.45-.31-1.71-1.44-.74l-.37 7.02c.05.53.68.57.93.96.53.8.11 1.42.1 2.14-.02.64.12 1.85-.03 2.37-.39 1.3-4.47.24-5.56.46a.642.642 0 0 1-.57-.46c-.1-.34-.1-3.72 0-4.06.14-.48.81-.48 1.18-.71l.31-7.97zM245.62 68.49c.9-.07 3.84.02 4.63.25 2.74.81 2.54 5.93 2.46 8.2-.06 1.67-.48 6.9-1.3 8.16-1.82 2.81-7.98 2.19-9.41-.9-.88-1.91-.67-7.3-.48-9.49.28-3.11.35-5.92 4.09-6.22zm1.15 4.67c-.65.06-1.15 1.2-1.24 1.77-.2 1.19-.2 5.21.47 6.15.47.66 1.56.85 2.16.26s.65-4.12.59-5.08c-.03-.53-.16-1.99-.37-2.39-.28-.56-1.03-.77-1.62-.72zM18.95 24.86c-.1.65-.44 1.17-1.13 1.28-.88.14-3.18.24-3.48-.8-.42-1.42.36-3.19 1.01-4.43-.25-2.93.29-6.22.11-9.09-.08-1.26-1.3-.47-1.71-1.35-.24-.51-.15-1.99-.14-2.63.03-.89.15-2.23.42-3.02.12-.09 2.58-.34 2.94-.34.9 0 1.33.46 1.45 1.32.13.95-.2 6.15.2 6.42 1.87-.73 3.89-.26 4.12 1.98.19 1.84-.13 4.73.18 6.36.1.54.85.78.99 1.42.1.46.12 3.12 0 3.54-.26.89-3.19.79-3.91.54-1-.34-.62-1.1-.7-1.88l-.34-1.81c-.08.78.11 1.74 0 2.49zm.34-2.83s.03-.28.18-.41c.26-.22.57-.3.75-.63.51-.9.65-6.15-1.21-4.81-.65.47-.91 3.95-.6 4.75.13.35.53.56.53.98-.05.19.31.15.34.12zM185.41 21.68c-.89.37-2.09-.25-2.37.98-.25 1.07-.78 5.81-.72 6.83.05.9 1.79 2.33.76 3.53-1.15 1.33-2.31-.98-2.91-1.02-.78-.04-1.25 1.09-2.26.51-.68-.39-.73-1.15-.4-1.79.39-.76 1.67-1.22 1.89-1.72.37-.86.81-3.95.97-5.05.3-2.05.84-2.8-1.16-4.08.49-.66 1.5-.41 1.85-1.24.09-1.69 1.73-5.54 1.03-6.97-.2-.41-.65-.62-.89-1-.91-1.45-.35-3.57 1.58-2.78.57.23 1.12 1.32 1.36 1.4.81.27 1.1-1.39 2.53-.65.86.45.77 1.63.35 2.37-.39.7-1.76 1.47-2.09 2.21-.39.86-1.16 4.65-1.24 5.65-.1 1.3 1.46 1.57 1.71 2.81zM30.45 11.93c1.15-.14 2.72.74 3.38 1.69.7 1 1.73 5.03.32 5.46-1.23.37-4.93-.82-4.15 1.8.41 1.36 1.35.03 1.82-.18.85-.38 2.3-.42 2.46.72.34 2.49-2.24 5.93-5 4.82-3.68-1.49-3.12-9.63-1.52-12.52.5-.9 1.64-1.67 2.68-1.79zm.87 4.1l-1.35-.02v1.2l1.36-.02c.1-.4.21-.78 0-1.16zM41.04 51.03c.41.58 3.02 1.02 2.45 2.28-.52 1.14-2.02.64-2.67.95-.45.21-1.05 2.54-2.07 2.25-1.68-.47-.84-3.39-.34-4.5L36 46.35c-.45-.76-1.46-.08-1.86-.86l1-1.88-2.16-5.76c-.57-1.07-3.93-.89-3.44-2.93.45-1.89 2.42-.85 3.02-1.11.69-.31 1.08-2.19 2.47-1.78 1.24.37-.1 2.98-.19 3.71-.16 1.37 1.85 5.06 2.29 6.56.4.91 2.13-.12 2.29.8.08.44-.89 1.05-.62 2.34.22 1.07 1.44 3.31 1.94 4.42.15.34.13.9.31 1.15zM275.82 63.14c.26-.47 4.04-.84 4.09.4l-.34 8.07c-.68 2.28-.26 5.34-.9 7.52-.3 1-1.28.76-1.59-.04-.56-1.4-.74-4.16-.97-5.73-.3-2.05-.5-3.1-.49-5.19 0-1.69-.03-3.36.21-5.03zM276.94 81.37c2.86-.51 3.31.66 2.96 3.3-.22 1.65-1.75 1.67-3.18 1.48s-.56-3.11-.73-4.19c.11-.36.61-.53.95-.59z" fill="#fff"/></svg>