<svg xmlns="http://www.w3.org/2000/svg" width="200" height="80" viewBox="0 0 200 80"><g fill="#fff"><path d="M22.92 14.03c0-7.35 0-8.71-.1-10.25-.1-1.64-.48-2.42-2.08-2.76-.39-.1-1.21-.15-1.89-.15-.53 0-.82-.1-.82-.44s.34-.44 1.06-.44c2.56 0 5.61.15 6.97.15 1.98 0 4.79-.15 7.01-.15 6.05 0 7.98 1.84 9.09 2.9 1.06 1.06 2.32 3 2.32 6.34 0 5.95-5.03 10.98-11.9 10.98-.24 0-.77 0-1.02-.05-.24-.05-.58-.1-.58-.44 0-.39.34-.53 1.35-.53 2.71 0 6.48-3.1 6.48-8.03 0-1.6 0-4.79-2.71-7.21-1.74-1.6-3.87-1.89-4.98-1.89-.73 0-1.45.05-1.89.19-.24.1-.39.39-.39.92v19.37c0 4.45 0 8.27.24 10.35.15 1.35.44 2.42 1.89 2.61.68.1 1.74.19 2.47.19.53 0 .77.15.77.39 0 .34-.39.48-.92.48-3.19 0-6.24-.15-7.5-.15-1.11 0-4.16.15-6.09.15-.63 0-.97-.15-.97-.48 0-.24.19-.39.77-.39.73 0 1.31-.1 1.74-.19.97-.19 1.21-1.26 1.4-2.66.24-2.03.24-5.85.24-10.3v-8.51zM52.87 17.37c0-6.29 0-7.21-.1-8.51-.1-1.45-.48-2.08-1.79-2.32-.53-.1-1.11-.15-1.64-.19-.48 0-.73-.15-.73-.44s.29-.44.92-.44c2.18 0 5.13.15 5.95.15 1.31 0 4.74-.15 6.19-.15 2.9 0 5.76.29 7.93 1.69 1.35.87 3.14 2.95 3.14 5.76 0 3.1-1.45 5.85-5.66 9 3.58 4.45 6.58 8.27 9.09 10.84 2.32 2.47 3.92 2.66 4.69 2.85.44.05.77.05 1.11.1.39 0 .58.19.58.39 0 .34-.29.48-.82.48h-4.06c-2.81 0-4.01-.29-5.22-.92-1.69-.92-3.29-2.81-5.51-5.85-1.74-2.42-3.53-4.98-4.16-5.71-.15-.19-.39-.24-.68-.24l-3.43-.1c-.19 0-.34.1-.34.34v.87c0 3.72 0 6.58.19 8.27.1 1.21.39 2.13 1.69 2.27.58.15 1.45.15 2.03.19.39 0 .53.19.53.39 0 .29-.29.48-.82.48-2.56 0-5.95-.15-6.58-.15-.73 0-3.68.15-5.37.15-.53 0-.82-.15-.82-.44 0-.19.19-.44.68-.44.63-.05 1.16-.05 1.55-.15.82-.19 1.11-1.06 1.21-2.32.24-1.69.24-4.79.24-8.61v-7.26zm5.47 3.14c0 .39.1.58.39.68.87.34 2.13.48 3.24.48 1.55 0 2.23-.19 2.95-.73 1.21-.87 2.37-2.66 2.37-5.95 0-5.85-4.01-7.4-6.43-7.4-1.02 0-1.79.05-2.18.19-.24.1-.34.24-.34.58V20.5z"/><path d="M85.18 17.37c0-6.29 0-7.26-.1-8.61s-.53-2.03-1.45-2.23c-.44-.1-.97-.15-1.5-.19-.44 0-.68-.15-.68-.48 0-.24.29-.39.97-.39 1.69 0 4.6.15 5.66.15.97 0 3.82-.15 5.47-.15.58 0 .82.15.82.39 0 .34-.24.48-.68.48-.44.05-.63.05-1.11.15-1.16.19-1.5.92-1.6 2.32-.15 1.31-.15 2.27-.15 8.56v7.26c0 3.87.05 7.01.24 8.76.1 1.11.44 1.98 1.69 2.13.63.15 1.21.15 1.84.19.53 0 .73.24.73.44 0 .29-.34.44-.82.44-2.85 0-5.61-.15-6.63-.15-.82 0-3.72.15-5.42.15-.58 0-.87-.15-.87-.44 0-.19.19-.44.73-.44.58-.05.92-.05 1.31-.15.82-.19 1.21-.92 1.31-2.08.24-1.74.24-4.84.24-8.85v-7.26zM104.15 6.29c0-.92.15-1.5.63-1.5.44 0 .82.48 1.55 1.21.77.68 6.43 6.53 13.35 13.01 3.14 3 8.56 8.51 9.34 9.19l-.39-17.9c-.05-2.47-.39-3.29-1.55-3.72-.63-.19-1.6-.19-2.18-.24-.53 0-.73-.24-.73-.48 0-.34.48-.39 1.06-.39 2.13 0 4.31.15 5.37.15.53 0 2.27-.15 4.31-.15.53 0 .92.1.92.44 0 .24-.19.44-.73.44-.44.05-.77.05-1.21.15-1.26.34-1.64 1.16-1.69 3.48-.19 6.19-.29 16.98-.44 25.59 0 1.11-.24 1.5-.63 1.5-.53 0-1.16-.53-2.08-1.35-2.71-2.47-7.88-7.45-11.9-11.32-4.26-3.97-9-9-10.16-10.21l.44 16.79c.1 3.14.58 4.16 1.45 4.45.73.24 1.55.24 2.27.29.44 0 .73.15.73.39 0 .34-.39.48-.97.48-2.52 0-4.21-.15-5.32-.15-.53 0-2.76.15-4.84.15-.53 0-.92-.05-.92-.44 0-.24.24-.44.68-.44.53-.05 1.26-.05 1.84-.19 1.21-.34 1.4-1.4 1.45-4.98.1-8.71.34-18.82.34-24.24zM145.89 32.65c-4.21-3.53-5.32-8.08-5.32-12.14 0-2.81.92-7.69 5.03-11.32 3.19-2.76 7.3-4.31 13.59-4.31 2.61 0 4.26.15 6.19.44 1.64.24 2.9.53 4.21.68.44.05.63.24.63.48 0 .34-.1.92-.19 2.37-.05 1.35-.05 3.72-.15 4.6-.05.63-.15.97-.53.97-.34 0-.53-.34-.53-.92-.05-1.21-.44-2.66-1.6-3.82-1.4-1.5-4.64-2.56-8.56-2.56-3.53 0-5.9.82-7.74 2.42-2.95 2.66-3.87 6.48-3.87 10.55 0 9.53 7.11 14.46 13.21 14.46 3.77 0 5.9-.39 7.55-2.23.73-.77 1.21-1.94 1.4-2.81.19-.73.34-.87.68-.87.29 0 .44.29.44.63 0 .53-.53 4.21-.97 5.71-.19.73-.39.92-1.11 1.21-1.69.68-4.89.92-7.59.92-5.8 0-10.79-1.11-14.75-4.45zM179.52 17.37c0-6.29 0-7.4-.1-8.76s-.44-1.89-1.74-2.18c-.39-.1-1.06-.1-1.64-.15-.48 0-.73-.15-.73-.44s.29-.39.97-.39c2.03 0 3.97.15 6.09.15 1.31 0 10.16 0 10.93-.05.82-.1 1.55-.19 1.93-.24.24-.05.48-.19.68-.19.24 0 .29.19.29.39 0 .29-.29.87-.39 2.61-.05.77-.1 1.6-.19 2.85 0 .24-.1.68-.48.68-.29 0-.39-.24-.44-.77 0-.19 0-.82-.24-1.35-.29-.77-.68-1.21-2.76-1.45-.82-.1-5.18-.19-6.14-.19-.19 0-.29.15-.29.44v10.01c0 .29.05.44.29.44 1.02 0 5.66 0 6.72-.05 1.21-.1 1.84-.24 2.23-.68.29-.39.48-.53.68-.53s.29.1.29.34c0 .29-.19 1.21-.34 3.19 0 .82-.15 2.56-.15 2.9s-.05.77-.44.77c-.29 0-.44-.44-.44-.68-.05-.39-.05-.63-.15-1.11-.24-.92-.73-1.55-2.42-1.69-.87-.1-4.93-.15-6-.15-.24 0-.29.19-.29.44v3.14c0 1.4-.05 4.79 0 6.05.1 2.85.73 3.48 5.18 3.48 1.11 0 2.9 0 3.97-.48 1.11-.53 1.6-1.35 1.93-3.1.1-.44.19-.68.53-.68s.34.39.34.82c0 1.06-.34 4.02-.58 4.84-.29 1.06-.68 1.06-2.27 1.06-4.21 0-7.84-.24-12.14-.24-1.74 0-3.48.15-5.51.15-.58 0-.87-.15-.87-.44 0-.19.15-.44.73-.44.58-.05 1.11-.05 1.5-.15.87-.19 1.11-1.11 1.26-2.56.19-1.69.19-4.84.19-8.37v-7.26zM35.53 74.32c-4.74-4.16-6-9.58-6-14.27 0-3.29 1.02-9 5.66-13.25 3.48-3.19 8.08-5.13 15.29-5.13 3 0 4.79.19 7.01.48 1.84.24 3.53.68 4.98.82.53.05.58.29.58.58 0 .39-.15.97-.24 2.66-.1 1.6-.05 4.26-.15 5.22-.05.73-.15 1.16-.58 1.16-.39 0-.48-.44-.48-1.11-.05-1.5-.68-3.19-1.89-4.45-1.6-1.69-5.37-3-9.82-3-4.21 0-6.97 1.06-9.09 3-3.53 3.24-4.45 7.84-4.45 12.53 0 11.51 8.76 17.22 15.24 17.22 4.31 0 6.92-.48 8.85-2.71.82-.92 1.45-2.32 1.64-3.19.15-.77.24-.97.63-.97.34 0 .44.34.44.73 0 .58-.58 4.79-1.06 6.43-.24.82-.44 1.06-1.26 1.4-1.93.77-5.61 1.11-8.71 1.11-6.63 0-12.19-1.45-16.59-5.27zM93.43 60.77c.15 0 .29-.1.29-.29v-.87c0-6.24 0-7.3-.1-8.61-.1-1.35-.44-1.89-1.84-2.18-.34-.05-1.06-.1-1.6-.15-.53 0-.77-.19-.77-.48s.29-.39.87-.39c2.37 0 5.22.15 6.29.15.87 0 3.97-.15 5.71-.15.58 0 .82.1.82.39s-.19.48-.73.48c-.44.05-.77.05-1.26.15-1.16.15-1.5.77-1.6 2.18-.1 1.31-.1 2.42-.1 8.71v7.26c0 3.82 0 6.92.24 8.66.1 1.21.39 2.08 1.64 2.27.58.1 1.55.1 2.13.15.48 0 .68.24.68.44 0 .29-.34.44-.82.44-2.81 0-5.8-.15-6.92-.15-.92 0-3.68.15-5.47.15-.63 0-.87-.15-.87-.44 0-.19.15-.44.68-.44.58-.05 1.11-.05 1.5-.15.87-.19 1.11-1.06 1.26-2.32.24-1.69.24-4.74.24-8.51v-3.53c0-.19-.15-.24-.29-.24H77.74c-.15 0-.29.05-.29.24v3.68c0 3.82 0 6.68.24 8.47.1 1.16.44 2.03 1.69 2.18.63.15 1.5.15 2.08.19.48 0 .73.24.73.44 0 .29-.34.44-.87.44-2.71 0-5.8-.15-6.87-.15-.87 0-3.87.15-5.56.15-.48 0-.82-.15-.82-.44 0-.19.15-.44.68-.44.63-.05 1.11-.05 1.5-.15.87-.19 1.16-1.11 1.26-2.32.24-1.69.24-4.79.24-8.61v-7.26c0-6.24 0-7.35-.1-8.66-.1-1.4-.44-1.94-1.89-2.23-.34-.1-.97-.1-1.55-.15-.53 0-.73-.19-.73-.48s.34-.39.87-.39c2.32 0 5.13.15 6.24.15s3.97-.15 5.66-.15c.68 0 .92.15.92.44s-.34.44-.77.44c-.39.05-.92.1-1.26.15-1.16.15-1.5.82-1.6 2.23-.1 1.31-.1 2.52-.1 8.56v.87c0 .19.15.29.29.29H93.4zM116.55 68.7c-.19 0-.29.1-.39.34l-2.13 5.27c-.39 1.02-.63 2.03-.63 2.52 0 1.21 1.5 1.26 2.42 1.26.58 0 .73.19.73.39 0 .34-.34.44-.77.44-1.5 0-3.24-.15-4.74-.15-.48 0-2.9.15-5.13.15-.53 0-.77-.1-.77-.44 0-.24.24-.44.58-.44 3.05-.29 3.72-.87 4.84-3.68l10.26-24.23c.87-2.27 1.35-3.19 1.89-3.19.39 0 .63.44 1.11 1.5.82 2.37 7.98 18.87 10.69 25.06 1.55 3.63 2.76 4.26 3.77 4.45.44.1 1.16.1 1.6.1.53 0 .73.19.73.44 0 .29-.19.44-.82.44-2.03 0-7.11.1-10.16-.1-.44-.05-.73-.15-.73-.39 0-.19.19-.29.44-.39.44-.15.77-.29.48-.87l-3.29-8.17c-.05-.19-.19-.29-.39-.29h-9.58zm8.66-2.42c.24 0 .24-.1.19-.24l-3.77-9.87c-.15-.39-.29-.48-.48 0l-3.82 9.87c-.05.15 0 .24.19.24h7.69zM141.18 63.38c0-7.26 4.84-16.16 17.56-16.16 10.64 0 17.12 6.53 17.12 15.38 0 9.43-6.63 16.83-17.51 16.83-12.14 0-17.17-8.76-17.17-16.06zm28.39.77c0-8.76-5.03-14.75-12.09-14.75-4.74 0-10.06 2.42-10.06 12.58 0 8.42 4.6 15.19 12.63 15.19 2.95 0 9.53-1.21 9.53-13.01zM182.59 78.38c-.68-.29-.82-.58-.82-1.4 0-2.47.15-4.89.19-5.61.05-.68.19-1.06.53-1.06.39 0 .44.34.48.68.05.53.05 1.26.29 1.94.87 3.14 3.53 4.45 6.29 4.45 3.87 0 5.61-2.37 5.61-4.5 0-1.94-.58-3.77-4.16-6.39l-2.03-1.55c-4.79-3.63-6.34-6.39-6.34-9.77 0-4.55 3.92-7.93 9.96-7.93 1.93 0 3.1.24 4.31.44.68.1 1.26.24 1.74.29.39.05.48.24.48.53 0 .68-.19 1.84-.19 5.13 0 .92-.15 1.26-.48 1.26-.29 0-.44-.29-.48-.82-.05-.53-.34-1.69-.97-2.61-.73-1.11-2.08-2.18-4.84-2.18-3.19 0-5.03 1.74-5.03 4.11 0 1.79.87 3.39 4.35 5.76l1.35.92c5.42 3.68 7.16 6.53 7.16 10.45 0 2.52-1.06 5.37-4.16 7.3-2.18 1.31-4.64 1.64-6.87 1.64-2.61 0-4.55-.29-6.39-1.06z"/></g><g fill="#fff"><path d="M0 52.8c0-2.71 1.8-6.03 6.55-6.03 3.97 0 6.39 2.44 6.39 5.74 0 3.52-2.47 6.28-6.53 6.28C1.88 58.79 0 55.52 0 52.8zm10.59.29c0-3.27-1.88-5.5-4.51-5.5-1.77 0-3.75.9-3.75 4.69 0 3.14 1.71 5.67 4.71 5.67 1.1 0 3.56-.45 3.56-4.85zM16.33 51.43c0-2.35 0-2.74-.04-3.23-.04-.52-.16-.78-.67-.87-.13-.04-.38-.05-.61-.07-.14 0-.27-.02-.27-.13s.13-.14.38-.14c.76 0 1.5.05 2.29.05.56 0 3.95 0 4.3-.02.31-.02.52-.02.69-.07.09-.02.16-.09.25-.09.05 0 .11.07.11.14 0 .11-.07.32-.13.72-.02.18-.05 1.03-.07 1.28-.02.14-.05.23-.16.23s-.14-.07-.16-.25c0-.13 0-.36-.09-.58-.13-.23-.43-.43-1.05-.47-.56-.02-1.99-.04-2.47-.05-.09 0-.14.05-.14.2v3.75c0 .11.02.14.11.14.45.02 1.5 0 2.08-.02.92 0 1.16 0 1.37-.29.09-.11.13-.16.22-.16.05 0 .09.05.09.14 0 .11-.07.56-.13 1.03-.04.32-.05 1.05-.05 1.17 0 .14 0 .29-.14.29-.11 0-.14-.11-.14-.23 0-.09-.04-.27-.09-.43-.07-.27-.31-.54-.85-.6-.42-.04-2.04-.05-2.35-.05-.07 0-.11.05-.11.16v1.21c0 1.46 0 2.55.09 3.19.04.45.14.78.63.85.22.04.56.04.78.05.2 0 .29.05.29.13 0 .11-.11.16-.36.16-.97 0-1.84-.05-2.49-.05-.54 0-1.57.05-2.13.05-.22 0-.32-.04-.32-.16 0-.07.05-.13.23-.13.23-.02.43-.02.6-.05.32-.07.42-.42.47-.88.07-.7.07-1.75.07-3.23v-2.71z"/></g></svg>