<svg xmlns="http://www.w3.org/2000/svg" width="250" height="93" viewBox="0 0 250 93"><path d="M60.44 52.16c-.7.14-.88.32-.8.79a.9.9 0 0 0 1.06.66.94.94 0 0 0 .73-1.12 2.62 2.62 0 0 0-.8-1.12 18 18 0 0 0-2.1-1.19c-.37-.21-.75-.42-1.14-.6-3-1.4-2.4-5.62 0-6.92a7 7 0 0 1 6.52-.29 2.89 2.89 0 0 1 1.75 3.17.07.07 0 0 0 0 .05 2.38 2.38 0 0 1-2.68 1.64 2.13 2.13 0 0 1-2.13-2h.09c.36.13.73.22.89-.26.12-.31-.22-.67-.66-.76a1.28 1.28 0 0 0-1.34.54A1.45 1.45 0 0 0 60 46.4a6.85 6.85 0 0 0 1.35.92c.53.29 1.09.49 1.64.73a7.07 7.07 0 0 1 .79.36 4.27 4.27 0 0 1 1 7.06 6.53 6.53 0 0 1-8.27.28 3.13 3.13 0 0 1-1.21-2.64 2.07 2.07 0 0 1 1.4-2 3.56 3.56 0 0 1 3.2.36c.24.15.47.32.71.48zm-6.12-3a37.1 37.1 0 0 1 .44-6.94L49.57 42c.92 3.28.82 9.73-.2 14.35l5.83-.24a31.74 31.74 0 0 1-.88-6.93zm-4.76-10.53a2.77 2.77 0 1 0 2.77-2.77 2.78 2.78 0 0 0-2.77 2.77zM.78 3.78c1.77.16 3.39.35 5 .42a24.87 24.87 0 0 0 3.34-.13c.54 0 .64.18.73.63a73.2 73.2 0 0 0 3.28 12.37c.15.39.3.77.46 1.15h.24c.58-2.37 1.25-4.73 1.7-7.12s.71-4.87 1-7.24l9.23.39a60.28 60.28 0 0 0-.63 13.26A61.62 61.62 0 0 0 27 30.66l-10.72.49a42.47 42.47 0 0 0 1.52-11l-.25-.09-4.26 10.78-4.12-10.71h-.25c.1 1.15.18 2.31.32 3.45s.29 2.42.5 3.62.47 2.33.7 3.42L0 31.16a67.6 67.6 0 0 0 1.68-13.65 75.15 75.15 0 0 0-.9-13.73zm156.64 27l-.18-.83a46.49 46.49 0 0 1-1-13.2 4 4 0 0 1 .7-1.93 1.11 1.11 0 0 1 2.07.34 8.4 8.4 0 0 1 .47 2.74c-.18 3.74-.47 7.49-.73 11.23 0 .34-.07.69-.12 1.14a17 17 0 0 1 7.53-.34v-.53c-.09-4.22-.15-8.44-.28-12.66a3.06 3.06 0 0 1 .74-2.06c.48-.6 1.11-.56 1.43.13a4.88 4.88 0 0 1 .48 1.62 63 63 0 0 1-.53 13.74c-.07.49-.15 1-.21 1.39l8.58-.39v-.62c-.12-2.06-.28-4.13-.34-6.2-.08-2.77 0-5.55-.15-8.31a16.53 16.53 0 0 0-1-4.6 4.45 4.45 0 0 0-4.25-3 5.25 5.25 0 0 0-4 1.68c-.46.44-.86 1-1.39 1.54-.65-2-1.85-3.19-4-3.22s-3.38 1.08-4.79 2.59l.29-1.88-7.88-.3a96.3 96.3 0 0 1-.34 22.26l8.86-.36s.05 0 .04-.02zM106.63 7.23a49.8 49.8 0 0 1 .64 10.84c-.12 4.59-.37 9.16-2.53 13.41a2 2 0 0 0 .31.05c3.48 0 7 .07 10.43 0a13.84 13.84 0 0 0 7.57-2c4.1-2.68 4.27-9.38-.68-11.62-.23-.1-.44-.22-.71-.35.62-.46 1.17-.84 1.69-1.26 3.23-2.67 3.41-9.44-1.84-11.43a11.16 11.16 0 0 0-3.39-.79c-4.2-.14-8.4-.14-12.46-.19a32.24 32.24 0 0 1 .97 3.34zm10.83 17.11c0 .92-.27 1.44-.92 1.58a1.45 1.45 0 0 1-1.65-1.1 8.5 8.5 0 0 1 .18-5.18c1.14 1.41 2.29 2.8 2.39 4.7zm-1.89-13.65c.29-.6.69-1.07 1.45-.86a1.32 1.32 0 0 1 .77 1.67 7.69 7.69 0 0 1-2.87 3.8 9 9 0 0 1 .65-4.61zm134.06-8.07l-7.77-.29a48 48 0 0 1 .79 9.68c-.36-.35-.63-.73-.93-1.07a4.64 4.64 0 0 0-5.49-1.37 7.18 7.18 0 0 0-3.89 3.84c-1.58 3.17-1.75 6.57-1.53 10a13.93 13.93 0 0 0 1.51 6 5.38 5.38 0 0 0 5.73 2.72c1.94-.34 3-1.71 3.87-3.3.26-.48.45-1 .67-1.5l.16.05c-.2 1.32-.39 2.65-.57 3.9H250c-1.61-9.67-1.28-19.19-.37-28.66zm-7.41 19.86a4.86 4.86 0 0 1-.75 1.93 1.27 1.27 0 0 1-2.23-.16 3.22 3.22 0 0 1-.47-1.46c0-2.06.12-4.12.24-6.18a3.57 3.57 0 0 1 .37-1.1 1.23 1.23 0 0 1 1.19-.94 1.41 1.41 0 0 1 1.48.92 9.28 9.28 0 0 1 .36 2c.05.54 0 1.09 0 1.63h.07c-.07 1.15-.08 2.27-.26 3.36zm-95.79-12.4l-7.51-.25.27 2.26a4.18 4.18 0 0 1-.77-.73 5.15 5.15 0 0 0-7.55-.35 10.46 10.46 0 0 0-2.07 3.06c-1.43 3.13-1.49 6.46-1.2 9.83a11.57 11.57 0 0 0 1.87 5.6 5.53 5.53 0 0 0 5.67 2.43 5.32 5.32 0 0 0 3.51-3.17c.31-.58.53-1.2.79-1.8h.12v4.29h7.26a55.42 55.42 0 0 1-.39-21.17zm-7.68 13.26a2.49 2.49 0 0 1-.41.91 1.44 1.44 0 0 1-2.47.08 4.06 4.06 0 0 1-.68-1.55 14.42 14.42 0 0 1 .29-6.53 2 2 0 0 1 1.46-1.65c1.15-.22 2 .46 2.12 1.79.08 1 0 2 0 2.95a28.88 28.88 0 0 1-.31 4zM90.12 12.12c-.21-.25-.42-.51-.64-.75a5.15 5.15 0 0 0-7.55-.37 10.65 10.65 0 0 0-2.08 3.05c-1.42 3.13-1.48 6.47-1.19 9.83a11.35 11.35 0 0 0 1.86 5.61c2.42 3.55 6.91 3.36 9-.37.38-.69.67-1.43 1-2.15h.11v4.29h7.29a43.62 43.62 0 0 1-1.25-10.68 55.85 55.85 0 0 1 .85-10.51L90 9.83l.3 2.23zm-.32 11.24a2.55 2.55 0 0 1-.51 1 1.42 1.42 0 0 1-2.23.1 3.83 3.83 0 0 1-.79-1.57 14.45 14.45 0 0 1 .29-6.76A1.9 1.9 0 0 1 88 14.59a1.72 1.72 0 0 1 2.09 1.74 29 29 0 0 1 0 3 28.45 28.45 0 0 1-.29 4.03zm-42.07 7.91A55.54 55.54 0 0 1 47.36 10h-3.74c-1.24 0-2.51-.16-3.8-.24l.28 2.29a2.48 2.48 0 0 1-.71-.63 5.15 5.15 0 0 0-7.49-.51 9.85 9.85 0 0 0-2.09 2.94c-1.62 3.48-1.66 7.18-1.17 10.89a9.41 9.41 0 0 0 2.56 5.71 4.87 4.87 0 0 0 7.86-.83 19.21 19.21 0 0 0 1-2.08c.11-.22.19-.45.28-.68h.1v4.38zm-8-8.16a2.93 2.93 0 0 1-.44 1.07 1.42 1.42 0 0 1-2.54.08 6.35 6.35 0 0 1-.82-2.77 38.66 38.66 0 0 1 .32-4.79 3.48 3.48 0 0 1 .39-1.09 1.62 1.62 0 0 1 1.81-1 1.59 1.59 0 0 1 1.42 1.35 6.46 6.46 0 0 1 .19 1.38v1.87c.06-.03-.13 2.6-.32 3.9zM193 25.4a8.17 8.17 0 0 0 3.86 5.5c3.33 1.85 9 1.8 11.68-3.42a15.56 15.56 0 0 0 .72-12.87c-1.16-3.15-3.29-5.35-6.83-5.68a8.33 8.33 0 0 0-8.43 4.54c-2.42 3.85-1.38 10.28-1 11.93zm10-1a1.85 1.85 0 0 1-1.72 1.23 1.74 1.74 0 0 1-1.63-1.33 11.87 11.87 0 0 1-.62-2.55 12 12 0 0 1 .6-5.57 5.47 5.47 0 0 1 .55-1.11 1.35 1.35 0 0 1 2.45 0 13.38 13.38 0 0 1 1 3 13.45 13.45 0 0 1 .19 2 8.89 8.89 0 0 1-.82 4.29zm-11.38-9.62V9.17h-4.42a2.53 2.53 0 0 1 1.36-2.65c1.31-.62 2.34 0 3.36 1.05v-1c.07-1.26.08-2.54.22-3.79.19-1.68.23-1.67-1.34-2.21-3.37-1.17-8.69-.2-10 5.3-.24 1-.31 2-.47 3h-2.64v5.93l2.54-.21c-.11 2.87-.14 5.64-.33 8.39s-.53 5.54-.81 8.36a23.68 23.68 0 0 1 8.76 0 88.13 88.13 0 0 1-.75-17.07zM57.85 30.19A47.28 47.28 0 0 1 56.63 19a7 7 0 0 1 1.2-3.88 1.84 1.84 0 0 1 3.52.42c0 .28-.36.79-.69 1a1.17 1.17 0 0 1-1.49-.26c-.13-.14-.25-.3-.38-.47a4.3 4.3 0 0 0 .65 5.76A4.53 4.53 0 0 0 66 20.35a8.2 8.2 0 0 0 .91-7.93 5.54 5.54 0 0 0-9.21-2.08c-.15.14-.31.27-.58.5l.22-1.68-7.5-.32a97.07 97.07 0 0 1-.31 22.28l8.47-.37c-.07-.15-.1-.36-.15-.56zm162.43 0A47.74 47.74 0 0 1 219.06 19a7 7 0 0 1 1.22-3.95 2.11 2.11 0 0 1 2.79-.8 1.27 1.27 0 0 1 .74 1.41 1 1 0 0 1-1.18.88 7 7 0 0 1-1.59-.68 4.45 4.45 0 0 0-.21 4.31 3.79 3.79 0 0 0 3.51 2.2 4.62 4.62 0 0 0 4.4-2.55 8.34 8.34 0 0 0 .26-8.06 5.5 5.5 0 0 0-8.7-1.61c-.23.2-.45.41-.81.75l.24-1.74-7.51-.32a97.43 97.43 0 0 1-.32 22.38c1.47-.12 2.86-.29 4.26-.35s2.79 0 4.23 0c-.04-.26-.06-.48-.11-.7zm-152 .94l8.74-.36a57.1 57.1 0 0 1-.66-21.08l-7.72-.31c1.13 7.23 1.36 14.54-.33 21.73zm.23-26.94a4.19 4.19 0 0 0 8.38.07 4.19 4.19 0 1 0-8.38-.07zM113.44 89.39a73 73 0 0 0-18.84.94 46.9 46.9 0 0 0-2.24-14.07 62.23 62.23 0 0 0-5.81-12.8 108.64 108.64 0 0 0 3.12 25.93 89.46 89.46 0 0 0-20.47.9c-.06-.13-.13-.19-.11-.23 2-5.58 2.51-11.42 2.86-17.27a175.05 175.05 0 0 0-.43-26.11c-.29-3.11-.94-6.18-1.43-9.34a64.4 64.4 0 0 0 18.06.6C90 46.72 92.22 55.32 96 63.45c-.16-8.73-.1-17.46-2.28-26.14A65.85 65.85 0 0 0 112 38a137.66 137.66 0 0 0 1.44 51.39zm3.26-47.81c1.35 7.93 1.27 15.92 1 23.91a57.32 57.32 0 0 0 .71 13.41c1.1 5.63 4 10 9.55 12a23.06 23.06 0 0 0 14.25.4c6.17-1.7 9.58-6.08 11.23-12 1.39-5 1.43-10.16 1.27-15.31a129.06 129.06 0 0 1 1.28-23.32c.13-.88.26-1.77.39-2.72a68.35 68.35 0 0 1-18.7-.62 38.89 38.89 0 0 1 1 4.34c.45 4.13.88 8.27 1.13 12.42a85.37 85.37 0 0 1-.14 16.38 23.43 23.43 0 0 1-1.37 5 2.35 2.35 0 0 1-2.59 1.4 2.14 2.14 0 0 1-1.93-2 35.82 35.82 0 0 1-.74-5 124.31 124.31 0 0 1 1.67-28c.23-1.27.46-2.55.67-3.75-3.37.05-6.64.23-9.91.12s-6.59-.49-9.81-.75c.28 1.34.8 2.69 1.04 4.09zM213 72.16a12.44 12.44 0 0 0-10.18-1.67c-3.86 1-6 3.78-6.16 7.76-.21 4.55 1.9 7.94 5.38 10.57 8.2 6.19 21 5.34 28.24-1.92 4.94-4.94 6.42-10.94 4.62-17.62-1.19-4.41-4.55-7-8.5-8.87-2.85-1.32-5.82-2.4-8.71-3.63a9.61 9.61 0 0 1-5-4.51c-1.38-2.75-.39-5.6 2.26-6.61 1.58-.6 3.67-.2 4.45.85a1.91 1.91 0 0 1 .17 2.45 1.89 1.89 0 0 1-2.24.48 7.2 7.2 0 0 1-1.13-.55 7.51 7.51 0 0 0 2.8 5.86 9.25 9.25 0 0 0 6.76 1.86c5.68-.31 9-4.83 7.69-10.34-1.06-4.35-4-7-8-8.51a25 25 0 0 0-14.24-.94c-7.77 1.54-13.58 6.78-14.16 14.91-.38 5.41 1.22 9.89 6.1 12.8 1.27.75 2.54 1.49 3.83 2.21 2.79 1.53 5.61 3 8.37 4.57a6.48 6.48 0 0 1 3.38 4.49 3.67 3.67 0 0 1-1.92 3.77 3.55 3.55 0 0 1-3.91-.73 2.73 2.73 0 0 1-.53-3.09c.49-1 1.39-1.08 2.35-1l.74.07a6.77 6.77 0 0 0-2.46-2.66zm-30.6-3a118 118 0 0 1 .08-20.67c5.43 4.55 8.9 10.22 12.39 15.9q-.65-13.5-1.3-27.07a144.06 144.06 0 0 1-35.87.71c-.28 9-.56 17.9-.84 26.88 1.86-2.68 3.5-5.28 5.38-7.7s4-4.69 6-7l.29.2c1.36 13.32 0 26.47-2.64 39.69a94 94 0 0 1 19.79-.64 115.47 115.47 0 0 1-3.29-20.26z" fill="#fff"/></svg>