<svg xmlns="http://www.w3.org/2000/svg" viewBox="0 0 300 115"><g fill="#fff"><path d="M157.11 89.61c.46 1.31 1.08 2.4 2.09 3.42l1.43.11c.29-.13.56-.29.81-.5.31-.27.56-.59.83-.9.27-.31.55-.62.8-.95.18-.25.43-.58.43-.9 0-.08.03-.13.07-.17v-.03l1.32-4.99 1.51-10.16.44-4.13.22-2.59c.08-.93.24-2.29 1.51-2.48.61-.09 1.04 1.01 1.07 1.61l.18 3-.03 9.75-.25 5.29c-.12 2.59-.11 5.19.21 7.71.67-.02 1.32-.02 1.66.13.32.14.25 1.08.34 1.42l.79 2.82c.28 1.01 1.12 1.4 2.12 1.25l2.78-.43c.89-.14 1.77-.58 1.79-1.65l.13-11.35c.01-1.22.25-2.3.01-3.54-.19-.99.05-2.12.08-3.14l.24-7.34.2-4.34.24-4.59.23-4.81.41-6 .33-4.32.19-3.22.2-10.64.07-7.94-.2-2.28c-.2-2.3-3.23-.88-3.85-3.74-.42-1.96-1.39-5.27-2.52-5.93-.19-.11-.75.21-.83.44l-.55 1.63-.44 1.92c-.24 1.06-.82 1.86-1.44 2.69-1.12 1.48-1.06 3.47-1.17 5.27l-.19 3.21-.12 8.63-.25 6.2-.21 8.06-.3 2.82c-.13.24-.66.66-.91.7-.3.05-.7-.65-.72-.96l-.21-3.66-.17-4.93-.24-3.65-.18-7-.18-2.99-.54-6.74c-.03-.36-.26-.88-.45-1.11-.9-1.1-2.32.67-3.4 2.01-.8 1-1.96 1.06-2.86.21-.4-.38-1.3-.41-1.79-.11-.43.26-.79 1-.82 1.57l-.14 2.6-.18 11.55-.24 5.72-.21 10.11-.24 5.52-.23 5.94-1.02 12.48-.6 5.42c-.21 1.93 2.19.84 2.96 3.02zM12.16 97.48L8 87.22l-1.64-3.58-2.99-6.69-1.43-3c-.53-1.11-.61-2.48-.53-3.78.18-2.98-1.86-4.8-1.3-7.7l2.34.34c.05-.35.14-1.2.07-1.56L1.27 54.6c-.19-1.02-.77-2.27.02-3.27.92.05 1.92.89 2.42 1.61l.98 1.39c.6.85 1.11 1.78 1.56 2.74l1.41 3.01c.15.32.46.86.73.98.31.14.97 0 1.54-.09l1.27 2.41 3.35 8.16 5.08 11.85c.14.33.71.59 1.08.54l-.13-4.46c-.08-2.57.09-5.1.27-7.69.12-1.74.2-3.24 1.04-4.9.65.2 1.36.52 1.83.97l4.57 4.39L33 76.91c.53.52.77 1 1.61 1.48.26-1.35-.08-2.31-.48-3.52l-.56-1.72-1.39-5.32c-1-3.83-2.4-7.45-3.02-11.4l-.27-1.71-.6-3.87c0-1.32.25-2.67.85-3.9l.04-6.8c1.53-.39 2.45 2.09 3.38 3.98l1.15 2.33c.68 1.36 2.02.5 3.17 2.31 1.86 2.93 2.87 6.06 3.96 9.36 1.78 5.42 3.08 10.8 4.21 16.38l1.76 7.16 1.25 4.99 2.07 10.11-.14 1.14c-.08.69-2.41.04-3.65 1.29-.31.31-.72.7-1.01.77-.33.08-1-.33-1.24-.6l-2.44-2.75-2.3.98c-2.35-2.47-3.02-6.57-5.74-5.56-1.09.4-2.04.13-2.75-.83l-1.76-2.36c-.22-.3-.66-.57-1.02-.52l-.11 6.3c-.02 1.34-.27 2.92-1.05 3.97s-1.41 1.92-1.13 3.27l1.05 5.06.28 2.73c.16 1.55.6 3.42.04 4.84-.32.82-1.45-.15-1.8-.53l-2.61-2.94c-.19-.21-.74-.49-1.01-.53-.57-.08-1.47 1.98-1.86 1.18l-1.74-3.59c-.28-.58-.89-1.03-1.48-1.31-.35-.17-.58-.89-.78-1.27-1.38-2.67-2.58-5.22-3.7-8zM65.73 75.99l6.02-1.8 6.58-2.17c.28-.09 1.04 0 1.22.19.64.73-.32 2.35.35 3.6l.91.73c.23.18.18.91.08 1.23-.8 2.56 2.5 2.69 3.74 5.03.8 1.5.12 2.89-1.27 3.47l-1.79.75c-3.08 1.29-8.37.68-11.73 2.23-2.81 1.3-8.6 4.24-9.63 6.18-.74 1.4-1.76 2.73-3.47 2.88-.6-.16-1.27-1.22-1.52-1.93-1.67-4.82-3-9.61-4.16-14.58l-1.4-5.96c-1.46-6.21-2.52-12.41-4.4-18.48-.41-1.31-1.19-2.29-2.54-2.55-.97-1.81-1.39-3.59-1.14-5.72.43-.31.98-.62 1.52-.8l12.65-4.1 2.78-.86 6.91-2.01 5.18-1.22c.26-.06.84.06 1.03.12s.35.69.24.86c-.48.76-1.53 1.25-2.31 1.63l-2.33 1.13c-.16.08-.41.37-.45.54s.55.38.77.34l2.34-.37c2.15-.34 4.07-.72 6.29-.51 1.04 1.92 1.3 3.93 1.17 6.26l-8.42 2.71-8.15 2.64-3.04 1.01c-.15.05-.39.39-.37.52s.44.41.57.39l2.9-.59 4.88-.7 6.61-.99c.71-.11 1.4.63 1.33 1.32-.27 2.49 2.77 2.11 2.82 3.81.02.66-.43 1.52-1.03 1.88L72.33 64l-5.55 2.94-5.18 2.89c-.91.51-1.97 1.37-1.71 2.68.32 1.64.93 3 1.66 4.69l4.16-1.18z"/><path d="M96.89 93.41c.2 2.01-.35 3.24-1.03 4.89-1.03 2.5-.02 5.34-3.13 6.53-.4.15-1.3.27-1.79.17-1.52-.3-1.79-6.41-1.92-9.31-.05-1.15-1.77-.27-1.95-1.69l-.23-1.83-.15-14.31-.23-4.84-.25-2.97-.21-4.62-1.03-7.22-.65-3.24c-1.94-.5-4.08.29-6.09-.64-.87-.4-1.2-2.27-.68-2.96l1.59-2.13c.68-.92 1.02-1.57.46-2.75-.49-1.03 1.6-3.05 2.98-3.7 2.13-1.01 4.35-1.43 6.59-2.15l3.3-1.07 2.8-.89c2.96-.94 6.85-1.41 9.5 0-.12 2-1.38 3.34.34 5.17l2.4 2.55c1.56 2.27 1.96 4.78 2.09 7.45s-.71 5.15-2.03 7.53c-1.54 2.77-3.58 2.01-2.17 5.3l4.39 10.31 2.22 4.42c.95 1.89 1.89 3.6 2.41 5.73-1 1.9-2.86.43-3.87 1.23s-.22 3.33-1.21 3.32c-.71 0-.83-.67-1.79-.92-.25-.07-.7.43-.8.69l-.78 1.98c-.11.28-.95-.08-1.08-.34-1.83-3.75-3.32-7.41-4.77-11.29-.71-1.91-1.51-3.53-2.66-5.55l-.25 7.5-.16 6.99-.17 2.61zM93.5 55.16l1.87-2.11c1.2-1.36 2.6-2.69 2.59-4.68 0-1.38-1.79-2.28-3.11-1.76l-3.28 1.31 1.05 5.7c.11.59.31 1.09.89 1.53zM273.31 63.53c.77 0 1.91.48 2.25.97.48.7.9 1.05 1.75 1.11 1.55.11 3.19.32 4.35 1.32s1.71 3.05.77 4.26c-.87 1.12-2.48 1.54-3.66 2.29-1.73 1.1-1.29 3.94-5.27 3.93l-8.46-.02-7.95-.12-2.25 1.9c-.51.43-1.16.69-1.85.68l-1.79-.03-2.09 2.14c-.7.72-2.46.96-2.97-.1-.77-1.59-.01-2.59.01-4.22.03-2.25 2.36-5.19 2.92-7.76.62-2.82.64-6.25.08-9.04-.23-1.13-.39-2.05-.25-3.11l.52-3.9.52-4.06.68-5.95.21-3.92.14-10.42c.02-1.18.83-2.11 1.85-2.34 2.82-.65 5.53-1 8.42-1.11l3.44-.13 5.84-.34 7.87-.13 1.67 1.17-2.34 3.19c.45.53 1.01 1.02 1.53 1.26l3.17 1.47c.35.16.75.43.9.68.56.95-1.5 2.2-3.17 2.46l-8.34 1.28-8.89 1.2c-1.25.17-1.88.98-1.94 2.26-.05 1.03-.09 2.19.67 3.04.5.55 1.58.59 2.32.61l4.15.13 4.37.24c1.24.07 2.52.57 2.76 1.93l-.7 1.88c-.71 1.89 2.41 3.48 2.35 5.35-2.1 1.27-4.17 1.43-6.49 1.55l-3.89.2-5.97.42c-.33.02-.82.09-1.03.18s-.36.66-.36.9l-.05 2.57.05 2.55c.01.72.19 1.33.46 2.09l4.61-.23 2.78-.21 6.3-.07z"/><path d="M212.24 89.39c-.16-.26-.09-1.06.13-1.27l2.04-1.87 8.17-5.17 2.18-1.31 2.39-1.68 2.2-1.73c1.24-.98 2.19-2.22 3.17-3.49s1.83-3.04 1.55-4.71c-.13-.76-.62-1.77 0-2.4l2.83-2.9c1.87-1.92-.91-7.08-3.08-8.82l-1.92-1.54-4.36-3.52c-.69-.48-1.02-1.08-1.07-1.93l-.02-1.58c-.17-3.01-.77-4.97-3.46-6.37.38-2.39 1.42-4.01 3.29-5.46l1.81-1.41 2.73-1.65c2.83-1.71 5.9-2.69 9.09-3.54 1.08-.29 1.98-.52 3.18-.43l.09 4.3c1.47 1.79 4.72 1.96 4.61 3.79-.05.94-.69 1.18-1.46 1.55l-2.59 1.28c-1.93.95-3.68 2-5.33 3.43-.87.76-1.67 2.44-.71 3.43l4.76 4.89 1.66 1.95 1.78 3.06c1.87 4.37 3.27 9.95 2.2 14.51-.74 3.11-2.42 6.09-4.67 8.35l-6.05 6.08-6.78 5.15-3.68 2.53-1.22.63c-4.19 2.15-8.25 4.45-12.91 5.67-1.47-.4-2.03-2.7-1.18-3.89.93-1.31 1.98-2.11 3.12-3.15l.56-.52c.16-.14-.04-.75-.25-.91l-2.79.64zM188.32 82.26c-3.51-1.94-5.89-4.68-7.51-8.42l.09-3.93.22-5.1.46-8.21.19-3.8.53-5.89c.14-1.52 1.2-2.84 2.02-4.01 1.64-2.37 3.43-4.35 5.5-6.25 2.33-2.13 4.78-3.53 8.08-3.27 1.84.15 3.51.7 4.77 2.22 2.13 2.58 2.49 6.23 1.74 9.58-.44 1.95-.41 4.4.07 6.31 1.53 6.19 2.12 11.5 2 17.9-.04 2.28-.24 4.44-1.49 6.37l-2.03 2.75c-2.88 2.85-6.22 4.56-10.23 5.04-1.57.19-3.07-.55-4.41-1.3zm5.77-13.56l1.02-5.84.2-2.33.18-5.3c.04-1.3.25-2.3 1.34-3.14.38-.3.34-1.27 0-1.67l-2.44-2.92c-.3-.36-.97-.77-1.44-.74-.4.03-.97.51-1.35.83l-2.52 2.11c-.89.75-1.68 1.67-1.99 2.86-.17.66.64 1.3 1.32 1.54l.16 9.57.81 6.53c.09.76 1.13 2.19 2.41 2.14.37-.02 1.04-.43 1.19-.82l1.11-2.81zM129.59 64.13l5.19.26c.57.03 1.22.3 1.64.6.38.28.61 1.4.24 1.77-2.05 2.09-4.06 1.43-4.68 2.69-.53 1.09.85 1.91 1.7 2.24l3.85 1.49c.29.11.71.71.71 1.02-.03 1.87-4.23 1.85-6.48 1.94l-3.66.15-5.27.27-3.46.21-5.24.04c-1.58.01-2.46-1.19-2.29-2.75.09-.85-.3-1.35-.91-1.87-.9-.76-.51-2.31.29-3.04 1.05-.97 1.22-1.9 1.28-3.35l.16-3.87.15-4.82.22-4.14.22-4.36.24-4.11.2-2.54.21-5.28c.03-.87.14-1.61.76-2.08 1.44-1.11 3.11.48 6.09.48l18.57.02 2.69.53c1.85.37.37 2.11.88 4.11l3.48 1.83c.34.18.61 1.08.6 1.43-.07 1.55-2.83 1.87-5.07 2.06l-4.39.36-3.2.17-9.9.1-3.65.54c-.19.03-.5.52-.49.7.01.22.44.53.69.55l2.1.14 8.63.12c.49 0 1.32.37 1.7.69v7.31c0 .54-.33 1.47-.49 1.96l-3.07.42c-1.67.23-3.58.14-5.07.82-1.29.59-1.85 1.92-1.63 2.98.31 1.46 1.42 2.04 2.92 2.09l3.54.12z"/><path d="M224.8 43.21c.52 3.35.26 6.71-.17 10.01l-.84 6.37-2.59 11.86c-.65 2.95-2.37 5.54-4.56 7.57-2.81 2.61-8.29 1.02-10.94-2.24.93-1.64 1.76-3.34 1.76-5.29v-9.04l-2.18-14.08.8-5.96c.04-2.31-.8-4.51-1.94-6.45-.25-1.87.03-3.72.96-5.25.96-.64 2.27-1.16 3.09-.07 1.09 1.46.59 3.77 1.89 3.25l.46-2.69c.12-.69.69-1.57 1.39-1.81 1.79-.6 2.96 2.75 2.78 5.47l-.2 2.99-.23 3.21-.43 4.14-.77 7.08-.39 4.89-.12 5.02c-.05 2.23.45 4.43 1.46 3.87.2-.11.62-.46.68-.72l.88-3.4.9-4.89 1.84-10.74 1.05-3.49c.3-.99.89-1.89 1.89-2.03 1.68-.24 3.26.56 3.55 2.43zM291 56.51c1.99 2.96.16 7.82-3 9.69-.57.34-1.72-.2-2.11-.59-1.67-1.68-1.03-7 2.44-9.66.92-.7 2.07-.34 2.67.56zM289.77 7.92c.65-.53 3.57.23 3.98-.82s.65-6.89 2.27-6.89.96 4.3 1.78 4.46 2.28-.41 2.2 1.22-.49 15.99-1.79 23.54c-1.3 7.55-2.27 22.64-4.95 22.32s-2.27-3.25-3.49-3.25-2.03 3.09-3.73 3.25-.49-6.42 0-9.91 2.35-32.79 3.73-33.92zM140.42 52.51c1.19-.63 11.4-.91 12.96.85s-.33 2.8-.33 3.58.59 2.87-2.02 3-15.11 1.03-15.3-.4.49-2.28 2.67-2.66c.92-.16 3.06-1.37 2.34-2.34s-1.43-1.43-.33-2.02z"/></g></svg>