<svg xmlns="http://www.w3.org/2000/svg" viewBox="0 0 250 148"><path d="M146.42 27.53c3.5.08 6.91-.69 8.3 2.92.39 1.02.92 2.57-.17 3.59-1.93-1.67-5.32-1.62-8.05-1.41-.99.08-3.68.2-4.34.89s-3.01 5.3-3.57 6.42c-4.46 8.91-11.63 28.22-9.85 36.76.38 1.83 1.14 3.45 3.33 3.12.03.28-.79.74-.97.81-2.16.9-3.77.78-5.46-.18-5.15-2.92-3.64-10.93-2.32-16.73-4.98 7.3-9.76 15.02-18.53 11.9-1.77-.63-4.12-1.9-3.82-4.24-2.99 3.35-4.42 6.83-9.08 7.24-1.38.12-4.47-.51-4.9-1.83-1.11-3.36 1.71-10.8 2.56-14.63-4.12 4.84-7.44 10.67-10.4 16.21-.59 1.1-2.18 5.03-2.95 5.45-1.44.78-5.08.67-5.67-.7-.42-.97 1.26-4.68 1.28-6.02-3 3.71-6.7 10.49-11.74 8.76-4.15-1.42-2.29-5.95-1.62-9.8-2.51 3.07-4.27 6.74-6.67 9.91-.47.62-2.38 3.04-2.86 3.33-2.59 1.6-7.86.27-7.69-2.87.32-6.13 6.95-20.53 12.14-24.92 3.66-3.1 6-.97 9.1.04 1.32-1.07 2.78-4.52 4.18-5.14 1.75-.77 5.56.68 5.07 2.75-2.15 4.34-4.61 8.96-6.04 13.47-.62 1.96-1.67 4.85-.76 6.43 1.47-.07 4.77-5.13 5.64-6.47 3.22-4.97 5.81-10.26 8.42-15.46 1.18-2.36 1.5-3.66 4.39-3.37.76.08 2.65.96 2.78 1.74.31 1.8-3.9 8.02-4.37 10.26 2.3-2.9 8.23-12.01 11.55-12.9 1.95-.52 5.67.76 5.41 3.04-1.58 4.36-3.62 8.8-4.82 13.21-.46 1.68-1.05 3.56-.85 5.16 3.64-3.35 7.32-8.03 9.55-12.39 1.43-2.8 2.32-5.68 3.93-8.56 2.32-4.15 7.15-11.57 11.79-8.46.19-.06 1.4-2.47 1.83-2.91 2-2.02 6.66.92 6.21 2.68-.13.5-2.38 3.2-2.92 4.03-1.54 2.38-2.98 5.28-3.52 7.91-.27 1.33.52 1.94-1.49 2-5.51.18-3.4-6.21-1.69-9.96-.25-.2-1.02.85-1.22 1.1-2.7 3.38-5.8 12.2-6.28 16.17-1.21 9.98 6.13 2.43 9.33-1.89 2.74-3.7 6.72-10.05 8.97-14.05 1.02-1.81 1.74-4.48 2.6-6.45 1.15-2.62 2.37-5.24 3.61-7.84-1.85.25-4.28 1.25-5.89 2.58-.33.28-.32 1.03-.99.92-7.1-6.21 5.48-8.48 10.23-10.33 1.23-1.37 4.36-7.26 5.77-7.83 2.21-.9 6.13 1.04 5.41 3.52-.15.52-2.16 2.69-1.89 3zM48.76 82c1.52-1.58 2.84-3.36 4.12-5.13 1.35-1.86 5.4-7.52 6.1-9.28.45-1.13.32-2.43-.5-3.08-.41-.14-.71.13-1.06.39-2.41 1.81-6.5 10.09-7.56 12.98-.49 1.33-1.14 2.78-1.1 4.11zm30.29 13.9c-.82-10.92-10.7-7.86-17.6-.99-7.01 6.97-15.08 23.78-15.2 32.71-.06 4.53 2.73 7.56 7.41 6.79 2.3-.38 5.22-1.69 6.2-4.24-7.93 5-6.61-5.13-5.51-10.04 1.51-6.74 7.37-20.67 13.12-25.35 5.75-4.68 5.73 1.12 5.24 5.33-1.59 13.89-8.79 29.9-13.29 43.67-.41 3.52 6.21 5.06 7.85 2.51 4.52-13 9.48-26 16.28-38.39.29.1.06.7 0 .98-.92 4.6-2.34 9.3-3.21 13.97s-3.42 11.97 2.99 11.27c3.39-.37 2.66-1.09 3.62-3.65 2.77-7.38 6.93-16.02 10.68-23.14.16-.3.25-.72.61-.85-1.81 6.36-3.55 12.77-4.78 19.16-.96 4.96-2.5 11.86-.81 16.11 1.96 4.92 7.5 5.42 12.15 1.17h-2.89c-3.68-1.29-2.67-9.47-2.17-13.07 1.81-12.94 7.7-29.69 13.11-42.34 1.15-2.68 2.65-3.51-.19-5.16-1.09-.63-2.85-1.27-4.28-.54-1.05.54-4.34 6.25-5.13 7.61-5.45 9.36-10.07 19.17-14.72 28.82-.44.15-.21-.47-.17-.74.66-5.16 3.22-13.35 5.17-18.5.44-1.15 2.67-5.75 2.72-6.32.19-2.03-4.74-4.5-6.59-3.02-.97.77-4.38 7.24-5.2 8.77l-9.03 18c1.67-6.59 4.12-14.1 3.64-20.54zm130.29-29.59c-.72 2.22-3.58 2.11-5.11 1.7-3.72-1-5-5.01-4.31-8.98 1.1-6.3 4.36-13.37 6.08-19.72 1.48-5.44 2.7-10.64-3.35-11.84-.61.94-.25 1.93-.36 2.86-.99 8.05-6.36 22.06-12.5 28.5-2.83 2.97-4.6 3.35-7.99 2.63-5.82-1.25-5.35-5.18-4.05-10.99-2.64 3.34-4.57 7.13-7.16 10.5-.44.57-2.88 3.62-3.21 3.78-2.23 1.13-6.7.27-7.36-2.02-2.86 3.28-4.37 5.73-8.24 3.8-1.9-.94-2.81-2.77-2.56-5.14-1.13 1.57-1.97 3.28-3.05 4.88-2.57 3.81-4.25 6.61-8.9 5.95-4.3-.61-3.36-3.93-2.63-7.74.85-4.41 2.69-10.37 4.45-14.69.56-1.37 1.84-4.71 3.19-5.27 1.14-.48 4.5-.05 4.63 1.23-1.47 3.94-3.11 7.86-4.38 11.83-.88 2.74-2 5.88-2.06 8.57 5.9-8.29 9.77-17.62 13.97-26.62 1.43-2.48 6.52-1.19 6.02 1.33-2.06 6.19-5.15 13.95-5.53 20.16-.02.35-.23 1.85.36 1.5 1.39-.84 4.1-5.43 4.99-7 3.4-6 6.39-14.36 11.78-19.13 3.98-3.52 6.04-.96 9.59-.1.51-1.43 2.03-4.4 3.55-4.87s4.73.9 4.73 2.51c0 .79-3.41 7.57-4.01 9.23-1.11 3.05-2.44 7.77-2.3 10.75.27 5.86 5.47-2.32 6.69-4.38 3.12-5.27 8.33-17.46 5.63-22.17-1.26-2.19-3.97-1.19-2.19-4.96.68-1.43 3.09-4.51 4.67-4.36.94.09 1.88 2.05 2.56 2.73 3.46 3.44 11.24 2.57 12.66 8.44 1.74 7.17-6.32 22.68-6.97 31.74-.16 2.25-.44 6 2.67 5.37zm-42.03-9.02c1.6-1.74 3.01-3.73 4.36-5.66 1.05-1.5 5.88-8.65 6.07-9.79.16-.98.13-3.17-1.27-2.47-.94.47-4 5.38-4.65 6.55-1.94 3.51-3.78 7.63-4.51 11.37zm-5.42 49.99c3.05-4.46 5.49-9.31 8.62-13.72 2.51-3.54 4.95-7.29 9.19-6.03 2.23.66 2.87 1.95 2.05 4.44-1.31 3.97-3.35 8.04-4.63 12.13-.77 2.48-1.63 5.1-1.63 7.57 3.27-2.5 5.97-6.57 7.97-10.11 1.02-1.8 1.77-3.82 2.77-5.59.49-.87 1.46-2.87 2.46-3.06 4.26-.79-.01 7.05-.95 8.85-1.89 3.66-7.33 12.91-11.18 14.26-2.19.77-6.89.51-7.52-1.77-1-3.63 2.12-11.44 3.11-15.52.06-.26.37-.84.06-.93-5.83 7.49-10 16.16-14.04 24.51-1.35 1.67-7.12 1.32-6.75-1.28 1.65-6.21 4.1-12.5 5.53-18.72.5-2.19 1.61-6.39.52-8.01-1.75-2.62-7.46.4-9.92 2.2l2.79 1.58c3.7 3.56.31 13.95-2.02 19.03-2.92 6.36-5.65 10.38-12.68 10.42-4.28.02-6.88-2.45-6.55-6.99-1.78.53-3.5.51-5.2.42-1.75 3.42-4.29 9.91-8.15 11.53-3.28 1.38-9.08-.04-10.5-2.83-2.35-4.63 1.88-15.59 6.47-19.72-.95-5.45.1-8.43 6.32-9.12 6.77-.75 8.6 4.49 8.14 10.51-.08 1.09-1.21 5.7-.86 6.14.07.09.2.09.3.13.45.18 3.58-.14 3.85-.53.84-2.83 1.55-5.74 2.75-8.51.33-.76 1.62-3.47 2.13-3.9 1.67-1.4 5.84.07 5.95 1.74.06.88-2.44 5.51-2.98 6.9-1 2.59-2.2 6.15-1.88 8.67.4 3.13 2.63.83 3.99-.95 3.28-4.29 7.93-15.46 5.83-19.68-1.5-3.01-4.82 1.27-6.8 1.69-2.46.52-6.04-2.76-3.12-5.37 5.14-4.58 15.47-8.56 21.34-7.73 9.1 1.29 8.56 8.97 5.22 17.33zm-43 7.2c.91-1.08 1.01-3.47.98-4.71-.04-1.36-.33-3.86-1.22-4.7-1.63 3.51-.64 6.38.24 9.41zm-7.77 14.99c.4.37 3.38-3.19 3.74-3.73.7-1.03 2.99-5.42 3.01-6.37 0-.54-1.53-1.15-2.02-1.58-.72-.64-1.26-1.58-1.94-2.26-1.97 4.4-3.29 9.6-2.79 13.93zM41.59 41.8c-4.44-5.93-11.93-2.47-17.93 2.41S8.08 60.85 9.22 68.4c1.01 6.7 14.71 5.35 19.59 8.29 6.79 4.09-1.97 13.15-6.8 17.17-4.27 3.56-16.79 12.24-16.26 2.5.16-3.01 2.32-7.61 4.14-10.33.57-.85 2.83-2.72 1.55-3.35-1.37-.68-3.09 1.93-3.98 3.14-4.8 6.52-13.4 23.69-1.28 23.37 14.74-.39 48.45-28.96 26.22-37.33-3.1-1.17-6.51-1.46-9.73-2.29-2.71-.7-6-1.22-5.44-4.94.83-5.53 12.72-18.92 17.79-21.68 1.23-.67 2.46-1.41 3.04-.02 1.66 3.99-3.5 14.12-3.88 19.02-.29 3.82 2.3 6.79 6.32 5.21.4-.33-.28-1.9-.26-2.61.19-5.51 6.82-18.33 10.16-23.57 1.38-2.17 2.96-4.14 4.43-6.24-.21-2.41-4.86-4.31-7.12-3.15-1.57.8-4.97 8.46-6.12 10.22zm201.92-25.12c.98.87.48 2.01.25 3.3-.84 4.78-2.83 9.57-3.81 14.35l8.92-7.68c2.41.16.39 3.78-.93 5.11-3.21 3.25-8.25 6.52-11.01 10.27-1.44 1.95-3.22 6.87-4.48 9.34-2.46 4.85-10.06 18.49-15.3 20.02-3.09.9-7.45-1.08-7.08-4.6.33-3.15 6.61-10.42 8.97-13.1 2.62-2.96 8.97-8.65 10.69-11.49.65-1.07 2.99-7.31 3.16-8.43.04-.29.04-.53-.25-.19-.62.71-1.48 2.55-2.08 3.46-1.68 2.53-3.89 5.71-5.93 7.96-2.79 3.08-4.76 4.68-8.25 2.95-1.59-.79-2.14-1.63-1.9-3.64.49-4.07 4.1-12.72 6.39-16.56 1.68-2.81 2.47-4.21 5.7-3.3 3.69 1.04.93 3.34-.45 5.97-.94 1.8-2.02 3.98-2.76 5.83-.68 1.69-1.54 3.64-1.41 5.31.29.23 1.56-1.11 1.86-1.45 3.29-3.71 7.48-11.54 10.05-16 .95-1.65 3.24-6.51 4.24-7.58 1.29-1.37 4.38-.73 5.38.16zM217.27 64.3c1.22-1.44 2.43-3.31 3.58-4.83l3.06-5.23c-1.78 2.09-3.7 4.16-5.35 6.35-.53.7-4.26 5.92-3.88 6.29.87-.68 1.87-1.73 2.58-2.57z" fill="#fff"/><path d="M139.66 6.65c.18.99-.86.68-1.4 1.12l-2.58 3.01c.82 1.14 1.6 2.29 3.13 2.42l-.11.64c-.92-.05-1.94.09-2.85 0-1.14-.1-1.39-.7-2.04-1.5-.69.45-1.34 1.02-2.1 1.33-3.02 1.25-6.53-.27-5.14-3.94.6-1.58 1.69-1.77 2.99-2.6-3.39-3.42.77-6.68 4.5-5.67 1.79.48 2.35 1.71 1.66 3.43-.53 1.32-2.04 1.57-3.14 2.23L135 9.96c.68-.6 1.15-1.4 1.45-2.25l-1.4-.38v-.7h4.63zm-7.46-4.38c-.81.17-1.47 1.17-1.46 1.96 0 .44.83 2.08 1.21 2.09.28 0 1.01-.74 1.18-.97.75-1.06.82-3.45-.94-3.08zm-2.02 5.56c-1.98 1.56-1.86 5.3 1.41 4.57.3-.07 1.52-.54 1.49-.85-.02-.22-2.43-3.03-2.79-3.46a.436.436 0 0 1-.11-.27zM91.97 1.61c1.22.15 2.46 1.06 2.63 2.32.29 2.18-1.44 3.69-3.44 4.07l2.43 4.45c.36.57 1.05.61 1.65.77v.46c-.04.14-.14.15-.26.18-.48.09-2.16.05-2.7 0-.85-.07-.99-.3-1.4-.97-.81-1.35-1.3-2.96-2.21-4.24l-.8-.27-1 4.13c-.11.59 1.37.56 1.49.7l-.1.64h-5.71c-.13-1.16 1.55-.47 1.77-1.51.43-2.97 1.74-6.28 2.08-9.21.14-1.21-1.6-.37-1.38-1.53h6.95zm-3.93 5.9h1.56c1.06 0 2.13-1.52 2.21-2.52.16-1.96-1.01-2.54-2.8-2.42l-.97 4.94zm13.43 5.38l-.06-.22c-.13-.13-2.1.86-2.04-.57l1.5-7.05-3.98.65c-.27.89.96.47 1.15 1.24-.22 1.66-.99 3.51-1.14 5.15-.18 1.99 1.61 2.06 3.13 1.73.41-.09 1.15-.48 1.5-.61l-.06-.32zm8.66-5.06l.54-2.57c-1.89-.27-4-.71-5.74.34-1.86 1.11-1.81 3.31.04 4.43.6.36 2.44.85 2.63 1.45.66 2.06-3.33 1.85-3.78.55-.07-.2-.1-1.05-.22-1.08l-.75.11-.34 1.84s-.09.57-.11.58c.03.04.09.12.15.15 1.13.55 3.94.57 5.15.23 2.3-.64 3.33-3.17 1.09-4.61-.8-.51-4.06-1.4-2.54-2.85 1.05-1 3.47-.26 3.02 1.45h.86zM60.9 13.84c.08-2.23.85-4.36 1.24-6.55.3-.79 2.08-1.26 2.52-.47.64 1.14-1 4.51-.74 6.1.24 1.42 3.1 1.14 4.01.57.37-.23.31-.4.3-.83-.2-.21-2.03 1.15-1.8-.99.2-1.88 2.35-6.23-.65-6.71-1.33-.21-2.46.34-3.37 1.26l1.13-5.8c-1.13.24-2.46.34-3.55.65-.28.08-.39.27-.22.54.15.25 1.1.22 1.03.8l-2.48 11.44h2.58zm60.75 7.19c.28-.18 1.03-.14 1.38-.11.42.05 1.24.42 1.53.42.16 0 .17-.06.24-.18.09-.16.68-1.79.62-1.86-3.16-1.2-6.63 1.6-7.07 4.72l-1.49.02-.23.96h1.51l-2.15 9.69c-.62.75-3.13-.38-3.34-.24-.02.41-.87 1.83-.55 2.08.68.54 2.65.17 3.41-.14 2.08-.83 3.25-2.65 3.75-4.74s.78-4.46 1.24-6.65l2.19-.02.28-.95h-2.26c.19-.58.47-2.7.93-3zm-52.74-.66c-.02.21-.22.44 0 .59l1.28.39c.08.41-.06.79-.13 1.19-.51 2.88-1.39 5.8-1.96 8.68-.35.81-1.75.35-1.78 1.39h5.76c.65-.9-.56-.66-1.1-.94-.17-.09-.28-.2-.31-.4l1.02-4.41 2.74.05.33 1.63.53.09 1.14-4.6c-.95-.42-1.38 1.82-1.99 1.82h-2.53l.98-4.5 3.97.04c.34.17.35 1.6.48 1.99l.64.11.72-3.12h-9.8zM48.4 1.61l-.75 3.22c.19-.01.41.04.59 0 .4-.07 1.11-1.96 1.62-2.26h2.53l-2.26 10.14c-.65.5-1.75.11-1.83 1.13h5.98l.16-.64c-.53-.14-1.65-.05-1.6-.8l2.15-9.83 2.59.05.41 2.14.59.07.82-3.23H48.41zm38.55 29.82l-.02.73c-1.27.58-3.98 1.2-4.29-.73-1.54 1.99-5.2 1.87-4.95-1.23.21-2.63 3.58-3.26 5.7-2.85.27-.69.36-2.14-.52-2.41-1.41-.43-3.35 1.45-3.83 1.35-.19-.12-.11-.16-.1-.3.02-.23.32-1.51.42-1.63 1.55-.75 5.83-1.23 6.57.75.5 1.36-.61 3.86-.77 5.34s.64 1.28 1.8.99zm-3.77-3.22c-1.54-.06-3.07.37-2.91 2.21.09 1.13 1.14 1.16 1.94.63s.78-1.98.98-2.84zm26.89-4.48c6.88-.76 4.95 9.77-1.31 9.08-5.11-.56-3.39-8.57 1.31-9.08zm.1.96c-.96.22-1.59 2.23-1.75 3.09-.18.97-.54 3.88.87 4.08 1.27.18 1.87-1.38 2.14-2.36.34-1.19 1.03-5.34-1.27-4.81zm9.25-12.99c.07.84-.48 1.15-1.11 1.52-2.12 1.25-5.55 1.27-6.37-1.52-.93-3.17 1.57-6.55 4.84-6.77.94-.06 2.78.22 2.96 1.35.38 2.43-2.15 3.34-4.14 3.38-.9.02-1.43-.56-1.35.69.17 2.54 2.1 2.5 4.04 1.78.37-.14.67-.52 1.13-.43zm-4.95-2.9c1.08.08 2.71-.15 2.9-1.46.1-.7-.04-1.49-.9-1.45-1.06.05-1.81 2.01-1.99 2.91zm-43.23.75c-.23 2.85 1.28 3.52 3.8 2.66.46-.16.85-.56 1.37-.51-.04 1.25-1.93 2.04-2.99 2.23-6.47 1.13-5.9-7.46-.76-8.81 1.68-.44 4.52-.21 4.02 2.19-.43 2.05-3.71 2.6-5.44 2.25zm.21-.75c.78.04 1.86-.02 2.43-.64.75-.82.68-2.56-.74-2.24-.78.18-1.68 2.1-1.69 2.88zm24.8 11.04c-.31.09-.35.23-.23.54.4.21.97.27 1.09.8l-2.08 9.37c-.57 2.86 2.9 2.44 4.5 1.46v-.57c-.24-.24-2.09 1.03-2.06-.7l2.48-11.54c-1.17.24-2.58.33-3.71.65zm-6.07 0c-.28.08-.39.27-.22.54.15.25 1.1.22 1.04.8l-2.05 9.45c-.37 2.19 1.49 2.32 3.15 1.95.63-.14 1.49-.36 1.27-1.15-.22-.22-2.01 1.09-1.94-.81l2.48-11.43c-.14-.12-3.3.53-3.71.65zM100.25 3.57c2.03-.16 1.74-3.25-.48-2.85-1.75.31-1.39 3 .48 2.85z" fill="#fff"/></svg>