<svg xmlns="http://www.w3.org/2000/svg" width="300" height="92" viewBox="0 0 300 92"><g fill="#fff"><path d="M170.19 29.31c0 2.18.04 4.35-.02 6.53-.03.98-.15 1.99-.42 2.93-.51 1.81-1.8 2.94-3.59 3.46-1.68.49-3.38.54-5.08.05-2.49-.73-4.08-2.83-4.15-5.7-.07-3.17-.06-6.35 0-9.52.04-2.03.92-3.64 2.92-4.39 1.13-.43 2.24-.27 3.2.54s1.22 1.87 1.09 3.07c-.04.35-.19.45-.56.39-.97-.15-1.58.14-1.63 1.11-.13 2.63-.15 5.26-.08 7.89.03.92.68 1.32 1.51 1.31.83 0 1.29-.42 1.48-1.36.06-.32.1-.64.1-.96 0-3.96.01-7.92 0-11.88 0-1.34-.67-2.24-1.74-2.42-.73-.12-1.27.2-1.51.91-.34 1.01-1.35 1.21-2.04.37-.75-.91-.98-2-.75-3.13.41-1.98 2.09-3.17 4.46-3.22 3.17-.07 5.94 2.12 6.56 5.22.14.72.21 1.47.22 2.2.03 2.2.01 4.4 0 6.6zM189.94 41.73h-2.84c-.63 0-1.25-.03-1.88 0-.63.03-1.11-.08-1.11-.81-.75.42-1.45.86-2.2 1.21-.78.37-1.55.2-2.22-.33-1.02-.8-1.65-1.89-1.68-3.15-.07-3.1-.07-6.21.04-9.3.03-.88.41-1.81.84-2.61.83-1.53 2.43-1.89 3.93-.98.43.26.82.58 1.27.91 0-1.41.06-2.76-.04-4.11-.03-.38-.5-.73-.74-1.1-.12-.18-.25-.38-.26-.58 0-.1.24-.28.4-.3 1.58-.21 2.94-.95 4.31-1.69.78-.42.99-.3.99.58 0 6.37.01 12.74-.01 19.11 0 1.02.13 1.93.96 2.63.09.08.12.23.26.53zm-7.53-8.14c0 .92-.02 1.85 0 2.77.02.73.56 1.02 1.12.57.3-.24.56-.7.58-1.08.07-1.43.04-2.86.01-4.3 0-.33-.06-.73-.24-.98-.2-.29-.58-.45-.88-.67-.2.33-.54.64-.58.99-.08.89-.03 1.8-.03 2.7zM299.97 41.73h-2.7c-.67 0-1.35-.03-2.02 0-.61.03-.95-.16-.86-.95-.31.21-.53.35-.74.5-2.45 1.77-4.56 1.02-5.33-1.91-.12-.44-.18-.91-.18-1.37-.01-2.55-.07-5.09.03-7.63.04-1.06.26-2.17.66-3.15.85-2.07 2.7-2.51 4.53-1.22.31.22.61.46.9.69 0-1.4.05-2.75-.03-4.1-.03-.38-.48-.73-.72-1.11-.12-.18-.28-.39-.27-.58 0-.12.28-.31.45-.33 1.53-.21 2.85-.92 4.18-1.64.86-.47 1.03-.37 1.03.62V38.5c0 1.03.13 1.98.98 2.7.06.05.1.15.13.24.01.04 0 .09-.03.3zm-7.36-8.19c0 .95-.02 1.9 0 2.84.02.69.48.93 1.09.59.5-.28.67-.73.67-1.28 0-1.29.02-2.59-.01-3.88 0-.41-.07-.87-.27-1.2-.19-.31-.61-.66-.92-.66-.48 0-.58.51-.58.96v2.64zM235.3 26.94c.49-.37.89-.73 1.34-.99.43-.25.9-.51 1.38-.6 1.96-.38 3.19.62 3.23 2.68.05 3.49.04 6.99.02 10.49 0 .91.13 1.73.75 2.45.37.43.21.77-.36.78-1.6.03-3.2.02-4.8 0-.54 0-.55-.32-.4-.76.2-.57.44-1.17.45-1.77.05-2.73.03-5.46 0-8.19 0-.27-.16-.54-.24-.81-.29.12-.68.15-.85.36-.27.34-.53.8-.54 1.21-.05 2.64-.04 5.28 0 7.92 0 .43.25.87.45 1.27.24.47.14.75-.37.76-1.6.03-3.2.02-4.8 0-.15 0-.4-.16-.42-.27-.03-.17.05-.44.19-.53.63-.45.71-1.1.71-1.79V23.73c0-.87-.09-1.69-.82-2.34-.46-.41-.34-.67.22-.9 1.3-.53 2.6-1.07 3.89-1.64.63-.28.91-.11.91.67v6.67c0 .22.02.44.03.75zM267.72 27.18c.54-.44.96-.79 1.4-1.12.94-.72 2-1.05 3.12-.54 1.1.5 1.41 1.57 1.47 2.66.08 1.41.04 2.82.05 4.23v6.67c0 .77.13 1.47.81 1.96.12.09.24.33.21.46-.03.11-.29.22-.44.22-1.69.01-3.39.02-5.08 0-.58 0-.64-.25-.41-.77.22-.49.44-1.03.44-1.55.04-2.71.02-5.42.02-8.12v-.07c-.12-.35-.24-.7-.35-1.05-.36.25-.77.45-1.05.77-.17.19-.18.56-.18.85-.01 2.5-.04 5 .02 7.5.01.54.27 1.1.52 1.59.28.54.2.86-.42.87-1.69.03-3.39.02-5.08 0-.19 0-.38-.19-.57-.29.11-.19.17-.45.33-.55.64-.39.77-.94.77-1.65-.03-3.01-.02-6.02 0-9.03 0-.81-.2-1.49-.87-2.01-.17-.13-.32-.46-.27-.63.05-.17.36-.33.58-.36 1.42-.16 2.65-.77 3.82-1.56.26-.17.62-.2.93-.29.08.3.19.59.24.9.04.25 0 .51 0 .91zM275.68 29.12c.68-2.58 2.49-3.87 5.1-3.83 2.5.03 4.48 1.58 5.08 4.04.2.84.22 1.73.31 2.6.08.68-.26 1.07-.86 1.33-1.55.68-3.08 1.39-4.62 2.08-.85.38-1 2-.24 2.55.42.3 1.1.21 1.36-.22.29-.48.26-.91-.25-1.26-.55-.38-.52-.7.09-1.1 1.57-1.03 3.7-.12 4.22 1.81.64 2.36-.61 4.51-3.16 5.05-1.12.24-2.37.21-3.5-.02-2-.41-3.08-1.92-3.53-3.8-.37-1.54-.9-6.48 0-9.24zm4.3 2.76c.52-.23.87-.42 1.23-.54.48-.17.41-.57.3-.85-.11-.26-.41-.57-.67-.61-.21-.03-.6.26-.68.49-.15.42-.12.9-.18 1.51zM214.82 40.82c-.4.21-.8.43-1.21.64-2.42 1.2-4.57.07-4.94-2.59-.3-2.13.36-3.85 2.27-4.95 1.06-.61 2.18-1.13 3.26-1.69.73-.38 1.14-1.75.62-2.36-.23-.27-.78-.39-1.16-.35-.27.03-.66.42-.7.69-.04.31.22.68.39.99.07.12.26.16.4.24-.61 1.03-1.39 1.33-2.62 1.05-1.1-.26-1.98-1.29-2.07-2.43-.18-2.35 1.3-4.25 3.64-4.65 2.81-.49 5.27.6 6.17 2.84.31.77.44 1.66.46 2.5.05 2.92.03 5.83.01 8.75 0 .68.2 1.21.73 1.64.12.1.17.28.26.43-.17.08-.34.24-.52.24-1.39.02-2.79.06-4.17-.02-.33-.02-.63-.47-.94-.73l.1-.22zm.04-5.08c-.58.47-1.05.81-1.46 1.21-.12.12-.16.47-.07.62.09.15.39.24.59.23.91-.05 1.19-.57.94-2.05zM260.34 39.33c-1.26 2.6-3.94 3.75-6.49 2.73-1.7-.68-2.58-2.1-3.03-3.75-.85-3.09-.9-6.22.12-9.29.82-2.48 2.5-3.64 4.98-3.63 2.25.02 4.01 1.3 4.71 3.7 1.21 2.79.53 8.51-.3 10.24zm-3.71-5.43v-.56c-.01-.83.03-1.67-.07-2.49-.04-.3-.38-.71-.66-.8-.51-.16-.79.26-.9.73-.07.29-.12.59-.12.89-.01 1.55-.01 3.1 0 4.65 0 .32.03.67.17.95.11.23.4.49.63.51.24.02.59-.17.73-.38.17-.25.21-.61.22-.92.03-.85 0-1.71 0-2.57zM204.19 28.5c.4-.33.66-.58.96-.79 1.38-.99 3-.37 3.36 1.31.26 1.23-.03 2.35-.74 3.38-1.63-.73-2.75-.47-3.3.78-.18.41-.25.89-.26 1.35-.03 1.94 0 3.89-.01 5.84 0 .88.2 1.64.99 2.17.43.29.37.57-.1.73-2.56.89-4.61 2.54-6.55 4.35-.11.1-.31.1-.48.15.02-.18-.04-.41.06-.53 1.09-1.41 1.41-3 1.4-4.75-.04-5.51.01-11.02 0-16.53 0-.6-.22-1.22-.45-1.78-.19-.47-.2-.69.37-.83 1.51-.36 2.88-1.02 4.05-2.06.14-.13.35-.18.53-.27.07.2.19.41.2.61.01 2.24 0 4.49 0 6.89zM176.7 29.23v9.38c0 .95.12 1.85.91 2.52.09.08.17.35.12.4-.11.12-.31.21-.47.21-.93.02-1.86.01-2.79.01-.93 0-1.86.01-2.79-.01-.18 0-.36-.13-.54-.21.08-.18.11-.41.25-.52.61-.48.81-1.11.81-1.84V23.12c0-.65-.17-1.22-.77-1.61-.16-.1-.32-.39-.29-.56.03-.16.28-.34.47-.41 1.46-.58 2.93-1.12 4.39-1.69.54-.21.7-.11.7.57v9.8z"/><path d="M203.13 16.08h5.43c.74 0 .84.19.58.89-.55 1.46-1.09 2.93-1.62 4.4-.19.52-.38.59-.75.17-.55-.62-1.26-.93-2.03-.93-1.99 0-3.99-.02-5.97.15-1.58.13-2.37 1.53-1.77 2.99.2.47.72.89 1.2 1.13.5.26.58.53.41.98-.31.81-.97 1.16-1.77 1.25-1.46.17-2.64-.38-3.51-1.55-2.19-2.95-.76-7.8 2.68-9.08.58-.21 1.21-.35 1.83-.36 1.76-.05 3.52-.02 5.29-.02v-.03zM248.82 32.66v5.83c0 1 .09 1.95.95 2.64.1.08.18.31.14.41-.04.11-.25.21-.38.21-1.95.01-3.9.01-5.84 0-.15 0-.35-.12-.44-.25-.05-.07.05-.32.15-.4.78-.63.99-1.5.99-2.42.02-2.85 0-5.69 0-8.54 0-.7-.29-1.23-.85-1.66-.21-.16-.48-.5-.43-.69.05-.21.4-.42.66-.51.96-.34 1.94-.59 2.9-.94.43-.16.79-.48 1.2-.69.21-.11.52-.24.67-.16.16.09.27.42.27.64.02 2.17.01 4.35.01 6.52zM248.78 22.25c-.02 1.14-.99 2.04-2.19 2.04-1.17 0-2.12-.95-2.12-2.11 0-1.22.9-2.17 2.05-2.17 1.25 0 2.27 1.02 2.25 2.24zM229.36 25.73l-1.32 4.84s-2.24-2.22-3.09-1.26 5.59 2.68 5.5 6.67-8.02 8.85-8.02 8.85l-1.84-4.08s5.73-2.73 5.37-4.33-5.99-3.05-6.06-6.88 3.34-5.06 9.45-3.81z"/></g><g fill="#fff"><path d="M241.78 81.5c-.38.05-.73.13-1.08.13-2.44.01-4.89.02-7.33-.01-.39 0-.78-.26-1.18-.39.2-.32.42-.63.58-.97.34-.74.92-1.5.93-2.26.08-5.17.04-10.35.05-15.52 0-1.1-.3-2.01-1.28-2.66-.25-.16-.49-.63-.43-.9.05-.25.49-.54.79-.58 2.36-.32 4.46-1.27 6.45-2.53 1.23-.78 1.72-.5 1.75.99.01.46 0 .92 0 1.58.89-.74 1.55-1.36 2.29-1.89 2.87-2.04 5.69-1.3 7.21 1.91.58-.52 1.1-1.1 1.72-1.53.69-.49 1.42-.99 2.2-1.24 3.14-.97 5.58.82 5.69 4.23.09 2.73.03 5.47.04 8.2 0 3.18.03 6.36-.01 9.53-.02 1.13.34 2 1.17 2.74.25.22.37.58.55.87-.36.15-.71.41-1.07.42-2.55.04-5.11.04-7.67 0-1.09-.01-1.19-.3-.69-1.25.23-.44.37-.97.37-1.47.03-4.84.03-9.68 0-14.52 0-.41-.33-.82-.51-1.22-.44.21-1.05.32-1.28.67-.33.53-.54 1.23-.55 1.86-.05 4.18-.06 8.35 0 12.53.01.8.35 1.63.69 2.38.32.71.11 1-.57 1.01-2.44.02-4.89.02-7.33 0-.74 0-.93-.31-.61-1.08.34-.83.62-1.75.64-2.64.06-4.47.04-8.94 0-13.41 0-.44-.32-.88-.5-1.32-.46.25-1.04.4-1.35.77-.29.36-.42.95-.43 1.43-.03 4.51-.05 9.02.02 13.52.01.83.44 1.65.72 2.6zM43.55 91.28c-3.07-2.61-5.57-5.59-7.32-9.15-4.34-8.84-5.86-18.19-4.86-27.96.37-3.57 1.26-6.97 3.36-9.95 2.95-4.2 8.63-5.56 13.12-3.16 4.26 2.28 5.14 8.59 1.66 11.99-1.67 1.63-4.17 1.95-5.99.64-.56-.41-1.03-1.06-1.31-1.7-.28-.64-.1-1.25.83-1.25.29 0 .58-.09.86-.19.88-.32 1.2-1 .97-1.85-.23-.85-1.02-1.25-1.73-.94-.86.38-1.93.95-2.27 1.72-.82 1.82-1.61 3.78-1.82 5.74-.89 8.31.7 16.17 4.98 23.39 1.03 1.73 2.4 3.27 3.68 4.84.42.52.5.84.11 1.41-1.44 2.1-2.82 4.24-4.27 6.42zM139.64 91.22c-3.12-2.67-5.66-5.75-7.42-9.43-4.36-9.1-5.8-18.69-4.56-28.67.41-3.29 1.39-6.41 3.39-9.13 2.99-4.06 8.75-5.32 13.11-2.85 4.16 2.35 4.93 8.63 1.46 11.95-1.68 1.61-4.23 1.9-5.99.56-.55-.42-.99-1.09-1.27-1.73-.25-.59-.07-1.17.81-1.18.32 0 .65-.11.96-.22.94-.33 1.04-1.1.85-1.91-.19-.79-.92-1.1-1.56-.88-.79.28-1.76.71-2.14 1.37-.79 1.34-1.56 2.84-1.78 4.35-1.57 11.01.68 21.05 8.08 29.65.68.79.78 1.28.15 2.14-1.36 1.88-2.59 3.86-3.88 5.8-.02.03-.06.05-.21.17zM157.72 58.07c.9-.68 1.58-1.19 2.25-1.7 1.12-.85 2.39-1.11 3.77-.99 1.91.17 3.07 1.19 3.39 3.07.16.9.25 1.83.26 2.75.02 5.28.03 10.56 0 15.84 0 1.2.25 2.25 1.03 3.18.21.25.4.71.3.95-.11.24-.58.44-.9.44-2.48.03-4.96.04-7.44 0-.86-.01-1-.45-.7-1.26.34-.91.71-1.87.73-2.82.08-4.32.05-8.64.01-12.96 0-.46-.29-.92-.44-1.38-.49.22-1.15.31-1.42.69-.42.59-.8 1.37-.81 2.08-.07 3.99-.07 7.98 0 11.96.01.8.38 1.62.72 2.37.4.88.28 1.29-.68 1.31-2.44.04-4.89.03-7.33 0-.3 0-.77-.26-.84-.49-.07-.25.24-.61.38-.93.34-.74.96-1.48.96-2.23.06-8.64.03-17.28.03-25.92 0-1.09-.36-1.99-1.16-2.77-.84-.82-.66-1.21.4-1.62 1.96-.75 3.9-1.54 5.8-2.43 1.26-.59 1.66-.43 1.66 1 .01 3.47 0 6.94 0 10.41v1.42zM89.59 79.19c-1.03.85-1.82 1.58-2.68 2.2-1.56 1.11-3.29 1.38-5.03.52-1.68-.84-2.22-2.43-2.24-4.17-.05-4.65-.04-9.31-.03-13.96 0-1.61-.16-3.1-1.73-4.05-.21-.13-.38-.59-.32-.84.06-.23.45-.5.71-.52 2.61-.24 4.91-1.26 7.12-2.6.91-.55 1.5-.15 1.51 1.03.03 2.36 0 4.73 0 7.09v9.09c0 .62-.25 1.58.67 1.59.58 0 1.23-.61 1.72-1.08.24-.22.25-.75.26-1.14.02-3.1.01-6.21 0-9.31 0-1.23-.24-2.34-1.46-3.02-.25-.14-.44-.61-.41-.91.01-.19.46-.45.74-.5 2.6-.45 4.92-1.53 7.1-2.98.85-.57 1.39-.24 1.4.83.03 2.11.01 4.21.01 6.32 0 4.65.02 9.31 0 13.96 0 1.54.16 2.96 1.62 3.88.18.11.37.52.3.62-.14.2-.44.41-.68.41-2.48.03-4.96.03-7.44 0-.74 0-1.16-.43-1.15-1.2v-1.28zM108.81 58.37c.87-.7 1.49-1.35 2.24-1.78.88-.5 1.84-1.02 2.82-1.17 2.14-.33 3.74.89 4.24 3.14.24 1.07.33 2.19.34 3.29.03 5.13.02 10.27.01 15.4 0 1.26.12 2.43 1.29 3.24.19.13.35.54.28.75-.06.17-.46.32-.71.33-2.7.02-5.4.03-8.1-.02-.93-.02-1-.38-.62-1.22.36-.77.71-1.64.72-2.47.07-4.32.03-8.64.03-12.96 0-.04.01-.08 0-.11-.23-.56-.46-1.13-.69-1.69-.55.44-1.18.81-1.62 1.34-.24.29-.21.84-.22 1.28-.01 3.95-.06 7.91.03 11.86.02.89.43 1.82.83 2.65.41.83.31 1.36-.59 1.38-2.77.05-5.55.03-8.33 0-.24 0-.65-.23-.68-.4-.04-.26.09-.72.3-.83 1.32-.74 1.37-1.94 1.36-3.25-.04-4.43-.03-8.86 0-13.3 0-1.53-.13-2.95-1.54-3.93-.22-.16-.34-.67-.27-.97.05-.21.48-.45.77-.47 2.4-.24 4.44-1.28 6.39-2.62.35-.24.99-.46 1.27-.3.29.17.37.8.43 1.24.07.45.02.92.02 1.59zM272.28 80.33c-.88.4-1.94 1.04-3.09 1.38-2.79.84-5.3-.59-6.14-3.38-1.2-3.94-.1-7.09 3.4-9.25 1.56-.97 3.27-1.69 4.91-2.54 1.46-.75 1.95-2 1.41-3.58-.28-.82-.91-.98-1.67-.96-.74.02-1.34.26-1.5 1.04-.16.72-.1 1.41.69 1.8.19.09.38.2.57.3-1.13 2.09-3.83 2.48-5.8.89-1.95-1.57-2.33-4.65-.78-7.17 1.84-2.99 4.72-3.77 7.97-3.42 4.85.52 7.53 3.56 7.56 8.45.02 4.65.02 9.3 0 13.96 0 1.15.25 2.1 1.21 2.81.19.14.31.49.28.72-.01.13-.4.31-.62.31-2.29.02-4.59.09-6.88-.04-.48-.03-.93-.78-1.52-1.32zm.19-8.16c-.74.59-1.52 1.15-2.2 1.81-.19.18-.21.75-.06.99.15.23.62.36.94.34 1.43-.1 1.88-.92 1.31-3.14z"/><path d="M56.45 80.24c-.45.24-1.06.59-1.68.89-3.98 1.97-7.5 0-7.97-4.42-.35-3.3.76-5.9 3.66-7.59 1.69-.98 3.48-1.79 5.21-2.7 1.29-.68 1.79-2.36 1.13-3.68-.39-.79-1.14-.91-1.8-.7-.51.16-1.07.63-1.28 1.11-.28.63-.05 1.31.69 1.67.19.09.38.21.56.31-.86 2.56-5.19 2.4-6.77-.2-1.34-2.19-.83-5.55 1.31-7.49 2.85-2.59 6.2-2.59 9.57-1.36 3.15 1.16 4.69 3.7 4.78 6.95.14 4.87.07 9.75.05 14.63 0 1.21.19 2.27 1.27 3.01.17.11.31.46.26.63-.06.17-.38.36-.58.36-2.37.02-4.74.08-7.11-.05-.43-.02-.82-.85-1.3-1.39zm.45-7.82c-.95.08-2.03.66-2.45 1.45-.17.31-.25.85-.09 1.1.16.24.7.36 1.05.31 1.37-.18 1.72-.9 1.49-2.86z"/><path d="M69.94 82.1c-.21.59-.52 1.04-.44 1.4.09.39.49.93.84 1.01.61.14 1.1-.29 1.02-.97-.06-.49-.25-1.03-.56-1.41-1.7-2.11-2.14-4.59-2.17-7.17-.05-3.84-.03-7.68 0-11.52 0-1.43-.22-2.68-1.6-3.52-.71-.43-.57-1.21.25-1.36 2.65-.46 4.9-1.82 7.24-2.98 1-.49 1.4-.15 1.4 1.12 0 5.13.04 10.27-.01 15.4-.03 2.66.37 5.2 1.44 7.65.98 2.24 1.14 4.56.3 6.9-.05.14-.12.27-.18.4-1.12 2.27-3.92 3.47-7.17 3.07-2.37-.29-4.22-1.92-4.74-4.19-.52-2.25.87-4.32 2.91-4.26.51.01 1.01.28 1.48.42zM219.49 60.97h-2.57c.33-1.7.63-3.27.95-4.9l1.65-.16c-.08-1.38.48-2.8-.95-3.87-.56-.42-.42-1.07.23-1.33 2.69-1.08 4.46-3.22 6.26-5.33.2-.24.6-.31.91-.46.15.35.42.69.42 1.04.04 2.88.02 5.76.02 8.64v1.36h2.79c-.33 1.75-.63 3.33-.94 4.95l-1.79.12c-.02.39-.07.75-.07 1.1V77.2c0 1.37.06 2.68 1.48 3.43.15.08.33.46.28.52-.18.2-.44.43-.67.44-1.03.05-2.07.04-3.11.04-1.81 0-3.63.02-5.44-.02-.31 0-.62-.26-.92-.4.15-.27.31-.54.45-.81.34-.66.97-1.32.98-1.99.08-5.76.05-11.51.05-17.44zM179.53 58.8c.32-.53.62-1.07.97-1.59.79-1.17 1.84-1.96 3.32-1.82 1.53.14 2.44 1.15 2.99 2.48.78 1.9.67 3.75-.52 5.47-.49.71-1.03 1.05-1.88.3-1.05-.91-2.49-.8-3.32.34-.61.83-1.18 1.89-1.25 2.88-.27 3.82-.39 7.66-.42 11.49 0 .68.7 1.37 1.08 2.06.13.24.45.59.38.69-.16.24-.5.49-.76.49-3 .03-5.99.03-8.99 0-.22 0-.6-.17-.62-.31-.04-.24.06-.6.24-.76 1.16-1.03 1.39-2.38 1.38-3.82 0-4.47-.01-8.93 0-13.4 0-1.42-.2-2.69-1.52-3.58-.67-.45-.46-1.06.32-1.37 2.36-.92 4.72-1.86 7.07-2.8.87-.35 1.24-.16 1.31.8.05.8.01 1.6.01 2.4l.21.03zM197.61 67.33c0 3.07.01 6.13 0 9.2 0 1.56.16 3.03 1.5 4.1.16.13.29.49.22.65-.07.17-.4.34-.61.34-3.11.02-6.22.02-9.33 0-.24 0-.56-.2-.7-.4-.08-.11.08-.51.24-.64 1.29-1.03 1.59-2.47 1.6-3.97.04-4.47.01-8.94.01-13.4 0-1.1-.38-1.99-1.28-2.68-.37-.28-.85-.85-.78-1.16.09-.36.7-.74 1.15-.85 2.38-.59 4.7-1.27 6.71-2.77.66-.49 1.23-.1 1.25.85.04 1.62.02 3.25.02 4.87v5.87zM197.53 50.53c-.04 1.81-1.59 3.24-3.51 3.23a3.371 3.371 0 0 1-3.36-3.38c.02-1.96 1.45-3.46 3.29-3.44 1.99.02 3.61 1.65 3.57 3.59zM68.97 50.35c0-2.06 1.29-3.47 3.2-3.46 1.99 0 3.55 1.53 3.56 3.47 0 1.89-1.44 3.3-3.4 3.32-1.95.02-3.35-1.37-3.36-3.33zM215.13 56.1l-2.14 7.86s-3.64-3.61-5.01-2.05 9.07 4.36 8.93 10.83c-.14 6.47-13.03 14.37-13.03 14.37l-2.98-6.63s9.3-4.44 8.72-7.02-9.73-4.96-9.84-11.17c-.11-6.21 5.43-8.22 15.34-6.19zM296.93 56.1l-2.14 7.86s-3.64-3.61-5.01-2.05 9.07 4.36 8.93 10.83c-.14 6.47-13.03 14.37-13.03 14.37l-2.98-6.63s9.3-4.44 8.72-7.02-9.73-4.96-9.84-11.17c-.11-6.21 5.43-8.22 15.34-6.19z"/></g><g fill="#fff"><path d="M67.94 17.59c-.05-.5-.14-1.44-1.23-1.57-.07 0-.13-.01-.2-.01-.92 0-1.88.73-2.14 1.62-.93 3.17-2.7 5.82-5.26 7.88-.57.46-1.34.87-2.27 1.21-.27.1-.53.15-.77.15-.57 0-1.02-.29-1.34-.87-.63-1.16-.98-2.14-1.06-3-.56-5.87 1.16-11.35 5.11-16.3.86-1.08 2.14-1.92 3.15-2.54.26-.16.5-.23.73-.23.48 0 .88.38 1.11 1.05.22.66.33 1.23.34 1.73 0 .67-.03 1.35-.06 2.02-.03.61-.06 1.25-.06 1.88 0 .45.19 1.09.6 1.4.11.08.24.12.39.12.37 0 .89-.26 1.16-.5 1.15-1.03 1.71-2.15 1.65-3.31-.08-1.54-.19-3.04-.66-4.43C66.45 1.86 65.01.7 63.18.7c-.75 0-1.53.19-2.33.57-1.04.49-2.53 1.35-3.71 2.6-4.57 4.82-6.95 10.61-7.08 17.18-.06 2.94.53 5.18 1.85 7.07 1.04 1.48 2.44 2.26 4.05 2.26.55 0 1.12-.09 1.7-.28 2.58-.83 4.71-2.59 6.52-5.38.28-.43.54-.87.79-1.31 0 .78.02 1.58-.02 2.35-.12 2.42-.35 5.2-1.52 7.7a9.918 9.918 0 0 1-1.88 2.72 3.38 3.38 0 0 1-2.43 1.02c-.64 0-1.3-.18-1.9-.51-.43-.24-.84-.53-1.26-.83-.28-.2-.56-.4-.85-.59-.32-.2-.76-.32-1.24-.32-.69 0-1.27.23-1.53.61-.65.93.04 1.65.41 2.03.05.05.1.11.15.16 1.57 1.71 3.75 2.69 5.98 2.69 2.35 0 4.53-1.06 5.99-2.92.38-.48.74-1.06 1.11-1.75 1.12-2.1 1.8-4.53 2.15-7.64a42 42 0 0 0-.14-10.32c0-.07-.02-.14-.02-.22zM14.82 18.22c-2.09-1.29-4.36-1.91-6.1-2.31-.28-.06-.56-.13-.84-.19-.79-.18-1.6-.36-2.38-.57a.567.567 0 0 1-.24-.15c.06-.07.14-.14.22-.21.24-.19.51-.34.8-.5l.21-.12c2.93-1.71 5.53-3.31 7.72-5.53.93-.94 1.62-1.9 2.07-2.85.46-.97.49-1.95.09-2.75-.42-.84-1.28-1.43-2.42-1.65-.57-.11-1.16-.17-1.76-.17-1.89 0-3.71.59-5.08 1.1C4.09 3.44 2.13 4.8.76 6.71c-.63.87-.87 1.72-.71 2.52.16.82.71 1.53 1.65 2.13.07.04.14.09.19.14-.08.37-.1.74-.12 1.1-.05.77-.09 1.43-.6 1.97-.67.7-.74 1.42-.22 2.13.17.24.28.61.26.86C.8 21.36.72 25.3.98 29.27c.06.95.18 1.88.35 2.78.08.42.4 1.13.9 1.25.06.01.12.02.19.02.44 0 .97-.35 1.22-.69.28-.38.49-.8.7-1.23.03-.06.06-.13.09-.19h.02c.3.13.62.25.95.34 1.3.36 2.54.54 3.7.54 2.29 0 4.37-.71 6.18-2.12 1.84-1.43 2.95-3.91 2.82-6.31-.12-2.27-1.28-4.19-3.26-5.42zm-.33 6.99c-.32 1.75-2.13 3.26-4.21 3.49-.37.04-.75.06-1.11.06a9.5 9.5 0 0 1-3.2-.56c-.35-.13-.65-.21-.97-.21-.23 0-.44.04-.64.13v-9.89c.25.06.5.12.74.18.85.2 1.66.39 2.43.63l.38.11c1.3.4 2.65.81 3.88 1.36 2.13.95 3.09 2.62 2.71 4.69zM5.19 8.98a.89.89 0 0 0-.56-.17c-.14 0-.28.02-.42.04-.11.02-.21.03-.3.03s-.18 0-.28.02c-.08 0-.15.01-.22.01-.11-.15-.17-.35-.16-.42.13-.38.4-.77.68-1 2.22-1.82 4.75-2.91 7.54-3.24.08 0 .17-.01.26-.01.14 0 .29.01.46.03.34.04.57.15.66.31.1.18.02.46-.06.65-.19.45-.51.91-.88 1.3-.63.65-1.22 1.17-1.81 1.59-1.27.89-2.55 1.74-3.9 2.65-.25.17-.5.34-.76.51.07-.32.12-.62.15-.93.01-.16.06-.98-.4-1.35zM39.29 13.04c-.75 0-1.51.27-2.19.78-1.05.78-1.84 1.87-2.61 2.92-.18.25-.34.51-.48.78.26-4.15.74-9.33 2.01-14.43.16-.66-.11-1.42-.42-1.91-.34-.53-.77-.87-1.21-.95-.1-.02-.2-.03-.3-.03-.94 0-1.27.91-1.49 1.9-.01.06-.03.13-.04.19-.13.88-.28 1.77-.43 2.63-.33 1.94-.67 3.95-.81 5.95-.33 4.55-.46 9.17-.57 13.9-.03 1.17.26 2.33.54 3.45l.04.18c.13.53.87 1 1.38 1.01.49 0 .81-.5 1.13-1.05.14-.24.16-.5.18-.73 0-.08.01-.15.03-.23l.11-.62c.43-2.41.87-4.89 1.91-7.13.51-1.09 1.19-2.11 1.97-2.96.2-.21.41-.33.63-.33.33 0 .67.26.89.71.16.32.27.65.33.97.34 1.98.14 3.97-.59 5.9-1.01 2.67-2.43 5.21-5.88 5.77-.37.06-.68.27-.87.6-.23.4-.27.92-.1 1.39.26.72.96 1.22 1.69 1.22.23 0 .45-.05.67-.14 1-.43 2.25-.96 3.21-1.76 2.99-2.47 4.7-5.82 5.23-10.27.26-2.23.02-3.99-.77-5.54-.7-1.37-1.9-2.18-3.21-2.18zM25.46 14.8h3.16c.09 0 .18.01.26.01.29 0 .49-.1.57-.31l.12-.27c.24-.55.49-1.12.5-1.73 0-.16-.07-.32-.21-.47-.29-.29-.96-.61-1.42-.61h-.09c-1.83.17-3.98.4-6.13.84-.76.16-1.46.89-1.86 1.52-.31.49-.4.94-.27 1.34.14.43.53.76 1.17 1.01.09.03.17.07.27.1-2.15 2.26-3.13 5.04-3.02 8.48.1 2.81.92 4.96 2.53 6.59.94.95 2.07 1.45 3.26 1.45 1.04 0 2.07-.39 2.97-1.13.52-.43.97-.93 1.31-1.46 1.56-2.43 2.02-5.2 1.39-8.47-.58-3.05-2.09-5.37-4.49-6.91zm-.98 14.58h-.08c-.65 0-1.14-.35-1.63-1.17-1.47-2.43-1.61-7.65 1.41-10.29 2.66 2.58 3.5 6.95 1.89 10.1-.4.78-.82 1.31-1.58 1.35zM120.3 14.05h-.54c-.33 0-.62.02-.88.07a261.708 261.708 0 0 0-3.59.71c0-.05.02-.1.03-.15l.42-1.88c.27-1.22.55-2.48.81-3.72.06-.28-.01-.54-.07-.77-.02-.08-.04-.16-.05-.23a.43.43 0 0 0-.18-.29.496.496 0 0 0-.26-.08h-.08c-.06.01-.15.02-.24.02-.27.02-.6.03-.84.27-.08.07-.15.15-.23.22-.47.44-1 .95-1.22 1.58-.6 1.67-1.04 3.28-1.31 4.77l-.03.15c-.2 1.14-.35 1.74-1.29 2.09-.29.11-.53.26-.74.45.05-.87-.05-1.79-.4-2.73-.49-1.31-1.49-2.1-2.68-2.1-.7 0-1.4.28-2.03.8-.66.55-1.27 1.27-1.75 2.07-1.26 2.11-1.94 4.52-2.13 7.53a.442.442 0 0 0-.16-.06h-.05a.44.44 0 0 0-.35.17c-.08.1-.17.2-.25.3-.22.25-.44.5-.59.82-.26.52-.5 1.06-.74 1.58-.3.67-.62 1.36-.96 2.01-.08.15-.36.34-.48.36-.1-.05-.31-.31-.4-.57-.15-.43-.24-.94-.29-1.59-.24-3.61-.06-7.43.59-12.03.41-2.93 1.04-5.88 1.65-8.74.1-.47.2-.94.3-1.42.31-1.48.04-2.43-.96-3.28-.32-.27-.64-.4-.95-.4-.27 0-.77.11-1.08.82-.22.49-.4 1.04-.54 1.66-1.34 5.85-2.02 12.09-2.17 19.65v2.29c-.09.03-.18.09-.23.18-.07.12-.14.23-.2.33-.12.2-.23.37-.32.55-.12.24-.24.47-.36.71-.24.49-.47.95-.75 1.38-.08.12-.24.24-.42.35l-.36-.57v-.06c-.03-.65-.05-1.29-.08-1.94-.07-1.56-.14-3.18-.16-4.77 0-.72.05-1.47.11-2.19.05-.61.1-1.24.11-1.86 0-.43-.24-1.16-.72-1.4-.15-.07-.31-.11-.49-.11-.79 0-1.79.77-1.98 1.53-.14.55-.27 1.1-.41 1.65-.41 1.7-.84 3.45-1.41 5.12-.4 1.16-1.04 2.29-1.66 3.38-.16.28-.32.56-.47.84-.03.05-.19.13-.31.19-.08-.17-.15-.34-.22-.51s0-.05 0-.08v-.11c-.16-3.5.09-6.7.78-9.8.08-.38.18-.77.27-1.14.13-.53.27-1.07.37-1.62.09-.47-.03-1-.34-1.45-.3-.42-.72-.71-1.16-.78-.09-.01-.17-.02-.25-.02-.83 0-1.09.71-1.25 1.13-.02.06-.05.12-.07.18-.1.26-.18.52-.25.77l-.02.07c-.7 2.53-1.11 5.17-1.24 7.9-.26-1.52-.83-3.04-1.71-4.57-.65-1.12-1.6-2.07-2.94-2.92.52 0 1.05.01 1.57.02.49 0 .99.01 1.48.02h.29c.19 0 .58 0 .71-.34.04-.09.07-.18.11-.27.23-.55.46-1.13.45-1.74-.01-.62-1.19-1.02-1.66-1.02h-.1c-2.27.22-4.25.49-6.05.83-.72.14-1.38.74-1.76 1.27-.48.67-.47 1.19-.37 1.52.1.34.39.81 1.22 1.13.06.02.13.05.19.07-1.77 1.86-2.75 4.08-2.97 6.77-.29 3.49.51 6.18 2.44 8.23.92.98 2.09 1.52 3.3 1.52 1.12 0 2.2-.44 3.14-1.28.56-.5.96-.97 1.22-1.44.74-1.32 1.21-2.66 1.45-4.01.08 1.41.36 2.93.82 4.39.34 1.09 1.02 1.72 1.86 1.72.45 0 1.13-.19 1.83-1.07.75-.95 1.48-2.1 2.21-3.5.36-.69.68-1.4.99-2.14.03 1.63.18 3.41.82 5.11.41 1.09 1.12 1.71 1.97 1.71.6 0 1.21-.32 1.76-.92.74-.81 1.31-1.66 1.73-2.56.16.68.34 1.37.62 2.01.45 1.05 1.23 1.65 2.14 1.65.67 0 1.34-.32 1.94-.93 1.23-1.25 2.09-2.65 2.56-4.17.29 1.23.79 2.49 1.77 3.55.91.99 2.08 1.53 3.29 1.53 1.05 0 2.06-.4 2.91-1.15 1-.88 1.79-1.9 2.36-3.04.17.68.41 1.36.74 2.01.69 1.38 1.8 2.18 3.04 2.18.87 0 1.76-.39 2.58-1.12 1.55-1.4 2.65-3.2 3.25-5.33.14-.5.17-1.1.07-1.67-.06-.35-.24-.66-.4-.93-.06-.1-.12-.2-.18-.31a.447.447 0 0 0-.4-.24h-.04l-.28.02a.45.45 0 0 0-.37.25c-.05.1-.09.19-.14.29-.1.21-.19.41-.3.61-.23.44-.45.89-.66 1.32-.5 1.02-1.02 2.07-1.65 3.02-.25.38-.52.58-.78.58-.3 0-.62-.31-.85-.82-.16-.37-.38-.92-.39-1.42-.04-1.85-.05-3.74-.06-5.56 0-.91 0-1.82-.02-2.73 0-.28.04-.31.27-.36.47-.09.93-.21 1.38-.33.45-.11.91-.23 1.36-.32.37-.07.81-.15 1.24-.15.71 0 1.26.22 1.72.69.08.09.2.13.32.13s.24-.05.32-.14c.08-.09.17-.18.26-.27.57-.59 1.29-1.33.86-2.43-.44-1.12-1.53-1.14-2.33-1.16zm-13.46 1.81c.15.02.21.14.21.83v.19c.02 2.08-1.22 4.71-2.88 6.32.22-2.53.66-4.67 1.82-6.6.22-.38.7-.73.85-.73zm3.38 4.25c.2 0 .41-.07.66-.2.16-.09.33-.18.51-.28l-.06 1.35c-.05.96-.1 1.95-.08 2.94h-.04c-.38 0-.74.24-.98.67-.13.22-.22.46-.32.68-.1.24-.19.46-.31.65-.14.22-.27.44-.4.66-.45.75-.92 1.52-1.49 2.16-.32.35-.68.54-1.03.54-.42 0-.85-.26-1.21-.72-.16-.21-.29-.46-.42-.72-.1-.2-.21-.4-.33-.6-.19-.31-.2-.42.18-.74 2.23-1.89 3.7-3.91 4.49-6.18.06-.18.13-.37.19-.56.2.32.51.38.67.38zm-35.78 9.31c-.48 0-.96-.3-1.36-.85-.42-.58-.75-1.29-.93-2.01-.88-3.46-.05-6.8 2.1-8.63 1.82 1.76 2.68 3.91 2.63 6.55-.02 1.17-.16 2.68-1 3.97-.41.62-.92.97-1.44.97zM134.6 22.21c-.76-1.36-2.15-2.26-4.02-2.6-.77-.14-1.67-.32-2.53-.59-.23-.08-.53-.21-.62-.43-.09-.22.02-.54.14-.77.22-.44.43-.75.66-.95.61-.54 1.28-1.06 1.93-1.55l.38-.29c.05-.04.1-.08.16-.12.52-.39 1.31-.98.79-2.09-.25-.52-.78-.82-1.47-.82a3.207 3.207 0 0 0-1.54.43c-1.94 1.11-3.33 2.65-4.12 4.58-.53 1.29-.55 2.47-.06 3.39.49.93 1.47 1.57 2.83 1.86l1.05.21c.59.11 1.2.23 1.78.38 1.41.39 2.01 1.23 1.89 2.67-.16 1.96-2.05 3.68-4.03 3.68-.48 0-.95-.1-1.41-.29-.45-.19-.83-.28-1.16-.28-.6 0-1.06.3-1.36.9-.45.89-.01 2.04.97 2.55.5.26 1.04.42 1.56.58.22.07.44.13.66.2.05.02.09.02.14.02h.02c3.21-.16 6.27-2.37 7.44-5.38.76-1.95.73-3.84-.1-5.31zM125.43 10.52c.08.13.23.21.38.21.03 0 .07 0 .1-.01.08-.02.17-.03.26-.04.24-.04.52-.08.76-.23 2.01-1.25 3.47-2.91 4.33-4.94.16-.38.65-1.53-.36-2.06-.19-.1-.42-.15-.69-.15-.33 0-.74.08-1.12.23-.26.1-1.32.66-1.25 1.31.19 1.84-.89 3.05-2.04 4.33-.14.15-.25.32-.35.48-.04.06-.08.13-.13.19-.1.15-.11.34-.01.49l.13.2z"/></g></svg>