<svg xmlns="http://www.w3.org/2000/svg" width="250" height="36" viewBox="0 0 250 36"><path d="M9 28.11l-2.12 6.6H0L11.45.31h9.75l11.66 34.4H26.1l-2.22-6.6zm7.45-22.75l-5.88 17.85h11.82zM67.77 34.71H56.68l-9.85-18.88c-.62-1.28-1.29-2.68-3.35-7.42L42.35 6h-.21v2.22c.16 3.3.16 3.56.16 6.76v19.73h-6.5V.31h11l9 17.43c1.29 2.58 1.7 3.46 4 8.41L61.22 29h.21v-2.22c-.16-3.2-.16-3.46-.16-6.65V.31h6.55zM73.81.31h17c4.74 0 7.73.93 9.69 2.94 2.48 2.53 3.31 5.47 3.31 11.45 0 9.28-.31 12.12-1.45 14.55C100.42 33 97 34.71 91 34.71H73.81zM89.69 29c3.15 0 4.9-.62 5.94-2.06 1.13-1.6 1.44-3.67 1.44-9.55s-.26-7.9-1.34-9.39-2.58-2-5.62-2h-9.7v23zM108.68.31h16.91c8.31 0 11.14 2.58 11.14 10.26 0 6.86-1.18 8.72-6.19 9.7v.26c3.92.2 5.88 2.53 5.83 6.7v7.48h-6.65v-6.19c.1-3.76-1.5-5.36-5.16-5.26h-9.28v11.45h-6.6zm15.83 17.33c2.06 0 3.4-.31 4.18-1 1.08-.88 1.34-1.91 1.34-4.85C130 6.91 129.2 6 125 6h-9.69v11.64zM165.41 1.13c3.1 1.4 4.85 3.87 5.52 7.9a52 52 0 0 1 .36 8.15c0 8.25-.31 10.52-1.75 13.1a9.37 9.37 0 0 1-6.6 4.28 42.09 42.09 0 0 1-7.48.46c-5.11 0-7.69-.41-9.8-1.55-2.74-1.49-4.13-3.71-4.75-7.53a47.64 47.64 0 0 1-.31-7.53c0-8.87.36-11.4 2-13.92a9.68 9.68 0 0 1 6.4-4 40.88 40.88 0 0 1 7.23-.49c4.9 0 7.17.31 9.18 1.13zm-18.1 17.8c0 6 .26 7.58 1.49 9 1 1.13 2.53 1.39 7.79 1.39 5.06 0 6.45-.57 7.33-3 .61-1.71.67-2.58.67-9 0-5.42 0-5.57-.26-7.17-.31-2-1.14-3.3-2.43-3.87-1.13-.46-2.42-.57-6.29-.57-4.18 0-5.57.26-6.65 1.34s-1.6 2.89-1.65 6.3zM182.79 34.71h-6.6V.31h6.6zM188.83.31h17c4.74 0 7.73.93 9.69 2.94 2.48 2.53 3.3 5.47 3.3 11.45 0 9.28-.3 12.12-1.44 14.55C215.44 33 212 34.71 206 34.71h-17.17zM204.71 29c3.15 0 4.9-.62 5.94-2.06 1.13-1.6 1.44-3.67 1.44-9.55s-.26-7.94-1.34-9.44-2.58-2-5.62-2h-9.7V29zM242.83 10.37v-.62c0-3.77-1.08-4.54-6.39-4.54-6.25 0-7.44.79-7.44 4.69 0 2.48.61 3.61 2.27 4.13.87.26 1.18.26 6.55.57 5.77.36 7.73.72 9.38 1.9 2.08 1.5 2.8 3.5 2.8 7.84s-.62 6.61-2.11 8.1c-2.07 2-4.7 2.58-11.87 2.58-6.24 0-8.35-.36-10.62-1.7a6.53 6.53 0 0 1-2.74-4.23 25.45 25.45 0 0 1-.41-5.26h6.35c0 2.58.15 3.45.72 4.33.82 1.39 1.65 1.55 7 1.55 3.87 0 4.95-.16 5.93-.93s1.24-2 1.24-4.33-.51-3.35-1.91-3.82c-.82-.31-.82-.31-6.55-.67s-7.12-.57-8.87-1.39c-2.73-1.34-3.82-3.82-3.82-8.56 0-4.08.88-6.61 2.74-7.95C227.2.46 229.88 0 236.28 0s9.23.67 10.93 2.58c1.35 1.49 2 3.56 2 6.55v1.24z" fill="#fff"/></svg>