<?xml version="1.0" encoding="UTF-8"?><svg id="logos" xmlns="http://www.w3.org/2000/svg" width="250" height="123" viewBox="0 0 250 123"><polygon points="20.18 13.01 23.05 20.84 25.8 19.63 24.48 10.58 20.18 13.01" fill="#fff"/><polygon points="27.47 6.62 28.58 14.88 31.42 14.88 31.87 6.62 27.47 6.62" fill="#fff"/><path d="M56.12,0l-12.46,3.01,1.76,3.6-8.82,27.01,7.28,3.3,2.43-9.48,6.06-.11,1.04,6.62,6.46-3.2L56.12,0Zm-7.72,19.52l2.61-7.72,1.36,7.72h-3.97Z" fill="#fff"/><path d="M118.97,2.21l-12.12,1.76-10.25,26.46,8.05-.88,1.1-4.63,5.07-1.21,1.43,7.61,7.94-3.8-1.22-25.3Zm-8.48,14.55h-2.98l2.98-6.62v6.62Z" fill="#fff"/><polygon points="62.39 4.83 60.56 15.66 66.5 14.08 64.22 30.75 72.33 28.13 74.27 13.45 78.61 11.8 78.61 4.83 62.39 4.83" fill="#fff"/><polygon points="83.18 4.83 80.78 14.42 87.06 11.8 83.06 31.31 91.17 29.84 94.14 11.8 99.62 11.8 99.62 4.83 83.18 4.83" fill="#fff"/><path d="M139.48,1.51l-2.06,1.5s-11.76-.36-14.16,12.89c-2.4,13.25,6.97,13.02,9.37,12.22s7.65-2.28,7.65-2.28v-6.51s-11.88,5.14-10.56-2.57c1.31-7.71,9.28-6.62,9.28-6.62l.49-8.63Z" fill="#fff"/><polygon points="144.74 2.21 143.14 33.38 152.05 29.95 152.05 24.47 153.76 21.62 161.87 31.9 166.55 26.07 157.64 17.79 166.55 3.8 160.5 .14 151.02 12.36 151.02 .71 144.74 2.21" fill="#fff"/><path d="M60.86,45.98c-2.71,0-4.91,2.2-4.91,4.91s2.2,4.91,4.91,4.91,4.91-2.2,4.91-4.91-2.2-4.91-4.91-4.91Zm-.11,5.65c-1.16,0-2.11-.94-2.11-2.11s.94-2.11,2.11-2.11,2.11,.94,2.11,2.11-.94,2.11-2.11,2.11Z" fill="#fff"/><polygon points="67.36 38.6 66.7 43.9 68.44 43.54 66.7 56.36 69.16 57.81 69.65 52.09 73.8 51.63 74.4 47.42 70.55 47.42 70.97 43.72 76.69 42.34 76.69 38.6 67.36 38.6" fill="#fff"/><polygon points="90.2 39.69 89.14 44.12 95.14 44.12 94 55.79 96.59 54.7 97.72 44.41 101.72 44.12 101.72 39.69 98.72 40.41 90.2 39.69" fill="#fff"/><polygon points="105.86 41.41 102.43 56.7 106.44 55.79 107.5 50.13 111.15 50.13 111.15 54.13 114.15 54.84 116.3 40.41 113.87 40.41 111.87 46.7 108.39 46.7 108.99 41.55 105.86 41.41" fill="#fff"/><polygon points="121.74 39.69 118.97 51.54 121.31 53.72 127.93 52.74 127.93 49.15 121.81 49.64 122.65 46.71 127.93 46.05 128.7 44.08 123.83 44.01 124.27 41.9 129.19 41.69 129.19 39.69 121.74 39.69" fill="#fff"/><path d="M60.75,80.55l-2.65-20.44-9.34,2.02-7.82,20.44,4.29-.88,2.78-5.93,7.19-.25-.25,7.07,5.8-2.02Zm-9.74-9.21l2.4-5.93,.65,5.93h-3.05Z" fill="#fff"/><path d="M98.42,63.26h-2.99l-8.55,19.31,6.81,2.65,1.74-6.18,3.69,.13,1.14,5.05,6.56-2.27-8.39-18.68Zm-1.83,11.86l1.31-4.21,1.82,4.29-3.13-.08Z" fill="#fff"/><polygon points="59.49 83.32 65.76 83.32 70.22 75.2 73.75 82.57 80.06 75.2 83.47 85.72 89.14 80.46 82.58 63.26 75.01 72.22 69.59 64.39 59.49 80.04 59.49 83.32" fill="#fff"/><polygon points="107.5 63.26 106.81 68.37 115.31 68.37 106.04 80.21 108.39 87.44 125.14 80.95 125.14 74.24 115.59 77.21 126.32 63.26 107.5 63.26" fill="#fff"/><polygon points="131.58 59.32 129.72 63.26 136.75 63.26 137.93 57.81 131.58 59.32" fill="#fff"/><polygon points="129.19 67.18 136.36 67.18 135.37 82.57 129.19 82.57 129.19 67.18" fill="#fff"/><polygon points="143.14 59.32 145.6 57.81 152.88 71.34 154.85 59.32 159.57 57.81 156.23 80.95 151.35 82.57 145.01 69.34 145.01 80.16 139.11 82.57 143.14 59.32" fill="#fff"/><path d="M173.63,55.92l-1.29,5.22s-10.04,2.9-8.1,10.14c2.72,10.14,8.85-6.51,8.85-6.51l5.15-.45-.42,4.44-2.31,1.77s-1.14,12.03-8.55,12.64-10.22-7.11-9.84-11.81,5.45-16.88,16.5-15.44Z" fill="#fff"/><polygon points="237.59 85.72 236.15 94.42 238.94 94.42 241.73 85.72 237.59 85.72" fill="#fff"/><polygon points="245.69 79.72 243.92 89.18 246.54 89.18 250 81.33 245.69 79.72" fill="#fff"/><polygon points="1.7 90 0 95.62 3.18 95.62 .82 119.15 11.77 117.25 11.77 112.26 5.88 112.26 6.68 106.11 10.81 105.27 11.77 101.77 6.36 101.77 6.89 95.09 15.9 91.91 15.9 86.61 1.7 90" fill="#fff"/><polygon points="20.25 92.65 17.07 118.52 28.62 115.66 29.58 108.45 23.32 109.19 25.12 93.92 20.25 92.65" fill="#fff"/><polygon points="31.42 89.68 31.42 92.65 35.09 93.18 34.24 115.55 42.83 116.5 42.83 107.92 38.06 108.34 38.48 103.57 42.83 101.45 42.21 99.86 38.91 99.86 39.86 94.77 44.52 94.03 44.52 89.68 31.42 89.68" fill="#fff"/><path d="M59.49,90.43c.34,.02-2.35,6.36-2.35,6.36,0,0-5.7,.42-6.29,7.53-.6,7.1,3.54,9.44,5.13,8.37s3.52-2.65,3.52-2.65v4.88s-6.06,8.37-10.83,2.23-2.86-17.92,0-21.1,5.87-5.94,10.83-5.62Z" fill="#fff"/><polygon points="63.82 90.4 62.33 99.97 67.85 98.48 65.09 119.39 69.01 117.46 72.3 97.95 77.07 96.89 77.07 90.4 63.82 90.4" fill="#fff"/><path d="M92.87,98.16c.95-4.35-5.3-9.22-13.04-6.89l-3.71,26.4,3.71-.53,.53-5.51,1.8-1.06,3.96,9.33,4.63-3.39-3.87-9.12s5.04-4.88,5.99-9.22Zm-6.78,1.64c-.42,3.02-4.66,3.76-4.66,3.76l1.48-7.53s3.6,.74,3.18,3.76Z" fill="#fff"/><ellipse cx="98.64" cy="94.93" rx="2.79" ry="3.45" fill="#fff"/><polygon points="95.2 103.09 100.39 102.62 98.16 116.93 93.82 118.62 95.2 103.09" fill="#fff"/><polygon points="106.04 93.92 103.36 121.8 108.24 119.9 109.4 110.62 113.54 109.72 114.39 105.28 108.87 105.28 108.87 100.28 115.02 98.91 117.04 91.49 106.04 93.92" fill="#fff"/><polygon points="121.06 90.67 121.06 96.89 125.62 96.04 124.88 90.4 121.06 90.67" fill="#fff"/><polygon points="120.43 102.62 118.97 120.74 125.62 115.02 125.62 102.62 120.43 102.62" fill="#fff"/><polygon points="130.18 96.89 128.59 120.74 136.97 118.2 136.97 113.54 132.09 113.96 132.3 110.62 135.91 109.51 136.36 105.28 132.78 105.28 132.78 102.62 139.11 97.74 139.11 92.55 130.18 96.89" fill="#fff"/><path d="M144.07,93.18v28.62s13.78-7,13.78-17.81c0-13.33-13.78-10.81-13.78-10.81Zm5.27,16.86v-8.48s3.85,.95,3.74,3.73c-.11,2.77-3.74,4.75-3.74,4.75Z" fill="#fff"/><path d="M202.27,90.07l-11.34,30.68,4.98,.42,2.86-5.62,4.45-.42,.85,6.04,4.35-3.5s-.85-14.95-6.15-27.6Zm-1.8,17.33l1.7-5.84,1.91,5.09-3.6,.75Z" fill="#fff"/><polygon points="172.37 92.02 179.69 102.62 187.43 90.07 191.56 116.4 183.19 120.11 182.45 108.76 176.93 119.26 172.9 110.04 169.41 119.15 164.53 116.29 172.37 92.02" fill="#fff"/><polygon points="214.46 92.99 210.96 119.37 216.9 117.35 217.54 110.89 223.37 121.17 227.29 120.11 230.15 89.18 227.5 88.62 223.37 105.8 216.9 92.99 214.46 92.99" fill="#fff"/></svg>