<svg xmlns="http://www.w3.org/2000/svg" width="260" height="95" viewBox="0 0 260 95"><path d="M20.64,11.32c.58-.25,1-.45,1.43-.62a2.87,2.87,0,0,1,3.25.46A2.72,2.72,0,0,1,26,14.34a5.8,5.8,0,0,1-1.45,2.15,5.6,5.6,0,0,1-6.2.83,5,5,0,0,1-3-4.9A9,9,0,0,1,23.14,3.6a60.94,60.94,0,0,1,8-.49c2.6,0,5.2.15,7.8.14,1.08,0,1.47.39,1.55,1.44.33,4.75.72,9.49,1.09,14.23.07.91.14,1.82.2,2.73l.29.1c.32-.5.66-1,1-1.52q3.79-6.94,7.56-13.9c.38-.7.73-1.42,1.05-2.15A1.4,1.4,0,0,1,53,3.27H65.16A5.63,5.63,0,0,1,66,3.5c-.19,1.12-.33,2.22-.59,3.29-.06.23-.51.49-.82.53-3.06.5-3.25,1.54-3.72,4.08-1,5.38-1.83,10.8-2.73,16.2-.28,1.7.06,2.14,1.79,2.4,1.33.19,1.45.38,1.14,1.73-.57,2.46-.57,2.46-3.14,2.46l-11.17,0c-.51,0-1-.07-1.76-.13a34.11,34.11,0,0,1,.7-3.36c.08-.29.66-.54,1-.62,2.8-.55,3.16-.82,3.7-3.71.49-2.63.83-5.29,1.28-7.93.38-2.28.8-4.54,1.21-6.81l-.24-.12c-.52.9-1.05,1.79-1.54,2.7-1.12,2.07-2.21,4.16-3.34,6.23-2.22,4.11-4.51,8.19-6.67,12.34a2.23,2.23,0,0,1-2.54,1.42c-1.14-.12-2.3,0-3.65,0l-.91-10.58c-.29-3.46-.58-6.92-1.11-10.41-.15.81-.32,1.62-.43,2.43a33.43,33.43,0,0,1-5.58,14.8C22,37.65,14,40.81,5.55,38.1,1.46,36.79-1,31.85.36,27.39a12.42,12.42,0,0,1,13-8.79c2.18.26,3.47,1.19,3.91,2.83A3.53,3.53,0,0,1,16,25.36a4.17,4.17,0,0,1-4.73.29c-1-.77-1.9-1.73-3.28-.93a5.09,5.09,0,0,0-2.71,4C5,31.44,6.5,33.41,9.46,33.93a13,13,0,0,0,12.81-4.56,20.12,20.12,0,0,0,4.44-7.49c1.09-3.79,2-7.65,2.76-11.52.43-2.12-.18-2.64-2.35-2.72a7.75,7.75,0,0,0-5.54,1.53A2,2,0,0,0,20.64,11.32Z" fill="#fff"/><path d="M58.85,46.47l.78-.3c1.88-.73,3.52-.31,4.35,1.11a4,4,0,0,1-1,4.58c-1.91,1.68-5.63,2-7.43.75a5.94,5.94,0,0,1-1.87-7.3c1.46-3.5,4.32-5.31,7.86-6a37.71,37.71,0,0,1,6.8-.6c4.48-.06,9,0,13.44.1,1.16,0,2.32.14,3.47.27,5.61.68,7.82,5.45,6.19,10.32a9.66,9.66,0,0,1-8,6.92,76.57,76.57,0,0,1-8.84.56c-1.68.08-1.7,0-2,1.65s-.54,3.15-.81,4.73c-.23,1.32.1,1.81,1.42,2.13,2,.49,2,.49,1.64,2.57-.3,1.64-.3,1.65-2,1.66q-6.18,0-12.36,0c-1.42,0-1.56-.19-1.31-1.53,0-.2.08-.4.11-.59.28-1.7.28-1.7,2-2.07a3.11,3.11,0,0,0,2.8-2.85q1.52-8.68,3-17.37c.18-1.07-.24-1.84-1.24-2a7.47,7.47,0,0,0-6.68,2.2,1.82,1.82,0,0,0-.32.51C58.79,46.05,58.84,46.18,58.85,46.47Zm14.9,6a10.51,10.51,0,0,0,4.93,0A6.14,6.14,0,0,0,83.35,46a2.83,2.83,0,0,0-2.19-2.69,15.88,15.88,0,0,0-3.77-.39c-1.57,0-2.21.63-2.49,2.19-.35,1.92-.62,3.86-.92,5.79C73.89,51.39,73.82,51.93,73.75,52.45Z" fill="#fff"/><path d="M80.08,31.58c-2,.94-3.69,1.92-5.51,2.57a8,8,0,0,1-7-1,3.3,3.3,0,0,1-1.51-3.74c.56-3,1.09-6.05,1.64-9.08,0-.24.09-.47.14-.71.35-1.94.11-2.48-1.82-2.92-1.14-.26-1.27-.79-1.13-1.77.4-2.71.13-2.31,2.7-2.59,2.1-.24,4.17-.71,6.26-1,.88-.14,1.79-.18,2.92-.29-.09.86-.13,1.47-.23,2.08C75.8,17.64,75,22.17,74.3,26.71c-.13.82-.4,1.73.43,2.33s1.69.15,2.5-.19c.22-.09.43-.2.76-.36l1.17,1.08c.93-3.2,3.58-4,6.25-1.92.59.47,1.1,1.05,1.66,1.56a4.76,4.76,0,0,0,5.34.77,2.28,2.28,0,0,0,1.42-2.29c0-1-.77-1.42-1.61-1.7-2-.69-4.12-1.3-6.13-2.07-3.67-1.4-4.78-5.05-2.8-8.45,1.36-2.36,3.58-3.42,6-4.1a17.1,17.1,0,0,1,12.18.94,5.15,5.15,0,0,1,2,1.69,2.59,2.59,0,0,1-1.89,4.06,3.76,3.76,0,0,1-3.67-1.56A4.23,4.23,0,0,0,92.42,15a2,2,0,0,0-1.33,1.81,1.74,1.74,0,0,0,1.36,1.76c1,.37,2.11.72,3.17,1.08,1.22.41,2.43.82,3.63,1.25,4.71,1.66,4.55,6.41,2.25,9.14a12,12,0,0,1-6.17,3.74,18.68,18.68,0,0,1-13.33-1A20.06,20.06,0,0,1,80.08,31.58Z" fill="#fff"/><path d="M156.24,59.31A11.54,11.54,0,0,0,153.79,64a42.22,42.22,0,0,0-1.19,4.27c-.23.91-.66,1.37-1.66,1.32-1.48-.07-3,0-4.44,0-1.18,0-1.36-.16-1.17-1.36.56-3.39,1.17-6.77,1.77-10.16.81-4.52,1.65-9,2.46-13.57.28-1.55-.05-2-1.61-2.33-.39-.08-.78-.17-1.16-.28-.11,0-.19-.14-.42-.32a27.07,27.07,0,0,1,.47-3,1.33,1.33,0,0,1,.95-.68c2.51-.45,5-.81,7.56-1.26s2.77-.13,2.32,2.28c-1,5.31-1.94,10.62-2.89,15.93a4.24,4.24,0,0,0,0,1.67l.78-1a24.1,24.1,0,0,1,8.74-7.86c2.38-1.15,4.84-1.91,7.52-1a2.41,2.41,0,0,1,2,2.38,3,3,0,0,1-1.9,3.15,4.81,4.81,0,0,1-4.06-.16,3.2,3.2,0,0,0-4.46,1.38,1.14,1.14,0,0,0-.18.68c.43,2.72.6,5.5,2,8,1.27,2.19,2.77,2.74,5.13,1.78a1.34,1.34,0,0,1,1.77.45c1.62,1.87,1.64,2.31-.49,3.48a20.14,20.14,0,0,1-4.87,2c-4,.93-7.15-.82-8.8-4.79a49.28,49.28,0,0,1-1.47-4.8C156.42,59.88,156.35,59.67,156.24,59.31Z" fill="#fff"/><path d="M111.06,47.66c.17-1,1.07-1.08,2-1.06l3.84,0c.71,0,1,.34.84,1.08-.82,4.64-1.61,9.29-2.42,13.93,0,.32-.12.63-.17.95-.23,1.67.76,2.5,2.39,2s2.28-.31,3.13,1.18a1.17,1.17,0,0,1-.06,1.06c-1.86,2.48-6.86,3.9-9.76,2.65a20.59,20.59,0,0,1-3.2-2.15l.09-.33-1.39,1.06c-4,3-9.6,2.48-12.57-1.2a10.54,10.54,0,0,1-2.1-7.56,13.58,13.58,0,0,1,14-13C107.48,46.38,109.18,47.16,111.06,47.66ZM99.58,60.79c0,.46,0,1.06.11,1.65.39,2.43,2.52,3.53,4.63,2.26a7,7,0,0,0,2.29-2.37c1.78-3,2.47-6.46,3.14-9.87a1.15,1.15,0,0,0-.31-.94,4.64,4.64,0,0,0-6.65.54A14.21,14.21,0,0,0,99.58,60.79Z" fill="#fff"/><path d="M249.46,46.21a19,19,0,0,1,7.65,1.37,7.56,7.56,0,0,1,2.26,1.69,2.36,2.36,0,0,1,.37,2.7,2.67,2.67,0,0,1-2.24,1.6,3.75,3.75,0,0,1-3.63-1.65,4.2,4.2,0,0,0-4.09-1.75,4.08,4.08,0,0,0-1.76.65,1.71,1.71,0,0,0,.22,3.09c1,.49,2.18.78,3.27,1.18,1.58.56,3.19,1,4.72,1.73a4.74,4.74,0,0,1,2.82,5.29,7.09,7.09,0,0,1-3.16,5c-3.4,2.44-7.25,3-11.29,2.79a16,16,0,0,1-7-1.93,3.61,3.61,0,0,1-2.12-2.72c-.24-2.35,2-4,4.43-3a10.34,10.34,0,0,1,3,2.15,4.84,4.84,0,0,0,5.51,1A2.33,2.33,0,0,0,250,63.29c0-1.09-.78-1.49-1.65-1.79l-5.69-1.88c-2.23-.73-3.85-2.08-4.1-4.51a6.68,6.68,0,0,1,2.94-6.44A14.13,14.13,0,0,1,249.46,46.21Z" fill="#fff"/><path d="M183.18,59.83c-1.05,4.22,1.39,5.75,4.57,5.52a11.69,11.69,0,0,0,6.59-2.92c1.2-1,1.22-.94,2.22.14,1.6,1.73,1.55,2.07-.39,3.49-3.23,2.37-6.74,4-10.85,3.9-3.51-.1-6.61-1.22-8.8-4.14s-2.2-6.07-1.12-9.26c2.8-8.23,12.85-11.91,19.59-9.74,3,1,4.38,2.93,4.11,5.8a5.7,5.7,0,0,1-2.9,4.32,17.8,17.8,0,0,1-7.49,2.33c-1.46.21-2.94.28-4.41.42Zm.39-3.77a2.47,2.47,0,0,0,.68.2,12.15,12.15,0,0,0,6.69-1.94,4,4,0,0,0,1.28-1.8,1.45,1.45,0,0,0-.89-2.06,5,5,0,0,0-3.11-.06A8.71,8.71,0,0,0,183.57,56.06Z" fill="#fff"/><path d="M145.38,26.3l2.3,2.45a16.1,16.1,0,0,1-4.33,3.47,15.45,15.45,0,0,1-10.14,2.08c-7.48-1.18-10.17-7.52-7.76-14,2.61-7,11.91-11.13,19.14-9,2.21.65,4,2,4.26,4.5a5.52,5.52,0,0,1-2.76,5.47c-2.55,1.7-5.46,2.19-8.39,2.63a32.46,32.46,0,0,1-3.94.27c-.84,0-1.22.3-1.27,1.18a3.92,3.92,0,0,0,4,4.53c2.9.14,5.24-1.24,7.5-2.81.29-.21.57-.44.87-.64A2.26,2.26,0,0,1,145.38,26.3Zm-11.74-5.53c2.55-.05,5.08-.34,7.18-2.12a2.49,2.49,0,0,0,.93-3,2.73,2.73,0,0,0-3-1c-2.08.34-5.11,3.63-5.3,5.76C133.48,20.46,133.54,20.53,133.64,20.77Z" fill="#fff"/><path d="M109.94,15.62l-2.85-.27a28.29,28.29,0,0,1,.45-2.84,1.16,1.16,0,0,1,.75-.64c3.36-.95,5.27-3.34,6.45-6.43a1.48,1.48,0,0,1,1.66-1.16c.91,0,1.81,0,3,0L118.26,11a10.14,10.14,0,0,0,1.2.17c.8,0,1.6,0,2.4,0,2.53,0,2.53,0,2,2.56-.35,1.79-.38,1.81-2.16,1.82-1.12,0-2.24,0-3.36,0a1,1,0,0,0-1.13.95c-.59,3.74-1.22,7.49-1.8,11.24-.21,1.37.61,2.09,2,1.62a24.23,24.23,0,0,0,3.1-1.55c.27-.14.53-.32.91-.55.56.89,1.15,1.69,1.59,2.56a1.14,1.14,0,0,1-.23,1c-3.54,3.05-7.52,4.54-12.19,3.16-2.64-.78-3.36-2-2.92-4.8.66-4.06,1.41-8.11,2.11-12.17C109.83,16.59,109.87,16.17,109.94,15.62Z" fill="#fff"/><path d="M129.65,69.47h-7.28c.25-1.52.45-2.89.7-4.24.66-3.66,1.34-7.31,2-11,.26-1.45,0-1.78-1.42-2.05s-1.57-.35-1.29-1.87c.49-2.7.25-2.18,2.73-2.49,1.93-.24,3.83-.71,5.76-1,.84-.14,1.71-.15,2.74-.23l-.14,2.52c.84-.6,1.51-1.12,2.22-1.57a7.34,7.34,0,0,1,7.29-.62c2.25,1,2.17,4.26.64,5.43a4.87,4.87,0,0,1-5.49.44c-2.28-1.33-3.35-1-4.67,1.33A21.28,21.28,0,0,0,131.29,61c-.41,2.32-.82,4.64-1.25,7C129.94,68.42,129.79,68.91,129.65,69.47Z" fill="#fff"/><path d="M201.38,69.59c.3-2.08.51-3.94.83-5.77.55-3.23,1.16-6.45,1.73-9.68.24-1.36,0-1.67-1.4-1.94s-1.46-.39-1.16-1.75c.57-2.59-.09-2.35,2.85-2.6,1.82-.16,3.61-.64,5.41-1,.31-.06.62-.17.94-.2,1.87-.18,2-.07,1.77,1.78a4,4,0,0,0,.09.55c.42-.29.76-.51,1.08-.74,1.66-1.18,3.41-2.16,5.52-2a7.65,7.65,0,0,1,2.62.65,3.16,3.16,0,0,1,.44,5.68,4.44,4.44,0,0,1-5.27.13c-2-1.23-3.16-1-4.25,1.06A17,17,0,0,0,211,57.89c-.79,3.34-1.43,6.72-2.11,10.09-.32,1.56-.37,1.62-1.94,1.61Z" fill="#fff"/><path d="M162.25,11.21l-.15,2.47c.56-.41.93-.66,1.26-.94a7.94,7.94,0,0,1,6.24-1.91,4.57,4.57,0,0,1,.82.16c2.06.57,3.13,1.82,3,3.49a4,4,0,0,1-3.49,3.44,4.81,4.81,0,0,1-3.63-.87c-1.42-1-2.18-.88-3.33.4a11.66,11.66,0,0,0-2.51,5.63c-.66,3.08-1.2,6.19-1.77,9.3-.31,1.72-.28,1.71-2,1.72-1.44,0-2.88,0-4.32,0-1.16,0-1.37-.22-1.17-1.34.8-4.41,1.62-8.81,2.43-13.21.06-.31.11-.63.14-.95.15-1.3-.09-1.64-1.35-1.93-1.6-.37-1.6-.37-1.35-1.92.07-.4.16-.79.21-1.19a1.14,1.14,0,0,1,1.26-1.14,21.88,21.88,0,0,0,7.3-1.21A7.84,7.84,0,0,1,162.25,11.21Z" fill="#fff"/><path d="M106.58,84.06c0-2.76,0-5.51,0-8.27,0-1.27.13-1.43,1.36-1.4a51.57,51.57,0,0,1,6.93.39,8.31,8.31,0,0,1,6.9,7.83,23.21,23.21,0,0,1,0,3.23,8.11,8.11,0,0,1-7.41,7.8c-2.22.21-4.47.1-6.71.14-1,0-1.1-.55-1.09-1.33C106.59,89.66,106.58,86.86,106.58,84.06ZM110.47,90c1.48-.12,2.74-.15,4-.34a3.11,3.11,0,0,0,2.8-2.28,14.12,14.12,0,0,0,.61-3.84c-.07-3-1.77-4.69-4.73-5-.51-.06-1,0-1.56-.06-.82,0-1.13.35-1.11,1.16,0,1.87,0,3.75,0,5.62Z" fill="#fff"/><path d="M225.28,93.74a33.79,33.79,0,0,1-3.53,0c-.33,0-.74-.6-.86-1-1.1-3.48-.62-2.73-3.91-2.8-1.23,0-2.47,0-3.71,0a1.35,1.35,0,0,0-1.54,1,5.42,5.42,0,0,1-.22.56c-.35.73-.55,1.94-1.07,2.1a13.39,13.39,0,0,1-3.68.1c.17-.64.24-1,.39-1.44,2.19-5.62,4.4-11.22,6.57-16.85a1.32,1.32,0,0,1,1.42-1c3,0,2.6-.36,3.66,2.34L225,92.57C225.09,92.86,225.13,93.17,225.28,93.74Zm-7.06-8-2.05-5.22-.29,0-2.07,5.2Z" fill="#fff"/><path d="M16.76,87.67A29.19,29.19,0,0,1,18.83,90c.15.22-.1.91-.37,1.2a9.94,9.94,0,0,1-8.15,3,9.54,9.54,0,0,1-9.18-7A10.35,10.35,0,0,1,4.74,75.84c4.08-3,10.77-2.32,14,1.42.15.18.38.52.33.59a15.31,15.31,0,0,1-2,2.28c-.2.16-1-.2-1.39-.48a8.36,8.36,0,0,0-4.58-1.84,6.28,6.28,0,0,0-6.59,5.77,6.14,6.14,0,0,0,5.66,6.78,7.19,7.19,0,0,0,5.43-1.74Z" fill="#fff"/><path d="M255,87.72c.75.76,1.5,1.41,2.12,2.18A1.17,1.17,0,0,1,257,91c-2.78,3.2-8.62,4.15-12.51,2.28-4.61-2.23-6-7.36-5.15-11.53a9.18,9.18,0,0,1,6.91-7.34c4.06-1.18,7.65-.1,10.76,2.71.61.55.63,1.07,0,1.61l-.35.32c-1.51,1.35-1.49,1.32-3.14.17a6.9,6.9,0,0,0-6.71-1,6.27,6.27,0,0,0-3.9,6.93,6,6,0,0,0,5.56,5.23,6.64,6.64,0,0,0,5.76-2.07A7.72,7.72,0,0,1,255,87.72Z" fill="#fff"/><path d="M47.28,81.89c0,2,.07,4.08,0,6.11a6.11,6.11,0,0,1-2.2,4.86,7.08,7.08,0,0,1-6.83,1,5.75,5.75,0,0,1-3.88-4.76,8.21,8.21,0,0,1-.18-1.78q0-5.76,0-11.51c0-1.25.11-1.34,1.38-1.38C38,74.32,38,74.32,38,76.82c0,3.31,0,6.63,0,9.94a7,7,0,0,0,.16,1.66,2.38,2.38,0,0,0,2.51,2,2.42,2.42,0,0,0,2.57-2,7.26,7.26,0,0,0,.12-1.55c0-3.67,0-7.35,0-11,0-1.26.13-1.4,1.37-1.4,2.63,0,2.59-.33,2.55,2.47,0,1.67,0,3.35,0,5Z" fill="#fff"/><path d="M141.13,89.89h5.69c1,0,1.05.68.92,1.32-.17.86.76,2.15-.8,2.49a10.35,10.35,0,0,1-2.16.06c-2.12,0-4.24,0-6.36,0-1,0-1.34-.38-1.34-1.35,0-5.56,0-11.12,0-16.68,0-1,.34-1.37,1.34-1.36q4,.06,8,0c1,0,1.37.34,1.33,1.34-.1,2.81.26,2.62-2.58,2.62-1,0-2,0-3,0s-1.2.16-1.25,1.52c0,.86.06,1.5,1.18,1.47,1.48,0,3,0,4.44,0,.88,0,1.21.34,1.21,1.2,0,3.22.05,2.72-2.58,2.66-1.31,0-2.62,0-4.08,0Z" fill="#fff"/><path d="M180.86,89.86,183.79,88c.35.39.64.76,1,1.07a6.6,6.6,0,0,0,1.4,1.09,2,2,0,0,0,2.65-.67,1.76,1.76,0,0,0-.56-2.34c-1-.89-2-1.71-3-2.62a19.4,19.4,0,0,1-2.44-2.61c-1.52-2.13-1.53-3.9-.23-5.77a5.51,5.51,0,0,1,5.76-2A7.63,7.63,0,0,1,192,76.34a1,1,0,0,1,0,1.55l-.52.49c-1.45,1.24-1.44,1.23-3,.05a2.9,2.9,0,0,0-.81-.51,1.59,1.59,0,0,0-2,.44c-.51.71-.08,1.31.45,1.78,1.67,1.49,3.41,2.9,5,4.44,2.51,2.39,2.09,7.07-.71,8.68C186.85,95.39,182.71,94,180.86,89.86Z" fill="#fff"/><path d="M67.25,90c1.45,0,2.68,0,3.91,0,1,0,1.35.32,1.39,1.3.1,2.52.1,2.56-2.41,2.57-1.84,0-3.68,0-5.52,0-.91,0-1.28-.34-1.28-1.27q0-8.46,0-16.91c0-.84.28-1.23,1.18-1.26,2.73-.09,2.73-.12,2.72,2.61,0,3.8,0,7.59,0,11.39Z" fill="#fff"/><path d="M227.25,48.87l3.23-2.43c-.33-.35-.4-.48-.49-.51a3.42,3.42,0,0,1-1.88-5.55,5,5,0,0,1,4-2.33c2.23-.07,3.48,1.25,3.41,3.65a9.19,9.19,0,0,1-2.87,6.16c-.69.72-1.47,1.35-2.21,2-1.07,1-1.21,1-2.27,0C228,49.71,227.81,49.49,227.25,48.87Z" fill="#fff"/><path d="M69.37,5.1a5.17,5.17,0,0,1,6.08-5,3.55,3.55,0,0,1,2.88,4.46A5.48,5.48,0,0,1,74,8.82C71.33,9.45,69.39,7.82,69.37,5.1Z" fill="#fff"/></svg>