<svg xmlns="http://www.w3.org/2000/svg" width="200" height="96" viewBox="0 0 200 96"><path d="M74.36 35.62a13.39 13.39 0 0 1-3.24 4.73A14.81 14.81 0 0 1 66 43.43a20.41 20.41 0 0 1-13.22 0 14.36 14.36 0 0 1-5-3.08 13.33 13.33 0 0 1-3.16-4.73 16.51 16.51 0 0 1-1.1-6.13V6.29h8.98v22.46a10.16 10.16 0 0 0 .4 2.9 7.25 7.25 0 0 0 1.21 2.44 5.64 5.64 0 0 0 2.15 1.71 8.62 8.62 0 0 0 6.47 0 5.82 5.82 0 0 0 2.18-1.71 6.73 6.73 0 0 0 1.21-2.44 10.92 10.92 0 0 0 .37-2.9V6.29h9v23.2a16.12 16.12 0 0 1-1.13 6.13zM115.72 43.53V18.92a14.63 14.63 0 0 0-.15-2.13A5.27 5.27 0 0 0 115 15a3.36 3.36 0 0 0-1.13-1.18 3.47 3.47 0 0 0-1.87-.45 3.7 3.7 0 0 0-1.92.48 4.22 4.22 0 0 0-1.37 1.26 5.38 5.38 0 0 0-.81 1.82 8.29 8.29 0 0 0-.27 2.13v24.47H99V18.29a6.26 6.26 0 0 0-.9-3.58 3.17 3.17 0 0 0-2.84-1.32A3.67 3.67 0 0 0 92.08 15 6.88 6.88 0 0 0 91 19v24.53h-8.73V7h8.36v3.63h.11A8.84 8.84 0 0 1 91.92 9a7.59 7.59 0 0 1 1.71-1.39 9.49 9.49 0 0 1 2.24-1 9.6 9.6 0 0 1 2.71-.37 9.39 9.39 0 0 1 4.81 1.16 8 8 0 0 1 3.08 3.32 10 10 0 0 1 3.36-3.27 9.77 9.77 0 0 1 5-1.21 9.42 9.42 0 0 1 4.5 1 8.45 8.45 0 0 1 2.92 2.52 10.58 10.58 0 0 1 1.6 3.47 15.08 15.08 0 0 1 .5 3.76v26.54zM164.32 43.53V18.92a14.63 14.63 0 0 0-.15-2.13 5.27 5.27 0 0 0-.58-1.77 3.36 3.36 0 0 0-1.13-1.18 3.47 3.47 0 0 0-1.87-.45 3.7 3.7 0 0 0-1.92.48 4.22 4.22 0 0 0-1.37 1.26 5.38 5.38 0 0 0-.81 1.82 8.29 8.29 0 0 0-.27 2.13v24.45h-8.62V18.29a6.26 6.26 0 0 0-.9-3.58 3.17 3.17 0 0 0-2.84-1.32 3.67 3.67 0 0 0-3.18 1.61 6.88 6.88 0 0 0-1.13 4v24.53h-8.68V7h8.36v3.63h.11A9.33 9.33 0 0 1 140.52 9a7.59 7.59 0 0 1 1.71-1.39 9.49 9.49 0 0 1 2.24-1 9.6 9.6 0 0 1 2.71-.37A9.36 9.36 0 0 1 152 7.45a8 8 0 0 1 3.08 3.32 10 10 0 0 1 3.36-3.27 9.77 9.77 0 0 1 5-1.21 9.42 9.42 0 0 1 4.5 1 8.45 8.45 0 0 1 2.92 2.52 10.58 10.58 0 0 1 1.6 3.47A15.08 15.08 0 0 1 173 17v26.53zM179.58 43.53V17.34h8.62v26.19zM54.43 94.62V54.2H81.6v8.22H63.85v7.66h16.78v7.82H63.85v8.39h18.78v8.33zM193.78 64.71a8.77 8.77 0 0 0-3.29-2.54 9.21 9.21 0 0 0-3.91-.94 11 11 0 0 0-2 .17 5 5 0 0 0-1.8.65 4.64 4.64 0 0 0-1.35 1.26 3.35 3.35 0 0 0-.54 2 3.21 3.21 0 0 0 .43 1.71 3.74 3.74 0 0 0 1.26 1.2 10.66 10.66 0 0 0 2 .94c.76.29 1.61.58 2.57.89 1.37.45 2.79 1 4.28 1.51a15.85 15.85 0 0 1 4.05 2.2 11.48 11.48 0 0 1 3 3.39 9.82 9.82 0 0 1 1.19 5.06 13.13 13.13 0 0 1-1.28 6A12.21 12.21 0 0 1 195 92.4a14.9 14.9 0 0 1-5 2.45 21 21 0 0 1-5.77.8 24 24 0 0 1-8.39-1.51 17.78 17.78 0 0 1-6.73-4.31l6.39-6.51a11.65 11.65 0 0 0 3.91 3.05 10.61 10.61 0 0 0 4.82 1.23 9.91 9.91 0 0 0 2.12-.23 5.24 5.24 0 0 0 1.79-.74 3.62 3.62 0 0 0 1.23-1.37 4.26 4.26 0 0 0 .46-2.06 3.27 3.27 0 0 0-.57-1.94 5.7 5.7 0 0 0-1.63-1.45 12.75 12.75 0 0 0-2.63-1.2c-1-.36-2.23-.75-3.56-1.17a32.53 32.53 0 0 1-3.8-1.49 12.7 12.7 0 0 1-3.31-2.19A10.22 10.22 0 0 1 172 70.5a11 11 0 0 1-.89-4.65 11.51 11.51 0 0 1 1.37-5.77 12 12 0 0 1 3.6-3.93 15.58 15.58 0 0 1 5-2.26 23.1 23.1 0 0 1 5.66-.71 21.16 21.16 0 0 1 7 1.25 18.14 18.14 0 0 1 6.26 3.71zM192.24 4c0-3.19-1.83-3.9-3.14-3.95h-.1c-3.42 0-4.11 2.17-5 3.46-.91-1.26-1.7-3.35-5-3.35h-.06c-1.32 0-3.36.66-3.36 3.87s6.05 11 8.42 11 8.24-7.9 8.24-11.03zM112.24 54.2h-9.47l-17 40.42h10.66l3-7.93H115l3.14 7.93H129zm-4.78 24.93c-1.49 0-5.31-4.89-5.31-6.92s1.28-2.42 2.12-2.44c2.08 0 2.58 1.32 3.15 2.11.58-.81 1-2.18 3.18-2.18h.06c.84 0 2 .48 2 2.49s-3.66 6.94-5.2 6.94zM49.76 79.27a8.9 8.9 0 0 0-1.76-2.8 9.16 9.16 0 0 0-2.62-2 11 11 0 0 0-3.23-1.06v-.11a10.2 10.2 0 0 0 4.8-3.17 8.39 8.39 0 0 0 1.82-5.57 8.85 8.85 0 0 0-4.51-8.24 14 14 0 0 0-4.45-1.66A24.88 24.88 0 0 0 35 54.2H15.42v8.34h3.49v23.75h-3.49v8.33H35a26.78 26.78 0 0 0 5.68-.6 15.13 15.13 0 0 0 4.94-2 10.5 10.5 0 0 0 3.48-3.62 11 11 0 0 0 1.31-5.57 9.3 9.3 0 0 0-.65-3.56zM33 87.8c-1.5 0-5.31-4.89-5.31-6.91s1.28-2.43 2.12-2.44c2.08 0 2.58 1.31 3.15 2.11.58-.81 1-2.18 3.18-2.18h.06c.83 0 2 .48 2 2.49S34.46 87.8 33 87.8zm0-17.13c-1.5 0-5.31-4.89-5.31-6.91s1.28-2.43 2.12-2.45c2.08 0 2.58 1.32 3.15 2.12.58-.82 1-2.19 3.18-2.19h.06c.83 0 2 .47 2 2.48s-3.74 6.95-5.2 6.95zM160.89 86.29l-5.47-9a12.1 12.1 0 0 0 6.16-4 10.73 10.73 0 0 0 2.23-6.91 11.82 11.82 0 0 0-1.31-5.82 10.62 10.62 0 0 0-3.5-3.73 14.78 14.78 0 0 0-5-2 26.78 26.78 0 0 0-5.68-.6h-18.76v8.34h3.36v32.05h9.54v-16h3.32l8.78 16h11.53v-8.33zM147.54 72c-1.76 0-6.24-5.74-6.24-8.12s1.51-2.84 2.49-2.86c2.44 0 3 1.55 3.7 2.48.69-1 1.2-2.56 3.73-2.56h.08c1 0 2.33.56 2.33 2.92S149.29 72 147.54 72zM36.14 16a15.66 15.66 0 0 0-4.84-5.71 19.54 19.54 0 0 0-6.83-3 33.52 33.52 0 0 0-7.79-.92H0V14h3.22v21.85H0v7.68h17.1a27.54 27.54 0 0 0 7.58-1.07 20 20 0 0 0 6.7-3.37 17.07 17.07 0 0 0 4.79-5.84A18.34 18.34 0 0 0 38 24.81 19.15 19.15 0 0 0 36.14 16zM19.8 32.91c-2.37 0-8.42-7.75-8.42-11s2-3.84 3.36-3.87h.06c3.3 0 4.09 2.09 5 3.36.92-1.3 1.61-3.46 5-3.46h.1c1.32 0 3.15.76 3.15 3.94s-5.87 11.03-8.25 11.03z" fill="#fff"/></svg>