<svg xmlns="http://www.w3.org/2000/svg" viewBox="0 0 200 184"><path d="M92.14 120.04c3.64.78 5.1 5.63 2.22 8.13-2.29 1.99-5.62 1.54-7.03-1.2-1.6-3.11.09-5.95 3.23-6.92h1.58zM64.32 39.75c5.34 1.12 7.25 8.48 2.94 11.88-3.29 2.59-7.73 1.92-9.81-1.76-2.47-4.36.03-8.84 4.59-10.12h2.28zM29.12 133.72c.17.13.37.22.59.13.61-.27 3.78-6.52 4.41-7.61.4-.69 2.06-3.68 2.48-4 .34-.26 1.04-.34 1.48-.42 1.25-.23 3.13-.46 4.39-.52 1.89-.09 1.67 1.85 1.82 3.39.56 5.87.2 12.06.31 17.99.02.86.51 3.57-.08 4.17-.75.77-5.44.08-6.6-.21-.99-.24-1.58-.23-1.72-1.45-.25-2.18-.08-4.58-.33-6.77-.02-.18-.06-.81-.38-.73-.98.14-2.48 4.02-3.37 4.38-.68.28-3.28.29-4.08.2-2.01-.23-2.71-3.88-4.67-4.26-.52 1.43.28 7.12-.37 8-.57.77-5.17.92-6.21.83-.88-.08-1.42-.07-1.52-1.01-.38-3.83.5-8.12.16-12 .37-3.74.15-7.61.48-11.35.17-1.87.35-2.05 2.29-1.97.99.04 4.68.58 5.32 1.17.35.33.59.96.81 1.4 1.73 3.41 3 7.22 4.77 10.63zM130.21 165.17h6.02l.15-7.34c.17-.73-.03-1.55.76-1.93.61-.29 3.9-.29 4.72-.2.61.07 1.34.33 1.63.9.21.43.33 2.2.36 2.8.31 6.13.05 12.32.15 18.47.03 2.11 1.03 4.25-1.97 4.49-1.06.09-4.77-.31-5.56-.95-.1-.08-.55-.82-.55-.87v-6.86h-5.39c0 1.39.58 6.58-.16 7.49s-4.77 1.3-5.93 1.19c-1.41-.14-1.87-.56-1.99-1.96-.44-5.28.56-11.07.16-16.42.35-1.66.07-3.37.16-5.05.03-.47.13-1.96.23-2.29.16-.5 1.11-.86 1.61-.92.83-.11 4.37-.12 4.96.24.14.08.35.25.41.38.03.07.24 1.4.24 1.5v7.33zM16.97 176.41c-.62.62.38 3.8-.75 4.86-.53.5-5.29 2.14-6.07 2.17-1.2.04-1.35-2.12-1.46-3.04-.36-3.06-.08-6.37-.15-9.47-.08-3.57-.67-8.36-.15-11.81.4-2.61 1.29-3.08 3.86-3.26 3.99-.28 11.26.15 14.11 3.32 3.58 3.99 4.21 14.51-1.91 16.55-2.35.79-5.11.18-7.48.68zm7.39-8.1c-.29.21-2.53-1.09-3.19.53-.85 2.07 2.06 3.57 3.61 4.17 1.18-.91 3.81-4.06 2.38-5.48-.68-.68-2.71-.42-2.8.78zM43.83.19c6.23-.61 17.59.04 21.63 5.52 3.58 4.86 4.64 15.05.72 19.9s-9.1 3.41-14.56 3.86c-1.6.7.2 5.29-1.36 7.03-.17.19-.4.39-.61.52-.73.45-7.49 2.75-8.17 2.72-1.74-.05-2.06-3.98-2.15-5.3-.37-5.35-.14-10.94-.22-16.32-.06-4.07-.57-8.35-.23-12.45.3-3.72 1.17-5.12 4.96-5.49zm18.02 18.06c-1.25-.72-3.31-1.25-4.29.15-2.06 2.95 2.65 5.48 4.86 6.36 1.93-1.72 4.31-4.03 3.98-6.85-.28-2.36-4.3-1.95-4.56.34zM5.09 40.5c6.17-.6 17.28.02 21.4 5.3 3.75 4.8 4.84 15.03 1.04 20-3.72 4.88-9.25 3.55-14.66 3.99-1.61.71.22 5.36-1.36 7.03-.48.52-1.55.91-2.23 1.18-.99.4-5.81 2.09-6.56 2.07C.94 80.01.69 76.37.57 75 .13 69.9.42 64.5.35 59.36c-.06-4.44-.61-9.12-.23-13.59.31-3.64 1.3-4.91 4.96-5.26zm18.02 18.06c-1.98-1.25-5.05-1-4.79 1.93.21 2.32 3.54 3.71 5.36 4.58 1.87-1.52 4.99-5.01 3.81-7.59-.65-1.42-4.39-.95-4.39 1.08zM124.99 121.35c.53-.53 1.97-.78 2.72-.84 3.87-.31 11.29.16 14.18 3.07s3.78 10.19 1.76 13.75c-1.46 2.58-3.77 3.35-6.6 3.52-.88.05-3.65-.18-4.2.08-1.1.52.18 3.83-.88 4.96-.3.32-1.27.62-1.73.8-.72.28-3.9 1.41-4.45 1.4-1.01-.03-1.21-1.66-1.32-2.44-.36-2.4-.1-4.97-.17-7.4-.12-4.25-.62-9.21-.33-13.41.06-.92.36-2.84 1.01-3.49zm16.06 10.55c-.79.18-1 1.21-1.14 1.22-1.66-1.13-3.9-.28-3.01 1.9.53 1.29 2.29 2.06 3.48 2.63.49-.03 2.3-2.4 2.54-2.94.77-1.76.37-3.31-1.87-2.81zM84.02 128.12c.29.27.48 1.64.51 2.09.21 2.66 0 5.4 0 8.04 0 3.27.45 8.33-.51 11.32-1.86 5.77-13.02 5.19-16.89 1.92-1.25-1.05.19-3.43 1.15-4.27 1.4-1.22 3.11.24 4.57.63 2.28.61 5.3.17 5.52-2.64.02-.23.12-.83-.24-.72-5.04 4.49-12.33-.55-12.44-6.55-.07-3.59 1.02-6.34 4.55-7.61 2.99-1.07 4.95-.02 7.81.75 0-1.07-.16-1.57.84-2.08.86-.43 4.44-1.53 5.14-.88zm-8.87 5.67c-3.04.42-3.72 5.95-.55 7.1 1.13.41 1.77.39 2.13-.79.28-.94.48-3.86.36-4.84-.12-1.06-.87-1.62-1.94-1.47zM119.26 108.13c-2.15.49-5.16.7-5.4-2.2-.17.04-.18.31-.32.48-2.12 2.59-7.65 1.87-8.98-1.33-2.02-4.88 1.36-10.3 6.85-8.51l1.91 1.11c.14-1.76.31-3.04-.44-4.69-.18-.39-1.22-1.91-1.04-2.17.23-.05.45-.18.69-.21 1.09-.14 3.55.41 4.64.76.12.04.27.06.35.18.4 1.91.79 3.81.9 5.76.16 2.61-.29 6.94.4 9.23.1.33.69 1.35.43 1.58zm-9.25-8.62c-2.93.47-1.9 5.02.61 4.95.91-.02 2.1-.56 2.76-1.17v-3.07c-.99-.52-2.24-.89-3.37-.71zM65.38 164.1c.62 2.61.95 5.53 1.79 8.08.51 1.55 1.09 2.77 1.97.56.6-1.53 1.24-7.38 2.37-8.05.76-.45 6.21.26 6.25.88-1.2 2.9-2.43 5.8-3.58 8.72-.97 2.46-1.57 5.17-3.05 7.37-2.14.14-4.33.15-6.47-.11-.83-1.41-1.14-3.07-1.61-4.63-.07-.23.1-.28-.32-.23-.1.77-1.12 4.49-1.59 4.81-.22.15-.88.22-1.18.25-1.16.1-3.63.13-4.76 0-.22-.03-.43-.05-.62-.18l-6.52-16.08c.34-.58 4.92-1.05 5.71-.93s1 .79 1.24 1.44c.58 1.53 1.3 7.02 2.16 7.78.11.1.2.24.38.21.57-.1 1.12-2.11 1.29-2.67.71-2.38.94-4.9 1.74-7.26.32-.38 4.55-.32 4.8.04zM91.87 97.21c.2-.64 2.94.14 3.41.42.62.37.71 1.15 1 1.75.84-1.8 1.91-2.66 3.99-2.28 1.6.29 2.34 1.89 2.34 3.39 0 .35-.12.64-.12.95-.01 1.82.2 4.2 0 5.93-.13 1.19-1.79 1.09-2.72 1.01-2.11-.18-1.34-1.27-1.32-2.8.02-1.07.11-3.32-.66-4.11-.98-1.01-1.48.56-1.56 1.37s.14 4.51-.11 4.86c-.28.39-2.63.83-3.15.79-.49-.04-1.11-.36-1.11-.9V97.23zM170.56 133.45c.36-1.33 1.87-3.19 3.29-3.43 7.55-1.28 5.78 6.7 5.73 11.24 0 .45.18.84.18 1.26 0 1.09.29 3.41-.74 4.01-.91.52-4.87.63-5.36-.45-.22-.49-.09-3.4-.09-4.18 0-1.64.41-3.61-.72-5.11-1.98-2.62-2.58 2.27-2.61 3.53-.03 1.12.49 4.81 0 5.52s-4.33 1.34-5.23 1.13c-1.73-.41-1.1-3.05-1.09-4.26.04-4.18-.11-8.37.07-12.55.11-.19.27-.27.48-.31.8-.15 3.64.57 4.39.98 1.06.57 1.01 1.86 1.7 2.64zM81.85 59.01c1.24-1.77 2.54-4.45 4.94-4.93 7.82-1.58 8.82 4.56 8.72 10.5-.06 3.42.14 8.58-.23 11.78-.07.6-.28 1.13-.83 1.44-1.22.68-6.97.8-7.72-.43-.57-2.91.98-12.63-1.84-14.25-.84-.48-1.66-.32-2.19.49-1.17 1.81-.91 7.52-.87 9.81.05 2.79 1.03 3.28-2.27 4.3-2.81.87-6.72 2.02-7.06-2.03-.29-3.4.25-7.19.24-10.67 0-.53-.24-1.03-.25-1.57-.02-3.01 0-6.03.05-9.04.51-1.51 6.17.25 7.26.86 1.31.73 1.62 2.41 2.04 3.75zM163.51 165.04c.19-.3 5.61-.37 6.01.23.44.67-.29 4.43-.34 5.49-.07 1.56-.08 5.4 1.55 6.2.96.47 2.02-.01 2.51-.9 1.08-1.96.14-6.72.07-9.07-.02-.52-.05-1.06.15-1.56.1-.16.28-.19.44-.22.95-.21 2.96-.46 3.93-.51 1.22-.06 1.52-.01 1.78 1.22.63 2.96.23 11.29-1.64 13.75-2.05 2.7-7.31 2.64-10.2 1.51s-4.35-3.44-4.59-6.47.05-6.6.34-9.67zM158.83 10.54h4.21c.49 0 1.63.56 1.88 1.08.56 1.17.12 6.85-1.24 7.26-1.13.34-4.68-1.04-4.85-.86-.01 2.23 0 4.46 0 6.69 0 1.26-.34 2.14.01 3.59.84 3.47 5.31.66 7.26 1.61 1 .48.27 3.57-.05 4.48-.13.38-1.21 2.66-1.38 2.82-.41.41-3.09 1.27-3.75 1.36-5.11.69-9.65-2.34-11.1-7.19-1.21-4.06-.59-9.5.34-13.6-3.31-.74-5.57-.17-5.25-4.43s3.85-1.59 6.58-2.62l.6-5.4c1.09-.85 5.8-2.49 6.58-1.13.74 1.28.31 4.82.12 6.33zM135.61 10.54h3.98c.71 0 1.94.73 2.11 1.52.28 1.25 0 6.15-1.32 6.75s-3.34-.68-4.48-.76c-.2-.01-.52.17-.52.31v9.75c0 3.13 5.03 1.46 6.73 1.69 2.19.3.9 3.83.37 5.15-.64 1.6-.94 2.22-2.55 2.9-3.08 1.3-5.92 1.1-8.8-.52-6.78-3.83-5.63-12.88-4.42-19.39l-.36-.33c-3.9-.38-4.99-.54-4.64-4.69.3-3.49 4.04-1.12 6.35-2.18l.69-5.49c1.61-.69 4.26-1.99 6.01-1.46 1.43.43.63 5.47.84 6.76zM36.39 164.74c3.68-.41 7.78.62 9.07 4.45.66 1.96 1.09 7.3.55 9.24-1.38 4.97-10.32 4.81-13.55 1.97-1.74-1.53-1.73-5.41-1.59-7.58.24-3.87 1.05-7.57 5.52-8.07zm1.41 5.52c-2.06.34-2.25 3.79-1.82 5.37.54 1.98 4.3 2.57 4.96.28.73-2.55.4-6.23-3.14-5.65zM159.94 180.41c-2.74 2.77-11.04 2.55-13.17-.74-1.46-2.26-.96-9.52.15-11.98 1.96-4.31 9.63-3.71 12.44-.55 1.52 1.71 1.84 5.65 1.91 7.88.06 1.75-.02 4.07-1.33 5.39zm-7.11-10.15c-2.07.34-2.28 3.78-1.82 5.36.59 2.02 4.3 2.56 4.96.28.73-2.55.4-6.23-3.14-5.65zM152.15 129.39c4.46-.48 8.43 1.05 9.34 5.75.37 1.93.7 6.6.07 8.35-1.65 4.64-11.24 4.33-13.88 1.14-1.58-1.91-1.15-8.55-.52-10.91.72-2.69 2.18-4.04 4.99-4.34zm4.11 12.05c.79-.88.76-4.5.19-5.53-.79-1.43-3.71-1.43-4.45.1-.5 1.04-.67 3.73-.1 4.74.68 1.23 3.44 1.72 4.37.68zM57.28 144.65c-.84.3-1.57.86-2.45 1.11-3.76 1.09-7.39.01-7.97-4.23-.88-6.43 5.93-7.5 10.1-4.3.75-2.4-1.43-3.76-3.57-3.94-.61-.05-3.02.21-3.23-.42.18-1.75 2.43-3.42 4.07-3.64 3.21-.44 8.04 1.4 8.89 4.79.71 2.86.14 8.15-.32 11.16-.09.61-.2 1.92-.88 2.12-1.22.36-5.25-.73-4.64-2.65zm-.99-2.73c.46-.42.49-1.97.61-2.57-.13-.84-2.99-.95-3.65-.85-1.96.31-2.32 4.45.44 4.24.37-.03 2.37-.61 2.6-.82zM89.29 108.55c-.44.41-1.93-.07-2.44-.32-.64-.31-1-.54-.93-1.34-.75.34-1.48.81-2.31.92-2.26.3-3.97-.27-4.54-2.61-.88-3.59 2.41-5.43 5.44-4.04.47.21.83.6 1.31.76.3-1.58-.95-2.51-2.39-2.64-.97-.09-3.08.4-1.85-1.22s2.79-1.77 4.67-1.27c2.21.59 3.44 1.38 3.8 3.73.25 1.68-.09 5.31-.41 7.04-.04.23-.19.85-.33.99zm-6.16-5.76c-1.11.25-1.47 2.91.4 2.84.34-.01 1.59-.4 1.81-.64.23-.26.49-1.45.28-1.75-.36-.49-1.94-.57-2.48-.45zM189.42 139.12l2.09-9.59c.13-.12.94-.31 1.17-.33.51-.06 3.8.08 3.87.4l-.08.85c-2.11 5.62-2.78 18.23-8.8 21.05-1.29.6-4.25 1.09-5.53.47-.99-.48-.92-4.04-.8-5.04.29-2.43 3.66.24 4.8-.1 1.46-.44.61-3.9.23-4.9-1.15-3.02-2.73-5.77-3.65-8.99-.23-.8-.88-2.8-.45-3.49.31-.49 3.51-.27 4.13-.03.87.34 1.13 2.02 1.38 2.89.65 2.24 1.11 4.55 1.63 6.82zM179.32 26.86l3.07-13.6c.42-.54 1.38-.64 2.04-.69.71-.05 5.03.17 5.14.61.05.49-.03.97-.11 1.45-.84 5.02-3.03 12.69-4.56 17.66-1.92 6.22-4.47 12.89-12.06 13.38-1.33.09-3.92.19-4.57-1.14-.61-1.26-.96-6.23-.22-7.25 1.95-2.7 7.76 4.26 7.86-2.38.05-3.58-4.99-12.72-6.22-17.17-1.16-4.18-1.94-5.59 3.37-5.17 3.42.27 3.14 1.6 3.96 4.45.92 3.22 1.67 6.55 2.3 9.84zM133.98 67.4c.8 3.68 5.07 4.31 8.24 3.56 2.08-.49 4.21-2.73 6.42-1.27 1 .66 1.17 4.99.36 5.75-.89.85-6.88 1.86-8.3 1.94-9.7.51-16.9-5.23-14.82-15.43 2.29-11.21 23.2-12.66 22.87.55-.08 3.26-3.1 3.6-5.85 4.15-2.92.59-5.95.8-8.92.75zm7.43-7.85c-1.82-1.89-7.46-1.11-7.65 1.88-.1 1.57.88 1.71 2.16 1.68.83-.02 5.9-.99 6.03-1.52.08-.76 0-1.47-.54-2.03zM103.52 27.09c1.08 3.62 5.37 4.42 8.65 3.52 1.79-.49 4.82-3.06 6.48-.79.56.77.64 4.06.23 4.97-.3.67-2.07 1.1-2.79 1.3-10.45 2.91-21.77-.23-20.77-12.98.75-9.66 15.07-13.67 20.96-7.48 1.62 1.7 3.04 7.14 1.47 8.95s-11.69 2.74-14.22 2.5zm.28-4.59c.72.72 4.14-.02 5.18-.29 1.09-.28 2.86-.44 2.69-1.75-.39-3.06-7.89-3.13-8.17.62-.03.37.04 1.16.3 1.42zM85.38 174.63c.75 2.52 3.73 3.08 6.02 2.45 1.24-.34 3.34-2.16 4.51-.55.32.43.37 2.99.16 3.46s-1.44.77-1.94.9c-7.28 2.03-15.15-.15-14.46-9.03.53-6.73 10.49-9.51 14.59-5.2 1.13 1.19 2.12 4.97 1.02 6.23s-8.13 1.9-9.9 1.74zm.19-3.19c.58.58 3.9-.22 4.72-.51.53-.19.85-.23.76-.91-.29-2.18-5.85-2.22-5.68.75.01.19.07.54.2.67z" fill="#fff"/><path d="M109.8 52.96c3.09-.29 7.96-.1 10.83 1.1 2.57 1.08 2.54 1.74 1.55 4.2-.38.94-1.95 3.87-2.78 4.28-.57.28-2.09-1.08-2.72-1.38-3.39-1.62-7.72-1.22-8.21 3.18-.41 3.73 1.22 6.31 5.25 5.68 2.95-.46 6.82-4.38 8.29.34.25.8.74 3.35.36 3.97-.94 1.54-8.26 2.97-10.14 3.05-16.65.77-17.46-23.02-2.45-24.42zM105.41 129.23c1.75-.18 7.91-.06 8.89 1.63.56.97-1.11 4.27-1.89 4.87-.68.52-1.65-.58-2.42-.89-2.06-.85-4.51-.83-5.26 1.61-.85 2.77.42 5.23 3.57 4.66 1.57-.28 4.19-2.56 5.31-.57.38.67 1.1 3.28.45 3.78-1.27.98-5.18 1.81-6.8 1.91-11.65.67-12.3-15.93-1.85-16.99zM172.65 53.6c.22.35-.79 5.36-1.26 5.66-2.61 1.05-8.72-1.89-10.15 1.4s4.51 2.54 6.08 2.67c4.32.35 7.24 2.05 7.41 6.67.23 6.13-3.92 7.54-9.22 7.84-3.32.19-7.09.07-10.37-.35-.73-1.93-2.11-6.89 1.25-6.93 2.24-.03 7.72 2.61 9.58.26.59-.74.53-2.34-.45-2.76-1.33-.57-4.92-.06-6.62-.21-8.33-.74-8.28-11.35-1.38-13.83 4.38-1.57 10.54-.92 15.12-.42zM197.92 53.6c-.13 1.13-.56 5.31-1.58 5.75-2.26 1-8.75-2.1-9.91 1.46-1.07 3.29 4.45 2.37 6.15 2.51 4.59.37 7.39 2.27 7.41 7.15.03 5.94-4.47 7.1-9.45 7.36-1.5.08-9.51.17-10.28-.44-.57-1.37-1.36-5.51-.08-6.47s3.76.26 5.17.49c2.57.43 7.36 1.01 5.91-3.05-.87-.92-5.59-.38-7.11-.51-8.33-.74-8.39-11.31-1.38-13.83 4.39-1.58 10.54-.91 15.13-.42zM104.07 168.01l1.61-2.57c.54-1.05 2.61-.82 3.7-.74 1.84.14 2.78.26 3.48 2.06 1.41 3.65-.48 5.71-4.26 5.19-2.19-.31.14-3.03-2.4-2.68-.96.13-1.26 1.11-1.28 1.95-.08 3.02.92 5.91 1.05 8.86.06 1.37-.73 1.68-1.98 1.81-1.38.14-5.48.32-5.46-1.65.19-4.17-.43-8.47-.17-12.63.03-.49.14-1.51.27-1.94.39-1.27 3.6-2.16 4.81-1.84.56.28.65 3.46.63 4.18zM187.73 168.17l2.16-3.3c.68-.43 4.45-.13 5.33.18 1.58.56 2.24 4 1.55 5.41s-3.16 1.67-4.51 1.48c-1.55-.22-.66-1.6-1.24-2.64-2.67-.58-2.47 1.98-2.34 3.84.11 1.63 1.39 6.81.87 7.96s-5.39.89-6.45.43c-.8-.35-.86-1.3-.92-2.08-.25-3.44-.29-9.38 0-12.79.11-1.25.29-1.54 1.37-2.1.88-.46 3.51-1.47 3.98-.22.02.06.2.86.2.91v2.92zM79.11 11.73c.72.74.39 4.66.74 5.84l3.01-4.61c1.2-.5 6.77-.11 8 .56 1.7.93 2.44 4.85 2.14 6.6-.46 2.7-3.9 3.32-6.21 3.12-3.06-.26-1.26-1.81-2.37-3.76-1.25-.28-2.52-.27-3.08 1.03-1.25 2.88.79 9.69 1.02 13.03.04.6.12 2.46-.03 2.91-.55 1.6-8.22 1.21-9.61.35-1.59-1-.8-4.6-.82-6.21-.06-4.76-.58-9.72-.25-14.5.04-.56.25-2.17.53-2.53.83-1.06 5.91-2.88 6.94-1.83zM40.36 52.04c.68.69.46 4.76.51 5.84l3.24-4.61c4.22-.09 8.72-1.27 9.9 3.88 1.08 4.71-1.29 6.8-5.98 6.4-3.33-.28-1.17-2.7-2.38-3.75s-3.17.45-3.39 2.06c-.51 3.75 2.22 12.58 1.2 15-.63 1.48-8.13 1.1-9.49.25-.84-.53-.98-1.86-1.05-2.81-.11-1.41.01-3.06-.01-4.52-.07-4.22-.32-9.5 0-13.61.07-.86.18-1.97.84-2.57 1-.9 5.6-2.61 6.63-1.57zM69.3 57.23l.09 19.86c-.34.64-.83.89-1.53.97-2.12.25-6.23 0-8.43-.23-1.54-.16-1.82-.95-1.94-2.38-.18-2.16-.18-5.02-.23-7.25-.09-3.66 0-7.35.12-11.01.17-.33.84-.56 1.19-.62 2.27-.4 3.39.04 5.41.17 1.79.12 3.59-.22 5.32.49z" fill="#fff"/><path d="M95.6 132.21l.1 13.85c-.3.39-.62.58-1.1.64-1.38.16-4.43.02-5.85-.18-.47-.06-.96-.27-1.17-.73-.28-2.14-.13-4.29-.18-6.44s-.35-4.34-.17-6.47c.06-.68.16-1 .91-1.14 1.57-.29 2.37.03 3.77.12 1.25.08 2.51-.19 3.7.34z" fill="#fff"/></svg>