<svg xmlns="http://www.w3.org/2000/svg" width="300" height="56" viewBox="0 0 300 56"><path d="M139.34 17.72c-.31.38-.35 1-1 .93-1.07.07-2.14.16-3.22.21-.93.13-.32-.61-.38-1.15l-.2-.08c-.6.44-.63 1.43-1.47 1.35a12.37 12.37 0 0 0-3.18.63 11.89 11.89 0 0 0-3.34.4c1 .94 3.75.3 4.21 1.59.22 2.7.25 5.41.5 8.1 0 .68 0 .75-.71.8-1.32.09-2.65.15-4 .26-.87.17-1.74.89-2.64.38a1.1 1.1 0 0 0-1.13.06c-.94.35-1.9.55-1.75-.84-.16-.8-1.03-.36-1.03-1.36.11-2.43-.67-4.7-.89-7.08-.34-1.87-1.31.66-2.75-.63-.84 1-2.44.46-3.61.69-1.71.11-.05-3.48-1.48-4.08-.19-.09-.27-.42-.39-.64 1.42-.88 3.34 0 4.76-.91.68-.34 1.74.08 1.91-1a4.45 4.45 0 0 0-3 .42c-.79.14-1.64 0-2.36.52-.24.18-.52 0-.52-.34 0-.67.19-1.44.08-2.09a1.77 1.77 0 0 1 .06-2.08l-.84-.58c.73-1.64 2.68-.78 4-1 3.19-.39 6.33 0 9.5-.12.69-.06 1.29.55 2 .17 1.69-1.1 4.46.62 4-.95-.4-.65.29-.89.75-.48a1.53 1.53 0 0 0 .81.77c1 0 1.52-.22 2.08.64.05 0 .13 0 .17-.07.37-1.08 1.42-.62 2.3-.66 1.52.44 1.56.24 2.09 1.82a17.87 17.87 0 0 1-.08 4.9c-.15.49-.1.66.43.82s.56.29.32.68zm-93.05 3.69c.14-1-.35-2.08.3-2.93.53 1.49.3 3.15.5 4.71a2.42 2.42 0 0 1-.25 1.81 8.09 8.09 0 0 0 .47 4c-.7.14-5.21.88-5.14 0-.36-4.32-.38-8.66-.9-13-.9.67-.9.67-1.15.55 1.16-2.39-3.66-1-4.68-.69-.77.14-1.61-.08-2.28.52a.58.58 0 0 1-.4.07 1.22 1.22 0 0 0-1.27.81c-.67 1 .62 1.32 1.25 2.07a4.69 4.69 0 0 1-.67.25c-1.12 0-.7 1.09-.34 1.72a1 1 0 0 1 .12 1.15c-.67 1.47 0 3.16-.05 4.72-1.16 5.6 1.69 2.52 2.05 4-3.86.19-1.36.91-2.39 5.13.07 1-.27 5.29 1.63 3.74.37-.34.71-.85 1.27-.4-.45.92-1.72 1.4-1.65 2.53.13 1.78.21 3.56.33 5.33 0 .2 0 .48.14.58.8.9.35 2.2.57 3.29.41 2.2 2.35 1.15 3.81 1.4 1.63-.49 6.29.77 6-1.82-.05-.43-.18-1 0-1.28.48-.73.21-1.46.23-2.19s-1.14-.48-1-1.3c0-.61-.22-1.23.24-1.78.37-.75-.64-2.44.69-2.48 1-.08 1.86-.75 2.88-.86-.37 2.19.4 4.43-.22 6.63A1.91 1.91 0 0 0 48 47.5c-.07 1-1.34.72-1.16 1.65-.34 4.4 5.19 2.65 7.83 2.5.86-1 4 .28 3.91-1.25-.33-3.24-.13-6.64-.77-9.8-.36-.43-.19-.72.13-1.06.72-.69.3-1.47 0-2.25l.11-.1 1.5 1c-3.21-5.81-.12-3.89-1.37-8.92-.14-.49-.19-1.14-.78-1.37s-.37-.39-.27-.74a6.15 6.15 0 0 0 0-2.38 14.51 14.51 0 0 1 2.21-10.19c.16-.27.44-.53.28-1-.9.55-1.1 1.81-1.93 2.48-.37-.37-.28-.85-.29-1.32-.15-1.52-2.25-1.1-3.33-1.29-1 0-2.11-.28-3 .47a32.88 32.88 0 0 1-5.37.26l.48 7.16zm47-2.55l3.14-.21c.53.21 1.06.57 1.59.14s1.37.51 2-.23c1.9-1.16-.33 3.13 4.38 2.68.8.47 1.39-.39 2.3-.07 5.15-.12 2.54-1.76 2.34-5a11.94 11.94 0 0 1-.46-3.15c0-.63-.13-.69-.74-.74a7.82 7.82 0 0 0-3.08-.28c-1.21-.11-2.39-.74-3.51 0a3.42 3.42 0 0 1-2.88.15 46.54 46.54 0 0 0-5.13.22A1.46 1.46 0 0 0 92 13.72c-.58-.28-1-1.05-1.63-.59-1.09.3-2.3-.61-3.2.58-.3.32-.8.51-1.08 0C84.58 12 82.71 10 80.57 9.33c1.79 1.77 4.27 3.06 5 5.62.52 2.34 2.92 4 3 6.37-.09 3.22-1.77 6.76-.48 9.81.4.67.35.86-.14 1.45-.77 1.28-.63 3-1.23 4.3 1.77.65-.43 1 .24 2a.54.54 0 0 1 0 .45c-.3.74.87.93.44 1.74a1.74 1.74 0 0 0 .08 1.3 3.07 3.07 0 0 1 .52 1.76c.07 1.19.88 2.23 1.18 3.4.34 1 2.55 2.14 3.22 1.09.21-.51.28-.53.7-.18 1.26 1.5 3 1.61 4.76 1.12.5-.06 1 0 1.4-.42.11-.13.38-.13.58-.15a6.89 6.89 0 0 1 3 .21c1.08-.08 2.23-1.26 3.29-.83s2.07-.77 3.08-.54 2.29 0 2.39-1.08c-.19-1.11.18-2.58-.42-3.52-3.14-.75-6.25-1.89-9.47-2.15a4.1 4.1 0 0 0-2.76-.18l.06.8c-1.76-1.49-2.83.06-2.89-1.52s.14-4.79-2.39-4c-.89.58-1.8.1-2.7.13-1 .67-2 .16-3 .33a9.13 9.13 0 0 0 .59-4.11c.37-.35 1-.46 1.09-1.11 0-.05.2-.11.31-.11.71 0 1.45-.29 2.13.18A9.77 9.77 0 0 0 98.68 30l.15.1c-1.25 2.49 1.77 1 3 1.52v.24c-2 .18-3.84.71-5.76 1v.16c.81.14 2.23-.48 2.1.82.41 1.63-.56 4.67 1 5.58a5.13 5.13 0 0 0 2.38.42 2.4 2.4 0 0 0 1.72.24 1 1 0 0 1 .54 0c.93.55 2 .19 3 .53a4.35 4.35 0 0 1 1.65.65.62.62 0 0 0 .81 0 2.53 2.53 0 0 1 1-.34c1.85 0-.26-1.57 2-2.53-.86-.26-1.39.14-1.34-1s-.78-1.45-.26-2.55c-1.18.2-2.29-.13-3.29.54a1.14 1.14 0 0 1-.59.13c-1.06.05-1.09-1.1-.11-1 3-.41 4.52.72 3.47-3.15 0-1.71-2.62-.29-3.69-.78.54-1.5 5.17 1.07 3.39-3.26 0-.82-.62-.65-.6-1.37.09-.93-.83-1.07-1.56-1-3.47.16-6.93.42-10.4.64-3.57-.28-2.64-.65-2.68-3.66-.68-1.48.52-2.71-1.76-2.84.32-.09.38-.22.45-.23zM225 7.37c1.38.65 2.68-.08 4-.37a5.45 5.45 0 0 0 2-.25c1.09-.55 2.33-.26 3.42-.72.93-.66 2.22-.17 3.16-.56a2.66 2.66 0 0 1 2.49-.19c-.61 1.38-2.39.5-3.51 1.1-.81.44-1.74.16-2.52.68-.08.07-.34 0-.48-.08-.92-.51-1.62.63-2.58.45s-1.87.66-2.9.62c-1.33 0-2.31 0-1.45 1.61-1.76-.69 0-1.24-3.08-.92-.94.08-1 .17-1 1.08.23.76-.3 2.47.71 2.62a5.62 5.62 0 0 0-.43 1.57c.21 3.21.26 6.44.67 9.63h.71l-.09.75 1-.36-.07.56.69.36v.24c-1.78.16-2.46 0-1.48 2l.67.05a2.77 2.77 0 0 0-.62 2.84c.47.89 1.74-.08 2.46-.14 1.88 0 3.57-.82 5.44-.77 1.44.15 2.57-.64 3.92-.7s.26-3.06.42-4c.09-1.37-2.61-.38-3.49-.53-.67.1-1.15.64-1.87.54-1.28-.07-2.73.53-3.9-.05 1.17-.8 2.74.09 3.92-.88 1.18-.22 2.47-.15 3.68-.28.63 0 1.29.05 1.81-.47.11-.11.39-.09.59-.1a29.27 29.27 0 0 0 3.67-.33 1.76 1.76 0 0 1 1.4-.43c1 0 .43-1.25.52-1.87 0-.45-.2-.66-.68-.62-1.34-.18-9.29 1.14-9.2 0 1.31-.19 2.59-.19 3.9-.32a10.52 10.52 0 0 1 3.78-.61c1-.28 2.18.86 2.85-.28-1.61-.78-.15-2.43-2.23-2.3-3.29.19-6.57.38-9.86.61-1.52.1-1.52.13-1.59-1.39 0-.7 0-.77.74-.86a24.52 24.52 0 0 0 2.43-.57c1.63-.2 3.4-.08 5-.4a2.6 2.6 0 0 1 1.75-.45c1.21-.25 2.85.29 3.62-.92 1.41-2.32-3.67-.79-4.71-1.22v-.22c1.1-.53 2.42-.29 3.62-.44 1.49-.06 1.49 0 1.33-1.52 0-.72-.76-.53-1.24-.72v-.19c.45-.23 1.23-.1 1.14-.81a12.4 12.4 0 0 1 .22-3c-.72-1.35-2.18-.75-3.36-1.23a.72.72 0 0 0-.54 0c-.84.44-1.7 0-2.54.11-2.3.2-4.68-.19-6.75.88-1 .33-9.06-.11-8.1 1.08a30.13 30.13 0 0 1 8.11-.68v.23a21.83 21.83 0 0 1-4.13.41c-1.27-.11-2.3.68-3.54.65-.41 0-.57.19-.55.59.2 1-.44 2.72 1.23 2.32.55 0 1.14 0 1.19-.79a.73.73 0 0 1 .23-.04zM.06 37.62c.08.63.32 1.23.44 1.85s.21.81.91.51c.37-.17.55.07.49.43-.74 1.17-.2 2.51.3 3.64.14.53.27.62.83.5 3.25-.34 6.32-1.26 9.56-1.59.59-.08.76-.34.61-.9a22.22 22.22 0 0 1-.71-4.93c.19-1.22-.8-4.88 0-5.46 1.09-.28-.06-1.46.82-1.91.33-.17.63-.46.48-.8a1.25 1.25 0 0 0-.75-.7c-1.44-.36.09-1.37-1.7-3 2.53-.86 14.68.31 13.86-3.5-.21-1 .16-2.08-.6-2.88-.09-.09-.09-.3-.1-.46 0-3.32-3.46-3.21-5.85-2.83-.66.07-1.28.44-1.93.54-.92.33-2.74-.37-3.1.73a.49.49 0 0 1-.82.33c-1.64-.77-3.68.06-5.46-.06a2.4 2.4 0 0 0-1.74.44.58.58 0 0 1-.38.13c-.69 0-1.06.45-1.49.87a2 2 0 0 0-.73 1.8c-.57.88-.11 1.9-.43 2.85s.89 1.4.72 2.3c-.56 0-.9-.35-1.28-.69s-.53-.16-.75.11c-.66.95 1.18 1.24 1.68 1.79l-.06.17h-.59a6.21 6.21 0 0 0-1.16 3.63c2.33.92 5.29-.63 7.4.65-.73.84-1.41.16-2.25.06-1.44.2-5.08-.11-5.74 1.27-.06.75.48.58 1 1-.6.33-1.37.13-1.34.91 0 .59-.07 1.2.48 1.68-.68.61-.75.61-.62 1.52zM78 23.2c2.8.27 1.27-3.2 2.13-4.72.37-1.09 1-2.31-.07-3.21-.6-.61-1.39-1.34-1.15-2.27.33-2.84-6-3.81-8.06-3.44-6.33 1-13.34 7.72-10.47 14.41.63 1.08 1.78-1.15 2.68-.55-1.82 2.37-1.69 2.16-2.24 5.15-1 1.49-.09 3.38-1.22 4.74-2.12 3.44 5 4.41 6.68 2.58.76-.41 1.79-2.42 2.62-2 .58.73-1.26 1.79-1 3.08a2.4 2.4 0 0 1-3.16 2.11c-1.25-.48-2.85.48-1.67 1.87.08-.51.06-.91.51-1.2.53.33.37.85.42 1.37-.06 1.15 2.39 0 1.87 1.34-.69-.29-.87.35-1.27.61.37.49.55 1.15 1 1.44.43 0 .52.38.72.65 1.88 2.23.58-3.23.22-3.89a2.75 2.75 0 0 0 1.06-.19c.81-.81 1.28.9 1.91 0 1.36-1.84 1.21 2 2.89-1-.49-.58-.45-1.52-1.09-1.93s-.69-.53-.51-1.16c.78-2 0-4.63 2-6.08a6.52 6.52 0 0 0 .49-1c.48.27.75.75 1.35.72-.11-1.07-1.45-1-.85-2.41.38-1.46-2.28-.46-2.57.36-1.3 3-5.94 10-9.36 5.89-1.59-2.27-1.18-6.38 1.76-7.24 2.94-1.25 5.34.16 7-1 .62-.66.53-.11 1.13.26.89-.43.52-1.36.57-2.16.73 0 1.31 0 1.35 1 .66 2.05 3.31-.46 4.13-1.4l-.51-.45c.16-.32.36-.39.71-.28zm-2.17-.75c.8.16-.23 1.11-.76.73a.8.8 0 0 1 .74-.73zm-52 18.16c.72.3 1.51.84 2.22 1.07.7-.31 1.75-.43 2.14-1.15.14-.58.63-1.07.48-1.74.14-.66.54-1.26.33-2 .11-1.89 1.31-2.72-1.13-3.74 2-.84-.22-2.35-1.49-2.22-1.9.23-4.21-.09-5.88.93-.56.67-.95-.19-1.41 0-.93 0-1.87.1-2.8.17s-1.12.21-1.06 1.17c.16 2.83.33 5.65.49 8.48 0 2.11 1.09.6 2 1.29-1.38 1.44-2.93 1.47-4.8 1.5a3.07 3.07 0 0 0-2 .48 13.07 13.07 0 0 0-2.42.57c-1.56.53-3.27.69-4.81 1.3-.79.56.32 1.67.46 2.39a3.68 3.68 0 0 0 .83.33c-.06.57-.76 1-.3 1.65s.52.85 1.24 1.27c-.49.58-.18 1 .16 1.54a1.85 1.85 0 0 0 2 1.58c.75.12 1.43.59 2.16.08s2 .15 2.18-1.18c2.43 1.51 5 .22 7.41-.06 1.82-.16 4.45.25 5.12-1.93.68-1.09-.06-2.1-.07-3.19a9.57 9.57 0 0 0 .34-5c0-.18-.29-.48-.44-.48-.9.12-1.67-.41-2.54-.33a13.83 13.83 0 0 1-3.34 0v-.24c1.54-.44 3.24-.23 4.82-.42 1.09-.6 1-1.22-.08-1.82zm175.5-14.25c.8 1.12.79 2.57 1.39 3.79.12.81.13.85 1 .81.26 0 .56-.09.72.33l-1 .36c.27 1.11 1.37 0 1.76 1-.44.13-1.62.17-1.19.82.76 1.29.37 2.64 2.49 2.6.59 0 6-.72 4.16.72-.81.25-2-.42-2.58.31l.37.66c-.39 0-.74.12-.92 0-.56-.42-1.18-.21-1.76-.31-.44.6.28 1 .38 1.54.15.86.82 1.45.62 2.38.07 1.89 2.31.93 3.5 1v-.17l-.8-.94c1.82.2 3.61.89 5.41.32.75-.65 1.76-.35 2.62-.78a.74.74 0 0 1 .44 0c1.17.76 1.89-.66 3-.47.47.12.84-.18 1-.72s-.56-.27-.69-.69c1-1.54-.5-2.94-.42-4.47s-1.21-.28-2-1.17c.5-.25 1.33-.06 1.36-.7.22-1.13-.7-1.55-1.67-.86l1.29.23c-.69.66-1.51.19-2.09.59.21.71.18.79-.25.81a7.56 7.56 0 0 1-2.81-.1v-.21a12.47 12.47 0 0 1 1.72-.23c.6-.12.6-.85-.07-.76a12.37 12.37 0 0 1-4-.16c-1.07-.22-3.78.84-4.09-.46.85-.13 2.25.37 2.84-.38 0-2.44-.77-4.75-.86-7.16 0-1.41-5.65.2-6.93-.36v-.24c.84-.35 1.83-.15 2.66-.46a3.56 3.56 0 0 1 1.64-.36c.76 0 2.14-.3 2.45-1a23.27 23.27 0 0 0-.24-3.26c-.5-.37-.45-.91-.47-1.43-.1-2.43-.69-.72-1.78-.51l.1-.57-.62-.39c.36-.44 1.41-.08 1-1 1.21-.37 1.07-.7 1-1.89 0-.75-.12-.82-.87-.78-2.43.21-4.92 0-7.28.75-.45.15-.73.32-.66.85a7.15 7.15 0 0 1-.38 1.13c-.37 1.32-.87 1.63.64 2.32-.67.39-1.67.14-1.76 1a4.29 4.29 0 0 0 1.69 4.5c.43.09 1.3-1.27 1.67-.34l-1.51 1.63a6.69 6.69 0 0 1 1.45 1.34c.39.46 1.08.7 1.24 1.3l-.11.11-2.06-1a1.15 1.15 0 0 0 .26 1.13zm-22.52 14.23c-1.16-.51-1 1.52-1.55 2.17-.34 1.24-1.43 2.24-1.26 3.46.8-.9 1.36-1.78 2.06-2.68 1-2 5.18 1.58 4.95-1.93-.18-2.27-.27-4.55-.39-6.83 0-.55-.06-1.06-.75-1.17 0 0-.07-.11-.16-.26.94-.42 1.94 0 2.92 0 .81.08.83.09.87.89q.22 3.63.46 7.25c0 1.87 3.09 1.55 4.44 1.64a2.33 2.33 0 0 0 2.39 0c.52-.4 1.07.27 1.61.1.85-.42 2.11.32 2.76-.43a7.76 7.76 0 0 0-.57-2.79c0-.88-.94-.61-1.53-.8V39c1.08-.25 1.89-.16 1.25-1.54-.83-1.24 0-2.91-1.23-4.06-.47-.85.89-2.91-.87-2.66-2.33-.1-4.65-.46-6.94-.44a2 2 0 0 1-.88 0c-.76-.5-1.62-.12-2.4-.34-1.92-.62-4 .33-6-.35-1.48.39-3.28-.7-4.57.07-.53.49-.29 1.11-.31 1.68s.63.43.86.85c-.29.41-.73.24-1.09.33-1.36.36 1 1.52-.66 2.4.49.92-.08 1.87.89 2.68-.78 0-1.74 1.46-1.15 1.87s-.24 1.12-.47 1.59l.75.82c-1 2.06 2.22 1.39 3.25 1.19.58-1 1.73-1.88 1.87-3 .13-.66.75-.56 1.36-.87-.49.77.19 1 .52 1.5a3.65 3.65 0 0 1-.43-.13zM245 32.3c.79-.26.46-.64.26-1.27-.33-.79.77-2.59-.58-2.59-1.26.19-2.61-.17-3.74.59-.14.11-.39.08-.59.1-4.58.05-8.95 1.18-13.51 1.29-2.15 0 .24 2.58-2.17 2.27-.48.11-.64.33-.4.8a5.15 5.15 0 0 1 .42 2.3c0 1.37 2.12.39 3 .53-.22 1.43-3-.1-2.87 1.43.15 1.87-.32 3.42 2 3.85 1.34.41.44-1.5 1.73-1.55-1.17 2.07 1.61 1.3 2.76 1.33 2.7-.24 5.64.45 8-1.28v.58c.92 1 5 .51 6-.23.48-.76 0-2 0-2.86-.12-.73-.81-.25-1.3 0 .36-1.22 1.86-.87 1.68-2.24-.05-1.53.12-1.63-1.49-1.8v-.18l.53-.31c.11-.35.1-.64.27-.76zM130.12 46.14c-.44 1.48 2.11 1 2.79.5s.28-1.1.25-1.66c0-.82-.75-.4-1.2-.17l-.12-.2c2-1.33 1.28-1.72-.09-3.26a1.05 1.05 0 0 1-.57-1.12c1.21.08 1.62-.34 2 1.09a3.58 3.58 0 0 0-.39-2.94c.06-1-.49-2 .14-2.93.06-4.08-.5-8.25-.65-12.36 0-.34-.1-.78-.48-.81s-.39.56-.33.88c.19 3.28.39 6.57.58 9.85 0 .3.14.64-.21.9a2.78 2.78 0 0 0-2.49.11c.23-1.37 1.87-.36 1.64-1.75-.07-.67 0-1.36-.84-1.2s-1.74.12-2.6.18a22.55 22.55 0 0 1-6.08.79c-1.36 0-.48 1.8-.61 2.64s.71.6 1.35.9v.2c-1.84.42-.92.55-1.42 1.95-.48.69 0 1.63.78 1a.34.34 0 0 1 .35 0c.39.67-.92.68-.72 1.36.45 2.59-.82 5.49.56 7.83a3.43 3.43 0 0 0 2.85-.33.67.67 0 0 1 .46-.12c1.09.22 2.38 0 3.33.6.37.4 1.15.76 1.17-.08 0-1.77-1.93-1.24-.37-3.39a2.92 2.92 0 0 1 .46 1.11l.71-.15a3.82 3.82 0 0 0-.25.58zm144.19-24.72c-1.08-.3-2 .95-2.09-.08 0-.56-.05-1.38-.72-1.46-1.23-.09-1.85-1.85-3.13-1.05-1.77.73-3.84.38-5.71.65-2.58.86-5.34.69-8 .95-.61.08-1.2.39-1.81.5s-1.35-.11-1.67.44c-.7 1.9 1.63 2 2.35 3.2l-.1.12-1.48-.48a12.68 12.68 0 0 0 .06 3.25c.14 1.09 1.11.44 1.63 0l.1.12c-.38.88-.71 1.78-1.17 2.62.28.16.7.17.86.47-.1.36-.43.31-.71.34-.76 0-.64 1.77.1 1.63 1.56.06 3.14-.57 4.66.11.72 0 1.46-.08 2.19-.1 1-.19.24-1.72.38-2.44-.16-1.05-1.59-.1-2.23-.62v-.21l1.41-.29-.13-.62h.76c0-1.1-.23-2.46 1.25-2.46 1.09.26 2.81-1.68 3 .27-.27 2.79 2.06 1.25 3.63 1.07 1.53 0 2.81-.79 4.33-.74a.69.69 0 0 0 .6-.94 5.56 5.56 0 0 1-.35-2.35c.11-.93 1.37-1.16 2-1.73zm-122.88 7.34c-.82 1.2 1 1.17 1.75 1.21a18.42 18.42 0 0 1 3.57.24 4.68 4.68 0 0 1 2.59.27c2.26-.17 7.16.26 3.92-3.17 2 .47 1.09-1.76 1.2-2.88.18-1.8 1.94-3.54-.93-4.15-2.92.29-6 0-8.78 1-3.46.59-8.58-.33-11.45 1.52-.36 1.5 1 2 .31 2.67-.36.43-1.32 1.09-.24 1.22s0 2.46 1.85 1.36l.11.13c-2.17 2.42 1.68 1 2.8 1.43.64.52 1.3.26 2 .16s.45-1.08 1.34-1.29a1.53 1.53 0 0 1-.04.28zm100-24.47a2.34 2.34 0 0 1-.24.44c-.63-.67-.31-1.71-.48-2.55-.37-1.89-2.25.07-2.14 1.17.16 1.38-1.45.31-1.35 1.55a18.73 18.73 0 0 0 .23 2.51c.6.48.44 1.15.49 1.77.07 1.27.32 1 1.27.67v.62a14 14 0 0 0 5.39-.67 29.87 29.87 0 0 0 4-.36l-.6-.94c1.46.57 2.68-.57 4.11-.41.19 0 .34.35.53.53.5.43 1.27 0 1.87 0C266.16 8 268 8.2 269.7 8c1.42.28.14-4 .64-5.16-.83-1.24.54-3.16-2.49-2.33-.39.19-.62.21-.89-.08-1-.8-2.7-.28-3.88 0-1.43 1-13.83-.17-11.36 2.74-.1.43-.16.83-.25 1.12zm-71.09 12.32c1.85-.37 3.93-.19 5.81-.57 1.33 0 4 .39 1.86-1.46l.11-.11 1.66.44a11 11 0 0 0-.27-2.58 2.27 2.27 0 0 1-.44-1.47c-.13-4.07-1.25-5.52-5.39-4.27-1.7.5-1-.89-4.24.48-1.77.3-5.14-.48-5 2.26.22 1.29-1.3 1.85.62 2.56-.76.69-2.08-.18-1.81 1.31 0 .18.05.41 0 .54-.48.64-.26 1.35-.27 2a2.36 2.36 0 0 1-.2.9c-.63 1.46 2.5.22 3.24.71v.22c-.94.59-2.73-.34-3 1.08a2 2 0 0 0-.67 2c.1.73.19.81.9.74 2.09-.2 4.19-.33 6.29-.45.3 0 .68 0 .66-.42-.06-.94.18-1.93-.5-2.85.2-.37.3-.86.64-1.06zm115.28 4.82c.94-.41 1.95-.14 2.9-.71.72-.43.79-.32.73-1.17s-.3-1.75-1.34-1.27c-1.75.79-3.75.25-5.53.89a9.61 9.61 0 0 0-4.5.48c-1.88.45-.53 3.78-.7 5.23.11.84 1 .8 1.64.45l.11.12c-1.12 1.28-1.35.58-1.16 2.57-.12 1.18 2.08.62 2.7.27.12-.07.38.07.58.11a.79.79 0 0 1-.95.73c-2.3.19-4.67.06-6.87.84-1.67.55-6.89-.71-6.5 1.93.06.52.1.55 1 .5 2.26 0 4.59-.56 6.81-.14a2.2 2.2 0 0 0 1.8-.08c1.37-.82 2.89.07 4.34-.15 2.83-.22 5.67-.27 8.5-.48 1.4 0 .48-2 .6-2.92.09-1.57-1.27-.39-2-1.12.55-.73 2 .18 1.87-1.07s-.12-2.46-.22-3.69c-.05-1-.39-.52-1.07-.42l-.09-.58c-.89-.21-1.79.22-2.63-.09zm-45.47-4.54c1 3.07-.84 4.53 3.52 2.86.54-.35 1 0 1.55 0 1-.14 2.12.1 3.07-.51a1.63 1.63 0 0 1 .74-.13c2.21-.24 4.52-.05 6.68-.56a1.84 1.84 0 0 1 1.88-.07c1.07.45.2-1.3 1.34-1.39.79-.92 3.1-.83 2.23-2.51a1.75 1.75 0 0 1-.11-1.5c.76-1.69-1.14-2.28-.59-3.1.36-.52-.36-.66-.77-.58-2.05 0-4 .83-6.11.8-.86.08-.89.1-.84.94l.24 4c.16 1.27-1.67.69-2.45.89-2 .27-.36-4-1.61-5-.67-1-1.68.11-2.57.06-2.56.35-5.25-.11-7.63.88-1.24-.1.16 6.78-.05 8 0 .48.28.61.72.59 1.21-.2.09-2.75.55-3.69zm-105.8 14c1.23 1.3-.95 3.37-.15 5.15a3.13 3.13 0 0 1 .41 1.25c.36 1.62-.92 1.1-2 1.37v.21c4.59-.57-.4 5.36 4.87 2.51 0 .6-.47 1.06-.76 1.55-.47.76-1.29.05-1.59.85-.4.63.29 1.13.43 1.73 1 2.21 3.83-1 5.4-1.28l.09.13c-.56.64-.26 2.11.78 1.57.86-.17 1.78.37 2.63-.08s2.82-.23 2-1.64c-.55-1 .18-2.82-1.65-1.57a1.17 1.17 0 0 1 .76-1c1.82-.55.29-2.51 1.07-3.8l-2-.7c-.66-.22-1.39.1-2.05-.32 1.11-.94 3.39.42 3.84-1.28.37-.59.36-.57-.18-1-.23-.19-.59-.36-.33-.77s.12-1.11.07-1.67c-.43-.7-1.67-.53-2.41-.72-1 .13-1.85-.56-2.84-.18-.34.48-.23 1.54-1.19 1.61.58-.95.55-2.09-.77-2a2.27 2.27 0 0 1-1.59-.24 25 25 0 0 0-2.9-.06c-.03.09-.04.28.06.39zm139.19-22.1c.23-.43-.26-.69-.57-.49a2 2 0 0 1-1.42.39c-.9-.14-1.48.49-2.34.58-5.18.11-3.14.64-3 4.75l1.55-.69c-.68 1.9-2.47 2.79-1.84 5 .27 1.38 1.36-.22 2.25-.2-.41.64-.47 1.74.54 1.35 3.16-.81 6.61-.08 9.69-1.19 3.22-.44 6.61 0 9.72-1 .82-.09.77-1 .79-1.64-.26-.65 0-2-1-1.81a52.3 52.3 0 0 1-7.51 0c-2.07.22-4.24 0-6.25.56-.4.17-.52.13-.56-.33a8.46 8.46 0 0 0-.29-2.27c-.53-.58.11-.81.42-1.28a1.25 1.25 0 0 1-.18-1.73zm-3.34-5.68a7.48 7.48 0 0 0-2.46.57c-.87.1-2.26 0-2.18 1.22.25 2.83-.63 3.49 2.77 3 2.47-1.08 5.39-.4 7.92-1 1.18-.76 2.62-.34 3.94-.53a2.4 2.4 0 0 0 1.55-.44 34.34 34.34 0 0 1 4.56-.38c1.45-.09 1.82-.31 1.68-1.88-.07-.89-.28-1.11-1.19-1.1a3.43 3.43 0 0 1-1.36 0c-.82-.39-1.64-.09-2.46-.35v-.29a4.87 4.87 0 0 1 3.22 0c.29.13.73 0 1.1-.12.36-1-1.18-1-1.81-1.2a26.72 26.72 0 0 0-7.25.45c-.88.46-1.92.09-2.7.75-.73.35-1.74 0-2.41.49.23-2.42-4.2-1.18-5.57-.85-1-.09-3.1.82-1.79 1.76 2.05.21 3.72-1.16 5.72-.95-.37.54-.69.85-1.28.85zM163.9 9.82c.69.33 2.41.4 2.86-.2.21-.92-.15-1.78-1.23-1.71l-7 .43c-1.43.45-.68 3.13-2.3 3.55a35.63 35.63 0 0 0 .92-3.66c-1-.29-2 .26-3 .57-.68.37-1.45.23-2.08.71a1 1 0 0 1-1.31-.18l.64-.38c-1.23-1-1.6 0-2.83 0-.81-.07-1.27.64-2 .56-1.18.15-2.66-.18-3.34 1s1.31.57 1.93.47c-.15 1.27-1.93.41-2.35 1.37-.13.55-.37 1.59.54 1.56 3.81-.21 7.62-.45 11.44-.68.74 0 1.15-.5 1.71-.87l.11.1-.17.6c1.31.24 4.94-.75 5.62.13-1.86.74-4.61-.35-6 1.09.59 1.13 5.45.29 6.63 0 1.51-.49 3.13.39 4.55-.21-.1-2.16-2.57 0-3.51-1.18 1.19-.7 3.38.45 2.78-1.71-.06-.44-.23-.67-.7-.64-.71-.05-2 .38-2.1-.69.06 0 .15-.05.19-.03zm53.82 0c.16 0 .44-.22.44-.34.37-1.38-.91-2.17-1.11-3.45 0-.89-.45-1.21-1.35-1.22-1.49 0-3-.69-4.45.15-.3.18-.82 0-1.24 0-2.58-.53-5.31.58-7.8-.14l.19.66c-2-.94-1.51.08-2.35 1.53a4 4 0 0 0-.63 2.43c-.54.51-.23 1.26-.66 1.93a9.91 9.91 0 0 0 3.49-.42.89.89 0 0 0 1.18-.12c2.11-.44 4.41-.25 6.57-.57l-.06-.79c1 .89 1.79-.2 2.58 0l-.09.64c1.84-.05 3.57-.11 5.29-.26zm61.91 25.52c-.57.35-3.13-.19-2.48.92a2.14 2.14 0 0 0 1.76.87c2.48-.2 5-.32 7.45-.46a1.4 1.4 0 0 1 .8.07c1.17.6 2.52 0 3.77.08a.94.94 0 0 0 .52-.15 1.75 1.75 0 0 1 1.33-.41c2.67-.29 9.35.53 5.58-3.92-3.08-.57-6.32.84-9.47.78-3.59 1.18-7.53.83-11.28.7-.38 0-.69.08-.71.54.05 1.23 2 .29 2.73.71zm-104-6.74c.69 0 1.38.24 2.06.29a4.92 4.92 0 0 1 2.55.23c1.08-.16 2.17.4 3.23 0a61.22 61.22 0 0 0 8.15.68c1.69.23.72-1.2.7-2.25.32-.67-.16-1.11-.38-1.71s-.19-.67-1-.71c-2.46.37-4.95-.17-7.34.82-1.6.81-3.48.56-5.17 1.22l.09-.78c-2.09-.05-4.28.2-6.39.34-2.4 1.55 1.52 1.41 2.37.68-.13 1.02.11 1.24 1.08 1.22zm35.87-14.25c-.56.85-1.68-.08-1.73 1.09 0 .73.59 1.79 1.32 1.88 1.46.68 2.77.08 4.18-.32 1.51-.14 3.15.09 4.37-1 .74-.5.28-1.59-.09-2.2-.4-1-1.32-.77-2.17-1v-.24l1.6-.29c.14-.8.21-1.92-.86-1.93-1.94.16-3.92 0-5.73.69-1.29-.32-4.11 2.52-2 2.54v.46zM75 54.45c0-.84.76-2.13-.24-2.61s-.94-1.2-.26-1.93c.21-.28.1-.5-.2-.56-.73-.22-1.24.81-1.78 0-.71-.86-1.22 1.15-2-.05-.52-.75-.65-1.5-1.66-.91-.64.26-.88-.46-.2-.62s1-.79 1-1.71c0-.5-.16-.59-1-.68s-.87-.06-1 .77c-.16 1.65-2.42-1.09-3.45-.91-1.48-.2.39 2.45.5 3.1s.74 1.25 1.08 1.93c.27.9.44.63 1.2.74 2.25 1.05 2.09 3.87 4.38 4.11 1-.18 3.3.66 3.63-.67zm-6.35-4.79c.85-.35 2.36.2 1.62 1.12zm3.5 1.34c-.32-.38-.51-.65 0-1l.56.51zm112.29-29.82c-.58.16-1.79-.19-1.66.76.11.77-.09 2.12 1 2.2s2.08-.6 3.19-.59c.74-.26 5.21.28 4.55-.86-.08-.16-.21-.35-.17-.49.26-1.1-.72-1.82-.79-2.83-.22-.9.4-2.83-1.1-2.41-2.22.12-4.66.15-6.73 1-.2.32-.07.9-.07 1.33-.13 2.65 1.24.55 2.57 1.7a6.16 6.16 0 0 1-.79.19zm80.63 9.92c-.46 0-.63.28-.61.73.05.85.12.93 1 .9a18.12 18.12 0 0 1 3.37.21c6.39-.24 4.29 1.17 4.25-5.27-.48-1.27-2.22.26-3.12.09-1.52-.09-2.8.73-4.27.73s-1.4 0-1.29 1.55c0 .39.19.59.61.54.26 0 .56-.13.69.36a5 5 0 0 1-.63.16zm13.07-1.47c1.94 0 4.4.33 6.1-.79.32-.35 0-1.39.2-1.83.43-.48.29-1 .27-1.56.06-2.25-5.23-.56-6.76-.8-2.35.47-1.37 3.44-1.27 5.16.56-.42.98-.51 1.46-.18zM199 33.57c0 .66.45 1 .59 1.63s.2.66.82.64c.79 0 1.92-.15 1.25-1.19s-.79-2.5-1.48-3.59a2.23 2.23 0 0 0-1.1-1.86 1.27 1.27 0 0 1-.53-1c-.22-1-.78-1.95-1.07-2.92 0-1.09-.67-.62-1.31-1.14.25-.22.9-.36 1.06-.52a2.14 2.14 0 0 0-.12-1.3c-.63-.6-.06-1.87-1.05-2-.35.89-.69 1.74-1 2.59-.49 1.07 0 .7.42 1.42l-.58.34c.61 1.38 1.09 2.71 1.79 4.09.45.83.4 2 1.59 2.16-.32 1.23.53.95 1.37 1.32v.15l-.89.35a5.51 5.51 0 0 1 .24.83zm-54.69-12.7c1.62-.18 3.48.22 5-.58.56-.38 1.73.11 2.07-.61a3.3 3.3 0 0 0-.54-2.33c-.2-1.1-1-1-1.91-1a31.31 31.31 0 0 0-5.38.79c-.53 0-.63.15-.59.69.13 1.26.09 3 1.8 1.85l.09.12-.59.85zm113.63 19.77c2.28 0 2.95-.39 2.56-2.77-.09-1.24-.1-1.24-1.34-1.15s-2.7-.59-4.07-.07c-.78.38-2.13-.67-2.06.76.25.82-.4 3 .81 3 .79-.1 1.7.21 1.6-.92.29-.61.65 0 .59.44 0 1.11 1.18.63 1.9.73zm-85.12-16.16l.1.13-.13.66c2.22-.1 4.37-.25 6.57-.39 1.4 0 1.06-1.29 1-2.25 0-.69-.11-.75-.78-.71-3-.09-5.81 1.17-8.85.82a8.54 8.54 0 0 0 .12 3zm-18.22-10.6l-11.14.63c-.64 0-.71.14-.66.91s.16.79.76.75l8.68-.56a1 1 0 0 0 .59-.14c.94-.89 2.72.34 2.55-1.54a5.11 5.11 0 0 0-.78-.05zm140.25-4.41c.9.22 1.59-.31 2.33-.62s1.47-1.83.63-2.4a3.73 3.73 0 0 0-1.61.17c-1.11.89-6.8-.11-6.07 1.88 1.15 1.43 3.18.33 4.7 1.13zm-44.79 21.87c-.17.64-.25 1.13.59 1 .51-.06.57-.38.51-.78-.2-2.35-.16-4.8-.56-7.1-.81-.71.09-2.13-1.28-2.31.15 1.81-.48 3.41-.22 5.19 0 .64-.75 1.33-.23 1.9 1.19 1.09-.38 2.26.3 3.32a1.62 1.62 0 0 1 .74-1.38zm17 2.71c-.75.14-1.82-.18-2.37.44-.32.77.09 1.32.92 1.28 2.62-.32 5.15.33 7.79-.06 1.18-.17.15-1.86-.84-1.56a20.54 20.54 0 0 1-5.48-.23zm4.79 3.95c.65 0 3.16-1.2 1.48-1.66-2.62-.13-5.25.75-7.88.05a.48.48 0 0 0-.66.42c-.22 2.84 5.31 1.01 7.06 1.19zm-12.26-2.28c.66 0 .76-.16.73-.78.28-1.65-3.2-.46-4.23-.64-1.26.24-3.42-1.34-3.18 1 0 .66.11.84.8.79 1.96-.09 3.92-.26 5.88-.38zm-188.1 6.9c-.32-.38-1.07-1.74-1.51-.91-.21 1-1.18 3 .51 3 3.18.22 4.13.71 2.72-2.89-.26-1.26-1.46 0-1.51.72zm13.28-3.82C84 45 85.84 44.41 82.6 50.44c1-.34 1-1.5 1.53-2.24C87 45 84.21 41.12 86 37.57c-.72.2-1.13.53-1.23 1.23zm-12.52 8.35c.27.62.1 1.84 1 1.87.6-.63.18-1.93.27-2.78a.6.6 0 0 0-.89-.54c-.61.38-1.78-.75-2 .25-.19 1.79.4 4.5 1.45 1.18zm-13.62-6.21c.07 3.29.35 6.58.54 9.87-.1.8 1 .82.82 0 0-3.36-1-6.5-1.1-9.85zm2.76 0c.38 2.58-.29 5.56 1.18 7.83l.14-.05c-.58-2-.05-7.73-1.25-8.65a6.38 6.38 0 0 0-.07.84zM252 38.68c-.64-.58-.16-1.43-.88-1.88-.44.26-.41.71-.51 1.1-.5.6-.27 1.27-.19 1.9a1 1 0 0 0 1.19.78c.73.09.59-1.42.39-1.9zM79.07 34.12c.93 1.29 3.59 3 4.42.76 0-.43-.54-.3-.86-.31a10.81 10.81 0 0 1-3.44-.57zm123.46 4.05c-.05-.46.08-1.2-.48-1.39-.45 0-1.31-.18-1.38.45a2.12 2.12 0 0 0 2.07 2.3c-.08-.53-.16-.94-.21-1.36zM79.05 25.72c1.44.31 2.92.18 4.26.92 1.53-.64-3.53-2.45-4.27-1.13zM75.31 46c-.06-.55-.58-.58-.86-.24-.44.41.06 4.28.94 2.95a8.45 8.45 0 0 0-.08-2.71zm-8.37-15.29c0-1.39-2.19-1.3-2.11.07C64.9 32 67 32 66.94 30.71zm14.69-.77a1.07 1.07 0 0 0-2.13 0 1.07 1.07 0 0 0 2.13 0zM97 21.75c.5-.16 4.71 0 3.27-1h-3.84c.01.81.11 1.03.57 1zM68.58 42.16c0-.49-.43-.64-.76-.29s-.46 2.83.4 2.72c.86-.28.11-1.72.36-2.43zm133.36-1.65c.16.26.41.56.4.83a1.47 1.47 0 0 0 1.36 1.51c0-.14 0-.36-.07-.42a1.58 1.58 0 0 1-.45-1.18c-.14-.59-1-1.75-1.72-1.29a5 5 0 0 1 .48.55zm-127.3 1c-.28.5-.66 4.19.55 2.86a6.21 6.21 0 0 0-.36-2.87zm7.7-2.3c-.17.74-1.38 2.94-.61 3.35s.91-2.87.8-3.3zm-.65 13.83a.47.47 0 0 0 0-.33c-.3-.75 1.13-1.27-.18-1.59-.4.51.22 1.06-.28 1.54s-.18.8-.1 1.28c.22-.34.41-.6.56-.89zm168.88-17.67a1.92 1.92 0 0 0 .36.4.84.84 0 0 0 .41-1c0-.29-.1-.57-.45-.56-.63.02-.37.79-.32 1.16zM75.92 37.16a1.42 1.42 0 0 0-.3-1.85 5.8 5.8 0 0 0 .3 1.85z" fill="#fff"/></svg>