<svg xmlns="http://www.w3.org/2000/svg" viewBox="0 0 270 80"><path fill="#fff" d="M131.71 3.41L130.52.67h-5.1l-.56 1.29 6.85 1.45zM163.81 2.48c-.96-.65-2.09-1.11-3.37-1.39-1.28-.28-2.63-.42-4.06-.42h-10.85v5.67l6.18 1.31V5.9h4.04c.55 0 1.12.04 1.7.12.58.08 1.1.23 1.54.46.45.22.82.55 1.11.97.29.42.44.99.44 1.7 0 .13 0 .25-.02.37l6.29 1.33c.09-.53.14-1.08.14-1.67 0-1.64-.28-3-.85-4.1-.57-1.1-1.33-1.97-2.3-2.61zM184.1 13.7L196.57.67h-8.08L177.6 12.32V.67h-6.17v11.16l13.58 2.88-.91-1.01zM57.02 71.36l-6.18-1.45v9.42h6.18v-7.97zM6.18 68.12h3.05l5.86 11.21h7.4l-7.13-11.84c1.98-.37 3.48-1.25 4.51-2.63.44-.59.78-1.24 1.03-1.94l-6.32-1.48-.08.11c-.33.42-.75.73-1.25.93-.5.2-1.06.32-1.68.36-.62.04-1.21.06-1.76.06H6.17v-3.42l-6.18-1.44v21.3h6.18V68.13zM74.32 75.4v3.93H91.1L74.32 75.4zM25.9 79.33h19.75v-5.71H32.07v-5.7h10.25L25.9 64.08v15.25zM61.81 69.78v-2.96h11.68v-5.7H61.81v-5.7h12.63v-5.71H55.63v18.63l6.18 1.44zM95.89 77.75h.84v-5.7H85.29V49.71h-6.18v24.11l16.78 3.93zM98.95 29.32c1.9-.61 3.58-1.5 5.03-2.67 1.45-1.17 2.61-2.63 3.46-4.36.86-1.73 1.29-3.73 1.29-6 0-2.56-.44-4.74-1.33-6.53-.88-1.79-2.08-3.25-3.58-4.38-1.5-1.12-3.27-1.93-5.29-2.44-2.02-.5-4.15-.75-6.39-.75h-9.27v28.03h10.1c2.09 0 4.08-.3 5.98-.91zm-9.9-4.79V7.9h3.64c1.29 0 2.53.17 3.7.49 1.17.33 2.2.83 3.07 1.48.87.66 1.56 1.5 2.08 2.51.51 1.02.77 2.21.77 3.58 0 1.58-.26 2.92-.77 4.02-.51 1.1-1.22 1.98-2.12 2.65-.9.67-1.96 1.16-3.19 1.45-1.23.29-2.55.44-3.98.44h-3.21zM10.97 57.9v-2.96h4.04c.55 0 1.12.04 1.7.12.58.08 1.1.23 1.54.46.45.22.82.55 1.11.97.29.42.44.99.44 1.7s-.14 1.26-.42 1.67l6.32 1.48c.34-.94.51-1.98.51-3.11 0-1.64-.28-3-.85-4.1-.57-1.1-1.33-1.97-2.3-2.61-.96-.65-2.09-1.11-3.37-1.39-1.28-.28-2.63-.42-4.06-.42H4.79v6.74l6.18 1.44zM148.44 19.03h3.05l5.86 11.21h7.4l-7.13-11.84c1.98-.37 3.48-1.25 4.51-2.63.73-.98 1.19-2.11 1.41-3.38l-6.29-1.33c-.05.59-.2 1.06-.48 1.41-.33.42-.75.73-1.25.93-.5.2-1.06.32-1.68.36-.62.04-1.21.06-1.76.06h-3.64V9.19l-6.18-1.31v22.37h6.18V19.04zM119.18 24.29h10.89l2.42 5.94h6.97l-11.01-25.3-6.85-1.45-11.56 26.75h6.81l2.34-5.94zm5.35-13.93l3.44 8.71h-6.85l3.41-8.71zM47.11 66.34h1.91v-5.7H36.86v-5.22h12.87v-5.71H30.68V62.5l16.43 3.84zM174.85 49.71h6.18v28.03h-6.18zM211.12 52.98c-1.35-1.28-2.94-2.26-4.79-2.95-1.85-.69-3.87-1.03-6.06-1.03s-4.21.34-6.06 1.03c-1.85.69-3.44 1.67-4.79 2.95-1.35 1.28-2.4 2.83-3.15 4.65-.75 1.82-1.13 3.85-1.13 6.1s.38 4.28 1.13 6.1c.75 1.82 1.8 3.37 3.15 4.65 1.35 1.28 2.94 2.26 4.79 2.95 1.85.69 3.87 1.03 6.06 1.03s4.21-.34 6.06-1.03c1.85-.69 3.44-1.67 4.79-2.95 1.35-1.28 2.4-2.83 3.15-4.65.75-1.82 1.13-3.85 1.13-6.1s-.38-4.28-1.13-6.1c-.75-1.82-1.8-3.37-3.15-4.65zm-2.75 14.37c-.41 1.1-1 2.05-1.76 2.85-.77.81-1.68 1.43-2.75 1.88-1.07.45-2.26.67-3.58.67s-2.51-.22-3.58-.67a8.06 8.06 0 0 1-2.75-1.88c-.77-.8-1.35-1.76-1.76-2.85-.41-1.1-.61-2.3-.61-3.62s.2-2.49.61-3.6c.41-1.11 1-2.07 1.76-2.87.77-.8 1.68-1.43 2.75-1.88 1.07-.45 2.26-.67 3.58-.67s2.51.22 3.58.67a8.06 8.06 0 0 1 2.75 1.88c.77.81 1.35 1.76 1.76 2.87.41 1.11.61 2.31.61 3.6s-.21 2.53-.61 3.62zM239.99 69.2h-.08l-11.92-19.49h-8.4v28.04h6.18V57.79h.08l12.24 19.96h8.07V49.71h-6.17V69.2zM269.05 65.31a7.248 7.248 0 0 0-2.4-2.34c-.96-.58-2-1.03-3.11-1.35-1.11-.32-2.15-.63-3.11-.95-.96-.32-1.76-.7-2.4-1.15-.63-.45-.95-1.1-.95-1.94 0-.53.13-.98.4-1.35.26-.37.61-.67 1.03-.89.42-.22.87-.39 1.35-.49.48-.11.94-.16 1.39-.16.77 0 1.58.15 2.44.46.86.3 1.54.77 2.04 1.41l4.24-4.63a10.569 10.569 0 0 0-4-2.26c-1.48-.45-3.01-.67-4.59-.67-1.37 0-2.71.19-4 .57-1.29.38-2.44.96-3.43 1.72-.99.77-1.78 1.72-2.38 2.85-.59 1.14-.89 2.46-.89 3.96s.32 2.81.97 3.76c.65.95 1.46 1.72 2.44 2.3.98.58 2.03 1.04 3.17 1.39 1.13.34 2.19.69 3.17 1.03.98.34 1.79.76 2.44 1.25.65.49.97 1.16.97 2 0 .5-.13.94-.38 1.31-.25.37-.58.67-.99.91-.41.24-.87.42-1.39.53-.51.12-1.02.18-1.52.18-1.03 0-2.03-.23-2.99-.69a6.439 6.439 0 0 1-2.4-1.96l-4.39 4.83c1.35 1.24 2.8 2.14 4.36 2.69 1.56.55 3.25.83 5.07.83 1.45 0 2.83-.19 4.14-.55 1.31-.37 2.45-.94 3.44-1.7.99-.77 1.77-1.73 2.36-2.89.58-1.16.87-2.52.87-4.08 0-1.64-.32-2.94-.95-3.92zM106.55 66.34h12.16v-5.7h-12.16v-5.22h12.87v-5.71h-19.05v28.04h19.76v-5.7h-13.58v-5.71zM141.27 71.97c-.98.53-2.1.79-3.37.79-1.11 0-2.15-.22-3.11-.67-.96-.45-1.8-1.08-2.51-1.88-.71-.8-1.27-1.76-1.68-2.85-.41-1.1-.61-2.3-.61-3.62s.2-2.49.61-3.6c.41-1.11.98-2.07 1.7-2.87.73-.8 1.58-1.43 2.57-1.88.99-.45 2.07-.67 3.23-.67s2.18.2 3.07.59c.88.4 1.63.96 2.24 1.7l4.75-3.88a9.436 9.436 0 0 0-2.06-1.94c-.77-.53-1.56-.95-2.4-1.27-.83-.32-1.68-.55-2.53-.69a15.4 15.4 0 0 0-2.47-.22c-2.19 0-4.21.34-6.06 1.03-1.85.69-3.44 1.67-4.79 2.95-1.35 1.28-2.4 2.83-3.15 4.65-.75 1.82-1.13 3.85-1.13 6.1s.38 4.28 1.13 6.1c.75 1.82 1.8 3.37 3.15 4.65 1.35 1.28 2.94 2.26 4.79 2.95 1.85.69 3.87 1.03 6.06 1.03 1.93 0 3.8-.4 5.62-1.19 1.82-.79 3.33-2.02 4.51-3.68l-5.15-3.84c-.63.95-1.44 1.69-2.42 2.22zM149.63 55.18h8v22.57h6.18V55.18h7.99v-5.47h-22.17v5.47zM194.37 30.23l-12.63-14-13.58-2.88v16.88h6.18v-13.3l11.4 13.3h8.63z"/></svg>