<?xml version="1.0" encoding="UTF-8"?><svg id="b" xmlns="http://www.w3.org/2000/svg" viewBox="0 0 250 89"><path d="M27.44,46.25c-1.13,4.75-4.71,10.51-12.8,10.51S0,51.29,0,40.03c0-10.34,5.25-17.85,14.14-17.85,3.34,0,5.13,1.04,5.84,1.54l1.25-1.21h1.83l3.25,7.84-1.75.92c-2.46-3.42-6.05-6.34-9.72-6.34-5.13,0-8.38,3.42-8.38,15.39,0,9.13,3.34,13.68,8.63,13.68,6,0,8.76-5.3,9.51-8.51l2.84.75Z" fill="#fff"/><path d="M50.42,54.5c-.67.75-1.96,1.33-3.5,1.33-1.75,0-3.17-.46-4.17-1.67-1.04.88-2.96,2.04-6.3,2.04-3.92,0-7.13-1.83-7.13-5.55,0-5,5.88-6.42,8.63-7.21,1.54-.46,3.04-.92,4.17-1.29v-2.38c0-2.25-1.25-3.54-2.79-3.54-1.42,0-2.42,1.13-3,2.5-.67,1.5-1.33,2.46-2.75,2.46-1.5,0-2.29-.92-2.29-2.21,0-2.25,3.09-4.71,8.01-4.71s8.13,2.38,8.13,6.17v10.93c0,1.88,2.17,2.54,3,2.17v.96ZM42.12,44.7c-2.96.13-7.42,2.09-7.42,5.25,0,2.38,1.29,3.67,3.42,3.67s4-1.54,4-3.71v-5.21Z" fill="#fff"/><path d="M76.06,55.42h-10.38v-1.75c1.46-.5,2.67-.96,2.67-3.04v-9.59c0-2.38-1.25-3.63-3.46-3.63-1.42,0-3,.88-4.25,1.83v11.55c0,2.17,1.5,2.54,2.63,2.84v1.79h-10.88v-1.83c1.42-.38,3.13-.88,3.13-3.09v-6.96c0-2.46-1.21-2.96-1.79-3.04l-1.29-.13v-1.83c1.04-.38,2.13-.92,3.17-1.46,1.25-.67,2.38-1.42,3.13-2h1.92v1.63c1.96-1.38,4.13-2.21,6.59-2.21,4.21,0,6.26,2.17,6.26,6.26v9.47c0,2.38,1.42,3.09,2.59,3.38v1.83Z" fill="#fff"/><path d="M100.96,55.42h-7.92v-.92c-1.25.88-2.88,1.42-4.92,1.42-5.46,0-10.09-3.54-10.09-10.13s3.84-11.34,10.34-11.34c1.88,0,3.42.38,4.67,1v-4.09c0-2.46-1.21-2.96-1.83-3.04l-1.25-.13v-1.83c1-.42,2.13-.92,3.17-1.5,1.25-.67,2.38-1.38,3.13-2h2.04v28.02c0,2.17,1.54,2.54,2.67,2.84v1.71ZM93.04,38.57c-.67-1.25-1.75-2.13-3.38-2.13-4,0-5.96,3.96-5.96,9.09s2.63,8.17,5.25,8.17c1.54,0,3.04-.88,4.09-2.5v-12.64Z" fill="#fff"/><path d="M123.6,36.74c-1.38.5-2.92,1.46-3.88,4.04l-6.05,16.01c-1.63,4.42-3.71,7.09-7.38,7.09-2.21,0-4-1.29-4-3.13,0-1.08.71-2,2-2,1.88,0,2.09,1.96,3.17,1.96.96,0,1.58-.38,2.54-2.46l1.38-3.04-6.71-16.01c-.75-1.75-2.21-2.04-3.29-2.38v-1.75h10.8v1.71c-.92.25-2.13.75-2.13,2,0,.29.08.63.25,1.04l3.75,8.55,3.38-8.59c.17-.38.21-.71.21-1,0-1.21-1.25-1.58-2.21-2v-1.71h8.17v1.67Z" fill="#fff"/><path d="M158.01,55.42h-19.31v-2c1.71-.29,4.3-1.08,4.3-3.75v-20.56c0-3.25-2.21-4-4.09-4.25v-1.96h17.56c7.05,0,10.26,3.46,10.26,7.71s-3.25,6.38-5.46,7.34v.13c3.92,1.63,6.34,4,6.34,8.01,0,4.55-3,9.34-9.59,9.34ZM153.34,25.44c-3.84,0-4.71,1.13-4.71,3.09v8.13h7.09c2.63,0,5.21-2.63,5.21-6.05s-2.54-5.17-7.59-5.17ZM155.3,39.28h-6.67v10.68c0,1.88.75,2.88,4.96,2.88,4.75,0,8.05-2.21,8.05-6.84,0-3.75-2.54-6.71-6.34-6.71Z" fill="#fff"/><path d="M181.23,55.42h-11.05v-1.75c1.42-.38,3.13-.88,3.13-3.09v-19.22c0-2.46-1.21-2.96-1.79-3.04l-1.29-.13v-1.83c1.04-.42,2.13-.92,3.17-1.5,1.25-.67,2.38-1.38,3.13-2h2.09v28.02c0,2.17,1.5,2.54,2.63,2.84v1.71Z" fill="#fff"/><path d="M204.21,54.5c-.67.75-1.96,1.33-3.5,1.33-1.75,0-3.17-.46-4.17-1.67-1.04.88-2.96,2.04-6.3,2.04-3.92,0-7.13-1.83-7.13-5.55,0-5,5.88-6.42,8.63-7.21,1.54-.46,3.04-.92,4.17-1.29v-2.38c0-2.25-1.25-3.54-2.79-3.54-1.42,0-2.42,1.13-3,2.5-.67,1.5-1.33,2.46-2.75,2.46-1.5,0-2.29-.92-2.29-2.21,0-2.25,3.09-4.71,8.01-4.71s8.13,2.38,8.13,6.17v10.93c0,1.88,2.17,2.54,3,2.17v.96ZM195.91,44.7c-2.96.13-7.42,2.09-7.42,5.25,0,2.38,1.29,3.67,3.42,3.67s4-1.54,4-3.71v-5.21Z" fill="#fff"/><path d="M223.98,49.37c-1.17,3.71-3.96,6.76-8.72,6.76s-10.09-3.09-10.09-10.51,4.34-11.22,10.18-11.22c4.96,0,7.88,2.75,7.88,4.88,0,1.38-.88,2.38-2.25,2.38-1.54,0-2.25-.83-2.63-2.09-.38-1.25-1.42-3.13-3.17-3.13s-4.42,1.96-4.42,9.01c0,5.92,2.09,8.34,4.92,8.34,3.25,0,5.5-3.04,6.13-5.25l2.17.83Z" fill="#fff"/><path d="M250,55.42h-11.97v-1.75c1-.21,2.13-.92,2.13-1.92,0-.38-.21-.79-.58-1.25l-3.25-4.17-2.29,2.38v2.17c0,2.17,1.5,2.54,2.63,2.84v1.71h-11.05v-1.75c1.42-.38,3.13-.88,3.13-3.09v-19.22c0-2.46-1.21-2.96-1.79-3.04l-1.29-.13v-1.83c1.04-.42,2.13-.92,3.17-1.5,1.25-.67,2.38-1.38,3.13-2h2.09v21.89l4.42-4.67c.38-.42.54-.79.54-1.13,0-1.08-1.58-1.88-2.84-2.04v-1.83h11.26v1.75c-1.63.21-2.84.29-4.38,2.13l-3.46,4.04,6.17,7.8c1.58,2,3.38,2.71,4.25,2.88v1.75Z" fill="#fff"/><path d="M41.78,20.83c-.87,0-1.56-.21-2.06-.63-.5-.42-.75-1.18-.75-2.26,0-.63.19-1.42.57-2.39.38-.96.86-2,1.43-3.12.57-1.11,1.14-2.21,1.71-3.3-.35.08-.67.12-.94.12-.82,0-1.22-.31-1.22-.94,0-.3.12-.53.35-.69.23-.16.44-.26.63-.29.14,0,.26-.01.37-.04h2.36c.49-.62.99-1.29,1.51-2,.73-.92,1.32-1.47,1.75-1.63h.12c.19,0,.46.1.82.29.43.24.65.49.65.73,0,.35-.65,1.26-1.96,2.73.24.03.6.04,1.06.04h3.12c.61,0,1.25,0,1.92-.02.67-.01,1.24-.03,1.73-.04.49-.01.76-.02.82-.02.08.03.12.07.12.12,0,.24-1.6.57-4.81.98-1.82.24-3.21.43-4.18.57-.96.14-1.49.22-1.57.24-.38.33-.84.88-1.39,1.67-.54.79-1.09,1.67-1.63,2.65-.54.98-1,1.91-1.37,2.79-.37.88-.55,1.57-.55,2.06,0,.43.16.79.49,1.08.33.29.86.43,1.59.43.49,0,1.07-.11,1.75-.33.68-.22,1.33-.47,1.94-.75.61-.29,1.05-.51,1.32-.67.71-.43,1.49-1.01,2.34-1.73.86-.72,1.71-1.54,2.55-2.47.38-.38.64-.57.77-.57.08,0,.12.05.12.16,0,.22-.2.57-.61,1.06-.65.79-1.38,1.54-2.18,2.26-.8.72-1.69,1.38-2.67,1.98-1.11.68-2.18,1.17-3.2,1.47s-1.96.45-2.83.45Z" fill="#fff"/><path d="M50.26,20.79c-.79,0-1.18-.23-1.18-.69,0-.27.16-.71.49-1.3,1.25-2.23,2.37-4.21,3.36-5.93.99-1.73,1.87-3.19,2.63-4.38C58.79,3.29,61.08.48,62.41.04c.05,0,.09,0,.12-.02.03-.01.05-.02.08-.02.35,0,.58.29.69.86-.08.57-1.5,2.64-4.24,6.2-1.44,1.82-2.56,3.32-3.36,4.51-.8,1.18-1.3,2.05-1.49,2.59.9-.65,1.86-1.35,2.89-2.08,1.03-.73,2.04-1.43,3.02-2.1.98-.67,1.86-1.21,2.65-1.63.79-.42,1.4-.66,1.83-.71.05,0,.12,0,.2-.02.08-.01.14-.02.16-.02.76,0,1.14.35,1.14,1.06,0,.19-.24.61-.73,1.26-.49.65-1.24,1.66-2.24,3.02-1.79,2.39-2.69,4.19-2.69,5.38,0,.63.23.94.69.94.49-.03,1.05-.24,1.69-.65.64-.41,1.28-.91,1.94-1.51.65-.6,1.24-1.19,1.77-1.77.53-.58.93-1.04,1.2-1.37.24-.24.43-.37.57-.37.11,0,.16.05.16.16,0,.22-.11.48-.33.77-.33.41-.81.94-1.45,1.59-.64.65-1.33,1.31-2.08,1.98-.75.67-1.45,1.22-2.12,1.67-.67.45-1.16.67-1.49.67-1.6,0-2.41-.94-2.41-2.81,0-1.06.49-2.45,1.47-4.16.38-.65.77-1.3,1.18-1.96l1.22-1.96c-3.48,1.74-6.63,4.31-9.46,7.71-.35.49-.72,1.01-1.1,1.57-.38.56-.72,1.03-1.02,1.41-.3.38-.52.57-.65.57Z" fill="#fff"/><path d="M68.77,21.12c-.87,0-1.66-.28-2.36-.84-.71-.56-1.06-1.3-1.06-2.22,0-1.93,1.18-4.13,3.55-6.6,2.42-2.5,4.58-3.75,6.48-3.75.62,0,1.13.17,1.53.51.39.34.59.75.59,1.24,0,1.52-1.21,3.02-3.63,4.48-2.15,1.3-3.95,1.96-5.42,1.96-.22,0-.41-.03-.57-.08-.41.73-.61,1.51-.61,2.32,0,1.41.67,2.12,2,2.12s3.11-.91,5.26-2.73c1.66-1.33,3.07-2.75,4.24-4.24.24-.33.46-.49.65-.49.16,0,.24.08.24.24s-.11.39-.33.69c-.76,1.01-1.58,1.93-2.45,2.77-.87.84-1.81,1.62-2.81,2.32-2.09,1.52-3.86,2.28-5.3,2.28ZM69.01,15c1.03,0,2.38-.52,4.04-1.55.54-.38,1.08-.81,1.61-1.28.53-.48.96-.96,1.3-1.45.34-.49.51-.92.51-1.3,0-.35-.29-.53-.86-.53-.82,0-1.96.61-3.42,1.83-.71.6-1.39,1.25-2.04,1.96-.65.71-1.21,1.45-1.67,2.24.16.05.34.08.53.08Z" fill="#fff"/><path d="M111.72,88.11c-.87,0-1.66-.28-2.36-.84-.71-.56-1.06-1.3-1.06-2.22,0-1.93,1.18-4.13,3.55-6.6,2.42-2.5,4.58-3.75,6.48-3.75.65,0,1.17.17,1.55.51.38.34.57.75.57,1.24,0,.68-.16,1.3-.49,1.88-.38.71-.92,1.06-1.63,1.06s-1.06-.22-1.06-.65c0-.3.18-.75.53-1.35.38-.62.57-.95.57-.98,0-.05-.04-.08-.12-.08-.76.08-1.82.64-3.18,1.67-.6.46-1.12.9-1.57,1.3-.45.41-.81.8-1.08,1.18l-1.59,2.32c-.16.24-.33.67-.51,1.26-.18.6-.26,1.05-.26,1.35,0,.54.18.99.55,1.35.37.35.84.53,1.41.53,1.36,0,3.15-.88,5.38-2.65,1.79-1.41,3.23-2.84,4.32-4.28.14-.16.3-.24.49-.24s.29.05.29.16c0,.08-.07.22-.2.41-1.5,1.98-3.25,3.7-5.26,5.14-2.15,1.52-3.91,2.28-5.3,2.28Z" fill="#fff"/><path d="M121.92,87.66c-.68,0-1.21-.32-1.59-.96-.38-.64-.57-1.26-.57-1.86,0-1.63,1.18-3.91,3.55-6.85,2.39-2.96,4.32-4.44,5.79-4.44,1.39,0,2.08.73,2.08,2.2,0,.22-.02.45-.06.69-.04.24-.09.5-.14.77.05.08.19.12.41.12.73,0,1.6-.26,2.61-.77-.03.46-1.1,1.13-3.22,2,.3.9-.6,2.61-2.69,5.14-2.15,2.64-3.98,3.95-5.5,3.95h-.65ZM122.65,86.44c1.17,0,2.66-1.07,4.48-3.22,1.77-2.09,2.65-3.6,2.65-4.53-.43-.24-.98-.87-1.63-1.88-.92,0-2.26,1.11-4,3.34-1.71,2.17-2.54,3.85-2.49,5.01.03.84.35,1.26.98,1.26Z" fill="#fff"/><path d="M134.72,87.66c-.79,0-1.52-.2-2.2-.59-.68-.39-1.02-1.05-1.02-1.98,0-1.28.45-2.8,1.37-4.57.91-1.77,1.95-3.6,3.12-5.5,3.18-5.16,5.44-7.75,6.77-7.75.27,0,.55.1.84.31.29.2.44.43.47.67l-2.85,3.83c-1.11,1.5-2.12,2.87-3.02,4.14-.9,1.26-1.67,2.4-2.32,3.4-.33.52-.69,1.1-1.1,1.75-.41.65-.77,1.33-1.08,2.02-.31.69-.47,1.39-.47,2.1,0,.33.09.62.29.88.19.26.53.39,1.02.39.87,0,2.01-.47,3.42-1.41,1.41-.94,2.81-2.24,4.2-3.89.14-.16.29-.31.45-.45.16-.14.3-.2.41-.2.14,0,.2.08.2.24,0,.08-.09.24-.26.47-.18.23-.32.41-.43.55l-.98,1.1c-.54.6-1.19,1.25-1.94,1.96-.75.71-1.54,1.3-2.36,1.79-.83.49-1.67.73-2.51.73Z" fill="#fff"/><path d="M144.62,87.66c-.79,0-1.52-.2-2.2-.59-.68-.39-1.02-1.05-1.02-1.98,0-1.28.45-2.8,1.37-4.57.91-1.77,1.95-3.6,3.12-5.5,3.18-5.16,5.44-7.75,6.77-7.75.27,0,.55.1.84.31.29.2.44.43.47.67l-2.85,3.83c-1.11,1.5-2.12,2.87-3.02,4.14-.9,1.26-1.67,2.4-2.32,3.4-.33.52-.69,1.1-1.1,1.75-.41.65-.77,1.33-1.08,2.02-.31.69-.47,1.39-.47,2.1,0,.33.09.62.29.88.19.26.53.39,1.02.39.87,0,2.01-.47,3.42-1.41,1.41-.94,2.81-2.24,4.2-3.89.14-.16.29-.31.45-.45.16-.14.3-.2.41-.2.14,0,.2.08.2.24,0,.08-.09.24-.26.47-.18.23-.32.41-.43.55l-.98,1.1c-.54.6-1.19,1.25-1.94,1.96-.75.71-1.54,1.3-2.36,1.79-.83.49-1.67.73-2.51.73Z" fill="#fff"/><path d="M153.51,88.11c-.87,0-1.66-.28-2.36-.84-.71-.56-1.06-1.3-1.06-2.22,0-1.93,1.18-4.13,3.55-6.6,2.42-2.5,4.58-3.75,6.48-3.75.62,0,1.13.17,1.53.51.39.34.59.75.59,1.24,0,1.52-1.21,3.02-3.63,4.48-2.15,1.3-3.95,1.96-5.42,1.96-.22,0-.41-.03-.57-.08-.41.73-.61,1.51-.61,2.32,0,1.41.67,2.12,2,2.12s3.11-.91,5.26-2.73c1.66-1.33,3.07-2.74,4.24-4.24.24-.33.46-.49.65-.49.16,0,.24.08.24.24s-.11.39-.33.69c-.76,1.01-1.58,1.93-2.45,2.77-.87.84-1.81,1.62-2.81,2.32-2.09,1.52-3.86,2.28-5.3,2.28ZM153.76,81.99c1.03,0,2.38-.52,4.04-1.55.54-.38,1.08-.81,1.61-1.28.53-.48.96-.96,1.3-1.45.34-.49.51-.92.51-1.3,0-.35-.29-.53-.86-.53-.82,0-1.96.61-3.42,1.83-.71.6-1.39,1.25-2.04,1.96-.65.71-1.21,1.45-1.67,2.24.16.05.34.08.53.08Z" fill="#fff"/><path d="M165.01,88.11c-.87,0-1.66-.28-2.36-.84-.71-.56-1.06-1.3-1.06-2.22,0-1.93,1.18-4.13,3.55-6.6,2.42-2.5,4.58-3.75,6.48-3.75.65,0,1.17.17,1.55.51.38.34.57.75.57,1.24,0,.68-.16,1.3-.49,1.88-.38.71-.92,1.06-1.63,1.06s-1.06-.22-1.06-.65c0-.3.18-.75.53-1.35.38-.62.57-.95.57-.98,0-.05-.04-.08-.12-.08-.76.08-1.82.64-3.18,1.67-.6.46-1.12.9-1.57,1.3-.45.41-.81.8-1.08,1.18l-1.59,2.32c-.16.24-.33.67-.51,1.26-.18.6-.26,1.05-.26,1.35,0,.54.18.99.55,1.35.37.35.84.53,1.41.53,1.36,0,3.15-.88,5.38-2.65,1.79-1.41,3.23-2.84,4.32-4.28.14-.16.3-.24.49-.24s.29.05.29.16c0,.08-.07.22-.2.41-1.5,1.98-3.25,3.7-5.26,5.14-2.15,1.52-3.91,2.28-5.3,2.28Z" fill="#fff"/><path d="M175.98,87.82c-.87,0-1.56-.21-2.06-.63-.5-.42-.75-1.18-.75-2.26,0-.62.19-1.42.57-2.38.38-.96.86-2,1.43-3.12.57-1.11,1.14-2.21,1.71-3.3-.35.08-.67.12-.94.12-.82,0-1.22-.31-1.22-.94,0-.3.12-.53.35-.69.23-.16.44-.26.63-.29.14,0,.26-.01.37-.04h2.36c.49-.62.99-1.29,1.51-2,.73-.92,1.32-1.47,1.75-1.63h.12c.19,0,.46.1.82.29.43.24.65.49.65.73,0,.35-.65,1.26-1.96,2.73.24.03.6.04,1.06.04h3.12c.61,0,1.25,0,1.92-.02.67-.01,1.24-.03,1.73-.04.49-.01.76-.02.82-.02.08.03.12.07.12.12,0,.24-1.6.57-4.81.98-1.82.24-3.21.44-4.18.57-.96.14-1.49.22-1.57.24-.38.33-.84.88-1.39,1.67-.54.79-1.09,1.67-1.63,2.65-.54.98-1,1.91-1.37,2.79-.37.88-.55,1.57-.55,2.06,0,.44.16.8.49,1.08.33.29.86.43,1.59.43.49,0,1.07-.11,1.75-.33.68-.22,1.33-.47,1.94-.75.61-.29,1.05-.51,1.32-.67.71-.43,1.49-1.01,2.34-1.73.86-.72,1.71-1.54,2.55-2.47.38-.38.64-.57.77-.57.08,0,.12.05.12.16,0,.22-.2.57-.61,1.06-.65.79-1.38,1.54-2.18,2.26-.8.72-1.69,1.38-2.67,1.98-1.11.68-2.18,1.17-3.2,1.47-1.02.3-1.96.45-2.83.45Z" fill="#fff"/><path d="M187.02,88.03c-.6,0-1.09-.2-1.49-.59s-.59-1.09-.59-2.1c0-.57.13-1.23.39-1.98.26-.75.58-1.5.98-2.26.39-.76.78-1.44,1.16-2.04,1.52-2.47,2.77-3.72,3.75-3.75.24,0,.54.1.9.31.35.2.53.43.53.67l-3.1,4c-2.04,2.64-3.06,4.51-3.06,5.63,0,.87.34,1.3,1.02,1.3.43,0,1-.18,1.69-.55.69-.37,1.42-.84,2.18-1.41.76-.57,1.49-1.18,2.18-1.83.69-.65,1.26-1.25,1.69-1.79.27-.35.51-.6.71-.73.2-.14.33-.2.39-.2.11,0,.16.08.16.24,0,.14-.16.41-.47.82-.31.41-.74.88-1.28,1.43-.65.65-1.37,1.36-2.16,2.12-.79.76-1.64,1.41-2.57,1.94-.92.53-1.93.79-3.02.79ZM194.57,73.55c-.46,0-.86-.15-1.2-.45-.34-.3-.51-.64-.51-1.02,0-.76.52-1.14,1.55-1.14.38,0,.76.13,1.14.39.38.26.57.58.57.96,0,.33-.18.62-.53.88-.35.26-.69.39-1.02.39Z" fill="#fff"/><path d="M196.52,87.66c-.68,0-1.21-.32-1.59-.96-.38-.64-.57-1.26-.57-1.86,0-1.63,1.18-3.91,3.55-6.85,2.39-2.96,4.32-4.44,5.79-4.44,1.39,0,2.08.73,2.08,2.2,0,.22-.02.45-.06.69-.04.24-.09.5-.14.77.05.08.19.12.41.12.73,0,1.6-.26,2.61-.77-.03.46-1.1,1.13-3.22,2,.3.9-.6,2.61-2.69,5.14-2.15,2.64-3.98,3.95-5.5,3.95h-.65ZM197.26,86.44c1.17,0,2.66-1.07,4.48-3.22,1.77-2.09,2.65-3.6,2.65-4.53-.43-.24-.98-.87-1.63-1.88-.92,0-2.26,1.11-4,3.34-1.71,2.17-2.54,3.85-2.49,5.01.03.84.35,1.26.98,1.26Z" fill="#fff"/><path d="M216.62,87.66c-.73,0-1.25-.21-1.55-.63-.3-.42-.45-.94-.45-1.57,0-1.58.54-3.26,1.63-5.06l2.61-4.24c-1.85,1.36-3.68,3.06-5.5,5.1-.49.54-1.04,1.18-1.65,1.92-.61.73-1.28,1.58-2.02,2.53-.98,1.28-1.56,1.92-1.75,1.92-.38,0-.69-.17-.94-.51-.24-.34-.37-.65-.37-.92,0-.22.07-.62.2-1.2.14-.58.3-1.09.49-1.53.19-.46.39-.92.59-1.37.2-.45.4-.89.59-1.33l-2.45,2.57c-.05.05-.22.22-.49.49-.27.27-.49.41-.65.41-.14,0-.2-.09-.2-.29,0-.05.02-.13.06-.22.04-.09.13-.21.26-.35.41-.41.83-.84,1.26-1.3.43-.46.88-.99,1.35-1.59.24-.3.61-.75,1.1-1.37.49-.61,1.03-1.27,1.61-1.98.58-.71,1.13-1.36,1.65-1.96.14-.19.29-.32.45-.39.16-.07.27-.1.33-.1.73,0,1.1.29,1.1.86,0,.16-.04.33-.12.49-2.45,3.37-3.91,5.94-4.4,7.71,3.15-3.15,5.69-5.52,7.6-7.11s3.28-2.39,4.1-2.39c.43,0,.77.07,1,.2.23.14.35.39.35.77,0,.14-.01.24-.04.33-.08.19-.64.95-1.67,2.28-.63.76-1.18,1.45-1.65,2.08-.48.63-.86,1.17-1.16,1.63-.49.76-.86,1.47-1.1,2.14-.24.67-.37,1.23-.37,1.69,0,.19.03.42.08.69.05.27.22.41.49.41.62,0,1.6-.54,2.94-1.63.62-.54,1.21-1.09,1.75-1.65.54-.56,1.06-1.11,1.55-1.65.11-.11.29-.32.53-.63.24-.31.39-.47.45-.47.11,0,.16.11.16.33,0,.11-.06.29-.18.55-.12.26-.25.46-.39.59-.3.35-.74.84-1.33,1.47-.58.63-1.24,1.26-1.96,1.92-.72.65-1.42,1.21-2.1,1.67-.68.46-1.28.69-1.79.69Z" fill="#fff"/></svg>