<svg xmlns="http://www.w3.org/2000/svg" viewBox="0 0 280 70.87"><g fill="#fff"><path d="M10.85 2.2c2.05 15.54 4.1 30.55 6.15 45.06 1.86-14.76 3.72-29.06 5.59-42.94 3.63.63 7.27 1.22 10.9 1.79v13.15l-2.01-.18v32.87c.77-.06 1.53-.13 2.3-.19v13.13c-3.45.52-6.89 1.07-10.33 1.65V52.66l2.29-.21V23.29c-2.2 14.14-4.4 28.78-6.59 43.97l-4.42.78c-2.25-14.87-4.5-30.29-6.74-46.34v32.45l2-.21V68.9c-3.34.62-6.67 1.27-10 1.94V55.01c.76-.08 1.52-.17 2.28-.25V16.14c-.76-.09-1.52-.17-2.28-.26V.05C3.6.8 7.22 1.52 10.84 2.2zM86.41 12.86c2.17 7.87 4.34 15.57 6.51 23.12V23.35c-.68-.02-1.35-.05-2.03-.08V13.18c3.28.23 6.56.43 9.84.62v9.82c-.77-.02-1.54-.05-2.32-.07v34.57c-.93-.07-3.92.54-4.29-.05-2.53-7.69-5.05-15.54-7.58-23.6v14.02l2.31-.09v10.34c-3.37.25-6.75.51-10.12.81V48.84c.77-.04 1.54-.07 2.31-.11V23.05l-2.6-.12V12.21c2.65.23 5.3.45 7.95.65zM177.08 13.92c2.17 7.24 4.34 14.59 6.51 22.06V23.47c-.68.02-1.35.05-2.03.07v-9.88c3.28-.19 6.56-.41 9.84-.65v10.16l-2.31.09v35.32c-.93-.19-3.93.04-4.29-.6-2.53-7.99-5.05-15.8-7.58-23.46v13.39c.77.02 1.54.04 2.32.07v10.01c-3.38-.19-6.76-.35-10.14-.49v-9.78l2.32.06V24.01l-2.61.06v-9.78c2.65-.11 5.31-.23 7.96-.37zM141.01 47.39v9.51c-3.19 0-6.38.01-9.56.05v-9.53c.68 0 1.35 0 2.03-.01-1.17-2.41-2.34-4.82-3.51-7.24h-3.16v7.3c.68 0 1.35-.01 2.03-.02V57c-3.38.05-6.76.13-10.14.23v-9.65c.77-.01 1.55-.02 2.32-.04V24.27c-.77-.01-1.55-.02-2.32-.04v-9.65c4.2.13 8.4.21 12.61.27.29 0 2.35.49 2.77.63 2.54.79 4.2 2.75 4.55 4.4 1.07 5-.64 11.09.07 16.2-.32 1.63-1.29 3.07-3.7 3.97 1.28 2.4 2.56 4.79 3.84 7.18.73.06 1.45.11 2.18.17zm-14.2-10.54h4.49c.16 0 1.35-.82 1.47-1.03.75-1.38.69-8.63.06-10.1-.75-1.73-3.69-1.33-6.02-1.39v12.52zM259.97 52.99v14.14c-3.15-.54-6.31-1.06-9.46-1.56V52.14c.67.06 1.34.12 2.01.17-1.16-3.55-2.32-7.03-3.47-10.45l-3.13-.12v10.01c.67.06 1.34.11 2.01.17v13.25c-3.35-.52-6.7-1.01-10.06-1.48V51.11l2.3.18V20.51l-2.3.18V8.11c4.17-.58 8.34-1.2 12.5-1.86.29-.05 2.33.3 2.74.42 2.51.7 4.15 3.32 4.5 5.7 1.06 7.25-.63 16.33.07 23.79-.32 2.39-1.28 4.49-3.66 5.71 1.27 3.49 2.53 7.05 3.8 10.68.72.15 1.44.3 2.15.45zM245.91 37.2l4.45.03c.15 0 1.34-1.15 1.45-1.45.73-1.96.69-12.32.06-14.35-.74-2.39-3.65-1.54-5.96-1.4v17.16zM234.7 8.53v17.11l-5.47.27v-4.6c-1.82.13-3.65.25-5.47.37V34.5c1.44 0 2.88-.02 4.32-.03v-2.18l5.33-.09c.14.11.29.22.43.33v8.63c-1.92-.05-3.84-.1-5.76-.14v-2.18l-4.32-.06v11.33c1.83.12 3.65.24 5.47.37v-4.61l5.47.27v17.11c-6.24-.84-12.48-1.6-18.73-2.27V49.62l2.02.12v-27.7c-.77.05-1.54.09-2.31.14V10.84c6.35-.68 12.69-1.45 19.02-2.31zM44.64 7.82c6.31.2 9.74 4.43 10.16 8.69 1.24 12.65-.92 26.39-.05 39.15-1.22 9.37-16.57 12.11-17.53 1.35-1.23-13.67.94-28.63.02-42.46.36-3.55 2.66-6.88 7.4-6.73zm3.44 12.92c-1.85-1.46-5.17-.61-5.09 1.48v27.11c.46 3.2 5.58 2.75 6.04-.39-.76-8.39 1.02-17.83.01-26.1-.08-.63-.35-1.61-.96-2.09zM65.11 10.36c6.33.07 9.77 3.87 10.19 7.78 1.24 11.59-.92 24.19-.05 35.88-1.22 8.59-16.61 10.74-17.58 1-1.24-12.39.95-25.92.02-38.44.36-3.21 2.67-6.26 7.43-6.21zm3.44 11.72c-1.85-1.31-5.19-.5-5.11 1.39V48.1c.46 2.92 5.59 2.55 6.06-.31-.77-7.65 1.03-16.27.01-23.82-.07-.57-.35-1.47-.97-1.9zM212.21 54.79c-1.22 8.46-16.55 6.91-17.62-1.6.82-11.41-1.11-23.47-.02-34.81.36-3.69 2.21-6.9 8.75-6.87 1.77.01 2.72.49 3.97 1.17v-1.59c1.64-.16 3.27-.33 4.91-.5v17.88c-1.83.06-3.66.11-5.49.16v-3.68c0-.07-.35-1.11-.43-1.27-1.1-2.44-5.56-1.93-5.94.94-.96 7.28.72 15.51.04 22.89.06 1.71 3.22 2.75 5.04 1.73.27-.15 1-1.08 1-1.25v-9.43l-3.18-.03V34.9c.14-.1.29-.2.43-.3 2.7-.01 5.39-.03 8.09-.04.14.1.29.2.43.3v19.92zM267.99 50.95c.04.36.36 1.62.5 1.99 1.01 2.6 4.33 2.89 5.23.46.44-1.19.48-7.94.25-9.43-.47-3.01-6.81-4.66-9-6.62-1.18-1.07-1.82-2.54-2.29-3.93.44-7.64-1.05-16.59-.1-24.11.64-5.07 5.31-8.12 10.28-7.15.66.38 1.32.77 1.98 1.17V1.09c1.62-.32 3.24-.65 4.85-.98V25.4c-1.81.11-3.61.22-5.42.32v-6.55c0-.95-1.14-2.24-2.18-2.38-2.78-.39-3.9 1.36-4.12 3.77-.21 2.36-.33 8.58.03 10.74.65 3.85 7.85 4.63 10.11 7.88.93 1.34 1.47 3.41 1.6 5.03.36 4.57.54 17.77-.43 21.65-1.41 5.72-7.94 5.9-12.15 1.2v2.14c-1.53-.29-3.05-.57-4.58-.84V45.41c1.81.1 3.63.19 5.44.29.14 1.69-.2 3.58 0 5.24zM158.98 14.11c1.45 11.1 2.9 22.25 4.35 33.49.77.01 1.55.03 2.32.04v9.72c-3.28-.12-6.57-.21-9.85-.29v-9.59c.87.01 1.74.02 2.61.04-.19-2.36-.39-4.72-.58-7.08-.14-.15-.29-.29-.43-.44-1.98 0-3.96-.02-5.94-.02l-.87 7.46c.87 0 1.74.02 2.61.02v9.56c-3.19-.06-6.38-.1-9.56-.11V47.4h2.32c1.45-11.01 2.9-22.04 4.35-33.1 2.9-.04 5.8-.1 8.69-.18zm-6.96 22.39h5.22c-.64-3.96-1.27-7.91-1.9-11.85-.53 0-1.05.02-1.58.02l-1.74 11.83z"/></g></svg>