<svg xmlns="http://www.w3.org/2000/svg" width="300" height="34" viewBox="0 0 300 34"><path d="M14.54.85c10.41,0,12.38,4.49,12.38,9.6,0,5.93-5.38,8.89-11.8,8.89H11.71v7h2.74v5.92H0V26.29H2.51V6.73H0V.85ZM11.71,14.49h2c2.6,0,4.4-1.34,4.4-3.72,0-2.65-1.57-4.09-4.18-4.09H11.71Z" fill="#fff"/><path d="M28.26,16.38C28.26,6.68,34.72,0,44,0,55,0,60.12,6.6,60.12,16.69S54.47,33,44.33,33C35,33,28.26,27.59,28.26,16.38Zm20.64.31c0-5.43-1.48-9.78-4.93-9.78-2.74,0-4.62,3.9-4.62,9.47,0,5.87,2.1,9.6,5,9.6S48.9,22.25,48.9,16.69Z" fill="#fff"/><path d="M76.09.85V6.77H73.71V26.25H79.5v-5.7H87V32.21H61.91v-6h2.47V6.77H61.91V.85Z" fill="#fff"/><path d="M104.17.85V6.77h-2.78V26.25h2.78v6H89.28v-6H92.1V6.77H89.28V.85Z" fill="#fff"/><path d="M135.4,26.61a18.42,18.42,0,0,1-13.6,6.32c-9.51,0-15.83-6.1-15.83-16.11C106,6.51,113.73.31,119.6.31a8.28,8.28,0,0,1,6.91,3.06l1-2.52h7V13.59h-8c-.14-2.91-1.57-5.65-4.76-5.65s-5.34,4-5.34,8.88c0,4.45,2.29,8.44,6.55,8.44,3.77,0,6.73-4,7.14-4.4Z" fill="#fff"/><path d="M164.24.85v9.92h-7.76v-4H149.3V13h8.53v6H149.3v7.32h7.18V22.07h7.76V32.21H137.19v-6H140V6.77h-2.83V.85Z" fill="#fff"/><path d="M206.68,26.61a18.4,18.4,0,0,1-13.59,6.32c-9.51,0-15.84-6.1-15.84-16.11C177.25,6.51,185,.31,190.89.31a8.28,8.28,0,0,1,6.91,3.06l1-2.52h7V13.59h-8c-.14-2.91-1.57-5.65-4.76-5.65s-5.34,4-5.34,8.88c0,4.45,2.29,8.44,6.55,8.44,3.77,0,6.73-4,7.14-4.4Z" fill="#fff"/><path d="M208,16.38C208,6.68,214.49,0,223.78,0c11,0,16.1,6.6,16.1,16.69S234.23,33,224.09,33C214.71,33,208,27.59,208,16.38Zm20.64.31c0-5.43-1.48-9.78-4.94-9.78-2.73,0-4.62,3.9-4.62,9.47,0,5.87,2.11,9.6,5,9.6S228.67,22.25,228.67,16.69Z" fill="#fff"/><path d="M256.21.85c10.41,0,12.39,4.49,12.39,9.6,0,5.93-5.39,8.89-11.8,8.89h-3.41v7h2.73v5.92H241.68V26.29h2.51V6.73h-2.51V.85Zm-2.82,13.64h2c2.6,0,4.39-1.34,4.39-3.72,0-2.65-1.57-4.09-4.17-4.09h-2.24Z" fill="#fff"/><path d="M270.39,20.91h8.34c0,3.77,3.77,4.39,5.66,4.48,1.57,0,3.81-.36,3.81-2.24,0-3.5-17.23-2-17.23-13.46C271,3.05,277.25,0,281.65,0c3.77,0,7.58,1.22,9.38,4.58l.45-3.77h7.71V12.11h-8.12c0-3.32-2.6-5.2-5.74-5.2-1.3,0-3.1.81-3.1,2.38,0,4.62,17.77,3.54,17.77,14.08,0,7-6.55,9.52-11.89,9.52a12.11,12.11,0,0,1-9.38-4.13l-.49,3.45h-7.85Z" fill="#fff"/></svg>