<svg xmlns="http://www.w3.org/2000/svg" viewBox="0 0 150 148"><path d="M5.89 11.96H.04L0 4.01l16.2-1.35-.55 9.26-6.35-.21.72 21.72-4.97.38.84-21.84zM19.65 35.94l.08-27.52 5.3.63v11.07l4.38.08.34-13.72 6.27-.63-.25 27.73-6.61.08.13-8.67h-4.46l-.29 11.57-4.88-.63zM41.32 6.11l14.65-.13.13 5.72-11.95.21.04 6.19 9.43-.55.04 4.55-7.91.67.04 5.64 10.69-1.01-.13 6.23-15.53.8.51-28.32zM71.62 33l5.3-13.72-9.68-14.1 5.81-1.52 6.19 9.89 4.17-10.9 6.1 2.78-12.96 29.29-4.92-1.73zM92.29 6.11l14.65-.13.13 5.72-11.95.21.04 6.19 9.43-.55.04 4.55-7.91.67.04 5.64 10.69-1.01-.13 6.23-15.53.8.51-28.32zM108.45 34.05l6.61-31.48 7.41-1.47 6.94 29.37-6.86 2.4-1.3-7.32h-7.49l-1.94 8.8-3.37-.29zm11.7-13.8l-2.82-11.36-.38-.04-2.27 11.57 5.47-.17zM137.74 23.44l-.59.21.04 8.63h-4.55l.21-27.94c1.94-.34 3.87-.51 5.81-.51 4.33 0 10.9.93 10.9 6.57 0 4.67-4.46 8.92-8.12 11.24l6.9 10.39-6.02 3.07-4.59-11.66zm7.49-10.77c0-2.95-4.63-2.99-6.73-2.99-.59 0-1.26.04-1.85.13l.08 8.42c2.36-.34 8.5-2.48 8.5-5.56zM8.59 97.19l-.49-9.75c2.74.79 6.28 1.77 9.14 1.77 2.07 0 4.27-.49 4.27-2.93 0-6.46-13.41-14.63-13.41-23.58s10.3-10.97 17.37-10.97c1.65 0 3.29.12 4.94.43l-1.77 11.88c-2.07-.67-4.75-.98-6.89-.98-1.65 0-6.28.49-6.28 2.99 0 4.14 13.96 14.26 13.96 22.49 0 6.28-4.2 10.85-10.85 10.85-3.11 0-7.07-.98-9.99-2.19zM48.32 85.61l-9.63-.06-1.58 8.04-5.36-1.1 8.71-36.5 12.8-2.5 6.52 38.88-9.38 4.39-2.07-11.15zM45.7 64.4l-2.07.12-3.53 14.26 7.25.43L45.7 64.4zM69.47 81.47l.12 14.93-5.24.49-.37-36.32 18.28 19.87-.55-16.64 6.89-.43-1.1 35.59-18.04-17.49zM97.32 60.2H77.09l.73-7.25 35.22-1.34-.79 10.24-8.23-.43.79 35.47-8.29.37.79-37.05zM129.19 85.61l-9.63-.06-1.58 8.04-5.36-1.1 8.71-36.5 12.8-2.5 6.52 38.88-9.38 4.39-2.07-11.15zm-2.62-21.21l-2.07.12-3.53 14.26 7.25.43-1.65-14.81zM4.98 141.43a10.49 10.49 0 0 1-2.4-6.69c0-2.82 1.09-5.43 2.9-7.53 5.05-5.85 11.45-9.6 18.98-11.15l.51 4.76c-5.3.93-17.72 5.18-17.72 11.62 0 2.57 1.98 4.59 4.08 5.77 2.4 1.39 5.64 2.06 8.37 2.06.38 0 .8 0 1.18-.04l-.59-6.78-5.3 1.22v-5.77l13.3-1.81-.13 5.34-3.58.88.63 12.25c-1.47.25-3.03.34-4.54.34-4.38 0-12.75-.84-15.7-4.46zM29.73 137.81c0-7.24 4.76-15.53 14.1-15.53 5.64 0 7.79 3.11 7.79 7.74 0 .76-.08 1.52-.17 2.27-.21 1.68-.63 3.37-1.26 4.92-1.77 4.33-5.64 8.92-11.15 9.55-.38.04-.8.08-1.18.08-5.89 0-8.12-4.55-8.12-9.05zm17.59-5.09c0-2.61-1.43-4.21-4.5-4.21-.97 0-1.89.17-2.78.42-4.12 1.3-6.78 4.59-6.78 8.46 0 2.61 1.85 3.75 4.67 3.75 5.56 0 9.38-3.58 9.38-8.42zm8.41-12.84H41.67l.21-4.97 26.39-.97-.55 5.81-7.36-.34.55 25.97-5.72.25.55-25.76zM79.59 115.84l4.67-1.43-1.22 25.04 9.97-.93-.51 7.32-13.3.97.38-30.97zM95.29 134.99c0-.72.08-1.43.21-2.15 1.26-7.24 6.35-15.53 14.56-15.53 5.34 0 8.04 4.21 8.04 9.17 0 .93-.08 1.81-.25 2.74-.97 5.72-3.96 11.62-9.55 13.97-1.47.63-2.95.93-4.5 1.05h-.46c-4.92 0-8.04-4.71-8.04-9.26zm18.85-6.65c0-2.99-2.23-4.84-5.13-4.84-4.92 0-10.18 5.64-10.18 10.48 0 2.86 2.06 4.33 4.76 4.33 4.84 0 10.56-4.97 10.56-9.97zM120.33 144.84l.76-5.43c1.85.84 5.56 2.4 7.7 2.4.93 0 1.52-.34 1.52-1.09 0-1.47-2.78-3.41-4.04-4.42-.8-.63-1.6-1.3-2.31-1.98-1.77-1.73-3.37-4.12-3.37-6.35 0-3.45 4.12-4.84 8.12-4.84 1.98 0 4 .42 5.72 1.18l-1.26 5.85c-1.39-.97-3.28-1.77-5.22-1.77-1.18 0-2.57.38-2.57 1.43s1.26 2.23 2.02 2.95c2.15 2.02 4.71 4.25 6.48 6.48.84 1.05 1.35 2.31 1.35 3.54 0 2.61-2.27 4.12-5.64 4.12-2.86 0-6.82-.97-9.26-2.06zm18.77-25.38l-14.06.88.21-5.85 24.75-.97-.21 5.05-6.48.59.13 26.64-4.88.25.55-26.6z" fill="#fff"/></svg>