<svg xmlns="http://www.w3.org/2000/svg" viewBox="0 0 270 91"><path d="M12.37 33.94H.49v8.54h11.88c7.62 0 13.15-5.29 13.15-12.58 0-7.98-7.69-11.09-10.58-12.27-.31-.12-.57-.23-.78-.33-.41-.19-.84-.35-1.3-.53-3.36-1.3-4.28-2.16-4.31-4 0-.75.06-2.1.62-2.68.4-.4 1.45-.88 4.22-.88h7.3V.68h-7.3c-2.97 0-7.27.35-10.29 3.42C.99 6.22-.05 9.18 0 12.89c.1 8.13 7.13 10.84 9.77 11.86.33.13.65.25.82.33.3.14.69.3 1.14.48 3.24 1.31 5.25 2.5 5.25 4.35 0 3.52-2.89 4.04-4.61 4.04zM259.42 17.02c-.31-.12-.57-.23-.78-.33-.41-.19-.84-.35-1.3-.53-3.36-1.3-4.28-2.16-4.31-4 0-.75.06-2.1.62-2.68.4-.4 1.45-.88 4.22-.88h7.3V.07h-7.3c-2.97 0-7.27.35-10.29 3.42-2.1 2.12-3.13 5.08-3.09 8.79.1 8.13 7.13 10.84 9.77 11.86.33.13.65.25.82.33.3.14.69.3 1.14.48 3.24 1.31 5.25 2.5 5.25 4.35 0 3.52-2.89 4.04-4.61 4.04h-11.88v8.54h11.88c7.62 0 13.15-5.29 13.15-12.58 0-7.98-7.69-11.09-10.58-12.27zM225.91 65.74c-.31-.12-.57-.23-.78-.33-.41-.19-.84-.35-1.3-.53-3.36-1.3-4.28-2.16-4.31-4 0-.75.06-2.1.62-2.68.4-.4 1.45-.88 4.22-.88h7.3v-8.54h-7.3c-2.97 0-7.27.35-10.29 3.42-2.1 2.12-3.13 5.08-3.09 8.78.1 8.13 7.13 10.84 9.77 11.86.33.13.65.25.82.33.3.14.69.3 1.13.48 3.24 1.31 5.25 2.5 5.25 4.35 0 3.52-2.89 4.04-4.61 4.04h-11.88v8.54h11.88c7.62 0 13.15-5.29 13.15-12.58 0-7.98-7.69-11.09-10.58-12.27zM36.12 25.75h14.72v16.38h8.54V.82h-8.54v16.39H36.12V.82h-8.53v41.31h8.53V25.75zM15.6 65.32c-.31-.12-.57-.23-.78-.33-.41-.19-.84-.35-1.3-.53-3.36-1.3-4.28-2.16-4.31-4 0-.75.06-2.1.62-2.68.4-.4 1.45-.88 4.22-.88h7.3v-8.54h-7.3c-2.97 0-7.27.35-10.29 3.42C1.66 53.9.63 56.86.67 60.57c.1 8.13 7.13 10.84 9.77 11.86.33.13.65.25.82.33.3.14.69.3 1.13.48 3.24 1.31 5.25 2.5 5.25 4.35 0 3.52-2.89 4.04-4.61 4.04H1.16v8.54h11.88c7.62 0 13.15-5.29 13.15-12.58 0-7.98-7.69-11.09-10.58-12.27zM51.06 64.89H36.35V48.51h-8.54v41.31h8.54V73.43h14.71v16.39h8.54V48.51h-8.54v16.38zM71 42.13h17.1v-8.09H71v-8.29h11.99v-8.54H71V8.92h17.05V.83H71V.82h-8.53v41.31H71zM129.72 9.36h1.59c.09 0 8.52.12 8.52 10.91v21.86h8.54V20.27c0-10.78 8.43-10.91 8.52-10.91h1.79v32.77h8.54V.82h-10.33c-2.68 0-6.78.99-10.27 3.75-.82.65-1.69 1.47-2.52 2.47-.83-1-1.69-1.82-2.52-2.47-3.49-2.77-7.6-3.75-10.27-3.75H121.18v41.31h8.54V9.36zM222.1 26.96v15.17h8.54V.82h-8.54v6.11a24.967 24.967 0 0 0-3.79-2.63C212.41.95 206.49.62 206.25.6l-4.48-.23v41.75h8.54V10.08c1.25.4 2.65.98 4.03 1.79 5.16 3.03 7.77 8.11 7.77 15.09zM99.4 30.22h2.19c4.47 0 8.24 3.67 8.24 8.02v3.9h8.54v-3.9c0-4.65-1.95-8.85-5.09-11.86a14.75 14.75 0 0 0 4.86-10.96c0-8.18-6.5-14.59-14.81-14.59H90.86v41.31h8.54V30.23zm10.21-14.81c0 3.46-2.81 6.27-6.27 6.27H99.4V9.36h3.94c3.51 0 6.27 2.66 6.27 6.05zM190.56 35.03v7.1h8.54V.38l-4.48.23c-.25.01-6.17.34-12.06 3.7-5.63 3.19-12.33 9.72-12.33 22.65v15.17h8.54v-7.1h11.8zm-4.03-23.16c1.38-.81 2.77-1.38 4.03-1.79V26.5h-11.79c.11-6.74 2.72-11.66 7.76-14.63zM237.28 9.43l-.07.06s1.28 1.71-2.38 4.32c0 0 7.89.23 7.89-9.03 0-2.6-2.11-4.71-4.71-4.71s-4.71 2.11-4.71 4.71c0 2.35 1.73 4.3 3.98 4.65zM192.5 52.49c-5.63 3.19-12.33 9.72-12.33 22.65v15.17h8.54v-7.1h11.8v7.1h8.54V48.56l-4.48.23c-.25.01-6.17.34-12.06 3.7zm-3.79 22.19c.11-6.74 2.72-11.66 7.76-14.63 1.38-.81 2.77-1.38 4.03-1.79v16.42h-11.79zM246.62 72.82h11.99v-8.54h-11.99v-8.29h17.04V47.9h-17.04v-.01h-8.54V89.2h25.63v-8.09h-17.09v-8.29zM82.96 47.32c-12.02 0-21.8 9.78-21.8 21.8s9.78 21.81 21.8 21.81 21.81-9.78 21.81-21.81-9.78-21.8-21.81-21.8zm0 35.07c-7.32 0-13.27-5.95-13.27-13.27s5.95-13.27 13.27-13.27 13.27 5.95 13.27 13.27-5.95 13.27-13.27 13.27zM154.21 69.16c0 11.51 9.78 20.87 21.81 20.87.77 0 1.52-.05 2.26-.12v-8.6c-.74.12-1.49.19-2.26.19-7.32 0-13.27-5.53-13.27-12.33s5.95-12.33 13.27-12.33c.65 0 1.3.04 1.93.13.11.02.22.04.34.05v-8.6c-.75-.07-1.51-.12-2.26-.12-12.02 0-21.81 9.36-21.81 20.87zM144.31 76.64c0 2.89-2.24 5.24-5 5.24h-.14c-2.76 0-5-2.35-5-5.24V48.12h-8.54v28.52c0 2.89-2.35 5.24-5.24 5.24h-.15c-2.89 0-5.24-2.35-5.24-5.24V48.12h-8.54v28.52c0 7.6 6.18 13.78 13.78 13.78h.15c3.67 0 7-1.44 9.47-3.79 2.43 2.34 5.71 3.79 9.31 3.79h.14c7.47 0 13.54-6.18 13.54-13.78V48.12h-8.54v28.52z" fill="#fff"/></svg>