<svg xmlns="http://www.w3.org/2000/svg" width="250" height="89" viewBox="0 0 250 89"><path d="M20.08 35.39a5.1 5.1 0 0 1 4.36 1.52 8.56 8.56 0 0 1 1.72 4.87 33.24 33.24 0 0 1-.35 7.68c-.43 3-1 6.3-1.86 9.94Q22.53 65.83 21 70.53a38.27 38.27 0 0 1-3.19 7.63 13 13 0 0 1-3.76 4.36 7.89 7.89 0 0 1-4.65 1.34l-8.19-.19L11 35.83zm-9.91 41.55a3.69 3.69 0 0 0 2.44-.83 8.12 8.12 0 0 0 2-2.83A32.37 32.37 0 0 0 16.4 68q.88-3.3 2-8.26.9-4.17 1.44-7.35a31.34 31.34 0 0 0 .52-5.3 5.9 5.9 0 0 0-.74-3.17 2.44 2.44 0 0 0-2.29-1L15 43 7.83 76.91zM44.12 34.23a4.69 4.69 0 0 1 5.07 3.08q1.31 3.28-.36 10.08a30.05 30.05 0 0 1-3.26 8.49 9.21 9.21 0 0 1-4.68 4.2v.14a3.42 3.42 0 0 1 2.63 2.43c.38 1.26.3 3.3-.21 6.09-.17.93-.38 1.94-.61 3s-.51 2.29-.81 3.62c-.58 2.61-1 4.59-1.2 6a3.86 3.86 0 0 0 .36 2.8l-.1.41-6.19-.14a7 7 0 0 1 0-2.33c.13-.88.3-1.79.5-2.74L37.28 70a11.23 11.23 0 0 0 .24-4.57 2 2 0 0 0-2.16-1.66H32.3l-4.74 20.49-5.5-.12 11.15-49.38zm-7.81 22.55A4.81 4.81 0 0 0 40 55a13.79 13.79 0 0 0 2.54-5.92c1.14-4.76.33-7.11-2.42-7l-2.78.1-3.43 14.64zM70.36 33l-5.54 52.09-6.36-.09 1.37-10.59-8-.06-4 10.41-6.07-.13 20.71-51.29zM61 66l3-23.5h-.09L55 66zM92.12 45.11a14 14 0 0 0 .16-3 5.26 5.26 0 0 0-.57-2.21 1.52 1.52 0 0 0-1.51-.83c-1.63.06-3.22 1.61-4.76 4.61a83.9 83.9 0 0 0-5.07 14.55c-.88 3.17-1.61 6-2.2 8.57A54.94 54.94 0 0 0 77 73.29a10.42 10.42 0 0 0 .21 4.06 1.88 1.88 0 0 0 1.86 1.44 2.93 2.93 0 0 0 1.42-.49 7.6 7.6 0 0 0 1.73-1.51A13.8 13.8 0 0 0 84 74.22a18 18 0 0 0 1.46-3.7L87 65.11h-4.34l2.22-7.9 10.85-.16-8.31 28.55-4.78-.11L84 80.74h-.09a14.14 14.14 0 0 1-4 4.22 7.56 7.56 0 0 1-4.23 1.16 5.32 5.32 0 0 1-4.25-1.73A8.27 8.27 0 0 1 70 79.3a38.47 38.47 0 0 1 .92-8.49c.69-3.41 1.64-7.38 2.88-11.94s2.44-8.38 3.71-11.81a46.51 46.51 0 0 1 4.15-8.72 19.31 19.31 0 0 1 4.89-5.47 10.92 10.92 0 0 1 5.93-2.07c3.76-.18 6 1.23 6.83 4.25s.34 7.37-1.31 13l-6.53.18a27.58 27.58 0 0 0 .65-3.12zM102.56 47.61a51.21 51.21 0 0 1 4.34-9.31 22.44 22.44 0 0 1 5.48-6.3 12.59 12.59 0 0 1 7.19-2.56c2.76-.13 4.74.51 5.93 1.94a9.61 9.61 0 0 1 1.83 6.11A38 38 0 0 1 126 47q-1.36 5.49-3.4 11.88c-1.36 4.29-2.72 8.17-4.07 11.67a48.08 48.08 0 0 1-4.45 8.89 18.68 18.68 0 0 1-5.3 5.56 11.68 11.68 0 0 1-6.78 1.74c-2.54-.06-4.35-.74-5.47-2a8.77 8.77 0 0 1-1.78-5.55 34.65 34.65 0 0 1 1-8.68q1.14-5.1 3-11.32t3.81-11.58zm.5 20.8a39.61 39.61 0 0 0-1.19 6.16 6.33 6.33 0 0 0 .38 3.45 2.27 2.27 0 0 0 2.12 1.11 4.2 4.2 0 0 0 2.8-1 11.56 11.56 0 0 0 2.52-3.45 48.78 48.78 0 0 0 2.61-6.23q1.38-3.87 3.11-9.46t2.81-9.59a45.37 45.37 0 0 0 1.32-6.52 6.56 6.56 0 0 0-.36-3.69 2.24 2.24 0 0 0-2.25-1.07 4.57 4.57 0 0 0-2.93 1.21 13 13 0 0 0-2.61 3.77 53.24 53.24 0 0 0-2.65 6.49q-1.35 3.91-3 9.47t-2.68 9.35zM141.12 69.15h.11l13.65-40.27 7.41-.36-20.17 58.3-8.47-.19 4-39.45h-.11l-12.89 39.25-6.55-.15 18.18-56.51 8.92-.43zM191.54 27.1l-3.9 10.47-15 .54-5.11 14.29 13.81-.27-3.71 10-13.63.08-8.94 24.9-7.69-.17L168 28.24zM195.44 26.92l8.91-.43-19.84 51.57 15.09.16-3.91 9.78-23.05-.52zM222.09 50.45h.13l17.11-25.65 10.67-.52-29 40-10 24.08-8.76-.2 9.67-23.81 3.81-38.41 10.52-.51zM7.61 4.89a1.7 1.7 0 0 0-1.7-1.23 1.43 1.43 0 0 0-1.13.51 3.73 3.73 0 0 0-.69 1.62 17.67 17.67 0 0 0-.35 2.94c-.07 1.21-.1 2.69-.1 4.44s0 3.38.14 4.53a13.46 13.46 0 0 0 .42 2.68 2.49 2.49 0 0 0 .74 1.28A1.64 1.64 0 0 0 6 22a1.82 1.82 0 0 0 .89-.23 1.86 1.86 0 0 0 .73-.9A7.52 7.52 0 0 0 8.06 19a25.09 25.09 0 0 0 .17-3.23h3.64a30.55 30.55 0 0 1-.23 3.8 10.51 10.51 0 0 1-.85 3.15 5 5 0 0 1-1.74 2.11 5.15 5.15 0 0 1-2.91.76 5.34 5.34 0 0 1-3.26-.9A5.59 5.59 0 0 1 1 22.06a14.91 14.91 0 0 1-.83-4C.06 16.44 0 14.72 0 12.83s.06-3.59.19-5.17A14.83 14.83 0 0 1 1 3.6 5.94 5.94 0 0 1 2.88 1a5.16 5.16 0 0 1 3.26-1A4.94 4.94 0 0 1 9.2.86a5.3 5.3 0 0 1 1.68 2.2 9.9 9.9 0 0 1 .7 2.87c.09 1 .14 2 .14 2.89H8.08a12 12 0 0 0-.47-3.93zM13.75 7.66a14.46 14.46 0 0 1 .83-4.06A6 6 0 0 1 16.43 1a5.18 5.18 0 0 1 3.26-1A5.18 5.18 0 0 1 23 1a5.93 5.93 0 0 1 1.8 2.6 14.81 14.81 0 0 1 .84 4.06c.12 1.58.19 3.3.19 5.17s-.07 3.61-.19 5.18a14.89 14.89 0 0 1-.84 4 5.57 5.57 0 0 1-1.8 2.64 5.36 5.36 0 0 1-3.26.9 5.36 5.36 0 0 1-3.26-.9 5.64 5.64 0 0 1-1.85-2.59 14.54 14.54 0 0 1-.83-4c-.13-1.57-.19-3.29-.19-5.18s.01-3.64.14-5.22zm3.53 9.4a16.44 16.44 0 0 0 .35 2.83 3.46 3.46 0 0 0 .76 1.6 1.94 1.94 0 0 0 2.6 0 3.46 3.46 0 0 0 .76-1.6 15.5 15.5 0 0 0 .35-2.83q.09-1.74.09-4.23c0-1.66 0-3.07-.09-4.22a16 16 0 0 0-.35-2.84 3.41 3.41 0 0 0-.75-1.6 1.91 1.91 0 0 0-2.6 0 3.41 3.41 0 0 0-.76 1.6 17 17 0 0 0-.35 2.84c-.06 1.15-.09 2.56-.09 4.22s.02 3.07.08 4.23zM34.11.48a5.08 5.08 0 0 1 3 .85A5.46 5.46 0 0 1 39 3.75a13.66 13.66 0 0 1 .87 3.79 49 49 0 0 1 .23 4.94 48.5 48.5 0 0 1-.29 5.65 13.91 13.91 0 0 1-1 4 5.22 5.22 0 0 1-1.89 2.32 5.55 5.55 0 0 1-3 .76h-5.77V.48zm-.71 21a2.43 2.43 0 0 0 1.54-.45 2.93 2.93 0 0 0 .92-1.48 11.55 11.55 0 0 0 .46-2.73c.07-1.13.11-2.54.11-4.22 0-1.41 0-2.64-.1-3.7a12.36 12.36 0 0 0-.42-2.65A3.33 3.33 0 0 0 35 4.68a2.46 2.46 0 0 0-1.65-.53h-1.56V21.5zM52.54 4.56H46.1v5.81h6.06v4.08H46.1v6.64h6.69v4.08H42.47V.48h10.07zM63.19 17.39h.05V.48h3.34v24.69h-4.14L58 7.88h-.05v17.29h-3.34V.48h4.19zM77.11.48l4.77 24.69h-3.79L77.26 20h-4.8l-.83 5.22h-3.79L72.61.48zm-.48 15.39l-1.75-11.1-1.74 11.1zM88.62.48l2.57 17.43L93.84.48h5.38v24.69h-3.33V5.46l-3.26 19.71H89.8L86.6 5.46v19.71h-3.39V.48zM111.9 4.56h-6.44v5.81h6.06v4.08h-6.06v6.64h6.69v4.08h-10.33V.48h10.08z" fill="#fff"/></svg>