<svg xmlns="http://www.w3.org/2000/svg" viewBox="0 0 160 128"><path fill="#fff" d="M24.16 5.72L24.67 1H11.15L7.51 28.44h14.26l.57-5.23h-7.42l.78-6.76h7.38l.57-5.05h-7.36l.65-5.68h7.22zM27.74 1l-2.73 27.44h13.07l.34-5.4h-6.37L33.99 1h-6.25zM43.13 1l-1.87 27.44h6.31l1.02-14.26 2.84 11.59h2.56l3.98-11.7-.28 14.37h6.36L64.62 1H57.4l-3.86 9.54L50.59 1h-7.44zM81.03 1H70.4a2.69 2.69 0 0 0-2.69 2.69v22.05a2.69 2.69 0 0 0 2.69 2.69h10.63a2.69 2.69 0 0 0 2.69-2.69V3.69A2.69 2.69 0 0 0 81.03 1zm-3.57 21.55h-3.5V5.31h3.5v17.24zM86.69 1l.38 27.44h6.7l-.63-24.16h4.77l.21 7.53h-3.81l.17 3.43 5.69 13.2h7.03l-5.78-12.4h.35c1.58 0 2.84-1.33 2.75-2.91l-.54-9.73a2.502 2.502 0 0 0-2.53-2.37c-4.75.04-14.9.12-14.76-.02zM122.02 23.11h-7.16l-.45-6.73h6.96l-.4-4.93h-6.89l-.39-5.83h6.68L119.92 1H107.2l1.61 27.44h13.7l-.5-5.33zM123.81 1v8.56h4.23L130.09 1h-6.28zM148.68 9.05h-6.12l-.6-3.77h-2.54l.26 3.3 9.36 7.89c.69.58 1.14 1.39 1.27 2.28l1 6.75c.23 1.55-.97 2.95-2.55 2.95h-9.83a3.54 3.54 0 0 1-3.52-3.2l-.64-6.76h6.46l.39 4.7h2.76l-.56-4.35-9.44-7.84a2.42 2.42 0 0 1-.84-1.53l-.78-6.27c-.14-1.16.76-2.19 1.93-2.19h10.37c1.46 0 2.69 1.08 2.88 2.52l.74 5.53zM48.54 36.77h-9.16a3.54 3.54 0 0 0-3.53 3.25l-2.1 25.65a3.61 3.61 0 0 0 3.6 3.9H49.2c2.09 0 3.81-1.64 3.91-3.72l.71-14.2H43.63l-.39 5.43h2.98l-.32 5.67h-4.57l.99-19.65c.02-.48.42-.86.91-.86h3.04c.47 0 .85.39.84.86l-.1 3.55h6.81l.19-4.61-4.76-3.13c-.36-.23-.59-.62-.62-1.05l-.09-1.09zM123.67 42.64l-.47-5.73h-11.99l-.47 1.32c-.14.4-.41.75-.77.99l-4.5 3v.42h5.62l1.84 26.81h6.94l-1.82-26.81h5.61z"/><path d="M110.39 30.86H89.12l-7.16-17.67c-.77-1.9-3.46-1.87-4.2.04l-6.75 17.56h-21.7c-2.2 0-3.1 2.82-1.31 4.1l16.59 11.79-7.12 20.74c-.69 2.01 1.53 3.77 3.33 2.65l19.72-12.29 18.8 12.03c1.81 1.16 4.05-.62 3.35-2.65l-7.19-20.55 16.21-11.66c1.78-1.28.87-4.09-1.32-4.09zM87.75 44.54l4.11 12.6-12-7.31-11.19 7.31 4.02-12.51-10.96-7.86h13.99l4.15-11.78 4.88 11.92h13.33l-10.32 7.62zM24.14 76.75H.78L0 85.18h6.31L1.75 127h10.32l4.32-41.82h6.92l.83-8.43zM37.8 127h9.59l-7.17-50.25h-8.87L17.73 127h10.21l1.76-8.53h7.2l.89 8.53zm-6.32-17.13l3-14.51L36 109.87h-4.52zM54.36 76.75h9.66l-.83 40.53H73.3V127H52.55l1.81-50.25zM101.35 117.35H88.97l-.26-12.53h10.02l-.42-8.74h-9.78l-.23-11.04h11.4l-.34-8.29H78.24V127h23.47l-.36-9.65zM104.39 76.75h8.26l9.68 19.95-1.48-19.95h9.47l4.77 50.25h-8.97l-10.37-22.4 1.48 22.4h-10.37l-2.47-50.25zM160 85.12l-1.24-8.37h-23.67l.78 8.37h7.11l4.88 41.88h10.28l-5.27-41.88H160z" fill="#fff"/></svg>