<svg xmlns="http://www.w3.org/2000/svg" width="300" height="56" viewBox="0 0 300 56"><g fill="#fff"><path d="M4.31 15.51L.58.25h2.98l1.45 6.93c.38 1.86.74 3.8.99 5.31h.05c.25-1.59.66-3.42 1.11-5.34L8.8.25h2.94l1.51 7.02c.37 1.8.7 3.51.92 5.16h.05c.27-1.69.64-3.43 1.03-5.29L16.84.25h2.84l-4.11 15.26h-2.98l-1.58-7.19c-.38-1.72-.66-3.18-.86-4.83h-.05c-.26 1.63-.55 3.1-1.01 4.83L7.32 15.5H4.3zM23.33 11.2l-1.3 4.31h-2.88L24.04.25h3.55l4.96 15.26h-2.99l-1.38-4.31h-4.85zm4.39-2.11l-1.2-3.76c-.29-.95-.55-1.98-.78-2.87h-.05c-.22.9-.46 1.95-.72 2.86l-1.18 3.77h3.93zM35.77 2.59h-4.36V.25h11.54v2.34h-4.4v12.92h-2.79V2.59zM53.26 8.74h-5.75v4.48h6.43v2.29h-9.22V.25h8.88v2.29h-6.09v3.92h5.75v2.27zM56.38.46c1.06-.19 2.61-.33 4.23-.33 2.19 0 3.68.37 4.71 1.23.84.7 1.32 1.76 1.32 3.06 0 1.97-1.34 3.31-2.78 3.81v.06c1.11.42 1.75 1.47 2.13 2.95.49 1.91.9 3.66 1.21 4.25h-2.86c-.24-.44-.6-1.7-1.03-3.6-.44-1.99-1.16-2.63-2.75-2.67h-1.4v6.27h-2.77V.46zm2.77 6.74h1.65c1.89 0 3.06-1 3.06-2.51 0-1.66-1.17-2.44-2.97-2.45-.88 0-1.45.07-1.73.14v4.81zM74.07 8.52v1.92H68.3V8.52h5.77zM78.08 2.59h-4.36V.25h11.54v2.34h-4.4v12.92h-2.79V2.59zM94.78 11.2l-1.3 4.31H90.6L95.49.25h3.55L104 15.51h-2.99l-1.38-4.31h-4.85zm4.39-2.11l-1.2-3.76c-.29-.95-.55-1.98-.78-2.87h-.05c-.22.9-.46 1.95-.72 2.86l-1.18 3.77h3.93zM106.12 15.51V.25h3.19l3.94 6.55c1 1.69 1.89 3.46 2.6 5.11h.05c-.2-2.04-.25-4.01-.25-6.34V.25h2.58v15.26h-2.89l-3.98-6.71c-.97-1.67-1.99-3.53-2.74-5.26h-.07c.11 2 .15 4.01.15 6.52v5.46h-2.58zM121.42.46c1.24-.2 2.8-.33 4.45-.33 2.86 0 4.81.6 6.22 1.76 1.49 1.21 2.39 3.03 2.39 5.62 0 2.73-.93 4.76-2.38 6.07-1.53 1.38-3.95 2.08-6.91 2.08-1.62 0-2.85-.08-3.77-.2v-15zm2.79 12.92c.39.07.98.07 1.55.07 3.62.02 5.77-1.99 5.77-5.85.01-3.37-1.92-5.31-5.43-5.31-.87 0-1.5.08-1.9.16v10.93zM143.59 2.59h-4.36V.25h11.54v2.34h-4.4v12.92h-2.79V2.59zM155.34.25v6.1h6.45V.25h2.79v15.26h-2.79V8.78h-6.45v6.73h-2.79V.25h2.79zM176.3 8.74h-5.75v4.48h6.43v2.29h-9.22V.25h8.88v2.29h-6.09v3.92h5.75v2.27zM184.11.46c1.06-.19 2.61-.33 4.23-.33 2.19 0 3.68.37 4.71 1.23.84.7 1.32 1.76 1.32 3.06 0 1.97-1.34 3.31-2.78 3.81v.06c1.11.42 1.75 1.47 2.13 2.95.49 1.91.9 3.66 1.21 4.25h-2.86c-.24-.44-.6-1.7-1.03-3.6-.44-1.99-1.16-2.63-2.75-2.67h-1.4v6.27h-2.77V.46zm2.77 6.74h1.65c1.89 0 3.06-1 3.06-2.51 0-1.66-1.17-2.44-2.97-2.45-.88 0-1.45.07-1.73.14v4.81zM199.78.25v15.26h-2.79V.25h2.79zM202.91 12.47c.9.52 2.27.97 3.69.97 1.78 0 2.77-.84 2.77-2.08 0-1.15-.77-1.83-2.7-2.53-2.52-.89-4.13-2.25-4.13-4.43 0-2.51 2.09-4.39 5.4-4.39 1.65 0 2.86.35 3.66.75l-.67 2.25c-.55-.29-1.62-.72-3.05-.72-1.77 0-2.52.94-2.52 1.84 0 1.17.88 1.72 2.92 2.5 2.65 1.01 3.93 2.34 3.93 4.54 0 2.45-1.85 4.58-5.79 4.58-1.62 0-3.29-.46-4.13-.97l.62-2.31zM223.25 8.74h-5.75v4.48h6.43v2.29h-9.22V.25h8.88v2.29h-6.09v3.92h5.75v2.27zM244.61 7.73c0 5.11-3.1 8.03-7.3 8.03s-7.04-3.29-7.04-7.76 2.96-8 7.27-8 7.08 3.36 7.08 7.73zm-11.4.21c0 3.11 1.57 5.59 4.24 5.59s4.22-2.51 4.22-5.7c0-2.88-1.43-5.6-4.21-5.6s-4.24 2.58-4.24 5.71zM247 .25h8.82v2.29h-6.04v4.21h5.61v2.27h-5.61v6.48h-2.79V.25zM265.23 2.59h-4.36V.25h11.54v2.34h-4.4v12.92h-2.79V2.59zM276.97.25v6.1h6.45V.25h2.79v15.26h-2.79V8.78h-6.45v6.73h-2.79V.25h2.79zM297.94 8.74h-5.75v4.48h6.43v2.29h-9.22V.25h8.88v2.29h-6.09v3.92h5.75v2.27z"/></g><g fill="#fff"><path d="M85.58 31.18h-6.34V54.2c0 1.37-.16 1.54-1.51 1.54h-5.41c-1.14 0-1.32-.2-1.32-1.34V31.21h-6.38v23.07c0 1.37-.1 1.47-1.45 1.47h-5.41c-1.13 0-1.29-.16-1.29-1.25V25.16c0-1.11.15-1.26 1.28-1.26h31.37c.55 0 1.11.02 1.64.13 1.88.38 2.9 1.61 2.99 3.62.05 1.19.03 2.38.03 3.56v23.13c0 1.28-.13 1.41-1.42 1.41h-5.32c-1.3 0-1.45-.16-1.45-1.5V31.18zM119.31 39.07c.62.18 1.14.27 1.61.49 1.46.67 1.98 1.97 2.01 3.43.06 2.95.07 5.91 0 8.86-.05 2.33-1.29 3.58-3.6 3.82-.42.04-.85.07-1.28.07H98.06c-1.39 0-1.55-.15-1.55-1.5V25.36c0-1.33.15-1.48 1.47-1.48h18.34c.43 0 .86.03 1.28.07 2.15.21 3.43 1.47 3.48 3.63.07 2.74.05 5.48 0 8.22-.02 1.3-.53 2.43-1.78 3.26zm-14.48 3.03v6.32h9.82V42.1h-9.82zm-.05-5.57h9.02V31.2h-9.02v5.33zM218.13 39.76V28.79c0-.49 0-.98.04-1.46.17-1.92 1.34-3.13 3.26-3.36.54-.07 1.1-.09 1.65-.09h15.5c3.81 0 5.05 1.25 5.05 5.04V51.41c-.09 2.88-1.33 4.25-4.21 4.29-5.72.08-11.44.08-17.15 0-2.9-.04-4.11-1.41-4.12-4.33-.02-3.87 0-7.74 0-11.61zm17.19 8.67V31.2h-8.99v17.24h8.99zM160.04 31.2v23c0 1.48-.06 1.55-1.56 1.55-1.8 0-3.61-.02-5.41 0-.86.01-1.19-.32-1.18-1.19.02-9.84.02-19.69 0-29.53 0-.82.31-1.15 1.13-1.15 6.97.01 13.94-.02 20.91.03 3.03.02 4.28 1.31 4.33 4.33.06 3.02.02 6.03 0 9.05 0 .51-.05 1.04-.17 1.54-.39 1.62-1.47 2.53-3.26 2.72-.73.08-1.46.09-2.34.13.58 1.43 1.12 2.79 1.68 4.15 1.2 2.93 2.42 5.85 3.62 8.78.39.95.27 1.13-.76 1.13-2.08.01-4.16 0-6.24 0-.84 0-1.36-.33-1.68-1.12-2.28-5.61-4.59-11.2-6.89-16.81-.44-1.08-.35-1.21.81-1.21h7v-5.41h-10zM8.19 31.18v22.93c0 1.56-.08 1.64-1.67 1.64-1.77 0-3.55-.02-5.32 0-.84.01-1.2-.31-1.2-1.19.02-9.84.02-19.68 0-29.52 0-.81.3-1.17 1.13-1.16 6.69.01 13.39 0 20.08.03 1.63 0 3.15.39 3.85 2.08.28.69.43 1.48.43 2.22.03 8.78.02 17.55.02 26.33 0 .99-.23 1.21-1.27 1.22-1.9.01-3.79.01-5.69 0-1.06 0-1.27-.22-1.27-1.31V32.33 31.2H8.19zM36.39 48.43h9.12v-1.12-21.85c0-1.46.12-1.58 1.54-1.59h5.41c1.07 0 1.29.22 1.29 1.29v29.26c0 1.08-.22 1.31-1.28 1.31H32.75c-.6 0-1.22-.08-1.81-.24-1.62-.43-2.45-1.44-2.64-3.11-.05-.48-.05-.97-.05-1.46v-25.6c0-1.36.08-1.44 1.46-1.44h5.32c1.23 0 1.35.12 1.36 1.37v23.18zM263.64 31.17h-9.14v23.08c0 1.39-.11 1.49-1.53 1.49h-5.41c-1.06 0-1.24-.18-1.24-1.23V25.08c0-1.03.18-1.2 1.26-1.2h19.62c.61 0 1.23.05 1.81.2 1.72.45 2.56 1.47 2.73 3.23.05.58.07 1.16.07 1.73v25.04c0 1.58-.07 1.65-1.66 1.65h-4.86c-1.6 0-1.67-.06-1.67-1.62V31.16zM282.79 31.13v5.47h14.03c.49 0 .98.02 1.45.12 1.08.22 1.69.86 1.69 1.96.03 4.54.05 9.08-.02 13.62-.03 1.88-1.27 3.06-3.17 3.33-.54.08-1.1.11-1.64.11h-16.32c-1.4 0-1.6-.15-2.08-1.44-.56-1.51-1.14-3.01-1.71-4.52-.42-1.1-.3-1.29.86-1.29h15.91v-6.42H277.58c-2.3 0-3.07-.77-3.08-3.08-.01-3.47 0-6.95 0-10.42 0-.55.06-1.1.16-1.63.33-1.74 1.38-2.72 3.15-2.95.54-.07 1.1-.09 1.65-.1h18.16c1.39 0 1.51.12 1.51 1.52 0 1.52-.02 3.05 0 4.57.02.87-.34 1.18-1.21 1.17-4.68-.03-9.35-.01-14.03-.01h-1.11zM133.48 31.13v5.47H146.7c1.12 0 1.35.22 1.36 1.32v2.65c0 1.3-.19 1.49-1.47 1.49H133.5v6.42h15.01c1.17 0 1.26.13.86 1.2-.59 1.6-1.24 3.17-1.78 4.79-.33.99-.95 1.29-1.93 1.28-5.99-.02-11.98-.02-17.97 0-2.78 0-2.41.08-2.41-2.42V25.37c0-1.41.07-1.49 1.51-1.49h21.55c1.38 0 1.46.11.98 1.4-.58 1.57-1.22 3.11-1.77 4.69-.3.85-.8 1.18-1.7 1.17-3.85-.03-7.7-.01-11.55-.01h-.83zM200.07 31.13v17.35h14.6c1.18 0 1.26.1.86 1.19-.61 1.65-1.26 3.29-1.86 4.95-.28.76-.76 1.12-1.58 1.12-5.29-.01-10.58.03-15.86-.02-3.07-.03-4.33-1.37-4.34-4.4-.01-7.68 0-15.35 0-23.03 0-.43 0-.86.07-1.28.3-1.75 1.4-2.8 3.18-3.03.54-.07 1.1-.09 1.65-.1h17.7c1.38 0 1.46.11.99 1.4-.58 1.57-1.21 3.12-1.77 4.69-.3.84-.79 1.18-1.7 1.18-3.61-.04-7.21-.01-10.82-.01h-1.11zM189.17 39.82v14.54c0 1.19-.18 1.38-1.38 1.38-1.86 0-3.73.01-5.59 0-1.02 0-1.27-.24-1.27-1.23V25.07c0-.85.37-1.21 1.22-1.2 1.96.02 3.91.02 5.87 0 .86 0 1.18.38 1.17 1.23-.02 4.91-.01 9.81-.01 14.72z"/></g></svg>