<svg xmlns="http://www.w3.org/2000/svg" viewBox="0 0 270 80"><path d="M261.02 75.13c1.69 1.99 4.8 2.58 6.83.78 2.99-2.64 2.51-7.43.66-11.01-.73-1.42-2.43-2.33-3.8-1.47-1.43.89-1.37 2.71-1.21 4.16.17 1.58.51 3.1 2.09 3.87l1.92.07c-.26 1.38-1.06 2.47-2.11 2.81-3.76 1.25-5.47-4.81-5.65-9.48-.04-1.11-.14-2.33.08-3.46.79-4.07 1.15-8.1 2.26-12.09 2.98-10.69 4.96-20.3 3.68-31.5l-.38-3.28-.44-2.85c-.4-2.61-1.64-4.88-3.48-6.73-1.7-2.47-3.99-3.9-7.01-4.61h-.27c-2.57.8-5.08 1.62-6.48 4.04l-1.35 2.33-1.57 3.78-1.07 3.94c-.85 3.13-.47 6.17.04 9.24l.94 5.66.84 2.51c.78 2.33 2.22 4.39 4.77 4.69 1.71.2 3.46.1 4.67-1.31 3.07-3.54 5.31-9.04 5.05-13.88-.17-3.23-.51-6.33-1.96-9.4-.99-2.09-3.28-3.64-5.49-2.95-3.37 1.04-4.82 6.92-4.67 10.65.1 2.4 1.45 4.82 3.62 5.8 1.73.79 3.04-.08 3.71-1.62.64-1.47.56-3.24-.8-4.07-1.4-.85-3.38-.5-4.29 1.16-.9-1.08-1.05-2.16-1.02-3.44.04-2.01 1.23-4.04 3.54-3.9 3.95.23 6.06 5.17 5.02 9.89-.36 1.62-.67 3.15-1.52 4.51-1.01 1.62-2.74 3.27-4.79 3.15-1.87-.12-3.24-2.01-3.75-3.57l-.98-3.01c-1.24-3.78-1.4-7.93.22-11.71l2.29-3.94c.87-1.5 2.18-2.87 3.95-3.39 1.38-.41 3.94-.22 5.09.69 3.24 2.56 4.18 6.5 4.56 10.38.46 4.63.49 9.03-.38 13.58l-2.13 11.12-1.67 9.67-1.3 6.59c-.98 4.97.39 13.65 3.71 17.57zm6.46-4.21c-1.05.13-2.12-2.17-1.1-2.67 1.04-.14 1.62 2 1.1 2.67zM94.38 74.86c7.79-.94 15.08-2.26 22.46-4.62 4.89-1.56 10.65-2.79 15.38-1.01 1.3.49 2.04 2.04 1.5 3.43-1.21 3.08-5.24 4.42-8.23 2.67-.67-.39-.72-1.69-.4-2.35.71-1.49 3.02-1.48 3.43-1.01.25.29.41.84.65 1.63.52-.08 1.53-.47 2.19-.99.61-.48.21-2.46-.61-2.58-2.48-.34-4.78.61-7.03 1.43l-6.16 2.25-9.53 2.23-3.37.73c-7.66.87-15.27 1.09-22.99.53-3.23-.24-7.72-.92-7.71-3.34 0-2.83 8.3-5.39 12.1-6.06-2.12-.99-4.59.18-7.03-.55 1.66-.76 2.82-1.21 3.22-2.86l.63-2.61.42-2.3.3-6.71.19-4.24c.14-3.08-.1-5.88-.31-9.16l-4.13-2.4c-.53-.31-1.24-1.13-1.66-1.81 2.72.2 5.11-.19 7.72-.63 2.32-.39 4.68-.08 6.96.06l3.7.22c2.03.12 3.38 1.09 4.25 2.9s1.1 4.22-.32 5.77c-.96 1.05-2.27 1.48-3.51 1.1-1.02-.31-2.24-1.34-2.17-2.74.06-1.18 1.38-1.81 2.6-2.43-2.89-1.13-5.8-.89-8.65-.38-.39 3.82-.6 7.22-.62 11.11l3.71-.08c.92-.56 1.56-2.02 2.63-3.08l-.4 7.15c-.05.95.31 1.79-.23 2.75l-.71-2.38c-1.48-1.2-3.88-1.06-5.38-.48l.02 4.06.04 6.86c2.1-.2 4.33-.59 6.38-1.26 1.31-.43 1.95-1.48 2.63-2.58l1.26-2.03.5-.02c.61-.03.4 6.13-.07 8.95l-6.46-.39c1.23.78 3.13.77 3.86 2.11s-.64 2.94-1.72 3.53l-2.85 1.55c-1.38.75-3.26.66-4.52-.43-.68-.59-.66-1.64-.14-2.31.41-.53 1.32-.96 2.07-.86s1.24.87 1.62 1.69c.7.11 1.99-.63 2.09-1.42-.88-1.09-2.38-1.15-3.71-1.23-3.62-.22-8.72 1.28-8.1 3.7.78 3.05 10.01 1.43 14.24.92zM18.41 10.87c-1.93-3.18-6.06-4.78-7.88-3.39-2.82 2.15-4.15 5.16-5.07 8.49-1.49 5.39-.56 9.49.42 14.49l1.8 9.2c.86 4.38 1.89 8.54 2.43 12.96l.9 7.31c.25 2.05 0 4.07-.03 6.1-.05 4.4.26 12.91-3.34 13.53-2.41.42-4.67-1.09-5.87-3.06-2.33-3.25-2.36-7.39-.1-10.64l1.34-.74c1.53-.85 4.17 6.61 1.84 8.19-.73.49-1.52.55-2.56.45l1.19 2.11c.32.57 1.6 1.08 2.35 1.08.68 0 1.61-.8 1.99-1.64 1.51-3.38 1.61-7.03.9-10.61l-1.49-7.46-2.71-12.03c-.64-2.84-.85-5.58-1.02-8.48-.57-9.31-2.33-27.25 5.46-32.09 2.05-1.28 4.46-.99 6.72-.46 2.77.65 4.6 2.63 6.05 4.99s2.97 5.07 2.8 8.02l-.32 5.6c-.2 3.48-.68 6.96-2.44 9.95l-1.22 2.08c-1.61 2.74-5.33 3.33-8.01 1.63-3.56-2.27-5.16-8.19-5.04-12.33.14-4.69 2.3-12.81 6.22-13.28 2.48-.3 5.15 2.04 5.03 4.96-.18 3.99-.26 9.48-3.26 9.85-1.61.2-3.13-1.65-2.45-3.02.29-.58.96-1.28 1.42-1.43.51-.17 1.37.16 2.25.48.46-2.87.18-6.73-2.18-7.25-2.02-.45-4.49 2.52-4.76 4.5l-.61 4.47c-.33 2.41.65 5.29 2.85 6.67 1.23.76 2.82 1.16 4.15 1.74 2.9-.87 4.8-3.11 5.32-6.13.27-1.58.74-3.34.51-4.94-.51-3.52-1.72-6.82-3.58-9.88zM4.13 71.11c-.05-.45-.61-1.09-.96-1.1-.29 0-.97.44-1.01.73-.07.53-.02 1.36.04 2.18.58.03 1.21.01 1.52-.18s.48-1 .41-1.63zM186.65 60.35l-.18 6.48-9.63.24c.21-.68 1.1-.72 1.63-1.06l1.71-1.11.38-2.17.16-6.17.19-5.66.43-10.53-.07-3.37-2.17.08.39 1.53c-.22.63-.75 1.86-1.28 2.32-.96.82-2.45.42-3.32-.24-1.98-1.5-1.16-4.88.2-5.46l2.69-1.15c.91-.39 1.89-.35 2.94-.26 6.14.49 12.61 1.09 17.54 4.65 1.96 1.42 2.61 3.39 2.09 5.74-.95 4.34-3.34 5.2-7.72 6.12 4.09 2.01 4.65 7.47 5.16 12.08l.44 4.01c.93-1.35 2.03-2.85 3.71-2.4 1.23.33 1.58 2.29 1.29 3.44-.37 1.51-1.77 2.44-2.96 2.76-5.15 1.38-7.6-6.74-8.98-11.71-.55-1.99-2.69-5.71-4.44-6.05l.04 3.05-.26 4.83zm6.59-16.79c.35-.88.1-2.34-.62-3.06-1.39-1.39-3.43-1.88-5.35-2.09l-.27 8.32c2.26.36 5.49-1.29 6.23-3.17z" fill="#fff"/><path d="M30.12 65.33c3.18.3 5.95-1.09 8.48-2.52 3.46-1.96 6.68-6.86 8.13-10.85 1.07 2.59.04 5.03-.66 7.34-1.1 3.61-3.33 6.11-6.61 7.89-3.77 2.04-7.86 3.27-12.27 2.7-3.44-.45-6.69-1.36-9.68-3.17-2.55-1.55-5.02-4.14-5.24-7.28-.36-5.27 1.56-10.29 4.49-14.59 2.93-4.32 5.28-6.18 9.69-8.86 2.25-1.37 4.89-2.21 7.49-2.7 4.79-.91 11.18 1.34 11.72 6.14.29 2.6-1.43 4.78-3.16 6.4-1.47 1.38-3.05 1.78-5 1.24-1.29-.36-2.45-1.2-2.32-2.66.23-2.56 2.3-4.66 5-3.95.24-.63.36-1.5.15-2.13-.18-.51-1.05-.99-1.69-1.14-3.04-.72-5.77-.03-8.42 1.48-1.46.83-3.14 1.49-4.35 2.75-3.09 3.23-4.8 7.48-4.99 11.96l.15 2.52c.11 1.88 1.39 3.48 2.42 5.1 1.4 2.2 3.77 4.09 6.65 4.36zM63.8 57.65c-.86-1.89-1.77-3.29-4.02-3.78-.46 1.07-.44 2.28-.51 3.53-.2 3.41-.27 6.74-.14 10.11-2 0-3.91-.05-5.76.23-1.24.19-2.65.71-3.77.04 1.38-1.66 3.86-2.43 4.56-4.46 1.37-3.94 2.08-8.23 2.4-12.39l.05-5.54-.17-5.44c-.03-1.04-.48-2.9-1.67-3.11-1.22-.01-2.56 1.33-3.39 2.13 1.23.81 1.92 1.56 2.02 2.77s-.8 2.03-1.81 2.49c-1.16.52-2.12-.06-3.09-.93-1.12-1-1.66-2.26-.96-3.87 1.82-4.2 8.74-5.67 13.64-5.54 5.42.15 8.65.5 12.75 4.53 1 1.95 1.76 3.95 1.91 6.16-.99 2.59-3.06 4.12-5.45 5.33l-4.44 2.25c2.18 1.25 3.53 2.88 4.5 5.09 1.62 3.7.35 7.74 2.64 10.58.15-1.49.16-2.49.95-3.15.94-.78 2.28-.75 3.24.14 1.59 1.48 1.11 3.71-.38 5.21-1.94 1.94-5.05 2.1-7.26.22-1.65-1.39-2.79-3.4-3.43-5.5l-1.78-5.77-.61-1.34zm4.91-16.36c-.71-2.78-4.92-4.11-8.14-4.25l-.04 4.69.14 8.52c4.59-1.59 9.15-4.61 8.04-8.97zM223.86 58.91l.16-.79c.04-.22.76.34.79.59l.53 5.75c.06.6.25 1.03.53 1.83-2.1.28-4.31.15-6.52.14l-6.49-.03-7.98.02c-2.83 0 1.73-1.95 2.26-3.65.7-2.23.56-4.41.6-6.64l.12-6.39-.14-5.39-.31-4.19c-.25-3.42-1.43-3.91-4.52-5.1.34-.31.99-.59 1.36-.57 3.3.25 6.31.08 9.57-.19l5.93-.5 5.44.26c1.96.09 2.99 1.93 3.19 3.77.15 1.45.14 2.8-.86 3.85-.84.89-2.34 1.57-3.78 1.37-1.09-.15-2.02-.76-2.47-1.58-.5-.91-.43-1.84.18-2.9l-8.31.66.12 8.62c2.22.18 3.89-.03 5.87-.38l.5-1.85c1.33.32 1.1 1.71 1.09 2.81l-.12 7.91c-1.31-.04-.7-1.3-.94-1.77-.7-1.43-2.57-1.37-3.85-1.25l-2.86.25.55 9.42 7.88-.44 1.26-.15c.34-.04.71-.87.77-1.22l.44-2.27zM149.99 58.6c-.97-4.73.15-10.54.88-15.64l.05-3.8c.03-1.94-1.17-3.05-2.8-4.38l6.01-.03c.87 0 1.91.31 2.59.76l-1.19 9.72-.32 7.25c-.11 2.6.56 5.04 1.64 7.3s3.42 3.65 5.68 2.65l.71-9.13.65-11.1.09-7.59 8.59.12c-2.02 1.15-2.57 1.79-2.78 3.69l-.9 8.11c-.54 4.82-1.15 9.52-.84 14.33.17 2.63 1.18 4.69 3.75 5.65l-.67.55-7.57.1-.35-1.65c-2.08 1-4.25 1.83-6.59 1.09-3.62-1.16-5.88-4.27-6.65-8.02zM117.37 56.86l-6.53.42-2.25 10.51-9.29.08c2.17-1.44 3.54-2.52 4.15-4.82l1.26-4.78 3.12-10.82c.81-2.79 1.77-5.53 2.07-8.36.18-1.67-.82-2.23-2.07-2.82l-2.63-1.23c4.62-.47 8.75-.37 13.27-.17.41.8.53 1.63.64 2.49l.45 3.31 1.86 12.42c.65 4.32 1.4 9.26 3.53 13l1.86 1.63-7.06-.37-1.78-8.69c-.11-.55-.27-1.43-.6-1.78zm-5.4-3.15l5.42-.26-2.64-11.47-1.34 4.79-1.44 6.94zM129.17 67.38c1.27-2.38 3.12-2.23 3.2-6.42l.07-3.4.13-7.63-.02-6.77-.05-3.16c-2-.39-4.39-.31-6.14.98l-1.47 1.7c-.29-1.63-.39-2.95-.29-4.57l.22-3.56 3.42.05 5.67.17 7.41-.05 5.99-.07.06 3.07-.51 5.23-1.9-2.42c-.91-.83-2.64-.69-3.86-.72l-2.74-.07c.18 3.14.13 5.91-.09 8.92l-.45 6.17c-.21 2.88-.7 5.6-.21 8.47.87 1.21 2.15 1.94 3.58 3.08-.69.42-1.59.58-2.47.66l-5.4.5c-1.45.13-2.51.19-4.13-.17zM230.23 66.22c-2.06-.97-3.09-3.67-3.27-5.61-.16-1.77.94-3.03 2.07-3.95 1.22-.98 2.91-1.43 4.59-.68.68.31 1.3 1.43 1.31 2.08.02.73-.44 2.19-1.06 2.53-1.22.67-2.31.27-3.86.03.52 2 2.19 4.16 4.43 4.31 3.29.23 6.89-2.33 8.22-5.76 1.02-2.64-.4-5.12-2.14-6.89-1.25-1.28-2.33-1.89-4.11-2.35s-3.43-1.59-4.71-2.88c-.49-.57-1.14-1.87-1.31-2.6-1.03-4.62 1.98-8.41 6.29-10.24 1.98-.84 4.54-.67 6.5.35 1.36.71 2.19 2.21 2.98 3.4 1.66 2.5 1.15 5.05-.48 5.94-.82.44-2 .39-2.8.04-1.35-.61-1.78-1.74-1.45-3.01.31-1.2 1.34-1.75 2.95-1.6-.22-1.49-.95-2.71-2.08-3.15-1.48-.58-2.82-.2-4.01.77-2.67 2.19-2.52 5.09-1.13 8.23 1.04 2.37 2.54 4.08 5.15 4.96s5.04 2.71 5.22 5.68c.26 4.04-1.93 8.28-5.64 10.15s-7.96 2.02-11.68.27zM148.31 69.44l7.55 1.34 10.69 2.26 5.96 1.21 8.06.99 6.96-.03c2.09-.01 3.79-.87 3.66-2-.03-.31-.45-.95-.75-1.09-4.35-2.16-6.02-2.54-11.05-2.45-.71.01-1.78.57-2.08 1.13.12 1.17 1.63 1.69 2.65 1.51.06-.61.19-1.34.54-1.57 1.01-.68 2.99-.31 3.64.82.25.44.11 1.8-.38 2-5.21 2.13-10.95-2.01-10.4-3.61.58-1.7 4.59-1.62 7.41-1.73 6.03-.25 13.49.65 17.13 5.71-1.73 2.56-6.43 3.28-9.76 3.51l-8.45.58c-7.24.11-14.25-1.36-21.24-3.13l-11.07-2.79c-2.37-.6-4.79-1.54-7.19-.85-.68.19-.61 1.63-.21 2.07.49.54 1.19.9 1.86.9l.08-1.83c.94-.71 2.22-.7 2.9.02s1.19 2.05.34 2.86c-1.55 1.5-5.47.77-7.44-1.2-.96-.96-1.31-2.87-.14-3.83 1.52-1.23 3.65-1.54 5.55-1.34l5.18.55zM119.63 19.33c-.08 2.67.44 4.74.71 7.31-1.44.46-2.68.78-4.23.81-.38-5.03-.42-9.64.37-14.55.16-.97.12-2.57.89-3.24s2.27-.82 3.27-1.02l.93 4.3.91 3.42 1.75-3.85 1.85-4.16 3.32-.06.89-.2c.18-.04.44.53.44.74l.02 7.67.85 9.53-4.41 1.07-.59-4.49-.51-3.29-3.12 7.52-3.34-7.5zM52.49 21.33l.29-2.78.49-3.03.72-5.97 5.41-1.19 3.06 9.87c.69-2.12.27-4.09.39-6.25l.18-3.34 4.31.14-.34 7.19-.06 10.09-5.12.63-2.45-4.7c-.68-1.29-.94-2.56-1.86-3.93l-.46 8.38-4.75.58.2-5.7zM191.42 26.09v-2.83l.73-7.55.28-3.05.49-3.89 4.46-.22c.17 0 .77.17.74.3l-.15.59-1.59 6.43 3.8-.26V8.87l4.98.27-.1 3.99-.23 5.83.1 6.67-4 .61c-.28.04-.95-.04-1.18-.19s-.41-.77-.4-1.1l.17-4.16-4.4.2.41 4.52-4.12.56zM106.86 27.19c-2.01-.03-3.7-1.34-4.8-2.84-1.36-1.84-1.82-4.31-1.71-6.7.16-3.3 2.15-6.3 4.61-8.4 2.58-2.21 6.84-1.21 8.46 1.73.87 1.59 1.35 3.21 1.33 5.07-.03 2.88-.47 5.84-2.23 8.2-1.27 1.7-3.38 2.98-5.66 2.94zm-.01-4.3c4.08-1.84 3.79-7.9 2.28-8.9-1.69-1.12-4.64 1.93-4.41 6.58.06 1.27.75 2.15 2.13 2.33zM154.13 26.04c-2.27 2.71-6.94.69-9.6-3.23-.39-.57-.37-1.82-.48-2.5-.6-3.84.95-8.47 3.67-10.99 2.42-2.25 5.98-1.78 7.87.3 1.27 1.41 2.41 2.96 2.47 5.02.08 2.63-.19 5.51-1.4 7.9-.62 1.22-1.57 2.35-2.53 3.5zm-2.15-4.2c.9-1.12.96-2.73 1.27-4.01.42-1.75.17-3.7-1.6-4.54-.53-.08-1.44.67-1.85 1.05-2.08 1.91-2.36 4.51-.83 6.91.52.82 2.12 1.7 3.01.59zM90.8 26.73c-1.93.33-3.87.03-5.9-.12l.05-8.06.17-9.55c4.14-1.25 7.48-.43 10.82 2.28 2.21 1.79 3.06 4.08 2.57 6.98-.67 4.03-3.31 7.72-7.72 8.47zm3.36-9.08c-.04-1.55-1.32-3.23-2.33-4.22-.54-.54-2.17-.33-2.63-.05l.07 5.18-.11 4.1c2.39-.51 5.08-2.18 5.01-5zM75.85 22.16c-.48-1.51-.63-2.82-.46-4.58l7.49-.18c-.02 3.99-.53 7.22-3.49 9.47s-8.16-.97-9.73-4.04c-2.64-5.14-.37-12.26 4.99-14.51 3.37-1.42 7.26.23 8.84 3.45l-2.48 2.15c-.33.29-1.38.85-1.61.51-.3-.44-.52-1.56-.92-1.85-1.37-.98-3.2-.05-4.13 1.14-1.94 2.48-2.32 5.52-.58 8.19.5.77 1.03 1.58 1.92 2.09.78.45 1.89.29 2.48-.15.84-.64 1.16-1.6.76-2.67l-3.07.98zM41.27 26.5c-1.59.43-2.11-2.15-4.98-3.58L37.55 27l-6.17 1.09.56-7.45c.3-3.99.38-7.71-.08-11.76 1.59-.51 2.94-.72 4.82-.73l-.06 5.84c2.23-2.05 2.87-5.24 4.37-5.3l2.83 3.97-.99.83-4.71 4.73 5.5 3.34c.2.12.55.6.64.78.12.23-.61.54-.79.74-.9.91-1.58 2.21-2.21 3.43zM211.43 20.01c-.15.72-.1 1.52.1 2.08l3.55-.21 3.18-.32-.08 4.75-11.54-.12c-.3-1.38-.29-3.03-.24-4.65.14-4.23.58-8.46 1.34-12.58l6.05-.51 4.84-.3.22 3.6c-.81.78-2.18.46-3.18.53l-4.27.33.73 3.21 4.6-.26.3 4.68-5.59-.24zM163.72 19.06l.59 4.44.56 2.39-3.11.51c-.48.08-1.23.06-1.71-.08l-.35-10.11.25-7.87 3.57-.52 6.48-.29c.39-.02 1.14.31 1.44.48l.05 3.53-7.62.97.15 2.35 5.17-.45.17 4.16-5.65.47zM182.4 25.2l.04-3.07.24-4.17c.11-1.84.71-3.55.2-5.4l-4.03.61-.43-4.68 4.7-.21 8.28-.26c-.13 1.12-.09 2.11 0 3.15l.14 1.69-3.69.11-.94 12c-1.49.42-2.9.45-4.49.22zM49.7 26.71c-1.74.36-3.38.28-5.22 0 .22-.62.5-1.44.52-2.14l.14-4.6c.12-3.71.74-7.18.7-10.98 1.49-.7 3.18-.86 5.01-.26l-.88 11.21-.06 2.59-.22 4.18z" fill="#fff"/></svg>