<svg xmlns="http://www.w3.org/2000/svg" width="300" height="111" viewBox="0 0 300 111"><path d="M28 110.75L10.75 62.43c-1.4-3.91-2.37-6.4-2.93-7.49a5.2 5.2 0 0 0-2.46-2.38A11.85 11.85 0 0 0 0 52.07l.56-5.32 35.09-2.42-.56 5.32q-7.35.51-7.72 4.06-.21 2 1.41 6.33l9.64 28.62 15.82-30.43a16.54 16.54 0 0 0 2-5.61q.48-4.45-6.88-3.95l.57-5.33 24-1.65-.58 5.31A9.81 9.81 0 0 0 67 49.55q-2.34 2.25-8 13.22l-25 47.57zM74.81 46.91l.56-5.32 34.9-2.41-.57 5.32-1 .07c-3.28.23-5.47 1-6.59 2.24s-1.83 3.36-2.13 6.27L95.9 91.54c-.31 3 0 5 .88 6.11s3 1.53 6.16 1.31l1-.07-.57 5.32-34.89 2.41.56-5.32c3.5-.24 5.89-.93 7.15-2.06s2.06-3.31 2.4-6.5l4.06-38.47c.33-3.1 0-5.17-1-6.19s-3.21-1.42-6.84-1.17zM5.92 21.09a5.26 5.26 0 0 0-4.55 4.36L1.2 26.9a3.16 3.16 0 0 0 3.56 3.66l12.9-1.12a1 1 0 0 1 .83 1.36A1.81 1.81 0 0 1 17 32.06L.4 33.5 0 36.65l25-2.15a5.22 5.22 0 0 0 4.54-4.36l.18-1.45A3.15 3.15 0 0 0 26.13 25l-12.9 1.12a1 1 0 0 1-.82-1.37 1.79 1.79 0 0 1 1.54-1.26l16.53-1.39.41-3.1zM33.17 22.36l-1.05 8.53a2.9 2.9 0 0 0 3.27 3.35L59 32.19l.37-3-16 1.38A1.3 1.3 0 0 1 41.85 29l.8-6.49a2.15 2.15 0 0 1 1.88-1.81l16-1.39.37-3-23.57 2a4.8 4.8 0 0 0-4.16 4.05zM127.48 14.19l-1 8.52a2.89 2.89 0 0 0 3.26 3.35l23.57-2 .37-3-16 1.39a1.31 1.31 0 0 1-1.48-1.52l.8-6.49a2.16 2.16 0 0 1 1.88-1.81l16-1.39.38-3-23.57 2a4.82 4.82 0 0 0-4.21 3.95zM191.25 8.66l-1.05 8.52a2.9 2.9 0 0 0 3.27 3.35L217 18.48l.37-3-16 1.39a1.31 1.31 0 0 1-1.47-1.52l.12-1.47 17.68-1.53.38-3-17.68 1.53.3-2A2.16 2.16 0 0 1 202.61 7l16-1.39.37-3-23.57 2a4.81 4.81 0 0 0-4.16 4.05zM88.93 13.89l-21.24 1.85a4.77 4.77 0 0 0-4.16 4l-1.05 8.52a2.89 2.89 0 0 0 3.26 3.35L87 29.76a4.8 4.8 0 0 0 4.17-4l1-8.52a2.9 2.9 0 0 0-3.24-3.35zm-7.26 11.69a2.16 2.16 0 0 1-1.88 1.81l-6.11.53a1.3 1.3 0 0 1-1.47-1.51l.79-6.5a2.17 2.17 0 0 1 1.89-1.8l6.1-.53a1.31 1.31 0 0 1 1.48 1.51zM187.12 5.38l-9 .78-.94 7.63-8.92.78.93-7.63-9 .78A1.55 1.55 0 0 0 158.77 9l-1.35 10.93a3 3 0 0 0 3.34 3.42l5-.43a1.9 1.9 0 0 0 1.64-1.58l.6-5.14 8.93-.78-.63 5.16a1.13 1.13 0 0 0 1.28 1.32l5-.43a4.9 4.9 0 0 0 4.26-4.08l1.34-10.93a.93.93 0 0 0-1.06-1.08zM119.83 11.22l-13.4 1.16-9 .78a1.55 1.55 0 0 0-1.34 1.29L94.7 25.38A3 3 0 0 0 98 28.8l5-.43a1.9 1.9 0 0 0 1.64-1.58l.46-3.72 5.62-.49a3 3 0 0 1 3.28 3.51l-.15 1.2 9.15-.79.29-2.29a4.69 4.69 0 0 0-.9-3.52 4.89 4.89 0 0 0 1.7-3.06l.2-1.63a4 4 0 0 0-4.46-4.78zm-7.75 3.1a2 2 0 0 1 2.16 2.35 3.28 3.28 0 0 1-2.79 2.78l-6 .51.63-5.12zM250.31 6.68l.2-1.63A4 4 0 0 0 246.1.27l-13.4 1.16-9 .78a1.55 1.55 0 0 0-1.34 1.29L221 14.43a3 3 0 0 0 3.33 3.42l5-.43a1.9 1.9 0 0 0 1.65-1.58l.45-3.72 5.62-.49a3 3 0 0 1 3.25 3.51l-.15 1.2 9.12-.79.28-2.29a4.65 4.65 0 0 0-.9-3.52 4.91 4.91 0 0 0 1.66-3.06zm-12-3.31a2 2 0 0 1 2.17 2.35 3.29 3.29 0 0 1-2.8 2.78l-5.91.5.62-5.12zM124.3 53.77l15.75-1.43c1.62-.15 3.11-1.91 3.31-3.92l.39-4c.11-1.11-.54-2-1.44-1.88l-9.17.84-.3 3 3.83-.35c.46 0 .79.39.73 1l-.14 1.49a1.37 1.37 0 0 1-1 1.24l-5.6.51c-.74.07-1.26-.62-1.18-1.53l.64-6.45a1.93 1.93 0 0 1 1.49-1.77l12.71-1.15.3-3L125.85 38c-1.62.15-3.11 1.91-3.31 3.92l-.83 8.46c-.2 2.02.97 3.54 2.59 3.39zM150.91 51.35l11.29-1 .29-3-7.06.65c-.74.06-1.28-.55-1.31-1.41l1.11-11.27L148 36a1.35 1.35 0 0 0-1 1.26l-1.07 10.85c-.2 2 1 3.61 2.65 3.45zM236.28 39.89l.72-7.09c.27-2.71-1.31-4.77-3.5-4.57l-4.15.37-5.4.5-4.14.38c-2.19.2-4.21 2.59-4.47 5.3l-.7 7.09c-.2 2 1 3.61 2.65 3.46l4-.36a1.69 1.69 0 0 0 1.31-1.55l.48-4.93 5.4-.49-.48 4.93c-.08.79.38 1.39 1 1.33l4-.36c1.55-.16 3.07-1.96 3.28-4.01zm-13-4.42l.24-2.47a2.14 2.14 0 0 1 1.67-2l2.42-.22c.82-.07 1.41.69 1.31 1.71L228.7 35zM192 47.61l4-.36 12.82-1.16a3.93 3.93 0 0 0 3.27-3.48l.13-1.37a3.93 3.93 0 0 0-.78-2.87 4.06 4.06 0 0 0 1.31-2.57l.14-1.37c.24-2.4-1.38-4.2-3.59-4L191.49 32a1.37 1.37 0 0 0-1.06 1.27l-1.07 10.85c-.2 2.09.99 3.64 2.64 3.49zm10.06-3.49l-4.69.43.41-4.21 5.25-.47a1.7 1.7 0 0 1 1.21 1.93 2.6 2.6 0 0 1-2.17 2.32zm1.1-11.12a1.65 1.65 0 0 1 1.76 2 2.62 2.62 0 0 1-2.18 2.33l-4.69.42.42-4.29zM242 43.06l2.35-.21 11.29-1 .29-3-7.06.65c-.73.06-1.28-.55-1.3-1.41l1.1-11.27-7.18.66a1.37 1.37 0 0 0-1.07 1.26l-1.06 10.85c-.18 2.07 1.01 3.63 2.64 3.47zM167.1 49.88l16.9-1.54c1.62-.14 3.11-1.91 3.31-3.91l.83-8.46c.19-2-1-3.53-2.59-3.38l-16.88 1.53c-1.62.15-3.11 1.91-3.3 3.92l-.83 8.46c-.23 2.01.94 3.5 2.56 3.38zm5.76-11.53a1.93 1.93 0 0 1 1.5-1.77l4.85-.44c.73-.07 1.26.62 1.17 1.53l-.63 6.44a1.93 1.93 0 0 1-1.5 1.78l-4.85.44c-.73.06-1.26-.62-1.17-1.53zM142.71 63.63l-6.51.6-1.91.17-4.65.42-1.91.18-3.53.32c-2.19.2-4.21 2.58-4.48 5.3l-.72 7.09c-.2 2.05 1 3.6 2.65 3.45l3.34-.3a1.68 1.68 0 0 0 1.3-1.55l1-10 .07-.63a1.36 1.36 0 0 1 1.07-1.27c.52 0 .9.44.84 1.09l-1.07 10.92c-.07.63.3 1.11.82 1.06l3.71-.33 1.13-11.43.06-.64a1.37 1.37 0 0 1 1.08-1.26c.53 0 .9.44.84 1.1l-1 10.62c-.08.79.38 1.39 1 1.34l3.34-.31c1.66-.15 3.18-1.95 3.38-4l1.06-10.78c.05-.69-.35-1.21-.91-1.16zM176.64 71.71l1.1-11.26-7.18.65a1.37 1.37 0 0 0-1.06 1.26l-1.07 10.86c-.2 2 1 3.6 2.65 3.45l2.34-.21 11.3-1 .29-3-7.07.64c-.73.09-1.28-.53-1.3-1.39zM273.63 51.73l-3.34.3a1.67 1.67 0 0 0-1.3 1.55l-1.05 10.62a1.36 1.36 0 0 1-1.07 1.27c-.52 0-.9-.44-.84-1.09l1.07-10.92c.06-.63-.3-1.11-.82-1.06l-3.71.33-1.13 11.43-.06.64a1.37 1.37 0 0 1-1.07 1.27c-.53.05-.9-.44-.84-1.1l1-10.62c.08-.79-.38-1.39-1-1.34l-3.34.31c-1.66.15-3.18 2-3.38 4l-1.04 10.78c-.07.69.33 1.21.89 1.16l6.51-.6 1.91-.17 4.65-.42 1.91-.18 3.53-.32c2.19-.2 4.21-2.58 4.47-5.3l.7-7.09c.2-2.05-.99-3.6-2.65-3.45zM145.09 67l-.83 8.46c-.2 2 1 3.53 2.59 3.38l18.72-1.7.29-3-12.71 1.15c-.73.07-1.26-.62-1.17-1.53l.17-1.71 14-1.28.3-3-14 1.27.16-1.71a1.92 1.92 0 0 1 1.5-1.77l12.71-1.16.29-3-18.71 1.72c-1.63.14-3.11 1.88-3.31 3.88zM183.63 59.91l-.3 3 5.17-.47-1.11 11.31c-.08.79.38 1.39 1 1.33l4-.36c1.66-.15 3.18-2 3.38-4l.88-9 5.17-.47.3-3zM223.26 56.31l-16.87 1.53c-1.62.15-3.11 1.91-3.31 3.92L202 72.81c-.06.58.28 1 .75 1l19-1.73c1.63-.14 3.11-1.9 3.31-3.91l.83-8.46c.16-2.03-1.01-3.55-2.63-3.4zm-5.76 11.53a1.94 1.94 0 0 1-1.5 1.77l-5.85.53c-.19 0-.32-.16-.29-.38l.86-8.85a.57.57 0 0 1 .45-.52l5.79-.53c.73-.07 1.26.62 1.17 1.53zM247.77 54.08l-16.87 1.53c-1.62.15-3.11 1.91-3.3 3.92l-.83 8.47c-.2 2 1 3.53 2.59 3.38l16.87-1.53c1.62-.15 3.11-1.91 3.3-3.92l.83-8.46c.2-2.02-.96-3.54-2.59-3.39zM242 65.61a1.92 1.92 0 0 1-1.5 1.77l-4.85.44c-.73.06-1.26-.62-1.17-1.53l.63-6.45a1.92 1.92 0 0 1 1.5-1.77l4.85-.44c.73-.07 1.26.62 1.17 1.53zM298.24 49.49l-6.15.56-5.4.49-5.72.52a3.46 3.46 0 0 0-2.7 3.2l-.89 9.05c-.2 2 1 3.6 2.65 3.45l4-.36a1.68 1.68 0 0 0 1.31-1.54l1-10.41a2.15 2.15 0 0 1 1.67-2l2.42-.22c.82-.07 1.41.7 1.31 1.71l-1 10.41c-.08.8.38 1.4 1 1.34l4-.36c1.65-.15 3.17-2 3.38-4l.94-9.57c.06-1.34-.73-2.37-1.82-2.27z" fill="#fff"/></svg>