<svg xmlns="http://www.w3.org/2000/svg" width="260" height="114" viewBox="0 0 260 114"><path d="M76.32 23.55c.11-.04.17-.15.17-.26v-12.9c0-.09-.05-.18-.12-.23a.302.302 0 0 0-.26-.03c-.4.16-40.34 16.78-75.99 42.75-.07.05-.11.14-.11.23v12.9c0 .11.06.2.16.25.1.05.21.03.3-.03.14-.11 13.98-10.96 36.24-23.48l-1.09 64.57-2.5 5.58c-.05.11-.02.24.07.32.05.05.12.07.19.07.05 0 .1-.01.14-.04l13.5-8.16c.08-.05.14-.14.13-.24l-.7-67.4c9.89-5.18 19.95-9.86 29.89-13.91z" fill="#fff"/><path d="M76.36 37.78a.286.286 0 0 0-.27-.01L64.76 43.4c-.09.04-.15.13-.15.23s.04.2.13.25l3.63 2.39v27.92c0 3.59-2.38 5.52-4.63 5.52-1.02 0-1.96-.42-2.63-1.17-.78-.87-1.19-2.17-1.19-3.76 0-7.53-.1-26.99-.1-27.19 0-.1-.05-.19-.14-.24a.262.262 0 0 0-.27 0l-9.69 5.14c-.08.04-.13.12-.15.21s.02.18.09.24l2.97 2.73v23.26c0 4.35.93 7.18 2.91 8.91 1.44 1.26 3.4 1.88 5.93 1.88.82 0 1.71-.07 2.66-.2 4.39-.61 7.73-2.48 9.94-5.58 1.86-2.6 2.84-6.01 2.84-9.86 0-6.84-.43-35.79-.43-36.09 0-.1-.05-.18-.13-.23zM103.9 28.77c-1.17-.77-2.84-.74-4.82.1-3.91 1.66-18.47 7.55-18.61 7.61-.08.03-.14.1-.17.19-.02.09 0 .18.06.25l2.44 2.89v37.78l-2.04 3.39c-.06.11-.05.24.03.33.05.06.13.09.21.09.04 0 .08 0 .12-.03l9.39-4.55c.1-.05.16-.14.16-.25V54.69l6.46 4.91v11.47l-1.56 3.5c-.05.11-.02.23.06.31.08.08.21.1.32.05l8.5-4.15c.1-.05.16-.14.16-.25V55.55c0-.08-.04-.16-.1-.21l-3.94-3.43 4.96-5.91c.04-.05.07-.11.07-.18V32.77c0-1.9-.59-3.29-1.7-4.02zM90.77 50.46V39.7c.81-.31 4.12-1.56 5.15-1.9.4-.13.74-.1 1.02.1.44.32.69 1.05.69 2v3.84l-6.85 6.71zM126.66 41.77l4.76-5.14c.05-.05.07-.12.07-.19V24.58c0-1.83-.54-3.2-1.57-3.96-.99-.73-2.39-.86-4.03-.36-3.22.98-16.96 4.9-17.1 4.94-.1.03-.18.11-.2.22-.02.11.02.21.11.27l2.06 1.5v39.49l-2.11 2.49c-.08.1-.09.24-.01.34.05.07.14.12.23.12.03 0 .07 0 .1-.02l21.95-8.8c.1-.04.17-.13.17-.24l.99-13.15a.3.3 0 0 0-.08-.22l-5.35-5.44zm-8.31-1.6V29.41c.81-.31 4.12-1.56 5.15-1.9.4-.13.74-.1 1.02.1.44.32.69 1.05.69 2v3.84l-6.85 6.71zm5.97 9.34v6.89l-5.97 1.99V44.01l5.97 5.5zM150.76 14.76c-1.75.25-3.1.54-5.35 1.02-1.01.22-2.19.47-3.67.78-5.22 1.08-5.89 5.14-5.89 8.55v26.81c0 2.13.57 3.66 1.7 4.54.82.64 1.81.85 2.77.85.71 0 1.4-.12 1.99-.26 2.49-.62 7.96-2.15 8.05-2.17l2.61-1.08c2.74-1.13 2.96-3.87 2.96-6.83v-26.9c0-2.13-.51-3.66-1.51-4.52-.86-.75-2.1-1.01-3.67-.79zm-1.95 9.9v19.62c0 1.92-.88 3.03-2.76 3.5-.78.2-1.35.14-1.75-.17-.59-.46-.87-1.55-.87-3.33V25.11c0-2.87 1.45-3.04 2.73-3.19.12-.01.24-.03.36-.04.1-.01.2-.02.3-.02.44 0 .85.15 1.17.42.54.47.83 1.29.83 2.38zM204.1 0c-3.59.69-8.22 5.81-13.75 15.23-3.39 5.76-6.1 11.45-6.95 13.29-1.75-4.45-5.94-10.02-12.49-16.55-5.1-5.09-9.8-8.9-9.85-8.94a.272.272 0 0 0-.3-.03c-.1.05-.16.14-.16.25l.09 65.67-2.64 3.43a.27.27 0 0 0 0 .34c.05.07.14.11.22.11.04 0 .07 0 .11-.02l12.42-5.22c.1-.04.17-.15.17-.26V26.13c6.4 6.4 13.16 23.47 13.23 23.65.05.12.17.19.3.17.13-.02.23-.12.24-.25 1.16-10.28 9.6-23.08 11.77-26.23v32.94l-2.99 3.61c-.08.1-.09.24 0 .35.08.1.22.14.34.09l10.44-4.64c.1-.04.17-.14.17-.26V.28c0-.08-.04-.16-.1-.22a.31.31 0 0 0-.23-.06zM228.28 16.32c-1.67-1.35-4.06-1.82-6.56-1.29-4.18.89-14.48 3.22-14.58 3.24-.11.03-.2.12-.22.24-.01.12.04.23.15.28l2.46 1.27.45 31.84-2.98 3.07c-.09.09-.1.23-.04.34.05.08.14.13.24.13.03 0 .06 0 .08-.01l9.72-3.06c.12-.04.2-.14.2-.27v-9.74c.48-.29 2.11-1.27 3.47-2.18.79-.53 1.91-1.2 2.45-.91.37.2.44.87.44 1.4 0 2.37.15 7.26.18 8.08l-2.08 2.16c-.09.09-.1.23-.04.34.06.11.19.16.32.13l8.64-2.43c.12-.03.2-.14.2-.27V22.41c0-2.66-.87-4.76-2.51-6.09zm-4.53 8.07v7.28l-7 2.67V22.9c2.69-.75 5.16-1.32 6.28-.47.49.37.72 1.01.72 1.97zM259.9 8.95a.252.252 0 0 0-.22-.06l-9.45 1.47c-.12.02-.22.12-.23.25-.01.13.06.24.18.29l2.68 1.06v13.13c-1.38-2.33-5.48-8.55-12.39-13.38a.288.288 0 0 0-.2-.05l-9.1 1.47c-.12.02-.21.11-.23.24-.02.12.04.24.15.29l3.31 1.61V45.9l-1.68 2.27a.27.27 0 0 0 0 .32c.05.08.14.12.23.12h.07l7.89-1.99a.28.28 0 0 0 .21-.27V24.12c2.06 1.65 10.6 8.93 12.25 17.62l-2.32 2.24c-.09.09-.11.22-.05.33.06.11.18.17.31.14l8.49-1.82c.13-.03.22-.14.22-.27V9.16c0-.08-.04-.16-.1-.21z" fill="#fff"/></svg>