<svg xmlns="http://www.w3.org/2000/svg" viewBox="0 0 220 153"><path d="M218.87 54.43c1.35-3.25 1.37-6.78-.04-10.05.01-3.68-.52-7.83-3.5-10.43-7.4-9.3-17.48-6.68-15.06-14.69.52-.25.43 1.56.79 1.89 1.4 1.32 3.45-.17 3.81.19.21 2.79 2.02.74 3.39.45 1.52-.08 2.83-.31 3.96-1.5 1.98-1.17 6.24-.75 5.43-4.29-.18-.76-1.06-.95-1.11-1.73 1.41-3 1.07-6.98-1.36-9.45-2.4-1.23-3.36-4.13-6.11-4.73-2.08-.07-2.4 1.59-4 2.41.01-4.68-6.88-.11-8.95.4-.24.14-8.98 2.19-7.25 7.8l-1.7.28c.07 2.62-3.72 8.44-3.64 8.7-.37 5.21-1.99 12.74.84 17.73 2.98 4.97 8.94 3.92 12.14 7.63 1.01.65 3.28.76 4.16 1.4 2.44 2.82 2.78 6.36.79 9.52-.74.18-2.18.05-1.84-.99.1-.3.8-.45.92-1.72.29-2.86.07-5.77-3.58-4.99 1.22-6.19-5.56 1.07-7.85.88-11.13.82-4.73 10.23-5.34 17.58-.59.12-.34-.56-.88-.72-.45-.13-2.23.06-2.32-.04.98-3.33-.91-2.64-3.08-1.55-2.12-.48-2.94-.54-2.38-3.06.03-10.48.11-20.87-.38-31.27-.56-3.01 2.94-16.75-3.01-11.39 1.29-5.86-1.44-4.68-3.57-.65-3.54-2.88-7.38 2.29-6.41 6.11h-.56l-.23-3.54c-5.44-3.76-3.01 22.54-3.91 25.86-.15 10.27-.73 20.34-1.14 30.59l-2.26.12c-.49-.68.02-1.8-.82-2.2-1.76-.84-2.03 1.07-2.47 1.1-.6-.57-2.03-.85-2.54-1.19-.8-3.54.09-8.07-.39-11.85-1.13-4.47 4.68-38.24-2.06-34.57-.2-1.34.79-2.95-1.38-2.83-1.82.49-5.64 2.66-7.11 4.61-.78 1.66-1.43-1.86-3.95.48-.26.18-.49.36-.72.54-3.04 2.29-1.3 6.59-2.31 9.92.26 8.38-.52 17.09-.17 25.61-.03 2.22-.01 5.18-1.15 6.95 1.79 7.71-.58 16.1 1.19 23.69.92 3.05 1.56 1.29 3.03.55.58.1.77 1.56.89 1.65.78.54 2.09-1.79 1.87-2.51.89-.52.92 1.33 1.41 1.78 1.74 1.19 1.23-3.14 3.22-3.39 1-1.97 1.41 1.16 2.55 1.04.95-.2 1.77-3.03 2.66-3.19.51-.09.91.48 1.55.44.47-.03 1.48-.73 1.9-.68.62.07 1.17 2.31 2.79 1.27.32-.21 1.5-3.21 1.59-3.73.17-1.07-.58-4.08.37-4.35 1.41-.4 1.22.82 1.57 1.52.69.28.54 1.26.93 1.75.08.06 1.73.31 1.95.25.42-.13.99-1.18 1.36-1.09 2.65 6.1 2.89-1.25 4.05-1.98.93-.59.65 1.74 1.94 1.39 1.56-1.36 1.77-6.14 4.23-7.29.89-.25.93.76 1.46 1.11 1.98 1.1 2.33.89 4.27.27 1.06.13 1.38 1.92 2.55 1.47 1.65-.64.43-3.44 1.75-4.3.47-.31 1.12.96 1.51 1.13 1.14.49 1.67-.22 1.98-1.22 1.25-3.52.36-7.8.66-11.3h.56c-.02 3.03.34 4.43 2.44 6.51 6.38-3.24 2.59 8.82 8.21 3.89.65 0 1 3.18 2.55 1.58 1.3-1.34-.26-4.43 1.21-5.76.46-.41 1.34-.5 1.42-1.31.42-.3.87 1.37 1.23 1.68 2.19 1.66 2.84-3.34 3.75-1.48.82 2.6 1.94 2.74 4.33 2.05 3.69 3.58 4.65-1.45 4.67-4.56.13-.96.76-1.71.88-2.51.32-1.5-.43-5.2.77-6.1 2.73 4.43 4.3-2.37 3.76-4.61-.21-1.11-1.36-1.1-.69-2.96zm-67.05 28.63c-2.82.47-2.11 4.77-3.03 6.77-2.39 6.42-3.89-8.93-8.83 3.23-1.43 1.84-.88-4.22-2.28-4.47-3.16-.35-2.04 5.6-3.36 6.93-.77.16-.69-3.63-2.27-2.46-.47.35-1.14 3.3-1.54.62-.75-19.74.61-39 1.26-58.71.12-1.11.07-1.71.44-2.65 4.62-4.67 2.21 5.03 3.98 6.52 3.23 1.65 1.49-5.18 1.98-6.89.14-2.49.39-2.84 2.71-3.9.52-.24 2.79-1.55 3.14-1.38 1.34 8 .03 16.98-.19 25.24.48 5.8-2.37 21.8.7 25.48 1.26.38 2.83-1.18 3.71-.55.95 5.44 2.99 2.65 3.41-.92.6 1.29 1.1 6.22.16 7.13zm28-10.05c-.7 2.21-.24 6.99-3.01 3.02-2.23-1.02-1.34 4.04-2.06 4.53-1.84.81-3.38-6.2-5.65-1.32h-.77c-1.2-4.62-3.03-4.8-3.9.03-1.09 1.35-1.6 3.95-2.02 5.51-.53.77-1.26-1.52-1.73-1.67-2.51-.41-1.57 4.41-2.7 4.99-1.93.2-.43-3.35-.56-4.53-.03-20.61.39-42.16 2.06-62.44-.39 1.69.51 20.16 3.39 12.15.84-4.54-1.15-10.5 1.22-14.6 3.69-2.3.89 7.44 3.95 7.55 2.99-.67-.16-8.69 1.85-10.13.55-.47 1-.33 1.08.4-.19 16.07.42 32.5-.02 48.61.16 3.4 4.43.11 6.33.09.5-.2 1.9-1.41 2.32-.73.37 2.47.39 6.01.21 8.54zm35.4-19.78c-2.26 2.83 1.52 4.25-.86 7.25-1.43-.25-.62-2.71-2.68-2.02-1.9 3.53.86 9.11-2.84 11.77.94 3.21-.63 4.86-2.67 1.28-1.04-.82-1.06-1.25-.55-2.45.05-1.6-2.53-5.69-3.31-2.35-1.46.14-2.45 2.26-3.03 3.38-.3.95.43 2.3-1.16 1.75-2.22-.77-1.07-4.13-3.76-2.72-2.41 1.26-.45 2.15-.25 3.34.1.59.05 4.76-.2 4.96-1.43.68-1.17-3.8-1.82-4.82-.32-.64-1.2-1.17-1.63-1.76-.47-.63-.21-1.54-1.47-1.28-1.58.33-.42 2.09-1.17 2.97-1.08-.75-1.85-1.3-1.8-2.73-.46-4.48-1.44-8.02-1.32-12.41-.3-2.03-2.18-5.9.76-6.8 7.25-.25 12.57-10.24 10.64 2.92-.31.87-1.09 1.47-.56 2.64.15.33 1.79 2.01 2.19 2.14.83.26 4.35-.26 4.65-1.13-.47-2.49.38-2.22 1.3-4.53.27-1.63-.08-5.7-.86-7.15-1.06-1.98-2.58-1.51-4.29-2.12-3.74-3.81-11.02-3.3-13.47-8.76-1.83-5.07-.55-10.02-.66-15.18.87-1.7 2.05-3.21 2.65-5.07 1.79 4.55 3.69 5.35 3.68-.86-.05-1.6-1.39-4.66-.12-6.13 2.35-2.35 6.21-3.46 9.19-4.37.89-.44 2.93-1.85 3.72-1.35 1.5.94.31 6.56 3.25 5.7 1.08-.32 1.11-3.44 1.08-4.39-.02-.69-.71-1.98.62-1.76 4.27 1 5.06 6.6 4.85 10.23-.1.87-.84 1.43-.91 2.31-.07.8.63 1.24.24 2.11-.29.66-2.87.93-3.77 1.32-1.63 1.2-2.55 1.67-4.46 1.76-3.39 2.14-2.24-.52-2.64-2.74-.1-.39-2.2-3.39-2.54-3.49-1.39-.34-3.12.48-3.44 1.95-.81 3.76.5 7.36 2.44 10.35 4.85 3.13 12.65 3.79 15.29 10.14 1.14 2.43.57 4.49.95 6.96 1.5 2.84 1.23 7.9.7 11.15zM64.63 53.9c7.89-3.02 16.25-4.96 23.32-9.64 7.89-1.19 16.03-4.28 22.21-9.24.84-1.87-.21-5.12-.04-7.2.66-2.28 1.44-4.2 1.13-6.59.15-2.21 1.49-6.5-2.24-5.76l-.23-2.22c-2.48-.52-5.14 1.13-7.41 2.24-3.41 1.87-7.57 2.99-11.06 4.71-7.67 2.63-16.22 6.91-23.45 10.5-2.5 1.58-9.35 2.83-12.21 5.12-3.25.78-8.94 3.36-9.88 6.13-.67.41-1.67-.52-2.08-.21-.58.83.06 2.63-.46 3.31-4.78 1.5-1.77-3-5.08-1.88-5.17 2.11-12.04 4.62-16.82 6.53-3.92 2.28-7.7 3.29-11.92 4.68-.14.07-2.11 2.08-2.19 2.21-.38.62-.33 1.87-1.13 2.37-1.21.45-.85-1.94-1.32-2.06-.51 0-1.04-.05-1.53.14C-.24 59.2-.32 63.88.87 66.81c.53 2.95-.11 6.88 1.64 9.47 1.4 1 2.41-.25 3.52.02.29.07.25 1.67 2.09 1.32 1.16-.78 1.78-1.09 3.17-.97 3.97-1.97 9.51-3.37 13.6-4.67.96.17.25 1.55.27 2.17.02.46.34.76.38 1.14.32 2.67.06 3.63-.69 6.07-.59 1.92.08 1.73.32 2.97.16.85-.08 2 .06 2.96 2.22 6.26-.05 13.35.32 20 1.44 12.85.15 26.21 0 39.17.19 1.82-1.25 4.86 1.28 5.34 1.94.31.37-2.53 1.56-2.6-.05.75.03 1.66.76 2.03.52 1.1 1.65 2.82 2.19.7 0-.79-1.33-1.74-.31-3.01.84-1.04.95-.07 1.45.07 1.39.39 1.69-2.09 2.12-2.33.33-.19 1.52-.23 2.07-.57 1.36-1.99.93.54 2.37 1.05 1.05.15 1.02-.66 1.73-1.11.93-.24 1.12 1.75 2.87.81.35-.19.51-.76 1.01-.63 6.54 10.6 6.44-32.08 6.53-35.14-.16-1.36-1.44-1.87-.64-3.28 1.86-1.53.91-7.9 1.2-10.48.18-3.96.29-7.87.38-11.86.03-3.82 1.22-7.94-.45-11.55-.05-.75.51-1.3.48-2-.03-.59-.55-1.14-.55-1.7 0-1.09 1.09-1.56 1.25-2.3.14-.6.12-3.64-.05-4.21-3.64-5.68 8.32-7.71 11.86-9.79zm-11.59.65c-5.65 1.05-2.63 3.43-5.25 7.35 1.28 2.18 1.25 3.24.72 5.82-.18.86-1.34 1.61-1.29 2.47 1.88 11.12.21 24.16.16 35.95-.12.78-.92 1.54-.94 2.47 1.71 10.79-.3 23.54-1.92 34.41-2.24 6.82-3.46-7.19-4.38-8.71-1.94-3.22-2.28 2.05-2.41 3.44-.73 1.69-.76 4.83-1.29 6.34-1.4.45-1.66-3.29-2.03-4.24-.9-2.84.51-7.97-2.17-9.68-2.82 3.02-.87 11.14-2 15.44-.42.39-.83-1.33-1.03-1.51-1.05-.92-1.95.72-1.79 1.7-.96-8.56.08-18.22-.38-27.22 1.03-5.1-.68-10.09.02-15.05-.4-5.12.47-11.06.51-15.97-.81-1.11-1.47-2.4-1.28-3.81-.95-1.45-.43-2.51.34-3.82.23-.87.57-3.62.38-4.44-2.34-3.27 1.28-2.06-1.01-5.5 3.59-6.89-12.37 2.62-15.14 2.46-.79.18-1.94.12-2.66.36-.83.8-1.76.92-2.87.9-.9.2-.92 1.33-1.93.92-1.66-.69-.32-2.11-.29-3.14.23-3.07-1.59-7.38-1.97-10.26.79-.93-.04-3.61 1.77-3.25.73 2.89-1.51 3.54 1.13 5.84.59 2.81 3.88 3.94 3.41.17-.13-.83-1.15-1.65-1.12-2.25 2.24-4.13-1.91-6.09 4.9-6.79 8.52-3.79 17.32-7.52 25.93-11.16 1.13-.02 1.3 2.07 1.38 2.88.24 2.71-.34 6.45.04 9 3.8 3.79 3.3-8.52 4.19-10.42l2.08-.37c1.13-1.35.49-3.24 1.95-4.26 3.21-1.63 6.93-3.3 10.19-4.88 13.64-5.15 26.89-12.57 40.75-17.59 2.84-.98 6.63-4.34 9.49-3.62.55 2.69.03 6.74-.79 9.45-.76 3.97 2.15 9.09-3.18 10.57-5.61 3.79-12.12 5.81-18.72 6.9-9.63 6.11-21.28 8.09-31.52 13.12z" fill="#fff"/><path d="M85.05 86.55c-.19-.26-.58-2.25-.56-2.62 1.43-2.6 4.51-5.05 3.96-8.46-.1-.62-.63-1.14-.55-1.88.06-.53.65-.98.72-1.57-.36-1.64-.28-2.58.42-4.09.02-.9-.64-2.5-.73-3.61.16-3.07 0-6.8-3.51-7.79-.03-.84-1.24-2.23-1.99-2.72-1.18-.24-2.64.13-2.81 1.21-4.01-1.82-7.5 2.41-12.09 3.86-2.96.22-6.55.83-7.03 4.04 0 .3.63.91-.22 1.11-1.36.32-1.02-1.13-1.37-1.72-.1-.17-.74-.55-.88-.88l-2.42 1.13c-.32 1.09-.53 2.21-1.23 3.1-.22 1.13.44 2.7-.19 3.53-1.03.41-.27 1.43-.38 2.5-.05.5-.34.93-.37 1.33-.01.24.26 1.62.37 1.82.18.34.79.34.93.67.09.22.95 3.34.95 3.53-2.64 9.46.04 20.32-2.09 29.56 1.12 2.56.72 5.52.39 8.28.22 4.04-1.22 9.07.95 12.63 1.78.9 1.94-2.87 1.89-3.87l.58.11c.45.61-.3 6 1.82 3.9l.99-5.32c.85-.11.99 1.06 1.94.73.67-.22.47-2.07 1.35-2.22.24.71 2.11 1.84 2.64 1.12.04-.06-.06-2.1 1.78.42 2.67 2.49 2.14-8.84 2.46-10.03h.56c.53 2.56-1.52 14.65 3.58 9.79.25.57.68 2.6 1.39 2.43.93-1.03.75-2.66 1.06-3.93 3.44 4.81 3.04-2.07 3.62-4.57.19-.83 1.12-2.07.71-2.96l.58.11c2.64 7.5 3.02-2.73 3.47-3.69 1.08.6.96 2.63 1.22 3.77 3.77-2.21 1.4-15.94 1.31-20.24-.15-3.34 1.17-7.64-3.21-8.51zm-.63 22.91c-.36.81-.81-1.83-1.03-1.81-2.18-.9-1.81 7.51-3.02 6.89-.69-.3.07-8.55-2.22-7.11-.29.09-1.56 14.55-2.5 13.61-.86-.65-.7-6.81-2.35-1.61h-.57c-.19-1.92.1-3.58.1-5.55-.96-2.12-.73-3.15.02-5.27-.85-3.38 1.79-22.19-5.38-16.1-.72 2.75-.22 6.77-.12 9.71.28 3-.73 5.46-.92 8.27.13 2.04.09 17.31-1.6 8-2.96-14.63-4.28-4.75-5.46 2.84-1.03.56-.91-1.22-1.09-1.75-2.59-2.82-1.51 5.24-2.69 6.45-.4-4.68-.42-10.14.29-14.96-.23-1.3-1.45-2.78.08-3.87.39-5.17-.57-11.57-.1-16.86.18-3.54 1.86-12.06.85-14.96-3.43-7.41.24-4.19-.29-11.23 4.11-3.49 1.85 6.08 3.46 7.69 3.57 3.33 3.39-5.62 3.14-7.47-1.18-2.34-.32-3.87 2.17-4.23 1.79-.13 1.55.56 3.67-.88 2.27-.93 6.1-2.64 8.13-3.69.79-.08.98 3.39 2.91 1.16 1.14-1.32.6-3.05 2.73-1.23 2.52 2.15 1.62 3.94 1.88 6.78.15 1.63.87 4.09.52 5.61-.64 1.06-1.5 2.49-.74 3.8-1.53 5.35 2.55 2.74-3.83 9.33-.64.62-2.91 1.79-1.75 2.96 1.97.79 5.52.58 5.74 3.58.05 7.16.8 14.71-.04 21.89zM127.65 53.61c-1.04-2.43-.07-5.81-.91-8.13-1.72-1.41-2.9-3.87-4.89-4.81-.08-.59-1.16-1.99-1.87-2.17-1.22-.18-1.71 3.41-3.37 2.23-1.41-6.31-14.8 2.36-17.49 5.56 0 0 .02-.01.03-.02-3.9 6.16-7.75 13.55-7.29 20.72-.46 2.08-.96 3.21-.57 5.07-.07.37-.39.57-.48.85.92 8.58-.52 17.32-.09 26.1.52 2.94-.37 9.1 3.43 9.52 1.7 1.09.89 3.11 1.34 4.92.23.92.84 1.6.93 2.55 1.14.73 2.23.48 2.88-.71.77.62 1.39 3.01 2.65 2.08 1.57-1.62.52-5.53 2.62-6.95 3.18 2.38 2.9 1.87 4.51-1.36l2.08-.74c.81.43 1.48 1.39 2.54 1.62 1.43.87 2.19 3.23 3.41-.11.43-.09.3.04.42.24 2.92 8.34 3.86-9.83 4.1-11.16.85.03.98 1.64 1.99.96 1.21-.81 1.77-5.07 1.94-6.54.32-2.57.77-6.36-.17-8.62 1.48-1.87 1.34-6.29 1.12-8.66-.11-.8-.98-1.91-.93-2.45 2.25-2.8 1.65-7.43 1.7-10.93.13-2.99.66-6.02.38-9.05zm-3.96 2.84c-.27 5.16.14 12.71-2.28 17.13 0 .57.89 1.52 1.06 2.16.38 2.47.39 6.83-1.42 8.78 1.35 2.98.46 8.41-.47 11.57-.64 1.93-.97-.42-1.33-.93-3.43-2.15-1.45 12.46-3.57 13.92-.91-1.12-.37-7.13-1.73-7.5-2.76.31-1.54 8.83-6.08 3.27-3.73-5.67-2.31 5.97-4.8 3.67-.72-.9-1.26-2.34-1.82-3.36-2.39.3-1.71 6.9-2.71 8.83-2.73 2.55-.74-10.24-3.87-9.72-2.42 9.42-3.73-19.68-2.25-21.07.2-1.67.05-5.43-.24-7.12-.42-1.18-1.33-2.63 0-3.66.65-1.64-1.08-2.13.58-3.56.73-1.23-.11-6.89.3-8.93 3.14-7.56 6.04-14.09 13.89-18.15 2.43-1.39 8.83-4.65 8.3.51 1.28 6.24 3.78 1.7 4.11-1.85 1.71-.23 1.73 1.41 2.89 2.19 1.66 4.41.88 9.01 1.43 13.84zM200.64 37.52c-.67.19-.04 1.38.66 1.13.07-.46.04-1.32-.66-1.13zM136.63 71.81c-.68.17-.89 2.35.15 2.25.67-.06.95-2.53-.15-2.25zM29.88 103.15c-1.44-2.84-1.43 7.65 0 6.87.49-2.24-.24-4.58 0-6.87zM37.42 101.36c-1.59 5.4 2.3 6.02.52.32-.14-.25-.2-.38-.52-.32zM35.5 67.11l-.91-.02c.33.76-1.67 3.07-.67 3.38.92.12 1.93-2.88 1.57-3.36zM35.52 124.21l1.14.31-.19-3.2c-1.48-.05-.79 1.88-.95 2.89zM77.78 35.23c1.01-.49.47-1.22.48-2.12l-.28-.28h-.8c-.34.57-.45 2.67.6 2.4zM21.03 56.31c-.78-.01-.78 1.22 0 1.21.78.01.78-1.22 0-1.21z" fill="#fff"/><path d="M74.12 70.75c-.07-2.51-2.76-4.75-4.81-2.48-.64.76-.31 1.61-.48 2.44-.17.82-1.3 2.61-1.27 3.04 1.77 2.24.51 5.44 1.02 7.84.6 1.85 3.68.03 4.41-1.08.44-.68 1.2-3.66 1.18-4.49-.03-1.18-.76-1.47-.92-2.12-.22-.88.9-2.02.87-3.16zM82.26 64.53l-.58-.08-.16 1.95.91.31-.17-2.18zM61.05 87.62c.26.36.62.42 1.04.37v-.94c-.62-.01-1.08-.19-1.04.57zM115.02 62.85c-.43-6.16-8.76-3.66-11.21-.29-1.1 1.55-.81 3.6-1.26 5.15-.17.57-1.37 1.58-1.46 2.32-.1.77.37 1.09.38 1.67.01.77-.64 1.18-.59 2.07 1.13 2.31.65 5.67.58 8.3-.83 1.99-1.34 2.74-.38 4.89.38 3.16-.97 7.85 1.12 10.36 7.1 4.55 14.8-6.13 11.11-12.79 1.62-2.63 1.89-8.31.17-10.94 1.14-3.29 1.13-7.12 1.52-10.73zm-8.45-.73c.87-1.55 4.66-2.09 6.16-1.23.15.25-.25 3.75-.82 4.11-.72 0-.59-5.85-2.83-1.88-1.19-.98-1.94-.65-1.79.94-.54-.31-1.03-1.4-.73-1.95zm-1.91 2.23c.08-.27-.11-.33.38-.28-.05.68.72 2.13-.37 2.26-.26-.68-.22-1.3 0-1.98zm-.85 29.1l.84 3c-2.28 1.27-1.24-2.99-.84-3zm6.05 1.3c-.91-.44.63-4.32.92-4.5.99 1.27 1.13 4.34-.92 4.5zm3.43-11.88c-2.31 1.02.39 5.15-.25 6.25-.54 1.05-2.16.18-2.73.84-1.69 3.35-.32 4.88-4.87 4.8-.74-2.4.08-4.92-.22-7.4-1.02-2.61-1.12-2.8.2-5.12.28-2.26.46-6.64-.55-8.64.03-.47.5-.88.57-1.52.08-.74-.64-2.67.48-2.91.44-.1.64.81.66 1.1 1.52.34 1.81-1.53 2.8-2.33 1.9.71 4.41-1.91 3.96 1.5-.08 1.21-.98 4.13-.71 5.05 1.07.74.77 7.58.67 8.38zM107.35 56.31c3.45-1.39-6.78-5.18-8.29-3.12-.87 2.87 6.55 3.24 8.29 3.12zm-5.1-1.98c-.3-.11-.51.1-.41-.42l2.45.38c-.31.7-1.51.23-2.03.05zM116.48 48.66c-2.42.84-5.06 3.85-5.99 6.08.68 2.84 10.81-5.73 5.99-6.08zm-3.15 3.73c-.41-.4 1.7-2.38 2.45-1.88.34.31-1.74 2.31-2.45 1.88z" fill="#fff"/></svg>