<?xml version="1.0" encoding="UTF-8"?><svg id="logos" xmlns="http://www.w3.org/2000/svg" width="250" height="88.85" viewBox="0 0 250 88.85"><g><path d="M86.4,77.66h-7.71v-1.54h5.17c.36,0,.65-.29,.65-.65s-.29-.65-.65-.65h-9.58v-1.9h9.21c.36,0,.65-.29,.65-.65s-.29-.65-.65-.65h-9.21v-1.9h9.58c.36,0,.65-.29,.65-.65s-.29-.65-.65-.65h-10.45c-.48,0-.87,.27-.87,.88v5.93c0,.64,.39,.89,.87,.89h3.98v1.54h-7.71c-.36,0-.65,.29-.65,.65s.29,.65,.65,.65h16.71c.36,0,.65-.29,.65-.65s-.29-.65-.65-.65Z" fill="#fff"/><path d="M114.24,77.66h-16.71c-.36,0-.65,.29-.65,.65s.29,.65,.65,.65h7.71v1.56c-3.13,.16-5.41,1.48-5.41,3.19,0,1.83,2.61,3.21,6.06,3.21s6.06-1.38,6.06-3.21c0-1.71-2.28-3.03-5.41-3.19v-1.56h7.71c.36,0,.65-.29,.65-.65s-.29-.65-.65-.65Zm-3.59,6.05c0,.8-1.81,1.91-4.76,1.91s-4.76-1.11-4.76-1.91,1.81-1.91,4.76-1.91,4.76,1.11,4.76,1.91Z" fill="#fff"/><path d="M78.05,80.5c-3.46,0-6.06,1.38-6.06,3.21s2.61,3.21,6.06,3.21,6.06-1.38,6.06-3.21-2.61-3.21-6.06-3.21Zm0,5.12c-2.95,0-4.76-1.11-4.76-1.91s1.81-1.91,4.76-1.91,4.76,1.11,4.76,1.91-1.81,1.91-4.76,1.91Z" fill="#fff"/><path d="M100.08,74.82c-.36,0-.65,.29-.65,.65s.29,.65,.65,.65h11.39c.36,0,.65-.29,.65-.65s-.29-.65-.65-.65h-1.83v-4.94h1.83c.36,0,.65-.29,.65-.65s-.29-.65-.65-.65h-11.39c-.36,0-.65,.29-.65,.65s.29,.65,.65,.65h1.94v4.94h-1.94Zm3.67-4.94h4.16v4.94h-4.16v-4.94Z" fill="#fff"/><path d="M134.75,76.83c.34-.1,.54-.47,.43-.81-.1-.34-.47-.54-.81-.43-3.16,.96-6.02,.85-7.19,.74v-7.55c0-.36-.29-.65-.65-.65s-.65,.29-.65,.65v8.13c0,.32,.23,.59,.54,.64,.08,.01,.96,.15,2.35,.15,1.53,0,3.66-.17,5.97-.87Z" fill="#fff"/><path d="M138.3,68.43c0-.48-.39-.87-.87-.87s-.87,.39-.87,.87v9.56h1.73v-3.55h2.71v-1.3h-2.71v-4.71Z" fill="#fff"/><path d="M167,67.23c-.48,0-.87,.39-.87,.87v3.57h-4.84c-.36,0-.65,.29-.65,.65s.29,.65,.65,.65h4.84v3.43h-4.84c-.36,0-.65,.29-.65,.65s.29,.65,.65,.65h4.84v9.07c0,.48,.39,.87,.87,.87s.87-.39,.87-.87v-18.67c0-.48-.39-.87-.87-.87Z" fill="#fff"/><path d="M162.94,79.26c-2.39,.42-6.02,.78-7.33,.39v-10.2c0-.36-.29-.65-.65-.65s-.65,.29-.65,.65v10.61c0,.22,.11,.43,.3,.55,.59,.37,1.66,.5,2.87,.5,2.25,0,4.94-.45,5.68-.58,.35-.06,.59-.4,.53-.75-.06-.35-.4-.59-.75-.53Z" fill="#fff"/><path d="M137.06,79.35h-9.01c-.56,0-1.02,.46-1.02,1.02v4.85c0,.68,.56,1.23,1.23,1.23h9.01c.56,0,1.02-.46,1.02-1.02v-4.85c0-.68-.56-1.23-1.23-1.23Zm-.28,5.66c0,.08-.07,.15-.15,.15h-7.93c-.08,0-.15-.07-.15-.15v-4.21c0-.08,.07-.15,.15-.15h7.93c.08,0,.15,.07,.15,.15v4.21Z" fill="#fff"/></g><g><path d="M100.06,26.11h0l-.03-.13,.03,.13Z" fill="#fff"/><path d="M101.52,25.82h.01s-.02-.05-.01,0Z" fill="#fff"/><path d="M89.96,31.44h0s-.02-.02-.03-.03l.02,.03Z" fill="#fff"/><path d="M89.97,31.43c.06,.05,.09,.04,.11,0-.03-.07-.08-.03-.12-.08,.04,.02,.02,.07,.01,.08Z" fill="#fff"/><path d="M102.8,25.38s.03,.06,.04,.08h0l-.04-.08Z" fill="#fff"/><path d="M109.79,25.22v.09s.01-.06,0-.09Z" fill="#fff"/><path d="M104.73,25.23s0-.03,0-.04c-.04-.03-.13,0-.22,.03l.04,.14,.19-.13Z" fill="#fff"/><path d="M110.02,25.49c.2,.04,.04-.04-.01-.13v.07c-.13-.04-.16-.22-.23-.26v.05l.02-.02s.04,.14-.01,.13v-.02s-.13,.02-.17,.02l-.03-.15c-.02,.3-.67-.31-.79-.29-.16-.15-.25,.11-.41,.06-.24,.01-.17-.18-.32-.28-.17-.05,.07,.16,.02,.19l-.23-.16c.1-.04,.02-.12-.01-.17-.16,.01-.47-.19-.44,.11-.24-.09-.28-.2-.37-.19,.04,.04,.12,.08,.13,.14-.12-.11-.03,.04,.01,.06-.09,.15-.8-.33-.73,0l-.02-.06c.04,.24,.16,.46,.11,.61l-.09-.09-.05,.13c-.08-.06-.07-.13-.08-.16-.11,.15-.34,.08-.52,.1l.38,.58c-.19-.1-.54-.32-.5-.11-.66-.77-.14,.35-.67-.2l.14-.05c-.18-.07-.26-.12-.43-.23h0s.02,.02,.03,.04h-.02c0,.29-.29,.46-.64,.33l.03,.25-.22-.08-.07-.19c.17-.05,.46-.23,.67-.32l-.03-.09c-.25,.19-.49,.29-.54-.14v.21c-.43,.17-.42,.19-.95,.15l.07,.08c-.07,.09-.13,.18-.21,.04-.28,.07-.59,.06-.86-.1l.05,.23c-.06,0-.28-.28-.18,.03l-.08,.15c-.08,.02-.08,.16-.21,.07h0l-.03-.02v.02c-.2-.02,.09,.19-.15,.15-.13-.13,.05,.3-.07,.29-.32-.44-.29-.29-.62,.06-.17-.06-.34-.3-.36-.57,.01,.33,.03,.21-.05,.4-.07-.11-.07-.14-.08-.26-.19-.08-.03,.14-.13,.18,.07,.23,.19,.59,.17,.62l.07,.05c-.05,.16-.13,.27-.3,.21l-.04-.11-.1,.11-.07-.14-.16,.12,.04,.03s-.15,.15-.26,.11l-.03-.08c-.33-.14-.37,.25-.61,.4l-.04-.17c-.16-.12,.09,.25-.05,.22l-.1-.19c.03,.3-.14,0-.25-.07l.15,.24s-.16,.01-.17-.02c-.01-.73-.22-1.24-.29-1.97,.51-.4-.13-1.04,.16-1.48l-.19-.13c.32-.29-.05-.75,.25-1.17-.08-.1-.11-.16-.12-.18,0,.02-.05,.05-.17,.06,.09-.12-.02-.36,.23-.34l.03,.03c.25,.02-.11-.36,.1-.5l-.27,.07,.04-.23,.05,.06c-.6-.97,.24-1.43-.33-2.33,.29,.11-.16-.18,.16-.2,.39-.25-.1-.43-.22-.61-.02,0-.03,0-.06-.01l.02-.33c.41,.18-.34-.22,0-.06,.26-.88-.12-1.99-.06-3l-.1,.05c0-.25-.15-.56,0-.76,.17-.38-.84-.51-.2-.79-.07-.22-.46-.39-.34-.72,.32-.15-.43-.81-.05-.86h-.03c.22-.43-.28-.75-.1-1.2,0,0,.03,0,.06,.02l-1.27-.7c-.71,.13-1.72,.73-2.15,1.3,.69,2.39,.12,4.87,.61,7.35l.3,.26c-.48,.77,.13,1.72-.23,2.54l.25,.02c.02,.23-.14,.21-.18,.27,.06,2.12,.3,4.34-.16,6.24-.18,.17-.13,.75-.31,.88,.05,.14,.08,.27,.11,.41-.42-.29-.49,.43-.85,.3v.21c-.28-.2-.38,.26-.74,.09-.02,.1-.04,.14-.05,.15,.01,0,.05,.03,.1,.14-.1-.05-.19,.11-.28-.12v-.03c-.09-.23-.15,.2-.31,.03l.15,.22-.14,.02v-.06c-.3,.79-.88,.12-1.18,.83-.05-.3-.04,.18-.17-.11-.29-.31-.21,.18-.27,.33,0,.01,.01,.03,.02,.06l-.2,.04c-.04-.42,0,.36-.04,0-.6-.08-1.12,.46-1.74,.55l.06,.09c-.15,.03-.29,.21-.45,.1-.17-.12-.15,.33-.19,.36-.06,.21-.29-.08-.23-.08-.11,.09-.11,.48-.34,.4-.17-.29-.39,.48-.51,.12v.03c-.31-.18-.38,.32-.71,.17,0,0,0-.03,0-.06-.06,.42-.12,.85-.18,1.27,.18,.61,.78,1.62,1.28,2.02,.41-.21,.82-.41,1.22-.63,1.28,.21,2.41-.57,3.52-1.07l.06-.34c.66,.26,1.03-.52,1.67-.42l-.09-.23c.13-.07,.18,.06,.23,.09,.03,3.24-.19,6.4-.11,9.7-.23,.26,.11,2.81,.22,3.01l.29-.31c.18,.94-.1,1.38,.15,2.17l-.07-.04c-.07,.11,.62,.19-.23,1.44h-.03s.06,.04-.02,.13l.19-.21c.07,.13,.21,.25,.23,.43-.03,.04-.1,.05-.14,.05,.01,.14,.02,.29,.03,.43l-.2,.12c.1,.13,.51,.1,.26,.43,.29-.11,.16,.18,.31,.15-.04,.02-.09,.05-.14,.08,.02,.21,.06,.6,.2,.72,.11-.13,.79-.87,.98-.98-.09,.3,.03,.08,.13,.03l-.07-.02c.08-.18,.26-.17,.31-.26-.01,0-.03,0-.05,0h.02s-.05,.01-.07,0c-.04,0-.07,0-.05-.06h.02c-.02-.07,.01-.2,.03-.25h.15c-.28-.14,.47-.9,.48-1.09,.19-.18-.04-.42,.05-.65,.05-.37,.22-.19,.35-.38,.09-.24-.17,.05-.19-.04l.21-.28c.02,.16,.11,.07,.17,.04,.02-.24,.29-.64-.01-.7,.13-.33,.25-.34,.26-.48-.05,.05-.1,.14-.16,.15,.13-.14-.03-.06-.06,0-.13-.19,.5-1.06,.17-1.09h.06c-.25-.04-.48,.05-.62-.08l.1-.1-.11-.13c.07-.1,.14-.05,.17-.06-.13-.22,0-.54,.01-.82l-.65,.33c.14-.24,.43-.67,.21-.71l.22-.15c.4-.49-.21-.31-.09-.5l.23-.25v.23c.12-.24,.19-.33,.34-.53h0s-.02,.02-.04,.02v-.03c-.32-.18-.35-.63-.16-1.08l-.25-.08,.13-.28h.2c0,.26,.11,.76,.14,1.1h.09c-.06-.33-.25-.84,.27-.7l-.2-.11c-.06-.68-.07-.68,.12-1.4l-.1,.07c-.07-.14-.13-.27,.03-.32,.02-.42,.13-.86,.37-1.14l-.24-.05c.01-.09,.36-.23,.03-.26l-.11-.19c.02-.12-.12-.19,.02-.33h0l.03-.03h-.02c.1-.27-.21,0-.08-.31,.17-.1-.3-.11-.24-.26l.34-.15c.2-.27-.14-.32-.13-.72,.12-.19,.41-.27,.67-.14-.3-.18-.2-.08-.34-.32,.13-.03,.15,0,.27,.05,.16-.2-.11-.13-.1-.28-.24-.05-.62-.12-.63-.17l-.08,.06c-.12-.17-.17-.36-.04-.54h.12l-.05-.19h.15l-.03-.3-.04,.04c-.02-.07-.06-.3,.03-.42h.08c.29-.34-.04-.66-.03-1.09l.17,.07c.18-.13-.26-.06-.17-.23h.21c-.27-.17,.08-.19,.19-.28l-.28,.03c.05-.33,.34-.38,.58-.26l-.21-.17h.25c-.28-.14,.06-.11-.08-.32,.09,0,.14,.05,.19-.02l-.32-.35,.14,.2-.36-.05c-.2-.17-.06-.24-.02-.33,.02,0,.04,0,.06-.02l.03,.04s0-.03,0-.04c.11-.03,.21-.06,.28,0,.24-.45,.62-.63,1-.77v.03l.15-.12s.03,.04,.03,.06c.1-.29,.5-.23,.77-.26v.03c2-1.16,3.97-1.98,6.17-2.46,.2,.17,1.63-.47,1.73-.62l-.26-.23c.52-.32,.86-.08,1.28-.44v.07c.07,.05-.04-.63,.92,0v.03s.02-.07,.09,0l-.17-.15c.06-.09,.1-.24,.21-.29,.03,.03,.05,.09,.06,.13l.25-.1,.12,.17c.06-.12-.06-.52,.2-.33-.14-.26,.08-.19,.02-.33,.02,.03,.05,.08,.08,.12,.12-.06,.35-.19,.39-.34,0,0-.62-.49-.82-.76Z" fill="#fff"/><path d="M109.78,27.06h0c.02,.1,.02,.06,0,0Z" fill="#fff"/><polygon points="105.78 25.19 105.79 25.19 105.71 25.06 105.78 25.19" fill="#fff"/><path d="M107.83,24.54s.07-.02,.08-.06c-.11,0-.1,.02-.08,.06Z" fill="#fff"/><path d="M110.48,26.71s.02-.06-.02-.12l-.08,.04s.07,.07,.1,.09Z" fill="#fff"/><path d="M70.06,42.51s0,0,0-.01c-.04-.04-.07-.07-.09-.09l.08,.1Z" fill="#fff"/><path d="M71.51,40.59h.02s-.05-.04-.02,0Z" fill="#fff"/><path d="M62.05,38.69h0s.02,0,.03-.02l-.03,.02Z" fill="#fff"/><path d="M62.05,38.7c-.07,.06-.06,.12-.03,.18,.08,0,.06-.12,.11-.15-.03,.06-.07,0-.08-.03Z" fill="#fff"/><path d="M72.53,38.58s.06,.02,.09,.02h0l-.09-.02Z" fill="#fff"/><path d="M74.11,35.81s-.02-.02-.04-.02c-.05,.04-.11,.17-.16,.35l.14,.06,.06-.38Z" fill="#fff"/><polygon points="74.91 34.21 74.92 34.2 74.76 34.23 74.91 34.21" fill="#fff"/><path d="M75.77,30.55c.02-.06,.02-.12,0-.16-.07,.17-.05,.18,0,.16Z" fill="#fff"/><path d="M82.52,41.36h0l.13,.02-.13-.02Z" fill="#fff"/><path d="M82.37,42.93h-.01s.06,0,.01,0Z" fill="#fff"/><path d="M80.14,29.2h0s.01,0,.03-.02l-.03,.02Z" fill="#fff"/><path d="M80.23,29.22s-.07,0-.08,0c-.06,.05-.06,.09-.02,.12,.08-.01,.05-.08,.11-.11Z" fill="#fff"/><path d="M82.42,44.35s-.07,0-.09,.02h0l.09-.02Z" fill="#fff"/><path d="M80.99,51.57l-.09-.02s.05,.03,.09,.02Z" fill="#fff"/><path d="M82.05,46.33s.03,0,.04,0c.04-.04,.04-.12,.03-.24h-.15l.08,.23Z" fill="#fff"/><path d="M82.75,41.75c-.32-.09-.21-.04-.37-.19,.12-.04,.15-.02,.27,0,.13-.16-.12-.08-.13-.19-.24,0-.62,0-.64-.04l-.07,.05c-.14-.1-.21-.22-.11-.37h.12l-.08-.15,.15-.03-.07-.2-.04,.03s-.1-.2-.03-.3h.09c.24-.29-.13-.46-.2-.76l.18,.02c.16-.12-.27,0-.2-.13l.21-.03c-.29-.07,.04-.15,.14-.23l-.27,.07c.01-.28,.31-.3,.53-.28l-.23-.08,.24-.05c-.3-.04,.04-.08-.13-.2,.09-.02,.15,0,.18-.05l-.37-.18,.17,.11c-.33,.02-.53,.1-.46-.25l.11,.05c-.11-.15,.05-.18,.11-.28-.17,.11-.31,.03-.05-.06-.24,.02-.38-.08-.28-.2,.03,0,.07,0,.09,0-.04-.02-.11-.03-.05-.08h.27l-.27-.06c.03-.08-.11-.2,.1-.12v-.46l.22-.03c-.3,0,.08-.26-.28-.2,.19-.11-.19-.32,.23-.32,0-.3-.42-.41-.28-.79,.61-.58-.23-1.29-.4-1.9,.44-.35-.27-.67-.05-1.01l-.21-.05c.28-.25-.15-.49,.1-.82-.1-.05-.13-.09-.14-.1,0,.01-.04,.04-.16,.07,.07-.09-.06-.24,.18-.27l.03,.02c.25-.03-.15-.22,.04-.35l-.25,.09,.02-.16,.06,.03c-.69-.55,.09-.99-.55-1.51,.3,.03-.17-.09,.14-.16,.36-.22-.14-.27-.26-.38-.02,0-.03,0-.06,0v-.23c.42,.06-.36-.1,0-.04,.19-.63-.25-1.32-.25-2.01l-.1,.05c-.01-.17-.18-.36-.04-.52,.14-.16-.31-.23-.34-.27-.2-.1,.12-.3,.11-.24-.08-.14-.46-.21-.35-.45,.32-.14-.44-.5-.07-.58h-.03c.21-.32-.29-.47-.12-.81,0,0,.03,0,.06,0l-1.26-.33c-.62,.15-1.68,.68-2.12,1.15l.5,1.29c-.37,1.19,.16,2.4,.41,3.56-.11,.41-.27,.2-.44,.37-.15,.24,.18-.01,.17,.09l-.27,.26c.02-.18-.09-.11-.15-.09-.09,.26-.45,.62-.18,.77-.22,.33-.34,.3-.39,.45,.07-.04,.14-.13,.2-.12-.16,.11,.02,.08,.06,.02,.07,.25-.81,1-.5,1.12l-.06-.02c.22,.11,.48,.09,.57,.28l-.13,.07,.06,.18c-.11,.08-.15,.01-.18,0,.04,.28-.19,.59-.3,.88l.73-.14c-.22,.22-.65,.59-.46,.7l-.26,.09c-.57,.38,.07,.4-.12,.57l-.31,.18,.08-.25c-.2,.21-.3,.29-.52,.44h0s.03-.01,.04,0v.04c.22,.32,.04,.8-.32,1.19l.2,.18c-.08,.08-.16,.16-.25,.24l-.19-.07c.12-.28,.23-.85,.35-1.22l-.08-.04c-.08,.34-.1,.98-.55,.63l.14,.2c-.24,.73-.25,.73-.74,1.4l.12-.03c0,.17-.02,.33-.18,.31-.22,.42-.52,.83-.89,.99l.18,.16c-.06,.08-.44,.06-.17,.25v.24c-.07,.12,0,.29-.22,.34h.02c-.23,.23,.19,.1-.09,.35-.2,.02,.2,.25,.07,.37h-.38c-.32,.17-.05,.38-.27,.77-.22,.12-.52,.06-.66-.19,.16,.32,.13,.18,.12,.47-.13-.03-.14-.07-.2-.18-.25,.11,.02,.18-.07,.32,.18,.17,.47,.42,.45,.48l.1-.02c0,.22-.04,.44-.27,.54l-.09-.07-.08,.22-.13-.08-.15,.29h.06c-.03,.06-.13,.3-.28,.37l-.07-.06c-.44,.17-.39,.62-.66,1.01l-.09-.16c-.23,.01,.18,.21,0,.3l-.17-.13c.11,.32-.18,.13-.34,.14l.25,.15c-.24,.24-.53,.13-.64-.14l.05,.27-.2-.15c.13,.28-.11,.05-.14,.31-.08-.05-.08-.13-.16-.1l.02,.49,.03-.26,.24,.27c.05,.35-.23,.18-.26,.35v-.15c-.11,.22-.22,.12-.37,.14,.22,.06,.19,.24-.03,.09,.15,.19,.11,.39-.06,.38-.02-.03-.04-.06-.04-.08,0,.05,.02,.11-.06,.1l-.14-.23,.07,.27c-.1-.02-.07,.19-.16,.04v-.06c-.14,.07-.27,.11-.38,.13l-.08-.2c.07,.29-.15-.06-.04,.28-.08-.18-.14,.16-.15-.25-.08,.04-.25,.34-.4,.06-.1-.82-1.14-.75-1.61-1.47,.22-.55-.61-.74-.52-1.26l-.23-.04c.19-.37-.32-.67-.14-1.16-.11-.08-.15-.12-.16-.14,0,.02-.03,.06-.15,.1,.05-.14-.12-.35,.13-.39l.03,.02c.24-.04-.2-.33-.02-.51l-.24,.13v-.24l.06,.05c-.78-.88-.03-1.49-.67-2.4,.3,.1-.17-.18,.14-.22,.37-.28-.12-.44-.25-.64-.02,0-.03,0-.06-.01,0-.12,.01-.24,.02-.36,.41,.19-.34-.24,0-.06,.24-.93-.06-2.13,.17-3.19l-.11,.04c.04-.27-.05-.62,.14-.8,.21-.3-.66-.83,0-.87-.02-.24-.33-.53-.12-.84,.35-.04-.14-.97,.24-.9h-.03c.36-.36,.02-.88,.39-1.26,0,0,.02,.02,.04,.04-.29-.41-.55-.83-.81-1.28-.93-.22-1.76-.06-2.57,.45-.54,3.17-1.6,6.2-.97,9.47l.32,.33c-.42,1.05,.34,2.19,.2,3.26l.25-.03c.08,.29-.08,.3-.1,.38,.87,3.39,3.15,7.27,6.86,8.1,1.28-.21,2.44-.79,3.38-1.48v.04c.1-.11,.21-.22,.31-.32,.03,0,.05,.02,.05,.05,.25-.49,.87-.83,1.29-1.16v.04c3.04-3.48,4.89-7.56,6.69-11.78,0,.13,0,.26-.08,.32,.36,.38,.41,.84,.44,1.27h-.03l.07,.18s-.05,.02-.07,.01c.25,.2,.07,.58,.02,.87h-.03c.51,2.45,.67,4.73,.59,7.22-.23,.18,.07,1.9,.2,2.05l.29-.22c.18,.64-.11,.96,.17,1.51l-.07-.03c-.07,.08,.61,.1-.17,1.03h-.03s.07,.03-.01,.1l.18-.16c.08,.09,.23,.16,.25,.29-.03,.03-.09,.04-.14,.04l.06,.3-.19,.1c.11,.09,.52,.03,.3,.29,.28-.11,.18,.12,.32,.08-.03,.01-.09,.04-.13,.07,.04,.15,.13,.42,.28,.49,0,0,.58-.6,.87-.77-.07,.21,.04,.05,.13,0h-.07c.06-.14,.24-.15,.29-.21h-.03s-.14,.03-.13-.02h.02s0-.14,0-.18h.15c-.29-.09,.41-.65,.41-.78,.18-.14-.06-.28,.02-.44,.03-.25,.21-.14,.33-.27,.09-.16-.17,.04-.19-.02l.2-.2c.02,.11,.11,.04,.17,.02,.02-.16,.28-.44-.02-.47,.13-.23,.25-.24,.26-.33-.05,.04-.1,.1-.16,.1,.13-.1-.03-.04-.06,0-.14-.13,.5-.73,.17-.74h.06c-.25-.02-.48,.05-.62-.04l.11-.07-.11-.09c.08-.07,.14-.04,.17-.04-.12-.15,0-.37,.02-.56l-.65,.24c.14-.17,.44-.47,.22-.49,.91-.47-.3-.25,.37-.63v.16c.12-.17,.19-.24,.34-.37h0s-.02,.01-.04,.02v-.02c-.28-.08-.36-.42-.15-.74l-.25-.04,.13-.2,.2-.02c0,.19,.1,.53,.13,.77h.09c-.11-.3-.16-.58,.28-.5l-.2-.07c-.06-.47-.07-.47,.11-.99l-.1,.05c-.07-.09-.13-.19,.03-.23,0-.3,.11-.62,.34-.83l-.24-.02c0-.06,.35-.19,.02-.19l-.12-.12c0-.09-.13-.13,0-.24h0l.03-.02h-.02c.08-.2-.21,.02-.1-.21,.16-.09-.3-.05-.26-.16,.53-.18,.35-.21,.13-.64,.11-.15,.39-.24,.65-.18Z" fill="#fff"/><path d="M79.18,51.22h0c-.1,0-.06,0,0,0Z" fill="#fff"/><polygon points="81.82 47.41 81.82 47.42 81.96 47.37 81.82 47.41" fill="#fff"/><path d="M82.01,49.67s0,.07,.04,.09c.03-.11,0-.11-.04-.09Z" fill="#fff"/><path d="M79.41,52.06c0,.06,.06,.03,.12,0l-.02-.09s-.08,.06-.1,.1Z" fill="#fff"/><path d="M97.63,36.42s0,0,0,.01l.12,.03-.13-.04Z" fill="#fff"/><path d="M97.28,38.55h-.01s.06,.01,.01,0Z" fill="#fff"/><path d="M97.76,18.36h0s.02,0,.03-.02l-.03,.02Z" fill="#fff"/><path d="M97.85,18.4c-.03,.05-.07-.01-.08-.03-.07,.06-.07,.11-.03,.17,.08,0,.06-.11,.12-.14Z" fill="#fff"/><path d="M97.25,40.55s-.07,0-.09,.01h.09Z" fill="#fff"/><path d="M95.7,50.98l-.08-.05s.02,.04,.04,.05c.02,0,.03,0,.05,0Z" fill="#fff"/><path d="M96.88,43.36s.03,0,.04,0c.04-.05,.04-.18,.02-.34h-.15l.08,.33Z" fill="#fff"/><path d="M93.93,50.28h0c-.1-.01-.07,0,0,0Z" fill="#fff"/><polygon points="96.67 44.93 96.67 44.95 96.81 44.87 96.67 44.93" fill="#fff"/><path d="M96.86,48.26c0,.06,0,.11,.04,.14,.03-.16,0-.17-.04-.14Z" fill="#fff"/><path d="M94.07,51.48c-.01,.08,.05,.05,.12,.01v-.13s-.09,.08-.12,.12Z" fill="#fff"/><path d="M95.51,51.26l.08,.03s-.05-.05-.08-.03Z" fill="#fff"/><path d="M47.94,41.63s0,0,0-.02c-.04-.02-.08-.05-.11-.07l.11,.08Z" fill="#fff"/><path d="M48.77,38.97l.02-.02s-.06,0-.02,.02Z" fill="#fff"/><path d="M39.76,36.86h0s.02,0,.03-.01h-.04Z" fill="#fff"/><path d="M39.83,36.93c-.05,.06-.07-.03-.07-.06-.08,.06-.1,.13-.08,.2,.08,.01,.09-.12,.15-.14Z" fill="#fff"/><path d="M48.98,36.35s.07,0,.09-.02h0l-.09,.02Z" fill="#fff"/><path d="M46.16,24.79l.03-.1s-.04,.03-.05,.05c0,.01,.01,.03,.02,.04Z" fill="#fff"/><path d="M49.23,32.58s-.03,0-.04,0c-.03,.07-.02,.24,.01,.46h.15l-.12-.45Z" fill="#fff"/><path d="M44.45,24.04v0Z" fill="#fff"/><path d="M44.45,24.13v-.07c0,.12-.01,.23-.02,.3,0,0,.02-.08,.02-.23Z" fill="#fff"/><path d="M52.74,32.08c.23-.37-.6-4.03-.81-4.34l-.21,.48c-.42-1.43-.32-2.56-1.14-3.79l.1,.06c-.63-.73-1.43-1.82-2.64-2.07v-.03c-.11,0-.12,.06-.34,0,.19,.05,.36,.11,.53,.19-.32-.03-.94,.5-1.21,.18-.33,.07-.73,.18-1.04,.28l-.24-.14c-.16,.15,.02,.53-.52,.43,.25,.23-.19,.22-.1,.35-.03-.03-.1-.07-.15-.11-.16,.08-.45,.12-.53,.28,0,0,0,.12,0,.16,.17,.22,1.02,.44,1.26,.58-.43,.03-.1,.06,0,.13v-.08c.27,0,.32,.18,.46,.19,0-.01-.01-.03-.02-.05v.03s-.03-.05-.02-.07c-.01-.04,0-.07,.06-.08v.02c.09-.05,.28-.07,.37-.08l.03,.15c.17-.36,1.17,.16,1.33,.26,.5,.2,.76,.5,.43,1.02,0,.26,.13-.16,.17-.09-.02,.13-.05,.26-.09,.37-.06-.13-.12,0-.16,.05,.04,.2-.15,.56,.17,.61-.04,.44-.16,.47-.14,.65,.04-.07,.06-.2,.12-.22-.09,.2,.05,.07,.06,0,.19,.23-.25,1.48,.08,1.47h-.06c.25,.02,.47-.12,.64,.04l-.08,.15,.14,.17c-.05,.14-.13,.09-.16,.1,.17,.28,.12,.73,.15,1.1l.59-.51c-.09,.34-.31,.96-.08,.98l-.19,.22c-.32,.69,.25,.41,.16,.67l-.2,.35-.04-.31c-.08,.33-.14,.46-.27,.73h0s.02-.03,.03-.03v.04c.37,.27,.41,.84,.26,1.44l.26,.1-.12,.38-.2,.02c-.01-.36-.16-1.03-.22-1.49h-.09c.06,.37,.37,1.1-.21,.95l.21,.15c.09,.9,.11,.92-.09,1.86l.1-.08c.06,.18,.12,.37-.04,.42-.03,.56-.17,1.14-.44,1.47l.23,.09c-.02,.12-.38,.26-.06,.34,.05,.22,.19,.46,.02,.69h0s-.02,.02-.03,.03c0,0,.01,0,.02,0-.15,.34,.21,.02,.03,.41-.18,.11,.27,.19,.19,.38-.96,.04,.21,1.76-1.09,1.15,.25,.28,.17,.14,.25,.47-.14,.01-.15-.02-.25-.12-.21,.21,.07,.18,.01,.37,.22,.12,.56,.29,.56,.36l.09-.06c.07,.24,.05,.49-.14,.69l-.11-.05-.03,.27-.15-.04c-.03,.12-.05,.25-.09,.37l.06-.03c-.02,.09-.07,.38-.21,.5l-.08-.04c-.43,.31-.27,.8-.51,1.29l-.12-.15c-.24,.07,.21,.18,.03,.32l-.19-.1c.14,.31-.18,.18-.34,.23l.27,.1c-.19,.3-.51,.24-.66-.01l.09,.26-.22-.12c.16,.26-.1,.07-.1,.31-.08-.05-.09-.12-.17-.09,.03,.16,.04,.31,.06,.47v-.25l.27,.25c.06,.34-.22,.18-.25,.35v-.15c-.11,.22-.22,.12-.36,.13,.22,.07,.18,.25-.03,.09,.14,.19,.09,.4-.08,.37-.02-.03-.03-.06-.04-.08,0,.05,.01,.12-.06,.09l-.11-.24c.02,.09,.03,.18,.04,.27-.09,.01-.16,.16-.15-.05-.14,.04-.27,.06-.37,.05l-.03-.21c0,.3-.14-.1-.14,.26-.08-.19-.33,.07-.2-.3-.26-.1-.64,.19-1.17-.28-.46-.95-1.94-.9-2.59-1.57,.17-.56-.67-.74-.56-1.29l-.23-.06c.19-.43-.29-.82-.05-1.29-.1-.1-.14-.16-.15-.19,0,.02-.04,.06-.16,.09,.07-.15-.07-.42,.18-.42l.03,.03c.25,0-.15-.41,.06-.58l-.26,.1,.03-.27,.05,.07c-.6-1.12,.28-1.83-.12-2.92,.27,.19-.12-.25,.2-.22,.43-.23,0-.54-.07-.8-.02,0-.03,0-.05-.03l.11-.41c.34,.32-.26-.36,.02-.07,.5-1.01,.59-2.47,1.19-3.62l-.12,.02c.13-.29,.17-.72,.42-.88,.29-.26-.28-1.16,.32-.99,.08-.28-.12-.69,.21-.98,.35,.04,.27-1.12,.6-.94l-.03-.02c.5-.29,.38-.95,.91-1.27,0,0,.02,.02,.03,.06-.1-.54-.17-1.07-.23-1.63-.4-.17-.81-.34-1.22-.51-.5,.08-1,.17-1.49,.28-1.9,3.35-4.05,6.56-4.35,10.53,.07,.16,.14,.31,.22,.46-.69,1.18-.22,2.65-.56,3.93l.25,.02c-.77,4.57,3.47,8.1,7.24,9.8,1.4,.14,3.12-.11,4.28-.86l-.03,.05c.17-.12,.33-.25,.48-.39,.03,0,.05,.02,.05,.05,.41-.57,1.21-1.11,1.72-1.66v.05c3.11-4.65,3.55-10.57,3.09-16Z" fill="#fff"/><path d="M47.02,22.75h.02c0-.11-.04-.06-.02,0Z" fill="#fff"/><polygon points="49.21 30.46 49.21 30.44 49.08 30.55 49.21 30.46" fill="#fff"/><path d="M48.27,26.37s-.03-.08-.07-.08c.01,.13,.04,.12,.07,.08Z" fill="#fff"/><path d="M44.96,23.44c-.1,.01-.05,.07,.03,.12,.1-.04,.17-.06,.17-.06-.06-.01-.13-.05-.19-.06Z" fill="#fff"/><path d="M45.72,24.71v.09s.04-.07,0-.09Z" fill="#fff"/><path d="M5.74,43.63s0,.02,0,.03c.05,.01,.1,.03,.14,.04l-.14-.07Z" fill="#fff"/><path d="M6.4,48.57v.03s.05-.01,0-.03Z" fill="#fff"/><path d="M12.62,6.59v.02s.02-.01,.05-.01h-.05Z" fill="#fff"/><path d="M12.61,6.72c-.1,.05-.03-.07,0-.11-.13,.03-.22,.11-.28,.21,.05,.05,.21-.11,.29-.1Z" fill="#fff"/><path d="M8.62,50.56s-.02,.07-.02,.09h.01v-.09Z" fill="#fff"/><path d="M13.26,51.35s0-.03,0-.04c-.1,.01-.29,.13-.54,.25l.05,.14c.17-.1,.34-.21,.5-.35Z" fill="#fff"/><polygon points="15.74 49.36 15.77 49.33 15.56 49.35 15.74 49.36" fill="#fff"/><path d="M19.85,43.26c.06-.11,.11-.21,.11-.29-.19,.29-.17,.31-.11,.29Z" fill="#fff"/><path d="M26.45,46.35h0l.13,.02-.13-.02Z" fill="#fff"/><path d="M26.16,47.6h-.01s.06,0,.01,0Z" fill="#fff"/><path d="M25.79,36.31h0s.02,0,.03,0h-.03Z" fill="#fff"/><path d="M25.8,36.32c-.07,.03-.07,.06-.04,.09,.08,0,.07-.06,.12-.07-.04,.03-.07,0-.08-.02Z" fill="#fff"/><path d="M26.11,48.76s-.07,0-.09,0h.09Z" fill="#fff"/><path d="M24.41,54.64l-.09-.02s.05,.02,.09,.02Z" fill="#fff"/><path d="M25.62,50.35s.03,0,.04,0c.04-.03,.05-.1,.04-.19h-.15l.07,.19Z" fill="#fff"/><path d="M22.6,54.35h0c-.1,0-.06,0,0,0Z" fill="#fff"/><polygon points="25.34 51.23 25.34 51.24 25.49 51.2 25.34 51.23" fill="#fff"/><path d="M25.46,53.07s0,.06,.04,.08c.03-.09,0-.09-.04-.08Z" fill="#fff"/><path d="M22.83,55.06s.06,.03,.12,0l-.02-.08s-.08,.06-.1,.08Z" fill="#fff"/><path d="M28.12,28.55h0l-.02-.13,.02,.13Z" fill="#fff"/><path d="M29.13,28.6h0s-.01-.05,0,0Z" fill="#fff"/><path d="M20.89,31.38h0l-.02-.03,.02,.03Z" fill="#fff"/><path d="M20.88,31.3s.02,.07,.01,.08c.04,.06,.07,.06,.08,.02-.02-.07-.06-.05-.09-.1Z" fill="#fff"/><path d="M30.01,28.44s.02,.06,.03,.09h0l-.03-.09Z" fill="#fff"/><path d="M34.79,29.2v.09s.01-.06,0-.09Z" fill="#fff"/><path d="M31.32,28.65v-.04s-.09-.03-.16,0l.03,.15,.13-.1Z" fill="#fff"/><path d="M34.95,29.34v.07c-.08-.05-.13-.22-.18-.26v.02s.05,.13,.02,.13v-.02s-.09,.02-.12,.01l-.04-.15c0,.29-.48-.33-.56-.32-.12-.17-.16,.09-.28,.02-.16,0-.13-.19-.24-.3-.12-.07,.06,.17,.02,.19l-.16-.17c.06-.03,0-.11-.02-.17-.11,0-.33-.23-.29,.07-.17-.11-.2-.22-.26-.22,.03,.05,.08,.09,.1,.15-.09-.12-.02,.04,.01,.06-.05,.15-.56-.42-.5-.1v-.06c.03,.24,.11,.47,.09,.61l-.06-.1-.03,.12c-.06-.07-.05-.14-.06-.16-.07,.13-.23,.03-.35,.03l.28,.62c-.13-.13-.38-.39-.35-.17l-.11-.2c-.3-.37-.09,.22-.2,.11l-.16-.21,.1-.02c-.13-.1-.18-.16-.3-.3h0s.01,.03,.02,.04h-.01c.02,.25-.18,.41-.43,.21l.02,.25-.15-.11-.05-.19c.12-.02,.31-.15,.45-.19l-.02-.09c-.09,.02-.16,.13-.22,.13-.04-.03-.16-.21-.14-.36v.2c-.29,.1-.28,.11-.64-.03l.05,.09c-.04,.07-.09,.14-.15,0-.19,.02-.41-.06-.59-.27l.04,.23s-.19-.33-.12,0l-.05,.12c-.06,0-.05,.13-.15,.02h0l-.02-.02v.02c-.14-.07,.06,.2-.11,.11-.09-.15,.03,.3-.05,.27-.2-.37-.14-.46-.43-.08-.11-.09-.23-.36-.24-.62,0,.32,.02,.2-.04,.37-.05-.12-.05-.15-.05-.26-.13-.12-.02,.13-.09,.14,.04,.24,.12,.61,.11,.63l.05,.06c-.04,.14-.1,.22-.21,.13l-.03-.12-.07,.08-.05-.15-.11,.08,.03,.04s-.11,.11-.18,.04l-.02-.08c-.23-.21-.26,.16-.43,.24l-.02-.17c-.11-.15,.06,.26-.04,.2l-.06-.21c.01,.29-.1-.03-.17-.12l.1,.26c-.22-.02-.24-.31-.28-.5v.23l-.08-.23c.03,.29-.06-.03-.1,.14-.03-.09-.03-.15-.07-.18l-.04,.37,.04-.17c.02,.19,.23,.55-.07,.46v-.12c-.06,.11-.11-.03-.19-.1,.1,.15,.08,.3-.03,.06,.06,.23,.03,.38-.07,.29,0-.03-.02-.07-.02-.09,0,.04,0,.1-.04,.06l-.06-.26,.02,.26c-.06-.04-.09,.15-.1-.09l-.29,.02-.06-.2c.06,.29-.18-.06-.07,.29-.11-.18-.16,.2-.25-.21-.19,.02-.17,.43-.45,.31-.18-.31-.36-.14-.51-.13-.23,.22-.37,.4-.61,.6-.31-.42-.37,.29-.63,.08v.2c-.2-.26-.27,.16-.53-.08-.02,.09-.03,.13-.04,.14,.01,0,.03,.04,.07,.16-.06-.05-.19,.03-.2-.2-.07-.24-.11,.16-.23-.03l.11,.24h-.1v-.07c-.21,.69-.64-.06-.85,.57-.04-.29-.03,.17-.13-.13-.22-.35-.15,.14-.19,.26,0,.02,0,.03,.01,.06h-.15c-.04-.4,0,.35-.03,0-.44-.17-.8,.27-1.24,.27l.05,.09c-.11,.02-.19,.18-.32,.05-.13-.13-.09,.3-.11,.33-.03,.2-.22-.11-.18-.11-.07,.08-.04,.45-.22,.35-.15-.31-.23,.43-.36,.07v.03c-.24-.2-.24,.29-.49,.11,0,0,0-.03,0-.05-.15,1.12,.46,2.44,1.19,3.27l.74-.49,.78,.17,1.36-.57,.07,1.47,.29,.16c-.51,.43,.06,1-.3,1.47h.25c.01,.14-.14,.13-.18,.17,.02,.59,.11,1.19,.16,1.77-.94,.87-.93,2.35-1.96,2.79-.32,.41,.2-.01,.12,.18l-.47,.45c.15-.33-.02-.2-.1-.17-.28,.45-.93,1.03-.77,1.32-.49,.54-.6,.47-.78,.72,.1-.06,.26-.2,.31-.17-.27,.17-.05,.13,.04,.05-.12,.45-1.71,1.58-1.51,1.83l-.05-.04c.14,.23,.43,.23,.36,.56l-.21,.1-.1,.31c-.19,.12-.18,0-.2-.02-.21,.47-.76,.95-1.17,1.4l.93-.09c-.45,.32-1.28,.83-1.19,1.04-.37,0-1.04,.4-.96,.57,.1,.37-.4,.37-.66,.44,.12-.09,.24-.2,.36-.3-.43,.22-.63,.26-1,.31h0s.04,0,.05,.02l-.05,.04c-.14,.52-1.11,.88-1.71,.67-.05,.09-.1,.17-.16,.25-.17-.05-.33-.11-.5-.18l.02-.2c.52,.1,1.31-.08,1.79-.34l-.03-.09c-.36,.21-1.21,.6-1.05-.03-.05,.07-.11,.14-.17,.21-1.18-.04-1.24-.14-2.35-.81l.07,.14c-.29-.06-.58-.14-.59-.33-.51-.31-1.55-.81-1.62-1.39l-.2,.14c-.06-.08,.21-.32-.08-.17-.05-.02-.11-.06-.18-.12-.04-.14-.21-.21-.14-.48h0s0-.04,.01-.05h-.02c-.04-.55-.21,.07-.22-.6,.12-.26-.34-.19-.36-.56,.86-.48-1.1-2.84,.36-2.54-.38-.34-.23-.14-.48-.65,.11-.1,.15-.05,.28,.04,.06-.5-.17-.27-.23-.63-.25-.06-.65-.11-.69-.23l-.05,.15c-.19-.36-.32-.76-.28-1.22h.12l-.14-.46,.15-.05-.15-.66-.03,.1c-.04-.15-.18-.66-.14-.97h.09c.14-.87-.3-1.51-.44-2.48l.19,.11c.13-.35-.28-.06-.24-.47l.21-.04c-.32-.32,.01-.46,.09-.71l-.27,.14c-.04-.38,.07-1.06,.49-.74l-.25-.32,.24-.09c-.31-.22,.03-.25-.16-.67,.09-.04,.15,.06,.18-.09-.13-.23-.28-.46-.4-.68l.19,.42-.37-.03c-.31-.43,0-.61-.12-.92l.12,.21c-.12-.52,.03-.55,.1-.85-.21,.32-.29-.04-.06-.21-.24-.02-.38-.4-.28-.74,.03,0,.07,0,.09,.03-.04-.09-.11-.13-.05-.28l.27,.08-.26-.28c.06-.19-.13-.47,.05-.45l.05,.11,.06-1.46,.21-.02c-.29-.15,.13-.79-.24-.75,.21-.16-.14-1.05,.3-.91,.07-1.01-.27-1.56,.03-2.62,.89-1.7,.5-4.08,1.02-6.02,.72-.72,.48-2.18,1.1-2.95l-.09-.31c.51-.47,.55-1.5,1.21-2.17,.02-.23,.05-.34,.07-.39-.03,.03-.09,.07-.21,.03,.19-.18,.33-.69,.53-.54v.07c.23,.06,.31-.82,.58-.86h-.31l.28-.39-.02,.14c.4-1.81,1.92-2.52,2.64-4.16,.04,.38,.15-.38,.4-.19,.61-.07,.53-.7,.76-1.07-.01-.01-.02-.03-.02-.06l.54-.45c-.03,.58,.14-.59,.09-.08,1.38-.62,2.65-2.8,4.27-2.19l-.05-.12c.41,.16,1.17,.29,1.51,.6,.45,.32,1.79-.02,1.56,.54,.4,.15,.97,.05,1.35,.54-.1,.29,1.3,.79,.99,1.13h.03c.11,.65,.76,1.17,.51,1.87,0,0-.03-.01-.05-.03,.38,.43,.66,1.02,.61,1.76,.44,.1,.93,.14,1.42,.08C29.67,5.63,20.51-.11,16.1,0c-2.7,.6-5.5,2.79-6.86,5.1-1.81,1.15-2.71,3.34-4.07,4.93l.19,.16C1.78,15.15,1.15,21.85,0,27.6c.21,1.53,.2,3.13,.22,4.66l-.03-.06,.07,.71s-.05,.04-.07,.01c.25,.79,.11,2.06,.12,3.05l-.03-.05c.85,5.46,1.09,11.05,3.49,15.99,5.59,6.13,13.62,3.23,16.67-3.49-.22,.14-.44,.28-.66,.42,.94-1.49,1.59-2.22,2.33-3.59,.33,1.78,.05,3.43-.03,5.21-.24,.14-.01,1.61,.11,1.73l.3-.18c.16,.54-.13,.81,.13,1.27l-.07-.02c-.07,.07,.61,.08-.19,.87h-.03s.07,.02-.01,.08l.18-.14c.08,.08,.23,.14,.25,.24-.03,.02-.09,.03-.14,.04l.06,.25-.19,.09c.11,.07,.52,.02,.3,.24,.28-.09,.18,.1,.32,.06-.03,.01-.09,.04-.13,.06,.04,.12,.13,.35,.28,.4,0,0,.58-.51,.88-.65-.07,.18,.04,.04,.13,0h-.07c.07-.12,.24-.12,.29-.18h-.03s-.14,.03-.13-.02h.02s0-.11,0-.15h.15c-.29-.07,.41-.54,.42-.65,.19-.11-.06-.23,.03-.36,.04-.21,.22-.11,.34-.22,.09-.13-.17,.03-.19-.02l.2-.16c.02,.09,.11,.04,.17,.02,.02-.13,.29-.36-.01-.39,.14-.19,.26-.19,.27-.27-.05,.03-.1,.08-.16,.08,.13-.08-.03-.03-.06,0-.13-.11,.53-.59,.2-.6h.06c-.25-.02-.48,.03-.62-.04l.11-.06-.11-.07c.08-.05,.14-.03,.17-.03-.12-.12,.01-.3,.04-.46l-.66,.18c.15-.13,.46-.38,.24-.4,.93-.37-.3-.2,.4-.5v.13c.12-.13,.2-.19,.35-.29h0s-.02,.01-.04,.01v-.02c-.26-.06-.35-.35-.11-.61l-.25-.04,.14-.16h.2c0,.15,.08,.43,.09,.62h.09c0-.11-.1-.24-.08-.32,.04-.04,.24-.14,.38-.07l-.2-.07c-.03-.38-.04-.39,.17-.79l-.1,.04c-.06-.08-.12-.16,.04-.18,.03-.24,.15-.5,.39-.66l-.24-.03c.01-.05,.36-.14,.04-.15l-.11-.11c.02-.07-.12-.11,.01-.19h0l.03-.02h-.02c.1-.16-.21,0-.08-.18,.17-.06-.3-.06-.25-.15,.5-.13,.42-.09,.18-.51,.12-.11,.4-.17,.66-.1-.31-.1-.2-.04-.35-.17,.13-.02,.15,0,.27,.02,.15-.12-.12-.07-.11-.16-.24-.02-.62-.05-.64-.07l-.07,.04c-.13-.09-.19-.2-.07-.31h.12l-.06-.11h.15l-.05-.18-.04,.02s-.08-.17,0-.24h.09c.26-.21-.09-.38-.12-.62l.17,.03c.17-.09-.27-.02-.18-.12h.21c-.28-.09,.06-.12,.16-.18l-.28,.03c.06-.25,.35-.21,.56-.18l-.22-.08,.25-.02c-.29-.06,.05-.06-.11-.17,.09,0,.15,.02,.19-.02l-.35-.18,.16,.11c-.26-.03-.55,.08-.43-.24l.11,.05c-.09-.13,.06-.14,.14-.21-.18,.08-.31,0-.05-.05-.24,0-.37-.1-.26-.19,.03,0,.07,0,.09,0-.04-.02-.1-.03-.04-.07l.27,.02-.26-.07c.05-.06-.1-.17,.11-.09l.06-.37h.21c-.3-.04,.11-.21-.26-.19,.2-.07-.14-.27,.27-.23,.03-.24-.37-.37-.17-.67,.35-.11,.24-.39,.27-.58-.15-.37-.28-.61-.39-.99,.49-.23-.17-.57,.11-.81l-.2-.07c.31-.16-.07-.41,.24-.64-.09-.06-.11-.09-.12-.1,0,.01-.05,.03-.17,.03,.09-.06-.02-.2,.23-.19l.03,.02c.25,.01-.11-.2,.1-.27l-.27,.04,.05-.12,.05,.03c-.59-.54,.26-.78-.27-1.29,.29,.07-.15-.1,.17-.1,.4-.12-.08-.24-.19-.34-.02,0-.03,0-.06,0l.04-.18c.4,.11-.33-.14,0-.03,.31-.47,.01-1.09,.16-1.64l-.1,.02c.02-.14-.1-.31,.07-.42,.17-.1-.26-.24-.27-.28-.18-.12,.18-.22,.16-.17-.02-.04-.07-.09-.13-.14,.12-.01,.24-.02,.36-.01,.12,.13,.33-.03,.44,.12,.17-.37,.45-.44,.71-.49v.03l.11-.08s.02,.05,.02,.07c.08-.25,.35-.1,.55-.07v.03c1.46-.64,2.86-.95,4.41-1.08,.16,.21,1.17-.23,1.24-.37l-.2-.26c.36-.23,.62,.02,.9-.3v.07c.06,.06-.07-.61,.67,.06v.03s.01-.07,.07,0l-.14-.16c.04-.09,.05-.24,.13-.28,.02,.03,.04,.09,.06,.13l.17-.09,.1,.18c.03-.12-.09-.51,.12-.32-.12-.26,.04-.18-.02-.32,.02,.03,.05,.08,.07,.12,.08-.05,.23-.17,.24-.32,0,0-.49-.5-.66-.77,.15,.04,.03-.04-.02-.13Z" fill="#fff"/><path d="M34.94,31.01h0c.02,.1,.02,.06,0,0Z" fill="#fff"/><polygon points="32.04 28.78 32.05 28.78 31.99 28.64 32.04 28.78" fill="#fff"/><path d="M33.4,28.39s.04-.01,.05-.05c-.07-.02-.07,0-.05,.05Z" fill="#fff"/><path d="M35.42,30.69s0-.06-.03-.12l-.05,.03s.06,.07,.08,.09Z" fill="#fff"/><path d="M134.29,48.04h0l.14-.08-.14,.08Z" fill="#fff"/><path d="M134,48.69v.02s.05-.09,0-.02Z" fill="#fff"/><path d="M136.31,15.52h0s.02,0,.03-.02l-.03,.02Z" fill="#fff"/><path d="M136.39,15.58c-.04,.07-.07-.02-.08-.05-.07,.08-.07,.16-.04,.24,.08,0,.07-.16,.12-.19Z" fill="#fff"/><path d="M134.61,48.51s.01,.07,.02,.09h0l-.02-.09Z" fill="#fff"/><path d="M148.97,44.33l-.02,.1s.04-.04,.05-.06c0-.01-.02-.03-.03-.04Z" fill="#fff"/><path d="M138.23,47.51s0-.03,0-.04c-.08,0-.26,.06-.48,.16l.05,.14,.43-.26Z" fill="#fff"/><path d="M149.43,44.32v.08c-.28,.04-.35-.12-.49-.11,0,.01,.02,.03,.03,.04v-.03s.03,.05,.03,.07c.02,.03,.02,.07-.05,.09v-.02c-.09,.07-.28,.12-.36,.14l-.06-.14c-.07,.34-1.42,.14-1.67,.24-.5,.03-1.07,.64-1.53,.23-.35,.05,.13,.13,.01,.2l-.46-.03c.21-.11,.06-.14,0-.18-.33,.12-.95,.08-.93,.4-.49,.06-.54-.05-.73,.02,.08,.02,.23,.01,.25,.07-.23-.05-.07,.07,.01,.06-.21,.23-1.6,.1-1.52,.42l-.02-.05c.04,.25,.23,.43,.1,.63l-.17-.05-.14,.18c-.16-.02-.12-.1-.13-.13-.26,.24-.74,.3-1.12,.43l.66,.44c-.37,0-1.06-.05-1.03,.17l-.28-.12c-.79-.12-.36,.36-.66,.35l-.41-.09,.31-.13c-.36,.02-.52,0-.83-.04h0s.04,.02,.04,.03l-.04,.02c-.2,.44-.76,.65-1.44,.72l-.02,.28-.43,.03-.08-.18c.37-.15,1.03-.52,1.49-.73l-.03-.09c-.35,.15-1.03,.74-1.06,.12l-.09,.25c-.8,.36-1.1,.53-1.86,.6,.02,.03,.04,.06,.06,.08-.04,.08-.1,.17-.14,.01-.17,.04-.33-.03-.25-.34l-.13,.31s.17-.47-.05-.02c-.04,.06-.08,.11-.13,.17-.02-.01-.17,.2-.09,.02h0l.02-.04-.02,.03c-.13,.07-.33,.35-.57,.59,.08-.19,.63-.77,.46-.72-.43,.17,.42-.53,.63-.68-.36,.28-.23,.19-.39,.27,.16-.13,.53-.33,.19-.15-.26,.15-.68,.33-.69,.31l-.09,.07c-.13-.02-.17-.14-.02-.29l.13-.02s-.03-.07-.05-.1l.16-.02-.03-.14-.04,.02c-.04-.15,.01-.38,.08-.51l.08,.02c.34-.51,.07-1.01,.12-1.66l.16,.11c.2-.2-.26-.1-.14-.35l.21,.02c-.25-.27,.1-.29,.23-.43l-.29,.04c.05-.37,.34-.62,.62-.38l-.19-.25h.25c-.26-.21,.07-.17-.05-.48,.1-.01,.14,.07,.19-.02l-.29-.52,.12,.3-.35-.08c-.23-.33,.09-.4,.01-.62l.09,.16c-.05-.36,.11-.36,.21-.54-.23,.17-.28-.07-.03-.15-.24-.05-.33-.32-.19-.53,.03,0,.07,.02,.09,.03-.03-.06-.09-.1-.02-.19l.26,.09-.23-.22c.09-.12-.08-.33,.1-.29l.04,.08,.18-.97h.21c-.28-.12,.17-.51-.2-.52,.22-.16-.06-.74,.34-.59,.1-.64-.26-1.02,.02-1.78,.81-1.12,.19-2.82,.24-4.17,.53-.57-.06-1.52,.26-2.15l-.19-.19c.33-.41-.01-1.1,.32-1.69-.08-.15-.1-.23-.11-.27-.01,.03-.05,.07-.17,.07,.1-.17,0-.52,.25-.49l.02,.05c.25,.04-.09-.53,.14-.72l-.27,.09,.06-.33,.05,.09c-.55-1.45,.89-9.64,.39-10.99,.29,.18-.15-.27,.17-.28,.4-.33-.08-.63-.19-.91-.02,0-.03,0-.06-.02l.04-.48c.4,.29-.33-.35,0-.08,.32-1.34-.03-2.99,.06-4.39l-.1,.07c0-.37-.12-.83,.02-1.12,.14-.41-.8-1.06-.2-1.18-.07-.33-.46-.61-.33-1.08,.33-.19-.41-1.22-.05-1.27h-.03c.2-.62-.32-1.12-.15-1.78,0,0,.03,0,.06,.03-.43-.38-.87-.76-1.3-1.12l-1.22,.53-.91,1.2c.79,3.49,.12,7.3,.47,10.87l.29,.41c-.51,1.11-.57,10.13-.95,11.33l.25,.04c-.65,3.61,.09,7.65-1.18,10.98,.2,.96,.1,1.94-.05,2.86l-.02-.04v.44s-.06,.01-.07,0c.16,.52-.15,1.27-.32,1.86l-.02-.04c-.46,3.81-.89,7.57-1.62,11.34,4.82-2.07,10.25-3.77,14.92-6.2l-.53-.1c1.25-.69,1.98-.68,3-1.39l-.04,.09c.19,0,.01-.67,2.14-.69v.03c.07-.03,.05-.09,.2-.07l-.38-.03c.16-.15,.26-.35,.5-.48,.07,0,.11,.06,.13,.1l.59-.31,.26,.1c.14-.18-.1-.52,.48-.52-.3-.18,.18-.26,.06-.37,.04,.02,.12,.04,.18,.07,.28-.16,.81-.47,.89-.67,0,0-1.4-.05-1.83-.19,.45-.11,.1-.08-.02-.13Z" fill="#fff"/><path d="M148.82,46.35h-.01c.04,.1,.05,.06,.01,0Z" fill="#fff"/><polygon points="140.44 46.88 140.46 46.88 140.32 46.78 140.44 46.88" fill="#fff"/><path d="M144.87,44.9c.08-.03,.14-.06,.18-.11-.22,.06-.22,.09-.18,.11Z" fill="#fff"/><path d="M150.45,45.43c.11-.04,.05-.08-.05-.12-.11,.06-.18,.1-.18,.1,.07,0,.15,.02,.23,.02Z" fill="#fff"/><path d="M149.43,44.32v-.09c-.06,.05-.04,.07,0,.09Z" fill="#fff"/><path d="M164.78,42.94h0s-.08-.06-.11-.07l.11,.07Z" fill="#fff"/><path d="M165.55,40.68h.02s-.06-.02-.02,0Z" fill="#fff"/><path d="M158.69,38.88h0s.02,0,.04,0h-.04Z" fill="#fff"/><path d="M158.69,38.89c-.08,.04-.1,.1-.09,.17,.07,.02,.09-.1,.16-.12-.05,.05-.06-.03-.07-.06Z" fill="#fff"/><path d="M165.84,38.39s.07,0,.09,0h-.09Z" fill="#fff"/><path d="M164.13,27.44l.06-.08s-.05,.02-.06,.04c0,.02,0,.03,0,.05Z" fill="#fff"/><path d="M166.38,35.18s-.03,0-.04,0c-.04,.06-.04,.2-.03,.39h.15l-.08-.38Z" fill="#fff"/><path d="M169.33,30.95l-.2,.47c-.42-1.22-.31-1.94-1.11-3l.09,.03c-.68-.43-1.03-1.61-1.64-2.27l.02-.02c-.09-.05-.12,0-.26-.18,.12,.14,.23,.29,.33,.43-.27-.17-.94-.06-.98-.45-.3-.12-.62-.17-.93-.22-.08-.08-.18-.15-.27-.22-.38,.2-.29,.44-.93,.3,.3,.25-.33,.21-.22,.34-.04-.03-.12-.06-.18-.1-.3,.09-.91,.36-1.05,.63,.25-.03,1.49,.13,1.77,.44-.44-.03-.1,.05-.02,.13l.02-.07c.22,.02,.22,.21,.35,.3,0-.01,0-.03,0-.05l-.02,.02s0-.05,.01-.07c0-.04,.01-.07,.08-.05v.02c.08-.03,.24,.03,.32,.07l-.03,.15c.45-.18,.69,.69,.83,.96,0,.26,.33,.28,.39,.55,.17,.35-.08,.28-.1,.51,.03,.25,.13-.12,.19-.05-.01,.11-.03,.24-.06,.35-.09-.14-.13-.02-.17,.03,.09,.23-.04,.69,.27,.66-.03,.37-.14,.41-.11,.55,.04-.06,.06-.17,.11-.19-.08,.17,.05,.05,.06,0,.21,.11-.25,1.16,.08,1.17h-.06c.25,.01,.47-.12,.63,0l-.09,.12,.13,.14c-.06,.12-.13,.08-.16,.08,.16,.23,.08,.61,.09,.92,.21-.14,.41-.28,.62-.42-.11,.29-.37,.8-.15,.83l-.21,.18c-.38,.57,.22,.35,.11,.58l-.23,.28v-.27c-.12,.27-.19,.38-.34,.6h0s.02-.02,.03-.03v.04c.33,.23,.34,.74,.13,1.24l.25,.1-.15,.32h-.2c.01-.31-.07-.89-.1-1.29h-.09c.05,.34,.24,.96-.29,.79l.2,.14c.02,.78,.03,.79-.22,1.6l.1-.07c.05,.16,.1,.33-.06,.37-.06,.49-.22,.98-.51,1.27l.23,.09c-.02,.1-.39,.21-.07,.3l.08,.23c-.03,.14,.09,.24-.06,.38h0s-.02,.02-.03,.03h.02c-.15,.29,.21,.03,.02,.36-.18,.09,.28,.17,.19,.34l-.36,.12c-.24,.27,.08,.38-.01,.82-.17,.18-.47,.21-.68,.02,.26,.25,.18,.13,.26,.4-.13,0-.15-.03-.25-.11-.2,.17,.08,.16,.03,.31,.22,.11,.57,.27,.57,.33l.09-.04c.07,.21,.07,.42-.11,.58l-.11-.05-.02,.22-.15-.04c-.02,.1-.04,.2-.07,.3l.05-.02c0,.07-.05,.31-.18,.4l-.08-.04c-.4,.21-.23,.62-.44,.99l-.11-.14c-.22,.01,.2,.19,.03,.27l-.18-.12c.14,.29-.16,.11-.3,.11l.25,.14c-.22,.24-.47,.04-.59-.17l.08,.24-.19-.16c.14,.26-.09,.02-.09,.24-.07-.06-.08-.12-.14-.12,.02,.14,.03,.28,.03,.43,.01-.07,.02-.15,.02-.22,.27,.34,.33,.4-.02,.56,0-.04,0-.09,0-.14-.11,.19-.21,.06-.34,.05,.2,.1,.15,.27-.04,.08,.12,.21,.05,.4-.12,.36-.01-.03-.03-.06-.03-.09-.01,.05,0,.11-.08,.09l-.09-.26c0,.09,.01,.18,.01,.28-.09-.04-.12,.18-.18,.01l.02-.07c-.17,.05-.34,.08-.5,.09l-.06-.21c.02,.3-.26-.06-.18,.29-.11-.18-.33,.17-.3-.25-.26-.02-.47,.35-.72,.06,.01-.37-.27-.37-.43-.54-.46-.14-.79-.33-1.14-.71,.26-.5-.54-.69-.38-1.16l-.21-.05c.24-.29-.2-.65,.08-1.06-.09-.09-.12-.14-.13-.16,0,.02-.04,.05-.17,.06,.08-.12-.03-.35,.22-.33l.03,.03c.24,.02-.12-.34,.11-.47l-.27,.06,.06-.22,.05,.06c-.52-1.04,.41-1.39,.09-2.47,.25,.2-.1-.23,.21-.17,.45-.16,.03-.49-.02-.72-.02,0-.03-.01-.05-.03l.13-.36c.33,.32-.25-.35,.02-.06,.53-.88,.59-2.19,1.07-3.24l-.11,.02c.11-.27,.1-.65,.33-.81,.27-.26-.44-1.02,.19-.91,.04-.26-.22-.61,.05-.9,.36,0,.04-1.04,.4-.91l-.03-.02c.42-.33,.16-.9,.58-1.26,0,0,.02,.02,.04,.05-.23-.46-.45-.92-.66-1.39-.83-.29-1.82-.19-2.6,.19-.87,3.03-2.58,5.69-2.97,8.89l.2,.41c-.74,.9-.41,2.29-.83,3.35l.25,.04c-.9,3.92,2.44,8.41,6.45,9.07,1.18-.27,2.25-.57,3.2-1.01l-.02,.04c.14-.09,.28-.17,.41-.27,.03,0,.04,.03,.04,.06,.36-.45,1.16-.77,1.71-1.2v.05c3.78-4.96,4.23-12.09,2.97-17.91Z" fill="#fff"/><path d="M165.58,25.96h.02c.04-.09,0-.07-.02,0Z" fill="#fff"/><polygon points="166.53 33.39 166.53 33.37 166.39 33.47 166.53 33.39" fill="#fff"/><path d="M165.58,29.93c-.02-.05-.05-.1-.09-.11,.04,.15,.06,.15,.09,.11Z" fill="#fff"/><path d="M163.29,26c-.12-.05-.52-.09-.24,.07,.09-.03,.19-.06,.24-.07Z" fill="#fff"/><path d="M163.76,27.27l-.03,.09c.06-.03,.06-.06,.03-.09Z" fill="#fff"/><path d="M180.44,39.32h0s.09-.01,.12-.02l-.13,.02Z" fill="#fff"/><path d="M180.52,40.54h-.01s.06,0,.01,0Z" fill="#fff"/><path d="M177.36,30.33h0Z" fill="#fff"/><path d="M177.44,30.33s-.07,0-.08,0c-.06,.04-.06,.07-.02,.09,.08-.02,.05-.07,.11-.09Z" fill="#fff"/><path d="M180.81,41.59s-.06,.03-.09,.04h0l.09-.04Z" fill="#fff"/><path d="M180.83,43.18s.03,0,.04-.01c.03-.04,.01-.1-.02-.18l-.14,.05,.12,.15Z" fill="#fff"/><path d="M179.29,47.83h0c-.1,.04-.06,.03,0,0Z" fill="#fff"/><polygon points="180.84 44.06 180.84 44.07 180.97 43.99 180.84 44.06" fill="#fff"/><path d="M179.75,48.39s.06,0,.11-.05l-.05-.06s-.05,.08-.07,.11Z" fill="#fff"/><path d="M184.12,32.03h0s-.09-.05-.11-.06l.11,.06Z" fill="#fff"/><path d="M184.87,30.65h.02s-.06-.02-.02,0Z" fill="#fff"/><path d="M181.14,44.04h0s-.02,0-.03,0h.04Z" fill="#fff"/><path d="M181.14,44.03c.08-.02,.09-.05,.07-.1-.07-.02-.08,.05-.14,.05,.04-.02,.06,.03,.07,.05Z" fill="#fff"/><path d="M185.36,29.31s.07,.02,.09,.02h0l-.09-.02Z" fill="#fff"/><path d="M189.24,23.02l.07,.05s-.04-.05-.07-.05Z" fill="#fff"/><path d="M186.43,27.6s-.02-.01-.04-.02c-.05,.02-.08,.1-.11,.21l.14,.05v-.24Z" fill="#fff"/><path d="M191.09,23.61c-.07-.12-.48-.2-.19-.38-.3,0-.13-.17-.27-.18,.04,0,.1-.01,.15-.02,.01-.15,.02-.45-.1-.56,0,0-.75,.39-1.08,.46,.14-.18-.02-.06-.12-.05l.06,.03c-.1,.1-.28,.05-.34,.1,.01,0,.03,0,.05,.01h-.02s.14,.02,.11,.06h-.02s-.04,.13-.07,.16l-.14-.04c.25,.17-.6,.48-.65,.6-.22,.07-.04,.29-.17,.41-.12,.23-.25,.06-.41,.14-.14,.12,.18,.02,.17,.08l-.26,.12c.01-.11-.09-.08-.15-.08-.07,.15-.41,.32-.14,.45-.2,.17-.32,.14-.36,.22,.06-.01,.13-.06,.19-.04-.15,.05,.02,.05,.06,.02,.09,.17-.73,.51-.42,.64l-.06-.02c.23,.1,.47,.12,.57,.25l-.12,.03,.07,.12c-.09,.04-.15-.01-.18-.02,.06,.18-.13,.35-.21,.52h.7c-.19,.11-.58,.29-.38,.39-1.02,.11,.19,.34-.57,.46l.05-.15c-.16,.12-.26,.15-.45,.23h0s.03,0,.04,0v.02c.23,.17,.18,.52-.14,.74l.22,.13-.2,.14-.19-.06c.07-.18,.09-.53,.15-.77l-.09-.03c0,.32-.06,.6-.44,.36l.16,.14c-.12,.46-.11,.47-.47,.87h.11c.03,.1,.05,.21-.11,.19-.12,.27-.33,.53-.62,.65l.21,.11c-.03,.06-.4,.04-.09,.17l.06,.16c-.04,.08,.07,.17-.09,.22h0s-.02,0-.03,0h.02c-.16,.16,.2,.06,0,.24-.18,.02,.26,.16,.18,.25-.56-.03-.4,.06-.36,.54-.15,.1-.45,.08-.67-.08,.26,.21,.18,.11,.27,.31-.13-.01-.15-.04-.25-.1-.18,.1,.08,.12,.04,.22,.22,.1,.57,.25,.58,.28l.08-.02c.09,.15,.11,.29-.05,.38l-.11-.04,.02,.16-.15-.04v.21l.03-.02c0,.05,0,.22-.09,.28l-.08-.03c-.33,.17-.06,.47-.12,.77l-.16-.09c-.2,.05,.25,.1,.13,.2l-.21-.06c.24,.18-.1,.12-.22,.16l.28,.05c-.12,.25-.41,.15-.6,.04l.18,.16-.24-.05c.25,.16-.07,.06,.04,.23-.09-.02-.13-.06-.19-.03l.27,.31-.11-.17c.31,.11,.53,.12,.32,.41l-.08-.1c.04,.18-.11,.14-.22,.21,.2-.04,.3,.1,.03,.08,.23,.08,.32,.23,.18,.3-.03-.01-.06-.02-.08-.04,.03,.04,.09,.07,.02,.1l-.25-.1,.22,.16c-.06,.06,.02,.23-.14,.07l-.19,.42-.21-.06c.27,.13-.18,.2,.18,.3-.22,.02,.04,.36-.35,.2-.12,.28,.22,.55-.08,.84-.79,.27-.33,1.26-.45,1.88-.55,.13-.04,.72-.39,.93l.16,.14c-.36,.1-.08,.5-.45,.69,.06,.09,.08,.13,.08,.15,.01,0,.05-.02,.17,.01-.11,.05-.05,.24-.28,.16l-.02-.03c-.23-.08,.04,.27-.19,.29l.27,.03-.09,.13-.04-.05c.37,.8-.52,.84-.18,1.59-.25-.16,.11,.16-.2,.08-.43,.03,0,.3,.06,.46,.01,0,.03,.01,.05,.03l-.1,.2c-.34-.24,.27,.25-.02,.03-.11,.12-.19,.25-.25,.4l-.1-.02c.06-.08,.13-.08,.15-.09-.15-.07-.08-.28-.11-.42l-.57,.39c.1-.17,.31-.49,.1-.44,.76-.62-.34-.1,.22-.59l.04,.12c.07-.16,.13-.23,.25-.38h0s-.02,.02-.03,.03h-.01c-.25,.02-.43-.22-.28-.53l-.25,.04,.09-.19,.19-.07c.04,.14,.21,.37,.28,.54l.09-.03c-.04-.1-.17-.19-.17-.26,.02-.05,.19-.2,.34-.19h-.21c-.15-.33-.16-.33-.07-.77l-.08,.06c-.08-.05-.16-.1-.01-.18-.05-.23,0-.49,.18-.71l-.23,.05s.31-.23-.01-.15l-.13-.06c-.02-.07-.15-.1-.02-.2h-.02c.05-.17-.2,.08-.13-.13,.14-.11-.3,.04-.28-.06,.42-.26,.39-.2,.03-.52,.08-.14,.34-.28,.6-.29-.32,0-.2,.02-.39-.05,.11-.06,.14-.05,.26-.06,.11-.15-.13-.03-.15-.11-.23,.05-.61,.14-.63,.12l-.06,.05c-.15-.05-.24-.12-.15-.26l.12-.03-.09-.09,.14-.05-.09-.14-.03,.03s-.12-.13-.06-.22l.08-.02c.19-.27-.19-.32-.29-.53l.18-.02c.14-.13-.26,.06-.21-.06l.2-.07c-.29,0,.03-.12,.11-.21l-.26,.11c0-.24,.29-.29,.49-.32h-.23l.23-.1c-.29,.03,.03-.07-.15-.12,.09-.04,.15-.03,.17-.07l-.38-.06,.18,.05c-.24,.04-.52,.22-.47-.1l.12,.02c-.12-.09,.03-.14,.08-.23-.15,.12-.3,.08-.06-.03-.23,.06-.38,.01-.3-.1,.03,0,.07-.02,.09-.02-.04,0-.11,0-.06-.05l.26-.06h-.26c.03-.06-.14-.12,.09-.1l-.03-.35,.2-.06c-.29,.05,.06-.21-.3-.1,.17-.12-.21-.21,.2-.29-.03-.23-.45-.24-.33-.56,.31-.19,.13-.42,.12-.6-.23-.3-.42-.48-.62-.8,.42-.33-.3-.48-.08-.77h-.21c.26-.24-.16-.38,.08-.66-.1-.03-.13-.05-.14-.06,0,.01-.04,.03-.16,.07,.05-.07-.03-.24,.21-.22,.24-.05-.16-.16,.04-.27l-.25,.1,.02-.12,.06,.02c-.69-.36,.08-.77-.55-1.12,.3,0-.17-.06,.14-.13,.36-.2-.13-.2-.26-.27-.02,0-.03,0-.06,0v-.18c.41,.02-.35-.05,0-.03,.2-.5-.21-1.02-.18-1.55l-.1,.04c0-.13-.16-.27-.01-.4,.14-.13-.3-.17-.32-.2-.19-.08,.13-.24,.12-.19-.07-.11-.45-.15-.33-.34,.32-.11-.41-.38-.03-.45h-.03c.23-.25-.26-.37-.05-.63,0,0,.03,0,.06,0-1.09-.46-2.51-.05-3.42,.65l.41,1.06c-.44,1.02,.09,2.06,.34,3.06l.32,.09c-.4,.53,.28,.94,.04,1.46l.24-.05c.04,.12-.11,.15-.14,.19,.33,1.17,.96,2.28,.95,3.41-.13,.15,.05,.43-.1,.55,.39,.26,.49,.62,.56,.96h-.03l.09,.14s-.05,.02-.07,.02c.27,.12,.14,.46,.12,.71h-.03c.8,1.91,1.35,3.69,1.82,5.68-.19,.21,.51,1.49,.66,1.56l.22-.27c.32,.45,.14,.79,.54,1.12h-.07c-.04,.09,.6-.14,.12,.86h-.03s.07,0,.02,.09l.12-.19c.1,.04,.26,.05,.32,.13-.02,.03-.08,.06-.12,.08l.14,.21-.15,.15c.13,.03,.49-.17,.36,.11,.23-.18,.2,.02,.32-.06-.03,.02-.07,.07-.1,.1,.04,.05,.11,.13,.19,.18,0,.17,.06,.36-.13,.49,0,0-.03-.01-.05-.03l.94,.91c.62,.18,1.8,.22,2.41,.02l.19-1.4,.71-.95,.66-2.64-.22-.27c.64-.36,.28-1.19,.79-1.63l-.23-.08c.03-.16,.18-.1,.23-.13,.38-1.46,.52-3.04,1.21-4.24,.19-.08,.22-.49,.41-.53-.16-.51-.02-.95,.13-1.37l.02,.02v-.21s.07,0,.08,.02c-.14-.29,.17-.58,.34-.83l.02,.02c.55-2.52,1.27-4.73,2.26-7.08,.28-.08,.63-1.85,.56-2.04l-.35,.11c.06-.68,.44-.89,.37-1.5l.05,.05c.09-.06-.54-.3,.51-.94h.03s-.05-.04,.04-.08l-.22,.1c-.04-.11-.16-.23-.14-.36,.04-.02,.1,0,.15,0l.04-.31,.21-.03Zm-10.22,21.05v.03s-.03,0-.04,0l.04-.04Z" fill="#fff"/><path d="M190.83,23.96h0c.1,.04,.07,.02,0,0Z" fill="#fff"/><polygon points="187.03 26.67 187.03 26.66 186.88 26.66 187.03 26.67" fill="#fff"/><path d="M187.64,24.48s.02-.07,0-.1c-.06,.09-.04,.1,0,.1Z" fill="#fff"/><path d="M190.89,23.07c.02-.05-.04-.05-.12-.04,0,.06-.01,.1-.01,.1,.03-.02,.09-.04,.13-.06Z" fill="#fff"/><path d="M195.27,41.45v.02s.05,0,0-.02Z" fill="#fff"/><path d="M203.21,31.65h0s-.02,0-.04,0h.04Z" fill="#fff"/><path d="M203.21,31.64c.09-.04,.13-.1,.13-.18-.07-.03-.12,.1-.18,.1,.06-.04,.06,.05,.05,.08Z" fill="#fff"/><path d="M196.04,43.4s-.05,.05-.06,.07h0l.06-.07Z" fill="#fff"/><path d="M209.29,45.59l-.02,.11s.04-.05,.04-.07c0-.01-.02-.03-.03-.04Z" fill="#fff"/><path d="M198.6,45.54s.02-.02,.02-.04c-.05-.06-.21-.11-.4-.18l-.06,.14c.15,.03,.29,.06,.44,.08Z" fill="#fff"/><path d="M209.8,45.66c.46-.16,.09-.09-.04-.13v.08c-.28,.08-.36-.08-.51-.06,0,.01,.02,.03,.03,.04v-.03s.03,.04,.03,.07c.02,.03,.02,.07-.05,.09v-.02c-.09,.08-.28,.14-.37,.17l-.07-.13c-.09,.39-1.47,.15-1.68,.23-.49,0-1.12,.53-1.51,.05-.34-.02,.11,.16-.02,.19l-.43-.12c.22-.07,.08-.13,.02-.18-.34,.06-.9-.14-.95,.18-.47-.08-.48-.2-.67-.19,.07,.05,.2,.08,.21,.14-.19-.11-.08,.04,0,.06-.18,.2-1.37-.43-1.49-.11v-.06c-.06,.25,.05,.48-.15,.62l-.13-.11-.2,.1c-.13-.08-.06-.15-.06-.18-.32,.11-.76-.05-1.14-.12,.11,.23,.23,.48,.36,.7-.33-.18-.88-.56-.97-.36l-.16-.25c-.55-.54-.48,.1-.71-.08-.09-.1-.17-.21-.25-.31,.1,.03,.2,.06,.31,.08-.28-.19-.38-.3-.56-.53h0s.02,.03,.02,.05h-.04c-.37,.21-.95-.01-1.35-.46l-.22,.17c-.08-.1-.17-.2-.24-.31l.1-.17c.28,.19,.9,.41,1.33,.54l.04-.08c-.35-.1-1.08-.2-.66-.62-.07,.04-.15,.07-.23,.11-.56-.26-.9-.55-1.17-1.09l-.02,.12c-.16-.06-.29-.15-.2-.28-.27-.36-.37-.83-.23-1.17-.08,.01-.16,.02-.24,.03-.02-.1,.27-.33-.05-.28-.05-.05-.1-.11-.16-.17-.01-.14-.16-.19-.06-.38h0s.01-.02,.02-.04h-.02c.05-.33-.21,.04-.13-.35,.16-.14-.31-.11-.27-.31,.11-.07,.22-.14,.33-.21,.12-.32-.5-1.55,.55-1.1-.29-.25-.19-.12-.32-.44,.13-.03,.15,0,.26,.08,.16-.21-.02-.2-.04-.32,4.68,1.09,10.51-1.52,11.09-6.58,1.02-1.16,.91-2.95,1.34-4.4l-.25-.04c.78-2.77-2.07-5.59-4.87-5.02-3.01,.5-4.39,3.11-6.54,4.68-.41,.98-1.05,1.84-1.66,2.69v-.05l-.23,.44s-.05,0-.06-.03c-.14,.63-.78,1.25-1.14,1.79v-.05c-4.69,8.35-1.06,18.61,9.64,17.23l-.52-.28c1.37-.19,2.41-.01,3.73-.57l-.06,.08c.57-.51,1.66-.56,2.52-.57v.03c.08-.03,.06-.09,.24-.08-.14,0-.29-.01-.43-.02,.19-.15,.32-.37,.6-.51,.07,0,.12,.05,.14,.09,.23-.11,.44-.25,.66-.37l.3,.07c.16-.21-.13-.52,.52-.61-.34-.13,.18-.3,.04-.39,.04,.01,.13,.02,.2,.04,.3-.21,.82-.67,.87-.88-.21,.07-1.68,.27-1.95,.16Zm-13.77-10.65l.2,.08c-.16-.31,.17-.23,.33-.31l-.28-.06c.16-.33,.5-.42,.68-.13l-.1-.28,.24,.08c-.18-.27,.11-.11,.1-.42,.09,.03,.11,.11,.18,.05-.04-.18-.06-.37-.09-.55v.31l-.3-.21c-.1-.38,.23-.31,.24-.53l.02,.17c.09-.33,.23-.26,.4-.37-.28,.05-.23-.18,.03-.14-.19-.15-.17-.42,.04-.54,.03,.02,.05,.04,.06,.07,0-.07-.04-.13,.06-.17l.19,.2-.11-.29c.13-.06,.07-.32,.21-.2v.09c.2-.24,.39-.48,.6-.72l.18,.12c-.18-.25,.39-.34,.08-.54,.27-.02,.32-.63,.58-.29,.41-.45,.32-.97,.97-1.41,1.09-.21,1.57-1.83,2.42-2.39,.42,.34,.55-.3,.67,.02,.04-.06,.08-.11,.12-.17-.07,.3,.32,.17,.1,.44,.09,0,.12,0,.13,.01,0,0,.04-.03,.16-.07-.06,.1,.03,.23-.18,.24l-.03-.02c-.23,.04,.16,.32-.07,.42l.27-.07c-.02,.08-.03,.15-.05,.23-.02-.02-.03-.04-.05-.06,.53,1.08-.5,1.69-.34,2.88-.22-.25,.06,.27-.24,.18-.48,.13-.12,.54-.13,.82,.01,0,.03,.02,.05,.04-.07,.13-.15,.25-.22,.38-.24-.41,.15,.43-.04,.06-.74,.83-1.33,2.15-2.37,2.64l.1,.06c-.32,.37-.81,.22-1.06,.54-.06,.39-.63,.44-.56,.22-.26,.14-.47,.52-.85,.4-.1-.31-1.04,.35-1.05-.06v.03c-.44-.32-1.01,.03-1.41-.38,0,0,.02-.02,.04-.04-.02,.01-.04,.02-.06,.03,.01-.05,.03-.1,.05-.16l.13,.14c.24-.12-.23-.16-.05-.35Z" fill="#fff"/><path d="M209.15,47.65h-.02c.04,.1,.05,.06,.02,0Z" fill="#fff"/><polygon points="200.61 46.24 200.63 46.25 200.56 46.09 200.61 46.24" fill="#fff"/><path d="M205.21,45.91c.08-.01,.14-.03,.18-.08-.22,.02-.22,.04-.18,.08Z" fill="#fff"/><path d="M210.94,46.49c.12-.06,.04-.09-.06-.11l-.19,.14c.08-.02,.17,0,.25-.03Z" fill="#fff"/><path d="M209.77,45.53v-.09c-.06,.05-.04,.08,0,.09Z" fill="#fff"/><path d="M218.25,30.47h0Z" fill="#fff"/><path d="M218.25,30.47c-.07,.02-.08,.05-.05,.08,.08,0,.07-.05,.13-.06-.04,.02-.07-.02-.08-.03Z" fill="#fff"/><path d="M216.61,48.61l-.09-.03s.05,.03,.09,.03Z" fill="#fff"/><path d="M214.83,48.22h0c-.1,0-.07,0,0,0Z" fill="#fff"/><path d="M215.01,48.91s.05,.03,.12,0l-.02-.08s-.08,.05-.11,.07Z" fill="#fff"/><path d="M222.3,29.51h0l-.08-.11,.08,.11Z" fill="#fff"/><path d="M223.69,28.41h.02s-.04-.04-.02,0Z" fill="#fff"/><path d="M224.87,27.31s.05,.04,.07,.06h0l-.07-.06Z" fill="#fff"/><path d="M232.23,24.08l.02,.09s0-.06-.02-.09Z" fill="#fff"/><path d="M226.83,26.23s-.01-.02-.02-.04c-.05,0-.13,.05-.23,.14l.09,.12,.15-.22Z" fill="#fff"/><path d="M232.56,24.25c.23-.04,.03-.06-.05-.12l.02,.07c-.15,0-.24-.15-.32-.16,0,.01,.02,.03,.03,.04v-.03s.08,.12,.02,.14v-.02c-.04,.05-.14,.07-.18,.08l-.08-.13c.06,.3-.82-.04-.94,.03-.22-.08-.23,.21-.43,.23-.26,.11-.23-.11-.42-.14-.2,.02,.13,.13,.07,.17l-.29-.06c.09-.08-.01-.12-.06-.16-.16,.08-.56,.01-.44,.29-.29,.02-.36-.08-.45-.03,.06,.02,.15,.03,.18,.08-.16-.05-.02,.05,.03,.05-.05,.18-.95,.03-.78,.31l-.04-.05c.12,.22,.31,.37,.3,.55l-.12-.05-.02,.15c-.1-.02-.12-.09-.13-.12-.07,.19-.34,.23-.52,.33l.59,.39c-.23-.02-.67-.07-.57,.11-.95-.45-.03,.41-.77,.11l.13-.11c-.21,.02-.32,0-.53-.02h0s.03,.01,.04,.02v.02c.07,.29-.18,.57-.59,.61l.12,.23-.26,.03-.13-.15c.16-.13,.41-.44,.6-.62l-.06-.07c-.19,.26-.41,.54-.61,.12l.06,.21c-.39,.36-.37,.38-.93,.61l.1,.04c-.04,.12-.08,.24-.21,.14-.26,.21-.6,.37-.93,.35l.13,.2c-.06,.04-.39-.13-.18,.12l-.03,.18c-.07,.07-.04,.22-.23,.18h.02c-.22,.11,.16,.15-.11,.25-.18-.05,.16,.27,.04,.32-.53-.28-.41-.06-.61,.4-.19,.04-.46-.09-.59-.34,.14,.31,.11,.18,.1,.42-.12-.06-.12-.09-.18-.2-.23,.03,.02,.15-.06,.25,.16,.18,.43,.46,.42,.5h.09c.02,.19-.02,.34-.21,.39l-.09-.08-.05,.17-.13-.09-.11,.21h.05c-.02,.06-.09,.23-.21,.26l-.07-.05c-.39,.07-.27,.46-.44,.75l-.12-.14c-.21,0,.2,.18,.05,.25l-.18-.12c.16,.26-.14,.09-.27,.1l.25,.13c-.2,.22-.45,.05-.59-.13l.11,.23-.22-.12c.19,.24-.09,.05-.05,.26-.08-.04-.11-.1-.17-.08l.15,.4-.04-.21c.3,.23,.45,.27,.16,.52l-.05-.12c-.03,.2-.16,.12-.29,.16,.22,.02,.25,.18,0,.09,.2,.14,.22,.32,.07,.36-.03-.02-.05-.04-.07-.06,.02,.05,.06,.09-.01,.11l-.21-.17,.16,.22c-.1,.02,.02,.21-.13,.1l-.03-.06-.32,.4-.19-.11c.23,.2-.24,.18,.08,.36-.22-.02-.08,.4-.4,.14-.2,.28,.04,.62-.32,.89-.17-.02-.28,.06-.36,.17-.13-.3-.25-.53-.33-.86,.5-.21-.15-.55,.13-.78l-.19-.07c.31-.14-.06-.4,.26-.61-.08-.06-.11-.09-.11-.1,0,0-.05,.02-.17,.02,.07-.05,.04-.24,.26-.15,.25,.02-.1-.2,.12-.25l-.27,.02,.05-.12,.05,.04c-.56-.56,.3-.72-.18-1.25,.28,.09-.14-.11,.17-.08,.41-.08-.06-.23-.16-.35-.02,0-.03,0-.06-.01l.06-.17c.39,.15-.32-.16,.01-.03,.36-.41,.14-1.04,.35-1.54h-.11c.04-.12-.05-.31,.13-.38,.18-.07-.22-.26-.22-.31-.15-.14,.21-.17,.19-.13-.03-.12-.36-.31-.18-.44,.34,.02-.22-.51,.15-.43h-.03c.31-.15-.08-.45,.21-.61,0,0,.03,.01,.05,.02-.87-.89-2.2-1.12-3.38-.8-.02,.42-.06,.83-.07,1.24-.81,.87-.7,2.13-.79,3.24l.27,.2c-.55,.41-.03,1.05-.42,1.51l.25,.03c0,.14-.15,.12-.19,.15-.04,1.3,.28,2.6-.04,3.74-.17,.11-.06,.44-.24,.53,.31,.37,.31,.75,.28,1.12h-.03l.05,.16s-.05,0-.07,0c.22,.19,.02,.5-.07,.74h-.03c.26,2.1,.32,3.98,.11,6.05-.24,.14-.03,1.56,.09,1.68l.3-.17c.15,.53-.16,.78,.09,1.23l-.07-.03c-.07,.06,.61,.11-.22,.83h-.03s.06,.03-.02,.07l.19-.12c.07,.08,.22,.14,.23,.24-.03,.02-.1,.03-.14,.03l.04,.25-.2,.07c.1,.08,.52,.05,.28,.25,.29-.07,.17,.1,.31,.08-.04,0-.09,.03-.14,.05,.03,.12,.1,.35,.25,.41,0,0,.61-.45,.92-.57-.08,.17,.03,.05,.13,.02h-.07c.07-.12,.25-.11,.3-.16h-.03s-.14,.02-.13-.03h.02s0-.11,.02-.14h.07s.03,.02,.04,.03c.73,.02,1.73-.18,2.38-.52-.15-.83-.04-1.75,.52-2.42,.11-.88,.28-1.77,.48-2.63l-.22-.27c.64-.36,.27-1.19,.83-1.6l-.23-.1c.04-.16,.18-.09,.24-.11,.45-1.38,.79-2.9,1.77-4.02,.2-.04,.32-.42,.52-.42-.04-.53,.21-.93,.47-1.29v.03c.04-.07,.06-.13,.09-.2,.02,0,.05,.02,.06,.04-.05-.31,.34-.5,.58-.68v.03c1.29-2.2,2.96-3.96,5.02-5.38,.25,.06,1.53-1.15,1.59-1.34l-.34-.12c.44-.53,.88-.43,1.22-.95v.07c.11,.02-.21-.6,1-.38l.02,.03s0-.07,.09-.03l-.23-.08c.04-.11,.04-.28,.14-.36,.04,.02,.08,.06,.11,.1l.24-.2,.18,.12c.03-.14-.21-.47,.12-.4-.22-.2,.03-.21-.07-.32,.03,.02,.08,.06,.12,.09,.12-.1,.33-.32,.32-.48-.15-.04-.94-.29-1.11-.41Z" fill="#fff"/><path d="M232.74,25.85h0c.05,.09,.04,.06,0,0Z" fill="#fff"/><polygon points="227.93 25.71 227.94 25.7 227.81 25.62 227.93 25.71" fill="#fff"/><path d="M229.93,24.2s.07-.04,.07-.09c-.12,.04-.11,.06-.07,.09Z" fill="#fff"/><path d="M233.4,25.25c.05-.02,0-.06-.06-.11l-.08,.06s.09,.04,.13,.04Z" fill="#fff"/><path d="M249.13,36.87s0,.01,.01,.02c.05-.01,.1-.02,.13-.02h-.14Z" fill="#fff"/><path d="M249.77,40.27v.02s.05,0,0-.02Z" fill="#fff"/><path d="M242.07,25.32h0s.02,.01,.04,.02l-.03-.02Z" fill="#fff"/><path d="M242.09,25.42c-.06,0-.03-.06-.02-.08-.08-.02-.13,.01-.15,.07,.05,.06,.12-.02,.18,.01Z" fill="#fff"/><path d="M249.29,43.18s-.07-.01-.09-.01h.09Z" fill="#fff"/><path d="M241.22,52.53l-.06-.08s0,.05,.02,.07c.01,0,.03,0,.05,.01Z" fill="#fff"/><path d="M247.26,46.23s.02,.02,.03,.03c.07-.03,.16-.16,.26-.33l-.12-.09-.17,.39Z" fill="#fff"/><path d="M249.72,41.53c.03-.13,.4-.3,.08-.39-.07-.27-.2-.51-.07-.8h0l.03-.04h-.02c.08-.43-.21,.02-.1-.47,.14-.17-.32-.14-.3-.37,.1-.09,.2-.19,.29-.29,.07-.51-1.05-1.53,.08-1.52-.39-.15-.24-.05-.53-.33,.09-.11,.13-.08,.27-.06-.02-.37-.19-.14-.3-.37-.25,.05-.62,.17-.67,.12l-.02,.11c-.24-.14-.41-.33-.48-.62l.1-.06-.22-.2,.11-.11c-.1-.11-.21-.2-.31-.29v.07c-.07-.06-.32-.27-.4-.45l.07-.06c-.19-.58-.76-.59-1.21-.9l.17-.09c-.05-.26-.2,.18-.34-.03l.12-.18c-.33,.11-.18-.2-.24-.37l-.1,.27c-.29-.2-.33-.54-.03-.69l-.29,.08,.1-.23c-.28,.17-.1-.12-.4-.12,.03-.09,.11-.11,.06-.18l-.53,.1h.29l-.2,.29c-.35,.12-.28-.2-.49-.19l.16-.04c-.3-.06-.25-.2-.36-.35,.06,.26-.15,.25-.13,0-.12,.21-.37,.24-.49,.05,.02-.03,.03-.06,.05-.07-.06,.01-.11,.06-.16-.03l.16-.22-.25,.17c-.07-.11-.29,0-.2-.15l.08-.02c-.24-.13-.48-.25-.72-.37l.07-.2c-.18,.24-.36-.26-.47,.09-.08-.25-.58-.07-.36-.43-.42-.2-.81,.09-1.15-.3,0-.39-.38-.47-.48-.61-.34-.11-.51-.09-.73-.38,.42-.27-.25-.56,.09-.84l-.18-.12c.34-.12,.07-.51,.49-.68-.04-.11-.04-.16-.04-.18-.02,0-.06,.01-.17-.04,.12-.04,.13-.27,.33-.13v.03c.21,.15,.07-.31,.32-.28l-.25-.1,.15-.13v.07c.09-1.08,1.09-.87,1.36-1.89,.11,.3,.03-.24,.26-.02,.44,.14,.25-.35,.33-.55-.01-.01-.02-.03-.03-.05l.27-.18c.1,.43-.03-.4,.05-.03,.76-.25,1.46-1,2.27-.98l-.05-.1c.17,0,.36-.15,.47,.04,.05,.09,.1,.02,.18-.05,.16-.32,.46-.13,.33,.04,.16,0,.47-.25,.59,.01-.14,.28,.7,.15,.43,.44l.03-.02c-.08,.31,.45,.34,.27,.63,0,0-.03,0-.05,0,.4,.06,.81,.29,1.11,.66,.43,0,.87-.04,1.32-.14,.39-.38,.72-.88,.91-1.5-1.73-4.51-7.63-5-10.62-1.49-.03,.15-.06,.31-.08,.46-1.13,.35-1.53,1.58-2.48,2.24l.18,.17c-3.39,3.07-.94,8.46,2.82,9.98,.78-.01,1.4,.21,2.04,.54h-.03l.3,.1s0,.05-.03,.06c.41-.05,.79,.39,1.07,.68h-.03c3.42,1.52,3.2,4.88,1.11,7.41-.31,.1-1.82,2.38-1.91,2.62l.45-.08c-.58,.95-1.16,1.19-1.56,2.15l-.02-.08c-.08,.63-.23,.78-1.23,1.51l-.03-.02c-.03,.06,.03,.08-.1,.15,.1-.06,.21-.12,.31-.17-.03,.19,.02,.4-.07,.62-.05,.03-.12,.02-.16,0-.08,.18-.15,.38-.22,.56l-.26,.09c.02,.22,.44,.29,.04,.67,.33-.07,.07,.29,.24,.28-.04,.01-.11,.05-.17,.08-.07,.29-.13,.85-.02,1.01,.11-.16,1.01-.99,1.27-1.03-.21,.31,0,.1,.11,.07l-.06-.05c.15-.18,.31-.11,.4-.18-.01,0-.03,0-.05-.01l.02,.02s-.05-.02-.06-.04c-.04-.01-.06-.03-.03-.08v.02c.03-.09,.12-.22,.16-.27l.14,.06c-.19-.31,.9-.73,.98-.87,.27-.07,.2-.41,.43-.57,.27-.31,.29-.04,.52-.14,.22-.15-.17-.06-.12-.15l.35-.12c-.09,.15,.04,.13,.11,.14,.17-.2,.64-.36,.45-.6,.33-.19,.43-.12,.53-.23-.08,0-.18,.06-.22,.02,.19-.03,.02-.07-.04-.05,.03-.25,1.14-.56,.91-.8l.05,.04c-.16-.19-.4-.28-.4-.48h.15l.02-.2c.13-.03,.15,.05,.17,.07,.07-.27,.4-.47,.62-.7l-.73-.15c.28-.11,.82-.3,.68-.48h.28c.67-.19,.07-.41,.3-.52,.12-.03,.24-.06,.36-.09-.05,.08-.1,.15-.16,.23,.26-.16,.38-.21,.64-.31h0s-.03,0-.05,0l.02-.04c-.12-.41,.16-.82,.6-1.2l-.17-.22,.29-.24,.18,.09c-.16,.3-.39,.9-.61,1.27l.07,.05c.18-.31,.32-1.04,.71-.6l-.1-.24c.39-.83,.39-.82,.91-1.62l-.12,.05c0-.2,0-.4,.18-.4,.2-.55,.45-1.13,.75-1.52l-.22-.12Z" fill="#fff"/><path d="M239.93,51.05h0c-.09-.06-.07-.02,0,0Z" fill="#fff"/><polygon points="245.93 47.57 245.92 47.58 246.08 47.61 245.93 47.57" fill="#fff"/><path d="M243.69,50.53s-.07,.09-.06,.14c.12-.12,.11-.14,.06-.14Z" fill="#fff"/><path d="M239.45,52.69c-.04,.1,.03,.08,.12,.04l.04-.19s-.11,.09-.16,.14Z" fill="#fff"/><path d="M240.92,52.78l.07,.06c0-.06-.03-.07-.07-.06Z" fill="#fff"/></g></svg>