<svg xmlns="http://www.w3.org/2000/svg" width="240" height="142" viewBox="0 0 240 142"><g id="logos"><polygon points="29.61 18.48 0 25.65 0.62 28.2 11.72 25.51 18.63 54.05 26.04 52.26 19.12 23.72 30.23 21.03 29.61 18.48" fill="#fff"/><path d="M53.44,21.15c-2.61-.77-5.68.39-7.87,2.66l-2,2.08L40.28,12.32,33.9,16.05l7.85,32.4,6.88-1.66L44.44,29.51c.83-1,2.82-3.33,4.51-3.71,2.19-.49,2.88,2.45,3.26,4L55.89,45l6.88-1.66L59,27.65C58.24,24.64,56.2,22,53.44,21.15Z" fill="#fff"/><path d="M78.24,15.68c-2.45-.58-6.45.06-9.76,1.42s-5.6,4.38-5.39,7,3.23,3.05,5,1.91c2-1.28,1.55-2.61.79-4.14s.76-3.35,3.24-3.55,3.42,1.42,4,3.65l.54,2.22c-1.17.85-3.35,2.45-5.83,4.29-2.27,1.68-5.92,5.18-5,8.29a6.57,6.57,0,0,0,7.67,4.6,10.55,10.55,0,0,0,6.38-4l.42,1.75,6.88-1.67L83.24,21.32C82.61,18.7,80.68,16.27,78.24,15.68Zm.84,18.52c-.79,1-2.32,2.64-3.79,2.78-2.1.2-3.84-2.62-2.87-4.68s3.37-4.16,4.89-5.39Z" fill="#fff"/><path d="M105.58,27.17s-1,2.74-2.45,3.07c-.89.21-1.45-.74-1.7-1.77L97.76,13.32l6-1.46-.62-2.55-6,1.46L95.29,3.15l-3.8.92-.08,3.2a7.63,7.63,0,0,1-5.22,6.15L86.81,16l.46-.11c1.07-.24,3.65-.7,3.91.38l3.37,13.9c.49,2,1.85,5.26,7.18,4.36A7.75,7.75,0,0,0,108,28.72Z" fill="#fff"/><path d="M110.93,13.82C110.07,14,99.85,2.05,107.65.16S111.78,13.61,110.93,13.82Z" fill="#fff"/><path d="M133.75,5.9A8.73,8.73,0,0,0,125,3.19c-5.61,1.36-8.09,5.25-7.19,9s7.54,5.27,10.14,5.74,4,1.81,4.52,3.35c.43,1.26-.45,3.41-3.13,3.86-3.54.6-5.57-3.27-5.57-3.27l-2.93,2.82a8.77,8.77,0,0,0,8.7,3.14c5.88-1,8.61-4,9-6.72s-1.09-6.87-6.69-8.07-8.39-1.19-8.93-4.36C122.48,6,129,5.18,130.8,7.84Z" fill="#fff"/><path d="M175.94,27.16A8.76,8.76,0,0,0,167,24.87c-5.53,1.62-7.82,5.62-6.75,9.29s7.78,4.91,10.4,5.26,4.07,1.62,4.67,3.14c.49,1.22-.28,3.41-2.94,4-3.5.76-5.72-3-5.72-3L163.9,46.5a8.75,8.75,0,0,0,8.83,2.73c5.84-1.28,8.42-4.37,8.72-7.14s-1.42-6.81-7.06-7.75-8.44-.79-9.13-3.92c-.58-2.65,5.9-3.75,7.83-1.18Z" fill="#fff"/><path d="M192.35,17.17c-7,2.06-11.18,9.13-9.23,15.78s9.24,10.37,16.29,8.31,11.17-9.13,9.22-15.79S199.39,15.1,192.35,17.17Zm6.32,21.48c-3.14.92-6.92-2.57-8.46-7.8s-.22-10.21,2.92-11.13,6.92,2.57,8.46,7.8S201.81,37.73,198.67,38.65Z" fill="#fff"/><polygon points="231.3 141.17 222.23 139.44 230.41 96.72 240 95.75 231.3 141.17" fill="#fff"/><path d="M179.8,99.72c-2.69-2.32-7-2.61-10.78-1.09L165.51,100l3.43-17.89-9.59,1-8.19,42.71,9.07,1.74,4.37-22.78c1.53-.78,5.14-2.43,7.35-2,2.86.6,2.1,4.46,1.7,6.55-.19,1-.42,2.2-.62,3.22h0l-.1.5-.1.53-.12.66,0,.12,0,.18v0l-2.83,14.77,9.07,1.74,3.22-16.8h0l.75-3.9C183.61,106.46,182.64,102.16,179.8,99.72Z" fill="#fff"/><path d="M110.35,87.11c-2.58-2-7.68-3.41-12.35-3.58s-9,2.17-10.15,5.33,2.19,5.37,4.94,5c3.07-.43,3.25-2.26,3.17-4.48s2.71-3.57,5.77-2.47,3.29,3.54,2.72,6.48l-.55,2.92c-1.86.38-5.3,1.11-9.24,1.95-3.62.77-9.83,2.94-10.43,7.13A8.56,8.56,0,0,0,90.85,115a13.79,13.79,0,0,0,9.7-1.25l-.44,2.31,9.07,1.74,4.07-21.27C113.92,93.06,112.94,89.13,110.35,87.11Zm-9,22.44c-1.46.74-4.17,1.89-6,1.26-2.61-.9-3.15-5.18-.89-7.12s6.25-3.1,8.72-3.75Z" fill="#fff"/><path d="M71,110.45l10.48,2L71.12,90.1a11,11,0,0,0,3.11-.53c4.79-1.79,7.71-4.83,8-10.54.32-7.08-8-9.93-12.86-10.87l-5.5-1h0L54.38,65.3l-7.75,40.49,9.44,1.81,3.55-18.55,1.59.27ZM63.15,70.62c2.09.14,7.28.89,9,4.93,2.2,5.11-2.26,9.89-5.45,10.6a16.77,16.77,0,0,1-6.46-.46Z" fill="#fff"/><path d="M136.68,94.45c2.77.54,3.63,2.39,3,4.42s.55,4.26,3.22,4.9,5.89-.92,5.32-4.76c-.48-3.24-3.82-6.57-11-8-9.55-1.83-17,5.5-18.54,13.52s4.56,16.27,11,17.51,11-.62,13.67-3.42a30.7,30.7,0,0,0,4.27-5.68l-4-2.33s-4.13,7.65-9.58,6.61-7-8.55-6.38-11.81S130.16,93.21,136.68,94.45Z" fill="#fff"/><path d="M213.62,125.25s-3.76,6.71-10.23,5.47c-4.47-.86-6.88-6.19-6.82-11.49a17.75,17.75,0,0,1,.39-3.48l21.22,4.07c1-5.39-2.84-13.56-11.39-15.2a16.33,16.33,0,0,0-19.39,13.29c-1.91,9.94,6.76,16.79,14.7,18.31s16-8.91,16-8.91Zm-8.94-17.52c4,.77,4,5.36,3.73,7.42l-10.67-2C199,109.74,201.37,107.1,204.68,107.73Z" fill="#fff"/></g></svg>