<?xml version="1.0" encoding="UTF-8"?><svg id="logos" xmlns="http://www.w3.org/2000/svg" width="260" height="43" viewBox="0 0 260 43"><g id="_Kh7P0.tif"><g><path d="M187.33,7.14l1.37,.07c-.74,6.31-4.93,9.81-9.91,12.85,3.24,1.86,5.81,4.15,5.12,8.42l1.66,.08c-.29,.78-.49,1.48-.8,2.12-1.95,4.01-5.34,6.35-9.35,7.97-6.32,2.55-12.89,3.73-19.7,3.51-.14,0-.28-.05-.56-.11,1.78-9.03,3.56-18.02,5.35-27.07h-1.26c.38-1.88,.73-3.68,1.11-5.46,.37-1.74,.75-3.47,1.19-5.19,.09-.37,.41-.85,.73-.96,4.66-1.52,9.38-2.86,14.32-3.1,2.25-.11,4.45,.2,6.53,1.1,2.79,1.21,3.67,2.42,4.19,5.78Zm-21.63,25.88l.28,.41c1.66-.66,3.35-1.26,4.97-2,.61-.28,1.14-.84,1.56-1.38,.88-1.15,.59-2.52-.75-3.01-1.2-.45-2.5-.61-3.77-.83-.19-.03-.59,.29-.65,.51-.58,2.1-1.1,4.21-1.65,6.31Zm4.22-17.57l.23,.29c1.2-.45,2.44-.83,3.59-1.37,1.26-.59,2.17-1.58,2.47-2.97,.09-.4-.04-.98-.3-1.29-.45-.55-3.75-.48-4.3,0-.08,.07-.15,.17-.18,.27-.51,1.69-1.02,3.38-1.53,5.07Z" fill="#fff"/><path d="M85.7,25.97c1.68,2.83,3.32,5.56,5.01,8.4l-10.35,6.85c-1.99-3.24-3.91-6.36-5.83-9.46-1.12,.21-1.71,.71-1.81,1.91-.14,1.66-.55,3.29-.8,4.94-.12,.79-.47,1.17-1.31,1.34-2.87,.59-5.72,1.29-8.58,1.95-.54,.12-1.08,.21-1.85,.37,1.73-7.59,3.42-15.03,5.14-22.61l-2.38,.21c.43-1.79,.82-3.47,1.23-5.14,.56-2.26,1.12-4.53,1.75-6.78,.11-.38,.5-.84,.87-.97,5.15-1.88,10.43-3.22,15.93-3.54,3.15-.18,6.28,.12,9.12,1.58,1.17,.6,2.06,1.73,3.12,2.57,.29,.23,.77,.45,1.07,.37,1.07-.31,1.51,.09,1.84,1.08,.88,2.58,.28,4.91-1.07,7.11-1.98,3.25-4.91,5.54-7.96,7.69-1,.71-2.02,1.37-3.15,2.13Zm-10.33-5.19c1.55-.62,2.93-1,4.11-1.69,1.74-1.02,3.52-2.09,4.97-3.47,1.39-1.32,.76-2.84-1.16-2.85-2.16-.02-4.33,.42-6.5,.69-.15,.02-.37,.28-.4,.45-.35,2.18-.66,4.37-1.03,6.87Z" fill="#fff"/><path d="M192.91,36.03l-1.55,1.37c-1.06-1.28-1.59-2.76-1.92-4.31-1.84-8.8,1.92-17.66,9.65-22.75,1.3-.85,2.69-1.57,4.11-2.39l-.7-1.81c1.62-.45,3.15-.96,4.73-1.29,3.36-.71,6.74-1.14,10.17-.35,4.38,1.01,7.25,3.93,8,8.26,.86,4.94,.23,9.75-1.48,14.44-.77,2.11-.82,2.08-3.05,1.72-1.38,3.68-3.82,6.56-7.08,8.74-3.24,2.17-6.8,3.47-10.73,3.65-4.36,.21-7.87-1.25-10.15-5.28Zm22.14-17.46c0-2.6-1.01-4-3.28-4.2-.94-.08-1.97-.02-2.84,.29-3.26,1.15-5.61,3.42-7.3,6.37-1.11,1.95-1.79,4.07-1.69,6.36,.1,2.4,1.58,3.88,3.95,3.58,1.26-.16,2.59-.7,3.64-1.43,2.47-1.73,3.9-4.31,5.2-6.96,.15-.31,.53-.76,.77-.74,.94,.08,1.15-.45,1.25-1.18,.09-.69,.2-1.38,.3-2.08Z" fill="#fff"/><path d="M111.57,8.03l-.78-1.87c1.62-.45,3.16-.96,4.74-1.29,3.1-.65,6.21-1.06,9.4-.54,5.24,.87,8.4,4.21,9,9.95,.47,4.44-.1,8.81-1.72,13-.78,2.03-.81,2.02-3.01,1.63-1,2.61-2.52,4.92-4.63,6.8-4,3.57-8.65,5.58-14.05,5.61-4.02,.02-7.2-1.56-9.27-5.27l-1.6,1.35c-1.17-1.49-1.73-3.18-2.04-4.97-1.71-10,3.51-19.28,12.76-23.82,.36-.18,.73-.36,1.19-.58Zm11.81,10.32c-.03-2.67-1.38-4.02-4.08-4.04-2.35-.01-4.2,1.13-5.89,2.58-3.38,2.91-5.41,6.48-5.05,11.09,.15,1.86,1.49,3,3.35,3.06,1.92,.06,3.45-.78,4.81-2,2-1.8,3.35-4.05,4.51-6.43,.16-.34,.59-.78,.88-.77,.89,.02,1.07-.53,1.17-1.17,.13-.77,.19-1.54,.28-2.32Z" fill="#fff"/><path d="M18.53,37.82l1.5-9.01c-2.58,.46-5.02,.88-7.45,1.38-.29,.06-.6,.57-.69,.93-.73,2.99-1.38,5.99-2.11,8.97-.08,.34-.47,.79-.78,.85-2.77,.52-5.56,.97-8.34,1.44-.1,.02-.22-.02-.65-.06L4.12,25.46l-1.43-.37c.59-2.27,1.13-4.56,1.79-6.81,1-3.41,2.1-6.79,3.13-10.19,.21-.7,.57-1.08,1.34-1.26,3.14-.74,6.25-1.58,9.61-2.45-1.26,4.71-2.48,9.25-3.73,13.93,2.18-.54,4.2-1.01,6.18-1.58,.36-.1,.73-.6,.85-.99,1.15-3.71,2.24-7.45,3.4-11.16,.13-.42,.53-.96,.9-1.07,3.58-.98,7.18-1.88,10.78-2.8,.14-.04,.29-.03,.51-.06l-5.52,16.77,2.21,.36c-.74,2.79-1.48,5.52-2.18,8.27-.83,3.27-1.6,6.55-2.43,9.81-.08,.31-.4,.77-.66,.8-3.35,.46-6.71,.85-10.07,1.26-.06,0-.13-.06-.27-.12Z" fill="#fff"/><path d="M63.47,1.23c-.72,3.3-1.39,6.49-2.13,9.66-.07,.31-.55,.67-.9,.76-2.61,.7-5.25,1.32-7.86,2.04-.44,.12-.95,.56-1.14,.97-.7,1.58-1.28,3.22-1.97,5l9.46-1.72c-.6,1.86-1.08,3.51-1.69,5.11-.11,.3-.71,.47-1.12,.6-2.22,.73-4.46,1.41-6.67,2.17-.38,.13-.79,.52-.95,.89-.54,1.29-.96,2.63-1.52,4.2,3.27-.6,6.34-1.16,9.58-1.75-.43,1.75-.81,3.35-1.23,4.95-.05,.18-.27,.43-.43,.45-1.28,.16-1.34,1.16-1.53,2.09-.09,.44-.24,.87-.26,1.31-.07,1.3-.73,1.75-2.01,1.91-5.31,.68-10.59,1.48-15.89,2.24-.29,.04-.58,.04-1.06,.06,1.56-8.17,3.93-16.06,6.03-24.15l-2.46,.14c.42-1.57,.8-3.06,1.22-4.53,.63-2.21,1.32-4.4,1.93-6.61,.21-.76,.53-1.18,1.37-1.31,2.75-.43,5.49-.92,8.23-1.45,.42-.08,.78-.51,1.15-.8,.35-.27,.65-.76,1.03-.81,3.41-.53,6.83-.98,10.26-1.45,.14-.02,.29,.02,.58,.04Z" fill="#fff"/><path d="M230.56,41.69l1.83-9.25c1.25,.08,1.44-.78,1.62-1.75,.43-2.25,.96-4.49,1.38-6.74,.08-.46-.05-1.03-.27-1.45-1.06-1.99-2.18-3.95-3.3-5.96l1.25-.97c-1.68-2.79-3.35-5.57-5.09-8.45,4.24-1.59,8.35-3.13,12.59-4.72,.98,2.68,1.93,5.27,2.95,8.06,2.4-3.57,4.69-6.97,7.03-10.44,3.5,1.43,6.51,3.55,9.46,5.9-2.3,3.32-4.57,6.59-6.87,9.9l-1.22-.56c-3.38,4.44-6.34,9.09-7.41,14.71-.54,2.83-1.15,5.66-1.79,8.47-.09,.39-.43,.94-.74,1.01-3.58,.8-7.19,1.51-10.79,2.25-.14,.03-.29,0-.63,0Z" fill="#fff"/></g></g></svg>