<svg xmlns="http://www.w3.org/2000/svg" width="300" height="51" viewBox="0 0 300 51"><path d="M184.5.82A14.29,14.29,0,0,0,170.23,15.1V42.38a1,1,0,0,0,1,1h4a1,1,0,0,0,1-1V22.6h16.47V42.38a1,1,0,0,0,1,1h4a1,1,0,0,0,1-1V15.1A14.29,14.29,0,0,0,184.5.82ZM176.27,15.1a8.24,8.24,0,0,1,16.47,0v1.46H176.27ZM271.5,1.39V29.47a14.28,14.28,0,1,1-28.56,0V1.39a1,1,0,0,1,1-1h4a1,1,0,0,1,1,1V29.47a8.23,8.23,0,1,0,16.46,0V1.39a1,1,0,0,1,1-1h4A1,1,0,0,1,271.5,1.39Zm-211.17,44v4a1,1,0,0,1-1,1A14.29,14.29,0,0,1,45,36.14V14.7a8.24,8.24,0,0,0-16.47,0V42.38a1,1,0,0,1-1,1h-4a1,1,0,0,1-1-1V14.7A8.24,8.24,0,0,0,6,14.7V42.38a1,1,0,0,1-1,1H1a1,1,0,0,1-1-1V14.7A14.27,14.27,0,0,1,25.53,5.93,14.27,14.27,0,0,1,51.07,14.7V36.14a8.25,8.25,0,0,0,8.23,8.24A1,1,0,0,1,60.33,45.41Zm17.3-45A21.6,21.6,0,1,0,99.23,22,21.62,21.62,0,0,0,77.63.39ZM93.18,22A15.55,15.55,0,1,1,77.63,6.43,15.57,15.57,0,0,1,93.18,22Zm145.36-5.91V37a1.08,1.08,0,0,1-.36.79l-.7.59a21.59,21.59,0,1,1,.65-32.2,1,1,0,0,1,.33.72,1.07,1.07,0,0,1-.27.75l-2.71,2.91a1,1,0,0,1-.72.32h0a1.05,1.05,0,0,1-.71-.27,15.55,15.55,0,1,0-10.59,26.94,15.62,15.62,0,0,0,9.07-2.93V21.08h-7.87a1,1,0,0,1-1-1v-4a1,1,0,0,1,1-1H237.5A1,1,0,0,1,238.54,16.07ZM168.36,1.84v4a1,1,0,0,1-1,1H156.94V42.24a1,1,0,0,1-1,1h-4a1,1,0,0,1-1-1V6.85H140.52a1,1,0,0,1-1-1v-4a1,1,0,0,1,1-1h26.81A1,1,0,0,1,168.36,1.84Zm114.37,5v7.82h13.7a1,1,0,0,1,1,1v4a1,1,0,0,1-1,1h-13.7V37.36H299a1,1,0,0,1,1,1v4a1,1,0,0,1-1,1H277.72a1,1,0,0,1-1-1V1.84a1,1,0,0,1,1-1H299a1,1,0,0,1,1,1v4a1,1,0,0,1-1,1Zm-146-4.72V41.82a1,1,0,0,1-1,1h-.27a1,1,0,0,1-.25,0h-4.49a1,1,0,0,1-.91-.55c-3.29-6.28-11.28-21.54-14.37-27.6l-.3-.59c-2.31-4.55-4.18-8-5.4-8a1.08,1.08,0,0,0-.4.09c-.84.35-.82,4.1-.8,7.12,0,.62,0,1.26,0,1.92V36.68A14.29,14.29,0,0,1,94.23,51a1,1,0,0,1-1-1V46a1,1,0,0,1,1-1,8.25,8.25,0,0,0,8.23-8.24V15.24c0-.61,0-1.2,0-1.77v-.11c0-5.82-.07-10.84,4.53-12.75A7.68,7.68,0,0,1,109.85,0c4.83,0,7.65,5.54,10.63,11.4l.3.58c2,4,6.19,12,9.89,19.06V2.13a1,1,0,0,1,1-1h4A1,1,0,0,1,136.71,2.13Z" fill="#fff"/></svg>