<svg xmlns="http://www.w3.org/2000/svg" viewBox="0 0 300 64"><path d="M8.6 11.23c-1.84 0-3.48.72-4.93 2.17v-1.73H0v24.55h3.67V25.79c1.47 1.49 3.13 2.24 5 2.24 2.15 0 3.94-.79 5.35-2.37 1.43-1.59 2.14-3.58 2.14-5.96s-.72-4.46-2.15-6.06c-1.41-1.61-3.22-2.42-5.4-2.42zm2.53 12.08c-.83.96-1.88 1.44-3.15 1.44-1.35 0-2.44-.47-3.27-1.42-.84-.97-1.26-2.2-1.26-3.69s.42-2.75 1.26-3.69c.84-.94 1.93-1.4 3.28-1.4 1.27 0 2.33.48 3.17 1.45.83.96 1.24 2.2 1.24 3.72 0 1.44-.42 2.63-1.27 3.59zM20.05 0h3.67v27.57h-3.67zM40.1 27.57h3.69v-15.9H40.1v1.84c-1.47-1.52-3.13-2.29-4.98-2.29-2.14 0-3.93.79-5.35 2.38-1.43 1.59-2.14 3.58-2.14 5.96s.71 4.45 2.14 6.07c1.44 1.59 3.25 2.38 5.45 2.38 1.74 0 3.37-.71 4.88-2.12v1.67zm-1.03-4.22c-.84.94-1.94 1.4-3.3 1.4-1.27 0-2.33-.48-3.17-1.45-.82-.96-1.22-2.2-1.22-3.72 0-1.43.42-2.62 1.26-3.59.85-.96 1.9-1.44 3.17-1.44 1.34 0 2.43.47 3.27 1.42.84.97 1.26 2.2 1.26 3.69s-.42 2.72-1.26 3.69zM52.11 19.9c0-1.98.25-3.37.75-4.16.51-.81 1.38-1.21 2.6-1.21 1.12 0 1.89.3 2.32.91.43.6.65 1.68.65 3.25v8.88h3.69v-9.75c0-2.24-.45-3.86-1.34-4.85-1.03-1.16-2.48-1.75-4.33-1.75-1.61 0-3.06.64-4.34 1.91v-1.47h-3.69v15.9h3.69v-7.67zM76.27 24.1c-.6.44-1.35.65-2.27.65-1.18 0-2.14-.38-2.89-1.14-.75-.77-1.18-1.81-1.27-3.12h11.39l.02-.87c0-2.62-.67-4.67-2.02-6.15-1.36-1.49-3.21-2.24-5.55-2.24s-4.18.77-5.58 2.3c-1.39 1.56-2.09 3.59-2.09 6.11s.72 4.57 2.15 6.11c1.44 1.52 3.34 2.29 5.71 2.29.83 0 1.59-.09 2.3-.26.71-.17 1.37-.45 1.98-.82.61-.38 1.18-.85 1.71-1.44.53-.58 1.04-1.28 1.52-2.1l-3.1-1.73c-.75 1.18-1.42 1.98-2.01 2.42zm-5.66-7.84a3.632 3.632 0 0 1 3.15-1.71c1.96 0 3.19.98 3.71 2.94h-7.38c.12-.46.29-.87.52-1.22zM85.66 27.57h3.67V15.1h2.86v-3.43h-2.86V5.84h-3.67v5.83h-1.57v3.43h1.57v12.47zM112.91 28.03c1.49 0 2.98-.39 4.47-1.16v-4.85c-.88 1.07-1.65 1.79-2.3 2.15-.67.38-1.45.57-2.33.57-1.38 0-2.52-.48-3.41-1.44-.88-.96-1.32-2.18-1.32-3.67s.46-2.67 1.37-3.64c.91-.97 2.06-1.45 3.44-1.45.88 0 1.65.2 2.3.59.66.38 1.41 1.08 2.25 2.11v-4.88a9.217 9.217 0 0 0-4.44-1.13c-2.44 0-4.5.82-6.17 2.45s-2.51 3.64-2.51 6.01.83 4.36 2.48 5.96c1.65 1.59 3.71 2.38 6.17 2.38zM131.81 27.57h3.67v-9.75c0-2.22-.46-3.84-1.37-4.85-1.08-1.16-2.51-1.75-4.31-1.75-1.58 0-3.02.59-4.33 1.76V0h-3.67v27.57h3.67v-7.69c0-1.96.26-3.34.77-4.15.52-.79 1.43-1.19 2.71-1.19 1 0 1.73.29 2.18.86.45.57.68 1.49.68 2.77v9.4zM151.86 27.57h3.69v-15.9h-3.69v1.84c-1.47-1.52-3.13-2.29-4.98-2.29-2.14 0-3.93.79-5.35 2.38-1.43 1.59-2.14 3.58-2.14 5.96s.71 4.45 2.14 6.07c1.44 1.59 3.25 2.38 5.45 2.38 1.74 0 3.37-.71 4.88-2.12v1.67zm-1.03-4.22c-.84.94-1.94 1.4-3.3 1.4-1.27 0-2.33-.48-3.17-1.45-.82-.96-1.22-2.2-1.22-3.72 0-1.43.42-2.62 1.26-3.59.85-.96 1.9-1.44 3.17-1.44 1.34 0 2.43.47 3.27 1.42.84.97 1.26 2.2 1.26 3.69s-.42 2.72-1.26 3.69zM169.44 19.85c-.67-.71-1.99-1.48-3.93-2.32-1.41-.6-2.12-1.2-2.12-1.81 0-.35.12-.63.36-.86.24-.22.53-.33.87-.33.71 0 1.3.49 1.78 1.47l3.04-1.62c-.99-2.1-2.5-3.15-4.54-3.15-1.38 0-2.56.45-3.53 1.35-.95.9-1.42 2.05-1.42 3.43 0 1.04.28 1.9.83 2.56.44.52 1.19 1.04 2.25 1.57.38.19.76.36 1.13.54.37.17.74.35 1.11.54.96.57 1.44 1.18 1.44 1.83 0 1.13-.62 1.7-1.86 1.7-.62 0-1.15-.21-1.6-.62-.23-.21-.56-.69-1-1.45l-3.13 1.45c1.11 2.6 3 3.9 5.66 3.9 1.56 0 2.88-.49 3.98-1.47 1.13-1.03 1.7-2.32 1.7-3.85 0-1.2-.34-2.15-1.01-2.86zM186.86 25.51c.53-.58 1.04-1.28 1.52-2.1l-3.1-1.73c-.75 1.18-1.42 1.98-2.01 2.42-.6.44-1.35.65-2.27.65-1.18 0-2.14-.38-2.89-1.14-.75-.77-1.18-1.81-1.27-3.12h11.39l.02-.87c0-2.62-.67-4.67-2.02-6.15-1.36-1.49-3.21-2.24-5.55-2.24s-4.18.77-5.58 2.3c-1.39 1.56-2.09 3.59-2.09 6.11s.72 4.57 2.15 6.11c1.44 1.52 3.34 2.29 5.71 2.29.83 0 1.59-.09 2.3-.26.71-.17 1.37-.45 1.98-.82.61-.38 1.18-.85 1.71-1.44zm-9.26-9.25a3.632 3.632 0 0 1 3.15-1.71c1.96 0 3.19.98 3.71 2.94h-7.38c.12-.46.29-.87.52-1.22zM195.92 19.33c0-3.03 1-4.54 3-4.54.66 0 1.34.25 2.04.75l1.68-3.36c-1.06-.63-2.07-.95-3.04-.95-.73 0-1.36.14-1.89.41-.52.26-1.12.75-1.8 1.45v-1.42h-3.67v15.9h3.67v-8.24zM209.4 24.75c-.62 0-1.15-.21-1.6-.62-.23-.21-.56-.69-1-1.45l-3.13 1.45c1.11 2.6 3 3.9 5.66 3.9 1.56 0 2.88-.49 3.98-1.47 1.13-1.03 1.7-2.32 1.7-3.85 0-1.2-.34-2.15-1.01-2.86-.67-.71-1.99-1.48-3.93-2.32-1.41-.6-2.12-1.2-2.12-1.81 0-.35.12-.63.36-.86.24-.22.53-.33.87-.33.71 0 1.3.49 1.78 1.47l3.04-1.62c-.99-2.1-2.5-3.15-4.54-3.15-1.38 0-2.56.45-3.53 1.35-.95.9-1.42 2.05-1.42 3.43 0 1.04.28 1.9.83 2.56.44.52 1.19 1.04 2.25 1.57.38.19.76.36 1.13.54.37.17.74.35 1.11.54.96.57 1.44 1.18 1.44 1.83 0 1.13-.62 1.7-1.86 1.7zM44.39 45.11c-1.41-.6-2.12-1.2-2.12-1.81 0-.35.12-.63.36-.86.24-.22.53-.33.87-.33.71 0 1.3.49 1.78 1.47l3.04-1.62c-.99-2.1-2.5-3.15-4.54-3.15-1.38 0-2.56.45-3.53 1.36-.95.9-1.42 2.05-1.42 3.43 0 1.04.28 1.9.83 2.56.44.52 1.19 1.04 2.25 1.57.38.19.76.36 1.13.54.37.17.74.35 1.11.54.96.57 1.44 1.18 1.44 1.83 0 1.13-.62 1.7-1.86 1.7-.62 0-1.15-.21-1.6-.62-.23-.21-.56-.69-1-1.45L38 51.72c1.11 2.6 3 3.9 5.66 3.9 1.56 0 2.88-.49 3.98-1.47 1.13-1.03 1.7-2.32 1.7-3.85 0-1.2-.34-2.15-1.01-2.86-.67-.71-1.99-1.48-3.93-2.32zM56.43 33.42h-3.68v5.83h-1.56v3.43h1.56v12.47h3.68V42.68h2.85v-3.43h-2.85v-5.83zM73.8 41.09c-1.47-1.52-3.13-2.29-4.98-2.29-2.14 0-3.93.79-5.35 2.38-1.43 1.59-2.14 3.58-2.14 5.96s.71 4.45 2.14 6.07c1.44 1.59 3.25 2.38 5.45 2.38 1.74 0 3.37-.71 4.88-2.12v1.67h3.69v-15.9H73.8v1.84zm-1.03 9.83c-.84.94-1.94 1.4-3.3 1.4-1.27 0-2.33-.48-3.17-1.45-.82-.96-1.22-2.2-1.22-3.72 0-1.43.42-2.62 1.26-3.59.85-.96 1.9-1.44 3.17-1.44 1.34 0 2.43.47 3.27 1.42.84.97 1.26 2.2 1.26 3.69s-.42 2.72-1.26 3.69zM87.59 39.22c-.52.26-1.12.75-1.8 1.45v-1.42h-3.67v15.9h3.67v-8.24c0-3.03 1-4.54 3-4.54.66 0 1.34.25 2.04.75l1.68-3.36c-1.06-.63-2.07-.95-3.04-.95-.73 0-1.36.14-1.89.41zM95.13 27.58h3.67v27.57h-3.67zM105.29 30.27c-.65 0-1.21.23-1.68.7s-.7 1.02-.7 1.67c0 .67.23 1.25.7 1.71.47.47 1.03.7 1.7.7s1.22-.23 1.68-.7c.47-.47.7-1.03.7-1.7s-.23-1.22-.7-1.68c-.47-.47-1.03-.7-1.7-.7zM103.46 39.25h3.67v15.9h-3.67zM123.49 41.04c-1.33-1.49-2.99-2.24-5-2.24-2.29 0-4.12.86-5.52 2.58-1.3 1.62-1.94 3.59-1.94 5.91s.7 4.37 2.09 5.96c1.38 1.57 3.16 2.35 5.32 2.35 1.9 0 3.59-.75 5.04-2.24v2.22c0 3.3-1.34 4.95-4.03 4.95-1.46 0-2.57-.5-3.33-1.49-.33-.42-.56-1.03-.7-1.81h-3.69c.22 2.08 1.03 3.71 2.45 4.88 1.37 1.14 3.12 1.71 5.24 1.71 2.51 0 4.49-.83 5.93-2.48.76-.86 1.27-1.89 1.53-3.09.09-.44.16-.94.2-1.51.05-.57.07-1.23.07-1.98V39.23h-3.67v1.8zm-.98 9.75c-.82 1.02-1.93 1.53-3.33 1.53s-2.5-.51-3.3-1.52c-.73-.92-1.09-2.11-1.09-3.56s.36-2.67 1.09-3.59c.81-1.03 1.9-1.55 3.3-1.55 1.31 0 2.38.47 3.22 1.42.83.92 1.24 2.16 1.24 3.71 0 1.45-.38 2.63-1.13 3.56zM139.8 38.81c-1.58 0-3.02.59-4.33 1.76V27.58h-3.67v27.57h3.67v-7.69c0-1.96.26-3.34.77-4.15.52-.79 1.43-1.19 2.71-1.19 1 0 1.73.29 2.18.86s.68 1.49.68 2.77v9.4h3.67V45.4c0-2.22-.46-3.84-1.37-4.85-1.08-1.16-2.51-1.75-4.31-1.75zM153.92 33.42h-3.67v5.83h-1.57v3.43h1.57v12.47h3.67V42.68h2.86v-3.43h-2.86v-5.83zM179.11 51.67c-.6.44-1.35.65-2.27.65-1.18 0-2.14-.38-2.89-1.14-.75-.77-1.18-1.81-1.27-3.12h11.39l.02-.87c0-2.62-.67-4.67-2.02-6.15-1.36-1.49-3.21-2.24-5.55-2.24s-4.18.77-5.58 2.3c-1.39 1.56-2.09 3.59-2.09 6.11s.72 4.57 2.15 6.11c1.44 1.52 3.34 2.29 5.71 2.29.83 0 1.59-.09 2.3-.26.71-.17 1.37-.45 1.98-.82s1.18-.85 1.71-1.44c.53-.58 1.04-1.28 1.52-2.1l-3.1-1.73c-.75 1.18-1.42 1.98-2.01 2.42zm-5.66-7.83a3.632 3.632 0 0 1 3.15-1.71c1.96 0 3.19.98 3.71 2.94h-7.38c.12-.46.29-.87.52-1.22zM202.7 39.25h-4.5l-3.61 4.63-3.55-4.63h-4.37l5.71 7.3-7.07 8.6h4.49l4.79-5.94 4.67 5.94h4.37l-6.81-8.6 5.88-7.3zM207.21 41.26c-1.68 1.63-2.51 3.64-2.51 6.01s.83 4.36 2.48 5.96c1.65 1.59 3.71 2.38 6.17 2.38 1.49 0 2.98-.39 4.47-1.16V49.6c-.88 1.07-1.65 1.79-2.3 2.15-.67.38-1.45.57-2.33.57-1.38 0-2.52-.48-3.41-1.44-.88-.96-1.32-2.18-1.32-3.67s.46-2.67 1.37-3.64c.91-.97 2.06-1.45 3.44-1.45.88 0 1.65.2 2.3.59.66.38 1.41 1.08 2.25 2.11v-4.88a9.217 9.217 0 0 0-4.44-1.13c-2.44 0-4.5.82-6.17 2.45zM230.89 51.67c-.6.44-1.35.65-2.27.65-1.18 0-2.14-.38-2.89-1.14-.75-.77-1.18-1.81-1.27-3.12h11.39l.02-.87c0-2.62-.67-4.67-2.02-6.15-1.36-1.49-3.21-2.24-5.55-2.24s-4.18.77-5.58 2.3c-1.39 1.56-2.09 3.59-2.09 6.11s.72 4.57 2.15 6.11c1.44 1.52 3.34 2.29 5.71 2.29.83 0 1.59-.09 2.3-.26.71-.17 1.37-.45 1.98-.82s1.18-.85 1.71-1.44c.53-.58 1.04-1.28 1.52-2.1l-3.1-1.73c-.75 1.18-1.42 1.98-2.01 2.42zm-5.66-7.83a3.632 3.632 0 0 1 3.15-1.71c1.96 0 3.19.98 3.71 2.94h-7.38c.12-.46.29-.87.52-1.22zM239.87 27.58h3.67v27.57h-3.67zM248.2 27.58h3.67v27.57h-3.67zM266.04 51.67c-.6.44-1.35.65-2.27.65-1.18 0-2.14-.38-2.89-1.14-.75-.77-1.18-1.81-1.27-3.12H271l.02-.87c0-2.62-.67-4.67-2.02-6.15-1.36-1.49-3.21-2.24-5.55-2.24s-4.18.77-5.58 2.3c-1.39 1.56-2.09 3.59-2.09 6.11s.72 4.57 2.15 6.11c1.44 1.52 3.34 2.29 5.71 2.29.83 0 1.59-.09 2.3-.26.71-.17 1.37-.45 1.98-.82s1.18-.85 1.71-1.44c.53-.58 1.04-1.28 1.52-2.1l-3.1-1.73c-.75 1.18-1.42 1.98-2.01 2.42zm-5.66-7.83a3.632 3.632 0 0 1 3.15-1.71c1.96 0 3.19.98 3.71 2.94h-7.38c.12-.46.29-.87.52-1.22zM283.05 38.81c-1.61 0-3.06.64-4.34 1.91v-1.47h-3.69v15.9h3.69v-7.67c0-1.98.25-3.37.75-4.16.51-.81 1.38-1.21 2.6-1.21 1.12 0 1.89.3 2.32.91.43.6.65 1.68.65 3.25v8.88h3.69V45.4c0-2.24-.45-3.86-1.34-4.85-1.03-1.16-2.48-1.75-4.33-1.75zM297.14 39.25v-5.83h-3.67v5.83h-1.57v3.43h1.57v12.47h3.67V42.68H300v-3.43h-2.86z" fill="#fff"/></svg>