<svg xmlns="http://www.w3.org/2000/svg" viewBox="0 0 200 158"><path d="M139.77 146.86v-8.25c0-2.41 0-4.82-.06-7.23 0-.35-.35-.99-.52-.98-1.55.06-1.86-.94-2.03-2.15-.04-.27-.22-.52-.55-1.25-.41.74-.85 1.17-.88 1.64-.06 1-.07 1.93-1.05 2.56-.26.17-.48.69-.44 1.02.18 1.7-.95 1.85-2.18 2.03-.55.08-1.06.41-1.6.63.44.38.83.85 1.32 1.14 1.44.86 2.94 1.63 4.38 2.5.22.13.31.56.37.87.06.28-.05.59.01.87.19.81.86 1.94.55 2.35-.66.89-1.82 1.4-2.78 2.06-.11.07-.27.06-.52.12-.13-.51-.26-1-.39-1.51-.79.16-1.54.32-2.3.48-.12-.8-.25-1.6-.39-2.53-2.77.5-1.14-2.85-2.99-3.38-1.03.88-1.04 1.87-.45 3.07.52 1.06.92 2.19 1.18 3.33.07.33-.56 1.18-.82 1.16-1.74-.13-3.5.91-5.28-.18-.41-.25-1.43.27-2.05.63-.41.24-.6.85-1.05 1.54-.58-.95-.97-1.4-1.16-1.92-.38-1.05-.99-1.1-1.79-.53-.88.62-1.6.55-2.51-.09-.5-.35-1.41-.23-2.11-.14-.48.06-.93.44-1.65.8 0-1.15-.13-2.06.03-2.92.25-1.38.71-2.73 1.04-4.1.1-.42.17-.86.14-1.28-.11-1.42-.33-2.83-.38-4.24-.02-.47.39-.95.56-1.44.32-.94.6-1.9.66-2.85-.46.64-.79 1.48-1.4 1.87-.9.56-1.89.75-2.81-.36-.68-.83-1.52-.53-1.82.53-.17.6-.21 1.24-.23 1.87-.04 1.14.11 2.17-.97 3.16-.67.61-.87 2.03.06 3.05.23.25.44.7.38.99-.45 2.09-.94 4.18-1.5 6.24-.09.33-.65.84-.88.79-1.48-.36-2.92-.85-4.55-1.35.1-.23.26-.6.43-.96.7-1.51 1.32-3.01.87-4.77-.12-.46.23-1.1.5-1.57.51-.86.74-1.62.1-2.56-.24-.36-.18-1.1.03-1.54.25-.55.84-.94 1.19-1.46.23-.35.29-.82.42-1.23-.48-.08-1.1-.39-1.41-.2-1.19.75-2.12.54-3.15-.32-.66-.55-1.55-1-2.35-.12-.92 1.01-1.62 1.03-1.85.08-1.05-.39-1.75-.7-2.48-.9-.28-.07-.75 0-.9.2-.15.18-.12.74.05.89.3.27.76.47 1.17.51 1.11.1 1.88.41 1.74 1.77-.03.28.39.77.7.88.92.34 1.24.89.91 1.8-.43 1.17.02 1.78 1.13 2.26.4.17.76.94.74 1.43-.03 1.11-.33 2.21-.47 3.32-.14 1.15-.5 2.03-1.81 2.3-.37.08-.73.58-.95.97-.91 1.59-2.59 1.89-4.06.82-.45-.33-1.18-.41-1.78-.39-1.11.02-1.84-.38-1.95-1.49-.13-1.27-.93-1.65-1.99-1.65-1.2 0-1.54-.58-1.35-1.67.13-.76-.06-1.83.38-2.22.87-.79 2.06-1.24 3.17-1.73.16-.07.76.37.84.67.13.5.15 1.11-.03 1.58-.43 1.16.4 1.58 1.07 2.1.72.57 1.24.15 1.76-.38.19-.19.48-.36.75-.41 2.05-.36 2.05-.35 1.66-2.45-.02-.09-.1-.16-.19-.31-.35.08-.77.33-1.07.22-.44-.16-.89-.5-1.16-.89-.25-.36-.25-1.26-.41-1.28-1.46-.11-1.85-1.1-2.15-2.27-.04-.17-.37-.36-.58-.39-1.72-.2-1.78-1.3-1.53-2.65.07-.4-.15-.84-.23-1.27-.46.21-1.13.29-1.33.64-.58 1.05-1.13 1.72-2.51 2.04-1.18.27-2.13 1.6-3.15 2.5-.18.16-.31.59-.23.81.57 1.57-.4 2.72-1.07 3.92-.47.83-.54 1.57.06 2.28.75.9.74 1.96.09 2.67-.41.45-1.45.38-2.21.42-.42.03-.85-.18-1.27-.3-2.57-.69-3.02-2.62-1.39-4.81.54-.73.29-2.02.53-3.03.16-.69.36-1.52.85-1.95 1.35-1.19 1.41-2.39-.04-3.46-.34-.25-.69-.49-1.03-.72 1.12-1.93.91-2.58-.86-3.88-.44-.32-.54-1.1-.84-1.79-1.57-.46-2.26-.06-2.62 1.66-.22 1.05-.48 2.09-.65 3.14-.16 1-.3 1.89-1.54 2.19-.34.08-.69.68-.79 1.1-.26 1.03-.38 2.1-.54 3.16-.03.18-.08.5 0 .55 1.85 1.09.52 2.7.68 4.05.03.24-.04.48-.05.73-.12 1.54-1.87 3.02-3.36 2.71-.32-.07-.72-.63-.76-.99-.15-1.47.18-3.06-1.35-4.1-.16-.11-.12-.65-.04-.95.66-2.34 1.29-4.69 2.08-6.99.23-.68.99-1.15 1.41-1.79.27-.4.4-.91.5-1.39.01-.06-.67-.41-.81-.32-.39.27-.93.7-.94 1.08-.07 1.94-1.64 1.5-2.7 1.73-1.09.25-1.39-.62-1.58-1.48-.15-.67-.44-1.32-.47-1.98-.04-.67.17-1.35.26-2.03.03-.28.02-.58.02-.86-.27.14-.72.21-.78.42-.37 1.15-.58 2.36-.98 3.5-.31.88-.85 1.69-1.26 2.54-.2.42-.38.85-.51 1.29-.08.27.08.7-.07.83-1.82 1.59-1.03 3.83-1.4 5.75-.24 1.24-.61 1.77-1.92 1.77-2.51-.01-3.96 1.95-3.29 4.42.11.41.69.75 1.11 1.01 1.07.66 1.26 1.38.64 2.55-.85 1.58-1.42 3.3-2.23 4.9-.3.59-.86 1.17-1.45 1.46-1.7.85-3.45 1.6-5.22 2.27-.4.15-1.07-.05-1.46-.31-.47-.31-.81-.83-1.15-1.3-2.39-3.29-2.86-2.5-5.55-1.34-1.56.67-3.15 1.31-4.67 2.07-.83.41-1.38.33-1.83-.46-.02-.04-.05-.09-.07-.13-1.83-2.97-1.8-2.95.44-5.66.89-1.09 2.11-2.12 1.32-4.19-1.78.97-3.5 1.9-5.2 2.86-.42.24-.76.61-1.16.88-.63.43-1.19.46-1.48-.4-.35-1.03-1-1.16-1.95-.74-2.18.96-4.38 1.89-6.58 2.8-.45.19-.95.26-1.7.46.52-1.28.95-2.24 1.3-3.23.29-.82.73-1.69.7-2.52-.08-2.57 1.35-3.62 3.6-4.07.71-.14 1.42-.38 2.08-.69 2.73-1.26 5.45-1.42 8.35-.48 1.39.45 2.99.37 4.49.36 1.7 0 3.68-2.73 3.63-5.03 1.28.41 3.08-.77 3.56 1.68.08.4 1.4.71 2.17.78 1.57.15 2.58.83 3.19 2.32.4.98.31 1.62-.53 2.27-1.56 1.21-1.46 2.97.19 4.05.81.53 1.61 1.09 2.46 1.56.27.15.82.2.97.04.2-.2.14-.67.17-1.02 0-.09-.05-.2-.11-.26-1.6-1.56-1.38-3.09-.08-4.74.81-1.02.55-2.71 2.02-3.41.14-.07.05-.72-.02-1.09-.35-1.68-.22-3.17 1.37-4.26 1.11-.76 1.41-1.83 1.18-3.19-.12-.68.05-1.69.5-2.13 1.22-1.18 1.52-2.65 1.5-4.14-.01-1.28.41-2.09 1.51-2.52 1.43-.57 1.71-1.65 1.38-2.95-.27-1.07.1-1.56 1.12-1.73.29-.05.57-.14.86-.19 1.07-.18 2.31-.85 3.12.27.87 1.2 1.31 2.61.6 4.12-.23.48-.4.98-.6 1.46.54.56 1.03 1.08 1.72 1.8.42-.48 1.1-.9 1.2-1.43.23-1.28.99-1.65 2.12-1.76.63-.06 1.25-.37 1.86-.32.42.03 1 .39 1.18.77.28.6.24 1.5 1.18 1.35.9-.14 1.84-.43 2.59-.91.54-.35.64-1.37 1.66-.94.97.4 1.7.79 1.8 2.13.08 1.04.69 2.34 1.5 2.94 1.17.87 1.39 1.45.34 2.44-.09.08-.07.27-.11.46.89.6 1.72.43 1.99-.52.29-1 .92-1.02 1.69-1.25.82-.25 1.56-.81 2.29-1.3.44-.3.89-1.09 1.17-1.02.65.17 1.25.67 1.75 1.16.27.27.29.79.44 1.27 1.2-.11 2.11-.53 2.46-1.72.28-.96.92-1.26 1.88-1.2.57.03 1.29.06 1.7-.24 1.86-1.38 3.06-.14 4.28.96.27.24.49.78.42 1.13-.22 1.14.47 1.52 1.32 1.71.96.22 1.1-.6 1.27-1.24.44-1.65 1.61-2.45 3.22-1.89.46.16.63 1.12 1 1.84.28-.31.67-.76 1.07-1.19.68-.72 1.64-1.14 2.3-.38 1.16 1.33 2.17.73 3.17.04.85-.59 1.51-.82 2.64-.51 1.14.31 2.48-.19 3.73-.15.51.01 1.17.37 1.48.78.79 1.05 1.25 1.03 2.01-.13.34-.51.88-1.03 1.44-1.22.98-.33 1.73.09 1.85 1.23.08.68.14 1.36.16 2.04 0 .28-.05.6-.19.83-.5.81-3.88 1.92-4.77 1.62-1.46-.5-2.12.01-1.94 1.57.03.29.26.57.4.85.27-.21.51-.49.81-.61.66-.27 1.35-.47 2.04-.65.14-.04.48.17.48.26-.01 1.34.06 2.7-.18 3.99-.07.39-1.04.77-1.63.83-.44.05-.93-.44-1.4-.67-.31-.15-.65-.4-.96-.37-.22.02-.53.4-.58.66-.13.66-.21 1.36-.19 2.03.03.95.88 1.39 1.7.88.62-.39 1.07-.6 1.57.19.13.2.81.27 1.1.13 1.28-.64 1.42-.15 1.25 1.02-.13.89-.03 1.81-.03 2.86.77-.09 1.44-.04 1.98-.28.41-.18.8-.7.91-1.15.12-.48-.06-1.06-.15-1.58-.18-1.04-.87-2.17.69-2.8.16-.07.24-.53.23-.81-.09-2.11-.22-4.21-.33-6.32-.02-.32-.07-.83.11-.95 1.08-.76.79-1.81.62-2.79-.16-.88-.04-1.5.81-1.94.42-.22.76-.6 1.11-.94 1.51-1.43 1.64-1.41 2.58.48 1.08-.29 2.28-.41 3.28-.93 1.13-.6 1.55-.3 1.94.75.57 1.54 1.28 1.65 2.47.45.68-.68 1.29-1.43 2.03-2.03.25-.2.93-.18 1.19.03.57.45 1.24 1.01 1.41 1.65.23.86-.03 1.84.04 2.76.03.37.29.85.6 1.02.22.12.79-.07 1.01-.31.97-1.01 1.87-2.09 2.87-3.24-1.42-.93-1.24-1.72-.11-2.67.44-.37.54-1.2.68-1.84.17-.76.22-1.54.36-2.56.13.22.11.16.08.14-1.94-.8-3.34-1.74-2.25-4.29.23-.54-.88-1.66-1.37-2.52-.18.07-.35.13-.53.2-.06 1.29-.06 2.59-.2 3.87-.07.58-.31 1.21-.66 1.68-.95 1.28-1.98 2.5-3.02 3.7-.23.27-.79.63-.97.53-1.71-.92-3.43-.37-5.14-.11-.8.12-1.52.19-1.76-.76-.28-1.1-.99-1.35-1.98-1.21-1.07.15-1.6-.23-1.72-1.39-.13-1.24-.41-2.48-.82-3.65-.31-.88-.94-1.65-1.48-2.54-1.18.69-1.37 1.72-.93 2.93.67 1.84.46 3.56-.43 5.3-.4.79-.47 1.76-.68 2.65-.15.62-.28 1.24-.42 1.86-.15.02-.29.03-.44.05-.64-1-1.21-2.05-1.93-2.98-.85-1.1-1.85-2.07-2.73-3.15-.25-.3-.39-.75-.43-1.14-.14-1.34-.29-2.6-1.94-3.01-.43-.11-.74-.66-.9-.81-.36.74-.89 1.59-1.16 2.52-.19.67-.39 1.56.83 1.77 1.56.27 2.3 2.32 1.35 3.56-.67.89-1.27 1.85-2.04 2.65-.32.33-1.15.62-1.47.44-1.68-.96-3.05-.49-4.44.57-.4.3-1.38.54-1.48.39-.34-.5-.63-1.23-.54-1.81.25-1.69.05-3.26-1.15-4.46-1.02-1.02-.08-1.84.16-2.68-.98 0-1.81-.17-2.53.06-.46.15-1.06.91-1.01 1.34.12 1.24.1 2.28-.94 3.18-.3.26-.32.88-.43 1.35-.08.33 0 .71-.14 1.01-.3.71-4.14 1.3-4.59.67-.7-.98-1.25-1.03-2.02-.08-.3.37-.87.53-1.32.79-.22-.45-.49-.89-.65-1.36-.41-1.23-.39-2.57-1.93-3.31-.65-.31-.8-1.67-1.17-2.54-1.86.5-1.71.48-1.97-1.3-.16-1.06-.87-2.04-1.34-3.06-.15.04-.3.09-.44.13.06.49.16.98.15 1.47 0 .45-.02.98-.23 1.35-.77 1.33-.69 2.69.3 3.82.18.2.39.48.39.72.04 1.12-2.14 2.51-3.17 2.14-.57-.21-1.22-.22-1.83-.26-.61-.04-1.22 0-2.12 0 .35-.91.59-1.57.87-2.22.17-.4.62-.83.55-1.16-.52-2.49.64-4.61 1.37-6.83.09-.27.12-.6.3-.8 1.79-2.02 1.93-4.51 1.96-7 .02-1.1-.02-2.13 1.03-2.86.25-.17.45-.56.49-.87.05-.45-.06-.93-.11-1.39-.27.29-.63.55-.78.89-.42.93-.94.94-1.52.23-.79-.96-1.54-1.43-2.65-.36-.21.2-.97-.19-1.5-.48-1.19-.01-1.15 1.02-1.17 1.81-.03 1.23-.58 1.92-1.5 2.75-.87.78-1.29 2.18-1.63 3.39-.25.9-.15 1.94-.05 2.9.12 1.15.03 2.12-.64 3.17-.35.54.11 1.6.21 2.43.05.4.11.81.17 1.21-.37.02-.75-.01-1.1.07-.61.15-1.26.26-1.78.58-.79.48-1.49 1.12-2.4 1.58-.11-2.16-1.27-4.02.19-6.3.98-1.54 2.08-3.56 1.54-5.8-.1-.43.4-1.17.83-1.51 1.13-.93 1.58-1.92.9-3.31-.41-.85-.09-1.4.69-1.94.57-.4.89-1.16 1.49-1.99-1.05-.26-1.69-.61-2.26-.52-1.29.21-2.29.06-2.95-1.21-.11-.22-.64-.41-.86-.32-.22.09-.39.52-.43.83-.29 2.07-.59 4.15-.8 6.23-.11 1.05-.26 1.82-1.45 1.05-.36 1.19-.73 2.31-1.05 3.44-.59 2.11-2.24 2.99-4.12 3.63-.55.19-1.23.34-1.57.74-1.22 1.44-2.47.99-3.85.34-1.14-.54-2.39-.85-3.54-1.36-.43-.19-.91-.61-1.07-1.04-.68-1.85-1.39-3.58-3.79-3.59-.16 0-.32-.19-.58-.35.3-.33.7-.58.76-.9.13-.67.25-1.43.03-2.04-.14-.39-.84-.67-1.35-.82-.45-.14-.97-.03-1.45-.05-1-.04-1.39-.5-1.47-1.56-.11-1.47-.56-2.92-.75-4.39-.05-.39.27-.87.52-1.25.77-1.15 1.67-2.21 2.35-3.4.39-.68.02-1.22-.85-1.22-.34 0-.68-.04-1.02-.03-3.21.08-3.8.6-3.9 3.74-.11 3.46-.09 6.92-.25 10.37-.04.79-.55 1.56-.87 2.4.75-.31 1.56-.64 2.66-1.09-.31 1.21-.5 2.14-.82 3.01-.06.17-.69.26-1.02.19-4.03-.89-7.63.16-10.92 2.46-.68.48-1.07.59-1.66-.18-1.6-2.11-1.64-2.08.59-3.44.81-.49 1.63-.98 2.69-1.61-.53-.28-.79-.49-1.07-.54-1.05-.21-2.1-.45-3.17-.53-1.99-.15-3.14-.87-4.27-2.83-1.24-2.14-1.63-4.09-1.58-6.38.02-1.2-.26-2.4-.42-3.78.83-.31 1.74-.61 2.61-.98 2.33-.99 4.65-2.02 6.97-3.02.94-.4 1.71-1.07 1.36-2.09-.22-.65-1-1.15-1.61-1.6-.4-.3-.95-.39-1.81-.71.6-.27.85-.48 1.11-.5 1.94-.13 3.89-.16 5.83-.34 1.01-.1 1.25.26 1.05 1.14-.08.33-.31.69-.24.98.1.4.41.76.63 1.13.28-.31.8-.61.81-.92.02-2.24.05-4.49-.13-6.72-.94-11.99-1.99-23.98-2.9-35.97-.66-8.59-1.17-17.19-1.74-25.79-.04-.56-.11-1.12-.21-2.05-.62.51-.98.78-1.3 1.09-2.44 2.31-4.83 4.67-7.35 6.89-.42.37-1.51.37-2.07.1-2.67-1.3-5.27-2.76-7.9-4.13-.85-.45-1.74-.81-3.04-1.41-1.5 16.73-3.47 33.1-3.47 49.64C-.62 45.32-.32 23.76.52 2.18c.17-.09.34-.19.5-.28.9.68 1.86 1.28 2.69 2.04 4.69 4.33 9.36 8.68 13.99 13.07.97.92 1.52.78 2.32-.23 3.11-3.92 6.29-7.8 9.5-11.65C30.7 3.71 32 2.38 33.3 1.07c.31-.31.83-.42 1.26-.62.19.42.52.82.55 1.25.43 5.87.93 11.75 1.19 17.63.31 7 .42 14.02.55 21.03.03 1.94.89 3.13 2.37 4.36 3.33 2.77 6.44 5.8 9.59 8.77 1.9 1.79 1.86 1.84 3.72.17 4.42-3.97 8.84-7.95 13.28-11.9.36-.32.89-.44 1.35-.66.18.48.48.94.54 1.43 1.01 9.09.51 18.2.08 27.29-.34 7.2-.82 14.39-1.18 21.59-.03.52.31 1.47.6 1.52.76.13 1.77.12 2.34-.3.7-.52 1.11-.46 1.62.02 1.28 1.19 2.66 1.37 4.31.79 1.13-.39 2.37-.49 3.57-.63.76-.09 1.2.16.89 1.12-.43 1.28-.02 1.81 1.36 1.79 1.83-.03 3.65-.18 5.48-.26.38-.02.96-.1 1.12.11.88 1.16 2.16.9 3.32 1.14.5.1.96.41 1.44.61.88.37 1.76.73 2.79 1.15 0-.53.04-.67 0-.7-2.34-1.84-2.92-3.44-1.96-6.34 1.46-4.42 3.86-8.15 8.08-10.49 1.48-.82 3-.78 4.54-.47 1.46.3 2.39 1.28 2.34 2.77-.06 1.73-.11 3.55-.66 5.15-1.23 3.54-3.83 6.21-6.64 8.54-1.11.92-2.83 1.1-4.75 1.78.11 1.26.19 2.94.43 4.61.17 1.22.23 2.24-.85 3.16-.63.53-1.11 1.37-1.39 2.17-.78 2.24-1.96 2.93-4.2 2.36-.45-.11-.96.04-1.57.24 2.21.59 1.29 2.6 1.98 3.83.16.28.15.91.28.92 1.52.18 1.68 1.27 1.83 2.45.01.08 1.03.23 1.11.09.45-.82.87-1.69 1.08-2.59.15-.63-.17-1.37-.06-2.02.11-.63.36-1.43.83-1.77 1.62-1.17 1.93-2.64 1.53-4.46-.09-.4-.05-.91.12-1.27.72-1.5 1.57-2.94 2.26-4.46.29-.64.22-1.42.42-2.11.15-.52.42-1.36.73-1.41 1.65-.24 2.51-1.38 3.38-2.57.13-.18.37-.27.82-.58.07 1.15.04 2.1.22 3 .14.71.56 1.37.83 2.06.2.51.54 1.07.48 1.57-.28 2.33-.49 4.64.38 6.91.07.18.15.42.07.57-1.03 2.04.42 4.02.13 6.04-.03.21.08.59.23.67 1.8.92 1.1 2.52 1 4.34.4-.52.71-.74.72-.96.01-1.63.8-3.33-.63-4.87-.32-.34.05-1.55.38-2.21.81-1.62.75-2.21-.51-3.55-.28-.29-.35-.99-.22-1.41.74-2.47 1.16-4.91.08-7.42-.13-.3.25-.93.55-1.28.29-.34.77-.51 1.36-.87l-1.31-.77c1.97-4.88.85-9.81.63-14.71-.01-.24-.03-.47-.06-.89 2.32-.14 4.59-.29 6.85-.42 1.31-.08 2.63-.17 3.94-.19 1.74-.03 1.89.13 1.85 1.93 0 .46-.09.91-.1 1-1.23-.24-2.3-.58-3.38-.62-1.9-.08-3.8.04-5.7.05-1.03 0-1.55.43-1.46 1.51.04.48.04.97.04 1.46-.01 1.28.69 1.73 1.87 1.61 1.83-.17 3.65-.35 5.61-.54v2.59c-1.93-.07-3.85-.13-5.77-.22-1.19-.05-1.52.5-1.61 1.67-.2 2.55.76 4.49 2.61 6.14.29.26.45.86.41 1.28-.23 2.05-.03 3.94 1.21 5.7.41.58.51 1.48.51 2.23 0 1.59.87 2.57 1.73 3.28.13-.93.39-1.94.38-2.95-.01-.88-.19-1.82-.54-2.62-.43-.98-.89-1.63.25-2.62 1.09-.95.65-2.48.12-3.7-.57-1.32-1.34-2.56-2.03-3.86 1.61-.37 2.81.1 3.66 1.61.52.92 1.03 1.25 2.1.8 1.08-.46 1.72.11 1.52 1.46-.24 1.58-.87 3.1-1.07 4.69-.15 1.14.12 2.33.23 3.49.05.48.14.96.32 1.4.18.43.49.81.74 1.21.32-.39.84-.75.91-1.18.25-1.53.34-3.09.49-4.63.03-.33.07-.67.13-.99.13-.71.47-1.45.38-2.13-.16-1.1.04-1.96 1.01-2.48 1.39-.75 2.8-1.48 4.25-2.1 1.02-.44 2.13-.68 3.19-1.03q2.24-.74 3.26 1.32c.49-.09.99-.19 1.58-.31-.03-.34-.03-.63-.08-.9-.29-1.89-.27-1.58 1.66-1.71 1.28-.09 2.87-.19 3.91-1.54.8-1.05 2.03-1.43 3.39-1.12.99.23 3.8-.82 4.24-1.57.76-1.29.6-1.63-.85-1.86-.14-.02-.29-.05-.42-.1-.08-.03-.15-.12-.3-.25.03-.17 0-.46.13-.61 1.08-1.27 1.29-2.81 1.37-4.37.06-1.03.54-1.28 1.56-1.43 2.59-.4 5.27-.73 7.67-1.71 2.06-.84 3.79-2.5 5.61-3.88.36-.27.55-.93.58-1.43.16-2.52.35-5.05.31-7.57-.06-4.33-.25-8.67-.45-12.99-.09-1.85-.32-3.69-.54-5.53-.12-.98.18-1.5 1.21-1.51 3.6-.05 7.21-.18 10.81-.14 2.01.02 2.45.8 1.98 2.63-3.16-.28-6.28-.62-9.41-.8-2.19-.12-2.31.17-2.19 2.31.13 2.29.12 4.58.2 6.87.07 2.11.09 2.17 2.15 2.1 1.89-.06 3.77-.29 5.65-.36.31-.01.84.43.9.74.14.69.04 1.43.04 2.14-2.25-.11-4.36-.19-6.47-.31-1.84-.1-2.11.12-1.98 1.9.19 2.67.39 5.34.6 8.01.03.32.14.63.33 1.44 3.88-3.01 7.52-5.83 11.45-8.87-.48 2.34-.94 4.35-1.29 6.39-.12.72-.01 1.49.03 2.23.02.33.24.69.18.99-.53 2.67.95 4.64 2.3 6.64.56.83.4 1.24-.45 1.69-4.17 2.21-8.32 4.44-12.46 6.7-.51.28-.92.75-1.24 1.33 1.17-.26 2.34-.53 3.51-.78.87-.18 1.43.12 1.89.95.38.68.99 1.38 1.67 1.73 1.22.63.97 1.16.27 2-1.95 2.36-3.89 4.74-5.73 7.19-1.5 2-1.22 4.46.51 6.21.19.19.28.47.4.67h-9.12c.37-.69.57-1.28.96-1.72.41-.47.99-.78 1.49-1.18 2.47-2.02 3.05-3.95 2.09-7.29-.89.36-1.8.64-2.62 1.09-1.17.64-2.12.45-3.03-.46-.75-.75-1.54-1.47-2.31-2.2.75-1.05 1.6-1.99 2.17-3.08.48-.92.97-2.02.89-3-.11-1.35.45-2.1 1.39-2.81.55-.41 1.05-.88 1.6-1.27.74-.52 1.36-1.13.76-2.04-.6-.92-1.68-1.32-2.54-.66-1.12.85-1.98 2.03-2.95 3.08-.27.29-.51.61-.76.91-.25-.27-.48-.56-.76-.8-.63-.53-1.21-1.21-1.95-1.51-1.28-.51-2.5.5-1.95 1.71 1.31 2.87.02 4.35-2.31 5.69-.65.37-.94 1.35-1.43 2.04-.22.31-.46.77-.76.84-1.68.4-3.4.65-5.07 1.09-.29.08-.47.82-.57 1.28-.15.73-.19 1.48-.31 2.5.64.25 1.62.63 2.72 1.05 0-2.32 2.11-2.09 3.6-2.55.96-.3 1.7.94 1.54 2.24-.09.7-.02 1.41-.12 2.1-.05.31-.25.7-.51.87-.83.56-1.72 1.03-2.58 1.54-.12.07-.29.19-.29.29-.06 1.42-1.18 1.12-2.22 1.2.29 1.19.55 2.29.85 3.51.74-.52 1.36-1.13 2.11-1.42.8-.31 1.84-.08 2.55-.48 1.01-.57 1.82-1.51 2.83-2.39.9.46 1.84 1.09 1.72 2.49-.03.35-.23.91-.45.97-1.43.35-1.4 1.46-1.42 2.54-.02 1.18-.41 1.78-1.7 1.34-.31-.1-.68-.09-1.01-.02-1.86.39-4.42 3.75-4.2 5.64.04.33.63.72 1.05.87.68.25 1.68-.07 1.82 1.04.17 1.34 1.15 2.77-.22 3.97-.96.83-1.65 1.66-1.67 3.05 0 .48-.77 1.07-1.31 1.39-1 .59-1.61 1.36-1.74 2.52-.1.84-.38 1.45-1.22 1.98-1.37.86-1.2 4.51.18 5.53.78.57 1.26 1.13 1.16 2.15-.03.27.31.59.5.88.05.07.23.07.25.13.45 1.41 1.35 2.25 2.85 2.52.15.03.16 1.06.18 1.62.03.67 0 1.35 0 2.24.81-.21 1.54-.64 2.16-.52 1.87.36 3.46.22 5.11-.96.58-.42 1.99.1 2.93.44 1.93.69 2.98-.67 4.24-1.59.1-.08.17-.24.2-.37.12-.58-1.74-3.29-2.37-3.4-.67-.13-1.35-.24-2.03-.27-.93-.05-1.52-.28-1.64-1.41-.05-.44-.81-1.03-1.32-1.13-.89-.17-1.84-.03-2.76.02-.82.04-1.32-.25-1.38-1.12 0-.05-.01-.1-.02-.14-.15-1.33-.9-3.19-.3-3.88 1.07-1.23 2.94-1.76 4.5-2.54.18-.09.52-.06.69.05 1.3.82 2.57 1.68 4.08 2.68-.86.58-1.6 1.02-2.25 1.56-.32.26-.48.71-.72 1.08.38.22.74.54 1.15.63.61.12 1.26.1 1.9.1 1.41-.01 2.48.2 3.26 1.77.41.83 1.97 1.23 3.1 1.54.94.26 1.69.45 2.15 1.46.2.46.96.92 1.49.95 2.47.12 4.95.2 7.41.07 1.2-.06 1.77.27 2.19 1.35.41 1.06.44 1.86-.68 2.46-.42.23-.74.63-1.15.9-1.42.92-2.61 1.95-4.66 1.9-3.42-.08-5.85 2.03-7.58 4.94-.29.49-.97 1.12-1.42 1.08-1.01-.09-2.15-.21-2.5-1.59-.44-1.72-1.41-2.34-3.2-2.25-1.17.06-2.33.16-3.5.21-3.1.14-5.68 1.47-8.1 3.3-1.79 1.36-2.05 1.29-3.74-.19-.15-.13-.3-.25-.45-.37-1.79-1.42-1.85-1.49-.06-3.11 1.74-1.58 1.84-3.62 1.68-5.64-.06-.74-.9-1.64-1.62-2.02-.39-.21-1.41.4-1.92.88-.8.75-1.4 1.7-2.08 2.57-.24-.16-.48-.31-.72-.47zM43.91 99.79c1.31.53 2.3 1.2 3.33 1.29 1.74.16 1.74 1.02 1.29 2.25-.4 1.1.04 1.5 1.11 1.63.46.05 1.09.29 1.27.64.84 1.61 4.05 2.57 5.58 1.49.96-.68 2.38-1.19 1.68-2.93-.09-.22.42-.86.79-1.06 1.09-.6.89-1.07.16-1.89-1.66-1.85-3.78-2.27-6.08-2.32-.69-.02-1.28-.02-1.49-.98-.44-2.03-1.1-4.01-1.57-6.04-.09-.37.2-.93.48-1.25.9-.98 2.01-1.79 2.79-2.85.56-.76.89-1.25 1.94-.86.47.17 1.25 0 1.67-.32.75-.54 1.3-.43 1.4.37.28 2.23 1.94 2.34 3.6 2.65 1.01.18 1.49-.02 1.46-1.12-.03-1.02.07-2.05.03-3.07-.38-10.22-.77-20.44-1.16-30.66-.03-.74-.13-1.49-.22-2.5-.71.39-1.19.6-1.61.89-2.89 1.99-5.78 3.98-8.63 6.02-1.04.74-1.91.87-3.03.07-3.17-2.27-6.41-4.44-9.63-6.63-.48-.33-1.04-.53-1.73-.88v32.95c.88.59 1.52 1.02 2.53 1.69 2.15-.41 4.75-.9 7.37-1.4.06.27.14.41.11.54-.96 3.9-1.41 7.85-1.21 11.87.02.47-.7 1-1.12 1.45-.33.36-.74.64-1.11.96zm86.5 7.06c.09-.1.18-.2.26-.3.69 0 1.37-.04 2.06 0 .97.06 1.54-.12 1.55-1.32 0-.46.68-1.06 1.19-1.33.58-.31 1.31-.36 1.98-.44.87-.11 1.62.01 1.97 1.05.12.35.67.55 1.02.82.23-.44.75-.99.63-1.29-.5-1.22-1.04-2.48-1.88-3.47-.29-.34-1.48.07-2.25.14-.14.01-.29.05-.43.08q-2.11.48-2.46-2.11c-.49.66-.76 1.07-1.08 1.44-.38.45-.72 1.04-1.21 1.24-.53.22-1.22.05-1.76.05-.44.96-.9 1.87-1.29 2.81-.2.48-.52 1.11-.37 1.51.84 2.23 1.13 4.48.78 6.83-.23 1.51 1.09 2.08 1.88 2.99.64.74.95.58 1.39-.13.23-.37.59-.91.92-.93 1.34-.07 2.69.02 4.04.06.49-.04 1.05-.45 1.28-.99.22-.51.24-1.64.1-1.68-1.77-.53-1.7-1.85-1.41-3.23-1.44-.08-2.05.65-2.45 1.78-.35.98-2.92 1.31-3.57.5-.11-.13-.2-.41-.14-.53.69-1.31.48-2.5-.72-3.56zM95.32 93.33c-.03 1.66.75 2.55 2.37 2.45.78-.05 1.66-.29 2.29-.74 1.06-.75 2.01-1.68 2.89-2.64 1.77-1.91 3.18-4.05 3.74-6.65.25-1.15.24-2.46-.85-3-.83-.41-2.14-.48-2.98-.11-4.63 2.03-6.58 6.01-7.46 10.69zm-31.75 7.96c.27-2.93.11-5.61-1.56-7.95-.34-.47-1.35-1.08-1.52-.95-1.24.96-1.78.02-2.55-.66-.41-.36-1.33-.77-1.56-.59-.52.42-.78 1.18-1.12 1.82-.2.38-.29.81-.5 1.18-.21.37-.52.68-.78 1.02.5.17 1 .33 1.49.51.5.19 1.4.36 1.42.62.15 1.41.99 1.35 1.99 1.17.38-.07.76-.14 1.15-.2 1.13-.16 1.91-.1 1.98 1.46.04.86.19 2.12 1.55 2.57zM34.24 92.2c-3.44 2.06-6.56 3.95-8.75 7.53.84 0 1.37.07 1.87-.01 1.58-.27 3.15-.55 4.71-.92 1.02-.24 1.55-.02 1.73 1.08.13.79.44 1.55.67 2.33l.61-.12-.84-9.89zm53.46 14.82c.8-.09 1.42-.23 2.04-.21.9.02 1.2-.41 1.49-1.22.25-.68.97-1.19 1.47-1.78.25-.29.63-.58.67-.9.03-.22-.4-.54-.68-.75-.49-.37-1.01-.69-1.52-1.03-.23-.15-.58-.46-.7-.39-1.04.61-2.07.76-3.16.14-.1-.06-.36.09-.51.19-1.37.9-2.01 3.33-1.26 4.93 1-.37 2.05-.73 2.14 1.03zm-49.1 36.19c-1.54-.38-2.79-.93-4.03-.89-.5.02-.95 1.32-1.45 2.02-.2.27-.54.45-.7.73-.2.35-.4.77-.38 1.14.05 1.03.22 2.05.36 3.28 1.48-.91 2.88-.36 4.35.24.35.14.99-.44 1.68-.78-.47-.39-.61-.53-.77-.63-1.58-.96-1.62-1.17-.61-2.67.48-.71.92-1.45 1.55-2.45zm91.53-11.87c.56-1 1.24-1.91 1.61-2.93.28-.77-.21-1.53-1.12-1.48-1.38.06-2.59 1.59-2.65 3.1.57.35 1.14.69 2.15 1.31zm-28.09-25.87c-.14.03-.29.07-.43.1.03.58.1 1.17.09 1.75 0 .39-.08.8-.22 1.16-.39.98-.84 1.94-1.27 2.91l.47.28c.76-.56 2.01-1 2.19-1.71.34-1.32-1.22-2.65-.41-4.18.01-.03-.26-.21-.41-.32zm39.08.79c-.35 2.68-.32 2.78 1.12 3.53.54-1.52.22-2.53-1.12-3.53z" fill="#fff" stroke-width="0"/><path d="M115.83 23.11c2.23 1.99 4.07 3.7 5.99 5.32 1.66 1.4 3.42 2.7 5.13 4.04.08.06.2.11.22.19.27 1.66-1.36 2.05-2.09 3.03-.58.78-1.01.14-1.45-.4-2.51-3.1-5.05-6.16-7.59-9.23-.27-.32-.63-.56-1.12-1-.11.51-.25.81-.23 1.1.17 2.18.37 4.37.58 6.55.03.33.08.73.28.96 1.12 1.34.2 1.62-.91 1.81-.79.13-1.59.24-2.18.33 0-5.75.03-11.32-.01-16.89-.03-3.79-.18-7.59-.2-11.38 0-.45.39-1.25.72-1.31 4.3-.81 8.64-1.35 12.67.97 3.33 1.92 4.05 5.61 2.01 8.97-1.53 2.51-3.83 3.97-6.47 5-1.61.63-3.26 1.18-5.32 1.92zm-1.51-8.74h.02c0 1.71-.02 3.41 0 5.12.02 1.44.38 1.72 1.8 1.36 1.18-.31 2.37-.62 3.49-1.09 2.07-.87 4.19-1.74 5.42-3.79 2.2-3.68 1.46-7.19-3.17-8.03-1.98-.36-4.06-.15-6.09-.19-1.11-.02-1.54.54-1.5 1.65.07 1.65.02 3.31.02 4.97zM147.35 62.44c1.04.92 1.86 1.66 2.71 2.37 2.24 1.87 4.47 3.75 6.76 5.57.71.57 1.62.89 2.33 1.46.28.22.51 1.01.36 1.18-.89.99-1.89 1.87-2.99 2.91-.53-4.24-4.05-5.88-6.3-8.46-1.08-1.25-2.48-2.22-4.08-3.61-.1 3.41-.42 6.35.37 9.24.22.79.32 1.32-.6 1.56-.97.26-1.93.51-2.9.77.13-.82.36-1.63.39-2.45.15-5.3.28-10.61.37-15.91.05-2.92 0-5.84.08-8.76.01-.47.39-1.22.77-1.36 3.02-1.13 6.08-2.17 9.39-1.51 2.81.56 4.18 2.23 4.25 5.11.11 4.7-2.85 7.33-6.44 9.51-1.36.82-2.81 1.5-4.47 2.38zm-1.8-8.01h.05c0 1.6.03 3.21 0 4.81-.03 1.22.54 1.48 1.56 1.03 3.22-1.4 6.06-3.34 8.13-6.21 1.08-1.5 1.07-3.22.26-4.85-.67-1.37-2.05-1.61-3.37-1.61-1.64 0-3.29.2-4.93.38-1.2.13-1.78.79-1.7 2.08.08 1.45.02 2.92.02 4.37zM189.04 8.82c-.81.94-1.64 1.92-2.6 3.04-.19-.43-.35-.66-.4-.91-.76-3.58-3.35-4.85-6.62-3.18-2.74 1.4-4.83 3.43-5.78 6.46-.42 1.35-.61 2.7.39 3.88 1.01 1.19 2.38 1.18 3.78.9 1.1-.22 2.22-.38 3.28-.71 3.31-1.05 7.66 1.54 7.2 6.06-.52 5.05-2.95 9.6-8.04 11.35-2.89.99-4.92.43-6.94-1.83-.63-.7-1.47-1.22-2.44-2.01.88-.94 1.75-1.88 2.85-3.05.4 1.27.59 2.12.92 2.91.81 1.99 2.52 2.83 4.5 2.02 3.61-1.47 6.1-3.96 6.69-7.99.54-3.71-1.9-6.07-5.58-5.34-.81.16-1.59.44-2.38.69-3.31 1.03-6.41-1.06-6.61-4.52-.22-3.65 1.54-6.5 4.06-8.85 1.14-1.06 2.7-1.72 4.13-2.43 2.63-1.31 4.91-.45 7 1.29.81.67 1.6 1.37 2.62 2.24zM108.05 18.08c0 1.09.15 1.99-.06 2.8-.1.39-.9.85-1.37.84-1.9-.03-3.79-.26-5.69-.34-2.28-.1-2.39 0-2.34 2.32.05 2.63.21 5.25.26 7.88.03 1.42.64 2.08 2.07 1.93 2.75-.31 5.51-.59 8.26-.95.8-.1 1.47-.23 1.66.82.21 1.23-.27 2.13-1.29 2.14-3.85.05-7.7.09-11.55.01-.44 0-1.13-.73-1.24-1.22-.23-1.03-.18-2.13-.18-3.2-.01-5.55-.02-11.1 0-16.66.01-2.38.16-4.77.19-7.15 0-.86.35-1.27 1.18-1.31 1.85-.09 3.7-.18 5.55-.26 1.94-.08 3.89-.17 5.84-.22.34 0 .97.17.98.3.07.85.05 1.73-.05 2.58-.01.12-.65.25-.99.23-2.82-.1-5.63-.26-8.45-.36-.97-.03-1.5.42-1.55 1.5-.12 2.63-.3 5.25-.53 7.87-.09 1.07.38 1.46 1.34 1.37 2.23-.21 4.45-.44 6.67-.68.37-.04.74-.13 1.31-.24zM168.94 5.49c-2.33 1.95-1.15 4.12-1.25 6.04-.32 5.83-.26 11.68-.63 17.5-.17 2.75-1.09 5.37-4.07 6.59-2.23.91-4.76.4-6.42-1.38-2.39-2.57-2.64-5.79-2.67-9.02-.04-4.92.09-9.83.12-14.75 0-1.07-.16-2.13-.14-3.2.01-.4.25-.96.56-1.15.5-.31 1.15-.38 1.74-.54.06.58.22 1.18.17 1.75-.64 7.57-1.53 15.14.27 22.67.22.94.72 1.98 1.42 2.62 2.86 2.62 5.6 1.81 6.18-2.01.63-4.17.85-8.41 1.04-12.63.14-3.11-.02-6.23-.12-9.34-.03-.91-.18-1.83-.44-2.7-.23-.77.04-1.08.71-1.01 1.04.1 2.07.34 3.52.58zM186.71 68.95c.05.61.06 1.22.14 1.83.29 2.08 1.32 2.77 3.35 2.26 2.05-.51 3.55-1.87 4.75-3.47 1.15-1.54 2.26-3.2 2.94-4.97.95-2.48-.72-4.63-3.4-4.62-1.2 0-2.45.19-3.59.57-5.57 1.86-7.67-2.66-6.92-6.5.67-3.43 2.23-6.51 5.23-8.48 1.28-.84 2.96-1.25 4.5-1.44 1.28-.16 2.52.4 3.35 1.68.44.68 1.27 1.11 1.93 1.66-.81.83-1.71 1.74-2.72 2.76-.08-.33-.18-.54-.18-.76 0-2.34-1.89-3.67-4.04-2.6-3.35 1.66-5.54 4.27-5.76 8.16-.17 2.96 1.8 4.38 4.76 3.56 1.3-.36 2.63-.77 3.96-.84 2.07-.12 4.19 1.67 4.68 3.69.9 3.69-.48 6.72-2.93 9.32-1.33 1.41-2.84 2.67-4.42 3.79-2.73 1.95-5.08 1.64-7.42-.74-.55-.56-1.57-1.15-1.53-1.65.06-.67.95-1.26 1.48-1.89.44-.52.88-1.05 1.32-1.58.16.08.33.17.49.25zM104.52 50.6c-.37-.74-.54-1.02-.66-1.33-.79-2.05-2.41-2.69-4.46-1.8-2.11.92-3.46 2.65-4.72 4.45-.67.95-1.22 2-1.72 3.05-.72 1.51-.54 3.01.6 4.21 1.03 1.09 2.38.97 3.68.45 1.9-.76 3.74-1.63 5.9-1.44 2.33.2 3.83 1.43 4.11 3.78.54 4.53-1.32 8.18-4.47 11.23-1.14 1.1-2.49 2.03-3.87 2.82-2.1 1.2-4.03.57-5.78-.89-1.07-.9-2.21-1.72-3.27-2.63-.22-.19-.41-.77-.3-.92.88-1.13 1.85-2.19 3.11-3.65.21 1.08.36 1.7.44 2.33.46 3.92 3.33 5.27 6.53 2.96 2.66-1.92 4.82-4.34 5.42-7.7.76-4.22-1.28-5.81-5.05-4.94-1.04.24-2.03.69-3.04 1.04-3.38 1.14-6.11-.65-6.09-4.21.01-1.61.22-3.48 1.06-4.76 1.52-2.33 3.39-4.52 5.46-6.38 2.19-1.96 5.51-1.93 7.3.11.03.04.08.06.11.09.58.44 1.73 1.15 1.66 1.28-.44.92-1.13 1.71-1.95 2.85zM59.87 30.47c.04.46-.07 1.01.15 1.37.56.96 1.1 2.04 1.94 2.69.92.7 2.11.33 2.95-.46 2.56-2.42 4.56-5.21 5.19-8.77.51-2.88-1.05-4.31-3.91-3.65-1.23.28-2.41.81-3.64 1.07-2.9.59-4.7-.91-4.87-3.88-.32-5.6 3.41-9.82 7.7-12.12 1.7-.91 3.41-.44 5.09.18.94.35 1.91.62 2.83 1.01.25.11.58.67.5.8-.7 1.13-1.48 2.21-2.49 3.66-.21-.81-.33-1.1-.36-1.4-.16-1.72-1.14-2.72-2.86-2.57-1.08.1-2.24.41-3.15.97-2.64 1.62-4.35 4.01-5.08 7.04-.16.65-.18 1.36-.11 2.02.21 1.79 1.39 2.51 3.13 1.96 1.39-.44 2.75-1.02 4.16-1.36 3.03-.73 5.23 1.06 5.23 4.16 0 4.85-1.93 8.91-5.29 12.27-2.62 2.62-5.47 2.49-8.1-.06-.56-.54-1.35-.85-2.32-1.44l2.74-3.71.57.21zM127.89 47.54c0-1.88.06-1.98 1.97-2.01 3.46-.06 6.92-.09 10.38-.1 1.48 0 2.37 1.27 1.86 2.65-.09.24-.7.56-.82.48-2.03-1.37-4.35-.88-6.54-.97-4.39-.17-4.41-.09-4.72 4.27-.12 1.7-.12 3.41-.2 5.11-.06 1.12.45 1.69 1.55 1.58 2.03-.21 4.07-.4 6.07-.79 1.28-.25 1.74.08 1.66 1.33-.02.34.03.68.06 1.02.06.87-.33 1.04-1.16.95-2.22-.23-4.45-.34-6.68-.5-.91-.06-1.36.31-1.29 1.28.2 3.16.39 6.31.54 9.47.05 1.02.59 1.39 1.51 1.33 2.81-.19 5.63-.37 8.43-.63.8-.07 1.45-.12 1.33.89-.11.91.66 2.44-1.2 2.37-3.8-.15-7.59-.42-11.38-.64-1.1-.07-1.11-.86-1.11-1.69 0-4.33-.24-21.27-.24-25.41zM151.45 30.14c-.09 1.09-.48 2.2-.95 3.2-1.88 3.91-5.99 4.41-8.94 1.24-1.85-1.98-2.52-4.41-2.69-6.94-.4-6.18-.35-12.35.88-18.46.32-1.57 1.09-2.89 2.48-3.81 2.23-1.48 4.4-1.32 6.36.54 1.93 1.84 2.98 4.09 3.06 6.74.07 2.63.07 14.31-.2 17.5zm-1.49-15.05c-.03-2.48-.49-4.84-2.05-6.87-1.78-2.33-4.26-2.26-5.82.24-.45.72-.83 1.59-.93 2.43-.68 5.91-1.05 11.83-.22 17.76.29 2.11 1.18 3.89 2.88 5.24 1.74 1.38 3.77 1.04 4.68-.94.57-1.22 1.09-2.54 1.23-3.86.31-2.99.25-12.34.24-13.99zM95.23 9.28c-.5-.13-.98-.31-1.49-.38-2.16-.31-4.33-.63-6.5-.88-.88-.1-1.01.55-1 1.25.14 5.21.26 10.42.41 15.63.06 2 .14 4 .34 5.98.12 1.19.53 2.35.73 3.53.06.37-.07 1.07-.28 1.14-1.4.48-2.85.84-4.22 1.21-.16-.27-.27-.39-.25-.43 1.73-3.05 1.27-6.44 1.36-9.69.15-5.7-.04-11.4-.05-17.1 0-1.09-.37-1.53-1.47-1.35-2.3.39-4.62.67-6.9 1.15-1.09.23-1.42-.03-1.43-1.08-.02-2.35.12-2.54 2.41-2.55 5.26-.01 10.53-.02 15.79 0 2.51 0 3.14.87 2.53 3.56zM115.39 75.93c.14-3.65.32-6.97.39-10.3.11-5.5.12-11 .21-16.5.02-1.03-.32-1.59-1.43-1.47-1.94.2-3.89.39-6.04.6-.78-1.3-.2-2.65 1.65-2.7 4.87-.12 9.74-.2 14.6-.25 1.6-.02 1.88.69 1.2 3.15-2.02-1.43-4.32-.93-6.54-1.11-1.16-.09-1.6.28-1.55 1.45.28 7.49.49 14.99.83 22.48.04.95.67 1.88 1.13 3.11-1.31.46-2.89 1-4.45 1.55zM69.44 48.25c.82-.96 1.62-1.89 2.57-3.01 1.23 4.29 4.23 7.26 6.14 10.87.14.26.31.5.48.73.94 1.32 1.21 1.35 2.23.03 2.35-3.04 4.71-6.07 6.99-9.17.5-.68.66-1.61 1.09-2.72 1 .61 2.1 1.28 3.18 1.95-4.66 3.39-7.29 8.3-10.78 12.45-.47.56-.59 1.55-.6 2.34-.07 3.5-.11 7.01 0 10.51.02.65.78 1.27 1.34 2.13-1.32.57-2.85 1.24-4.39 1.9 1.17-2.08.73-4.22.82-6.25.13-2.97.12-5.94.06-8.91-.01-.73-.25-1.57-.66-2.17-2.11-3.1-4.28-6.16-6.5-9.18-.42-.58-1.18-.91-1.99-1.52zM49.44 36.11l-3.88 1.09c1.14-4.47.29-8.6.53-12.69.26-4.34-2.52-7.2-4.48-10.49-.6-1-1.22-1.99-1.9-2.94-.85-1.18-1.78-2.3-2.89-3.71.59-.49 1.46-1.22 2.18-1.82 2.47 4.31 4.83 8.42 7.18 12.54.52.92 1.07.93 1.61.05 1.54-2.48 3.11-4.94 4.58-7.46.78-1.33 1.35-2.78 2.11-4.12.15-.26.69-.44 1.03-.41.47.04.92.3 1.36.49.75.31.85.66.18 1.25-.79.7-1.61 1.43-2.18 2.29-2.09 3.16-4.14 6.36-6.09 9.61-.49.82-.77 1.91-.76 2.87.03 3.06.16 6.13.41 9.19.11 1.31.59 2.59 1 4.25zM164.02 45.54c-.97 8.78-1.36 17.35-.19 25.94.09.67.23 1.35.5 1.97.45 1.04 0 1.45-.95 1.6-.29.05-.58.08-.87.11-1.97.19-2.01.13-1.7-1.82.16-1.01.32-2.03.31-3.04-.1-7.15-.25-14.31-.39-21.46 0-.24-.03-.49-.08-.73-.45-2.38-.26-2.61 2.25-2.68.37-.01.75.07 1.12.11zM132.74 36.48c.78-9.14-.79-18.05-.97-27.01-.02-.93-.67-1.86-1.13-3.06.99-.19 1.99-.39 3.32-.64-1.51 3.61-.42 6.88-.29 10.13.13 3.26.53 6.5.8 9.76.18 2.09.35 4.17.52 6.26.04.44-.07 1 .16 1.29 1.37 1.74.02 2.18-1.21 2.71-.42.18-.83.39-1.2.56z" fill="#fff" stroke-width="0"/></svg>