<?xml version="1.0" encoding="UTF-8"?><svg id="logos" xmlns="http://www.w3.org/2000/svg" width="250" height="56" viewBox="0 0 250 56"><path d="M14.59,6.16c.17-1.07-.07-1.84-.72-2.32-.65-.48-1.9-.77-3.75-.89-1.13-.06-1.69-.48-1.69-1.27,0-.22,.03-.48,.08-.76,.06-.28,.14-.59,.25-.93H27.52c2.92,0,5.36,.28,7.3,.84,1.94,.56,3.5,1.34,4.68,2.32,1.18,.98,2.01,2.14,2.49,3.46,.48,1.32,.72,2.74,.72,4.26,0,2.92-1.08,5.71-3.25,8.35-2.17,2.64-4.99,4.7-8.48,6.16,3.49,.56,6.35,1.74,8.6,3.54,2.25,1.8,3.37,4.36,3.37,7.68,0,2.76-.61,5.24-1.81,7.47-1.21,2.22-2.87,4.13-4.98,5.74s-4.55,2.84-7.34,3.71c-2.78,.87-5.78,1.31-8.98,1.31H9.87c-1.13,0-2.55,.04-4.26,.13-1.72,.08-3.5,.24-5.36,.46-.17-.56-.25-1.07-.25-1.52,0-.73,.48-1.21,1.43-1.43,1.57-.28,2.73-.7,3.46-1.27,.73-.56,1.21-1.35,1.43-2.36L14.59,6.16Zm1.43,43.19c-.11,.73-.06,1.22,.17,1.48,1.53,.56,4.61,.14,6.52-.34,1.91-.48,3.57-1.25,4.98-2.32,1.41-1.07,2.5-2.47,3.29-4.22,.79-1.74,1.18-3.88,1.18-6.41,0-3.09-1.07-5.45-3.21-7.09-2.14-1.63-3.26-2.45-7.19-2.45h-1.6l-4.13,21.34Zm4.81-25.05c4.61,0,6.04-1.22,8.12-3.67,2.08-2.45,3.12-5.64,3.12-9.58,0-2.42-.86-7.42-6.86-7.42h-.51l-3.88,20.67Zm31.64,15.99c-.13,.74,.02,1.31,.46,1.73,.43,.41,1.26,.73,2.48,.94,.65,.13,1.1,.29,1.34,.49,.24,.2,.36,.47,.36,.81,0,.17-.02,.36-.06,.55-.04,.2-.09,.4-.13,.62-1.65-.13-3.2-.24-4.66-.33-1.46-.09-2.79-.13-4.01-.13-1,0-3.66,.32-4.08-.2s.45-3.64,.63-4.42L51.18,7.13c.17-.78,.07-1.35-.29-1.69-.37-.35-1.04-.7-2.08-.88-1.13-.17-1.69-.56-1.69-1.17,0-.3-.04-.35,.18-.92,2.02,0,7.75,.17,8.83,.17h5.21c4.3,0,7.69,.89,10.16,2.67,2.47,1.78,3.71,4.17,3.71,7.17,0,1.3-.19,2.57-.55,3.81-.37,1.24-.99,2.39-1.86,3.45-.87,1.06-2,2.03-3.39,2.9-1.39,.87-3.08,1.56-5.08,2.08l9.48,23.96c.29,.55,.91,1.19,2.31,1.19,2.23,0,168.3,.1,168.64,.1,1.37,0,1.07,5.38,.08,5.38-.22,0-168.15,0-168.54-.02-1.34-.03-3.41-.1-4.38-.04-1.13,.07-2.07-.26-2.83-.78-.76-.52-1.47-1.41-2.12-2.67l-10.53-26.91,.46-1.56c6.69-.26,10.03-3.82,10.03-10.68,0-.95-.12-1.88-.36-2.77-.24-.89-.64-1.67-1.21-2.35-.57-.67-1.28-1.21-2.15-1.6-.87-.39-1.93-.59-3.19-.59h-.91l-6.64,34.91Zm58.16,3.06c-.24-.13-.62-.24-1.14-.33-.61-.19-1.94-1.06-2.17-2.54L100.03,2.31c-.39-.3-.87-.46-1.43-.46-.61,0-1.09,.3-1.43,.91l-20.65,37.85c-.6,1.03-1.81,1.77-3.4,2.22,.38,.74,.76,1.48,1.1,2.24,.19-.01,.38-.03,.51-.03,1.02-.04,1.94-.06,2.77-.06,1.13,0,2.33,.04,3.62,.13,1.28,.09,2.75,.2,4.4,.33,.13-.43,.2-.8,.2-1.11,0-.48-.41-.78-1.24-.91-1.17-.17-2.18-.43-3.03-.78-.85-.35-1.27-.87-1.27-1.56,0-.35,.09-.67,.26-.98l5.02-9.18h12.38l1.56,9.38c.04,.13,.06,.35,.06,.65,0,1.26-.89,2.02-2.67,2.28-.48,.09-.8,.23-.98,.42-.17,.2-.26,.42-.26,.68,0,.35,.06,.72,.2,1.11,.61-.04,1.28-.1,2.02-.16,.74-.06,1.5-.12,2.28-.16,.78-.04,1.54-.08,2.28-.1,.74-.02,1.41-.03,2.02-.03,1.48,0,2.87,.04,4.17,.13,1.3,.09,1.24,.17,2.37,.26,.04-.22,.08-.42,.1-.62,.02-.2,.03-.36,.03-.49,0-.48-.12-.78-.36-.91Zm-23.57-15.44l7.88-14.92,2.35,14.92h-10.23Zm25.5,16.81c-.09-.22-.11-.44-.07-.68,.04-.24,.2-.51,.46-.81L140.28,5.11h-6.47c-1.17,0-2.2,.09-3.09,.26-.89,.17-1.72,.5-2.48,.98-.76,.48-1.46,1.13-2.08,1.95-.63,.83-1.27,1.89-1.92,3.19-.22,.48-.47,.79-.75,.94-.28,.15-.68,.23-1.21,.23-.35,0-.71-.06-1.08-.2-.37-.13-.62-.26-.75-.39,.65-1.65,1.23-3.23,1.73-4.76,.5-1.52,.73-2.65,.95-3.65,.13-.56,.31-.95,.55-1.17,.24-.22,.66-.33,1.27-.33s1.14,.02,1.6,.07c.46,.04,4.52,.13,5.43,.13h18.46c.09,.26,.13,.53,.13,.82s-.15,.6-.46,.95l-26.94,37.84h8.32c1.17,0,2.21-.16,3.13-.49,.91-.33,1.75-.81,2.51-1.47,.76-.65,1.5-1.48,2.21-2.48,.72-1,1.49-2.17,2.31-3.52,.22-.35,.41-.61,.59-.78s.43-.26,.78-.26c.39,0,.78,.09,1.17,.26,.39,.17,.72,.39,.98,.65-.74,1.52-1.36,3.12-1.86,4.79-.5,1.67-.97,3.43-1.4,5.27-.09,.47-.25,.78-.49,.92-.24,.15-.47,.22-.68,.22-.91,0-1.89-.07-2.93-.2s-2.32-.2-3.84-.2h-21.41Zm32.4,0c-.09-.22-.11-.44-.07-.68,.04-.24,.2-.51,.46-.81L172.68,5.11h-6.47c-1.17,0-2.2,.09-3.09,.26-.89,.17-1.72,.5-2.48,.98-.76,.48-1.46,1.13-2.08,1.95-.63,.83-1.27,1.89-1.92,3.19-.22,.48-.47,.79-.75,.94-.28,.15-.68,.23-1.21,.23-.35,0-.71-.06-1.08-.2-.37-.13-.62-.26-.75-.39,.65-1.65,1.23-3.23,1.73-4.76,.5-1.52,.73-2.65,.95-3.65,.13-.56,.31-.95,.55-1.17,.24-.22,.66-.33,1.27-.33s1.14,.02,1.6,.07c.46,.04,4.52,.13,5.43,.13h18.46c.09,.26,.13,.53,.13,.82s-.15,.6-.46,.95l-26.94,37.84h8.32c1.17,0,2.21-.16,3.13-.49,.91-.33,1.75-.81,2.51-1.47,.76-.65,1.5-1.48,2.21-2.48,.72-1,1.49-2.17,2.31-3.52,.22-.35,.41-.61,.59-.78s.43-.26,.78-.26c.39,0,.78,.09,1.17,.26,.39,.17,.72,.39,.98,.65-.74,1.52-1.36,3.12-1.86,4.79-.5,1.67-.97,3.43-1.4,5.27-.09,.47-.25,.78-.49,.92-.24,.15-.47,.22-.68,.22-.91,0-1.89-.07-2.93-.2s-2.32-.2-3.84-.2h-21.41ZM202.8,1.86c2.78,0,5.23,.45,7.36,1.34,2.13,.89,3.91,2.11,5.34,3.65,1.43,1.54,2.52,3.37,3.26,5.47,.74,2.11,1.11,4.38,1.11,6.81,0,3.95-.63,7.56-1.89,10.81-1.26,3.26-2.99,6.06-5.18,8.4-2.19,2.35-4.79,4.17-7.78,5.47s-6.23,1.95-9.71,1.95c-2.69,0-5.06-.48-7.1-1.43-2.04-.95-3.76-2.24-5.15-3.84-1.39-1.61-2.43-3.47-3.13-5.6-.7-2.13-1.04-4.34-1.04-6.64,0-3.47,.6-6.81,1.79-10,1.19-3.19,2.85-6,4.98-8.44,2.13-2.43,4.65-4.36,7.56-5.8,2.91-1.43,6.1-2.15,9.58-2.15Zm-5.86,40.97c2.52,0,4.69-.67,6.51-2.02,1.82-1.35,3.33-3.1,4.53-5.28,1.19-2.17,2.07-4.61,2.64-7.33,.56-2.71,.85-5.46,.85-8.24,0-4.78-.78-8.5-2.34-11.17-1.56-2.67-3.82-4.01-6.77-4.01-2.61,0-4.85,.66-6.74,1.99-1.89,1.33-3.45,3.07-4.69,5.24-1.24,2.17-2.15,4.67-2.74,7.49-.59,2.82-.88,5.76-.88,8.79,0,4.56,.77,8.12,2.31,10.68,1.54,2.56,3.98,3.84,7.33,3.84Zm27.52-28.92c0-1.82,.39-3.47,1.17-4.95,.78-1.48,1.81-2.74,3.09-3.78,1.28-1.04,2.75-1.86,4.4-2.44,1.65-.59,3.36-.88,5.15-.88,2.43,0,4.61,.3,6.55,.91,1.93,.61,3.66,1.28,5.18,2.02-.13,1.04-.24,2.02-.33,2.93-.09,.91-.13,1.8-.13,2.67v1.01c0,.33,.02,.66,.07,1.01-.39,.3-.91,.46-1.56,.46-.43,0-.81-.1-1.14-.29-.33-.2-.53-.55-.62-1.07-.39-2.3-1.31-4.03-2.77-5.18-1.46-1.15-3.27-1.73-5.44-1.73-.87,0-1.72,.12-2.54,.36-.83,.24-1.56,.61-2.21,1.11-.65,.5-1.17,1.13-1.56,1.89-.39,.76-.59,1.66-.59,2.7,0,.91,.21,1.76,.62,2.54,.41,.78,.95,1.53,1.63,2.25,.67,.72,1.44,1.42,2.31,2.12,.87,.7,1.76,1.39,2.67,2.08,1.04,.83,2.08,1.67,3.13,2.54,1.04,.87,1.98,1.82,2.8,2.87,.82,1.04,1.5,2.17,2.02,3.39,.52,1.22,.78,2.58,.78,4.1,0,2.21-.46,4.15-1.37,5.8-.91,1.65-2.12,3.03-3.62,4.14-1.5,1.11-3.22,1.93-5.18,2.48s-3.97,.81-6.06,.81c-1.3,0-2.57-.09-3.81-.26-1.24-.17-2.38-.39-3.42-.65s-1.94-.53-2.7-.81c-.76-.28-1.34-.55-1.73-.81,.13-1.26,.25-2.59,.36-4.01,.11-1.41,.16-2.77,.16-4.07,0-.52-.01-1.02-.03-1.5-.02-.48-.05-.93-.1-1.37,.26-.09,.54-.17,.85-.26,.3-.09,.65-.13,1.04-.13,.61,0,1,.14,1.17,.42,.17,.28,.33,.71,.46,1.27,.48,2.95,1.33,5.22,2.57,6.81,1.24,1.59,3.14,2.38,5.7,2.38,1.08,0,2.13-.16,3.13-.49,1-.33,1.89-.81,2.67-1.47s1.41-1.45,1.89-2.41c.48-.95,.72-2.06,.72-3.32,0-1.09-.21-2.08-.62-3-.41-.91-.97-1.76-1.66-2.54-.7-.78-1.49-1.51-2.38-2.18-.89-.67-1.79-1.36-2.7-2.05-1-.74-1.98-1.49-2.93-2.25-.96-.76-1.81-1.6-2.57-2.51-.76-.91-1.37-1.91-1.82-3-.46-1.08-.68-2.3-.68-3.65Z" fill="#fff"/></svg>