<svg xmlns="http://www.w3.org/2000/svg" width="250" height="104" viewBox="0 0 250 104"><path d="M111.12,86.64c-2.57,0-3.28-.47-4.13-1.48a2.28,2.28,0,0,1,1.17-3.43c1.48-.55,3.74-1.33,3.74-2.34s-.7-1-3.67-.86-3.89-.62-3.89-2.89,3-2.8,3.89-4,.24-2.1-3-2.26-7.43,2.85-8.57,5.78c-1.25,3.21-3.35,18.15,3.12,20.73s14-2.42,14.72-4.75A3.33,3.33,0,0,0,111.12,86.64ZM110.51,92a12.9,12.9,0,0,1-6.51,1.6,17.32,17.32,0,0,1-4-.47.34.34,0,1,1,.18-.65s5.69,1.49,10-1.06a.34.34,0,0,1,.34.58Z" fill="#fff"/><path d="M97.15,25c-3.1-1.43-7.1,1.43-9.29-.38s-.6-7.24.15-10.19S88.76,9,86.58,9c-7.48,0-8.31,18.79-6,24S89.06,37.88,93,35.5,100.24,26.45,97.15,25Zm-5.1,7.86A8.27,8.27,0,0,1,88,34a9,9,0,0,1-5.16-1.7.36.36,0,0,1,0-.48.34.34,0,0,1,.47-.05,7.75,7.75,0,0,0,8.47.56.34.34,0,0,1,.33.59Z" fill="#fff"/><path d="M138.72,71.28c-4.53-1.48-9,11.76-10.92,11.66s-4.21-8.85-7.72-11.7c-2.8-2.27-4.91-.19-4.28,8.69s6.78,16.06,13.33,16S143.07,72.71,138.72,71.28Z" fill="#fff"/><path d="M114.58,19c.17-4,6-6.4,6.37-9.14S119.88,7,117.28,7.44s-5.6,3.05-9.13,3.2c-3.27.13-7.67-3.37-10.67-1.62-1.79,1-1.36,3.63.76,4.85s4.7,1.3,5.57,5.17-4.93,11.34-.73,15.34,11,2.2,12.07-3.4S114.41,23,114.58,19ZM112,32.09a5.23,5.23,0,0,1-2.88.92,5.32,5.32,0,0,1-3.67-1.62A.33.33,0,0,1,106,31a4.32,4.32,0,0,0,5.69.58.32.32,0,0,1,.46.09A.34.34,0,0,1,112,32.09Z" fill="#fff"/><path d="M26,4.76C21.12,5,12.45,8.06,8.18,9.23s-9.84,3.1-7.71,8.12,9,3.92,10.74,3.37,3.85-1,6.12,1.52,4.06,9.5,2.34,11.42-3.51,1.65-4.75-.34a9.17,9.17,0,0,0-5.57-4.41C6.94,28.43.81,30.57.2,37.79S2.12,51.63,11.76,53.21,27,49.42,29.1,40.68,27.66,26,26,24s-3.13-4.07-2.93-5.72S29.44,14.81,31,11.3C32.16,8.51,30.89,4.48,26,4.76ZM12.2,16.54A16.48,16.48,0,0,1,8.63,17a5.89,5.89,0,0,1-3.33-.72.34.34,0,0,1,.4-.54s1.77,1.2,6.35.17a.34.34,0,0,1,.15.66Zm7.93,31.07a13.79,13.79,0,0,1-6.62,1.92,9.43,9.43,0,0,1-2.95-.46A12,12,0,0,1,4,43.24a.34.34,0,0,1,.16-.45.35.35,0,0,1,.44.16,11.58,11.58,0,0,0,6.19,5.49c2.71.87,5.76.39,9-1.42a.33.33,0,0,1,.45.13A.34.34,0,0,1,20.13,47.61Z" fill="#fff"/><path d="M82.12,80.48c-1-1-.3-2.62.32-5.58s.15-6.19-4.06-8.53S66.43,65,62.08,67.93c-5.38,3.58-7.56,12-7.87,18.94s2,13.41,7.87,15.2,6.63-2.73,7.64-4.52,3.82-5,6.63-.78,9.9,4,13.17,1.33,3.36-4.6,2.81-7.18S82.12,80.48,82.12,80.48ZM66.66,99.26a7.54,7.54,0,0,1-3,.66,6.32,6.32,0,0,1-4.93-2.49.34.34,0,1,1,.56-.38c.1.15,2.49,3.56,7.07,1.6a.33.33,0,0,1,.27.61ZM71.14,78a2.88,2.88,0,1,1,0-5.74c1.87,0,3.39,1.19,3.39,2.87S73,78,71.14,78Zm17.53,16.3a8.83,8.83,0,0,1-5.86,2.82h-.34a6.32,6.32,0,0,1-2.36-.41.34.34,0,0,1-.17-.44.34.34,0,0,1,.44-.18c.17.08,3.91,1.64,7.82-2.26a.32.32,0,0,1,.47,0A.33.33,0,0,1,88.67,94.28Z" fill="#fff"/><path d="M148.49,25.58c-.26-2.14-.4-6.63,2.14-7.27,2.71-.7,5.93-1.94,5.86-3.67s-6.13-2.6-6.66-2.74-.34-.73-.14-2.8,2.47-2.6,5.4-2.73,6.61-.87,6.54-2.87S150.69.43,146.69,0c0,0-4.47-.58-6.53,3.14C136.89,9.06,135,22,135,25.54s1.74,10.3,8.07,9.64S148.76,27.71,148.49,25.58Zm-6.17,7.72a4.17,4.17,0,0,1-2.29-.61,3.93,3.93,0,0,1-1.67-2.38.34.34,0,0,1,.27-.39.33.33,0,0,1,.39.27,3.3,3.3,0,0,0,1.38,1.94,4.65,4.65,0,0,0,3.74.23.33.33,0,1,1,.18.64A7.53,7.53,0,0,1,142.32,33.3Z" fill="#fff"/><path d="M71.34,37.51c4-2.45,7.25-9,4.16-10.47s-7.1,1.43-9.29-.38-.6-7.25.15-10.19S67.11,11,64.93,11c-7.48,0-8.31,18.8-6,24S67.41,39.9,71.34,37.51ZM60.79,34a.33.33,0,0,1,.47,0,7.75,7.75,0,0,0,8.47.56.33.33,0,1,1,.32.58,8.26,8.26,0,0,1-4,1.09,9,9,0,0,1-5.16-1.71A.33.33,0,0,1,60.79,34Z" fill="#fff"/><path d="M45,14.67c-5.41,0-12,7.88-12,14.46,0,8.33,2.34,14.51,10.12,14.51,7.16,0,11.7-6.47,11.7-15C54.84,20.38,50.45,14.67,45,14.67Zm-1.1,6.68A3.24,3.24,0,0,1,47,24.66c0,2.15-1.16,3.78-3.06,3.78S41,27,41,24.84,42.41,21.35,43.93,21.35Zm3.44,16.33A10.58,10.58,0,0,1,42.56,39a7.13,7.13,0,0,1-5.35-2.27.35.35,0,0,1,0-.48.33.33,0,0,1,.47.06c.14.16,3.24,3.91,9.34.81a.35.35,0,0,1,.45.15A.33.33,0,0,1,47.37,37.68Z" fill="#fff"/><path d="M183.41,85.21c-2.86-.8-3.49-1.83-2.77-4s3.7-1.71,5-2.6.89-1.92-2.16-3.11-8,.34-10,2.75c-2.2,2.64-9,16.14-3.64,20.64s14.06,2.17,15.46.19a3.33,3.33,0,0,0-1.75-5.29c-2.43-.82-2.95-1.48-3.44-2.72a2.29,2.29,0,0,1,2.2-2.88c1.58,0,4-.06,4.29-1S186.27,86,183.41,85.21Zm-2,12.71a.34.34,0,0,1,.38.28.33.33,0,0,1-.28.38,16.38,16.38,0,0,1-2.52.2c-5.05,0-7.63-2.51-7.75-2.63a.33.33,0,1,1,.47-.47S175,98.89,181.39,97.92Z" fill="#fff"/><path d="M245.42,28.05a8.79,8.79,0,0,0-7.93,0c-1.07.75-1.88,1.07-1.82-.38s-2-8.3-9.44-4.78S214.71,35.23,214,38.06s-.88,7.86,4.91,8.56,6.67-5.16,7.49-7.37,1.45-4.59,2.64-4.15,1.13,3.9,2.27,4.53,2.77-.63,3.58-.75,2.21-.45,1.89,1.82-3.33,5.85-3.33,10.2S239.7,57,243.41,56s5.35-7.17,6.36-13.46S248.38,29.79,245.42,28.05Zm-23.95,16.3a8.33,8.33,0,0,1-1.66.18A4.55,4.55,0,0,1,217,43.7a4.64,4.64,0,0,1-1.77-3,.33.33,0,0,1,.3-.37.34.34,0,0,1,.37.3,4,4,0,0,0,1.5,2.57,4.79,4.79,0,0,0,3.91.52.35.35,0,0,1,.4.26A.34.34,0,0,1,221.47,44.35Zm22.43,7.89a9.43,9.43,0,0,1-2.17.28,5.6,5.6,0,0,1-5.5-4,.32.32,0,0,1,.24-.4.33.33,0,0,1,.41.24c.05.19,1.25,4.57,6.86,3.22a.33.33,0,0,1,.41.24A.34.34,0,0,1,243.9,52.24Z" fill="#fff"/><path d="M197,13.33a8.16,8.16,0,0,0-4.85,5c-.75,1.81-7.67,17.32-4,21.48,2.46,2.75,7.05-.07,8.49-1.14s2.08-.12,3.21,2.46,7.93,3.52,9.32-.44-.63-9-1.32-10.95-2.27-3.34-.89-3.46,6.55-1.26,5.35-7.37S200.82,12,197,13.33ZM193.5,38.19a4.26,4.26,0,0,1-.78.07,3.11,3.11,0,0,1-1.84-.56,4,4,0,0,1-1.44-2.43.33.33,0,1,1,.66-.1,3.38,3.38,0,0,0,1.17,2,2.74,2.74,0,0,0,2.11.37.34.34,0,0,1,.39.28A.33.33,0,0,1,193.5,38.19ZM199.67,20c0-1.41,1.17-2.07,2.54-2.39,1-.23,2.37,1,2.37,2.39a2.23,2.23,0,0,1-2.37,2.4A2.36,2.36,0,0,1,199.67,20Zm7,19.22a.33.33,0,1,1,.27.61,5.43,5.43,0,0,1-2.14.48,3.62,3.62,0,0,1-2.95-1.44.34.34,0,0,1,.1-.46.35.35,0,0,1,.47.1C202.46,38.6,203.73,40.46,206.66,39.22Z" fill="#fff"/><path d="M170,34c1,2.6,4.47,5.6,9.81,3.8s2.06-10.67,2.06-10.67l-1.49-4c-1.49-4-5.08-14-9.58-14-4.34,0-12.2,11.1-14.2,14.71s-4.6,9,.26,12.47,8.74-2.2,10.34-3.94S169,31.38,170,34Zm-7.31-.22a7.73,7.73,0,0,1-1.81.23,4.25,4.25,0,0,1-4.26-2.72.33.33,0,1,1,.63-.2c.05.12,1.06,3.07,5.28,2a.33.33,0,0,1,.41.24A.34.34,0,0,1,162.72,33.76Zm10.77-.38a4.9,4.9,0,0,0,5.82-.67.33.33,0,0,1,.47,0,.32.32,0,0,1,0,.47A5.74,5.74,0,0,1,176,34.7a5.59,5.59,0,0,1-2.83-.76.34.34,0,1,1,.37-.56Zm-2.56-17.49a2.23,2.23,0,0,1,2.38,2.39,2.23,2.23,0,0,1-2.38,2.39,2.39,2.39,0,1,1,0-4.78Z" fill="#fff"/><path d="M164.68,73.15c-2-.62-2.81.94-3.9,3.74s-1.84,7.71-5.78,6.46c-4.9-1.55.63-11.68-2.41-12.46-4.66-1.2-8.65,9.28-9.43,13.72s.39,12.78,9.28,12.57S163.9,90.07,165.69,84,166.62,73.77,164.68,73.15Zm-13.3,20.43-.56,0c-4.22,0-5.1-5.2-5.11-5.26A.34.34,0,0,1,146,88a.33.33,0,0,1,.38.28,8.28,8.28,0,0,0,1,2.54,3.91,3.91,0,0,0,4,2.13.34.34,0,0,1,.37.3A.33.33,0,0,1,151.38,93.58Z" fill="#fff"/></svg>