<svg xmlns="http://www.w3.org/2000/svg" viewBox="0 0 350 41"><path d="M0 .96h8.47v30.61h15.69v7.82H0V.96zM26.76 20.18c0-3.08.52-5.86 1.55-8.36 1.03-2.5 2.47-4.62 4.32-6.38 1.85-1.75 4.03-3.1 6.57-4.04 2.52-.94 5.29-1.41 8.29-1.41s5.77.47 8.3 1.41c2.53.94 4.72 2.29 6.57 4.04 1.85 1.76 3.28 3.88 4.32 6.38s1.55 5.28 1.55 8.36-.52 5.86-1.55 8.36c-1.03 2.5-2.47 4.62-4.32 6.38-1.85 1.76-4.04 3.1-6.57 4.04-2.53.94-5.3 1.41-8.3 1.41s-5.77-.47-8.3-1.41c-2.53-.94-4.72-2.29-6.57-4.04-1.85-1.75-3.28-3.88-4.32-6.38-1.03-2.5-1.55-5.28-1.55-8.36zm8.79 0c0 1.81.28 3.47.84 4.97.56 1.5 1.37 2.8 2.42 3.91 1.05 1.1 2.31 1.96 3.77 2.58 1.47.62 3.1.92 4.91.92s3.45-.31 4.91-.92c1.47-.61 2.72-1.47 3.77-2.58 1.05-1.1 1.85-2.41 2.42-3.91.56-1.5.84-3.16.84-4.97s-.28-3.42-.84-4.94a11.39 11.39 0 0 0-2.42-3.94c-1.05-1.1-2.31-1.96-3.77-2.58-1.47-.61-3.1-.92-4.91-.92s-3.45.31-4.91.92c-1.47.62-2.72 1.47-3.77 2.58-1.05 1.1-1.85 2.42-2.42 3.94-.56 1.52-.84 3.17-.84 4.94zM70.18.96h9.66l9.5 25.19h.11L99.11.96h9.06L92.32 39.39h-6.78L70.18.96zM112.52.96h26.11v7.82h-17.64v7.16h16.66v7.82h-16.66v7.82h18.62v7.82h-27.09V.96zM165.12.96h3.58v38.43h-3.58V.96zM180.26 32.28c.94 1.63 2.16 2.84 3.66 3.64 1.5.8 3.21 1.19 5.13 1.19 1.19 0 2.32-.18 3.37-.54 1.05-.36 1.96-.87 2.74-1.52.78-.65 1.39-1.44 1.85-2.36.45-.92.68-1.96.68-3.12 0-1.34-.28-2.44-.84-3.31-.56-.87-1.31-1.58-2.25-2.14s-2-1.04-3.18-1.44c-1.18-.4-2.39-.8-3.64-1.19-1.25-.4-2.46-.85-3.64-1.36-1.18-.51-2.23-1.17-3.18-1.98-.94-.81-1.69-1.84-2.25-3.07-.56-1.23-.84-2.75-.84-4.56 0-1.7.33-3.21 1-4.53a9.71 9.71 0 0 1 2.71-3.31c1.14-.89 2.45-1.56 3.94-2.01 1.48-.45 3.04-.68 4.67-.68 2.1 0 4.04.37 5.84 1.11 1.79.74 3.34 1.98 4.64 3.72l-3.09 2.23c-.91-1.27-1.96-2.22-3.18-2.85-1.21-.63-2.65-.95-4.32-.95-1.16 0-2.26.15-3.31.46-1.05.31-1.96.76-2.74 1.36-.78.6-1.4 1.35-1.87 2.25-.47.9-.71 1.97-.71 3.2 0 1.92.49 3.39 1.47 4.42.98 1.03 2.2 1.85 3.66 2.44s3.06 1.12 4.78 1.57c1.72.45 3.31 1.06 4.78 1.82 1.47.76 2.69 1.82 3.66 3.18.98 1.36 1.47 3.23 1.47 5.62 0 1.74-.33 3.28-.98 4.61-.65 1.34-1.53 2.47-2.63 3.39-1.1.92-2.38 1.62-3.83 2.09-1.45.47-2.95.71-4.51.71-2.53 0-4.87-.44-7-1.33-2.14-.89-3.96-2.38-5.48-4.48l3.42-2.28zM225.11 1.61h11.51l16.34 26.71h.11V1.61h8.47v38.43h-11.07L233.7 12.68h-.11v27.36h-8.47V1.61zM269.23 1.61h8.47v38.43h-8.47V1.61zM310.54 11.59a8.229 8.229 0 0 0-3.07-2.33c-1.21-.54-2.61-.81-4.21-.81s-3.07.31-4.42.92c-1.36.62-2.53 1.47-3.53 2.58-1 1.1-1.77 2.42-2.33 3.94s-.84 3.17-.84 4.94.28 3.47.84 4.97c.56 1.5 1.33 2.8 2.31 3.91.98 1.1 2.13 1.96 3.45 2.58 1.32.62 2.74.92 4.26.92 1.74 0 3.27-.36 4.61-1.09 1.34-.72 2.44-1.74 3.31-3.04l7.06 5.27c-1.63 2.28-3.69 3.96-6.19 5.05-2.5 1.09-5.07 1.63-7.71 1.63-3 0-5.77-.47-8.3-1.41-2.53-.94-4.72-2.29-6.57-4.04-1.85-1.75-3.28-3.88-4.32-6.38-1.03-2.5-1.55-5.28-1.55-8.36s.52-5.86 1.55-8.36c1.03-2.5 2.47-4.62 4.32-6.38 1.85-1.75 4.03-3.1 6.57-4.04 2.53-.94 5.3-1.41 8.3-1.41 1.09 0 2.22.1 3.39.3 1.18.2 2.33.52 3.47.95 1.14.43 2.23 1.01 3.28 1.74 1.05.72 1.99 1.61 2.82 2.66l-6.51 5.32zM322.91 1.61h26.11v7.82h-17.64v7.16h16.66v7.82h-16.66v7.82H350v7.82h-27.09V1.61z" fill="#fff"/></svg>