<svg xmlns="http://www.w3.org/2000/svg" viewBox="0 0 190 135"><path d="M4.99 32.06l18.84 3.49s2.58-22.18 15.5-22.03 14.59 12.31 5.47 18.99C35.68 39.2 8.94 61.67 8.94 80.35h51.51V62.59H33.86s4.32-9.49 12.46-15.66c11.3-8.57 19.6-9.72 19.6-25.06S48.9 0 40.39 0s-27.5 10.03-35.4 32.06zm82.54 6.7l11.88-4.9s-2.66-11.24-14.47-11.24-17.96 7.3-17.96 19.78 3.46 20.84 15.65 21.32c12.2.48 18.44-13.06 18.44-13.06l-9.6-5.67s-3.36 9.8-9.03 9.03c-5.67-.77-6.43-12.1-5.09-17.77s8.26-12.68 10.18 2.5zm30.82-19.4c-12.68 0-17.29 13.06-17.29 21.61s4.23 16.71 17.29 16.71 16.61-9.6 16.71-18.49c.1-8.88-5.57-19.83-16.71-19.83zm.39 29.2c-4.71 0-6.91-4.18-6.91-8.38s1.25-10.35 7.3-10.35c4.99 0 5.76 5.95 5.76 9.12s-1.44 9.6-6.15 9.6z" fill="#fff"/><path d="M150.43 28.2c-12.68 0-17.29 13.06-17.29 21.61s4.23 16.71 17.29 16.71 16.61-9.6 16.71-18.49c.1-8.88-5.57-19.83-16.71-19.83zm.39 29.19c-4.71 0-6.91-4.18-6.91-8.38s1.25-10.35 7.3-10.35c4.99 0 5.76 5.95 5.76 9.12s-1.44 9.6-6.15 9.6zm-2.71 32.91c-12.68 0-17.29 13.06-17.29 21.61s4.23 16.71 17.29 16.71 16.61-9.6 16.71-18.49c.1-8.88-5.57-19.83-16.71-19.83zm.39 29.2c-4.71 0-6.91-4.18-6.91-8.38s1.25-10.35 7.3-10.35c4.99 0 5.76 5.95 5.76 9.12s-1.44 9.6-6.15 9.6zm20.37-95.62h11.72v26.5H190v10.86h-21.13V23.88zm-.89 67.57h11.72v26.51h9.41v10.85h-21.13V91.45z" fill="#fff"/><path d="M109.75 93.73c-12.27 3.18-13.45 16.99-11.3 25.26 2.15 8.27 8.29 15.11 20.93 11.83 12.64-3.28 13.67-13.47 11.53-22.09-2.14-8.62-10.37-17.8-21.16-15zm7.7 28.17c-4.55 1.18-7.74-2.31-8.8-6.37-1.06-4.07-1.39-10.33 4.46-11.85 4.83-1.25 7.07 4.32 7.87 7.38.8 3.07 1.02 9.66-3.54 10.84zM65.16 81.71h11.19v17.37s2.68-5.01 10.03-2.8c7.34 2.21 7.46 34.16 7.46 34.16H82.53v-19.23c0-6.76-6.06-5.68-6.06 1.24v14.85H65.84l-.68-45.58zm-11.89 29.73l9.21-2.68s.7-14.4-11.07-15.54c-11.77-1.13-19.23 9.85-19.58 19.22-.35 9.37 2.91 19.51 13.41 19.22 10.49-.29 18.19-3.79 18.19-3.79l-1.28-10.61s-7.14 4.31-14.53 3.96-6.22-11.54-2.96-15.15 9.47-4.06 8.63 5.36zm-32.87-6.3l10.37-.7s.12-10.49-11.31-13.41C8.04 88.12 3.61 100.01 5.7 106.88s12.24 8.28 14.8 11.54c2.56 3.26-1.49 5.37-4.31 4.78-5.13-1.08-7.69-7.93-7.69-7.93l-8.51 6.85s5.95 10.87 17.6 10.87 13.99-10.84 12.01-16.09c-1.98-5.25-10.96-8.04-14.22-12.01s2.8-10.03 5.01.23zm67.22-17.19h5.13v-5.41h3.34v-5.41h-5.85s-.4-2.96 2.51-2.96h2.9v-5.33s-8.03-1.61-8.03 6v13.1zm19.61-17.24c-4.73-.17-7.69 2.45-7.78 8.4-.08 5.95 3.55 8.4 7.78 8.4s6.76-4.38 6.68-8.26-.6-8.32-6.68-8.54zm2.79 12.17h-5.58v-6.34h5.58v6.34zm7.37-11.29V87.5h4.37V74.59s4.01-.73 4.01 4.21h4.53s.82-7.22-4.53-7.22h-8.38z" fill="#fff"/></svg>