<svg xmlns="http://www.w3.org/2000/svg" viewBox="0 0 292 70"><path fill="none" stroke="#fff" stroke-linejoin="round" stroke-width=".99" d="M34.59 1.43v25.99H9.62V1.43H1v67.06h8.62V36.04h24.97v32.45h8.62V1.43h-8.62z"/><path d="M34.59 27.42V9.35C26.29 7.06 18 3.56 9.62 1.43v25.99h24.97zM34.59 36.04H9.62v32.45c8.38-1.36 16.66-6 24.97-8.05v-24.4z" fill="#fff" stroke="#fff" stroke-linejoin="round" stroke-width=".99"/><path d="M150.29 10.04l.44 49.84c0 4.76 3.85 8.61 8.61 8.61h24.54c4.76 0 8.61-3.85 8.61-8.61l-.44-49.84c0-4.76-3.85-8.61-8.61-8.61H158.9c-4.76 0-8.61 3.85-8.61 8.61zm8.62 46.06V13.81c0-2.08 1.68-3.76 3.76-3.76h16.99c2.08 0 3.76 1.68 3.76 3.76V56.1c0 2.08-1.24 3.76-3.32 3.76h-16.99c-2.08 0-4.2-1.68-4.2-3.76z" fill="none" stroke="#fff" stroke-linejoin="round" stroke-width=".99"/><path d="M163.11 59.87h16.99c2.08 0 3.32-1.68 3.32-3.76v-42.3c0-2.08-1.69-3.76-3.76-3.76h-16.99c-2.08 0-3.76 1.68-3.76 3.76V56.1c0 2.08 2.12 3.76 4.2 3.76zM151.57 5.54l-.04.08c.02-.03.03-.06.05-.08zM152.05 64.45l.03.06-.03-.06z" fill="#fff" stroke="#fff" stroke-linejoin="round" stroke-width=".99"/><path d="M291 17.17v-7.13c0-4.76-3.85-8.61-8.61-8.61h-22.75c-5.74 0-10.4 4.66-10.4 10.4v19.18c0 4.76 3.85 8.61 8.61 8.61h18.95c3.08.01 5.57 2.51 5.57 5.59v9.09c0 3.08-2.5 5.57-5.57 5.57h-13.37c-3.08 0-5.57-2.5-5.57-5.57l-8.62 2.09v1.73c0 5.73 4.65 10.38 10.38 10.38h22.77c4.76 0 8.61-3.85 8.61-8.61V39.63c0-4.76-3.85-8.61-8.61-8.61h-18.95a5.589 5.589 0 0 1-5.57-5.59v-9.8c0-3.08 2.5-5.57 5.57-5.57h13.37c3.08 0 5.57 2.5 5.57 5.57v3.01l8.62-1.46zM135.02 68.49h8.62l-7.9-30.78c4.2-.15 7.56-3.59 7.56-7.83V9.27a7.84 7.84 0 0 0-7.84-7.84h-35.45v67.06h8.62V37.73h18.49l7.9 30.76zm-26.39-58.44h21.69c2.41 0 4.36 1.95 4.36 4.36v10.34c0 2.41-1.95 4.36-4.36 4.36h-21.69V10.05z" fill="none" stroke="#fff" stroke-linejoin="round" stroke-width=".99"/><path fill="#fff" stroke="#fff" stroke-linejoin="round" stroke-width=".99" d="M108.63 37.72v30.77l21.45-19.22-2.96-11.55h-18.49zM129.17 29.1c3.04 0 5.51-2.47 5.51-5.51v-6.18-3c0-2.41-1.95-4.36-4.36-4.36h-21.69V29.1h20.54zM151.29 62.9c-.35-.94-.56-1.96-.56-3.02l-.44-49.84c0-1.07.2-2.09.56-3.04L144 18.84c-.46.85-.72 1.82-.72 2.85V32.7c-.22-.34-.41-.33-.56.15-1.22 3.8-4.02 4.16-4.02 4.16-.91.41-1.91.66-2.96.69l7.9 30.78 3.48-13.4.35.1 3.82 7.71zM92.87 68.49H54.6s38.08.19 38.27 0zM92.87 1.43v8.62h-33.1v18.11h33.1v8.62h-33.1v23.09h33.1v8.62l7.14-5.24V8.23l-7.14-6.8z"/><path fill="none" stroke="#fff" stroke-linejoin="round" stroke-width=".99" d="M242.3 10.05V1.43h-41.73v67.06h41.73v-8.62h-33.1V36.78h33.1v-8.62h-33.1V10.05h33.1zM92.87 10.05V1.43H51.15v67.06h41.72v-8.62h-33.1V36.78h33.1v-8.62h-33.1V10.05h33.1z"/><path fill="#fff" stroke="#fff" stroke-linejoin="round" stroke-width=".99" d="M51.15 4.76l-7.94-3.33v67.06l7.94-3.55V4.76zM200.57 68.49V1.43l-9.4 4.85c.55 1.14.87 2.41.87 3.76l.44 49.84c0 .47-.05.93-.12 1.39l8.21 7.23zM276.81 10.05h-13.37c-3.08 0-5.58 2.5-5.58 5.57v6.82l24.52-3.81v-3.01c0-3.08-2.5-5.57-5.57-5.57z"/><path d="M276.81 39.63h-18.95c-4.75-.01-8.61-3.87-8.61-8.62V11.83c0-3.96 2.22-7.41 5.48-9.16s-12.42 1.75-12.42 1.75v5.63h-33.1v18.11h33.1v8.55l-33.1.07v23.09h33.1v1.85l12.26 5.45c-3.17-1.78-5.32-5.17-5.32-9.06v-1.73l8.62-2.09c0 3.08 2.5 5.57 5.58 5.57h13.37c3.08 0 5.57-2.5 5.57-5.57V45.2c0-3.08-2.5-5.57-5.57-5.57z" fill="#fff" stroke="#fff" stroke-linejoin="round" stroke-width=".99"/></svg>