<svg xmlns="http://www.w3.org/2000/svg" width="302" height="97" viewBox="0 0 302 97"><polygon points="54.64 9.5 58.17 18.1 66.6 14.91 71.11 36.34 80.22 33.43 73.1 12.01 82.21 8.3 79.88 2.15 54.64 9.5" fill="#fff" stroke="#fff" stroke-linejoin="round" stroke-width="0.55"/><path d="M85.75,1.13l4,31S96.23,31,97,30.81s1.25-.3,1.06-1.31S96.83,22.85,97,20.89c.23-3,5-4.39,6.86-2.61C106.66,21,106,30.81,106,30.81l9.11-2.17s-1.93-8.26-2.9-12-2.62-7-7.41-5.75a61.65,61.65,0,0,0-9.17,3.19L93.21.5Z" fill="#fff" stroke="#fff" stroke-linejoin="round" stroke-width="0.55"/><path d="M133,18.73s-.85,4.23-5.06,4.13-4.72-4.32-4.72-4.32l16-4S136.74,1.83,125.53,4.39s-9.26,11.21-8.45,15.05,5.56,9.74,12.92,8.17,9.45-8.78,9.45-8.78Zm-6.4-9.79c4.67-.23,5.34,3.7,5.34,3.7l-8.53,2.25C121.14,14.28,121.92,9.18,126.59,8.94Z" fill="#fff" stroke="#fff" stroke-linejoin="round" stroke-width="0.55"/><polygon points="1.5 53.66 7.13 67.41 21.05 61.96 27.66 95.71 42.48 91.69 31.05 57.68 44.18 52.59 40.52 42.32 1.5 53.66" fill="#fff" stroke="#fff" stroke-linejoin="round" stroke-width="0.55"/><path d="M45.79,68l8.85-2s1,7.32,1.59,10.09,3,3.66,5.72,2.86,4.1-2.24,2.5-7.77S62.3,64,62.3,64l8-1.7,3,12.77c1.07,4.64-.09,9.28-8.84,11.16s-14.38-.81-15.63-5.89Z" fill="#fff" stroke="#fff" stroke-linejoin="round" stroke-width="0.55"/><path d="M74.09,59.91l7.5-2.32.62,2S86,52.23,96.59,54.19V62s-6.79-2.32-9,1.79-1,5.53-.27,7.77S89.89,79,89.89,79l-8.84,3.21Z" fill="#fff" stroke="#fff" stroke-linejoin="round" stroke-width="0.55"/><polygon points="100.07 54.46 102.04 62.32 108.38 60.18 111.32 75.89 120.52 73.57 116.42 58.03 123.29 55.8 121.77 49.64 114.27 51.34 112.84 45 105.52 46.78 106.86 52.86 100.07 54.46" fill="#fff" stroke="#fff" stroke-linejoin="round" stroke-width="0.55"/><path d="M122.66,34.91l8-1.61s9.64,35.63,8.84,36.79-8.4,1.87-8.4,1.87Z" fill="#fff" stroke="#fff" stroke-linejoin="round" stroke-width="0.55"/><path d="M165,56.52l-6.52.17s.63,3.75-4.73,4.74-5.8-4.38-5.8-4.38l17-4.42s-.8-14.24-14.91-12.19-8.75,19.38-6.16,22.5,5.89,5.63,13.57,3.13A10.21,10.21,0,0,0,165,56.52ZM151.14,45.71c4.47-.35,6,4.65,6,4.65L148.2,53C145.87,52.59,146.68,46.07,151.14,45.71Z" fill="#fff" stroke="#fff" stroke-linejoin="round" stroke-width="0.55"/><path d="M166.05,37.32l6.88-1.43.89,3.13s5.09-4.11,10.45-3.13,7,2.59,8.12,8.39S195,57.5,195,57.5L186.59,59s-.89-6.52-1.7-10.54-3.39-5.62-6.34-4.91S176,47,176.41,50.27s2,10.17,2,10.17l-7.95,1.43Z" fill="#fff" stroke="#fff" stroke-linejoin="round" stroke-width="0.55"/><path d="M208,51.43a5.67,5.67,0,0,1-4.63-5.18l17.85-2s0-11.6-9.55-13.83-15.09,5.89-15.09,12.41,3,13.24,11,13.92c10.45.9,13.66-8.66,13.66-8.66L214,47.77S212.57,52.5,208,51.43Zm-.08-16c4.37-.47,5.36,3.74,4.82,4.79s-8.57,1.54-8.57,1.54C201.59,41.34,203.56,35.92,207.93,35.45Z" fill="#fff" stroke="#fff" stroke-linejoin="round" stroke-width="0.55"/><path d="M241.59,38.6h6.79s.08-9.94-8.49-10.74S224.54,31,224.45,40.36s4.28,14.28,11,14.28c10.53,0,12.5-8.12,12.5-8.12l-7-1.43s-.8,3.77-4.55,3.72-4.64-5.87-4.29-8.9,2.42-6.07,5.81-5.8S241.59,38.6,241.59,38.6Z" fill="#fff" stroke="#fff" stroke-linejoin="round" stroke-width="0.55"/><polygon points="251.32 13.57 253.38 53.48 260.25 53.48 260.25 43.46 267.75 53.48 276.59 52.95 264.98 37.32 276.59 24.11 266.95 23.93 260.34 32.23 260.07 13.31 251.32 13.57" fill="#fff" stroke="#fff" stroke-linejoin="round" stroke-width="0.55"/><path d="M294.89,33.39l6.61-.71s-1-8.93-9-9.74-13.39,2.93-13.39,7.13,2.44,8.26,7.94,9.47c5.85,1.29,8,2.87,6.79,6.26s-6.07,3-9.55-2.86l-6.79.52s-.71,8.23,8.4,10,15.17-2.14,15.26-9-6.6-8.3-10.26-8.92-5.83-3.14-4-5.47S295,29.2,294.89,33.39Z" fill="#fff" stroke="#fff" stroke-linejoin="round" stroke-width="0.55"/></svg>