<svg xmlns="http://www.w3.org/2000/svg" width="250" height="65" viewBox="0 0 250 65"><path d="M250,55a16.18,16.18,0,0,1-1.79-6.74,6.64,6.64,0,0,0-.28-2.13,10.43,10.43,0,0,0-1.19-2,11.2,11.2,0,0,1-1.56-4.49c-.24-1.64-.13-3.29-.31-4.92a8.59,8.59,0,0,0-1.68-4A9.73,9.73,0,0,1,241.44,26c-.12-1.61.24-3.25-.42-4.79a16.39,16.39,0,0,0-1-1.83A18.68,18.68,0,0,1,238.82,17a19,19,0,0,1-1.24-4.58,18.12,18.12,0,0,1-.19-2.85c0-.41,0-.83.05-1.24a1.35,1.35,0,0,0-.1-1C237,6.87,236.07,7,235.56,7a6.46,6.46,0,0,0-2.32.28c-.06,0-.08.09-.09.15a56,56,0,0,1-.88,6.31,23.42,23.42,0,0,1-.85,3c-.36,1-.8,2-1.08,3a52.57,52.57,0,0,0-.79,5.88,11.47,11.47,0,0,1-.85,3.08,25.92,25.92,0,0,0-1.07,2.49,10,10,0,0,0-.35,2.88,24.08,24.08,0,0,1-.28,3.17,21.24,21.24,0,0,1-1.85,5.87A13.52,13.52,0,0,0,224,45.57a11.56,11.56,0,0,0-.23,2.56c0,1.72,0,3.71-1.2,5.1a3.52,3.52,0,0,0-.73.9,1.22,1.22,0,0,0,.22,1c.6,1.05,1.21,2.1,1.82,3.15l3.75,6.51a.18.18,0,0,0,.34-.09c.38-3.65-.34-7.34.21-11a46.75,46.75,0,0,1,1.37-4.93,28.6,28.6,0,0,0,.58-5.14c.06-.8,0-2.42.89-2.74a15.19,15.19,0,0,1,2.57-.59,20.64,20.64,0,0,1,5.49-.34c.63.06.84.45,1,1l.39,1.33c.26.89.51,1.78.74,2.67q.72,2.68,1.3,5.4a118.3,118.3,0,0,1,2,12.27.19.19,0,0,0,.34.1Q247.44,59,250,55.16A.23.23,0,0,0,250,55ZM235.55,20.5A47.53,47.53,0,0,1,237.48,28c.23,1.39.41,2.8.51,4.21,0,.67.09,1.35.11,2l0,1a2.9,2.9,0,0,1-.08,1.21,5.82,5.82,0,0,1-1.72.18c-.5,0-1,.06-1.5.07l-1.39,0c-.51,0-1.28.13-1-.63a11.33,11.33,0,0,0,.55-2.3,21.89,21.89,0,0,1,.43-2.81c.47-1.83,1.2-3.57,1.55-5.43C235.24,23.92,235.4,22.21,235.55,20.5Z" fill="#fff"/><path d="M212.94,49.94c-1.25,1-2.83,2.29-4.57,2.14-.77-.06-1.41-.58-2.18-.63a2.92,2.92,0,0,0-1.76.6,69.3,69.3,0,0,1-1-8.74c-.19-2.9-.55-5.84-.5-8.74a11.3,11.3,0,0,1,.87-4.26,6.22,6.22,0,0,0,.73-3.32c-.2-1.53-.65-3-.8-4.55a33,33,0,0,1-.13-4.33A80,80,0,0,1,204.86,8a.21.21,0,0,0-.08-.21c-.95-.51-1.69.76-2.51,1-1.41.44-2.74-.46-3.85-1.22-.14-.1-.28.06-.25.2-.11,0-.22,0-.2.16a181.44,181.44,0,0,1,1.51,20.43,17.82,17.82,0,0,1-.46,4.94,15.61,15.61,0,0,0-.87,4.53c.07,1.64.48,3.25.62,4.88a34.84,34.84,0,0,1-.68,10.49,27.33,27.33,0,0,0-.88,5.38.18.18,0,0,0,.22.18l2.73-1.08a11.22,11.22,0,0,1,2.23-.74,2.05,2.05,0,0,1,2.1.7c.31.38.69.69,1.2.47s.83-1.07,1.51-1.3a2.67,2.67,0,0,1,2.26.6c1.17.85,1.93,2.23,3.46,2.5.08,0,.21,0,.22-.12a38.48,38.48,0,0,0,.11-9.71A.19.19,0,0,0,212.94,49.94Z" fill="#fff"/><path d="M182.8,5.94a5.09,5.09,0,0,1-2.19.63A3.33,3.33,0,0,1,178.3,5.5a.18.18,0,0,0-.3.13l.84,21.72.21,5.25a49.75,49.75,0,0,1,.09,5.18,8.82,8.82,0,0,1-.49,2.44,13.22,13.22,0,0,1-1.09,2,7.23,7.23,0,0,0-.8,1.77,11.62,11.62,0,0,0-.08,2.21c-.05.94-.67,1.37-1.2,2.06a5.61,5.61,0,0,0-.95,1.83c-.09.3-.13.61-.23.9s-.13.47-.28.55a1,1,0,0,1-.71,0,4,4,0,0,0-.9-.33,8.72,8.72,0,0,0-1-.07,2.25,2.25,0,0,1-2-1,4.37,4.37,0,0,1-.53-2.33,20,20,0,0,0,0-2.32,7.49,7.49,0,0,0-.61-2c-.71-1.59-1.46-3-1.35-4.76a38.56,38.56,0,0,0,.51-4.78,21.57,21.57,0,0,0-1.11-4.46,8.37,8.37,0,0,1-.32-2.43,18.78,18.78,0,0,1,.37-2.59,16.52,16.52,0,0,0-.07-5.39,14.3,14.3,0,0,1,0-5.57c.86-3.34,3.26-6,5.51-8.51h0a.18.18,0,0,0-.2-.29c-1.69,0-3.1.95-4.55,1.69a6.37,6.37,0,0,1-3,.78,13.29,13.29,0,0,1-3.48-.65.19.19,0,0,0-.22.23,18.89,18.89,0,0,1,.74,6.38,23.48,23.48,0,0,0-.24,3c0,1,.2,2.06.26,3.1a16,16,0,0,1-.27,3.31,7.54,7.54,0,0,0,.1,2.72,21.59,21.59,0,0,1,.51,6.41c-.19,2.13-.84,4.2-.7,6.36a24.56,24.56,0,0,0,1.39,5.91,13.44,13.44,0,0,1,.67,3.13,3.77,3.77,0,0,0,.61,2.12c.25.32.58.56.86.86a4.46,4.46,0,0,1,.79,1.17c.41.83.65,1.73,1,2.59.21.55.45,1.27,1.06,1.51a3,3,0,0,0,1,.12,6.29,6.29,0,0,1,1.67.29,6.57,6.57,0,0,1,1.35.61,2.93,2.93,0,0,0,1.1.52c.68.09,1.29-.51,1.78-.89a28.67,28.67,0,0,0,6.84-8c.49-.78.94-1.58,1.39-2.39a13.47,13.47,0,0,0,1.15-2.39,4.87,4.87,0,0,0-.09-2.62,9.13,9.13,0,0,1-.26-3.08c.1-1,.31-2,.41-3.05a15.66,15.66,0,0,0-.06-3.21,21.82,21.82,0,0,1-.17-3.13c0-1.09.25-2.16.36-3.24a28.76,28.76,0,0,0-.52-6.41,32.44,32.44,0,0,1-.12-6.23c.09-1.12.24-2.23.44-3.33.09-.48.19-1,.31-1.44a2.75,2.75,0,0,0,.19-1.16C183.74,5.75,183.2,5.78,182.8,5.94Z" fill="#fff"/><path d="M147.59,44.76c-1.4.57-1.8,2.77-3.42,2.8-.89,0-1.69-.52-2.57-.57s-1.43.72-2.27,1c-1.06.39-2.15-.44-2.73-1.27a12.38,12.38,0,0,1-1.2-2.85A7.18,7.18,0,0,0,134,41.71c-.92-1-.91-2.25-1-3.55-.18-2.41-.35-4.81-.53-7.21-.15-2.17-.55-4.58.81-6.46a3.58,3.58,0,0,0,.91-2.45,12.21,12.21,0,0,1,.12-3.36,6.68,6.68,0,0,1,1.4-3.08c.6-.61,1.6-.48,2.29-1,1.24-.9,1.63-2.56,2.41-3.82a3.24,3.24,0,0,1,2.21-1.65,7.21,7.21,0,0,1,3.67.69.18.18,0,0,0,.23-.17c-.13-3.1-.27-6.19-.4-9.28A.16.16,0,0,0,146,.22a.19.19,0,0,0-.31-.18c-1.88,1.47-3,3.6-4.47,5.42a9.66,9.66,0,0,1-2.76,2.41,24.4,24.4,0,0,1-3.71,1.5,3.62,3.62,0,0,0-2.23,2.08c-.49,1.13-.79,2.34-1.26,3.48a27.19,27.19,0,0,1-1.89,3.68c-.34.53-.69,1.06-1.06,1.56a13.19,13.19,0,0,0-1.19,1.69,3.74,3.74,0,0,0-.27,1.69c0,.75,0,1.49,0,2.24a25.88,25.88,0,0,1-.76,4.45,9.18,9.18,0,0,0-.42,3.71c.2,1.23,1.06,2.07,1.59,3.15,1,2.18-.53,4.77.73,6.89a7.19,7.19,0,0,0,2.51,2.1c1.18.76,2.33,1.55,3.46,2.36,1.36,1,2.69,2,4,3.07,1,.81,2,2,3.19,2.39a1.61,1.61,0,0,0,1.45-.11,4.61,4.61,0,0,0,.62-.63,1.47,1.47,0,0,1,1.24-.43c1.42.11,2.57,1.42,4.07.92a.19.19,0,0,0,.13-.17,25.75,25.75,0,0,0-.77-8.61A.18.18,0,0,0,147.59,44.76Z" fill="#fff"/><path d="M115.84,45a7.8,7.8,0,0,0-.22-2.21,6.1,6.1,0,0,0-1.09-2A9.46,9.46,0,0,1,112.78,36c-.17-1.61-.18-3.25-.5-4.85-.66-3.3-2.91-6.1-3.26-9.47-.16-1.53.44-3.25-.42-4.66a14.12,14.12,0,0,1-1.45-2.3,14.2,14.2,0,0,1-.59-2.5c-.4-2.17-.79-4.35-1.19-6.53-.11-.61,0-1.66-.81-1.78a10.73,10.73,0,0,0-1.5,0l-1.77,0a.18.18,0,0,0-.13.3c.19.25.09,1,.08,1.33,0,.51,0,1-.08,1.54a17.74,17.74,0,0,1-.63,3.31c-.57,2-1.57,3.77-2,5.76-.88,3.64-.37,7.67-2.33,11a6.81,6.81,0,0,0-1.07,2.47c-.14,1-.07,2-.14,3a22.44,22.44,0,0,1-1.37,6.2c-.36,1-.86,1.89-1.2,2.87a10.1,10.1,0,0,0-.44,2.79,19.22,19.22,0,0,1-1.25,6.09c-.35.85-1.13,1.86-.88,2.82a4.45,4.45,0,0,0,.65,1.24l1.05,1.6,4.2,6.39c.09.14.35.1.33-.09a65.47,65.47,0,0,1-.28-11.37,28.39,28.39,0,0,1,1-5.47,20.17,20.17,0,0,0,1.07-5.16c0-.95-.09-1.78.93-2.27a25.24,25.24,0,0,1,2.81-1.11,9.57,9.57,0,0,1,5.44-.52,1.3,1.3,0,0,1,1.07.93c.13.42.19.86.28,1.28l.63,3c.38,1.86.76,3.73,1.13,5.59q1.28,6.54,2.44,13.09a.18.18,0,0,0,.33,0,27.62,27.62,0,0,1,3.49-6.46c.53-.67,1.44-1.35,1.43-2.29s-.85-1.59-1.34-2.28C115.6,48.25,115.82,46.57,115.84,45Zm-9.67-11c-1,.12-2.07.2-3.11.22h-1.4a1.42,1.42,0,0,1-.91-.18c-.28-.2-.28-.38-.33-.72a10.75,10.75,0,0,1,1.14-6c.4-.86.9-1.67,1.28-2.54a5.69,5.69,0,0,0,.44-2.31c0-1,0-2,0-3V17.82a.76.76,0,0,1,0-.15,4.5,4.5,0,0,1,.38.64,12,12,0,0,1,.69,1.93c.41,1.47.82,2.94,1.16,4.42A25,25,0,0,1,106.17,34Z" fill="#fff"/><path d="M61.34,45.35a2.25,2.25,0,0,0-.25-1.13.15.15,0,0,0-.08-.08.14.14,0,0,0-.12,0,1.87,1.87,0,0,0-.85.11c-.62.17-1.23.37-1.86.52a4.91,4.91,0,0,1-2,.18c-.83-.16-1.46-.78-2.35-.72a.19.19,0,0,0-.18.18c-.06,1.78-.07,3.56-.05,5.33,0,.88,0,1.75.07,2.62,0,.44,0,.88.06,1.32a1,1,0,0,0,.19.58c.32.38.79.15,1.1-.11a3.64,3.64,0,0,1,2.05-1c1.64-.15,2.76,1.1,4.11,1.78a.19.19,0,0,0,.27-.16q.14-3.33.07-6.68C61.45,47.18,61.43,46.26,61.34,45.35Z" fill="#fff"/><path d="M45.65,40.09c-.69-1.74-1.43-3.46-2.2-5.17a9.82,9.82,0,0,1-1.15-3,2.93,2.93,0,0,1,.63-2c.78-1.05,1.92-1.77,2.76-2.77a5.63,5.63,0,0,0,1.09-4,9.63,9.63,0,0,1,.16-2.68A8.6,8.6,0,0,0,47.48,18a6.07,6.07,0,0,0-.74-2.32c-.41-.89-.84-1.78-1.26-2.67s-.87-1.86-1.31-2.78c-.23-.5-.5-1.66-1.17-1.73a1.11,1.11,0,0,0-.68.22,3.66,3.66,0,0,1-1.18.56,4.44,4.44,0,0,1-2.83-.5c-1.79-.86-3.45-2-5.14-3.07-.46-.28-2.52-1.36-2.45,0,.05,1,.33,1.95.47,2.9s.29,2,.41,3.08q.36,3,.55,6a92.35,92.35,0,0,1,.1,11.88A19.21,19.21,0,0,1,31,35.12c-.7,1.9-.1,3.7.06,5.64s.08,4,.06,5.94,0,4-.12,6c0,1-.1,2-.18,3,0,.16.2.22.3.12,1.71-1.67,4.34,0,6.3.13a.19.19,0,0,0,.18-.18c-1-7.62-2-15.35-1-23A23.38,23.38,0,0,1,39,37.71c.78,1.87,1.56,3.76,2.29,5.66A88.94,88.94,0,0,1,45,54.73c.25,1.06.45,2.12.68,3.18a5.76,5.76,0,0,0,1.07,2.44c.09.11.26,0,.3-.08l1.89-4.88a14.23,14.23,0,0,0,.83-2.29,4,4,0,0,0-.2-2Q47.83,45.53,45.65,40.09ZM36.64,26c.13-1.43.73-2.76.46-4.2-.12-.7-.36-1.38-.47-2.09a17.13,17.13,0,0,1-.14-2.68c0-1.67,0-3.34,0-5,0-.63.29-1.9,1.18-1.22l.06.06a1.78,1.78,0,0,1,.24.32L39.34,13a8.45,8.45,0,0,1,1.78,3.29,19.6,19.6,0,0,1,.22,2.87,15,15,0,0,1,0,2.84c-.27,1.38-1.07,2.57-1.45,3.92s-.42,3.18-1.84,3.95c-.47.25-1.17.4-1.41-.26a4.45,4.45,0,0,1-.06-1.16A19.71,19.71,0,0,1,36.64,26Z" fill="#fff"/><path d="M22.49,27.39a4,4,0,0,1,0-1.54A3.75,3.75,0,0,0,22,23.36c-.54-.95-1.11-1.89-1.67-2.83s-1.11-2-1.75-3a.82.82,0,0,0-.42-.38c-.18-.05-.24,0-.4,0a1,1,0,0,1-.69-.24,6.7,6.7,0,0,1-.69-.81L15.34,14.9a3.69,3.69,0,0,0-.68-.74.85.85,0,0,0-.86,0,2.6,2.6,0,0,1-1.84.11,6.13,6.13,0,0,1-2.64-2.2.2.2,0,0,0-.22,0,5.6,5.6,0,0,1-2.48.9,2.38,2.38,0,0,1-1.17-.28c-.35-.2-.5-.53-.76-.82s-.77-.32-1.22-.12a2.52,2.52,0,0,1-2.53-.14.18.18,0,0,0-.24.24A8.53,8.53,0,0,1,1.34,14a21.4,21.4,0,0,1,.53,2.6,15.76,15.76,0,0,1-.08,5.35,24.12,24.12,0,0,0-.95,4.9,21.61,21.61,0,0,0,1,4.61c.82,3.5.31,7.15-.48,10.61a14.48,14.48,0,0,0-.46,2.25,6.87,6.87,0,0,0,.5,2.4,12.85,12.85,0,0,1,.13,5c-.21,2-.5,3.87-.9,5.8A20.92,20.92,0,0,0,0,63.06a.18.18,0,0,0,.34.09c1.38-1.83,3.36-4.2,6-3.33.13,0,.25-.09.22-.22-.28-1.18.88-1.93,1.92-2,.62,0,1.57.46,2.11,0a2.48,2.48,0,0,0,.47-.76,4.12,4.12,0,0,1,.75-1,2.73,2.73,0,0,1,2.52-.91.18.18,0,0,0,.22-.13c1.09-3.72,3.74-6.49,6.26-9.32a3.15,3.15,0,0,0,.89-2c0-1,0-2,.08-3.08a33,33,0,0,1,1-6.17c.49-1.79,1.41-3.83.43-5.61A4.72,4.72,0,0,1,22.49,27.39ZM6.67,16.15c1.72-.45,3.62-.84,5.28,0s2,2.66,2.78,4,1.77,2.62,2.49,4a10.05,10.05,0,0,1,.94,5.3,57.75,57.75,0,0,1-1.85,13.79,19,19,0,0,1-1.11,3.09,4.08,4.08,0,0,1-.82,1.19,5.43,5.43,0,0,1-1.43.84A5.81,5.81,0,0,0,10.4,51.8a10.8,10.8,0,0,1-1,2,3.57,3.57,0,0,1-.78.82A1.83,1.83,0,0,1,8,55c-.54.17-.72-.2-.81-.71C7,53.08,7,51.84,6.85,50.64S6.62,48.21,6.51,47c-.41-4.81-.72-9.63-.79-14.46A106.93,106.93,0,0,1,6.67,16.15Z" fill="#fff"/></svg>