<svg xmlns="http://www.w3.org/2000/svg" viewBox="0 0 290 73"><g fill="#fff"><path d="M148.34 27.16c.5-.24 1.05-.25 1.59-.29 5.35-.36 13.01-.28 18.4 0 8.97.48 16.34 6.57 13.78 16.21-.76 2.88-2.39 3.42-4.98 4.31-.56.19-1.89 0-1.78 1.24.1 1.06 2.05 1.37 2.9 1.95 1.2.82 3.25 3.58 3.68 4.95.66 2.09-.02 5.35-.76 7.4-.77 2.15-3.57 3.04-5.57 3.94-8.98 4.05-15.92 4.86-25.66 4.66-.87-.02-1.5.57-2.45.03-.08-.05-1.17-1.13-1.22-1.21-.54-.93 0-1.74.02-2.66.2-8.6.34-17.84 1.32-26.32.09-.77-.13-1.72 0-2.43.21-1.14 2.76-.76 2.89-2 .19-1.74-3.79-.29-4.17-1.58-.47-1.6 1.51-6.43 2.01-8.19zm14.72 8.83c-1.66.49-1.17 3.05-1.26 4.28s-.71 5.84-.24 6.64c.13.23.49.51.77.52 1.16.06 5.19-1.67 6.08-2.55 2.28-2.27 2.51-5.86-.21-7.92-1.26-.95-3.65-1.4-5.14-.96zm-1.57 16.35c-.8.28-.53 3.46-.58 4.28-.07 1.2-.56 4.69-.11 5.64.59 1.23 5.73.67 6.83-.04 1.66-1.06 1.96-5.33 1-6.89s-5.49-3.56-7.13-2.99zM34.98 47.66c.22.14.29.31.33.55.19 1.02.04 3.48 0 4.65-.12 4.13-.79 8.27-1.11 12.38-.1 1.3.31 4.75-.35 5.62-.58.76-2.82.39-3.76.45-2.06.13-4.13.35-6.19.45-1.69-.32-1.24-3.1-2.22-3.1-.74 0-1.78 2.51-2.33 2.99-1.43 1.25-4.75.52-6.42 0C-2.68 66.82-1.9 45.71 3.55 33.54c.31-.69.73-1.54 1.3-2.02.85-.73 3.77-1.93 4.93-2.38 4.55-1.77 13.18-4.14 17.72-2.07 2.83 1.29 6.94 5.49 7.93 8.45.53 1.57.61 1.63-.84 2.47-2.47 1.43-5.55 2.5-8.23 3.5-1.37-.48-1.74-2-2.43-2.89-.47-.6-2.32-2.33-2.99-2.54-1.39-.43-3.96-.7-4.71.85-.55 1.14-.62 2.43-.9 3.53-1.3 5.1-3.95 13.93-.48 18.51 1.22 1.61 4.44 3.27 6.44 3.32.32 0 1.16-.28 1.36-.49.38-.4.44-5.59.17-6.13-.53-1.08-2.52.66-3.44-.98-.82-1.45.32-5.31.68-6.98h14.95zM264.71 49.96c2.4 2.72 3.4 6.38 2.97 9.98-.16 1.32-.56 1.98-1.88 2.1-2.48.23-5.86.04-8.44 0-.93-.01-1.79-.53-2.76.1-.94 2.91 3.84 3.37 5.87 3.21 1.52-.13 3.84-1.19 5.2-.32s.45 2.55.25 3.77c-.29 1.78.52 2.34-1.78 2.86-6 1.37-14.8.81-18.84-4.43-2.48-3.22-2.63-8.74-1.48-12.54.2-.65 1.89-4.39 2.25-4.83.79-.99 4.06-1.85 5.38-2.15 4.49-1.01 9.93-1.54 13.26 2.24zm-9.28 3.06c-1.21.27-1.94 2.31-1.38 3.27.43.73 3.42.63 4.09-.13 1.39-1.58-1.07-3.52-2.71-3.15zM84.33 54.37c.68-.59 2.79-.6 1.99-2.23-.3-.61-1.22-.6-1.12-1.65.03-.37 1.69-3.42 1.99-3.78.76-.9 2.23-.96 3.39-1.04 6-.39 10.44.35 14.52 4.98 2.36 2.67 2.93 4.59 2.66 8.2-.14 1.89-2.08 7.7-3.1 9.29-.2.31-.64.6-.96.81-2.22 1.46-8.7 2.88-11.32 2.59-2.92-.33-7.02-3.82-8.12-6.49s-1.09-6.58-.64-9.29c.05-.33.49-1.18.72-1.38zm10.94-1.59c-.71.22-1.67 2.92-1.87 3.67-.73 2.71-.86 6.01.74 8.44.59.89 2.1 1.99 2.85.67.12-.21.64-1.81.73-2.15.39-1.56.89-4.81.73-6.35-.15-1.39-1.19-4.87-3.17-4.28zM53.31 71.04c-.15-.13-.23-.49-.51-.7-1.42-1.08-2.26 1.2-3.44 1.43-6.11 1.17-11.33-5.06-10.42-10.84.3-1.88 2.4-5.06 4.44-5.3 1.64-.2 4.26-.04 6 0 1.02.02 2.44.68 3.33-.2s0-2.4-.88-2.9c-1.76-.99-6.25 0-8.08.81-.46.2-.51.81-1.35.42-1.61-.74-.44-4.51-.62-5.93.25-.85 2.81-1.47 3.67-1.65 5-1.03 10.49-.76 13.88 3.5 2.19 2.75 3.29 6.29 2.8 9.84-.35 2.48-.98 5.16-1.12 7.73-.05.9.35 2.93.11 3.43-.36.74-2.5.39-3.32.44-1.06.07-3.64.61-4.48-.07zm-4.44-10.5c-.14.08-.88 1.56-.92 1.85-.42 2.99 4.03 4.27 4.41 2.19.09-.49.08-2.09-.11-2.53-.34-.82-2.51-2.01-3.38-1.51zM87.31 30.14c-.54.46-3.79.25-4.72.26-1.1.02-1.61.63-2.44-.64-.5-.77-.38-2.65-.32-3.66.08-1.31.56-2.72.66-3.99.36-4.76.26-9.61.67-14.37.14-1.59.33-4.75.71-6.14.13-.47.43-.96.95-1.04 1.76.4 6.48-1.34 6.97 1.22.31 1.6-.67 7.51-.12 8.3.89.52 1.82-.15 2.88 0 .77.11 3.23.82 3.87 1.23 1.19.75 3.58 4.41 3.77 5.75.43 3.12-.81 5.56-1.09 8.38-.1.99-.03 2.3-.01 3.32.03 1.45.72 2.24-1.65 2.33-.82.03-3.73-.24-4.31-.58-1.92-1.12-.92-3.54-.89-5.29.04-2.06.15-4.63-.01-6.64-.1-1.28-.09-2.71-1.66-2.78-1.22-.06-1.84.57-2.05 1.73-.45 2.46-.2 6.13-.5 8.79-.06.53-.57 3.69-.72 3.82zM70.68 30.13c-.98 1.24-2.18.48-3.36.49-1.4 0-5.03 1.4-5.6-.58-.2-.68-.08-2.86-.05-3.72.06-2.71.53-5.47.67-8.17.16-3.16-.08-6.35.44-9.49-.75-2.81-3.8-.5-5.53-1.58-2.07-1.29-.52-3.95-.89-5.96.16-.81.94-.95 1.65-1.01 4.17-.38 8.48.3 12.63.46 1.73.07 7.03-.35 8.18.24 1.48.76.75 2.2.59 3.4-.1.78.25 1.82-.45 2.42-.34.29-2.22.55-2.77.57-1.27.05-2.95-.77-3.82.81L70.7 30.12zM75.79 38.2c.36-.05.59-.11.94.06 1.66.81.09 5.97.78 7.41.55 1.16 4.64.09 4.94 2.15.07.49-.49 3.39-.83 3.73-1.02 1.02-4.07-.67-4.94 1.26-.5 1.11-.57 2.6-.62 3.8-.06 1.28-.22 5.88.06 6.82.47 1.62 4.01.4 4.38 2.26.14.67-.25 4.65-.56 5.18-.48.82-3.89.75-4.86.67-3.64-.29-7.01-2.65-8.16-6.23-1.32-4.1.33-8.23-.19-12.41-1.48-1.93-3.14-1.71-2.6-4.68.28-1.54 1.47-1.13 2.41-1.57 1.97-.91-.01-5.24 1.44-6.52.87-.76 2.7-.71 3.72-.94 1.29-.29 2.82-.82 4.1-1zM224.32 48.62c.52-.71 1.99-.39 2.71-1.6 1.15-1.92-.08-3.74.76-5.66 1.34-.6 2.95-.54 4.3-.79 1.2-.22 4.73-1.56 5.33-.19s-.35 5.2.23 6.41c.68 1.41 2.59-.57 4.19 1.13.71.75.84 3.54.46 4.39-.74 1.67-4.6-.74-5.54 2.43-.63 2.11-.73 6.43-.78 8.74-.09 4.32 3.64.33 4.4 2.93.27.92.24 4.64-.62 5.26-1.65 1.19-5.77.88-7.58.05-3.33-1.52-5.37-4.87-5.71-8.46-.31-3.33.58-6.63.18-9.9-.31-1.04-2.64-.53-2.63-3.36 0-.33.12-1.12.31-1.37zM112.13 9.91c2.74-.18 7.63 2.64 8.57 5.25.5 1.4 1.41 6.43.01 7.31-.86.54-1.79 0-2.66-.02-1.18-.03-2.38.08-3.56.02-1.3-.06-3.71-1.21-3.89.76-.23 2.45 3.76 2.22 5.44 2.1 1.38-.1 2.61-.86 4.11.11.41 1.17.37 4.32-.89 4.87-1.99.87-7.62 1.13-9.65.56-7.23-2.02-9.26-10.17-6.63-16.59.62-1.52 1.09-2.24 2.62-2.92 1.44-.64 4.94-1.34 6.53-1.45zm-.46 5.72c-1.66.32-1.23 2.56.17 2.61 1.72.06 1.59-2.95-.17-2.61zM129.15 47.96c.41.42 1.48 2.12 1.41 2.67-.03.23-1.74 3.93-1.96 4.26-.26.41-.52.87-1.05.97-.81.08-2.76-2.54-3.97-2.68-1.63-.19-3.27 1.92-3.45 3.44-.49 4.06.06 8.99-.43 13.28-.07.64-.23 1.1-.88 1.33l-7.09.44c-.71-.63-1.56-1.67-1.56-2.66 0-.42.23-.85.23-1.32.02-5.39.42-10.77.66-16.14.05-1.18-.44-4.38.66-4.87.52-.23 6.06-.22 6.98-.13s1.67.69 2.41.66c1.15-.05 1.8-1.42 3.56-1.32 1.03.06 3.75 1.32 4.47 2.08zM287.78 56.46c-.88.95-2.17-1.48-2.75-1.91-1.4-1.03-4.3-.68-4.85 1.06-.98 3.07-.54 7.87-.77 11.18-.07 1.02-.25 3.94-.6 4.7-.13.29-.31.39-.56.54-.88.52-5.32.55-6.49.41-.89-.11-2.02-1.84-2.1-2.77-.18-1.93.12-5.04.23-7.08.16-2.94.65-5.94.88-8.85.16-1.95.15-3.92.33-5.87.41-.62 6.14-.78 7.1-.66s1.87 1.12 2.65 1.13c.84.01.79-.61 1.24-.99 2.41-2.04 6.45 1.36 7.91 3.34l-2.22 5.77zM211.24 71.93c-.65-.62-.78-2.93-.73-3.82.2-3.71.7-7.63 1.12-11.26.29-2.48-.08-5.58.27-8.13.51-1.99 3.82-1.22 5.37-1.27 1.13-.04 2.06-.61 3.25-.15 2.45.94 1.16 3.18 1.07 5.13-.25 5.44-.52 10.3-1.11 15.7-.11 1.06.43 3.38-1 3.64s-3-.07-4.43 0c-.91.04-3.22.74-3.81.17zM214.69 34.02c1.27-.17 6.25-.25 7.26.14 1.6.62.97 2.07.97 3.21 0 1.46.62 4.54-1.2 4.77-1.41.18-3.39-.06-4.89-.02-.9.02-2.53.61-3.33.03-.16-.12-.93-1.23-.98-1.46-.17-.88-.09-4.96.27-5.69.39-.81 1.07-.87 1.89-.98zM198.52 71.04c-.15-.13-.23-.49-.51-.7-1.42-1.08-2.26 1.2-3.44 1.43-6.11 1.17-11.33-5.06-10.42-10.84.3-1.88 2.4-5.06 4.44-5.3 1.64-.2 4.26-.04 6 0 1.02.02 2.44.68 3.33-.2s0-2.4-.88-2.9c-1.76-.99-6.25 0-8.08.81-.46.2-.51.81-1.35.42-1.61-.74-.44-4.51-.62-5.93.25-.85 2.81-1.47 3.67-1.65 5-1.03 10.49-.76 13.88 3.5 2.19 2.75 3.29 6.29 2.8 9.84-.35 2.48-.98 5.16-1.12 7.73-.05.9.35 2.93.11 3.43-.36.74-2.5.39-3.32.44-1.06.07-3.64.61-4.48-.07zm-4.45-10.5c-.14.08-.88 1.56-.92 1.85-.42 2.99 4.03 4.27 4.41 2.19.09-.49.08-2.09-.11-2.53-.34-.82-2.51-2.01-3.38-1.51z"/></g></svg>