<svg xmlns="http://www.w3.org/2000/svg" viewBox="0 0 250 137"><path fill="#fff" d="M69.46 19.78l-6.14 10.4h7.67l-1.53-10.4zM136.7 69.55c-1.13-1.21-2.59-2.18-4.32-2.9-1.75-.72-3.76-1.08-6-1.08-2.81 0-5.37.6-7.61 1.79a18.935 18.935 0 0 0-5.84 4.77c-1.61 1.97-2.86 4.26-3.74 6.8-.88 2.54-1.32 5.21-1.32 7.91 0 1.92.31 3.74.93 5.41.61 1.65 1.51 3.11 2.68 4.32 1.16 1.22 2.62 2.19 4.33 2.91 1.71.72 3.74 1.08 6.04 1.08 2.87 0 5.46-.59 7.71-1.75 2.27-1.17 4.21-2.76 5.78-4.71 1.58-1.98 2.81-4.28 3.66-6.84a25.42 25.42 0 0 0 1.28-7.97c0-1.92-.31-3.74-.93-5.41-.61-1.66-1.5-3.11-2.64-4.33z"/><path d="M249.18 60.76l-1.63-3.45-2.67-5.66h.79l-.82-1.73-1.63-3.45-2.05-4.35c1.86-1 3.48-2.29 4.82-3.85 2.47-2.87 3.72-6.52 3.72-10.87 0-2.14-.37-4.08-1.1-5.82s-4.07-10.18-4.07-10.18c-.86-2.41-2.38-4.46-4.56-6.1-3.27-2.47-7.72-3.73-13.23-3.73h-49.74l-.18 1-.35 2-.53 3.01c-1.93-2.32-4.47-4.1-7.58-5.31-3.17-1.23-6.71-1.85-10.53-1.85-4.12 0-8 .8-11.54 2.37a28.548 28.548 0 0 0-6.66 4.12l-2.13-5.34h-17.3l-.17 1.01-.34 2.01-2.76 16.09-7.01-16.87-.62-1.49-.31-.75H92.22l-.18 1-.35 2-4.1 23.23-2.35-12.44-.37-1.97-.19-.98-4.33-10.83h-14.8l-.36.56-.71 1.12-11.73 18.41-2.68-6.72c-.23-.57-.48-1.14-.76-1.67-1.45-2.74-3.37-5.02-5.7-6.78-2.27-1.72-4.86-2.99-7.69-3.78-2.7-.75-5.46-1.13-8.2-1.13H8.84l-.18 1-.35 2-7.56 42.8-.5 2.84L0 51.65l4.33 10.83h21.8c3.17 0 6.21-.39 9.05-1.15l-8.98 50.89-.5 2.84-.25 1.42 4.33 10.83h28.57c5.61 0 10.88-.89 15.68-2.66 4.85-1.78 9.12-4.36 12.7-7.66 2.9-2.68 5.32-5.84 7.2-9.42.32 1.23.71 2.41 1.17 3.55 1.51 3.73 3.73 6.96 6.61 9.61 2.85 2.62 6.34 4.66 10.38 6.05 3.94 1.36 8.43 2.04 13.34 2.04 5.62 0 10.87-1.05 15.59-3.12 4.71-2.06 8.82-4.94 12.22-8.56 2.76-2.93 5.04-6.31 6.8-10.06.37 1.51.85 2.95 1.44 4.32 1.57 3.64 3.79 6.79 6.62 9.36 2.8 2.55 6.22 4.53 10.16 5.88 3.85 1.32 8.14 1.99 12.75 1.99 1.24 0 2.5-.05 3.76-.14l-.39 2.27-.67 3.87-.33 1.93 1.88-.57 3.75-1.14 13.53-4.1 1.42-.43.71-.22.13-.73.26-1.46 1.01-5.75.03-.02.1-.57.19-1.12 2.11-12.16v-.02l3.31-19.06.49-2.83.25-1.42-4.42-7.39 3.79-3.41 1.64-1.48.82-.74-5.12-9.46h2.51l.17-1.01.34-2.02 2-11.87 5.29 12.66.62 1.49.31.74h19.51l-.82-1.73zM179.06 4h29.85l-1.94 11.01h-17.78l-1.03 5.87h16.94l-1.88 10.52h-16.93l-1.16 6.77h19.48l-1.93 11.07h-31.61L179.06 4zm-40.2 6.93c2.38-2.5 5.21-4.5 8.43-5.93 3.23-1.43 6.78-2.16 10.56-2.16 3.52 0 6.77.57 9.66 1.68 2.96 1.15 5.33 2.88 7.03 5.15l.66.88-9.16 8.25-.78-1.13c-.7-1.01-1.67-1.88-2.9-2.57-1.2-.68-2.78-1.02-4.7-1.02s-3.68.41-5.3 1.21a13.54 13.54 0 0 0-4.28 3.31c-1.21 1.4-2.17 3.04-2.86 4.89-.69 1.85-1.04 3.83-1.04 5.9 0 1.43.22 2.76.65 3.98a8.365 8.365 0 0 0 1.9 3.07c.84.86 1.9 1.54 3.14 2.02 1.27.49 2.75.74 4.4.74 1.1-.04 2.17-.14 3.15-.31.7-.12 1.37-.32 2-.58l1.04-6h-8.36l1.95-10.7h20.05l-4.28 24.61h-.02l-.97 5.56-12.38 3.76.94-5.41c-1.48.18-2.96.28-4.43.28-3.18 0-6.14-.46-8.77-1.37-2.66-.92-4.97-2.25-6.86-3.97-1.89-1.72-3.39-3.84-4.44-6.28-1.05-2.44-1.58-5.2-1.58-8.22 0-3.8.67-7.43 1.99-10.78 1.32-3.36 3.2-6.33 5.57-8.83zM66.89 4h11.46l8.23 43.48L94.26 4h13.13l10.52 25.33L122.25 4h12.38l-7.99 45.24h-13.01l-10.62-25.61-4.36 25.61H86.91l-.33-1.76-.31 1.76H73.85l-1.45-8.53H57.59l-5.14 8.53H38.07L66.89 4zM32.62 47.4c-3.3 1.21-6.94 1.83-10.82 1.83H2.88L10.87 4h16.86c2.52 0 5.06.35 7.55 1.04 2.53.7 4.85 1.84 6.88 3.38 2.05 1.55 3.74 3.57 5.03 5.99 1.3 2.44 1.96 5.41 1.96 8.82 0 3.89-.69 7.49-2.06 10.7-1.37 3.21-3.31 5.98-5.77 8.25-2.45 2.26-5.37 4.02-8.69 5.24zm48.14 56.99c-3.35 3.09-7.35 5.5-11.9 7.17-4.53 1.66-9.52 2.51-14.85 2.51H28.32l10.91-61.82h22.99c3.45 0 6.93.48 10.35 1.43 3.46.96 6.62 2.51 9.38 4.61 2.78 2.11 5.09 4.86 6.84 8.16 1.76 3.32 2.66 7.37 2.66 12.02 0 5.34-.95 10.27-2.82 14.65-1.88 4.39-4.53 8.18-7.88 11.28zm73.81-11.61c-1.75 4.51-4.25 8.51-7.42 11.88-3.18 3.38-7.02 6.07-11.43 8-4.41 1.93-9.33 2.91-14.62 2.91-4.64 0-8.87-.64-12.56-1.91-3.72-1.28-6.93-3.14-9.53-5.54-2.61-2.4-4.63-5.34-6.01-8.74-1.37-3.37-2.06-7.17-2.06-11.28 0-5.16.9-10.07 2.69-14.58 1.78-4.52 4.32-8.52 7.55-11.89 3.23-3.37 7.1-6.06 11.5-7.99 4.41-1.93 9.33-2.91 14.62-2.91 4.58 0 8.77.64 12.43 1.91 3.69 1.28 6.87 3.15 9.45 5.54 2.58 2.41 4.58 5.35 5.96 8.74 1.37 3.38 2.06 7.17 2.06 11.28 0 5.16-.89 10.06-2.64 14.57zm50.26-21.22l-.78-1.13c-1.01-1.46-2.4-2.7-4.15-3.69-1.73-.98-3.99-1.47-6.71-1.47s-5.23.58-7.53 1.71a19.197 19.197 0 0 0-6.05 4.68c-1.71 1.97-3.07 4.29-4.04 6.9-.97 2.61-1.47 5.4-1.47 8.31 0 2.03.31 3.93.93 5.65.61 1.69 1.53 3.18 2.73 4.41 1.21 1.23 2.72 2.21 4.5 2.89 1.8.69 3.9 1.05 6.25 1.05 1.56-.05 3.06-.2 4.43-.44 1.09-.19 2.13-.5 3.09-.93l1.57-9.08h-11.54l2.53-13.86h26.76l-5.78 33.24h-.03l-1.34 7.61-16.12 4.89 1.27-7.35c-2.23.3-4.47.46-6.69.46-4.35 0-8.37-.63-11.96-1.86-3.62-1.25-6.76-3.06-9.32-5.39-2.57-2.33-4.59-5.2-6.02-8.52-1.42-3.31-2.14-7.07-2.14-11.17 0-5.19.91-10.15 2.72-14.73 1.8-4.58 4.36-8.63 7.6-12.04 3.24-3.41 7.11-6.13 11.5-8.08 4.4-1.95 9.24-2.94 14.4-2.94 4.8 0 9.24.77 13.18 2.29 4.01 1.55 7.21 3.9 9.51 6.96l.66.88-11.95 10.77zm22.94-22.33l-7.2-17.24h-2.28l-2.9 17.24h-12.26l7.99-45.24h15.65c4.96 0 8.92 1.09 11.77 3.24 2.95 2.23 4.44 5.37 4.44 9.34 0 3.75-1.06 6.87-3.14 9.29-1.77 2.05-4.08 3.55-6.9 4.48l8.92 18.89h-14.08z" fill="#fff"/><path d="M229.18 15.47c-1.07-.55-2.58-.83-4.47-.83h-3.28l-1.38 7.68h3.03c2.47 0 4.38-.39 5.67-1.15 1.12-.66 1.64-1.67 1.64-3.17 0-1.71-.7-2.26-1.22-2.53zM70.95 70.5c-1.21-1.21-2.78-2.19-4.65-2.91-1.89-.73-4.19-1.09-6.82-1.09h-6.62l-5.78 33.07h7.54c3.29 0 6.22-.55 8.71-1.62 2.48-1.07 4.58-2.53 6.21-4.32 1.65-1.8 2.9-3.9 3.74-6.22.84-2.35 1.27-4.79 1.27-7.27 0-1.87-.3-3.66-.9-5.34a11.48 11.48 0 0 0-2.69-4.29zM33.77 17.73c-.84-.84-1.93-1.52-3.24-2.02-1.33-.51-2.94-.77-4.8-.77h-4.49L17.19 38.1h5.03c2.32 0 4.39-.38 6.14-1.14 1.75-.75 3.22-1.77 4.36-3.03 1.16-1.27 2.04-2.74 2.63-4.37.59-1.65.9-3.38.9-5.12 0-1.31-.21-2.56-.63-3.74a7.877 7.877 0 0 0-1.86-2.96z" fill="#fff"/></svg>