<svg xmlns="http://www.w3.org/2000/svg" width="180" height="193" viewBox="0 0 180 193"><path d="M28.12,61.84l.73.62c-2.86,4.37-7.23,8.84-13,8.84C6.55,71.3,0,62.77,0,52.84,0,46,3.27,41.25,9.93,38.45c3.74-1.56,7.69-2.81,11.33-4.94,1.19.57,2.6,2.18,4.1,2.18A2,2,0,0,0,27,34.91l.57.57c-1.51,2.45-3.38,4.73-6.66,4.37v27A11,11,0,0,0,28.12,61.84ZM10.71,39.28C7,42,5.35,46.4,5.35,51.08A17.34,17.34,0,0,0,9.82,63.34l1-.57a3.57,3.57,0,0,0,1.82-3.33,29.11,29.11,0,0,0-.16-3Zm5.09-2,1.72,17a22.68,22.68,0,0,1,.26,3.17c0,2.44-1.51,3.53-3.75,4.83l-3.48,1.87A12.64,12.64,0,0,0,20.06,67V39.75A9.12,9.12,0,0,1,15.8,37.3Z" fill="#fff"/><path d="M45.58,66.57c0,5.4-1.61,10.34-10,12.68l-.21-.78c5-2.18,5.2-6.34,5.2-11.59v-16l-1.77-1.61-3.28,3V66l1.82,1.56-3.95,3.64L29,67.76l1.61-1.71V41.57c0-2.24-.78-4.06-2.23-4.68l.73-.68A6.61,6.61,0,0,1,32.64,39a7.46,7.46,0,0,1,4.84-4.42l.36.52c-1.82,1.51-2.29,3.32-2.29,6.5v9.66L42,44.94c1.61,2,3.27,3.17,4.88,2.81l.26.68a2.71,2.71,0,0,0-1.56,2.39Z" fill="#fff"/><path d="M56.6,66.25a7.1,7.1,0,0,1,1.72,1l1.19-.83.42.78L55.2,70.93c-2.7-1.61-3.69-2.49-5.3-2.86v-.88c1.19-.36,1.71-2,1.71-3.07V51.86c0-1.61-.93-3.17-2.59-2.39l-.32-.68,3.95-3.9a4.86,4.86,0,0,1,3.85,4.58l4.26-4.53c1.61,2,2.24,3.17,3.85,2.81l.26.68-2.6,3.48A5,5,0,0,1,58,49.26L56.6,50.71Z" fill="#fff"/><path d="M66.17,48.84l4-3.9,4.52,3.85L73,50.87V65.73a12.75,12.75,0,0,1,2,1.56l1.2-.83.41.78-4.73,3.69c-2.7-1.61-4-2.49-5.56-2.86v-.88c1.2-.36,1.72-2,1.72-3.07V50.66Z" fill="#fff"/><path d="M79.16,48.74a25.23,25.23,0,0,0,8.48-3.9c.83.73,2.85,2.34,4.67,2.34,1.51,0,2.13-1.66,2.08-3l.73.11c0,1.87-.83,3.12-2.08,4.62l-4.52,5.62a11,11,0,0,0,6.24,2.18l.1.73c-1.09.93-1.35,1.3-1.35,1.82v7.43a21.6,21.6,0,0,0-8.42,4.73c-1-1.3-3.74-3.33-5.93-3.33s-3.27,1.72-2.49,3.28l-.73.36c-1.3-2.6,1.61-4.37,3.07-6.34l3.43-4.57a29,29,0,0,0-4.84-2.14v-.72c.52-.16,1.56-.52,1.56-1.3ZM88.52,59.5a8.48,8.48,0,0,1-3-1.41l-5.61,7.54c3-.88,6.6-.36,8.63,2Zm1.87-8.63c-2.86.1-4.73-.73-6.24-3v8.88l.94.58Z" fill="#fff"/><path d="M99.43,49.1H96.52v-.83c2.14-.83,5.46-4,7.49-7.22l1.35-2.19.68.42-.37.67a10.28,10.28,0,0,0-1.35,5.46V46h4.73L108,49.1h-3.54V65.73a15.87,15.87,0,0,1,2.76,1.56l1.19-.83.42.78-4.73,3.69a23.15,23.15,0,0,0-6.34-2.86v-.88c1.2-.36,1.71-2,1.71-3.07Z" fill="#fff"/><path d="M123.92,44.94c2.8.73,4.26,3.59,4.26,6.29l6.23-6.29c1.62,2,3.28,3.17,4.89,2.81l.26.68A2.71,2.71,0,0,0,138,50.82V63.45c0,2.8.57,4,2.5,3.38l.15.78L135.45,71c-2.33-1.92-2.44-4.41-2.44-7.22V50.92l-1.77-1.45-3.06,3V66L130,67.55l-4,3.64-4.47-3.43,1.61-1.71V51.86a2.3,2.3,0,0,0-2.08-2.55l-3.07,3V66l1.82,1.56-4,3.64-4.47-3.43,1.61-1.71V51.86c0-1.61-.93-3.17-2.6-2.39l-.31-.68,4-3.9c2.81.73,3.9,3,4,6.34Z" fill="#fff"/><path d="M149.23,44.94a15.86,15.86,0,0,0,7.07,2.65,10.12,10.12,0,0,0,3.22-2.33l.62.41a10.09,10.09,0,0,0-2.75,6.5v11c0,2.6.62,3.64,1.61,4.1l1.77-1.19.41.78-5.25,4.05c-1.55-.62-3.53-3-3.53-4.78l-5.09,4.78c-2.39-.93-5-2.7-5-6.86,0-3.95,2.75-6.29,5.35-8a16.6,16.6,0,0,1-4-8.16C146.73,47.23,148.19,46.14,149.23,44.94Zm3.17,12.58v-6a37.42,37.42,0,0,1-7.69-2.8C145.7,53.1,148.4,56.64,152.4,57.52Zm0,1a8.14,8.14,0,0,1-4.16-1.92,10.74,10.74,0,0,0-.93,4.52c0,3.64.93,5.4,2.49,6.34L152.4,65Z" fill="#fff"/><path d="M164,48.74a25.23,25.23,0,0,0,8.48-3.9c.83.73,2.85,2.34,4.67,2.34,1.51,0,2.13-1.66,2.08-3l.73.11c0,1.87-.83,3.12-2.08,4.62l-4.52,5.62a11,11,0,0,0,6.24,2.18l.1.73c-1.09.93-1.35,1.3-1.35,1.82v7.43A21.6,21.6,0,0,0,170,71.4c-1-1.3-3.74-3.33-5.93-3.33s-3.27,1.72-2.49,3.28l-.73.36c-1.3-2.6,1.61-4.37,3.07-6.34l3.43-4.57a29,29,0,0,0-4.84-2.14v-.72c.52-.16,1.56-.52,1.56-1.3ZM173.4,59.5a8.48,8.48,0,0,1-3-1.41l-5.61,7.54c3-.88,6.6-.36,8.63,2Zm1.87-8.63c-2.86.1-4.73-.73-6.24-3v8.88l.94.58Z" fill="#fff"/><path d="M68.2,84.06l3.19-2.71a3.66,3.66,0,0,1,1.68,2.71,22.31,22.31,0,0,0,3.11-2.71,6.71,6.71,0,0,1,2.16,5.45c0,3.75-2.18,4.86-4.89,7.47-1.24-.5-2.13-1-2.54-2l-2.33,2a7.25,7.25,0,0,0-3.73-1.9l0-.35a1.4,1.4,0,0,0,1-1.19v-6A1.77,1.77,0,0,0,65,83.45l-.54.43-.33-.3,2.39-2.23A3.68,3.68,0,0,1,68.2,84.06Zm2.48,7.75-.05-7a2,2,0,0,0-.86-1.42L68.2,84.54v6.67a5.79,5.79,0,0,1,1.85,1.09Zm2.39-.6a2.43,2.43,0,0,0,1.85,1.09c.71-.84,1-2.69,1-4.67s-.43-3.5-1.37-4.16l-1.47,1.15Z" fill="#fff"/><path d="M79.53,83.25l2-1.9,2.2,1.87-.86,1v7.25a5.17,5.17,0,0,1,1,.76l.58-.41.2.38L82.29,94a9.57,9.57,0,0,0-2.71-1.39v-.44c.59-.17.84-1,.84-1.49V84.13Zm2-3.12-.3-.15,1.32-3.2H84.7v.36Z" fill="#fff"/><path d="M86.25,83.37H84.83V83a9.69,9.69,0,0,0,3.65-3.53l.66-1.06.33.2-.18.33a5,5,0,0,0-.66,2.66v.28h2.31l-.53,1.52H88.68v8.12a6.9,6.9,0,0,1,1.35.76l.58-.41.2.38L88.51,94a10.8,10.8,0,0,0-3.1-1.39v-.44c.59-.17.84-1,.84-1.49Z" fill="#fff"/><path d="M99.79,91.89c0,2.64-.79,5-4.87,6.19l-.1-.38c2.43-1.07,2.53-3.1,2.53-5.66V84.26l-.86-.79L94.89,85v6.66l.89.76-1.93,1.78-2.18-1.68.79-.83V79.7a2.33,2.33,0,0,0-1.09-2.28l.36-.33a3.2,3.2,0,0,1,1.74,1.34,3.62,3.62,0,0,1,2.36-2.15l.18.25c-.89.73-1.12,1.62-1.12,3.17v4.71L98,81.35c.78,1,1.59,1.54,2.38,1.36l.13.33a1.34,1.34,0,0,0-.76,1.17Z" fill="#fff"/><path d="M108.66,83.37h-1.42V83a9.69,9.69,0,0,0,3.65-3.53l.66-1.06.33.2-.18.33a5,5,0,0,0-.66,2.66v.28h2.31l-.53,1.52h-1.73v8.12a7.21,7.21,0,0,1,1.35.76l.58-.41.2.38L110.91,94a10.66,10.66,0,0,0-3.09-1.39v-.44c.59-.17.84-1,.84-1.49Z" fill="#fff"/><path d="M122.2,91.89c0,2.64-.79,5-4.87,6.19l-.1-.38c2.43-1.07,2.53-3.1,2.53-5.66V84.26l-.86-.79L117.3,85v6.66l.89.76-1.93,1.78-2.18-1.68.79-.83V79.7a2.33,2.33,0,0,0-1.09-2.28l.35-.33a3.19,3.19,0,0,1,1.75,1.34,3.62,3.62,0,0,1,2.36-2.15l.18.25c-.89.73-1.12,1.62-1.12,3.17v4.71l3.15-3.06c.78,1,1.59,1.54,2.38,1.36L123,83a1.34,1.34,0,0,0-.76,1.17Z" fill="#fff"/><path d="M131.6,85.2l-4.46,3.72v2.34a8.1,8.1,0,0,1,2,1.09l1.6-1,.28.33L127.8,94a22,22,0,0,0-4-1.7V92a1.75,1.75,0,0,0,.92-1.63V85.53a1.13,1.13,0,0,0-1-1.17v-.45a23.29,23.29,0,0,0,4.76-2.56Zm-4.46,3.22,2.28-2L126.91,83l-.35.18a4.57,4.57,0,0,1,.58,2.18Z" fill="#fff"/><path d="M32.8,128l.73.62c-2.86,4.37-7.22,8.84-13,8.84-9.31,0-15.86-8.52-15.86-18.45,0-6.81,3.28-11.59,9.93-14.4,3.74-1.56,7.69-2.81,11.33-4.94,1.2.57,2.6,2.19,4.11,2.19a2,2,0,0,0,1.61-.78l.57.57c-1.51,2.44-3.38,4.73-6.65,4.36v27A11,11,0,0,0,32.8,128ZM15.39,105.48C11.7,108.24,10,112.6,10,117.28a17.36,17.36,0,0,0,4.47,12.27l1-.57a3.6,3.6,0,0,0,1.81-3.33c0-.83,0-2.08-.15-3Zm5.1-2,1.71,16.94a22.68,22.68,0,0,1,.26,3.17c0,2.44-1.51,3.54-3.74,4.84l-3.48,1.87a12.67,12.67,0,0,0,9.51,2.86V106A9.05,9.05,0,0,1,20.49,103.51Z" fill="#fff"/><path d="M40.65,111.15a15.86,15.86,0,0,0,7.07,2.65,9.9,9.9,0,0,0,3.22-2.34l.63.42a10,10,0,0,0-2.76,6.49v11c0,2.6.63,3.64,1.61,4.11l1.77-1.2.42.78-5.25,4.06c-1.56-.63-3.54-3-3.54-4.79l-5.09,4.79c-2.39-.94-5-2.71-5-6.87,0-4,2.76-6.28,5.35-8A16.68,16.68,0,0,1,35,114.11C38.16,113.43,39.61,112.34,40.65,111.15Zm3.17,12.58v-6a36.85,36.85,0,0,1-7.69-2.81C37.12,119.31,39.82,122.84,43.82,123.73Zm0,1a8.07,8.07,0,0,1-4.15-1.92,10.64,10.64,0,0,0-.94,4.52c0,3.64.94,5.41,2.5,6.34l2.59-2.44Z" fill="#fff"/><path d="M55.31,107.77c0-2.24-.78-4-2.23-4.68l.72-.67a6.66,6.66,0,0,1,3.59,2.75,7.47,7.47,0,0,1,4.83-4.42l.37.52c-1.82,1.51-2.29,3.33-2.29,6.5v24.17a15.33,15.33,0,0,1,2.76,1.56l1.19-.83.42.78-4.73,3.69a22.68,22.68,0,0,0-6.34-2.86v-.89c1.19-.36,1.71-2,1.71-3.06Z" fill="#fff"/><path d="M67.32,115.05l4.05-3.9L75.89,115l-1.76,2.08v14.87a11.64,11.64,0,0,1,2,1.56l1.2-.83.41.78L73,137.14c-2.7-1.62-4-2.5-5.56-2.86v-.89c1.2-.36,1.72-2,1.72-3.06V116.87Zm4.1-6.4-.62-.31,2.7-6.55h4.42v.73Z" fill="#fff"/><path d="M85.46,131.94a14.89,14.89,0,0,1,2.75,1.56l1.2-.83.41.78-4.73,3.69a22.55,22.55,0,0,0-6.34-2.86v-.89c1.2-.36,1.72-2,1.72-3.06v-15H77.56l1.14-3.12h1.77c0-2.08-1.09-4.16-1.87-4.26v-.68c3.27-1.51,6.6-3.22,8.63-5.41,1.45,1.15,2.54,2.08,3.79,2.08a3.17,3.17,0,0,0,1.87-.62l.47.57L89.93,108a8.31,8.31,0,0,1-5.3-2.6l-.52.42c.83,1.09,1.35,3.79,1.35,6.34H90.6l-1.35,3.12H85.46Z" fill="#fff"/><path d="M99.86,110.89a27.81,27.81,0,0,0,9.35,3.79v.78c-.88.42-1.3,1.09-1.3,3.28v14.71l-7.59,4a21.81,21.81,0,0,0-9-3.75v-.78c1-.41,1.25-1.09,1.25-3V115.25Zm-2.34,20.48a15,15,0,0,1,5.4,2.91V116.92a11.1,11.1,0,0,1-5.4-2.65Z" fill="#fff"/><path d="M118.88,132.46a6.77,6.77,0,0,1,1.71,1l1.2-.83.42.78-4.73,3.69c-2.71-1.62-3.69-2.5-5.31-2.86v-.89c1.2-.36,1.72-2,1.72-3.06V118.06c0-1.61-.94-3.17-2.6-2.39L111,115l4-3.89a4.85,4.85,0,0,1,3.85,4.57l4.26-4.52c1.61,2,2.23,3.17,3.84,2.8l.26.68-2.6,3.48a5,5,0,0,1-4.31-2.65l-1.35,1.46Z" fill="#fff"/><path d="M145.6,129.65c0,2.81.57,4.06,2.49,3.38l.16.78-5.2,3.38c-2.34-1.93-2.44-4.42-2.44-7.23V117.12l-1.77-1.35-3.07,3V132.2l1.82,1.56-4,3.64L129.17,134l1.61-1.71V118.06c0-1.61-.93-3.17-2.6-2.39l-.31-.68,3.95-3.89c2.81.72,4,3.63,4,6.34l6.24-6.29c1.61,2,3.27,3.17,4.89,2.8l.26.68A2.71,2.71,0,0,0,145.6,117Z" fill="#fff"/><path d="M150.22,115.05l4.06-3.9L158.8,115,157,117.07v14.87a12.09,12.09,0,0,1,2,1.56l1.19-.83.42.78-4.73,3.69c-2.7-1.62-3.95-2.5-5.56-2.86v-.89c1.19-.36,1.71-2,1.71-3.06V116.87Zm4.11-6.4-.62-.31,2.7-6.55h4.42v.73Z" fill="#fff"/><path d="M168,111.15A15.86,15.86,0,0,0,175,113.8a10.13,10.13,0,0,0,3.22-2.34l.62.42a10,10,0,0,0-2.75,6.49v11c0,2.6.62,3.64,1.61,4.11l1.77-1.2.41.78-5.25,4.06c-1.56-.63-3.53-3-3.53-4.79l-5.1,4.79c-2.39-.94-5-2.71-5-6.87,0-4,2.76-6.28,5.36-8a16.7,16.7,0,0,1-4.06-8.16C165.45,113.43,166.91,112.34,168,111.15Zm3.17,12.58v-6a36.64,36.64,0,0,1-7.69-2.81C164.41,119.31,167.12,122.84,171.12,123.73Zm0,1a8.07,8.07,0,0,1-4.16-1.92,10.64,10.64,0,0,0-.94,4.52c0,3.64.94,5.41,2.5,6.34l2.6-2.44Z" fill="#fff"/><path d="M33.13,151.31c0-2.29-1-3.49-2.65-3.49a5.35,5.35,0,0,0-3.12,1.25l-.52-.68c2.18-2.44,4.94-4,7.59-4,2.28,0,4.1,1.35,4.1,4.73V151l9.36-7.9c2.91,1.61,11.38,3.75,11.64,16.64,0,13.56-10.5,17.25-16.21,21.05a7.29,7.29,0,0,0-4.73-3.17v4.47a7.56,7.56,0,0,0,.88,3.84l-.26.37a15.48,15.48,0,0,0-6.34,5.45l-.57-.15a28.57,28.57,0,0,0,.83-7.44V177a5.24,5.24,0,0,0-4.58,3.17l-.46-.36a8,8,0,0,1,5-6.24v-7.33a3,3,0,0,0-2.76-1.66,2.9,2.9,0,0,0-1.61.42l-.36-.42A4.16,4.16,0,0,1,32,162.17a2.08,2.08,0,0,1,1.15.31v-1.2a2.61,2.61,0,0,0-2.55-1.35,5.28,5.28,0,0,0-3.69,1.56l-.36-.41a5.86,5.86,0,0,1,5.3-4.32,5,5,0,0,1,1.3.16Zm5.46.93v21a11.46,11.46,0,0,1,2.59.31V150ZM42,161.13c2.49-2.08,7.58-4.42,11.12-5.72A10.9,10.9,0,0,0,43.63,148L42,149.43Zm11.38-4.89C49.86,157.49,44.46,160,42,162v4.26a49.89,49.89,0,0,1,12.11-4.83A21.55,21.55,0,0,0,53.4,156.24Zm.73,6.19A42.83,42.83,0,0,0,42,167.21v6.55c2,.47,3.32,1.56,5.14,3.27C51.79,174,54,169.08,54.13,162.43Z" fill="#fff"/><path d="M69.15,175.84a6.77,6.77,0,0,1,1.71,1l1.2-.83.42.78-4.73,3.69c-2.71-1.62-3.69-2.5-5.31-2.86v-.89c1.2-.36,1.72-2,1.72-3.06V161.44c0-1.61-.94-3.17-2.6-2.39l-.31-.68,4-3.89a4.85,4.85,0,0,1,3.85,4.57l4.26-4.52c1.61,2,2.23,3.17,3.84,2.8l.26.68-2.6,3.48a5,5,0,0,1-4.31-2.65l-1.35,1.46Z" fill="#fff"/><path d="M80.9,161.23a2.44,2.44,0,0,0-1.46-2.6l-.67.37-.42-.78,4.73-3.69,4.31,3.22-1.5,1.82V174.8l1.82,1.56,3-3.17V159.52L88.9,158l3.95-3.64,4.47,3.43-1.61,1.72v14.18c0,1.62.94,3.18,2.6,2.4l.31.67-4,3.9c-2.81-.73-3.9-3.48-3.9-6.19l-5.92,6.4c-1.61-2-3.64-3.22-5.25-2.86l-.26-.68a2.71,2.71,0,0,0,1.56-2.39Z" fill="#fff"/><path d="M117.64,173c0,2.81.58,4.06,2.5,3.38l.16.78-5.2,3.38c-2.34-1.93-2.44-4.42-2.44-7.23V160.5l-1.77-1.35-3.07,3v13.46l1.82,1.56-4,3.64-4.47-3.43,1.61-1.72V161.44c0-1.61-.93-3.17-2.6-2.39l-.31-.68,4-3.89c2.81.72,3.95,3.63,3.95,6.34l6.24-6.29c1.61,2,3.27,3.17,4.88,2.8l.26.68a2.71,2.71,0,0,0-1.56,2.39Z" fill="#fff"/><path d="M137.86,162.43l-9.14,7.64v4.78a16.78,16.78,0,0,1,4.21,2.24L136.2,175l.57.67-6.7,4.84a44.34,44.34,0,0,0-8.21-3.49v-.72c1.35-.52,1.87-2.19,1.87-3.33V163.1a2.31,2.31,0,0,0-2-2.39v-.93a46.79,46.79,0,0,0,9.77-5.25Zm-9.14,6.6,4.67-4-5.14-7-.73.36a9.27,9.27,0,0,1,1.2,4.47Z" fill="#fff"/><path d="M140.26,158.32a24.89,24.89,0,0,0,8.47-3.9c.83.73,2.86,2.34,4.68,2.34,1.5,0,2.13-1.66,2.08-3l.72.1c0,1.87-.83,3.12-2.08,4.63l-4.52,5.61a10.9,10.9,0,0,0,6.24,2.18l.1.73c-1.09.94-1.35,1.3-1.35,1.82v7.43a21.74,21.74,0,0,0-8.42,4.73c-1-1.3-3.74-3.32-5.92-3.32s-3.28,1.71-2.5,3.27l-.73.37c-1.3-2.6,1.62-4.37,3.07-6.35l3.43-4.57a29.21,29.21,0,0,0-4.83-2.13v-.73c.52-.15,1.56-.52,1.56-1.3Zm9.35,10.76a8.5,8.5,0,0,1-3-1.4L141,175.21c3-.88,6.61-.36,8.63,2Zm1.87-8.63c-2.86.11-4.73-.72-6.23-3v8.89l.93.57Z" fill="#fff"/><path d="M82.59,19.2c-.07,0-7.11-1.66-8.89-3.44C72.24,14.3,71,4.15,70.64.36A.39.39,0,0,0,70.25,0h0a.38.38,0,0,0-.38.37c-.28,5.6-1.18,14.4-2.55,15.69-1.88,1.79-8.52,3.54-8.58,3.56a.38.38,0,0,0-.29.43.38.38,0,0,0,.39.34c.07,0,6.93-.07,9.08,2.47S71,39.59,71,39.73a.4.4,0,0,0,.79,0c.37-6.78,1.29-16.67,2.14-17.46,1-1,6.6-2,8.66-2.3a.4.4,0,0,0,.33-.37A.39.39,0,0,0,82.59,19.2Z" fill="#fff"/></svg>