<?xml version="1.0" encoding="UTF-8"?><svg id="logos" xmlns="http://www.w3.org/2000/svg" width="250" height="90" viewBox="0 0 250 90"><path d="m133.81,23.38s-4.61,4.36-8.79,4.99c0,0,3.72,8.9,0,13.17s-6.27.82-4.45-4.45c1.82-5.27,2.2-13.39-3-13.71-7.27-.45-7.9,6.96-7.9,6.96,0,0,4.81-1.88,4.09,3.85s-5.27,18.44,2.63,20.43c7.9,2,11.08-6.55,11.08-6.55,0,0,1.92,22.08-23.08,29.66-29.63,8.98-33.88,2.79-33.88,2.79,0,0,10.76.83,10.65-6.5-.1-7.33-8.2-5.82-10.65-5.49s-9.27,3.18-8.65,9.65,8.26,11.33,22.4,11.12c14.14-.21,37.1-8.73,48.11-28.49,0,0,5.11-7.54,2.67-16.65-2.44-9.12-3.74-16.93-1.23-20.77Z" fill="#fff"/><path d="m32.54,5.15l6.92-5.15v8.86l6.01-1.18v1.82l-5.85.81s.21,6.01,1.88,9.66,4.58,1.81,5.04-1.13c0,0,7.94,14.17-4.56,14.17s-5.99-8.87-5.96-16.91c.02-3.97-.21-5.42-.21-5.42l-4.67.86-.27-1.45,4.19-.36-2.52-4.58Z" fill="#fff"/><path d="m134.76,13.61l7.59-5.65.54,10.01,6.59-1.29v2l-6.41.88s-.3,6.29,1.52,10.29,5.02,1.98,5.53-1.24c0,0,8.71,15.53-5,15.53s-6.57-9.72-6.53-18.54c.02-4.35-.4-4.76-.4-4.76l-6.85.61-.19-1.56,6.22-.48-2.6-5.81Z" fill="#fff"/><path d="m48.72,9.22s6.28,7.49,4.07,21.84c0,0,4.78-2.64,8.56-1.78,0,0-3.07-3.64-3.43-9.71-.36-6.07,3.21-7.49,4.71-7.28s2.21,3.35.78,7.35c-1.43,4-1.78,9.49,3.28,10.35s4.14-7.06,4.14-7.06c0,0-2.85,2.93-3.07-2.07s-.14-8.78-4-9.85-7.06,5-7.06,6.49l-.43-13.99-7.56,5.71Z" fill="#fff"/><path d="m87.77,17.85s-1.83,3.64-5.9,3.73c-5.24.12-4.7-6.45-4.7-6.45,0,0,.89,2.72,4.47,2.72s4.66-2.95,4.66-5.83-3.34-5.36-6.56-5.36-7.84,3.88-7.84,8.82,2.02,12.23,8.7,12.23,7.38-5.36,7.18-9.86Zm-8.19-9.88c1.63,0,2.57,1.54,2.57,3.44s-.94,3.44-2.57,3.44-2.49-1.54-2.49-3.44.86-3.44,2.49-3.44Z" fill="#fff"/><path d="m0,28.67s9.29,1.33,13.63-2.35c0,0-.9,16.04,1.33,20.62,0,0,2.17-6.51,9.1-2.05,0,0-.84-11.09-5.97-18.93,0,0,10.19-.12,12.54-2.11,0,0-1.1,12.86,1.12,24.65,2.23,11.79,9.15,25.81,9.15,25.81,0,0-7.75-1.81-13.11,1.73,0,0,.66-13.6-1.24-19.54,0,0-8.87,5.02-7.5-4.04,0,0,.33,2.23,2.23,1.98s2.56-4.53-.33-4.49-5.61,1.61-4.45,7.46,4.53,17.31,5.85,19.37c0,0-8.08-.91-12.78,1.98,0,0,.42-16.63-1.07-26.14C6.61,40.5,0,28.67,0,28.67Z" fill="#fff"/><path d="m60.87,49.91s-.36,1.86-1.62,1.86-1.47-2.76-1.2-8.09c.21-4.13-3.53-8.09-9.71-8.69s-10.9,2.52-12.04,5.75c-1.14,3.23.42,7.37,4.19,7.19,3.77-.18,5.99-1.32,6.36-4.79.37-3.47-3.07-4.13-3.07-4.13.9,3.95-3.59,3.95-3.84,1.62-.25-2.34,1.51-4.07,5.4-4.01,3.89.06,4.31,4.91,4.1,8.15-.22,3.23-10.51,6.53-12.42,9.17-1.92,2.64-.66,12.04,6.77,11.5,7.43-.54,7.28-7.91,7.28-7.91,0,0,1.64,6.17,5.66,5.63,1.84-.25,5.75-.96,6.17-6.05.42-5.09-2.04-7.19-2.04-7.19Zm-12.15,4.43c-3.36,1.56-6.78.84-5.94-1.98.84-2.82,6.23-1.62,8.09-6.89,0,0,1.21,7.31-2.15,8.87Z" fill="#fff"/><path d="m85.09,44.82c-.97-5.71-2.55-12.89-8.63-13.76-6.08-.87-7.78,6.71-7.78,6.71-.61-1.58-.97-5.59-.97-5.59-2.11,3.32-8.39,7.05-8.39,7.05,0,0,2.8,2.07,5.11,10.96,2.31,8.89-.85,18.34-.85,18.34,5.35-4.74,12.89-3.08,12.89-3.08-4.38-3.57-5.55-14.47-5.55-14.47,0,0,2.51,6.97,7.86,6.24,5.35-.73,7.29-6.69,6.32-12.4Zm-9.82,4.9c-1.81.31-3.84-2.73-4.53-6.79-.69-4.06.22-7.6,2.03-7.91,1.81-.31,3.84,2.73,4.53,6.79.69,4.06-.22,7.6-2.03,7.91Z" fill="#fff"/><path d="m103,47.65c3.85-1.06,4.88-5.49,4.88-12.26s-3.86-14.23-9.21-14.3c-5.35-.07-6.78,8.88-6.78,8.88-.95-1.29-.81-6.64-.81-6.64-2.73,5.52-8.93,6.64-8.93,6.64,3.86,2.58,5.41,9.55,7.93,23.48,2.52,13.93-.49,24.63-.49,24.63,6.91.81,14.7-3.46,14.7-3.46-5.76-2.85-10.37-33.13-10.37-33.13,0,0,3.17,7.79,9.08,6.17Zm-9.44-13.88c-.74-4.37.23-8.18,2.18-8.51s4.13,2.94,4.88,7.31c.74,4.37-.23,8.18-2.18,8.51-1.95.33-4.13-2.94-4.88-7.31Z" fill="#fff"/><path d="m224.96,18.09s-2.49,4.97-8.06,5.09c-7.16.16-6.42-8.8-6.42-8.8,0,0,1.22,3.71,6.1,3.71s6.36-4.03,6.36-7.95-4.56-7.32-8.96-7.32-10.71,5.3-10.71,12.04,2.76,16.7,11.88,16.7,10.08-7.32,9.81-13.47Zm-11.19-13.5c2.23,0,3.51,2.1,3.51,4.69s-1.29,4.69-3.51,4.69-3.4-2.1-3.4-4.69,1.18-4.69,3.4-4.69Z" fill="#fff"/><path d="m190.68,64.38s-.33,1.72-1.5,1.72-1.36-2.56-1.11-7.49c.19-3.83-3.27-7.49-8.98-8.04s-10.09,2.33-11.15,5.32c-1.05,2.99.39,6.82,3.88,6.66,3.49-.17,5.55-1.22,5.89-4.44.34-3.22-2.84-3.83-2.84-3.83.83,3.66-3.33,3.66-3.56,1.5-.23-2.16,1.4-3.77,5-3.72,3.6.06,3.99,4.55,3.79,7.54s-9.73,6.05-11.5,8.49c-1.77,2.44-.61,11.15,6.27,10.65,6.88-.5,6.74-7.32,6.74-7.32,0,0,1.52,5.71,5.24,5.21,1.7-.23,5.32-.89,5.71-5.6.39-4.71-1.89-6.65-1.89-6.65Zm-11.25,4.1c-3.11,1.44-6.27.78-5.5-1.83.78-2.61,5.77-1.5,7.49-6.38,0,0,1.12,6.77-1.99,8.21Z" fill="#fff"/><ellipse cx="155.8" cy="13.23" rx="4.55" ry="3.94" fill="#fff"/><path d="m152.39,24.5s6.99-4.47,8.54-6.1c0,0-.78,21.87,4.53,23.96,0,0-5.05,6.53-12.19.61,0,0,3.2-1.47,3.2-8.35s-4.07-10.12-4.07-10.12Z" fill="#fff"/><path d="m164.74,23.57s6.09-4.09,8.2-6.41c0,0-.24,4.96,1.08,5.83,0,0,2.23-8.78,7.94-8.23,5.71.55,5.45,7.06,5.45,7.06,0,0,1.86-10.02,9.72-9.17s2.86,14.37,4.36,18.59,3.93,5.58,7.58,6.29,5.1-1.54,5.05-3.79c0,0,4.88,3.29,1.95,8.22s-9.22,4.86-12.08,4.86-10.44-2.79-10.65-10.22,3.93-17.52.5-19.02-5.59,3.57-5.72,9.3,1.93,10.8,1.93,10.8c0,0-4.08,1.64-7.22.79,0,0,.72-16.8-4.22-18.09s-3.65,12.66-1.57,16.87c2.07,4.22,4.43,8.2,4.43,8.2,0,0-3.79,3.39-12.16,2.46,0,0,1.58-7.11.43-13.87-1.36-7.98-5.01-10.47-5.01-10.47Z" fill="#fff"/><path d="m162.96,46.65s.22,6.79,1.14,9.68c0,0-4.22-3.97-9.49-2.74s-10.2,5.54-9.67,14.42c.53,8.88,6.42,14.24,11.78,12.48s2.99-10.22,1.23-11.26-4.22-.25-3.96,2.3,3.43,1.23,3.43,1.23c0,0-.26,3.34-3.43,2.99s-6.07-4.75-2.37-8.62c3.69-3.87,17.14-3.39,17.14-3.39,0,0-5.13,3.66-4.01,10.52s7.27,10.29,7.27,10.29c0,0-1.07,1.03-5.54,0-3.47-.8-6.68,5.22-15.47,4.76-8.79-.45-15.3-11.03-15.82-20.07-.53-9.04,4.02-19.94,14.28-21.93,9.06-1.76,7.67,3.2,13.5-.65Z" fill="#fff"/><path d="m190.2,55.75s5.74-2.42,7.44-6.92c0,0,.37,5.43,1.56,6.55,0,0,.97-4.45,4.47-6.55s10.49-1.04,10.57,4.47-2.46,11.22,0,11.34,2.78-1.82,2.78-1.82c0,0,3.47,9.97-4.12,10.87s-8.86-5.14-8.48-9.53c.37-4.39,6.97-9.52,3.8-12.73s-8.41,3.77-7.81,8.84,4.76,13.5,4.76,13.5c0,0-8.19.21-11.09,1.85,0,0,3.47-15.62-3.87-19.87Z" fill="#fff"/><path d="m249.96,70.02c-.62-8.23-10-6.9-13.72-4.34-3.72,2.57-8.58,4.98-10.53,2.31s2.39-4.7,2.39-4.7c0,0,12.83,2.65,17.35-9.12,4.51-11.77-10.27-17.35-14.25-15.66,0,0-1.86-.8-1.68-3.98.18-3.19,4.69-3.01,5.93-1.95s1.33,2.85-.62,2.62c0,0-.09,3.31,4.34,1.63,4.42-1.68,4.6-6.37,0-7.88-4.6-1.5-14.69.62-11.59,9.56,0,0-12.57,3.07-11.77,12.46s9.2,11.78,9.2,11.78c0,0-6.84,3.94-5.48,8.23,1.77,5.58,6.99,5.04,6.99,5.04,0,0-4.78,1.5-3.72,5.49,1.06,3.98,8.85,3.98,15.13,2.12,6.28-1.86,12.65-5.4,12.04-13.63Zm-21.25-29.54c2.81-.63,5.93,2.61,6.97,7.25,1.04,4.63-.4,8.9-3.21,9.53-2.81.63-5.93-2.61-6.97-7.25-1.04-4.63.4-8.9,3.21-9.53Zm7.44,41.13c-2.74.62-5.58.88-6.99-1.06-1.42-1.95,2.74-3.65,4.42-1.78,0,0,2.42-2.32-2.99-3.15,0,0,3.97-.74,6.27-2.24,2.3-1.5,6.46-.92,6.28,2.24-.18,3.16-4.25,5.37-6.99,5.99Z" fill="#fff"/></svg>