<svg xmlns="http://www.w3.org/2000/svg" viewBox="0 0 350 35"><path d="M14.27 34.63C4.58 34.45 0 27.1 0 18.07 0 7.9 5.73.67 14.27.36v2.55c-2.11.44-2.82 2.25-2.82 4.1v20.88c0 1.85.7 3.66 2.82 4.18v2.55zM16.25.36c1.63.04 5.02 1.76 6.17 1.76.66 0 .92-.26 1.19-.84.26-.57.57-.92 1.19-.92 1.41 0 1.41 1.37 1.41 1.59v10.22c0 .22 0 1.59-1.41 1.59-.92 0-1.45-.75-1.63-1.59-.75-3.57-2.82-8.15-6.92-9.25V.36zm8.68 24.05c.84 0 1.32.7 1.32 1.5-.09 3.61-5.42 8.9-10 8.72v-2.55c3.39-.75 6.25-3 7.22-6.25.26-.75.53-1.41 1.45-1.41zM32.59 5.96c0-1.63.04-1.89-1.5-2.38-.57-.18-.97-.57-.97-1.19 0-1.28 1.45-1.37 1.63-1.37h11.63v28.01c0 1.63-.04 1.89 1.5 2.38.57.18.97.57.97 1.19 0 1.28-1.45 1.37-1.63 1.37H31.76c-.18 0-1.63-.09-1.63-1.37 0-.62.4-1.01.97-1.19 1.54-.48 1.5-.75 1.5-2.38V5.96zm12.78-4.94h.22c2.86 0 5.86-.09 8.5 1.19 2.95 1.45 4.45 3.88 4.49 7.22.09 5.07-3.26 7.27-7.75 8.32v.09c3.92.57 7.66 1.72 7.75 6.39v3.88c0 .4-.13 1.28.44 1.28.7 0 .84-1.28 1.89-1.28.57 0 1.28.66 1.28 1.28 0 1.28-1.45 2.91-2.42 3.66-1.5 1.23-3.08 1.59-4.98 1.59s-3.61-.48-4.98-1.85c-1.54-1.59-1.76-3.52-1.76-5.59v-3c0-2.03-.04-4.49-2.69-4.76v-2.6c2.38-.22 2.69-1.67 2.69-3.83V7.68c0-2.2-.48-3.26-2.69-4.05V1.02zM77.7 29.04c0 1.63-.04 1.89 1.5 2.38.57.18.97.57.97 1.19 0 1.28-1.45 1.37-1.63 1.37H66.08c-.18 0-1.63-.09-1.63-1.37 0-.62.4-1.01.97-1.19 1.54-.48 1.5-.75 1.5-2.38V5.96c0-1.63.04-1.89-1.5-2.38-.57-.18-.97-.57-.97-1.19 0-1.28 1.45-1.37 1.63-1.37h12.46c.18 0 1.63.09 1.63 1.37 0 .62-.4 1.01-.97 1.19-1.54.48-1.5.75-1.5 2.38v23.08zM85.8 1.02h11.19l4.71 13.52h.09l1.98-7.31h.09v8.02l-5.59 18.72h-1.28L87.78 6.71c-.22-.66-.44-1.32-.79-1.89-.4-.66-.57-1.19-1.32-1.23-.53-.04-1.72-.13-1.72-1.19 0-1.37 1.32-1.37 1.85-1.37zm1.85 11.15h.09l2.47 7.27v7.58c.7 5.51 3.52 3.79 3.52 5.68 0 1.37-1.81 1.28-2.29 1.28h-5.02c-.48 0-2.29.09-2.29-1.28 0-1.89 2.82-.18 3.52-5.68V12.18zm18.19-11.15h11.63c.18 0 1.63.09 1.63 1.37 0 .62-.4 1.01-.97 1.19-1.54.48-1.5.75-1.5 2.38v23.08c0 1.63-.04 1.89 1.5 2.38.57.18.97.57.97 1.19 0 1.28-1.45 1.37-1.63 1.37h-12.46c-.18 0-1.63-.09-1.63-1.37 0-.62.4-1.01.97-1.19 1.54-.48 1.5-.75 1.5-2.38V1.02zM124.13 1.02h11.63v32.95h-11.63c-.18 0-1.63-.09-1.63-1.37 0-.62.4-1.01.97-1.19 1.54-.48 1.5-.75 1.5-2.38V5.96c0-1.63.04-1.89-1.5-2.38-.57-.18-.97-.57-.97-1.19 0-1.28 1.45-1.37 1.63-1.37zm13.61 0h9.82v8.94c0 .22-.04 1.06-1.37 1.06-.75 0-.97-.44-1.19-1.1-1.15-3.57-3.39-5.73-7.27-6.34V1.02zm0 14.72c1.85-.48 2.69-2.2 3.08-3.88.22-.75.48-1.45 1.41-1.45 1.37 0 1.15 1.59 1.15 1.94v9.51c0 .35.22 1.94-1.15 1.94-.92 0-1.19-.7-1.41-1.45-.4-1.67-1.23-3.39-3.08-3.88v-2.73zm0 15.68c3.57-.44 6.3-2.86 7.49-6.39.31-.66.57-1.37 1.37-1.37 1.41 0 1.28 1.32 1.28 1.5v8.81h-10.13v-2.55zM180.55 29.04c0 1.63-.04 1.89 1.5 2.38.57.18.97.57.97 1.19 0 1.28-1.45 1.37-1.63 1.37h-12.46c-.18 0-1.63-.09-1.63-1.37 0-.62.4-1.01.97-1.19 1.54-.48 1.5-.75 1.5-2.38V5.96c0-1.63.04-1.89-1.5-2.38-.57-.18-.97-.57-.97-1.19 0-1.28 1.45-1.37 1.63-1.37h12.46c.18 0 1.63.09 1.63 1.37 0 .62-.4 1.01-.97 1.19-1.54.48-1.5.75-1.5 2.38v23.08zm5.86-10.53h-3.88v-2.55h3.88v-10c0-1.63.04-1.89-1.5-2.38-.57-.18-.97-.57-.97-1.19 0-1.28 1.45-1.37 1.63-1.37h12.46c.18 0 1.63.09 1.63 1.37 0 .62-.4 1.01-.97 1.19-1.54.48-1.5.75-1.5 2.38v23.08c0 1.63-.04 1.89 1.5 2.38.57.18.97.57.97 1.19 0 1.28-1.45 1.37-1.63 1.37h-12.46c-.18 0-1.63-.09-1.63-1.37 0-.62.4-1.01.97-1.19 1.54-.48 1.5-.75 1.5-2.38V18.51zM213.01 12.17l-4.14 15.06c-.7 2.69-.09 3.44 1.41 4.1.7.31 1.32.57 1.32 1.45 0 1.23-1.41 1.19-2.29 1.19h-5.07c-.88 0-2.47-.04-2.47-1.32 0-1.06.75-1.01 1.72-1.5.92-.48 2.11-1.5 2.95-4.62l5.29-19.34h.13l1.15 4.98zm4.72 13.26h-6.43l.62-2.55h5.37l-4.45-19.47.57-2.38h9.73l6.61 27.84c.26 1.23.31 2.07 1.54 2.6.62.26 1.1.57 1.1 1.37 0 1.19-1.59 1.15-2.42 1.15H219c-.88 0-2.16-.09-2.16-1.23 0-.7.26-.92.84-1.23 1.15-.66 1.32-.97.93-2.69l-.88-3.39zM232.92 1.02h6.34v2.55c-2.29 1.63-2.91 4.54-3.3 6.87-.13.97-.35 2.11-1.59 2.11-1.32 0-1.45-1.1-1.45-1.28V1.02zm8.33 0h10.79v28.01c0 1.63-.04 1.89 1.5 2.38.57.18.97.57.97 1.19 0 1.28-1.45 1.37-1.63 1.37h-12.46c-.18 0-1.63-.09-1.63-1.37 0-.62.4-1.01.97-1.19 1.54-.48 1.5-.75 1.5-2.38V1.02zm19.11 10.27c0 .18-.13 1.28-1.45 1.28-1.23 0-1.45-1.15-1.59-2.11-.4-2.33-1.01-5.24-3.3-6.87V1.02h6.34v10.26zM263.76 1.02h11.63v32.95h-11.63c-.18 0-1.63-.09-1.63-1.37 0-.62.4-1.01.97-1.19 1.54-.48 1.5-.75 1.5-2.38V5.96c0-1.63.04-1.89-1.5-2.38-.57-.18-.97-.57-.97-1.19 0-1.28 1.45-1.37 1.63-1.37zm13.61 0h9.82v8.94c0 .22-.04 1.06-1.37 1.06-.75 0-.97-.44-1.19-1.1-1.15-3.57-3.39-5.73-7.27-6.34V1.02zm0 14.72c1.85-.48 2.69-2.2 3.08-3.88.22-.75.48-1.45 1.41-1.45 1.37 0 1.15 1.59 1.15 1.94v9.51c0 .35.22 1.94-1.15 1.94-.92 0-1.19-.7-1.41-1.45-.4-1.67-1.23-3.39-3.08-3.88v-2.73zm0 15.68c3.57-.44 6.3-2.86 7.49-6.39.31-.66.57-1.37 1.37-1.37 1.41 0 1.28 1.32 1.28 1.5v8.81h-10.13v-2.55zM294.15 5.96c0-1.63.04-1.89-1.5-2.38-.57-.18-.97-.57-.97-1.19 0-1.28 1.45-1.37 1.63-1.37h11.63v28.01c0 1.63-.04 1.89 1.5 2.38.57.18.97.57.97 1.19 0 1.28-1.45 1.37-1.63 1.37h-12.46c-.18 0-1.63-.09-1.63-1.37 0-.62.4-1.01.97-1.19 1.54-.48 1.5-.75 1.5-2.38V5.96zm12.77-4.94h.22c2.86 0 5.86-.09 8.5 1.19 2.95 1.45 4.45 3.88 4.49 7.22.09 5.07-3.26 7.27-7.75 8.32v.09c3.92.57 7.66 1.72 7.75 6.39v3.88c0 .4-.13 1.28.44 1.28.7 0 .84-1.28 1.89-1.28.57 0 1.28.66 1.28 1.28 0 1.28-1.45 2.91-2.42 3.66-1.5 1.23-3.08 1.59-4.98 1.59s-3.61-.48-4.98-1.85c-1.54-1.59-1.76-3.52-1.76-5.59v-3c0-2.03-.04-4.49-2.69-4.76v-2.6c2.38-.22 2.69-1.67 2.69-3.83V7.68c0-2.2-.48-3.26-2.69-4.05V1.02zM337.14 2.92c-1.67.57-3.13 1.81-3.13 3.61 0 2.16 1.19 3.48 6.43 5.51 7.8 3 9.56 7.14 9.56 11.19 0 6.83-5.68 11.28-12.2 11.41v-2.55c2.11-.66 3.92-1.63 4.01-4.05.09-2.77-3.17-3.92-5.29-4.85-5.55-2.33-10.7-4.84-10.7-11.76S330.67.59 337.14.37v2.55zM325.82 24.1c0-.93.18-2.16 1.41-2.16.88 0 1.5.7 1.63 1.45.62 3.52 3.08 7.88 6.96 8.68v2.55c-3.83-.09-4.67-1.63-6.25-1.63-1.41 0-1.28 1.45-2.38 1.45-1.37 0-1.37-1.63-1.37-1.85v-8.5zm22.99-14.22c0 1.01-.18 2.11-1.45 2.11-1.06 0-1.45-.84-1.59-1.72-.48-3.26-3.22-6.61-6.65-7.36V.36c2.77.04 5.73 1.72 6.21 1.72 1.15 0 1.06-1.59 2.2-1.59 1.37 0 1.28 1.5 1.28 1.85v7.53z" fill="#fff"/></svg>