<svg xmlns="http://www.w3.org/2000/svg" viewBox="0 0 270 77"><path d="M25.95 4.43c0-.29-.04-.53-.12-.74-.08-.21-.25-.39-.5-.55-.26-.16-.61-.29-1.05-.41-.45-.11-1.02-.23-1.72-.36-.32-.1-.48-.38-.48-.86v-.45c0-.14.03-.29.1-.45 1.37.1 2.58.16 3.64.19 1.05.03 1.94.05 2.68.05h9.81c1.47 0 2.72-.05 3.76-.14 1.04-.1 1.73-.14 2.08-.14s.61.14.77.43c.1.26.17.73.24 1.41.06.69.17 1.4.33 2.13.1.54.21 1.07.33 1.58.13.51.32 1.13.57 1.87-.13.06-.3.13-.5.19-.21.06-.41.1-.6.1-.35 0-.59-.14-.72-.43-.38-.83-.76-1.54-1.12-2.13-.37-.59-.78-1.07-1.24-1.44-.46-.37-1-.63-1.63-.79-.62-.16-1.38-.24-2.27-.24H32v12.1h6.6c.54 0 .93-.26 1.17-.79.24-.53.44-1.32.6-2.37.1-.41.4-.62.91-.62.1 0 .25 0 .45.02.21.02.36.04.45.07-.06.73-.12 1.59-.17 2.56-.05.97-.07 1.79-.07 2.46 0 .57.02 1.25.05 2.03.03.78.1 1.67.19 2.66-.1.06-.24.1-.43.12-.19.02-.33.02-.43.02-.54 0-.86-.22-.96-.67-.13-1.02-.32-1.79-.57-2.32-.26-.53-.65-.79-1.2-.79h-6.6v10.72c0 .32.11.58.33.79.22.21.53.38.91.53.38.14.83.26 1.34.33.51.08 1.05.17 1.63.26.38.03.57.3.57.81 0 .1 0 .26-.02.48-.02.22-.04.4-.07.53-.45 0-.89 0-1.34-.02a60.1 60.1 0 0 1-1.34-.07c-.83-.06-1.71-.1-2.66-.12-.94-.02-1.87-.02-2.8-.02-.45 0-.93 0-1.46.02-.53.02-1.08.04-1.65.07-.57.03-1.14.06-1.7.07-.56.02-1.08.04-1.55.07-.06-.13-.1-.29-.1-.5v-.45c0-.48.16-.73.48-.77 1.05-.25 1.88-.5 2.49-.74.61-.24.91-.68.91-1.32V4.43zM47.96 16.39c0-2.23.42-4.32 1.27-6.27.84-1.94 2-3.65 3.47-5.12 1.47-1.47 3.18-2.62 5.14-3.47C59.8.69 61.9.26 64.13.26s4.43.4 6.41 1.2c1.98.8 3.69 1.91 5.14 3.35 1.45 1.44 2.59 3.14 3.42 5.12.83 1.98 1.24 4.13 1.24 6.46s-.42 4.33-1.27 6.29c-.85 1.96-2 3.67-3.47 5.12a16.41 16.41 0 0 1-5.17 3.44c-1.98.84-4.08 1.27-6.31 1.27s-4.43-.4-6.41-1.2c-1.98-.8-3.68-1.91-5.12-3.35-1.44-1.44-2.57-3.13-3.4-5.09-.83-1.96-1.24-4.12-1.24-6.48zm16.89 13.64c1.34 0 2.55-.29 3.64-.88a8.727 8.727 0 0 0 2.8-2.42c.78-1.02 1.39-2.22 1.82-3.59.43-1.37.65-2.84.65-4.4 0-2.26-.22-4.37-.65-6.31-.43-1.94-1.08-3.63-1.96-5.05-.88-1.42-1.98-2.54-3.3-3.35-1.32-.81-2.86-1.22-4.62-1.22-1.12 0-2.2.25-3.25.74a8.054 8.054 0 0 0-2.77 2.15c-.8.94-1.44 2.08-1.91 3.42-.48 1.34-.72 2.85-.72 4.54 0 2.36.23 4.54.69 6.55.46 2.01 1.13 3.74 2.01 5.19.88 1.45 1.95 2.58 3.23 3.4 1.28.81 2.73 1.22 4.35 1.22zM111.73 20.12c0 1.82-.19 3.48-.57 5-.38 1.52-1.05 2.82-1.99 3.92s-2.2 1.95-3.78 2.56c-1.58.61-3.56.91-5.96.91-2.84 0-5.13-.32-6.86-.96-1.74-.64-3.08-1.51-4.02-2.61-.94-1.1-1.57-2.39-1.89-3.87-.32-1.48-.48-3.07-.48-4.76V4.43c0-.67-.21-1.14-.62-1.41-.41-.27-1.26-.49-2.54-.65-.35-.06-.53-.37-.53-.91v-.38c0-.16.03-.32.1-.48.92.06 1.91.12 2.94.17 1.04.05 2.27.07 3.71.07 1.12 0 2.28-.02 3.49-.07 1.21-.05 2.3-.1 3.25-.17.03.16.06.32.07.48.02.16.02.29.02.38 0 .54-.18.85-.53.91-1.31.16-2.19.38-2.66.67-.46.29-.69.75-.69 1.39v14.83c0 3.32.61 5.84 1.84 7.56 1.23 1.72 3.34 2.58 6.34 2.58s5.24-.81 6.53-2.42c1.29-1.61 1.94-4.23 1.94-7.87V4.43c0-.64-.22-1.1-.67-1.39-.45-.29-1.29-.51-2.54-.67-.38-.1-.57-.4-.57-.91 0-.1 0-.22.02-.38s.04-.32.07-.48c.92.1 1.78.16 2.56.19s1.62.05 2.51.05c1.02 0 1.93-.02 2.73-.05.8-.03 1.58-.1 2.34-.19.03.16.06.32.07.48.02.16.02.29.02.38 0 .51-.19.81-.57.91-1.18.13-1.99.34-2.44.65-.45.3-.67.77-.67 1.41v15.69zM143.97 21.51V4.53c0-.7-.24-1.2-.72-1.48-.48-.29-1.32-.51-2.54-.67-.41-.1-.62-.4-.62-.91v-.38c0-.16.03-.32.1-.48.8.1 1.58.16 2.34.19.77.03 1.66.05 2.68.05s1.9-.02 2.63-.05c.73-.03 1.47-.1 2.2-.19.03.16.06.32.07.48.02.16.02.29.02.38 0 .54-.19.85-.57.91-1.05.16-1.77.38-2.15.67s-.57.75-.57 1.39v27.99c-.13.03-.34.06-.65.07-.3.02-.5.02-.6.02-.22 0-.46-.06-.72-.17-.26-.11-.53-.34-.81-.69L125.21 7.74v20.67c0 .32.02.58.07.79.05.21.17.38.38.53.21.14.51.27.91.38.4.11.93.23 1.6.36.16.03.29.1.41.22.11.11.17.34.17.69 0 .22-.03.49-.1.81-.8-.06-1.55-.12-2.25-.17-.7-.05-1.52-.07-2.44-.07s-1.81.02-2.66.07c-.85.05-1.62.1-2.32.17-.06-.13-.1-.27-.1-.43v-.38c0-.32.06-.54.17-.67.11-.13.25-.21.41-.24 1.15-.19 1.91-.43 2.3-.72s.57-.73.57-1.34V4.19c0-.51-.17-.9-.5-1.17-.33-.27-1.09-.49-2.27-.65-.38-.1-.57-.4-.57-.91v-.22c0-.08.02-.17.05-.26l.05-.38c.45.03.88.06 1.29.07.41.02.83.04 1.24.07.7.03 1.41.06 2.13.07.72.02 1.3.02 1.75.02.92 0 1.53.04 1.82.12.29.08.54.23.77.45l15.88 20.09zM186.16 16.39c0 1.88-.32 3.75-.96 5.6-.64 1.85-1.63 3.52-2.97 5-1.34 1.48-3.05 2.68-5.12 3.59-2.07.91-4.53 1.36-7.37 1.36h-9.81c-.83 0-1.79.02-2.89.07s-2.15.1-3.13.17c-.06-.13-.1-.27-.1-.43v-.38c0-.35.06-.58.17-.69.11-.11.25-.18.41-.22.92-.16 1.67-.37 2.22-.65.56-.27.84-.74.84-1.41V4.43c0-.64-.23-1.09-.69-1.36-.46-.27-1.25-.5-2.37-.69-.26-.06-.41-.17-.48-.31-.06-.14-.1-.34-.1-.6v-.38c0-.16.03-.32.1-.48.67.06 1.27.1 1.79.12.53.02 1.01.04 1.46.07.45.03.89.05 1.34.05h11.1c2.71 0 5.09.41 7.15 1.24 2.06.83 3.78 1.95 5.17 3.35 1.39 1.4 2.44 3.05 3.16 4.93.72 1.88 1.08 3.89 1.08 6.03zm-6.6.91c0-2.49-.29-4.62-.86-6.41-.57-1.79-1.41-3.24-2.51-4.38-1.1-1.13-2.47-1.96-4.11-2.49-1.64-.53-3.52-.79-5.62-.79h-2.97v24.59c0 .32.05.59.14.81.1.22.29.4.57.53.29.13.69.22 1.2.29.51.06 1.2.1 2.06.1 4.15 0 7.2-1.1 9.16-3.3 1.96-2.2 2.94-5.18 2.94-8.95zM209.56 28.4c0 .32.02.58.07.79.05.21.17.39.38.55.21.16.51.3.91.41.4.11.93.22 1.6.31.32.06.48.33.48.81 0 .1 0 .24-.02.43s-.04.35-.07.48c-1.02-.06-2.11-.12-3.28-.17-1.16-.05-2.19-.07-3.09-.07s-1.96.02-3.11.07-2.23.1-3.25.17c-.06-.13-.1-.29-.1-.48v-.43c0-.51.16-.78.48-.81.67-.1 1.2-.2 1.6-.31.4-.11.69-.25.88-.41.19-.16.32-.34.38-.55.06-.21.1-.47.1-.79V4.43c0-.32-.03-.58-.1-.79-.06-.21-.19-.39-.38-.55-.19-.16-.49-.29-.88-.41-.4-.11-.93-.22-1.6-.31-.32-.1-.48-.37-.48-.81v-.43c0-.19.03-.37.1-.53 1.02.06 2.1.12 3.25.17 1.15.05 2.18.07 3.11.07s1.92-.02 3.09-.07c1.16-.05 2.26-.1 3.28-.17.03.16.06.33.07.53.02.19.02.33.02.43 0 .45-.16.72-.48.81-.67.1-1.2.2-1.6.31-.4.11-.7.25-.91.41-.21.16-.33.34-.38.55a3.5 3.5 0 0 0-.07.79V28.4zM241.9 21.51V4.53c0-.7-.24-1.2-.72-1.48-.48-.29-1.32-.51-2.54-.67-.41-.1-.62-.4-.62-.91v-.38c0-.16.03-.32.1-.48.8.1 1.58.16 2.34.19.77.03 1.66.05 2.68.05s1.9-.02 2.63-.05c.73-.03 1.47-.1 2.2-.19.03.16.06.32.07.48.02.16.02.29.02.38 0 .54-.19.85-.57.91-1.05.16-1.77.38-2.15.67s-.57.75-.57 1.39v27.99c-.13.03-.34.06-.65.07-.3.02-.5.02-.6.02-.22 0-.46-.06-.72-.17-.26-.11-.53-.34-.81-.69L223.14 7.74v20.67c0 .32.02.58.07.79.05.21.17.38.38.53.21.14.51.27.91.38.4.11.93.23 1.6.36.16.03.29.1.41.22.11.11.17.34.17.69 0 .22-.03.49-.1.81-.8-.06-1.55-.12-2.25-.17-.7-.05-1.52-.07-2.44-.07s-1.81.02-2.66.07c-.85.05-1.62.1-2.32.17-.06-.13-.1-.27-.1-.43v-.38c0-.32.06-.54.17-.67.11-.13.25-.21.41-.24 1.15-.19 1.91-.43 2.3-.72s.57-.73.57-1.34V4.19c0-.51-.17-.9-.5-1.17-.33-.27-1.09-.49-2.27-.65-.38-.1-.57-.4-.57-.91v-.22c0-.08.02-.17.05-.26l.05-.38c.45.03.88.06 1.29.07.41.02.83.04 1.24.07.7.03 1.41.06 2.13.07.72.02 1.3.02 1.75.02.92 0 1.53.04 1.82.12.29.08.54.23.77.45l15.88 20.09zM19.66 65.63H9.61l-2.49 6.65c-.1.16-.16.33-.19.53-.03.19-.05.33-.05.43 0 .35.17.64.5.86.33.22 1.01.41 2.03.57.45.06.67.37.67.91 0 .22-.03.49-.1.81-.86-.06-1.77-.12-2.73-.17-.96-.05-1.9-.07-2.82-.07-.64 0-1.31.02-2.01.05-.7.03-1.48.1-2.34.19-.06-.13-.1-.27-.1-.43v-.38c0-.61.21-.92.62-.96.99-.19 1.7-.4 2.13-.62.43-.22.77-.61 1.03-1.15l11.53-27.56c.25-.54.64-.81 1.15-.81.16 0 .32 0 .48.02.16.02.33.04.53.07l11.53 28.42c.19.48.56.84 1.1 1.08.54.24 1.13.41 1.77.5.48.1.72.41.72.96 0 .26-.03.54-.1.86-1.02-.06-2.03-.12-3.01-.17-.99-.05-1.91-.07-2.77-.07-.45 0-.99 0-1.63.02-.64.02-1.29.04-1.96.07-.67.03-1.33.06-1.99.07-.65.02-1.2.04-1.65.07-.06-.13-.1-.27-.1-.43v-.38c0-.29.06-.5.17-.65.11-.14.23-.23.36-.26.83-.16 1.44-.34 1.84-.55.4-.21.6-.52.6-.93 0-.19-.05-.43-.14-.72l-2.54-6.84zm-.91-2.39l-4.07-10.76-4.16 10.76h8.23zM64.3 45.97c.13-.29.33-.51.62-.67.29-.16.99-.24 2.1-.24.25 0 .63 0 1.12-.02.49-.02 1.03-.03 1.6-.05.57-.02 1.15-.04 1.72-.07a35.1 35.1 0 0 0 1.48-.1c.06.16.1.32.1.48v.38c0 .51-.18.81-.53.91-.64.1-1.14.19-1.51.29-.37.1-.65.22-.84.36-.19.14-.32.31-.38.5s-.1.41-.1.67c0 .06.02.67.07 1.82s.12 2.57.22 4.26.19 3.52.29 5.5c.1 1.98.19 3.85.29 5.62.1 1.77.17 3.31.24 4.62.06 1.31.11 2.1.14 2.39 0 .32.04.58.12.79.08.21.22.39.43.55.21.16.5.3.89.41.38.11.88.22 1.48.31.35.06.53.37.53.91 0 .22-.03.49-.1.81-1.12-.06-2.13-.12-3.04-.17-.91-.05-1.94-.07-3.09-.07-1.05 0-2.18.02-3.37.07-1.2.05-2.19.1-2.99.17-.06-.32-.1-.59-.1-.81 0-.35.06-.59.17-.72.11-.13.22-.19.31-.19 1.31-.22 2.15-.49 2.54-.79.38-.3.57-.77.57-1.41 0-.1-.02-.61-.07-1.53s-.1-2.07-.14-3.44c-.05-1.37-.11-2.85-.19-4.45-.08-1.59-.16-3.09-.24-4.5-.08-1.4-.14-2.61-.19-3.64-.05-1.02-.09-1.64-.12-1.87l-9.81 22.82c-.16.29-.3.5-.41.65a.55.55 0 0 1-.45.22h-.29a.72.72 0 0 1-.29-.05l-11.1-26.6c-.03.41-.07 1.25-.12 2.51-.05 1.26-.11 2.7-.19 4.33s-.16 3.34-.24 5.14c-.08 1.8-.15 3.47-.22 5-.06 1.53-.12 2.81-.17 3.85-.05 1.04-.07 1.6-.07 1.7 0 .29.03.53.1.74.06.21.19.39.38.55.19.16.48.3.86.41.38.11.91.23 1.58.36.35.06.53.37.53.91 0 .1 0 .22-.02.36-.02.14-.04.29-.07.45-.86-.06-1.66-.12-2.39-.17-.73-.05-1.47-.07-2.2-.07-.64 0-1.44.02-2.39.07-.96.05-1.82.1-2.58.17-.06-.13-.1-.27-.1-.43v-.38c0-.35.05-.58.14-.69.1-.11.22-.18.38-.22.99-.22 1.71-.48 2.15-.77.45-.29.7-.72.77-1.29 0-.25.03-1.03.1-2.32.06-1.29.14-2.82.24-4.59.1-1.77.19-3.65.29-5.65.1-1.99.18-3.84.26-5.55.08-1.71.14-3.13.19-4.28.05-1.15.07-1.75.07-1.82 0-.54-.18-.93-.53-1.17-.35-.24-1.12-.45-2.3-.65-.35-.03-.53-.33-.53-.91v-.38c0-.16.03-.32.1-.48.41.03.99.06 1.72.1.73.03 1.48.06 2.25.07.77.02 1.48.03 2.15.05.67.02 1.15.02 1.44.02.57 0 1.02.02 1.34.07.32.05.57.1.77.17.19.06.33.16.41.29.08.13.15.26.22.38l8.9 21.48 9.09-21.48zM95.15 59.56c1.34.13 2.58.39 3.71.79s2.11.93 2.94 1.58c.83.65 1.47 1.43 1.94 2.32.46.89.69 1.88.69 2.97 0 1.47-.28 2.76-.84 3.87a7.828 7.828 0 0 1-2.34 2.8c-1 .75-2.22 1.32-3.66 1.7s-3.03.57-4.78.57h-8.28c-.57 0-1.22 0-1.94.02s-1.4.06-2.03.12c-.38.03-.77.06-1.15.07-.38.02-.75.02-1.1.02l-.05-.33a.91.91 0 0 1-.05-.26v-.22c0-.35.06-.58.17-.69.11-.11.25-.18.41-.22 1.12-.16 1.91-.38 2.37-.67.46-.29.69-.75.69-1.39V48.64c0-.64-.21-1.09-.62-1.36-.41-.27-1.23-.5-2.44-.69-.26-.06-.41-.18-.48-.36-.06-.17-.1-.39-.1-.65v-.22c0-.08.02-.15.05-.22 0-.13.02-.24.05-.33.96.06 2.03.12 3.23.17 1.2.05 2.18.07 2.94.07h6.6c2.04 0 3.73.2 5.07.6 1.34.4 2.41.95 3.21 1.65.8.7 1.36 1.51 1.7 2.42s.5 1.86.5 2.85c0 1.85-.61 3.32-1.82 4.43-1.21 1.1-2.74 1.91-4.59 2.42v.14zm-6.51-.91c1.24 0 2.28-.16 3.11-.48.83-.32 1.49-.76 1.99-1.32.49-.56.84-1.19 1.05-1.89.21-.7.31-1.44.31-2.2s-.12-1.43-.36-2.08a4.39 4.39 0 0 0-1.12-1.7c-.51-.48-1.18-.85-2.01-1.12-.83-.27-1.82-.41-2.97-.41h-.77v11.19h.77zm-.76 13.49c0 .73.34 1.2 1.03 1.41.69.21 1.47.31 2.37.31 2.2 0 3.84-.47 4.93-1.41 1.08-.94 1.63-2.46 1.63-4.57 0-1.15-.2-2.15-.6-3.01-.4-.86-.93-1.57-1.6-2.13-.67-.56-1.45-.98-2.34-1.27-.89-.29-1.83-.43-2.82-.43H87.9v11.1zM117.25 72.62c0 .32.02.58.07.79.05.21.17.39.38.55.21.16.51.3.91.41.4.11.93.22 1.6.31.32.06.48.33.48.81 0 .1 0 .24-.02.43s-.04.35-.07.48c-1.02-.06-2.11-.12-3.28-.17-1.16-.05-2.19-.07-3.09-.07s-1.96.02-3.11.07-2.23.1-3.25.17c-.06-.13-.1-.29-.1-.48v-.43c0-.51.16-.78.48-.81.67-.1 1.2-.2 1.6-.31.4-.11.69-.25.88-.41.19-.16.32-.34.38-.55.06-.21.1-.47.1-.79V48.65c0-.32-.03-.58-.1-.79-.06-.21-.19-.39-.38-.55-.19-.16-.49-.29-.88-.41-.4-.11-.93-.22-1.6-.31-.32-.1-.48-.37-.48-.81v-.43c0-.19.03-.37.1-.53 1.02.06 2.1.12 3.25.17 1.15.05 2.18.07 3.11.07s1.92-.02 3.09-.07c1.16-.05 2.26-.1 3.28-.17.03.16.06.33.07.53.02.19.02.33.02.43 0 .45-.16.72-.48.81-.67.1-1.2.2-1.6.31-.4.11-.7.25-.91.41-.21.16-.33.34-.38.55a3.5 3.5 0 0 0-.07.79v23.97zM150.5 75.92c-.77.13-1.49.24-2.16.33s-1.37.18-2.08.26c-.72.08-1.5.14-2.35.17-.85.03-1.83.05-2.95.05-2.88 0-5.36-.38-7.45-1.15-2.09-.77-3.81-1.86-5.15-3.28-1.34-1.42-2.34-3.12-3-5.09-.65-1.98-.98-4.18-.98-6.6 0-1.88.32-3.78.96-5.69.64-1.91 1.62-3.64 2.94-5.19 1.32-1.55 2.98-2.81 4.98-3.78 1.99-.97 4.33-1.46 7.01-1.46 1.85 0 3.74.14 5.67.41 1.93.27 3.76.63 5.48 1.08.06.86.19 1.96.38 3.3s.46 2.65.81 3.92c-.16.03-.35.07-.57.12-.22.05-.4.07-.53.07-.26 0-.47-.04-.65-.12-.18-.08-.3-.25-.36-.5-.67-2.2-1.77-3.71-3.3-4.52-1.53-.81-3.43-1.22-5.69-1.22-1.72 0-3.25.3-4.57.88a8.721 8.721 0 0 0-3.3 2.54c-.88 1.1-1.55 2.42-2.01 3.97-.46 1.55-.69 3.29-.69 5.24 0 2.14.25 4.1.77 5.88.51 1.79 1.26 3.32 2.25 4.62.99 1.29 2.21 2.3 3.66 3.01 1.45.72 3.12 1.08 5 1.08.67 0 1.27-.03 1.79-.1.53-.06 1.08-.17 1.65-.33v-6.89c0-.86-.24-1.46-.72-1.79-.48-.33-1.32-.58-2.54-.74a.73.73 0 0 1-.53-.41c-.1-.21-.14-.41-.14-.6 0-.1 0-.24.02-.43s.04-.33.07-.43c.48.03 1.01.06 1.6.1.59.03 1.2.06 1.82.07.62.02 1.22.03 1.8.05.58.02 1.08.02 1.49.02s.91 0 1.47-.02c.56-.02 1.14-.03 1.73-.05.59-.02 1.17-.04 1.73-.07.56-.03 1.03-.06 1.41-.1.06.16.1.32.1.48v.38c0 .29-.06.5-.17.65-.11.14-.25.25-.41.31-1.02.13-1.73.33-2.13.62-.4.29-.6.77-.6 1.44v8.32c0 .29-.08.53-.24.72-.16.19-.61.35-1.34.48zM186.38 64.34c0 1.82-.19 3.48-.57 5-.38 1.52-1.05 2.82-1.99 3.92s-2.2 1.95-3.78 2.56c-1.58.61-3.56.91-5.96.91-2.84 0-5.13-.32-6.86-.96-1.74-.64-3.08-1.51-4.02-2.61-.94-1.1-1.57-2.39-1.89-3.87-.32-1.48-.48-3.07-.48-4.76V48.65c0-.67-.21-1.14-.62-1.41-.41-.27-1.26-.49-2.54-.65-.35-.06-.53-.37-.53-.91v-.38c0-.16.03-.32.1-.48.92.06 1.91.12 2.94.17 1.04.05 2.27.07 3.71.07 1.12 0 2.28-.02 3.49-.07 1.21-.05 2.3-.1 3.25-.17.03.16.06.32.07.48.02.16.02.29.02.38 0 .54-.18.85-.53.91-1.31.16-2.19.38-2.66.67-.46.29-.69.75-.69 1.39v14.83c0 3.32.61 5.84 1.84 7.56 1.23 1.72 3.34 2.58 6.34 2.58s5.24-.81 6.53-2.42c1.29-1.61 1.94-4.23 1.94-7.87V48.64c0-.64-.22-1.1-.67-1.39-.45-.29-1.29-.51-2.54-.67-.38-.1-.57-.4-.57-.91 0-.1 0-.22.02-.38s.04-.32.07-.48c.92.1 1.78.16 2.56.19s1.62.05 2.51.05c1.02 0 1.93-.02 2.73-.05.8-.03 1.58-.1 2.34-.19.03.16.06.32.07.48.02.16.02.29.02.38 0 .51-.19.81-.57.91-1.18.13-1.99.34-2.44.65-.45.3-.67.77-.67 1.41v15.69zM203.03 72.62c0 .32.02.58.07.79.05.21.17.39.38.55.21.16.51.3.91.41.4.11.93.22 1.6.31.32.06.48.33.48.81 0 .1 0 .24-.02.43s-.04.35-.07.48c-1.02-.06-2.11-.12-3.28-.17-1.16-.05-2.19-.07-3.09-.07s-1.96.02-3.11.07-2.23.1-3.25.17c-.06-.13-.1-.29-.1-.48v-.43c0-.51.16-.78.48-.81.67-.1 1.2-.2 1.6-.31.4-.11.69-.25.88-.41.19-.16.32-.34.38-.55.06-.21.1-.47.1-.79V48.65c0-.32-.03-.58-.1-.79-.06-.21-.19-.39-.38-.55-.19-.16-.49-.29-.88-.41-.4-.11-.93-.22-1.6-.31-.32-.1-.48-.37-.48-.81v-.43c0-.19.03-.37.1-.53 1.02.06 2.1.12 3.25.17 1.15.05 2.18.07 3.11.07s1.92-.02 3.09-.07c1.16-.05 2.26-.1 3.28-.17.03.16.06.33.07.53.02.19.02.33.02.43 0 .45-.16.72-.48.81-.67.1-1.2.2-1.6.31-.4.11-.7.25-.91.41-.21.16-.33.34-.38.55a3.5 3.5 0 0 0-.07.79v23.97zM227.33 47.45v25.16c0 .32.02.58.07.79.05.21.17.39.36.55.19.16.46.3.81.41.35.11.84.22 1.48.31.48.1.72.37.72.81 0 .1 0 .24-.02.43s-.04.35-.07.48c-1.02-.06-2.11-.12-3.28-.17-1.16-.05-2.19-.07-3.09-.07s-1.95.02-3.09.07c-1.13.05-2.21.1-3.23.17-.06-.13-.1-.29-.12-.48-.02-.19-.02-.33-.02-.43 0-.22.04-.41.12-.55.08-.14.29-.25.65-.31 1.18-.16 1.92-.37 2.22-.65.3-.27.45-.73.45-1.36V47.45h-4.21c-.89 0-1.65.09-2.27.26-.62.18-1.16.45-1.63.81-.46.37-.88.85-1.24 1.44-.37.59-.74 1.3-1.12 2.13-.13.29-.37.43-.72.43-.19 0-.41-.04-.67-.12-.26-.08-.45-.15-.57-.22.22-.77.41-1.44.57-2.03.16-.59.29-1.17.38-1.75.13-.73.22-1.39.29-1.96.06-.57.14-.99.24-1.24.13-.29.38-.43.77-.43.35 0 1.04.05 2.08.14 1.04.1 2.29.14 3.76.14h14.73c1.44 0 2.67-.05 3.71-.14 1.04-.1 1.75-.14 2.13-.14.35 0 .61.14.77.43.1.26.17.67.22 1.24.05.57.15 1.23.31 1.96.1.57.22 1.16.36 1.75.14.59.34 1.27.6 2.03-.16.06-.36.14-.6.22-.24.08-.45.12-.65.12-.35 0-.61-.14-.77-.43-.38-.83-.76-1.54-1.12-2.13-.37-.59-.78-1.07-1.24-1.44-.46-.37-1-.64-1.63-.81-.62-.17-1.36-.26-2.22-.26h-4.21zM251.96 63.05l-7.61-14.5c-.35-.67-.79-1.13-1.32-1.39-.53-.25-1.2-.45-2.03-.57-.38-.03-.57-.35-.57-.96v-.22c0-.08.02-.17.05-.26l.05-.33c.7.06 1.6.12 2.7.17 1.1.05 2.3.07 3.61.07.45 0 .98 0 1.6-.02.62-.02 1.25-.03 1.89-.05.64-.02 1.24-.04 1.79-.07.56-.03 1.01-.06 1.36-.1.06.29.1.49.1.6v.26c0 .54-.19.85-.57.91-.83.1-1.4.23-1.72.41-.32.18-.48.41-.48.69 0 .26.11.59.33 1l5.6 11.1 5.5-10.33c.35-.61.53-1.12.53-1.53 0-.38-.18-.66-.53-.84-.35-.17-.96-.34-1.82-.5-.41-.06-.62-.37-.62-.91 0-.13.05-.41.14-.86.67.06 1.51.12 2.51.17 1 .05 1.89.07 2.66.07s1.51-.02 2.32-.05c.81-.03 1.63-.1 2.46-.19.06.22.1.41.1.55v.31c0 .57-.19.88-.57.91-1.15.16-1.95.37-2.39.62-.45.26-.83.65-1.15 1.2l-7.89 14.54v9.52c0 .35.05.64.14.86.1.22.27.41.53.57.25.16.6.3 1.03.41.43.11 1 .22 1.7.31.16.03.29.1.41.22.11.11.17.34.17.69 0 .06 0 .14-.02.22-.02.08-.02.17-.02.26l-.05.33c-.51 0-.99 0-1.44-.02a60.1 60.1 0 0 1-1.34-.07c-.77-.06-1.55-.1-2.37-.12-.81-.02-1.49-.02-2.03-.02-.57 0-1.24 0-1.99.02s-1.48.06-2.18.12c-.41.03-.82.06-1.22.07-.4.02-.81.02-1.22.02l-.05-.33a.91.91 0 0 1-.05-.26v-.22c0-.35.06-.58.17-.69s.25-.18.41-.22c.67-.13 1.23-.25 1.67-.36.45-.11.8-.24 1.05-.38s.43-.33.53-.55c.1-.22.14-.51.14-.86v-9.42z" fill="#fff"/></svg>