<svg xmlns="http://www.w3.org/2000/svg" viewBox="0 0 266 113"><path d="M54.41 5.05c-1.03.14-2.06-.09-3.1 0-1.16.09-2.04.55-2.9 1.3-.79.69-1.71 1.39-2.38 2.21-.74.89-.68 2.11.13 2.94.66.68 1.61.96 2.4 1.44.73.43 1.43.98 1.93 1.67.82 1.13 1.16 3.05-.05 4.05s-4.6 1.06-5-.87c-.34-1.62-2.82-.93-2.48.68.51 2.45 3.09 3.43 5.35 3.39s4.35-1.06 5.17-3.27c.72-1.95.16-4.13-1.09-5.72-.65-.82-1.46-1.49-2.34-2.05-.43-.27-.88-.49-1.34-.71-.18-.09-.35-.18-.53-.28.25.14-.24-.14-.2-.16.07-.03.03.57-.01.55.14.05 1.34-1.23 1.49-1.36.42-.38.86-.91 1.4-1.14.47-.2 1.03-.14 1.53-.11.68.04 1.35.09 2.03 0s1.29-.53 1.29-1.29c0-.62-.59-1.38-1.29-1.29zM70.03 6.42c-1.23-.37-2.5-.12-3.66.35-1.02.42-2.01 1.01-3.14 1.08-1.21.07-2.28.42-3.1 1.36-.7.81-1.17 1.81-1.47 2.83-.8 2.71 1.72 4.35 3.94 5.14 1.24.44 2.67.71 3.91.13 1.01-.47 1.94-1.34 2.7-2.14 1.86-1.94 3.06-4.74 2.14-7.41-.23-.66-.88-1.09-1.58-.9-.64.17-1.13.92-.9 1.58.53 1.51.02 3.09-.96 4.33-.53.67-1.18 1.27-1.86 1.79-.23.17-.51.42-.78.49-.36.09-.79-.02-1.15-.1-.84-.2-1.61-.53-2.33-1-.19-.13-.5-.37-.61-.52-.04-.06-.16-.34-.12-.2-.02-.09.03-.34.08-.5.18-.6.46-1.28.81-1.7.1-.13.22-.25.35-.35 0 0 .19-.12.24-.14.22-.1.64-.1.96-.13 1.21-.1 2.26-.56 3.36-1.06.78-.35 1.64-.71 2.49-.45 1.59.48 2.26-2 .68-2.48zM77.04 7.94c-1.35 3.04-2.4 6.18-3.11 9.42-.15.68.2 1.39.9 1.58.64.18 1.43-.22 1.58-.9.66-3.02 1.6-5.98 2.85-8.81.28-.63.18-1.38-.46-1.76-.55-.32-1.48-.18-1.76.46z" fill="#fff"/><path d="M77.82 12.23c.39-.28.8-.52 1.23-.73.06-.03.36-.15.1-.05.1-.04.21-.08.31-.12.21-.07.42-.14.63-.19s.43-.09.65-.13c.3-.06-.19 0 .1-.01.13 0 .26-.01.4-.02h-.06c-.15-.07-.18-.08-.1-.03.08.05.05.03-.08-.06.05.04.09.09.13.13l-.08-.11c.04.05.07.11.11.17.05.08.12.17.14.26-.07-.31-.01 0 0 .06.03.09.05.19.07.29s.05.2.05.29v.06c.04.44.04.89.05 1.34.03 1.06.19 2.13.5 3.15.2.64.91 1.12 1.58.9s1.11-.89.9-1.58c-.09-.29-.17-.58-.23-.88-.03-.14-.06-.28-.08-.42-.01-.08-.03-.16-.04-.24.02.12.02.13 0 .04-.04-.53-.06-1.05-.08-1.59-.03-1.08-.13-2.23-.76-3.14-.45-.65-1.05-1.1-1.86-1.18-.59-.06-1.21.07-1.78.19-1.11.25-2.19.73-3.11 1.39-.55.39-.86 1.14-.46 1.76.35.54 1.17.88 1.76.46zM136.43 5.66c-1.17-.47-2.42-.75-3.68-.83-1.34-.08-2.42.38-3.49 1.13s-2.06 1.5-3.02 2.33-1.54 1.84-1.41 3.08c.27 2.54 2.87 3.97 5.16 4.4 1.39.26 2.65.05 3.93-.53 1.02-.46 2.06-1.07 2.8-1.92 1.64-1.89 1.92-4.76.56-6.9-.37-.59-1.14-.82-1.76-.46-.58.34-.84 1.17-.46 1.76.71 1.11.71 2.46-.01 3.59-.09.14-.06.1-.2.26s-.3.31-.46.44c-.28.23-.66.46-1 .64-.7.38-1.44.71-2.24.69s-1.67-.34-2.34-.67c-.3-.15-.63-.34-.84-.53-.24-.21-.43-.47-.5-.67-.11-.31-.15-.44 0-.75-.04.08.15-.17.16-.18.14-.15.29-.29.45-.42.7-.6 1.44-1.17 2.2-1.71.41-.29.82-.61 1.27-.83.36-.17.79-.19 1.22-.16 1.03.06 2.04.35 2.99.74.64.26 1.41-.28 1.58-.9.2-.73-.25-1.32-.9-1.58zM156.17 2.3c-2.16-.24-4.32-.43-6.49-.58-1.02-.07-2.25-.33-3.27-.1-.96.22-1.54 1.18-2.06 1.93-2.17 3.11-3.28 6.94-3.21 10.72.03 1.65 2.6 1.66 2.57 0a15.946 15.946 0 0 1 3.26-9.98c.05-.06.09-.12.14-.17.12-.12.07-.12-.16 0 .2.02.4.02.6.03a161.775 161.775 0 0 1 8.62.71c.69.08 1.29-.64 1.29-1.29 0-.76-.59-1.21-1.29-1.29z" fill="#fff"/><path d="M140.77 11.09h12.41c1.65 0 1.66-2.57 0-2.57h-12.41c-1.65 0-1.66 2.57 0 2.57zM38 40.67c-3.04 9.15-6.38 18.2-10.04 27.12-.95 2.33-1.93 4.65-2.92 6.96-.84 1.96-2.15 4.06-2.51 6.18-.31 1.81.63 3.39 1.59 4.84 1.28 1.94 2.28 3.94 2.93 6.18.15.5.7.58 1.07.28 2.9-2.3 5.36-5.43 7.35-8.53 2.12-3.29 3.23-7.05 4.43-10.74 2.71-8.35 5.26-16.74 7.67-25.18l-.62.47c2.06-.06 4.37-.13 6.17 1.03 2.05 1.32 2.58 3.68.99 5.58-2.45 2.92-6.49 5.45-10.32 5.74-.82.06-.83 1.35 0 1.29 2.61-.2 4.98-1.21 7.13-2.67 1.9-1.29 4.27-2.93 5.16-5.13.82-2.02-.1-4.17-1.73-5.48-2.08-1.67-4.86-1.72-7.41-1.64-.29 0-.54.19-.62.47a760.28 760.28 0 0 1-7.36 24.25c-1.21 3.74-2.27 7.64-4.37 11-1.97 3.15-4.47 6.31-7.39 8.63l1.07.28c-.6-2.06-1.46-4.02-2.62-5.82s-2.41-3.48-1.54-5.76c1.66-4.31 3.69-8.5 5.43-12.78 3.51-8.63 6.73-17.38 9.67-26.23.26-.79-.98-1.12-1.24-.34z" fill="#fff"/><path d="M42.07 66.38c3.61 5.46 5.26 11.82 6.85 18.09.07.27.34.47.62.47 3.21.02 6.42.04 9.63.07.32 0 .68-.3.64-.64-.35-3.6-.69-7.22-1.54-10.73-.39-1.63-.9-3.23-1.55-4.78-.74-1.75-1.73-3.39-2.07-5.28l-.3.73c2.97-1.77 6.73-3.51 8.69-6.48 1.82-2.76 3.06-6.59 3.01-9.91s-1.64-5.89-4.31-7.6c-3-1.92-6.66-2.23-10.13-2.36-2.16-.08-4.31-.06-6.42.47s-4.25 1.4-6.53 1.41c-.83 0-.83 1.29 0 1.29 1.95-.01 3.76-.58 5.62-1.12 2.21-.64 4.33-.85 6.63-.79 4.1.11 8.77.39 11.81 3.53s2.04 8.09.5 11.87c-.84 2.05-1.92 3.69-3.76 4.97s-3.82 2.45-5.76 3.6c-.26.16-.35.44-.3.73.28 1.57 1 2.96 1.67 4.4.79 1.68 1.38 3.43 1.84 5.23.9 3.54 1.25 7.19 1.6 10.82l.64-.64c-3.21-.02-6.42-.04-9.63-.07l.62.47c-1.62-6.38-3.32-12.85-6.98-18.4-.45-.69-1.57-.04-1.11.65zM77.77 44.51c5.68-.1 11.35-.21 17.03-.31l-.64-.64c-.05 8.99-.19 17.98-.41 26.96-.06 2.23-.12 4.45-.19 6.68-.03 1.07-.07 2.14-.1 3.21l-.06 1.73c-.02.47.12 1.31-.06 1.73-.23.54-.74.36-1.34.33l-1.44-.09c-.56-.03-1.12-.07-1.68-.1-.66-.04-.64.09-.77-.42-.1-.43.11-1.19.11-1.65 0-.55-.02-1.1-.06-1.65a42.36 42.36 0 0 0-.37-3c-.33-2.15-.65-4.3-1.03-6.44-.33-1.88-1.5-1.63-3.09-1.66-1.03-.01-2.01-.25-2.95-.66-.55-.25-1.12-.61-1.74-.37-.57.22-.95.91-1.29 1.38-.61.84-1.17 1.72-1.71 2.6-1.08 1.78-2.05 3.63-2.99 5.48-.44.86-.87 1.73-1.31 2.59-.53 1.04-.96 2.51-2.4 2.07-.74-.23-2.23-.56-2.71-1.18-.56-.73.75-2.83 1.06-3.55.79-1.86 1.56-3.73 2.23-5.64 3.17-8.98 4.82-18.43 8.26-27.33.3-.77-.94-1.11-1.24-.34-3.31 8.53-4.95 17.58-7.88 26.23-.76 2.25-1.65 4.46-2.57 6.65-.39.93-.81 1.87-1.16 2.82-.23.64-.39 1.31.11 1.87.9 1 3.33 1.88 4.64 1.98 1.74.13 2.33-2.06 2.97-3.32.98-1.93 1.94-3.86 2.99-5.75.5-.91 1.03-1.81 1.59-2.68.28-.44.56-.87.86-1.3.16-.24.31-.53.51-.73.43-.43.67-.47 1.22-.33.87.23 1.62.6 2.53.72 1.01.13 2.4-.34 2.84.79.38.97.37 2.32.54 3.35.19 1.19.39 2.37.57 3.56s.31 2.4.32 3.61c0 .83-.39 2.07-.02 2.84.25.52.71.64 1.24.7 1.18.14 2.41.14 3.6.22.7.04 1.6.25 2.24-.13s.61-1.06.63-1.71c.1-2.47.17-4.95.24-7.42.32-10.88.51-21.76.57-32.65 0-.34-.3-.65-.64-.64-5.68.1-11.35.21-17.03.31-.83.02-.83 1.3 0 1.29z" fill="#fff"/><path d="M82.99 59.05c.2-2.31.64-5.4 3.19-6.29.23-.08.48-.15.72-.17.28-.02.53.05.79.06s-.11 0-.04-.05c-.02.01 0 .16 0 .19 0 .18 0 .36-.01.55 0 .39-.02.77-.02 1.16 0 .36-.01.73-.02 1.09 0 .18 0 .36-.01.55 0 .2.04.46-.01.65-.03.12-.33.27-.49.37-.29.18-.59.34-.92.42-.6.15-1.22.12-1.83.19-.73.08-1.38.27-1.94.76-.63.54.29 1.45.91.91.45-.39 1.13-.4 1.7-.43.76-.05 1.5-.11 2.2-.44s1.55-.77 1.65-1.59.05-1.75.07-2.61c0-.46.02-.91.03-1.37 0-.43.02-.88-.28-1.22-.49-.56-1.5-.52-2.17-.41-1.4.23-2.63 1.2-3.38 2.37-1.01 1.57-1.23 3.49-1.39 5.31-.03.35.32.64.64.64.37 0 .61-.3.64-.64zM101.44 84.27c1.45-9.28 3.14-18.53 4.74-27.78.41-2.34.81-4.69 1.22-7.03.21-1.19.38-2.02 1.7-2.39 1.04-.29 2.14-.47 3.2-.7.78-.17 2.94-1 3.62-.43.34.28.55 1.24.73 1.65.2.46.4.91.6 1.37 1 2.28 1.99 4.56 2.99 6.83.18.41.73.37 1.01.13 3.4-2.97 6.46-6.32 9.08-10 .17-.24.34-.49.51-.73.44-.38.87-.42 1.31-.14.61.12 1.26.49 1.84.72.61.24 1.23.48 1.84.72s1.75.47 2.06 1.13c.2.43-.01 1.48-.02 1.96 0 .65-.01 1.31-.02 1.96-.01 1.22-.03 2.45-.05 3.67-.06 5.06-.11 10.12.08 15.18.05 1.22.1 2.44.18 3.67s.32 2.6.26 3.87c-.06 1.39-1.19 2.53-1.98 3.6s-1.55 2.07-2.33 3.1l1.17.15c-1.33-7.81-2.27-15.69-2.83-23.59-.04-.5-.71-.92-1.1-.45-1.57 1.88-3.14 3.75-4.72 5.63-.73.88-1.47 1.75-2.2 2.63l-1.26 1.5-.63.75c-.25.45-.35.53-.31.25-.13-.1-.46-.89-.58-1.1-.25-.44-.48-.89-.7-1.35-.39-.8-.75-1.61-1.14-2.4-.8-1.62-1.73-3.15-3.08-4.36-.3-.27-.8-.25-1.01.13-2.42 4.36-4.23 9.05-5.3 13.93-.26 1.19-.47 2.4-.69 3.6-.11.6-.14 1.43-.41 1.99-.34.7-1.03.97-1.76 1.11-2.24.44-4.57.06-6.83.45-.81.14-.47 1.38.34 1.24 2.38-.41 4.84.06 7.19-.53.84-.21 1.68-.52 2.09-1.34.57-1.15.63-2.69.86-3.94 1.03-5.57 2.87-10.9 5.62-15.86l-1.01.13c1.66 1.5 2.59 3.48 3.53 5.47.46.97.92 1.95 1.47 2.87.33.54.76 1.44 1.52 1.42s1.31-1.06 1.73-1.55c.89-1.06 1.78-2.13 2.67-3.19 1.83-2.19 3.67-4.38 5.5-6.57l-1.1-.45c.57 8.02 1.53 16.01 2.88 23.93.1.61.88.54 1.17.15 1.33-1.73 2.85-3.46 3.94-5.35 1.03-1.78.39-4.17.27-6.11-.28-4.64-.32-9.3-.29-13.95.01-2.29.05-4.57.07-6.86.01-1.14.03-2.29.04-3.43 0-.86.25-2.03-.15-2.83-.29-.57-.88-.74-1.45-.96-1.15-.45-2.3-.9-3.45-1.34-1.4-.54-2.95-1.61-4.14-.22-1.54 1.81-2.81 3.84-4.4 5.62s-3.38 3.55-5.23 5.17l1.01.13c-.86-1.97-1.73-3.95-2.59-5.92l-1.2-2.73c-.27-.62-.49-1.43-1.09-1.83-.51-.34-1.08-.26-1.65-.15-1.04.2-2.07.45-3.11.68-1.4.31-3.49.38-4.58 1.44s-1.06 3.06-1.31 4.45c-.36 2.1-.72 4.19-1.09 6.29-.71 4.09-1.42 8.19-2.12 12.28-.82 4.76-1.66 9.52-2.41 14.29-.13.81 1.11 1.16 1.24.34zM154.6 46.65c.57 12.53 1.8 25.02 3.68 37.41.12.82 1.36.47 1.24-.34a354.214 354.214 0 0 1-3.63-37.07c-.04-.82-1.32-.83-1.29 0z" fill="#fff"/><path d="M155.37 46.99c2.48-.54 4.99-.81 7.53-.77 2.13.03 4.31.14 5.69 1.99 2.74 3.67.26 8.13-2.51 10.9-.4.4-.1 1.08.45 1.1 3.31.08 6.66 2.02 9.28 3.93 3.25 2.37 2.4 6.13.79 9.25s-4.15 5.3-7.53 6.66-6.65 2.24-10.05 3.02c-.81.18-.46 1.42.34 1.24 4.08-.94 8.33-2.03 12.08-3.92 3.37-1.71 5.6-4.5 7.02-7.97 1.31-3.22 1.36-6.73-1.56-9.05s-6.7-4.35-10.37-4.44l.45 1.1c3.19-3.18 5.7-8.19 2.77-12.4-1.3-1.86-3.21-2.5-5.4-2.64-3.13-.2-6.27.1-9.33.76-.81.18-.47 1.41.34 1.24z" fill="#fff"/><path d="M163.39 74.48c.1-1.43.01-2.86-.16-4.29-.09-.72-.2-1.44-.32-2.16-.03-.16-.03-.36-.09-.51v-.07c-.02-.19-.11-.12-.28.19.02.01.08-.01.1 0 .23.13.62.14.88.21 1.13.3 2.29.73 3.06 1.65.6.71.86 1.81.3 2.62-.35.51-1 .71-1.55.92-.76.3-1.53.6-2.29.9-.32.13-.55.43-.45.79.08.31.47.58.79.45.81-.32 1.62-.64 2.42-.95.71-.28 1.46-.56 1.96-1.16.9-1.09.9-2.66.19-3.85-.78-1.3-2.17-2.04-3.57-2.47-.64-.2-1.52-.55-2.19-.34-.96.3-.62 1.39-.5 2.11.32 1.97.55 3.96.41 5.96-.06.83 1.23.82 1.29 0zM162.81 55.36c.11-1.27 0-2.55-.29-3.79l-.45.79.57-.12c.05 0 .1-.02.14-.02.08-.01.1-.01.04 0l.29-.03c.19-.01.37-.01.56 0-.12-.01.02 0 .06.01.08.02.15.03.23.06.03 0 .24.1.12.04.07.03.14.07.2.11.03.02.06.04.1.06-.05-.04-.05-.04 0 0 .06.05.11.1.16.16-.08-.1.02.03.03.05.02.03.1.23.05.09.02.07.04.14.06.2.01.07.01.07 0-.01v.33c0 .07 0 .07 0 0 0 .04-.01.07-.02.11-.01.06-.03.12-.05.18 0 .03-.02.05-.03.08.03-.07.03-.07 0 0-.04.06-.07.13-.11.19l-.06.09c.05-.06.05-.06 0 0-.05.05-.1.11-.16.16-.03.03-.06.05-.09.08.05-.04.05-.04 0 0-.11.07-.23.14-.35.2-.07.03-.07.03 0 0-.04.01-.07.03-.11.04-.07.03-.15.05-.22.07s-.15.04-.23.05c-.04 0-.08.01-.12.02.07 0 .07-.01 0 0-.16 0-.31.02-.47.01-.34 0-.66.3-.64.64s.28.63.64.64c1.32.04 2.66-.56 3.16-1.84.24-.6.21-1.28-.07-1.86s-.92-1.01-1.56-1.17c-.82-.21-1.65-.05-2.46.13-.35.08-.53.47-.45.79.27 1.13.35 2.24.24 3.45-.03.34.32.66.64.64.37-.02.61-.28.64-.64zM200.84 47.41c-2.06-1.71-4.71-2.81-7.43-2.69s-4.99 1.7-6.6 3.91c-3.49 4.78-4.38 11.33-2.42 16.89 1.78 5.05 6.24 10.49 11.85 11.29 2.99.42 5.56-1.11 7.64-3.13 2.31-2.24 3.29-5.19 3.64-8.34.41-3.66 0-7.63-.93-11.19-.39-1.5-1.08-2.73-2.26-3.74s-2.52-1.76-3.49-3c-.51-.65-1.41.26-.91.91 1.35 1.74 3.67 2.56 4.78 4.49.65 1.13.83 2.51 1.06 3.77.27 1.5.47 3.01.55 4.53.16 2.88-.02 5.98-1.2 8.65-1.07 2.4-3.49 4.76-6.02 5.57-5.13 1.64-10.28-3.74-12.43-7.8-2.45-4.63-2.66-10.24-.57-15.05 1.1-2.53 2.9-5.34 5.67-6.19s5.98.23 8.16 2.04c.63.53 1.55-.38.91-.91z" fill="#fff"/><path d="M197.39 55.89c-1.83-.55-4.12-.66-5.36 1.08-.57.8-.8 1.88-.87 2.85s.12 2.02.56 2.92c.78 1.57 2.43 2.71 4.22 2.56 1.92-.15 3.26-1.61 3.57-3.46.19-1.17.01-2.34-.27-3.47-.24-.97-.5-2.17-1.68-2.28-.35-.03-.64.32-.64.64 0 .37.3.61.64.64-.06 0 .01.04.07.12.07.11.11.23.15.35.12.39.21.78.3 1.18.17.76.3 1.55.21 2.33-.14 1.29-.91 2.48-2.27 2.66-1.27.17-2.42-.58-3.05-1.65-.72-1.24-.71-2.89-.15-4.2.73-1.71 2.76-1.47 4.22-1.04.79.24 1.13-1 .34-1.24zM12.98 38.29c5.18-4.24 10.37-8.47 15.55-12.71l-1.01-.78c-2.28 4.64-4.57 9.29-6.85 13.93l1.01-.13c-2.4-2.83-4.35-6.01-5.77-9.44l-.62.81c5.6.72 11.14 1.78 16.62 3.13v-1.24c-6.18 1.43-12.34 2.99-18.45 4.67-.8.22-.46 1.46.34 1.24 6.12-1.69 12.27-3.24 18.45-4.67.62-.14.61-1.09 0-1.24-5.59-1.39-11.25-2.44-16.96-3.18-.39-.05-.77.46-.62.81 1.5 3.65 3.54 7 6.1 10.01.26.3.84.22 1.01-.13 2.28-4.64 4.57-9.29 6.85-13.93.33-.67-.44-1.24-1.01-.78-5.18 4.24-10.37 8.47-15.55 12.71-.64.52.27 1.43.91.91zM48.89 32.35c4.26-.64 7.34-4.61 11.68-4.8l-.55-.97a78.084 78.084 0 0 1-6.45 7.84l1.07.28c-.48-2.75-1.03-5.5-1.65-8.22l-.79.79c1.8.42 3.4 1.44 5.01 2.3s3.36 1.8 5.03 2.7l.15-1.17c-1.08.28-2.35.15-3.46.19s-2.28.07-3.42.11-2.19.07-3.29.1c-.55.02-1.1.03-1.64.05s-1.24.16-1.68-.16c-.67-.49-1.31.63-.65 1.11.86.62 2.17.34 3.15.31l3.83-.12 3.83-.12c1.19-.04 2.5.07 3.66-.23.52-.13.64-.91.15-1.17-1.76-.94-3.52-1.88-5.27-2.82-1.63-.87-3.26-1.88-5.08-2.3a.65.65 0 0 0-.79.79c.62 2.73 1.17 5.47 1.65 8.22.08.48.76.61 1.07.28a78.31 78.31 0 0 0 6.66-8.1c.28-.39-.1-.99-.55-.97-4.54.2-7.64 4.19-12.02 4.84-.82.12-.47 1.36.34 1.24zM86.71 30.79c4.49-.03 8.97-.05 13.46-.08l-.32-1.2c-1.64 1.17-3.27 2.35-4.91 3.52-1.49 1.07-2.98 2.29-4.82 2.67l.81.62c.2-1.81.84-3.62 1.3-5.38s.94-3.6 1.41-5.39H92.4c.93 3.39 2.13 6.7 3.56 9.92l.73-.94c-3.51-.74-6.15-3.48-9.44-4.76-.77-.3-1.11.94-.34 1.24 3.31 1.29 5.9 4.01 9.44 4.76.58.12.95-.43.73-.94a66.585 66.585 0 0 1-3.43-9.61c-.17-.61-1.08-.62-1.24 0-.49 1.88-.99 3.77-1.48 5.65s-1.08 3.61-1.28 5.47c-.05.44.45.7.81.62 1.87-.39 3.39-1.56 4.91-2.65 1.71-1.22 3.42-2.45 5.12-3.67.49-.35.36-1.2-.32-1.2-4.49.03-8.97.05-13.46.08-.83 0-.83 1.29 0 1.29zM115.2 29.58c4.94-.18 9.64-2.16 14.6-2.1l-.32-1.2c-1.75 1.15-3.32 2.49-4.95 3.78s-3.68 2.02-5.72 2.65l.73.94a64.32 64.32 0 0 0 5.96-11.05h-1.24c1.17 3.47 2.22 6.98 3.15 10.52l.94-.73c-2.02-1.02-3.68-2.54-5.81-3.36s-4.3-1.08-6.5-.85c-.82.08-.82 1.37 0 1.29 2.09-.21 4.19.05 6.16.81s3.59 2.27 5.5 3.23c.49.25 1.09-.16.94-.73-.93-3.54-1.98-7.05-3.15-10.52-.22-.64-1-.57-1.24 0a63.818 63.818 0 0 1-5.83 10.75c-.31.47.21 1.1.73.94 2.03-.62 4.05-1.29 5.76-2.57s3.37-2.78 5.22-3.99c.53-.34.33-1.19-.32-1.2-4.97-.07-9.66 1.91-14.6 2.1-.82.03-.83 1.32 0 1.29zM148.09 28.04c5.16.06 10.28-.66 15.38-1.38l-.63-1.07c-3.41 3.16-7.92 4.66-12.45 5.27l.73.94c1.65-2.7 3.29-5.4 4.94-8.1l-1.01.13c1.11 1.25 2.1 2.59 2.96 4.03.21.35.41.7.61 1.06.17.32.32.84.56 1.09.04.04.53-.09.03.01-.24.05-.48.07-.73.06-.43-.01-.84-.11-1.25-.24-1.53-.49-2.91-1.38-4.42-1.93s-3.22-.93-4.89-1.11c-.82-.09-.82 1.2 0 1.29 2.1.22 4.15.79 6.06 1.69 1.63.77 3.35 1.81 5.23 1.53.65-.1 1.42-.34 1.38-1.15s-.79-1.8-1.19-2.49c-.98-1.7-2.14-3.28-3.44-4.75-.28-.32-.81-.2-1.01.13-1.65 2.7-3.29 5.4-4.94 8.1-.32.53.21 1.01.73.94 4.76-.65 9.45-2.3 13.02-5.6.52-.48-.05-1.16-.63-1.07-4.99.71-9.99 1.39-15.04 1.33-.83 0-.83 1.28 0 1.29zM42.89 44.21c-4.51 10.15-7.85 20.74-11.8 31.11-1.14 3-2.34 5.98-3.63 8.92-.16.38.39.7.55.32 4.46-10.17 7.79-20.77 11.76-31.12 1.15-3 2.36-5.97 3.66-8.91.17-.37-.39-.7-.55-.32z" fill="#fff"/><path d="M43.7 44.2c3.49-.68 7.54-1.43 10.82.39s4.59 5.58 4.01 9.05c-.63 3.73-3.18 6.8-6.33 8.75-.77.48-1.57.9-2.4 1.27-.45.2-.91.38-1.37.55-.29.11-.6.21-.8.47-.49.64.06 1.57.3 2.19a117.168 117.168 0 0 1 5.1 16.35c.09.4.71.23.62-.17a115.674 115.674 0 0 0-4.8-15.58c-.19-.48-.38-.95-.56-1.43-.07-.18-.18-.39-.19-.59-.02-.5.51-.62.89-.76 1.74-.67 3.41-1.55 4.9-2.68 2.85-2.17 5-5.36 5.36-8.98.33-3.28-1.05-6.75-3.82-8.63-3.49-2.36-8.04-1.58-11.91-.82-.41.08-.23.7.17.62zM70.25 77.25c2.65-2.89 4.23-6.49 5.49-10.16 1.39-4.07 2.6-8.2 4.13-12.22.41-1.08.83-2.16 1.27-3.24l.63-1.56c.25-.61.45-1.54 1.14-1.79.5-.18 1.08-.18 1.61-.23.6-.06 1.21-.12 1.81-.17.56-.05 1.13-.09 1.69-.12s1.35-.21 1.7.35c.57.92.55 2.22.55 3.26v27.28c0 .41.64.41.64 0V63.18v-7.74-3.74c0-1.11 0-2.26-.38-3.33-.27-.76-.7-1.26-1.54-1.29-1.19-.04-2.44.14-3.63.25-.92.09-2.21.02-3.03.53s-1.08 1.79-1.41 2.61c-1.79 4.42-3.38 8.88-4.81 13.43s-3 9.31-6.31 12.91c-.28.3.17.76.45.45z" fill="#fff"/><path d="M77.46 63.03h12.56c.41 0 .41-.64 0-.64H77.46c-.41 0-.41.64 0 .64zM105.89 78.18a58.46 58.46 0 0 1 6.02-23.81l-.5.07c1.52 1.61 3.1 3.16 4.75 4.63.82.74 1.66 1.46 2.52 2.16.41.34.83.67 1.25 1 .33.26.67.6 1.07.74.71.25 1.3-.23 1.69-.77.59-.8 1.08-1.69 1.65-2.51 1.21-1.73 2.55-3.37 4-4.91a44.27 44.27 0 0 1 5.33-4.82l-.47-.19c1.34 4.27 1.39 8.83 1.65 13.27s.54 9.27.81 13.9c.02.41.67.41.64 0-.28-4.72-.55-9.43-.83-14.15-.26-4.41-.32-8.94-1.66-13.19-.06-.18-.3-.32-.47-.19-3.03 2.32-5.76 5-8.11 8-.57.72-1.11 1.46-1.63 2.22s-.96 1.69-1.59 2.38c-.51.56-.95.3-1.46-.1-.42-.33-.84-.66-1.25-1-.8-.65-1.58-1.32-2.36-2a79.106 79.106 0 0 1-5.09-4.94c-.13-.14-.41-.12-.5.07a59.232 59.232 0 0 0-6.11 24.14c-.01.41.63.41.64 0zM158.04 49.37c-.96 9.99 2.06 19.85 3.02 29.73.02.16.13.33.32.32 2.06-.14 4.09-.58 6.01-1.35 1.67-.67 3.13-1.48 3.56-3.35.2-.88.24-1.81.24-2.71s-.16-1.77-.72-2.5c-.52-.68-1.25-1.16-1.93-1.66-.92-.66-1.84-1.32-2.77-1.96-2.12-1.48-4.27-2.92-6.42-4.36l.07.5c1.83-1.43 3.66-2.87 5.3-4.53 1.28-1.29 3.21-3.1 2.97-5.1-.12-1-.57-2.13-1.08-3a3.278 3.278 0 0 0-1.95-1.51c-2.02-.58-4.4.07-6.16 1.09-.36.21-.03.76.32.55 1.62-.94 3.81-1.56 5.67-1.03 1.01.29 1.56 1.06 1.95 1.99s.84 1.96.53 2.95c-.3.94-1.03 1.75-1.67 2.48s-1.28 1.38-1.97 2.02c-1.39 1.29-2.87 2.45-4.36 3.62-.17.14-.09.4.07.5 2.08 1.4 4.17 2.79 6.22 4.22 1.06.74 2.12 1.48 3.17 2.25.89.64 1.83 1.32 2.06 2.46.21 1.03.1 2.31-.1 3.34-.25 1.25-.93 2.03-2.05 2.6-2.14 1.08-4.56 1.66-6.95 1.82l.32.32c-.96-9.88-3.98-19.74-3.02-29.73.04-.41-.6-.41-.64 0zM196.84 52.22c-2.94-1.17-6.57.66-7.98 3.32-1.66 3.14-1.25 7.3.39 10.36.79 1.48 1.98 2.83 3.49 3.6 1.37.7 2.96.92 4.47.64s2.9-1.19 3.7-2.55c.49-.83.79-1.77 1.05-2.69.3-1.05.57-2.11.79-3.18s.49-2.26.32-3.39c-.15-1.03-.65-1.95-1.29-2.76-1.23-1.57-2.97-3.16-5.03-3.36-.41-.04-.41.6 0 .64 1.7.17 3.1 1.48 4.18 2.7.59.66 1.11 1.42 1.37 2.27.28.92.18 1.88 0 2.81-.34 1.83-.76 3.7-1.41 5.45-.56 1.5-1.54 2.71-3.08 3.23-1.32.45-2.77.4-4.08-.06-1.44-.51-2.63-1.6-3.47-2.86-1.75-2.64-2.34-6.3-1.37-9.33.54-1.66 1.6-2.99 3.15-3.79 1.4-.72 3.11-1.03 4.6-.43.38.15.55-.47.17-.62zM221.46 44.49c1.48 5.55 2.89 11.13 4.44 16.66.7 2.49 1.5 4.98 2.68 7.29.38.74.92 2.2 1.88 2.36.87.14 1.84-.95 2.39-1.49 1.67-1.62 2.89-3.62 4.14-5.57.31-.48.61-.95.93-1.42.22-.33.43-.71.85-.77s.66.22.91.52c.82 1.02 1.55 2.11 2.4 3.11s1.78 1.99 2.74 2.92c.43.41.86.82 1.31 1.21.38.33.79.79 1.3.9.95.22 1.48-.82 1.84-1.5.64-1.2 1.24-2.43 1.82-3.67a74.631 74.631 0 0 0 5.51-17.13c.08-.4-.54-.58-.62-.17-.96 4.99-2.42 9.87-4.38 14.56a62.75 62.75 0 0 1-1.65 3.65c-.26.55-.53 1.09-.81 1.63s-.54 1.23-.96 1.7c-.56.64-1.14-.03-1.59-.43s-.94-.85-1.39-1.29c-.88-.85-1.72-1.75-2.52-2.67-.85-.99-1.61-2.03-2.39-3.06-.48-.64-1.23-1.29-2.06-.8s-1.31 1.63-1.8 2.39c-.61.96-1.22 1.92-1.87 2.85s-1.35 1.8-2.16 2.59c-.4.39-.83.78-1.29 1.09-.78.52-1.16-.36-1.5-.95-1.26-2.21-2.11-4.62-2.82-7.05-1.71-5.83-3.15-11.76-4.71-17.63-.11-.4-.73-.23-.62.17zM38.36 40.41c-4.2 3.14-8.4 6.29-12.59 9.43l-6.2 4.64-3 2.25c-.94.7-2.02 1.37-2.81 2.24C12.39 60.5 12 63 11.42 64.91c-.73 2.36-1.41 4.75-1.93 7.17-.99 4.63-1.21 9.35-1.44 14.06-.27 5.42-.64 10.87-2.51 16.02-.13.35.15.67.45.79 1.63.66 3.44 1.33 5.23.98s2.86-1.79 4.07-3.03c2.82-2.89 6.05-5.31 9.58-7.26l-.78-.1c1.38 1.35 1.44 3.4 2.11 5.11.63 1.61 1.75 2.72 3.34 3.41 3.69 1.6 8.27 2.08 11.78-.18 1.67-1.08 3.04-2.54 4.3-4.06.62-.74 1.27-1.89 2.19-2.29 1.56-.67 1.46 1.23 2.21 2.03 1.03 1.1 3.15 1.31 4.56 1.28 1.65-.03 3.29-.48 4.73-1.27 1.7-.93 3.03-2.33 3.94-4.03.84-1.57 1.67-4.22 3.74-4.46l-.62-.81c-1.12 4.26 1.78 8.93 6.04 9.99 4.6 1.14 9.25-1.94 10.9-6.17l-1.26-.17c.44 3.3.87 6.6 1.31 9.89.06.45.36.69.81.62l10.77-1.65c.81-.12.47-1.36-.34-1.24l-10.77 1.65.81.62c-.44-3.3-.87-6.6-1.31-9.89-.09-.72-.99-.87-1.26-.17-1.39 3.58-5.44 6.23-9.32 5.28-3.58-.88-6.09-4.82-5.14-8.41.1-.36-.19-.86-.62-.81-3.38.39-3.94 4.14-5.68 6.42-1.13 1.48-2.77 2.51-4.55 3.01-1.53.43-4.24.7-5.61-.38-.7-.56-.57-1.66-1.26-2.27-.5-.44-1.22-.57-1.86-.47-1.76.28-2.78 2.17-3.83 3.4-1.35 1.57-2.87 3.09-4.79 3.95-2.27 1.01-4.78.77-7.12.17s-4.35-1.55-5.13-4.09c-.53-1.75-.81-3.56-2.17-4.89a.666.666 0 0 0-.78-.1 42.382 42.382 0 0 0-8.3 5.96c-1.26 1.16-2.4 2.87-3.86 3.75-1.79 1.07-3.97.17-5.72-.54l.45.79c3.16-8.7 2.04-18.06 3.4-27.06.71-4.71 2.13-9.31 3.63-13.81.83-2.47 3.41-3.79 5.41-5.29s4.13-3.09 6.2-4.64c4.53-3.39 9.06-6.79 13.59-10.18.65-.49.01-1.61-.65-1.11zM65.24 52.08c4.62-1.87 8.78-4.67 12.64-7.8.64-.52-.27-1.43-.91-.91-3.68 2.98-7.67 5.69-12.07 7.47-.76.31-.43 1.55.34 1.24zM95.44 53.83c2.26-.74 4.44-1.74 6.45-3.02 1.01-.64 1.93-1.39 2.91-2.07s2.12-1.1 3.31-1.44c.79-.23.46-1.47-.34-1.24-1.13.33-2.25.69-3.25 1.33s-1.9 1.42-2.89 2.07a27.375 27.375 0 0 1-6.52 3.13c-.78.25-.45 1.5.34 1.24z" fill="#fff"/><path d="M95.75 100.46c1.96-2.6 3.93-5.2 5.89-7.8.93-1.23 1.86-2.47 2.8-3.7.83-1.09 1.78-2.4 3.12-2.88 1.18-.41 2.45.14 3.62-.36s1.99-1.61 2.83-2.5c2.26-2.39 4.53-4.78 6.79-7.17l-1.07-.28c1.11 2.77 2.23 5.54 3.34 8.31.56 1.39 1.11 2.77 1.67 4.16.48 1.19.84 2.58 1.49 3.68 1.14 1.91 3.34.08 4.59-.76 2.11-1.41 4.04-3.07 5.78-4.92l-1.01-.13c1.57 3.64 2.97 7.42 4.73 10.96.66 1.33 1.66 1.37 3.03 1.54 1.89.24 3.8.38 5.7.42s3.66 0 5.48-.15c1.69-.13 3.53-.2 5.15-.75 2.77-.95 3.65-3.94 6.03-5.37.71-.43.06-1.54-.65-1.11-2.08 1.25-2.97 3.82-5.09 4.96-1.52.82-3.53.83-5.21.96s-3.33.19-5 .18-3.18-.1-4.76-.25c-.83-.08-2.1-.02-2.85-.35s-.92-1.17-1.22-1.88c-1.41-3.27-2.83-6.55-4.24-9.82-.16-.38-.75-.4-1.01-.13-1.42 1.51-2.96 2.9-4.65 4.11-.77.55-1.61 1.25-2.49 1.62-.35.29-.75.35-1.22.2-.15-.35-.29-.71-.44-1.07-.22-.54-.43-1.08-.65-1.62-1.76-4.39-3.53-8.78-5.29-13.16-.17-.42-.71-.67-1.07-.28-2.26 2.39-4.53 4.78-6.79 7.17-1.17 1.24-2.02 2.43-3.87 2.34-1.26-.07-2.3.14-3.34.9-2.14 1.56-3.64 4.19-5.21 6.27l-6.04 7.99c-.5.66.62 1.3 1.11.65zM138.39 48.36l1.89 2.27c.53.64 1.07 1.52 1.78 1.98 1.27.83 3.11-.47 4.2-1.14 2.63-1.61 5.11-4 8.29-4.39.81-.1.82-1.39 0-1.29-2.9.36-5.2 2.06-7.55 3.66-.59.4-1.18.79-1.8 1.15-.55.32-1.37.9-2.01.97-.82.08-1.64-1.41-2.1-1.96l-1.8-2.16c-.53-.64-1.43.28-.91.91zM174.04 61.29c3.21-2.19 5.59-5.24 8.07-8.19 1.22-1.45 2.49-2.88 3.91-4.14 1.62-1.44 3.55-2.79 5.82-2.67.83.05.82-1.24 0-1.29-4.11-.23-7.44 3.49-9.9 6.32-2.69 3.1-5.12 6.52-8.56 8.86-.68.46-.04 1.58.65 1.11zM202.79 50.17c1.03-.27 1.95-.85 2.82-1.43 1.07-.71 2.14-1.41 3.23-2.1 2.5-1.6 4.99-3.21 7.49-4.81.69-.45.05-1.56-.65-1.11-2.42 1.55-4.85 3.11-7.27 4.66-1.04.67-2.09 1.33-3.11 2.02-.88.59-1.81 1.25-2.85 1.52-.8.21-.46 1.45.34 1.24zM228.03 49.3c3.15 1.03 6.34-.38 8.79-2.36 2.97-2.39 5.29-5.51 9.02-6.79 1.85-.64 3.78-.63 5.68-1.02.93-.19 1.84-.45 2.8-.42 1.12.03 2.21.42 3.26.77.82.28 1.66.57 2.35 1.11.98.77 1.1 1.89 1.15 3.06.1 2.17.16 4.35.09 6.52-.14 4.41-1.34 8.36-2.76 12.5-1.3 3.82-2.93 7.63-3.33 11.67-.11 1.13-.34 1.97-1.16 2.78-.73.71-1.63 1.25-2.44 1.84a95.698 95.698 0 0 0-4.37 3.37 87.797 87.797 0 0 0-8.66 8.04c-.76.81-1.51 1.64-2.24 2.48-.64.74-1.32 1.88-2.27 2.21-1.98.69-4.63-1.36-6.16-2.44-1.2-.84-2.88-3.04-4.58-2.37-.71.28-1.33.93-1.91 1.4-.95.76-1.91 1.52-2.86 2.28-.65.52.27 1.42.91.91l2.5-1.99c.36-.28.71-.57 1.07-.85.92-.72 1.54-.36 2.32.28 1.54 1.26 3.18 2.41 4.96 3.31 1.31.66 2.9 1.26 4.33.65 1.58-.67 2.67-2.58 3.78-3.81 2.74-3.03 5.72-5.86 8.86-8.47 1.67-1.39 3.39-2.73 5.15-4.01 1.31-.95 2.89-1.85 3.6-3.37.33-.71.39-1.46.46-2.23.12-1.26.35-2.45.71-3.67.62-2.12 1.4-4.2 2.11-6.29 1.44-4.2 2.9-8.29 3.2-12.76.14-2.17.1-4.35.03-6.52-.06-1.69.09-3.67-1.13-5.01-1.07-1.18-2.75-1.67-4.21-2.12-1.92-.6-3.53-.59-5.48-.17-2.18.47-4.4.46-6.51 1.26-1.98.75-3.67 1.94-5.23 3.35-3.1 2.8-6.76 7.19-11.48 5.65-.79-.26-1.13.98-.34 1.24z" fill="#fff"/><path d="M165.36 92.84c2 1.13 4 2.26 6.01 3.37 1.81 1.01 3.7 1.99 5.74 2.44 1.8.39 3.18.13 4.51-1.18 1.46-1.44 2.7-3.09 3.99-4.67.72-.89 3.24-4.53 4.39-3.98.74.35 1.52 1.37 2.18 1.88.81.62 1.65 1.19 2.54 1.7 1.72.98 3.84 1.44 5.07 3.08 1.12 1.5 2.5 1.57 4.3 1.67 4.98.27 9.98-.48 14.69-2.1.78-.27.44-1.51-.34-1.24-4.1 1.42-8.39 2.15-12.73 2.11-1-.01-2-.04-2.99-.15-1.28-.14-1.67-.98-2.48-1.8-1.2-1.22-3.02-1.67-4.49-2.47-1.78-.97-3.25-2.21-4.76-3.53-1.3-1.14-2.24-.42-3.31.63-1.37 1.33-2.56 2.82-3.76 4.3-.58.71-1.16 1.43-1.76 2.12-.67.78-1.47 1.9-2.42 2.35-1.14.54-2.66.01-3.77-.37s-2.25-.96-3.33-1.55c-2.22-1.2-4.41-2.47-6.61-3.7-.72-.41-1.37.7-.65 1.11zM30.86 42.23c1.65 0 1.66-2.57 0-2.57s-1.66 2.57 0 2.57zM25.36 44.31c1.65 0 1.66-2.57 0-2.57s-1.66 2.57 0 2.57zM20.24 47.91c1.65 0 1.66-2.57 0-2.57s-1.66 2.57 0 2.57zM14.17 53.41c1.65 0 1.66-2.57 0-2.57s-1.66 2.57 0 2.57zM7.15 54.17c1.65 0 1.66-2.57 0-2.57s-1.66 2.57 0 2.57zM6.92 58.85a5.508 5.508 0 0 0-2.31 5.75c.14.66.94 1.1 1.58.9.69-.22 1.05-.88.9-1.58-.03-.12-.05-.24-.07-.37l.05.34c-.04-.35-.04-.7 0-1.05l-.05.34c.06-.37.16-.73.3-1.08l-.13.31c.07-.17.16-.34.25-.5l.15-.24.07-.1c.08-.12-.22.27-.07.09.11-.13.23-.27.36-.39l.21-.18c.16-.13-.21.15-.09.07.04-.03.09-.06.13-.09.56-.37.85-1.15.46-1.76-.36-.56-1.16-.86-1.76-.46zM4.69 107.08c1.65 0 1.66-2.57 0-2.57s-1.66 2.57 0 2.57zM10.57 111.44c1.65 0 1.66-2.57 0-2.57s-1.66 2.57 0 2.57zM14.36 108.79c1.65 0 1.66-2.57 0-2.57s-1.66 2.57 0 2.57zM21.19 104.05c1.65 0 1.66-2.57 0-2.57s-1.66 2.57 0 2.57zM25.74 105.95c1.65 0 1.66-2.57 0-2.57s-1.66 2.57 0 2.57zM30.48 108.98c1.65 0 1.66-2.57 0-2.57s-1.66 2.57 0 2.57zM38.07 108.6c1.65 0 1.66-2.57 0-2.57s-1.66 2.57 0 2.57zM43.56 106.32c1.65 0 1.66-2.57 0-2.57s-1.66 2.57 0 2.57zM50.39 107.08c1.65 0 1.66-2.57 0-2.57s-1.66 2.57 0 2.57zM56.08 105.19c1.65 0 1.66-2.57 0-2.57s-1.66 2.57 0 2.57zM64.8 105.95c1.65 0 1.66-2.57 0-2.57s-1.66 2.57 0 2.57zM67.88 104.37l4.53 1.2c.65.17 1.43-.22 1.58-.9s-.2-1.4-.9-1.58l-4.53-1.2c-.65-.17-1.43.22-1.58.9s.2 1.4.9 1.58zM83.2 108.22c1.65 0 1.66-2.57 0-2.57s-1.66 2.57 0 2.57zM85.86 109.36c1.65 0 1.66-2.57 0-2.57s-1.66 2.57 0 2.57zM97.04 107.65c1.65 0 1.66-2.57 0-2.57s-1.66 2.57 0 2.57zM101.03 103.86c1.65 0 1.66-2.57 0-2.57s-1.66 2.57 0 2.57zM105.58 100.07c1.65 0 1.66-2.57 0-2.57s-1.66 2.57 0 2.57zM108.42 93.24c1.65 0 1.66-2.57 0-2.57s-1.66 2.57 0 2.57zM117.15 90.02c1.65 0 1.66-2.57 0-2.57s-1.66 2.57 0 2.57zM122.84 94.19c1.65 0 1.66-2.57 0-2.57s-1.66 2.57 0 2.57zM122.84 100.82c1.65 0 1.66-2.57 0-2.57s-1.66 2.57 0 2.57zM125.68 103.29c1.65 0 1.66-2.57 0-2.57s-1.66 2.57 0 2.57zM65.18 39.19c1.65 0 1.66-2.57 0-2.57s-1.66 2.57 0 2.57zM70.87 42.41c1.65 0 1.66-2.57 0-2.57s-1.66 2.57 0 2.57zM76.75 40.33c1.65 0 1.66-2.57 0-2.57s-1.66 2.57 0 2.57zM81.3 40.52c1.65 0 1.66-2.57 0-2.57s-1.66 2.57 0 2.57zM86.04 40.14c1.65 0 1.66-2.57 0-2.57s-1.66 2.57 0 2.57zM101.97 39.19c1.65 0 1.66-2.57 0-2.57s-1.66 2.57 0 2.57zM113.92 39.57c1.65 0 1.66-2.57 0-2.57s-1.66 2.57 0 2.57zM119.8 40.14c1.65 0 1.66-2.57 0-2.57s-1.66 2.57 0 2.57zM123.4 42.98c1.65 0 1.66-2.57 0-2.57s-1.66 2.57 0 2.57zM128.34 40.71c1.65 0 1.66-2.57 0-2.57s-1.66 2.57 0 2.57zM138.77 37.86c1.65 0 1.66-2.57 0-2.57s-1.66 2.57 0 2.57zM148.25 37.67c1.65 0 1.66-2.57 0-2.57s-1.66 2.57 0 2.57zM153.37 39c1.65 0 1.66-2.57 0-2.57s-1.66 2.57 0 2.57zM162.09 38.81c1.65 0 1.66-2.57 0-2.57s-1.66 2.57 0 2.57zM168.54 39.38c1.65 0 1.66-2.57 0-2.57s-1.66 2.57 0 2.57zM171.19 39.38c1.65 0 1.66-2.57 0-2.57s-1.66 2.57 0 2.57zM198.88 38.62c1.65 0 1.66-2.57 0-2.57s-1.66 2.57 0 2.57zM207.42 38.62c1.65 0 1.66-2.57 0-2.57s-1.66 2.57 0 2.57zM236.43 36.16c1.65 0 1.66-2.57 0-2.57s-1.66 2.57 0 2.57zM244.21 31.23c1.65 0 1.66-2.57 0-2.57s-1.66 2.57 0 2.57zM252.74 31.23c1.65 0 1.66-2.57 0-2.57s-1.66 2.57 0 2.57zM260.52 34.64c1.65 0 1.66-2.57 0-2.57s-1.66 2.57 0 2.57zM264.69 71.81c1.65 0 1.66-2.57 0-2.57s-1.66 2.57 0 2.57zM262.03 79.96c1.65 0 1.66-2.57 0-2.57s-1.66 2.57 0 2.57zM259.19 85.84c1.65 0 1.66-2.57 0-2.57s-1.66 2.57 0 2.57zM256.53 89.07c1.65 0 1.66-2.57 0-2.57s-1.66 2.57 0 2.57zM255.21 92.86c1.65 0 1.66-2.57 0-2.57s-1.66 2.57 0 2.57zM254.07 98.17c1.65 0 1.66-2.57 0-2.57s-1.66 2.57 0 2.57zM245.72 100.45c1.65 0 1.66-2.57 0-2.57s-1.66 2.57 0 2.57zM240.79 105c1.65 0 1.66-2.57 0-2.57s-1.66 2.57 0 2.57zM233.97 105c1.65 0 1.66-2.57 0-2.57s-1.66 2.57 0 2.57zM230.17 103.86c1.65 0 1.66-2.57 0-2.57s-1.66 2.57 0 2.57zM218.79 103.29c1.65 0 1.66-2.57 0-2.57s-1.66 2.57 0 2.57zM212.54 103.67c1.65 0 1.66-2.57 0-2.57s-1.66 2.57 0 2.57zM201.73 102.15c1.65 0 1.66-2.57 0-2.57s-1.66 2.57 0 2.57zM191.49 104.62c1.65 0 1.66-2.57 0-2.57s-1.66 2.57 0 2.57zM183.71 102.24h-1.14c-.18 0-.34.03-.5.11a.87.87 0 0 0-.41.27c-.13.12-.21.25-.27.41-.08.15-.12.32-.11.5l.05.34c.06.22.17.41.33.57l.26.2c.2.12.42.17.65.18h1.14c.18 0 .34-.03.5-.11.16-.05.3-.14.41-.27.13-.12.21-.25.27-.41.08-.15.12-.32.11-.5l-.05-.34c-.06-.22-.17-.41-.33-.57l-.26-.2c-.2-.12-.42-.17-.65-.18zM166.83 102.91c1.65 0 1.66-2.57 0-2.57s-1.66 2.57 0 2.57zM159.44 105c1.65 0 1.66-2.57 0-2.57s-1.66 2.57 0 2.57zM150.71 106.13c1.65 0 1.66-2.57 0-2.57s-1.66 2.57 0 2.57zM145.59 105.57c1.65 0 1.66-2.57 0-2.57s-1.66 2.57 0 2.57zM139.33 105.57c1.65 0 1.66-2.57 0-2.57s-1.66 2.57 0 2.57zM133.46 102.91c1.65 0 1.66-2.57 0-2.57s-1.66 2.57 0 2.57zM33.3 52.54c-.79.03-1.41.5-2.05.92-.75.49-1.5.98-2.25 1.48-1.53 1-3.05 2-4.58 3-3.08 2.02-6.16 4.04-9.24 6.05-.29.19-.02.65.27.46 2.98-1.95 5.96-3.9 8.94-5.86 1.48-.97 2.95-1.94 4.43-2.9.75-.49 1.5-.98 2.25-1.48.66-.43 1.41-1.11 2.23-1.14.34-.01.35-.55 0-.54zM28.48 60.7c-5.35 3.53-10.84 6.83-16.46 9.91-.3.17-.03.63.27.46 5.62-3.08 11.11-6.38 16.46-9.91.29-.19.02-.65-.27-.46zM25.24 70.44c-5.21 3.37-10.3 6.9-15.28 10.59-.27.2 0 .67.27.46 4.98-3.69 10.08-7.23 15.28-10.59.29-.19.02-.65-.27-.46zM21.14 79.49c-3.73.92-7.27 2.56-10.38 4.84-.28.2 0 .67.27.46a28.98 28.98 0 0 1 10.25-4.78c.33-.08.19-.6-.14-.52zM21.03 84.19c-3.24 2-6.47 4.01-9.71 6.01-.29.18-.02.64.27.46 3.24-2 6.47-4.01 9.71-6.01.29-.18.02-.64-.27-.46zM23.63 89.1a102.418 102.418 0 0 0-14.14 9.85c-.27.22.11.6.38.38a102.273 102.273 0 0 1 14.03-9.77c.3-.17.03-.64-.27-.46zM45.84 80c-3.08 1.92-6.11 3.91-9.1 5.99-.28.2-.01.66.27.46 2.98-2.07 6.01-4.07 9.1-5.99.29-.18.02-.64-.27-.46zM47.26 84.85c-4.23 3.03-8.36 6.21-12.37 9.52-1.14.94-2.27 1.89-3.39 2.86-.26.22.12.6.38.38 3.91-3.36 7.94-6.59 12.07-9.68 1.18-.88 2.38-1.76 3.58-2.62.28-.2.01-.66-.27-.46zM54.86 86.66c-1.21-.07-2.23.85-3.14 1.52-1.02.76-2.03 1.53-3.02 2.33a87.571 87.571 0 0 0-5.87 5.2 86.89 86.89 0 0 0-3.15 3.22c-.23.25.14.63.38.38 3.44-3.7 7.19-7.1 11.22-10.14.56-.42 1.12-.84 1.69-1.24s1.17-.78 1.88-.74c.34.02.34-.51 0-.54zM72.58 52.5c-2.02 1.36-4 2.79-5.94 4.28-.55.43-1.1.86-1.65 1.3-.11.09-.09.28 0 .38.11.11.27.09.38 0 2.42-1.93 4.91-3.77 7.48-5.5.28-.19.02-.66-.27-.46zM71 57.81l-12.64 9.37c-.27.2 0 .67.27.46l12.64-9.37c.27-.2 0-.67-.27-.46zM68.57 66.63a82.59 82.59 0 0 0-10.85 6.66c-.28.2 0 .66.27.46a82.59 82.59 0 0 1 10.85-6.66c.31-.16.04-.62-.27-.46zM64.51 83.97a91.184 91.184 0 0 0-13.73 12.26c-.23.25.15.63.38.38 3.2-3.5 6.66-6.74 10.37-9.7 1.07-.85 2.15-1.68 3.25-2.48.28-.2 0-.67-.27-.46zM83.41 70.82c-.72.21-1.32.63-1.92 1.07-.64.48-1.27.96-1.91 1.45-1.29 1-2.57 2.02-3.83 3.06-.72.59-1.43 1.19-2.14 1.8-.26.22.12.6.38.38 2.42-2.07 4.9-4.06 7.44-5.98.66-.5 1.32-1.04 2.12-1.27.33-.1.19-.61-.14-.52zM85.84 74.62c-4.86 4.33-9.51 8.9-13.94 13.67-1.25 1.35-2.48 2.71-3.69 4.09-.23.26.15.64.38.38 4.3-4.89 8.82-9.58 13.57-14.04 1.34-1.26 2.69-2.5 4.06-3.72.26-.23-.12-.61-.38-.38zM86.59 82.14c-4.38 2.99-8.47 6.4-12.18 10.2a80.166 80.166 0 0 0-3.06 3.32c-.23.26.15.64.38.38 3.47-3.98 7.33-7.62 11.52-10.83 1.18-.9 2.38-1.77 3.61-2.6.28-.19.02-.66-.27-.46zM99.82 82.41a201.255 201.255 0 0 0-15.97 15.23c-.24.25.14.63.38.38a201.309 201.309 0 0 1 15.97-15.24c.26-.22-.12-.6-.38-.38zM102.2 85.08c-4.23 3.47-8.49 6.96-12.16 11.03-1.03 1.14-2 2.32-2.91 3.55-.21.28.26.54.46.27 3.24-4.36 7.28-8.05 11.43-11.54 1.18-.99 2.37-1.96 3.56-2.94.27-.22-.11-.6-.38-.38zM104.99 54.2a28.41 28.41 0 0 0-3.99 2.9c-1.31 1.15-2.5 2.44-3.72 3.68-.73.74-1.45 1.49-2.18 2.23-.24.25.14.63.38.38l3.77-3.86c1.16-1.19 2.36-2.32 3.69-3.32.75-.56 1.52-1.07 2.32-1.55.3-.18.03-.64-.27-.46zM103.03 61.02c-1.06.49-1.96 1.25-2.87 1.96l-3 2.34c-.57.44-1.14.89-1.71 1.33-.11.09-.09.28 0 .38.11.11.27.09.38 0 .98-.77 1.96-1.53 2.94-2.3s1.92-1.53 2.9-2.26c.51-.38 1.05-.73 1.63-1 .31-.14.04-.6-.27-.46zM103.07 65.67a77.922 77.922 0 0 1-5.55 5.2c-.55.47-1.11.93-1.68 1.38-.11.09-.09.28 0 .38.11.11.27.09.38 0a75.608 75.608 0 0 0 7.23-6.57c.24-.25-.14-.63-.38-.38zM101.55 72.92c-1.85 1.7-3.72 3.37-5.63 5-.55.47-1.1.93-1.65 1.39-.26.22.12.6.38.38 1.93-1.61 3.82-3.26 5.69-4.94.53-.48 1.06-.97 1.59-1.45.25-.23-.13-.61-.38-.38zM118.7 69.37c-1.36 1.33-2.72 2.66-4.08 3.98-.39.38-.77.76-1.16 1.13-.25.24.13.62.38.38 1.36-1.33 2.72-2.66 4.08-3.98.39-.38.77-.76 1.16-1.13.25-.24-.13-.62-.38-.38zM131.03 66.89c-3.09 3.91-6.18 7.81-9.27 11.72-.21.27.16.65.38.38 3.09-3.91 6.18-7.81 9.27-11.72.21-.27-.16-.65-.38-.38zM131.99 76.31a116.06 116.06 0 0 0-6.77 5.75c-.63.57-1.25 1.16-1.86 1.74-.25.24.13.62.38.38 2.14-2.05 4.36-4.01 6.65-5.89.66-.54 1.32-1.07 1.99-1.6.27-.21-.11-.59-.38-.38zM133.54 81.51a32.802 32.802 0 0 0-5.97 4.37c-.52.48-1.02.98-1.51 1.49-.24.25.14.63.38.38a32.201 32.201 0 0 1 7.38-5.77c.3-.17.03-.63-.27-.46zM153.59 50.97c-4.05 3-8.16 5.93-12.15 9-1.04.8-2.04 1.63-2.96 2.57-.24.25.14.62.38.38 1.66-1.68 3.59-3.04 5.48-4.44 2.03-1.51 4.07-3.01 6.1-4.52 1.14-.84 2.28-1.69 3.42-2.53.27-.2 0-.67-.27-.46zM154.75 56.79c-3.94 3.54-8 6.96-12.15 10.24-1.2.94-2.4 1.88-3.61 2.8-.27.21 0 .67.27.46a256.6 256.6 0 0 0 12.45-10.11c1.15-1 2.29-2 3.42-3.02.26-.23-.12-.61-.38-.38zM155.57 64.67c-3.66 3.53-7.55 6.82-11.65 9.82-1.17.86-2.36 1.69-3.56 2.51-.28.19-.02.66.27.46a113.021 113.021 0 0 0 15.32-12.42c.25-.24-.13-.62-.38-.38zM156.2 72.91c-4.5 2.52-8.83 5.36-12.92 8.5-1.14.88-2.27 1.78-3.38 2.71-.26.22.12.6.38.38a106.142 106.142 0 0 1 16.19-11.12c.3-.17.03-.63-.27-.46zM156.45 75.96c-1.8.75-3.45 1.78-5.05 2.9-1.7 1.2-3.36 2.45-5.04 3.69-1 .74-2 1.47-3 2.21-.27.2 0 .67.27.46 2.19-1.61 4.37-3.22 6.56-4.83 2.01-1.48 4.07-2.94 6.39-3.91.31-.13.18-.65-.14-.52zM157.45 81.08c-3.41 3.71-6.98 7.27-10.7 10.67-1.07.97-2.15 1.94-3.24 2.88-.26.23.12.6.38.38 3.8-3.3 7.46-6.77 10.96-10.39 1-1.04 1.99-2.09 2.97-3.16.23-.25-.14-.63-.38-.38zM164.2 84.07c-3.35 3.47-7.49 6.04-10.89 9.46-.95.96-1.83 1.98-2.61 3.09-.2.28.26.55.46.27 2.77-3.93 6.84-6.64 10.47-9.71 1.02-.86 2.01-1.76 2.94-2.73.24-.25-.14-.63-.38-.38zM173.25 81.05a131.126 131.126 0 0 0-13.92 15.63c-.21.27.26.54.46.27 3.26-4.31 6.79-8.41 10.56-12.28 1.07-1.1 2.17-2.18 3.28-3.24.25-.24-.13-.62-.38-.38zM182.43 57.34a35.947 35.947 0 0 0-4.55 3.71c-.4.39-.79.78-1.17 1.19-.24.25.14.63.38.38 1.31-1.4 2.74-2.7 4.28-3.86.44-.33.88-.65 1.33-.96.12-.08.17-.23.1-.37-.07-.12-.25-.18-.37-.1zM183.71 63.03c-1.04 1.12-2.09 2.23-3.13 3.35l-.9.96c-.23.25.14.63.38.38 1.04-1.12 2.09-2.23 3.13-3.35l.9-.96c.23-.25-.14-.63-.38-.38zM184.05 67.11a77.39 77.39 0 0 0-6.44 7.34c-.56.72-1.11 1.45-1.64 2.2-.2.28.26.55.46.27 1.89-2.61 3.93-5.11 6.12-7.47.62-.66 1.24-1.32 1.88-1.96.24-.24-.14-.62-.38-.38z" fill="#fff"/><path d="M187.53 71.19a1688.825 1688.825 0 0 0-18.81 21.85c-.22.26.16.64.38.38 4.84-5.72 9.72-11.41 14.64-17.07 1.39-1.6 2.78-3.19 4.18-4.78.23-.26-.15-.64-.38-.38zM190.01 73.22c-4.41 5.35-8.82 10.71-13.23 16.06l-3.8 4.61c-.22.26.16.64.38.38 4.41-5.35 8.82-10.71 13.23-16.06l3.8-4.61c.22-.26-.16-.64-.38-.38zM194.02 75.64c-3.9 5.83-8 11.53-12.3 17.07-1.21 1.56-2.44 3.11-3.68 4.64-.21.27.16.65.38.38a296.17 296.17 0 0 0 12.67-16.84c1.15-1.65 2.28-3.31 3.4-4.98.19-.29-.27-.56-.46-.27zM215.24 47.52c-1.09.1-1.95.88-2.79 1.5-.97.72-1.94 1.44-2.9 2.16-.55.42-1.11.83-1.66 1.25-.12.09-.17.23-.1.37.06.11.25.18.37.1 1.2-.91 2.4-1.81 3.61-2.71.59-.44 1.18-.87 1.77-1.31.51-.37 1.06-.76 1.7-.83.34-.03.34-.57 0-.54zM217.44 52.15c-2.45 2.06-4.95 4.09-7.2 6.38-.64.65-1.25 1.32-1.84 2.02-.22.26.16.64.38.38 2.05-2.44 4.45-4.54 6.87-6.58.72-.61 1.44-1.21 2.16-1.82.26-.22-.12-.6-.38-.38zM218.78 59.13c-2.52 2.23-5.04 4.46-7.55 6.69l-2.13 1.89c-.26.23.12.61.38.38 2.52-2.23 5.04-4.46 7.55-6.69l2.13-1.89c.26-.23-.12-.61-.38-.38zM220.2 65.82c-1.93.57-3.48 1.86-4.94 3.2-1.76 1.62-3.51 3.26-5.25 4.9-3.55 3.34-7.08 6.72-10.61 10.1-2.01 1.93-4.02 3.87-6.03 5.8-.25.24.13.62.38.38 6.85-6.6 13.71-13.2 20.68-19.68 1.76-1.64 3.54-3.48 5.91-4.19.33-.1.19-.61-.14-.52zM220.53 72.52c-5.82 4.5-9.64 10.95-15.09 15.83-1.55 1.39-3.23 2.62-5.06 3.6-.3.16-.03.62.27.46 6.58-3.52 10.72-9.97 15.7-15.28 1.42-1.52 2.92-2.95 4.56-4.22.27-.21-.11-.59-.38-.38zM224.91 77.76a150.27 150.27 0 0 0-12.44 13.54c-1.08 1.32-2.13 2.67-3.16 4.02-.21.27.26.54.46.27 3.68-4.84 7.65-9.47 11.89-13.83 1.19-1.23 2.4-2.43 3.63-3.62.25-.24-.13-.62-.38-.38zM231.9 78.83c-2.22 3.09-4.44 6.19-6.66 9.28-.2.28.26.55.46.27 2.22-3.09 4.44-6.19 6.66-9.28.2-.28-.26-.55-.46-.27zM242.23 72.79c-3.91 5.04-6.38 11.01-10.17 16.13a28.559 28.559 0 0 1-3.63 4.07c-.25.23.13.61.38.38 4.72-4.33 7.43-10.24 10.71-15.63.95-1.57 1.96-3.11 3.09-4.56.21-.27-.17-.65-.38-.38zM245.44 79.53a178.206 178.206 0 0 1-10.29 12.81c-.23.26.15.64.38.38a177.516 177.516 0 0 0 10.37-12.91c.2-.28-.26-.55-.46-.27zM250.25 41.61c-2.88 1.21-5.35 3.13-7.77 5.08l-8.28 6.63c-1.58 1.27-3.17 2.54-4.75 3.81-.27.22.11.59.38.38 2.69-2.15 5.37-4.3 8.06-6.46s5.19-4.29 7.91-6.25c1.44-1.04 2.96-1.98 4.6-2.67.31-.13.18-.65-.14-.52zM248.03 47.57c-2.12 1.61-4.25 3.22-6.37 4.84-.11.09-.18.23-.1.37.07.11.25.18.37.1 2.12-1.61 4.25-3.22 6.37-4.84.11-.09.18-.23.1-.37-.07-.11-.25-.18-.37-.1z" fill="#fff"/><path d="M215.42 41.59c2.72 9.91 3.32 20.29 6.3 30.13.35 1.17.72 2.35 1.17 3.48.3.76.64 1.41 1.45 1.71 1.02.38 2.3.35 3.37.49 1.28.16 2.67.5 3.96.46 1.88-.06 3.1-2.6 3.95-4 .57-.96 1.03-1.96 1.56-2.94.63-1.15 2.47-3.19 3.61-1.26.66 1.12.91 2.57 1.42 3.76.42.99.87 2.34 1.66 3.1.75.73 1.96.57 2.91.58 1.56.01 3.12-.06 4.67-.19.37-.03.61-.27.64-.64.35-3.56 1.56-6.93 2.87-10.23s2.6-6.6 3.71-9.97c.55-1.68 1.08-3.37 1.56-5.07.41-1.46.16-2.36-.6-3.65-1.75-2.94-3.78-5.72-5.99-8.34-.35-.41-.91-.12-1.07.28a64.706 64.706 0 0 0-3.87 12.92c-.41 2.2-.69 4.42-1.06 6.63-.19 1.1-.39 2.2-.65 3.29-.07.31-.15.62-.23.93l.23-.19c-.34-.53-.53-1.25-.78-1.83-.45-1.07-.91-2.14-1.36-3.21-.31-.72-.57-1.63-1.16-2.2-1.25-1.19-3.75-.88-5.31-.79-.77.05-1.51.09-2.13.58-.67.52-1.13 1.36-1.62 2.04-1.45 1.97-2.89 3.95-4.34 5.92h1.11c-3.08-5.6-3.52-12.19-4.31-18.41-.21-1.62-.41-3.24-.62-4.86-.11-.86-.12-1.8-1.14-2-1.21-.24-2.94.53-4.1.85-1.7.47-3.37 1.02-5.03 1.64-.77.29-.44 1.53.34 1.24a60.988 60.988 0 0 1 6.42-2.01c.39-.1.78-.19 1.17-.28.44-.1.56-.23.86.08.4.41.36 1.87.43 2.42.09.73.18 1.46.28 2.19.19 1.53.39 3.06.58 4.59.66 5.23 1.42 10.51 3.99 15.19.25.46.84.37 1.11 0 1.35-1.84 2.7-3.69 4.05-5.53.37-.51.72-1.12 1.16-1.58.58-.61.97-.74 1.78-.8 1.06-.08 2.35-.15 3.41.07 1.44.29 1.64 1.54 2.15 2.74.45 1.07.91 2.14 1.36 3.21.34.8 1.05 3.05 2.32 1.92.53-.47.58-1.41.73-2.06.25-1.09.44-2.19.62-3.3.36-2.2.64-4.42 1.07-6.61a64.53 64.53 0 0 1 3.78-12.47l-1.07.28c2.14 2.53 4.09 5.23 5.79 8.08.55.92.77 1.59.47 2.66-.24.85-.49 1.7-.75 2.54-.49 1.61-1.02 3.21-1.58 4.81-2.1 6.01-5.23 11.85-5.85 18.27l.64-.64c-1.24.11-2.49.18-3.74.19-.55 0-1.09 0-1.64-.01-.97-.02-1.3-.13-1.77-.97-.58-1.04-1.05-2.14-1.46-3.26-.35-.95-.55-2.03-1.14-2.86-.95-1.34-2.71-1.34-3.99-.47-1.57 1.08-2.17 3.22-3.1 4.79-.56.95-1.18 2.1-1.96 2.88-1.07 1.07-2.86.47-4.22.3-1.11-.14-3.37-.02-4.11-.91-.34-.41-.48-1.23-.66-1.73a58.8 58.8 0 0 1-.57-1.74c-1.45-4.68-2.34-9.51-3.17-14.33-.93-5.44-1.8-10.91-3.27-16.24-.22-.8-1.46-.46-1.24.34zM5.29 68.76c-.21.86-.29 1.76-.18 2.64 0 .17.03.32.1.47.05.15.13.28.25.39.21.21.55.37.85.35s.64-.12.85-.35c.2-.22.39-.54.35-.85-.07-.54-.06-1.09 0-1.63l-.04.32c.03-.23.08-.46.13-.69.08-.31.04-.65-.12-.93-.15-.25-.43-.49-.72-.55-.31-.07-.66-.06-.93.12s-.48.41-.55.72zM5.59 81.88c1.55 0 1.56-2.41 0-2.41s-1.56 2.41 0 2.41zM5.23 85.8c1.55 0 1.56-2.41 0-2.41s-1.56 2.41 0 2.41zM4.7 89.72c1.55 0 1.56-2.41 0-2.41s-1.56 2.41 0 2.41zM3.27 94.53c1.55 0 1.56-2.41 0-2.41s-1.56 2.41 0 2.41zM1.31 102.01c1.55 0 1.56-2.41 0-2.41s-1.56 2.41 0 2.41z" fill="#fff"/></svg>