<svg xmlns="http://www.w3.org/2000/svg" viewBox="0 0 190 177"><path d="M15.06 87.69l-1.55 7.41-1.33 5.84-1.33 6.34c-.18.85-.31 2.48-1.11 2.95-1.45.87-3.1.96-4.73 1.31l-3.61.78c-.31.07-1.17-.21-1.31-.45-.17-.29-.04-.81.06-1.33l1.61-7.87 1.45-6.88 1.67-9.11 1.11-6.26 2.48-13.99.49-2.43c.65-3.21.96-6.31 1.83-9.47l1.18-4.27c.99-.95 2.81-.97 4.2-1.12 1-.11 2.32-.42 3.16-.09 1.07.43 1.46 1.72 1.85 2.63l1.93 4.62c1.15 2.75 2.44 5.09 3.88 7.89.71-.75 1.18-1.41 1.69-2.26l2.03-3.32 6.47-10.69c1.01-1.67 1.69-2.23 3.79-2.4l2.91-.24c1.76-.14 3.23-.37 4.89.27.56.21 1.19 1.24 1.09 1.86l-1.87 11.81c-.37 2.34-.88 4.58-1.41 6.91l-1.66 7.27-.6 2.96-.52 3.04-1.45 8.97-1.14 7.54-1.15 6.96-6.78 1.88c-1.15.32-2.71.82-3.82.64-.55-.09-.86-1.46-.76-2.01l3.33-18.08 1.4-7.91.53-3.07c.27-1.58.49-2.94.37-4.68l-8.25 9.37c-.32.36-1.03.79-1.41.9-.44.13-1.51-.31-1.72-.71l-1.2-2.34-3.02-5.9-.88 3.81-1.36 6.33-1.39 6.64zM66.82 142.63c-2.3 2.96-4.84 5.39-7.83 7.69-3.59 2.77-12.16 6.95-13.62 4.28-.78-1.42-.09-3.18.14-4.66L47.53 137l1.48-9.46 1.15-6.55 1.53-8.55c.53-2.94.75-5.88 1.7-8.82 6.1-4.14 17.15-4.03 21.92 1.63 1.33 1.58 2.47 3.39 2.95 5.34l.65 2.67.23 5.63c.99-7.17 5.48-19.09 12.71-20.48 2.71-.52 5.78 1.03 7.55 2.96s2.38 4.25 2.88 6.71c.65 3.21.22 6.44-.18 9.69-.44 3.61-.79 7.21-2.37 10.47l-3.09 6.4-1.6 2.34c-1.56 2.28-3.58 4.42-6.55 4.71-1.99.19-4.45-.39-5.87-1.63-2.19-1.91-2.86-4.37-3.23-7.04-.47-3.42-.86-6.8-.55-10.21.11-1.24.23-2.28-.02-3.52l-1.07 4.3-1.31 3.45-3.09 6.37-3.03 4.72-3.5 4.51zm21.01-9.27c1.22-1.06 2.11-2.1 2.65-3.37l1.61-3.79.86-2.72c1.31-5.09 1.88-10.18 1.43-15.46-.07-.78-.57-2.49-1.57-2.14-1.21.44-2.31 1.88-3 2.89-2.06 3-2.64 6.14-3.34 9.54l-.96 4.69c-.58 2.84-.32 8.67 2.31 10.36zm-22.55-.74l1.78-2.83 1.28-2.34 1.38-3.08 1.61-5.56c.5-1.71.59-3.89-.57-5.39-.24-.31-1.07-.74-1.4-.97-2.55-1.77-5.39-2.54-8.43-1.6l-2.16 10.39-1.24 7.43-1.14 6.82-.58 4.16c4.32-.68 7.26-3.52 9.47-7.03zM145.65 64.49l-.44 4-.47 3-.84 4.18c-2.58.75-5.06 1.31-7.77 1.6-.84-2.64.11-4.85.47-7.33l.73-4.98.93-6.56 1.08-8.43 1.25-9.1.92-6.92c.09-.68.35-1.86 1.04-2.19 1.47-.71 3.47-.53 4.89.15l3.28 6.87 3.01 6.49 2.01 3.78 1.03-6.67 1.05-8.17c.17-1.31.62-2.66 1.27-3.79l6.82-.93c.36-.05 1.14.09 1.33.31 1.29 1.5-.3 7.81-.9 11.37l-1.55 9.2-.87 4.49-.5 2.46-.99 5.88-.6 3.27-1.45 6.47-4.21.29c-1.57.11-1.65-.74-2.13-1.76l-1.46-3.03-1.45-2.98-1.59-3.54-1.31-2.47-1.37-2.39-.77 4.56-.44 2.86zM35.79 22.77l-1.35 5.6-.52 2.77-.74 3.39c-.52 2.37-.73 4.63-1.86 6.85l-3.03 1.08c-.72.25-2.33.26-3.03 0-.86-.31-.76-1.85-.49-2.55.63-1.67.51-3.34.8-4.99l2.14-12.15-6.75 1.93c-2.38.68-1.37-3.51-.99-7.18 1.21-.57 2.31-1.13 3.49-1.51l4.14-1.32c2.76-.88 5.44-1.72 8.23-2.47l7.96-2.15c.73-.2 1.6-.38 2.32-.45l.32 3.05c.42-.69.55-1.32.77-2.16l2.02-7.79c.23-.89.87-1.91 1.74-2.02l3.58-.44c.41-.05 1.12-.04 1.43.12.37.19.48 1.24.37 1.72l-1.92 8.59-1.31 5.83c-.09.4-.25 1.1.13 1.38 2.41-.64 6.13.11 7.33 2.59.95 5-.25 9.98-1.29 14.85-.34 1.59-.78 3.03-1.73 4.23l-2.9.19c-.73.05-1.61.19-2.29-.07-.56-.21-1.19-1.33-1.02-2.12.79-3.6 2.24-10.26.64-11.3-.33-.21-1.22.38-1.35.78-.31.99-.85 2.28-1.1 3.27l-1.66 6.74c-.27 1.11-.59 2.65-1.15 3.6-2 1.16-4.36.9-6.3-.28 0-.77.2-1.78.35-2.56l.62-3.31 1.54-6.19L45.5 16.8c-3.11.94-5.67 1.8-8.51 2.86-.99.37-.98 2.14-1.21 3.09zM175.88 95.41l-3.03 1.82c-.51.31-.35 1.91-.37 2.51l-.24 5.99-.29 4.48c-.09 1.4.05 2.96-.64 4.27-.59.77-2.24 1.11-3.2 1.49-1.24.49-2.47.55-3.67-.14l.17-5.75.29-6.89.58-7.42.69-10.25.34-5.35.24-3.04c.3-3.8 2.51-4.32 6.48-5.79 5.08-1.88 11.73-1.53 15.35 2.46 1.46 1.61 1.56 3.22 1.32 5.24-.21 1.76-.57 3.26-1.49 4.8l-1.35 2.25c-2.06 3.42-3.86 2.55-3.49 6.65l.59 6.52.36 8.12.37 4.76c-2.36 1.46-6.71 2.9-7.91 2.09-.25-.17-.41-.82-.42-1.22l-.28-13.68-.38-3.92zm5.89-14.64c.22-1.63-.8-3.48-2.41-3.57l-3.56-.2c-.49-.03-1.55.31-1.77.7s-.15 1.33-.14 1.9l.14 8.54c4.03-.45 7.21-3.43 7.74-7.37zM149.28 154.67l1.07-5.42.77-3.52 1.59-8.77 1.35-7.09.99-4.91c.08-.41.87-.88 1.22-.83s1 .42 1.24.71l1.75 2.2 5.77 8.5 1.8 2.36 1.63-10.35.97-6.48c.22-1.47 1.38-2.21 2.65-2.64l4.23-1.47c.61-.21 2.02-.82 2.28.24.47 1.9-.08 3.99-.59 5.94l-3.72 14.15-1.56 5.61-1.72 7.2-.92 4.17c-.16.75-.9 1.66-1.7 1.51l-8.2-13.53c-.76.5-1 1.51-1.18 2.46l-2.33 12.27c-.16.82-.48 2.52-1.49 2.53l-6.42.09c-.16-1.78.17-3.12.53-4.91zM78.14 91.25c-2.96 1.28-5.91 2.35-9 3.38l-6.25 2.09-.88.35c-.25.1-.88-.58-.95-.87-.38-1.66.04-4.1.29-5.94l.51-3.69 1.01-7.96.52-2.98.84-5.2 1.24-7.25 1.34-8.13 1.28-6.18c.23-1.12.3-3.4 1.69-3.81l6.95-2.02c.39-.11 1.26-.07 1.56.15s.57 1.15.46 1.58l-1.63 6.68-1.55 7c-.42 1.91-.52 3.74-1.04 5.61-.44 1.6-.52 3.31-.81 4.94l-.7 3.95-.88 7.37c3.17-.3 6.41-2.98 7.78-1.59.46.47.44 1.24.33 2.02l-.83 5.83-.51 2.79-.74 1.89zM93.75 91.47l-11.5 2.32c-.27.01-.88-.03-1.01-.21-.17-.22-.31-.81-.29-1.1l.52-5.49 1.94-11.94.53-3.55 1.03-5.9 1.47-9.28 1.77-10.14c.1-.58.29-1.9.81-2.05l4.26-1.26c1.51-.45 3.35-.98 4.87-1.05 1.09 1.55.37 3.24.02 4.75l-.5 2.17-1.61 7.63-2.49 12.14-1.88 11.09 5.79-1.54c.31-.08 1.12.07 1.36.27.28.24.43 1.03.36 1.5l-1.07 7.89c-.09.69-.12 2.44-.75 2.71l-3.66 1.04zM123.2 77.11c-1.19.39-2.63.49-3.47-.11-1.05-.75-2.23-1.47-2.99-2.4-2.51-3.1-2.87-10.17-2.35-14.66l.46-4.01.93-4.2c1.36-6.13 6.19-13.73 12.68-14.97 3.86.92 6.09 5.67 6.06 9.73l-.02 3.93-.22 5.91-.61 6.51-1.88 5.19c-1.51 4.16-4.19 7.64-8.58 9.09zm-.26-8.63c1.43-2.1 2.13-4.19 2.66-6.38l1.22-5.4c.72-3.17.94-6.28.68-9.59-.46-.11-1.45.23-1.67.62l-1.95 3.39c-1.49 3.63-1.43 7.5-1.89 11.33-.24 2.08-1.02 4.22.96 6.03zM144.34 122.75c-.78.23-1.73.22-2.27-.19-.45-.34-.72-1.58-.56-2.25l1.55-6.58 1.52-6.82 1.41-6.91 1.12-5.05.52-2.68.57-3.02 1-4.98.54-2.07.49-2.96c1.13-.57 2.48-.76 3.8-.92l4.72-.55c.52.69.61 1.77.65 2.65l.2 4.24.07 33.81c-1.59 1.44-5.3 2.26-6.04 1.41-.99-1.13-.51-2.71-.51-4.02l.05-10.11c-.67-.06-1.57.09-1.98.46l-1.27 7.28-1.44 8.05-4.13 1.21zm9.72-26.29c.04-1.46.09-2.99-.41-4.22l-.58 3.39c-.04.21-.01.93.19.91l.8-.08zM56.29 96.93c-.14.95-.48 1.76-1.35 1.99l-8.48 2.27c-.45-1.14-.48-2.09-.29-3.23l2.16-12.79 1.79-9.79 1.58-9.05 1.53-8.04 1.39-5.73c.56-2.29.62-4.56 1.58-6.87 1.81-.5 3.99-1.13 5.72-.89s1.1 2.1.92 3.04c-.41 2.11-.53 4.02-.8 6.13l-.93 7.12c-.32 2.49-.37 4.92-.77 7.33l-.5 3.07-.58 4.8c-.3 2.51-.82 4.89-1.14 7.4l-.88 6.86-.97 6.4zM127.78 126.85l-4.11 1.25c-.45.14-1.46-.28-1.71-.61s-.33-1.21-.26-1.71l.59-3.95 1.78-10.14 1.32-8.21 1.14-6.44 1.18-8.06c.18-1.22.36-2.52.88-3.58l7.72-2.24c.5-.14 1.23.82 1.13 1.44l-2.25 15.06-1.05 7.87-.99 8.14 4.41-1.11c1.22-.31 2.61-.36 3.72.45-.15 2.82-.77 5.46-1.58 8.21l-11.91 3.62zM119.66 128.09c-.09.51-.43 1.5-.88 1.63l-3.93 1.07-11.17 2.52c-.46-1.81-.07-3.11.24-4.74l.51-2.72 1.6-9.71 1.41-7.85 1.1-5.42 1.09-5.5 1.74-8.79c3.18-.93 8.68-2.89 9.13-.92.08.38-.06 1.04-.23 1.56-.64 1.95-.79 3.75-1.26 5.74l-.77 3.26-1.57 7.82-1.55 8.35-.77 3.47-.68 3.05 4.38-.67c.68-.1 2.25-.33 2.53.71.32 1.18-.16 2.68-.36 3.85l-.57 3.27zM101.38 176.66l-4.04-.64c-2.07-.33-4.41-1.99-5.79-3.6-1.21-1.96 1.18-6.59 1.97-6.81 1.06-.29 2.74 2.45 7.54 2.93 2.13.21 3.9-.52 5.09-2.39.52-.82.75-1.87.38-2.87-.25-.66-1.04-1.64-1.98-1.83l-4.7-.92c-1.99-.39-3.68-1.03-4.71-2.39-2.7-3.58-.53-10.29 3.93-13.03 4.2-2.58 9.13-3.92 14.09-3.61.67.04 1.65.58 1.86 1.05.47 1.07.03 4.49-1.22 5.08-4.26-.25-11.22 1.22-11.55 4.63-.09.87 1.48 1.79 2.33 2.01 2.98.77 5.65 2.27 7.43 4.75 2.97 4.12.86 8.3-1.48 12.47-1.93 3.44-5.26 5.79-9.17 5.17zM122.03 169.55c-.42 1.66-4.31 2.41-7 2.29-.2-.92-.42-1.86-.28-2.7l2.42-14.52.77-4.53.79-4.6 1.09-6.62c4.24-4.37 13.51-3.9 16.81-.13 2.47 2.82 2.17 6.75.67 10.09-2.24 4.98-6.47 7.65-12.1 8.24-.92 2.26-1.2 4.67-1.8 7.08l-1.36 5.4zm3.74-19.17c3.6-.04 5.77-2.43 5.66-5.64a2.923 2.923 0 0 0-1.57-2.51c-.82-.43-2.16-.6-2.98.1l-.77 3.71c-.3 1.46-.44 2.84-.33 4.35zM106.59 84.61l-3.81.62c-.46.07-1.45-.14-1.78-.41s-.63-1.16-.55-1.69l1.83-13.65 1.51-9.81 1.3-8.27.92-4.96c.56-2.98.68-5.8 1.31-8.81 2.21-.72 4.27-1.52 6.54-1.74 1.41-.14 1.84 2.05 1.66 3.08l-.65 3.64-.63 4.36-1.61 10.52-.68 3.91c-1.21 6.95-2.36 13.76-3.18 20.8-.08.65-.07 1.46-.37 1.86-.26.35-1.15.45-1.81.55zM75.57 28.21c1.52-.82 4.18-1.41 5.18-.73.81 1.46.41 3.43-.47 4.77l-1.54 2.34c-2.49 3.79-5.37 5.86-9.9 5.2-1.98-.29-3.26-1.37-4.38-2.8-1.67-2.12-2.2-4.18-2.17-6.87.08-7.49 3.16-14.92 10.82-16.02 1.28-.18 2.76-.09 4.2-.03 1.6.07 5.4 2.7 5.4 5.91v3.1c0 .82-.65 2.39-1.56 2.55l-4.39.79-5.58.92c-.99.16-1.45.88-1.45 1.88 0 1.2.23 2.14 1.1 2.75.91.65 2.2.31 3.09-.41 1.04-.84 1.57-1.74 1.68-3.36zm-3.06-6.1l5.85-.72c-.72-2.48-4.27-2.18-5.78-.83-.35.32-.47 1.23-.07 1.55zM139.88 163.3c-.7.12-1.72.14-2.43.08-.16-1.19.23-2.13.45-3.23l1.54-7.7.93-4.41 1.42-7.29 1.47-7.8.59-3.12c.28-1.47.88-1.98 2.17-2.39s2.35-.91 3.77-.81c.37 3.3-.31 6.12-.68 9.29l-.96 8.32-.7 3.97-1.63 9.33-.63 3.63c-.2 1.17-1.05 1.41-2.02 1.57l-3.28.54z" fill="#fff"/></svg>