<svg xmlns="http://www.w3.org/2000/svg" viewBox="0 0 260 79"><path fill="#fff" d="M2.5.31H0v48.83h15.68v-2.5H2.5V.31zM37.63.31h-2.5L24.88 49.14h2.5l2.81-13.38h12.99l2.81 13.38h2.5L38.24.31h-.61zm-6.92 32.95l5.97-28.44 5.97 28.44H30.71zM135.74 43.19L120.36.31h-2.87v48.83h2.5V6.26l15.38 42.88h2.87V.31h-2.5v42.88zM147.35.31h2.5v48.83h-2.5zM199.35 39.34c-4.01 4.46-9.81 7.27-16.26 7.27-12.07 0-21.88-9.82-21.88-21.88s9.82-21.88 21.88-21.88c6.37 0 12.11 2.74 16.11 7.1l1.82-1.81C196.55 3.31 190.17.29 183.09.29c-13.48 0-24.45 10.97-24.45 24.45s10.97 24.45 24.45 24.45c6.24 0 11.94-2.36 16.26-6.23v6.19h2.5V24.73h-2.5v14.62zM57.75.31h-8.89v2.5h8.89v46.33h2.5V2.81h8.89V.31H57.75zM228.18 23.48h-14.89V.31h-2.5v48.83h2.5V25.98h14.89v23.16h2.5V.31h-2.5v23.17zM260 .31h-20.28v2.5h8.89v46.33h2.5V2.81H260V.31zM78.28.31v48.83H95.72v-2.5H80.78v-21.4h14.94v-2.51H80.78V2.81h14.94V.31H78.28zM226.04 59.56v-1.38h-7.61v20.54h7.61v-1.38h-6.23v-8.48h6.23v-1.38h-6.23v-7.92h6.23zM34.33 58.22h.81v8.48h-.81zM32.02 58.22l-1.44 6.51-1.26-6.51H28.44l-1.29 6.66-1.46-6.66h-.82l1.87 8.48H27.61l1.27-6.54 1.27 6.54h.82l1.86-8.48h-.81zM38.89 58.22h-2.31v.81h1.5v7.67h.81v-7.67h1.49v-.81h-1.49zM44.74 61.93h-2.07v-3.71h-.81v8.48h.81v-3.96h2.07v3.96h.81v-8.48h-.81v3.71zM67.83 59.55h6.23v-1.38h-7.62v20.54h7.62v-1.38h-6.23v-8.48h6.23v-1.38h-6.23v-7.92zM135.21 58.17h-1.38l-4.27 20.54h1.38l1.15-5.55h4.95l1.15 5.55h1.38l-4.27-20.54h-.1zm-2.83 13.61l2.19-10.52 2.19 10.52h-4.37zM171.45 58.17l-3.63 17.45-3.63-17.45h-1.38l4.27 20.54H168.56l4.27-20.54h-1.38zM150.57 67.75h-5.9v-9.58h-1.39v20.54h1.39v-9.58h5.9v9.58h1.38V58.17h-1.38v9.58zM178.16 58.17h-1.38l-4.27 20.54h1.38l1.15-5.55h4.95l1.15 5.55h1.38l-4.27-20.54h-.1zm-2.83 13.61l2.19-10.52 2.19 10.52h-4.37zM101.07 58.22c-5.64 0-10.23 4.59-10.23 10.23s4.59 10.23 10.23 10.23 10.23-4.59 10.23-10.23-4.59-10.23-10.23-10.23zm0 19.17c-4.93 0-8.94-4.01-8.94-8.94s4.01-8.94 8.94-8.94 8.94 4.01 8.94 8.94-4.01 8.94-8.94 8.94zM52.8 58.22l-1.4-.05v20.54l1.4-.05c5.48-.18 9.89-4.69 9.89-10.22S58.28 58.4 52.8 58.22zm0 19.15V59.5c4.77.18 8.6 4.12 8.6 8.93s-3.83 8.76-8.6 8.93zM87.79 63.63c0-3.01-2.45-5.46-5.46-5.46h-4.79v20.54h4.8c3.01 0 5.46-2.45 5.46-5.46 0-2.07-1.16-3.88-2.87-4.81a5.467 5.467 0 0 0 2.87-4.81zm-1.31 9.62c0 2.29-1.86 4.15-4.15 4.15h-3.41v-8.3h3.41c2.29 0 4.15 1.86 4.15 4.15zm-4.15-5.47h-3.41v-8.3h3.41c2.29 0 4.15 1.86 4.15 4.15s-1.86 4.15-4.15 4.15zM125.09 63.63c0-3.01-2.45-5.46-5.46-5.46h-4.8v20.54h1.38V69.1h3.59l5.42 9.62h1.52l-5.55-9.85c2.25-.68 3.9-2.76 3.9-5.23zm-5.46 4.15h-3.42v-8.3h3.42c2.29 0 4.15 1.86 4.15 4.15s-1.86 4.15-4.15 4.15zM207.2 77.39c-4.93 0-8.94-4.01-8.94-8.94s4.01-8.94 8.94-8.94a8.94 8.94 0 0 1 6.73 3.06l.88-.94c-1.87-2.09-4.59-3.4-7.61-3.4-5.64 0-10.23 4.59-10.23 10.23s4.59 10.23 10.23 10.23c3.04 0 5.78-1.34 7.65-3.45l-.92-.89a8.905 8.905 0 0 1-6.73 3.06zM192.42 74.87l-5.99-16.69h-1.38v20.54h1.38V62.03l5.99 16.69h1.38V58.18h-1.38v16.69z"/></svg>