<svg xmlns="http://www.w3.org/2000/svg" viewBox="0 0 320 89"><path d="M8.37 1.13v2.05H5.28v9.54H3.11V3.18H0V1.13h8.37zM15.79 12.73V7.55h-4.04v5.18H9.61V1.13h2.14v4.42h4.04V1.13h2.14v11.6h-2.14zM27.19 7.66h-5.02v2.98h5.72v2.08h-7.83V1.13h7.58v2.05h-5.47v2.46h5.02v2.01zM35.54 12.73h-2.01V1.13h3.14l1.88 9.12 1.86-9.12h3.11v11.6h-2.01V4.89v-.95V3l-1.96 9.73h-2.1L35.51 3v9.73zM51.57 10.34h-3.81l-.71 2.38h-2.26l3.69-11.6h2.44l3.66 11.6h-2.34l-.67-2.38zm-.6-2l-1.29-4.56-1.33 4.56h2.62zM62.34 1.13v2.05h-3.09v9.54h-2.17V3.18h-3.11V1.13h8.37zM71.11 1.13v2.05h-3.09v9.54h-2.17V3.18h-3.11V1.13h8.37zM79.56 7.66h-5.02v2.98h5.72v2.08h-7.83V1.13h7.58v2.05h-5.47v2.46h5.02v2.01zM81.94 1.13h2.16v9.51h5.12v2.08h-7.28V1.13zM99.97 10.34h-3.81l-.71 2.38h-2.26l3.69-11.6h2.44l3.66 11.6h-2.34l-.67-2.38zm-.6-2l-1.29-4.56-1.33 4.56h2.62zM112.65 12.73h-2.16l-4.22-8.24v8.24h-2.01V1.13h2.26l4.11 8.1v-8.1h2.01v11.6zM119.11 12.73h-4.45V1.13h4.45c.64.01 1.17.09 1.6.25.72.27 1.31.76 1.76 1.47.36.58.61 1.2.74 1.87.13.67.2 1.31.2 1.92 0 1.54-.28 2.85-.83 3.92-.75 1.44-1.9 2.16-3.46 2.16zm1.6-8.64c-.33-.63-.99-.94-1.97-.94h-1.99v7.57h1.99c1.02 0 1.73-.56 2.13-1.69.22-.62.33-1.36.33-2.21 0-1.18-.16-2.09-.49-2.72zM130.99 12.73h-2.01V1.13h3.14l1.88 9.12 1.86-9.12h3.11v11.6h-2.01V4.89v-.95V3L135 12.73h-2.1L130.96 3v9.73zM147.02 10.34h-3.81l-.72 2.38h-2.26l3.69-11.6h2.44l3.66 11.6h-2.34l-.67-2.38zm-.6-2l-1.29-4.56-1.33 4.56h2.62zM155.73 8.18h-2.23v4.55h-2.11V1.13h5.07c.72.02 1.28.12 1.67.3.39.18.72.45.99.81a3.546 3.546 0 0 1 .73 2.2c0 .55-.12 1.09-.37 1.62s-.66.91-1.23 1.13c.48.22.81.52 1.01.92.2.4.3 1 .3 1.81v.78c0 .53.02.89.06 1.08.06.3.19.52.39.66v.29h-2.38c-.07-.26-.11-.46-.14-.62-.06-.33-.09-.66-.09-1v-1.08c-.02-.74-.14-1.23-.38-1.48-.23-.25-.66-.37-1.3-.37zm1.31-2.11c.43-.22.64-.66.64-1.31 0-.7-.21-1.17-.62-1.42-.23-.14-.58-.2-1.05-.2h-2.51v3.12h2.45c.49 0 .85-.06 1.09-.19zM165.46 11.05c.51 0 .92-.06 1.24-.19.6-.24.9-.69.9-1.35 0-.38-.15-.68-.45-.89-.3-.2-.77-.39-1.41-.54l-1.09-.28c-1.07-.27-1.82-.57-2.23-.89-.7-.53-1.04-1.37-1.04-2.51 0-1.04.34-1.9 1.01-2.59.67-.69 1.66-1.03 2.97-1.03 1.09 0 2.02.32 2.79.97.77.65 1.17 1.59 1.21 2.82h-2.07c-.04-.7-.31-1.19-.81-1.49-.34-.19-.75-.29-1.25-.29-.56 0-1 .13-1.33.38-.33.25-.5.6-.5 1.05 0 .41.16.72.49.93.21.14.66.3 1.35.48l1.78.48c.78.21 1.37.49 1.77.84.62.55.93 1.33.93 2.37s-.36 1.94-1.08 2.64c-.72.7-1.74 1.05-3.06 1.05s-2.4-.34-3.18-1.03c-.77-.69-1.16-1.64-1.16-2.84h2.06c.07.53.19.93.39 1.19.35.48.95.72 1.8.72zM179.99 12.73h-4.68V1.13h5.02c1.27.02 2.16.43 2.69 1.24.32.49.48 1.08.48 1.77s-.16 1.28-.48 1.71c-.18.24-.44.46-.79.66.53.22.93.56 1.2 1.02.27.47.4 1.03.4 1.7s-.15 1.3-.46 1.85c-.2.36-.44.67-.74.91-.33.28-.72.48-1.17.58-.45.1-.94.16-1.47.16zm1.02-7.32c.28-.19.42-.53.42-1.01 0-.54-.19-.9-.56-1.07-.32-.12-.73-.18-1.23-.18h-2.27v2.56h2.54c.45 0 .82-.1 1.11-.29zm-1.07 2.21h-2.57v3.09h2.54c.45 0 .81-.07 1.06-.2.46-.25.69-.73.69-1.45 0-.6-.22-1.02-.67-1.24-.25-.13-.6-.19-1.04-.2zM191.69 10.34h-3.81l-.72 2.38h-2.26l3.69-11.6h2.44l3.66 11.6h-2.34l-.67-2.38zm-.61-2l-1.29-4.56-1.33 4.56h2.62zM200.39 8.18h-2.23v4.55h-2.11V1.13h5.07c.72.02 1.28.12 1.67.3.39.18.72.45.99.81a3.546 3.546 0 0 1 .73 2.2c0 .55-.12 1.09-.37 1.62s-.66.91-1.23 1.13c.48.22.81.52 1.01.92.2.4.3 1 .3 1.81v.78c0 .53.02.89.06 1.08.06.3.19.52.39.66v.29h-2.38c-.07-.26-.11-.46-.14-.62-.06-.33-.09-.66-.09-1v-1.08c-.02-.74-.14-1.23-.38-1.48-.23-.25-.66-.37-1.3-.37zm1.31-2.11c.43-.22.64-.66.64-1.31 0-.7-.21-1.17-.62-1.42-.23-.14-.58-.2-1.05-.2h-2.51v3.12h2.45c.49 0 .85-.06 1.09-.19zM216.57 12.79c-.46.17-1.02.26-1.66.26-1.35 0-2.46-.45-3.34-1.35-1.07-1.09-1.6-2.68-1.6-4.78s.55-3.72 1.64-4.81c.89-.89 2-1.33 3.33-1.33s2.46.47 3.36 1.41c1.05 1.09 1.57 2.6 1.57 4.56 0 1.03-.11 1.9-.34 2.6-.18.67-.45 1.22-.81 1.66l1.19 1.25-1.13 1.32-1.25-1.32c-.38.26-.71.44-.98.54zm-.46-2.09l-1.04-1.12 1.11-1.31 1.04 1.12c.16-.38.28-.71.34-.99.1-.42.15-.92.15-1.49 0-1.3-.24-2.31-.71-3.02s-1.17-1.07-2.08-1.07c-.86 0-1.54.34-2.05 1.02-.51.68-.76 1.7-.76 3.06 0 1.59.36 2.73 1.09 3.41.47.45 1.04.67 1.7.67a2.457 2.457 0 0 0 1.2-.3zM227.64 8.26V1.13h2.19v7.13c0 1.23-.17 2.19-.51 2.88-.64 1.26-1.85 1.89-3.64 1.89s-3-.63-3.65-1.89c-.34-.69-.51-1.65-.51-2.88V1.13h2.19v7.13c0 .8.08 1.38.25 1.75.26.65.83.98 1.71.98s1.44-.33 1.7-.98c.17-.37.25-.95.25-1.75zM231.73 1.13h2.14v11.6h-2.14V1.13zM243.17 11.86c-.77.79-1.76 1.19-2.96 1.19-1.49 0-2.65-.54-3.5-1.6-.85-1.08-1.28-2.55-1.28-4.42 0-2.02.48-3.58 1.45-4.68.84-.95 1.91-1.43 3.21-1.43 1.74 0 3.01.64 3.81 1.92.44.72.68 1.44.72 2.16h-2.16c-.14-.56-.32-.98-.54-1.26-.39-.5-.97-.76-1.75-.76s-1.4.36-1.86 1.07c-.45.71-.68 1.72-.68 3.02s.24 2.27.72 2.92c.48.65 1.09.97 1.83.97s1.33-.28 1.73-.83c.22-.3.4-.75.55-1.35h2.14c-.19 1.26-.66 2.29-1.43 3.08zM255.41 12.73h-2.78l-3.19-5.07-1.03 1.19v3.88h-2.12V1.13h2.12v4.78l3.99-4.78h2.79l-4.23 4.78 4.45 6.82zM267.8 7.66h-5.02v2.98h5.72v2.08h-7.83V1.13h7.58v2.05h-5.47v2.46h5.02v2.01zM278.54 12.73h-2.16l-4.22-8.24v8.24h-2.01V1.13h2.26l4.11 8.1v-8.1h2.01v11.6zM287.74 7.66h-5.02v2.98h5.72v2.08h-7.83V1.13h7.58v2.05h-5.47v2.46h5.02v2.01zM294.51 8.18h-2.23v4.55h-2.11V1.13h5.07c.72.02 1.28.12 1.67.3.39.18.72.45.99.81a3.546 3.546 0 0 1 .73 2.2c0 .55-.12 1.09-.37 1.62s-.66.91-1.23 1.13c.48.22.81.52 1.01.92.2.4.3 1 .3 1.81v.78c0 .53.02.89.06 1.08.06.3.19.52.39.66v.29h-2.38c-.07-.26-.11-.46-.14-.62-.06-.33-.09-.66-.09-1v-1.08c-.02-.74-.14-1.23-.38-1.48-.23-.25-.66-.37-1.3-.37zm1.31-2.11c.43-.22.64-.66.64-1.31 0-.7-.21-1.17-.62-1.42-.23-.14-.58-.2-1.05-.2h-2.51v3.12h2.45c.49 0 .85-.06 1.09-.19zM306.83 12.44c-.57.39-1.27.59-2.1.59-1.37 0-2.49-.53-3.36-1.6-.91-1.07-1.37-2.53-1.37-4.39s.46-3.38 1.38-4.52c.92-1.13 2.14-1.7 3.65-1.7 1.31 0 2.37.37 3.16 1.12.8.75 1.25 1.68 1.37 2.8h-2.12c-.16-.79-.56-1.35-1.2-1.66a2.72 2.72 0 0 0-1.18-.26c-.83 0-1.52.35-2.05 1.06-.54.71-.8 1.77-.8 3.18s.29 2.44.87 3.03c.58.59 1.24.89 1.98.89s1.32-.23 1.78-.7c.46-.47.75-1.08.86-1.84h-2.39V6.5h4.3v6.22h-1.43l-.22-1.45c-.42.55-.79.94-1.12 1.16zM320 1.13l-3.46 7.24v4.36h-2.16V8.37l-3.57-7.24h2.54l2.14 5.05 2.05-5.05h2.45zM143.74 87.9v-5.18h-4.34v5.18h-2.3V76.3h2.3v4.42h4.34V76.3h2.3v11.6h-2.3zM153.17 88.22c-1.59 0-2.8-.45-3.64-1.35-1.12-1.11-1.69-2.7-1.69-4.78s.56-3.72 1.69-4.78c.84-.9 2.05-1.35 3.64-1.35s2.8.45 3.64 1.35c1.12 1.06 1.68 2.66 1.68 4.78s-.56 3.68-1.68 4.78c-.84.9-2.05 1.35-3.64 1.35zm2.19-3.11c.54-.71.81-1.71.81-3.02s-.27-2.31-.81-3.02-1.27-1.07-2.19-1.07-1.65.35-2.2 1.06c-.55.71-.82 1.71-.82 3.02s.27 2.31.82 3.02c.55.71 1.28 1.06 2.2 1.06s1.65-.35 2.19-1.06zM166.82 83.43V76.3h2.36v7.13c0 1.23-.18 2.19-.55 2.88-.68 1.26-1.99 1.89-3.91 1.89s-3.23-.63-3.92-1.89c-.37-.69-.55-1.65-.55-2.88V76.3h2.36v7.13c0 .8.09 1.38.27 1.75.28.65.89.98 1.84.98s1.55-.33 1.83-.98c.18-.37.27-.95.27-1.75zM176.11 83.36h-2.4v4.55h-2.27v-11.6h5.45c.78.02 1.38.12 1.8.3.42.18.77.45 1.07.81.24.29.43.62.57.98.14.36.21.76.21 1.22 0 .55-.13 1.09-.4 1.62s-.71.91-1.32 1.13c.51.21.87.52 1.09.92.21.4.32 1 .32 1.81v.78c0 .53.02.89.06 1.08.06.3.2.52.42.66v.29h-2.55c-.07-.26-.12-.46-.15-.62-.06-.33-.09-.66-.1-1l-.02-1.08c-.01-.74-.14-1.23-.39-1.48s-.71-.37-1.4-.37zm1.41-2.11c.46-.22.69-.66.69-1.31 0-.7-.22-1.17-.67-1.42-.25-.14-.63-.2-1.13-.2h-2.7v3.12h2.63c.52 0 .91-.06 1.18-.19zM57.36 57.62c-.33 0-3.29-.07-5.35-2.33-1.5-1.65-2.11-4.01-1.82-7.03.5-5.2.88-9.46 1.16-12.56.16-1.8.29-3.27.4-4.43.36-3.79 2.54-8.23 7.51-8.3 3.57-.05 5.12-.03 5.42 0 4.67 0 7.59 2.69 8.02 7.38l.02.26h-3.7v-.24c0-.14-.04-3.35-2.96-3.35-1.75 0-1.94-.01-2.01-.01h-.81c-1.6.05-4.92.12-5.12 3.37-.12 1.89-.45 6.08-.77 10.13-.27 3.43-.53 6.67-.61 7.95-.12 1.87-.16 3.61.59 4.46.31.35.75.54 1.35.57.74.04 1.33.08 1.83.11 1.09.07 1.75.11 2.49.11.97 0 3.92 0 5.15-3.82l.06-.2 2.1.38v.21c-.02.07-.52 6.93-5.66 7.11l-2.86.1c-2.55.09-3.23.12-4.43.12zm5.57-34.2c-.8 0-1.96 0-3.66.03-4.66.06-6.71 4.28-7.05 7.87-.11 1.16-.24 2.63-.4 4.43-.28 3.1-.66 7.36-1.16 12.56-.28 2.88.3 5.12 1.7 6.66 1.92 2.12 4.69 2.18 5 2.18 1.19 0 1.88-.02 4.42-.12l2.86-.1c4.22-.15 5.04-5.34 5.17-6.46l-1.27-.23c-.91 2.62-2.77 3.95-5.53 3.95-.75 0-1.42-.04-2.52-.11-.5-.03-1.1-.07-1.83-.11-.72-.04-1.28-.29-1.68-.73-.88-.99-.84-2.76-.71-4.81.08-1.29.34-4.53.61-7.96.32-4.05.66-8.23.77-10.12.23-3.69 3.98-3.77 5.58-3.8h.55c.25-.02.25-.02.3-.02.06 0 .25.01 1.99.01 2.9 0 3.35 2.75 3.42 3.58h2.71c-.48-4.26-3.22-6.69-7.53-6.69h-.04s-.32-.03-1.7-.03z" fill="#fff"/><path d="M101.81 22.95h-6.02l-1.08 14.96h-.89l.48-7.85-7.12-7.11h-5.86L80.2 36.8c-.08-.1-.17-.2-.26-.3l-8.85-10.67-.03-.03c-1.41-1.87-3.56-2.82-6.39-2.82-.3-.03-1.85-.05-5.42 0-4.97.06-7.16 4.51-7.51 8.3-.11 1.16-.24 2.63-.4 4.42-.28 3.11-.66 7.36-1.16 12.57-.29 3.01.32 5.37 1.82 7.03.45.49.97.92 1.53 1.24l7.12 5.77c2.03 2.51 5.43 2.58 5.81 2.58 1.2 0 1.88-.02 4.43-.1l2.86-.09c5.14-.16 5.64-6.24 5.65-6.3v-.03l6.24 6.23h6.56l.92-15.08h.76l-.57 7.97 7.12 7.11h6.56l1.94-34.53-7.12-7.11zM64.64 57.17c-4.98.17-5.72.22-7.28.22s-7.71-.95-6.93-9.1c.78-8.15 1.26-13.78 1.56-16.99s2.17-8.02 7.28-8.08c5.11-.07 5.4 0 5.4 0 5.22 0 7.44 3.34 7.79 7.17h-3.2s0-3.58-3.2-3.58-1.16-.04-2.76 0-5.2.07-5.42 3.58c-.22 3.52-1.21 15.31-1.39 18.08-.17 2.77-.17 5.16 2.17 5.29s3.25.22 4.33.22 4.12-.09 5.37-3.99l1.69.3s-.43 6.72-5.42 6.89zm7-5.8c-1.06-.94-1.39-1.24-1.54-1.31v-.02l-1.89-.34-.06.2c-.42 1.29-1.08 2.27-1.97 2.91.09-.96.18-2 .28-3.07.32-3.57.66-7.26.77-8.92.2-2.84 3.52-2.91 5.12-2.94h.55q.22-.02.26-.01c.07 0 .26.01 2.01.01 2.92 0 2.96 2.8 2.96 2.92v.24h1.72l-1.33 16.43.02.02-6.9-6.13zm28.15 6.02h-6.24l1.09-15.08h-8.71l-.92 15.08h-6.24l2.77-34.2h5.54l-.91 14.96h8.76l1.08-14.96h5.7l-1.92 34.2z" fill="#fff"/><path d="M100.01 57.62H93.3l1.09-15.08h-8.24l-.92 15.08h-6.72l2.81-34.68h6.01l-.91 14.96h8.29l1.08-14.96h6.17l-1.95 34.68zm-6.2-.47h5.76l1.9-33.73h-5.22l-1.08 14.96h-9.23l.91-14.96h-5.07l-2.73 33.73h5.75l.92-15.08h9.19l-1.09 15.08zM120.18 26.92h-.15c-2.07 0-3.86 1.7-3.97 3.77l-.98 18.61a3.553 3.553 0 0 0 3.57 3.77h.15c2.07 0 3.86-1.7 3.97-3.77l.98-18.61c.11-2.07-1.5-3.77-3.57-3.77zm2.35 22.37c-.08 1.61-1.29 3.03-2.86 3.42l.76-14.47c.08-1.61 1.29-3.03 2.86-3.42l-.76 14.47z" fill="#fff"/><path d="M134.27 34.47h.03l-3.81-6.73a7.06 7.06 0 0 0-1.33-2.36l-.07-.1h-.03a7.073 7.073 0 0 0-5.28-2.35h-6.5c-4.1 0-7.61 3.34-7.83 7.44l-1.01 19.23c-.07 1.27.2 2.51.77 3.63s4.05 7.43 4.05 7.43l.15.27.42.76.02-.05c1.32 1.86 3.45 2.96 5.79 2.96h6.5c4.1 0 7.61-3.34 7.83-7.44l1.01-19.23a7.11 7.11 0 0 0-.69-3.47zm-3.66-4.09l-1.01 19.23c-.21 3.96-3.62 7.2-7.58 7.2h-6.5c-3.96 0-7.03-3.24-6.82-7.2l1.01-19.23c.21-3.96 3.62-7.2 7.58-7.2h6.5c3.96 0 7.03 3.24 6.82 7.2z" fill="#fff"/><path d="M122.02 57.06h-6.5c-1.98 0-3.81-.78-5.15-2.19-1.34-1.41-2.02-3.29-1.92-5.27l1.01-19.23c.21-4.1 3.73-7.44 7.83-7.44h6.5c1.98 0 3.81.78 5.15 2.19 1.34 1.41 2.02 3.29 1.92 5.27l-1.01 19.23c-.21 4.1-3.73 7.44-7.83 7.44zm-4.74-33.63c-3.84 0-7.13 3.12-7.33 6.96l-1.01 19.23c-.1 1.85.54 3.59 1.78 4.9 1.24 1.31 2.95 2.03 4.79 2.03h6.5c3.84 0 7.13-3.12 7.33-6.96l1.01-19.23c.1-1.85-.54-3.59-1.78-4.9-1.24-1.31-2.95-2.03-4.79-2.03h-6.5zm1.53 29.89h-.15c-1.07 0-2.06-.42-2.78-1.18-.73-.76-1.09-1.78-1.04-2.85l.98-18.61c.12-2.21 2.01-4.01 4.22-4.01h.15c1.07 0 2.06.42 2.78 1.18.73.76 1.09 1.78 1.04 2.85l-.98 18.61c-.12 2.21-2.01 4.01-4.22 4.01zm1.22-26.15c-1.95 0-3.61 1.58-3.72 3.53l-.98 18.61c-.05.93.27 1.81.9 2.48.63.66 1.49 1.03 2.42 1.03h.15c1.95 0 3.61-1.58 3.72-3.53l.98-18.61c.05-.93-.27-1.81-.9-2.48a3.317 3.317 0 0 0-2.42-1.03h-.15zM157.11 50.15v.18c-.12 2.61-2.2 3.15-3.93 3.15h-1.2c-.88.01-1.87.02-3.59 0-.67-.01-1.21-.16-1.64-.44V40.49c0-3.27 3.72-3.31 3.87-3.31 1 0 1.1 0 4.7.04 3.33.04 3.44 3.14 3.44 3.28v.23h3.12v-.25c-.1-1.9-1.37-9.62-1.43-9.92-.23-5.63-4.29-7.63-7.68-7.63h-5.81c-5.12 0-8.09 3.96-8.19 6.7-.02.6-.06 1.44-.11 2.48-.16 3.46-.42 9.25-.49 15.8 0 .81.03 1.58.12 2.31h-.02l.07.39c.05.33.11.65.17.94l1.19 6.42c.83 6.01 5.53 6.31 6.46 6.31h9.23c6.11 0 6.18-6.7 6.17-6.81l-1.46-8.02-3.02.69zM154 57.11h-9.23c-1.32 0-6.44-.69-6.35-9.18.09-8.5.5-15.67.59-18.27.09-2.6 2.92-6.47 7.95-6.47h5.81c3.18 0 7.21 1.82 7.45 7.4h-2.64s-.06-3.91-3.67-3.95-3.7-.05-4.71-.05-4.11.55-4.11 4-.05 16.1 0 18.66.78 4.43 3.29 4.48 3.47 0 4.8 0 4.02-.32 4.16-3.38l2.6-.59s0 7.35-5.94 7.35z" fill="#fff"/><path d="M154 57.34h-9.23c-.57 0-2.57-.13-4.22-1.8-1.61-1.62-2.4-4.19-2.37-7.62.07-6.54.33-12.34.49-15.8.05-1.04.09-1.88.11-2.48.1-2.74 3.07-6.7 8.19-6.7h5.81c3.4 0 7.45 2 7.68 7.63v.25h-3.11v-.23c0-.15-.11-3.68-3.44-3.72-3.61-.05-3.7-.05-4.7-.05-.16 0-3.87.04-3.87 3.76v4.5c-.01 5.19-.03 12.3 0 14.16.05 2.9.99 4.21 3.06 4.24 1.72.03 2.72.02 3.59 0h1.2c1.72 0 3.8-.55 3.92-3.15v-.18l3.08-.7v.3c0 .08-.07 7.59-6.18 7.59zm-7.03-33.92c-4.82 0-7.62 3.69-7.71 6.24-.02.6-.06 1.44-.11 2.49-.16 3.46-.42 9.24-.49 15.78-.04 3.3.71 5.75 2.23 7.29a5.6 5.6 0 0 0 3.88 1.66H154c2.35 0 4.03-1.18 4.97-3.52.55-1.35.68-2.71.72-3.3l-2.13.49c-.18 2.21-1.73 3.43-4.38 3.43h-1.19c-.88.01-1.88.02-3.61 0-3.08-.06-3.49-2.72-3.52-4.71-.03-1.86-.02-8.98 0-14.17v-4.5c0-3.35 2.84-4.23 4.35-4.23 1.01 0 1.1 0 4.71.05 3.26.04 3.8 3.08 3.89 3.95h2.17c-.22-3.25-2.22-6.93-7.2-6.93h-5.81zM212.31 34.86c1.24-6.02-1.49-8.16-3.38-8.16h-4.35v10.94s6.57 2.89 7.73-2.78zM209.97 42.36h-5.38v7.76c0 1.95 1.12 3.67 4.35 3.67s4.29-1.78 4.29-4.44.41-6.99-3.26-6.99z" fill="#fff"/><path d="M220.31 49.07c-.13-3.78-1.48-6.55-3.93-8.01l2.25-4.18c.87-1.18 1.31-2.54 1.32-4.05 0-3.16-.87-5.75-2.52-7.48-1.5-1.57-3.55-2.4-5.94-2.4h-13.84l-4.06 7.43.64 33.93h13.92c3.25 0 5.76-1.2 7.11-3.39v.02l4.13-7.54.05-.11c.64-1.2.93-2.62.88-4.21zm-8.21 7.74h-13.69l-.63-33.63h13.7c4.41 0 8.22 2.98 8.22 9.64 0 5.92-6.92 7.38-6.92 7.38 4.09.32 7.1 3.16 7.29 8.87.16 4.89-3.02 7.74-7.97 7.74z" fill="#fff"/><path d="M212.1 57.05h-13.92l-.64-34.11h13.94c2.39 0 4.44.83 5.94 2.4 1.65 1.73 2.52 4.32 2.52 7.48 0 4.59-4.05 6.59-6.04 7.29 3.93.77 6.24 3.97 6.41 8.95.08 2.33-.6 4.3-1.95 5.69-1.45 1.5-3.62 2.29-6.26 2.29zm-13.46-.47h13.46c2.51 0 4.56-.74 5.92-2.15 1.26-1.3 1.89-3.15 1.81-5.35-.17-5.15-2.75-8.3-7.07-8.64l-1.64-.13 1.61-.34s1.72-.37 3.39-1.44c2.21-1.42 3.34-3.34 3.34-5.71 0-3.04-.82-5.51-2.39-7.15-1.4-1.47-3.34-2.25-5.59-2.25h-13.46l.62 33.16zm10.29-2.55c-2.91 0-4.58-1.42-4.58-3.91v-7.99h5.62c.96 0 1.74.29 2.3.86 1.26 1.28 1.23 3.69 1.2 5.62v.74c0 3.15-1.48 4.68-4.53 4.68zm-4.11-11.43v7.52c0 1.28.53 3.43 4.11 3.43 2.77 0 4.05-1.34 4.05-4.2v-.75c.02-1.85.05-4.15-1.07-5.28-.48-.48-1.12-.72-1.96-.72h-5.14zm3.24-3.99c-1.81 0-3.47-.72-3.57-.76l-.14-.06V26.46h4.58c.99 0 1.97.5 2.68 1.38.87 1.07 1.74 3.16.94 7.07-.32 1.54-1.05 2.62-2.18 3.2-.72.37-1.53.51-2.31.51zm-3.24-1.14c.65.25 3.38 1.21 5.33.21 1-.52 1.65-1.48 1.93-2.87.77-3.73-.03-5.69-.84-6.68-.62-.76-1.46-1.2-2.31-1.2h-4.11v10.54zM178.83 26.92h-.15c-2.07 0-3.77 1.7-3.77 3.77V49.3c0 2.07 1.7 3.77 3.77 3.77h.15c2.07 0 3.77-1.7 3.77-3.77V30.69c0-2.07-1.7-3.77-3.77-3.77zm3.54 22.39a3.54 3.54 0 0 1-2.6 3.4h-2.01a3.54 3.54 0 0 1-2.6-3.4V38.77a3.53 3.53 0 0 1 3.53-3.53h.15a3.53 3.53 0 0 1 3.53 3.53v10.54z" fill="#fff"/><path d="M182.24 22.95h-6.5c-4.1 0-7.44 3.34-7.44 7.44v27.3c0 4.1 3.34 7.44 7.44 7.44h6.5c4.1 0 7.44-3.34 7.44-7.44v-27.3c0-4.1-3.34-7.44-7.44-7.44zm7.2 26.66c0 3.96-3.24 7.2-7.2 7.2h-6.5c-3.96 0-7.2-3.24-7.2-7.2V30.38c0-3.96 3.24-7.2 7.2-7.2h6.5c3.96 0 7.2 3.24 7.2 7.2v19.23z" fill="#fff"/><path d="M182.24 57.05h-6.5c-4.1 0-7.44-3.34-7.44-7.44V30.38c0-4.1 3.34-7.44 7.44-7.44h6.5c4.1 0 7.44 3.34 7.44 7.44v19.23c0 4.1-3.34 7.44-7.44 7.44zm-6.5-33.63c-3.84 0-6.96 3.12-6.96 6.96v19.23c0 3.84 3.12 6.96 6.96 6.96h6.5c3.84 0 6.96-3.12 6.96-6.96V30.38c0-3.84-3.12-6.96-6.96-6.96h-6.5zm3.09 29.89h-.15c-2.21 0-4.01-1.8-4.01-4.01V30.69c0-2.21 1.8-4.01 4.01-4.01h.15c2.21 0 4.01 1.8 4.01 4.01V49.3c0 2.21-1.8 4.01-4.01 4.01zm-.14-26.15a3.53 3.53 0 0 0-3.53 3.53V49.3a3.53 3.53 0 0 0 3.53 3.53h.15a3.53 3.53 0 0 0 3.53-3.53V30.69a3.53 3.53 0 0 0-3.53-3.53h-.15zM241.42 30.69c-.11-2.07-1.89-3.77-3.97-3.77h-.15c-2.07 0-3.68 1.7-3.57 3.77l.98 18.61c.11 2.07 1.89 3.77 3.97 3.77h.15c2.07 0 3.68-1.7 3.57-3.77l-.98-18.61z" fill="#fff"/><path d="M242.42 57.05h-6.5c-4.09 0-7.6-3.33-7.82-7.43l-1.01-19.23c-.1-1.98.58-3.85 1.92-5.26 1.34-1.41 3.16-2.19 5.14-2.19h6.5c4.09 0 7.6 3.33 7.81 7.43l1.01 19.23c.1 1.98-.58 3.85-1.92 5.26-1.34 1.41-3.16 2.19-5.14 2.19zm-8.26-33.63c-1.85 0-3.55.72-4.8 2.04s-1.88 3.06-1.79 4.91l1.01 19.23c.2 3.85 3.49 6.98 7.34 6.98h6.5c1.85 0 3.55-.72 4.8-2.04s1.88-3.06 1.79-4.91L248 30.4c-.2-3.85-3.49-6.98-7.34-6.98h-6.5zm4.66 29.89h-.15c-2.2 0-4.09-1.79-4.2-3.99l-.98-18.61a3.783 3.783 0 0 1 3.8-4.02h.15c2.2 0 4.09 1.79 4.2 3.99l.98 18.61a3.783 3.783 0 0 1-3.8 4.02zm-1.52-26.15c-.94 0-1.8.37-2.43 1.03-.63.67-.95 1.55-.9 2.49l.98 18.61c.1 1.95 1.78 3.54 3.73 3.54h.15c.94 0 1.8-.37 2.43-1.03.63-.67.95-1.55.9-2.49l-.98-18.61c-.1-1.95-1.78-3.54-3.73-3.54h-.15z" fill="#fff"/><path d="M274.86 26.69l-.89-3.74h-21.6l-4.7 4.39c-1.3-2.58-3.99-4.39-7-4.39h-6.5c-2.16 0-4.15.94-5.49 2.59h-.02l-.06.1c-.37.47-.68 1-.92 1.56l-5.72 9.77-.02.03a7.024 7.024 0 0 0-1.33 4.56l.98 16.16c.21 4.09 3.72 7.43 7.82 7.43h6.5c2.5 0 4.76-1.26 6.02-3.34l5.9-7.21.06-.08c1.13-1.37 1.7-3.1 1.6-4.9l-.74-14.2h2.71l2.04 30.21h6.85l8.78-8.55h.55l-2.17-23.49 7.37-6.87zm-25.61 22.92c.21 3.96-2.86 7.2-6.82 7.2h-6.5c-3.96 0-7.37-3.24-7.58-7.2l-1.01-19.23c-.21-3.96 2.86-7.2 6.82-7.2h6.5c3.96 0 7.37 3.24 7.58 7.2l1.01 19.23zm20.16 7.2h-6.53l-2.04-30.21h-8.13l-.24-3.42h21.32l.82 3.42h-7.98l2.79 30.21z" fill="#fff"/><path d="M269.67 57.05h-7.02l-2.04-30.21h-8.13l-.27-3.9h21.76l.93 3.9h-8.02l2.79 30.21zm-6.58-.47h6.05l-2.79-30.21h7.94l-.7-2.95h-20.88l.21 2.95h8.13l2.04 30.21z" fill="#fff"/></svg>