<svg xmlns="http://www.w3.org/2000/svg" width="300" height="114" viewBox="0 0 300 114"><path d="M217.35 24c3.29.17 7.62-.45 9-3.91 1-1.44 7.65-17.13 9-11.48.35 2.91-1 5.64-2.2 8.21-.79 1.17.37 1.84 1.09.68 2.23-1.88 12.72-14.81 13.29-6.79-2.43 4.74-7.59 7.74-11.19 11.62-2 2.11 5.86 5.08 6.91 7.53 1.54 1.59.21 6.28-2.32 4.59-10.37-6.3-7.44-13.67-14.58 0-.29.7-1.61 1.75-1.52.29 0-2.38-1.74.11-2.35.78a.86.86 0 0 1-1.52-.76c.16-2.26 1.13-4.28 1.85-6.37 1.12-1.73.2-2.53-1.5-1.49a55.11 55.11 0 0 1-9.17 2.44c-4.67 1-11.81-2.13-9.58-7.83 3.25-7.32 11.19-13.95 19.56-12.2 2.18 0 2.43 2.5.49 3.53-3.68 1.07-7.58 1.42-10.91 3.57-7.65 5.3-.33 8.16 5.65 7.59zM264.63 32.3c-3.75.27-4.53-8.87-3.89-11.48a.34.34 0 0 0-.22-.54c-1.17.3-1.23 2.22-1.87 3.15-.63 1.24-4.58 10.69-6 8.24-.76-.89-1.85.95-2.7.25-.58-.45-.37-1.15-.19-1.73a154.94 154.94 0 0 1 9.78-22.64c2.57-3.25 5.06 5.32 5 7.28.24 3.21 1.23 6.34 1.35 9.58 0 .29 0 .66.4.7 2.38-4.48 3.85-10.19 6.34-14.91.3-.78 3.47-6.15 3.35-3.08-.16.5.64.59.77.22.54-1.28 2.1-1.61 2.63-2.9.12-.31.33-.72.8-.51.91.75.09 2.29-.23 3.19-3.18 6.35-8.33 23.35-15.32 25.18zM212.55 44c3.89.17 8 2.12 9.46 5.73.19 5.47-5.73 9.83-10.65 11.12-1 .23-1.24.7-.74 1.52 1.69 2.78 2.16 5.91 2.57 9 .15 1.94 1.2 4.47-1.66 5-4.51 1.6-3.59-10.16-5.88-11.76-.53 0-.52.51-.68.83-1.81 3.66-3.43 7.4-5.54 10.9-1.09 1.81-2.26 2.27-4.3 1.78-.79-.2-.51-.73-.35-1.16 2.69-7.1 5.8-14 8.81-21 2.26-3.77 3.64-11.82 8.96-11.96zm5 8c.74-2.55-4.74-5.76-6-3.62 0 1.5-6.09 11.59-2.48 10.17 3.1-1.28 7.53-3.04 8.47-6.5zM193.79 41.77c-.22-1.14 1.51-4.78-.92-3.68-.24.1-.48.28-.72.07-.06-4.29 1.78-8.84 2.49-13.18 1-3.38-6.68-.06-8.35-.21-2.9 1.93-3.31 6.51-5.85 9a1.36 1.36 0 0 1-2.28-1.35c.07-2.23 5.21-7.64 3.2-8.73-1.51-1.19 1.34-1.77 2.14-2.14 3.38-2.27 5.21-6.5 8.28-9.27C194.71 9.69 199.28 0 202.83 0c2.42.66 1.63 3.83 1.23 5.66-2.38 9.46-3.3 19.24-6.38 28.54-.36.97-3.68 13.22-3.89 7.57zM199.84 8c.06-.92-.89-1.23-1.08-.27a44.17 44.17 0 0 1-7.31 10.33.77.77 0 0 0 .65 1.38c1.67-.48 4.23.32 4.73-1.88.89-3.18 1.98-6.36 3.01-9.56zM201.22 44.24c.95.1 3.69-.25 3.77.88-.87.51.78 1.65-.63 2.11-6.14 2.15-12.53 4.31-17.43 8.8-8.4 8-1.37 10.09 6.77 8.11 1.58 0 3.88-1.67 5.08-.23.19 2.29-3.22 3.22-4.84 4.24-6.73 3.37-20.49 7.26-16.62-5.44.17-1.05-.12-1.28-1.18-1.08-3.66.61-7.29 1.6-11 1.9a.49.49 0 0 1-.38-.89c2.54-4.48 8.05-4.5 12.67-4.87a2.4 2.4 0 0 0 2.05-1.21c5.05-6.8 12.99-12.48 21.74-12.32z" fill="#fff"/><path d="M237.36 47.09c-.93 8.74-1.89 17.62-5.1 25.79-.31 1.28-5.83 4.18-5.46 1.9.84-4.52 1.82-9 3.1-13.42.8-2.57-4.44-.4-5.79-.61-3.9 1-5.45 7.67-9.66 7.56-4.11-1 8.6-15.09 10.34-16.65 2.68-2.49 5.54-4.76 8.41-7 2.62-2.84 4.63-.82 4.16 2.43zm-8.49 9.07c4.06.56 3.81-3.92 4.35-6.74.05-.28.07-.62-.3-.73-1.95 1.21-3.21 4.27-4.86 6.08-.75.67-.13 1.63.81 1.39zM237.68 72.13c.64-3.82 3.58-6.54 5.55-9.7 2.46-3.66-3.21-10.6-3-15.38-.21-1.58.82-3 1.11-4.51s1.09-.07 1.9.08c1.37-.1 1.5.88 1.66 1.83.52 3.19 1.18 6.35 1.53 9.57 0 2 1.22 2.55 2.05.49 1.26-1.38 12.17-17.6 12.8-13.68-.72 1.73 2.05 1.17 1.26 2.8-2.81 5.14-7.11 9.39-10.09 14.49-1.83 1.76-14.45 23.12-14.77 14.01zM255.9 6.8c-.37 3.56-6.58 22.13-10.37 21.33-.55-.6-1.71-.75-1.44-2.06.92-4.41 2.92-8.41 4.59-12.53 1.21-2.16 5.53-14.11 7.22-6.74zM287.16 2.44c-.13 1.29-3 9.56-4.42 9.09-.36-.24.08-.56.16-.85s.39-.69.07-.89c-.83-.23-1.07 1.76-2 1.28-1.14-1.08 2.4-8 3.45-9.26.85-1.72 3.08-1.81 2.74.63zM155 90.6c11.79.31 23.68.63 35.28 2.92.4.09 1.13 0 1 .63s-.76.37-1.2.32c-7.82-.91-15.64-1.58-23.52-1.82-13.62-.42-27.22.17-40.83.57-1.52.29-7.62 0-8 1.11 12.48-.07 25.78-1 38.55-.86 30.17-.12 60.26 5.18 89.43 12.56 5.6 1.85 11.92 2.86 16.94 5.76-1.45.84-6.7-1.84-8.13 0a1.1 1.1 0 0 1-1.43.47 256.45 256.45 0 0 0-26.21-5.12 448.19 448.19 0 0 0-48.7-6.44c-.59.08-2.19-.44-2.31.35 0 .45.46.39.76.42 4.53.58 9.09.89 13.63 1.32.31 0 .8 0 .81.36-1.38 1.12-3.9.41-5.66.45q-29.48-1.75-59-1.7c-31.92.84-63.61 5.65-94.95 11.5-1.27.39-2.37-.57-3.62-.59-1.67-.07-2.52-2.34-.91-3.2 6.48-4.41 14.35-5.64 21.72-7.79 10.39-2.92 21.1-4.23 31.77-5.65A535.24 535.24 0 0 1 155 90.6zM115.6 46.57c17.85-.33 16.1 14.09 1 18.06-1.23.35-1.35.7-.81 1.81.34 1.12 7.11 12.57 4.46 11.39-1.48-.76 0 1.72-1 2-2.61-.15-7.09-8.48-8.54-10.88-.28-.39-.4-1.12-1-1.11-1.49 1.1-4.71 21.3-5.71 10.75-.07-2.34-3.57-.3-2.56-2.79 1.92-6.16 3.77-12.35 5.75-18.49a67.35 67.35 0 0 1 3.63-9.5c1.02-1.76 2.98-1.13 4.78-1.24zm8.84 8c-.68-3.09-6.37-3.38-9-3.92-1.85 0-2.86 6.15-3.91 7.77-.26.66-.8 1.34-.26 2 1.79 1.08 13.44-3.08 13.17-5.86zM142.18 80.92c.9-8 5.93-12.77 10.65-18.78 1.22-1.31-3.53-9.55-3.63-12.76-.26-1.52-1.25-5.66 1.53-4.68 1.48.1 2.56 0 3.21 1.58 7 16.25.43 9.44 18.26-2.14 9.51-1.71-21 26.78-22.38 29.36-1.44.89-6.82 12.24-7.64 7.42z" fill="#fff"/><path d="M144.76 53.39c.31 1.21-.93 5.75 1.2 5.13.14 0 .41 0 .46.07.4 1 3.23 1.16 1.81 2.4-1.16 1.18-3.76.44-3.73 2.62 0 2-2.39 20.66-5.65 13.29a43.29 43.29 0 0 1 .2-7.72c-.07-1.3 1.73-5.92-.46-5.74-3.12 1.17-7.47-.62-9.84 2.08-1.46 1.39-3.37 6.93-5.59 5.89-.8-.42-.5-1.16-.3-1.74 2.84-7.05 7.64-13.12 13-18.39 5.56-6.72 9.43-9.01 8.9 2.11zm-4.19-.1c.26-1.47-.87-2.24-1.63-.87-1.14 1.85-5 4.59-5.23 6.35a.56.56 0 0 0 .68.26c6.03-1.03 5.97 1.17 6.18-5.74zM91 73.14c-12.23-.35-6.76-14.38-.14-18.81 3.61-2.44 9.91-8.45 14.13-4.7 2.61 3.2-5.26 2.11-8.6 5.08-4.27 2.89-7.86 7.53-7.83 12.84.73 3.67 6 1.5 8.15.39 2-.47 5.63-5.26 6.52-4.36.65.46.39 1 .1 1.57A14.56 14.56 0 0 1 91 73.14zM19.82 42.77A87.7 87.7 0 0 1 20.7 32c.05-.29.26-.7-.14-.87-1.56.31-2.66 3.5-4.16 4.48C13.81 37.37 1.73 54.19 0 47.36 1.67 37.29 6.56 28.09 11 19c2-2.9 3.28-9 7.33-9.12 1 0 1.31.48 1.1 1.4-.78 1.83 1.16 3.61-.06 5.29-3.58 6.62-7.29 13.19-10.54 20-.1.33-.3.78.11 1 1.09.11 1.35-2.26 2-3 3-5 7.9-8.52 11.78-12.83C23.73 21 27.36 16 27.76 19c.72.92-4.55 17.41-1.79 13.08a15.11 15.11 0 0 1 2.22-4.93c3.62-5.43 7-11 11.55-15.69a1.22 1.22 0 0 1 1.84-.15c.88.92-.63 2-.9 2.93-.13.25-.28.59 0 .79 1 .15 1.23-1.62 1.82-2.26.43-1.35 1.81-.7 1.31.57-3.19 8-9.17 14.64-13.29 22.19-1.93 2.21-5.06 11-7.76 10.75-2.61-.62-3.01-1.36-2.94-3.51zM49.17 25.85c1.55-.28 3.4-.42 5.22-.82 2.84-1.36 4.75-6.43 6.88-9 .91-1.34 1.61-1.64 2.85-1.31 3.1.82.16 4.53-.58 6.26-2.67 3.52-9.28 19.9-13.82 18.43a1.68 1.68 0 0 1-.55-1.94c3.07-9.52 4.72-8-5.56-5.94A2.45 2.45 0 0 0 42.2 33c-1.8 3.23-3 7.19-6.81 8.59-3.92 1.35.83-6.59 1.4-7.87C39 30.8 32 31.87 38.3 28.52a3.7 3.7 0 0 0 1.93-2c1.87-3.58 3.59-7.32 6.14-10.52.88-1.14 2.33.37 3.41-.48 3.61-1.67-.78 6.06-1.29 7.12-.76 1.42-2.36 3.56.68 3.21zM73.29 17c.42 1.23-.7 7 1.76 5.32 3.28-2.45 6.19-5.44 9.63-7.65 3.57-.72-2 4.7-2.67 5.44s0 1.35.55.52c1.32-.87 3.25-3.85 4.68-3.74.41 1.56-4 6.1-5.2 7.39-7 6.33-14.52 12.21-20.2 19.83-.63 1.23-4.6 4.53-4 1.22.38-.81.6-1.53-.18-2.3-1.1-1.82 13.44-15.27 11.55-17.34-1-2.51-2.09-13.24 1.8-13 2.42.54 2.36 1.62 2.3 4.36zM124.28 36.19c-4.68.08-11.09-4.27-9.42-9.49 3.25-7.89 12.68-15.65 21.55-12.49 5.45 1.45 9.32 7.2 4.9 12.71-4.31 5.18-10.23 8.81-17.03 9.27zm.67-5.46c5.25.56 18.35-9.32 9.08-12.83-6.68-2.02-22.28 11.3-9.03 12.83zM107.69 12.11c.36 1.36-1.91 13 1.33 9.67 2.81-3 6-5.49 8.72-8.58 1-.77 2.22-2.52 3.56-2.24 1.57 7.6-17 20.57-21.66 27.27-1.29 1.12-7.34 7.21-8.57 5.6-.56-.59-.17-1.16.22-1.67.52-1 2.08-1.84 2-3-.44-.76-1.27.4-1.78-.12-.28-.34 0-.61.24-.85 1.74-3.22 11-8.82 10.44-11.73a54 54 0 0 1-.19-14.92c.14-1.18.55-2.16 1.93-2.34.61-.09.83-.59 1-1.08 2.39-3.63 3 2.25 2.76 3.99z" fill="#fff"/><path d="M142 29.38a4.76 4.76 0 0 1 .69-2.57c1.57-3 1.7-6.68 4.31-9.11 2.11-2 6.06-8.12 9.09-7.65.87 1.23-2.35 2.32-1.67 3.2.34.43.63.07.89-.17 1.08-.66 2.27-2.94 3.64-2.26.19.29 0 .57-.22.79-3.82 4.16-8.37 8-10.31 13.5-.51 1.26-.25 1.95.9 2.75 3.2 1.83 5.21-2.93 6.73-5 .81-1.11 8.07-13.86 8.84-11.37.76.58 1.52-1.94 2.31-2.26 2.91-1.76.44 5.59.14 6.68a33.57 33.57 0 0 1-5.26 9.88c-3.32 4.62-18.64 13.52-20.08 3.59zM46.37 52.88c-.61.64-1.45 0-1.62.84.14 1 1.71 0 1.75 1.15-.39 2.13-3.54 2-5.19 2.63a129.88 129.88 0 0 0-12.76 4.12C19.82 66.27 44.5 69.28 46.8 72c4.21 3.47-2.39 8.45-5.68 9.58-9.47 3.59-19.76 7.32-30 6.33-3.88-1.28 3.57-2.31 4.54-2.68.47-.12 3.9-1 2.07-1.43-.65-.12-1.73.31-2.08-.41.14-1 1.82-1 2.63-1.3 5.27-.88 10.6-1.52 15.72-3.16 16.05-5.43-1.19-2.5-9.29-10.06-2.42-1.87-3.9-4.96-1.71-7.55 5.42-6.7 15.08-9.06 23.37-8.44z" fill="#fff"/><path d="M55.44 74.15c-5.4.58-10.92-4-7.93-9.37A26 26 0 0 1 63.09 53c4.48-1.18 10.52.32 11.79 5.37 2.44 10-11.35 15.63-19.44 15.78zM57 70.48a11.54 11.54 0 0 0 8.13-2.74c2.4-2.3 6.71-6.17 4.44-9.71C64.24 51 41.18 71 57 70.48zM260.37 84c-6.26.22-2.35-7.62 1.86-7.13 2.29.07 3.82 1.33 2.86 3.89a4.72 4.72 0 0 1-4.72 3.24zM136.91 57c.09.59-1.24 1.4-1.25.55.12-.46 1.27-1.55 1.25-.55zM280.71 38.67c-1.35-.83-13.17 2.22-11.15-.3.52-.48 0-1.09-.58-.72-9.16 2.5 15.24-13.76 28.3-3.6 6.06 5 .85 13.79-4.57 17a47.25 47.25 0 0 1-8.34 4.28c-2.24 1.22-5.43 1.11-7.15 3.08-3.13 4.77-6.1 9.67-9.37 14.32-.56.56-1.18.94-2 .33-.6-.48-1.27 0-1.7.49s-.84.77-1.36.34c-.93-1.46 1.11-3.33 1.61-4.75 4-5.46 7.05-15.42 13.37-18 11.39-4.21 26.1-13.52 2.94-12.47z" fill="#fff"/></svg>