<svg xmlns="http://www.w3.org/2000/svg" width="250" height="124" viewBox="0 0 250 124"><path d="M116.78,58.46c-2.34.58-3.45,2.73-3.92,4.91a5.24,5.24,0,0,0,.07,3,3.43,3.43,0,0,0,2.45,2,5.61,5.61,0,0,0,5.51-1.62,6.8,6.8,0,0,0,1.48-3.37,3.56,3.56,0,0,0-.67-3.07A4.67,4.67,0,0,0,116.78,58.46ZM121.07,63a5.88,5.88,0,0,1-.9,2.51,4.16,4.16,0,0,1-3.81,1.71,2.64,2.64,0,0,1-2-1,3,3,0,0,1-.29-2.09c.24-1.61.87-3.5,2.46-4.21a3.29,3.29,0,0,1,3.88.94.49.49,0,0,0,.16.24l.08.09a2.12,2.12,0,0,1,.21.36.83.83,0,0,0,.13.18A2.78,2.78,0,0,1,121.07,63Z" fill="#fff"/><path d="M131.63,61.34a19.18,19.18,0,0,0-2.72.51c-.43.11-.85.24-1.26.38a7.75,7.75,0,0,1-.78.24c0-1-.1-2-.16-3L132,58a.67.67,0,0,0-.36-1.3l-5.41,1.58a.6.6,0,0,0-.27-.06.68.68,0,0,0-.68.68c.25,3.34.34,6.7.28,10.05a.68.68,0,0,0,1.35,0c0-1.69,0-3.37,0-5.06a17.86,17.86,0,0,0,2.16-.64,18.56,18.56,0,0,1,2.55-.51.7.7,0,0,0,.68-.68A.67.67,0,0,0,131.63,61.34Z" fill="#fff"/><path d="M39.9,70.09c-8.38.39-18.55,3-24.75,8.19s-3.63,13.11,3.33,15.07,26,1.74,34.57,6.3,6.52,9.24,0,13.37-22.61,6.2-23.15.87,4.87-6.31,5-8.61c.16-2.66-5.77-2.15-8.92-.3,0,0-8.25,4.13-8,10.22s8.13,7.69,19.77,7.8,28.8-7,32.3-13.22-1.81-11.4-8.92-14.91-24.29-6.43-30.84-7.34-8.81-3.16-3.72-7.45,13.66-5.42,21.91-2.15,7.11,7.23,10.84,6.21,4.63-5.87,1.81-8S48.29,69.7,39.9,70.09Z" fill="#fff"/><path d="M72.17,79.38s-.86-7.1,2-7.19S78,79.38,78,79.38s12.9-.35,17.58,1.3c0,0,2.68,1.3,2.08,6.23s-1.21,5.2-2.6,4.51-9.7-3.9-14.72-3.55a58,58,0,0,1,1,20.44c-1.56,10.74-1.73,13.62-5.54,14.69s-3.38-4.65-2.52-9,2.52-18.62.7-26.24c0,0-7.83-.32-13.69,2.17,0,0-4.07-7.63.61-9.19S72.17,79.38,72.17,79.38Z" fill="#fff"/><path d="M104.22,77.39H108S101.88,87.87,103.27,99c0,0,12-4.15,15.07-5.11S121.72,98,119.47,99l-14.38,6.15s3.72,7.36,11.6,6.07,12.74-6.07,14.47-6.5,0,9.7,0,9.7-11.44,8.83-19.92,7.28S97,109.18,98.42,96.53,104.22,77.39,104.22,77.39Zm7.1,0-3.63,8.22c-1.48,1.22,29.27,4.6,33.6-6.75Z" fill="#fff"/><path d="M170.65,106.4c-1.38-10-6.23-21.48-7.71-25.55s-7.27-9.7-13.07-3.46c-7.22,7.75-13.34,36.55-13.74,40.44s4,4.16,5.85,4.42,4.08.78,3.9-3.12S149,105.36,149,105.36s12.18,11.35,15.38,13.6,4.85,1.13,6.32,0S172,116.36,170.65,106.4Zm-19.83-9.7L155,84.58s7.27,12.47,8.48,20.78Z" fill="#fff"/><path d="M186.5,110.47A135.51,135.51,0,0,1,189.1,87c2.43-11,.09-10.09-1.9-10.87s-3.55,1.48-5.11,6.54-6.93,25.42-7.11,31.4,1.39,6.09,4.33,6.24c12.56.6,26.08-4.07,26.08-4.07s3.29-7.37,1.73-10.14A52.76,52.76,0,0,1,186.5,110.47Z" fill="#fff"/><path d="M222,92l8.32-16a9.74,9.74,0,0,1,8.83.67S223.57,105.88,220,113.85s-6.26,10.48-12.48,9.35l11.88-25.55s-13.34,3.21-16.72-6.15,0-13.77,0-13.77,1.56-2.34,7.54-1C210.24,76.78,207.38,93.41,222,92Z" fill="#fff"/><path d="M24.55,16.32,0,23.87.83,30.6l13.8-3.91v20.2L22,42.64s-2.88-11.13-3.33-17.08l5.93-1.69Z" fill="#fff"/><polygon points="29.86 24.7 31.39 33.32 36.94 29.66 35.52 21.63 40.95 18.33 44.02 43.11 39.3 46.42 37.65 33.55 32.34 36.62 34.7 43.58 29.86 45.83 26.79 26.23 29.86 24.7" fill="#fff"/><polygon points="45.23 20.27 56.98 14.34 57.48 20.89 50.82 23.83 50.99 28.75 56.92 25.75 57.14 28.75 51.55 32.37 52.12 36.65 60.02 32.13 60.02 39.08 47.88 45.91 45.23 20.27" fill="#fff"/><path d="M71.26,6.32,83.52,0a109.62,109.62,0,0,0,6.27,21.4c4.63,11.35,6.09,15.53,6.09,15.53l-8.24,7.29-4.07-15.7L78,33l.56,14.23-9.09,5.25,1.7-36.31,5.59-3.27,1,15.75,4.94-4.52L79.23,8.7l-8.08,4.06Z" fill="#fff"/><path d="M96.68,19.43a133,133,0,0,1,1.18,13.83c-.06,4.63,0,11.35,0,11.35s11-5,12.88-12.31S105.77,17.9,96.68,19.43Zm4.51,16.66-.62-12.71s4.92,1,5.42,5.53S101.19,36.09,101.19,36.09Z" fill="#fff"/><polygon points="112.15 22.53 117.57 18.13 119.66 35.01 123.61 19.22 131.01 14.23 121.58 42.64 116.1 46.08 112.15 22.53" fill="#fff"/><path d="M130.73,19.65l8.92-7.9.28,9.14-5.19,2.89-.06,5.42,5.48-3.5v4.23l-5.37,3.67.06,4.07,5.59-3.79v7.35l-12.87,6.49s2-12.09,2.48-18.69S130.73,19.65,130.73,19.65Z" fill="#fff"/><path d="M143.72,20.22l4.12-3.28,8,17.9,1.47-17,4.29-3.34-1.24,28-6.21,4s-2.46-12-5.16-16l-.49,17.25s-5.19-2.43-5.42-3.5Z" fill="#fff"/><polygon points="163.82 16.04 164.22 24 169.07 21.29 166.87 46.7 172.97 43.71 173.42 19.26 179.29 17.11 179.86 8.13 163.82 16.04" fill="#fff"/><path d="M178.34,22.59,182.18,21S180,36.59,185.51,36.88s5-18.24,5-18.24l4.58-.85V36.48c0,4-3,8.92-8.39,9A9.79,9.79,0,0,1,177,35.07C177.51,28.32,178.34,22.59,178.34,22.59Z" fill="#fff"/><path d="M207.14,33.09s5.25-2.14,5.19-9.2-8.47-9.49-14-6.44c0,0,0,13-.34,16.43s-1.69,13.67-1.69,13.67l5.93-2.09.9-8.53,5.09,7.68,5.3-2.26Zm-3.73-1.63V20.93s3.78.47,4,4.14C207.66,29,203.41,31.46,203.41,31.46Z" fill="#fff"/><path d="M215.78,19.71s1.92,9.71,2,16-.39,11.3-.39,11.3l10.95-5.71L228,34.39l-7,4.12v-6l4.12-1.75L225,26.88l-4,1.86-.39-4.4,5-2.37.51-7.51S220.86,18.41,215.78,19.71Z" fill="#fff"/><path d="M244.47,17.73a7.06,7.06,0,0,0-9.21,0c-5,3.9-4.91,7.57-4.4,9.55s3.84,3.33,8.58,3.44,7.11,3.28,5.48,6.5a6.45,6.45,0,0,1-8.81,2.48,16.38,16.38,0,0,1-4.63-5l-1.13,9.71s3.78,3.84,11.12,1.36,8.47-8,8.53-11.18-3.84-7.46-7.91-7.74-6.55-1.47-4.4-4.69,6,1,6,1Z" fill="#fff"/></svg>