<svg xmlns="http://www.w3.org/2000/svg" width="230" height="121" viewBox="0 0 230 121"><path d="M20.17,4.27a8.42,8.42,0,0,1,1.25,4.61,6.9,6.9,0,0,1-1.26,4.35,6.33,6.33,0,0,1-2.07,1.62,6.55,6.55,0,0,1,3.13,2.75A8.65,8.65,0,0,1,22.28,22a9.19,9.19,0,0,1-1.21,4.72A7.93,7.93,0,0,1,19.14,29a7.05,7.05,0,0,1-3.07,1.45,16.58,16.58,0,0,1-3.83.35L0,30.64V0L13.13.7C16.45.94,18.79,2.13,20.17,4.27ZM5.42,5.58v6.71l6.6.25a4.9,4.9,0,0,0,2.88-.63A2.84,2.84,0,0,0,16,9.32a2.87,2.87,0,0,0-1.46-2.84,8.87,8.87,0,0,0-3.21-.62Zm0,11.75v8.11l6.59.15a5.72,5.72,0,0,0,2.75-.47c1.19-.62,1.79-1.85,1.79-3.7a3.42,3.42,0,0,0-1.73-3.28,6.65,6.65,0,0,0-2.72-.6Z" fill="#fff"/><path d="M34.94,1.87l6.43.35Q46.13,16.86,51,31.48l-6.16-.1c-.71-2.4-1.07-3.6-1.79-6l-10-.24c-.74,2.4-1.11,3.6-1.84,6l-5.94-.1Q30,16.45,34.94,1.87Zm-.38,18.25,7,.21c-1.37-4.62-2.06-6.94-3.43-11.61C36.68,13.26,36,15.54,34.56,20.12Z" fill="#fff"/><path d="M54.44,2.92l5.68.3,0,23.3,13.57.32c0,2,0,3,0,5l-19.24-.31Z" fill="#fff"/><path d="M85.28,4.57l6.42.35q4.72,13.71,9.56,27.39l-6.15-.1C94.39,30,94,28.85,93.32,26.59l-10-.24L81.47,32l-5.94-.09Q80.35,18.21,85.28,4.57Zm-.41,17.08,7,.22c-1.36-4.33-2-6.51-3.41-10.87C87,15.24,86.29,17.37,84.87,21.65Z" fill="#fff"/><path d="M104.68,5.62l6,.31q5.33,9.44,10.74,18.8l.05-18.22,5.29.29-.08,25.93L121,32.64q-5.55-9.5-11-19,0,9.42,0,18.84l-5.29-.08Z" fill="#fff"/><path d="M134.63,9.9A11,11,0,0,1,143,7.19q6.78.38,9.91,4.67a8.92,8.92,0,0,1,1.84,4.73l-5.68-.23a7.4,7.4,0,0,0-1.38-2.79,6.07,6.07,0,0,0-4.49-1.85,5.37,5.37,0,0,0-4.79,2.11q-1.77,2.28-1.78,6.58t1.83,6.49a6.06,6.06,0,0,0,4.69,2.24,5.43,5.43,0,0,0,4.46-1.71A7.43,7.43,0,0,0,149,24.55l5.64.17a10.69,10.69,0,0,1-3.75,6.54,11.27,11.27,0,0,1-7.69,2.45c-3.86-.06-6.9-1.28-9.1-3.69s-3.31-5.74-3.29-9.9C130.84,15.62,132.11,12.2,134.63,9.9Z" fill="#fff"/><path d="M179.39,13.87,165,13.19c0,2.08,0,3.13,0,5.21l13.2.51,0,4.18L165,22.65c0,2.53,0,3.79,0,6.31l15,.35c0,1.72,0,2.58,0,4.3l-20.58-.34.09-24.72,19.93,1.07C179.4,11.32,179.4,12.17,179.39,13.87Z" fill="#fff"/><path d="M209.75,32.08a9.07,9.07,0,0,1-12.89-.26c-1.89-2.26-3-5.52-2.94-9.73s1.17-7.48,3-9.51a7.73,7.73,0,0,1,6.46-2.37,8.69,8.69,0,0,1,6.43,3c1.85,2.18,3,5.36,2.92,9.52S211.66,29.94,209.75,32.08Zm-2.55-3.54a10.38,10.38,0,0,0,1.46-5.93,10.74,10.74,0,0,0-1.4-6,4.71,4.71,0,0,0-3.86-2.3,4.31,4.31,0,0,0-3.91,1.94,10.46,10.46,0,0,0-1.49,6,10.8,10.8,0,0,0,1.43,6.1,4.56,4.56,0,0,0,3.88,2.21A4.39,4.39,0,0,0,207.2,28.54Z" fill="#fff"/><path d="M216,11.62l14,.75c0,1.55,0,2.33,0,3.88L220,15.78c0,2.07,0,3.1,0,5.17l8.72.34c0,1.53,0,2.3,0,3.84L220,24.85l0,9.42-4.08-.06Z" fill="#fff"/><path d="M32.06,67.53c-2.81,2.62-6.84,4.06-12.06,4.23l-10,.35V91.39L0,92V37.67l20.66.17c4.77,0,8.57,1.43,11.4,4.12S36.53,49,36.3,54.41C36.11,58.78,35.7,64.14,32.06,67.53ZM24.4,48.77A7.61,7.61,0,0,0,19.05,47l-9.06,0V62.86l9-.2a7.49,7.49,0,0,0,5.36-2q1.91-1.94,1.91-6C26.31,51.87,25.67,49.93,24.4,48.77Z" fill="#fff"/><path d="M116.37,38.6q2.5,13.29,5,26.56l1.1,7.34c.45-2.91.68-4.36,1.14-7.25Q125.88,52,128.12,38.7l8.56.07q2.25,12.9,4.53,25.8c.47,2.86.7,4.28,1.16,7.13.49-2.78.73-4.16,1.22-6.92q2.61-13,5.26-25.92l8.27.07Q151.5,61.21,146,83.52l-7.76.45Q136,70.8,133.67,57.63c-.53-3.5-.8-5.26-1.34-8.78-.56,3.53-.84,5.29-1.4,8.84q-2.38,13.49-4.76,27l-7.53.44q-5.52-23.28-10.89-46.58Z" fill="#fff"/><path d="M190.7,46.59l-20.55.08c0,3.66,0,5.49,0,9.15L189,55.49c0,2.9,0,4.36,0,7.27l-18.86.54,0,11.09,21.48-1,0,7.49-29.4,1.7q.07-21.81.16-43.62l28.49.23C190.72,42.16,190.71,43.63,190.7,46.59Z" fill="#fff"/><path d="M222.89,40.48a9.75,9.75,0,0,1,3.62,2.77,12.48,12.48,0,0,1,1.93,3.31,11.1,11.1,0,0,1,.69,4.12,12.05,12.05,0,0,1-1.42,5.52,8.25,8.25,0,0,1-4.64,3.95,7,7,0,0,1,3.79,3,12.76,12.76,0,0,1,1.08,6.11c0,1.06,0,1.58,0,2.64a20.91,20.91,0,0,0,.19,3.64,3,3,0,0,0,1.48,2.15v1l-8.95.51c-.24-.86-.42-1.57-.52-2.1a20,20,0,0,1-.32-3.41c0-1.48,0-2.22,0-3.7,0-2.54-.44-4.21-1.25-5s-2.36-1.2-4.62-1.13l-7.92.25q0,8-.08,16l-7.92.45q.1-20.62.2-41.25l18.58.15A16.53,16.53,0,0,1,222.89,40.48Zm-16.8,5.92L206,57.34l8.73-.18a9.26,9.26,0,0,0,3.9-.73Q221,55.25,221,51.9q0-3.61-2.2-4.84a7.72,7.72,0,0,0-3.75-.69Z" fill="#fff"/><path d="M67.21,53C78.5,53,87.69,61.5,87.69,72s-9.19,19-20.48,19S46.72,82.43,46.72,72s9.19-19,20.49-19m0-7.13C52,45.85,39.59,57.54,39.59,72S52,98.08,67.21,98.08,94.82,86.39,94.82,72,82.46,45.85,67.21,45.85Z" fill="#fff"/><path d="M80.88,46.23c11.29,0,20.48,8.51,20.48,19s-9.19,19-20.48,19-20.49-8.52-20.49-19,9.19-19,20.49-19m0-7.14c-15.26,0-27.62,11.7-27.62,26.12S65.62,91.32,80.88,91.32s27.61-11.69,27.61-26.11S96.13,39.09,80.88,39.09Z" fill="#fff"/><rect x="36.97" y="99.83" width="25.09" height="6.35" transform="translate(-64.64 97.54) rotate(-61.59)" fill="#fff"/><polygon points="39.58 121.66 35.09 100.72 41.3 99.38 44.18 112.83 57.78 107.11 60.24 112.96 39.58 121.66" fill="#fff"/><rect x="99.94" y="81.43" width="6.35" height="24.46" transform="translate(-34.68 73.25) rotate(-33.82)" fill="#fff"/><rect x="96.23" y="92.91" width="17.31" height="6.35" transform="translate(-35.59 73.7) rotate(-33.44)" fill="#fff"/></svg>