<svg xmlns="http://www.w3.org/2000/svg" width="250" height="80" viewBox="0 0 250 80"><path fill="#fff" d="M0 42.58h116.56v4.83H0zM0 36V.3h7.67a11.36 11.36 0 0 1 3.71.55 7.09 7.09 0 0 1 2.9 2 7.68 7.68 0 0 1 1.81 3.28 20.74 20.74 0 0 1 .5 5.09 24.58 24.58 0 0 1-.28 4.06 8.36 8.36 0 0 1-1.17 3.1 7.61 7.61 0 0 1-2.81 2.74 9.48 9.48 0 0 1-4.61 1H5.11V36zM5.11 5.11v12.13h2.46a5.2 5.2 0 0 0 2.4-.45 2.87 2.87 0 0 0 1.26-1.25 4.7 4.7 0 0 0 .47-1.86c.05-.73.08-1.55.08-2.45V8.85a5.39 5.39 0 0 0-.45-2 2.85 2.85 0 0 0-1.21-1.31 4.75 4.75 0 0 0-2.3-.45zM20.4 36V.3h8.22q9 0 9 10.48a13.23 13.23 0 0 1-1 5.36 7.54 7.54 0 0 1-3.43 3.56L38.74 36h-5.41l-4.76-15.25h-3.06V36zm5.11-30.89v11.13h2.91a5.11 5.11 0 0 0 2.15-.38 3 3 0 0 0 1.26-1.07 5.1 5.1 0 0 0 .55-1.73 16.73 16.73 0 0 0 .15-2.38 16.78 16.78 0 0 0-.15-2.39 4.75 4.75 0 0 0-.6-1.77c-.64-.94-1.84-1.41-3.61-1.41zM41.75 36V.3H57v4.81H46.86v10.48h8.82v4.81h-8.82v10.47H57V36zM76.83 10.58h-5.11V9.42a5.45 5.45 0 0 0-.82-3 3.08 3.08 0 0 0-2.79-1.28 3.26 3.26 0 0 0-1.7.4 3.18 3.18 0 0 0-1 1 4.11 4.11 0 0 0-.6 1.46 8.91 8.91 0 0 0-.16 1.73 16.84 16.84 0 0 0 .08 1.76 3.33 3.33 0 0 0 .38 1.25 2.71 2.71 0 0 0 .87.95 7.66 7.66 0 0 0 1.58.8L71.47 16a9.41 9.41 0 0 1 2.76 1.53 6.53 6.53 0 0 1 1.65 2 9.26 9.26 0 0 1 .75 2.73 25.93 25.93 0 0 1 .2 3.48 18.44 18.44 0 0 1-.45 4.26 8.79 8.79 0 0 1-1.45 3.28 7.2 7.2 0 0 1-2.76 2.21 9.77 9.77 0 0 1-4.16.8 9.22 9.22 0 0 1-3.46-.65 8.28 8.28 0 0 1-2.75-1.81 8.74 8.74 0 0 1-1.8-2.68 8.16 8.16 0 0 1-.68-3.33v-1.91h5.08v1.61a4.19 4.19 0 0 0 .83 2.53A3.23 3.23 0 0 0 68 31.18a4.47 4.47 0 0 0 2-.38 2.68 2.68 0 0 0 1.13-1.08 3.94 3.94 0 0 0 .52-1.72c0-.65.07-1.38.07-2.18a20.74 20.74 0 0 0-.1-2.3 4.1 4.1 0 0 0-.4-1.46 2.86 2.86 0 0 0-.93-.9 12.19 12.19 0 0 0-1.53-.75L65.11 19a8.12 8.12 0 0 1-4.44-3.59 12.33 12.33 0 0 1-1.13-5.59A13.29 13.29 0 0 1 60.09 6a8.64 8.64 0 0 1 1.66-3.1A7.53 7.53 0 0 1 64.43.78 8.89 8.89 0 0 1 68.31 0a8.5 8.5 0 0 1 3.49.7 9 9 0 0 1 2.73 1.86 7.71 7.71 0 0 1 2.3 5.51zM96.88 25.81V28a8.09 8.09 0 0 1-.62 3.13 8.77 8.77 0 0 1-1.73 2.63A8.42 8.42 0 0 1 92 35.61a7.61 7.61 0 0 1-3.19.68 11.69 11.69 0 0 1-3-.4 7 7 0 0 1-2.71-1.41 7.85 7.85 0 0 1-2-2.58 9.1 9.1 0 0 1-.78-4V8.22A8.71 8.71 0 0 1 80.94 5a7.55 7.55 0 0 1 1.71-2.6A7.67 7.67 0 0 1 85.28.63 8.81 8.81 0 0 1 88.66 0a7.77 7.77 0 0 1 5.87 2.36 8.32 8.32 0 0 1 1.73 2.73 9.34 9.34 0 0 1 .62 3.43v2h-5.11v-1.7a4.15 4.15 0 0 0-.85-2.61 2.78 2.78 0 0 0-2.31-1.1 2.61 2.61 0 0 0-2.53 1.18 6.29 6.29 0 0 0-.63 3v18.23a4.72 4.72 0 0 0 .68 2.6 2.67 2.67 0 0 0 2.43 1.06 3.64 3.64 0 0 0 1.08-.18 3.34 3.34 0 0 0 1.08-.58 3 3 0 0 0 .75-1.1 4.47 4.47 0 0 0 .3-1.75v-1.76zM101 36V.3h8.22q9 0 9 10.48a13.23 13.23 0 0 1-1 5.36 7.62 7.62 0 0 1-3.44 3.56l5.61 16.3H114l-4.76-15.24h-3.06V36zm5.11-30.88v11.12h2.91a5.2 5.2 0 0 0 2.16-.38 3 3 0 0 0 1.25-1.07 4.89 4.89 0 0 0 .55-1.73 16.73 16.73 0 0 0 .15-2.38 16.78 16.78 0 0 0-.13-2.39 4.75 4.75 0 0 0-.6-1.77c-.64-.94-1.84-1.41-3.61-1.41zM122.54 36V.3h5.12V36zM132.62 36V.3h7.67a11.3 11.3 0 0 1 3.7.55 7.12 7.12 0 0 1 2.91 2 7.68 7.68 0 0 1 1.81 3.28 20.74 20.74 0 0 1 .5 5.09 25.72 25.72 0 0 1-.28 4.06 8.2 8.2 0 0 1-1.18 3.1 7.51 7.51 0 0 1-2.8 2.74 9.48 9.48 0 0 1-4.61 1h-2.61V36zm5.11-30.88v12.12h2.46a5.23 5.23 0 0 0 2.4-.45 2.8 2.8 0 0 0 1.25-1.25 4.54 4.54 0 0 0 .48-1.86c.05-.73.08-1.55.08-2.45s0-1.63-.05-2.38a5.2 5.2 0 0 0-.46-2 2.78 2.78 0 0 0-1.2-1.31 4.75 4.75 0 0 0-2.3-.45zM156.37 36V5.11h-5.91V.3h16.94v4.81h-5.91V36zM169.81 36V.3h5.11V36zM179.58 8.72a9.12 9.12 0 0 1 .75-3.81 7.94 7.94 0 0 1 2-2.75 8.35 8.35 0 0 1 2.74-1.61A9.06 9.06 0 0 1 194 2.16a8.22 8.22 0 0 1 2 2.75 9.12 9.12 0 0 1 .75 3.81v18.85a9.07 9.07 0 0 1-.75 3.86 7.8 7.8 0 0 1-2 2.65 8.5 8.5 0 0 1-2.78 1.66 8.9 8.9 0 0 1-6.16 0 8 8 0 0 1-2.73-1.66 7.55 7.55 0 0 1-2-2.65 9.07 9.07 0 0 1-.75-3.86zm5.11 18.85a3.4 3.4 0 0 0 1 2.73 3.8 3.8 0 0 0 4.86 0 3.43 3.43 0 0 0 1-2.73V8.72a3.41 3.41 0 0 0-1-2.73 3.8 3.8 0 0 0-4.86 0 3.38 3.38 0 0 0-1 2.73zM201 36V.3h4.91l7.72 21.5h.1V.3h5.11V36h-4.81l-7.82-21.46h-.1V36zM122.07 78.29V42.6h7.67a11.63 11.63 0 0 1 3.71.55 7.16 7.16 0 0 1 2.9 2 7.68 7.68 0 0 1 1.81 3.28 20.74 20.74 0 0 1 .5 5.09 24.5 24.5 0 0 1-.28 4.06 8.31 8.31 0 0 1-1.18 3.11 7.41 7.41 0 0 1-2.8 2.73 9.48 9.48 0 0 1-4.61 1h-2.61v13.87zm5.11-30.88v12.13h2.46a5.23 5.23 0 0 0 2.4-.45 2.8 2.8 0 0 0 1.25-1.25 4.54 4.54 0 0 0 .48-1.86c0-.73.08-1.55.08-2.45v-2.38a5.44 5.44 0 0 0-.45-2 2.83 2.83 0 0 0-1.21-1.3 4.63 4.63 0 0 0-2.3-.46zM137.83 78.29l8-35.69h4.26l8 35.69h-5.11l-1.51-7.67h-7l-1.51 7.67zm12.63-12.48L148 52.88h-.1l-2.51 12.93zM177.08 52.88H172v-1.16a5.48 5.48 0 0 0-.82-3 3.06 3.06 0 0 0-2.78-1.28 3.21 3.21 0 0 0-1.71.41 3.35 3.35 0 0 0-1.05 1 4.1 4.1 0 0 0-.55 1.48 9.61 9.61 0 0 0-.19 1.67 17.13 17.13 0 0 0 .07 1.75 3.27 3.27 0 0 0 .38 1.25 2.65 2.65 0 0 0 .88.95 8 8 0 0 0 1.57.81l3.91 1.55a9.41 9.41 0 0 1 2.76 1.53 6.53 6.53 0 0 1 1.65 2 9.58 9.58 0 0 1 .76 2.73 27.7 27.7 0 0 1 .2 3.48 18.44 18.44 0 0 1-.45 4.19 8.89 8.89 0 0 1-1.46 3.28 7.25 7.25 0 0 1-2.75 2.21 9.83 9.83 0 0 1-4.16.8 9.18 9.18 0 0 1-3.46-.65 8.32 8.32 0 0 1-2.8-1.75 8.74 8.74 0 0 1-1.83-2.68 8.16 8.16 0 0 1-.68-3.33v-1.91h5.12v1.61a4.18 4.18 0 0 0 .82 2.53 3.23 3.23 0 0 0 2.79 1.13 4.53 4.53 0 0 0 2-.38 2.65 2.65 0 0 0 1.19-1.1 3.86 3.86 0 0 0 .48-1.68c.05-.65.07-1.37.07-2.18a20.74 20.74 0 0 0-.1-2.3 3.8 3.8 0 0 0-.4-1.45 2.86 2.86 0 0 0-.92-.91 13.75 13.75 0 0 0-1.53-.75l-3.66-1.5a8.08 8.08 0 0 1-4.44-3.59 12.32 12.32 0 0 1-1.12-5.58 12.86 12.86 0 0 1 .55-3.81 8.58 8.58 0 0 1 1.66-3.09 7.62 7.62 0 0 1 2.68-2.08 8.94 8.94 0 0 1 3.89-.78 8.58 8.58 0 0 1 3.43.7 9 9 0 0 1 2.73 1.86 7.73 7.73 0 0 1 2.31 5.51zM197.43 52.88h-5.12v-1.16a5.48 5.48 0 0 0-.82-3 3.08 3.08 0 0 0-2.79-1.28 3.17 3.17 0 0 0-1.7.41 3.25 3.25 0 0 0-1.05 1 4.1 4.1 0 0 0-.55 1.48 9.61 9.61 0 0 0-.15 1.73 17.13 17.13 0 0 0 .07 1.75 3.27 3.27 0 0 0 .38 1.19 2.71 2.71 0 0 0 .87.95 8.16 8.16 0 0 0 1.58.81l3.91 1.55a9.41 9.41 0 0 1 2.76 1.53 6.53 6.53 0 0 1 1.65 2 9.26 9.26 0 0 1 .75 2.73 25.81 25.81 0 0 1 .21 3.48 18.42 18.42 0 0 1-.43 4.25 8.72 8.72 0 0 1-1.45 3.28 7.2 7.2 0 0 1-2.76 2.21 9.77 9.77 0 0 1-4.16.8 9.13 9.13 0 0 1-3.45-.65 8.32 8.32 0 0 1-2.76-1.81 8.74 8.74 0 0 1-1.83-2.68 8.16 8.16 0 0 1-.68-3.33v-1.91H185v1.61a4.18 4.18 0 0 0 .82 2.53 3.23 3.23 0 0 0 2.78 1.13 4.47 4.47 0 0 0 2-.38 2.68 2.68 0 0 0 1.16-1.1 3.86 3.86 0 0 0 .48-1.68c0-.65.07-1.37.07-2.18a20.74 20.74 0 0 0-.1-2.3 3.8 3.8 0 0 0-.4-1.45 2.79 2.79 0 0 0-.93-.91 12.68 12.68 0 0 0-1.52-.75l-3.66-1.5a8.08 8.08 0 0 1-4.44-3.59 12.32 12.32 0 0 1-1.13-5.58 13.19 13.19 0 0 1 .55-3.81 8.6 8.6 0 0 1 1.66-3.11 7.53 7.53 0 0 1 2.66-2.06 8.92 8.92 0 0 1 3.88-.78 8.63 8.63 0 0 1 3.49.7 9 9 0 0 1 2.73 1.86 7.73 7.73 0 0 1 2.31 5.51zM201 78.29V42.6h5.11v35.69zM210.71 51a9.19 9.19 0 0 1 .75-3.81 8 8 0 0 1 2-2.75 8.53 8.53 0 0 1 2.73-1.61 9.07 9.07 0 0 1 8.95 1.61 8.34 8.34 0 0 1 2 2.75 9 9 0 0 1 .76 3.81v18.87a8.92 8.92 0 0 1-.76 3.86 7.91 7.91 0 0 1-2 2.65 8.6 8.6 0 0 1-2.78 1.62 8.93 8.93 0 0 1-6.17 0 8 8 0 0 1-2.73-1.66 7.64 7.64 0 0 1-2-2.65 9.07 9.07 0 0 1-.75-3.86zm5.11 18.85a3.38 3.38 0 0 0 1 2.73 3.63 3.63 0 0 0 2.43.88 3.67 3.67 0 0 0 2.43-.88 3.41 3.41 0 0 0 1-2.73V51a3.42 3.42 0 0 0-1-2.73 3.67 3.67 0 0 0-2.43-.88 3.63 3.63 0 0 0-2.43.88 3.4 3.4 0 0 0-1 2.73zM232.16 78.29V42.6h4.91l7.72 21.5h.1V42.6H250v35.69h-4.81l-7.82-21.45h-.1v21.45z"/></svg>