<svg xmlns="http://www.w3.org/2000/svg" viewBox="0 0 280 65"><path d="M140.42 49.25V18.73h8.23V63.9h-8.11l-22.06-30.58V63.9h-8.23V18.72h8.36l21.82 30.52zM49.57 18.96v45.17h8.23V48.91h7.63l10.54 15.22h9.93L74.76 47.82c9.41-4.1 12.82-15.64 5.8-23.66-2.04-2.33-6.21-4.83-9.32-5.2H49.56zm8.24 8.22h12.72c.27 0 2.06.96 2.43 1.2 4.58 2.98 3.95 9.09-.78 11.56-.25.13-1.79.77-1.89.77H57.82V27.18zm185.86-8.22v45.17h8.23V48.91h7.63l10.54 15.22H280l-11.14-16.31c9.41-4.1 12.82-15.64 5.8-23.66-2.04-2.33-6.21-4.83-9.32-5.2h-21.68zm8.23 8.22h12.72c.27 0 2.06.96 2.43 1.2 4.58 2.98 3.95 9.09-.78 11.56-.25.13-1.79.77-1.89.77h-12.47V27.18zm-75.09 36.95c2.03 0 6.5-1.75 8.36-2.77 15.45-8.45 15.55-30.96.16-39.54-1.76-.98-6.38-2.86-8.28-2.86h-19.98v45.17h19.74zM165.06 27.3l.36-.36h9.45c9.96 0 16.43 11.41 12.66 20.35-1.5 3.57-6.96 8.63-10.96 8.63h-11.5V27.3zM32.25 51.93C21.93 61.26 5.96 52 8.88 38.28c2.49-11.75 17.86-14.86 25.19-5.56l6.19-4.94.12-.61C28.86 13 5.69 17.65.89 35.39-5.63 59.45 25.5 74.62 40.73 55.32V38.29H25.35l-.36.36v8.09h7.27v5.19zm171.82-32.97v45.17h32.21v-8.21H212.3V45.29h20.34v-7.85l-.36-.36H212.3v-9.9h23.98v-8.21h-32.21zm-111.62-.24v45.41h8.23V18.72h-8.23zM57.93 0v12.47h2.26V7.3h5.26l.1.1v5.07h2.19V0h-2.19v5.04h-5.36V0h-2.26zM70.5.07v12.4h8.83v-2.25h-6.57V7.29h5.58V5.14l-.1-.1h-5.48V2.31h6.57V.06H70.5zM46.19 0v2.19h3.92v10.18l.1.1h2.06l.1-.1V2.19h3.92V0H46.2z" fill="#fff"/></svg>