<svg xmlns="http://www.w3.org/2000/svg" viewBox="0 0 300 54"><path d="M156.73 41.29l3.46 11.74h-11.84c-.23-.16-.33-.35-.44-.6-1.45-3.13-2.06-7.39-3.44-10.55-.21-.48-.42-.7-.95-.77-1.73-.23-5.61-.11-7.45 0-.54.03-1.06.23-1.61.2-.76 1.37-4.23 11.26-4.9 11.59s-1.15-.04-1.77-.05c-2.91-.05-6.56.31-9.35.02-.26-.03-.43-.01-.59-.27l11.16-26.84c.13-.77-2.36-2.49-2.36-3.45h45.89c.1 0 .51.45.32.65l-7.23 18.34h-8.9zm2.24-13.46l-18.72-.14-3.36 7.65c.06.85 2.86.25 3.49.25 2.08-.01 4.18.18 6.22.19 3.04.01 6.09 0 9.13-.04.38-.11.71-1.11.89-1.52.67-1.52 1.81-4.16 2.25-5.69.07-.23.11-.45.08-.69zM252.56 52.86c-.13-.04-.26-.28-.27-.44l7.36-26.13c.04-.49-1.96-2.33-2.42-2.95-.14-.18-.4-.2-.09-.43 5.18-.1 10.4-.26 15.56.18l12.36 15.62 4.15-15.54h10.11l-6.91 29.26c-.66.04-1.33.22-1.98.26-2.55.16-6.67.22-9.17 0-.28-.02-.57-.02-.82-.17l-12.48-15.89-4.58 15.96c-.22 0-.65.26-.78.26h-10.02zM206.33 53.03l3.28-10.7H189.3l-4.06 10.7h-11.58l7.63-20.95 9.64-5.74c.07-.23-.04-.34-.15-.51-.55-.81-2.1-1.96-2.61-2.74-.14-.21-.21-.34-.16-.61h24.81l2.49.44 8.45 8.48-7.14 21.63h-10.28zm-15.04-17.26h18.75c.21 0 1.05-.67.7-1.03l-7.09-7.08c-.28 0-2.46 1.32-2.91 1.58-1.92 1.13-8.12 4.6-9.19 6.01-.13.17-.33.22-.26.52zM118.27 22.31l.23.4-2.34 4.92-14.32.2-11.23 24.86H79.72c-.06 0-.26-.23-.43-.17L90.05 28.3l-.04-.64H63.65c-.08 0-.54-.2-.61-.29-.19-.22-1.68-3.89-1.81-4.37-.06-.23-.12-.45-.08-.69h57.12zM41.97.56c-1.82 5.85-.98 10.9 1.87 16.17 4.19 7.74 12.44 17.18 7.32 26.41-.86 1.56-3.87 5.69-5.21 6.71-.46.35-.59.41-.91-.14-1.05-1.82-.89-4.47-2.73-6.08s-3.78-1.39-5.89-1.92c.11-2.32.13-4.68.62-6.96 1.68-.82 3.77-1.03 4.89-2.71 1.65-2.47.15-6.12-1.15-8.46-.79-1.42-2.03-2.64-2.71-4.03-2.3-4.74-1.31-10.95 1.15-15.41.31-.56 1.88-3.16 2.2-3.46.19-.17.29-.12.53-.11zM27.08 34.58l-.58 7.06c-1.2.44-2.45.31-3.68.64-4.14 1.12-4.34 4.64-6.54 7.63-.27.06-.42-.29-.56-.45-3-3.47-5.09-8.81-4.09-13.35C14.16 24.56 27.4 17.07 28.14 5.14c.1-1.59-.15-3.18-.09-4.75 3.86 5.45 4.25 12.99.81 18.76-.78 1.31-1.59 1.84-2.44 2.91-3.3 4.15-7.33 10.82.66 12.53zM228.97 52.86l.08-.87 8.04-25.82c.03-.69-2.02-2.28-2.43-2.91-.14-.21-.21-.34-.16-.61l14.62.34.07.25-9.07 29.62h-11.15z" fill="#fff"/><path d="M43 .04c6.91 16.1 13.46 32.35 19.76 48.7.58 1.68-1.55 3.16-2.6 4.25-1.03-.08-2.09.17-3.07.22-2.89.12-7.81.31-10.56 0-.26-.03-.44-.02-.6-.27 3.64-4.61 7.95-9.51 8.3-15.7.35-6.09-2.6-12.61-5.51-17.81-3.16-5.65-7.12-9.87-6.6-16.89.02-.29.3-2.9.87-2.49zM27.62.21c.34 5.33-1.92 9.37-4.87 13.52-5.54 7.82-13.36 16.22-12.59 26.62.32 4.29 3.23 8.64 5.37 12.24-.11.58-1.9.1-2.33.08-3.72-.12-7.45.04-11.15-.43C1.66 52.08.06 49.7 0 49.27l.1-.51C8.74 32.42 17.89 16.35 27.09.32l.53-.11zM88.2 16.09c-.14-.04-.32-.33-.26-.52 2.78-.13 2.24-5.75 2.25-6.12.03-1.03.18-4.59-.04-5.32-.18-.59-1.03-.58-1.48-.77-.7-.31.21-.53.56-.56 1.55-.14 5.08-.31 6.55-.15 4.95.52 6.59 5.46 1.5 7.24-.21.3 1.1 1.98 1.38 2.32 1.26 1.54 2.65 2.66 4.48 3.46-.16.25-.33.24-.59.27-.61.06-1.68.17-2.26.18-1.64.02-2.42-1.17-3.37-2.35-.84-1.04-1.55-2.28-2.33-3.36-.55-.51-1.32-.32-1.99-.34v4.57c0 .57 1.41.92 1.9.95.1.11-.16.52-.26.52h-6.05zM93.25 3.7c-.75.22-.43 2-.47 2.64-.05.93-.22 2.6.62 2.67 2.38.36 4.8-.68 4.15-3.45-.41-1.73-2.81-2.29-4.3-1.85zM190.86 2.98s.16-.15.43-.1c.23.04.66.37.87.53l8.29 8.72c-.27-2.75.76-8-2.94-8.63-.09-.13.16-.52.26-.52h5.36s.39.18.43.26c-.29.69-1.83.29-2.06 1.92-.16 1.1.08 3.58.16 4.82.11 1.7.59 3.85.53 5.53-.02.58-.15.94-.8.96L191.02 5.93c-.31 1.11.05 2.27.09 3.36.06 1.39-.17 4.96 1.03 5.87.48.36.99.29 1.46.44.74.25.52.61-.16.69-2.04.23-4.25-.36-6.32-.18.32-1.07 2.11-.24 2.51-1.54.28-.9.13-5.26.08-6.49-.04-1.06-.26-2.26-.27-3.36-.3-.63-2.2-.88-2.74-1.23-.21-.13-.33-.22-.28-.5 1.47.02 2.94-.03 4.41 0zM254.81 3.67l9.16 9.15c-.16-1.49-.2-3.06-.46-4.55-.17-.98-.49-2.74-1.27-3.39-.41-.34-1-.38-1.43-.64-.18-.11-.3.01-.22-.39h5.44c.07 0 .35.21.09.43-.73.61-1.6.09-1.73 1.73-.22 2.69 1.13 7.04 1.22 10.01.03 1-.36 1.27-1.24.71-3.02-3.7-6.35-7.12-9.92-10.28 0 1.75.18 3.83.45 5.59.14.92.45 3.08 1.19 3.64.67.51 1.69.19 2.07.95h-6.74v-.52c2.5-.13 2.5-.59 2.42-2.85-.05-1.49-.37-3.16-.52-4.66-.07-.73.06-2.74-.33-3.29-.37-.29-.8-.49-1.23-.67-.56-.24-1.67-.28-1.72-.95h4.75zM72.9 5.31l-.35.18c-.5-.07-.87-1.68-1.23-2.22-.91-1.37-2.6-1.58-4.13-1.42l-.85 12.07c.18 1.85 1.54 1.16 2.41 2.18-.96.39-1.8 0-2.67 0-1.38-.02-2.77.12-4.13.11-.15 0-1.16-.1-.81-.45 1.18-.21 2.16-.49 2.41-1.83.1-3.28.59-6.56.7-9.83.02-.46.11-2.06-.16-2.26-2.94-.27-4.15 1.26-5.36 3.64l-.44-.09c-.21-.32.25-4.05.61-4.4.59-.57 10.87-.57 13.4-.27.25.03.44.02.6.27V5.3zM131.84 15.58c.6-.17 1.8-.38 1.9-1.13.05-.38-1.13-3.6-1.4-3.94-.14-.18-.17-.23-.41-.28-.55-.1-2.69-.08-3.29 0-.3.03-.39.01-.58.28-.16.23-1.38 3.42-1.38 3.61 0 1.14 2.29 1.25 1.89 1.81-.53.25-5.54.32-5.53-.09s1.08-.75 1.48-1.11c.88-.81 4.55-8.97 5.06-10.49.14-.43.12-.64.11-1.08l1.91-.7c.42.04.63.74.81 1.1.98 2.04 3.78 10.65 5.07 11.51.2.14 2.27.78.87 1.03-1.25.22-2.57-.2-3.8-.18-.88 0-2.17.66-2.68-.33zm-3.11-6.39h2.85l.18-.35-1.4-3.27c-.3-.08-.53.69-.63.92-.17.36-1.17 2.55-1.01 2.71zM297.24 8.5c-.49.44-1.76-1.68-2.07-1.99-1.96-1.99-5.13-2.5-6.64.29-2.59 4.78 2.61 12.29 8.02 8.83-.25-1.88-.01-3.61-2.42-3.68-.03-.19 0-.32.17-.43.47-.3 4.08.36 4.93.08l.77.27c-1.4.62-1.63.41-1.55 2.07.05 1.05.83 2.08-.35 2.59-2.3 1-4.97 1.23-7.35.44-4.18-1.39-7.24-6.52-4.44-10.49 2.24-3.17 6.61-2.84 9.89-1.68l1.04 3.71zM28.57 34.91h6.74c.06 0 .2.19.24.29.13.41-.26 2.78-.32 3.43-.09.97.18 2.18-.43 3.02h-6.74c-.24-.15-.25-.35-.28-.6-.04-.49.14-2.13.19-2.76.03-.44.24-3.37.6-3.37zM165.71 2.8c-.28.92-1.59.44-1.86 1.68.06 2.52-.02 5.23.13 7.74.1 1.74.09 3.35 2.25 3.36v.51h-6.48c-.1 0-.36-.4-.26-.52.8-.12 1.73-.17 1.89-1.13.27-1.66.12-5.94.02-7.76-.03-.53-.17-2.21-.37-2.56-.47-.84-1.7-.44-1.88-1.31h6.57zM231.39 16.44h-6.31c-.07 0-.35-.21-.09-.43.73-.61 1.52.15 1.71-1.57.16-1.38-.32-5.14-.5-6.72-.11-.94-.21-3.17-1.05-3.61-.44-.24-1.38-.09-1.37-.79h6.14l.18.35c-.29.43-1.46.18-1.64 1.13l.52 7.76c.26.92.06 2.43.97 3 .48.3 1.43.21 1.45.89zM66.68 35.6h8.9l.19.36-2.03 4.54c-.29.42-.64.42-1.1.46-.69.06-3.69.11-4.07-.27-.16-.16-1.71-3.81-1.82-4.22-.08-.29-.11-.57-.08-.87z" fill="#fff"/></svg>