<svg xmlns="http://www.w3.org/2000/svg" viewBox="0 0 272 87"><path d="M120.82 46.53l-3.04-3.89c-.08-.1-.17-.38-.17-.49 1.47 1.28 2.4 2.93 3.21 4.38z" fill="#fff"/><path d="M117.61 42.14l-1.16-.77c-5.79-5.25-14.37-6.5-21.51-3.2-3.6 1.67-6.52 4.22-8.61 7.63-1.61 2.62-2.75 5.42-3.13 8.49-.22 1.81-.32 3.44-.14 5.28.46 4.76 2.49 9.12 5.79 12.65 4.05 4.33 10.35 6.75 16.34 6.11 4.38-.47 8.41-2.35 11.61-5.32 7.34-6.83 8.75-17.67 4.02-26.49 1.3 1.67 1.87 3.71 2.48 5.78.74 2.51.8 5.06.51 7.72-.56 5.13-3.02 9.68-6.73 13.24-2.8 2.68-6.22 4.42-9.98 5.32l-2.62.4-3.6.39-1.12-.12c-2.84-.32-5.58-.85-8.17-2.08-4.33-2.06-7.71-5.44-9.97-9.64-1.84-3.43-2.57-7.15-2.38-11.06.11-2.26.62-4.36 1.37-6.49l1.3-2.57c2.88-5.7 9.02-10.09 15.27-11.1l4.02-.23 3.56.06 1.93.18 2.48.62c2.53.63 6.73 3.14 8.45 5.22zm-36.2 8.01l2.01-.26c.91-2.56 2.16-4.63 3.74-6.7.07-.09.14-.27.09-.33-.03-.04-.26-.15-.31-.14l-1.03.24c-.57.37-3.3 3.83-4.5 7.19zM148.57 24.06c-3.01 3.07-4.7 3.82-8.88 4.5s-8.4-1.31-10.69-5c-1.59-2.57-2.01-5.6-1.54-8.62.42-2.72 2.5-5.85 4.9-7.16l2.29-1.25c3.76-2.06 8.26-1.72 11.65.83 1.84 1.38 3.18 3.05 3.95 5.22.34.96.67 1.92.64 2.94l-.06 2.67c-.04 1.54-1.45 5.05-2.27 5.88zm2.31-7.37c0-6.06-4.91-10.97-10.97-10.97s-10.97 4.91-10.97 10.97 4.91 10.97 10.97 10.97 10.97-4.91 10.97-10.97zm-22.22-2.64l1.18-3.34c-.96.83-1.7 2.74-1.97 4.1.46-.06.65-.37.79-.76z" fill="#fff"/><path d="M116.89 53.97c-.05-.58.3-1.34-.07-1.88-.3-.42-1.19-.47-1.7-.45l-2.8.13-2.01.18-.65.06c-.16.01-.27.41-.27.61l-.06 5.39-.35 1.8-5.71.1-3.29.1c-.15 0-.56-.16-.55-.3l.06-.61-.88-.08c-.22-.02-.19-.8.02-.8l5.47-.06c.33-.17.65-.91.65-1.28l.03-5.18c-.3-.23-.73-.35-1.1-.34l-4.64.15c-.17 0-.68-.11-.68-.28v-.67l-.81.32c-.18.07-.47-.31-.49-.61l3.78-2.07-1.92-.13c-.17 0-.52-.33-.49-.5s.36-.35.56-.46c.09-.49.28-1.08.71-1.42 1.72-1.38 4.07-1.68 6.02-.7 1.14.57 1.88 1.6 1.77 2.92l-1.91.04c-.09 0-.36.29-.35.33l3.44 1.57c.08.03.51-.08.46-.13l-.31-.31c-.14-.14-.36-.43-.37-.61 0-.23.49-.41.74-.39l1.62.12.17 1.78 3.67-.03 2.79-.06c.27.38.5.55 1.02.67l.22 3.43.31 1.5-.24 1.47-.46 1.46-3.64.14-3.9-.04c-.2 0-.58-.26-.58-.43 0-.23.32-.51.58-.51l2.22-.04c1.07-.02 2.34-.45 3.32-.82.91-.7.7-2.1.62-3.06zm-12.26-7.03c-1.07-1.7-4.08-1.51-4.93.28l3.65-.11 1.28-.18zM100 50.58l4.4-.13c.6-.8-.55-2.09-1.48-2.51-.21-.1-.56.42-.79.55l-3.46 1.91c.43.25.81.19 1.33.17zM119.75 65.79l.43-2.36.25-1.46.21-1.8V57.4l-.19-1.69-.5-3.08c-.25-1.53-.59-3-.26-4.6.92-.28 1.79 1.99 2.14 3.35.76 2.98.82 5.94.32 8.94l-.46 2.76c-.17.99-.75 2.63-1.45 3.08-.11.07-.52-.22-.49-.37zM101.79 39.08c-1.71.02-3.25.41-4.76 1l-1.23.49-1.45.42c-.16.05-.51-.01-.61-.12s-.07-.55.04-.65c1.74-1.47 4.07-1.93 6.41-2.38l2.09-.15c3.04-.22 5.93.23 8.74 1.43.2.08.41.21.52.31s-.1.6-.25.64l-6.37-1.02-3.13.03zM85.51 60.27l.07 2.54c0 .12-.14.39-.25.43-.97.41-1.45-4.54-1.15-7.08l.23-1.94c.34-2.86 1.22-5.5 2.68-7.99.21-.36.44-.68 1.05-.54.11.32 0 .97-.17 1.38l-.5 1.24c-1.15 2.86-1.71 5.84-1.96 8.92v3.04zM110.53 75.48c-4.15 1.65-9.41 1.6-13.59.21-2.03-.68-4.64-2.25-2.87-2.35 2.77 1.79 5.98 2.54 9.29 2.47 2.38.07 4.62-.24 6.82-1.11l.48.21c.12.05 0 .35-.12.57zM90.03 55.09l-.59 1.1c-.25.46-.29.96-.36 1.49l-.05.42c-.01.11-.47-.05-.52-.16-.35-.77.05-2.83.82-3.1v-3.02c-.02-.54.32-1.11.74-1.35h4.64l.43.39c.12.11-.36.45-.53.43-.98-.1-2.12-.07-3.14.03l-1.23.12c-.58 1.52.3 2.71-.22 3.66zM114.48 45.25l-.99-.69c-.34-.73-.07-1.57-.64-1.58-.5 0-.3.43-.8.8-.59.45-.33-1.04-.59-1.3-.48-.47-1.21-.54-1.22-.51l-.28.44-.38.45c-.11.13-.64-.16-.58-.34.37-1.04 1.1-1.89 1.76-1.58.16.07.31.52.48.54l.91.09c.18.02.3.35.46.66.57-.22 1.34.06 1.43.75l.19 1.51.56-.71c.11-.14.39-.28.54-.28s.29.45.23.59c-.16.44-.66.99-1.07 1.15z" fill="#fff"/><path d="M108.61 42.19c-.22.19-.76.44-.98.36-.24-.09-.57-.38-.85-.62l-.1.64c-.02.15-.57.17-.62.02l-.41-1.5c-.25-.11-1.12-.17-1.4-.01-.23.43-.57.89-.93.77-.34-.7.36-1.95 1.1-1.93.46.06.77.15 1.32.09.34-.04.7.54.75.85l.66-.46c.14-.09.41.36.45.52l.1.48c.03.13.42.13.55.17l.39.12c.1.03.06.42-.02.49zM113.18 71.27c-.18.21-.54.57-.73.61-.34-.14-.34-.88-.11-1.14.26-.3.72-.36 1.28-.4l-.39-.33c-.09-.07-.09-.34-.04-.45.06-.13.53-.15.66-.07l1.15.63.74-.97-.18-1.2c.75-.41 1.34 1.12 1.18 1.62-.07.22-.57.42-.7.61l-.56.8c-.14.2-.77-.04-1.05-.19l-.06 1-1.19-.53zM96.5 58.74l-2.75-.07-3.4-.06c-.15 0-.48-.23-.45-.38s.28-.29.48-.37h6.19l.3.37c.09.11-.24.5-.38.5zM98.38 57.33c-.07.24-.16.51-.27.6s-.49-.03-.6-.14v-4.83c0-.15.22-.56.33-.48l.51.38.03 4.48zM94.17 45.16l-.68-.04v-1.99l.76-.17-.14-1.09c-.01-.11.29-.32.39-.33.13-.01.41.22.44.35l.42 2.07-1.13-.18-.06 1.39zM96.51 43.54c-.05.15-.66.08-.67-.09-.04-.53-.08-1.4.05-1.88.13-.52 1.13-.65 1.46-.43.12.08.14.55 0 .6l-.76.23-.07 1.57zM99.24 42.3c-.02.12-.21.35-.3.42s-.51-.11-.5-.23l.14-1.78c.01-.17.26-.5.42-.56.18-.07.54.36.5.56l-.25 1.59zM101.5 42.18l.27-.91c.08-.27.18-1 .51-.96.48.06.47.81.35 1.22-.14.5-.36.88-1.13.65zM117.56 67.48c.05.1.13.38.15.47s-.37.1-.46.08c-.73-.12-1.01-1.02-.87-1.72.08-.15.55-.09.63.08l.55 1.08zM89.57 65.88c-.31.23-1.02.42-1.38.38-.16-.02-.44-.33-.43-.48.02-.17.31-.35.53-.42.56-.17 1.17-.1 1.28.51zM88.15 64.46c-.36.33-1.16.47-1.22.17-.13-.71.82-1.15 1.39-1 .08.18 0 .68-.16.83zM101.07 40.37l.12.7c.03.15-.47.31-.58.2-.26-.24-.48-.93-.45-1.27.05-.13.5-.29.62-.2s.26.4.29.56zM89.57 68.14c-.16.09-.53-.19-.57-.36-.05-.19.1-.59.28-.63.33-.06.63.8.29.99zM139.15 17.56l.21 3.54c.01.17-.26.55-.41.58s-.37-.32-.41-.49l-.07-3.69c.5-.01.79-.16.87-.62l1.26-.09c.16-.73.21-1.36.12-2.07-.9-.13-1.43-.15-2.21-.05l.03 1.97c0 .17-.19.46-.34.46s-.33-.28-.34-.45l-.12-1.69c-.04-.51.3-1.01.72-1.22l-.77-1.62c-.11-.23.09-.83.27-.99.66-.6 1.39.56 2.08.01l1.17.06.75-.02c.47-.01.95 1.48-.26 2.55.82 1.28.67 2.7-.04 4l-.12 1.96-.11 2.91c-.02.58.05 1.05-.48 1.47-.61.49-1.29.54-1.84-.03-.43-.45-.43-1.45.26-1.77l.93-.14-.08-2.14-.24-2.37-.82-.07zm.94-3.7c.17 0 .48-.28.52-.43s0-.57-.16-.61c-.49-.12-1.21.04-1.31.34-.06.17-.03.71.14.7h.8zM146.82 23.11l.47-1.07c.56-1.28.87-2.56.99-3.98l-.04-2.38-.12-2.27c-.13-2.36-3.77-4.61-1.76-4.62l1.88 1.89c1.39 1.39 1.72 3.39 1.9 5.33.23 2.47-.34 4.8-1.82 6.82l-1.12 1.12c-.1.1-.51-.1-.52-.24s.07-.44.14-.61z" fill="#fff"/><path d="M143.79 20.65c.94-.72 1.76-1.56 2.37-2.43l-.44-1.18c-.5-.16-.85-.41-1.06-1.1-.47.54-.89 1.22-1.1 1.98l-.58 2.09c-.06.21-.12.46-.23.56s-.46-.02-.61-.12c.29-2.1 1.03-4.03 2.26-5.7.61-.67 1.51-1.19 2.35-.7.24.29 0 1.12.11 1.45l.47 1.24c.11.28.57.71.53 1.04-.18 1.38-1.77 1.81-2.33 2.85l-.8 1.49c-.09.17-.47.36-.65.38s-.55-.32-.52-.5l.22-1.36zM131.15 19.55l.88 2.04c.06.13.04.49.01.61s-.47.13-.58.05c-.32-.22-.61-.82-.79-1.26-1.17-2.89-1.24-6.08.14-8.89.09-.18.29-.37.43-.41s.56.1.52.25l-.16.65-.46 1.56v5.41zM134.34 16.41l-.6-.09c-.41-.06-.12 1.01-.58 1.65.41.83 1.6.92 1.17 1.96l-1.56-1.23c-.21-.16-.47-.54-.52-.78-.07-.34.29-.75.38-1.02.19-.58.36-1.04.67-1.51-.03-.24-.11-.7-.06-.91.05-.23.62-.48.86-.46 1.86.13 3.04 2.59 3.7 4.47.19.54.16 1.32.1 1.88-.18.04-.47.08-.5-.03l-.16-.49c-.27-1.57-.7-3.1-1.78-4.27-.4-.44-.71-.84-1.45-.8.1.78.99.85.86 1.61-.02.13-.41.03-.54.01zM141.92 7.28c-2.75-.42-5.4.1-7.56 1.74l-.42-.02c-.09 0-.12-.26-.13-.36 1.1-1.17 2.54-1.79 4.11-2.06 2.05-.44 4.07-.25 6.04.53.19.08.35.44.31.63-.04.17-.48.21-.65.15l-1.7-.61zM144.88 25.71c-1.18 1.2-4.5 1.6-6.49 1.29s-4.2-1.63-2.86-1.9c1.83 1.14 3.88 1.29 6.02 1.02.95-.09 2.15-.56 2.89-.87l.35-.08c.08-.02.16.48.1.54zM144.19 11.13l.12-1.21c-.21.3-.71.95-1.01.82l-.92-.41c0-.2.06-.69-.07-.82l-.6-.56c-.06-.17.46-.41.65-.35.95.32.81 1.15 1.26 1.15.21 0 .57-.13.83-.25.37-.17.82.32.77.8-.02.24-.13.59-.24.73s-.59.16-.78.09z" fill="#fff"/><path d="M136.4 21.87c.47.91 1.3.61 1.27 1.34-.02.4-1.39.53-2.3-1.5l-.57-1.28-.11-.31c-.12-.34.65-.31 1.72 1.76zM136.33 10.58l-.7-1.05c.07-.18.54-.39.67-.28l.53.44c.23-.32.54-.68.78-.82.37.47.13 1.22-.14 1.46l-1.13.25zM141.76 9.52c.17.14-.06.83-.33.9-.35.09-.93-.02-1.02-.29l-.38-1.22c-.02-.13.34-.35.46-.28.6.33.4.87 1.26.89zM139.63 8.84c.12.59-.19 1.24-.76 1.22-.4-.02-.66-.8-.5-1.22h1.27zM102.85 36.79c11.31 0 20.5 9.3 20.5 20.74s-9.2 20.74-20.5 20.74-20.5-9.3-20.5-20.74 9.2-20.74 20.5-20.74m0-.62c-11.67 0-21.12 9.56-21.12 21.36s9.46 21.36 21.12 21.36 21.12-9.56 21.12-21.36-9.46-21.36-21.12-21.36z" fill="#fff"/><path d="M139.96 5.67c5.95 0 10.8 5.06 10.8 11.29s-4.84 11.29-10.8 11.29-10.8-5.06-10.8-11.29S134 5.67 139.96 5.67m0-.31c-6.13 0-11.11 5.19-11.11 11.6s4.97 11.6 11.11 11.6 11.11-5.19 11.11-11.6-4.97-11.6-11.11-11.6z" fill="#fff"/><ellipse cx="142.09" cy="34.11" rx="13.16" ry="1.26" fill="none" stroke="#fff" stroke-miterlimit="10" stroke-width=".31"/><path d="M155.26 34.11v2.36c0 .7-5.89 1.26-13.16 1.26s-13.16-.57-13.16-1.26v-2.36" fill="none" stroke="#fff" stroke-miterlimit="10" stroke-width=".31"/><ellipse cx="142.09" cy="34.11" rx="13.16" ry="1.26" fill="none" stroke="#fff" stroke-miterlimit="10" stroke-width=".31"/><path d="M153.35 45.03v1.63c0 .7-5.89 1.26-13.16 1.26s-13.16-.57-13.16-1.26V44.3" fill="none" stroke="#fff" stroke-miterlimit="10" stroke-width=".31"/><path d="M141.73 45.46c-7.27 0-14.7-.48-14.7-1.17 0-.31 1.18-.6 3.15-.82" fill="none" stroke="#fff" stroke-miterlimit="10" stroke-width=".31"/><path d="M156.5 41.84v2.36c0 .7-5.89 1.26-13.16 1.26s-13.16-.57-13.16-1.26v-2.36" fill="none" stroke="#fff" stroke-miterlimit="10" stroke-width=".31"/><path d="M153.08 40.99c2.12.22 3.42.52 3.42.85 0 .7-5.89 1.26-13.16 1.26s-13.16-.57-13.16-1.26M154.2 36.97v1.79c0 .7-5.89 1.26-13.16 1.26s-13.16-.57-13.16-1.26V36.4" fill="none" stroke="#fff" stroke-miterlimit="10" stroke-width=".31"/><path d="M134.27 37.49c-3.81-.22-6.39-.64-6.39-1.1 0-.17.37-.34 1.03-.49M153.08 39.34v1.79c0 .7-5.89 1.26-13.16 1.26s-13.16-.57-13.16-1.26v-2.36" fill="none" stroke="#fff" stroke-miterlimit="10" stroke-width=".31"/><path d="M134.42 39.85c-3.81-.22-7.66-.39-7.66-1.08 0-.17.37-.34 1.03-.49M154.75 46.09v2.36c0 .7-5.89 1.26-13.16 1.26s-13.16-.57-13.16-1.26v-1.24" fill="none" stroke="#fff" stroke-miterlimit="10" stroke-width=".31"/><path d="M153.34 45.52c.9.17 1.41.36 1.41.57s-.5.4-1.4.57M153.08 48.99v2.36c0 .7-5.89 1.26-13.16 1.26s-13.16-.57-13.16-1.26v-2.36" fill="none" stroke="#fff" stroke-miterlimit="10" stroke-width=".31"/><path d="M128.42 48.38c-1.06.18-1.66.39-1.66.61 0 .7 7.43 1.17 14.7 1.17 0 0 8.31.01 10.96-.99M156.5 51.01v2.36c0 .7-5.89 1.26-13.16 1.26s-13.16-.57-13.16-1.26v-1.25" fill="none" stroke="#fff" stroke-miterlimit="10" stroke-width=".31"/><path d="M153.08 50.16c2.12.22 3.42.52 3.42.85 0 .42-2.18.8-5.51 1.03M154.95 53.91v1.91c0 .7-5.89 1.26-13.16 1.26s-13.16-.57-13.16-1.26v-2.36" fill="none" stroke="#fff" stroke-miterlimit="10" stroke-width=".31"/><path d="M147.61 54.57c-1.68.07-3.85.15-5.83.15-7.27 0-13.16-.57-13.16-1.26 0-.22.56-.42 1.56-.6M156.51 55.69v2.36c0 .7-5.89 1.26-13.16 1.26s-13.16-.57-13.16-1.26v-1.7" fill="none" stroke="#fff" stroke-miterlimit="10" stroke-width=".31"/><path d="M154.95 55.1c1 .18 1.56.38 1.56.6 0 .42-2.18.8-5.51 1.03M153.44 58.77v1.73c0 .7-5.89 1.26-13.16 1.26s-13.16-.57-13.16-1.26v-2.36" fill="none" stroke="#fff" stroke-miterlimit="10" stroke-width=".31"/><path d="M145 59.32c-1.47.05-3.06.08-4.73.08-7.27 0-13.16-.57-13.16-1.26 0-.31 1.15-.59 3.07-.81M153.75 63.17v1.58c0 .7-5.89 1.26-13.16 1.26s-13.16-.57-13.16-1.26v-2.36" fill="none" stroke="#fff" stroke-miterlimit="10" stroke-width=".31"/><path d="M133.52 63.46c-3.63-.22-6.09-.63-6.09-1.08 0-.23.71-.43 1.84-.62" fill="none" stroke="#fff" stroke-miterlimit="10" stroke-width=".31"/><path d="M155.56 60.17v2.36c0 .7-5.89 1.26-13.16 1.26s-13.16-.57-13.16-1.26v-1.25" fill="none" stroke="#fff" stroke-miterlimit="10" stroke-width=".31"/><path d="M153.44 59.48c1.34.2 2.12.43 2.12.69 0 .31-1.17.6-3.12.82M155.56 64.05v2.36c0 .7-5.89 1.26-13.16 1.26s-13.16-.57-13.16-1.26v-1.05" fill="none" stroke="#fff" stroke-miterlimit="10" stroke-width=".31"/><path d="M155.56 66.43v2.36c0 .7-5.89 1.26-13.16 1.26s-13.16-.57-13.16-1.26v-2.38M153.75 63.41c1.15.19 1.81.41 1.81.64s-.66.45-1.81.64" fill="none" stroke="#fff" stroke-miterlimit="10" stroke-width=".31"/><path d="M154.41 69.31v1.91c0 .7-5.89 1.26-13.16 1.26s-13.16-.57-13.16-1.26v-2.36" fill="none" stroke="#fff" stroke-miterlimit="10" stroke-width=".31"/><path d="M134.35 69.79c-3.63-.22-6.26-.49-6.26-.94 0-.19.39-.45 1.14-.64M152.79 71.76v1.58c0 .7-5.89 1.69-13.16 1.69s-13.16-1-13.16-1.69v-2.36" fill="none" stroke="#fff" stroke-miterlimit="10" stroke-width=".31"/><path d="M152.79 73.24v2.3c0 .7-5.89 1.97-13.16 1.97s-13.16-1.27-13.16-1.97v-2.36M132.55 72.17c-3.63-.22-6.09-.74-6.09-1.19 0-.23.49-.42 1.63-.6" fill="none" stroke="#fff" stroke-miterlimit="10" stroke-width=".31"/><path d="M155.56 75.96v2.36c0 .7-5.89 1.8-13.16 1.8s-13.16-1.11-13.16-1.8v-1.75" fill="none" stroke="#fff" stroke-miterlimit="10" stroke-width=".31"/><path d="M152.79 74.86c1.74.39 2.78.81 2.78 1.1 0 .58-4.05 1.07-9.58 1.21" fill="none" stroke="#fff" stroke-miterlimit="10" stroke-width=".31"/><path fill="#fff" d="M137.51 37.49l-5.26-.18v-2.26l5.26.25v2.19zM136.32 39.97l-5.25-.41V37.3l5.25.25v2.42zM135.02 42.33l-5.25-.41v-2.26l5.25.25v2.42zM138.52 45.35l-5.26-.41v-2.26l5.26.25v2.42zM135.57 47.77l-5.25-.41V45.1l5.25.25v2.42zM136.62 49.6l-5.26-.41v-1.55l5.26.25v1.71zM135.24 52.45l-5.25-.41v-2.21l5.25.25v2.37zM138.52 54.64l-5.26-.41v-1.75l5.26.25v1.91zM136.62 56.93l-5.26-.41v-2.18l5.26.25v2.34zM138.52 59.39l-5.26-.4v-2.11l5.26.25v2.26zM135.44 61.6l-5.26-.41v-2.11l5.26.25v2.27zM137.59 63.67l-5.26-.41v-1.72l5.26.25v1.88zM136.06 65.87l-5.25-.41v-2.14l5.25.25v2.3zM137.49 67.59l-5.26-.41v-1.45l5.26.25v1.61z"/><path fill="#fff" d="M137.49 70.06l-5.26-.41v-2.4l5.26.25v2.56z"/><path fill="#fff" d="M136.56 72.37l-5.25-.41v-2.34l5.25.25v2.5z"/><path fill="#fff" d="M134.16 74.86l-5.25-.64v-2.34l5.25.25v2.73z"/><path fill="#fff" d="M134.99 77.39l-5.25-.65V74.4l5.25.46v2.53z"/><path fill="#fff" d="M137.21 80.04l-5.25-.65v-2.34l5.25.46v2.53z"/><path d="M63.54 52.31c-3.32 5.07-9.06 8.43-15.57 8.43-10.25 0-18.6-8.34-18.6-18.6s8.34-18.6 18.6-18.6c6.48 0 12.19 3.33 15.52 8.37L77.85 14c-.51-.56-1.03-1.12-1.57-1.66C68.33 4.39 57.74 0 46.48 0s-21.84 4.38-29.8 12.34C8.72 20.3 4.34 30.88 4.34 42.14s4.38 21.84 12.34 29.8c7.96 7.96 18.54 12.34 29.8 12.34s21.84-4.38 29.8-12.34c.43-.43.85-.87 1.25-1.31l-14-18.33z" fill="none" stroke="#fff" stroke-linejoin="round" stroke-width="1.08"/><path d="M47.98 23.55c-2.75 0-5.37.6-7.72 1.68 1.41-.34 2.88-.52 4.39-.52 6.48 0 12.19 3.33 15.52 8.37l3.34-1.16-1.16-1.56c-3.41-4.15-8.58-6.8-14.37-6.8zM46.48 84.3c-11.26 0-21.84-4.38-29.8-12.34C8.72 64 4.34 53.42 4.34 42.16s4.38-21.84 12.34-29.8c4.15-4.15 9.01-7.32 14.31-9.42-6.6 1.98-12.64 5.57-17.65 10.57C5.38 21.46 1 32.05 1 43.31s4.38 21.84 12.34 29.8c7.96 7.96 18.54 12.34 29.8 12.34 5.39 0 10.62-1.01 15.49-2.93a42.164 42.164 0 0 1-12.15 1.77z" fill="#fff" stroke="#fff" stroke-linejoin="round" stroke-width="1.08"/><path fill="none" stroke="#fff" stroke-linejoin="round" stroke-width="1.08" d="M162.83 13.75l19.85.86 11.2 34.04 2.24-33.51 19.42 2.03-9.71 61.78-14.51-1.28-12.38-31.9 3.52 32.65-17.18.53-2.45-65.2z"/><path fill="#fff" stroke="#fff" stroke-linejoin="round" stroke-width="1.08" d="M191.32 77.67l-12.38-31.9 1.54 14.26 7.71 19.88 14.51 1.28 3.13-2.24-14.51-1.28zM193.88 48.65l2.24-33.51-3.13 2.24-1.58 23.75 2.47 7.52zM165.28 78.95l-2.45-65.2-3.13 2.24 2.45 65.2 17.18-.53 3.13-2.24-17.18.53z"/><path d="M260.63 36.26L271 20.98S260.4 9.23 245.81 9.23s-25.65 11.36-25.65 23.5 7.76 18.43 16.59 21.19 12.36 4.3 12.36 7.76-5.99 5.07-12.9 1.92c-6.91-3.15-11.9-6.6-11.9-6.6l-10.06 15.74s14.35 14.41 33.06 11.74 21.39-16.23 21.39-22.63-2.86-12.7-14.32-18.43-15.09-7.93-13.27-11.94 10.36-1.07 12.92.15c3.43 1.64 6.61 4.63 6.61 4.63z" fill="none" stroke="#fff" stroke-linejoin="round" stroke-width="1.08"/><path d="M247.32 84.48c-18.71 2.67-33.06-11.74-33.06-11.74L224.32 57l-3.36 2.19-10.06 15.74s14.35 14.41 33.06 11.74c5.98-.85 10.32-2.82 13.46-5.31-2.69 1.43-6.01 2.53-10.09 3.11zM254.03 31.64c-2.56-1.22-11.1-4.16-12.92-.15-.03.07-.06.14-.09.2 3.29-.36 7.88 1.3 9.64 2.14 3.43 1.64 6.61 4.63 6.61 4.63l3.36-2.19c-1.23-1.02-4.46-3.6-6.61-4.63zM233.39 56.12c8.83 2.76 12.36 4.3 12.36 7.76 0 .43-.09.83-.27 1.2 2.23-.48 3.63-1.72 3.63-3.39 0-3.46-3.53-4.99-12.36-7.76-8.83-2.76-16.59-9.06-16.59-21.19 0-6.93 3.6-13.6 9.41-18.05-7.75 4.23-12.77 12.06-12.77 20.24 0 12.13 7.76 18.43 16.59 21.19z" fill="#fff" stroke="#fff" stroke-linejoin="round" stroke-width="1.08"/><path d="M111.08 60.67c-.64.38.55 1.15.52 1.56-.07.89-2.97 1.43-4.58 1.28-2.2-.21-4.24-.62-6.27-1.5-1.24-.55-2.53-.99-3.87-1.18-1.41-.21-2.56.67-2.99 1.92-.58 1.69-.18 3.33 1.05 4.63 1.44 1.53 3.28 2.67 5.42 3.01l1.97.31 5.83.09c.4 0 .97.28 1.12.72-.66.76-1.49.69-1.58 1.22-.02.11.29.35.4.35.65 0 1.74-.51 1.86-1.31.07-.43 0-1.05-.24-1.3-.19-.2-.7-.5-1.01-.5l-3.74-.07c-1.21-1.78-1.37-3.86-.39-5.76l3.1.31 2.68-.37c.9-.13 2.06-.84 2.15-1.72.08-.71-1.03-1.91-1.44-1.67zm-11.4 8.74c-3.86-.65-5.28-4.31-5.28-4.31 5.88.67 5.28 4.31 5.28 4.31z" fill="#fff"/></svg>