<svg xmlns="http://www.w3.org/2000/svg" viewBox="0 0 250 104"><path d="M88.16 6.24l2.87-3.23S89.02-.19 84.76 0c-4.33.2-7.2 5.3-7.2 9.57 0 3.47 2.33 7.17 7.43 7.17 4.4 0 6.83-2.8 6.83-2.8l-3.07-3.37s-.97 1.8-3.3 1.8-3.43-1.9-3.43-3.67 1.27-3.83 3.3-3.83 2.83 1.37 2.83 1.37zM101.9.14l-8.1 14.77 4.6 1.7.8-3.03 5.2-.07 1.43 2.67 5.13-2L101.9.14zm1.96 10.87c-.37.57-3.37 1.12-3.5.15-.19-1.37 1-3.95 1.7-4.12.75-.18 2.17 3.4 1.8 3.97zM145.05.23L136.95 15l4.6 1.7.8-3.03 5.2-.07 1.43 2.67 5.13-2L145.05.23zm1.97 10.87c-.37.57-3.37 1.12-3.5.15-.19-1.37 1-3.95 1.7-4.12.75-.18 2.17 3.4 1.8 3.97zM112.53 1.08l.17 15.2 4.07.17v-3.53s7.97-2.23 7.97-7.97c0-6.17-8.57-4.27-12.2-3.87zm3.5 8.43V5.04s4.63-1.87 4.6.8c-.03 2.67-4.6 3.67-4.6 3.67zM126.87 1.19v3.92l2.7-.37v11.57l4.56-.53V4.24l3.6-.26V.19l-10.86 1zM155.66 1.28l4.58-.66-.69 15.35-3.89.17V1.28zM163.42 1.69s6.69 5.65 7.65 5.62c.63-.02.52-6.83.52-6.83l4.31.14-.41 14.31s-7.38-4.48-7.79-3.52c-.29.67.07 4.72.07 4.72h-4.62l.28-14.45zM5.93 47.65l7.11 9.07 1.54-11.02 7.94 6.7-.41-12.62 7.7 1.96L31 67.28l-9.78-4.68-3.5 13.28L0 54.65l5.93-6.99zm53.81 10.91l8.36-2.79-2.43-8 13.04 3.32-4.74-24.48-8.71 1.6 2.37 11.02-14.05-7.53 6.16 26.85zM55.6 47.57C55.68 58 49.48 63.1 43.83 63.73c-5.65.63-12.47-3.45-12.31-13.96.16-10.51 6.75-14.12 9.73-15.22 6.17-2.27 14.28 2.59 14.35 13.02zm-14.43-3.3c-4.47 3.53-2.35 10.9.47 11.37s5.57-2.04 5.8-6.12c.24-4.08-2.69-8.08-6.27-5.26zm49.49 6.04c-4.24 1.33-8.47 1.33-8.47 1.33l-5.02-25.03s4.94-2.1 9.26-3.52c4.31-1.41 10.98-1.8 13.18 8 2.2 9.8-4.71 17.88-8.94 19.22zm1.65-16.15c-.86-4.71-4.55-2.27-5.73-.63l1.41 9.06s5.18-3.72 4.31-8.43zm9.18-11.81l1.65 25.53 16-1.96V37l-8.82 1.24v-2.27l5.24-.66-.16-5.63-5.08.55v-1.76l7.31-.82.31-7.24-16.45 1.95zM142.09 42l-4.36 5.88-7.45-6.71v5.9l-7.92-.71V20.41s6.61-.67 10.42-.91c3.81-.24 10.54 2.56 9.11 9.47-1.43 6.91-6.13 8.57-6.13 8.57l6.33 4.47zm-8.17-13.87c.02-2.5-4.23-.3-4.23-.3v5.85s4.2-1.67 4.23-5.55zm31.26 5.12c-2.62 7.92-11.85 9.05-11.85 9.05l-.77 6.31-7.5-2.2 2.02-25.31s5.96-.18 10.78 0c4.82.18 9.94 4.23 7.32 12.15zm-11.61-4.05l-.36 5.62s4.29-.73 4.53-3.95c.24-3.22-4.17-1.67-4.17-1.67zm32.33 23.7l-9.71 1.13-1.07-5.42-6.13-1.43-2.56 4.82-8.34-5.72 18.94-21.73 8.87 28.34zm-10.96-8.99l-.71-4.61-2.62 3.72 3.33.89zm10.96 11.73l8.28 2.44 1.85-7.62 9.35 9.94 8.4-22.81-8.57-3.99-3.39 10.3-8.04-13.87-7.86 25.6zm28.4-9.94l3.57 1.49-7.56 16.55 7.98 3.33 7.32-17.03 3.51 1.73 3.22-6.55-15.12-6.31-2.92 6.79zm30.66 16.38l5.04-5.26s-5.04-7.63-12.07-6.89c-7.04.74-10 7.11-7.33 10.96 2.67 3.85 4.74 5.36 3.7 6.74-1.95 2.59-6.81-4.44-6.81-4.44l-5.04 4.44s5.78 10.96 16.37 8.07c10.59-2.89 1.48-15.03-.37-16.81-1.85-1.78 0-2.74 1.85-1.26 1.85 1.48 4.67 4.44 4.67 4.44zM117.17 69.81c.52 0 .75-.03.93-.06.17-.03.26-.06.49-.06.47 0 1.43.67 1.43 1.61 0 .43-.31.72-.92.72-1.04 0-1.03-1.03-1.64-1.03-.47 0-.42.47-.42.54v2.66c-.01 1.03 1.09.54 1.09 1.15 0 .27-.23.65-2.47.64-.61 0-2.85 0-2.85-.66 0-.46.74-.27.98-.6.12-.18.17-.7.18-.92l.1-1.92c.05-.91-.2-.9-.37-.9-.54 0-.81 1.02-1.78 1.02-.47 0-.74-.31-.74-.63 0-.74.87-1.7 1.55-1.69.08 0 .22.03.44.06.23.03.55.06 1.03.06h2.95zM129.07 74.5c0 .26.05.39.37.52.24.1.41.15.41.37 0 .21-.03.64-2.39.63-.53 0-2.06-.02-2.06-.6-.05-.67.84.07.84-1.69 0-.47-.14-.45-.74-.45-1.68 0-1.52.03-1.52.81 0 1.19.74.71.74 1.28 0 .61-1.75.64-2.33.63-.55 0-2.22-.04-2.21-.63 0-.18.18-.29.38-.36.43-.15.59-.12.59-1.93 0-2.31-.04-2.11-.48-2.29-.18-.07-.39-.15-.39-.32 0-.67 2-.73 2.67-.73.5 0 1.89.05 1.89.57 0 .27-.2.36-.48.48-.3.12-.37.22-.38 1 0 .49.31.43.88.43h.61c.79 0 .77-.08.77-.35 0-.94-.2-1.01-.36-1.07-.23-.1-.44-.17-.44-.4 0-.16-.05-.65 2.34-.64.56 0 2.16.02 2.15.62 0 .19-.13.32-.37.41-.36.11-.49.08-.5 1.46v2.25zM135.24 69.87c1.6 0 1.83-.17 2.02-.17.68 0 .97.85.97 1.23 0 .29-.16.62-.62.62-.95 0-.18-.83-2.45-.84-1.33 0-1.2.17-1.2 1.17 0 .5.03.52.76.52.91 0 .23-.96 1.08-.96.69 0 .74.98.74 1.32 0 .36-.09 1.4-.81 1.39-.74 0 0-.91-1.21-.91-.5 0-.49.33-.49.6 0 1.27.12 1.21 1.37 1.21 2.46 0 1.77-1.22 2.75-1.21.38 0 .57.31.57.56 0 .59-.65 1.64-1.13 1.64-.08 0-.28-.03-.53-.05-.26-.02-.6-.05-1.01-.05l-4.92-.02c-.79 0-.8-.26-.8-.38 0-.48.81-.09.9-1.01.15-1.58.16-1.42.05-2.99-.08-1.33-.99-.64-.99-1.26 0-.53 1.01-.44 1.5-.44h3.45zM59.19 93.65c-.25-.41-.7-1.34-1.44-1.34-1.27 0-.86 4.13-.86 5.16 0 3.34 2.63 1.78 2.63 3.47 0 1.78-4.4 1.84-6 1.84-1.44 0-5.18-.09-5.18-1.72 0-1.78 2.47-.31 2.79-2.88.33-2.63.7-5.53.7-10.07 0-1.88-.16-2.84-.62-3.56-.41-.66-2.75-.88-2.75-2.16 0-1.78 3.82-2.22 7.11-2.22 4.81 0 4.73.63 5.96 2.22 1.44 1.84 3.99 6.97 5.79 7.28 1.27.22 2.96-3.56 4.44-5.63 2.1-2.94 2.14-3.88 7.56-3.88 1.81 0 5.92.09 5.92 2.06 0 1.25-1.85 1.5-2.26 2.56-.33.88-.62 4.56-.62 5.97 0 .47.25 3.91.41 6.81.12 2.28 2.59 1.78 2.59 3.19 0 2.09-5.63 2-7.44 2-1.68 0-7.31.13-7.31-1.88 0-1.09 1.85-1.28 2.14-2.28.16-.53.99-5.91-.45-5.91-1.27 0-2.59 2.75-3.57 4.35-.9 1.44-2.38 5-3.7 4.88-.66-.06-.99 0-3.45-4.22l-2.38-4.06zm27.74-2.25c0-6.63 6.94-11.32 15.9-11.32 11.34 0 15.7 7.6 15.7 11.63 0 6.72-7.81 11.16-16.19 11.16S86.93 98.06 86.93 91.4zm14.01-6.66c-2.3 0-3.45 1.81-3.45 3.34 0 2.66 2.47 10.13 6.9 10.13 2.51 0 3.58-1.66 3.58-3.34 0-2.84-2.22-10.13-7.03-10.13zm39.04 15.32c-.86 1.28-1.68 2.72-3.9 2.72-2.38 0-3-1.03-3.9-2.5L124 86.52c-1.23-2.03-1.6-2.41-3.21-2.59-.82-.09-1.23-.56-1.23-1.22 0-2.41 6.53-2.53 8.63-2.53 8.63 0 8.3 1.56 8.3 2.03 0 1.19-1.97 1.25-1.97 2.09 0 .66 1.6 3.09 2.59 4.72.37.53.82 1.75 1.73 1.78 1.36.06 2.05-1.69 2.55-2.34.49-.75 2.38-3.56 2.38-4.31 0-1.13-2.1-.81-2.1-2.06 0-1.94 5.18-1.91 6.82-1.91 5.18 0 6.04.72 6.04 1.81 0 .84-.82 1.25-1.81 1.34-1.77.16-1.93.06-3.49 2.47l-9.25 14.26zm18.24-10.13c0-3.97-.41-4.88-.86-5.31-.95-.91-2.55-1-2.55-2.19 0-2.25 8.38-2.25 9.2-2.25 2.47 0 7.52.06 7.52 2.19 0 1.13-1.56 1.06-2.51 1.88-.78.69-.82 3.5-.82 5.69v3.09c0 5.56.49 5.44 1.31 5.81 1.03.47 2.01.63 2.01 1.59s-.37 2.34-9.37 2.34c-1.73 0-6.9-.03-6.9-2.03 0-1 1.4-1.16 2.05-1.75.49-.44.9-1.59.9-5.97v-3.09zm31.44-9.41c5.51 0 6.29-.63 6.94-.63 2.34 0 3.33 3.06 3.33 4.44 0 1.03-.53 2.25-2.14 2.25-3.25 0-.62-3-8.42-3-4.56 0-4.11.63-4.11 4.22 0 1.81.12 1.88 2.63 1.88 3.12 0 .78-3.47 3.7-3.47 2.38 0 2.55 3.53 2.55 4.75 0 1.28-.29 5.03-2.75 5.03s0-3.28-4.15-3.28c-1.73 0-1.68 1.19-1.68 2.19 0 4.56.41 4.35 4.73 4.35 8.42 0 6.04-4.41 9.41-4.41 1.31 0 1.97 1.13 1.97 2 0 2.13-2.22 5.94-3.86 5.94-.29 0-.95-.09-1.81-.19-.9-.06-2.05-.16-3.45-.16h-16.89c-2.71 0-2.75-.94-2.75-1.34 0-1.72 2.79-.34 3.08-3.66.49-5.69.53-5.13.12-10.79-.29-4.78-3.41-2.31-3.41-4.53 0-1.91 3.45-1.59 5.14-1.59h11.83z" fill="#fff"/></svg>