<svg xmlns="http://www.w3.org/2000/svg" viewBox="0 0 290 48"><g fill="#fff"><path d="M1.17 46.85c.07-3.76.99-7.47 1.18-11.22.49-9.68.13-21.54-1.69-31C.45 3.52.52 2.5 0 1.35 7.56 2.62 17.16.4 23.94 4.44c2.04 1.21 2.61 3.49 3.38 5.67 3.8 10.69 5.55 23.14-1.89 32.8-3.71 4.81-7.93 3.14-13.31 3.34-1.34.05-2.65-.07-3.79-.01-2.31.11-4.73.99-7.16.61zM13.69 9.88c-.41.03-1.61.24-1.85.51-1.14 1.28.3 9.66.44 11.82.29 4.74.31 9.53.6 14.27-.02 2.07 3.24 1.58 4.54 1.06.59-.23.94-.58 1.16-1.17l.44-10.09c-1.03-4.31-.76-10.29-2.26-14.37-.51-1.4-1.55-2.13-3.07-2.02zM73.67 47.43l3.13-16.56c.73-6.16 1.68-12.38 1.85-18.57.09-3.26-.1-6.53-.16-9.78.55-1.12 3.15.29 4.4.3 3.58.04 10.24-.02 13.59-.73.98-.21 1.86-1.12 2.94-.61.7.5.74 9.65.84 11.11.56 7.88 1.56 15.79 3 23.54.32 1.72 2.63 8.73 1.85 9.86l-12.74 1.32c-.82-.6.66-8.86.29-10.81-.43-2.31-5.57-1.25-6.02.13-.03 2.75.54 6.23.19 8.92-.06.47-.13.93-.6 1.17-.19.09-3.45-.19-4.23-.16-1.36.05-3.34.16-4.66.3-1 .11-2.31 1.02-3.67.57zm15.12-36.7c-.44.12-1.01.79-1.08 1.28l-.89 13.39c.27 1.72 5 2.02 5.18.27l-1.1-13.36c-.09-1.01-1.09-1.85-2.11-1.58zM216.03 45.39h-8.92c-.77 0-2.18-2.98-2.4-3.73-1.04-3.58.37-7.7-.94-11.24-.28-.44-4.24-1.47-4.88-.8-1.17.93.22 8.3-.13 10.1l2.05 5.97c-.41.39-7.08-.38-8.34-.3-1.9.12-3.4 1.28-5.4.88-.03-.42-.02-.83.07-1.24 2.31-10.99 1.8-26.38.51-37.69-.22-1.96-.53-3.9-1.13-5.77l.69-.68c.69.12 1.35.43 2.06.47 4.88.27 9.84-.98 14.59-.85 2.99.08 8.32 5.43 9.7 8.12.18 3.12.73 6.71.73 9.79 0 4.36-3.27 4.26-5.16 6.54s2.16 2.13 3.25 2.93 1.42 5.54 1.6 7.16c.13 1.21-.11 2.52.04 3.76.25 2.06 1.43 4.58 2.01 6.59zM203.1 9.01c-.58-.58-5.05-.55-5.2.12l.32 10.43c.13 2.05 2.75 1.79 4.17 1.27 1.27-.46.74-5.44.78-6.81.03-1.17.83-4.13-.06-5.02zM278.3 16.23V9.96c0-1.27-4.55-.35-4.91.94-.16.56-.32 2.93-.37 3.72-.06 1.03-.2 7.02.5 7.18 1.22.27 2.1-.91 3.24-1.12 1.72-.31 7.96.11 9.41.98.29.17.71.57.9.85.39.57 2.21 4.7 2.43 5.45.75 2.54.54 5.02.11 7.59-.4 2.42-1.14 5.67-3.06 7.24-5.42 4.43-11.76 4.51-18.12 2.1-.92-.35-2.72-2.06-3.15-2.98-1.6-3.45-3.24-10.35-3.37-14.13-.17-4.7 1.8-18.01 3.68-22.32.98-2.25 2.68-2.39 4.92-2.97 3.4-.88 8.28-1.95 11.65-1.04 6.77 1.83 5.61 7.71 6.24 13.33-.48 1.01-3.31.47-4.39.59-1.92.21-3.76.98-5.71.87zm-1.82 11.45c-3.27.5-3.31 3.78-3.14 6.48.07 1.13.27 3.43 1.14 4.11s4.51 1.04 4.94-.37c.36-1.2.04-5.36.04-6.96 0-.61.33-1.2.3-1.72-.11-1.83-1.89-1.75-3.28-1.54zM121.32 10.54c-.34-1.18-4.3-1.51-4.82-.44-.45.93-.18 7.91.42 8.92.63 1.07 2.24.83 3.17 1.5l10.66 1.91c.37.1.64.34.75.71.64 2.17-.37 6.83.07 9.29-.68 2.67-.12 6.14-.6 8.73-.07.38-.21.49-.41.76-.66.89-5.04 2.93-6.25 3.39s-3.42 1.26-4.58 1.28c-1.41.03-7.47-1.96-8.63-2.78-2.08-1.47-2.15-3.95-2.98-6.07-.34-.88-2.33-4.59-1.95-5.14 1.07-.65 1.99-.03 3.03-.02 1.59.03 6-.59 6.99-.26s.22 2.21.18 3.01c-.22 4.31 1.19 2.62 4.48 2.79 1.54-.4.2-6.37.44-7.67-.09-.38-.25-.65-.54-.92-1.23-1.15-7.92-1.49-10-1.99s-2.41-1.56-3.36-3.36c-.24-.46-1.8-3.8-1.82-4.02-.1-1.03.97-6.33 1.24-7.78.33-1.82.92-5.69 1.55-7.2s3.27-2.41 4.73-2.86c2.17-.67 9.01-2.17 11.01-1.81 1.25.22 5.3 3.17 5.97 4.25 1.08 1.75.67 4.65.99 6.59.16.97 1.27 2.43.54 3.31-.45.54-2.95.63-3.84.84-1 .23-5.51 1.63-6.08 1.28-.03-.22-.34-.58-.34-.69 0-1.23.25-4.67 0-5.54zM62.34 16.74c-.83-.86.77-5.89-1.25-6.78-.65-.28-3.19-.32-3.65.13-.93.92-.5 8.51.57 9.65l14.16 3.23c-.13 1.32.32 2.6.35 3.88.08 3.89-.39 8.41-.89 12.27-.16 1.23.38 2.52-.69 3.54-3.07 1.22-7.5 4.26-10.85 4.19-1.14-.02-5.1-1.39-6.3-1.91-4.3-1.86-3.35-2.81-4.83-6.55-.32-.8-2.28-5-2.17-5.37.28-.95 4.84-.12 5.99-.17.91-.04 3.13-.68 3.73-.55 2.06.47-1.24 6.1 1.84 6.37.56.05 3.31-.39 3.63-.72.2-.15.24-.36.28-.59.12-.66-.3-6.57-.51-7.07-.28-.66-.85-.94-1.51-1.11-2.31-.6-9.11-1.03-10.53-2.33-.68-.62-3.08-5.47-3.2-6.43-.28-2.14 1.7-12.33 2.51-14.65.67-1.92 3.26-2.77 5.13-3.34C56.51 1.7 63.27.33 65.44.96c.77.22 4.31 2.91 4.88 3.59 1.73 2.03 1 4.54 1.32 6.85.16 1.16 1.71 3.21.05 3.88-2.66.11-5.72 1.52-8.25 1.7-.38.03-.82.07-1.1-.23zM182.12.48l-.29 12.54c-1.49.17-2.46-1.19-3.79-1.61-.94-.29-3.43-.77-4.12-.01s-.78 6.71-.57 7.89c.27 1.5 3.36.94 4.46.66 1.3-.33 2.11-1.38 3.43-1.39l.25 10.6-.61.42c-1.66-.07-6.53-1.97-7.17.27-.29.99.17 6.91 1.03 7.37 1.15.62 4.4-.25 5.76-.6.75-.19 2.69-1.39 3.25-.58.26.38.17 3.77.14 4.55-.02.67-.34 4.58-.45 4.8-.6 1.23-3.59.3-4.67.28-5.69-.14-11.34.1-16.92 1.16-1.31-.91.08-2.02.31-2.83 1.35-4.81 1.72-11.51 1.85-16.53.23-8.68-.72-17.31-1.45-25.93.36-1.1 4.89.07 5.95.12 2.74.13 7.33.29 9.95-.01 1.31-.15 2.37-.95 3.65-1.17zM159.61 11.71l-.72.44c-1.51-.66-4.88-1.77-6.29-.72-1.05.78-.52 5.76-.59 7.29-.31 6.88-.77 12.27.6 19.21.25 1.29 2.21 6.78 1.89 7.45-.86 1.08-2.84.08-4.11.01-2.17-.11-4.51.04-6.65.35-.91.14-2.18 1.14-3.3.24-.4-.55.86-5.21 1-6.33 1.1-8.34.89-16.13.34-24.47-.06-.98-.29-3.73-1.01-4.24-1.73-1.22-5.83 2.86-6.76 1.49-.45-.65.17-4.51.17-5.72 0-1.31-1.21-5.44.74-5.68 1.09-.13 4.39.76 5.83.88 4.29.36 11.23.79 15.31-.18.49-.12 3.55-1.74 3.55-.55v10.5zM262.22 1.35c-.7 3.75-1.95 7.35-2.78 11.08-2.08 9.32-2.52 18.91-2.51 28.44 0 1.76 1.14 3.55.9 5.4-1.16.13-2-.7-3.09-.85-3.45-.48-6.71.44-10.06.85l6.44-34.84c-.17-1.35-2.03-1.12-3.04-1-1.36.16-6.93 2.55-7.49 2.17s.39-2.78.51-3.59.33-2.06.37-2.84c.06-1.34-.9-5.29.71-5.37l10.25 2.01 9.79-1.46z"/><path d="M44.1 45.93c-3.83.33-7.6-1.15-11.17.89l-.71-.76 1.41-17.43c.24-8.84-.19-17.64-2.04-26.29-.03-.32.17-.59.46-.68.54-.17 3.71 1.12 4.93 1.16 2.62.09 5.6-.87 8.22-1.17l.68.46c.09.3-1.26 5.2-1.41 6.11-.99 5.89-1.78 12.98-1.49 18.93.25 5.12 1.33 10.32 1.47 15.45.03 1.11.11 2.29-.34 3.33zM230.14 16.74c-.95-.79.71-2.58 1.01-3.37.12-.33.67-2.58.63-2.77-.27-1.18-1.87-.85-2.56-1.55-.81-.81-1.66-3.16-1.47-4.33.15-.92 2.81-3.93 3.71-4.17.95-.25 4.16.72 4.88 1.4 2.19 2.1 1.5 5.83.6 8.44-.32.91-4.09 5.77-4.84 6.26-.56.37-1.41.53-1.95.08z"/></g></svg>