<svg xmlns="http://www.w3.org/2000/svg" width="250" height="88" viewBox="0 0 250 88"><path d="M39.58 2.94a.65.65 0 0 0-.16-.09h-.69a4.39 4.39 0 0 1-.81.11 3.39 3.39 0 0 1-.64-.07H35.1c-1 0-2.32 0-3.84-.1-.1.31-.23.66-.36 1l.28.3a.42.42 0 0 1 0-.15.59.59 0 0 1 .36-.33 1 1 0 0 1 1 .11c.13.1 0 .33-.14.33a4 4 0 0 1-.4.01 1.83 1.83 0 0 1-.12.93.19.19 0 0 1-.3 0c-.28-.24-.56-.48-.81-.74l-.22.57h.11c.23 0 .48.19.48.46s-.19.36-.37.45a2.31 2.31 0 0 1-.63.2q-1.14 2.82-2.89 7l-2.9 6.84.13.18a4.38 4.38 0 0 1 .45.7.21.21 0 0 1-.07.27.19.19 0 0 1-.26-.07 3.56 3.56 0 0 0-.43-.66L19.9 30.28l-.76-1.76h-.05c-.44-.27-.43-.91-.7-1.31-.09-.14-.23-.25-.33-.38a1.18 1.18 0 0 1-.27-.49 4.05 4.05 0 0 1-.07-1.1l-5.17-12a2.15 2.15 0 0 1-.69-.86 2.82 2.82 0 0 1-.16-1.12c-1-2.27-2-4.89-3.19-7.85l-.12-.13C8.28 3.09 8.15 3 8 2.85c-1.19.06-2.43.09-3.71.09S1.5 2.91 0 2.84v1a3.16 3.16 0 0 1 .62.53 10.6 10.6 0 0 1 2.48.24 1.52 1.52 0 0 1 .8.63A8.59 8.59 0 0 1 4.21 8q.06 3.15.06 6.45V25.7q-.06 6.38-.08 6.89a6.79 6.79 0 0 1-.33 2.35 1.44 1.44 0 0 1-.77.57 2.48 2.48 0 0 1-.6.12.55.55 0 0 0-.26-.35 1.48 1.48 0 0 0-.27-.1 1.35 1.35 0 0 0-.29 0 .81.81 0 0 0-.22 0 .79.79 0 0 0-.22 0 1.44 1.44 0 0 0-.39.2l-.3.22a.33.33 0 0 0-.16.15H.22a3.84 3.84 0 0 0-.22.39v1.17l2.14-.08a1.44 1.44 0 0 1 .91-1 .2.2 0 0 1 .24.14 2 2 0 0 1 0 .81h1.19v-.41a1.93 1.93 0 0 0 0-.24v-.06a.2.2 0 0 1 .05-.25.2.2 0 0 1 .25 0 2.22 2.22 0 0 1 .64 1l4.47.17h.18l.13-.07.32-.21v-.79a1.88 1.88 0 0 0-.24-.25l-.17-.14a11 11 0 0 1-2.69-.24 1.49 1.49 0 0 1-.8-.64 3.94 3.94 0 0 1-.23-1.23A2.81 2.81 0 0 1 6 32.58a1.77 1.77 0 0 1 .14-1.3.93.93 0 0 1 .14-.14c0-1.78-.06-3.59-.06-5.44v-2.43-.86a6.12 6.12 0 0 1 0-.74v-2.41c-.07-.29-.14-.58-.18-.87a5.15 5.15 0 0 1 0-1.3 8 8 0 0 1 .21-1.28V8.69l4.12 9.69c.17.21.32.43.47.65a9.55 9.55 0 0 1 1 1.95c.27.73.46 1.51.79 2.22s.79 1.27 1.08 2a5.5 5.5 0 0 1 .41 1.92l2.43 5.7L18 36.3a12.9 12.9 0 0 1 .51 1.48h.84c1-2.64 1.68-4.56 2.15-5.78q1-2.49 2.73-6.6l1.09-2.59-.32-.47a.19.19 0 0 1 .12-.28 2.32 2.32 0 0 1 .53 0l6-14.12v5.49A2.22 2.22 0 0 1 32 14a.55.55 0 0 1 0 .54 2.31 2.31 0 0 1-.24.29h.1l.4.16a.43.43 0 0 1 .25.58.86.86 0 0 1-.57.38 2.2 2.2 0 0 1-.37.07v8.31a5.33 5.33 0 0 0 1.89-.48 18.24 18.24 0 0 1 2-1.07v-8.3c.06-4.27.09-6.56.11-6.89a6 6 0 0 1 .32-2.35 1.45 1.45 0 0 1 .76-.57 11.23 11.23 0 0 1 2.56-.24 1 1 0 0 1 .15-.14 1.3 1.3 0 0 1 .38-.22v-.95a1.53 1.53 0 0 0-.16-.18zM16.33 26.8a.62.62 0 0 1-.21.44 1.2 1.2 0 0 1-.51.21.19.19 0 0 1-.11-.37 1.07 1.07 0 0 0 .27-.08v-.06a2.09 2.09 0 0 0 0-.25.2.2 0 0 1 .2-.19.19.19 0 0 1 .19.19 1.5 1.5 0 0 1 .17.11zM33.35 15a.19.19 0 0 1-.28 0c-.14-.14-.26-.29-.4-.43a.24.24 0 0 1-.05-.14.19.19 0 0 1 .05-.14.22.22 0 0 1 .14-.05.24.24 0 0 1 .14.05c.14.14.26.3.4.44a.24.24 0 0 1 0 .14.15.15 0 0 1 0 .13zm0-10h-.41a.2.2 0 0 1-.24.14.22.22 0 0 1-.12-.09.26.26 0 0 1 0-.15.48.48 0 0 1 .39-.37 3.69 3.69 0 0 1 .47 0 .19.19 0 0 1 .19.2.19.19 0 0 1-.25.19z" fill="#fff"/><path d="M35.87 34.87a5.77 5.77 0 0 1-.28-1.87 4.53 4.53 0 0 1-.6.26 1 1 0 0 1-.93-.17c-.11-.08-.06-.24 0-.31a.45.45 0 0 0 .13-.1.47.47 0 0 0-.06-.09A.61.61 0 0 1 34 32a.19.19 0 0 1 .23-.14c.45.14.87.36 1.32.46v-.22q-.09-3.12-.09-6.42v-2.4a12.81 12.81 0 0 0-2 1.17 3 3 0 0 1-1.27.57c-.21 0-.42 0-.63.06v.62c0 4.25-.09 6.55-.1 6.89a6.1 6.1 0 0 1-.33 2.35 1.34 1.34 0 0 1-.75.57 13.55 13.55 0 0 1-3.11.25v.86a2.33 2.33 0 0 1 .38.26 4.18 4.18 0 0 1 .44.4l1.13-.05a.18.18 0 0 1 .11 0h1.29a1.24 1.24 0 0 0 .28-.23c.12-.12.25-.28.44-.27s.38.22.49.42h1.48a2.44 2.44 0 0 1 .1-.24 1 1 0 0 1 .3-.41.3.3 0 0 1 .29-.1.42.42 0 0 1 .19.16 1.9 1.9 0 0 1 .21.4l.06.15c1.22 0 3 .09 5.33.21v-1.56a13.44 13.44 0 0 1-3.1-.25 1.46 1.46 0 0 1-.82-.64zm-2-5.61a.19.19 0 0 1-.3 0 1.38 1.38 0 0 1-.17-.53 1.1 1.1 0 0 0-.06-.26.14.14 0 0 0 0-.07.54.54 0 0 0-.07-.13.19.19 0 0 1 .07-.26.2.2 0 0 1 .27.07v.06a.62.62 0 0 1 .53.46.89.89 0 0 1-.25.66zM56.58 19.22a9 9 0 0 0-.46-.79 2.16 2.16 0 0 1-.27-.69c0-.27-.06-.54-.12-.81a.16.16 0 0 1 0-.12 7.7 7.7 0 0 0-1.15-1.64 7 7 0 0 0-.86-.78 1.62 1.62 0 0 1-.71.37 1.07 1.07 0 0 1-1-.26.18.18 0 0 1 0-.3 1.56 1.56 0 0 1 .52-.15 1.83 1.83 0 0 0 .25-.06 7.65 7.65 0 0 0-4-1.05 7.94 7.94 0 0 0-5 1.6l.16.14a.2.2 0 0 1 0 .27.2.2 0 0 1-.28 0l-.08-.08h-.06a7 7 0 0 0-.69.65 8.53 8.53 0 0 0-2.22 4.83 1.52 1.52 0 0 1 .18 1 1.44 1.44 0 0 1-.3.77v.77a1.46 1.46 0 0 1 .37.45 1 1 0 0 1-.06.95.18.18 0 0 1-.11.08 12.33 12.33 0 0 0 .51 1.73 8.24 8.24 0 0 0 1.25 2.14 6.5 6.5 0 0 0 2.14 1.74 6.87 6.87 0 0 0 3.22.69 8.61 8.61 0 0 0 4.47-1.21l.43-.28c0-.47.34-.69.73-.89a1.13 1.13 0 0 0 .48-.35 4 4 0 0 0 .25-.56 3.94 3.94 0 0 1 .83-1 2.35 2.35 0 0 0 .69-1.16.16.16 0 0 1 .19-.14 10.27 10.27 0 0 0 .66-3.71 10.57 10.57 0 0 0 .04-2.15zm-2.77 4.64a2.75 2.75 0 0 1-.31 1.55.14.14 0 0 1-.2 0 5.55 5.55 0 0 1-1 2.15 3.92 3.92 0 0 1-2.62 1.59 1.15 1.15 0 0 1-.14.17.82.82 0 0 1-.81.2 2.91 2.91 0 0 1-.79-.34 2.3 2.3 0 0 1-.34-.28 5.15 5.15 0 0 1-1.24-.74 6.53 6.53 0 0 1-1.94-3.28q-.15-.51-.27-1a2.19 2.19 0 0 1-.29-.62 1.5 1.5 0 0 1 0-.84 15.48 15.48 0 0 1-.13-1.92 12.42 12.42 0 0 1 .13-1.9.2.2 0 0 1-.22 0 .45.45 0 0 1-.16-.28.19.19 0 0 1 .1-.17L44 18a6.37 6.37 0 0 1 .16-.66.75.75 0 0 1-.12-.61.46.46 0 0 1 .47-.28 4.27 4.27 0 0 1 .5-.81A4 4 0 0 1 48.29 14a4.9 4.9 0 0 1 .77.07 1 1 0 0 1 .4-.25.64.64 0 0 1 .79.28.77.77 0 0 1 .07.39 6 6 0 0 1 .58.35 6 6 0 0 1 1.94 2.88 11.52 11.52 0 0 1 .43 1.51.83.83 0 0 1 .55.95 1.58 1.58 0 0 1-.1.43c0 .1-.13.19-.17.29a.31.31 0 0 0 0 .08 1.1 1.1 0 0 0 0 .18 6.16 6.16 0 0 0 .37.63c.28.68-.08 1.4-.11 2.07zm1-5a.19.19 0 0 1-.16.1.19.19 0 0 1-.17-.1 1.35 1.35 0 0 0-.15-.26l-.05-.06-.1-.09H54.01a.19.19 0 0 1-.23-.13.19.19 0 0 1-.19-.2.19.19 0 0 1 .19-.19 1.06 1.06 0 0 1 .4.08h.17a.72.72 0 0 1 .63.21.61.61 0 0 1-.19.68zM74.49 19.22c-.14-.27-.3-.53-.46-.79a2 2 0 0 1-.27-.69c-.05-.27-.06-.54-.12-.81a.16.16 0 0 1 0-.12 8.12 8.12 0 0 0-1.16-1.64 7 7 0 0 0-.86-.78 1.58 1.58 0 0 1-.7.37 1.09 1.09 0 0 1-1-.26.19.19 0 0 1 0-.3 1.61 1.61 0 0 1 .53-.15l.24-.06a7.59 7.59 0 0 0-4-1.05 7.94 7.94 0 0 0-5 1.6l.15.14a.19.19 0 1 1-.27.27l-.08-.08h-.06a7 7 0 0 0-.69.65 8.6 8.6 0 0 0-2.22 4.83 1.59 1.59 0 0 1 .19 1 1.62 1.62 0 0 1-.3.77v.77a1.33 1.33 0 0 1 .37.45 1 1 0 0 1-.06.95.16.16 0 0 1-.1.08 10.13 10.13 0 0 0 .51 1.73 8.2 8.2 0 0 0 1.24 2.14 6.5 6.5 0 0 0 2.14 1.74 6.9 6.9 0 0 0 3.22.69 8.68 8.68 0 0 0 4.48-1.21l.43-.28c0-.47.33-.69.73-.89a1.2 1.2 0 0 0 .48-.35 5.55 5.55 0 0 0 .24-.56 3.94 3.94 0 0 1 .83-1 2.21 2.21 0 0 0 .69-1.16.17.17 0 0 1 .2-.14 10.49 10.49 0 0 0 .66-3.71 11.48 11.48 0 0 0 .02-2.15zm-2.78 4.64a2.66 2.66 0 0 1-.3 1.55.15.15 0 0 1-.21 0 5.54 5.54 0 0 1-1 2.15 3.94 3.94 0 0 1-2.63 1.59 1.09 1.09 0 0 1-.13.17.83.83 0 0 1-.81.2 2.78 2.78 0 0 1-.79-.34 2.39 2.39 0 0 1-.35-.28 5.09 5.09 0 0 1-1.23-.74 6.53 6.53 0 0 1-2-3.28c-.1-.34-.18-.68-.26-1a2 2 0 0 1-.3-.62 1.5 1.5 0 0 1 0-.84 13.58 13.58 0 0 1 0-3.82.19.19 0 0 1-.21 0 .4.4 0 0 1-.16-.28.2.2 0 0 1 .09-.17 3.12 3.12 0 0 1 .39-.15c.05-.23.11-.45.17-.66a.79.79 0 0 1-.13-.61.46.46 0 0 1 .47-.28 4.3 4.3 0 0 1 .51-.81A4 4 0 0 1 66.19 14a4.79 4.79 0 0 1 .77.07 1.12 1.12 0 0 1 .4-.25.64.64 0 0 1 .79.28.68.68 0 0 1 .07.39 5 5 0 0 1 .58.35 6 6 0 0 1 1.94 2.88 11.53 11.53 0 0 1 .44 1.51.82.82 0 0 1 .54.95 1.28 1.28 0 0 1-.1.43c0 .1-.12.19-.17.29s0 .06 0 .08a1.1 1.1 0 0 1 0 .18 6.16 6.16 0 0 0 .37.63c.29.68-.07 1.4-.11 2.07zm1-5a.19.19 0 0 1-.34 0 1.35 1.35 0 0 0-.15-.26v-.06l-.1-.09h-.16a.2.2 0 0 1-.24-.13.2.2 0 1 1 0-.39A1.1 1.1 0 0 1 72 18h.17a.7.7 0 0 1 .62.21.61.61 0 0 1-.09.69zM95.35 29.82c0-.1-.09-.21-.13-.31v-.24a.16.16 0 0 0 0-.07.12.12 0 0 0 0-.05h-.52a.18.18 0 0 1-.18-.15h-.76a.86.86 0 0 1-.53-.26 1.47 1.47 0 0 1-.23-.84 26.34 26.34 0 0 1-.12-3.13v-3.13c0-2.43 0-3.92-.11-4.45a8 8 0 0 0-.31-1.19c-.18-.18-.37-.35-.57-.52h-.1a.49.49 0 0 1-.37-.62c0-.13.07-.28.08-.42a4.93 4.93 0 0 0-1.34-.95 5.61 5.61 0 0 0-2.52-.58 6.81 6.81 0 0 0-2.54.53l-3 2.81c0-1.37.06-2.26.09-2.69l-.06-.1v-.07l-.13-.13-.07-.06-.1-.06-.16.08a16.21 16.21 0 0 1-4.83 1.29v1a11.77 11.77 0 0 1 2.13.08.66.66 0 0 1 .37.29 4.2 4.2 0 0 1-.03 1.12V22.11c-.07 3.23-.1 4.93-.1 5.08a3.46 3.46 0 0 1-.21 1.32.8.8 0 0 1-.29.29 1.17 1.17 0 0 1-.53.13h-1l-.23.23a.42.42 0 0 0-.11.49 1.11 1.11 0 0 0 .17.27c1.89-.08 3.27-.11 4.13-.11q1.62 0 3.6.12a1 1 0 0 0-.19-.72 1.67 1.67 0 0 0-.25-.28L83 28.9a.92.92 0 0 1-.41-.19.73.73 0 0 1-.2-.27 1.71 1.71 0 0 1-.08-.29.19.19 0 0 1-.12-.09.14.14 0 0 1 0-.07.11.11 0 0 1 0-.08.43.43 0 0 1 .09-.21v-.56c0-.21 0-1.4-.06-3.57a2.74 2.74 0 0 1-.09-.86.33.33 0 0 0-.15-.29.46.46 0 0 1-.13-.32 1.17 1.17 0 0 1 .26-.78l.08-.13v-.34l-.12-.14c-.18-.16-.48-.24-.57-.48s.15-.55.31-.74a3.09 3.09 0 0 1 .41-.4 4.8 4.8 0 0 1 .4-1.84 3.94 3.94 0 0 1 1.45-1.45 4.2 4.2 0 0 1 2.25-.63 3.85 3.85 0 0 1 2.38.73 3.22 3.22 0 0 1 1.27 1.91v.14l.17.21a1.74 1.74 0 0 1 .3.55c.09.38-.14.65-.33.94v4.8c0 .77-.08 2.61-.23 5.52 1.42-.08 2.43-.12 3-.12h.52a1.55 1.55 0 0 1 .63-.16.66.66 0 0 1 .46.21l1 .06zM123.11 40.35l-.81-.39a.18.18 0 0 1-.14.17.49.49 0 0 1-.07.24c-.09.15.07.38.08.38h.1l.36-.09h.14l.28-.15z" fill="#fff"/><path d="M144.7 33.66l-.48.07a1.88 1.88 0 0 0-.61.23.19.19 0 0 1-.19 0c-1.76 1.46-5.87 5.52-9.28 7.18a.18.18 0 0 1 0 .32c-.32.15-.66.26-1 .43a2.21 2.21 0 0 1-.86.37 5.47 5.47 0 0 1-.9-.08 4.19 4.19 0 0 0-.71 0 3.39 3.39 0 0 1-2.18-.28 13.24 13.24 0 0 1-1.87-.4c-.55-.16-1.25-.4-2.08-.72-.36.17-.74 0-1.09-.09s-.41.14-.59.24a1.87 1.87 0 0 1-.76.23 2.88 2.88 0 0 1-1.6-.33.19.19 0 0 1 .1-.36 3.72 3.72 0 0 0 .57-.08c.17 0 .46-.1.57-.26s-.17-.22-.27-.26-.36-.12-.52-.21a.2.2 0 0 1 0-.36l-.35-.16c-1.21-.54-2.14-.92-2.79-1.13a16.94 16.94 0 0 0-2.18-.54 17.74 17.74 0 0 0 8.73-3 17 17 0 0 0 5.88-6.94 20.47 20.47 0 0 0 1.54-4.75.89.89 0 0 1-.27-.15.31.31 0 0 1 0-.45 1.71 1.71 0 0 1 .43-.29h.05a25.21 25.21 0 0 0 .3-3.95 20.8 20.8 0 0 0-1.19-7.25 4.28 4.28 0 0 1-.61-.09.2.2 0 0 1-.14-.19 1.66 1.66 0 0 1 .25-.94 15 15 0 0 0-1.89-3c-1-.23-1.38-1.22-2-1.95a5.64 5.64 0 0 0-1.6-1.08c-.32-.2-.62-.4-.91-.62s-.29-.23-.44-.33c-.38-.19-.77-.37-1.17-.53l-.59-.32-.31.08a2.51 2.51 0 0 1-1 .07.2.2 0 0 1-.14-.19v-.39a20 20 0 0 0-3.73-.54.44.44 0 0 1-.22.07.67.67 0 0 1-.37-.08h-.61a20.31 20.31 0 0 0-2.49.15 1.15 1.15 0 0 0-1.04-.81 3.49 3.49 0 0 0-1.09.38c-.41.13-.9 0-1.32.14a7.49 7.49 0 0 0-2.39 1.25 3.77 3.77 0 0 1-2.41.92 6.18 6.18 0 0 1-1.11-.42 1.08 1.08 0 0 0-1 .27 3.6 3.6 0 0 0-.5.82c-.25.38-.74.27-1.12.19-.75-.15-2-.4-2.16.64-.16.84.65 1.59.46 2.46-.09.4-.42.59-.69.86A2.54 2.54 0 0 0 98 8.66a1.72 1.72 0 0 0 .9 1.94 1.59 1.59 0 0 0 .18.08 2 2 0 0 1-.22.21 2.8 2.8 0 0 0-1 .87 4.49 4.49 0 0 0-.46 2.42 2.29 2.29 0 0 0 1 1.84 24.14 24.14 0 0 0-.18 3 22.73 22.73 0 0 0 2.11 9.9 14.42 14.42 0 0 0 5.63 6.5 18 18 0 0 0 9.2 2.07q-.37.15-.78.36a.42.42 0 0 1 .14.09.69.69 0 0 1 .22.44.25.25 0 0 1-.08.16.2.2 0 0 1-.17 0 2.75 2.75 0 0 1-.41-.11l-.21-.06h-.17a.26.26 0 0 1-.13-.06 32.77 32.77 0 0 0-4.26 3.22v1.62l2.09-1.34a6 6 0 0 1 1.12-.55 2.79 2.79 0 0 1 1-.18c.87 0 3.21.73 7 2.17 2 .78 3.41 1.29 4.22 1.53l1.09.09c.38 0 .76 0 1.13.07a1.48 1.48 0 0 1 .71.28 3.25 3.25 0 0 0 .92.44c.69.21 1.42.26 2.12.43a4.47 4.47 0 0 1 1.9.64 19.47 19.47 0 0 0 2.42.53c.73 0 9.66-13.19 10-13.44zm-21.32.34a1 1 0 0 1-.75.13.2.2 0 0 1-.12-.29 1.1 1.1 0 0 1 .75-.44.25.25 0 0 1 .12 0 .22.22 0 0 1 .2-.2.2.2 0 0 1 .19.2.85.85 0 0 1-.39.6zm.28-30.41a.2.2 0 0 1 .14-.06h.31a.18.18 0 0 1 .14.06.22.22 0 0 1 .06.14.21.21 0 0 1-.2.19h-.31a.21.21 0 0 1-.2-.19.22.22 0 0 1 .06-.1zm-9.8 32.66a.19.19 0 0 1-.13.05h-.42a.22.22 0 0 1-.14-.05.19.19 0 0 1 0-.28.22.22 0 0 1 .14 0h.42a.19.19 0 0 1 .13 0 .19.19 0 0 1 0 .28zm1.35 4.15a2.69 2.69 0 0 1-.49 0 .69.69 0 0 1-.28-.11.54.54 0 0 1-.21-.28.87.87 0 0 1-.07-.31v-.4a.19.19 0 0 1 .19-.19.19.19 0 0 1 .2.19v.42a.13.13 0 0 0 0 .06v.06h.48a.19.19 0 0 1 .19.2.19.19 0 0 1-.01.4zm.24-4.55a.19.19 0 0 1-.32.08 2.65 2.65 0 0 1-.52-.72v-.06a10.42 10.42 0 0 1-3.39-.87A11 11 0 0 1 109 33a1.46 1.46 0 0 1-.59-.08 1.09 1.09 0 0 1-.65-1l-.1-.09a15 15 0 0 1-2.49-3.83c-.27-.57-.51-1.19-.74-1.83a2.47 2.47 0 0 1-.63-1.08c-.06-.33 0-.67 0-1a1.64 1.64 0 0 0-.4-.67 2 2 0 0 1-.26-1.39V20.7a22.06 22.06 0 0 1-.21-3 25.23 25.23 0 0 1 .65-6 1 1 0 0 0-.06-.25 1.07 1.07 0 0 1-.09-.64 1.31 1.31 0 0 1 .42-.64l.29-.28a11.78 11.78 0 0 1 2-3.41 10.54 10.54 0 0 1 8.37-3.75.82.82 0 0 1 .53-.51 1.33 1.33 0 0 1 .83.13 5.76 5.76 0 0 0 1 .39 5.42 5.42 0 0 1 1.31.36l.07.07h.08a4 4 0 0 1 1.94.28 6.54 6.54 0 0 1 .89.59 3.2 3.2 0 0 1 .73.69.16.16 0 0 1 0 .21 10.71 10.71 0 0 1 2.26 2.2 15.75 15.75 0 0 1 2.53 5.35 25.78 25.78 0 0 1 .94 7.1 26.74 26.74 0 0 1-.42 4.78.14.14 0 0 1 0 .11c0 .38.11.74.08 1.11a3.54 3.54 0 0 1-.28 1.06c-.21.54-.5 1-.75 1.55s-.35.84-.56 1.25a3.48 3.48 0 0 1-.84 1.13 10.37 10.37 0 0 1-2.72 2.8 10.91 10.91 0 0 1-6.32 1.84h-.26a2.4 2.4 0 0 1-.1.67zm1.93 4.71a.19.19 0 0 1 0-.15.18.18 0 0 1 .08-.11.2.2 0 0 1 .15 0 3.13 3.13 0 0 0 .43 0 .19.19 0 0 1 .19.19.19.19 0 0 1-.19.2 3.68 3.68 0 0 1-.57-.06s-.06.01-.09-.03zm1.34 1a3.43 3.43 0 0 1-.56 0 .22.22 0 0 1-.12-.09.19.19 0 0 1 0-.15.22.22 0 0 1 .09-.12.39.39 0 0 1 .15 0h.07a2.56 2.56 0 0 0 .39 0 .22.22 0 0 1 .2.2.21.21 0 0 1-.22.21zm3.89.52a.7.7 0 0 1-.19.32.32.32 0 0 1-.26.1.54.54 0 0 1-.25-.09c-.13-.07-.25-.17-.38-.24a.2.2 0 0 1-.07-.27.2.2 0 0 1 .26-.07.17.17 0 0 1 .1 0 2.66 2.66 0 0 1 .63 0 .2.2 0 0 1 .16.3zm2.76-.05a5.09 5.09 0 0 0-1.17 0 .94.94 0 0 0-.46.27 1.38 1.38 0 0 1-.47.36.2.2 0 0 1-.1-.38c.17-.06.27-.24.41-.36a1.24 1.24 0 0 1 .55-.27 6.42 6.42 0 0 1 1.24 0 .2.2 0 0 1 0 .43z" fill="#fff"/><path d="M120.89 41.56a.16.16 0 0 1 0 .07h-.26a.41.41 0 0 1 0-.09.22.22 0 0 1 0-.08v-.06h.07a.08.08 0 0 1 .07 0 .16.16 0 0 1 .1 0 .26.26 0 0 1 .05.09v.05a.14.14 0 0 1-.03.02zM106.49 33.88a.09.09 0 0 1 0 .06h-.06a.12.12 0 0 1-.08 0h-.07a.16.16 0 0 1-.09 0 .14.14 0 0 1 0-.08.11.11 0 0 1 0-.08v-.06a.09.09 0 0 1 .06 0h.14a.17.17 0 0 1 .1 0 .22.22 0 0 1 0 .08v.06a.19.19 0 0 1 0 .02zM153.23 29.92a.29.29 0 0 0 0-.09.31.31 0 0 0 0-.08 1.09 1.09 0 0 0-.08-.15l-.06-.07c-.06-.07-.13-.12-.19-.18h-1.36a1.18 1.18 0 0 1-.39-.18.83.83 0 0 1-.21-.28 3.45 3.45 0 0 1-.18-1.21h-.06c.05 0 0 0 0 0h-.24c-.31 0-.71 0-.87-.35a.2.2 0 0 1 .22-.29 1.31 1.31 0 0 0 .68 0 1.22 1.22 0 0 1 .09-.65l.11-.28v-.45c0-.16-.28-.24-.28-.48a2.78 2.78 0 0 1 .16-.63 1.6 1.6 0 0 0 0-.84c-.07-.18-.23-.33-.24-.53s.17-.27.29-.38V21c-.05-.16-.1-.31-.14-.46s-.12-.49.11-.68v-.91a1.84 1.84 0 0 1-.29-.06.19.19 0 0 1-.05-.35 2.55 2.55 0 0 0 .36-.27v-.63l-.36-.13a2.49 2.49 0 0 1-.47-.21.21.21 0 0 1 0-.34 3.25 3.25 0 0 1 .68-.18.37.37 0 0 0 .18-.11v-.52c0-1.12.08-1.48.11-1.86v-.35a.41.41 0 0 0-.08-.27.23.23 0 0 0-.19-.09 22.23 22.23 0 0 0-3 .55c.08.23.13 2.81.16 3.59v3.8c0 1 0 2.06-.08 3.1a2.75 2.75 0 0 1-.14.8 4.71 4.71 0 0 1-.48.79 6.42 6.42 0 0 1-.93 1.1 4.8 4.8 0 0 1-1.41.84 4.53 4.53 0 0 1-1.56.29 3.37 3.37 0 0 1-1.93-.52 2.57 2.57 0 0 1-1-1.4 10.34 10.34 0 0 1-.26-2.49.36.36 0 0 1-.24-.15.71.71 0 0 1-.06-.43 8.22 8.22 0 0 1 .22-1.12c0-.08.05-.16.07-.25v-2c0-.67 0-2 .1-4 0-1.08.07-1.8.11-2.18a2.37 2.37 0 0 0 0-.35.41.41 0 0 0-.07-.27.23.23 0 0 0-.19-.09.94.94 0 0 0-.41.16 9.88 9.88 0 0 1-2.94 1l-.32.19a1.62 1.62 0 0 1-.94.2 3.23 3.23 0 0 0-.76 0 .6.6 0 0 0-.16 0v.64l.51.33h.92a1.52 1.52 0 0 1 .87.18.54.54 0 0 1 .21.28 6.45 6.45 0 0 1 .15 1.52c0 1.24.05 2 .05 2.32v1.27a2.56 2.56 0 0 1 .3 1.85c-.06.28-.17.54-.21.82a5.53 5.53 0 0 0 0 .91 9.74 9.74 0 0 1 0 1.79 6.76 6.76 0 0 0 .16.85 3.93 3.93 0 0 0 2.26 2.69 5.6 5.6 0 0 0 2.23.39 6.86 6.86 0 0 0 1.68-.18 5.74 5.74 0 0 0 1.41-.61 2.4 2.4 0 0 0 .61-.5l.24-.26v-.16a1.26 1.26 0 0 1 .11-.51.72.72 0 0 1 .12-.21.15.15 0 0 1 0-.06l.06-.06a1 1 0 0 1 .41-.21.51.51 0 0 1 .37.06c.36-.34.68-.65 1-.91v1.22a3.45 3.45 0 0 0 .67.54 1.84 1.84 0 0 0 .5.26h.32c-.05 0 .1 0 0 0a.2.2 0 0 1 .2 0 .21.21 0 0 1 .1.16c-.06.44-.61.49-1 .47a.94.94 0 0 1-.54-.15 1.43 1.43 0 0 1-.37-.47c0 .4 0 .79-.06 1.15q1.24-.12 2.46-.12t3.21.12a2.71 2.71 0 0 0 0-.29zm-9.92.14a.2.2 0 0 1 0-.39.2.2 0 0 1 0 .39zM169.59 30.21a2.05 2.05 0 0 0-.47-.79.86.86 0 0 0-.69-.25c-.41 0-1.07.08-1.3-.35a.18.18 0 0 1 0-.2c0 .05 0 0 0 0a1 1 0 0 1 0-.17v-.28a1.75 1.75 0 0 1 .22-.63l.07-.13V27a.54.54 0 0 1-.05-.38c0-.08 0-.15.05-.22V26a.82.82 0 0 0-.28-.46.19.19 0 0 1 0-.27.64.64 0 0 0 .17-.74c-.09-.18-.22-.33-.32-.5a.87.87 0 0 1 .14-1 .2.2 0 0 1 .27-.07v-.82l.05-2.57a10 10 0 0 1-.36-1.78 4 4 0 0 1 .18-.7.38.38 0 0 0 0-.1 4.26 4.26 0 0 0-.11-.42.8.8 0 0 0-.16-.16 1.37 1.37 0 0 1-.52-.71 1.43 1.43 0 0 0-.36-.81 2.34 2.34 0 0 1-.39-.38.36.36 0 0 1 0-.09 5.58 5.58 0 0 0-.56-.39 6.07 6.07 0 0 0-3.15-.76 6.57 6.57 0 0 0-2.28.37 16.85 16.85 0 0 0-3.41 2v2.06a4 4 0 0 1 .54.28 1 1 0 0 0 .23.08h.14c.12-.35.3-.8.52-1.34a2.59 2.59 0 0 1-.45-.14 1.57 1.57 0 0 0-.63-.15c-.18 0-.28-.28-.1-.36a1.87 1.87 0 0 1 1.5-.06l.06-.11a2.61 2.61 0 0 1 .89-.48 4.66 4.66 0 0 1 1.7-.28 4.17 4.17 0 0 1 2.28.6 1.25 1.25 0 0 0 .12.08.16.16 0 0 1 .14 0c.35.1.83.2 1 .52a.94.94 0 0 1 .08.66.65.65 0 0 0 .18.65.76.76 0 0 1 .29.58c0 .17-.13.51 0 .64s.4 0 .55 0 .4-.16.61-.22a.19.19 0 0 1 .24.23 1.51 1.51 0 0 1-1.55.95v.07a34.4 34.4 0 0 0-4.24.82 16.62 16.62 0 0 0-3.09 1 3.17 3.17 0 0 0-.47.31 3 3 0 0 0 .36.57c.08.08.15.15.25.12a1.94 1.94 0 0 0 .3-.13 1 1 0 0 1 .35-.06 1.54 1.54 0 0 0 .37 0c.17 0 .2-.18.28-.3a.7.7 0 0 1 .39-.33 1.36 1.36 0 0 1 .83.1 1.16 1.16 0 0 0 .49 0l.59-.2.68-.2a1.05 1.05 0 0 1 .57-.63.61.61 0 0 1 .5.11.18.18 0 0 1 0-.17.76.76 0 0 1 .94-.1l.11-.12a.44.44 0 0 1 .56-.09l.15-.06c.43-.17.76-.55 1.24-.57a.2.2 0 0 1 .17.3 1.64 1.64 0 0 1-.76.8 4 4 0 0 1-.61.22v4.39a1.34 1.34 0 0 0-.11.14v.3a1 1 0 0 1-.27.63 1.4 1.4 0 0 1-.82.26 7.11 7.11 0 0 1-.92.71 4 4 0 0 1-2.17.68 2.54 2.54 0 0 1-1.6-.49h-.33a1.26 1.26 0 0 1-1.05-.95 4.86 4.86 0 0 1-.12-.84c0-.29-.25-.42-.4-.65a1.13 1.13 0 0 1-.12-.63c0-.24-.46-.41-.61-.59a.21.21 0 0 1 0-.24.56.56 0 0 1 .45-.29c.19 0 .34.11.52.11s.2-.28.2-.45a.74.74 0 0 1 .08-.3.64.64 0 0 1-.24-.11 2.52 2.52 0 0 1-.54-.74 3.34 3.34 0 0 0-.32.33 5 5 0 0 0-.93 1.6 6.1 6.1 0 0 0-.39 2.23 4.16 4.16 0 0 0 1.11 3 3.51 3.51 0 0 0 1.17.79h.09a5.5 5.5 0 0 0 1-.07.36.36 0 0 1 .38.09l.24.21a.23.23 0 0 1 .07.07 5.07 5.07 0 0 0 .68 0 3 3 0 0 0 1.05-.31c.41-.23 1.73-1.26 4-3.07l-.06 2.46a.19.19 0 0 1 .08.21v.33l.09.06c.92-.06 1.68-.09 2.25-.09s1.46 0 2.36.12a.16.16 0 0 1 .14.02zM188.93 28.94a.09.09 0 0 0 0-.05.46.46 0 0 0-.14-.17 3.84 3.84 0 0 1-.57-.06 2.1 2.1 0 0 1-1-.54c-.33-.3-1.32-1.35-3-3.15l-.82-.97-.22-.09a3.43 3.43 0 0 1-1.65-1.9c-.79-.84-1.41-1.52-1.86-2l1.67-1.43a38 38 0 0 1 3.78-3.05 7.81 7.81 0 0 1 1.37-.82 6.56 6.56 0 0 1 1.16-.14.29.29 0 0 0 0-.09v-.06a.13.13 0 0 0 0-.06 1.15 1.15 0 0 0 0-.19v-.14a.29.29 0 0 0 0-.09v-.07l-.06-.06h-1.76a.2.2 0 0 1-.2 0h-.81a1.14 1.14 0 0 0-.27.31 2.37 2.37 0 0 1-.41.49.9.9 0 0 1-.49.21l-.12.13a1.41 1.41 0 0 1-.37.48c-.13.12-.27.22-.39.35a2.79 2.79 0 0 0-.3.38c-.36.5-.81 1.21-1.47 1.3-.56.55-1 1-1.27 1.22A24.71 24.71 0 0 1 177 20.5l-.18-.11v-.62a.19.19 0 0 1-.21-.24 1.72 1.72 0 0 1 .21-.43V18a1.81 1.81 0 0 1-.3-1c0-.22.17-.41.17-.64a.7.7 0 0 1 .13-.48V12.7l-.37.36c-.17.16-.39 0-.3-.24a5.31 5.31 0 0 0 .55-1.82c0-.56-.27-1.1 0-1.64 0-.1.11-.19.15-.28V7.99a1.7 1.7 0 0 0 0-.22 1.39 1.39 0 0 1 .06-.84V4.61a3 3 0 0 0 0-.36.36.36 0 0 0-.06-.22.25.25 0 0 0-.18-.08.84.84 0 0 0-.33.11 17.72 17.72 0 0 1-5.15 1.24v.53a1.28 1.28 0 0 0 .46.34 1.62 1.62 0 0 0 .57.09 8.19 8.19 0 0 1 1.31 0 .2.2 0 0 1 .14.24.16.16 0 0 1 0 .07l.09.12A13.79 13.79 0 0 1 174 9c.06 2.09.09 4.13.09 6.09v.2a8.71 8.71 0 0 0 .27 1.33 8.41 8.41 0 0 1 0 1.33v1.31a10 10 0 0 1-.16 1.21 10.39 10.39 0 0 0-.14 1.25v2.68a10.28 10.28 0 0 0 0 1.11 2.1 2.1 0 0 1 0 .75 1.2 1.2 0 0 1-.13.28v1a3.34 3.34 0 0 1-.21 1.26.89.89 0 0 1-.29.29 1.27 1.27 0 0 1-.55.13h-1.2a1.92 1.92 0 0 0-.34.48v.55c1.68-.09 3.09-.14 4.23-.14s2.48.05 3.92.14V29.39l-.09-.11h-1.63a.88.88 0 0 1-.4-.18.77.77 0 0 1-.19-.28 2 2 0 0 1-.15-.6.18.18 0 0 1-.1-.11c-.13-.4-.33-.69-.16-1.12a3.75 3.75 0 0 1 .19-.41v-1.45-.11a5 5 0 0 1-.1-.66 14.42 14.42 0 0 1 0-1.47.17.17 0 0 1 .12-.17v-1.2l.18-.09q2.14 2.07 5.48 5.75c1.08 1.2 1.8 2 2.15 2.33s.71.69 1.08 1l1.92-.5.45-.1a.15.15 0 0 1 .08-.11l.27-.13.2-.14.18-.18v-.1zM200.69 29.56a1.78 1.78 0 0 1-.86 0 1.1 1.1 0 0 1-.12.39 1.51 1.51 0 0 1-.49.45l-.34.24a8.55 8.55 0 0 0 1.62-.24c.27-.07.52-.15.77-.23" fill="#fff"/><path d="M204.24 16.49a5.36 5.36 0 0 0-2.17-2.49 6.13 6.13 0 0 0-1.51-.66h-.1l-.21.1a.52.52 0 0 1-.48.06 1.12 1.12 0 0 1-.32-.33l-.06-.09a5.68 5.68 0 0 0-.59 0 6.72 6.72 0 0 0-2.8.59 10 10 0 0 0-2 1.16 8.44 8.44 0 0 0-1.47 1.3 6.91 6.91 0 0 0-1.17 2.41 12 12 0 0 0-.52 3.67 10 10 0 0 0 1 4.54 6.55 6.55 0 0 0 2.72 2.9 7.92 7.92 0 0 0 3.67 1c.26-.16.51-.33.76-.51a1.31 1.31 0 0 0 .45-.39 1.55 1.55 0 0 0 .13-.48.2.2 0 0 1 .24-.14 1.47 1.47 0 0 0 .72.06c.18 0 .33-.13.51-.15a.54.54 0 0 1 .58.37 1.65 1.65 0 0 1 .1.62 5.59 5.59 0 0 0 .61-.26 9.72 9.72 0 0 0 1.17-.68.18.18 0 0 1 .14-.17h.05l.13-.09.07-.05.09-.09.47-1.14-.26-.3a13.18 13.18 0 0 1-2.45 1.27 6 6 0 0 1-2 .34 5.69 5.69 0 0 1-2.35-.51.19.19 0 0 1-.28 0 .44.44 0 0 0-.08-.11l-.13-.07a4.66 4.66 0 0 1-.78-.53 2.27 2.27 0 0 1-1.37-.93 6.78 6.78 0 0 1-.51-1.77 5.32 5.32 0 0 1-.34-1.94.21.21 0 0 1 .1-.14c0-.39-.06-.8-.07-1.22h5.27c1.18 0 2.37-.05 3.55-.15a15.74 15.74 0 0 0 1.83-.26 1.37 1.37 0 0 0 .13-.52c.08-.75 0-1.51.08-2.27a7.83 7.83 0 0 0-.55-1.95zm-2.32 3.88a28.32 28.32 0 0 1-2.88.09c-.61 0-1.74 0-3.37-.09-.85 0-1.43-.07-1.74-.11a7.33 7.33 0 0 1 1.15-4.51.7.7 0 0 0 .08-.1v-.06c0-.26 0-.59.23-.74a.94.94 0 0 1 .7 0 3.62 3.62 0 0 1 1.75-.51 1.61 1.61 0 0 1 1.79.15 3.67 3.67 0 0 0 .82.52c.3.11.62.14.82.41a1.68 1.68 0 0 1 .19 1.29 8.6 8.6 0 0 1 .45 3c.02.16.02.37.01.66zm.49-4.69a.19.19 0 0 1 0-.38.19.19 0 0 1 0 .38zM198.81 78.05a3 3 0 0 0-.68-1.16 1.32 1.32 0 0 0-1-.36c-.6 0-1.55.11-1.89-.51a.28.28 0 0 1 0-.28c0 .08 0 0 0 0v-.25-.41a2.54 2.54 0 0 1 .33-.92l.09-.19v-.58a.83.83 0 0 1-.07-.54c0-.12 0-.22.07-.33v-.58a1.06 1.06 0 0 0-.41-.66.29.29 0 0 1 0-.4.92.92 0 0 0 .25-1.07c-.12-.27-.32-.49-.46-.74a1.25 1.25 0 0 1 .21-1.43.29.29 0 0 1 .38-.11v-1.22l.08-3.73a14.81 14.81 0 0 1-.53-2.6 5.11 5.11 0 0 1 .27-1 .66.66 0 0 0 0-.14 6.06 6.06 0 0 0-.16-.61 1.25 1.25 0 0 0-.23-.23 2 2 0 0 1-.76-1 2.12 2.12 0 0 0-.52-1.18 3.35 3.35 0 0 1-.57-.56.67.67 0 0 1-.06-.12 8 8 0 0 0-.82-.58 8.87 8.87 0 0 0-4.58-1.1 9.62 9.62 0 0 0-3.31.54 24.14 24.14 0 0 0-5 2.88v3a5.43 5.43 0 0 1 .8.4 1 1 0 0 0 .34.11.61.61 0 0 0 .19 0c.19-.51.44-1.15.77-1.94a3.25 3.25 0 0 1-.67-.21 2.25 2.25 0 0 0-.91-.22c-.27 0-.4-.41-.14-.52a2.71 2.71 0 0 1 2.18-.08l.08-.17a3.76 3.76 0 0 1 1.3-.7 6.91 6.91 0 0 1 2.47-.41 5.94 5.94 0 0 1 3.31.88l.17.12a.25.25 0 0 1 .21 0 2.6 2.6 0 0 1 1.52.76 1.33 1.33 0 0 1 .11 1 1 1 0 0 0 .26.95 1.08 1.08 0 0 1 .42.84c0 .24-.19.74 0 .92s.58.07.8 0 .59-.23.89-.32a.29.29 0 0 1 .35.35 2.2 2.2 0 0 1-2.25 1.37V63a50.57 50.57 0 0 0-6.16 1.18 24.39 24.39 0 0 0-4.5 1.49 5.3 5.3 0 0 0-.69.44 3.67 3.67 0 0 0 .52.82c.11.11.21.22.36.18a4.17 4.17 0 0 0 .44-.19 1.28 1.28 0 0 1 .51-.09 2.41 2.41 0 0 0 .54 0c.24 0 .29-.25.41-.44a1 1 0 0 1 .56-.48 2.11 2.11 0 0 1 1.13.15 1.83 1.83 0 0 0 .7 0c.27-.1.56-.2.87-.29s.64-.2 1-.29a1.55 1.55 0 0 1 .83-.92.88.88 0 0 1 .73.16.23.23 0 0 1 .07-.24 1.11 1.11 0 0 1 1.37-.15l.15-.18a.65.65 0 0 1 .82-.12h.05l.22-.09c.63-.25 1.11-.79 1.81-.82a.28.28 0 0 1 .25.42 2.36 2.36 0 0 1-1.1 1.17 5.92 5.92 0 0 1-.89.32v6.38c-.06.07-.12.13-.17.2s0 .29 0 .44a1.35 1.35 0 0 1-.39.91 1.94 1.94 0 0 1-1.19.38 10.75 10.75 0 0 1-1.33 1 5.86 5.86 0 0 1-3.16 1 3.62 3.62 0 0 1-2.33-.72 2.5 2.5 0 0 1-.48 0 1.82 1.82 0 0 1-1.52-1.38 6.52 6.52 0 0 1-.18-1.23c-.05-.42-.36-.61-.58-.93a1.73 1.73 0 0 1-.18-.92c0-.36-.66-.6-.88-.87a.29.29 0 0 1-.05-.34.84.84 0 0 1 .66-.43c.27 0 .5.17.75.17s.29-.41.3-.65a1.16 1.16 0 0 1 .12-.45.78.78 0 0 1-.35-.16 3.5 3.5 0 0 1-.79-1.07c-.16.15-.32.3-.47.47a7.16 7.16 0 0 0-1.35 2.33 9.11 9.11 0 0 0-.56 3.24 6.06 6.06 0 0 0 1.61 4.41 5.11 5.11 0 0 0 1.7 1.15.27.27 0 0 1 .12 0 7.81 7.81 0 0 0 1.45-.11.52.52 0 0 1 .56.15c.1.11.23.19.34.3l.1.09a6.5 6.5 0 0 0 1 0 4.3 4.3 0 0 0 1.52-.45c.6-.34 2.53-1.82 5.77-4.46l-.1 3.57a.32.32 0 0 1 .12.31v.16a.14.14 0 0 0 0 .07l.05.07.06.06.19.28a.55.55 0 0 0 .14.09c1.33-.09 2.43-.14 3.27-.14s2.13.06 3.42.18a.41.41 0 0 1-.02-.08zM226.92 76.19a.25.25 0 0 1 0-.07.92.92 0 0 0-.19-.25 7.26 7.26 0 0 1-.83-.09 3.05 3.05 0 0 1-1.42-.79c-.48-.43-1.92-2-4.3-4.58l-1.3-1.41-.31-.13a5 5 0 0 1-2.4-2.76c-1.15-1.23-2.06-2.21-2.71-2.94l2.43-2.08a57.29 57.29 0 0 1 5.5-4.44 10.65 10.65 0 0 1 2-1.18 8 8 0 0 1 1.69-.2v-.13V55a1.22 1.22 0 0 0 0-.27.13.13 0 0 0 0-.06v-.14a.93.93 0 0 0 0-.13v-.06l-.06-.1a.6.6 0 0 0-.08-.08l-1.91.06h-.65a.27.27 0 0 1-.29 0H220.92a1.9 1.9 0 0 0-.4.45 3.38 3.38 0 0 1-.59.71 1.39 1.39 0 0 1-.71.32l-.18.18a2.1 2.1 0 0 1-.54.7c-.19.17-.39.33-.56.51a4.61 4.61 0 0 0-.44.55c-.52.73-1.17 1.77-2.14 1.9-.81.79-1.43 1.39-1.84 1.76a37.25 37.25 0 0 1-3.65 3l-.26-.15v-.9a.3.3 0 0 1-.31-.35 2.31 2.31 0 0 1 .31-.63v-1.96a2.72 2.72 0 0 1-.44-1.42c0-.32.25-.59.24-.92a1.12 1.12 0 0 1 .2-.7v-4.69l-.53.52a.29.29 0 0 1-.45-.34 7.64 7.64 0 0 0 .8-2.71c0-.82-.39-1.61 0-2.4.07-.13.16-.26.22-.4v-1.58c0-.11 0-.22-.06-.33a2 2 0 0 1 .09-1.21c0-.81 0-1.65.06-2.54v-.85a2.85 2.85 0 0 0 0-.51.51.51 0 0 0-.09-.32.33.33 0 0 0-.27-.12 1.23 1.23 0 0 0-.47.16 25.62 25.62 0 0 1-7.49 1.8v.77a1.82 1.82 0 0 0 .67.5 2.36 2.36 0 0 0 .83.13 12.18 12.18 0 0 1 1.91 0 .27.27 0 0 1 .19.34.37.37 0 0 1 0 .11.52.52 0 0 1 .12.17 17.6 17.6 0 0 1 .27 3.44q.13 4.57.14 8.87v.29a11.44 11.44 0 0 0 .38 1.92 14 14 0 0 1 .08 1.94v1.91a17.43 17.43 0 0 1-.22 1.75 15.77 15.77 0 0 0-.22 1.83V69.65a14.41 14.41 0 0 0 0 1.61 3.08 3.08 0 0 1 0 1.09 1.4 1.4 0 0 1-.19.41v1.4a4.65 4.65 0 0 1-.31 1.82 1.1 1.1 0 0 1-.41.42 1.67 1.67 0 0 1-.8.2h-1.75a2.6 2.6 0 0 0-.49.7v.79q3.66-.19 6.15-.2c1.7 0 3.59.07 5.69.2v-1.17l-.06-.09c0-.06-.09-.11-.13-.16-1.47 0-2.27-.06-2.37-.07a1.49 1.49 0 0 1-.58-.27 1.21 1.21 0 0 1-.28-.4 3.31 3.31 0 0 1-.22-.88.28.28 0 0 1-.14-.16c-.19-.59-.48-1-.24-1.63a6.37 6.37 0 0 1 .28-.6v-2.1a.84.84 0 0 1 0-.17 6.08 6.08 0 0 1-.16-1c-.07-.71 0-1.43 0-2.14a.27.27 0 0 1 .17-.25v-1.75l.26-.13q3.12 3 8 8.36 2.37 2.61 3.12 3.38c.51.51 1 1 1.58 1.5l2.79-.72.65-.16a.26.26 0 0 1 .12-.15 2.38 2.38 0 0 0 .39-.2 2.21 2.21 0 0 0 .3-.2 2.13 2.13 0 0 0 .26-.26.43.43 0 0 0 0-.07V76.43a.14.14 0 0 0 0-.07v-.14zM249.19 58.1a7.76 7.76 0 0 0-3.19-3.57 8.6 8.6 0 0 0-2.2-1l-.15.07-.3.15a.79.79 0 0 1-.7.09 1.55 1.55 0 0 1-.46-.49l-.09-.12h-.87a9.86 9.86 0 0 0-4.07.85 14.68 14.68 0 0 0-2.88 1.69 12.45 12.45 0 0 0-2.15 1.89 10.21 10.21 0 0 0-1.7 3.51 17.64 17.64 0 0 0-.76 5.33 14.46 14.46 0 0 0 1.42 6.6 9.65 9.65 0 0 0 3.91 4.21 11.52 11.52 0 0 0 5.33 1.4c.38-.23.75-.48 1.11-.74a2 2 0 0 0 .66-.56 2.85 2.85 0 0 0 .18-.71.3.3 0 0 1 .35-.2 2.11 2.11 0 0 0 1.06.09c.25 0 .47-.19.73-.23a.8.8 0 0 1 .85.55 2.5 2.5 0 0 1 .14.9c.31-.12.61-.24.89-.38a15.15 15.15 0 0 0 1.69-1 .29.29 0 0 1 .21-.24h.07l.19-.13h.05l.1-.08.14-.13.68-1.65-.39-.44a18.18 18.18 0 0 1-3.56 1.84 8.89 8.89 0 0 1-2.9.5 8.44 8.44 0 0 1-3.43-.74.27.27 0 0 1-.39-.08l-.12-.16-.19-.1a7.26 7.26 0 0 1-1.13-.77 3.37 3.37 0 0 1-2-1.34 10.92 10.92 0 0 1-.75-2.58 7.91 7.91 0 0 1-.46-2.63.26.26 0 0 1 .13-.21c0-.56-.08-1.15-.09-1.78h7.66c1.72 0 3.44-.06 5.16-.2a23.58 23.58 0 0 0 2.66-.38 2.07 2.07 0 0 0 .19-.76c.11-1.1 0-2.2.11-3.3a.14.14 0 0 1 0-.06 11.17 11.17 0 0 0-.74-2.91zm-3.39 5.63a40.06 40.06 0 0 1-4.17.13c-.9 0-2.53 0-4.9-.13-1.24 0-2.09-.1-2.53-.15q0-4.48 1.67-6.57l.12-.13a.24.24 0 0 1 0-.09c-.05-.39-.07-.86.32-1.09a1.52 1.52 0 0 1 1 0h.05a5.35 5.35 0 0 1 2.54-.7 2.38 2.38 0 0 1 2.61.22 5 5 0 0 0 1.2.76c.42.16.9.2 1.19.59a2.42 2.42 0 0 1 .27 1.88 12.63 12.63 0 0 1 .66 4.38c0 .17-.01.49-.03.9zm.73-6.81a.28.28 0 0 1 0-.56.28.28 0 0 1 0 .56zM142.48 38.93a2.26 2.26 0 0 1 .68 1 4.79 4.79 0 0 1 .17.75 1.18 1.18 0 0 1 0 .72.57.57 0 0 1-.23.23 1.09 1.09 0 0 0-.23.09v.53c0 .19.08.2.1.27a3.83 3.83 0 0 1 .08 1v.94a1.79 1.79 0 0 1-.14.75v.76c.44.53.94 1.17.34 1.66a.22.22 0 0 1-.32-.07v19.28a14.29 14.29 0 0 1 2.83 1.07 5.71 5.71 0 0 0 .88.3 7.65 7.65 0 0 0 1.07.15c.43 0 .84.11 1.26.19V55.18a1.66 1.66 0 0 1-.21-.06l-.34-.08a.62.62 0 0 0-.19 0h-.05a12 12 0 0 1-1.33.24.64.64 0 0 1-.57-.23.78.78 0 0 1 0-.71.2.2 0 0 1 .17-.09 1.35 1.35 0 0 1 .68.17.71.71 0 0 0 .55.09 2.23 2.23 0 0 0 .91-.72.86.86 0 0 1-.07-.1.62.62 0 0 1-.1-.42c0-.35.29-.49.52-.68q.09-9.4.12-10.14a11 11 0 0 1 .48-3.56c0-.07.09-.13.13-.19a5.13 5.13 0 0 0-1.41.83c-.18.13-.39-.16-.24-.31s.67-.58.56-1a1.17 1.17 0 0 0-.79-.78 4.52 4.52 0 0 0-1-.09 3 3 0 0 1-1-.23c-.16-.07-.1-.31 0-.35a5.71 5.71 0 0 1 2.14-.08 1.27 1.27 0 0 1 .8.29c.21.2.34.47.55.67 1.07 1.06 2.72-.32 3.78-.71a.2.2 0 0 1 .25.18 1 1 0 0 1-.23.6l1-.05a6 6 0 0 1 .74-.43c.14-.07.3-.13.45-.19v-1.81c-4.7.2-7.73.29-9.08.29s-4.4-.09-9.55-.29v2.35a19.35 19.35 0 0 1 4.57.39 2.17 2.17 0 0 1 1.27.95zm4.71 14.6c-.56.34-1.7.33-1.9-.44a.18.18 0 0 1 .09-.22 3.24 3.24 0 0 1 2-.24.19.19 0 0 1 .17.27.17.17 0 0 1 .05.19.78.78 0 0 1-.41.44zm1.06-13a.2.2 0 0 1 .24.14.2.2 0 0 1-.14.23c-.46.1-.91.22-1.37.3a.21.21 0 0 1-.24-.14.2.2 0 0 1 .13-.24c.47-.1.92-.22 1.38-.32zm-3.41-2.37c.43 0 .86-.08 1.3-.07s.83 0 1 .34h.11a.2.2 0 0 1 .09.33 1.81 1.81 0 0 0-.22.32.19.19 0 0 1-.3 0 2 2 0 0 0-1-.32 2.8 2.8 0 0 1-1.1-.28.2.2 0 0 1 .12-.35zM153.71 87.23a2.43 2.43 0 0 1 2.13-.39 11.11 11.11 0 0 1 1.25.36l.48.13h3c.32 0 .65-.1 1-.13a5.1 5.1 0 0 1 1.46.06l.43.11h1.07c2.28 0 4 0 5.06-.11h.3l.44-.09a1.25 1.25 0 0 0 .83-.45 3.88 3.88 0 0 0 .53-1.3c0-.14.09-.28.13-.43.08-.78.15-1.55.23-2.3a7.14 7.14 0 0 1-.2-1.9 1.68 1.68 0 0 1 .5-1.07c.19-1.74.38-3.37.56-4.89v-.06a3.18 3.18 0 0 0-.85-.7h-1.14l-1.27 6.1a18.15 18.15 0 0 1-.73 2.54 10.76 10.76 0 0 1-1.12.34.17.17 0 0 1-.05.13 3.46 3.46 0 0 1-2.83.78l-2.61-.11q-2.56.18-5.88.18h-2.35c-1.15 0-2.3-.07-3.44-.07a.17.17 0 0 1-.18-.15l-1.23-.08c0-.61 0-1.29-.07-2a.2.2 0 0 1-.31-.2c.07-.28.19-.58.28-.88s0-.86 0-1.32a3.4 3.4 0 0 1-.29-.65 1.69 1.69 0 0 1 .12-1c.05-.15.11-.29.17-.44V76a2.58 2.58 0 0 1-.62 0 .21.21 0 0 1-.2-.19 1.54 1.54 0 0 1 .23-.65 1.83 1.83 0 0 0 .25-.82v-.86c0-.28.05-.55.09-.81a9.57 9.57 0 0 0 .19-1.76c0-.56-.11-1.12-.17-1.68-.39 0-.78.1-1.16.17a3 3 0 0 1-.89 0 1.75 1.75 0 0 1-.69-.29 17.82 17.82 0 0 0-1.67-1c-.46-.22-.94-.41-1.41-.6v6.92a.8.8 0 0 1 .4.35.44.44 0 0 0 .15 0c.29-.18.48-.5.79-.66a2.53 2.53 0 0 0 .52-.26 1.5 1.5 0 0 0 .26-.44 1.86 1.86 0 0 1 .57-.9.19.19 0 0 1 .28.12 2.5 2.5 0 0 1-.22 1.65c-.09.22-.17.46-.28.67a1.21 1.21 0 0 1-.5.5l-.33.18-.16.1c0 .24-.14.4-.39.38-.43 0-.66-.55-.85-.86v-.09l-.25-.06c0 .64 0 1.41-.05 2.28a4.19 4.19 0 0 1 .98 1.21.2.2 0 0 1-.07.27.19.19 0 0 1-.26-.07 5.19 5.19 0 0 0-.58-.75l-.16-.16v.7q0 .84-.06 1.53c.59-.05 1.19-.08 1.79-.08.25 0 .24.37 0 .39a3.22 3.22 0 0 0-1.27.2c.33.31.79.48 1.07.85a.2.2 0 0 1-.12.29 2.83 2.83 0 0 1-1.23.13l-.37-.05a7.59 7.59 0 0 1-.19 1.14 1.86 1.86 0 0 1-.44.85 9.88 9.88 0 0 1-2.5 1.69v1.91q1.82-.16 3.6-.24a3.77 3.77 0 0 1 .09-.83c.08-.29.25-.65.6-.61s.52.49.68.78a1 1 0 0 0 .15.2l.07.06a.72.72 0 0 1 .25-.07 1.05 1.05 0 0 1 .84.42l7.79.12zm-9.38-3.66a3.52 3.52 0 0 1-.69.8.19.19 0 0 1-.27-.27 3.85 3.85 0 0 0 .35-.35l.08-.1.14-.21a.19.19 0 0 1 .26-.07.21.21 0 0 1 .13.2zm3.13 1.43a11.33 11.33 0 0 0-2.1-.21.19.19 0 0 1 0-.38 11.56 11.56 0 0 1 2.2.22c.25.05.14.42-.1.37zm.5-7.46a5.25 5.25 0 0 1-2.49 0 .2.2 0 0 1-.19-.19.19.19 0 0 1 .19-.19 5.09 5.09 0 0 0 2.39 0 .2.2 0 0 1 .24.13.2.2 0 0 1-.1.25z" fill="#fff"/><path d="M167 83.26c-.61.13-1.29.25-2 .35a3.72 3.72 0 0 0 2-.35z" fill="#fff"/></svg>