<svg xmlns="http://www.w3.org/2000/svg" viewBox="0 0 300 62"><path fill="#fff" d="M44.47 24.41H33.25v-4.96l1.91-.03-.01-4.01h-4.87l-.01 4.02 1.94.01-.01 4.97H20.97v-4.96l1.99-.05V6.17l-1.99-.04V1.17H32.2v4.97l-1.93.01v4.14h4.89V6.16l-1.91-.03V1.17h11.22v4.97l-1.99.02v13.26l1.99.03v4.96zM55.54 19.43l4.65.01V15.4l4.65-.02v9.03H46.25v-4.96l1.99-.05V6.17l-1.99-.04V1.17h18.59v8.9l-4.63.01-.02-3.94h-4.63l-.01 3.94 3.4-.01v5.32l-3.37-.01-.04 4.05zM15.94 24.41h-12v-4.96l2.34-.03V6.17L4.3 6.14v4.63l-4.29.02L0 1.17h19.88v9.61H15.6V6.14l-1.99.03v13.25l2.32.03.01 4.96zM41.99 53.16c0-1.51-.81-2.47-2.16-2.82l-2.36-.06v5.16h2.38v6.02H26.18v-6.01l2.41-.05V39.34l-2.41-.04v-6.02l16.79.08c2.54.01 5 .99 6.48 3 1.71 2.32 1.92 5.59.6 8.13-.83 1.6-2.5 2.36-4.19 3.12 2.11.49 4.47 1.35 4.54 3.38l.14 4.43 2.07.04v6.01H42v-8.31zm-.76-8.91c1.46-.92 1.42-3.36.11-4.27-1.1-.76-2.54-.71-3.87-.66v5.51c1.25.04 2.64.12 3.77-.59zM240.13 61.51l-8.07-15.28-.15 9.2 2.43.02v6.02h-10.46l.02-6.03 2.4-.04V39.35l-2.42-.05v-6.02l10.45.01 7.8 14.66.1-8.62-2.39-.02v-6.03h9.85v6.02l-2.41.05v22.11l-7.15.05zM67.73 62c-6.21.12-11.29-3.55-13.01-9.33-.99-3.34-1.07-6.84-.14-10.24 1.61-5.89 6.92-9.72 13.01-9.68 6.9.05 12.45 5.06 13.22 11.88.32 2.85.23 5.58-.64 8.29-1.76 5.44-6.52 8.97-12.43 9.08zm2.7-20.66c-.4-1.54-1.63-2.54-2.97-2.54s-2.61.97-2.98 2.52c-1.21 4.98-1.42 14.97 3.23 14.63 4.15-.31 3.91-9.99 2.72-14.61zM208.35 62c-6.21.12-11.29-3.55-13.01-9.33-.99-3.34-1.07-6.84-.14-10.24 1.61-5.89 6.92-9.72 13.01-9.68 6.9.05 12.45 5.06 13.22 11.88.32 2.85.23 5.58-.64 8.29-1.76 5.44-6.52 8.97-12.43 9.08zm2.7-20.66c-.4-1.54-1.63-2.54-2.97-2.54s-2.61.97-2.98 2.52c-1.21 4.98-1.42 14.97 3.23 14.63 4.15-.31 3.91-9.99 2.72-14.61zM265.8 53.01l-6.94.02-.65 2.4 2.54.02v6.02h-10.41v-6.03l1.97-.07 4.82-16.02-1.96-.06v-6.01h17.47v6.02l-2.53.05 4.71 16.04 2 .07.02 6.01h-13.2v-6.02h2.72l-.55-2.44zm-1.45-6.05l-1.6-6.96-2.14 6.97 3.75-.02zM119.38 55.44h5.64v-4.89l5.64-.03v10.95h-22.55v-6.01l2.41-.06V39.35l-2.41-.05v-6.02h22.55v10.8l-5.62.01-.02-4.77-5.62-.01v4.78l4.11-.01v6.45l-4.09-.01-.04 4.92zM14.09 55.45v6.02H0v-6.01l2.41-.06V39.35L0 39.3v-6.02l15.72.09c3.9.02 7.09 2.49 8.04 6.17 1.43 5.48-1.01 10.86-6.64 11.69-1.94.28-3.82.24-5.83.24v3.97l2.8.01zm.49-10.6c1.39-1.22 1.33-3.72.07-4.89-.83-.77-2.24-.68-3.35-.61v6.06c1.04.06 2.43.19 3.28-.55zM137.98 59.87l-.1 1.6h-4.2l.02-9.88 3.84.03 1.03 2.58c.83 2.09 3.5 2.86 5.59 1.9.65-.3 1.17-1.24 1.16-1.89s-.73-1.59-1.46-1.85l-4.48-1.58c-2.65-.93-4.49-2.91-5.22-5.62-.68-2.54-.76-5.18.4-7.59 2.34-4.82 9.2-6.36 13.31-3.19l.08-1.38h4.18v9.34h-3.92c-.4-1.38-1.05-2.55-1.93-3.12-1.25-.81-2.69-.85-4.05-.3-.52.21-.98 1.07-.93 1.57.05.46.64 1.24 1.14 1.41l5.49 1.9c3.92 1.36 5.87 4.93 5.77 8.93-.12 5.33-4.04 9.33-9.47 9.24-2.26-.04-4.34-.52-6.24-2.12zM160.71 59.87l-.1 1.6h-4.2l.02-9.88 3.84.03 1.03 2.58c.83 2.09 3.5 2.86 5.59 1.9.65-.3 1.17-1.24 1.16-1.89s-.73-1.59-1.46-1.85l-4.48-1.58c-2.65-.93-4.49-2.91-5.22-5.62-.68-2.54-.76-5.18.4-7.59 2.34-4.82 9.2-6.36 13.31-3.19l.08-1.38h4.18v9.34h-3.92c-.4-1.38-1.05-2.55-1.93-3.12-1.25-.81-2.69-.85-4.05-.3-.52.21-.98 1.06-.93 1.57.05.45.64 1.24 1.14 1.41l5.49 1.9c3.92 1.36 5.87 4.93 5.77 8.93-.12 5.33-4.04 9.33-9.47 9.24-2.26-.04-4.34-.52-6.24-2.12zM94.56 50.93l-.01 4.51 3.14.01v6.02H83.26l.01-6.03 2.41-.04V39.35l-2.42-.05v-6.02h22.63V44.1l-5.61.01-.02-4.8-5.71.01v4.5h4.5v7.11h-4.49zM299.99 50.48l.01 10.99h-22.46l-.03-6.01 2.45-.06V39.35l-2.42-.05v-6.02h14.39v6.03l-3.1.02v16.1l4.66.02.01-4.95 6.49-.02zM192.35 61.47h-13.67v-6.01l2.42-.06V39.35l-2.42-.05v-6.02h13.67l.01 6.03-2.39.03v16.08l2.38.03v6.02z"/></svg>