<svg xmlns="http://www.w3.org/2000/svg" width="300" height="77" viewBox="0 0 300 77"><path d="M56.39 57.74h-38l9.88-41.94h37L69.08 0H25.39C20.29 0 15 4.18 13.65 9.28L.32 64.26C-1 69.36 2 73.54 7.14 73.54h45.41z" fill="#fff"/><path d="M56.39 57.74h-38l9.88-41.94h37L69.08 0H25.39C20.29 0 15 4.18 13.65 9.28L.32 64.26C-1 69.36 2 73.54 7.14 73.54h45.41z" fill="#fff" opacity=".5"/><path d="M177.22 24.36c2.42 0 4.05 1.5 3.53 4.36-.61 3.36-2.06 10.16-2.56 12.1a5.66 5.66 0 0 1-5.65 4.28h-12.4l3.2-14.59H166l-2.67 12.72h7.31c3.17 0 4.53-1.15 4.94-3.25s1.69-8.67 2-10.27-.07-3.21-2.79-3.21h-10.43l.58-2.14h12.28m0-1.44h-13.38l-.28 1.08-.56 2.12-.5 1.82h12.32a1.92 1.92 0 0 1 1.31.32 1.63 1.63 0 0 1 .07 1.18c-.3 1.6-1.57 8.16-2 10.26-.2 1.06-.65 2.09-3.53 2.09h-5.54l2.31-11 .36-1.74h-5.6l-.25 1.13-3.19 14.59-.39 1.75h14.19a7.13 7.13 0 0 0 7.05-5.36c.49-2 1.94-8.71 2.58-12.21a4.76 4.76 0 0 0-4.95-6zM132.01 25.3h5.61l2.43 7.69 5.83-7.69h5.72l-10.05 13.01-1.83 8.9h-5.84l2.35-9.25-4.22-12.66zM114.79 25.3h16.3l-1.21 4.65-11.97 12.26h9.25l-.93 5h-16.41l.81-4.51 12.2-12.42h-9.25l1.21-4.98zM65.91 25.3l-1.79 8.44h-6.53l1.79-8.44h-5.89l-4.66 21.91h5.9l1.84-8.67h6.53l-1.84 8.67h5.89l4.66-21.91h-5.9zM89.63 25.3H76.49a3.4 3.4 0 0 0-3.16 2.6l-3.5 16.47a2 2 0 0 0 2 2.6H85a3.4 3.4 0 0 0 3.16-2.6l3.5-16.47a2 2 0 0 0-2.03-2.6zM83 42.21h-7.08L78.53 30h7.06zM110.19 25.3H97a3.39 3.39 0 0 0-3.15 2.6l-3.5 16.47a2 2 0 0 0 2 2.6h13.14a3.41 3.41 0 0 0 3.16-2.6l3.5-16.47a2 2 0 0 0-1.96-2.6zm-6.65 16.91h-7.06L99.08 30h7.07zM271.45 23.91L262 36.79l-2 9h-2.21l1.8-9.14-4.43-12.77h2.27l3.81 10.32 7.91-10.32h2.21m2.83-1.44h-5.74l-.44.57-6.33 8.25-2.91-7.88-.34-.94h-5.28l.66 1.91 4.29 12.41-1.72 8.75-.34 1.71h5.12l.24-1.13 1.89-8.73 9.23-12.63 1.67-2.29zM248.65 23.91l-.57 2.86-15.14 16.08 11.88-.1-.57 3.07h-14.71l.62-3.42 15.48-15.8h-11.93l.72-2.69h14.22m1.75-1.44h-17.07l-.33 1.07-.72 2.69-.44 1.77h10.38l-13.09 13.39-.31.32-.07.43-.62 3.42-.3 1.69h17.62l.21-1.17.57-3.07.32-1.71h-1.74l-8.52.08 12.84-13.63.28-.3.08-.41.57-2.86.34-1.72zM198.68 28.56l-2.6 12.26H189l2.61-12.26h7.06m0-1.44h-7.06a1.43 1.43 0 0 0-1.41 1.14l-2.6 12.26a1.46 1.46 0 0 0 .28 1.21 1.48 1.48 0 0 0 1.12.53h7.07a1.43 1.43 0 0 0 1.4-1.14l2.61-12.26a1.44 1.44 0 0 0-1.41-1.74z" fill="#fff"/><path d="M202.18 23.91a2 2 0 0 1 2 2.6L200.73 43a3.39 3.39 0 0 1-3.15 2.6h-12.25a2 2 0 0 1-2.05-2.6l3.5-16.47a3.4 3.4 0 0 1 3.16-2.6h12.24m0-1.44h-12.24a4.82 4.82 0 0 0-4.56 3.75l-3.5 16.46a3.62 3.62 0 0 0 .68 3.06 3.52 3.52 0 0 0 2.77 1.24h12.25a4.84 4.84 0 0 0 4.56-3.75l3.5-16.46a3.62 3.62 0 0 0-.68-3.06 3.55 3.55 0 0 0-2.78-1.28zM221.82 28.56l-2.6 12.26h-7.07l2.61-12.26h7.06m0-1.44h-7.06a1.43 1.43 0 0 0-1.41 1.14l-2.6 12.26a1.46 1.46 0 0 0 .28 1.21 1.48 1.48 0 0 0 1.12.53h7.07a1.43 1.43 0 0 0 1.4-1.14l2.61-12.26a1.44 1.44 0 0 0-1.41-1.74z" fill="#fff"/><path d="M225.32 23.91a2 2 0 0 1 2.05 2.6L223.87 43a3.39 3.39 0 0 1-3.15 2.6h-12.25a2 2 0 0 1-2.05-2.6l3.5-16.47a3.4 3.4 0 0 1 3.16-2.6h12.24m0-1.44h-12.24a4.82 4.82 0 0 0-4.56 3.75L205 42.68a3.62 3.62 0 0 0 .68 3.06 3.52 3.52 0 0 0 2.79 1.26h12.25a4.84 4.84 0 0 0 4.56-3.75l3.5-16.46a3.62 3.62 0 0 0-.68-3.06 3.55 3.55 0 0 0-2.78-1.28zM47.31 42.21h-9.67L40.24 30h10l1.13-4.65H38.2a3.39 3.39 0 0 0-3.15 2.6l-3.5 16.47A2 2 0 0 0 33.6 47h12.55z" fill="#fff"/><path d="M286.15 0h-49.06l-2.78 15.8h49.48l-7.28 37.92c-.38 1.94-3 4-4.57 4h-28.57l.83-5.3h-16.14l-.94 5.3-2.77 15.8h47.6c9.24 0 18.28-7.56 20.07-16.8l7.68-39.93C301.48 7.56 295.39 0 286.15 0z" fill="none" stroke="#fff" stroke-miterlimit="10" stroke-width="1.44"/><path d="M171.72 66a1.61 1.61 0 0 0-.44-.06H167.98c-.19.86-.37 1.72-.56 2.6h3.63a.82.82 0 0 0 .76-.69c.11-.4.19-.81.27-1.22a.52.52 0 0 0-.36-.63z" fill="#fff"/><path d="M120.58 54.52L116.41 76h97.48l4.17-21.43zm37.14 4.91h7.9c-.13.64-.26 1.25-.4 1.85 0 .07-.17.13-.26.13h-7.66zM138.51 61l.3-1.43c0-.13.07-.2.22-.2h7.71c-.13.63-.26 1.25-.4 1.86 0 0-.17.1-.26.1h-7.68c.05-.04.08-.16.11-.33zm-3.59 9.4s-.18.1-.28.1h-4.42a6.93 6.93 0 0 1-.91 0 1.59 1.59 0 0 1-1.56-2c.09-.63.24-1.25.37-1.87.36-1.66.71-3.31 1.07-5a2.74 2.74 0 0 1 2.66-2.21h5.41c-.13.62-.25 1.23-.4 1.84 0 .06-.17.12-.26.12h-4a2.7 2.7 0 0 0-.49 0 1 1 0 0 0-.91.82c-.23 1-.45 2-.67 3l-.45 2.15a2.7 2.7 0 0 0-.05.41.55.55 0 0 0 .47.6 2.29 2.29 0 0 0 .52.05h4.34c-.17.79-.29 1.41-.44 2.03zm9.9-5.26c-.15.66-.15.66-.83.66h-4.08c-.22 0-.3.06-.34.28-.15.79-.33 1.58-.5 2.41h5.74c-.11.52-.2 1-.3 1.45s-.13.57-.72.57h-7.29c.08-.39.15-.75.22-1.12l1.44-6.78h2.16l-.24 1.16h5c-.08.52-.16.96-.26 1.41zm9 5.26s-.09.08-.15.1a.37.37 0 0 1-.15 0H146l.34-1.63c.64-3 1.29-6.09 1.93-9.14.06-.28.15-.39.45-.37h1.76c-.64 3.06-1.28 6.07-1.93 9.14h5.68c-.15.7-.23 1.32-.4 1.94zm10.09-6.29c-.1.48-.22.95-.31 1.43 0 .2-.11.27-.32.27h-4.5c-.22 0-.3 0-.34.27-.15.79-.33 1.58-.5 2.42h5.74c-.14.66-.26 1.28-.41 1.89 0 .06-.16.12-.24.12h-7.67c.56-2.65 1.12-5.27 1.67-7.9h2.16c-.08.38-.16.77-.25 1.16h5c.06.17 0 .28-.02.38zm9.73.83a1.17 1.17 0 0 1 .58 1.27c-.14.82-.29 1.65-.51 2.45a2.44 2.44 0 0 1-2.38 1.83h-6.47l.18-.86c.49-2.34 1-4.67 1.48-7h2.15c-.09.41-.17.82-.26 1.24h3.52a.9.9 0 0 0 .84-.72 6.21 6.21 0 0 0 .22-1c.07-.46-.11-.69-.57-.7h-5.64l.39-1.82c0-.14.08-.19.22-.19h6.36a1.48 1.48 0 0 1 1.56 1.78 3.26 3.26 0 0 1 0 .33c-.13.57-.25 1.14-.39 1.71a2.28 2.28 0 0 1-1.35 1.64zm11.35-.7a2.49 2.49 0 0 1-2 2l-.15.05c.27 1.42.54 2.82.82 4.26h-1.9c-.19 0-.26-.06-.29-.23-.25-1.23-.52-2.45-.76-3.68 0-.26-.14-.36-.42-.35h-1.76c-.24 0-.32.09-.37.31-.25 1.25-.53 2.49-.78 3.73 0 .18-.11.22-.28.22h-1.9c.1-.48.2-.94.29-1.39l1.38-6.51H179c-.12.55-.23 1.11-.35 1.67h3.45a.93.93 0 0 0 1-.78c.12-.46.21-.92.29-1.38a.55.55 0 0 0-.6-.72h-5.63c.11-.51.21-1 .32-1.53s0-.47.59-.47h5.42a4.26 4.26 0 0 1 1.06.12 1.37 1.37 0 0 1 1.13 1.55 11.44 11.44 0 0 1-.24 1.3c-.16.59-.28 1.25-.44 1.87zm2.65 6.25h-2.12c.09-.46.18-.91.28-1.35l1.65-7.78c.12-.59.24-1.17.37-1.76 0-.12 0-.23.22-.23H189.99q-1.16 5.63-2.34 11.16zm11.87-9.64c-.12.53-.12.53-.65.53h-2.36c-.18 0-.26.05-.3.23-.38 1.86-.78 3.71-1.17 5.56-.22 1.06-.45 2.11-.68 3.17 0 .06-.09.17-.14.17h-2c.65-3 1.29-6.07 1.93-9.12h-3c.13-.66.26-1.28.41-1.9 0-.05.16-.11.24-.11h8c-.07.55-.16 1.03-.27 1.51zm10.69-1.15q-2.4 3.25-4.77 6.51a1.75 1.75 0 0 0-.27.61c-.26 1.16-.51 2.33-.75 3.49 0 .18-.1.25-.29.24H202.27c.15-.72.3-1.41.45-2.11s.26-1.19.38-1.78a.73.73 0 0 0 0-.36Q202 63 201 59.69a2.55 2.55 0 0 1-.08-.28h1.66c.67 0 .67 0 .87.64.38 1.23.76 2.45 1.15 3.68a2.16 2.16 0 0 0 .08.23l1.32-1.89 1.8-2.47a.39.39 0 0 1 .36-.19h2.21c-.07.13-.12.21-.17.29z" fill="#fff"/></svg>