<svg xmlns="http://www.w3.org/2000/svg" width="200" height="138" viewBox="0 0 200 138"><path d="M55.36 4.06a5.81 5.81 0 0 0-2.9.9 3.85 3.85 0 0 1 .3 1.09c.72 5.16.81 10.42 1.52 15.54.41 3 0 8.41 3.91 8.28l.28.65-.15.24-5.7.68-.54.46c-.75.1-1.45-.3-2.19-.19L49.8 31c.68-.78 2.25-.66 3.11-1.61a146.85 146.85 0 0 0-1.28-14.59c-.47-3.41-1.1-6.81-1.57-10.23-3.19 1.28-9.84.84-10.84 4.88l-.85.12v-.3l.08-3.76.37-.62c6.15-.7 12.22-1.7 18.31-2.55 2-.28 4.07-.45 6.12-.66.21 1 .61 1.89.74 2.85a2.43 2.43 0 0 1-.17 1.2l-.29.12C60.92 3.14 59 3.56 55.36 4.06zM39.29 5.57l.18-.1-.33-.14zm11.2 25.56l-.21-.13c.14.14.05 0 .21.13zm2.83-2.55a.62.62 0 0 0-.06-.18v.38a1.43 1.43 0 0 0 .06-.2zm.76-2.15h.19l-.21-.65zM61.12 3l.32.14c-.21-.2-.05-.14-.32-.14zm1.19-.66c.23.27.06.14.42.25v-.12zM87.5 25.76a57.12 57.12 0 0 0-7.6.87v-.68l1.46-.89c.45-.62-.1-2.4-.27-3-.56-2.72.14-9.1-3-10.25a5.2 5.2 0 0 0-4.27 1.66c-.09 1.82.4 6.72 1 7.92.49 1-.37 3.05.31 4.09.57.56 1.61.19 2.38.54.25.15.3.26.43.62a1 1 0 0 1-.16.21c-1.64.5-7 1.58-8.09 1.24l-.28-.15-.06-.41c.55-.72 1.31-.94 1.68-1.86-.83-1.85-.92-5-1-7.36-.42-2.78-.81-5.6-1.28-8.38-.25-1.55.12-3.53-.58-5-1.22.25-2.59.17-2-1.28 2-.61 2.12-2.19 3.56-3a4.35 4.35 0 0 1-.3.53c.7-.38.74-.96 1.8-1.18a.35.35 0 0 0 .1.18c1.5 3.69.41 8.65 1.83 11.78h.08c1.42-.65 2.54-1.56 4.12-2.2a3.25 3.25 0 0 1 2.42.23c3.82 1.37 4.41 3.4 4.79 8.58-.26-.19-.06-.11-.29-.15 0 1.89.23 4.89 1.39 6.17l2 .37.06.4a3.13 3.13 0 0 0-.23.4zm-4.63-13.4l.82 1.81a2.35 2.35 0 0 0-.82-1.81zM99 23.86l-6.3.95c-3.46-.92-5.66-8.57-4-12.39A7.8 7.8 0 0 1 91 9.68c.91-.32 1.85-.6 2.76-.88 2.91 0 4 .69 5.05 3.12.34.79.23 1.37.42 1.65-.44.4-8.67 1.62-9.88 1.64a.2.2 0 0 0-.06.16c-.25 4.16 4.63 8.78 8.56 6.53 1.65-.95 1.94-3.22 2.82-3.72l.07.56-.79 3.52zM92.38 10.2c-2 1.53-1.86 1.06-2.43 3.75l.15.24c1.83-.18 5.36-.1 6.67-1-.46-2.19-2.1-3.19-4.39-2.99zM16.54 72.34C5.3 71.81-.46 61.39 0 51c.31-6.73 5.59-15.37 12.29-17.39 2.83-.88 6.12-.53 9.1-.39 2.74.13 5.14 2 7.83 2.1a4.28 4.28 0 0 0 2.51-.55l.15-1.06.66-.07c.41 0 .8.4 1.21.31l-.61 9.72-1.33.2c.23-5-6-8.2-10.22-8.4-7.72-.37-14.72 7.22-15.08 14.77C6 60.37 11.39 68.6 22 69.09c4.45.21 8.1-2.82 11.56-5.14l.44 1.34c-2.65 5.21-12.19 7.3-17.46 7.05zM3.79 41.23l-.44.64c.32-.24.42-.24.44-.64zm1.85-2.66l-.7.89c.31-.24.68-.46.7-.89zm3.79-3l.83-.36h-.4zm23.4 29.53l-.12.25.5.18c-.21-.39-.04-.23-.38-.45zM52.64 51.75c-1 .2-2.43 1-3.7 0a15 15 0 0 0-.64-2.56 1.45 1.45 0 0 0 1.35-.7v-.31h-.35a1 1 0 0 0-1 0l-.24.75c-2.37-.16-3.07.62-4.24 1.73-.16 3.35.14 4.68-.06 7.87s-.7 6.26-.19 9.38c1 .61 2.86.75 3.74 1.5l-.11.2c-3.55-.12-7.27.22-10.14-.48v-.4l.12-.25a3 3 0 0 0 2.88-.93c-.87-5.12.28-11.31-.44-16.52-.71-1.2-1.87-1.21-3.53-1.59 0-.51 0-.61.29-.85 2.64-.94 4.63-1.15 6.68-2.63l.49.33.11 3c3.75-2 6-4.95 9.61-.37.06 1.28.01 2.2-.63 2.83zm-13.2-2a.7.7 0 0 0 .21-.19l-.39-.32a1.73 1.73 0 0 0 .18.46zm1 17.21l.26-.09a3 3 0 0 1 .13-.65l-.45-.12a6.22 6.22 0 0 1 .08.81zm.83-10.11a12.63 12.63 0 0 0-.12 6.75.26.26 0 0 0 .21-.1c-.02-1.37.42-6.32-.07-6.7zm.34-2.93h.1l-.27-.67a1 1 0 0 0 .19.62zm-.13.65h.1a2.58 2.58 0 0 0 .23-.55h-.21zM41 66l.32-.34-.32-.9zm1.13 1.88a.94.94 0 0 0 .08.36h.56V68a3 3 0 0 1-.68-.15zm.45-3.12l-.3 2.06h.1l.68-.32c-.21-.74-.06-1.3-.52-1.77zm-.19 4l.19.26a2.52 2.52 0 0 1 .57-.07l-.65-.29a.12.12 0 0 1-.15.07zm7.16-21.5a1.52 1.52 0 0 0 .18.47L51 47.3l-.42-.3a1.78 1.78 0 0 1-1.07.23zM70.8 70.57l-2.14-.86a23 23 0 0 1-.72-3.08l-.31.19c-2.59 5.41-11.46 4-12.31-2.76-.64-4.81 9.42-8.24 12.74-8.7.19-1.92.74-3.92-.09-5.69-1.06-2.28-4.8-1.59-6.2.17.6 2.41.77 3.08-1.23 4.51-3.14-.05-3-3.09-1.59-5 1.57-2.06 3.4-2.07 6.14-3.06h.1a30.06 30.06 0 0 1 4.3 1.37h.66c.57.74 1.56 1.24 2 2.08 1.68 3.17.09 8.83.42 11.59.26 2.1-.52 4.65.18 6 1.14.61 1.19.56 2.19-.2.3.17.1 0 .29.22.46 1.72-2.47 3.65-4.43 3.22zm-3-10.19c0-1.32.62-2.56.17-3.7-3.12 1.58-9.8 3.25-8.28 8.65l1.43 2c2.58.27 5.77-.6 6.69-2.94-.01-1.32-.05-2.64.02-4.01zM123.22 51.6a25.58 25.58 0 0 1-2.89 1.09c-1.08 1.37-1.59 3.63-2.59 5.46-1.89 3.36-3.81 6.52-5.63 9.59-1.11 1.82-2.11 6.26-4.58 6.58-2.39-3.15-3.72-6.16-5.68-9.66-.61-1.14-.64-2.72-1.6-3.88l-.41.08C98 65.45 93.72 68 92.06 72.94l-1.51-.22c-1.86-1.41-1.92-4.46-2.93-6.79-2-4.41-3.83-11.35-6.76-16.16l-2.52-1.49a.76.76 0 0 0 .12-.3l.32-.39c2.22.46 10.34.54 11.49-.27l.64.33c-1 1.17-2.89 1.08-3.9 2-.24 4.15 3.16 8.53 4.61 12.1 1 2.33.16 3.2 1.36 5.65l.32-.14c1.58-3.53 3.93-5.86 6.16-9.1-.87-2.08-1.44-5.1-2.75-6.43a6.69 6.69 0 0 0-.2-1l-3.31-1.91v-.4a3.13 3.13 0 0 1 .42-.24c2.13 1.17 9.46.75 13.06.87a2.86 2.86 0 0 0-.28.55c-.75.82-2.56.38-3.37 1.46-1 1.43.08 3.71.73 5.11 1.42 3.17 3 6.29 4.48 9.45.59 1.4.28 2.71 1.2 3.62V69c1.53-1.25 7.91-13.74 8-16.43a7.64 7.64 0 0 0-3.62-1.79l.06-1.22c3.18 1.47 6.69.11 10.07.57a1.79 1.79 0 0 1-.73 1.47zm-12.41-.6v-.15l.42-.39h.41l-.33.55zM136.43 74.26A11.58 11.58 0 0 1 135 74c-5.6.19-6.33.67-11-.77v-.71c2.21-.71 2.4-.29 3.61-2.22 2.31-3.8 1.36-15 2.11-19.14a38.72 38.72 0 0 0 .56-7.64c-1.7-.54-4.39-.46-5.24-1.92l.34-.8c3.26-.15 5.94-2 9.74-1.83-.24 4-.23 7-1.05 10.47l.19 2.44c-.23 2.73-.27 4.66-.65 7.38-.55 4.19-1.06 12.75 1.7 12.47 1.8.44 1.33-.24 2.48 1.18l-.32.4c.22 1.01-.41.52-1.04.95zM148.9 74.64a40 40 0 0 1-8.82-.41l-.43-.58.17-.35a4.32 4.32 0 0 0 3.38-2.79c.7-1.84 1-13.2.41-15.16a2.87 2.87 0 0 1-1.28-.82 4.17 4.17 0 0 1-.68.32v-.2l-.14-1.22c1.49-1.61 4.41-2 5.94-3.33.54.38 1.72.08 2.51-.34a1.27 1.27 0 0 1 .95.3c-1.27 3.09-2.07 17-1.18 20.66.52 2 2.14 2.18 3.24 3.55-.45 1.05-2.54.24-4.07.37zm1.67-25.82a6.15 6.15 0 0 0-3.55.9c-.53-.58-1.74-.84-2.21-1.47-1.81-2.67.4-5.41 2.12-6.35a4.11 4.11 0 0 1 4.22 3.25c.34 1.38-.57 2.41-.58 3.67zm-6.81 23.8c.25.22.2.21.65.29.29-.8 1.48-2.37 1.1-2.9l-1.95 2.6zM145 53.39c.26-.2.21-.2.38-.44l-.2-.12zm.1 2.61a1 1 0 0 0-.11.35h.3V56zm-.39 6.23c.16-.25.21 0 .12-.35a1.45 1.45 0 0 0-.12.33zm.68-5.76l-.33.54a4.49 4.49 0 0 0 .06.87 1.48 1.48 0 0 1 .46-.08 2 2 0 0 0-.19-1.35zm-.85 11.64l.31-.19.4-1-.45-.22zm.63.49a3.93 3.93 0 0 0-.13.75h.2c.03-.57.12-.51-.07-.77zm.83-16.18a3.34 3.34 0 0 0 .43-.39h-.21zm-.46 9.93l.2-.09-.07-.57zm.26-3.49v.45l.2-.31a.4.4 0 0 1-.17-.14zm.27-3.49h.1a.4.4 0 0 0 .11-.2v-.45a2.49 2.49 0 0 1-.18.65zm0 2.48c.13-.65.38-1.5 0-1.93.02.67.04 1.33.01 1.93zm.39-4l-.07-.51c.04.42-.06.26.08.47zm-.8 18.24c.16-.19.21 0 .12-.3a.76.76 0 0 0-.11.26zm1.2-12.69a7.86 7.86 0 0 0-.61 2.36h.1l.68-.53a2.83 2.83 0 0 0-.16-1.87zm-1.15 13.81h.1a.41.41 0 0 1 .21-.1 2.2 2.2 0 0 0 .13-.55l-.3-.22a4.42 4.42 0 0 0-.13.83zm.36-5.57v.26l.12-.35a.74.74 0 0 0 .36-1.21c-.18.46-.55.8-.47 1.26zm.25-5.32v1.83a4.34 4.34 0 0 0 .57-.38c.07-.25.18-.45.24-.65l-.4-1.34a3.51 3.51 0 0 1-.4.5zm.55 2.31c-.23-.51-.08-.31-.55-.12l-.11.3.07.46.56.12c.28-.54 1-1 .83-1.58-.26.3-.27.6-.79.78zm.23-7.09a3 3 0 0 0-.37.44v.76a.77.77 0 0 1 .37-.19c.09-.55.2-.74.01-1.05zm.09-1.73a11.33 11.33 0 0 0-.22 1.42h.15l.22-.34c-.07-.45.09-.8-.14-1.12zm.05-1.21l.21-.09v-.81zm0 .86l.33-.39-.19-.37a4.21 4.21 0 0 0-.17.72zm-.68 16.67a.39.39 0 0 0 .21-.09v-1zm1.3-11.51l-.36.23c-.08.56-.16 1.16-.29 1.72.67-.12 1.85-1.54 1.42-2.12l-.69.73zm0-1.73l-.39.84a1.53 1.53 0 0 0 .45.13c.02-.55.13-.69-.11-1.01zm-.3 6.43l-.37.39v.26l.24.11.21-.09a3.39 3.39 0 0 1-.13-.71zm.05-6.54h.16l.22-.34V58a4.48 4.48 0 0 1-.43.74zm.49-3.78a2.23 2.23 0 0 0-.23.5h.1a.32.32 0 0 0 .21-.09l.11-.3a.41.41 0 0 0-.19-.11zm-.27 1.41h.1a.87.87 0 0 0 .12-.45 1.65 1.65 0 0 0-.22.4zm-.78 16.52l.19.26c.12-1.31 1.55-2.72 1.13-3.35a8.58 8.58 0 0 0-1.32 3.04zm1-19.25h.1a.41.41 0 0 1 .21-.1l-.07-.76zm0 .86h.2l-.09-.21a.34.34 0 0 0-.16.16zm-.55 15.92h.1l.05-.86zm.42-6.63h.1l.27-.34v-.51a4.41 4.41 0 0 0-.4.8zm0 1.52c.1 0 .15-.09.25-.09l-.13-.46a2.17 2.17 0 0 1-.12.5zm.61-7.64h.1l.21-.19a1.68 1.68 0 0 0 .19-1.87 11.07 11.07 0 0 0-.5 2.01zm.29.37c-.22.25-.21.15-.34.65a.73.73 0 0 1 .31-.09l.22-.45a.41.41 0 0 0-.19-.19zm0 .86l-.21.3c.31-.19.11-.15.16-.35zm.43-7l-.24.9h.1l.11-.25c.22-.32.27-.36-.02-.68zm-.14 2.06l-.23.44h.1l.38-.34c-.11-.01-.15-.1-.25-.1zm-.27 1.3l.21-.09v-.35zm-.51 13.18l-.14.75a.35.35 0 0 0 .21-.09v-.2c.17-.31.07-.21-.07-.47zm-.26 3.39a.3.3 0 0 1 .2-.09v-.46zm1.37.93h-.35a2.2 2.2 0 0 1-.13.55h.56a.32.32 0 0 1 .21-.09v-.1zm1.74-22.87l.21-.3h.46V50l-.37.14zM150.09 73l.29.37.11-.1a3.93 3.93 0 0 0-.4-.27zM178.28 76l-9.37-.44c.17-.45.15-.91.27-1.31a5.92 5.92 0 0 0 2-.36c.39-2.83.34-7.3.52-11h-.1l-.17.35c-.07-3.92 1.21-8.53-1.25-10.11-3.11.1-4.7 1.55-6.81 3.28l.23-.55-.31.19-.19 4a42.41 42.41 0 0 0-.34 13.65l2.51.62.28.47c-.37.39-.06.15-.23.55l-10.48-.49c-.17-.82.09-1 .62-1.29a1.83 1.83 0 0 0 1.75-.58 23.38 23.38 0 0 0 .4-8.61c-.25-2.1.62-5.66.51-7.49-.13-1.63.62-2.46-.77-3.24l-.77.32a13.09 13.09 0 0 0 0-1.42c1.18-.1 6-1.85 6.46-2.44l.45.22c-.05 1 0 2 0 3.1h.1c1.45-.64 2.77-1.8 4.36-2.13a9.06 9.06 0 0 1 5.31.5c6.13 2.53 2.35 12.66 3.17 19 .22 1.84-.08 2.69.58 3.84.6.13 1.16.1 1.5.52l.07.67a.35.35 0 0 0-.3.18zM162 51.09v.15c.31 0 .36 0 .21-.25-.12.01-.21.1-.21.1zm.28.36l.18.57h.1v-.92zm8.44-.06c.33.37.93.66 1.24.42h.26v-.1c-.66-.07-.76-.18-1.51-.32zm2.35.67l.65.24a1 1 0 0 0-.66-.24zm.85.35c.76 1.15.94 2.63 1.69 3.93-.1-1.34-.61-3.48-1.7-3.93zM195.87 55.11v.2c0 1 1.18 1.84 1.18 2.95a12.52 12.52 0 0 1-1 4.12c-.7 2-3.14 3.15-6.91 3.33-2.49 1.26-5 2.56-6.29 5.34l.76 2.17c4.9 1.65 11.4.48 12.25 7.43l-.3-.17-.17-.67-.32.29c.07.57.67.8.65 1.35a10.68 10.68 0 0 1-.28 2.58 15 15 0 0 1-8.34 2.45c-3.09 0-7.75-2.39-6.81-6.36l-.46.18-.86 2-.34-.32a12.41 12.41 0 0 1 4.66-6.18l-.19-.36a5.76 5.76 0 0 1-2.89-2.06c.18-.66-.65-1.51-.57-2a3.23 3.23 0 0 1 1.41-2c.48-.48 1.62.08 1.81-.67l-.32-.68 2.94-2.15c-1.81-1.5-3.78-2.76-4.47-4.22-.37-.88.12-1.51.14-3 0-2.08-.26-3.05.24-4.15 1.25-2.78 4.33-3.5 6.74-4 2.11.61 4.13 1.82 6.24 2.43 1.86-.83 3.5 0 5.64-.14v.81l-.48.54zm-15.11 26.56l.16 1 .29.17v-.66a1.55 1.55 0 0 0-.45-.51zm4-5.55c-1.15 1.77-2 1.48-2.17 4.06a7.51 7.51 0 0 0 6.5 4.31 5.5 5.5 0 0 0 4.52-2.32c-1.2-5.39-4.56-5.09-8.88-6.05zM187 52.31c-.85.82-1.74 1.49-2.64 2.21.17 1.73-.13 3.75.1 5.49a4 4 0 0 0 2.37 3.46.7.7 0 0 0-.16.25c0 .15 0 .25.19.26.89-.62 3.81-.18 5.34-1.27a15.47 15.47 0 0 0 .93-4.78c.05-4.01-2.84-5.21-6.13-5.62zm-.5.89c.79-.62 1.13-.3 1.89-.22l-1 .56c-.64.08-1.05.06-.93-.34zM67.93 114.42c.49 5.19-2.55 8.51-7.34 10-1.37.39-3 .12-4.22.71l-4.95-.9-1.05 1-.35-.33-.65.27c-.29-3-1.75-5.75-2.28-8.68a2.05 2.05 0 0 1 1.58-.94l.22.09c1.42 3.42 4.86 6.61 8.8 6.24s4.9-4.12 4.59-7.44a13.57 13.57 0 0 0-.6-2.46l-.7-.25.45-.25c-3.07-4.79-5-2.41-6.91-4-2.38-1.87-5.68-4.12-6-7.39-.48-5.08 3.66-7.25 8.07-7.66 1.82-.17 3.39.93 5.1.77l.25-.12.39-.83h.58a43.48 43.48 0 0 0 .67 4.39c0 .36 0 2.15-.52 2.19l-.57.06a5.48 5.48 0 0 1-1.81-2.55h-.37a3.47 3.47 0 0 0-3.71-2.27c-2 .19-5 2-4.83 4.38.14 1.45 5.33 5.52 6.83 5.85v.21c2.67-.52 6.77 4.07 8.5 7.47a7.17 7.17 0 0 1 .83 2.44zM48.44 117a1 1 0 0 0-.37-.6zm1.64 5.18c0-.15-.12-.2-.24-.29v.52l.2-.12zm1.58-1.51l.37.54h.1v-.1zm.88 1l-.48-.06.51.37zM51 100.36l-.65-1.3a2.06 2.06 0 0 0 .65 1.3zm.11-1.58h-.26l-.08.21.11.1.24-.23zm2.59 7l-.88-.49c.3.39.41.53.89.59zm2.66 18.85s-.12-.14-.13-.2h-.78l.45.43c.1-.11.43-.2.43-.25zm2.07-1.87l-.8-.13.24.29zm2.2 1.11c0-.06-.06-.1-.07-.16l-1 .3v.11l.68-.07zm.76-2h-.31c-.39.4-.9.55-1 1.14a1.59 1.59 0 0 0 1.28-1.12zm-.09-.88h-.2l-.73.64a1.44 1.44 0 0 0 .9-.63zm.13 1.92c0-.05 0-.1-.06-.1l-.54.37c.17 0 .59-.09.57-.25zm-1.74-18.81l.71-.23.25.45zm2.38 15.37h-.36l.17.14zm0-14.81l-1.07-.37c.44.01.78-.23 1.05.37zM63.68 121h-.1l-.32.5a1.27 1.27 0 0 0 .42-.5zm.25-3.42v1.15l.14-.17a5.79 5.79 0 0 0-.14-.99zm-.72-12.23l1.08 1c-.51 0-1-.12-1.06-.74zm3 12.65a1.51 1.51 0 0 0-.09-.47v1s.1-.11.15-.17zm-.32-2.85H66l-.15-.41zm.85 4a.28.28 0 0 0-.18-.24l-.12.9a1.11 1.11 0 0 0 .26-.62zm.06 1.2l.21-.6v.26c-.01.2-.15.32-.25.38zm.8-1.54a.26.26 0 0 1 .12.2c0 .15-.28.29-.43.4zm.27-.5l-.22-.08.08-.22c.06 0 .07.1.12.1s-.03.19-.02.24zm-.2.13l.14.35h-.11zm.5-3.08h.2l-.15 1.69h-.11zm-.17-1.68l-.15-.4.09-.22zm.25.45h-.11v-.31zm.14.35v.79h-.1l-.07-.78zM79.69 121h-.1c.27 4.06 0 10.93 1.91 13.16a9.64 9.64 0 0 1 2.16.64l.1 1.14a1 1 0 0 1-.4.14c-1.34.81-8.56 1.38-11 .93.2-1.8 2.37-1.48 2.8-3.09l-1.5-22.1c.13-3.1-.19-6.57-1.5-8.28a8.43 8.43 0 0 0-2.51.08l-.86-1.34a21.26 21.26 0 0 0 7.45-4.88c1 .58.45 2.58 1 4a14.44 14.44 0 0 0 1.22-1.4 19.34 19.34 0 0 1 4-2.16c3.71-1.23 9.16 2.81 10.28 5.79C96.51 114 90.17 127.88 79.69 121zM81 101.58c-1.22.9-2.39 1.27-3.11 2.54.32 5.68-.58 14.45 5.18 16.16a5.22 5.22 0 0 0 4.43-.73c1.97-5.89 3.1-18.97-6.5-17.97zm.5 33.29c.06.1 1.51.49 1.57.58l.14-.27c-.15.01-1.7-.32-1.75-.31zm9.6-31.09a7.26 7.26 0 0 0 .34.91h.16l-.24-.92zm1.35 2.12c0 .21.21 1.18.23 1.34 0 0 .28-.34.33-.35-.11-.2-.54-.84-.6-.99zM109.94 119.38a11.72 11.72 0 0 1-1.46 0c-5.67 1-6.34 1.59-11.28.8l-.07-.73c2.15-1 2.4-.64 3.35-2.77 1.8-4.2-.77-15.47-.6-19.78a40.05 40.05 0 0 0-.52-7.9c-1.81-.3-4.54.16-5.61-1.2L94 87c3.29-.62 5.75-2.84 9.64-3.26.33 4.1.77 7.1.43 10.79l.53 2.47c.16 2.81.39 4.78.4 7.6 0 4.34.75 13.12 3.52 12.44 1.9.19 1.32-.43 2.69.85l-.27.44c.3.93-.42.53-1 1.05zM126.49 117.31l-8.81.93c-4.74-1.49-7.32-12.24-4.82-17.45a10.84 10.84 0 0 1 3.37-3.66c1.27-.38 2.6-.72 3.88-1 4 .14 5.56 1.2 6.82 4.64.42 1.11.23 1.92.48 2.31-.63.53-12.14 1.71-13.82 1.66a.27.27 0 0 0-.08.22c-.61 5.76 5.88 12.48 11.47 9.6 2.34-1.21 2.89-4.35 4.13-5l.08.78-1.33 4.83zm-8.35-19.37c-2.9 2-2.65 1.35-3.61 5l.19.35c2.55-.13 7.45.19 9.33-1-.5-3.02-2.73-4.43-5.91-4.35zM146.05 115.48l-8.81.93c-4.74-1.5-7.32-12.24-4.82-17.45a10.65 10.65 0 0 1 3.37-3.66c1.27-.38 2.6-.72 3.88-1 4 .15 5.55 1.21 6.82 4.65.41 1.11.23 1.91.47 2.31-.63.53-12.13 1.71-13.81 1.66a.27.27 0 0 0-.09.22c-.61 5.76 5.88 12.48 11.47 9.6 2.35-1.22 2.89-4.35 4.14-5l.07.77-1.32 4.84zm-8.35-19.37c-2.9 2-2.65 1.35-3.61 5l.19.35c2.55-.14 7.44.19 9.32-1-.49-3.02-2.72-4.46-5.9-4.35zM176 113l-9.6.89a11 11 0 0 0 .08-1.36 6.08 6.08 0 0 0 2-.66c0-2.93-.7-7.47-1.05-11.26h-.1l-.13.38c-.63-4 0-8.84-2.72-10.11-3.14.56-4.55 2.26-6.45 4.32l.15-.59-.29.24.39 4.15a43.51 43.51 0 0 0 1.62 13.93l2.64.27.35.44c-.32.45 0 .16-.15.59l-10.74 1c-.28-.81 0-1 .45-1.4a1.85 1.85 0 0 0 1.7-.84 24.17 24.17 0 0 0-.83-8.82c-.56-2.09-.18-5.84-.56-7.69-.36-1.64.28-2.59-1.24-3.18l-.75.44a10.7 10.7 0 0 0-.24-1.45c1.18-.26 5.87-2.74 6.23-3.4l.48.16c.1 1 .25 2.07.4 3.16h.11c1.38-.87 2.56-2.23 4.13-2.8a9.26 9.26 0 0 1 5.47-.25c6.6 1.69 4.21 12.53 6 18.91.48 1.84.31 2.74 1.14 3.82.63 0 1.2-.06 1.6.32l.17.66a.46.46 0 0 0-.26.13zm-20.15-23v.16c.3-.08.36-.09.18-.28-.03.02-.12.12-.18.12zm.35.34l.26.55h.1l-.08-.93zm8.57-1.34c.39.32 1 .53 1.33.24h.26v-.1c-.69.01-.81-.08-1.59-.14zm2.49.34l.69.14a1 1 0 0 0-.69-.11zm.91.23c.94 1.06 1.34 2.54 2.29 3.76-.29-1.33-1.11-3.43-2.29-3.73z" fill="#fff"/></svg>