<svg xmlns="http://www.w3.org/2000/svg" viewBox="0 0 252 158"><path fill="none" stroke="#fff" stroke-linecap="round" stroke-miterlimit="10" stroke-width="1.53" d="M13.51 57.04l1.05 38.28"/><path d="M1 58.01l11.59-4.29a3.62 3.62 0 0 1 4.18 1.27L38.36 84.8a6.259 6.259 0 0 0 6.62 2.4c5.62-1.44 14.87-4.64 15.08-10.15 0 0-6.15-4.5-3.21-15.54C59.79 50.47 69 46.22 74.78 48.04s9.42 8.77 7.29 16.18-4.56 10.76-10.13 12.28-7.33 1.58-7.33 2.86 2.84-.92 7.11-.97 9.95-3.17 11.41-4.37 5.52-2.88 11-4.05 7.35-1.75 8.13-1.57-4.06 1.73-6.48 4.32-8.47 14.53-2.94 19.62c6.05 5.58 16.12-.24 15.13-11.41-1.13-12.77-4.77-16.92-5.83-18.63a5.2 5.2 0 0 1-.34-4.8l8.81-20.2c.28-.64-.34-1.3-.99-1.08l-16 5.54" fill="none" stroke="#fff" stroke-linecap="round" stroke-linejoin="round" stroke-width="1.53"/><path fill="none" stroke="#fff" stroke-linecap="round" stroke-miterlimit="10" stroke-width="1.53" d="M42.11 45.45l1.37 37.54"/><path d="M108.29 66.35l14.53-4.27a4.629 4.629 0 0 0 3.33-4.45V34.06c0-1.14-1.08-1.97-2.18-1.68-1.83.47-4.17 1.17-4.28 1.67-.18.82 2.46.64 2.46.64M125.14 18.25v5.38M137.28 28.83s5.98-5.2 6.07.35c.07 4.36.4 18.59.55 24.48a3.45 3.45 0 0 1-2.4 3.37c-3.15 1.01-8.32 2.67-9.33 3.03-1.47.52-2.52-.09-2.78-1.13M145.96 28.83s3.76-10.58 14.64-7.89c6.79 1.68 6.69 17.3 7.15 24.59a2.441 2.441 0 0 0 3.37 2.1l6.93-2.84M175.11 8.85s-.79-7.64 1.73-7.57 2.45 8.79 1.87 10.52-2.23 6.13-2.23 6.13M247.07 61.84s-.79-7.64 1.73-7.57 2.45 8.79 1.87 10.52-2.23 6.13-2.23 6.13M208.21 82.95s5.98-5.2 6.07.35c.07 4.36.4 18.59.55 24.48a3.45 3.45 0 0 1-2.4 3.37c-3.15 1.01-8.32 2.67-9.33 3.03-1.47.52-2.52-.09-2.78-1.13M216.88 82.95s3.76-10.58 14.64-7.89c6.79 1.68 6.69 17.3 7.15 24.59a2.441 2.441 0 0 0 3.37 2.1l6.93-2.84M63.49 114.83l20.1-6.64c1.06-.35 2.07.64 1.75 1.7l-13.99 46.82M78.44 141.18l18.88-6.49M88.86 108.83l14.74 34.04a2.395 2.395 0 0 0 2.81 1.37c2.83-.74 7.77-2.3 8.81-4.44 1.47-3.05-.79-27.82-.79-27.82l-5.6 2.56M118.56 139.58l9.97-3.17M117.71 112.82s5.2-7.37 9.17-5.48-.57 5.46 2.08 7.03 5.77-2.35 7.94-6.25 8.7-11.18 16.83-8.16 8.32 15.51 5.58 20.61-5.67 8.7-5.67 8.7 5.39-3.03 9.27-3.5 9.36-1.89 11.25-5.01" fill="none" stroke="#fff" stroke-linecap="round" stroke-linejoin="round" stroke-width="1.53"/><path d="M136.72 113.2s-3.69 7.37 0 13.8 12.76 3.4 12.76 3.4M167.54 95.04l6.62-2.46 1.62 21.13c.33 4.33 4.59 7.23 8.74 5.96l7.64-2.34a7.12 7.12 0 0 0 5.04-6.98l-.54-24.19" fill="none" stroke="#fff" stroke-linecap="round" stroke-linejoin="round" stroke-width="1.53"/></svg>