<svg xmlns="http://www.w3.org/2000/svg" width="250" height="47" viewBox="0 0 250 47"><path d="M20.51,45.56,12.19,27.48H9V45.56H0V0H14.61A21,21,0,0,1,20,.68,12.9,12.9,0,0,1,24.7,3,11.37,11.37,0,0,1,28,7.21a15.32,15.32,0,0,1,1.25,6.56,13.67,13.67,0,0,1-2.12,7.79,11.51,11.51,0,0,1-5.84,4.5l10,19.5ZM20.13,14a5.19,5.19,0,0,0-.57-2.6,4.22,4.22,0,0,0-1.47-1.55,5.84,5.84,0,0,0-2-.74,12.43,12.43,0,0,0-2.15-.19H9V19.5h4.41a12.7,12.7,0,0,0,2.34-.23,6.57,6.57,0,0,0,2.17-.8,4.44,4.44,0,0,0,1.6-1.67A5.66,5.66,0,0,0,20.13,14Z" fill="#fff"/><path d="M41.29,45.56V0H67.05V9.27H50.22v8.62H66.13v8.82H50.22v9.46H68v9.39Z" fill="#fff"/><path d="M108.6,14a16.16,16.16,0,0,1-1.24,6.72A11.57,11.57,0,0,1,104,25.16a13.64,13.64,0,0,1-4.87,2.45,21.36,21.36,0,0,1-5.73.77H88.8V45.56H79.55V0H93.61a22.6,22.6,0,0,1,5.88.74,12.78,12.78,0,0,1,4.76,2.38,11.19,11.19,0,0,1,3.19,4.31A16.46,16.46,0,0,1,108.6,14Zm-9.25.06a5.69,5.69,0,0,0-.54-2.64,4.11,4.11,0,0,0-1.46-1.6,5.61,5.61,0,0,0-2.08-.78,14.61,14.61,0,0,0-2.41-.19H88.8V19.63h3.89a11.81,11.81,0,0,0,2.49-.26,5.93,5.93,0,0,0,2.14-.9,4.5,4.5,0,0,0,1.49-1.71A5.82,5.82,0,0,0,99.35,14.09Z" fill="#fff"/><path d="M135.66,9.4V45.56h-9.25V9.4H115.58V0h30.9V9.4Z" fill="#fff"/><path d="M178.84,45.56l-3-8.94H161l-2.81,8.94H148.16L164.23,0h9l15.91,45.56Zm-10.28-33.4L163.69,27.8h9.63Z" fill="#fff"/><path d="M218.24,45.56l-8.32-18.08h-3.16V45.56h-9V0h14.61a21,21,0,0,1,5.38.68A12.9,12.9,0,0,1,222.43,3a11.37,11.37,0,0,1,3.33,4.25A15.33,15.33,0,0,1,227,13.77a13.67,13.67,0,0,1-2.11,7.79,11.51,11.51,0,0,1-5.84,4.5l10,19.5ZM217.86,14a5.19,5.19,0,0,0-.57-2.6,4.22,4.22,0,0,0-1.47-1.55,5.84,5.84,0,0,0-2-.74,12.52,12.52,0,0,0-2.15-.19h-4.95V19.5h4.4a12.62,12.62,0,0,0,2.34-.23,6.62,6.62,0,0,0,2.18-.8,4.51,4.51,0,0,0,1.6-1.67A5.66,5.66,0,0,0,217.86,14Z" fill="#fff"/><path d="M250,40.09a7.15,7.15,0,0,1-.41,2.42,5.52,5.52,0,0,1-2.84,3.21,4.58,4.58,0,0,1-2.05.49,4.79,4.79,0,0,1-2-.45A4.88,4.88,0,0,1,241,44.47a7,7,0,0,1-1.14-1.93,6.41,6.41,0,0,1-.43-2.38,6.87,6.87,0,0,1,.4-2.35,6.42,6.42,0,0,1,1.11-2,5.23,5.23,0,0,1,1.68-1.31,4.55,4.55,0,0,1,4.11,0,5.52,5.52,0,0,1,2.84,3.21A6.92,6.92,0,0,1,250,40.09Zm-9.85-9.78V0h9V30.31Z" fill="#fff"/></svg>