<svg xmlns="http://www.w3.org/2000/svg" width="160" height="104" viewBox="0 0 160 104"><path d="M26.09 31.64c0-9.12.12-19.81.28-25.6h-.08c-1.24 8.89-4.57 30.71-7.04 45.92h-6.66C10.73 38.52 7.33 15.39 6.11 5.99h-.16c.16 6.04.41 17.81.41 26.74v19.24H0V0h10.36c2.37 14.11 5.01 30.7 5.71 37.71h.08c.83-7 4.14-24.41 6.54-37.71h10.06v51.96h-6.66V31.64zM59.81 27.6v.54c0 7.09-1.8 13.09-10.64 13.09s-10.4-5.85-10.4-14.04V12.71C38.77 6.08 41.06 0 49.54 0c9.11 0 10.27 6.63 10.27 11.74v1.55h-6.88v-1.56c0-3.31-.54-5.82-3.52-5.82-2.67 0-3.65 2.04-3.65 5.98v17.26c0 3.13.58 6.16 3.6 6.16 2.81 0 3.57-2.07 3.57-6.08V27.6h6.88zM64.49 0h9.98c8.61 0 11.88 4.22 11.88 11.61v2.09c0 7.34-2.41 9.51-4.82 10.47 2.53.91 5.83 3.07 5.83 10.42v3.9c0 8.9-3.44 13.47-12.4 13.47H64.49V0zm9.36 21.51c4.55 0 5.92-1.59 5.92-7.12v-2.15c0-4.48-1.62-6.42-5.72-6.42h-2.81v15.7h2.61zm-2.61 24.7h2.95c5.03 0 6.28-2.31 6.28-7.88v-3.52c0-5.32-1.58-7.61-6.64-7.61h-2.6v19zM99.67 36.93l-2.1 15.03h-7.08L98.94 0h9.87l8.78 51.96h-7.29l-2.31-15.03h-8.31zm7.47-6.41c-1.45-9.93-2.66-18.5-3.21-23.97h-.26c-.21 4.17-1.9 15.53-3.09 23.97h6.56zM128.63 0v51.96h-6.97V0h6.97zM135.97 51.96V0h8.15c2.38 8.29 9.01 34.61 9.69 38h.1c-.34-6.64-.39-13.95-.39-22.46V0H160v51.96h-7.86c-2.11-7.7-9.25-36.24-9.97-39.25h-.08c.37 6.28.4 13.85.4 23.21v16.04h-6.53zM59.81 45.3v6.66H38.77V45.3zM160 63.03v3.62H0v-3.62z" fill="#fff"/><g fill="#fff"><path d="M0 76.49h3.5v22.98h6.57l-.33 3.14H0V76.49zM21.03 90.38h-5.79v9.01h6.63l-.45 3.22h-9.68V76.49h9.62v3.25h-6.11v7.42h5.79v3.22zM27.12 79.74h-4.21v-3.25h11.92v3.25h-4.21v22.87h-3.5V79.74zM36.83 84.41c.66-2.79 1.15-6.14 1.16-9.06h3.21c-.08 3.53-1.05 7.42-1.76 9.06h-2.61zM46.45 95.06v1.57c0 2.16.7 3.34 2.35 3.34s2.24-1.43 2.24-3.62c0-2.91-.63-3.92-3.41-6.1-2.8-2.21-4.27-3.58-4.27-7.44 0-3.39 1.02-6.73 5.47-6.72 4.43.01 5.29 3.09 5.29 6.13v1.32h-3.47v-1.22c0-1.97-.36-3.19-1.88-3.19s-1.91 1.32-1.91 3.18c0 2.09.41 3 2.74 4.74 3.79 2.83 4.97 4.44 4.97 8.8 0 3.69-1.19 7.13-5.87 7.13s-5.76-2.94-5.76-6.38v-1.53h3.5zM73.66 102.61h-2.75c-.09-.45-.17-1.52-.2-2.09-.7 1.82-2.2 2.45-3.89 2.45-3.75 0-4.96-2.73-4.96-7.05v-12.6c0-4.27 1.69-7.2 5.94-7.2 5.09 0 5.78 3.69 5.78 6.71v.77h-3.5v-.91c0-1.57-.21-3.38-2.29-3.38-1.61 0-2.36 1.07-2.36 3.53v13.4c0 2.29.63 3.62 2.28 3.62 2.02 0 2.44-1.78 2.44-4.73v-3.96h-2.54v-3.03h6.06v14.47zM86.32 90.38h-5.79v9.01h6.63l-.45 3.22h-9.68V76.49h9.62v3.25h-6.11v7.42h5.79v3.22zM92.41 79.74H88.2v-3.25h11.92v3.25h-4.21v22.87h-3.5V79.74zM109.32 95.06v1.57c0 2.16.7 3.34 2.35 3.34s2.24-1.43 2.24-3.62c0-2.91-.63-3.92-3.41-6.1-2.8-2.21-4.27-3.58-4.27-7.44 0-3.39 1.02-6.73 5.47-6.72 4.43.01 5.29 3.09 5.29 6.13v1.32h-3.47v-1.22c0-1.97-.36-3.19-1.88-3.19s-1.91 1.32-1.91 3.18c0 2.09.41 3 2.74 4.74 3.79 2.83 4.97 4.44 4.97 8.8 0 3.69-1.19 7.13-5.87 7.13s-5.76-2.94-5.76-6.38v-1.53h3.5zM123.57 76.49v26.12h-3.5V76.49h3.5zM127.26 76.49h3.5v22.98h6.57l-.33 3.14h-9.74V76.49zM139.03 76.49h3.5v22.98h6.57l-.33 3.14h-9.74V76.49zM151.5 102.61v-9.46c0-.32-.04-.5-.13-.81l-4.84-15.85h3.87c1.15 4.44 2.5 9.63 2.92 12.29h.04c.52-2.85 1.87-7.98 2.93-12.29h3.72l-4.92 16.12c-.04.18-.08.42-.08.9v9.09h-3.5z"/></g></svg>