<svg xmlns="http://www.w3.org/2000/svg" width="250" height="61" viewBox="0 0 250 61"><polygon points="221.26 49.29 216.84 47.98 214.89 12.23 219.72 10.89 219.26 1.77 196.08 1.77 196.3 10.62 202.45 12.05 204.12 47.91 198.51 50.38 198.7 59.81 221.66 59.81 221.26 49.29" fill="#fff"/><polygon points="249.42 49.49 244.01 47.59 241.35 11.86 246 10.76 245.64 1.83 223.48 1.83 223.82 10.43 229.7 11.72 232.22 47.94 226.4 50.26 227.11 59.81 250 59.52 249.42 49.49" fill="#fff"/><polygon points="168.18 1.61 169.25 59.81 159.3 59.96 159 34.22 149.34 34.22 149.34 59.66 140.66 59.72 140.21 1.46 149.87 1.46 150.48 24.77 158.86 24.77 158.44 1.61 168.18 1.61" fill="#fff"/><polygon points="182.86 1.48 184.68 60.18 174.36 60.18 172.76 1.48 182.86 1.48" fill="#fff"/><path d="M134.65,7.54C134.13,3.43,128.59.8,124.25.8H108.17L107,60.18h13.23c5.76,0,10.47-1.79,12.72-3.74s2.47-5.23,2.47-8.82S135.17,11.66,134.65,7.54Zm-9.26,36.79c0,4.73-1.19,5.41-6.7,5.41h-1.46L118,8.8h3.7c2,0,3.73,1.75,3.73,5.71Z" fill="#fff"/><polygon points="73.46 0.83 82.69 0.83 93.14 32.61 93.02 0.83 102.96 0.83 101.85 59.81 92.18 59.81 81.84 29.77 81.99 59.04 71.08 59.04 73.46 0.83" fill="#fff"/><path d="M58.16,1.14H46.88L30.52,59.21h9.77l3.49-12.68,11.39-.1L56.83,59l10.51.17Zm-12.11,37,5-18.79L54.1,38.11Z" fill="#fff"/><path d="M3.86,7.86S3.92-.31,17.28,0,29.54,8.56,29.54,8.56L29.06,19.9l-8.75.65s.17-3.85.39-7.34a4.14,4.14,0,0,0-4-4.65c-1.3.07-4.39,0-4.58,3.69S9.85,42.87,9.65,46.67s.06,4.9,3.29,5.27,5-.94,5.13-5.89.14-8.74.14-8.74H14.8l.34-7.84,12.84.3-1.28,26a13.85,13.85,0,0,1-.86,4.9L23.07,58a20.6,20.6,0,0,1-11.84,2.48C4.69,59.74-.09,55.36,0,51.65S3.86,7.86,3.86,7.86Z" fill="#fff"/></svg>