<svg xmlns="http://www.w3.org/2000/svg" width="200" height="124" viewBox="0 0 200 124"><path d="M71.11,36.09c0-1.37-.06-6.47,0-9.28a4,4,0,0,0-2-3.78s2-2.37-2.16-7.47S54.75,7.69,50.32,8.17C33.58,10,33.91,25.76,33.91,25.76c-3.86,2-3,6.15-2,9.63s1.57,3.06,2.75,3.91.39,2.35,1.11,4.77,6.74,6.86,8.31,6.93,2.87-.66,6,1.18,4.7,1.37,8.82,1,5.75-5.88,6.87-8.63,1.57-2.81,3.66-4S71.11,37.46,71.11,36.09Zm-13.73-.7a29.74,29.74,0,0,1,.07,3.71c-.13,1-1.64,2.75-2.09,2.75S54.24,41,53.46,41,51,42.17,50.19,42.17a2.41,2.41,0,0,1-2.09-2.55c0-1.63-1.77-3.3-2.62-4.23s.46-3.42.4-5.12.85-6.93,3.79-7.19c1.89-.17,2.09,0,2.74,1.31s3,4.77,5,4.77v4.38S58.36,34.88,57.38,35.39Z" fill="#fff"/><path d="M25.51,13.32c.15.29-.47,1.79-.47,1.79s1.67-.3,2,0,3,7.68,2.77,8.16a22.08,22.08,0,0,1-3.1,3.39,10.4,10.4,0,0,1-2.3,0c-.44,0-2.37-.91-2.48-1.5A2.58,2.58,0,0,0,20,22.72c-1.6-.33-6.2-1.46-7,3.17S15.82,32,18.48,31.8s3.72.76,3.82,1.56a6,6,0,0,1,2.52-.91c1,0,1.75,2.41,1.75,2.41a11.27,11.27,0,0,1,6.89,6.56c2.07,5.25-.84,5.86-.84,5.86s2.51,5.25-1.31,8.24-13.45,4.92-19,4.81-9-3.57-8.93-6.59S3.65,50,2.15,49,1,44.33,3.75,44.33a8.57,8.57,0,0,1,8,5.4,16.59,16.59,0,0,0,4,.07A16.89,16.89,0,0,1,19.83,49c1.71-.07,4.3-.11,3.42-3.13s-7.43-5.65-8.89-5.69c0,0-4.92,1.64-8.24-1.49a11.56,11.56,0,0,1-3.6-6.82S-.62,29,.11,25.89s4.34-5.5,4.34-5.5-1.1-1.42-1-2.11,1.68-6.94,10.75-7.73C22.56,9.82,25.37,13,25.51,13.32Z" fill="#fff"/><path d="M93.34,18.64A6.61,6.61,0,0,1,92.88,21c-.39.59-7.25,5.62-7.25,6.6s-.33,1.31.32,1.64a4.35,4.35,0,0,1,2.29,3.07c.2,1.63,2.16,4.51,3.14,4.51h4.9c1.7,0,2.62-2.81,3.6-2.94s2.75-.33,2.75.85-.27,4-.27,4,.53,3.53-.91,4.64a21.35,21.35,0,0,0-3.86,4.51c-.06.33-2.68-.13-4.38.72s-7.29-.52-7.66-.52S82,43.74,79.94,43.74c0,0-1.83-2.42-3.53-5.1s-3-2.92-3-4.89-.91-6.88-1.05-8.45a5.4,5.4,0,0,1,1.7-4.91,26.11,26.11,0,0,0,3.21-4.17s-.92-2.62.26-3.6,7.32-6.54,9.61-8,5.36-1.17,7.58-.85,7,.66,7.2,4,.32,10.33-.66,11.57-2.35,1.9-4.38.4A4.44,4.44,0,0,0,93.34,18.64Z" fill="#fff"/><path d="M118.21,13.92s-2.84,4.18-3.84,4.94A5.37,5.37,0,0,1,116.29,23c.17,3,0,7.78,0,7.78s2.43.58,2.76,2.09,1.84,2.59,3.26,1.08,6.69-6.6,6.69-6.6a9.13,9.13,0,0,1,1,3.09c0,1.17.92,3.35.92,4.77s-.17,3.68-2.34,3.68c0,0-2.51,4.85-5.19,5.6s-7.58,1.34-9.73-2.84a20.08,20.08,0,0,1-7.83-5.52c-3.43-4-6.61-11.07-1.93-15.78,0,0-.08-11.65,2-13.58s5.85-2,7.44-3.27,1.43-2.33,4.27-2.08,4.77.92,6.52.42,3.18-2,4.6-1,3.77,5.36,2.18,11.29-5.36,2.6-5.36,2.6S122.73,17.43,118.21,13.92Z" fill="#fff"/><path d="M134.44,6.56V21.7L136.62,24s.66,9,.41,11.79-.58,5.27-.58,5.27,2.17,3.43,3,3.43h4.43c.84,0,1.76-2,3.51-2.42s10.88-.67,12.38-1a3.42,3.42,0,0,0,2.51-2.92c.09-1.09-.67-2.85-.67-4.6s-.16-3.35-.83-3.35-5.36-.25-7.45,1.42a13.07,13.07,0,0,0-6.94.34,6.43,6.43,0,0,1-1.84-3.27c-.17-1.67,1.76-2.62,2.76-2.52s3.26.77,3.6-2.24a23,23,0,0,0,4.51-.42c1.51-.42,4.77-1.36,4.69-3.15s-.67-5.38-1.93-5.47-4.76-.92-6.69,1c0,0-1.75-2.51-6.1-1.17,0,0-1.51-2,.42-2.43a10.53,10.53,0,0,1,3.51-.17l2-3.51s3.42-.08,4.51-1.59,2.26-1.34,2.93-1.59.92-4.77.08-4.93-5.27-.59-6.6,0-1.76.22-3.35-.31-6.27,0-10.29.31S129.84.54,134.44,6.56Z" fill="#fff"/><path d="M193.41,35.58c-1.26-1.17-3-1.17-3-3.93s-2.34-4.6-2.59-5.35a2.32,2.32,0,0,1,1.84-2.84c1.84-.51,4.43-1.76,4.35-5s-.17-2.51,1.09-4.44S189.64,2.38,185,1.46,168.9.45,167.31.54s-3.18-.09-3.18,3.76-.58,9.7-.58,9.7l1.75,2.43s-.92,5.85-1.25,12.29-.17,8.37.37,8.37h1.3s.34,3.93,1.42,4,6.44,0,7.7,0,1.25-2.59,1.59-4.43,1.08-2.93,1.08-4.52-.16-3.26.42-3.26-.33,4.35,0,4.94a7.76,7.76,0,0,0,2.76,3c2,1.42,7.28,5.85,9.37,5.85a5,5,0,0,0,3.43-1.5s2.34,1.42,3.43-.25S194.66,36.75,193.41,35.58ZM181.86,14.76l-1.52.92,1.27,2.84-3.68.92-2.42-9.37c2.42-1.67,3.84-1.5,5.68-.41S181.86,14.76,181.86,14.76Z" fill="#fff"/><path d="M10.51,71.49,15.37,84s-1.94,4,1.73,4.48c0,0-1.5,5.63-.72,7.64s5.09,16,5.09,20.14-.31,9,2.93,6.63,6.17-9.49,6.1-11.65-1.7-5.09-1.55-5.71-1.85-1.7-1.85-1.7V96.18a36.84,36.84,0,0,1,3.4,3.48c.23.54,3.24,10.1,4.78,11.42l6-8.49s-2.47-5.87-2-6.64c0,0,1.78,2.63,3.71,2.63,0,0-.7,7.94,4.24,12.19l2.32-.08a3.64,3.64,0,0,0,1.85,2.55,5.6,5.6,0,0,0,3.85.46c.7-.31,3.17-1.39,2.4-3.55S55,100,55,96.8s-2.09-3.39-2.09-3.39-1.23-6.33-1.46-9.73a5.61,5.61,0,0,0-2.63-4.63l2.63-3.78S48.78,64.76,48,61.84s-3-1.46-4.47-.76S37.29,62.93,36.21,64s-2.54,5.17-2,5.71a11.59,11.59,0,0,1,1.31,2L33.35,80s-1.27-3.55-2.29-4.32-2.57.08-3.42-2.55-1-6.63-2.78-7.64-2.7.85-5.32.7S11.9,66,11.9,66Z" fill="#fff"/><path d="M53.88,72.19a6.52,6.52,0,0,0-.39,4.94c.93,2.54,2.16,6.09,2.16,7.71s.54,2.86,1.47,2.93c0,0-1.47,4.48,0,7.26s2.23,5.78,4.16,6.56,7.41,3,9.42,2.85,4.39-2.7,5.09-3.93S77,98,77.87,98.34s.47,1.86,1.31,2.24,6.41.7,8.88.77,3.78-3.24,3-4.55-3.86-5.17-3.86-9-.08-7-1.24-7.79a3.55,3.55,0,0,0,.78-4.24c-1.24-2.55-1.93-2.93-2.09-5.87s.39-8.87-1.15-10.8-4.94-.39-4.94-.39a5.37,5.37,0,0,0-3.71-.07c-1.54.77-2.57,1.67-2.55,3.23s1.47,9.65,1.32,11,1.93,2.39,1.93,2.39a3.38,3.38,0,0,0-1.08,3.63c.77,2.16,1.39,6.4-.16,7.79a41.11,41.11,0,0,1-3.7,2.86S69.08,89,68.15,84.3s-1.54-7.41-2.7-8.72,1.7-3.39,1.7-3.39.38-3.32-.62-4.55-1.47-1.32-1.31-3.32-.08-2.93-1.85-3.09-7.8-1.62-9.88,2.08S51.48,70,53.88,72.19Z" fill="#fff"/><path d="M101.41,80.37s-.6,3,0,3.94,1.72,2.07,1.41,3.88-1.17,2.93-.81,4.09a7.08,7.08,0,0,0,.87,1.87S100,101.82,99,103.63s-1.57,5.3-3.33,1.42-1.46-6.46-2.37-7.77-1.16-5.5-.61-7.57-.13-3.94-.29-5.86a14.51,14.51,0,0,1,.8-4.69,8.08,8.08,0,0,1-2.41-5.07c-.11-2.94-.63-9.65-.63-9.65a1.69,1.69,0,0,1,0-2.09,7.17,7.17,0,0,0,1.14-2s-.42.75-1.52-.61a4.46,4.46,0,0,1-1.09-2.52s.5-.94,2.61-.63,9.41-1.26,10.27-.73.33,2.09,1.07,2.83,1.88,1.18,2,3.16A8.93,8.93,0,0,0,106,65.7l4.61-11.32a14.8,14.8,0,0,0,3.08-2.2s4.68-.42,6.36-.63,2.2.21,2.2,3-.21,6,.63,7.25,1.46,2,1.46,2-1.67,12.26,1.79,14.88c0,0,0,10.8,1.15,14.47,0,0-4.51,5.35-5.56,6.82s-3,2.09-3-.74-1.78-4-.94-5c0,0-2.42-3.57-1.21-6.08s.37-2.2-.57-3.25,0-2.73-.32-4.82A19.27,19.27,0,0,0,114.47,76s-2.62.94-2.2,2.09,1.4,8.39,1.4,8.39-.35,6.4-3.6,8.39h-3.88s-1.16.63-1.16-2.31.53-1.57-.31-3.67-2-2.72-1-4.51S101.41,80.37,101.41,80.37Z" fill="#fff"/><path d="M128.52,58.1a4.52,4.52,0,0,1,.94,4.25,8,8,0,0,0,1,6.5c1.05,1.78-.52,5.87-.52,8.38a12.32,12.32,0,0,0,1.47,5.14s-1.68,6.82-1.47,8.39.53,4.51,1.47,4.51,7.44-2.73,9.53-2.73,1.79-2.62,1-4.93a9.74,9.74,0,0,1-.21-4.5c0-.84-1.78-2.52-2-3.46a27.65,27.65,0,0,1,.42-4.93s1.47,2.51,1.36,3.88.84,4.93,1.68,5.66.84,3.77,2.83,3.77,6.61-2.09,6.61-2.09l-2-6.78s1.36.28,1.25-1.3a22.27,22.27,0,0,1,.74-4.82s.94,5.77,1.36,6.82,1.15,2.3,0,3.35a3.6,3.6,0,0,0-.31,4.72c1.15,1.68.83,5,1.57,6.6a51.8,51.8,0,0,0,3.25,5.14s1.68-.52,2.93-3.25,5.14-8.81,4.72-10.06-2-.63-2-4.3-.1-4.62-.1-4.62-2.4-1.67-.62-3c0,0-.29-11-1.25-12.56s-1.45-1.07,0-3-.65-4.3-.65-6.29.21-3.25-2.2-3.25-8.08-1.68-9.44.94-3.11,4.72-2.6,5.14.48.94.65,1.88-1.93,4.53-1.93,4.53-2.2-1.69-1.26-3.16,1.68-1,0-3.57-1.36-4.19-4.82-4.09-5.35.44-7.5.48S127.85,52.27,128.52,58.1Z" fill="#fff"/><path d="M164.06,53.65s2.2,7.75,5.45,10.17c0,0-2.09,4.92,2,7a8.89,8.89,0,0,1,4.41,10S168.71,86.29,171,91c1.68,3.46,15.41-2.1,15.41-2.1v-6A9.11,9.11,0,0,0,190.27,76c.21-4.62,6-12.79,6-12.79s-2.31-1.37-.63-2.1,3.88-1.57,3.88-5.66,1.78-5.56-1.37-5.87-6.29-1.58-9.64.73-3.36,3-3.36,4.4.53,2.73-.42,3.88-2.82,2.21-3.17,5.24a14.67,14.67,0,0,1-1.2-3.14c-.45-1.78,1.08-2.83,0-3.88s-2.55-.94-2.55-3.77-.94-3.46-3.25-3S164.06,53.65,164.06,53.65Z" fill="#fff"/></svg>