<svg xmlns="http://www.w3.org/2000/svg" width="220" height="88" viewBox="0 0 220 88"><path d="M15.88 26.1h-1.03v14.6H2.97V0h15.05c2.33 0 4.36.31 6.09.92 1.74.61 3.16 1.49 4.26 2.64 1.11 1.15 1.94 2.54 2.49 4.17.55 1.63.83 3.46.83 5.49 0 1.38-.15 2.63-.46 3.74-.31 1.11-.69 2.1-1.15 2.96-.46.86-.97 1.58-1.55 2.16-.57.57-1.15 1-1.72 1.26l6.47 17.36H20.17l-4.3-14.6zm-1.03-15.69v7.13h1.03c.34 0 .72-.05 1.14-.14.42-.1.8-.28 1.14-.55.34-.27.63-.63.86-1.09.23-.46.34-1.05.34-1.78 0-.77-.11-1.38-.31-1.84a3.06 3.06 0 0 0-.8-1.09c-.32-.27-.67-.44-1.03-.52-.36-.08-.69-.11-1-.11h-1.37zM34.83 0h21.58v10.98h-9.76v4.08h8.85v10.18h-8.85v4.25h10.51V40.7H34.83V0zM60.12 40.7V0h13.02c3.31 0 6.12.51 8.42 1.52 2.3 1.02 4.17 2.42 5.6 4.23 1.43 1.8 2.46 3.96 3.11 6.47.65 2.51.97 5.26.97 8.25s-.32 5.66-.97 8.13c-.65 2.47-1.68 4.6-3.11 6.38s-3.29 3.18-5.6 4.2c-2.3 1.02-5.11 1.52-8.42 1.52H60.12zm18.61-20.24c0-3.03-.48-5.38-1.43-7.04-.95-1.67-2.27-2.5-3.94-2.5h-.74v18.86h.74c1.67 0 2.99-.83 3.94-2.5.95-1.67 1.43-3.94 1.43-6.81zM19.36 85.97H7.14V55.85H0V45.27h26.49v10.58h-7.14v30.12zM45.91 70.39h-5.48v15.58H28.1v-40.7h12.33v13.91h5.48V45.27h12.33v40.7H45.91V70.39zM76.8 87.12c-2.66 0-4.93-.43-6.79-1.29-1.87-.86-3.4-2.06-4.6-3.59-1.2-1.53-2.08-3.33-2.63-5.4-.55-2.07-.83-4.31-.83-6.73V45.28h12.5v23.74c0 1.95.16 3.44.49 4.46.32 1.02 1.02 1.52 2.08 1.52s1.77-.51 2.11-1.52c.34-1.01.51-2.5.51-4.46V45.28h12.33v24.83c0 2.41-.3 4.66-.88 6.73-.59 2.07-1.5 3.87-2.74 5.4-1.24 1.53-2.81 2.73-4.71 3.59-1.9.86-4.19 1.29-6.85 1.29zM106.43 66.77h-.17l.46 19.2H95.7v-40.7h13.19l6.34 19.83h.23l-.34-19.83h10.62v40.7h-12.85l-6.45-19.2zM130.3 85.97v-40.7h13.02c3.31 0 6.12.51 8.42 1.52 2.3 1.02 4.17 2.42 5.6 4.23 1.43 1.8 2.46 3.96 3.11 6.47.65 2.51.97 5.26.97 8.25s-.32 5.66-.97 8.13c-.65 2.47-1.68 4.6-3.11 6.38s-3.29 3.18-5.6 4.2c-2.3 1.02-5.11 1.52-8.42 1.52H130.3zm18.61-20.24c0-3.03-.48-5.38-1.43-7.04-.95-1.67-2.27-2.5-3.94-2.5h-.74v18.86h.74c1.67 0 2.99-.83 3.94-2.5.95-1.67 1.43-3.94 1.43-6.81zM164.39 45.27h21.58v10.98h-9.76v4.08h8.85v10.18h-8.85v4.25h10.51v11.21h-22.33v-40.7zM202.59 71.37h-1.03v14.6h-11.88v-40.7h15.05c2.33 0 4.36.31 6.09.92 1.74.61 3.16 1.49 4.26 2.64 1.11 1.15 1.94 2.54 2.49 4.17.55 1.63.83 3.46.83 5.49 0 1.38-.15 2.63-.46 3.74-.31 1.11-.69 2.1-1.15 2.96s-.97 1.58-1.55 2.16c-.57.57-1.15 1-1.72 1.26l6.47 17.36h-13.11l-4.3-14.6zm-1.03-15.69v7.13h1.03c.34 0 .72-.05 1.14-.14.42-.1.8-.28 1.14-.55.34-.27.63-.63.86-1.09.23-.46.34-1.05.34-1.78 0-.77-.1-1.38-.31-1.84a3.06 3.06 0 0 0-.8-1.09c-.32-.27-.67-.44-1.03-.52-.36-.08-.69-.11-1-.11h-1.37z" fill="#fff"/></svg>