<svg xmlns="http://www.w3.org/2000/svg" viewBox="0 0 220 144"><path d="M30.59 71.03c-.2-.2-1.39-3.71-1.7-4.38-1.19-2.62-3.43-6.45-6.53-6.94-5.18-.82-5.42 4.24-3.04 7.53 2.74 3.8 6.69 4.23 10.67 5.8C43.51 78.38 46 92.32 32.12 99.3c-6.98 3.51-17.45 3.15-23.55-2.04C4.63 93.91.52 87 .07 81.81c-.18-2.09-.11-3.15 1.97-3.97 2.46-.98 10.49-1.97 12.9-1.16 1.94.65 1.91 3.81 2.46 5.58.92 2.95 3.15 6.63 6.27 7.58 5.25 1.6 6.47-4.04 3.33-7.44-5.1-5.51-13.8-6.77-15.3-15.77-3.05-18.32 23.68-16.1 29.18-3.17.45 1.05.76 1.75.13 2.81s-4.36 2.93-5.65 3.52c-.93.43-3.99 2.01-4.76 1.23zM203.34 74.03c.16.09.35.03.52.04-1.01-4.18-2.48-8.32-3.47-12.53-.13-.56-.71-2.63-.41-2.95.34-.08.66-.34.99-.41 2.66-.58 8.06-.19 10.72.48 3.3.83 2.95 2.51 3.37 5.42.89 6.08 1.6 12.75 2.08 18.87.22 2.76.73 7.32.38 9.92-.11.87-.87 1.1-1.6 1.4-1.78.72-5.75 1.72-7.38.64-1.29-.86-3.7-4.73-4.66-6.2-2.07-3.17-3.82-6.52-5.79-9.75-.44-.72-.81-1-.68.11.52 4.61 2.8 10.24 3.05 14.75.05.96-.27 1.44-1.16 1.79-2.06.8-10.21.2-12.02-1.16-1.09-.83-1.15-2.36-1.23-3.64-.25-4.21-.14-8.69-.19-12.91-.07-5.64 0-11.3.1-16.94.08-.13 2.97-.69 3.38-.73 1.29-.12 3.35-.57 4.49.17 2.06 1.34 6.36 8.3 7.84 10.68.28.45 1.5 2.85 1.64 2.94zM159.22 55.92c.1.02.29.19.44.22-.18 3.55-1.08 7.06-1.64 10.57l.27.62 7.66-8.43c1.2-1 1.97-1.76 3.67-1.4 1.97.41 6.27 3.89 6.35 6.02.05 1.33-3.16 3.9-4.21 4.75-1.63 1.31-3.6 2.66-5.35 3.82-.7.47-5.13 2.93-5.21 3.22-.07.25.05.37.17.55.49.73 1.88 1.92 2.54 2.7 2.31 2.77 4.92 6 6.91 9 .82 1.24 2.83 4.13 2.42 5.56-.67 2.31-6.11 3.62-8.22 3.42-1.21-.12-1.52-1.16-2.02-2.1-1.89-3.5-3.22-7.66-4.62-11.39h-.56l-.58 9.99c-.21 1.66-1.23 2.36-2.89 2.37-1.41 0-5.62-.87-6.71-1.73-.57-.45-.93-1.09-.87-1.83 2.78-.69 6.18-2.79 5.78-6.07-.37-3.03-2.93-6.76-3.64-9.64-.36-1.45.78-7.34 1.09-9.22.46-2.85.96-6.42 1.69-9.16.16-.61.58-1.83 1.35-1.83 1.7 0 4.66-.26 6.18 0z" fill="#fff"/><path d="M218.18 63.97c3.58-4.67 1.78-12.97-4.58-13.85 0-.02.02-.04.03-.07-.11-.03-.22-.05-.33-.08-.11-.03-.21-.06-.32-.07h-.25c-.16.02-.29.03-.33.03-.7.01-1.77-.12-2.15.65l-.57-.1c.28.51-.28.61-.46.95-.75 1.41-.71 2.67.37 3.91 1.22 1.39 3.17 1.41 4.7 2.22 2.42 1.28 3.28 3.92 3.9 6.39zM133.98 11.09c-2.52-3.27-6.3-4.71-9.76-1.75-6.13 5.25 2.04 13.85 6.66 16.91 1.48.98 3.17 1.67 4.65 2.65 9.43 6.25 14.21 22.33-.47 25.5-3.07.66-6.31 1.04-9.53-.16-6.07-2.27-7.49-10.48-6.83-16.19.08-.69.31-1.09 1.04-1.2l5.7-.2c.15.74-.4 1.25-.38 1.95.09 3.87.65 9.59 5.55 10.19 6.29.77 8.91-4.39 6.66-9.84-3.24-7.83-14.59-9.64-18.79-17.89-3.29-6.47-.76-13.73 5.9-16.62 9.19-4 15.81 3 18.83 10.97l-5.98 1.71c-.94-1.99-1.9-4.27-3.25-6.02zM125.81 93.34c.43.47-3.02 4.42-2.39 5.48l8.56 15.77c.21.1.72-.28.93-.4 2.78-1.72 5.27-4.26 7.88-6.15.74-.54 3.77-2.32 3.93-4.31.1-1.21-.11-2.44.19-3.65l4.49 6.45c.11.56-1.79 0-2.54-.08-2.29-.28-2.61.99-4.11 2.24-2.15 1.79-4.3 3.63-6.46 5.52-.65.57-2.99 2.16-3.23 2.76l-1.83 18.75c-.5 2.41 1.16 3.81 1.69 5.9-1.3-.41-7.71-.73-9.3-.92-.5-.06-.97.31-1.37-.3-.17-.71 4.2-2.87 4.17-4.05 1.16-6.82 2.74-13.6 3.68-20.44l-10.38-17.12c-.72-.92-3.11-.66-2.9-2.06.75.22 7.41-3.01 8.98-3.37zM181.57 73.91c.45 1.64 1.13 3.21 1.61 4.84.95 3.19 2.69 9.4 1.19 12.42s-9.05 2.07-9.94-.68c-.69-2.13-.32-7.36-.14-9.77.06-.8.64-6.55.92-6.75l6.35-.06zM150.52 57.61l.09-.15c.59-2.2 1.65-2.66 2.43-2.66.51 0 1.16-.02 1.84-.05.81-.03 1.65-.06 2.44-.06.31 0 .6 0 .86.02.33-10.01 1.15-20.01 2.66-29.9.46-3.03 1-6.13 1.68-9.08 4.41.67 8.84 1.37 13.32 1.44l.46-.47 1.35-7.16c-8.89-1.03-17.86-2-26.58-4.02-2.07-.48-4.1-1.13-6.17-1.59l-1.3 8.04 12.35 2.44c-2.88 14.22-4.89 28.69-5.43 43.22zM67.79 94.56c-.11-1.17-1.14-3.16-2.38-3.42-.31-.07-1.82-.19-2.12-.14-.81.11-2.71 1.71-3.16 1.4-.29-.83-.51-1.82-.58-2.7-.42-5.52.48-11.9 1.33-17.37.4-2.57.94-5.14 1.47-7.69l-.17-.4c-.26-.32-2.43-.93-2.93-1-.37-.05-2.94-.24-3.16-.21-.56.09-.48.49-.72.7-.62.53-2.43-.6-3.27-.83-2.57-.69-7.07-.41-9.42 1.13.25.86.3 1.84-.4 3.01-.79 1.33-3.77 2.91-5.79 3.87-.33.68-.64 2.43-.72 3.56 3.33 2.38 5.64 5.45 6.61 8.81.28.09.61.18 1.03.28 2.45.58 4.54.48 6.97-.14-.13 2.47-.96 4.89-1.12 7.39-.4 6.14.64 17.32 9.26 16.37 4.63-.51 9.68-8.31 9.26-12.63zM52.65 72.87c-.79 1.1-5.73 1.08-5.81-1.16-.02-.73.97-1.67 1.6-1.93.33-.13 1.56-.48 1.9-.54.84-.14 1.93.3 2.77.51.22.3-.24 2.79-.47 3.11z" fill="#fff"/><path d="M96.78 66.71c-.39-2.79-1.04-6.95-2.09-9.52-.31-.76-.25-1.04-1.16-1.1-.6-.04-2.53.12-3.18.21-2.35.29-6.09 1.33-8.09 2.58-.8.5-1.47.9-1.29 1.91.28 1.59 1.62 4.19 2.18 5.88 2.22 6.8 5.02 16.98 1.4 23.68-2.04 3.77-7.14 3.35-9.74.37-3.97-4.56-1.95-13.4-.6-18.75 1.27-5.04 3.14-9.9 5-14.74-1.11-.06-2.23-.39-3.29-.54-2.61-.39-6.13-.65-8.78-.39-1.56.15-2.91.56-3.52 2.1-.22.56-.89 2.82-1.23 4.23.41.19.77.42.97.67l.13.16.08.18.17.4.19.44-.1.47-.07.33c-.5 2.39-1.01 4.86-1.39 7.29-.62 3.98-1.25 8.4-1.39 12.55.24 1.04.56 2.13 1.01 3.28.11.29.28.82.49 1.28.21-.08.41-.14.61-.16.11-.02.23-.02.4-.02.52 0 1.8.09 2.25.19 2.03.44 3.39 3.09 3.55 4.75.09.91-.02 1.93-.28 2.99.74.46 1.77.91 2.17 1.07 6.12 2.46 15.05 1.81 19.77-2.77 7.81-7.57 7.22-19.01 5.84-29zM122.45 126.92c-.64-8.13-9.16-10.98-16.1-11.41.45-.14.49-.67.88-.8 1.35-.46 3.17-.45 4.71-1.09 4.89-2.04 7.43-7.38 4.54-12.17-2.76-4.6-10.13-5.19-14.87-3.94-.84.22-5.26 2.31-5.57 2.01-.62-.61 2.66-3.71 2.24-4.68-.31-.08-.08.33-.31.38-.3.07-.69-.06-1.05.04-.41.11-.75.37-1.22.47-1.06.23-2.13.3-3.14.45-.2.21-.4.41-.6.61-.81.79-1.76 1.48-2.8 2.08.79.45 1.69.71 2.29 1.4.15 1.2.13 2.45.1 3.65-.04 1.72-.33 3.68-.39 5.41-.36 9.82-.56 19.6-1.12 29.38l-2.8 3 .5.43 11.1.6c.07-1.63-2.05-2.87-1.49-4.49l4.61 1.1c9.02 2.11 21.37-.98 20.48-12.43zm-26.59-17.2c-.19-1.52-.1-4.78 0-6.38.03-.47.18-.91.21-1.38 1.25-.11 2.46-.78 3.69-1.08 3.73-.93 10.76-1.94 12.61 2.44.76 1.79.65 3.76-.51 5.35-1.89 2.59-8.82 2.86-11.78 2.63-1.31-.1-2.24-.15-3.81-.58-.16-.34-.36-.6-.41-1zm19.57 21.98c-4.34 4.38-13.53 3.67-19.01 2.15l-.09-12.82c.18-.37 2.18-.97 2.67-1.07 1.38-.28 3.26-.35 4.68-.37 3.31-.06 9.7.6 11.93 3.31 1.93 2.35 1.99 6.6-.19 8.8zM125.54 75.01c.63-2.44 1.01-2.51-1.27-3.56-.96-.44-3.17-.87-4.52-.94-1.46-.07-2.62.18-4.03.38.18 4.14-1.9 11.12-7.34 8.56-1.68-.79-3.04-2.62-3.74-4.31-.29-.71-1.25-3.64-.72-4.16l19.09-6.83c.07-.2-.02-.36-.09-.54-3.92-9.67-19.1-15.48-25.13-4.93-.27.47-.49.89-.67 1.3.53 2.22.9 4.64 1.16 6.53.66 4.76 1.23 10.36.53 15.81-.03.24-.07.47-.1.7.67 1.03 1.62 2.18 2.05 2.57 4.31 4.01 11.45 3.47 16.45 1.1.49-.23 1.39-.93 1.7-1.08 3.13-1.52 6.1-8.44 6.65-10.58zm-22.19-11.73c-.49-5.51 4.38-7.22 5.61-1.38-1.56.28-3.33 1.37-4.85 1.61-.22.04-.7 0-.76-.23z" fill="#fff"/><path d="M151.45 85.92c-.19-1.53-1.05-3.37-1.88-5.15-.72-1.54-1.39-2.99-1.73-4.36-.11-.44-.13-1.11-.06-1.99-.34-.77-.67-1.49-.96-2.15-1.68-3.83-3.57-8.16-5.62-11.79-.8-1.43-1.77-3.56-3.55-3.77-3.48.34-7.22-.21-10.42 1.47l-3.55 11.49c.47.13.89.27 1.21.42 1.17.54 1.97.96 2.39 1.8.43.88.21 1.7-.08 2.73-.06.23-.13.48-.21.77-.51 2-3.55 9.66-7.44 11.55-.09.05-.33.21-.49.33l-.29.2c-.1 1.41.99 2.14 2.45 2.7 2.88 1.1 8.68 2.24 11.39.53 1.96-1.24 1.06-3.54 1.24-5.49L132.91 74c.1-.37 4.21-.6 4.48.19.04 3.18.39 6.34.59 9.51.13 2.04-.42 5.01 1.29 6.56 1.92 1.74 6.06.9 8.68 0 1.77-.76 3.74-2.21 3.48-4.35zm-14.81-18.15l-.25.31h-2.99c-.78-.22-.23-2.93 0-3.56.31-.85 1.3-1.84 2.16-1.04.56.52 1.31 3.56 1.08 4.28zM114.82 6.58c-2.54-.57-5.52-.55-8.09-1.17-.12 2.04.4 4.06.56 6.08.6 7.5 1.47 25.04-3.56 30.86-2.34 2.71-6.2 2.9-9.04.81-6.7-4.91-4.6-22.64-3.47-29.97.45-2.92 1.16-5.81 1.66-8.72l-8.06-.26c-.5 2.19-1.03 4.37-1.43 6.58-.37 2.03-1.04 5.21-1.17 7.38.17.87.34 1.74.48 2.59.92 5.33 1.74 12.82.73 19.51.03.34.08.68.19 1.04 2.25 7.63 9.79 12.74 17.76 11.41 1.75-.38 3.12-1.29 3.61-1.6 9.22-5.88 10.71-24.77 10.91-34.76.06-3.07-.17-6.11-.19-9.18-.03-.46-.53-.52-.89-.6z" fill="#fff"/><path d="M67 54.81c.75-.07 1.59-.11 2.51-.11.76 0 1.58.03 2.42.08 1.07-.36 2.1-.8 3.05-1.31 10.11-5.45 8.65-22.93 6.98-32.56-1.23-7.08-3.22-14.13-5.57-20.9L66.87 1.6l1.99 6.39c1.54 5.1 2.94 10.38 3.74 15.72.94 6.22 2.41 19.03-4.27 22.56-7.67 4.05-12.79-5.98-14.71-11.82-.18-.56-.26-1.16-.43-1.73l-9.18 3.49c.4 3.53 1.58 7.07 3.29 10.17.97 1.77 2.24 3.35 3.57 4.66 3.25 3.22 7.97 4.77 12.74 4.92 1.21-.95 2.7-1.1 3.39-1.16zM178.72 63.85c-.26-.01-.79.02-1.29.1-.18 1.15-1.18 2.45-3.29 4.29.94 3.1 5.05 4.26 7.46 2.01 2.59-2.42.34-6.26-2.87-6.39z" fill="#fff"/></svg>