<svg xmlns="http://www.w3.org/2000/svg" viewBox="0 0 180 137"><path d="M94.13 20.35c1.99 0 3.95.1 5.88.31l7.16-9.07-4.92-8.37-22.16.64-5.24 8.69 8.16 8.91c3.59-.72 7.3-1.1 11.11-1.1z" fill="none" stroke="#fff" stroke-miterlimit="10" stroke-width=".84"/><g fill="#fff"><path d="M112.35 99.3c-.36 0-.67-.26-.91-.77a.392.392 0 0 1-.04-.18v-.33c0-.11.04-.21.12-.28l.19-.25c.76-1.04 1.21-1.54 1.66-1.54.16 0 .31.06.41.18.38.41-.34 2.12-.35 2.13-.31.7-.66 1.04-1.08 1.04z"/><path d="M113.36 96.36s.08.01.1.05c.1.11-.45 2.47-1.12 2.47-.17 0-.35-.15-.53-.53v-.33c.16-.17 1.13-1.66 1.54-1.66m.01-.84c-.64 0-1.13.53-2 1.71-.07.1-.13.18-.17.22-.12.15-.21.36-.21.55v.33c0 .12.03.25.08.36.39.83.92 1.01 1.29 1.01.9 0 1.32-.98 1.46-1.3.26-.59.8-2.01.27-2.58a.975.975 0 0 0-.72-.31zM49.15 120.89a.95.95 0 0 1-.5-.12.392.392 0 0 1-.17-.21c-2.31-6-4.22-11.45-5.84-16.68-.15-.5-.32-1.01-.5-1.53-1.01-3.03-2.15-6.46-.69-9.48 2.31-4.77 7.83-8.23 13.12-8.23.37 0 .73.02 1.09.05 2.96.27 4.4 2.04 5.1 3.48 1.33 2.76.98 6.75-.82 9.49-.11.17-.33.39-.6.68-.18.19-.48.5-.69.75h.34c2.15 0 6.09.44 8.26 3.35 1.64 2.2 2.4 6.59 2.07 9.15-.49 3.75-4.39 5.71-7.98 5.71-.37 0-.73-.02-1.09-.06-.03 0-3.49-.55-4.1-1.86-.15-.33-.12-.69.1-1.02.23-.34.82-.43 2.88-.59.8-.06 1.71-.13 2.01-.23 1.96-.65 3.11-2.14 3.18-4.08.07-2.21-1.31-4.27-3.43-5.13-1.21-.49-2.5-.54-3.87-.59-1.2-.04-2.43-.09-3.62-.46a.408.408 0 0 1-.21-.15c-.36-.5.01-1.52 1.32-4.35.41-.89.8-1.73.9-2.11.57-2.19.41-4-.43-5.1-.56-.72-1.38-1.1-2.39-1.1-1.67 0-3.54 1.06-4.99 2.84-1.85 2.27-1.63 3.43-.92 6.06 1 3.7 2.21 7.42 3.38 11.02.85 2.61 1.73 5.3 2.52 7.97.02.06.02.11.01.17l-.09.7s-.02.09-.04.13c-.33.67-2.49 1.51-3.32 1.51z"/><path d="M54.58 85.07c.35 0 .7.02 1.05.05 6.05.54 6.75 8.09 3.96 12.32-.29.43-1.88 1.77-1.55 2.1.31-.02.63-.03.95-.03 2.91 0 6.14.79 7.92 3.18 1.54 2.07 2.32 6.34 1.99 8.85-.47 3.58-4.2 5.35-7.57 5.35-.35 0-.7-.02-1.04-.06-.75-.09-4.55-.97-3.7-2.22.26-.38 3.87-.39 4.68-.66 5-1.66 4.29-8.16-.23-10-2.39-.97-5.09-.3-7.52-1.06-.44-.6 1.99-4.97 2.28-6.11 1.16-4.47-.69-6.72-3.23-6.73-1.69 0-3.68.99-5.31 2.99-1.94 2.38-1.75 3.65-1 6.44 1.73 6.4 4.02 12.65 5.91 19l-.09.7c-.21.43-2.13 1.28-2.94 1.28a.49.49 0 0 1-.27-.06c-2.1-5.46-4.1-11.05-5.83-16.65-1.05-3.4-2.84-7.33-1.21-10.7 2.25-4.63 7.54-7.99 12.74-7.99m.01-.83c-5.53 0-11.08 3.48-13.5 8.46-1.54 3.18-.37 6.69.67 9.8.17.52.34 1.02.5 1.52 1.62 5.23 3.53 10.7 5.85 16.7.07.17.18.31.34.41.2.12.43.18.72.18.89 0 3.26-.88 3.69-1.75.04-.08.07-.17.08-.26l.09-.7c.01-.12 0-.23-.03-.34-.79-2.68-1.67-5.38-2.52-7.99-1.17-3.59-2.38-7.3-3.38-10.99-.72-2.66-.87-3.6.84-5.69 1.37-1.68 3.12-2.69 4.67-2.69.61 0 1.46.16 2.06.94.77.99.89 2.67.36 4.74-.09.34-.49 1.21-.87 2.04-1.37 2.96-1.8 4.05-1.28 4.77.11.15.26.25.43.31 1.24.39 2.51.43 3.73.48 1.33.05 2.58.09 3.72.56 2.27.92 3.22 3.04 3.17 4.73-.06 1.76-1.11 3.1-2.89 3.69-.25.08-1.21.16-1.91.21-2.1.16-2.84.24-3.2.77-.3.45-.35.96-.13 1.43.72 1.56 4.39 2.09 4.43 2.1.37.04.75.06 1.13.06 3.78 0 7.87-2.09 8.4-6.08.35-2.64-.45-7.18-2.15-9.46-2.09-2.8-5.69-3.42-7.99-3.51.02-.02.03-.04.05-.05.32-.33.53-.55.65-.74 1.91-2.9 2.26-6.97.85-9.9-1.05-2.17-2.98-3.49-5.44-3.71-.37-.03-.75-.05-1.13-.05zM138.77 113.34c-2.29 0-4.79-.51-7.87-1.59a.423.423 0 0 1-.25-.24l-4.87-12.49c-.05-.09-.1-.16-.14-.21-.06.15-.13.36-.19.52-.59 1.76-.95 3.54-1.3 5.27-.22 1.07-.45 2.18-.71 3.25l-.13.53c-.38 1.55-.63 2.57-1.77 2.57-.51 0-1.18-.23-2.31-.78a.393.393 0 0 1-.23-.35c-.03-.56.08-1.08.19-1.58.13-.6.25-1.17.11-1.76-.04-.15-.38-.64-.63-.99-.71-.99-1.32-1.85-.92-2.41.05-.07.12-.12.2-.15l2.34-.84c-.17-.56-.52-1.31-.86-2.03-.65-1.38-1.27-2.69-1.14-3.58.09-.67 1.05-1.5 2.63-2.8.63-.52 1.48-1.22 1.59-1.44-.05-.28-1.3-1.35-1.97-1.92-.81-.69-1.51-1.29-1.77-1.74-.12-.2-.05-.45.15-.57l5.54-3.31c0-.28-.4-1.12-.64-1.63-.41-.87-.77-1.62-.71-2.16 0-.1.06-.19.13-.26.14-.13.32-.14.5-.14.77 0 3.56.35 3.98.52.19.08.71.29.57.91l-1.54 8.65c.24 0 .45-.04.65-.09.96-.27 2.64-1.12 4-1.8.46-.23.88-.45 1.23-.61.19-.09.56-.3 1.02-.56 1.93-1.09 3.59-1.99 4.33-1.99.16 0 .3.04.42.12.08.06.14.14.16.23.23.86.56 1.73.88 2.56.31.8.63 1.63.87 2.48l.07.22c.16.47.35 1.06.04 1.47a.39.39 0 0 1-.17.14l-10.99 4.66c.17.32.55.74.83 1.04.23.25.44.49.58.68.72 1.03 1.49 2.08 2.26 3.15 1.64 2.25 3.33 4.57 4.73 6.83l.05.09c2 3.22 1.92 3.72 1.6 4.05a.4.4 0 0 1-.29.12h-.22z"/><path d="M123.73 80.91c.8 0 3.5.36 3.82.49.21.09.38.16.32.43l-1.64 9.14c.13 0 .26.01.38.01.3 0 .58-.03.88-.11 1.33-.37 3.91-1.77 5.3-2.44.77-.37 4.23-2.5 5.17-2.5.07 0 .13.01.17.04.46 1.71 1.27 3.34 1.75 5.04.1.37.39 1.03.17 1.32l-11.33 4.8c.02.67 1.15 1.62 1.57 2.21 2.27 3.22 4.93 6.66 6.98 9.95.32.51 2.06 3.26 1.71 3.62h-.22c-2.63 0-5.26-.7-7.73-1.57l-4.86-12.49c-.25-.42-.43-.59-.58-.59-.25 0-.39.48-.57 1.01-.91 2.74-1.29 5.67-2 8.46-.47 1.85-.6 2.79-1.49 2.79-.46 0-1.12-.24-2.13-.74-.07-1.17.57-2.21.29-3.41-.14-.61-1.99-2.55-1.62-3.06l2.7-.97c-.25-1.48-2.26-4.48-2.08-5.83.13-.99 4.14-3.59 4.2-4.2.08-.85-3.24-3.04-3.78-3.97l5.66-3.38c.43-.62-1.37-3.12-1.27-4.04.02-.02.1-.03.22-.03m.01-.82c-.18 0-.52 0-.79.25-.15.14-.24.32-.26.53-.07.66.31 1.46.75 2.39.17.36.43.91.54 1.25l-5.27 3.15c-.39.23-.52.74-.29 1.14.3.51 1.02 1.13 1.86 1.85.53.46 1.37 1.18 1.7 1.59-.3.29-.87.76-1.31 1.13-1.81 1.49-2.67 2.27-2.78 3.07-.14 1.02.5 2.38 1.18 3.82.26.56.53 1.13.71 1.6l-1.96.7c-.16.06-.3.16-.4.3-.57.8.12 1.77.92 2.89.21.29.52.73.58.88.11.47 0 .97-.12 1.55-.11.5-.23 1.07-.19 1.69.02.3.2.57.47.71 1.21.59 1.91.82 2.5.82 1.46 0 1.78-1.28 2.17-2.89l.13-.53c.27-1.08.5-2.2.72-3.27.32-1.58.65-3.2 1.13-4.73l4.56 11.71c.09.23.27.4.5.49 3.13 1.1 5.67 1.62 8.01 1.62h.23c.22 0 .43-.09.58-.25.56-.57.47-1.34-1.55-4.58l-.04-.07c-1.41-2.27-3.1-4.6-4.75-6.85-.77-1.06-1.54-2.11-2.26-3.14-.16-.23-.38-.47-.61-.73-.14-.15-.34-.37-.5-.57l10.52-4.46c.14-.06.26-.15.34-.27.44-.59.19-1.35.02-1.85-.02-.07-.05-.14-.06-.2-.24-.86-.57-1.7-.88-2.52-.33-.86-.64-1.68-.87-2.52a.795.795 0 0 0-.32-.46c-.18-.13-.41-.2-.66-.2-.77 0-2.13.69-4.54 2.04-.44.25-.82.46-.99.55-.35.17-.78.38-1.24.62-1.34.68-3 1.52-3.92 1.77h-.03l1.45-8.1c.07-.33.07-.98-.82-1.35-.51-.21-3.38-.55-4.14-.55zM154.18 116.4c-.77 0-1.95-.22-2.66-.35l-.31-.06c-.08-.01-8.25-1.56-8.75-2.03-.11-.1-.37-.34-.32-.76l3.02-16.88c1.31-5.61 4.19-8.1 9.33-8.1 1.54 0 3.28.22 5.48.68.11.02.21.09.27.19.06.1.08.21.05.32l-1.45 5.75c-.05.19-.22.32-.41.32h-.05c-.5-.06-.97-.15-1.42-.24-.68-.13-1.33-.26-2-.26-.5 0-.98.07-1.48.21-1.71.5-2.16 1.6-2.32 3.33.2.24 1.5.48 2.28.62 1.3.23 2.43.44 2.9.96.09.1.12.23.1.36l-.76 4.17c-.02.09-.07.18-.14.24-.14.12-.33.14-.45.14-.37 0-1.03-.14-1.88-.32-1-.21-2.25-.48-2.99-.48-.13 0-.23 0-.29.02-.08.41-.25.96-.43 1.59-.29.97-.88 2.98-.66 3.35.29.22 2.55.59 4.05.83 1.54.25 2.88.47 3.38.69.19.08.29.29.23.5l-1.34 4.8a.4.4 0 0 1-.1.18c-.17.18-.45.26-.91.26z"/><path d="M154.49 88.64c1.63 0 3.43.26 5.4.67l-1.45 5.75c-1.27-.16-2.31-.5-3.47-.5-.5 0-1.02.06-1.6.23-1.96.57-2.46 1.88-2.63 3.79.18.97 4.5.92 5.3 1.8l-.76 4.17s-.09.04-.18.04c-.76 0-3.49-.8-4.86-.8-.3 0-.53.04-.67.13-.13 1.09-1.55 4.66-1.07 5.46.37.62 6.54 1.21 7.62 1.69l-1.34 4.8c-.09.09-.31.13-.6.13-.87 0-2.38-.31-2.9-.4-1.06-.19-8.22-1.62-8.54-1.92-.12-.12-.21-.22-.19-.4l3.02-16.85c1.37-5.84 4.46-7.76 8.92-7.76m0-.86c-5.3 0-8.39 2.67-9.73 8.41l-3.03 16.9v.05c-.07.63.32.99.45 1.11.64.6 8.88 2.12 8.97 2.13l.3.06c.72.13 1.93.36 2.74.36.39 0 .88-.04 1.21-.39.1-.1.16-.22.2-.35l1.34-4.8c.11-.4-.09-.82-.47-.99-.53-.23-1.67-.43-3.49-.72-1.18-.19-3.08-.5-3.74-.73 0-.61.46-2.14.68-2.92.14-.49.28-.93.37-1.31.71.01 1.9.26 2.86.47.96.21 1.57.33 1.96.33.11 0 .45 0 .73-.24.15-.12.24-.3.28-.48l.76-4.17a.83.83 0 0 0-.2-.71c-.57-.63-1.76-.84-3.13-1.09-.58-.1-1.5-.27-1.91-.44.2-1.65.71-2.32 1.99-2.69.46-.13.9-.2 1.36-.2.63 0 1.26.12 1.92.25.46.09.93.18 1.45.24h.1c.38 0 .72-.26.81-.63l1.45-5.75c.06-.22.02-.46-.1-.65a.85.85 0 0 0-.54-.38c-2.23-.47-4-.69-5.57-.69zM102.21 121.92c-.75 0-1.34-.36-1.91-.72-.39-.24-.75-.47-1.15-.56a.42.42 0 0 1-.32-.43c.05-.94.81-1.43 1.43-1.83.18-.11.35-.23.51-.35a.41.41 0 0 1 .26-.09c.03 0 .07 0 .1.01a.4.4 0 0 1 .28.24l1.36 3.13c.05.12.04.26-.02.38-.07.12-.19.19-.32.2h-.21z"/><path d="M101.03 118.36l1.36 3.13h-.17c-1.12 0-1.9-1.01-2.96-1.27.05-.96 1.11-1.35 1.78-1.87m-.01-.82c-.19 0-.37.06-.52.18-.14.11-.31.22-.47.32-.66.43-1.56 1.01-1.62 2.16-.02.4.25.76.64.86.33.08.66.29 1.02.51.59.37 1.26.78 2.13.78.08 0 .17 0 .25-.01a.81.81 0 0 0 .64-.41c.14-.23.15-.51.05-.76l-1.36-3.13a.818.818 0 0 0-.56-.48.747.747 0 0 0-.2-.03zM75.47 113.53c-.72 0-1.29-.33-1.54-.91-.93-3.65-1.81-7.49-2.63-11.49-.14-.66-.33-1.52-.55-2.49-.72-3.15-1.7-7.46-1.62-9.45.17-4.33 5.16-8.47 9.13-8.82.23-.02.45-.03.68-.03 4.21 0 8.06 3.37 8.4 7.35.43 5-1.29 9.48-4.99 12.94-.07.17-.08.31-.05.41.09.24.52.43.93.61.27.12.53.24.75.38 2.68 1.71 6.42 4.24 8.08 6.58.45.64.52 1.38.18 2.03-.4.78-1.31 1.3-2.26 1.3-.45 0-.9-.12-1.28-.35-2.51-2.4-5.13-4.45-8.31-6.8-.3-.22-.75-.61-1.23-1.03-.74-.64-1.66-1.44-2.06-1.63-.11-.05-.33-.1-.55-.1-.2 0-.29.04-.31.06-.25.46.5 3.4.95 5.15.51 2.01.96 3.74.89 4.53-.18 1.01-1.55 1.77-2.62 1.77zm2.15-26.52c-.11 0-.21 0-.32.02-1.01.15-2.45 1.76-2.49 2.79 0 .17.07.91.9 3.97l.06.23c.77 2.9 1.23 3.51 1.43 3.62 1.92-.56 3.16-2.83 3.54-4.87.33-1.75.13-4.02-1.41-5.12-.62-.44-1.16-.65-1.71-.65z"/><path d="M78.93 80.75c3.85 0 7.65 3.04 7.99 6.97.43 4.97-1.29 9.29-4.92 12.66-.6 1.29.91 1.46 1.76 2 2.42 1.54 6.32 4.15 7.96 6.47.93 1.32-.34 2.67-1.73 2.67-.36 0-.73-.09-1.07-.29-2.59-2.49-5.41-4.66-8.27-6.78-.79-.59-2.65-2.37-3.36-2.7-.17-.08-.45-.14-.73-.14s-.53.06-.64.23c-.69.98 1.9 8.24 1.76 9.9-.13.72-1.26 1.39-2.2 1.39-.5 0-.95-.19-1.16-.66-.96-3.78-1.82-7.59-2.6-11.41-.58-2.84-2.26-9.31-2.17-11.84.16-3.98 4.9-8.08 8.75-8.42.21-.02.43-.03.64-.03m-1.75 17.31c3.88-1 5.68-8.4 2.38-10.76-.59-.43-1.24-.73-1.96-.73-.12 0-.25 0-.38.03-1.25.18-2.8 1.99-2.85 3.18-.02.63.69 3.29.91 4.09.24.88 1.03 4.1 1.89 4.19m1.75-18.17c-.24 0-.48.01-.72.03-4.13.37-9.33 4.7-9.51 9.22-.08 2.05.87 6.22 1.64 9.58.22.95.41 1.81.55 2.46.83 4.02 1.7 7.87 2.61 11.44.01.05.03.09.05.14.33.73 1.03 1.16 1.93 1.16 1.26 0 2.81-.85 3.02-2.08v-.07c.07-.81-.29-2.3-.9-4.67-.37-1.46-.98-3.81-.98-4.68.14 0 .26.04.3.06.34.16 1.32 1.01 1.96 1.56.48.42.93.81 1.25 1.05 3.17 2.35 5.77 4.39 8.19 6.71.05.04.1.08.15.11.45.27.97.41 1.5.41 1.1 0 2.16-.61 2.63-1.53.41-.79.33-1.69-.22-2.46-1.7-2.39-5.49-4.96-8.2-6.69-.26-.17-.54-.29-.81-.41-.23-.1-.6-.27-.7-.38v-.02c3.74-3.55 5.49-8.11 5.05-13.22-.36-4.19-4.4-7.74-8.82-7.74zm-1.61 17.25c-.21-.3-.58-1.1-1.15-3.25l-.06-.23c-.85-3.13-.88-3.75-.88-3.84.03-.84 1.31-2.26 2.13-2.39.09-.01.18-.02.26-.02.46 0 .93.18 1.47.57 1.38.99 1.54 3.08 1.24 4.7-.4 2.13-1.61 3.89-3.01 4.46zM103.51 109.4c-4.64 0-9.97-5-11.86-9.49-2.23-5.31-1.26-12.46 2.26-16.63 1.94-2.29 6.14-4.09 8.85-4.34h.04c.08 0 .15.02.22.06.77.47.27 1.34 0 1.8-.03.05-.07.11-.1.17l3.06 1.02c.09.03.17.1.23.18.3.5.18 1.1.07 1.64-.11.57-.17.95.03 1.16.06.05.34.14.49.19.34.11.58.18.72.39.17.27.2.71.24 1.4.02.4.05.94.13 1.11.06.11.29.14.44.16.15.02.31.04.43.17.29.33.14.83-.06 1.47-.09.29-.25.81-.23 1.02l1.86 1.11c.12.07.2.2.2.34.03.69-.38 1.9-.81 3.17-.38 1.13-.96 2.84-.79 3.22.03.06.11.12.2.2.26.2.7.54.53 1.38-.07.35-.34.71-.62 1.09-.53.71-.74 1.09-.52 1.29.05.05.24.1.37.13.35.09 1 .26 1.02.98 0 .05 0 .1-.02.15-1.61 4.5-4.36 5.45-6.38 5.45zm-4.09-24.32c-.26 0-.52.03-.77.08-1.51.31-2.5 3.4-2.69 4.98-.51 4.22 1.34 11.56 5.42 13.46.68.32 1.24.56 1.75.56.43 0 .87-.17 1.42-.56 3.28-2.31 2.87-8.84 1.31-12.67-.96-2.35-3.46-5.85-6.44-5.85z"/><path d="M102.8 79.36c.67.4-.5 1.49-.42 1.88l3.45 1.15c.46.77-.53 2.17.16 2.88.23.24 1.05.35 1.16.51.24.37.11 1.98.35 2.47.21.44.86.36.93.43.29.32-.67 1.99-.3 2.49l1.98 1.18c.06 1.36-2.01 5.58-1.56 6.55.21.44.89.43.71 1.31-.15.74-1.83 2.01-1.02 2.77.34.32 1.24.18 1.26.81-1.33 3.73-3.55 5.17-5.99 5.17-4.44 0-9.6-4.78-11.47-9.24-2.08-4.96-1.33-12.02 2.2-16.2 1.78-2.11 5.84-3.95 8.57-4.19m.31 25.24c.51 0 1.02-.18 1.67-.64 3.64-2.57 2.94-9.54 1.46-13.17-1.06-2.62-3.69-6.11-6.83-6.11-.28 0-.57.03-.86.09-1.8.37-2.83 3.73-3.02 5.34-.52 4.33 1.33 11.87 5.65 13.88.77.36 1.34.6 1.93.6m-.32-26.04h-.08c-2.8.25-7.13 2.12-9.14 4.49-3.62 4.28-4.62 11.61-2.33 17.06 1.98 4.71 7.37 9.75 12.24 9.75 2.16 0 5.08-.99 6.77-5.73.04-.1.05-.2.05-.3-.03-1.02-.98-1.27-1.33-1.37-.03 0-.07-.02-.1-.03.1-.21.34-.55.49-.74.31-.42.6-.82.69-1.26.22-1.09-.42-1.58-.69-1.79-.02-.02-.05-.03-.07-.05-.03-.49.48-1.99.79-2.9.47-1.37.87-2.55.83-3.32a.831.831 0 0 0-.41-.68l-1.63-.97c.04-.21.13-.49.18-.67.21-.7.42-1.37-.03-1.87-.22-.25-.5-.29-.69-.31-.04 0-.09-.01-.14-.02-.03-.2-.06-.6-.07-.86-.04-.77-.08-1.25-.31-1.61-.21-.33-.57-.44-.95-.56-.09-.03-.24-.07-.33-.11-.03-.15.05-.54.09-.76.12-.58.26-1.3-.12-1.94-.1-.17-.26-.3-.45-.36l-2.58-.86c.75-1.47-.03-1.93-.29-2.09a.821.821 0 0 0-.43-.12zm.32 25.21c-.39 0-.83-.18-1.57-.52-3.9-1.82-5.67-8.93-5.18-13.02.21-1.73 1.23-4.39 2.36-4.62.23-.05.46-.07.69-.07 2.78 0 5.14 3.34 6.05 5.58.61 1.5 1.22 4.03 1.13 6.63-.07 1.84-.52 4.29-2.29 5.53-.61.43-.95.49-1.18.49zM90.81 72.19c-.17 0-.37-.01-.6-.04a.417.417 0 0 1-.37-.39l-.43-8.48c-.04-.31.07-.63.3-.88.26-.29.67-.47 1.07-.47 1.15 0 1.32.97 1.4 1.43.78-.5 1.78-.8 2.74-.8 1.14 0 2.09.43 2.67 1.2.83 1.11 1.76 6.19.95 7.45-.3.47-1.07.87-1.67.87-.33 0-.6-.11-.8-.31-.48-.5-.51-1.5-.54-2.77-.05-2.2-.19-3.75-1.54-3.75-.57.02-.95.16-1.2.43-.58.63-.51 1.94-.46 3.11.03.59.06 1.15 0 1.64-.1.94-.29 1.78-1.54 1.78z"/><path d="M90.78 62.34c1.27 0 .78 1.55 1.26 1.65.72-.62 1.83-1.02 2.88-1.02.91 0 1.79.3 2.33 1.04.78 1.05 1.61 5.92.93 6.97-.21.33-.82.68-1.31.68-.19 0-.37-.05-.5-.19-1.01-1.05.56-6.65-2.38-6.65h-.07c-2.89.08-1.8 3.66-2 5.55-.11 1.03-.3 1.4-1.12 1.4-.16 0-.34-.01-.55-.04l-.43-8.48c-.06-.54.46-.91.95-.91m.01-.83c-.53 0-1.05.23-1.39.61-.3.34-.44.76-.4 1.2l.43 8.46c.02.41.33.74.74.79.25.03.46.05.65.05 1.74 0 1.88-1.4 1.96-2.15.05-.52.02-1.09 0-1.7-.05-1.03-.11-2.31.35-2.8.06-.07.26-.28.85-.29.93 0 1.11 1.08 1.17 3.34.03 1.36.06 2.43.65 3.05.28.29.66.44 1.1.44.75 0 1.64-.47 2.02-1.06.54-.85.41-2.68.2-4.06-.21-1.38-.62-3.12-1.17-3.86-.66-.89-1.72-1.37-3-1.37-.84 0-1.71.22-2.46.59-.19-.55-.61-1.22-1.67-1.22zM108.48 72.34c-.19 0-.37-.14-.41-.33-.25-1.13-.45-1.29-.47-1.3-.06.02-.31.25-.47.4-.34.31-.74.67-1.24.79-.37.08-.73.13-1.08.13-1.43 0-2.63-.7-3.37-1.98-.85-1.46-.89-3.36-.1-4.72.65-1.13 1.8-1.75 3.22-1.75.22 0 .45.01.68.04.19.02.45.12.9.29.48.18 1.12.42 1.47.45 0-.47-.02-1.01-.04-1.57-.05-1.36-.11-2.9.05-3.96.16-1.08.85-1.56 1.46-1.56s1.12.46 1.25 1.14c.51 2.85.31 8.16.23 9.72-.02.35-.18 3.48-.65 3.94-.06.06-.14.1-.23.11l-1.13.18h-.07zm-3.76-6.49c-.2 0-.41.02-.63.07-1 .2-1.36 1.16-1.28 2.02.09.93.7 1.86 1.86 1.86.12 0 .25-.01.39-.03 1.07-.18 1.56-1.27 1.48-2.21-.07-.82-.58-1.7-1.81-1.7z"/><path d="M109.08 57.67c.38 0 .74.28.83.79.45 2.48.35 7.02.22 9.62-.03.65-.25 3.38-.53 3.66l-1.13.18c-.27-1.23-.54-1.62-.85-1.62-.49 0-1.07 1.01-1.83 1.18-.35.08-.68.12-.99.12-4.45 0-5.07-7.62-.24-7.62.2 0 .41.01.63.04.38.05 1.83.75 2.5.75.21 0 .34-.07.34-.25 0-1.63-.22-4.15 0-5.65.12-.83.6-1.2 1.04-1.2m-4.41 12.55c.15 0 .3-.01.46-.04 2.48-.41 2.56-4.75-.4-4.75-.22 0-.46.02-.71.08-2.48.5-2.02 4.71.66 4.71m4.41-13.39c-.79 0-1.67.59-1.87 1.92-.16 1.1-.11 2.59-.05 4.03.01.36.03.7.03 1.03-.31-.09-.66-.23-.9-.32-.49-.19-.76-.28-.99-.31-.25-.03-.5-.05-.74-.05-1.32 0-2.42.48-3.19 1.39-.65.78-1.01 1.84-1.01 2.99 0 2.38 1.56 4.91 4.44 4.91.38 0 .78-.05 1.18-.14.61-.14 1.06-.55 1.43-.89.02-.02.04-.03.06-.05.05.16.12.4.19.73.08.39.43.66.82.66.04 0 .09 0 .13-.01l1.13-.18c.17-.03.33-.11.45-.23.4-.39.66-1.8.78-4.22.08-1.57.29-6.91-.23-9.81-.16-.87-.84-1.48-1.66-1.48zm-4.42 12.55c-1.02 0-1.38-.93-1.44-1.49-.06-.62.15-1.4.94-1.57.19-.04.38-.06.55-.06 1.16 0 1.36.92 1.4 1.32.06.75-.31 1.63-1.13 1.76-.11.02-.22.03-.32.03zM86.29 72.48c-.64 0-.96-.79-1.3-1.84-1.15 1.18-2.26 1.76-3.38 1.76-.63 0-1.26-.18-1.88-.55-1.44-.85-2.06-2.43-1.69-4.32.42-2.13 2.16-4.58 4.58-4.94.34-.05.67-.08.98-.08 1.27 0 2.37.43 3.35 1.31.1.09.15.22.14.36-.07.63.04 1.73.16 2.88.18 1.83.38 3.73-.06 4.64-.09.19-.37.78-.9.78zm-2.83-7.3c-.27 0-.57.04-.92.11-1.01.21-1.99 1.5-1.87 2.47.13 1.1 1.18 1.49 2.04 1.49.82 0 1.59-.32 2.02-.83.17-.96.32-2.24-.18-2.83-.22-.27-.58-.4-1.1-.4z"/><path d="M83.6 62.93c1.14 0 2.13.36 3.07 1.2-.19 1.68.78 6.05.14 7.39-.19.39-.36.54-.52.54-.61 0-1.02-2.21-1.15-2.21-.97 1.13-2.16 2.13-3.53 2.13-.53 0-1.08-.15-1.67-.49-3.39-2-.8-7.97 2.74-8.49.32-.05.63-.07.92-.07m-.89 6.73c.93 0 1.88-.37 2.42-1.07.38-2.07.33-3.83-1.67-3.83-.29 0-.62.04-1 .12-1.18.24-2.35 1.71-2.21 2.93.15 1.26 1.28 1.86 2.46 1.86m.89-7.57c-.33 0-.68.03-1.04.08-2.61.38-4.49 3-4.93 5.27-.4 2.05.3 3.83 1.88 4.76.68.4 1.39.61 2.09.61 1.08 0 2.13-.47 3.2-1.42.29.78.71 1.5 1.49 1.5.52 0 .95-.34 1.27-1.02.45-.94.33-2.54.1-4.86-.11-1.08-.22-2.21-.16-2.8a.844.844 0 0 0-.27-.72c-1.06-.95-2.25-1.41-3.63-1.41zm-.89 6.73c-.25 0-1.5-.05-1.63-1.12-.09-.75.75-1.84 1.54-2.01.31-.07.59-.1.83-.1.57 0 .72.19.77.25.28.33.31 1.13.11 2.37-.37.37-.98.6-1.63.6zM112.35 99.3c-.36 0-.67-.26-.91-.77a.392.392 0 0 1-.04-.18v-.33c0-.11.04-.21.12-.28l.19-.25c.76-1.04 1.21-1.54 1.66-1.54.16 0 .31.06.41.18.38.41-.34 2.12-.35 2.13-.31.7-.66 1.04-1.08 1.04z"/><path d="M113.36 96.36s.08.01.1.05c.1.11-.45 2.47-1.12 2.47-.17 0-.35-.15-.53-.53v-.33c.16-.17 1.13-1.66 1.54-1.66m.01-.84c-.64 0-1.13.53-2 1.71-.07.1-.13.18-.17.22-.12.15-.21.36-.21.55v.33c0 .12.03.25.08.36.39.83.92 1.01 1.29 1.01.9 0 1.32-.98 1.46-1.3.26-.59.8-2.01.27-2.58a.975.975 0 0 0-.72-.31zM111.89 127.12c-.24 0-.71-.08-1.3-.19l-.37-.07c-.68-.11-1.36-.3-2.13-.59a.45.45 0 0 1-.19-.14c-.28-.38.02-.88.48-1.54l.09-.13c.11-.17 2.45-3.52 2.75-3.74.25-.18.56-.28.92-.28.6 0 1.18.27 1.48.68.56.79.19 3.53-.48 4.92-.33.69-.74 1.04-1.2 1.07h-.05z"/><path d="M112.14 120.87c.44 0 .91.19 1.14.51.57.81-.17 5.27-1.36 5.33h-.03c-.3 0-1.23-.19-1.6-.25-.72-.12-1.37-.32-2.05-.57-.15-.2.44-.98.58-1.19.29-.44 2.46-3.49 2.65-3.63.18-.13.42-.2.67-.2m0-.84c-.44 0-.85.12-1.17.36-.4.29-2.84 3.82-2.86 3.85l-.08.11c-.42.61-.95 1.38-.47 2.03.1.13.23.23.38.29.8.3 1.5.49 2.2.61.09.02.22.04.36.07.63.12 1.1.2 1.38.2h.07c.62-.03 1.15-.47 1.55-1.3.68-1.4 1.15-4.35.45-5.35-.37-.52-1.08-.86-1.82-.86z"/><path d="M111.89 127.12c-.24 0-.71-.08-1.3-.19l-.37-.07c-.68-.11-1.36-.3-2.13-.59a.45.45 0 0 1-.19-.14c-.28-.38.02-.88.48-1.54l.09-.13c.11-.17 2.45-3.52 2.75-3.74.25-.18.56-.28.92-.28.6 0 1.18.27 1.48.68.56.79.19 3.53-.48 4.92-.33.69-.74 1.04-1.2 1.07h-.05z"/><path d="M112.14 120.87c.44 0 .91.19 1.14.51.57.81-.17 5.27-1.36 5.33h-.03c-.3 0-1.23-.19-1.6-.25-.72-.12-1.37-.32-2.05-.57-.15-.2.44-.98.58-1.19.29-.44 2.46-3.49 2.65-3.63.18-.13.42-.2.67-.2m0-.84c-.44 0-.85.12-1.17.36-.4.29-2.84 3.82-2.86 3.85l-.08.11c-.42.61-.95 1.38-.47 2.03.1.13.23.23.38.29.8.3 1.5.49 2.2.61.09.02.22.04.36.07.63.12 1.1.2 1.38.2h.07c.62-.03 1.15-.47 1.55-1.3.68-1.4 1.15-4.35.45-5.35-.37-.52-1.08-.86-1.82-.86z"/></g><path d="M153.75 45.05c.18.11.23.76.16 1.02-.3 1.08-3 1.95-4.02 2.06-4.5.53-5.34-2.02-6.04-5.83-.56.89-.52 1.93-1.15 2.82-1.2 1.73-3.57 2.43-5.56 1.79-1.11-.36-.99-1.06-1.87-1.48-.34 0-2.56 2.37-3.3 2.77-2.52 1.34-5.88 1.26-7.48-1.4-.18-.29-.55-1.95-1.04-1.57-2.67 6.9-6.68 2.34-6.38-2.93-.95 1.62-1.31 3.31-2.51 4.81-1.48 1.85-3.47 3.45-5.64 1.66-2.72-2.23-2.73-9.11-1.81-12.26.21-.74.75-1.44.86-2.07.05-.31.13-.6-.3-.51l-4.61 1.04c-1.11 3.58-1.56 7.76-3.34 11.09-1.28 2.4-3.83 4.82-6.31 2.22s-1.75-10.69-1.48-13.99c.01-.14.38-.55-.16-.36-1.03.35-1.55.99-2.93 1.04-.46.02-1.34-.51-1.69-.01-.51 3.88-.55 7.99-1.62 11.76-.41 1.45-1.05 3.47-2.38 4.31-2.2 1.4-4.86.94-5.88-1.58-.26-.64-.07-1.75-.88-1.73-.25 2.15-2.83 6.22-5.12 6.29-4.14.13-3.02-6.45-2.72-9.01-1.83 2.64-3.34 5.05-5.86 7.1-1.44 1.17-2.8 2.5-4.79 1.87-1.79-.56-1.46-4.79-1.38-6.37.21-4.57 1.99-11.23 1.48-15.47-.28-2.29-2.44-3.17-3.74-1.22s-2.25 7.57-2.7 10.06c-.41 2.29-1.27 11.95-2.93 13.03-.86.56-1.41-.94-1.5-1.6-.57-4.2.04-9.47-.22-13.79-.07-1.21-.25-5.02-2.22-3.87-2.29 1.34-3.29 9.68-3.62 12.27-.25 1.97-.49 9.34-1.69 10.44-.49.45-1.43.48-1.9 0-1.47-1.5-.53-4.07-.41-5.87.34-5.08 1.06-10.87.42-15.89-.34-2.65-1.82-7.37-5.33-4.92-1.62 1.13-3.72 5.79-5.12 7.63-1.69 2.22-4.85 5.06-7.85 4.71-1.39-.16-1.88-1.37-.92-2.39.82-.87 3.6-2.04 4.78-2.96 3.92-3.07 5.52-11.23 10.4-11.57 4.55-.32 6.58 7 6.98 10.44.37.08.41-.11.59-.35 1.52-2 2.26-7.64 6-5.72 2.25 1.15 2.5 4.46 2.4 6.7.48.1.34-.05.47-.27.54-.85.79-2.35 1.23-3.36.92-2.1 3.72-7.24 6.57-6 3.39 1.47 1.54 9.93 1.34 12.88-.13 1.96-.37 4.79-.21 6.69.13 1.59.52 4.09 2.58 2.79 4.74-3 6.98-14.77 12.05-15.97.93-.22 1.99.22 2.38.1.45-.14.52-1.24 1.5-1.25.51-.04.51.79.53 1.16.27 3.92-1.38 10.77 1.04 14.02 1.21 1.62 2.62 1.19 3.56-.41 1.24-2.12 2.29-8.79 2.3-11.31 0-1.23-1.06-3.37-.44-4.4.78-1.29 2.35.17 3.27.31 3.53.56 4.87-1.65 7.38-3.26 1.62-1.04 2.92-1.67 2.13 1.08-.85 2.96-3.65 3.68-4.17 6.91-.39 2.38-.27 8.05 1.87 9.58.76.54 1.41.67 2.27.21 2.01-1.08 3.51-7.81 3.78-10.02.13-1.1-.02-4.38.62-5.02 1.19-1.21 3.43 1.07 5.46.44 1.13-.35 4.19-5.25 5.53-3.67 1.18 2.65-2.36 4.55-3.28 6.55-1.06 2.3-1.32 9.11.65 10.92s3.64-.59 4.41-2.3c.84-1.88 2.62-9.31 3.65-10.15 1.26-1.03 1.94-.21 2 1.15.14 3.03-1.98 6.81-.91 9.69.91 2.46 3.78 1.36 4.2-.74.18-.87-.03-1.88.1-2.82.47-3.37 2.26-9.17 6.54-8.96 2.74.14 1.63 3.18 1.04 4.82-1.05 2.89-3.19 5.1-5.11 7.42 1.2 3.33 4.53 3.38 7.32 1.89.62-.33 1.95-1.2 2.08-1.89.12-.62-.07-1.42 0-2.08.28-2.53 1.5-4.98 3.69-6.35.85-.53 1.8-.48 2.49-1.08-.06-2.6-.3-5.45-.12-8.05.14-1.92.8-5.68 2.29-6.91 2.65-2.16 4.7.82 5.02 3.35.58 4.64-.13 10.24-1.66 14.64-.59 1.68-2.17 3.87-1.84 5.59.47 2.44 2.39 3.66 4.82 3.24 1.06-.18 3.07-1.9 3.89-1.38zm-9.34-23.19c-.07.04-.69 1.21-.77 1.42-1.09 2.91-.97 11.2.04 14.17.17.5.39 1.21 1 1.3.6-.14 2-5.18 2.14-6.02.37-2.09.6-8.89-.68-10.5-.35-.43-1.27-.64-1.73-.38zm-15.15 12.97c-1.41-1.41-3.08 2.29-3.45 3.24-.24.61-1.45 4.05-.57 4.24.32.06.43-.26.6-.44.9-.93 3.57-4.77 3.67-5.96.03-.38-.03-.76-.25-1.07zM74.04 36.9c-1.32.36-2.56 6.08-2.66 7.4-.09 1.18-.2 5.04.41 5.85 1.75 2.34 3.25-3.8 3.5-4.87.47-2.06.96-4.88.34-6.91-.21-.67-.72-1.71-1.59-1.47zm67.31 6.36c1.97-2.47.34-2.29-.23-4.09-.41-1.31.08-3.36-1.99-1.58-.98.84-2.13 3.3-2.07 4.58.13 2.75 2.78 2.99 4.29 1.09zM29.02 14.71c-.3.35-.89-1.03-.95-1.15-1.23-2.63-3.2-7.01-3.99-9.71-.22-.76-.68-2.82.79-2.45.93.24 1.91 4.99 2.23 6s2.43 6.7 1.92 7.31zM174.04 109.03c1.35-.05 4.14-.27 5.33-.01 1 .22.68 1.2-.13 1.44-3.17-.11-6.37-.11-9.52-.32-.28-.02-3.73.05-1.97-.66.93-.37 2.57-.09 3.62-.16.84-.06 1.81-.26 2.67-.29zM172.6 127.52c-1.21.07-1.89-1.13-2.71-1.8-1.8-1.46-5.42-4.03-6.73-5.75-.19-.24-.44-.48-.41-.82 1.29-.06 2.02 1.11 2.88 1.8 1.11.88 6.52 4.93 6.89 5.75.12.27.1.54.08.82zM2.44 34.81c-.58-.06-2.32-.37-2.44-1.03.06-.54.24-.74.78-.81 1.8-.21 7.78.52 9.64.98.55.13 1.26.31.6.86-2.77-.19-5.87.26-8.59 0zM19.15 20.56c-.59.04-1.1-.4-1.55-.73-2.15-1.58-5.04-4.1-7.04-5.93-.26-.23-1.51-1.4-1.46-1.64.21-.31.46-.31.8-.27 1.27.13 5.83 4.99 7.05 6.12.76.71 2.28 1.23 2.19 2.46zM159.14 135.56c-.43.44-1.05-1.1-1.18-1.37-1.08-2.25-2.77-5.7-3.5-7.99-.15-.48-.29-.96-.25-1.47.33-.07.38.16.53.38.98 1.52 2.52 5.11 3.28 6.9.23.54 1.43 3.23 1.12 3.56z" fill="#fff"/><path d="M118.27 29.5c-.29-1.45 0-5.85 2.41-4.81.92.4.75 1.58.66 2.43-.21 1.93-.87 3.83-3.07 2.38z" fill="#fff"/><path d="M74.85 12.55s18.58-3.83 32.32-.96M94.78 3.44l3.9 7.45-4.55 9.46" fill="none" stroke="#fff" stroke-miterlimit="10" stroke-width=".84"/><path fill="none" stroke="#fff" stroke-miterlimit="10" stroke-width=".84" d="M87.5 3.65l-2.82 7.46 4.74 9.43"/><path d="M143.99 50.67a55.91 55.91 0 0 1 6.28 25.82c0 2.77-.2 5.5-.59 8.17M62.62 30.01c8.98-6.1 19.83-9.66 31.5-9.66 7.54 0 14.73 1.49 21.3 4.18M39.31 88.64a56.542 56.542 0 0 1 .68-27.05M133.32 116.68c-10.12 9.87-23.95 15.95-39.2 15.95a55.92 55.92 0 0 1-31.08-9.38M118.03 113.88c-3.9 2.5-8.21 4.4-12.81 5.58M131.55 52.62c4.4 6.89 6.95 15.08 6.95 23.86 0 1.53-.08 3.05-.23 4.54M49.97 81.02c-.15-1.49-.23-3.01-.23-4.54 0-7.3 1.76-14.18 4.88-20.26M96.15 120.82a44.275 44.275 0 0 1-21.99-4.68" fill="none" stroke="#fff" stroke-linecap="round" stroke-miterlimit="10" stroke-width=".84"/></svg>