<?xml version="1.0" encoding="UTF-8"?><svg id="logos" xmlns="http://www.w3.org/2000/svg" width="250" height="98" viewBox="0 0 250 98"><path d="M68.7,14.26V3.58h-2.96c-.25,0-.44-.18-.44-.44V.44c0-.25,.18-.44,.44-.44h10c.25,0,.44,.18,.44,.44V3.14c0,.25-.18,.44-.44,.44h-2.96V14.26c0,.25-.18,.44-.44,.44h-3.21c-.25,0-.44-.18-.44-.44Z" fill="#fff"/><path d="M77.67,14.26V.44c0-.25,.18-.44,.44-.44h3.21c.25,0,.44,.18,.44,.44V5.18h3.81V.44c0-.25,.18-.44,.44-.44h3.21c.25,0,.44,.18,.44,.44V14.26c0,.25-.18,.44-.44,.44h-3.21c-.25,0-.44-.18-.44-.44v-5.5h-3.81v5.5c0,.25-.18,.44-.44,.44h-3.21c-.25,0-.44-.18-.44-.44Z" fill="#fff"/><path d="M91.93,14.26V.44c0-.25,.18-.44,.44-.44h7.91c.25,0,.44,.18,.44,.44V3.14c0,.25-.18,.44-.44,.44h-4.26v1.6h3.3c.25,0,.44,.18,.44,.44v2.71c0,.25-.18,.44-.44,.44h-3.3v2.36h4.33c.25,0,.44,.18,.44,.44v2.71c0,.25-.18,.44-.44,.44h-7.98c-.25,0-.44-.18-.44-.44Z" fill="#fff"/><path d="M0,32.93c0-10.27,5.3-12.36,11.06-12.36,2.99,0,4.93,.75,5.68,1.27,.52,.37,.93,.75,.93,1.27v4.18c0,.49-.26,.75-.71,.75-.22,0-.56-.19-1.01-.45-.86-.49-2.2-1.23-4.22-1.23-3.29,0-4.93,1.79-4.93,6.57s1.68,6.54,4.93,6.54c2.02,0,3.36-.75,4.22-1.23,.45-.26,.78-.45,1.01-.45,.45,0,.71,.26,.71,.75v4.18c0,.52-.41,.9-.93,1.27-.75,.52-2.69,1.27-5.68,1.27-5.75,0-11.06-2.05-11.06-12.33Z" fill="#fff"/><path d="M19.24,32.89c0-9.45,5.34-12.33,10.83-12.33s10.83,2.88,10.83,12.33-5.34,12.36-10.83,12.36-10.83-2.91-10.83-12.36Zm14.87,0c0-5.23-1.94-6.2-4.03-6.2s-4.03,.97-4.03,6.2,1.94,6.24,4.03,6.24,4.03-1.01,4.03-6.24Z" fill="#fff"/><path d="M60.03,38.27l2.35,4.45c.26,.52,.52,.67,.97,.86,.3,.11,.49,.26,.49,.64,0,.41-.26,.67-.67,.67h-5.57c-1.57,0-2.02-.86-2.84-2.47l-2.76-5.49c-.26-.52-.56-.75-1.05-.75h-.71v7.99c0,.41-.3,.71-.71,.71h-5.23c-.41,0-.71-.3-.71-.71V21.64c0-.41,.3-.71,.71-.71h10.68c4.18,0,6.99,3.21,6.99,7.62,0,3.59-1.87,6.05-4.59,6.76,1.27,.52,1.79,1.34,2.65,2.95Zm-9.79-6.95h2.17c1.94,0,2.91-.71,2.91-2.58s-.97-2.58-2.88-2.58h-2.2v5.15Z" fill="#fff"/><path d="M65.55,44.17V21.64c0-.41,.3-.71,.71-.71h9.34c4.18,0,8.03,1.83,8.03,8.03,0,5.64-3.85,8.03-7.81,8.03h-3.62v7.17c0,.41-.3,.71-.71,.71h-5.23c-.41,0-.71-.3-.71-.71Zm6.65-12.4h1.87c1.94,0,2.91-.75,2.91-2.8s-.97-2.8-2.88-2.8h-1.9v5.6Z" fill="#fff"/><path d="M85.05,41.29v-3.03c0-.82,.34-1.2,.86-1.2,.49,0,.9,.3,1.42,.67,1.49,1.05,3.36,1.79,4.78,1.79s2.47-.52,2.47-1.94c0-1.34-1.38-1.79-2.69-2.17-3.66-1.05-6.69-2.84-6.69-7.47,0-5.42,4.18-7.4,8.29-7.4,3.03,0,5.45,.93,6.57,1.61,.82,.49,1.12,.86,1.12,1.87v3.03c0,.82-.34,1.2-.86,1.2-.45,0-.86-.34-1.34-.67-.9-.64-2.35-1.61-4.33-1.61-1.05,0-2.17,.41-2.17,1.79,0,1.27,1.05,1.61,2.54,2.05,3.92,1.16,6.84,2.69,6.84,7.73s-4.3,7.69-8.7,7.69c-3.59,0-6.01-1.2-6.95-1.87-.93-.67-1.16-1.08-1.16-2.09Z" fill="#fff"/><path d="M104.47,44.17V21.64c0-.41,.3-.71,.71-.71h12.89c.41,0,.71,.3,.71,.71v4.41c0,.41-.3,.71-.71,.71h-6.95v2.61h5.38c.41,0,.71,.3,.71,.71v4.41c0,.41-.3,.71-.71,.71h-5.38v3.85h7.06c.41,0,.71,.3,.71,.71v4.41c0,.41-.3,.71-.71,.71h-13c-.41,0-.71-.3-.71-.71Z" fill="#fff"/><path d="M128.45,44.17V21.64c0-.41,.3-.71,.71-.71h8.89c4.74,0,10.16,2.05,10.16,11.92s-5.42,12.03-10.16,12.03h-8.89c-.41,0-.71-.3-.71-.71Zm9.08-5.12c2.2,0,4.03-.82,4.03-6.2s-1.83-6.09-4.03-6.09h-2.43v12.29h2.43Z" fill="#fff"/><path d="M154.71,44.24c-.11,.45-.41,.64-.86,.64h-4.93c-.37,0-.67-.3-.67-.67,0-.34,.11-.67,.37-1.49l6.76-21.1c.19-.52,.41-.67,.82-.67h5.08c.41,0,.64,.15,.82,.67l6.76,21.1c.26,.82,.37,1.16,.37,1.49,0,.37-.3,.67-.67,.67h-4.93c-.45,0-.75-.22-.86-.64l-.71-2.58h-6.65l-.71,2.58Zm5.34-9.75c-.22-.75-1.08-4.11-1.08-4.48,0-.34-.07-.45-.22-.45s-.22,.11-.22,.45c0,.37-.86,3.74-1.08,4.48l-.6,2.13h3.81l-.6-2.13Z" fill="#fff"/><path d="M177.01,36.59v7.58c0,.41-.3,.71-.71,.71h-4.52c-.41,0-.71-.3-.71-.71V21.64c0-.41,.3-.71,.71-.71h4.67c.41,0,.6,.26,.75,.56l4.41,7.73c1.05,1.87,2.05,3.47,2.09,3.81,.04,.3,.07,.34,.19,.34s.15-.11,.11-.37c-.04-.52-.04-2.58-.04-3.77v-7.58c0-.41,.3-.71,.71-.71h4.52c.41,0,.71,.3,.71,.71v22.52c0,.41-.3,.71-.71,.71h-4.63c-.41,0-.56-.15-.78-.56l-4.41-7.73c-1.05-1.87-2.05-3.47-2.09-3.81-.04-.3-.07-.34-.19-.34s-.15,.11-.11,.37c.04,.52,.04,2.58,.04,3.77Z" fill="#fff"/><path d="M192.59,32.93c0-10.27,5.3-12.36,11.06-12.36,2.99,0,4.93,.75,5.68,1.27,.52,.37,.93,.75,.93,1.27v4.18c0,.49-.26,.75-.71,.75-.22,0-.56-.19-1.01-.45-.86-.49-2.2-1.23-4.22-1.23-3.29,0-4.93,1.79-4.93,6.57s1.68,6.54,4.93,6.54c2.02,0,3.36-.75,4.22-1.23,.45-.26,.78-.45,1.01-.45,.45,0,.71,.26,.71,.75v4.18c0,.52-.41,.9-.93,1.27-.75,.52-2.69,1.27-5.68,1.27-5.75,0-11.06-2.05-11.06-12.33Z" fill="#fff"/><path d="M212.87,44.17V21.64c0-.41,.3-.71,.71-.71h12.89c.41,0,.71,.3,.71,.71v4.41c0,.41-.3,.71-.71,.71h-6.95v2.61h5.38c.41,0,.71,.3,.71,.71v4.41c0,.41-.3,.71-.71,.71h-5.38v3.85h7.06c.41,0,.71,.3,.71,.71v4.41c0,.41-.3,.71-.71,.71h-13c-.41,0-.71-.3-.71-.71Z" fill="#fff"/><path d="M230.24,44.17V21.64c0-.41,.3-.71,.71-.71h8.89c4.74,0,10.16,2.05,10.16,11.92s-5.42,12.03-10.16,12.03h-8.89c-.41,0-.71-.3-.71-.71Zm9.08-5.12c2.2,0,4.03-.82,4.03-6.2s-1.83-6.09-4.03-6.09h-2.43v12.29h2.43Z" fill="#fff"/><path d="M115.65,65.93c-.07,.28-.25,.39-.53,.39h-3.03c-.23,0-.41-.18-.41-.41,0-.21,.07-.41,.23-.92l4.15-12.95c.11-.32,.25-.41,.5-.41h3.12c.25,0,.39,.09,.5,.41l4.15,12.95c.16,.5,.23,.71,.23,.92,0,.23-.18,.41-.41,.41h-3.03c-.28,0-.46-.14-.53-.39l-.44-1.58h-4.08l-.44,1.58Zm3.28-5.98c-.14-.46-.66-2.52-.66-2.75,0-.21-.05-.28-.14-.28s-.14,.07-.14,.28c0,.23-.53,2.29-.66,2.75l-.37,1.31h2.34l-.37-1.31Z" fill="#fff"/><path d="M126.45,65.88v-10.68h-2.96c-.25,0-.44-.18-.44-.44v-2.71c0-.25,.18-.44,.44-.44h10c.25,0,.44,.18,.44,.44v2.71c0,.25-.18,.44-.44,.44h-2.96v10.68c0,.25-.18,.44-.44,.44h-3.21c-.25,0-.44-.18-.44-.44Z" fill="#fff"/><path d="M57.93,91.26l-1.05-2.02c-1.05-1.98-1.64-3.29-1.72-3.62-.07-.3-.11-.34-.19-.34-.11,0-.15,.07-.11,.34,.07,.52,.11,2.39,.11,3.59v7.55c0,.41-.3,.71-.71,.71h-4.89c-.41,0-.71-.3-.71-.71v-22.52c0-.41,.3-.71,.71-.71h4.89c.41,0,.64,.3,.75,.56l2.35,4.97c.6,1.23,2.02,4.26,2.02,4.63,0,.3,.04,.37,.15,.37s.15-.07,.15-.37c0-.37,1.38-3.32,2.02-4.63l2.35-4.97c.15-.3,.34-.56,.75-.56h4.89c.41,0,.71,.3,.71,.71v22.52c0,.41-.3,.71-.71,.71h-4.89c-.41,0-.71-.3-.71-.71v-7.55c0-1.2,.04-3.06,.11-3.59,.04-.26,0-.34-.11-.34-.07,0-.11,.04-.19,.34-.07,.34-.67,1.61-1.72,3.62l-1.05,2.02c-.26,.52-.49,.64-.9,.64h-1.42c-.41,0-.64-.15-.9-.64Z" fill="#fff"/><path d="M74.14,96.75v-22.52c0-.41,.3-.71,.71-.71h5.23c.41,0,.71,.3,.71,.71v22.52c0,.41-.3,.71-.71,.71h-5.23c-.41,0-.71-.3-.71-.71Z" fill="#fff"/><path d="M84.53,96.75v-22.52c0-.41,.3-.71,.71-.71h8.89c4.74,0,10.16,2.05,10.16,11.92s-5.42,12.03-10.16,12.03h-8.89c-.41,0-.71-.3-.71-.71Zm9.08-5.12c2.2,0,4.03-.82,4.03-6.2s-1.83-6.09-4.03-6.09h-2.43v12.29h2.43Z" fill="#fff"/><path d="M112.91,89.17v7.58c0,.41-.3,.71-.71,.71h-4.52c-.41,0-.71-.3-.71-.71v-22.52c0-.41,.3-.71,.71-.71h4.67c.41,0,.6,.26,.75,.56l4.41,7.73c1.05,1.87,2.05,3.47,2.09,3.81,.04,.3,.07,.34,.19,.34s.15-.11,.11-.37c-.04-.52-.04-2.58-.04-3.77v-7.58c0-.41,.3-.71,.71-.71h4.52c.41,0,.71,.3,.71,.71v22.52c0,.41-.3,.71-.71,.71h-4.63c-.41,0-.56-.15-.78-.56l-4.41-7.73c-1.05-1.87-2.05-3.47-2.09-3.81-.04-.3-.07-.34-.19-.34s-.15,.11-.11,.37c.04,.52,.04,2.58,.04,3.77Z" fill="#fff"/><path d="M129.54,96.75v-22.52c0-.41,.3-.71,.71-.71h5.23c.41,0,.71,.3,.71,.71v22.52c0,.41-.3,.71-.71,.71h-5.23c-.41,0-.71-.3-.71-.71Z" fill="#fff"/><path d="M151.91,89.77l-.03-5.68h5.08c.41,0,.71,.3,.71,.71v10.42c0,1.68-3.81,2.61-7.73,2.61-6.2,0-11.06-2.05-11.06-12.33s5.12-12.36,11.43-12.36c2.99,0,5.01,.64,6.05,1.27,.56,.34,.93,.75,.93,1.27v4.18c0,.49-.26,.75-.71,.75-.22,0-.6-.22-1.01-.45-.75-.41-2.05-1.23-4.78-1.23-3.77,0-5.12,2.05-5.12,6.57s.75,6.54,4.26,6.54c1.05,0,1.98-.34,1.98-1.42v-.86Z" fill="#fff"/><path d="M160.84,96.75v-22.52c0-.41,.3-.71,.71-.71h5.23c.41,0,.71,.3,.71,.71v7.73h6.2v-7.73c0-.41,.3-.71,.71-.71h5.23c.41,0,.71,.3,.71,.71v22.52c0,.41-.3,.71-.71,.71h-5.23c-.41,0-.71-.3-.71-.71v-8.96h-6.2v8.96c0,.41-.3,.71-.71,.71h-5.23c-.41,0-.71-.3-.71-.71Z" fill="#fff"/><path d="M188.29,96.75v-17.41h-4.82c-.41,0-.71-.3-.71-.71v-4.41c0-.41,.3-.71,.71-.71h16.29c.41,0,.71,.3,.71,.71v4.41c0,.41-.3,.71-.71,.71h-4.82v17.41c0,.41-.3,.71-.71,.71h-5.23c-.41,0-.71-.3-.71-.71Z" fill="#fff"/></svg>