<svg xmlns="http://www.w3.org/2000/svg" viewBox="0 0 250 123"><path d="M176.71 44.79l-32.7-.15c-1.22-2.86 2.59-1.65 3.27-4.5 1.19-4.93.6-18.44.42-24.08-.08-2.66-.09-7-.66-9.49s-4.32-1.72-3.33-4.44c.32-.27.7-.26 1.09-.3 2.94-.32 7.8.4 10.96.42 5.73.05 13.09-.76 18.71-.01 2.18.29.65 2.14.49 3.28-.39 2.77.86 4.14 1.12 6.16.14 1.12.04 3.5-1.7 2.79-1.13-.45-2.36-6.4-4.72-8.22-2.58-2-8.52-1.72-11.72-1.44-4.01.35-2.79 1.83-2.87 4.68-.11 3.62-.55 7.26-.11 10.86.48.95 6.93.68 8.05.28 2.71-.96 2.03-4.36 3.19-5.57.73-.77 2.06.07 2.16 1.05.21 2.12-.45 5.3-.36 7.72.04.98 1.67 8.44-1.29 6.26-1.33-.98-.75-4.01-2.9-5.46-1.23-.83-4.69-.92-6.25-.87-.71.02-2.76.04-2.89.86-.06.4.24 1.05.23 1.59-.06 3.65-.17 8.94.23 12.49.03.27.64 2.51.75 2.63.33.38 1.76.64 2.29.7 2.81.29 9.52.37 11.9-1.03 2.06-1.21 3.01-3.97 3.59-6.16.28-1.04.41-3.58.88-4.3.69-1.05 2.04-.85 2.24.43.31 1.94-.63 6.06-.62 8.36 0 .65-.02 1.3.07 1.94.18 1.33 1.07 2.16.5 3.49z" fill="#fff"/><path d="M181.73 48.82c.61.59-2.32 2.53-2.81 2.86-10.35 6.95-23.33 6.44-34.8 2.41-5.98-2.11-15.43-8.17-21.02-8.83-1.09-.13-5.16.08-5.85-.31-2.06-1.17 2.85-3.39 2.19-4.98-.22-10.34.93-21.59.21-31.86-.05-.76-.27-2.76-.65-3.33-.44-.67-3.11-1.35-1.77-3.04.65-.83 1.91.09 2.5.13 2.08.14 4.67.05 6.78 0 .97-.02 2.99-.96 3.44.54.52 1.73-1.7 1.51-2.33 2.56-.17.28-.58 1.96-.62 2.37-.81 7.55-.17 17.57.01 25.29.05 2.12-.7 7.24 1 8.73 1.05.92 5.38 2.04 6.99 2.76 13.49 5.95 24.18 9.75 39.41 6.67 2.48-.5 4.88-1.52 7.31-1.94zM112.03 42.7c.54.64.33 2.2-.66 2.34-.59.08-1.83-.38-2.57-.41-3.96-.14-7.95.07-11.9.16-3.15-2.66 2.72-1.96 2.85-4.63.04-.84-1.85-6.68-2.29-7.67-.18-.39-.43-.76-.7-1.09-2.16.01-16.12-.54-16.93.38-.34 1.77-3.19 7.66-2.12 9.02.83.89 5.61 2.23 3.55 3.95-.72.6-6.04-.19-7.49-.13-1.83.08-5.71 1.8-4.62-1.74 3.07-.56 4.09-2.35 5.3-4.95 3.93-8.4 8.43-20.42 11.31-29.3.23-.71.93-2.39.46-2.93-.55-.64-3.54-.48-1.6-2.98 1.89-.08 3.78-.36 5.63-.74.67-.14 1.99-.84 2.85-.93 2.91-.33 1.31 1.86 1.33 2.64.04 1.32 2.05 4.98 2.54 6.4 3.06 8.86 6.69 21.65 10.9 29.7 1.29 2.46 3.16 1.72 4.17 2.9zM95.56 28.12L88.4 8.62l-6.97 19.5h14.13zM205.94 22.03c10.7 5.52 9.02 20.16-2.82 22.63-6.06 1.26-11.42-.71-16.9-2.98-.87.13-.78 2.07-1.39 2.79-1.09 1.28-2.14-.03-2.29-1.3-.22-1.87.26-5.02.2-7.17s-.83-6.4-.4-8.15c.34-1.43 1.79-.56 2.35.44 2.37 4.2 2.72 8.38 7.02 11.69 5.65 4.34 16.17 3.45 16.12-5.36-.07-12.82-23.61-5.17-25.07-20.15C181.6 2.53 194.28-.42 203.21 3.78c.69.33 2.86 2.17 3.31 1.27.31-.62-.18-1.86.78-2.4l.59-.19c2.18.57 1.33 3.24 1.51 4.88.2 1.76 1.56 8.59 1.16 9.72-.08.24-.75.62-.96.65-1.32.19-2.64-4.27-3.21-5.37-1.94-3.69-4.94-7.6-9.43-8.09-5.74-.62-10.17 2.98-8.76 9.15 1.2 5.26 13.39 6.39 17.74 8.63zM73.02 15.54c-.71.71-1.42 1.38-2.22.24-.74-1.05-.94-5.78-1.57-7.58-1.21-3.48-4.14-3.09-7.4-2.77-3.44.34-3.08 2.26-3.28 5.27-.66 9.71 0 18.96-.39 28.68.42 3.23 4.18 1.81 4.57 3.79.52 2.62-3.08 1.32-4.47 1.28-3.35-.1-6.84.41-10.15.42-.95 0-1.64-.17-1.49-1.29.2-1.54 1.91-1.25 2.93-1.67 1.72-.7 1.56-2.16 1.84-3.73l.31-30.57c-.24-2.32-5.03-3.36-6.73-3.08-4.98.82-3.44 10-5.34 10.8-.59.25-1.05.13-1.37-.42-.72-1.25-.05-8.57-.2-10.73-.05-.72-.87-1.4-.22-2.39l35.1.11.76 1.25c-1.46 3.99-.22 8.24-.67 12.39zM84.58 106.51c.22-.39.2-.82.24-1.26.12-1.57.05-6.9-.22-8.35s-2.53-1.6-1.89-2.9c.39-.79 3.84.19 4.79.2 1.25.02 4.02-1.34 3.58.99-2.67 1.12-1.69 4.25-1.7 6.46 0 4.62-.48 12.24.21 16.69.23 1.51 2.68 2.39 1.69 3.12-.72.53-6.08-.48-7.36.12-2.18-.94.53-1.44.86-2.84.27-1.13.29-5.46.23-6.73s.07-3.23-1.32-3.47c-1.13-.2-4.22-.2-5.55-.22-1.08-.01-5.91-.27-6.23.74-.09.3.1 5.27.16 5.93.08.85.41 4.3.91 4.83.53.56 1.72.52.8 1.83l-6.99-.02c-1.99-.66-.26-1.19.22-1.79 1.04-1.31.71-8.11.7-10.03-.01-2.46-.07-11.95-.92-13.62-.31-.61-1.33-.74-1.46-1.14l.38-1.16c1.88.06 3.56.38 5.48.31.79-.03 1.71-.89 2.17.19.57 1.33-.66 1.18-1.1 1.68-.68.77-.64 8.68-.1 10.08l12.42.35zM178.03 97.09c-3.62-2.99-10.43-1.19-9.38 4.12.69 3.48 8.46 3.81 11.25 5.06 7.6 3.4 5.13 13.48-2.11 15.12-3.85.87-7.11-.16-10.68-1.35l-.41.2c-.24.64-.71 2.02-1.69 1.5-.87-.46-.19-3.12-.19-3.98 0-1.7-.37-4.1-.22-5.59.04-.4.07-1.1.54-1.26 1.19-.4 2.11 3.47 2.57 4.34.86 1.62 2.68 3.73 4.46 4.3 4.21 1.35 9.48-.68 8.76-5.96-.84-6.09-15.44-2.54-15.92-11.54-.23-4.48 3.81-7.98 8.06-8.25 2.81-.18 4.97.68 7.36 2 .82-.11.45-2.24 1.79-2.01.59.1.63.83.7 1.31.21 1.5.38 4.78.41 6.36.01.92.15 3.42-1.5 2.1-.16-.13-1.31-3.09-1.66-3.72-.62-1.11-1.16-1.92-2.14-2.73zM152.85 112.74l-10.18-.21c-.58.18-1.92 4.56-1.91 5.22.02 2.13 1.99 1.64 2.39 2.24 1.63 2.48-3.37 1.24-4.3 1.25-1 0-2 .27-2.98.41-2.04-1.54.77-1.8 1.69-2.69 1.52-1.47 6.11-14.7 7.12-17.55.33-.93 1.72-4.09 1.26-4.75-.25-.35-.9-.32-1.08-.73-.82-1.83 1.77-1.2 2.71-1.4.81-.17 3.4-1.44 3.83-.55.27.56-.01 1.39.15 2.04 1.76 6.96 6.06 15.07 8.16 22.08.34 1.28 3.53 1.27 2.55 2.85-.61.99-1.95.11-2.89.08-1.04-.04-6.33.43-6.59.23-1.35-1.08 1.28-1.9 1.52-2.29.73-1.19-1.07-4.92-1.44-6.24zm-4.95-13.96c-.41-.08-.47.2-.63.46-.53.83-3.67 9.27-4.01 10.52-.07.28-.19.53-.12.83l.31.3 8.43-.17-3.98-11.94zM55.61 110.53c.84-.63 1.62.11 2.44.15s4.93-.18 5.19.19l.06 1.18c-1.42.36-1.56.52-1.73 1.95-.26 2.2.35 4.79.19 6.74-.09 1.13-.73 1.26-1.63.76l-.49-2.07c-1.94.31-3.33 1.62-5.45 1.91-9.38 1.3-16.29-6.22-15.53-15.34.81-9.73 11.2-15.29 19.2-10.03l.47-.34c0-.84 0-1.6.94-1.87 1.7-.15 1.19 5.09 1.28 6.28.07.94 1.23 3.83 0 4.39-1.13.51-1.89-3.1-2.28-3.9-4.08-8.45-14.16-5.5-14.84 4.06-.51 7.18 1.09 16.59 10.44 15.22 3.35-.49 3.91-3.35 3.5-6.26-.27-1.92-2.54-1.36-1.74-3.03zM129.59 95.99l.8-1.89c2.3-.48 1.31 2.05 1.39 3.18.07 1.01.97 6.22.38 6.65-1.49 1.11-1.97-2.5-2.27-3.16-1.77-3.96-5.96-6.09-10.25-4.88-7.53 2.13-7.98 19.37-1.64 22.94 3.26 1.84 10.22 1.04 12.03-2.6.5-1.02.61-4.14 1.65-4.33 1 .03 1.01.44 1.1 1.29s.08 7.7-.11 8.07c-1 2-1.95-1.99-2.58-1.99-7.01 4.21-16.91 2.51-20.24-5.44-5.48-13.09 7.31-24.86 19.74-17.85zM218.31 93.82c.46 0 .96.11 1.03.64.12 1.08-1.33 1.55-1.54 2.05-.62 1.44-.63 14.23-.65 16.63-.01 1.4-.51 6.28.95 6.63 1.52.37 5.45.59 6.77-.33 2.12-1.48 1.58-4.36 2.65-6.32l.67-.08c.91.35-.05 5.58-.06 6.66 0 .48 1 1.86-.17 2.24-.46.15-4.14-.2-5.14-.17-3.23.12-7.49.15-10.54.05-2.47-.08.02-1.77.29-2.52.47-1.34.54-4.95.62-6.55.1-2.01.27-15.44-.32-16.37-.21-.33-.88-.43-1.04-.96-.72-2.32 2.64-1.38 3.84-1.42.86-.03 1.88-.17 2.64-.18zM115.06 81.56l1.97.92.02 1.17c-.18.19-2.19-.43-2.69-.42-.56.02-2.43.92-2.68.11-.28-.9 1.54-.7 1.98-1.79.29-.71.39-5.25.41-6.37.02-1.29.06-5-.08-6.06-.2-1.42-1.06-.85-1.81-1.79l.09-.7 3.45-.06.82.78 5.79 12.32 5.27-12.44c.99-1.38 2.3.14 3.84-.66l.55.67c-.02.58-.87.35-1.12 1.08-.11.3-.29 2.79-.3 3.3-.05 2.56-.09 7.55.22 9.95.13 1.04 1.96 1.63.86 2.05-.72.28-3.9-.46-5.04.03-.24-.99.69-.95 1.04-1.64 1.16-2.31-.29-8.61.57-11.39l-.32-.69c-.74-.06-5.29 13.43-6.17 13.55a.767.767 0 0 1-.78-.43c-1.43-3.46-3.19-6.77-4.77-10.15-.27-.58-.09-1.71-1.11-1.77v10.45zM34.51 96.35c-.2.41-.08 7.7-.05 8.81.08 3.42.1 10.04.6 13.3.23 1.54 1.97 1.48 1.6 3.08-1.32.14-2.59.07-3.87-.02-.95-.07-3.59.67-3.65-.66l.21-.48c.74-.28 1.32-.67 1.34-1.54-.21-5.21-.08-12.27-.41-17.47-.07-1.13-.23-4.94-.9-5.67-.5-.54-1.81-.45-.75-2 1.21-.11 2.54.44 3.73.39 1.11-.05 2.33-.95 3.3.11 1.19 1.29-.95 1.72-1.15 2.14zM167.6 74.49c.33-.2.33-5.87-.11-6.56-.17-.27-1.95-1.43-.29-1.52 1.38-.08 1.89.16 3.53-.04 2.06-.26-.03 1.64-.11 1.89-.63 2.18-.08 6.92-.04 9.31.02 1.1-.4 2.78-.21 3.99.16 1 1.4 1.14.81 1.99h-4.39c-.58-.74.66-1.01.8-1.6.19-.74.36-5.75.02-6.15-1.42-.22-2.86-.36-4.31-.32-.76.02-3.63.1-3.83.75-.28.89-.09 5.24.38 6.1.19.35 1.21.58.68 1.33-.37.53-1.21-.3-1.76-.34-.6-.05-2.53.6-2.74.44-.47-1.22.78-1.24.93-2.83.19-2.14.4-11.01-.18-12.64-.26-.74-1.17-.9-.94-1.75l4.78.09.18.58c-.55.32-1.18 1.18-1.18 1.81v5.17l.3.3h7.66zM83.38 82.89c.86 1.68-1.15.6-1.64.55-.75-.08-2.77.57-2.9.1-.07-.24.69-1.66.8-2.37.35-2.32.51-10.96-.2-12.93-.22-.62-1.52-1.35-.66-1.66.93-.33 2.22.21 3.14.17s2.12-.39 3-.4c4.84-.08 8.47 3.81 6.9 8.69-1.02 3.18-3.52 3.5-6.21 4.54 1.35 1.21 4.86 3.07 6.38 1.41.45-.5.59-2.01 1.08-1.9 1.25 4.47-1.9 5.7-5.54 3.55-.8-.47-4.29-3.98-5.02-2.96-.18.73-.16 2.12.22 2.78.16.29.59.35.64.45zm-.02-15.52c-.24.06-.47.17-.63.36-.94 1.1.15 8.25-.51 10.03.13.99 2.12.79 2.87.69 6.56-.85 5.41-12.82-1.73-11.08z" fill="#fff"/><path d="M102.49 66.19c12.26-.54 11.43 19.47-1.05 17.45-8.97-1.45-8.83-17.02 1.05-17.45zm-.4 1.18c-4.75.36-5 9.16-3.51 12.36 1.81 3.91 7.39 4.13 9.02-.27 1.71-4.62 1.04-12.58-5.51-12.09zM178.15 75.09l.18 7.08c.63.78 4.52.79 5.38.35 1.46-.76 1.43-4.43 2.11-4.46 1.13-.05.16 3.06.12 3.71-.04.55.47 1.62 0 1.97l-11.95-.1c-.26-1 .77-.91 1.15-1.74.23-.49.21-.83.25-1.34.18-1.84.31-10.62-.01-12.13-.17-.77-1.62-1.01-1.3-1.7l11.66-.1c.93.61.04 1.41.02 1.99s.71 1.83.38 2.69c-1.55.14-1.06-2.12-2.2-3.07-.96-.8-5.2-1.11-5.65-.11-.2.44-.38 5.49.03 5.78 2.09.54 3.7.22 4.04-2.12l.81-.09v5.47c-1.01 1.08-1.31-2.09-1.89-2.09h-3.08zM76.83 66.55c.33.63-.17 1.31-.14 1.87.07 1.05.92 2.46-.15 3.28-.6.09-.92-3.26-2.74-3.83-.71-.22-4.27-.38-4.62.24l-.2 5.97c.18.33 2.52.43 2.89.32 1.46-.47.36-2.98 2-2.42l.15 5.75c-1.22 1.22-.99-1.72-1.96-2.16-.91-.4-3.11-.45-3.2.99-.05.78.26 5.3.61 5.77.26.35.6.46.99.6.73 2.02-3.66.07-4.97.8l-.16-.57c.37-.58.84-.63.97-1.42.3-1.81.28-11.37 0-13.14-.18-1.11-1.34-.87-1.4-1.97l11.92-.09zM149.26 82.68v.93c-.86.51-1.52-.28-2.46-.37-.82-.08-3.49.71-3.68.1-.04-1.06 1.64-.79 1.78-1.79l-.03-13.1c-.33-.93-3.02-.88-3.73-.41-.88.57-.81 4.41-1.88 4.25s-.14-2.61-.11-3.28c.04-.78-.42-1.63-.18-2.45l14.61.15c-.31.88.32 5.33-.42 5.58l-.59-.2c-.51-3.13-.98-5.72-4.86-3.85.06.74-.18 1.44-.23 2.16-.15 2.06-.35 9.45.01 11.15.17.81 1.13.87 1.76 1.13zM19.25 106.51c.22-.39.2-.82.24-1.26.12-1.57.05-6.9-.22-8.35s-2.53-1.6-1.89-2.9c.39-.79 3.84.19 4.79.2 1.25.02 4.02-1.34 3.58.99-2.67 1.12-1.69 4.25-1.7 6.46 0 4.62-.48 12.24.21 16.69.23 1.51 2.68 2.39 1.69 3.12-.72.53-6.08-.48-7.36.12-2.18-.94.53-1.44.86-2.84.27-1.13.29-5.46.23-6.73s.07-3.23-1.32-3.47c-1.13-.2-4.22-.2-5.55-.22-1.08-.01-5.91-.27-6.23.74-.09.3.1 5.27.16 5.93.08.85.41 4.3.91 4.83.53.56 1.72.52.8 1.83l-6.99-.02c-1.99-.66-.26-1.19.22-1.79 1.04-1.31.71-8.11.7-10.03-.01-2.46-.07-11.95-.92-13.62-.31-.6-1.33-.73-1.46-1.14l.38-1.16c1.88.06 3.56.38 5.48.31.79-.03 1.71-.89 2.17.19.57 1.33-.66 1.18-1.1 1.68-.68.77-.64 8.68-.1 10.08l12.42.35zM208.89 102.69c-.46.46-.92.89-1.43.15-.48-.68-.61-3.72-1.01-4.88-.78-2.24-2.66-1.99-4.76-1.78-2.21.22-1.98 1.45-2.11 3.39-.42 6.25.07 12.4-.19 18.65.27 2.08 2.69 1.16 2.94 2.44.33 1.69-1.98.85-2.88.82-2.16-.06-4.28.26-6.41.27-.61 0-1.05-.11-.96-.83.13-.99 1.23-.81 1.88-1.07 1.11-.45 1-1.59 1.19-2.59V97.58c-.14-1.49-3.23-1.97-4.32-1.79-3.21.53-2.21 6.24-3.44 6.76-.38.16-.67.08-.88-.27-.47-.8-.03-5.51-.13-6.91-.03-.46-.56-.9-.14-1.54l22.59.07.49.8c-.94 2.57-.14 5.31-.43 7.98zM237.89 108.02l.25 11.04c.9 1.11 6.84 1.13 8.07.5 2.09-1.08 2.04-6.32 3.01-6.36 1.61-.07.23 4.37.17 5.3-.06.78.68 2.31 0 2.81l-17.46-.15c-.37-1.43 1.1-1.3 1.64-2.48.32-.7.29-1.19.36-1.91.05-.53.9-16.17-.02-20.41-.24-1.1-2.31-1.44-1.86-2.42l17.03-.15c1.33.87.05 2.02.03 2.84s1.02 2.61.54 3.84c-2.21.2-1.52-3.03-3.15-4.38-1.38-1.14-7.81-1.58-8.46-.16-.29.63-.55 9.99.04 10.41 2.99.77 5.67.31 6.16-3.02l1.15-.13v7.82c-1.44 1.55-1.87-2.98-2.7-2.98h-4.79z" fill="#fff"/></svg>