<svg xmlns="http://www.w3.org/2000/svg" viewBox="0 0 190 157"><path d="M18.12.6v2.66h-7.51V22.9H7.56V3.25H.04V.6h18.08zM44.82.6h9.98c1.97 0 3.56.56 4.78 1.68 1.21 1.12 1.82 2.69 1.82 4.71 0 1.74-.54 3.26-1.62 4.55s-2.74 1.94-4.97 1.94h-6.96v9.43h-3.02V.6zm11.72 3.06c-.66-.31-1.57-.47-2.73-.47h-5.97v7.73h5.97c1.35 0 2.44-.29 3.28-.87S58.35 8.46 58.35 7c0-1.64-.6-2.75-1.81-3.34zM41.4 28.12h4.95v14.94h18.58V28.12h4.95v36.15h-4.95V47.36H46.35v16.91H41.4V28.12zM115.18 28.12h4.95v36.15h-4.95V28.12zM131.27 52.61c.11 2.05.58 3.72 1.4 5 1.56 2.4 4.32 3.59 8.27 3.59 1.77 0 3.38-.26 4.84-.79 2.81-1.02 4.22-2.84 4.22-5.46 0-1.97-.6-3.37-1.79-4.21-1.21-.82-3.1-1.53-5.67-2.14l-4.74-1.11c-3.1-.72-5.29-1.52-6.58-2.39-2.23-1.51-3.34-3.77-3.34-6.77 0-3.25 1.09-5.91 3.28-8 2.19-2.08 5.28-3.13 9.29-3.13 3.69 0 6.82.91 9.4 2.74s3.87 4.75 3.87 8.77h-4.6c-.24-1.94-.74-3.42-1.51-4.45-1.43-1.89-3.86-2.83-7.29-2.83-2.77 0-4.76.61-5.97 1.82s-1.82 2.63-1.82 4.23c0 1.77.72 3.07 2.15 3.89.94.53 3.06 1.18 6.37 1.97l4.91 1.16c2.37.56 4.2 1.32 5.48 2.29 2.23 1.69 3.34 4.14 3.34 7.36 0 4-1.42 6.87-4.26 8.59-2.84 1.72-6.14 2.58-9.9 2.58-4.38 0-7.82-1.15-10.3-3.45-2.48-2.28-3.7-5.37-3.65-9.28h4.6zM187.97 28.12v4.31h-12.18v31.84h-4.95V32.43h-12.18v-4.31h29.31zM1.46 71.21h16.02v2.83H4.59v7.01h11.34v2.75H4.59v10.5H1.46V71.2zM45.88 71.21h3.13v20.35H60.6v2.75H45.88v-23.1zM63.79 71.21h3.13v20.35h11.59v2.75H63.79v-23.1zM108.28 71.21l4.35 18.77 5.22-18.77h3.38l5.23 18.8 4.35-18.8h3.43l-6.07 23.1h-3.29l-5.33-19.15-5.36 19.15h-3.29l-6.04-23.1h3.4zM137.84 71.21H141v23.1h-3.16v-23.1zM146.08 71.21h3.69l11.52 18.66V71.21h2.99v23.1h-3.52l-11.69-18.64v18.64h-2.99v-23.1zM184.71 71.87c2.26 1.21 3.65 3.32 4.15 6.34h-3.1c-.37-1.69-1.13-2.92-2.29-3.69-1.16-.77-2.62-1.16-4.39-1.16-2.09 0-3.86.8-5.29 2.41-1.43 1.6-2.15 3.99-2.15 7.17 0 2.75.59 4.98 1.77 6.71 1.18 1.72 3.11 2.59 5.78 2.59 2.04 0 3.74-.61 5.08-1.82 1.34-1.21 2.03-3.17 2.06-5.87h-7.23v-2.59h10.14v12.36h-2.01l-.75-2.97c-1.04 1.16-1.96 1.97-2.77 2.42-1.35.78-3.07 1.16-5.15 1.16-2.69 0-5.01-.89-6.94-2.66-2.11-2.22-3.17-5.27-3.17-9.15s1.03-6.94 3.1-9.23c1.96-2.18 4.5-3.27 7.62-3.27 2.14 0 3.99.42 5.55 1.26zM89.7 99.39h6.7l9.93 29.2 9.86-29.2h6.66v34.54h-4.47v-20.38c0-.71.02-1.87.05-3.5.03-1.63.05-3.38.05-5.24l-9.86 29.13h-4.64l-9.95-29.13v1.06c0 .85.02 2.14.07 3.87s.07 3.01.07 3.82v20.38H89.7V99.4zM139.97 99.39h5.29l12.53 34.54h-5.13l-3.5-10.34H135.5l-3.74 10.34h-4.8l13-34.54zm7.68 20.39l-5.24-15.26-5.57 15.26h10.81zM162.04 99.39h5.51l17.22 27.9v-27.9h4.47v34.54h-5.26l-17.48-27.87v27.87h-4.47V99.39zM97.04 139.02h2.57l6.09 16.8h-2.49l-1.7-5.03h-6.64l-1.82 5.03h-2.33l6.32-16.8zm3.74 9.91l-2.55-7.42-2.71 7.42h5.26zM108.03 139.02l3.17 13.65 3.8-13.65h2.46l3.8 13.67 3.17-13.67h2.49l-4.41 16.8h-2.39l-3.88-13.93-3.9 13.93h-2.39l-4.39-16.8h2.47zM133.04 139.02h2.57l6.09 16.8h-2.49l-1.7-5.03h-6.64l-1.82 5.03h-2.33l6.32-16.8zm3.74 9.91l-2.55-7.42-2.71 7.42h5.26zM160.79 139.02h6.71c2.28 0 4.05.82 5.3 2.46 1.12 1.48 1.68 3.37 1.68 5.68 0 1.78-.33 3.4-.99 4.84-1.17 2.55-3.17 3.82-6.01 3.82h-6.69v-16.8zm6.27 14.85c.75 0 1.37-.08 1.86-.24.86-.3 1.57-.87 2.12-1.71.44-.68.76-1.55.95-2.61.11-.63.17-1.22.17-1.76 0-2.08-.4-3.7-1.21-4.85-.81-1.15-2.11-1.73-3.91-1.73h-3.95v12.9h3.97zM179.08 150.39c.05.95.27 1.73.65 2.32.73 1.11 2.01 1.67 3.84 1.67.82 0 1.57-.12 2.25-.37 1.31-.47 1.96-1.32 1.96-2.54 0-.91-.28-1.57-.83-1.96-.56-.38-1.44-.71-2.64-.99l-2.2-.51c-1.44-.34-2.46-.7-3.06-1.11-1.03-.7-1.55-1.75-1.55-3.14 0-1.51.51-2.75 1.52-3.72 1.02-.97 2.46-1.45 4.32-1.45 1.71 0 3.17.42 4.37 1.27 1.2.85 1.8 2.21 1.8 4.08h-2.14c-.11-.9-.34-1.59-.7-2.07-.67-.88-1.79-1.31-3.39-1.31-1.29 0-2.21.28-2.77.85-.56.56-.84 1.22-.84 1.97 0 .82.33 1.43 1 1.81.44.24 1.42.55 2.96.91l2.28.54c1.1.26 1.95.61 2.55 1.06 1.03.79 1.55 1.92 1.55 3.42 0 1.86-.66 3.19-1.98 3.99-1.32.8-2.85 1.2-4.6 1.2-2.04 0-3.63-.53-4.78-1.6-1.15-1.06-1.72-2.5-1.69-4.31h2.14z" fill="#fff"/><path d="M30.26 23.57c-6.5 0-11.78-5.29-11.78-11.78S23.76 0 30.26 0s11.78 5.29 11.78 11.78-5.29 11.78-11.78 11.78zm0-20.72c-4.93 0-8.94 4.01-8.94 8.94s4.01 8.94 8.94 8.94 8.94-4.01 8.94-8.94-4.01-8.94-8.94-8.94z" fill="#718733"/><path d="M30.26 23.57c-6.5 0-11.78-5.29-11.78-11.78S23.76 0 30.26 0s11.78 5.29 11.78 11.78-5.29 11.78-11.78 11.78zm0-20.72c-4.93 0-8.94 4.01-8.94 8.94s4.01 8.94 8.94 8.94 8.94-4.01 8.94-8.94-4.01-8.94-8.94-8.94z" fill="#fff"/><path d="M30.91 94.97c-6.73 0-12.21-5.48-12.21-12.21s5.48-12.21 12.21-12.21 12.21 5.48 12.21 12.21-5.48 12.21-12.21 12.21zm0-21.47c-5.11 0-9.26 4.15-9.26 9.26s4.15 9.26 9.26 9.26 9.26-4.15 9.26-9.26-4.15-9.26-9.26-9.26z" fill="#718733"/><path d="M30.91 94.97c-6.73 0-12.21-5.48-12.21-12.21s5.48-12.21 12.21-12.21 12.21 5.48 12.21 12.21-5.48 12.21-12.21 12.21zm0-21.47c-5.11 0-9.26 4.15-9.26 9.26s4.15 9.26 9.26 9.26 9.26-4.15 9.26-9.26-4.15-9.26-9.26-9.26z" fill="#fff"/><path d="M91.77 94.97c-6.73 0-12.21-5.48-12.21-12.21s5.48-12.21 12.21-12.21 12.21 5.48 12.21 12.21-5.48 12.21-12.21 12.21zm0-21.47c-5.11 0-9.26 4.15-9.26 9.26s4.15 9.26 9.26 9.26 9.26-4.15 9.26-9.26-4.15-9.26-9.26-9.26z" fill="#718733"/><path d="M91.77 94.97c-6.73 0-12.21-5.48-12.21-12.21s5.48-12.21 12.21-12.21 12.21 5.48 12.21 12.21-5.48 12.21-12.21 12.21zm0-21.47c-5.11 0-9.26 4.15-9.26 9.26s4.15 9.26 9.26 9.26 9.26-4.15 9.26-9.26-4.15-9.26-9.26-9.26z" fill="#fff"/><path d="M32.93 50.62c-1.85 5.87-7.35 10.14-13.82 10.14-7.99 0-14.49-6.5-14.49-14.49s6.5-14.49 14.49-14.49c5.66 0 10.58 3.27 12.96 8.02h5.01c-2.66-7.36-9.71-12.63-17.97-12.63C8.57 27.17 0 35.74 0 46.27s8.57 19.11 19.1 19.11c9.04 0 16.62-6.31 18.6-14.75h-4.78z" fill="#718733"/><path d="M32.93 50.62c-1.85 5.87-7.35 10.14-13.82 10.14-7.99 0-14.49-6.5-14.49-14.49s6.5-14.49 14.49-14.49c5.66 0 10.58 3.27 12.96 8.02h5.01c-2.66-7.36-9.71-12.63-17.97-12.63C8.57 27.17 0 35.74 0 46.27s8.57 19.11 19.1 19.11c9.04 0 16.62-6.31 18.6-14.75h-4.78zM103.71 45.84c1.75-2.09 2.63-4.55 2.63-7.37 0-3.28-.98-5.83-2.95-7.64-1.97-1.81-4.55-2.72-7.75-2.72H78.26v36.15h4.9V48.98h9.61l8.62 15.29h4.95l-8.7-15.43c2.62-.33 4.65-1.32 6.06-3.01zM83.16 32.32h10.88c1.87 0 3.35.25 4.42.76 1.95.95 2.93 2.76 2.93 5.41 0 2.36-.68 4.01-2.04 4.95-1.36.94-3.13 1.4-5.31 1.4H83.16V32.31zM155.87 147.26c.82-.97 1.22-2.11 1.22-3.42 0-1.52-.46-2.71-1.37-3.55-.91-.84-2.11-1.26-3.6-1.26h-8.08v16.8h2.28v-7.1h4.47l4.01 7.11h2.3l-4.04-7.17c1.22-.15 2.16-.61 2.82-1.4zm-9.55-6.28h5.05c.87 0 1.56.12 2.05.35.91.44 1.36 1.28 1.36 2.52 0 1.1-.32 1.86-.95 2.3-.63.43-1.45.65-2.47.65h-5.05v-5.82z" fill="#fff"/></svg>