<svg xmlns="http://www.w3.org/2000/svg" width="250" height="106" viewBox="0 0 250 106"><path d="M37 45.36S67.62 0 126.08 0s86.28 45.36 86.28 45.36h-8.65S178.29 6.78 126.55 6.78s-80 38.58-80 38.58zM25.53 100.78h199.46v4.91H25.53zM51.78 58.91h8.94L68.42 76V58.91h4.86v28.86h-8.37l-7.92-18.45v18.45h-5.21V58.91zM26.77 58.91h8.15V80c0 5.62 7.36 5.56 7.36 0V59h5.77v20.4a8.89 8.89 0 0 1-9.18 9.28c-5 0-12.1-1.14-12.1-9.17zM92.83 73.34s5.11-1.26 5.11-7.48-5.11-7-10-7H77.37v28.91h7.93V76.7l6.92 11.07h9.14zm-7.43-2.26v-8.43s4-.6 4 4.21-4 4.22-4 4.22zM104.27 58.91h8.13v28.86h-8.13zM158.14 62.62v-3.71h-19.35v28.86h19.35v-3.71h-11.22v-9.25h8.81V71.1h-8.81v-8.48h11.22zM191.38 73.05a7.37 7.37 0 0 0 4.32-7.19c0-6.22-5.12-7-10-7h-10.57v28.91h12c5 0 9.38-3 9.38-8.06s-5.13-6.66-5.13-6.66zm-8.22-10.4s4-.6 4 4.21-4 4.22-4 4.22zm0 21.28V75s4.61-.1 4.61 4.47-4.61 4.46-4.61 4.46zM214.87 58.91h-8.63l-9.13 28.86h6.82l1.91-9.87H212l2.21 9.87h9.33zM207 73.67l2-6.81 1.81 6.81zM219.69 58.91l10.74 19.7v13.95h9.43V78.2L250 58.91h-6.42l-6.43 12.77-6.12-12.77h-11.34zM21.43 59.61s-7.92-3.55-13.71-2S0 64.39 0 68.25s3.75 7.12 7.5 10c4.15 3.22 6.32 4.62 5.5 6.95s-7.13 2.57-13-.8v6.2s6.6 2.54 12.7 2.23a10.62 10.62 0 0 0 10.06-10c0-4.47-2.08-7.21-6.51-10.35-3.2-2.26-8.73-5.5-6-8.65s11.08 1.37 11.08 1.37zM134.5 60.37s-6.66-3-11.52-1.71-6.48 5.72-6.48 9 3.14 6 6.29 8.41c3.49 2.7 5.31 3.88 4.63 5.84s-6 2.15-10.92-.68v5.2a30.54 30.54 0 0 0 10.66 1.88 8.92 8.92 0 0 0 8.45-8.45c0-3.75-1.74-6-5.46-8.68-2.69-1.91-7.34-4.63-5-7.27s9.3 1.19 9.3 1.19z" fill="#fff"/></svg>