<?xml version="1.0" encoding="UTF-8"?><svg id="b" xmlns="http://www.w3.org/2000/svg" viewBox="0 0 210 158"><g id="c"><path d="M157.9,146.03c12.38-.39,26.08-2.26,39.17-7.38,3.08-1.2,6.05-2.69,9.05-4.08,2.64-1.23,3.93-.45,3.88,2.49-.03,1.97-.2,3.93-.27,5.9-.05,1.47-.74,2.52-2.07,3.01-5.84,2.19-11.69,4.34-17.56,6.42-.63.22-17.12,4.36-30.89,5.05-1.22.15-11.7.13-13.86.04-16.28-.7-32.08-3.85-47.43-9.33-7.92-2.83-15.81-5.75-23.09-10-6.84-3.99-12.43-9.32-15.83-16.64-2.78-5.97-3.59-12.31-3.37-18.81.19-5.57.42-11.17,2.42-16.45,1.08-2.85,2.42-5.66,4.03-8.25,2.26-3.64,5.77-5.64,10.05-5.91,4.69-.3,9.41-.54,14.1-.4,4.69.13,8.31,2.54,10.74,6.52,6.72,11,8.58,23.02,6.81,35.6-.84,5.98-3.85,10.99-8.52,14.93-1.37,1.16-2.77,1.5-4.35.59-2.03-1.17-4.13-2.26-6.05-3.6-1.84-1.29-1.8-2.92-.09-4.42,5.35-4.69,6.79-10.65,5.28-17.34-.87-3.85-3.75-5.97-7.74-6.14-2.05-.09-4.14,0-6.18.25-3.57.43-6.11,3.01-6.63,6.6-.82,5.59.81,10.62,4.12,15.01,4.22,5.59,9.8,9.51,16.23,12.27,10.22,4.39,20.75,7.84,31.63,10.13,11.63,2.45,22.75,4.09,36.42,3.93Z" fill="#fff" stroke-width="0"/><path d="M79.66,48.77c-.16,6.61-4.24,14.76-13.74,17.6-5.56,1.66-10.97,3.81-16.42,5.82-3.06,1.12-4.09,2.89-3.92,6.23.34,6.66.68,13.32,1.01,19.99.06,1.15.09,2.3.1,3.45.02,2.44-1.28,4.25-3.66,4.88-2.36.63-4.76,1.15-7.14,1.68-3.23.72-5.65-.98-5.9-4.32-.34-4.45-.49-8.91-.74-13.37-.29-5.22-.5-10.45-.92-15.66-.44-5.55,2.7-13.78,10.69-16.37,5.16-1.67,10.36-3.22,15.44-5.12,1.91-.71,3.63-2.11,5.24-3.43,1.67-1.38,2.38-3.37,2.31-5.53-.22-6.48-.45-12.95-.78-19.42-.18-3.56-3.27-6.92-7.48-8.04-9.15-2.42-18.32-2.53-27.42.32-1.23.38-2.41.97-3.56,1.56-3.79,1.94-5.7,5.02-5.45,9.33.15,2.63.41,5.26.5,7.9.13,4.13-1.54,5.94-5.61,6.2-1.72.11-3.45.18-5.18.23-2.88.08-5.32-1.37-5.72-4.2-.9-6.3-1.95-12.67-.76-19.03,1.2-6.41,5.35-10.69,10.96-13.65,4.43-2.34,9.3-3.34,14.16-4.21C34.92-.05,44.24-.54,53.62.67c4.98.64,9.81,1.77,14.31,4.14,6.77,3.57,10.44,9.16,10.91,16.77.28,4.6.94,22.74.83,27.2Z" fill="#fff" stroke-width="0"/><path d="M148.57,101.99c-.18,7.92-.35,15.83-.53,23.75-.05,2.35-.98,3.29-3.37,3.32-5.28.07-10.56.15-15.84.13-10.8-.05-19.3-8.52-19.32-19.32-.03-10.27.05-20.54.09-30.81.01-2.84.75-3.6,3.56-3.71,1.92-.07,3.84-.09,5.76-.09,2.24,0,3.17.88,3.17,3.15,0,8.21-.07,16.41-.11,24.62,0,2.16-.05,4.32.04,6.48.22,5.28,3.66,8.59,8.96,8.68.96.02,1.92-.04,2.88.03,1.42.1,1.97-.48,1.98-1.91.02-5.42.11-10.84.2-16.27.12-7.24.26-14.49.41-21.73.05-2.34,1.03-3.27,3.4-3.31,1.97-.04,3.94-.04,5.9-.03,2.44.01,3.39,1,3.33,3.44-.15,6.72-.31,13.43-.45,20.15-.02,1.15,0,2.3,0,3.45-.01,0-.03,0-.04,0Z" fill="#fff" stroke-width="0"/><path d="M184.06,97.93c-.93-.09-1.43-.17-1.93-.17-3.02-.04-6.05-.05-9.07-.09-2.03-.03-2.9-.79-2.84-2.76.17-5.85.4-11.7.66-17.55.07-1.67,1.12-2.71,2.78-2.71,9.27,0,18.53.02,27.8.11,2.37.02,3.75,2.06,2.85,4.35-2.18,5.53-4.37,11.07-6.87,16.46-3.35,7.24-7.4,14.11-11.99,20.64-.33.47-.43,1.11-.64,1.66.58.14,1.15.4,1.73.41,4.03.07,8.07.07,12.1.12,2.42.03,3.11.74,3.06,3.11-.03,1.53-.08,3.07-.22,4.6-.17,2-1.09,2.89-3.05,2.88-9.17-.03-18.34-.08-27.51-.16-1.87-.02-2.55-.94-2.66-2.83-.21-3.55,1.34-6.53,2.89-9.51,3.25-6.25,7.19-12.02,11.94-17.23.27-.3.49-.66.98-1.35Z" fill="#fff" stroke-width="0"/><path d="M150.67,49.29c.13,3.45-.19,6.84-2.18,9.89-2.87,4.39-6.93,6.28-11.61,5.36-4.2-.83-7.87-4.66-8.51-9.47-.7-5.23-.35-10.43,1.82-15.38,1.27-2.89,3.49-4.35,6.61-4.51,1.68-.08,3.35-.16,5.03-.21,3.22-.1,5.46,1.38,6.93,4.21,1.64,3.17,2.07,6.55,1.92,10.1ZM136.22,56.94c1.07,1.82,3.33,2.13,5.03.99,2.03-1.36,3.36-5.6,2.48-7.9-.82-2.15-2.91-2.98-5.95-2.38-5.07,1.19-2.38,7.89-1.56,9.29Z" fill="#fff" stroke-width="0"/><path d="M165.12,110.72c-.23,4.93-.43,9.87-.69,14.8-.14,2.61-1.06,3.45-3.71,3.49-1.92.02-3.84.05-5.76-.01-2.21-.07-3.15-1.01-3.1-3.24.11-4.94.31-9.87.48-14.81.17-4.84.32-9.68.54-14.51.13-2.97,1.17-3.91,4.13-3.94,1.77-.02,3.55,0,5.32.02,2.49.04,3.56,1.17,3.45,3.7-.21,4.84-.46,9.67-.69,14.51.01,0,.02,0,.03,0Z" fill="#fff" stroke-width="0"/><path d="M82.88,65.71c-1.18,0-1.73-.55-1.75-1.76-.08-4.29-.1-4.28,4.2-4.31,1.92-.02,3.84-.05,5.75-.15,1.82-.1,1.93-.49,1.21-2.14-1.74-3.99-3.6-7.95-4.92-12.08-.62-1.94-.37-4.29-.02-6.37.57-3.3,3.03-5.34,6.41-5.59,2.39-.18,4.79-.09,7.19-.13,1.06-.01,1.64.54,1.65,1.57.03,3.35.06,6.71.01,10.06-.02,1.2-.76,1.8-1.97,1.81-1.15.01-2.3.02-3.45.09-1.56.1-1.91.66-1.19,2.03,1,1.91,2.24,3.71,3.06,5.69.75,1.82,1.37,3.79,1.53,5.74.21,2.41-1.42,4.46-3.81,4.89-3.53,1.05-11.94.63-13.91.64Z" fill="#fff" stroke-width="0"/><path d="M123.77,35.3c1.63.01,2.21.51,2.21,2.14.01,2.78-.04,5.56-.15,8.34-.06,1.57-.59,2.02-2.15,2.08-.72.03-1.44.06-2.16.03-1.34-.06-1.88.52-1.88,1.88,0,3.79-.08,7.58-.13,11.36-.03,2.82-.36,3.15-3.12,3.21-.43,0-.86.02-1.29,0-1.77-.06-2.19-.47-2.2-2.26-.03-3.98-.04-7.96-.06-11.94-.01-1.81-.2-1.99-1.96-2.03-.1,0-.19,0-.29,0-3.82-.04-3.96-.17-3.97-3.95,0-2.06-.01-4.12.05-6.18.05-1.9.55-2.4,2.42-2.43,2.45-.04,12.23-.27,14.68-.25Z" fill="#fff" stroke-width="0"/><path d="M102.28,1.69c1.07-.02,1.9.41,1.96,1.46.18,2.9.28,5.81.26,8.72,0,1.02-.92,1.34-1.89,1.34-2.59,0-5.18,0-7.77.04-2.95.04-3.96,1.32-3.4,4.23.71,3.67,3.21,6.04,6.89,5.86,2.13-.1,3.16.05,3.34,1.38.09.63,0,1.9-.27,2.84-.14.48-.76,1.1-1.23,1.17-7.64,1.13-13.66-3.35-14.69-9.52-.86-5.15.34-10.11,3.08-14.61,1.07-1.76,2.66-2.59,4.79-2.63,1.91-.03,7.33-.27,8.91-.31Z" fill="#fff" stroke-width="0"/><path d="M110.46,26.51c-.02.12-.11.49-.16.85-.13.97-.7,1.37-1.66,1.43-3.27.19-3.7-.22-3.52-3.48.3-5.58,1.97-10.75,4.89-15.48,2.21-3.57,5.3-5.76,9.76-5.41,1.51.12,1.99.48,1.99,2.01,0,6.67-.03,13.33-.09,20-.01,1.68-.49,2.08-2.2,2.12-1.38.03-2.83.29-3.4-1.57-.08-.27-.89-.44-1.37-.46-1.32-.06-2.65-.02-4.25-.02ZM116.31,18.39s0,0,0,0c0-.52.03-1.05,0-1.57-.08-1.39-.61-1.74-1.66-.84-1.13.96-2.2,2.12-2.93,3.39-.98,1.71-.59,2.15,1.34,2.08.38-.01.76-.02,1.14-.03,1.92-.06,2.1-.23,2.12-2.18,0-.29,0-.57,0-.86Z" fill="#fff" stroke-width="0"/><path d="M135.31,12.49c.08-.48.21-.95.22-1.43.04-1.68,0-3.36.06-5.04.07-1.78.72-2.12,3.3-2.14,1.52-.01,1.72.93,1.71,2.08-.06,6.62-.12,13.24-.22,19.86-.02,1.5-.57,1.92-2.23,1.94-2.21.02-2.74-.71-2.74-1.98s-.06-3.4-.02-3.39l-5.84-5.6s0,6.64-.04,9.13c-.02,1.83-.48,2.18-2.72,2.18-1.86,0-2.3-.35-2.3-2.11,0-6.28.02-12.57.07-18.85,0-1.01-.24-2.19,1.02-2.76,1.21-.55,3.45-.21,4.28.81,1.03,1.26,1.91,2.64,2.82,3.99.76,1.13,1.48,2.28,2.21,3.43.13-.03.26-.06.4-.09Z" fill="#fff" stroke-width="0"/><path d="M153.5,78.02c.07-1.91,1.18-3.02,3.1-3.07,2.25-.06,4.51-.06,6.77,0,1.92.05,2.95,1.05,2.95,2.99,0,3.21-.06,6.43-.24,9.64-.14,2.56-1.28,3.56-3.88,3.61-2.01.04-4.03.07-6.04-.09-2.1-.16-2.97-1.19-3.03-3.3-.04-1.63.31-8.15.37-9.78Z" fill="#fff" stroke-width="0"/><path d="M31.54,124.17c-1.34.02-2.28-.78-2.5-2.03-.24-1.34.71-1.61,1.67-1.87,5.65-1.53,11.3-3.06,16.96-4.58,1.65-.44,3.07.55,2.91,2.11-.05.5-.53,1.25-.95,1.37-5.85,1.7-11.73,3.3-17.6,4.93-.18.05-.38.06-.48.07Z" fill="#fff" stroke-width="0"/><path d="M32.11,129.36c-1.18.03-2.22-.93-2.39-2.14-.17-1.2.68-1.43,1.54-1.67,5.55-1.55,11.08-3.15,16.65-4.61.81-.21,1.96-.04,2.64.42,1.24.84.91,2.64-.46,3.04-5.81,1.66-11.65,3.26-17.47,4.88-.18.05-.38.07-.51.09Z" fill="#fff" stroke-width="0"/><path d="M38.05,133.69c-.83-.2-2.22-.4-3.5-.9-.53-.21-1.11-1.02-1.13-1.58-.02-.4.78-1.07,1.32-1.23,3.64-1.04,7.31-2.02,11-2.89.55-.13,1.56.19,1.8.61.25.45.07,1.47-.31,1.91-2.26,2.6-5.21,3.82-9.17,4.08Z" fill="#fff" stroke-width="0"/><path d="M144.81,1.28c1.85,0,2.17.36,1.7,2.12-.34,1.3-.75,2.58-1.16,3.86-.28.88-.78,1.76-1.8,1.37-.49-.19-.9-1.11-.99-1.75-.15-1.13-.06-2.29-.02-3.44.06-1.83.41-2.15,2.26-2.16Z" fill="#fff" stroke-width="0"/><path d="M170.09,37.04c-.85-1.62-2.37-2.43-4.29-2.39-3.16.06-6.33.02-9.5.05-2.53.03-2.99.48-3.02,3.07-.04,3.88-.25,19.03-.27,22.72-.02,3.16.06,3.26,3.15,3.28.53,0,1.06,0,1.58,0,1.22-.01,1.84-.68,1.95-1.85.05-.57.1-1.15.09-1.72-.01-1.3.56-2.12,1.75-2.68,1.69-.79,3.35-1.67,4.94-2.64,2.04-1.25,3.77-2.88,4.6-5.18,1.57-4.34,1.12-8.6-1-12.64ZM163.85,48.75c-.99,1.39-3.43,2.63-3.43,2.63v-4.13c3.35,0,4.42.11,3.43,1.5Z" fill="#fff" stroke-width="0"/><path d="M199.27,60.46c.45,0,.82-.37.82-.82v-2.22c0-.45-.37-.82-.82-.82h-7.78c-.45,0-.82.37-.82.82v11.91c0,.45.37.82.82.82h7.78c.45,0,.82-.37.82-.82v-2.22c0-.45-.37-.82-.82-.82h-4.74v-1.24h4.74c.45,0,.82-.37.82-.82v-2.22c0-.45-.37-.82-.82-.82h-4.74v-.72h4.74Z" fill="#fff" stroke-width="0"/><path d="M188.56,56.6h-2.22c-.45,0-.82.37-.82.82v2.85h-3.5v-2.44c0-.45-.37-.82-.82-.82h-12.73c-.45,0-.82.37-.82.82v2.22c0,.45.37.82.82.82h2.5v8.46c0,.45.37.82.82.82h2.22c.45,0,.82-.37.82-.82v-8.46h3.32v8.46c0,.45.37.82.82.82h2.22c.45,0,.82-.37.82-.82v-5.19h3.5v5.19c0,.45.37.82.82.82h2.22c.45,0,.82-.37.82-.82v-11.91c0-.45-.37-.82-.82-.82Z" fill="#fff" stroke-width="0"/><path d="M161.79,3.11c1.38.01,1.87.44,1.88,1.81.01,2.36-.04,4.71-.13,7.07-.05,1.33-.5,1.71-1.82,1.77-.61.03-1.22.05-1.83.02-1.14-.05-1.59.44-1.59,1.59,0,3.21-.07,6.42-.11,9.63-.03,2.39-.3,2.67-2.65,2.72-.37,0-.73.02-1.1,0-1.5-.05-1.85-.4-1.87-1.92-.03-3.37-.03-6.75-.05-10.12-.01-1.54-.17-1.69-1.66-1.72-.08,0-.16,0-.24,0-3.24-.04-3.36-.15-3.37-3.35,0-1.75,0-3.5.04-5.24.05-1.61.47-2.03,2.05-2.06,2.07-.03,10.37-.23,12.44-.21Z" fill="#fff" stroke-width="0"/></g></svg>