<svg xmlns="http://www.w3.org/2000/svg" width="300" height="30" viewBox="0 0 300 30"><path d="M0,25V4.76L4.76,0H17.85l4.76,4.76v6.63h-8.2V7.65l-.94-.93H9.1l-.94.93V22.1l1,1h4.33l.94-.93V18.58h8.2V25l-4.76,4.76H4.76Zm5.06,4H17.68l4.21-4.21V19.25H15.13v3l-1.49,1.49H9L7.48,22.27V7.48L9,6h4.67l1.49,1.49v3.27h6.76V4.93L17.64.68H4.93L.72,4.93V24.7Zm-3.4-4.84V5.57L5.57,1.66H17.09L21,5.57V9.78H16.07V6.93L14.2,5.06H8.37L6.55,6.89v16L8.37,24.7H14.2l1.87-1.87V20.15h5v4L17.17,28.1H5.57Z" fill="#fff"/><path d="M24.7,29.75V23.08h1.78V6.72H24.7V0H43.1l4.76,4.76v7.65l-2,1.91,2,2v6.8h1.79v6.67H39.7V18.58l-.94-.9H34.64v5.4h1.79v6.67Zm11-.72V23.76H33.92V17H39.1l1.32,1.32V29h8.46V23.76H47.14V16.58l-2.25-2.3L47.14,12V5.06L42.8.72H25.42V6h1.74V23.76H25.42V29Zm-9.35-.93V24.7H28.1V5.06H26.35V1.66h16L46.2,5.57v6l-2.67,2.72L46.2,17v7.7H48v3.4H41.31V17.89l-1.82-1.82H33V24.7h1.78v3.4ZM39.44,12.67l1.87-1.87v-4L39.49,5.06H33v7.61Zm-5.52-.94V6h5l1.53,1.53v2.72l-1.53,1.49Zm4.8-.72,1-.94V7.69l-1-1H34.64V11Z" fill="#fff"/><path d="M52,29.75V23.08h1.78L59.25,6.72H57.93V0H73.75V6.72H72.26L77.7,23.08h1.74v6.67H68.05V23.08h1l-.47-1.4H62.91l-.51,1.4h1v6.67ZM62.69,29V23.76h-1.1L62.27,21h7l.64,2.76H68.77V29h10V23.76h-1.7L71.37,6H73V.72H58.66V6H60.1L54.41,23.76H52.75V29Zm-9-.93V24.7H55l6.5-19.64H59.59V1.66H72.13v3.4H70.05l6.5,19.64h1.28v3.4H69.71V24.7h1.61l-1.53-4.64H61.67L60.14,24.7h1.62v3.4ZM68.94,17.6,65.75,7.91,62.48,17.6Zm-5-.85,1.82-5.91,1.79,5.91Zm2.8-.77-1-2.85-1,2.85Z" fill="#fff"/><path d="M81.27,25V19.3h8.16v2.8l1,1H94.7l1-.93V19.21l-.94-.89H86l-4.76-4.76V4.76L86,0H99.12l4.76,4.76v5.87h-8.2v-3l-.94-.93H90.32l-.89.93v3l.94.93h8.75l4.76,4.76V25l-4.76,4.76H86Zm5,4H98.91l4.25-4.21V16.49L99,12.33H90.2l-1.45-1.49V7.48L90.2,6h4.71L96.4,7.48V9.9h6.76v-5L99,.72H86.2L82,4.93v8.46L86.2,17.6h8.71L96.4,19v3.23l-1.53,1.49H90.24l-1.49-1.49V20H82v4.8Zm-3.31-4.84V20.91h4.89v2l1.82,1.83h5.87l1.83-1.87V18.58l-1.87-1.92H86.88l-3.95-3.95V5.57l3.91-3.91H98.31l4,4V9H97.34V7L95.47,5.06H89.64L87.82,6.89v4.5l1.82,1.83h8.67l4,4v7L98.4,28.1H86.79Z" fill="#fff"/><path d="M105.67,29.75V23.08h1.78V6.72h-1.78V0H117.4V6.72h-1.79V10.8h5.83V6.72h-1.83V0h11.77V6.72h-1.74V23.08h1.74v6.67H119.61V23.08h1.83v-5h-5.83v5h1.79v6.67Zm11-.72V23.76h-1.79V17.38h7.27v6.38h-1.79V29H130.7V23.76h-1.83V6h1.83V.72H120.37V6h1.79v5.53h-7.27V6h1.79V.72H106.39V6h1.74V23.76h-1.74V29Zm-9.36-.93V24.7h1.75V5.06h-1.75V1.66h8.46v3.4H114v7.35h9V5.06h-1.78V1.66h8.5v3.4H128V24.7h1.79v3.4h-8.5V24.7h1.78V16.45h-9V24.7h1.78v3.4Z" fill="#fff"/><path d="M146.64,25V4.76L151.4,0h13.09l4.76,4.76v6.63h-8.2V7.65l-.93-.93h-4.38l-.94.93V22.1l1,1h4.34l.93-.93V18.58h8.2V25l-4.76,4.76H151.4Zm5.06,4h12.62l4.21-4.21V19.25h-6.76v3l-1.48,1.49h-4.68l-1.49-1.49V7.48L155.61,6h4.68l1.48,1.49v3.27h6.76V4.93L164.28.68H151.57l-4.21,4.25V24.7Zm-3.4-4.84V5.57l3.91-3.91h11.52l3.91,3.91V9.78h-4.93V6.93l-1.87-1.87H155l-1.83,1.83v16L155,24.7h5.82l1.87-1.87V20.15h5v4l-3.91,3.91h-11.6Z" fill="#fff"/><path d="M172.53,25V4.76L177.29,0h13.09l4.76,4.76V25l-4.76,4.76H177.29Zm5,4h12.63l4.25-4.25V5.06L190.08.72H177.54L173.29,5V24.74Zm-3.35-4.8V5.57l3.91-3.91h11.51l3.92,3.91V24.19l-3.92,3.91H178.1Zm6.71.51h5.87l1.82-1.83V6.93l-1.87-1.87H180.9l-1.83,1.83v16ZM180,22.32V7.44L181.45,6h4.76l1.49,1.49V22.32l-1.49,1.48h-4.76Zm1.7.76H186l.94-.93V7.65L186,6.72h-4.38l-.93.93V22.1Z" fill="#fff"/><path d="M197,6.72V0H208.7V6.72h-1.79V22.15l.94.93h4.38l.93-.93V6.72h-1.78V0h11.77V6.72h-1.83V25l-4.71,4.76h-13.1L198.75,25V6.72ZM199.43,6V24.82L203.64,29h12.84l4.16-4.16V6h1.75V.72H212.1V6h1.83V22.27l-1.53,1.49h-4.68l-1.53-1.53V6H208V.72H197.69V6Zm-.8-.93V1.66h8.45v3.4H205.3V22.87l1.83,1.83H213l1.87-1.87V5.06H213V1.66h8.45v3.4h-1.78V24.19L215.8,28.1H204.32l-3.95-4V5.06Z" fill="#fff"/><path d="M226.13,29.75V23.08h1.78V6.72h-1.78V0h18.4l4.76,4.76v7.65l-1.95,1.91,1.95,2v6.8h1.79v6.67h-10V18.58l-.93-.9h-4.13v5.4h1.79v6.67Zm11-.72V23.76h-1.79V17h5.19l1.31,1.32V29h8.46V23.76h-1.74V16.58l-2.25-2.3L248.57,12V5.06L244.23.72H226.85V6h1.74V23.76h-1.74V29Zm-9.36-.93V24.7h1.75V5.06h-1.75V1.66h16l3.86,3.91v6L245,14.28,247.63,17v7.7h1.79v3.4h-6.67V17.89l-1.83-1.82h-6.46V24.7h1.78v3.4Zm13.1-15.43,1.87-1.87v-4l-1.83-1.78h-6.46v7.61Zm-5.53-.94V6h5l1.53,1.53v2.72l-1.53,1.49Zm4.8-.72,1-.94V7.69l-1-1h-4.08V11Z" fill="#fff"/><path d="M254.05,25V19.3h8.16v2.8l1,1h4.25l1-.93V19.21l-.93-.89h-8.72l-4.76-4.76V4.76L258.81,0H271.9l4.76,4.76v5.87h-8.2v-3l-.93-.93h-4.42l-.9.93v3l.94.93h8.75l4.76,4.76V25l-4.76,4.76H258.81Zm5,4h12.67l4.25-4.21V16.49l-4.21-4.16H263l-1.45-1.49V7.48L263,6h4.72l1.48,1.49V9.9h6.76v-5L271.73.72H259l-4.21,4.21v8.46L259,17.6h8.72L269.18,19v3.23l-1.53,1.49H263l-1.49-1.49V20h-6.76v4.8Zm-3.31-4.84V20.91h4.89v2l1.83,1.83h5.86l1.83-1.87V18.58l-1.87-1.92h-8.59l-4-3.95V5.57l3.91-3.91H271.1l3.95,4V9h-4.93V7l-1.87-1.91h-5.82L260.6,6.89v4.5l1.83,1.83h8.67l3.95,4v7l-3.87,3.91h-11.6Z" fill="#fff"/><path d="M278.15,29.75V23.08h1.79V6.72h-1.79V0H300V7.91h-6.67V6.72H288.1v4.8h1.19V10.37H296v9h-6.71V18.23H288.1v4.85h5.23V21.85H300v7.9ZM299.28,29V22.57H294v1.19h-6.63V17.47H290v1.19h5.27V11.09H290v1.19h-2.63V6H294V7.18h5.27V.72H278.87V6h1.75V23.76h-1.75V29Zm-19.47-.93V24.7h1.74V5.06h-1.74V1.66h18.57V6.25h-3.44V5.06h-8.46v8.12H291V12h3.4v5.78H291V16.58h-4.47V24.7h8.46V23.51h3.44V28.1Z" fill="#fff"/></svg>