<svg xmlns="http://www.w3.org/2000/svg" viewBox="0 0 350 47"><path d="M34.47 42.41c-1.74-.13-2.94-.21-3.89-.21H26.2c-.95 0-2.14.09-3.89.21l-.7.04.05-.98c.2 0 .3 0 .55-.04 2.44-.21 3.24-.81 3.24-2.51v-8.01H9.71v8.01c0 1.7.8 2.3 3.24 2.51.25.04.35.04.55.04l.05.98-.7-.04c-1.74-.13-2.94-.21-3.89-.21H4.58c-.95 0-2.14.09-3.89.21l-.7.04.05-.98c.2 0 .3 0 .55-.04 2.44-.21 3.24-.81 3.24-2.51V19.08c0-1.7-.8-2.3-3.24-2.51-.25-.04-.35-.04-.55-.04l-.05-.98.7.04c1.74.13 2.94.21 3.89.21h4.38c.95 0 2.14-.09 3.89-.21l.7-.04-.05.98c-.2 0-.3 0-.55.04-2.44.21-3.24.81-3.24 2.51v5.62h15.74v-5.62c0-1.7-.8-2.3-3.24-2.51-.25-.04-.35-.04-.55-.04l-.05-.98.7.04c1.74.13 2.94.21 3.89.21h4.38c.95 0 2.14-.09 3.89-.21l.7-.04-.05.98c-.2 0-.3 0-.55.04-2.44.21-3.24.81-3.24 2.51v19.84c0 1.7.8 2.3 3.24 2.51.25.04.35.04.55.04l.05.98-.7-.04zm-9.02-15.5H9.71v1.79h15.74v-1.79zm28.49 15.97c-7.22 0-13.05-3.87-13.05-9.75 0-5.54 5.48-10.35 13.05-10.35 7.17 0 13 3.87 13 9.75 0 5.54-5.43 10.35-13 10.35zm-.79-17.33c-4.38 0-7.07 3.28-6.67 7.28.5 4 3.64 7.32 8.27 7.32 4.38 0 7.07-3.32 6.62-7.32s-3.59-7.28-8.22-7.28zM90 42.37s-7.17-.17-10.06-.17h-3.93c-.95 0-1.64.09-3.39.21l-.7.04.05-.98c.2 0 .3 0 .55-.04 2.44-.21 2.74-.81 2.74-2.51V26.74c0-1.7-.3-2.3-2.74-2.51-.25-.04-.35-.04-.55-.04l-.05-.98.7.04c1.74.13 2.44.21 3.39.21h3.89c.95 0 1.64-.09 3.39-.21l.7-.04-.05.98c-.2 0-.3 0-.55.04-2.44.21-2.74.81-2.74 2.51v11.37c0 1.53.1 1.62 1.69 1.62h3.34c2.59 0 2.99-.13 4.73-2l1.2-1.28H93c-1.94 2.17-2.64 4.81-2.99 5.92zm27.8-18.18c-.2 0-.3 0-.55.04-2.44.21-3.39 1.32-4.28 2.51l-5.98 7.75v4.43c0 1.7.3 2.3 2.74 2.51.25.04.35.04.55.04l.05.98-.7-.04c-1.74-.13-2.44-.21-3.39-.21h-3.89c-.95 0-1.64.09-3.39.21l-.7.04.05-.98c.2 0 .3 0 .55-.04 2.44-.21 2.74-.81 2.74-2.51v-3.49l-6.52-8.69c-1.1-1.45-1.69-2.3-4.13-2.51-.25-.04-.35-.04-.55-.04l-.05-.98.7.04c1.74.13 2.44.21 3.39.21h3.89c.95 0 1.64-.09 3.39-.21l.7-.04-.05.98c-.2 0-.3 0-.55.04-1.49.13-1.39.81-.65 1.79l4.58 6.09 4.13-5.37c.85-1.11 1.44-2.3-1-2.51-.25-.04-.35-.04-.55-.04l-.05-.98.7.04c1.74.13 2.44.21 3.39.21h1.39c.95 0 1.64-.09 3.39-.21l.7-.04-.05.98zm49.46 18.22c-1.74-.13-2.94-.21-3.89-.21h-4.88c-.95 0-2.14.09-3.89.21l-.7.04.05-.98c.2 0 .3 0 .55-.04 2.44-.21 3.24-.81 3.24-2.51v-.17c0-1.53-.05-2.98-.1-4.3h-13.55c-.05 1.32-.1 2.77-.1 4.3v.17c0 1.7.8 2.3 3.24 2.51.25.04.35.04.55.04l.05.98-.7-.04c-1.74-.13-2.94-.21-3.89-.21h-4.88c-.95 0-2.14.09-3.89.21l-.7.04.05-.98c.2 0 .3 0 .55-.04 2.44-.21 3.24-.81 3.24-2.51v-.3c0-10.22 4.28-19.5 13.25-24.06 8.97 4.56 13.25 13.84 13.25 24.06v.3c0 1.7.8 2.3 3.24 2.51.25.04.35.04.55.04l.05.98-.7-.04zm-16.39-24.82c-3.54 2.3-5.88 5.88-6.62 14.65h13.25c-.75-8.77-3.14-12.31-6.62-14.65zm44.73 6.6c-.2 0-.3 0-.55.04-2.44.21-3.09 1.28-3.74 2.51l-8.47 16.52h-1.44l-8.52-16.52c-.95-1.83-1.44-2.3-3.89-2.51-.25-.04-.35-.04-.55-.04l-.05-.98.7.04c1.74.13 2.44.21 3.39.21h4.88c.95 0 1.64-.09 3.39-.21l.7-.04-.05.98c-.2 0-.3 0-.55.04-2.44.21-2.49 1.75-1.79 3.07l4.43 8.52 4.73-9.07c.7-1.32.7-2.3-1.74-2.51-.25-.04-.35-.04-.55-.04l-.05-.98.7.04c1.74.13 2.44.21 3.39.21h1.59c.95 0 1.64-.09 3.39-.21l.7-.04-.05.98zm21.61 18.14s-3.44-.09-5.63-.13h-8.17c-.95 0-1.64.09-3.39.21l-.7.04.05-.98c.2 0 .3 0 .55-.04 2.44-.21 2.74-.81 2.74-2.51V26.74c0-1.7-.3-2.3-2.74-2.51-.25-.04-.35-.04-.55-.04l-.05-.98.7.04c1.74.13 2.44.21 3.39.21h13.8l.75 4.68-1.05-.04c-.6-1.96-.9-2.09-2.99-2.13l-5.88-.09v4.85h8.07v2.3h-8.07v5.07c0 1.53.1 1.62 1.69 1.62h3.44c2.64 0 3.14-.64 4.58-2.43l1.3-.09c-1.49 2.13-1.49 3.96-1.84 5.11zm32.73.08c-1.74-.13-2.44-.21-3.39-.21h-3.89c-.95 0-1.64.09-3.39.21l-.7.04.05-.98c.2 0 .3 0 .55-.04 2.44-.21 2.74-.81 2.74-2.51V26.23h-8.47v12.69c0 1.7.3 2.3 2.74 2.51.25.04.35.04.55.04l.05.98-.7-.04c-1.74-.13-2.44-.21-3.39-.21h-3.89c-.95 0-1.64.09-3.39.21l-.7.04.05-.98c.2 0 .3 0 .55-.04 2.44-.21 2.74-.81 2.74-2.51V26.74c0-1.7-.3-2.3-2.74-2.51-.25-.04-.35-.04-.55-.04l-.05-.98.7.04c1.74.13 2.44.21 3.39.21h17.73c.95 0 1.64-.09 3.39-.21l.7-.04-.05.98c-.2 0-.3 0-.55.04-2.44.21-2.74.81-2.74 2.51v12.18c0 1.7.3 2.3 2.74 2.51.25.04.35.04.55.04l.05.98-.7-.04zm31.43-7.92c-.2 0-.3 0-.55.04-2.44.21-2.74.81-2.74 2.51v4s-4.38 1.83-9.41 1.83c-7.22 0-13.05-3.87-13.05-9.75 0-5.54 5.48-10.35 13.05-10.35 4.53 0 7.07 1.92 8.57 1.15l.3 5.37h-.95c-.7-2.47-4.13-4.09-7.32-4.09-4.78 0-8.07 3.66-7.87 7.83.25 4.47 4.13 7.41 8.67 7.41.95 0 1.84-.09 2.64-.26v-3.15c0-1.7-.3-2.3-2.74-2.51-.25-.04-.35-.04-.55-.04l-.05-.98.7.04c1.74.13 2.44.21 3.39.21h3.89c.95 0 1.64-.09 3.39-.21l.7-.04-.05.98zm22.01 7.84s-3.44-.09-5.63-.13h-8.17c-.95 0-1.64.09-3.39.21l-.7.04.05-.98c.2 0 .3 0 .55-.04 2.44-.21 2.74-.81 2.74-2.51V26.74c0-1.7-.3-2.3-2.74-2.51-.25-.04-.35-.04-.55-.04l-.05-.98.7.04c1.74.13 2.44.21 3.39.21h13.8l.75 4.68-1.05-.04c-.6-1.96-.9-2.09-2.99-2.13l-5.88-.09v4.85h8.07v2.3h-8.07v5.07c0 1.53.1 1.62 1.69 1.62h3.44c2.64 0 3.14-.64 4.58-2.43l1.3-.09c-1.49 2.13-1.49 3.96-1.84 5.11zm41.14 4.3c-10.86 0-19.87-10.43-22.07-11.92-.15-.13-.65-.26-1.2-.47-.6 0-1.15-.04-1.64-.09v4.77c0 1.7.3 2.3 2.74 2.51.25.04.35.04.55.04l.05.98-.7-.04c-1.74-.13-2.44-.21-3.39-.21h-3.89c-.95 0-1.64.09-3.39.21l-.7.04.05-.98c.2 0 .3 0 .55-.04 2.44-.21 2.74-.81 2.74-2.51V26.74c0-1.7-.3-2.3-2.74-2.51-.25-.04-.35-.04-.55-.04l-.05-.98.7.04c1.74.13 2.44.21 3.39.21 0 0 6.38-.13 8.17-.13 5.03 0 8.02 2.17 8.02 4.77 0 2.3-1.69 4.13-4.08 5.19 3.34 2.55 9.46 9.96 15.89 11.88 2.14.64 4.98.64 7.02-.09-.4.81-2.59 1.53-5.48 1.53zm-22.76-21.34c-1.3 0-2.14.04-2.14 1.02v6.39s1.15.09 1.79.09c2.34 0 4.38-1.49 4.38-3.92 0-1.87-1.3-3.58-4.03-3.58zM53.65 5.2h-.46c.15-.48.05-.7-.69-.7h-2.72v6.59c0 .87.15 1.17 1.4 1.28.13.02.18.02.28.02l.03.5-.36-.02c-.89-.07-1.25-.11-1.73-.11h-1.98c-.48 0-.84.04-1.73.11l-.36.02.03-.5c.1 0 .15 0 .28-.02 1.25-.11 1.4-.41 1.4-1.28V4.5h-3c-.66 0-1.02.09-1.5.96h-.48L43.1 2.5h.48c-.15.48-.05.7.69.7h2.77V2.18c0-.87-.15-1.17-1.4-1.28-.13-.02-.18-.02-.28-.02l-.03-.5.36.02c.89.07 1.25.11 1.73.11h1.98c.48 0 .84-.04 1.73-.11l.36-.02-.03.5c-.1 0-.15 0-.28.02-1.25.11-1.4.41-1.4 1.28V3.2h2.95c.66 0 .99-.09 1.48-.96h.53L53.65 5.2zm16.28 7.68c-.89-.07-1.25-.11-1.73-.11h-1.98c-.48 0-.84.04-1.73.11l-.36.02.03-.5c.1 0 .15 0 .28-.02 1.25-.11 1.4-.41 1.4-1.28V8.88h-4.76v2.22c0 .87.15 1.17 1.4 1.28.13.02.18.02.28.02l.03.5-.36-.02c-.89-.07-1.25-.11-1.73-.11h-1.98c-.48 0-.84.04-1.73.11l-.36.02.03-.5c.1 0 .15 0 .28-.02 1.25-.11 1.4-.41 1.4-1.28V4.88c0-.87-.15-1.17-1.4-1.28-.13-.02-.18-.02-.28-.02l-.03-.5.36.02c.89.07 1.25.11 1.73.11h1.98c.48 0 .84-.04 1.73-.11l.36-.02-.03.5c-.1 0-.15 0-.28.02-1.25.11-1.4.41-1.4 1.28v1.46h4.76V4.88c0-.87-.15-1.17-1.4-1.28-.13-.02-.18-.02-.28-.02l-.03-.5.36.02c.89.07 1.25.11 1.73.11h1.98c.48 0 .84-.04 1.73-.11l.36-.02-.03.5c-.1 0-.15 0-.28.02-1.25.11-1.4.41-1.4 1.28v6.22c0 .87.15 1.17 1.4 1.28.13.02.18.02.28.02l.03.5-.36-.02zm-4.1-5.64h-4.76v.72h4.76v-.72zm16.89 5.59s-1.76-.04-2.87-.07h-4.17c-.48 0-.84.04-1.73.11l-.36.02.03-.5c.1 0 .15 0 .28-.02 1.25-.11 1.4-.41 1.4-1.28V4.87c0-.87-.15-1.17-1.4-1.28-.13-.02-.18-.02-.28-.02l-.03-.5.36.02c.89.07 1.25.11 1.73.11h7.05l.38 2.39-.53-.02c-.31-1-.46-1.07-1.53-1.09l-3-.04v2.48h4.12v1.17h-4.12v2.59c0 .78.05.83.86.83h1.76c1.35 0 1.6-.33 2.34-1.24l.66-.04c-.76 1.09-.76 2.02-.94 2.61z" fill="#fff"/></svg>