<svg xmlns="http://www.w3.org/2000/svg" width="380" height="45" viewBox="0 0 380 45"><path d="M0 .52h4.9l3.26 13.1h.06L12.49.52h4.18L20.91 14H21L24.4.52H29l-6 20.42h-4L14.48 6.81h-.06l-4.5 14.13H6.06zM31.18 10.73A11.52 11.52 0 0 1 32 6.29a9.59 9.59 0 0 1 2.3-3.39A10.1 10.1 0 0 1 37.79.75a13.37 13.37 0 0 1 8.83 0 10.19 10.19 0 0 1 3.49 2.15 9.72 9.72 0 0 1 2.29 3.39 11.51 11.51 0 0 1 .82 4.44 11.44 11.44 0 0 1-.82 4.44 9.72 9.72 0 0 1-2.29 3.39 10 10 0 0 1-3.49 2.15 13.37 13.37 0 0 1-8.83 0 10 10 0 0 1-3.49-2.15 9.59 9.59 0 0 1-2.3-3.39 11.44 11.44 0 0 1-.82-4.44zm4.68 0a7.7 7.7 0 0 0 .44 2.64 6.08 6.08 0 0 0 1.29 2.08 6 6 0 0 0 2 1.37 7.2 7.2 0 0 0 5.22 0 5.83 5.83 0 0 0 3.29-3.45 7.46 7.46 0 0 0 .45-2.64 7.43 7.43 0 0 0-.45-2.62 5.8 5.8 0 0 0-3.29-3.47 7.2 7.2 0 0 0-5.22 0 6 6 0 0 0-2 1.37 6.08 6.08 0 0 0-1.29 2.1 7.66 7.66 0 0 0-.44 2.62zM57.58.52h7.9a14.08 14.08 0 0 1 3 .3 7 7 0 0 1 2.45 1 5.12 5.12 0 0 1 1.68 1.91 6.45 6.45 0 0 1 .62 3 6 6 0 0 1-1.13 3.68 5.08 5.08 0 0 1-3.29 1.92L74 20.94h-5.43l-4.27-8.16h-2.22v8.16h-4.5zM62.08 9h3.94a4.12 4.12 0 0 0 1.22-.26 2.13 2.13 0 0 0 .91-.74 2.07 2.07 0 0 0 .36-1.3 2.09 2.09 0 0 0-.32-1.24 2.07 2.07 0 0 0-.8-.7 3.56 3.56 0 0 0-1.13-.34A10.46 10.46 0 0 0 65 4.33h-2.92zM77.74.52h4.5v16.27h8.34v4.15H77.74zM94.36.52h6.75a19.07 19.07 0 0 1 4.66.55 10.56 10.56 0 0 1 3.85 1.77A8.82 8.82 0 0 1 112.23 6a10.74 10.74 0 0 1 1 4.76 9.79 9.79 0 0 1-.94 4.37 9.37 9.37 0 0 1-2.53 3.17 10.9 10.9 0 0 1-3.66 2 14.3 14.3 0 0 1-4.36.66h-7.38zm4.5 16.27h2.34a12.6 12.6 0 0 0 2.89-.32 6.21 6.21 0 0 0 2.33-1 5.18 5.18 0 0 0 1.58-1.98 6.81 6.81 0 0 0 .56-2.93A5.64 5.64 0 0 0 108 8a5.3 5.3 0 0 0-1.51-1.83A6.68 6.68 0 0 0 104.21 5a10 10 0 0 0-2.7-.36h-2.65zM126.29 10.73a11.7 11.7 0 0 1 .82-4.44 9.74 9.74 0 0 1 2.3-3.39A10.1 10.1 0 0 1 132.9.75a13.34 13.34 0 0 1 8.82 0 10.24 10.24 0 0 1 3.5 2.15 9.72 9.72 0 0 1 2.29 3.39 11.51 11.51 0 0 1 .82 4.44 11.44 11.44 0 0 1-.82 4.44 9.72 9.72 0 0 1-2.29 3.39 10.09 10.09 0 0 1-3.5 2.15 13.34 13.34 0 0 1-8.82 0 10 10 0 0 1-3.49-2.15 9.74 9.74 0 0 1-2.3-3.39 11.63 11.63 0 0 1-.82-4.44zm4.67 0a7.46 7.46 0 0 0 .45 2.64 6.08 6.08 0 0 0 1.29 2.08 5.89 5.89 0 0 0 2 1.37 7.2 7.2 0 0 0 5.22 0 6 6 0 0 0 2-1.37 6.22 6.22 0 0 0 1.28-2.08 7.46 7.46 0 0 0 .45-2.64 7.43 7.43 0 0 0-.45-2.62A6.21 6.21 0 0 0 141.93 6a6 6 0 0 0-2-1.37 7.2 7.2 0 0 0-5.22 0 5.89 5.89 0 0 0-2 1.37 6.08 6.08 0 0 0-1.29 2.1 7.43 7.43 0 0 0-.42 2.63zM152.86.52h13.7v4.15h-9.2v4.16h8.51V13h-8.51v8h-4.5zM184.88 4.5h-5.83v-4h16.16v4h-5.83v16.44h-4.5zM198.78.52h4.5v7.61H212V.52h4.5v20.42H212v-8.82h-8.74v8.82h-4.5zM222.15.52H236v4.15h-9.38v3.81h8.86v4.16h-8.86v4.15h9.89v4.15h-14.36zM251.28.52h7.59a15.12 15.12 0 0 1 3 .29 6.82 6.82 0 0 1 2.47 1 5 5 0 0 1 1.66 1.9 6.55 6.55 0 0 1 .62 3 6.89 6.89 0 0 1-.58 3 4.86 4.86 0 0 1-1.58 1.93 6.29 6.29 0 0 1-2.4 1 14.12 14.12 0 0 1-3 .3h-3.29v8h-4.5zm4.5 8.65h3a5.53 5.53 0 0 0 1.22-.11 3.22 3.22 0 0 0 1-.39 2 2 0 0 0 .72-.75 2.32 2.32 0 0 0 .28-1.2 2 2 0 0 0-.36-1.25 2.34 2.34 0 0 0-.93-.74 4 4 0 0 0-1.25-.33 12.23 12.23 0 0 0-1.33-.07h-2.31zM280.85 5.51a3.18 3.18 0 0 0-1.48-1 5.17 5.17 0 0 0-1.78-.34 4.55 4.55 0 0 0-1 .12 4.27 4.27 0 0 0-1 .36 2.06 2.06 0 0 0-.75.65 1.67 1.67 0 0 0-.29 1 1.59 1.59 0 0 0 .7 1.41 6.41 6.41 0 0 0 1.74.84c.7.23 1.46.46 2.27.69a9.49 9.49 0 0 1 2.26 1 5.49 5.49 0 0 1 1.75 1.71 5.18 5.18 0 0 1 .69 2.85 6.44 6.44 0 0 1-.64 3 6 6 0 0 1-1.71 2.11 7.28 7.28 0 0 1-2.51 1.24 11.63 11.63 0 0 1-6.71-.2 9.3 9.3 0 0 1-3.17-2l3.2-3.51a4.63 4.63 0 0 0 1.74 1.42 5 5 0 0 0 2.18.51 4.67 4.67 0 0 0 1.11-.13 3.79 3.79 0 0 0 1-.39 2.08 2.08 0 0 0 .72-.66 1.62 1.62 0 0 0 .28-1 1.72 1.72 0 0 0-.71-1.45 6.38 6.38 0 0 0-1.77-.91q-1.07-.37-2.31-.75a10.43 10.43 0 0 1-2.31-1 5.53 5.53 0 0 1-1.77-1.67 4.83 4.83 0 0 1-.71-2.75 6.18 6.18 0 0 1 .65-2.88 6.24 6.24 0 0 1 1.73-2.08 7.62 7.62 0 0 1 2.5-1.25 10.14 10.14 0 0 1 2.93-.45 11.41 11.41 0 0 1 3.32.49 8 8 0 0 1 2.91 1.64zM293.63 12.23L286 .52h5.6l4.32 7.64 4.55-7.64h5.34l-7.68 11.71v8.71h-4.5zM322 5.83a4.43 4.43 0 0 0-1.63-1.24 5.39 5.39 0 0 0-2.24-.44A5.57 5.57 0 0 0 313.87 6a6.45 6.45 0 0 0-1.24 2.1 7.43 7.43 0 0 0-.45 2.62 7.46 7.46 0 0 0 .45 2.64 6.6 6.6 0 0 0 1.22 2.08 5.65 5.65 0 0 0 1.84 1.37 5.22 5.22 0 0 0 2.26.49 5 5 0 0 0 2.45-.58 4.85 4.85 0 0 0 1.76-1.61l3.75 2.79a7.74 7.74 0 0 1-3.29 2.69 10.25 10.25 0 0 1-4.09.86 12.62 12.62 0 0 1-4.42-.75 10 10 0 0 1-3.49-2.15 9.72 9.72 0 0 1-2.29-3.39 11.44 11.44 0 0 1-.82-4.44 11.51 11.51 0 0 1 .82-4.44 9.72 9.72 0 0 1 2.29-3.39 10.19 10.19 0 0 1 3.49-2.14 12.62 12.62 0 0 1 4.42-.75 10.45 10.45 0 0 1 1.8.16 9.58 9.58 0 0 1 1.85.5 8.14 8.14 0 0 1 1.74.93 6.66 6.66 0 0 1 1.5 1.41zM329.66.52h4.5v7.61h8.74V.52h4.5v20.42h-4.5v-8.82h-8.74v8.82h-4.5zM352.8.52h4.5v20.42h-4.5zM376.05 5.83a4.43 4.43 0 0 0-1.63-1.24 5.43 5.43 0 0 0-2.24-.44 5.75 5.75 0 0 0-2.35.49A5.66 5.66 0 0 0 368 6a6.28 6.28 0 0 0-1.24 2.1 7.43 7.43 0 0 0-.45 2.62 7.46 7.46 0 0 0 .45 2.64 6.42 6.42 0 0 0 1.22 2.08 5.71 5.71 0 0 0 1.83 1.37 5.29 5.29 0 0 0 2.27.49 5 5 0 0 0 2.45-.58 4.85 4.85 0 0 0 1.76-1.61l3.71 2.8a7.8 7.8 0 0 1-3.29 2.69 10.28 10.28 0 0 1-4.09.86 12.62 12.62 0 0 1-4.42-.75 10 10 0 0 1-3.49-2.15 9.72 9.72 0 0 1-2.29-3.39 11.44 11.44 0 0 1-.82-4.44 11.51 11.51 0 0 1 .82-4.44 9.72 9.72 0 0 1 2.29-3.39A10.19 10.19 0 0 1 368.2.75a12.62 12.62 0 0 1 4.42-.75 10.45 10.45 0 0 1 1.8.16 9.3 9.3 0 0 1 1.84.5 8 8 0 0 1 1.75.93 6.66 6.66 0 0 1 1.5 1.41zM111.05 44.13h-.36l-2-5.22-2 5.22h-.35l-2-5.22a4 4 0 0 0-.52-1.07.93.93 0 0 0-.67-.18v-.37h3v.37a1.83 1.83 0 0 0-.69.09.33.33 0 0 0-.18.32 4.07 4.07 0 0 0 .31.94l1.41 3.53 2-5.25h.31l2 5.25 1.45-3.74a3.7 3.7 0 0 0 .23-.71c0-.27-.27-.41-.81-.43v-.37h2.14v.37a1.08 1.08 0 0 0-.61.15 1.26 1.26 0 0 0-.41.63l-.17.47zM117.69 37v5.92a.57.57 0 0 0 .24.42 1.23 1.23 0 0 0 .71.15h.17v.37h-3.55v-.37h.28a1.12 1.12 0 0 0 .74-.17.62.62 0 0 0 .2-.39V39.6a5.19 5.19 0 0 0-.11-1.41.54.54 0 0 0-.29-.33 2.26 2.26 0 0 0-.63-.06h-.22v-.37a9.75 9.75 0 0 0 2.22-.43zm-1.55-3.36a.84.84 0 0 1 .84-.84.76.76 0 0 1 .58.25.81.81 0 0 1 .24.59.85.85 0 0 1-.24.61.78.78 0 0 1-.58.24.83.83 0 0 1-.6-.24.85.85 0 0 1-.24-.59zM124.42 37.66h-2v4a6.3 6.3 0 0 0 .08 1.23.84.84 0 0 0 .34.51.94.94 0 0 0 .56.2 1.22 1.22 0 0 0 1-.66l.25.15a1.72 1.72 0 0 1-.73.8 2.05 2.05 0 0 1-1 .27 1.63 1.63 0 0 1-1-.34 1.44 1.44 0 0 1-.54-.8 8.22 8.22 0 0 1-.11-1.61v-3.75h-1v-.37a1.65 1.65 0 0 0 1.18-.56 2.58 2.58 0 0 0 .67-1.51h.26v2.07h2zM128.12 38.37a3.55 3.55 0 0 1 1.09-1 2.66 2.66 0 0 1 1.31-.34 2.55 2.55 0 0 1 1.35.34 1.56 1.56 0 0 1 .69.83 5.65 5.65 0 0 1 .16 1.61v1.82a11.31 11.31 0 0 0 .05 1.4.48.48 0 0 0 .26.37 1.81 1.81 0 0 0 .8.12v.37h-3.4v-.37h.15a1.15 1.15 0 0 0 .76-.17.68.68 0 0 0 .21-.4V39.63a6 6 0 0 0-.09-1.22 1.14 1.14 0 0 0-.46-.65 1.49 1.49 0 0 0-.89-.26 1.89 1.89 0 0 0-1.13.37 3.16 3.16 0 0 0-.88 1.1v4a.52.52 0 0 0 .25.39 1.47 1.47 0 0 0 .76.14v.37h-3.35v-.37h.24a1.13 1.13 0 0 0 .75-.17.63.63 0 0 0 .25-.33v-7.95a2.72 2.72 0 0 0-.18-1.26c-.13-.18-.43-.26-.91-.26v-.37a5.6 5.6 0 0 0 2.07-.34h.17zM140.17 33.06L142 33c1.49-.07 2.5-.11 3-.11a7.94 7.94 0 0 1 3.79.74 4.81 4.81 0 0 1 2 2 6.26 6.26 0 0 1 .66 2.93 6.37 6.37 0 0 1-.36 2.19 4.66 4.66 0 0 1-1 1.65 4.25 4.25 0 0 1-1.46 1 6.11 6.11 0 0 1-1.59.43 18.62 18.62 0 0 1-2.1.09h-4.84v-.37h.46a1.84 1.84 0 0 0 1-.18.82.82 0 0 0 .35-.55A11.61 11.61 0 0 0 142 41v-5.22a11.25 11.25 0 0 0-.08-1.69.73.73 0 0 0-.32-.52 2.68 2.68 0 0 0-1.08-.14h-.32zm3.36.22v7.29c0 1.08 0 1.77.06 2.08a.91.91 0 0 0 .37.66 2.82 2.82 0 0 0 1.27.19 6 6 0 0 0 2.34-.39 3.21 3.21 0 0 0 1.53-1.54 6.14 6.14 0 0 0 .62-2.92 7.83 7.83 0 0 0-.36-2.47 4.64 4.64 0 0 0-1-1.77 3.5 3.5 0 0 0-1.48-.92 7.56 7.56 0 0 0-2.09-.25c-.42 0-.79.02-1.26.04zM155.79 38.7a2.74 2.74 0 0 1 .89-1.19 1.92 1.92 0 0 1 1.2-.49 1.09 1.09 0 0 1 .84.33 1 1 0 0 1 .3.68.59.59 0 0 1-.15.4.52.52 0 0 1-.38.17c-.27 0-.48-.2-.62-.6s-.24-.4-.43-.4a1.35 1.35 0 0 0-.83.47 2.21 2.21 0 0 0-.62 1 5.68 5.68 0 0 0-.13 1.39v2.5a.59.59 0 0 0 .23.42 1.29 1.29 0 0 0 .72.15h.22v.37h-3.49v-.37h.16a1.27 1.27 0 0 0 .69-.14.53.53 0 0 0 .25-.37v-3.26-1.33a.59.59 0 0 0-.23-.42 1.24 1.24 0 0 0-.72-.15h-.16v-.36a11.17 11.17 0 0 0 2-.48 5.11 5.11 0 0 1 .26 1.68zM159.3 43.27a.84.84 0 0 1 .25-.61.86.86 0 0 1 .61-.25.87.87 0 0 1 .87.86.85.85 0 0 1-.26.62.86.86 0 0 1-1.22 0 .84.84 0 0 1-.25-.62zM171.62 38.74V41a14.38 14.38 0 0 0 .06 1.68.83.83 0 0 0 .33.59 1.78 1.78 0 0 0 1 .2h.36v.37h-5v-.37h.29a1.86 1.86 0 0 0 1-.18.81.81 0 0 0 .34-.55 11.61 11.61 0 0 0 .08-1.74v-5.31A11 11 0 0 0 170 34a.7.7 0 0 0-.32-.52 2.43 2.43 0 0 0-1.08-.15h-.2V33h1.37c1.09 0 1.95-.05 2.56-.05a9.75 9.75 0 0 1 2.6.26 3 3 0 0 1 1.49.94 2.52 2.52 0 0 1 .59 1.71 3.1 3.1 0 0 1-.4 1.57 2.61 2.61 0 0 1-1.14 1 6.69 6.69 0 0 1-2.62.35zm0-.4h.78a4.86 4.86 0 0 0 1.52-.19 1.8 1.8 0 0 0 1-.79 2.77 2.77 0 0 0 .38-1.49 2.63 2.63 0 0 0-.66-2 3.05 3.05 0 0 0-2.15-.63h-.84zM183.66 39.52h-4.59v.7a5 5 0 0 0 .54 2.61 1.77 1.77 0 0 0 1.62.88 2.13 2.13 0 0 0 2.08-1.31h.38a2.26 2.26 0 0 1-1 1.28 3.2 3.2 0 0 1-3.24 0 3.26 3.26 0 0 1-1.22-1.2 3.44 3.44 0 0 1-.48-1.87 3.76 3.76 0 0 1 .92-2.59 2.93 2.93 0 0 1 2.29-1 2.57 2.57 0 0 1 2 .79 2.69 2.69 0 0 1 .7 1.71zm-1.41-.33a2 2 0 0 0 0-.32 1.39 1.39 0 0 0-1.43-1.49c-1 0-1.56.6-1.75 1.81zM189.55 37.66h-2v4a6.3 6.3 0 0 0 .08 1.23.85.85 0 0 0 .35.51.91.91 0 0 0 .55.2 1.2 1.2 0 0 0 1-.66l.26.15a1.74 1.74 0 0 1-.74.8 2 2 0 0 1-1 .27 1.59 1.59 0 0 1-1-.34 1.46 1.46 0 0 1-.55-.8 8.22 8.22 0 0 1-.11-1.61v-3.75h-.95v-.37a1.67 1.67 0 0 0 1.18-.56 2.65 2.65 0 0 0 .67-1.51h.25v2.07h2zM197.15 39.52h-4.59v.7a5 5 0 0 0 .54 2.61 1.77 1.77 0 0 0 1.62.88 2.11 2.11 0 0 0 2.07-1.31h.39a2.26 2.26 0 0 1-1 1.28 3.16 3.16 0 0 1-1.67.46 3.2 3.2 0 0 1-1.58-.42 3.31 3.31 0 0 1-1.21-1.2 3.44 3.44 0 0 1-.48-1.87 3.76 3.76 0 0 1 .92-2.59 2.93 2.93 0 0 1 2.29-1 2.57 2.57 0 0 1 2 .79 2.75 2.75 0 0 1 .7 1.67zm-1.41-.33a2 2 0 0 0 0-.32 1.39 1.39 0 0 0-1.43-1.49c-1 0-1.56.6-1.75 1.81zM201.26 38.7a2.74 2.74 0 0 1 .89-1.19 1.92 1.92 0 0 1 1.2-.49 1.09 1.09 0 0 1 .84.33 1 1 0 0 1 .3.68.59.59 0 0 1-.15.4.52.52 0 0 1-.38.17c-.27 0-.48-.2-.62-.6s-.24-.4-.43-.4a1.35 1.35 0 0 0-.83.47 2.21 2.21 0 0 0-.62 1 5.68 5.68 0 0 0-.13 1.39v2.5a.59.59 0 0 0 .23.42 1.29 1.29 0 0 0 .72.15h.22v.37H199v-.37h.16a1.27 1.27 0 0 0 .69-.14.53.53 0 0 0 .25-.37v-3.26-1.33a.59.59 0 0 0-.23-.42 1.24 1.24 0 0 0-.72-.15H199v-.36a11.17 11.17 0 0 0 2-.48 5.11 5.11 0 0 1 .26 1.68zM216.54 44.13H216l-3.76-8.67c-.07-.15-.18-.42-.33-.8a2.51 2.51 0 0 0-.66-1 2 2 0 0 0-1.12-.28V33h4.7v.37a3.42 3.42 0 0 0-1.18.13.49.49 0 0 0-.3.49 4 4 0 0 0 .38 1.09l3.13 7.24 2.52-6a6.94 6.94 0 0 0 .64-2c0-.62-.44-.94-1.31-1V33h3.33v.37a1.38 1.38 0 0 0-.9.36 2.77 2.77 0 0 0-.66 1l-.74 1.71zM227.47 39.52h-4.59v.7a5 5 0 0 0 .54 2.61 1.77 1.77 0 0 0 1.62.88 2.13 2.13 0 0 0 2.08-1.31h.38a2.26 2.26 0 0 1-1 1.28 3.2 3.2 0 0 1-3.24 0 3.34 3.34 0 0 1-1.22-1.2 3.44 3.44 0 0 1-.48-1.87 3.76 3.76 0 0 1 .92-2.59 2.94 2.94 0 0 1 2.29-1 2.59 2.59 0 0 1 2 .79 2.68 2.68 0 0 1 .7 1.71zm-1.4-.33v-.32a1.38 1.38 0 0 0-1.43-1.49c-1 0-1.56.6-1.75 1.81zM231.11 37h.22a4.68 4.68 0 0 1 .21 1.36 4.33 4.33 0 0 1 1.21-1 2.86 2.86 0 0 1 1.33-.34 2.33 2.33 0 0 1 1.29.33 1.46 1.46 0 0 1 .64.81 5 5 0 0 1 .15 1.4v2.06a12.35 12.35 0 0 0 0 1.39.51.51 0 0 0 .25.37 1.79 1.79 0 0 0 .79.13v.37h-3.37v-.37h.17a1.19 1.19 0 0 0 .76-.17.73.73 0 0 0 .2-.4v-3.45a4.89 4.89 0 0 0-.08-1.11 1 1 0 0 0-.4-.59 1.39 1.39 0 0 0-.85-.26 2.08 2.08 0 0 0-1.13.35 3.62 3.62 0 0 0-1 1v2.69a12.35 12.35 0 0 0 0 1.39.53.53 0 0 0 .26.37 1.73 1.73 0 0 0 .79.13v.37h-3.25v-.37a1.72 1.72 0 0 0 .77-.12.46.46 0 0 0 .27-.34 9.64 9.64 0 0 0 0-1.43v-2a12.23 12.23 0 0 0 0-1.39.51.51 0 0 0-.26-.37 1.73 1.73 0 0 0-.79-.13v-.37a9.39 9.39 0 0 0 1.82-.31zM242.68 37.29h2.66v.37a3.59 3.59 0 0 0-2 1.09c-.26.23-.67.56-1.22 1l2.35 2.75a4.21 4.21 0 0 0 .84.81 1.35 1.35 0 0 0 .62.21v.37h-3.28v-.37c.55 0 .82-.13.82-.36a2.3 2.3 0 0 0-.54-.78l-1.68-2-.35.26v2.27a.56.56 0 0 0 .23.42 1.19 1.19 0 0 0 .7.15v.37h-3.34v-.37h.25a1.15 1.15 0 0 0 .75-.17.62.62 0 0 0 .2-.39V35a2.6 2.6 0 0 0-.18-1.22c-.12-.18-.41-.26-.87-.26v-.37a6.7 6.7 0 0 0 1.14-.12 4.11 4.11 0 0 0 .9-.22h.17v7.4l.69-.48q1.68-1.18 1.68-1.71c0-.24-.2-.36-.62-.37zM248.93 37h.07a3.43 3.43 0 0 1 .24 1.39 3.86 3.86 0 0 1 1.16-1 2.71 2.71 0 0 1 1.34-.35 2.24 2.24 0 0 1 1.32.37 2 2 0 0 1 .7 1.11 4.88 4.88 0 0 1 1.24-1.13 2.66 2.66 0 0 1 1.31-.37 2.23 2.23 0 0 1 1.29.36 1.39 1.39 0 0 1 .65.8 7.09 7.09 0 0 1 .11 1.46v2a12.23 12.23 0 0 0 0 1.39.51.51 0 0 0 .26.37 1.63 1.63 0 0 0 .79.13v.37h-3.29v-.37a1.62 1.62 0 0 0 .74-.12.51.51 0 0 0 .26-.36 11.28 11.28 0 0 0 .05-1.41v-2.2a5 5 0 0 0-.08-1 1 1 0 0 0-.39-.57 1.4 1.4 0 0 0-.84-.25 1.85 1.85 0 0 0-1.05.36 4.47 4.47 0 0 0-.99 1.02v3.92a.56.56 0 0 0 .23.42 1.19 1.19 0 0 0 .7.15v.37h-3.19v-.37a1.72 1.72 0 0 0 .76-.12.47.47 0 0 0 .26-.34 9.83 9.83 0 0 0 0-1.43v-1.81a9.28 9.28 0 0 0-.06-1.26 1.13 1.13 0 0 0-.42-.67 1.36 1.36 0 0 0-.86-.27 1.9 1.9 0 0 0-1 .32 4.53 4.53 0 0 0-1.05 1v4.1a.53.53 0 0 0 .24.4 1.47 1.47 0 0 0 .75.14v.37H247v-.37a1.67 1.67 0 0 0 .75-.12.51.51 0 0 0 .26-.35 11.5 11.5 0 0 0 0-1.42v-2-1.38a.52.52 0 0 0-.25-.39 1.72 1.72 0 0 0-.77-.12v-.37a8.89 8.89 0 0 0 1.94-.4zM267.83 42.67h.3c-.05.92-.5 1.37-1.35 1.37a1.22 1.22 0 0 1-.87-.29 1.42 1.42 0 0 1-.41-.86 8.49 8.49 0 0 1-1.47.86 2.9 2.9 0 0 1-1.18.29 1.75 1.75 0 0 1-1.15-.38 1.23 1.23 0 0 1-.49-1 1.79 1.79 0 0 1 .81-1.45 10 10 0 0 1 2.23-1.21l1.25-.5v-.33a3.79 3.79 0 0 0-.09-1 1 1 0 0 0-.46-.55 1.74 1.74 0 0 0-1-.24c-.8 0-1.25.27-1.34.8s-.31.82-.68.82-.49-.15-.49-.46a1.41 1.41 0 0 1 .65-1 3.22 3.22 0 0 1 2-.53 3.12 3.12 0 0 1 1.58.33 1.61 1.61 0 0 1 .75.73 3.27 3.27 0 0 1 .18 1.25V42a4.79 4.79 0 0 0 .09 1.2.41.41 0 0 0 .42.27c.42-.01.64-.28.72-.8zm-2.33-2.82l-.88.36c-1.38.56-2.07 1.27-2.07 2.12a1.26 1.26 0 0 0 .26.82.9.9 0 0 0 .7.31 2.08 2.08 0 0 0 .87-.25 6.81 6.81 0 0 0 1.12-.75zM271.31 37h.21a4.08 4.08 0 0 1 .21 1.36 4.36 4.36 0 0 1 1.22-1 2.83 2.83 0 0 1 1.33-.34 2.33 2.33 0 0 1 1.29.33 1.46 1.46 0 0 1 .64.81 5 5 0 0 1 .15 1.4v2.06a12.35 12.35 0 0 0 0 1.39.49.49 0 0 0 .25.37 1.73 1.73 0 0 0 .79.13v.37h-3.37v-.37h.15a1.15 1.15 0 0 0 .75-.17.68.68 0 0 0 .21-.4v-3.45a5.56 5.56 0 0 0-.08-1.11 1 1 0 0 0-.41-.59 1.35 1.35 0 0 0-.85-.26 2.05 2.05 0 0 0-1.12.35 3.78 3.78 0 0 0-1 1v2.69a11.34 11.34 0 0 0 0 1.39.5.5 0 0 0 .26.37 1.73 1.73 0 0 0 .79.13v.37h-3.23v-.37a1.72 1.72 0 0 0 .77-.12.49.49 0 0 0 .27-.34 11.47 11.47 0 0 0 0-1.43v-2a12.23 12.23 0 0 0 0-1.39.51.51 0 0 0-.26-.37 1.76 1.76 0 0 0-.79-.13v-.37a9.39 9.39 0 0 0 1.82-.31z" fill="#fff"/></svg>