<svg xmlns="http://www.w3.org/2000/svg" width="300" height="48" viewBox="0 0 300 48"><path d="M58 30.52c-.32-2.82-2.46-4.85-3.94-5.93a6.79 6.79 0 0 0 2.84-3.16c1.9-3.81.95-11.88 0-15.16C55.74 2.08 52 1.05 44 .33 37.16-.28 19.15.11 11.46.27L8.3.33c-4.45 0-6.85.63-7.52 2C.24 3.39 0 7.44 0 9.66c-.1 6.38.68 6.81 1.05 7 1 .57 4.9.76 6.59.81.4 5 .77 12.66.22 14-.21.53-1.67.53-2.86.43-1.5-.08-2.93-.15-3.73.66-1.6 1.6-.37 11.61 0 14.63a.71.71 0 0 0 .7.61H2c1.86 0 45.76-.27 51.51-2.51s5-10 4.49-14.09zm-39.58-3.13c3.47-.19 19.52-1.05 23.92-.58s4.41 1.67 4.41 2.65c0 .57 0 1.52-4.13 1.86-3.72.31-20.62-.22-24.2-.32zm28.69-8.88c-.16 1.26-2.47 1.76-6.86 1.5-5.22-.31-18.7-.77-21.69-.86a14 14 0 0 1 0-3.57c3-.09 17.23-.46 22.6 0 3.8.33 5.19 1.13 5.69 1.75a1.46 1.46 0 0 1 .26 1.18zM117.85 31.65h-7.12c-1.43-3.26-6.8-12.3-8.68-15.44h5a.7.7 0 0 0 .7-.68l.53-13.43a.7.7 0 0 0-.59-.72c-5.92-1-31.39 0-32.47 0a.71.71 0 0 0-.66.53c-.53 2.07-.31 12.52-.28 13.71a.72.72 0 0 0 .72.69l6.82-.15-13 15.27c-1.38 0-5.28 0-6.31.48-.5.21-1.53.64-.43 14.49a.7.7 0 0 0 .7.65h25.13a.72.72 0 0 0 .68-.51c1.08-3.79.41-14 .38-14.46a.71.71 0 0 0-.71-.65h-5.34l1.79-3.29L97.44 28 99 31.42h-4.55a.7.7 0 0 0-.7.6c-1.51 10.09-.65 14.29-.61 14.46a.7.7 0 0 0 .69.56h24.47a.72.72 0 0 0 .7-.61 49 49 0 0 0-.45-14.21.72.72 0 0 0-.7-.57zm-26.67-15.1A63.93 63.93 0 0 1 94.8 22h-7.08a25.11 25.11 0 0 1 3.46-5.45zM178.89 31.76H172l-.4-14.68 6.8-.16a.73.73 0 0 0 .5-.23.68.68 0 0 0 .19-.51l-.53-14.56a.7.7 0 0 0-.72-.68l-24.73.43a.68.68 0 0 0-.5.22.74.74 0 0 0-.2.51l.45 14a.7.7 0 0 0 .7.68h5.63l.54 5.79-15.8-6.59h2.74a.7.7 0 0 0 .71-.7V1.64a.71.71 0 0 0-.71-.7h-23.6a.71.71 0 0 0-.71.7v14a.71.71 0 0 0 .71.71h6l.65 15.29-6.69.08a.7.7 0 0 0-.69.6 55 55 0 0 0 0 13.71.7.7 0 0 0 .68.62l24.3.44a.7.7 0 0 0 .49-.2.71.71 0 0 0 .21-.5l.18-14.13a.7.7 0 0 0-.69-.72l-6.49-.16-.21-5.46c2.86.64 10.58 3.76 15.63 5.89l-3.22.09a.7.7 0 0 0-.69.72l.35 13.78a.72.72 0 0 0 .71.69h25.71a.68.68 0 0 0 .5-.22.65.65 0 0 0 .2-.51l-.44-13.87a.7.7 0 0 0-.67-.73zM239.24 2.34l-24.64-.53a.69.69 0 0 0-.51.21.64.64 0 0 0-.21.5l.12 14.31a.71.71 0 0 0 .7.7l7.19.09c0 .81.06 2.27.06 3.71v1c.11 2.91.36 9.74-3.51 10.82-4.75 1.32-19.2.47-21.67-.64-1.75-.79-2.14-5.07-2.14-6.51a.69.69 0 0 0-.22-.51.67.67 0 0 0-.52-.2l-10.33.44a.72.72 0 0 0-.68.66c0 .11-.18 2.76 0 9.17.18 6.69 4.27 11.11 8 11.11h.12c2 0 12.11-.17 21.05-.27 5.81-.07 11.13-.13 13.4-.17 6.35-.09 7.31-4.34 7.41-8.9.07-3.85.22-16.74.25-19.89h6.51a.72.72 0 0 0 .71-.73L239.93 3a.7.7 0 0 0-.69-.66zM294.64 1.84c-4.08-1.23-16.95-.88-22.57 0s-17 .79-17.13.79c-7.61.11-11.25 2.7-11.47 8.16 0 .77-.08 1.79-.13 3-.25 5.7-.67 15.24-.67 21.88 0 6.85 3.47 10.66 10.59 11.66a106.37 106.37 0 0 0 11.05.36c6.5 0 14.38-.16 20.49-.28l3.82-.08c10-.18 10.49-6.11 10.84-10.44v-.1c.35-4.31.54-16.79.54-23.79 0-6.17-.85-9.79-5.36-11.16zm-10.47 29.4c-3.1.47-23.32 1.18-27 0-3-1-2.62-5.17-2.4-7.42 0-.22 0-.42.06-.59.15-1.84.22-3.18.29-4.73v-.75c.08-1.48 1.09-1.83 3.42-1.83h2c2.54 0 7.13-.11 7.15-.11.57 0 14.2.26 16.69 0a3.17 3.17 0 0 1 2.52.58 3.29 3.29 0 0 1 .85 2.52v9.15c-.02 1.72-1.31 2.83-3.58 3.18z" fill="#fff"/></svg>