<svg xmlns="http://www.w3.org/2000/svg" width="200" height="111" viewBox="0 0 200 111"><path d="M187.72,46.28c-1.59-.13-3.41.12-5.23.11a11.41,11.41,0,0,1-2.73-.35c-1.38-.36-2.79-.62-4.14-1.06-1.82-.58-3.72-.88-5.48-1.57-1.51-.6-3.15-1-4.27-2.33a3.44,3.44,0,0,1-1-2.36,39.77,39.77,0,0,1,.57-5.35,17.9,17.9,0,0,0-.22-4.39,14.51,14.51,0,0,1-.21-2.08c0-1.57-.26-3.11-.34-4.66-.13-2.48-.27-5,.75-7.33a2,2,0,0,1,3-1.2,3.83,3.83,0,0,0,2,.41,7,7,0,0,1,5.65,2.31,19.31,19.31,0,0,0,5.93,4.2,12.37,12.37,0,0,0,7.53,1,3.46,3.46,0,0,1,4.17,1.57,3.35,3.35,0,0,0,1.59,1.43,1.83,1.83,0,0,1,1.25,1.33c.16.83.85,1.19,1.43,1.64a1.6,1.6,0,0,1,.22,2.49,4.92,4.92,0,0,1-4,1.38c-1.58-.05-3.09-.63-4.66-.81a12.14,12.14,0,0,1-3.77-.84c-1.07-.49-2.12-1.05-3.16-1.62s-2.14-1.28-3.22-1.89a4.58,4.58,0,0,0-2.33-.6,9.12,9.12,0,0,0-3.08.2c-1.68.6-2.31,1.87-1.53,3.46a3.47,3.47,0,0,0,2,1.61,14.63,14.63,0,0,0,3.83,1.22c.65.05,1.31.09,2,.15,1.8.15,3.6.18,5.38.43a44,44,0,0,1,6,1,3.51,3.51,0,0,1,1.83,1.53.88.88,0,0,1-.57,1.35,14.55,14.55,0,0,1-4.51.35,25.17,25.17,0,0,1-6.39-1.66,25.54,25.54,0,0,0-6-1.07,4.84,4.84,0,0,0-2.2.22,1.71,1.71,0,0,0-.49,2.76,7.55,7.55,0,0,0,4.6,1.86,18.48,18.48,0,0,0,2.1.12c2.88.09,5.75.14,8.62.29a9.66,9.66,0,0,1,4.1.78,2.14,2.14,0,0,1,1.37,2,5.39,5.39,0,0,1-.47,2.47,2.75,2.75,0,0,1-2.64,1.48C189.94,46.32,189,46.28,187.72,46.28Z" fill="#fff"/><path d="M190.36,82a32.52,32.52,0,0,1-4.29-.19,16.17,16.17,0,0,1-7.38-2.39c-1.33-.84-1.68-2.29-2-3.72a7.73,7.73,0,0,1,.13-2.67A28.43,28.43,0,0,0,176,63.2q-.63-2.87-1.3-5.71c-.25-1.08-.61-2.14-.83-3.24a3.43,3.43,0,0,1,1.5-3.83A10.24,10.24,0,0,1,179,48.61a5.31,5.31,0,0,1,2.85.1c2.85,1,5.69,2.08,8.55,3.06A17.84,17.84,0,0,0,196,52.85a8.08,8.08,0,0,1,2.32.45,1.06,1.06,0,0,1,.76,1.34,3.65,3.65,0,0,1-3.65,2.93,32.94,32.94,0,0,1-7.87-.3c-1.72-.24-3.51-.39-5.13.61a2.65,2.65,0,0,0-1.05,3.63,3.77,3.77,0,0,0,2.5,1.46,16.42,16.42,0,0,0,4.85.09c1.83-.17,3.65-.54,5.49-.56a5.2,5.2,0,0,1,1.31.13A2.48,2.48,0,0,1,197,66.36a2.2,2.2,0,0,1-1.72.83,45,45,0,0,1-5.06-.17,19.23,19.23,0,0,0-5.25.22,4.43,4.43,0,0,0-2.27,1.27,2.75,2.75,0,0,0,.45,4.07,5.75,5.75,0,0,0,3.68,1.22,18.3,18.3,0,0,0,5.45-.7,18.66,18.66,0,0,1,4.05-.82,4.85,4.85,0,0,1,2.32.34,2.29,2.29,0,0,1,1.31,1.94,40.4,40.4,0,0,1,.05,4.67,2.18,2.18,0,0,1-1.5,1.84C196.12,82.11,193.62,82,190.36,82Z" fill="#fff"/><path d="M88.44,8.49c0-1.15,0-2.29,0-3.44a2.88,2.88,0,0,1,1.94-2.83A11,11,0,0,1,93.82,1c1.89-.2,3.77-.52,5.65-.85a7.41,7.41,0,0,1,5.45,1.17,3.77,3.77,0,0,0,3.76.29c1.33-.58,2.8-.19,3.13.86a5.77,5.77,0,0,1,0,2.55,13.89,13.89,0,0,1-2.71,5.91,6.71,6.71,0,0,0-1,5.32,1.46,1.46,0,0,1-.57,1.61,3.71,3.71,0,0,0-1.33,2.68,9.42,9.42,0,0,0,1.34,5.4c1.27,2.53,3.11,4.7,4.46,7.17a15.61,15.61,0,0,1,2.14,5.11A4.75,4.75,0,0,1,113,42.58a3.11,3.11,0,0,1-1.81.85,6.61,6.61,0,0,1-3-.21,8.19,8.19,0,0,0-5.11-.07,16.89,16.89,0,0,1-2.76.8c-2.12.22-4.74-.25-5.63-2.82a16.51,16.51,0,0,1-.77-2.38,7.43,7.43,0,0,0-1.51-3.39,16.12,16.12,0,0,0-2.85-3.16,8.27,8.27,0,0,0-4.7-1.63,14,14,0,0,0-5.34.49A4.84,4.84,0,0,0,78,32.15,4.82,4.82,0,0,0,76,36.08a33.48,33.48,0,0,0,.43,4.57,5.61,5.61,0,0,1-.21,2.87,3.34,3.34,0,0,1-1.58,1.61,7.6,7.6,0,0,1-1.8.78,35.62,35.62,0,0,0-3.35,1.45,8.24,8.24,0,0,1-3.94.91,11.6,11.6,0,0,0-2.5,0c-1.87.27-4.21-2.39-3.86-4.43.28-1.57.64-3.13.9-4.7A18.4,18.4,0,0,0,60,33a9.81,9.81,0,0,0-1.31-4,17.75,17.75,0,0,0-2-2.44q-2.88-2.94-5.61-6c-.68-.75-1.35-1.5-2-2.28a2.6,2.6,0,0,1-.69-1.87c0-.29,0-.58,0-.86a2.08,2.08,0,0,0-1-2.07,2.31,2.31,0,0,1,.14-3.84,4.57,4.57,0,0,1,2.59-.82c.8,0,1.59,0,2.38,0a5.11,5.11,0,0,0,2.92-1.49,8.34,8.34,0,0,1,2.33-1.46,4.49,4.49,0,0,1,5,1.53c1.39,1.83,2.16,4,3.42,5.91a6.43,6.43,0,0,0,5.22,3.23c1.36.07,2.72.13,4.08.1a32,32,0,0,0,5.6-.7c1.07-.22,2.16-.31,3.23-.6a12.7,12.7,0,0,0,3-1.34,2.11,2.11,0,0,0,1-1.93c0-1.19,0-2.38,0-3.56Z" fill="#fff"/><path d="M19.58,29.1c0-.27.48-.57.08-.85s-.69,0-1,.16a8.49,8.49,0,0,0-4.1,5,4.23,4.23,0,0,0-.13.71c0,.24,0,.53.27.59s.4-.21.54-.4.06-.62.43-.57.27.41.39.63.35.87.82.65.19-.66.06-1c-.06-.17-.13-.33-.18-.49-.26-.81-.19-1,.62-1.09A16.61,16.61,0,0,0,21.66,31a75.55,75.55,0,0,1,10.73-3.7,12.05,12.05,0,0,1,4.52-.16c.79.11,1.57-.05,2.36,0a18.66,18.66,0,0,1,7.43,2,10.51,10.51,0,0,1,6,8.52,11.6,11.6,0,0,1-4.63,11.17,17.17,17.17,0,0,1-7.58,3.42,55.51,55.51,0,0,0-8.2,2.13,8.69,8.69,0,0,0-1.55.71c-1.13.7-2.41.59-3.64.7s-2.58.15-3.87.24a12.84,12.84,0,0,0-4,1,49,49,0,0,1-7.73,2.09,20.88,20.88,0,0,1-5.4.63,10.15,10.15,0,0,1-4.29-1.14A2.74,2.74,0,0,1,.43,57a5.36,5.36,0,0,1,0-4.16,3.36,3.36,0,0,1,2.66-2,50.73,50.73,0,0,1,5.49-.53,19.4,19.4,0,0,0,4.1-.59,12.22,12.22,0,0,0,2.67-1.25,13.76,13.76,0,0,1,5.36-1.63,18.55,18.55,0,0,0,5.92-1.31,13.78,13.78,0,0,0,2.48-1.48c1-.75,2-3.82,1-4.93a2.2,2.2,0,0,0-.82-.63,5.66,5.66,0,0,0-4.75.48c-1.81.84-3.69,1.55-5.4,2.56a46.5,46.5,0,0,1-7,3.13,2.22,2.22,0,0,1-.69.22c-1.9,0-3.83.28-5.68-.43a7.28,7.28,0,0,1-3.91-3.19,7.89,7.89,0,0,1-.73-6.68,5.35,5.35,0,0,0,0-2.22c0-.35-.06-.7-.07-1a1.07,1.07,0,0,1,1-1.21,16,16,0,0,0,4.08-1.44,26.1,26.1,0,0,0,2.63-1.75A26.7,26.7,0,0,1,14,24.45a8.17,8.17,0,0,0,3.45-1.82,1.66,1.66,0,0,1,1.6-.37,8.71,8.71,0,0,0,1.91.07,1.57,1.57,0,0,0,1.25-.76,5.75,5.75,0,0,1,.68-.8,2.15,2.15,0,0,1,2.95-.51,4.93,4.93,0,0,0,1.89.52A4.27,4.27,0,0,0,30,20.12c2.08-1.09,4.22-2,6.26-3.18a7.07,7.07,0,0,1,2.08-1c.76-.16,1.11,0,1.17.79a13.05,13.05,0,0,1,0,2.5,2.66,2.66,0,0,1-.84,1.67,23.06,23.06,0,0,1-3,2.72,15.71,15.71,0,0,1-4.44,2.09c-2,.57-3.89,1.37-5.89,1.9-1.82.48-3.62,1-5.43,1.53A.27.27,0,0,1,19.58,29.1Z" fill="#fff"/><path d="M86.63,53.6l7,.53c1.1.08,2.2.1,3.29.14a3.85,3.85,0,0,1,3.91,2.92,36.94,36.94,0,0,1,1.64,7.43c.15,1.08.42,2.15.56,3.24.3,2.39.79,4.74,1,7.14.22,2.16.55,4.3.82,6.45s.58,4.52.87,6.78c.19,1.44.34,2.88.57,4.3a3.07,3.07,0,0,0,3.08,2.56,24.84,24.84,0,0,0,5.14-.7,38.68,38.68,0,0,0,5.52-1.71c2-.72,3.56.08,3.66,2.4a9.2,9.2,0,0,1-1.11,4.47,25.22,25.22,0,0,1-2.74,4.62c-1.55,2-2.5,2.46-5.13,2.18-2-.23-4-.15-5.62,1.34a3.36,3.36,0,0,1-2.87,1,6.86,6.86,0,0,0-3.22.52c-.65.2-1.3.42-2,.6a2.16,2.16,0,0,1-2.31-1.15,4.47,4.47,0,0,0-2.2-1.89c-.25-.1-.47-.25-.71-.35-1.16-.45-1.3-1.6-.88-2.66S96,102,96.46,101a6.85,6.85,0,0,0,.59-2.68,34.86,34.86,0,0,0-.65-9.23,87.05,87.05,0,0,0-4.57-13.79c-.54-1.29-1-2.6-1.5-3.93a42.26,42.26,0,0,0-1.63-4c-.81-1.78-1.65-3.55-2.52-5.29C85.62,61,85,59.9,84.38,58.8a6.76,6.76,0,0,1-1.15-3.11,1.56,1.56,0,0,1,.91-1.54A5.13,5.13,0,0,1,86.63,53.6Z" fill="#fff"/><path d="M8.72,64.71c2.7.23,5.33-.48,8-.91,3.4-.57,6.71-1.5,10.06-2.31,2.57-.63,5.13-1.31,7.73-1.81a4.46,4.46,0,0,1,3.21.61,5.3,5.3,0,0,0,3.76.53,27.87,27.87,0,0,0,3-.62,2.47,2.47,0,0,1,3.16,2.54,6.26,6.26,0,0,0,.62,2.8A6.32,6.32,0,0,1,48.7,69a4,4,0,0,1-1.07,1.86A2.46,2.46,0,0,0,47,72.58c.14,2.87-1.33,4.82-3.66,6.2a18.58,18.58,0,0,1-3.41,1.82A28.33,28.33,0,0,1,34,81.86c-1.89.23-3.78.49-5.69.56A4.2,4.2,0,0,0,26.6,83a2.3,2.3,0,0,0-.85,2.85,12,12,0,0,0,2.69,4.07C29.92,91.44,31.38,93,33,94.37a12.53,12.53,0,0,1,2.55,3.07,3.72,3.72,0,0,1,.3,2.11,1.08,1.08,0,0,1-.67.85A14.07,14.07,0,0,1,28,101.48a19,19,0,0,1-7.16-2.22,2.13,2.13,0,0,1-.65-.44c-.81-.9-1.79-1.63-2.6-2.51A15.16,15.16,0,0,1,15.45,93c-.63-1.21-1.25-2.42-1.82-3.65a1.86,1.86,0,0,0-1.56-1.16,1.33,1.33,0,0,1-1.1-.8,22.73,22.73,0,0,0-1.79-3,15.48,15.48,0,0,0-2-1.84,10.2,10.2,0,0,1-3.14-4.07A3.4,3.4,0,0,1,3.9,77,15.11,15.11,0,0,0,4,74.75c0-.84-.7-1.27-1.29-1.73a8.72,8.72,0,0,0-1.65-1,1.48,1.48,0,0,1-.74-.63c-.2-.37-.24-.71.2-1,.21-.12.38-.3.59-.41A2,2,0,0,0,2,67.72c-.17-1.06,0-1.29,1-1.27a1.58,1.58,0,0,0,1.62-.87,1.57,1.57,0,0,1,1.57-.88C7,64.74,7.85,64.71,8.72,64.71ZM25.09,77.23a18.22,18.22,0,0,0,5-.45,6.5,6.5,0,0,0,2.59-.89c1.54-1.08,1.85-1.77,1.14-3.21a3.23,3.23,0,0,1-.15-2.53,2.45,2.45,0,0,0-.1-1.91,3.43,3.43,0,0,0-2.69-1.76,18.47,18.47,0,0,0-5,.1A42.55,42.55,0,0,0,19,67.8a2.72,2.72,0,0,0-2.28,2.73,7.77,7.77,0,0,0,1.61,4.89,13.94,13.94,0,0,0,2.16,2.63.87.87,0,0,0,.79.21c.32-.05.23-.33.23-.53,0-.43.24-.51.59-.5Z" fill="#fff"/><path d="M140.26,41.38a38.53,38.53,0,0,1-8.14-1,20,20,0,0,1-5.71-2.54,12.59,12.59,0,0,1-4.57-4.79,36.37,36.37,0,0,1-3.56-7.8,26.46,26.46,0,0,1-.91-5.1,20.36,20.36,0,0,1-.1-3.49,14.17,14.17,0,0,1,3.09-8.28,12.1,12.1,0,0,1,7-4,38.51,38.51,0,0,1,6.53-.73,31.36,31.36,0,0,1,10.25,1.29,16.65,16.65,0,0,1,5.19,2.48c1.74,1.24,3.52,2.44,5.32,3.6,1.22.78,2.35,1.78,2.2,3.47,0,.49-.29,1-.37,1.45a3.6,3.6,0,0,0,.75,2.79,5.76,5.76,0,0,1,.92,4.68,5.7,5.7,0,0,0,0,1.37,16.36,16.36,0,0,1-.89,6.8,14.49,14.49,0,0,1-4.18,5.63A13.9,13.9,0,0,1,149,39.75a22.17,22.17,0,0,1-5,1.41A29.32,29.32,0,0,1,140.26,41.38Zm5.62-14.7a8.37,8.37,0,0,0-.06-1.5,26.38,26.38,0,0,0-1-3.48,14,14,0,0,0-3.07-5.38,2.49,2.49,0,0,0-1.93-.82,3.68,3.68,0,0,0-2.14.71c-.83.61-1.72,1.07-2.78.4a2.61,2.61,0,0,0-3.72.64,1.48,1.48,0,0,1-2.05.5,1.08,1.08,0,0,0-1.45.37,3.51,3.51,0,0,0-.57,2.87,18.16,18.16,0,0,0,.82,2.88,9.55,9.55,0,0,0,2,3.59,15.31,15.31,0,0,0,7.27,4.73,8.13,8.13,0,0,0,6-.61,4.08,4.08,0,0,0,1.57-1.16A4.94,4.94,0,0,0,145.88,26.68Z" fill="#fff"/><path d="M142.78,59.86a19.79,19.79,0,0,1,1.11-7.44,10,10,0,0,1,11.62-6.31,16,16,0,0,1,9.15,5.09,15.69,15.69,0,0,1,3.3,5.17,3.84,3.84,0,0,1,.25,1.29c0,1.05-.43,1.69-1.73,2a6.63,6.63,0,0,1-5.89-1.18,11.92,11.92,0,0,0-2.92-2,5.11,5.11,0,0,0-2-.46,3.05,3.05,0,0,0-2.69,1.93,15,15,0,0,0-1.22,6.87A16.59,16.59,0,0,0,153,70c.38,1,.9,2,1.36,2.92a7.84,7.84,0,0,0,2.49,3c1.47,1.1,4.48,1,5.26-1.6a8.92,8.92,0,0,0,.34-2.66c0-.72,0-1.45,0-2.17A3.07,3.07,0,0,1,165,66.13a12.13,12.13,0,0,1,2.26-.38c1.51-.06,1.94.54,2.3,1.75a23.85,23.85,0,0,1,.93,6.1,15.48,15.48,0,0,1-3.14,9.29A14.68,14.68,0,0,1,161,88a7.54,7.54,0,0,1-6.68,0,16,16,0,0,1-6.76-6.51A28.31,28.31,0,0,1,144.59,74a63.16,63.16,0,0,1-1.55-9A42.66,42.66,0,0,1,142.78,59.86Z" fill="#fff"/><path d="M67.89,54.44a10.21,10.21,0,0,1,3.88.52,9.34,9.34,0,0,1,3.8,2.73,20.6,20.6,0,0,1,2.63,4.46,61,61,0,0,0,3.59,6.21c1.33,2.14,2.78,4.2,4.27,6.23.86,1.17,1.86,2.22,2.74,3.37a11.77,11.77,0,0,1,2.84,7.32,21.43,21.43,0,0,1-.61,5.6,19,19,0,0,1-1.24,3.19,50.71,50.71,0,0,1-4.06,7.36,14.52,14.52,0,0,1-5.55,5.2A23.4,23.4,0,0,1,75,108.38a21.22,21.22,0,0,1-3.72.37A27.36,27.36,0,0,1,60.72,107a41.32,41.32,0,0,1-4.9-2.07,22,22,0,0,1-3.75-2.63,21.47,21.47,0,0,1-6.89-10.65,13.28,13.28,0,0,1,.65-9.32c1.45-3.34,3.24-6.53,4.67-9.88a67.75,67.75,0,0,0,2.78-7.73,19.33,19.33,0,0,1,3.4-6.91,8.17,8.17,0,0,1,3.94-2.47A21.27,21.27,0,0,1,67.89,54.44ZM66.17,72.28c-1.21-.26-2,.63-2.8,1.49A9.85,9.85,0,0,0,61,77.64a16.12,16.12,0,0,0-.89,4.22,1.65,1.65,0,0,0,1.13,1.72,1.34,1.34,0,0,1,.85,1.23,2,2,0,0,0,.1.84,7.63,7.63,0,0,0,2.05,2.77,3.53,3.53,0,0,0,2.25,1c.36,0,.63-.17.49-.51-.28-.7.2-.72.62-.79a3.92,3.92,0,0,0,2.8-1.73,3.6,3.6,0,0,1,2.76-1.77,1.18,1.18,0,0,0,1-.74,4.53,4.53,0,0,0,.18-3.22,27.07,27.07,0,0,0-1.51-3.7,9.11,9.11,0,0,0-2.06-2.84,14.85,14.85,0,0,0-2-1.15A4.48,4.48,0,0,0,66.17,72.28Z" fill="#fff"/><path d="M121.58,45.87a19.38,19.38,0,0,1,3.23.1,7.74,7.74,0,0,1,4.33,2.54,23,23,0,0,1,3.86,6,70.28,70.28,0,0,1,2.91,7.41c.57,1.79,1.23,3.55,1.89,5.31s1.13,3.74,1.64,5.62a68.93,68.93,0,0,1,1.63,8.31,45.93,45.93,0,0,1,.61,5.48,23.79,23.79,0,0,1,0,3.68,4.87,4.87,0,0,1-2.89,4,8.73,8.73,0,0,0-3.81,2.9,3.66,3.66,0,0,1-1.78,1.4c-1.44.51-2.19.14-2.68-1.3a18.17,18.17,0,0,1-.84-4.63c-.18-2.23-.46-4.44-.84-6.65-.43-2.51-.9-5-1.42-7.49-.39-1.82-.89-3.62-1.36-5.42s-1-3.77-1.58-5.62a61.82,61.82,0,0,0-2.44-6.31c-.94-2-1.88-4.06-2.93-6a43.69,43.69,0,0,1-2.19-4.71,7.59,7.59,0,0,1-.56-2.75,1.31,1.31,0,0,1,.92-1.43,6.63,6.63,0,0,1,2-.44Z" fill="#fff"/></svg>