<svg xmlns="http://www.w3.org/2000/svg" width="250" height="93" viewBox="0 0 250 93"><path d="M48.91 17.64c-.35 4.61-.6 9.09-.78 13.56l-.37.07c-.69-1.51-1.31-2.92-2-4.37C45.24 25.63 44 23 42 18.81L36 6.39 24.81 8.28 23.12 22l-.85 6.88-.36 3.41-.31 3.4-.42.07c-.81-2.16-1.59-4.23-2.44-6.28l-2.57-6.3-5.26-12.55L0 12.48l14.44 32.41 15.49-2.61 1.25-11.14c.25-1.87.45-3.68.64-5.54 0-.16.1-1.22.21-2.81.08-1 .19-2.22.23-2.75l.42-.07c1.46 3.41 2.91 6.82 4.48 10.16l4.6 10.15 15.67-2.65L60.79 2.2 49.87 4.05zM97.84 13.33C95.59 10.68 91.11 10 81 10.92l-16.37 1.32.51 6.85 16.91-1.33c4-.35 5.54.35 5.74 2.66a98.45 98.45 0 0 0-10.39.49c-9.09.8-12.68 3.23-12.22 8.42.49 5.59 3.95 7 13.21 6.5 8-.45 11-3.06 11-3.06l.12 1.83 11.39-1-1.41-15.55a9.69 9.69 0 0 0-1.65-4.72zM83.49 30.26c-5.16.45-6.35.09-6.54-2.07-.16-1.84 1.17-2.58 5.25-2.94 4.7-.41 6 0 6.21 1.79.19 2.15-.84 2.86-4.92 3.22zM124.62 8.68c-4.72.12-7 1.26-9 4.35h-.23l.44-3.88-11.74.29.58 24.06 11.75-.29-.61-12.12c0-1.65 0-1.91.25-2.53a5.1 5.1 0 0 1 4.22-2.56l10.88-.18v-7zM168.332 5.806L168.8.005l11.712.946-.47 5.801zM166.039 34.26l1.938-23.981 11.712.946-1.938 23.982zM215.45 17.49c-2.31-2-5.53-3-13.43-4-8.74-1.13-12-1.09-15.07.23s-4.27 3.45-4.95 8.76c-.76 5.83-.65 7.4.78 9.56 2 2.91 6.43 4.58 15.32 5.73 15 1.93 18.22.12 19.65-10.92.62-4.85.01-7.29-2.3-9.36zM206 25.77c-.77 5.93-1.82 6.84-7 6.16s-6-1.82-5.26-7.54c.65-5 1.85-5.89 7-5.23s5.85 1.76 5.26 6.61zM156.83 9.41c-4.71-.19-7.08.79-9.28 3.75h-.24l.7-3.84-11.74-.48-1 24 11.74.48.18-12.13c.07-1.65.08-1.91.42-2.51a5.1 5.1 0 0 1 4.39-2.23c.62 0 10.87.53 10.87.53l.45-7zM243.68 20.86c-4.61-1-7.11-.43-9.78 2.08l-.23-.05 1.33-3.64-11.48-2.48-5.05 23.38L230 42.63l2.24-11.85c.34-1.6.39-1.85.83-2.39a5.1 5.1 0 0 1 4.71-1.46l10.62 2.38 1.6-6.77zM46.58 77.73l-.4 2.27a11.35 11.35 0 0 0-.29 3.28 2.48 2.48 0 0 0 1.21 2 5.47 5.47 0 0 0 3 .18l.56 3.54-12.21 1.8-.52-3.52q3.49-.51 4.84-7.77l6.46-35 3.18-.47 16.48 31.57q2.44 4.68 4 5.48a4.68 4.68 0 0 0 2.81.61l.52 3.51-18.33 2.7-.52-3.51c1.65-.25 2.65-.58 3-1a1.86 1.86 0 0 0 .4-1.5A5.84 5.84 0 0 0 60 80l-.5-.93-1.52-3zm.63-3.81l9-1.32-6.53-12.16zM82.7 59.26l1.2 16.3c.19 2.61.69 4.27 1.51 5a4 4 0 0 0 3 .92l.22 2.9-10.63.74-.21-2.9a3.81 3.81 0 0 0 3.44-3 15.67 15.67 0 0 0 0-3.44l-1.34-18.11q-.39-5.41-4.46-5.12l-.21-2.9 9.59-.7L102 69.52l-1-13q-.42-5.81-4.34-5.52l-.21-2.91 10.19-.75.22 2.91a3.17 3.17 0 0 0-2 .88 3.68 3.68 0 0 0-1.13 2 12.27 12.27 0 0 0-.09 3.34l2 27.24-2.68.19zM128.32 69.2v-2.89l13.32-.08v2.88a3 3 0 0 0-2.07 1.18 7.89 7.89 0 0 0-.46 3.43v7.45h-1.09a31.62 31.62 0 0 0-7 1.38 23.69 23.69 0 0 1-5.94 1 12.46 12.46 0 0 1-10.53-5.35 20.6 20.6 0 0 1-4.09-12.6 21.48 21.48 0 0 1 4.14-13.35q4.2-5.59 10.45-5.64a12 12 0 0 1 9 4 12.84 12.84 0 0 0 .8-3.71h2.24l.33 12.43h-2.28q-2.22-9.06-8.5-9a6.22 6.22 0 0 0-5.64 3.41q-2 3.45-1.9 11.56a48 48 0 0 0 .63 8.65 8.62 8.62 0 0 0 2.27 4.58 6.48 6.48 0 0 0 8.14.31q1.53-1.26 1.5-5v-1.28q-.05-3.12-3.32-3.36zM156.87 66.79l-.62 8.76a14.33 14.33 0 0 0 0 3.3 2.24 2.24 0 0 0 1.15 1.38 7 7 0 0 0 3 .72 7.47 7.47 0 0 0 4.15-.57 7.23 7.23 0 0 0 2.56-2.86A18.38 18.38 0 0 0 169 73l2.35.17-1 11.63-26-1.86.21-2.9h.52c1.41.1 2.35-.17 2.83-.79a6.59 6.59 0 0 0 .88-3.32l1.5-21a6.3 6.3 0 0 0-.41-3.43c-.4-.67-1.29-1.06-2.67-1.16h-.52l.2-2.86 24.11 1.7-.24 9.21-2.35-.17a17.23 17.23 0 0 0-1.13-3.93 4.21 4.21 0 0 0-1.43-1.94 6.15 6.15 0 0 0-2.62-.6l-5.23-.38-.88 12.25 2.64.19a2.89 2.89 0 0 0 2.56-.71 7.14 7.14 0 0 0 1-3.46l2.36.17-.86 12-2.36-.17v-.5a7.17 7.17 0 0 0-.31-2.78c-.29-.85-1.13-1.32-2.54-1.42zM209.82 75.59l-2.21 14.27-33.69-4.81.5-3.52.54.08c1.86.27 3.12 0 3.79-.67a7.61 7.61 0 0 0 1.41-4l3.63-25.42c.28-2 .19-3.37-.29-4.23s-1.6-1.41-3.4-1.67l-.55-.07.51-3.52 19.82 2.83-.51 3.52-.73-.11c-1.86-.26-3.12 0-3.79.67a7.65 7.65 0 0 0-1.41 4l-3.5 24.53a15 15 0 0 0-.25 3.69 2.78 2.78 0 0 0 1.21 1.74 9.15 9.15 0 0 0 4 1.23q4.84.69 7.65-1.8a16.26 16.26 0 0 0 4.36-7.16z" fill="#fff"/></svg>