<svg xmlns="http://www.w3.org/2000/svg" viewBox="0 0 250 95"><path fill="#fff" d="M193.39 13.26l3.84 58.38h17.25l3.74-58.38h-24.83zM225.17 13.26l3.85 58.38h17.24L250 13.26h-24.83z"/><rect x="195.58" y="76.11" width="20.54" height="17.77" rx="5.31" ry="5.31" fill="#fff"/><rect x="227.32" y="76.11" width="20.54" height="17.77" rx="5.31" ry="5.31" fill="#fff"/><path d="M13.09 49.93v33.69h7.96v10.07H0V49.93h13.09zM53.9 76.24c0 5.06-.12 5.23-.36 7.34-.24 2.1-.98 4.03-2.24 5.77-1.25 1.74-2.95 3.08-5.08 4.01-2.14.93-4.62 1.4-7.46 1.4s-5.11-.44-7.26-1.32c-2.15-.88-3.87-2.2-5.18-3.96-1.31-1.76-2.08-3.68-2.33-5.75s-.37-2.29-.37-7.48v-5.08c0-5.06.12-8.64.36-10.74.24-2.1.98-4.03 2.24-5.77 1.25-1.74 2.95-3.08 5.08-4.01 2.13-.93 4.62-1.4 7.46-1.4 2.69 0 5.11.44 7.26 1.32 2.15.88 3.87 2.2 5.18 3.96 1.31 1.76 2.08 3.68 2.33 5.75s.37 5.7.37 10.88v5.08zM40.81 63.23c0-2.34-.13-3.84-.39-4.49-.26-.65-.79-.98-1.6-.98-.68 0-1.21.26-1.57.79-.36.53-.54 2.09-.54 4.68V79.8c0 2.92.12 4.73.36 5.41.24.68.79 1.03 1.66 1.03s1.46-.39 1.71-1.18c.25-.79.37-2.66.37-5.63V63.24zM89.39 49.93v27.06c0 3.81-.12 6.49-.37 8.04-.25 1.54-.98 3.13-2.21 4.76-1.22 1.63-2.83 2.86-4.83 3.7-2 .84-4.36 1.26-7.07 1.26-3.01 0-5.66-.5-7.96-1.49s-4.02-2.29-5.16-3.89c-1.14-1.6-1.81-3.28-2.02-5.05-.21-1.77-.31-2.09-.31-7.77V49.94h13.09v31.17c0 2.2.12 3.6.36 4.21.24.61.72.92 1.45.92.83 0 1.36-.34 1.6-1.01.24-.67.36-2.26.36-4.77V49.94h13.09zM95.2 49.93h9.79c6.32 0 10.6.29 12.83.87 2.23.58 3.92 1.53 5.08 2.86 1.16 1.33 1.89 2.8 2.18 4.43.29 1.63.44 4.82.44 9.59v11.05c0 4.52-.21 7.54-.64 9.06-.43 1.52-1.17 2.72-2.22 3.58-1.06.86-2.36 1.46-3.92 1.8s-3.9.51-7.03.51H95.2V49.92zm13.09 8.61v26.54c1.89 0 3.05-.38 3.48-1.13.44-.76.65-2.81.65-6.17V64.8c0-2.28-.07-3.74-.22-4.38-.15-.64-.48-1.11-.99-1.41-.52-.3-1.49-.45-2.92-.45zM131.52 49.93h21.83V60h-8.74v6.37h8.18v9.58h-8.18v7.66h9.61v10.07h-22.7V49.92zM159.05 49.71h9.27c6.18 0 10.36.24 12.55.72 2.19.48 7.42 1.79 7.42 10.08 0 3.92-.49 6.55-1.46 7.9-.97 1.35-2.89 2.16-5.75 2.43 2.59.64 4.33 1.5 5.22 2.58.89 1.08 1.45 2.07 1.66 2.97.22.9.33-.02.33 4.04v13.28h-12.16V76.98c0-2.69-2.18-2.56-3.98-2.56v19.29h-13.09V49.72zm13.09 8.61v8.25c1.47 0 2.5-.2 3.09-.61s.89-1.71.89-3.93v.18c0-1.6-.29-2.64-.86-3.14-.57-.5-1.61-.75-3.12-.75z" fill="#fff"/><path d="M32.2 35.95c-.95-7.02-9.4-12.54-14.31-17-2.04-1.86-7.21-5.71-3.89-8.57 2.76-2.37 6.04-.47 8.18 1.78.4.42 2.15 2.42 2.15 2.42l7.04-6.26s-1.5-1.86-2.02-2.42C24.48.58 16.4-1.62 10.01 2.11 6.53 4.15 3.97 7.9 3.7 11.99c-.56 8.65 8.54 14.58 14.19 19.67 3 2.7 8.22 7.48 2.8 10.96-3.65 2.34-7.58-.11-9.82-3.14-.25-.34-1.66-2.43-1.66-2.43l-8.05 5.12s2.43 3.66 3.02 4.4c.21.27 1 1.17 1.54 1.72h6.17a2.817 2.817 0 0 1 2.76-3.4 2.817 2.817 0 0 1 .44 5.6v2.27c3.63.26 7.35-.14 10.53-2 5.28-3.09 7.39-8.84 6.58-14.79zm-8.44-31.4c1.56 0 2.82 1.26 2.82 2.82s-1.26 2.82-2.82 2.82-2.82-1.26-2.82-2.82 1.26-2.82 2.82-2.82zm-8.63-2.42c1.56 0 2.82 1.26 2.82 2.82s-1.26 2.82-2.82 2.82-2.82-1.26-2.82-2.82 1.26-2.82 2.82-2.82zm-9.68 8.06c0-1.56 1.26-2.82 2.82-2.82s2.82 1.26 2.82 2.82-1.26 2.82-2.82 2.82-2.82-1.26-2.82-2.82zm4.93 11.17c-1.56 0-2.82-1.26-2.82-2.82s1.26-2.82 2.82-2.82 2.82 1.26 2.82 2.82-1.26 2.82-2.82 2.82zm6.17 5.99c-1.56 0-2.82-1.26-2.82-2.82s1.26-2.82 2.82-2.82 2.82 1.26 2.82 2.82-1.26 2.82-2.82 2.82zM7.21 45.87c-1.56 0-2.82-1.26-2.82-2.82s1.26-2.82 2.82-2.82 2.82 1.26 2.82 2.82-1.26 2.82-2.82 2.82zm15.68-12.89c-1.56 0-2.82-1.26-2.82-2.82s1.26-2.82 2.82-2.82 2.82 1.26 2.82 2.82-1.26 2.82-2.82 2.82zm.3 16.26c-1.56 0-2.82-1.26-2.82-2.82s1.26-2.82 2.82-2.82 2.82 1.26 2.82 2.82-1.26 2.82-2.82 2.82zm3.39-8.47c-1.56 0-2.82-1.26-2.82-2.82s1.26-2.82 2.82-2.82 2.82 1.26 2.82 2.82-1.26 2.82-2.82 2.82zM36.94 47.15a2.817 2.817 0 0 1 2.51-4.1 2.817 2.817 0 0 1 2.43 4.25c.92.13 1.81.33 2.65.58V1.23h-9.52v46.16c.62-.11 1.26-.19 1.93-.24zm2.51-43.77c1.56 0 2.82 1.26 2.82 2.82s-1.26 2.82-2.82 2.82-2.82-1.26-2.82-2.82 1.26-2.82 2.82-2.82zm0 8.13c1.56 0 2.82 1.26 2.82 2.82s-1.26 2.82-2.82 2.82-2.82-1.26-2.82-2.82 1.26-2.82 2.82-2.82zm0 7.72c1.56 0 2.82 1.26 2.82 2.82s-1.26 2.82-2.82 2.82-2.82-1.26-2.82-2.82 1.26-2.82 2.82-2.82zm0 8.12c1.56 0 2.82 1.26 2.82 2.82s-1.26 2.82-2.82 2.82-2.82-1.26-2.82-2.82 1.26-2.82 2.82-2.82zm0 7.79c1.56 0 2.82 1.26 2.82 2.82s-1.26 2.82-2.82 2.82-2.82-1.26-2.82-2.82 1.26-2.82 2.82-2.82zM82.74 48.11a2.817 2.817 0 0 1 1.71-5.06 2.817 2.817 0 0 1 1.71 5.06h2.53V1.23h-9.64v32.83L58.28 1.23h-8.96v48.61c.76.54 1.44 1.17 2.04 1.87h5.82v-3.42h1.44V18.97L77.13 48.1h5.6zM53.9 3.38c1.56 0 2.82 1.26 2.82 2.82s-1.26 2.82-2.82 2.82-2.82-1.26-2.82-2.82 1.26-2.82 2.82-2.82zm0 8.13c1.56 0 2.82 1.26 2.82 2.82s-1.26 2.82-2.82 2.82-2.82-1.26-2.82-2.82 1.26-2.82 2.82-2.82zm0 7.72c1.56 0 2.82 1.26 2.82 2.82s-1.26 2.82-2.82 2.82-2.82-1.26-2.82-2.82 1.26-2.82 2.82-2.82zm0 8.12c1.56 0 2.82 1.26 2.82 2.82s-1.26 2.82-2.82 2.82-2.82-1.26-2.82-2.82 1.26-2.82 2.82-2.82zm0 7.79c1.56 0 2.82 1.26 2.82 2.82s-1.26 2.82-2.82 2.82-2.82-1.26-2.82-2.82 1.26-2.82 2.82-2.82zm.15 13.55c-1.56 0-2.82-1.26-2.82-2.82s1.26-2.82 2.82-2.82 2.82 1.26 2.82 2.82-1.26 2.82-2.82 2.82zM84.3 3.38c1.56 0 2.82 1.26 2.82 2.82s-1.26 2.82-2.82 2.82-2.82-1.26-2.82-2.82 1.26-2.82 2.82-2.82zm0 8.13c1.56 0 2.82 1.26 2.82 2.82s-1.26 2.82-2.82 2.82-2.82-1.26-2.82-2.82 1.26-2.82 2.82-2.82zm0 7.72c1.56 0 2.82 1.26 2.82 2.82s-1.26 2.82-2.82 2.82-2.82-1.26-2.82-2.82 1.26-2.82 2.82-2.82zm0 8.12c1.56 0 2.82 1.26 2.82 2.82s-1.26 2.82-2.82 2.82-2.82-1.26-2.82-2.82 1.26-2.82 2.82-2.82zm0 7.79c1.56 0 2.82 1.26 2.82 2.82s-1.26 2.82-2.82 2.82-2.82-1.26-2.82-2.82 1.26-2.82 2.82-2.82zm-26.39-22c0-1.56 1.26-2.82 2.82-2.82s2.82 1.26 2.82 2.82-1.26 2.82-2.82 2.82-2.82-1.26-2.82-2.82zm4.07 6.46c0-1.56 1.26-2.82 2.82-2.82s2.82 1.26 2.82 2.82-1.26 2.82-2.82 2.82-2.82-1.26-2.82-2.82zm4.3 6.46c0-1.56 1.26-2.82 2.82-2.82s2.82 1.26 2.82 2.82-1.26 2.82-2.82 2.82-2.82-1.26-2.82-2.82zm4.02 6.45c0-1.56 1.26-2.82 2.82-2.82s2.82 1.26 2.82 2.82-1.26 2.82-2.82 2.82-2.82-1.26-2.82-2.82zm6.94 3.48c1.56 0 2.82 1.26 2.82 2.82s-1.26 2.82-2.82 2.82-2.82-1.26-2.82-2.82 1.26-2.82 2.82-2.82zM143.04 26.57c-.02-.18-.05-.6-.05-.6h-24.74l.02 9.1h13.92c-.41 1.5-1.66 3.3-2.74 4.42-5.31 5.52-15.4 4.85-21.21.45-9.64-7.3-8.86-22.79 2.02-28.46 7.02-3.66 14.91-2.12 20.79 2.86.4.34 1.87 1.99 1.87 1.99l6.6-6.85s-.44-.5-.57-.63C132.4 1.94 124.44-.31 114.99.42c-10.29.79-19.65 9.02-22.13 18.94C90.2 30 94.08 41.95 103.12 48.19h1.87c1.43 0 2.76.01 3.99.04-.15-.34-.24-.72-.24-1.12 0-1.56 1.26-2.82 2.82-2.82a2.817 2.817 0 0 1 2.46 4.19c1.52.13 2.77.3 3.75.51-.18-.37-.29-.79-.29-1.23 0-1.56 1.26-2.82 2.82-2.82s2.82 1.26 2.82 2.82c0 1.14-.68 2.12-1.66 2.56.81.43 1.53.94 2.15 1.51.33.16.66.32.98.51 0 0 1.41-.41 2.02-.6.51-.15 3.3-1.26 3.69-1.44.04-.08-.02-1.93-.02-1.93l3.03-.09s2.43-2.07 2.77-2.44c4.36-4.69 7.84-12.78 6.96-19.27zM132.02 6.56c1.56 0 2.82 1.26 2.82 2.82s-1.26 2.82-2.82 2.82-2.82-1.26-2.82-2.82 1.26-2.82 2.82-2.82zm-8.04-4.02c1.56 0 2.82 1.26 2.82 2.82s-1.26 2.82-2.82 2.82-2.82-1.26-2.82-2.82 1.26-2.82 2.82-2.82zm-8.43-.42c1.56 0 2.82 1.26 2.82 2.82s-1.26 2.82-2.82 2.82-2.82-1.26-2.82-2.82 1.26-2.82 2.82-2.82zm-8.28 2.44c1.56 0 2.82 1.26 2.82 2.82s-1.26 2.82-2.82 2.82-2.82-1.26-2.82-2.82 1.26-2.82 2.82-2.82zm-6.35 5.49c1.56 0 2.82 1.26 2.82 2.82s-1.26 2.82-2.82 2.82-2.82-1.26-2.82-2.82 1.26-2.82 2.82-2.82zm-3.69 7.55c1.56 0 2.82 1.26 2.82 2.82s-1.26 2.82-2.82 2.82-2.82-1.26-2.82-2.82 1.26-2.82 2.82-2.82zm-3.69 11c0-1.56 1.26-2.82 2.82-2.82s2.82 1.26 2.82 2.82-1.26 2.82-2.82 2.82-2.82-1.26-2.82-2.82zm5.03 10.74c-1.56 0-2.82-1.26-2.82-2.82s1.26-2.82 2.82-2.82 2.82 1.26 2.82 2.82-1.26 2.82-2.82 2.82zm5.23 6.4c-1.56 0-2.82-1.26-2.82-2.82s1.26-2.82 2.82-2.82 2.82 1.26 2.82 2.82-1.26 2.82-2.82 2.82zm17.76-12.81c-1.56 0-2.82-1.26-2.82-2.82s1.26-2.82 2.82-2.82 2.82 1.26 2.82 2.82-1.26 2.82-2.82 2.82zm8.56 0c-1.56 0-2.82-1.26-2.82-2.82s1.26-2.82 2.82-2.82 2.82 1.26 2.82 2.82-1.26 2.82-2.82 2.82zm-1.42 15.25c-1.56 0-2.82-1.26-2.82-2.82s1.26-2.82 2.82-2.82 2.82 1.26 2.82 2.82-1.26 2.82-2.82 2.82zm6.15-6.09c-1.56 0-2.82-1.26-2.82-2.82s1.26-2.82 2.82-2.82 2.82 1.26 2.82 2.82-1.26 2.82-2.82 2.82zm2.82-9.16c-1.56 0-2.82-1.26-2.82-2.82s1.26-2.82 2.82-2.82 2.82 1.26 2.82 2.82-1.26 2.82-2.82 2.82zM157.68 50.9v-2.65h.67a1.989 1.989 0 0 1 1.82-2.79 1.989 1.989 0 0 1 1.82 2.79h1.21V16.41h-6.41c.19-.19.08 34.49.08 34.49h.81zm2.39-33.49c1.1 0 1.99.89 1.99 1.99s-.89 1.99-1.99 1.99-1.99-.89-1.99-1.99.89-1.99 1.99-1.99zm0 5.74c1.1 0 1.99.89 1.99 1.99s-.89 1.99-1.99 1.99-1.99-.89-1.99-1.99.89-1.99 1.99-1.99zm0 5.46c1.1 0 1.99.89 1.99 1.99s-.89 1.99-1.99 1.99-1.99-.89-1.99-1.99.89-1.99 1.99-1.99zm0 5.74c1.1 0 1.99.89 1.99 1.99s-.89 1.99-1.99 1.99-1.99-.89-1.99-1.99.89-1.99 1.99-1.99zm0 5.51c1.1 0 1.99.89 1.99 1.99s-.89 1.99-1.99 1.99-1.99-.89-1.99-1.99.89-1.99 1.99-1.99zM172.44 48.28c.69.02 1.34.03 1.95.06-.14-.27-.21-.57-.21-.89 0-1.1.89-1.99 1.99-1.99a1.989 1.989 0 0 1 1.66 3.09c.48.04.92.09 1.33.14V22.83h6.23v-6.41h-18.85v6.41h5.9v25.46zm9.69-30.87c1.1 0 1.99.89 1.99 1.99s-.89 1.99-1.99 1.99-1.99-.89-1.99-1.99.89-1.99 1.99-1.99zm-12.12 3.98c-1.1 0-1.99-.89-1.99-1.99s.89-1.99 1.99-1.99 1.99.89 1.99 1.99-.89 1.99-1.99 1.99zm6.06-3.98c1.1 0 1.99.89 1.99 1.99s-.89 1.99-1.99 1.99-1.99-.89-1.99-1.99.89-1.99 1.99-1.99zm0 5.74c1.1 0 1.99.89 1.99 1.99s-.89 1.99-1.99 1.99-1.99-.89-1.99-1.99.89-1.99 1.99-1.99zm0 5.46c1.1 0 1.99.89 1.99 1.99s-.89 1.99-1.99 1.99-1.99-.89-1.99-1.99.89-1.99 1.99-1.99zm0 5.74c1.1 0 1.99.89 1.99 1.99s-.89 1.99-1.99 1.99-1.99-.89-1.99-1.99.89-1.99 1.99-1.99zm0 5.51c1.1 0 1.99.89 1.99 1.99s-.89 1.99-1.99 1.99-1.99-.89-1.99-1.99.89-1.99 1.99-1.99z" fill="#fff"/></svg>