<svg xmlns="http://www.w3.org/2000/svg" width="250" height="127" viewBox="0 0 250 127"><path d="M12.41,50.54c-4.67,0-8.54,1.88-12.41,1,0,0,5.66,9.63,3.38,20.65S0,86.48,0,86.48s6.75-1.2,9.83.39c0,0-3.77-6.85-2.58-14.39,0,0,10.22,2.18,12.9-7.75S17.08,50.54,12.41,50.54Zm4.66,12.39C16.8,65.12,14,71.09,6.57,68.7c0,0-1.49-7.84,3.85-9.87S17.34,60.75,17.07,62.93Z" fill="#fff"/><path d="M28,64.08l-.17-2.42s-2.68,1.71-4.7.84a39.82,39.82,0,0,1,1.15,13.88c-.82,7.11-1.86,9.35-1.86,9.35h6.45S26,79.33,27.35,73.81s4.59-5.88,6.72-4.55l2.51-6.6S32.26,59.65,28,64.08Z" fill="#fff"/><path d="M56.92,67.63c-.6-4.37-6.29-6.07-10.12-6-12.08.32-11,14.06-9.94,18.71s5.9,6,9.94,6.12,8.59-.82,10.12-5.36S57.52,72,56.92,67.63ZM50.69,79.55c-3.34.22-8.15.55-9.95-1.75s-.44-8.36,3.61-8.54c6.72-.31,8.36.61,9.07,3.24S54,79.33,50.69,79.55Z" fill="#fff"/><path d="M167.84,68.12c-.6-4.38-6.28-6.08-10.11-6-12.08.32-11,14.07-9.95,18.71s5.91,6,9.95,6.12,8.58-.82,10.11-5.35S168.45,72.49,167.84,68.12ZM161.61,80c-3.33.22-8.14.55-9.94-1.75s-.44-8.35,3.6-8.54c6.73-.31,8.37.62,9.08,3.24S165,79.81,161.61,80Z" fill="#fff"/><path d="M107.66,106c-.6-4.38-6.28-6.08-10.11-6-12.08.32-11,14.06-10,18.71s5.91,6,10,6.12,8.58-.82,10.11-5.35S108.27,110.38,107.66,106Zm-6.23,11.91c-3.33.22-8.14.55-10-1.75s-.43-8.35,3.61-8.54c6.73-.31,8.37.62,9.08,3.24S104.77,117.7,101.43,117.92Z" fill="#fff"/><path d="M59.6,62.77S62.6,69,62,75.34a64.33,64.33,0,0,1-2,10.71h6.34s-3.12-6-2.08-11.26,4.3-8,6.45-3.17c2.73,6.13-.54,14.11-.54,14.11h5.19s-3.12-6.85-1.59-12,5.47-5.84,6.51-.32,1.15,7.66-.82,12.68h5.35s-2.24-3.33-2-10.33a72.92,72.92,0,0,1,.88-10.38s-2.85-5.74-9.57-.55c0,0-4.09-5.47-9.61.54l.1-2.93A12.94,12.94,0,0,1,59.6,62.77Z" fill="#fff"/><path d="M87.8,63h5.3a40.15,40.15,0,0,0-1.47,11.46A49.86,49.86,0,0,0,93.1,86.22l-5.95-.17a24.9,24.9,0,0,0,2.24-10.33A53.86,53.86,0,0,0,87.8,63Z" fill="#fff"/><path d="M90.53,54.62c3-.16,3.72,1.53,3.39,3.5s-1.86,2.24-3.39,2.24a2.9,2.9,0,0,1-3.06-2.62A2.93,2.93,0,0,1,90.53,54.62Z" fill="#fff"/><path d="M78.6,100.84h5.3a40.15,40.15,0,0,0-1.47,11.46,49.86,49.86,0,0,0,1.47,11.77l-6-.17a24.71,24.71,0,0,0,2.24-10.33A54.14,54.14,0,0,0,78.6,100.84Z" fill="#fff"/><path d="M81.33,92.47c3-.16,3.72,1.53,3.39,3.5s-1.86,2.24-3.39,2.24a2.9,2.9,0,0,1-3.06-2.62A2.93,2.93,0,0,1,81.33,92.47Z" fill="#fff"/><path d="M110.64,63.64S106.77,63.32,105,62s-5.9-.11-7.16,2-2.84,7.49,0,8.86,8.31,2,8.36,3.82-.87,3-3.72,2.74A43.37,43.37,0,0,1,95.84,78l.76,7.33s7,4.26,10.88,0,2.62-8.2,1-9.89-7-2.52-8-4.1.33-3.34,2.6-3.07a23.81,23.81,0,0,1,5.6,1.86S109.11,65,110.64,63.64Z" fill="#fff"/><path d="M140.17,101.77s-3.88-.32-5.63-1.64-5.9-.11-7.16,2-2.84,7.49,0,8.86,8.31,2,8.37,3.82-.88,3-3.72,2.74a43.62,43.62,0,0,1-6.67-1.43l.76,7.33s7,4.26,10.88,0,2.63-8.2,1-9.89-7-2.52-8-4.1.32-3.34,2.59-3.06a23.62,23.62,0,0,1,5.61,1.85S138.64,103.08,140.17,101.77Z" fill="#fff"/><path d="M181.55,101.77s-3.87-.32-5.62-1.64-5.9-.11-7.16,2-2.84,7.49,0,8.86,8.31,2,8.36,3.82-.87,3-3.71,2.74a43.31,43.31,0,0,1-6.67-1.43l.76,7.33s7,4.26,10.88,0,2.62-8.2,1-9.89-7.05-2.52-8-4.1.33-3.34,2.6-3.06a23.48,23.48,0,0,1,5.6,1.85S180,103.08,181.55,101.77Z" fill="#fff"/><path d="M204.89,63.64S201,63.32,199.26,62s-5.9-.11-7.16,2-2.84,7.49,0,8.86,8.31,2,8.37,3.82-.88,3-3.72,2.74A43.62,43.62,0,0,1,190.08,78l.77,7.33s7,4.26,10.87,0,2.63-8.2,1-9.89-7-2.52-8-4.1.32-3.34,2.59-3.07a24,24,0,0,1,5.61,1.86S203.36,65,204.89,63.64Z" fill="#fff"/><path d="M125.74,63.86,125.36,71s-3.07-2.52-6.57-1.75-4.26,5.46-3.17,8.31,6.89,4.32,10.72.71l.38,6.89s-6.23,3.66-9.73,1.47S111.31,81,112.4,73.26,115.9,59.93,125.74,63.86Z" fill="#fff"/><path d="M129.29,63.21h6s-4.43,8.3-1.53,14.43,5.74,2.61,6.12-1.59c.71-7.92-1.64-12.41-1.64-12.41l5.68-.43a30.73,30.73,0,0,0-1.64,13.11c.66,7.55,2.41,9.13,2.41,9.13l-3,1.85-1.42-2.83s-5.9,5.14-8.8,1.8-1.19-9.35-1-13.23A24.84,24.84,0,0,0,129.29,63.21Z" fill="#fff"/><path d="M172.56,63.21h5.95s-4.42,8.3-1.53,14.43,5.75,2.61,6.13-1.59c.71-7.92-1.64-12.41-1.64-12.41l5.68-.43a30.55,30.55,0,0,0-1.64,13.11c.66,7.55,2.41,9.13,2.41,9.13l-3,1.85-1.42-2.83s-5.91,5.14-8.8,1.8-1.19-9.35-1-13.23A24.74,24.74,0,0,0,172.56,63.21Z" fill="#fff"/><path d="M72.8,109.17a171,171,0,0,1,1.36-18.61s-3.43.9-6,0a18.28,18.28,0,0,1,1.23,7.11v6.46s-1.55-4-5.75-4.1-6.79,5.91-6.53,11.47,1,13.17,5.56,13.37,6.2-2,6.2-2l-.45,2.65s4.33-1.16,6.14,0A61.32,61.32,0,0,1,72.8,109.17ZM65,118.08c-4.46.86-6-3.09-5.94-6.32s2.11-5.24,4.2-5.3c4.11-.13,5.88,2.65,6,4.78S69.5,117.21,65,118.08Z" fill="#fff"/><path d="M248.19,109.5a171,171,0,0,1,1.36-18.62s-3.43.9-6,0A18.28,18.28,0,0,1,244.83,98v6.46s-1.55-4-5.76-4.1-7.39,6.86-7.13,12.42,1.64,12.22,6.16,12.42,6.21-2,6.21-2l-.45,2.65s4.33-1.16,6.14,0A61.28,61.28,0,0,1,248.19,109.5ZM241,118.86c-4.46.86-5.69-2.73-5.63-6s2.14-5.55,4.23-5.61c4.11-.13,5,3.49,5.09,5.63S245.43,118,241,118.86Z" fill="#fff"/><path d="M112.88,92.46a19.25,19.25,0,0,1,1,9l-2.2-.64v6.73l2.35-.92s-3.51,12.55-.28,16.1a6.25,6.25,0,0,0,7.43,1.32l-.71-7.59s-2.91,2.07-3.16-2.65a57.28,57.28,0,0,1,0-7.56l3.87,1.3v-7l-3.68,1s-.91-6.79,1.1-9.15A9.36,9.36,0,0,1,112.88,92.46Z" fill="#fff"/><path d="M213.06,101.34a25,25,0,0,1,1.79,10A47.67,47.67,0,0,1,213.06,125H219s-2.27-5.75-1.69-10.78,3.63-8.95,6-5.88,2.51,5.69,2.31,9a25,25,0,0,1-2,7.35l5.46-.2a38.28,38.28,0,0,1-.87-11.64c.48-6.62,1.64-9.47-1.94-11.55s-8.6,2.8-8.6,2.8l.29-3A15.39,15.39,0,0,1,213.06,101.34Z" fill="#fff"/><path d="M207.89,112.21c1.4-6.67.67-13.29-12.27-10.68l1.44,6.83s6.62-2.29,8.22.52-4.74,1.49-8.31,3.09-4.54,7.68-2,10.44,6,4.1,9.57,1.49l1.45,2.23,3.52-3S206.49,118.88,207.89,112.21Zm-9.28,6.33c-2.41-1-.29-5,1.89-5a20.91,20.91,0,0,0,5.12-.89C205.13,118.49,201,119.56,198.61,118.54Z" fill="#fff"/><path d="M185.47,91.59a47.87,47.87,0,0,1,1.33,18.71A137.09,137.09,0,0,1,184.35,125h7s-3.15-14.58-1.89-23.2,1.89-10.51,1.89-10.51S187.78,93.06,185.47,91.59Z" fill="#fff"/><path d="M64,16.4s4.07-6.79,11.75,1.4c0,0,3.87-15.62-16.65-6.85,0,0-.31-12.79-11.29-10.72,0,0,5.31,2.11,4.69,9.48,0,0-11-11.24-16.7,4.95,0,0,10.52-7.18,13.51,1.74,0,0-16.29-1.7-9.18,13,0,0,1.29-8.86,9.23-6.29,0,0-4.5,4.69,1.2,6.42,0,0-6,31.37-6,42s1.17,26.62,0,36a81.54,81.54,0,0,1-4.63,18s11.64-1.76,15.48,0A90.44,90.44,0,0,1,49.6,95.34c-.34-17.09-1.17-34.94.83-47.46s3.34-16,3.34-16,5.17.57,3.16-5.56c0,0,4.33,1.13,4.38,6.75,0,0,4.74-4-.26-10.41,0,0,7-2.73,8.2,7.68,0,0,7.52-11.3-5.21-13.93" fill="#fff"/><path d="M140.85,16.4s-4.07-6.79-11.75,1.4c0,0-3.87-15.62,16.65-6.85,0,0,.31-12.79,11.29-10.72,0,0-5.31,2.11-4.69,9.48,0,0,11-11.24,16.7,4.95,0,0-10.52-7.18-13.51,1.74,0,0,16.29-1.7,9.18,13,0,0-1.29-8.86-9.23-6.29,0,0,4.5,4.69-1.2,6.42,0,0,6,31.37,6,42s-1.17,26.62,0,36a81.54,81.54,0,0,0,4.63,18s-11.64-1.76-15.48,0a90.44,90.44,0,0,0,5.84-30.19c.34-17.09,1.17-34.94-.83-47.46s-3.34-16-3.34-16-5.17.57-3.16-5.56c0,0-4.33,1.13-4.38,6.75,0,0-4.74-4,.26-10.41,0,0-7-2.73-8.2,7.68,0,0-7.52-11.3,5.21-13.93" fill="#fff"/></svg>