<svg xmlns="http://www.w3.org/2000/svg" viewBox="0 0 260 106"><path d="M88.29 59.91c.49.68.84 1.3 1.05 1.88.29.78.31 2.78.33 3.05 1.1 1.55 1.26 5.54.97 7.49-.05.31-.23.51-.38.63-.27 1.35-1.27 3.83-1.44 7.01-.09 1.69-.29 3.42-1.11 4.96-.14.26-.58.62-.6.63-.09.49.12 4.13-.3 5.27-.41 1.12-2.9 4.61-3.21 5.18-.22.4-1.25 2.97-1.61 3.52-.31.49-1.68 2.48-4.84 2.68-.12.15-.31.33-.62.39-.68.12-5.62.1-6.27 0-.27-.04-.58-.31-.58-.31-.11.01-.65 0-.78-.03-.82-.22-5.72-3.72-6.01-3.97-.59-.5-1.82-2.07-2-2.28-.02.02-.84.93-1.12 1.1-.11.07-.24.11-.38.12-.11.12-.9.36-1.1.36-.48 0-.88-.12-1.23-.23-.19-.06-1.17-.23-1.17-.23s-.07-1.31-.07-1.35c-.15-.56-1.06-3.56-1.26-4.42-.11-.48-.24-2.49-.29-2.75-.1-.16-1.67-2.35-1.86-2.78-.39-.84-2.3-2.65-2.78-3.36-1.04-1.56-1.66-3.95-1.96-5.4-.15-.12-.33-.32-.38-.63-.26-1.77-.19-6.62 0-8.43.03-.32.21-.53.37-.66l.09-.62c0-.03 0-.05.01-.08a24.9 24.9 0 0 0-3.64 13.02c1.7 1.38 2.72 3.31 3.08 5.8v.1c.28 1.85.06 3.59-.6 5.17 4.18 8.67 13.29 14.57 24.28 14.57 15.17 0 26.89-11.37 26.89-25.63v-.14c0-7.96-3.62-14.98-9.45-19.62zM171.22 43.28l-4.03-.19 1.06 10.26 2.4.12.57-10.19z" fill="#fff"/><path d="M13.69 64.23L29.32 62c4.9-.7 8.15-.03 10.51 1.75 1.44 1.08 2.61 2.77 2.96 5.2v.1c.61 4.2-1.55 7.13-5.15 8.99 4.74.67 8.01 2.68 8.7 7.53v.1c.82 5.66-3.24 10.47-12.19 11.74l-15.42 2.2-5.04-35.38zm14.48 12.12c2.53-.36 3.62-1.39 3.4-2.96v-.1c-.24-1.57-1.62-2.25-4.15-1.89l-2.61.44.71 4.95 2.66-.44zm2.54 12.43c2.58-.37 3.74-1.62 3.53-3.13v-.1c-.23-1.52-1.65-2.4-4.22-2.03l-3.25.68.75 5.26 3.2-.67zM150.23 43.17v-.1c-.09-1.3-.38-2.41-.84-3.36l-.5 8.86c1.02-1.58 1.47-3.41 1.34-5.4z" fill="#fff"/><path d="M158.61 42.71l1.43-25.49-9.35-.56-1.21 21.53c.94 1.32 1.47 2.92 1.59 4.82v.1c.18 2.67-.6 5.05-2.26 6.97l-.13 2.26 21.96 1.13.57-10.2-12.61-.57zM184.12 55.47l7.5-.77-.03-.29-7.21-.94-.26 2z" fill="#fff"/><path fill="#fff" d="M183.54 53.36l.11-.84.84.11 7.01.91-.89-8.59-12.87 1.33-.4-3.86 11.35-1.17-.89-8.59-11.35 1.18-.37-3.61 12.62-1.3-1.01-9.76-22.73 2.35 2.15 20.72 4.15.19.85.04-.05.85-.57 10.2-.05.84-.84-.04-2.26-.12.3 2.87 14.61-1.51.29-2.2zM129.85 53.47l11.12 1.52-2.47 13.47 11.12-11.77 12.27 2.2-14.83 15.63 8.66 20.04-12.19-1.58L137 76.37l-2.23 14.92-10.84-2.03 5.92-35.79zM244.18 55.61L260 60.92l-17.59 27.43-7.75-3.42 9.52-29.32z"/><circle cx="235.23" cy="93.93" r="5.58" fill="#fff"/><path d="M208.38 65.54c.04.91.56 4.04 3.06 6.57.18-.69.32-1.41.42-2.19v-.1c.49-3.65-.28-6.42-2.13-8.83-.22-.28-.44-.55-.67-.82-.87 2.53-.69 4.82-.67 5.36zM46.34 85.57c-.3-2.07-1.06-3.62-2.21-4.77.12 3.13.8 6.1 1.95 8.82.38-1.24.48-2.57.28-3.95v-.1zM124.88 89.44l-.07-5.48-.88 5.3.95.18zM180.69 87.08l-13.73 1.42-.42-4.12 12.1-1.25-.95-9.16-12.1 1.25-.4-3.84 13.46-1.4-1.07-10.4-16.82 1.74-6.77 7.13 2.72 26.27.37.87-.29-.04.47 4.46 24.51-2.53-1.08-10.4zM153.34 62.09l.54 5.25 5.58-5.89-6.12.64zM237.02 85.97c1.95-4.07 1.38-8.89.87-10.99l-3.23 9.95 2.36 1.04z" fill="#fff"/><path d="M235.23 87.5c.29 0 .57.03.85.06.19-.28.38-.56.55-.84l-2.3-1.02-.7-.31.24-.73 3.57-10.99c-1.26-2.25-5.82-5.61-12.19-6.55-6.84-1.01-6.52-5.13-2.6-5.13 4.5 0 3.55 3.55 3.55 3.55h11.4s1.9-13.24-14.19-13.24-15.08 11.91-15.01 13.24c.06 1.33 1.14 7.47 8.04 9.44 6.9 1.96 10.39 2.41 10.51 4.75.13 2.34-2.41 2.79-3.42 2.79s-3.99-.06-3.99-4.24h-11.66s-1.33 14.32 16.15 14.32c1.93 0 3.6-.2 5.06-.56.81-2.62 3.26-4.53 6.14-4.53z" fill="#fff"/><path d="M235.46 88.36c-.08 0-.15-.01-.23-.01-2.31 0-4.29 1.4-5.14 3.4 2.39-.75 4.12-1.95 5.37-3.39zM180 87.15l-.23 1.76 1.13.15-.21-1.98-.69.07z" fill="#fff"/><path d="M207.01 78.58c0-.22.02-.35.02-.39l.07-.77h1.4c1.22-1.16 2.09-2.63 2.67-4.41-2.62-2.44-3.55-5.6-3.64-7.44v-.1c-.14-2.43.25-4.41.86-5.99-2.07-2.04-4.97-3.54-10.06-4.2l-13.96-1.82-4.27 32.82.5-.05.84-.09.09.84.23 2.18 8.36 1.09 1.32-10.13 2.77.36 4.64 11 11.42 1.49-5.96-13.12c1.01-.34 1.91-.76 2.7-1.27zm-6.2-9.43v.1c-.3 2.18-2.18 3.22-5.02 2.85l-3.25-.42.9-6.94 3.31.43c2.73.36 4.36 1.7 4.06 3.98zM124.89 90.3l-1.12-.21-.81-.15.14-.82 1.65-9.97-.23-17.35h-9.97v15.78L103.92 61.8h-9.58v3.48c2.76 4.18 4.25 9.08 4.25 14.25v.14c0 5.29-1.55 10.16-4.25 14.25v1.34h10.24V79l11.56 16.09h8.81l-.06-4.79zM129.01 53.33l.13-.81.81.11 8.71 1.19c8.01-.97 11.91-5.27 11.56-10.65v-.1c-.33-4.89-3.45-7.14-8.12-8.16 3.73-1.58 6.11-4.34 5.83-8.57v-.1c-.17-2.45-1.21-4.22-2.56-5.41-2.23-1.95-5.41-2.87-10.35-2.54l-15.75 1.04 2.35 35.66 7.19-.47.19-1.18zm9.13-11.2v.1c.11 1.53-1.15 2.69-3.74 2.86l-3.24.43-.35-5.3 3.29-.43c2.6-.17 3.94.81 4.04 2.34zm-5.72-14.62c2.55-.17 3.88.61 3.98 2.19v.1c.11 1.58-1.06 2.53-3.6 2.69l-2.68.24-.33-4.99 2.63-.24z" fill="#fff"/><path fill="#fff" d="M129.69 54.45l4.97-.32-4.81-.66-.16.98zM77.97 35.13c-.08-1.83-.4-3.71-.77-5.39l.77 5.39zM108.58 42.16v-.1c-.71-4.85-3.98-6.86-8.72-7.53 3.6-1.85 5.76-4.79 5.17-8.99v-.1c-.36-2.43-1.53-4.12-2.97-5.2-2.37-1.78-5.61-2.45-10.51-1.75l-7.22 1.03c0 .12-.02.25-.04.37-.36 1.73-2.24 3.73-4.14 3.73-.38 0-.76-.08-1.1-.23-.33.97-.7 1.85-1 2.54-.11.27-.22.51-.3.71 1.14 4.25 2.21 9.65.95 13.61l2.26 15.85 15.42-2.2c8.95-1.27 13.01-6.08 12.2-11.74zM87.02 28.33l2.61-.44c2.53-.36 3.91.32 4.14 1.89v.1c.24 1.57-.85 2.6-3.38 2.96l-2.66.44-.71-4.95zm5.91 16.93l-3.2.67-.75-5.26 3.25-.68c2.58-.37 3.99.51 4.21 2.03v.1c.23 1.52-.93 2.77-3.51 3.13z"/><path d="M108.58 42.16v-.1c-.35-2.33-1.28-4-2.68-5.18v13.03c2.2-2.1 3.1-4.81 2.68-7.74z" fill="#fff"/><path d="M105.9 20.25v5.5c.09.8.09 1.56 0 2.29v7.77c1.96 1.4 3.12 3.43 3.5 6.12v.1c.46 3.15-.46 5.99-2.66 8.23-.26.27-.54.52-.84.77v4.96h9.83V20.25h-9.83zM29.23 28.33c1.72-.46 2.33-4.08 2.45-5.63.02-.21-.24-.79.22-.44 2.59 2.01 3.96-.4 4.39-2.82.69.39.96.49 1.16-.35.35-1.5.3-3.05.81-4.67.2-.66.95-2.99 1.82-2.79 1.11.27 1.81 4.02 1.18 4.77-.53.63-1.71 1.42-2.35 2.09-.75.78-2.38 2.75-.42 3.21 1.5.36 2.96-2.31 3.39-3.47.18-.48.28-1.4.45-1.72.24-.48.91-1.11 1.24-1.64.42-.67.72-1.39.96-2.14 3.16 4.05 5.25-1.78 5.54-4.51l.98 2.66c-1.3 3.75-6.09 11.71-3.87 15.54.97 1.67 2.89 2.22 4.5 1.11 5.2-3.57 2.18-12.33.54-17.09.45-1.09 2.22-6.67 1.68-7.47-.16-.24-.58-.18-.73.11-.13.27-.27 2.42-.42 3.04-.08.34-.9 3.01-1.09 3.01-.42-1.35-1.07-2.64-1.44-4.01-.17-.64-.31-2.35-.56-2.77-.2-.34-.65-.3-.87 0-.2.28.28 2.24.32 2.74.19 2.03.03 5.95-1.58 7.39-1.28 1.15-1.79-.22-2.15-1.34-.29-.89-.44-2.01-.55-2.94-.07-.65 0-2.81-.16-3.19-.14-.35-.48-.52-.81-.32-.48.41-.2 3.42-.14 4.14.16 1.82.6 2.26-.13 4.18-.26.68-.66 1.58-1.17 2.02.22-1.44-.73-4.95-2.6-4.63-2.05.36-2.59 4.61-3.07 6.29-.24-.08-.27-.72-.26-.91.05-.89.6-2.43.79-3.41.47-2.42 1.97-9.59.78-11.57-.8-1.33-2.2-.86-3.05.16-2.25 2.66-.64 10.71-.03 13.97.36 1.9.96 2.97.41 4.98-.97 3.51-3.19 2.22-3.75-.62l-.37-.16c-.6.08-.51.58-.55 1.05-.12 1.7.14 3.04-.33 4.81-1.01 3.86-2.63 2.2-2.84-.75-.15-2.09.66-5.77 2.62-6.9 1.02-.59 1.18.69 1.59.81l.3-.07c.42-1.52-1.12-2.22-2.37-1.51-2.47 1.4-3.46 5.46-3.22 8.11.13 1.4.86 4.15 2.76 3.63zm9.36-7.62c-.12-1.34 1.69-2.05 2.41-3.06.22.74-1.83 3.68-2.41 3.06zm13.02-8.51c1.22 3.61 3.13 9.82.72 13.25-1.79 2.56-4.3 2.02-4.68-1.13-.34-2.79 2.28-8.42 3.43-11.11.07-.17.42-1.03.53-1.02zM35.16 3.23c.26-1.24 1.59-3.56 2.21-1.27.64 2.36-.6 8.43-1.16 10.97-.04.17-.21 1.14-.35 1.13-.4-3.37-1.42-7.47-.71-10.83zM21.41 25.65l-1.67.11c2.91-3.73 5.6-10.37 1.25-14.07C15.92 7.39 7.06 15 3.97 18.96c-2.51 3.21-5.68 9.48-2.87 13.32 1.59 2.17 4.37 1.78 6.05-.05.18-.19 1.34-1.84.5-1.8-.5.38-.69.97-1.19 1.39-2.13 1.8-4.36.76-5.1-1.75-1.29-4.38 3.28-10.86 6.38-13.64 3.34-3 10.81-8.02 13.84-1.97 1.7 3.39-1.04 9.84-3.81 12.03-.61.49-3.07 1.33-2.58 2.37.76 1.62 2.73-1.25 3.39-1.64 1.5-.9 4.27-.63 5.43.76 2.87 3.46.01 10.46-4.13 11.5-1.58.4-2.65-.72-2.42-2.31.37-2.55 3.63-5.07 5.57-6.54.13-.2.22-.61-.14-.59-.41.02-2.86 2-3.33 2.43-1.41 1.3-3.95 4.38-3.07 6.42 1.63 3.77 5.8.88 7.57-1.2 3.25-3.82 3.61-11.4-2.65-12.03z" fill="#fff"/><path d="M47.35 42.04l-2.04.12c3.08-3.85 5.88-11.25.58-14.57-4.76-2.99-12.38 3.18-15.4 6.62-2.62 2.98-5.77 8.34-4.67 12.44.79 2.96 3.3 4.62 6.05 2.71.44-.31 2.02-1.81 1.62-2.39l-.35-.15c-2.13 3.79-6.15 2.6-6.38-1.61-.19-3.5 2.39-7.81 4.63-10.38 3.24-3.71 12.18-10.84 15.8-3.97 1.81 3.44-1.3 10.48-4.37 12.4-.59.37-2.48.97-2.02 2.01.72 1.6 2.84-1.37 3.47-1.73 1.48-.85 4.2-.52 5.32.83 2.6 3.14.64 8.54-2.39 10.7-2.93 2.09-5.3.17-3.61-3 1.08-2.03 3.23-3.64 5.01-5.04.13-.2.22-.61-.14-.59-2.38 1.24-7.29 5.55-6.46 8.55.97 3.53 4.65 1.85 6.58.23 4.06-3.41 5.34-12-1.22-13.17zM84.57 16.08c.22-.43 1.09-2.51.6-2.81l-.56.06c-.32 1.55-.76 2.9-1.88 4.09-.72-1.6-2.89-2.16-3.52-3.71-.33-.79.04-1.67-.04-2.49-.96-.82-1.21-.05-1.31.85-.22 2.19.04 4.51-.06 6.89-.13 1.57-.33 2.51-.5 3.05-.11.37-1.13 3.12-1.34 3.1-.35-1.24-.81-2.45-1.07-3.72-.14-.69-.19-2.44-.37-2.89-.18-.44-.51-.83-.9-.35-.19.23.1 3.38.07 4.06-.08 1.68-.63 4.74-1.97 5.86-2.09 1.75-2.37-2.23-2.46-3.54-.05-.67.13-3.92.03-4.15-.11-.25-.64-.39-.83-.23-.35.29-.38 2.15-.39 2.66-.07 2.72.62 4.36-.68 7.03-.86 1.76-2.38 3.09-3.67.85-.54-.94-.2-.96-.04-1.8.61-3.29 2.21-10.87 1.3-13.89-.18-.59-.55-1.33-1.24-1.43-1.34-.19-2.03 1.67-2.31 2.68-.86 3.1-.69 8.28.07 11.4.45 1.86 1.06 2.33.59 4.34-.54 2.31-2.62 6.29-4.56 2.48.13-3.23 2.95-13.49 1.16-16.08-.99-1.43-2.34-.28-2.88.9-1.29 2.85-1.08 8.81-.44 11.88.39 1.87 1.19 2.9.73 4.84-.18.77-.8 2.51-1.35 3.05-1.96 1.92-2.42-.7-2.6-2.25-.15-1.35 0-2.7.02-4.05-1.13-1.25-1.17 1.33-1.19 2.05-.05 1.58.13 5.83 2.21 6.02 2.17.2 3.45-3.5 3.77-5.19 1.31 2.36 3.98 1.58 4.91-.68l1.19-3.41c1.13 2.13 3.67 1.53 4.64-.45l1.11-2.77c.49 1.25 1.68 1.78 2.88 1.04 1.78-1.1 2.17-3.5 2.78-5.3l.78 2.73c-1.55 3.5-6.87 11.19-5.14 14.99 1.21 2.66 3.53 2.67 5.59.9 3.94-3.38 1.9-11.86.73-16.15.31-.89 1.22-2.67 1.77-4.71.06-.17.11-.37.15-.6.19-.83.31-1.68.3-2.54.02-.2.03-.37.04-.48.08-1 .06-2.01.14-3.01.97 1.01 2.46 1.54 3.06 2.89-.05.76-4.68 2.29-2.63 3.91 1.41 1.11 3.49-.94 3.79-2.4.09-.46-.1-1.31-.07-1.4.04-.13 1.31-1.57 1.6-2.15zM56.76 32.44c-.49-1.24-.65-2.71-.77-4.04-.22-2.36-.25-6.05.5-8.29.2-.6.44-1.16 1.05-1.46.81.14.69 4.32.64 5.06-.17 2.86-.72 5.97-1.42 8.74zm5.99-4.02c-.83-3.44-1.23-7.27-.66-10.8.11-.66.58-3.05 1.4-3.06.17 0 .24.12.32.25.56.91.43 3.74.36 4.87-.19 2.91-.88 5.87-1.42 8.74zm13.22 12.19c-2.37 4.28-6 2.15-4.93-2.48.8-3.45 3.2-6.81 4.58-10.06.3.91.52 1.87.71 2.81.56 2.84 1.09 7.1-.36 9.72zm4.67-19.29c-.34.12-1.01.03-.85-.44.21-.62 1.73-1.13 2.16-1.74.24.87-.52 1.9-1.31 2.18zM13.05 19.25c.16-.57 1.02-2.4.83-2.76-.08-.11-.21-.23-.34-.26-.79-.13-1.36 1.94-1.54 2.55-1.21 4.05-1.94 13.91.27 17.56.44.73 1.08 1.28 1.53.27-1.59-2.69-1.87-5.93-1.84-8.99.02-2.64.36-5.83 1.09-8.37z" fill="#fff"/><path d="M38.84 34.94c.17-.56 1.21-2.14.26-2.31-.56-.1-.9.81-1.08 1.22-1.65 3.85-2.11 12.97-.91 16.97.29.96 1.14 3.67 2.35 2.25-1.7-2.7-1.95-6.12-1.91-9.23.04-2.87.44-6.16 1.29-8.9zM74.89 14.37c.17.16.51 1 .95.66.44-.34-1.04-2.53-1.88-2.26-.21.07-.31.28-.32.5-.02.4.93.8 1.25 1.1zM69.28 55.91h.32c0-.41-.32-.41-.32 0z" fill="#fff"/><path d="M87.29 68.87c.03-.89.16-1.52-.63-2.05l.63-.16c.17-.17-.98-2.39-1.26-2.53h.32c.46.46.17.78.95.63l.63.63-.32-1.74c-1.3-1.64-2.26-3.81-4.74-3.64l1.26-.95-1.74.32c-.25-.27-.44-.48-.79-.63l1.58-.63c-2.63.42-1.52-1.85-2.53-.63-.57.21-.23-1.38-.32-1.58l-.32.32-.32-.32c0-.21.22-1.36-.32-1.26-2.8-2.41-8.52-6.86-12.16-5.06-2.05-.16-4.56 1.84-6.32 2.85-.37.24-.49.79-1.11.63.09 1 5.47-.48 5.68 1.26l-2.05-.32-1.11.32c.99-.13 1.86.42 2.68.63l1.42 1.42-1.74-.47c-.68-.68-1.49-.64-2.37-.63l-.16-.32h-.47l.32.32v.95h.63c.15-.12-.67-.61 0-.63 1.01.51 2.43.99 2.53 2.21.2.02.46-.04.63 0v-.63h.16c.57.47 1.06 1.28 1.74 1.58l-.47-1.58c1.07.71 1.26 2.45 2.68 2.21v.63c.75-.28.98-.08 1.74 0 .61.07 1.28-.37 1.11.63-1.7 1.06-3.2.52-5.05.63.16-.52-.24-.59-.32-.79-.53-.92-.36-2.22-1.58-2.69 0 1.09.19.78.63 1.42.09.32.52 1.33.63 1.74-.82-.14-.42.5-1.42.32-1.15 1.05-1.61 1.16-1.42 2.85l.95.47c.27 1.35-.68 3.3.63 4.11.09.33-.07.88 0 1.26.02.13.49.28.32.79.51.17.67-.29.79-.32.44.08 2.51-.34 2.37.32l-3.16 1.11c2.05.11 3.68-.01 5.37 1.42-2.64-.37-5.47-.58-7.9.32v1.26c2.31.18 3.78-.67 6.16 0 .79.31 1.61-.02 2.21.63 1.1.2 3.27-.66 3.32-1.9l2.21-.95.47.95c1.38-1.09 3.89-1.3 5.53-.63l-.79-1.58-1.11-.47.95-.16c.32-2.19-1.09-4.9-2.21-6.8l.32-.16c.1.48.71.74.95 1.11.37.56 1.03 2.21 1.26 2.85.24.65.05 1.84.95 2.05-.1.36.39.34.63.32.26.09.85.16 1.11.32 1.37 1.27 1.5 1.07 1.42 2.85h-.32c-.16-.37-.81-.64-1.26-.63l.32-.79c-.31-.44-.81-.53-1.26-.79.07.03.63.98.95 1.11-.64.13-1.2.07-.95.95.15.55 1.11.52 1.58.47l-.63 1.58 2.53-.32.63-4.74-1.9-.95.63-.32zM69.92 54.96l.32 1.11-.63-.16v.63h-.32v-.63c-.77.1-1.15-.83-1.74-1.26-.45.11-.63-.42-.95-.63-.33.04-.51-.08-.47-.32.18.01.46-.01.63 0 .35.15.54.42.95.32v-.32c-.34.12-1.28-.41-1.26-.63.75-.1-.03-1.56 1.42-1.26.64.51 1.98 1.11 2.05 2.05.36.52 1.01.97.95 1.74l-.95-.63zm8.21 2.85h.32l-.95 1.9c.13-.64.31-1.32.63-1.9zm-2.53 1.58h-.32c-.07-.71.1-1.53 0-2.21h.32c.1.68-.07 1.51 0 2.21zm-2.84-1.11l-.63-2.37c1.37.69 1.34 2.07 1.26 3.48l-.63-1.11zm-.16 9.33c-1.28 1.02-3.07.51-4.58.63l1.11-.63 4.58-.32c.06.6-.7.24-1.11.32zm3.32 2.53c-.52-1.22 2.71-.42 3.47-.63l-3.47.63zm6.31-10.12l-1.58.32v.32h.63v.32c-1.02.24-1.27.82-2.21.63.33-.58.92-1.34 1.58-1.26v-.63h1.58v.32zM86.66 79.94l-.79.95-.32-.63c-.98 1.05-2.08 2.2-3.63 2.21-.17.91.24.49.47.63 1.86 1.65.89 4.28 1.11 6.48l-.63.79-.32-1.9-.63 2.21c-.99-.2-.31-1.54-1.11-1.9l-1.42 1.26c-.03.77-1.13 1.87-1.89 1.9v.63c-.59.19-1.36.11-1.74.63-.62.11-1.52-.03-2.21 0-.62.03-.5-.04-.47.63h5.21c.07 0 .31-.49.79-.32.14.64-.41 2.19-1.42 1.9-.68.74-2.15.53-3.16.63l-1.58.95c-.58-.45-1.69-.88-1.74-1.74-.46-.59-1.19-1.01-1.26-1.9 1.25-1.8-1.29-2.01-2.21-3.16.54-1.71 5.95-2.58 7.74-2.37 1.28.21 1.5-.45 2.53-.63.53-.09 2.57.12 2.68 0 .46-2.85-3.02-3.8-4.42-5.85-.34-.52-.62-1.62-.95-2.21-.3-.35-.8-.59-.63-1.11-.03-.03-.63.09-.79-.32-1.74.2-1.84 1.89-.79 3 .25 1.11-.62 1.19-.63 2.05-1.44-.13-2.1 0-1.89 1.58h2.21c.22-.22-.81-1.13.16-1.58.49-.23.57.24.47.63.51-.17.66.29.79.32.92.17 1.5-.33 2.37-.32v.95l1.58-.63c0 1.21-1.15 1.14-1.9.63l-.32 1.9c1.29-.28.27 1.15-.16 1.26-.87.24-2.72-.13-3.79 0-.14.02-.94.6-1.58.32l-1.74.63c-.27-.95.83-1.43.63-2.21.93.21.92-1.05 2.21-.63.06-.62-.72-.21-1.11-.32-.15-.04-.42-.5-.63-.63h-.32l-2.68 3.32-.16 2.69c-1.61-1.59-.62-3.55.47-5.06l-2.84-.32c.26.76-.48 1.53-.32 2.05.25.83.38 1.7.63 2.53.05.16.52.41.32.95 1.24 3.14 6.02 3.93 6.95 7.27.31.35.8.59.63 1.11.04.03.63-.09.79.32.62.19.83-.29.95-.32 2.21-1.06 5.43.46 6.16-1.11-.23-1.34.89-2.34.95-3.79 1.1-1.55 2.07-3.41 2.84-5.06v-4.58l.63.79.32 1.11c-.35-3.87 2.11-1.54 1.58-6.64zm-.95 2.84h-.63v-1.26h.63v1.26zM62.34 93.69c.17-1.34-1.61-2.31-1.26-3.64l1.58.63-.32-2.37c-.46-.58-1.03-.97-1.74-1.11-.58-.37-.99-1.49-1.74-1.26-.06-.06-.2-1.22-.63-1.42l-.32-1.74-.95.79c.05.92-.34 2.1.95 2.05-.27.96 1.33 1.02.95 2.21-.25.25-1.8-.43-1.9-.79-.07-.27.07-.68 0-.95-.11-.39-2.09-1.18-2.21-1.58.18-.96-1.19-1.91-.95-.32.04 1.13 2.1 2.74 2.84 3.79.08.15-.06.42 0 .47.41-.03.48-.05.79.32.49.02.61-.12.95.32.06 0 .53-.56 1.11-.32.73 1.83 1.4 3.85 2.53 5.53 1.59 1.82 1.04-.11.32-.63z" fill="#fff"/><path d="M76.23 79.15c1.59 2.93 3.2 2.12 5.53.79l1.42.63v.63c.37.37 1.52-1.11 1.9-1.42-.11-1.76.43-3.79-.79-5.22-.49-.15-.45.3-.47.32-.33.25-.69.44-.95.79l.32.79c-.16.13-1.61-.12-2.05 0-.76 1.01-1.12.52-2.37.32-1.39.37-1.18-1.45-2.21-.16l2.21.79s.37-.05.32.32c-.54.16-2.21-.41-2.21.32l3.47-.32-.79 1.26-3.32.16zM79.71 88.95c-.12-.4-.88-.44-1.11-.79h-.32c-.3.53-.83.21-1.26.32-.52.76-1.33-.09-1.9.95l-1.11-.63v.63c-.57.24-1.04-.32-1.11-.32-.08 0-.76.79-1.26 0h-.32c-.55.45-.46.41-.16.95l-.95-.32v.63c-.2-.03-.52.05-.63 0-.02 0 .04-.33-.16-.32l-.47.47c1.54.69 3.09 1.11 4.9.47 1.21.87 3.31-.69 4.42-.95 1.02.03 1.44.18 1.42-1.11zM64.39 83.73c.07.04.22-.04.32 0 .14.06.2.29.32.32.51.04 1.57.23 1.89-.32.7.02 1.22.11 1.42-.63 1.11 0 2.17-1.28 2.68-2.21.26-.42.02-.81.47-1.11-.49-.81-1.02-.09-1.26.47l-3 .95c-1.24.16-4.02-.64-3.79 1.26.2.45.51 1 .95 1.26zM49.7 75.51c.1-.51-.15-1.52 0-1.9.17.12.38-.67.63-.79-1.01-1.73-.66-3.41-.32-5.22.69-.05.12-1.31.32-1.74.36-.72 1.02-1.19 1.26-2.05h-.63l-.32-.63-.63 2.85c-.68.05-.14 1.28-.32 1.74-.09 1.98-1.42 4.64-.32 6.64.08.4-.28 1.17.32 1.11zM58.55 68.56c-1.71-.5-1.34 1.33-2.53.95v.32h.63l-.32.95.63.16-.63.79 1.89-.32c-.19-1.07.42-1.81.32-2.85zM56.81 72.35c-.7.34-1.76.5-1.74 1.58l1.11-.63.32.63c.63-.46 1.96-1.56 2.37-2.21-.96-.23-1.39.31-2.05.63zM77.81 91.48c.06-1.24-1.25.34-1.74.47-.59.16-1.56.23-2.21.32-.47.06-1.17-.27-.47.32l.32.32c.61.08.69-.3.79-.32.48-.08 1.13.1 1.58 0 .29-.13.97-.81 1.42-.63.03-.01.07-.38.32-.47zM58.55 76.46c-.08-.88-1.11.09-1.42 0-1.14-1.09-1.05.51-2.05.32v.63c-1.35-.31-.07 1.3-.95 1.74l.16.16c.49-.35.55-.68.47-1.26.86-.5 2.78-1.54 3.79-1.58zM65.34 79.31h1.42c-.28-2.85-3.89.18-1.42 0zM57.91 90.69c-.54-.08-.31.57-.32.95l-.32-1.58c-.13-.16-.82.49-.63 1.11.95.76.08 2.59 1.11 3.32.63.29.39-.62.79-.79l-.63-.47V90.7zM58.23 73.62c-.61-.16-.74.38-1.11.63-.61-.07-1.12.8-1.42 1.26.8-.09 1.49-.57 2.21-.63l.32-1.26zM53.34 59.39c.15-.08.41.06.47 0-.27-.72.83-.79.63-1.58-.49.5-1.7.69-1.58 1.42-.32.46-1.07.71-.95 1.42.16.18 1.18-1.13 1.42-1.26zM59.18 93.06v1.74c.2-1.02.89-1.7.63-2.85l-.63 1.11zM70.23 78.2c-.3-.33-.47-.58-.95-.47v.95c.47.1.65-.14.95-.47zM57.6 54.65h.95v.63h-.95z" fill="#fff"/><path fill="#fff" d="M58.55 54.02h.63v.63h-.63zM74.34 76.78v-.63c-.52-.17-.61.25-.79.32-.33.11-.79-.13-1.11.47l.16.16c.39-.53 1.1-.26 1.74-.32zM58.23 56.54h1.58v.32h-1.58zM54.12 68.4l-.32.47c.65.17.59-.3.63-.32.74-.35 1.71.1 2.05 0 .43-.13 1-.88 1.74-.63l-.79-.32.16-.63-2.53.32 1.11-.95h.63l1.11-.95c-.72.16-5.13.95-5.68 1.26v.32h.63l-1.26 1.26 1.26-.32-.16.63c.28-.53.87-.2 1.11-.32l.32.16zM80.65 75.51h-.15l-.48.48v.47h.63v-.95zM50.33 77.41c-.07-.4-.55-.89-.32-1.58l-.63.47c.53.3.21.83.32 1.26.05.22.31.14.32.16.08.17-.05.67 0 .95h.32c-.04-.41.07-.88 0-1.26zM52.55 82.15l-.63-.95-.32-1.26h-.63c-.15.52.2.56.32.79.31.61.48.57.63.79.33.51.42.75.79 1.26.09.06.47-.04.63.32l-.16-.95h-.63zM56.49 56.23c.36-.03.73 0 1.11 0v-.95c-.66-.23-.74.47-.95.63-.39.31-.78.7-1.26.63v.63c.46-.05.8-.83 1.11-.95zM88.23 68.87h.32v.95h-.32zM83.81 70.77v.32c.2.03.52-.05.63 0-.04-.02.01-.48-.63-.32z"/><path d="M62.97 58.76c-1.03-1.35.91-.13 1.26-.16l-3-2.05-1.11.32.32.63-2.84-.32.79.63 1.74.32c.1.51-.83.37-1.11.32-.12-.02-.2-.3-.32-.32-.43-.07-.96.05-1.42 0v.79c.29.47.85.49 1.26.79.01.01-.06.26.16.32h.79l-.63-.63c.03-.08-.06-.27.16-.32.49.07 1.13-.1 1.58 0 .5.52 1.34.81 2.05.95l-1.58-1.58c.66-.08 1.02 0 1.58.32.04.02-.01.48.63.32.06-.36-.3-.3-.32-.32zM58.23 62.87l.95.47c-.24-.53-.8-.39-.95-.47zM54.91 74.25l.16-.32c-.33-.02-.42.15-.16.32z" fill="#fff"/><path d="M57.91 61.92c1.03-.31 1.43.81 2.21 1.42.36.17 1.48-.38 1.11-.79-.33-.51-1.81-.71-2.21-1.26-.86-.19-2.22.14-3.16 0-.89.76-2.46 1.18-2.68 2.37-.35.45-1.05.72-.95 1.42 2.07-1.13 3.44-3.39 6-2.21.04-.47-.88-.54-1.26-.63v-.63c.19-.03.44-.02.63 0-.03.28.08.29.32.32zM68.02 59.39c0-.27.07-.7-.32-.63v.63h.32z" fill="#fff"/></svg>