<svg xmlns="http://www.w3.org/2000/svg" width="200" height="134" viewBox="0 0 200 134"><path d="M199.51,109.06c1.05-1.42.2-2.36-.58-3.57a25,25,0,0,1-1.94-4.7.72.72,0,0,1,.08-.51c.49-1-.08-1.51-.79-2.17a12.09,12.09,0,0,1-2.93-3.39c-1.14-2.38-2.29-4.64-4.63-6.1a1.65,1.65,0,0,1-.52-1.13,2.05,2.05,0,0,0-1.87-2c-2.28-.53-4.06-1.67-4.66-4.17-.09-.35-.88-.88-1.15-.78-1.37.5-2.4-.34-3.56-.69-.61-.19-.88-.39-.66-1.1a1.25,1.25,0,0,0-.26-1.11,18.9,18.9,0,0,0-3.12-1.47,1.81,1.81,0,0,0-1.48.12,3,3,0,0,1-2.83.28,5,5,0,0,0-2.87,1.5,1.47,1.47,0,0,0,0,.5c.11,1,.17,1.93.36,2.88a5,5,0,0,0,.69,2.11A24.3,24.3,0,0,0,169.3,86c-.17.76-.69,1.71-.42,2.1.87,1.23.12,2.16-.12,3.27s-1.68,2.21-.1,3.37c.08.06-.12.46-.16.71a15.77,15.77,0,0,0-.54,3.14c0,1.48.33,2.94-.82,4.18a1.7,1.7,0,0,0-.28,1c-.16,2.36-.28,4.72-.44,7.07a1.65,1.65,0,0,1-.31.82,4.62,4.62,0,0,0,0,5.72c.52.62.4,1-.22,1.48-.95.71-.88,1.39.12,2,.15.09.36.13.45.26.24.36.61.77.59,1.15s-.56.58-.93.7c-.61.2-1.28.21-1.91.38-1.54.43-2,1.15-1.92,2.73a2.76,2.76,0,0,1-.4,1.45,1.07,1.07,0,0,1-.93.1c-.54-.93-1.42-2-1.33-2.86a15.17,15.17,0,0,0-.21-3.51c-.36-3-.54-6-.69-9-.05-.93.32-1.87.33-2.81a20.21,20.21,0,0,0-.16-5.34,19.45,19.45,0,0,0-2.49-5.61c-1.61-2.52-.52-5.78-2.48-8.14-.13-.17,0-.51-.09-.76-.33-1.55-.66-3.1-1-4.64-.06-.27-.37-.47-.5-.74a8.28,8.28,0,0,1-1-2.37,6.13,6.13,0,0,0-4.18-4.9,1.57,1.57,0,0,1-1.26-2.13c.1-.31.21-.62.32-.92l-.35.22c-.71-.59-1.47-1.13-2.11-1.78-.81-.83-1.5-1.69-2.87-1.36-.87.21-1.8.17-2.66.39-.34.09-.62.55-.86.88s-.41,1-.77,1.18a1.71,1.71,0,0,0-.8,2.64,6.55,6.55,0,0,1,.8,1.75,2,2,0,0,0,1.35,1.71c.32.13.7,1,.57,1.22-.86,1.07-.31,2.83-1.82,3.57-.23.11-.27.71-.31,1.09,0,.64,0,1.3,0,2a1.62,1.62,0,0,1-1.54,1.75,1.48,1.48,0,0,0-1.06.71,5.92,5.92,0,0,0-.45,2.23c0,2-1.33,3.39-2.12,5-.53,1.1-1.35,1.82-2.72,1.33a.83.83,0,0,0-.63.09,12.29,12.29,0,0,0-3.21,2,3.61,3.61,0,0,0-.75,2.93c.35,1.12,1.52,2,2.23,3s1.82,2.25,2,3.49-.45,2.66-.74,4c0,.08-.12.14-.15.21-.46,1.48-.93,3-1.36,4.44a.85.85,0,0,0,.22.71c1,.92.54,1.74,0,2.65a1.89,1.89,0,0,0-.27,1.53,25.13,25.13,0,0,0,2.07,2.9c.26.34.74.59.84,1,.19.77.41,1.36,1.35,1.08a9.11,9.11,0,0,0,1.86-.73,5,5,0,0,0,1.33-1.19,8.09,8.09,0,0,0,1-1.79c.34-.78.5-1.62.85-2.39.57-1.24,1.29-2.42,1.83-3.68a16.38,16.38,0,0,0,1-3.07,4.84,4.84,0,0,0,.09-2.44c-.37-1-.37-1.63.58-2.18a1.65,1.65,0,0,0,.61-.65c.61-1.31,1.53-1.14,2.61-.66,1.36.61,2.75,1.19,4.16,1.69.39.14.91-.11,1.38-.1s.91,0,1,.24a13.78,13.78,0,0,1,1.09,3.12c.2,1.1,0,2.25.16,3.37a2,2,0,0,0,.64,1.3,1.08,1.08,0,0,1,.35,1.55,5.57,5.57,0,0,0-.25,1.59c-.05.43.07,1-.13,1.26-.62.91-.55,1.46.56,1.85.22.07.29.65.39,1,.47,1.56.92,3.13,1.42,4.68a1,1,0,0,0,.65.58c1.36.09,2.83.45,4.06.07,1.53-.47,2.88-1.58,4.6-2.59a12.71,12.71,0,0,1,1,1.36c.53.85,1.06,1.34,2.12.75a1.31,1.31,0,0,1,1.24.17c.73,1.28,1.88,1.37,3.13,1.36a2.9,2.9,0,0,1,1.26.28,5.09,5.09,0,0,0,4.64-.26,2.71,2.71,0,0,1,2.45-.05c.45.17,1.29.22,1.5-.05a2.85,2.85,0,0,1,3.36-1,1.6,1.6,0,0,0,1.14-.12,4.33,4.33,0,0,1,3.73-.75c.23.07.57-.34.89-.48,1.59-.68,3.21-1.31,4.78-2.06.47-.22,1.06-.69,1.13-1.12a2.45,2.45,0,0,1,1.34-2.07,2,2,0,0,0,.75-.85,19.86,19.86,0,0,0,2-4.69c.73-3.29,2.3-6.45,1.12-10A.77.77,0,0,1,199.51,109.06Zm-53.08-8.55c-.16.23-.48.59-.64.55a11.17,11.17,0,0,1-3.46-1.13c-1.4-.94-.45-5.05,1.09-5.71,1.38-.59,1.59.59,2.2,1.19C147.29,97.19,147.56,98.83,146.43,100.51Zm43.65,13.79c-.34.38-.2,1.16-.36,1.74s-.47,1.43-.71,2.15l-.4-.16a7.94,7.94,0,0,1-.78.85,11.27,11.27,0,0,1-1.44,1.05c-.36.21-.84.24-1.21.44-1.75.92-3.47,1.9-5.23,2.82a3,3,0,0,1-4.31-2,7.77,7.77,0,0,1-.11-3.82,15.74,15.74,0,0,1,1.63-4.19.69.69,0,0,0,0-.62c-.84-.81-.39-2-.76-2.79-1.44-2.88.09-5.4.49-8.06a4.75,4.75,0,0,0,0-1.72,2.21,2.21,0,0,1,.71-2.55,2.14,2.14,0,0,0,.52-1.56c0-.93-.82-2,.43-2.63a4.05,4.05,0,0,1,4.07,1c1.1,1.71,2.12,3.48,3.2,5.2a10.48,10.48,0,0,0,.93,1.07,3,3,0,0,1,.67.94c.52,1.8,1,3.63,1.48,5.44a4.9,4.9,0,0,0,.66,1.08c.33.53.66,1.06,1,1.59A3.63,3.63,0,0,1,190.08,114.3Z" fill="#fff"/><path d="M72.75,57.28c-.56-1.88-.32-4.17-2.65-5.15-.09,0-.16-.2-.21-.31-.56-1.44-1-2.92-1.68-4.32-1.34-3-2.71-6-4.17-8.89-.89-1.78-2.77-3-3.06-5.13,0-.18-.34-.4-.57-.48C59,32.49,59,31.35,59.29,30.24a1.18,1.18,0,0,0-.73-1.64A2.91,2.91,0,0,1,57,25.36,10.55,10.55,0,0,0,56.77,20a38.24,38.24,0,0,1-.64-4.31c-.12-.83-.38-1.49-1.5-1.33-.38.05-.83-.28-1.25-.42s-.77-.44-1.09-.36c-1.85.45-3.68,1-5.21,1.41a24.76,24.76,0,0,1-1,4.45c-1,2.35-.94,3.48,1.47,5.32a9.08,9.08,0,0,1,3,4.63.94.94,0,0,1-.15.74c-.59.75-.32,1.44,0,2.18a2.65,2.65,0,0,1,.29,1.23,3.38,3.38,0,0,0,2.34,3.64c.24.1.55.41.56.62,0,1.17-.07,2.34-.11,3.5l-.51.12c-.21-.48-.43-1-.64-1.45s-.26-1-.58-1.3c-1.15-1.1-2.37-2.13-3.59-3.15A2.65,2.65,0,0,0,47,34.9a2.45,2.45,0,0,1-2.27-2,1.47,1.47,0,0,0-.41-.78c-1.82-1.39-3.61-2.87-6.16-2.44a1.9,1.9,0,0,1-1.23-.25c-1-.62-4.31-.59-5.22.2a1.94,1.94,0,0,0-.75,1.26,44.58,44.58,0,0,0,.69,4.59c.05.27.42.52.7.72.81.58,1.62,1.15,2.46,1.68.69.44,1.36.78.92,1.83-.09.23.27.78.56,1a7.24,7.24,0,0,0,1.65,1,2.47,2.47,0,0,1,1.57,2.82c-.32,2.06.92,3.64,1.55,5.4.09.25.43.41.67.59A10.21,10.21,0,0,1,45.39,57c.31,1.54.91,3,1.34,4.54a3,3,0,0,1,0,1.08c-.05.78-.39,1.66-.13,2.32a20.62,20.62,0,0,0,2.08,3.87c1.06,1.6,1,2.14-.63,2.43.57,2.09,1.15,4.2,1.72,6.31l-.41.38c-.52-.21-1-.44-1.56-.64s-1.27-.46-1.92-.64a20.3,20.3,0,0,1-3-.82c-1-.48-1.77-1.69-3.2-1.22-.13,0-.36-.2-.54-.31a8.69,8.69,0,0,0-1.41-.81c-2-.73-3.18-4.07-2-5.87.23-.35.45-1.14.32-1.24-1.53-1.11-.84-3.09-1.84-4.45-.55-.74-.9-1.05-1.59-.51a16.81,16.81,0,0,0-1.75,1.73c-.47.49-.87.7-1.54.18-.95-.75-1.36-.49-1.51.76a2,2,0,0,1-2.55,1.79c-.42-.08-.88,0-1.28-.1a1.93,1.93,0,0,1-1.05-.57,8.55,8.55,0,0,0-5.37-3.6,3.75,3.75,0,0,1-2.42-1.57,2,2,0,0,0-1.59-.69,5.83,5.83,0,0,1-3.95-1c-.3-.17-.6-.45-.9-.47a4,4,0,0,1-2.93-1.72,3.2,3.2,0,0,0-3.34-.64C1.24,56.26-.32,60,.06,61.27c.32,1.08.72,2.14,1.06,3.21.29.89.8,1.44,1.82,1.25.8-.15,1.1.21,1.36,1,.68,2,1.49,3.87,2.27,5.8a1.67,1.67,0,0,0,.51.73c1.93,1.3,2.73,3.38,3.62,5.35a7.69,7.69,0,0,1,.36,2.65c0,.25-.21.54-.38.78A13.34,13.34,0,0,1,9.47,83.5c-.61.61-1.3,1.14-1.93,1.74-.26.25-.59.55-.63.87a.92.92,0,0,0,.54.75c.88.2.91.88,1.15,1.54s.61,1.29,1.08,1.43a37.69,37.69,0,0,0,4,.68,2.06,2.06,0,0,1,.89.4,8.11,8.11,0,0,1,1.3,1.32,2.15,2.15,0,0,1,.48,1.32c-.29,2.1.85,3.73,1.67,5.47a8.47,8.47,0,0,1,.47,1.58c.16.58.13,1.36.51,1.73a20,20,0,0,0,2.53,1.76c1.19.83,2.35,1.65,3.91.9.24-.11.6.09.89.05a2.2,2.2,0,0,0,1.08-.35,15.72,15.72,0,0,0,2.33-2.43,5.64,5.64,0,0,0,.86-2.38,9.86,9.86,0,0,0,0-3c-.17-1.08-.31-2.79-.95-3.06-2.81-1.16-2.59-3.81-3.3-5.94-.26-.78-.37-1.35-1.12-1.8a1.76,1.76,0,0,1-.72-2.45c.32-.75.41-1.59.75-2.32.23-.48.69-1.14,1.11-1.2a4.19,4.19,0,0,1,3.27.81c1.31,1,2.54,2.42,4.57,2a1.6,1.6,0,0,1,1.24.72,4.45,4.45,0,0,0,3.3,2.07c2.17.33,4.39.32,6.58.56,1.11.12,1.52-.31,1.82-1.32a2.86,2.86,0,0,1,1.29-1.7,1.35,1.35,0,0,0,.94-1.81,7,7,0,0,1,0-1.3l.54-.11a7.29,7.29,0,0,1,.62,1.41,2.65,2.65,0,0,0,2.07,2.08,6.3,6.3,0,0,0,4.53-.3c1-.44,1.29-.88,1-1.83A1.42,1.42,0,0,1,59,79.53c.21-.09.47-.63.41-.7-1.07-1.22-.61-2.72-.88-4.08a32.34,32.34,0,0,0-1.91-5.15c0-.11-.1-.31,0-.37,1.09-1.21-1.47-2.55.11-3.76,0,0-.39-.53-.52-.84a19.18,19.18,0,0,1-.77-2.16,19.49,19.49,0,0,1-.55-2.63A6,6,0,0,1,55,58.47c.48.08,1.24,0,1.38.27.6,1.08,1.69,1.09,2.6,1.52a14.56,14.56,0,0,1,2,1.41,4,4,0,0,0,1.06.57,17.93,17.93,0,0,1,2.68.74,5.82,5.82,0,0,0,3.42,1c.44-.06,1,.3,1.41.49s.82.54.93.44a3.58,3.58,0,0,0,.73-1.1,8.75,8.75,0,0,1,1.11-1.94c1.51-1.5,1.6-1.74.65-3.69A5.08,5.08,0,0,1,72.75,57.28Z" fill="#fff"/><path d="M125.69,45.63c.06-.05.06-.17.09-.25a32.72,32.72,0,0,1,1.51-3.78,1.89,1.89,0,0,0-.07-2.27c-.42-.54-.86-1.24-.1-1.67a4.91,4.91,0,0,1,2.6-.72c.86.07.56,1,.45,1.62a2.61,2.61,0,0,0,1.53,3.22,1.91,1.91,0,0,1,.92,1.16c.39,2.06.52,4.18,1,6.22a53.36,53.36,0,0,0,2,6c.41,1.1,1.09,2.11,1.54,3.2.3.71.64,1.13,1.45.82a4.59,4.59,0,0,1,3.53-.11c.87.35,1.22-.13,1-1a4.09,4.09,0,0,0-.41-.81,5.91,5.91,0,0,0,1.44-.64c.4-.34,1-.94.92-1.23a17.18,17.18,0,0,0-1.69-4c-.48-.78-1-1.33-.59-2.32a1.9,1.9,0,0,0-.08-1.48c-.77-1.26-.4-2.49-.19-3.77a5.22,5.22,0,0,0-.31-1.88c-.16-.68-.4-1.34-.55-2a10.08,10.08,0,0,0-.33-1.94c-1.29-2.8-1.2-4.6,1-6.44,1.35-1.13,2.19-2.68,3.44-3.75,2.31-2,1.92-5,3.36-7.27a1.32,1.32,0,0,0,.05-.77,29.78,29.78,0,0,1-.55-4.17,4.43,4.43,0,0,0-2.49-4.44,2.85,2.85,0,0,1-1.37-1.86,2.48,2.48,0,0,0-2.32-2.52c-1.84-.21-2.91-1.38-3.9-2.7a2.17,2.17,0,0,0-2.4-.87,4.45,4.45,0,0,1-1.66.09c-1.76-.36-3.5-.79-5.23-1.23a3,3,0,0,1-.83-.56c-.48-.33-1-.65-1.44-1-1.35-1-2.85-.31-4.27-.33a4.66,4.66,0,0,0-2.38.92c-.3.2-.12,1-.36,1.44A6.37,6.37,0,0,1,118.72,4c-.53.45-1.27.71-1.68,1.23a19,19,0,0,0-1.57,2.7,3.32,3.32,0,0,0,1.59,4.95,29.72,29.72,0,0,1,3.09,1.68,6,6,0,0,1,1.81,1.8,1.8,1.8,0,0,1-.2,1.66c-1,1.24-1.11,1.52-.13,2.76,1.28,1.61,1,3.21-.64,4.45-.33.24-.46.76-.69,1.15-.76,1.27-.26,3.14-2.23,4,1.61.88,1.1,2,.7,3.1-.17.49.06,1.11,0,1.67a19.5,19.5,0,0,1-.38,2.51c-.29,1.2-.62,2.4-1,3.58a4.05,4.05,0,0,1-.8,1.12,7.61,7.61,0,0,0-1.08,1.38,23.06,23.06,0,0,0-.92,2.81c-.19.65-.36,1.32-.51,2-.22,1-.43,2-.61,3-.08.48-.28,1.27-.06,1.44,1.31,1,2.06,2.7,3.87,3.07a13.71,13.71,0,0,1,1.88.5c1.06.39,1.65,0,1.64-1.07s.6-1.5,1.46-1.88a2.19,2.19,0,0,0,1-1C124.22,50.28,123.58,47.48,125.69,45.63ZM131,14.29c1.08-2.17,1.7-2.3,3.65-1a1.62,1.62,0,0,0,1.15.37c1.06-.31,1.56.13,1.85,1.06.06.2.12.48.27.58,1.86,1.15,1.62,3,1.44,4.7a2,2,0,0,1-1,1.23c-1.13.59-2.37.95-3.5,1.53-1.63.85-2.43.45-2.63-1.35a11.89,11.89,0,0,0-.65-2.05c-.09-.28-.26-.61-.18-.85a1.5,1.5,0,0,0-.57-1.81C129.69,15.82,130.76,15,131,14.29Z" fill="#fff"/><path d="M71.4,20.89h0Z" fill="#fff"/><path d="M71.4,20.89c-.06,0-.11,0,0,0Z" fill="#fff"/><path d="M80.35,55.53c1.11-.37,1.74-.09,1.54,1-.29,1.61.49,2.13,1.83,2.32.59.09,1.2.11,1.78.25a12.82,12.82,0,0,1,3.56,1,4.21,4.21,0,0,0,4.64.15c1.39-.8,2.76-1.7,4.52-1.25.19,0,.71-.34.71-.53,0-1.57,1.13-1.57,2.2-1.52a1.9,1.9,0,0,0,2-1.24A4.35,4.35,0,0,1,106,53a1.63,1.63,0,0,0,.79-.62c2-2.52,2.43-5.58,2.79-8.63.23-2-.29-4.09,1-5.89a1.17,1.17,0,0,0,.11-.63c0-1.72,0-3.45.07-5.18,0-.4.3-1.11.52-1.14,1.62-.2,2.31-2.38,4.22-1.92.18,0,.52-.41.74-.67a9.4,9.4,0,0,1,.68-.94c2-1.93,1.92-4.59-.33-6.15a3.8,3.8,0,0,0-1.43-.33c-.48-.1-1.1,0-1.43-.29-.75-.62-1.24-.35-1.78.22-.24.24-.55.41-.81.63-1,.84-1.93,1.68-2.88,2.54-.76.68-1.44,1.48-2.26,2.09-1.27,1-2.66,1.77-4,2.72a1.44,1.44,0,0,0-.55,1.09c.08.84-.46,1-1,1.29a35,35,0,0,0-3.46,2.22c-.88.66-1.53,1.77-2.49,2.17A7.43,7.43,0,0,0,90,40.2c-.33.95-.13,1.44.82,1.78a4.25,4.25,0,0,1,1.6,1c1.35,1.43,3.22,1.35,4.9,1.77.21.06.49-.15.72-.26l3.1-1.55.47.17a9.54,9.54,0,0,1-.36,1.72c-.5,1.22-1.08,2.42-1.68,3.6-.19.37-.47.85-.81,1-1.09.31-2.23.47-3.35.68-.66.12-1.48,0-2,.36-1.85,1.36-3.82,0-5.69.41a.28.28,0,0,1-.22-.11c-.73-1.46-1.46-2.91-2.17-4.38-.23-.47-.37-1-.61-1.47-1.05-2.1-2.53-4-2.14-6.65a10.2,10.2,0,0,0-.51-3.26,24,24,0,0,1-.58-3c-.06-1,.21-2.07.19-3.1,0-1.83,1.22-3.52.58-5.41,0-.13.1-.33.19-.48.53-.92,1.11-1.82,1.6-2.77.25-.48.62-1.15.47-1.55-.65-1.67.4-2.22,1.59-2.79A3.6,3.6,0,0,0,87.32,15c1.28-1.51,3.08-1.57,4.78-1.59a8.87,8.87,0,0,1,3.72.81c1,.45,1.66,1.53,2.61,2.08a8.45,8.45,0,0,0,2.92.92c.25,0,.6-.83,1-1.24s.55-.42.78-.68.56-.58.51-.82c-.28-1.43.59-3.19-1.21-4.21-.23-.13-.19-.65-.38-.92-.83-1.13-1.66-2.26-2.58-3.32-.17-.19-.77,0-1.13-.06a2.71,2.71,0,0,1-1.41-.64C95.67,3.77,94,3.56,92.6,5c-.53.53-.95.7-1.65.1a2.35,2.35,0,0,0-1.84-.51C88,4.87,87.11,5.74,86,6c-1.79.46-3.24,1.69-4.88,2.2a9.07,9.07,0,0,0-4.87,4c-1.31,1.93-1.83,4.38-2.69,6.61a1,1,0,0,0,0,.39c0,2.28-.07,2.36-2.15,1.63h0c-.36,1.16-.68,2.16-1,3.18a4.53,4.53,0,0,0-.26,1.48c.23,2.84-.34,5.71.71,8.54a65.84,65.84,0,0,1,1.74,7c.2.82.49,1.62.64,2.45.23,1.31.45,2.52,2,3a1.69,1.69,0,0,1,1,2.24,2.33,2.33,0,0,0,0,1.48c.92,1.72,1.93,3.39,3,5A1.23,1.23,0,0,0,80.35,55.53Z" fill="#fff"/><path d="M117.15,99.78a8.81,8.81,0,0,1,.73-3c1.14-2.05-.4-4.14-1.92-5.23a2.89,2.89,0,0,1-.83-.76c-.85-1.34-1.66-2.71-2.49-4.06a2.53,2.53,0,0,0-.37-.36c-.87-.84-1.71-1.7-2.6-2.51s-2-1.66-2.94-2.49c-.26-.22-.64-.4-.76-.68-.85-2-3-1.7-4.47-2.47a4.75,4.75,0,0,1-1.4-.72c-1.76-1.86-4.12-2.6-6.36-3.58-.18-.07-.43,0-.63,0a13.13,13.13,0,0,1-1.76-.38c-.92-.29-1.84-.93-2.74-.9a18.5,18.5,0,0,0-3.46.93,4.16,4.16,0,0,1-1.26-.07c-1.28-.09-2.57-.21-3.86-.23-.22,0-.45.47-.68.72l-1.81,2a3.35,3.35,0,0,0-.67.75c-.31.67,1.29,4.45,2,4.78.12,0,.28.06.36.14a25.44,25.44,0,0,1,3.39,3.67,15.68,15.68,0,0,1,1.24,4l-.62.28c.16.64.57,1.31.38,1.72-.78,1.69-.22,3.11.58,4.56a2.29,2.29,0,0,1,.28,1.08c0,1.19,0,2.37-.1,3.55,0,.38.05.85-.15,1.12-.72,1-.32,1.74.29,2.58a7.6,7.6,0,0,1,1.6,4.83,7.58,7.58,0,0,0,1.16,4.84,2.15,2.15,0,0,1-.6,3.09c-.59.45-1.16.9-1.76,1.33A1.09,1.09,0,0,0,84.6,120a3.11,3.11,0,0,1,.69,1.5c.08,2.92,2.35,4.25,5,4.32a3.45,3.45,0,0,1,2.93,1.37c.81,1.11,1.77,1.14,3,.58a3.56,3.56,0,0,1,2.34-.4,10.88,10.88,0,0,0,6.27,0,14,14,0,0,0,2.88-1.36,14.24,14.24,0,0,1,2-1c1-.31,1.87-.54,2.13-1.78.1-.53.7-.94,1.06-1.42,1-1.37,2.93-2.11,3-4.19a.91.91,0,0,1,.46-.6,2.4,2.4,0,0,0,1.18-2.45c-.16-1.91-.31-3.78.69-5.55.16-.27-.07-.75-.07-1.13,0-.77-.24-1.76.14-2.28,1.37-1.9.3-3.22-.75-4.64A1.8,1.8,0,0,1,117.15,99.78Zm-7.67,6.27a2,2,0,0,0-.47.89c-.22,2.28-.37,4.57-.6,6.86a1.51,1.51,0,0,1-.6,1,26.93,26.93,0,0,1-4.19,2.26c-1.82.7-3.64,1.58-5.76,1-1.17-.34-2-.72-2.06-2.08a3.1,3.1,0,0,0-.72-1.74,6,6,0,0,1-1.55-5,2.66,2.66,0,0,0-.6-1.73c-.83-1.12-1-2.16-.07-3.15a2,2,0,0,0,.21-2.68,6.29,6.29,0,0,1-.41-2.32,79.36,79.36,0,0,0-.81-8.89,17.1,17.1,0,0,1,.07-4.24,1.74,1.74,0,0,1,2.51-1.43,19.36,19.36,0,0,0,2.14.6,1.42,1.42,0,0,1,.36.14l4.54,3.5A2.25,2.25,0,0,0,104,90.78c.25,0,.56.56.79.9.56.85,1.14,1.69,1.62,2.58a4,4,0,0,1,.7,1.95,4.91,4.91,0,0,0,1.65,4.41,1.42,1.42,0,0,1,.18,1.34c-.42.72-.18,1.05.35,1.51C110.25,104.31,110.26,105,109.48,106.05Z" fill="#fff"/><path d="M154.72,62.47c1.68.6,3.57,1.11,5.14-.51a.92.92,0,0,1,.62-.15,1.85,1.85,0,0,0,1.93-1.24,3,3,0,0,1,1-1.21c1.57-1,2.33-2.63,3.26-4.13.64-1,1.47-1.93,2.2-2.9.17-.23.42-.5.42-.76,0-1.87,1.23-3,2.35-4.28.64-.7,1.16-1.5,1.74-2.25,1-1.37,1.5-3.27,3.39-3.93.2-.08.49-.42.46-.58-.23-1.35,1-1.92,1.46-2.87,1.13-2.28,3.28-3.26,5.4-3.92a13.92,13.92,0,0,0,5.18-3.42A6.46,6.46,0,0,1,191,29.27c1.65-.7,3.61-.58,5-2a15.15,15.15,0,0,1,1.75-1.55,1.85,1.85,0,0,0,.67-2.29c-.25-.85-.3-1.77-.55-2.63a3.53,3.53,0,0,0-.85-1.68c-1.08-.92-2.19-.52-3.2.25a3.71,3.71,0,0,1-3,.81,2.21,2.21,0,0,0-1.27.14A48.69,48.69,0,0,0,183.85,23c-1.58.95-2.75,2.76-5.07,1.53-.06.78-.1,1.32-.16,2-1.11-.21-2.16-.41-3.21-.59s-1.2-.63-.84-1.64a4.43,4.43,0,0,0,.22-2.7,5.94,5.94,0,0,1-.64-3.07,7,7,0,0,0-.32-2.75c-.17-.64-.45-1.54-.94-1.76-1.85-.83-1.87-2.26-1.55-3.86.2-1-.2-1.44-1.11-1.71a1.45,1.45,0,0,1-.89-.71,1.51,1.51,0,0,0-1.75-1c-1.3.25-2.58.64-3.87,1-1.59.42-3,3-2.47,4.56.46,1.3,1,2.57,1.56,3.84.7,1.63-.26,3.66,1.26,5.08a4.58,4.58,0,0,0,.6,4.51c.09.13.05.34.06.51.08,1.37.15,2.74.26,4.11,0,.27.31.51.38.78a12.76,12.76,0,0,1,.41,1.91,11.13,11.13,0,0,1,0,2c0,.36-.21,1-.37,1-1.73.17-1.83,1.71-1.89,2.72-.11,2-1.4,3.12-2.72,4a13.07,13.07,0,0,0-3.67,4.27,9.86,9.86,0,0,1-2.33,2.1c-.57.49-1.38.82-1.73,1.43A38.63,38.63,0,0,0,151,55.07a4.82,4.82,0,0,0,.75,5.12A7.44,7.44,0,0,0,154.72,62.47Z" fill="#fff"/></svg>