<svg xmlns="http://www.w3.org/2000/svg" viewBox="0 0 352 84"><defs><clipPath id="a"><path d="M132.21 51.96v5.53h12.56c.06 0 .94.4 1.08.48 1.46.91 1.52 3.56.11 4.5-.15.1-1.11.55-1.19.55h-12.56v5.7h15.51c.98 0 2.14 1.25 2.3 2.2.3 1.8-.66 3.27-2.49 3.48-5.82.69-12.9-.46-18.85 0-1.8-.4-2.57-1.37-2.71-3.18-.55-7.12.43-14.94 0-22.13.18-1.7 1.35-2.71 3.03-2.86 5.95-.53 12.78.35 18.82.08 2.53.34 3.08 4.04.92 5.26-.12.07-.95.37-1.02.37h-15.51zm89.41 25.33c-2.02-.56-3.9-3.39-6.12-1.45s.19 4.72 2.19 5.71c4 1.96 10.74 1.62 13.98-1.67 4.64-4.73 1.8-16.79 2.61-22.99-.35-3.87-5.26-3.57-5.71-.67-.57 3.61 1.69 11.69-3.78 12.47-2.78.4-4.66-1.05-4.9-3.84-.2-2.38.55-7.69-.48-9.55s-4.46-1.63-5.15.46c-.52 1.57-.36 7.01-.26 8.9.18 3.32.9 6.71 4.1 8.36s7.93 1.19 10.46-1.53c.46 4.37-2.67 6.97-6.93 5.79zM71.47 51.96c.06 0 .94-.4 1.08-.48 2.03-1.27 1.39-4.86-1.12-5.18-5.84.41-12.78-.68-18.5-.04-1.63.18-2.8 1.37-2.87 3.02l.05 22.95c.51 2.69 4.36 3.27 5.75.98.07-.11.45-1.05.45-1.11v-8.38h12.04c.06 0 .9-.3 1.02-.37 1.69-.96 1.8-3.73.17-4.79-.15-.1-1.11-.55-1.18-.55H56.32v-6.05h15.16zm120.61 14.18c.76 0 1.81-1.01 2.07-1.73 1.37-3.72-2.05-8.06-5.34-9.53-8.79-3.93-17.88 3.24-15.24 12.78 1.99 7.18 12.07 9.54 17.63 5.22 1.41-1.1 2.83-3.22 1.14-4.76-2.23-2.03-4.15 1.1-6.17 1.64-3.11.83-6.27-.42-7.18-3.62h13.08zm-3.21-3.98h-9.88c1.28-4.38 8.75-4.52 9.88 0zm116.88 3.98c.76 0 1.81-1.01 2.07-1.73 1.37-3.72-2.05-8.06-5.34-9.53-8.79-3.93-17.88 3.24-15.24 12.78 1.99 7.18 12.07 9.54 17.63 5.22 1.41-1.1 2.83-3.22 1.14-4.76-2.23-2.03-4.15 1.1-6.17 1.64-3.11.83-6.27-.42-7.18-3.62h13.08zm-3.21-3.98h-9.88c1.28-4.38 8.75-4.52 9.88 0zM83.43 74.95c7.5.52 13.05-4.97 11.85-12.51-.95-5.98-6.37-9.06-12.15-8.52-13.05 1.21-12.78 20.13.3 21.03zm1.2-5.18c-6.53.22-7.22-10.07-.63-10.67 7.02-.64 7.46 10.45.63 10.67zm163.07 5.18c7.5.52 13.05-4.97 11.85-12.51-.95-5.98-6.37-9.06-12.15-8.52-13.05 1.21-12.78 20.13.3 21.03zm1.2-5.18c-6.53.22-7.22-10.07-.63-10.67 7.02-.64 7.46 10.45.63 10.67zm14.52-13.7l-.04 16.21c.79 3.38 5.35 3.15 5.72-.52.3-3.01-.77-8.45.9-10.86 1.48-2.14 5.34-2.5 6.95-.42 1.76 2.28.66 8.83 1 11.8s5.32 3.39 5.72-.52c.29-2.87.23-9.75-.53-12.43-1.5-5.27-7.39-6.6-12-4.56l-2.2 1.52c-.41-2.92-4.73-3.01-5.51-.22zM161.18 66.71c-1.51-3.34-3-7.39-4.68-10.54-.67-1.25-1.3-2.17-2.89-2.14-2.39.04-3.21 2.22-2.52 4.26 2.48 4.42 4.37 9.54 6.85 13.91 1.47 2.6 3.57 3.28 6.07 1.39l7.74-15.61c1.06-3.6-2.8-5.39-4.97-2.53-1.92 3.6-3.17 7.97-5.09 11.52-.09.16-.17.38-.38.4 0-.22-.05-.44-.14-.64zM99.15 56.07l-.03 16.37c.55 2.67 4.49 3.03 5.44.44 1.36-3.7-1.89-11.22 3.46-12.97 1.79-.58 4.78.18 5.25-2.36.88-4.71-4.97-4.34-7.35-2.06-.37.35-.64 1.03-1.1 1.32-.07-3.29-4.78-3.83-5.68-.74zm98.6 0l-.03 16.37c.55 2.67 4.49 3.03 5.44.44 1.36-3.7-1.89-11.22 3.46-12.97 1.79-.58 4.78.18 5.25-2.36.88-4.71-4.97-4.34-7.35-2.06-.37.35-.64 1.03-1.1 1.32-.07-3.29-4.78-3.83-5.68-.74z" fill="none"/></clipPath><clipPath id="b"><path d="M345.14 27.9c-2.52 2.72-7.23 3.2-10.46 1.53s-3.91-5.05-4.1-8.36c-.1-1.89-.26-7.33.26-8.91.69-2.09 4.11-2.35 5.15-.47s.27 7.17.48 9.55c.24 2.79 2.12 4.24 4.9 3.84 5.47-.79 3.22-8.87 3.78-12.48.45-2.89 5.36-3.2 5.72.67-.81 6.2 2.03 18.27-2.61 23-3.24 3.3-9.98 3.63-13.98 1.67-2.01-.98-4.5-3.69-2.2-5.71s4.1.89 6.12 1.45c4.26 1.18 7.4-1.43 6.93-5.8zM295.4 12.86c-2.7-2.77-6.73-3.22-10.27-1.86-7.7 2.96-7.8 16.36-.24 19.53 3.47 1.46 7.8 1.15 10.43-1.76.93 3.3 5.62 2.93 5.81-.6l-.05-24.52c-.54-3.24-5.22-2.98-5.68-.21v9.42zm-4.95 13.32c-6.65.2-7.1-10.18-.63-10.68 7.04-.54 7.34 10.48.63 10.68zM36.24 3.78c0-.13-.38-1.06-.48-1.25-1.19-2.07-4.79-1.5-5.23.91l-.02 25.07c.33 3.37 5.32 3.45 5.73-.18.34-3.06-.82-8.57.89-11.04 1.48-2.14 5.34-2.5 6.95-.42 1.77 2.28.66 8.83 1 11.8s5.25 3.34 5.7-.37c.33-2.75.23-9.99-.51-12.59-1.72-6.08-9.83-7.18-14.03-3.04V3.78zm270.7 9.96c-2.9 3.73-2.87 10.55.08 14.25 3.22 4.04 10.2 4.7 13.77.78.99 3.28 5.49 3 5.81-.6.44-4.89-.28-10.52-.09-15.49-.59-3.12-5.32-2.96-5.64.18-3.66-3.91-10.71-3.26-13.93.88zm8.99 12.44c-6.65.2-7.1-10.18-.63-10.68 7.04-.54 7.34 10.48.63 10.68zM72.9 22.54c.76 0 1.81-1.01 2.07-1.73 1.37-3.72-2.05-8.07-5.34-9.53-8.79-3.93-17.88 3.24-15.24 12.79 1.99 7.18 12.07 9.55 17.63 5.22 1.42-1.1 2.83-3.22 1.14-4.76-2.23-2.03-4.15 1.1-6.17 1.64-3.11.83-6.27-.42-7.18-3.62h13.08zm-3.21-3.98h-9.88c1.28-4.38 8.75-4.52 9.88 0zm42.55 3.98c.76 0 1.81-1.01 2.07-1.73 1.37-3.72-2.05-8.07-5.34-9.53-8.79-3.93-17.88 3.24-15.24 12.79 1.99 7.18 12.07 9.55 17.63 5.22 1.42-1.1 2.83-3.22 1.14-4.76-2.23-2.03-4.15 1.1-6.17 1.64-3.11.83-6.27-.42-7.18-3.62h13.08zm-3.21-3.98h-9.88c1.28-4.38 8.75-4.52 9.88 0zm-83.1-10.2c.23 0 1.35-.62 1.57-.86 1.29-1.36.67-4.53-1.47-4.77-7.17.27-15.01-.62-22.11-.08-2.29.17-3.2 1.44-2.84 3.71.13.85 1.35 2 2.16 2h8.23V28.5c0 .09.3.85.38 1.01 1.02 2 4.26 2.02 5.42.1.07-.11.45-1.05.45-1.11V8.36h8.23zm218.43 23c7.5.52 13.05-4.97 11.85-12.52-.95-5.98-6.37-9.06-12.15-8.52-13.05 1.21-12.78 20.14.3 21.04zm1.21-5.18c-6.53.22-7.22-10.08-.63-10.68 7.02-.64 7.46 10.45.63 10.68zM125.84 15.89c-.51 5.08 2.35 6.83 7.02 7.17 1.33.1 5.9-.47 5.82 1.64-.09 2.34-5.21 1.76-6.73 1.35-1.83-.49-4.62-2.94-6.08-.28-1.59 2.88 2.28 4.62 4.51 5.13 5.06 1.16 14.17.74 14.02-6.37-.1-4.72-3.69-5.83-7.72-6.14-1.08-.08-6.79.39-4.95-2.15 1.03-1.42 4.33-1.1 5.85-.65.96.29 1.89 1.07 2.77 1.21 2.96.48 4.15-2.93 1.94-4.7s-6.38-2.01-9.03-1.78c-3.2.29-7.05 1.96-7.42 5.57zM260.04 3.6v25.08c.67 3.42 5.59 3.02 5.72-.52-.49-7.71.66-16.25 0-23.86-.17-2.03-1.36-3.32-3.52-2.98-1.25.2-2 1.08-2.21 2.29zM78.57 12.47l-.03 16.38c.55 2.67 4.49 3.03 5.44.44 1.36-3.7-1.89-11.23 3.46-12.97 1.79-.58 4.78.18 5.25-2.37.88-4.71-4.97-4.34-7.35-2.06-.37.35-.64 1.03-1.1 1.32-.07-3.3-4.79-3.84-5.68-.74zm191.54.14c.43 5.04-.62 11.16-.02 16.07.37 3.06 5.25 3.37 5.7-.37.57-4.69-.39-10.4.02-15.2-.28-1.89-1.56-2.96-3.51-2.64-1.14.19-2 .99-2.19 2.13zM120.43 3.92c-.67 1.11-3.49 7.93-3.7 9.11-.41 2.29 2.32 3.54 3.91 1.82.69-.75 4.68-7.56 4.98-8.52.71-2.26-.88-4.2-3.29-3.8-.78.13-1.5.72-1.9 1.39zm152.35 3.94c4.72.12 4.47-7.42-.65-6.54-3.53.61-3.22 6.45.65 6.54zm-42.27-3.14c-.61-2.6-4.37-3.07-5.72-.84-.07.11-.45 1.05-.45 1.11v8.73h-13.86V4.99c0-.06-.38-1-.45-1.11-1.35-2.23-5.1-1.76-5.72.84.29 7.5.02 21.93.02 22.94s-.02 4.68-1.96 4.68c-2.56 0-3.22-1.07-3.83-1.6-.62-.53-3.1-2.55-4.64-1.19-2.07 1.82-.63 4.42-.63 4.42 1.14 1.71 4.34 4.61 9.1 4.61s8.2-4.14 8.2-10.3v-8.86h13.77v9.08c0 .92 1.44 2.3 2.38 2.47 2.35.4 3.7-.89 3.87-3.15.56-7.42-.37-15.6-.08-23.1zm-42.29 24.06c-.55 2.68-4.47 3.09-5.74.69-.09-.16-.42-1.04-.42-1.13v-5.27H168.2l.03 5.36c0 5.95-3.18 9.95-7.92 9.95s-7.69-2.8-8.8-4.46c0 0-1.39-2.51.61-4.27 1.49-1.31 3.89.64 4.48 1.15.6.51 1.23 1.55 3.71 1.55 1.87 0 1.89-3.55 1.89-4.52 0-.19-.35-10.14-.07-14.01.66-9.17 8.57-12.98 16.99-11.06 12.36 2.81 8.67 16.68 9.11 26.03zm-6.16-14.97c0-.44-.65-2.28-.9-2.74-2.9-5.27-12.97-3.57-12.97 3.08v3.2h13.86v-3.54z" fill="none"/></clipPath></defs><path d="M345.14 27.9c-2.52 2.72-7.23 3.2-10.46 1.53s-3.91-5.05-4.1-8.36c-.1-1.89-.26-7.33.26-8.91.69-2.09 4.11-2.35 5.15-.47s.27 7.17.48 9.55c.24 2.79 2.12 4.24 4.9 3.84 5.47-.79 3.22-8.87 3.78-12.48.45-2.89 5.36-3.2 5.72.67-.81 6.2 2.03 18.27-2.61 23-3.24 3.3-9.98 3.63-13.98 1.67-2.01-.98-4.5-3.69-2.2-5.71s4.1.89 6.12 1.45c4.26 1.18 7.4-1.43 6.93-5.8zM295.4 3.43c.46-2.77 5.13-3.03 5.68.21l.05 24.52c-.19 3.53-4.88 3.9-5.81.6-2.63 2.91-6.96 3.22-10.43 1.76-7.55-3.17-7.46-16.57.24-19.53 3.54-1.36 7.57-.91 10.27 1.86V3.43zm-5.58 12.06c-6.47.5-6.02 10.88.63 10.68s6.41-11.23-.63-10.68zM36.24 12.69c4.2-4.15 12.3-3.05 14.03 3.04.74 2.6.84 9.84.51 12.59-.45 3.71-5.35 3.44-5.7.37s.77-9.52-1-11.8c-1.61-2.09-5.46-1.72-6.95.42-1.71 2.46-.55 7.98-.89 11.04-.41 3.63-5.4 3.55-5.73.18l.02-25.07c.44-2.42 4.04-2.99 5.23-.91.11.19.48 1.11.48 1.25v8.9zM320.87 12.86c.32-3.14 5.05-3.3 5.64-.18-.19 4.97.53 10.6.09 15.49-.32 3.6-4.82 3.88-5.81.6-3.57 3.92-10.56 3.26-13.77-.78-2.94-3.7-2.98-10.52-.08-14.25 3.22-4.14 10.28-4.79 13.93-.88zm-5.57 2.63c-6.47.5-6.02 10.88.63 10.68s6.41-11.23-.63-10.68zM59.81 22.54c.91 3.2 4.07 4.45 7.18 3.62 2.03-.54 3.94-3.67 6.17-1.64 1.69 1.54.28 3.66-1.14 4.76-5.56 4.33-15.65 1.96-17.63-5.22-2.64-9.54 6.46-16.71 15.24-12.79 3.28 1.47 6.7 5.82 5.34 9.53-.27.72-1.32 1.73-2.07 1.73H59.82zm0-3.98h9.88c-1.13-4.52-8.6-4.38-9.88 0zM99.15 22.54c.91 3.2 4.07 4.45 7.18 3.62 2.03-.54 3.94-3.67 6.17-1.64 1.69 1.54.28 3.66-1.14 4.76-5.56 4.33-15.65 1.96-17.63-5.22-2.64-9.54 6.46-16.71 15.24-12.79 3.28 1.47 6.7 5.82 5.34 9.53-.27.72-1.32 1.73-2.07 1.73H99.16zm0-3.98h9.88c-1.13-4.52-8.6-4.38-9.88 0zM17.7 8.36V28.5c0 .06-.38 1-.45 1.11-1.16 1.91-4.4 1.9-5.42-.1-.08-.16-.38-.92-.38-1.01V8.36H3.23c-.8 0-2.02-1.15-2.16-2-.35-2.27.56-3.54 2.84-3.71 7.1-.53 14.94.35 22.11.08 2.14.25 2.77 3.42 1.47 4.77-.22.23-1.33.86-1.57.86h-8.23zM244.07 10.32c5.78-.53 11.2 2.54 12.15 8.52 1.2 7.55-4.35 13.03-11.85 12.52-13.08-.9-13.34-19.83-.3-21.04zm.86 5.18c-6.58.6-5.9 10.9.63 10.68s6.39-11.32-.63-10.68zM133.26 10.32c2.65-.24 6.89.05 9.03 1.78s1.02 5.18-1.94 4.7c-.88-.14-1.81-.93-2.77-1.21-1.51-.45-4.82-.77-5.85.65-1.85 2.55 3.87 2.07 4.95 2.15 4.03.31 7.62 1.42 7.72 6.14.15 7.11-8.96 7.53-14.02 6.37-2.23-.51-6.1-2.26-4.51-5.13 1.46-2.65 4.26-.21 6.08.28 1.52.41 6.65.99 6.73-1.35.08-2.11-4.49-1.54-5.82-1.64-4.66-.34-7.53-2.09-7.02-7.17.37-3.61 4.22-5.28 7.42-5.57zM262.25 1.31c2.16-.35 3.34.95 3.52 2.98.65 7.61-.5 16.15 0 23.86-.13 3.54-5.06 3.95-5.72.52V3.6c.21-1.21.97-2.09 2.21-2.29zM84.25 13.2c.45-.29.73-.97 1.1-1.32 2.38-2.28 8.23-2.65 7.35 2.06-.47 2.55-3.47 1.78-5.25 2.37-5.35 1.75-2.1 9.27-3.46 12.97-.95 2.59-4.89 2.23-5.44-.44l.03-16.38c.89-3.1 5.61-2.56 5.68.74zM272.3 10.48c1.95-.33 3.23.74 3.51 2.64-.41 4.8.55 10.51-.02 15.2-.45 3.74-5.33 3.43-5.7.37-.6-4.91.45-11.03.02-16.07.19-1.14 1.05-1.94 2.19-2.13zM122.33 2.53c2.41-.4 4 1.54 3.29 3.8-.3.96-4.29 7.77-4.98 8.52-1.59 1.72-4.32.47-3.91-1.82.21-1.18 3.03-7.99 3.7-9.11.4-.67 1.11-1.26 1.9-1.39zM272.13 1.32c5.12-.88 5.38 6.66.65 6.54-3.87-.1-4.18-5.93-.65-6.54zM230.51 4.72c-.61-2.6-4.37-3.07-5.72-.84-.07.11-.45 1.05-.45 1.11v8.73h-13.86V4.99c0-.06-.38-1-.45-1.11-1.35-2.23-5.1-1.76-5.72.84.29 7.5.02 21.93.02 22.94s-.02 4.68-1.96 4.68c-2.56 0-3.22-1.07-3.83-1.6-.62-.53-3.1-2.55-4.64-1.19-2.07 1.82-.63 4.42-.63 4.42 1.14 1.71 4.34 4.61 9.1 4.61s8.2-4.14 8.2-10.3v-8.86h13.77v9.08c0 .92 1.44 2.3 2.38 2.47 2.35.4 3.7-.89 3.87-3.15.56-7.42-.37-15.6-.08-23.1zM179.11 2.74c-8.42-1.92-16.33 1.89-16.99 11.06-.28 3.87.07 13.82.07 14.01 0 .97-.02 4.52-1.89 4.52-2.47 0-3.11-1.04-3.71-1.55-.6-.51-3-2.46-4.48-1.15-2 1.76-.61 4.27-.61 4.27 1.1 1.66 4.2 4.46 8.8 4.46s7.92-4 7.92-9.95l-.03-5.36h13.86v5.27c0 .09.34.97.42 1.13 1.27 2.39 5.19 1.98 5.74-.69-.44-9.35 3.26-23.22-9.11-26.03zm2.95 14.61H168.2v-3.2c0-6.65 10.07-8.35 12.97-3.08.25.46.9 2.3.9 2.74v3.54z" fill="none" stroke="#fff" stroke-miterlimit="10" stroke-width=".69"/><g clip-path="url(#a)" fill="#fff"><path d="M42.987 55.424l14.86-17.094 3.924 3.411-14.86 17.094zM44.472 85.216l34.444-43.225 4.067 3.241-34.444 43.225zM35.38 80.803l32.355-39.32 4.015 3.305-32.355 39.32zM54.696 80.805l32.355-39.32 4.015 3.304-32.355 39.32zM62.757 84.725l32.354-39.32 4.016 3.305-32.355 39.32zM75.26 84.713l32.354-39.32 4.015 3.305-32.354 39.32zM83.653 90.528l32.355-39.319 4.015 3.304-32.355 39.32zM104.694 79.59l32.355-39.319 4.015 3.304-32.354 39.32zM116.013 80.812l32.355-39.32 4.015 3.305-32.355 39.32zM123.029 87.37l32.355-39.32 4.015 3.305-32.355 39.319zM135.816 87.364l32.354-39.32 4.016 3.304-32.355 39.32zM171.71 61.82l-1.65-1.36-32.36 39.32 4.02 3.31 30.08-36.56c.03-1.56-.13-3.14-.09-4.7z"/><path d="M168.146 70.692l18.227-22.62 4.05 3.262-18.227 22.62zM196.08 56.24l-2.3-1.85-18.23 22.62 4.05 3.26 16.48-20.44v-3.59zM175.55 89.917l18.226-22.62 4.05 3.262-18.227 22.62z"/><path d="M197.41 65.44l-2.56-5.11 18.23-22.62 4.05 3.26-19.72 24.47zM194.241 75.995l23.397-29.037 4.049 3.263-23.397 29.037zM206.83 75.992l23.397-29.037 4.049 3.262-23.397 29.037zM235.68 55.96l-21.77 27.01 4.05 3.27 17.72-21.99v-8.29zM214.147 98.787l23.396-29.037 4.05 3.262-23.397 29.037zM238.71 69l-3.4-4.07 24.81-30.8 4.05 3.26L238.71 69z"/><path d="M238.481 75.852l23.397-29.037 4.049 3.263-23.397 29.037zM239.008 90.51l21.137-26.233 4.05 3.262-21.138 26.234z"/><path d="M255.698 77.678l23.397-29.037 4.049 3.262-23.397 29.037zM264.74 82.008l18.548-22.604 4.02 3.298-18.548 22.605zM263.859 98.02l23.396-29.038 4.05 3.263-23.397 29.037z"/><path d="M283.318 67.306l25.823-32.627 4.078 3.227-25.823 32.627zM287.401 75.993l23.397-29.037 4.05 3.263-23.397 29.037zM293.614 83.495l23.397-29.037 4.049 3.263-23.397 29.037zM259.369 57.35l12.3-13.82 3.884 3.458-12.3 13.82z"/></g><g clip-path="url(#b)" fill="#fff"><path d="M1.202 14.186L17.207-5.68l4.05 3.263L5.25 17.448zM-8.429 10.746L7.577-9.118l4.049 3.262L-4.38 14.01zM4.776 25.683L24.809.82l4.05 3.262L8.824 28.945z"/><path d="M16.476 18.574L36.51-6.29l4.049 3.263-20.034 24.863zM24.15 24.617L44.183-.246l4.05 3.262L28.198 27.88zM29.523 33.314L49.557 8.451l4.049 3.262-20.034 24.864zM54.263 33.656L74.296 8.793l4.05 3.263-20.034 24.863zM71.547 40.214l14.86-17.094 3.924 3.411-14.86 17.095zM90.51 26.711l20.034-24.863 4.049 3.262-20.034 24.864zM95.568 35.631l18.226-22.62 4.05 3.262-18.227 22.621zM117.16 15.65l-3.41-4.05 18.22-22.62 4.05 3.26-18.86 23.41zM118.604 22.535l18.227-22.62 4.049 3.262-18.227 22.621zM125.094 30.171l18.226-22.62 4.05 3.262-18.227 22.62zM132.168 36.905l18.227-22.62 4.049 3.262-18.227 22.62zM155.407 15.074l18.226-22.62 4.05 3.262-18.227 22.62zM170.04 27.996l18.227-22.62 4.049 3.262-18.227 22.62zM175.41 37.264l18.227-22.62 4.049 3.262-18.227 22.62zM198.298 15.863l18.227-22.62 4.049 3.262-18.227 22.621zM214.985 26.772l18.227-22.62 4.049 3.262-18.227 22.62zM211.999 45.932l18.226-22.62 4.05 3.262-18.227 22.62z"/><path d="M233.24 19.49l-1.67-6.21L247.42-6.4l4.05 3.27-18.23 22.62zM232.478 27.536l18.227-22.62 4.049 3.262-18.227 22.62z"/><path d="M252.423 10.192l18.226-22.62 4.05 3.262-18.227 22.62zM255.267 22.805l10.572-13.12 4.05 3.262-10.573 13.12z"/><path d="M269.37 21.52l-2.89-4.71 10.57-13.12 4.05 3.27-11.73 14.56zM258.46 42.51l-4.05-3.26 12.05-14.95 2.58 5.09-10.58 13.12zM293.8 42.51l-4.05-3.26 11.96-14.84 2.66 4.98-10.57 13.12zM302.463 25.621l15.68-19.459 4.049 3.263-15.68 19.459zM313.79 36.3l-4.05-3.26 17.2-21.35 2.53 5.15-15.68 19.46zM310.582 45.952l15.68-19.46 4.049 3.263-15.68 19.46z"/><path d="M326.258 12.116l15.679-19.459 4.049 3.263-15.68 19.459zM328.149 24.245l15.679-19.46 4.05 3.264-15.68 19.459zM329.909 37.704l20.899-25.938 4.05 3.263-20.9 25.937zM335.984 45.657l20.9-25.937 4.048 3.262-20.899 25.938zM268.73 37.88l-4.05-3.26 11.81-14.66 2.81 4.8-10.57 13.12z"/><path d="M274.655 29.364l25.071-31.116 4.05 3.262-25.072 31.116zM279.23 47.08l-4.05-3.26 26.58-32.98 2.54 5.13-25.07 31.11zM268.14 7.42L266.79.8l7.87-9.77 4.05 3.26-10.57 13.13zM238.302 36.22l16.96-21.048 4.049 3.263-16.96 21.048zM193.62 37.714l31.971-40.222 4.07 3.236-31.97 40.221zM149.894 38.441l30.544-38.8 4.086 3.217-30.544 38.8zM60.638 40.788l28.28-34.552 4.025 3.294-28.28 34.552zM30.51 47.83L64.015 5.636l4.072 3.233-33.504 42.196zM5.177 40.489l16.207-20.113 4.049 3.262L9.226 43.752z"/></g><path d="M132.21 51.96v5.53h12.56c.06 0 .94.4 1.08.48 1.46.91 1.52 3.56.11 4.5-.15.1-1.11.55-1.19.55h-12.56v5.7h15.51c.98 0 2.14 1.25 2.3 2.2.3 1.8-.66 3.27-2.49 3.48-5.82.69-12.9-.46-18.85 0-1.8-.4-2.57-1.37-2.71-3.18-.55-7.12.43-14.94 0-22.13.18-1.7 1.35-2.71 3.03-2.86 5.95-.53 12.78.35 18.82.08 2.53.34 3.08 4.04.92 5.26-.12.07-.95.37-1.02.37h-15.51zM228.55 71.5c-2.52 2.72-7.23 3.19-10.46 1.53s-3.91-5.04-4.1-8.36c-.1-1.89-.26-7.33.26-8.9.69-2.09 4.11-2.35 5.15-.46s.27 7.16.48 9.55c.24 2.79 2.12 4.24 4.9 3.84 5.47-.79 3.22-8.87 3.78-12.47.45-2.89 5.36-3.2 5.71.67-.81 6.2 2.03 18.27-2.61 22.99-3.24 3.3-9.98 3.63-13.98 1.67-2.01-.98-4.5-3.69-2.19-5.71s4.1.89 6.12 1.45c4.26 1.18 7.39-1.43 6.93-5.79zM56.31 51.96v6.05h12.04c.08 0 1.03.45 1.18.55 1.63 1.06 1.52 3.83-.17 4.79-.12.07-.95.37-1.02.37H56.3v8.38c0 .06-.38 1-.45 1.11-1.39 2.29-5.25 1.71-5.75-.98l-.05-22.95c.07-1.65 1.23-2.83 2.87-3.02 5.72-.64 12.66.45 18.5.04 2.51.32 3.15 3.91 1.12 5.18-.13.08-1.02.48-1.08.48H56.3zM178.99 66.14c.91 3.2 4.07 4.45 7.18 3.62 2.02-.54 3.94-3.67 6.17-1.64 1.69 1.54.28 3.66-1.14 4.76-5.56 4.32-15.65 1.96-17.63-5.22-2.64-9.54 6.45-16.71 15.24-12.78 3.28 1.47 6.7 5.82 5.34 9.53-.27.72-1.32 1.73-2.07 1.73H179zm0-3.98h9.88c-1.13-4.52-8.6-4.38-9.88 0zM292.66 66.14c.91 3.2 4.07 4.45 7.18 3.62 2.02-.54 3.94-3.67 6.17-1.64 1.69 1.54.28 3.66-1.14 4.76-5.56 4.32-15.65 1.96-17.63-5.22-2.64-9.54 6.45-16.71 15.24-12.78 3.28 1.47 6.7 5.82 5.34 9.53-.27.72-1.32 1.73-2.07 1.73h-13.08zm0-3.98h9.88c-1.13-4.52-8.6-4.38-9.88 0zM83.14 53.92c5.78-.53 11.2 2.54 12.15 8.52 1.2 7.55-4.35 13.03-11.85 12.51-13.08-.9-13.34-19.82-.3-21.03zM84 59.1c-6.58.6-5.9 10.89.63 10.67S91.02 58.46 84 59.1z" fill="none" stroke="#fff" stroke-miterlimit="10" stroke-width=".69"/><path d="M247.4 53.92c5.78-.53 11.2 2.54 12.15 8.52 1.2 7.55-4.35 13.03-11.85 12.51-13.08-.9-13.34-19.82-.3-21.03zm.87 5.18c-6.58.6-5.9 10.89.63 10.67s6.39-11.31-.63-10.67zM268.93 56.29l2.2-1.52c4.61-2.05 10.5-.72 12 4.56.76 2.68.82 9.57.53 12.43-.39 3.91-5.36 3.6-5.72.52s.77-9.51-1-11.8c-1.61-2.08-5.46-1.72-6.95.42-1.67 2.41-.59 7.85-.9 10.86-.37 3.67-4.93 3.9-5.72.52l.04-16.21c.78-2.79 5.1-2.7 5.51.22zM161.32 67.35c.21-.02.29-.24.38-.4 1.92-3.55 3.16-7.91 5.09-11.52 2.16-2.85 6.03-1.07 4.97 2.53l-7.74 15.61c-2.5 1.89-4.6 1.21-6.07-1.39-2.48-4.37-4.37-9.48-6.85-13.91-.69-2.04.13-4.22 2.52-4.26 1.59-.02 2.22.89 2.89 2.14 1.69 3.15 3.18 7.2 4.68 10.54.09.2.14.42.14.64zM104.83 56.8c.45-.29.73-.97 1.1-1.32 2.38-2.28 8.22-2.65 7.35 2.06-.47 2.55-3.47 1.78-5.25 2.36-5.35 1.75-2.1 9.27-3.46 12.97-.95 2.59-4.89 2.23-5.44-.44l.03-16.37c.89-3.1 5.61-2.56 5.68.74zM203.43 56.8c.45-.29.73-.97 1.1-1.32 2.38-2.28 8.22-2.65 7.35 2.06-.47 2.55-3.47 1.78-5.25 2.36-5.35 1.75-2.1 9.27-3.46 12.97-.95 2.59-4.89 2.23-5.44-.44l.03-16.37c.89-3.1 5.61-2.56 5.68.74z" fill="none" stroke="#fff" stroke-miterlimit="10" stroke-width=".69"/></svg>