<svg xmlns="http://www.w3.org/2000/svg" width="250" height="90" viewBox="0 0 250 90"><g fill="#fff"><path d="M22.31 19.62q-2.94 2.44-8.39 2.45H7v12H0V.64h14.37a11.62 11.62 0 0 1 7.92 2.58q3 2.59 3 8-.04 5.95-2.98 8.4zM17 7.56a5.62 5.62 0 0 0-3.72-1.11H7v9.85h6.3a5.33 5.33 0 0 0 3.7-1.2 4.89 4.89 0 0 0 1.33-3.82A4.59 4.59 0 0 0 17 7.56zM30.86.64h7v27.45h16.7v6h-23.7zM68.83.64h7.91L88.59 34.1H81l-2.21-6.88H66.47L64.2 34.1h-7.32zm-.46 20.82h8.57L72.71 8.29zM107.67.64h7.92L104.4 21.55V34.1h-7V21.55L85.83.64h8.24l7 14.57zM144.55 4.2a8.48 8.48 0 0 1 1.54 5.11 7.48 7.48 0 0 1-1.55 4.93 8.07 8.07 0 0 1-2.55 1.9 7.47 7.47 0 0 1 3.86 3 8.82 8.82 0 0 1 1.3 4.9 9.77 9.77 0 0 1-1.49 5.34 9.2 9.2 0 0 1-2.37 2.62 9.06 9.06 0 0 1-3.78 1.68 23.38 23.38 0 0 1-4.73.45H119.7V.64h16.18q6.12.09 8.67 3.56zm-18.17 2.25v7.38h8.13a6.72 6.72 0 0 0 3.54-.83 3.15 3.15 0 0 0 1.36-2.94 3 3 0 0 0-1.8-3.06 12.52 12.52 0 0 0-4-.52zm0 12.92v8.92h8.12a7.9 7.9 0 0 0 3.39-.59q2.21-1.1 2.2-4.18a3.58 3.58 0 0 0-2.09-3.58 8.23 8.23 0 0 0-3.34-.57zM162.74.64h7.92L182.5 34.1h-7.59l-2.21-6.88h-12.32l-2.27 6.88h-7.31zm-.46 20.82h8.57l-4.22-13.17zM190 4.13A13.81 13.81 0 0 1 200.24 0q8.35 0 12.22 5.54a12.14 12.14 0 0 1 2.29 6.24h-7A9.59 9.59 0 0 0 206 8.15a7.59 7.59 0 0 0-11.43.9q-2.16 3.07-2.16 8.71t2.28 8.43a7.13 7.13 0 0 0 5.78 2.8 6.57 6.57 0 0 0 5.49-2.4 10.52 10.52 0 0 0 1.73-3.88h7a15.13 15.13 0 0 1-4.59 8.9 13.4 13.4 0 0 1-9.48 3.39q-7.14 0-11.23-4.63t-4.09-12.73q0-8.76 4.7-13.51zM220.45.64h6.88v13.79L240.26.64h9l-13.7 13.76L250 34.1h-9l-10.3-14.61-3.37 3.42V34.1h-6.88zM167.16 56.44v5.92h-10V89.9h-7V62.36h-10.11v-5.92zM177.63 89.9h-6.95V56.44h6.95zM206.37 56.44h10.06V89.9h-6.52V67.27v-2.74-2.71l-6.29 28.08h-6.8l-6.3-28.08V89.9H184V56.44h10.18l6.09 26.31zM247.65 62.36h-17.71v7.11h16.26v5.81h-16.26v8.61h18.53v6h-25.36V56.44h24.54z"/></g></svg>