<svg xmlns="http://www.w3.org/2000/svg" width="220" height="108" viewBox="0 0 220 108"><path d="M19.91 0l-4.6 14.08 5 17.11h-8.24L8.83 17.82v13.37h-8V0h8v12.12L12.4 0zM29.45 0v31.19h-8V0zM31.85 0h6a36.67 36.67 0 0 1 7.84.54 6 6 0 0 1 3.11 1.77 5.57 5.57 0 0 1 1.33 2.75 41.44 41.44 0 0 1 .26 5.94v10.93a25.59 25.59 0 0 1-.39 5.61 4.23 4.23 0 0 1-1.36 2.22 5.67 5.67 0 0 1-2.4 1.11 20.7 20.7 0 0 1-4.29.32h-10.1zm8 5.34v20.52c1.15 0 1.86-.24 2.13-.71a10.64 10.64 0 0 0 .39-3.82V9.21a16.56 16.56 0 0 0-.13-2.72 1.25 1.25 0 0 0-.61-.87 3.81 3.81 0 0 0-1.77-.28zM71.94 0v31.19h-7.65L59.75 17v14.19h-7.29V0h7.29l4.89 14.05V0zM89.39 0L94 31.19h-8.22l-.43-5.6h-2.86l-.49 5.6h-8.27L77.82 0zm-4.25 20.06q-.6-5.31-1.22-13.1-1.22 9-1.53 13.1zM95.32 0h8.06a18.56 18.56 0 0 1 5 .52A5.66 5.66 0 0 1 111.06 2a5.11 5.11 0 0 1 1.19 2.38 21.47 21.47 0 0 1 .32 4.33v2.71a11.36 11.36 0 0 1-.57 4.38 4.22 4.22 0 0 1-2.23 2.1 10.44 10.44 0 0 1-4.25.73h-2.15v12.56h-8zm8 5.34v7.93h.59a1.84 1.84 0 0 0 1.53-.55 4.09 4.09 0 0 0 .43-2.28V7.9a3 3 0 0 0-.5-2.08 3.07 3.07 0 0 0-2.04-.48zM114.87 0h8.06a18.56 18.56 0 0 1 5 .52A5.68 5.68 0 0 1 130.6 2a5.22 5.22 0 0 1 1.2 2.38 21.64 21.64 0 0 1 .31 4.33v2.71a11.6 11.6 0 0 1-.6 4.36 4.24 4.24 0 0 1-2.24 2.1 10.4 10.4 0 0 1-4.25.73h-2.15v12.58h-8zm8 5.34v7.93h.59a1.81 1.81 0 0 0 1.53-.55 4 4 0 0 0 .43-2.28V7.9a3 3 0 0 0-.49-2.08 3.1 3.1 0 0 0-2.06-.48zM134.28 0h15v6.24h-7v5.92h6.63v5.93h-6.63V25h7.51v6.24h-15.51zM151.68 0h6a36.84 36.84 0 0 1 7.85.54 6 6 0 0 1 3.1 1.77A5.68 5.68 0 0 1 170 5.06a43.58 43.58 0 0 1 .26 5.94v10.93a25.59 25.59 0 0 1-.39 5.61 4.23 4.23 0 0 1-1.36 2.22 5.57 5.57 0 0 1-2.39 1.11 20.81 20.81 0 0 1-4.3.32h-10.1zm8 5.34v20.52c1.15 0 1.86-.24 2.13-.71a10.54 10.54 0 0 0 .4-3.82V9.21a16.14 16.14 0 0 0-.14-2.72 1.24 1.24 0 0 0-.6-.87 3.89 3.89 0 0 0-1.78-.28zM182 0h8a20.69 20.69 0 0 1 5.73.6 5.71 5.71 0 0 1 3.11 2.4c.8 1.22 1.2 3.17 1.2 5.87a6.33 6.33 0 0 1-.85 3.81 5.8 5.8 0 0 1-3.33 1.65 5.94 5.94 0 0 1 3.76 2.11 8.25 8.25 0 0 1 1 4.53v2.89a11.71 11.71 0 0 1-.71 4.68 3.86 3.86 0 0 1-2.28 2.08 22.69 22.69 0 0 1-6.38.56H182zm8 5.34v6.93h.8c.79 0 1.29-.19 1.5-.58a9.74 9.74 0 0 0 .32-3.37 5.48 5.48 0 0 0-.26-2.05 1.28 1.28 0 0 0-.7-.74 6.09 6.09 0 0 0-1.66-.19zm0 11.79v8.73a3.4 3.4 0 0 0 2.16-.54 3.83 3.83 0 0 0 .44-2.32v-3a4.25 4.25 0 0 0-.41-2.43 3.77 3.77 0 0 0-2.19-.44zM219.17 0l-5.83 19.9v11.29h-7.42V19.9L200.29 0h7.36q1.72 9.14 1.94 12.29.66-5 2.23-12.29zM34 93.87v2.75h-2.1v11h-3.5v-11h-2.08v-2.75zM42.92 93.87v13.74H39.4v-5.77h-1.06v5.77h-3.52V93.87h3.52v4.92h1.06v-4.92zM44.34 93.87h5.87v2.75h-2.35v2.61h2.2v2.61h-2.2v3h2.59v2.75h-6.11zM60.58 93.87l2 13.74H59l-.19-2.47h-1.27l-.21 2.47h-3.65l1.8-13.74zm-1.87 8.83q-.27-2.33-.54-5.76c-.36 2.63-.58 4.55-.68 5.76zM71.19 93.87l-1.79 13.74h-5.35L62 93.87h3.72q.64 5.68.92 9.61c.18-2.65.38-5 .58-7l.25-2.56zM71.79 93.87h5.87v2.75h-2.35v2.61h2.2v2.61h-2.2v3h2.59v2.75h-6.11zM78.91 93.87h2.49a18.67 18.67 0 0 1 3.38.2 2.3 2.3 0 0 1 1.44 1 4.54 4.54 0 0 1 .56 2.55 4.1 4.1 0 0 1-.39 2.16 2.05 2.05 0 0 1-1.55.66 2.71 2.71 0 0 1 1.4.7 2.23 2.23 0 0 1 .45.81 12.82 12.82 0 0 1 .09 2v3.62h-3.27V103a3 3 0 0 0-.18-1.36c-.11-.18-.41-.26-.9-.26v6.19h-3.52zm3.52 2.35v3.06a1.55 1.55 0 0 0 .84-.17c.16-.11.24-.47.24-1.07v-.76a1.15 1.15 0 0 0-.23-.85 1.3 1.3 0 0 0-.85-.21zM95.65 93.87l-2.57 8.77v5h-3.26v-5l-2.48-8.77h3.24c.5 2.69.79 4.49.85 5.42.2-1.47.53-3.27 1-5.42zM103.59 93.87v11.83a2 2 0 0 1-.39 1.07 1.79 1.79 0 0 1-.92.66 6.34 6.34 0 0 1-1.75.18h-1.81v-2.4h.46a.91.91 0 0 0 .6-.18.73.73 0 0 0 .25-.46v-10.7zM105 93.87h5.88v2.75h-2.35v2.61h2.2v2.61h-2.2v3h2.58v2.75H105zM119.54 98h-3.27v-1a1.89 1.89 0 0 0-.13-.9.45.45 0 0 0-.41-.2.55.55 0 0 0-.49.26 1.68 1.68 0 0 0-.16.8 2.34 2.34 0 0 0 .18 1 2.74 2.74 0 0 0 1 .84 10 10 0 0 1 3 2.32 5.44 5.44 0 0 1 .61 2.93 5.29 5.29 0 0 1-.34 2.16 2.77 2.77 0 0 1-1.31 1.17 5.18 5.18 0 0 1-2.26.47 4.92 4.92 0 0 1-2.42-.55 2.64 2.64 0 0 1-1.34-1.3 7.06 7.06 0 0 1-.31-2.38v-.9h3.27v1.67a2.26 2.26 0 0 0 .14 1 .53.53 0 0 0 .49.22.58.58 0 0 0 .53-.28 1.63 1.63 0 0 0 .17-.83 2.59 2.59 0 0 0-.33-1.59 10.61 10.61 0 0 0-1.65-1.24 18.93 18.93 0 0 1-1.74-1.28 3.17 3.17 0 0 1-.71-1.11 5 5 0 0 1-.28-1.79 5.11 5.11 0 0 1 .4-2.31 2.64 2.64 0 0 1 1.29-1.18 5 5 0 0 1 2.14-.41A5.55 5.55 0 0 1 118 94a2.46 2.46 0 0 1 1.28 1.13 6.06 6.06 0 0 1 .31 2.32zM128.41 98h-3.28v-1a2.08 2.08 0 0 0-.12-.9.46.46 0 0 0-.42-.2.54.54 0 0 0-.48.26 1.57 1.57 0 0 0-.16.8 2.34 2.34 0 0 0 .18 1 2.74 2.74 0 0 0 1 .84 10.06 10.06 0 0 1 3 2.32 5.35 5.35 0 0 1 .61 2.93 5.13 5.13 0 0 1-.34 2.16 2.68 2.68 0 0 1-1.31 1.17 5.18 5.18 0 0 1-2.26.47 4.88 4.88 0 0 1-2.41-.55 2.6 2.6 0 0 1-1.31-1.38 7.06 7.06 0 0 1-.31-2.38v-.9h3.2v1.67a2.26 2.26 0 0 0 .14 1 .52.52 0 0 0 .49.22.56.56 0 0 0 .52-.28 1.54 1.54 0 0 0 .17-.83 2.69 2.69 0 0 0-.32-1.59 11.77 11.77 0 0 0-1.65-1.24 16.39 16.39 0 0 1-1.74-1.28 3 3 0 0 1-.71-1.11 4.8 4.8 0 0 1-.28-1.79 5 5 0 0 1 .4-2.31 2.62 2.62 0 0 1 1.31-1.1 5 5 0 0 1 2.14-.41 5.49 5.49 0 0 1 2.34.45 2.42 2.42 0 0 1 1.28 1.13 6 6 0 0 1 .32 2.32zM137.82 93.87v9.18a17.68 17.68 0 0 1-.1 2.2 3 3 0 0 1-.6 1.29 3 3 0 0 1-1.3 1 4.81 4.81 0 0 1-1.9.35 5.35 5.35 0 0 1-2.15-.41 3.28 3.28 0 0 1-1.39-1.06 3 3 0 0 1-.54-1.38c-.06-.48-.09-1.5-.09-3v-8.17h3.53v10.3a3.86 3.86 0 0 0 .1 1.15.36.36 0 0 0 .38.25.42.42 0 0 0 .44-.27 5.64 5.64 0 0 0 .09-1.31V93.87zM139.18 93.87h3.55a8.27 8.27 0 0 1 2.21.23 2.53 2.53 0 0 1 1.17.67 2.29 2.29 0 0 1 .53 1 9.87 9.87 0 0 1 .13 1.91v1.19a5.25 5.25 0 0 1-.26 1.92 1.83 1.83 0 0 1-1 .92 4.51 4.51 0 0 1-1.87.33h-1v5.53h-3.52zm3.52 2.35v3.5h.3a.82.82 0 0 0 .68-.24 1.88 1.88 0 0 0 .19-1v-1.13a1.34 1.34 0 0 0-.22-.91 1.38 1.38 0 0 0-.95-.22zM158.27 98H155v-1a2.08 2.08 0 0 0-.12-.9.48.48 0 0 0-.42-.2.54.54 0 0 0-.48.26 1.56 1.56 0 0 0-.17.8 2.19 2.19 0 0 0 .19 1 2.68 2.68 0 0 0 1 .84 10 10 0 0 1 3 2.32 5.44 5.44 0 0 1 .61 2.93 5.29 5.29 0 0 1-.34 2.16 2.73 2.73 0 0 1-1.31 1.17 5.18 5.18 0 0 1-2.26.47 5 5 0 0 1-2.42-.55 2.68 2.68 0 0 1-1.31-1.38 7.32 7.32 0 0 1-.31-2.38v-.9h3.28v1.67a2.31 2.31 0 0 0 .13 1 .54.54 0 0 0 .49.22.58.58 0 0 0 .53-.28 1.63 1.63 0 0 0 .17-.83 2.59 2.59 0 0 0-.33-1.59 10.61 10.61 0 0 0-1.65-1.24 18.93 18.93 0 0 1-1.74-1.28 3 3 0 0 1-.7-1.11 4.8 4.8 0 0 1-.28-1.79 5.13 5.13 0 0 1 .39-2.31 2.69 2.69 0 0 1 1.25-1.1 5 5 0 0 1 2.14-.41 5.49 5.49 0 0 1 2.34.45 2.46 2.46 0 0 1 1.32 1.13 6.06 6.06 0 0 1 .31 2.32zM166.77 93.87v2.75h-2.09v11h-3.53v-11h-2.08v-2.75zM175.63 101.92a28.26 28.26 0 0 1-.1 2.93 3.25 3.25 0 0 1-2 2.66 4.81 4.81 0 0 1-2 .39 5 5 0 0 1-2-.36 3.23 3.23 0 0 1-1.4-1.09 3.19 3.19 0 0 1-.62-1.57 27.5 27.5 0 0 1-.11-3v-2.31c0-1.38 0-2.36.1-2.93a3.36 3.36 0 0 1 .6-1.58 3.3 3.3 0 0 1 1.44-1.06 4.87 4.87 0 0 1 2-.38 5.07 5.07 0 0 1 2 .36A3.24 3.24 0 0 1 174.9 95a3.31 3.31 0 0 1 .63 1.57c.06.56.1 1.55.1 3zm-3.53-4.52a4.32 4.32 0 0 0-.1-1.22.41.41 0 0 0-.43-.27.45.45 0 0 0-.42.22 3 3 0 0 0-.15 1.27v6.42a6.76 6.76 0 0 0 .09 1.47.43.43 0 0 0 .45.28.43.43 0 0 0 .46-.32 6.78 6.78 0 0 0 .1-1.54zM176.94 93.87h2.5a18.54 18.54 0 0 1 3.37.2 2.3 2.3 0 0 1 1.44 1 4.46 4.46 0 0 1 .56 2.55 4.1 4.1 0 0 1-.39 2.16 2.05 2.05 0 0 1-1.55.66 2.75 2.75 0 0 1 1.41.7 2.34 2.34 0 0 1 .44.81 12.82 12.82 0 0 1 .09 2v3.62h-3.27V103a3.24 3.24 0 0 0-.17-1.36c-.12-.18-.42-.26-.9-.26v6.19h-3.53zm3.53 2.35v3.06a1.53 1.53 0 0 0 .83-.17c.16-.11.24-.47.24-1.07v-.76a1.15 1.15 0 0 0-.23-.85 1.29 1.29 0 0 0-.84-.21zM193.68 93.87l-2.57 8.77v5h-3.26v-5l-2.48-8.77h3.24a54.84 54.84 0 0 1 .85 5.42c.2-1.47.53-3.27 1-5.42z" fill="#fff"/><path d="M34 93.87v2.75h-2.1v11h-3.5v-11h-2.08v-2.75zM42.92 93.87v13.74H39.4v-5.77h-1.06v5.77h-3.52V93.87h3.52v4.92h1.06v-4.92zM44.34 93.87h5.87v2.75h-2.35v2.61h2.2v2.61h-2.2v3h2.59v2.75h-6.11zM60.58 93.87l2 13.74H59l-.19-2.47h-1.27l-.21 2.47h-3.65l1.8-13.74zm-1.87 8.83q-.27-2.33-.54-5.76c-.36 2.63-.58 4.55-.68 5.76zM71.19 93.87l-1.79 13.74h-5.35L62 93.87h3.72q.64 5.68.92 9.61c.18-2.65.38-5 .58-7l.25-2.56zM71.79 93.87h5.87v2.75h-2.35v2.61h2.2v2.61h-2.2v3h2.59v2.75h-6.11zM78.91 93.87h2.49a18.67 18.67 0 0 1 3.38.2 2.3 2.3 0 0 1 1.44 1 4.54 4.54 0 0 1 .56 2.55 4.1 4.1 0 0 1-.39 2.16 2.05 2.05 0 0 1-1.55.66 2.71 2.71 0 0 1 1.4.7 2.23 2.23 0 0 1 .45.81 12.82 12.82 0 0 1 .09 2v3.62h-3.27V103a3 3 0 0 0-.18-1.36c-.11-.18-.41-.26-.9-.26v6.19h-3.52zm3.52 2.35v3.06a1.55 1.55 0 0 0 .84-.17c.16-.11.24-.47.24-1.07v-.76a1.15 1.15 0 0 0-.23-.85 1.3 1.3 0 0 0-.85-.21zM95.65 93.87l-2.57 8.77v5h-3.26v-5l-2.48-8.77h3.24c.5 2.69.79 4.49.85 5.42.2-1.47.53-3.27 1-5.42zM103.59 93.87v11.83a2 2 0 0 1-.39 1.07 1.79 1.79 0 0 1-.92.66 6.34 6.34 0 0 1-1.75.18h-1.81v-2.4h.46a.91.91 0 0 0 .6-.18.73.73 0 0 0 .25-.46v-10.7zM105 93.87h5.88v2.75h-2.35v2.61h2.2v2.61h-2.2v3h2.58v2.75H105zM119.54 98h-3.27v-1a1.89 1.89 0 0 0-.13-.9.45.45 0 0 0-.41-.2.55.55 0 0 0-.49.26 1.68 1.68 0 0 0-.16.8 2.34 2.34 0 0 0 .18 1 2.74 2.74 0 0 0 1 .84 10 10 0 0 1 3 2.32 5.44 5.44 0 0 1 .61 2.93 5.29 5.29 0 0 1-.34 2.16 2.77 2.77 0 0 1-1.31 1.17 5.18 5.18 0 0 1-2.26.47 4.92 4.92 0 0 1-2.42-.55 2.64 2.64 0 0 1-1.34-1.3 7.06 7.06 0 0 1-.31-2.38v-.9h3.27v1.67a2.26 2.26 0 0 0 .14 1 .53.53 0 0 0 .49.22.58.58 0 0 0 .53-.28 1.63 1.63 0 0 0 .17-.83 2.59 2.59 0 0 0-.33-1.59 10.61 10.61 0 0 0-1.65-1.24 18.93 18.93 0 0 1-1.74-1.28 3.17 3.17 0 0 1-.71-1.11 5 5 0 0 1-.28-1.79 5.11 5.11 0 0 1 .4-2.31 2.64 2.64 0 0 1 1.29-1.18 5 5 0 0 1 2.14-.41A5.55 5.55 0 0 1 118 94a2.46 2.46 0 0 1 1.28 1.13 6.06 6.06 0 0 1 .31 2.32zM128.41 98h-3.28v-1a2.08 2.08 0 0 0-.12-.9.46.46 0 0 0-.42-.2.54.54 0 0 0-.48.26 1.57 1.57 0 0 0-.16.8 2.34 2.34 0 0 0 .18 1 2.74 2.74 0 0 0 1 .84 10.06 10.06 0 0 1 3 2.32 5.35 5.35 0 0 1 .61 2.93 5.13 5.13 0 0 1-.34 2.16 2.68 2.68 0 0 1-1.31 1.17 5.18 5.18 0 0 1-2.26.47 4.88 4.88 0 0 1-2.41-.55 2.6 2.6 0 0 1-1.31-1.38 7.06 7.06 0 0 1-.31-2.38v-.9h3.2v1.67a2.26 2.26 0 0 0 .14 1 .52.52 0 0 0 .49.22.56.56 0 0 0 .52-.28 1.54 1.54 0 0 0 .17-.83 2.69 2.69 0 0 0-.32-1.59 11.77 11.77 0 0 0-1.65-1.24 16.39 16.39 0 0 1-1.74-1.28 3 3 0 0 1-.71-1.11 4.8 4.8 0 0 1-.28-1.79 5 5 0 0 1 .4-2.31 2.62 2.62 0 0 1 1.31-1.1 5 5 0 0 1 2.14-.41 5.49 5.49 0 0 1 2.34.45 2.42 2.42 0 0 1 1.28 1.13 6 6 0 0 1 .32 2.32zM137.82 93.87v9.18a17.68 17.68 0 0 1-.1 2.2 3 3 0 0 1-.6 1.29 3 3 0 0 1-1.3 1 4.81 4.81 0 0 1-1.9.35 5.35 5.35 0 0 1-2.15-.41 3.28 3.28 0 0 1-1.39-1.06 3 3 0 0 1-.54-1.38c-.06-.48-.09-1.5-.09-3v-8.17h3.53v10.3a3.86 3.86 0 0 0 .1 1.15.36.36 0 0 0 .38.25.42.42 0 0 0 .44-.27 5.64 5.64 0 0 0 .09-1.31V93.87zM139.18 93.87h3.55a8.27 8.27 0 0 1 2.21.23 2.53 2.53 0 0 1 1.17.67 2.29 2.29 0 0 1 .53 1 9.87 9.87 0 0 1 .13 1.91v1.19a5.25 5.25 0 0 1-.26 1.92 1.83 1.83 0 0 1-1 .92 4.51 4.51 0 0 1-1.87.33h-1v5.53h-3.52zm3.52 2.35v3.5h.3a.82.82 0 0 0 .68-.24 1.88 1.88 0 0 0 .19-1v-1.13a1.34 1.34 0 0 0-.22-.91 1.38 1.38 0 0 0-.95-.22zM158.27 98H155v-1a2.08 2.08 0 0 0-.12-.9.48.48 0 0 0-.42-.2.54.54 0 0 0-.48.26 1.56 1.56 0 0 0-.17.8 2.19 2.19 0 0 0 .19 1 2.68 2.68 0 0 0 1 .84 10 10 0 0 1 3 2.32 5.44 5.44 0 0 1 .61 2.93 5.29 5.29 0 0 1-.34 2.16 2.73 2.73 0 0 1-1.31 1.17 5.18 5.18 0 0 1-2.26.47 5 5 0 0 1-2.42-.55 2.68 2.68 0 0 1-1.31-1.38 7.32 7.32 0 0 1-.31-2.38v-.9h3.28v1.67a2.31 2.31 0 0 0 .13 1 .54.54 0 0 0 .49.22.58.58 0 0 0 .53-.28 1.63 1.63 0 0 0 .17-.83 2.59 2.59 0 0 0-.33-1.59 10.61 10.61 0 0 0-1.65-1.24 18.93 18.93 0 0 1-1.74-1.28 3 3 0 0 1-.7-1.11 4.8 4.8 0 0 1-.28-1.79 5.13 5.13 0 0 1 .39-2.31 2.69 2.69 0 0 1 1.25-1.1 5 5 0 0 1 2.14-.41 5.49 5.49 0 0 1 2.34.45 2.46 2.46 0 0 1 1.32 1.13 6.06 6.06 0 0 1 .31 2.32zM166.77 93.87v2.75h-2.09v11h-3.53v-11h-2.08v-2.75zM175.63 101.92a28.26 28.26 0 0 1-.1 2.93 3.25 3.25 0 0 1-2 2.66 4.81 4.81 0 0 1-2 .39 5 5 0 0 1-2-.36 3.23 3.23 0 0 1-1.4-1.09 3.19 3.19 0 0 1-.62-1.57 27.5 27.5 0 0 1-.11-3v-2.31c0-1.38 0-2.36.1-2.93a3.36 3.36 0 0 1 .6-1.58 3.3 3.3 0 0 1 1.44-1.06 4.87 4.87 0 0 1 2-.38 5.07 5.07 0 0 1 2 .36A3.24 3.24 0 0 1 174.9 95a3.31 3.31 0 0 1 .63 1.57c.06.56.1 1.55.1 3zm-3.53-4.52a4.32 4.32 0 0 0-.1-1.22.41.41 0 0 0-.43-.27.45.45 0 0 0-.42.22 3 3 0 0 0-.15 1.27v6.42a6.76 6.76 0 0 0 .09 1.47.43.43 0 0 0 .45.28.43.43 0 0 0 .46-.32 6.78 6.78 0 0 0 .1-1.54zM176.94 93.87h2.5a18.54 18.54 0 0 1 3.37.2 2.3 2.3 0 0 1 1.44 1 4.46 4.46 0 0 1 .56 2.55 4.1 4.1 0 0 1-.39 2.16 2.05 2.05 0 0 1-1.55.66 2.75 2.75 0 0 1 1.41.7 2.34 2.34 0 0 1 .44.81 12.82 12.82 0 0 1 .09 2v3.62h-3.27V103a3.24 3.24 0 0 0-.17-1.36c-.12-.18-.42-.26-.9-.26v6.19h-3.53zm3.53 2.35v3.06a1.53 1.53 0 0 0 .83-.17c.16-.11.24-.47.24-1.07v-.76a1.15 1.15 0 0 0-.23-.85 1.29 1.29 0 0 0-.84-.21zM193.68 93.87l-2.57 8.77v5h-3.26v-5l-2.48-8.77h3.24a54.84 54.84 0 0 1 .85 5.42c.2-1.47.53-3.27 1-5.42zM0 33.31h10.26q9.94 0 13.45.92a10.26 10.26 0 0 1 5.32 3A9.61 9.61 0 0 1 31.31 42a70.78 70.78 0 0 1 .46 10.18v18.7q0 7.2-.67 9.63a7.23 7.23 0 0 1-2.33 3.8 9.62 9.62 0 0 1-4.1 1.91 36.86 36.86 0 0 1-7.37.55H0zm13.72 9.15v35.16c2 0 3.19-.4 3.65-1.21s.68-3 .68-6.55V49.09a27.17 27.17 0 0 0-.23-4.65 2.21 2.21 0 0 0-1-1.51 6.82 6.82 0 0 0-3.1-.47zM60.06 33.31l7.84 53.46h-14l-.74-9.61h-4.9l-.83 9.61h-14.2l7-53.46zm-7.27 34.37q-1-9.08-2.09-22.45-2.1 15.36-2.64 22.45zM105.3 33.31v53.46H91.18L82.6 62.46v24.31H69.34V33.31h13.47L92 57.38V33.31zM140 53h-13.7v-4.87a24.44 24.44 0 0 0-.39-5.74 1.74 1.74 0 0 0-1.86-1.16 1.71 1.71 0 0 0-1.72 1c-.31.66-.46 2.36-.46 5.09V73a15.26 15.26 0 0 0 .46 4.74 1.77 1.77 0 0 0 1.82 1.14 2 2 0 0 0 2-1.29 15.12 15.12 0 0 0 .54-5V66.2H124v-8.13h16v28.7h-8.6l-1.27-3.83a9.54 9.54 0 0 1-3.54 3.71 9.8 9.8 0 0 1-5 1.24 13 13 0 0 1-6.48-1.7A12.5 12.5 0 0 1 110.5 82a13.48 13.48 0 0 1-2-5.27 64.23 64.23 0 0 1-.39-8.27v-15.9a53.31 53.31 0 0 1 .89-11.13q.81-3.47 4.67-6.35a16.24 16.24 0 0 1 10-2.89 18.34 18.34 0 0 1 10 2.51 11.84 11.84 0 0 1 5.19 6 32.09 32.09 0 0 1 1.2 10zM143.43 33.31h26.41V44h-12.69v10.14h12.1v10.17h-12.1v11.76h13.6v10.7h-27.32zM173.61 33.31h9.71q9.7 0 13.15.76a9.07 9.07 0 0 1 5.6 3.88q2.16 3.12 2.17 9.95 0 6.24-1.53 8.39t-6 2.58c2.71.68 4.54 1.59 5.47 2.74a8.09 8.09 0 0 1 1.74 3.15 49.77 49.77 0 0 1 .35 7.91v14.1H191.5V69c0-2.86-.23-4.63-.67-5.31s-1.62-1-3.5-1v24.08h-13.72zm13.72 9.15v11.88a6 6 0 0 0 3.24-.64c.62-.43.93-1.82.93-4.18v-2.94q0-2.53-.9-3.33a5 5 0 0 0-3.27-.79zM220 42.64V53.5h-9.94V42.64zm0 23.9v10.9h-9.94v-10.9z" fill="#fff"/></svg>