<svg xmlns="http://www.w3.org/2000/svg" width="350" height="37" viewBox="0 0 350 37"><g fill="#fff"><path d="M11.83 16a1.85 1.85 0 0 0 1.57-1 3.1 3.1 0 0 0 .23-1.32 2.79 2.79 0 0 0-1.24-2.54 6.67 6.67 0 0 0-3.55-.79 4.5 4.5 0 0 0-3.78 1.45 4.69 4.69 0 0 0-.81 2.38H1.06c.06-2.51.88-4.25 2.43-5.24a10 10 0 0 1 5.43-1.49 11 11 0 0 1 5.81 1.37A4.62 4.62 0 0 1 17 13.06v11.7a1.45 1.45 0 0 0 .22.85c.14.22.45.32.92.32a4.7 4.7 0 0 0 .51 0l.61-.09v2.52a10.88 10.88 0 0 1-1.22.29 11 11 0 0 1-1.14.05 2.81 2.81 0 0 1-2.56-1.25 4.85 4.85 0 0 1-.58-1.87 8.77 8.77 0 0 1-3 2.37 9.26 9.26 0 0 1-4.3 1 6.42 6.42 0 0 1-4.62-1.71A5.73 5.73 0 0 1 0 22.93a5.56 5.56 0 0 1 1.76-4.38 8.45 8.45 0 0 1 4.63-1.91zm-7.18 9.18A4 4 0 0 0 7.2 26a7.85 7.85 0 0 0 3.49-.83 4.69 4.69 0 0 0 2.85-4.53v-2.71a5.92 5.92 0 0 1-1.61.66A12.64 12.64 0 0 1 10 19l-2.06.27a7.93 7.93 0 0 0-2.79.73 3 3 0 0 0-1.59 2.84 2.78 2.78 0 0 0 1.09 2.34zM35.36 21.88a4.8 4.8 0 0 0 .87 2.61q1.32 1.65 4.56 1.65a6.86 6.86 0 0 0 3.41-.82 2.73 2.73 0 0 0 1.47-2.55 2.16 2.16 0 0 0-1.18-2 14.2 14.2 0 0 0-3-1l-2.76-.68a13.65 13.65 0 0 1-3.89-1.44 4.29 4.29 0 0 1-2.23-3.83 5.84 5.84 0 0 1 2.1-4.67 8.51 8.51 0 0 1 5.66-1.78q4.65 0 6.7 2.69a5.78 5.78 0 0 1 1.25 3.68h-3.18a3.93 3.93 0 0 0-.83-2.09c-.81-.89-2.2-1.34-4.18-1.34a5.11 5.11 0 0 0-3 .74 2.28 2.28 0 0 0-1 1.94 2.38 2.38 0 0 0 1.33 2.12 8.43 8.43 0 0 0 2.28.83l2.3.55a18 18 0 0 1 5 1.73 4.55 4.55 0 0 1 2 4.11A6.21 6.21 0 0 1 47 27.05q-2.09 2-6.34 2Q36 29 34.12 27a7.74 7.74 0 0 1-2-5.09zM65.28 8.5a7.62 7.62 0 0 1 3.07 2.63 9 9 0 0 1 1.36 3.58 23.79 23.79 0 0 1 .3 4.48H55.24a8.87 8.87 0 0 0 1.45 5 4.83 4.83 0 0 0 4.2 1.81 5.38 5.38 0 0 0 4.23-1.77 6 6 0 0 0 1.25-2.38h3.36a7.13 7.13 0 0 1-.88 2.49 9 9 0 0 1-1.67 2.25 7.88 7.88 0 0 1-3.82 2 11.18 11.18 0 0 1-2.77.31 8.49 8.49 0 0 1-6.39-2.76c-1.74-1.84-2.61-4.41-2.61-7.73a11.71 11.71 0 0 1 2.63-7.94 8.7 8.7 0 0 1 6.9-3 9.21 9.21 0 0 1 4.16 1.03zm1.23 8a9 9 0 0 0-1-3.54 4.92 4.92 0 0 0-4.65-2.47A5.15 5.15 0 0 0 57 12.16a6.44 6.44 0 0 0-1.67 4.31zM87.75 9c1.43 1.12 2.3 3 2.59 5.75H87a6.05 6.05 0 0 0-1.39-3.12 4.35 4.35 0 0 0-3.46-1.24 4.8 4.8 0 0 0-4.67 3.18 12.73 12.73 0 0 0-.91 5.09 9.53 9.53 0 0 0 1.29 5.13 5 5 0 0 0 7.42.79A7.1 7.1 0 0 0 87 21.06h3.32A8.93 8.93 0 0 1 87.49 27a8.88 8.88 0 0 1-5.82 1.87 7.77 7.77 0 0 1-6.35-2.91A11.16 11.16 0 0 1 73 18.65q0-5.34 2.6-8.32a8.4 8.4 0 0 1 6.62-3A8.88 8.88 0 0 1 87.75 9zM108.46 10c1.79 1.74 2.69 4.31 2.69 7.69a13.28 13.28 0 0 1-2.37 8.11q-2.37 3.2-7.36 3.2a8.32 8.32 0 0 1-6.61-2.83 11.26 11.26 0 0 1-2.44-7.61 12.13 12.13 0 0 1 2.57-8.14 8.64 8.64 0 0 1 6.93-3 9.1 9.1 0 0 1 6.59 2.58zm-2.12 13.49a12.88 12.88 0 0 0 1.25-5.7 10.29 10.29 0 0 0-.9-4.63 5.07 5.07 0 0 0-4.91-2.8 4.83 4.83 0 0 0-4.5 2.39 11.11 11.11 0 0 0-1.41 5.75 9.68 9.68 0 0 0 1.41 5.4 4.93 4.93 0 0 0 4.46 2.1 4.64 4.64 0 0 0 4.6-2.54zM115.34 7.94h3.24v2.89a8.94 8.94 0 0 1 3.06-2.56 8.07 8.07 0 0 1 3.58-.78q4.32 0 5.84 3a10.82 10.82 0 0 1 .83 4.72v13h-3.47V15.45a6.82 6.82 0 0 0-.55-3 3.31 3.31 0 0 0-3.29-1.9 6.59 6.59 0 0 0-2 .25 5.1 5.1 0 0 0-2.46 1.66 5 5 0 0 0-1.12 2.09 14 14 0 0 0-.26 3.06v10.64h-3.41zM148.09 8.57a9 9 0 0 1 2.06 2V.3h3.28v28h-3.07v-2.88a7.34 7.34 0 0 1-2.82 2.71 8 8 0 0 1-3.72.84 7.52 7.52 0 0 1-5.82-2.85 11.22 11.22 0 0 1-2.48-7.6 13.19 13.19 0 0 1 2.26-7.69 7.41 7.41 0 0 1 6.45-3.25 7.13 7.13 0 0 1 3.86.99zm-7.62 15.22a4.82 4.82 0 0 0 4.42 2.2 4.63 4.63 0 0 0 3.87-2 9.56 9.56 0 0 0 1.52-5.84q0-3.86-1.56-5.7a4.9 4.9 0 0 0-3.87-1.85 5.1 5.1 0 0 0-4.16 2 9.09 9.09 0 0 0-1.59 5.8 10.14 10.14 0 0 0 1.37 5.39zM170.91 1.74Q172.09 0 175.52 0h.66l.78.06v3.1h-1.23c-1 0-1.68.27-1.88.8a16 16 0 0 0-.31 4.04H177v2.69h-3.42v17.56h-3.37V10.73h-2.83V8h2.83V4.85a6.13 6.13 0 0 1 .7-3.11zM180.1.4h3.47v3.87h-3.47zm0 7.64h3.47v20.21h-3.47zM188.82.4h3.42v27.85h-3.42zM197.36 7.94h3.37v2.89a11.49 11.49 0 0 1 2.2-2.19 6.6 6.6 0 0 1 3.83-1.15 6 6 0 0 1 3.9 1.19 6.23 6.23 0 0 1 1.52 2 7.08 7.08 0 0 1 6.12-3.2c2.73 0 4.59 1 5.58 3a9.67 9.67 0 0 1 .79 4.28v13.49h-3.54V14.14a3.26 3.26 0 0 0-1-2.78 4 4 0 0 0-2.47-.76 4.94 4.94 0 0 0-3.46 1.34c-1 .9-1.45 2.4-1.45 4.5v11.81h-3.47V15a6.89 6.89 0 0 0-.49-3 3 3 0 0 0-2.9-1.42 5 5 0 0 0-3.52 1.5c-1 1-1.58 2.8-1.58 5.42v10.75h-3.41zM240.2.3h3.32v10.11a7.47 7.47 0 0 1 6.07-3 8 8 0 0 1 6.18 2.59q2.37 2.61 2.37 7.69a13.1 13.1 0 0 1-2.35 8 7.6 7.6 0 0 1-6.48 3.18 6.67 6.67 0 0 1-3.93-1.12 9.46 9.46 0 0 1-2-2.12v2.6h-3.18zm13.05 23.38a10.8 10.8 0 0 0 1.38-5.8 9.48 9.48 0 0 0-1.38-5.31 4.55 4.55 0 0 0-4.06-2.11 5.68 5.68 0 0 0-4.1 1.73q-1.76 1.72-1.76 5.69a12.55 12.55 0 0 0 .72 4.64 5 5 0 0 0 5 3.36 4.58 4.58 0 0 0 4.2-2.2zM274.77 7.94h3.77q-.72 2-3.2 8.92c-1.24 3.49-2.27 6.33-3.11 8.53q-3 7.77-4.17 9.48c-.8 1.13-2.19 1.7-4.16 1.7a7.79 7.79 0 0 1-1.11-.06 7.21 7.21 0 0 1-1-.2V33.2c.6.16 1 .26 1.29.3a4.72 4.72 0 0 0 .7.06 2.44 2.44 0 0 0 1.39-.32 2.71 2.71 0 0 0 .75-.76c.06-.1.29-.62.68-1.55s.68-1.63.85-2.08L260 7.94h3.87l5.44 16.54zM292.2.4h3.28v16.17l8.75-8.63h4.36l-7.8 7.55L309 28.25h-4.36l-6.38-10.33-2.81 2.71v7.62h-3.25zM311.69.4h3.47v3.87h-3.47zm0 7.64h3.47v20.21h-3.47zM320.41 7.94h3.25v3.51A7.63 7.63 0 0 1 325.61 9a5 5 0 0 1 3.58-1.47h.32l.78.07v3.61a4.19 4.19 0 0 0-.56-.08h-.56a4.85 4.85 0 0 0-4 1.66 5.81 5.81 0 0 0-1.38 3.82v11.64h-3.42zM333.17.4h3.28v16.17l8.75-8.63h4.36l-7.8 7.55L350 28.25h-4.36l-6.39-10.33-2.8 2.71v7.62h-3.28z"/></g></svg>