<svg xmlns="http://www.w3.org/2000/svg" width="300" height="57" viewBox="0 0 300 57"><path d="M262.2,21.89a3.75,3.75,0,0,1-.81-.16.62.62,0,0,1-.3-.16.52.52,0,0,1-.17-.16.83.83,0,0,1-.16-.31l0-.24V20a.92.92,0,0,1,.26-.63,2.38,2.38,0,0,1-.33-.8,3.92,3.92,0,0,1,.48-1.81,4.87,4.87,0,0,0,.37-1.66,25.41,25.41,0,0,0-3.34-8.26C255.36,2.58,251.87.3,247.69,0V4.7c1.29.5,2.21,2,2.74,4.49q1,4.7,1,18.59,0,14.64-.92,19-.8,3.68-2.81,4.21v4.76q6.51-.42,10.61-6.93,4.4-7,4.39-21.84,0-2.65-.18-5Zm-8.09,11.85a.42.42,0,0,1,0,.83A.42.42,0,0,1,254.11,33.74Zm-.84-1.05a.41.41,0,0,1,0,.82A.41.41,0,0,1,253.27,32.69Zm2.19,10.19-.05.06c-.12.17-.18.36-.3.53l0,0a.84.84,0,0,1-.86.78.9.9,0,0,1,0-1.8.78.78,0,0,1,.22,0,.4.4,0,0,1,.36-.12s0-.07.07-.1a.41.41,0,1,1,.59.58Zm2.87-17.57a.41.41,0,0,1,0,.82A.41.41,0,0,1,258.33,25.31Zm1.05,12a.38.38,0,0,1-.3-.13l-.16,0a.9.9,0,0,1,0-1.8.89.89,0,0,1,.79,1.27A.41.41,0,0,1,259.38,37.31ZM259.8,28a.42.42,0,0,1,0-.83A.42.42,0,0,1,259.8,28Zm.43-3.58a.42.42,0,0,1,0-.83A.42.42,0,0,1,260.23,24.45Zm.84,9.7a.42.42,0,0,1,0-.83A.42.42,0,0,1,261.07,34.15Z" fill="#fff"/><path d="M245.77,4.66V0q-6.44.45-10.57,7-4.44,7-4.44,20.39a56.5,56.5,0,0,0,1.67,15.1A21.2,21.2,0,0,0,237.91,52a12.29,12.29,0,0,0,7.86,3.68V50.82a4.06,4.06,0,0,1-2-2.27,1.63,1.63,0,0,1-.61-.42,2.27,2.27,0,0,1-.47-.86,3.41,3.41,0,0,1-.13-.83,3.51,3.51,0,0,1,0-.65.89.89,0,0,1,.12-.45l.14-.18,0,0a133.13,133.13,0,0,1-.82-17.7c0-1.9,0-3.67,0-5.31l-.08,0-.07,0a1.35,1.35,0,0,1-.6,0,.9.9,0,0,1-.65-.48l-.07-.14-.34.14a.41.41,0,0,1-.52-.4,7.07,7.07,0,0,1,.48-3.16h0a1.16,1.16,0,0,1,0-.18,2.52,2.52,0,0,1,.65-1,.42.42,0,0,1,.69.18c.05.12.07.24.11.35a.43.43,0,0,1,.29.22.46.46,0,0,1,.2,0c0-1.33.12-2.53.2-3.61h0a.9.9,0,0,1,0-1.8l.15,0A30.17,30.17,0,0,1,243.11,9C243.68,6.53,244.57,5.11,245.77,4.66Zm-4.1,42.16a.41.41,0,0,1,0,.82A.41.41,0,0,1,241.67,46.82Zm-2.88-13.71a.9.9,0,0,1,0,1.79A.9.9,0,0,1,238.79,33.11Zm-4.08-5.27a.41.41,0,0,1,0,.82A.41.41,0,0,1,234.71,27.84ZM236,35.19a.9.9,0,0,1-1.23.32,1.58,1.58,0,0,1-.56-.53,1.87,1.87,0,0,1-.16-.35.85.85,0,0,1,0-.17,2.68,2.68,0,0,1-.05-.63,5.43,5.43,0,0,1,.09-.69.83.83,0,0,1,.41-.54.88.88,0,0,1,1.22.33.65.65,0,0,1,.11.33.63.63,0,0,1,0,.36h0a2.54,2.54,0,0,0,0,.39.91.91,0,0,1,.33.48A.93.93,0,0,1,236,35.19Zm1.58-17.7a.42.42,0,0,1-.43.2.93.93,0,0,1-.57.21.94.94,0,0,1-.64-.26,1,1,0,0,1-.16-.24,1,1,0,0,1-.39-.36h0a.42.42,0,0,1-.26-.38.37.37,0,0,1,.19-.33,4.88,4.88,0,0,1,.49-1.12,1,1,0,0,1,.54-.42,1.29,1.29,0,0,1,.48,0,.9.9,0,0,1,.46.33.62.62,0,0,1,.16.3l0,.24V17A.41.41,0,0,1,237.6,17.49Zm1.08,29.2a.9.9,0,0,1,0-1.8A.9.9,0,0,1,238.68,46.69Zm.88-9.59a.42.42,0,0,1,0-.83A.42.42,0,0,1,239.56,37.1Zm.21-8.23a.41.41,0,0,1,0-.82A.41.41,0,0,1,239.77,28.87Z" fill="#fff"/><path d="M283.08,4.66V0q-6.43.45-10.56,7-4.44,7-4.44,20.39a56.55,56.55,0,0,0,1.66,15.1A21.12,21.12,0,0,0,275.23,52l0,0a.4.4,0,0,1,.35-.6.41.41,0,0,1,0,.82l-.14,0a12.23,12.23,0,0,0,7.6,3.44V50.82c-1.37-.6-2.31-2.29-2.79-5.13-.07-.44-.14-.94-.21-1.47l-.33-.07a.91.91,0,0,1-.66-.86,10.75,10.75,0,0,1,.09-1.13,12.1,12.1,0,0,1,.05-5.32c.07-.38.18-.74.27-1.11-.08-2.45-.12-5.21-.12-8.31s0-5.78.12-8.16h0a.27.27,0,0,1-.12.09.39.39,0,0,1-.17,0,.42.42,0,0,1,0-.83.38.38,0,0,1,.19,0h0a.26.26,0,0,1,.11.1A58.58,58.58,0,0,1,280.42,9C281,6.53,281.88,5.11,283.08,4.66Zm-7.46,12.42a.42.42,0,0,1,0,.83A.42.42,0,0,1,275.62,17.08Zm-4.43,17.7a.42.42,0,0,1,0-.83A.42.42,0,0,1,271.19,34.78Zm2.74,7.38h0l0,0a1.79,1.79,0,0,1-.47.21l0,0h0s-.06.08-.1.11a.59.59,0,0,1-.2.12.46.46,0,0,1-.23.06.49.49,0,0,1-.24,0,.68.68,0,0,1-.33-.11l-.18-.14-.14-.18-.09-.22a1.1,1.1,0,0,1-.06-.26,2.94,2.94,0,0,1-.05-.51c0-.1,0-.21,0-.32a.43.43,0,0,1,.14-.66.93.93,0,0,1,.36-.4.88.88,0,0,1,.69-.1.73.73,0,0,1,.31.17.7.7,0,0,1,.23.25,1,1,0,0,1,.1.3l.09,0a.92.92,0,0,1,.54.41.64.64,0,0,1,.1.33.66.66,0,0,1,0,.28A.4.4,0,0,1,273.93,42.16Zm.09-3.61a.42.42,0,0,1-.08-.75.82.82,0,0,1,.83-.62.9.9,0,0,1,0,1.79A.83.83,0,0,1,274,38.55Zm1.39,7.62a.42.42,0,0,1,0-.83A.42.42,0,0,1,275.41,46.17Zm.84.63a.42.42,0,0,1,0-.83A.42.42,0,0,1,276.25,46.8Zm.21-4.64a.42.42,0,0,1,0-.83A.42.42,0,0,1,276.46,42.16Zm.6-19.88a.9.9,0,0,1,0-1.79A.9.9,0,0,1,277.06,22.28Zm.84-6.36-.21,0a.37.37,0,0,1-.38.32.42.42,0,0,1-.19-.78.9.9,0,1,1,.78.48Z" fill="#fff"/><path d="M274.73,46.12a.31.31,0,0,1-.22.22.29.29,0,0,1-.16,0h-.42a.45.45,0,0,1-.29-.12.45.45,0,0,1-.11-.19V46a.37.37,0,0,1,0-.15.34.34,0,0,1,.09-.14.26.26,0,0,1,.13-.08.32.32,0,0,1,.16,0h.42a.45.45,0,0,1,.3.12.4.4,0,0,1,.1.18l0,.11A.29.29,0,0,1,274.73,46.12Z" fill="#fff"/><path d="M299.46,32.89a38.18,38.18,0,0,1-.53-4.11A3.39,3.39,0,0,1,300,26.36a49,49,0,0,0-1.57-12.78c-.13.14-.26.27-.38.41a.41.41,0,0,1-.64-.08c-.22-.47-.21-1-.43-1.48a.42.42,0,0,1,.15-.56.41.41,0,0,1,.55.13c0-.16-.06-.31-.08-.47a.36.36,0,0,1-.25-.36,7.32,7.32,0,0,0-.09-.93,21,21,0,0,0-1.78-3.37C292.67,2.58,289.18.3,285,0V4.7c1.3.5,2.21,2,2.74,4.49.17.81.32,1.83.45,3.05a.44.44,0,0,1,.48.3,6.31,6.31,0,0,1,.44,1.48,3,3,0,0,1-.23,1.48.42.42,0,0,1-.34.29s-.05,0-.08,0c.18,3.17.28,7.16.28,12q0,14.64-.93,19Q287,50.43,285,51v4.76a12.15,12.15,0,0,0,5.1-1.46,1.69,1.69,0,0,1,.57-1.36,5.74,5.74,0,0,1,.83-1.66.43.43,0,0,1,.57-.15.48.48,0,0,1,.19.27h0c.48,0,.95,0,1.43-.06a19.39,19.39,0,0,0,1.9-2.51q3.39-5.38,4.16-15.52A.42.42,0,0,1,299.46,32.89Zm-9.92-20.25a.42.42,0,0,1,0-.83A.42.42,0,0,1,289.54,12.64Zm2.32-5.89a.42.42,0,0,1,0,.83A.42.42,0,0,1,291.86,6.75Zm0,27.4a.42.42,0,0,1,0-.83A.42.42,0,0,1,291.86,34.15ZM292,17.06a.4.4,0,0,1-.65.09.9.9,0,1,1,.65-.09Zm.7,29.11a.42.42,0,0,1,0-.83A.42.42,0,0,1,292.7,46.17Zm-.41-31.08a.9.9,0,0,1,0-1.8A.9.9,0,0,1,292.29,15.09Zm3.65,16a.9.9,0,0,1,0,1.79A.9.9,0,0,1,295.94,31.13Zm-2.18-1.61a.42.42,0,0,1,0,.83A.42.42,0,0,1,293.76,29.52Zm.42,18.76a.42.42,0,0,1,0-.83A.42.42,0,0,1,294.18,48.28ZM295.23,35a.42.42,0,0,1,0-.83A.42.42,0,0,1,295.23,35Zm2.53,5.41a.89.89,0,0,1-.54.41.88.88,0,0,1-.69-.09l0,0h-.09a.42.42,0,0,1-.31-.4v-.2c-.16-.45-.33-.89-.48-1.34a.88.88,0,0,1,.09-.69,1,1,0,0,1,.53-.42.92.92,0,0,1,.69.1,1,1,0,0,1,.42.53c.16.49.35,1,.52,1.46A.93.93,0,0,1,297.76,40.4Z" fill="#fff"/><path d="M206.7,16.87V13l-.89,1.61a.41.41,0,0,1,.05.09,1.32,1.32,0,0,1,0,.44,1.09,1.09,0,0,1-.1.44.87.87,0,0,1-.28.32.91.91,0,0,1-.42.14H205L193.18,37.56v7.71H206.7v-.92l0,0a.89.89,0,0,1-.45.12l-.24,0a.9.9,0,0,1-.4-.23l-.14-.18a.7.7,0,0,1-.1-.34.59.59,0,0,1,0-.35.71.71,0,0,1,.16-.31.69.69,0,0,1,.18-.16,1,1,0,0,1,.1-.27l.14-.18a.86.86,0,0,1,.39-.23l.24,0h.14v-.58a.48.48,0,0,1-.18-.08s0,0,0,.06a.42.42,0,0,1-.51.29,7.76,7.76,0,0,1-1-.33h-.12a1,1,0,0,1-.06,1.09.42.42,0,0,1-.27.72.4.4,0,0,1-.4-.41.81.81,0,0,1-.82-.6,1.28,1.28,0,0,0-.07.28,1.1,1.1,0,0,0,0,.18.41.41,0,0,1-.41.41.4.4,0,0,1-.29-.12.38.38,0,0,1-.12-.29,2.47,2.47,0,0,1,.25-1.07.44.44,0,0,1,.25-.19h0a.34.34,0,0,1,.23-.08.43.43,0,0,1,.26.09.79.79,0,0,1,.73-.41h.1a.4.4,0,0,1,0-.52.42.42,0,0,1,.53-.11l0,0a.42.42,0,0,1,.41-.12.4.4,0,0,1,.29.44c.23.08.47.16.7.22a.31.31,0,0,1,.14.07v-.41a.45.45,0,0,1-.11,0,.42.42,0,0,1-.32-.68h0a.69.69,0,0,1-.35.08,1.39,1.39,0,0,1-1.13-.37,1.59,1.59,0,0,1-.3-.5,1.89,1.89,0,0,1-.34.09h-.06a.41.41,0,1,1-.53.1h0a.4.4,0,0,1-.39-.49,1,1,0,0,1-.11-.72,1.29,1.29,0,0,1,0-.21h-3.2v0a.55.55,0,0,1,0,.22v.17h0a.36.36,0,0,1,.32-.17.39.39,0,0,1,.39.47h0a.89.89,0,0,1,.27.63,1,1,0,0,1-.27.64.85.85,0,0,1-.53.25.42.42,0,0,1-.25.09.37.37,0,0,1-.31-.14h0a2.14,2.14,0,0,1-.42-.16,2.26,2.26,0,0,1-.37-.26l-.15-.15a2.05,2.05,0,0,1-.24-.36,1.65,1.65,0,0,1-.16-.42,1.74,1.74,0,0,1-.06-.45,1.33,1.33,0,0,1,0-.4h-.32l7.32-13a.4.4,0,0,1-.14-.43s0-.09,0-.13a1,1,0,0,1-.37-.5,1.87,1.87,0,0,1,.47-1.78,1.34,1.34,0,0,1,.11-.14,1.09,1.09,0,0,1-.25-.46,2.57,2.57,0,0,1-.05-.68,2.44,2.44,0,0,0,0-.27c0-.06,0-.12,0-.18a.86.86,0,0,1,.28-.91.42.42,0,0,1-.28-.66.91.91,0,0,1,.52-1.64.9.9,0,0,1,.17,1.78.45.45,0,0,1,0,.32.87.87,0,0,1,.84.26l.15-.13c-.28-.54.15-1.3.3-1.89A6.53,6.53,0,0,1,206.7,16.87Zm-3.93,26.41a.9.9,0,0,1,0,1.79A.9.9,0,0,1,202.77,43.28Zm-1.94-3.49a.31.31,0,0,1,.07-.14.32.32,0,0,1,.12-.11l-.07.05a.74.74,0,0,0,.13-.12l0,0,0-.11v-.14a.45.45,0,0,1,.12-.29l0,0a.41.41,0,0,1,.33-.63.41.41,0,0,1,.27.72.35.35,0,0,1,.08.22,2,2,0,0,1,0,.34.92.92,0,0,1-.09.28,1.33,1.33,0,0,1-.41.47.45.45,0,0,1-.32,0,.44.44,0,0,1-.25-.19A.4.4,0,0,1,200.83,39.79Zm0,1.25a.85.85,0,0,1,.52.16,1,1,0,0,1,.27-1.09.39.39,0,0,1,.58-.16.9.9,0,0,1-.05,1.79.85.85,0,0,1-.52-.16.9.9,0,1,1-.8-.54Zm-1.56-.36a.41.41,0,0,1,0,.82A.41.41,0,0,1,199.31,40.68Zm-5,.1a.42.42,0,0,1,0-.83A.42.42,0,0,1,194.28,40.78Zm3.11,1.65a.42.42,0,0,1,0-.83A.42.42,0,0,1,197.39,42.43Zm5.78-17.13a.9.9,0,0,1,0-1.8A.9.9,0,0,1,203.17,25.3Z" fill="#fff"/><path d="M219.59,38.1V34.27h0a2.53,2.53,0,0,1-.36-.2,3.92,3.92,0,0,1-.32-.25.74.74,0,0,1-.12-.13.39.39,0,0,1-.39.47.41.41,0,0,1,0-.82.47.47,0,0,1,.17,0h0a1.18,1.18,0,0,1-.14-.37,2.1,2.1,0,0,1-.05-.43,3.26,3.26,0,0,1,.05-.45.89.89,0,0,1,.41-.54.85.85,0,0,1,.56-.11,2.2,2.2,0,0,1,.15-.26.46.46,0,0,1,.07-.07V.24h-5.85l-5.11,9.28V23.93a1,1,0,0,1,.59.61,4,4,0,0,1,.07,2,4.23,4.23,0,0,1-.2.87,1.13,1.13,0,0,1-.41.65l-.05,0V45a.34.34,0,0,1,.29.12,2.24,2.24,0,0,1,.77,1.34,1,1,0,0,1-.56,1s0,.06,0,.09a1,1,0,0,1,.29.34,1.13,1.13,0,0,1,0,1,.41.41,0,0,1-.57.15.36.36,0,0,1-.16-.21v6.91h11V51.06a1.55,1.55,0,0,1-.74-1,1.16,1.16,0,0,1,.31-.9.44.44,0,0,1,0-.44l.45-.55V45.27h5.93V38.1ZM218.44,28a.41.41,0,0,1,0,.82A.41.41,0,0,1,218.44,28Zm-1.28-3.18a.42.42,0,0,1,0,.83A.42.42,0,0,1,217.16,24.79ZM216,34.15a.41.41,0,0,1,0-.82A.41.41,0,0,1,216,34.15Zm-.3-6.26a.42.42,0,0,1,0,.83A.42.42,0,0,1,215.65,27.89Zm0,4.08a.42.42,0,0,1,0,.83A.42.42,0,0,1,215.65,32ZM211,23.81a.42.42,0,0,1,0,.83A.42.42,0,0,1,211,23.81Zm-.75-1.89a.42.42,0,0,1,0-.83A.42.42,0,0,1,210.29,21.92ZM211,43.67a.42.42,0,0,1,0,.83A.42.42,0,0,1,211,43.67Zm.08,3.32a.41.41,0,0,1,0-.82A.41.41,0,0,1,211.12,47Zm.58-29.88a.83.83,0,0,1,.84-.68.9.9,0,0,1,0,1.79.81.81,0,0,1-.82-.59A.45.45,0,0,1,211.7,17.11Zm.08,4.43a.42.42,0,0,1,.29-.51.41.41,0,0,1,.5.29,7.59,7.59,0,0,0,.31,1.06.41.41,0,0,1,0,.32.46.46,0,0,1-.24.19.45.45,0,0,1-.32,0,.47.47,0,0,1-.19-.25A7.56,7.56,0,0,1,211.78,21.54ZM213,24a.42.42,0,0,1,0-.83A.42.42,0,0,1,213,24Zm.22,8.31a.42.42,0,0,1,0-.83A.42.42,0,0,1,213.23,32.27ZM213,38.69a.9.9,0,0,1,0-1.79A.9.9,0,0,1,213,38.69Zm.29-3.73a.91.91,0,0,1-.23-1.77.4.4,0,0,1,.25-.09.42.42,0,0,1,.28.11A.91.91,0,0,1,213.29,35Zm.34-13.8-.13,0a.42.42,0,1,1-.2-.05.92.92,0,0,1-.38-1.35.39.39,0,0,1,.39-.46.42.42,0,0,1,.25.09h.07A.9.9,0,0,1,213.63,21.16ZM215.5,41a.42.42,0,0,1,0-.83A.42.42,0,0,1,215.5,41Zm1.79-2.93a.41.41,0,0,1-.71,0,4.43,4.43,0,0,1-.47-.92l-.1-.24,0-.09h0a.89.89,0,0,1-.43.11,1.21,1.21,0,0,1-1.12-1.07.73.73,0,0,1,.38-.7,1.18,1.18,0,0,1,.72-.1l0,0c.53-.54,1.43-.17,1.84.33a1.89,1.89,0,0,1,.44,1.2A2.62,2.62,0,0,1,217.29,38.1Z" fill="#fff"/><path d="M76,14.13V12.52q0-3.6,1-5.09c.68-1,2.15-1.49,4.42-1.49h.71V1.53H58.07V5.94c2.51,0,4.15.45,4.9,1.37S64.1,10,64.1,12.52v13a.29.29,0,0,1,.18,0A1.53,1.53,0,0,1,65.06,27a1.73,1.73,0,0,1-1,1.33v2a.46.46,0,0,1,.23.36c0,.44.1.86.14,1.28a.85.85,0,0,1,.66-.29.88.88,0,0,1,.33.06,1.27,1.27,0,0,1-.17-.4,1.65,1.65,0,0,1,.17-1.07.41.41,0,0,1,.07-.11l0,0a.9.9,0,0,1,.39-1.5,4.11,4.11,0,0,1,1.91,0,.89.89,0,0,1,.63.63.88.88,0,0,1-.23.87,1.18,1.18,0,0,1-.62.29c-.13.17-.27.33-.4.49h0l.23.1.07,0a1.11,1.11,0,0,1,.54.41.9.9,0,0,1-.32,1.23l0,0a.41.41,0,0,1-.32.66.41.41,0,0,1-.36-.6,4.27,4.27,0,0,1-1-.52.92.92,0,0,1-.46,1.16,3.12,3.12,0,0,1,.42,3.06l0,.11c.13.4-.29.59-.59.44a1.37,1.37,0,0,1-.82.5l0,.34c.07.19.17.36.34.36A.41.41,0,0,1,65,39a.74.74,0,0,1,0,.14c-.14.31-.19.65-.33,1a.39.39,0,0,1-.49.18v4.08A18.76,18.76,0,0,1,64,46.61a.44.44,0,0,1,.36.41,3.43,3.43,0,0,1-.08.56.44.44,0,0,1,.31-.17.41.41,0,0,1,.41.42,3.73,3.73,0,0,1-.12.58.17.17,0,0,0,0,.07v.23h0a.29.29,0,0,0,0,.09.43.43,0,0,1,0,.05l0,.07a.41.41,0,0,1-.25.6,7.64,7.64,0,0,1-1.14.22,2.69,2.69,0,0,1-.75,0c-.83.8-2.39,1.2-4.71,1.2v4.41H82.2V50.93h-.71c-2.22,0-3.68-.48-4.39-1.45S76,46.81,76,44.35V21.9a.39.39,0,0,1-.2-.45,2.4,2.4,0,0,0-.78-2.78.41.41,0,0,1,0-.71l.74-.43a3.46,3.46,0,0,1,0-3A3.55,3.55,0,0,1,76,14.13ZM65.86,25.38a.42.42,0,0,1,0-.83A.42.42,0,0,1,65.86,25.38Zm-5,27.89a.42.42,0,0,1,0-.83A.42.42,0,0,1,60.83,53.27Zm1.46-.49a.41.41,0,0,1,0-.82A.41.41,0,0,1,62.29,52.78ZM73.72,23.07a.9.9,0,0,1,0-1.79A.9.9,0,0,1,73.72,23.07ZM66.18,38.5a.41.41,0,0,1,0,.82A.41.41,0,0,1,66.18,38.5Zm-1.06,9.33a.43.43,0,0,1,.41-.42h.81l.09,0,.08,0a.37.37,0,0,1,.35.23.91.91,0,0,1-.52,1.64.87.87,0,0,1-.85-1.05.47.47,0,0,1-.25-.11A.45.45,0,0,1,65.12,47.83Zm1.22,5a.9.9,0,0,1,0-1.79A.9.9,0,0,1,66.34,52.8Zm.89-17.3a.42.42,0,0,1,.41-.41.45.45,0,0,1,.29.12l0,.07h0a.4.4,0,0,1,.32,0,.44.44,0,0,1,.19.25.42.42,0,0,1,0,.31c-.15.29-.35.53-.49.81a.4.4,0,0,1-.25.19.41.41,0,0,1-.22,0,.42.42,0,0,1-.3-.39ZM68.1,39a.91.91,0,0,1,.39,1.71.36.36,0,0,1-.07.1h0s0,0,0,0,0,0,0,0V41a.45.45,0,0,1-.12.29.42.42,0,0,1-.29.12.29.29,0,0,1-.16,0,.29.29,0,0,1-.14-.08.35.35,0,0,1-.08-.13.32.32,0,0,1,0-.16.53.53,0,0,1,0-.13.85.85,0,0,1,0-.23h0A.91.91,0,0,1,68.1,39Zm.68,5.66a.38.38,0,0,1-.4-.4.28.28,0,0,1,0,.15.22.22,0,0,1-.08.13.38.38,0,0,1-.13.09.3.3,0,0,1-.16,0H67.8a.46.46,0,0,1-.2-.05l-.09-.07a.4.4,0,0,1-.1-.18l0-.11a.29.29,0,0,1,0-.16.26.26,0,0,1,.08-.13.38.38,0,0,1,.13-.09.3.3,0,0,1,.16,0H68a.46.46,0,0,1,.2,0l.09.07a.32.32,0,0,1,.1.18s0,.07,0,.1a.38.38,0,0,1,.4-.4A.41.41,0,0,1,68.78,44.67Zm1.43-27.21a2.53,2.53,0,0,1-.07-.48,1.63,1.63,0,0,1,0-.44,2.35,2.35,0,0,1,.14-.37,1.66,1.66,0,0,1,.22-.3l.06-.06a2.15,2.15,0,0,1,.24-.18,1.58,1.58,0,0,1,.35-.16l.18-.05a2.28,2.28,0,0,1,.9,0l.27.05a.87.87,0,0,1,.53.41.92.92,0,0,1,.09.69.62.62,0,0,1-.16.3s0,.05-.08.08a.84.84,0,0,1-.21.35c-.08.08-.16.17-.25.25a2.57,2.57,0,0,1-.4.34l-.13.07a1.62,1.62,0,0,1-.33.13,1.73,1.73,0,0,1-.75,0A.91.91,0,0,1,70.21,17.46Zm2.13,5.47a.41.41,0,0,1,0,.82A.41.41,0,0,1,72.34,22.93ZM72.27,38.1a.4.4,0,0,1-.12.29.38.38,0,0,1-.13.09.41.41,0,0,1-.16,0,.48.48,0,0,1-.25-.09.42.42,0,0,1-.24.09.4.4,0,0,1-.29-.12.38.38,0,0,1-.09-.13.45.45,0,0,1,0-.16.41.41,0,0,1,0-.16.3.3,0,0,1,.09-.13.53.53,0,0,1,.14-.12l.07,0,.16-.07.13,0h.2l.16.07.07,0a.81.81,0,0,1,.14.12A.38.38,0,0,1,72.27,38.1Zm1.28,6.56a1.07,1.07,0,0,1-.19.28.88.88,0,0,1-.63.26.92.92,0,0,1-.54-.18l-.08,0a1.32,1.32,0,0,0-.3-.08l-.4,0a.94.94,0,0,1-.64-.26.92.92,0,0,1-.26-.63.94.94,0,0,1,.26-.64,1,1,0,0,1,.64-.26l.43,0c.2,0,.4,0,.6.1a2.58,2.58,0,0,1,.53.19l.12.07a1.78,1.78,0,0,1,.27.21.68.68,0,0,1,.13.18A.41.41,0,0,1,73.55,44.66Zm.74-18.31a.42.42,0,0,1,0-.83A.42.42,0,0,1,74.29,26.35Z" fill="#fff"/><path d="M129.54,1.53V5.94h.67c2.22,0,3.69.48,4.41,1.45s1.07,2.67,1.07,5.13V35.67c1.59.43.85,2.73.27,4a2.22,2.22,0,0,1,1,1.21c.2.82-.59,1.15-1.26,1.22v2.24q0,3.6-1,5.1c-.69,1-2.17,1.48-4.46,1.48h-.67v4.41h18.12V45.89a1.69,1.69,0,0,1-1,0,.42.42,0,0,1-.31-.4,1.81,1.81,0,0,1,.2-.78,2.94,2.94,0,0,1,.32-.49,1.08,1.08,0,0,1-.08-.19,3.56,3.56,0,0,1,0-1.49.4.4,0,0,1,.4-.3,1.31,1.31,0,0,1,.44.07V30l-.15.17a.41.41,0,0,1-.69-.26s0,0,0,0,0,0,0-.06,0,0,0,0v0c0-.08-.09-.18-.12-.26l-.09-.22a1.91,1.91,0,0,1-.89,0,1.58,1.58,0,0,1-1-.75.41.41,0,0,1,.35-.62h1a.51.51,0,0,1,.21.06.9.9,0,0,1,.4-.29h0a.87.87,0,0,1,.55-.46.2.2,0,0,1,0-.07c0-.1,0-.19-.06-.29a.9.9,0,0,1,.55-1.07V22l-.14-.06a2.55,2.55,0,0,1-.69-.49,2.23,2.23,0,0,1-.19-.24c-.1,0-.2.05-.3.09-.33.12-.56-.24-.51-.51a4.15,4.15,0,0,1,.34-1,2.91,2.91,0,0,1,.16-.84,1,1,0,0,1,.42-.53.69.69,0,0,1,.25-.1,3.45,3.45,0,0,0,.61-1.89l-.64,0a.42.42,0,0,1-.41-.42,1.85,1.85,0,0,1,1.1-1.78V12.52q0-3.6,1-5.09c.69-1,2.17-1.49,4.46-1.49H154V1.53Zm13.67,23.2a.41.41,0,0,1,0,.82A.41.41,0,0,1,143.21,24.73Zm0,4.32a.42.42,0,0,1,0,.83A.42.42,0,0,1,143.21,29.05ZM139.87,18.3a.42.42,0,0,1,0,.83A.42.42,0,0,1,139.87,18.3Zm-2.72,3.58a.9.9,0,0,1,0-1.8A.9.9,0,0,1,137.15,21.88Zm.75-3.25a.41.41,0,0,1,0-.82A.41.41,0,0,1,137.9,18.63Zm1.92,4.58a.9.9,0,0,1,0-1.79A.9.9,0,0,1,139.82,23.21Zm2.32,9.7a2.83,2.83,0,0,1-.66-.72.33.33,0,0,1-.33,0,.84.84,0,0,1-.42-.64,1.15,1.15,0,0,1,0-.19s0,0,0-.06,0,0,0,0a.24.24,0,0,0,0-.08.4.4,0,0,1,.12-.4.44.44,0,0,1,.2-.44.4.4,0,0,1,.49.08.41.41,0,0,1,.37.4.92.92,0,0,1,0,.16,9.26,9.26,0,0,1,.85,1.46.42.42,0,0,1-.61.47Zm1.12,9.29a.9.9,0,0,1,0-1.79A.9.9,0,0,1,143.26,42.2Zm1.44-12.33a.88.88,0,0,1,.69-.09.59.59,0,0,1,.3.16.56.56,0,0,1,.23.25.93.93,0,0,1,.11.57l.13,0a.89.89,0,0,1,.54.41.65.65,0,0,1,.11.33.73.73,0,0,1,0,.36.62.62,0,0,1-.16.3.65.65,0,0,1-.17.16l0,0,.08-.06a.87.87,0,0,0-.16.17l.08-.11h0a1.18,1.18,0,0,1-.17.22,1.09,1.09,0,0,1-.49.28,1.38,1.38,0,0,1-1.06-.21,1,1,0,0,1-.44-.55,1,1,0,0,1,0-.29v0a1.22,1.22,0,0,1-.11-.56,1.63,1.63,0,0,1,.07-.3,3,3,0,0,1,.07-.51A.89.89,0,0,1,144.7,29.87Z" fill="#fff"/><path d="M171.22,46.41l.11-9h-3.64a22.59,22.59,0,0,1-2.56,7.41,3.4,3.4,0,0,1-.29.48l-.24.37a1.21,1.21,0,0,1,.57.45.86.86,0,0,1-.08,1,1.58,1.58,0,0,1-1.53.47c-.28.12-.57.22-.86.32-1.94,1.71-4.6,2.58-8,2.58a10.77,10.77,0,0,1-5-.82,1.48,1.48,0,0,1-.13-.08v5.7H165a.45.45,0,0,1,0-.28.42.42,0,0,1,.5-.29l.16,0h.07l.26,0,.54.06a4.88,4.88,0,0,1,1.07.24.51.51,0,0,1,.25.2h3.33l0-2.91-.25-.07a.42.42,0,0,1-.29-.51,13,13,0,0,0,.17-3.94,2.09,2.09,0,0,1,.34-1.41Zm-4.88,4.35a.69.69,0,0,1-.17.3.56.56,0,0,1-.25.23.65.65,0,0,1-.33.11h0s0,.08,0,.12a.66.66,0,0,1-.08.34.68.68,0,0,1-.18.29.7.7,0,0,1-.29.19.69.69,0,0,1-.35.07,2,2,0,0,1-.42-.06,2.6,2.6,0,0,1-.36-.13l-.12-.07-.22-.17,0,0-.17-.22,0,0a2,2,0,0,1-.11-.26s0,0,0,0a2.51,2.51,0,0,1,0-.27v0a2.7,2.7,0,0,1,0-.28.06.06,0,0,1,0,0,1,1,0,0,1,.12-.3.19.19,0,0,1,.05-.09,1.68,1.68,0,0,1,.3-.35,1.89,1.89,0,0,1,.27-.2l.22-.1a1.36,1.36,0,0,1,.39-.12,2,2,0,0,1,.54,0,2.93,2.93,0,0,1,.59.11.88.88,0,0,1,.39.24l.14.18a.81.81,0,0,1,.13.45Zm1.79,1.31a.48.48,0,0,1-.23-.07.59.59,0,0,1-.29-.18l-.14-.18-.09-.22v-.08a.42.42,0,0,1,.07-.76l0-.08a2.6,2.6,0,0,1,.19-.42,1.58,1.58,0,0,1,.15-.24.89.89,0,0,1,.32-.32l.21-.09a.82.82,0,0,1,.44,0,.38.38,0,0,1,.38-.36.42.42,0,0,1,.19.78.56.56,0,0,1,.09.21.54.54,0,0,1,0,.25l0,.09a.66.66,0,0,1,.08.34.72.72,0,0,1-.08.35.75.75,0,0,1-.18.28l-.45.45a.59.59,0,0,1-.29.18.44.44,0,0,1-.22.07A.49.49,0,0,1,168.13,52.07Zm1.23,2a.9.9,0,0,1-.13-1.78.4.4,0,0,1,.31-.14.37.37,0,0,1,.38.33A.91.91,0,0,1,169.36,54.08ZM170,50a.41.41,0,0,1,0-.82A.41.41,0,0,1,170,50Z" fill="#fff"/><path d="M85.76,1.53V5.94h.68c2.22,0,3.69.48,4.4,1.45s1.08,2.67,1.08,5.13V37.26a1.85,1.85,0,0,1,.38.56,8.55,8.55,0,0,1,.58,3.32,9.28,9.28,0,0,1-.12,1.66,2,2,0,0,1-.42,1.05.38.38,0,0,1-.42.09v.41q0,3.6-1,5.1c-.69,1-2.18,1.48-4.46,1.48h-.68v4.41h18.11v-10c0-.61,0-1.3,0-2.08V37.19a.89.89,0,0,1-1-.65,3.8,3.8,0,0,1,0-2.14,1.07,1.07,0,0,1,.23-.4l.19-.14a.87.87,0,0,1,.55-.11V24.17c-.21-.22-.36-.48-.58-.72a.42.42,0,0,1,0-.58c0-.06.09-.13.14-.2a1.61,1.61,0,0,1-.79-1.31,1.56,1.56,0,0,1,.26-.93,1,1,0,0,1-.11-.29,2,2,0,0,1,.14-1.27,3.72,3.72,0,0,1,.84-1.2,3,3,0,0,1,.1-.32V12.52q0-3.6,1-5.09c.68-1,2.17-1.49,4.46-1.49h.91V1.53Zm16.17,29.09a.42.42,0,0,1,0-.83A.42.42,0,0,1,101.93,30.62Zm-.12-8a.41.41,0,0,1,0,.82A.41.41,0,0,1,101.81,22.63Zm-.49,11.61a.42.42,0,0,1,0,.83A.42.42,0,0,1,101.32,34.24Zm0,12a.42.42,0,0,1,0,.83A.42.42,0,0,1,101.32,46.23ZM95,4.71a.41.41,0,0,1,0,.82A.41.41,0,0,1,95,4.71ZM94,2.48a.42.42,0,0,1,0,.83A.42.42,0,0,1,94,2.48ZM93,7a.66.66,0,0,1-.34,0,.62.62,0,0,1-.31-.16.53.53,0,0,1-.13-.13l-.11-.11-.06,0h0a1.33,1.33,0,0,1-.14-.19l0,0a1,1,0,0,1-.09-.8.88.88,0,0,1,.13-.3,2,2,0,0,1,.23-.28.84.84,0,0,1,.4-.23l.23,0a.69.69,0,0,1,.35.07.7.7,0,0,1,.29.19l.66.67a.86.86,0,0,1,.23.39l0,.24a.9.9,0,0,1-.13.45L94,6.84a.67.67,0,0,1-.28.19.81.81,0,0,1-.7,0Zm.78,27.6A1.39,1.39,0,0,1,93.4,34c-.06-.16-.09-.33-.15-.49a.43.43,0,0,1,.29-.51.41.41,0,0,1,.22,0,.43.43,0,0,1,.39-.27.42.42,0,0,1,.41.41,3.85,3.85,0,0,1-.14,1.22.41.41,0,0,1-.29.29A.42.42,0,0,1,93.73,34.58Zm1.11,7.84a.9.9,0,0,1,0-1.79A.9.9,0,0,1,94.84,42.42ZM98.62,8.31a.9.9,0,0,1,0,1.79A.9.9,0,0,1,98.62,8.31Zm1,13.9a.9.9,0,0,1,0-1.79A.9.9,0,0,1,99.62,22.21Zm2.11,28a.9.9,0,0,1,0-1.79A.9.9,0,0,1,101.73,50.19Zm.82-18.7a.42.42,0,0,1,0-.83A.42.42,0,0,1,102.55,31.49Z" fill="#fff"/><path d="M94.9,37.66a.38.38,0,0,1-.09.13h0s0,0,0,.06l0,.09a.29.29,0,0,1-.1.12.26.26,0,0,1-.15.07.29.29,0,0,1-.16,0,.25.25,0,0,1-.15,0l-.08,0L94,38l0,0-.08-.1s0,0,0-.06a.14.14,0,0,1,0-.06h0s0,0,0-.06,0,0,0-.05h0s0-.09,0-.11a.27.27,0,0,1,.06-.12.36.36,0,0,1,.07-.1h0l.09-.07a1.39,1.39,0,0,1,.13-.06l.06,0,.17,0h.07a.56.56,0,0,1,.21.06l.08.07a.42.42,0,0,1,.11.18v.11A.41.41,0,0,1,94.9,37.66Z" fill="#fff"/><path d="M123.92,37.44a20.68,20.68,0,0,1-3.65,9,.44.44,0,0,1,.11.4c-.14.69-.24,1.4-.37,2.1a.43.43,0,0,1-.4.3l-.72-.12h0a2,2,0,0,1-.19.24,1.18,1.18,0,0,1-.25.19l-.14.06a.59.59,0,0,1-.14.06,1.1,1.1,0,0,1-.31,0,1.26,1.26,0,0,1-.27,0h-.07l-.23-.09,0,0a2.69,2.69,0,0,1-.27-.2.24.24,0,0,0-.06-.08,7.81,7.81,0,0,1-.88.39l-.09.09a.36.36,0,0,1-.44.09,14.85,14.85,0,0,1-4.57.67,10.74,10.74,0,0,1-5-.82l-.15-.09v5.71h21.56l.2-17.9Zm-11.61,15.3a.41.41,0,0,1,0-.82A.41.41,0,0,1,112.31,52.74Zm3.52-.55a.9.9,0,0,1,0-1.79A.9.9,0,0,1,115.83,52.19Zm7.48-5.47a.42.42,0,0,1,0,.83A.42.42,0,0,1,123.31,46.72ZM120.84,52a.42.42,0,0,1,0-.83A.42.42,0,0,1,120.84,52Zm1.39-3.15a.41.41,0,0,1-.51.29.4.4,0,0,1-.25-.19h0a.48.48,0,0,1-.37.08.42.42,0,0,1-.29-.51,1.59,1.59,0,0,1,.19-.42l.12-.2-.1,0-.16-.06a.4.4,0,0,1-.3-.45A.42.42,0,0,1,121,47l.11,0h0a2.59,2.59,0,0,1,.4.09l.19.07a.54.54,0,0,1,.22.34l.14.18A1.59,1.59,0,0,1,122.23,48.85Zm1.33,1.42-.09,0a1,1,0,0,1-.31,0,.9.9,0,1,1,.79-.51A.39.39,0,0,1,123.56,50.27Z" fill="#fff"/><path d="M34.71,29.55v-5H17.9V20.33a.29.29,0,0,1-.16,0,.32.32,0,0,1-.16,0,.26.26,0,0,1-.13-.08.68.68,0,0,1-.23-.44h0s0-.1,0-.11h0a.45.45,0,0,1,.11-.19l.1-.08.12-.05a.65.65,0,0,1,.24,0h.09V12.52q0-3.84,1.16-5.21c.77-.92,2.35-1.37,4.73-1.37V1.53H0V5.94c2.39,0,4,.43,4.76,1.28a.52.52,0,0,1,.13-.06.42.42,0,0,1,.51.28c.07.25.15.49.24.73a.32.32,0,0,1,.17-.06.41.41,0,0,1,.07.81,3.31,3.31,0,0,1,.12.7.41.41,0,0,1-.13.76c0,.36.08.73.1,1.14a.47.47,0,0,1,.08.14v.1a.29.29,0,0,1,0,.16S6,12,6,12v0H6a.9.9,0,0,1,0,1.79H6v.54h.06a.42.42,0,0,1,.16.79v.11a.45.45,0,0,1,0,.16l0,0a.36.36,0,0,1,.06.2,4.83,4.83,0,0,1-.09,1.08,0,0,0,0,0,0,0,.44.44,0,0,1-.11.31,1.19,1.19,0,0,1,.26.11.89.89,0,0,1,.35.48,1.18,1.18,0,0,1,0,.53,2,2,0,0,1-.47.91.37.37,0,0,1-.19.11v0a.32.32,0,0,1,.19.1,1.54,1.54,0,0,1,.28.5,1.14,1.14,0,0,1,0,.52,1,1,0,0,1-.24.44A1.08,1.08,0,0,1,6,21v.59a.34.34,0,0,1,.15.33,2.71,2.71,0,0,0,.43,1.9.38.38,0,0,1,0,.41c-.35.46-.25.71,0,1.19a3,3,0,0,1,.34,1.1,8.69,8.69,0,0,1-.35,2.63.38.38,0,0,1-.21.25,3.9,3.9,0,0,0,.12.46l.17.31.15.29s.13.25.06.16h0a.39.39,0,0,1,.14.29,1.58,1.58,0,0,1-.11.78c-.14.27-.36.51-.47.78,0,.73,0,1.47,0,2.2l.07.08A3.54,3.54,0,0,1,7,37.55a13.19,13.19,0,0,0-.42,2,1,1,0,0,0,.08.23.38.38,0,0,1,0,.39c.1.4.28.78.38,1.17a4.89,4.89,0,0,1,.13,1.32A4.57,4.57,0,0,1,7,46.85a1,1,0,0,1-1.11.38,1.11,1.11,0,0,0,.08.44,1.85,1.85,0,0,1,.23.71.93.93,0,0,1-.59.75.39.39,0,0,1-.46-.05,2.27,2.27,0,0,1-.36.52Q3.61,50.94,0,50.93v4.41H12.7l-.09-.07,0,0a1.49,1.49,0,0,1-.15-.2,1,1,0,0,1-.14-.51,1.08,1.08,0,0,1,.15-.52v0a1.39,1.39,0,0,1,.15-.19l0,0a3.36,3.36,0,0,1,1.16-.63,1,1,0,0,1,.48,0l.22.09a.93.93,0,0,1,.41.54.76.76,0,0,1,0,.3l.34,0,.11,0a1,1,0,0,1,.4.23l.14.19a.92.92,0,0,1,.09.69s0,.07,0,.11h7.82V50.93q-3.67,0-4.78-1.41c-.74-.93-1.11-2.66-1.11-5.17V29.55Zm-3-1.48a.42.42,0,0,1,0,.83A.42.42,0,0,1,31.69,28.07ZM6.38,11.37a.42.42,0,0,1,0-.83A.42.42,0,0,1,6.38,11.37Zm10.73,2.29a.41.41,0,0,1,0,.82A.41.41,0,0,1,17.11,13.66Zm-.53,1.12a.83.83,0,0,1,.85.8.44.44,0,0,1-.12.6.82.82,0,0,1-.73.4A.9.9,0,0,1,16.58,14.78ZM13.45,38.64a.41.41,0,0,1,0,.82A.41.41,0,0,1,13.45,38.64ZM10.12,24h.3a.41.41,0,0,1,0,.82h-.3A.41.41,0,0,1,10.12,24ZM9.6,32.07s.05,0,.07.06l.1.08a.7.7,0,0,1,.14.16.54.54,0,0,1,.1.2,1.24,1.24,0,0,1,0,.27.45.45,0,0,1-.12.3.45.45,0,0,1-.29.12.29.29,0,0,1-.16,0,.22.22,0,0,1-.13-.08.43.43,0,0,1-.13-.3v0l0,0,0,0h0c-.06-.05-.13-.09-.19-.15a.4.4,0,0,1-.12-.29.39.39,0,0,1,.12-.3A.29.29,0,0,1,9.15,32a.34.34,0,0,1,.32,0A.35.35,0,0,1,9.6,32.07Zm-.29,5.64a.41.41,0,0,1,0-.82A.41.41,0,0,1,9.31,37.71Zm0,6.53a.42.42,0,0,1,0-.83A.42.42,0,0,1,9.31,44.24ZM8.54,12.69a.9.9,0,0,1,0,1.8A.9.9,0,0,1,8.54,12.69ZM7.76,53.38a.22.22,0,0,1-.1.11l-.12.07h0a1.55,1.55,0,0,0-.22.12.92.92,0,0,1-.39.11.45.45,0,0,1-.29-.12.16.16,0,0,1,0-.07h0a.27.27,0,0,1-.11-.1.39.39,0,0,1-.08-.14.41.41,0,0,1,0-.22,1.5,1.5,0,0,1,.2-.4l.17-.21A1.84,1.84,0,0,1,7,52.35a.44.44,0,0,1,.32,0,.38.38,0,0,1,.24.19.42.42,0,0,1,.05.31h0a.42.42,0,0,1,.15.57ZM7.33,17.24a.81.81,0,0,1-.72-.38.42.42,0,0,1-.12-.75.81.81,0,0,1,.84-.66A.9.9,0,0,1,7.33,17.24Zm4.16,29.07,0,.12a.36.36,0,0,1-.07.18,3.54,3.54,0,0,1-.16.34,2,2,0,0,1-.4.52.89.89,0,0,1-.63.27,1.08,1.08,0,0,1-.31-.07h0a2.2,2.2,0,0,1-.68.48.42.42,0,0,1-.5-.07.72.72,0,0,1-.2-.5c0-.1,0-.19,0-.29a.57.57,0,0,0,0-.14l0,0a.52.52,0,0,1,0-.3.48.48,0,0,1,.19-.25.34.34,0,0,1,.14,0v0h0a.64.64,0,0,1-.24-.25l0-.08a2.36,2.36,0,0,1-.12-.28.5.5,0,0,1,0-.13c0-.1,0-.2,0-.29s0-.05,0-.07V45.3a.89.89,0,0,1,.12-.45l.14-.18a1,1,0,0,1,.4-.24l.24,0a.66.66,0,0,1,.34.08l.1.05.2-.1a.92.92,0,0,1,.69.1.82.82,0,0,1,.28.25.34.34,0,0,1,.25-.1.42.42,0,0,1,.2.77.55.55,0,0,1,.14.17A.88.88,0,0,1,11.49,46.31Zm2.71-5a.68.68,0,0,1-.18.29l-.14.1s0,0,0,0a.44.44,0,0,1-.17.16.62.62,0,0,1-.3.16l-.24,0-.24,0L12.71,42l-.06,0-.05,0a.4.4,0,0,1-.32,0l0,0a1.57,1.57,0,0,1-.5-.25.56.56,0,0,1-.17-.35.89.89,0,0,1-.15-.31.88.88,0,0,1,.09-.69.61.61,0,0,1,.23-.25.67.67,0,0,1,.3-.16.73.73,0,0,1,.36,0,.72.72,0,0,1,.25.07l.29.07h0a1.37,1.37,0,0,1,.35.08h.1a.9.9,0,0,1,.64.26,1.07,1.07,0,0,1,.26.63A.69.69,0,0,1,14.2,41.35Zm.05-15.43a.61.61,0,0,1-.25-.23.61.61,0,0,1-.07-.1.43.43,0,0,1-.19-.6,2.37,2.37,0,0,1,0-.88,3.32,3.32,0,0,1,.24-.59,1.69,1.69,0,0,1,.23-.36.92.92,0,0,1,.32-.33l.22-.09a.93.93,0,0,1,.69.09,1,1,0,0,1,.41.54.74.74,0,0,1,0,.33h0a.92.92,0,0,1,.09.63,3.54,3.54,0,0,1-.07.73,1.14,1.14,0,0,1-.13.3,1.39,1.39,0,0,1-.21.27,2,2,0,0,1-.66.37A.84.84,0,0,1,14.25,25.92Zm1.11,9.85a.42.42,0,0,1,0,.83A.42.42,0,0,1,15.36,35.77Zm.15,9.1a.41.41,0,0,1,0-.82A.41.41,0,0,1,15.51,44.87ZM16.58,27.7a.9.9,0,0,1,0-1.79A.9.9,0,0,1,16.58,27.7Z" fill="#fff"/><path d="M4.88,54.19a.38.38,0,0,1-.09.13s0,0-.06,0h0l-.07.08a.42.42,0,0,1-.18.11H4.37a.29.29,0,0,1-.16,0,.3.3,0,0,1-.13-.09A.38.38,0,0,1,4,54.32a.29.29,0,0,1,0-.16A.66.66,0,0,1,4,54H4s0-.07,0-.11l0,0,.06-.09h0l.1-.08,0,0,.11,0H4.5a.37.37,0,0,1,.21.06l.08.07a.34.34,0,0,1,.11.18V54A.23.23,0,0,1,4.88,54.19Z" fill="#fff"/><path d="M8.33,40.14a.4.4,0,0,1-.18.1l-.11,0a.29.29,0,0,1-.16,0,.29.29,0,0,1-.14-.08A.32.32,0,0,1,7.66,40a.26.26,0,0,1,0-.15v-.16a.37.37,0,0,1,.06-.21l.06-.09a.5.5,0,0,1,.19-.1l.11,0a.32.32,0,0,1,.16,0,.35.35,0,0,1,.13.08.29.29,0,0,1,.08.14.29.29,0,0,1,0,.16v.16a.36.36,0,0,1-.06.2Z" fill="#fff"/><path d="M16.53,40.8a.3.3,0,0,1-.09.13l-.1.1a.83.83,0,0,1-.15.11l0,0-.11.05h0l-.13,0h-.12a.46.46,0,0,1-.33-.33s0,0,0-.05,0-.12,0-.18v-.17a.42.42,0,0,1,.06-.21l.06-.08a.42.42,0,0,1,.18-.11h.11a.41.41,0,0,1,.16,0,.42.42,0,0,1,.14.09l0,0h0a.46.46,0,0,1,.21.05l.08.07a.38.38,0,0,1,.09.13.44.44,0,0,1,0,.32Z" fill="#fff"/><path d="M52.4,6.09a14.12,14.12,0,0,1,2.17-.15V1.53H30.85V5.94c2.4,0,4,.47,4.7,1.43s1.09,2.67,1.09,5.15V24.59h0v5h0v2a.32.32,0,0,1,.15.06A1.33,1.33,0,0,1,37.45,33a3,3,0,0,1-.18.58.84.84,0,0,0-.07.49v.09l0,.15c0,.11,0,.22.08.33a5.54,5.54,0,0,1,.12.69,1.12,1.12,0,0,1-.52,1.14.44.44,0,0,1-.28,0v7.87a18.56,18.56,0,0,1-.09,1.91,1.34,1.34,0,0,1,.06.4,1.5,1.5,0,0,1-.13.66.42.42,0,0,1,.42,0,.41.41,0,0,1,.14.43c-.1.26-.11.54-.19.8a1.09,1.09,0,0,1-.69.74.37.37,0,0,1-.42-.13,2.75,2.75,0,0,1-.23.33q-1.12,1.4-4.66,1.39v4.41H54.57V50.93c-2.49,0-4.11-.45-4.88-1.37s-1.14-2.65-1.14-5.21V42h0a.42.42,0,0,1,0-.83h0v-.6h0a.42.42,0,0,1,0-.83h0V38a.68.68,0,0,1-.24.12.79.79,0,0,1-.9-.62,1,1,0,0,1,.12-.73,2.91,2.91,0,0,1-.51-.43.41.41,0,0,1,.18-.69c.45-.11.21-.73.2-1.08A1.1,1.1,0,0,1,48,33.35c.23-.09.39-.09.47-.34a1.57,1.57,0,0,0,0-.3v-.95a1.59,1.59,0,0,0-.12-.52,2.09,2.09,0,0,0-.28.17.4.4,0,0,1-.6-.25,2.12,2.12,0,0,1,1-2.11V26.19s0,0,0-.07a1.6,1.6,0,0,1,0-1.32V23.56a1.34,1.34,0,0,1-.26-.43,2.17,2.17,0,0,1,.26-1.42V12.52a12.3,12.3,0,0,1,.54-4.1h0l-.24,0a.71.71,0,0,1-.31-.16A.92.92,0,0,1,48.28,8a.7.7,0,0,1-.1-.34.59.59,0,0,1,0-.35s0-.1,0-.15l.12-.26a.14.14,0,0,1,0-.06l.05-.08c.06-.07.11-.15.17-.21l0,0,0,0,.21-.17.07,0,.25-.1,0,0,.09,0,.32,0h.1a.86.86,0,0,1,.36.08h0a.41.41,0,0,1,.6-.25c-.11,0,0,0,0,0l.09,0h0a.56.56,0,0,0,0-.12.43.43,0,0,1,.4-.3,3.31,3.31,0,0,1,.89,0,.43.43,0,0,1,.29.51A.16.16,0,0,1,52.4,6.09Zm-6-1.37a.42.42,0,0,1,0,.83A.42.42,0,0,1,46.39,4.72Zm-.14,10.53a.41.41,0,0,1,0,.82A.41.41,0,0,1,46.25,15.25Zm-.71,10a.42.42,0,0,1,0,.83A.42.42,0,0,1,45.54,25.27ZM43.87,30a.42.42,0,0,1,.29-.29.41.41,0,0,1,.38.09s0,0,0,0a.42.42,0,0,1,.57-.15,1.17,1.17,0,0,1,.64,1,1.39,1.39,0,0,1-.42,1,.42.42,0,0,1-.5.06,3.39,3.39,0,0,1-.73-.58,1.24,1.24,0,0,1-.27-.49A1.08,1.08,0,0,1,43.87,30Zm-1.16.46a.29.29,0,0,1,0,.16.26.26,0,0,1-.08.13.42.42,0,0,1-.17.1s0,0,0,0a.29.29,0,0,1,0,.16.3.3,0,0,1-.09.13l-.08.07-.1,0a.29.29,0,0,1-.16,0,.2.2,0,0,1-.11,0,.38.38,0,0,1-.13-.09l-.07-.08a1.06,1.06,0,0,1-.06-.19.58.58,0,0,1,0-.19.13.13,0,0,1,0-.06.28.28,0,0,1,0-.09,1.23,1.23,0,0,1,0-.2,1,1,0,0,1,.06-.18.42.42,0,0,1,.57-.15l0,0h0a.41.41,0,0,1,.3.12A.43.43,0,0,1,42.71,30.42Zm-.92,3a.47.47,0,0,1-.12.3.45.45,0,0,1-.29.12.41.41,0,0,1-.19,0h0a.75.75,0,0,1-.25-.13l-.07-.06a.31.31,0,0,1-.1-.15.29.29,0,0,1,0-.16v-.05a1.85,1.85,0,0,1,0-.23.77.77,0,0,1,.08-.19.94.94,0,0,1,.09-.12l0,0a1.13,1.13,0,0,1,.56-.27.45.45,0,0,1,.32,0,.48.48,0,0,1,.19.25.4.4,0,0,1-.05.32.4.4,0,0,1-.24.18A.48.48,0,0,1,41.79,33.38ZM38.18,12.3c.11-.2.25-.39.35-.59a.38.38,0,0,1,.31-.19.41.41,0,0,1,.42-.13,1,1,0,0,1,.56.42,1.19,1.19,0,0,1,.17.58,2.3,2.3,0,0,1-.28,1.12.37.37,0,0,1-.2.17.36.36,0,0,1-.27,0,2.64,2.64,0,0,0-.48-.14l-.12,0h-.28a.42.42,0,0,1-.41-.41A1.65,1.65,0,0,1,38.18,12.3Zm.64,7.11a.9.9,0,0,1,0,1.79A.9.9,0,0,1,38.82,19.41Zm-.39,27.24a.41.41,0,0,1,0-.82A.41.41,0,0,1,38.43,46.65Zm1-2.7a.42.42,0,0,1,0-.83A.42.42,0,0,1,39.42,44Zm.48-20.56a.51.51,0,0,1-.16-.09.47.47,0,0,1-.12-.3.44.44,0,0,1,.07-.22h0a1.83,1.83,0,0,1,.06-.25.41.41,0,0,1,.07-.15v-.21a.37.37,0,0,1,.09-.24.28.28,0,0,0,0-.09.94.94,0,0,1,.42-.54A.92.92,0,0,1,41,21.2a.94.94,0,0,1,.53.41l.06.13a.93.93,0,0,1,.46.24.92.92,0,0,1,.26.64,2.17,2.17,0,0,1,0,.26,1.5,1.5,0,0,1-.17.66,1.52,1.52,0,0,1-1.15.71.79.79,0,0,1-.48,0,.62.62,0,0,1-.3-.16.64.64,0,0,1-.24-.25A.89.89,0,0,1,39.9,23.39Zm1,19.69a.9.9,0,0,1,0,1.79A.9.9,0,0,1,40.91,43.08Zm.33,6a.9.9,0,0,1,0-1.79A.9.9,0,0,1,41.24,49.06Zm2.69-8.22a1.61,1.61,0,0,1-1,0,1.52,1.52,0,0,1-1.12-1.53,2.12,2.12,0,0,1,.26-.92,1.8,1.8,0,0,1,1.56-1,.84.84,0,0,1,.27,0,1.07,1.07,0,0,1,.27-.25.9.9,0,0,1,1.23.32,1.83,1.83,0,0,1,.14,1.2,2.48,2.48,0,0,1-.3.84,2.78,2.78,0,0,1-.5.68A2.21,2.21,0,0,1,43.93,40.84Zm1.26,2.07a.42.42,0,0,1,0-.83A.42.42,0,0,1,45.19,42.91ZM45.83,41a.42.42,0,0,1,0-.83A.42.42,0,0,1,45.83,41Zm.07-7.77a.41.41,0,0,1,0-.82A.41.41,0,0,1,45.9,33.23ZM47.38,40a.42.42,0,0,1,0,.83A.42.42,0,0,1,47.38,40Zm-.2,1.18A.89.89,0,0,1,48,42.5h0a.8.8,0,0,1-.78.49A.9.9,0,0,1,47.18,41.21ZM47,33.37a.41.41,0,0,1,0-.82A.41.41,0,0,1,47,33.37Zm0-15.11a.42.42,0,0,1,0-.83A.42.42,0,0,1,47,18.26Zm.84,10a.42.42,0,0,1,0-.83A.42.42,0,0,1,47.8,28.29Zm.38-22.72a.9.9,0,0,1,0-1.8A.9.9,0,0,1,48.18,5.57Zm.47-2.35a.42.42,0,0,1,0-.83A.42.42,0,0,1,48.65,3.22ZM50.57,4.3a.46.46,0,0,1-.15.09.41.41,0,0,0,0,.11.46.46,0,0,1-.13.29.38.38,0,0,1-.29.12.4.4,0,0,1-.39-.3.45.45,0,0,1-.09-.25,2.26,2.26,0,0,1,0-.26l0-.23a1,1,0,0,1,.08-.21s0,0,0,0A.41.41,0,0,1,50,3.33a.36.36,0,0,1,.27,0,.22.22,0,0,1,.13.08l.07.09.07.11a.6.6,0,0,0,.08.08.47.47,0,0,1,.12.3A.45.45,0,0,1,50.57,4.3Zm1,.72a.9.9,0,0,1,0-1.8A.9.9,0,0,1,51.59,5Z" fill="#fff"/><path d="M47.06,43.77a.31.31,0,0,1,0-.08.59.59,0,0,1,.17-.27.6.6,0,0,1,.13-.09l.15-.07,0,0,.08,0a.42.42,0,0,1,.21-.06l.11,0a.4.4,0,0,1,.25.19.25.25,0,0,1,.05.15.29.29,0,0,1,0,.16.31.31,0,0,1-.07.14.32.32,0,0,1-.12.11s0,0,0,0v0a.37.37,0,0,1-.07.14h0a.36.36,0,0,1,0,.09l0,0,0,.05h0l-.09.07h0l-.1,0h-.33a.39.39,0,0,1-.14-.08.27.27,0,0,1-.08-.07.37.37,0,0,1-.07-.14V44A1.49,1.49,0,0,1,47.06,43.77Z" fill="#fff"/><path d="M45.24,35.47l-.05.1a.29.29,0,0,1-.1.12.37.37,0,0,1-.14.07.33.33,0,0,1-.17,0,.3.3,0,0,1-.15-.05l-.05,0-.12-.09h0l-.07-.1a.31.31,0,0,1-.06-.13.45.45,0,0,1,0-.12h0a.44.44,0,0,1,.06-.23l0,0a.44.44,0,0,1,.08-.11.52.52,0,0,1,.19-.11h.11a.46.46,0,0,1,.2,0l.09.07a.26.26,0,0,1,.08.13.26.26,0,0,1,0,.15h0l.05.1A.81.81,0,0,1,45.24,35.47Z" fill="#fff"/></svg>