<svg xmlns="http://www.w3.org/2000/svg" viewBox="0 0 270 65"><path d="M45.95 3.77l-6.46 16.29s.85.96 3.23-.27l9.53-16.02h-6.3zM52.25 5.48l-7.27 14.94s2.14 1 3.63 0l9.62-16.23-5.98 1.28z" fill="#fff"/><path d="M63.35 1.91c-1.51-.16-12.73-.61-17.32-.79-1.18-.05-2.27.63-2.75 1.71l-4.96 11.02h-9.15l-.46-7.13 4.61-3.01c.65-.42.34-1.43-.44-1.42l-25.49.45c-1.25.02-1.99 1.39-1.34 2.45l5.37 8.66-8.88-.04a2.54 2.54 0 0 0-2.52 2.91l2.34 15.73a2.269 2.269 0 0 0 2.24 1.93h10.98c.85 9.71 10.76 24.02 21.46 26.51 6.47 1.51 10.39 1.19 12.49.71.94-.22 1.28-1.38.6-2.06l-1-1c-.51-.51-.41-1.36.19-1.74l3.86-2.43c1.05-.66.57-2.28-.67-2.26-3.77.05-8.96-.44-12.78-3.02-6.69-4.53-8.86-15.81-8.86-15.81h15.04c.26 0 .48.19.51.45l1.27 8.95c.21 1.48 2.24 1.73 2.81.35l10.92-26.86c.36-.88-.29-1.84-1.24-1.84h-4.83l3.61-7.35s1.9-.66 4.4-1.38c2.49-.72 1.9-3.48 0-3.67zm-.71 1.81l-3.77 1.82-9.23 15.94c-4.36 2.04-6.09-.59-6.09-.59-2.68 1.82-6.05.48-6.05.48l7.27-18.32c.13-.32.44-.52.78-.51l16.98.66c.29.01.37.4.11.53zM101.45 3.28l-6.62 16.58s2.11.54 3.64-.48l8.83-15.9-5.84-.2zM102.85 13.22l-2.75 6.47s1.16 1.26 3.3.17l9.75-16.14-5.84 1.09-4.45 8.41z" fill="#fff"/><path d="M117.46 1.27c-1.95-.04-12.88-.51-16.85-.68-.87-.04-1.66.47-1.99 1.28L94.45 12.1H66.39c-1.87 0-2.86 2.22-1.61 3.61l2.55 2.84c.52.58.51 1.46-.03 2.02l-6.11 6.46c-.96 1.02-.24 2.7 1.16 2.7h26.57s-2.27 13.33-11.97 17.95c-5.94 2.83-12.31 3.49-16.37 3.57-1.48.03-2.18 1.83-1.11 2.86l3.05 2.93c.57.54.59 1.44.06 2.02l-1.12 1.2c-.69.74-.21 1.95.8 2.01 5.14.3 17.54-.2 28.22-10.32 14.43-13.67 20.34-34.1 21.2-37.29.07-.27.01-.55-.16-.77l-.41-.52a.921.921 0 0 1-.07-1.03l3.3-5.64c.11-.19.28-.32.49-.38.53-.15 1.72-.51 3.59-1.13 2.66-.89 1.69-3.85-.93-3.9zm.14 2.23l-4.22 1.71-8.97 15.44c-4.53 2.38-5.38-.14-5.38-.14-2.34 1.57-5.95.73-5.95.73l7.25-18.88a.9.9 0 0 1 .88-.57l16.27 1.01c.38.02.47.55.11.69zM122.31 3.35l-5.25 11.17c-.6 1.27.33 2.73 1.73 2.73h23.57c7.26 0 10.8-3.89 9.55-6.26-.82-1.56-1.1-2.31.33-3.01.68-.33 4.01-1.71 7.33-3.08 1.64-.68 1.18-3.12-.6-3.14l-33.51-.4c-1.35-.02-2.59.76-3.17 1.98zM116.87 20.36l39.87.99c.84.02 1.14 1.12.42 1.56l-6.53 3.99c-.29.18-.43.53-.34.86l.38 1.31c.1.35.06.73-.12 1.05-1.12 1.99-5.6 9.53-12.78 16.56-7.91 7.74-18.93 15.19-33.27 15.36-1.03.01-1.64-1.17-1.03-2l.41-.56c.3-.41.22-.98-.18-1.29l-.87-.67c-.64-.5-.37-1.53.43-1.64 3.89-.56 12.19-2.23 19.32-6.97 9.68-6.43 10.24-12.54 10.24-12.54h-23.1c-1.29 0-2.14-1.34-1.58-2.5l5.42-11.46c.6-1.27 1.89-2.07 3.3-2.03zM153.48 28.91l-5.74 11.26c-.65 1.27.28 2.78 1.71 2.78h11.15c5.23 0 9.79-3.81 9.79-5.31s-1.56-2-1.39-3.45c.1-.82 3.47-2.93 6.36-4.59 1.09-.62.65-2.28-.6-2.29l-18.38-.16c-1.22-.01-2.34.67-2.89 1.76z" fill="#fff"/><path d="M180.89 1.4l38.54.54c1.35.02 1.85 1.79.7 2.51-2.65 1.65-5.86 3.71-7.1 4.52-.31.2-.45.59-.33.95l2.46 7.23c.31.91.15 1.91-.41 2.68L196.5 44.67l9.32 15.92c.57.98-.11 2.22-1.25 2.25l-18.28.52c-1.39.04-2.62-.88-2.98-2.22l-7.57-27.93c-.36-1.32.6-2.62 1.97-2.67l9.74-.38c.74-.03 1.43.38 1.76 1.05l1.17 2.39 10.6-15.8-27.06.65c-1.41.03-2.38-1.41-1.83-2.7l5.14-11.97c.63-1.46 2.07-2.4 3.67-2.38zM256.37 6.25h12.36c1.3 0 1.76 1.72.64 2.37l-6.57 3.81c-.46.27-.7.81-.58 1.33.78 3.49 2.71 17.06-9.62 32.25-10.59 13.05-22.32 17.08-27.7 18.29-1.75.39-3.55-.36-4.51-1.88l-9.65-15.27c-.8-1.26.16-2.89 1.65-2.81 5.92.31 18.05-.33 29.56-8.81 10.68-7.88 11.65-20.46 11.47-26.22a2.963 2.963 0 0 1 2.96-3.06z" fill="#fff"/><path d="M240.09 22.05l-3.77-1.61a.909.909 0 0 0-1.24.63c-.7 3.05-3.64 7.56-6.62 7.47-3.36-.1-4.08-3.36-1.89-6.52 1.42-2.05 4.69-2.86 6.48-3.15.59-.1.9-.75.62-1.27l-2.06-3.82c-.28-.51-.84-.81-1.42-.75-11.9 1.27-14.14 11.27-12.64 15.92 1.54 4.77 5.66 9.48 14.37 7.03 6.29-1.76 8.48-8.99 9.13-12.04.17-.78-.24-1.57-.98-1.89zm-12.34-6.01c.5 0 .91.41.91.91s-.41.91-.91.91-.91-.41-.91-.91.41-.91.91-.91zm-7.22 11.11c0-.5.41-.91.91-.91s.91.41.91.91-.41.91-.91.91-.91-.41-.91-.91zm1.57 3.57c-.33 0-.59-.26-.59-.59s.26-.59.59-.59.59.26.59.59-.26.59-.59.59zm-.53-6.32c-.65 0-1.18-.53-1.18-1.18s.53-1.18 1.18-1.18 1.18.53 1.18 1.18-.53 1.18-1.18 1.18zm2.28 7.92c-.33 0-.59-.26-.59-.59s.26-.59.59-.59.59.26.59.59-.26.59-.59.59zm.08-11.69c-.65 0-1.18-.53-1.18-1.18s.53-1.18 1.18-1.18 1.18.53 1.18 1.18-.53 1.18-1.18 1.18zm3.3 12.57c-.5 0-.91-.41-.91-.91s.41-.91.91-.91.91.41.91.91-.41.91-.91.91zm3.84 0c-.65 0-1.18-.53-1.18-1.18s.53-1.18 1.18-1.18 1.18.53 1.18 1.18-.53 1.18-1.18 1.18zm3.58-2.36c-.65 0-1.18-.53-1.18-1.18s.53-1.18 1.18-1.18 1.18.53 1.18 1.18-.53 1.18-1.18 1.18zm2.26-4.4c-.5 0-.91-.41-.91-.91s.41-.91.91-.91.91.41.91.91-.41.91-.91.91z" fill="#fff"/></svg>