<svg xmlns="http://www.w3.org/2000/svg" viewBox="0 0 280 83"><path d="M24.39.95v5.33h-9.01v24.78H9.05V6.28H0V.95h24.39zM47.72 17.99v13.07h-5.94V17.52c0-1.2-.2-2.17-.61-2.9-.53-1.03-1.54-1.55-3.02-1.55s-2.71.51-3.5 1.54c-.8 1.03-1.19 2.5-1.19 4.4v12.05h-5.8V1.05h5.8v10.64c.84-1.29 1.82-2.2 2.93-2.71 1.11-.51 2.28-.77 3.5-.77 1.38 0 2.63.24 3.75.72s2.05 1.21 2.77 2.19c.61.83.99 1.69 1.12 2.56.14.88.2 2.31.2 4.3zM72.22 24.53c-.15 1.32-.84 2.66-2.06 4.02-1.91 2.17-4.58 3.25-8.01 3.25-2.83 0-5.33-.91-7.5-2.74-2.17-1.82-3.25-4.79-3.25-8.91 0-3.85.98-6.81 2.93-8.87 1.95-2.06 4.49-3.08 7.61-3.08 1.85 0 3.52.35 5.01 1.04 1.48.69 2.71 1.79 3.68 3.29.87 1.32 1.44 2.85 1.7 4.6.15 1.02.21 2.49.18 4.41H57.27c.08 2.23.78 3.8 2.1 4.7.8.56 1.77.84 2.9.84 1.2 0 2.17-.34 2.92-1.02.41-.37.77-.88 1.08-1.53h5.94zm-5.76-6.83c-.1-1.54-.56-2.71-1.4-3.5-.84-.8-1.88-1.2-3.12-1.2-1.35 0-2.39.42-3.14 1.27-.74.84-1.21 1.99-1.4 3.43h9.05zM101.49 31.06H88.52V.95h12.97c1.87.03 3.42.25 4.66.65 2.11.69 3.82 1.97 5.13 3.82 1.05 1.5 1.76 3.12 2.15 4.86.38 1.74.57 3.4.57 4.98 0 4-.8 7.4-2.41 10.17-2.18 3.75-5.54 5.62-10.09 5.62zm4.68-22.43c-.97-1.63-2.88-2.45-5.74-2.45h-5.8v19.65h5.8c2.97 0 5.04-1.46 6.21-4.39.64-1.61.96-3.52.96-5.74 0-3.06-.48-5.42-1.43-7.07zM136.83 11.62c1.88 2.36 2.82 5.14 2.82 8.36s-.94 6.06-2.82 8.39c-1.88 2.32-4.73 3.48-8.56 3.48s-6.68-1.16-8.56-3.48c-1.88-2.32-2.82-5.12-2.82-8.39s.94-6 2.82-8.36c1.88-2.36 4.73-3.53 8.56-3.53s6.68 1.18 8.56 3.53zm-8.58 1.39c-1.7 0-3.01.6-3.93 1.81-.92 1.21-1.38 2.92-1.38 5.16s.46 3.96 1.38 5.17c.92 1.21 2.23 1.82 3.93 1.82s3.01-.61 3.92-1.82c.91-1.21 1.37-2.93 1.37-5.17s-.46-3.95-1.37-5.16c-.91-1.21-2.22-1.81-3.92-1.81zM163.08 16.78h-5.97c-.11-.83-.39-1.58-.84-2.25-.65-.9-1.67-1.35-3.04-1.35-1.96 0-3.3.97-4.02 2.92-.38 1.04-.57 2.41-.57 4.13s.19 2.95.57 3.94c.69 1.85 2 2.78 3.92 2.78 1.36 0 2.33-.37 2.9-1.1.57-.74.92-1.69 1.04-2.86h5.95c-.14 1.77-.78 3.45-1.92 5.03-1.83 2.55-4.53 3.82-8.11 3.82s-6.22-1.06-7.91-3.19-2.53-4.88-2.53-8.27c0-3.83.93-6.8 2.8-8.93 1.87-2.12 4.44-3.19 7.72-3.19 2.79 0 5.08.63 6.85 1.88 1.78 1.25 2.83 3.47 3.16 6.64zM177.28 26.92v4.35l-2.76.1c-2.75.1-4.63-.38-5.64-1.43-.65-.67-.98-1.7-.98-3.08V13.15h-3.11V9h3.11V2.79h5.76V9h3.62v4.15h-3.62v11.77c0 .91.12 1.48.35 1.71.23.22.94.34 2.13.34.18 0 .36 0 .56-.01.2 0 .39-.02.58-.03zM199.59 11.62c1.88 2.36 2.82 5.14 2.82 8.36s-.94 6.06-2.82 8.39c-1.88 2.32-4.73 3.48-8.56 3.48s-6.68-1.16-8.56-3.48c-1.88-2.32-2.82-5.12-2.82-8.39s.94-6 2.82-8.36c1.88-2.36 4.73-3.53 8.56-3.53s6.68 1.18 8.56 3.53zm-8.58 1.39c-1.7 0-3.01.6-3.93 1.81-.92 1.21-1.38 2.92-1.38 5.16s.46 3.96 1.38 5.17c.92 1.21 2.23 1.82 3.93 1.82s3.01-.61 3.92-1.82c.91-1.21 1.37-2.93 1.37-5.17s-.46-3.95-1.37-5.16c-.91-1.21-2.22-1.81-3.92-1.81zM217.77 14.17c-2.34 0-3.92.76-4.72 2.29-.45.86-.67 2.18-.67 3.96v10.64h-5.86V8.8h5.56v3.88c.9-1.48 1.68-2.5 2.35-3.04 1.09-.91 2.51-1.37 4.25-1.37.11 0 .2 0 .28.01.07 0 .24.02.5.03v5.97c-.37-.04-.69-.07-.98-.08-.29-.01-.52-.02-.69-.02zM2.88 61.41c1.54-1.96 4.18-2.94 7.93-2.94 2.44 0 4.6.48 6.5 1.45 1.89.97 2.84 2.79 2.84 5.47V75.6c0 .71.01 1.57.04 2.57.04.76.16 1.28.35 1.55.19.27.48.5.86.67v.86h-6.33c-.18-.45-.3-.87-.37-1.27-.07-.39-.12-.84-.16-1.35-.8.87-1.73 1.61-2.78 2.23-1.25.72-2.67 1.08-4.25 1.08-2.02 0-3.68-.58-4.99-1.73S.55 77.43.55 75.32c0-2.74 1.06-4.72 3.17-5.94 1.16-.67 2.86-1.14 5.11-1.43l1.98-.25c1.08-.14 1.85-.31 2.31-.51.83-.35 1.25-.91 1.25-1.65 0-.91-.32-1.54-.95-1.89-.63-.35-1.56-.52-2.79-.52-1.38 0-2.35.34-2.92 1.02-.41.5-.68 1.18-.82 2.04H1.25c.12-1.95.67-3.55 1.63-4.8zm4.33 15.65c.54.45 1.21.67 2 .67 1.25 0 2.41-.37 3.46-1.1 1.06-.74 1.6-2.08 1.64-4.02v-2.17c-.37.23-.74.42-1.11.56-.37.14-.89.28-1.54.4l-1.31.25c-1.23.22-2.1.48-2.64.8-.9.53-1.35 1.36-1.35 2.47 0 .99.28 1.71.84 2.15zM35.79 63.31c-1.98 0-3.33.84-4.07 2.51-.38.89-.57 2.02-.57 3.39v12.05h-5.8V59.03h5.62v3.25c.75-1.14 1.46-1.97 2.13-2.47 1.2-.9 2.72-1.35 4.56-1.35 2.3 0 4.18.6 5.65 1.81s2.2 3.2 2.2 6v14.99h-5.97V67.72c0-1.17-.16-2.07-.47-2.7-.57-1.14-1.66-1.72-3.27-1.72zM71.13 51.2v30.07h-5.66v-3.08c-.83 1.32-1.78 2.28-2.84 2.88-1.06.6-2.38.9-3.96.9-2.6 0-4.79-1.05-6.57-3.16s-2.67-4.8-2.67-8.1c0-3.8.87-6.79 2.63-8.97 1.75-2.18 4.09-3.27 7.02-3.27 1.35 0 2.55.3 3.6.89 1.05.59 1.9 1.41 2.55 2.46V51.2h5.9zM55.44 70.28c0 2.06.41 3.7 1.23 4.92.8 1.24 2.03 1.86 3.68 1.86s2.9-.61 3.76-1.84c.86-1.23 1.29-2.81 1.29-4.76 0-2.72-.69-4.67-2.06-5.84-.84-.71-1.83-1.06-2.94-1.06-1.7 0-2.95.64-3.75 1.93-.8 1.29-1.19 2.88-1.19 4.79zM98.24 77.12v4.35l-2.76.1c-2.75.1-4.63-.38-5.64-1.43-.65-.67-.98-1.7-.98-3.08V63.35h-3.11V59.2h3.11v-6.21h5.76v6.21h3.62v4.15h-3.62v11.77c0 .91.12 1.48.35 1.71.23.22.94.34 2.13.34.18 0 .36 0 .56-.01.2 0 .39-.02.58-.03zM122.1 68.2v13.07h-5.94V67.73c0-1.2-.2-2.17-.61-2.9-.53-1.03-1.54-1.55-3.02-1.55s-2.71.51-3.5 1.54c-.8 1.03-1.19 2.5-1.19 4.4v12.05h-5.8V51.26h5.8V61.9c.84-1.29 1.82-2.2 2.93-2.71 1.11-.51 2.28-.77 3.5-.77 1.38 0 2.63.24 3.75.72s2.05 1.21 2.77 2.19c.61.83.99 1.69 1.12 2.56.14.88.2 2.31.2 4.3zM146.6 74.73c-.15 1.32-.84 2.66-2.06 4.02-1.91 2.17-4.58 3.25-8.01 3.25-2.83 0-5.33-.91-7.5-2.74-2.17-1.82-3.25-4.79-3.25-8.91 0-3.85.98-6.81 2.93-8.87 1.95-2.06 4.49-3.08 7.61-3.08 1.85 0 3.52.35 5.01 1.04 1.48.69 2.71 1.79 3.68 3.29.87 1.32 1.44 2.85 1.7 4.6.15 1.02.21 2.49.18 4.41h-15.24c.08 2.23.78 3.8 2.1 4.7.8.56 1.77.84 2.9.84 1.2 0 2.17-.34 2.92-1.02.41-.37.77-.88 1.08-1.53h5.94zm-5.76-6.82c-.1-1.54-.56-2.71-1.4-3.5-.84-.8-1.88-1.2-3.12-1.2-1.35 0-2.39.42-3.14 1.27-.74.84-1.21 1.99-1.4 3.43h9.05zM175.69 70.44h-6.39v10.83h-6.25V51.16h13.12c3.02 0 5.43.78 7.23 2.33s2.7 3.96 2.7 7.21c0 3.55-.9 6.07-2.7 7.54-1.8 1.47-4.37 2.21-7.7 2.21zm2.94-6.27c.82-.72 1.23-1.87 1.23-3.43s-.41-2.68-1.24-3.35c-.82-.67-1.98-1-3.46-1h-5.86v8.87h5.86c1.48 0 2.64-.36 3.47-1.08zM209.4 74.73c-.15 1.32-.84 2.66-2.06 4.02-1.91 2.17-4.58 3.25-8.01 3.25-2.83 0-5.33-.91-7.5-2.74-2.17-1.82-3.25-4.79-3.25-8.91 0-3.85.98-6.81 2.93-8.87 1.95-2.06 4.49-3.08 7.61-3.08 1.85 0 3.52.35 5.01 1.04 1.48.69 2.71 1.79 3.68 3.29.87 1.32 1.44 2.85 1.7 4.6.15 1.02.21 2.49.18 4.41h-15.24c.08 2.23.78 3.8 2.1 4.7.8.56 1.77.84 2.9.84 1.2 0 2.17-.34 2.92-1.02.41-.37.77-.88 1.08-1.53h5.94zm-5.76-6.82c-.1-1.54-.56-2.71-1.4-3.5-.84-.8-1.88-1.2-3.12-1.2-1.35 0-2.39.42-3.14 1.27-.74.84-1.21 1.99-1.4 3.43h9.05zM224.09 63.31c-1.98 0-3.33.84-4.07 2.51-.38.89-.57 2.02-.57 3.39v12.05h-5.8V59.03h5.62v3.25c.75-1.14 1.46-1.97 2.13-2.47 1.2-.9 2.72-1.35 4.56-1.35 2.3 0 4.18.6 5.65 1.81s2.2 3.2 2.2 6v14.99h-5.97V67.72c0-1.17-.16-2.07-.47-2.7-.57-1.14-1.66-1.72-3.27-1.72zM258.43 66.99h-5.97c-.11-.83-.39-1.58-.84-2.25-.65-.9-1.67-1.35-3.04-1.35-1.96 0-3.3.97-4.02 2.92-.38 1.04-.57 2.41-.57 4.13s.19 2.95.57 3.94c.69 1.85 2 2.78 3.92 2.78 1.36 0 2.33-.37 2.9-1.1.57-.74.92-1.69 1.04-2.86h5.95c-.14 1.77-.78 3.45-1.92 5.03-1.83 2.55-4.53 3.82-8.11 3.82s-6.22-1.06-7.91-3.19c-1.69-2.12-2.53-4.88-2.53-8.27 0-3.83.93-6.8 2.8-8.93 1.87-2.12 4.44-3.19 7.72-3.19 2.79 0 5.08.63 6.85 1.88 1.78 1.25 2.83 3.47 3.16 6.64zM268.42 50.97v5.37h-5.9v-5.37h5.9zm0 8.03v22.27h-5.9V59h5.9zM274.18 51.16H280v30.11h-5.82V51.16z" fill="#fff"/></svg>