<svg xmlns="http://www.w3.org/2000/svg" width="340" height="28" viewBox="0 0 340 28"><path d="M17.55.46V5.75H17a8,8,0,0,0-1-2.63,4,4,0,0,0-1.54-1.28,5.08,5.08,0,0,0-1.92-.25H11.1V16.66a6.22,6.22,0,0,0,.16,1.87,1.52,1.52,0,0,0,.65.66,2.59,2.59,0,0,0,1.32.28h.65V20H3.65v-.53h.64a2.7,2.7,0,0,0,1.37-.3,1.4,1.4,0,0,0,.59-.69,5.85,5.85,0,0,0,.16-1.82V1.59H5a4.1,4.1,0,0,0-2.87.83A5.56,5.56,0,0,0,.55,5.75H0V.46Z" fill="#fff"/><path d="M24.32.46v7.8a8.24,8.24,0,0,1,2-1.65,4.15,4.15,0,0,1,1.92-.49,3.37,3.37,0,0,1,2.17.73,3.45,3.45,0,0,1,1.2,1.69,13,13,0,0,1,.29,3.28v5.26A3.86,3.86,0,0,0,32.22,19a1.6,1.6,0,0,0,1.17.48V20H26.56v-.52a1.55,1.55,0,0,0,1.08-.57,4,4,0,0,0,.26-1.83v-6A10.24,10.24,0,0,0,27.77,9a1.35,1.35,0,0,0-.44-.66,1.12,1.12,0,0,0-.7-.24,1.88,1.88,0,0,0-1.13.4,5,5,0,0,0-1.18,1.39v7.22a4.31,4.31,0,0,0,.22,1.8,1.38,1.38,0,0,0,1.12.6V20H18.83v-.52A1.66,1.66,0,0,0,20,18.94a4,4,0,0,0,.25-1.86V3.39A4,4,0,0,0,20,1.48,1.74,1.74,0,0,0,18.83,1V.46Z" fill="#fff"/><path d="M45.85,12.78h-7.4A7,7,0,0,0,39.88,17a3,3,0,0,0,2.39,1.2,2.66,2.66,0,0,0,1.57-.49A6,6,0,0,0,45.36,16l.49.31a8.21,8.21,0,0,1-2.42,3.17,5.23,5.23,0,0,1-3.07.93,5.11,5.11,0,0,1-4.54-2.31,8.11,8.11,0,0,1-1.24-4.61A7.68,7.68,0,0,1,36.4,8.12a5.63,5.63,0,0,1,4.27-2A4.64,4.64,0,0,1,44.23,7.8,7.71,7.71,0,0,1,45.85,12.78Zm-3.55-1a13.27,13.27,0,0,0-.25-3.19,2.69,2.69,0,0,0-.78-1.31,1.25,1.25,0,0,0-.81-.26,1.43,1.43,0,0,0-1.23.74,6.32,6.32,0,0,0-.85,3.51v.51Z" fill="#fff"/><path d="M60.29,11.15v5.42a6,6,0,0,0,.2,2,1.42,1.42,0,0,0,.69.65,4.46,4.46,0,0,0,1.82.25V20H53.07v-.53a4.45,4.45,0,0,0,1.84-.25,1.5,1.5,0,0,0,.68-.66,6,6,0,0,0,.19-2V3.89a6,6,0,0,0-.19-2,1.39,1.39,0,0,0-.69-.66A4.6,4.6,0,0,0,53.07,1V.46h8.52q4.22,0,6,1.5a4.66,4.66,0,0,1,1.83,3.75A4.75,4.75,0,0,1,68.28,9,6,6,0,0,1,65,10.81,22.41,22.41,0,0,1,60.29,11.15Zm0-9.56V10l.72,0A3.45,3.45,0,0,0,63.72,9a4.64,4.64,0,0,0,1-3.23,4.52,4.52,0,0,0-1-3.19,3.72,3.72,0,0,0-2.84-1Z" fill="#fff"/><path d="M76.14,6.53V9.58a10.08,10.08,0,0,1,2.35-2.77,3.46,3.46,0,0,1,2-.69,1.75,1.75,0,0,1,1.29.5A1.94,1.94,0,0,1,82.21,8a2.23,2.23,0,0,1-.47,1.5,1.46,1.46,0,0,1-1.13.53,2,2,0,0,1-1.33-.49A7,7,0,0,0,78.62,9a.62.62,0,0,0-.33-.08,1.2,1.2,0,0,0-.79.31,2.94,2.94,0,0,0-.9,1.4,10,10,0,0,0-.46,3.08v3.1l0,.81a3.2,3.2,0,0,0,.1,1.05,1.1,1.1,0,0,0,.51.57,2.8,2.8,0,0,0,1.14.22V20H70.64v-.52A1.56,1.56,0,0,0,71.83,19a4.57,4.57,0,0,0,.31-2.17V9.38A5.36,5.36,0,0,0,72,7.91a1.16,1.16,0,0,0-.42-.59,2.29,2.29,0,0,0-1-.26V6.53Z" fill="#fff"/><path d="M88.11,6.53V17.21A3.1,3.1,0,0,0,88.45,19a1.77,1.77,0,0,0,1.29.45V20H82.46v-.52A1.79,1.79,0,0,0,83.79,19a3.27,3.27,0,0,0,.29-1.76V9.34a3.21,3.21,0,0,0-.33-1.82,1.77,1.77,0,0,0-1.29-.46V6.53ZM86.1,0a2.13,2.13,0,0,1,1.58.66,2.15,2.15,0,0,1,.65,1.57,2.11,2.11,0,0,1-.66,1.57,2.11,2.11,0,0,1-1.57.65,2.14,2.14,0,0,1-1.58-.65,2.13,2.13,0,0,1-.64-1.57A2.14,2.14,0,0,1,84.52.66,2.15,2.15,0,0,1,86.1,0Z" fill="#fff"/><path d="M103.36.46V16a11.82,11.82,0,0,0,.08,1.86,1.2,1.2,0,0,0,.44.7,2.31,2.31,0,0,0,1.13.29v.48l-5.69,1.11V18.27A7.09,7.09,0,0,1,97.5,20a3.65,3.65,0,0,1-1.81.45,4.64,4.64,0,0,1-4.08-2.31,8.27,8.27,0,0,1-1.21-4.6,9.61,9.61,0,0,1,.75-3.89A5.87,5.87,0,0,1,93.2,7,5,5,0,0,1,96,6.12a3.77,3.77,0,0,1,1.71.38,5.87,5.87,0,0,1,1.6,1.31V3.75a7.08,7.08,0,0,0-.13-1.86,1.19,1.19,0,0,0-.52-.62,2.76,2.76,0,0,0-1.29-.2V.46Zm-4,9.14c-.71-1.37-1.58-2-2.61-2a1.35,1.35,0,0,0-.88.29A3.32,3.32,0,0,0,95,9.41a13.12,13.12,0,0,0-.34,3.44A13.9,13.9,0,0,0,95,16.63a3.64,3.64,0,0,0,1,1.77,1.34,1.34,0,0,0,.91.28c.84,0,1.64-.67,2.39-2Z" fill="#fff"/><path d="M117.29,12.78h-7.4A7,7,0,0,0,111.32,17a3,3,0,0,0,2.39,1.2,2.66,2.66,0,0,0,1.57-.49A6,6,0,0,0,116.8,16l.49.31a8.21,8.21,0,0,1-2.42,3.17,5.23,5.23,0,0,1-3.07.93,5.11,5.11,0,0,1-4.54-2.31A8.11,8.11,0,0,1,106,13.49a7.68,7.68,0,0,1,1.82-5.37,5.63,5.63,0,0,1,4.27-2,4.64,4.64,0,0,1,3.56,1.68A7.71,7.71,0,0,1,117.29,12.78Zm-3.55-1a13.27,13.27,0,0,0-.25-3.19,2.69,2.69,0,0,0-.78-1.31,1.25,1.25,0,0,0-.81-.26,1.43,1.43,0,0,0-1.23.74,6.32,6.32,0,0,0-.85,3.51v.51Z" fill="#fff"/><path d="M131.11,6.12a6.31,6.31,0,0,1,3.28.91,5.87,5.87,0,0,1,2.29,2.58,8.44,8.44,0,0,1,.79,3.66,7.76,7.76,0,0,1-1.46,4.8,5.73,5.73,0,0,1-4.85,2.34,5.56,5.56,0,0,1-4.69-2.14,7.9,7.9,0,0,1-1.64-4.94,8,8,0,0,1,1.68-5.05A5.51,5.51,0,0,1,131.11,6.12Zm.06,1a1.67,1.67,0,0,0-1.26.55,3.88,3.88,0,0,0-.69,2.19c-.11,1.09-.17,2.61-.17,4.55a18.56,18.56,0,0,0,.21,2.88,2.82,2.82,0,0,0,.67,1.56,1.69,1.69,0,0,0,2.27.17,2.38,2.38,0,0,0,.74-1.37,32.23,32.23,0,0,0,.29-5.53A13.94,13.94,0,0,0,133,8.78a2.53,2.53,0,0,0-.81-1.33A1.51,1.51,0,0,0,131.17,7.15Z" fill="#fff"/><path d="M144.63,7.94v9.35a3,3,0,0,0,.29,1.7,2,2,0,0,0,1.7.49V20h-7.94v-.52a3.45,3.45,0,0,0,1.29-.2,1,1,0,0,0,.52-.55,4.36,4.36,0,0,0,.15-1.44V7.94h-2V6.53h2v-1l0-.67a4.48,4.48,0,0,1,1.52-3.46A5.92,5.92,0,0,1,146.26,0a4.31,4.31,0,0,1,2.63.67,1.86,1.86,0,0,1,.85,1.47,1.44,1.44,0,0,1-.53,1.12,2,2,0,0,1-1.41.48,1.72,1.72,0,0,1-1.19-.39,1.16,1.16,0,0,1-.44-.87,3.26,3.26,0,0,1,.09-.53,1.9,1.9,0,0,0,.05-.46.55.55,0,0,0-.17-.45.79.79,0,0,0-.56-.21.87.87,0,0,0-.7.34,1.74,1.74,0,0,0-.28,1.11l0,2.52V6.53h2V7.94Z" fill="#fff"/><path d="M161.31,11.15v5.42a6.09,6.09,0,0,0,.19,2,1.42,1.42,0,0,0,.69.65,4.52,4.52,0,0,0,1.83.25V20h-9.93v-.53a4.51,4.51,0,0,0,1.84-.25,1.48,1.48,0,0,0,.67-.66,5.91,5.91,0,0,0,.2-2V3.89a5.91,5.91,0,0,0-.2-2,1.41,1.41,0,0,0-.68-.66A4.67,4.67,0,0,0,154.09,1V.46h8.51q4.22,0,6,1.5a4.66,4.66,0,0,1,1.83,3.75A4.75,4.75,0,0,1,169.29,9,6,6,0,0,1,166,10.81,22.3,22.3,0,0,1,161.31,11.15Zm0-9.56V10l.72,0A3.48,3.48,0,0,0,164.74,9a4.69,4.69,0,0,0,.95-3.23,4.57,4.57,0,0,0-.95-3.19,3.74,3.74,0,0,0-2.84-1Z" fill="#fff"/><path d="M176.84.46V17.21a3.21,3.21,0,0,0,.33,1.82,1.78,1.78,0,0,0,1.3.45V20h-7.28v-.52a1.75,1.75,0,0,0,1.32-.51,3.17,3.17,0,0,0,.29-1.76V3.26a3.19,3.19,0,0,0-.33-1.81A1.76,1.76,0,0,0,171.19,1V.46Z" fill="#fff"/><path d="M185.15,20.55l-4.35-10a13.66,13.66,0,0,0-1.45-2.78,2.55,2.55,0,0,0-1.13-.72V6.53h7.16v.53a1.6,1.6,0,0,0-1,.28.72.72,0,0,0-.29.59,7.07,7.07,0,0,0,.72,2.16l2.3,5.27,1.58-4.08a10.44,10.44,0,0,0,.85-3,1.07,1.07,0,0,0-.36-.85A2,2,0,0,0,188,7.06V6.53h4.51v.53a1.67,1.67,0,0,0-1.08.51,12.64,12.64,0,0,0-1.4,3l-3.85,10A21.71,21.71,0,0,1,184,25.16a3.1,3.1,0,0,1-2.5,1.21,2.76,2.76,0,0,1-1.93-.68,2.17,2.17,0,0,1-.75-1.65,2,2,0,0,1,.52-1.39,1.66,1.66,0,0,1,1.26-.54,1.53,1.53,0,0,1,1.16.46,2.06,2.06,0,0,1,.45,1.42,1.4,1.4,0,0,0,.13.71.38.38,0,0,0,.33.16,1.08,1.08,0,0,0,.74-.42,9,9,0,0,0,1.35-2.77Z" fill="#fff"/><path d="M198.52,6.53V8.3a7.6,7.6,0,0,1,2-1.69,4.51,4.51,0,0,1,2.07-.49,3.78,3.78,0,0,1,2.18.61,3.86,3.86,0,0,1,1.35,1.84,8.89,8.89,0,0,1,2.21-1.87,4.66,4.66,0,0,1,2.22-.58,3.51,3.51,0,0,1,2.22.65A3.37,3.37,0,0,1,214,8.39a11.3,11.3,0,0,1,.32,3.15v5.52a3.92,3.92,0,0,0,.28,1.93,1.68,1.68,0,0,0,1.17.49V20h-7v-.52a1.51,1.51,0,0,0,1.21-.63,3.73,3.73,0,0,0,.26-1.79V11.27A10.6,10.6,0,0,0,210.12,9a1.43,1.43,0,0,0-.45-.73,1.16,1.16,0,0,0-.73-.24,2.15,2.15,0,0,0-1.26.46,5.66,5.66,0,0,0-1.28,1.36v7.23a4,4,0,0,0,.25,1.83,1.45,1.45,0,0,0,1.27.59V20h-7v-.52a1.57,1.57,0,0,0,.89-.28,1.2,1.2,0,0,0,.43-.6,6.8,6.8,0,0,0,.11-1.54V11.27A10.1,10.1,0,0,0,202.22,9a1.32,1.32,0,0,0-.48-.72A1.15,1.15,0,0,0,201,8a1.94,1.94,0,0,0-1,.3,6,6,0,0,0-1.44,1.53v7.23a4.05,4.05,0,0,0,.28,1.88,1.42,1.42,0,0,0,1.17.54V20H193v-.52a1.68,1.68,0,0,0,1.21-.54,4.14,4.14,0,0,0,.24-1.88V9.45a3.85,3.85,0,0,0-.28-1.9A1.71,1.71,0,0,0,193,7.06V6.53Z" fill="#fff"/><path d="M223.07,6.12a6.3,6.3,0,0,1,3.27.91,5.83,5.83,0,0,1,2.3,2.58,8.44,8.44,0,0,1,.79,3.66,7.76,7.76,0,0,1-1.46,4.8,5.73,5.73,0,0,1-4.85,2.34,5.56,5.56,0,0,1-4.69-2.14,7.9,7.9,0,0,1-1.64-4.94,8,8,0,0,1,1.68-5.05A5.51,5.51,0,0,1,223.07,6.12Zm.06,1a1.67,1.67,0,0,0-1.26.55,3.88,3.88,0,0,0-.69,2.19c-.11,1.09-.17,2.61-.17,4.55a19.93,19.93,0,0,0,.2,2.88,2.82,2.82,0,0,0,.68,1.56,1.67,1.67,0,0,0,2.26.17,2.33,2.33,0,0,0,.75-1.37,33.35,33.35,0,0,0,.29-5.53,13.94,13.94,0,0,0-.27-3.37,2.66,2.66,0,0,0-.81-1.33A1.53,1.53,0,0,0,223.13,7.15Z" fill="#fff"/><path d="M243.69,6.53V17.08A3.86,3.86,0,0,0,244,19a1.6,1.6,0,0,0,1.17.48V20h-5.5V18.2a6.77,6.77,0,0,1-1.93,1.68,4.43,4.43,0,0,1-2.16.53,3.2,3.2,0,0,1-2-.7,3.41,3.41,0,0,1-1.19-1.64,12.11,12.11,0,0,1-.3-3.27V9.45a3.81,3.81,0,0,0-.29-1.9,1.68,1.68,0,0,0-1.17-.49V6.53h5.49v9.21a7.67,7.67,0,0,0,.14,1.86,1.21,1.21,0,0,0,.43.63,1.17,1.17,0,0,0,.68.22,1.62,1.62,0,0,0,.94-.28,5.67,5.67,0,0,0,1.38-1.51V9.45a3.85,3.85,0,0,0-.28-1.9,1.71,1.71,0,0,0-1.17-.49V6.53Z" fill="#fff"/><path d="M251.64,1.6V6.53h3.2V8h-3.2v8.31a6.48,6.48,0,0,0,.11,1.51,1.09,1.09,0,0,0,.38.54.85.85,0,0,0,.51.21c.62,0,1.21-.47,1.77-1.42l.43.31a3.94,3.94,0,0,1-3.79,2.77,3.39,3.39,0,0,1-2.17-.71,3.15,3.15,0,0,1-1.13-1.6,13.34,13.34,0,0,1-.14-2.65V8h-1.76V7.45a18.42,18.42,0,0,0,3.09-2.69,17.09,17.09,0,0,0,2.23-3.16Z" fill="#fff"/><path d="M260.83.46v7.8a8.24,8.24,0,0,1,2-1.65,4.15,4.15,0,0,1,1.92-.49,3.5,3.5,0,0,1,3.36,2.42,12.46,12.46,0,0,1,.3,3.28v5.26a3.86,3.86,0,0,0,.29,1.92,1.6,1.6,0,0,0,1.17.48V20h-6.84v-.52a1.57,1.57,0,0,0,1.09-.57,4,4,0,0,0,.25-1.83v-6a10.55,10.55,0,0,0-.12-2.1,1.35,1.35,0,0,0-.44-.66,1.12,1.12,0,0,0-.7-.24,1.88,1.88,0,0,0-1.13.4,5,5,0,0,0-1.18,1.39v7.22a4.31,4.31,0,0,0,.22,1.8,1.36,1.36,0,0,0,1.12.6V20h-6.83v-.52a1.66,1.66,0,0,0,1.21-.54,4,4,0,0,0,.25-1.86V3.39a3.83,3.83,0,0,0-.29-1.91A1.68,1.68,0,0,0,255.34,1V.46Z" fill="#fff"/><path d="M284.37,11.1v5.47a6,6,0,0,0,.2,2,1.35,1.35,0,0,0,.68.65,4.49,4.49,0,0,0,1.83.25V20h-10v-.53a4.51,4.51,0,0,0,1.84-.25,1.48,1.48,0,0,0,.67-.66,5.91,5.91,0,0,0,.2-2V3.89a5.91,5.91,0,0,0-.2-2,1.37,1.37,0,0,0-.68-.66A4.67,4.67,0,0,0,277.08,1V.46h9.08a19.73,19.73,0,0,1,5.19.49A5.3,5.3,0,0,1,294,2.76a4.86,4.86,0,0,1,1,3.09,4.66,4.66,0,0,1-1.55,3.58,6.57,6.57,0,0,1-2.78,1.34l4.69,6.61a9.84,9.84,0,0,0,1.32,1.6,2.42,2.42,0,0,0,1.36.49V20H292l-6.3-8.9Zm0-9.59v8.56h.82a9.35,9.35,0,0,0,3-.36,3,3,0,0,0,1.56-1.33,4.84,4.84,0,0,0,.57-2.5,4.58,4.58,0,0,0-1-3.3,4.57,4.57,0,0,0-3.37-1.07Z" fill="#fff"/><path d="M304.4,6.12a6.3,6.3,0,0,1,3.27.91A5.89,5.89,0,0,1,310,9.61a8.58,8.58,0,0,1,.78,3.66,7.76,7.76,0,0,1-1.45,4.8,5.74,5.74,0,0,1-4.86,2.34,5.53,5.53,0,0,1-4.68-2.14,7.85,7.85,0,0,1-1.65-4.94,8,8,0,0,1,1.68-5.05A5.53,5.53,0,0,1,304.4,6.12Zm.06,1a1.71,1.71,0,0,0-1.27.55,3.88,3.88,0,0,0-.69,2.19c-.11,1.09-.16,2.61-.16,4.55a18.61,18.61,0,0,0,.2,2.88,2.75,2.75,0,0,0,.68,1.56,1.61,1.61,0,0,0,1.18.53,1.64,1.64,0,0,0,1.08-.36,2.45,2.45,0,0,0,.75-1.37,33.35,33.35,0,0,0,.29-5.53,13.79,13.79,0,0,0-.28-3.37,2.58,2.58,0,0,0-.8-1.33A1.53,1.53,0,0,0,304.46,7.15Z" fill="#fff"/><path d="M323,16.53l.45.35a6.78,6.78,0,0,1-2.37,2.65,5.63,5.63,0,0,1-3,.88,5.2,5.2,0,0,1-4.31-2,7.57,7.57,0,0,1-1.62-4.88,8.18,8.18,0,0,1,1.47-4.84,5.66,5.66,0,0,1,4.89-2.53,5,5,0,0,1,3.32,1.06A3.05,3.05,0,0,1,323,9.53a1.77,1.77,0,0,1-.49,1.31,1.83,1.83,0,0,1-1.31.49,1.89,1.89,0,0,1-1.4-.56,3.32,3.32,0,0,1-.69-2,2.24,2.24,0,0,0-.42-1.27,1,1,0,0,0-.77-.36,1.42,1.42,0,0,0-1.19.74,6.14,6.14,0,0,0-.75,3.4,11.08,11.08,0,0,0,.61,3.64,5.52,5.52,0,0,0,1.66,2.59,2.94,2.94,0,0,0,1.87.62,2.87,2.87,0,0,0,1.34-.34A6.35,6.35,0,0,0,323,16.53Z" fill="#fff"/><path d="M329.78.46V13.32l3.13-3.07a8.08,8.08,0,0,0,1.2-1.36,1.63,1.63,0,0,0,.24-.81.8.8,0,0,0-.32-.64,2.53,2.53,0,0,0-1.24-.38V6.53h6v.53a3.45,3.45,0,0,0-1.51.41,17.92,17.92,0,0,0-2.54,2.21l-1.47,1.45,3.17,4.64a36.73,36.73,0,0,0,2.28,3.17,1.89,1.89,0,0,0,1.24.54V20h-7v-.52a1,1,0,0,0,.67-.17.48.48,0,0,0,.21-.37,3,3,0,0,0-.61-1.23l-2.66-3.9-.87.85v2.42a3.86,3.86,0,0,0,.29,1.92,1.63,1.63,0,0,0,1.18.48V20h-7v-.52a1.66,1.66,0,0,0,1.21-.54,3.87,3.87,0,0,0,.25-1.86V3.39a4,4,0,0,0-.28-1.91A1.74,1.74,0,0,0,324.29,1V.46Z" fill="#fff"/></svg>