<svg xmlns="http://www.w3.org/2000/svg" width="340" height="34" viewBox="0 0 340 34"><path d="M0,3.34V.6H8.06c6.13,0,9.75,2.7,9.75,15.28,0,6.73-.37,15.25-9.66,15.25H0V28.38H2.47v-25Zm5.54,25H8.06c3.7,0,6.54-1,6.54-12.5S11.49,3.34,8.79,3.34H5.54Z" fill="#fff"/><path d="M29.44.6h8.24c3,0,6.82,2.6,6.82,8.1,0,3.75-1.51,7.32-5.27,8.6l6.32,13.1L42.8,31.72,35.94,17.53H32.5v13.6H29.44ZM32.5,14.79H37c2.65,0,4.3-2,4.3-6.09s-1.92-5.36-5-5.36H32.5Z" fill="#fff"/><path d="M61.11,24.35h4.22v6.78H61.11Z" fill="#fff"/><path d="M122.55,7.55c-.5-2.24-1.6-4.48-4.21-4.48-2.89,0-4,2.33-4,4.9s.5,3.25,5.31,6.13c3.75,2.24,6.32,4.12,6.32,8.83s-2.57,8.61-7.69,8.61c-5.4,0-7.37-3.57-7.83-8.42l3.07-.41c.41,3.38,1.14,5.95,4.85,5.95,2.65,0,4.53-1.79,4.53-5.45,0-4-2.61-5.4-5.77-7.23-3.52-2.06-5.86-3.53-5.86-8,0-4.12,2.75-7.79,7.1-7.79s6.41,3.07,7.19,6.92Z" fill="#fff"/><path d="M139.08.6H154V3.34H142.14V13.41h9.75v2.75h-9.75V28.38H154v2.75H139.08Z" fill="#fff"/><path d="M166.36,31.72l-2.75-1.28,8-15.93L165,1.42,167.87,0l5.22,11.4L178.31,0l2.84,1.42L174.6,14.51l8,15.93-2.75,1.28-6.68-14Z" fill="#fff"/><path d="M207.15,0,210,1.14l-7.92,18v12H199v-12L191.13,1.14,194,0l6.59,15.52Z" fill="#fff"/><path d="M259.89.6h3.84l.92,30.53H261.4l-.6-25.45h-.09L255.49,21,250.27,5.68h-.09l-.59,25.45h-3.21L247.3.6h3.8l4.39,13Z" fill="#fff"/><path d="M280.85,24.35h4.22v6.78h-4.22Z" fill="#fff"/><path d="M302.14,3.34V.6h8.06C316.33.6,320,3.3,320,15.88c0,6.73-.37,15.25-9.66,15.25h-8.15V28.38h2.47v-25Zm5.54,25h2.52c3.71,0,6.54-1,6.54-12.5s-3.11-12.54-5.81-12.54h-3.25Z" fill="#fff"/><path d="M335.79,24.35H340v6.78h-4.21Z" fill="#fff"/></svg>