<svg xmlns="http://www.w3.org/2000/svg" viewBox="0 0 230 133"><path d="M139.29 110.75c-1.6-1.54-3.44-.55-4.32 1.2-1.78 3.53-1.92 4.66-5.23 7.27-12.97 10.22-30.91 3.57-45.45.7-2.98-.59-6.02-1.02-9.02-1.54-.69-.26-30.4-4.03-43.31-4.47-2.3-.08-3.25-1.6-3.67-3.75-1.37-7.1-.33-17.35-.27-24.72.05-5.36-.19-10.77-.02-16.12.02-.6.63-2.63-.12-2.84-1.05.22-2.16.81-3.21 1-.92.17-4-.04-4.26.83-.26.89-.05 4.08-.05 5.26 0 9.59.04 19.55-.42 29.23-.11 2.34.04 4.94-.62 7.23-.16.58-1.68 4.36-2.56 3.48 0-.96.72-1.75 1-2.7 1.51-5.09.77-11.44.89-16.7.08-3.6.39-7.2.44-10.79.07-5.02-.05-10.06-.04-15.06-.11-.79-.62-.68-1.22-.5-.09 1.44.05 2.89-.01 4.33-.18 4.48-.35 9.05-.44 13.55-.12 6.08.11 12.4-.19 18.45-.16 3.06-.56 8.25-3.08 10.27-2.22 1.79-6.88 1.93-7.29 5.35.49 1.82 4.06-.8 4.91-1.16 2.46-1.04 4.31-.73 6.84-.8 18.62-.53 60.02 6.49 60.61 6.61 13.02 2.63 24.12 7.84 37.81 7.67 9.75-.12 21.5-4.33 23-15.27.21-1.56.45-4.91-.71-6.02zm-4.27 5.92c-2.8 5.12-7.62 8.12-13.2 9.49-3.55.87-8.04 1.54-11.5.17.22-.26.38-.45.74-.52 1.62-.31 4.35.13 6.15 0 6.99-.51 14.32-4.5 17.7-10.72l.64.12c.06.58-.29 1-.55 1.47zM121.51 32.93c-1.62.69-1.09-1.38-1.27-2.34-.36-1.9-2.31-3.27-4.08-3.77-1.92-.54-8.6-.84-10.45-.25s-1.87 2.87-1.98 4.6c-.12 1.94-.24 7.19.27 8.86.59 1.93 4.71 1.58 6.41 1.43 1.91-.17 3.42-.64 4.53-2.26.36-.53 1.51-3.61 2.37-3.04.45 2.1.11 4.32.22 6.46.05 1.1.89 7.06.18 7.5-.2.05-.5.09-.68.04-.28-.08-1.33-3.87-1.86-4.54-.71-.89-2.79-1.33-3.89-1.41s-5.52-.17-6.33.05-.86 1.32-.97 1.99c-.53 3.25-.6 11.06.78 14 .55 1.17 1.22 1.59 2.5 1.74 4.83.57 11.1-.96 14.51-4.53.83-.87 1.32-2.06 2.22-2.86 1.08.95.41 3.01 0 4.23-1.79 5.37-5.39 6.73-10.81 6.36-3.06-.21-6.16-.81-9.33-.85-3.33-.05-6.63.22-9.96.36-2.09-.98.94-1.8 1.68-2.47 1.14-1.03 1.7-4.3 1.81-5.82.63-8.63-.48-18 0-26.71.21-1.44-2.17-5.19-3.59-3.37-.55.7-1.59 3.18-2.01 4.14-3.48 7.95-6.07 16.31-9.37 24.34-1.11 2.71-2.57 6.72-3.98 9.16-.23.4-1.07 1.87-1.64 1.56-.75-.41-3.08-6.48-3.55-7.7-1.95-5.04-3.51-10.32-5.77-15.22l-.51-.29-.93.99C63.32 49.18 60.95 55.4 58 61.14c-.47.92-1.63 3.26-2.23 3.92-1.5 1.64-2.75-1.68-3.25-2.83-2.52-5.77-4.38-12.83-6.59-18.85-.37-1-.88-1.98-1.26-2.98-1.22-3.31-3.5-11.46-5.76-13.74-.68-.68-5.27-2.77-1.9-3s6.96.32 10.41.23c1.29-.03 4.39-1.09 3.89 1.03-3.22.33-3.95 1.68-3.32 4.73 1.15 5.49 4.68 14.47 6.84 19.87.43 1.07 1.52 3.96 2.04 4.74 1.36 2.06 3.46-2.76 3.97-3.82 1.16-2.4 2.4-5.37 3.37-7.86 1.07-2.75 1.97-4.03 1.01-7.04-.77-2.41-2.99-8.26-5-9.63-.67-.46-2.15-.75-2.55-1.28-1.18-1.55 3.38-1.23 4.17-1.18 1.22.07 2.59.45 3.81.45 1.85 0 4.36-.54 6.15-.46.92.04 1.83.37 1.07 1.3-.61.74-1.92.51-2.54 1.7-.91 1.76.41 5.36 1 7.23 1.81 5.71 4.46 13.16 6.78 18.66.28.67.95 2.52 1.82 2.02.6-.35 3.29-7.46 3.74-8.65 1.3-3.38 5.63-14.41 4.94-17.42-.62-2.69-3.49-2.97-5.63-3.8l.09-1.05 37.91.28.57.71c-.14 2.85.88 5.78-.04 8.53zm-2.35-6.46c-.28-.32-2.13-1.07-2.26-.91.02.25-.11.46.13.65.19.15 2.31 1.14 2.41 1.04.04-.29-.1-.57-.28-.78zm-29.84 2.27l.64-.1c.52-.35-.56-3.17-1.7-2.65.44.89 1.06 1.71 1.06 2.75zM53.94 63.23c.6.42.92.13.76-.64-4.61-11.89-8.11-24.31-13.57-35.83l-1.24-.56 14.05 37.03zm23.07-.37c.05-.3-.03-.56-.1-.85-1.08-3.98-3.59-8.93-5.08-12.94-1.85-4.95-5.7-18.42-8.43-21.89-.44-.56-.96-1.25-.98-.08 4.73 10.4 7.98 21.45 12.26 32.05.28.7 1.11 2.97 1.48 3.4.26.3.47.35.86.31zM97.7 26.62c-.71-.01.05 1.75.09 2.03.9 6.55.37 13.33.22 19.91-.07 3.24.22 6.67-.2 9.95-.07.56-1.02 2.71-.32 2.86 1.09.24 1.55-4.41 1.6-5.18.17-2.81-.07-5.86-.02-8.71.1-5.21.62-11.38.2-16.5-.06-.72-.58-4.35-1.57-4.36zm17.71 14.83c-2.81-.23-.89 2.67-.09 1.49l.09-1.49zm-.84 21.19c2.39.17 4.83-.81 6.36-2.65-.62-.8-1.01.1-1.54.36-1.47.73-2.95 1.15-4.35 1.8-.3.14-.58-.13-.46.48z" fill="#fff"/><path d="M35.16 54.74c1.11-1.54-.94-2.3-1.16-3.05-.32-1.07-.19-2.88-.57-4.09-1.41-4.55-9.65-7.6-13.62-9.71-8.9-4.73-18.95-7.93-18.33-20.07C2.1 5.75 12.1-1.96 23.99.44c3.26.66 8.63 3.79 11.54 3.07 1.08-.27 2.22-1.45 2.98-.19.16 2.57.13 5.16.32 7.73.18 2.35 1.25 7.26.8 9.28-.28 1.28-1.4 1.3-2.04.23-1.27-2.12-1.8-5.61-3.27-7.97-4.73-7.63-17.2-13.65-23.67-4.69-1.74 2.41-2 4.2-1.5 7.15.34 2.02 1.23 3.04 2.76 4.24 9.27 7.22 24.74 7.98 28.14 21.26 2.76 10.76-2.65 22.13-13.53 25.37-6.56 1.96-16.71.48-22.34-3.53-.35-.25-.63-.48-.82-.87C2.56 56.59.51 51.11.03 46.19c-.1-1.06-.05-4.53 1.89-3.58.55.27 2.08 5.19 2.51 6.18.39.92 1.68 2.8 1.86 3.46.25.89-.65 1.88.29 3.08s2.14.72 3.17 1.28 3.15 3.05 4.49 3.99c4.75 3.32 11.26 3.18 15.68-.61 1.39-1.19 2.21-2.59 3.38-3.83.37-.39 1.6-1.08 1.85-1.43zm.7-42.96c-.34-1.45-1.4-2.99-2.46-4-.33-.31-2.96-2.36-3.16-2.35-.22.01-.35.47-.32.73.06.52 2.4 1.98 2.98 2.54.33.32 2.61 3.45 2.97 3.07zm-30.97-.21c-.5-.06-.73.52-.93.87-1.83 3.24-1.54 8.7.04 11.99 4.19 8.74 20.61 12.05 28.04 18.61 2.22 1.96 2.7 3.69 3.5 6.47.93-1.88-.38-4.95-1.59-6.46-4.15-5.17-18.62-9.67-24.81-14.42-5.53-4.25-5.56-10.71-4.26-17.04zM2.45 49.09c-.43.3-.34.69-.3 1.14.11 1.28.9 3.35 1.2 4.75.24 1.14.74 5.08 1.23 5.76.13.19.34.46.61.42.21-.13.44-.32.51-.57.27-.89-1.53-6.44-1.93-7.73-.14-.46-1.12-3.76-1.32-3.77zM164.47 64.5c-.86-1.85 2.25-1.89 3.49-2.45 1.88-.84 2.1-1.62 2.37-3.56 1.04-7.58.36-18.69.44-26.68.02-1.86.96-4.62-1.84-5.13-1.65-.3-7.9.36-9.37 1.14-.82.44-1.46 1.11-1.89 1.92-.54 1-1.29 4.54-1.83 4.96-1.42 1.12-1.5-2.27-1.76-3.15-.74-2.5-1.55-3.8-4.01-4.89-2.2-.98-2.95-.48-5.06-.44-2.3.04-6.78-.76-7.28 2.27s-.42 8.16-.06 11.19c.17 1.42 1.66 1.7 2.87 1.8 1.53.13 5.8-.16 6.91-1.16.21-.19 1.09-1.24 1.26-1.5.27-.4 1.9-4.47 2.33-2.11.26 1.42-.09 3.73 0 5.3.08 1.41.93 6.62.33 7.52-.95 1.4-2.07-3.36-2.34-3.81-1.28-2.06-7.14-2.18-9.33-1.92-1.58.19-1.87 1.23-2.01 2.66-.27 2.8-.23 9.04.35 11.73.52 2.41 1.24 3.86 4 3.86 4.73 0 10.05-1.34 13.37-4.89.87-.93 1.35-2.29 2.33-2.92.92.13.19 3.27 0 3.98-.84 3.17-2.79 5.4-5.96 6.33s-3.93.21-6.77.02c-3.64-.24-7.59-.31-11.25-.22-1.63.04-3.94.5-5.5.45-.5-.02-1.32-.29-1.15-.93.11-.41 1.54-1.04 1.99-1.42 1.52-1.28 1.88-3.5 2.02-5.4.66-9.08-.29-19.2-.26-28.35-.33-.67-.55-1.67-1.08-2.2-1.17-1.17-4.6-1.08-5.08-2.04-.1-.21-.18-.3.03-.47 1.1-1.14 5.57-.14 7.12-.09 6.42.21 12.92-.27 19.32-.43 1.42-.04 3.4-.41 4.24.84 1.01-1.52 2.97-.66 4.45-.62 8.83.2 17.72.24 26.52.19 1 0 5.24-.16 5.75.2.43.31.64 1.51.7 2.06.1.89.2 2.26.24 3.15.31 8.37-1.78.81-3.18-.64-.31-.33-1.51-1.09-1.93-1.25-1.22-.47-6.94-.56-8.26-.25-3.05.71-2.24 4.7-2.31 7.02-.19 6.69-.6 13.79-.23 20.56.21 3.76.77 6.49 4.57 7.94.78.3 3.85.64 3.19 1.91-.53 1.02-4.59-.14-5.73-.22-2.9-.2-6.61-.09-9.56 0-.95.03-4.64.65-5.14.17zM150.2 25.56c.06.27.35.45.57.6.24.16 2.21 1.29 2.19.57-.71-.84-1.64-1.31-2.75-1.16zm40.52 2.54c.21-.85-2.18-2.46-2.54-1.59-.18.43 1.56.73 1.69 1.27l.85.31zm-59.03-1.2c-.1-.09-.24-.12-.36-.18l-.43.22c.93 2.69.72 5.49.84 8.27.37 8.32.51 17.01-.6 25.23-.24 1.78.81.87 1.19-.29 1.44-4.47.55-13.65.48-18.58-.05-3.73.33-8.05.02-11.67-.07-.84-.51-2.43-1.13-3zm27.42.35c-.12-1.64-2.77.71-2.33 1.28l2.33-1.28zm12.47 33.44c.18-.27.65-2.75.69-3.23.64-7.9.03-17.33.2-25.45.02-.91.84-4.32-.52-4.55-.47-.08-.32.19-.3.51.12 1.66 0 2.5-.03 4.04-.2 8.68.58 19.13-.43 27.55-.04.31-.84 1.55-.1 1.38.06-.01.47-.22.49-.26zm-22.67-19.64c-.6-.13-1.2.16-1.58.61v.65c1.42 1.08 2.17.32 1.58-1.26zm-.61 21.59c1.15.38 6.4-2.11 6.36-3.07 0-.15-.46-.44-.69-.28-1.28.91-2.7 1.58-4.1 2.27-.58.29-1.57.2-1.56 1.08zM213.78 90.13c.15-.12.92-1.11 1.09-1.35 1.18-1.67 2.59-4.36 3.54-6.21 1.27-2.47 3.65-6.09 1.27-8.48-1.04-1.05-3.83-1.07-4.25-1.9-.32-.64.06-.8.63-.86 3.07-.35 7 .64 10.2.23.62.01 3.53-.46 3.7.1.29.95-1.38 1.11-1.84 1.33-2.54 1.23-3.7 2.9-5.16 5.23-1.96 3.12-8.63 14.64-9.07 17.64-.34 2.38-.21 10.24.65 12.39s4.3 2.42 6.25 2.97l.17.8c-.27.44-.62.4-1.06.44-2.02.2-5.08-.56-7.22-.66-2.61-.12-5.84.09-8.49.22-.67.03-3.51.99-3.52-.32 0-.87 3.85-1.64 4.9-2.54 2.65-2.26 1.51-9.69 1.46-12.92-2.11-5.08-4.69-10.49-7.33-15.35-1-1.84-2.68-5.28-4.74-5.86-1.81-.51-7.53-1.05-9.07-.14-1.09.64-1.46 2.38-1.55 3.54-.46 6.06-.22 14.4 0 20.57.09 2.52.12 6.84 1.45 8.93.68 1.07 2.27 1.83 3.44 2.29.83.32 3.24.36 2.93 1.66-.07.19-.21.38-.39.47-.75.36-4.81-.47-6.04-.54-4.49-.24-9.02.17-13.48.56-2.08-1.68 1.45-2.02 2.49-2.41 1.84-.71 2.57-1.61 2.79-3.57.44-3.84.01-7.6.02-11.41 0-6.34.45-12.67.17-19.03-.11-.86-.9-1.53-1.74-1.65-2.08-.28-7.59.22-9.5 1.13-2.86 1.35-2.72 6.59-3.59 7.11-.92.56-1.68-.75-1.47-1.55l1.12-9.28c.05-.23.22-.33.39-.46.95-.67 4.12.07 5.39.1 8.74.25 17.57-.08 26.32-.02 2.73.02 5.5.34 8.27.23.74-.03 5.66-1.08 5.39.5-.16.9-3.61.55-3.08 3.53.25 1.39 2.4 6.19 3.12 7.7.53 1.12 3.37 6.45 4.14 6.89.19.11.38.22.61.21.26-.01.48-.09.68-.26zm-6.51 18.71c.78.17 1.01-.66 1.22-1.21.96-2.5.69-9.99-.01-12.61-.96-3.57-7.37-16.12-9.6-19.23-.31-.43-1.86-2.43-2.43-1.92l4.7 8.12c2.02 5.36 6.55 10.54 6.96 16.36.25 3.47 0 7.12-.85 10.49zm14.85-33.05c.16-.95-.17-1.95-1.27-1.91l.62 1.77.65.13zM165.9 74.3c-.39-.34-2.42.89-2.12 1.69.3.31 2.46-1.4 2.12-1.69zm12.09 34.33c.92.72 1.45-2.56 1.49-3.06.71-8.4-.05-18.75-.02-27.35 0-.89.75-3.51-.84-3.17.32 2.51.27 5.1.22 7.64-.12 7.32.24 15.49-.21 22.68-.07 1.04-.24 2.34-.65 3.27zM87.68 88.55c-.11.11-.16.32-.22.48.1.66 2.87 1.2 3.53 1.5 8.54 3.93 6.13 16.84-1.68 20.32-4.77 2.13-12.7.94-17.93.95-2.97 0-6.1.47-9.1.44-.38 0-.78-.23-1.17-.23-.18-1.38 1.6-1.57 2.51-2.45.26-.25.76-.9.92-1.2 1.39-2.71.77-11.42.8-14.89.03-4.95.53-11.22.01-16.1-.18-1.64-1.48-3.37-3.02-3.98-.95-.38-3.68-.46-3.78-1.54-.02-.29.08-.57.31-.75.83-.64 4.35.17 5.54.23 7.76.41 19.15-3.12 25.56 2.44 3.99 3.45 4.53 9.96.19 13.34-.63.49-2.09 1.07-2.47 1.45zM75.27 72.87c-1.97.28-2.82 1.36-3.08 3.28-.3 2.2-.26 7.23-.06 9.49.17 1.91 1.4 3.06 3.3 3.28 1.55.17 5.24.17 6.79 0 5.02-.54 5.24-6.94 3.62-10.61-1.76-3.98-6.33-6.05-10.56-5.44zm-9.14 1.92c-.15-.17-.68-.48-.58.04.22 1.1.76 2 .86 3.38.62 8.49-.56 17.54-.22 26.07l-.74 4.56c.68-.13 1.21-1.26 1.33-1.85.51-2.57.42-6.76.48-9.48.08-3.6 0-7.22-.02-10.82-.01-2.78.49-8.34-.48-10.73-.1-.26-.48-.99-.63-1.17zm18.73.15c1.22 2.15 2.91 4.74 2.98 7.3.03.95-.34 1.73-.36 2.43 0 .31.15.46.45.44 1.2-2.48.4-6.73-1.29-8.88-.23-.3-1.36-1.62-1.78-1.29zM73.99 91.31c-1.82.3-1.94 1.66-2.06 3.24-.23 2.99-.12 8.02.21 11.02.5 4.63 6.86 4.95 10.43 4.27 8.46-1.61 9.3-14.31 1.5-17.26-2.2-.83-7.82-1.65-10.08-1.27zm14.77 16.12c1.18-1.2 1.62-1.8 2.1-3.52.93-3.28.39-9.32-3.45-10.54l2.09 3.31c1.11 3.09 1.08 6.98-.77 9.77-.48.72-1.63 1.26-1.22 2.17.67-.24.85-.8 1.24-1.2zM168.21 108.24c.67 1.08-1.56 2.08-2.31 2.41-9.75 4.26-12.91-6.23-16.43-12.83-2.12-3.97-2.78-6.3-8.07-5.71-.62.07-1.47.23-1.59.96.09 2.75-.14 5.53-.01 8.27.08 1.61.22 4.1.81 5.54 1.04 2.52 3.07 2.58 5.31 3.49l-.06 1.04c-.28.41-4.21.18-4.85-.05-.32-.12-1.12-1.48-1.77-1.84-2.46-1.37-4.48.22-5.73 2.27-1.16-.2-4.48.89-5.29.27-1.54-1.2 1.97-1.93 2.61-2.31 1.43-.84 1.97-2.43 2.16-3.99.94-7.67.42-18.79.25-26.68-.04-1.81-.72-4.71-2.5-5.57-.57-.28-5.03-.7-4.11-2.06 1.04-1.54 4.34-.58 5.86-.53 7.39.26 13.94-1.87 21.16.69 2.85 1.01 4 2.21 5.29 4.89 2.28 4.75 1.24 9-2.81 12.31-.77.63-2.87 1.43-2.7 2.51.03.17 1.19 2.8 1.36 3.11.15.28.51.47.69.79 1.37 2.45 5.99 10.74 7.9 12.03 1.29.87 4.67.72 4.84.99zm-27.7-18.96c.86.72 4.96.8 6.19.7 9.22-.75 7.88-13.17 2.03-16.22-.38-.2-3.31-1.34-3.5-1.35-.53-.03-2.77.17-3.31.29-2.73.57-1.99 3.7-2.1 5.74-.15 2.77-.49 6.15-.23 8.9.06.66.41 1.5.93 1.94zm-6.45 18.91c1.41-4.12.83-8.87.86-13.24.03-5.22.34-10.84.02-16.11-.1-1.67-.33-4.27-2.13-4.97-.11.12.97 2.17 1.05 2.66.44 2.71.14 5.58.21 8.25.16 6.09.74 13.49.24 19.5-.11 1.27-.61 2.56-.86 3.8l.62.09zm19.33-21.39c.67.5 1.5-1.41 1.6-1.89.38-1.86.09-4.86-.59-6.64-.21-.56-2.84-5.16-3.56-4.39.03.89.99 1.51 1.45 2.26 1.82 3 2.75 7.43 1.1 10.66zm4.87 22.68l-3.43-5.15c-2-3.32-3.49-7.29-5.6-10.51-.45-.69-.8-1.46-1.78-1.29l7.67 14.06c.21.25 2.75 3.28 3.15 2.89z" fill="#fff"/><path d="M119.87 97.61c-.17-.11-.99-3.26-1.32-3.87-1.31-2.38-5.39-2.02-7.7-2.05-1.11-.01-1.97-.57-3.14.23-.73.5-.92 2.74-.98 3.68-.19 2.87-.35 9.79.94 12.19.25.47.75 1.09 1.23 1.31 1.44.65 4.97.37 6.6.14 4.58-.66 8.97-3.1 11.27-7.18 1.36.35.41 3.27.06 4.29-1.67 4.85-5.18 6.62-10.23 6.3-6.3-.4-11.36-1.01-17.83-.85-.86.02-1.89.61-2.67-.08-.76-.89 1.32-1.44 1.83-1.82 1.39-1.03 1.74-2.75 1.99-4.37.89-5.92.42-13.39.44-19.48.01-2.73.12-5.34.01-8.05-.07-1.67.19-2.68-.96-4.12-.82-1.03-3.54-1.31-4.77-1.81l-.21-1.17 30.13.32c.49.52.72 5.99.64 7-.05.64-.25 2.29-.99 2.41-.84.14-.8-2.3-.99-2.99-1.11-4.19-7.03-3.95-10.45-3.97-.5 0-.92-.22-1.44-.21-1.55.03-3.88.37-4.16 2.22-.44 2.88-.67 8.78-.18 11.59.18 1.03.97 1.53 1.96 1.64 1.66.2 5.96.08 7.44-.63 1.85-.89 2.87-4.5 3.61-4.66 1.14-.25.51 2.6.51 3.05-.06 2.98.59 6.32.44 9.13-.02.46-.26 2.34-1.06 1.79zm2.75-22.89c.03-1.23-1.54-1.69-2.54-1.69-.38.29 2.36 1.89 2.54 1.69zm-22.69 33.91c1.45.05 1.78-2.98 1.9-4.13.47-4.28.13-9 .21-13.36s.55-9.12.23-13.56c-.07-.97-.45-3.51-1.6-3.7-.69-.12.01.79.09 1.19 1.03 5.72.39 13.39.22 19.26-.13 4.79.12 9.65-1.05 14.31zm17.41-18.03h.69c.89-.32.16-2.8-.9-1.1l.2 1.1zm-.02 19.52c1.71.23 4.9-.85 6.05-2.12.44-.49.47-1.17-.25-.89-1.21.71-2.44 1.45-3.74 1.99-.55.23-1.28.27-1.79.54-.25.14-.36 0-.27.47zM56.2 71.15c.39 1.51-1.03 1.34-1.99 1.87-1.71.94-1.88 2.78-2.01 4.57-.45 6.17-.05 13.44 0 19.71.03 3.13-.4 6.9.64 9.94 1.14 3.33 3.49 2.33 5.58 3.54.79.46.83 1.14-.17 1.25-2.53.29-5.6-.29-8.29-.22-2.83.07-5.62.33-8.45.39-1.57-1.57 2.15-1.96 3.05-3.46 1.26-2.11.76-6.84.83-9.34.2-6.52.88-14.8.22-21.18-.24-2.28-.89-4.02-3.18-4.87-.82-.3-4-.58-3.78-1.67.88-1.39 2.91-.4 4.3-.34 2.29.09 4.93.07 7.23 0 .9-.03 5.67-.73 6.01-.19zm-10.22 3.22c-.05-.04-.71-.33-.78-.17.54.94 1.15 2.31 1.28 3.38.8 6.71-.62 14.97 0 21.84-.4 1.8-.14 3.66-.22 5.5-.03.63-.78 3.07.11 3.08.14 0 .45-.97.51-1.19.27-1.07.4-3.05.46-4.21.33-6.57.51-15.1.21-21.63-.07-1.62-.3-5.52-1.56-6.6zM34.75 53.15c.98 1.71-1.88 2.04-2.69 2.41-1.16.54-2.66 1.75-3.25 2.9-.31.62-.28 1.17-.5 1.62-.62 1.3-7.16 2.84-8.11 1.87-.18-.19-.26-.82-.44-1.15-.68-1.28-1.37-2.71-2.69-3.46-.54.92 1.72 3.44 1.59 4.13-1.32 1.09-1.89-1.39-2.45-2.21-.8-1.17-1.94-2.14-3.28-2.66-1.48-.58-3.98-.72-5.25-1.33-1.19-.57-1.2-2.42.26-2.61 2.96-.39 7.26.65 10.4.66 3.31.02 6.87-.09 10.2-.22 1.17-.05 5.59-1.03 6.2.04z" fill="#fff"/></svg>