<?xml version="1.0" encoding="UTF-8"?><svg id="b" xmlns="http://www.w3.org/2000/svg" viewBox="0 0 250 91"><path d="M138.28,32.23h17.64l-1.69,7.95h-26.85L135.86.3h9.21l-6.79,31.93ZM166.34,40.18h-9.21L165.61.3h9.21l-8.48,39.89ZM208.29,40.18h-15.55l-4.68-19.31c-.57-2.39-.83-3.71-1.81-9.51l-.58-3.17h-.36c-.93,5.5-1.7,9.69-2.34,12.68l-4.11,19.31h-9.03L178.32.3h15.43l4.38,18.48c.98,4.13,1.03,4.43,2.06,9.99l.68,3.29h.36l.54-3.11c.71-4.48.83-5.02,1.73-9.27L207.62.3h9.15l-8.48,39.89ZM120.36.3h-13.81l-21.1,39.89h9.57l2.06-3.97h-.01l15.06-28.98,1.89,18.96h-4.9l-3.5,6.76h8.88l.73,7.24h9.45L120.36.3ZM245.68.3h-13.81l-21.1,39.89h9.57l2.06-3.97h-.01l15.06-28.98,1.89,18.96h-4.9l-3.5,6.76h8.88l.73,7.24h9.45L245.68.3ZM75.22,16.2l-5.1,23.98h9.21l5.1-23.98h-9.21ZM67.84.3l-1.69,7.95h31.27l1.69-7.95h-31.27ZM16.56,32.29c-4.25,0-5.93-.54-6.48-2.15-.57-1.55-.44-2.99,1.02-9.87.37-1.74.68-3.17.96-4.36H2.53c-.06.26-.11.51-.17.78C1.17,22.24.29,27.51.05,30.08c-.26,2.93.63,5.74,2.28,7.3,2.43,2.33,4.49,2.81,12.08,2.81.61,0,1.2,0,1.78,0h0s16.11,0,16.11,0l1.69-7.97-16.12.06c-.41.01-.84.02-1.3.02ZM24.78,0C15.62.02,12.45.76,8.76,3.71c-1.54,1.22-2.7,2.61-3.67,4.52,0,0,15.16-.28,17-.28.35,0,.68,0,1,.01h0s13.12,0,13.12,0l1.69-7.97h-13.12ZM61.82.3h-13.81l-21.1,39.89h9.57l2.06-3.97h-.01l15.06-28.98,1.89,18.96h-4.9l-3.5,6.76h8.88l.73,7.24h9.45L61.82.3Z" fill="#fff" stroke-width="0"/><path d="M158.38,50.68h-13.81l-21.1,39.89h9.57l2.06-3.97h-.01l15.06-28.98,1.89,18.96h-4.9l-3.5,6.76h8.88l.73,7.24h9.45l-4.32-39.89ZM69.64,58.4l1.64-7.72h-9.21l-1.64,7.72h9.21ZM87.42,50.68l-3.33,15.67h-8.56s-16.8,0-16.8,0l-5.15,24.21h9.21l3.47-16.32h16.15l-3.47,16.32h9.21l8.48-39.89h-9.21ZM172.52,66.59l-5.1,23.98h9.21l5.1-23.98h-9.21ZM165.13,50.68l-1.69,7.95h31.27l1.69-7.95h-31.27ZM102.4,50.68l-1.61,7.6h28.11s1.61-7.6,1.61-7.6h-28.11ZM124.51,73.52l1.39-6.52h-26.97s-5.01,23.56-5.01,23.56h28.34l1.61-7.59h-19.14l2.01-9.45h17.76Z" fill="#fff" stroke-width="0"/></svg>