<svg xmlns="http://www.w3.org/2000/svg" viewBox="0 0 290 107"><path d="M117.11 17.4c1.05 0 1.91-.85 1.91-1.91s-.85-1.91-1.91-1.91-1.91.85-1.91 1.91.85 1.91 1.91 1.91zM234.31 40.94c.16.08.34.12.52.12 1.4 0 3.28-2.28 4.67-4.55 1.57-2.57 3.76-8.42.91-9.29-.15-.05-.3-.07-.45-.07-1.43 0-2.89 1.98-4.27 4.35-1.52 2.62-2.81 8.72-1.38 9.43zM259.89 40.4c1.1 0 1.99-.89 1.99-1.99s-.89-1.99-1.99-1.99-1.99.89-1.99 1.99.89 1.99 1.99 1.99z" fill="#fff"/><path d="M289.91 44.82c-.4-2.93-2.14-3.97-3.65-3.97-1.3 0-2.57.75-3.49 2l-1.37-3.61v-.01s-.01-.04-.02-.06c-.27-.67-.77-1.22-1.47-1.63-1.07-.61-2.19-.92-3.35-.92-1.35 0-2.71.42-4.01 1.23l-1.79-3.12c-.19-1.32-.71-2.6-1.55-3.7-1.45-1.91-3.58-3-5.84-3-.21 0-.42 0-.62.03-.54.05-1.07.14-1.59.28-.04-.03-.08-.07-.12-.1a.983.983 0 0 0-.5-.13c-.11 0-.22.02-.32.05l-10.67 3.61c.26-2.21.17-4.34-.28-6.2-.74-3.01-2.38-5.12-4.62-5.94-1.36-.5-2.72-.76-4.02-.76-2.21 0-4.33.75-6.26 2.19.55-1.82.13-3.61-1.23-5.16-1.25-1.42-3.27-2.6-5.85-3.4-1.65-.51-3.43-.79-5.14-.79v1.01-1.01c-2.61 0-4.69.61-5.96 1.67l-3.23-3.19c-1.04-1.54-2.88-2.88-5.45-3.38-.35-.07-1.3-.22-2.54-.22-3.47 0-6.21 1.21-7.86 3.43l-3.95-4.23a.879.879 0 0 0-.36-.24 2.49 2.49 0 0 0-.74-.34c-.32-.08-.64-.13-.97-.13-1.97 0-3.64 1.53-4.95 3.78l-4.54-5.4c-.15-.21-.31-.4-.46-.55l-.25-.3c-.19-.22-.45-.34-.73-.36a2.41 2.41 0 0 0-.9-.17c-1.62 0-3.81 1.75-5.06 6.68-.06.24-.12.47-.19.7l-6.56-7.56c-.1-.11-.22-.2-.36-.26a3.61 3.61 0 0 0-1.88-.71h-.23c-1.93 0-3.43 1.9-4.58 5.81-.91 3.09-1.59 7.35-2.04 12.69l-.55 1.49c-.02.05-.04.11-.05.17-.04.2-.88 4.85-1.18 9.8-.18 2.95-.11 5.38.18 7.24.42 2.65 1.32 4.21 2.74 4.76.41.16.85.24 1.3.24 2.13 0 4.25-1.78 5.67-3.27.21 1.28.63 2.74 1.5 3.62.56.58 1.27.88 2.05.88.2 0 .4-.02.61-.06 2.31-.43 5.09-1.95 6.75-2.96.28 1.96 1.11 4.83 3.58 4.83h.13c2.16-.1 4.9-1.49 6.29-2.27 1.19 1.84 4.24 5.82 8.32 5.82.23 0 .46-.01.68-.04 3.57-.39 6.73-1.37 8.33-1.93.66 2.04 2.43 4.63 6.07 4.63.22 0 .45-.01.69-.03 3.76-.32 7.06-.7 8.63-.9.15.72.43 1.74.91 2.76 1.24 2.64 3.23 4.03 5.74 4.03h.16c3.24-.08 5.32-.35 6.47-.55.45 2.29 1.7 5.18 4.3 5.24h.53c1.49 0 2.65-.13 3.43-.26.45 1.52 1.67 3.32 4.33 3.32.47 0 .98-.06 1.5-.18 2.2-.49 3.63-.75 4.49-.89-.06 1.54.07 4.03 1.34 5.54a3.5 3.5 0 0 0 2.64 1.26h.17c3.02 0 9.21-2.78 12.56-4.4 2.95-.03 4.15-2.21 5.21-4.15.42-.76.85-1.55 1.37-2.18 1.31-1.57 3.24-2.25 5.47-3.03 1.07-.38 2.19-.76 3.29-1.28 3.8-1.78 6.48-7.2 5.85-11.84zm-27.08-15.77c.18-.02.36-.02.53-.02 4.18 0 7.36 4.38 6.23 8.45-1.18 4.24-8.69 8.05-9.12 11-.43 2.95 1.13 12.13-2.31 12.34 0 0-.19.04-.48.04-.94 0-2.96-.47-2.96-4.5 0-5.26.75-7.28-1.82-7.34h-.04c-2.46 0-3.85 5.59-6.05 5.59-.08 0-.16 0-.24-.02-2.36-.43-2.15-4.16.16-8.59 2.31-4.42 8.21-16.26 16.1-16.96zm-18.53-8.48c4.01 1.48 5.4 7.73 3.63 14.23-1.69 6.21-6.69 14.22-14.55 14.22-.37 0-.75-.02-1.14-.06-8.52-.82-4.67-14.58-3.91-16.97.66-2.09 4.49-12.12 12.3-12.12 1.14 0 2.36.21 3.67.69zm-22.16-7.86c1.56 0 3.24.24 4.84.74 4.88 1.52 7.35 4.31 6.4 7.35-.95 3.04-3.55 2.6-5.58 3.45-2.03.86-3.68 4.97-4.44 7.7-.75 2.68-2.73 10.91-7.27 10.91h-.21c-4.69-.25-2.6-7.86-1.01-11.09 1.58-3.23 4.75-6.65 3.61-9.57-1.14-2.91-3.42-2.6-2.6-6.59.39-1.88 3.06-2.89 6.25-2.9zm-17.17-5.12c1.06 0 1.92.12 2.34.21 3.97.76 5.63 3.59 5.63 5.36s-.4 3.65-2.57 4.13c-.4.09-.73.12-1.01.12-1.12 0-1.41-.57-2.18-.57-.07 0-.15 0-.24.02-1.18.16-2.2 1.34-1.45 2.95s4.64 6.11 4.42 11.03c-.19 4.31-3.02 8.97-9.24 9.34-.19.01-.38.02-.56.02-5.89 0-9.59-5.66-8.6-9.4.53-2.02 1.67-2.87 2.83-2.87 1.06 0 2.13.7 2.8 1.85.8 1.39 1.93 2.32 2.98 2.32.77 0 1.5-.5 2.03-1.68 1.26-2.79-.94-6.76-2.76-8.42-1.82-1.66-4.45-6.17-1.93-10.67 1.75-3.12 5.14-3.74 7.52-3.74zM191.1 6.08c.23 0 .47.03.71.09 2.49.65 2.79 7.99 1.77 13.46-1.02 5.47-4.56 16.35-8.2 16.41h-.02c-3.62 0-1.96-12.18-.99-18.5.9-5.89 3.57-11.46 6.74-11.46zm-31.78 13.96c.84-10.61 2.73-18.13 5.66-18.13h.15c2.94.25 3.52 4.8 3.52 7.69s-.26 6.34 1.67 6.47h.16c1.85 0 3.46-2.19 4.71-7.08.89-3.49 2.55-5.92 4.08-5.92.68 0 1.33.47 1.87 1.53 1.79 3.46 1.51 13.41.68 17.51-.83 4.1-3.88 11.88-6.7 12.14h-.13c-2.66 0-1.93-7.8-2.37-10.83-.23-1.58-1.02-2.44-1.91-2.44-.84 0-1.76.76-2.38 2.37-1.28 3.31-2.74 10.25-5.41 10.25h-.04c-2.69-.06-4.51-1.63-3.56-13.58zm124.31 35.71c-3.36 1.57-6.93 1.96-9.11 4.58-1.92 2.31-2.42 5.97-5.86 5.97-.46 0-.98-.07-1.56-.21-4.88-1.22.31-8.11 1.05-10.16.74-2.05.31-2.97-.65-7.11-.81-3.52 3.78-11.19 9.06-11.19.94 0 1.89.24 2.85.79 2.38 1.37.83 4.44-1.31 6.53-2.14 2.08-3.79 5.14-2.31 6.36.17.14.37.2.6.2 1.8 0 5.24-3.95 6.6-7 .75-1.7 2.08-2.64 3.29-2.64s2.36.97 2.64 3.1c.57 4.2-1.92 9.22-5.28 10.79z" fill="#fff"/><circle cx="28.7" cy="43.26" r="2" fill="#fff"/><path d="M47.46 36.69c1.04 0 1.88-.84 1.88-1.88s-.84-1.88-1.88-1.88-1.88.84-1.88 1.88.84 1.88 1.88 1.88z" fill="#fff"/><path d="M110.77 44.29c.54.69 1.36 1.27 2.49 1.27.52 0 1.07-.13 1.63-.38 1.99-.89 4.5-2.75 5.82-3.78.99 1.52 3.04 4.12 5.44 4.12.36 0 .72-.06 1.07-.18 2.02-.69 3.29-2.18 4-3.31 1.2 1.12 3.39 2.66 6.4 2.66.48 0 .96-.04 1.45-.12 4.78-.77 9.12-1.75 9.82-5.16.58-2.8-1.69-9.68-1.95-10.46-.05-.14-.13-.27-.23-.37-.75-1.6-2.87-2.08-4.53-2.45-.4-.09-.78-.17-1.14-.27 0 0-.53-.29-.79-2.75-.19-1.82-.16-4.13-.14-6.17.01-1.26.03-2.44 0-3.4-.14-3.7-1.54-13.29-6.26-13.29h-.2c-1.11.07-2.07.62-2.86 1.65-1.3 1.7-2.03 4.63-2.38 7.92l-7.76-5.61a9.906 9.906 0 0 0-2.26-1.63l-.7-.51a.967.967 0 0 0-.59-.19c-.06 0-.11 0-.17.01-.08.01-.16.04-.24.08-.3-.06-.6-.09-.88-.09-.11 0-.22 0-.33.01-2.34.18-4.31 2.38-5.75 6.38l-7.37-2.44c-.98-.48-2.1-.79-3.34-.79h-.3c-3.25.13-7.92 2.8-9.15 8.31l-8.16-2.85c-.73-.51-1.33-.67-1.79-.67-.12 0-.25.01-.36.04h-.09c-.01 0-.02 0-.03.01-.03 0-.06.02-.08.03-1.31.41-2.08 2.45-2.28 6.08-.02.34-.03.68-.04 1.03l-8.89-2.51c-.95-.42-1.97-.7-2.99-.7-.72 0-1.39.14-1.99.42-2.62 1.2-5.11 5.28-4.58 13.18l-9.89-4.6c-1.79-1.24-3.49-2.01-4.75-2.01-.43 0-.82.08-1.16.25-3.2 1.56-3.91 6.98-3.61 12.93l-4.72-1.77c-1.24-1.08-2.84-1.66-4.65-1.66-2.74 0-5.47 1.34-7.1 3.49-2.03 2.67-2.58 4.83-2.68 6.9l-3.21-1.03c-1-.64-2.32-.98-3.88-.98-2.57 0-5.38.97-7.33 2.53C.65 45.19-.91 48.94.54 52.92c1.22 3.35 4.3 3.35 5.32 3.35.49 0 .98-.03 1.41-.06.37-.02.72-.04 1.02-.04.42 0 .6.05.67.07.79.37 2.39 4.17 3.16 6 .61 1.46 1.15 2.71 1.61 3.51.72 1.23 2.31 3.65 4.41 4.9.36.25 5.52 3.84 11.59 3.84.42 0 .84-.02 1.25-.05 2.75-.23 4.6-1.07 5.51-2.48.28-.44.44-.88.52-1.28.5.14 1.08.25 1.68.25 1.28 0 3.4-.5 4.21-3.61.81.23 1.97.48 3.16.48 2.46 0 4.21-1.06 5.02-3.02.42.12.94.22 1.49.22 2.61 0 3.8-2.1 4.29-3.36.64-1.66 1.51-3.92 1.98-4.18.05.01.23.07.6.37.16.13.32.27.48.4 1.19 1 2.31 1.94 3.81 1.94.82 0 1.64-.29 2.5-.88 1.94-1.33 3.34-4.23 3.95-5.69.94.25 2.25.65 2.93 1.07.68.43 1.82.69 3.04.69s4.47-.31 6.64-3.22c.98-1.32 1.61-2.39 2.02-3.22.95 1.23 2.44 2.6 4.39 2.6.45 0 .91-.07 1.36-.22 2.77-.91 3.88-3.72 4.31-5.49 1.6.82 4.46 2.03 7.42 2.03.85 0 1.67-.1 2.42-.3 3.08-.81 5.03-2.25 6.11-3.28zm22.95-43.01h.14c3.57 0 5.1 8.26 5.25 12.31.16 4.1-.62 12.65 1.69 13.27 2.31.61 5.37.8 5.18 3.3-.15 1.96-1.87 2.76-4.82 2.76-.8 0-1.7-.06-2.67-.17-4.57-.52-7.3-1.08-8.48-6.83-1.18-5.75-1.96-24.3 3.71-24.63zm-18.16 1.64h.25c2.62 0 6.24 3.08 8.49 9.03 2.32 6.15 3.23 12.09 3.31 16.94s-.43 6.15-1.97 6.3h-.12c-1.52 0-3.45-2.92-4.33-5.76-.51-1.65-1.58-2.51-2.51-2.51-.71 0-1.34.5-1.58 1.52-.56 2.36-.44 7.41-3.79 7.76-.07 0-.14.01-.2.01-3.19 0-4.25-8.21-4.49-14.15-.24-6.07 1.93-18.75 6.93-19.15zM90.31 15.2c.48-5.85 5.07-8.98 8.45-9.12h.26c3.25 0 5.72 2.52 6.62 4.17.93 1.69.53 5.84-2.27 5.93h-.19c-2.76 0-2.31-1.95-3.7-1.95h-.05c-.79.02-2.22-.23-2.73 3.89-.51 4.12 1.3 8.56 2.78 10.92.62.99 1.18 1.35 1.63 1.35.62 0 1.04-.7 1.15-1.4.19-1.2-.37-3.84 1.71-3.93h.18c1.98 0 3.19 1.51 3.28 4.79.09 3.38-1.75 7.06-4.9 7.39-.49.05-.95.08-1.4.08-2.48 0-4.52-.94-7.07-4.9-3.01-4.68-4.29-10.61-3.75-17.22zm-10.92-4.3c.07-.02.15-.03.23-.03 2.36 0 7 7.43 8.36 14.14 1.41 6.94 1.41 15.34 0 16.39-.13.1-.3.15-.5.15-1.91 0-6.57-4.5-8.52-13.28-2.15-9.7-1.17-17 .43-17.37zm-16.11 4.28c.49-.23 1.02-.32 1.57-.32 2.03 0 4.26 1.37 5.54 2.61 1.63 1.57 3.2 5.56 1.78 6.6-.29.21-.56.3-.81.3-.8 0-1.49-.8-2.58-.8-.29 0-.61.06-.97.2-1.43.58-2.65 1.65-2.33 7.01.32 5.36 3.26 7.33 5.2 7.94.17.05.34.08.5.08 1.65 0 2.61-2.65 1.37-3.27-1.36-.68-2.56-4.47-.46-5.92.68-.47 1.35-.67 1.99-.66 1.32 0 2.49.85 3.22 1.83 1.09 1.45 3.64 6.04 1.95 10.99-.97 2.86-3.81 4.82-7.03 4.82-2.05 0-4.26-.79-6.23-2.65-5.09-4.78-6.56-15.1-6.56-15.1-.91-8.38 1.52-12.6 3.86-13.66zm-20.37 6.81c.21-.1.45-.15.72-.15 3 0 9.76 5.71 12.52 11.12 3.01 5.91 6.59 14.98 3.85 16.83-.32.22-.65.31-.97.31-2.19 0-4.29-4.48-6.31-4.48-.18 0-.35.03-.53.11-2.48 1.06.21 8.12-2.8 8.91-.15.04-.3.06-.45.06-3 0-7.29-7.11-8.18-12.69-1.26-7.88-1.87-18.07 2.14-20.02zM23.2 34.69c1.47-1.93 3.93-3.09 6.3-3.09 1.93 0 3.79.77 4.98 2.53 2.66 3.92 1.26 9.88 1.33 12.47.07 2.59 6.11 5.71 7.52 6.55 1.4.84 3.28 3.18 1.17 5.34-.39.4-.84.56-1.33.56-2.39 0-5.77-3.88-7.79-3.88-.28 0-.54.08-.76.25-1.41 1.1.56 7.64-1.33 8.55-.16.08-.32.11-.5.11-1.92 0-4.74-4.33-6.09-6.77-1.47-2.66-5.78-9.67-5.95-13.73-.12-2.94-.21-5.39 2.45-8.9zm-8.62 30.59c-1.29-2.23-3.54-9.24-5.26-9.94-.27-.11-.63-.15-1.05-.15-.7 0-1.55.1-2.43.1-1.72 0-3.53-.39-4.37-2.68-1.52-4.15.88-7.47 4.45-10.33 1.85-1.48 4.44-2.3 6.7-2.3 2.1 0 3.92.71 4.6 2.26 1.56 3.53-1.04 5.76-1.39 7.68-.36 1.92 4.27 8.07 5.47 9.54 1.2 1.47 5.61 7.62 1.46 10.37-.68.45-1.35.64-2 .64-2.74 0-5.15-3.39-6.2-5.19zM132.72 83.19h.08c2.85-.05 3.04-4.9 3.23-7.64.19-2.75-.11-8.33-3.45-8.43h-.11c-1.5 0-2.87 1.01-3.52 7.24-.66 6.31.97 8.84 3.78 8.84zM176.64 70.9c1.07 0 1.93-.87 1.93-1.93s-.87-1.93-1.93-1.93-1.93.87-1.93 1.93.87 1.93 1.93 1.93zm0-2.85c.51 0 .92.41.92.92s-.41.92-.92.92-.92-.41-.92-.92.41-.92.92-.92z" fill="#fff"/><path d="M182.43 81.75c-.73-1.33-1.42-2.59-1.47-3.5-.06-1.03.48-2.2 1.11-3.56.74-1.61 1.58-3.43 1.85-5.77.43-3.84-.03-6.46-1.42-8.01-.91-1.01-2.16-1.53-3.74-1.53-2.83 0-5.32 1.09-7.4 3.23-.19.2-.37.4-.55.61l-.01.01-5.14 5.65c-.57-3.12-1.81-6-3.48-7.77-1.07-1.13-2.26-1.73-3.45-1.73h-.04c-.86.01-1.62.39-2.19 1.08-.22.27-.41.6-.57.95l-1.78 2.08c-.24-.85-.59-1.56-1.05-2.11-.73-.87-1.72-1.33-2.87-1.33h-.24c-1.56.08-2.89.77-3.97 2.06-.99 1.18-1.69 2.78-2.17 4.56l-5.69-4.38c-1.66-1.42-3.68-2.24-5.56-2.24-2.62 0-4.84.94-6.6 2.8-.18.19-.35.39-.51.59l-3.89-2.06c-1.56-1.19-3.96-1.52-5.84-1.57-.35 0-.72-.03-1.12-.06-.58-.04-1.24-.08-1.94-.08-1.94 0-3.68.33-5.46 1.05-1.85.75-2.95 2.17-3.01 3.89-.05 1.41.63 2.81 1.64 3.5l4.16 9.1-.06.93c-.17 2.54-.34 5.17-.31 7.27.01.9.11 1.69.3 2.4v.05c.04.16.96 4.02 2.42 8.1 3.08 8.63 5.42 9.34 6.19 9.57.44.13.91.2 1.38.2 3.03 0 5.9-2.82 7.42-4.62.97 2.03 3.06 5.1 6.77 5.1.29 0 .58-.02.87-.06 4.05-.52 7.17-3.96 8.7-6 1.27 2.41 4.06 6.56 8.14 6.56.32 0 .64-.03.96-.08 4.01-.64 7.08-3.83 8.68-5.88.77 1.94 2.26 4.53 4.79 4.53h.22c2.02-.12 3.51-1.04 4.45-1.86.67 1.46 1.86 3.3 3.63 3.3h.19c2.53-.2 3.37-1.48 3.46-1.63.03-.05.06-.11.08-.17L183.82 90c.35-.53.59-1.17.66-1.87v-.03-.02c.2-2.2-1-4.4-2.06-6.34zm-3.67-21.35c4.15 0 4.63 4.17 4.15 8.41-.48 4.25-3.1 6.87-2.96 9.49s3.87 6.35 3.53 9.73c-.15 1.48-1.23 2.58-2.52 2.58-.78 0-1.64-.41-2.4-1.38-2.6-3.34-.28-8.49-3.49-8.49h-.09c-3.34.1.76 9.64-3.39 10.11-.15.02-.3.03-.44.03-3.77 0-4.57-5.89-4.71-10.71-.14-5.01 2.41-19.77 12.31-19.77zm-28.72.68h.19c3.5 0 3.57 5.38 3.09 8.11-.5 2.78-4.31 12.84.99 13.71.26.04.51.06.74.06 4.36 0 2.38-7.6 1.75-10.79-.66-3.36-1.49-11.73 1.91-11.77h.03c3.39 0 6.6 6.73 6.23 13.18-.37 6.46-2.32 16.99-9.78 17.48-.24.02-.47.02-.7.02-6.95 0-9.84-7.13-10.36-11.54-.54-4.56-.62-18.12 5.92-18.46zm-17.44 0c3.52 0 8.28 3.47 8.42 9.85.14 6.37 1.43 19.17-7.7 19.83-.3.02-.59.03-.87.03-8.33 0-9.37-9.31-9.6-13.49-.24-4.33.9-16.22 9.75-16.22zm-24.97.6c1.97-.79 3.64-.98 5.08-.98 1.14 0 2.14.12 3.03.14 2.02.05 6.87.52 6.34 4.11-.53 3.59-4.48 2.32-4.7 5.43-.21 3.11 1.42 12.35.84 16.04-.58 3.69-2.01 3.85-3.54 3.96-.11 0-.22.01-.33.01-1.52 0-3.63-.75-3.68-4.97-.05-4.54.84-11.92.47-13.88-.37-1.95-2.95-3.38-4.49-4.12-1.53-.74-2.59-4.33.95-5.75z" fill="#fff"/></svg>