<svg xmlns="http://www.w3.org/2000/svg" width="180" height="146" viewBox="0 0 180 146"><path d="M62.34,135.55a29,29,0,0,0-3.09-1.71,6.63,6.63,0,0,1-1.42-.86.86.86,0,0,1-.32-.67.88.88,0,0,1,.32-.7,1.71,1.71,0,0,1,1.15-.3,5.83,5.83,0,0,1,2.54.57,13.63,13.63,0,0,1,2.21,1.33.29.29,0,0,0,.31,0,.3.3,0,0,0,.17-.27v-4.06a.31.31,0,0,0-.13-.25,8.42,8.42,0,0,0-1.1-.57,10.8,10.8,0,0,0-2-.65,11,11,0,0,0-2.64-.29,7.66,7.66,0,0,0-3.43.7,5,5,0,0,0-2.13,1.93,5.3,5.3,0,0,0-.7,2.68,5,5,0,0,0,.7,2.67A6.13,6.13,0,0,0,54.55,137,15.13,15.13,0,0,0,57,138.33a9.16,9.16,0,0,1,1.81.95,1.15,1.15,0,0,1,.52.94,1.05,1.05,0,0,1-.3.64c-.11.13-.44.34-1.43.34a6.08,6.08,0,0,1-2.48-.51,17.75,17.75,0,0,1-2.42-1.33.31.31,0,0,0-.31,0,.3.3,0,0,0-.15.26v4.25a.3.3,0,0,0,.17.28,15.79,15.79,0,0,0,2.63.94,14.51,14.51,0,0,0,2,.39c.5,0,.94.07,1.28.07a8.27,8.27,0,0,0,3.39-.66A5.38,5.38,0,0,0,64.08,143a5.24,5.24,0,0,0,.85-3,4.63,4.63,0,0,0-.71-2.61A6.4,6.4,0,0,0,62.34,135.55Z" fill="#fff"/><path d="M82.39,127.38h-4a.3.3,0,0,0-.3.3v6.07H71.7v-6.07a.3.3,0,0,0-.3-.3h-4a.3.3,0,0,0-.3.3V145a.29.29,0,0,0,.3.3h4a.29.29,0,0,0,.3-.3v-6.94h6.38V145a.29.29,0,0,0,.3.3h4a.29.29,0,0,0,.3-.3V127.68A.3.3,0,0,0,82.39,127.38Z" fill="#fff"/><path d="M100.28,129.89a7.94,7.94,0,0,0-2.82-2,9.89,9.89,0,0,0-3.87-.73,9,9,0,0,0-4.94,1.29,8,8,0,0,0-3,3.4,10.52,10.52,0,0,0-1,4.5,10.72,10.72,0,0,0,1,4.49,8.11,8.11,0,0,0,3,3.41,10.09,10.09,0,0,0,9.82,0,7.87,7.87,0,0,0,3-3.36,10.5,10.5,0,0,0,1-4.59,11.07,11.07,0,0,0-.56-3.51A8.79,8.79,0,0,0,100.28,129.89Zm-9.88,2.67a4,4,0,0,1,3.18-1.34,4.53,4.53,0,0,1,1.88.37,3.81,3.81,0,0,1,1.36,1,4.26,4.26,0,0,1,.84,1.54,6.75,6.75,0,0,1,.29,2,6.25,6.25,0,0,1-.52,2.6A3.92,3.92,0,0,1,96,140.49a4.33,4.33,0,0,1-2.37.62,4,4,0,0,1-3.17-1.34,6.12,6.12,0,0,1,0-7.21Z" fill="#fff"/><path d="M126.86,127.4a.31.31,0,0,0-.24-.13h-4.26a.3.3,0,0,0-.28.21l-2.72,8.72-2.92-8.72a.3.3,0,0,0-.29-.21h-3a.3.3,0,0,0-.28.21l-3,8.71-2.59-8.7a.3.3,0,0,0-.29-.22h-4.3a.28.28,0,0,0-.24.13.29.29,0,0,0,0,.27l5,17.55a.31.31,0,0,0,.29.21H111a.3.3,0,0,0,.28-.2l3.38-9.1,3.3,9.1a.29.29,0,0,0,.28.2h3.21a.32.32,0,0,0,.29-.21l5.15-17.55A.29.29,0,0,0,126.86,127.4Z" fill="#fff"/><path d="M62.26,104.42v.37l-1.44-.73L55.16,117l2.9,1.94,1-2.23,3.54-.46.14,1.42,3.35.81-.42-13.42Zm-1.34,7.9,1.41-3.25.29,3Z" fill="#fff"/><polygon points="72.54 106.32 69.08 104.91 66.89 117.23 69.93 118.65 76.68 117.06 77.2 111.94 71.38 112.57 72.54 106.32" fill="#fff"/><polygon points="41.49 104.69 39.27 117.23 42.45 118.65 44.74 105.97 41.49 104.69" fill="#fff"/><polygon points="23.94 104.62 22.52 111.74 20.12 112.89 21.39 106.28 18.07 104.8 15.74 117.83 18.43 118.86 21.71 116.99 25.49 118.86 27.58 106.35 23.94 104.62" fill="#fff"/><polygon points="12.78 104.62 8.93 109.82 6.77 105.82 3.56 104.62 1.33 117.06 4.69 118.54 5.5 113.67 7.79 118.47 11.4 114.02 10.66 117.16 13.73 118.86 16.06 106.07 12.78 104.62" fill="#fff"/><path d="M87.48,115.33V114l4.21-.57-.32-2.4-3.18.25V110l6-.46.18-4.62s-5.87-.57-9.47.42l-1.27,6.29,1.27-.36-1.27,5.37,1.8.5.28,1.76s7.32-.67,7.88-1.3l-1.17-3.22S89.18,115.71,87.48,115.33Z" fill="#fff"/><path d="M48.7,115.18c-1.24-1.06,3.39-7,3.53-2.61h3.82l.63-1.48s-.85-5.34-2.22-5.94-7-1.24-9.33,5c-1.27,3.43-.39,3.5-.39,3.5s.21,3.28,1.35,4a4.84,4.84,0,0,0,5.47.32c2.37-1.41,2.58-2.05,2.58-2.05l-2.69-1.8S49.94,116.24,48.7,115.18Z" fill="#fff"/><path d="M32.13,112.68s2.55-4.35,3-1.49l4.38-.92s-.78-4.8-2.76-5.4-6.25.07-8.37,4.8.5,4.84.5,4.84l5.72-.21s-1.24,2.33-2.83.92l-3,2.33a4.61,4.61,0,0,0,3.95,1.31c2.37-.43,5.94-4.59,5.94-4.59L37.25,112Z" fill="#fff"/><polygon points="151.29 104.69 149.06 117.23 152.24 118.65 154.54 105.97 151.29 104.69" fill="#fff"/><polygon points="174.53 105.03 173.71 110.08 168.25 104.69 165.86 117.11 169.29 118.65 169.9 114.3 175.35 118.65 177.66 106.22 174.53 105.03" fill="#fff"/><path d="M141.88,112.68s2.54-4.35,3-1.49l4.38-.92s-.77-4.8-2.75-5.4-6.25.07-8.37,4.8a12,12,0,0,0-.61,1.64,2.36,2.36,0,0,0,.09-.91c-.24-.89-1-3.47-1-3.47-.27-.87-1.37-3.1-5.85-1.63s-5.39,7.31-5.15,8.17.9,2.93,1.11,3.46.85,2,4.89,1.5c3.18-.36,5.25-4.57,5.87-6.79-.65,2.8,1.18,2.87,1.18,2.87l5.72-.21s-1.23,2.33-2.82.92l-3,2.33a4.62,4.62,0,0,0,4,1.31c2.36-.43,5.93-4.59,5.93-4.59L147,112Zm-11.44,2.58c-2.37.78-.53-4.57,2.08-4.12C133.84,111.37,132.81,114.49,130.44,115.26Z" fill="#fff"/><path d="M115.92,110.24c0-1.2-.78-4.24-1-5.19s-6.29-.6-8.87,0l-1.31,6.53,1.1-.28-1.1,6.29,3.08,1.48.42-3.25S116,111.44,115.92,110.24Zm-7,2.54.28-2.22s2.3-1,2.23.24S108.89,112.78,108.89,112.78Z" fill="#fff"/><polygon points="102.22 104.75 99.95 108.05 99 104.94 94.97 105.26 97.16 111.82 93.98 116.39 96.49 119.07 98.65 115.82 99.39 118.5 103.88 117.97 101.37 111.82 104.47 107.31 102.22 104.75" fill="#fff"/><path d="M121,106.18l-3.36-1.44-2.22,12.49,3.17,1.13c1.63-1,6.33-1.37,6.33-1.37l.49-5.08-5.65.63Z" fill="#fff"/><path d="M166.3,110.62c-.24-.9-1-3.48-1-3.48-.27-.86-1.37-3.09-5.86-1.62s-5.38,7.3-5.14,8.16.9,2.94,1.11,3.47.85,2,4.89,1.5S166.55,111.51,166.3,110.62Zm-7,4.64c-2.37.78-.53-4.57,2.08-4.12C162.71,111.37,161.68,114.49,159.31,115.26Z" fill="#fff"/><polygon points="152.39 79.32 157.55 78.9 158.82 84.93 161.44 79.32 166.03 79.32 167.05 96.37 162.65 97.18 162.01 87.63 158.38 95.52 155.51 87.52 154.36 96.37 149.71 95.65 152.39 79.32" fill="#fff"/><path d="M142.6,78.46c-3.46-.25-6.57,3.59-6.95,8.59s2.13,9.27,5.59,9.53S147.81,93,148.18,88,146.06,78.72,142.6,78.46ZM144,88.15c-.15,2.09-1.24,3.71-2.43,3.62s-2-1.85-1.86-3.94,1.24-3.71,2.43-3.62S144.2,86.07,144,88.15Z" fill="#fff"/><polygon points="91.09 79.76 92.61 95.92 96.47 95.33 97.94 88.82 99.36 95.71 103.04 95.23 107.2 78.97 103.08 78.97 101.52 86.27 100.49 81.03 96.62 81.77 95.4 85.34 95 78.97 91.09 79.76" fill="#fff"/><path d="M87.17,77.85a7,7,0,0,0-5.14.93l-4.56,16a5.75,5.75,0,0,0,4.56.74l1-4.12h2.49l.71,4.07c1.25.29,4.24-.74,4.24-.74ZM83.5,88.42l1-3.57.88,3.57Z" fill="#fff"/><path d="M64.61,89s3.82-2.62,3.56-5.92-5.88-5.29-10.91-1.84l-.41,14.47,4.84,1.76V91.86l3.56,5.36,3.67-3.45Zm-3.07-1.65V84.43s1.8-1.16,2.21,0C64.3,86,61.54,87.32,61.54,87.32Z" fill="#fff"/><polygon points="43.77 78.8 54.64 78.4 54.64 82.78 48.04 83.16 48.04 84.77 51.56 84.57 51.53 88.03 48.11 88.33 48.11 90.47 54.64 89.61 54.64 94.78 44.1 95.87 43.77 78.8" fill="#fff"/><polygon points="108.6 79.3 119.47 78.9 119.47 83.28 112.88 83.66 112.88 85.27 116.4 85.07 116.36 88.53 112.95 88.83 112.95 90.97 119.47 90.11 119.47 95.28 108.94 96.37 108.6 79.3" fill="#fff"/><polygon points="169.13 78.09 180 77.69 180 82.08 173.4 82.45 173.4 84.06 176.93 83.86 176.89 87.32 173.48 87.62 173.48 89.76 180 88.9 180 94.07 169.47 95.16 169.13 78.09" fill="#fff"/><path d="M40.54,80.38c-2.51-3.11-9.75-.67-9.75-.67l-.26,17.21,4.5-1v-6a7.52,7.52,0,0,0,3.82-.91A5.74,5.74,0,0,0,40.54,80.38Zm-5.47,6.23V82.67s3.27-.71,3.26,1.16C38.32,86.35,35.07,86.61,35.07,86.61Z" fill="#fff"/><path d="M16.36,79.6l4.31-.87s-2.62,10.88.3,11,1.72-10.12,1.72-10.12l4-1.61s3.56,17.42-5.3,18.37C12,97.33,16.36,79.6,16.36,79.6Z" fill="#fff"/><path d="M13,79l-.75,4.54s-4.38-1.42-6.71.3-.94,2.78.86,1.95S12.08,85,12.72,88a7.67,7.67,0,0,1-4,8.74,11.87,11.87,0,0,1-7.88.49V92.34S6,93.62,7.59,91.78s.07-2.62-1.13-2S1.92,91.59.31,88.07,3.39,76.52,13,79Z" fill="#fff"/><path d="M134.28,77l-.75,4.33s-4.39-1.36-6.72.28-.93,2.65.87,1.86,5.07-.41,5.93,2.35a6.88,6.88,0,0,1-3.68,8,12.4,12.4,0,0,1-7.88.47V89.73s5.21,1.22,6.79-.53.07-2.51-1.13-1.93-4.21,1.75-5.82-1.61S124.64,74.65,134.28,77Z" fill="#fff"/><polygon points="167.25 45.48 168.02 38.81 148.25 38.81 144.77 63.02 164.77 63.02 165.58 56.45 155.45 56.45 155.75 54.01 164.72 54.01 165.58 47.82 156.5 47.82 156.78 45.48 167.25 45.48" fill="#fff"/><polygon points="145.9 38.81 123.15 38.81 122.06 45.75 128.8 45.75 126.35 63.02 135.97 63.02 138.3 45.75 145.04 45.75 145.9 38.81" fill="#fff"/><path d="M86.74,54.08c9.21-3.55,7.53-12.23,1.52-14.59s-17.15-.26-17.15-.26L67.82,63h9.46l1-7.31c.77,2.44,2.59,6.88,5.77,7.63a10.82,10.82,0,0,0,7.53-.79l.63-5.44C87.84,57.53,86.74,54.08,86.74,54.08Zm-3.4-6.85C83,49.6,80.23,49.83,79,49.82l.63-4.76C81.19,45,83.63,45.13,83.34,47.23Z" fill="#fff"/><path d="M110.06,63h9.88L115,38.81H103.79L92.34,63h9.83l1.64-4h5.72Zm-3.88-9.83,1.95-4.76.63,4.76Z" fill="#fff"/><path d="M61.39,38.81H50.14l-11,22.82.53-4.52c-4.6.11-6.38-6.85-6.38-6.85,7.53-4.62,7.79-11.45,7.79-11.45H31.53c0,4.34-3.21,7-4.65,8l1.1-8H18.09L14.85,62.92h9.83l.86-6.3c1.23,2.63,3.48,6.71,7.61,6.71A34.42,34.42,0,0,0,38.49,63h10l1.65-4h5.71l.54,4H66.3ZM52.54,53.19l1.94-4.76.63,4.76Z" fill="#fff"/><polygon points="78.06 0.49 76.8 9.28 72 9.28 73.26 0.49 63.53 0.49 60.08 24.62 69.81 24.62 71.08 15.72 75.88 15.72 74.61 24.62 84.34 24.62 87.79 0.49 78.06 0.49" fill="#fff"/><path d="M47.41,0C36.34-.27,30.84,8.55,32,15.78S38.84,26.07,46.85,25,58.8,18.73,59.08,11.39,54.41.18,47.41,0ZM45.18,18.23c-5.06.89-3.89-11,1.06-11.12C50.3,7,50.24,17.34,45.18,18.23Z" fill="#fff"/><path d="M17.16.49h14s-1.61,11-2.05,13.9-.62,8.47-7.52,10.41-10.78-1-10.78-1l2.67-6.56s5.23,1.89,5.79-1.67.94-7.95.94-7.95H16.1Z" fill="#fff"/><polygon points="107.15 0.49 105.64 11.04 101.13 0.49 91.4 0.49 87.95 24.62 97.36 24.62 98.86 14.09 103.7 24.62 112.79 24.62 116.24 0.49 107.15 0.49" fill="#fff"/><polygon points="146.11 0.49 155.79 0.49 158.1 7.92 162.72 0.49 171.73 0.49 171.73 1.81 161.92 15.89 160.88 24.62 150.97 24.62 152.34 16.03 146.11 0.49" fill="#fff"/><polygon points="135.77 0.49 134.27 11.04 129.75 0.49 120.02 0.49 116.57 24.62 125.98 24.62 127.48 14.09 132.33 24.62 141.41 24.62 144.86 0.49 135.77 0.49" fill="#fff"/></svg>