<?xml version="1.0" encoding="UTF-8"?><svg id="a" xmlns="http://www.w3.org/2000/svg" width="250" height="72" viewBox="0 0 250 72"><path d="m0,45.24V.5h9.21v36.33h11.38v8.41H0Z" fill="#fff" stroke-width="0"/><path d="m21.61,22.93C21.61,6.11,24.72,0,34.19,0s12.58,6.11,12.58,22.93c0,14.89-2.61,22.81-12.58,22.81s-12.58-7.91-12.58-22.81Zm15.51,0c0-11.96-.64-14.77-2.92-14.77s-2.92,2.8-2.92,14.77c0,13.15,1.02,14.96,2.92,14.96s2.92-1.81,2.92-14.96Z" fill="#fff" stroke-width="0"/><path d="m73.72,29.22c-.19,9.04-2.41,16.51-11.69,16.51-10.99,0-12.2-9.28-12.2-22.99,0-10.28.57-22.74,12.07-22.74,9.72,0,11.38,6.98,11.57,15.7h-8.58c-.19-4.24-.76-7.35-2.61-7.35-2.1,0-2.8,2.93-2.8,14.39,0,13.09.57,14.96,2.8,14.96,2.1,0,2.67-3.49,2.86-8.47h8.58Z" fill="#fff" stroke-width="0"/><path d="m92.27,45.24v-19.01h-5.4v19.01h-9.21V.5h9.21v17.7h5.4V.5h9.09v44.74h-9.09Z" fill="#fff" stroke-width="0"/><path d="m131.61,45.24v-19.01h-5.4v19.01h-9.21V.5h9.21v17.7h5.4V.5h9.09v44.74h-9.09Z" fill="#fff" stroke-width="0"/><path d="m145.78,45.24V.5h20.46v8.41h-11.25v9.22h9.02v8.04h-9.02v10.66h11.88v8.41h-21.1Z" fill="#fff" stroke-width="0"/><path d="m187.34,45.24l-8.64-23.55h-.13v23.55h-7.75V.5h8.77l7.12,20.25h.13V.5h7.88v44.74h-7.37Z" fill="#fff" stroke-width="0"/><path d="m214.67,45.24l-3.62-17.32h-2.1v17.32h-9.15V.5h11.12c8.01,0,12.39,2.93,12.39,12.46,0,5.36-1.72,8.47-4.32,10.22l5.53,22.06h-9.85Zm-4.89-24.86c2.92,0,3.88-1.43,3.88-6.23,0-5.98-2.48-5.98-3.88-5.98h-.83v12.21h.83Z" fill="#fff" stroke-width="0"/><path d="m232.08,45.24v-17.76L223.37.5h9.6l3.56,15.7h.13l3.75-15.7h9.6l-8.71,27.04v17.7h-9.21Z" fill="#fff" stroke-width="0"/><path d="m45.48,71.6v-17.96h-3.63v-2.94h10.91v2.94h-3.59v17.96h-3.69Z" fill="#fff" stroke-width="0"/><path d="m62.47,71.6l-2.58-8.88h-1.61v8.88h-3.66v-20.9h4.83c4.26,0,6.48,1.48,6.48,5.56,0,2.62-1.07,4.22-2.79,5.01l3.29,10.34h-3.96Zm-3.05-11.59c1.81,0,2.69-.84,2.69-3.41,0-2.88-1.28-3.17-3.02-3.17h-.81v6.58h1.14Z" fill="#fff" stroke-width="0"/><path d="m75.93,50.7h3.63v15.72c0,3.7-1.81,5.36-5.61,5.36s-5.57-1.66-5.57-5.36v-15.72h3.66v16.01c0,1.75.7,2.36,1.95,2.36s1.95-.61,1.95-2.36v-16.01Z" fill="#fff" stroke-width="0"/><path d="m84.96,71.6v-17.96h-3.63v-2.94h10.91v2.94h-3.59v17.96h-3.69Z" fill="#fff" stroke-width="0"/><path d="m101.71,71.6v-9.43h-3.96v9.43h-3.66v-20.9h3.66v8.62h3.96v-8.62h3.63v20.9h-3.63Z" fill="#fff" stroke-width="0"/><path d="m123.39,71.6l-1.85-14.38h-.07l-1.71,14.38h-3.79l-3.59-20.9h3.59l1.81,14.12h.07l1.85-14.12h3.69l1.95,14.12h.07l1.71-14.12h3.59l-3.46,20.9h-3.86Z" fill="#fff" stroke-width="0"/><path d="m132.66,71.6v-20.9h3.69v20.9h-3.69Z" fill="#fff" stroke-width="0"/><path d="m139.44,71.6v-20.9h3.66v17.96h6.28v2.94h-9.94Z" fill="#fff" stroke-width="0"/><path d="m151.02,71.6v-20.9h3.66v17.96h6.28v2.94h-9.94Z" fill="#fff" stroke-width="0"/><path d="m167.1,61.12c0-7.69,1.61-10.66,6.11-10.66s6.11,2.97,6.11,10.66c0,7.16-1.51,10.71-6.11,10.71s-6.11-3.55-6.11-10.71Zm8.39,0c0-5.88-.6-7.77-2.28-7.77s-2.28,1.89-2.28,7.77.74,7.92,2.28,7.92,2.28-1.81,2.28-7.92Z" fill="#fff" stroke-width="0"/><path d="m189.28,50.7h3.63v15.72c0,3.7-1.81,5.36-5.61,5.36s-5.57-1.66-5.57-5.36v-15.72h3.66v16.01c0,1.75.7,2.36,1.95,2.36s1.95-.61,1.95-2.36v-16.01Z" fill="#fff" stroke-width="0"/><path d="m198.31,71.6v-17.96h-3.63v-2.94h10.91v2.94h-3.59v17.96h-3.69Z" fill="#fff" stroke-width="0"/></svg>