<svg xmlns="http://www.w3.org/2000/svg" xmlns:xlink="http://www.w3.org/1999/xlink" width="260" height="75" viewBox="0 0 260 75"><defs><linearGradient id="a" x1="-2927.98" y1="13.67" x2="-2979.11" y2="13.67" gradientTransform="matrix(-1, 0, 0, 1, -2719.11, 0)" gradientUnits="userSpaceOnUse"><stop offset="0" stop-color="#fff"/><stop offset="1" stop-color="#fff" stop-opacity="0"/></linearGradient><linearGradient id="b" x1="-632.27" y1="13.67" x2="-683.4" y2="13.67" gradientTransform="translate(683.4)" xlink:href="#a"/><linearGradient id="c" x1="-235.71" y1="-1052.45" x2="-300.89" y2="-1052.45" gradientTransform="matrix(1, 0, 0, -1, 300.89, -983.73)" xlink:href="#a"/><linearGradient id="d" x1="-3298.64" y1="-1052.45" x2="-3361.62" y2="-1052.45" gradientTransform="translate(-3101.62 -983.73) rotate(180)" xlink:href="#a"/></defs><path d="M64.93.55v4.3H63A3,3,0,0,0,60.34,8a3.39,3.39,0,0,0,2.91,3.58h1.68v4.31H62.64c-1.78,0-7.28-.75-7.28-7.67,0-7.35,6.1-7.66,7.58-7.66Z" fill="#fff"/><path d="M133.64.55v4.3h-1.9A3.06,3.06,0,0,0,129,8,3.39,3.39,0,0,0,132,11.57h1.69v4.31h-2.3c-1.78,0-7.28-.75-7.28-7.67,0-7.35,6.1-7.66,7.58-7.66Z" fill="#fff"/><path d="M73.45.21a7.69,7.69,0,0,0-7.39,8c0,4.4,3.31,8,7.39,8a7.7,7.7,0,0,0,7.4-8A7.69,7.69,0,0,0,73.45.21Zm0,11.45a3.21,3.21,0,0,1-3.12-3.29,3.13,3.13,0,1,1,6.25,0A3.21,3.21,0,0,1,73.45,11.66Z" fill="#fff"/><path d="M95.92,5.23l-1.5,10.7h5l.72-8.54,2.53,8.54h3.21l2.28-8.07,1.24,8.07h5.08L111.84,1h-5.13l-2.25,8.21L102,1H86.77c-1.74,0-3.66.61-4.07,3.1s1.6,3.86,2.88,5.13,1.91,1.69,1.57,2.33a.93.93,0,0,1-.88.37H82.64v4h5.5a4.43,4.43,0,0,0,4.36-3c.68-2.31-1.45-4.46-2.54-5.35s-2.3-1.5-2-2.07.63-.4,2.3-.4S95.92,5.23,95.92,5.23Z" fill="#fff"/><circle cx="119.17" cy="2.36" r="2.36" fill="#fff"/><rect x="116.81" y="6.58" width="4.71" height="9.35" fill="#fff"/><polygon points="139.67 0.57 143.7 15.82 148.12 15.82 149.67 7.5 151.31 15.82 156.07 15.82 160.46 0.57 155.9 0.57 153.39 10.15 151.39 0.57 148.15 0.57 146.23 10.1 143.89 0.57 139.67 0.57" fill="#fff"/><path d="M170,.57h-6.08l-5.3,15.25h5.63l.5-1.86h4.14l.6,1.86h5.39Zm-5,9.77,1.79-6.18,1.86,6.18Z" fill="#fff"/><path d="M200.24,4.5c1.68,0,9.35.12,9.35.12l0-4.08H196.74c-1.75,0-3.66.61-4.08,3.1s1.61,3.86,2.88,5.13,1.91,1.69,1.57,2.33c-.1.2-.37.37-.87.37h-8l-1.08-1.86a4.26,4.26,0,0,0,3.1-4.45A4.39,4.39,0,0,0,185.68.57h-8.55l-.06,15.25h5v-6l2.78,5.9h13.46a4.34,4.34,0,0,0,4.35-3c.83-2.48-1.68-4.88-2.77-5.77s-2.29-1.5-2-2.07S198.57,4.5,200.24,4.5ZM182,7.57V4.33s3.87-.67,3.89,1.62S182,7.57,182,7.57Z" fill="#fff"/><polygon points="208.87 15.67 260 15.67 208.87 11.66 208.87 15.67" fill="url(#a)"/><polygon points="51.13 15.67 0 15.67 51.13 11.66 51.13 15.67" fill="url(#b)"/><polygon points="65.19 66.72 0 66.72 65.19 70.72 65.19 66.72" fill="url(#c)"/><polygon points="197.02 66.72 260 66.72 197.02 70.72 197.02 66.72" fill="url(#d)"/><path d="M73.27,66.73h5v1h-4V70H78v1H74.32v2.49h4.15v1h-5.2Z" fill="#fff"/><path d="M85.45,66.73h2.73a3.07,3.07,0,0,1,1.22.21,2.07,2.07,0,0,1,.77.51,1.78,1.78,0,0,1,.38.7,2.61,2.61,0,0,1,0,1.5,1.82,1.82,0,0,1-.38.71,2.2,2.2,0,0,1-.77.51,3.08,3.08,0,0,1-1.22.2H86.5v3.42h-1Zm1,3.42h1.38a3.14,3.14,0,0,0,.61-.05,1.44,1.44,0,0,0,.53-.18.87.87,0,0,0,.38-.38,1.19,1.19,0,0,0,.15-.64,1.24,1.24,0,0,0-.15-.64,1,1,0,0,0-.38-.38,1.94,1.94,0,0,0-.53-.18,4.18,4.18,0,0,0-.61,0H86.5Z" fill="#fff"/><path d="M97.43,66.73h1v7.76h-1Z" fill="#fff"/><path d="M106.19,72.87a1.64,1.64,0,0,0,.73.63,2.09,2.09,0,0,0,.91.21,1.7,1.7,0,0,0,.54-.09,1.54,1.54,0,0,0,.5-.24,1.45,1.45,0,0,0,.37-.41,1.13,1.13,0,0,0,.14-.56.82.82,0,0,0-.29-.68,2.47,2.47,0,0,0-.7-.4c-.29-.1-.59-.21-.92-.31a3.38,3.38,0,0,1-.93-.41,2.06,2.06,0,0,1-1-1.9,2,2,0,0,1,.15-.73,2,2,0,0,1,.47-.7,2.53,2.53,0,0,1,.81-.53,3.14,3.14,0,0,1,1.2-.21,4.09,4.09,0,0,1,1.22.17,2.14,2.14,0,0,1,1,.71l-.86.78a1.38,1.38,0,0,0-.55-.49,1.75,1.75,0,0,0-.83-.19,2,2,0,0,0-.73.12,1.25,1.25,0,0,0-.46.29,1,1,0,0,0-.25.39,1.15,1.15,0,0,0-.07.39,1,1,0,0,0,.29.75,2.12,2.12,0,0,0,.7.43,9,9,0,0,0,.92.3,3.75,3.75,0,0,1,.92.36,2.08,2.08,0,0,1,.71.64,1.87,1.87,0,0,1,.29,1.1,2.23,2.23,0,0,1-.22,1,2.27,2.27,0,0,1-.57.76,2.64,2.64,0,0,1-.86.47,3.3,3.3,0,0,1-1,.16,3.88,3.88,0,0,1-1.41-.26,2.43,2.43,0,0,1-1.07-.81Z" fill="#fff"/><path d="M121.1,74.69a4.2,4.2,0,0,1-1.64-.31,3.91,3.91,0,0,1-1.27-.86,4,4,0,0,1-.84-1.29,4.5,4.5,0,0,1,0-3.23,3.88,3.88,0,0,1,2.11-2.15,4.2,4.2,0,0,1,1.64-.31,4.15,4.15,0,0,1,1.63.31,3.8,3.8,0,0,1,1.28.86,3.92,3.92,0,0,1,.83,1.29,4.5,4.5,0,0,1,0,3.23,4.14,4.14,0,0,1-.83,1.29,4,4,0,0,1-1.28.86A4.15,4.15,0,0,1,121.1,74.69Zm0-1a2.89,2.89,0,0,0,1.2-.25,3,3,0,0,0,.92-.66,2.92,2.92,0,0,0,.6-1,3.36,3.36,0,0,0,.21-1.2,3.44,3.44,0,0,0-.21-1.2,3,3,0,0,0-.6-1,2.67,2.67,0,0,0-.92-.66,2.74,2.74,0,0,0-1.2-.25,2.85,2.85,0,0,0-2.13.91,3.13,3.13,0,0,0-.59,1,3.44,3.44,0,0,0-.21,1.2,3.36,3.36,0,0,0,.21,1.2,2.8,2.8,0,0,0,1.51,1.65A2.94,2.94,0,0,0,121.1,73.71Z" fill="#fff"/><path d="M132,66.73h2.71a4.79,4.79,0,0,1,1.44.19,3.84,3.84,0,0,1,1.08.5,3.22,3.22,0,0,1,.75.72,3.88,3.88,0,0,1,.73,1.68,4.7,4.7,0,0,1,.08.79,3.73,3.73,0,0,1-.28,1.44,3.51,3.51,0,0,1-.81,1.24,3.91,3.91,0,0,1-1.33.88,5,5,0,0,1-1.84.32H132Zm1,6.78h1.33a4.38,4.38,0,0,0,1.27-.18,2.88,2.88,0,0,0,1-.55,2.66,2.66,0,0,0,.72-.9,2.94,2.94,0,0,0,.26-1.27,3.75,3.75,0,0,0-.12-.87,2.53,2.53,0,0,0-.46-.95,2.7,2.7,0,0,0-.92-.76,3.3,3.3,0,0,0-1.54-.31H133Z" fill="#fff"/><path d="M145.74,66.73h5v1h-4V70h3.69v1h-3.69v2.49H151v1h-5.21Z" fill="#fff"/><path d="M165.39,66.73h1.22l2.28,6.32h0l2.37-6.32h1.15l-3.06,7.76h-1Z" fill="#fff"/><path d="M178.84,66.73h1v7.76h-1Z" fill="#fff"/><path d="M187.37,66.73h1v7.76h-1Z" fill="#fff"/><path d="M21,30.55h7.84L38.6,51.94H31.17L29.76,48.8H20l-1.34,3.14H11.25Zm7.18,13.89-3.26-8.31L21.7,44.44Z" fill="#fff"/><path d="M51.62,30.55H58L68.53,41.31V30.55H76V51.94H69.63L59.12,41.18V51.94h-7.5Z" fill="#fff"/><path d="M80.42,30.55h16v4.83H87.92v3.29h7.81V43.5H87.92v3.61h8.65v4.83H80.42Z" fill="#fff"/><path d="M98,30.55h7l2.48,9.6h.06l2.67-9.6h5.43l2.82,9.6h.06l2.32-9.6h7l-7.25,21.39h-4.48L113,41.34H113l-3,10.6h-4.49Z" fill="#fff"/><path d="M140.33,44.94a10.52,10.52,0,0,0,5.84,2.14c1.38,0,2.13-.63,2.13-1.48s-.72-1.35-3.83-2.85c-2.88-1.38-4.14-3.17-4.14-6,0-3.14,2.23-6.46,7.56-6.46a10.61,10.61,0,0,1,6.75,2.29V38.2c-2.11-1.91-3.71-2.79-5.34-2.79-1.25,0-2.07.57-2.07,1.47s.79,1.48,3.77,3c3.45,1.73,4.48,3.67,4.48,6,0,3.86-3.32,6.37-7.74,6.37a17.73,17.73,0,0,1-7.41-1.47Z" fill="#fff"/><path d="M164.27,35.91h-6.68V30.55h20.85v5.36h-6.68v16h-7.49Z" fill="#fff"/><path d="M186.91,30.55h7.85l9.75,21.39h-7.43l-1.41-3.14h-9.73l-1.35,3.14h-7.43Zm7.19,13.89-3.26-8.31-3.24,8.31Z" fill="#fff"/><path d="M207.09,30.55h11.35c6.18,0,9.09,2.1,9.09,6.11a5.15,5.15,0,0,1-3.44,5c1.16.53,2,1.25,3.57,4.8l2.48,5.52h-7.5l-2.29-5.08c-1.13-2.54-2.19-3.26-3.76-3.26h-2v8.34h-7.49Zm9.44,9.28c2.32,0,3.92-.94,3.92-2.69,0-2.29-1.95-2.7-4.08-2.7h-1.79v5.39Z" fill="#fff"/><path d="M236.26,35.91h-6.68V30.55h20.85v5.36h-6.68v16h-7.49Z" fill="#fff"/><path d="M21,30.55h7.84L38.6,51.94H31.17L29.76,48.8H20l-1.34,3.14H11.25Zm7.18,13.89-3.26-8.31L21.7,44.44Z" fill="#fff"/><path d="M51.62,30.55H58L68.53,41.31V30.55H76V51.94H69.63L59.12,41.18V51.94h-7.5Z" fill="#fff"/><path d="M80.42,30.55h16v4.83H87.92v3.29h7.81V43.5H87.92v3.61h8.65v4.83H80.42Z" fill="#fff"/><path d="M98,30.55h7l2.48,9.6h.06l2.67-9.6h5.43l2.82,9.6h.06l2.32-9.6h7l-7.25,21.39h-4.48L113,41.34H113l-3,10.6h-4.49Z" fill="#fff"/><path d="M140.33,44.94a10.52,10.52,0,0,0,5.84,2.14c1.38,0,2.13-.63,2.13-1.48s-.72-1.35-3.83-2.85c-2.88-1.38-4.14-3.17-4.14-6,0-3.14,2.23-6.46,7.56-6.46a10.61,10.61,0,0,1,6.75,2.29V38.2c-2.11-1.91-3.71-2.79-5.34-2.79-1.25,0-2.07.57-2.07,1.47s.79,1.48,3.77,3c3.45,1.73,4.48,3.67,4.48,6,0,3.86-3.32,6.37-7.74,6.37a17.73,17.73,0,0,1-7.41-1.47Z" fill="#fff"/><path d="M164.27,35.91h-6.68V30.55h20.85v5.36h-6.68v16h-7.49Z" fill="#fff"/><path d="M186.91,30.55h7.85l9.75,21.39h-7.43l-1.41-3.14h-9.73l-1.35,3.14h-7.43Zm7.19,13.89-3.26-8.31-3.24,8.31Z" fill="#fff"/><path d="M207.09,30.55h11.35c6.18,0,9.09,2.1,9.09,6.11a5.15,5.15,0,0,1-3.44,5c1.16.53,2,1.25,3.57,4.8l2.48,5.52h-7.5l-2.29-5.08c-1.13-2.54-2.19-3.26-3.76-3.26h-2v8.34h-7.49Zm9.44,9.28c2.32,0,3.92-.94,3.92-2.69,0-2.29-1.95-2.7-4.08-2.7h-1.79v5.39Z" fill="#fff"/><path d="M236.26,35.91h-6.68V30.55h20.85v5.36h-6.68v16h-7.49Z" fill="#fff"/></svg>