<svg xmlns="http://www.w3.org/2000/svg" viewBox="0 0 250 160"><g fill="#fff"><path d="M51.02 40.23c-.18-.84-1.16-.86-1.85-.77-.3.04-.94.98-1.54.95-4.74 5.07-14.01 15.29-11.14 22.8 1.81 4.74 8.14 3.66 11.87 2.09 3.47-1.45 6.13-4.19 5.46-8.25-.24-.38-3.36-.09-3.98-.03-2.79.27-6.67 1.33-9.33 1.3-.38 0-1.56-.36-1.75-.65-.79-1.25 2.8-2.81 3.76-2.98 4.43-.81 9.37-.73 13.84-1.58.46-.07 1.51.4 1.77.72.86 1.06-.12 6.47-.42 8.01-.66 3.36-1.99 6.62-1.93 10.1-1.57.73-3.32-1.33-3.61-2.72-.17-.82.03-1.8-.27-2.66-1.77.65-3.26 1.77-5.09 2.39-9.65 3.22-16.35-2.76-13.72-12.63 1.33-4.99 10.4-17.78 15.23-19.67 3.06-1.2 7.09-1.07 6.79 3.11-1.11.91-1.86 2.21-2.88 3.19-.34.33-.69.87-1.2.86-.15-1.05.2-2.6 0-3.58zM120.18 59.82c-1.55.35-2.15-1.31-2.52-2.53-1.75-5.78-2.43-12.78-2.88-18.79-.17-2.3-1.14-8.88.2-10.6 1.2-.46 2.06-.04 2.85.83 1.21 1.34 2.33 3.5 3.47 4.99 2.89 3.8 9.42 12.48 13.26 14.71.6.35 1.73 1.09 1.92.03.27-1.47-.09-3.98 0-5.63.26-4.82.5-11.6 1.35-16.2.26-1.39.88-4.57 2.99-3.52 1.21.6.1 4.85 0 6.07-.61 7.55-.64 15.18-.86 22.76-.17 1.38-.74 1.71-2.06 1.63-3.5-.19-11.02-7.26-13.45-9.98-2.07-2.31-3.72-4.93-5.64-7.37-.31.22-.34.38-.33.75.02 2.73 1.01 6.67 1.31 9.55.18 1.75 1.17 12.68.42 13.3zM100.98 42.16c-.9.66-1.74 1.36-2.7 1.96-.58.36-3.57 1.77-3.62 2.18 0 .03.18.5.2.52.85.09 1.81.24 2.62.52 3.63 1.26 9.07 5.39 12.68 7.48 1.18.68 3.08 1.04 3.7 2.37.5 1.05.5 2.21-.92 2.23-1.86.03-4.7-1.96-6.39-2.95-4.23-2.47-8.38-5.64-13.2-6.96-.44-.12-2.67-.69-2.87-.5 0 .95.12 1.93.28 2.87.42 2.61 1.77 7.44 1.7 9.81-.04 1.2-.93 2.3-2.19 1.73-.51-.23-.84-1.26-1.02-1.79-1.15-3.28-1.58-8.07-2.29-11.58-.79-3.95-1.97-8.03-2.53-11.98-.31-2.19 1.25-3.68-1.53-4.97.2-.29.44-.4.74-.55.91-.44 3.53-1.02 4.62-1.24 4.13-.82 14.77-2.12 17.62 1.57 3.02 3.92-2.19 7.3-4.91 9.29zm.01-3.46c1.08-.92 3.76-3.46 1.51-4.61-2.86-1.47-11.27-1.02-14.31.16-1.47.57-.44 2.08-.32 2.97.28 1.95.3 4.29.76 6.17.15.62.26 1.13.88 1.45 3.81-1.81 8.26-3.38 11.48-6.14zM79.21 46.95c-.29 1.21-2.58 3.02-3.62 3.75-3.38 2.39-7.38 3.9-11.06 5.74-1.01.9-.21 4.82-.68 6.27.09.21.26.47.5.51.65.1 4.9-2.26 5.89-2.71 2.78-1.28 8.31-4.18 11.22-3.9.61.06 3.46.58 2.55 1.61-.6.68-3.47 1.28-4.41 1.68-5.28 2.22-10.33 5.08-15.56 7.42-1.27.37-2.59-.45-3.36-1.42-.14-7.44-.2-14.97-.12-22.43.02-1.75.32-3.55.24-5.42s-1.21-2.56 1.1-3.43c3.77-1.42 1.11 2.41 2.85 2.41.74 0 3.69-1.13 4.65-1.42.53-.16 1.06-.39 1.31-.46 3.74-1.1 8.77-3.43 11.75.09l-17.93 5.6-.51 1.11-.19 10.71c.21.08.41.17.65.13 1.13-.21 4.77-2.08 5.9-2.75 2.4-1.41 5.05-3.76 7.2-5.6.44-.38.7-1.22 1.62-1.08-.16 1.01.22 2.67 0 3.58zM121.65 103.33c-.21.28-1.26.89-1.59 1.23-1.57 1.56-3.1 2.99-4.99 4.22-.5.33-3.54 1.79-3.54 2.09 1.45.78 3.01.89 4.56 1.72 2.93 1.58 5.98 3.69 8.95 5.36.93.52 4.97 2.04 4.69 3.29-.11.47-1.83.73-2.29.75-1.81.1-3.85-1.06-5.47-1.85-4.67-2.26-9.06-5.68-14.36-6.25-.83.36.09 3.48.2 4.36.29 2.35.82 5.27.9 7.55.02.6.23 3.09-.74 2.92-.5-.39-.94-.8-1.23-1.38-.6-1.21-1.46-4.46-1.88-5.93-1.07-3.75-4.05-14.98-3.73-18.34.05-.52.47-1.29.37-1.71-.16-.69-2.37-1.42-2.13-2.53 2.15-.67 4.26-1.58 6.45-2.12 3.75-.91 11.49-1.97 14.78.08 1.26.78 2 1.64 1.98 3.22 0 .57-.63 2.87-.94 3.3zm-4.18-.49c.19-.2.5-.3.67-.51 2.01-2.49.11-3.64-2.42-3.88-3.63-.35-7.39.46-10.93 1.16-1.21.7-.21 5 .07 6.22.14.64.62 2.91.84 3.28.34.56.95.4 1.5.27 2.89-.68 8.23-4.39 10.27-6.53zM183.38 87.87c-.25.35-.48 3.43-.51 4.15-.08 1.73-.19 4.66 0 6.3.04.32.02.55.34.75l5.04-3.03c3.04-1.91 6.19-4.23 8.32-7.13l.79.29c-.3 1.49 0 2.68-.56 4.17s-2.74 3.01-4.05 3.97c-2.94 2.14-6.17 3.67-9.41 5.33-.41.6-.58 4.78-.56 5.72.02.82.88.56 1.39.31 1.95-.92 3.78-2.21 5.68-3.21 2.85-1.5 8.27-5 11.36-3.81.79.31 1.19 1.16.42 1.71-.92.66-3.55 1.34-4.79 1.93-4.3 2.07-9.07 5.6-13.32 7.27-1.79.7-3.64.03-4.08-1.94l.21-26-.42-2.24 3.31-.88c.48.15.57 2.07.57 2.59.25 0 .5.03.74-.01 3.61-.67 8.4-3.67 12.15-4.54 1.6-.24 3.43.42 4.23 1.84-3.79 1.5-7.74 2.6-11.55 4.07-.97.37-4.89 1.82-5.3 2.39zM51.12 111.52c-1.81 1-3.9 2.54-4.89 4.49-.08.16-.36.18-.4.33-.45 1.93 1.12 3 2.59 3.86 4.58 2.68 10.71 4.48 15.17 7.38 6.23 4.04-1.75 8.14-5.52 9.43-2.93 1-12.61 3-15.34 2.32-1.61-.4-1.13-1.72.02-2.47 2.91-1.9 6.37-.92 9.41-1.43 1.83-.3 6.17-2.05 7.96-2.88 2.03-.94 2.1-1.29.15-2.53-3.55-2.26-8.31-4-12.16-5.84s-6.54-2.7-6-7.66c.08-.74.72-2.13 1.12-2.78 2.75-4.49 8.93-6.68 13.96-7.07s6.96 2.47 6.52 7.16l-3.7 1.07-.23-.44c1.55-3.48-1.69-4.87-4.7-4.49-1.55.2-2.66.84-3.97 1.56zM148.23 26.95c2.37-.33 4.9-1.22 7.24-1.54 5.24-.72 8.55 1.02 10.88 5.77 4.2 8.57.11 24.42-11.55 23.46-10.6-.87-12.27-18.72-7.79-25.98.36-.58 1.07-.91 1.22-1.71zm2.08 9.45c-1.46.51-1.74.49-1.91 2.1-.58 5.58 3.25 15.29 10.34 12.5 7.63-3 8.35-23.63-2.43-22.79-4.62.36-6.54 3.84-6 8.19zM161.52 93.22l-.33.53c.7 1.89.47 4.23.66 6.29.24 2.71.87 5.61 1.08 8.24.12 1.49.29 3.02-1.31 3.67-1.95.8-1.95-2.76-2.58-3.91l-.92-14.47c-.21-.64-3.51-.99-4.26-1.06l-1.78-2.34c.13-.18 3.87-.63 4.44-.66 6.39-.37 18.12.71 19.97 8.23.96 3.9-.75 6.81-2.94 9.88l1.05.68-.07 2.26c-1.06.55-2.14 1.05-3.22 1.56-1.68.79-8.34 4.3-9.6 4.49-.6.09-3.23.41-3.1-.49.31-.48.62-.96 1.05-1.35 2.47-2.26 6.32-3.81 9.01-6.18 3.37-2.96 7.08-8.28 3.35-12.45-1.13-1.26-5.39-2.92-7.04-2.92h-3.47zM156.35 113.51c.11-.07-.01-.39.18-.35.89-.25-.4 1.65-.54 1.84-3.22 4.2-7.28 2.59-9.87-1.19-1.71 2.18-4.15 7.21-7.15 7.58-1.77.22-3.48-.34-4.86-1.44-5.34-4.25-3.41-16.21-3.92-22.3-.06-.77-.85-3.16-.56-3.58 1.29-1.41 3.69 1 3.97 2.12.4 1.57.06 6.45.06 8.41s-.23 3.92.02 6.03c.42 3.48 2.24 10.75 6.7 6.1 4.1-4.27 6.23-12.25 6.51-17.98.12-2.43-.1-4.91-.02-7.34.14-.61 3.06-.46 3.26.61s.09 4.42 0 5.63c-.33 4.48-2.31 8.83-.91 13.48 1.08 3.57 4.05 4.26 7.13 2.37zM189.43 50.7c-.07-.04-.88-1.11-.99-1.28-3.02-4.51-5.24-17.01-6.18-22.64-.19-1.12.16-3.91-1.21-4.01-1.07-.07-6.14 1.96-7.52 2.48-1.63.61-2.72 1.67-4.74 1.23-.21-1.63.93-2.59 2.19-3.34 7.44-4.44 20.52-6.78 29.14-7.07.99-.03 4.25-.22 4.77.46 1.03 1.35-1.8 3.28-2.97 2.98-.28-.07-.51-.42-.8-.51-1.61-.5-12.43 1.35-14.42 2.08-.43.16-1.01.28-1.17.79-.1.33.15 2.43.21 2.96.58 5.18 2.11 11.58 3.5 16.65.44 1.6 2 4.93 2.1 6.35.06.86-.5 3.69-1.9 2.87zM98.24 100.97c-.05.13-2.04 1.69-2.28 1.74-.64.16-.95-.32-1.47-.38-1.69-.21-3.55.31-5.22.61-1.23.22-2.28.42-3.6.74-.92.22-4.97 1.11-5.14 1.82.02.52.37.86.49 1.4 1.32 5.82 2.02 11.78 3.41 17.61.38 1.6 1.5 4.06 1.7 5.45.36 2.49-1.45 3.53-2.78 1.04-.9-1.68-1.89-5.51-2.47-7.5-1.32-4.48-2.93-10.02-3.42-14.58-.19-1.78.86-2.89-2.15-1.95-2.3.72-5.83 3.38-7.54 3.74-2.29.48-3.44-.42-1.93-2.47 1.41-1.92 10.15-5.5 12.71-6.26 4.45-1.32 10.66-2.58 15.29-2.71.92-.03 5.14-.1 4.4 1.69zM208.64 78.1c.5.66.53 1.2.48 2.01-.14 2.2-.9 4.38-1.29 6.52-.68 3.76-1.48 8.71-1.31 12.77.06 1.49.49 3.12.45 4.64l.63.13 4.95-3.11c3.8-1.98 9.74-3.35 14.03-3.29.5 0 2.15.16 2.55.27.78.22.79 2.05.37 2.45-.85.83-6.38.8-7.92.97-3.34.38-5.72 1.54-8.65 3.06-1.45.75-2.81 1.64-4.05 2.45-2.85 1.86-3.94 1.47-4.83-1.66-2.05-7.17-.01-16.91 1.34-24.15.09-.47-.04-.96.08-1.44.31-1.22 1.98-1.98 3.16-1.63zM144 78.42c-.12-.61-5.46 1.14-6.43-2.72-.55-2.17.6-3.38 1.33-5.09 1.78-4.22.7-7.3.12-7.9-.35-.36-1.82-.04-2.19.2-2.74 1.72-1.99 8.3-2.2 8.64-.4.64-2.19-1.31-5.29.13-2.77 1.29-3.17 3.46-3.5 3.88-.7.89-.85.37-1.44.78-.27.19-2.08 3.94-3.33 4.74-.56.3-1.49.09-1.69-.58-.4-1.34.28-4.32-.42-5.39-.3-.46-1.37-1.84-2.33-1.83s-2.44-.07-4.51 3.08c-.4.61-.33 1.58-1.13 1.69-.42.06-.42-.29-.48-.6-.15-.77 0-1.54-.08-2.31-.05-.45-.03-1.22-.2-1.64-.39-.99-1.99-.85-1.93.74.06 1.87-.04 4.1-.57 5.74-.48 1.47-3.15 1.53-3.41 1.49-1.48-.2-3.41-1.93-2.99-7.45.02-.28-1.46-1.37-2.12-.45s-.89 4.66-.89 4.84c-.25 6.09-3.68 6.5-4.07 5.54-1.27-1.6-.96-3.13-1.11-4.74-.13-1.32.25-3.92-.02-4.91-.05-.19-.24-1.2-1.43-1.21s-1.17 3.94-1.2 4.62c-.11 2.24.66 6.57 2.18 8.25 1.07 1.19 1.93 1.35 3.48 1.09 1.8-.31 2.86-2.09 3.49-3.62.06-.16.3-1.49.52-1.48 0 0 2.14 2.38 5.27 1.55 1.31-.35 1.31-.93 2.28-.64 1.14.34.44 2.58 2.34 1.99.61-.19 1.34-3.62 1.78-4.57 3.06-6.09 4.92-4.05 4.93-2.99.05 7.98 4.31 6.51 5.78 5.02.64-.65 1.12-1.4 1.8-1.21-.07 2.31 3.51 1.92 5 1.39 3.43-1.2 5.41-5.22 5.78-5.32 1.09-.31.28.74 2.01 1.88 3.02 1.98 7.02-.01 6.91-.62zm-14 1.35c-.67.53-4.8 2.21-3.91-.92.1-.34.86-1.51 1.04-1.8.55-.9 3.95-4.33 5.18-3.74s2.06 3-2.31 6.45zm7.01-9.09c-1.05-.11-.68-3.24-.51-3.94.16-.64 1.14-2.22 1.89-1.66s-.33 5.71-1.38 5.6z"/></g><path d="M69.27 159.93c-1.08 0-2.11-.02-3.08-.07-19.99-.92-32.03-5.01-38.58-12.5-5.77-6.6-4.57-19.56-4-26.07l.07-.75c1.32-15.04 1.55-17.75-8.41-28.3-6.5-6.87-17.09-20.61-15-35.3 1.38-9.69 8.04-18.11 19.79-25.01 23.5-13.8 59.07-19.05 82.6-22.53 1.39-.2 2.74-.4 4.05-.6 2.12-.32 4.65-.72 7.59-1.18 14.94-2.36 39.94-6.32 63.02-7.28 28.69-1.2 51.49.52 58.98 9.14 11.51 13.25 5.5 26.51 2.77 35.8-1.67 5.67-3.68 10.48-1.46 14.59 1.36 2.53 3.66 4.93 5.21 7.22 5.69 8.4 11.08 15.98 3.36 31.58-6.64 13.43-62.43 32.1-78.69 37.09-39.24 12.03-78.42 24.17-98.21 24.17zM187.39 3.59c-3.14 0-6.45.07-9.93.22-22.88.95-47.76 4.89-62.62 7.24-2.95.47-5.49.87-7.62 1.19-1.31.2-2.66.4-4.05.6-23.27 3.43-58.43 8.63-81.35 22.09-10.79 6.34-16.88 13.91-18.11 22.5-.81 5.69-.06 17.47 14.08 32.43 11.03 11.68 10.71 15.38 9.34 30.98l-.07.75c-.77 8.77.56 14.4 4.44 18.83 5.89 6.74 17.99 10.44 36.99 11.32.9.04 1.85.06 2.85.06 19.23 0 56.7-7.59 95.1-19.36 41.23-12.64 70.42-25.96 74.36-33.94 6.82-13.79 1.98-20.93-3.62-29.2-1.6-2.36-3.26-4.81-4.7-7.49-2.89-5.36-1.18-11.17.63-17.31 2.63-8.92 5.6-19.02-4.66-30.84-5.81-6.69-19.61-10.06-41.08-10.06z" fill="#fff"/></svg>