<svg xmlns="http://www.w3.org/2000/svg" width="200" height="153" viewBox="0 0 200 153"><g fill="#fff"><path d="M59.21 10.79l-2.07 12.36S67 13.16 70.78 17 69.29 26.22 66 27.89c-.53.28-.53 1.19-.53 1.19a37.09 37.09 0 0 1 7.3-1.63C76 27.2 81.2 27 81.2 27s-6.2-6.57-4.39-11.61 9.58-.39 9.58-.39-2.81-7.71-.74-14c0 0-3.41-.45-8.55 4.64s-9.86 7.51-13.19 7.81c-4.4.41-4.7-2.66-4.7-2.66z"/><path d="M88.71 1.79a20.62 20.62 0 0 1 .58 13.59 33.8 33.8 0 0 1-6.05 11.17l11.39-.22s-3.54-2.33-2.82-6 3.5-4 5.69-3.09 2.56 4.93-.4 8c0 0 4.13.18 5.56-.58a17.27 17.27 0 0 1 4-1.21s-4.09-2.69-4.26-9 2.64-9.38 4-10.77 5.51-3.46 5.51-3.46a5.7 5.7 0 0 0-3 0c-1 .49-5.52 2.65-9.87 2.38 0 0 2.24 4.62.44 7.62s-5 3.91-6.32 1.39S93.11 4.3 95 2.15z"/><path d="M117.56 14.26s-2.33 6.48-5.29 6.51c-4.18 0-5.34-5.07-5.34-5.07l12.87-3.37s-1.66-8.57-6.8-8.66-8.25 5.93-8.25 10.1 3.14 11.35 8.48 11.62 11.35-3.28 12.69-8.21c-.02 0-5.44.63-8.36-2.92zm-6.1-7.49c2.73-.18 3.14 2.83 3.14 2.83l-7.6 2.15s1.72-4.75 4.46-4.98zM10 38.88s-2.44 6.74-2.36 8.68c0 0-5.9-3.71-5.14-12.56s9.27-11 13.5-7.5 5.29 8.18 5 12.56-1 11-1 11 5-11.55 4.63-16.27h3.88s.25 14 2.69 15.17c0 0-2.27-11.46-.42-21.49S34 16.8 34 16.8s1.68 10.11 8.84 10.53c0 0-7.67-.16-9.27 9.27s.59 15.17 1.86 16.6 3.2 3.37 3.2 3.37h-9.25s1.18-7.24-2.61-7.92-4 4.22-3.54 5.14 1.69 3.63 1.69 3.63-7-.17-9.53 1.43a33.57 33.57 0 0 0 2.87-14.24c0-8.68-2.19-14.46-5.23-15.53s-9.18 2.3-3.03 9.8z"/><path d="M42.44 30.37c-3.2.5-7 2.95-7.5 11.39S38.06 54 43.71 53.29 50 40.82 50 37.28s-2-7.79-7.56-6.91zm0 20.14c-.74-.09-4.15-3-4.82-6.58s1.09-9.43 3.45-9.43c2 0 1.58 4.87 1.41 6.17.61-4 4.52-9.43 5.08-2.38.6 7.23-4.36 12.3-5.1 12.22z"/><path d="M70.42 44.44s.08 5-2.11 5.05-2.7-8.76-2.53-12.55-.5-7.16-4-8.51c-2.58-1-5.64 4-7.12 6.74a70.41 70.41 0 0 1-.55-7.58l-4.64.59C51.12 29.86 52.3 39.89 52.3 45s.25 10.19-2.95 12.55-8.85-1.77-8.85-1.77l-.76 8.35c4.81 1.93 13.15-.85 15.93-4s1.6-10.19 0-18.3c-.28-1.44-.52-2.82-.71-4.11.94-1.71 2.33-3.62 3.83-3.62 2.69 0 3.28 5.81 3 13s1.85 12.89 6.32 13 5.81-5.82 5.81-5.82z"/><path d="M80.44 29.69c-5-1.6-12.89 0-12.89 0a61 61 0 0 1 5.23 13.91A80 80 0 0 1 74.46 58s12.47-.09 15.25-12.81-7.63-14.97-9.27-15.5zm-4.29 26v-9.5a77.41 77.41 0 0 0-1.52-12.11c6.57 0 11.21 4.71 11.21 11.45s-9.69 10.2-9.69 10.2z"/><path d="M88.87 30.62s5.13 7.63 3.71 15.57-5.9 11.23-9.78 12.66c0 0 9 1.51 13.48-3.88 0 0 .09 3.9 4.64 3.88 3.9 0 5.14-1.27 5.14-1.27s-6.32-2-6.41-5.22a20.41 20.41 0 0 1 2.19-9.86c2.62-5.39 6.16-7.16 6.16-7.16s-2.11 7.25 5 8.68 9.86-8.09 7.16-11.55-7.86-6.06-13.11-2.69-8.15 10.11-8.15 10.11 1.85-10.8-.51-11.68c0 0-5.06 4.1-9.52 2.41zM143.64 36.94a2.72 2.72 0 0 0 2 2.78c2.28.84 2.44 4.55 1.94 6.32s-4 7.42-2.28 10.7 5.9 2.36 7.08 1.18 4.21-3.51 4.21-3.51-.92 4-2 5.2l9.19-.57s-3.46-7.52-3-13.59a105.56 105.56 0 0 1 1.69-12.22s-2.87 3.12-5.65 2.61c0 0 1.86 7.42-.08 11.8s-5.39 7.08-6.66 1.1 3-12.56 3-12.56-5.31 2.02-9.44.76z"/><path d="M170.85 38.63l9.61 3.2S183.41 36 179 31.46s-10.87-3.21-12.81-1-3.71 4.9-2.44 7.93 9.52 7 10.53 9.69.93 7.16-3 5.82-4.64-6.32-3.71-8l-7.75 4.21s1.34 7.84 8.34 9.53 9.94-.26 11.2-4.13-.42-8.6-3.53-10.37-10-5.64-9.19-8.68 4.13-4.63 6.32-3.62 1.85 4.27-2.11 5.79zM40.27 69a6 6 0 0 0 1.34 4.44c1.77 2.4 4.1 5 4.1 5s-4 5.65-10.52 3.53-7.33-8-7-12S32 59.31 38.23 60.16s12.2 4.37 12.56 6.91a30.38 30.38 0 0 1-1.2 10.37c-.78 1.77-.89 4 1.28 3.74s2.6-2.54 2-4.58a8.72 8.72 0 0 0-1-2.61s3.09.56 4.9-.43c0 0-2.36 3.18-1.58 5.15s3.1 3.81 4.09.15-1.83-17.15-1.83-17.15 7.62 2.12 12.34-.14c0 0-9.1 9.24-8.67 16.44s6.39 13.47 6.39 13.47-8.37-1.55-12.39.78c0 0 4.66-8.75-.85-9.1s-5.71 4.65-4.94 5.78 2.19 2.9 2.19 2.9l-12.63.42a20.52 20.52 0 0 0 7.9-12.56c1.91-8.75-.77-13.3-5.22-14.9s-8.74.65-8.32 5.31 6.39 3.81 7.02-1.11z"/><path d="M87 73.78c-.36-5.51-4.66-10-10-9.6-12.63 1-15.1 15.1-11.85 21.17s7.79 6.77 13.29 3.65 8.89-9.72 8.56-15.22zM80.77 82a7.5 7.5 0 0 1-13.22-.78c-2.07-4.86 1.08-10.58 4.26-10.86s3.24 5.36 3.24 5.36 2.76-4.94 5.18-5.37 4.14 6.04.54 11.65z"/><path d="M85.84 66.23l6.22-2.08-.78 10.33s4.09-11.85 11-11.29 5.36 7.9 4.23 10-2.75 3.67-5.36 3-3.53-5.36-1.06-8c0 0-4.73-.21-5.36 6.56s3 13.62 3 13.62-3.09 1.81-7.57-3c0 0-1.86 4.65-6.09 4.3 0 0 4.23-5.5 4.44-11.43s-.78-10.88-2.67-12.01z"/><path d="M102 60.09s5.18 7.12 5.18 14.81-.07 14.36-2.32 14.84-4.17-3.62-4.17-3.62-.28 4.73 2.76 6.77 5-3.15 5-3.15a16.7 16.7 0 0 0 14 5.48c9.1-.7 11.29-4.4 11.29-4.4l-5.43-7.94s-1.55 3.31-6.77 4.37-9.1-1.27-10.09-6.14 5.78-19.54 5.78-19.54-3.59 2.84-6.56 2.58-8.67-4.06-8.67-4.06z"/><path d="M145.25 63.48c-4.73-3.39-13.12-4-16.15-3.39s-4.38 1.34-7.06.56c0 0 6.56 5.15 8.54 9.88s2.18 7.41 2 7.83c0 0-8.05-6.07-15.45-3.24 0 0 4 4.3 2 9.73 0 0 5-2.4 7-2.19s8.47 3.11 12.91 4.94 14 2.33 15.6-5.5-4.64-15.24-9.39-18.62zm0 16.86c-4.87 2.4-10.09-.64-10.09-.64s.78-5.85 0-9.31-4.16-6.77-4.16-6.77c8.45.35 11.4 2.15 14.71 4.69s4.41 9.63-.46 12.03zM87 94.3a7.19 7.19 0 0 0-5-3c-4.42-.5-7.23 3-7.13 5s3.28 5.47 5.94 5.83a6.65 6.65 0 0 0 6-2.16c1.33-1.5 1.19-4.09.19-5.67zm-5.19 6.37c-1.29 0-2.48-2.13-2.73-3.37s-.07-3.11 1.26-3.18 1.94 1.4 1.94 1.4c.57-.75 1.69-2 3 0s-2.17 5.11-3.47 5.15zM88.39 91.93s1.66 3.23 1.44 5.82a20.47 20.47 0 0 1-2 6.08l7 .36s-4.18-3.88-3.2-4.53c1.61-1.08 5.35 2.48 5.35 2.48l.15-5.46s-3.06 1.9-4.89 1-2.41-4.42.65-4.53 6.86 2.52 6.86 2.52v-6.08s-2.82 2.92-11.36 2.34zM3.55 132.65s-2.13-3.47-.32-4.5 4.82 2.12 5.59 4c0 0-1.93-1.8-2.44-.51s1.35 2.83 3.21 3.86 5.86 4.11 7 3.47-1.22-5.92-5.85-6.88l2.76-4.89s3.54 6.58 5.79 5.93-3.29-9.13-4.23-9.61-2.44-1.35-2.76 0l-1.68-2.25s2-3.09 4.76 0c0 0 1.55-4.16 5.28-1.38 0 0-5.34-.43-3 3.37s15.89 13.89 15.89 13.89l-5.79 5.54s-2.12-7.34-5.34-6.82-2.38 4.56-1 6.24a11.24 11.24 0 0 0 4.12 2.63L20 150.86a13.59 13.59 0 0 0-4.56-8.17c-4-3.41-8.62-7.14-9.72-7.14s-1.67 2.44-.06 4.69c0 0-6.42-3-5.6-6.11.66-2.44 3.49-1.48 3.49-1.48z"/><path d="M42.79 129.5s-.07-8.3-2-10.57-5.72-3.84-9.26-.62a7.33 7.33 0 0 0-2.47 5.87c-3.57-4.73-5.89-13.34-5.89-13.34l-3.54 2.9a63.5 63.5 0 0 0 5 11.51c3.17 5.47 9.37 10.36 9.37 10.36l2.64-3s-3-2.93-6.43-7c0-2.29.35-7 3.92-6.44 4.69.7 3.92 11.38 3.92 11.38zM39.18 105.44c1.74-1.25 4-1.74 4.64-.39s-.9 4.89-2.83 6.24-5.27.94-4.64-2a6.18 6.18 0 0 1 2.83-3.85zM39.51 113.35s5.85-2.44 7.27-3.66a4.75 4.75 0 0 0-.78 4.82c1.1 2.83 2.9 5.53 4.31 6.24l-5.4 4.31s1.29-3.67-.32-6.69a15 15 0 0 0-5.08-5.02z"/><path d="M45.74 106s4.22-2.9 4.57-3.56c0 0 1.71 8.62 4.48 8.67s2-4.45 1.87-5.86-2-3.42-2-3.42l4.55-3s.79 10.36 1.92 14 2.29 6.7 3.14 7.4l-3.89 4s.42-5.81-.38-8.06-2.43-3.56-2.34-.89a33.1 33.1 0 0 0 1.22 6.51h-3.89a10.38 10.38 0 0 0 .31-5.79c-.84-2.67-2.39-2-2.39.75s2.09 7.88 2.09 7.88l-5.44 2.3s2.11-2.34 2.11-4.69-.65-8.85-1.87-11a36.67 36.67 0 0 0-4.06-5.24z"/><path d="M69.92 106.59l4.41-.23s0-4.59-3.71-6.09-7.54.09-8.57 4.26 3.51 6 6.14 6.66 5.81 2.29 5.81 4.45a1.86 1.86 0 0 1-3.42 1.36 5.91 5.91 0 0 1-1.17-2.86l-6.33 3.28s2 5.48 7.68 5 7-5.44 5.86-7.78-5.71-4.08-8.25-5.25-5.77-4.3-1.92-6.14c4.74-2.33 3.47 3.34 3.47 3.34zM82 103.2c1.54-.52 3.21.08 3.51 1s-1.66 2.92-4 3.39-4.16-.36-3.51-1.87 2.44-2.01 4-2.52zM78.78 110s4.33.75 6.75-1a6.61 6.61 0 0 1-1.27 3.87c-1.31 1.57.56 6.81.56 6.81s-4.93-.23-6.92.43c0 0 2.75-4 2.47-6a12.57 12.57 0 0 0-1.59-4.11zM97.05 108.61l-3.56 4.87s.19-3.37-1.45-3.42-3.75 2.72-3.75 5.44 1.92 2.62 2.95 2.39a7.59 7.59 0 0 0 2.16-1l2.15 4.64s-5.74 1.27-8.29-4a7.74 7.74 0 0 1 2.67-10c1.5-.84 6 .28 7.12 1.08z"/><path d="M107.41 108.19c-2-5.25-8.39 1-10.36 2.85s-2.62 5.77-.33 7.74 4.88.14 5.91-1a31.82 31.82 0 0 0 2.48-3.66s-.56 4.55-1.83 6l3.47-1.22s2.67-5.46.66-10.71zm-4.78 4.26c-.75 1.17-4.41 5.06-4.55 2.34s5-6.42 5.34-5.52a4 4 0 0 1-.79 3.18z"/><path d="M104.27 99.85s4.36 1.31 4.59 5.06 1 10 0 12.32-4 5.48-6 5.72c0 0 2 1.77 6-1.32a10 10 0 0 0 13.21 1.37s-2.67-4.26-2-6.46a4.27 4.27 0 0 1-3.94 2.67c-3.14.19-5-2.29-4.92-6.07s-.47-10.47-.28-11.27 2.67-1.4 4.22.52c0 0-1.17-5.1-2.91-5s-3 2.6-3 2.6-3.57-3.19-4.97-.14zM132.21 112.68s-2.5 3-1.83 5.29c0 0-5.77.47-5.58-6.81s5.63-10.79 8.8-9.87 5.63 4 5.39 8.27a82.9 82.9 0 0 1-1.78 10.86 8.26 8.26 0 0 0 2.5-5.48l1.63.48s-2.79 4.91-1 6.44 6.3-9.71 6-13.7l11.15 2.74s-10.19 2.32-12.89 9.24-2.54 9.61-2.54 9.61l-6.35-1.68s3.79-3.35 1.54-4.86c-3.22-2.16-4.76 3.46-4.76 3.46l-6.49-1.73s6.68-2.5 8.41-6.73 3-10.53-.72-11.83-5.75 1.9-5.48 4.47c.34 3.66 4 1.83 4 1.83z"/><path d="M152.26 115.09c2.21-1 3.7.38 3.94 1.25s-1.06 2.5-4.33 2.5-3.41-.77-2.69-1.74a10.49 10.49 0 0 1 3.08-2.01zM149.18 120.81s3 2.21 6 .72a10.27 10.27 0 0 1-2.21 2.59c-1.44 1.21-3.85 4.81-3.75 7 0 0-3.41-2-5.29-1.69 0 0 4-1.54 4.66-3.46s-.66-4.92.59-5.16z"/><path d="M157.69 113.74s2.26-.67 2.26 1.3-2.35 8.89-3.72 10.91-4.87 5.58-7.4 5.77c0 0 .86 2.45 5.56 0 0 0-.35 4.95 4.6 4.42s3.6-5.91 3.6-5.91-1.39 2.6-3.79 2.16-2.22-2.21-1.35-3.94 2.84-9.47 3.32-10 2.79-1.59 2.93-.58a26.51 26.51 0 0 1 0 3.42s3.08-3.94 1.59-5.58-4.47 1.08-4.47 1.08 1.25-4.2-.53-4.78-2.6 1.73-2.6 1.73zM168.75 121.48s1.3-.58 1.58 0-2.16 6.25-2.64 6.78-7 6.39-7 6.39 1.1.82 3.17-.53c0 0 1 5 4.91 7s5.43 2.12 5.43 2.12l.29-7.31s-5.34 1.59-6.4-1.1 2-8.23 2.94-9.33 3.7-2.31 4.8-1.11c0 0 .29-3.31-1.1-3.41a4.27 4.27 0 0 0-2.74 1.2s.41-3.55-.68-3.8c-1.89-.38-2.56 3.1-2.56 3.1z"/><path d="M182.64 124.89l5.34 2.79s-8.13.68-8.08 4.62 5.44 6.87 8.08 6.63 4.62-1.49 4.62-4.18a25.17 25.17 0 0 0-.92-5.87l8.32 5.53s-3.75 9-8.7 9.47a28.75 28.75 0 0 1-8.61-.38s-2.79 2.6-2.31 9l-6-8.41a5.08 5.08 0 0 0 6.59-3.42s-6.5-3.94-5.63-8c1.34-5.95 7.3-7.78 7.3-7.78zM136 30.7c-5.22-1.43-11.21 3.29-13.9 8.43s-1.6 15.93 6.74 15.25 11.71-8.85 12.3-13.65-1.34-8.98-5.14-10.03zm-5.33 6.61c.76-1.32 1.64-2.25 2-2.06s0 1.4-.81 2.72-1.63 2.25-1.95 2.07-.03-1.41.73-2.73zm-2.43 12c-3.25-.87-2-7.42-2-7.42s.27 10.73 7.5 3.59c-.06-.04-1.33 4.91-5.53 3.79zm5.12-9.63c-.55 1-1.19 1.64-1.42 1.51s0-1 .6-2 1.19-1.64 1.42-1.51-.07 1-.63 1.96z"/></g></svg>