<svg xmlns="http://www.w3.org/2000/svg" viewBox="0 0 200 155"><path fill="#fff" d="M137.78 118.62l1.33-.01-2.14 5.52H136l-1.34-3.82-1.34 3.8-.97.01-2.15-5.51h1.32l1.3 3.59 1.26-3.58 1.13-.02 1.28 3.6 1.29-3.58zM113.71 132.88l.01 1.55h-5.26v7.77l-1.76-.01v-16.61l7.76.01.01 1.54h-6.01v5.75h5.25zM149.64 124.13v-3.38c-.01-.35-.17-.79-.44-.99-.41-.3-.99-.28-1.42-.03-.31.18-.72.65-.73 1.13l-.03 3.27h-1.24v-13.77h1.25v9.06c.47-.7 1.14-1 1.96-.97 1.01.03 1.85.73 1.86 1.8l.04 3.89h-1.24zM116.08 142.25c-1.22-.35-1.84-1.39-1.78-2.58s.73-2.04 1.84-2.35 2.18-.19 3.22.26c.03-.69-.52-1.24-1.21-1.31-.85-.09-1.61.05-2.42.39l-.5-1.29c1.33-.47 2.64-.7 3.97-.39 1.06.25 1.76 1.04 1.76 2.13v5.11l-1.49.03-.17-.36c-.96.51-2.09.7-3.24.37zm2.43-1.34c.6-.15.92-.62.89-1.17-.06-1.19-1.77-1.4-2.81-.97-.43.18-.61.67-.61 1.08 0 .37.18.82.59 1 .6.25 1.32.22 1.94.07zM136.69 142.25c-1.22-.35-1.84-1.39-1.78-2.58s.73-2.04 1.84-2.35 2.18-.19 3.22.26c.03-.69-.52-1.24-1.21-1.31-.85-.09-1.61.05-2.42.39l-.5-1.29c1.33-.47 2.64-.7 3.97-.39 1.06.25 1.76 1.04 1.76 2.13v5.11l-1.49.03-.17-.36c-.96.51-2.09.7-3.24.37zm2.43-1.34c.6-.15.92-.62.89-1.17-.06-1.19-1.77-1.4-2.81-.97-.43.18-.61.67-.61 1.08 0 .37.18.82.59 1 .6.25 1.32.22 1.94.07zM126.25 136.25c-1.02.04-1.81.89-1.81 1.89l-.03 4.06h-1.61v-7.13h1.61l.05 1.03c.53-.93 1.38-1.3 2.43-1.24 1.38.07 2.51 1.08 2.51 2.52l.02 4.82h-1.61l-.01-4.5c0-.84-.61-1.49-1.54-1.45zM158.68 138.63c-.01 1.04.53 1.89 1.36 2.21.93.36 1.85.17 2.62-.65l.92 1.12c-.83.88-1.93 1.18-3.09 1.08-1.93-.15-3.41-1.62-3.51-3.45-.11-1.94 1.18-3.58 3.14-3.93 1.16-.2 2.3.04 3.2.77l-.75 1.31c-.8-.64-1.78-.82-2.66-.41-.77.36-1.22 1.02-1.23 1.95zM146.91 142.14c-1.3.59-2.71.17-3.77-.68l.84-1.24c.53.47 1.1.82 1.86.77.27-.02.61-.31.66-.52.09-.33-.1-.68-.38-.87l-1.79-1.19c-.51-.34-.85-.88-.85-1.44 0-.61.28-1.2.86-1.55 1.12-.67 2.58-.62 3.68-.03l-.8 1.18c-.8-.5-1.76-.44-1.9.11-.04.15.1.5.23.59l1.72 1.15c.66.44 1.01 1.17.95 1.92s-.53 1.42-1.31 1.78zM143.96 124.12l-1.24.01v-4.44h-.63v-1.08h.63v-4.47l1.24-.62v5.09l.63-.01v1.08l-.63.03v4.41zM133.07 142.19l-1.61.01v-5.73l-.82-.01v-1.4h.82l-.01-5.27 1.61-.79.01 6.06h.81v1.39l-.82.03.01 5.71zM151.68 142.19l-1.6.01-.01-5.73-.81-.01v-1.4h.82l-.01-5.67 1.61-.79v6.46h.82v1.39l-.82.03v5.71zM97.4 142.19h-1.61v-7.13h1.61l.02 1.34c.75-.95 1.4-1.64 2.7-1.57v1.63c-1.35-.18-2.69.68-2.7 2.11l-.02 3.62zM139.85 118.61h1.25v5.52h-1.25zM153.76 135.06h1.62v7.14h-1.62zM139.85 115.89h1.25v1.31h-1.25zM153.76 131.55h1.62v1.69h-1.62zM93.57 125.58H91.86l-5.28 10.58-5.33-10.58H79.55v16.62l1.61-.01v-13.41l4.57 9.08.47.92.25.5h.28l.39-.77 4.84-9.7v13.39l1.61-.01-.01-16.6.01-.01zM37.03 46.43l-3.05.02c-3.36.03-5.11 2.43-5.1 5.53l.11 45.95-6.13-.03.09-50.46c.02-8.47-.42-16.39-.94-24.78l-.49-8.02h15.87l-.17 7.13-8.34.09-.07 19.47 8.31-.09-.07 5.17zM57.47 115.89c-.22 6.4-1.72 14.67-7.68 14.91-8.93.37-8.8-12.6-8.64-21.42l5.35-.06c.03 4.84-.47 11.62 2.55 12.33 3.9.91 5.88-10.6-1.51-17.28-4.77-4.32-6.44-10.25-6.24-16.53.13-4.08.39-7.91 2.8-11.31 1.18-1.67 2.98-2.82 4.95-2.94 8.08-.51 8.9 14.32 8.22 22.43l-5-.05c.45-4.91.43-12.7-2.49-13.16-3.13-.49-5.17 9.42-.65 15.37l3.12 3.45c3.58 3.97 5.41 8.86 5.22 14.25zM116.66 81.66c-1.73.35-2.56 2.16-2.56 3.71l.05 35.8h-5.13V77.42l5.15-.13v3.44c1.48-2.77 3.27-4.05 6.08-3.78s4.96 2.4 4.94 5.38l-.09 12.94-.72 27.78h-5.24l.46-38.9c0-.5-.42-1.59-.68-1.94-.32-.42-1.5-.71-2.26-.56zM98.4 110.91c1.95.31 2.28-4.27 2.18-8.2l4.69-.03c0 6.5-.56 14.95-6.45 15.67-5.56.68-7.92-5.45-8.52-11.39-.84-8.37-.95-16.67.01-25.02.36-3.1 1.35-6.22 3.6-8.34s6.25-2.21 8.52-.25c4.14 3.57 2.53 14.83 2.65 21.53l-10.24-.16c.1 5.57.25 15.68 3.56 16.21zm2.33-21.48c-.11-5.42.73-12.1-2.7-12.06-3.01.04-2.63 7.28-2.9 12.23l5.61-.17zM90.01 52.73c-.82-5.16-1.08-13.36 2.4-16.02 2.2-1.68 4.81-1.63 7.56-1.13V23.43c.02-.84-1.17-1.94-1.9-2.01s-2.18.97-2.21 1.72l-.33 6.66-4.83.04c-.41-6.55.15-13.9 7.16-14.09 4.03-.1 7.2 2.82 7.2 7.12v24.15c0 3.37.58 6.5 1.03 9.81l-6.02-.1-.04-3.91c-1.25 3.03-2.6 4.38-5.29 4.35-2.46-.03-4.3-1.66-4.74-4.44zm9.85-3.98l.14-9.74c-.52-.45-2.26-.62-3-.32-2.1.84-2.21 7.42-1.51 11.52.17.97 2.15 1.4 2.84 1 .59-.34 1.52-1.51 1.53-2.46zM66.87 101.86c0 6.15-.49 16.38 2.72 16.54 1.32.07 2.83-.92 2.88-2.43l.25-7.71 4.82-.02c.35 7.45-.07 16.39-7.55 16.61-6.23.18-7.84-6.48-7.95-13.08-.12-7.26-.17-14.21.08-21.45.12-3.38.68-6.95 2.56-9.74 2.27-3.37 7.81-3.57 10.56-.66 1.32 1.4 2.02 3.86 2.07 5.74l.32 12.06h-4.84l-.23-9.56c-.03-1.22-1.13-2.48-2.1-2.57s-2.46.72-2.69 1.99c-.84 4.74-.9 9.41-.9 14.28zM67.69 30.85c-1.86-1.03-4.24.66-4.22 2.63l.34 30.72-5.9.05c.44-12.93 1.14-24.88-1.26-37.85l6.92.04-.19 3.25c1.42-1.9 2.13-3.04 3.62-3.47 1.7-.49 3.92-.43 5.03.74 1.42 1.49 1.88 3.61 1.89 5.61l.03 19.42c0 3.73.79 7.37 1.23 11.24l-6.42.49.07-30.24c0-.72-.54-2.28-1.15-2.62zM39.77 65.87c-1.01-5.17-1.23-13.72 1.92-16.34 2.17-1.81 4.82-1.78 7.59-1.23l-.06-11.15c0-.58-.75-1.7-1.23-1.95-.54-.28-1.94.31-2.32.96-.76 1.27-.77 3.32-.77 4.78l-4.93.05c-.07-1.95-.03-4.73.5-6.83.71-2.8 3.2-3.82 5.86-4.06 4.08-.38 7.91 2.39 7.92 6.88l.04 23.22c0 3.21.17 6.1.41 9.34l-5.27-.04-.09-3.91c-1.21 2.95-2.31 4.27-4.91 4.31-2.38.03-4.14-1.42-4.65-4.02zm9.34-3.98l.18-10.11c-.53-.44-2.26-.62-3.01-.34-2.37.87-2.27 8.7-1.23 12.81.23.63 2.22.62 2.68.15s1.36-1.69 1.37-2.51zM157.88 96.63l5.69-.07c-.06 2.93-.18 5.75-1.04 8.52-1.16 3.77-4.6 5.58-8.54 4.72-5.1-1.11-5.72-9.16-5.91-14.97-.2-6.15-.19-12.25 1.25-18.1.85-3.48 3.26-5.73 6.47-5.81 3.47-.09 6.16 2.11 6.8 5.79.52 2.98.58 5.94.65 9.11.06 2.9-1.66 6.14-4.88 6.27l-5.69.22.72 9.53c.05.65.92 1.6 1.37 1.95.52.41 2.44.13 2.62-.6.45-1.76.49-4.02.47-6.56zm.54-11.12c.8-4.09 0-10.24-2.64-10.2-2.78.04-3.22 8.27-2.74 12.84 1.95 1.06 4.93-.33 5.38-2.64zM116.65 42.22c9.79 8.49 5.97 24.75-.15 25.73-2.11.34-4.15 0-5.52-1.52-3.52-3.91-3.37-9.05-3.26-14.54l5.19-.25c-.25 2.7-.35 4.74.33 7.22.36 1.31 3.36 1.63 3.83.39 1.97-5.25-.56-10.37-4.52-13.75s-4.93-8.79-4.38-13.71c.44-3.95 3.36-6.06 7.12-6.03 2.62.03 5.38.81 6.36 3.61s.95 5.94.63 8.9l-4.6.04-.1-6.13c-.01-.81-1.14-2-1.88-2.14-.98-.17-2.26.66-2.51 1.74-.96 4.17.39 7.77 3.45 10.42zM154.64 51.97c2.72.73 3.78-4.17 2.77-8.87l5.2-.02-.17 8.85c-.04 2.18-1.1 4.76-2.75 6.18-2.47 2.11-6.62 2.19-9.07.02-1.75-1.55-2.57-4.15-2.91-6.5-1.12-7.79-1.53-21.11 1.45-27.48 1.16-2.48 3.44-3.49 6-3.58 7.92-.26 7.53 8.5 7.44 15.98l-4.71-.05-.32-8.69c-.04-1.15-1.24-2.43-2.18-2.5-1.2-.09-2.52 1.05-2.71 2.51-.95 7.3-.92 14.59.02 21.93.12.93 1.24 2.05 1.93 2.23zM136.54 103.31c.8-.07 2.35-1 2.38-1.66l.29-5.97h4.81c.03 2.98.07 5.92-.36 8.64-.57 3.6-3.33 5.19-6.61 5.37-3.99.23-7.09-1.75-7.79-5.97-1.27-7.66-1.23-15.64-.17-23.46.33-2.47 1.31-5.08 3.21-6.65 2.35-1.94 6.28-1.91 8.71-.07 1.67 1.26 2.64 3.8 2.71 5.84l.33 8.75-4.85.04-.24-8.75c-.03-1.22-1.15-2.4-2.12-2.48-1.18-.1-2.49.92-2.7 2.42-1.02 7.21-.93 14.54-.3 21.82.12 1.38.96 2.27 2.7 2.12zM87.84 57.73l.76 5.55c-2.51.83-5.07 1.11-7.51-.08-1.39-.67-2.65-2.92-2.64-4.65l.04-27.24-2.23-.62-.03-4.14 2.45-.28-1.03-7.11 6.37.05-.2 7.12 4.33.09-.02 4.73-4.31.09-.19 24.46c0 .74.46 2.08 1.02 2.29.64.24 1.56.1 3.19-.27zM135.32 61.96l.71 7.23c-2.58.78-5.18 1.29-7.09-.55s-2.85-4.89-2.83-7.67l.21-26.33-1.89-.6-.39-4.12 2.21-.42.13-5.73 5.09.03-.17 5.81 4.35.11-.07 4.67-4.33.08-.15 25.77c0 .64.49 1.79.98 2 .63.27 1.7.12 3.24-.28zM80.94 80.61h5.28v37.3h-5.28zM138.46 29.66h5.38v37.35h-5.38zM85.51 72.12c1.01.34 1.23 2.14.96 2.95-.4 1.2-1.61 1.71-3.09 1.68-1.13-.02-2.44-.5-2.88-1.39s-.21-2.67.81-3.14c1.21-.56 2.7-.61 4.19-.1zM142.8 9.31s-.31.3-.33.98V24.8c0 .65.33.98.33.98s.31-.3.33-.98V10.29c0-.65-.33-.98-.33-.98z"/><path d="M148.37 10.2s-.43.07-.82.62c-.09.12-.48.7-1.05 1.52s-3.47 5.05-3.47 5.05l-3.69 5.38c-.37.54-.28.99-.28.99s.43-.07.82-.62c.09-.12.48-.7 1.05-1.52s3.47-5.05 3.47-5.05l3.69-5.38c.37-.54.28-.99.28-.99z" fill="#fff"/><path d="M139.07 13.13s-.12.37.18.81c.07.1.38.55.83 1.18s2.78 3.92 2.78 3.92l2.96 4.17c.3.42.71.44.71.44s.12-.37-.18-.81c-.07-.1-.38-.55-.83-1.18s-2.78-3.92-2.78-3.92l-2.96-4.17c-.3-.42-.71-.44-.71-.44z" fill="#fff"/><path fill="none" stroke="#fff" stroke-miterlimit="10" stroke-width=".62" d="M136.48 18.4h10.11"/><circle cx="135.53" cy="18.4" r="1.39" fill="#fff"/><circle cx="148.38" cy="10.02" r="1.39" fill="#fff"/><path d="M175.23 62.69s-.31.3-.33.98v65.38c0 .65.33.98.33.98s.31-.3.33-.98V63.67c0-.65-.33-.98-.33-.98z" fill="#fff"/><circle cx="175.23" cy="61.87" r="1.39" fill="#fff"/><circle cx="165.25" cy="121.27" r="1.39" fill="#fff"/><circle cx="167.34" cy="99.36" r="1.39" fill="#fff"/><path d="M167.73 99.36s.29.31.93.33H182.4c.62 0 .93-.33.93-.33s-.29-.31-.93-.33H168.66c-.62 0-.93.33-.93.33z" fill="#fff"/><path d="M185.27 77.56s-.37.07-.58.5c-.05.1-.25.55-.55 1.2s-1.81 3.97-1.81 3.97-16.73 36.76-16.92 37.18 0 .77 0 .77.37-.07.58-.5c.05-.1.25-.55.55-1.2s16.8-36.93 16.8-36.93l1.92-4.23c.19-.42 0-.77 0-.77z" fill="#fff"/><path d="M165.65 77.46s-.2.32-.02.77a2078.681 2078.681 0 0 1 2.29 5.19l16.52 37.36c.19.43.58.5.58.5s.2-.32.02-.77a240539.863 240539.863 0 0 1-16.94-38.3l-1.88-4.25c-.19-.43-.58-.5-.58-.5z" fill="#fff"/><circle cx="185.25" cy="77.65" r="1.39" fill="#fff"/><path d="M25.24 149.27l-17.03-2.76C-2.71 101.41-2.76 53.8 8.23 8.56 34.41 3.82 60.24 1.07 86.58.33 121.99-.74 156.8 2.39 191.77 8.5c10.94 45.39 11.02 92.41 0 137.92l-15.49 2.6c-50.06 7.73-100.67 7.8-151.04.25zm89.95 4.15l7.54-.34c22.85-1.1 45.46-3.76 67.97-7.7 10.7-44.92 10.65-91.12-.02-135.75-25.17-4.3-50.06-7.2-75.44-7.95-21.64-.52-42.76.04-64.2 2.2C37.03 5.42 23.29 7.12 9.29 9.69c-10.72 44.67-10.66 91.16 0 135.68 24.84 4.38 49.34 7.14 74.28 7.95l31.61.11z" fill="#fff"/></svg>