<svg xmlns="http://www.w3.org/2000/svg" xmlns:xlink="http://www.w3.org/1999/xlink" width="1200" height="630" viewBox="0 0 1200 630"><defs><radialGradient id="a" cx="-379.14" cy="1068.45" r="708.1" gradientTransform="translate(-419.17 -1406.45) scale(1.06 2.26)" gradientUnits="userSpaceOnUse"><stop offset="0.08" stop-color="#662d91"/><stop offset="0.93" stop-color="#662d91" stop-opacity="0"/></radialGradient></defs><rect x="-822.69" y="-397.31" width="630" height="1424.61" transform="translate(-192.69 822.69) rotate(90)" fill="url(#a)"/><image width="1200" height="630" xlink:href="../../../../../Desktop/nestflix/_artwork/woodys-roundup-og.jpg"/><rect width="191.19" height="630" fill="#030c21"/><path d="M90.68,362.27c-2.77-8.1-5.39-17.58-.69-24.72,2.91-4.42,8.12-7,10.91-11.45s.38-12.57-4.81-11.52c3.18-4.55,6.45-9.31,7.31-14.8s-1.46-11.9-6.65-13.88A14.6,14.6,0,0,1,93,284.39a8.6,8.6,0,0,1-2.19-3.13A100.26,100.26,0,0,0,57.08,243c126.13-35.34,388.33-64,388.33-64s3.16,1.65,5.45,2.87c9.93,5.28,16.1,15.54,21.08,25.63s9.49,20.8,17.65,28.55a10.55,10.55,0,0,1,2.43,2.82c1.79,3.63-1.52,7.66-4.77,10.07s-7.16,5.27-6.92,9.31c.12,1.92,1.22,3.9.47,5.67-.91,2.13-3.85,2.44-6.08,1.81s-4.38-1.86-6.68-1.61c3.87.63,5.37,5.53,4.89,9.42-1.36,11.22-11.48,19.12-16.39,29.29a21.92,21.92,0,0,0-6.52-3.35l2.24,6.5a6.28,6.28,0,0,0,5.23-3.05" fill="#cc8736"/><path d="M179.37,320.94c.12,1.16-.27,1.79-.79,1.93-.34.09-9.24,3.25-12.28,3.65a6.61,6.61,0,0,1-6.45-4.16c-.75-2.19-3.07-10.35-4.39-15.44s-4.15-13.78-5.76-14.95c-1.46-1.35-4.54-.41-5.06-.28-.69.18-1.21.32-1,.94l1.27,4.85c.66,3.27,1.32,5.09,2.28,5.9.77.86,2.51.41,3.23.35s.93,0,1.33.85,1.5,5.05,3.2,10.85c1.84,5.62,3.77,11.62,3.93,12.24s-.29,1-1,1.19-20.21,5.22-21.45,5.42-1.34-.18-1.68-.76l-2.91-11.18c-1.13-5-2.58-11.28-2.67-11.65s0-.66.35-.76a14.34,14.34,0,0,0,3-1.79c.74-.72.72-1.51.23-3.38-.28-1.78-2.26-9.36-3.54-15s-3.84-14-4.07-14.86a3,3,0,0,0-1.44-2c-.89-.57-3.4.79-4,.8-.69.18-.93,0-1.09-.64a102.58,102.58,0,0,1-3.17-10.72c-1.76-6-3.13-12.72-3.19-13s0-.66.53-.8,13.14-3.87,17.09-5c4.12-1.21,12.62-2.32,16.84-1s7.49,12.08,8.76,16.26a79.66,79.66,0,0,1,2.86,10.93c.73,3.52.16,4.87-1.62,8a11.6,11.6,0,0,1-4.7,4.67c-.8.48-.42.51,0,.67a15.13,15.13,0,0,1,3.3.6,10.65,10.65,0,0,1,6.51,4.4c1.58,2.51,2.74,7.65,3.13,9.14a3.64,3.64,0,0,0,1.58,2.51c.74.73,5.44-.8,6-.94a1,1,0,0,1,.88.57c.17.62,1.46,5.59,2.93,10.51C178,314.8,179.08,319.82,179.37,320.94Zm-34.5-51.07c-.6-1.57-2.76-2.07-3.87-2a3.46,3.46,0,0,0-3.23,1.77c-.61,1.22-.47,1-.31,1.67.32,1.91,1.56,8.09,2.23,9.24s.77,1.53,1.46,1.35c.9-.11,3-.52,3.74-1.25.88-.89,1.76-1.78,1.57-3.19S145.6,271.27,144.87,269.87Z" fill="#e20035" stroke="#efd68e" stroke-miterlimit="10" stroke-width="1.91"/><path d="M208.76,296.55a23.89,23.89,0,0,1-1.57,13.05c-1.69,3.41-3.5,4.72-4.7,5.38a11.86,11.86,0,0,1-4.34,1.28c-2,.29-4.51-.38-8.06-3.4s-5.25-7.88-6.32-11.06-2.85-13.67-4.06-19.05c-1-5.21-2.46-11-3.34-15.48s-1.45-8.84-.63-12.93a13.41,13.41,0,0,1,5.67-8.76,9.41,9.41,0,0,1,6.91-1.68c1.83.28,5,1.55,8.47,5.44s4,8,5.12,12.47,2.5,11.93,3.73,17.42S208,291.39,208.76,296.55ZM194.7,279.26a115.49,115.49,0,0,0-3-12.45c-.41-1.3-1.77-1.46-2.89-1.13s-2.13,1.16-1.91,2.28c.34,1.74,1.41,6.41,2.58,12.34,1.33,6,2.31,11,2.64,12.64s1.15,2.85,3.29,2.43,2.38-1.42,2-3.47S195.65,284.06,194.7,279.26Z" fill="#e20035" stroke="#efd68e" stroke-miterlimit="10" stroke-width="1.91"/><path d="M211.69,240.28c0-.11-.19-.29.24-.36.27-.14,16-2.32,16.59-2.41.43-.07.72-.11.81.51l3,19.56c0,.31,0,.31-.08.43a7.87,7.87,0,0,0-.88,1c-.5.6-.31.89-.15,1.92l1.64,10.7c.57,3.71,2.13,12.95,2.37,14.49a2.35,2.35,0,0,0,3.16,2.15c2-.41,2.06-1.89,2-3.15l-2.21-14.41-1.61-10.5a3,3,0,0,0-.54-1.6,5.22,5.22,0,0,0-1.16-.88c-.34-.26-.37-.47-.62-1.17S231,238.18,231,237.77s.21-.56.62-.73l13.72-2c.44-.07.87-.13.94.38.23.49,1.06,5,2.14,11.05.9,5.87,1.37,8,1.4,8.22s-.08.43-.35.58a7.79,7.79,0,0,0-2.29.85c-.67.42-.83.34-.77,1.7s1.29,9.39,2.36,16.39c1.22,7,2.78,18.12,3.27,22.26s-1.32,6.72-2.82,9.38c-2.74,4.87-12.27,6.46-17.54,2.69a14.43,14.43,0,0,1-5.42-8.55c-.38-2.47-3.24-17.3-4-22.35s-2.51-14.47-2.67-15.5a2.05,2.05,0,0,0-.84-1.66,7.11,7.11,0,0,0-3.06-.29.65.65,0,0,1-.78-.3c-.19-.29-.85-4.61-1.39-8.11L212,242.23Z" fill="#e20035" stroke="#efd68e" stroke-miterlimit="10" stroke-width="1.91"/><path d="M361.05,218.93c0-.1-.17-.3.26-.34.28-.13,16.13-1.44,16.7-1.5s.73-.06.78.56l1.83,19.7c0,.31,0,.31-.1.43a8.9,8.9,0,0,0-.94.92c-.53.57-.35.87-.26,1.91l1,10.78c.35,3.74,1.36,13.05,1.5,14.61a2.35,2.35,0,0,0,3,2.33c2-.29,2.17-1.77,2.2-3l-1.35-14.52-1-10.58a3,3,0,0,0-.44-1.63,4.79,4.79,0,0,0-1.11-.94c-.32-.29-.34-.49-.55-1.21s-2.15-18.52-2.19-18.93.24-.55.66-.69l12.86-1.2c.44,0,1.82-.11,1.87.41s.76,5,1.47,11.15c.55,5.92.9,8.08.92,8.29s-.11.42-.39.56a4.58,4.58,0,0,0-1.38.75c-.7.38-1.81.33-1.83,1.69s.74,9.45,1.39,16.5c.8,7,1.69,18.25,1.93,22.41s-1.72,6.64-3.37,9.2c-3,4.7-12.63,5.72-17.67,1.64a14.54,14.54,0,0,1-4.91-8.85c-.23-2.49-2.2-17.47-2.67-22.55s-1.65-14.6-1.74-15.63a2.08,2.08,0,0,0-.74-1.71c-.63-.47-2.75-.43-3-.4s-.59,0-.76-.35-.58-4.65-.9-8.18l-.9-9.64Z" fill="#e20035" stroke="#efd68e" stroke-miterlimit="10" stroke-width="1.91"/><path d="M261.43,230.57c.69-.3,14.44-2,15.59-2.2s1.15-.14,1.72.84,7.4,19,9.3,23.58,5.51,13.37,5.92,14.26.84.84.71-.2-.39-4.15-1.11-8.67-.75-5.89-.9-7a5.61,5.61,0,0,0-1.51-2.64,3.54,3.54,0,0,0-2.41-.53c-.6-.13-.77-.32-.86-1s-.59-3.49-1.23-8.45-1.42-10-1.47-10.41.06-.64.64-.71c.42-.16,15-2,15.91-2,.72-.09,1.16-.05,1.26.68s.73,4.63,1.47,9.26,1.25,8.66,1.31,9.07a1.09,1.09,0,0,1-.45,1.11,19.2,19.2,0,0,1-1.62,1c-.68.41-1.74.75-1.63,1.57,0,.85,1.38,10.85,2.53,19.84s3.84,27.75,3.93,28.47a1.39,1.39,0,0,1-.4,1.42c-.55.28-10.06,1.39-11.07,1.52s-1.32-.05-1.74-1-9.19-23.81-11.25-28.49c-1.9-4.58-4.73-12.94-5-13.64s-.55-.87-.47-.25,1.47,9.26,2.17,13.58c.54,4.23.79,7.35.9,8.17a3.68,3.68,0,0,0,1.11,1.86,3.36,3.36,0,0,0,2.29.75c.31.07.29,0,.35.38s1.26,7.61,1.84,11,1.15,7.83,1.19,8.14-.08.54-.64.71-15.18,1.85-15.92,1.84-.77-.32-1-.82-1.12-6.47-1.55-9.88-1.19-8.14-1.24-8.56.23-.45.65-.6a9.56,9.56,0,0,0,3.14-1,2.06,2.06,0,0,0,.8-1.78c.05-.74-.89-8.08-1.67-13s-2-12-2.08-12.85a4.13,4.13,0,0,0-1-2.18c-.68-.76-3.22-.54-3.81-.57a1,1,0,0,1-.94-.51c-.2-.4-.7-4.32-1.17-8s-1.21-10.56-1.29-11.18C260.74,231,260.86,230.75,261.43,230.57Z" fill="#e20035" stroke="#efd68e" stroke-miterlimit="10" stroke-width="1.91"/><path d="M353.76,273c.58,5.7.24,7.63-1.29,11.71-1.24,4-4.86,6.61-7.63,7.8s-17.42,2.85-18,2.82a1.29,1.29,0,0,1-1.33-1.3c-.28-1-1.18-9.19-1.38-11.9s-.54-6.54-.58-6.85.1-.33.52-.49a11.44,11.44,0,0,0,2.46-.83c.83-.42.89-1.06.93-1.9s-.73-6.84-1.55-13.25-1.7-12.17-1.83-13.2a1.87,1.87,0,0,0-1.09-1.65c-.48-.35-1.87-.29-2.9-.36s-1.23-.48-1.33-1.2l-.76-6c-.48-3.72-1.61-11.45-1.59-12.4a.91.91,0,0,1,.76-.93c.42-.16,15-2.33,20-1.72,5.2.6,8.19,4.52,10.1,9.21s2.81,15.07,4,23.63S353,267.17,353.76,273Zm-14.43-29.34c-.49-1.51-1.26-1.83-2.71-1.75s-2.34,1.14-2.2,2.27,1.36,9.49,1.85,13.31,1.12,11.09,1.42,12.31.88,2.3,2.61,2.08,2.62-1.28,2.39-3l-1.54-12.09C340.63,252.69,339.66,245.05,339.33,243.62Z" fill="#e20035" stroke="#efd68e" stroke-miterlimit="10" stroke-width="1.91"/><path d="M441.14,231.52c.2,3.74.41,7.7.44,9.68a9.46,9.46,0,0,1-1.55,5.47,8.72,8.72,0,0,1-5,4,36,36,0,0,1-5.88.95c-.44,0-.58.05-.55.36s.36,2.48.6,5.07.6,3.4.51,4a2.85,2.85,0,0,0,.75,1.91c.64.57,2.53.51,3,.47s.6.15.65.78.88,6.5,1.25,10.65,1,7.65.89,8.18a.71.71,0,0,1-.66.8c-.42.14-16.76,1.61-17.19,1.65a1.06,1.06,0,0,1-.94-.75c-.18-.4-.95-7.24-1.14-9.41l-.81-8.92a1,1,0,0,1,.93-1,7.85,7.85,0,0,0,1.82-.79c.84-.39.91-1.23,1-2.18l-1-11.2c-.38-4.25-1.28-12.64-1.4-14s.14-1.68-.82-2.64-3.65-.74-4.37-.68-.76-.24-1-1c-.06-.72-.28-4.78-.58-8.1s-.91-10.06-1.13-10.88a1,1,0,0,1,.8-.91c.57,0,13.39-1.08,16.27-1.44a13.4,13.4,0,0,1,9.23,2.2c2.82,2.15,4,5.5,4.64,7.84A65.3,65.3,0,0,1,441.14,231.52Zm-10.91,1.82a4.77,4.77,0,0,0-3.56-.73c-.43,0-.72.07-.67.59s.06,2.29.43,4.77.43,3.2.49,3.82.34.6.77.45a8,8,0,0,0,3.29-.61c1-.5,1.14-2,1-3.95S431.31,234,430.23,233.34Z" fill="#e20035" stroke="#efd68e" stroke-miterlimit="10" stroke-width="1.91"/><path d="M93.44,361.51c-1.82-5.35-3.82-11.24-3-17,.84-6.15,5.75-9.09,9.81-13.12,3.53-3.5,5.55-7.78,4.36-12.8-1.06-4.49-4.56-7.52-9.25-6.8L98.57,316c3.73-5.36,7.62-11.22,7.86-18,.19-5.37-2.15-11.25-7-14-1.32-.76-2.82-1-4.16-1.65s-1.82-2.25-2.48-3.52a97.12,97.12,0,0,0-5-8.56,104.47,104.47,0,0,0-12.28-15.52A105,105,0,0,0,58.53,240.5l-.68,5.24c16.13-4.52,32.44-8.41,48.8-12,18.62-4.09,37.33-7.79,56.08-11.25q29.73-5.5,59.6-10.31,29.52-4.78,59.11-9.11,27.71-4,55.46-7.78,23.7-3.19,47.43-6.17,18.1-2.27,36.24-4.42,10.53-1.24,21.05-2.43c1-.12,2.72,0,3.65-.41h.11c-.17.12-1.79-.81-1.08-.22,1.8,1.5,4.54,2.29,6.57,3.52,5.06,3.05,9,7.6,12.26,12.48,6.9,10.43,10.73,22.58,18,32.81a52.59,52.59,0,0,0,6.21,7.36c.77.75,2,1.57,2.27,2.65.38,1.37-.68,2.85-1.51,3.83-3.63,4.3-9.93,6.4-10.55,12.77a15.38,15.38,0,0,0,.53,4.47c.22,1.22.18,1.55-1.15,1.61a9.89,9.89,0,0,1-3.63-.93,13.78,13.78,0,0,0-5.23-1c-3.1.12-4.05,4.9-.77,5.62,2.73.6,3.1,4.22,2.81,6.53a24.82,24.82,0,0,1-3.82,9.73c-3.82,6.25-8.93,11.64-12.19,18.25l3.92-1a27,27,0,0,0-7.21-3.65,2.89,2.89,0,0,0-3.52,3.53l2.24,6.5a2.92,2.92,0,0,0,2.76,2.1,9.55,9.55,0,0,0,7.7-4.47c2-3.09-2.93-6-4.94-2.89a3.5,3.5,0,0,1-2.76,1.63l2.76,2.1-2.24-6.5-3.52,3.53a21.41,21.41,0,0,1,5.83,3.07,2.88,2.88,0,0,0,3.92-1c3.91-7.91,10.58-14.1,14.28-22.12,2.92-6.31,4.93-18.75-4.49-20.8L468,267c3.16-.12,5.91,2,9.14,1.89,2.73-.13,5.43-1.47,6.38-4.19,1-2.89-1.28-5.92.16-8.57,1.31-2.41,4-3.89,6.09-5.57,5.13-4.15,7.77-10.71,2.49-15.87A62.23,62.23,0,0,1,481,219.28c-5.93-11-10.29-23-19-32.31-4.1-4.37-9-7.21-14.21-10a5.42,5.42,0,0,0-2.83-.86c-4.72.22-9.49,1.07-14.17,1.61q-15.82,1.83-31.64,3.78-22.54,2.76-45.08,5.72-27.24,3.57-54.46,7.43-30,4.26-59.88,8.93-30.71,4.81-61.33,10.21c-19.56,3.47-39.08,7.16-58.53,11.22-17.51,3.65-35,7.58-52.27,12.1q-5.67,1.48-11.32,3.06a2.9,2.9,0,0,0-.68,5.24,97.5,97.5,0,0,1,25.52,25.11q2.52,3.63,4.71,7.47c1.42,2.5,2.48,5.59,4.45,7.72s4.81,2,7,3.68a9.52,9.52,0,0,1,3.24,5.9c1.23,6.57-3.37,12.74-6.91,17.81-1.59,2.28,1,4.55,3.24,4.2,2.52-.39,2.52,4.94,2.06,6.29-1.47,4.23-6.7,6.82-9.54,10.07-7.4,8.43-4.72,19.73-1.47,29.33,1.18,3.47,6.72,2,5.53-1.52Z" fill="#682b2f"/><path d="M445.92,307.07c-32.57.89-65.09,3.44-97.49,6.89Q281.37,321.13,215,333.51C170.16,341.88,125.67,352,81.2,362.16c-.18,3.27,3.62,5.32,6.88,5.52s6.72-.54,9.69.83c5,2.32,6.8,9.91,12.3,10.68,2.26.32,4.46-.7,6.54-1.64,24.16-11,50.58-15.92,76.69-20.73L222,351.54c2.9-.53,5.8-1.07,8.74-1.35s5.89-.33,8.84-.45c10.73-.44,21.39-2,32-3.49l38.21-5.47c6.47-.93,13-1.86,19.19-3.85,5-1.6,9.76-3.86,14.9-4.75,8.67-1.5,17.77,1,26.28-1.18,7.34-1.91,15.67-7.05,21.63-2.36,1.62,1.27,2.85,3.19,4.83,3.7,2.56.66,4.95-1.3,7.21-2.66,5.58-3.35,12.46-3.38,19-3.35s13.41-.06,18.92-3.52,8.64-11.54,4.63-16.67" fill="#682b2f"/><path d="M445.92,304.21c-48.19,1.33-96.28,6.09-144,12.5s-95.17,15-142.3,25c-26.43,5.64-52.78,11.65-79.14,17.66a2.91,2.91,0,0,0-2.1,2.76c0,6.64,7.16,8.52,12.52,8.39,2.73-.06,5.4-.21,7.48,1.82,1.63,1.6,2.87,3.54,4.34,5.29a12,12,0,0,0,5.81,4.12c3.25.91,6.35-.31,9.28-1.63a192.33,192.33,0,0,1,19.7-7.57,355,355,0,0,1,41.31-10.13c14.62-2.84,29.28-5.45,43.93-8.14a83.73,83.73,0,0,1,10.69-1.46c3.71-.22,7.43-.27,11.13-.53,7.41-.52,14.77-1.47,22.12-2.5,15.09-2.11,30.18-4.3,45.27-6.48a106.12,106.12,0,0,0,21.5-4.94,78.73,78.73,0,0,1,9.61-3.14,41.17,41.17,0,0,1,10.28-.68c7.16.21,14,.51,20.87-1.82,4.49-1.53,11.39-5.25,15.84-1.87,2.36,1.81,3.87,4.17,7.13,4.41s5.9-1.93,8.63-3.45c5.57-3.1,12.38-2.64,18.53-2.65,6.39,0,13.28-.4,18.84-3.91A16.85,16.85,0,0,0,451,311.9a11.58,11.58,0,0,0-2.19-7.2,3,3,0,0,0-3.92-1,2.89,2.89,0,0,0-1,3.92c2.7,3.66,1.09,8.44-1.93,11.41-4.17,4.1-10.89,4.41-16.39,4.46-6.13.07-12.46-.31-18.38,1.61-3,1-5.27,2.79-8,4.09-2.53,1.19-3.79-1.35-5.61-2.77-4.86-3.79-11-2.54-16.4-.72-2.78.94-5.52,2.06-8.39,2.73a39.59,39.59,0,0,1-10,.65c-6.83-.19-13.46-.57-20.08,1.44-3.13.95-6.15,2.21-9.25,3.26a75.69,75.69,0,0,1-10.05,2.61c-7.12,1.37-14.36,2.23-21.54,3.26l-21.63,3.09c-7.23,1-14.44,2.12-21.7,3-7,.8-14,1.06-21.11,1.46s-13.92,2-20.81,3.25l-21.38,3.94c-13.41,2.47-26.83,5-40,8.37-6.53,1.67-13,3.56-19.37,5.76-3.18,1.1-6.34,2.28-9.45,3.55s-6.2,2.95-9.41,4a4.63,4.63,0,0,1-5.36-1.42c-1.52-1.59-2.7-3.47-4.15-5.14a13,13,0,0,0-6-4.11c-3.08-.9-6.2-.16-9.31-.51-1.43-.15-4-.84-4-2.65L82,364.93c46.81-10.68,93.64-21.35,140.88-30Q293.47,322.09,365,315.14c26.91-2.59,53.9-4.45,80.92-5.2,3.68-.1,3.7-5.83,0-5.73Z" fill="#682b2f"/><path d="M471,264.09q-12.94-.52-25.91-.33a49.82,49.82,0,0,0,13.12,2.65,22.85,22.85,0,0,1,4.37.49c2.82.72,5.13,2.69,7.77,3.92a.8.8,0,0,0,.73.08c.24-.13.28-.45.27-.73a5.12,5.12,0,0,0-2.63-4,9.57,9.57,0,0,0-4.8-1.12" fill="#682b2f"/><path d="M471,262.66q-12.94-.53-25.91-.33a1.44,1.44,0,0,0-.38,2.81,52.83,52.83,0,0,0,11.65,2.55,38,38,0,0,1,5.84.59,19,19,0,0,1,4.87,2.38c1.23.73,3.24,2.33,4.74,1.48s1-2.85.47-4.06c-1.45-3.28-5-4.39-8.36-4.45a1.43,1.43,0,0,0,0,2.86,8,8,0,0,1,4.23,1,4.19,4.19,0,0,1,1.25,1.23,3.25,3.25,0,0,1,.38.77c.13.41-.09.78.29.38l1-.42c-.83.11-2.24-1.09-2.93-1.5s-1.66-1-2.54-1.43a16.13,16.13,0,0,0-6.3-1.5,52.11,52.11,0,0,1-13.83-2.66l-.39,2.81q13-.19,25.91.33c1.85.08,1.84-2.79,0-2.86Z" fill="#682b2f"/><path d="M71.86,254.75a38.45,38.45,0,0,0,7.73-2.61q3.81-1.62,7.65-3.18c5.06-2.05,10.17-4,15.32-5.86A245.31,245.31,0,0,1,134.2,234,175.69,175.69,0,0,1,152.72,231c1.81-.18,1.83-3,0-2.86-22.14,2.26-43.48,8.92-64.07,17.14q-4.35,1.74-8.66,3.56A42.81,42.81,0,0,1,71.1,252c-1.81.34-1,3.1.76,2.77Z" fill="#682b2f"/><path d="M78,259.73a48.88,48.88,0,0,0,15.42-5.37c-2.2,1.5-4.41,3-6.58,4.57a22.73,22.73,0,0,0-6.25,6l1.36-3.66" fill="#682b2f"/><path d="M78.37,261.11a51.14,51.14,0,0,0,15.77-5.51l-1.45-2.47c-2.52,1.71-5.06,3.42-7.51,5.24a22.79,22.79,0,0,0-5.84,5.83L82,265.3l1.36-3.66a1.45,1.45,0,0,0-1-1.76,1.47,1.47,0,0,0-1.77,1l-1.35,3.66c-.59,1.58,1.78,2.42,2.62,1.11A19.67,19.67,0,0,1,87,260.54c2.32-1.7,4.71-3.32,7.1-4.94a1.43,1.43,0,0,0-1.45-2.47,48.69,48.69,0,0,1-15.08,5.22,1.43,1.43,0,0,0-1,1.76,1.47,1.47,0,0,0,1.76,1Z" fill="#682b2f"/><path d="M82.68,266.86c5.14.37,10.51.69,15.25-1.32a15.58,15.58,0,0,0,2.58-1.38l-5.72,4a12.62,12.62,0,0,0-2.33,1.91c-1.86,2.11-2.1,5.15-2.26,8" fill="#682b2f"/><path d="M82.68,268.3c6.34.44,13,.67,18.55-2.9l-1.44-2.47-4.58,3.18a18.77,18.77,0,0,0-3.94,3.14c-2,2.45-2.33,5.7-2.5,8.76-.1,1.84,2.76,1.83,2.87,0,.13-2.43.25-5.31,2-7.17a23.15,23.15,0,0,1,3.55-2.66l4-2.78c1.5-1,.13-3.48-1.44-2.47-5.13,3.29-11.28,2.91-17.11,2.5-1.84-.13-1.83,2.74,0,2.87Z" fill="#682b2f"/><path d="M95.82,332.7c5.91,2.16,12.47.66,18.58-.85l7.86-2A50.4,50.4,0,0,1,102.61,342a46.85,46.85,0,0,0-7.25,2.65,9.71,9.71,0,0,0-5,5.59,5.5,5.5,0,0,1-.66,1.79,1.23,1.23,0,0,1-1.67.39,1.73,1.73,0,0,1-.38-.57,12.89,12.89,0,0,1,.15-10.48A17.78,17.78,0,0,1,95,333.56" fill="#682b2f"/><path d="M95.44,334.08c4.32,1.51,8.9,1.28,13.35.48,4.66-.83,9.26-2.14,13.85-3.28l-1.39-2.4a50.69,50.69,0,0,1-20.76,12.29c-3.74,1.18-7.62,2.51-10.08,5.77a9.14,9.14,0,0,0-1.24,2.22,10.77,10.77,0,0,0-.38,1.26,2.9,2.9,0,0,0-.17.55c-.21.22-.19.28,0,.19s.25-.06.09-.24c0-.37-.36-1-.45-1.4a10.25,10.25,0,0,1-.26-1.45,11.8,11.8,0,0,1,.11-3.14c.76-4.39,3.82-7.87,7.53-10.13,1.57-1,.13-3.44-1.45-2.47a18.91,18.91,0,0,0-8.32,9.82,14.78,14.78,0,0,0-.61,6.92c.27,1.79.92,4.95,3.25,5,2.59,0,2.67-2.74,3.53-4.44a9.77,9.77,0,0,1,4.8-4.12c2.27-1.05,4.74-1.61,7.08-2.45a51.81,51.81,0,0,0,6.45-2.78,52.57,52.57,0,0,0,12.86-9.35,1.44,1.44,0,0,0-1.4-2.39c-4.3,1.06-8.6,2.26-13,3.11s-8.58,1.14-12.72-.31c-1.74-.62-2.49,2.15-.76,2.76Z" fill="#682b2f"/><path d="M518.1,127.23a68.91,68.91,0,0,1-34.73,0c-9.67-2.53-18.87-6.66-28.52-9.23-1.45-2.08-3-4.07-4.65-6a84.6,84.6,0,0,1-6.66-8.37c1.46-.74,2.92-1.49,4.4-2.17,5.12-2.36,10.47-4.15,15.62-6.45,2.35-1,4.68-2.31,5.57-4.9a8.13,8.13,0,0,0-1.9-8c-3.31-3.86-8.74-4.66-13.53-4.89s-9.94.3-14.11,2.82A16.15,16.15,0,0,0,432,92.44a20,20,0,0,0,.54,7.22,245.77,245.77,0,0,0-35.84,25,138.42,138.42,0,0,0,2.65-23q.13-4.26,0-8.52c-.11-2.84-.31-5.73-2-8.15-3.72-5.4-11.2-4-13.35,1.9a29.41,29.41,0,0,0-1.13,7.36c-.29,3.09-.45,6.2-.54,9.31-.18,6.22-.05,12.46,0,18.69q.06,3.9,0,7.8a55.54,55.54,0,0,0-5.49,4.56c-2.32,2.13-4.74,4.58-7.74,5.76-4.38,1.71-9.84-.11-12.74-3.71a9.06,9.06,0,0,1-1-1.58,61.62,61.62,0,0,0,8.13-19.51,64,64,0,0,0,1.55-12.25c.11-3.93.37-8.69-2.91-11.36a4.35,4.35,0,0,0-1.47-1.54c-2.21-1.29-4.47-.31-5.88,1.55-4.09,5.38-6.24,11.95-7.4,18.54-.61,3.43-1,6.9-1.37,10.37a51.4,51.4,0,0,0-.38,10.66,4,4,0,0,0-2.29,2.67c-.75,2.56-1.86,7.64-5.15,8.23-2.42.43-4.58-2.52-5.68-4.34a19.47,19.47,0,0,1-1.44-3c.27-1.1.54-2.2.78-3.3a251.08,251.08,0,0,0,5.13-38.62c.39-6.15,1.59-13.38-.55-19.31-1.82-5-8.06-11.11-13.82-7.74-2.51,1.47-3.59,4.77-4.51,7.34a40.47,40.47,0,0,0-2,9.42c-.69,6.31,0,12.63,1,18.87.55,3.6,1.15,7.18,1.71,10.77a18.59,18.59,0,0,0-11.45-3.77c-10.32.18-17.6,7.87-21.32,16.81a4,4,0,0,0-3.41-.53c-2.29.61-4.74,1.28-7.22,1.7-2.1-4.48-5.39-8.36-10.23-10a10.89,10.89,0,0,0-5.48-.33c-12.53-1.73-23.87,7.31-28.24,18.88a4.39,4.39,0,0,0-1.7,1l-.39.34c-.27.19-.54.38-.82.55a29.05,29.05,0,0,1-3,1.6,44.15,44.15,0,0,1-5.59,2.09c-1.74-6.22-4.85-12.37-10.75-14.5a10.16,10.16,0,0,0-10.88,2.4,26.31,26.31,0,0,0-8.32,2,19.58,19.58,0,0,0-7.87,6c-.16,0-.32,0-.48,0a30.57,30.57,0,0,1-9.93-.42,154.06,154.06,0,0,0,.17-23.82c-.5-6.72-1.95-13.43-6.34-18.73-3.27-3.95-9.74-8.31-15.1-6.44a13.9,13.9,0,0,0-5.5,3.57c-2.05,2.27-3,6.12-3.67,9a38.87,38.87,0,0,0,.33,18.32,36.78,36.78,0,0,0,20.89,24.1A156.68,156.68,0,0,1,156,172.78a137.89,137.89,0,0,1-6.19,15.89c-2,4.42-4.52,9.11-8.8,11.77-6.52,4.05-13.05.12-17.88-5a90.94,90.94,0,0,0,10-26.24,119.62,119.62,0,0,0,2.51-18.64c.31-5.58.54-11.83-2.43-16.82a12.9,12.9,0,0,0-15.91-5.22c-6.27,2.43-9.72,8.19-12.06,14.16-4.44,11.34-4.46,24.35-1,36A59.15,59.15,0,0,0,112,195.13l.66.94a38,38,0,0,1-12.71,12.14c-8.21,4.49-17.65-4.28-21.89-10.75-6-9.06-8-20.58-8.39-31.25-.43-11.63,1.56-23.18,3.86-34.53.63-3.09,1.26-6.2,2-9.3,8.94.29,18-.72,26.05-4.24,11.09-4.86,19.77-16.09,20.74-28.3.51-6.36-2.51-12.53-9.12-14-6.19-1.34-13,.36-18.57,3-11.88,5.53-19.48,16.88-23.86,28.84-.67,1.85-1.25,3.72-1.79,5.61-1-.09-2-.17-2.91-.27-5.07-.56-10.44-1.76-14.62-4.84-3.4-2.51-5.92-6.27-6-10.57,0-5.53-8.61-5.54-8.59,0,.07,13.92,13.23,21.69,25.52,23.53,1.47.22,3,.42,4.46.59-.37,1.71-.74,3.43-1.09,5.15-1.43,6.91-2.73,13.85-3.63,20.85-3.08,23.81-.24,58.14,25.59,68.68a18.7,18.7,0,0,0,17.77-1.49,46.69,46.69,0,0,0,12.64-12l.15-.2a28.45,28.45,0,0,0,7.38,5.37c6,2.94,13.13,3.43,19.09.09,5.61-3.16,9.45-8.75,12.14-14.45a156.79,156.79,0,0,0,12.61-39.69q.79-4.54,1.39-9.15a37.72,37.72,0,0,0,6.18.6,46.25,46.25,0,0,0-3,15.56c-.22,7.89.82,17.51,5.24,24.26,4.76,7.27,13.46,9.86,21.71,7.76,18.27-4.66,22.86-27.73,20.71-43.81q2.9-.9,5.7-2.06l1.88-.81c-.72,12.26,3.58,25.74,15.64,30.29a23,23,0,0,0,19.39-1.62c6.63-4,10.53-11.57,12.65-18.75a46.27,46.27,0,0,0,1.07-21.5c1.93-.35,3.84-.79,5.69-1.27-2.31,11.35-2.19,24.21,5.36,33.53,7.68,9.5,22.75,10.63,30.05.1,3.5-5,5.63-11.43,7.66-17.19.45-1.27.87-2.56,1.28-3.85,2.82,3,6.54,5.16,10.71,4.76,5.58-.53,8.88-4.53,11-9.17a19,19,0,0,0,5.84,5.06,20.16,20.16,0,0,0,12.95,2.37c-1.71,1.56-3.43,3.1-5.13,4.66C355,161.56,346.6,169.59,340.08,179c-5.85,8.43-4.19,20.91,5.94,25s21.41-1.14,27.93-9c7.2-8.63,10.86-20.16,13.45-30.93A133.63,133.63,0,0,0,390.69,141c13.52-11.81,27.54-23.07,43.07-32.14.76-.44,1.55-.85,2.32-1.28a75,75,0,0,0,6.17,8.22,81.3,81.3,0,0,0-9.11-.15c-4.47.17-8.92.76-12.89,2.94-8.54,4.68-13.57,15.21-12.38,24.77,1.27,10.21,9.79,17.76,19.78,19.29a34.64,34.64,0,0,0,17.39-2c3.79-1.42,8.37-3,11.22-6,6.62-7,7-17.2,4.13-26,2.78.91,5.56,1.89,8.36,2.88,11.25,4,22.63,6.89,34.66,6.46a79.76,79.76,0,0,0,17-2.5C525.74,134.14,523.47,125.85,518.1,127.23ZM83.43,100.64c4.86-8.11,12.81-15.09,22.46-16.41,1.77-.24,4.93-.67,6.53.39s1.39,3.4,1.27,4.89a25,25,0,0,1-5.09,12.38c-6.19,8.35-16.34,11.32-26.31,11.74-1.5.06-3,.08-4.51.08A59.52,59.52,0,0,1,83.43,100.64Zm34.76,85.82c-.21.43-.45.87-.67,1.31a51.4,51.4,0,0,1-7.17-27.28A45.59,45.59,0,0,1,113,146.33c1.37-3.83,3.58-8.9,7.92-10,9.14-2.36,6.08,16.11,5.6,20.46A90,90,0,0,1,118.19,186.46Zm45.15-53.33a27.72,27.72,0,0,1-13.72-30.93,33.7,33.7,0,0,1,1-3.53c.16-.46.33-.93.51-1.38l.34-.66c.11-.1.23-.24.09-.18h0c.3-.15.6-.41.89-.58,0,0,.42-.18.7-.32a2.62,2.62,0,0,1,.39.09,13.28,13.28,0,0,1,8.37,8.92c1.72,5.27,1.69,11,1.74,16.49Q163.7,127.08,163.34,133.13Zm41.84,1.24a2.09,2.09,0,0,1,1.66.24c2.4,1.22,3.44,4.62,4.25,7,.13.38.23.77.36,1.15-.55,0-1.1.1-1.65.09a3,3,0,0,1-.44-.05,7.44,7.44,0,0,1-1.3-.46,7.07,7.07,0,0,1-3.95-5.28,5.2,5.2,0,0,1,0-.68A3.87,3.87,0,0,0,205.18,134.37ZM200,184.46c-4.86,1.65-10.6.9-13.49-3.73-3-4.87-3.76-11.48-3.88-17.11-.13-6.49,1-13.13,4.32-18.78,1.46-2.46,3.18-4.78,5.84-6a16.5,16.5,0,0,1,2.85-1,14.76,14.76,0,0,0,1.14,4.31,15.68,15.68,0,0,0,10.32,8.89,17.15,17.15,0,0,0,6.23.14c0,.34.1.67.13,1C214.45,163.05,212.17,180.33,200,184.46Zm67.93-28.06c-1.67,4.62-4.43,9.74-9.07,11.91a14.63,14.63,0,0,1-11.64.15c-9.13-3.85-10.49-17.11-8.9-25.59,1-5.55,3.5-11,8.13-14.49a18.05,18.05,0,0,1,7.07-3.28,12.71,12.71,0,0,0,4.93,6.69,19.94,19.94,0,0,0,11,3.73,36.47,36.47,0,0,1,.62,4.41A38.92,38.92,0,0,1,267.91,156.4ZM317.3,151c-1.09,2.84-2.25,5.68-3.6,8.41s-2.8,5.22-5.69,6.28c-5,1.82-10.17-.89-13.07-4.94-4-5.55-4.27-12.61-3.7-19.17.54-6.18,1.78-12.93,5.51-18.06,3.31-4.52,9.26-7.78,14.81-5.44,5,2.11,8,7.4,9.64,12.38a46,46,0,0,0,1.08,4.82A148.63,148.63,0,0,1,317.3,151Zm11.43-61.79c-.36,6.73-.9,13.46-1.69,20.16-.84-5-1.76-10-2.24-15.11a54.59,54.59,0,0,1,0-11.43,33.37,33.37,0,0,1,1.08-5.22,25.53,25.53,0,0,1,1.05-3.28,5,5,0,0,1,.79.81,7.55,7.55,0,0,1,1.17,3.21C329.45,81.86,328.91,85.69,328.73,89.22Zm51.34,68.29C378,167.85,375,179.31,368.66,188a21.33,21.33,0,0,1-11.34,8.28c-3.48,1-8.3,1-10.77-2.1s-1.16-7.77.95-10.82a101.88,101.88,0,0,1,10.92-12.73c7.29-7.5,15.17-14.43,23-21.39C381.05,152,380.62,154.75,380.07,157.51Zm62-62.82c-.53.25-1.05.54-1.58.8-.24-2.7.3-5.46,2.36-7.28,3.19-2.82,8.24-2.64,12.22-2.32A11.11,11.11,0,0,1,460,87.1c-1.05.49-2.31,1.11-2.5,1.18C452.3,90.34,447.13,92.31,442.11,94.69Zm9.7,51.42c-1.86,3.38-4.07,4.16-7.71,5.7-4.81,2-10.37,3.37-15.59,2.26-4.16-.88-8.21-3.08-10.46-6.81a14.35,14.35,0,0,1-1-11.68,16.54,16.54,0,0,1,7.54-9.61c3.22-1.76,7.09-1.75,10.65-1.83a60.69,60.69,0,0,1,14.39,1.55C453.29,132,455.45,139.48,451.81,146.11Z" fill="#f4e7d9" stroke="#682b2f" stroke-linecap="round" stroke-linejoin="round" stroke-width="1.91"/><path d="M430.49,58.4A6.86,6.86,0,0,0,422.78,56c-5.42,1.77-8.73,8.11-10.59,13.09-2.1,5.61-2.76,11.67-3.26,17.61-.5,1.15-1,2.28-1.49,3.44-1,2.32,2.24,4.52,4.21,3.23,4.69-3.08,7-8,10.57-12.11,2-2.25,4.42-4.06,6.31-6.41a16.84,16.84,0,0,0,3.65-8.56A10.9,10.9,0,0,0,430.49,58.4Z" fill="#f4e7d9" stroke="#682b2f" stroke-linecap="round" stroke-linejoin="round" stroke-width="1.91"/><path d="M123.29,195.58a42.93,42.93,0,0,1-5.12-6.66l-.66-1.1" fill="none" stroke="#682b2f" stroke-linecap="round" stroke-linejoin="round" stroke-width="1.91"/><path d="M163.35,133.13q-.16,2.84-.42,5.67c-.11,1.19-.23,2.37-.37,3.56" fill="none" stroke="#682b2f" stroke-linecap="round" stroke-linejoin="round" stroke-width="1.91"/><path d="M170.88,145q.57-4.41.92-8.85" fill="none" stroke="#682b2f" stroke-linecap="round" stroke-linejoin="round" stroke-width="1.91"/><path d="M112.64,196.08a48.79,48.79,0,0,0,5.64,6.74" fill="none" stroke="#682b2f" stroke-linecap="round" stroke-linejoin="round" stroke-width="1.91"/><path d="M66.83,121.74c2.85.33,5.75.56,8.66.65" fill="none" stroke="#682b2f" stroke-linecap="round" stroke-linejoin="round" stroke-width="1.91"/><path d="M77.79,113.72q-4.53,0-9.05-.42" fill="none" stroke="#682b2f" stroke-linecap="round" stroke-linejoin="round" stroke-width="1.91"/><path d="M204.11,137c-.2-2,.72-3.46,2.73-2.43" fill="none" stroke="#682b2f" stroke-linecap="round" stroke-linejoin="round" stroke-width="1.91"/><path d="M220,140.85l-1,.32a48,48,0,0,1-6.52,1.52l-1,.1" fill="none" stroke="#682b2f" stroke-linecap="round" stroke-linejoin="round" stroke-width="1.91"/><path d="M213.33,151.21c1.15-.15,2.29-.37,3.4-.6,1.66-.34,3.3-.77,4.91-1.27" fill="none" stroke="#682b2f" stroke-linecap="round" stroke-linejoin="round" stroke-width="1.91"/><path d="M209.25,126.33a10.05,10.05,0,0,0-11.92,3.7,11.88,11.88,0,0,0-1.72,7.82,14.9,14.9,0,0,0,1.15,4.33" fill="none" stroke="#682b2f" stroke-linecap="round" stroke-linejoin="round" stroke-width="1.91"/><path d="M182.17,136.72c-.38.48-.77,1-1.14,1.49a33.07,33.07,0,0,0-4,7.34" fill="none" stroke="#682b2f" stroke-linecap="round" stroke-linejoin="round" stroke-width="1.91"/><path d="M285.35,125.1a4.17,4.17,0,0,0-2.66-.11h0c-5.42,1.44-11.67,3.33-17.14,1a10.21,10.21,0,0,1-2.47-1.45,12.38,12.38,0,0,1-1.29-1.42" fill="none" stroke="#682b2f" stroke-linecap="round" stroke-linejoin="round" stroke-width="1.91"/><path d="M269.47,135.53a48.2,48.2,0,0,0,14.24-1.92" fill="none" stroke="#682b2f" stroke-linecap="round" stroke-linejoin="round" stroke-width="1.91"/><path d="M262.82,116.16c-3.28-.29-6.86.86-8.56,3.78a6.81,6.81,0,0,0-.79,5" fill="none" stroke="#682b2f" stroke-linecap="round" stroke-linejoin="round" stroke-width="1.91"/><path d="M231.34,135.66c-.32.89-.6,1.79-.83,2.7a42.35,42.35,0,0,0-1.25,8.13" fill="none" stroke="#682b2f" stroke-linecap="round" stroke-linejoin="round" stroke-width="1.91"/><path d="M328.07,146.21q1.68-5.27,3-10.64" fill="none" stroke="#682b2f" stroke-linecap="round" stroke-linejoin="round" stroke-width="1.91"/><path d="M286.26,125.13a37.67,37.67,0,0,0-2.06,6.24c-.17.74-.33,1.48-.49,2.23" fill="none" stroke="#682b2f" stroke-linecap="round" stroke-linejoin="round" stroke-width="1.91"/><path d="M325.58,119.82a27.28,27.28,0,0,0-7.15-7.66" fill="none" stroke="#682b2f" stroke-linecap="round" stroke-linejoin="round" stroke-width="1.91"/><path d="M327.64,103.9q-.3,3.07-.66,6.15a184,184,0,0,1-6.45,31.5" fill="none" stroke="#682b2f" stroke-linecap="round" stroke-linejoin="round" stroke-width="1.91"/><path d="M355.37,134.87a15.92,15.92,0,0,1-1.2-7.41c.11-3.75.58-7.55,1.06-11.27.94-7.13,2.66-14.14,7.08-20,1.4-1.85.29-4.8-1.54-5.88" fill="none" stroke="#682b2f" stroke-linecap="round" stroke-linejoin="round" stroke-width="1.91"/><path d="M345.75,131.7a20.24,20.24,0,0,0,4,10.11" fill="none" stroke="#682b2f" stroke-linecap="round" stroke-linejoin="round" stroke-width="1.91"/><path d="M382.3,136.89q-6.93,6.09-13.75,12.31" fill="none" stroke="#682b2f" stroke-linecap="round" stroke-linejoin="round" stroke-width="1.91"/><path d="M398.18,123.41q-3.45,2.81-6.83,5.67" fill="none" stroke="#682b2f" stroke-linecap="round" stroke-linejoin="round" stroke-width="1.91"/><path d="M460.44,128.82a34.64,34.64,0,0,0-1.4-3.64,44.31,44.31,0,0,0-4.18-7.22" fill="none" stroke="#682b2f" stroke-linecap="round" stroke-linejoin="round" stroke-width="1.91"/><path d="M442.12,115.61c1,1.23,2,2.44,3,3.64a52,52,0,0,1,4.18,5.91" fill="none" stroke="#682b2f" stroke-linecap="round" stroke-linejoin="round" stroke-width="1.91"/><path d="M432.48,99.42a27.48,27.48,0,0,0,3.52,8" fill="none" stroke="#682b2f" stroke-linecap="round" stroke-linejoin="round" stroke-width="1.91"/><path d="M382.43,129.63c0,2.43,0,4.84-.13,7.26-.14,4-.4,7.91-.86,11.85" fill="none" stroke="#682b2f" stroke-linecap="round" stroke-linejoin="round" stroke-width="1.91"/><path d="M390.69,141.2c.26-4.14.36-8.31.35-12.48,0-12.36-1-25,.74-37.33a12,12,0,0,0,.39-1.91s-1.95.51-1.82.33" fill="none" stroke="#682b2f" stroke-linecap="round" stroke-linejoin="round" stroke-width="1.91"/><path d="M42.13,111.53c.89.06,1.78.08,2.68.07a8.23,8.23,0,0,0,2.57-.3,8.74,8.74,0,0,0,2.28-1.25,8.28,8.28,0,0,0,1.87-1.77.72.72,0,0,0-.26-1,.74.74,0,0,0-1,.26,7,7,0,0,1-1.5,1.36,6.91,6.91,0,0,1-2,1.06,8.7,8.7,0,0,1-2.22.19c-.83,0-1.66,0-2.48-.07s-.92,1.38,0,1.43Z" fill="#682b2f"/><path d="M61,121.62a6.16,6.16,0,0,0,3.27-.32,11.11,11.11,0,0,0,2.59-2,42,42,0,0,0,4.64-5,.75.75,0,0,0,0-1,.72.72,0,0,0-1,0,41.25,41.25,0,0,1-4.24,4.62,15.25,15.25,0,0,1-2.27,1.9,4.55,4.55,0,0,1-3,.36c-.92-.09-.91,1.34,0,1.43Z" fill="#682b2f"/><path d="M87.54,123a19.28,19.28,0,0,0,4.56-4.63c1.27-1.76,2.6-3.82,2.43-6.09-.07-.91-1.5-.92-1.43,0,.15,2-1.12,3.81-2.24,5.37a17,17,0,0,1-4,4.11c-.75.53,0,1.77.72,1.24Z" fill="#682b2f"/><path d="M111,113c0-3.66,1.42-8-1.5-11-.65-.66-1.66.35-1,1,2.54,2.59,1.11,6.79,1.09,10a.72.72,0,0,0,1.43,0Z" fill="#682b2f"/><path d="M114.45,88.57c2.35-.69,4.88-1.44,7.31-.69.89.27,1.26-1.11.39-1.38-2.69-.83-5.48-.08-8.08.69-.88.27-.51,1.65.38,1.38Z" fill="#682b2f"/><path d="M102.38,76.55c-.7,2.56-1.38,5.59.34,7.92a.74.74,0,0,0,1,.25.72.72,0,0,0,.25-1c-1.48-2-.79-4.6-.19-6.81a.72.72,0,0,0-1.38-.38Z" fill="#682b2f"/><path d="M89.52,81.35a14.27,14.27,0,0,0,1.15,9.92c.42.82,1.66.1,1.24-.72a12.77,12.77,0,0,1-1-8.82.72.72,0,0,0-1.38-.38Z" fill="#682b2f"/><path d="M63,140.89a16.84,16.84,0,0,0,9,.89.71.71,0,0,0,.5-.88.74.74,0,0,0-.88-.5,15.46,15.46,0,0,1-8.21-.89.72.72,0,0,0-.88.5.73.73,0,0,0,.5.88Z" fill="#682b2f"/><path d="M60.49,156.34a11.94,11.94,0,0,0,8.21,5.47.72.72,0,1,0,.38-1.38,10.62,10.62,0,0,1-7.35-4.81c-.49-.78-1.73-.06-1.24.72Z" fill="#682b2f"/><path d="M62.24,178.59a72.62,72.62,0,0,0,8.15,3.53.71.71,0,0,0,.88-.5.74.74,0,0,0-.5-.88A69.24,69.24,0,0,1,63,177.35c-.82-.42-1.55.82-.72,1.24Z" fill="#682b2f"/><path d="M69.62,199.7a19.91,19.91,0,0,0,8.09-.6.72.72,0,0,0-.38-1.38,19.11,19.11,0,0,1-7.71.55c-.38-.05-.71.37-.71.72a.73.73,0,0,0,.71.71Z" fill="#682b2f"/><path d="M82.52,214.18a9.64,9.64,0,0,0,7.78-5.45.73.73,0,0,0-.25-1,.72.72,0,0,0-1,.26,8.2,8.2,0,0,1-6.55,4.73.74.74,0,0,0-.71.72.73.73,0,0,0,.71.72Z" fill="#682b2f"/><path d="M104.23,215.35a85.47,85.47,0,0,0,.93-9.85c0-.92-1.4-.92-1.43,0a81.3,81.3,0,0,1-.88,9.47.75.75,0,0,0,.5.88.71.71,0,0,0,.88-.5Z" fill="#682b2f"/><path d="M119.76,183.49a11.91,11.91,0,0,0,5.71,6.95c.81.44,1.54-.8.72-1.23a10.53,10.53,0,0,1-5-6.1c-.27-.88-1.65-.51-1.38.38Z" fill="#682b2f"/><path d="M126.47,155.92a11.24,11.24,0,0,0,7.47,7.62.72.72,0,0,0,.38-1.39,9.77,9.77,0,0,1-6.47-6.61.72.72,0,0,0-1.38.38Z" fill="#682b2f"/><path d="M127.48,144.21a6.41,6.41,0,0,0,7.19-4.85.73.73,0,0,0-.5-.88.72.72,0,0,0-.88.5,5,5,0,0,1-5.43,3.85.74.74,0,0,0-.88.5.71.71,0,0,0,.5.88Z" fill="#682b2f"/><path d="M126.44,136.65a15.78,15.78,0,0,0,3.08-7.84.71.71,0,0,0-.71-.71.74.74,0,0,0-.72.71,14.25,14.25,0,0,1-2.89,7.11.72.72,0,0,0,1.24.73Z" fill="#682b2f"/><path d="M108.06,137.36a15,15,0,0,0,6.82,4.85.72.72,0,1,0,.38-1.38,13.66,13.66,0,0,1-6.19-4.48.72.72,0,0,0-1,0,.73.73,0,0,0,0,1Z" fill="#682b2f"/><path d="M101.52,153.38a8.64,8.64,0,0,0,7.88,4.2c.92-.05.92-1.49,0-1.43a7.26,7.26,0,0,1-6.65-3.49.71.71,0,0,0-1.23.72Z" fill="#682b2f"/><path d="M104,175.36a26.53,26.53,0,0,0,6.66-.26.72.72,0,0,0,.5-.88.75.75,0,0,0-.88-.5,25.4,25.4,0,0,1-6.28.21.72.72,0,0,0,0,1.43Z" fill="#682b2f"/><path d="M108.5,188.21a7.68,7.68,0,0,0,7.07-2c.65-.64-.36-1.66-1-1a6.2,6.2,0,0,1-5.67,1.62c-.89-.21-1.28,1.17-.38,1.38Z" fill="#682b2f"/><path d="M120.18,204.83a3.77,3.77,0,0,0,4.51-.77c1.29-1.26,1.66-3.14,2-4.84a.73.73,0,0,0-.5-.88.72.72,0,0,0-.88.5,8.12,8.12,0,0,1-1.43,4,3,3,0,0,1-1.43.9,1.78,1.78,0,0,1-1.51-.18.71.71,0,1,0-.72,1.23Z" fill="#682b2f"/><path d="M135.15,203.55a11.37,11.37,0,0,1-.6,6.08.74.74,0,0,0,.5.88.73.73,0,0,0,.88-.5,12.86,12.86,0,0,0,.61-6.84.72.72,0,0,0-1.39.38Z" fill="#682b2f"/><path d="M147.65,195.21A16.08,16.08,0,0,1,151,202.1c.2.9,1.58.52,1.38-.38a17.35,17.35,0,0,0-3.75-7.52.71.71,0,0,0-1,0,.73.73,0,0,0,0,1Z" fill="#682b2f"/><path d="M153.48,181.13a13.42,13.42,0,0,1,3.67,10.37c-.07.92,1.36.91,1.44,0a14.8,14.8,0,0,0-4.1-11.38c-.64-.66-1.65.35-1,1Z" fill="#682b2f"/><path d="M158.47,165a12.2,12.2,0,0,1,5.94,7c.28.88,1.66.5,1.38-.38a13.69,13.69,0,0,0-6.6-7.86c-.81-.43-1.54.81-.72,1.24Z" fill="#682b2f"/><path d="M162.87,145.8a11.45,11.45,0,0,1,5,7.92.71.71,0,0,0,.88.5.73.73,0,0,0,.5-.88,12.81,12.81,0,0,0-5.63-8.78c-.77-.51-1.49.73-.72,1.24Z" fill="#682b2f"/><path d="M163.73,120.33a16.28,16.28,0,0,0,7.53,9c.81.45,1.53-.79.72-1.23a14.71,14.71,0,0,1-6.86-8.13c-.3-.87-1.68-.5-1.39.38Z" fill="#682b2f"/><path d="M162.08,102.12a4.45,4.45,0,0,1,.24-.81c0,.11,0-.07,0-.09a1.19,1.19,0,0,1,.08-.16c.06-.11.12-.23.19-.34a3.64,3.64,0,0,1,.24-.35l.06-.07a1.07,1.07,0,0,1,.14-.16,4.45,4.45,0,0,1,.59-.56s0,0,0,0l.06,0,.17-.12.36-.22.38-.2.11,0,.14,0a5.41,5.41,0,0,1,.79-.21s.23,0,.09,0l.21,0h.42a.72.72,0,0,0,.72-.71.73.73,0,0,0-.72-.72,5.83,5.83,0,0,0-5.68,4.54.73.73,0,0,0,.5.88.72.72,0,0,0,.88-.5Z" fill="#682b2f"/><path d="M150.42,97.1a8.49,8.49,0,0,1-1.86-8.69c.31-.87-1.07-1.24-1.38-.38a9.92,9.92,0,0,0,2.23,10.08c.64.66,1.65-.35,1-1Z" fill="#682b2f"/><path d="M140.49,105.24a9.6,9.6,0,0,0,3.35,2,14.79,14.79,0,0,0,3.77.89.71.71,0,0,0,.72-.71.74.74,0,0,0-.72-.72,14,14,0,0,1-3.29-.8,8.14,8.14,0,0,1-2.82-1.64c-.67-.64-1.68.37-1,1Z" fill="#682b2f"/><path d="M142.59,122.16a8.68,8.68,0,0,0,8.27-1.69.71.71,0,0,0,0-1,.73.73,0,0,0-1,0,7.25,7.25,0,0,1-6.88,1.32c-.88-.28-1.25,1.1-.38,1.38Z" fill="#682b2f"/><path d="M153.22,136.74a5.66,5.66,0,0,0,7.76-3.8.74.74,0,0,0-.5-.88.72.72,0,0,0-.88.5,4.23,4.23,0,0,1-5.66,2.95.73.73,0,0,0-1,.26.71.71,0,0,0,.26,1Z" fill="#682b2f"/><path d="M213.81,165.33a19.52,19.52,0,0,1,5.13,9.71c.18.91,1.56.52,1.38-.38a20.9,20.9,0,0,0-5.5-10.34c-.64-.66-1.66.35-1,1Z" fill="#682b2f"/><path d="M214.62,155.13a10.62,10.62,0,0,0,7,1.28.72.72,0,0,0,.5-.88.73.73,0,0,0-.88-.5,9,9,0,0,1-5.93-1.14.72.72,0,0,0-.73,1.24Z" fill="#682b2f"/><path d="M196.69,133.53a15.13,15.13,0,0,1,8.26.84.72.72,0,0,0,.88-.5.73.73,0,0,0-.5-.88,16.52,16.52,0,0,0-9-.84.72.72,0,0,0,.38,1.38Z" fill="#682b2f"/><path d="M211.82,139.58a8.52,8.52,0,0,1,5.64-3.31.72.72,0,0,0,.5-.88.75.75,0,0,0-.88-.5,9.94,9.94,0,0,0-6.5,4,.72.72,0,0,0,.26,1,.73.73,0,0,0,1-.25Z" fill="#682b2f"/><path d="M205.94,141.55a9.76,9.76,0,0,0,3.3,10,.74.74,0,0,0,1,0,.72.72,0,0,0,0-1,8.34,8.34,0,0,1-2.93-8.58.72.72,0,0,0-1.38-.38Z" fill="#682b2f"/><path d="M220.51,140.44a6,6,0,0,0,4.11,6.56.72.72,0,0,0,.38-1.38,4.4,4.4,0,0,1-2.41-1.85,4.6,4.6,0,0,1-.62-1.46,3.28,3.28,0,0,1-.1-.74,4.19,4.19,0,0,1,0-.75.75.75,0,0,0-.51-.88.73.73,0,0,0-.88.5Z" fill="#682b2f"/><path d="M179,141.71a8.49,8.49,0,0,0,4.91,8.61.73.73,0,0,0,1-.25.71.71,0,0,0-.26-1,7.16,7.16,0,0,1-4.19-7.38c.05-.38-.37-.71-.72-.71a.73.73,0,0,0-.72.71Z" fill="#682b2f"/><path d="M175,166.41a53.18,53.18,0,0,1,6.44.45.72.72,0,0,0,.72-.72.74.74,0,0,0-.72-.71A53.18,53.18,0,0,0,175,165a.72.72,0,0,0,0,1.43Z" fill="#682b2f"/><path d="M179.87,186.68a5.89,5.89,0,0,0,7.51-3.6c.28-.88-1.1-1.26-1.38-.39a4.31,4.31,0,0,1-2.34,2.51,4.26,4.26,0,0,1-3.41.1.72.72,0,0,0-.88.5.73.73,0,0,0,.5.88Z" fill="#682b2f"/><path d="M202.89,183.48a20.63,20.63,0,0,1-.48,7.9c-.22.89,1.16,1.27,1.38.38a22.57,22.57,0,0,0,.48-8.66.72.72,0,0,0-.88-.5.74.74,0,0,0-.5.88Z" fill="#682b2f"/><path d="M230.37,158.77a11,11,0,0,0,7.7-1c.82-.44.09-1.67-.72-1.24a9.46,9.46,0,0,1-6.6.87c-.9-.21-1.28,1.17-.38,1.38Z" fill="#682b2f"/><path d="M243.08,176.6a8.19,8.19,0,0,0,7.86-7.66c0-.92-1.4-.92-1.43,0a6.74,6.74,0,0,1-6.43,6.23.72.72,0,0,0,0,1.43Z" fill="#682b2f"/><path d="M269,171.6a13.79,13.79,0,0,0-1.9-11c-.52-.76-1.76,0-1.24.72a12.38,12.38,0,0,1,1.76,9.9c-.22.89,1.16,1.27,1.38.38Z" fill="#682b2f"/><path d="M271.46,142.25a3.6,3.6,0,0,1,4,.7,12.14,12.14,0,0,1,2.72,4.24.71.71,0,1,0,1.23-.72,12.14,12.14,0,0,0-3.35-4.87,5,5,0,0,0-5.31-.59.72.72,0,0,0,.72,1.24Z" fill="#682b2f"/><path d="M234.18,131a9.64,9.64,0,0,0,4.15,9c.77.51,1.48-.73.72-1.24a8.24,8.24,0,0,1-3.44-7.74.71.71,0,0,0-.72-.71.73.73,0,0,0-.71.71Z" fill="#682b2f"/><path d="M249.17,117.69V123c0,1.23.27,2.83,1.78,3a.72.72,0,0,0,.72-.71.73.73,0,0,0-.72-.72c.05,0-.1-.07,0,0a.44.44,0,0,1-.14-.17,1.67,1.67,0,0,1-.16-.52,10,10,0,0,1,0-1.73v-4.41a.72.72,0,0,0-1.43,0Z" fill="#682b2f"/><path d="M267.49,128a10.07,10.07,0,0,0,5.37,7.45.72.72,0,1,0,.73-1.23,8.79,8.79,0,0,1-4.72-6.61.72.72,0,0,0-.88-.5.75.75,0,0,0-.5.89Z" fill="#682b2f"/><path d="M260.09,117.65a9.08,9.08,0,0,1,6,6.67c.19.9,1.57.52,1.38-.38a10.52,10.52,0,0,0-7-7.67c-.88-.28-1.25,1.1-.38,1.38Z" fill="#682b2f"/><path d="M306.28,109.64a19.09,19.09,0,0,0,.35,8,.72.72,0,0,0,1.39-.38,17.33,17.33,0,0,1-.36-7.2.74.74,0,0,0-.5-.88.71.71,0,0,0-.88.5Z" fill="#682b2f"/><path d="M286.47,122.9a9.13,9.13,0,0,0,6.55,6.41c.89.22,1.27-1.16.38-1.38a7.71,7.71,0,0,1-5.55-5.41.72.72,0,0,0-1.38.38Z" fill="#682b2f"/><path d="M282.74,147.19A9.57,9.57,0,0,0,290,149.6a.74.74,0,0,0,.72-.72.72.72,0,0,0-.72-.72,8.16,8.16,0,0,1-6.27-2,.74.74,0,0,0-1,0,.72.72,0,0,0,0,1Z" fill="#682b2f"/><path d="M290.91,169.62a7.71,7.71,0,0,0,8-4.25.74.74,0,0,0-.26-1,.72.72,0,0,0-1,.26,6.28,6.28,0,0,1-6.37,3.59.72.72,0,0,0-.38,1.38Z" fill="#682b2f"/><path d="M314.83,157.85a13,13,0,0,1,2.09,5.19,17.65,17.65,0,0,1,.31,5.66.71.71,0,0,0,.71.71.73.73,0,0,0,.72-.71,18.6,18.6,0,0,0-.36-6,13.94,13.94,0,0,0-2.23-5.53c-.55-.73-1.79,0-1.24.72Z" fill="#682b2f"/><path d="M320.62,142.75a8.25,8.25,0,0,1,4.77,6.85.72.72,0,0,0,1.43,0,9.67,9.67,0,0,0-5.48-8.09.74.74,0,0,0-1,.26.72.72,0,0,0,.26,1Z" fill="#682b2f"/><path d="M317.74,123.55a25.42,25.42,0,0,0,5-6.84.73.73,0,0,0-.26-1,.73.73,0,0,0-1,.25,24,24,0,0,1-4.74,6.55c-.66.65.35,1.66,1,1Z" fill="#682b2f"/><path d="M325.86,123a5.38,5.38,0,0,1,5.84,4.16.71.71,0,0,0,.88.5.74.74,0,0,0,.5-.88,6.77,6.77,0,0,0-7.22-5.21.74.74,0,0,0-.72.72.71.71,0,0,0,.72.71Z" fill="#682b2f"/><path d="M328.2,108.67a5.05,5.05,0,0,1,5.45,3.86.72.72,0,0,0,.88.5.73.73,0,0,0,.5-.88,6.47,6.47,0,0,0-7.21-4.86.71.71,0,0,0-.5.88.73.73,0,0,0,.88.5Z" fill="#682b2f"/><path d="M329,90.52a5.62,5.62,0,0,1,6.59,3.36.73.73,0,0,0,.88.5.72.72,0,0,0,.5-.88,7.08,7.08,0,0,0-8.36-4.36.72.72,0,0,0,.39,1.38Z" fill="#682b2f"/><path d="M327.78,75.14a15.84,15.84,0,0,1,9.05.09c.88.27,1.26-1.11.38-1.38a17.24,17.24,0,0,0-9.81-.09.72.72,0,0,0,.38,1.38Z" fill="#682b2f"/><path d="M317.16,83.56a5.82,5.82,0,0,1,5.41,1.59.71.71,0,0,0,1-1,7.28,7.28,0,0,0-6.8-2,.72.72,0,0,0-.5.88.75.75,0,0,0,.88.5Z" fill="#682b2f"/><path d="M317.12,101.66a8.14,8.14,0,0,1,6.66,1.14c.76.52,1.48-.72.72-1.24a9.58,9.58,0,0,0-7.76-1.29.72.72,0,0,0,.38,1.39Z" fill="#682b2f"/><path d="M340.77,139.78a17.15,17.15,0,0,1-1,10.25c-.36.84.87,1.57,1.24.72a18.8,18.8,0,0,0,1.14-11.35c-.19-.9-1.57-.52-1.38.38Z" fill="#682b2f"/><path d="M346.81,116a8.89,8.89,0,0,0,6.44,5.64.75.75,0,0,0,.89-.5.72.72,0,0,0-.5-.88,7.48,7.48,0,0,1-5.45-4.64.72.72,0,0,0-1.38.38Z" fill="#682b2f"/><path d="M351.76,98.34a5.88,5.88,0,0,0,4,5.47.72.72,0,0,0,.88-.5.74.74,0,0,0-.5-.88l-.2-.07-.1,0-.1,0a1.51,1.51,0,0,1-.18-.09,5.27,5.27,0,0,1-.64-.4c.08.06,0,0,0,0l-.13-.11-.27-.26a3.33,3.33,0,0,1-.25-.28s-.12-.14-.08-.08-.07-.1-.08-.12a5.6,5.6,0,0,1-.38-.61l-.09-.19s-.08-.17-.05-.1,0-.09,0-.1-.05-.13-.07-.2a4.46,4.46,0,0,1-.18-.72s0-.2,0-.11,0-.09,0-.11,0-.27,0-.41a.72.72,0,0,0-1.44,0Z" fill="#682b2f"/><path d="M354.71,125.52a6.66,6.66,0,0,0,7.18-3.2c.44-.81-.8-1.54-1.24-.73a5.17,5.17,0,0,1-5.56,2.54c-.9-.2-1.28,1.18-.38,1.39Z" fill="#682b2f"/><path d="M356.54,112.19c1.68.64,3.34-.26,4.59-1.35a18,18,0,0,0,1.79-1.91l2-2.36a.73.73,0,0,0,0-1,.71.71,0,0,0-1,0c-1.12,1.31-2.19,2.73-3.43,3.92-.94.91-2.21,1.85-3.57,1.33a.74.74,0,0,0-.88.5.73.73,0,0,0,.5.88Z" fill="#682b2f"/><path d="M361,148.84a10.85,10.85,0,0,0,6.2-7.26.72.72,0,0,0-1.38-.38,9.53,9.53,0,0,1-5.54,6.4.72.72,0,0,0,.72,1.24Z" fill="#682b2f"/><path d="M386.08,86.38l.21,0c.13,0,0,0,.06,0l.38.07a6.49,6.49,0,0,1,.75.23c.11.05,0,0,0,0l.17.07L388,87a5.74,5.74,0,0,1,.66.43s0,0,0,0l.06,0,.16.14.26.24.27.29.11.13.06.08A4.59,4.59,0,0,1,390,89c.06.1.11.21.16.31s0-.11,0,.09,0,.14.08.2a.73.73,0,0,0,.88.5.72.72,0,0,0,.5-.88A6.5,6.5,0,0,0,386.08,85a.72.72,0,1,0,0,1.43Z" fill="#682b2f"/><path d="M391.8,112.92a20.58,20.58,0,0,0,7.54-6.25.72.72,0,0,0-1.23-.73,19.2,19.2,0,0,1-7,5.74.72.72,0,0,0,.72,1.24Z" fill="#682b2f"/><path d="M382.43,108.8c3.5.43,5.77,3.87,7.51,6.58.5.78,1.74.06,1.24-.72-2.08-3.23-4.64-6.79-8.75-7.29a.71.71,0,0,0-.72.71.74.74,0,0,0,.72.72Z" fill="#682b2f"/><path d="M383.21,137.29a13.21,13.21,0,0,1,6.32,6.51.72.72,0,1,0,1.24-.72,14.32,14.32,0,0,0-6.84-7,.73.73,0,0,0-1,.26.71.71,0,0,0,.26,1Z" fill="#682b2f"/><path d="M381.3,153.65a15.46,15.46,0,0,1,4.85,9.91c.08.91,1.51.92,1.43,0a16.89,16.89,0,0,0-5.27-10.92c-.68-.63-1.69.38-1,1Z" fill="#682b2f"/><path d="M353.43,164.28a11.24,11.24,0,0,0,4.35,1.94,19.57,19.57,0,0,0,4.76.65.72.72,0,0,0,0-1.43,18,18,0,0,1-4.26-.57,9.83,9.83,0,0,1-3.83-1.6.75.75,0,0,0-1,0,.72.72,0,0,0,0,1Z" fill="#682b2f"/><path d="M341.63,178.27l8.24.44c.92,0,.92-1.39,0-1.44l-8.24-.43c-.92-.05-.92,1.39,0,1.43Z" fill="#682b2f"/><path d="M392.85,95a5.34,5.34,0,0,1,5.66-3.41c.38,0,.71-.37.71-.72a.73.73,0,0,0-.71-.71,6.74,6.74,0,0,0-7,4.46.72.72,0,0,0,.5.88.73.73,0,0,0,.88-.5Z" fill="#682b2f"/><path d="M339.58,198.35c.36-1.24,1.77-2.12,3-2.63a7.7,7.7,0,0,1,4.27-.65c.9.18,1.28-1.2.38-1.38a9,9,0,0,0-5.34.78c-1.54.67-3.18,1.8-3.67,3.5a.72.72,0,0,0,1.38.38Z" fill="#682b2f"/><path d="M358.51,195.92a12,12,0,0,0,1.05,8.17c.42.82,1.66.1,1.23-.72a10.43,10.43,0,0,1-.9-7.07c.2-.9-1.18-1.28-1.38-.38Z" fill="#682b2f"/><path d="M372.83,179.71a14.05,14.05,0,0,0,4.63,10.43c.68.61,1.7-.4,1-1a12.61,12.61,0,0,1-4.21-9.41.72.72,0,0,0-1.43,0Z" fill="#682b2f"/><path d="M393.73,127.26a50.13,50.13,0,0,1,.09,10.32c-.09.92,1.35.91,1.43,0a49.44,49.44,0,0,0-.09-10.32.74.74,0,0,0-.72-.72.71.71,0,0,0-.71.72Z" fill="#682b2f"/><path d="M415.18,110.69a34.7,34.7,0,0,0-.24,9,.73.73,0,0,0,.72.71.71.71,0,0,0,.71-.71,33.53,33.53,0,0,1,.19-8.61.74.74,0,0,0-.5-.88.71.71,0,0,0-.88.5Z" fill="#682b2f"/><path d="M444,94.63a8.68,8.68,0,0,0,1.11,6.93c.51.77,1.75,0,1.24-.72a7.28,7.28,0,0,1-1-5.83.72.72,0,0,0-1.38-.38Z" fill="#682b2f"/><path d="M459.89,88.8a5.44,5.44,0,0,1,1.75,6,.72.72,0,0,0,1.39.38,6.88,6.88,0,0,0-2.42-7.66.72.72,0,0,0-1,.25.74.74,0,0,0,.26,1Z" fill="#682b2f"/><path d="M448.43,78.88a7.88,7.88,0,0,1,5.42,6.52.73.73,0,0,0,.72.71.72.72,0,0,0,.71-.71,9.34,9.34,0,0,0-6.47-7.9c-.88-.27-1.26,1.11-.38,1.38Z" fill="#682b2f"/><path d="M440,95a25.54,25.54,0,0,0-1.39,16.62.72.72,0,0,0,1.39-.38,23.93,23.93,0,0,1,1.24-15.52c.37-.83-.87-1.56-1.24-.72Z" fill="#682b2f"/><path d="M449.73,113.43a23.07,23.07,0,0,0-1.22,10.77.74.74,0,0,0,.71.72.72.72,0,0,0,.72-.72,22.12,22.12,0,0,1,1.17-10.39c.32-.87-1.06-1.24-1.38-.38Z" fill="#682b2f"/><path d="M455.13,135.57a7.75,7.75,0,0,1,5.12-4.94.72.72,0,0,0-.38-1.39,9.25,9.25,0,0,0-6.12,5.94.72.72,0,1,0,1.38.39Z" fill="#682b2f"/><path d="M450.55,149.29a10.12,10.12,0,0,0,10.38-2.08c.67-.64-.34-1.65-1-1a8.69,8.69,0,0,1-9,1.72c-.86-.33-1.23,1.05-.38,1.38Z" fill="#682b2f"/><path d="M437.84,155a13.68,13.68,0,0,0,10.1,5c.92,0,.92-1.4,0-1.43a12.32,12.32,0,0,1-9.09-4.58.71.71,0,0,0-1,0,.73.73,0,0,0,0,1Z" fill="#682b2f"/><path d="M418,148a22.64,22.64,0,0,0-.82,11c.16.9,1.54.52,1.39-.39a20.87,20.87,0,0,1,.81-10.19c.29-.88-1.09-1.26-1.38-.38Z" fill="#682b2f"/><path d="M420.16,128.61A14.38,14.38,0,0,0,409,130.06a.72.72,0,0,0,.72,1.24A12.93,12.93,0,0,1,419.78,130a.72.72,0,0,0,.38-1.38Z" fill="#682b2f"/><path d="M436.8,123c-2.59-3.25-5.73-6.82-10.18-7-.92,0-.92,1.38,0,1.43,4,.19,6.86,3.72,9.16,6.61a.72.72,0,0,0,1-1Z" fill="#682b2f"/><path d="M461.12,121.34a35.92,35.92,0,0,1,5,10c.27.87,1.66.5,1.38-.38a37,37,0,0,0-5.17-10.35c-.53-.74-1.77,0-1.24.72Z" fill="#682b2f"/><path d="M473.31,125.53c.17,0,.38.3.46.41a5.42,5.42,0,0,1,.47.89l1.19,2.49,2.33,4.9c.4.84,1.63.11,1.24-.72l-2.72-5.71a18.59,18.59,0,0,0-1.27-2.57,2.09,2.09,0,0,0-2.08-1.08.72.72,0,0,0,.38,1.39Z" fill="#682b2f"/><path d="M486.12,128.52a21.94,21.94,0,0,1,4.44,8.63.72.72,0,0,0,1.38-.38,23.48,23.48,0,0,0-4.81-9.26c-.6-.71-1.61.31-1,1Z" fill="#682b2f"/><path d="M503.44,130c1.45,0,2.4,1.51,3.08,2.6a26.34,26.34,0,0,1,2.35,4.8.74.74,0,0,0,.88.5.72.72,0,0,0,.5-.88,27.87,27.87,0,0,0-2.72-5.5c-.94-1.45-2.23-2.93-4.09-2.95a.72.72,0,0,0,0,1.43Z" fill="#682b2f"/><path d="M514.56,129.15a7.08,7.08,0,0,1,3.53,5.68.74.74,0,0,0,.72.72.73.73,0,0,0,.72-.72,8.61,8.61,0,0,0-4.24-6.92.72.72,0,0,0-.73,1.24Z" fill="#682b2f"/><path d="M440.48,95.1s1.37,6.34,3.64,9.34" fill="none" stroke="#682b2f" stroke-linecap="round" stroke-linejoin="round" stroke-width="1.91"/><path d="M417.62,60.39a6.31,6.31,0,0,1,4.22,3c1.11,1.71.76,3.8,1.21,5.71a.72.72,0,0,0,1.05.43c2.21-1.54,4.86-2.31,7.37-3.23.86-.31.49-1.69-.38-1.38-2.62,1-5.4,1.77-7.72,3.37l1.06.43c-.26-1.11-.25-2.24-.4-3.36a6.58,6.58,0,0,0-1.18-3A7.64,7.64,0,0,0,418,59c-.9-.14-1.29,1.24-.38,1.39Z" fill="#682b2f"/><path d="M413,67.93a6.38,6.38,0,0,1,4.21,1,6.77,6.77,0,0,1,2.68,3.5A3.14,3.14,0,0,0,423,74.64c1.73,0,3.48-1.28,5.18-.66.87.32,1.24-1.06.38-1.38-1.83-.67-3.42.43-5.22.59a1.79,1.79,0,0,1-2-1,15,15,0,0,0-1-2.12,8,8,0,0,0-7.73-3.5c-.91.13-.52,1.51.38,1.39Z" fill="#682b2f"/><path d="M409.77,80.75a25.52,25.52,0,0,0,5.31.24,5.37,5.37,0,0,0,3.44-1.34,14,14,0,0,0,3.3-6.23.72.72,0,0,0-1.38-.38,12.77,12.77,0,0,1-2.84,5.5,4.21,4.21,0,0,1-3,1,27.44,27.44,0,0,1-4.79-.27c-.91-.11-.9,1.32,0,1.43Z" fill="#682b2f"/><path d="M416.39,80.52v6.31a.72.72,0,0,0,1.44,0V80.52a.72.72,0,0,0-1.44,0Z" fill="#682b2f"/><path d="M422.92,68.25a8.45,8.45,0,0,1-.05,2.2,7.43,7.43,0,0,1-.27,1.13,6.25,6.25,0,0,1-.38,1,.73.73,0,0,0,.25,1,.71.71,0,0,0,1-.25,9.34,9.34,0,0,0,.9-5,.74.74,0,0,0-.72-.72c-.35,0-.76.32-.71.72Z" fill="#682b2f"/><path d="M467.16,197.26s-6.16,9.65-10.62,9.89a45.45,45.45,0,0,0-10.17,2.24s18.1,3,24.05,1.23S467.16,197.26,467.16,197.26Z" fill="#682b2f"/><path d="M465.66,196.38a30.15,30.15,0,0,1-6.76,7.85,5.68,5.68,0,0,1-2.45,1.2c.4-.07-.72,0-.63,0-.37,0-.73.07-1.09.12-.9.12-1.79.27-2.68.45a46.83,46.83,0,0,0-6.14,1.67c-1.46.5-1.84,3,0,3.36a128.94,128.94,0,0,0,17.64,1.82,35.62,35.62,0,0,0,5.06-.17c1.54-.19,3.23-.45,4.36-1.63,2.27-2.37.83-6.07-.4-8.58a36.55,36.55,0,0,0-4.18-6.48,1.75,1.75,0,0,0-2.46,0,1.78,1.78,0,0,0,0,2.46c.08.11.21.29-.17-.21.07.09.15.18.21.27.26.35.52.7.77,1.06.74,1,1.45,2.14,2.09,3.27a16.47,16.47,0,0,1,1.6,3.59,4.65,4.65,0,0,1,.25,1.38c0,.46.06.08-.05.5s0,.08,0,0a1.5,1.5,0,0,1-.22.39c.09-.15.09-.05-.21.09a1.83,1.83,0,0,1-.51.17,9.78,9.78,0,0,1-1.63.28,36.6,36.6,0,0,1-4.8.11c-3.48-.09-6.95-.43-10.41-.85-2.05-.25-3.95-.5-6-.84v3.36a46.86,46.86,0,0,1,6.5-1.75c1.45-.28,3-.24,4.42-.61a9.39,9.39,0,0,0,3.1-1.62,34.16,34.16,0,0,0,7.81-9C469.88,196.25,466.86,194.5,465.66,196.38Z" fill="#682b2f"/><path d="M476,213.88l-4,1.25c-5.42,1.67-11,3.36-16.67,2.75-.61-.07-1.44,0-1.54.6s.4.82.82,1a15.3,15.3,0,0,0,5.5,1.12,97.38,97.38,0,0,0,16-.24" fill="#682b2f"/><path d="M475.56,212.2a117.51,117.51,0,0,1-12.71,3.56,25.89,25.89,0,0,1-6.69.45c-1.69-.12-4.05,0-4.13,2.27-.08,2.11,2.32,3,4,3.36a34.69,34.69,0,0,0,6.67.67,97,97,0,0,0,13.42-.38,1.78,1.78,0,0,0,1.75-1.74,1.76,1.76,0,0,0-1.75-1.74,99.22,99.22,0,0,1-11,.45c-1.79,0-3.59-.1-5.38-.24a18.62,18.62,0,0,1-2.35-.29c-.51-.11-1.9-.4-2-.7l.24.88v0l-.44.77c-.43.11-.44.15,0,.11l.7.06c.42,0,.84.07,1.26.08a24.39,24.39,0,0,0,3-.09,37.67,37.67,0,0,0,5.48-.88c3.74-.85,7.39-2.08,11.05-3.21,2.13-.66,1.22-4-.93-3.36Z" fill="#682b2f"/></svg>